<?xml version="1.0" encoding="UTF-8"?>
<!DOCTYPE svg PUBLIC "-//W3C//DTD SVG 1.1//EN" "http://www.w3.org/Graphics/SVG/1.1/DTD/svg11.dtd">
<!-- Creator: CorelDRAW 2019 (64-Bit) -->
<svg xmlns="http://www.w3.org/2000/svg" xml:space="preserve" width="1.016cm" height="1.016cm" version="1.1" style="shape-rendering:geometricPrecision; text-rendering:geometricPrecision; image-rendering:optimizeQuality; fill-rule:evenodd; clip-rule:evenodd"
viewBox="0 0 2.323 2.323"
 xmlns:xlink="http://www.w3.org/1999/xlink"
 xmlns:xodm="http://www.corel.com/coreldraw/odm/2003">
 <defs>
  <style type="text/css">
   <![CDATA[
    .fil7 {fill:none}
    .fil0 {fill:#E31E24}
    .fil2 {fill:#EF7F1A;fill-rule:nonzero}
    .fil5 {fill:#00A0E3;fill-rule:nonzero}
    .fil6 {fill:#434025;fill-rule:nonzero}
    .fil1 {fill:#BAC245;fill-rule:nonzero}
    .fil3 {fill:#DADD4F;fill-rule:nonzero}
    .fil4 {fill:white;fill-rule:nonzero}
   ]]>
  </style>
 </defs>
 <g id="Слой_x0020_1">
  <metadata id="CorelCorpID_0Corel-Layer"/>
  <g id="_2498984993808">
   <g>
    <path class="fil0" d="M1.921 0.355l0.086 0.086c0.011,0.011 0.015,0.019 0.014,0.023 -0.002,0.005 -0.009,0.006 -0.021,0.006l-0.13 0c-0.007,0 -0.015,-0.003 -0.02,-0.008 -0.11,-0.111 -0.108,-0.116 0.051,-0.115 0.007,0 0.014,0.003 0.019,0.008z"/>
    <path class="fil0" d="M2.175 0.355l-0.086 0.086c-0.011,0.011 -0.015,0.019 -0.014,0.023 0.002,0.005 0.009,0.006 0.021,0.006l0.13 0c0.007,0 0.015,-0.003 0.02,-0.008 0.11,-0.111 0.108,-0.116 -0.051,-0.115 -0.007,0 -0.014,0.003 -0.019,0.008z"/>
    <path class="fil0" d="M2.175 0.594l-0.086 -0.086c-0.011,-0.011 -0.015,-0.019 -0.014,-0.023 0.002,-0.005 0.009,-0.006 0.021,-0.006l0.13 0c0.007,0 0.015,0.003 0.02,0.008 0.11,0.111 0.108,0.116 -0.051,0.115 -0.007,-0 -0.014,-0.003 -0.019,-0.008z"/>
    <path class="fil0" d="M1.921 0.594l0.086 -0.086c0.011,-0.011 0.015,-0.019 0.014,-0.023 -0.002,-0.005 -0.009,-0.006 -0.021,-0.006l-0.13 0c-0.007,0 -0.015,0.003 -0.02,0.008 -0.11,0.111 -0.108,0.116 0.051,0.115 0.007,-0 0.014,-0.003 0.019,-0.008z"/>
    <path class="fil0" d="M2.166 0.602l-0.086 -0.086c-0.011,-0.011 -0.019,-0.015 -0.023,-0.014 -0.005,0.002 -0.006,0.009 -0.006,0.021l0 0.13c0,0.007 0.003,0.015 0.008,0.02 0.111,0.11 0.116,0.108 0.115,-0.051 -0,-0.007 -0.003,-0.014 -0.008,-0.019z"/>
    <path class="fil0" d="M1.927 0.602l0.086 -0.086c0.011,-0.011 0.019,-0.015 0.023,-0.014 0.005,0.002 0.006,0.009 0.006,0.021l0 0.13c0,0.007 -0.003,0.015 -0.008,0.02 -0.111,0.11 -0.116,0.108 -0.115,-0.051 0,-0.007 0.003,-0.014 0.008,-0.019z"/>
    <path class="fil0" d="M1.927 0.347l0.086 0.086c0.011,0.011 0.019,0.015 0.023,0.014 0.005,-0.002 0.006,-0.009 0.006,-0.021l0 -0.13c0,-0.007 -0.003,-0.015 -0.008,-0.02 -0.111,-0.11 -0.116,-0.108 -0.115,0.051 0,0.007 0.003,0.014 0.008,0.019z"/>
    <path class="fil0" d="M2.166 0.347l-0.086 0.086c-0.011,0.011 -0.019,0.015 -0.023,0.014 -0.005,-0.002 -0.006,-0.009 -0.006,-0.021l0 -0.13c0,-0.007 0.003,-0.015 0.008,-0.02 0.111,-0.11 0.116,-0.108 0.115,0.051 -0,0.007 -0.003,0.014 -0.008,0.019z"/>
   </g>
   <path class="fil1" d="M1.07 1.462c0,0 -0.89,-0.215 -1.048,0.122 -0.11,0.231 0.213,0.452 0.396,0.517 0.084,0.03 0.17,0.036 0.244,-0.024 0.011,-0.009 0.02,-0.019 0.028,-0.03 0.331,-0.476 -1.118,-0.316 0.379,-0.585z"/>
   <polygon class="fil1" points="1.018,0.666 1.213,0.598 1.055,0.458 0.896,0.318 0.86,0.526 0.823,0.734 "/>
   <polygon class="fil2" points="1.055,0.775 1.25,0.707 1.092,0.567 0.933,0.427 0.897,0.635 0.86,0.843 "/>
   <polygon class="fil1" points="1.462,0.69 1.267,0.622 1.425,0.482 1.584,0.342 1.62,0.55 1.657,0.758 "/>
   <polygon class="fil2" points="1.423,0.792 1.228,0.724 1.386,0.584 1.544,0.444 1.581,0.652 1.617,0.861 "/>
   <path class="fil1" d="M1.886 1.628c0,0.082 -0.075,0.112 -0.167,0.112 -0.092,0 -0.167,-0.03 -0.167,-0.112 0,-0.082 0.075,-0.149 0.167,-0.149 0.092,0 0.167,0.067 0.167,0.149z"/>
   <path class="fil1" d="M0.861 1.632c0,0.082 -0.075,0.112 -0.167,0.112 -0.092,0 -0.167,-0.03 -0.167,-0.112 0,-0.082 0.075,-0.149 0.167,-0.149 0.092,0 0.167,0.067 0.167,0.149z"/>
   <path class="fil3" d="M1.848 1.263c0,0.403 -0.286,0.549 -0.639,0.549 -0.353,0 -0.639,-0.145 -0.639,-0.549 0,-0.403 0.286,-0.73 0.639,-0.73 0.353,0 0.639,0.327 0.639,0.73z"/>
   <path class="fil1" d="M1.557 1.813c0,0.082 -0.075,0.112 -0.167,0.112 -0.092,0 -0.167,-0.03 -0.167,-0.112 0,-0.082 0.075,-0.149 0.167,-0.149 0.092,0 0.167,0.067 0.167,0.149z"/>
   <path class="fil1" d="M1.176 1.808c0,0.082 -0.075,0.112 -0.167,0.112 -0.092,0 -0.167,-0.03 -0.167,-0.112 0,-0.082 0.075,-0.149 0.167,-0.149 0.092,0 0.167,0.067 0.167,0.149z"/>
   <path class="fil1" d="M1.389 0.647c-0.067,0 -0.128,0.022 -0.176,0.06 -0.048,-0.037 -0.109,-0.06 -0.176,-0.06 -0.152,0 -0.275,0.115 -0.275,0.256 0,0.141 0.123,0.256 0.275,0.256 0.067,0 0.128,-0.022 0.176,-0.06 0.048,0.037 0.109,0.06 0.176,0.06 0.152,0 0.275,-0.115 0.275,-0.256 0,-0.141 -0.123,-0.256 -0.275,-0.256z"/>
   <path class="fil4" d="M1.2 0.927c0,0.094 -0.076,0.17 -0.17,0.17 -0.094,0 -0.171,-0.076 -0.171,-0.17 0,-0.094 0.076,-0.171 0.171,-0.171 0.094,0 0.17,0.076 0.17,0.171z"/>
   <path class="fil4" d="M1.567 0.927c0,0.094 -0.076,0.17 -0.171,0.17 -0.094,0 -0.171,-0.076 -0.171,-0.17 0,-0.094 0.076,-0.171 0.171,-0.171 0.094,0 0.171,0.076 0.171,0.171z"/>
   <path class="fil5" d="M1.474 0.888c-0.018,0 -0.033,-0.015 -0.033,-0.033 0,-0.018 0.015,-0.033 0.033,-0.033 0.001,0 0.002,0 0.003,0 -0.016,-0.014 -0.036,-0.022 -0.058,-0.022 -0.048,0 -0.088,0.039 -0.088,0.088 0,0.048 0.039,0.088 0.088,0.088 0.048,0 0.088,-0.039 0.088,-0.088 0,-0.007 -0.001,-0.014 -0.002,-0.02 -0.005,0.012 -0.017,0.02 -0.03,0.02z"/>
   <path class="fil5" d="M1.137 0.888c-0.018,0 -0.033,-0.015 -0.033,-0.033 0,-0.018 0.015,-0.033 0.033,-0.033 0.001,0 0.002,0 0.003,0 -0.015,-0.014 -0.036,-0.022 -0.058,-0.022 -0.048,0 -0.088,0.039 -0.088,0.088 0,0.048 0.039,0.088 0.088,0.088 0.048,0 0.088,-0.039 0.088,-0.088 0,-0.007 -0.001,-0.014 -0.002,-0.02 -0.005,0.012 -0.017,0.02 -0.03,0.02z"/>
   <path class="fil6" d="M1.263 1.128c0,0.021 -0.022,0.038 -0.05,0.038 -0.027,0 -0.05,-0.017 -0.05,-0.038 0,-0.021 0.022,-0.038 0.05,-0.038 0.027,0 0.05,0.017 0.05,0.038z"/>
   <polygon class="fil6" points="1.213,1.27 1.221,1.27 1.217,1.221 1.213,1.172 1.209,1.221 1.205,1.27 "/>
   <path class="fil6" d="M1.213 1.27c-0.028,0 -0.053,-0.006 -0.072,-0.015 0.009,0.024 0.038,0.042 0.073,0.042 0.035,0 0.065,-0.018 0.074,-0.043 -0.019,0.01 -0.045,0.017 -0.074,0.017z"/>
  </g>
  <rect class="fil7" width="2.323" height="2.323"/>
 </g>
</svg>
