<?xml version="1.0" encoding="UTF-8"?>
<!DOCTYPE svg PUBLIC "-//W3C//DTD SVG 1.1//EN" "http://www.w3.org/Graphics/SVG/1.1/DTD/svg11.dtd">
<!-- Creator: CorelDRAW 2019 (64-Bit) -->
<svg xmlns="http://www.w3.org/2000/svg" xml:space="preserve" width="0.7673cm" height="0.66146cm" version="1.1" style="shape-rendering:geometricPrecision; text-rendering:geometricPrecision; image-rendering:optimizeQuality; fill-rule:evenodd; clip-rule:evenodd"
viewBox="0 0 1.098 0.946"
 xmlns:xlink="http://www.w3.org/1999/xlink"
 xmlns:xodm="http://www.corel.com/coreldraw/odm/2003">
 <defs>
  <style type="text/css">
   <![CDATA[
    .fil0 {fill:#EFF0AB}
    .fil2 {fill:#EF7F1A;fill-rule:nonzero}
    .fil1 {fill:#BAC245;fill-rule:nonzero}
   ]]>
  </style>
 </defs>
 <g id="Слой_x0020_1">
  <metadata id="CorelCorpID_0Corel-Layer"/>
  <g id="_2494904851856">
   <path class="fil0" d="M0.145 0l0.807 0c0.08,0 0.145,0.065 0.145,0.145l0 0.656c0,0.08 -0.065,0.145 -0.145,0.145l-0.807 0c-0.08,0 -0.145,-0.065 -0.145,-0.145l0 -0.656c0,-0.08 0.065,-0.145 0.145,-0.145z"/>
   <path class="fil1" d="M0.576 0.185c-0.008,0.003 -0.016,0.007 -0.022,0.011 -0.007,0.004 -0.014,0.008 -0.02,0.014 -0.014,0.01 -0.025,0.022 -0.033,0.036 -0.009,0.016 -0.014,0.032 -0.015,0.048 -0.003,-0.017 0,-0.034 0.008,-0.051 0.007,-0.015 0.018,-0.029 0.033,-0.04 0.015,-0.011 0.03,-0.019 0.046,-0.024 0.017,-0.006 0.034,-0.007 0.051,-0.004 -0.017,0.001 -0.033,0.005 -0.049,0.011zm0.177 0.056c-0.015,-0.038 -0.035,-0.065 -0.062,-0.083 -0.023,-0.015 -0.05,-0.022 -0.081,-0.02 -0.027,0.001 -0.011,0.015 -0.036,0.03 -0.025,0.014 -0.086,0.024 -0.099,0.043 -0.011,0.016 -0.019,0.034 -0.023,0.052 -0.004,0.018 -0.004,0.034 -0.001,0.049 0.004,0.015 0.011,0.027 0.021,0.034 0.011,0.008 0.025,0.011 0.041,0.009 0.02,-0.003 0.033,0.011 0.041,0.042 0.003,0.011 0.005,0.025 0.007,0.041 0.001,0.006 0.001,0.013 0.002,0.02l0 0.009 0 0.009c0.003,0.046 0.002,0.094 -0.002,0.143 -0.001,0.016 -0.003,0.034 -0.006,0.056l-0.001 0.013 -0.001 0.012c-0.001,0.009 -0.002,0.016 -0.002,0.022 -0.003,0.03 -0.002,0.052 0.001,0.064 0.005,0.016 0.016,0.027 0.034,0.032 0.034,0.01 0.067,-0.006 0.096,-0.049 0.027,-0.038 0.048,-0.092 0.065,-0.161 0.016,-0.066 0.024,-0.133 0.026,-0.2 0.001,-0.07 -0.006,-0.125 -0.021,-0.165z"/>
   <path class="fil2" d="M0.513 0.177c-0.008,0.003 -0.016,0.007 -0.022,0.011 -0.007,0.004 -0.014,0.008 -0.02,0.014 -0.014,0.01 -0.025,0.022 -0.033,0.036 -0.009,0.016 -0.014,0.032 -0.015,0.048 -0.003,-0.017 0,-0.034 0.008,-0.051 0.007,-0.015 0.018,-0.029 0.033,-0.04 0.015,-0.011 0.03,-0.019 0.046,-0.024 0.017,-0.006 0.034,-0.007 0.051,-0.004 -0.017,0.001 -0.033,0.005 -0.049,0.011zm0.177 0.056c-0.015,-0.038 -0.035,-0.065 -0.062,-0.083 -0.023,-0.015 -0.05,-0.022 -0.081,-0.02 -0.027,0.001 -0.054,0.009 -0.079,0.023 -0.025,0.014 -0.043,0.03 -0.057,0.05 -0.011,0.016 -0.019,0.034 -0.023,0.052 -0.004,0.018 -0.004,0.034 -0.001,0.049 0.004,0.015 0.011,0.027 0.021,0.034 0.011,0.008 0.025,0.011 0.041,0.009 0.02,-0.003 0.033,0.011 0.041,0.042 0.003,0.011 0.005,0.025 0.007,0.041 0.001,0.006 0.001,0.013 0.002,0.02l0 0.009 0 0.009c0.003,0.046 0.002,0.094 -0.002,0.143 -0.001,0.016 -0.003,0.034 -0.006,0.056l-0.001 0.013 -0.001 0.012c-0.001,0.009 -0.002,0.016 -0.002,0.022 -0.003,0.03 -0.002,0.052 0.001,0.064 0.005,0.016 0.016,0.027 0.034,0.032 0.034,0.01 0.067,-0.006 0.096,-0.049 0.027,-0.038 0.048,-0.092 0.065,-0.161 0.016,-0.066 0.024,-0.133 0.026,-0.2 0.001,-0.07 -0.006,-0.125 -0.021,-0.165z"/>
  </g>
 </g>
</svg>
