<?xml version="1.0" encoding="UTF-8"?>
<!DOCTYPE svg PUBLIC "-//W3C//DTD SVG 1.1//EN" "http://www.w3.org/Graphics/SVG/1.1/DTD/svg11.dtd">
<!-- Creator: CorelDRAW 2019 (64-Bit) -->
<svg xmlns="http://www.w3.org/2000/svg" xml:space="preserve" width="0.80489cm" height="0.69323cm" version="1.1" style="shape-rendering:geometricPrecision; text-rendering:geometricPrecision; image-rendering:optimizeQuality; fill-rule:evenodd; clip-rule:evenodd"
viewBox="0 0 1.372 1.182"
 xmlns:xlink="http://www.w3.org/1999/xlink"
 xmlns:xodm="http://www.corel.com/coreldraw/odm/2003">
 <defs>
  <style type="text/css">
   <![CDATA[
    .fil0 {fill:#A39F6B}
    .fil1 {fill:#EFF0AB}
    .fil3 {fill:#EF7F1A;fill-rule:nonzero}
    .fil2 {fill:#BAC245;fill-rule:nonzero}
   ]]>
  </style>
 </defs>
 <g id="Слой_x0020_1">
  <metadata id="CorelCorpID_0Corel-Layer"/>
  <path class="fil0" d="M0.237 0.054l0.962 0c0.095,0 0.173,0.078 0.173,0.173l0 0.781c0,0.095 -0.078,0.173 -0.173,0.173l-0.962 0c-0.095,0 -0.173,-0.078 -0.173,-0.173l0 -0.781c0,-0.095 0.078,-0.173 0.173,-0.173z"/>
  <g id="_2495006952320">
   <path class="fil1" d="M0.173 0l0.962 0c0.095,0 0.173,0.078 0.173,0.173l0 0.781c0,0.095 -0.078,0.173 -0.173,0.173l-0.962 0c-0.095,0 -0.173,-0.078 -0.173,-0.173l0 -0.781c0,-0.095 0.078,-0.173 0.173,-0.173z"/>
   <path class="fil2" d="M0.686 0.221c-0.01,0.004 -0.019,0.008 -0.027,0.013 -0.008,0.004 -0.016,0.01 -0.024,0.016 -0.017,0.012 -0.03,0.027 -0.039,0.043 -0.01,0.019 -0.016,0.038 -0.017,0.057 -0.003,-0.02 0,-0.04 0.009,-0.061 0.008,-0.018 0.022,-0.034 0.04,-0.048 0.017,-0.013 0.036,-0.023 0.055,-0.028 0.021,-0.007 0.041,-0.008 0.061,-0.005 -0.02,0.001 -0.039,0.005 -0.059,0.013zm0.211 0.066c-0.017,-0.045 -0.042,-0.078 -0.074,-0.099 -0.028,-0.018 -0.06,-0.026 -0.096,-0.024 -0.033,0.002 -0.013,0.018 -0.043,0.035 -0.029,0.016 -0.102,0.029 -0.118,0.052 -0.013,0.019 -0.022,0.04 -0.027,0.062 -0.005,0.021 -0.005,0.04 -0.001,0.058 0.004,0.018 0.013,0.032 0.025,0.041 0.013,0.01 0.029,0.013 0.049,0.011 0.023,-0.003 0.04,0.014 0.049,0.05 0.003,0.013 0.006,0.03 0.008,0.049 0.001,0.007 0.002,0.015 0.002,0.024l0.001 0.011 0.001 0.01c0.003,0.055 0.002,0.112 -0.002,0.17 -0.001,0.019 -0.004,0.041 -0.007,0.066l-0.001 0.015 -0.002 0.014c-0.001,0.01 -0.002,0.019 -0.003,0.026 -0.003,0.036 -0.003,0.061 0.002,0.077 0.006,0.019 0.02,0.032 0.041,0.038 0.041,0.012 0.079,-0.007 0.115,-0.058 0.032,-0.045 0.058,-0.109 0.078,-0.192 0.019,-0.079 0.029,-0.158 0.031,-0.238 0.002,-0.083 -0.007,-0.149 -0.026,-0.196z"/>
   <path class="fil3" d="M0.611 0.211c-0.01,0.004 -0.019,0.008 -0.027,0.013 -0.008,0.004 -0.016,0.01 -0.024,0.016 -0.017,0.012 -0.03,0.027 -0.039,0.043 -0.01,0.019 -0.016,0.038 -0.017,0.057 -0.003,-0.02 0,-0.04 0.009,-0.061 0.008,-0.018 0.022,-0.034 0.04,-0.048 0.017,-0.013 0.036,-0.023 0.055,-0.028 0.021,-0.007 0.041,-0.008 0.061,-0.005 -0.02,0.001 -0.039,0.005 -0.059,0.013zm0.211 0.066c-0.017,-0.045 -0.042,-0.078 -0.074,-0.099 -0.028,-0.018 -0.06,-0.027 -0.096,-0.024 -0.033,0.002 -0.064,0.011 -0.094,0.028 -0.029,0.016 -0.052,0.036 -0.068,0.059 -0.013,0.019 -0.022,0.04 -0.027,0.062 -0.005,0.021 -0.005,0.04 -0.001,0.058 0.004,0.018 0.013,0.032 0.025,0.041 0.013,0.01 0.029,0.013 0.049,0.011 0.023,-0.003 0.04,0.014 0.049,0.05 0.003,0.013 0.006,0.03 0.008,0.049 0.001,0.007 0.002,0.015 0.002,0.024l0.001 0.011 0.001 0.01c0.003,0.055 0.002,0.112 -0.002,0.17 -0.001,0.019 -0.004,0.041 -0.007,0.066l-0.001 0.015 -0.002 0.014c-0.001,0.01 -0.002,0.019 -0.003,0.026 -0.003,0.036 -0.003,0.061 0.002,0.077 0.006,0.019 0.02,0.032 0.041,0.038 0.041,0.012 0.079,-0.007 0.115,-0.058 0.032,-0.045 0.058,-0.109 0.078,-0.192 0.019,-0.079 0.029,-0.158 0.031,-0.238 0.002,-0.083 -0.007,-0.149 -0.026,-0.196z"/>
  </g>
 </g>
</svg>
