<?xml version="1.0" encoding="UTF-8"?>
<!DOCTYPE svg PUBLIC "-//W3C//DTD SVG 1.1//EN" "http://www.w3.org/Graphics/SVG/1.1/DTD/svg11.dtd">
<!-- Creator: CorelDRAW 2019 (64-Bit) -->
<svg xmlns="http://www.w3.org/2000/svg" xml:space="preserve" width="0.7673cm" height="0.66146cm" version="1.1" style="shape-rendering:geometricPrecision; text-rendering:geometricPrecision; image-rendering:optimizeQuality; fill-rule:evenodd; clip-rule:evenodd"
viewBox="0 0 1.143 0.985"
 xmlns:xlink="http://www.w3.org/1999/xlink"
 xmlns:xodm="http://www.corel.com/coreldraw/odm/2003">
 <defs>
  <style type="text/css">
   <![CDATA[
    .fil0 {fill:#EFF0AB}
    .fil2 {fill:#EF7F1A;fill-rule:nonzero}
    .fil1 {fill:#BAC245;fill-rule:nonzero}
   ]]>
  </style>
 </defs>
 <g id="Слой_x0020_1">
  <metadata id="CorelCorpID_0Corel-Layer"/>
  <g id="_2494997908640">
   <path class="fil0" d="M0.151 0l0.84 0c0.083,0 0.151,0.068 0.151,0.151l0 0.683c0,0.083 -0.068,0.151 -0.151,0.151l-0.84 0c-0.083,0 -0.151,-0.068 -0.151,-0.151l0 -0.683c0,-0.083 0.068,-0.151 0.151,-0.151z"/>
   <path class="fil1" d="M0.785 0.705c-0.004,0 -0.009,0 -0.016,0.001l-0.009 0.001 -0.009 0.001c0.01,-0.008 0.021,-0.012 0.034,-0.012 0.007,0 0.013,0.001 0.018,0.003 0.006,0.003 0.011,0.006 0.014,0.011 -0.011,-0.003 -0.023,-0.005 -0.033,-0.005zm-0.282 -0.16c-0.008,0.008 -0.015,0.015 -0.021,0.022 -0.015,0.017 -0.027,0.033 -0.036,0.048 -0.011,0.017 -0.019,0.035 -0.024,0.054 -0.005,0.019 -0.007,0.039 -0.007,0.06l-0.003 -0.015 -0.001 -0.007 0 -0.008 0 -0.007 0.001 -0.008 0.001 -0.007 0.002 -0.008c0.004,-0.019 0.011,-0.038 0.023,-0.058 0.011,-0.018 0.024,-0.033 0.039,-0.048 0.008,-0.007 0.015,-0.014 0.023,-0.02l0.012 -0.009c0.005,-0.003 0.009,-0.006 0.013,-0.008l-0.011 0.01 -0.011 0.011zm0.049 -0.316c-0.009,0.004 -0.018,0.008 -0.027,0.013 -0.019,0.01 -0.035,0.02 -0.05,0.033 -0.016,0.012 -0.03,0.026 -0.043,0.042 -0.007,0.008 -0.012,0.017 -0.016,0.025 -0.006,0.01 -0.009,0.019 -0.01,0.028 -0.001,-0.017 0.006,-0.036 0.021,-0.058 0.011,-0.016 0.026,-0.031 0.043,-0.045 0.018,-0.014 0.035,-0.024 0.053,-0.032 0.01,-0.004 0.019,-0.008 0.029,-0.011 0.011,-0.003 0.021,-0.005 0.03,-0.006l-0.014 0.005c-0.006,0.002 -0.011,0.004 -0.014,0.005zm0.212 0.46c-0.028,0.011 -0.08,-0.001 -0.104,-0.003 -0.019,-0.002 -0.031,-0.006 -0.036,-0.013 -0.002,-0.004 -0.003,-0.007 -0.003,-0.011 -0,-0.006 0.001,-0.012 0.004,-0.017 0.008,-0.016 0.027,-0.034 0.057,-0.052 0.039,-0.024 0.072,-0.054 0.099,-0.091 0.026,-0.036 0.042,-0.073 0.05,-0.112 0.008,-0.04 0.005,-0.076 -0.009,-0.109 -0.015,-0.035 -0.042,-0.062 -0.08,-0.081 -0.045,-0.023 -0.094,-0.03 -0.145,-0.023 -0.045,0.006 -0.088,0.022 -0.128,0.049 -0.038,0.025 -0.066,0.054 -0.085,0.086 -0.019,0.033 -0.023,0.062 -0.013,0.087 0.01,0.024 0.029,0.039 0.058,0.043 0.029,0.004 0.064,-0.003 0.106,-0.022 0.023,-0.011 0.039,-0.017 0.048,-0.019 0.009,-0.002 0.016,-0 0.021,0.005 0.01,0.01 -0.002,0.025 -0.037,0.046 -0.065,0.037 -0.114,0.079 -0.146,0.124 -0.041,0.058 -0.054,0.118 -0.039,0.183 0.011,0.045 0.043,0.079 0.096,0.1 0.043,0.017 0.098,0.026 0.164,0.026 0.066,0 0.121,-0.009 0.163,-0.027 0.043,-0.019 0.068,-0.045 0.075,-0.078 0.004,-0.017 0.003,-0.033 -0.003,-0.05 -0.005,-0.017 -0.014,-0.031 -0.027,-0.043 -0.014,-0.013 -0.029,-0.02 -0.048,-0.023 -0.021,-0.003 -0.016,0.016 -0.039,0.025z"/>
   <path class="fil2" d="M0.734 0.671c-0.004,0 -0.009,0 -0.016,0.001l-0.009 0.001 -0.009 0.001c0.01,-0.008 0.021,-0.012 0.034,-0.012 0.007,0 0.013,0.001 0.018,0.003 0.006,0.003 0.011,0.006 0.014,0.011 -0.011,-0.003 -0.023,-0.005 -0.033,-0.005zm-0.282 -0.16c-0.008,0.008 -0.015,0.015 -0.021,0.022 -0.015,0.017 -0.027,0.033 -0.036,0.048 -0.011,0.017 -0.019,0.035 -0.024,0.054 -0.005,0.019 -0.007,0.039 -0.007,0.06l-0.003 -0.015 -0.001 -0.007 0 -0.008 0 -0.007 0.001 -0.008 0.001 -0.007 0.002 -0.008c0.004,-0.019 0.011,-0.038 0.023,-0.058 0.011,-0.018 0.024,-0.033 0.039,-0.048 0.008,-0.007 0.015,-0.014 0.023,-0.02l0.012 -0.009c0.005,-0.003 0.009,-0.006 0.013,-0.008l-0.011 0.01 -0.011 0.011zm0.049 -0.316c-0.009,0.004 -0.018,0.008 -0.027,0.013 -0.019,0.01 -0.035,0.02 -0.05,0.033 -0.016,0.012 -0.03,0.026 -0.043,0.042 -0.007,0.008 -0.012,0.017 -0.016,0.025 -0.006,0.01 -0.009,0.019 -0.01,0.028 -0.001,-0.017 0.006,-0.036 0.021,-0.058 0.011,-0.016 0.026,-0.031 0.043,-0.045 0.018,-0.014 0.035,-0.024 0.053,-0.032 0.01,-0.004 0.019,-0.008 0.029,-0.011 0.011,-0.003 0.021,-0.005 0.03,-0.006l-0.014 0.005c-0.006,0.002 -0.011,0.004 -0.014,0.005zm0.185 0.443c-0.028,0.011 -0.053,0.015 -0.077,0.013 -0.019,-0.001 -0.031,-0.006 -0.036,-0.013 -0.002,-0.004 -0.003,-0.007 -0.003,-0.011 -0,-0.006 0.001,-0.012 0.004,-0.017 0.008,-0.016 0.027,-0.034 0.057,-0.052 0.039,-0.024 0.072,-0.054 0.099,-0.091 0.026,-0.036 0.042,-0.073 0.05,-0.112 0.008,-0.04 0.005,-0.076 -0.009,-0.109 -0.015,-0.035 -0.042,-0.062 -0.08,-0.081 -0.045,-0.023 -0.094,-0.03 -0.145,-0.023 -0.045,0.006 -0.088,0.022 -0.128,0.049 -0.038,0.025 -0.066,0.054 -0.085,0.086 -0.019,0.033 -0.023,0.062 -0.013,0.087 0.01,0.024 0.029,0.039 0.058,0.043 0.029,0.004 0.064,-0.003 0.106,-0.022 0.023,-0.011 0.039,-0.017 0.048,-0.019 0.009,-0.002 0.016,-0 0.021,0.005 0.01,0.01 -0.002,0.025 -0.037,0.046 -0.065,0.037 -0.114,0.079 -0.146,0.124 -0.041,0.058 -0.054,0.118 -0.039,0.183 0.011,0.045 0.043,0.079 0.096,0.1 0.043,0.017 0.098,0.026 0.164,0.026 0.066,0 0.121,-0.009 0.163,-0.027 0.043,-0.019 0.068,-0.045 0.075,-0.078 0.004,-0.017 0.003,-0.033 -0.003,-0.05 -0.005,-0.017 -0.014,-0.031 -0.027,-0.043 -0.014,-0.013 -0.029,-0.02 -0.048,-0.023 -0.021,-0.003 -0.043,-0 -0.066,0.009z"/>
  </g>
 </g>
</svg>
