<?xml version="1.0" encoding="UTF-8"?>
<!DOCTYPE svg PUBLIC "-//W3C//DTD SVG 1.1//EN" "http://www.w3.org/Graphics/SVG/1.1/DTD/svg11.dtd">
<!-- Creator: CorelDRAW 2019 (64-Bit) -->
<svg xmlns="http://www.w3.org/2000/svg" xml:space="preserve" width="0.80489cm" height="0.69323cm" version="1.1" style="shape-rendering:geometricPrecision; text-rendering:geometricPrecision; image-rendering:optimizeQuality; fill-rule:evenodd; clip-rule:evenodd"
viewBox="0 0 1.428 1.23"
 xmlns:xlink="http://www.w3.org/1999/xlink"
 xmlns:xodm="http://www.corel.com/coreldraw/odm/2003">
 <defs>
  <style type="text/css">
   <![CDATA[
    .fil0 {fill:#A39F6B}
    .fil1 {fill:#EFF0AB}
    .fil3 {fill:#EF7F1A;fill-rule:nonzero}
    .fil2 {fill:#BAC245;fill-rule:nonzero}
   ]]>
  </style>
 </defs>
 <g id="Слой_x0020_1">
  <metadata id="CorelCorpID_0Corel-Layer"/>
  <path class="fil0" d="M0.247 0.056l1.001 0c0.099,0 0.18,0.081 0.18,0.18l0 0.813c0,0.099 -0.081,0.18 -0.18,0.18l-1.001 0c-0.099,0 -0.18,-0.081 -0.18,-0.18l0 -0.813c0,-0.099 0.081,-0.18 0.18,-0.18z"/>
  <g id="_2495018607872">
   <path class="fil1" d="M0.18 0l1.001 0c0.099,0 0.18,0.081 0.18,0.18l0 0.813c0,0.099 -0.081,0.18 -0.18,0.18l-1.001 0c-0.099,0 -0.18,-0.081 -0.18,-0.18l0 -0.813c0,-0.099 0.081,-0.18 0.18,-0.18z"/>
   <path class="fil2" d="M0.935 0.84c-0.005,0 -0.011,0 -0.02,0.001l-0.011 0.001 -0.011 0.001c0.011,-0.009 0.025,-0.014 0.041,-0.014 0.008,0 0.016,0.001 0.022,0.003 0.007,0.003 0.013,0.007 0.017,0.013 -0.014,-0.004 -0.027,-0.006 -0.039,-0.005zm-0.336 -0.191c-0.009,0.009 -0.017,0.018 -0.025,0.026 -0.018,0.02 -0.032,0.039 -0.043,0.057 -0.013,0.021 -0.023,0.042 -0.029,0.064 -0.006,0.022 -0.009,0.046 -0.008,0.072l-0.003 -0.018 -0.001 -0.009 0 -0.009 0 -0.009 0.001 -0.009 0.001 -0.009 0.002 -0.009c0.004,-0.023 0.013,-0.046 0.027,-0.069 0.013,-0.021 0.028,-0.04 0.046,-0.057 0.009,-0.009 0.018,-0.017 0.028,-0.024l0.015 -0.01c0.006,-0.004 0.011,-0.007 0.015,-0.01l-0.014 0.012 -0.013 0.013zm0.058 -0.377c-0.011,0.005 -0.022,0.01 -0.032,0.016 -0.022,0.011 -0.042,0.024 -0.06,0.039 -0.019,0.014 -0.036,0.031 -0.051,0.05 -0.008,0.01 -0.015,0.02 -0.02,0.03 -0.007,0.011 -0.011,0.023 -0.012,0.034 -0.001,-0.021 0.007,-0.043 0.025,-0.069 0.013,-0.019 0.03,-0.037 0.051,-0.054 0.021,-0.016 0.042,-0.029 0.063,-0.038 0.012,-0.005 0.023,-0.009 0.034,-0.013 0.013,-0.004 0.025,-0.006 0.036,-0.008l-0.017 0.006c-0.007,0.002 -0.013,0.004 -0.017,0.006zm0.252 0.548c-0.033,0.013 -0.096,-0.001 -0.124,-0.004 -0.023,-0.002 -0.037,-0.007 -0.043,-0.016 -0.002,-0.004 -0.003,-0.009 -0.003,-0.014 -0,-0.007 0.001,-0.014 0.005,-0.021 0.009,-0.019 0.032,-0.04 0.068,-0.062 0.047,-0.028 0.086,-0.064 0.118,-0.108 0.031,-0.043 0.05,-0.087 0.059,-0.133 0.009,-0.048 0.006,-0.091 -0.011,-0.129 -0.018,-0.042 -0.05,-0.074 -0.095,-0.096 -0.054,-0.027 -0.112,-0.036 -0.173,-0.028 -0.053,0.007 -0.104,0.026 -0.152,0.058 -0.045,0.03 -0.078,0.064 -0.101,0.103 -0.022,0.039 -0.027,0.074 -0.015,0.104 0.012,0.029 0.035,0.046 0.069,0.051 0.035,0.005 0.077,-0.004 0.126,-0.026 0.027,-0.013 0.046,-0.02 0.057,-0.023 0.011,-0.002 0.019,-0 0.025,0.005 0.012,0.012 -0.002,0.03 -0.044,0.054 -0.077,0.045 -0.135,0.094 -0.174,0.148 -0.049,0.069 -0.064,0.141 -0.046,0.217 0.013,0.054 0.051,0.094 0.115,0.119 0.051,0.02 0.116,0.031 0.196,0.031 0.079,0 0.144,-0.01 0.194,-0.032 0.052,-0.022 0.081,-0.053 0.09,-0.093 0.004,-0.02 0.003,-0.039 -0.003,-0.059 -0.006,-0.02 -0.017,-0.037 -0.032,-0.051 -0.016,-0.015 -0.035,-0.024 -0.057,-0.028 -0.025,-0.004 -0.019,0.019 -0.046,0.03z"/>
   <path class="fil3" d="M0.874 0.8c-0.005,0 -0.011,0 -0.02,0.001l-0.011 0.001 -0.011 0.001c0.011,-0.009 0.025,-0.014 0.041,-0.014 0.008,0 0.016,0.001 0.022,0.003 0.007,0.003 0.013,0.007 0.017,0.013 -0.014,-0.004 -0.027,-0.006 -0.039,-0.005zm-0.336 -0.191c-0.009,0.009 -0.017,0.018 -0.025,0.026 -0.018,0.02 -0.032,0.039 -0.043,0.057 -0.013,0.021 -0.023,0.042 -0.029,0.064 -0.006,0.022 -0.009,0.046 -0.008,0.072l-0.003 -0.018 -0.001 -0.009 0 -0.009 0 -0.009 0.001 -0.009 0.001 -0.009 0.002 -0.009c0.004,-0.023 0.013,-0.046 0.027,-0.069 0.013,-0.021 0.028,-0.04 0.046,-0.057 0.009,-0.009 0.018,-0.017 0.028,-0.024l0.015 -0.01c0.006,-0.004 0.011,-0.007 0.015,-0.01l-0.014 0.012 -0.013 0.013zm0.058 -0.377c-0.011,0.005 -0.022,0.01 -0.032,0.016 -0.022,0.011 -0.042,0.024 -0.06,0.039 -0.019,0.014 -0.036,0.031 -0.051,0.05 -0.008,0.01 -0.015,0.02 -0.02,0.03 -0.007,0.011 -0.011,0.023 -0.012,0.034 -0.001,-0.021 0.007,-0.043 0.025,-0.069 0.013,-0.019 0.03,-0.037 0.051,-0.054 0.021,-0.016 0.042,-0.029 0.063,-0.038 0.012,-0.005 0.023,-0.009 0.034,-0.013 0.013,-0.004 0.025,-0.006 0.036,-0.008l-0.017 0.006c-0.007,0.002 -0.013,0.004 -0.017,0.006zm0.22 0.528c-0.033,0.013 -0.064,0.018 -0.092,0.016 -0.023,-0.002 -0.037,-0.007 -0.043,-0.016 -0.002,-0.004 -0.003,-0.009 -0.003,-0.014 -0,-0.007 0.001,-0.014 0.005,-0.021 0.009,-0.019 0.032,-0.04 0.068,-0.062 0.047,-0.028 0.086,-0.064 0.118,-0.108 0.031,-0.043 0.05,-0.087 0.059,-0.133 0.009,-0.048 0.006,-0.091 -0.011,-0.129 -0.018,-0.042 -0.05,-0.074 -0.095,-0.096 -0.054,-0.027 -0.112,-0.036 -0.173,-0.028 -0.053,0.007 -0.104,0.026 -0.152,0.058 -0.045,0.03 -0.078,0.064 -0.101,0.103 -0.022,0.039 -0.027,0.074 -0.015,0.104 0.012,0.029 0.035,0.046 0.069,0.051 0.035,0.005 0.077,-0.004 0.126,-0.026 0.027,-0.013 0.046,-0.02 0.057,-0.023 0.011,-0.002 0.019,-0 0.025,0.005 0.012,0.012 -0.002,0.03 -0.044,0.054 -0.077,0.045 -0.135,0.094 -0.174,0.148 -0.049,0.069 -0.064,0.141 -0.046,0.217 0.013,0.054 0.051,0.094 0.115,0.119 0.051,0.02 0.116,0.031 0.196,0.031 0.079,0 0.144,-0.01 0.194,-0.032 0.052,-0.022 0.081,-0.053 0.09,-0.093 0.004,-0.02 0.003,-0.039 -0.003,-0.059 -0.006,-0.02 -0.017,-0.037 -0.032,-0.051 -0.016,-0.015 -0.035,-0.024 -0.057,-0.028 -0.025,-0.004 -0.051,-0 -0.079,0.011z"/>
  </g>
 </g>
</svg>
