<?xml version="1.0" encoding="UTF-8" standalone="no"?>
<svg
   xmlns:dc="http://purl.org/dc/elements/1.1/"
   xmlns:cc="http://creativecommons.org/ns#"
   xmlns:rdf="http://www.w3.org/1999/02/22-rdf-syntax-ns#"
   xmlns:svg="http://www.w3.org/2000/svg"
   xmlns="http://www.w3.org/2000/svg"
   xmlns:sodipodi="http://sodipodi.sourceforge.net/DTD/sodipodi-0.dtd"
   xmlns:inkscape="http://www.inkscape.org/namespaces/inkscape"
   width="28.302818mm"
   height="7.3324542mm"
   viewBox="0 0 28.302819 7.3324543"
   version="1.1"
   id="svg8"
   inkscape:version="1.0.1 (3bc2e813f5, 2020-09-07)"
   sodipodi:docname="2Str.svg">
  <defs
     id="defs2" />
  <sodipodi:namedview
     id="base"
     pagecolor="#ffffff"
     bordercolor="#666666"
     borderopacity="1.0"
     inkscape:pageopacity="0.0"
     inkscape:pageshadow="2"
     inkscape:zoom="1.979899"
     inkscape:cx="100.58943"
     inkscape:cy="59.298292"
     inkscape:document-units="mm"
     inkscape:current-layer="layer1"
     inkscape:document-rotation="0"
     showgrid="false"
     inkscape:snap-global="true"
     fit-margin-top="0"
     fit-margin-left="0"
     fit-margin-right="0"
     fit-margin-bottom="0"
     inkscape:window-width="1264"
     inkscape:window-height="967"
     inkscape:window-x="0"
     inkscape:window-y="0"
     inkscape:window-maximized="0" />
  <metadata
     id="metadata5">
    <rdf:RDF>
      <cc:Work
         rdf:about="">
        <dc:format>image/svg+xml</dc:format>
        <dc:type
           rdf:resource="http://purl.org/dc/dcmitype/StillImage" />
        <dc:title></dc:title>
      </cc:Work>
    </rdf:RDF>
  </metadata>
  <g
     inkscape:label="Слой 1"
     inkscape:groupmode="layer"
     id="layer1"
     transform="translate(-15.262931,-167.65403)">
    <g
       id="g1496"
       transform="translate(-1.4646577,11.811756)">
      <path
         style="fill:#ee7e19;stroke-width:0.215072"
         d="m 17.766837,162.79421 c -0.626079,-0.32271 -0.763855,-0.52155 -0.818732,-1.18159 -0.06828,-0.82126 1.033498,-2.4565 1.428693,-2.4565 0.123837,0 -0.426447,0.58492 -0.671612,0.8966 -0.245165,0.31168 -0.55431,1.02401 -0.525043,1.2377 l 5.7e-5,0.47057 0.09988,-0.53486 c 0.05494,-0.29418 0.280852,-0.78901 0.502037,-1.09964 0.221185,-0.31062 0.35105,-0.61588 0.28859,-0.67834 -0.06246,-0.0625 0.183493,-0.32508 0.546563,-0.58361 0.763594,-0.54373 0.68815,-0.95101 -0.119297,-0.64402 -0.718166,0.27305 -1.531372,0.26295 -1.706984,-0.0212 -0.27122,-0.43884 0.36342,-1.43174 1.224457,-1.91567 0.653345,-0.3672 1.080699,-0.45971 1.724641,-0.37334 1.222128,0.16392 1.765601,0.70733 1.801169,1.74087 0.02941,0.85461 -0.224035,1.12228 -1.193557,2.06663 -1.410884,1.37424 -1.394386,1.59492 0.105227,1.40756 1.12727,-0.14084 1.400955,-0.12189 1.637191,0.33118 0.247637,0.47494 0.0857,0.77382 -0.408804,1.1096 -0.759609,0.51579 -2.848735,0.77739 -3.914476,0.22806 z m 3.597975,-1.48577 c -0.07147,-0.0715 -0.256967,-0.0791 -0.412222,-0.017 -0.17157,0.0687 -0.120607,0.11962 0.12994,0.12994 0.226721,0.009 0.353748,-0.0415 0.282282,-0.11296 z m -2.845223,-4.94603 c 0.289272,-0.22818 0.191718,-0.20974 -0.297875,0.0563 -0.40041,0.21759 -0.879704,0.63757 -1.065096,0.9333 -0.328186,0.52349 -0.32033,0.52201 0.297875,-0.0563 0.349224,-0.32669 0.828517,-0.74667 1.065096,-0.93329 z m 7.799062,6.45988 c -0.323809,-0.1757 -0.749733,-0.63077 -0.946496,-1.01127 -0.374258,-0.72373 -0.696282,-3.92968 -0.344434,-3.42905 0.140475,0.19987 0.288938,0.0376 0.532234,-0.58178 0.207637,-0.52859 0.614379,-1.02783 1.0575,-1.29799 0.84841,-0.51724 0.194684,-0.47644 -0.221501,-0.10403 -0.300281,0.2687 -0.358738,0.69965 -0.480359,1.06591 -0.309892,0.93323 -1.043141,1.21244 -1.026551,1.03246 0.0882,-0.95683 0.493738,-1.78491 1.483047,-2.32865 0.921871,-0.50667 2.025604,-0.40632 2.72081,0.19167 0.513734,0.44189 0.556485,0.5612 0.308266,0.86029 -0.158501,0.19098 -0.548183,0.34724 -0.865959,0.34724 -0.317777,0 -0.757172,0.13118 -0.976435,0.2915 -0.534246,0.39066 -0.282247,0.99893 0.413839,0.99893 0.297571,0 0.854907,0.28044 1.238526,0.62321 0.577203,0.51573 0.697489,0.77916 0.697489,1.52751 0,1.72236 -1.946346,2.70587 -3.589976,1.81405 z m 2.336358,-1.69942 c 0.218904,-0.57045 -0.01541,-0.77567 -0.110372,-0.13227 -0.04783,0.32409 -0.324986,0.44778 -0.212291,0.44778 0.110873,0 0.256071,-0.14198 0.322661,-0.31551 z m -0.349646,-0.42455 c 0,-0.17045 -0.105215,-0.37494 -0.233811,-0.45441 -0.303687,-0.18769 -0.718211,0.22683 -0.530522,0.53052 0.210816,0.34111 0.764333,0.28599 0.764333,-0.0761 z m 2.453419,1.9202 c -0.234031,-0.93245 0.123304,-2.41249 1.010353,-4.18476 1.29333,-2.58399 2.259803,-3.15208 3.286574,-1.93183 0.695997,0.82714 1.197997,2.46017 1.355467,4.4094 0.101038,1.25068 0.243761,1.8688 -0.125377,2.08281 -0.50535,0.29298 -0.764988,0.27037 -1.715028,-0.58793 -0.458263,-0.41402 -0.911386,-0.75275 -1.00694,-0.75275 -0.09555,0 -0.484006,0.33873 -0.863228,0.75275 -0.855863,0.93438 -1.736429,1.03066 -1.941821,0.21231 z m 3.684976,-2.26981 c 0.231476,-0.37453 0.127252,-0.41233 -0.167726,-0.0569 -0.169638,0.2044 -0.345366,0.28629 -0.202752,0.28629 0.125793,0 0.292508,-0.10323 0.370479,-0.22939 z m -0.261744,-0.50234 c 0.134973,-0.35174 -0.02364,-0.55871 -0.428161,-0.55871 -0.157719,0 -0.286762,0.19357 -0.286762,0.43015 0,0.48904 0.539375,0.58603 0.714923,0.12856 z m -0.631313,-3.35464 c 0.345646,-0.41071 0.28309,-0.38531 -0.264897,0.10753 -0.394572,0.35487 -0.853936,0.90657 -1.02081,1.22599 -0.494934,0.94738 -0.346124,0.98142 0.264896,0.0606 0.312567,-0.47104 0.771932,-1.0984 1.020811,-1.39412 z m 9.734855,6.34659 c -0.176354,-0.17636 -0.432729,-0.66027 -0.569721,-1.07536 -0.277621,-0.8412 -0.726978,-0.97675 -1.076009,-0.32458 -0.352125,0.65796 -1.069687,0.54417 -1.356266,-0.21507 -0.133949,-0.35487 -0.32447,-0.64521 -0.423382,-0.64521 -0.09891,0 -0.37978,0.48111 -0.624156,1.06914 -0.494868,1.19079 -1.093517,1.5484 -1.652778,0.98731 -0.794406,-0.79699 -0.192808,-4.9145 0.889655,-6.08905 0.620223,-0.67299 1.079365,-0.60619 1.847645,0.26884 0.363508,0.41401 0.75253,0.75275 0.864495,0.75275 0.111964,0 0.510183,-0.38713 0.88493,-0.86029 1.195231,-1.5091 2.313293,-0.92626 2.809952,1.4648 0.276936,1.33326 0.153762,3.84185 -0.223223,4.54626 -0.277193,0.51794 -0.917417,0.57418 -1.371142,0.12046 z m -4.501671,-5.93371 c 0.326458,-0.38798 0.453612,-0.59092 0.277126,-0.53276 -0.174004,0.0573 -0.524159,0.45882 -0.788364,0.92278 -0.520201,0.91351 -0.180805,1.48648 -0.122077,1.09222 0.162821,-0.54583 0.333016,-1.11817 0.633315,-1.48224 z m 3.677059,0.0534 c 0.430674,-0.52163 0.598468,-0.84991 0.394382,-0.77159 -0.195367,0.075 -0.313494,0.31807 -0.313494,0.31807 -0.05974,0.0522 -0.334812,0.42739 -0.693038,0.8196 -0.358228,0.39221 -0.535699,0.67457 -0.394384,0.62746 0.141317,-0.0471 0.594257,-0.4942 1.006534,-0.99354 z"
         id="path1498"
         sodipodi:nodetypes="ssssccsscsssssscsssscccccssccssssssscssssssscsssssssssscsscssssssscsssssssssssssssssssssssssssscccscsscsss" />
    </g>
  </g>
</svg>
