<?xml version="1.0" encoding="UTF-8"?>
<!DOCTYPE svg PUBLIC "-//W3C//DTD SVG 1.1//EN" "http://www.w3.org/Graphics/SVG/1.1/DTD/svg11.dtd">
<!-- Creator: CorelDRAW 2019 (64-Bit) -->
<svg xmlns="http://www.w3.org/2000/svg" xml:space="preserve" width="0.7673cm" height="0.66146cm" version="1.1" style="shape-rendering:geometricPrecision; text-rendering:geometricPrecision; image-rendering:optimizeQuality; fill-rule:evenodd; clip-rule:evenodd"
viewBox="0 0 1.098 0.946"
 xmlns:xlink="http://www.w3.org/1999/xlink"
 xmlns:xodm="http://www.corel.com/coreldraw/odm/2003">
 <defs>
  <style type="text/css">
   <![CDATA[
    .fil0 {fill:#EFF0AB}
    .fil2 {fill:#EF7F1A;fill-rule:nonzero}
    .fil1 {fill:#BAC245;fill-rule:nonzero}
   ]]>
  </style>
 </defs>
 <g id="Слой_x0020_1">
  <metadata id="CorelCorpID_0Corel-Layer"/>
  <g id="_2494983765744">
   <path class="fil0" d="M0.145 0l0.807 0c0.08,0 0.145,0.065 0.145,0.145l0 0.656c0,0.08 -0.065,0.145 -0.145,0.145l-0.807 0c-0.08,0 -0.145,-0.065 -0.145,-0.145l0 -0.656c0,-0.08 0.065,-0.145 0.145,-0.145z"/>
   <path class="fil1" d="M0.818 0.535c-0.008,-0.011 -0.018,-0.021 -0.028,-0.03 -0.007,-0.006 -0.016,-0.012 -0.025,-0.018l-0.005 -0.003 -0.005 -0.003c-0.004,-0.002 -0.006,-0.004 -0.008,-0.005 -0.005,-0.004 -0.007,-0.008 -0.008,-0.012 -0.001,-0.005 0.003,-0.012 0.011,-0.02 0.003,-0.003 0.007,-0.007 0.013,-0.012l0.004 -0.003 0.004 -0.003 0.008 -0.008c0.014,-0.013 0.024,-0.025 0.032,-0.037 0.011,-0.016 0.018,-0.033 0.02,-0.051 0.008,-0.046 -0.002,-0.086 -0.029,-0.119 -0.029,-0.034 -0.073,-0.056 -0.133,-0.066 -0.029,-0.005 -0.062,-0.004 -0.098,0.002 -0.036,0.006 -0.022,0.014 -0.052,0.029 -0.033,0.016 -0.105,0.037 -0.122,0.059 -0.019,0.024 -0.027,0.05 -0.024,0.078 0.008,0.069 0.066,0.089 0.174,0.06 0.018,-0.005 0.033,-0.006 0.044,-0.005 0.01,0.001 0.015,0.004 0.017,0.01 0.002,0.005 -0,0.011 -0.007,0.017 -0.007,0.006 -0.016,0.028 -0.029,0.033 -0.05,0.016 -0.075,0.027 -0.074,0.064 0.001,0.019 0.007,0.019 0.02,0.032 0.014,0.013 0.039,0.015 0.062,0.014 0.023,-0.001 0.031,0.025 0.036,0.039 0.002,0.006 0.002,0.011 -0,0.017 -0.002,0.006 -0.007,0.011 -0.014,0.014 -0.011,0.005 -0.029,0.007 -0.055,0.004 -0.005,-0 -0.01,-0.001 -0.017,-0.002l-0.018 -0.002c-0.015,-0.002 -0.031,0.008 -0.04,0.008 -0.027,-0.001 0.156,0.04 0.142,0.048 -0.018,0.009 -0.219,-0.009 -0.221,0.016 -0.003,0.028 0,0.041 0.03,0.068 0.027,0.025 0.063,0.045 0.108,0.059 0.045,0.015 0.09,0.021 0.133,0.018 0.048,-0.003 0.087,-0.016 0.117,-0.039 0.043,-0.033 0.066,-0.075 0.07,-0.126 0.004,-0.046 -0.007,-0.087 -0.033,-0.122z"/>
   <path class="fil2" d="M0.557 0.42c-0.009,0.007 -0.02,0.013 -0.034,0.018 -0.014,0.005 -0.025,0.009 -0.033,0.014 -0.012,0.008 -0.018,0.017 -0.02,0.028 -0.001,-0.006 0,-0.012 0.003,-0.019 0.003,-0.006 0.007,-0.011 0.012,-0.015 0.008,-0.006 0.019,-0.012 0.034,-0.017 0.012,-0.004 0.022,-0.009 0.032,-0.015 0.011,-0.007 0.02,-0.016 0.025,-0.025 -0.003,0.012 -0.01,0.022 -0.021,0.031zm-0.135 0.216c-0.017,-0.002 -0.03,-0.002 -0.04,-0.001 -0.008,0.001 -0.015,0.003 -0.018,0.005 -0.003,0.001 -0.004,0.004 -0.006,0.007l-0.001 0.005 -0.001 0.005c0,-0.004 0,-0.008 0,-0.01 0.001,-0.004 0.002,-0.007 0.005,-0.01 0.004,-0.004 0.011,-0.007 0.02,-0.009 0.011,-0.002 0.025,-0.002 0.042,-0.001 0.011,0.001 0.025,0.003 0.041,0.006l0.02 0.003 0.021 0.003c-0.012,0.001 -0.026,0.001 -0.042,0l-0.021 -0.002 -0.02 -0.002zm0.033 -0.443c-0.02,0.008 -0.036,0.016 -0.049,0.024 -0.007,0.004 -0.014,0.009 -0.022,0.015 -0.007,0.005 -0.013,0.011 -0.02,0.018 -0.013,0.015 -0.02,0.032 -0.019,0.049 -0.002,-0.009 -0.002,-0.018 0.001,-0.028 0.003,-0.009 0.007,-0.017 0.013,-0.025 0.009,-0.013 0.023,-0.025 0.042,-0.037 0.032,-0.019 0.067,-0.03 0.105,-0.034 -0.018,0.006 -0.035,0.012 -0.051,0.018zm0.299 0.334c-0.008,-0.011 -0.018,-0.021 -0.028,-0.03 -0.007,-0.006 -0.016,-0.012 -0.025,-0.018l-0.005 -0.003 -0.005 -0.003c-0.004,-0.002 -0.006,-0.004 -0.008,-0.005 -0.005,-0.004 -0.007,-0.008 -0.008,-0.012 -0.001,-0.005 0.003,-0.012 0.011,-0.02 0.003,-0.003 0.007,-0.007 0.013,-0.012l0.004 -0.003 0.004 -0.003 0.008 -0.008c0.014,-0.013 0.024,-0.025 0.032,-0.037 0.011,-0.016 0.018,-0.033 0.02,-0.051 0.008,-0.046 -0.002,-0.086 -0.029,-0.119 -0.029,-0.034 -0.073,-0.056 -0.133,-0.066 -0.029,-0.005 -0.062,-0.004 -0.098,0.002 -0.036,0.006 -0.069,0.016 -0.1,0.031 -0.033,0.016 -0.058,0.035 -0.075,0.056 -0.019,0.024 -0.027,0.05 -0.024,0.078 0.008,0.069 0.066,0.089 0.174,0.06 0.018,-0.005 0.033,-0.006 0.044,-0.005 0.01,0.001 0.015,0.004 0.017,0.01 0.002,0.005 -0.001,0.011 -0.007,0.017 -0.007,0.006 -0.018,0.012 -0.031,0.016 -0.05,0.016 -0.074,0.043 -0.073,0.081 0.001,0.019 0.008,0.034 0.02,0.047 0.014,0.013 0.032,0.019 0.055,0.018 0.023,-0 0.037,0.006 0.042,0.02 0.002,0.006 0.002,0.011 -0,0.017 -0.002,0.006 -0.007,0.011 -0.014,0.014 -0.011,0.005 -0.029,0.007 -0.055,0.004 -0.005,-0 -0.01,-0.001 -0.017,-0.002l-0.018 -0.002c-0.015,-0.002 -0.027,-0.003 -0.036,-0.003 -0.027,-0.001 -0.048,0.001 -0.062,0.008 -0.018,0.009 -0.028,0.026 -0.031,0.051 -0.003,0.028 0.011,0.056 0.04,0.083 0.027,0.025 0.063,0.045 0.108,0.059 0.045,0.015 0.09,0.021 0.133,0.018 0.048,-0.003 0.087,-0.016 0.117,-0.039 0.043,-0.033 0.066,-0.075 0.07,-0.126 0.004,-0.046 -0.007,-0.087 -0.033,-0.122z"/>
  </g>
 </g>
</svg>
