<?xml version="1.0" encoding="UTF-8"?>
<!DOCTYPE svg PUBLIC "-//W3C//DTD SVG 1.1//EN" "http://www.w3.org/Graphics/SVG/1.1/DTD/svg11.dtd">
<!-- Creator: CorelDRAW 2019 (64-Bit) -->
<svg xmlns="http://www.w3.org/2000/svg" xml:space="preserve" width="0.7673cm" height="0.66146cm" version="1.1" style="shape-rendering:geometricPrecision; text-rendering:geometricPrecision; image-rendering:optimizeQuality; fill-rule:evenodd; clip-rule:evenodd"
viewBox="0 0 1.141 0.984"
 xmlns:xlink="http://www.w3.org/1999/xlink"
 xmlns:xodm="http://www.corel.com/coreldraw/odm/2003">
 <defs>
  <style type="text/css">
   <![CDATA[
    .fil0 {fill:#EFF0AB}
    .fil2 {fill:#EF7F1A;fill-rule:nonzero}
    .fil1 {fill:#BAC245;fill-rule:nonzero}
   ]]>
  </style>
 </defs>
 <g id="Слой_x0020_1">
  <metadata id="CorelCorpID_0Corel-Layer"/>
  <g id="_2494984965088">
   <path class="fil0" d="M0.151 0l0.839 0c0.083,0 0.151,0.068 0.151,0.151l0 0.682c0,0.083 -0.068,0.151 -0.151,0.151l-0.839 0c-0.083,0 -0.151,-0.068 -0.151,-0.151l0 -0.682c0,-0.083 0.068,-0.151 0.151,-0.151z"/>
   <path class="fil1" d="M0.666 0.313c0.002,0.026 0,0.048 -0.006,0.066 -0.004,0.011 -0.009,0.021 -0.016,0.03 -0.008,0.008 -0.017,0.015 -0.027,0.018 0.019,-0.011 0.031,-0.027 0.037,-0.05 0.004,-0.018 0.005,-0.039 0.003,-0.063 -0.002,-0.025 -0.002,-0.047 -0.001,-0.066 0.001,-0.013 0.003,-0.023 0.006,-0.033 0.004,-0.014 0.009,-0.023 0.015,-0.029 -0.005,0.008 -0.009,0.018 -0.01,0.03 -0.002,0.009 -0.003,0.02 -0.003,0.032 0,0.021 0.001,0.042 0.003,0.065zm-0.237 -0.102c-0.007,0.01 -0.014,0.022 -0.019,0.036 -0.004,0.008 -0.009,0.021 -0.014,0.039l-0.005 0.02 -0.006 0.02c0,-0.016 0.002,-0.03 0.004,-0.042 0.003,-0.015 0.007,-0.029 0.013,-0.041 0.007,-0.015 0.014,-0.027 0.023,-0.036 0.006,-0.007 0.012,-0.011 0.017,-0.014 0.008,-0.004 0.015,-0.006 0.021,-0.005 -0.01,0.002 -0.021,0.009 -0.032,0.023zm0.423 0.255c-0.002,-0.1 -0.015,-0.178 -0.038,-0.233 -0.026,-0.063 -0.065,-0.094 -0.117,-0.093 -0.06,0.001 -0.084,0.061 -0.073,0.179 0.002,0.026 -0.037,0.143 -0.044,0.156 -0.007,0.012 -0.026,-0.05 -0.039,-0.05 -0.009,-0 0.028,-0.031 0.022,-0.036 -0.004,-0.003 -0.007,-0.007 -0.01,-0.011 -0.006,-0.012 -0.009,-0.03 -0.008,-0.056 0.003,-0.063 -0.003,-0.108 -0.017,-0.135 -0.013,-0.025 -0.035,-0.037 -0.066,-0.037 -0.028,0 -0.035,0.015 -0.055,0.046 -0.02,0.031 -0.052,0.073 -0.059,0.124 -0.008,0.056 -0.007,0.104 0.003,0.145 0.008,0.033 0.022,0.064 0.043,0.091 0.023,0.03 0.056,0.021 0.099,0.024 0.014,0.001 0.037,0 0.055,-0.001 0.003,-0 0.015,0.004 0.013,0.007l-0.006 0.017 0.004 -0.001c0.007,-0.001 0.011,-0.001 0.014,-0.001 0.014,-0.001 0.025,0.004 0.033,0.015 0.011,0.015 0.016,0.038 0.017,0.071 0,0.054 0.011,0.096 0.031,0.123 0.018,0.025 0.043,0.037 0.076,0.038 0.089,0.002 0.13,-0.125 0.123,-0.383z"/>
   <path class="fil2" d="M0.611 0.307c0.002,0.026 0,0.048 -0.006,0.066 -0.004,0.011 -0.009,0.021 -0.016,0.03 -0.008,0.008 -0.017,0.015 -0.027,0.018 0.019,-0.011 0.031,-0.027 0.037,-0.05 0.004,-0.018 0.005,-0.039 0.003,-0.063 -0.002,-0.025 -0.002,-0.047 -0.001,-0.066 0.001,-0.013 0.003,-0.023 0.006,-0.033 0.004,-0.014 0.009,-0.023 0.015,-0.029 -0.005,0.008 -0.009,0.018 -0.01,0.03 -0.002,0.009 -0.003,0.02 -0.003,0.032 0,0.021 0.001,0.042 0.003,0.065zm-0.237 -0.102c-0.007,0.01 -0.014,0.022 -0.019,0.036 -0.004,0.008 -0.009,0.021 -0.014,0.039l-0.005 0.02 -0.006 0.02c0,-0.016 0.002,-0.03 0.004,-0.042 0.003,-0.015 0.007,-0.029 0.013,-0.041 0.007,-0.015 0.014,-0.027 0.023,-0.036 0.006,-0.007 0.012,-0.011 0.017,-0.014 0.008,-0.004 0.015,-0.006 0.021,-0.005 -0.01,0.002 -0.021,0.009 -0.032,0.023zm0.423 0.255c-0.002,-0.1 -0.015,-0.178 -0.038,-0.233 -0.026,-0.063 -0.065,-0.094 -0.117,-0.093 -0.06,0.001 -0.084,0.061 -0.073,0.179 0.002,0.026 -0,0.046 -0.007,0.06 -0.007,0.012 -0.017,0.018 -0.031,0.018 -0.015,-0 -0.026,-0.006 -0.033,-0.018 -0.007,-0.011 -0.009,-0.03 -0.008,-0.056 0.003,-0.063 -0.003,-0.108 -0.017,-0.135 -0.013,-0.025 -0.035,-0.037 -0.066,-0.037 -0.028,0 -0.053,0.016 -0.073,0.047 -0.02,0.031 -0.034,0.072 -0.041,0.123 -0.008,0.056 -0.007,0.104 0.003,0.145 0.008,0.033 0.022,0.064 0.043,0.091 0.023,0.03 0.056,0.046 0.099,0.05 0.014,0.001 0.03,0.001 0.048,-0.001 0.003,-0 0.006,-0.001 0.01,-0.002l0.004 -0.001 0.004 -0.001c0.007,-0.001 0.011,-0.001 0.014,-0.001 0.014,-0.001 0.025,0.004 0.033,0.015 0.011,0.015 0.016,0.038 0.017,0.071 0,0.054 0.011,0.096 0.031,0.123 0.018,0.025 0.043,0.037 0.076,0.038 0.089,0.002 0.13,-0.125 0.123,-0.383z"/>
  </g>
 </g>
</svg>
