<?xml version="1.0" encoding="UTF-8"?>
<!DOCTYPE svg PUBLIC "-//W3C//DTD SVG 1.1//EN" "http://www.w3.org/Graphics/SVG/1.1/DTD/svg11.dtd">
<!-- Creator: CorelDRAW 2019 (64-Bit) -->
<svg xmlns="http://www.w3.org/2000/svg" xml:space="preserve" width="0.80489cm" height="0.69323cm" version="1.1" style="shape-rendering:geometricPrecision; text-rendering:geometricPrecision; image-rendering:optimizeQuality; fill-rule:evenodd; clip-rule:evenodd"
viewBox="0 0 1.428 1.23"
 xmlns:xlink="http://www.w3.org/1999/xlink"
 xmlns:xodm="http://www.corel.com/coreldraw/odm/2003">
 <defs>
  <style type="text/css">
   <![CDATA[
    .fil0 {fill:#A39F6B}
    .fil1 {fill:#EFF0AB}
    .fil3 {fill:#EF7F1A;fill-rule:nonzero}
    .fil2 {fill:#BAC245;fill-rule:nonzero}
   ]]>
  </style>
 </defs>
 <g id="Слой_x0020_1">
  <metadata id="CorelCorpID_0Corel-Layer"/>
  <path class="fil0" d="M0.247 0.056l1.001 0c0.099,0 0.18,0.081 0.18,0.18l0 0.813c0,0.099 -0.081,0.18 -0.18,0.18l-1.001 0c-0.099,0 -0.18,-0.081 -0.18,-0.18l0 -0.813c0,-0.099 0.081,-0.18 0.18,-0.18z"/>
  <g id="_2494983258288">
   <path class="fil1" d="M0.18 0l1.001 0c0.099,0 0.18,0.081 0.18,0.18l0 0.813c0,0.099 -0.081,0.18 -0.18,0.18l-1.001 0c-0.099,0 -0.18,-0.081 -0.18,-0.18l0 -0.813c0,-0.099 0.081,-0.18 0.18,-0.18z"/>
   <path class="fil2" d="M0.794 0.373c0.003,0.031 0,0.057 -0.007,0.079 -0.005,0.014 -0.011,0.026 -0.02,0.035 -0.009,0.01 -0.02,0.017 -0.032,0.022 0.022,-0.013 0.037,-0.032 0.044,-0.06 0.005,-0.021 0.006,-0.046 0.003,-0.076 -0.002,-0.03 -0.003,-0.056 -0.001,-0.079 0.002,-0.015 0.004,-0.028 0.007,-0.039 0.005,-0.016 0.01,-0.028 0.018,-0.035 -0.006,0.009 -0.01,0.021 -0.012,0.036 -0.002,0.011 -0.003,0.024 -0.003,0.038 0,0.025 0.001,0.051 0.004,0.077zm-0.283 -0.122c-0.008,0.012 -0.016,0.026 -0.023,0.043 -0.005,0.01 -0.01,0.025 -0.017,0.046l-0.006 0.024 -0.007 0.024c0,-0.019 0.002,-0.036 0.005,-0.05 0.004,-0.018 0.008,-0.034 0.015,-0.049 0.008,-0.018 0.017,-0.032 0.027,-0.043 0.007,-0.008 0.014,-0.014 0.02,-0.017 0.009,-0.005 0.017,-0.007 0.025,-0.006 -0.012,0.002 -0.025,0.011 -0.038,0.028zm0.505 0.304c-0.003,-0.119 -0.018,-0.212 -0.046,-0.278 -0.031,-0.075 -0.078,-0.112 -0.139,-0.111 -0.071,0.001 -0.1,0.072 -0.087,0.213 0.003,0.031 -0.044,0.17 -0.053,0.186 -0.008,0.015 -0.031,-0.06 -0.047,-0.06 -0.011,-0 0.034,-0.037 0.027,-0.042 -0.005,-0.003 -0.009,-0.008 -0.012,-0.014 -0.008,-0.014 -0.011,-0.036 -0.01,-0.067 0.003,-0.075 -0.004,-0.129 -0.021,-0.161 -0.016,-0.029 -0.042,-0.044 -0.079,-0.044 -0.033,0 -0.041,0.018 -0.066,0.055 -0.024,0.037 -0.062,0.087 -0.071,0.148 -0.009,0.067 -0.008,0.124 0.003,0.173 0.009,0.04 0.026,0.076 0.051,0.109 0.027,0.035 0.067,0.025 0.118,0.029 0.017,0.001 0.044,0 0.065,-0.002 0.004,-0 0.017,0.005 0.016,0.009l-0.007 0.02 0.005 -0.001c0.008,-0.001 0.014,-0.001 0.017,-0.001 0.016,-0.001 0.029,0.005 0.039,0.018 0.013,0.017 0.02,0.046 0.02,0.085 0,0.065 0.013,0.114 0.037,0.147 0.022,0.029 0.052,0.044 0.09,0.046 0.106,0.003 0.155,-0.15 0.147,-0.457z"/>
   <path class="fil3" d="M0.728 0.366c0.003,0.031 0,0.057 -0.007,0.079 -0.005,0.014 -0.011,0.026 -0.02,0.035 -0.009,0.01 -0.02,0.017 -0.032,0.022 0.022,-0.013 0.037,-0.032 0.044,-0.06 0.005,-0.021 0.006,-0.046 0.003,-0.076 -0.002,-0.03 -0.003,-0.056 -0.001,-0.079 0.002,-0.015 0.004,-0.028 0.007,-0.039 0.005,-0.016 0.01,-0.028 0.018,-0.035 -0.006,0.009 -0.01,0.021 -0.012,0.036 -0.002,0.011 -0.003,0.024 -0.003,0.038 0,0.025 0.001,0.051 0.004,0.077zm-0.283 -0.122c-0.008,0.012 -0.016,0.026 -0.023,0.043 -0.005,0.01 -0.01,0.025 -0.017,0.046l-0.006 0.024 -0.007 0.024c0,-0.019 0.002,-0.036 0.005,-0.05 0.004,-0.018 0.008,-0.034 0.015,-0.049 0.008,-0.018 0.017,-0.032 0.027,-0.043 0.007,-0.008 0.014,-0.014 0.02,-0.017 0.009,-0.005 0.017,-0.007 0.025,-0.006 -0.012,0.002 -0.025,0.011 -0.038,0.028zm0.505 0.304c-0.003,-0.119 -0.018,-0.212 -0.046,-0.278 -0.031,-0.075 -0.078,-0.112 -0.139,-0.111 -0.071,0.001 -0.1,0.072 -0.087,0.213 0.003,0.031 -0,0.055 -0.009,0.071 -0.008,0.015 -0.021,0.022 -0.037,0.021 -0.018,-0 -0.031,-0.008 -0.039,-0.022 -0.008,-0.014 -0.011,-0.036 -0.01,-0.067 0.003,-0.075 -0.004,-0.129 -0.021,-0.161 -0.016,-0.029 -0.042,-0.044 -0.079,-0.044 -0.033,0 -0.063,0.019 -0.088,0.056 -0.024,0.037 -0.041,0.086 -0.049,0.147 -0.009,0.067 -0.008,0.124 0.003,0.173 0.009,0.04 0.026,0.076 0.051,0.109 0.027,0.035 0.067,0.055 0.118,0.059 0.017,0.001 0.035,0.001 0.057,-0.001 0.004,-0 0.007,-0.001 0.012,-0.002l0.005 -0.001 0.005 -0.001c0.008,-0.001 0.014,-0.001 0.017,-0.001 0.016,-0.001 0.029,0.005 0.039,0.018 0.013,0.017 0.02,0.046 0.02,0.085 0,0.065 0.013,0.114 0.037,0.147 0.022,0.029 0.052,0.044 0.09,0.046 0.106,0.003 0.155,-0.15 0.147,-0.457z"/>
  </g>
 </g>
</svg>
