<?xml version="1.0" encoding="UTF-8"?>
<!DOCTYPE svg PUBLIC "-//W3C//DTD SVG 1.1//EN" "http://www.w3.org/Graphics/SVG/1.1/DTD/svg11.dtd">
<!-- Creator: CorelDRAW 2019 (64-Bit) -->
<svg xmlns="http://www.w3.org/2000/svg" xml:space="preserve" width="0.7673cm" height="0.66146cm" version="1.1" style="shape-rendering:geometricPrecision; text-rendering:geometricPrecision; image-rendering:optimizeQuality; fill-rule:evenodd; clip-rule:evenodd"
viewBox="0 0 1.262 1.088"
 xmlns:xlink="http://www.w3.org/1999/xlink"
 xmlns:xodm="http://www.corel.com/coreldraw/odm/2003">
 <defs>
  <style type="text/css">
   <![CDATA[
    .str0 {stroke:#EF7F1A;stroke-width:0.033;stroke-linecap:round;stroke-linejoin:round;stroke-miterlimit:22.9256}
    .fil2 {fill:none}
    .fil0 {fill:#EFF0AB}
    .fil1 {fill:#EF7F1A;fill-rule:nonzero}
   ]]>
  </style>
 </defs>
 <g id="Слой_x0020_1">
  <metadata id="CorelCorpID_0Corel-Layer"/>
  <path class="fil0" d="M0.167 0l0.928 0c0.092,0 0.167,0.075 0.167,0.167l0 0.754c0,0.092 -0.075,0.167 -0.167,0.167l-0.928 0c-0.092,0 -0.167,-0.075 -0.167,-0.167l0 -0.754c0,-0.092 0.075,-0.167 0.167,-0.167z"/>
  <path class="fil1" d="M0.421 0.133l0.419 0c0.031,0 0.059,0.018 0.078,0.048 0.017,0.026 0.027,0.061 0.027,0.099l0 0.529c0,0.038 -0.01,0.073 -0.027,0.099 -0.019,0.03 -0.046,0.048 -0.078,0.048l-0.419 0c-0.031,0 -0.059,-0.018 -0.078,-0.048 -0.017,-0.026 -0.027,-0.061 -0.027,-0.099l0 -0.529c0,-0.038 0.01,-0.073 0.027,-0.099 0.019,-0.03 0.046,-0.048 0.078,-0.048zm0.419 0.058l-0.419 0c-0.01,0 -0.021,0.008 -0.029,0.021 -0.011,0.017 -0.018,0.041 -0.018,0.067l0 0.529c0,0.027 0.007,0.05 0.018,0.067 0.008,0.013 0.019,0.021 0.029,0.021l0.419 0c0.01,0 0.021,-0.008 0.029,-0.021 0.011,-0.017 0.018,-0.041 0.018,-0.067l0 -0.529c0,-0.027 -0.007,-0.05 -0.018,-0.067 -0.008,-0.013 -0.019,-0.021 -0.029,-0.021z"/>
  <g id="_2795304157776">
   <line class="fil2 str0" x1="0.577" y1="0.315" x2="0.797" y2= "0.315" />
   <line class="fil2 str0" x1="0.465" y1="0.429" x2="0.797" y2= "0.429" />
   <line class="fil2 str0" x1="0.465" y1="0.544" x2="0.797" y2= "0.544" />
   <line class="fil2 str0" x1="0.465" y1="0.659" x2="0.797" y2= "0.659" />
   <line class="fil2 str0" x1="0.465" y1="0.773" x2="0.797" y2= "0.773" />
  </g>
 </g>
</svg>
