<?xml version="1.0" encoding="UTF-8"?>
<!DOCTYPE svg PUBLIC "-//W3C//DTD SVG 1.1//EN" "http://www.w3.org/Graphics/SVG/1.1/DTD/svg11.dtd">
<!-- Creator: CorelDRAW 2019 (64-Bit) -->
<svg xmlns="http://www.w3.org/2000/svg" xml:space="preserve" width="1.47205cm" height="0.50799cm" version="1.1" style="shape-rendering:geometricPrecision; text-rendering:geometricPrecision; image-rendering:optimizeQuality; fill-rule:evenodd; clip-rule:evenodd"
viewBox="0 0 0.993 0.343"
 xmlns:xlink="http://www.w3.org/1999/xlink"
 xmlns:xodm="http://www.corel.com/coreldraw/odm/2003">
 <defs>
  <style type="text/css">
   <![CDATA[
    .fil0 {fill:#9C6921;fill-rule:nonzero}
   ]]>
  </style>
 </defs>
 <g id="Слой_x0020_1">
  <metadata id="CorelCorpID_0Corel-Layer"/>
  <path class="fil0" d="M0.208 0.205l-0.054 -0.133 -0.052 0.133 0.106 0zm-0.05 -0.205l0.018 0 0.116 0.291c0.004,0.009 0.007,0.015 0.011,0.018 0.004,0.003 0.01,0.004 0.02,0.004l0.01 0 0 0.022 -0.137 0 0 -0.022 0.021 0c0.009,0 0.016,-0.001 0.019,-0.003 0.004,-0.002 0.005,-0.005 0.005,-0.009 0,-0.002 -0,-0.004 -0.001,-0.006 -0.001,-0.003 -0.002,-0.006 -0.003,-0.01l-0.021 -0.058 -0.123 0 -0.014 0.035c-0.002,0.005 -0.003,0.01 -0.005,0.015 -0.001,0.005 -0.002,0.009 -0.002,0.011 0,0.008 0.003,0.014 0.008,0.018 0.005,0.004 0.014,0.006 0.025,0.006l0.011 0 0 0.022 -0.118 0 0 -0.022 0.004 0c0.012,0 0.022,-0.003 0.028,-0.008 0.007,-0.005 0.013,-0.015 0.019,-0.031l0.107 -0.275zm0.226 0.335l0 -0.019 0.021 -0.001c0.006,-0 0.011,-0.002 0.013,-0.004 0.002,-0.002 0.003,-0.007 0.003,-0.013l0 -0.144c0,-0.004 -0.001,-0.008 -0.003,-0.01 -0.002,-0.002 -0.006,-0.003 -0.011,-0.003 -0.016,0 -0.028,0.005 -0.035,0.014 -0.007,0.009 -0.013,0.027 -0.018,0.054l-0.015 0 0.004 -0.085 0.199 0 0.005 0.085 -0.015 0c-0.005,-0.027 -0.011,-0.045 -0.018,-0.054 -0.007,-0.009 -0.019,-0.013 -0.035,-0.013 -0.006,0 -0.01,0.001 -0.012,0.003 -0.002,0.002 -0.003,0.006 -0.003,0.012l0 0.14c0,0.007 0.001,0.011 0.003,0.013 0.002,0.002 0.006,0.003 0.013,0.004l0.021 0.001 0 0.019 -0.115 0zm0.328 -0.114c-0.034,0.004 -0.059,0.011 -0.074,0.021 -0.015,0.009 -0.023,0.022 -0.023,0.038 0,0.013 0.003,0.022 0.009,0.028 0.006,0.006 0.015,0.009 0.027,0.009 0.019,0 0.034,-0.006 0.045,-0.017 0.011,-0.012 0.016,-0.028 0.016,-0.048l0 -0.03zm0.003 0.085c-0.008,0.011 -0.02,0.02 -0.035,0.026 -0.015,0.007 -0.031,0.01 -0.047,0.01 -0.019,0 -0.034,-0.005 -0.046,-0.015 -0.011,-0.01 -0.017,-0.024 -0.017,-0.04 0,-0.022 0.011,-0.04 0.033,-0.053 0.022,-0.013 0.058,-0.024 0.109,-0.032l0 -0.033c0,-0.011 -0.004,-0.019 -0.013,-0.024 -0.008,-0.006 -0.021,-0.009 -0.036,-0.009 -0.012,0 -0.022,0.002 -0.03,0.005 -0.008,0.003 -0.011,0.007 -0.011,0.012 0,0.001 0.002,0.004 0.005,0.009 0.004,0.005 0.005,0.01 0.005,0.016 0,0.007 -0.002,0.013 -0.006,0.017 -0.004,0.004 -0.01,0.006 -0.017,0.006 -0.008,0 -0.015,-0.002 -0.02,-0.007 -0.005,-0.005 -0.007,-0.011 -0.007,-0.019 0,-0.017 0.008,-0.031 0.025,-0.042 0.017,-0.011 0.038,-0.017 0.063,-0.017 0.029,0 0.05,0.005 0.064,0.016 0.013,0.011 0.02,0.028 0.02,0.051l0 0 0 0.108c0,0.006 0.002,0.011 0.004,0.014 0.003,0.003 0.007,0.005 0.012,0.005 0.003,0 0.007,-0.001 0.011,-0.003 0.004,-0.002 0.007,-0.003 0.008,-0.003 0.002,0 0.003,0.001 0.004,0.002 0.001,0.001 0.002,0.003 0.002,0.005 0,0.006 -0.004,0.012 -0.013,0.018 -0.009,0.006 -0.018,0.009 -0.03,0.009 -0.011,0 -0.019,-0.003 -0.026,-0.009 -0.007,-0.006 -0.011,-0.014 -0.013,-0.025zm0.279 -0.03c-0.009,0.023 -0.02,0.04 -0.034,0.05 -0.014,0.011 -0.031,0.016 -0.052,0.016 -0.029,0 -0.053,-0.01 -0.072,-0.03 -0.018,-0.02 -0.028,-0.047 -0.028,-0.079 0,-0.035 0.01,-0.063 0.029,-0.085 0.019,-0.021 0.045,-0.032 0.077,-0.032 0.021,0 0.039,0.005 0.053,0.015 0.014,0.01 0.021,0.023 0.021,0.037 0,0.01 -0.003,0.018 -0.008,0.024 -0.006,0.006 -0.013,0.009 -0.022,0.009 -0.008,0 -0.014,-0.002 -0.019,-0.007 -0.005,-0.005 -0.008,-0.011 -0.008,-0.018 0,-0.007 0.002,-0.013 0.007,-0.018 0.005,-0.005 0.007,-0.008 0.007,-0.009 0,-0.004 -0.003,-0.008 -0.009,-0.011 -0.006,-0.003 -0.014,-0.004 -0.023,-0.004 -0.019,0 -0.033,0.008 -0.043,0.023 -0.01,0.015 -0.014,0.038 -0.014,0.069 0,0.03 0.005,0.052 0.016,0.067 0.011,0.015 0.026,0.022 0.047,0.022 0.014,0 0.025,-0.004 0.035,-0.011 0.01,-0.008 0.017,-0.019 0.024,-0.035l0.017 0.008z"/>
 </g>
</svg>
