<?xml version="1.0" encoding="UTF-8"?>
<!DOCTYPE svg PUBLIC "-//W3C//DTD SVG 1.1//EN" "http://www.w3.org/Graphics/SVG/1.1/DTD/svg11.dtd">
<!-- Creator: CorelDRAW 2019 (64-Bit) -->
<svg xmlns="http://www.w3.org/2000/svg" xml:space="preserve" width="1.76555cm" height="0.50799cm" version="1.1" style="shape-rendering:geometricPrecision; text-rendering:geometricPrecision; image-rendering:optimizeQuality; fill-rule:evenodd; clip-rule:evenodd"
viewBox="0 0 1.431 0.412"
 xmlns:xlink="http://www.w3.org/1999/xlink"
 xmlns:xodm="http://www.corel.com/coreldraw/odm/2003">
 <defs>
  <style type="text/css">
   <![CDATA[
    .fil1 {fill:#9C6921}
    .fil0 {fill:#9C6921;fill-rule:nonzero}
   ]]>
  </style>
 </defs>
 <g id="Слой_x0020_1">
  <metadata id="CorelCorpID_0Corel-Layer"/>
  <g id="_2187342409328">
   <path class="fil0" d="M0.121 0.209l0 0.149c0,0.011 0.002,0.018 0.006,0.022 0.004,0.004 0.013,0.005 0.025,0.005l0.041 0c0.035,0 0.06,-0.007 0.075,-0.02 0.015,-0.013 0.022,-0.035 0.022,-0.066 0,-0.032 -0.009,-0.055 -0.027,-0.068 -0.018,-0.014 -0.048,-0.021 -0.091,-0.021l-0.051 0zm-0.121 0.202l0 -0.027 0.03 0c0.012,0 0.02,-0.002 0.024,-0.006 0.004,-0.004 0.006,-0.011 0.006,-0.022l0 -0.303c0,-0.01 -0.002,-0.017 -0.006,-0.021 -0.004,-0.004 -0.01,-0.006 -0.019,-0.006l-0.006 0 -0.03 0 0 -0.027 0.309 0 0.007 0.139 -0.025 0c-0.008,-0.046 -0.021,-0.076 -0.038,-0.091 -0.017,-0.015 -0.048,-0.022 -0.095,-0.022 -0.017,0 -0.028,0.002 -0.032,0.005 -0.004,0.003 -0.006,0.01 -0.006,0.02l0 0.132 0.076 0c0.054,0 0.095,0.01 0.122,0.029 0.027,0.02 0.041,0.049 0.041,0.088 0,0.035 -0.013,0.063 -0.039,0.082 -0.026,0.019 -0.063,0.029 -0.112,0.029l-0.209 0z"/>
   <path id="1" class="fil0" d="M0.976 0.388l0 0.024 -0.132 0 0 -0.024 0.021 -0.001c0.008,-0 0.013,-0.002 0.015,-0.004 0.002,-0.003 0.004,-0.008 0.004,-0.017l0 -0.071c-0.015,0.004 -0.029,0.008 -0.043,0.01 -0.014,0.002 -0.027,0.003 -0.04,0.003 -0.026,0 -0.045,-0.005 -0.058,-0.015 -0.013,-0.01 -0.02,-0.025 -0.02,-0.044l0 -0.055c0,-0.008 -0.001,-0.014 -0.004,-0.017 -0.003,-0.003 -0.008,-0.004 -0.015,-0.005l-0.021 -0.001 0 -0.024 0.133 0 0 0.024 -0.022 0.001c-0.008,0 -0.013,0.002 -0.015,0.004 -0.002,0.003 -0.004,0.008 -0.004,0.017l0 0.047c0,0.015 0.003,0.025 0.01,0.031 0.007,0.006 0.018,0.009 0.035,0.009 0.009,0 0.019,-0.001 0.03,-0.003 0.011,-0.002 0.022,-0.005 0.034,-0.008l0 -0.075c0,-0.008 -0.001,-0.014 -0.004,-0.017 -0.002,-0.003 -0.007,-0.004 -0.015,-0.004l-0.021 -0.001 0 -0.024 0.132 0 0 0.024 -0.021 0.001c-0.008,0 -0.013,0.002 -0.015,0.004 -0.002,0.003 -0.003,0.008 -0.003,0.017l0 0.172c0,0.009 0.001,0.014 0.003,0.017 0.002,0.002 0.008,0.004 0.016,0.004l0.021 0.001z"/>
   <path id="2" class="fil0" d="M1.288 0.412l0 -0.024 0.026 -0.001c0.008,-0 0.013,-0.002 0.016,-0.005 0.003,-0.003 0.004,-0.008 0.004,-0.017l0 -0.172c0,-0.008 -0.001,-0.014 -0.004,-0.017 -0.002,-0.003 -0.008,-0.004 -0.015,-0.005l-0.026 -0.001 0 -0.024 0.143 0 0 0.024 -0.026 0.001c-0.008,0 -0.013,0.002 -0.016,0.005 -0.002,0.003 -0.004,0.008 -0.004,0.017l0 0.172c0,0.008 0.001,0.014 0.004,0.017 0.002,0.003 0.008,0.004 0.016,0.005l0.026 0.001 0 0.024 -0.143 0zm-0.176 -0.132l0 0.087c0,0.009 0.001,0.014 0.004,0.017 0.003,0.003 0.008,0.004 0.015,0.004l0.022 0c0.023,0 0.04,-0.004 0.05,-0.012 0.01,-0.008 0.015,-0.021 0.015,-0.039 0,-0.021 -0.006,-0.036 -0.017,-0.044 -0.012,-0.009 -0.032,-0.013 -0.062,-0.013l-0.028 0zm0 -0.024l0.056 0c0.036,0 0.063,0.007 0.082,0.02 0.019,0.013 0.028,0.032 0.028,0.057 0,0.026 -0.009,0.046 -0.026,0.059 -0.017,0.013 -0.042,0.02 -0.076,0.02l-0.162 0 0 -0.024 0.026 -0.001c0.008,-0 0.013,-0.002 0.016,-0.005 0.003,-0.003 0.004,-0.008 0.004,-0.017l0 -0.172c0,-0.008 -0.001,-0.014 -0.004,-0.017 -0.002,-0.003 -0.008,-0.004 -0.015,-0.005l-0.026 -0.001 0 -0.024 0.143 0 0 0.024 -0.026 0.001c-0.008,0 -0.013,0.002 -0.016,0.005 -0.002,0.003 -0.004,0.008 -0.004,0.017l0 0.062z"/>
   <g>
    <path class="fil0" d="M0.529 0.153c-0.024,0 -0.042,0.009 -0.053,0.028 -0.011,0.019 -0.017,0.049 -0.017,0.09 0,0.041 0.006,0.071 0.017,0.089 0.011,0.019 0.028,0.028 0.052,0.028 0.025,0 0.043,-0.009 0.054,-0.028 0.011,-0.019 0.017,-0.048 0.017,-0.09 0,-0.041 -0.006,-0.071 -0.017,-0.09 -0.011,-0.019 -0.029,-0.028 -0.053,-0.028zm0 -0.023c0.038,0 0.068,0.013 0.092,0.039 0.024,0.026 0.036,0.06 0.036,0.102 0,0.042 -0.012,0.076 -0.036,0.102 -0.024,0.026 -0.054,0.039 -0.092,0.039 -0.038,0 -0.069,-0.013 -0.092,-0.039 -0.024,-0.026 -0.036,-0.06 -0.036,-0.102 0,-0.042 0.012,-0.076 0.036,-0.102 0.024,-0.026 0.055,-0.039 0.093,-0.039z"/>
    <g>
     <path class="fil1" d="M0.483 0.039c0.012,0 0.022,0.01 0.022,0.022 0,0.012 -0.01,0.022 -0.022,0.022 -0.012,0 -0.022,-0.01 -0.022,-0.022 0,-0.012 0.01,-0.022 0.022,-0.022z"/>
     <path class="fil1" d="M0.575 0.039c0.012,0 0.022,0.01 0.022,0.022 0,0.012 -0.01,0.022 -0.022,0.022 -0.012,0 -0.022,-0.01 -0.022,-0.022 0,-0.012 0.01,-0.022 0.022,-0.022z"/>
    </g>
   </g>
  </g>
 </g>
</svg>
