<?xml version="1.0" encoding="UTF-8"?>
<!DOCTYPE svg PUBLIC "-//W3C//DTD SVG 1.1//EN" "http://www.w3.org/Graphics/SVG/1.1/DTD/svg11.dtd">
<!-- Creator: CorelDRAW 2019 (64-Bit) -->
<svg xmlns="http://www.w3.org/2000/svg" xml:space="preserve" width="1.38732cm" height="0.39917cm" version="1.1" style="shape-rendering:geometricPrecision; text-rendering:geometricPrecision; image-rendering:optimizeQuality; fill-rule:evenodd; clip-rule:evenodd"
viewBox="0 0 0.731 0.21"
 xmlns:xlink="http://www.w3.org/1999/xlink"
 xmlns:xodm="http://www.corel.com/coreldraw/odm/2003">
 <defs>
  <style type="text/css">
   <![CDATA[
    .fil1 {fill:#999933}
    .fil0 {fill:#999933;fill-rule:nonzero}
   ]]>
  </style>
 </defs>
 <g id="Слой_x0020_1">
  <metadata id="CorelCorpID_0Corel-Layer"/>
  <g id="_1916094459840">
   <path class="fil0" d="M0.062 0.107l0 0.076c0,0.006 0.001,0.009 0.003,0.011 0.002,0.002 0.006,0.003 0.013,0.003l0.021 0c0.018,0 0.031,-0.003 0.038,-0.01 0.008,-0.007 0.011,-0.018 0.011,-0.034 0,-0.016 -0.005,-0.028 -0.014,-0.035 -0.009,-0.007 -0.025,-0.011 -0.046,-0.011l-0.026 0zm-0.062 0.103l0 -0.014 0.015 0c0.006,0 0.01,-0.001 0.012,-0.003 0.002,-0.002 0.003,-0.006 0.003,-0.011l0 -0.155c0,-0.005 -0.001,-0.009 -0.003,-0.011 -0.002,-0.002 -0.005,-0.003 -0.01,-0.003l-0.003 0 -0.015 0 0 -0.014 0.158 0 0.003 0.071 -0.013 0c-0.004,-0.023 -0.011,-0.039 -0.019,-0.046 -0.009,-0.008 -0.025,-0.011 -0.048,-0.011 -0.009,0 -0.014,0.001 -0.016,0.002 -0.002,0.002 -0.003,0.005 -0.003,0.01l0 0.068 0.039 0c0.028,0 0.048,0.005 0.062,0.015 0.014,0.01 0.021,0.025 0.021,0.045 0,0.018 -0.007,0.032 -0.02,0.042 -0.013,0.01 -0.032,0.015 -0.057,0.015l-0.107 0z"/>
   <path id="1" class="fil0" d="M0.498 0.198l0 0.012 -0.068 0 0 -0.012 0.011 -0.001c0.004,-0 0.007,-0.001 0.008,-0.002 0.001,-0.001 0.002,-0.004 0.002,-0.008l0 -0.036c-0.008,0.002 -0.015,0.004 -0.022,0.005 -0.007,0.001 -0.014,0.002 -0.02,0.002 -0.013,0 -0.023,-0.003 -0.03,-0.008 -0.007,-0.005 -0.01,-0.013 -0.01,-0.023l0 -0.028c0,-0.004 -0.001,-0.007 -0.002,-0.008 -0.001,-0.001 -0.004,-0.002 -0.008,-0.002l-0.011 -0.001 0 -0.012 0.068 0 0 0.012 -0.011 0.001c-0.004,0 -0.007,0.001 -0.008,0.002 -0.001,0.001 -0.002,0.004 -0.002,0.009l0 0.024c0,0.007 0.002,0.013 0.005,0.016 0.003,0.003 0.009,0.005 0.018,0.005 0.005,0 0.01,-0 0.015,-0.002 0.006,-0.001 0.011,-0.002 0.017,-0.004l0 -0.038c0,-0.004 -0.001,-0.007 -0.002,-0.008 -0.001,-0.001 -0.004,-0.002 -0.008,-0.002l-0.011 -0.001 0 -0.012 0.068 0 0 0.012 -0.011 0.001c-0.004,0 -0.007,0.001 -0.008,0.002 -0.001,0.001 -0.002,0.004 -0.002,0.009l0 0.088c0,0.004 0.001,0.007 0.002,0.009 0.001,0.001 0.004,0.002 0.008,0.002l0.011 0.001z"/>
   <path id="2" class="fil0" d="M0.658 0.21l0 -0.012 0.013 -0.001c0.004,-0 0.007,-0.001 0.008,-0.002 0.001,-0.001 0.002,-0.004 0.002,-0.008l0 -0.088c0,-0.004 -0.001,-0.007 -0.002,-0.008 -0.001,-0.001 -0.004,-0.002 -0.008,-0.002l-0.013 -0.001 0 -0.012 0.073 0 0 0.012 -0.013 0.001c-0.004,0 -0.007,0.001 -0.008,0.002 -0.001,0.001 -0.002,0.004 -0.002,0.008l0 0.088c0,0.004 0.001,0.007 0.002,0.008 0.001,0.001 0.004,0.002 0.008,0.002l0.013 0.001 0 0.012 -0.073 0zm-0.09 -0.067l0 0.044c0,0.004 0.001,0.007 0.002,0.009 0.001,0.001 0.004,0.002 0.008,0.002l0.011 0c0.012,0 0.021,-0.002 0.026,-0.006 0.005,-0.004 0.008,-0.011 0.008,-0.02 0,-0.011 -0.003,-0.018 -0.009,-0.023 -0.006,-0.004 -0.016,-0.007 -0.032,-0.007l-0.014 0zm0 -0.012l0.029 0c0.018,0 0.032,0.003 0.042,0.01 0.01,0.007 0.014,0.016 0.014,0.029 0,0.013 -0.004,0.023 -0.013,0.03 -0.009,0.007 -0.022,0.01 -0.039,0.01l-0.083 0 0 -0.012 0.013 -0.001c0.004,-0 0.007,-0.001 0.008,-0.002 0.001,-0.001 0.002,-0.004 0.002,-0.008l0 -0.088c0,-0.004 -0.001,-0.007 -0.002,-0.008 -0.001,-0.001 -0.004,-0.002 -0.008,-0.002l-0.013 -0.001 0 -0.012 0.073 0 0 0.012 -0.013 0.001c-0.004,0 -0.007,0.001 -0.008,0.002 -0.001,0.001 -0.002,0.004 -0.002,0.008l0 0.032z"/>
   <g>
    <path class="fil0" d="M0.27 0.078c-0.012,0 -0.021,0.005 -0.027,0.014 -0.006,0.01 -0.008,0.025 -0.008,0.046 0,0.021 0.003,0.036 0.008,0.046 0.006,0.01 0.015,0.014 0.027,0.014 0.013,0 0.022,-0.005 0.027,-0.014 0.006,-0.009 0.008,-0.025 0.008,-0.046 0,-0.021 -0.003,-0.036 -0.009,-0.046 -0.006,-0.01 -0.015,-0.014 -0.027,-0.014zm0 -0.012c0.019,0 0.035,0.007 0.047,0.02 0.012,0.013 0.018,0.031 0.018,0.052 0,0.021 -0.006,0.039 -0.018,0.052 -0.012,0.013 -0.028,0.02 -0.047,0.02 -0.019,0 -0.035,-0.007 -0.047,-0.02 -0.012,-0.013 -0.018,-0.031 -0.018,-0.052 0,-0.021 0.006,-0.039 0.018,-0.052 0.012,-0.013 0.028,-0.02 0.047,-0.02z"/>
    <g>
     <path class="fil1" d="M0.247 0.02c0.006,0 0.011,0.005 0.011,0.011 0,0.006 -0.005,0.011 -0.011,0.011 -0.006,0 -0.011,-0.005 -0.011,-0.011 0,-0.006 0.005,-0.011 0.011,-0.011z"/>
     <path class="fil1" d="M0.294 0.02c0.006,0 0.011,0.005 0.011,0.011 0,0.006 -0.005,0.011 -0.011,0.011 -0.006,0 -0.011,-0.005 -0.011,-0.011 0,-0.006 0.005,-0.011 0.011,-0.011z"/>
    </g>
   </g>
  </g>
 </g>
</svg>
