<?xml version="1.0" encoding="UTF-8"?>
<!DOCTYPE svg PUBLIC "-//W3C//DTD SVG 1.1//EN" "http://www.w3.org/Graphics/SVG/1.1/DTD/svg11.dtd">
<!-- Creator: CorelDRAW 2019 (64-Bit) -->
<svg xmlns="http://www.w3.org/2000/svg" xml:space="preserve" width="12.8609mm" height="7.6536mm" version="1.1" style="shape-rendering:geometricPrecision; text-rendering:geometricPrecision; image-rendering:optimizeQuality; fill-rule:evenodd; clip-rule:evenodd"
viewBox="0 0 7.15 4.25"
 xmlns:xlink="http://www.w3.org/1999/xlink"
 xmlns:xodm="http://www.corel.com/coreldraw/odm/2003">
 <defs>
  <style type="text/css">
   <![CDATA[
    .fil1 {fill:#9C6921}
    .fil0 {fill:#9C6921;fill-rule:nonzero}
   ]]>
  </style>
 </defs>
 <g id="Слой_x0020_1">
  <metadata id="CorelCorpID_0Corel-Layer"/>
  <g id="_1472770888144">
   <path class="fil0" d="M-0 0.86l1.51 0 0 0.22 -0.31 0c-0.07,0 -0.12,0.02 -0.15,0.05 -0.03,0.04 -0.05,0.09 -0.05,0.17l0 0.98c0,0.15 0.05,0.26 0.14,0.33 0.09,0.07 0.23,0.11 0.42,0.11 0.1,0 0.22,-0.01 0.36,-0.04 0.14,-0.02 0.28,-0.06 0.43,-0.1l0 -1.28c0,-0.08 -0.02,-0.14 -0.05,-0.17 -0.03,-0.03 -0.08,-0.05 -0.16,-0.05l-0.05 0 -0.25 0 0 -0.22 1.5 0 0 0.22 -0.31 0c-0.07,0 -0.11,0.02 -0.14,0.05 -0.03,0.04 -0.04,0.09 -0.04,0.17l0 2.5c0,0.09 0.02,0.15 0.05,0.18 0.03,0.03 0.1,0.05 0.2,0.05l0.25 0 0 0.22 -1.5 0 0 -0.22 0.25 0c0.1,0 0.16,-0.02 0.2,-0.05 0.03,-0.03 0.05,-0.09 0.05,-0.18l0 -0.99c-0.18,0.05 -0.34,0.09 -0.5,0.12 -0.16,0.03 -0.31,0.04 -0.45,0.04 -0.3,0 -0.52,-0.06 -0.68,-0.19 -0.15,-0.13 -0.23,-0.31 -0.23,-0.56l0 -0.93c0,-0.08 -0.02,-0.14 -0.05,-0.17 -0.03,-0.03 -0.08,-0.05 -0.16,-0.05l-0.04 0 -0.25 0 0 -0.22zm7.15 3.2l0 0.2 -1.09 0 0 -0.2 0.17 -0.01c0.07,-0 0.11,-0.01 0.13,-0.04 0.02,-0.02 0.03,-0.07 0.03,-0.14l0 -0.59c-0.12,0.04 -0.24,0.06 -0.35,0.08 -0.11,0.02 -0.22,0.03 -0.33,0.03 -0.21,0 -0.37,-0.04 -0.48,-0.12 -0.11,-0.08 -0.16,-0.2 -0.16,-0.36l0 -0.45c0,-0.07 -0.01,-0.11 -0.03,-0.14 -0.02,-0.02 -0.06,-0.03 -0.13,-0.04l-0.17 -0.01 0 -0.2 1.1 0 0 0.2 -0.18 0.01c-0.06,0 -0.11,0.01 -0.13,0.04 -0.02,0.02 -0.03,0.07 -0.03,0.14l0 0.39c0,0.12 0.03,0.21 0.08,0.25 0.06,0.05 0.15,0.07 0.29,0.07 0.07,0 0.16,-0.01 0.25,-0.02 0.09,-0.02 0.18,-0.04 0.28,-0.07l0 -0.62c0,-0.07 -0.01,-0.12 -0.03,-0.14 -0.02,-0.02 -0.06,-0.03 -0.13,-0.04l-0.17 -0.01 0 -0.2 1.09 0 0 0.2 -0.17 0.01c-0.07,0 -0.11,0.01 -0.13,0.04 -0.02,0.02 -0.03,0.07 -0.03,0.14l0 1.42c0,0.07 0.01,0.12 0.03,0.14 0.02,0.02 0.06,0.03 0.13,0.04l0.17 0.01z"/>
   <g>
    <path class="fil1" d="M5.56 1.33c0.1,0 0.19,0.08 0.19,0.19 0,0.1 -0.08,0.19 -0.19,0.19 -0.1,0 -0.19,-0.08 -0.19,-0.19 0,-0.1 0.08,-0.19 0.19,-0.19z"/>
    <path class="fil1" d="M6.32 1.33c0.1,0 0.19,0.08 0.19,0.19 0,0.1 -0.08,0.19 -0.19,0.19 -0.1,0 -0.19,-0.08 -0.19,-0.19 0,-0.1 0.08,-0.19 0.19,-0.19z"/>
   </g>
   <g>
    <path class="fil1" d="M2.08 0c0.13,0 0.24,0.11 0.24,0.24 0,0.13 -0.11,0.24 -0.24,0.24 -0.13,0 -0.24,-0.11 -0.24,-0.24 0,-0.13 0.11,-0.24 0.24,-0.24z"/>
    <path class="fil1" d="M1.28 0c0.13,0 0.24,0.11 0.24,0.24 0,0.13 -0.11,0.24 -0.24,0.24 -0.13,0 -0.24,-0.11 -0.24,-0.24 0,-0.13 0.11,-0.24 0.24,-0.24z"/>
   </g>
  </g>
 </g>
</svg>
