<?xml version="1.0" encoding="UTF-8"?>
<!DOCTYPE svg PUBLIC "-//W3C//DTD SVG 1.1//EN" "http://www.w3.org/Graphics/SVG/1.1/DTD/svg11.dtd">
<!-- Creator: CorelDRAW 2019 (64-Bit) -->
<svg xmlns="http://www.w3.org/2000/svg" xml:space="preserve" width="11.042mm" height="6.113mm" version="1.1" style="shape-rendering:geometricPrecision; text-rendering:geometricPrecision; image-rendering:optimizeQuality; fill-rule:evenodd; clip-rule:evenodd"
viewBox="0 0 5.27 2.91"
 xmlns:xlink="http://www.w3.org/1999/xlink"
 xmlns:xodm="http://www.corel.com/coreldraw/odm/2003">
 <defs>
  <style type="text/css">
   <![CDATA[
    .fil0 {fill:#9C6921;fill-rule:nonzero}
   ]]>
  </style>
 </defs>
 <g id="Слой_x0020_1">
  <metadata id="CorelCorpID_0Corel-Layer"/>
  <path class="fil0" d="M-0 2.91l0 -0.19 0.21 0c0.08,0 0.14,-0.01 0.17,-0.04 0.03,-0.03 0.04,-0.08 0.04,-0.15l0 -2.15c0,-0.07 -0.01,-0.12 -0.04,-0.15 -0.03,-0.03 -0.07,-0.04 -0.13,-0.04l-0.04 0 -0.21 0 0 -0.19 2.36 0 0.05 1.03 -0.17 0c-0.06,-0.34 -0.15,-0.57 -0.27,-0.68 -0.12,-0.11 -0.38,-0.17 -0.76,-0.17 -0.15,0 -0.25,0.01 -0.29,0.04 -0.04,0.03 -0.06,0.08 -0.06,0.16l0 2.15c0,0.08 0.01,0.13 0.04,0.15 0.03,0.03 0.1,0.04 0.2,0.04l0.18 0 0 0.19 -1.29 0zm3.68 0l0 -0.17 0.18 -0.01c0.06,-0 0.09,-0.01 0.11,-0.03 0.02,-0.02 0.03,-0.06 0.03,-0.12l0 -1.21c0,-0.06 -0.01,-0.1 -0.03,-0.12 -0.02,-0.02 -0.05,-0.03 -0.11,-0.03l-0.19 -0.01 0 -0.17 1.55 0 0.04 0.66 -0.15 0c-0.03,-0.18 -0.09,-0.3 -0.17,-0.38 -0.08,-0.07 -0.2,-0.11 -0.37,-0.11 -0.09,0 -0.14,0.01 -0.17,0.03 -0.03,0.02 -0.04,0.06 -0.04,0.13l0 1.21c0,0.06 0.01,0.1 0.03,0.12 0.02,0.02 0.05,0.03 0.11,0.03l0.19 0.01 0 0.17 -1.01 0z"/>
 </g>
</svg>
