<?xml version="1.0" encoding="UTF-8"?>
<!DOCTYPE svg PUBLIC "-//W3C//DTD SVG 1.1//EN" "http://www.w3.org/Graphics/SVG/1.1/DTD/svg11.dtd">
<!-- Creator: CorelDRAW 2019 (64-Bit) -->
<svg xmlns="http://www.w3.org/2000/svg" xml:space="preserve" width="13.9447mm" height="6.113mm" version="1.1" style="shape-rendering:geometricPrecision; text-rendering:geometricPrecision; image-rendering:optimizeQuality; fill-rule:evenodd; clip-rule:evenodd"
viewBox="0 0 8.41 3.69"
 xmlns:xlink="http://www.w3.org/1999/xlink"
 xmlns:xodm="http://www.corel.com/coreldraw/odm/2003">
 <defs>
  <style type="text/css">
   <![CDATA[
    .fil0 {fill:#9C6921;fill-rule:nonzero}
   ]]>
  </style>
 </defs>
 <g id="Слой_x0020_1">
  <metadata id="CorelCorpID_0Corel-Layer"/>
  <path class="fil0" d="M-0 0l1.63 0 0 0.24 -0.33 0c-0.07,0 -0.12,0.02 -0.16,0.06 -0.03,0.04 -0.05,0.1 -0.05,0.19l0 2.05 1.73 -1.88 0 -0.17c0,-0.09 -0.02,-0.15 -0.05,-0.19 -0.03,-0.04 -0.09,-0.06 -0.17,-0.06l-0.05 0 -0.27 0 0 -0.24 1.63 0 0 0.24 -0.33 0c-0.07,0 -0.12,0.02 -0.16,0.06 -0.03,0.04 -0.05,0.1 -0.05,0.19l0 2.71c0,0.09 0.02,0.16 0.06,0.19 0.04,0.03 0.11,0.05 0.22,0.05l0.27 0 0 0.24 -1.63 0 0 -0.24 0.27 0c0.1,0 0.18,-0.02 0.21,-0.05 0.04,-0.03 0.06,-0.1 0.06,-0.19l0 -2.08 -1.73 1.87 0 0.21c0,0.09 0.02,0.16 0.05,0.19 0.04,0.03 0.11,0.05 0.21,0.05l0.27 0 0 0.24 -1.63 0 0 -0.24 0.26 0c0.11,0 0.18,-0.02 0.22,-0.05 0.04,-0.03 0.06,-0.1 0.06,-0.19l0 -2.71c0,-0.09 -0.02,-0.15 -0.05,-0.19 -0.03,-0.04 -0.09,-0.06 -0.17,-0.06l-0.05 0 -0.26 0 0 -0.24zm7.54 1.74c0,-0.07 -0.01,-0.12 -0.03,-0.15 -0.02,-0.02 -0.07,-0.04 -0.14,-0.04l-0.24 -0.01 0 -0.21 1.28 0 0 0.21 -0.23 0.01c-0.07,0 -0.12,0.02 -0.14,0.04 -0.02,0.02 -0.03,0.07 -0.03,0.15l0 1.54c0,0.07 0.01,0.12 0.03,0.15 0.02,0.02 0.07,0.04 0.14,0.04l0.23 0.01 0 0.21 -1.28 0 0 -0.21 0.23 -0.01c0.07,-0 0.12,-0.02 0.14,-0.04 0.02,-0.02 0.03,-0.07 0.03,-0.15l0 -1.15 -1.06 1.1 0 0.06c0,0.07 0.01,0.11 0.03,0.13 0.02,0.02 0.07,0.04 0.14,0.04l0.23 0.01 0 0.21 -1.28 0 0 -0.21 0.23 -0.01c0.07,-0 0.12,-0.02 0.14,-0.04 0.02,-0.02 0.03,-0.07 0.03,-0.15l0 -1.54c0,-0.08 -0.01,-0.13 -0.03,-0.15 -0.02,-0.02 -0.07,-0.04 -0.13,-0.04l-0.24 -0.01 0 -0.21 1.28 0 0 0.21 -0.23 0.01c-0.07,0 -0.12,0.02 -0.14,0.04 -0.02,0.02 -0.03,0.07 -0.03,0.15l0 1.16 1.06 -1.1 0 -0.07z"/>
 </g>
</svg>
