<?xml version="1.0" encoding="UTF-8"?>
<!DOCTYPE svg PUBLIC "-//W3C//DTD SVG 1.1//EN" "http://www.w3.org/Graphics/SVG/1.1/DTD/svg11.dtd">
<!-- Creator: CorelDRAW 2019 (64-Bit) -->
<svg xmlns="http://www.w3.org/2000/svg" xml:space="preserve" width="4.7379mm" height="2.9387mm" version="1.1" style="shape-rendering:geometricPrecision; text-rendering:geometricPrecision; image-rendering:optimizeQuality; fill-rule:evenodd; clip-rule:evenodd"
viewBox="0 0 0.94 0.58"
 xmlns:xlink="http://www.w3.org/1999/xlink"
 xmlns:xodm="http://www.corel.com/coreldraw/odm/2003">
 <defs>
  <style type="text/css">
   <![CDATA[
    .fil0 {fill:#9C6921;fill-rule:nonzero}
   ]]>
  </style>
 </defs>
 <g id="Слой_x0020_1">
  <metadata id="CorelCorpID_0Corel-Layer"/>
  <path class="fil0" d="M0.68 0.3c0,0.07 -0.02,0.13 -0.06,0.17 -0.04,0.04 -0.09,0.07 -0.16,0.07 -0.11,0 -0.17,-0.05 -0.2,-0.15l0.08 -0.01c0.02,0.06 0.06,0.09 0.12,0.09 0.04,0 0.08,-0.02 0.1,-0.05 0.02,-0.03 0.03,-0.06 0.04,-0.11l-0.34 0c-0,-0.01 -0,-0.02 -0,-0.02 0,-0.07 0.02,-0.12 0.05,-0.17 0.04,-0.05 0.09,-0.07 0.16,-0.07 0.07,0 0.12,0.02 0.16,0.07 0.04,0.04 0.05,0.1 0.05,0.17zm-0.08 -0.05c-0,-0.04 -0.02,-0.07 -0.04,-0.09 -0.02,-0.03 -0.05,-0.04 -0.09,-0.04 -0.04,0 -0.07,0.01 -0.1,0.04 -0.02,0.02 -0.03,0.05 -0.03,0.09l0.26 0z"/>
  <path class="fil0" d="M0.16 0l0 0.02 -0.11 0 0 0.54 0.11 0 0 0.02 -0.16 0 0 -0.58 0.16 0zm0.62 0l0.16 0 0 0.58 -0.16 0 0 -0.02 0.11 0 0 -0.54 -0.11 0 0 -0.02z"/>
 </g>
</svg>
