<?xml version="1.0" encoding="UTF-8"?>
<!DOCTYPE svg PUBLIC "-//W3C//DTD SVG 1.1//EN" "http://www.w3.org/Graphics/SVG/1.1/DTD/svg11.dtd">
<!-- Creator: CorelDRAW 2019 (64-Bit) -->
<svg xmlns="http://www.w3.org/2000/svg" xml:space="preserve" width="12.5886mm" height="6.2654mm" version="1.1" style="shape-rendering:geometricPrecision; text-rendering:geometricPrecision; image-rendering:optimizeQuality; fill-rule:evenodd; clip-rule:evenodd"
viewBox="0 0 6.85 3.41"
 xmlns:xlink="http://www.w3.org/1999/xlink"
 xmlns:xodm="http://www.corel.com/coreldraw/odm/2003">
 <defs>
  <style type="text/css">
   <![CDATA[
    .fil0 {fill:#9C6921;fill-rule:nonzero}
   ]]>
  </style>
 </defs>
 <g id="Слой_x0020_1">
  <metadata id="CorelCorpID_0Corel-Layer"/>
  <path class="fil0" d="M2.12 1.49l0 -1.08c0,-0.08 -0.02,-0.14 -0.05,-0.16 -0.03,-0.03 -0.09,-0.04 -0.19,-0.04l-0.3 0c-0.26,0 -0.45,0.05 -0.56,0.15 -0.11,0.1 -0.17,0.26 -0.17,0.49 0,0.24 0.07,0.41 0.21,0.51 0.14,0.1 0.4,0.15 0.76,0.15l0.07 0 0.23 -0.01zm-2.11 1.09l0.17 0c0.01,0.17 0.03,0.3 0.05,0.37 0.03,0.07 0.07,0.11 0.13,0.11 0.05,0 0.09,-0.02 0.12,-0.07 0.03,-0.05 0.06,-0.13 0.09,-0.23l0.12 -0.52c0.04,-0.18 0.11,-0.32 0.22,-0.41 0.1,-0.09 0.25,-0.16 0.44,-0.18 -0.34,-0.03 -0.59,-0.12 -0.76,-0.26 -0.17,-0.14 -0.26,-0.33 -0.26,-0.57 0,-0.26 0.09,-0.46 0.27,-0.61 0.18,-0.14 0.43,-0.21 0.76,-0.21l1.75 0 0 0.22 -0.3 0c-0.06,0 -0.11,0.02 -0.14,0.05 -0.03,0.03 -0.04,0.09 -0.04,0.17l0 2.45c0,0.09 0.02,0.14 0.05,0.17 0.03,0.03 0.1,0.05 0.19,0.05l0.24 0 0 0.22 -1.51 0 0 -0.22 0.28 0c0.1,0 0.16,-0.02 0.19,-0.05 0.03,-0.03 0.05,-0.09 0.05,-0.17l0 -1.17 -0.31 0c-0.2,0 -0.35,0.05 -0.46,0.14 -0.11,0.1 -0.17,0.24 -0.19,0.44l-0.05 0.46c-0.03,0.24 -0.08,0.4 -0.16,0.5 -0.08,0.1 -0.21,0.15 -0.38,0.15 -0.18,0 -0.32,-0.06 -0.41,-0.19 -0.1,-0.13 -0.15,-0.3 -0.15,-0.54 0,-0.01 0,-0.03 0,-0.05 0,-0.02 0,-0.04 0,-0.06zm6.06 -0.46l0 -0.56c0,-0.07 -0.01,-0.12 -0.04,-0.14 -0.02,-0.03 -0.07,-0.04 -0.13,-0.04l-0.17 0c-0.17,0 -0.3,0.03 -0.38,0.08 -0.08,0.05 -0.11,0.14 -0.11,0.26 0,0.14 0.05,0.24 0.14,0.3 0.09,0.06 0.25,0.09 0.48,0.09l0.21 0zm-0.36 1.2l0 -0.19 0.21 -0.01c0.06,-0 0.1,-0.01 0.12,-0.04 0.02,-0.02 0.03,-0.07 0.03,-0.13l0 -0.66 -0.2 0c-0.13,0 -0.23,0.03 -0.29,0.09 -0.07,0.06 -0.11,0.16 -0.12,0.28l-0.03 0.29c-0.02,0.16 -0.06,0.26 -0.12,0.32 -0.06,0.06 -0.16,0.09 -0.29,0.09 -0.13,0 -0.23,-0.04 -0.29,-0.11 -0.06,-0.08 -0.1,-0.19 -0.1,-0.35l0 -0.07 0.14 0c0.01,0.12 0.02,0.2 0.03,0.24 0.02,0.04 0.05,0.06 0.09,0.06 0.03,0 0.05,-0.02 0.07,-0.05 0.02,-0.03 0.04,-0.08 0.06,-0.14l0.08 -0.33c0.03,-0.12 0.08,-0.21 0.15,-0.27 0.07,-0.06 0.17,-0.09 0.31,-0.11 -0.24,-0.02 -0.41,-0.07 -0.53,-0.16 -0.12,-0.09 -0.18,-0.21 -0.18,-0.38 0,-0.17 0.06,-0.3 0.19,-0.39 0.13,-0.09 0.32,-0.13 0.58,-0.13l1.25 0 0 0.19 -0.21 0.01c-0.06,0 -0.1,0.01 -0.12,0.04 -0.02,0.02 -0.03,0.07 -0.03,0.14l0 1.39c0,0.07 0.01,0.11 0.03,0.13 0.02,0.02 0.06,0.03 0.13,0.04l0.21 0.01 0 0.19 -1.15 0z"/>
 </g>
</svg>
