<?xml version="1.0" encoding="UTF-8" standalone="no"?>
<svg
   xmlns:dc="http://purl.org/dc/elements/1.1/"
   xmlns:cc="http://creativecommons.org/ns#"
   xmlns:rdf="http://www.w3.org/1999/02/22-rdf-syntax-ns#"
   xmlns:svg="http://www.w3.org/2000/svg"
   xmlns="http://www.w3.org/2000/svg"
   xmlns:sodipodi="http://sodipodi.sourceforge.net/DTD/sodipodi-0.dtd"
   xmlns:inkscape="http://www.inkscape.org/namespaces/inkscape"
   xml:space="preserve"
   width="0.60799265cm"
   height="0.47937882cm"
   version="1.1"
   style="clip-rule:evenodd;fill-rule:evenodd;image-rendering:optimizeQuality;shape-rendering:geometricPrecision;text-rendering:geometricPrecision"
   viewBox="0 0 0.15600001 0.12277315"
   id="svg12"
   sodipodi:docname="BurvaI4.svg"
   inkscape:version="1.0.1 (3bc2e813f5, 2020-09-07)"><metadata
   id="metadata16"><rdf:RDF><cc:Work
       rdf:about=""><dc:format>image/svg+xml</dc:format><dc:type
         rdf:resource="http://purl.org/dc/dcmitype/StillImage" /><dc:title></dc:title></cc:Work></rdf:RDF></metadata><sodipodi:namedview
   pagecolor="#ffffff"
   bordercolor="#666666"
   borderopacity="1"
   objecttolerance="10"
   gridtolerance="10"
   guidetolerance="10"
   inkscape:pageopacity="0"
   inkscape:pageshadow="2"
   inkscape:window-width="1280"
   inkscape:window-height="961"
   id="namedview14"
   showgrid="false"
   fit-margin-top="0"
   fit-margin-left="0"
   fit-margin-right="0"
   fit-margin-bottom="0"
   inkscape:zoom="10.205976"
   inkscape:cx="11.729161"
   inkscape:cy="17.509944"
   inkscape:window-x="-8"
   inkscape:window-y="-8"
   inkscape:window-maximized="1"
   inkscape:current-layer="svg12" />
 <defs
   id="defs4">
  <style
   type="text/css"
   id="style2">
   <![CDATA[
    .fil0 {fill:#9C6921;fill-rule:nonzero}
   ]]>
  </style>
 </defs>
 <g
   id="Слой_x0020_1"
   transform="translate(0,8.8728553e-4)">
  <metadata
   id="CorelCorpID_0Corel-Layer" />
  <path
   class="fil0"
   d="M 0.06,0.114 V 0.108 h 0.007 c 0.002,0 0.003,0 0.004,-0.001 C 0.072,0.106 0.072,0.105 0.072,0.103 V 0.059 C 0.072,0.057 0.071,0.055 0.07,0.054 0.069,0.053 0.067,0.053 0.064,0.053 c 0,0 -0.001,0 -0.002,0 -0.001,0 -0.002,0 -0.002,0 V 0.047 L 0.086,0.045 v 0.058 c 0,0.002 0,0.004 0.001,0.004 0.001,0.001 0.002,0.001 0.004,0.001 H 0.097 V 0.114 Z M 0.078,0.008 c 0.002,0 0.004,10e-4 0.006,0.003 0.002,0.002 0.003,0.004 0.003,0.006 0,0.002 -0.001,0.004 -0.003,0.006 C 0.082,0.025 0.08,0.025 0.078,0.025 0.076,0.025 0.074,0.024 0.072,0.022 0.07,0.02 0.069,0.018 0.069,0.016 0.069,0.014 0.07,0.012 0.072,0.01 0.074,0.008 0.076,0.007 0.078,0.007 Z"
   id="path7" />
  <path
   class="fil0"
   d="M 0.033,0 V 0.004 H 0.01 V 0.117 H 0.033 V 0.121 H 0 v -0.122 h 0.033 z m 0.09,0 H 0.156 V 0.122 H 0.123 V 0.118 H 0.146 V 0.005 H 0.123 V 0.001 Z"
   id="path9" />
 </g>
</svg>
