<?xml version="1.0" encoding="UTF-8"?>
<!DOCTYPE svg PUBLIC "-//W3C//DTD SVG 1.1//EN" "http://www.w3.org/Graphics/SVG/1.1/DTD/svg11.dtd">
<!-- Creator: CorelDRAW 2019 (64-Bit) -->
<svg xmlns="http://www.w3.org/2000/svg" xml:space="preserve" width="16.7289mm" height="7.8229mm" version="1.1" style="shape-rendering:geometricPrecision; text-rendering:geometricPrecision; image-rendering:optimizeQuality; fill-rule:evenodd; clip-rule:evenodd"
viewBox="0 0 12.11 5.67"
 xmlns:xlink="http://www.w3.org/1999/xlink"
 xmlns:xodm="http://www.corel.com/coreldraw/odm/2003">
 <defs>
  <style type="text/css">
   <![CDATA[
    .fil1 {fill:#9C6921}
    .fil0 {fill:#9C6921;fill-rule:nonzero}
   ]]>
  </style>
 </defs>
 <g id="Слой_x0020_1">
  <metadata id="CorelCorpID_0Corel-Layer"/>
  <g id="_1472533729568">
   <path class="fil0" d="M2.64 3.08l0 -1.39c0,-0.11 -0.02,-0.18 -0.06,-0.23 -0.04,-0.04 -0.11,-0.07 -0.2,-0.07l-0.06 0 -0.21 0 0 -0.29 1.67 0 0 0.29 -0.29 0c-0.09,0 -0.15,0.02 -0.19,0.07 -0.04,0.05 -0.06,0.12 -0.06,0.22l0 1.39c0.3,0 0.52,-0.05 0.66,-0.14 0.14,-0.09 0.24,-0.26 0.3,-0.5 0.03,-0.11 0.06,-0.29 0.1,-0.54 0.04,-0.25 0.08,-0.42 0.13,-0.52 0.06,-0.12 0.15,-0.22 0.26,-0.28 0.11,-0.07 0.25,-0.1 0.4,-0.1 0.21,0 0.37,0.06 0.51,0.18 0.13,0.12 0.2,0.27 0.2,0.45 0,0.12 -0.04,0.22 -0.11,0.3 -0.07,0.08 -0.17,0.12 -0.29,0.12 -0.13,0 -0.23,-0.03 -0.3,-0.09 -0.08,-0.06 -0.11,-0.14 -0.11,-0.24 0,-0.08 0.03,-0.16 0.08,-0.23 0.05,-0.08 0.08,-0.12 0.08,-0.13 0,-0.02 -0.01,-0.04 -0.03,-0.05 -0.02,-0.01 -0.05,-0.02 -0.09,-0.02 -0.19,0 -0.32,0.22 -0.4,0.66 -0.01,0.08 -0.02,0.14 -0.03,0.18 -0.07,0.37 -0.14,0.63 -0.23,0.76 -0.09,0.13 -0.21,0.23 -0.37,0.28 0.27,0.04 0.47,0.11 0.62,0.23 0.15,0.12 0.26,0.3 0.33,0.54 0.04,0.15 0.09,0.35 0.13,0.62 0.07,0.43 0.18,0.65 0.35,0.65 0.08,0 0.14,-0.04 0.18,-0.11 0.04,-0.07 0.07,-0.18 0.07,-0.31l0.23 0c0,0.02 0,0.04 0.01,0.06 0,0.02 0,0.03 0,0.05 0,0.25 -0.06,0.44 -0.18,0.57 -0.12,0.14 -0.29,0.21 -0.51,0.21 -0.46,0 -0.74,-0.39 -0.85,-1.18 -0.02,-0.14 -0.04,-0.25 -0.05,-0.33 -0.04,-0.3 -0.12,-0.5 -0.24,-0.61 -0.12,-0.11 -0.31,-0.16 -0.57,-0.16l-0.08 0 -0.17 0 0 1.57c0,0.12 0.02,0.2 0.07,0.24 0.04,0.04 0.13,0.06 0.26,0.06l0.21 0 0 0.29 -1.67 0 0 -0.29 0.21 0c0.13,0 0.21,-0.02 0.26,-0.06 0.04,-0.04 0.07,-0.12 0.07,-0.23l0 -1.58 -0.29 0c-0.24,0 -0.42,0.06 -0.53,0.16 -0.11,0.11 -0.19,0.31 -0.24,0.61 -0.01,0.08 -0.03,0.19 -0.05,0.34 -0.1,0.78 -0.38,1.16 -0.85,1.16 -0.22,0 -0.39,-0.07 -0.51,-0.21 -0.12,-0.14 -0.18,-0.33 -0.18,-0.59 0,-0.02 0,-0.03 0,-0.05 0,-0.01 0,-0.03 0,-0.05l0.23 0c0,0.13 0.03,0.24 0.07,0.31 0.04,0.07 0.11,0.11 0.19,0.11 0.16,0 0.27,-0.22 0.34,-0.65 0.04,-0.27 0.09,-0.48 0.13,-0.62 0.08,-0.24 0.19,-0.42 0.33,-0.54 0.15,-0.12 0.35,-0.19 0.62,-0.23 -0.11,-0.03 -0.2,-0.08 -0.27,-0.15 -0.07,-0.07 -0.13,-0.16 -0.18,-0.26 -0.02,-0.06 -0.06,-0.17 -0.1,-0.35 -0.01,-0.03 -0.01,-0.06 -0.02,-0.08 -0.03,-0.14 -0.06,-0.28 -0.08,-0.4 -0.02,-0.12 -0.03,-0.2 -0.03,-0.22 0,-0.1 -0.04,-0.19 -0.11,-0.28 -0.07,-0.09 -0.16,-0.14 -0.25,-0.14 -0.04,0 -0.07,0.01 -0.09,0.02 -0.02,0.01 -0.03,0.03 -0.03,0.06 0,0.01 0.03,0.05 0.08,0.12 0.05,0.08 0.08,0.15 0.08,0.23 0,0.1 -0.04,0.18 -0.11,0.24 -0.08,0.06 -0.18,0.09 -0.3,0.09 -0.13,0 -0.23,-0.04 -0.3,-0.12 -0.07,-0.08 -0.11,-0.18 -0.11,-0.32 0,-0.17 0.07,-0.32 0.2,-0.43 0.14,-0.12 0.31,-0.18 0.51,-0.18 0.15,0 0.29,0.03 0.4,0.1 0.12,0.07 0.2,0.16 0.26,0.28 0.05,0.1 0.09,0.28 0.13,0.53 0.04,0.25 0.07,0.43 0.1,0.54 0.06,0.24 0.16,0.41 0.3,0.5 0.14,0.09 0.36,0.14 0.66,0.14zm6.56 2.46l0 -0.26 0.28 -0.01c0.09,-0 0.14,-0.02 0.17,-0.05 0.03,-0.03 0.04,-0.09 0.04,-0.18l0 -0.88 -0.28 0c-0.16,0 -0.28,0.04 -0.36,0.11 -0.08,0.07 -0.13,0.21 -0.16,0.41 -0.01,0.05 -0.02,0.11 -0.03,0.2 -0.07,0.51 -0.26,0.76 -0.58,0.76 -0.18,0 -0.31,-0.05 -0.39,-0.16 -0.09,-0.11 -0.13,-0.26 -0.13,-0.48l0 -0.09 0.18 0c0,0.15 0.01,0.25 0.04,0.31 0.03,0.06 0.07,0.08 0.14,0.08 0.1,0 0.17,-0.13 0.21,-0.39 0.03,-0.17 0.05,-0.31 0.08,-0.4 0.05,-0.16 0.12,-0.27 0.22,-0.35 0.1,-0.08 0.24,-0.13 0.42,-0.16 -0.1,-0.05 -0.18,-0.12 -0.24,-0.21 -0.05,-0.09 -0.1,-0.26 -0.15,-0.52 -0.04,-0.21 -0.08,-0.34 -0.12,-0.39 -0.04,-0.06 -0.1,-0.08 -0.17,-0.08 -0.03,0 -0.05,0.01 -0.06,0.02 -0.02,0.01 -0.02,0.03 -0.02,0.04 0,0.01 0.02,0.04 0.06,0.09 0.04,0.05 0.06,0.11 0.06,0.16 0,0.08 -0.03,0.14 -0.08,0.18 -0.05,0.04 -0.12,0.07 -0.21,0.07 -0.1,0 -0.17,-0.03 -0.23,-0.09 -0.06,-0.06 -0.08,-0.14 -0.08,-0.25 0,-0.13 0.05,-0.24 0.15,-0.33 0.1,-0.08 0.22,-0.13 0.38,-0.13 0.3,0 0.5,0.23 0.59,0.69 0.01,0.05 0.02,0.09 0.02,0.11 0.04,0.22 0.11,0.36 0.2,0.44 0.09,0.07 0.23,0.11 0.42,0.11l0.13 0 0 -0.74c0,-0.09 -0.01,-0.15 -0.04,-0.18 -0.03,-0.03 -0.08,-0.05 -0.16,-0.05l-0.28 -0.01 0 -0.26 1.47 0 0 0.26 -0.28 0.01c-0.08,0 -0.14,0.02 -0.16,0.05 -0.03,0.03 -0.04,0.09 -0.04,0.18l0 0.74 0.13 0c0.18,0 0.32,-0.03 0.41,-0.1 0.09,-0.07 0.16,-0.19 0.19,-0.36 0.01,-0.05 0.02,-0.11 0.04,-0.2 0.09,-0.46 0.28,-0.69 0.58,-0.69 0.16,0 0.28,0.04 0.38,0.13 0.1,0.08 0.15,0.19 0.15,0.33 0,0.1 -0.03,0.19 -0.09,0.25 -0.06,0.06 -0.13,0.09 -0.23,0.09 -0.09,0 -0.16,-0.02 -0.21,-0.07 -0.05,-0.04 -0.07,-0.11 -0.07,-0.18 0,-0.05 0.02,-0.11 0.06,-0.16 0.04,-0.06 0.06,-0.09 0.06,-0.1 0,-0.02 -0.01,-0.03 -0.03,-0.04 -0.02,-0.01 -0.04,-0.02 -0.06,-0.02 -0.13,0 -0.22,0.15 -0.28,0.45 -0,0.02 -0.01,0.03 -0.01,0.03l-0 0.01c-0.07,0.39 -0.2,0.62 -0.38,0.71 0.18,0.03 0.32,0.08 0.42,0.16 0.1,0.08 0.17,0.19 0.22,0.35 0.03,0.1 0.06,0.23 0.08,0.41 0.04,0.26 0.11,0.39 0.21,0.39 0.06,0 0.11,-0.03 0.13,-0.08 0.03,-0.05 0.04,-0.13 0.04,-0.24l0 -0.07 0.19 0 0 0.09c0,0.21 -0.04,0.37 -0.13,0.47 -0.09,0.11 -0.22,0.16 -0.4,0.16 -0.31,0 -0.5,-0.25 -0.57,-0.75 -0.01,-0.09 -0.02,-0.16 -0.03,-0.21 -0.03,-0.2 -0.09,-0.34 -0.16,-0.41 -0.08,-0.07 -0.2,-0.11 -0.38,-0.11l-0.06 0 -0.19 0 0 0.88c0,0.09 0.01,0.15 0.04,0.18 0.03,0.03 0.08,0.04 0.16,0.05l0.28 0.01 0 0.26 -1.47 0z"/>
   <g>
    <path class="fil1" d="M3.47 0c0.17,0 0.32,0.14 0.32,0.32 0,0.17 -0.14,0.32 -0.32,0.32 -0.17,0 -0.32,-0.14 -0.32,-0.32 0,-0.17 0.14,-0.32 0.32,-0.32z"/>
    <path class="fil1" d="M2.42 0c0.17,0 0.32,0.14 0.32,0.32 0,0.17 -0.14,0.32 -0.32,0.32 -0.17,0 -0.32,-0.14 -0.32,-0.32 0,-0.17 0.14,-0.32 0.32,-0.32z"/>
   </g>
   <g>
    <path class="fil1" d="M9.44 1.74c0.13,0 0.24,0.11 0.24,0.24 0,0.13 -0.11,0.24 -0.24,0.24 -0.13,0 -0.24,-0.11 -0.24,-0.24 0,-0.13 0.11,-0.24 0.24,-0.24z"/>
    <path class="fil1" d="M10.43 1.74c0.13,0 0.24,0.11 0.24,0.24 0,0.13 -0.11,0.24 -0.24,0.24 -0.13,0 -0.24,-0.11 -0.24,-0.24 0,-0.13 0.11,-0.24 0.24,-0.24z"/>
   </g>
  </g>
 </g>
</svg>
