<?xml version="1.0" encoding="UTF-8"?>
<!DOCTYPE svg PUBLIC "-//W3C//DTD SVG 1.1//EN" "http://www.w3.org/Graphics/SVG/1.1/DTD/svg11.dtd">
<!-- Creator: CorelDRAW 2019 (64-Bit) -->
<svg xmlns="http://www.w3.org/2000/svg" xml:space="preserve" width="15.4503mm" height="6.113mm" version="1.1" style="shape-rendering:geometricPrecision; text-rendering:geometricPrecision; image-rendering:optimizeQuality; fill-rule:evenodd; clip-rule:evenodd"
viewBox="0 0 10.33 4.09"
 xmlns:xlink="http://www.w3.org/1999/xlink"
 xmlns:xodm="http://www.corel.com/coreldraw/odm/2003">
 <defs>
  <style type="text/css">
   <![CDATA[
    .fil0 {fill:#9C6921;fill-rule:nonzero}
   ]]>
  </style>
 </defs>
 <g id="Слой_x0020_1">
  <metadata id="CorelCorpID_0Corel-Layer"/>
  <path class="fil0" d="M0.05 0l1.41 0 1.1 3.12 1.06 -3.12 1.38 0 0 0.27 -0.37 0c-0.08,0 -0.14,0.02 -0.17,0.06 -0.04,0.04 -0.05,0.11 -0.05,0.21l0 3.01c0,0.11 0.02,0.18 0.06,0.22 0.04,0.04 0.12,0.06 0.23,0.06l0.3 0 0 0.27 -1.83 0 0 -0.27 0.34 0c0.12,0 0.2,-0.02 0.24,-0.06 0.04,-0.04 0.06,-0.11 0.06,-0.22l0 -3.19 -1.27 3.73 -0.22 0 -1.35 -3.73 0 2.83c0,0.25 0.05,0.42 0.15,0.51 0.1,0.1 0.27,0.14 0.53,0.14l0 0.24 -1.64 0 0 -0.24c0.26,-0 0.44,-0.05 0.53,-0.14 0.1,-0.09 0.14,-0.28 0.14,-0.55l0 -0.03 0 -2.58c0,-0.11 -0.02,-0.18 -0.06,-0.22 -0.04,-0.04 -0.12,-0.06 -0.24,-0.06l-0.33 0 0 -0.27zm6.75 4.09l0 -0.24 0.26 -0.01c0.08,-0 0.13,-0.02 0.16,-0.05 0.02,-0.03 0.04,-0.08 0.04,-0.16l0 -1.7c0,-0.08 -0.01,-0.14 -0.04,-0.16 -0.02,-0.03 -0.08,-0.04 -0.16,-0.05l-0.26 -0.01 0 -0.24 1.04 0 0.72 1.95 0.69 -1.95 1.08 0 0 0.24 -0.26 0.01c-0.08,0 -0.13,0.02 -0.15,0.05 -0.02,0.03 -0.04,0.08 -0.04,0.16l0 1.7c0,0.08 0.01,0.14 0.04,0.16 0.02,0.03 0.08,0.04 0.16,0.05l0.26 0.01 0 0.24 -1.39 0 0 -0.24 0.26 -0.01c0.08,-0 0.13,-0.02 0.16,-0.05 0.03,-0.03 0.04,-0.08 0.04,-0.16l0 -1.9 -0.85 2.36 -0.2 0 -0.89 -2.36 0 1.9c0,0.08 0.01,0.14 0.04,0.16 0.02,0.03 0.08,0.04 0.16,0.05l0.26 0.01 0 0.24 -1.11 0z"/>
 </g>
</svg>
