<?xml version="1.0" encoding="UTF-8"?>
<!DOCTYPE svg PUBLIC "-//W3C//DTD SVG 1.1//EN" "http://www.w3.org/Graphics/SVG/1.1/DTD/svg11.dtd">
<!-- Creator: CorelDRAW 2019 (64-Bit) -->
<svg xmlns="http://www.w3.org/2000/svg" xml:space="preserve" width="4.8091mm" height="3.9201mm" version="1.1" style="shape-rendering:geometricPrecision; text-rendering:geometricPrecision; image-rendering:optimizeQuality; fill-rule:evenodd; clip-rule:evenodd"
viewBox="0 0 1 0.81"
 xmlns:xlink="http://www.w3.org/1999/xlink"
 xmlns:xodm="http://www.corel.com/coreldraw/odm/2003">
 <defs>
  <style type="text/css">
   <![CDATA[
    .fil0 {fill:#9C6921;fill-rule:nonzero}
   ]]>
  </style>
 </defs>
 <g id="Слой_x0020_1">
  <metadata id="CorelCorpID_0Corel-Layer"/>
  <path class="fil0" d="M0.49 0.41l0 0.27c0,0.03 0,0.04 0.01,0.05 0.01,0.01 0.02,0.01 0.05,0.01l0.07 0c0.07,0 0.12,-0.01 0.16,-0.04 0.03,-0.02 0.05,-0.06 0.05,-0.12 0,-0.06 -0.02,-0.11 -0.05,-0.14 -0.04,-0.03 -0.1,-0.04 -0.19,-0.04l-0.08 0zm0 -0.07l0.17 0c0.11,0 0.19,0.02 0.25,0.06 0.06,0.04 0.09,0.1 0.09,0.17 0,0.08 -0.03,0.14 -0.08,0.18 -0.05,0.04 -0.13,0.06 -0.23,0.06l-0.5 0 0 -0.07 0.08 -0c0.02,-0 0.04,-0.01 0.05,-0.01 0.01,-0.01 0.01,-0.03 0.01,-0.05l0 -0.53c0,-0.03 -0.01,-0.05 -0.02,-0.06 -0.01,-0.01 -0.04,-0.01 -0.07,-0.01 -0.05,0 -0.09,0.02 -0.13,0.05 -0.03,0.03 -0.05,0.08 -0.06,0.15l-0.06 0 0 -0.28 0.63 0 0 0.07 -0.08 0c-0.02,0 -0.04,0.01 -0.05,0.01 -0.01,0.01 -0.01,0.03 -0.01,0.05l0 0.19z"/>
 </g>
</svg>
