<?xml version="1.0" encoding="UTF-8"?>
<!DOCTYPE svg PUBLIC "-//W3C//DTD SVG 1.1//EN" "http://www.w3.org/Graphics/SVG/1.1/DTD/svg11.dtd">
<!-- Creator: CorelDRAW 2019 (64-Bit) -->
<svg xmlns="http://www.w3.org/2000/svg" xml:space="preserve" width="13.2165mm" height="6.2739mm" version="1.1" style="shape-rendering:geometricPrecision; text-rendering:geometricPrecision; image-rendering:optimizeQuality; fill-rule:evenodd; clip-rule:evenodd"
viewBox="0 0 7.55 3.58"
 xmlns:xlink="http://www.w3.org/1999/xlink"
 xmlns:xodm="http://www.corel.com/coreldraw/odm/2003">
 <defs>
  <style type="text/css">
   <![CDATA[
    .fil0 {fill:#9C6921;fill-rule:nonzero}
   ]]>
  </style>
 </defs>
 <g id="Слой_x0020_1">
  <metadata id="CorelCorpID_0Corel-Layer"/>
  <path class="fil0" d="M3.5 0l0 0.23 -0.31 0c-0.07,0 -0.12,0.02 -0.15,0.05 -0.03,0.04 -0.05,0.1 -0.05,0.18l0 2.57c0,0.09 0.02,0.15 0.05,0.18 0.03,0.03 0.1,0.05 0.2,0.05l0.25 0 0 0.23 -1.55 0 0 -0.23 0.26 0c0.1,0 0.17,-0.02 0.2,-0.05 0.04,-0.03 0.05,-0.1 0.05,-0.18l0 -2.8 -0.53 0c-0.14,0 -0.23,0.02 -0.29,0.05 -0.06,0.04 -0.1,0.1 -0.12,0.2 -0.01,0.04 -0.02,0.24 -0.04,0.58 -0.02,0.34 -0.04,0.66 -0.06,0.96 -0.05,0.6 -0.14,1.01 -0.26,1.23 -0.13,0.22 -0.32,0.34 -0.58,0.34 -0.18,0 -0.32,-0.06 -0.42,-0.17 -0.1,-0.11 -0.16,-0.27 -0.16,-0.48 0,-0.16 0.04,-0.29 0.12,-0.39 0.08,-0.1 0.19,-0.15 0.31,-0.15 0.09,0 0.17,0.03 0.24,0.1 0.06,0.06 0.1,0.14 0.1,0.24 0,0.08 -0.02,0.14 -0.05,0.19 -0.03,0.05 -0.08,0.08 -0.15,0.1 -0.02,0 -0.04,0.01 -0.07,0.02 -0.09,0.02 -0.14,0.06 -0.14,0.11 0,0.06 0.02,0.11 0.07,0.15 0.05,0.04 0.1,0.06 0.17,0.06 0.13,0 0.23,-0.06 0.31,-0.17 0.08,-0.11 0.14,-0.29 0.18,-0.54 0.02,-0.1 0.03,-0.24 0.05,-0.4 0.02,-0.17 0.03,-0.36 0.05,-0.57 0.02,-0.23 0.03,-0.44 0.04,-0.63 0.01,-0.19 0.01,-0.32 0.01,-0.39 0,-0.17 -0.02,-0.28 -0.07,-0.34 -0.05,-0.06 -0.14,-0.08 -0.27,-0.08l-0.16 0 0 -0.23 2.77 0zm4.05 1.25l0 0.21 -0.22 0c-0.07,0 -0.11,0.02 -0.13,0.04 -0.02,0.02 -0.03,0.07 -0.03,0.14l0 1.46c0,0.07 0.01,0.12 0.03,0.14 0.02,0.02 0.07,0.04 0.14,0.04l0.22 0.01 0 0.2 -1.21 0 0 -0.2 0.22 -0.01c0.07,-0 0.11,-0.02 0.13,-0.04 0.02,-0.02 0.03,-0.07 0.03,-0.14l0 -1.64 -0.28 0c-0.25,0 -0.38,0.22 -0.41,0.65 -0.01,0.2 -0.02,0.37 -0.04,0.5 -0.03,0.35 -0.09,0.6 -0.18,0.73 -0.08,0.13 -0.21,0.2 -0.39,0.2 -0.11,0 -0.2,-0.03 -0.28,-0.1 -0.07,-0.07 -0.11,-0.15 -0.11,-0.24 0,-0.1 0.03,-0.18 0.07,-0.24 0.05,-0.06 0.12,-0.08 0.21,-0.08 0.07,0 0.12,0.02 0.16,0.06 0.04,0.04 0.07,0.09 0.07,0.15 0,0.06 -0.02,0.11 -0.06,0.16 -0.04,0.04 -0.06,0.07 -0.06,0.08 0,0.01 0.01,0.02 0.02,0.03 0.01,0.01 0.02,0.01 0.04,0.01 0.06,0 0.12,-0.03 0.16,-0.08 0.04,-0.06 0.08,-0.14 0.1,-0.25 0.03,-0.16 0.06,-0.36 0.08,-0.6 0.02,-0.25 0.03,-0.48 0.03,-0.7 0,-0.1 -0.02,-0.17 -0.05,-0.2 -0.03,-0.03 -0.09,-0.05 -0.18,-0.05l-0.19 -0 0 -0.21 2.1 0z"/>
 </g>
</svg>
