<?xml version="1.0" encoding="UTF-8"?>
<!DOCTYPE svg PUBLIC "-//W3C//DTD SVG 1.1//EN" "http://www.w3.org/Graphics/SVG/1.1/DTD/svg11.dtd">
<!-- Creator: CorelDRAW 2019 (64-Bit) -->
<svg xmlns="http://www.w3.org/2000/svg" xml:space="preserve" width="17.3059mm" height="6.113mm" version="1.1" style="shape-rendering:geometricPrecision; text-rendering:geometricPrecision; image-rendering:optimizeQuality; fill-rule:evenodd; clip-rule:evenodd"
viewBox="0 0 12.97 4.58"
 xmlns:xlink="http://www.w3.org/1999/xlink"
 xmlns:xodm="http://www.corel.com/coreldraw/odm/2003">
 <defs>
  <style type="text/css">
   <![CDATA[
    .fil0 {fill:#9C6921;fill-rule:nonzero}
   ]]>
  </style>
 </defs>
 <g id="Слой_x0020_1">
  <metadata id="CorelCorpID_0Corel-Layer"/>
  <path class="fil0" d="M1.34 2.33l0 1.65c0,0.12 0.02,0.2 0.07,0.24 0.05,0.04 0.14,0.06 0.28,0.06l0.45 0c0.39,0 0.67,-0.07 0.84,-0.22 0.17,-0.15 0.25,-0.39 0.25,-0.74 0,-0.35 -0.1,-0.61 -0.31,-0.76 -0.2,-0.16 -0.54,-0.23 -1.01,-0.23l-0.57 0zm2.77 -2.33l2.07 0 0 0.3 -0.42 0c-0.09,0 -0.16,0.02 -0.2,0.07 -0.04,0.05 -0.06,0.13 -0.06,0.23l0 3.37c0,0.12 0.02,0.2 0.07,0.24 0.05,0.04 0.14,0.07 0.27,0.07l0.34 0 0 0.3 -2.07 0 0 -0.3 0.34 0c0.14,0 0.23,-0.02 0.27,-0.07 0.05,-0.04 0.07,-0.12 0.07,-0.24l0 -3.37c0,-0.11 -0.02,-0.19 -0.07,-0.23 -0.04,-0.05 -0.11,-0.07 -0.21,-0.07l-0.06 0 -0.34 0 0 -0.3zm-4.11 0l2.01 0 0 0.3 -0.41 0c-0.09,0 -0.15,0.02 -0.19,0.07 -0.04,0.05 -0.06,0.13 -0.06,0.23l0 1.43 0.84 0c0.6,0 1.06,0.11 1.36,0.33 0.3,0.22 0.46,0.54 0.46,0.97 0,0.39 -0.15,0.7 -0.44,0.92 -0.29,0.22 -0.71,0.33 -1.24,0.33l-2.32 0 0 -0.3 0.33 0c0.13,0 0.22,-0.02 0.27,-0.07 0.05,-0.04 0.07,-0.12 0.07,-0.24l0 -3.37c0,-0.11 -0.02,-0.19 -0.06,-0.23 -0.04,-0.05 -0.11,-0.07 -0.21,-0.07l-0.06 0 -0.33 0 0 -0.3zm11.38 4.58l0 -0.27 0.29 -0.01c0.09,-0 0.15,-0.02 0.18,-0.05 0.03,-0.03 0.04,-0.09 0.04,-0.18l0 -1.91c0,-0.09 -0.01,-0.15 -0.04,-0.18 -0.03,-0.03 -0.09,-0.05 -0.17,-0.05l-0.29 -0.01 0 -0.27 1.59 0 0 0.27 -0.29 0.01c-0.09,0 -0.15,0.02 -0.17,0.05 -0.03,0.03 -0.04,0.09 -0.04,0.18l0 1.91c0,0.09 0.01,0.15 0.04,0.18 0.03,0.03 0.09,0.05 0.17,0.05l0.28 0.01 0 0.27 -1.59 0zm-1.95 -1.47l0 0.96c0,0.1 0.01,0.16 0.04,0.19 0.03,0.03 0.09,0.05 0.17,0.05l0.25 0c0.26,0 0.45,-0.04 0.56,-0.13 0.11,-0.09 0.17,-0.23 0.17,-0.43 0,-0.23 -0.06,-0.4 -0.19,-0.49 -0.13,-0.1 -0.36,-0.14 -0.69,-0.14l-0.31 0zm0 -0.27l0.62 0c0.4,0 0.7,0.07 0.91,0.22 0.21,0.14 0.31,0.36 0.31,0.63 0,0.29 -0.1,0.51 -0.29,0.66 -0.19,0.15 -0.47,0.22 -0.84,0.22l-1.8 0 0 -0.27 0.29 -0.01c0.09,-0 0.15,-0.02 0.18,-0.05 0.03,-0.03 0.04,-0.09 0.04,-0.18l0 -1.91c0,-0.09 -0.01,-0.15 -0.04,-0.18 -0.03,-0.03 -0.09,-0.05 -0.17,-0.05l-0.29 -0.01 0 -0.27 1.59 0 0 0.27 -0.29 0.01c-0.09,0 -0.15,0.02 -0.17,0.05 -0.03,0.03 -0.04,0.09 -0.04,0.18l0 0.69z"/>
 </g>
</svg>
