<?xml version="1.0" encoding="UTF-8"?>
<!DOCTYPE svg PUBLIC "-//W3C//DTD SVG 1.1//EN" "http://www.w3.org/Graphics/SVG/1.1/DTD/svg11.dtd">
<!-- Creator: CorelDRAW 2019 (64-Bit) -->
<svg xmlns="http://www.w3.org/2000/svg" xml:space="preserve" width="12.2851mm" height="7.8741mm" version="1.1" style="shape-rendering:geometricPrecision; text-rendering:geometricPrecision; image-rendering:optimizeQuality; fill-rule:evenodd; clip-rule:evenodd"
viewBox="0 0 6.52 4.18"
 xmlns:xlink="http://www.w3.org/1999/xlink"
 xmlns:xodm="http://www.corel.com/coreldraw/odm/2003">
 <defs>
  <style type="text/css">
   <![CDATA[
    .fil0 {fill:#9C6921;fill-rule:nonzero}
   ]]>
  </style>
 </defs>
 <g id="Слой_x0020_1">
  <metadata id="CorelCorpID_0Corel-Layer"/>
  <path class="fil0" d="M0.96 0.42l0 1.17c0.03,0.01 0.06,0.01 0.1,0.01 0.04,0 0.09,0 0.17,0 0.38,0 0.64,-0.05 0.78,-0.16 0.14,-0.11 0.21,-0.29 0.21,-0.56 0,-0.25 -0.06,-0.43 -0.17,-0.53 -0.12,-0.1 -0.32,-0.16 -0.62,-0.16l-0.24 0c-0.01,0 -0.02,0 -0.03,0 -0,0 -0.01,0 -0.01,0 -0.07,0 -0.12,0.01 -0.15,0.05 -0.03,0.03 -0.04,0.09 -0.04,0.17zm-0.96 2.82l0 -0.21 0.23 0c0.09,0 0.16,-0.02 0.19,-0.05 0.03,-0.03 0.05,-0.09 0.05,-0.17l0 -2.39c0,-0.08 -0.02,-0.13 -0.04,-0.17 -0.03,-0.03 -0.08,-0.05 -0.15,-0.05l-0.05 0 -0.23 0 0 -0.21 1.55 0c0.42,0 0.72,0.07 0.91,0.21 0.19,0.14 0.29,0.37 0.29,0.68 0,0.31 -0.11,0.53 -0.33,0.69 -0.22,0.15 -0.55,0.23 -1,0.23 -0.11,0 -0.19,-0 -0.26,-0 -0.07,-0 -0.13,-0.01 -0.19,-0.01l0 1.02c0,0.08 0.02,0.14 0.05,0.17 0.03,0.03 0.09,0.05 0.19,0.05l0.28 0 0 0.21 -1.47 0zm5.52 -0.17c0.18,0 0.32,-0.07 0.41,-0.21 0.09,-0.14 0.13,-0.36 0.13,-0.65 0,-0.3 -0.04,-0.52 -0.12,-0.66 -0.08,-0.14 -0.21,-0.21 -0.39,-0.21 -0.2,0 -0.34,0.07 -0.43,0.2 -0.09,0.13 -0.13,0.36 -0.13,0.66 0,0.3 0.04,0.52 0.13,0.66 0.09,0.14 0.22,0.2 0.41,0.2zm-1.3 0.92l0.19 -0.01c0.06,-0 0.1,-0.01 0.12,-0.04 0.02,-0.02 0.03,-0.06 0.03,-0.13l0 -2.27c0,-0.08 -0.01,-0.13 -0.04,-0.15 -0.03,-0.02 -0.09,-0.04 -0.19,-0.04l-0.05 0c0,0 -0,0 -0.01,0 -0.02,0 -0.04,0 -0.05,0l0 -0.19 0.73 -0.05 0 0.39c0.08,-0.14 0.18,-0.24 0.29,-0.31 0.11,-0.07 0.23,-0.1 0.37,-0.1 0.26,0 0.48,0.1 0.65,0.31 0.17,0.21 0.26,0.48 0.26,0.8 0,0.32 -0.09,0.59 -0.26,0.8 -0.18,0.21 -0.39,0.32 -0.65,0.32 -0.14,0 -0.26,-0.03 -0.35,-0.08 -0.1,-0.05 -0.19,-0.13 -0.27,-0.25l0 0.82c0,0.06 0.01,0.11 0.03,0.13 0.02,0.02 0.06,0.03 0.12,0.04l0.19 0.01 0 0.19 -1.1 0 0 -0.19z"/>
 </g>
</svg>
