<?xml version="1.0" encoding="UTF-8"?>
<!DOCTYPE svg PUBLIC "-//W3C//DTD SVG 1.1//EN" "http://www.w3.org/Graphics/SVG/1.1/DTD/svg11.dtd">
<!-- Creator: CorelDRAW 2019 (64-Bit) -->
<svg xmlns="http://www.w3.org/2000/svg" xml:space="preserve" width="13.9447mm" height="8.0349mm" version="1.1" style="shape-rendering:geometricPrecision; text-rendering:geometricPrecision; image-rendering:optimizeQuality; fill-rule:evenodd; clip-rule:evenodd"
viewBox="0 0 8.41 4.84"
 xmlns:xlink="http://www.w3.org/1999/xlink"
 xmlns:xodm="http://www.corel.com/coreldraw/odm/2003">
 <defs>
  <style type="text/css">
   <![CDATA[
    .fil0 {fill:#9C6921;fill-rule:nonzero}
   ]]>
  </style>
 </defs>
 <g id="Слой_x0020_1">
  <metadata id="CorelCorpID_0Corel-Layer"/>
  <path class="fil0" d="M1.54 0.44c0.05,0.04 0.11,0.06 0.18,0.08 0.07,0.02 0.15,0.02 0.24,0.02 0.09,0 0.18,-0.01 0.25,-0.03 0.07,-0.02 0.13,-0.04 0.19,-0.08 -0.05,-0.02 -0.09,-0.05 -0.11,-0.08 -0.02,-0.04 -0.04,-0.08 -0.04,-0.13 0,-0.06 0.02,-0.11 0.07,-0.16 0.05,-0.05 0.1,-0.07 0.16,-0.07 0.06,0 0.12,0.02 0.16,0.07 0.04,0.05 0.07,0.11 0.07,0.18 0,0.13 -0.07,0.24 -0.21,0.32 -0.14,0.08 -0.32,0.13 -0.54,0.13 -0.21,0 -0.39,-0.04 -0.53,-0.13 -0.14,-0.09 -0.21,-0.19 -0.21,-0.31 0,-0.07 0.02,-0.13 0.07,-0.18 0.05,-0.05 0.1,-0.08 0.16,-0.08 0.06,0 0.11,0.02 0.16,0.07 0.05,0.05 0.07,0.1 0.07,0.16 0,0.05 -0.01,0.09 -0.03,0.12 -0.02,0.03 -0.05,0.06 -0.09,0.08zm-0.45 3.92c0,0.09 0.02,0.16 0.05,0.19 0.04,0.03 0.11,0.05 0.21,0.05l0.27 0 0 0.24 -1.63 0 0 -0.24 0.26 0c0.11,0 0.18,-0.02 0.22,-0.05 0.04,-0.03 0.06,-0.1 0.06,-0.19l0 -2.71c0,-0.09 -0.02,-0.15 -0.05,-0.19 -0.03,-0.04 -0.09,-0.06 -0.17,-0.06l-0.05 0 -0.26 0 0 -0.24 1.63 0 0 0.24 -0.33 0c-0.07,0 -0.12,0.02 -0.16,0.06 -0.03,0.04 -0.05,0.1 -0.05,0.19l0 2.05 1.73 -1.88 0 -0.17c0,-0.09 -0.02,-0.15 -0.05,-0.19 -0.03,-0.04 -0.09,-0.06 -0.17,-0.06l-0.05 0 -0.27 0 0 -0.24 1.63 0 0 0.24 -0.33 0c-0.07,0 -0.12,0.02 -0.16,0.06 -0.03,0.04 -0.05,0.1 -0.05,0.19l0 2.71c0,0.09 0.02,0.16 0.06,0.19 0.04,0.03 0.11,0.05 0.22,0.05l0.27 0 0 0.24 -1.63 0 0 -0.24 0.27 0c0.11,0 0.18,-0.02 0.21,-0.05 0.04,-0.03 0.06,-0.1 0.06,-0.19l0 -2.08 -1.73 1.87 0 0.21zm5.51 -2.58c0.05,0.04 0.11,0.06 0.18,0.08 0.06,0.02 0.14,0.02 0.24,0.02 0.09,0 0.18,-0.01 0.25,-0.02 0.07,-0.02 0.13,-0.04 0.19,-0.08 -0.05,-0.02 -0.09,-0.04 -0.11,-0.08 -0.02,-0.03 -0.04,-0.08 -0.04,-0.13 0,-0.06 0.02,-0.12 0.07,-0.16 0.05,-0.05 0.1,-0.07 0.16,-0.07 0.06,0 0.12,0.02 0.16,0.07 0.04,0.05 0.07,0.11 0.07,0.18 0,0.13 -0.07,0.24 -0.21,0.32 -0.14,0.09 -0.32,0.13 -0.54,0.13 -0.22,0 -0.4,-0.04 -0.54,-0.13 -0.14,-0.09 -0.21,-0.19 -0.21,-0.32 0,-0.07 0.02,-0.13 0.07,-0.18 0.05,-0.05 0.1,-0.08 0.17,-0.08 0.06,0 0.11,0.02 0.16,0.07 0.05,0.05 0.07,0.1 0.07,0.16 0,0.05 -0.01,0.09 -0.03,0.12 -0.02,0.03 -0.05,0.06 -0.1,0.09zm0.93 1.12c0,-0.07 -0.01,-0.12 -0.03,-0.15 -0.02,-0.02 -0.07,-0.04 -0.14,-0.04l-0.24 -0.01 0 -0.21 1.28 0 0 0.21 -0.23 0.01c-0.07,0 -0.12,0.02 -0.14,0.04 -0.02,0.02 -0.03,0.07 -0.03,0.15l0 1.54c0,0.07 0.01,0.12 0.03,0.15 0.02,0.02 0.07,0.04 0.14,0.04l0.23 0.01 0 0.21 -1.28 0 0 -0.21 0.23 -0.01c0.07,-0 0.12,-0.02 0.14,-0.04 0.02,-0.02 0.03,-0.07 0.03,-0.15l0 -1.15 -1.06 1.1 0 0.06c0,0.07 0.01,0.11 0.03,0.13 0.02,0.02 0.07,0.04 0.14,0.04l0.23 0.01 0 0.21 -1.28 0 0 -0.21 0.23 -0.01c0.07,-0 0.12,-0.02 0.14,-0.04 0.02,-0.02 0.03,-0.07 0.03,-0.15l0 -1.54c0,-0.08 -0.01,-0.13 -0.03,-0.15 -0.02,-0.02 -0.07,-0.04 -0.13,-0.04l-0.24 -0.01 0 -0.21 1.28 0 0 0.21 -0.23 0.01c-0.07,0 -0.12,0.02 -0.14,0.04 -0.02,0.02 -0.03,0.07 -0.03,0.15l0 1.16 1.06 -1.1 0 -0.07z"/>
 </g>
</svg>
