<?xml version="1.0" encoding="UTF-8"?>
<!DOCTYPE svg PUBLIC "-//W3C//DTD SVG 1.1//EN" "http://www.w3.org/Graphics/SVG/1.1/DTD/svg11.dtd">
<!-- Creator: CorelDRAW 2019 (64-Bit) -->
<svg xmlns="http://www.w3.org/2000/svg" xml:space="preserve" width="13.0966mm" height="7.7979mm" version="1.1" style="shape-rendering:geometricPrecision; text-rendering:geometricPrecision; image-rendering:optimizeQuality; fill-rule:evenodd; clip-rule:evenodd"
viewBox="0 0 7.41 4.41"
 xmlns:xlink="http://www.w3.org/1999/xlink"
 xmlns:xodm="http://www.corel.com/coreldraw/odm/2003">
 <defs>
  <style type="text/css">
   <![CDATA[
    .fil0 {fill:#9C6921;fill-rule:nonzero}
   ]]>
  </style>
 </defs>
 <g id="Слой_x0020_1">
  <metadata id="CorelCorpID_0Corel-Layer"/>
  <path class="fil0" d="M1.35 0.23c-0.02,0.7 -0.07,1.29 -0.16,1.77 -0.09,0.48 -0.23,0.89 -0.41,1.23l1.43 0 0 -3.01 -0.86 0zm-0.79 -0.23l2.68 0 0 0.23 -0.31 0c-0.07,0 -0.12,0.02 -0.15,0.06 -0.03,0.04 -0.05,0.1 -0.05,0.17l0 2.78 0.51 0 0 1.18 -0.18 0c-0.02,-0.36 -0.1,-0.6 -0.23,-0.74 -0.13,-0.14 -0.35,-0.21 -0.67,-0.21l-1.08 0c-0.31,0 -0.53,0.07 -0.67,0.21 -0.13,0.14 -0.21,0.39 -0.24,0.74l-0.18 0 0 -1.18 0.49 0c0.18,-0.29 0.32,-0.66 0.43,-1.11 0.1,-0.45 0.16,-0.92 0.16,-1.41 0,-0.21 -0.02,-0.35 -0.07,-0.41 -0.05,-0.06 -0.14,-0.09 -0.27,-0.09l-0.17 0 0 -0.23zm5.04 3.26l0.99 0 0 -1.81 -0.24 0c-0.14,0 -0.24,0.03 -0.29,0.08 -0.05,0.05 -0.09,0.2 -0.12,0.45 -0.03,0.3 -0.08,0.55 -0.13,0.76 -0.06,0.21 -0.13,0.38 -0.21,0.53zm1.81 -2.02l0 0.21 -0.22 0c-0.07,0 -0.11,0.02 -0.13,0.04 -0.02,0.02 -0.03,0.07 -0.03,0.14l0 1.44c0,0.07 0.01,0.12 0.03,0.14 0.02,0.02 0.06,0.03 0.13,0.04l0.22 0.01 0 0.86 -0.18 0c-0.03,-0.26 -0.09,-0.43 -0.18,-0.52 -0.1,-0.09 -0.33,-0.14 -0.69,-0.14l-0.34 0c-0.32,0 -0.53,0.05 -0.62,0.14 -0.09,0.09 -0.15,0.26 -0.18,0.52l-0.18 0 0 -0.86 0.06 0c0.12,0 0.21,-0.02 0.27,-0.07 0.06,-0.05 0.12,-0.14 0.18,-0.26 0.06,-0.15 0.12,-0.34 0.17,-0.57 0.05,-0.23 0.07,-0.44 0.07,-0.62 0,-0.11 -0.01,-0.19 -0.04,-0.22 -0.03,-0.03 -0.09,-0.05 -0.19,-0.06l-0.19 -0 0 -0.21 2.05 0z"/>
 </g>
</svg>
