<?xml version="1.0" encoding="UTF-8"?>
<!DOCTYPE svg PUBLIC "-//W3C//DTD SVG 1.1//EN" "http://www.w3.org/Graphics/SVG/1.1/DTD/svg11.dtd">
<!-- Creator: CorelDRAW 2019 (64-Bit) -->
<svg xmlns="http://www.w3.org/2000/svg" xml:space="preserve" width="12.3543mm" height="7.8741mm" version="1.1" style="shape-rendering:geometricPrecision; text-rendering:geometricPrecision; image-rendering:optimizeQuality; fill-rule:evenodd; clip-rule:evenodd"
viewBox="0 0 6.59 4.2"
 xmlns:xlink="http://www.w3.org/1999/xlink"
 xmlns:xodm="http://www.corel.com/coreldraw/odm/2003">
 <defs>
  <style type="text/css">
   <![CDATA[
    .fil0 {fill:#9C6921;fill-rule:nonzero}
   ]]>
  </style>
 </defs>
 <g id="Слой_x0020_1">
  <metadata id="CorelCorpID_0Corel-Layer"/>
  <path class="fil0" d="M0.47 0.46c-0.04,-0.09 -0.08,-0.16 -0.13,-0.19 -0.05,-0.03 -0.11,-0.05 -0.19,-0.05 -0,0 -0,-0 -0.01,-0 -0.01,-0 -0.03,-0 -0.04,-0l-0.1 0 0 -0.21 1.35 0 0 0.21 -0.17 0c-0.01,0 -0.02,0 -0.03,0 -0.01,0 -0.02,0 -0.03,0 -0.07,0 -0.13,0.01 -0.16,0.02 -0.03,0.02 -0.05,0.04 -0.05,0.08 0,0.03 0.02,0.07 0.05,0.13 0.01,0.03 0.02,0.05 0.03,0.06l0.68 1.54 0.58 -1.35c0.02,-0.04 0.03,-0.08 0.04,-0.13 0.01,-0.05 0.02,-0.1 0.02,-0.14 0,-0.08 -0.03,-0.13 -0.08,-0.17 -0.05,-0.04 -0.13,-0.06 -0.24,-0.06l-0.13 0 0 -0.21 1.18 0 0 0.21c-0.01,0 -0.02,0 -0.04,0 -0.02,0 -0.03,0 -0.03,0 -0.17,0 -0.3,0.12 -0.4,0.35 -0.01,0.01 -0.01,0.02 -0.02,0.03l-0.7 1.65c-0.2,0.46 -0.36,0.76 -0.5,0.89 -0.14,0.14 -0.32,0.2 -0.52,0.2 -0.21,0 -0.38,-0.07 -0.51,-0.2 -0.13,-0.13 -0.2,-0.3 -0.2,-0.5 0,-0.14 0.04,-0.26 0.11,-0.34 0.07,-0.09 0.17,-0.13 0.29,-0.13 0.1,0 0.18,0.03 0.24,0.09 0.06,0.06 0.09,0.14 0.09,0.24 0,0.1 -0.05,0.19 -0.14,0.26 -0.1,0.07 -0.14,0.14 -0.14,0.19 0,0.05 0.03,0.1 0.08,0.13 0.05,0.03 0.13,0.05 0.22,0.05 0.11,0 0.22,-0.04 0.31,-0.13 0.1,-0.09 0.18,-0.22 0.25,-0.39l-0.94 -2.14zm4.87 2.75l-0.72 -1.65c-0.03,-0.07 -0.07,-0.12 -0.12,-0.15 -0.05,-0.03 -0.12,-0.04 -0.2,-0.04l-0.03 0 0 -0.19 1.05 0 0 0.19 -0.12 0 -0.06 0c-0.04,0 -0.06,0.01 -0.08,0.02 -0.02,0.02 -0.03,0.04 -0.03,0.07 0,0.01 0,0.03 0.01,0.06 0.01,0.03 0.02,0.05 0.03,0.08l0.48 1.1 0.45 -1.08c0.01,-0.02 0.01,-0.03 0.02,-0.05 0,-0.02 0.01,-0.04 0.01,-0.05 0,-0.06 -0.02,-0.1 -0.06,-0.12 -0.04,-0.02 -0.13,-0.03 -0.26,-0.04l-0 -0.19 0.87 0 0 0.19c-0.08,0 -0.15,0.02 -0.2,0.06 -0.05,0.04 -0.1,0.1 -0.14,0.19l-0.76 1.78c-0.13,0.3 -0.26,0.51 -0.4,0.63 -0.14,0.13 -0.3,0.19 -0.48,0.19 -0.13,0 -0.23,-0.03 -0.31,-0.09 -0.07,-0.06 -0.11,-0.15 -0.11,-0.25 0,-0.07 0.03,-0.14 0.08,-0.19 0.05,-0.05 0.12,-0.08 0.19,-0.08 0.07,0 0.13,0.02 0.17,0.06 0.04,0.04 0.06,0.1 0.06,0.17 0,0.02 -0.01,0.05 -0.02,0.07 -0.01,0.02 -0.02,0.04 -0.02,0.04 0,0.02 0.01,0.03 0.02,0.04 0.01,0.01 0.03,0.01 0.06,0.01 0.08,0 0.17,-0.06 0.28,-0.2 0.1,-0.13 0.2,-0.3 0.29,-0.51l0.03 -0.07z"/>
 </g>
</svg>
