<?xml version="1.0" encoding="UTF-8"?>
<!DOCTYPE svg PUBLIC "-//W3C//DTD SVG 1.1//EN" "http://www.w3.org/Graphics/SVG/1.1/DTD/svg11.dtd">
<!-- Creator: CorelDRAW 2019 (64-Bit) -->
<svg xmlns="http://www.w3.org/2000/svg" xml:space="preserve" width="12.566mm" height="6.4347mm" version="1.1" style="shape-rendering:geometricPrecision; text-rendering:geometricPrecision; image-rendering:optimizeQuality; fill-rule:evenodd; clip-rule:evenodd"
viewBox="0 0 6.82 3.49"
 xmlns:xlink="http://www.w3.org/1999/xlink"
 xmlns:xodm="http://www.corel.com/coreldraw/odm/2003">
 <defs>
  <style type="text/css">
   <![CDATA[
    .fil0 {fill:#9C6921;fill-rule:nonzero}
   ]]>
  </style>
 </defs>
 <g id="Слой_x0020_1">
  <metadata id="CorelCorpID_0Corel-Layer"/>
  <path class="fil0" d="M1.65 1.62c0.2,0.03 0.35,0.09 0.46,0.17 0.11,0.09 0.19,0.22 0.25,0.4 0.03,0.11 0.07,0.27 0.1,0.47 0.05,0.32 0.13,0.47 0.25,0.47 0.07,0 0.12,-0.04 0.15,-0.11 0.03,-0.07 0.05,-0.2 0.06,-0.37l0.18 -0 0 0.11c0,0.24 -0.05,0.41 -0.14,0.54 -0.09,0.12 -0.23,0.19 -0.41,0.19 -0.33,0 -0.53,-0.3 -0.61,-0.91 -0.01,-0.09 -0.02,-0.17 -0.03,-0.21 -0.03,-0.23 -0.1,-0.38 -0.18,-0.47 -0.09,-0.08 -0.23,-0.12 -0.42,-0.12l-0.06 0 -0.25 0 0 1.18c0,0.09 0.02,0.14 0.05,0.18 0.03,0.03 0.1,0.05 0.19,0.05l0.24 0 0 0.22 -1.47 0 0 -0.22 0.24 0c0.1,0 0.16,-0.02 0.19,-0.05 0.03,-0.03 0.05,-0.09 0.05,-0.18l0 -2.44c0,-0.08 -0.02,-0.14 -0.05,-0.17 -0.03,-0.03 -0.08,-0.05 -0.15,-0.05l-0.05 0 -0.24 0 0 -0.22 1.47 0 0 0.22 -0.3 0c-0.06,0 -0.11,0.02 -0.14,0.05 -0.03,0.03 -0.04,0.09 -0.04,0.17l0 1.04 0.18 0c0.21,0 0.36,-0.04 0.46,-0.12 0.1,-0.08 0.17,-0.22 0.22,-0.42 0.02,-0.07 0.03,-0.17 0.05,-0.3 0.03,-0.22 0.07,-0.36 0.1,-0.43 0.05,-0.09 0.11,-0.16 0.2,-0.21 0.09,-0.05 0.19,-0.08 0.3,-0.08 0.16,0 0.28,0.04 0.38,0.13 0.1,0.09 0.15,0.2 0.15,0.34 0,0.09 -0.03,0.17 -0.09,0.23 -0.06,0.06 -0.13,0.09 -0.22,0.09 -0.09,0 -0.17,-0.02 -0.23,-0.07 -0.06,-0.05 -0.09,-0.11 -0.09,-0.18 0,-0.06 0.02,-0.12 0.06,-0.17 0.04,-0.06 0.06,-0.09 0.06,-0.1 0,-0.02 -0.01,-0.03 -0.02,-0.04 -0.02,-0.01 -0.04,-0.01 -0.07,-0.01 -0.14,0 -0.24,0.16 -0.3,0.49 -0.01,0.06 -0.02,0.1 -0.02,0.13 -0.05,0.28 -0.11,0.47 -0.18,0.57 -0.06,0.1 -0.16,0.17 -0.28,0.21zm2.9 1.79l0 -0.19 0.21 -0.01c0.06,-0 0.11,-0.02 0.13,-0.04 0.02,-0.02 0.03,-0.07 0.03,-0.13l0 -1.38c0,-0.07 -0.01,-0.11 -0.03,-0.13 -0.02,-0.02 -0.06,-0.03 -0.12,-0.04l-0.21 -0.01 0 -0.19 1.15 0 0 0.19 -0.21 0.01c-0.06,0 -0.11,0.02 -0.13,0.04 -0.02,0.02 -0.03,0.07 -0.03,0.13l0 0.55 0.14 0c0.14,0 0.24,-0.03 0.31,-0.08 0.07,-0.05 0.12,-0.14 0.14,-0.27 0.01,-0.04 0.02,-0.09 0.03,-0.16 0.07,-0.34 0.21,-0.52 0.44,-0.52 0.12,0 0.21,0.03 0.28,0.09 0.07,0.06 0.11,0.14 0.11,0.25 0,0.08 -0.02,0.14 -0.07,0.19 -0.04,0.05 -0.1,0.07 -0.17,0.07 -0.07,0 -0.12,-0.02 -0.16,-0.05 -0.04,-0.03 -0.06,-0.08 -0.06,-0.14 0,-0.04 0.01,-0.08 0.04,-0.12 0.03,-0.04 0.04,-0.07 0.04,-0.07 0,-0.01 -0.01,-0.02 -0.02,-0.03 -0.01,-0.01 -0.03,-0.01 -0.05,-0.01 -0.1,0 -0.17,0.12 -0.22,0.35l0 0 -0 0.01c-0.05,0.29 -0.15,0.47 -0.29,0.53 0.14,0.02 0.24,0.06 0.31,0.12 0.07,0.06 0.13,0.14 0.16,0.26 0.02,0.07 0.04,0.17 0.06,0.3 0.03,0.2 0.09,0.3 0.16,0.3 0.05,0 0.08,-0.02 0.1,-0.06 0.02,-0.04 0.03,-0.1 0.03,-0.18l0 -0.05 0.14 0c0,0.02 0,0.03 0,0.05 0,0.02 0,0.02 0,0.02 0,0.16 -0.03,0.28 -0.1,0.35 -0.07,0.08 -0.16,0.12 -0.3,0.12 -0.24,0 -0.38,-0.19 -0.43,-0.57 -0.01,-0.06 -0.02,-0.11 -0.02,-0.15 -0.02,-0.15 -0.06,-0.26 -0.12,-0.31 -0.06,-0.05 -0.15,-0.08 -0.28,-0.08l-0.04 0 -0.19 0 0 0.66c0,0.07 0.01,0.11 0.03,0.13 0.02,0.02 0.06,0.03 0.13,0.04l0.21 0.01 0 0.19 -1.15 0z"/>
 </g>
</svg>
