<?xml version="1.0" encoding="UTF-8"?>
<!DOCTYPE svg PUBLIC "-//W3C//DTD SVG 1.1//EN" "http://www.w3.org/Graphics/SVG/1.1/DTD/svg11.dtd">
<!-- Creator: CorelDRAW 2019 (64-Bit) -->
<svg xmlns="http://www.w3.org/2000/svg" xml:space="preserve" width="11.3947mm" height="6.4008mm" version="1.1" style="shape-rendering:geometricPrecision; text-rendering:geometricPrecision; image-rendering:optimizeQuality; fill-rule:evenodd; clip-rule:evenodd"
viewBox="0 0 5.61 3.15"
 xmlns:xlink="http://www.w3.org/1999/xlink"
 xmlns:xodm="http://www.corel.com/coreldraw/odm/2003">
 <defs>
  <style type="text/css">
   <![CDATA[
    .fil0 {fill:#9C6921;fill-rule:nonzero}
   ]]>
  </style>
 </defs>
 <g id="Слой_x0020_1">
  <metadata id="CorelCorpID_0Corel-Layer"/>
  <path class="fil0" d="M1.93 1.59l-1.16 0 0 -0.21 1.15 0c-0.01,-0.38 -0.09,-0.68 -0.22,-0.89 -0.14,-0.21 -0.32,-0.31 -0.56,-0.31 -0.22,0 -0.4,0.09 -0.56,0.27 -0.16,0.18 -0.25,0.43 -0.29,0.73l-0.19 0 0.03 -1.17 0.16 0 0.16 0.25c0.11,-0.09 0.22,-0.16 0.34,-0.2 0.12,-0.04 0.24,-0.07 0.37,-0.07 0.37,0 0.68,0.15 0.93,0.45 0.25,0.3 0.38,0.67 0.38,1.11 0,0.48 -0.13,0.86 -0.4,1.15 -0.27,0.29 -0.62,0.44 -1.05,0.44 -0.31,0 -0.55,-0.07 -0.74,-0.2 -0.18,-0.14 -0.28,-0.32 -0.28,-0.55 0,-0.13 0.03,-0.23 0.1,-0.32 0.07,-0.08 0.16,-0.12 0.26,-0.12 0.09,0 0.16,0.02 0.21,0.07 0.05,0.05 0.07,0.11 0.07,0.19 0,0.06 -0.02,0.11 -0.05,0.15 -0.03,0.04 -0.07,0.07 -0.13,0.09 -0.02,0 -0.03,0.01 -0.06,0.01 -0.09,0.02 -0.13,0.06 -0.13,0.11 0,0.1 0.07,0.18 0.21,0.26 0.14,0.07 0.31,0.11 0.5,0.11 0.3,0 0.53,-0.11 0.69,-0.32 0.16,-0.21 0.24,-0.53 0.24,-0.93l0 -0.1zm3.25 0.55l-0.67 -0 0 -0.16 0.66 0c0,-0.22 -0.05,-0.4 -0.14,-0.53 -0.09,-0.13 -0.21,-0.2 -0.36,-0.2 -0.13,0 -0.24,0.05 -0.34,0.14 -0.09,0.09 -0.16,0.23 -0.19,0.4l-0.15 0 0 -0.7 0.11 0 0.11 0.17c0.08,-0.06 0.15,-0.1 0.23,-0.13 0.07,-0.03 0.15,-0.04 0.23,-0.04 0.27,0 0.5,0.1 0.67,0.29 0.17,0.2 0.26,0.45 0.26,0.76 0,0.31 -0.09,0.55 -0.26,0.73 -0.17,0.18 -0.41,0.27 -0.71,0.27 -0.21,0 -0.39,-0.05 -0.52,-0.14 -0.13,-0.09 -0.2,-0.21 -0.2,-0.35 0,-0.09 0.03,-0.17 0.08,-0.22 0.05,-0.06 0.11,-0.09 0.19,-0.09 0.07,0 0.13,0.02 0.17,0.06 0.04,0.04 0.06,0.09 0.06,0.16 0,0.08 -0.03,0.14 -0.1,0.17 -0.07,0.03 -0.1,0.05 -0.1,0.06 0,0.05 0.04,0.09 0.11,0.13 0.08,0.04 0.17,0.06 0.28,0.06 0.18,0 0.32,-0.07 0.42,-0.21 0.1,-0.14 0.15,-0.35 0.15,-0.62z"/>
 </g>
</svg>
