<?xml version="1.0" encoding="UTF-8"?>
<!DOCTYPE svg PUBLIC "-//W3C//DTD SVG 1.1//EN" "http://www.w3.org/Graphics/SVG/1.1/DTD/svg11.dtd">
<!-- Creator: CorelDRAW 2019 (64-Bit) -->
<svg xmlns="http://www.w3.org/2000/svg" xml:space="preserve" width="15.4165mm" height="8.0265mm" version="1.1" style="shape-rendering:geometricPrecision; text-rendering:geometricPrecision; image-rendering:optimizeQuality; fill-rule:evenodd; clip-rule:evenodd"
viewBox="0 0 10.28 5.35"
 xmlns:xlink="http://www.w3.org/1999/xlink"
 xmlns:xodm="http://www.corel.com/coreldraw/odm/2003">
 <defs>
  <style type="text/css">
   <![CDATA[
    .fil0 {fill:#9C6921;fill-rule:nonzero}
   ]]>
  </style>
 </defs>
 <g id="Слой_x0020_1">
  <metadata id="CorelCorpID_0Corel-Layer"/>
  <path class="fil0" d="M2.46 3.21c0.4,-0.03 0.7,-0.13 0.9,-0.31 0.19,-0.18 0.29,-0.45 0.29,-0.79 0,-0.35 -0.1,-0.61 -0.29,-0.79 -0.19,-0.18 -0.49,-0.28 -0.9,-0.31l0 2.2zm-0.56 0l0 -2.2c-0.4,0.03 -0.7,0.13 -0.9,0.31 -0.2,0.18 -0.29,0.44 -0.29,0.79 0,0.35 0.1,0.61 0.29,0.79 0.19,0.18 0.49,0.28 0.9,0.31zm-0.6 0.71l0.31 0c0.12,0 0.2,-0.02 0.24,-0.06 0.04,-0.04 0.06,-0.11 0.06,-0.22l0 -0.2c-0.61,-0.02 -1.08,-0.14 -1.41,-0.37 -0.33,-0.23 -0.49,-0.55 -0.49,-0.97 0,-0.42 0.16,-0.74 0.49,-0.97 0.33,-0.23 0.8,-0.35 1.41,-0.37l0 -0.11c0,-0.11 -0.02,-0.18 -0.06,-0.22 -0.04,-0.04 -0.1,-0.06 -0.19,-0.06l-0.05 0 -0.31 0 0 -0.27 1.77 0 0 0.27 -0.37 0c-0.08,0 -0.14,0.02 -0.18,0.06 -0.04,0.04 -0.06,0.11 -0.06,0.21l0 0.12c0.61,0.02 1.08,0.14 1.41,0.37 0.33,0.23 0.49,0.56 0.49,0.97 0,0.42 -0.16,0.74 -0.49,0.97 -0.33,0.23 -0.8,0.35 -1.41,0.37l0 0.2c0,0.1 0.02,0.18 0.06,0.21 0.04,0.04 0.12,0.06 0.24,0.06l0.3 0 0 0.27 -1.77 0 0 -0.27zm7.28 -1.03c0,0.37 0.05,0.64 0.14,0.82 0.09,0.17 0.23,0.26 0.43,0.26 0.2,0 0.34,-0.09 0.43,-0.26 0.09,-0.17 0.14,-0.45 0.14,-0.82 0,-0.39 -0.04,-0.67 -0.13,-0.83 -0.09,-0.17 -0.23,-0.25 -0.43,-0.25 -0.19,0 -0.34,0.09 -0.43,0.27 -0.09,0.18 -0.14,0.45 -0.14,0.82zm-1.65 -0.03c0,0.4 0.04,0.68 0.13,0.85 0.09,0.17 0.23,0.26 0.43,0.26 0.19,0 0.34,-0.09 0.43,-0.26 0.09,-0.17 0.14,-0.45 0.14,-0.82 0,-0.37 -0.05,-0.64 -0.14,-0.82 -0.09,-0.18 -0.24,-0.26 -0.43,-0.26 -0.2,0 -0.34,0.08 -0.43,0.25 -0.09,0.17 -0.13,0.43 -0.13,0.8zm1.15 1c-0.11,0.15 -0.22,0.26 -0.33,0.32 -0.11,0.06 -0.23,0.1 -0.38,0.1 -0.28,0 -0.52,-0.14 -0.72,-0.41 -0.2,-0.27 -0.31,-0.61 -0.31,-1.01 0,-0.4 0.09,-0.73 0.28,-0.98 0.19,-0.26 0.42,-0.39 0.7,-0.39 0.15,0 0.29,0.04 0.41,0.11 0.12,0.07 0.23,0.19 0.33,0.35l0 -1.42c0,-0.09 -0.02,-0.15 -0.06,-0.18 -0.04,-0.03 -0.12,-0.04 -0.26,-0.04l-0.09 0 -0.07 0 0 -0.22 0.97 -0.07 0 1.94c0.1,-0.15 0.21,-0.27 0.33,-0.34 0.12,-0.08 0.26,-0.11 0.41,-0.11 0.28,0 0.51,0.13 0.7,0.39 0.19,0.26 0.28,0.6 0.28,1 0,0.39 -0.1,0.72 -0.31,0.99 -0.21,0.27 -0.45,0.41 -0.72,0.41 -0.14,0 -0.27,-0.03 -0.37,-0.1 -0.11,-0.06 -0.21,-0.17 -0.32,-0.32l0 1.04c0,0.08 0.01,0.13 0.04,0.16 0.02,0.03 0.08,0.04 0.15,0.04l0.24 0.01 0 0.24 -1.36 0 0 -0.24 0.24 -0.01c0.08,-0 0.13,-0.02 0.15,-0.04 0.02,-0.03 0.03,-0.08 0.03,-0.16l0 -1.04z"/>
 </g>
</svg>
