<?xml version="1.0" encoding="UTF-8"?>
<!DOCTYPE svg PUBLIC "-//W3C//DTD SVG 1.1//EN" "http://www.w3.org/Graphics/SVG/1.1/DTD/svg11.dtd">
<!-- Creator: CorelDRAW 2019 (64-Bit) -->
<svg xmlns="http://www.w3.org/2000/svg" xml:space="preserve" width="11.9818mm" height="6.113mm" version="1.1" style="shape-rendering:geometricPrecision; text-rendering:geometricPrecision; image-rendering:optimizeQuality; fill-rule:evenodd; clip-rule:evenodd"
viewBox="0 0 6.2 3.16"
 xmlns:xlink="http://www.w3.org/1999/xlink"
 xmlns:xodm="http://www.corel.com/coreldraw/odm/2003">
 <defs>
  <style type="text/css">
   <![CDATA[
    .fil0 {fill:#9C6921;fill-rule:nonzero}
   ]]>
  </style>
 </defs>
 <g id="Слой_x0020_1">
  <metadata id="CorelCorpID_0Corel-Layer"/>
  <path class="fil0" d="M0.06 0l2.63 0 0.07 1.21 -0.17 0c-0.06,-0.4 -0.14,-0.68 -0.24,-0.83 -0.1,-0.15 -0.26,-0.22 -0.48,-0.22 -0.11,0 -0.18,0.02 -0.21,0.05 -0.03,0.03 -0.04,0.09 -0.04,0.19l0 2.35c0,0.08 0.02,0.14 0.05,0.17 0.03,0.03 0.09,0.05 0.18,0.05l0.28 0 0 0.21 -1.5 0 0 -0.21 0.28 0c0.09,0 0.15,-0.02 0.18,-0.05 0.03,-0.03 0.05,-0.09 0.05,-0.17l0 -2.35c0,-0.09 -0.01,-0.15 -0.04,-0.19 -0.03,-0.03 -0.1,-0.05 -0.22,-0.05 -0.21,0 -0.37,0.07 -0.47,0.22 -0.1,0.15 -0.18,0.42 -0.24,0.83l-0.17 0 0.06 -1.21zm4.59 3.16l0 -0.18 0.2 -0.01c0.06,-0 0.1,-0.01 0.12,-0.04 0.02,-0.02 0.03,-0.06 0.03,-0.13l0 -1.38c0,-0.04 -0.01,-0.07 -0.03,-0.09 -0.02,-0.02 -0.06,-0.03 -0.11,-0.03 -0.16,0 -0.27,0.04 -0.34,0.13 -0.07,0.09 -0.13,0.26 -0.17,0.51l-0.14 0 0.04 -0.82 1.91 0 0.04 0.82 -0.15 0c-0.05,-0.26 -0.11,-0.43 -0.17,-0.52 -0.07,-0.09 -0.18,-0.13 -0.33,-0.13 -0.05,0 -0.09,0.01 -0.11,0.03 -0.02,0.02 -0.03,0.06 -0.03,0.12l0 1.35c0,0.06 0.01,0.11 0.03,0.13 0.02,0.02 0.06,0.03 0.12,0.04l0.2 0.01 0 0.18 -1.1 0z"/>
 </g>
</svg>
