<?xml version="1.0" encoding="UTF-8"?>
<!DOCTYPE svg PUBLIC "-//W3C//DTD SVG 1.1//EN" "http://www.w3.org/Graphics/SVG/1.1/DTD/svg11.dtd">
<!-- Creator: CorelDRAW 2019 (64-Bit) -->
<svg xmlns="http://www.w3.org/2000/svg" xml:space="preserve" width="18.2711mm" height="7.7979mm" version="1.1" style="shape-rendering:geometricPrecision; text-rendering:geometricPrecision; image-rendering:optimizeQuality; fill-rule:evenodd; clip-rule:evenodd"
viewBox="0 0 14.46 6.17"
 xmlns:xlink="http://www.w3.org/1999/xlink"
 xmlns:xodm="http://www.corel.com/coreldraw/odm/2003">
 <defs>
  <style type="text/css">
   <![CDATA[
    .fil0 {fill:#9C6921;fill-rule:nonzero}
   ]]>
  </style>
 </defs>
 <g id="Слой_x0020_1">
  <metadata id="CorelCorpID_0Corel-Layer"/>
  <path class="fil0" d="M-0 0l2.01 0 0 0.31 -0.31 0c-0.09,0 -0.16,0.02 -0.2,0.07 -0.04,0.05 -0.06,0.13 -0.06,0.25l0 3.56c0,0.12 0.02,0.21 0.07,0.25 0.05,0.05 0.14,0.07 0.28,0.07l0.86 0c0.14,0 0.23,-0.02 0.28,-0.07 0.05,-0.05 0.07,-0.13 0.07,-0.25l0 -3.56c0,-0.12 -0.02,-0.2 -0.07,-0.25 -0.04,-0.05 -0.12,-0.07 -0.22,-0.07l-0.07 0 -0.23 0 0 -0.31 1.89 0 0 0.31 -0.31 0c-0.09,0 -0.16,0.02 -0.2,0.07 -0.04,0.05 -0.07,0.13 -0.07,0.25l0 3.56c0,0.12 0.02,0.21 0.07,0.25 0.05,0.05 0.14,0.07 0.28,0.07l0.83 0c0.14,0 0.23,-0.02 0.28,-0.07 0.05,-0.05 0.07,-0.13 0.07,-0.25l0 -3.56c0,-0.12 -0.02,-0.2 -0.07,-0.25 -0.04,-0.05 -0.12,-0.07 -0.22,-0.07l-0.07 0 -0.23 0 0 -0.31 2.02 0 0 0.31 -0.44 0c-0.09,0 -0.16,0.02 -0.2,0.07 -0.04,0.05 -0.06,0.13 -0.06,0.25l0 3.56c0,0.12 0.02,0.21 0.07,0.25 0.05,0.05 0.14,0.07 0.28,0.07l0.36 0 0 1.65 -0.29 0c-0.09,-0.53 -0.24,-0.88 -0.44,-1.06 -0.2,-0.18 -0.66,-0.27 -1.39,-0.27l-4.58 0 0 -0.31 0.35 0c0.14,0 0.23,-0.02 0.28,-0.07 0.05,-0.05 0.07,-0.13 0.07,-0.25l0 -3.56c0,-0.12 -0.02,-0.2 -0.07,-0.25 -0.04,-0.05 -0.12,-0.07 -0.22,-0.07l-0.07 0 -0.35 0 0 -0.31zm14.46 4.56l0 1.2 -0.26 0c-0.04,-0.36 -0.12,-0.6 -0.25,-0.73 -0.13,-0.13 -0.45,-0.19 -0.97,-0.19l-3.88 0 0 -0.28 0.25 -0.01c0.09,-0 0.15,-0.02 0.18,-0.05 0.03,-0.03 0.04,-0.1 0.04,-0.2l0 -2.02c0,-0.1 -0.01,-0.17 -0.04,-0.2 -0.03,-0.03 -0.09,-0.05 -0.18,-0.05l-0.25 -0.01 0 -0.28 1.55 0 0 0.28 -0.25 0.01c-0.09,0 -0.15,0.02 -0.18,0.05 -0.03,0.03 -0.04,0.09 -0.04,0.18l0 2.03c0,0.1 0.02,0.17 0.05,0.2 0.03,0.03 0.09,0.05 0.17,0.05l0.84 0c0.09,0 0.15,-0.02 0.18,-0.05 0.03,-0.03 0.05,-0.1 0.05,-0.2l0 -2.02c0,-0.1 -0.01,-0.16 -0.04,-0.19 -0.03,-0.03 -0.09,-0.05 -0.18,-0.05l-0.25 -0.01 0 -0.28 1.55 0 0 0.28 -0.24 0.01c-0.09,0 -0.15,0.02 -0.18,0.05 -0.03,0.03 -0.04,0.09 -0.04,0.18l0 2.03c0,0.1 0.02,0.17 0.05,0.2 0.03,0.03 0.09,0.05 0.18,0.05l0.83 0c0.09,0 0.15,-0.02 0.18,-0.05 0.03,-0.03 0.05,-0.1 0.05,-0.2l0 -2.02c0,-0.1 -0.01,-0.16 -0.04,-0.19 -0.03,-0.03 -0.09,-0.05 -0.18,-0.05l-0.24 -0.01 0 -0.28 1.55 0 0 0.28 -0.25 0.01c-0.1,0 -0.16,0.02 -0.19,0.05 -0.03,0.03 -0.04,0.09 -0.04,0.2l0 2.02c0,0.1 0.01,0.17 0.04,0.2 0.03,0.03 0.09,0.05 0.19,0.05l0.25 0.01z"/>
 </g>
</svg>
