<?xml version="1.0" encoding="UTF-8"?>
<!DOCTYPE svg PUBLIC "-//W3C//DTD SVG 1.1//EN" "http://www.w3.org/Graphics/SVG/1.1/DTD/svg11.dtd">
<!-- Creator: CorelDRAW 2019 (64-Bit) -->
<svg xmlns="http://www.w3.org/2000/svg" xml:space="preserve" width="11.9704mm" height="6.2485mm" version="1.1" style="shape-rendering:geometricPrecision; text-rendering:geometricPrecision; image-rendering:optimizeQuality; fill-rule:evenodd; clip-rule:evenodd"
viewBox="0 0 6.19 3.23"
 xmlns:xlink="http://www.w3.org/1999/xlink"
 xmlns:xodm="http://www.corel.com/coreldraw/odm/2003">
 <defs>
  <style type="text/css">
   <![CDATA[
    .fil0 {fill:#9C6921;fill-rule:nonzero}
   ]]>
  </style>
 </defs>
 <g id="Слой_x0020_1">
  <metadata id="CorelCorpID_0Corel-Layer"/>
  <path class="fil0" d="M-0 3.16l0 -0.21 0.23 0c0.09,0 0.15,-0.02 0.18,-0.05 0.03,-0.03 0.05,-0.09 0.05,-0.17l0 -2.33c0,-0.08 -0.01,-0.13 -0.04,-0.16 -0.03,-0.03 -0.08,-0.05 -0.14,-0.05l-0.04 0 -0.23 0 0 -0.21 2.56 0 0.06 1.12 -0.19 0c-0.06,-0.37 -0.16,-0.62 -0.29,-0.74 -0.13,-0.12 -0.41,-0.18 -0.83,-0.18 -0.17,0 -0.27,0.01 -0.31,0.04 -0.04,0.03 -0.06,0.09 -0.06,0.18l0 1 0.03 0c0.25,0 0.42,-0.04 0.52,-0.13 0.1,-0.09 0.16,-0.24 0.18,-0.48l0.18 0 0 1.39 -0.18 0c-0.02,-0.23 -0.08,-0.39 -0.18,-0.47 -0.1,-0.09 -0.27,-0.13 -0.52,-0.13l-0.03 0 0 1.14c0,0.09 0.02,0.15 0.06,0.18 0.04,0.03 0.16,0.04 0.34,0.04 0.24,0 0.43,-0.01 0.57,-0.04 0.14,-0.03 0.24,-0.07 0.31,-0.13 0.07,-0.06 0.13,-0.15 0.19,-0.29 0.05,-0.13 0.1,-0.32 0.15,-0.55l0.16 0 -0.06 1.2 -2.66 0zm5.58 -1.17c0.06,0 0.1,-0.01 0.12,-0.03 0.02,-0.02 0.03,-0.06 0.03,-0.11 0,-0.2 -0.04,-0.35 -0.12,-0.46 -0.08,-0.11 -0.19,-0.16 -0.34,-0.16 -0.17,0 -0.29,0.06 -0.37,0.18 -0.08,0.12 -0.12,0.31 -0.13,0.57l0.81 0zm0.46 0.53l0.15 0.09c-0.1,0.2 -0.22,0.36 -0.38,0.46 -0.15,0.1 -0.34,0.15 -0.55,0.15 -0.28,0 -0.51,-0.1 -0.69,-0.3 -0.18,-0.2 -0.26,-0.46 -0.26,-0.78 0,-0.32 0.09,-0.58 0.26,-0.78 0.18,-0.2 0.41,-0.3 0.69,-0.3 0.28,0 0.51,0.09 0.68,0.28 0.17,0.19 0.25,0.44 0.25,0.75 0,0.01 -0,0.02 -0,0.04 -0,0.02 -0,0.04 -0,0.05l-1.43 0c0,0.01 -0,0.03 -0,0.04 -0,0.02 -0,0.03 -0,0.04 0,0.23 0.05,0.4 0.16,0.54 0.11,0.13 0.25,0.2 0.42,0.2 0.15,0 0.28,-0.04 0.4,-0.12 0.12,-0.08 0.21,-0.2 0.29,-0.35z"/>
 </g>
</svg>
