<?xml version="1.0" encoding="UTF-8"?>
<!DOCTYPE svg PUBLIC "-//W3C//DTD SVG 1.1//EN" "http://www.w3.org/Graphics/SVG/1.1/DTD/svg11.dtd">
<!-- Creator: CorelDRAW 2019 (64-Bit) -->
<svg xmlns="http://www.w3.org/2000/svg" xml:space="preserve" width="11.5063mm" height="6.4093mm" version="1.1" style="shape-rendering:geometricPrecision; text-rendering:geometricPrecision; image-rendering:optimizeQuality; fill-rule:evenodd; clip-rule:evenodd"
viewBox="0 0 5.72 3.19"
 xmlns:xlink="http://www.w3.org/1999/xlink"
 xmlns:xodm="http://www.corel.com/coreldraw/odm/2003">
 <defs>
  <style type="text/css">
   <![CDATA[
    .fil0 {fill:#9C6921;fill-rule:nonzero}
   ]]>
  </style>
 </defs>
 <g id="Слой_x0020_1">
  <metadata id="CorelCorpID_0Corel-Layer"/>
  <path class="fil0" d="M2.38 2.04l0.2 0.02c-0.05,0.35 -0.18,0.62 -0.39,0.82 -0.21,0.2 -0.48,0.3 -0.8,0.3 -0.4,0 -0.73,-0.15 -1,-0.45 -0.26,-0.3 -0.4,-0.68 -0.4,-1.13 0,-0.46 0.13,-0.85 0.39,-1.15 0.26,-0.3 0.58,-0.45 0.98,-0.45 0.15,0 0.28,0.02 0.41,0.07 0.13,0.04 0.24,0.11 0.35,0.21l0.16 -0.26 0.16 0 0.06 1.23 -0.16 0.01c-0.06,-0.35 -0.17,-0.61 -0.33,-0.79 -0.16,-0.18 -0.35,-0.27 -0.59,-0.27 -0.29,0 -0.51,0.12 -0.66,0.35 -0.15,0.23 -0.22,0.58 -0.22,1.05 0,0.48 0.07,0.83 0.22,1.05 0.15,0.23 0.38,0.34 0.68,0.34 0.24,0 0.44,-0.08 0.6,-0.24 0.16,-0.16 0.27,-0.39 0.33,-0.7zm3.33 0.52c-0.08,0.21 -0.18,0.37 -0.31,0.46 -0.13,0.1 -0.29,0.15 -0.48,0.15 -0.27,0 -0.49,-0.09 -0.66,-0.28 -0.17,-0.19 -0.25,-0.43 -0.25,-0.73 0,-0.32 0.09,-0.58 0.27,-0.78 0.18,-0.2 0.42,-0.3 0.71,-0.3 0.19,0 0.36,0.05 0.48,0.14 0.13,0.09 0.19,0.21 0.19,0.34 0,0.09 -0.03,0.17 -0.08,0.22 -0.05,0.05 -0.12,0.08 -0.2,0.08 -0.07,0 -0.13,-0.02 -0.18,-0.06 -0.05,-0.04 -0.07,-0.1 -0.07,-0.17 0,-0.06 0.02,-0.12 0.07,-0.16 0.04,-0.05 0.07,-0.07 0.07,-0.08 0,-0.04 -0.03,-0.07 -0.08,-0.1 -0.05,-0.03 -0.13,-0.04 -0.21,-0.04 -0.17,0 -0.31,0.07 -0.39,0.21 -0.09,0.14 -0.13,0.35 -0.13,0.63 0,0.27 0.05,0.48 0.14,0.61 0.1,0.14 0.24,0.2 0.44,0.2 0.12,0 0.23,-0.04 0.32,-0.1 0.09,-0.07 0.16,-0.18 0.22,-0.32l0.15 0.08z"/>
 </g>
</svg>
