<?xml version="1.0" encoding="UTF-8"?>
<!DOCTYPE svg PUBLIC "-//W3C//DTD SVG 1.1//EN" "http://www.w3.org/Graphics/SVG/1.1/DTD/svg11.dtd">
<!-- Creator: CorelDRAW 2019 (64-Bit) -->
<svg xmlns="http://www.w3.org/2000/svg" xml:space="preserve" width="0.4032cm" height="0.1778cm" version="1.1" style="shape-rendering:geometricPrecision; text-rendering:geometricPrecision; image-rendering:optimizeQuality; fill-rule:evenodd; clip-rule:evenodd"
viewBox="0 0 0.068 0.03"
 xmlns:xlink="http://www.w3.org/1999/xlink"
 xmlns:xodm="http://www.corel.com/coreldraw/odm/2003">
 <defs>
  <style type="text/css">
   <![CDATA[
    .fil0 {fill:#9C6921;fill-rule:nonzero}
   ]]>
  </style>
 </defs>
 <g id="Слой_x0020_1">
  <metadata id="CorelCorpID_0Corel-Layer"/>
  <path class="fil0" d="M0.014 0.023l0 -0.002 0.002 -0c0.001,-0 0.001,-0 0.001,-0 0,-0 0,-0.001 0,-0.001l0 -0.011c0,-0 -0,-0.001 -0,-0.001 -0,-0 -0,-0 -0.001,-0 -0.001,0 -0.002,0 -0.003,0.001 -0.001,0.001 -0.001,0.002 -0.001,0.004l-0.001 0 0 -0.007 0.016 0 0 0.007 -0.001 0c-0,-0.002 -0.001,-0.004 -0.001,-0.004 -0.001,-0.001 -0.001,-0.001 -0.003,-0.001 -0,0 -0.001,0 -0.001,0 -0,0 -0,0.001 -0,0.001l0 0.011c0,0.001 0,0.001 0,0.001 0,0 0,0 0.001,0l0.002 0 0 0.002 -0.009 0zm0.043 -0.002l0 0.002 -0.029 0 0 -0.002 0.001 -0c0,-0 0.001,-0 0.001,-0 0,-0 0,-0.001 0,-0.001l0 -0.011c0,-0.001 -0,-0.001 -0,-0.001 -0,-0 -0,-0 -0.001,-0l-0.001 -0 0 -0.002 0.008 0 0 0.002 -0.001 0c-0,0 -0.001,0 -0.001,0 -0,0 -0,0 -0,0.001l0 0.011c0,0.001 0,0.001 0,0.001 0,0 0,0 0.001,0l0.004 0c0,0 0.001,-0 0.001,-0 0,-0 0,-0.001 0,-0.001l0 -0.011c0,-0.001 -0,-0.001 -0,-0.001 -0,-0 -0,-0 -0.001,-0l-0.001 -0 0 -0.002 0.008 0 0 0.002 -0.001 0c-0,0 -0.001,0 -0.001,0 -0,0 -0,0 -0,0.001l0 0.011c0,0.001 0,0.001 0,0.001 0,0 0,0 0.001,0l0.004 0c0,0 0.001,-0 0.001,-0 0,-0 0,-0.001 0,-0.001l0 -0.011c0,-0.001 -0,-0.001 -0,-0.001 -0,-0 -0,-0 -0.001,-0l-0.001 -0 0 -0.002 0.008 0 0 0.002 -0.001 0c-0.001,0 -0.001,0 -0.001,0 -0,0 -0,0.001 -0,0.001l0 0.011c0,0.001 0,0.001 0,0.001 0,0 0,0 0.001,0l0.001 0z"/>
  <path class="fil0" d="M0.008 0l0 0.001 -0.006 0 0 0.028 0.006 0 0 0.001 -0.008 0 0 -0.03 0.008 0zm0.052 0l0.008 0 0 0.03 -0.008 0 0 -0.001 0.006 0 0 -0.028 -0.006 0 0 -0.001z"/>
 </g>
</svg>
