<?xml version="1.0" encoding="UTF-8"?>
<!DOCTYPE svg PUBLIC "-//W3C//DTD SVG 1.1//EN" "http://www.w3.org/Graphics/SVG/1.1/DTD/svg11.dtd">
<!-- Creator: CorelDRAW 2019 (64-Bit) -->
<svg xmlns="http://www.w3.org/2000/svg" xml:space="preserve" width="1.65798cm" height="0.40639cm" version="1.1" style="shape-rendering:geometricPrecision; text-rendering:geometricPrecision; image-rendering:optimizeQuality; fill-rule:evenodd; clip-rule:evenodd"
viewBox="0 0 1.256 0.308"
 xmlns:xlink="http://www.w3.org/1999/xlink"
 xmlns:xodm="http://www.corel.com/coreldraw/odm/2003">
 <defs>
  <style type="text/css">
   <![CDATA[
    .fil0 {fill:#9C6921;fill-rule:nonzero}
   ]]>
  </style>
 </defs>
 <g id="Слой_x0020_1">
  <metadata id="CorelCorpID_0Corel-Layer"/>
  <path class="fil0" d="M-0 0l0.134 0 0 0.02 -0.027 0c-0.006,0 -0.01,0.002 -0.013,0.005 -0.003,0.003 -0.004,0.008 -0.004,0.015l0 0.087c0,0.013 0.004,0.023 0.012,0.029 0.008,0.006 0.02,0.01 0.037,0.01 0.009,0 0.02,-0.001 0.032,-0.003 0.012,-0.002 0.025,-0.005 0.038,-0.009l0 -0.114c0,-0.007 -0.001,-0.012 -0.004,-0.015 -0.003,-0.003 -0.007,-0.005 -0.014,-0.005l-0.004 0 -0.022 0 0 -0.02 0.133 0 0 0.02 -0.027 0c-0.006,0 -0.01,0.002 -0.013,0.005 -0.003,0.003 -0.004,0.008 -0.004,0.015l0 0.222c0,0.008 0.001,0.013 0.004,0.016 0.003,0.003 0.009,0.004 0.018,0.004l0.022 0 0 0.02 -0.133 0 0 -0.02 0.022 0c0.009,0 0.015,-0.001 0.018,-0.004 0.003,-0.003 0.004,-0.008 0.004,-0.016l0 -0.087c-0.016,0.005 -0.03,0.008 -0.044,0.011 -0.014,0.002 -0.027,0.003 -0.04,0.003 -0.026,0 -0.046,-0.006 -0.06,-0.017 -0.014,-0.011 -0.021,-0.028 -0.021,-0.049l0 -0.082c0,-0.007 -0.001,-0.012 -0.004,-0.015 -0.003,-0.003 -0.007,-0.005 -0.014,-0.005l-0.004 0 -0.022 0 0 -0.02zm0.48 0.142c0,-0.006 -0.001,-0.01 -0.003,-0.012 -0.002,-0.002 -0.006,-0.003 -0.011,-0.003l-0.019 -0.001 0 -0.018 0.104 0 0 0.018 -0.019 0.001c-0.006,0 -0.01,0.001 -0.011,0.003 -0.002,0.002 -0.003,0.006 -0.003,0.012l0 0.126c0,0.006 0.001,0.01 0.003,0.012 0.002,0.002 0.006,0.003 0.011,0.003l0.019 0.001 0 0.018 -0.104 0 0 -0.018 0.019 -0.001c0.006,-0 0.01,-0.001 0.012,-0.003 0.002,-0.002 0.003,-0.006 0.003,-0.012l0 -0.094 -0.087 0.09 0 0.005c0,0.005 0.001,0.009 0.003,0.011 0.002,0.002 0.006,0.003 0.011,0.003l0.019 0.001 0 0.018 -0.104 0 0 -0.018 0.019 -0.001c0.006,-0 0.009,-0.001 0.011,-0.003 0.002,-0.002 0.003,-0.006 0.003,-0.012l0 -0.126c0,-0.006 -0.001,-0.01 -0.003,-0.012 -0.002,-0.002 -0.005,-0.003 -0.011,-0.003l-0.019 -0.001 0 -0.018 0.104 0 0 0.018 -0.019 0.001c-0.006,0 -0.009,0.001 -0.011,0.003 -0.002,0.002 -0.003,0.006 -0.003,0.012l0 0.095 0.087 -0.09 0 -0.005zm0.093 0.159l0 -0.018 0.019 -0.001c0.006,-0 0.009,-0.001 0.011,-0.003 0.002,-0.002 0.003,-0.006 0.003,-0.012l0 -0.126c0,-0.006 -0.001,-0.01 -0.003,-0.012 -0.002,-0.002 -0.005,-0.003 -0.011,-0.003l-0.019 -0.001 0 -0.018 0.229 0 0 0.018 -0.019 0.001c-0.006,0 -0.01,0.001 -0.011,0.003 -0.002,0.002 -0.003,0.006 -0.003,0.012l0 0.126c0,0.006 0.001,0.01 0.003,0.012 0.002,0.002 0.006,0.003 0.011,0.003l0.019 0.001 0 0.018 -0.104 0 0 -0.018 0.019 -0.001c0.006,-0 0.01,-0.001 0.012,-0.003 0.002,-0.002 0.003,-0.006 0.003,-0.012l0 -0.126c0,-0.006 -0.001,-0.01 -0.003,-0.012 -0.002,-0.002 -0.006,-0.003 -0.011,-0.003l-0.059 0c-0.005,0 -0.009,0.001 -0.011,0.003 -0.002,0.002 -0.003,0.006 -0.003,0.013l0 0.127c0,0.005 0.001,0.009 0.003,0.011 0.002,0.002 0.006,0.003 0.011,0.003l0.019 0.001 0 0.018 -0.104 0zm0.374 -0.111c0.006,0 0.01,-0.001 0.012,-0.003 0.002,-0.002 0.003,-0.005 0.003,-0.01 0,-0.019 -0.004,-0.033 -0.011,-0.043 -0.008,-0.01 -0.019,-0.015 -0.033,-0.015 -0.016,0 -0.028,0.006 -0.036,0.018 -0.008,0.012 -0.012,0.03 -0.012,0.054l0.077 0zm0.043 0.051l0.015 0.008c-0.009,0.019 -0.021,0.034 -0.036,0.044 -0.015,0.01 -0.032,0.015 -0.052,0.015 -0.027,0 -0.049,-0.01 -0.065,-0.029 -0.017,-0.019 -0.025,-0.044 -0.025,-0.074 0,-0.031 0.008,-0.056 0.025,-0.075 0.017,-0.019 0.039,-0.029 0.065,-0.029 0.027,0 0.049,0.009 0.065,0.026 0.016,0.018 0.024,0.042 0.024,0.072 0,0.001 -0,0.002 -0,0.004 -0,0.002 -0,0.003 -0,0.004l-0.136 0c0,0.001 -0,0.003 -0,0.004 -0,0.002 -0,0.003 -0,0.004 0,0.021 0.005,0.039 0.015,0.051 0.01,0.013 0.024,0.019 0.04,0.019 0.014,0 0.027,-0.004 0.038,-0.011 0.011,-0.008 0.02,-0.019 0.028,-0.034zm0.119 -0.19c0.004,0.003 0.009,0.005 0.014,0.006 0.005,0.001 0.012,0.002 0.019,0.002 0.008,0 0.014,-0.001 0.02,-0.002 0.006,-0.001 0.011,-0.003 0.015,-0.006 -0.004,-0.002 -0.007,-0.004 -0.009,-0.006 -0.002,-0.003 -0.003,-0.006 -0.003,-0.01 0,-0.005 0.002,-0.01 0.006,-0.013 0.004,-0.004 0.008,-0.006 0.013,-0.006 0.005,0 0.01,0.002 0.013,0.006 0.004,0.004 0.005,0.009 0.005,0.014 0,0.011 -0.006,0.019 -0.017,0.026 -0.011,0.007 -0.026,0.011 -0.044,0.011 -0.018,0 -0.033,-0.003 -0.044,-0.01 -0.011,-0.007 -0.017,-0.016 -0.017,-0.026 0,-0.006 0.002,-0.01 0.006,-0.015 0.004,-0.004 0.008,-0.006 0.014,-0.006 0.005,0 0.009,0.002 0.013,0.006 0.004,0.004 0.006,0.008 0.006,0.013 0,0.004 -0.001,0.007 -0.003,0.01 -0.002,0.003 -0.004,0.005 -0.008,0.007zm0.076 0.091c0,-0.006 -0.001,-0.01 -0.003,-0.012 -0.002,-0.002 -0.006,-0.003 -0.011,-0.003l-0.019 -0.001 0 -0.018 0.104 0 0 0.018 -0.019 0.001c-0.006,0 -0.01,0.001 -0.011,0.003 -0.002,0.002 -0.003,0.006 -0.003,0.012l0 0.126c0,0.006 0.001,0.01 0.003,0.012 0.002,0.002 0.006,0.003 0.011,0.003l0.019 0.001 0 0.018 -0.104 0 0 -0.018 0.019 -0.001c0.006,-0 0.01,-0.001 0.012,-0.003 0.002,-0.002 0.003,-0.006 0.003,-0.012l0 -0.094 -0.087 0.09 0 0.005c0,0.005 0.001,0.009 0.003,0.011 0.002,0.002 0.006,0.003 0.011,0.003l0.019 0.001 0 0.018 -0.104 0 0 -0.018 0.019 -0.001c0.006,-0 0.009,-0.001 0.011,-0.003 0.002,-0.002 0.003,-0.006 0.003,-0.012l0 -0.126c0,-0.006 -0.001,-0.01 -0.003,-0.012 -0.002,-0.002 -0.005,-0.003 -0.011,-0.003l-0.019 -0.001 0 -0.018 0.104 0 0 0.018 -0.019 0.001c-0.006,0 -0.009,0.001 -0.011,0.003 -0.002,0.002 -0.003,0.006 -0.003,0.012l0 0.095 0.087 -0.09 0 -0.005z"/>
 </g>
</svg>
