<?xml version="1.0" encoding="UTF-8"?>
<!DOCTYPE svg PUBLIC "-//W3C//DTD SVG 1.1//EN" "http://www.w3.org/Graphics/SVG/1.1/DTD/svg11.dtd">
<!-- Creator: CorelDRAW 2019 (64-Bit) -->
<svg xmlns="http://www.w3.org/2000/svg" xml:space="preserve" width="2.08667cm" height="0.62162cm" version="1.1" style="shape-rendering:geometricPrecision; text-rendering:geometricPrecision; image-rendering:optimizeQuality; fill-rule:evenodd; clip-rule:evenodd"
viewBox="0 0 2 0.596"
 xmlns:xlink="http://www.w3.org/1999/xlink"
 xmlns:xodm="http://www.corel.com/coreldraw/odm/2003">
 <defs>
  <style type="text/css">
   <![CDATA[
    .fil1 {fill:#9C6921}
    .fil0 {fill:#9C6921;fill-rule:nonzero}
   ]]>
  </style>
 </defs>
 <g id="Слой_x0020_1">
  <metadata id="CorelCorpID_0Corel-Layer"/>
  <g id="_2495600627584">
   <path class="fil0" d="M0.526 0.481l-0.083 -0.192c-0.004,-0.008 -0.008,-0.014 -0.014,-0.018 -0.005,-0.003 -0.013,-0.005 -0.024,-0.005l-0.003 0 0 -0.022 0.122 0 0 0.022 -0.014 0 -0.007 0c-0.004,0 -0.008,0.001 -0.01,0.003 -0.002,0.002 -0.003,0.005 -0.003,0.008 0,0.001 0.001,0.004 0.001,0.007 0.001,0.003 0.002,0.006 0.004,0.01l0.055 0.128 0.052 -0.126c0.001,-0.002 0.002,-0.004 0.002,-0.006 0.001,-0.002 0.001,-0.004 0.001,-0.006 0,-0.007 -0.002,-0.011 -0.007,-0.014 -0.005,-0.002 -0.014,-0.004 -0.03,-0.004l-0 -0.022 0.101 0 0 0.022c-0.01,0 -0.018,0.002 -0.024,0.007 -0.006,0.004 -0.011,0.012 -0.016,0.022l-0.088 0.206c-0.015,0.035 -0.03,0.059 -0.046,0.074 -0.016,0.014 -0.034,0.022 -0.056,0.022 -0.015,0 -0.027,-0.004 -0.035,-0.011 -0.009,-0.007 -0.013,-0.017 -0.013,-0.029 0,-0.009 0.003,-0.016 0.009,-0.022 0.006,-0.006 0.013,-0.009 0.022,-0.009 0.009,0 0.015,0.002 0.02,0.007 0.005,0.005 0.007,0.012 0.007,0.02 0,0.003 -0.001,0.006 -0.002,0.009 -0.001,0.003 -0.002,0.004 -0.002,0.005 0,0.002 0.001,0.003 0.003,0.004 0.002,0.001 0.004,0.002 0.007,0.002 0.009,0 0.02,-0.008 0.032,-0.023 0.012,-0.015 0.023,-0.035 0.033,-0.06l0.004 -0.008z"/>
   <path id="1" class="fil0" d="M1.111 0.465l0 0.022 -0.418 0 0 -0.022 0.019 -0.001c0.007,-0 0.012,-0.002 0.014,-0.004 0.002,-0.002 0.003,-0.008 0.003,-0.015l0 -0.158c0,-0.008 -0.001,-0.013 -0.003,-0.015 -0.002,-0.002 -0.007,-0.004 -0.014,-0.004l-0.019 -0.001 0 -0.022 0.121 0 0 0.022 -0.019 0.001c-0.007,0 -0.012,0.002 -0.014,0.004 -0.002,0.002 -0.003,0.007 -0.003,0.014l0 0.159c0,0.008 0.001,0.013 0.004,0.016 0.002,0.002 0.007,0.004 0.014,0.004l0.065 0c0.007,0 0.011,-0.001 0.014,-0.004 0.003,-0.003 0.004,-0.008 0.004,-0.016l0 -0.158c0,-0.008 -0.001,-0.013 -0.003,-0.015 -0.002,-0.002 -0.007,-0.004 -0.014,-0.004l-0.02 -0.001 0 -0.022 0.121 0 0 0.022 -0.019 0.001c-0.007,0 -0.012,0.002 -0.014,0.004 -0.002,0.002 -0.003,0.007 -0.003,0.014l0 0.159c0,0.008 0.001,0.013 0.004,0.016 0.002,0.003 0.007,0.004 0.014,0.004l0.065 0c0.007,0 0.012,-0.001 0.014,-0.004 0.003,-0.003 0.004,-0.008 0.004,-0.016l0 -0.158c0,-0.008 -0.001,-0.013 -0.003,-0.015 -0.002,-0.002 -0.007,-0.004 -0.014,-0.004l-0.019 -0.001 0 -0.022 0.121 0 0 0.022 -0.019 0.001c-0.008,0 -0.012,0.002 -0.014,0.004 -0.002,0.002 -0.003,0.007 -0.003,0.015l0 0.158c0,0.008 0.001,0.013 0.003,0.015 0.002,0.002 0.007,0.004 0.015,0.004l0.019 0.001z"/>
   <path id="2" class="fil0" d="M1.28 0.366l0 0.08c0,0.008 0.001,0.013 0.003,0.016 0.002,0.002 0.007,0.004 0.014,0.004l0.02 0c0.021,0 0.037,-0.004 0.046,-0.011 0.009,-0.007 0.014,-0.019 0.014,-0.036 0,-0.019 -0.005,-0.033 -0.016,-0.041 -0.011,-0.008 -0.03,-0.012 -0.057,-0.012l-0.025 0zm0 -0.022l0.051 0c0.033,0 0.058,0.006 0.075,0.018 0.017,0.012 0.026,0.029 0.026,0.052 0,0.024 -0.008,0.042 -0.024,0.054 -0.016,0.012 -0.039,0.019 -0.069,0.019l-0.149 0 0 -0.022 0.024 -0.001c0.007,-0 0.012,-0.002 0.014,-0.004 0.002,-0.002 0.003,-0.008 0.003,-0.015l0 -0.158c0,-0.008 -0.002,-0.014 -0.005,-0.016 -0.003,-0.003 -0.01,-0.004 -0.021,-0.004 -0.016,0 -0.028,0.005 -0.037,0.015 -0.009,0.01 -0.015,0.025 -0.017,0.045l-0.017 0 0 -0.083 0.187 0 0 0.022 -0.024 0.001c-0.007,0 -0.012,0.002 -0.014,0.004 -0.002,0.002 -0.003,0.008 -0.003,0.015l0 0.057z"/>
   <path id="3" class="fil0" d="M1.616 0.35l0 -0.063c0,-0.008 -0.001,-0.013 -0.004,-0.016 -0.003,-0.003 -0.008,-0.004 -0.014,-0.004l-0.02 0c-0.02,0 -0.034,0.003 -0.043,0.009 -0.009,0.006 -0.013,0.016 -0.013,0.03 0,0.016 0.005,0.027 0.015,0.034 0.01,0.007 0.028,0.01 0.055,0.01l0.023 0zm-0.041 0.137l0 -0.022 0.024 -0.001c0.007,-0 0.012,-0.002 0.014,-0.004 0.002,-0.002 0.003,-0.007 0.003,-0.015l0 -0.075 -0.022 0c-0.014,0 -0.026,0.003 -0.034,0.01 -0.008,0.007 -0.012,0.018 -0.014,0.032l-0.004 0.033c-0.002,0.018 -0.006,0.03 -0.013,0.037 -0.007,0.007 -0.018,0.01 -0.033,0.01 -0.015,0 -0.026,-0.004 -0.034,-0.013 -0.007,-0.009 -0.011,-0.022 -0.011,-0.039l0 -0.007 0.016 0c0.001,0.014 0.002,0.023 0.004,0.028 0.002,0.005 0.005,0.007 0.01,0.007 0.003,0 0.006,-0.002 0.008,-0.006 0.003,-0.004 0.005,-0.009 0.006,-0.016l0.01 -0.038c0.003,-0.014 0.009,-0.024 0.017,-0.031 0.008,-0.007 0.02,-0.011 0.035,-0.012 -0.027,-0.002 -0.047,-0.008 -0.061,-0.018 -0.014,-0.01 -0.021,-0.024 -0.021,-0.043 0,-0.02 0.007,-0.035 0.022,-0.045 0.015,-0.01 0.036,-0.015 0.065,-0.015l0.142 0 0 0.022 -0.024 0.001c-0.007,0 -0.012,0.002 -0.014,0.004 -0.002,0.002 -0.003,0.008 -0.003,0.015l0 0.158c0,0.008 0.001,0.013 0.003,0.015 0.002,0.002 0.007,0.004 0.014,0.004l0.024 0.001 0 0.022 -0.131 0z"/>
   <path id="4" class="fil0" d="M2 0.245l0 0.023 -0.024 0.001c-0.007,0 -0.012,0.002 -0.014,0.004 -0.002,0.003 -0.003,0.008 -0.003,0.015l0 0.158c0,0.008 0.001,0.013 0.003,0.015 0.002,0.002 0.007,0.004 0.015,0.004l0.024 0.001 0 0.022 -0.131 0 0 -0.022 0.024 -0.001c0.007,-0 0.012,-0.002 0.014,-0.004 0.002,-0.002 0.003,-0.008 0.003,-0.015l0 -0.178 -0.03 0c-0.027,0 -0.042,0.024 -0.044,0.071 -0.001,0.022 -0.002,0.04 -0.004,0.054 -0.004,0.038 -0.01,0.065 -0.019,0.079 -0.009,0.014 -0.023,0.021 -0.042,0.021 -0.012,0 -0.022,-0.004 -0.03,-0.011 -0.008,-0.007 -0.012,-0.016 -0.012,-0.026 0,-0.011 0.003,-0.019 0.008,-0.025 0.005,-0.006 0.013,-0.009 0.023,-0.009 0.007,0 0.013,0.002 0.018,0.007 0.005,0.004 0.007,0.01 0.007,0.016 0,0.007 -0.002,0.012 -0.007,0.017 -0.005,0.005 -0.007,0.008 -0.007,0.009 0,0.001 0.001,0.002 0.002,0.003 0.001,0.001 0.002,0.001 0.004,0.001 0.007,0 0.013,-0.003 0.018,-0.009 0.005,-0.006 0.008,-0.015 0.01,-0.027 0.004,-0.017 0.007,-0.039 0.009,-0.065 0.003,-0.027 0.004,-0.052 0.004,-0.076 0,-0.011 -0.002,-0.018 -0.005,-0.022 -0.003,-0.004 -0.01,-0.006 -0.02,-0.006l-0.021 -0.001 0 -0.023 0.228 0z"/>
   <g>
    <path class="fil0" d="M-0 0.098l0.172 0 0 0.025 -0.035 0c-0.008,0 -0.013,0.002 -0.017,0.006 -0.003,0.004 -0.005,0.011 -0.005,0.02l0 0.112c0,0.017 0.005,0.03 0.016,0.038 0.01,0.008 0.026,0.012 0.048,0.012 0.012,0 0.025,-0.001 0.041,-0.004 0.016,-0.003 0.032,-0.007 0.049,-0.012l0 -0.147c0,-0.009 -0.002,-0.016 -0.005,-0.02 -0.004,-0.004 -0.009,-0.006 -0.018,-0.006l-0.005 0 -0.028 0 0 -0.025 0.172 0 0 0.025 -0.035 0c-0.008,0 -0.013,0.002 -0.016,0.006 -0.003,0.004 -0.005,0.011 -0.005,0.02l0 0.286c0,0.01 0.002,0.017 0.006,0.02 0.004,0.004 0.011,0.006 0.023,0.006l0.028 0 0 0.025 -0.172 0 0 -0.025 0.028 0c0.011,0 0.019,-0.002 0.023,-0.006 0.004,-0.004 0.006,-0.011 0.006,-0.02l0 -0.113c-0.02,0.006 -0.039,0.011 -0.057,0.014 -0.018,0.003 -0.035,0.004 -0.052,0.004 -0.034,0 -0.06,-0.007 -0.077,-0.022 -0.018,-0.015 -0.027,-0.036 -0.027,-0.064l0 -0.106c0,-0.009 -0.002,-0.016 -0.005,-0.02 -0.004,-0.004 -0.01,-0.006 -0.018,-0.006l-0.005 0 -0.029 0 0 -0.025z"/>
    <g>
     <path class="fil1" d="M0.238 0c0.015,0 0.028,0.012 0.028,0.028 0,0.015 -0.012,0.028 -0.028,0.028 -0.015,0 -0.028,-0.012 -0.028,-0.028 0,-0.015 0.012,-0.028 0.028,-0.028z"/>
     <path class="fil1" d="M0.146 0c0.015,0 0.028,0.012 0.028,0.028 0,0.015 -0.012,0.028 -0.028,0.028 -0.015,0 -0.028,-0.012 -0.028,-0.028 0,-0.015 0.012,-0.028 0.028,-0.028z"/>
    </g>
   </g>
  </g>
 </g>
</svg>
