<?xml version="1.0" encoding="UTF-8"?>
<!DOCTYPE svg PUBLIC "-//W3C//DTD SVG 1.1//EN" "http://www.w3.org/Graphics/SVG/1.1/DTD/svg11.dtd">
<!-- Creator: CorelDRAW 2019 (64-Bit) -->
<svg xmlns="http://www.w3.org/2000/svg" xml:space="preserve" width="1.35793cm" height="0.508cm" version="1.1" style="shape-rendering:geometricPrecision; text-rendering:geometricPrecision; image-rendering:optimizeQuality; fill-rule:evenodd; clip-rule:evenodd"
viewBox="0 0 0.84 0.314"
 xmlns:xlink="http://www.w3.org/1999/xlink"
 xmlns:xodm="http://www.corel.com/coreldraw/odm/2003">
 <defs>
  <style type="text/css">
   <![CDATA[
    .fil0 {fill:#9C6921;fill-rule:nonzero}
   ]]>
  </style>
 </defs>
 <g id="Слой_x0020_1">
  <metadata id="CorelCorpID_0Corel-Layer"/>
  <path class="fil0" d="M-0 0l0.108 0 0 0.016 -0.022 0c-0.005,0 -0.008,0.001 -0.01,0.004 -0.002,0.003 -0.003,0.007 -0.003,0.012l0 0.18c0,0.006 0.001,0.011 0.004,0.013 0.002,0.002 0.007,0.003 0.014,0.003l0.079 0c0.007,0 0.012,-0.001 0.014,-0.003 0.002,-0.002 0.004,-0.007 0.004,-0.013l0 -0.18c0,-0.006 -0.001,-0.01 -0.003,-0.012 -0.002,-0.002 -0.006,-0.004 -0.011,-0.004l-0.003 0 -0.018 0 0 -0.016 0.108 0 0 0.016 -0.022 0c-0.005,0 -0.008,0.001 -0.01,0.004 -0.002,0.003 -0.003,0.007 -0.003,0.012l0 0.18c0,0.006 0.001,0.011 0.004,0.013 0.002,0.002 0.007,0.003 0.014,0.003l0.018 0 0 0.083 -0.015 0c-0.005,-0.027 -0.012,-0.044 -0.022,-0.054 -0.01,-0.009 -0.033,-0.014 -0.07,-0.014l-0.152 0 0 -0.016 0.018 0c0.007,0 0.012,-0.001 0.014,-0.003 0.002,-0.002 0.004,-0.007 0.004,-0.013l0 -0.18c0,-0.006 -0.001,-0.01 -0.003,-0.012 -0.002,-0.002 -0.006,-0.004 -0.011,-0.004l-0.003 0 -0.018 0 0 -0.016zm0.407 0.115c0,-0.005 -0.001,-0.008 -0.002,-0.01 -0.001,-0.002 -0.005,-0.002 -0.009,-0.003l-0.016 -0.001 0 -0.014 0.084 0 0 0.014 -0.015 0.001c-0.005,0 -0.008,0.001 -0.009,0.003 -0.001,0.002 -0.002,0.005 -0.002,0.01l0 0.102c0,0.005 0.001,0.008 0.002,0.01 0.001,0.002 0.005,0.002 0.009,0.003l0.015 0.001 0 0.014 -0.084 0 0 -0.014 0.015 -0.001c0.005,-0 0.008,-0.001 0.009,-0.003 0.001,-0.002 0.002,-0.005 0.002,-0.01l0 -0.076 -0.07 0.073 0 0.004c0,0.004 0.001,0.007 0.002,0.009 0.002,0.002 0.005,0.002 0.009,0.003l0.015 0.001 0 0.014 -0.084 0 0 -0.014 0.015 -0.001c0.005,-0 0.008,-0.001 0.009,-0.003 0.001,-0.002 0.002,-0.005 0.002,-0.01l0 -0.102c0,-0.005 -0.001,-0.008 -0.002,-0.01 -0.001,-0.002 -0.004,-0.002 -0.009,-0.003l-0.016 -0.001 0 -0.014 0.084 0 0 0.014 -0.015 0.001c-0.005,0 -0.008,0.001 -0.009,0.003 -0.001,0.002 -0.002,0.005 -0.002,0.01l0 0.077 0.07 -0.073 0 -0.004zm0.169 0.116c0.014,0 0.024,-0.005 0.031,-0.016 0.007,-0.01 0.01,-0.027 0.01,-0.049 0,-0.022 -0.003,-0.039 -0.009,-0.049 -0.006,-0.01 -0.016,-0.016 -0.029,-0.016 -0.015,0 -0.026,0.005 -0.032,0.015 -0.007,0.01 -0.01,0.027 -0.01,0.05 0,0.023 0.003,0.039 0.01,0.049 0.006,0.01 0.017,0.015 0.031,0.015zm-0.097 0.069l0.014 -0.001c0.005,-0 0.008,-0.001 0.009,-0.003 0.001,-0.002 0.002,-0.005 0.002,-0.01l0 -0.171c0,-0.006 -0.001,-0.01 -0.003,-0.011 -0.002,-0.002 -0.007,-0.003 -0.014,-0.003l-0.004 0c0,0 -0,0 -0.001,0 -0.001,0 -0.003,0 -0.004,0l0 -0.015 0.055 -0.004 0 0.029c0.006,-0.01 0.014,-0.018 0.022,-0.023 0.008,-0.005 0.018,-0.008 0.028,-0.008 0.02,0 0.036,0.008 0.049,0.023 0.013,0.016 0.019,0.036 0.019,0.06 0,0.024 -0.007,0.044 -0.02,0.06 -0.013,0.016 -0.03,0.024 -0.049,0.024 -0.01,0 -0.019,-0.002 -0.026,-0.006 -0.007,-0.004 -0.014,-0.01 -0.021,-0.019l0 0.062c0,0.005 0.001,0.008 0.002,0.01 0.002,0.002 0.005,0.002 0.009,0.003l0.014 0.001 0 0.014 -0.082 0 0 -0.014zm0.194 -0.056l0 -0.014 0.015 -0.001c0.005,-0 0.008,-0.001 0.009,-0.003 0.002,-0.002 0.002,-0.005 0.002,-0.01l0 -0.102c0,-0.005 -0.001,-0.008 -0.002,-0.01 -0.001,-0.002 -0.005,-0.002 -0.009,-0.003l-0.016 -0.001 0 -0.014 0.085 0 0 0.014 -0.016 0.001c-0.005,0 -0.008,0.001 -0.009,0.003 -0.001,0.002 -0.002,0.005 -0.002,0.01l0 0.041 0.01 0c0.01,0 0.018,-0.002 0.023,-0.006 0.005,-0.004 0.009,-0.01 0.011,-0.02 0.001,-0.003 0.001,-0.006 0.002,-0.011 0.005,-0.025 0.016,-0.038 0.032,-0.038 0.009,0 0.015,0.002 0.021,0.007 0.005,0.005 0.008,0.011 0.008,0.018 0,0.006 -0.002,0.01 -0.005,0.014 -0.003,0.003 -0.007,0.005 -0.013,0.005 -0.005,0 -0.009,-0.001 -0.012,-0.004 -0.003,-0.002 -0.004,-0.006 -0.004,-0.01 0,-0.003 0.001,-0.006 0.003,-0.009 0.002,-0.003 0.003,-0.005 0.003,-0.005 0,-0.001 -0,-0.002 -0.001,-0.002 -0.001,-0.001 -0.002,-0.001 -0.003,-0.001 -0.007,0 -0.013,0.009 -0.016,0.026l0 0 -0 0.001c-0.004,0.021 -0.011,0.034 -0.021,0.039 0.01,0.002 0.018,0.004 0.023,0.009 0.005,0.004 0.009,0.011 0.012,0.019 0.002,0.005 0.003,0.013 0.005,0.022 0.002,0.014 0.006,0.022 0.012,0.022 0.003,0 0.006,-0.001 0.007,-0.004 0.002,-0.003 0.002,-0.007 0.002,-0.013l0 -0.004 0.01 0c0,0.001 0,0.002 0,0.003 0,0.001 0,0.002 0,0.002 0,0.011 -0.002,0.02 -0.007,0.026 -0.005,0.006 -0.012,0.009 -0.022,0.009 -0.017,0 -0.028,-0.014 -0.032,-0.042 -0.001,-0.005 -0.001,-0.008 -0.002,-0.011 -0.002,-0.011 -0.005,-0.019 -0.009,-0.023 -0.004,-0.004 -0.011,-0.006 -0.021,-0.006l-0.003 0 -0.014 0 0 0.048c0,0.005 0.001,0.008 0.002,0.01 0.001,0.002 0.005,0.002 0.009,0.003l0.015 0.001 0 0.014 -0.085 0z"/>
 </g>
</svg>
