<?xml version="1.0" encoding="UTF-8"?>
<!DOCTYPE svg PUBLIC "-//W3C//DTD SVG 1.1//EN" "http://www.w3.org/Graphics/SVG/1.1/DTD/svg11.dtd">
<!-- Creator: CorelDRAW 2019 (64-Bit) -->
<svg xmlns="http://www.w3.org/2000/svg" xml:space="preserve" width="1.59827cm" height="0.508cm" version="1.1" style="shape-rendering:geometricPrecision; text-rendering:geometricPrecision; image-rendering:optimizeQuality; fill-rule:evenodd; clip-rule:evenodd"
viewBox="0 0 1.171 0.372"
 xmlns:xlink="http://www.w3.org/1999/xlink"
 xmlns:xodm="http://www.corel.com/coreldraw/odm/2003">
 <defs>
  <style type="text/css">
   <![CDATA[
    .fil0 {fill:#9C6921;fill-rule:nonzero}
   ]]>
  </style>
 </defs>
 <g id="Слой_x0020_1">
  <metadata id="CorelCorpID_0Corel-Layer"/>
  <path class="fil0" d="M0.112 0.019c-0.001,0.059 -0.006,0.108 -0.013,0.148 -0.008,0.04 -0.019,0.075 -0.034,0.103l0.12 0 0 -0.251 -0.072 0zm-0.066 -0.019l0.224 0 0 0.019 -0.026 0c-0.006,0 -0.01,0.002 -0.012,0.005 -0.003,0.003 -0.004,0.008 -0.004,0.015l0 0.232 0.042 0 0 0.098 -0.015 0c-0.002,-0.03 -0.009,-0.051 -0.02,-0.062 -0.011,-0.012 -0.029,-0.017 -0.056,-0.017l-0.09 0c-0.026,0 -0.045,0.006 -0.056,0.017 -0.011,0.012 -0.018,0.032 -0.02,0.062l-0.015 0 0 -0.098 0.041 0c0.015,-0.024 0.027,-0.055 0.036,-0.093 0.009,-0.037 0.013,-0.076 0.013,-0.117 0,-0.018 -0.002,-0.029 -0.006,-0.034 -0.004,-0.005 -0.011,-0.007 -0.023,-0.007l-0.014 0 0 -0.019zm0.354 0.284l-0.064 -0.147c-0.003,-0.006 -0.006,-0.011 -0.01,-0.013 -0.004,-0.003 -0.01,-0.004 -0.018,-0.004l-0.002 0 0 -0.017 0.093 0 0 0.017 -0.011 0 -0.005 0c-0.003,0 -0.006,0.001 -0.007,0.002 -0.002,0.001 -0.003,0.004 -0.003,0.006 0,0.001 0,0.003 0.001,0.005 0.001,0.002 0.002,0.005 0.003,0.007l0.042 0.098 0.04 -0.096c0.001,-0.001 0.001,-0.003 0.002,-0.004 0,-0.002 0.001,-0.003 0.001,-0.005 0,-0.005 -0.002,-0.009 -0.005,-0.01 -0.003,-0.002 -0.011,-0.003 -0.023,-0.003l-0 -0.017 0.077 0 0 0.017c-0.007,0 -0.013,0.002 -0.018,0.005 -0.005,0.003 -0.009,0.009 -0.012,0.016l-0.068 0.157c-0.011,0.026 -0.023,0.045 -0.035,0.056 -0.012,0.011 -0.026,0.017 -0.042,0.017 -0.011,0 -0.02,-0.003 -0.027,-0.008 -0.007,-0.006 -0.01,-0.013 -0.01,-0.023 0,-0.007 0.002,-0.012 0.007,-0.017 0.005,-0.005 0.01,-0.007 0.017,-0.007 0.007,0 0.012,0.002 0.015,0.006 0.004,0.004 0.006,0.009 0.006,0.015 0,0.002 -0.001,0.004 -0.002,0.007 -0.001,0.002 -0.002,0.003 -0.002,0.004 0,0.001 0.001,0.003 0.002,0.003 0.001,0.001 0.003,0.001 0.005,0.001 0.007,0 0.015,-0.006 0.025,-0.017 0.009,-0.011 0.018,-0.027 0.025,-0.046l0.003 -0.006zm0.126 0.005l0 -0.017 0.018 -0.001c0.006,-0 0.009,-0.001 0.011,-0.003 0.002,-0.002 0.003,-0.006 0.003,-0.012l0 -0.12c0,-0.006 -0.001,-0.01 -0.003,-0.012 -0.002,-0.002 -0.005,-0.003 -0.011,-0.003l-0.018 -0.001 0 -0.017 0.1 0 0 0.017 -0.019 0.001c-0.006,0 -0.009,0.001 -0.011,0.003 -0.002,0.002 -0.003,0.006 -0.003,0.012l0 0.048 0.012 0c0.012,0 0.021,-0.002 0.027,-0.007 0.006,-0.004 0.01,-0.012 0.012,-0.023 0.001,-0.003 0.002,-0.008 0.003,-0.014 0.006,-0.03 0.018,-0.045 0.038,-0.045 0.01,0 0.018,0.003 0.025,0.008 0.006,0.005 0.009,0.013 0.009,0.021 0,0.007 -0.002,0.012 -0.006,0.016 -0.004,0.004 -0.009,0.006 -0.015,0.006 -0.006,0 -0.011,-0.001 -0.014,-0.004 -0.003,-0.003 -0.005,-0.007 -0.005,-0.012 0,-0.004 0.001,-0.007 0.004,-0.011 0.003,-0.004 0.004,-0.006 0.004,-0.006 0,-0.001 -0.001,-0.002 -0.002,-0.003 -0.001,-0.001 -0.002,-0.001 -0.004,-0.001 -0.009,0 -0.015,0.01 -0.019,0.031l0 0 -0 0.001c-0.005,0.025 -0.013,0.041 -0.025,0.046 0.012,0.002 0.021,0.005 0.027,0.01 0.006,0.005 0.011,0.013 0.014,0.023 0.002,0.006 0.004,0.015 0.006,0.026 0.003,0.017 0.007,0.026 0.014,0.026 0.004,0 0.007,-0.002 0.009,-0.005 0.002,-0.003 0.003,-0.009 0.003,-0.016l0 -0.004 0.012 0c0,0.001 0,0.003 0,0.004 0,0.001 0,0.002 0,0.002 0,0.014 -0.003,0.024 -0.009,0.031 -0.006,0.007 -0.014,0.01 -0.026,0.01 -0.02,0 -0.033,-0.017 -0.038,-0.05 -0.001,-0.006 -0.001,-0.01 -0.002,-0.013 -0.002,-0.013 -0.006,-0.022 -0.011,-0.027 -0.005,-0.005 -0.013,-0.007 -0.025,-0.007l-0.004 0 -0.016 0 0 0.057c0,0.006 0.001,0.01 0.003,0.012 0.002,0.002 0.005,0.003 0.011,0.003l0.018 0.001 0 0.017 -0.1 0zm0.318 -0.092l0 0.061c0,0.006 0.001,0.01 0.003,0.012 0.002,0.002 0.005,0.003 0.01,0.003l0.016 0c0.016,0 0.028,-0.003 0.035,-0.008 0.007,-0.006 0.011,-0.015 0.011,-0.027 0,-0.015 -0.004,-0.025 -0.012,-0.031 -0.008,-0.006 -0.023,-0.009 -0.043,-0.009l-0.019 0zm0 -0.017l0.039 0c0.025,0 0.044,0.005 0.057,0.014 0.013,0.009 0.02,0.022 0.02,0.04 0,0.018 -0.006,0.032 -0.018,0.042 -0.012,0.009 -0.03,0.014 -0.053,0.014l-0.114 0 0 -0.017 0.018 -0.001c0.006,-0 0.009,-0.001 0.011,-0.003 0.002,-0.002 0.002,-0.006 0.002,-0.012l0 -0.12c0,-0.006 -0.001,-0.011 -0.004,-0.013 -0.003,-0.002 -0.008,-0.003 -0.016,-0.003 -0.012,0 -0.022,0.004 -0.029,0.012 -0.007,0.008 -0.011,0.019 -0.013,0.035l-0.013 0 0 -0.063 0.143 0 0 0.017 -0.019 0.001c-0.005,0 -0.009,0.001 -0.011,0.003 -0.002,0.002 -0.002,0.006 -0.002,0.012l0 0.044zm0.257 0.005l0 -0.048c0,-0.006 -0.001,-0.01 -0.003,-0.012 -0.002,-0.002 -0.006,-0.003 -0.011,-0.003l-0.015 0c-0.015,0 -0.026,0.002 -0.033,0.007 -0.007,0.005 -0.01,0.012 -0.01,0.023 0,0.012 0.004,0.021 0.012,0.026 0.008,0.005 0.022,0.008 0.042,0.008l0.018 0zm-0.032 0.104l0 -0.017 0.018 -0.001c0.005,-0 0.009,-0.001 0.011,-0.003 0.002,-0.002 0.003,-0.006 0.003,-0.012l0 -0.057 -0.017 0c-0.011,0 -0.02,0.003 -0.026,0.008 -0.006,0.005 -0.01,0.013 -0.011,0.024l-0.003 0.026c-0.001,0.014 -0.005,0.023 -0.01,0.028 -0.005,0.005 -0.014,0.008 -0.025,0.008 -0.011,0 -0.02,-0.003 -0.026,-0.01 -0.006,-0.007 -0.008,-0.017 -0.008,-0.03l0 -0.006 0.012 0c0.001,0.011 0.002,0.018 0.003,0.021 0.002,0.004 0.004,0.005 0.008,0.005 0.002,0 0.004,-0.001 0.006,-0.004 0.002,-0.003 0.004,-0.007 0.005,-0.012l0.007 -0.029c0.003,-0.011 0.007,-0.018 0.013,-0.024 0.006,-0.005 0.015,-0.008 0.027,-0.009 -0.02,-0.001 -0.036,-0.006 -0.046,-0.014 -0.01,-0.008 -0.016,-0.019 -0.016,-0.033 0,-0.015 0.006,-0.026 0.017,-0.034 0.011,-0.008 0.028,-0.011 0.05,-0.011l0.108 0 0 0.017 -0.018 0.001c-0.005,0 -0.009,0.001 -0.011,0.003 -0.002,0.002 -0.003,0.006 -0.003,0.012l0 0.12c0,0.006 0.001,0.01 0.003,0.012 0.002,0.002 0.005,0.003 0.011,0.003l0.018 0.001 0 0.017 -0.1 0z"/>
 </g>
</svg>
