<?xml version="1.0" encoding="UTF-8"?>
<!DOCTYPE svg PUBLIC "-//W3C//DTD SVG 1.1//EN" "http://www.w3.org/Graphics/SVG/1.1/DTD/svg11.dtd">
<!-- Creator: CorelDRAW 2019 (64-Bit) -->
<svg xmlns="http://www.w3.org/2000/svg" xml:space="preserve" width="0.34338cm" height="0.39793cm" version="1.1" style="shape-rendering:geometricPrecision; text-rendering:geometricPrecision; image-rendering:optimizeQuality; fill-rule:evenodd; clip-rule:evenodd"
viewBox="0 0 0.054 0.062"
 xmlns:xlink="http://www.w3.org/1999/xlink"
 xmlns:xodm="http://www.corel.com/coreldraw/odm/2003">
 <defs>
  <style type="text/css">
   <![CDATA[
    .fil0 {fill:#9C6921;fill-rule:nonzero}
   ]]>
  </style>
 </defs>
 <g id="Слой_x0020_1">
  <metadata id="CorelCorpID_0Corel-Layer"/>
  <path class="fil0" d="M-0 0.062l0 -0.004 0.004 0c0.002,0 0.003,-0 0.004,-0.001 0.001,-0.001 0.001,-0.002 0.001,-0.003l0 -0.046c0,-0.001 -0,-0.003 -0.001,-0.003 -0.001,-0.001 -0.002,-0.001 -0.003,-0.001l-0.001 0 -0.004 0 0 -0.004 0.051 0 0.001 0.022 -0.004 0c-0.001,-0.007 -0.003,-0.012 -0.006,-0.015 -0.003,-0.002 -0.008,-0.004 -0.016,-0.004 -0.003,0 -0.005,0 -0.006,0.001 -0.001,0.001 -0.001,0.002 -0.001,0.004l0 0.02 0.001 0c0.005,0 0.008,-0.001 0.01,-0.003 0.002,-0.002 0.003,-0.005 0.003,-0.009l0.004 0 0 0.027 -0.004 0c-0,-0.005 -0.002,-0.008 -0.003,-0.009 -0.002,-0.002 -0.005,-0.003 -0.01,-0.003l-0.001 0 0 0.022c0,0.002 0,0.003 0.001,0.004 0.001,0.001 0.003,0.001 0.007,0.001 0.005,0 0.009,-0 0.011,-0.001 0.003,-0.001 0.005,-0.001 0.006,-0.003 0.001,-0.001 0.003,-0.003 0.004,-0.006 0.001,-0.003 0.002,-0.006 0.003,-0.011l0.003 0 -0.001 0.024 -0.053 0z"/>
 </g>
</svg>
