<?xml version="1.0" encoding="UTF-8"?>
<!DOCTYPE svg PUBLIC "-//W3C//DTD SVG 1.1//EN" "http://www.w3.org/Graphics/SVG/1.1/DTD/svg11.dtd">
<!-- Creator: CorelDRAW 2019 (64-Bit) -->
<svg xmlns="http://www.w3.org/2000/svg" xml:space="preserve" width="1.26387cm" height="0.508cm" version="1.1" style="shape-rendering:geometricPrecision; text-rendering:geometricPrecision; image-rendering:optimizeQuality; fill-rule:evenodd; clip-rule:evenodd"
viewBox="0 0 0.732 0.294"
 xmlns:xlink="http://www.w3.org/1999/xlink"
 xmlns:xodm="http://www.corel.com/coreldraw/odm/2003">
 <defs>
  <style type="text/css">
   <![CDATA[
    .fil1 {fill:#9C6921}
    .fil0 {fill:#9C6921;fill-rule:nonzero}
   ]]>
  </style>
 </defs>
 <g id="Слой_x0020_1">
  <metadata id="CorelCorpID_0Corel-Layer"/>
  <g id="_2187343736896">
   <path class="fil0" d="M0.114 0.017c0,-0.005 0.002,-0.009 0.005,-0.012 0.003,-0.003 0.008,-0.005 0.012,-0.005 0.005,0 0.009,0.002 0.012,0.005 0.003,0.003 0.005,0.008 0.005,0.012 0,0.005 -0.002,0.009 -0.005,0.012 -0.003,0.003 -0.007,0.005 -0.012,0.005 -0.005,0 -0.009,-0.002 -0.013,-0.005 -0.003,-0.003 -0.005,-0.008 -0.005,-0.012zm-0.056 0c0,-0.005 0.002,-0.009 0.005,-0.012 0.003,-0.003 0.008,-0.005 0.012,-0.005 0.005,0 0.009,0.002 0.012,0.005 0.003,0.003 0.005,0.008 0.005,0.012 0,0.005 -0.002,0.009 -0.005,0.012 -0.003,0.003 -0.008,0.005 -0.012,0.005 -0.005,0 -0.009,-0.002 -0.013,-0.005 -0.003,-0.003 -0.005,-0.008 -0.005,-0.013zm-0.058 0.271l0 -0.015 0.016 0c0.007,0 0.011,-0.001 0.013,-0.003 0.002,-0.002 0.003,-0.006 0.003,-0.012l0 -0.169c0,-0.005 -0.001,-0.009 -0.003,-0.012 -0.002,-0.002 -0.006,-0.003 -0.01,-0.003l-0.003 0 -0.016 0 0 -0.015 0.186 0 0.004 0.081 -0.014 0c-0.004,-0.027 -0.011,-0.045 -0.021,-0.054 -0.01,-0.009 -0.03,-0.013 -0.06,-0.013 -0.012,0 -0.019,0.001 -0.022,0.003 -0.003,0.002 -0.004,0.006 -0.004,0.013l0 0.073 0.002 0c0.018,0 0.031,-0.003 0.038,-0.009 0.007,-0.006 0.011,-0.018 0.013,-0.034l0.013 0 0 0.101 -0.013 0c-0.002,-0.017 -0.006,-0.028 -0.013,-0.034 -0.007,-0.006 -0.02,-0.009 -0.038,-0.009l-0.002 0 0 0.082c0,0.007 0.002,0.011 0.005,0.013 0.003,0.002 0.011,0.003 0.025,0.003 0.018,0 0.031,-0.001 0.042,-0.003 0.01,-0.002 0.018,-0.005 0.023,-0.009 0.005,-0.004 0.01,-0.011 0.014,-0.021 0.004,-0.01 0.007,-0.023 0.011,-0.04l0.012 0 -0.005 0.087 -0.193 0zm0.383 -0.147l0 0.014 -0.015 0c-0.004,0 -0.007,0.001 -0.009,0.003 -0.001,0.002 -0.002,0.005 -0.002,0.009l0 0.095c0,0.005 0.001,0.008 0.002,0.009 0.001,0.001 0.004,0.002 0.009,0.003l0.014 0.001 0 0.013 -0.08 0 0 -0.013 0.015 -0.001c0.004,-0 0.007,-0.001 0.009,-0.003 0.001,-0.001 0.002,-0.005 0.002,-0.009l0 -0.108 -0.018 0c-0.016,0 -0.025,0.014 -0.027,0.043 -0.001,0.013 -0.001,0.024 -0.002,0.033 -0.002,0.023 -0.006,0.039 -0.012,0.048 -0.005,0.009 -0.014,0.013 -0.026,0.013 -0.007,0 -0.013,-0.002 -0.018,-0.007 -0.005,-0.004 -0.007,-0.01 -0.007,-0.016 0,-0.007 0.002,-0.012 0.005,-0.015 0.003,-0.004 0.008,-0.005 0.014,-0.005 0.004,0 0.008,0.001 0.011,0.004 0.003,0.003 0.004,0.006 0.004,0.01 0,0.004 -0.001,0.007 -0.004,0.01 -0.003,0.003 -0.004,0.005 -0.004,0.005 0,0.001 0,0.001 0.001,0.002 0.001,0 0.001,0.001 0.003,0.001 0.004,0 0.008,-0.002 0.011,-0.006 0.003,-0.004 0.005,-0.009 0.006,-0.016 0.002,-0.01 0.004,-0.024 0.005,-0.04 0.002,-0.016 0.002,-0.031 0.002,-0.046 0,-0.007 -0.001,-0.011 -0.003,-0.013 -0.002,-0.002 -0.006,-0.003 -0.012,-0.003l-0.012 -0 0 -0.014 0.138 0zm0.021 0.147l0 -0.013 0.014 -0.001c0.004,-0 0.007,-0.001 0.009,-0.003 0.001,-0.001 0.002,-0.005 0.002,-0.009l0 -0.095c0,-0.005 -0.001,-0.008 -0.002,-0.009 -0.001,-0.001 -0.004,-0.002 -0.009,-0.003l-0.015 -0.001 0 -0.013 0.08 0 0 0.013 -0.015 0.001c-0.004,0 -0.007,0.001 -0.009,0.003 -0.001,0.002 -0.002,0.005 -0.002,0.009l0 0.038 0.009 0c0.009,0 0.017,-0.002 0.021,-0.005 0.005,-0.003 0.008,-0.01 0.01,-0.018 0,-0.002 0.001,-0.006 0.002,-0.011 0.005,-0.024 0.015,-0.036 0.03,-0.036 0.008,0 0.014,0.002 0.019,0.007 0.005,0.004 0.008,0.01 0.008,0.017 0,0.005 -0.001,0.01 -0.004,0.013 -0.003,0.003 -0.007,0.005 -0.012,0.005 -0.005,0 -0.008,-0.001 -0.011,-0.003 -0.003,-0.002 -0.004,-0.005 -0.004,-0.01 0,-0.003 0.001,-0.006 0.003,-0.008 0.002,-0.003 0.003,-0.004 0.003,-0.005 0,-0.001 -0,-0.001 -0.001,-0.002 -0.001,-0.001 -0.002,-0.001 -0.003,-0.001 -0.007,0 -0.012,0.008 -0.015,0.024l0 0 -0 0.001c-0.004,0.02 -0.01,0.032 -0.02,0.037 0.01,0.001 0.017,0.004 0.022,0.008 0.005,0.004 0.009,0.01 0.011,0.018 0.002,0.005 0.003,0.012 0.004,0.021 0.002,0.014 0.006,0.02 0.011,0.02 0.003,0 0.006,-0.001 0.007,-0.004 0.001,-0.003 0.002,-0.007 0.002,-0.013l0 -0.004 0.01 0c0,0.001 0,0.002 0,0.003 0,0.001 0,0.002 0,0.002 0,0.011 -0.002,0.019 -0.007,0.024 -0.005,0.005 -0.011,0.008 -0.02,0.008 -0.016,0 -0.026,-0.013 -0.03,-0.039 -0.001,-0.004 -0.001,-0.008 -0.002,-0.01 -0.002,-0.011 -0.004,-0.018 -0.008,-0.021 -0.004,-0.004 -0.01,-0.005 -0.019,-0.005l-0.003 0 -0.013 0 0 0.045c0,0.005 0.001,0.008 0.002,0.009 0.001,0.001 0.004,0.002 0.009,0.003l0.015 0.001 0 0.013 -0.08 0zm0.27 -0.079c-0.024,0.003 -0.041,0.008 -0.051,0.014 -0.011,0.007 -0.016,0.015 -0.016,0.026 0,0.009 0.002,0.015 0.006,0.019 0.004,0.004 0.01,0.006 0.019,0.006 0.013,0 0.023,-0.004 0.031,-0.012 0.008,-0.008 0.011,-0.019 0.011,-0.034l0 -0.021zm0.002 0.059c-0.006,0.008 -0.014,0.014 -0.024,0.018 -0.01,0.005 -0.021,0.007 -0.033,0.007 -0.013,0 -0.024,-0.004 -0.032,-0.011 -0.008,-0.007 -0.012,-0.016 -0.012,-0.028 0,-0.015 0.008,-0.028 0.023,-0.037 0.015,-0.009 0.041,-0.017 0.076,-0.022l0 -0.023c0,-0.007 -0.003,-0.013 -0.009,-0.017 -0.006,-0.004 -0.014,-0.006 -0.025,-0.006 -0.008,0 -0.015,0.001 -0.021,0.003 -0.005,0.002 -0.008,0.005 -0.008,0.008 0,0.001 0.001,0.003 0.004,0.006 0.003,0.003 0.004,0.007 0.004,0.011 0,0.005 -0.001,0.009 -0.004,0.012 -0.003,0.003 -0.007,0.004 -0.012,0.004 -0.006,0 -0.011,-0.002 -0.014,-0.005 -0.003,-0.003 -0.005,-0.008 -0.005,-0.013 0,-0.012 0.006,-0.021 0.017,-0.029 0.011,-0.008 0.026,-0.012 0.044,-0.012 0.02,0 0.035,0.004 0.044,0.011 0.009,0.007 0.014,0.019 0.014,0.036l0 0 0 0.075c0,0.004 0.001,0.007 0.003,0.01 0.002,0.002 0.005,0.003 0.009,0.003 0.002,0 0.005,-0.001 0.008,-0.002 0.003,-0.001 0.005,-0.002 0.005,-0.002 0.001,0 0.002,0 0.003,0.001 0.001,0.001 0.001,0.002 0.001,0.004 0,0.004 -0.003,0.009 -0.009,0.013 -0.006,0.004 -0.013,0.006 -0.021,0.006 -0.007,0 -0.013,-0.002 -0.018,-0.006 -0.005,-0.004 -0.008,-0.01 -0.009,-0.017z"/>
   <polygon class="fil1" points="0.661,0.06 0.686,0.06 0.65,0.116 0.643,0.115 "/>
  </g>
 </g>
</svg>
