<?xml version="1.0" encoding="UTF-8"?>
<!DOCTYPE svg PUBLIC "-//W3C//DTD SVG 1.1//EN" "http://www.w3.org/Graphics/SVG/1.1/DTD/svg11.dtd">
<!-- Creator: CorelDRAW 2019 (64-Bit) -->
<svg xmlns="http://www.w3.org/2000/svg" xml:space="preserve" width="1.47122cm" height="0.4064cm" version="1.1" style="shape-rendering:geometricPrecision; text-rendering:geometricPrecision; image-rendering:optimizeQuality; fill-rule:evenodd; clip-rule:evenodd"
viewBox="0 0 0.988 0.273"
 xmlns:xlink="http://www.w3.org/1999/xlink"
 xmlns:xodm="http://www.corel.com/coreldraw/odm/2003">
 <defs>
  <style type="text/css">
   <![CDATA[
    .fil0 {fill:#9C6921;fill-rule:nonzero}
   ]]>
  </style>
 </defs>
 <g id="Слой_x0020_1">
  <metadata id="CorelCorpID_0Corel-Layer"/>
  <path class="fil0" d="M0.167 0.138l-0.1 0 0 -0.018 0.1 0c-0.001,-0.033 -0.008,-0.059 -0.019,-0.077 -0.012,-0.018 -0.028,-0.027 -0.048,-0.027 -0.019,0 -0.035,0.008 -0.048,0.024 -0.014,0.016 -0.022,0.037 -0.025,0.064l-0.017 0 0.003 -0.102 0.014 0 0.014 0.022c0.009,-0.008 0.019,-0.014 0.029,-0.017 0.01,-0.004 0.021,-0.006 0.032,-0.006 0.032,0 0.059,0.013 0.081,0.039 0.022,0.026 0.033,0.058 0.033,0.096 0,0.041 -0.012,0.075 -0.035,0.1 -0.023,0.025 -0.054,0.038 -0.091,0.038 -0.027,0 -0.048,-0.006 -0.064,-0.018 -0.016,-0.012 -0.024,-0.028 -0.024,-0.047 0,-0.011 0.003,-0.02 0.009,-0.027 0.006,-0.007 0.014,-0.011 0.023,-0.011 0.008,0 0.014,0.002 0.018,0.006 0.004,0.004 0.006,0.01 0.006,0.017 0,0.005 -0.001,0.009 -0.004,0.013 -0.003,0.004 -0.006,0.006 -0.011,0.007 -0.001,0 -0.003,0.001 -0.005,0.001 -0.007,0.002 -0.011,0.005 -0.011,0.009 0,0.008 0.006,0.016 0.018,0.022 0.012,0.006 0.027,0.01 0.044,0.01 0.026,0 0.046,-0.009 0.06,-0.028 0.014,-0.019 0.021,-0.046 0.021,-0.081l0 -0.009zm0.067 0.129l0 -0.015 0.016 -0.001c0.005,-0 0.009,-0.001 0.01,-0.003 0.002,-0.002 0.002,-0.005 0.002,-0.01l0 -0.109c0,-0.005 -0.001,-0.009 -0.002,-0.01 -0.002,-0.002 -0.005,-0.003 -0.01,-0.003l-0.017 -0.001 0 -0.015 0.066 0 0.046 0.124 0.044 -0.124 0.069 0 0 0.015 -0.017 0.001c-0.005,0 -0.008,0.001 -0.01,0.003 -0.002,0.002 -0.002,0.005 -0.002,0.01l0 0.109c0,0.005 0.001,0.009 0.002,0.01 0.002,0.002 0.005,0.003 0.01,0.003l0.017 0.001 0 0.015 -0.089 0 0 -0.015 0.016 -0.001c0.005,-0 0.009,-0.001 0.01,-0.003 0.002,-0.002 0.002,-0.005 0.002,-0.01l0 -0.121 -0.054 0.151 -0.013 0 -0.057 -0.151 0 0.121c0,0.005 0.001,0.009 0.002,0.01 0.002,0.002 0.005,0.003 0.01,0.003l0.017 0.001 0 0.015 -0.071 0zm0.353 -0.096c0.005,0 0.008,-0.001 0.01,-0.002 0.002,-0.002 0.003,-0.005 0.003,-0.009 0,-0.016 -0.003,-0.029 -0.01,-0.038 -0.007,-0.009 -0.016,-0.013 -0.028,-0.013 -0.014,0 -0.024,0.005 -0.031,0.015 -0.007,0.01 -0.01,0.026 -0.011,0.047l0.067 0zm0.038 0.044l0.013 0.007c-0.008,0.017 -0.018,0.03 -0.031,0.038 -0.013,0.008 -0.028,0.013 -0.045,0.013 -0.023,0 -0.042,-0.008 -0.057,-0.025 -0.014,-0.016 -0.022,-0.038 -0.022,-0.064 0,-0.027 0.007,-0.048 0.022,-0.065 0.014,-0.017 0.033,-0.025 0.057,-0.025 0.023,0 0.042,0.008 0.056,0.023 0.014,0.015 0.021,0.036 0.021,0.062 0,0.001 -0,0.002 -0,0.003 -0,0.002 -0,0.003 -0,0.004l-0.118 0c0,0.001 -0,0.002 -0,0.004 -0,0.001 -0,0.003 -0,0.003 0,0.019 0.004,0.033 0.013,0.044 0.009,0.011 0.02,0.016 0.035,0.016 0.012,0 0.023,-0.003 0.033,-0.01 0.01,-0.007 0.018,-0.016 0.024,-0.029zm0.048 -0.12l0.01 0 0.009 0.014c0.006,-0.005 0.013,-0.009 0.02,-0.011 0.007,-0.002 0.014,-0.004 0.022,-0.004 0.017,0 0.03,0.004 0.039,0.012 0.01,0.008 0.014,0.018 0.014,0.032 0,0.01 -0.003,0.019 -0.01,0.026 -0.007,0.007 -0.017,0.011 -0.03,0.014 0.015,0.002 0.026,0.006 0.034,0.014 0.008,0.008 0.012,0.018 0.012,0.03 0,0.016 -0.007,0.028 -0.02,0.038 -0.013,0.009 -0.032,0.014 -0.054,0.014 -0.019,0 -0.034,-0.004 -0.045,-0.012 -0.011,-0.008 -0.017,-0.018 -0.017,-0.031 0,-0.008 0.002,-0.014 0.006,-0.019 0.004,-0.005 0.01,-0.008 0.016,-0.008 0.006,0 0.011,0.002 0.015,0.005 0.004,0.003 0.005,0.008 0.005,0.014 0,0.007 -0.003,0.012 -0.009,0.015 -0.006,0.003 -0.009,0.005 -0.009,0.005 0,0.005 0.003,0.008 0.009,0.012 0.006,0.003 0.014,0.005 0.024,0.005 0.013,0 0.023,-0.003 0.03,-0.01 0.007,-0.007 0.011,-0.015 0.011,-0.027 0,-0.013 -0.003,-0.022 -0.009,-0.028 -0.006,-0.006 -0.017,-0.009 -0.031,-0.009l-0.01 0 0 -0.014 0.009 0c0.012,0 0.022,-0.003 0.028,-0.008 0.006,-0.006 0.01,-0.014 0.01,-0.024 0,-0.009 -0.002,-0.017 -0.007,-0.022 -0.005,-0.005 -0.012,-0.008 -0.02,-0.008 -0.01,0 -0.02,0.004 -0.028,0.013 -0.008,0.008 -0.013,0.02 -0.016,0.034l-0.013 0 0.002 -0.06zm0.209 0.074l0.036 0c0.023,0 0.04,0.004 0.052,0.012 0.012,0.008 0.018,0.02 0.018,0.036 0,0.016 -0.005,0.029 -0.016,0.037 -0.011,0.008 -0.027,0.013 -0.048,0.013l-0.102 0 0 -0.015 0.016 -0.001c0.005,-0 0.008,-0.001 0.01,-0.003 0.002,-0.002 0.002,-0.005 0.002,-0.01l0 -0.109c0,-0.005 -0.001,-0.009 -0.002,-0.01 -0.002,-0.002 -0.005,-0.003 -0.01,-0.003l-0.017 -0.001 0 -0.015 0.091 0 0 0.015 -0.017 0.001c-0.005,0 -0.008,0.001 -0.01,0.003 -0.002,0.002 -0.002,0.005 -0.002,0.01l0 0.039zm0 0.015l0 0.055c0,0.005 0.001,0.009 0.002,0.011 0.002,0.002 0.005,0.003 0.01,0.003l0.014 0c0.015,0 0.025,-0.003 0.032,-0.008 0.006,-0.005 0.01,-0.013 0.01,-0.024 0,-0.013 -0.004,-0.023 -0.011,-0.028 -0.007,-0.005 -0.02,-0.008 -0.039,-0.008l-0.018 0z"/>
 </g>
</svg>
