<?xml version="1.0" encoding="UTF-8"?>
<!DOCTYPE svg PUBLIC "-//W3C//DTD SVG 1.1//EN" "http://www.w3.org/Graphics/SVG/1.1/DTD/svg11.dtd">
<!-- Creator: CorelDRAW 2019 (64-Bit) -->
<svg xmlns="http://www.w3.org/2000/svg" xml:space="preserve" width="1.28076cm" height="0.40639cm" version="1.1" style="shape-rendering:geometricPrecision; text-rendering:geometricPrecision; image-rendering:optimizeQuality; fill-rule:evenodd; clip-rule:evenodd"
viewBox="0 0 0.748 0.237"
 xmlns:xlink="http://www.w3.org/1999/xlink"
 xmlns:xodm="http://www.corel.com/coreldraw/odm/2003">
 <defs>
  <style type="text/css">
   <![CDATA[
    .fil0 {fill:#9C6921;fill-rule:nonzero}
   ]]>
  </style>
 </defs>
 <g id="Слой_x0020_1">
  <metadata id="CorelCorpID_0Corel-Layer"/>
  <path class="fil0" d="M0.14 0.177c0.023,-0.001 0.04,-0.007 0.051,-0.018 0.011,-0.01 0.017,-0.025 0.017,-0.045 0,-0.02 -0.006,-0.035 -0.017,-0.045 -0.011,-0.01 -0.028,-0.016 -0.051,-0.018l0 0.125zm-0.032 0l0 -0.125c-0.023,0.001 -0.04,0.007 -0.051,0.018 -0.011,0.01 -0.017,0.025 -0.017,0.045 0,0.02 0.006,0.035 0.017,0.045 0.011,0.01 0.028,0.016 0.051,0.018zm-0.034 0.04l0.017 0c0.007,0 0.011,-0.001 0.014,-0.003 0.002,-0.002 0.003,-0.006 0.003,-0.012l0 -0.011c-0.035,-0.001 -0.062,-0.008 -0.08,-0.021 -0.019,-0.013 -0.028,-0.031 -0.028,-0.055 0,-0.024 0.009,-0.042 0.028,-0.055 0.019,-0.013 0.045,-0.02 0.08,-0.021l0 -0.006c0,-0.006 -0.001,-0.01 -0.003,-0.013 -0.002,-0.002 -0.006,-0.004 -0.011,-0.004l-0.003 0 -0.017 0 0 -0.015 0.101 0 0 0.015 -0.021 0c-0.005,0 -0.008,0.001 -0.01,0.004 -0.002,0.002 -0.003,0.006 -0.003,0.012l0 0.007c0.035,0.001 0.061,0.008 0.08,0.021 0.019,0.013 0.028,0.032 0.028,0.055 0,0.024 -0.009,0.042 -0.028,0.055 -0.019,0.013 -0.045,0.02 -0.08,0.021l0 0.011c0,0.006 0.001,0.01 0.004,0.012 0.002,0.002 0.007,0.003 0.014,0.003l0.017 0 0 0.015 -0.101 0 0 -0.015zm0.359 -0.134l0 0.014 -0.015 0c-0.005,0 -0.007,0.001 -0.009,0.003 -0.001,0.002 -0.002,0.005 -0.002,0.009l0 0.097c0,0.005 0.001,0.008 0.002,0.009 0.001,0.002 0.004,0.002 0.009,0.003l0.015 0.001 0 0.014 -0.081 0 0 -0.014 0.015 -0.001c0.005,-0 0.007,-0.001 0.009,-0.003 0.001,-0.002 0.002,-0.005 0.002,-0.009l0 -0.109 -0.019 0c-0.016,0 -0.026,0.015 -0.027,0.044 -0.001,0.013 -0.002,0.024 -0.002,0.033 -0.002,0.024 -0.006,0.04 -0.012,0.048 -0.006,0.009 -0.014,0.013 -0.026,0.013 -0.007,0 -0.013,-0.002 -0.018,-0.007 -0.005,-0.004 -0.007,-0.01 -0.007,-0.016 0,-0.007 0.002,-0.012 0.005,-0.016 0.003,-0.004 0.008,-0.006 0.014,-0.006 0.004,0 0.008,0.001 0.011,0.004 0.003,0.003 0.004,0.006 0.004,0.01 0,0.004 -0.001,0.007 -0.004,0.01 -0.003,0.003 -0.004,0.005 -0.004,0.005 0,0.001 0,0.001 0.001,0.002 0.001,0 0.002,0.001 0.003,0.001 0.004,0 0.008,-0.002 0.011,-0.006 0.003,-0.004 0.005,-0.009 0.006,-0.017 0.002,-0.01 0.004,-0.024 0.006,-0.04 0.002,-0.016 0.002,-0.032 0.002,-0.047 0,-0.007 -0.001,-0.011 -0.003,-0.013 -0.002,-0.002 -0.006,-0.003 -0.012,-0.004l-0.013 -0 0 -0.014 0.14 0zm0.121 0.069c-0.024,0.003 -0.041,0.008 -0.052,0.015 -0.011,0.007 -0.016,0.016 -0.016,0.027 0,0.009 0.002,0.015 0.006,0.02 0.004,0.004 0.011,0.006 0.019,0.006 0.013,0 0.024,-0.004 0.031,-0.012 0.008,-0.008 0.012,-0.02 0.012,-0.034l0 -0.021zm0.002 0.06c-0.006,0.008 -0.014,0.014 -0.024,0.019 -0.011,0.005 -0.022,0.007 -0.033,0.007 -0.013,0 -0.024,-0.004 -0.032,-0.011 -0.008,-0.007 -0.012,-0.017 -0.012,-0.028 0,-0.015 0.008,-0.028 0.023,-0.037 0.016,-0.009 0.041,-0.017 0.077,-0.023l0 -0.023c0,-0.007 -0.003,-0.013 -0.009,-0.017 -0.006,-0.004 -0.014,-0.006 -0.026,-0.006 -0.008,0 -0.015,0.001 -0.021,0.003 -0.005,0.002 -0.008,0.005 -0.008,0.008 0,0.001 0.001,0.003 0.004,0.006 0.003,0.003 0.004,0.007 0.004,0.012 0,0.005 -0.002,0.009 -0.005,0.012 -0.003,0.003 -0.007,0.004 -0.012,0.004 -0.006,0 -0.011,-0.002 -0.014,-0.005 -0.003,-0.003 -0.005,-0.008 -0.005,-0.013 0,-0.012 0.006,-0.022 0.017,-0.029 0.012,-0.008 0.026,-0.012 0.045,-0.012 0.021,0 0.035,0.004 0.045,0.011 0.009,0.007 0.014,0.019 0.014,0.036l0 0 0 0.076c0,0.004 0.001,0.007 0.003,0.01 0.002,0.002 0.005,0.003 0.009,0.003 0.002,0 0.005,-0.001 0.008,-0.002 0.003,-0.001 0.005,-0.002 0.005,-0.002 0.001,0 0.002,0 0.003,0.001 0.001,0.001 0.001,0.002 0.001,0.004 0,0.004 -0.003,0.009 -0.009,0.013 -0.006,0.004 -0.013,0.007 -0.021,0.007 -0.007,0 -0.014,-0.002 -0.018,-0.006 -0.005,-0.004 -0.008,-0.01 -0.009,-0.018zm0.066 0.021l0 -0.014 0.015 -0.001c0.005,-0 0.008,-0.001 0.009,-0.003 0.001,-0.002 0.002,-0.005 0.002,-0.009l0 -0.097c0,-0.005 -0.001,-0.008 -0.002,-0.009 -0.001,-0.002 -0.004,-0.002 -0.009,-0.003l-0.015 -0.001 0 -0.014 0.123 0 0.003 0.053 -0.012 0c-0.003,-0.014 -0.007,-0.024 -0.013,-0.03 -0.006,-0.006 -0.016,-0.009 -0.029,-0.009 -0.007,0 -0.011,0.001 -0.013,0.002 -0.002,0.001 -0.003,0.005 -0.003,0.01l0 0.097c0,0.005 0.001,0.008 0.002,0.009 0.001,0.002 0.004,0.002 0.009,0.003l0.015 0.001 0 0.014 -0.081 0z"/>
 </g>
</svg>
