<?xml version="1.0" encoding="UTF-8"?>
<!DOCTYPE svg PUBLIC "-//W3C//DTD SVG 1.1//EN" "http://www.w3.org/Graphics/SVG/1.1/DTD/svg11.dtd">
<!-- Creator: CorelDRAW 2019 (64-Bit) -->
<svg xmlns="http://www.w3.org/2000/svg" xml:space="preserve" width="1.95177cm" height="0.508cm" version="1.1" style="shape-rendering:geometricPrecision; text-rendering:geometricPrecision; image-rendering:optimizeQuality; fill-rule:evenodd; clip-rule:evenodd"
viewBox="0 0 1.746 0.454"
 xmlns:xlink="http://www.w3.org/1999/xlink"
 xmlns:xodm="http://www.corel.com/coreldraw/odm/2003">
 <defs>
  <style type="text/css">
   <![CDATA[
    .fil0 {fill:#9C6921;fill-rule:nonzero}
   ]]>
  </style>
 </defs>
 <g id="Слой_x0020_1">
  <metadata id="CorelCorpID_0Corel-Layer"/>
  <path class="fil0" d="M-0 0.353l0 -0.023 0.025 0c0.01,0 0.017,-0.002 0.021,-0.005 0.004,-0.003 0.005,-0.01 0.005,-0.019l0 -0.26c0,-0.008 -0.002,-0.014 -0.005,-0.018 -0.003,-0.004 -0.009,-0.005 -0.016,-0.005l-0.005 0 -0.025 0 0 -0.023 0.286 0 0.006 0.125 -0.021 0c-0.007,-0.042 -0.018,-0.069 -0.033,-0.083 -0.015,-0.013 -0.046,-0.02 -0.093,-0.02 -0.018,0 -0.03,0.002 -0.035,0.005 -0.005,0.003 -0.007,0.01 -0.007,0.02l0 0.26c0,0.009 0.002,0.015 0.005,0.019 0.004,0.003 0.012,0.005 0.024,0.005l0.022 0 0 0.023 -0.156 0zm0.423 -0.214c-0.021,0 -0.036,0.008 -0.045,0.024 -0.01,0.016 -0.014,0.042 -0.014,0.077 0,0.035 0.005,0.061 0.014,0.077 0.009,0.016 0.024,0.024 0.045,0.024 0.021,0 0.036,-0.008 0.046,-0.024 0.01,-0.016 0.014,-0.042 0.014,-0.077 0,-0.035 -0.005,-0.061 -0.014,-0.077 -0.01,-0.016 -0.025,-0.024 -0.045,-0.024zm0 -0.02c0.032,0 0.059,0.011 0.079,0.034 0.02,0.023 0.031,0.052 0.031,0.087 0,0.036 -0.01,0.065 -0.03,0.087 -0.02,0.022 -0.047,0.033 -0.079,0.033 -0.032,0 -0.059,-0.011 -0.079,-0.034 -0.02,-0.022 -0.031,-0.051 -0.031,-0.087 0,-0.036 0.01,-0.065 0.031,-0.088 0.02,-0.022 0.047,-0.034 0.079,-0.034zm0.324 0.047c0,-0.007 -0.001,-0.012 -0.003,-0.014 -0.002,-0.002 -0.007,-0.004 -0.013,-0.004l-0.023 -0.001 0 -0.021 0.122 0 0 0.021 -0.022 0.001c-0.007,0 -0.011,0.002 -0.013,0.004 -0.002,0.002 -0.003,0.007 -0.003,0.014l0 0.147c0,0.007 0.001,0.012 0.003,0.014 0.002,0.002 0.007,0.004 0.013,0.004l0.022 0.001 0 0.021 -0.122 0 0 -0.021 0.022 -0.001c0.007,-0 0.012,-0.002 0.014,-0.004 0.002,-0.002 0.003,-0.007 0.003,-0.014l0 -0.068 -0.102 0 0 0.068c0,0.007 0.001,0.012 0.003,0.014 0.002,0.002 0.007,0.003 0.013,0.004l0.022 0.001 0 0.021 -0.122 0 0 -0.021 0.022 -0.001c0.007,-0 0.011,-0.002 0.013,-0.004 0.002,-0.002 0.003,-0.007 0.003,-0.014l0 -0.147c0,-0.007 -0.001,-0.012 -0.003,-0.014 -0.002,-0.002 -0.006,-0.004 -0.013,-0.004l-0.023 -0.001 0 -0.021 0.122 0 0 0.021 -0.022 0.001c-0.007,0 -0.011,0.002 -0.013,0.004 -0.002,0.002 -0.003,0.007 -0.003,0.014l0 0.058 0.102 0 0 -0.058zm0.16 0.166l0.101 0 0 -0.185 -0.024 0c-0.015,0 -0.024,0.003 -0.03,0.008 -0.005,0.005 -0.009,0.02 -0.012,0.045 -0.003,0.031 -0.008,0.056 -0.014,0.077 -0.006,0.021 -0.013,0.039 -0.022,0.054zm0.185 -0.206l0 0.021 -0.023 0c-0.007,0 -0.011,0.002 -0.013,0.004 -0.002,0.002 -0.003,0.007 -0.003,0.014l0 0.147c0,0.007 0.001,0.012 0.003,0.014 0.002,0.002 0.006,0.003 0.013,0.004l0.022 0.001 0 0.087 -0.018 0c-0.003,-0.026 -0.009,-0.044 -0.019,-0.053 -0.01,-0.009 -0.033,-0.014 -0.071,-0.014l-0.035 0c-0.033,0 -0.054,0.005 -0.064,0.014 -0.01,0.009 -0.016,0.027 -0.018,0.053l-0.018 0 0 -0.087 0.006 0c0.012,0 0.021,-0.002 0.028,-0.007 0.007,-0.005 0.013,-0.014 0.018,-0.027 0.007,-0.015 0.012,-0.035 0.017,-0.058 0.005,-0.024 0.007,-0.045 0.007,-0.063 0,-0.012 -0.001,-0.019 -0.004,-0.023 -0.003,-0.003 -0.009,-0.005 -0.019,-0.006l-0.019 -0 0 -0.021 0.209 0zm0.266 0.226l0 -0.021 0.022 -0.001c0.007,-0 0.011,-0.002 0.014,-0.004 0.002,-0.002 0.003,-0.007 0.003,-0.014l0 -0.147c0,-0.007 -0.001,-0.012 -0.003,-0.014 -0.002,-0.002 -0.007,-0.004 -0.013,-0.004l-0.023 -0.001 0 -0.021 0.122 0 0 0.021 -0.022 0.001c-0.007,0 -0.011,0.002 -0.013,0.004 -0.002,0.002 -0.003,0.007 -0.003,0.014l0 0.147c0,0.007 0.001,0.012 0.003,0.014 0.002,0.002 0.007,0.004 0.013,0.004l0.022 0.001 0 0.021 -0.122 0zm-0.151 -0.113l0 0.074c0,0.007 0.001,0.012 0.003,0.015 0.002,0.002 0.007,0.004 0.013,0.004l0.019 0c0.02,0 0.034,-0.003 0.043,-0.01 0.009,-0.007 0.013,-0.018 0.013,-0.033 0,-0.018 -0.005,-0.031 -0.015,-0.038 -0.01,-0.007 -0.028,-0.011 -0.053,-0.011l-0.024 0zm0 -0.021l0.048 0c0.031,0 0.054,0.006 0.07,0.017 0.016,0.011 0.024,0.027 0.024,0.049 0,0.022 -0.007,0.039 -0.022,0.051 -0.015,0.011 -0.036,0.017 -0.065,0.017l-0.139 0 0 -0.021 0.022 -0.001c0.007,-0 0.011,-0.002 0.014,-0.004 0.002,-0.002 0.003,-0.007 0.003,-0.014l0 -0.147c0,-0.007 -0.001,-0.012 -0.003,-0.014 -0.002,-0.002 -0.007,-0.004 -0.013,-0.004l-0.023 -0.001 0 -0.021 0.123 0 0 0.021 -0.023 0.001c-0.007,0 -0.011,0.002 -0.013,0.004 -0.002,0.002 -0.003,0.007 -0.003,0.014l0 0.053zm0.431 0.115c0.02,0 0.035,-0.007 0.044,-0.023 0.01,-0.015 0.014,-0.039 0.014,-0.071 0,-0.032 -0.004,-0.056 -0.014,-0.071 -0.009,-0.015 -0.023,-0.023 -0.043,-0.023 -0.021,0 -0.037,0.007 -0.047,0.022 -0.01,0.015 -0.015,0.039 -0.015,0.072 0,0.033 0.005,0.057 0.014,0.071 0.009,0.015 0.024,0.022 0.045,0.022zm-0.141 0.1l0.021 -0.001c0.007,-0 0.011,-0.002 0.013,-0.004 0.002,-0.002 0.003,-0.007 0.003,-0.014l0 -0.247c0,-0.008 -0.002,-0.014 -0.005,-0.017 -0.003,-0.003 -0.01,-0.004 -0.021,-0.004l-0.005 0c0,0 -0,0 -0.001,0 -0.002,0 -0.004,0 -0.006,0l0 -0.021 0.079 -0.006 0 0.042c0.009,-0.015 0.02,-0.026 0.031,-0.033 0.012,-0.007 0.025,-0.011 0.04,-0.011 0.029,0 0.052,0.011 0.071,0.034 0.019,0.023 0.028,0.052 0.028,0.087 0,0.035 -0.01,0.064 -0.029,0.087 -0.019,0.023 -0.043,0.034 -0.071,0.034 -0.015,0 -0.028,-0.003 -0.038,-0.008 -0.011,-0.005 -0.02,-0.014 -0.03,-0.027l0 0.089c0,0.007 0.001,0.011 0.003,0.014 0.002,0.002 0.007,0.004 0.014,0.004l0.02 0.001 0 0.021 -0.119 0 0 -0.021z"/>
 </g>
</svg>
