<?xml version="1.0" encoding="UTF-8"?>
<!DOCTYPE svg PUBLIC "-//W3C//DTD SVG 1.1//EN" "http://www.w3.org/Graphics/SVG/1.1/DTD/svg11.dtd">
<!-- Creator: CorelDRAW 2019 (64-Bit) -->
<svg xmlns="http://www.w3.org/2000/svg" xml:space="preserve" width="1.53595cm" height="0.4064cm" version="1.1" style="shape-rendering:geometricPrecision; text-rendering:geometricPrecision; image-rendering:optimizeQuality; fill-rule:evenodd; clip-rule:evenodd"
viewBox="0 0 1.076 0.285"
 xmlns:xlink="http://www.w3.org/1999/xlink"
 xmlns:xodm="http://www.corel.com/coreldraw/odm/2003">
 <defs>
  <style type="text/css">
   <![CDATA[
    .fil0 {fill:#9C6921;fill-rule:nonzero}
   ]]>
  </style>
 </defs>
 <g id="Слой_x0020_1">
  <metadata id="CorelCorpID_0Corel-Layer"/>
  <path class="fil0" d="M0.107 0.26l0 0.018 -0.107 0 0 -0.018 0.003 0c0.011,0 0.021,-0.003 0.03,-0.01 0.009,-0.007 0.02,-0.02 0.033,-0.038l0.049 -0.07 -0.076 -0.109c-0.005,-0.006 -0.008,-0.01 -0.012,-0.012 -0.003,-0.002 -0.007,-0.003 -0.013,-0.003l-0.013 0 0 -0.018 0.116 0 0 0.018 -0.021 0c-0.003,0 -0.005,0.001 -0.007,0.001 -0.002,0.001 -0.003,0.002 -0.003,0.004 0,0.001 0,0.003 0.001,0.004 0,0.001 0.001,0.003 0.003,0.006l0.049 0.073 0.04 -0.058c0.002,-0.003 0.004,-0.006 0.005,-0.009 0.001,-0.003 0.002,-0.005 0.002,-0.008 0,-0.005 -0.002,-0.008 -0.006,-0.011 -0.004,-0.002 -0.011,-0.004 -0.019,-0.004l-0.006 0 0 -0.018 0.103 0 0 0.018c-0.012,0 -0.023,0.002 -0.03,0.007 -0.008,0.004 -0.016,0.013 -0.026,0.026l-0.051 0.073 0.08 0.117c0.006,0.008 0.011,0.013 0.016,0.016 0.005,0.003 0.012,0.004 0.021,0.004l0.005 0 0 0.018 -0.125 0 0 -0.018 0.018 0c0.007,0 0.011,-0.001 0.014,-0.002 0.003,-0.001 0.004,-0.003 0.004,-0.006 0,-0.002 -0,-0.004 -0.001,-0.006 -0.001,-0.002 -0.003,-0.005 -0.006,-0.01l-0.053 -0.078 -0.04 0.056c-0.004,0.006 -0.008,0.011 -0.009,0.015 -0.002,0.004 -0.003,0.008 -0.003,0.012 0,0.006 0.003,0.01 0.007,0.013 0.005,0.003 0.012,0.004 0.022,0.004l0.004 0zm0.298 -0.078c-0.029,0.004 -0.05,0.01 -0.063,0.018 -0.013,0.008 -0.02,0.019 -0.02,0.032 0,0.011 0.003,0.018 0.008,0.024 0.005,0.005 0.013,0.008 0.023,0.008 0.016,0 0.028,-0.005 0.038,-0.015 0.009,-0.01 0.014,-0.023 0.014,-0.041l0 -0.025zm0.002 0.071c-0.007,0.009 -0.017,0.017 -0.029,0.022 -0.013,0.006 -0.026,0.009 -0.04,0.009 -0.016,0 -0.029,-0.004 -0.039,-0.013 -0.01,-0.009 -0.015,-0.02 -0.015,-0.034 0,-0.019 0.009,-0.034 0.028,-0.045 0.019,-0.011 0.049,-0.02 0.092,-0.027l0 -0.028c0,-0.009 -0.004,-0.016 -0.011,-0.021 -0.007,-0.005 -0.017,-0.007 -0.031,-0.007 -0.01,0 -0.018,0.001 -0.025,0.004 -0.006,0.003 -0.01,0.006 -0.01,0.01 0,0.001 0.001,0.003 0.005,0.008 0.003,0.004 0.005,0.009 0.005,0.014 0,0.006 -0.002,0.011 -0.005,0.014 -0.004,0.003 -0.008,0.005 -0.015,0.005 -0.007,0 -0.013,-0.002 -0.017,-0.006 -0.004,-0.004 -0.006,-0.009 -0.006,-0.016 0,-0.014 0.007,-0.026 0.021,-0.035 0.014,-0.009 0.032,-0.014 0.053,-0.014 0.025,0 0.043,0.004 0.054,0.013 0.011,0.009 0.017,0.023 0.017,0.043l0 0 0 0.091c0,0.005 0.001,0.009 0.004,0.012 0.003,0.003 0.006,0.004 0.011,0.004 0.003,0 0.006,-0.001 0.009,-0.003 0.003,-0.002 0.006,-0.003 0.007,-0.003 0.001,0 0.003,0.001 0.004,0.002 0.001,0.001 0.001,0.003 0.001,0.005 0,0.005 -0.004,0.01 -0.011,0.016 -0.007,0.005 -0.016,0.008 -0.025,0.008 -0.009,0 -0.016,-0.003 -0.022,-0.007 -0.006,-0.005 -0.009,-0.012 -0.011,-0.021zm0.271 -0.154l0 0.017 -0.018 0c-0.005,0 -0.009,0.001 -0.011,0.003 -0.002,0.002 -0.002,0.006 -0.002,0.011l0 0.116c0,0.006 0.001,0.009 0.002,0.011 0.002,0.002 0.005,0.003 0.011,0.003l0.018 0.001 0 0.016 -0.097 0 0 -0.016 0.018 -0.001c0.005,-0 0.009,-0.001 0.011,-0.003 0.002,-0.002 0.003,-0.006 0.003,-0.011l0 -0.131 -0.022 0c-0.02,0 -0.031,0.017 -0.033,0.052 -0.001,0.016 -0.002,0.029 -0.003,0.04 -0.003,0.028 -0.007,0.048 -0.014,0.058 -0.007,0.01 -0.017,0.016 -0.031,0.016 -0.009,0 -0.016,-0.003 -0.022,-0.008 -0.006,-0.005 -0.009,-0.012 -0.009,-0.019 0,-0.008 0.002,-0.014 0.006,-0.019 0.004,-0.004 0.01,-0.007 0.017,-0.007 0.005,0 0.01,0.002 0.013,0.005 0.003,0.003 0.005,0.007 0.005,0.012 0,0.005 -0.002,0.009 -0.005,0.012 -0.003,0.003 -0.005,0.006 -0.005,0.006 0,0.001 0,0.001 0.001,0.002 0.001,0.001 0.002,0.001 0.003,0.001 0.005,0 0.01,-0.002 0.013,-0.007 0.003,-0.005 0.006,-0.011 0.008,-0.02 0.003,-0.013 0.005,-0.029 0.007,-0.048 0.002,-0.02 0.003,-0.038 0.003,-0.056 0,-0.008 -0.001,-0.013 -0.004,-0.016 -0.002,-0.003 -0.007,-0.004 -0.015,-0.004l-0.015 -0 0 -0.017 0.168 0zm0.145 0.082c-0.029,0.004 -0.05,0.01 -0.063,0.018 -0.013,0.008 -0.02,0.019 -0.02,0.032 0,0.011 0.003,0.018 0.008,0.024 0.005,0.005 0.013,0.008 0.023,0.008 0.016,0 0.028,-0.005 0.038,-0.015 0.009,-0.01 0.014,-0.023 0.014,-0.041l0 -0.025zm0.002 0.071c-0.007,0.009 -0.017,0.017 -0.029,0.022 -0.013,0.006 -0.026,0.009 -0.04,0.009 -0.016,0 -0.029,-0.004 -0.039,-0.013 -0.01,-0.009 -0.015,-0.02 -0.015,-0.034 0,-0.019 0.009,-0.034 0.028,-0.045 0.019,-0.011 0.049,-0.02 0.092,-0.027l0 -0.028c0,-0.009 -0.004,-0.016 -0.011,-0.021 -0.007,-0.005 -0.017,-0.007 -0.031,-0.007 -0.01,0 -0.018,0.001 -0.025,0.004 -0.006,0.003 -0.01,0.006 -0.01,0.01 0,0.001 0.001,0.003 0.005,0.008 0.003,0.004 0.005,0.009 0.005,0.014 0,0.006 -0.002,0.011 -0.005,0.014 -0.004,0.003 -0.008,0.005 -0.015,0.005 -0.007,0 -0.013,-0.002 -0.017,-0.006 -0.004,-0.004 -0.006,-0.009 -0.006,-0.016 0,-0.014 0.007,-0.026 0.021,-0.035 0.014,-0.009 0.032,-0.014 0.053,-0.014 0.025,0 0.043,0.004 0.054,0.013 0.011,0.009 0.017,0.023 0.017,0.043l0 0 0 0.091c0,0.005 0.001,0.009 0.004,0.012 0.003,0.003 0.006,0.004 0.011,0.004 0.003,0 0.006,-0.001 0.009,-0.003 0.003,-0.002 0.006,-0.003 0.007,-0.003 0.001,0 0.003,0.001 0.004,0.002 0.001,0.001 0.001,0.003 0.001,0.005 0,0.005 -0.004,0.01 -0.011,0.016 -0.007,0.005 -0.016,0.008 -0.025,0.008 -0.009,0 -0.016,-0.003 -0.022,-0.007 -0.006,-0.005 -0.009,-0.012 -0.011,-0.021zm0.114 0.025l0 -0.016 0.018 -0.001c0.005,-0 0.009,-0.001 0.011,-0.003 0.002,-0.002 0.003,-0.006 0.003,-0.011l0 -0.121c0,-0.004 -0.001,-0.006 -0.003,-0.008 -0.002,-0.002 -0.005,-0.003 -0.01,-0.003 -0.014,0 -0.024,0.004 -0.03,0.012 -0.006,0.008 -0.011,0.023 -0.015,0.045l-0.012 0 0.003 -0.072 0.168 0 0.004 0.072 -0.013 0c-0.004,-0.023 -0.009,-0.038 -0.015,-0.045 -0.006,-0.008 -0.016,-0.011 -0.029,-0.011 -0.005,0 -0.008,0.001 -0.01,0.003 -0.002,0.002 -0.003,0.005 -0.003,0.01l0 0.119c0,0.006 0.001,0.009 0.003,0.011 0.002,0.002 0.005,0.003 0.011,0.003l0.018 0.001 0 0.016 -0.097 0z"/>
 </g>
</svg>
