<?xml version="1.0" encoding="UTF-8"?>
<!DOCTYPE svg PUBLIC "-//W3C//DTD SVG 1.1//EN" "http://www.w3.org/Graphics/SVG/1.1/DTD/svg11.dtd">
<!-- Creator: CorelDRAW -->
<svg xmlns="http://www.w3.org/2000/svg" xml:space="preserve" width="72.7666mm" height="22.7126mm" version="1.1" style="shape-rendering:geometricPrecision; text-rendering:geometricPrecision; image-rendering:optimizeQuality; fill-rule:evenodd; clip-rule:evenodd"
viewBox="0 0 365 113.93"
 xmlns:xlink="http://www.w3.org/1999/xlink"
 xmlns:xodm="http://www.corel.com/coreldraw/odm/2003">
 <defs>
  <style type="text/css">
   <![CDATA[
    .fil0 {fill:#75653B;fill-rule:nonzero}
   ]]>
  </style>
 </defs>
 <g id="Слой_x0020_1">
  <metadata id="CorelCorpID_0Corel-Layer"/>
  <path class="fil0" d="M33.45 57.91l0 41.13c0,3.03 0.58,5.02 1.76,6 1.18,0.97 3.47,1.47 6.86,1.47l11.25 0c9.7,0 16.65,-1.84 20.78,-5.55 4.13,-3.68 6.21,-9.81 6.21,-18.33 0,-8.78 -2.52,-15.1 -7.6,-18.93 -5.05,-3.87 -13.41,-5.79 -25.09,-5.79l-14.18 0zm68.8 -57.91l51.44 0 0 7.42 -10.41 0c-2.26,0 -3.89,0.58 -4.92,1.76 -1.03,1.18 -1.55,3.13 -1.55,5.79l0 83.92c0,2.92 0.58,4.92 1.74,6 1.16,1.08 3.42,1.63 6.81,1.63l8.34 0 0 7.42 -51.44 0 0 -7.42 8.49 0c3.39,0 5.65,-0.55 6.81,-1.63 1.16,-1.08 1.74,-3.08 1.74,-6l0 -83.92c0,-2.71 -0.55,-4.66 -1.63,-5.81 -1.08,-1.16 -2.84,-1.74 -5.31,-1.74l-1.6 0 -8.49 0 0 -7.42zm-102.25 0l50.02 0 0 7.42 -10.26 0c-2.21,0 -3.81,0.58 -4.81,1.76 -1,1.18 -1.5,3.13 -1.5,5.79l0 35.69 20.96 0c14.99,0 26.27,2.71 33.82,8.13 7.55,5.42 11.34,13.52 11.34,24.25 0,9.81 -3.63,17.41 -10.92,22.8 -7.26,5.39 -17.57,8.1 -30.93,8.1l-57.73 0 0 -7.42 8.18 0c3.29,0 5.5,-0.55 6.65,-1.63 1.16,-1.08 1.74,-3.08 1.74,-6l0 -83.92c0,-2.71 -0.53,-4.66 -1.58,-5.81 -1.05,-1.16 -2.79,-1.74 -5.21,-1.74l-1.6 0 -8.18 0 0 -7.42zm325.55 113.93l0 -6.63 7.2 -0.32c2.21,-0.11 3.68,-0.53 4.37,-1.26 0.71,-0.74 1.05,-2.29 1.05,-4.58l0 -47.5c0,-2.29 -0.34,-3.84 -1.05,-4.58 -0.68,-0.74 -2.13,-1.16 -4.29,-1.26l-7.29 -0.32 0 -6.63 39.45 0 0 6.63 -7.15 0.32c-2.21,0.1 -3.65,0.53 -4.31,1.26 -0.66,0.74 -1,2.3 -1,4.58l0 47.5c0,2.28 0.34,3.84 1.05,4.58 0.68,0.74 2.13,1.16 4.34,1.26l7.07 0.32 0 6.63 -39.45 0zm-48.6 -36.45l0 23.96c0,2.36 0.37,3.95 1.08,4.71 0.71,0.76 2.13,1.16 4.23,1.16l6.15 0c6.47,0 11.12,-1.11 13.96,-3.31 2.81,-2.21 4.23,-5.78 4.23,-10.7 0,-5.81 -1.61,-9.89 -4.81,-12.26 -3.2,-2.36 -8.95,-3.55 -17.15,-3.55l-7.71 0zm0 -6.63l15.54 0c9.89,0 17.41,1.81 22.59,5.44 5.18,3.6 7.78,8.84 7.78,15.67 0,7.18 -2.4,12.66 -7.18,16.38 -4.75,3.7 -11.76,5.58 -20.96,5.58l-44.76 0 0 -6.63 7.21 -0.32c2.21,-0.11 3.68,-0.53 4.36,-1.26 0.71,-0.74 1.05,-2.29 1.05,-4.58l0 -47.5c0,-2.29 -0.34,-3.84 -1.05,-4.58 -0.68,-0.74 -2.13,-1.16 -4.29,-1.26l-7.29 -0.32 0 -6.63 39.61 0 0 6.63 -7.31 0.32c-2.21,0.1 -3.66,0.53 -4.31,1.26 -0.65,0.73 -1,2.3 -1,4.58l0 17.2z"/>
 </g>
</svg>
