<?xml version="1.0" encoding="UTF-8"?>
<!DOCTYPE svg PUBLIC "-//W3C//DTD SVG 1.1//EN" "http://www.w3.org/Graphics/SVG/1.1/DTD/svg11.dtd">
<!-- Creator: CorelDRAW -->
<svg xmlns="http://www.w3.org/2000/svg" xml:space="preserve" width="50.7456mm" height="23.9008mm" version="1.1" style="shape-rendering:geometricPrecision; text-rendering:geometricPrecision; image-rendering:optimizeQuality; fill-rule:evenodd; clip-rule:evenodd"
viewBox="0 0 180.47 85"
 xmlns:xlink="http://www.w3.org/1999/xlink"
 xmlns:xodm="http://www.corel.com/coreldraw/odm/2003">
 <defs>
  <style type="text/css">
   <![CDATA[
    .fil0 {fill:#75653B;fill-rule:nonzero}
   ]]>
  </style>
 </defs>
 <g id="Слой_x0020_1">
  <metadata id="CorelCorpID_0Corel-Layer"/>
  <path class="fil0" d="M168.89 57.79l-17.99 -0.06 0 -4.33 17.76 0c0,-6.02 -1.22,-10.79 -3.65,-14.35 -2.42,-3.54 -5.64,-5.32 -9.61,-5.32 -3.56,0 -6.6,1.27 -9.14,3.82 -2.53,2.55 -4.27,6.11 -5.23,10.68l-3.95 0 0.11 -18.78 2.85 0 2.9 4.5c2.04,-1.57 4.08,-2.74 6.09,-3.49 2.02,-0.75 4.1,-1.12 6.26,-1.12 7.42,0 13.47,2.64 18.16,7.93 4.68,5.28 7.03,12.16 7.03,20.61 0,8.3 -2.32,14.88 -6.99,19.73 -4.67,4.85 -11.02,7.27 -19.08,7.27 -5.73,0 -10.42,-1.27 -14.04,-3.8 -3.62,-2.55 -5.43,-5.73 -5.43,-9.58 0,-2.47 0.69,-4.5 2.06,-6.07 1.37,-1.57 3.05,-2.36 5.06,-2.36 1.99,0 3.52,0.52 4.61,1.56 1.11,1.05 1.65,2.47 1.65,4.31 0,2.19 -0.9,3.71 -2.68,4.53 -1.8,0.84 -2.7,1.41 -2.7,1.65 0,1.35 1.03,2.55 3.07,3.6 2.04,1.03 4.53,1.56 7.46,1.56 4.95,0 8.71,-1.93 11.34,-5.77 2.6,-3.84 3.97,-9.43 4.08,-16.71z"/>
  <path class="fil0" d="M52.06 42.84l-31.26 0 0 -5.62 31.03 0c-0.39,-10.38 -2.42,-18.36 -6.05,-23.97 -3.65,-5.6 -8.68,-8.41 -15.08,-8.41 -5.81,0 -10.83,2.47 -15.07,7.42 -4.22,4.95 -6.86,11.54 -7.87,19.79l-5.17 0 0.88 -31.71 4.29 0 4.29 6.86c2.92,-2.42 5.96,-4.22 9.13,-5.42 3.17,-1.18 6.5,-1.78 9.97,-1.78 9.93,0 18.33,4.03 25.2,12.11 6.88,8.08 10.33,18.05 10.33,29.91 0,12.87 -3.6,23.27 -10.81,31.16 -7.21,7.89 -16.7,11.82 -28.45,11.82 -8.32,0 -14.97,-1.84 -19.94,-5.51 -4.98,-3.67 -7.48,-8.6 -7.48,-14.75 0,-3.47 0.94,-6.31 2.81,-8.54 1.86,-2.23 4.23,-3.35 7.08,-3.35 2.42,0 4.27,0.62 5.58,1.84 1.29,1.24 1.95,2.98 1.95,5.25 0,1.57 -0.41,2.92 -1.22,4.01 -0.81,1.11 -1.97,1.87 -3.5,2.3 -0.41,0.11 -0.94,0.24 -1.59,0.39 -2.3,0.54 -3.47,1.5 -3.47,2.85 0,2.64 1.87,4.97 5.62,6.99 3.75,2.01 8.28,3.02 13.59,3.02 8.17,0 14.41,-2.89 18.72,-8.68 4.33,-5.79 6.48,-14.19 6.48,-25.17l0 -2.81z"/>
 </g>
</svg>
