<?xml version="1.0" encoding="UTF-8"?>
<!DOCTYPE svg PUBLIC "-//W3C//DTD SVG 1.1//EN" "http://www.w3.org/Graphics/SVG/1.1/DTD/svg11.dtd">
<!-- Creator: CorelDRAW -->
<svg xmlns="http://www.w3.org/2000/svg" xml:space="preserve" width="88.1672mm" height="30.0489mm" version="1.1" style="shape-rendering:geometricPrecision; text-rendering:geometricPrecision; image-rendering:optimizeQuality; fill-rule:evenodd; clip-rule:evenodd"
viewBox="0 0 533.83 181.94"
 xmlns:xlink="http://www.w3.org/1999/xlink"
 xmlns:xodm="http://www.corel.com/coreldraw/odm/2003">
 <defs>
  <style type="text/css">
   <![CDATA[
    .fil0 {fill:#75653B;fill-rule:nonzero}
   ]]>
  </style>
 </defs>
 <g id="Слой_x0020_1">
  <metadata id="CorelCorpID_0Corel-Layer"/>
  <path class="fil0" d="M362.94 177.85l0 -10.09 11.02 -0.48c3.28,-0.16 5.45,-0.76 6.45,-1.88 1,-1.08 1.52,-3.44 1.52,-7.05l0 -72.26c0,-3.61 -0.52,-5.97 -1.52,-7.05 -1,-1.12 -3.13,-1.72 -6.33,-1.88l-11.14 -0.48 0 -10.09 60.09 0 0 10.09 -11.01 0.48c-3.29,0.16 -5.45,0.76 -6.45,1.88 -1,1.08 -1.52,3.44 -1.52,7.05l0 28.32 22.11 0c2.12,-16.14 7.97,-28.76 17.54,-37.93 9.61,-9.17 21.71,-13.74 36.37,-13.74 15.86,0 28.8,5.53 38.78,16.58 9.98,11.09 14.98,25.43 14.98,43.02 0,17.67 -4.97,32.01 -14.9,42.94 -9.93,10.93 -22.91,16.42 -38.86,16.42 -15.58,0 -28.32,-5.17 -38.13,-15.5 -9.82,-10.34 -15.06,-24.07 -15.78,-41.22l-22.11 -0.12 0 33.49c0,3.61 0.52,5.97 1.52,7.05 1,1.12 3.2,1.72 6.57,1.88l10.89 0.48 0 10.09 -60.09 0zm117.13 -105.27c-10.21,0 -17.67,3.97 -22.35,11.86 -4.69,7.89 -7.05,20.51 -7.05,37.89 0,17.23 2.32,29.76 7.01,37.65 4.65,7.89 12.02,11.86 22.15,11.86 10.33,0 17.82,-3.93 22.47,-11.73 4.69,-7.81 7.01,-20.43 7.01,-37.77 0,-17.38 -2.33,-30 -7.01,-37.89 -4.65,-7.89 -12.06,-11.86 -22.23,-11.86z"/>
  <path class="fil0" d="M-0 177.85l0 -11.3 12.46 0c5.01,0 8.37,-0.8 10.13,-2.44 1.76,-1.64 2.65,-4.69 2.65,-9.13l0 -127.82c0,-4.17 -0.8,-7.13 -2.4,-8.89 -1.6,-1.76 -4.25,-2.64 -7.93,-2.64l-2.44 0 -12.46 0 0 -11.3 76.67 0 0 11.3 -15.62 0c-3.36,0 -5.81,0.92 -7.33,2.72 -1.52,1.8 -2.29,4.73 -2.29,8.81l0 53.83 25.96 0c2.36,-24.51 10.66,-44.14 24.96,-58.88 14.26,-14.74 32.01,-22.11 53.23,-22.11 22.91,0 41.7,8.53 56.32,25.56 14.62,17.07 21.95,38.93 21.95,65.57 0,26.84 -7.33,48.67 -21.95,65.53 -14.62,16.86 -33.41,25.28 -56.32,25.28 -23.11,0 -41.9,-8.17 -56.44,-24.47 -14.5,-16.34 -21.83,-37.73 -21.99,-64.21l-25.72 -0.12 0 61.85c0,4.45 0.84,7.49 2.52,9.13 1.68,1.64 5.01,2.44 9.94,2.44l12.78 0 0 11.3 -76.67 0zm108.15 -86.76c0,27.08 3.89,47.19 11.66,60.33 7.81,13.14 19.71,19.71 35.77,19.71 15.86,0 27.76,-6.65 35.65,-19.95 7.89,-13.3 11.86,-33.33 11.86,-60.09 0,-27.24 -3.88,-47.39 -11.66,-60.45 -7.81,-13.06 -19.75,-19.59 -35.85,-19.59 -16.06,0 -27.96,6.57 -35.77,19.71 -7.77,13.14 -11.66,33.25 -11.66,60.32z"/>
 </g>
</svg>
