<?xml version="1.0" encoding="UTF-8"?>
<!DOCTYPE svg PUBLIC "-//W3C//DTD SVG 1.1//EN" "http://www.w3.org/Graphics/SVG/1.1/DTD/svg11.dtd">
<!-- Creator: CorelDRAW -->
<svg xmlns="http://www.w3.org/2000/svg" xml:space="preserve" width="54.0554mm" height="22.9525mm" version="1.1" style="shape-rendering:geometricPrecision; text-rendering:geometricPrecision; image-rendering:optimizeQuality; fill-rule:evenodd; clip-rule:evenodd"
viewBox="0 0 201.06 85.37"
 xmlns:xlink="http://www.w3.org/1999/xlink"
 xmlns:xodm="http://www.corel.com/coreldraw/odm/2003">
 <defs>
  <style type="text/css">
   <![CDATA[
    .fil0 {fill:#75653B;fill-rule:nonzero}
   ]]>
  </style>
 </defs>
 <g id="Слой_x0020_1">
  <metadata id="CorelCorpID_0Corel-Layer"/>
  <g id="_2734227392">
   <path class="fil0" d="M178.76 67.59l-12.85 -29.58c-0.55,-1.29 -1.25,-2.2 -2.09,-2.71 -0.85,-0.51 -2.06,-0.77 -3.66,-0.77l-0.47 0 0 -3.39 18.83 0 0 3.39 -2.18 0 -1.06 0c-0.66,0 -1.16,0.15 -1.49,0.43 -0.35,0.3 -0.53,0.71 -0.53,1.27 0,0.22 0.08,0.55 0.23,1.01 0.13,0.46 0.35,0.96 0.61,1.48l8.55 19.73 8.04 -19.38c0.14,-0.27 0.24,-0.55 0.31,-0.86 0.08,-0.32 0.12,-0.63 0.12,-0.96 0,-1.02 -0.35,-1.73 -1.04,-2.09 -0.7,-0.36 -2.24,-0.58 -4.61,-0.63l-0.04 -3.39 15.64 0 0 3.39c-1.49,0 -2.72,0.34 -3.65,1.01 -0.94,0.67 -1.75,1.78 -2.42,3.33l-13.65 31.79c-2.32,5.35 -4.69,9.12 -7.1,11.36 -2.42,2.24 -5.28,3.35 -8.57,3.35 -2.3,0 -4.14,-0.55 -5.46,-1.67 -1.33,-1.12 -1.99,-2.64 -1.99,-4.55 0,-1.32 0.47,-2.44 1.4,-3.37 0.93,-0.93 2.07,-1.4 3.44,-1.4 1.32,0 2.34,0.38 3.1,1.12 0.74,0.75 1.12,1.78 1.12,3.09 0,0.44 -0.11,0.89 -0.34,1.32 -0.22,0.43 -0.34,0.69 -0.34,0.77 0,0.28 0.13,0.51 0.4,0.66 0.26,0.16 0.62,0.24 1.06,0.24 1.45,0 3.11,-1.16 4.98,-3.49 1.87,-2.32 3.58,-5.39 5.13,-9.2l0.57 -1.29z"/>
   <path class="fil0" d="M12.04 11.56c-1.01,-2.37 -2.08,-3.96 -3.25,-4.8 -1.15,-0.84 -2.77,-1.26 -4.87,-1.26 -0.04,0 -0.1,-0.02 -0.21,-0.06 -0.34,-0.04 -0.69,-0.06 -1.07,-0.06l-2.64 0 0 -5.39 34.16 0 0 5.39 -4.24 0c-0.15,0 -0.38,0.02 -0.71,0.06 -0.31,0.04 -0.53,0.06 -0.69,0.06 -1.89,0 -3.27,0.21 -4.11,0.61 -0.84,0.42 -1.26,1.09 -1.26,2.03 0,0.67 0.4,1.81 1.18,3.42 0.33,0.67 0.59,1.2 0.78,1.62l17.27 38.98 14.79 -34.16c0.4,-0.94 0.74,-2.04 1.01,-3.31 0.25,-1.28 0.38,-2.46 0.38,-3.59 0,-1.91 -0.69,-3.32 -2.04,-4.28 -1.36,-0.95 -3.4,-1.43 -6.11,-1.43l-3.3 0 0 -5.39 30.03 0 0 5.39c-0.27,0 -0.59,0.02 -0.97,0.06 -0.4,0.04 -0.69,0.06 -0.88,0.06 -4.24,0 -7.64,2.92 -10.16,8.79 -0.15,0.34 -0.29,0.61 -0.4,0.84l-17.84 41.84c-4.95,11.64 -9.23,19.18 -12.8,22.66 -3.59,3.46 -8.02,5.2 -13.32,5.2 -5.22,0 -9.53,-1.68 -12.93,-5.02 -3.38,-3.36 -5.08,-7.62 -5.08,-12.76 0,-3.57 0.92,-6.48 2.77,-8.69 1.85,-2.22 4.3,-3.32 7.36,-3.32 2.46,0 4.49,0.76 6.07,2.31 1.59,1.55 2.37,3.54 2.37,5.96 0,2.6 -1.22,4.83 -3.67,6.71 -2.45,1.85 -3.67,3.44 -3.67,4.74 0,1.38 0.69,2.47 2.04,3.27 1.36,0.8 3.23,1.2 5.62,1.2 2.9,0 5.58,-1.13 7.99,-3.38 2.43,-2.25 4.53,-5.56 6.32,-9.92l-23.92 -54.35z"/>
  </g>
 </g>
</svg>
