<?xml version="1.0" encoding="UTF-8"?>
<!DOCTYPE svg PUBLIC "-//W3C//DTD SVG 1.1//EN" "http://www.w3.org/Graphics/SVG/1.1/DTD/svg11.dtd">
<!-- Creator: CorelDRAW -->
<svg xmlns="http://www.w3.org/2000/svg" xml:space="preserve" width="56.448mm" height="24.495mm" version="1.1" style="shape-rendering:geometricPrecision; text-rendering:geometricPrecision; image-rendering:optimizeQuality; fill-rule:evenodd; clip-rule:evenodd"
viewBox="0 0 219.16 95.1"
 xmlns:xlink="http://www.w3.org/1999/xlink"
 xmlns:xodm="http://www.corel.com/coreldraw/odm/2003">
 <defs>
  <style type="text/css">
   <![CDATA[
    .fil0 {fill:#75653B;fill-rule:nonzero}
   ]]>
  </style>
 </defs>
 <g id="Слой_x0020_1">
  <metadata id="CorelCorpID_0Corel-Layer"/>
  <path class="fil0" d="M219.16 75.95c-2.53,6.67 -5.79,11.54 -9.76,14.58 -3.96,3.06 -8.98,4.58 -15.11,4.58 -8.48,0 -15.37,-2.91 -20.7,-8.74 -5.31,-5.81 -7.97,-13.45 -7.97,-22.86 0,-10.11 2.82,-18.28 8.46,-24.49 5.64,-6.21 13.06,-9.31 22.22,-9.31 6.12,0 11.19,1.45 15.22,4.38 4.03,2.93 6.03,6.54 6.03,10.83 0,2.89 -0.81,5.2 -2.42,6.91 -1.61,1.72 -3.74,2.58 -6.41,2.58 -2.29,0 -4.16,-0.68 -5.61,-2.03 -1.48,-1.37 -2.2,-3.1 -2.2,-5.26 0,-1.98 0.68,-3.7 2.07,-5.13 1.37,-1.45 2.07,-2.31 2.07,-2.62 0,-1.28 -0.86,-2.33 -2.55,-3.15 -1.69,-0.81 -3.94,-1.23 -6.74,-1.23 -5.46,0 -9.58,2.2 -12.35,6.61 -2.77,4.4 -4.16,11.03 -4.16,19.84 0,8.61 1.52,15.02 4.54,19.25 3.04,4.25 7.62,6.36 13.72,6.36 3.92,0 7.24,-1.1 10,-3.28 2.75,-2.2 5.04,-5.59 6.89,-10.19l4.78 2.38z"/>
  <path class="fil0" d="M71.19 60.93l5.95 0.73c-1.38,10.47 -5.23,18.66 -11.56,24.58 -6.32,5.9 -14.32,8.86 -24,8.86 -12,0 -21.9,-4.46 -29.77,-13.4 -7.87,-8.94 -11.81,-20.23 -11.81,-33.84 0,-13.84 3.85,-25.27 11.56,-34.3 7.71,-9.05 17.46,-13.57 29.29,-13.57 4.38,0 8.42,0.67 12.16,2.03 3.75,1.34 7.25,3.43 10.51,6.26l4.8 -7.81 4.77 0 1.65 36.58 -4.9 0.25c-1.84,-10.3 -5.11,-18.18 -9.78,-23.62 -4.69,-5.44 -10.51,-8.17 -17.5,-8.17 -8.75,0 -15.31,3.48 -19.68,10.43 -4.38,6.95 -6.55,17.42 -6.55,31.41 0,14.22 2.2,24.71 6.6,31.47 4.4,6.74 11.2,10.11 20.44,10.11 7.2,0 13.17,-2.39 17.92,-7.18 4.78,-4.77 8.06,-11.73 9.9,-20.83z"/>
 </g>
</svg>
