<?xml version="1.0" encoding="UTF-8"?>
<!DOCTYPE svg PUBLIC "-//W3C//DTD SVG 1.1//EN" "http://www.w3.org/Graphics/SVG/1.1/DTD/svg11.dtd">
<!-- Creator: CorelDRAW -->
<svg xmlns="http://www.w3.org/2000/svg" xml:space="preserve" width="58.1256mm" height="23.7485mm" version="1.1" style="shape-rendering:geometricPrecision; text-rendering:geometricPrecision; image-rendering:optimizeQuality; fill-rule:evenodd; clip-rule:evenodd"
viewBox="0 0 232.04 94.81"
 xmlns:xlink="http://www.w3.org/1999/xlink"
 xmlns:xodm="http://www.corel.com/coreldraw/odm/2003">
 <defs>
  <style type="text/css">
   <![CDATA[
    .fil0 {fill:#75653B;fill-rule:nonzero}
   ]]>
  </style>
 </defs>
 <g id="Слой_x0020_1">
  <metadata id="CorelCorpID_0Corel-Layer"/>
  <path class="fil0" d="M232.04 89.29l0 5.52 -30.46 0 0 -5.52 4.81 -0.26c1.86,-0.09 3.04,-0.42 3.57,-1.03 0.55,-0.59 0.81,-1.86 0.81,-3.83l0 -16.41c-3.41,1.03 -6.72,1.79 -9.89,2.28 -3.15,0.5 -6.21,0.74 -9.17,0.74 -5.95,0 -10.42,-1.14 -13.44,-3.39 -3.02,-2.28 -4.53,-5.67 -4.53,-10.16l0 -12.58c0,-1.9 -0.28,-3.19 -0.85,-3.81 -0.59,-0.61 -1.77,-0.96 -3.57,-1.05l-4.77 -0.26 0 -5.52 30.59 0 0 5.52 -5.06 0.26c-1.77,0.04 -2.95,0.37 -3.55,0.98 -0.57,0.61 -0.85,1.92 -0.85,3.87l0 10.79c0,3.37 0.79,5.75 2.34,7.11 1.55,1.38 4.25,2.06 8.05,2.06 2.06,0 4.35,-0.22 6.89,-0.68 2.54,-0.44 5.14,-1.09 7.79,-1.95l0 -17.33c0,-1.95 -0.26,-3.24 -0.81,-3.83 -0.52,-0.61 -1.71,-0.94 -3.5,-1.03l-4.88 -0.26 0 -5.52 30.46 0 0 5.52 -4.88 0.26c-1.84,0.09 -3.02,0.42 -3.55,0.98 -0.5,0.59 -0.77,1.88 -0.77,3.87l0 39.52c0,2.01 0.26,3.31 0.77,3.87 0.52,0.57 1.73,0.9 3.61,0.98l4.82 0.26zm-232.04 -89.29l42.04 0 0 6.17 -8.54 0c-1.88,0 -3.24,0.5 -4.09,1.51 -0.85,1.01 -1.29,2.61 -1.29,4.77l0 27.36c0,4.16 1.29,7.24 3.85,9.28 2.56,2.04 6.43,3.04 11.62,3.04 2.82,0 6.17,-0.35 10.05,-1.03 3.87,-0.68 7.88,-1.64 12.04,-2.89l0 -35.76c0,-2.26 -0.44,-3.87 -1.29,-4.84 -0.85,-0.96 -2.3,-1.44 -4.36,-1.44l-1.27 0 -6.87 0 0 -6.17 41.89 0 0 6.17 -8.54 0c-1.84,0 -3.17,0.48 -4.01,1.47 -0.83,0.99 -1.25,2.6 -1.25,4.82l0 69.83c0,2.43 0.46,4.09 1.4,4.99 0.94,0.9 2.78,1.36 5.54,1.36l6.85 0 0 6.17 -41.89 0 0 -6.17 6.87 0c2.74,0 4.57,-0.46 5.52,-1.36 0.94,-0.9 1.4,-2.56 1.4,-4.99l0 -27.53c-4.92,1.53 -9.56,2.65 -13.94,3.37 -4.35,0.72 -8.56,1.09 -12.56,1.09 -8.27,0 -14.55,-1.79 -18.89,-5.36 -4.31,-3.57 -6.48,-8.73 -6.48,-15.54l0 -25.87c0,-2.26 -0.44,-3.87 -1.31,-4.84 -0.88,-0.96 -2.34,-1.44 -4.38,-1.44l-1.16 0 -6.96 0 0 -6.17z"/>
 </g>
</svg>
