<?xml version="1.0" encoding="UTF-8"?>
<!DOCTYPE svg PUBLIC "-//W3C//DTD SVG 1.1//EN" "http://www.w3.org/Graphics/SVG/1.1/DTD/svg11.dtd">
<!-- Creator: CorelDRAW 2019 (64-Bit) -->
<svg xmlns="http://www.w3.org/2000/svg" xml:space="preserve" width="2.03166cm" height="2.04562cm" version="1.1" style="shape-rendering:geometricPrecision; text-rendering:geometricPrecision; image-rendering:optimizeQuality; fill-rule:evenodd; clip-rule:evenodd"
viewBox="0 0 3.941 3.968"
 xmlns:xlink="http://www.w3.org/1999/xlink"
 xmlns:xodm="http://www.corel.com/coreldraw/odm/2003">
 <defs>
  <style type="text/css">
   <![CDATA[
    .fil0 {fill:#8E682A;fill-rule:nonzero}
   ]]>
  </style>
 </defs>
 <g id="Слой_x0020_1">
  <metadata id="CorelCorpID_0Corel-Layer"/>
  <path class="fil0" d="M2.464 2.422l-0.642 -1.569 -0.618 1.569 1.26 0zm-0.594 -2.422l0.211 0 1.379 3.442c0.044,0.109 0.088,0.181 0.132,0.215 0.044,0.034 0.123,0.051 0.235,0.051l0.114 0 0 0.259 -1.616 0 0 -0.259 0.243 0c0.111,0 0.187,-0.011 0.23,-0.032 0.042,-0.022 0.063,-0.059 0.063,-0.111 0,-0.02 -0.004,-0.044 -0.012,-0.074 -0.008,-0.03 -0.021,-0.068 -0.039,-0.114l-0.248 -0.681 -1.455 0 -0.167 0.42c-0.021,0.058 -0.039,0.118 -0.054,0.179 -0.014,0.061 -0.022,0.106 -0.022,0.134 0,0.094 0.032,0.163 0.096,0.209 0.065,0.046 0.164,0.068 0.3,0.068l0.134 0 0 0.259 -1.395 0 0 -0.259 0.045 0c0.144,0 0.255,-0.031 0.332,-0.091 0.078,-0.06 0.152,-0.182 0.224,-0.363l1.27 -3.254z"/>
 </g>
</svg>
