<?xml version="1.0" encoding="UTF-8"?>
<!DOCTYPE svg PUBLIC "-//W3C//DTD SVG 1.1//EN" "http://www.w3.org/Graphics/SVG/1.1/DTD/svg11.dtd">
<!-- Creator: CorelDRAW 2019 (64-Bit) -->
<svg xmlns="http://www.w3.org/2000/svg" xml:space="preserve" width="0.9927cm" height="0.508cm" version="1.1" style="shape-rendering:geometricPrecision; text-rendering:geometricPrecision; image-rendering:optimizeQuality; fill-rule:evenodd; clip-rule:evenodd"
viewBox="0 0 0.452 0.231"
 xmlns:xlink="http://www.w3.org/1999/xlink"
 xmlns:xodm="http://www.corel.com/coreldraw/odm/2003">
 <defs>
  <style type="text/css">
   <![CDATA[
    .fil1 {fill:#9C6921}
    .fil0 {fill:#9C6921;fill-rule:nonzero}
   ]]>
  </style>
 </defs>
 <g id="Слой_x0020_1">
  <metadata id="CorelCorpID_0Corel-Layer"/>
  <g id="_2187370361200">
   <path class="fil0" d="M0.073 0.021c0.002,0.002 0.005,0.003 0.008,0.004 0.003,0.001 0.007,0.001 0.011,0.001 0.004,0 0.008,-0 0.012,-0.001 0.003,-0.001 0.006,-0.002 0.009,-0.004 -0.002,-0.001 -0.004,-0.002 -0.005,-0.004 -0.001,-0.002 -0.002,-0.004 -0.002,-0.006 0,-0.003 0.001,-0.005 0.003,-0.008 0.002,-0.002 0.005,-0.003 0.008,-0.003 0.003,0 0.006,0.001 0.008,0.003 0.002,0.002 0.003,0.005 0.003,0.008 0,0.006 -0.003,0.011 -0.01,0.015 -0.007,0.004 -0.015,0.006 -0.026,0.006 -0.01,0 -0.018,-0.002 -0.025,-0.006 -0.007,-0.004 -0.01,-0.009 -0.01,-0.015 0,-0.003 0.001,-0.006 0.003,-0.009 0.002,-0.002 0.005,-0.004 0.008,-0.004 0.003,0 0.005,0.001 0.008,0.003 0.002,0.002 0.003,0.005 0.003,0.008 0,0.002 -0,0.004 -0.001,0.006 -0.001,0.002 -0.002,0.003 -0.004,0.004zm-0.021 0.185c0,0.004 0.001,0.008 0.003,0.009 0.002,0.002 0.005,0.002 0.01,0.002l0.013 0 0 0.011 -0.077 0 0 -0.011 0.012 0c0.005,0 0.008,-0.001 0.01,-0.002 0.002,-0.002 0.003,-0.005 0.003,-0.009l0 -0.128c0,-0.004 -0.001,-0.007 -0.002,-0.009 -0.002,-0.002 -0.004,-0.003 -0.008,-0.003l-0.002 0 -0.012 0 0 -0.011 0.077 0 0 0.011 -0.016 0c-0.003,0 -0.006,0.001 -0.007,0.003 -0.002,0.002 -0.002,0.005 -0.002,0.009l0 0.097 0.081 -0.089 0 -0.008c0,-0.004 -0.001,-0.007 -0.002,-0.009 -0.002,-0.002 -0.004,-0.003 -0.008,-0.003l-0.002 0 -0.013 0 0 -0.011 0.077 0 0 0.011 -0.016 0c-0.003,0 -0.006,0.001 -0.007,0.003 -0.002,0.002 -0.002,0.005 -0.002,0.009l0 0.128c0,0.004 0.001,0.008 0.003,0.009 0.002,0.002 0.005,0.002 0.01,0.002l0.013 0 0 0.011 -0.077 0 0 -0.011 0.013 0c0.005,0 0.008,-0.001 0.01,-0.002 0.002,-0.002 0.003,-0.005 0.003,-0.009l0 -0.098 -0.081 0.088 0 0.01zm0.4 -0.089l0 0.01 -0.011 0c-0.003,0 -0.006,0.001 -0.007,0.002 -0.001,0.001 -0.002,0.003 -0.002,0.007l0 0.072c0,0.003 0.001,0.006 0.002,0.007 0.001,0.001 0.003,0.002 0.007,0.002l0.011 0 0 0.01 -0.06 0 0 -0.01 0.011 -0c0.003,-0 0.006,-0.001 0.007,-0.002 0.001,-0.001 0.002,-0.003 0.002,-0.007l0 -0.082 -0.014 0c-0.012,0 -0.019,0.011 -0.02,0.033 -0.001,0.01 -0.001,0.018 -0.002,0.025 -0.002,0.018 -0.005,0.03 -0.009,0.036 -0.004,0.007 -0.011,0.01 -0.02,0.01 -0.006,0 -0.01,-0.002 -0.014,-0.005 -0.004,-0.003 -0.005,-0.007 -0.005,-0.012 0,-0.005 0.001,-0.009 0.004,-0.012 0.002,-0.003 0.006,-0.004 0.01,-0.004 0.003,0 0.006,0.001 0.008,0.003 0.002,0.002 0.003,0.005 0.003,0.008 0,0.003 -0.001,0.006 -0.003,0.008 -0.002,0.002 -0.003,0.003 -0.003,0.004 0,0 0,0.001 0.001,0.001 0,0 0.001,0.001 0.002,0.001 0.003,0 0.006,-0.001 0.008,-0.004 0.002,-0.003 0.004,-0.007 0.005,-0.012 0.002,-0.008 0.003,-0.018 0.004,-0.03 0.001,-0.012 0.002,-0.024 0.002,-0.035 0,-0.005 -0.001,-0.008 -0.002,-0.01 -0.001,-0.002 -0.005,-0.003 -0.009,-0.003l-0.009 -0 0 -0.01 0.105 0z"/>
   <g>
    <path class="fil0" d="M0.256 0.119c-0.01,0 -0.018,0.004 -0.022,0.012 -0.005,0.008 -0.007,0.021 -0.007,0.038 0,0.017 0.002,0.03 0.007,0.038 0.005,0.008 0.012,0.012 0.022,0.012 0.01,0 0.018,-0.004 0.023,-0.012 0.005,-0.008 0.007,-0.02 0.007,-0.038 0,-0.017 -0.002,-0.03 -0.007,-0.038 -0.005,-0.008 -0.012,-0.012 -0.022,-0.012zm0 -0.01c0.016,0 0.029,0.006 0.039,0.017 0.01,0.011 0.015,0.026 0.015,0.043 0,0.018 -0.005,0.032 -0.015,0.043 -0.01,0.011 -0.023,0.016 -0.039,0.016 -0.016,0 -0.029,-0.006 -0.039,-0.017 -0.01,-0.011 -0.015,-0.025 -0.015,-0.043 0,-0.018 0.005,-0.032 0.015,-0.043 0.01,-0.011 0.023,-0.017 0.039,-0.017z"/>
    <g>
     <path class="fil1" d="M0.237 0.071c0.005,0 0.009,0.004 0.009,0.01 0,0.005 -0.004,0.009 -0.009,0.009 -0.005,0 -0.01,-0.004 -0.01,-0.009 0,-0.005 0.004,-0.01 0.01,-0.01z"/>
     <path class="fil1" d="M0.276 0.071c0.005,0 0.009,0.004 0.009,0.01 0,0.005 -0.004,0.009 -0.009,0.009 -0.005,0 -0.01,-0.004 -0.01,-0.009 0,-0.005 0.004,-0.01 0.01,-0.01z"/>
    </g>
   </g>
  </g>
 </g>
</svg>
