<?xml version="1.0" encoding="UTF-8"?>
<!DOCTYPE svg PUBLIC "-//W3C//DTD SVG 1.1//EN" "http://www.w3.org/Graphics/SVG/1.1/DTD/svg11.dtd">
<!-- Creator: CorelDRAW 2019 (64-Bit) -->
<svg xmlns="http://www.w3.org/2000/svg" xml:space="preserve" width="1.35897cm" height="0.39793cm" version="1.1" style="shape-rendering:geometricPrecision; text-rendering:geometricPrecision; image-rendering:optimizeQuality; fill-rule:evenodd; clip-rule:evenodd"
viewBox="0 0 0.861 0.252"
 xmlns:xlink="http://www.w3.org/1999/xlink"
 xmlns:xodm="http://www.corel.com/coreldraw/odm/2003">
 <defs>
  <style type="text/css">
   <![CDATA[
    .fil0 {fill:#7B6636;fill-rule:nonzero}
   ]]>
  </style>
 </defs>
 <g id="Слой_x0020_1">
  <metadata id="CorelCorpID_0Corel-Layer"/>
  <path class="fil0" d="M-0 0l0.109 0 0 0.016 -0.022 0c-0.005,0 -0.008,0.001 -0.01,0.004 -0.002,0.003 -0.003,0.007 -0.003,0.013l0 0.137 0.116 -0.126 0 -0.012c0,-0.006 -0.001,-0.01 -0.003,-0.013 -0.002,-0.003 -0.006,-0.004 -0.011,-0.004l-0.003 0 -0.018 0 0 -0.016 0.109 0 0 0.016 -0.022 0c-0.005,0 -0.008,0.001 -0.011,0.004 -0.002,0.003 -0.003,0.007 -0.003,0.012l0 0.182c0,0.006 0.001,0.011 0.004,0.013 0.003,0.002 0.007,0.004 0.014,0.004l0.018 0 0 0.016 -0.109 0 0 -0.016 0.018 0c0.007,0 0.012,-0.001 0.014,-0.004 0.003,-0.002 0.004,-0.007 0.004,-0.013l0 -0.139 -0.116 0.125 0 0.014c0,0.006 0.001,0.011 0.004,0.013 0.002,0.002 0.007,0.004 0.014,0.004l0.018 0 0 0.016 -0.109 0 0 -0.016 0.018 0c0.007,0 0.012,-0.001 0.014,-0.004 0.003,-0.002 0.004,-0.007 0.004,-0.013l0 -0.182c0,-0.006 -0.001,-0.01 -0.003,-0.013 -0.002,-0.003 -0.006,-0.004 -0.011,-0.004l-0.003 0 -0.018 0 0 -0.016zm0.297 0.084l0.009 0 0.009 0.014c0.006,-0.005 0.012,-0.008 0.019,-0.011 0.007,-0.002 0.014,-0.003 0.021,-0.003 0.016,0 0.028,0.004 0.037,0.011 0.009,0.007 0.014,0.017 0.014,0.03 0,0.01 -0.003,0.018 -0.01,0.024 -0.006,0.006 -0.016,0.011 -0.028,0.013 0.014,0.002 0.025,0.006 0.032,0.013 0.008,0.007 0.012,0.017 0.012,0.028 0,0.015 -0.006,0.027 -0.019,0.036 -0.013,0.009 -0.03,0.013 -0.051,0.013 -0.018,0 -0.032,-0.004 -0.043,-0.011 -0.011,-0.007 -0.016,-0.017 -0.016,-0.03 0,-0.008 0.002,-0.014 0.006,-0.018 0.004,-0.005 0.009,-0.007 0.015,-0.007 0.006,0 0.011,0.002 0.014,0.005 0.003,0.003 0.005,0.008 0.005,0.013 0,0.007 -0.003,0.011 -0.008,0.014 -0.005,0.003 -0.008,0.004 -0.008,0.005 0,0.004 0.003,0.008 0.009,0.011 0.006,0.003 0.014,0.005 0.023,0.005 0.012,0 0.022,-0.003 0.029,-0.009 0.007,-0.006 0.011,-0.015 0.011,-0.025 0,-0.012 -0.003,-0.021 -0.009,-0.026 -0.006,-0.005 -0.016,-0.008 -0.029,-0.008l-0.01 0 0 -0.013 0.009 0c0.012,0 0.02,-0.003 0.026,-0.008 0.006,-0.005 0.009,-0.013 0.009,-0.023 0,-0.009 -0.002,-0.016 -0.007,-0.021 -0.005,-0.005 -0.011,-0.008 -0.019,-0.008 -0.01,0 -0.019,0.004 -0.026,0.012 -0.008,0.008 -0.013,0.019 -0.015,0.032l-0.012 0 0.002 -0.057zm0.198 0.07l0.034 0c0.021,0 0.038,0.004 0.049,0.012 0.011,0.008 0.017,0.019 0.017,0.034 0,0.016 -0.005,0.027 -0.016,0.035 -0.01,0.008 -0.025,0.012 -0.045,0.012l-0.097 0 0 -0.014 0.016 -0.001c0.005,-0 0.008,-0.001 0.009,-0.003 0.002,-0.002 0.002,-0.005 0.002,-0.01l0 -0.103c0,-0.005 -0.001,-0.008 -0.002,-0.01 -0.001,-0.002 -0.005,-0.003 -0.009,-0.003l-0.016 -0.001 0 -0.014 0.086 0 0 0.014 -0.016 0.001c-0.005,0 -0.008,0.001 -0.009,0.003 -0.001,0.002 -0.002,0.005 -0.002,0.01l0 0.037zm0 0.014l0 0.052c0,0.005 0.001,0.009 0.002,0.01 0.002,0.002 0.005,0.003 0.009,0.003l0.013 0c0.014,0 0.024,-0.002 0.03,-0.007 0.006,-0.005 0.009,-0.013 0.009,-0.023 0,-0.013 -0.003,-0.021 -0.01,-0.027 -0.007,-0.005 -0.019,-0.008 -0.037,-0.008l-0.017 0zm0.28 0.079l0 -0.014 0.016 -0.001c0.005,-0 0.008,-0.001 0.009,-0.003 0.002,-0.002 0.002,-0.005 0.002,-0.01l0 -0.103c0,-0.005 -0.001,-0.008 -0.002,-0.01 -0.001,-0.002 -0.005,-0.003 -0.009,-0.003l-0.016 -0.001 0 -0.014 0.085 0 0 0.014 -0.015 0.001c-0.005,0 -0.008,0.001 -0.009,0.003 -0.001,0.002 -0.002,0.005 -0.002,0.01l0 0.103c0,0.005 0.001,0.008 0.002,0.01 0.001,0.002 0.005,0.003 0.009,0.003l0.015 0.001 0 0.014 -0.085 0zm-0.105 -0.079l0 0.052c0,0.005 0.001,0.009 0.002,0.01 0.002,0.002 0.005,0.003 0.009,0.003l0.013 0c0.014,0 0.024,-0.002 0.03,-0.007 0.006,-0.005 0.009,-0.013 0.009,-0.023 0,-0.013 -0.003,-0.021 -0.01,-0.027 -0.007,-0.005 -0.019,-0.008 -0.037,-0.008l-0.017 0zm0 -0.014l0.034 0c0.021,0 0.038,0.004 0.049,0.012 0.011,0.008 0.017,0.019 0.017,0.034 0,0.016 -0.005,0.027 -0.016,0.035 -0.01,0.008 -0.025,0.012 -0.045,0.012l-0.097 0 0 -0.014 0.016 -0.001c0.005,-0 0.008,-0.001 0.009,-0.003 0.002,-0.002 0.002,-0.005 0.002,-0.01l0 -0.103c0,-0.005 -0.001,-0.008 -0.002,-0.01 -0.001,-0.002 -0.005,-0.003 -0.009,-0.003l-0.016 -0.001 0 -0.014 0.086 0 0 0.014 -0.016 0.001c-0.005,0 -0.008,0.001 -0.009,0.003 -0.001,0.002 -0.002,0.005 -0.002,0.01l0 0.037z"/>
 </g>
</svg>
