<?xml version="1.0" encoding="UTF-8"?>
<!DOCTYPE svg PUBLIC "-//W3C//DTD SVG 1.1//EN" "http://www.w3.org/Graphics/SVG/1.1/DTD/svg11.dtd">
<!-- Creator: CorelDRAW 2019 (64-Bit) -->
<svg xmlns="http://www.w3.org/2000/svg" xml:space="preserve" width="1.25868cm" height="0.39793cm" version="1.1" style="shape-rendering:geometricPrecision; text-rendering:geometricPrecision; image-rendering:optimizeQuality; fill-rule:evenodd; clip-rule:evenodd"
viewBox="0 0 0.727 0.23"
 xmlns:xlink="http://www.w3.org/1999/xlink"
 xmlns:xodm="http://www.corel.com/coreldraw/odm/2003">
 <defs>
  <style type="text/css">
   <![CDATA[
    .fil0 {fill:#9C6921;fill-rule:nonzero}
   ]]>
  </style>
 </defs>
 <g id="Слой_x0020_1">
  <metadata id="CorelCorpID_0Corel-Layer"/>
  <path class="fil0" d="M-0 0l0.099 0 0 0.015 -0.02 0c-0.004,0 -0.008,0.001 -0.009,0.003 -0.002,0.002 -0.003,0.006 -0.003,0.011l0 0.125 0.105 -0.114 0 -0.011c0,-0.005 -0.001,-0.009 -0.003,-0.011 -0.002,-0.002 -0.006,-0.003 -0.01,-0.003l-0.003 0 -0.017 0 0 -0.015 0.1 0 0 0.015 -0.02 0c-0.004,0 -0.008,0.001 -0.01,0.004 -0.002,0.002 -0.003,0.006 -0.003,0.011l0 0.166c0,0.006 0.001,0.01 0.003,0.012 0.002,0.002 0.007,0.003 0.013,0.003l0.016 0 0 0.015 -0.1 0 0 -0.015 0.017 0c0.006,0 0.011,-0.001 0.013,-0.003 0.002,-0.002 0.003,-0.006 0.003,-0.012l0 -0.127 -0.105 0.114 0 0.013c0,0.006 0.001,0.01 0.003,0.012 0.002,0.002 0.006,0.003 0.013,0.003l0.017 0 0 0.015 -0.099 0 0 -0.015 0.016 0c0.006,0 0.011,-0.001 0.013,-0.003 0.002,-0.002 0.003,-0.006 0.003,-0.012l0 -0.166c0,-0.005 -0.001,-0.009 -0.003,-0.011 -0.002,-0.002 -0.006,-0.003 -0.01,-0.003l-0.003 0 -0.016 0 0 -0.015zm0.271 0.076l0.008 0 0.008 0.012c0.005,-0.004 0.011,-0.008 0.017,-0.01 0.006,-0.002 0.012,-0.003 0.019,-0.003 0.014,0 0.026,0.003 0.034,0.01 0.008,0.007 0.012,0.016 0.012,0.027 0,0.009 -0.003,0.016 -0.009,0.022 -0.006,0.006 -0.014,0.01 -0.026,0.012 0.013,0.001 0.022,0.005 0.03,0.012 0.007,0.007 0.011,0.015 0.011,0.026 0,0.014 -0.006,0.024 -0.017,0.032 -0.012,0.008 -0.027,0.012 -0.047,0.012 -0.016,0 -0.029,-0.003 -0.039,-0.01 -0.01,-0.007 -0.014,-0.016 -0.014,-0.027 0,-0.007 0.002,-0.012 0.006,-0.017 0.004,-0.004 0.008,-0.007 0.014,-0.007 0.006,0 0.01,0.001 0.013,0.004 0.003,0.003 0.005,0.007 0.005,0.012 0,0.006 -0.002,0.01 -0.007,0.013 -0.005,0.002 -0.007,0.004 -0.007,0.005 0,0.004 0.003,0.007 0.008,0.01 0.005,0.003 0.012,0.004 0.021,0.004 0.011,0 0.02,-0.003 0.026,-0.009 0.006,-0.006 0.01,-0.013 0.01,-0.023 0,-0.011 -0.003,-0.019 -0.008,-0.024 -0.005,-0.005 -0.014,-0.007 -0.027,-0.007l-0.009 0 0 -0.012 0.008 0c0.011,0 0.019,-0.002 0.024,-0.007 0.006,-0.005 0.008,-0.012 0.008,-0.021 0,-0.008 -0.002,-0.014 -0.006,-0.019 -0.004,-0.005 -0.01,-0.007 -0.017,-0.007 -0.009,0 -0.017,0.004 -0.024,0.011 -0.007,0.007 -0.012,0.017 -0.014,0.029l-0.011 0 0.002 -0.052zm0.181 0.064l0.031 0c0.02,0 0.034,0.004 0.045,0.011 0.01,0.007 0.015,0.017 0.015,0.031 0,0.014 -0.005,0.025 -0.014,0.032 -0.009,0.007 -0.023,0.011 -0.041,0.011l-0.088 0 0 -0.013 0.014 -0.001c0.004,-0 0.007,-0.001 0.009,-0.002 0.001,-0.001 0.002,-0.005 0.002,-0.009l0 -0.094c0,-0.005 -0.001,-0.008 -0.002,-0.009 -0.001,-0.001 -0.004,-0.002 -0.008,-0.002l-0.014 -0.001 0 -0.013 0.078 0 0 0.013 -0.014 0.001c-0.004,0 -0.007,0.001 -0.009,0.002 -0.001,0.001 -0.002,0.005 -0.002,0.009l0 0.034zm0 0.013l0 0.047c0,0.005 0.001,0.008 0.002,0.009 0.001,0.002 0.004,0.002 0.008,0.002l0.012 0c0.013,0 0.022,-0.002 0.028,-0.007 0.006,-0.004 0.008,-0.011 0.008,-0.021 0,-0.011 -0.003,-0.02 -0.01,-0.024 -0.006,-0.005 -0.018,-0.007 -0.034,-0.007l-0.015 0zm0.222 -0.047c0,-0.005 -0.001,-0.008 -0.002,-0.009 -0.001,-0.001 -0.004,-0.002 -0.008,-0.002l-0.014 -0.001 0 -0.013 0.078 0 0 0.013 -0.014 0.001c-0.004,0 -0.007,0.001 -0.009,0.002 -0.001,0.001 -0.002,0.005 -0.002,0.009l0 0.094c0,0.005 0.001,0.008 0.002,0.009 0.001,0.001 0.004,0.002 0.009,0.002l0.014 0.001 0 0.013 -0.078 0 0 -0.013 0.014 -0.001c0.004,-0 0.007,-0.001 0.009,-0.002 0.001,-0.001 0.002,-0.005 0.002,-0.009l0 -0.07 -0.065 0.067 0 0.004c0,0.004 0.001,0.007 0.002,0.008 0.001,0.001 0.004,0.002 0.008,0.002l0.014 0.001 0 0.013 -0.078 0 0 -0.013 0.014 -0.001c0.004,-0 0.007,-0.001 0.008,-0.002 0.001,-0.001 0.002,-0.004 0.002,-0.009l0 -0.094c0,-0.005 -0.001,-0.008 -0.002,-0.009 -0.001,-0.001 -0.004,-0.002 -0.008,-0.002l-0.014 -0.001 0 -0.013 0.078 0 0 0.013 -0.014 0.001c-0.004,0 -0.007,0.001 -0.008,0.002 -0.001,0.001 -0.002,0.004 -0.002,0.009l0 0.071 0.065 -0.067 0 -0.004z"/>
 </g>
</svg>
