<?xml version="1.0" encoding="UTF-8"?>
<!DOCTYPE svg PUBLIC "-//W3C//DTD SVG 1.1//EN" "http://www.w3.org/Graphics/SVG/1.1/DTD/svg11.dtd">
<!-- Creator: CorelDRAW 2019 (64-Bit) -->
<svg xmlns="http://www.w3.org/2000/svg" xml:space="preserve" width="1.44466cm" height="0.49212cm" version="1.1" style="shape-rendering:geometricPrecision; text-rendering:geometricPrecision; image-rendering:optimizeQuality; fill-rule:evenodd; clip-rule:evenodd"
viewBox="0 0 4.11 1.4"
 xmlns:xlink="http://www.w3.org/1999/xlink"
 xmlns:xodm="http://www.corel.com/coreldraw/odm/2003">
 <defs>
  <style type="text/css">
   <![CDATA[
    .fil0 {fill:#EFF0AB}
    .fil2 {fill:#EF7F1A;fill-rule:nonzero}
    .fil1 {fill:#BAC245;fill-rule:nonzero}
   ]]>
  </style>
 </defs>
 <g id="Слой_x0020_1">
  <metadata id="CorelCorpID_0Corel-Layer"/>
  <path class="fil0" d="M0.289 0l3.532 0c0.159,0 0.289,0.13 0.289,0.289l0 0.822c0,0.159 -0.13,0.289 -0.289,0.289l-3.532 0c-0.159,0 -0.289,-0.13 -0.289,-0.289l0 -0.822c0,-0.159 0.13,-0.289 0.289,-0.289z"/>
  <g id="_2968783930208">
   <path class="fil1" d="M0.618 0.796c-0.005,0.004 -0.011,0.007 -0.017,0.009 -0.007,0.002 -0.013,0.002 -0.019,0 0.012,-0.003 0.022,-0.008 0.031,-0.015 0.007,-0.006 0.015,-0.014 0.024,-0.026 -0.002,0.013 -0.008,0.023 -0.019,0.032zm-0.042 -0.022c-0.006,-0.003 -0.01,-0.008 -0.012,-0.015 -0.002,-0.007 -0.002,-0.015 0.001,-0.023 0.003,-0.008 0.008,-0.014 0.015,-0.018 0.007,-0.004 0.013,-0.005 0.019,-0.002 0.006,0.002 0.01,0.007 0.012,0.014 0.002,0.007 0.001,0.015 -0.002,0.023 -0.003,0.008 -0.008,0.014 -0.015,0.018 -0.007,0.004 -0.013,0.005 -0.019,0.002zm-0.063 -0.211c-0.01,0.014 -0.022,0.032 -0.036,0.054 -0.005,0.008 -0.01,0.018 -0.016,0.028l-0.016 0.029c0.008,-0.019 0.017,-0.039 0.028,-0.06 0.01,-0.019 0.022,-0.038 0.035,-0.056 0.015,-0.021 0.03,-0.038 0.044,-0.05l0.006 -0.005c0.002,-0.002 0.004,-0.004 0.006,-0.005l0.007 -0.005 0.007 -0.004c0.012,-0.006 0.023,-0.01 0.032,-0.009 -0.009,0.001 -0.019,0.005 -0.03,0.012l-0.006 0.005 -0.006 0.005c-0.002,0.001 -0.004,0.003 -0.006,0.005l-0.006 0.006c-0.013,0.014 -0.027,0.031 -0.041,0.05zm0.104 -0.113c-0.034,-0.005 -0.072,0.018 -0.115,0.07 -0.038,0.047 -0.073,0.107 -0.103,0.18 -0.03,0.073 -0.048,0.137 -0.053,0.194 -0.005,0.062 0.007,0.099 0.036,0.11 0.022,0.009 0.044,0.008 0.065,-0.001 0.016,-0.007 0.032,-0.019 0.05,-0.038 0.003,-0.004 0.007,-0.008 0.011,-0.012l0.01 -0.012c0.009,-0.01 0.015,-0.017 0.019,-0.022 0.014,-0.015 0.025,-0.022 0.035,-0.022 0.01,0 0.022,0.007 0.036,0.021 0.004,0.004 0.011,0.011 0.02,0.02l0.011 0.011 0.011 0.011c0.018,0.018 0.034,0.029 0.048,0.036 0.019,0.008 0.038,0.008 0.057,-0.001 0.022,-0.01 0.035,-0.044 0.038,-0.1 0.003,-0.053 -0.003,-0.113 -0.018,-0.18 -0.015,-0.07 -0.036,-0.129 -0.062,-0.177 -0.03,-0.054 -0.062,-0.084 -0.096,-0.089z"/>
   <path id="1" class="fil1" d="M1.029 0.481l-0.008 0.002c-0.003,0.001 -0.005,0.002 -0.007,0.003 -0.002,0.001 -0.004,0.001 -0.007,0.003l-0.003 0.002 -0.003 0.002 -0.006 0.004c-0.002,0.002 -0.004,0.003 -0.006,0.004 -0.015,0.012 -0.029,0.026 -0.042,0.044 -0.01,0.014 -0.021,0.031 -0.032,0.052 -0.007,0.015 -0.016,0.033 -0.025,0.056 0.005,-0.019 0.012,-0.039 0.02,-0.058 0.009,-0.019 0.019,-0.037 0.031,-0.054 0.014,-0.019 0.029,-0.033 0.044,-0.044 0.019,-0.013 0.039,-0.019 0.059,-0.017l-0.015 0.002zm0.24 0.176c-0.025,-0.067 -0.06,-0.119 -0.104,-0.158 -0.046,-0.039 -0.092,-0.056 -0.139,-0.05 -0.04,0.005 -0.076,0.032 -0.11,0.08 -0.032,0.046 -0.055,0.101 -0.07,0.165 -0.016,0.073 -0.018,0.141 -0.007,0.204 0.006,0.031 0.014,0.056 0.026,0.074 0.013,0.02 0.028,0.032 0.046,0.035 0.028,0.005 0.051,-0.005 0.068,-0.031 0.013,-0.019 0.025,-0.048 0.035,-0.088 0.002,-0.007 0.004,-0.016 0.005,-0.025l0.003 -0.012 0.002 -0.012c0.004,-0.021 0.007,-0.036 0.01,-0.044 0.008,-0.03 0.016,-0.046 0.026,-0.047 0.008,-0.002 0.015,0.002 0.022,0.011 0.006,0.007 0.012,0.019 0.018,0.036 0.002,0.006 0.005,0.014 0.009,0.024l0.005 0.013 0.005 0.013c0.008,0.023 0.016,0.041 0.023,0.055 0.018,0.038 0.039,0.063 0.063,0.077 0.022,0.013 0.043,0.013 0.062,0 0.012,-0.008 0.022,-0.022 0.029,-0.042 0.007,-0.02 0.011,-0.044 0.012,-0.073 0.002,-0.063 -0.011,-0.132 -0.04,-0.206z"/>
   <path id="2" class="fil1" d="M1.825 0.685c-0.006,0.008 -0.014,0.014 -0.022,0.017 -0.009,0.004 -0.018,0.005 -0.027,0.004 0.018,-0.003 0.032,-0.011 0.044,-0.026 0.009,-0.012 0.016,-0.028 0.019,-0.048 0.003,0.019 -0.001,0.037 -0.013,0.052zm-0.083 -0.052c0,-0.012 0.003,-0.023 0.01,-0.031 0.007,-0.009 0.014,-0.013 0.023,-0.013 0.009,0 0.017,0.004 0.024,0.013 0.007,0.009 0.01,0.019 0.01,0.031 0,0.012 -0.003,0.023 -0.01,0.031 -0.007,0.009 -0.014,0.013 -0.024,0.013 -0.009,0 -0.017,-0.004 -0.023,-0.013 -0.007,-0.009 -0.01,-0.019 -0.01,-0.031zm-0.197 0.056c-0.007,0.007 -0.014,0.013 -0.022,0.016 -0.009,0.004 -0.018,0.005 -0.027,0.004 0.017,-0.003 0.031,-0.011 0.043,-0.025 0.01,-0.011 0.018,-0.026 0.024,-0.045 0.001,0.018 -0.005,0.035 -0.018,0.05zm-0.056 -0.011c-0.007,-0.003 -0.012,-0.009 -0.015,-0.019 -0.002,-0.009 -0.001,-0.02 0.003,-0.03 0.004,-0.011 0.01,-0.019 0.018,-0.024 0.008,-0.005 0.016,-0.007 0.023,-0.004 0.007,0.003 0.012,0.009 0.014,0.019 0.002,0.009 0.001,0.02 -0.003,0.03 -0.004,0.01 -0.01,0.018 -0.018,0.024 -0.008,0.005 -0.016,0.007 -0.023,0.004zm-0.092 -0.114c-0.009,0.016 -0.015,0.035 -0.019,0.057 0,-0.009 0.001,-0.019 0.003,-0.03 0.002,-0.009 0.005,-0.019 0.01,-0.029 0.009,-0.019 0.023,-0.035 0.04,-0.047 0.014,-0.01 0.033,-0.018 0.057,-0.024 0.02,-0.004 0.04,-0.007 0.06,-0.008l-0.015 0.003 -0.015 0.003c-0.011,0.002 -0.021,0.005 -0.029,0.007 -0.024,0.007 -0.042,0.015 -0.054,0.024 -0.016,0.011 -0.029,0.026 -0.039,0.043zm0.499 -0.045c-0.02,-0.02 -0.051,-0.035 -0.092,-0.047 -0.037,-0.011 -0.08,-0.018 -0.127,-0.022 -0.046,-0.003 -0.089,-0.002 -0.131,0.003 -0.043,0.005 -0.077,0.013 -0.103,0.025 -0.032,0.014 -0.057,0.038 -0.074,0.07 -0.016,0.031 -0.023,0.063 -0.02,0.099 0.003,0.037 0.017,0.069 0.04,0.096 0.026,0.03 0.061,0.051 0.106,0.061 0.014,0.003 0.023,0.009 0.029,0.018 0.004,0.007 0.007,0.018 0.008,0.033 0,0.004 0,0.011 0,0.021l0 0.011c0,0.004 0,0.008 0,0.012 0.001,0.02 0.004,0.037 0.008,0.052 0.006,0.02 0.018,0.036 0.035,0.046 0.017,0.01 0.035,0.014 0.054,0.011 0.021,-0.003 0.039,-0.013 0.054,-0.029 0.017,-0.018 0.028,-0.043 0.033,-0.073 0.007,-0.045 0.013,-0.074 0.018,-0.089 0.006,-0.015 0.015,-0.023 0.026,-0.023 0.048,-0.003 0.088,-0.015 0.119,-0.037 0.028,-0.019 0.047,-0.044 0.057,-0.075 0.009,-0.029 0.01,-0.058 0.002,-0.088 -0.008,-0.03 -0.022,-0.055 -0.043,-0.076z"/>
   <path id="3" class="fil1" d="M2.258 0.796c-0.005,0.004 -0.011,0.007 -0.017,0.009 -0.007,0.002 -0.013,0.002 -0.019,0 0.012,-0.003 0.022,-0.008 0.031,-0.015 0.007,-0.006 0.015,-0.014 0.024,-0.026 -0.002,0.013 -0.008,0.023 -0.019,0.032zm-0.042 -0.022c-0.006,-0.003 -0.01,-0.008 -0.012,-0.015 -0.002,-0.007 -0.002,-0.015 0.001,-0.023 0.003,-0.008 0.008,-0.014 0.015,-0.018 0.007,-0.004 0.013,-0.005 0.019,-0.002 0.006,0.002 0.01,0.007 0.012,0.014 0.002,0.007 0.001,0.015 -0.002,0.023 -0.003,0.008 -0.008,0.014 -0.015,0.018 -0.007,0.004 -0.013,0.005 -0.019,0.002zm-0.063 -0.211c-0.01,0.014 -0.022,0.032 -0.036,0.054 -0.005,0.008 -0.01,0.018 -0.016,0.028l-0.016 0.029c0.008,-0.019 0.017,-0.039 0.028,-0.06 0.01,-0.019 0.022,-0.038 0.035,-0.056 0.015,-0.021 0.03,-0.038 0.044,-0.05l0.006 -0.005c0.002,-0.002 0.004,-0.004 0.006,-0.005l0.007 -0.005 0.007 -0.004c0.012,-0.006 0.023,-0.01 0.032,-0.009 -0.009,0.001 -0.019,0.005 -0.03,0.012l-0.006 0.005 -0.006 0.005c-0.002,0.001 -0.004,0.003 -0.006,0.005l-0.006 0.006c-0.013,0.014 -0.027,0.031 -0.041,0.05zm0.104 -0.113c-0.034,-0.005 -0.072,0.018 -0.115,0.07 -0.038,0.047 -0.073,0.107 -0.103,0.18 -0.03,0.073 -0.048,0.137 -0.053,0.194 -0.005,0.062 0.007,0.099 0.036,0.11 0.022,0.009 0.044,0.008 0.065,-0.001 0.016,-0.007 0.032,-0.019 0.05,-0.038 0.003,-0.004 0.007,-0.008 0.011,-0.012l0.01 -0.012c0.009,-0.01 0.015,-0.017 0.019,-0.022 0.014,-0.015 0.025,-0.022 0.035,-0.022 0.01,0 0.022,0.007 0.036,0.021 0.004,0.004 0.011,0.011 0.02,0.02l0.011 0.011 0.011 0.011c0.018,0.018 0.034,0.029 0.048,0.036 0.019,0.008 0.038,0.008 0.057,-0.001 0.022,-0.01 0.035,-0.044 0.038,-0.1 0.003,-0.053 -0.003,-0.113 -0.018,-0.18 -0.015,-0.07 -0.036,-0.129 -0.062,-0.177 -0.03,-0.054 -0.062,-0.084 -0.096,-0.089z"/>
   <path id="4" class="fil1" d="M2.755 0.83c-0.004,0.009 -0.011,0.015 -0.019,0.02 -0.008,0.005 -0.017,0.006 -0.026,0.005 0.009,-0.002 0.017,-0.005 0.023,-0.009 0.007,-0.005 0.012,-0.011 0.016,-0.018 0.007,-0.014 0.008,-0.03 0.004,-0.049 0.005,0.007 0.007,0.016 0.008,0.025 0.001,0.009 -0.001,0.018 -0.005,0.027zm-0.073 -0.024c-0.004,-0.007 -0.006,-0.015 -0.005,-0.023 0.001,-0.007 0.004,-0.013 0.01,-0.016 0.005,-0.003 0.012,-0.003 0.018,0 0.007,0.003 0.013,0.009 0.017,0.016 0.004,0.008 0.006,0.015 0.005,0.023 -0.001,0.008 -0.004,0.013 -0.009,0.016 -0.005,0.003 -0.012,0.003 -0.018,0 -0.007,-0.003 -0.013,-0.009 -0.017,-0.016zm-0.034 -0.163c0.006,-0.002 0.012,-0.004 0.017,-0.007 0.005,-0.003 0.01,-0.007 0.014,-0.011 0.004,-0.004 0.008,-0.009 0.011,-0.015 0.003,-0.005 0.005,-0.011 0.008,-0.017 0.001,0.013 -0.003,0.026 -0.014,0.037 -0.005,0.005 -0.011,0.009 -0.017,0.011 -0.007,0.003 -0.013,0.003 -0.02,0.002zm-0.008 -0.057c0.003,-0.005 0.007,-0.009 0.011,-0.011 0.004,-0.002 0.009,-0.002 0.012,0 0.003,0.002 0.005,0.006 0.006,0.011 0.001,0.005 -0.001,0.01 -0.004,0.015 -0.003,0.005 -0.007,0.009 -0.011,0.011 -0.004,0.002 -0.008,0.002 -0.012,0 -0.003,-0.002 -0.005,-0.006 -0.006,-0.011 -0.001,-0.005 0.001,-0.01 0.003,-0.015zm-0.067 -0.07c-0.006,0.006 -0.013,0.014 -0.019,0.024 -0.01,0.015 -0.019,0.033 -0.027,0.055 -0.006,0.017 -0.013,0.037 -0.018,0.059 0.002,-0.02 0.006,-0.041 0.013,-0.061 0.007,-0.021 0.016,-0.04 0.027,-0.057 0.013,-0.02 0.028,-0.034 0.045,-0.044 0.011,-0.006 0.02,-0.01 0.029,-0.013 0.011,-0.002 0.021,-0.003 0.031,-0.003 -0.022,0.002 -0.041,0.009 -0.057,0.02 -0.009,0.006 -0.016,0.012 -0.023,0.02zm0.169 0.149c-0.004,-0.002 -0.005,-0.006 -0.003,-0.013 0.001,-0.002 0.003,-0.006 0.006,-0.011l0.002 -0.003 0.002 -0.003c0.001,-0.003 0.003,-0.006 0.004,-0.008 0.007,-0.014 0.012,-0.028 0.015,-0.041 0.004,-0.019 0.005,-0.038 0.001,-0.058 -0.004,-0.022 -0.016,-0.041 -0.038,-0.056 -0.022,-0.016 -0.046,-0.024 -0.074,-0.025 -0.031,-0.001 -0.059,0.008 -0.085,0.026 -0.03,0.021 -0.053,0.053 -0.071,0.095 -0.018,0.044 -0.027,0.092 -0.029,0.144 -0.002,0.053 0.006,0.102 0.022,0.146 0.017,0.048 0.043,0.086 0.076,0.111 0.038,0.029 0.083,0.041 0.136,0.038 0.051,-0.003 0.091,-0.02 0.121,-0.049 0.028,-0.027 0.043,-0.06 0.045,-0.1 0.003,-0.039 -0.007,-0.076 -0.029,-0.111 -0.024,-0.037 -0.058,-0.065 -0.102,-0.082z"/>
   <path id="5" class="fil1" d="M3.221 0.512c-0.007,0.008 -0.014,0.017 -0.021,0.028 -0.012,0.019 -0.023,0.04 -0.032,0.063l-0.006 0.016 -0.006 0.017c-0.005,0.015 -0.01,0.026 -0.013,0.033 -0.006,0.014 -0.012,0.025 -0.018,0.032 -0.004,0.005 -0.009,0.008 -0.015,0.01 -0.005,0.002 -0.011,0.003 -0.018,0.002 0.007,-0 0.013,-0.001 0.017,-0.003 0.005,-0.002 0.009,-0.006 0.013,-0.011 0.005,-0.007 0.01,-0.017 0.015,-0.031l0.005 -0.017 0.006 -0.017c0.004,-0.014 0.008,-0.025 0.012,-0.034 0.01,-0.024 0.021,-0.045 0.034,-0.063 0.017,-0.024 0.035,-0.04 0.052,-0.049 -0.01,0.006 -0.018,0.014 -0.026,0.023zm-0.26 0.091c-0.004,0.016 -0.007,0.035 -0.01,0.057l-0.003 0.029 -0.004 0.029c-0.002,-0.057 0.004,-0.108 0.02,-0.153 0.003,-0.009 0.006,-0.017 0.009,-0.024 0.005,-0.009 0.009,-0.017 0.014,-0.024 0.013,-0.017 0.027,-0.026 0.044,-0.025 -0.02,0.002 -0.036,0.016 -0.049,0.043 -0.005,0.01 -0.009,0.022 -0.013,0.035 -0.002,0.005 -0.003,0.011 -0.004,0.017l-0.002 0.008 -0.001 0.004 -0.001 0.003zm0.36 -0.14c-0.032,-0.019 -0.064,-0.018 -0.097,0.005 -0.027,0.018 -0.051,0.048 -0.072,0.088 -0.007,0.013 -0.013,0.028 -0.02,0.045 -0.002,0.006 -0.005,0.014 -0.008,0.022l-0.003 0.01 -0.002 0.005 -0.002 0.005c-0.005,0.014 -0.009,0.024 -0.012,0.03 -0.004,0.008 -0.007,0.011 -0.011,0.011 -0.007,-0.001 -0.01,-0.006 -0.011,-0.016 -0.001,-0.009 0.001,-0.029 0.006,-0.06 0.008,-0.057 0.005,-0.098 -0.011,-0.122 -0.013,-0.019 -0.033,-0.026 -0.06,-0.022 -0.033,0.004 -0.06,0.036 -0.08,0.095 -0.019,0.057 -0.027,0.126 -0.024,0.208 0.005,0.15 0.049,0.231 0.133,0.242 0.025,0.003 0.049,-0.003 0.073,-0.017 0.023,-0.014 0.042,-0.033 0.058,-0.058 0.014,-0.022 0.026,-0.042 0.036,-0.06 0.004,-0.007 0.007,-0.014 0.01,-0.021 0.002,-0.005 0.005,-0.01 0.007,-0.015 0.004,-0.01 0.007,-0.015 0.008,-0.017 0.002,-0.003 0.005,-0.003 0.008,-0.003 0.003,0.001 0.004,0.012 0.001,0.033l-0.001 0.007 -0.001 0.007c-0.001,0.007 -0.001,0.012 -0.002,0.016 -0.001,0.014 -0.002,0.026 -0.003,0.036 -0.001,0.064 0.021,0.096 0.068,0.095 0.03,-0 0.054,-0.026 0.071,-0.077 0.015,-0.046 0.022,-0.104 0.023,-0.173 0,-0.068 -0.007,-0.13 -0.022,-0.185 -0.015,-0.06 -0.036,-0.097 -0.062,-0.113z"/>
   <path id="6" class="fil1" d="M3.584 0.484c-0.018,0.003 -0.033,0.006 -0.045,0.009 -0.017,0.005 -0.031,0.01 -0.042,0.017 -0.008,0.005 -0.013,0.01 -0.016,0.014 -0.004,0.005 -0.007,0.013 -0.007,0.021 -0.002,-0.008 -0.001,-0.016 0.003,-0.023 0.003,-0.006 0.009,-0.012 0.016,-0.018 0.01,-0.008 0.025,-0.014 0.043,-0.02 0.029,-0.008 0.06,-0.01 0.093,-0.007 -0.017,0.002 -0.032,0.003 -0.046,0.005zm0.075 -0.035c-0.064,-0.003 -0.116,0.004 -0.156,0.021 -0.042,0.018 -0.061,0.044 -0.059,0.078 0.002,0.019 0.01,0.033 0.024,0.042 0.01,0.006 0.026,0.011 0.047,0.013l0.013 0.001 0.013 0.001c0.01,0.001 0.018,0.002 0.023,0.003 0.016,0.003 0.026,0.01 0.029,0.02 0.002,0.006 -0,0.04 -0.007,0.102 -0.004,0.032 -0.006,0.059 -0.007,0.081 -0.002,0.032 -0.001,0.059 0.001,0.083 0.003,0.035 0.016,0.064 0.037,0.086 0.022,0.023 0.048,0.033 0.079,0.029 0.056,-0.008 0.077,-0.063 0.062,-0.167 -0.008,-0.055 -0.012,-0.102 -0.013,-0.141 -0.001,-0.042 0.003,-0.066 0.012,-0.073 0.006,-0.004 0.016,-0.007 0.031,-0.007 0.004,0 0.011,0 0.02,0l0.011 0 0.011 -0c0.017,-0 0.03,-0.003 0.04,-0.007 0.013,-0.006 0.021,-0.016 0.025,-0.03 0.005,-0.018 0.003,-0.035 -0.008,-0.05 -0.01,-0.015 -0.027,-0.029 -0.05,-0.041 -0.046,-0.024 -0.106,-0.038 -0.18,-0.042z"/>
   <path class="fil2" d="M0.566 0.79c-0.005,0.004 -0.011,0.007 -0.017,0.009 -0.007,0.002 -0.013,0.002 -0.019,0 0.012,-0.003 0.022,-0.008 0.031,-0.015 0.007,-0.006 0.015,-0.014 0.024,-0.026 -0.002,0.013 -0.008,0.023 -0.019,0.032zm-0.042 -0.022c-0.006,-0.003 -0.01,-0.008 -0.012,-0.015 -0.002,-0.007 -0.002,-0.015 0.001,-0.023 0.003,-0.008 0.008,-0.014 0.015,-0.018 0.007,-0.004 0.013,-0.005 0.019,-0.002 0.006,0.002 0.01,0.007 0.012,0.014 0.002,0.007 0.001,0.015 -0.002,0.023 -0.003,0.008 -0.008,0.014 -0.015,0.018 -0.007,0.004 -0.013,0.005 -0.019,0.002zm-0.063 -0.211c-0.01,0.014 -0.022,0.032 -0.036,0.054 -0.005,0.008 -0.01,0.018 -0.016,0.028l-0.016 0.029c0.008,-0.019 0.017,-0.039 0.028,-0.06 0.01,-0.019 0.022,-0.038 0.035,-0.056 0.015,-0.021 0.03,-0.038 0.044,-0.05l0.006 -0.005c0.002,-0.002 0.004,-0.004 0.006,-0.005l0.007 -0.005 0.007 -0.004c0.012,-0.006 0.023,-0.01 0.032,-0.009 -0.009,0.001 -0.019,0.005 -0.03,0.012l-0.006 0.005 -0.006 0.005c-0.002,0.001 -0.004,0.003 -0.006,0.005l-0.006 0.006c-0.013,0.014 -0.027,0.031 -0.041,0.05zm0.104 -0.113c-0.034,-0.005 -0.072,0.018 -0.115,0.07 -0.038,0.047 -0.073,0.107 -0.103,0.18 -0.03,0.073 -0.048,0.137 -0.053,0.194 -0.005,0.062 0.007,0.099 0.036,0.11 0.022,0.009 0.044,0.008 0.065,-0.001 0.016,-0.007 0.032,-0.019 0.05,-0.038 0.003,-0.004 0.007,-0.008 0.011,-0.012l0.01 -0.012c0.009,-0.01 0.015,-0.017 0.019,-0.022 0.014,-0.015 0.025,-0.022 0.035,-0.022 0.01,0 0.022,0.007 0.036,0.021 0.004,0.004 0.011,0.011 0.02,0.02l0.011 0.011 0.011 0.011c0.018,0.018 0.034,0.029 0.048,0.036 0.019,0.008 0.038,0.008 0.057,-0.001 0.022,-0.01 0.035,-0.044 0.038,-0.1 0.003,-0.053 -0.003,-0.113 -0.018,-0.18 -0.015,-0.07 -0.036,-0.129 -0.062,-0.177 -0.03,-0.054 -0.062,-0.084 -0.096,-0.089z"/>
   <path id="1" class="fil2" d="M0.977 0.474l-0.008 0.002c-0.003,0.001 -0.005,0.002 -0.007,0.003 -0.002,0.001 -0.004,0.001 -0.007,0.003l-0.003 0.002 -0.003 0.002 -0.006 0.004c-0.002,0.002 -0.004,0.003 -0.006,0.004 -0.015,0.012 -0.029,0.026 -0.042,0.044 -0.01,0.014 -0.021,0.031 -0.032,0.052 -0.007,0.015 -0.016,0.033 -0.025,0.056 0.005,-0.019 0.012,-0.039 0.02,-0.058 0.009,-0.019 0.019,-0.037 0.031,-0.054 0.014,-0.019 0.029,-0.033 0.044,-0.044 0.019,-0.013 0.039,-0.019 0.059,-0.017l-0.015 0.002zm0.24 0.176c-0.025,-0.067 -0.06,-0.119 -0.104,-0.158 -0.046,-0.039 -0.092,-0.056 -0.139,-0.05 -0.04,0.005 -0.076,0.032 -0.11,0.08 -0.032,0.046 -0.055,0.101 -0.07,0.165 -0.016,0.073 -0.018,0.141 -0.007,0.204 0.006,0.031 0.014,0.056 0.026,0.074 0.013,0.02 0.028,0.032 0.046,0.035 0.028,0.005 0.051,-0.005 0.068,-0.031 0.013,-0.019 0.025,-0.048 0.035,-0.088 0.002,-0.007 0.004,-0.016 0.005,-0.025l0.003 -0.012 0.002 -0.012c0.004,-0.021 0.007,-0.036 0.01,-0.044 0.008,-0.03 0.016,-0.046 0.026,-0.047 0.008,-0.002 0.015,0.002 0.022,0.011 0.006,0.007 0.012,0.019 0.018,0.036 0.002,0.006 0.005,0.014 0.009,0.024l0.005 0.013 0.005 0.013c0.008,0.023 0.016,0.041 0.023,0.055 0.018,0.038 0.039,0.063 0.063,0.077 0.022,0.013 0.043,0.013 0.062,0 0.012,-0.008 0.022,-0.022 0.029,-0.042 0.007,-0.02 0.011,-0.044 0.012,-0.073 0.002,-0.063 -0.011,-0.132 -0.04,-0.206z"/>
   <path id="2" class="fil2" d="M1.773 0.678c-0.006,0.008 -0.014,0.014 -0.022,0.017 -0.009,0.004 -0.018,0.005 -0.027,0.004 0.018,-0.003 0.032,-0.011 0.044,-0.026 0.009,-0.012 0.016,-0.028 0.019,-0.048 0.003,0.019 -0.001,0.037 -0.013,0.052zm-0.083 -0.052c0,-0.012 0.003,-0.023 0.01,-0.031 0.007,-0.009 0.014,-0.013 0.023,-0.013 0.009,0 0.017,0.004 0.024,0.013 0.007,0.009 0.01,0.019 0.01,0.031 0,0.012 -0.003,0.023 -0.01,0.031 -0.007,0.009 -0.014,0.013 -0.024,0.013 -0.009,0 -0.017,-0.004 -0.023,-0.013 -0.007,-0.009 -0.01,-0.019 -0.01,-0.031zm-0.197 0.056c-0.007,0.007 -0.014,0.013 -0.022,0.016 -0.009,0.004 -0.018,0.005 -0.027,0.004 0.017,-0.003 0.031,-0.011 0.043,-0.025 0.01,-0.011 0.018,-0.026 0.024,-0.045 0.001,0.018 -0.005,0.035 -0.018,0.05zm-0.056 -0.011c-0.007,-0.003 -0.012,-0.009 -0.015,-0.019 -0.002,-0.009 -0.001,-0.02 0.003,-0.03 0.004,-0.011 0.01,-0.019 0.018,-0.024 0.008,-0.005 0.016,-0.007 0.023,-0.004 0.007,0.003 0.012,0.009 0.014,0.019 0.002,0.009 0.001,0.02 -0.003,0.03 -0.004,0.01 -0.01,0.018 -0.018,0.024 -0.008,0.005 -0.016,0.007 -0.023,0.004zm-0.092 -0.114c-0.009,0.016 -0.015,0.035 -0.019,0.057 0,-0.009 0.001,-0.019 0.003,-0.03 0.002,-0.009 0.005,-0.019 0.01,-0.029 0.009,-0.019 0.023,-0.035 0.04,-0.047 0.014,-0.01 0.033,-0.018 0.057,-0.024 0.02,-0.004 0.04,-0.007 0.06,-0.008l-0.015 0.003 -0.015 0.003c-0.011,0.002 -0.021,0.005 -0.029,0.007 -0.024,0.007 -0.042,0.015 -0.054,0.024 -0.016,0.011 -0.029,0.026 -0.039,0.043zm0.499 -0.045c-0.02,-0.02 -0.051,-0.035 -0.092,-0.047 -0.037,-0.011 -0.08,-0.018 -0.127,-0.022 -0.046,-0.003 -0.089,-0.002 -0.131,0.003 -0.043,0.005 -0.077,0.013 -0.103,0.025 -0.032,0.014 -0.057,0.038 -0.074,0.07 -0.016,0.031 -0.023,0.063 -0.02,0.099 0.003,0.037 0.017,0.069 0.04,0.096 0.026,0.03 0.061,0.051 0.106,0.061 0.014,0.003 0.023,0.009 0.029,0.018 0.004,0.007 0.007,0.018 0.008,0.033 0,0.004 0,0.011 0,0.021l0 0.011c0,0.004 0,0.008 0,0.012 0.001,0.02 0.004,0.037 0.008,0.052 0.006,0.02 0.018,0.036 0.035,0.046 0.017,0.01 0.035,0.014 0.054,0.011 0.021,-0.003 0.039,-0.013 0.054,-0.029 0.017,-0.018 0.028,-0.043 0.033,-0.073 0.007,-0.045 0.013,-0.074 0.018,-0.089 0.006,-0.015 0.015,-0.023 0.026,-0.023 0.048,-0.003 0.088,-0.015 0.119,-0.037 0.028,-0.019 0.047,-0.044 0.057,-0.075 0.009,-0.029 0.01,-0.058 0.002,-0.088 -0.008,-0.03 -0.022,-0.055 -0.043,-0.076z"/>
   <path id="3" class="fil2" d="M2.207 0.79c-0.005,0.004 -0.011,0.007 -0.017,0.009 -0.007,0.002 -0.013,0.002 -0.019,0 0.012,-0.003 0.022,-0.008 0.031,-0.015 0.007,-0.006 0.015,-0.014 0.024,-0.026 -0.002,0.013 -0.008,0.023 -0.019,0.032zm-0.042 -0.022c-0.006,-0.003 -0.01,-0.008 -0.012,-0.015 -0.002,-0.007 -0.002,-0.015 0.001,-0.023 0.003,-0.008 0.008,-0.014 0.015,-0.018 0.007,-0.004 0.013,-0.005 0.019,-0.002 0.006,0.002 0.01,0.007 0.012,0.014 0.002,0.007 0.001,0.015 -0.002,0.023 -0.003,0.008 -0.008,0.014 -0.015,0.018 -0.007,0.004 -0.013,0.005 -0.019,0.002zm-0.063 -0.211c-0.01,0.014 -0.022,0.032 -0.036,0.054 -0.005,0.008 -0.01,0.018 -0.016,0.028l-0.016 0.029c0.008,-0.019 0.017,-0.039 0.028,-0.06 0.01,-0.019 0.022,-0.038 0.035,-0.056 0.015,-0.021 0.03,-0.038 0.044,-0.05l0.006 -0.005c0.002,-0.002 0.004,-0.004 0.006,-0.005l0.007 -0.005 0.007 -0.004c0.012,-0.006 0.023,-0.01 0.032,-0.009 -0.009,0.001 -0.019,0.005 -0.03,0.012l-0.006 0.005 -0.006 0.005c-0.002,0.001 -0.004,0.003 -0.006,0.005l-0.006 0.006c-0.013,0.014 -0.027,0.031 -0.041,0.05zm0.104 -0.113c-0.034,-0.005 -0.072,0.018 -0.115,0.07 -0.038,0.047 -0.073,0.107 -0.103,0.18 -0.03,0.073 -0.048,0.137 -0.053,0.194 -0.005,0.062 0.007,0.099 0.036,0.11 0.022,0.009 0.044,0.008 0.065,-0.001 0.016,-0.007 0.032,-0.019 0.05,-0.038 0.003,-0.004 0.007,-0.008 0.011,-0.012l0.01 -0.012c0.009,-0.01 0.015,-0.017 0.019,-0.022 0.014,-0.015 0.025,-0.022 0.035,-0.022 0.01,0 0.022,0.007 0.036,0.021 0.004,0.004 0.011,0.011 0.02,0.02l0.011 0.011 0.011 0.011c0.018,0.018 0.034,0.029 0.048,0.036 0.019,0.008 0.038,0.008 0.057,-0.001 0.022,-0.01 0.035,-0.044 0.038,-0.1 0.003,-0.053 -0.003,-0.113 -0.018,-0.18 -0.015,-0.07 -0.036,-0.129 -0.062,-0.177 -0.03,-0.054 -0.062,-0.084 -0.096,-0.089z"/>
   <path id="4" class="fil2" d="M2.703 0.824c-0.004,0.009 -0.011,0.015 -0.019,0.02 -0.008,0.005 -0.017,0.006 -0.026,0.005 0.009,-0.002 0.017,-0.005 0.023,-0.009 0.007,-0.005 0.012,-0.011 0.016,-0.018 0.007,-0.014 0.008,-0.03 0.004,-0.049 0.005,0.007 0.007,0.016 0.008,0.025 0.001,0.009 -0.001,0.018 -0.005,0.027zm-0.073 -0.024c-0.004,-0.007 -0.006,-0.015 -0.005,-0.023 0.001,-0.007 0.004,-0.013 0.01,-0.016 0.005,-0.003 0.012,-0.003 0.018,0 0.007,0.003 0.013,0.009 0.017,0.016 0.004,0.008 0.006,0.015 0.005,0.023 -0.001,0.008 -0.004,0.013 -0.009,0.016 -0.005,0.003 -0.012,0.003 -0.018,0 -0.007,-0.003 -0.013,-0.009 -0.017,-0.016zm-0.034 -0.163c0.006,-0.002 0.012,-0.004 0.017,-0.007 0.005,-0.003 0.01,-0.007 0.014,-0.011 0.004,-0.004 0.008,-0.009 0.011,-0.015 0.003,-0.005 0.005,-0.011 0.008,-0.017 0.001,0.013 -0.003,0.026 -0.014,0.037 -0.005,0.005 -0.011,0.009 -0.017,0.011 -0.007,0.003 -0.013,0.003 -0.02,0.002zm-0.008 -0.057c0.003,-0.005 0.007,-0.009 0.011,-0.011 0.004,-0.002 0.009,-0.002 0.012,0 0.003,0.002 0.005,0.006 0.006,0.011 0.001,0.005 -0.001,0.01 -0.004,0.015 -0.003,0.005 -0.007,0.009 -0.011,0.011 -0.004,0.002 -0.008,0.002 -0.012,0 -0.003,-0.002 -0.005,-0.006 -0.006,-0.011 -0.001,-0.005 0.001,-0.01 0.003,-0.015zm-0.067 -0.07c-0.006,0.006 -0.013,0.014 -0.019,0.024 -0.01,0.015 -0.019,0.033 -0.027,0.055 -0.006,0.017 -0.013,0.037 -0.018,0.059 0.002,-0.02 0.006,-0.041 0.013,-0.061 0.007,-0.021 0.016,-0.04 0.027,-0.057 0.013,-0.02 0.028,-0.034 0.045,-0.044 0.011,-0.006 0.02,-0.01 0.029,-0.013 0.011,-0.002 0.021,-0.003 0.031,-0.003 -0.022,0.002 -0.041,0.009 -0.057,0.02 -0.009,0.006 -0.016,0.012 -0.023,0.02zm0.169 0.149c-0.004,-0.002 -0.005,-0.006 -0.003,-0.013 0.001,-0.002 0.003,-0.006 0.006,-0.011l0.002 -0.003 0.002 -0.003c0.001,-0.003 0.003,-0.006 0.004,-0.008 0.007,-0.014 0.012,-0.028 0.015,-0.041 0.004,-0.019 0.005,-0.038 0.001,-0.058 -0.004,-0.022 -0.016,-0.041 -0.038,-0.056 -0.022,-0.016 -0.046,-0.024 -0.074,-0.025 -0.031,-0.001 -0.059,0.008 -0.085,0.026 -0.03,0.021 -0.053,0.053 -0.071,0.095 -0.018,0.044 -0.027,0.092 -0.029,0.144 -0.002,0.053 0.006,0.102 0.022,0.146 0.017,0.048 0.043,0.086 0.076,0.111 0.038,0.029 0.083,0.041 0.136,0.038 0.051,-0.003 0.091,-0.02 0.121,-0.049 0.028,-0.027 0.043,-0.06 0.045,-0.1 0.003,-0.039 -0.007,-0.076 -0.029,-0.111 -0.024,-0.037 -0.058,-0.065 -0.102,-0.082z"/>
   <path id="5" class="fil2" d="M3.169 0.505c-0.007,0.008 -0.014,0.017 -0.021,0.028 -0.012,0.019 -0.023,0.04 -0.032,0.063l-0.006 0.016 -0.006 0.017c-0.005,0.015 -0.01,0.026 -0.013,0.033 -0.006,0.014 -0.012,0.025 -0.018,0.032 -0.004,0.005 -0.009,0.008 -0.015,0.01 -0.005,0.002 -0.011,0.003 -0.018,0.002 0.007,-0 0.013,-0.001 0.017,-0.003 0.005,-0.002 0.009,-0.006 0.013,-0.011 0.005,-0.007 0.01,-0.017 0.015,-0.031l0.005 -0.017 0.006 -0.017c0.004,-0.014 0.008,-0.025 0.012,-0.034 0.01,-0.024 0.021,-0.045 0.034,-0.063 0.017,-0.024 0.035,-0.04 0.052,-0.049 -0.01,0.006 -0.018,0.014 -0.026,0.023zm-0.26 0.091c-0.004,0.016 -0.007,0.035 -0.01,0.057l-0.003 0.029 -0.004 0.029c-0.002,-0.057 0.004,-0.108 0.02,-0.153 0.003,-0.009 0.006,-0.017 0.009,-0.024 0.005,-0.009 0.009,-0.017 0.014,-0.024 0.013,-0.017 0.027,-0.026 0.044,-0.025 -0.02,0.002 -0.036,0.016 -0.049,0.043 -0.005,0.01 -0.009,0.022 -0.013,0.035 -0.002,0.005 -0.003,0.011 -0.004,0.017l-0.002 0.008 -0.001 0.004 -0.001 0.003zm0.36 -0.14c-0.032,-0.019 -0.064,-0.018 -0.097,0.005 -0.027,0.018 -0.051,0.048 -0.072,0.088 -0.007,0.013 -0.013,0.028 -0.02,0.045 -0.002,0.006 -0.005,0.014 -0.008,0.022l-0.003 0.01 -0.002 0.005 -0.002 0.005c-0.005,0.014 -0.009,0.024 -0.012,0.03 -0.004,0.008 -0.007,0.011 -0.011,0.011 -0.007,-0.001 -0.01,-0.006 -0.011,-0.016 -0.001,-0.009 0.001,-0.029 0.006,-0.06 0.008,-0.057 0.005,-0.098 -0.011,-0.122 -0.013,-0.019 -0.033,-0.026 -0.06,-0.022 -0.033,0.004 -0.06,0.036 -0.08,0.095 -0.019,0.057 -0.027,0.126 -0.024,0.208 0.005,0.15 0.049,0.231 0.133,0.242 0.025,0.003 0.049,-0.003 0.073,-0.017 0.023,-0.014 0.042,-0.033 0.058,-0.058 0.014,-0.022 0.026,-0.042 0.036,-0.06 0.004,-0.007 0.007,-0.014 0.01,-0.021 0.002,-0.005 0.005,-0.01 0.007,-0.015 0.004,-0.01 0.007,-0.015 0.008,-0.017 0.002,-0.003 0.005,-0.003 0.008,-0.003 0.003,0.001 0.004,0.012 0.001,0.033l-0.001 0.007 -0.001 0.007c-0.001,0.007 -0.001,0.012 -0.002,0.016 -0.001,0.014 -0.002,0.026 -0.003,0.036 -0.001,0.064 0.021,0.096 0.068,0.095 0.03,-0 0.054,-0.026 0.071,-0.077 0.015,-0.046 0.022,-0.104 0.023,-0.173 0,-0.068 -0.007,-0.13 -0.022,-0.185 -0.015,-0.06 -0.036,-0.097 -0.062,-0.113z"/>
   <path id="6" class="fil2" d="M3.532 0.478c-0.018,0.003 -0.033,0.006 -0.045,0.009 -0.017,0.005 -0.031,0.01 -0.042,0.017 -0.008,0.005 -0.013,0.01 -0.016,0.014 -0.004,0.005 -0.007,0.013 -0.007,0.021 -0.002,-0.008 -0.001,-0.016 0.003,-0.023 0.003,-0.006 0.009,-0.012 0.016,-0.018 0.01,-0.008 0.025,-0.014 0.043,-0.02 0.029,-0.008 0.06,-0.01 0.093,-0.007 -0.017,0.002 -0.032,0.003 -0.046,0.005zm0.075 -0.035c-0.064,-0.003 -0.116,0.004 -0.156,0.021 -0.042,0.018 -0.061,0.044 -0.058,0.078 0.002,0.019 0.01,0.033 0.024,0.042 0.01,0.006 0.026,0.011 0.047,0.013l0.013 0.001 0.013 0.001c0.01,0.001 0.018,0.002 0.023,0.003 0.016,0.003 0.026,0.01 0.029,0.02 0.002,0.006 -0,0.04 -0.007,0.102 -0.004,0.032 -0.006,0.059 -0.007,0.081 -0.002,0.032 -0.001,0.059 0.001,0.083 0.003,0.035 0.016,0.064 0.037,0.086 0.022,0.023 0.048,0.033 0.079,0.029 0.056,-0.008 0.077,-0.063 0.062,-0.167 -0.008,-0.055 -0.012,-0.102 -0.013,-0.141 -0.001,-0.042 0.003,-0.066 0.012,-0.073 0.006,-0.004 0.016,-0.007 0.031,-0.007 0.004,0 0.011,0 0.02,0l0.011 0 0.011 -0c0.017,-0 0.03,-0.003 0.04,-0.007 0.013,-0.006 0.021,-0.016 0.025,-0.03 0.005,-0.018 0.003,-0.035 -0.008,-0.05 -0.01,-0.015 -0.027,-0.029 -0.05,-0.041 -0.046,-0.024 -0.106,-0.038 -0.18,-0.042z"/>
  </g>
 </g>
</svg>
