<?xml version="1.0" encoding="UTF-8"?>
<!DOCTYPE svg PUBLIC "-//W3C//DTD SVG 1.1//EN" "http://www.w3.org/Graphics/SVG/1.1/DTD/svg11.dtd">
<!-- Creator: CorelDRAW 2019 (64-Bit) -->
<svg xmlns="http://www.w3.org/2000/svg" xml:space="preserve" width="1.30088cm" height="0.33514cm" version="1.1" style="shape-rendering:geometricPrecision; text-rendering:geometricPrecision; image-rendering:optimizeQuality; fill-rule:evenodd; clip-rule:evenodd"
viewBox="0 0 0.627 0.161"
 xmlns:xlink="http://www.w3.org/1999/xlink"
 xmlns:xodm="http://www.corel.com/coreldraw/odm/2003">
 <defs>
  <style type="text/css">
   <![CDATA[
    .fil0 {fill:#8AB7F4}
    .fil1 {fill:white;fill-rule:nonzero}
   ]]>
  </style>
 </defs>
 <g id="Слой_x0020_1">
  <metadata id="CorelCorpID_0Corel-Layer"/>
  <g id="_1783786829728">
   <rect class="fil0" width="0.627" height="0.161" rx="0.043" ry="0.041"/>
   <path class="fil1" d="M0.148 0.099l0.011 -0.003c0.001,0.004 0.003,0.008 0.007,0.012 0.004,0.004 0.008,0.006 0.014,0.006 0.006,0 0.011,-0.002 0.014,-0.005 0.003,-0.003 0.005,-0.007 0.005,-0.011 0,-0.005 -0.002,-0.008 -0.005,-0.011 -0.004,-0.003 -0.009,-0.004 -0.015,-0.004l-0.005 0 0 -0.01c0.005,0 0.009,-0 0.012,-0.001 0.003,-0.001 0.005,-0.002 0.007,-0.005 0.002,-0.002 0.003,-0.005 0.003,-0.008 0,-0.004 -0.001,-0.007 -0.004,-0.01 -0.003,-0.003 -0.007,-0.004 -0.012,-0.004 -0.004,0 -0.008,0.001 -0.011,0.003 -0.003,0.002 -0.005,0.005 -0.006,0.009 -0.001,0.004 -0.002,0.006 -0.002,0.008l-0.011 -0.002c0.003,-0.018 0.013,-0.027 0.03,-0.027 0.008,0 0.015,0.002 0.02,0.007 0.005,0.005 0.007,0.01 0.007,0.016 0,0.008 -0.004,0.014 -0.011,0.018 0.004,0.001 0.008,0.004 0.011,0.007 0.003,0.004 0.004,0.008 0.004,0.013 0,0.007 -0.003,0.013 -0.009,0.018 -0.006,0.005 -0.013,0.007 -0.023,0.007 -0.016,0 -0.027,-0.008 -0.031,-0.025z"/>
   <polygon id="1" class="fil1" points="0.224,0.038 0.235,0.038 0.235,0.106 0.28,0.038 0.291,0.038 0.291,0.123 0.281,0.123 0.281,0.056 0.236,0.123 0.224,0.123 "/>
   <path id="2" class="fil1" d="M0.309 0.123l0 -0.085 0.017 0 0.02 0.06c0.002,0.006 0.003,0.01 0.004,0.013 0.001,-0.003 0.002,-0.008 0.005,-0.014l0.021 -0.059 0.015 0 0 0.085 -0.011 0 0 -0.071 -0.025 0.071 -0.01 0 -0.025 -0.073 0 0.073 -0.011 0z"/>
   <path id="3" class="fil1" d="M0.399 0.123l0.033 -0.085 0.012 0 0.035 0.085 -0.013 0 -0.01 -0.026 -0.036 0 -0.009 0.026 -0.012 0zm0.025 -0.035l0.029 0 -0.009 -0.024c-0.003,-0.007 -0.005,-0.013 -0.006,-0.018 -0.001,0.006 -0.003,0.011 -0.005,0.016l-0.009 0.025z"/>
  </g>
 </g>
</svg>
