<?xml version="1.0" encoding="UTF-8"?>
<!DOCTYPE svg PUBLIC "-//W3C//DTD SVG 1.1//EN" "http://www.w3.org/Graphics/SVG/1.1/DTD/svg11.dtd">
<!-- Creator: CorelDRAW 2019 (64-Bit) -->
<svg xmlns="http://www.w3.org/2000/svg" xml:space="preserve" width="1.30088cm" height="0.33514cm" version="1.1" style="shape-rendering:geometricPrecision; text-rendering:geometricPrecision; image-rendering:optimizeQuality; fill-rule:evenodd; clip-rule:evenodd"
viewBox="0 0 0.658 0.17"
 xmlns:xlink="http://www.w3.org/1999/xlink"
 xmlns:xodm="http://www.corel.com/coreldraw/odm/2003">
 <defs>
  <style type="text/css">
   <![CDATA[
    .fil0 {fill:#009933}
    .fil1 {fill:white;fill-rule:nonzero}
   ]]>
  </style>
 </defs>
 <g id="Слой_x0020_1">
  <metadata id="CorelCorpID_0Corel-Layer"/>
  <g id="_1784353935440">
   <rect class="fil0" width="0.658" height="0.17" rx="0.045" ry="0.043"/>
   <polygon class="fil1" points="0.145,0.13 0.145,0.051 0.116,0.051 0.116,0.04 0.187,0.04 0.187,0.051 0.157,0.051 0.157,0.13 "/>
   <path id="1" class="fil1" d="M0.19 0.04l0.012 0 0.029 0.055 0.025 -0.055 0.012 0 -0.034 0.07c-0.004,0.009 -0.008,0.014 -0.01,0.017 -0.003,0.003 -0.007,0.004 -0.012,0.004 -0.003,0 -0.007,-0.001 -0.011,-0.002l0 -0.01c0.003,0.002 0.007,0.003 0.01,0.003 0.003,0 0.005,-0.001 0.007,-0.003 0.002,-0.002 0.004,-0.006 0.007,-0.013l-0.036 -0.066z"/>
   <path id="2" class="fil1" d="M0.281 0.04l0.056 0 0 0.089 -0.012 0 0 -0.079 -0.032 0 0 0.046c0,0.009 -0,0.016 -0.001,0.021 -0.001,0.004 -0.003,0.008 -0.006,0.01 -0.003,0.002 -0.006,0.004 -0.011,0.004 -0.003,0 -0.006,-0.001 -0.009,-0.002l0.002 -0.01c0.002,0.001 0.004,0.001 0.005,0.001 0.003,0 0.005,-0.001 0.006,-0.003 0.001,-0.002 0.002,-0.007 0.002,-0.014l0 -0.063z"/>
   <path id="3" class="fil1" d="M0.357 0.04l0.012 0 0 0.038 0.021 0c0.014,0 0.023,0.003 0.028,0.008 0.004,0.005 0.007,0.011 0.007,0.018 0,0.007 -0.002,0.013 -0.007,0.018 -0.005,0.005 -0.013,0.008 -0.026,0.008l-0.034 0 0 -0.089zm0.012 0.079l0.022 0c0.007,0 0.013,-0.001 0.016,-0.004 0.003,-0.002 0.005,-0.006 0.005,-0.012 0,-0.004 -0.001,-0.007 -0.003,-0.009 -0.002,-0.003 -0.005,-0.004 -0.008,-0.005 -0.003,-0.001 -0.009,-0.001 -0.016,-0.001l-0.016 0 0 0.031zm0.066 -0.079l0.012 0 0 0.089 -0.012 0 0 -0.089z"/>
   <path id="4" class="fil1" d="M0.531 0.098l0.012 0.003c-0.002,0.01 -0.007,0.017 -0.013,0.022 -0.006,0.005 -0.014,0.008 -0.024,0.008 -0.01,0 -0.017,-0.002 -0.023,-0.006 -0.006,-0.004 -0.011,-0.01 -0.014,-0.017 -0.003,-0.007 -0.005,-0.015 -0.005,-0.024 0,-0.009 0.002,-0.017 0.005,-0.024 0.004,-0.007 0.009,-0.012 0.015,-0.016 0.007,-0.004 0.014,-0.005 0.022,-0.005 0.009,0 0.016,0.002 0.023,0.007 0.006,0.005 0.01,0.011 0.013,0.019l-0.012 0.003c-0.002,-0.006 -0.005,-0.011 -0.009,-0.014 -0.004,-0.003 -0.009,-0.004 -0.015,-0.004 -0.007,0 -0.013,0.002 -0.017,0.005 -0.005,0.003 -0.008,0.008 -0.01,0.013 -0.002,0.006 -0.003,0.011 -0.003,0.017 0,0.008 0.001,0.014 0.003,0.02 0.002,0.006 0.006,0.01 0.01,0.013 0.005,0.003 0.01,0.004 0.015,0.004 0.007,0 0.012,-0.002 0.017,-0.006 0.005,-0.004 0.008,-0.009 0.009,-0.017z"/>
  </g>
 </g>
</svg>
