<?xml version="1.0" encoding="UTF-8"?>
<!DOCTYPE svg PUBLIC "-//W3C//DTD SVG 1.1//EN" "http://www.w3.org/Graphics/SVG/1.1/DTD/svg11.dtd">
<!-- Creator: CorelDRAW 2019 (64-Bit) -->
<svg xmlns="http://www.w3.org/2000/svg" xml:space="preserve" width="0.28863cm" height="0.29147cm" version="1.1" style="shape-rendering:geometricPrecision; text-rendering:geometricPrecision; image-rendering:optimizeQuality; fill-rule:evenodd; clip-rule:evenodd"
viewBox="0 0 0.168 0.169"
 xmlns:xlink="http://www.w3.org/1999/xlink"
 xmlns:xodm="http://www.corel.com/coreldraw/odm/2003">
 <defs>
  <style type="text/css">
   <![CDATA[
    .fil0 {fill:#A39F6B}
    .fil1 {fill:#EFF0AB}
    .fil2 {fill:#EF7F1A;fill-rule:nonzero}
   ]]>
  </style>
 </defs>
 <g id="Слой_x0020_1">
  <metadata id="CorelCorpID_0Corel-Layer"/>
  <circle class="fil0" cx="0.087" cy="0.089" r="0.081"/>
  <circle class="fil1" cx="0.081" cy="0.081" r="0.081"/>
  <path class="fil2" d="M0.094 0.032c-0.001,0.002 -0.003,0.004 -0.004,0.008l-0.001 0.002 -0.001 0.002c-0.001,0.002 -0.001,0.003 -0.002,0.004 -0.001,0.002 -0.002,0.003 -0.003,0.004 -0.001,0.001 -0.003,0.002 -0.004,0.002 0.003,-0.001 0.005,-0.003 0.006,-0.007l0.001 -0.002 0.001 -0.002c0.001,-0.002 0.001,-0.003 0.002,-0.004 0.001,-0.002 0.001,-0.003 0.002,-0.004 0.001,-0.002 0.002,-0.003 0.003,-0.004 0.001,-0.001 0.002,-0.002 0.004,-0.003 0.002,-0.001 0.003,-0.001 0.005,-0.001 -0.003,0 -0.006,0.002 -0.008,0.005zm-0.044 0.001c-0.001,0.001 -0.002,0.002 -0.003,0.003 -0.001,0.002 -0.002,0.004 -0.003,0.007 -0.001,-0.003 -0,-0.006 0.001,-0.008 0.001,-0.001 0.002,-0.002 0.003,-0.003 0.001,-0.001 0.003,-0.001 0.004,-0.001 -0.001,0 -0.002,0.001 -0.004,0.002zm0.054 0.039c-0.002,-0.001 -0.003,-0.003 -0.002,-0.005 0.001,-0.001 0.002,-0.003 0.005,-0.007l0.001 -0.001 0.001 -0.001c0.001,-0.001 0.001,-0.002 0.002,-0.002 0.001,-0.002 0.003,-0.003 0.004,-0.005 0.003,-0.004 0.004,-0.007 0.004,-0.011 0,-0.005 -0.001,-0.009 -0.003,-0.012 -0.002,-0.003 -0.005,-0.005 -0.009,-0.006 -0.004,-0.001 -0.008,-0.001 -0.011,0.001 -0.004,0.002 -0.007,0.005 -0.01,0.01 -0.001,0.002 -0.002,0.005 -0.003,0.007 -0,0.001 -0.001,0.002 -0.001,0.003l-0 0.001 -0 0.001c-0.001,0.002 -0.001,0.003 -0.002,0.003 -0.001,0.001 -0.001,0.001 -0.002,0.001 -0.001,0 -0.002,-0.001 -0.003,-0.004 -0,-0 -0,-0.001 -0.001,-0.002l-0 -0.001 -0 -0.001c-0.001,-0.002 -0.001,-0.003 -0.002,-0.005 -0.002,-0.004 -0.004,-0.007 -0.006,-0.009 -0.003,-0.003 -0.006,-0.004 -0.01,-0.004 -0.004,-0 -0.007,0.001 -0.01,0.004 -0.003,0.002 -0.005,0.006 -0.006,0.01 -0.001,0.004 -0,0.009 0.002,0.013 0.002,0.005 0.006,0.01 0.012,0.015 0.003,0.002 0.004,0.005 0.003,0.007 -0,0.001 -0.002,0.004 -0.006,0.009 -0.01,0.013 -0.014,0.024 -0.014,0.035 0,0.005 0.002,0.009 0.004,0.012 0.002,0.003 0.005,0.005 0.009,0.006 0.007,0.002 0.014,-0 0.019,-0.007 0.004,-0.005 0.007,-0.011 0.009,-0.018l0 -0.001 0 -0.001 0 -0.001c0,-0.001 0.001,-0.002 0.001,-0.003 0.001,-0.002 0.002,-0.004 0.003,-0.004 0.003,-0.002 0.006,0.002 0.01,0.011 0.003,0.006 0.006,0.011 0.01,0.014 0.004,0.003 0.007,0.005 0.012,0.006 0.004,0.001 0.008,-0 0.011,-0.002 0.003,-0.002 0.006,-0.005 0.008,-0.009 0.004,-0.009 0.003,-0.018 -0.002,-0.027 -0.006,-0.009 -0.015,-0.016 -0.027,-0.022z"/>
 </g>
</svg>
