<?xml version="1.0" encoding="UTF-8"?>
<!DOCTYPE svg PUBLIC "-//W3C//DTD SVG 1.1//EN" "http://www.w3.org/Graphics/SVG/1.1/DTD/svg11.dtd">
<!-- Creator: CorelDRAW 2019 (64-Bit) -->
<svg xmlns="http://www.w3.org/2000/svg" xml:space="preserve" width="1.48403cm" height="0.54144cm" version="1.1" style="shape-rendering:geometricPrecision; text-rendering:geometricPrecision; image-rendering:optimizeQuality; fill-rule:evenodd; clip-rule:evenodd"
viewBox="0 0 4.342 1.584"
 xmlns:xlink="http://www.w3.org/1999/xlink"
 xmlns:xodm="http://www.corel.com/coreldraw/odm/2003">
 <defs>
  <style type="text/css">
   <![CDATA[
    .fil0 {fill:#A39F6B}
    .fil1 {fill:#EFF0AB}
    .fil3 {fill:#EF7F1A;fill-rule:nonzero}
    .fil2 {fill:#BAC245;fill-rule:nonzero}
   ]]>
  </style>
 </defs>
 <g id="Слой_x0020_1">
  <metadata id="CorelCorpID_0Corel-Layer"/>
  <path class="fil0" d="M0.412 0.144l3.632 0c0.163,0 0.297,0.134 0.297,0.297l0 0.845c0,0.163 -0.134,0.297 -0.297,0.297l-3.632 0c-0.163,0 -0.297,-0.134 -0.297,-0.297l0 -0.845c0,-0.163 0.134,-0.297 0.297,-0.297z"/>
  <path class="fil1" d="M0.297 0l3.632 0c0.163,0 0.297,0.134 0.297,0.297l0 0.845c0,0.163 -0.134,0.297 -0.297,0.297l-3.632 0c-0.163,0 -0.297,-0.134 -0.297,-0.297l0 -0.845c0,-0.163 0.134,-0.297 0.297,-0.297z"/>
  <g id="_2968800890160">
   <path class="fil2" d="M0.635 0.819c-0.006,0.004 -0.011,0.007 -0.017,0.009 -0.007,0.002 -0.013,0.002 -0.019,0 0.012,-0.003 0.023,-0.008 0.032,-0.015 0.008,-0.006 0.016,-0.015 0.024,-0.027 -0.002,0.013 -0.009,0.024 -0.02,0.033zm-0.044 -0.023c-0.006,-0.003 -0.01,-0.008 -0.012,-0.015 -0.002,-0.008 -0.002,-0.015 0.002,-0.023 0.003,-0.008 0.008,-0.014 0.015,-0.019 0.007,-0.004 0.013,-0.005 0.019,-0.002 0.006,0.002 0.01,0.007 0.013,0.015 0.002,0.008 0.001,0.015 -0.002,0.024 -0.003,0.008 -0.008,0.014 -0.015,0.019 -0.007,0.004 -0.013,0.005 -0.019,0.002zm-0.065 -0.217c-0.01,0.014 -0.023,0.033 -0.037,0.056 -0.005,0.008 -0.01,0.018 -0.017,0.029l-0.017 0.029c0.008,-0.02 0.017,-0.04 0.029,-0.061 0.011,-0.02 0.022,-0.039 0.036,-0.058 0.016,-0.021 0.031,-0.039 0.045,-0.052l0.006 -0.006c0.002,-0.002 0.005,-0.004 0.006,-0.005l0.007 -0.005 0.007 -0.005c0.013,-0.007 0.024,-0.01 0.033,-0.009 -0.009,0.001 -0.019,0.005 -0.031,0.013l-0.006 0.005 -0.006 0.006c-0.002,0.001 -0.004,0.003 -0.006,0.005l-0.006 0.006c-0.014,0.014 -0.028,0.032 -0.042,0.052zm0.107 -0.117c-0.035,-0.005 -0.074,0.019 -0.118,0.072 -0.039,0.048 -0.075,0.11 -0.106,0.185 -0.031,0.075 -0.049,0.141 -0.054,0.199 -0.006,0.064 0.007,0.101 0.037,0.113 0.023,0.009 0.045,0.009 0.067,-0.001 0.016,-0.007 0.033,-0.02 0.051,-0.039 0.003,-0.004 0.007,-0.008 0.011,-0.013l0.01 -0.012c0.009,-0.01 0.015,-0.018 0.019,-0.022 0.014,-0.015 0.026,-0.023 0.036,-0.023 0.01,0 0.022,0.007 0.037,0.021 0.005,0.004 0.011,0.011 0.02,0.021l0.011 0.011 0.011 0.012c0.018,0.018 0.035,0.03 0.05,0.037 0.02,0.008 0.039,0.008 0.059,-0.001 0.023,-0.011 0.036,-0.045 0.039,-0.103 0.003,-0.054 -0.003,-0.116 -0.018,-0.185 -0.016,-0.072 -0.037,-0.133 -0.064,-0.182 -0.031,-0.055 -0.063,-0.086 -0.098,-0.092z"/>
   <path id="1" class="fil2" d="M1.058 0.495l-0.008 0.002c-0.003,0.001 -0.005,0.002 -0.007,0.003 -0.002,0.001 -0.004,0.001 -0.007,0.003l-0.004 0.002 -0.004 0.002 -0.006 0.004c-0.002,0.002 -0.004,0.003 -0.006,0.004 -0.015,0.012 -0.03,0.027 -0.043,0.045 -0.011,0.014 -0.022,0.032 -0.033,0.054 -0.008,0.015 -0.017,0.034 -0.026,0.057 0.005,-0.02 0.012,-0.04 0.021,-0.06 0.009,-0.02 0.02,-0.039 0.032,-0.056 0.014,-0.019 0.03,-0.034 0.046,-0.045 0.02,-0.014 0.04,-0.02 0.061,-0.018l-0.016 0.002zm0.247 0.181c-0.026,-0.069 -0.062,-0.123 -0.107,-0.162 -0.047,-0.04 -0.094,-0.057 -0.143,-0.051 -0.041,0.006 -0.079,0.033 -0.113,0.083 -0.033,0.047 -0.057,0.104 -0.071,0.17 -0.017,0.075 -0.019,0.145 -0.007,0.21 0.006,0.032 0.015,0.057 0.027,0.077 0.013,0.021 0.029,0.033 0.048,0.036 0.029,0.005 0.052,-0.006 0.07,-0.031 0.014,-0.019 0.026,-0.05 0.036,-0.091 0.002,-0.007 0.004,-0.016 0.006,-0.026l0.003 -0.013 0.002 -0.013c0.004,-0.021 0.008,-0.037 0.01,-0.046 0.008,-0.031 0.017,-0.047 0.027,-0.049 0.008,-0.002 0.016,0.002 0.023,0.011 0.006,0.008 0.012,0.02 0.019,0.037 0.002,0.006 0.006,0.014 0.009,0.025l0.005 0.014 0.005 0.014c0.008,0.023 0.016,0.042 0.023,0.057 0.019,0.039 0.04,0.065 0.065,0.079 0.023,0.013 0.044,0.013 0.064,0 0.013,-0.008 0.023,-0.023 0.03,-0.043 0.007,-0.021 0.011,-0.046 0.012,-0.075 0.002,-0.065 -0.012,-0.136 -0.041,-0.212z"/>
   <path id="2" class="fil2" d="M1.876 0.704c-0.006,0.008 -0.014,0.014 -0.023,0.018 -0.009,0.004 -0.018,0.006 -0.028,0.004 0.018,-0.003 0.033,-0.012 0.045,-0.027 0.01,-0.012 0.016,-0.029 0.02,-0.049 0.003,0.02 -0.001,0.038 -0.014,0.054zm-0.085 -0.054c0,-0.013 0.003,-0.023 0.01,-0.032 0.007,-0.009 0.015,-0.014 0.024,-0.014 0.01,0 0.017,0.005 0.024,0.014 0.007,0.009 0.01,0.02 0.01,0.032 0,0.012 -0.003,0.023 -0.01,0.032 -0.007,0.009 -0.015,0.013 -0.024,0.013 -0.009,0 -0.017,-0.005 -0.024,-0.013 -0.007,-0.009 -0.01,-0.02 -0.01,-0.032zm-0.203 0.058c-0.007,0.007 -0.014,0.013 -0.023,0.017 -0.009,0.004 -0.018,0.005 -0.028,0.004 0.017,-0.003 0.032,-0.012 0.044,-0.026 0.011,-0.012 0.019,-0.027 0.025,-0.046 0.001,0.019 -0.006,0.036 -0.019,0.051zm-0.058 -0.011c-0.008,-0.003 -0.013,-0.009 -0.015,-0.019 -0.002,-0.01 -0.001,-0.02 0.003,-0.031 0.004,-0.011 0.011,-0.019 0.019,-0.025 0.008,-0.006 0.016,-0.007 0.024,-0.004 0.007,0.003 0.012,0.01 0.015,0.019 0.002,0.01 0.002,0.02 -0.003,0.031 -0.004,0.011 -0.011,0.019 -0.019,0.025 -0.008,0.006 -0.016,0.007 -0.024,0.005zm-0.094 -0.117c-0.009,0.017 -0.016,0.036 -0.019,0.059 0,-0.009 0.001,-0.02 0.004,-0.031 0.002,-0.01 0.006,-0.02 0.01,-0.03 0.01,-0.02 0.023,-0.036 0.041,-0.049 0.014,-0.01 0.034,-0.019 0.059,-0.024 0.02,-0.005 0.041,-0.007 0.062,-0.008l-0.015 0.003 -0.015 0.003c-0.012,0.002 -0.022,0.005 -0.03,0.008 -0.025,0.008 -0.043,0.016 -0.055,0.025 -0.016,0.012 -0.03,0.026 -0.04,0.045zm0.513 -0.046c-0.021,-0.02 -0.052,-0.036 -0.094,-0.049 -0.038,-0.012 -0.082,-0.019 -0.131,-0.022 -0.047,-0.003 -0.092,-0.002 -0.135,0.003 -0.044,0.005 -0.08,0.014 -0.106,0.026 -0.033,0.015 -0.059,0.039 -0.076,0.072 -0.017,0.031 -0.023,0.065 -0.02,0.102 0.003,0.038 0.017,0.071 0.041,0.099 0.027,0.031 0.063,0.052 0.109,0.063 0.014,0.003 0.024,0.01 0.029,0.019 0.005,0.007 0.007,0.019 0.008,0.034 0,0.005 0,0.012 0,0.021l0 0.012c0,0.005 0,0.009 0,0.013 0.001,0.02 0.004,0.038 0.008,0.054 0.006,0.021 0.018,0.037 0.036,0.048 0.017,0.01 0.036,0.014 0.056,0.011 0.022,-0.003 0.04,-0.013 0.055,-0.03 0.017,-0.019 0.029,-0.044 0.033,-0.075 0.007,-0.046 0.013,-0.076 0.019,-0.092 0.006,-0.015 0.015,-0.023 0.027,-0.024 0.05,-0.003 0.09,-0.016 0.122,-0.038 0.028,-0.02 0.048,-0.045 0.058,-0.077 0.01,-0.029 0.01,-0.06 0.002,-0.091 -0.008,-0.031 -0.023,-0.057 -0.045,-0.078z"/>
   <path id="3" class="fil2" d="M2.322 0.819c-0.006,0.004 -0.011,0.007 -0.017,0.009 -0.007,0.002 -0.013,0.002 -0.019,0 0.012,-0.003 0.023,-0.008 0.032,-0.015 0.008,-0.006 0.016,-0.015 0.024,-0.027 -0.002,0.013 -0.009,0.024 -0.02,0.033zm-0.044 -0.023c-0.006,-0.003 -0.01,-0.008 -0.012,-0.015 -0.002,-0.008 -0.002,-0.015 0.002,-0.023 0.003,-0.008 0.008,-0.014 0.015,-0.019 0.007,-0.004 0.013,-0.005 0.019,-0.002 0.006,0.002 0.01,0.007 0.013,0.015 0.002,0.008 0.001,0.015 -0.002,0.024 -0.003,0.008 -0.008,0.014 -0.015,0.019 -0.007,0.004 -0.013,0.005 -0.019,0.002zm-0.065 -0.217c-0.01,0.014 -0.023,0.033 -0.037,0.056 -0.005,0.008 -0.01,0.018 -0.017,0.029l-0.017 0.029c0.008,-0.02 0.017,-0.04 0.029,-0.061 0.011,-0.02 0.022,-0.039 0.036,-0.058 0.016,-0.021 0.031,-0.039 0.045,-0.052l0.006 -0.006c0.002,-0.002 0.005,-0.004 0.006,-0.005l0.007 -0.005 0.007 -0.005c0.013,-0.007 0.024,-0.01 0.033,-0.009 -0.009,0.001 -0.019,0.005 -0.031,0.013l-0.006 0.005 -0.006 0.006c-0.002,0.001 -0.004,0.003 -0.006,0.005l-0.006 0.006c-0.014,0.014 -0.028,0.032 -0.042,0.052zm0.107 -0.117c-0.035,-0.005 -0.074,0.019 -0.118,0.072 -0.039,0.048 -0.075,0.11 -0.106,0.185 -0.031,0.075 -0.049,0.141 -0.054,0.199 -0.006,0.064 0.007,0.101 0.037,0.113 0.023,0.009 0.045,0.009 0.067,-0.001 0.016,-0.007 0.033,-0.02 0.051,-0.039 0.003,-0.004 0.007,-0.008 0.011,-0.013l0.01 -0.012c0.009,-0.01 0.015,-0.018 0.019,-0.022 0.014,-0.015 0.026,-0.023 0.036,-0.023 0.01,0 0.022,0.007 0.037,0.021 0.005,0.004 0.011,0.011 0.02,0.021l0.011 0.011 0.011 0.012c0.018,0.018 0.035,0.03 0.05,0.037 0.02,0.008 0.039,0.008 0.059,-0.001 0.023,-0.011 0.036,-0.045 0.039,-0.103 0.003,-0.054 -0.003,-0.116 -0.018,-0.185 -0.016,-0.072 -0.037,-0.133 -0.064,-0.182 -0.031,-0.055 -0.063,-0.086 -0.098,-0.092z"/>
   <path id="4" class="fil2" d="M2.833 0.854c-0.005,0.009 -0.011,0.016 -0.02,0.02 -0.009,0.005 -0.018,0.006 -0.027,0.005 0.009,-0.002 0.017,-0.005 0.024,-0.01 0.007,-0.005 0.012,-0.012 0.016,-0.019 0.007,-0.014 0.008,-0.031 0.004,-0.05 0.005,0.008 0.008,0.017 0.008,0.026 0.001,0.01 -0.001,0.019 -0.005,0.028zm-0.075 -0.024c-0.004,-0.008 -0.006,-0.016 -0.005,-0.023 0.001,-0.008 0.004,-0.013 0.01,-0.017 0.006,-0.003 0.012,-0.003 0.019,0 0.007,0.003 0.013,0.009 0.018,0.017 0.004,0.008 0.006,0.016 0.005,0.023 -0.001,0.008 -0.004,0.013 -0.01,0.017 -0.006,0.003 -0.012,0.003 -0.019,0 -0.007,-0.003 -0.013,-0.009 -0.018,-0.017zm-0.035 -0.168c0.006,-0.002 0.012,-0.004 0.018,-0.007 0.006,-0.004 0.01,-0.007 0.014,-0.011 0.004,-0.004 0.008,-0.009 0.012,-0.015 0.003,-0.005 0.006,-0.011 0.008,-0.017 0.001,0.014 -0.003,0.026 -0.014,0.038 -0.005,0.005 -0.011,0.009 -0.018,0.011 -0.007,0.003 -0.014,0.003 -0.02,0.002zm-0.009 -0.058c0.003,-0.005 0.007,-0.009 0.012,-0.011 0.005,-0.002 0.009,-0.002 0.013,0 0.003,0.002 0.006,0.006 0.006,0.011 0.001,0.005 -0.001,0.01 -0.004,0.015 -0.003,0.005 -0.007,0.009 -0.012,0.011 -0.005,0.002 -0.009,0.002 -0.012,0 -0.004,-0.002 -0.006,-0.006 -0.006,-0.011 -0.001,-0.005 0.001,-0.01 0.004,-0.015zm-0.069 -0.072c-0.006,0.006 -0.013,0.015 -0.02,0.025 -0.01,0.015 -0.02,0.034 -0.028,0.056 -0.007,0.017 -0.013,0.038 -0.019,0.061 0.002,-0.021 0.007,-0.042 0.013,-0.063 0.007,-0.021 0.016,-0.041 0.028,-0.059 0.014,-0.02 0.029,-0.035 0.046,-0.045 0.011,-0.006 0.021,-0.011 0.03,-0.013 0.011,-0.002 0.022,-0.003 0.032,-0.003 -0.022,0.002 -0.042,0.009 -0.059,0.021 -0.009,0.006 -0.017,0.013 -0.024,0.02zm0.173 0.154c-0.005,-0.002 -0.006,-0.006 -0.003,-0.013 0.001,-0.002 0.003,-0.006 0.006,-0.012l0.002 -0.003 0.002 -0.004c0.002,-0.003 0.003,-0.006 0.004,-0.008 0.007,-0.015 0.012,-0.028 0.015,-0.042 0.004,-0.019 0.005,-0.039 0.001,-0.059 -0.004,-0.023 -0.017,-0.042 -0.039,-0.058 -0.022,-0.016 -0.047,-0.024 -0.076,-0.025 -0.032,-0.001 -0.061,0.008 -0.088,0.027 -0.031,0.021 -0.055,0.054 -0.073,0.098 -0.018,0.045 -0.028,0.095 -0.03,0.148 -0.002,0.055 0.006,0.105 0.022,0.15 0.018,0.05 0.044,0.088 0.079,0.115 0.039,0.03 0.085,0.043 0.14,0.039 0.052,-0.003 0.094,-0.02 0.124,-0.051 0.028,-0.027 0.044,-0.062 0.046,-0.103 0.003,-0.04 -0.007,-0.078 -0.03,-0.114 -0.025,-0.039 -0.059,-0.067 -0.105,-0.085z"/>
   <path id="5" class="fil2" d="M3.312 0.526c-0.007,0.008 -0.014,0.018 -0.022,0.029 -0.013,0.02 -0.024,0.041 -0.033,0.065l-0.006 0.017 -0.006 0.017c-0.005,0.015 -0.01,0.027 -0.013,0.034 -0.006,0.015 -0.013,0.026 -0.019,0.033 -0.005,0.005 -0.01,0.009 -0.015,0.011 -0.005,0.002 -0.011,0.003 -0.019,0.002 0.007,-0 0.013,-0.002 0.018,-0.004 0.005,-0.002 0.009,-0.006 0.013,-0.012 0.005,-0.007 0.011,-0.017 0.016,-0.032l0.006 -0.017 0.006 -0.017c0.005,-0.014 0.009,-0.025 0.013,-0.035 0.01,-0.025 0.022,-0.047 0.035,-0.065 0.018,-0.024 0.036,-0.041 0.054,-0.05 -0.01,0.007 -0.019,0.015 -0.027,0.024zm-0.267 0.093c-0.004,0.016 -0.007,0.036 -0.01,0.059l-0.004 0.03 -0.004 0.029c-0.002,-0.059 0.004,-0.111 0.02,-0.157 0.003,-0.009 0.006,-0.017 0.009,-0.025 0.005,-0.01 0.009,-0.018 0.014,-0.025 0.013,-0.018 0.028,-0.026 0.045,-0.025 -0.021,0.002 -0.037,0.017 -0.05,0.044 -0.005,0.01 -0.009,0.022 -0.013,0.036 -0.002,0.005 -0.003,0.011 -0.004,0.017l-0.002 0.008 -0.001 0.004 -0.001 0.004zm0.37 -0.144c-0.033,-0.02 -0.066,-0.018 -0.1,0.005 -0.028,0.019 -0.053,0.049 -0.074,0.091 -0.007,0.013 -0.014,0.029 -0.021,0.047 -0.002,0.006 -0.005,0.014 -0.008,0.023l-0.004 0.01 -0.002 0.005 -0.002 0.005c-0.005,0.015 -0.009,0.025 -0.012,0.031 -0.004,0.008 -0.008,0.012 -0.011,0.011 -0.007,-0.001 -0.011,-0.006 -0.011,-0.016 -0.001,-0.009 0.001,-0.03 0.006,-0.062 0.009,-0.059 0.005,-0.101 -0.012,-0.125 -0.013,-0.019 -0.034,-0.027 -0.062,-0.023 -0.034,0.005 -0.062,0.037 -0.082,0.097 -0.019,0.058 -0.028,0.13 -0.025,0.213 0.005,0.154 0.051,0.238 0.137,0.249 0.025,0.003 0.05,-0.003 0.075,-0.018 0.024,-0.014 0.044,-0.034 0.06,-0.06 0.015,-0.022 0.027,-0.043 0.037,-0.062 0.004,-0.007 0.007,-0.015 0.01,-0.022 0.002,-0.005 0.005,-0.01 0.007,-0.016 0.004,-0.01 0.007,-0.016 0.008,-0.017 0.002,-0.003 0.005,-0.004 0.008,-0.003 0.003,0.001 0.004,0.012 0.001,0.033l-0.001 0.008 -0.001 0.008c-0.001,0.007 -0.002,0.012 -0.002,0.017 -0.002,0.014 -0.002,0.026 -0.003,0.037 -0.001,0.066 0.022,0.098 0.07,0.098 0.031,-0 0.055,-0.027 0.073,-0.079 0.015,-0.047 0.023,-0.107 0.023,-0.178 0,-0.07 -0.007,-0.134 -0.022,-0.19 -0.016,-0.061 -0.037,-0.1 -0.063,-0.116z"/>
   <path id="6" class="fil2" d="M3.686 0.498c-0.019,0.003 -0.034,0.006 -0.046,0.009 -0.018,0.005 -0.032,0.011 -0.043,0.018 -0.008,0.005 -0.013,0.01 -0.017,0.015 -0.005,0.006 -0.007,0.013 -0.007,0.022 -0.002,-0.008 -0.001,-0.016 0.004,-0.024 0.003,-0.006 0.009,-0.012 0.017,-0.018 0.011,-0.008 0.025,-0.014 0.044,-0.02 0.03,-0.008 0.062,-0.01 0.095,-0.007 -0.017,0.002 -0.033,0.004 -0.047,0.006zm0.077 -0.036c-0.066,-0.003 -0.119,0.004 -0.16,0.021 -0.043,0.019 -0.063,0.046 -0.06,0.081 0.002,0.02 0.01,0.034 0.025,0.043 0.011,0.006 0.027,0.011 0.049,0.013l0.013 0.001 0.013 0.001c0.01,0.001 0.018,0.002 0.024,0.003 0.017,0.003 0.027,0.01 0.03,0.02 0.002,0.006 -0,0.041 -0.007,0.105 -0.004,0.033 -0.006,0.06 -0.007,0.083 -0.002,0.032 -0.001,0.061 0.001,0.085 0.003,0.036 0.016,0.066 0.038,0.089 0.023,0.024 0.05,0.034 0.082,0.03 0.058,-0.008 0.079,-0.065 0.063,-0.172 -0.008,-0.056 -0.013,-0.105 -0.013,-0.145 -0.001,-0.043 0.003,-0.068 0.012,-0.075 0.006,-0.005 0.016,-0.007 0.031,-0.008 0.004,0 0.011,0 0.021,0l0.011 0 0.011 -0c0.017,-0 0.031,-0.003 0.041,-0.008 0.013,-0.006 0.022,-0.017 0.026,-0.031 0.005,-0.018 0.003,-0.036 -0.008,-0.052 -0.011,-0.015 -0.028,-0.029 -0.051,-0.042 -0.047,-0.025 -0.109,-0.04 -0.185,-0.044z"/>
   <path class="fil3" d="M0.582 0.812c-0.006,0.004 -0.011,0.007 -0.017,0.009 -0.007,0.002 -0.013,0.002 -0.019,0 0.012,-0.003 0.023,-0.008 0.032,-0.015 0.008,-0.006 0.016,-0.015 0.024,-0.027 -0.002,0.013 -0.009,0.024 -0.02,0.033zm-0.044 -0.023c-0.006,-0.003 -0.01,-0.008 -0.012,-0.015 -0.002,-0.008 -0.002,-0.015 0.002,-0.023 0.003,-0.008 0.008,-0.014 0.015,-0.019 0.007,-0.004 0.013,-0.005 0.019,-0.002 0.006,0.002 0.01,0.007 0.013,0.015 0.002,0.008 0.001,0.015 -0.002,0.024 -0.003,0.008 -0.008,0.014 -0.015,0.019 -0.007,0.004 -0.013,0.005 -0.019,0.002zm-0.065 -0.217c-0.01,0.014 -0.023,0.033 -0.037,0.056 -0.005,0.008 -0.01,0.018 -0.017,0.029l-0.017 0.029c0.008,-0.02 0.017,-0.04 0.029,-0.061 0.011,-0.02 0.022,-0.039 0.036,-0.058 0.016,-0.021 0.031,-0.039 0.045,-0.052l0.006 -0.006c0.002,-0.002 0.005,-0.004 0.006,-0.005l0.007 -0.005 0.007 -0.005c0.013,-0.007 0.024,-0.01 0.033,-0.009 -0.009,0.001 -0.019,0.005 -0.031,0.013l-0.006 0.005 -0.006 0.006c-0.002,0.001 -0.004,0.003 -0.006,0.005l-0.006 0.006c-0.014,0.014 -0.028,0.032 -0.042,0.052zm0.107 -0.117c-0.035,-0.005 -0.074,0.019 -0.118,0.072 -0.039,0.048 -0.075,0.11 -0.106,0.185 -0.031,0.075 -0.049,0.141 -0.054,0.199 -0.006,0.064 0.007,0.101 0.037,0.113 0.023,0.009 0.045,0.009 0.067,-0.001 0.016,-0.007 0.033,-0.02 0.051,-0.039 0.003,-0.004 0.007,-0.008 0.011,-0.013l0.01 -0.012c0.009,-0.01 0.015,-0.018 0.019,-0.022 0.014,-0.015 0.026,-0.023 0.036,-0.023 0.01,0 0.022,0.007 0.037,0.021 0.005,0.004 0.011,0.011 0.02,0.021l0.011 0.011 0.011 0.012c0.018,0.018 0.035,0.03 0.05,0.037 0.02,0.008 0.039,0.008 0.059,-0.001 0.023,-0.011 0.036,-0.045 0.039,-0.103 0.003,-0.054 -0.003,-0.116 -0.018,-0.185 -0.016,-0.072 -0.037,-0.133 -0.064,-0.182 -0.031,-0.055 -0.063,-0.086 -0.098,-0.092z"/>
   <path id="1" class="fil3" d="M1.005 0.488l-0.008 0.002c-0.003,0.001 -0.005,0.002 -0.007,0.003 -0.002,0.001 -0.004,0.001 -0.007,0.003l-0.004 0.002 -0.004 0.002 -0.006 0.004c-0.002,0.002 -0.004,0.003 -0.006,0.004 -0.015,0.012 -0.03,0.027 -0.043,0.045 -0.011,0.014 -0.022,0.032 -0.033,0.054 -0.008,0.015 -0.017,0.034 -0.026,0.057 0.005,-0.02 0.012,-0.04 0.021,-0.06 0.009,-0.02 0.02,-0.039 0.032,-0.056 0.014,-0.019 0.03,-0.034 0.046,-0.045 0.02,-0.014 0.04,-0.02 0.061,-0.018l-0.016 0.002zm0.247 0.181c-0.026,-0.069 -0.062,-0.123 -0.107,-0.162 -0.047,-0.04 -0.094,-0.057 -0.143,-0.051 -0.041,0.006 -0.079,0.033 -0.113,0.083 -0.033,0.047 -0.057,0.104 -0.071,0.17 -0.017,0.075 -0.019,0.145 -0.007,0.21 0.006,0.032 0.015,0.057 0.027,0.077 0.013,0.021 0.029,0.033 0.048,0.036 0.029,0.005 0.052,-0.006 0.07,-0.031 0.014,-0.019 0.026,-0.05 0.036,-0.091 0.002,-0.007 0.004,-0.016 0.006,-0.026l0.003 -0.013 0.002 -0.013c0.004,-0.021 0.008,-0.037 0.01,-0.046 0.008,-0.031 0.017,-0.047 0.027,-0.049 0.008,-0.002 0.016,0.002 0.023,0.011 0.006,0.008 0.012,0.02 0.019,0.037 0.002,0.006 0.006,0.014 0.009,0.025l0.005 0.014 0.005 0.014c0.008,0.023 0.016,0.042 0.023,0.057 0.019,0.039 0.04,0.065 0.065,0.079 0.023,0.013 0.044,0.013 0.064,0 0.013,-0.008 0.023,-0.023 0.03,-0.043 0.007,-0.021 0.011,-0.046 0.012,-0.075 0.002,-0.065 -0.012,-0.136 -0.041,-0.212z"/>
   <path id="2" class="fil3" d="M1.823 0.698c-0.006,0.008 -0.014,0.014 -0.023,0.018 -0.009,0.004 -0.018,0.006 -0.028,0.004 0.018,-0.003 0.033,-0.012 0.045,-0.027 0.01,-0.012 0.016,-0.029 0.02,-0.049 0.003,0.02 -0.001,0.038 -0.014,0.054zm-0.085 -0.054c0,-0.013 0.003,-0.023 0.01,-0.032 0.007,-0.009 0.015,-0.014 0.024,-0.014 0.01,0 0.017,0.005 0.024,0.014 0.007,0.009 0.01,0.02 0.01,0.032 0,0.012 -0.003,0.023 -0.01,0.032 -0.007,0.009 -0.015,0.013 -0.024,0.013 -0.009,0 -0.017,-0.005 -0.024,-0.013 -0.007,-0.009 -0.01,-0.02 -0.01,-0.032zm-0.203 0.058c-0.007,0.007 -0.014,0.013 -0.023,0.017 -0.009,0.004 -0.018,0.005 -0.028,0.004 0.017,-0.003 0.032,-0.012 0.044,-0.026 0.011,-0.012 0.019,-0.027 0.025,-0.046 0.001,0.019 -0.006,0.036 -0.019,0.051zm-0.058 -0.011c-0.008,-0.003 -0.013,-0.009 -0.015,-0.019 -0.002,-0.01 -0.001,-0.02 0.003,-0.031 0.004,-0.011 0.011,-0.019 0.019,-0.025 0.008,-0.006 0.016,-0.007 0.024,-0.004 0.007,0.003 0.012,0.01 0.015,0.019 0.002,0.01 0.002,0.02 -0.003,0.031 -0.004,0.011 -0.011,0.019 -0.019,0.025 -0.008,0.006 -0.016,0.007 -0.024,0.005zm-0.094 -0.117c-0.009,0.017 -0.016,0.036 -0.019,0.059 0,-0.009 0.001,-0.02 0.004,-0.031 0.002,-0.01 0.006,-0.02 0.01,-0.03 0.01,-0.02 0.023,-0.036 0.041,-0.049 0.014,-0.01 0.034,-0.019 0.059,-0.024 0.02,-0.005 0.041,-0.007 0.062,-0.008l-0.015 0.003 -0.015 0.003c-0.012,0.002 -0.022,0.005 -0.03,0.008 -0.025,0.008 -0.043,0.016 -0.055,0.025 -0.016,0.012 -0.03,0.026 -0.04,0.045zm0.513 -0.046c-0.021,-0.02 -0.052,-0.036 -0.094,-0.049 -0.038,-0.012 -0.082,-0.019 -0.131,-0.022 -0.047,-0.003 -0.092,-0.002 -0.135,0.003 -0.044,0.005 -0.08,0.014 -0.106,0.026 -0.033,0.015 -0.059,0.039 -0.076,0.072 -0.017,0.031 -0.023,0.065 -0.02,0.102 0.003,0.038 0.017,0.071 0.041,0.099 0.027,0.031 0.063,0.052 0.109,0.063 0.014,0.003 0.024,0.01 0.029,0.019 0.005,0.007 0.007,0.019 0.008,0.034 0,0.005 0,0.012 0,0.021l0 0.012c0,0.005 0,0.009 0,0.013 0.001,0.02 0.004,0.038 0.008,0.054 0.006,0.021 0.018,0.037 0.036,0.048 0.017,0.01 0.036,0.014 0.056,0.011 0.022,-0.003 0.04,-0.013 0.055,-0.03 0.017,-0.019 0.029,-0.044 0.033,-0.075 0.007,-0.046 0.013,-0.076 0.019,-0.092 0.006,-0.015 0.015,-0.023 0.027,-0.024 0.05,-0.003 0.09,-0.016 0.122,-0.038 0.028,-0.02 0.048,-0.045 0.058,-0.077 0.01,-0.029 0.01,-0.06 0.002,-0.091 -0.008,-0.031 -0.023,-0.057 -0.045,-0.078z"/>
   <path id="3" class="fil3" d="M2.269 0.812c-0.006,0.004 -0.011,0.007 -0.017,0.009 -0.007,0.002 -0.013,0.002 -0.019,0 0.012,-0.003 0.023,-0.008 0.032,-0.015 0.008,-0.006 0.016,-0.015 0.024,-0.027 -0.002,0.013 -0.009,0.024 -0.02,0.033zm-0.044 -0.023c-0.006,-0.003 -0.01,-0.008 -0.012,-0.015 -0.002,-0.008 -0.002,-0.015 0.002,-0.023 0.003,-0.008 0.008,-0.014 0.015,-0.019 0.007,-0.004 0.013,-0.005 0.019,-0.002 0.006,0.002 0.01,0.007 0.013,0.015 0.002,0.008 0.001,0.015 -0.002,0.024 -0.003,0.008 -0.008,0.014 -0.015,0.019 -0.007,0.004 -0.013,0.005 -0.019,0.002zm-0.065 -0.217c-0.01,0.014 -0.023,0.033 -0.037,0.056 -0.005,0.008 -0.01,0.018 -0.017,0.029l-0.017 0.029c0.008,-0.02 0.017,-0.04 0.029,-0.061 0.011,-0.02 0.022,-0.039 0.036,-0.058 0.016,-0.021 0.031,-0.039 0.045,-0.052l0.006 -0.006c0.002,-0.002 0.005,-0.004 0.006,-0.005l0.007 -0.005 0.007 -0.005c0.013,-0.007 0.024,-0.01 0.033,-0.009 -0.009,0.001 -0.019,0.005 -0.031,0.013l-0.006 0.005 -0.006 0.006c-0.002,0.001 -0.004,0.003 -0.006,0.005l-0.006 0.006c-0.014,0.014 -0.028,0.032 -0.042,0.052zm0.107 -0.117c-0.035,-0.005 -0.074,0.019 -0.118,0.072 -0.039,0.048 -0.075,0.11 -0.106,0.185 -0.031,0.075 -0.049,0.141 -0.054,0.199 -0.006,0.064 0.007,0.101 0.037,0.113 0.023,0.009 0.045,0.009 0.067,-0.001 0.016,-0.007 0.033,-0.02 0.051,-0.039 0.003,-0.004 0.007,-0.008 0.011,-0.013l0.01 -0.012c0.009,-0.01 0.015,-0.018 0.019,-0.022 0.014,-0.015 0.026,-0.023 0.036,-0.023 0.01,0 0.022,0.007 0.037,0.021 0.005,0.004 0.011,0.011 0.02,0.021l0.011 0.011 0.011 0.012c0.018,0.018 0.035,0.03 0.05,0.037 0.02,0.008 0.039,0.008 0.059,-0.001 0.023,-0.011 0.036,-0.045 0.039,-0.103 0.003,-0.054 -0.003,-0.116 -0.018,-0.185 -0.016,-0.072 -0.037,-0.133 -0.064,-0.182 -0.031,-0.055 -0.063,-0.086 -0.098,-0.092z"/>
   <path id="4" class="fil3" d="M2.779 0.847c-0.005,0.009 -0.011,0.016 -0.02,0.02 -0.009,0.005 -0.018,0.006 -0.027,0.005 0.009,-0.002 0.017,-0.005 0.024,-0.01 0.007,-0.005 0.012,-0.012 0.016,-0.019 0.007,-0.014 0.008,-0.031 0.004,-0.05 0.005,0.008 0.008,0.017 0.008,0.026 0.001,0.01 -0.001,0.019 -0.005,0.028zm-0.075 -0.024c-0.004,-0.008 -0.006,-0.016 -0.005,-0.023 0.001,-0.008 0.004,-0.013 0.01,-0.017 0.006,-0.003 0.012,-0.003 0.019,0 0.007,0.003 0.013,0.009 0.018,0.017 0.004,0.008 0.006,0.016 0.005,0.023 -0.001,0.008 -0.004,0.013 -0.01,0.017 -0.006,0.003 -0.012,0.003 -0.019,0 -0.007,-0.003 -0.013,-0.009 -0.018,-0.017zm-0.035 -0.168c0.006,-0.002 0.012,-0.004 0.018,-0.007 0.006,-0.004 0.01,-0.007 0.014,-0.011 0.004,-0.004 0.008,-0.009 0.012,-0.015 0.003,-0.005 0.006,-0.011 0.008,-0.017 0.001,0.014 -0.003,0.026 -0.014,0.038 -0.005,0.005 -0.011,0.009 -0.018,0.011 -0.007,0.003 -0.014,0.003 -0.02,0.002zm-0.009 -0.058c0.003,-0.005 0.007,-0.009 0.012,-0.011 0.005,-0.002 0.009,-0.002 0.013,0 0.003,0.002 0.006,0.006 0.006,0.011 0.001,0.005 -0.001,0.01 -0.004,0.015 -0.003,0.005 -0.007,0.009 -0.012,0.011 -0.005,0.002 -0.009,0.002 -0.012,0 -0.004,-0.002 -0.006,-0.006 -0.006,-0.011 -0.001,-0.005 0.001,-0.01 0.004,-0.015zm-0.069 -0.072c-0.006,0.006 -0.013,0.015 -0.02,0.025 -0.01,0.015 -0.02,0.034 -0.028,0.056 -0.007,0.017 -0.013,0.038 -0.019,0.061 0.002,-0.021 0.007,-0.042 0.013,-0.063 0.007,-0.021 0.016,-0.041 0.028,-0.059 0.014,-0.02 0.029,-0.035 0.046,-0.045 0.011,-0.006 0.021,-0.011 0.03,-0.013 0.011,-0.002 0.022,-0.003 0.032,-0.003 -0.022,0.002 -0.042,0.009 -0.059,0.021 -0.009,0.006 -0.017,0.013 -0.024,0.02zm0.173 0.154c-0.005,-0.002 -0.006,-0.006 -0.003,-0.013 0.001,-0.002 0.003,-0.006 0.006,-0.012l0.002 -0.003 0.002 -0.004c0.002,-0.003 0.003,-0.006 0.004,-0.008 0.007,-0.015 0.012,-0.028 0.015,-0.042 0.004,-0.019 0.005,-0.039 0.001,-0.059 -0.004,-0.023 -0.017,-0.042 -0.039,-0.058 -0.022,-0.016 -0.047,-0.024 -0.076,-0.025 -0.032,-0.001 -0.061,0.008 -0.088,0.027 -0.031,0.021 -0.055,0.054 -0.073,0.098 -0.018,0.045 -0.028,0.095 -0.03,0.148 -0.002,0.055 0.006,0.105 0.022,0.15 0.018,0.05 0.044,0.088 0.079,0.115 0.039,0.03 0.085,0.043 0.14,0.039 0.052,-0.003 0.094,-0.02 0.124,-0.051 0.028,-0.027 0.044,-0.062 0.046,-0.103 0.003,-0.04 -0.007,-0.078 -0.03,-0.114 -0.025,-0.039 -0.059,-0.067 -0.105,-0.085z"/>
   <path id="5" class="fil3" d="M3.259 0.519c-0.007,0.008 -0.014,0.018 -0.022,0.029 -0.013,0.02 -0.024,0.041 -0.033,0.065l-0.006 0.017 -0.006 0.017c-0.005,0.015 -0.01,0.027 -0.013,0.034 -0.006,0.015 -0.013,0.026 -0.019,0.033 -0.005,0.005 -0.01,0.009 -0.015,0.011 -0.005,0.002 -0.011,0.003 -0.019,0.002 0.007,-0 0.013,-0.002 0.018,-0.004 0.005,-0.002 0.009,-0.006 0.013,-0.012 0.005,-0.007 0.011,-0.017 0.016,-0.032l0.006 -0.017 0.006 -0.017c0.005,-0.014 0.009,-0.025 0.013,-0.035 0.01,-0.025 0.022,-0.047 0.035,-0.065 0.018,-0.024 0.036,-0.041 0.054,-0.05 -0.01,0.007 -0.019,0.015 -0.027,0.024zm-0.267 0.093c-0.004,0.016 -0.007,0.036 -0.01,0.059l-0.004 0.03 -0.004 0.029c-0.002,-0.059 0.004,-0.111 0.02,-0.157 0.003,-0.009 0.006,-0.017 0.009,-0.025 0.005,-0.01 0.009,-0.018 0.014,-0.025 0.013,-0.018 0.028,-0.026 0.045,-0.025 -0.021,0.002 -0.037,0.017 -0.05,0.044 -0.005,0.01 -0.009,0.022 -0.013,0.036 -0.002,0.005 -0.003,0.011 -0.004,0.017l-0.002 0.008 -0.001 0.004 -0.001 0.004zm0.37 -0.144c-0.033,-0.02 -0.066,-0.018 -0.1,0.005 -0.028,0.019 -0.053,0.049 -0.074,0.091 -0.007,0.013 -0.014,0.029 -0.021,0.047 -0.002,0.006 -0.005,0.014 -0.008,0.023l-0.004 0.01 -0.002 0.005 -0.002 0.005c-0.005,0.015 -0.009,0.025 -0.012,0.031 -0.004,0.008 -0.008,0.012 -0.011,0.011 -0.007,-0.001 -0.011,-0.006 -0.011,-0.016 -0.001,-0.009 0.001,-0.03 0.006,-0.062 0.009,-0.059 0.005,-0.101 -0.012,-0.125 -0.013,-0.019 -0.034,-0.027 -0.062,-0.023 -0.034,0.005 -0.062,0.037 -0.082,0.097 -0.019,0.058 -0.028,0.13 -0.025,0.213 0.005,0.154 0.051,0.238 0.137,0.249 0.025,0.003 0.05,-0.003 0.075,-0.018 0.024,-0.014 0.044,-0.034 0.06,-0.06 0.015,-0.022 0.027,-0.043 0.037,-0.062 0.004,-0.007 0.007,-0.015 0.01,-0.022 0.002,-0.005 0.005,-0.01 0.007,-0.016 0.004,-0.01 0.007,-0.016 0.008,-0.017 0.002,-0.003 0.005,-0.004 0.008,-0.003 0.003,0.001 0.004,0.012 0.001,0.033l-0.001 0.008 -0.001 0.008c-0.001,0.007 -0.002,0.012 -0.002,0.017 -0.002,0.014 -0.002,0.026 -0.003,0.037 -0.001,0.066 0.022,0.098 0.07,0.098 0.031,-0 0.055,-0.027 0.073,-0.079 0.015,-0.047 0.023,-0.107 0.023,-0.178 0,-0.07 -0.007,-0.134 -0.022,-0.19 -0.016,-0.061 -0.037,-0.1 -0.063,-0.116z"/>
   <path id="6" class="fil3" d="M3.633 0.491c-0.019,0.003 -0.034,0.006 -0.046,0.009 -0.018,0.005 -0.032,0.011 -0.043,0.018 -0.008,0.005 -0.013,0.01 -0.017,0.015 -0.005,0.006 -0.007,0.013 -0.007,0.022 -0.002,-0.008 -0.001,-0.016 0.004,-0.024 0.003,-0.006 0.009,-0.012 0.017,-0.018 0.011,-0.008 0.025,-0.014 0.044,-0.02 0.03,-0.008 0.062,-0.01 0.095,-0.007 -0.017,0.002 -0.033,0.004 -0.047,0.006zm0.077 -0.036c-0.066,-0.003 -0.119,0.004 -0.16,0.021 -0.043,0.019 -0.063,0.046 -0.06,0.081 0.002,0.02 0.01,0.034 0.025,0.043 0.011,0.006 0.027,0.011 0.049,0.013l0.013 0.001 0.013 0.001c0.01,0.001 0.018,0.002 0.024,0.003 0.017,0.003 0.027,0.01 0.03,0.02 0.002,0.006 -0,0.041 -0.007,0.105 -0.004,0.033 -0.006,0.06 -0.007,0.083 -0.002,0.032 -0.001,0.061 0.001,0.085 0.003,0.036 0.016,0.066 0.038,0.089 0.023,0.024 0.05,0.034 0.082,0.03 0.058,-0.008 0.079,-0.065 0.063,-0.172 -0.008,-0.056 -0.013,-0.105 -0.013,-0.145 -0.001,-0.043 0.003,-0.068 0.012,-0.075 0.006,-0.005 0.016,-0.007 0.031,-0.008 0.004,0 0.011,0 0.021,0l0.011 0 0.011 -0c0.017,-0 0.031,-0.003 0.041,-0.008 0.013,-0.006 0.022,-0.017 0.026,-0.031 0.005,-0.018 0.003,-0.036 -0.008,-0.052 -0.011,-0.015 -0.028,-0.029 -0.051,-0.042 -0.047,-0.025 -0.109,-0.04 -0.185,-0.044z"/>
  </g>
 </g>
</svg>
