<?xml version="1.0" encoding="UTF-8"?>
<!DOCTYPE svg PUBLIC "-//W3C//DTD SVG 1.1//EN" "http://www.w3.org/Graphics/SVG/1.1/DTD/svg11.dtd">
<!-- Creator: CorelDRAW 2019 (64-Bit) -->
<svg xmlns="http://www.w3.org/2000/svg" xml:space="preserve" width="1.30088cm" height="0.33514cm" version="1.1" style="shape-rendering:geometricPrecision; text-rendering:geometricPrecision; image-rendering:optimizeQuality; fill-rule:evenodd; clip-rule:evenodd"
viewBox="0 0 0.698 0.18"
 xmlns:xlink="http://www.w3.org/1999/xlink"
 xmlns:xodm="http://www.corel.com/coreldraw/odm/2003">
 <defs>
  <style type="text/css">
   <![CDATA[
    .fil0 {fill:#FEDE3A}
    .fil1 {fill:white;fill-rule:nonzero}
   ]]>
  </style>
 </defs>
 <g id="Слой_x0020_1">
  <metadata id="CorelCorpID_0Corel-Layer"/>
  <g id="_1784392784928">
   <rect class="fil0" width="0.698" height="0.18" rx="0.048" ry="0.045"/>
   <polygon class="fil1" points="0.121,0.042 0.182,0.042 0.182,0.053 0.133,0.053 0.133,0.137 0.121,0.137 "/>
   <path id="1" class="fil1" d="M0.182 0.042l0.013 0 0.031 0.058 0.027 -0.058 0.012 0 -0.036 0.074c-0.004,0.009 -0.008,0.015 -0.011,0.018 -0.003,0.003 -0.007,0.004 -0.012,0.004 -0.003,0 -0.007,-0.001 -0.012,-0.002l0 -0.011c0.003,0.002 0.007,0.003 0.011,0.003 0.003,0 0.006,-0.001 0.008,-0.003 0.002,-0.002 0.005,-0.006 0.007,-0.013l-0.038 -0.07z"/>
   <path id="2" class="fil1" d="M0.334 0.042l0 0.042c0.006,0 0.01,-0.001 0.013,-0.003 0.002,-0.002 0.005,-0.008 0.009,-0.016 0.003,-0.006 0.005,-0.011 0.006,-0.013 0.002,-0.003 0.004,-0.005 0.007,-0.006 0.003,-0.002 0.007,-0.003 0.01,-0.003 0.004,0 0.007,0 0.008,0l0 0.011c-0,0 -0.001,-0 -0.002,-0 -0.001,-0 -0.002,-0 -0.003,-0 -0.004,0 -0.007,0.001 -0.009,0.003 -0.002,0.002 -0.004,0.006 -0.007,0.012 -0.003,0.007 -0.005,0.012 -0.007,0.014 -0.002,0.002 -0.005,0.005 -0.009,0.006 0.006,0.002 0.012,0.007 0.018,0.017l0.02 0.032 -0.016 0 -0.016 -0.026c-0.004,-0.007 -0.008,-0.012 -0.011,-0.014 -0.003,-0.003 -0.007,-0.004 -0.012,-0.004l0 0.044 -0.013 0 0 -0.044c-0.004,0 -0.008,0.001 -0.011,0.003 -0.003,0.002 -0.007,0.007 -0.011,0.014l-0.001 0.001 -0.016 0.026 -0.016 0 0.02 -0.032c0.006,-0.01 0.012,-0.015 0.018,-0.017 -0.003,-0.001 -0.006,-0.003 -0.008,-0.006 -0.002,-0.002 -0.005,-0.007 -0.008,-0.015 -0.003,-0.007 -0.005,-0.011 -0.007,-0.013 -0.002,-0.002 -0.005,-0.003 -0.009,-0.003l-0.005 0 0 -0.011c0,-0 0.003,-0 0.007,-0 0.004,0 0.008,0.001 0.011,0.003 0.003,0.002 0.005,0.004 0.007,0.006 0.002,0.003 0.004,0.007 0.007,0.013 0.004,0.009 0.007,0.014 0.009,0.016 0.002,0.002 0.007,0.003 0.013,0.003l0 -0.042 0.013 0z"/>
   <polygon id="3" class="fil1" points="0.399,0.137 0.399,0.042 0.467,0.042 0.467,0.053 0.411,0.053 0.411,0.082 0.464,0.082 0.464,0.093 0.411,0.093 0.411,0.126 0.469,0.126 0.469,0.137 "/>
   <path id="4" class="fil1" d="M0.487 0.137l0 -0.095 0.019 0 0.022 0.067c0.002,0.006 0.004,0.011 0.005,0.014 0.001,-0.003 0.003,-0.009 0.005,-0.015l0.023 -0.066 0.017 0 0 0.095 -0.012 0 0 -0.079 -0.028 0.079 -0.011 0 -0.027 -0.081 0 0.081 -0.012 0z"/>
  </g>
 </g>
</svg>
