<?xml version="1.0" encoding="UTF-8"?>
<!DOCTYPE svg PUBLIC "-//W3C//DTD SVG 1.1//EN" "http://www.w3.org/Graphics/SVG/1.1/DTD/svg11.dtd">
<!-- Creator: CorelDRAW 2019 (64-Bit) -->
<svg xmlns="http://www.w3.org/2000/svg" xml:space="preserve" width="1.30088cm" height="0.33514cm" version="1.1" style="shape-rendering:geometricPrecision; text-rendering:geometricPrecision; image-rendering:optimizeQuality; fill-rule:evenodd; clip-rule:evenodd"
viewBox="0 0 0.743 0.191"
 xmlns:xlink="http://www.w3.org/1999/xlink"
 xmlns:xodm="http://www.corel.com/coreldraw/odm/2003">
 <defs>
  <style type="text/css">
   <![CDATA[
    .fil0 {fill:#FF7A21}
    .fil1 {fill:white;fill-rule:nonzero}
   ]]>
  </style>
 </defs>
 <g id="Слой_x0020_1">
  <metadata id="CorelCorpID_0Corel-Layer"/>
  <g id="_1784344599872">
   <rect class="fil0" width="0.743" height="0.191" rx="0.051" ry="0.048"/>
   <path class="fil1" d="M0.157 0.12l0.013 0.003c-0.003,0.011 -0.008,0.019 -0.015,0.025 -0.007,0.006 -0.016,0.009 -0.027,0.009 -0.011,0 -0.02,-0.002 -0.027,-0.007 -0.007,-0.004 -0.012,-0.011 -0.016,-0.019 -0.004,-0.008 -0.005,-0.017 -0.005,-0.027 0,-0.011 0.002,-0.02 0.006,-0.027 0.004,-0.008 0.01,-0.014 0.017,-0.018 0.007,-0.004 0.016,-0.006 0.024,-0.006 0.01,0 0.019,0.003 0.025,0.008 0.007,0.005 0.012,0.012 0.014,0.022l-0.013 0.003c-0.002,-0.007 -0.006,-0.013 -0.01,-0.016 -0.004,-0.003 -0.01,-0.005 -0.017,-0.005 -0.008,0 -0.014,0.002 -0.019,0.006 -0.005,0.004 -0.009,0.009 -0.011,0.015 -0.002,0.006 -0.003,0.013 -0.003,0.019 0,0.009 0.001,0.016 0.004,0.022 0.002,0.006 0.006,0.011 0.012,0.014 0.005,0.003 0.011,0.005 0.017,0.005 0.007,0 0.014,-0.002 0.019,-0.006 0.005,-0.004 0.009,-0.011 0.011,-0.019z"/>
   <path id="1" class="fil1" d="M0.187 0.055l0.012 0 0 0.08 0.054 -0.08 0.013 0 0 0.101 -0.012 0 0 -0.08 -0.054 0.08 -0.013 0 0 -0.101zm0.02 -0.006l0 -0.014 0.013 0 0 0.014 -0.013 0zm0.026 0l0 -0.014 0.013 0 0 0.014 -0.013 0z"/>
   <path id="2" class="fil1" d="M0.283 0.127l0.013 -0.003c0.001,0.005 0.004,0.01 0.008,0.015 0.004,0.005 0.01,0.007 0.017,0.007 0.007,0 0.013,-0.002 0.017,-0.005 0.004,-0.004 0.006,-0.008 0.006,-0.013 0,-0.006 -0.002,-0.01 -0.006,-0.013 -0.004,-0.003 -0.01,-0.005 -0.018,-0.005l-0.006 0 0 -0.012c0.006,0 0.011,-0 0.014,-0.001 0.003,-0.001 0.006,-0.003 0.009,-0.005 0.002,-0.003 0.004,-0.006 0.004,-0.01 0,-0.004 -0.002,-0.008 -0.005,-0.011 -0.003,-0.003 -0.008,-0.005 -0.014,-0.005 -0.005,0 -0.009,0.001 -0.013,0.004 -0.004,0.003 -0.006,0.006 -0.007,0.01 -0.001,0.004 -0.002,0.007 -0.002,0.009l-0.013 -0.003c0.003,-0.021 0.015,-0.032 0.035,-0.032 0.01,0 0.018,0.003 0.023,0.008 0.006,0.005 0.009,0.012 0.009,0.019 0,0.009 -0.004,0.017 -0.013,0.022 0.005,0.001 0.009,0.004 0.013,0.009 0.003,0.004 0.005,0.01 0.005,0.016 0,0.009 -0.003,0.016 -0.01,0.022 -0.007,0.006 -0.016,0.009 -0.027,0.009 -0.019,0 -0.031,-0.01 -0.037,-0.03z"/>
   <path id="3" class="fil1" d="M0.374 0.055l0.013 0 0 0.043 0.024 0c0.011,0 0.019,0.001 0.024,0.004 0.005,0.003 0.009,0.006 0.011,0.011 0.002,0.005 0.003,0.009 0.003,0.014 0,0.008 -0.003,0.015 -0.008,0.021 -0.005,0.006 -0.015,0.009 -0.03,0.009l-0.038 0 0 -0.101zm0.013 0.09l0.024 0c0.01,0 0.016,-0.002 0.019,-0.005 0.003,-0.004 0.004,-0.008 0.004,-0.013 0,-0.004 -0.001,-0.007 -0.003,-0.01 -0.002,-0.003 -0.005,-0.005 -0.009,-0.005 -0.004,-0.001 -0.01,-0.001 -0.018,-0.001l-0.018 0 0 0.035z"/>
   <path id="4" class="fil1" d="M0.467 0.055l0.013 0 0 0.043 0.024 0c0.016,0 0.026,0.003 0.031,0.009 0.005,0.006 0.007,0.012 0.007,0.02 0,0.008 -0.003,0.015 -0.008,0.021 -0.005,0.006 -0.015,0.009 -0.03,0.009l-0.038 0 0 -0.101zm0.013 0.09l0.024 0c0.008,0 0.014,-0.001 0.018,-0.004 0.004,-0.003 0.006,-0.007 0.006,-0.014 0,-0.004 -0.001,-0.008 -0.003,-0.011 -0.002,-0.003 -0.005,-0.005 -0.009,-0.005 -0.004,-0.001 -0.01,-0.001 -0.018,-0.001l-0.018 0 0 0.035zm0.075 -0.09l0.013 0 0 0.101 -0.013 0 0 -0.101z"/>
   <path id="5" class="fil1" d="M0.598 0.055l0.063 0 0 0.101 -0.013 0 0 -0.089 -0.036 0 0 0.052c0,0.011 -0,0.018 -0.001,0.023 -0.001,0.005 -0.003,0.009 -0.006,0.011 -0.003,0.003 -0.007,0.004 -0.012,0.004 -0.003,0 -0.007,-0.001 -0.011,-0.002l0.002 -0.012c0.002,0.001 0.004,0.002 0.006,0.002 0.003,0 0.005,-0.001 0.007,-0.003 0.002,-0.002 0.002,-0.008 0.002,-0.016l0 -0.071z"/>
  </g>
 </g>
</svg>
