<?xml version="1.0" encoding="UTF-8"?>
<!DOCTYPE svg PUBLIC "-//W3C//DTD SVG 1.1//EN" "http://www.w3.org/Graphics/SVG/1.1/DTD/svg11.dtd">
<!-- Creator: CorelDRAW 2019 (64-Bit) -->
<svg xmlns="http://www.w3.org/2000/svg" xml:space="preserve" width="1.30088cm" height="0.33514cm" version="1.1" style="shape-rendering:geometricPrecision; text-rendering:geometricPrecision; image-rendering:optimizeQuality; fill-rule:evenodd; clip-rule:evenodd"
viewBox="0 0 0.697 0.18"
 xmlns:xlink="http://www.w3.org/1999/xlink"
 xmlns:xodm="http://www.corel.com/coreldraw/odm/2003">
 <defs>
  <style type="text/css">
   <![CDATA[
    .fil0 {fill:#FEDE3A}
    .fil1 {fill:white;fill-rule:nonzero}
   ]]>
  </style>
 </defs>
 <g id="Слой_x0020_1">
  <metadata id="CorelCorpID_0Corel-Layer"/>
  <g id="_1784350490224">
   <rect class="fil0" width="0.697" height="0.18" rx="0.048" ry="0.045"/>
   <path class="fil1" d="M0.192 0.042l0.059 0 0 0.095 -0.013 0 0 -0.084 -0.034 0 0 0.049c0,0.01 -0,0.017 -0.001,0.022 -0.001,0.005 -0.003,0.008 -0.006,0.011 -0.003,0.003 -0.007,0.004 -0.011,0.004 -0.003,0 -0.006,-0.001 -0.01,-0.002l0.002 -0.011c0.002,0.001 0.004,0.002 0.005,0.002 0.003,0 0.005,-0.001 0.006,-0.003 0.001,-0.002 0.002,-0.007 0.002,-0.015l0 -0.067z"/>
   <polygon id="1" class="fil1" points="0.272,0.137 0.272,0.042 0.34,0.042 0.34,0.054 0.284,0.054 0.284,0.083 0.337,0.083 0.337,0.094 0.284,0.094 0.284,0.126 0.342,0.126 0.342,0.137 "/>
   <polygon id="2" class="fil1" points="0.384,0.137 0.384,0.054 0.353,0.054 0.353,0.042 0.428,0.042 0.428,0.054 0.396,0.054 0.396,0.137 "/>
   <path id="3" class="fil1" d="M0.431 0.091c0,-0.016 0.004,-0.028 0.013,-0.037 0.008,-0.009 0.019,-0.013 0.033,-0.013 0.009,0 0.017,0.002 0.024,0.006 0.007,0.004 0.012,0.01 0.016,0.017 0.004,0.007 0.006,0.016 0.006,0.025 0,0.01 -0.002,0.018 -0.006,0.026 -0.004,0.008 -0.009,0.013 -0.016,0.017 -0.007,0.004 -0.015,0.006 -0.023,0.006 -0.009,0 -0.017,-0.002 -0.024,-0.006 -0.007,-0.004 -0.012,-0.01 -0.016,-0.018 -0.004,-0.007 -0.005,-0.015 -0.005,-0.024zm0.013 0c0,0.011 0.003,0.02 0.009,0.027 0.006,0.007 0.014,0.01 0.023,0.01 0.009,0 0.017,-0.003 0.023,-0.01 0.006,-0.007 0.009,-0.016 0.009,-0.028 0,-0.008 -0.001,-0.014 -0.004,-0.02 -0.003,-0.006 -0.006,-0.01 -0.011,-0.013 -0.005,-0.003 -0.011,-0.005 -0.017,-0.005 -0.009,0 -0.017,0.003 -0.023,0.009 -0.006,0.006 -0.01,0.016 -0.01,0.03z"/>
  </g>
 </g>
</svg>
