<?xml version="1.0" encoding="UTF-8"?>
<!DOCTYPE svg PUBLIC "-//W3C//DTD SVG 1.1//EN" "http://www.w3.org/Graphics/SVG/1.1/DTD/svg11.dtd">
<!-- Creator: CorelDRAW 2019 (64-Bit) -->
<svg xmlns="http://www.w3.org/2000/svg" xml:space="preserve" width="1.30088cm" height="0.33514cm" version="1.1" style="shape-rendering:geometricPrecision; text-rendering:geometricPrecision; image-rendering:optimizeQuality; fill-rule:evenodd; clip-rule:evenodd"
viewBox="0 0 0.658 0.169"
 xmlns:xlink="http://www.w3.org/1999/xlink"
 xmlns:xodm="http://www.corel.com/coreldraw/odm/2003">
 <defs>
  <style type="text/css">
   <![CDATA[
    .fil0 {fill:#009933}
    .fil1 {fill:white;fill-rule:nonzero}
   ]]>
  </style>
 </defs>
 <g id="Слой_x0020_1">
  <metadata id="CorelCorpID_0Corel-Layer"/>
  <g id="_1784008720016">
   <rect class="fil0" width="0.658" height="0.169" rx="0.045" ry="0.043"/>
   <path class="fil1" d="M0.118 0.129l0 -0.089 0.034 0c0.007,0 0.012,0.001 0.016,0.003 0.004,0.002 0.007,0.005 0.01,0.008 0.002,0.004 0.004,0.008 0.004,0.012 0,0.004 -0.001,0.007 -0.003,0.011 -0.002,0.003 -0.005,0.006 -0.009,0.008 0.005,0.002 0.01,0.004 0.012,0.008 0.003,0.004 0.004,0.008 0.004,0.014 0,0.004 -0.001,0.008 -0.003,0.012 -0.002,0.004 -0.004,0.006 -0.007,0.008 -0.003,0.002 -0.006,0.003 -0.01,0.004 -0.004,0.001 -0.009,0.001 -0.014,0.001l-0.034 0zm0.012 -0.052l0.019 0c0.005,0 0.009,-0 0.011,-0.001 0.003,-0.001 0.005,-0.002 0.007,-0.004 0.002,-0.002 0.002,-0.005 0.002,-0.008 0,-0.003 -0.001,-0.006 -0.002,-0.008 -0.001,-0.002 -0.003,-0.004 -0.006,-0.005 -0.003,-0.001 -0.007,-0.001 -0.014,-0.001l-0.018 0 0 0.027zm0 0.041l0.022 0c0.004,0 0.007,-0 0.008,-0 0.003,-0 0.005,-0.001 0.007,-0.002 0.002,-0.001 0.003,-0.003 0.005,-0.005 0.001,-0.002 0.002,-0.005 0.002,-0.008 0,-0.003 -0.001,-0.006 -0.003,-0.009 -0.002,-0.002 -0.004,-0.004 -0.007,-0.005 -0.003,-0.001 -0.007,-0.002 -0.013,-0.002l-0.021 0 0 0.031z"/>
   <polygon id="1" class="fil1" points="0.202,0.129 0.202,0.04 0.267,0.04 0.267,0.051 0.214,0.051 0.214,0.078 0.263,0.078 0.263,0.088 0.214,0.088 0.214,0.119 0.269,0.119 0.269,0.129 "/>
   <path id="2" class="fil1" d="M0.349 0.098l0.012 0.003c-0.002,0.01 -0.007,0.017 -0.013,0.022 -0.006,0.005 -0.014,0.008 -0.024,0.008 -0.01,0 -0.017,-0.002 -0.023,-0.006 -0.006,-0.004 -0.011,-0.01 -0.014,-0.017 -0.003,-0.007 -0.005,-0.015 -0.005,-0.024 0,-0.009 0.002,-0.017 0.005,-0.024 0.004,-0.007 0.009,-0.012 0.015,-0.016 0.007,-0.004 0.014,-0.005 0.022,-0.005 0.009,0 0.016,0.002 0.023,0.007 0.006,0.005 0.01,0.011 0.013,0.019l-0.012 0.003c-0.002,-0.006 -0.005,-0.011 -0.009,-0.014 -0.004,-0.003 -0.009,-0.004 -0.015,-0.004 -0.007,0 -0.013,0.002 -0.017,0.005 -0.005,0.003 -0.008,0.008 -0.01,0.013 -0.002,0.006 -0.003,0.011 -0.003,0.017 0,0.008 0.001,0.014 0.003,0.02 0.002,0.006 0.006,0.01 0.01,0.013 0.005,0.003 0.01,0.004 0.015,0.004 0.007,0 0.012,-0.002 0.017,-0.006 0.005,-0.004 0.008,-0.009 0.009,-0.017z"/>
   <polygon id="3" class="fil1" points="0.376,0.129 0.376,0.04 0.388,0.04 0.388,0.077 0.434,0.077 0.434,0.04 0.446,0.04 0.446,0.129 0.434,0.129 0.434,0.087 0.388,0.087 0.388,0.129 "/>
   <path id="4" class="fil1" d="M0.456 0.129l0.034 -0.089 0.013 0 0.036 0.089 -0.013 0 -0.01 -0.027 -0.038 0 -0.01 0.027 -0.013 0zm0.026 -0.037l0.03 0 -0.009 -0.025c-0.003,-0.008 -0.005,-0.014 -0.006,-0.019 -0.001,0.006 -0.003,0.012 -0.005,0.017l-0.01 0.026z"/>
  </g>
 </g>
</svg>
