<?xml version="1.0" encoding="UTF-8"?>
<!DOCTYPE svg PUBLIC "-//W3C//DTD SVG 1.1//EN" "http://www.w3.org/Graphics/SVG/1.1/DTD/svg11.dtd">
<!-- Creator: CorelDRAW 2019 (64-Bit) -->
<svg xmlns="http://www.w3.org/2000/svg" xml:space="preserve" width="1.10598cm" height="0.23811cm" version="1.1" style="shape-rendering:geometricPrecision; text-rendering:geometricPrecision; image-rendering:optimizeQuality; fill-rule:evenodd; clip-rule:evenodd"
viewBox="0 0 2.289 0.493"
 xmlns:xlink="http://www.w3.org/1999/xlink"
 xmlns:xodm="http://www.corel.com/coreldraw/odm/2003">
 <defs>
  <style type="text/css">
   <![CDATA[
    .fil0 {fill:#EFF0AB}
    .fil2 {fill:#EF7F1A;fill-rule:nonzero}
    .fil1 {fill:#BAC245;fill-rule:nonzero}
   ]]>
  </style>
 </defs>
 <g id="Слой_x0020_1">
  <metadata id="CorelCorpID_0Corel-Layer"/>
  <path class="fil0" d="M0.21 0l1.869 0c0.116,0 0.21,0.095 0.21,0.21l0 0.072c0,0.115 -0.095,0.21 -0.21,0.21l-1.869 0c-0.115,0 -0.21,-0.095 -0.21,-0.21l0 -0.072c0,-0.116 0.095,-0.21 0.21,-0.21z"/>
  <g id="_2968796233248">
   <path class="fil1" d="M0.271 0.174c-0.003,0.003 -0.005,0.007 -0.008,0.011 -0.005,0.007 -0.009,0.016 -0.012,0.024l-0.002 0.006 -0.002 0.006c-0.002,0.006 -0.004,0.01 -0.005,0.013 -0.002,0.006 -0.005,0.01 -0.007,0.012 -0.002,0.002 -0.004,0.003 -0.006,0.004 -0.002,0.001 -0.004,0.001 -0.007,0.001 0.003,-0 0.005,-0.001 0.007,-0.001 0.002,-0.001 0.003,-0.002 0.005,-0.004 0.002,-0.003 0.004,-0.006 0.006,-0.012l0.002 -0.007 0.002 -0.006c0.002,-0.005 0.003,-0.01 0.005,-0.013 0.004,-0.009 0.008,-0.017 0.013,-0.024 0.007,-0.009 0.013,-0.015 0.02,-0.019 -0.004,0.002 -0.007,0.006 -0.01,0.009zm-0.1 0.035c-0.001,0.006 -0.003,0.014 -0.004,0.022l-0.001 0.011 -0.001 0.011c-0.001,-0.022 0.002,-0.042 0.008,-0.059 0.001,-0.003 0.002,-0.006 0.003,-0.009 0.002,-0.004 0.004,-0.007 0.005,-0.009 0.005,-0.007 0.011,-0.01 0.017,-0.01 -0.008,0.001 -0.014,0.006 -0.019,0.017 -0.002,0.004 -0.003,0.008 -0.005,0.014 -0.001,0.002 -0.001,0.004 -0.002,0.006l-0.001 0.003 -0 0.001 -0 0.001zm0.139 -0.054c-0.012,-0.007 -0.025,-0.007 -0.038,0.002 -0.01,0.007 -0.02,0.018 -0.028,0.034 -0.003,0.005 -0.005,0.011 -0.008,0.018 -0.001,0.002 -0.002,0.005 -0.003,0.009l-0.001 0.004 -0.001 0.002 -0.001 0.002c-0.002,0.006 -0.003,0.009 -0.005,0.012 -0.001,0.003 -0.003,0.004 -0.004,0.004 -0.003,-0 -0.004,-0.002 -0.004,-0.006 -0,-0.003 0.001,-0.011 0.002,-0.023 0.003,-0.022 0.002,-0.038 -0.004,-0.047 -0.005,-0.007 -0.013,-0.01 -0.023,-0.009 -0.013,0.002 -0.023,0.014 -0.031,0.036 -0.007,0.022 -0.01,0.049 -0.009,0.08 0.002,0.058 0.019,0.089 0.051,0.094 0.01,0.001 0.019,-0.001 0.028,-0.007 0.009,-0.005 0.016,-0.013 0.023,-0.022 0.005,-0.008 0.01,-0.016 0.014,-0.023 0.001,-0.003 0.003,-0.005 0.004,-0.008 0.001,-0.002 0.002,-0.004 0.003,-0.006 0.002,-0.004 0.003,-0.006 0.003,-0.006 0.001,-0.001 0.002,-0.001 0.003,-0.001 0.001,0 0.001,0.005 0,0.013l-0 0.003 -0 0.003c-0,0.003 -0.001,0.005 -0.001,0.006 -0.001,0.005 -0.001,0.01 -0.001,0.014 -0.001,0.025 0.008,0.037 0.026,0.037 0.012,-0 0.021,-0.01 0.027,-0.03 0.006,-0.018 0.009,-0.04 0.009,-0.067 0,-0.026 -0.003,-0.05 -0.008,-0.071 -0.006,-0.023 -0.014,-0.038 -0.024,-0.044z"/>
   <path id="1" class="fil1" d="M0.49 0.165c-0.001,0.001 -0.003,0.002 -0.004,0.003 -0.002,0.002 -0.003,0.005 -0.004,0.01 -0.001,0.006 -0.002,0.013 -0.001,0.022l0 0.003 0 0.003c0,0.002 0,0.004 -0,0.006 -0,0.004 -0.001,0.008 -0.003,0.011 -0.002,0.004 -0.004,0.007 -0.006,0.009 -0.003,0.003 -0.006,0.004 -0.01,0.005 0.007,-0.003 0.012,-0.008 0.014,-0.016 0.001,-0.003 0.002,-0.007 0.002,-0.01 0,-0.001 0,-0.003 0,-0.005l-0 -0.003 0 -0.003c-0,-0.009 0.001,-0.016 0.002,-0.022 0.001,-0.005 0.003,-0.008 0.005,-0.01 0.001,-0.002 0.003,-0.003 0.005,-0.003 0.001,-0.001 0.003,-0.001 0.005,-0.001 -0.002,0 -0.004,0.001 -0.005,0.001zm-0.102 0.004c-0.004,0.004 -0.006,0.008 -0.008,0.014 -0.002,0.005 -0.003,0.01 -0.005,0.016l-0.002 0.008 -0.002 0.008c0,-0.011 0.002,-0.022 0.006,-0.033 0.002,-0.006 0.005,-0.011 0.009,-0.015 0.002,-0.002 0.005,-0.004 0.007,-0.005 0.003,-0.001 0.006,-0.001 0.008,-0.001 -0.005,0.001 -0.01,0.003 -0.014,0.007zm0.107 -0.017c-0.01,0.001 -0.018,0.005 -0.022,0.014 -0.004,0.008 -0.006,0.021 -0.005,0.039 0,0.008 -0.001,0.013 -0.005,0.017 -0.003,0.003 -0.007,0.005 -0.012,0.004 -0.005,-0 -0.009,-0.003 -0.011,-0.006 -0.003,-0.004 -0.003,-0.009 -0.003,-0.015 0.002,-0.018 0,-0.031 -0.005,-0.04 -0.005,-0.008 -0.013,-0.013 -0.024,-0.015 -0.009,-0.001 -0.017,0.001 -0.025,0.006 -0.007,0.005 -0.012,0.013 -0.015,0.023 -0.006,0.019 -0.01,0.041 -0.01,0.067 -0,0.025 0.002,0.048 0.008,0.071 0.004,0.017 0.01,0.029 0.019,0.036 0.007,0.006 0.015,0.008 0.024,0.007 0.019,-0.003 0.028,-0.017 0.026,-0.042 -0.001,-0.019 0.003,-0.028 0.012,-0.028 0.005,0 0.008,0.002 0.011,0.005 0.003,0.005 0.005,0.012 0.004,0.022 -0.001,0.017 0.002,0.029 0.008,0.038 0.006,0.008 0.014,0.012 0.024,0.012 0.018,0 0.03,-0.011 0.038,-0.033 0.005,-0.016 0.008,-0.043 0.01,-0.08 0.001,-0.029 -0.003,-0.053 -0.011,-0.072 -0.008,-0.02 -0.02,-0.03 -0.034,-0.029z"/>
   <path id="2" class="fil1" d="M0.739 0.241c-0.002,0.003 -0.005,0.005 -0.009,0.007 -0.003,0.002 -0.007,0.002 -0.01,0.001 0.007,-0.001 0.013,-0.004 0.017,-0.01 0.004,-0.005 0.006,-0.011 0.007,-0.018 0.001,0.007 -0.001,0.014 -0.005,0.02zm-0.032 -0.02c0,-0.005 0.001,-0.009 0.004,-0.012 0.003,-0.003 0.006,-0.005 0.009,-0.005 0.004,0 0.007,0.002 0.009,0.005 0.003,0.003 0.004,0.007 0.004,0.012 0,0.005 -0.001,0.009 -0.004,0.012 -0.003,0.003 -0.006,0.005 -0.009,0.005 -0.003,0 -0.006,-0.002 -0.009,-0.005 -0.003,-0.003 -0.004,-0.007 -0.004,-0.012zm-0.076 0.022c-0.003,0.003 -0.005,0.005 -0.008,0.006 -0.003,0.001 -0.007,0.002 -0.01,0.001 0.006,-0.001 0.012,-0.004 0.017,-0.01 0.004,-0.004 0.007,-0.01 0.009,-0.017 0,0.007 -0.002,0.014 -0.007,0.019zm-0.022 -0.004c-0.003,-0.001 -0.005,-0.004 -0.006,-0.007 -0.001,-0.004 -0.001,-0.008 0.001,-0.012 0.002,-0.004 0.004,-0.007 0.007,-0.009 0.003,-0.002 0.006,-0.003 0.009,-0.002 0.003,0.001 0.005,0.004 0.006,0.007 0.001,0.004 0.001,0.008 -0.001,0.012 -0.002,0.004 -0.004,0.007 -0.007,0.009 -0.003,0.002 -0.006,0.003 -0.009,0.002zm-0.035 -0.044c-0.004,0.006 -0.006,0.014 -0.007,0.022 0,-0.004 0,-0.007 0.001,-0.012 0.001,-0.004 0.002,-0.007 0.004,-0.011 0.004,-0.007 0.009,-0.013 0.015,-0.018 0.005,-0.004 0.013,-0.007 0.022,-0.009 0.008,-0.002 0.015,-0.003 0.023,-0.003l-0.006 0.001 -0.006 0.001c-0.004,0.001 -0.008,0.002 -0.011,0.003 -0.009,0.003 -0.016,0.006 -0.021,0.009 -0.006,0.004 -0.011,0.01 -0.015,0.017zm0.192 -0.017c-0.008,-0.008 -0.02,-0.014 -0.035,-0.018 -0.014,-0.004 -0.031,-0.007 -0.049,-0.008 -0.018,-0.001 -0.034,-0.001 -0.051,0.001 -0.017,0.002 -0.03,0.005 -0.04,0.01 -0.012,0.006 -0.022,0.015 -0.029,0.027 -0.006,0.012 -0.009,0.024 -0.008,0.038 0.001,0.014 0.006,0.026 0.015,0.037 0.01,0.012 0.024,0.02 0.041,0.024 0.005,0.001 0.009,0.004 0.011,0.007 0.002,0.003 0.003,0.007 0.003,0.013 0,0.002 0,0.004 0,0.008l0 0.004c0,0.002 0,0.003 0,0.005 0,0.008 0.001,0.014 0.003,0.02 0.002,0.008 0.007,0.014 0.013,0.018 0.006,0.004 0.013,0.005 0.021,0.004 0.008,-0.001 0.015,-0.005 0.021,-0.011 0.007,-0.007 0.011,-0.016 0.013,-0.028 0.003,-0.017 0.005,-0.029 0.007,-0.034 0.002,-0.006 0.006,-0.009 0.01,-0.009 0.019,-0.001 0.034,-0.006 0.046,-0.014 0.011,-0.007 0.018,-0.017 0.022,-0.029 0.004,-0.011 0.004,-0.022 0.001,-0.034 -0.003,-0.012 -0.009,-0.021 -0.017,-0.029z"/>
   <path id="3" class="fil1" d="M0.904 0.299c-0.002,0.003 -0.004,0.005 -0.007,0.006 -0.003,0.002 -0.006,0.002 -0.009,0.002 0.006,-0.002 0.01,-0.005 0.013,-0.01 0.003,-0.004 0.005,-0.009 0.006,-0.016 0.001,0.006 0,0.012 -0.004,0.017zm-0.032 -0.015c-0.001,-0.004 0,-0.007 0.002,-0.01 0.002,-0.003 0.004,-0.005 0.008,-0.005 0.003,-0.001 0.006,0 0.009,0.003 0.003,0.002 0.004,0.005 0.005,0.009 0.001,0.004 0,0.007 -0.002,0.01 -0.002,0.003 -0.004,0.005 -0.008,0.005 -0.003,0.001 -0.006,-0 -0.009,-0.003 -0.003,-0.002 -0.004,-0.005 -0.005,-0.009zm-0.008 -0.116c-0.008,0.003 -0.015,0.007 -0.021,0.013 -0.006,0.005 -0.011,0.012 -0.015,0.019l-0.001 0.003 -0.002 0.003 -0.003 0.006 -0.002 0.006 -0.002 0.006c0.002,-0.008 0.005,-0.016 0.008,-0.024 0.004,-0.008 0.009,-0.015 0.015,-0.02 0.007,-0.006 0.014,-0.011 0.022,-0.013 0.004,-0.001 0.008,-0.002 0.012,-0.003l0.003 -0 0.003 -0 0.006 0c-0.009,0.001 -0.017,0.003 -0.024,0.005zm0.051 -0.014c-0.031,-0.008 -0.057,-0.003 -0.078,0.015 -0.018,0.016 -0.03,0.038 -0.034,0.067 -0.004,0.028 -0.001,0.055 0.01,0.079 0.012,0.026 0.03,0.043 0.054,0.049 0.023,0.006 0.045,0 0.065,-0.018 0.019,-0.017 0.032,-0.039 0.04,-0.067 0.008,-0.029 0.008,-0.054 -0.001,-0.077 -0.01,-0.026 -0.028,-0.042 -0.056,-0.049z"/>
   <path id="4" class="fil1" d="M1.094 0.24c-0.001,0.003 -0.003,0.006 -0.005,0.008 -0.002,0.002 -0.005,0.004 -0.008,0.005 -0.003,0.001 -0.006,0.001 -0.009,0.001 0.003,-0.001 0.006,-0.002 0.008,-0.003 0.003,-0.001 0.005,-0.003 0.006,-0.005 0.004,-0.004 0.007,-0.009 0.009,-0.015 0,0.003 -0,0.006 -0.001,0.009zm-0.027 -0.013c0.002,-0.003 0.004,-0.005 0.006,-0.006 0.003,-0.001 0.005,-0.001 0.007,-0 0.002,0.001 0.003,0.003 0.004,0.006 0,0.003 -0,0.006 -0.002,0.009 -0.001,0.003 -0.004,0.005 -0.006,0.006 -0.003,0.001 -0.005,0.001 -0.007,0 -0.002,-0.001 -0.003,-0.003 -0.004,-0.006 -0,-0.003 0,-0.006 0.002,-0.009zm-0.023 -0.06c-0.007,0.003 -0.013,0.007 -0.018,0.013 -0.005,0.005 -0.009,0.011 -0.012,0.018 -0.003,0.006 -0.005,0.013 -0.008,0.021 0,-0.003 0.001,-0.007 0.002,-0.011 0.001,-0.004 0.002,-0.007 0.004,-0.011 0.003,-0.007 0.007,-0.014 0.012,-0.019 0.005,-0.006 0.012,-0.01 0.019,-0.013 0.003,-0.001 0.007,-0.002 0.011,-0.003 0.004,-0.001 0.008,-0.001 0.011,-0.001 -0.008,0.001 -0.016,0.003 -0.021,0.006zm0.028 -0.018c-0.02,-0 -0.037,0.005 -0.05,0.017 -0.012,0.01 -0.02,0.024 -0.025,0.042 -0.004,0.017 -0.006,0.035 -0.003,0.055 0.002,0.019 0.007,0.037 0.015,0.054 0.007,0.016 0.016,0.028 0.025,0.037 0.008,0.008 0.016,0.012 0.024,0.012 0.007,0.001 0.014,-0.001 0.019,-0.007 0.005,-0.005 0.009,-0.012 0.01,-0.02 0.001,-0.006 0.001,-0.013 -0,-0.02 -0,-0.002 -0.001,-0.005 -0.002,-0.009l-0.001 -0.004c-0,-0.001 -0.001,-0.003 -0.001,-0.004 -0.001,-0.006 -0.001,-0.01 0,-0.014 0.001,-0.004 0.004,-0.007 0.009,-0.01 0.016,-0.008 0.029,-0.019 0.037,-0.034 0.008,-0.014 0.011,-0.028 0.009,-0.043 -0.002,-0.015 -0.008,-0.027 -0.019,-0.037 -0.012,-0.01 -0.028,-0.016 -0.047,-0.016z"/>
   <path id="5" class="fil1" d="M1.323 0.165c-0.002,0.002 -0.005,0.004 -0.007,0.007 -0.003,0.004 -0.007,0.009 -0.012,0.016l-0.003 0.004 -0.003 0.004c-0.002,0.003 -0.005,0.006 -0.007,0.008 -0.003,0.003 -0.006,0.004 -0.009,0.006 -0.004,0.002 -0.007,0.002 -0.01,0.002 0.006,-0.001 0.012,-0.004 0.017,-0.009 0.002,-0.002 0.004,-0.005 0.006,-0.008l0.003 -0.004 0.003 -0.004c0.005,-0.007 0.009,-0.013 0.013,-0.016 0.003,-0.003 0.006,-0.005 0.008,-0.006 0.003,-0.002 0.007,-0.003 0.01,-0.002 -0.004,0 -0.007,0.001 -0.009,0.003zm-0.122 0.014c-0.004,0.005 -0.007,0.01 -0.01,0.017 -0.002,0.004 -0.005,0.01 -0.008,0.019 -0.001,0.003 -0.002,0.006 -0.003,0.01l-0.002 0.005 -0.002 0.005c0.003,-0.014 0.007,-0.027 0.013,-0.039 0.004,-0.007 0.007,-0.013 0.012,-0.017 0.002,-0.003 0.005,-0.005 0.008,-0.007 0.003,-0.002 0.007,-0.003 0.01,-0.002 -0.006,0.001 -0.011,0.004 -0.016,0.01zm0.184 0.075c-0.001,-0.03 -0.007,-0.055 -0.016,-0.074 -0.009,-0.018 -0.02,-0.028 -0.032,-0.029 -0.009,-0.001 -0.017,0.001 -0.025,0.007 -0.006,0.005 -0.013,0.014 -0.022,0.027 -0.008,0.012 -0.014,0.017 -0.02,0.016 -0.004,-0.001 -0.008,-0.005 -0.014,-0.014 -0.006,-0.01 -0.012,-0.017 -0.018,-0.022 -0.007,-0.006 -0.015,-0.009 -0.023,-0.008 -0.021,0.002 -0.038,0.027 -0.051,0.074 -0.008,0.03 -0.012,0.058 -0.01,0.082 0.002,0.027 0.01,0.043 0.025,0.046 0.009,0.002 0.016,-0 0.023,-0.006 0.005,-0.005 0.01,-0.012 0.014,-0.022 0.001,-0.003 0.003,-0.008 0.005,-0.013l0.001 -0.003 0.001 -0.003c0.001,-0.002 0.001,-0.004 0.002,-0.006 0.003,-0.008 0.006,-0.012 0.009,-0.013 0.002,-0.001 0.004,0.001 0.006,0.005 0.001,0.001 0.001,0.003 0.002,0.006l0.001 0.002 0.001 0.002 0.001 0.004c0.003,0.006 0.005,0.011 0.008,0.014 0.004,0.004 0.009,0.007 0.015,0.007 0.004,0 0.008,-0.002 0.012,-0.005 0.003,-0.002 0.006,-0.006 0.009,-0.011l0.002 -0.003 0.002 -0.003c0.001,-0.002 0.003,-0.004 0.004,-0.005 0.003,-0.003 0.005,-0.004 0.008,-0.003 0.002,0.001 0.005,0.005 0.007,0.012 0.001,0.001 0.001,0.003 0.002,0.005l0.001 0.003 0.001 0.003c0.002,0.005 0.003,0.009 0.004,0.012 0.004,0.009 0.008,0.016 0.012,0.021 0.006,0.006 0.012,0.01 0.02,0.01 0.014,0 0.023,-0.01 0.029,-0.032 0.005,-0.019 0.007,-0.046 0.005,-0.081z"/>
   <path id="6" class="fil1" d="M1.506 0.284c-0.002,0.002 -0.004,0.003 -0.007,0.003 -0.003,0.001 -0.005,0.001 -0.007,0 0.005,-0.001 0.009,-0.003 0.012,-0.006 0.003,-0.002 0.006,-0.006 0.009,-0.01 -0.001,0.005 -0.003,0.009 -0.007,0.012zm-0.016 -0.009c-0.002,-0.001 -0.004,-0.003 -0.005,-0.006 -0.001,-0.003 -0.001,-0.006 0.001,-0.009 0.001,-0.003 0.003,-0.005 0.006,-0.007 0.003,-0.001 0.005,-0.002 0.007,-0.001 0.002,0.001 0.004,0.003 0.005,0.006 0.001,0.003 0,0.006 -0.001,0.009 -0.001,0.003 -0.003,0.005 -0.006,0.007 -0.003,0.002 -0.005,0.002 -0.007,0.001zm-0.024 -0.081c-0.004,0.005 -0.008,0.012 -0.014,0.021 -0.002,0.003 -0.004,0.007 -0.006,0.011l-0.006 0.011c0.003,-0.007 0.006,-0.015 0.011,-0.023 0.004,-0.007 0.008,-0.015 0.013,-0.022 0.006,-0.008 0.011,-0.015 0.017,-0.019l0.002 -0.002c0.001,-0.001 0.002,-0.001 0.002,-0.002l0.003 -0.002 0.003 -0.002c0.005,-0.002 0.009,-0.004 0.012,-0.003 -0.003,0 -0.007,0.002 -0.012,0.005l-0.002 0.002 -0.002 0.002c-0.001,0.001 -0.001,0.001 -0.002,0.002l-0.002 0.002c-0.005,0.005 -0.01,0.012 -0.016,0.019zm0.04 -0.044c-0.013,-0.002 -0.028,0.007 -0.044,0.027 -0.015,0.018 -0.028,0.041 -0.04,0.07 -0.012,0.028 -0.018,0.053 -0.02,0.075 -0.002,0.024 0.003,0.038 0.014,0.042 0.009,0.003 0.017,0.003 0.025,-0 0.006,-0.003 0.012,-0.007 0.019,-0.015 0.001,-0.001 0.003,-0.003 0.004,-0.005l0.004 -0.005c0.003,-0.004 0.006,-0.007 0.007,-0.008 0.005,-0.006 0.01,-0.008 0.013,-0.008 0.004,0 0.008,0.003 0.014,0.008 0.002,0.002 0.004,0.004 0.008,0.008l0.004 0.004 0.004 0.004c0.007,0.007 0.013,0.011 0.019,0.014 0.007,0.003 0.015,0.003 0.022,-0 0.009,-0.004 0.014,-0.017 0.015,-0.039 0.001,-0.02 -0.001,-0.044 -0.007,-0.07 -0.006,-0.027 -0.014,-0.05 -0.024,-0.068 -0.012,-0.021 -0.024,-0.032 -0.037,-0.034z"/>
   <path id="7" class="fil1" d="M1.727 0.174c-0.002,0.002 -0.004,0.005 -0.005,0.009 -0.001,0.002 -0.002,0.005 -0.003,0.01l-0.003 0.01c-0,-0.003 0,-0.007 0.001,-0.011 0.001,-0.004 0.002,-0.007 0.003,-0.011 0.002,-0.004 0.004,-0.007 0.006,-0.009 0.003,-0.003 0.006,-0.004 0.01,-0.004 -0.003,0.001 -0.006,0.002 -0.008,0.005zm-0.036 0.106c-0.002,0.002 -0.005,0.003 -0.007,0.003 -0.003,0.001 -0.005,0.001 -0.007,0 0.003,-0.001 0.005,-0.001 0.007,-0.002 0.002,-0.001 0.004,-0.002 0.006,-0.004 0.002,-0.001 0.003,-0.003 0.005,-0.005l0.003 -0.003 0.003 -0.003c-0.002,0.005 -0.004,0.009 -0.008,0.012zm-0.056 -0.116c-0.002,0.002 -0.004,0.004 -0.006,0.005 -0.003,0.004 -0.006,0.008 -0.009,0.013 -0.002,0.004 -0.004,0.009 -0.007,0.015l-0.003 0.008 -0.003 0.008c0.002,-0.011 0.005,-0.022 0.01,-0.031 0.003,-0.006 0.006,-0.01 0.01,-0.014 0.002,-0.002 0.004,-0.003 0.007,-0.005 0.003,-0.001 0.006,-0.002 0.008,-0.002 -0.003,0.001 -0.005,0.002 -0.008,0.003zm0.134 0.148c-0.006,-0.002 -0.009,-0.007 -0.008,-0.016 0,-0.003 0.001,-0.007 0.002,-0.013l0.001 -0.007c0.001,-0.003 0.001,-0.005 0.001,-0.007 0.004,-0.034 0.006,-0.058 0.004,-0.072 -0.002,-0.022 -0.01,-0.035 -0.024,-0.039 -0.01,-0.003 -0.019,-0.001 -0.026,0.006 -0.007,0.008 -0.012,0.02 -0.014,0.037 -0.005,0.046 -0.014,0.069 -0.027,0.069 -0.015,0 -0.016,-0.019 -0.005,-0.057 0.006,-0.02 0.005,-0.036 -0,-0.048 -0.006,-0.012 -0.015,-0.018 -0.029,-0.017 -0.014,0 -0.026,0.011 -0.036,0.031 -0.009,0.019 -0.015,0.044 -0.017,0.073 -0.002,0.029 0.001,0.052 0.008,0.07 0.006,0.013 0.015,0.024 0.027,0.032 0.01,0.007 0.022,0.01 0.037,0.011 0.005,0 0.013,0 0.021,-0l0.006 -0 0.006 -0c0.005,-0 0.01,-0.001 0.013,-0.001 0.005,-0 0.009,0.001 0.012,0.003 0.002,0.002 0.004,0.004 0.007,0.009l0.002 0.002 0.002 0.002c0.001,0.002 0.003,0.004 0.004,0.005 0.004,0.003 0.008,0.006 0.013,0.007 0.009,0.002 0.018,0 0.025,-0.007 0.007,-0.006 0.012,-0.015 0.015,-0.026 0.003,-0.011 0.003,-0.021 0,-0.03 -0.003,-0.01 -0.009,-0.016 -0.018,-0.019z"/>
   <path id="8" class="fil1" d="M1.923 0.174c-0.003,0.003 -0.005,0.007 -0.008,0.011 -0.005,0.007 -0.009,0.016 -0.012,0.024l-0.002 0.006 -0.002 0.006c-0.002,0.006 -0.004,0.01 -0.005,0.013 -0.002,0.006 -0.005,0.01 -0.007,0.012 -0.002,0.002 -0.004,0.003 -0.006,0.004 -0.002,0.001 -0.004,0.001 -0.007,0.001 0.003,-0 0.005,-0.001 0.007,-0.001 0.002,-0.001 0.003,-0.002 0.005,-0.004 0.002,-0.003 0.004,-0.006 0.006,-0.012l0.002 -0.007 0.002 -0.006c0.002,-0.005 0.003,-0.01 0.005,-0.013 0.004,-0.009 0.008,-0.017 0.013,-0.024 0.007,-0.009 0.013,-0.015 0.02,-0.019 -0.004,0.002 -0.007,0.006 -0.01,0.009zm-0.1 0.035c-0.001,0.006 -0.003,0.014 -0.004,0.022l-0.001 0.011 -0.001 0.011c-0.001,-0.022 0.002,-0.042 0.008,-0.059 0.001,-0.003 0.002,-0.006 0.003,-0.009 0.002,-0.004 0.004,-0.007 0.005,-0.009 0.005,-0.007 0.011,-0.01 0.017,-0.01 -0.008,0.001 -0.014,0.006 -0.019,0.017 -0.002,0.004 -0.003,0.008 -0.005,0.014 -0.001,0.002 -0.001,0.004 -0.002,0.006l-0.001 0.003 -0 0.001 -0 0.001zm0.139 -0.054c-0.012,-0.007 -0.025,-0.007 -0.038,0.002 -0.01,0.007 -0.02,0.018 -0.028,0.034 -0.003,0.005 -0.005,0.011 -0.008,0.018 -0.001,0.002 -0.002,0.005 -0.003,0.009l-0.001 0.004 -0.001 0.002 -0.001 0.002c-0.002,0.006 -0.003,0.009 -0.005,0.012 -0.001,0.003 -0.003,0.004 -0.004,0.004 -0.003,-0 -0.004,-0.002 -0.004,-0.006 -0,-0.003 0.001,-0.011 0.002,-0.023 0.003,-0.022 0.002,-0.038 -0.004,-0.047 -0.005,-0.007 -0.013,-0.01 -0.023,-0.009 -0.013,0.002 -0.023,0.014 -0.031,0.036 -0.007,0.022 -0.01,0.049 -0.009,0.08 0.002,0.058 0.019,0.089 0.051,0.094 0.01,0.001 0.019,-0.001 0.028,-0.007 0.009,-0.005 0.016,-0.013 0.023,-0.022 0.005,-0.008 0.01,-0.016 0.014,-0.023 0.001,-0.003 0.003,-0.005 0.004,-0.008 0.001,-0.002 0.002,-0.004 0.003,-0.006 0.002,-0.004 0.003,-0.006 0.003,-0.006 0.001,-0.001 0.002,-0.001 0.003,-0.001 0.001,0 0.001,0.005 0,0.013l-0 0.003 -0 0.003c-0,0.003 -0.001,0.005 -0.001,0.006 -0.001,0.005 -0.001,0.01 -0.001,0.014 -0.001,0.025 0.008,0.037 0.026,0.037 0.012,-0 0.021,-0.01 0.027,-0.03 0.006,-0.018 0.009,-0.04 0.009,-0.067 0,-0.026 -0.003,-0.05 -0.008,-0.071 -0.006,-0.023 -0.014,-0.038 -0.024,-0.044z"/>
   <path id="9" class="fil1" d="M2.11 0.249c-0.002,0.003 -0.005,0.004 -0.007,0.006 -0.003,0.001 -0.006,0.002 -0.009,0.001 0.006,-0.001 0.011,-0.004 0.014,-0.009 0.003,-0.004 0.006,-0.009 0.007,-0.015 0.001,0.006 0,0.012 -0.004,0.017zm-0.027 -0.016c-0,-0.003 0.001,-0.006 0.003,-0.008 0.002,-0.002 0.004,-0.004 0.007,-0.004 0.003,-0 0.005,0.001 0.007,0.003 0.002,0.002 0.003,0.005 0.003,0.008 0,0.003 -0.001,0.006 -0.003,0.008 -0.002,0.002 -0.004,0.004 -0.007,0.004 -0.003,0 -0.005,-0.001 -0.007,-0.003 -0.002,-0.002 -0.003,-0.005 -0.003,-0.008zm-0.012 -0.065c-0.006,0.003 -0.012,0.007 -0.016,0.011 -0.004,0.004 -0.008,0.01 -0.01,0.016 -0.001,0.003 -0.002,0.006 -0.003,0.009 -0.001,0.002 -0.001,0.006 -0.002,0.01 -0.001,-0.007 0,-0.013 0.002,-0.02 0.002,-0.006 0.005,-0.012 0.01,-0.017 0.005,-0.005 0.01,-0.008 0.017,-0.011 0.006,-0.002 0.013,-0.004 0.019,-0.004l-0.005 0.001c-0.002,0 -0.003,0.001 -0.005,0.001 -0.003,0.001 -0.006,0.002 -0.009,0.003zm-0.039 0.136c-0.006,0.008 -0.009,0.016 -0.011,0.023 -0,-0.004 0.001,-0.009 0.002,-0.013 0.001,-0.004 0.003,-0.007 0.006,-0.012 0.003,-0.004 0.005,-0.007 0.008,-0.01 0.003,-0.003 0.006,-0.006 0.01,-0.008l-0.004 0.005 -0.004 0.005c-0.003,0.004 -0.006,0.007 -0.008,0.01zm0.056 -0.154c-0.015,0.002 -0.027,0.006 -0.037,0.015 -0.009,0.007 -0.015,0.017 -0.019,0.028 -0.003,0.011 -0.004,0.022 -0.002,0.034 0.003,0.012 0.008,0.023 0.016,0.033 0.002,0.002 0.002,0.004 0.001,0.006 -0.001,0.002 -0.003,0.004 -0.006,0.007l-0.001 0.001 -0.001 0.001c-0.001,0.001 -0.002,0.002 -0.003,0.002 -0.002,0.002 -0.004,0.004 -0.006,0.006 -0.005,0.005 -0.009,0.011 -0.013,0.017 -0.006,0.01 -0.008,0.019 -0.008,0.028 0,0.008 0.002,0.015 0.006,0.021 0.004,0.006 0.009,0.01 0.015,0.013 0.006,0.003 0.012,0.004 0.018,0.003 0.014,-0.003 0.024,-0.011 0.031,-0.024 0.001,-0.002 0.002,-0.005 0.004,-0.008l0.001 -0.004 0.001 -0.004c0.002,-0.006 0.005,-0.01 0.007,-0.013 0.004,-0.004 0.006,-0.005 0.008,-0.002 0.003,0.003 0.004,0.013 0.005,0.028 0,0.008 0.003,0.015 0.008,0.02 0.005,0.005 0.011,0.007 0.018,0.006 0.007,-0 0.014,-0.003 0.02,-0.008 0.007,-0.006 0.012,-0.014 0.016,-0.025 0.006,-0.018 0.009,-0.037 0.009,-0.059 0,-0.022 -0.003,-0.043 -0.009,-0.061 -0.007,-0.02 -0.016,-0.036 -0.028,-0.047 -0.014,-0.012 -0.031,-0.017 -0.05,-0.015z"/>
   <path class="fil2" d="M0.251 0.172c-0.003,0.003 -0.005,0.007 -0.008,0.011 -0.005,0.007 -0.009,0.016 -0.012,0.024l-0.002 0.006 -0.002 0.006c-0.002,0.006 -0.004,0.01 -0.005,0.013 -0.002,0.006 -0.005,0.01 -0.007,0.012 -0.002,0.002 -0.004,0.003 -0.006,0.004 -0.002,0.001 -0.004,0.001 -0.007,0.001 0.003,-0 0.005,-0.001 0.007,-0.001 0.002,-0.001 0.003,-0.002 0.005,-0.004 0.002,-0.003 0.004,-0.006 0.006,-0.012l0.002 -0.007 0.002 -0.006c0.002,-0.005 0.003,-0.01 0.005,-0.013 0.004,-0.009 0.008,-0.017 0.013,-0.024 0.007,-0.009 0.013,-0.015 0.02,-0.019 -0.004,0.002 -0.007,0.006 -0.01,0.009zm-0.1 0.035c-0.001,0.006 -0.003,0.014 -0.004,0.022l-0.001 0.011 -0.001 0.011c-0.001,-0.022 0.002,-0.042 0.008,-0.059 0.001,-0.003 0.002,-0.006 0.003,-0.009 0.002,-0.004 0.004,-0.007 0.005,-0.009 0.005,-0.007 0.011,-0.01 0.017,-0.01 -0.008,0.001 -0.014,0.006 -0.019,0.017 -0.002,0.004 -0.003,0.008 -0.005,0.014 -0.001,0.002 -0.001,0.004 -0.002,0.006l-0.001 0.003 -0 0.001 -0 0.001zm0.139 -0.054c-0.012,-0.007 -0.025,-0.007 -0.038,0.002 -0.01,0.007 -0.02,0.018 -0.028,0.034 -0.003,0.005 -0.005,0.011 -0.008,0.018 -0.001,0.002 -0.002,0.005 -0.003,0.009l-0.001 0.004 -0.001 0.002 -0.001 0.002c-0.002,0.006 -0.003,0.009 -0.005,0.012 -0.001,0.003 -0.003,0.004 -0.004,0.004 -0.003,-0 -0.004,-0.002 -0.004,-0.006 -0,-0.003 0.001,-0.011 0.002,-0.023 0.003,-0.022 0.002,-0.038 -0.004,-0.047 -0.005,-0.007 -0.013,-0.01 -0.023,-0.009 -0.013,0.002 -0.023,0.014 -0.031,0.036 -0.007,0.022 -0.01,0.049 -0.009,0.08 0.002,0.058 0.019,0.089 0.051,0.094 0.01,0.001 0.019,-0.001 0.028,-0.007 0.009,-0.005 0.016,-0.013 0.023,-0.022 0.005,-0.008 0.01,-0.016 0.014,-0.023 0.001,-0.003 0.003,-0.005 0.004,-0.008 0.001,-0.002 0.002,-0.004 0.003,-0.006 0.002,-0.004 0.003,-0.006 0.003,-0.006 0.001,-0.001 0.002,-0.001 0.003,-0.001 0.001,0 0.001,0.005 0,0.013l-0 0.003 -0 0.003c-0,0.003 -0.001,0.005 -0.001,0.006 -0.001,0.005 -0.001,0.01 -0.001,0.014 -0.001,0.025 0.008,0.037 0.026,0.037 0.012,-0 0.021,-0.01 0.027,-0.03 0.006,-0.018 0.009,-0.04 0.009,-0.067 0,-0.026 -0.003,-0.05 -0.008,-0.071 -0.006,-0.023 -0.014,-0.038 -0.024,-0.044z"/>
   <path id="1" class="fil2" d="M0.47 0.163c-0.001,0.001 -0.003,0.002 -0.004,0.003 -0.002,0.002 -0.003,0.005 -0.004,0.01 -0.001,0.006 -0.002,0.013 -0.001,0.022l0 0.003 0 0.003c0,0.002 0,0.004 -0,0.006 -0,0.004 -0.001,0.008 -0.003,0.011 -0.002,0.004 -0.004,0.007 -0.006,0.009 -0.003,0.003 -0.006,0.004 -0.01,0.005 0.007,-0.003 0.012,-0.008 0.014,-0.016 0.001,-0.003 0.002,-0.007 0.002,-0.01 0,-0.001 0,-0.003 0,-0.005l-0 -0.003 0 -0.003c-0,-0.009 0.001,-0.016 0.002,-0.022 0.001,-0.005 0.003,-0.008 0.005,-0.01 0.001,-0.002 0.003,-0.003 0.005,-0.003 0.001,-0.001 0.003,-0.001 0.005,-0.001 -0.002,0 -0.004,0.001 -0.005,0.001zm-0.102 0.004c-0.004,0.004 -0.006,0.008 -0.008,0.014 -0.002,0.005 -0.003,0.01 -0.005,0.016l-0.002 0.008 -0.002 0.008c0,-0.011 0.002,-0.022 0.006,-0.033 0.002,-0.006 0.005,-0.011 0.009,-0.015 0.002,-0.002 0.005,-0.004 0.007,-0.005 0.003,-0.001 0.006,-0.001 0.008,-0.001 -0.005,0.001 -0.01,0.003 -0.014,0.007zm0.107 -0.017c-0.01,0.001 -0.018,0.005 -0.022,0.014 -0.004,0.008 -0.006,0.021 -0.005,0.039 0,0.008 -0.001,0.013 -0.005,0.017 -0.003,0.003 -0.007,0.005 -0.012,0.004 -0.005,-0 -0.009,-0.003 -0.011,-0.006 -0.003,-0.004 -0.003,-0.009 -0.003,-0.015 0.002,-0.018 0,-0.031 -0.005,-0.04 -0.005,-0.008 -0.013,-0.013 -0.024,-0.015 -0.009,-0.001 -0.017,0.001 -0.025,0.006 -0.007,0.005 -0.012,0.013 -0.015,0.023 -0.006,0.019 -0.01,0.041 -0.01,0.067 -0,0.025 0.002,0.048 0.008,0.071 0.004,0.017 0.01,0.029 0.019,0.036 0.007,0.006 0.015,0.008 0.024,0.007 0.019,-0.003 0.028,-0.017 0.026,-0.042 -0.001,-0.019 0.003,-0.028 0.012,-0.028 0.005,0 0.008,0.002 0.011,0.005 0.003,0.005 0.005,0.012 0.004,0.022 -0.001,0.017 0.002,0.029 0.008,0.038 0.006,0.008 0.014,0.012 0.024,0.012 0.018,0 0.03,-0.011 0.038,-0.033 0.005,-0.016 0.008,-0.043 0.01,-0.08 0.001,-0.029 -0.003,-0.053 -0.011,-0.072 -0.008,-0.02 -0.02,-0.03 -0.034,-0.029z"/>
   <path id="2" class="fil2" d="M0.719 0.239c-0.002,0.003 -0.005,0.005 -0.009,0.007 -0.003,0.002 -0.007,0.002 -0.01,0.001 0.007,-0.001 0.013,-0.004 0.017,-0.01 0.004,-0.005 0.006,-0.011 0.007,-0.018 0.001,0.007 -0.001,0.014 -0.005,0.02zm-0.032 -0.02c0,-0.005 0.001,-0.009 0.004,-0.012 0.003,-0.003 0.006,-0.005 0.009,-0.005 0.004,0 0.007,0.002 0.009,0.005 0.003,0.003 0.004,0.007 0.004,0.012 0,0.005 -0.001,0.009 -0.004,0.012 -0.003,0.003 -0.006,0.005 -0.009,0.005 -0.003,0 -0.006,-0.002 -0.009,-0.005 -0.003,-0.003 -0.004,-0.007 -0.004,-0.012zm-0.076 0.022c-0.003,0.003 -0.005,0.005 -0.008,0.006 -0.003,0.001 -0.007,0.002 -0.01,0.001 0.006,-0.001 0.012,-0.004 0.017,-0.01 0.004,-0.004 0.007,-0.01 0.009,-0.017 0,0.007 -0.002,0.014 -0.007,0.019zm-0.022 -0.004c-0.003,-0.001 -0.005,-0.004 -0.006,-0.007 -0.001,-0.004 -0.001,-0.008 0.001,-0.012 0.002,-0.004 0.004,-0.007 0.007,-0.009 0.003,-0.002 0.006,-0.003 0.009,-0.002 0.003,0.001 0.005,0.004 0.006,0.007 0.001,0.004 0.001,0.008 -0.001,0.012 -0.002,0.004 -0.004,0.007 -0.007,0.009 -0.003,0.002 -0.006,0.003 -0.009,0.002zm-0.035 -0.044c-0.004,0.006 -0.006,0.014 -0.007,0.022 0,-0.004 0,-0.007 0.001,-0.012 0.001,-0.004 0.002,-0.007 0.004,-0.011 0.004,-0.007 0.009,-0.013 0.015,-0.018 0.005,-0.004 0.013,-0.007 0.022,-0.009 0.008,-0.002 0.015,-0.003 0.023,-0.003l-0.006 0.001 -0.006 0.001c-0.004,0.001 -0.008,0.002 -0.011,0.003 -0.009,0.003 -0.016,0.006 -0.021,0.009 -0.006,0.004 -0.011,0.01 -0.015,0.017zm0.192 -0.017c-0.008,-0.008 -0.02,-0.014 -0.035,-0.018 -0.014,-0.004 -0.031,-0.007 -0.049,-0.008 -0.018,-0.001 -0.034,-0.001 -0.051,0.001 -0.017,0.002 -0.03,0.005 -0.04,0.01 -0.012,0.006 -0.022,0.015 -0.029,0.027 -0.006,0.012 -0.009,0.024 -0.008,0.038 0.001,0.014 0.006,0.026 0.015,0.037 0.01,0.012 0.024,0.02 0.041,0.024 0.005,0.001 0.009,0.004 0.011,0.007 0.002,0.003 0.003,0.007 0.003,0.013 0,0.002 0,0.004 0,0.008l0 0.004c0,0.002 0,0.003 0,0.005 0,0.008 0.001,0.014 0.003,0.02 0.002,0.008 0.007,0.014 0.013,0.018 0.006,0.004 0.013,0.005 0.021,0.004 0.008,-0.001 0.015,-0.005 0.021,-0.011 0.007,-0.007 0.011,-0.016 0.013,-0.028 0.003,-0.017 0.005,-0.029 0.007,-0.034 0.002,-0.006 0.006,-0.009 0.01,-0.009 0.019,-0.001 0.034,-0.006 0.046,-0.014 0.011,-0.007 0.018,-0.017 0.022,-0.029 0.004,-0.011 0.004,-0.022 0.001,-0.034 -0.003,-0.012 -0.009,-0.021 -0.017,-0.029z"/>
   <path id="3" class="fil2" d="M0.884 0.296c-0.002,0.003 -0.004,0.005 -0.007,0.006 -0.003,0.002 -0.006,0.002 -0.009,0.002 0.006,-0.002 0.01,-0.005 0.013,-0.01 0.003,-0.004 0.005,-0.009 0.006,-0.016 0.001,0.006 0,0.012 -0.004,0.017zm-0.032 -0.015c-0.001,-0.004 0,-0.007 0.002,-0.01 0.002,-0.003 0.004,-0.005 0.008,-0.005 0.003,-0.001 0.006,0 0.009,0.003 0.003,0.002 0.004,0.005 0.005,0.009 0.001,0.004 0,0.007 -0.002,0.01 -0.002,0.003 -0.004,0.005 -0.008,0.005 -0.003,0.001 -0.006,-0 -0.009,-0.003 -0.003,-0.002 -0.004,-0.005 -0.005,-0.009zm-0.008 -0.116c-0.008,0.003 -0.015,0.007 -0.021,0.013 -0.006,0.005 -0.011,0.012 -0.015,0.019l-0.001 0.003 -0.002 0.003 -0.003 0.006 -0.002 0.006 -0.002 0.006c0.002,-0.008 0.005,-0.016 0.008,-0.024 0.004,-0.008 0.009,-0.015 0.015,-0.02 0.007,-0.006 0.014,-0.011 0.022,-0.013 0.004,-0.001 0.008,-0.002 0.012,-0.003l0.003 -0 0.003 -0 0.006 0c-0.009,0.001 -0.017,0.003 -0.024,0.005zm0.051 -0.014c-0.031,-0.008 -0.057,-0.003 -0.078,0.015 -0.018,0.016 -0.03,0.038 -0.034,0.067 -0.004,0.028 -0.001,0.055 0.01,0.079 0.012,0.026 0.03,0.043 0.054,0.049 0.023,0.006 0.045,0 0.065,-0.018 0.019,-0.017 0.032,-0.039 0.04,-0.067 0.008,-0.029 0.008,-0.054 -0.001,-0.077 -0.01,-0.026 -0.028,-0.042 -0.056,-0.049z"/>
   <path id="4" class="fil2" d="M1.074 0.237c-0.001,0.003 -0.003,0.006 -0.005,0.008 -0.002,0.002 -0.005,0.004 -0.008,0.005 -0.003,0.001 -0.006,0.001 -0.009,0.001 0.003,-0.001 0.006,-0.002 0.008,-0.003 0.003,-0.001 0.005,-0.003 0.006,-0.005 0.004,-0.004 0.007,-0.009 0.009,-0.015 0,0.003 -0,0.006 -0.001,0.009zm-0.027 -0.013c0.002,-0.003 0.004,-0.005 0.006,-0.006 0.003,-0.001 0.005,-0.001 0.007,-0 0.002,0.001 0.003,0.003 0.004,0.006 0,0.003 -0,0.006 -0.002,0.009 -0.001,0.003 -0.004,0.005 -0.006,0.006 -0.003,0.001 -0.005,0.001 -0.007,0 -0.002,-0.001 -0.003,-0.003 -0.004,-0.006 -0,-0.003 0,-0.006 0.002,-0.009zm-0.023 -0.06c-0.007,0.003 -0.013,0.007 -0.018,0.013 -0.005,0.005 -0.009,0.011 -0.012,0.018 -0.003,0.006 -0.005,0.013 -0.008,0.021 0,-0.003 0.001,-0.007 0.002,-0.011 0.001,-0.004 0.002,-0.007 0.004,-0.011 0.003,-0.007 0.007,-0.014 0.012,-0.019 0.005,-0.006 0.012,-0.01 0.019,-0.013 0.003,-0.001 0.007,-0.002 0.011,-0.003 0.004,-0.001 0.008,-0.001 0.011,-0.001 -0.008,0.001 -0.016,0.003 -0.021,0.006zm0.028 -0.018c-0.02,-0 -0.037,0.005 -0.05,0.017 -0.012,0.01 -0.02,0.024 -0.025,0.042 -0.004,0.017 -0.006,0.035 -0.003,0.055 0.002,0.019 0.007,0.037 0.015,0.054 0.007,0.016 0.016,0.028 0.025,0.037 0.008,0.008 0.016,0.012 0.024,0.012 0.007,0.001 0.014,-0.001 0.019,-0.007 0.005,-0.005 0.009,-0.012 0.01,-0.02 0.001,-0.006 0.001,-0.013 -0,-0.02 -0,-0.002 -0.001,-0.005 -0.002,-0.009l-0.001 -0.004c-0,-0.001 -0.001,-0.003 -0.001,-0.004 -0.001,-0.006 -0.001,-0.01 0,-0.014 0.001,-0.004 0.004,-0.007 0.009,-0.01 0.016,-0.008 0.029,-0.019 0.037,-0.034 0.008,-0.014 0.011,-0.028 0.009,-0.043 -0.002,-0.015 -0.008,-0.027 -0.019,-0.037 -0.012,-0.01 -0.028,-0.016 -0.047,-0.016z"/>
   <path id="5" class="fil2" d="M1.303 0.162c-0.002,0.002 -0.005,0.004 -0.007,0.007 -0.003,0.004 -0.007,0.009 -0.012,0.016l-0.003 0.004 -0.003 0.004c-0.002,0.003 -0.005,0.006 -0.007,0.008 -0.003,0.003 -0.006,0.004 -0.009,0.006 -0.004,0.002 -0.007,0.002 -0.01,0.002 0.006,-0.001 0.012,-0.004 0.017,-0.009 0.002,-0.002 0.004,-0.005 0.006,-0.008l0.003 -0.004 0.003 -0.004c0.005,-0.007 0.009,-0.013 0.013,-0.016 0.003,-0.003 0.006,-0.005 0.008,-0.006 0.003,-0.002 0.007,-0.003 0.01,-0.002 -0.004,0 -0.007,0.001 -0.009,0.003zm-0.122 0.014c-0.004,0.005 -0.007,0.01 -0.01,0.017 -0.002,0.004 -0.005,0.01 -0.008,0.019 -0.001,0.003 -0.002,0.006 -0.003,0.01l-0.002 0.005 -0.002 0.005c0.003,-0.014 0.007,-0.027 0.013,-0.039 0.004,-0.007 0.007,-0.013 0.012,-0.017 0.002,-0.003 0.005,-0.005 0.008,-0.007 0.003,-0.002 0.007,-0.003 0.01,-0.002 -0.006,0.001 -0.011,0.004 -0.016,0.01zm0.184 0.075c-0.001,-0.03 -0.007,-0.055 -0.016,-0.074 -0.009,-0.018 -0.02,-0.028 -0.032,-0.029 -0.009,-0.001 -0.017,0.001 -0.025,0.007 -0.006,0.005 -0.013,0.014 -0.022,0.027 -0.008,0.012 -0.014,0.017 -0.02,0.016 -0.004,-0.001 -0.008,-0.005 -0.014,-0.014 -0.006,-0.01 -0.012,-0.017 -0.018,-0.022 -0.007,-0.006 -0.015,-0.009 -0.023,-0.008 -0.021,0.002 -0.038,0.027 -0.051,0.074 -0.008,0.03 -0.012,0.058 -0.01,0.082 0.002,0.027 0.01,0.043 0.025,0.046 0.009,0.002 0.016,-0 0.023,-0.006 0.005,-0.005 0.01,-0.012 0.014,-0.022 0.001,-0.003 0.003,-0.008 0.005,-0.013l0.001 -0.003 0.001 -0.003c0.001,-0.002 0.001,-0.004 0.002,-0.006 0.003,-0.008 0.006,-0.012 0.009,-0.013 0.002,-0.001 0.004,0.001 0.006,0.005 0.001,0.001 0.001,0.003 0.002,0.006l0.001 0.002 0.001 0.002 0.001 0.004c0.003,0.006 0.005,0.011 0.008,0.014 0.004,0.004 0.009,0.007 0.015,0.007 0.004,0 0.008,-0.002 0.012,-0.005 0.003,-0.002 0.006,-0.006 0.009,-0.011l0.002 -0.003 0.002 -0.003c0.001,-0.002 0.003,-0.004 0.004,-0.005 0.003,-0.003 0.005,-0.004 0.008,-0.003 0.002,0.001 0.005,0.005 0.007,0.012 0.001,0.001 0.001,0.003 0.002,0.005l0.001 0.003 0.001 0.003c0.002,0.005 0.003,0.009 0.004,0.012 0.004,0.009 0.008,0.016 0.012,0.021 0.006,0.006 0.012,0.01 0.02,0.01 0.014,0 0.023,-0.01 0.029,-0.032 0.005,-0.019 0.007,-0.046 0.005,-0.081z"/>
   <path id="6" class="fil2" d="M1.486 0.281c-0.002,0.002 -0.004,0.003 -0.007,0.003 -0.003,0.001 -0.005,0.001 -0.007,0 0.005,-0.001 0.009,-0.003 0.012,-0.006 0.003,-0.002 0.006,-0.006 0.009,-0.01 -0.001,0.005 -0.003,0.009 -0.007,0.012zm-0.016 -0.009c-0.002,-0.001 -0.004,-0.003 -0.005,-0.006 -0.001,-0.003 -0.001,-0.006 0.001,-0.009 0.001,-0.003 0.003,-0.005 0.006,-0.007 0.003,-0.001 0.005,-0.002 0.007,-0.001 0.002,0.001 0.004,0.003 0.005,0.006 0.001,0.003 0,0.006 -0.001,0.009 -0.001,0.003 -0.003,0.005 -0.006,0.007 -0.003,0.002 -0.005,0.002 -0.007,0.001zm-0.024 -0.081c-0.004,0.005 -0.008,0.012 -0.014,0.021 -0.002,0.003 -0.004,0.007 -0.006,0.011l-0.006 0.011c0.003,-0.007 0.006,-0.015 0.011,-0.023 0.004,-0.007 0.008,-0.015 0.013,-0.022 0.006,-0.008 0.011,-0.015 0.017,-0.019l0.002 -0.002c0.001,-0.001 0.002,-0.001 0.002,-0.002l0.003 -0.002 0.003 -0.002c0.005,-0.002 0.009,-0.004 0.012,-0.003 -0.003,0 -0.007,0.002 -0.012,0.005l-0.002 0.002 -0.002 0.002c-0.001,0.001 -0.001,0.001 -0.002,0.002l-0.002 0.002c-0.005,0.005 -0.01,0.012 -0.016,0.019zm0.04 -0.044c-0.013,-0.002 -0.028,0.007 -0.044,0.027 -0.015,0.018 -0.028,0.041 -0.04,0.07 -0.012,0.028 -0.018,0.053 -0.02,0.075 -0.002,0.024 0.003,0.038 0.014,0.042 0.009,0.003 0.017,0.003 0.025,-0 0.006,-0.003 0.012,-0.007 0.019,-0.015 0.001,-0.001 0.003,-0.003 0.004,-0.005l0.004 -0.005c0.003,-0.004 0.006,-0.007 0.007,-0.008 0.005,-0.006 0.01,-0.008 0.013,-0.008 0.004,0 0.008,0.003 0.014,0.008 0.002,0.002 0.004,0.004 0.008,0.008l0.004 0.004 0.004 0.004c0.007,0.007 0.013,0.011 0.019,0.014 0.007,0.003 0.015,0.003 0.022,-0 0.009,-0.004 0.014,-0.017 0.015,-0.039 0.001,-0.02 -0.001,-0.044 -0.007,-0.07 -0.006,-0.027 -0.014,-0.05 -0.024,-0.068 -0.012,-0.021 -0.024,-0.032 -0.037,-0.034z"/>
   <path id="7" class="fil2" d="M1.707 0.172c-0.002,0.002 -0.004,0.005 -0.005,0.009 -0.001,0.002 -0.002,0.005 -0.003,0.01l-0.003 0.01c-0,-0.003 0,-0.007 0.001,-0.011 0.001,-0.004 0.002,-0.007 0.003,-0.011 0.002,-0.004 0.004,-0.007 0.006,-0.009 0.003,-0.003 0.006,-0.004 0.01,-0.004 -0.003,0.001 -0.006,0.002 -0.008,0.005zm-0.036 0.106c-0.002,0.002 -0.005,0.003 -0.007,0.003 -0.003,0.001 -0.005,0.001 -0.007,0 0.003,-0.001 0.005,-0.001 0.007,-0.002 0.002,-0.001 0.004,-0.002 0.006,-0.004 0.002,-0.001 0.003,-0.003 0.005,-0.005l0.003 -0.003 0.003 -0.003c-0.002,0.005 -0.004,0.009 -0.008,0.012zm-0.056 -0.116c-0.002,0.002 -0.004,0.004 -0.006,0.005 -0.003,0.004 -0.006,0.008 -0.009,0.013 -0.002,0.004 -0.004,0.009 -0.007,0.015l-0.003 0.008 -0.003 0.008c0.002,-0.011 0.005,-0.022 0.01,-0.031 0.003,-0.006 0.006,-0.01 0.01,-0.014 0.002,-0.002 0.004,-0.003 0.007,-0.005 0.003,-0.001 0.006,-0.002 0.008,-0.002 -0.003,0.001 -0.005,0.002 -0.008,0.003zm0.134 0.148c-0.006,-0.002 -0.009,-0.007 -0.008,-0.016 0,-0.003 0.001,-0.007 0.002,-0.013l0.001 -0.007c0.001,-0.003 0.001,-0.005 0.001,-0.007 0.004,-0.034 0.006,-0.058 0.004,-0.072 -0.002,-0.022 -0.01,-0.035 -0.024,-0.039 -0.01,-0.003 -0.019,-0.001 -0.026,0.006 -0.007,0.008 -0.012,0.02 -0.014,0.037 -0.005,0.046 -0.014,0.069 -0.027,0.069 -0.015,0 -0.016,-0.019 -0.005,-0.057 0.006,-0.02 0.005,-0.036 -0,-0.048 -0.006,-0.012 -0.015,-0.018 -0.029,-0.017 -0.014,0 -0.026,0.011 -0.036,0.031 -0.009,0.019 -0.015,0.044 -0.017,0.073 -0.002,0.029 0.001,0.052 0.008,0.07 0.006,0.013 0.015,0.024 0.027,0.032 0.01,0.007 0.022,0.01 0.037,0.011 0.005,0 0.013,0 0.021,-0l0.006 -0 0.006 -0c0.005,-0 0.01,-0.001 0.013,-0.001 0.005,-0 0.009,0.001 0.012,0.003 0.002,0.002 0.004,0.004 0.007,0.009l0.002 0.002 0.002 0.002c0.001,0.002 0.003,0.004 0.004,0.005 0.004,0.003 0.008,0.006 0.013,0.007 0.009,0.002 0.018,0 0.025,-0.007 0.007,-0.006 0.012,-0.015 0.015,-0.026 0.003,-0.011 0.003,-0.021 0,-0.03 -0.003,-0.01 -0.009,-0.016 -0.018,-0.019z"/>
   <path id="8" class="fil2" d="M1.903 0.172c-0.003,0.003 -0.005,0.007 -0.008,0.011 -0.005,0.007 -0.009,0.016 -0.012,0.024l-0.002 0.006 -0.002 0.006c-0.002,0.006 -0.004,0.01 -0.005,0.013 -0.002,0.006 -0.005,0.01 -0.007,0.012 -0.002,0.002 -0.004,0.003 -0.006,0.004 -0.002,0.001 -0.004,0.001 -0.007,0.001 0.003,-0 0.005,-0.001 0.007,-0.001 0.002,-0.001 0.003,-0.002 0.005,-0.004 0.002,-0.003 0.004,-0.006 0.006,-0.012l0.002 -0.007 0.002 -0.006c0.002,-0.005 0.003,-0.01 0.005,-0.013 0.004,-0.009 0.008,-0.017 0.013,-0.024 0.007,-0.009 0.013,-0.015 0.02,-0.019 -0.004,0.002 -0.007,0.006 -0.01,0.009zm-0.1 0.035c-0.001,0.006 -0.003,0.014 -0.004,0.022l-0.001 0.011 -0.001 0.011c-0.001,-0.022 0.002,-0.042 0.008,-0.059 0.001,-0.003 0.002,-0.006 0.003,-0.009 0.002,-0.004 0.004,-0.007 0.005,-0.009 0.005,-0.007 0.011,-0.01 0.017,-0.01 -0.008,0.001 -0.014,0.006 -0.019,0.017 -0.002,0.004 -0.003,0.008 -0.005,0.014 -0.001,0.002 -0.001,0.004 -0.002,0.006l-0.001 0.003 -0 0.001 -0 0.001zm0.139 -0.054c-0.012,-0.007 -0.025,-0.007 -0.038,0.002 -0.01,0.007 -0.02,0.018 -0.028,0.034 -0.003,0.005 -0.005,0.011 -0.008,0.018 -0.001,0.002 -0.002,0.005 -0.003,0.009l-0.001 0.004 -0.001 0.002 -0.001 0.002c-0.002,0.006 -0.003,0.009 -0.005,0.012 -0.001,0.003 -0.003,0.004 -0.004,0.004 -0.003,-0 -0.004,-0.002 -0.004,-0.006 -0,-0.003 0.001,-0.011 0.002,-0.023 0.003,-0.022 0.002,-0.038 -0.004,-0.047 -0.005,-0.007 -0.013,-0.01 -0.023,-0.009 -0.013,0.002 -0.023,0.014 -0.031,0.036 -0.007,0.022 -0.01,0.049 -0.009,0.08 0.002,0.058 0.019,0.089 0.051,0.094 0.01,0.001 0.019,-0.001 0.028,-0.007 0.009,-0.005 0.016,-0.013 0.023,-0.022 0.005,-0.008 0.01,-0.016 0.014,-0.023 0.001,-0.003 0.003,-0.005 0.004,-0.008 0.001,-0.002 0.002,-0.004 0.003,-0.006 0.002,-0.004 0.003,-0.006 0.003,-0.006 0.001,-0.001 0.002,-0.001 0.003,-0.001 0.001,0 0.001,0.005 0,0.013l-0 0.003 -0 0.003c-0,0.003 -0.001,0.005 -0.001,0.006 -0.001,0.005 -0.001,0.01 -0.001,0.014 -0.001,0.025 0.008,0.037 0.026,0.037 0.012,-0 0.021,-0.01 0.027,-0.03 0.006,-0.018 0.009,-0.04 0.009,-0.067 0,-0.026 -0.003,-0.05 -0.008,-0.071 -0.006,-0.023 -0.014,-0.038 -0.024,-0.044z"/>
   <path id="9" class="fil2" d="M2.09 0.246c-0.002,0.003 -0.005,0.004 -0.007,0.006 -0.003,0.001 -0.006,0.002 -0.009,0.001 0.006,-0.001 0.011,-0.004 0.014,-0.009 0.003,-0.004 0.006,-0.009 0.007,-0.015 0.001,0.006 0,0.012 -0.004,0.017zm-0.027 -0.016c-0,-0.003 0.001,-0.006 0.003,-0.008 0.002,-0.002 0.004,-0.004 0.007,-0.004 0.003,-0 0.005,0.001 0.007,0.003 0.002,0.002 0.003,0.005 0.003,0.008 0,0.003 -0.001,0.006 -0.003,0.008 -0.002,0.002 -0.004,0.004 -0.007,0.004 -0.003,0 -0.005,-0.001 -0.007,-0.003 -0.002,-0.002 -0.003,-0.005 -0.003,-0.008zm-0.012 -0.065c-0.006,0.003 -0.012,0.007 -0.016,0.011 -0.004,0.004 -0.008,0.01 -0.01,0.016 -0.001,0.003 -0.002,0.006 -0.003,0.009 -0.001,0.002 -0.001,0.006 -0.002,0.01 -0.001,-0.007 0,-0.013 0.002,-0.02 0.002,-0.006 0.005,-0.012 0.01,-0.017 0.005,-0.005 0.01,-0.008 0.017,-0.011 0.006,-0.002 0.013,-0.004 0.019,-0.004l-0.005 0.001c-0.002,0 -0.003,0.001 -0.005,0.001 -0.003,0.001 -0.006,0.002 -0.009,0.003zm-0.039 0.136c-0.006,0.008 -0.009,0.016 -0.011,0.023 -0,-0.004 0.001,-0.009 0.002,-0.013 0.001,-0.004 0.003,-0.007 0.006,-0.012 0.003,-0.004 0.005,-0.007 0.008,-0.01 0.003,-0.003 0.006,-0.006 0.01,-0.008l-0.004 0.005 -0.004 0.005c-0.003,0.004 -0.006,0.007 -0.008,0.01zm0.056 -0.154c-0.015,0.002 -0.027,0.006 -0.037,0.015 -0.009,0.007 -0.015,0.017 -0.019,0.028 -0.003,0.011 -0.004,0.022 -0.002,0.034 0.003,0.012 0.008,0.023 0.016,0.033 0.002,0.002 0.002,0.004 0.001,0.006 -0.001,0.002 -0.003,0.004 -0.006,0.007l-0.001 0.001 -0.001 0.001c-0.001,0.001 -0.002,0.002 -0.003,0.002 -0.002,0.002 -0.004,0.004 -0.006,0.006 -0.005,0.005 -0.009,0.011 -0.013,0.017 -0.006,0.01 -0.008,0.019 -0.008,0.028 0,0.008 0.002,0.015 0.006,0.021 0.004,0.006 0.009,0.01 0.015,0.013 0.006,0.003 0.012,0.004 0.018,0.003 0.014,-0.003 0.024,-0.011 0.031,-0.024 0.001,-0.002 0.002,-0.005 0.004,-0.008l0.001 -0.004 0.001 -0.004c0.002,-0.006 0.005,-0.01 0.007,-0.013 0.004,-0.004 0.006,-0.005 0.008,-0.002 0.003,0.003 0.004,0.013 0.005,0.028 0,0.008 0.003,0.015 0.008,0.02 0.005,0.005 0.011,0.007 0.018,0.006 0.007,-0 0.014,-0.003 0.02,-0.008 0.007,-0.006 0.012,-0.014 0.016,-0.025 0.006,-0.018 0.009,-0.037 0.009,-0.059 0,-0.022 -0.003,-0.043 -0.009,-0.061 -0.007,-0.02 -0.016,-0.036 -0.028,-0.047 -0.014,-0.012 -0.031,-0.017 -0.05,-0.015z"/>
  </g>
 </g>
</svg>
