<?xml version="1.0" encoding="UTF-8"?>
<!DOCTYPE svg PUBLIC "-//W3C//DTD SVG 1.1//EN" "http://www.w3.org/Graphics/SVG/1.1/DTD/svg11.dtd">
<!-- Creator: CorelDRAW 2019 (64-Bit) -->
<svg xmlns="http://www.w3.org/2000/svg" xml:space="preserve" width="1.10598cm" height="0.23811cm" version="1.1" style="shape-rendering:geometricPrecision; text-rendering:geometricPrecision; image-rendering:optimizeQuality; fill-rule:evenodd; clip-rule:evenodd"
viewBox="0 0 2.292 0.494"
 xmlns:xlink="http://www.w3.org/1999/xlink"
 xmlns:xodm="http://www.corel.com/coreldraw/odm/2003">
 <defs>
  <style type="text/css">
   <![CDATA[
    .fil0 {fill:#EFF0AB}
    .fil2 {fill:#EF7F1A;fill-rule:nonzero}
    .fil1 {fill:#BAC245;fill-rule:nonzero}
   ]]>
  </style>
 </defs>
 <g id="Слой_x0020_1">
  <metadata id="CorelCorpID_0Corel-Layer"/>
  <path class="fil0" d="M0.211 0l1.871 0c0.116,0 0.211,0.095 0.211,0.211l0 0.072c0,0.116 -0.095,0.211 -0.211,0.211l-1.871 0c-0.116,0 -0.211,-0.095 -0.211,-0.211l0 -0.072c0,-0.116 0.095,-0.211 0.211,-0.211z"/>
  <g id="_2969020405088">
   <path class="fil1" d="M0.628 0.164c-0.003,0.003 -0.005,0.007 -0.008,0.011 -0.005,0.008 -0.009,0.016 -0.012,0.024l-0.002 0.006 -0.002 0.007c-0.002,0.006 -0.004,0.01 -0.005,0.013 -0.002,0.006 -0.005,0.01 -0.007,0.012 -0.002,0.002 -0.004,0.003 -0.006,0.004 -0.002,0.001 -0.004,0.001 -0.007,0.001 0.003,-0 0.005,-0.001 0.007,-0.001 0.002,-0.001 0.003,-0.002 0.005,-0.004 0.002,-0.003 0.004,-0.007 0.006,-0.012l0.002 -0.007 0.002 -0.007c0.002,-0.005 0.003,-0.01 0.005,-0.013 0.004,-0.009 0.008,-0.017 0.013,-0.024 0.007,-0.009 0.013,-0.015 0.02,-0.019 -0.004,0.002 -0.007,0.006 -0.01,0.009zm-0.1 0.035c-0.001,0.006 -0.003,0.014 -0.004,0.022l-0.001 0.011 -0.001 0.011c-0.001,-0.022 0.002,-0.042 0.008,-0.059 0.001,-0.003 0.002,-0.007 0.003,-0.009 0.002,-0.004 0.004,-0.007 0.005,-0.009 0.005,-0.007 0.011,-0.01 0.017,-0.01 -0.008,0.001 -0.014,0.006 -0.019,0.017 -0.002,0.004 -0.003,0.008 -0.005,0.014 -0.001,0.002 -0.001,0.004 -0.002,0.007l-0.001 0.003 -0 0.001 -0 0.001zm0.139 -0.054c-0.012,-0.007 -0.025,-0.007 -0.038,0.002 -0.01,0.007 -0.02,0.018 -0.028,0.034 -0.003,0.005 -0.005,0.011 -0.008,0.018 -0.001,0.002 -0.002,0.005 -0.003,0.009l-0.001 0.004 -0.001 0.002 -0.001 0.002c-0.002,0.006 -0.003,0.009 -0.005,0.012 -0.001,0.003 -0.003,0.004 -0.004,0.004 -0.003,-0 -0.004,-0.002 -0.004,-0.006 -0,-0.003 0.001,-0.011 0.002,-0.023 0.003,-0.022 0.002,-0.038 -0.004,-0.047 -0.005,-0.007 -0.013,-0.01 -0.023,-0.009 -0.013,0.002 -0.023,0.014 -0.031,0.037 -0.007,0.022 -0.01,0.049 -0.009,0.08 0.002,0.058 0.019,0.089 0.052,0.094 0.01,0.001 0.019,-0.001 0.028,-0.007 0.009,-0.005 0.016,-0.013 0.023,-0.022 0.005,-0.008 0.01,-0.016 0.014,-0.023 0.001,-0.003 0.003,-0.005 0.004,-0.008 0.001,-0.002 0.002,-0.004 0.003,-0.006 0.002,-0.004 0.003,-0.006 0.003,-0.007 0.001,-0.001 0.002,-0.001 0.003,-0.001 0.001,0 0.001,0.005 0,0.013l-0 0.003 -0 0.003c-0,0.003 -0.001,0.005 -0.001,0.006 -0.001,0.005 -0.001,0.01 -0.001,0.014 -0.001,0.025 0.008,0.037 0.026,0.037 0.012,-0 0.021,-0.01 0.027,-0.03 0.006,-0.018 0.009,-0.04 0.009,-0.067 0,-0.026 -0.003,-0.05 -0.008,-0.072 -0.006,-0.023 -0.014,-0.038 -0.024,-0.044z"/>
   <path id="1" class="fil1" d="M0.824 0.287c-0.002,0.003 -0.004,0.006 -0.007,0.008 -0.003,0.002 -0.007,0.002 -0.01,0.002 0.003,-0.001 0.006,-0.002 0.009,-0.004 0.003,-0.002 0.005,-0.004 0.006,-0.007 0.003,-0.005 0.003,-0.012 0.001,-0.019 0.002,0.003 0.003,0.006 0.003,0.01 0,0.004 -0,0.007 -0.002,0.01zm-0.028 -0.009c-0.002,-0.003 -0.002,-0.006 -0.002,-0.009 0,-0.003 0.002,-0.005 0.004,-0.006 0.002,-0.001 0.004,-0.001 0.007,0 0.003,0.001 0.005,0.003 0.007,0.006 0.002,0.003 0.002,0.006 0.002,0.009 -0,0.003 -0.002,0.005 -0.004,0.006 -0.002,0.001 -0.004,0.001 -0.007,0 -0.003,-0.001 -0.005,-0.003 -0.007,-0.006zm-0.013 -0.063c0.002,-0.001 0.005,-0.001 0.007,-0.003 0.002,-0.001 0.004,-0.003 0.005,-0.004 0.001,-0.002 0.003,-0.003 0.004,-0.006 0.001,-0.002 0.002,-0.004 0.003,-0.007 0.001,0.005 -0.001,0.01 -0.005,0.014 -0.002,0.002 -0.004,0.003 -0.007,0.004 -0.003,0.001 -0.005,0.001 -0.008,0.001zm-0.003 -0.022c0.001,-0.002 0.003,-0.003 0.004,-0.004 0.002,-0.001 0.003,-0.001 0.005,0 0.001,0.001 0.002,0.002 0.002,0.004 0,0.002 -0,0.004 -0.001,0.006 -0.001,0.002 -0.003,0.003 -0.004,0.004 -0.002,0.001 -0.003,0.001 -0.005,0 -0.001,-0.001 -0.002,-0.002 -0.002,-0.004 -0,-0.002 0,-0.004 0.001,-0.006zm-0.026 -0.027c-0.002,0.002 -0.005,0.006 -0.007,0.009 -0.004,0.006 -0.007,0.013 -0.011,0.021 -0.002,0.007 -0.005,0.014 -0.007,0.023 0.001,-0.008 0.002,-0.016 0.005,-0.024 0.003,-0.008 0.006,-0.015 0.01,-0.022 0.005,-0.008 0.011,-0.013 0.017,-0.017 0.004,-0.002 0.008,-0.004 0.011,-0.005 0.004,-0.001 0.008,-0.001 0.012,-0.001 -0.008,0.001 -0.016,0.003 -0.022,0.008 -0.003,0.002 -0.006,0.005 -0.009,0.008zm0.065 0.058c-0.002,-0.001 -0.002,-0.002 -0.001,-0.005 0,-0.001 0.001,-0.002 0.002,-0.004l0.001 -0.001 0.001 -0.001c0.001,-0.001 0.001,-0.002 0.002,-0.003 0.003,-0.005 0.005,-0.011 0.006,-0.016 0.002,-0.007 0.002,-0.015 0,-0.022 -0.001,-0.008 -0.006,-0.016 -0.015,-0.022 -0.008,-0.006 -0.018,-0.009 -0.029,-0.01 -0.012,-0 -0.023,0.003 -0.033,0.01 -0.011,0.008 -0.021,0.02 -0.027,0.037 -0.007,0.017 -0.011,0.036 -0.011,0.056 -0.001,0.021 0.002,0.039 0.008,0.057 0.007,0.019 0.017,0.033 0.03,0.043 0.015,0.011 0.032,0.016 0.053,0.015 0.02,-0.001 0.035,-0.008 0.047,-0.019 0.011,-0.01 0.016,-0.023 0.017,-0.039 0.001,-0.015 -0.003,-0.029 -0.011,-0.043 -0.009,-0.014 -0.022,-0.025 -0.039,-0.032z"/>
   <path id="2" class="fil1" d="M0.988 0.289c-0.002,0.003 -0.004,0.005 -0.007,0.006 -0.003,0.002 -0.006,0.002 -0.009,0.002 0.006,-0.002 0.01,-0.005 0.013,-0.01 0.003,-0.004 0.005,-0.009 0.006,-0.016 0.001,0.006 0,0.012 -0.004,0.017zm-0.032 -0.015c-0.001,-0.004 0,-0.007 0.002,-0.01 0.002,-0.003 0.004,-0.005 0.008,-0.005 0.003,-0.001 0.006,0 0.009,0.003 0.003,0.002 0.004,0.005 0.005,0.009 0.001,0.004 0,0.007 -0.002,0.01 -0.002,0.003 -0.004,0.005 -0.008,0.005 -0.003,0.001 -0.006,-0 -0.009,-0.003 -0.003,-0.002 -0.004,-0.005 -0.005,-0.009zm-0.008 -0.116c-0.008,0.003 -0.015,0.007 -0.021,0.013 -0.006,0.005 -0.011,0.012 -0.015,0.019l-0.001 0.003 -0.002 0.003 -0.003 0.006 -0.002 0.006 -0.002 0.006c0.002,-0.008 0.005,-0.016 0.008,-0.024 0.004,-0.008 0.009,-0.015 0.015,-0.02 0.007,-0.006 0.014,-0.011 0.022,-0.013 0.004,-0.001 0.008,-0.002 0.012,-0.003l0.003 -0 0.003 -0 0.006 0c-0.009,0.001 -0.017,0.003 -0.024,0.005zm0.051 -0.014c-0.031,-0.008 -0.057,-0.003 -0.078,0.015 -0.018,0.016 -0.03,0.038 -0.034,0.068 -0.004,0.028 -0.001,0.055 0.01,0.079 0.012,0.026 0.03,0.043 0.054,0.049 0.023,0.006 0.045,0 0.065,-0.018 0.019,-0.017 0.032,-0.039 0.04,-0.067 0.008,-0.029 0.008,-0.055 -0.001,-0.077 -0.01,-0.026 -0.028,-0.042 -0.056,-0.049z"/>
   <path id="3" class="fil1" d="M1.179 0.23c-0.001,0.003 -0.003,0.006 -0.005,0.008 -0.002,0.002 -0.005,0.004 -0.008,0.005 -0.003,0.001 -0.006,0.001 -0.009,0.001 0.003,-0.001 0.006,-0.002 0.008,-0.003 0.003,-0.001 0.005,-0.003 0.007,-0.005 0.004,-0.004 0.007,-0.009 0.009,-0.015 0,0.003 -0,0.006 -0.001,0.009zm-0.027 -0.013c0.002,-0.003 0.004,-0.005 0.006,-0.007 0.003,-0.001 0.005,-0.001 0.007,-0 0.002,0.001 0.003,0.003 0.004,0.006 0,0.003 -0,0.006 -0.002,0.009 -0.001,0.003 -0.004,0.005 -0.006,0.007 -0.003,0.001 -0.005,0.001 -0.007,0 -0.002,-0.001 -0.003,-0.003 -0.004,-0.006 -0,-0.003 0,-0.006 0.002,-0.009zm-0.023 -0.06c-0.007,0.003 -0.013,0.008 -0.018,0.013 -0.005,0.005 -0.009,0.011 -0.012,0.018 -0.003,0.006 -0.005,0.013 -0.008,0.021 0,-0.003 0.001,-0.007 0.002,-0.011 0.001,-0.004 0.002,-0.007 0.004,-0.011 0.003,-0.007 0.007,-0.014 0.012,-0.019 0.005,-0.006 0.012,-0.01 0.019,-0.013 0.004,-0.001 0.007,-0.002 0.011,-0.003 0.004,-0.001 0.008,-0.001 0.011,-0.001 -0.008,0.001 -0.016,0.003 -0.022,0.006zm0.028 -0.018c-0.02,-0 -0.037,0.005 -0.05,0.017 -0.012,0.01 -0.02,0.024 -0.025,0.043 -0.004,0.017 -0.006,0.035 -0.003,0.055 0.002,0.019 0.007,0.037 0.015,0.054 0.007,0.016 0.016,0.028 0.025,0.037 0.008,0.008 0.016,0.012 0.024,0.012 0.007,0.001 0.014,-0.001 0.019,-0.007 0.005,-0.005 0.009,-0.012 0.01,-0.02 0.001,-0.006 0.001,-0.013 -0,-0.02 -0,-0.002 -0.001,-0.005 -0.002,-0.009l-0.001 -0.004c-0,-0.001 -0.001,-0.003 -0.001,-0.004 -0.001,-0.006 -0.001,-0.01 0,-0.014 0.001,-0.004 0.004,-0.007 0.009,-0.01 0.016,-0.008 0.029,-0.019 0.037,-0.034 0.008,-0.014 0.011,-0.028 0.009,-0.043 -0.002,-0.015 -0.008,-0.027 -0.019,-0.037 -0.012,-0.01 -0.028,-0.016 -0.047,-0.016z"/>
   <path id="4" class="fil1" d="M1.292 0.154c-0.007,0.001 -0.013,0.002 -0.017,0.004 -0.007,0.002 -0.012,0.004 -0.016,0.007 -0.003,0.002 -0.005,0.004 -0.006,0.006 -0.002,0.002 -0.003,0.005 -0.003,0.008 -0.001,-0.003 -0,-0.006 0.001,-0.009 0.001,-0.002 0.003,-0.005 0.006,-0.007 0.004,-0.003 0.01,-0.005 0.016,-0.008 0.011,-0.003 0.023,-0.004 0.036,-0.003 -0.007,0.001 -0.012,0.001 -0.018,0.002zm0.029 -0.013c-0.025,-0.001 -0.045,0.001 -0.06,0.008 -0.016,0.007 -0.024,0.017 -0.023,0.03 0.001,0.007 0.004,0.013 0.009,0.016 0.004,0.002 0.01,0.004 0.018,0.005l0.005 0 0.005 0c0.004,0 0.007,0.001 0.009,0.001 0.006,0.001 0.01,0.004 0.011,0.008 0.001,0.002 -0,0.015 -0.003,0.039 -0.001,0.012 -0.002,0.023 -0.003,0.031 -0.001,0.012 -0.001,0.023 0,0.032 0.001,0.014 0.006,0.025 0.014,0.033 0.008,0.009 0.019,0.013 0.031,0.011 0.022,-0.003 0.03,-0.024 0.024,-0.065 -0.003,-0.021 -0.005,-0.039 -0.005,-0.054 -0,-0.016 0.001,-0.025 0.005,-0.028 0.002,-0.002 0.006,-0.003 0.012,-0.003 0.002,0 0.004,0 0.008,0l0.004 0 0.004 -0c0.007,-0 0.012,-0.001 0.015,-0.003 0.005,-0.002 0.008,-0.006 0.01,-0.012 0.002,-0.007 0.001,-0.013 -0.003,-0.02 -0.004,-0.006 -0.01,-0.011 -0.019,-0.016 -0.018,-0.009 -0.041,-0.015 -0.069,-0.016z"/>
   <path id="5" class="fil1" d="M1.531 0.289c-0.002,0.003 -0.004,0.005 -0.007,0.006 -0.003,0.002 -0.006,0.002 -0.009,0.002 0.006,-0.002 0.01,-0.005 0.013,-0.01 0.003,-0.004 0.005,-0.009 0.006,-0.016 0.001,0.006 0,0.012 -0.004,0.017zm-0.032 -0.015c-0.001,-0.004 0,-0.007 0.002,-0.01 0.002,-0.003 0.004,-0.005 0.008,-0.005 0.003,-0.001 0.006,0 0.009,0.003 0.003,0.002 0.004,0.005 0.005,0.009 0.001,0.004 0,0.007 -0.002,0.01 -0.002,0.003 -0.004,0.005 -0.008,0.005 -0.003,0.001 -0.006,-0 -0.009,-0.003 -0.003,-0.002 -0.004,-0.005 -0.005,-0.009zm-0.008 -0.116c-0.008,0.003 -0.015,0.007 -0.021,0.013 -0.006,0.005 -0.011,0.012 -0.015,0.019l-0.001 0.003 -0.002 0.003 -0.003 0.006 -0.002 0.006 -0.002 0.006c0.002,-0.008 0.005,-0.016 0.008,-0.024 0.004,-0.008 0.009,-0.015 0.015,-0.02 0.007,-0.006 0.014,-0.011 0.022,-0.013 0.004,-0.001 0.008,-0.002 0.012,-0.003l0.003 -0 0.003 -0 0.006 0c-0.009,0.001 -0.017,0.003 -0.024,0.005zm0.051 -0.014c-0.031,-0.008 -0.057,-0.003 -0.078,0.015 -0.018,0.016 -0.03,0.038 -0.034,0.068 -0.004,0.028 -0.001,0.055 0.01,0.079 0.012,0.026 0.03,0.043 0.054,0.049 0.023,0.006 0.045,0 0.065,-0.018 0.019,-0.017 0.032,-0.039 0.04,-0.067 0.008,-0.029 0.008,-0.055 -0.001,-0.077 -0.01,-0.026 -0.028,-0.042 -0.056,-0.049z"/>
   <path id="6" class="fil1" d="M1.753 0.155c-0.001,0.001 -0.003,0.002 -0.004,0.003 -0.002,0.002 -0.003,0.005 -0.004,0.01 -0.001,0.006 -0.002,0.013 -0.001,0.022l0 0.003 0 0.003c0,0.002 0,0.004 -0,0.006 -0,0.004 -0.001,0.008 -0.003,0.011 -0.002,0.004 -0.004,0.007 -0.007,0.009 -0.003,0.003 -0.006,0.004 -0.01,0.005 0.007,-0.003 0.012,-0.008 0.014,-0.016 0.001,-0.003 0.002,-0.007 0.002,-0.01 0,-0.001 0,-0.003 0,-0.005l-0 -0.003 0 -0.003c-0,-0.009 0.001,-0.016 0.002,-0.022 0.001,-0.005 0.003,-0.008 0.005,-0.01 0.001,-0.002 0.003,-0.003 0.005,-0.003 0.001,-0.001 0.003,-0.001 0.005,-0.001 -0.002,0 -0.004,0.001 -0.005,0.001zm-0.102 0.004c-0.004,0.004 -0.006,0.008 -0.008,0.014 -0.002,0.005 -0.003,0.01 -0.005,0.016l-0.002 0.008 -0.002 0.008c0,-0.011 0.002,-0.022 0.006,-0.033 0.002,-0.006 0.005,-0.011 0.009,-0.015 0.002,-0.002 0.005,-0.004 0.007,-0.005 0.003,-0.001 0.006,-0.001 0.008,-0.001 -0.005,0.001 -0.01,0.003 -0.014,0.007zm0.107 -0.017c-0.01,0.001 -0.018,0.005 -0.022,0.014 -0.004,0.008 -0.006,0.021 -0.005,0.039 0,0.008 -0.001,0.013 -0.005,0.017 -0.003,0.003 -0.007,0.005 -0.012,0.004 -0.005,-0 -0.009,-0.003 -0.011,-0.006 -0.003,-0.004 -0.004,-0.009 -0.003,-0.015 0.002,-0.018 0,-0.031 -0.005,-0.04 -0.005,-0.008 -0.013,-0.013 -0.024,-0.015 -0.009,-0.001 -0.017,0.001 -0.025,0.006 -0.007,0.005 -0.012,0.013 -0.015,0.023 -0.006,0.019 -0.01,0.041 -0.01,0.067 -0,0.025 0.002,0.048 0.008,0.071 0.004,0.017 0.01,0.029 0.019,0.036 0.007,0.006 0.015,0.008 0.024,0.007 0.019,-0.003 0.028,-0.017 0.026,-0.043 -0.001,-0.019 0.003,-0.028 0.012,-0.028 0.005,0 0.008,0.002 0.011,0.005 0.003,0.005 0.005,0.012 0.004,0.022 -0.001,0.017 0.002,0.029 0.008,0.038 0.006,0.008 0.014,0.012 0.024,0.012 0.018,0 0.03,-0.011 0.038,-0.033 0.005,-0.016 0.008,-0.043 0.01,-0.08 0.001,-0.029 -0.003,-0.053 -0.011,-0.072 -0.008,-0.02 -0.02,-0.03 -0.034,-0.029z"/>
   <path class="fil2" d="M0.608 0.162c-0.003,0.003 -0.005,0.007 -0.008,0.011 -0.005,0.008 -0.009,0.016 -0.012,0.024l-0.002 0.006 -0.002 0.007c-0.002,0.006 -0.004,0.01 -0.005,0.013 -0.002,0.006 -0.005,0.01 -0.007,0.012 -0.002,0.002 -0.004,0.003 -0.006,0.004 -0.002,0.001 -0.004,0.001 -0.007,0.001 0.003,-0 0.005,-0.001 0.007,-0.001 0.002,-0.001 0.003,-0.002 0.005,-0.004 0.002,-0.003 0.004,-0.007 0.006,-0.012l0.002 -0.007 0.002 -0.007c0.002,-0.005 0.003,-0.01 0.005,-0.013 0.004,-0.009 0.008,-0.017 0.013,-0.024 0.007,-0.009 0.013,-0.015 0.02,-0.019 -0.004,0.002 -0.007,0.006 -0.01,0.009zm-0.1 0.035c-0.001,0.006 -0.003,0.014 -0.004,0.022l-0.001 0.011 -0.001 0.011c-0.001,-0.022 0.002,-0.042 0.008,-0.059 0.001,-0.003 0.002,-0.007 0.003,-0.009 0.002,-0.004 0.004,-0.007 0.005,-0.009 0.005,-0.007 0.011,-0.01 0.017,-0.01 -0.008,0.001 -0.014,0.006 -0.019,0.017 -0.002,0.004 -0.003,0.008 -0.005,0.014 -0.001,0.002 -0.001,0.004 -0.002,0.007l-0.001 0.003 -0 0.001 -0 0.001zm0.139 -0.054c-0.012,-0.007 -0.025,-0.007 -0.038,0.002 -0.01,0.007 -0.02,0.018 -0.028,0.034 -0.003,0.005 -0.005,0.011 -0.008,0.018 -0.001,0.002 -0.002,0.005 -0.003,0.009l-0.001 0.004 -0.001 0.002 -0.001 0.002c-0.002,0.006 -0.003,0.009 -0.005,0.012 -0.001,0.003 -0.003,0.004 -0.004,0.004 -0.003,-0 -0.004,-0.002 -0.004,-0.006 -0,-0.003 0.001,-0.011 0.002,-0.023 0.003,-0.022 0.002,-0.038 -0.004,-0.047 -0.005,-0.007 -0.013,-0.01 -0.023,-0.009 -0.013,0.002 -0.023,0.014 -0.031,0.037 -0.007,0.022 -0.01,0.049 -0.009,0.08 0.002,0.058 0.019,0.089 0.052,0.094 0.01,0.001 0.019,-0.001 0.028,-0.007 0.009,-0.005 0.016,-0.013 0.023,-0.022 0.005,-0.008 0.01,-0.016 0.014,-0.023 0.001,-0.003 0.003,-0.005 0.004,-0.008 0.001,-0.002 0.002,-0.004 0.003,-0.006 0.002,-0.004 0.003,-0.006 0.003,-0.007 0.001,-0.001 0.002,-0.001 0.003,-0.001 0.001,0 0.001,0.005 0,0.013l-0 0.003 -0 0.003c-0,0.003 -0.001,0.005 -0.001,0.006 -0.001,0.005 -0.001,0.01 -0.001,0.014 -0.001,0.025 0.008,0.037 0.026,0.037 0.012,-0 0.021,-0.01 0.027,-0.03 0.006,-0.018 0.009,-0.04 0.009,-0.067 0,-0.026 -0.003,-0.05 -0.008,-0.072 -0.006,-0.023 -0.014,-0.038 -0.024,-0.044z"/>
   <path id="1" class="fil2" d="M0.804 0.285c-0.002,0.003 -0.004,0.006 -0.007,0.008 -0.003,0.002 -0.007,0.002 -0.01,0.002 0.003,-0.001 0.006,-0.002 0.009,-0.004 0.003,-0.002 0.005,-0.004 0.006,-0.007 0.003,-0.005 0.003,-0.012 0.001,-0.019 0.002,0.003 0.003,0.006 0.003,0.01 0,0.004 -0,0.007 -0.002,0.01zm-0.028 -0.009c-0.002,-0.003 -0.002,-0.006 -0.002,-0.009 0,-0.003 0.002,-0.005 0.004,-0.006 0.002,-0.001 0.004,-0.001 0.007,0 0.003,0.001 0.005,0.003 0.007,0.006 0.002,0.003 0.002,0.006 0.002,0.009 -0,0.003 -0.002,0.005 -0.004,0.006 -0.002,0.001 -0.004,0.001 -0.007,0 -0.003,-0.001 -0.005,-0.003 -0.007,-0.006zm-0.013 -0.063c0.002,-0.001 0.005,-0.001 0.007,-0.003 0.002,-0.001 0.004,-0.003 0.005,-0.004 0.001,-0.002 0.003,-0.003 0.004,-0.006 0.001,-0.002 0.002,-0.004 0.003,-0.007 0.001,0.005 -0.001,0.01 -0.005,0.014 -0.002,0.002 -0.004,0.003 -0.007,0.004 -0.003,0.001 -0.005,0.001 -0.008,0.001zm-0.003 -0.022c0.001,-0.002 0.003,-0.003 0.004,-0.004 0.002,-0.001 0.003,-0.001 0.005,0 0.001,0.001 0.002,0.002 0.002,0.004 0,0.002 -0,0.004 -0.001,0.006 -0.001,0.002 -0.003,0.003 -0.004,0.004 -0.002,0.001 -0.003,0.001 -0.005,0 -0.001,-0.001 -0.002,-0.002 -0.002,-0.004 -0,-0.002 0,-0.004 0.001,-0.006zm-0.026 -0.027c-0.002,0.002 -0.005,0.006 -0.007,0.009 -0.004,0.006 -0.007,0.013 -0.011,0.021 -0.002,0.007 -0.005,0.014 -0.007,0.023 0.001,-0.008 0.002,-0.016 0.005,-0.024 0.003,-0.008 0.006,-0.015 0.01,-0.022 0.005,-0.008 0.011,-0.013 0.017,-0.017 0.004,-0.002 0.008,-0.004 0.011,-0.005 0.004,-0.001 0.008,-0.001 0.012,-0.001 -0.008,0.001 -0.016,0.003 -0.022,0.008 -0.003,0.002 -0.006,0.005 -0.009,0.008zm0.065 0.058c-0.002,-0.001 -0.002,-0.002 -0.001,-0.005 0,-0.001 0.001,-0.002 0.002,-0.004l0.001 -0.001 0.001 -0.001c0.001,-0.001 0.001,-0.002 0.002,-0.003 0.003,-0.005 0.005,-0.011 0.006,-0.016 0.002,-0.007 0.002,-0.015 0,-0.022 -0.001,-0.008 -0.006,-0.016 -0.015,-0.022 -0.008,-0.006 -0.018,-0.009 -0.029,-0.01 -0.012,-0 -0.023,0.003 -0.033,0.01 -0.011,0.008 -0.021,0.02 -0.027,0.037 -0.007,0.017 -0.011,0.036 -0.011,0.056 -0.001,0.021 0.002,0.039 0.008,0.057 0.007,0.019 0.017,0.033 0.03,0.043 0.015,0.011 0.032,0.016 0.053,0.015 0.02,-0.001 0.035,-0.008 0.047,-0.019 0.011,-0.01 0.016,-0.023 0.017,-0.039 0.001,-0.015 -0.003,-0.029 -0.011,-0.043 -0.009,-0.014 -0.022,-0.025 -0.039,-0.032z"/>
   <path id="2" class="fil2" d="M0.968 0.286c-0.002,0.003 -0.004,0.005 -0.007,0.006 -0.003,0.002 -0.006,0.002 -0.009,0.002 0.006,-0.002 0.01,-0.005 0.013,-0.01 0.003,-0.004 0.005,-0.009 0.006,-0.016 0.001,0.006 0,0.012 -0.004,0.017zm-0.032 -0.015c-0.001,-0.004 0,-0.007 0.002,-0.01 0.002,-0.003 0.004,-0.005 0.008,-0.005 0.003,-0.001 0.006,0 0.009,0.003 0.003,0.002 0.004,0.005 0.005,0.009 0.001,0.004 0,0.007 -0.002,0.01 -0.002,0.003 -0.004,0.005 -0.008,0.005 -0.003,0.001 -0.006,-0 -0.009,-0.003 -0.003,-0.002 -0.004,-0.005 -0.005,-0.009zm-0.008 -0.116c-0.008,0.003 -0.015,0.007 -0.021,0.013 -0.006,0.005 -0.011,0.012 -0.015,0.019l-0.001 0.003 -0.002 0.003 -0.003 0.006 -0.002 0.006 -0.002 0.006c0.002,-0.008 0.005,-0.016 0.008,-0.024 0.004,-0.008 0.009,-0.015 0.015,-0.02 0.007,-0.006 0.014,-0.011 0.022,-0.013 0.004,-0.001 0.008,-0.002 0.012,-0.003l0.003 -0 0.003 -0 0.006 0c-0.009,0.001 -0.017,0.003 -0.024,0.005zm0.051 -0.014c-0.031,-0.008 -0.057,-0.003 -0.078,0.015 -0.018,0.016 -0.03,0.038 -0.034,0.068 -0.004,0.028 -0.001,0.055 0.01,0.079 0.012,0.026 0.03,0.043 0.054,0.049 0.023,0.006 0.045,0 0.065,-0.018 0.019,-0.017 0.032,-0.039 0.04,-0.067 0.008,-0.029 0.008,-0.055 -0.001,-0.077 -0.01,-0.026 -0.028,-0.042 -0.056,-0.049z"/>
   <path id="3" class="fil2" d="M1.159 0.227c-0.001,0.003 -0.003,0.006 -0.005,0.008 -0.002,0.002 -0.005,0.004 -0.008,0.005 -0.003,0.001 -0.006,0.001 -0.009,0.001 0.003,-0.001 0.006,-0.002 0.008,-0.003 0.003,-0.001 0.005,-0.003 0.007,-0.005 0.004,-0.004 0.007,-0.009 0.009,-0.015 0,0.003 -0,0.006 -0.001,0.009zm-0.027 -0.013c0.002,-0.003 0.004,-0.005 0.006,-0.007 0.003,-0.001 0.005,-0.001 0.007,-0 0.002,0.001 0.003,0.003 0.004,0.006 0,0.003 -0,0.006 -0.002,0.009 -0.001,0.003 -0.004,0.005 -0.006,0.007 -0.003,0.001 -0.005,0.001 -0.007,0 -0.002,-0.001 -0.003,-0.003 -0.004,-0.006 -0,-0.003 0,-0.006 0.002,-0.009zm-0.023 -0.06c-0.007,0.003 -0.013,0.008 -0.018,0.013 -0.005,0.005 -0.009,0.011 -0.012,0.018 -0.003,0.006 -0.005,0.013 -0.008,0.021 0,-0.003 0.001,-0.007 0.002,-0.011 0.001,-0.004 0.002,-0.007 0.004,-0.011 0.003,-0.007 0.007,-0.014 0.012,-0.019 0.005,-0.006 0.012,-0.01 0.019,-0.013 0.004,-0.001 0.007,-0.002 0.011,-0.003 0.004,-0.001 0.008,-0.001 0.011,-0.001 -0.008,0.001 -0.016,0.003 -0.022,0.006zm0.028 -0.018c-0.02,-0 -0.037,0.005 -0.05,0.017 -0.012,0.01 -0.02,0.024 -0.025,0.043 -0.004,0.017 -0.006,0.035 -0.003,0.055 0.002,0.019 0.007,0.037 0.015,0.054 0.007,0.016 0.016,0.028 0.025,0.037 0.008,0.008 0.016,0.012 0.024,0.012 0.007,0.001 0.014,-0.001 0.019,-0.007 0.005,-0.005 0.009,-0.012 0.01,-0.02 0.001,-0.006 0.001,-0.013 -0,-0.02 -0,-0.002 -0.001,-0.005 -0.002,-0.009l-0.001 -0.004c-0,-0.001 -0.001,-0.003 -0.001,-0.004 -0.001,-0.006 -0.001,-0.01 0,-0.014 0.001,-0.004 0.004,-0.007 0.009,-0.01 0.016,-0.008 0.029,-0.019 0.037,-0.034 0.008,-0.014 0.011,-0.028 0.009,-0.043 -0.002,-0.015 -0.008,-0.027 -0.019,-0.037 -0.012,-0.01 -0.028,-0.016 -0.047,-0.016z"/>
   <path id="4" class="fil2" d="M1.272 0.151c-0.007,0.001 -0.013,0.002 -0.017,0.004 -0.007,0.002 -0.012,0.004 -0.016,0.007 -0.003,0.002 -0.005,0.004 -0.006,0.006 -0.002,0.002 -0.003,0.005 -0.003,0.008 -0.001,-0.003 -0,-0.006 0.001,-0.009 0.001,-0.002 0.003,-0.005 0.006,-0.007 0.004,-0.003 0.01,-0.005 0.016,-0.008 0.011,-0.003 0.023,-0.004 0.036,-0.003 -0.007,0.001 -0.012,0.001 -0.018,0.002zm0.029 -0.013c-0.025,-0.001 -0.045,0.001 -0.06,0.008 -0.016,0.007 -0.024,0.017 -0.023,0.03 0.001,0.007 0.004,0.013 0.009,0.016 0.004,0.002 0.01,0.004 0.018,0.005l0.005 0 0.005 0c0.004,0 0.007,0.001 0.009,0.001 0.006,0.001 0.01,0.004 0.011,0.008 0.001,0.002 -0,0.015 -0.003,0.039 -0.001,0.012 -0.002,0.023 -0.003,0.031 -0.001,0.012 -0.001,0.023 0,0.032 0.001,0.014 0.006,0.025 0.014,0.033 0.008,0.009 0.019,0.013 0.031,0.011 0.022,-0.003 0.03,-0.024 0.024,-0.065 -0.003,-0.021 -0.005,-0.039 -0.005,-0.054 -0,-0.016 0.001,-0.025 0.005,-0.028 0.002,-0.002 0.006,-0.003 0.012,-0.003 0.002,0 0.004,0 0.008,0l0.004 0 0.004 -0c0.007,-0 0.012,-0.001 0.015,-0.003 0.005,-0.002 0.008,-0.006 0.01,-0.012 0.002,-0.007 0.001,-0.013 -0.003,-0.02 -0.004,-0.006 -0.01,-0.011 -0.019,-0.016 -0.018,-0.009 -0.041,-0.015 -0.069,-0.016z"/>
   <path id="5" class="fil2" d="M1.511 0.286c-0.002,0.003 -0.004,0.005 -0.007,0.006 -0.003,0.002 -0.006,0.002 -0.009,0.002 0.006,-0.002 0.01,-0.005 0.013,-0.01 0.003,-0.004 0.005,-0.009 0.006,-0.016 0.001,0.006 0,0.012 -0.004,0.017zm-0.032 -0.015c-0.001,-0.004 0,-0.007 0.002,-0.01 0.002,-0.003 0.004,-0.005 0.008,-0.005 0.003,-0.001 0.006,0 0.009,0.003 0.003,0.002 0.004,0.005 0.005,0.009 0.001,0.004 0,0.007 -0.002,0.01 -0.002,0.003 -0.004,0.005 -0.008,0.005 -0.003,0.001 -0.006,-0 -0.009,-0.003 -0.003,-0.002 -0.004,-0.005 -0.005,-0.009zm-0.008 -0.116c-0.008,0.003 -0.015,0.007 -0.021,0.013 -0.006,0.005 -0.011,0.012 -0.015,0.019l-0.001 0.003 -0.002 0.003 -0.003 0.006 -0.002 0.006 -0.002 0.006c0.002,-0.008 0.005,-0.016 0.008,-0.024 0.004,-0.008 0.009,-0.015 0.015,-0.02 0.007,-0.006 0.014,-0.011 0.022,-0.013 0.004,-0.001 0.008,-0.002 0.012,-0.003l0.003 -0 0.003 -0 0.006 0c-0.009,0.001 -0.017,0.003 -0.024,0.005zm0.051 -0.014c-0.031,-0.008 -0.057,-0.003 -0.078,0.015 -0.018,0.016 -0.03,0.038 -0.034,0.068 -0.004,0.028 -0.001,0.055 0.01,0.079 0.012,0.026 0.03,0.043 0.054,0.049 0.023,0.006 0.045,0 0.065,-0.018 0.019,-0.017 0.032,-0.039 0.04,-0.067 0.008,-0.029 0.008,-0.055 -0.001,-0.077 -0.01,-0.026 -0.028,-0.042 -0.056,-0.049z"/>
   <path id="6" class="fil2" d="M1.733 0.153c-0.001,0.001 -0.003,0.002 -0.004,0.003 -0.002,0.002 -0.003,0.005 -0.004,0.01 -0.001,0.006 -0.002,0.013 -0.001,0.022l0 0.003 0 0.003c0,0.002 0,0.004 -0,0.006 -0,0.004 -0.001,0.008 -0.003,0.011 -0.002,0.004 -0.004,0.007 -0.007,0.009 -0.003,0.003 -0.006,0.004 -0.01,0.005 0.007,-0.003 0.012,-0.008 0.014,-0.016 0.001,-0.003 0.002,-0.007 0.002,-0.01 0,-0.001 0,-0.003 0,-0.005l-0 -0.003 0 -0.003c-0,-0.009 0.001,-0.016 0.002,-0.022 0.001,-0.005 0.003,-0.008 0.005,-0.01 0.001,-0.002 0.003,-0.003 0.005,-0.003 0.001,-0.001 0.003,-0.001 0.005,-0.001 -0.002,0 -0.004,0.001 -0.005,0.001zm-0.102 0.004c-0.004,0.004 -0.006,0.008 -0.008,0.014 -0.002,0.005 -0.003,0.01 -0.005,0.016l-0.002 0.008 -0.002 0.008c0,-0.011 0.002,-0.022 0.006,-0.033 0.002,-0.006 0.005,-0.011 0.009,-0.015 0.002,-0.002 0.005,-0.004 0.007,-0.005 0.003,-0.001 0.006,-0.001 0.008,-0.001 -0.005,0.001 -0.01,0.003 -0.014,0.007zm0.107 -0.017c-0.01,0.001 -0.018,0.005 -0.022,0.014 -0.004,0.008 -0.006,0.021 -0.005,0.039 0,0.008 -0.001,0.013 -0.005,0.017 -0.003,0.003 -0.007,0.005 -0.012,0.004 -0.005,-0 -0.009,-0.003 -0.011,-0.006 -0.003,-0.004 -0.004,-0.009 -0.003,-0.015 0.002,-0.018 0,-0.031 -0.005,-0.04 -0.005,-0.008 -0.013,-0.013 -0.024,-0.015 -0.009,-0.001 -0.017,0.001 -0.025,0.006 -0.007,0.005 -0.012,0.013 -0.015,0.023 -0.006,0.019 -0.01,0.041 -0.01,0.067 -0,0.025 0.002,0.048 0.008,0.071 0.004,0.017 0.01,0.029 0.019,0.036 0.007,0.006 0.015,0.008 0.024,0.007 0.019,-0.003 0.028,-0.017 0.026,-0.043 -0.001,-0.019 0.003,-0.028 0.012,-0.028 0.005,0 0.008,0.002 0.011,0.005 0.003,0.005 0.005,0.012 0.004,0.022 -0.001,0.017 0.002,0.029 0.008,0.038 0.006,0.008 0.014,0.012 0.024,0.012 0.018,0 0.03,-0.011 0.038,-0.033 0.005,-0.016 0.008,-0.043 0.01,-0.08 0.001,-0.029 -0.003,-0.053 -0.011,-0.072 -0.008,-0.02 -0.02,-0.03 -0.034,-0.029z"/>
  </g>
 </g>
</svg>
