<?xml version="1.0" encoding="UTF-8"?>
<!DOCTYPE svg PUBLIC "-//W3C//DTD SVG 1.1//EN" "http://www.w3.org/Graphics/SVG/1.1/DTD/svg11.dtd">
<!-- Creator: CorelDRAW 2019 (64-Bit) -->
<svg xmlns="http://www.w3.org/2000/svg" xml:space="preserve" width="1.30088cm" height="0.33514cm" version="1.1" style="shape-rendering:geometricPrecision; text-rendering:geometricPrecision; image-rendering:optimizeQuality; fill-rule:evenodd; clip-rule:evenodd"
viewBox="0 0 0.626 0.161"
 xmlns:xlink="http://www.w3.org/1999/xlink"
 xmlns:xodm="http://www.corel.com/coreldraw/odm/2003">
 <defs>
  <style type="text/css">
   <![CDATA[
    .fil0 {fill:#8AB7F4}
    .fil1 {fill:white;fill-rule:nonzero}
   ]]>
  </style>
 </defs>
 <g id="Слой_x0020_1">
  <metadata id="CorelCorpID_0Corel-Layer"/>
  <g id="_1784351506784">
   <rect class="fil0" width="0.626" height="0.161" rx="0.043" ry="0.041"/>
   <polygon class="fil1" points="0.229,0.123 0.229,0.048 0.201,0.048 0.201,0.038 0.268,0.038 0.268,0.048 0.24,0.048 0.24,0.123 "/>
   <path id="1" class="fil1" d="M0.271 0.082c0,-0.014 0.004,-0.025 0.011,-0.033 0.008,-0.008 0.017,-0.012 0.029,-0.012 0.008,0 0.015,0.002 0.021,0.006 0.006,0.004 0.011,0.009 0.014,0.016 0.003,0.007 0.005,0.014 0.005,0.023 0,0.009 -0.002,0.016 -0.005,0.023 -0.003,0.007 -0.008,0.012 -0.015,0.015 -0.006,0.004 -0.013,0.005 -0.021,0.005 -0.008,0 -0.015,-0.002 -0.022,-0.006 -0.006,-0.004 -0.011,-0.009 -0.014,-0.016 -0.003,-0.007 -0.005,-0.014 -0.005,-0.021zm0.012 0c0,0.01 0.003,0.018 0.008,0.024 0.006,0.006 0.012,0.009 0.021,0.009 0.008,0 0.015,-0.003 0.021,-0.009 0.005,-0.006 0.008,-0.014 0.008,-0.025 0,-0.007 -0.001,-0.013 -0.004,-0.018 -0.002,-0.005 -0.006,-0.009 -0.01,-0.012 -0.005,-0.003 -0.01,-0.004 -0.015,-0.004 -0.008,0 -0.015,0.003 -0.021,0.008 -0.006,0.005 -0.009,0.015 -0.009,0.027z"/>
   <path id="2" class="fil1" d="M0.372 0.038l0.053 0 0 0.085 -0.011 0 0 -0.075 -0.031 0 0 0.044c0,0.009 -0,0.015 -0.001,0.02 -0.001,0.004 -0.003,0.007 -0.005,0.01 -0.003,0.002 -0.006,0.003 -0.01,0.003 -0.002,0 -0.005,-0.001 -0.009,-0.002l0.002 -0.01c0.002,0.001 0.003,0.001 0.005,0.001 0.003,0 0.004,-0.001 0.006,-0.003 0.001,-0.002 0.002,-0.006 0.002,-0.014l0 -0.06z"/>
  </g>
 </g>
</svg>
