<?xml version="1.0" encoding="UTF-8"?>
<!DOCTYPE svg PUBLIC "-//W3C//DTD SVG 1.1//EN" "http://www.w3.org/Graphics/SVG/1.1/DTD/svg11.dtd">
<!-- Creator: CorelDRAW 2019 (64-Bit) -->
<svg xmlns="http://www.w3.org/2000/svg" xml:space="preserve" width="0.59796cm" height="0.23811cm" version="1.1" style="shape-rendering:geometricPrecision; text-rendering:geometricPrecision; image-rendering:optimizeQuality; fill-rule:evenodd; clip-rule:evenodd"
viewBox="0 0 0.659 0.262"
 xmlns:xlink="http://www.w3.org/1999/xlink"
 xmlns:xodm="http://www.corel.com/coreldraw/odm/2003">
 <defs>
  <style type="text/css">
   <![CDATA[
    .fil0 {fill:#EFF0AB}
    .fil2 {fill:#EF7F1A;fill-rule:nonzero}
    .fil1 {fill:#BAC245;fill-rule:nonzero}
   ]]>
  </style>
 </defs>
 <g id="Слой_x0020_1">
  <metadata id="CorelCorpID_0Corel-Layer"/>
  <path class="fil0" d="M0.112 0l0.435 0c0.062,0 0.112,0.051 0.112,0.112l0 0.038c0,0.061 -0.051,0.112 -0.112,0.112l-0.435 0c-0.061,0 -0.112,-0.05 -0.112,-0.112l0 -0.038c0,-0.062 0.05,-0.112 0.112,-0.112z"/>
  <g id="_2968789788560">
   <path class="fil1" d="M0.149 0.146c-0.001,0.001 -0.002,0.001 -0.003,0.002 -0.001,0 -0.003,0 -0.004,0 0.002,-0.001 0.005,-0.002 0.006,-0.003 0.002,-0.001 0.003,-0.003 0.005,-0.005 -0,0.003 -0.002,0.005 -0.004,0.007zm-0.009 -0.005c-0.001,-0.001 -0.002,-0.002 -0.002,-0.003 -0,-0.002 -0,-0.003 0,-0.005 0.001,-0.002 0.002,-0.003 0.003,-0.004 0.001,-0.001 0.003,-0.001 0.004,-0 0.001,0 0.002,0.001 0.003,0.003 0,0.002 0,0.003 -0,0.005 -0.001,0.002 -0.002,0.003 -0.003,0.004 -0.001,0.001 -0.003,0.001 -0.004,0zm-0.013 -0.043c-0.002,0.003 -0.005,0.007 -0.007,0.011 -0.001,0.002 -0.002,0.004 -0.003,0.006l-0.003 0.006c0.002,-0.004 0.003,-0.008 0.006,-0.012 0.002,-0.004 0.004,-0.008 0.007,-0.012 0.003,-0.004 0.006,-0.008 0.009,-0.01l0.001 -0.001c0,-0 0.001,-0.001 0.001,-0.001l0.001 -0.001 0.001 -0.001c0.003,-0.001 0.005,-0.002 0.007,-0.002 -0.002,0 -0.004,0.001 -0.006,0.003l-0.001 0.001 -0.001 0.001c-0,0 -0.001,0.001 -0.001,0.001l-0.001 0.001c-0.003,0.003 -0.006,0.006 -0.008,0.01zm0.021 -0.023c-0.007,-0.001 -0.015,0.004 -0.024,0.014 -0.008,0.01 -0.015,0.022 -0.021,0.037 -0.006,0.015 -0.01,0.028 -0.011,0.04 -0.001,0.013 0.001,0.02 0.007,0.023 0.005,0.002 0.009,0.002 0.013,-0 0.003,-0.001 0.007,-0.004 0.01,-0.008 0.001,-0.001 0.001,-0.002 0.002,-0.003l0.002 -0.002c0.002,-0.002 0.003,-0.004 0.004,-0.004 0.003,-0.003 0.005,-0.005 0.007,-0.005 0.002,0 0.004,0.001 0.007,0.004 0.001,0.001 0.002,0.002 0.004,0.004l0.002 0.002 0.002 0.002c0.004,0.004 0.007,0.006 0.01,0.007 0.004,0.002 0.008,0.002 0.012,-0 0.005,-0.002 0.007,-0.009 0.008,-0.021 0.001,-0.011 -0.001,-0.023 -0.004,-0.037 -0.003,-0.014 -0.007,-0.027 -0.013,-0.036 -0.006,-0.011 -0.013,-0.017 -0.02,-0.018z"/>
   <path id="1" class="fil1" d="M0.247 0.122c-0.001,0.002 -0.002,0.003 -0.003,0.004 -0.001,0.001 -0.003,0.002 -0.004,0.003 -0.002,0.001 -0.003,0.001 -0.005,0 0.002,-0 0.003,-0.001 0.004,-0.002 0.001,-0.001 0.003,-0.002 0.003,-0.003 0.002,-0.002 0.004,-0.005 0.005,-0.008 0,0.002 -0,0.003 -0.001,0.005zm-0.015 -0.007c0.001,-0.002 0.002,-0.003 0.003,-0.003 0.001,-0.001 0.003,-0.001 0.004,-0 0.001,0.001 0.002,0.002 0.002,0.003 0,0.002 -0,0.003 -0.001,0.005 -0.001,0.002 -0.002,0.003 -0.003,0.003 -0.001,0.001 -0.003,0.001 -0.004,0 -0.001,-0.001 -0.002,-0.002 -0.002,-0.003 -0,-0.002 0,-0.003 0.001,-0.005zm-0.012 -0.032c-0.004,0.002 -0.007,0.004 -0.009,0.007 -0.002,0.003 -0.005,0.006 -0.007,0.01 -0.001,0.003 -0.003,0.007 -0.004,0.011 0,-0.002 0,-0.004 0.001,-0.006 0.001,-0.002 0.001,-0.004 0.002,-0.006 0.002,-0.004 0.004,-0.007 0.006,-0.01 0.003,-0.003 0.006,-0.005 0.01,-0.007 0.002,-0.001 0.004,-0.001 0.006,-0.002 0.002,-0 0.004,-0 0.006,-0 -0.004,0.001 -0.008,0.002 -0.011,0.003zm0.015 -0.01c-0.011,-0 -0.02,0.003 -0.027,0.009 -0.006,0.005 -0.011,0.013 -0.013,0.023 -0.002,0.009 -0.003,0.019 -0.002,0.029 0.001,0.01 0.004,0.02 0.008,0.029 0.004,0.008 0.008,0.015 0.013,0.02 0.004,0.004 0.009,0.006 0.013,0.007 0.004,0 0.007,-0.001 0.01,-0.003 0.003,-0.003 0.005,-0.006 0.005,-0.011 0,-0.003 0,-0.007 -0,-0.011 -0,-0.001 -0.001,-0.003 -0.001,-0.005l-0 -0.002c-0,-0.001 -0,-0.002 -0,-0.002 -0,-0.003 -0,-0.006 0,-0.007 0.001,-0.002 0.002,-0.004 0.005,-0.005 0.009,-0.004 0.015,-0.01 0.02,-0.018 0.004,-0.007 0.006,-0.015 0.005,-0.023 -0.001,-0.008 -0.004,-0.015 -0.01,-0.02 -0.006,-0.006 -0.015,-0.008 -0.025,-0.009z"/>
   <path id="2" class="fil1" d="M0.336 0.085c-0.001,0.002 -0.003,0.004 -0.004,0.008l-0.001 0.002 -0.001 0.002c-0.001,0.002 -0.001,0.003 -0.002,0.004 -0.001,0.002 -0.002,0.003 -0.003,0.004 -0.001,0.001 -0.003,0.002 -0.004,0.002 0.003,-0.001 0.005,-0.003 0.006,-0.007l0.001 -0.002 0.001 -0.002c0.001,-0.002 0.001,-0.003 0.002,-0.005 0.001,-0.002 0.001,-0.003 0.002,-0.004 0.001,-0.002 0.002,-0.003 0.003,-0.004 0.001,-0.001 0.002,-0.002 0.004,-0.003 0.002,-0.001 0.003,-0.001 0.005,-0.001 -0.003,0 -0.006,0.002 -0.008,0.005zm-0.045 0.001c-0.001,0.001 -0.002,0.002 -0.003,0.003 -0.001,0.002 -0.002,0.004 -0.003,0.007 -0.001,-0.003 -0,-0.006 0.001,-0.008 0.001,-0.001 0.002,-0.002 0.003,-0.003 0.001,-0.001 0.003,-0.001 0.004,-0.001 -0.001,0 -0.003,0.001 -0.004,0.002zm0.054 0.039c-0.002,-0.001 -0.003,-0.003 -0.002,-0.005 0.001,-0.001 0.002,-0.003 0.005,-0.007l0.001 -0.001 0.001 -0.001c0.001,-0.001 0.001,-0.002 0.002,-0.002 0.001,-0.002 0.003,-0.003 0.004,-0.005 0.003,-0.004 0.004,-0.008 0.005,-0.011 0,-0.005 -0.001,-0.009 -0.003,-0.012 -0.002,-0.003 -0.005,-0.005 -0.009,-0.006 -0.004,-0.001 -0.008,-0.001 -0.011,0.001 -0.004,0.002 -0.007,0.005 -0.01,0.01 -0.001,0.002 -0.002,0.005 -0.003,0.007 -0,0.001 -0.001,0.002 -0.001,0.003l-0 0.001 -0 0.001c-0.001,0.002 -0.001,0.003 -0.002,0.003 -0.001,0.001 -0.001,0.001 -0.002,0.001 -0.001,0 -0.002,-0.001 -0.003,-0.004 -0,-0 -0,-0.001 -0.001,-0.002l-0 -0.001 -0 -0.001c-0.001,-0.002 -0.001,-0.003 -0.002,-0.005 -0.002,-0.004 -0.004,-0.007 -0.006,-0.009 -0.003,-0.003 -0.006,-0.004 -0.01,-0.004 -0.004,-0 -0.007,0.001 -0.01,0.004 -0.003,0.002 -0.005,0.006 -0.006,0.01 -0.001,0.004 -0,0.009 0.002,0.013 0.002,0.005 0.006,0.01 0.012,0.015 0.003,0.002 0.004,0.005 0.003,0.007 -0,0.001 -0.002,0.004 -0.006,0.009 -0.01,0.013 -0.014,0.024 -0.014,0.035 0,0.005 0.002,0.009 0.004,0.012 0.002,0.003 0.005,0.005 0.009,0.006 0.007,0.002 0.014,-0 0.019,-0.007 0.004,-0.005 0.007,-0.011 0.009,-0.019l0 -0.001 0 -0.001 0 -0.001c0,-0.001 0.001,-0.002 0.001,-0.003 0.001,-0.002 0.002,-0.004 0.003,-0.004 0.003,-0.002 0.006,0.002 0.01,0.011 0.003,0.006 0.006,0.011 0.01,0.014 0.004,0.003 0.008,0.005 0.012,0.006 0.004,0.001 0.008,-0 0.011,-0.002 0.003,-0.002 0.006,-0.005 0.008,-0.009 0.004,-0.009 0.003,-0.018 -0.003,-0.027 -0.006,-0.009 -0.015,-0.017 -0.027,-0.022z"/>
   <path id="3" class="fil1" d="M0.449 0.087c-0.001,0.002 -0.003,0.004 -0.004,0.006 -0.003,0.004 -0.005,0.008 -0.007,0.013l-0.001 0.003 -0.001 0.003c-0.001,0.003 -0.002,0.005 -0.003,0.007 -0.001,0.003 -0.003,0.005 -0.004,0.007 -0.001,0.001 -0.002,0.002 -0.003,0.002 -0.001,0 -0.002,0.001 -0.004,0 0.001,-0 0.003,-0 0.004,-0.001 0.001,-0 0.002,-0.001 0.003,-0.002 0.001,-0.001 0.002,-0.003 0.003,-0.006l0.001 -0.003 0.001 -0.003c0.001,-0.003 0.002,-0.005 0.003,-0.007 0.002,-0.005 0.004,-0.009 0.007,-0.013 0.004,-0.005 0.007,-0.008 0.011,-0.01 -0.002,0.001 -0.004,0.003 -0.005,0.005zm-0.053 0.019c-0.001,0.003 -0.001,0.007 -0.002,0.012l-0.001 0.006 -0.001 0.006c-0,-0.012 0.001,-0.022 0.004,-0.031 0.001,-0.002 0.001,-0.003 0.002,-0.005 0.001,-0.002 0.002,-0.004 0.003,-0.005 0.003,-0.004 0.006,-0.005 0.009,-0.005 -0.004,0 -0.007,0.003 -0.01,0.009 -0.001,0.002 -0.002,0.004 -0.003,0.007 -0,0.001 -0.001,0.002 -0.001,0.003l-0 0.002 -0 0.001 -0 0.001zm0.074 -0.029c-0.007,-0.004 -0.013,-0.004 -0.02,0.001 -0.006,0.004 -0.011,0.01 -0.015,0.018 -0.001,0.003 -0.003,0.006 -0.004,0.009 -0,0.001 -0.001,0.003 -0.002,0.005l-0.001 0.002 -0 0.001 -0 0.001c-0.001,0.003 -0.002,0.005 -0.002,0.006 -0.001,0.002 -0.002,0.002 -0.002,0.002 -0.001,-0 -0.002,-0.001 -0.002,-0.003 -0,-0.002 0,-0.006 0.001,-0.012 0.002,-0.012 0.001,-0.02 -0.002,-0.025 -0.003,-0.004 -0.007,-0.005 -0.012,-0.005 -0.007,0.001 -0.012,0.007 -0.016,0.019 -0.004,0.012 -0.006,0.026 -0.005,0.043 0.001,0.031 0.01,0.047 0.027,0.05 0.005,0.001 0.01,-0.001 0.015,-0.004 0.005,-0.003 0.009,-0.007 0.012,-0.012 0.003,-0.004 0.005,-0.009 0.007,-0.012 0.001,-0.001 0.001,-0.003 0.002,-0.004 0,-0.001 0.001,-0.002 0.001,-0.003 0.001,-0.002 0.001,-0.003 0.002,-0.003 0,-0.001 0.001,-0.001 0.002,-0.001 0.001,0 0.001,0.002 0,0.007l-0 0.002 -0 0.002c-0,0.001 -0,0.002 -0,0.003 -0,0.003 -0,0.005 -0.001,0.007 -0,0.013 0.004,0.02 0.014,0.02 0.006,-0 0.011,-0.005 0.014,-0.016 0.003,-0.009 0.005,-0.021 0.005,-0.036 0,-0.014 -0.001,-0.027 -0.004,-0.038 -0.003,-0.012 -0.007,-0.02 -0.013,-0.023z"/>
   <path id="4" class="fil1" d="M0.553 0.153c-0.001,0.002 -0.002,0.003 -0.004,0.004 -0.002,0.001 -0.004,0.001 -0.005,0.001 0.002,-0 0.003,-0.001 0.005,-0.002 0.001,-0.001 0.002,-0.002 0.003,-0.004 0.001,-0.003 0.002,-0.006 0.001,-0.01 0.001,0.002 0.002,0.003 0.002,0.005 0,0.002 -0,0.004 -0.001,0.006zm-0.015 -0.005c-0.001,-0.002 -0.001,-0.003 -0.001,-0.005 0,-0.002 0.001,-0.003 0.002,-0.003 0.001,-0.001 0.002,-0.001 0.004,0 0.001,0.001 0.003,0.002 0.004,0.003 0.001,0.002 0.001,0.003 0.001,0.005 -0,0.002 -0.001,0.003 -0.002,0.003 -0.001,0.001 -0.002,0.001 -0.004,0 -0.001,-0.001 -0.003,-0.002 -0.004,-0.003zm-0.007 -0.033c0.001,-0 0.002,-0.001 0.004,-0.001 0.001,-0.001 0.002,-0.001 0.003,-0.002 0.001,-0.001 0.002,-0.002 0.002,-0.003 0.001,-0.001 0.001,-0.002 0.002,-0.003 0,0.003 -0.001,0.005 -0.003,0.008 -0.001,0.001 -0.002,0.002 -0.004,0.002 -0.001,0.001 -0.003,0.001 -0.004,0zm-0.002 -0.012c0.001,-0.001 0.001,-0.002 0.002,-0.002 0.001,-0 0.002,-0 0.003,0 0.001,0 0.001,0.001 0.001,0.002 0,0.001 -0,0.002 -0.001,0.003 -0.001,0.001 -0.001,0.002 -0.002,0.002 -0.001,0 -0.002,0 -0.002,0 -0.001,-0 -0.001,-0.001 -0.001,-0.002 -0,-0.001 0,-0.002 0.001,-0.003zm-0.014 -0.014c-0.001,0.001 -0.003,0.003 -0.004,0.005 -0.002,0.003 -0.004,0.007 -0.006,0.011 -0.001,0.003 -0.003,0.008 -0.004,0.012 0,-0.004 0.001,-0.008 0.003,-0.013 0.001,-0.004 0.003,-0.008 0.006,-0.012 0.003,-0.004 0.006,-0.007 0.009,-0.009 0.002,-0.001 0.004,-0.002 0.006,-0.003 0.002,-0 0.004,-0.001 0.006,-0.001 -0.004,0 -0.008,0.002 -0.012,0.004 -0.002,0.001 -0.003,0.003 -0.005,0.004zm0.035 0.031c-0.001,-0 -0.001,-0.001 -0.001,-0.003 0,-0 0.001,-0.001 0.001,-0.002l0 -0.001 0 -0.001c0,-0.001 0.001,-0.001 0.001,-0.002 0.001,-0.003 0.002,-0.006 0.003,-0.008 0.001,-0.004 0.001,-0.008 0,-0.012 -0.001,-0.005 -0.003,-0.008 -0.008,-0.012 -0.004,-0.003 -0.009,-0.005 -0.015,-0.005 -0.006,-0 -0.012,0.002 -0.017,0.005 -0.006,0.004 -0.011,0.011 -0.014,0.02 -0.004,0.009 -0.006,0.019 -0.006,0.03 -0,0.011 0.001,0.021 0.004,0.03 0.004,0.01 0.009,0.018 0.016,0.023 0.008,0.006 0.017,0.008 0.028,0.008 0.01,-0.001 0.019,-0.004 0.025,-0.01 0.006,-0.005 0.009,-0.012 0.009,-0.021 0.001,-0.008 -0.001,-0.016 -0.006,-0.023 -0.005,-0.008 -0.012,-0.013 -0.021,-0.017z"/>
   <path class="fil2" d="M0.138 0.144c-0.001,0.001 -0.002,0.001 -0.003,0.002 -0.001,0 -0.003,0 -0.004,0 0.002,-0.001 0.005,-0.002 0.006,-0.003 0.002,-0.001 0.003,-0.003 0.005,-0.005 -0,0.003 -0.002,0.005 -0.004,0.007zm-0.009 -0.005c-0.001,-0.001 -0.002,-0.002 -0.002,-0.003 -0,-0.002 -0,-0.003 0,-0.005 0.001,-0.002 0.002,-0.003 0.003,-0.004 0.001,-0.001 0.003,-0.001 0.004,-0 0.001,0 0.002,0.001 0.003,0.003 0,0.002 0,0.003 -0,0.005 -0.001,0.002 -0.002,0.003 -0.003,0.004 -0.001,0.001 -0.003,0.001 -0.004,0zm-0.013 -0.043c-0.002,0.003 -0.005,0.007 -0.007,0.011 -0.001,0.002 -0.002,0.004 -0.003,0.006l-0.003 0.006c0.002,-0.004 0.003,-0.008 0.006,-0.012 0.002,-0.004 0.004,-0.008 0.007,-0.012 0.003,-0.004 0.006,-0.008 0.009,-0.01l0.001 -0.001c0,-0 0.001,-0.001 0.001,-0.001l0.001 -0.001 0.001 -0.001c0.003,-0.001 0.005,-0.002 0.007,-0.002 -0.002,0 -0.004,0.001 -0.006,0.003l-0.001 0.001 -0.001 0.001c-0,0 -0.001,0.001 -0.001,0.001l-0.001 0.001c-0.003,0.003 -0.006,0.006 -0.008,0.01zm0.021 -0.023c-0.007,-0.001 -0.015,0.004 -0.024,0.014 -0.008,0.01 -0.015,0.022 -0.021,0.037 -0.006,0.015 -0.01,0.028 -0.011,0.04 -0.001,0.013 0.001,0.02 0.007,0.023 0.005,0.002 0.009,0.002 0.013,-0 0.003,-0.001 0.007,-0.004 0.01,-0.008 0.001,-0.001 0.001,-0.002 0.002,-0.003l0.002 -0.002c0.002,-0.002 0.003,-0.004 0.004,-0.004 0.003,-0.003 0.005,-0.005 0.007,-0.005 0.002,0 0.004,0.001 0.007,0.004 0.001,0.001 0.002,0.002 0.004,0.004l0.002 0.002 0.002 0.002c0.004,0.004 0.007,0.006 0.01,0.007 0.004,0.002 0.008,0.002 0.012,-0 0.005,-0.002 0.007,-0.009 0.008,-0.021 0.001,-0.011 -0.001,-0.023 -0.004,-0.037 -0.003,-0.014 -0.007,-0.027 -0.013,-0.036 -0.006,-0.011 -0.013,-0.017 -0.02,-0.018z"/>
   <path id="1" class="fil2" d="M0.236 0.121c-0.001,0.002 -0.002,0.003 -0.003,0.004 -0.001,0.001 -0.003,0.002 -0.004,0.003 -0.002,0.001 -0.003,0.001 -0.005,0 0.002,-0 0.003,-0.001 0.004,-0.002 0.001,-0.001 0.003,-0.002 0.003,-0.003 0.002,-0.002 0.004,-0.005 0.005,-0.008 0,0.002 -0,0.003 -0.001,0.005zm-0.015 -0.007c0.001,-0.002 0.002,-0.003 0.003,-0.003 0.001,-0.001 0.003,-0.001 0.004,-0 0.001,0.001 0.002,0.002 0.002,0.003 0,0.002 -0,0.003 -0.001,0.005 -0.001,0.002 -0.002,0.003 -0.003,0.003 -0.001,0.001 -0.003,0.001 -0.004,0 -0.001,-0.001 -0.002,-0.002 -0.002,-0.003 -0,-0.002 0,-0.003 0.001,-0.005zm-0.012 -0.032c-0.004,0.002 -0.007,0.004 -0.009,0.007 -0.002,0.003 -0.005,0.006 -0.007,0.01 -0.001,0.003 -0.003,0.007 -0.004,0.011 0,-0.002 0,-0.004 0.001,-0.006 0.001,-0.002 0.001,-0.004 0.002,-0.006 0.002,-0.004 0.004,-0.007 0.006,-0.01 0.003,-0.003 0.006,-0.005 0.01,-0.007 0.002,-0.001 0.004,-0.001 0.006,-0.002 0.002,-0 0.004,-0 0.006,-0 -0.004,0.001 -0.008,0.002 -0.011,0.003zm0.015 -0.01c-0.011,-0 -0.02,0.003 -0.027,0.009 -0.006,0.005 -0.011,0.013 -0.013,0.023 -0.002,0.009 -0.003,0.019 -0.002,0.029 0.001,0.01 0.004,0.02 0.008,0.029 0.004,0.008 0.008,0.015 0.013,0.02 0.004,0.004 0.009,0.006 0.013,0.007 0.004,0 0.007,-0.001 0.01,-0.003 0.003,-0.003 0.005,-0.006 0.005,-0.011 0,-0.003 0,-0.007 -0,-0.011 -0,-0.001 -0.001,-0.003 -0.001,-0.005l-0 -0.002c-0,-0.001 -0,-0.002 -0,-0.002 -0,-0.003 -0,-0.006 0,-0.007 0.001,-0.002 0.002,-0.004 0.005,-0.005 0.009,-0.004 0.015,-0.01 0.02,-0.018 0.004,-0.007 0.006,-0.015 0.005,-0.023 -0.001,-0.008 -0.004,-0.015 -0.01,-0.02 -0.006,-0.006 -0.015,-0.008 -0.025,-0.009z"/>
   <path id="2" class="fil2" d="M0.326 0.084c-0.001,0.002 -0.003,0.004 -0.004,0.008l-0.001 0.002 -0.001 0.002c-0.001,0.002 -0.001,0.003 -0.002,0.004 -0.001,0.002 -0.002,0.003 -0.003,0.004 -0.001,0.001 -0.003,0.002 -0.004,0.002 0.003,-0.001 0.005,-0.003 0.006,-0.007l0.001 -0.002 0.001 -0.002c0.001,-0.002 0.001,-0.003 0.002,-0.005 0.001,-0.002 0.001,-0.003 0.002,-0.004 0.001,-0.002 0.002,-0.003 0.003,-0.004 0.001,-0.001 0.002,-0.002 0.004,-0.003 0.002,-0.001 0.003,-0.001 0.005,-0.001 -0.003,0 -0.006,0.002 -0.008,0.005zm-0.045 0.001c-0.001,0.001 -0.002,0.002 -0.003,0.003 -0.001,0.002 -0.002,0.004 -0.003,0.007 -0.001,-0.003 -0,-0.006 0.001,-0.008 0.001,-0.001 0.002,-0.002 0.003,-0.003 0.001,-0.001 0.003,-0.001 0.004,-0.001 -0.001,0 -0.003,0.001 -0.004,0.002zm0.054 0.039c-0.002,-0.001 -0.003,-0.003 -0.002,-0.005 0.001,-0.001 0.002,-0.003 0.005,-0.007l0.001 -0.001 0.001 -0.001c0.001,-0.001 0.001,-0.002 0.002,-0.002 0.001,-0.002 0.003,-0.003 0.004,-0.005 0.003,-0.004 0.004,-0.008 0.005,-0.011 0,-0.005 -0.001,-0.009 -0.003,-0.012 -0.002,-0.003 -0.005,-0.005 -0.009,-0.006 -0.004,-0.001 -0.008,-0.001 -0.011,0.001 -0.004,0.002 -0.007,0.005 -0.01,0.01 -0.001,0.002 -0.002,0.005 -0.003,0.007 -0,0.001 -0.001,0.002 -0.001,0.003l-0 0.001 -0 0.001c-0.001,0.002 -0.001,0.003 -0.002,0.003 -0.001,0.001 -0.001,0.001 -0.002,0.001 -0.001,0 -0.002,-0.001 -0.003,-0.004 -0,-0 -0,-0.001 -0.001,-0.002l-0 -0.001 -0 -0.001c-0.001,-0.002 -0.001,-0.003 -0.002,-0.005 -0.002,-0.004 -0.004,-0.007 -0.006,-0.009 -0.003,-0.003 -0.006,-0.004 -0.01,-0.004 -0.004,-0 -0.007,0.001 -0.01,0.004 -0.003,0.002 -0.005,0.006 -0.006,0.01 -0.001,0.004 -0,0.009 0.002,0.013 0.002,0.005 0.006,0.01 0.012,0.015 0.003,0.002 0.004,0.005 0.003,0.007 -0,0.001 -0.002,0.004 -0.006,0.009 -0.01,0.013 -0.014,0.024 -0.014,0.035 0,0.005 0.002,0.009 0.004,0.012 0.002,0.003 0.005,0.005 0.009,0.006 0.007,0.002 0.014,-0 0.019,-0.007 0.004,-0.005 0.007,-0.011 0.009,-0.019l0 -0.001 0 -0.001 0 -0.001c0,-0.001 0.001,-0.002 0.001,-0.003 0.001,-0.002 0.002,-0.004 0.003,-0.004 0.003,-0.002 0.006,0.002 0.01,0.011 0.003,0.006 0.006,0.011 0.01,0.014 0.004,0.003 0.008,0.005 0.012,0.006 0.004,0.001 0.008,-0 0.011,-0.002 0.003,-0.002 0.006,-0.005 0.008,-0.009 0.004,-0.009 0.003,-0.018 -0.003,-0.027 -0.006,-0.009 -0.015,-0.017 -0.027,-0.022z"/>
   <path id="3" class="fil2" d="M0.439 0.086c-0.001,0.002 -0.003,0.004 -0.004,0.006 -0.003,0.004 -0.005,0.008 -0.007,0.013l-0.001 0.003 -0.001 0.003c-0.001,0.003 -0.002,0.005 -0.003,0.007 -0.001,0.003 -0.003,0.005 -0.004,0.007 -0.001,0.001 -0.002,0.002 -0.003,0.002 -0.001,0 -0.002,0.001 -0.004,0 0.001,-0 0.003,-0 0.004,-0.001 0.001,-0 0.002,-0.001 0.003,-0.002 0.001,-0.001 0.002,-0.003 0.003,-0.006l0.001 -0.003 0.001 -0.003c0.001,-0.003 0.002,-0.005 0.003,-0.007 0.002,-0.005 0.004,-0.009 0.007,-0.013 0.004,-0.005 0.007,-0.008 0.011,-0.01 -0.002,0.001 -0.004,0.003 -0.005,0.005zm-0.053 0.019c-0.001,0.003 -0.001,0.007 -0.002,0.012l-0.001 0.006 -0.001 0.006c-0,-0.012 0.001,-0.022 0.004,-0.031 0.001,-0.002 0.001,-0.003 0.002,-0.005 0.001,-0.002 0.002,-0.004 0.003,-0.005 0.003,-0.004 0.006,-0.005 0.009,-0.005 -0.004,0 -0.007,0.003 -0.01,0.009 -0.001,0.002 -0.002,0.004 -0.003,0.007 -0,0.001 -0.001,0.002 -0.001,0.003l-0 0.002 -0 0.001 -0 0.001zm0.074 -0.029c-0.007,-0.004 -0.013,-0.004 -0.02,0.001 -0.006,0.004 -0.011,0.01 -0.015,0.018 -0.001,0.003 -0.003,0.006 -0.004,0.009 -0,0.001 -0.001,0.003 -0.002,0.005l-0.001 0.002 -0 0.001 -0 0.001c-0.001,0.003 -0.002,0.005 -0.002,0.006 -0.001,0.002 -0.002,0.002 -0.002,0.002 -0.001,-0 -0.002,-0.001 -0.002,-0.003 -0,-0.002 0,-0.006 0.001,-0.012 0.002,-0.012 0.001,-0.02 -0.002,-0.025 -0.003,-0.004 -0.007,-0.005 -0.012,-0.005 -0.007,0.001 -0.012,0.007 -0.016,0.019 -0.004,0.012 -0.006,0.026 -0.005,0.043 0.001,0.031 0.01,0.047 0.027,0.05 0.005,0.001 0.01,-0.001 0.015,-0.004 0.005,-0.003 0.009,-0.007 0.012,-0.012 0.003,-0.004 0.005,-0.009 0.007,-0.012 0.001,-0.001 0.001,-0.003 0.002,-0.004 0,-0.001 0.001,-0.002 0.001,-0.003 0.001,-0.002 0.001,-0.003 0.002,-0.003 0,-0.001 0.001,-0.001 0.002,-0.001 0.001,0 0.001,0.002 0,0.007l-0 0.002 -0 0.002c-0,0.001 -0,0.002 -0,0.003 -0,0.003 -0,0.005 -0.001,0.007 -0,0.013 0.004,0.02 0.014,0.02 0.006,-0 0.011,-0.005 0.014,-0.016 0.003,-0.009 0.005,-0.021 0.005,-0.036 0,-0.014 -0.001,-0.027 -0.004,-0.038 -0.003,-0.012 -0.007,-0.02 -0.013,-0.023z"/>
   <path id="4" class="fil2" d="M0.543 0.151c-0.001,0.002 -0.002,0.003 -0.004,0.004 -0.002,0.001 -0.004,0.001 -0.005,0.001 0.002,-0 0.003,-0.001 0.005,-0.002 0.001,-0.001 0.002,-0.002 0.003,-0.004 0.001,-0.003 0.002,-0.006 0.001,-0.01 0.001,0.002 0.002,0.003 0.002,0.005 0,0.002 -0,0.004 -0.001,0.006zm-0.015 -0.005c-0.001,-0.002 -0.001,-0.003 -0.001,-0.005 0,-0.002 0.001,-0.003 0.002,-0.003 0.001,-0.001 0.002,-0.001 0.004,0 0.001,0.001 0.003,0.002 0.004,0.003 0.001,0.002 0.001,0.003 0.001,0.005 -0,0.002 -0.001,0.003 -0.002,0.003 -0.001,0.001 -0.002,0.001 -0.004,0 -0.001,-0.001 -0.003,-0.002 -0.004,-0.003zm-0.007 -0.033c0.001,-0 0.002,-0.001 0.004,-0.001 0.001,-0.001 0.002,-0.001 0.003,-0.002 0.001,-0.001 0.002,-0.002 0.002,-0.003 0.001,-0.001 0.001,-0.002 0.002,-0.003 0,0.003 -0.001,0.005 -0.003,0.008 -0.001,0.001 -0.002,0.002 -0.004,0.002 -0.001,0.001 -0.003,0.001 -0.004,0zm-0.002 -0.012c0.001,-0.001 0.001,-0.002 0.002,-0.002 0.001,-0 0.002,-0 0.003,0 0.001,0 0.001,0.001 0.001,0.002 0,0.001 -0,0.002 -0.001,0.003 -0.001,0.001 -0.001,0.002 -0.002,0.002 -0.001,0 -0.002,0 -0.002,0 -0.001,-0 -0.001,-0.001 -0.001,-0.002 -0,-0.001 0,-0.002 0.001,-0.003zm-0.014 -0.014c-0.001,0.001 -0.003,0.003 -0.004,0.005 -0.002,0.003 -0.004,0.007 -0.006,0.011 -0.001,0.003 -0.003,0.008 -0.004,0.012 0,-0.004 0.001,-0.008 0.003,-0.013 0.001,-0.004 0.003,-0.008 0.006,-0.012 0.003,-0.004 0.006,-0.007 0.009,-0.009 0.002,-0.001 0.004,-0.002 0.006,-0.003 0.002,-0 0.004,-0.001 0.006,-0.001 -0.004,0 -0.008,0.002 -0.012,0.004 -0.002,0.001 -0.003,0.003 -0.005,0.004zm0.035 0.031c-0.001,-0 -0.001,-0.001 -0.001,-0.003 0,-0 0.001,-0.001 0.001,-0.002l0 -0.001 0 -0.001c0,-0.001 0.001,-0.001 0.001,-0.002 0.001,-0.003 0.002,-0.006 0.003,-0.008 0.001,-0.004 0.001,-0.008 0,-0.012 -0.001,-0.005 -0.003,-0.008 -0.008,-0.012 -0.004,-0.003 -0.009,-0.005 -0.015,-0.005 -0.006,-0 -0.012,0.002 -0.017,0.005 -0.006,0.004 -0.011,0.011 -0.014,0.02 -0.004,0.009 -0.006,0.019 -0.006,0.03 -0,0.011 0.001,0.021 0.004,0.03 0.004,0.01 0.009,0.018 0.016,0.023 0.008,0.006 0.017,0.008 0.028,0.008 0.01,-0.001 0.019,-0.004 0.025,-0.01 0.006,-0.005 0.009,-0.012 0.009,-0.021 0.001,-0.008 -0.001,-0.016 -0.006,-0.023 -0.005,-0.008 -0.012,-0.013 -0.021,-0.017z"/>
  </g>
 </g>
</svg>
