<?xml version="1.0" encoding="UTF-8"?>
<!DOCTYPE svg PUBLIC "-//W3C//DTD SVG 1.1//EN" "http://www.w3.org/Graphics/SVG/1.1/DTD/svg11.dtd">
<!-- Creator: CorelDRAW 2019 (64-Bit) -->
<svg xmlns="http://www.w3.org/2000/svg" xml:space="preserve" width="1.18288cm" height="0.39793cm" version="1.1" style="shape-rendering:geometricPrecision; text-rendering:geometricPrecision; image-rendering:optimizeQuality; fill-rule:evenodd; clip-rule:evenodd"
viewBox="0 0 0.637 0.214"
 xmlns:xlink="http://www.w3.org/1999/xlink"
 xmlns:xodm="http://www.corel.com/coreldraw/odm/2003">
 <defs>
  <style type="text/css">
   <![CDATA[
    .fil1 {fill:#8E682A}
    .fil0 {fill:#8E682A;fill-rule:nonzero}
   ]]>
  </style>
 </defs>
 <g id="Слой_x0020_1">
  <metadata id="CorelCorpID_0Corel-Layer"/>
  <g id="_2795308216592">
   <path class="fil0" d="M0.101 0.099c0.012,0.002 0.022,0.005 0.028,0.011 0.007,0.005 0.012,0.014 0.015,0.025 0.002,0.007 0.004,0.016 0.006,0.029 0.003,0.019 0.008,0.029 0.015,0.029 0.004,0 0.007,-0.002 0.009,-0.007 0.002,-0.004 0.003,-0.012 0.003,-0.023l0.011 -0 0 0.007c0,0.014 -0.003,0.025 -0.009,0.033 -0.006,0.008 -0.014,0.011 -0.025,0.011 -0.02,0 -0.032,-0.019 -0.037,-0.056 -0.001,-0.006 -0.001,-0.01 -0.002,-0.013 -0.002,-0.014 -0.006,-0.024 -0.011,-0.029 -0.005,-0.005 -0.014,-0.008 -0.026,-0.008l-0.004 0 -0.016 0 0 0.073c0,0.005 0.001,0.009 0.003,0.011 0.002,0.002 0.006,0.003 0.012,0.003l0.015 0 0 0.013 -0.09 0 0 -0.013 0.015 0c0.006,0 0.01,-0.001 0.012,-0.003 0.002,-0.002 0.003,-0.005 0.003,-0.011l0 -0.15c0,-0.005 -0.001,-0.008 -0.003,-0.01 -0.002,-0.002 -0.005,-0.003 -0.009,-0.003l-0.003 0 -0.015 0 0 -0.013 0.09 0 0 0.013 -0.018 0c-0.004,0 -0.007,0.001 -0.009,0.003 -0.002,0.002 -0.003,0.006 -0.003,0.01l0 0.064 0.011 0c0.013,0 0.022,-0.002 0.028,-0.007 0.006,-0.005 0.011,-0.013 0.013,-0.026 0.001,-0.004 0.002,-0.011 0.003,-0.019 0.002,-0.013 0.004,-0.022 0.006,-0.027 0.003,-0.006 0.007,-0.01 0.012,-0.013 0.005,-0.003 0.011,-0.005 0.019,-0.005 0.01,0 0.017,0.003 0.023,0.008 0.006,0.005 0.009,0.012 0.009,0.021 0,0.006 -0.002,0.01 -0.005,0.014 -0.003,0.004 -0.008,0.005 -0.014,0.005 -0.006,0 -0.01,-0.001 -0.014,-0.004 -0.004,-0.003 -0.005,-0.006 -0.005,-0.011 0,-0.004 0.001,-0.007 0.004,-0.011 0.002,-0.003 0.004,-0.005 0.004,-0.006 0,-0.001 -0.001,-0.002 -0.001,-0.002 -0.001,-0.001 -0.002,-0.001 -0.004,-0.001 -0.009,0 -0.015,0.01 -0.018,0.03 -0.001,0.004 -0.001,0.006 -0.001,0.008 -0.003,0.017 -0.007,0.029 -0.011,0.035 -0.004,0.006 -0.01,0.011 -0.017,0.013zm0.472 -0.014c-0.012,0 -0.021,0.005 -0.026,0.014 -0.005,0.009 -0.008,0.024 -0.008,0.044 0,0.02 0.003,0.035 0.008,0.044 0.005,0.009 0.014,0.014 0.026,0.014 0.012,0 0.021,-0.005 0.026,-0.014 0.005,-0.009 0.008,-0.024 0.008,-0.044 0,-0.02 -0.003,-0.035 -0.008,-0.044 -0.005,-0.009 -0.014,-0.014 -0.026,-0.014zm0 -0.012c0.019,0 0.034,0.006 0.046,0.019 0.012,0.013 0.018,0.03 0.018,0.05 0,0.021 -0.006,0.038 -0.018,0.05 -0.012,0.013 -0.027,0.019 -0.046,0.019 -0.019,0 -0.034,-0.006 -0.046,-0.019 -0.012,-0.013 -0.018,-0.03 -0.018,-0.05 0,-0.021 0.006,-0.038 0.018,-0.05 0.012,-0.013 0.027,-0.019 0.046,-0.019z"/>
   <path class="fil0" d="M0.267 0.081c-0.012,0 -0.021,0.005 -0.026,0.014 -0.005,0.009 -0.008,0.024 -0.008,0.044 0,0.02 0.003,0.035 0.008,0.044 0.005,0.009 0.014,0.014 0.026,0.014 0.012,0 0.021,-0.005 0.026,-0.014 0.005,-0.009 0.008,-0.024 0.008,-0.044 0,-0.02 -0.003,-0.035 -0.008,-0.044 -0.005,-0.009 -0.014,-0.014 -0.026,-0.014zm0 -0.012c0.019,0 0.034,0.006 0.046,0.019 0.012,0.013 0.018,0.03 0.018,0.05 0,0.021 -0.006,0.038 -0.018,0.05 -0.012,0.013 -0.027,0.019 -0.046,0.019 -0.019,0 -0.034,-0.006 -0.046,-0.019 -0.012,-0.013 -0.018,-0.03 -0.018,-0.05 0,-0.021 0.006,-0.038 0.018,-0.05 0.012,-0.013 0.027,-0.019 0.046,-0.019z"/>
   <path class="fil0" d="M0.487 0.197l0 0.012 -0.065 0 0 -0.012 0.01 -0.001c0.004,-0 0.007,-0.001 0.008,-0.002 0.001,-0.001 0.002,-0.004 0.002,-0.008l0 -0.035c-0.007,0.002 -0.014,0.004 -0.021,0.005 -0.007,0.001 -0.013,0.002 -0.02,0.002 -0.013,0 -0.022,-0.002 -0.029,-0.007 -0.006,-0.005 -0.01,-0.012 -0.01,-0.022l0 -0.027c0,-0.004 -0.001,-0.007 -0.002,-0.008 -0.001,-0.001 -0.004,-0.002 -0.008,-0.002l-0.01 -0.001 0 -0.012 0.066 0 0 0.012 -0.011 0.001c-0.004,0 -0.006,0.001 -0.008,0.002 -0.001,0.001 -0.002,0.004 -0.002,0.008l0 0.023c0,0.007 0.002,0.012 0.005,0.015 0.003,0.003 0.009,0.004 0.017,0.004 0.004,0 0.009,-0 0.015,-0.001 0.005,-0.001 0.011,-0.002 0.017,-0.004l0 -0.037c0,-0.004 -0.001,-0.007 -0.002,-0.008 -0.001,-0.001 -0.004,-0.002 -0.008,-0.002l-0.01 -0.001 0 -0.012 0.065 0 0 0.012 -0.01 0.001c-0.004,0 -0.006,0.001 -0.008,0.002 -0.001,0.001 -0.002,0.004 -0.002,0.008l0 0.085c0,0.004 0.001,0.007 0.002,0.008 0.001,0.001 0.004,0.002 0.008,0.002l0.01 0.001z"/>
   <g>
    <path class="fil1" d="M0.392 0.025c0.006,0 0.011,0.005 0.011,0.011 0,0.006 -0.005,0.011 -0.011,0.011 -0.006,0 -0.011,-0.005 -0.011,-0.011 0,-0.006 0.005,-0.011 0.011,-0.011z"/>
    <path class="fil1" d="M0.437 0.025c0.006,0 0.011,0.005 0.011,0.011 0,0.006 -0.005,0.011 -0.011,0.011 -0.006,0 -0.011,-0.005 -0.011,-0.011 0,-0.006 0.005,-0.011 0.011,-0.011z"/>
   </g>
  </g>
 </g>
</svg>
