<?xml version="1.0" encoding="UTF-8" standalone="no"?>
<svg
   xmlns:dc="http://purl.org/dc/elements/1.1/"
   xmlns:cc="http://creativecommons.org/ns#"
   xmlns:rdf="http://www.w3.org/1999/02/22-rdf-syntax-ns#"
   xmlns:svg="http://www.w3.org/2000/svg"
   xmlns="http://www.w3.org/2000/svg"
   xmlns:sodipodi="http://sodipodi.sourceforge.net/DTD/sodipodi-0.dtd"
   xmlns:inkscape="http://www.inkscape.org/namespaces/inkscape"
   width="194.12843mm"
   height="175.16241mm"
   viewBox="0 0 194.12843 175.16241"
   version="1.1"
   id="svg8"
   sodipodi:docname="kot.svg"
   inkscape:version="1.0.1 (3bc2e813f5, 2020-09-07)">
  <defs
     id="defs2" />
  <sodipodi:namedview
     id="base"
     pagecolor="#ffffff"
     bordercolor="#666666"
     borderopacity="1.0"
     inkscape:pageopacity="0.0"
     inkscape:pageshadow="2"
     inkscape:zoom="0.5551098"
     inkscape:cx="278.9576"
     inkscape:cy="310.02743"
     inkscape:document-units="mm"
     inkscape:current-layer="layer1"
     inkscape:document-rotation="0"
     showgrid="false"
     scale-x="1"
     fit-margin-top="0"
     fit-margin-left="0"
     fit-margin-right="0"
     fit-margin-bottom="0"
     inkscape:window-width="1264"
     inkscape:window-height="967"
     inkscape:window-x="0"
     inkscape:window-y="0"
     inkscape:window-maximized="0"
     inkscape:lockguides="false"
     inkscape:snap-bbox="true"
     inkscape:snap-global="true"
     inkscape:bbox-nodes="true"
     inkscape:object-paths="true"
     inkscape:snap-page="true" />
  <metadata
     id="metadata5">
    <rdf:RDF>
      <cc:Work
         rdf:about="">
        <dc:format>image/svg+xml</dc:format>
        <dc:type
           rdf:resource="http://purl.org/dc/dcmitype/StillImage" />
        <dc:title></dc:title>
      </cc:Work>
    </rdf:RDF>
  </metadata>
  <g
     inkscape:label="Слой 1"
     inkscape:groupmode="layer"
     id="layer1"
     transform="translate(-72.241213,-6.1647317)">
    <g
       id="g26"
       style="fill:#d8de3f;fill-opacity:1"
       transform="translate(63.857994,-92.172912)">
      <path
         style="fill:#d8de3f;fill-opacity:1;stroke:none;stroke-width:0.215072"
         d="m 202.43329,273.39551 v -89.25487 -26.66892 -7.95766 c 0,-1.12268 0.24303,-2.58302 -0.12689,-3.65623 -0.51833,-1.50765 -2.17438,-2.93358 -3.20888,-4.12293 -2.64753,-3.04542 -5.42411,-5.92738 -8.27812,-8.78139 -12.80108,-12.80108 -29.06052,-22.94989 -46.24047,-28.67619 -13.15165,-4.383593 -27.16574,-6.723576 -41.04218,-5.701984 -18.455328,1.35861 -36.48051,7.624084 -51.438765,18.626304 -29.669178,21.81906 -45.9630307,60.78149 -43.4638944,97.26415 1.0667569,15.56046 3.6411684,30.27783 9.1771204,44.95004 1.286131,3.41534 2.709907,6.84144 4.338002,10.10838 0.492515,0.98503 1.036647,2.99166 1.924894,3.64978 0.767807,0.56779 2.591617,0.22152 3.505673,0.22152 h 8.817951 34.411515 z m -89.46994,-163.02455 0.21507,0.21507 z m 12.68925,15.97769 c 20.23827,-2.3959 35.81378,18.56072 30.44774,37.36016 -3.39169,11.88702 -13.71084,19.5952 -25.71616,21.01468 -19.89846,2.35719 -35.47612,-17.79721 -30.776798,-36.49987 3.103488,-12.35803 13.712988,-20.41678 26.045218,-21.87497 m -57.854362,24.51821 c 20.238272,-2.3959 35.813782,18.56071 30.447739,37.36015 -3.391685,11.88918 -13.712989,19.59521 -25.716156,21.01468 -19.898458,2.35719 -35.476121,-17.7972 -30.776798,-36.49986 3.103488,-12.35804 13.712989,-20.41678 26.045215,-21.87497 z m 45.165112,42.09173 v 0.21508 l 2.36579,0.21507 -2.36579,-0.43015 m -1.93565,0.43015 v 0.21507 l 1.72058,-0.21507 z m 1.72058,-0.12044 c -3.32931,0.52047 -6.55109,2.32062 -7.97702,5.49724 -2.33568,5.20044 2.81529,8.62223 7.54688,7.86303 3.12714,-0.50327 6.37903,-2.49699 7.64365,-5.49724 2.10986,-5.01118 -2.43891,-8.60933 -7.21351,-7.86303 z m 2.79594,-0.0946 v 0.21507 h 0.86028 l -0.86028,-0.21507 m 1.21945,0.28604 0.14195,0.0731 -0.14195,-0.0731 m -6.23708,0.21507 0.14194,0.0731 -0.14194,-0.0731 m 6.66723,0 0.14194,0.0731 -0.14194,-0.0731 m -7.45655,0.1441 v 0.21507 h 0.64522 l -0.64522,-0.21507 m 7.88669,0.071 0.14195,0.0731 -0.14195,-0.0731 m -8.17273,0.21507 0.14194,0.0731 -0.14194,-0.0731 m 8.60287,0 0.14195,0.0731 -0.14195,-0.0731 m -9.03302,0.21507 0.14195,0.0731 -0.14195,-0.0731 m 9.31907,-0.071 0.21507,0.21507 -0.21507,-0.21507 m -9.67824,0.21507 0.21507,0.21507 -0.21507,-0.21507 m 10.03741,0.071 0.14195,0.0731 -0.14195,-0.0731 m -10.46755,0.1441 0.21507,0.21507 -0.21507,-0.21507 m 10.7536,0 v 0.43014 h 0.43014 l -0.43014,-0.43014 m -11.18375,0.21507 0.21508,0.21507 -0.21508,-0.21507 m -0.21507,0.21507 0.21507,0.21508 -0.21507,-0.21508 m 4.74019,0.16131 c -1.52486,0.58929 -1.46249,3.34652 0.41939,2.68625 1.641,-0.57855 1.57002,-3.45621 -0.41939,-2.68625 m -4.95526,0.0538 0.21507,0.21507 -0.21507,-0.21507 m 12.04403,0 0.21507,0.21507 -0.21507,-0.21507 m -12.47417,0.21507 0.21507,0.21507 -0.21507,-0.21507 m 12.68924,0 0.21507,0.21507 z m -7.28233,0.4495 c -0.98718,0.49466 -0.52263,2.1034 0.56779,1.47539 0.88394,-0.50972 0.4753,-1.99802 -0.56779,-1.47539 z m 7.56838,-0.0903 0.0731,0.14195 -0.0731,-0.14195 m -13.40544,0.071 0.21507,0.21507 -0.21507,-0.21507 m -0.21507,0.21507 0.21507,0.21508 -0.21507,-0.21508 m 13.83558,0.1441 0.0731,0.14195 -0.0731,-0.14195 m -14.05065,0.071 0.21507,0.21507 -0.21507,-0.21507 m 25.16342,0 0.21507,0.21507 z m -18.49619,0.21507 v 0.43014 h -0.43014 v -0.43014 z m 7.52752,0.21507 v 0.64522 h 0.21507 l -0.21507,-0.64522 m -14.6249,0.21507 0.21508,0.21507 -0.21508,-0.21507 m -0.21507,0.21507 0.21507,0.21508 -0.21507,-0.21508 m 16.56054,0 0.21508,0.21508 -0.21508,-0.21508 m -16.77561,0.43015 0.21507,0.21507 -0.21507,-0.21507 m 15.27011,0 v 1.5055 h 0.21507 l -0.21507,-1.5055 m -15.48518,0.21507 0.21507,0.21507 -0.21507,-0.21507 m -0.21507,0.43014 0.21507,0.21508 -0.21507,-0.21508 m -0.21508,0.43015 0.21508,0.21507 -0.21508,-0.21507 m -0.14409,0.57424 0.0731,0.14195 -0.0731,-0.14195 m 15.91532,0.64522 0.0731,0.14194 -0.0731,-0.14194 m -16.20137,0.071 v 0.64521 h 0.21507 l -0.21507,-0.64521 m 15.91533,0.43014 0.21507,0.21507 -0.21507,-0.21507 m -0.21508,0.64522 0.21508,0.21507 -0.21508,-0.21507 m -0.21507,0.43014 0.21507,0.21507 -0.21507,-0.21507 m -15.48518,0.43015 v 0.64521 h 0.21507 l -0.21507,-0.64521 m 15.05504,0.21507 0.21507,0.21507 -0.21507,-0.21507 m -14.76899,0.78931 0.0731,0.14195 -0.0731,-0.14195 m 14.33884,-0.1441 0.21508,0.21508 -0.21508,-0.21508 m -0.21507,0.21508 0.21507,0.21507 -0.21507,-0.21507 m -0.21507,0.21507 0.21507,0.21507 -0.21507,-0.21507 m -13.76461,0.21507 0.21508,0.21507 -0.21508,-0.21507 m 13.54954,0 0.21507,0.21507 -0.21507,-0.21507 m -0.21507,0.21507 0.21507,0.21507 -0.21507,-0.21507 m -13.11939,0.21507 0.21507,0.21508 -0.21507,-0.21508 m 12.90431,0 0.21508,0.21508 -0.21508,-0.21508 m -12.68924,0.21508 0.21507,0.21507 -0.21507,-0.21507 m 12.47417,0 0.21507,0.21507 -0.21507,-0.21507 m -0.21507,0.21507 0.21507,0.21507 -0.21507,-0.21507 m -12.04403,0.21507 0.21507,0.21507 -0.21507,-0.21507 m 0.21507,0.21507 0.21507,0.21507 -0.21507,-0.21507 m 11.18374,0 0.21508,0.21507 -0.21508,-0.21507 m -10.96867,0.21507 0.21508,0.21508 -0.21508,-0.21508 m 10.53853,0 0.21507,0.21508 -0.21507,-0.21508 m -10.32345,0.21508 0.21507,0.21507 -0.21507,-0.21507 m 10.10838,0 0.21507,0.21507 -0.21507,-0.21507 m -9.74921,0.28604 0.14194,0.0731 -0.14194,-0.0731 m 9.31907,-0.071 0.21507,0.21507 -0.21507,-0.21507 m -9.03303,0.21507 0.21507,0.21507 -0.21507,-0.21507 m 8.60288,0 0.21507,0.21507 -0.21507,-0.21507 m -8.17273,0.21507 0.21507,0.21507 -0.21507,-0.21507 m 7.74259,0 0.21507,0.21507 -0.21507,-0.21507 m -7.38342,0.28605 0.14194,0.0731 -0.14194,-0.0731 m 6.52313,-0.071 v 0.21508 h 0.64522 l -0.64522,-0.21508 m -6.02202,0.21508 0.21508,0.21507 -0.21508,-0.21507 m 5.59188,0 0.21507,0.21507 -0.21507,-0.21507 m -4.94666,0.21507 v 0.21507 h 0.64522 l -0.64522,-0.21507 m 3.8713,0 v 0.21507 h 0.64521 l -0.64521,-0.21507 m -2.58087,0.21507 v 0.21507 h 1.93565 l -1.93565,-0.21507 m 6.02202,1.07536 0.21507,1.5055 h 0.21507 z m 0.43014,1.07536 c 0.64092,4.34015 2.51634,9.23304 4.08637,13.33446 -3.4218,1.31839 -7.27374,2.31203 -10.96867,1.93565 1.28828,2.63463 5.93598,3.20242 8.54051,2.96154 6.71239,-0.62156 13.72804,-5.10366 14.04204,-12.42471 -2.29911,1.31624 -4.12293,3.61321 -6.45215,5.03054 -0.65812,0.40003 -1.74424,1.27322 -2.55936,1.17214 -1.06246,-0.1312 -1.60229,-2.17223 -2.02168,-2.9766 -1.54421,-2.95939 -2.80454,-6.26504 -4.66706,-9.03302 z m 0.28605,0.35917 0.0731,0.14195 -0.0731,-0.14195 m -0.21508,0.43014 0.0731,0.14195 -0.0731,-0.14195 m 0.43015,0 0.0731,0.14195 -0.0731,-0.14195 m 0.21507,0.43015 0.0731,0.14195 -0.0731,-0.14195 m -0.43014,0.21507 0.0731,0.14195 -0.0731,-0.14195 m 0.64521,0.21507 0.0731,0.14195 -0.0731,-0.14195 m -0.50112,0.28605 v 0.64521 h 0.21508 l -0.21508,-0.64521 m 0.64522,0 0.21507,0.21507 -0.21507,-0.21507 m 0.21507,0.43014 0.21507,0.21507 -0.21507,-0.21507 m -0.64521,0.21507 V 212.1 h 0.21507 l -0.21507,-0.64522 m 0.93126,0.35917 0.0731,0.14195 -0.0731,-0.14195 m 0.21507,0.43015 0.0731,0.14194 -0.0731,-0.14194 m -0.86029,0.21507 0.0731,0.14195 -0.0731,-0.14195 m 1.07536,0.21507 0.0731,0.14195 -0.0731,-0.14195 m -0.86029,0.43015 0.0731,0.14194 -0.0731,-0.14194 m 1.00439,-0.1441 0.21507,0.21507 -0.21507,-0.21507 m -0.86029,0.43014 v 0.86029 h 0.21507 l -0.21507,-0.86029 m 1.07536,0 0.21507,0.21507 -0.21507,-0.21507 m 0.21507,0.43014 0.21508,0.21508 -0.21508,-0.21508 m 0.28605,0.57425 0.0731,0.14194 -0.0731,-0.14194 m -1.29043,0.21507 0.0731,0.14195 -0.0731,-0.14195 m 13.9087,-0.1441 0.21507,0.21507 -0.21507,-0.21507 m -12.4032,0.35917 0.0731,0.14195 -0.0731,-0.14195 m 11.97306,0.071 0.21507,0.21508 -0.21507,-0.21508 m -13.26349,0.35917 0.0731,0.14195 -0.0731,-0.14195 m 1.43453,-0.14409 0.21507,0.21507 -0.21507,-0.21507 m 11.61389,0 0.21507,0.21507 -0.21507,-0.21507 m -0.21508,0.21507 0.21508,0.21507 -0.21508,-0.21507 m -12.68924,0.21507 v 0.64522 h 0.21507 l -0.21507,-0.64522 m 1.5055,0 0.21507,0.21507 -0.21507,-0.21507 m 10.96867,0 0.21507,0.21507 -0.21507,-0.21507 m -0.21507,0.21507 0.21507,0.21507 -0.21507,-0.21507 m 1.29043,0 v 0.86029 h 0.21507 l -0.21507,-0.86029 m -11.82896,0.21507 0.21508,0.21508 -0.21508,-0.21508 m 10.32346,0 0.21507,0.21508 -0.21507,-0.21508 m -11.82896,0.21508 v 0.64521 h 0.21507 l -0.21507,-0.64521 m 11.61389,0 0.21507,0.21507 -0.21507,-0.21507 m -9.89331,0.21507 0.21507,0.21507 -0.21507,-0.21507 m 9.67823,0 0.21508,0.21507 -0.21508,-0.21507 m -0.21507,0.21507 0.21507,0.21507 -0.21507,-0.21507 m -9.17712,0.35917 0.0731,0.14195 -0.0731,-0.14195 m 8.74698,-0.1441 0.21507,0.21507 -0.21507,-0.21507 m -0.21507,0.21507 0.21507,0.21508 -0.21507,-0.21508 m 2.65183,0.1441 0.0731,0.14195 -0.0731,-0.14195 m -12.97529,0.071 0.21507,0.21507 -0.21507,-0.21507 m 1.93565,0 0.21507,0.21507 -0.21507,-0.21507 m 8.17274,0 0.21507,0.21507 -0.21507,-0.21507 m -0.21508,0.21507 0.21508,0.21507 -0.21508,-0.21507 m -9.60726,0.35917 0.0731,0.14195 -0.0731,-0.14195 m 1.86467,-0.1441 0.21507,0.21507 -0.21507,-0.21507 m 7.31245,0 0.21507,0.21507 -0.21507,-0.21507 m 3.29705,0.1441 0.0731,0.14195 -0.0731,-0.14195 m -3.51212,0.071 0.21507,0.21507 -0.21507,-0.21507 m -6.88231,0.21507 0.21508,0.21508 -0.21508,-0.21508 m 6.66724,0 0.21507,0.21508 -0.21507,-0.21508 m -8.60288,0.21508 v 0.64521 h 0.21507 l -0.21507,-0.64521 m 8.31683,0.071 0.14195,0.0731 -0.14195,-0.0731 m 3.7272,-0.071 0.21507,0.21507 -0.21507,-0.21507 m -9.89331,0.21507 0.21507,0.21507 -0.21507,-0.21507 m 5.80694,0 0.21507,0.21507 -0.21507,-0.21507 m -0.43014,0.21507 0.21507,0.21507 -0.21507,-0.21507 m 4.30143,0 0.21508,0.21507 -0.21508,-0.21507 m -9.46316,0.21507 0.21507,0.21507 -0.21507,-0.21507 m 4.94665,0 0.21508,0.21507 -0.21508,-0.21507 m -7.0264,0.35917 0.0731,0.14195 -0.0731,-0.14195 m 6.74036,-0.0731 0.14195,0.0731 -0.14195,-0.0731 m 4.58748,-0.071 0.21507,0.21508 -0.21507,-0.21508 m -9.03302,0.21508 0.43014,0.64521 -0.43014,-0.64521 m 4.08637,0 0.21507,0.21507 -0.21507,-0.21507 m -0.43015,0.21507 0.21508,0.21507 -0.21508,-0.21507 m 5.16173,0 0.21507,0.21507 -0.21507,-0.21507 m -10.8977,0.35917 0.0731,0.14195 -0.0731,-0.14195 m 5.44993,-0.0731 0.14195,0.0731 -0.14195,-0.0731 m -2.86906,0.2882 0.0731,0.14195 -0.0731,-0.14195 m 2.43891,-0.0731 0.14195,0.0731 -0.14195,-0.0731 m 5.66285,-0.071 0.21507,0.21507 -0.21507,-0.21507 m -6.09299,0.28605 0.14195,0.0731 -0.14195,-0.0731 m 5.87792,-0.071 0.21507,0.21508 -0.21507,-0.21508 m -10.25248,0.35917 0.0731,0.14195 -0.0731,-0.14195 m 4.01539,-0.14409 0.21507,0.21507 -0.21507,-0.21507 m -1.5055,0.21507 0.21507,0.21507 -0.21507,-0.21507 m 1.21945,0.071 0.14195,0.0731 -0.14195,-0.0731 m 6.30806,-0.071 0.21508,0.21507 -0.21508,-0.21507 m -7.31244,0.21507 0.21507,0.21507 -0.21507,-0.21507 m 0.43014,0 0.21507,0.21507 -0.21507,-0.21507 m 6.66723,0 0.21507,0.21507 -0.21507,-0.21507 m -9.67824,0.21507 v 0.64522 h 0.21508 l -0.21508,-0.64522 m 9.46317,0 0.21507,0.21507 -0.21507,-0.21507 m -0.21507,0.21507 0.21507,0.21508 -0.21507,-0.21508 m -9.03302,0.64522 0.21507,0.21507 -0.21507,-0.21507 m 8.60288,0 0.21507,0.21507 -0.21507,-0.21507 m -8.88893,0.28605 0.14195,0.0731 -0.14195,-0.0731 m 8.67385,-0.071 0.21508,0.21507 -0.21508,-0.21507 m -9.46316,0.21507 v 0.21508 h 0.64521 l -0.64521,-0.21508 m 9.24809,0 0.21507,0.21508 -0.21507,-0.21508 m -9.89331,0.21508 v 0.21507 h 0.64522 l -0.64522,-0.21507 m 9.67824,0 0.21507,0.21507 -0.21507,-0.21507 m -10.17936,0.28604 0.14195,0.0731 -0.14195,-0.0731 m 9.96429,-0.071 0.21507,0.21507 -0.21507,-0.21507 m -10.96867,0.21507 v 0.21507 h 0.64521 l -0.64521,-0.21507 m -0.64522,0.21507 v 0.21507 h 0.64522 l -0.64522,-0.21507 m 10.96867,0 0.21507,0.21507 -0.21507,-0.21507 m -12.04403,0.21507 v 0.21508 h 0.86029 l -0.86029,-0.21508 m 11.82896,0 0.21507,0.21508 -0.21507,-0.21508 m -12.90432,0.21508 v 0.21507 h 0.86029 l -0.86029,-0.21507 m 12.68925,0 0.21507,0.21507 -0.21507,-0.21507 m -14.83997,0.21507 v 0.21507 h 1.29043 l -1.29043,-0.21507 m 14.40982,0 0.21508,0.21507 -0.21508,-0.21507 m -17.42083,0.21507 0.43015,0.43014 v -0.43014 h -0.43015 m 0.78932,0.071 0.14195,0.0731 -0.14195,-0.0731 m 0.50112,-0.071 0.21507,0.21507 -0.21507,-0.21507 m 0.57424,0.071 0.14195,0.0731 -0.14195,-0.0731 m 0.50112,-0.071 0.21507,0.21507 -0.21507,-0.21507 m 14.83996,0 0.21507,0.21507 -0.21507,-0.21507 m -0.21507,0.21507 0.21507,0.21507 -0.21507,-0.21507 m -16.56054,0.21507 0.21507,0.21508 -0.21507,-0.21508 m 16.1304,0 0.21507,0.21508 -0.21507,-0.21508 m -15.91533,0.21508 0.21507,0.21507 -0.21507,-0.21507 m 15.48518,0 0.21507,0.21507 -0.21507,-0.21507 m -15.27011,0.21507 0.21507,0.21507 -0.21507,-0.21507 m 15.05504,0 0.21507,0.21507 -0.21507,-0.21507 m -14.62489,0.21507 0.21507,0.21507 -0.21507,-0.21507 m 14.19475,0 0.21507,0.21507 -0.21507,-0.21507 m -13.97968,0.21507 0.21507,0.21507 -0.21507,-0.21507 m 13.47856,0.071 0.14195,0.0731 -0.14195,-0.0731 m -13.04842,0.1441 0.64522,0.43015 -0.64522,-0.43015 m 12.61827,0.071 0.14195,0.0731 -0.14195,-0.0731 m -0.64521,0.21507 0.14195,0.0731 -0.14195,-0.0731 m -11.11277,0.1441 0.21507,0.21507 -0.21507,-0.21507 m 10.68262,0.071 0.14195,0.0731 -0.14195,-0.0731 m -10.10838,0.21507 0.14195,0.0731 -0.14195,-0.0731 m 9.46317,0 0.14195,0.0731 -0.14195,-0.0731 m -8.81795,0.21507 0.14195,0.0731 -0.14195,-0.0731 m 7.81356,-0.071 v 0.21507 h 0.64522 l -0.64522,-0.21507 m -7.31244,0.21507 v 0.21507 h 0.64521 l -0.64521,-0.21507 m 6.81132,0.071 0.14195,0.0731 -0.14195,-0.0731 m -5.73596,0.14409 v 0.21508 h 0.86028 l -0.86028,-0.21508 m 3.44115,0 0.21507,0.21508 -0.21507,-0.21508 m 0.43014,0 v 0.21508 h 1.29043 l -1.29043,-0.21508 m -2.58086,0.21508 0.21507,0.21507 -0.21507,-0.21507 m 0.43014,0 v 0.21507 h 0.86029 l -0.86029,-0.21507 m 1.21946,0.071 0.14195,0.0731 z"
         id="path50" />
      <path
         style="fill:#d8de3f;fill-opacity:1;stroke:none;stroke-width:0.215072"
         d="m 202.43329,273.39551 v -89.25487 -26.66892 -7.95766 c 0,-1.12268 0.24303,-2.58302 -0.12689,-3.65623 -0.51833,-1.50765 -2.17438,-2.93358 -3.20888,-4.12293 -2.64753,-3.04542 -5.42411,-5.92738 -8.27812,-8.78139 -12.80108,-12.80108 -29.06052,-22.94989 -46.24047,-28.67619 -13.15165,-4.383593 -27.16574,-6.723576 -41.04218,-5.701984 -18.455328,1.35861 -36.48051,7.624084 -51.438765,18.626304 -29.669178,21.81906 -45.9630307,60.78149 -43.4638944,97.26415 1.0667569,15.56046 3.6411684,30.27783 9.1771204,44.95004 1.286131,3.41534 2.709907,6.84144 4.338002,10.10838 0.492515,0.98503 1.036647,2.99166 1.924894,3.64978 0.767807,0.56779 2.591617,0.22152 3.505673,0.22152 h 8.817951 34.411515 z m -89.46994,-163.02455 0.21507,0.21507 z m 12.68925,15.97769 c 20.23827,-2.3959 35.81378,18.56072 30.44774,37.36016 -3.39169,11.88702 -13.71084,19.5952 -25.71616,21.01468 -19.89846,2.35719 -35.47612,-17.79721 -30.776798,-36.49987 3.103488,-12.35803 13.712988,-20.41678 26.045218,-21.87497 m -57.854362,24.51821 c 20.238272,-2.3959 35.813782,18.56071 30.447739,37.36015 -3.391685,11.88918 -13.712989,19.59521 -25.716156,21.01468 -19.898458,2.35719 -35.476121,-17.7972 -30.776798,-36.49986 3.103488,-12.35804 13.712989,-20.41678 26.045215,-21.87497 z m 45.165112,42.09173 v 0.21508 l 2.36579,0.21507 -2.36579,-0.43015 m -1.93565,0.43015 v 0.21507 l 1.72058,-0.21507 z m 1.72058,-0.12044 c -3.32931,0.52047 -6.55109,2.32062 -7.97702,5.49724 -2.33568,5.20044 2.81529,8.62223 7.54688,7.86303 3.12714,-0.50327 6.37903,-2.49699 7.64365,-5.49724 2.10986,-5.01118 -2.43891,-8.60933 -7.21351,-7.86303 z m 2.79594,-0.0946 v 0.21507 h 0.86028 l -0.86028,-0.21507 m 1.21945,0.28604 0.14195,0.0731 -0.14195,-0.0731 m -6.23708,0.21507 0.14194,0.0731 -0.14194,-0.0731 m 6.66723,0 0.14194,0.0731 -0.14194,-0.0731 m -7.45655,0.1441 v 0.21507 h 0.64522 l -0.64522,-0.21507 m 7.88669,0.071 0.14195,0.0731 -0.14195,-0.0731 m -8.17273,0.21507 0.14194,0.0731 -0.14194,-0.0731 m 8.60287,0 0.14195,0.0731 -0.14195,-0.0731 m -9.03302,0.21507 0.14195,0.0731 -0.14195,-0.0731 m 9.31907,-0.071 0.21507,0.21507 -0.21507,-0.21507 m -9.67824,0.21507 0.21507,0.21507 -0.21507,-0.21507 m 10.03741,0.071 0.14195,0.0731 -0.14195,-0.0731 m -10.46755,0.1441 0.21507,0.21507 -0.21507,-0.21507 m 10.7536,0 v 0.43014 h 0.43014 l -0.43014,-0.43014 m -11.18375,0.21507 0.21508,0.21507 -0.21508,-0.21507 m -0.21507,0.21507 0.21507,0.21508 -0.21507,-0.21508 m 4.74019,0.16131 c -1.52486,0.58929 -1.46249,3.34652 0.41939,2.68625 1.641,-0.57855 1.57002,-3.45621 -0.41939,-2.68625 m -4.95526,0.0538 0.21507,0.21507 -0.21507,-0.21507 m 12.04403,0 0.21507,0.21507 -0.21507,-0.21507 m -12.47417,0.21507 0.21507,0.21507 -0.21507,-0.21507 m 12.68924,0 0.21507,0.21507 z m -7.28233,0.4495 c -0.98718,0.49466 -0.52263,2.1034 0.56779,1.47539 0.88394,-0.50972 0.4753,-1.99802 -0.56779,-1.47539 z m 7.56838,-0.0903 0.0731,0.14195 -0.0731,-0.14195 m -13.40544,0.071 0.21507,0.21507 -0.21507,-0.21507 m -0.21507,0.21507 0.21507,0.21508 -0.21507,-0.21508 m 13.83558,0.1441 0.0731,0.14195 -0.0731,-0.14195 m -14.05065,0.071 0.21507,0.21507 -0.21507,-0.21507 m 25.16342,0 0.21507,0.21507 z m -18.49619,0.21507 v 0.43014 h -0.43014 v -0.43014 z m 7.52752,0.21507 v 0.64522 h 0.21507 l -0.21507,-0.64522 m -14.6249,0.21507 0.21508,0.21507 -0.21508,-0.21507 m -0.21507,0.21507 0.21507,0.21508 -0.21507,-0.21508 m 16.56054,0 0.21508,0.21508 -0.21508,-0.21508 m -16.77561,0.43015 0.21507,0.21507 -0.21507,-0.21507 m 15.27011,0 v 1.5055 h 0.21507 l -0.21507,-1.5055 m -15.48518,0.21507 0.21507,0.21507 -0.21507,-0.21507 m -0.21507,0.43014 0.21507,0.21508 -0.21507,-0.21508 m -0.21508,0.43015 0.21508,0.21507 -0.21508,-0.21507 m -0.14409,0.57424 0.0731,0.14195 -0.0731,-0.14195 m 15.91532,0.64522 0.0731,0.14194 -0.0731,-0.14194 m -16.20137,0.071 v 0.64521 h 0.21507 l -0.21507,-0.64521 m 15.91533,0.43014 0.21507,0.21507 -0.21507,-0.21507 m -0.21508,0.64522 0.21508,0.21507 -0.21508,-0.21507 m -0.21507,0.43014 0.21507,0.21507 -0.21507,-0.21507 m -15.48518,0.43015 v 0.64521 h 0.21507 l -0.21507,-0.64521 m 15.05504,0.21507 0.21507,0.21507 -0.21507,-0.21507 m -14.76899,0.78931 0.0731,0.14195 -0.0731,-0.14195 m 14.33884,-0.1441 0.21508,0.21508 -0.21508,-0.21508 m -0.21507,0.21508 0.21507,0.21507 -0.21507,-0.21507 m -0.21507,0.21507 0.21507,0.21507 -0.21507,-0.21507 m -13.76461,0.21507 0.21508,0.21507 -0.21508,-0.21507 m 13.54954,0 0.21507,0.21507 -0.21507,-0.21507 m -0.21507,0.21507 0.21507,0.21507 -0.21507,-0.21507 m -13.11939,0.21507 0.21507,0.21508 -0.21507,-0.21508 m 12.90431,0 0.21508,0.21508 -0.21508,-0.21508 m -12.68924,0.21508 0.21507,0.21507 -0.21507,-0.21507 m 12.47417,0 0.21507,0.21507 -0.21507,-0.21507 m -0.21507,0.21507 0.21507,0.21507 -0.21507,-0.21507 m -12.04403,0.21507 0.21507,0.21507 -0.21507,-0.21507 m 0.21507,0.21507 0.21507,0.21507 -0.21507,-0.21507 m 11.18374,0 0.21508,0.21507 -0.21508,-0.21507 m -10.96867,0.21507 0.21508,0.21508 -0.21508,-0.21508 m 10.53853,0 0.21507,0.21508 -0.21507,-0.21508 m -10.32345,0.21508 0.21507,0.21507 -0.21507,-0.21507 m 10.10838,0 0.21507,0.21507 -0.21507,-0.21507 m -9.74921,0.28604 0.14194,0.0731 -0.14194,-0.0731 m 9.31907,-0.071 0.21507,0.21507 -0.21507,-0.21507 m -9.03303,0.21507 0.21507,0.21507 -0.21507,-0.21507 m 8.60288,0 0.21507,0.21507 -0.21507,-0.21507 m -8.17273,0.21507 0.21507,0.21507 -0.21507,-0.21507 m 7.74259,0 0.21507,0.21507 -0.21507,-0.21507 m -7.38342,0.28605 0.14194,0.0731 -0.14194,-0.0731 m 6.52313,-0.071 v 0.21508 h 0.64522 l -0.64522,-0.21508 m -6.02202,0.21508 0.21508,0.21507 -0.21508,-0.21507 m 5.59188,0 0.21507,0.21507 -0.21507,-0.21507 m -4.94666,0.21507 v 0.21507 h 0.64522 l -0.64522,-0.21507 m 3.8713,0 v 0.21507 h 0.64521 l -0.64521,-0.21507 m -2.58087,0.21507 v 0.21507 h 1.93565 l -1.93565,-0.21507 m 6.02202,1.07536 0.21507,1.5055 h 0.21507 z m 0.43014,1.07536 c 0.64092,4.34015 2.51634,9.23304 4.08637,13.33446 -3.4218,1.31839 -7.27374,2.31203 -10.96867,1.93565 1.28828,2.63463 5.93598,3.20242 8.54051,2.96154 6.71239,-0.62156 13.72804,-5.10366 14.04204,-12.42471 -2.29911,1.31624 -4.12293,3.61321 -6.45215,5.03054 -0.65812,0.40003 -1.74424,1.27322 -2.55936,1.17214 -1.06246,-0.1312 -1.60229,-2.17223 -2.02168,-2.9766 -1.54421,-2.95939 -2.80454,-6.26504 -4.66706,-9.03302 z"
         id="path48" />
      <path
         style="fill:#d8de3f;fill-opacity:1;stroke:none;stroke-width:0.215072"
         d="m 202.43329,273.39551 v -89.25487 -26.66892 -7.95766 c 0,-1.12268 0.24303,-2.58302 -0.12689,-3.65623 -0.51833,-1.50765 -2.17438,-2.93358 -3.20888,-4.12293 -2.64753,-3.04542 -5.42411,-5.92738 -8.27812,-8.78139 -12.80108,-12.80108 -29.06052,-22.94989 -46.24047,-28.67619 -13.15165,-4.383593 -27.16574,-6.723576 -41.04218,-5.701984 -18.455328,1.35861 -36.48051,7.624084 -51.438765,18.626304 -29.669178,21.81906 -45.9630307,60.78149 -43.4638944,97.26415 1.0667569,15.56046 3.6411684,30.27783 9.1771204,44.95004 1.286131,3.41534 2.709907,6.84144 4.338002,10.10838 0.492515,0.98503 1.036647,2.99166 1.924894,3.64978 0.767807,0.56779 2.591617,0.22152 3.505673,0.22152 h 8.817951 34.411515 z m -89.46994,-163.02455 0.21507,0.21507 z m 12.68925,15.97769 c 20.23827,-2.3959 35.81378,18.56072 30.44774,37.36016 -3.39169,11.88702 -13.71084,19.5952 -25.71616,21.01468 -19.89846,2.35719 -35.47612,-17.79721 -30.776798,-36.49987 3.103488,-12.35803 13.712988,-20.41678 26.045218,-21.87497 m -57.854362,24.51821 c 20.238272,-2.3959 35.813782,18.56071 30.447739,37.36015 -3.391685,11.88918 -13.712989,19.59521 -25.716156,21.01468 -19.898458,2.35719 -35.476121,-17.7972 -30.776798,-36.49986 3.103488,-12.35804 13.712989,-20.41678 26.045215,-21.87497 z m 45.165112,42.09173 v 0.21508 l 2.36579,0.21507 -2.36579,-0.43015 m -1.93565,0.43015 v 0.21507 l 1.72058,-0.21507 z m 1.72058,-0.12044 c -3.32931,0.52047 -6.55109,2.32062 -7.97702,5.49724 -2.33568,5.20044 2.81529,8.62223 7.54688,7.86303 3.12714,-0.50327 6.37903,-2.49699 7.64365,-5.49724 2.10986,-5.01118 -2.43891,-8.60933 -7.21351,-7.86303 z m 2.79594,-0.0946 v 0.21507 h 0.86028 l -0.86028,-0.21507 m 1.21945,0.28604 0.14195,0.0731 -0.14195,-0.0731 m -6.23708,0.21507 0.14194,0.0731 -0.14194,-0.0731 m 6.66723,0 0.14194,0.0731 -0.14194,-0.0731 m -7.45655,0.1441 v 0.21507 h 0.64522 l -0.64522,-0.21507 m 7.88669,0.071 0.14195,0.0731 -0.14195,-0.0731 m -8.17273,0.21507 0.14194,0.0731 -0.14194,-0.0731 m 8.60287,0 0.14195,0.0731 -0.14195,-0.0731 m -9.03302,0.21507 0.14195,0.0731 -0.14195,-0.0731 m 9.31907,-0.071 0.21507,0.21507 -0.21507,-0.21507 m -9.67824,0.21507 0.21507,0.21507 -0.21507,-0.21507 m 10.03741,0.071 0.14195,0.0731 -0.14195,-0.0731 m -10.46755,0.1441 0.21507,0.21507 -0.21507,-0.21507 m 10.7536,0 v 0.43014 h 0.43014 l -0.43014,-0.43014 m -11.18375,0.21507 0.21508,0.21507 -0.21508,-0.21507 m -0.21507,0.21507 0.21507,0.21508 -0.21507,-0.21508 m 4.74019,0.16131 c -1.52486,0.58929 -1.46249,3.34652 0.41939,2.68625 1.641,-0.57855 1.57002,-3.45621 -0.41939,-2.68625 m -4.95526,0.0538 0.21507,0.21507 -0.21507,-0.21507 m 12.04403,0 0.21507,0.21507 -0.21507,-0.21507 m -12.47417,0.21507 0.21507,0.21507 -0.21507,-0.21507 m 12.68924,0 0.21507,0.21507 z m -7.28233,0.4495 c -0.98718,0.49466 -0.52263,2.1034 0.56779,1.47539 0.88394,-0.50972 0.4753,-1.99802 -0.56779,-1.47539 z m 7.56838,-0.0903 0.0731,0.14195 -0.0731,-0.14195 m -13.40544,0.071 0.21507,0.21507 -0.21507,-0.21507 m -0.21507,0.21507 0.21507,0.21508 -0.21507,-0.21508 m 13.83558,0.1441 0.0731,0.14195 -0.0731,-0.14195 m -14.05065,0.071 0.21507,0.21507 -0.21507,-0.21507 m 25.16342,0 0.21507,0.21507 z m -18.49619,0.21507 v 0.43014 h -0.43014 v -0.43014 z m 7.52752,0.21507 v 0.64522 h 0.21507 l -0.21507,-0.64522 m -14.6249,0.21507 0.21508,0.21507 -0.21508,-0.21507 m -0.21507,0.21507 0.21507,0.21508 -0.21507,-0.21508 m 16.56054,0 0.21508,0.21508 -0.21508,-0.21508 m -16.77561,0.43015 0.21507,0.21507 -0.21507,-0.21507 m 15.27011,0 v 1.5055 h 0.21507 l -0.21507,-1.5055 m -15.48518,0.21507 0.21507,0.21507 -0.21507,-0.21507 m -0.21507,0.43014 0.21507,0.21508 -0.21507,-0.21508 m -0.21508,0.43015 0.21508,0.21507 -0.21508,-0.21507 m -0.14409,0.57424 0.0731,0.14195 -0.0731,-0.14195 m 15.91532,0.64522 0.0731,0.14194 -0.0731,-0.14194 m -16.20137,0.071 v 0.64521 h 0.21507 l -0.21507,-0.64521 m 15.91533,0.43014 0.21507,0.21507 -0.21507,-0.21507 m -0.21508,0.64522 0.21508,0.21507 -0.21508,-0.21507 m -0.21507,0.43014 0.21507,0.21507 -0.21507,-0.21507 m -15.48518,0.43015 v 0.64521 h 0.21507 l -0.21507,-0.64521 m 15.05504,0.21507 0.21507,0.21507 -0.21507,-0.21507 m -14.76899,0.78931 0.0731,0.14195 -0.0731,-0.14195 m 14.33884,-0.1441 0.21508,0.21508 -0.21508,-0.21508 m -0.21507,0.21508 0.21507,0.21507 -0.21507,-0.21507 m -0.21507,0.21507 0.21507,0.21507 -0.21507,-0.21507 m -13.76461,0.21507 0.21508,0.21507 -0.21508,-0.21507 m 13.54954,0 0.21507,0.21507 -0.21507,-0.21507 m -0.21507,0.21507 0.21507,0.21507 -0.21507,-0.21507 m -13.11939,0.21507 0.21507,0.21508 -0.21507,-0.21508 m 12.90431,0 0.21508,0.21508 -0.21508,-0.21508 m -12.68924,0.21508 0.21507,0.21507 -0.21507,-0.21507 m 12.47417,0 0.21507,0.21507 -0.21507,-0.21507 m -0.21507,0.21507 0.21507,0.21507 -0.21507,-0.21507 m -12.04403,0.21507 0.21507,0.21507 -0.21507,-0.21507 m 0.21507,0.21507 0.21507,0.21507 -0.21507,-0.21507 m 11.18374,0 0.21508,0.21507 -0.21508,-0.21507 m -10.96867,0.21507 0.21508,0.21508 -0.21508,-0.21508 m 10.53853,0 0.21507,0.21508 -0.21507,-0.21508 m -10.32345,0.21508 0.21507,0.21507 -0.21507,-0.21507 m 10.10838,0 0.21507,0.21507 -0.21507,-0.21507 m -9.74921,0.28604 0.14194,0.0731 -0.14194,-0.0731 m 9.31907,-0.071 0.21507,0.21507 -0.21507,-0.21507 m -9.03303,0.21507 0.21507,0.21507 -0.21507,-0.21507 m 8.60288,0 0.21507,0.21507 -0.21507,-0.21507 m -8.17273,0.21507 0.21507,0.21507 -0.21507,-0.21507 m 7.74259,0 0.21507,0.21507 -0.21507,-0.21507 m -7.38342,0.28605 0.14194,0.0731 -0.14194,-0.0731 m 6.52313,-0.071 v 0.21508 h 0.64522 l -0.64522,-0.21508 m -6.02202,0.21508 0.21508,0.21507 -0.21508,-0.21507 m 5.59188,0 0.21507,0.21507 -0.21507,-0.21507 m -4.94666,0.21507 v 0.21507 h 0.64522 l -0.64522,-0.21507 m 3.8713,0 v 0.21507 h 0.64521 l -0.64521,-0.21507 m -2.58087,0.21507 v 0.21507 h 1.93565 l -1.93565,-0.21507 m 6.02202,1.07536 0.21507,1.5055 h 0.21507 z"
         id="path46" />
      <path
         style="fill:#d8de3f;fill-opacity:1;stroke:none;stroke-width:0.215072"
         d="m 202.43329,273.39551 v -89.25487 -26.66892 -7.95766 c 0,-1.12268 0.24303,-2.58302 -0.12689,-3.65623 -0.51833,-1.50765 -2.17438,-2.93358 -3.20888,-4.12293 -2.64753,-3.04542 -5.42411,-5.92738 -8.27812,-8.78139 -12.80108,-12.80108 -29.06052,-22.94989 -46.24047,-28.67619 -13.15165,-4.383593 -27.16574,-6.723576 -41.04218,-5.701984 -18.455328,1.35861 -36.48051,7.624084 -51.438765,18.626304 -29.669178,21.81906 -45.9630307,60.78149 -43.4638944,97.26415 1.0667569,15.56046 3.6411684,30.27783 9.1771204,44.95004 1.286131,3.41534 2.709907,6.84144 4.338002,10.10838 0.492515,0.98503 1.036647,2.99166 1.924894,3.64978 0.767807,0.56779 2.591617,0.22152 3.505673,0.22152 h 8.817951 34.411515 z m -89.46994,-163.02455 0.21507,0.21507 z m 12.68925,15.97769 c 20.23827,-2.3959 35.81378,18.56072 30.44774,37.36016 -3.39169,11.88702 -13.71084,19.5952 -25.71616,21.01468 -19.89846,2.35719 -35.47612,-17.79721 -30.776798,-36.49987 3.103488,-12.35803 13.712988,-20.41678 26.045218,-21.87497 m -57.854362,24.51821 c 20.238272,-2.3959 35.813782,18.56071 30.447739,37.36015 -3.391685,11.88918 -13.712989,19.59521 -25.716156,21.01468 -19.898458,2.35719 -35.476121,-17.7972 -30.776798,-36.49986 3.103488,-12.35804 13.712989,-20.41678 26.045215,-21.87497 z m 45.165112,42.09173 v 0.21508 l 2.36579,0.21507 -2.36579,-0.43015 m -1.93565,0.43015 v 0.21507 l 1.72058,-0.21507 z m 1.72058,-0.12044 c -3.32931,0.52047 -6.55109,2.32062 -7.97702,5.49724 -2.33568,5.20044 2.81529,8.62223 7.54688,7.86303 3.12714,-0.50327 6.37903,-2.49699 7.64365,-5.49724 2.10986,-5.01118 -2.43891,-8.60933 -7.21351,-7.86303 z m 2.79594,-0.0946 v 0.21507 h 0.86028 l -0.86028,-0.21507 m 1.21945,0.28604 0.14195,0.0731 -0.14195,-0.0731 m -6.23708,0.21507 0.14194,0.0731 -0.14194,-0.0731 m 6.66723,0 0.14194,0.0731 -0.14194,-0.0731 m -7.45655,0.1441 v 0.21507 h 0.64522 l -0.64522,-0.21507 m 7.88669,0.071 0.14195,0.0731 -0.14195,-0.0731 m -8.17273,0.21507 0.14194,0.0731 -0.14194,-0.0731 m 8.60287,0 0.14195,0.0731 -0.14195,-0.0731 m -9.03302,0.21507 0.14195,0.0731 -0.14195,-0.0731 m 9.31907,-0.071 0.21507,0.21507 -0.21507,-0.21507 m -9.67824,0.21507 0.21507,0.21507 -0.21507,-0.21507 m 10.03741,0.071 0.14195,0.0731 -0.14195,-0.0731 m -10.46755,0.1441 0.21507,0.21507 -0.21507,-0.21507 m 10.7536,0 v 0.43014 h 0.43014 l -0.43014,-0.43014 m -11.18375,0.21507 0.21508,0.21507 -0.21508,-0.21507 m -0.21507,0.21507 0.21507,0.21508 -0.21507,-0.21508 m 4.74019,0.16131 c -1.52486,0.58929 -1.46249,3.34652 0.41939,2.68625 1.641,-0.57855 1.57002,-3.45621 -0.41939,-2.68625 m -4.95526,0.0538 0.21507,0.21507 -0.21507,-0.21507 m 12.04403,0 0.21507,0.21507 -0.21507,-0.21507 m -12.47417,0.21507 0.21507,0.21507 -0.21507,-0.21507 m 12.68924,0 0.21507,0.21507 z m -7.28233,0.4495 c -0.98718,0.49466 -0.52263,2.1034 0.56779,1.47539 0.88394,-0.50972 0.4753,-1.99802 -0.56779,-1.47539 z m 7.56838,-0.0903 0.0731,0.14195 -0.0731,-0.14195 m -13.40544,0.071 0.21507,0.21507 -0.21507,-0.21507 m -0.21507,0.21507 0.21507,0.21508 -0.21507,-0.21508 m 13.83558,0.1441 0.0731,0.14195 -0.0731,-0.14195 m -14.05065,0.071 0.21507,0.21507 -0.21507,-0.21507 m 25.16342,0 0.21507,0.21507 z m -18.49619,0.21507 v 0.43014 h -0.43014 v -0.43014 z"
         id="path44" />
      <path
         style="fill:#d8de3f;fill-opacity:1;stroke:none;stroke-width:0.215072"
         d="m 202.43329,273.39551 v -89.25487 -26.66892 -7.95766 c 0,-1.12268 0.24303,-2.58302 -0.12689,-3.65623 -0.51833,-1.50765 -2.17438,-2.93358 -3.20888,-4.12293 -2.64753,-3.04542 -5.42411,-5.92738 -8.27812,-8.78139 -12.80108,-12.80108 -29.06052,-22.94989 -46.24047,-28.67619 -13.15165,-4.383593 -27.16574,-6.723576 -41.04218,-5.701984 -18.455328,1.35861 -36.48051,7.624084 -51.438765,18.626304 -29.669178,21.81906 -45.9630307,60.78149 -43.4638944,97.26415 1.0667569,15.56046 3.6411684,30.27783 9.1771204,44.95004 1.286131,3.41534 2.709907,6.84144 4.338002,10.10838 0.492515,0.98503 1.036647,2.99166 1.924894,3.64978 0.767807,0.56779 2.591617,0.22152 3.505673,0.22152 h 8.817951 34.411515 z m -89.46994,-163.02455 0.21507,0.21507 z m 12.68925,15.97769 c 20.23827,-2.3959 35.81378,18.56072 30.44774,37.36016 -3.39169,11.88702 -13.71084,19.5952 -25.71616,21.01468 -19.89846,2.35719 -35.47612,-17.79721 -30.776798,-36.49987 3.103488,-12.35803 13.712988,-20.41678 26.045218,-21.87497 m -57.854362,24.51821 c 20.238272,-2.3959 35.813782,18.56071 30.447739,37.36015 -3.391685,11.88918 -13.712989,19.59521 -25.716156,21.01468 -19.898458,2.35719 -35.476121,-17.7972 -30.776798,-36.49986 3.103488,-12.35804 13.712989,-20.41678 26.045215,-21.87497 z m 45.165112,42.09173 v 0.21508 l 2.36579,0.21507 -2.36579,-0.43015 m -1.93565,0.43015 v 0.21507 l 1.72058,-0.21507 z m 1.72058,-0.12044 c -3.32931,0.52047 -6.55109,2.32062 -7.97702,5.49724 -2.33568,5.20044 2.81529,8.62223 7.54688,7.86303 3.12714,-0.50327 6.37903,-2.49699 7.64365,-5.49724 2.10986,-5.01118 -2.43891,-8.60933 -7.21351,-7.86303 z m 2.79594,-0.0946 v 0.21507 h 0.86028 l -0.86028,-0.21507 m 1.21945,0.28604 0.14195,0.0731 -0.14195,-0.0731 m -6.23708,0.21507 0.14194,0.0731 -0.14194,-0.0731 m 6.66723,0 0.14194,0.0731 -0.14194,-0.0731 m -7.45655,0.1441 v 0.21507 h 0.64522 l -0.64522,-0.21507 m 7.88669,0.071 0.14195,0.0731 -0.14195,-0.0731 m -8.17273,0.21507 0.14194,0.0731 -0.14194,-0.0731 m 8.60287,0 0.14195,0.0731 -0.14195,-0.0731 m -9.03302,0.21507 0.14195,0.0731 -0.14195,-0.0731 m 9.31907,-0.071 0.21507,0.21507 -0.21507,-0.21507 m -9.67824,0.21507 0.21507,0.21507 -0.21507,-0.21507 m 10.03741,0.071 0.14195,0.0731 -0.14195,-0.0731 m -10.46755,0.1441 0.21507,0.21507 -0.21507,-0.21507 m 10.7536,0 v 0.43014 h 0.43014 l -0.43014,-0.43014 m -11.18375,0.21507 0.21508,0.21507 -0.21508,-0.21507 m -0.21507,0.21507 0.21507,0.21508 -0.21507,-0.21508 m 4.74019,0.16131 c -1.52486,0.58929 -1.46249,3.34652 0.41939,2.68625 1.641,-0.57855 1.57002,-3.45621 -0.41939,-2.68625 m -4.95526,0.0538 0.21507,0.21507 -0.21507,-0.21507 m 12.04403,0 0.21507,0.21507 -0.21507,-0.21507 m -12.47417,0.21507 0.21507,0.21507 -0.21507,-0.21507 m 12.68924,0 0.21507,0.21507 z m -7.28233,0.4495 c -0.98718,0.49466 -0.52263,2.1034 0.56779,1.47539 0.88394,-0.50972 0.4753,-1.99802 -0.56779,-1.47539 z m 7.56838,-0.0903 0.0731,0.14195 -0.0731,-0.14195 m -13.40544,0.071 0.21507,0.21507 -0.21507,-0.21507 m -0.21507,0.21507 0.21507,0.21508 -0.21507,-0.21508 m 13.83558,0.1441 0.0731,0.14195 -0.0731,-0.14195 m -14.05065,0.071 0.21507,0.21507 -0.21507,-0.21507 m 25.16342,0 0.21507,0.21507 z"
         id="path42" />
      <path
         style="fill:#d8de3f;fill-opacity:1;stroke:none;stroke-width:0.215072"
         d="m 202.43329,273.39551 v -89.25487 -26.66892 -7.95766 c 0,-1.12268 0.24303,-2.58302 -0.12689,-3.65623 -0.51833,-1.50765 -2.17438,-2.93358 -3.20888,-4.12293 -2.64753,-3.04542 -5.42411,-5.92738 -8.27812,-8.78139 -12.80108,-12.80108 -29.06052,-22.94989 -46.24047,-28.67619 -13.15165,-4.383593 -27.16574,-6.723576 -41.04218,-5.701984 -18.455328,1.35861 -36.48051,7.624084 -51.438765,18.626304 -29.669178,21.81906 -45.9630307,60.78149 -43.4638944,97.26415 1.0667569,15.56046 3.6411684,30.27783 9.1771204,44.95004 1.286131,3.41534 2.709907,6.84144 4.338002,10.10838 0.492515,0.98503 1.036647,2.99166 1.924894,3.64978 0.767807,0.56779 2.591617,0.22152 3.505673,0.22152 h 8.817951 34.411515 z m -89.46994,-163.02455 0.21507,0.21507 z m 12.68925,15.97769 c 20.23827,-2.3959 35.81378,18.56072 30.44774,37.36016 -3.39169,11.88702 -13.71084,19.5952 -25.71616,21.01468 -19.89846,2.35719 -35.47612,-17.79721 -30.776798,-36.49987 3.103488,-12.35803 13.712988,-20.41678 26.045218,-21.87497 m -57.854362,24.51821 c 20.238272,-2.3959 35.813782,18.56071 30.447739,37.36015 -3.391685,11.88918 -13.712989,19.59521 -25.716156,21.01468 -19.898458,2.35719 -35.476121,-17.7972 -30.776798,-36.49986 3.103488,-12.35804 13.712989,-20.41678 26.045215,-21.87497 z m 45.165112,42.09173 v 0.21508 l 2.36579,0.21507 -2.36579,-0.43015 m -1.93565,0.43015 v 0.21507 l 1.72058,-0.21507 z m 1.72058,-0.12044 c -3.32931,0.52047 -6.55109,2.32062 -7.97702,5.49724 -2.33568,5.20044 2.81529,8.62223 7.54688,7.86303 3.12714,-0.50327 6.37903,-2.49699 7.64365,-5.49724 2.10986,-5.01118 -2.43891,-8.60933 -7.21351,-7.86303 z m 2.79594,-0.0946 v 0.21507 h 0.86028 l -0.86028,-0.21507 m 1.21945,0.28604 0.14195,0.0731 -0.14195,-0.0731 m -6.23708,0.21507 0.14194,0.0731 -0.14194,-0.0731 m 6.66723,0 0.14194,0.0731 -0.14194,-0.0731 m -7.45655,0.1441 v 0.21507 h 0.64522 l -0.64522,-0.21507 m 7.88669,0.071 0.14195,0.0731 -0.14195,-0.0731 m -8.17273,0.21507 0.14194,0.0731 -0.14194,-0.0731 m 8.60287,0 0.14195,0.0731 -0.14195,-0.0731 m -9.03302,0.21507 0.14195,0.0731 -0.14195,-0.0731 m 9.31907,-0.071 0.21507,0.21507 -0.21507,-0.21507 m -9.67824,0.21507 0.21507,0.21507 -0.21507,-0.21507 m 10.03741,0.071 0.14195,0.0731 -0.14195,-0.0731 m -10.46755,0.1441 0.21507,0.21507 -0.21507,-0.21507 m 10.7536,0 v 0.43014 h 0.43014 l -0.43014,-0.43014 m -11.18375,0.21507 0.21508,0.21507 -0.21508,-0.21507 m -0.21507,0.21507 0.21507,0.21508 -0.21507,-0.21508 m 4.74019,0.16131 c -1.52486,0.58929 -1.46249,3.34652 0.41939,2.68625 1.641,-0.57855 1.57002,-3.45621 -0.41939,-2.68625 m -4.95526,0.0538 0.21507,0.21507 -0.21507,-0.21507 m 12.04403,0 0.21507,0.21507 -0.21507,-0.21507 m -12.47417,0.21507 0.21507,0.21507 -0.21507,-0.21507 m 12.68924,0 0.21507,0.21507 z m -7.28233,0.4495 c -0.98718,0.49466 -0.52263,2.1034 0.56779,1.47539 0.88394,-0.50972 0.4753,-1.99802 -0.56779,-1.47539 z"
         id="path40" />
      <path
         style="fill:#d8de3f;fill-opacity:1;stroke:none;stroke-width:0.215072"
         d="m 202.43329,273.39551 v -89.25487 -26.66892 -7.95766 c 0,-1.12268 0.24303,-2.58302 -0.12689,-3.65623 -0.51833,-1.50765 -2.17438,-2.93358 -3.20888,-4.12293 -2.64753,-3.04542 -5.42411,-5.92738 -8.27812,-8.78139 -12.80108,-12.80108 -29.06052,-22.94989 -46.24047,-28.67619 -13.15165,-4.383593 -27.16574,-6.723576 -41.04218,-5.701984 -18.455328,1.35861 -36.48051,7.624084 -51.438765,18.626304 -29.669178,21.81906 -45.9630307,60.78149 -43.4638944,97.26415 1.0667569,15.56046 3.6411684,30.27783 9.1771204,44.95004 1.286131,3.41534 2.709907,6.84144 4.338002,10.10838 0.492515,0.98503 1.036647,2.99166 1.924894,3.64978 0.767807,0.56779 2.591617,0.22152 3.505673,0.22152 h 8.817951 34.411515 z m -89.46994,-163.02455 0.21507,0.21507 z m 12.68925,15.97769 c 20.23827,-2.3959 35.81378,18.56072 30.44774,37.36016 -3.39169,11.88702 -13.71084,19.5952 -25.71616,21.01468 -19.89846,2.35719 -35.47612,-17.79721 -30.776798,-36.49987 3.103488,-12.35803 13.712988,-20.41678 26.045218,-21.87497 m -57.854362,24.51821 c 20.238272,-2.3959 35.813782,18.56071 30.447739,37.36015 -3.391685,11.88918 -13.712989,19.59521 -25.716156,21.01468 -19.898458,2.35719 -35.476121,-17.7972 -30.776798,-36.49986 3.103488,-12.35804 13.712989,-20.41678 26.045215,-21.87497 z m 45.165112,42.09173 v 0.21508 l 2.36579,0.21507 -2.36579,-0.43015 m -1.93565,0.43015 v 0.21507 l 1.72058,-0.21507 z m 1.72058,-0.12044 c -3.32931,0.52047 -6.55109,2.32062 -7.97702,5.49724 -2.33568,5.20044 2.81529,8.62223 7.54688,7.86303 3.12714,-0.50327 6.37903,-2.49699 7.64365,-5.49724 2.10986,-5.01118 -2.43891,-8.60933 -7.21351,-7.86303 z m 2.79594,-0.0946 v 0.21507 h 0.86028 l -0.86028,-0.21507 m 1.21945,0.28604 0.14195,0.0731 -0.14195,-0.0731 m -6.23708,0.21507 0.14194,0.0731 -0.14194,-0.0731 m 6.66723,0 0.14194,0.0731 -0.14194,-0.0731 m -7.45655,0.1441 v 0.21507 h 0.64522 l -0.64522,-0.21507 m 7.88669,0.071 0.14195,0.0731 -0.14195,-0.0731 m -8.17273,0.21507 0.14194,0.0731 -0.14194,-0.0731 m 8.60287,0 0.14195,0.0731 -0.14195,-0.0731 m -9.03302,0.21507 0.14195,0.0731 -0.14195,-0.0731 m 9.31907,-0.071 0.21507,0.21507 -0.21507,-0.21507 m -9.67824,0.21507 0.21507,0.21507 -0.21507,-0.21507 m 10.03741,0.071 0.14195,0.0731 -0.14195,-0.0731 m -10.46755,0.1441 0.21507,0.21507 -0.21507,-0.21507 m 10.7536,0 v 0.43014 h 0.43014 l -0.43014,-0.43014 m -11.18375,0.21507 0.21508,0.21507 -0.21508,-0.21507 m -0.21507,0.21507 0.21507,0.21508 -0.21507,-0.21508 m 4.74019,0.16131 c -1.52486,0.58929 -1.46249,3.34652 0.41939,2.68625 1.641,-0.57855 1.57002,-3.45621 -0.41939,-2.68625 m -4.95526,0.0538 0.21507,0.21507 -0.21507,-0.21507 m 12.04403,0 0.21507,0.21507 -0.21507,-0.21507 m -12.47417,0.21507 0.21507,0.21507 -0.21507,-0.21507 m 12.68924,0 0.21507,0.21507 z"
         id="path38" />
      <path
         style="fill:#d8de3f;fill-opacity:1;stroke:none;stroke-width:0.215072"
         d="m 202.43329,273.39551 v -89.25487 -26.66892 -7.95766 c 0,-1.12268 0.24303,-2.58302 -0.12689,-3.65623 -0.51833,-1.50765 -2.17438,-2.93358 -3.20888,-4.12293 -2.64753,-3.04542 -5.42411,-5.92738 -8.27812,-8.78139 -12.80108,-12.80108 -29.06052,-22.94989 -46.24047,-28.67619 -13.15165,-4.383593 -27.16574,-6.723576 -41.04218,-5.701984 -18.455328,1.35861 -36.48051,7.624084 -51.438765,18.626304 -29.669178,21.81906 -45.9630307,60.78149 -43.4638944,97.26415 1.0667569,15.56046 3.6411684,30.27783 9.1771204,44.95004 1.286131,3.41534 2.709907,6.84144 4.338002,10.10838 0.492515,0.98503 1.036647,2.99166 1.924894,3.64978 0.767807,0.56779 2.591617,0.22152 3.505673,0.22152 h 8.817951 34.411515 z m -89.46994,-163.02455 0.21507,0.21507 z m 12.68925,15.97769 c 20.23827,-2.3959 35.81378,18.56072 30.44774,37.36016 -3.39169,11.88702 -13.71084,19.5952 -25.71616,21.01468 -19.89846,2.35719 -35.47612,-17.79721 -30.776798,-36.49987 3.103488,-12.35803 13.712988,-20.41678 26.045218,-21.87497 m -57.854362,24.51821 c 20.238272,-2.3959 35.813782,18.56071 30.447739,37.36015 -3.391685,11.88918 -13.712989,19.59521 -25.716156,21.01468 -19.898458,2.35719 -35.476121,-17.7972 -30.776798,-36.49986 3.103488,-12.35804 13.712989,-20.41678 26.045215,-21.87497 z m 45.165112,42.09173 v 0.21508 l 2.36579,0.21507 -2.36579,-0.43015 m -1.93565,0.43015 v 0.21507 l 1.72058,-0.21507 z m 1.72058,-0.12044 c -3.32931,0.52047 -6.55109,2.32062 -7.97702,5.49724 -2.33568,5.20044 2.81529,8.62223 7.54688,7.86303 3.12714,-0.50327 6.37903,-2.49699 7.64365,-5.49724 2.10986,-5.01118 -2.43891,-8.60933 -7.21351,-7.86303 z"
         id="path36" />
      <path
         style="fill:#d8de3f;fill-opacity:1;stroke:none;stroke-width:0.215072"
         d="m 202.43329,273.39551 v -89.25487 -26.66892 -7.95766 c 0,-1.12268 0.24303,-2.58302 -0.12689,-3.65623 -0.51833,-1.50765 -2.17438,-2.93358 -3.20888,-4.12293 -2.64753,-3.04542 -5.42411,-5.92738 -8.27812,-8.78139 -12.80108,-12.80108 -29.06052,-22.94989 -46.24047,-28.67619 -13.15165,-4.383593 -27.16574,-6.723576 -41.04218,-5.701984 -18.455328,1.35861 -36.48051,7.624084 -51.438765,18.626304 -29.669178,21.81906 -45.9630307,60.78149 -43.4638944,97.26415 1.0667569,15.56046 3.6411684,30.27783 9.1771204,44.95004 1.286131,3.41534 2.709907,6.84144 4.338002,10.10838 0.492515,0.98503 1.036647,2.99166 1.924894,3.64978 0.767807,0.56779 2.591617,0.22152 3.505673,0.22152 h 8.817951 34.411515 z m -89.46994,-163.02455 0.21507,0.21507 z m 12.68925,15.97769 c 20.23827,-2.3959 35.81378,18.56072 30.44774,37.36016 -3.39169,11.88702 -13.71084,19.5952 -25.71616,21.01468 -19.89846,2.35719 -35.47612,-17.79721 -30.776798,-36.49987 3.103488,-12.35803 13.712988,-20.41678 26.045218,-21.87497 m -57.854362,24.51821 c 20.238272,-2.3959 35.813782,18.56071 30.447739,37.36015 -3.391685,11.88918 -13.712989,19.59521 -25.716156,21.01468 -19.898458,2.35719 -35.476121,-17.7972 -30.776798,-36.49986 3.103488,-12.35804 13.712989,-20.41678 26.045215,-21.87497 z m 45.165112,42.09173 v 0.21508 l 2.36579,0.21507 -2.36579,-0.43015 m -1.93565,0.43015 v 0.21507 l 1.72058,-0.21507 z"
         id="path34" />
      <path
         style="fill:#d8de3f;fill-opacity:1;stroke:none;stroke-width:0.215072"
         d="m 202.43329,273.39551 v -89.25487 -26.66892 -7.95766 c 0,-1.12268 0.24303,-2.58302 -0.12689,-3.65623 -0.51833,-1.50765 -2.17438,-2.93358 -3.20888,-4.12293 -2.64753,-3.04542 -5.42411,-5.92738 -8.27812,-8.78139 -12.80108,-12.80108 -29.06052,-22.94989 -46.24047,-28.67619 -13.15165,-4.383593 -27.16574,-6.723576 -41.04218,-5.701984 -18.455328,1.35861 -36.48051,7.624084 -51.438765,18.626304 -29.669178,21.81906 -45.9630307,60.78149 -43.4638944,97.26415 1.0667569,15.56046 3.6411684,30.27783 9.1771204,44.95004 1.286131,3.41534 2.709907,6.84144 4.338002,10.10838 0.492515,0.98503 1.036647,2.99166 1.924894,3.64978 0.767807,0.56779 2.591617,0.22152 3.505673,0.22152 h 8.817951 34.411515 z m -89.46994,-163.02455 0.21507,0.21507 z m 12.68925,15.97769 c 20.23827,-2.3959 35.81378,18.56072 30.44774,37.36016 -3.39169,11.88702 -13.71084,19.5952 -25.71616,21.01468 -19.89846,2.35719 -35.47612,-17.79721 -30.776798,-36.49987 3.103488,-12.35803 13.712988,-20.41678 26.045218,-21.87497 m -57.854362,24.51821 c 20.238272,-2.3959 35.813782,18.56071 30.447739,37.36015 -3.391685,11.88918 -13.712989,19.59521 -25.716156,21.01468 -19.898458,2.35719 -35.476121,-17.7972 -30.776798,-36.49986 3.103488,-12.35804 13.712989,-20.41678 26.045215,-21.87497 z"
         id="path32" />
      <path
         style="fill:#d8de3f;fill-opacity:1;stroke:none;stroke-width:0.215072"
         d="m 202.43329,273.39551 v -89.25487 -26.66892 -7.95766 c 0,-1.12268 0.24303,-2.58302 -0.12689,-3.65623 -0.51833,-1.50765 -2.17438,-2.93358 -3.20888,-4.12293 -2.64753,-3.04542 -5.42411,-5.92738 -8.27812,-8.78139 -12.80108,-12.80108 -29.06052,-22.94989 -46.24047,-28.67619 -13.15165,-4.383593 -27.16574,-6.723576 -41.04218,-5.701984 -18.455328,1.35861 -36.48051,7.624084 -51.438765,18.626304 -29.669178,21.81906 -45.9630307,60.78149 -43.4638944,97.26415 1.0667569,15.56046 3.6411684,30.27783 9.1771204,44.95004 1.286131,3.41534 2.709907,6.84144 4.338002,10.10838 0.492515,0.98503 1.036647,2.99166 1.924894,3.64978 0.767807,0.56779 2.591617,0.22152 3.505673,0.22152 h 8.817951 34.411515 z m -89.46994,-163.02455 0.21507,0.21507 z"
         id="path30" />
      <path
         style="fill:#d8de3f;fill-opacity:1;stroke:none;stroke-width:0.215072"
         d="m 202.43329,273.39551 v -89.25487 -26.66892 -7.95766 c 0,-1.12268 0.24303,-2.58302 -0.12689,-3.65623 -0.51833,-1.50765 -2.17438,-2.93358 -3.20888,-4.12293 -2.64753,-3.04542 -5.42411,-5.92738 -8.27812,-8.78139 -12.80108,-12.80108 -29.06052,-22.94989 -46.24047,-28.67619 -13.15165,-4.383593 -27.16574,-6.723576 -41.04218,-5.701984 -18.455328,1.35861 -36.48051,7.624084 -51.438765,18.626304 -29.669178,21.81906 -45.9630307,60.78149 -43.4638944,97.26415 1.0667569,15.56046 3.6411684,30.27783 9.1771204,44.95004 1.286131,3.41534 2.709907,6.84144 4.338002,10.10838 0.492515,0.98503 1.036647,2.99166 1.924894,3.64978 0.767807,0.56779 2.591617,0.22152 3.505673,0.22152 h 8.817951 34.411515 z"
         id="path28" />
    </g>
    <path
       style="fill:#b8c237;fill-opacity:1;stroke-width:0.215072"
       d="m 127.25313,129.50228 c -18.22348,-1.42956 -33.358886,-12.83487 -38.694116,-29.15804 -3.45384,-10.567112 -2.57107,-21.857742 2.52142,-32.249032 2.49755,-5.09626 5.60837,-9.34916 9.771576,-13.35907 8.42779,-8.11739 19.30323,-12.93931 31.27669,-13.86734 4.06269,-0.31489 8.53941,-0.0219 12.82053,0.83914 1.63003,0.32784 3.03772,0.54375 3.1282,0.47981 0.0905,-0.0639 0.58572,-0.79372 1.10056,-1.62175 1.50439,-2.4196 3.70492,-5.2467 5.83947,-7.50214 12.74645,-13.46837 32.56845,-18.85368 49.96651,-13.57506 25.89144,7.8555 37.95457,35.44201 26.0512,59.57508 -2.47632,5.02051 -5.48757,9.13335 -9.6083,13.12326 -7.83228,7.58359 -17.6581,12.320492 -28.57042,13.773432 -4.78863,0.63758 -12.22272,0.29424 -16.74775,-0.77351 -0.98664,-0.23282 -1.8779,-0.37139 -1.98058,-0.30792 -0.10267,0.0634 -0.73378,0.95468 -1.40244,1.98051 -2.09869,3.21967 -3.73997,5.23774 -6.53021,8.02935 -4.17065,4.17268 -7.91765,6.87252 -13.13371,9.46329 -7.97656,3.96189 -17.28245,5.81882 -25.80863,5.14999 z"
       id="path2552" />
    <path
       style="fill:#423f1f;fill-opacity:1;stroke:none;stroke-width:0.215072"
       d="m 180.65163,118.51054 c 1.18993,3.91099 2.80449,8.82157 3.82952,11.95976 -3.39588,1.44505 -7.31238,2.06376 -11.0862,2.05318 2.34874,3.18648 9.76409,3.66227 14.18201,1.81573 4.41792,-1.84654 8.28142,-6.06236 8.75313,-11.47452 -2.83033,2.64174 -5.5499,4.9922 -9.46316,6.66723 -1.02913,-2.57932 -9.00188,-19.68319 -6.2153,-11.02138 z"
       id="path1450"
       sodipodi:nodetypes="ccczccc" />
    <path
       style="fill:#423f1f;fill-opacity:1;stroke-width:0.215072"
       d="m 173.37578,114.69309 c -5.27881,-0.91419 -6.86293,-8.03717 -0.94892,-11.87328 3.43519,-1.98306 7.95771,-2.27178 10.60952,-0.0689 1.40054,1.17848 1.98792,3.6342 1.25657,5.83372 -1.27203,3.82555 -5.63836,7.02266 -10.91717,6.10847 z"
       id="path2536"
       sodipodi:nodetypes="zccsz" />
    <path
       style="fill:#fefefe;stroke-width:0.215072"
       d="m 130.14803,117.86757 c -9.90249,-1.03223 -18.55228,-6.9051 -23.08606,-15.6745 -2.45672,-4.751932 -3.25051,-8.210052 -3.23849,-14.108362 0.009,-4.43992 0.3197,-6.49633 1.50133,-9.93927 2.44812,-7.13303 7.84088,-13.26893 14.69589,-16.72107 8.59853,-4.33015 20.17442,-4.00842 28.50998,0.79235 6.3146,3.63684 11.04197,9.44142 13.33395,16.37229 1.03275,3.12299 1.40259,5.65521 1.40259,9.60324 0,3.94803 -0.36984,6.48025 -1.40259,9.60324 -3.41072,10.313902 -11.91733,17.738752 -22.60688,19.732032 -2.23445,0.41664 -6.75576,0.58543 -9.10972,0.34005 z M 188.0024,93.349368 c -9.90249,-1.03223 -18.55228,-6.9051 -23.08607,-15.67451 -2.45673,-4.75192 -3.25051,-8.21005 -3.23849,-14.10835 0.009,-4.43993 0.3197,-6.49634 1.50133,-9.93927 2.44812,-7.13304 7.84089,-13.26893 14.6959,-16.72107 8.59854,-4.33016 20.17442,-4.00843 28.50998,0.79234 6.3146,3.63685 11.04197,9.44143 13.33395,16.37229 1.03275,3.123 1.40259,5.65521 1.40259,9.60325 0,3.94803 -0.36984,6.48024 -1.40259,9.60324 -3.41072,10.3139 -11.91733,17.73875 -22.60688,19.73203 -2.23445,0.41664 -6.75576,0.58543 -9.10972,0.34005 z"
       id="path2568" />
  </g>
</svg>
