<?xml version="1.0" encoding="UTF-8"?>
<!DOCTYPE svg PUBLIC "-//W3C//DTD SVG 1.1//EN" "http://www.w3.org/Graphics/SVG/1.1/DTD/svg11.dtd">
<!-- Creator: CorelDRAW 2019 (64-Bit) -->
<svg xmlns="http://www.w3.org/2000/svg" xml:space="preserve" width="4.14286cm" height="0.24523cm" version="1.1" style="shape-rendering:geometricPrecision; text-rendering:geometricPrecision; image-rendering:optimizeQuality; fill-rule:evenodd; clip-rule:evenodd"
viewBox="0 0 18.039 1.068"
 xmlns:xlink="http://www.w3.org/1999/xlink"
 xmlns:xodm="http://www.corel.com/coreldraw/odm/2003">
 <defs>
  <style type="text/css">
   <![CDATA[
    .fil0 {fill:#A39F6B;fill-rule:nonzero}
   ]]>
  </style>
 </defs>
 <g id="Слой_x0020_1">
  <metadata id="CorelCorpID_0Corel-Layer"/>
  <path class="fil0" d="M0.174 0.317c-0.003,0.002 -0.006,0.004 -0.01,0.006l-0.01 0.006 -0.01 0.006c-0.004,0.003 -0.007,0.005 -0.009,0.007 -0.011,0.008 -0.022,0.018 -0.034,0.031 -0.013,0.015 -0.022,0.028 -0.028,0.038 -0.015,0.026 -0.025,0.056 -0.029,0.091 -0.001,0.007 -0.002,0.015 -0.002,0.024l-0.001 0.025c-0,0.007 -0.001,0.016 -0.001,0.025l0 0.025c-0.005,-0.035 -0.006,-0.069 -0.004,-0.1 0.002,-0.035 0.012,-0.067 0.028,-0.096l0.007 -0.011 0.007 -0.01c0.002,-0.003 0.004,-0.006 0.007,-0.009l0.004 -0.005 0.004 -0.005c0.015,-0.014 0.027,-0.025 0.036,-0.031 0.025,-0.018 0.053,-0.03 0.085,-0.036l-0.011 0.004 -0.011 0.004c-0.008,0.003 -0.015,0.006 -0.021,0.01zm0.354 0.09c-0.03,-0.064 -0.074,-0.11 -0.133,-0.137 -0.054,-0.025 -0.111,-0.031 -0.171,-0.017 -0.06,0.013 -0.11,0.041 -0.151,0.084 -0.044,0.047 -0.067,0.103 -0.071,0.169 -0.007,0.123 0.015,0.242 0.064,0.357 0.022,0.052 0.046,0.092 0.073,0.121 0.028,0.03 0.055,0.043 0.081,0.039 0.037,-0.006 0.058,-0.03 0.065,-0.072 0.008,-0.048 -0.001,-0.129 -0.025,-0.244 -0.019,-0.091 -0.011,-0.14 0.024,-0.146 0.019,-0.003 0.035,0.012 0.047,0.047 0.011,0.032 0.017,0.073 0.017,0.122 -0,0.11 0.013,0.186 0.04,0.229 0.02,0.032 0.049,0.047 0.086,0.043 0.031,-0.003 0.057,-0.026 0.078,-0.068 0.019,-0.039 0.031,-0.09 0.036,-0.153 0.006,-0.063 0.004,-0.127 -0.006,-0.191 -0.01,-0.069 -0.027,-0.13 -0.052,-0.182zm0.451 0.35c-0.006,0.01 -0.014,0.017 -0.023,0.022 -0.009,0.006 -0.019,0.009 -0.028,0.008 0.018,-0.008 0.033,-0.02 0.043,-0.037 0.01,-0.015 0.016,-0.034 0.019,-0.057 0.005,0.022 0.002,0.043 -0.01,0.063zm-0.106 -0.052c-0.002,-0.014 -0.001,-0.026 0.005,-0.037 0.006,-0.011 0.014,-0.018 0.024,-0.02 0.01,-0.002 0.02,0.001 0.03,0.009 0.009,0.008 0.015,0.019 0.018,0.032 0.003,0.014 0.001,0.026 -0.005,0.037 -0.006,0.011 -0.014,0.018 -0.024,0.02 -0.01,0.002 -0.02,-0.001 -0.03,-0.009 -0.009,-0.008 -0.015,-0.019 -0.017,-0.032zm-0.039 -0.414c-0.025,0.012 -0.047,0.028 -0.067,0.049 -0.018,0.019 -0.034,0.042 -0.049,0.071l-0.005 0.01 -0.005 0.01 -0.008 0.02 -0.007 0.021 -0.007 0.021c0.005,-0.03 0.013,-0.059 0.025,-0.086 0.012,-0.028 0.029,-0.053 0.048,-0.075 0.021,-0.023 0.045,-0.04 0.071,-0.05 0.012,-0.005 0.026,-0.009 0.04,-0.012l0.01 -0.001 0.01 -0.001 0.021 -0c-0.03,0.004 -0.057,0.011 -0.079,0.022zm0.165 -0.055c-0.103,-0.024 -0.188,-0.003 -0.255,0.063 -0.058,0.058 -0.094,0.14 -0.105,0.245 -0.011,0.102 0.003,0.196 0.042,0.281 0.042,0.093 0.103,0.149 0.185,0.17 0.076,0.02 0.147,-0.004 0.212,-0.071 0.059,-0.061 0.1,-0.142 0.123,-0.243 0.023,-0.103 0.02,-0.196 -0.011,-0.276 -0.034,-0.091 -0.098,-0.147 -0.19,-0.169zm0.753 0.47c-0.003,0.013 -0.008,0.023 -0.018,0.031 -0.008,0.007 -0.018,0.013 -0.03,0.016 -0.011,0.003 -0.022,0.003 -0.032,0.001 0.013,-0.003 0.023,-0.006 0.03,-0.009 0.011,-0.004 0.02,-0.009 0.026,-0.015 0.007,-0.007 0.012,-0.015 0.016,-0.026 0.003,-0.008 0.005,-0.019 0.006,-0.033 0.003,0.012 0.003,0.024 0.001,0.036zm-0.127 -0.01c-0.007,-0.013 -0.005,-0.033 0.004,-0.061 0.01,-0.029 0.022,-0.044 0.035,-0.044 0.016,-0 0.029,0.015 0.04,0.045 0.004,0.012 0.007,0.024 0.008,0.036 0.001,0.012 -0,0.021 -0.003,0.027 -0.005,0.009 -0.018,0.013 -0.041,0.014 -0.022,0 -0.037,-0.005 -0.043,-0.016zm-0.078 -0.347c-0.013,0.022 -0.025,0.047 -0.037,0.074 -0.008,0.021 -0.018,0.048 -0.028,0.079 0.005,-0.027 0.012,-0.054 0.021,-0.082 0.009,-0.026 0.02,-0.051 0.035,-0.077 0.016,-0.027 0.033,-0.049 0.051,-0.066 0.01,-0.009 0.022,-0.017 0.034,-0.023 0.013,-0.006 0.026,-0.009 0.038,-0.009 -0.023,0.004 -0.045,0.017 -0.066,0.039 -0.017,0.018 -0.033,0.04 -0.048,0.065zm-0.206 0.431c-0.008,0.005 -0.014,0.009 -0.019,0.014 -0.006,0.006 -0.01,0.013 -0.012,0.021 -0.002,-0.009 0,-0.018 0.006,-0.027 0.004,-0.006 0.011,-0.012 0.02,-0.017 0.015,-0.009 0.031,-0.014 0.047,-0.014l-0.011 0.006 -0.011 0.006c-0.009,0.004 -0.016,0.008 -0.021,0.011zm0.603 -0.083c-0.014,-0.004 -0.023,-0.009 -0.029,-0.016 -0.006,-0.007 -0.01,-0.017 -0.012,-0.03 -0.002,-0.008 -0.003,-0.024 -0.006,-0.049 -0.001,-0.013 -0.002,-0.024 -0.004,-0.033 -0.001,-0.013 -0.003,-0.026 -0.006,-0.039 -0.018,-0.106 -0.047,-0.188 -0.089,-0.245 -0.039,-0.053 -0.084,-0.079 -0.135,-0.079 -0.044,0 -0.086,0.027 -0.126,0.081 -0.041,0.054 -0.071,0.123 -0.091,0.207 -0.008,0.034 -0.014,0.067 -0.018,0.102 -0.001,0.006 -0.002,0.012 -0.002,0.019l-0.001 0.009 -0.001 0.008c-0.001,0.014 -0.002,0.023 -0.003,0.029 -0.003,0.018 -0.007,0.031 -0.013,0.038 -0.006,0.009 -0.017,0.015 -0.032,0.019 -0.043,0.011 -0.072,0.029 -0.089,0.054 -0.015,0.022 -0.018,0.048 -0.009,0.079 0.012,0.043 0.058,0.076 0.138,0.099 0.071,0.02 0.159,0.03 0.264,0.03 0.096,-0.001 0.169,-0.006 0.221,-0.017 0.076,-0.016 0.124,-0.045 0.145,-0.087 0.019,-0.04 0.019,-0.076 0,-0.109 -0.019,-0.032 -0.052,-0.055 -0.1,-0.068zm0.577 -0.049c-0.003,0.002 -0.006,0.005 -0.01,0.008l-0.005 0.004 -0.005 0.004c-0.009,0.007 -0.017,0.011 -0.026,0.014 -0.01,0.003 -0.019,0.004 -0.028,0.002 0.017,-0.004 0.033,-0.012 0.048,-0.024l0.005 -0.004 0.005 -0.004c0.005,-0.003 0.009,-0.006 0.013,-0.008 0.01,-0.005 0.019,-0.007 0.028,-0.005 -0.008,0.002 -0.016,0.006 -0.024,0.012zm-0.299 -0.35c-0.017,0.02 -0.031,0.043 -0.044,0.07 -0.011,0.022 -0.021,0.049 -0.029,0.08 0.004,-0.029 0.012,-0.057 0.023,-0.084 0.011,-0.027 0.025,-0.051 0.043,-0.073 0.019,-0.023 0.041,-0.04 0.065,-0.052 0.013,-0.006 0.026,-0.01 0.039,-0.012 0.015,-0.003 0.028,-0.004 0.04,-0.003 -0.029,0.003 -0.054,0.011 -0.076,0.022 -0.023,0.013 -0.044,0.031 -0.061,0.052zm0.408 0.403c-0.006,-0.056 -0.026,-0.09 -0.059,-0.103 -0.014,-0.006 -0.03,-0.006 -0.046,-0.002 -0.016,0.005 -0.031,0.013 -0.046,0.026 -0.014,0.012 -0.029,0.018 -0.044,0.017 -0.015,-0.001 -0.028,-0.008 -0.041,-0.021 -0.013,-0.013 -0.022,-0.031 -0.028,-0.052 -0.007,-0.023 -0.009,-0.049 -0.006,-0.076 0.004,-0.04 0.021,-0.062 0.05,-0.068 0.021,-0.004 0.052,0.001 0.091,0.014 0.017,0.006 0.033,0.005 0.047,-0.003 0.013,-0.007 0.023,-0.019 0.03,-0.036 0.006,-0.017 0.008,-0.036 0.004,-0.056 -0.004,-0.022 -0.013,-0.043 -0.027,-0.064 -0.031,-0.043 -0.072,-0.072 -0.121,-0.087 -0.045,-0.014 -0.091,-0.014 -0.136,0 -0.058,0.017 -0.106,0.06 -0.143,0.127 -0.04,0.074 -0.058,0.164 -0.055,0.271 0.004,0.121 0.036,0.215 0.096,0.282 0.028,0.031 0.06,0.054 0.098,0.068 0.037,0.014 0.077,0.018 0.119,0.013 0.072,-0.009 0.128,-0.038 0.17,-0.089 0.04,-0.048 0.056,-0.103 0.048,-0.164zm0.371 -0.371c-0.013,0.019 -0.025,0.034 -0.038,0.047 -0.016,0.016 -0.032,0.028 -0.047,0.035 0.012,-0.009 0.026,-0.023 0.042,-0.041 0.012,-0.014 0.024,-0.03 0.036,-0.048 0.006,-0.008 0.011,-0.017 0.016,-0.025l0.004 -0.007 0.004 -0.006c0.003,-0.005 0.006,-0.01 0.009,-0.013 0.007,-0.009 0.014,-0.015 0.023,-0.02 0.01,-0.005 0.019,-0.008 0.028,-0.007 -0.017,0.002 -0.032,0.013 -0.045,0.032 -0.002,0.003 -0.005,0.007 -0.008,0.013l-0.004 0.007 -0.004 0.007c-0.004,0.007 -0.01,0.016 -0.017,0.026zm-0.2 -0.112c-0.006,0.005 -0.013,0.011 -0.018,0.02 -0.008,0.012 -0.016,0.028 -0.024,0.049 -0.005,0.013 -0.01,0.031 -0.016,0.054l-0.007 0.028 -0.007 0.028c0.001,-0.022 0.003,-0.041 0.006,-0.058 0.004,-0.02 0.009,-0.039 0.015,-0.056 0.008,-0.022 0.017,-0.039 0.027,-0.051 0.006,-0.008 0.013,-0.014 0.021,-0.018 0.009,-0.005 0.018,-0.007 0.026,-0.006 -0.009,0.002 -0.017,0.005 -0.024,0.011zm0.233 0.307c-0.013,-0.007 -0.017,-0.015 -0.01,-0.021 0.003,-0.003 0.008,-0.007 0.016,-0.011l0.005 -0.003 0.006 -0.003c0.006,-0.003 0.01,-0.005 0.013,-0.007 0.025,-0.014 0.044,-0.029 0.059,-0.045 0.022,-0.023 0.037,-0.051 0.046,-0.083 0.008,-0.029 0.006,-0.057 -0.004,-0.083 -0.01,-0.024 -0.025,-0.041 -0.047,-0.053 -0.022,-0.011 -0.043,-0.013 -0.066,-0.005 -0.025,0.008 -0.046,0.028 -0.063,0.057 -0.029,0.051 -0.056,0.086 -0.083,0.105 -0.011,0.008 -0.018,0.01 -0.022,0.007 -0.004,-0.004 -0.003,-0.012 0.002,-0.026 0.022,-0.055 0.028,-0.099 0.018,-0.133 -0.009,-0.028 -0.027,-0.045 -0.055,-0.051 -0.057,-0.013 -0.1,0.019 -0.128,0.095 -0.023,0.061 -0.036,0.15 -0.04,0.266 -0.004,0.117 0.004,0.21 0.024,0.281 0.023,0.086 0.061,0.127 0.115,0.123 0.049,-0.003 0.076,-0.043 0.081,-0.12 0.002,-0.026 0.001,-0.055 -0.002,-0.087 -0.001,-0.011 -0.003,-0.022 -0.005,-0.033 -0.001,-0.004 -0.001,-0.009 -0.002,-0.013l-0.001 -0.005 -0 -0.002 -0 -0.001c-0.002,-0.01 -0.001,-0.016 0.003,-0.02 0.004,-0.004 0.009,-0.002 0.017,0.004 0.019,0.016 0.037,0.057 0.055,0.122 0.012,0.042 0.028,0.076 0.048,0.102 0.019,0.024 0.04,0.04 0.063,0.047 0.022,0.007 0.044,0.006 0.065,-0.003 0.021,-0.01 0.038,-0.026 0.052,-0.05 0.015,-0.027 0.023,-0.056 0.023,-0.089 -0,-0.031 -0.008,-0.064 -0.022,-0.096 -0.032,-0.069 -0.085,-0.124 -0.16,-0.166zm0.575 0.098c-0.007,0.006 -0.014,0.01 -0.021,0.013 -0.008,0.003 -0.016,0.003 -0.024,0.001 0.015,-0.005 0.028,-0.012 0.039,-0.022 0.009,-0.008 0.019,-0.02 0.029,-0.037 -0.002,0.017 -0.009,0.032 -0.023,0.045zm-0.055 -0.029c-0.008,-0.003 -0.013,-0.01 -0.016,-0.02 -0.003,-0.01 -0.003,-0.02 0.001,-0.031 0.004,-0.011 0.01,-0.02 0.018,-0.026 0.008,-0.006 0.016,-0.007 0.024,-0.004 0.008,0.003 0.013,0.009 0.016,0.019 0.003,0.01 0.002,0.021 -0.001,0.032 -0.004,0.011 -0.01,0.019 -0.018,0.025 -0.008,0.006 -0.016,0.007 -0.024,0.004zm-0.089 -0.288c-0.012,0.019 -0.026,0.045 -0.043,0.077 -0.006,0.011 -0.012,0.025 -0.02,0.04l-0.02 0.04c0.009,-0.027 0.02,-0.054 0.033,-0.083 0.012,-0.027 0.026,-0.053 0.042,-0.079 0.018,-0.029 0.036,-0.053 0.053,-0.071l0.008 -0.008c0.003,-0.003 0.005,-0.005 0.008,-0.007l0.008 -0.007 0.009 -0.006c0.016,-0.009 0.029,-0.014 0.04,-0.014 -0.011,0.002 -0.024,0.007 -0.037,0.018l-0.008 0.007 -0.008 0.008c-0.002,0.002 -0.005,0.004 -0.007,0.007l-0.007 0.008c-0.016,0.02 -0.033,0.043 -0.05,0.071zm0.127 -0.161c-0.043,-0.006 -0.091,0.028 -0.143,0.102 -0.046,0.066 -0.087,0.151 -0.123,0.253 -0.035,0.101 -0.055,0.191 -0.059,0.27 -0.004,0.086 0.013,0.136 0.051,0.15 0.029,0.011 0.056,0.01 0.082,-0.004 0.02,-0.01 0.04,-0.028 0.062,-0.054 0.004,-0.005 0.009,-0.011 0.013,-0.017l0.012 -0.017c0.01,-0.014 0.018,-0.025 0.023,-0.03 0.017,-0.021 0.031,-0.031 0.043,-0.032 0.012,-0 0.028,0.009 0.047,0.027 0.006,0.006 0.014,0.015 0.026,0.027l0.014 0.015 0.014 0.015c0.023,0.023 0.044,0.039 0.063,0.047 0.025,0.011 0.049,0.009 0.073,-0.003 0.028,-0.015 0.043,-0.062 0.044,-0.14 0.001,-0.073 -0.009,-0.155 -0.03,-0.248 -0.022,-0.096 -0.051,-0.177 -0.086,-0.242 -0.04,-0.073 -0.082,-0.113 -0.125,-0.119zm0.542 0.309c-0.009,0.009 -0.021,0.016 -0.035,0.022 -0.015,0.006 -0.026,0.011 -0.034,0.017 -0.012,0.009 -0.018,0.02 -0.019,0.033 -0.001,-0.007 -0,-0.014 0.002,-0.021 0.003,-0.007 0.007,-0.012 0.012,-0.018 0.008,-0.007 0.02,-0.014 0.035,-0.02 0.012,-0.005 0.023,-0.011 0.033,-0.018 0.011,-0.009 0.02,-0.019 0.025,-0.029 -0.003,0.013 -0.01,0.025 -0.021,0.036zm-0.133 0.249c-0.018,-0.001 -0.032,-0.001 -0.042,-0 -0.009,0.001 -0.015,0.003 -0.019,0.006 -0.003,0.002 -0.004,0.005 -0.006,0.008l-0.001 0.006 -0.001 0.005c-0,-0.005 -0,-0.009 0,-0.012 0.001,-0.005 0.002,-0.009 0.005,-0.012 0.004,-0.005 0.011,-0.008 0.021,-0.01 0.011,-0.002 0.026,-0.003 0.044,-0.002 0.011,0.001 0.026,0.003 0.043,0.005l0.022 0.003 0.022 0.003c-0.012,0.002 -0.027,0.003 -0.044,0.002l-0.022 -0.002 -0.021 -0.002zm0.018 -0.505c-0.021,0.01 -0.037,0.019 -0.05,0.029 -0.007,0.005 -0.015,0.011 -0.022,0.018 -0.007,0.006 -0.013,0.013 -0.02,0.021 -0.013,0.018 -0.019,0.036 -0.018,0.056 -0.002,-0.01 -0.002,-0.02 -0,-0.031 0.002,-0.01 0.006,-0.02 0.013,-0.029 0.009,-0.015 0.024,-0.029 0.042,-0.043 0.033,-0.023 0.069,-0.037 0.108,-0.042 -0.018,0.007 -0.036,0.014 -0.053,0.022zm0.325 0.369c-0.009,-0.013 -0.019,-0.024 -0.03,-0.034 -0.008,-0.007 -0.017,-0.013 -0.027,-0.02l-0.006 -0.004 -0.005 -0.004c-0.004,-0.002 -0.007,-0.004 -0.009,-0.006 -0.005,-0.004 -0.008,-0.008 -0.009,-0.013 -0.001,-0.006 0.003,-0.013 0.011,-0.023 0.003,-0.003 0.007,-0.008 0.013,-0.014l0.004 -0.004 0.004 -0.004 0.008 -0.009c0.014,-0.015 0.025,-0.029 0.032,-0.043 0.011,-0.019 0.017,-0.038 0.02,-0.058 0.006,-0.053 -0.005,-0.097 -0.035,-0.134 -0.031,-0.038 -0.079,-0.062 -0.141,-0.07 -0.031,-0.004 -0.065,-0.003 -0.102,0.005 -0.037,0.008 -0.072,0.021 -0.103,0.039 -0.033,0.019 -0.059,0.041 -0.076,0.066 -0.019,0.028 -0.027,0.058 -0.022,0.089 0.011,0.078 0.072,0.098 0.184,0.063 0.019,-0.006 0.034,-0.008 0.046,-0.007 0.01,0.001 0.016,0.004 0.018,0.01 0.002,0.006 -0,0.012 -0.007,0.02 -0.007,0.007 -0.018,0.014 -0.032,0.02 -0.051,0.02 -0.075,0.052 -0.073,0.094 0.002,0.021 0.009,0.039 0.023,0.052 0.015,0.014 0.034,0.021 0.058,0.019 0.024,-0.001 0.039,0.006 0.045,0.021 0.003,0.006 0.003,0.013 0,0.019 -0.002,0.007 -0.007,0.012 -0.014,0.017 -0.011,0.006 -0.03,0.008 -0.058,0.007 -0.005,-0 -0.011,-0.001 -0.018,-0.001l-0.018 -0.002c-0.016,-0.002 -0.028,-0.003 -0.038,-0.003 -0.029,-0.001 -0.05,0.003 -0.065,0.011 -0.019,0.011 -0.029,0.031 -0.03,0.059 -0.002,0.032 0.013,0.063 0.045,0.093 0.029,0.027 0.068,0.049 0.115,0.064 0.048,0.015 0.095,0.02 0.14,0.016 0.05,-0.005 0.09,-0.021 0.121,-0.048 0.043,-0.039 0.066,-0.087 0.069,-0.146 0.003,-0.053 -0.01,-0.099 -0.039,-0.137zm0.406 -0.292c-0.013,0.019 -0.025,0.034 -0.038,0.047 -0.016,0.016 -0.032,0.028 -0.047,0.035 0.012,-0.009 0.026,-0.023 0.042,-0.041 0.012,-0.014 0.024,-0.03 0.036,-0.048 0.006,-0.008 0.011,-0.017 0.016,-0.025l0.004 -0.007 0.004 -0.006c0.003,-0.005 0.006,-0.01 0.009,-0.013 0.007,-0.009 0.014,-0.015 0.023,-0.02 0.01,-0.005 0.019,-0.008 0.028,-0.007 -0.017,0.002 -0.032,0.013 -0.045,0.032 -0.002,0.003 -0.005,0.007 -0.008,0.013l-0.004 0.007 -0.004 0.007c-0.004,0.007 -0.01,0.016 -0.017,0.026zm-0.2 -0.112c-0.006,0.005 -0.013,0.011 -0.018,0.02 -0.008,0.012 -0.016,0.028 -0.024,0.049 -0.005,0.013 -0.01,0.031 -0.016,0.054l-0.007 0.028 -0.007 0.028c0.001,-0.022 0.003,-0.041 0.006,-0.057 0.004,-0.02 0.009,-0.039 0.015,-0.056 0.008,-0.022 0.017,-0.039 0.027,-0.051 0.006,-0.008 0.013,-0.014 0.021,-0.018 0.009,-0.005 0.018,-0.007 0.026,-0.006 -0.009,0.002 -0.017,0.005 -0.024,0.011zm0.233 0.307c-0.013,-0.007 -0.017,-0.015 -0.01,-0.021 0.003,-0.003 0.008,-0.007 0.016,-0.011l0.005 -0.003 0.006 -0.003c0.006,-0.003 0.01,-0.005 0.013,-0.007 0.025,-0.014 0.044,-0.029 0.059,-0.045 0.022,-0.023 0.037,-0.051 0.046,-0.083 0.008,-0.029 0.006,-0.057 -0.004,-0.083 -0.01,-0.024 -0.025,-0.041 -0.047,-0.053 -0.022,-0.011 -0.043,-0.013 -0.066,-0.005 -0.025,0.008 -0.046,0.028 -0.063,0.057 -0.029,0.051 -0.056,0.086 -0.083,0.105 -0.011,0.008 -0.018,0.01 -0.022,0.007 -0.004,-0.004 -0.003,-0.012 0.002,-0.026 0.022,-0.055 0.028,-0.099 0.018,-0.133 -0.009,-0.028 -0.027,-0.045 -0.055,-0.051 -0.057,-0.013 -0.1,0.019 -0.128,0.096 -0.023,0.061 -0.036,0.15 -0.04,0.266 -0.004,0.117 0.004,0.21 0.024,0.281 0.024,0.086 0.061,0.126 0.115,0.123 0.049,-0.003 0.076,-0.043 0.081,-0.12 0.002,-0.026 0.001,-0.055 -0.002,-0.087 -0.001,-0.011 -0.003,-0.022 -0.005,-0.033 -0,-0.004 -0.001,-0.009 -0.002,-0.013l-0.001 -0.005 -0 -0.002 -0 -0.001c-0.002,-0.01 -0.001,-0.016 0.003,-0.02 0.004,-0.004 0.009,-0.002 0.017,0.004 0.019,0.016 0.037,0.057 0.055,0.122 0.012,0.042 0.028,0.076 0.048,0.102 0.019,0.024 0.04,0.04 0.063,0.047 0.022,0.007 0.044,0.006 0.065,-0.003 0.021,-0.01 0.038,-0.026 0.052,-0.05 0.015,-0.027 0.023,-0.056 0.023,-0.089 -0,-0.031 -0.008,-0.064 -0.022,-0.096 -0.032,-0.069 -0.085,-0.124 -0.16,-0.166zm0.575 0.098c-0.007,0.006 -0.014,0.01 -0.021,0.013 -0.008,0.003 -0.016,0.003 -0.024,0.001 0.015,-0.005 0.028,-0.012 0.039,-0.022 0.009,-0.008 0.019,-0.02 0.029,-0.037 -0.002,0.017 -0.01,0.032 -0.023,0.044zm-0.055 -0.029c-0.008,-0.003 -0.013,-0.01 -0.016,-0.02 -0.003,-0.01 -0.003,-0.02 0.001,-0.031 0.004,-0.011 0.01,-0.02 0.018,-0.026 0.008,-0.006 0.016,-0.007 0.024,-0.004 0.008,0.003 0.013,0.009 0.016,0.019 0.003,0.01 0.002,0.021 -0.001,0.032 -0.004,0.011 -0.01,0.019 -0.018,0.025 -0.008,0.006 -0.016,0.007 -0.024,0.004zm-0.089 -0.288c-0.012,0.019 -0.026,0.045 -0.043,0.077 -0.006,0.011 -0.012,0.025 -0.02,0.04l-0.02 0.04c0.009,-0.027 0.02,-0.054 0.033,-0.083 0.012,-0.027 0.026,-0.053 0.042,-0.079 0.018,-0.029 0.036,-0.053 0.053,-0.071l0.008 -0.008c0.003,-0.003 0.005,-0.005 0.008,-0.007l0.008 -0.007 0.009 -0.006c0.016,-0.009 0.029,-0.014 0.04,-0.014 -0.011,0.002 -0.024,0.007 -0.037,0.018l-0.008 0.007 -0.008 0.008c-0.002,0.002 -0.005,0.004 -0.007,0.007l-0.007 0.008c-0.016,0.02 -0.033,0.043 -0.05,0.071zm0.127 -0.161c-0.043,-0.006 -0.091,0.028 -0.143,0.102 -0.046,0.066 -0.087,0.151 -0.123,0.253 -0.035,0.101 -0.055,0.191 -0.059,0.269 -0.004,0.086 0.013,0.136 0.051,0.15 0.029,0.011 0.056,0.01 0.082,-0.004 0.02,-0.01 0.04,-0.028 0.062,-0.054 0.004,-0.005 0.009,-0.011 0.013,-0.017l0.012 -0.017c0.01,-0.014 0.018,-0.025 0.023,-0.03 0.017,-0.021 0.031,-0.031 0.043,-0.032 0.012,-0 0.028,0.009 0.047,0.027 0.006,0.006 0.014,0.015 0.026,0.027l0.014 0.015 0.014 0.015c0.023,0.023 0.044,0.039 0.063,0.047 0.025,0.01 0.049,0.009 0.073,-0.003 0.028,-0.015 0.043,-0.062 0.044,-0.14 0.001,-0.073 -0.009,-0.156 -0.03,-0.248 -0.022,-0.096 -0.051,-0.177 -0.086,-0.242 -0.04,-0.073 -0.082,-0.113 -0.125,-0.119z"/>
  <path class="fil0" d="M6.399 0.538c-0.003,0.002 -0.006,0.004 -0.01,0.008l-0.005 0.004 -0.005 0.004c-0.009,0.007 -0.018,0.011 -0.026,0.013 -0.01,0.003 -0.019,0.003 -0.028,0.001 0.017,-0.004 0.033,-0.011 0.048,-0.023l0.005 -0.004 0.005 -0.004c0.005,-0.003 0.009,-0.006 0.013,-0.007 0.01,-0.005 0.019,-0.006 0.028,-0.004 -0.008,0.002 -0.016,0.005 -0.025,0.011zm-0.29 -0.356c-0.017,0.019 -0.032,0.042 -0.046,0.069 -0.011,0.022 -0.022,0.049 -0.031,0.079 0.005,-0.029 0.013,-0.056 0.025,-0.083 0.011,-0.027 0.026,-0.051 0.045,-0.072 0.02,-0.023 0.042,-0.039 0.066,-0.05 0.014,-0.006 0.027,-0.009 0.039,-0.011 0.015,-0.002 0.028,-0.003 0.04,-0.002 -0.029,0.003 -0.054,0.01 -0.076,0.02 -0.024,0.013 -0.044,0.03 -0.062,0.05zm0.399 0.413c-0.005,-0.056 -0.024,-0.091 -0.057,-0.104 -0.014,-0.006 -0.029,-0.007 -0.046,-0.003 -0.016,0.004 -0.032,0.012 -0.046,0.025 -0.014,0.012 -0.029,0.017 -0.045,0.016 -0.015,-0.001 -0.028,-0.009 -0.041,-0.022 -0.012,-0.014 -0.022,-0.031 -0.027,-0.052 -0.006,-0.023 -0.008,-0.049 -0.004,-0.076 0.005,-0.039 0.022,-0.062 0.052,-0.067 0.022,-0.004 0.052,0.002 0.09,0.017 0.017,0.006 0.032,0.006 0.047,-0.002 0.014,-0.007 0.024,-0.019 0.031,-0.035 0.007,-0.017 0.009,-0.036 0.005,-0.056 -0.003,-0.022 -0.012,-0.044 -0.026,-0.064 -0.03,-0.044 -0.07,-0.073 -0.119,-0.089 -0.045,-0.015 -0.09,-0.016 -0.136,-0.003 -0.059,0.016 -0.107,0.057 -0.146,0.124 -0.041,0.073 -0.062,0.163 -0.061,0.27 0.001,0.122 0.031,0.216 0.089,0.284 0.027,0.032 0.059,0.056 0.096,0.07 0.037,0.015 0.077,0.02 0.119,0.016 0.072,-0.007 0.129,-0.035 0.172,-0.085 0.041,-0.047 0.058,-0.102 0.052,-0.163zm0.231 -0.463c-0.003,0.002 -0.006,0.003 -0.01,0.005l-0.01 0.006 -0.01 0.006c-0.004,0.002 -0.007,0.005 -0.009,0.007 -0.011,0.008 -0.022,0.018 -0.035,0.031 -0.013,0.015 -0.023,0.027 -0.029,0.037 -0.016,0.025 -0.026,0.055 -0.031,0.09 -0.001,0.007 -0.002,0.015 -0.003,0.024l-0.001 0.025c-0.001,0.007 -0.001,0.016 -0.001,0.025l-0 0.025c-0.004,-0.035 -0.005,-0.069 -0.002,-0.1 0.003,-0.035 0.013,-0.067 0.03,-0.095l0.007 -0.01 0.007 -0.01c0.002,-0.003 0.004,-0.006 0.007,-0.009l0.004 -0.004 0.004 -0.005c0.015,-0.014 0.027,-0.024 0.037,-0.03 0.025,-0.017 0.054,-0.029 0.086,-0.034l-0.011 0.004 -0.011 0.004c-0.008,0.003 -0.015,0.006 -0.021,0.009zm0.351 0.098c-0.028,-0.065 -0.072,-0.111 -0.13,-0.14 -0.053,-0.026 -0.11,-0.033 -0.171,-0.021 -0.06,0.011 -0.111,0.038 -0.153,0.081 -0.045,0.046 -0.07,0.102 -0.075,0.167 -0.01,0.122 0.009,0.242 0.055,0.359 0.021,0.052 0.044,0.093 0.07,0.122 0.028,0.031 0.054,0.044 0.08,0.04 0.037,-0.005 0.059,-0.029 0.067,-0.071 0.009,-0.047 0.002,-0.129 -0.02,-0.245 -0.017,-0.092 -0.008,-0.14 0.027,-0.146 0.02,-0.003 0.035,0.013 0.046,0.048 0.01,0.032 0.015,0.073 0.014,0.123 -0.003,0.11 0.009,0.186 0.035,0.23 0.019,0.033 0.048,0.048 0.085,0.045 0.031,-0.002 0.058,-0.024 0.079,-0.066 0.02,-0.039 0.033,-0.089 0.04,-0.152 0.007,-0.063 0.007,-0.126 -0.002,-0.192 -0.009,-0.069 -0.024,-0.13 -0.048,-0.183zm0.437 0.15c-0.004,0.01 -0.009,0.02 -0.017,0.028 -0.008,0.009 -0.016,0.015 -0.025,0.019 -0.01,0.004 -0.02,0.005 -0.03,0.003 0.01,-0.002 0.019,-0.006 0.027,-0.011 0.008,-0.005 0.015,-0.011 0.021,-0.019 0.012,-0.014 0.022,-0.032 0.028,-0.053 0.001,0.011 -0,0.021 -0.004,0.032zm-0.091 -0.045c0.005,-0.011 0.012,-0.019 0.02,-0.023 0.008,-0.005 0.016,-0.005 0.023,-0.001 0.007,0.004 0.011,0.011 0.013,0.021 0.001,0.011 -0,0.021 -0.005,0.031 -0.005,0.011 -0.011,0.019 -0.02,0.023 -0.009,0.005 -0.016,0.005 -0.023,0.001 -0.007,-0.004 -0.011,-0.011 -0.013,-0.021 -0.001,-0.011 0,-0.021 0.005,-0.031zm-0.078 -0.213c-0.023,0.012 -0.042,0.027 -0.058,0.046 -0.015,0.018 -0.028,0.04 -0.04,0.066 -0.009,0.021 -0.017,0.046 -0.024,0.075 0.001,-0.011 0.003,-0.024 0.006,-0.04 0.003,-0.014 0.007,-0.027 0.012,-0.039 0.009,-0.026 0.023,-0.049 0.039,-0.07 0.018,-0.021 0.038,-0.037 0.062,-0.047 0.011,-0.005 0.024,-0.009 0.036,-0.012 0.014,-0.002 0.026,-0.004 0.037,-0.004 -0.027,0.005 -0.051,0.012 -0.07,0.022zm0.092 -0.065c-0.067,-0 -0.122,0.02 -0.165,0.061 -0.038,0.036 -0.065,0.087 -0.081,0.153 -0.014,0.06 -0.017,0.125 -0.009,0.196 0.008,0.069 0.024,0.133 0.05,0.192 0.025,0.057 0.053,0.1 0.083,0.131 0.027,0.027 0.054,0.041 0.081,0.044 0.024,0.002 0.045,-0.006 0.062,-0.024 0.017,-0.018 0.028,-0.042 0.031,-0.073 0.003,-0.021 0.002,-0.045 -0.002,-0.071 -0.001,-0.008 -0.003,-0.018 -0.006,-0.032l-0.002 -0.015c-0.001,-0.005 -0.002,-0.01 -0.003,-0.014 -0.003,-0.021 -0.003,-0.037 0.001,-0.049 0.004,-0.015 0.014,-0.026 0.031,-0.035 0.053,-0.028 0.093,-0.068 0.12,-0.121 0.025,-0.049 0.034,-0.1 0.028,-0.153 -0.006,-0.054 -0.028,-0.098 -0.064,-0.132 -0.039,-0.037 -0.091,-0.056 -0.155,-0.056zm0.604 0.35c-0.007,0.009 -0.015,0.016 -0.024,0.02 -0.01,0.005 -0.02,0.006 -0.03,0.005 0.019,-0.005 0.035,-0.016 0.046,-0.032 0.011,-0.014 0.018,-0.033 0.021,-0.055 0.005,0.022 0.001,0.043 -0.014,0.062zm-0.089 -0.058c-0,-0.011 0.002,-0.022 0.008,-0.03 0.006,-0.008 0.014,-0.013 0.022,-0.013 0.009,-0 0.017,0.003 0.024,0.011 0.007,0.008 0.01,0.018 0.011,0.029 0,0.011 -0.002,0.021 -0.008,0.03 -0.006,0.009 -0.014,0.013 -0.022,0.014 -0.009,0 -0.017,-0.003 -0.024,-0.011 -0.007,-0.008 -0.01,-0.018 -0.011,-0.029zm-0.042 -0.231c-0.021,0.011 -0.038,0.024 -0.051,0.039 -0.014,0.016 -0.025,0.035 -0.033,0.057 -0.004,0.01 -0.007,0.021 -0.01,0.033 -0.002,0.009 -0.004,0.02 -0.005,0.034 -0.002,-0.023 0,-0.047 0.007,-0.07 0.006,-0.023 0.018,-0.043 0.033,-0.061 0.015,-0.017 0.034,-0.03 0.055,-0.039 0.02,-0.009 0.041,-0.013 0.064,-0.013l-0.016 0.004c-0.006,0.001 -0.011,0.003 -0.015,0.005 -0.009,0.003 -0.018,0.007 -0.029,0.012zm-0.124 0.488c-0.018,0.029 -0.03,0.056 -0.035,0.082 -0.001,-0.015 0.001,-0.031 0.007,-0.046 0.004,-0.013 0.01,-0.027 0.02,-0.042 0.008,-0.014 0.018,-0.026 0.027,-0.036 0.009,-0.01 0.019,-0.02 0.033,-0.03l-0.014 0.018 -0.013 0.018c-0.01,0.013 -0.018,0.026 -0.024,0.037zm0.18 -0.551c-0.049,0.006 -0.09,0.024 -0.122,0.053 -0.03,0.027 -0.05,0.061 -0.061,0.102 -0.011,0.039 -0.012,0.081 -0.004,0.123 0.009,0.043 0.026,0.082 0.053,0.117 0.006,0.008 0.007,0.015 0.004,0.023 -0.002,0.006 -0.009,0.014 -0.02,0.026l-0.004 0.004 -0.004 0.004c-0.003,0.003 -0.006,0.006 -0.008,0.009 -0.007,0.007 -0.013,0.014 -0.019,0.021 -0.015,0.019 -0.029,0.039 -0.041,0.061 -0.018,0.034 -0.027,0.067 -0.027,0.099 0,0.028 0.007,0.054 0.022,0.077 0.013,0.021 0.029,0.036 0.05,0.046 0.02,0.01 0.04,0.013 0.059,0.009 0.045,-0.01 0.079,-0.039 0.101,-0.086 0.004,-0.008 0.007,-0.018 0.012,-0.029l0.005 -0.015 0.005 -0.014c0.008,-0.022 0.015,-0.037 0.022,-0.046 0.012,-0.014 0.02,-0.018 0.026,-0.009 0.008,0.012 0.014,0.046 0.016,0.101 0.001,0.03 0.01,0.054 0.027,0.071 0.016,0.016 0.035,0.024 0.058,0.023 0.024,-0.001 0.045,-0.011 0.065,-0.03 0.023,-0.022 0.04,-0.052 0.051,-0.09 0.018,-0.063 0.027,-0.134 0.027,-0.211 0,-0.08 -0.01,-0.153 -0.03,-0.219 -0.022,-0.073 -0.054,-0.128 -0.095,-0.166 -0.046,-0.043 -0.101,-0.06 -0.165,-0.052zm0.514 0.044c-0.023,0.004 -0.042,0.008 -0.057,0.013 -0.022,0.007 -0.039,0.015 -0.053,0.024 -0.009,0.007 -0.016,0.014 -0.021,0.02 -0.006,0.008 -0.008,0.017 -0.008,0.029 -0.003,-0.011 -0.001,-0.022 0.004,-0.032 0.004,-0.008 0.011,-0.017 0.021,-0.025 0.013,-0.01 0.031,-0.02 0.054,-0.027 0.037,-0.011 0.076,-0.015 0.117,-0.011 -0.022,0.002 -0.041,0.005 -0.058,0.008zm0.094 -0.049c-0.081,-0.004 -0.147,0.006 -0.197,0.031 -0.053,0.026 -0.077,0.062 -0.073,0.109 0.002,0.026 0.013,0.045 0.031,0.057 0.013,0.009 0.033,0.014 0.06,0.017l0.016 0.002 0.016 0.001c0.013,0.001 0.022,0.002 0.03,0.004 0.02,0.004 0.033,0.013 0.038,0.027 0.003,0.008 0,0.055 -0.008,0.141 -0.004,0.044 -0.007,0.081 -0.008,0.112 -0.002,0.044 -0.001,0.082 0.002,0.114 0.005,0.049 0.021,0.088 0.048,0.119 0.028,0.032 0.062,0.045 0.101,0.039 0.071,-0.011 0.097,-0.088 0.076,-0.232 -0.011,-0.076 -0.017,-0.14 -0.018,-0.194 -0.001,-0.057 0.003,-0.091 0.014,-0.1 0.007,-0.006 0.02,-0.01 0.039,-0.01 0.005,-0 0.014,-0 0.026,-0l0.013 0 0.013 -0.001c0.022,-0.001 0.038,-0.004 0.051,-0.011 0.016,-0.008 0.027,-0.022 0.032,-0.042 0.006,-0.024 0.003,-0.048 -0.011,-0.07 -0.013,-0.021 -0.034,-0.039 -0.063,-0.056 -0.059,-0.033 -0.135,-0.052 -0.228,-0.057zm0.704 0.472c-0.007,0.006 -0.014,0.01 -0.021,0.012 -0.008,0.002 -0.016,0.003 -0.024,0.001 0.015,-0.004 0.028,-0.011 0.04,-0.021 0.009,-0.008 0.019,-0.02 0.03,-0.036 -0.002,0.017 -0.01,0.032 -0.024,0.044zm-0.054 -0.03c-0.008,-0.003 -0.013,-0.01 -0.015,-0.02 -0.003,-0.01 -0.002,-0.021 0.002,-0.031 0.004,-0.011 0.01,-0.019 0.018,-0.025 0.008,-0.005 0.016,-0.007 0.024,-0.003 0.008,0.003 0.013,0.01 0.016,0.02 0.002,0.01 0.002,0.021 -0.002,0.032 -0.004,0.011 -0.01,0.019 -0.018,0.025 -0.008,0.005 -0.016,0.007 -0.024,0.003zm-0.083 -0.29c-0.012,0.019 -0.028,0.044 -0.045,0.076 -0.006,0.011 -0.013,0.024 -0.021,0.039l-0.021 0.04c0.009,-0.026 0.021,-0.054 0.035,-0.083 0.013,-0.027 0.027,-0.052 0.044,-0.078 0.019,-0.029 0.037,-0.052 0.055,-0.07l0.008 -0.008c0.003,-0.003 0.006,-0.005 0.008,-0.007l0.008 -0.007 0.009 -0.006c0.016,-0.009 0.029,-0.013 0.04,-0.013 -0.011,0.001 -0.024,0.007 -0.038,0.017l-0.008 0.007 -0.008 0.008c-0.002,0.002 -0.005,0.004 -0.007,0.007l-0.007 0.008c-0.017,0.019 -0.034,0.043 -0.052,0.07zm0.131 -0.158c-0.043,-0.007 -0.091,0.026 -0.145,0.098 -0.048,0.065 -0.091,0.149 -0.129,0.25 -0.037,0.101 -0.059,0.19 -0.065,0.268 -0.006,0.086 0.009,0.136 0.047,0.151 0.028,0.012 0.056,0.011 0.082,-0.002 0.02,-0.01 0.041,-0.027 0.063,-0.053 0.004,-0.005 0.009,-0.011 0.014,-0.017l0.013 -0.016c0.011,-0.014 0.019,-0.024 0.024,-0.03 0.017,-0.02 0.032,-0.031 0.044,-0.031 0.012,-0 0.028,0.009 0.046,0.028 0.006,0.006 0.014,0.015 0.025,0.028l0.014 0.015 0.014 0.016c0.023,0.024 0.043,0.04 0.062,0.049 0.024,0.011 0.049,0.01 0.073,-0.002 0.028,-0.014 0.044,-0.061 0.048,-0.139 0.003,-0.073 -0.005,-0.156 -0.025,-0.249 -0.02,-0.097 -0.047,-0.178 -0.081,-0.243 -0.039,-0.074 -0.079,-0.115 -0.123,-0.122zm0.524 0.039l-0.009 0.003c-0.003,0.001 -0.006,0.002 -0.009,0.004 -0.002,0.001 -0.005,0.002 -0.008,0.004l-0.004 0.003 -0.004 0.002 -0.008 0.006c-0.003,0.002 -0.005,0.004 -0.007,0.006 -0.019,0.016 -0.036,0.036 -0.053,0.061 -0.013,0.019 -0.026,0.043 -0.04,0.072 -0.009,0.02 -0.02,0.046 -0.032,0.077 0.006,-0.027 0.014,-0.054 0.025,-0.081 0.011,-0.027 0.024,-0.052 0.039,-0.075 0.018,-0.026 0.036,-0.047 0.056,-0.061 0.024,-0.019 0.049,-0.027 0.075,-0.025l-0.019 0.003zm0.307 0.24c-0.033,-0.092 -0.078,-0.164 -0.134,-0.216 -0.058,-0.054 -0.117,-0.076 -0.177,-0.067 -0.05,0.008 -0.097,0.046 -0.139,0.112 -0.04,0.063 -0.069,0.139 -0.086,0.229 -0.02,0.101 -0.022,0.195 -0.006,0.282 0.008,0.042 0.019,0.077 0.034,0.102 0.017,0.028 0.036,0.044 0.059,0.047 0.036,0.006 0.064,-0.008 0.086,-0.043 0.017,-0.026 0.031,-0.067 0.043,-0.122 0.002,-0.01 0.005,-0.022 0.007,-0.035l0.003 -0.017 0.003 -0.017c0.005,-0.029 0.009,-0.049 0.012,-0.061 0.009,-0.041 0.02,-0.063 0.033,-0.066 0.01,-0.002 0.019,0.002 0.028,0.014 0.007,0.01 0.015,0.026 0.024,0.049 0.003,0.008 0.007,0.019 0.012,0.033l0.006 0.018 0.007 0.018c0.011,0.031 0.021,0.056 0.03,0.076 0.023,0.052 0.05,0.087 0.081,0.105 0.028,0.017 0.055,0.017 0.079,-0.001 0.016,-0.011 0.028,-0.031 0.037,-0.058 0.009,-0.028 0.013,-0.061 0.014,-0.1 0.002,-0.087 -0.016,-0.182 -0.053,-0.284zm0.449 0.189c-0.007,0.006 -0.014,0.01 -0.021,0.012 -0.008,0.002 -0.016,0.003 -0.024,0.001 0.015,-0.004 0.028,-0.011 0.04,-0.021 0.009,-0.008 0.019,-0.02 0.03,-0.036 -0.002,0.017 -0.01,0.032 -0.024,0.044zm-0.054 -0.03c-0.008,-0.003 -0.013,-0.01 -0.015,-0.02 -0.003,-0.01 -0.002,-0.02 0.002,-0.031 0.004,-0.011 0.01,-0.019 0.018,-0.025 0.008,-0.005 0.016,-0.007 0.024,-0.003 0.008,0.003 0.013,0.01 0.016,0.02 0.002,0.01 0.002,0.021 -0.002,0.032 -0.004,0.011 -0.01,0.019 -0.018,0.025 -0.008,0.005 -0.016,0.007 -0.024,0.003zm-0.083 -0.29c-0.012,0.019 -0.027,0.044 -0.045,0.076 -0.006,0.011 -0.013,0.024 -0.021,0.039l-0.021 0.04c0.009,-0.026 0.021,-0.054 0.035,-0.083 0.013,-0.026 0.027,-0.052 0.044,-0.078 0.019,-0.029 0.037,-0.052 0.055,-0.07l0.008 -0.008c0.003,-0.003 0.006,-0.005 0.008,-0.007l0.008 -0.007 0.009 -0.006c0.016,-0.009 0.029,-0.013 0.04,-0.013 -0.011,0.001 -0.024,0.007 -0.038,0.017l-0.008 0.007 -0.008 0.008c-0.002,0.002 -0.005,0.004 -0.007,0.007l-0.007 0.008c-0.017,0.019 -0.034,0.043 -0.052,0.07zm0.131 -0.158c-0.043,-0.007 -0.091,0.026 -0.145,0.098 -0.048,0.065 -0.091,0.149 -0.129,0.25 -0.038,0.101 -0.059,0.19 -0.065,0.268 -0.006,0.086 0.01,0.136 0.047,0.151 0.028,0.012 0.056,0.011 0.082,-0.002 0.02,-0.01 0.041,-0.027 0.063,-0.053 0.004,-0.005 0.009,-0.011 0.014,-0.017l0.013 -0.016c0.011,-0.014 0.019,-0.024 0.024,-0.03 0.017,-0.02 0.032,-0.031 0.044,-0.031 0.012,-0 0.028,0.009 0.046,0.028 0.006,0.006 0.014,0.015 0.025,0.028l0.014 0.015 0.014 0.016c0.023,0.024 0.043,0.04 0.062,0.049 0.024,0.011 0.049,0.01 0.073,-0.002 0.028,-0.014 0.044,-0.061 0.048,-0.139 0.003,-0.073 -0.005,-0.156 -0.025,-0.249 -0.02,-0.097 -0.047,-0.178 -0.081,-0.243 -0.039,-0.074 -0.079,-0.115 -0.123,-0.122zm0.697 0.463c-0.003,0.002 -0.006,0.004 -0.01,0.008l-0.005 0.004 -0.005 0.004c-0.009,0.007 -0.018,0.011 -0.026,0.013 -0.01,0.003 -0.019,0.003 -0.028,0.001 0.017,-0.004 0.033,-0.011 0.048,-0.023l0.005 -0.004 0.005 -0.004c0.005,-0.003 0.009,-0.006 0.013,-0.007 0.01,-0.005 0.019,-0.006 0.028,-0.004 -0.008,0.002 -0.016,0.005 -0.025,0.011zm-0.29 -0.356c-0.017,0.019 -0.032,0.042 -0.046,0.069 -0.011,0.022 -0.022,0.049 -0.031,0.079 0.005,-0.029 0.013,-0.056 0.025,-0.083 0.011,-0.027 0.026,-0.051 0.045,-0.072 0.02,-0.023 0.042,-0.039 0.066,-0.05 0.014,-0.006 0.027,-0.009 0.039,-0.011 0.015,-0.002 0.028,-0.003 0.04,-0.002 -0.029,0.003 -0.054,0.01 -0.076,0.02 -0.024,0.013 -0.044,0.03 -0.062,0.05zm0.399 0.413c-0.005,-0.056 -0.024,-0.091 -0.057,-0.104 -0.014,-0.006 -0.029,-0.007 -0.046,-0.003 -0.016,0.004 -0.032,0.012 -0.046,0.025 -0.014,0.012 -0.029,0.017 -0.045,0.016 -0.015,-0.001 -0.028,-0.009 -0.041,-0.022 -0.012,-0.014 -0.022,-0.031 -0.027,-0.052 -0.006,-0.023 -0.008,-0.049 -0.004,-0.076 0.005,-0.039 0.022,-0.062 0.052,-0.067 0.022,-0.004 0.052,0.002 0.09,0.017 0.017,0.006 0.033,0.006 0.047,-0.001 0.014,-0.007 0.024,-0.019 0.031,-0.035 0.007,-0.017 0.008,-0.036 0.005,-0.056 -0.003,-0.022 -0.012,-0.044 -0.026,-0.064 -0.03,-0.044 -0.07,-0.073 -0.119,-0.089 -0.045,-0.015 -0.09,-0.016 -0.136,-0.003 -0.059,0.016 -0.107,0.057 -0.146,0.124 -0.042,0.073 -0.062,0.163 -0.061,0.27 0.001,0.122 0.031,0.216 0.089,0.284 0.027,0.032 0.059,0.056 0.096,0.07 0.037,0.015 0.077,0.02 0.119,0.016 0.072,-0.007 0.129,-0.036 0.172,-0.085 0.041,-0.047 0.058,-0.102 0.052,-0.163zm0.386 0.009c-0.006,0.01 -0.014,0.018 -0.024,0.022 -0.01,0.005 -0.02,0.007 -0.03,0.005 0.021,-0.004 0.036,-0.015 0.046,-0.032 0.005,-0.007 0.008,-0.017 0.011,-0.028 0.001,-0.009 0.002,-0.02 0.002,-0.032 0.004,0.01 0.006,0.021 0.005,0.033 -0.001,0.012 -0.004,0.023 -0.01,0.032zm-0.088 -0.041c-0.005,-0.01 -0.007,-0.021 -0.005,-0.031 0.001,-0.011 0.005,-0.018 0.012,-0.022 0.007,-0.004 0.015,-0.003 0.023,0.001 0.009,0.005 0.016,0.012 0.021,0.023 0.005,0.011 0.007,0.021 0.005,0.031 -0.001,0.01 -0.005,0.017 -0.013,0.021 -0.007,0.004 -0.015,0.004 -0.023,-0.001 -0.009,-0.005 -0.016,-0.012 -0.021,-0.023zm-0.05 -0.448c-0.006,0.003 -0.013,0.008 -0.021,0.015 -0.011,0.011 -0.023,0.023 -0.034,0.039 -0.008,0.011 -0.018,0.026 -0.029,0.044 -0.004,0.006 -0.009,0.014 -0.014,0.023l-0.013 0.023c0.006,-0.02 0.013,-0.037 0.02,-0.051 0.008,-0.017 0.017,-0.033 0.028,-0.047 0.012,-0.016 0.025,-0.029 0.037,-0.039 0.017,-0.013 0.033,-0.018 0.048,-0.017 -0.008,0.001 -0.016,0.004 -0.023,0.009zm0.132 0.261c-0.017,-0.005 -0.028,-0.015 -0.033,-0.029 -0.004,-0.011 -0.004,-0.028 -0.001,-0.049 0.001,-0.004 0.001,-0.009 0.002,-0.015l0.002 -0.016c0.002,-0.014 0.004,-0.025 0.006,-0.033 0.004,-0.028 0.004,-0.052 0.002,-0.073 -0.004,-0.03 -0.015,-0.054 -0.032,-0.072 -0.018,-0.018 -0.039,-0.026 -0.063,-0.023 -0.026,0.003 -0.053,0.018 -0.079,0.045 -0.03,0.031 -0.057,0.074 -0.081,0.132 -0.025,0.059 -0.041,0.123 -0.047,0.192 -0.007,0.071 -0.003,0.136 0.013,0.196 0.017,0.065 0.044,0.115 0.083,0.151 0.044,0.04 0.099,0.059 0.166,0.058 0.063,-0.001 0.116,-0.022 0.157,-0.064 0.037,-0.037 0.06,-0.084 0.067,-0.14 0.007,-0.056 -0.003,-0.108 -0.029,-0.155 -0.029,-0.051 -0.074,-0.086 -0.133,-0.105z"/>
  <path class="fil0" d="M12.603 0.534c-0.006,0.012 -0.015,0.02 -0.026,0.026 -0.011,0.006 -0.022,0.007 -0.034,0.005 0.011,-0.002 0.021,-0.005 0.03,-0.011 0.009,-0.007 0.016,-0.015 0.021,-0.024 0.01,-0.018 0.012,-0.041 0.009,-0.067 0.005,0.011 0.008,0.023 0.008,0.036 0,0.013 -0.003,0.025 -0.009,0.037zm-0.09 -0.038c-0.005,-0.011 -0.006,-0.021 -0.005,-0.032 0.002,-0.01 0.006,-0.017 0.013,-0.021 0.007,-0.004 0.015,-0.003 0.023,0.001 0.009,0.005 0.016,0.013 0.021,0.023 0.005,0.011 0.006,0.021 0.005,0.032 -0.002,0.01 -0.006,0.018 -0.013,0.022 -0.007,0.004 -0.015,0.003 -0.023,-0.001 -0.009,-0.005 -0.015,-0.013 -0.021,-0.024zm-0.031 -0.227c0.008,-0.002 0.015,-0.005 0.022,-0.008 0.007,-0.004 0.013,-0.009 0.019,-0.014 0.005,-0.005 0.011,-0.012 0.016,-0.019 0.004,-0.007 0.008,-0.014 0.011,-0.023 0.001,0.019 -0.006,0.035 -0.02,0.049 -0.007,0.006 -0.015,0.011 -0.023,0.014 -0.009,0.003 -0.017,0.003 -0.025,0.001zm-0.006 -0.078c0.004,-0.007 0.009,-0.012 0.015,-0.014 0.006,-0.003 0.011,-0.002 0.015,0.001 0.004,0.003 0.006,0.008 0.007,0.015 0,0.007 -0.002,0.014 -0.006,0.02 -0.004,0.007 -0.009,0.012 -0.015,0.014 -0.006,0.003 -0.011,0.002 -0.015,-0.001 -0.004,-0.003 -0.006,-0.008 -0.007,-0.015 -0,-0.007 0.002,-0.014 0.006,-0.02zm-0.079 -0.101c-0.008,0.008 -0.017,0.019 -0.026,0.032 -0.014,0.02 -0.027,0.044 -0.039,0.073 -0.009,0.023 -0.019,0.05 -0.028,0.08 0.004,-0.028 0.011,-0.055 0.021,-0.083 0.01,-0.028 0.023,-0.054 0.039,-0.077 0.018,-0.026 0.038,-0.045 0.06,-0.057 0.014,-0.008 0.027,-0.013 0.038,-0.015 0.014,-0.003 0.027,-0.003 0.04,-0.002 -0.027,0.001 -0.052,0.009 -0.074,0.024 -0.011,0.007 -0.022,0.016 -0.031,0.025zm0.202 0.218c-0.005,-0.003 -0.006,-0.009 -0.003,-0.018 0.002,-0.003 0.004,-0.008 0.008,-0.015l0.003 -0.004 0.003 -0.005c0.002,-0.004 0.004,-0.008 0.006,-0.011 0.01,-0.019 0.017,-0.037 0.022,-0.055 0.007,-0.025 0.009,-0.052 0.006,-0.079 -0.003,-0.031 -0.017,-0.057 -0.043,-0.08 -0.026,-0.023 -0.057,-0.036 -0.092,-0.039 -0.039,-0.003 -0.075,0.007 -0.11,0.03 -0.039,0.027 -0.072,0.069 -0.097,0.126 -0.026,0.06 -0.042,0.125 -0.048,0.197 -0.006,0.073 -0.001,0.141 0.016,0.203 0.018,0.068 0.048,0.121 0.088,0.159 0.046,0.042 0.102,0.063 0.17,0.062 0.065,-0.001 0.117,-0.021 0.157,-0.06 0.037,-0.035 0.059,-0.08 0.065,-0.135 0.006,-0.054 -0.003,-0.105 -0.028,-0.155 -0.027,-0.053 -0.068,-0.094 -0.123,-0.121zm0.752 0.221c-0.007,0.005 -0.015,0.009 -0.022,0.011 -0.008,0.002 -0.016,0.002 -0.024,-0.001 0.015,-0.003 0.029,-0.009 0.041,-0.018 0.01,-0.007 0.02,-0.019 0.032,-0.034 -0.003,0.017 -0.012,0.031 -0.027,0.042zm-0.052 -0.034c-0.007,-0.004 -0.012,-0.011 -0.014,-0.021 -0.002,-0.01 -0.001,-0.021 0.004,-0.031 0.005,-0.011 0.011,-0.019 0.02,-0.024 0.009,-0.005 0.017,-0.006 0.024,-0.002 0.007,0.004 0.012,0.01 0.014,0.021 0.002,0.01 0,0.021 -0.004,0.032 -0.005,0.011 -0.011,0.018 -0.02,0.024 -0.009,0.005 -0.017,0.006 -0.024,0.002zm-0.064 -0.295c-0.014,0.018 -0.03,0.042 -0.05,0.072 -0.007,0.011 -0.014,0.023 -0.023,0.038l-0.023 0.038c0.011,-0.026 0.024,-0.052 0.04,-0.08 0.015,-0.026 0.031,-0.05 0.049,-0.075 0.021,-0.028 0.041,-0.05 0.059,-0.066l0.008 -0.007c0.003,-0.003 0.006,-0.005 0.008,-0.007l0.009 -0.007 0.009 -0.006c0.016,-0.008 0.03,-0.011 0.041,-0.01 -0.011,0.001 -0.024,0.005 -0.039,0.015l-0.008 0.006 -0.008 0.007c-0.002,0.002 -0.005,0.004 -0.008,0.007l-0.008 0.008c-0.018,0.018 -0.037,0.04 -0.056,0.066zm0.141 -0.149c-0.043,-0.01 -0.093,0.02 -0.151,0.089 -0.052,0.062 -0.1,0.143 -0.145,0.241 -0.044,0.098 -0.071,0.186 -0.082,0.263 -0.012,0.085 0.001,0.136 0.037,0.154 0.028,0.013 0.055,0.015 0.082,0.003 0.02,-0.008 0.042,-0.024 0.066,-0.049 0.005,-0.005 0.01,-0.01 0.015,-0.016l0.014 -0.016c0.012,-0.013 0.02,-0.023 0.026,-0.028 0.019,-0.019 0.034,-0.029 0.046,-0.028 0.012,0.001 0.027,0.011 0.044,0.031 0.005,0.006 0.013,0.016 0.023,0.03l0.013 0.016 0.013 0.016c0.021,0.025 0.041,0.043 0.058,0.053 0.024,0.013 0.048,0.014 0.073,0.003 0.029,-0.013 0.048,-0.058 0.056,-0.135 0.008,-0.072 0.005,-0.156 -0.009,-0.25 -0.014,-0.098 -0.036,-0.18 -0.065,-0.248 -0.034,-0.076 -0.072,-0.119 -0.114,-0.129zm0.52 0.072l-0.01 0.002c-0.003,0.001 -0.006,0.002 -0.009,0.003 -0.002,0.001 -0.005,0.002 -0.009,0.003l-0.005 0.002 -0.005 0.002 -0.008 0.005c-0.003,0.002 -0.006,0.004 -0.008,0.005 -0.02,0.015 -0.039,0.034 -0.057,0.058 -0.014,0.018 -0.029,0.042 -0.045,0.07 -0.011,0.02 -0.023,0.045 -0.036,0.075 0.007,-0.026 0.018,-0.053 0.03,-0.079 0.012,-0.026 0.027,-0.05 0.044,-0.072 0.019,-0.025 0.039,-0.044 0.06,-0.057 0.025,-0.017 0.051,-0.023 0.076,-0.02l-0.02 0.002zm0.291 0.259c-0.027,-0.094 -0.067,-0.168 -0.12,-0.224 -0.055,-0.057 -0.112,-0.083 -0.173,-0.078 -0.051,0.005 -0.099,0.039 -0.146,0.103 -0.044,0.06 -0.077,0.135 -0.101,0.223 -0.026,0.1 -0.034,0.193 -0.024,0.281 0.005,0.043 0.014,0.078 0.028,0.104 0.015,0.029 0.033,0.046 0.056,0.051 0.035,0.008 0.065,-0.004 0.089,-0.037 0.018,-0.025 0.035,-0.065 0.05,-0.119 0.003,-0.01 0.006,-0.021 0.009,-0.034l0.004 -0.017 0.004 -0.017c0.007,-0.029 0.012,-0.049 0.015,-0.06 0.012,-0.04 0.024,-0.062 0.037,-0.063 0.01,-0.002 0.019,0.004 0.027,0.016 0.007,0.011 0.014,0.027 0.021,0.051 0.002,0.008 0.006,0.02 0.01,0.033l0.005 0.019 0.005 0.019c0.009,0.032 0.017,0.058 0.025,0.078 0.02,0.053 0.045,0.09 0.074,0.11 0.027,0.019 0.053,0.02 0.079,0.004 0.016,-0.01 0.03,-0.029 0.04,-0.056 0.01,-0.027 0.017,-0.06 0.02,-0.099 0.007,-0.087 -0.004,-0.183 -0.035,-0.287zm0.702 0.078c-0.009,0.01 -0.019,0.018 -0.03,0.022 -0.012,0.005 -0.023,0.006 -0.035,0.003 0.023,-0.003 0.042,-0.013 0.057,-0.033 0.013,-0.016 0.022,-0.037 0.028,-0.065 0.003,0.027 -0.005,0.051 -0.021,0.071zm-0.101 -0.078c0.001,-0.017 0.006,-0.031 0.015,-0.043 0.009,-0.012 0.019,-0.017 0.031,-0.017 0.012,0.001 0.021,0.007 0.029,0.02 0.008,0.012 0.011,0.027 0.01,0.044 -0.001,0.017 -0.006,0.031 -0.015,0.042 -0.009,0.011 -0.019,0.017 -0.031,0.016 -0.011,-0.001 -0.021,-0.007 -0.029,-0.02 -0.008,-0.013 -0.011,-0.027 -0.01,-0.044zm-0.254 0.063c-0.009,0.009 -0.019,0.016 -0.029,0.021 -0.012,0.005 -0.023,0.006 -0.034,0.003 0.021,-0.003 0.04,-0.014 0.057,-0.031 0.014,-0.015 0.025,-0.035 0.034,-0.06 -0,0.026 -0.009,0.048 -0.027,0.067zm-0.07 -0.019c-0.009,-0.005 -0.015,-0.014 -0.017,-0.027 -0.002,-0.013 -0,-0.027 0.006,-0.041 0.006,-0.014 0.015,-0.025 0.025,-0.032 0.011,-0.007 0.021,-0.008 0.03,-0.004 0.009,0.005 0.015,0.014 0.017,0.027 0.002,0.013 0,0.027 -0.006,0.041 -0.006,0.014 -0.014,0.025 -0.025,0.032 -0.011,0.007 -0.021,0.008 -0.03,0.004zm-0.108 -0.163c-0.013,0.022 -0.022,0.047 -0.028,0.077 0.001,-0.013 0.003,-0.026 0.007,-0.041 0.003,-0.013 0.008,-0.026 0.015,-0.039 0.013,-0.026 0.031,-0.046 0.054,-0.063 0.018,-0.013 0.043,-0.023 0.074,-0.028 0.025,-0.005 0.051,-0.007 0.077,-0.007l-0.019 0.003 -0.019 0.003c-0.014,0.003 -0.027,0.005 -0.038,0.008 -0.031,0.008 -0.054,0.018 -0.07,0.03 -0.021,0.014 -0.039,0.033 -0.053,0.057zm0.636 -0.027c-0.024,-0.028 -0.062,-0.052 -0.113,-0.072 -0.047,-0.018 -0.1,-0.031 -0.159,-0.039 -0.057,-0.007 -0.113,-0.009 -0.166,-0.005 -0.055,0.004 -0.099,0.013 -0.133,0.027 -0.042,0.018 -0.075,0.048 -0.099,0.091 -0.023,0.041 -0.034,0.086 -0.032,0.135 0.001,0.051 0.016,0.096 0.043,0.135 0.031,0.043 0.074,0.074 0.129,0.092 0.017,0.005 0.029,0.014 0.035,0.027 0.005,0.01 0.008,0.026 0.008,0.046 0,0.006 -0,0.016 -0.001,0.029l-0 0.016c-0,0.006 -0,0.012 -0,0.017 -0,0.027 0.002,0.051 0.006,0.073 0.006,0.029 0.02,0.051 0.041,0.066 0.02,0.015 0.043,0.022 0.068,0.019 0.027,-0.003 0.05,-0.015 0.07,-0.037 0.023,-0.024 0.039,-0.057 0.047,-0.098 0.012,-0.061 0.022,-0.101 0.03,-0.121 0.009,-0.02 0.02,-0.03 0.034,-0.03 0.061,-0.001 0.113,-0.015 0.153,-0.043 0.037,-0.024 0.062,-0.057 0.078,-0.099 0.014,-0.039 0.017,-0.079 0.01,-0.122 -0.007,-0.042 -0.024,-0.078 -0.049,-0.107zm0.439 0.407c-0.007,0.006 -0.015,0.009 -0.022,0.011 -0.008,0.002 -0.016,0.002 -0.024,-0.001 0.015,-0.003 0.029,-0.009 0.041,-0.018 0.01,-0.007 0.02,-0.019 0.032,-0.034 -0.003,0.017 -0.012,0.031 -0.027,0.042zm-0.052 -0.034c-0.007,-0.004 -0.012,-0.011 -0.014,-0.021 -0.002,-0.01 -0.001,-0.021 0.004,-0.031 0.005,-0.011 0.011,-0.019 0.02,-0.024 0.009,-0.005 0.017,-0.006 0.024,-0.002 0.007,0.004 0.012,0.01 0.014,0.021 0.002,0.01 0,0.021 -0.004,0.032 -0.005,0.011 -0.011,0.018 -0.02,0.024 -0.009,0.005 -0.017,0.006 -0.024,0.002zm-0.064 -0.295c-0.014,0.018 -0.03,0.042 -0.05,0.073 -0.007,0.011 -0.014,0.023 -0.023,0.038l-0.023 0.038c0.011,-0.026 0.024,-0.052 0.04,-0.08 0.015,-0.026 0.031,-0.05 0.049,-0.075 0.021,-0.028 0.041,-0.05 0.059,-0.066l0.008 -0.007c0.003,-0.003 0.006,-0.005 0.008,-0.007l0.009 -0.007 0.009 -0.006c0.016,-0.008 0.03,-0.011 0.041,-0.01 -0.011,0 -0.024,0.005 -0.039,0.015l-0.008 0.006 -0.008 0.007c-0.002,0.002 -0.005,0.004 -0.008,0.007l-0.008 0.008c-0.018,0.018 -0.037,0.04 -0.056,0.066zm0.141 -0.149c-0.043,-0.01 -0.093,0.02 -0.151,0.089 -0.052,0.062 -0.1,0.143 -0.145,0.241 -0.044,0.098 -0.071,0.186 -0.082,0.263 -0.012,0.085 0.001,0.136 0.037,0.154 0.027,0.013 0.055,0.015 0.082,0.003 0.02,-0.008 0.042,-0.024 0.066,-0.049 0.004,-0.005 0.01,-0.01 0.015,-0.016l0.014 -0.016c0.012,-0.013 0.02,-0.023 0.026,-0.028 0.019,-0.019 0.034,-0.028 0.046,-0.028 0.012,0.001 0.027,0.011 0.044,0.031 0.005,0.006 0.013,0.016 0.023,0.03l0.013 0.016 0.013 0.016c0.021,0.025 0.041,0.043 0.058,0.052 0.024,0.013 0.048,0.014 0.073,0.003 0.029,-0.013 0.048,-0.058 0.056,-0.135 0.008,-0.072 0.005,-0.156 -0.009,-0.25 -0.014,-0.098 -0.036,-0.18 -0.065,-0.248 -0.034,-0.076 -0.072,-0.119 -0.114,-0.129zm0.601 0.56c-0.006,0.012 -0.015,0.02 -0.026,0.026 -0.011,0.006 -0.022,0.007 -0.034,0.005 0.011,-0.002 0.021,-0.005 0.03,-0.011 0.009,-0.007 0.016,-0.015 0.021,-0.024 0.01,-0.018 0.012,-0.041 0.009,-0.067 0.005,0.011 0.008,0.023 0.008,0.036 0,0.013 -0.003,0.025 -0.009,0.037zm-0.09 -0.038c-0.005,-0.011 -0.006,-0.021 -0.005,-0.032 0.002,-0.01 0.006,-0.017 0.013,-0.021 0.007,-0.004 0.015,-0.003 0.023,0.001 0.009,0.005 0.016,0.013 0.021,0.023 0.005,0.011 0.006,0.021 0.005,0.032 -0.002,0.01 -0.006,0.018 -0.013,0.022 -0.007,0.004 -0.015,0.003 -0.023,-0.001 -0.009,-0.005 -0.015,-0.013 -0.021,-0.024zm-0.031 -0.227c0.008,-0.002 0.015,-0.005 0.022,-0.008 0.007,-0.004 0.013,-0.009 0.019,-0.014 0.005,-0.005 0.011,-0.012 0.016,-0.019 0.004,-0.007 0.008,-0.014 0.011,-0.023 0.001,0.019 -0.006,0.035 -0.02,0.049 -0.007,0.006 -0.015,0.011 -0.023,0.014 -0.009,0.003 -0.017,0.003 -0.025,0.001zm-0.006 -0.078c0.004,-0.007 0.009,-0.012 0.015,-0.014 0.006,-0.003 0.011,-0.002 0.015,0.001 0.004,0.003 0.006,0.008 0.007,0.015 0,0.007 -0.002,0.014 -0.006,0.02 -0.004,0.007 -0.009,0.012 -0.015,0.014 -0.006,0.003 -0.011,0.002 -0.015,-0.001 -0.004,-0.003 -0.006,-0.008 -0.007,-0.015 -0,-0.007 0.002,-0.014 0.005,-0.02zm-0.079 -0.101c-0.008,0.008 -0.017,0.019 -0.026,0.032 -0.014,0.02 -0.027,0.044 -0.039,0.073 -0.009,0.023 -0.019,0.05 -0.028,0.08 0.004,-0.028 0.011,-0.055 0.021,-0.083 0.01,-0.028 0.023,-0.054 0.039,-0.076 0.018,-0.026 0.038,-0.045 0.06,-0.057 0.014,-0.008 0.027,-0.013 0.038,-0.015 0.014,-0.003 0.027,-0.003 0.04,-0.002 -0.027,0.001 -0.052,0.009 -0.074,0.024 -0.011,0.007 -0.022,0.016 -0.031,0.025zm0.202 0.218c-0.005,-0.003 -0.006,-0.009 -0.003,-0.018 0.002,-0.003 0.004,-0.008 0.008,-0.015l0.003 -0.004 0.003 -0.005c0.002,-0.004 0.004,-0.007 0.006,-0.011 0.01,-0.019 0.017,-0.037 0.022,-0.055 0.007,-0.025 0.009,-0.052 0.006,-0.079 -0.003,-0.031 -0.017,-0.057 -0.043,-0.08 -0.026,-0.023 -0.057,-0.036 -0.092,-0.039 -0.039,-0.003 -0.075,0.007 -0.11,0.03 -0.039,0.027 -0.072,0.069 -0.097,0.126 -0.026,0.06 -0.042,0.125 -0.048,0.197 -0.006,0.073 -0.001,0.141 0.016,0.203 0.018,0.068 0.048,0.121 0.088,0.159 0.046,0.042 0.102,0.063 0.17,0.062 0.065,-0.001 0.117,-0.021 0.157,-0.06 0.037,-0.035 0.059,-0.08 0.065,-0.135 0.006,-0.054 -0.003,-0.105 -0.028,-0.155 -0.027,-0.053 -0.068,-0.094 -0.123,-0.121zm0.62 -0.18c-0.009,0.01 -0.019,0.023 -0.029,0.037 -0.017,0.026 -0.032,0.054 -0.045,0.084l-0.009 0.022 -0.009 0.023c-0.008,0.02 -0.014,0.035 -0.018,0.045 -0.009,0.019 -0.018,0.034 -0.025,0.042 -0.006,0.007 -0.012,0.011 -0.02,0.013 -0.006,0.002 -0.014,0.003 -0.023,0.001 0.009,0 0.016,-0.001 0.022,-0.004 0.006,-0.003 0.012,-0.008 0.017,-0.015 0.007,-0.009 0.014,-0.023 0.022,-0.042l0.008 -0.023 0.009 -0.023c0.007,-0.018 0.013,-0.034 0.018,-0.046 0.014,-0.033 0.03,-0.061 0.048,-0.084 0.024,-0.031 0.047,-0.052 0.07,-0.063 -0.013,0.008 -0.024,0.018 -0.035,0.03zm-0.336 0.107c-0.006,0.022 -0.011,0.048 -0.017,0.078l-0.007 0.04 -0.007 0.039c0.001,-0.079 0.014,-0.148 0.037,-0.209 0.004,-0.012 0.009,-0.023 0.013,-0.032 0.006,-0.013 0.013,-0.023 0.019,-0.032 0.018,-0.023 0.037,-0.034 0.058,-0.031 -0.026,0.001 -0.047,0.02 -0.065,0.056 -0.007,0.013 -0.013,0.029 -0.019,0.048 -0.002,0.007 -0.005,0.014 -0.007,0.023l-0.003 0.011 -0.001 0.005 -0.001 0.005zm0.467 -0.168c-0.039,-0.029 -0.08,-0.029 -0.124,-0 -0.036,0.023 -0.068,0.062 -0.098,0.117 -0.009,0.017 -0.019,0.038 -0.029,0.061 -0.004,0.008 -0.007,0.018 -0.012,0.03l-0.005 0.014 -0.002 0.006 -0.003 0.006c-0.008,0.019 -0.013,0.033 -0.017,0.04 -0.005,0.01 -0.01,0.015 -0.015,0.014 -0.009,-0.001 -0.013,-0.009 -0.012,-0.023 -0,-0.012 0.004,-0.04 0.012,-0.083 0.015,-0.079 0.013,-0.135 -0.005,-0.168 -0.015,-0.026 -0.04,-0.038 -0.075,-0.035 -0.043,0.004 -0.079,0.045 -0.108,0.125 -0.028,0.077 -0.044,0.172 -0.047,0.284 -0.006,0.207 0.045,0.322 0.15,0.343 0.031,0.006 0.062,-0 0.094,-0.019 0.03,-0.018 0.056,-0.043 0.078,-0.076 0.02,-0.029 0.036,-0.056 0.05,-0.081 0.005,-0.009 0.01,-0.019 0.014,-0.028 0.003,-0.006 0.007,-0.013 0.01,-0.021 0.006,-0.013 0.01,-0.021 0.012,-0.023 0.003,-0.003 0.006,-0.004 0.01,-0.003 0.004,0.002 0.004,0.017 -0.001,0.045l-0.002 0.01 -0.002 0.01c-0.002,0.009 -0.003,0.017 -0.004,0.023 -0.003,0.019 -0.005,0.035 -0.006,0.049 -0.007,0.088 0.02,0.133 0.079,0.136 0.038,0.002 0.07,-0.032 0.095,-0.101 0.022,-0.062 0.036,-0.141 0.042,-0.237 0.005,-0.094 0.001,-0.18 -0.013,-0.257 -0.015,-0.083 -0.038,-0.137 -0.069,-0.16zm0.331 0.05c-0.023,0.002 -0.042,0.005 -0.057,0.009 -0.022,0.005 -0.04,0.012 -0.054,0.021 -0.01,0.006 -0.017,0.013 -0.022,0.019 -0.006,0.007 -0.009,0.017 -0.01,0.029 -0.002,-0.011 0,-0.022 0.006,-0.032 0.005,-0.008 0.012,-0.016 0.022,-0.023 0.014,-0.01 0.032,-0.018 0.056,-0.024 0.037,-0.009 0.077,-0.01 0.118,-0.003 -0.022,0.001 -0.041,0.003 -0.059,0.004zm0.097 -0.043c-0.081,-0.009 -0.147,-0.003 -0.199,0.018 -0.055,0.022 -0.081,0.057 -0.08,0.104 0.001,0.026 0.01,0.046 0.028,0.059 0.013,0.009 0.032,0.016 0.059,0.021l0.016 0.003 0.016 0.002c0.012,0.002 0.022,0.004 0.029,0.006 0.02,0.006 0.032,0.015 0.036,0.029 0.002,0.008 -0.003,0.055 -0.017,0.14 -0.007,0.043 -0.012,0.08 -0.015,0.111 -0.004,0.043 -0.006,0.081 -0.005,0.114 0.002,0.049 0.015,0.09 0.04,0.121 0.026,0.034 0.059,0.049 0.098,0.046 0.072,-0.007 0.102,-0.082 0.091,-0.226 -0.006,-0.076 -0.008,-0.141 -0.005,-0.195 0.002,-0.057 0.009,-0.09 0.02,-0.099 0.008,-0.006 0.021,-0.008 0.039,-0.008 0.005,0 0.014,0.001 0.026,0.001l0.013 0.001 0.013 0c0.022,0.001 0.039,-0.002 0.051,-0.008 0.017,-0.007 0.028,-0.021 0.035,-0.04 0.008,-0.024 0.006,-0.047 -0.006,-0.07 -0.012,-0.021 -0.032,-0.041 -0.06,-0.06 -0.057,-0.037 -0.132,-0.06 -0.224,-0.071zm0.658 0.587l-0.007 0.002c-0.006,0.002 -0.011,0.003 -0.015,0.003 -0.012,0.002 -0.022,0.002 -0.032,-0.001 0.01,-0.002 0.02,-0.004 0.03,-0.007l0.007 -0.003 0.007 -0.002c0.006,-0.003 0.011,-0.004 0.015,-0.005 0.011,-0.003 0.022,-0.005 0.031,-0.006 0.012,-0.001 0.022,-0.001 0.031,0.002 -0.017,0.003 -0.038,0.007 -0.06,0.014l-0.008 0.002zm-0.116 -0.51c-0.016,0.004 -0.03,0.009 -0.042,0.016 -0.015,0.008 -0.027,0.017 -0.037,0.027 -0.01,0.01 -0.02,0.022 -0.029,0.037 -0.013,0.023 -0.025,0.053 -0.037,0.09 -0.005,0.015 -0.008,0.031 -0.012,0.048 -0.002,0.007 -0.003,0.015 -0.005,0.024l-0.005 0.025c0.003,-0.035 0.008,-0.067 0.016,-0.098 0.009,-0.036 0.021,-0.067 0.036,-0.093 0.01,-0.016 0.02,-0.03 0.031,-0.04 0.013,-0.011 0.026,-0.02 0.04,-0.026 0.014,-0.006 0.029,-0.011 0.045,-0.013 0.016,-0.002 0.031,-0.003 0.046,-0.001 -0.017,0.001 -0.032,0.002 -0.045,0.006zm0.079 0.292l0.004 -0.001c0.003,-0.001 0.006,-0.001 0.009,-0.002 0.007,-0.001 0.012,-0 0.017,0.002 0.006,0.002 0.011,0.006 0.014,0.011 -0.004,-0.001 -0.009,-0.002 -0.015,-0.003 -0.005,0 -0.01,0 -0.015,0.001l-0.004 0 -0.004 0c-0.003,0.001 -0.006,0.001 -0.008,0.001 -0.006,0 -0.012,-0.001 -0.017,-0.003l0.008 -0.002 0.008 -0.002 0.004 -0.001zm0.013 0.176c-0.018,0.006 -0.032,0.007 -0.044,0.001 -0.01,-0.005 -0.016,-0.013 -0.019,-0.024 -0.002,-0.011 -0.001,-0.021 0.006,-0.029 0.006,-0.009 0.015,-0.014 0.028,-0.015 0.036,-0.002 0.062,-0.01 0.08,-0.027 0.017,-0.015 0.025,-0.034 0.025,-0.058 -0,-0.022 -0.009,-0.04 -0.027,-0.051 -0.018,-0.012 -0.04,-0.015 -0.066,-0.01 -0.022,0.005 -0.036,-0.002 -0.041,-0.021 -0.002,-0.008 -0.002,-0.016 0.001,-0.024 0.003,-0.008 0.008,-0.015 0.014,-0.02 0.01,-0.007 0.024,-0.011 0.044,-0.013 0.007,-0.001 0.016,-0.001 0.027,-0.001l0.013 0 0.014 -0c0.022,-0.001 0.039,-0.003 0.052,-0.008 0.017,-0.007 0.03,-0.018 0.037,-0.034 0.013,-0.028 0.01,-0.057 -0.01,-0.087 -0.019,-0.029 -0.047,-0.052 -0.085,-0.07 -0.04,-0.019 -0.082,-0.026 -0.124,-0.023 -0.048,0.004 -0.089,0.022 -0.124,0.054 -0.033,0.03 -0.058,0.078 -0.077,0.145 -0.017,0.062 -0.027,0.131 -0.028,0.206 -0.001,0.075 0.006,0.142 0.021,0.202 0.016,0.064 0.039,0.108 0.069,0.131 0.029,0.023 0.067,0.036 0.112,0.037 0.041,0.001 0.083,-0.007 0.125,-0.025 0.042,-0.017 0.077,-0.039 0.104,-0.067 0.029,-0.03 0.045,-0.06 0.047,-0.091 0.003,-0.041 -0.011,-0.069 -0.04,-0.084 -0.031,-0.015 -0.075,-0.013 -0.133,0.007z"/>
 </g>
</svg>
