<?xml version="1.0" encoding="UTF-8"?>
<!DOCTYPE svg PUBLIC "-//W3C//DTD SVG 1.1//EN" "http://www.w3.org/Graphics/SVG/1.1/DTD/svg11.dtd">
<!-- Creator: CorelDRAW 2019 (64-Bit) -->
<svg xmlns="http://www.w3.org/2000/svg" xml:space="preserve" width="3.79637cm" height="0.26175cm" version="1.1" style="shape-rendering:geometricPrecision; text-rendering:geometricPrecision; image-rendering:optimizeQuality; fill-rule:evenodd; clip-rule:evenodd"
viewBox="0 0 15.041 1.037"
 xmlns:xlink="http://www.w3.org/1999/xlink"
 xmlns:xodm="http://www.corel.com/coreldraw/odm/2003">
 <defs>
  <style type="text/css">
   <![CDATA[
    .fil0 {fill:#A39F6B;fill-rule:nonzero}
   ]]>
  </style>
 </defs>
 <g id="Слой_x0020_1">
  <metadata id="CorelCorpID_0Corel-Layer"/>
  <g id="_1963264542816">
   <path class="fil0" d="M0.331 0.734c-0.005,0.011 -0.012,0.02 -0.021,0.026 -0.01,0.006 -0.019,0.009 -0.03,0.007 0.01,-0.002 0.019,-0.007 0.026,-0.013 0.008,-0.007 0.013,-0.015 0.017,-0.024 0.007,-0.017 0.008,-0.038 0.002,-0.062 0.006,0.009 0.009,0.02 0.01,0.032 0.001,0.012 -0,0.023 -0.005,0.034zm-0.085 -0.026c-0.005,-0.009 -0.007,-0.019 -0.007,-0.028 0.001,-0.009 0.004,-0.016 0.01,-0.021 0.006,-0.004 0.013,-0.004 0.021,-0.001 0.008,0.004 0.015,0.01 0.021,0.019 0.005,0.009 0.008,0.019 0.007,0.028 -0.001,0.01 -0.004,0.016 -0.01,0.021 -0.006,0.004 -0.013,0.004 -0.021,0.001 -0.008,-0.004 -0.015,-0.01 -0.021,-0.02zm-0.047 -0.203c0.007,-0.002 0.014,-0.005 0.02,-0.009 0.006,-0.005 0.011,-0.009 0.016,-0.014 0.004,-0.005 0.009,-0.011 0.012,-0.019 0.003,-0.006 0.006,-0.014 0.008,-0.022 0.002,0.017 -0.002,0.032 -0.014,0.046 -0.006,0.006 -0.012,0.011 -0.019,0.015 -0.008,0.003 -0.015,0.004 -0.023,0.003zm-0.012 -0.071c0.003,-0.007 0.007,-0.012 0.013,-0.014 0.005,-0.003 0.01,-0.003 0.014,-0 0.004,0.002 0.006,0.007 0.007,0.013 0.001,0.006 -0,0.012 -0.003,0.019 -0.003,0.007 -0.007,0.012 -0.013,0.014 -0.005,0.003 -0.01,0.003 -0.014,0 -0.004,-0.002 -0.006,-0.007 -0.007,-0.013 -0.001,-0.006 0,-0.013 0.003,-0.019zm-0.08 -0.085c-0.007,0.008 -0.014,0.019 -0.021,0.031 -0.011,0.019 -0.02,0.042 -0.029,0.069 -0.007,0.022 -0.013,0.047 -0.018,0.075 0.001,-0.025 0.006,-0.051 0.012,-0.077 0.007,-0.026 0.016,-0.05 0.029,-0.073 0.014,-0.025 0.031,-0.044 0.05,-0.057 0.012,-0.008 0.023,-0.014 0.033,-0.017 0.013,-0.004 0.024,-0.005 0.036,-0.005 -0.025,0.003 -0.046,0.013 -0.065,0.028 -0.01,0.008 -0.018,0.016 -0.026,0.026zm0.202 0.18c-0.005,-0.002 -0.006,-0.007 -0.004,-0.016 0.001,-0.003 0.003,-0.008 0.006,-0.015l0.002 -0.004 0.002 -0.004c0.002,-0.004 0.003,-0.007 0.005,-0.01 0.007,-0.018 0.013,-0.035 0.015,-0.052 0.004,-0.024 0.003,-0.048 -0.001,-0.072 -0.005,-0.027 -0.021,-0.05 -0.046,-0.069 -0.026,-0.019 -0.054,-0.028 -0.087,-0.028 -0.035,0 -0.068,0.012 -0.097,0.036 -0.033,0.027 -0.059,0.068 -0.077,0.123 -0.018,0.056 -0.027,0.117 -0.027,0.182 0.001,0.067 0.011,0.128 0.032,0.183 0.022,0.06 0.053,0.105 0.093,0.136 0.045,0.035 0.098,0.048 0.159,0.042 0.058,-0.006 0.104,-0.029 0.137,-0.067 0.031,-0.035 0.046,-0.077 0.047,-0.127 0.001,-0.049 -0.012,-0.095 -0.039,-0.138 -0.029,-0.046 -0.07,-0.079 -0.122,-0.099zm0.52 0.143c-0.006,0.006 -0.012,0.009 -0.019,0.012 -0.007,0.002 -0.015,0.003 -0.022,0.001 0.013,-0.004 0.025,-0.011 0.036,-0.02 0.008,-0.007 0.017,-0.019 0.026,-0.033 -0.002,0.016 -0.008,0.029 -0.021,0.041zm-0.05 -0.026c-0.007,-0.003 -0.012,-0.009 -0.014,-0.018 -0.003,-0.009 -0.003,-0.019 0.001,-0.029 0.003,-0.01 0.009,-0.018 0.016,-0.023 0.007,-0.005 0.015,-0.006 0.022,-0.004 0.007,0.003 0.012,0.008 0.015,0.018 0.002,0.009 0.002,0.019 -0.001,0.029 -0.003,0.01 -0.009,0.018 -0.016,0.023 -0.007,0.005 -0.014,0.006 -0.022,0.004zm-0.083 -0.262c-0.011,0.018 -0.024,0.041 -0.039,0.07 -0.005,0.01 -0.011,0.022 -0.018,0.036l-0.018 0.037c0.008,-0.024 0.018,-0.05 0.029,-0.076 0.011,-0.024 0.023,-0.048 0.038,-0.072 0.016,-0.027 0.033,-0.048 0.048,-0.065l0.007 -0.007c0.003,-0.003 0.005,-0.005 0.007,-0.007l0.007 -0.007 0.008 -0.006c0.014,-0.009 0.026,-0.013 0.036,-0.013 -0.01,0.001 -0.022,0.007 -0.034,0.017l-0.007 0.006 -0.007 0.007c-0.002,0.002 -0.004,0.004 -0.007,0.007l-0.006 0.008c-0.015,0.018 -0.03,0.04 -0.045,0.065zm0.115 -0.147c-0.04,-0.005 -0.083,0.026 -0.129,0.093 -0.042,0.061 -0.079,0.138 -0.111,0.231 -0.031,0.093 -0.049,0.174 -0.052,0.245 -0.003,0.078 0.012,0.123 0.047,0.136 0.026,0.01 0.051,0.009 0.075,-0.004 0.018,-0.009 0.036,-0.026 0.056,-0.05 0.004,-0.005 0.008,-0.01 0.012,-0.016l0.011 -0.015c0.009,-0.013 0.016,-0.023 0.021,-0.028 0.015,-0.019 0.028,-0.029 0.039,-0.029 0.011,-0 0.026,0.008 0.043,0.024 0.005,0.005 0.013,0.013 0.024,0.025l0.013 0.013 0.013 0.014c0.021,0.021 0.04,0.035 0.057,0.043 0.022,0.009 0.044,0.008 0.066,-0.003 0.025,-0.014 0.039,-0.056 0.04,-0.127 0.001,-0.066 -0.009,-0.141 -0.029,-0.225 -0.021,-0.087 -0.048,-0.16 -0.08,-0.219 -0.037,-0.066 -0.075,-0.102 -0.115,-0.108zm0.477 0.022l-0.009 0.003c-0.003,0.001 -0.006,0.002 -0.008,0.004 -0.002,0.001 -0.005,0.002 -0.008,0.004l-0.004 0.003 -0.004 0.002 -0.007 0.006c-0.003,0.002 -0.005,0.004 -0.007,0.006 -0.017,0.015 -0.032,0.034 -0.046,0.057 -0.011,0.018 -0.023,0.04 -0.035,0.067 -0.008,0.019 -0.017,0.042 -0.027,0.071 0.005,-0.024 0.011,-0.049 0.021,-0.074 0.009,-0.025 0.02,-0.048 0.034,-0.069 0.015,-0.024 0.032,-0.043 0.049,-0.057 0.021,-0.017 0.044,-0.026 0.067,-0.024l-0.018 0.004zm0.285 0.21c-0.033,-0.082 -0.075,-0.147 -0.128,-0.193 -0.054,-0.047 -0.109,-0.066 -0.163,-0.056 -0.046,0.009 -0.087,0.044 -0.123,0.106 -0.035,0.058 -0.059,0.129 -0.072,0.211 -0.015,0.093 -0.015,0.178 0.002,0.257 0.008,0.038 0.019,0.069 0.034,0.092 0.016,0.025 0.034,0.039 0.055,0.041 0.033,0.005 0.058,-0.009 0.077,-0.041 0.015,-0.024 0.026,-0.062 0.036,-0.112 0.002,-0.009 0.004,-0.02 0.005,-0.032l0.003 -0.015 0.002 -0.015c0.004,-0.026 0.007,-0.045 0.009,-0.056 0.007,-0.038 0.017,-0.058 0.028,-0.061 0.009,-0.002 0.018,0.002 0.026,0.012 0.007,0.009 0.015,0.024 0.023,0.044 0.003,0.007 0.007,0.017 0.011,0.03l0.006 0.017 0.006 0.016c0.01,0.028 0.02,0.051 0.029,0.068 0.023,0.047 0.048,0.078 0.077,0.093 0.026,0.015 0.05,0.014 0.072,-0.003 0.014,-0.011 0.024,-0.029 0.032,-0.054 0.007,-0.025 0.011,-0.056 0.01,-0.092 -0.001,-0.079 -0.019,-0.165 -0.056,-0.257zm0.406 0.225l-0.007 0.003c-0.005,0.002 -0.01,0.004 -0.013,0.004 -0.011,0.003 -0.02,0.004 -0.029,0.002 0.009,-0.002 0.018,-0.005 0.027,-0.009l0.006 -0.003 0.006 -0.003c0.005,-0.003 0.01,-0.005 0.013,-0.006 0.01,-0.004 0.019,-0.007 0.028,-0.008 0.011,-0.002 0.02,-0.002 0.028,-0.001 -0.015,0.004 -0.033,0.01 -0.053,0.018l-0.007 0.003zm-0.148 -0.452c-0.014,0.005 -0.026,0.01 -0.037,0.018 -0.013,0.009 -0.023,0.018 -0.032,0.028 -0.008,0.01 -0.016,0.021 -0.023,0.036 -0.01,0.022 -0.019,0.05 -0.026,0.084 -0.003,0.014 -0.005,0.029 -0.007,0.044 -0.001,0.006 -0.002,0.014 -0.003,0.022l-0.002 0.023c-0.001,-0.032 0.001,-0.062 0.006,-0.09 0.005,-0.033 0.013,-0.063 0.024,-0.087 0.007,-0.016 0.016,-0.028 0.024,-0.038 0.011,-0.011 0.022,-0.02 0.034,-0.027 0.012,-0.007 0.025,-0.012 0.039,-0.016 0.014,-0.004 0.028,-0.005 0.041,-0.005 -0.016,0.002 -0.029,0.005 -0.04,0.009zm0.097 0.258l0.003 -0.001c0.003,-0.001 0.006,-0.002 0.008,-0.002 0.006,-0.001 0.011,-0.001 0.016,-0 0.006,0.001 0.011,0.004 0.013,0.008 -0.004,-0.001 -0.008,-0.001 -0.014,-0.001 -0.005,0 -0.009,0.001 -0.013,0.002l-0.004 0.001 -0.003 0.001c-0.003,0.001 -0.006,0.001 -0.007,0.001 -0.006,0.001 -0.011,0 -0.016,-0.001l0.007 -0.003 0.007 -0.003 0.004 -0.002zm0.026 0.159c-0.015,0.007 -0.029,0.009 -0.04,0.005 -0.009,-0.003 -0.016,-0.01 -0.019,-0.02 -0.003,-0.01 -0.002,-0.019 0.003,-0.027 0.005,-0.009 0.013,-0.014 0.024,-0.016 0.032,-0.005 0.056,-0.015 0.07,-0.031 0.014,-0.015 0.02,-0.033 0.018,-0.055 -0.002,-0.02 -0.012,-0.035 -0.028,-0.044 -0.017,-0.009 -0.038,-0.01 -0.061,-0.003 -0.02,0.006 -0.033,0.001 -0.039,-0.016 -0.002,-0.007 -0.003,-0.015 -0.001,-0.022 0.002,-0.008 0.006,-0.014 0.011,-0.019 0.008,-0.007 0.021,-0.012 0.038,-0.015 0.006,-0.001 0.014,-0.002 0.024,-0.003l0.012 -0.001 0.013 -0.002c0.02,-0.002 0.035,-0.006 0.046,-0.012 0.015,-0.007 0.025,-0.019 0.031,-0.034 0.01,-0.026 0.004,-0.052 -0.017,-0.078 -0.019,-0.025 -0.047,-0.044 -0.083,-0.056 -0.038,-0.013 -0.076,-0.017 -0.114,-0.011 -0.043,0.008 -0.079,0.027 -0.107,0.059 -0.027,0.03 -0.046,0.076 -0.057,0.138 -0.01,0.058 -0.013,0.121 -0.008,0.189 0.005,0.068 0.017,0.129 0.036,0.181 0.02,0.056 0.045,0.094 0.074,0.113 0.029,0.019 0.064,0.027 0.104,0.024 0.037,-0.003 0.074,-0.014 0.111,-0.033 0.036,-0.019 0.066,-0.042 0.089,-0.069 0.024,-0.029 0.036,-0.058 0.035,-0.086 -0.001,-0.038 -0.016,-0.062 -0.044,-0.072 -0.029,-0.011 -0.069,-0.005 -0.12,0.018zm0.492 -0.33c-0.012,0.017 -0.023,0.031 -0.034,0.043 -0.015,0.015 -0.029,0.026 -0.043,0.032 0.011,-0.008 0.024,-0.021 0.038,-0.037 0.011,-0.013 0.022,-0.028 0.032,-0.043 0.005,-0.008 0.01,-0.015 0.014,-0.023l0.004 -0.006 0.003 -0.006c0.003,-0.005 0.005,-0.009 0.008,-0.012 0.006,-0.008 0.013,-0.014 0.021,-0.018 0.009,-0.005 0.018,-0.007 0.026,-0.007 -0.016,0.002 -0.029,0.012 -0.04,0.03 -0.002,0.003 -0.004,0.007 -0.007,0.012l-0.003 0.006 -0.003 0.006c-0.004,0.007 -0.009,0.015 -0.015,0.024zm-0.182 -0.101c-0.006,0.004 -0.011,0.011 -0.016,0.018 -0.008,0.011 -0.015,0.026 -0.021,0.045 -0.004,0.012 -0.009,0.028 -0.015,0.049l-0.006 0.025 -0.006 0.025c0.001,-0.02 0.003,-0.038 0.005,-0.052 0.003,-0.019 0.008,-0.035 0.013,-0.051 0.007,-0.02 0.015,-0.035 0.024,-0.046 0.006,-0.007 0.012,-0.013 0.019,-0.017 0.008,-0.004 0.016,-0.006 0.024,-0.006 -0.008,0.002 -0.015,0.005 -0.021,0.01zm0.214 0.278c-0.012,-0.007 -0.015,-0.013 -0.009,-0.019 0.002,-0.003 0.007,-0.006 0.014,-0.01l0.005 -0.003 0.005 -0.003c0.005,-0.002 0.009,-0.005 0.012,-0.006 0.022,-0.013 0.04,-0.027 0.053,-0.041 0.02,-0.021 0.034,-0.047 0.041,-0.076 0.007,-0.027 0.005,-0.052 -0.004,-0.076 -0.009,-0.022 -0.023,-0.037 -0.043,-0.048 -0.02,-0.01 -0.04,-0.012 -0.06,-0.005 -0.023,0.008 -0.042,0.025 -0.057,0.052 -0.026,0.046 -0.051,0.078 -0.075,0.096 -0.01,0.007 -0.016,0.009 -0.02,0.007 -0.004,-0.003 -0.003,-0.011 0.002,-0.023 0.02,-0.05 0.025,-0.09 0.016,-0.121 -0.008,-0.025 -0.025,-0.041 -0.05,-0.046 -0.052,-0.011 -0.091,0.018 -0.116,0.088 -0.021,0.056 -0.032,0.136 -0.035,0.242 -0.003,0.106 0.005,0.191 0.023,0.255 0.022,0.078 0.057,0.115 0.105,0.111 0.044,-0.003 0.069,-0.04 0.073,-0.109 0.001,-0.023 0.001,-0.05 -0.002,-0.079 -0.001,-0.01 -0.003,-0.02 -0.004,-0.03 -0,-0.004 -0.001,-0.008 -0.002,-0.012l-0.001 -0.005 -0 -0.002 -0 -0.001c-0.002,-0.009 -0.001,-0.015 0.002,-0.018 0.004,-0.003 0.009,-0.002 0.015,0.003 0.017,0.015 0.034,0.052 0.051,0.111 0.011,0.038 0.026,0.069 0.044,0.093 0.018,0.022 0.037,0.036 0.058,0.043 0.02,0.006 0.04,0.005 0.059,-0.003 0.019,-0.009 0.035,-0.024 0.047,-0.046 0.014,-0.024 0.021,-0.051 0.02,-0.081 -0,-0.029 -0.007,-0.058 -0.021,-0.088 -0.029,-0.063 -0.078,-0.113 -0.146,-0.15zm0.354 -0.3c-0.021,0.004 -0.038,0.009 -0.051,0.013 -0.02,0.007 -0.035,0.014 -0.047,0.023 -0.008,0.006 -0.014,0.013 -0.018,0.019 -0.005,0.007 -0.007,0.016 -0.007,0.027 -0.003,-0.01 -0.002,-0.02 0.003,-0.029 0.004,-0.008 0.01,-0.015 0.018,-0.023 0.012,-0.01 0.028,-0.019 0.048,-0.026 0.033,-0.011 0.069,-0.015 0.107,-0.013 -0.02,0.003 -0.037,0.006 -0.053,0.009zm0.084 -0.047c-0.074,-0.001 -0.133,0.01 -0.179,0.033 -0.047,0.025 -0.069,0.058 -0.064,0.101 0.003,0.024 0.013,0.041 0.03,0.051 0.012,0.007 0.031,0.012 0.055,0.014l0.015 0.001 0.015 0.001c0.011,0.001 0.02,0.002 0.027,0.003 0.019,0.003 0.03,0.011 0.035,0.023 0.003,0.007 0.002,0.05 -0.003,0.128 -0.003,0.04 -0.004,0.074 -0.004,0.102 -0,0.04 0.001,0.074 0.005,0.104 0.006,0.044 0.021,0.08 0.047,0.107 0.026,0.028 0.057,0.039 0.093,0.033 0.065,-0.012 0.086,-0.083 0.063,-0.213 -0.012,-0.069 -0.019,-0.127 -0.021,-0.176 -0.003,-0.052 0.001,-0.083 0.01,-0.092 0.006,-0.006 0.018,-0.009 0.035,-0.01 0.005,-0 0.013,-0.001 0.024,-0.001l0.012 0 0.012 -0.001c0.02,-0.001 0.035,-0.005 0.046,-0.011 0.014,-0.008 0.024,-0.021 0.028,-0.039 0.005,-0.022 0.001,-0.043 -0.012,-0.063 -0.013,-0.018 -0.032,-0.035 -0.059,-0.049 -0.054,-0.029 -0.124,-0.044 -0.209,-0.045zm0.648 0.459c-0.006,0.009 -0.013,0.016 -0.021,0.02 -0.008,0.006 -0.017,0.008 -0.026,0.008 0.017,-0.008 0.03,-0.019 0.039,-0.034 0.009,-0.014 0.014,-0.031 0.017,-0.052 0.005,0.02 0.002,0.039 -0.009,0.057zm-0.096 -0.047c-0.002,-0.012 -0.001,-0.024 0.004,-0.034 0.005,-0.01 0.012,-0.016 0.022,-0.019 0.01,-0.002 0.019,0.001 0.027,0.008 0.008,0.007 0.014,0.017 0.016,0.029 0.003,0.013 0.001,0.024 -0.004,0.034 -0.005,0.01 -0.012,0.016 -0.022,0.019 -0.009,0.002 -0.019,-0.001 -0.027,-0.008 -0.008,-0.007 -0.014,-0.017 -0.016,-0.029zm-0.038 -0.377c-0.023,0.011 -0.043,0.026 -0.06,0.045 -0.016,0.017 -0.031,0.039 -0.044,0.065l-0.004 0.009 -0.004 0.009 -0.007 0.019 -0.007 0.02 -0.006 0.019c0.004,-0.027 0.012,-0.054 0.022,-0.079 0.011,-0.026 0.026,-0.049 0.044,-0.068 0.019,-0.021 0.041,-0.036 0.064,-0.046 0.011,-0.005 0.023,-0.008 0.037,-0.011l0.01 -0.001 0.009 -0.001 0.019 -0c-0.027,0.003 -0.051,0.01 -0.072,0.021zm0.15 -0.051c-0.094,-0.021 -0.171,-0.002 -0.232,0.059 -0.053,0.053 -0.084,0.128 -0.094,0.223 -0.009,0.093 0.004,0.178 0.04,0.256 0.038,0.084 0.095,0.135 0.169,0.154 0.07,0.018 0.134,-0.004 0.192,-0.065 0.053,-0.056 0.09,-0.13 0.11,-0.222 0.021,-0.094 0.017,-0.178 -0.011,-0.251 -0.032,-0.083 -0.09,-0.133 -0.174,-0.153zm0.629 0.015c-0.004,0.002 -0.008,0.006 -0.011,0.011 -0.005,0.007 -0.008,0.018 -0.01,0.032 -0.003,0.019 -0.003,0.042 -0.001,0.07l0 0.009 0 0.009c0.001,0.007 0.001,0.013 0,0.019 -0.001,0.013 -0.003,0.026 -0.007,0.036 -0.004,0.012 -0.01,0.022 -0.018,0.031 -0.009,0.009 -0.018,0.015 -0.028,0.019 0.02,-0.011 0.034,-0.029 0.041,-0.052 0.003,-0.011 0.005,-0.023 0.005,-0.034 0,-0.005 0,-0.01 -0,-0.017l-0.001 -0.009 -0 -0.009c-0.001,-0.029 -0,-0.054 0.003,-0.072 0.003,-0.015 0.008,-0.026 0.014,-0.034 0.004,-0.005 0.009,-0.009 0.014,-0.01 0.004,-0.002 0.01,-0.003 0.016,-0.003 -0.007,0.001 -0.012,0.003 -0.016,0.005zm-0.304 0.024c-0.01,0.012 -0.018,0.028 -0.023,0.046 -0.004,0.015 -0.008,0.033 -0.012,0.053l-0.005 0.026 -0.005 0.027c-0.001,-0.037 0.004,-0.073 0.014,-0.108 0.006,-0.02 0.014,-0.036 0.026,-0.048 0.006,-0.007 0.013,-0.013 0.022,-0.016 0.009,-0.004 0.017,-0.005 0.025,-0.004 -0.016,0.002 -0.03,0.011 -0.041,0.026zm0.317 -0.067c-0.031,0.003 -0.052,0.019 -0.064,0.048 -0.012,0.028 -0.015,0.07 -0.011,0.127 0.002,0.025 -0.002,0.044 -0.013,0.057 -0.009,0.011 -0.02,0.016 -0.035,0.016 -0.015,-0.001 -0.026,-0.007 -0.034,-0.019 -0.008,-0.012 -0.012,-0.029 -0.01,-0.049 0.004,-0.058 -0.003,-0.101 -0.021,-0.13 -0.015,-0.025 -0.04,-0.04 -0.074,-0.045 -0.027,-0.003 -0.052,0.004 -0.073,0.023 -0.02,0.018 -0.035,0.043 -0.043,0.075 -0.017,0.062 -0.024,0.135 -0.022,0.219 0.002,0.081 0.013,0.157 0.031,0.229 0.014,0.054 0.034,0.092 0.061,0.114 0.022,0.019 0.046,0.026 0.072,0.021 0.058,-0.011 0.082,-0.058 0.073,-0.141 -0.006,-0.061 0.004,-0.091 0.032,-0.092 0.014,-0.001 0.024,0.005 0.032,0.015 0.01,0.014 0.015,0.038 0.015,0.07 -0.001,0.054 0.009,0.095 0.029,0.123 0.018,0.026 0.043,0.038 0.074,0.037 0.053,-0.002 0.089,-0.04 0.108,-0.113 0.014,-0.053 0.02,-0.141 0.019,-0.262 -0.001,-0.094 -0.015,-0.171 -0.041,-0.233 -0.028,-0.064 -0.063,-0.094 -0.106,-0.09z"/>
   <path class="fil0" d="M5.395 0.063c-0.008,0.009 -0.013,0.022 -0.016,0.038 -0.002,0.012 -0.004,0.026 -0.005,0.044l0 0.011 -0 0.011c0,0.009 -0,0.017 -0,0.023l-0.004 -0.022c-0.001,-0.009 -0.002,-0.016 -0.002,-0.023 -0.001,-0.016 0,-0.031 0.003,-0.046 0.004,-0.019 0.01,-0.032 0.02,-0.042 0.005,-0.006 0.012,-0.009 0.019,-0.011 0.007,-0.002 0.014,-0.002 0.021,-0.001 -0.016,0.002 -0.028,0.008 -0.036,0.018zm-0.045 0.355c-0.006,0.006 -0.013,0.01 -0.02,0.012 -0.008,0.003 -0.015,0.003 -0.023,0.001 0.015,-0.004 0.027,-0.011 0.037,-0.02 0.007,-0.007 0.015,-0.019 0.024,-0.037 -0.001,0.018 -0.007,0.032 -0.018,0.044zm-0.171 -0.309c-0.004,0.005 -0.007,0.01 -0.009,0.016 -0.003,0.006 -0.005,0.012 -0.006,0.018 -0.003,0.01 -0.006,0.022 -0.008,0.037 -0.002,0.012 -0.003,0.025 -0.004,0.039 -0.005,-0.027 -0.003,-0.054 0.004,-0.079 0.005,-0.015 0.011,-0.027 0.019,-0.035 0.005,-0.005 0.01,-0.009 0.016,-0.011 0.006,-0.002 0.012,-0.003 0.019,-0.002 -0.012,0.002 -0.022,0.008 -0.029,0.018zm-0.057 0.316c-0.006,0.005 -0.011,0.008 -0.018,0.01 -0.007,0.002 -0.013,0.002 -0.019,0 0.013,-0.004 0.024,-0.01 0.032,-0.017 0.004,-0.003 0.008,-0.007 0.013,-0.013l0.006 -0.008 0.005 -0.008c-0.001,0.015 -0.007,0.027 -0.018,0.037zm-0.159 -0.355c-0.01,0.007 -0.019,0.016 -0.027,0.027 -0.014,0.019 -0.025,0.043 -0.034,0.071 -0.007,0.02 -0.013,0.046 -0.018,0.078 -0.003,0.022 -0.006,0.049 -0.007,0.081 -0.002,-0.027 -0.001,-0.054 0.001,-0.082 0.003,-0.03 0.008,-0.057 0.016,-0.081 0.009,-0.029 0.022,-0.053 0.037,-0.072 0.009,-0.012 0.019,-0.02 0.029,-0.027 0.012,-0.008 0.025,-0.011 0.037,-0.01 -0.013,0.001 -0.024,0.006 -0.034,0.014zm0.475 -0.062c-0.034,-0.002 -0.06,0.01 -0.078,0.036 -0.019,0.028 -0.027,0.069 -0.023,0.124 0.006,0.088 0.006,0.148 0.001,0.181 -0.005,0.032 -0.016,0.047 -0.033,0.045 -0.018,-0.002 -0.024,-0.057 -0.018,-0.164 0.003,-0.059 -0.002,-0.103 -0.016,-0.133 -0.014,-0.029 -0.034,-0.043 -0.063,-0.043 -0.033,0 -0.057,0.018 -0.074,0.054 -0.014,0.031 -0.02,0.068 -0.018,0.113 0.005,0.118 -0.005,0.177 -0.032,0.177 -0.011,0 -0.02,-0.011 -0.026,-0.033 -0.007,-0.028 -0.007,-0.068 0.001,-0.122 0.021,-0.144 0.002,-0.219 -0.055,-0.224 -0.022,-0.002 -0.044,0.004 -0.064,0.019 -0.021,0.014 -0.039,0.036 -0.055,0.066 -0.035,0.067 -0.049,0.156 -0.043,0.268 0.005,0.094 0.024,0.168 0.057,0.222 0.024,0.04 0.057,0.07 0.098,0.09 0.044,0.022 0.113,0.031 0.208,0.03 0.105,-0.003 0.18,-0.021 0.226,-0.057 0.042,-0.032 0.072,-0.084 0.091,-0.155 0.007,-0.025 0.012,-0.052 0.016,-0.082 0.001,-0.011 0.002,-0.022 0.003,-0.034 0,-0.004 0.001,-0.009 0.001,-0.014l0 -0.006 0 -0.006c0.008,-0.113 0.004,-0.198 -0.013,-0.256 -0.017,-0.061 -0.049,-0.093 -0.094,-0.096zm0.461 0.5l-0.007 0.003c-0.006,0.002 -0.01,0.003 -0.014,0.004 -0.011,0.003 -0.02,0.003 -0.029,0.001 0.009,-0.002 0.018,-0.005 0.027,-0.008l0.006 -0.003 0.006 -0.002c0.005,-0.003 0.01,-0.004 0.014,-0.005 0.01,-0.004 0.02,-0.006 0.028,-0.007 0.011,-0.002 0.02,-0.002 0.028,-0 -0.016,0.004 -0.034,0.009 -0.054,0.016l-0.007 0.003zm-0.132 -0.457c-0.014,0.004 -0.026,0.009 -0.038,0.016 -0.013,0.008 -0.024,0.017 -0.033,0.027 -0.009,0.009 -0.017,0.021 -0.024,0.035 -0.011,0.021 -0.02,0.049 -0.029,0.083 -0.003,0.014 -0.006,0.028 -0.009,0.044 -0.001,0.006 -0.002,0.014 -0.003,0.022l-0.003 0.023c0.001,-0.032 0.004,-0.062 0.009,-0.09 0.006,-0.033 0.015,-0.062 0.027,-0.086 0.008,-0.015 0.017,-0.028 0.026,-0.038 0.011,-0.011 0.023,-0.02 0.035,-0.026 0.012,-0.007 0.025,-0.011 0.04,-0.014 0.015,-0.003 0.028,-0.004 0.042,-0.003 -0.016,0.001 -0.029,0.004 -0.041,0.007zm0.087 0.261l0.003 -0.001c0.003,-0.001 0.006,-0.002 0.008,-0.002 0.006,-0.001 0.011,-0.001 0.016,0 0.006,0.002 0.01,0.005 0.013,0.009 -0.004,-0.001 -0.008,-0.001 -0.014,-0.001 -0.005,0 -0.009,0.001 -0.014,0.002l-0.004 0 -0.003 0.001c-0.003,0.001 -0.006,0.001 -0.008,0.001 -0.006,0 -0.011,-0 -0.016,-0.002l0.007 -0.002 0.007 -0.002 0.004 -0.002zm0.021 0.159c-0.016,0.007 -0.029,0.008 -0.04,0.003 -0.009,-0.004 -0.015,-0.011 -0.018,-0.021 -0.003,-0.01 -0.002,-0.019 0.004,-0.027 0.005,-0.009 0.013,-0.014 0.024,-0.015 0.032,-0.003 0.056,-0.013 0.072,-0.028 0.014,-0.014 0.021,-0.032 0.02,-0.054 -0.001,-0.02 -0.01,-0.035 -0.027,-0.045 -0.017,-0.01 -0.037,-0.012 -0.061,-0.005 -0.02,0.006 -0.033,-0 -0.039,-0.017 -0.002,-0.007 -0.002,-0.015 -0.001,-0.022 0.002,-0.008 0.006,-0.014 0.012,-0.019 0.008,-0.007 0.021,-0.011 0.039,-0.014 0.006,-0.001 0.014,-0.002 0.024,-0.003l0.012 -0 0.013 -0.001c0.02,-0.002 0.035,-0.005 0.047,-0.01 0.015,-0.007 0.026,-0.018 0.032,-0.033 0.01,-0.026 0.006,-0.052 -0.014,-0.079 -0.018,-0.025 -0.045,-0.045 -0.081,-0.059 -0.038,-0.015 -0.076,-0.02 -0.114,-0.015 -0.043,0.006 -0.08,0.024 -0.11,0.055 -0.028,0.029 -0.049,0.074 -0.062,0.136 -0.013,0.057 -0.018,0.12 -0.015,0.189 0.003,0.068 0.013,0.129 0.029,0.182 0.018,0.057 0.041,0.096 0.07,0.116 0.028,0.02 0.063,0.029 0.103,0.027 0.037,-0.001 0.075,-0.011 0.113,-0.029 0.037,-0.017 0.067,-0.039 0.091,-0.066 0.025,-0.028 0.038,-0.057 0.038,-0.085 0,-0.038 -0.013,-0.062 -0.041,-0.074 -0.029,-0.012 -0.069,-0.008 -0.12,0.014zm0.645 -0.006c-0.003,0.011 -0.008,0.021 -0.017,0.028 -0.008,0.007 -0.017,0.011 -0.028,0.013 -0.01,0.002 -0.02,0.002 -0.029,0 0.012,-0.003 0.021,-0.005 0.028,-0.007 0.01,-0.004 0.018,-0.008 0.024,-0.013 0.007,-0.006 0.012,-0.014 0.015,-0.023 0.003,-0.007 0.005,-0.017 0.007,-0.03 0.002,0.011 0.002,0.022 0,0.032zm-0.115 -0.013c-0.006,-0.012 -0.004,-0.03 0.006,-0.056 0.01,-0.026 0.021,-0.039 0.033,-0.039 0.015,0 0.026,0.014 0.035,0.042 0.004,0.011 0.006,0.022 0.006,0.033 0.001,0.011 -0.001,0.019 -0.003,0.025 -0.005,0.008 -0.017,0.012 -0.038,0.012 -0.02,-0 -0.033,-0.006 -0.039,-0.016zm-0.062 -0.318c-0.013,0.02 -0.024,0.042 -0.035,0.067 -0.008,0.019 -0.018,0.043 -0.028,0.071 0.005,-0.024 0.012,-0.049 0.022,-0.074 0.009,-0.023 0.02,-0.046 0.034,-0.069 0.015,-0.024 0.031,-0.044 0.048,-0.058 0.01,-0.008 0.02,-0.015 0.031,-0.02 0.012,-0.005 0.024,-0.008 0.035,-0.007 -0.021,0.003 -0.041,0.014 -0.061,0.034 -0.016,0.016 -0.031,0.035 -0.045,0.058zm-0.199 0.386c-0.007,0.004 -0.013,0.008 -0.018,0.012 -0.005,0.005 -0.009,0.011 -0.011,0.019 -0.001,-0.009 0.001,-0.017 0.007,-0.024 0.004,-0.006 0.01,-0.011 0.018,-0.015 0.014,-0.008 0.028,-0.012 0.043,-0.011l-0.01 0.005 -0.01 0.005c-0.008,0.004 -0.015,0.007 -0.019,0.01zm0.551 -0.06c-0.012,-0.004 -0.021,-0.009 -0.026,-0.016 -0.005,-0.006 -0.009,-0.016 -0.011,-0.028 -0.001,-0.007 -0.003,-0.022 -0.004,-0.045 -0.001,-0.011 -0.001,-0.022 -0.002,-0.03 -0.001,-0.012 -0.002,-0.024 -0.004,-0.036 -0.013,-0.097 -0.038,-0.172 -0.074,-0.225 -0.034,-0.049 -0.074,-0.074 -0.121,-0.076 -0.04,-0.001 -0.079,0.022 -0.117,0.07 -0.039,0.048 -0.068,0.11 -0.088,0.186 -0.008,0.03 -0.015,0.061 -0.019,0.092 -0.001,0.005 -0.002,0.011 -0.003,0.017l-0.001 0.008 -0.001 0.007c-0.002,0.012 -0.003,0.021 -0.004,0.026 -0.003,0.016 -0.007,0.028 -0.013,0.035 -0.006,0.008 -0.016,0.013 -0.03,0.017 -0.039,0.009 -0.067,0.024 -0.082,0.046 -0.014,0.02 -0.018,0.043 -0.01,0.071 0.01,0.039 0.051,0.07 0.123,0.093 0.064,0.02 0.144,0.032 0.239,0.034 0.087,0.002 0.154,-0.001 0.201,-0.009 0.069,-0.012 0.114,-0.037 0.134,-0.076 0.019,-0.035 0.02,-0.069 0.003,-0.099 -0.016,-0.03 -0.046,-0.051 -0.089,-0.064zm0.446 0.034c-0.005,0.009 -0.013,0.016 -0.022,0.02 -0.009,0.005 -0.018,0.006 -0.027,0.004 0.019,-0.004 0.033,-0.013 0.042,-0.029 0.004,-0.007 0.008,-0.015 0.01,-0.025 0.001,-0.009 0.002,-0.018 0.002,-0.029 0.004,0.01 0.005,0.019 0.004,0.03 -0.001,0.011 -0.004,0.021 -0.009,0.029zm-0.08 -0.038c-0.004,-0.01 -0.006,-0.019 -0.005,-0.028 0.001,-0.01 0.005,-0.016 0.011,-0.02 0.007,-0.003 0.014,-0.003 0.021,0.001 0.008,0.004 0.014,0.011 0.019,0.021 0.005,0.01 0.006,0.019 0.005,0.029 -0.001,0.009 -0.005,0.015 -0.012,0.019 -0.006,0.004 -0.013,0.003 -0.021,-0.001 -0.008,-0.004 -0.014,-0.011 -0.019,-0.021zm-0.043 -0.408c-0.005,0.003 -0.012,0.007 -0.019,0.013 -0.01,0.01 -0.021,0.021 -0.031,0.035 -0.008,0.01 -0.017,0.023 -0.027,0.04 -0.004,0.006 -0.008,0.013 -0.013,0.021l-0.012 0.021c0.006,-0.019 0.012,-0.034 0.018,-0.046 0.008,-0.016 0.016,-0.03 0.026,-0.042 0.011,-0.015 0.023,-0.026 0.034,-0.035 0.015,-0.011 0.03,-0.017 0.044,-0.015 -0.007,0.001 -0.014,0.004 -0.021,0.008zm0.118 0.238c-0.015,-0.005 -0.025,-0.014 -0.03,-0.027 -0.003,-0.01 -0.003,-0.025 -0.001,-0.045 0.001,-0.004 0.001,-0.008 0.002,-0.014l0.002 -0.014c0.002,-0.013 0.004,-0.023 0.005,-0.03 0.003,-0.025 0.004,-0.047 0.002,-0.067 -0.003,-0.028 -0.013,-0.049 -0.029,-0.065 -0.016,-0.016 -0.035,-0.023 -0.058,-0.021 -0.024,0.002 -0.048,0.016 -0.072,0.04 -0.027,0.028 -0.052,0.067 -0.074,0.119 -0.023,0.053 -0.038,0.112 -0.044,0.174 -0.006,0.065 -0.003,0.124 0.01,0.178 0.015,0.059 0.04,0.105 0.075,0.138 0.04,0.037 0.09,0.055 0.151,0.054 0.058,-0.001 0.106,-0.02 0.143,-0.057 0.034,-0.034 0.055,-0.076 0.062,-0.127 0.007,-0.051 -0.002,-0.098 -0.026,-0.141 -0.026,-0.046 -0.067,-0.079 -0.121,-0.097zm0.354 -0.239c-0.021,0.003 -0.038,0.007 -0.052,0.011 -0.02,0.006 -0.036,0.013 -0.048,0.022 -0.009,0.006 -0.015,0.012 -0.019,0.018 -0.005,0.007 -0.008,0.016 -0.007,0.027 -0.002,-0.01 -0.001,-0.02 0.004,-0.029 0.004,-0.008 0.01,-0.015 0.019,-0.022 0.012,-0.009 0.029,-0.018 0.049,-0.025 0.034,-0.01 0.069,-0.013 0.107,-0.009 -0.02,0.002 -0.037,0.004 -0.053,0.007zm0.086 -0.044c-0.074,-0.004 -0.134,0.005 -0.18,0.027 -0.048,0.023 -0.071,0.056 -0.067,0.099 0.002,0.024 0.011,0.041 0.028,0.052 0.012,0.008 0.03,0.013 0.055,0.016l0.015 0.001 0.015 0.001c0.011,0.001 0.02,0.002 0.027,0.004 0.019,0.004 0.03,0.012 0.034,0.024 0.002,0.007 -0,0.05 -0.008,0.128 -0.004,0.04 -0.007,0.074 -0.008,0.102 -0.002,0.04 -0.001,0.074 0.001,0.104 0.004,0.045 0.018,0.081 0.043,0.108 0.025,0.029 0.056,0.041 0.092,0.036 0.065,-0.01 0.088,-0.08 0.071,-0.21 -0.01,-0.069 -0.014,-0.128 -0.015,-0.177 -0.001,-0.052 0.004,-0.083 0.013,-0.091 0.007,-0.006 0.018,-0.009 0.035,-0.009 0.005,0 0.013,0 0.024,-0l0.012 0.001 0.012 -0.001c0.02,-0 0.035,-0.004 0.046,-0.01 0.015,-0.008 0.025,-0.02 0.029,-0.038 0.006,-0.022 0.003,-0.043 -0.01,-0.063 -0.012,-0.019 -0.031,-0.036 -0.057,-0.051 -0.053,-0.031 -0.123,-0.048 -0.207,-0.053zm0.631 0.481c-0.006,0.009 -0.013,0.015 -0.021,0.02 -0.008,0.005 -0.017,0.008 -0.026,0.007 0.017,-0.007 0.03,-0.018 0.04,-0.032 0.009,-0.013 0.015,-0.03 0.019,-0.051 0.004,0.02 0.001,0.039 -0.011,0.057zm-0.095 -0.05c-0.002,-0.012 -0,-0.024 0.005,-0.034 0.005,-0.01 0.013,-0.016 0.023,-0.018 0.01,-0.002 0.019,0.001 0.027,0.009 0.008,0.008 0.013,0.017 0.015,0.03 0.002,0.013 0,0.024 -0.005,0.034 -0.005,0.01 -0.013,0.016 -0.023,0.018 -0.01,0.002 -0.019,-0.001 -0.027,-0.009 -0.008,-0.007 -0.013,-0.017 -0.015,-0.03zm-0.024 -0.378c-0.023,0.01 -0.044,0.024 -0.062,0.043 -0.017,0.017 -0.032,0.038 -0.046,0.063l-0.004 0.009 -0.004 0.009 -0.008 0.018 -0.007 0.019 -0.007 0.019c0.005,-0.027 0.014,-0.053 0.025,-0.078 0.012,-0.026 0.027,-0.048 0.046,-0.066 0.02,-0.02 0.042,-0.035 0.066,-0.044 0.011,-0.004 0.024,-0.007 0.037,-0.01l0.01 -0.001 0.009 -0.001 0.019 0.001c-0.027,0.002 -0.052,0.008 -0.073,0.018zm0.152 -0.046c-0.093,-0.025 -0.171,-0.008 -0.234,0.05 -0.055,0.051 -0.089,0.125 -0.102,0.22 -0.013,0.093 -0.003,0.178 0.031,0.257 0.035,0.085 0.09,0.138 0.163,0.16 0.069,0.02 0.134,0.001 0.195,-0.059 0.055,-0.054 0.095,-0.127 0.118,-0.218 0.024,-0.093 0.023,-0.177 -0.002,-0.252 -0.029,-0.084 -0.085,-0.136 -0.168,-0.159zm0.672 0.448c-0.003,0.011 -0.008,0.021 -0.017,0.028 -0.008,0.007 -0.017,0.011 -0.028,0.013 -0.01,0.002 -0.02,0.002 -0.03,0 0.012,-0.003 0.021,-0.005 0.028,-0.007 0.01,-0.004 0.018,-0.008 0.024,-0.013 0.007,-0.006 0.012,-0.014 0.015,-0.023 0.003,-0.007 0.005,-0.017 0.007,-0.03 0.002,0.011 0.002,0.022 0,0.032zm-0.115 -0.013c-0.006,-0.012 -0.004,-0.03 0.006,-0.056 0.01,-0.026 0.021,-0.039 0.033,-0.039 0.015,0 0.026,0.014 0.035,0.042 0.004,0.011 0.006,0.022 0.006,0.033 0.001,0.011 -0.001,0.019 -0.003,0.025 -0.005,0.008 -0.017,0.012 -0.038,0.012 -0.02,-0 -0.033,-0.006 -0.039,-0.016zm-0.062 -0.318c-0.013,0.02 -0.024,0.042 -0.035,0.067 -0.008,0.019 -0.018,0.043 -0.028,0.071 0.005,-0.024 0.012,-0.049 0.022,-0.074 0.009,-0.023 0.02,-0.046 0.034,-0.069 0.015,-0.024 0.031,-0.044 0.048,-0.058 0.01,-0.008 0.02,-0.015 0.031,-0.02 0.012,-0.005 0.024,-0.008 0.035,-0.008 -0.021,0.003 -0.041,0.014 -0.061,0.034 -0.016,0.016 -0.031,0.035 -0.045,0.058zm-0.199 0.386c-0.007,0.004 -0.013,0.008 -0.018,0.012 -0.005,0.005 -0.009,0.011 -0.011,0.019 -0.001,-0.009 0.001,-0.017 0.007,-0.024 0.004,-0.006 0.01,-0.011 0.018,-0.015 0.014,-0.008 0.028,-0.012 0.043,-0.011l-0.01 0.005 -0.01 0.005c-0.008,0.004 -0.015,0.007 -0.019,0.01zm0.551 -0.06c-0.012,-0.004 -0.021,-0.009 -0.026,-0.016 -0.005,-0.006 -0.009,-0.016 -0.011,-0.028 -0.001,-0.007 -0.003,-0.022 -0.004,-0.045 -0.001,-0.011 -0.001,-0.021 -0.002,-0.03 -0.001,-0.012 -0.002,-0.024 -0.004,-0.036 -0.013,-0.097 -0.038,-0.172 -0.074,-0.225 -0.034,-0.049 -0.074,-0.074 -0.121,-0.076 -0.04,-0.001 -0.079,0.022 -0.117,0.07 -0.039,0.048 -0.068,0.11 -0.088,0.186 -0.008,0.03 -0.015,0.061 -0.019,0.092 -0.001,0.005 -0.002,0.011 -0.003,0.017l-0.001 0.008 -0.001 0.007c-0.002,0.012 -0.003,0.021 -0.004,0.026 -0.003,0.016 -0.007,0.028 -0.013,0.035 -0.006,0.008 -0.016,0.013 -0.03,0.017 -0.039,0.009 -0.067,0.025 -0.082,0.047 -0.014,0.02 -0.018,0.043 -0.01,0.071 0.01,0.039 0.051,0.07 0.123,0.093 0.064,0.02 0.144,0.032 0.239,0.035 0.087,0.002 0.154,-0.001 0.201,-0.009 0.069,-0.012 0.114,-0.037 0.134,-0.076 0.019,-0.035 0.02,-0.069 0.003,-0.099 -0.016,-0.03 -0.046,-0.051 -0.089,-0.064z"/>
   <path class="fil0" d="M9.935 0.499c-0.007,0.005 -0.013,0.008 -0.02,0.01 -0.008,0.002 -0.015,0.002 -0.022,-0.001 0.014,-0.003 0.026,-0.009 0.037,-0.017 0.009,-0.007 0.018,-0.017 0.029,-0.031 -0.003,0.016 -0.011,0.028 -0.024,0.039zm-0.047 -0.031c-0.007,-0.004 -0.011,-0.01 -0.013,-0.019 -0.002,-0.009 -0.001,-0.019 0.003,-0.028 0.004,-0.01 0.01,-0.017 0.018,-0.022 0.008,-0.004 0.015,-0.005 0.022,-0.002 0.007,0.003 0.011,0.01 0.013,0.019 0.002,0.009 0,0.019 -0.004,0.029 -0.004,0.01 -0.01,0.017 -0.018,0.022 -0.008,0.004 -0.015,0.005 -0.022,0.002zm-0.058 -0.268c-0.012,0.017 -0.028,0.038 -0.045,0.066 -0.006,0.01 -0.013,0.021 -0.021,0.034l-0.021 0.035c0.01,-0.023 0.022,-0.048 0.036,-0.073 0.013,-0.023 0.028,-0.046 0.044,-0.068 0.019,-0.025 0.037,-0.045 0.054,-0.06l0.008 -0.006c0.003,-0.003 0.005,-0.004 0.008,-0.006l0.008 -0.006 0.008 -0.005c0.015,-0.007 0.027,-0.01 0.037,-0.009 -0.01,0 -0.022,0.005 -0.035,0.013l-0.008 0.005 -0.008 0.007c-0.002,0.002 -0.005,0.004 -0.007,0.006l-0.007 0.007c-0.016,0.017 -0.033,0.037 -0.051,0.06zm0.128 -0.136c-0.039,-0.009 -0.085,0.018 -0.137,0.081 -0.047,0.056 -0.091,0.13 -0.131,0.22 -0.04,0.089 -0.065,0.169 -0.074,0.24 -0.011,0.077 0.001,0.124 0.034,0.14 0.025,0.012 0.05,0.013 0.075,0.003 0.019,-0.008 0.039,-0.022 0.06,-0.044 0.004,-0.004 0.009,-0.009 0.014,-0.015l0.012 -0.014c0.011,-0.012 0.018,-0.021 0.023,-0.026 0.017,-0.017 0.031,-0.026 0.042,-0.025 0.011,0.001 0.025,0.01 0.04,0.028 0.005,0.006 0.012,0.015 0.021,0.027l0.012 0.014 0.011 0.015c0.019,0.023 0.037,0.039 0.053,0.048 0.022,0.011 0.043,0.012 0.066,0.003 0.027,-0.012 0.044,-0.053 0.051,-0.123 0.007,-0.066 0.004,-0.142 -0.008,-0.227 -0.013,-0.089 -0.033,-0.164 -0.059,-0.226 -0.031,-0.069 -0.065,-0.109 -0.104,-0.118zm0.473 0.065l-0.009 0.002c-0.003,0.001 -0.006,0.002 -0.008,0.003 -0.002,0.001 -0.005,0.002 -0.008,0.003l-0.004 0.002 -0.004 0.002 -0.008 0.005c-0.003,0.002 -0.005,0.004 -0.007,0.005 -0.018,0.013 -0.035,0.031 -0.051,0.052 -0.013,0.017 -0.027,0.038 -0.041,0.063 -0.01,0.018 -0.021,0.041 -0.033,0.068 0.007,-0.024 0.016,-0.048 0.027,-0.072 0.011,-0.024 0.025,-0.046 0.04,-0.066 0.017,-0.023 0.035,-0.04 0.054,-0.052 0.023,-0.015 0.046,-0.021 0.069,-0.018l-0.018 0.002zm0.265 0.235c-0.025,-0.085 -0.061,-0.153 -0.11,-0.204 -0.05,-0.052 -0.102,-0.076 -0.157,-0.071 -0.046,0.004 -0.09,0.036 -0.133,0.094 -0.04,0.055 -0.07,0.123 -0.091,0.203 -0.024,0.091 -0.031,0.176 -0.022,0.256 0.005,0.039 0.013,0.071 0.025,0.095 0.013,0.026 0.03,0.042 0.051,0.046 0.032,0.008 0.059,-0.004 0.081,-0.034 0.017,-0.023 0.032,-0.059 0.046,-0.109 0.003,-0.009 0.005,-0.019 0.008,-0.031l0.004 -0.015 0.003 -0.015c0.006,-0.026 0.011,-0.044 0.014,-0.055 0.011,-0.037 0.022,-0.056 0.034,-0.058 0.009,-0.002 0.017,0.003 0.025,0.015 0.006,0.01 0.012,0.025 0.019,0.046 0.002,0.008 0.005,0.018 0.009,0.03l0.004 0.017 0.005 0.017c0.008,0.029 0.015,0.052 0.022,0.071 0.018,0.048 0.041,0.082 0.068,0.1 0.025,0.017 0.049,0.018 0.072,0.004 0.015,-0.009 0.027,-0.026 0.037,-0.051 0.009,-0.025 0.016,-0.055 0.018,-0.09 0.006,-0.079 -0.004,-0.166 -0.032,-0.261zm0.639 0.07c-0.008,0.01 -0.017,0.016 -0.027,0.02 -0.011,0.005 -0.021,0.006 -0.032,0.003 0.021,-0.002 0.038,-0.012 0.052,-0.03 0.012,-0.015 0.02,-0.034 0.025,-0.059 0.002,0.024 -0.004,0.046 -0.019,0.065zm-0.092 -0.071c0.001,-0.015 0.005,-0.028 0.014,-0.039 0.008,-0.011 0.017,-0.016 0.028,-0.015 0.011,0.001 0.019,0.007 0.026,0.018 0.007,0.011 0.01,0.025 0.009,0.04 -0.001,0.015 -0.005,0.028 -0.014,0.039 -0.008,0.01 -0.017,0.015 -0.028,0.015 -0.01,-0.001 -0.019,-0.007 -0.026,-0.018 -0.007,-0.011 -0.01,-0.025 -0.009,-0.04zm-0.231 0.058c-0.008,0.009 -0.017,0.015 -0.026,0.019 -0.011,0.004 -0.021,0.005 -0.031,0.003 0.019,-0.003 0.037,-0.012 0.052,-0.029 0.013,-0.014 0.023,-0.032 0.031,-0.055 -0,0.023 -0.009,0.044 -0.025,0.061zm-0.064 -0.017c-0.008,-0.004 -0.013,-0.012 -0.015,-0.025 -0.002,-0.012 -0,-0.025 0.005,-0.038 0.006,-0.013 0.013,-0.023 0.023,-0.029 0.01,-0.006 0.019,-0.008 0.027,-0.004 0.008,0.004 0.013,0.012 0.015,0.025 0.002,0.012 0,0.025 -0.005,0.038 -0.005,0.013 -0.013,0.022 -0.023,0.029 -0.01,0.006 -0.019,0.008 -0.027,0.004zm-0.098 -0.148c-0.012,0.02 -0.02,0.043 -0.025,0.07 0.001,-0.012 0.003,-0.024 0.006,-0.038 0.003,-0.012 0.008,-0.023 0.014,-0.036 0.012,-0.023 0.028,-0.042 0.049,-0.057 0.017,-0.012 0.039,-0.021 0.067,-0.026 0.023,-0.004 0.046,-0.007 0.07,-0.006l-0.017 0.003 -0.018 0.003c-0.013,0.002 -0.025,0.005 -0.034,0.008 -0.028,0.008 -0.049,0.017 -0.064,0.027 -0.019,0.013 -0.035,0.03 -0.048,0.052zm0.578 -0.025c-0.022,-0.026 -0.056,-0.048 -0.103,-0.065 -0.042,-0.016 -0.091,-0.028 -0.145,-0.035 -0.052,-0.006 -0.103,-0.008 -0.151,-0.005 -0.05,0.004 -0.09,0.012 -0.121,0.025 -0.038,0.016 -0.068,0.044 -0.09,0.083 -0.021,0.037 -0.031,0.078 -0.029,0.123 0.001,0.046 0.015,0.087 0.04,0.123 0.028,0.04 0.067,0.067 0.118,0.083 0.015,0.005 0.026,0.013 0.032,0.025 0.005,0.009 0.007,0.023 0.007,0.042 0,0.006 -0,0.014 -0.001,0.026l-0 0.014c-0,0.006 -0,0.011 -0,0.015 -0,0.025 0.002,0.047 0.006,0.066 0.006,0.026 0.018,0.046 0.037,0.06 0.019,0.014 0.039,0.02 0.062,0.017 0.024,-0.003 0.046,-0.014 0.064,-0.034 0.021,-0.022 0.035,-0.052 0.043,-0.089 0.011,-0.056 0.02,-0.092 0.027,-0.11 0.008,-0.018 0.018,-0.027 0.031,-0.027 0.056,-0.001 0.102,-0.014 0.14,-0.039 0.033,-0.022 0.057,-0.052 0.071,-0.09 0.013,-0.035 0.016,-0.072 0.009,-0.111 -0.007,-0.038 -0.022,-0.071 -0.045,-0.098zm0.399 0.37c-0.007,0.005 -0.013,0.008 -0.02,0.01 -0.008,0.002 -0.015,0.002 -0.022,-0.001 0.014,-0.003 0.026,-0.009 0.037,-0.017 0.009,-0.007 0.018,-0.017 0.029,-0.031 -0.003,0.016 -0.011,0.028 -0.024,0.039zm-0.047 -0.031c-0.007,-0.004 -0.011,-0.01 -0.013,-0.019 -0.002,-0.009 -0.001,-0.019 0.003,-0.028 0.004,-0.01 0.01,-0.017 0.018,-0.022 0.008,-0.004 0.015,-0.005 0.022,-0.002 0.007,0.003 0.011,0.009 0.013,0.019 0.002,0.009 0,0.019 -0.004,0.029 -0.004,0.01 -0.01,0.017 -0.018,0.022 -0.008,0.004 -0.015,0.005 -0.022,0.002zm-0.058 -0.268c-0.012,0.016 -0.027,0.038 -0.045,0.066 -0.006,0.01 -0.013,0.021 -0.021,0.034l-0.021 0.035c0.01,-0.023 0.022,-0.048 0.036,-0.073 0.013,-0.023 0.028,-0.046 0.044,-0.068 0.019,-0.025 0.037,-0.045 0.054,-0.06l0.008 -0.007c0.003,-0.002 0.005,-0.004 0.008,-0.006l0.008 -0.006 0.008 -0.005c0.015,-0.007 0.027,-0.01 0.037,-0.009 -0.01,0 -0.022,0.005 -0.035,0.013l-0.008 0.006 -0.008 0.006c-0.002,0.002 -0.005,0.004 -0.007,0.006l-0.007 0.007c-0.016,0.017 -0.033,0.037 -0.051,0.06zm0.128 -0.136c-0.039,-0.009 -0.085,0.018 -0.137,0.081 -0.047,0.056 -0.091,0.13 -0.131,0.22 -0.04,0.089 -0.065,0.169 -0.074,0.24 -0.011,0.077 0.001,0.124 0.034,0.14 0.025,0.012 0.05,0.013 0.075,0.003 0.019,-0.008 0.039,-0.022 0.06,-0.045 0.004,-0.004 0.009,-0.009 0.014,-0.015l0.013 -0.014c0.011,-0.012 0.018,-0.021 0.023,-0.026 0.017,-0.017 0.031,-0.026 0.042,-0.025 0.011,0.001 0.025,0.01 0.04,0.028 0.005,0.006 0.012,0.014 0.021,0.027l0.012 0.014 0.011 0.015c0.019,0.023 0.037,0.039 0.053,0.048 0.022,0.011 0.043,0.012 0.066,0.003 0.027,-0.012 0.044,-0.052 0.051,-0.123 0.007,-0.066 0.004,-0.142 -0.008,-0.227 -0.013,-0.089 -0.033,-0.164 -0.059,-0.226 -0.031,-0.069 -0.065,-0.109 -0.104,-0.118zm0.547 0.509c-0.006,0.011 -0.014,0.019 -0.023,0.023 -0.01,0.005 -0.02,0.007 -0.031,0.004 0.01,-0.001 0.019,-0.005 0.027,-0.01 0.008,-0.006 0.015,-0.013 0.019,-0.022 0.009,-0.017 0.011,-0.037 0.008,-0.061 0.005,0.01 0.007,0.021 0.007,0.032 0,0.012 -0.002,0.023 -0.008,0.034zm-0.082 -0.034c-0.004,-0.01 -0.006,-0.019 -0.004,-0.029 0.001,-0.009 0.006,-0.016 0.012,-0.02 0.007,-0.004 0.014,-0.003 0.021,0.001 0.008,0.005 0.014,0.012 0.019,0.021 0.004,0.01 0.006,0.02 0.004,0.029 -0.001,0.01 -0.005,0.016 -0.012,0.02 -0.006,0.004 -0.014,0.003 -0.021,-0.001 -0.008,-0.004 -0.014,-0.011 -0.019,-0.021zm-0.029 -0.207c0.007,-0.002 0.014,-0.004 0.02,-0.007 0.007,-0.004 0.012,-0.008 0.017,-0.013 0.005,-0.005 0.01,-0.011 0.014,-0.018 0.004,-0.006 0.007,-0.013 0.01,-0.021 0.001,0.017 -0.005,0.032 -0.018,0.045 -0.006,0.006 -0.013,0.01 -0.021,0.013 -0.008,0.003 -0.016,0.003 -0.023,0.001zm-0.006 -0.071c0.004,-0.006 0.008,-0.011 0.014,-0.013 0.005,-0.002 0.01,-0.002 0.014,0.001 0.004,0.003 0.006,0.007 0.006,0.014 0,0.006 -0.001,0.012 -0.005,0.018 -0.004,0.006 -0.008,0.011 -0.014,0.013 -0.005,0.002 -0.01,0.002 -0.014,-0.001 -0.004,-0.003 -0.006,-0.007 -0.006,-0.014 -0,-0.006 0.001,-0.012 0.005,-0.018zm-0.072 -0.092c-0.008,0.008 -0.016,0.017 -0.024,0.029 -0.012,0.018 -0.024,0.04 -0.035,0.067 -0.009,0.021 -0.017,0.045 -0.025,0.073 0.004,-0.025 0.01,-0.05 0.019,-0.076 0.009,-0.026 0.021,-0.049 0.035,-0.07 0.017,-0.024 0.035,-0.041 0.055,-0.052 0.013,-0.007 0.024,-0.012 0.035,-0.014 0.013,-0.002 0.025,-0.003 0.036,-0.002 -0.025,0.001 -0.047,0.008 -0.067,0.022 -0.01,0.007 -0.02,0.014 -0.028,0.023zm0.184 0.198c-0.005,-0.002 -0.006,-0.008 -0.002,-0.016 0.001,-0.003 0.004,-0.008 0.008,-0.014l0.002 -0.004 0.003 -0.004c0.002,-0.003 0.004,-0.007 0.006,-0.01 0.009,-0.017 0.016,-0.034 0.02,-0.05 0.006,-0.023 0.008,-0.047 0.005,-0.072 -0.003,-0.028 -0.016,-0.052 -0.04,-0.073 -0.024,-0.021 -0.052,-0.033 -0.084,-0.036 -0.035,-0.003 -0.068,0.006 -0.1,0.027 -0.036,0.024 -0.065,0.063 -0.088,0.115 -0.024,0.054 -0.038,0.114 -0.043,0.179 -0.005,0.067 -0,0.128 0.015,0.185 0.017,0.062 0.044,0.11 0.081,0.144 0.042,0.038 0.093,0.057 0.154,0.056 0.059,-0.001 0.106,-0.019 0.143,-0.054 0.034,-0.032 0.053,-0.073 0.059,-0.123 0.006,-0.049 -0.003,-0.096 -0.026,-0.141 -0.025,-0.048 -0.062,-0.085 -0.112,-0.11zm0.564 -0.165c-0.008,0.009 -0.017,0.021 -0.026,0.034 -0.015,0.024 -0.029,0.049 -0.041,0.077l-0.008 0.02 -0.008 0.021c-0.007,0.018 -0.013,0.032 -0.017,0.041 -0.008,0.018 -0.016,0.031 -0.023,0.039 -0.005,0.006 -0.011,0.01 -0.018,0.012 -0.006,0.002 -0.013,0.003 -0.021,0.001 0.008,0 0.015,-0.001 0.02,-0.003 0.006,-0.003 0.011,-0.007 0.016,-0.013 0.006,-0.008 0.013,-0.021 0.02,-0.038l0.007 -0.021 0.008 -0.021c0.006,-0.017 0.011,-0.031 0.016,-0.042 0.013,-0.03 0.027,-0.055 0.044,-0.077 0.021,-0.028 0.043,-0.048 0.063,-0.058 -0.012,0.007 -0.022,0.017 -0.032,0.028zm-0.306 0.097c-0.005,0.02 -0.01,0.044 -0.015,0.071l-0.006 0.036 -0.006 0.036c0.001,-0.072 0.012,-0.135 0.033,-0.19 0.004,-0.011 0.008,-0.021 0.012,-0.029 0.006,-0.011 0.012,-0.021 0.018,-0.029 0.016,-0.021 0.033,-0.031 0.052,-0.028 -0.023,0.001 -0.043,0.018 -0.059,0.051 -0.006,0.012 -0.012,0.027 -0.017,0.043 -0.002,0.006 -0.004,0.013 -0.006,0.021l-0.003 0.01 -0.001 0.004 -0.001 0.004zm0.425 -0.153c-0.035,-0.026 -0.073,-0.026 -0.113,-0 -0.033,0.021 -0.062,0.057 -0.089,0.106 -0.009,0.016 -0.017,0.035 -0.026,0.056 -0.003,0.008 -0.007,0.017 -0.011,0.027l-0.005 0.013 -0.002 0.006 -0.002 0.006c-0.007,0.018 -0.012,0.03 -0.016,0.037 -0.005,0.009 -0.009,0.014 -0.013,0.013 -0.008,-0.001 -0.012,-0.008 -0.011,-0.02 -0,-0.011 0.004,-0.036 0.011,-0.075 0.014,-0.071 0.012,-0.123 -0.005,-0.153 -0.013,-0.024 -0.036,-0.035 -0.068,-0.032 -0.039,0.003 -0.072,0.041 -0.098,0.113 -0.026,0.07 -0.04,0.156 -0.042,0.259 -0.005,0.188 0.041,0.293 0.137,0.312 0.028,0.005 0.057,-0 0.086,-0.017 0.027,-0.016 0.051,-0.039 0.071,-0.069 0.018,-0.026 0.033,-0.051 0.046,-0.073 0.005,-0.009 0.009,-0.017 0.013,-0.026 0.003,-0.006 0.006,-0.012 0.009,-0.019 0.005,-0.012 0.009,-0.019 0.011,-0.021 0.002,-0.003 0.005,-0.004 0.009,-0.003 0.004,0.002 0.003,0.015 -0.001,0.041l-0.001 0.009 -0.002 0.009c-0.001,0.008 -0.003,0.015 -0.003,0.02 -0.003,0.017 -0.005,0.032 -0.006,0.045 -0.006,0.08 0.018,0.121 0.072,0.124 0.035,0.002 0.064,-0.029 0.087,-0.092 0.02,-0.056 0.033,-0.129 0.038,-0.216 0.005,-0.086 0.001,-0.163 -0.012,-0.233 -0.014,-0.076 -0.035,-0.124 -0.063,-0.146zm0.301 0.045c-0.021,0.002 -0.039,0.005 -0.052,0.009 -0.02,0.005 -0.037,0.011 -0.049,0.019 -0.009,0.006 -0.016,0.011 -0.02,0.017 -0.005,0.007 -0.008,0.015 -0.009,0.026 -0.002,-0.01 0,-0.02 0.006,-0.029 0.004,-0.007 0.011,-0.014 0.02,-0.021 0.013,-0.009 0.03,-0.016 0.051,-0.022 0.034,-0.008 0.07,-0.009 0.107,-0.003 -0.02,0.001 -0.037,0.002 -0.053,0.004zm0.088 -0.039c-0.073,-0.008 -0.134,-0.003 -0.181,0.016 -0.05,0.02 -0.074,0.052 -0.073,0.095 0.001,0.024 0.009,0.042 0.025,0.054 0.012,0.009 0.03,0.015 0.054,0.019l0.015 0.002 0.015 0.002c0.011,0.002 0.02,0.003 0.027,0.006 0.018,0.005 0.029,0.014 0.033,0.026 0.002,0.007 -0.003,0.05 -0.015,0.127 -0.006,0.039 -0.011,0.073 -0.014,0.101 -0.004,0.039 -0.006,0.074 -0.005,0.104 0.001,0.045 0.014,0.082 0.037,0.11 0.024,0.031 0.053,0.044 0.089,0.041 0.065,-0.006 0.093,-0.075 0.082,-0.206 -0.006,-0.069 -0.007,-0.128 -0.005,-0.177 0.002,-0.052 0.008,-0.082 0.019,-0.09 0.007,-0.005 0.019,-0.008 0.036,-0.007 0.005,0 0.013,0.001 0.024,0.001l0.012 0.001 0.012 0c0.02,0.001 0.035,-0.002 0.047,-0.007 0.015,-0.007 0.026,-0.019 0.031,-0.036 0.007,-0.022 0.005,-0.043 -0.006,-0.064 -0.011,-0.019 -0.029,-0.037 -0.054,-0.054 -0.052,-0.033 -0.12,-0.055 -0.204,-0.064zm0.596 0.523c-0.006,0.009 -0.014,0.015 -0.023,0.019 -0.009,0.004 -0.019,0.005 -0.028,0.002 0.019,-0.003 0.033,-0.011 0.044,-0.027 0.005,-0.006 0.008,-0.015 0.011,-0.024 0.002,-0.008 0.003,-0.018 0.004,-0.029 0.003,0.01 0.004,0.02 0.003,0.03 -0.001,0.011 -0.005,0.02 -0.011,0.029zm-0.078 -0.042c-0.004,-0.01 -0.005,-0.019 -0.003,-0.028 0.002,-0.009 0.006,-0.016 0.012,-0.019 0.007,-0.003 0.014,-0.002 0.021,0.003 0.008,0.005 0.013,0.012 0.017,0.022 0.004,0.01 0.005,0.02 0.003,0.029 -0.002,0.009 -0.006,0.015 -0.013,0.018 -0.006,0.003 -0.013,0.002 -0.021,-0.002 -0.008,-0.005 -0.013,-0.012 -0.018,-0.022zm-0.02 -0.409c-0.006,0.003 -0.012,0.007 -0.02,0.012 -0.011,0.009 -0.022,0.02 -0.033,0.033 -0.008,0.009 -0.018,0.022 -0.029,0.039 -0.004,0.005 -0.009,0.012 -0.014,0.02l-0.013 0.021c0.007,-0.018 0.014,-0.033 0.021,-0.045 0.008,-0.015 0.018,-0.029 0.028,-0.041 0.012,-0.014 0.024,-0.025 0.036,-0.033 0.016,-0.011 0.031,-0.015 0.045,-0.013 -0.007,0.001 -0.015,0.003 -0.022,0.007zm0.105 0.244c-0.015,-0.006 -0.024,-0.015 -0.028,-0.029 -0.003,-0.01 -0.002,-0.025 0.002,-0.045 0.001,-0.004 0.002,-0.008 0.003,-0.014l0.003 -0.014c0.003,-0.013 0.005,-0.023 0.007,-0.03 0.005,-0.025 0.007,-0.047 0.006,-0.066 -0.002,-0.028 -0.01,-0.05 -0.025,-0.067 -0.015,-0.017 -0.034,-0.025 -0.056,-0.024 -0.024,0.001 -0.049,0.013 -0.075,0.036 -0.029,0.026 -0.056,0.064 -0.081,0.115 -0.026,0.052 -0.044,0.11 -0.054,0.172 -0.01,0.064 -0.01,0.124 0,0.178 0.011,0.06 0.034,0.107 0.067,0.142 0.038,0.039 0.087,0.06 0.147,0.062 0.058,0.002 0.106,-0.014 0.146,-0.049 0.036,-0.032 0.06,-0.073 0.07,-0.123 0.01,-0.05 0.004,-0.098 -0.018,-0.142 -0.024,-0.048 -0.062,-0.082 -0.115,-0.103zm0.201 -0.216c-0.005,0.005 -0.009,0.011 -0.012,0.018 -0.003,0.007 -0.004,0.014 -0.005,0.023 -0.001,0.012 -0.001,0.028 0.001,0.049l0.003 0.024 0.003 0.025c-0.006,-0.018 -0.01,-0.034 -0.012,-0.048 -0.003,-0.019 -0.005,-0.036 -0.003,-0.051 0.002,-0.01 0.004,-0.018 0.006,-0.025 0.004,-0.009 0.009,-0.016 0.016,-0.021 0.013,-0.009 0.028,-0.013 0.045,-0.01 -0.017,0.001 -0.031,0.006 -0.041,0.016zm0.157 0.036c-0.011,-0.027 -0.027,-0.048 -0.047,-0.064 -0.018,-0.014 -0.037,-0.023 -0.058,-0.025 -0.02,-0.003 -0.038,-0 -0.056,0.008 -0.017,0.008 -0.03,0.02 -0.039,0.036 -0.016,0.03 -0.018,0.075 -0.006,0.136 0.002,0.01 0.004,0.022 0.008,0.038l0.004 0.019 0.005 0.019c0.006,0.03 0.01,0.055 0.011,0.075 0.002,0.048 0.002,0.097 -0.002,0.147 -0.001,0.016 -0.003,0.035 -0.005,0.057l-0.001 0.013 -0.001 0.012c-0.001,0.009 -0.002,0.017 -0.002,0.023 -0.003,0.031 -0.002,0.053 0.001,0.066 0.005,0.016 0.015,0.027 0.032,0.032 0.032,0.01 0.063,-0.007 0.092,-0.052 0.026,-0.04 0.047,-0.095 0.063,-0.167 0.016,-0.069 0.024,-0.138 0.025,-0.206 0.001,-0.072 -0.007,-0.128 -0.024,-0.167zm0.477 -0.009c-0.004,0.002 -0.008,0.005 -0.012,0.01 -0.006,0.007 -0.01,0.017 -0.013,0.031 -0.004,0.018 -0.007,0.042 -0.008,0.07l-0 0.009 -0.001 0.009c-0,0.007 -0.001,0.013 -0.001,0.019 -0.002,0.013 -0.006,0.025 -0.011,0.035 -0.005,0.011 -0.012,0.021 -0.021,0.029 -0.009,0.008 -0.019,0.013 -0.03,0.016 0.021,-0.009 0.036,-0.026 0.045,-0.048 0.004,-0.011 0.007,-0.022 0.008,-0.034 0.001,-0.005 0.001,-0.01 0.001,-0.017l0 -0.009 0.001 -0.009c0.001,-0.029 0.005,-0.053 0.01,-0.071 0.005,-0.015 0.01,-0.026 0.017,-0.033 0.005,-0.005 0.01,-0.008 0.015,-0.009 0.004,-0.002 0.01,-0.002 0.017,-0.001 -0.007,0.001 -0.012,0.002 -0.016,0.004zm-0.305 -0.004c-0.011,0.011 -0.02,0.026 -0.027,0.043 -0.005,0.015 -0.011,0.032 -0.017,0.051l-0.007 0.026 -0.007 0.026c0.003,-0.037 0.011,-0.073 0.023,-0.107 0.007,-0.019 0.017,-0.035 0.03,-0.046 0.007,-0.006 0.015,-0.011 0.023,-0.014 0.009,-0.003 0.017,-0.004 0.025,-0.002 -0.016,0.001 -0.03,0.008 -0.043,0.022zm0.322 -0.037c-0.031,0 -0.053,0.014 -0.068,0.042 -0.014,0.027 -0.022,0.068 -0.022,0.126 -0,0.025 -0.007,0.043 -0.018,0.055 -0.01,0.01 -0.022,0.014 -0.036,0.012 -0.015,-0.002 -0.025,-0.01 -0.032,-0.022 -0.007,-0.013 -0.009,-0.03 -0.006,-0.05 0.009,-0.057 0.006,-0.101 -0.009,-0.131 -0.013,-0.027 -0.036,-0.044 -0.07,-0.051 -0.027,-0.006 -0.052,-0.001 -0.074,0.016 -0.022,0.016 -0.039,0.04 -0.05,0.071 -0.022,0.06 -0.036,0.132 -0.042,0.216 -0.005,0.08 -0.002,0.158 0.01,0.231 0.009,0.055 0.026,0.095 0.051,0.12 0.02,0.021 0.044,0.03 0.07,0.027 0.058,-0.006 0.087,-0.051 0.086,-0.134 -0.001,-0.061 0.013,-0.091 0.04,-0.089 0.014,0.001 0.024,0.007 0.031,0.018 0.009,0.015 0.012,0.039 0.009,0.071 -0.006,0.054 0,0.096 0.017,0.125 0.015,0.027 0.039,0.042 0.071,0.044 0.053,0.003 0.093,-0.031 0.118,-0.102 0.018,-0.052 0.033,-0.138 0.043,-0.259 0.008,-0.093 0.001,-0.172 -0.02,-0.235 -0.022,-0.066 -0.054,-0.099 -0.098,-0.099z"/>
  </g>
 </g>
</svg>
