<?xml version="1.0" encoding="UTF-8"?>
<!DOCTYPE svg PUBLIC "-//W3C//DTD SVG 1.1//EN" "http://www.w3.org/Graphics/SVG/1.1/DTD/svg11.dtd">
<!-- Creator: CorelDRAW 2019 (64-Bit) -->
<svg xmlns="http://www.w3.org/2000/svg" xml:space="preserve" width="6.10199cm" height="1.59104cm" version="1.1" style="shape-rendering:geometricPrecision; text-rendering:geometricPrecision; image-rendering:optimizeQuality; fill-rule:evenodd; clip-rule:evenodd"
viewBox="0 0 30.82 8.036"
 xmlns:xlink="http://www.w3.org/1999/xlink"
 xmlns:xodm="http://www.corel.com/coreldraw/odm/2003">
 <defs>
  <style type="text/css">
   <![CDATA[
    .fil1 {fill:#E31E24}
    .fil8 {fill:aqua}
    .fil0 {fill:#EFF0AB}
    .fil3 {fill:#EF7F1A;fill-rule:nonzero}
    .fil7 {fill:#00A0E3;fill-rule:nonzero}
    .fil6 {fill:#434025;fill-rule:nonzero}
    .fil2 {fill:#BAC245;fill-rule:nonzero}
    .fil4 {fill:#DADD4F;fill-rule:nonzero}
    .fil5 {fill:white;fill-rule:nonzero}
   ]]>
  </style>
 </defs>
 <g id="Слой_x0020_1">
  <metadata id="CorelCorpID_0Corel-Layer"/>
  <path class="fil0" d="M8.252 1.513c-1.389,0.231 -1.877,1.055 -1.887,1.092 -0.098,0.373 0.598,-0.679 2.106,0.141 1.508,0.82 4.694,0.463 5.45,0.44 1.757,-0.054 2.363,-1.728 0.141,-1.78 -2.572,-0.061 -5.658,0.082 -5.81,0.107z"/>
  <g id="_1488225739872">
   <path class="fil1" d="M29.549 0.484l0.216 0.331c0.028,0.043 0.037,0.07 0.028,0.083 -0.009,0.014 -0.032,0.012 -0.07,0.004l-0.414 -0.087c-0.023,-0.005 -0.044,-0.019 -0.057,-0.038 -0.276,-0.428 -0.268,-0.44 0.24,-0.331 0.023,0.005 0.044,0.019 0.057,0.038z"/>
   <path class="fil1" d="M30.358 0.654l-0.331 0.216c-0.043,0.028 -0.062,0.049 -0.059,0.064 0.003,0.016 0.024,0.024 0.062,0.032l0.414 0.087c0.023,0.005 0.048,0.001 0.068,-0.012 0.425,-0.281 0.422,-0.295 -0.087,-0.4 -0.023,-0.005 -0.048,-0 -0.067,0.012z"/>
   <path class="fil1" d="M30.199 1.415l-0.216 -0.331c-0.028,-0.043 -0.037,-0.07 -0.028,-0.083 0.009,-0.014 0.032,-0.012 0.07,-0.004l0.414 0.087c0.023,0.005 0.045,0.019 0.057,0.038 0.276,0.428 0.268,0.44 -0.24,0.331 -0.023,-0.005 -0.044,-0.019 -0.057,-0.038z"/>
   <path class="fil1" d="M29.39 1.245l0.331 -0.216c0.043,-0.028 0.062,-0.049 0.059,-0.064 -0.003,-0.016 -0.024,-0.024 -0.062,-0.032l-0.414 -0.087c-0.023,-0.005 -0.048,-0.001 -0.068,0.012 -0.425,0.281 -0.422,0.295 0.087,0.4 0.023,0.005 0.048,0 0.067,-0.012z"/>
   <path class="fil1" d="M30.165 1.435l-0.216 -0.331c-0.028,-0.043 -0.049,-0.062 -0.064,-0.059 -0.016,0.003 -0.024,0.024 -0.032,0.062l-0.087 0.414c-0.005,0.023 -0.001,0.048 0.012,0.068 0.281,0.425 0.295,0.422 0.4,-0.087 0.005,-0.023 0,-0.048 -0.012,-0.067z"/>
   <path class="fil1" d="M29.404 1.275l0.331 -0.216c0.043,-0.028 0.07,-0.037 0.083,-0.028 0.014,0.009 0.012,0.032 0.004,0.07l-0.087 0.414c-0.005,0.023 -0.019,0.044 -0.038,0.057 -0.428,0.276 -0.44,0.268 -0.331,-0.24 0.005,-0.023 0.019,-0.044 0.038,-0.057z"/>
   <path class="fil1" d="M29.575 0.462l0.216 0.331c0.028,0.043 0.049,0.062 0.064,0.059 0.016,-0.003 0.024,-0.024 0.032,-0.062l0.087 -0.414c0.005,-0.023 0.001,-0.048 -0.012,-0.068 -0.281,-0.425 -0.295,-0.422 -0.4,0.087 -0.005,0.023 -0,0.048 0.012,0.067z"/>
   <path class="fil1" d="M30.336 0.622l-0.331 0.216c-0.043,0.028 -0.07,0.037 -0.083,0.028 -0.014,-0.009 -0.012,-0.032 -0.004,-0.07l0.087 -0.414c0.005,-0.023 0.019,-0.045 0.038,-0.057 0.428,-0.276 0.44,-0.268 0.331,0.24 -0.005,0.023 -0.019,0.044 -0.038,0.057z"/>
  </g>
  <g id="_1488225748352">
   <path class="fil2" d="M3.791 5.643c0,0 -2.934,-1.044 -3.636,0.207 -0.486,0.859 0.266,1.765 0.95,2.066 0.316,0.139 0.642,0.188 0.947,-0.024 0.044,-0.03 0.083,-0.066 0.117,-0.105 1.407,-1.736 -4.209,-1.53 1.622,-2.143z"/>
   <polygon class="fil2" points="2.477,3.676 2.796,2.946 1.985,3.026 1.174,3.107 1.666,3.756 2.159,4.406 "/>
   <polygon class="fil3" points="2.882,3.858 3.2,3.129 2.389,3.209 1.578,3.289 2.071,3.938 2.563,4.588 "/>
   <polygon class="fil2" points="3.708,2.486 3.004,2.858 3.024,2.043 3.044,1.228 3.728,1.671 4.412,2.114 "/>
   <polygon class="fil3" points="3.894,2.865 3.19,3.237 3.21,2.422 3.23,1.607 3.914,2.051 4.599,2.494 "/>
   <path class="fil2" d="M6.775 6.437c-0.023,0.316 -0.318,0.409 -0.672,0.383 -0.354,-0.026 -0.633,-0.161 -0.61,-0.476 0.023,-0.315 0.329,-0.55 0.683,-0.525 0.354,0.026 0.622,0.303 0.599,0.618z"/>
   <path class="fil2" d="M2.834 6.162c-0.023,0.316 -0.318,0.409 -0.673,0.383 -0.354,-0.026 -0.633,-0.161 -0.61,-0.476 0.023,-0.315 0.329,-0.55 0.683,-0.525 0.354,0.026 0.623,0.303 0.6,0.618z"/>
   <path class="fil4" d="M6.734 5.021c-0.113,1.55 -1.254,2.029 -2.611,1.93 -1.357,-0.099 -2.417,-0.739 -2.304,-2.288 0.113,-1.55 1.305,-2.726 2.662,-2.627 1.357,0.099 2.366,1.435 2.253,2.985z"/>
   <path class="fil2" d="M6.072 4.29c-0.134,-0.287 0.079,-0.512 0.401,-0.662 0.322,-0.15 0.631,-0.168 0.765,0.119 0.134,0.287 -0.019,0.641 -0.341,0.791 -0.322,0.15 -0.691,0.039 -0.825,-0.248z"/>
   <path class="fil2" d="M3.994 6.929c-0.023,0.316 -0.318,0.408 -0.672,0.383 -0.354,-0.026 -0.633,-0.161 -0.61,-0.476 0.023,-0.316 0.329,-0.55 0.683,-0.525 0.354,0.026 0.622,0.303 0.599,0.618z"/>
   <path class="fil2" d="M3.398 2.579c-0.176,0.189 -0.273,0.421 -0.294,0.653 -0.23,0.037 -0.454,0.152 -0.63,0.341 -0.398,0.429 -0.397,1.077 0.003,1.448 0.399,0.371 1.046,0.324 1.444,-0.105 0.176,-0.189 0.273,-0.421 0.294,-0.653 0.23,-0.037 0.454,-0.152 0.63,-0.341 0.398,-0.428 0.397,-1.077 -0.003,-1.447 -0.399,-0.371 -1.046,-0.324 -1.444,0.104z"/>
   <path class="fil5" d="M3.693 3.847c0.266,0.247 0.281,0.663 0.034,0.929 -0.247,0.266 -0.663,0.281 -0.929,0.034 -0.266,-0.247 -0.281,-0.663 -0.034,-0.929 0.247,-0.266 0.663,-0.281 0.929,-0.034z"/>
   <path class="fil5" d="M4.655 2.81c0.266,0.247 0.281,0.663 0.034,0.929 -0.247,0.266 -0.663,0.281 -0.929,0.034 -0.266,-0.247 -0.281,-0.663 -0.034,-0.929 0.247,-0.266 0.663,-0.281 0.929,-0.034z"/>
   <path class="fil6" d="M4.425 4.198c0.059,0.055 0.048,0.162 -0.024,0.239 -0.072,0.078 -0.178,0.096 -0.237,0.042 -0.059,-0.055 -0.048,-0.162 0.024,-0.239 0.072,-0.077 0.178,-0.096 0.237,-0.041z"/>
   <polygon class="fil6" points="4.696,4.711 4.717,4.688 4.568,4.57 4.419,4.454 4.547,4.594 4.675,4.734 "/>
   <path class="fil6" d="M4.77 4.775c0.073,-0.079 0.157,-0.136 0.233,-0.164 -0.092,-0.039 -0.22,-0.003 -0.311,0.096 -0.093,0.1 -0.119,0.233 -0.07,0.322 0.021,-0.081 0.072,-0.172 0.149,-0.254z"/>
   <g>
    <path class="fil7" d="M3.166 4.666c0.052,-0.06 0.046,-0.15 -0.014,-0.202 -0.06,-0.052 -0.15,-0.046 -0.202,0.014 -0.003,0.004 -0.006,0.008 -0.009,0.012 -0.001,-0.091 0.03,-0.182 0.094,-0.256 0.139,-0.16 0.381,-0.176 0.54,-0.037 0.16,0.139 0.176,0.381 0.037,0.54 -0.139,0.159 -0.381,0.176 -0.54,0.037 -0.023,-0.02 -0.043,-0.043 -0.06,-0.067 0.054,0.018 0.115,0.004 0.155,-0.041z"/>
    <path class="fil7" d="M4.121 3.573c0.057,-0.055 0.059,-0.145 0.005,-0.203 -0.055,-0.057 -0.145,-0.06 -0.203,-0.005 -0.004,0.004 -0.007,0.007 -0.01,0.011 0.007,-0.091 0.046,-0.179 0.117,-0.246 0.153,-0.146 0.396,-0.14 0.542,0.013 0.146,0.153 0.14,0.395 -0.013,0.542 -0.153,0.146 -0.395,0.14 -0.541,-0.013 -0.021,-0.022 -0.039,-0.047 -0.054,-0.072 0.052,0.023 0.114,0.015 0.158,-0.027z"/>
   </g>
   <path class="fil8" d="M3.289 5.152c0.087,0 0.157,0.317 0.157,0.387 0,0.07 -0.071,0.127 -0.157,0.127 -0.087,0 -0.157,-0.057 -0.157,-0.127 0,-0.07 0.071,-0.387 0.157,-0.387z"/>
  </g>
 </g>
</svg>
