<?xml version="1.0" encoding="UTF-8"?>
<!DOCTYPE svg PUBLIC "-//W3C//DTD SVG 1.1//EN" "http://www.w3.org/Graphics/SVG/1.1/DTD/svg11.dtd">
<!-- Creator: CorelDRAW 2019 (64-Bit) -->
<svg xmlns="http://www.w3.org/2000/svg" xml:space="preserve" width="6.10197cm" height="1.59105cm" version="1.1" style="shape-rendering:geometricPrecision; text-rendering:geometricPrecision; image-rendering:optimizeQuality; fill-rule:evenodd; clip-rule:evenodd"
viewBox="0 0 38.052 9.922"
 xmlns:xlink="http://www.w3.org/1999/xlink"
 xmlns:xodm="http://www.corel.com/coreldraw/odm/2003">
 <defs>
  <style type="text/css">
   <![CDATA[
    .fil1 {fill:#E31E24}
    .fil0 {fill:#EFF0AB}
    .fil3 {fill:#EF7F1A;fill-rule:nonzero}
    .fil7 {fill:#00A0E3;fill-rule:nonzero}
    .fil6 {fill:#434025;fill-rule:nonzero}
    .fil2 {fill:#BAC245;fill-rule:nonzero}
    .fil4 {fill:#DADD4F;fill-rule:nonzero}
    .fil5 {fill:white;fill-rule:nonzero}
   ]]>
  </style>
 </defs>
 <g id="Слой_x0020_1">
  <metadata id="CorelCorpID_0Corel-Layer"/>
  <path class="fil0" d="M10.179 1.889c-1.714,0.285 -2.317,1.302 -2.33,1.349 -0.121,0.461 1.296,-0.845 2.036,0.27 0.965,1.454 5.647,0.669 6.882,0.512 2.647,-0.335 17.352,0.68 18.344,0.266 2.007,-0.837 1.564,-2.097 -1.171,-2.332 -7.789,-0.669 -23.574,-0.097 -23.762,-0.066z"/>
  <g id="_1963254386288">
   <path class="fil1" d="M36.483 0.598l0.267 0.408c0.035,0.054 0.045,0.086 0.035,0.102 -0.011,0.017 -0.04,0.015 -0.086,0.005l-0.511 -0.107c-0.028,-0.006 -0.055,-0.023 -0.071,-0.047 -0.341,-0.529 -0.331,-0.544 0.297,-0.408 0.028,0.006 0.054,0.024 0.07,0.047z"/>
   <path class="fil1" d="M37.482 0.808l-0.408 0.267c-0.054,0.035 -0.076,0.06 -0.073,0.079 0.004,0.02 0.03,0.03 0.077,0.039l0.511 0.107c0.028,0.006 0.06,0.001 0.084,-0.015 0.525,-0.347 0.521,-0.365 -0.108,-0.493 -0.028,-0.006 -0.059,-0 -0.083,0.015z"/>
   <path class="fil1" d="M37.284 1.747l-0.267 -0.408c-0.035,-0.054 -0.045,-0.086 -0.035,-0.102 0.011,-0.017 0.04,-0.015 0.086,-0.005l0.511 0.107c0.028,0.006 0.055,0.023 0.071,0.047 0.341,0.529 0.331,0.544 -0.297,0.408 -0.028,-0.006 -0.054,-0.024 -0.07,-0.047z"/>
   <path class="fil1" d="M36.286 1.537l0.408 -0.267c0.054,-0.035 0.076,-0.06 0.073,-0.079 -0.004,-0.02 -0.03,-0.03 -0.077,-0.039l-0.511 -0.107c-0.028,-0.006 -0.06,-0.001 -0.084,0.015 -0.525,0.347 -0.521,0.365 0.108,0.493 0.028,0.006 0.059,0 0.083,-0.015z"/>
   <path class="fil1" d="M37.243 1.772l-0.267 -0.408c-0.035,-0.054 -0.06,-0.076 -0.08,-0.073 -0.02,0.004 -0.03,0.03 -0.039,0.077l-0.107 0.511c-0.006,0.028 -0.001,0.06 0.015,0.084 0.347,0.525 0.365,0.521 0.493,-0.108 0.006,-0.028 0,-0.059 -0.015,-0.083z"/>
   <path class="fil1" d="M36.304 1.575l0.408 -0.267c0.054,-0.035 0.086,-0.045 0.102,-0.035 0.017,0.011 0.015,0.04 0.005,0.086l-0.107 0.511c-0.006,0.028 -0.023,0.055 -0.047,0.071 -0.529,0.341 -0.544,0.331 -0.408,-0.297 0.006,-0.028 0.024,-0.054 0.047,-0.07z"/>
   <path class="fil1" d="M36.515 0.571l0.267 0.408c0.035,0.054 0.06,0.076 0.08,0.073 0.02,-0.004 0.03,-0.03 0.039,-0.077l0.107 -0.511c0.006,-0.028 0.001,-0.06 -0.015,-0.084 -0.347,-0.525 -0.365,-0.521 -0.493,0.108 -0.006,0.028 -0,0.059 0.015,0.083z"/>
   <path class="fil1" d="M37.454 0.768l-0.408 0.267c-0.054,0.035 -0.086,0.045 -0.102,0.035 -0.017,-0.011 -0.015,-0.04 -0.005,-0.086l0.107 -0.511c0.006,-0.028 0.023,-0.055 0.047,-0.071 0.529,-0.341 0.544,-0.331 0.408,0.297 -0.006,0.028 -0.024,0.054 -0.047,0.07z"/>
  </g>
  <g id="_1964262515072">
   <path class="fil2" d="M4.68 6.968c0,0 -3.623,-1.289 -4.489,0.255 -0.601,1.06 0.328,2.179 1.172,2.551 0.39,0.172 0.793,0.232 1.169,-0.03 0.054,-0.038 0.103,-0.081 0.145,-0.13 1.737,-2.144 -5.197,-1.889 2.003,-2.646z"/>
   <polygon class="fil2" points="3.059,4.539 3.452,3.638 2.451,3.737 1.449,3.836 2.057,4.638 2.665,5.44 "/>
   <polygon class="fil3" points="3.558,4.764 3.951,3.863 2.95,3.962 1.948,4.061 2.556,4.862 3.165,5.664 "/>
   <polygon class="fil2" points="4.578,3.069 3.709,3.528 3.733,2.522 3.758,1.516 4.603,2.063 5.447,2.611 "/>
   <polygon class="fil3" points="4.808,3.538 3.939,3.997 3.964,2.991 3.988,1.985 4.833,2.532 5.678,3.079 "/>
   <path class="fil2" d="M8.365 7.947c-0.028,0.39 -0.393,0.504 -0.83,0.473 -0.437,-0.032 -0.781,-0.198 -0.753,-0.588 0.028,-0.39 0.406,-0.68 0.843,-0.648 0.437,0.032 0.768,0.374 0.74,0.763z"/>
   <path class="fil2" d="M3.499 7.608c-0.028,0.39 -0.393,0.504 -0.83,0.473 -0.437,-0.032 -0.781,-0.198 -0.753,-0.588 0.028,-0.39 0.406,-0.68 0.843,-0.648 0.437,0.032 0.769,0.374 0.74,0.763z"/>
   <path class="fil4" d="M8.314 6.2c-0.139,1.913 -1.548,2.505 -3.224,2.383 -1.676,-0.122 -2.984,-0.912 -2.844,-2.825 0.14,-1.913 1.611,-3.365 3.287,-3.243 1.676,0.122 2.921,1.772 2.782,3.685z"/>
   <path class="fil2" d="M7.497 5.296c-0.165,-0.354 0.097,-0.632 0.495,-0.817 0.397,-0.185 0.779,-0.208 0.944,0.146 0.165,0.354 -0.023,0.791 -0.421,0.977 -0.397,0.185 -0.853,0.048 -1.018,-0.306z"/>
   <path class="fil2" d="M4.931 8.554c-0.028,0.39 -0.393,0.504 -0.83,0.472 -0.437,-0.032 -0.781,-0.198 -0.753,-0.588 0.028,-0.39 0.406,-0.68 0.843,-0.648 0.437,0.032 0.768,0.374 0.74,0.763z"/>
   <path class="fil2" d="M4.195 3.184c-0.217,0.234 -0.338,0.52 -0.363,0.807 -0.284,0.046 -0.561,0.188 -0.778,0.421 -0.491,0.529 -0.49,1.329 0.003,1.787 0.493,0.458 1.291,0.4 1.783,-0.129 0.217,-0.233 0.338,-0.52 0.362,-0.806 0.284,-0.046 0.561,-0.187 0.778,-0.421 0.491,-0.529 0.49,-1.329 -0.003,-1.787 -0.493,-0.458 -1.291,-0.4 -1.782,0.129z"/>
   <path class="fil5" d="M4.559 4.749c0.328,0.305 0.347,0.818 0.042,1.147 -0.305,0.328 -0.818,0.348 -1.147,0.043 -0.328,-0.305 -0.347,-0.819 -0.042,-1.147 0.305,-0.328 0.818,-0.347 1.147,-0.042z"/>
   <path class="fil5" d="M5.747 3.47c0.328,0.305 0.347,0.818 0.042,1.147 -0.305,0.329 -0.819,0.348 -1.147,0.043 -0.328,-0.305 -0.348,-0.819 -0.042,-1.147 0.305,-0.328 0.819,-0.347 1.147,-0.042z"/>
   <path class="fil6" d="M5.464 5.183c0.073,0.067 0.059,0.2 -0.03,0.296 -0.089,0.096 -0.22,0.119 -0.293,0.051 -0.073,-0.068 -0.06,-0.2 0.029,-0.296 0.089,-0.096 0.22,-0.119 0.293,-0.051z"/>
   <polygon class="fil6" points="5.798,5.816 5.824,5.788 5.64,5.643 5.456,5.499 5.613,5.671 5.771,5.844 "/>
   <path class="fil6" d="M5.798 5.816c-0.09,0.097 -0.193,0.167 -0.288,0.202 0.114,0.048 0.271,0.004 0.385,-0.118 0.115,-0.124 0.147,-0.287 0.087,-0.397 -0.026,0.1 -0.089,0.212 -0.183,0.313z"/>
  </g>
  <g id="_1963255607216">
   <path class="fil7" d="M3.987 5.587c0.064,-0.074 0.056,-0.186 -0.017,-0.25 -0.074,-0.064 -0.185,-0.057 -0.25,0.017 -0.004,0.005 -0.008,0.01 -0.011,0.015 -0.001,-0.112 0.037,-0.225 0.116,-0.316 0.172,-0.197 0.47,-0.218 0.667,-0.046 0.197,0.171 0.218,0.47 0.046,0.667 -0.171,0.197 -0.47,0.218 -0.667,0.046 -0.029,-0.025 -0.054,-0.053 -0.075,-0.082 0.066,0.023 0.142,0.005 0.191,-0.051z"/>
   <path class="fil7" d="M5.166 4.237c0.071,-0.067 0.073,-0.18 0.006,-0.25 -0.068,-0.071 -0.179,-0.074 -0.25,-0.006 -0.005,0.004 -0.009,0.009 -0.013,0.014 0.009,-0.112 0.057,-0.221 0.145,-0.304 0.189,-0.18 0.489,-0.173 0.669,0.016 0.18,0.189 0.173,0.488 -0.016,0.669 -0.189,0.18 -0.488,0.173 -0.668,-0.016 -0.026,-0.028 -0.049,-0.058 -0.067,-0.089 0.064,0.029 0.141,0.018 0.195,-0.033z"/>
  </g>
 </g>
</svg>
