<?xml version="1.0" encoding="UTF-8" standalone="no"?>
<svg
   xmlns:dc="http://purl.org/dc/elements/1.1/"
   xmlns:cc="http://creativecommons.org/ns#"
   xmlns:rdf="http://www.w3.org/1999/02/22-rdf-syntax-ns#"
   xmlns:svg="http://www.w3.org/2000/svg"
   xmlns="http://www.w3.org/2000/svg"
   xmlns:sodipodi="http://sodipodi.sourceforge.net/DTD/sodipodi-0.dtd"
   xmlns:inkscape="http://www.inkscape.org/namespaces/inkscape"
   width="41.663612mm"
   height="41.814476mm"
   viewBox="0 0 41.663611 41.814474"
   version="1.1"
   id="svg8"
   inkscape:version="1.0.1 (3bc2e813f5, 2020-09-07)"
   sodipodi:docname="Krest.svg">
  <defs
     id="defs2" />
  <sodipodi:namedview
     id="base"
     pagecolor="#ffffff"
     bordercolor="#666666"
     borderopacity="1.0"
     inkscape:pageopacity="0.0"
     inkscape:pageshadow="2"
     inkscape:zoom="0.7"
     inkscape:cx="12.844924"
     inkscape:cy="48.397918"
     inkscape:document-units="mm"
     inkscape:current-layer="layer1"
     inkscape:document-rotation="0"
     showgrid="false"
     fit-margin-top="0"
     fit-margin-left="0"
     fit-margin-right="0"
     fit-margin-bottom="0"
     inkscape:window-width="1264"
     inkscape:window-height="967"
     inkscape:window-x="0"
     inkscape:window-y="0"
     inkscape:window-maximized="0" />
  <metadata
     id="metadata5">
    <rdf:RDF>
      <cc:Work
         rdf:about="">
        <dc:format>image/svg+xml</dc:format>
        <dc:type
           rdf:resource="http://purl.org/dc/dcmitype/StillImage" />
        <dc:title></dc:title>
      </cc:Work>
    </rdf:RDF>
  </metadata>
  <g
     inkscape:label="Слой 1"
     inkscape:groupmode="layer"
     id="layer1"
     transform="translate(-27.539753,-165.62722)">
    <path
       style="fill:#000000;stroke-width:0.215072"
       id="path26"
       d="" />
    <path
       style="fill:#e22429;stroke-width:0.215072"
       d="m 53.179743,206.93489 c -0.965864,-0.57894 -5.077684,-5.16375 -5.598793,-6.24284 -0.284078,-0.58826 -0.260031,-1.21153 0.234881,-6.08767 0.30325,-2.98778 0.607871,-5.52375 0.676937,-5.6355 0.256509,-0.41504 0.895267,-0.17993 1.639156,0.60333 1.287289,1.35543 5.824269,6.9718 6.134876,7.59442 0.247283,0.4957 0.242958,1.02666 -0.02818,3.45854 -0.496055,4.44926 -0.808672,5.79101 -1.513463,6.4958 -0.45594,0.45594 -0.478933,0.45317 -1.545414,-0.18608 z m -15.435725,-1.65651 c -0.243502,-0.34765 -0.334803,-1.01194 -0.334803,-2.43598 0,-2.53641 0.396535,-6.5098 0.71705,-7.18503 0.251054,-0.5289 7.36272,-6.50946 8.248489,-6.93657 0.784334,-0.3782 1.143426,-0.0777 1.13792,0.9522 -0.0027,0.50644 -0.229344,3.07586 -0.503637,5.70982 -0.580095,5.57051 -0.243929,4.90769 -3.891035,7.67196 -3.621723,2.74502 -4.697102,3.18998 -5.373984,2.2236 z m 22.355289,-8.15853 c -1.064606,-0.10493 -2.196112,-0.29484 -2.514458,-0.42203 -0.543579,-0.21718 -6.429219,-7.17899 -7.038363,-8.32531 -0.41405,-0.77918 -0.152224,-1.11232 0.874224,-1.11232 1.963633,0 10.000191,0.92159 10.614245,1.21719 0.702642,0.33824 3.544139,3.81576 4.73836,5.79896 0.871521,1.4473 0.952264,2.27813 0.267976,2.75743 -0.543324,0.38056 -3.573077,0.41813 -6.941984,0.0861 z m -26.23878,-2.669 c -3.420692,-0.41133 -4.915899,-0.72361 -5.674969,-1.18523 -0.74225,-0.45139 -0.818189,-0.7985 -0.363362,-1.6609 0.580626,-1.10094 5.790344,-5.75261 6.697824,-5.98037 0.259913,-0.0652 2.86927,0.12432 5.798571,0.42124 5.641357,0.57182 6.186448,0.72367 5.720828,1.59368 -0.303405,0.56692 -7.776929,6.64984 -8.514642,6.93031 -0.661332,0.25144 -0.558022,0.25479 -3.66425,-0.11873 z m 22.236018,-7.5151 c -2.556389,-0.26836 -4.85497,-0.55362 -5.107959,-0.63391 -0.709052,-0.22505 -0.549643,-0.84078 0.454733,-1.75643 1.663375,-1.51644 7.284812,-5.99259 7.739137,-6.1624 0.995329,-0.37203 8.266979,0.68465 9.383303,1.36353 0.841637,0.51183 0.848298,0.97156 0.03043,2.10059 -0.724986,1.00081 -5.433245,5.12499 -6.198862,5.42986 -0.628191,0.25015 -0.708695,0.24579 -6.300785,-0.34124 z m -16.859219,-1.71817 c -2.365791,-0.26495 -4.463785,-0.55049 -4.662208,-0.63454 -0.198423,-0.0841 -1.125925,-1.13719 -2.061114,-2.3403 -3.495758,-4.49723 -4.03342,-5.75284 -2.719726,-6.3514 1.002293,-0.45667 7.888852,-0.14201 9.36419,0.42788 0.498823,0.19268 5.864921,6.52242 6.94921,8.19714 0.911699,1.40815 0.142899,1.48662 -6.870352,0.70122 z m 9.929157,-0.89671 c -0.245754,-0.24575 -0.143036,-2.16272 0.370117,-6.90737 0.575146,-5.31782 0.297301,-4.7757 3.841624,-7.49545 4.762339,-3.6544 5.753259,-3.60559 5.753259,0.28334 0,2.40318 -0.368936,6.1927 -0.681477,6.99976 -0.210736,0.54417 -1.496462,1.6719 -6.502939,5.70383 -1.805697,1.45421 -2.42627,1.77021 -2.780584,1.41589 z m -2.858158,-0.9864 c -1.522122,-1.66961 -5.992895,-7.28562 -6.163673,-7.74257 -0.319826,-0.85574 0.653876,-8.05369 1.243777,-9.19443 0.483965,-0.93589 1.07699,-1.01101 2.119551,-0.26851 1.318477,0.93901 5.485761,5.83596 5.62838,6.61387 0.123335,0.67273 -0.835962,10.47218 -1.089545,11.12998 -0.239361,0.6209 -0.855626,0.43007 -1.73849,-0.53834 z"
       id="path180" />
  </g>
</svg>
