<?xml version="1.0" encoding="UTF-8" standalone="no"?>
<svg
   xmlns:dc="http://purl.org/dc/elements/1.1/"
   xmlns:cc="http://creativecommons.org/ns#"
   xmlns:rdf="http://www.w3.org/1999/02/22-rdf-syntax-ns#"
   xmlns:svg="http://www.w3.org/2000/svg"
   xmlns="http://www.w3.org/2000/svg"
   xmlns:sodipodi="http://sodipodi.sourceforge.net/DTD/sodipodi-0.dtd"
   xmlns:inkscape="http://www.inkscape.org/namespaces/inkscape"
   width="40.254166mm"
   height="40.392338mm"
   viewBox="0 0 40.254164 40.392336"
   version="1.1"
   id="svg8"
   inkscape:version="1.0.1 (3bc2e813f5, 2020-09-07)"
   sodipodi:docname="Krest.svg">
  <defs
     id="defs2" />
  <sodipodi:namedview
     id="base"
     pagecolor="#ffffff"
     bordercolor="#666666"
     borderopacity="1.0"
     inkscape:pageopacity="0.0"
     inkscape:pageshadow="2"
     inkscape:zoom="2.8"
     inkscape:cx="64.86822"
     inkscape:cy="78.264819"
     inkscape:document-units="mm"
     inkscape:current-layer="layer1"
     inkscape:document-rotation="0"
     showgrid="false"
     fit-margin-top="0"
     fit-margin-left="0"
     fit-margin-right="0"
     fit-margin-bottom="0"
     inkscape:window-width="1264"
     inkscape:window-height="967"
     inkscape:window-x="0"
     inkscape:window-y="0"
     inkscape:window-maximized="0" />
  <metadata
     id="metadata5">
    <rdf:RDF>
      <cc:Work
         rdf:about="">
        <dc:format>image/svg+xml</dc:format>
        <dc:type
           rdf:resource="http://purl.org/dc/dcmitype/StillImage" />
        <dc:title></dc:title>
      </cc:Work>
    </rdf:RDF>
  </metadata>
  <g
     inkscape:label="Слой 1"
     inkscape:groupmode="layer"
     id="layer1"
     transform="translate(-28.213412,-166.32141)">
    <path
       style="fill:#000000;stroke-width:0.215072"
       id="path26"
       d="" />
    <path
       style="fill:#e22429;stroke-width:0.215072"
       d="m 55.293591,206.31783 c -1.021275,-0.47441 -5.591433,-4.60251 -6.222882,-5.62097 -0.34423,-0.55521 -0.385708,-1.17756 -0.405125,-6.07871 -0.0119,-3.00311 0.02497,-5.55704 0.08193,-5.67542 0.211548,-0.43966 0.871448,-0.27287 1.69341,0.42802 1.422394,1.21289 6.523596,6.32225 6.897813,6.90884 0.297926,0.46702 0.349333,0.9955 0.334841,3.44241 -0.02651,4.47675 -0.196625,5.84389 -0.82358,6.61874 -0.405587,0.50126 -0.428744,0.50092 -1.556408,-0.0229 z m -15.524331,-0.0279 c -0.278633,-0.32019 -0.439126,-0.97123 -0.588535,-2.38741 -0.266116,-2.52241 -0.288653,-6.51548 -0.04075,-7.22061 0.194177,-0.55232 6.639121,-7.24602 7.475189,-7.7637 0.740325,-0.45841 1.128963,-0.19724 1.231543,0.82755 0.05045,0.50393 0.09464,3.08295 0.09821,5.73115 0.0076,5.60063 0.272326,4.90619 -3.064628,8.03786 -3.31373,3.10985 -4.33649,3.66518 -5.111027,2.77516 z m 21.375924,-10.45899 c -1.069739,0.007 -2.214925,-0.0628 -2.544859,-0.15589 -0.563365,-0.15895 -7.146944,-6.46482 -7.872997,-7.5409 -0.493515,-0.73144 -0.268087,-1.09021 0.752696,-1.19791 1.952796,-0.20602 10.04169,-0.1327 10.683369,0.0968 0.734252,0.26266 3.924923,3.42286 5.320627,5.26981 1.01856,1.34788 1.186027,2.16565 0.555803,2.7141 -0.500398,0.43546 -3.509487,0.7907 -6.894637,0.81397 z m -26.373991,0.0987 c -3.444968,-0.0502 -4.964687,-0.20385 -5.768,-0.58328 -0.785513,-0.37103 -0.897451,-0.70825 -0.535616,-1.61361 0.461912,-1.15579 5.15483,-6.32838 6.033405,-6.65009 0.251638,-0.0921 2.866478,-0.17741 5.810764,-0.18947 5.670216,-0.0232 6.22823,0.0706 5.85646,0.98467 -0.24225,0.59562 -7.036314,7.42908 -7.740529,7.7854 -0.631302,0.31944 -0.52821,0.31193 -3.656484,0.26638 z m 21.32482,-9.8066 c -2.570436,0.001 -4.88626,-0.0412 -5.146277,-0.0945 -0.72875,-0.14942 -0.634822,-0.77847 0.267941,-1.79445 1.495092,-1.68259 6.615872,-6.72383 7.049873,-6.94036 0.950803,-0.47441 8.293185,-0.18649 9.474575,0.37152 0.890692,0.4207 0.945551,0.87719 0.250653,2.0858 -0.615981,1.07135 -4.865551,5.66675 -5.594956,6.05027 -0.598479,0.31468 -0.678996,0.31879 -6.301812,0.32171 z m -16.946438,0.0602 c -2.380532,-0.0153 -4.496905,-0.0791 -4.703052,-0.14189 -0.206151,-0.0628 -1.239023,-1.01278 -2.295279,-2.11113 -3.948307,-4.10564 -4.614739,-5.29791 -3.371095,-6.031 0.948848,-0.5593 7.830412,-0.96891 9.357399,-0.55696 0.516286,0.13929 6.516875,5.87109 7.770889,7.4228 1.054408,1.30473 0.298084,1.46342 -6.758862,1.41818 z m 9.780274,-1.93352 c -0.270181,-0.2186 -0.369156,-2.13577 -0.356637,-6.90807 0.01403,-5.34882 -0.2054,-4.78054 3.034009,-7.85714 4.35264,-4.13389 5.343212,-4.18932 5.751233,-0.32185 0.252139,2.38992 0.28283,6.19723 0.05669,7.03263 -0.15248,0.56327 -1.31279,1.81967 -5.86861,6.35462 -1.643158,1.63564 -2.227151,2.01501 -2.616685,1.69981 z m -2.945875,-0.68108 c -1.688894,-1.50069 -6.724216,-6.61664 -6.941994,-7.05315 -0.407844,-0.81746 -0.194715,-8.07784 0.272246,-9.27418 0.383101,-0.9815 0.964972,-1.11843 2.079681,-0.48941 1.409719,0.7955 6.067785,5.22819 6.291234,5.98685 0.193236,0.65607 0.267378,10.50209 0.08421,11.18286 -0.172896,0.64259 -0.805781,0.51747 -1.785377,-0.35297 z"
       id="path180" />
  </g>
</svg>
