<?xml version="1.0" encoding="UTF-8"?>
<!DOCTYPE svg PUBLIC "-//W3C//DTD SVG 1.1//EN" "http://www.w3.org/Graphics/SVG/1.1/DTD/svg11.dtd">
<!-- Creator: CorelDRAW 2019 (64-Bit) -->
<svg xmlns="http://www.w3.org/2000/svg" xml:space="preserve" width="1.28173cm" height="0.1996cm" version="1.1" style="shape-rendering:geometricPrecision; text-rendering:geometricPrecision; image-rendering:optimizeQuality; fill-rule:evenodd; clip-rule:evenodd"
viewBox="0 0 0.564 0.088"
 xmlns:xlink="http://www.w3.org/1999/xlink"
 xmlns:xodm="http://www.corel.com/coreldraw/odm/2003">
 <defs>
  <style type="text/css">
   <![CDATA[
    .fil0 {fill:#66654B;fill-rule:nonzero}
   ]]>
  </style>
 </defs>
 <g id="Слой_x0020_1">
  <metadata id="CorelCorpID_0Corel-Layer"/>
  <path class="fil0" d="M-0 0.002l0.009 0 0 0.029c0.004,0 0.007,-0.001 0.008,-0.002 0.002,-0.002 0.004,-0.005 0.006,-0.011 0.002,-0.004 0.003,-0.007 0.005,-0.009 0.001,-0.002 0.003,-0.003 0.005,-0.005 0.002,-0.001 0.005,-0.002 0.007,-0.002 0.003,0 0.005,0 0.005,0l0 0.008c-0,0 -0.001,-0 -0.002,-0 -0.001,-0 -0.002,-0 -0.002,-0 -0.003,0 -0.005,0.001 -0.006,0.002 -0.001,0.001 -0.003,0.004 -0.005,0.009 -0.002,0.006 -0.004,0.009 -0.006,0.011 -0.002,0.001 -0.003,0.003 -0.006,0.004 0.004,0.001 0.009,0.005 0.013,0.012l0.014 0.022 -0.011 0 -0.011 -0.018c-0.003,-0.005 -0.006,-0.008 -0.008,-0.01 -0.002,-0.002 -0.005,-0.003 -0.008,-0.003l0 0.031 -0.009 0 0 -0.067z"/>
  <path id="1" class="fil0" d="M0.053 0.087l-0.001 -0.008c0.002,0 0.003,0.001 0.005,0.001 0.002,0 0.003,-0 0.004,-0.001 0.001,-0.001 0.002,-0.001 0.003,-0.003 0.001,-0.001 0.001,-0.003 0.002,-0.006 0,-0 0,-0.001 0.001,-0.002l-0.018 -0.048 0.009 0 0.01 0.028c0.001,0.004 0.002,0.007 0.004,0.011 0.001,-0.004 0.002,-0.007 0.003,-0.011l0.01 -0.028 0.008 0 -0.018 0.049c-0.002,0.005 -0.004,0.009 -0.005,0.011 -0.001,0.003 -0.003,0.005 -0.005,0.006 -0.002,0.001 -0.004,0.002 -0.007,0.002 -0.002,0 -0.003,-0 -0.005,-0.001z"/>
  <path id="2" class="fil0" d="M0.11 0.046l0 -0.006c0.003,-0 0.006,-0 0.007,-0 0.001,-0 0.002,-0.001 0.004,-0.002 0.001,-0.001 0.002,-0.003 0.002,-0.005 0,-0.002 -0.001,-0.004 -0.002,-0.005 -0.001,-0.001 -0.003,-0.002 -0.006,-0.002 -0.005,0 -0.008,0.003 -0.01,0.008l-0.008 -0.001c0.002,-0.009 0.008,-0.014 0.018,-0.014 0.005,0 0.009,0.001 0.012,0.004 0.003,0.003 0.004,0.006 0.004,0.01 0,0.004 -0.002,0.007 -0.006,0.009 0.002,0.001 0.004,0.003 0.005,0.005 0.001,0.002 0.002,0.004 0.002,0.007 0,0.004 -0.002,0.008 -0.005,0.011 -0.003,0.003 -0.008,0.004 -0.013,0.004 -0.011,0 -0.017,-0.005 -0.019,-0.015l0.008 -0.002c0.001,0.003 0.002,0.005 0.004,0.007 0.002,0.002 0.005,0.003 0.007,0.003 0.003,0 0.005,-0.001 0.007,-0.002 0.002,-0.002 0.003,-0.004 0.003,-0.006 0,-0.002 -0.001,-0.004 -0.002,-0.005 -0.001,-0.001 -0.002,-0.002 -0.004,-0.003 -0.001,-0 -0.004,-0.001 -0.007,-0.001 -0,0 -0.001,0 -0.002,0z"/>
  <path id="3" class="fil0" d="M0.174 0.053l0.008 0.001c-0.001,0.005 -0.004,0.009 -0.007,0.011 -0.004,0.003 -0.008,0.004 -0.014,0.004 -0.007,0 -0.013,-0.002 -0.017,-0.007 -0.004,-0.004 -0.006,-0.01 -0.006,-0.018 0,-0.008 0.002,-0.014 0.006,-0.019 0.004,-0.004 0.01,-0.007 0.016,-0.007 0.006,0 0.012,0.002 0.016,0.007 0.004,0.004 0.006,0.011 0.006,0.019 0,0 -0,0.001 -0,0.002l-0.036 0c0,0.005 0.002,0.009 0.004,0.012 0.003,0.003 0.006,0.004 0.01,0.004 0.003,0 0.006,-0.001 0.008,-0.002 0.002,-0.002 0.004,-0.004 0.005,-0.008zm-0.027 -0.013l0.027 0c-0,-0.004 -0.001,-0.007 -0.003,-0.009 -0.003,-0.003 -0.006,-0.005 -0.01,-0.005 -0.004,0 -0.007,0.001 -0.009,0.004 -0.003,0.003 -0.004,0.006 -0.004,0.01z"/>
  <path id="4" class="fil0" d="M0.227 0l0.007 0c-0,0.003 -0.001,0.006 -0.002,0.007 -0.001,0.001 -0.003,0.002 -0.004,0.002 -0.002,0 -0.005,0.001 -0.01,0.001 -0.007,0 -0.011,0.001 -0.014,0.002 -0.002,0.001 -0.004,0.003 -0.005,0.006 -0.001,0.003 -0.002,0.007 -0.002,0.011 0.002,-0.003 0.004,-0.005 0.007,-0.007 0.003,-0.002 0.006,-0.002 0.009,-0.002 0.006,0 0.012,0.002 0.016,0.007 0.004,0.004 0.006,0.01 0.006,0.018 0,0.006 -0.001,0.01 -0.003,0.014 -0.002,0.004 -0.005,0.006 -0.007,0.008 -0.003,0.002 -0.007,0.003 -0.012,0.003 -0.006,0 -0.01,-0.001 -0.013,-0.004 -0.003,-0.003 -0.006,-0.006 -0.007,-0.01 -0.002,-0.004 -0.003,-0.011 -0.003,-0.021 0,-0.013 0.002,-0.021 0.006,-0.026 0.004,-0.004 0.011,-0.007 0.02,-0.007 0.006,0 0.009,-0 0.009,-0 0.001,-0 0.001,-0.001 0.001,-0.001zm-0 0.044c0,-0.005 -0.001,-0.009 -0.004,-0.012 -0.002,-0.003 -0.006,-0.005 -0.01,-0.005 -0.005,0 -0.008,0.002 -0.01,0.005 -0.002,0.003 -0.004,0.008 -0.004,0.014 0,0.006 0.001,0.01 0.004,0.013 0.003,0.003 0.006,0.004 0.01,0.004 0.004,0 0.007,-0.002 0.01,-0.005 0.003,-0.003 0.004,-0.008 0.004,-0.014z"/>
  <path id="5" class="fil0" d="M0.275 0.062c-0.003,0.003 -0.006,0.004 -0.009,0.005 -0.003,0.001 -0.006,0.002 -0.009,0.002 -0.005,0 -0.009,-0.001 -0.012,-0.004 -0.003,-0.003 -0.004,-0.006 -0.004,-0.01 0,-0.002 0.001,-0.005 0.002,-0.006 0.001,-0.002 0.002,-0.004 0.004,-0.005 0.002,-0.001 0.004,-0.002 0.006,-0.003 0.002,-0 0.004,-0.001 0.007,-0.001 0.007,-0.001 0.011,-0.002 0.015,-0.003 0,-0.001 0,-0.002 0,-0.002 0,-0.003 -0.001,-0.006 -0.002,-0.007 -0.002,-0.002 -0.005,-0.003 -0.009,-0.003 -0.004,0 -0.007,0.001 -0.009,0.002 -0.002,0.001 -0.003,0.004 -0.004,0.007l-0.008 -0.001c0.001,-0.003 0.002,-0.006 0.004,-0.008 0.002,-0.002 0.004,-0.004 0.007,-0.005 0.003,-0.001 0.007,-0.002 0.011,-0.002 0.004,0 0.007,0 0.01,0.001 0.003,0.001 0.004,0.002 0.006,0.004 0.001,0.001 0.002,0.003 0.003,0.006 0,0.001 0,0.004 0,0.008l0 0.011c0,0.008 0,0.012 0.001,0.014 0,0.002 0.001,0.004 0.002,0.006l-0.009 0c-0.001,-0.002 -0.001,-0.004 -0.002,-0.006zm-0.001 -0.018c-0.003,0.001 -0.007,0.002 -0.013,0.003 -0.003,0 -0.006,0.001 -0.007,0.002 -0.001,0.001 -0.002,0.001 -0.003,0.003 -0.001,0.001 -0.001,0.002 -0.001,0.004 0,0.002 0.001,0.004 0.002,0.005 0.002,0.001 0.004,0.002 0.007,0.002 0.003,0 0.006,-0.001 0.008,-0.002 0.002,-0.001 0.004,-0.003 0.005,-0.006 0.001,-0.002 0.001,-0.005 0.001,-0.008l0 -0.003z"/>
  <path id="6" class="fil0" d="M0.295 0.02l0.008 0 0 0.037 0.023 -0.037 0.009 0 0 0.048 -0.008 0 0 -0.037 -0.023 0.037 -0.009 0 0 -0.048zm0.028 -0.018l0.006 0c-0,0.004 -0.002,0.007 -0.004,0.009 -0.002,0.002 -0.005,0.003 -0.009,0.003 -0.004,0 -0.007,-0.001 -0.009,-0.003 -0.002,-0.002 -0.004,-0.005 -0.004,-0.009l0.006 0c0,0.002 0.001,0.004 0.003,0.005 0.001,0.001 0.003,0.002 0.005,0.002 0.002,0 0.004,-0 0.006,-0.002 0.001,-0.001 0.002,-0.003 0.003,-0.005z"/>
  <polygon id="7" class="fil0" points="0.374,0.002 0.417,0.002 0.417,0.009 0.383,0.009 0.383,0.068 0.374,0.068 "/>
  <path id="8" class="fil0" d="M0.45 0.053l0.008 0.001c-0.001,0.005 -0.004,0.009 -0.007,0.011 -0.004,0.003 -0.008,0.004 -0.014,0.004 -0.007,0 -0.013,-0.002 -0.017,-0.007 -0.004,-0.004 -0.006,-0.01 -0.006,-0.018 0,-0.008 0.002,-0.014 0.006,-0.019 0.004,-0.004 0.01,-0.007 0.016,-0.007 0.006,0 0.012,0.002 0.016,0.007 0.004,0.004 0.006,0.011 0.006,0.019 0,0 -0,0.001 -0,0.002l-0.036 0c0,0.005 0.002,0.009 0.004,0.012 0.003,0.003 0.006,0.004 0.01,0.004 0.003,0 0.006,-0.001 0.008,-0.002 0.002,-0.002 0.004,-0.004 0.005,-0.008zm-0.027 -0.013l0.027 0c-0,-0.004 -0.001,-0.007 -0.003,-0.009 -0.003,-0.003 -0.006,-0.005 -0.01,-0.005 -0.004,0 -0.007,0.001 -0.009,0.004 -0.003,0.003 -0.004,0.006 -0.004,0.01z"/>
  <path id="9" class="fil0" d="M0.469 0.087l0 -0.067 0.007 0 0 0.006c0.002,-0.002 0.004,-0.004 0.006,-0.006 0.002,-0.001 0.005,-0.002 0.008,-0.002 0.004,0 0.008,0.001 0.011,0.003 0.003,0.002 0.006,0.005 0.007,0.009 0.002,0.004 0.002,0.008 0.002,0.013 0,0.005 -0.001,0.009 -0.003,0.013 -0.002,0.004 -0.004,0.007 -0.008,0.009 -0.003,0.002 -0.007,0.003 -0.011,0.003 -0.003,0 -0.005,-0.001 -0.007,-0.002 -0.002,-0.001 -0.004,-0.003 -0.005,-0.004l0 0.024 -0.008 0zm0.007 -0.042c0,0.006 0.001,0.011 0.004,0.014 0.003,0.003 0.006,0.004 0.009,0.004 0.004,0 0.007,-0.002 0.009,-0.005 0.003,-0.003 0.004,-0.008 0.004,-0.014 0,-0.006 -0.001,-0.011 -0.004,-0.014 -0.003,-0.003 -0.006,-0.005 -0.009,-0.005 -0.003,0 -0.007,0.002 -0.009,0.005 -0.003,0.003 -0.004,0.008 -0.004,0.014z"/>
  <path id="10" class="fil0" d="M0.525 0.02l0.034 0 0 0.042 0.005 0 0 0.02 -0.007 0 0 -0.014 -0.038 0 0 0.014 -0.007 0 0 -0.02 0.004 0c0.006,-0.008 0.009,-0.022 0.008,-0.042zm0.007 0.007c-0.001,0.016 -0.003,0.027 -0.007,0.035l0.026 0 0 -0.035 -0.019 0z"/>
 </g>
</svg>
