<?xml version="1.0" encoding="UTF-8"?>
<!DOCTYPE svg PUBLIC "-//W3C//DTD SVG 1.1//EN" "http://www.w3.org/Graphics/SVG/1.1/DTD/svg11.dtd">
<!-- Creator: CorelDRAW 2019 (64-Bit) -->
<svg xmlns="http://www.w3.org/2000/svg" xml:space="preserve" width="1.97835cm" height="0.508cm" version="1.1" style="shape-rendering:geometricPrecision; text-rendering:geometricPrecision; image-rendering:optimizeQuality; fill-rule:evenodd; clip-rule:evenodd"
viewBox="0 0 1.788 0.459"
 xmlns:xlink="http://www.w3.org/1999/xlink"
 xmlns:xodm="http://www.corel.com/coreldraw/odm/2003">
 <defs>
  <style type="text/css">
   <![CDATA[
    .fil0 {fill:#9C6921;fill-rule:nonzero}
   ]]>
  </style>
 </defs>
 <g id="Слой_x0020_1">
  <metadata id="CorelCorpID_0Corel-Layer"/>
  <path class="fil0" d="M0.357 0l0 0.023 -0.032 0c-0.007,0 -0.012,0.002 -0.015,0.006 -0.003,0.004 -0.005,0.01 -0.005,0.018l0 0.263c0,0.009 0.002,0.015 0.005,0.019 0.004,0.003 0.01,0.005 0.021,0.005l0.026 0 0 0.023 -0.158 0 0 -0.023 0.026 0c0.01,0 0.017,-0.002 0.021,-0.005 0.004,-0.003 0.005,-0.01 0.005,-0.019l0 -0.286 -0.054 0c-0.014,0 -0.024,0.002 -0.03,0.006 -0.006,0.004 -0.01,0.01 -0.012,0.02 -0.001,0.004 -0.002,0.024 -0.004,0.059 -0.002,0.035 -0.004,0.068 -0.007,0.098 -0.005,0.061 -0.014,0.103 -0.027,0.126 -0.013,0.023 -0.033,0.034 -0.059,0.034 -0.018,0 -0.033,-0.006 -0.043,-0.018 -0.011,-0.012 -0.016,-0.028 -0.016,-0.049 0,-0.016 0.004,-0.03 0.012,-0.04 0.008,-0.01 0.019,-0.015 0.032,-0.015 0.01,0 0.018,0.003 0.024,0.01 0.006,0.007 0.01,0.015 0.01,0.024 0,0.008 -0.002,0.014 -0.005,0.019 -0.003,0.005 -0.008,0.008 -0.015,0.01 -0.002,0 -0.004,0.001 -0.007,0.002 -0.009,0.002 -0.014,0.006 -0.014,0.012 0,0.006 0.002,0.011 0.007,0.015 0.005,0.004 0.011,0.006 0.018,0.006 0.013,0 0.023,-0.006 0.031,-0.017 0.008,-0.012 0.014,-0.03 0.018,-0.055 0.002,-0.01 0.003,-0.024 0.005,-0.041 0.002,-0.017 0.003,-0.036 0.005,-0.058 0.002,-0.023 0.003,-0.045 0.004,-0.064 0.001,-0.019 0.001,-0.033 0.001,-0.04 0,-0.017 -0.002,-0.029 -0.007,-0.034 -0.005,-0.006 -0.014,-0.008 -0.028,-0.008l-0.017 0 0 -0.023 0.282 0zm0.134 0.351l-0.079 -0.181c-0.003,-0.008 -0.008,-0.013 -0.013,-0.017 -0.005,-0.003 -0.013,-0.005 -0.022,-0.005l-0.003 0 0 -0.021 0.115 0 0 0.021 -0.013 0 -0.006 0c-0.004,0 -0.007,0.001 -0.009,0.003 -0.002,0.002 -0.003,0.004 -0.003,0.008 0,0.001 0,0.003 0.001,0.006 0.001,0.003 0.002,0.006 0.004,0.009l0.052 0.121 0.049 -0.118c0.001,-0.002 0.001,-0.003 0.002,-0.005 0,-0.002 0.001,-0.004 0.001,-0.006 0,-0.006 -0.002,-0.011 -0.006,-0.013 -0.004,-0.002 -0.014,-0.004 -0.028,-0.004l-0 -0.021 0.096 0 0 0.021c-0.009,0 -0.017,0.002 -0.022,0.006 -0.006,0.004 -0.011,0.011 -0.015,0.02l-0.083 0.194c-0.014,0.033 -0.029,0.056 -0.043,0.069 -0.015,0.014 -0.032,0.02 -0.052,0.02 -0.014,0 -0.025,-0.003 -0.033,-0.01 -0.008,-0.007 -0.012,-0.016 -0.012,-0.028 0,-0.008 0.003,-0.015 0.009,-0.021 0.006,-0.006 0.013,-0.009 0.021,-0.009 0.008,0 0.014,0.002 0.019,0.007 0.005,0.005 0.007,0.011 0.007,0.019 0,0.003 -0.001,0.005 -0.002,0.008 -0.001,0.003 -0.002,0.004 -0.002,0.005 0,0.002 0.001,0.003 0.002,0.004 0.002,0.001 0.004,0.001 0.006,0.001 0.009,0 0.019,-0.007 0.03,-0.021 0.011,-0.014 0.022,-0.033 0.031,-0.056l0.003 -0.008zm0.204 -0.015l0.102 0 0 -0.187 -0.025 0c-0.015,0 -0.025,0.003 -0.03,0.008 -0.005,0.005 -0.009,0.021 -0.012,0.046 -0.003,0.031 -0.008,0.057 -0.014,0.078 -0.006,0.021 -0.013,0.039 -0.022,0.055zm0.187 -0.208l0 0.021 -0.023 0c-0.007,0 -0.011,0.002 -0.013,0.004 -0.002,0.002 -0.003,0.007 -0.003,0.014l0 0.149c0,0.007 0.001,0.012 0.003,0.014 0.002,0.002 0.006,0.004 0.013,0.004l0.023 0.001 0 0.088 -0.018 0c-0.003,-0.026 -0.009,-0.044 -0.019,-0.054 -0.01,-0.009 -0.034,-0.014 -0.072,-0.014l-0.035 0c-0.033,0 -0.055,0.005 -0.064,0.014 -0.01,0.009 -0.016,0.027 -0.019,0.054l-0.019 0 0 -0.088 0.006 0c0.012,0 0.021,-0.002 0.028,-0.007 0.007,-0.005 0.013,-0.014 0.019,-0.027 0.007,-0.015 0.012,-0.035 0.017,-0.059 0.005,-0.024 0.007,-0.045 0.007,-0.064 0,-0.012 -0.001,-0.019 -0.004,-0.023 -0.003,-0.004 -0.009,-0.005 -0.019,-0.006l-0.019 -0 0 -0.021 0.211 0zm0.167 0.229l0 -0.021 0.023 -0.001c0.007,-0 0.012,-0.002 0.014,-0.004 0.002,-0.002 0.003,-0.007 0.003,-0.014l0 -0.149c0,-0.007 -0.001,-0.012 -0.003,-0.014 -0.002,-0.002 -0.007,-0.004 -0.013,-0.004l-0.023 -0.001 0 -0.021 0.124 0 0 0.021 -0.023 0.001c-0.007,0 -0.011,0.002 -0.013,0.004 -0.002,0.002 -0.003,0.007 -0.003,0.014l0 0.06 0.015 0c0.015,0 0.026,-0.003 0.033,-0.008 0.007,-0.005 0.012,-0.015 0.015,-0.029 0.001,-0.004 0.002,-0.009 0.003,-0.017 0.007,-0.037 0.023,-0.055 0.047,-0.055 0.012,0 0.022,0.003 0.03,0.01 0.008,0.007 0.012,0.016 0.012,0.026 0,0.008 -0.002,0.015 -0.007,0.02 -0.005,0.005 -0.011,0.007 -0.019,0.007 -0.007,0 -0.013,-0.002 -0.017,-0.005 -0.004,-0.004 -0.006,-0.008 -0.006,-0.015 0,-0.004 0.002,-0.009 0.005,-0.013 0.003,-0.004 0.005,-0.007 0.005,-0.008 0,-0.001 -0.001,-0.002 -0.002,-0.003 -0.001,-0.001 -0.003,-0.001 -0.005,-0.001 -0.011,0 -0.019,0.013 -0.024,0.038l0 0 -0 0.001c-0.006,0.031 -0.016,0.05 -0.031,0.057 0.015,0.002 0.026,0.006 0.034,0.013 0.008,0.006 0.014,0.015 0.018,0.028 0.002,0.008 0.005,0.018 0.007,0.032 0.003,0.021 0.009,0.032 0.017,0.032 0.005,0 0.009,-0.002 0.011,-0.006 0.002,-0.004 0.003,-0.011 0.003,-0.02l0 -0.006 0.015 0c0,0.002 0,0.003 0,0.005 0,0.002 0,0.002 0,0.002 0,0.017 -0.004,0.03 -0.011,0.038 -0.007,0.008 -0.018,0.013 -0.032,0.013 -0.025,0 -0.041,-0.02 -0.047,-0.061 -0.001,-0.007 -0.002,-0.012 -0.002,-0.016 -0.003,-0.017 -0.007,-0.028 -0.013,-0.033 -0.006,-0.006 -0.016,-0.009 -0.03,-0.009l-0.004 0 -0.02 0 0 0.071c0,0.007 0.001,0.012 0.003,0.014 0.002,0.002 0.007,0.004 0.014,0.004l0.023 0.001 0 0.021 -0.124 0zm0.41 -0.132c0.007,0 0.011,-0.001 0.014,-0.003 0.002,-0.002 0.004,-0.006 0.004,-0.012 0,-0.022 -0.005,-0.039 -0.013,-0.051 -0.009,-0.012 -0.022,-0.018 -0.039,-0.018 -0.019,0 -0.033,0.007 -0.042,0.021 -0.009,0.014 -0.014,0.035 -0.015,0.064l0.092 0zm0.051 0.06l0.017 0.01c-0.011,0.023 -0.025,0.04 -0.042,0.052 -0.017,0.012 -0.038,0.017 -0.062,0.017 -0.032,0 -0.058,-0.011 -0.077,-0.034 -0.02,-0.023 -0.03,-0.052 -0.03,-0.088 0,-0.036 0.01,-0.066 0.03,-0.088 0.02,-0.023 0.046,-0.034 0.077,-0.034 0.032,0 0.057,0.01 0.076,0.031 0.019,0.021 0.028,0.049 0.028,0.085 0,0.001 -0,0.003 -0,0.005 -0,0.002 -0,0.004 -0,0.005l-0.161 0c0,0.001 -0,0.003 -0,0.005 -0,0.002 -0,0.004 -0,0.004 0,0.025 0.006,0.046 0.018,0.061 0.012,0.015 0.028,0.022 0.048,0.022 0.017,0 0.032,-0.004 0.045,-0.013 0.013,-0.009 0.024,-0.022 0.033,-0.04zm0.278 0.051l0 0.021 -0.115 0 0 -0.021 0.018 -0.001c0.007,-0 0.011,-0.002 0.013,-0.004 0.002,-0.002 0.003,-0.007 0.003,-0.014l0 -0.062c-0.013,0.004 -0.025,0.007 -0.037,0.009 -0.012,0.002 -0.023,0.003 -0.034,0.003 -0.022,0 -0.039,-0.004 -0.051,-0.013 -0.011,-0.009 -0.017,-0.021 -0.017,-0.038l0 -0.047c0,-0.007 -0.001,-0.012 -0.003,-0.014 -0.002,-0.002 -0.007,-0.004 -0.013,-0.004l-0.018 -0.001 0 -0.021 0.115 0 0 0.021 -0.019 0.001c-0.007,0 -0.011,0.001 -0.013,0.004 -0.002,0.002 -0.003,0.007 -0.003,0.015l0 0.041c0,0.013 0.003,0.022 0.009,0.027 0.006,0.005 0.016,0.008 0.03,0.008 0.008,0 0.016,-0.001 0.026,-0.003 0.01,-0.002 0.019,-0.004 0.029,-0.007l0 -0.065c0,-0.007 -0.001,-0.012 -0.003,-0.014 -0.002,-0.002 -0.006,-0.004 -0.013,-0.004l-0.018 -0.001 0 -0.021 0.115 0 0 0.021 -0.018 0.001c-0.007,0 -0.011,0.002 -0.013,0.004 -0.002,0.002 -0.003,0.007 -0.003,0.015l0 0.149c0,0.008 0.001,0.012 0.003,0.015 0.002,0.002 0.006,0.003 0.014,0.004l0.018 0.001z"/>
 </g>
</svg>
