<?xml version="1.0" encoding="UTF-8"?>
<!DOCTYPE svg PUBLIC "-//W3C//DTD SVG 1.1//EN" "http://www.w3.org/Graphics/SVG/1.1/DTD/svg11.dtd">
<!-- Creator: CorelDRAW 2019 (64-Bit) -->
<svg xmlns="http://www.w3.org/2000/svg" xml:space="preserve" width="1.36439cm" height="0.508cm" version="1.1" style="shape-rendering:geometricPrecision; text-rendering:geometricPrecision; image-rendering:optimizeQuality; fill-rule:evenodd; clip-rule:evenodd"
viewBox="0 0 0.692 0.258"
 xmlns:xlink="http://www.w3.org/1999/xlink"
 xmlns:xodm="http://www.corel.com/coreldraw/odm/2003">
 <defs>
  <style type="text/css">
   <![CDATA[
    .fil0 {fill:#999933;fill-rule:nonzero}
   ]]>
  </style>
 </defs>
 <g id="Слой_x0020_1">
  <metadata id="CorelCorpID_0Corel-Layer"/>
  <path class="fil0" d="M0.002 0l0.069 0 0.054 0.153 0.052 -0.153 0.068 0 0 0.013 -0.018 0c-0.004,0 -0.007,0.001 -0.008,0.003 -0.002,0.002 -0.003,0.005 -0.003,0.01l0 0.147c0,0.005 0.001,0.009 0.003,0.011 0.002,0.002 0.006,0.003 0.011,0.003l0.015 0 0 0.013 -0.09 0 0 -0.013 0.017 0c0.006,0 0.01,-0.001 0.012,-0.003 0.002,-0.002 0.003,-0.005 0.003,-0.011l0 -0.156 -0.062 0.182 -0.011 0 -0.066 -0.182 0 0.138c0,0.012 0.002,0.02 0.007,0.025 0.005,0.005 0.013,0.007 0.026,0.007l0 0.012 -0.08 0 0 -0.012c0.013,-0 0.021,-0.003 0.026,-0.007 0.005,-0.005 0.007,-0.014 0.007,-0.027l0 -0.001 0 -0.126c0,-0.005 -0.001,-0.009 -0.003,-0.011 -0.002,-0.002 -0.006,-0.003 -0.012,-0.003l-0.016 0 0 -0.013zm0.317 0.197l-0.044 -0.101c-0.002,-0.004 -0.004,-0.008 -0.007,-0.009 -0.003,-0.002 -0.007,-0.003 -0.013,-0.003l-0.002 0 0 -0.012 0.065 0 0 0.012 -0.007 0 -0.004 0c-0.002,0 -0.004,0.001 -0.005,0.001 -0.001,0.001 -0.002,0.002 -0.002,0.004 0,0.001 0,0.002 0.001,0.003 0,0.002 0.001,0.003 0.002,0.005l0.029 0.068 0.028 -0.066c0,-0.001 0.001,-0.002 0.001,-0.003 0,-0.001 0,-0.002 0,-0.003 0,-0.004 -0.001,-0.006 -0.004,-0.007 -0.002,-0.001 -0.008,-0.002 -0.016,-0.002l-0 -0.012 0.054 0 0 0.012c-0.005,0 -0.009,0.001 -0.013,0.003 -0.003,0.002 -0.006,0.006 -0.008,0.011l-0.047 0.109c-0.008,0.018 -0.016,0.031 -0.024,0.039 -0.008,0.008 -0.018,0.011 -0.029,0.011 -0.008,0 -0.014,-0.002 -0.019,-0.006 -0.005,-0.004 -0.007,-0.009 -0.007,-0.016 0,-0.005 0.002,-0.008 0.005,-0.012 0.003,-0.003 0.007,-0.005 0.012,-0.005 0.005,0 0.008,0.001 0.011,0.004 0.003,0.003 0.004,0.006 0.004,0.011 0,0.002 -0,0.003 -0.001,0.005 -0.001,0.001 -0.001,0.002 -0.001,0.003 0,0.001 0,0.002 0.001,0.002 0.001,0.001 0.002,0.001 0.004,0.001 0.005,0 0.011,-0.004 0.017,-0.012 0.006,-0.008 0.012,-0.018 0.018,-0.032l0.002 -0.004zm0.191 -0.102c0,-0.004 -0.001,-0.007 -0.002,-0.008 -0.001,-0.001 -0.004,-0.002 -0.008,-0.002l-0.013 -0.001 0 -0.012 0.069 0 0 0.012 -0.013 0.001c-0.004,0 -0.006,0.001 -0.008,0.002 -0.001,0.001 -0.002,0.004 -0.002,0.008l0 0.083c0,0.004 0.001,0.007 0.002,0.008 0.001,0.001 0.004,0.002 0.008,0.002l0.012 0.001 0 0.012 -0.069 0 0 -0.012 0.013 -0.001c0.004,-0 0.007,-0.001 0.008,-0.002 0.001,-0.001 0.002,-0.004 0.002,-0.008l0 -0.038 -0.058 0 0 0.038c0,0.004 0.001,0.007 0.002,0.008 0.001,0.001 0.004,0.002 0.008,0.002l0.013 0.001 0 0.012 -0.069 0 0 -0.012 0.013 -0.001c0.004,-0 0.006,-0.001 0.007,-0.002 0.001,-0.001 0.002,-0.004 0.002,-0.008l0 -0.083c0,-0.004 -0.001,-0.007 -0.002,-0.008 -0.001,-0.001 -0.004,-0.002 -0.007,-0.002l-0.013 -0.001 0 -0.012 0.069 0 0 0.012 -0.013 0.001c-0.004,0 -0.006,0.001 -0.007,0.002 -0.001,0.001 -0.002,0.004 -0.002,0.008l0 0.033 0.058 0 0 -0.033zm0.134 -0.064c0,-0.004 0.002,-0.008 0.005,-0.011 0.003,-0.003 0.007,-0.005 0.011,-0.005 0.004,0 0.008,0.002 0.011,0.005 0.003,0.003 0.004,0.007 0.004,0.011 0,0.004 -0.001,0.008 -0.004,0.011 -0.003,0.003 -0.006,0.004 -0.011,0.004 -0.004,0 -0.008,-0.001 -0.011,-0.004 -0.003,-0.003 -0.004,-0.007 -0.004,-0.011zm-0.049 0c0,-0.004 0.002,-0.008 0.005,-0.011 0.003,-0.003 0.007,-0.005 0.011,-0.005 0.004,0 0.008,0.001 0.011,0.004 0.003,0.003 0.004,0.007 0.004,0.011 0,0.004 -0.001,0.008 -0.004,0.011 -0.003,0.003 -0.006,0.004 -0.011,0.004 -0.004,0 -0.008,-0.001 -0.011,-0.004 -0.003,-0.003 -0.004,-0.007 -0.004,-0.011zm0.059 0.096c0.004,0 0.006,-0.001 0.008,-0.002 0.001,-0.001 0.002,-0.004 0.002,-0.007 0,-0.013 -0.003,-0.022 -0.008,-0.029 -0.005,-0.007 -0.012,-0.01 -0.022,-0.01 -0.011,0 -0.018,0.004 -0.024,0.012 -0.005,0.008 -0.008,0.02 -0.008,0.036l0.051 0zm0.029 0.034l0.01 0.006c-0.006,0.013 -0.014,0.023 -0.024,0.029 -0.01,0.007 -0.021,0.01 -0.035,0.01 -0.018,0 -0.032,-0.006 -0.043,-0.019 -0.011,-0.013 -0.017,-0.029 -0.017,-0.049 0,-0.02 0.006,-0.037 0.017,-0.05 0.011,-0.013 0.026,-0.019 0.043,-0.019 0.018,0 0.032,0.006 0.043,0.018 0.011,0.012 0.016,0.028 0.016,0.047 0,0.001 -0,0.001 -0,0.003 -0,0.001 -0,0.002 -0,0.003l-0.09 0c0,0.001 -0,0.002 -0,0.003 -0,0.001 -0,0.002 -0,0.002 0,0.014 0.003,0.026 0.01,0.034 0.007,0.008 0.016,0.013 0.027,0.013 0.01,0 0.018,-0.002 0.025,-0.007 0.007,-0.005 0.014,-0.012 0.019,-0.022z"/>
 </g>
</svg>
