<?xml version="1.0" encoding="UTF-8"?>
<!DOCTYPE svg PUBLIC "-//W3C//DTD SVG 1.1//EN" "http://www.w3.org/Graphics/SVG/1.1/DTD/svg11.dtd">
<!-- Creator: CorelDRAW 2019 (64-Bit) -->
<svg xmlns="http://www.w3.org/2000/svg" xml:space="preserve" width="1.36439cm" height="0.508cm" version="1.1" style="shape-rendering:geometricPrecision; text-rendering:geometricPrecision; image-rendering:optimizeQuality; fill-rule:evenodd; clip-rule:evenodd"
viewBox="0 0 0.846 0.315"
 xmlns:xlink="http://www.w3.org/1999/xlink"
 xmlns:xodm="http://www.corel.com/coreldraw/odm/2003">
 <defs>
  <style type="text/css">
   <![CDATA[
    .fil0 {fill:#9C6921;fill-rule:nonzero}
   ]]>
  </style>
 </defs>
 <g id="Слой_x0020_1">
  <metadata id="CorelCorpID_0Corel-Layer"/>
  <path class="fil0" d="M0.003 0l0.085 0 0.066 0.187 0.064 -0.187 0.083 0 0 0.016 -0.022 0c-0.005,0 -0.008,0.001 -0.01,0.004 -0.002,0.003 -0.003,0.007 -0.003,0.012l0 0.18c0,0.006 0.001,0.011 0.004,0.013 0.002,0.002 0.007,0.004 0.014,0.004l0.018 0 0 0.016 -0.11 0 0 -0.016 0.02 0c0.007,0 0.012,-0.001 0.014,-0.004 0.002,-0.002 0.004,-0.007 0.004,-0.013l0 -0.191 -0.076 0.223 -0.013 0 -0.081 -0.223 0 0.169c0,0.015 0.003,0.025 0.009,0.031 0.006,0.006 0.016,0.009 0.031,0.009l0 0.015 -0.098 0 0 -0.015c0.016,-0 0.026,-0.003 0.032,-0.009 0.006,-0.006 0.009,-0.017 0.009,-0.033l0 -0.002 0 -0.155c0,-0.006 -0.001,-0.011 -0.004,-0.013 -0.002,-0.002 -0.007,-0.003 -0.014,-0.003l-0.02 0 0 -0.016zm0.388 0.241l-0.054 -0.124c-0.002,-0.005 -0.005,-0.009 -0.009,-0.011 -0.004,-0.002 -0.009,-0.003 -0.015,-0.003l-0.002 0 0 -0.014 0.079 0 0 0.014 -0.009 0 -0.004 0c-0.003,0 -0.005,0.001 -0.006,0.002 -0.001,0.001 -0.002,0.003 -0.002,0.005 0,0.001 0,0.002 0.001,0.004 0.001,0.002 0.001,0.004 0.003,0.006l0.036 0.083 0.034 -0.081c0.001,-0.001 0.001,-0.002 0.001,-0.004 0,-0.001 0.001,-0.003 0.001,-0.004 0,-0.004 -0.001,-0.007 -0.004,-0.009 -0.003,-0.002 -0.009,-0.002 -0.019,-0.003l-0 -0.014 0.066 0 0 0.014c-0.006,0 -0.011,0.001 -0.015,0.004 -0.004,0.003 -0.007,0.007 -0.01,0.014l-0.057 0.133c-0.01,0.022 -0.02,0.038 -0.03,0.048 -0.01,0.009 -0.022,0.014 -0.036,0.014 -0.01,0 -0.017,-0.002 -0.023,-0.007 -0.006,-0.005 -0.008,-0.011 -0.008,-0.019 0,-0.006 0.002,-0.01 0.006,-0.014 0.004,-0.004 0.009,-0.006 0.014,-0.006 0.006,0 0.01,0.002 0.013,0.005 0.003,0.003 0.005,0.007 0.005,0.013 0,0.002 -0,0.004 -0.001,0.006 -0.001,0.002 -0.001,0.003 -0.001,0.003 0,0.001 0.001,0.002 0.002,0.003 0.001,0.001 0.003,0.001 0.004,0.001 0.006,0 0.013,-0.005 0.021,-0.015 0.008,-0.01 0.015,-0.023 0.022,-0.039l0.002 -0.005zm0.233 -0.125c0,-0.005 -0.001,-0.008 -0.002,-0.01 -0.001,-0.002 -0.005,-0.002 -0.009,-0.003l-0.016 -0.001 0 -0.014 0.085 0 0 0.014 -0.015 0.001c-0.005,0 -0.008,0.001 -0.009,0.003 -0.001,0.002 -0.002,0.005 -0.002,0.01l0 0.102c0,0.005 0.001,0.008 0.002,0.01 0.001,0.002 0.005,0.002 0.009,0.003l0.015 0.001 0 0.014 -0.085 0 0 -0.014 0.015 -0.001c0.005,-0 0.008,-0.001 0.009,-0.003 0.001,-0.002 0.002,-0.005 0.002,-0.01l0 -0.047 -0.07 0 0 0.047c0,0.005 0.001,0.008 0.002,0.01 0.001,0.002 0.005,0.002 0.009,0.003l0.015 0.001 0 0.014 -0.085 0 0 -0.014 0.016 -0.001c0.005,-0 0.008,-0.001 0.009,-0.003 0.001,-0.002 0.002,-0.005 0.002,-0.01l0 -0.102c0,-0.005 -0.001,-0.008 -0.002,-0.01 -0.001,-0.002 -0.004,-0.002 -0.009,-0.003l-0.016 -0.001 0 -0.014 0.085 0 0 0.014 -0.016 0.001c-0.005,0 -0.008,0.001 -0.009,0.003 -0.001,0.002 -0.002,0.005 -0.002,0.01l0 0.04 0.07 0 0 -0.04zm0.164 -0.078c0,-0.005 0.002,-0.009 0.006,-0.013 0.004,-0.004 0.008,-0.006 0.013,-0.006 0.005,0 0.009,0.002 0.013,0.006 0.004,0.004 0.005,0.008 0.005,0.013 0,0.005 -0.002,0.01 -0.005,0.013 -0.004,0.004 -0.008,0.005 -0.013,0.005 -0.005,0 -0.01,-0.002 -0.013,-0.005 -0.004,-0.004 -0.005,-0.008 -0.005,-0.013zm-0.06 0c0,-0.005 0.002,-0.009 0.006,-0.013 0.004,-0.004 0.008,-0.006 0.013,-0.006 0.005,0 0.009,0.002 0.013,0.005 0.004,0.004 0.005,0.008 0.005,0.013 0,0.005 -0.002,0.01 -0.005,0.013 -0.003,0.004 -0.008,0.005 -0.013,0.005 -0.005,0 -0.01,-0.002 -0.014,-0.005 -0.004,-0.004 -0.005,-0.008 -0.005,-0.013zm0.072 0.117c0.005,0 0.008,-0.001 0.009,-0.002 0.002,-0.002 0.002,-0.004 0.002,-0.008 0,-0.015 -0.003,-0.027 -0.009,-0.035 -0.006,-0.008 -0.015,-0.012 -0.027,-0.012 -0.013,0 -0.023,0.005 -0.029,0.014 -0.006,0.009 -0.01,0.024 -0.01,0.044l0.063 0zm0.035 0.041l0.012 0.007c-0.007,0.016 -0.017,0.028 -0.029,0.036 -0.012,0.008 -0.026,0.012 -0.042,0.012 -0.022,0 -0.039,-0.008 -0.053,-0.023 -0.014,-0.015 -0.02,-0.036 -0.02,-0.06 0,-0.025 0.007,-0.045 0.02,-0.061 0.014,-0.016 0.031,-0.023 0.053,-0.023 0.022,0 0.039,0.007 0.052,0.022 0.013,0.014 0.019,0.034 0.019,0.058 0,0.001 -0,0.002 -0,0.003 -0,0.002 -0,0.003 -0,0.003l-0.11 0c0,0.001 -0,0.002 -0,0.003 -0,0.001 -0,0.002 -0,0.003 0,0.017 0.004,0.031 0.012,0.042 0.008,0.01 0.019,0.015 0.033,0.015 0.012,0 0.022,-0.003 0.031,-0.009 0.009,-0.006 0.017,-0.015 0.023,-0.027z"/>
 </g>
</svg>
