<?xml version="1.0" encoding="UTF-8"?>
<!DOCTYPE svg PUBLIC "-//W3C//DTD SVG 1.1//EN" "http://www.w3.org/Graphics/SVG/1.1/DTD/svg11.dtd">
<!-- Creator: CorelDRAW -->
<svg xmlns="http://www.w3.org/2000/svg" xml:space="preserve" width="17.7063mm" height="2.368mm" version="1.1" style="shape-rendering:geometricPrecision; text-rendering:geometricPrecision; image-rendering:optimizeQuality; fill-rule:evenodd; clip-rule:evenodd"
viewBox="0 0 13.35 1.79"
 xmlns:xlink="http://www.w3.org/1999/xlink"
 xmlns:xodm="http://www.corel.com/coreldraw/odm/2003">
 <defs>
  <style type="text/css">
   <![CDATA[
    .str0 {stroke:#FF6600;stroke-width:0;stroke-miterlimit:22.9256}
    .fil1 {fill:none;fill-rule:nonzero}
    .fil0 {fill:#FF6600;fill-rule:nonzero}
   ]]>
  </style>
 </defs>
 <g id="Слой_x0020_1">
  <metadata id="CorelCorpID_0Corel-Layer"/>
  <polygon class="fil0" points="0,1.38 0,0 0.18,0 0.18,0.57 0.9,0.57 0.9,0 1.08,0 1.08,1.38 0.9,1.38 0.9,0.73 0.18,0.73 0.18,1.38 "/>
  <path id="_1" class="fil0" d="M2.32 0.38l0.17 0 0 1 -0.17 0 0 -1zm-0.95 0l0.17 0 0 0.39 0.21 0c0.14,0 0.25,0.03 0.32,0.08 0.08,0.05 0.11,0.13 0.11,0.22 0,0.08 -0.03,0.15 -0.09,0.21 -0.06,0.06 -0.16,0.09 -0.3,0.09l-0.42 0 0 -1zm0.17 0.86l0.18 0c0.11,0 0.18,-0.01 0.23,-0.04 0.05,-0.03 0.07,-0.07 0.07,-0.12 0,-0.04 -0.02,-0.08 -0.05,-0.12 -0.03,-0.03 -0.11,-0.05 -0.22,-0.05l-0.2 0 0 0.33z"/>
  <path id="_2" class="fil0" d="M2.83 0.38l0.79 0 0 1 -0.17 0 0 -0.86 -0.45 0 0 0.5c0,0.12 -0,0.19 -0.01,0.23 -0.01,0.04 -0.03,0.07 -0.06,0.1 -0.03,0.03 -0.08,0.04 -0.15,0.04 -0.04,0 -0.09,-0 -0.14,-0.01l0 -0.14 0.07 0c0.04,0 0.06,-0 0.08,-0.01 0.02,-0.01 0.03,-0.02 0.03,-0.03 0,-0.02 0.01,-0.07 0.01,-0.15l0 -0.66z"/>
  <polygon id="_3" class="fil0" points="4.41,0.38 4.58,0.38 4.58,0.8 5.05,0.8 5.05,0.38 5.22,0.38 5.22,1.38 5.05,1.38 5.05,0.94 4.58,0.94 4.58,1.38 4.41,1.38 "/>
  <path id="_4" class="fil0" d="M5.41 0.88c0,-0.18 0.05,-0.32 0.15,-0.41 0.09,-0.07 0.19,-0.11 0.31,-0.11 0.14,0 0.25,0.05 0.34,0.13 0.09,0.09 0.13,0.21 0.13,0.37 0,0.13 -0.02,0.23 -0.06,0.3 -0.04,0.07 -0.09,0.13 -0.17,0.17 -0.07,0.04 -0.15,0.06 -0.24,0.06 -0.14,0 -0.25,-0.04 -0.34,-0.13 -0.09,-0.09 -0.13,-0.22 -0.13,-0.39zm0.17 0c0,0.13 0.03,0.22 0.08,0.29 0.06,0.06 0.13,0.1 0.21,0.1 0.08,0 0.15,-0.03 0.21,-0.1 0.06,-0.06 0.08,-0.16 0.08,-0.29 0,-0.12 -0.03,-0.22 -0.08,-0.28 -0.06,-0.06 -0.13,-0.1 -0.21,-0.1 -0.09,0 -0.16,0.03 -0.21,0.09 -0.06,0.06 -0.08,0.16 -0.08,0.29z"/>
  <path id="_5" class="fil0" d="M8.36 1.77l-0.02 -0.16c0.04,0.01 0.07,0.02 0.1,0.02 0.04,0 0.07,-0.01 0.09,-0.02 0.02,-0.01 0.04,-0.03 0.06,-0.05 0.01,-0.02 0.03,-0.06 0.05,-0.13 0,-0.01 0.01,-0.02 0.02,-0.04l-0.38 -1 0.18 0 0.21 0.58c0.03,0.07 0.05,0.15 0.07,0.23 0.02,-0.08 0.04,-0.15 0.07,-0.23l0.21 -0.58 0.17 0 -0.38 1.02c-0.04,0.11 -0.07,0.18 -0.1,0.23 -0.03,0.06 -0.06,0.1 -0.1,0.12 -0.04,0.03 -0.09,0.04 -0.14,0.04 -0.03,0 -0.07,-0.01 -0.11,-0.02z"/>
  <polygon id="_6" class="fil0" points="9.32,0.38 9.58,0.38 9.84,1.18 10.14,0.38 10.38,0.38 10.38,1.38 10.21,1.38 10.21,0.58 9.91,1.38 9.76,1.38 9.48,0.54 9.48,1.38 9.32,1.38 "/>
  <path id="_7" class="fil0" d="M10.65 1.77l-0.02 -0.16c0.04,0.01 0.07,0.02 0.1,0.02 0.04,0 0.07,-0.01 0.09,-0.02 0.02,-0.01 0.04,-0.03 0.06,-0.05 0.01,-0.02 0.03,-0.06 0.05,-0.13 0,-0.01 0.01,-0.02 0.02,-0.04l-0.38 -1 0.18 0 0.21 0.58c0.03,0.07 0.05,0.15 0.07,0.23 0.02,-0.08 0.04,-0.15 0.07,-0.23l0.21 -0.58 0.17 0 -0.38 1.02c-0.04,0.11 -0.07,0.18 -0.1,0.23 -0.03,0.06 -0.06,0.1 -0.1,0.12 -0.04,0.03 -0.09,0.04 -0.14,0.04 -0.03,0 -0.07,-0.01 -0.11,-0.02z"/>
  <path id="_8" class="fil0" d="M11.6 1.76l0 -1.38 0.15 0 0 0.13c0.04,-0.05 0.08,-0.09 0.12,-0.11 0.05,-0.03 0.1,-0.04 0.17,-0.04 0.09,0 0.16,0.02 0.23,0.07 0.07,0.04 0.11,0.11 0.15,0.19 0.03,0.08 0.05,0.17 0.05,0.26 0,0.1 -0.02,0.19 -0.05,0.28 -0.04,0.08 -0.09,0.14 -0.16,0.19 -0.07,0.04 -0.14,0.07 -0.22,0.07 -0.06,0 -0.11,-0.01 -0.15,-0.04 -0.04,-0.02 -0.08,-0.05 -0.11,-0.09l0 0.49 -0.17 0zm0.15 -0.88c0,0.13 0.03,0.22 0.08,0.28 0.05,0.06 0.12,0.09 0.19,0.09 0.08,0 0.14,-0.03 0.19,-0.1 0.05,-0.06 0.08,-0.16 0.08,-0.3 0,-0.13 -0.03,-0.22 -0.08,-0.29 -0.05,-0.06 -0.11,-0.09 -0.19,-0.09 -0.07,0 -0.14,0.03 -0.19,0.1 -0.06,0.07 -0.08,0.17 -0.08,0.29z"/>
  <polygon id="_9" class="fil0" points="12.54,0.38 13.35,0.38 13.35,0.52 13.03,0.52 13.03,1.38 12.86,1.38 12.86,0.52 12.54,0.52 "/>
  <path id="_10" class="fil0" d="M7.1 1.38l0 -1.38 0.52 0c0.11,0 0.19,0.01 0.25,0.04 0.06,0.03 0.11,0.07 0.15,0.13 0.04,0.06 0.05,0.12 0.05,0.18 0,0.06 -0.02,0.11 -0.05,0.17 -0.03,0.05 -0.08,0.09 -0.14,0.13 0.08,0.02 0.15,0.07 0.19,0.13 0.04,0.06 0.07,0.13 0.07,0.21 0,0.06 -0.01,0.13 -0.04,0.18 -0.03,0.06 -0.06,0.1 -0.1,0.13 -0.04,0.03 -0.09,0.05 -0.15,0.07 -0.06,0.02 -0.13,0.02 -0.22,0.02l-0.53 0zm0.18 -0.8l0.3 0c0.08,0 0.14,-0.01 0.17,-0.02 0.05,-0.01 0.08,-0.04 0.11,-0.07 0.02,-0.03 0.04,-0.07 0.04,-0.12 0,-0.05 -0.01,-0.09 -0.03,-0.12 -0.02,-0.03 -0.05,-0.06 -0.09,-0.07 -0.04,-0.01 -0.11,-0.02 -0.21,-0.02l-0.28 0 0 0.42zm0 0.64l0.34 0c0.06,0 0.1,-0 0.12,-0.01 0.04,-0.01 0.08,-0.02 0.11,-0.04 0.03,-0.02 0.05,-0.04 0.07,-0.08 0.02,-0.03 0.03,-0.07 0.03,-0.12 0,-0.05 -0.01,-0.1 -0.04,-0.13 -0.03,-0.04 -0.06,-0.06 -0.11,-0.08 -0.05,-0.02 -0.11,-0.02 -0.2,-0.02l-0.32 0 0 0.48z"/>
  <polygon id="_11" class="fil1 str0" points="0,1.38 0,0 0.18,0 0.18,0.57 0.9,0.57 0.9,0 1.08,0 1.08,1.38 0.9,1.38 0.9,0.73 0.18,0.73 0.18,1.38 "/>
  <path id="_12" class="fil1 str0" d="M2.32 0.38l0.17 0 0 1 -0.17 0 0 -1zm-0.95 0l0.17 0 0 0.39 0.21 0c0.14,0 0.25,0.03 0.32,0.08 0.08,0.05 0.11,0.13 0.11,0.22 0,0.08 -0.03,0.15 -0.09,0.21 -0.06,0.06 -0.16,0.09 -0.3,0.09l-0.42 0 0 -1zm0.17 0.86l0.18 0c0.11,0 0.18,-0.01 0.23,-0.04 0.05,-0.03 0.07,-0.07 0.07,-0.12 0,-0.04 -0.02,-0.08 -0.05,-0.12 -0.03,-0.03 -0.11,-0.05 -0.22,-0.05l-0.2 0 0 0.33z"/>
  <path id="_13" class="fil1 str0" d="M2.83 0.38l0.79 0 0 1 -0.17 0 0 -0.86 -0.45 0 0 0.5c0,0.12 -0,0.19 -0.01,0.23 -0.01,0.04 -0.03,0.07 -0.06,0.1 -0.03,0.03 -0.08,0.04 -0.15,0.04 -0.04,0 -0.09,-0 -0.14,-0.01l0 -0.14 0.07 0c0.04,0 0.06,-0 0.08,-0.01 0.02,-0.01 0.03,-0.02 0.03,-0.03 0,-0.02 0.01,-0.07 0.01,-0.15l0 -0.66z"/>
  <polygon id="_14" class="fil1 str0" points="4.41,0.38 4.58,0.38 4.58,0.8 5.05,0.8 5.05,0.38 5.22,0.38 5.22,1.38 5.05,1.38 5.05,0.94 4.58,0.94 4.58,1.38 4.41,1.38 "/>
  <path id="_15" class="fil1 str0" d="M5.41 0.88c0,-0.18 0.05,-0.32 0.15,-0.41 0.09,-0.07 0.19,-0.11 0.31,-0.11 0.14,0 0.25,0.05 0.34,0.13 0.09,0.09 0.13,0.21 0.13,0.37 0,0.13 -0.02,0.23 -0.06,0.3 -0.04,0.07 -0.09,0.13 -0.17,0.17 -0.07,0.04 -0.15,0.06 -0.24,0.06 -0.14,0 -0.25,-0.04 -0.34,-0.13 -0.09,-0.09 -0.13,-0.22 -0.13,-0.39zm0.17 0c0,0.13 0.03,0.22 0.08,0.29 0.06,0.06 0.13,0.1 0.21,0.1 0.08,0 0.15,-0.03 0.21,-0.1 0.06,-0.06 0.08,-0.16 0.08,-0.29 0,-0.12 -0.03,-0.22 -0.08,-0.28 -0.06,-0.06 -0.13,-0.1 -0.21,-0.1 -0.09,0 -0.16,0.03 -0.21,0.09 -0.06,0.06 -0.08,0.16 -0.08,0.29z"/>
  <path id="_16" class="fil1 str0" d="M8.36 1.77l-0.02 -0.16c0.04,0.01 0.07,0.02 0.1,0.02 0.04,0 0.07,-0.01 0.09,-0.02 0.02,-0.01 0.04,-0.03 0.06,-0.05 0.01,-0.02 0.03,-0.06 0.05,-0.13 0,-0.01 0.01,-0.02 0.02,-0.04l-0.38 -1 0.18 0 0.21 0.58c0.03,0.07 0.05,0.15 0.07,0.23 0.02,-0.08 0.04,-0.15 0.07,-0.23l0.21 -0.58 0.17 0 -0.38 1.02c-0.04,0.11 -0.07,0.18 -0.1,0.23 -0.03,0.06 -0.06,0.1 -0.1,0.12 -0.04,0.03 -0.09,0.04 -0.14,0.04 -0.03,0 -0.07,-0.01 -0.11,-0.02z"/>
  <polygon id="_17" class="fil1 str0" points="9.32,0.38 9.58,0.38 9.84,1.18 10.14,0.38 10.38,0.38 10.38,1.38 10.21,1.38 10.21,0.58 9.91,1.38 9.76,1.38 9.48,0.54 9.48,1.38 9.32,1.38 "/>
  <path id="_18" class="fil1 str0" d="M10.65 1.77l-0.02 -0.16c0.04,0.01 0.07,0.02 0.1,0.02 0.04,0 0.07,-0.01 0.09,-0.02 0.02,-0.01 0.04,-0.03 0.06,-0.05 0.01,-0.02 0.03,-0.06 0.05,-0.13 0,-0.01 0.01,-0.02 0.02,-0.04l-0.38 -1 0.18 0 0.21 0.58c0.03,0.07 0.05,0.15 0.07,0.23 0.02,-0.08 0.04,-0.15 0.07,-0.23l0.21 -0.58 0.17 0 -0.38 1.02c-0.04,0.11 -0.07,0.18 -0.1,0.23 -0.03,0.06 -0.06,0.1 -0.1,0.12 -0.04,0.03 -0.09,0.04 -0.14,0.04 -0.03,0 -0.07,-0.01 -0.11,-0.02z"/>
  <path id="_19" class="fil1 str0" d="M11.6 1.76l0 -1.38 0.15 0 0 0.13c0.04,-0.05 0.08,-0.09 0.12,-0.11 0.05,-0.03 0.1,-0.04 0.17,-0.04 0.09,0 0.16,0.02 0.23,0.07 0.07,0.04 0.11,0.11 0.15,0.19 0.03,0.08 0.05,0.17 0.05,0.26 0,0.1 -0.02,0.19 -0.05,0.28 -0.04,0.08 -0.09,0.14 -0.16,0.19 -0.07,0.04 -0.14,0.07 -0.22,0.07 -0.06,0 -0.11,-0.01 -0.15,-0.04 -0.04,-0.02 -0.08,-0.05 -0.11,-0.09l0 0.49 -0.17 0zm0.15 -0.88c0,0.13 0.03,0.22 0.08,0.28 0.05,0.06 0.12,0.09 0.19,0.09 0.08,0 0.14,-0.03 0.19,-0.1 0.05,-0.06 0.08,-0.16 0.08,-0.3 0,-0.13 -0.03,-0.22 -0.08,-0.29 -0.05,-0.06 -0.11,-0.09 -0.19,-0.09 -0.07,0 -0.14,0.03 -0.19,0.1 -0.06,0.07 -0.08,0.17 -0.08,0.29z"/>
  <polygon id="_20" class="fil1 str0" points="12.54,0.38 13.35,0.38 13.35,0.52 13.03,0.52 13.03,1.38 12.86,1.38 12.86,0.52 12.54,0.52 "/>
  <path id="_21" class="fil1 str0" d="M7.1 1.38l0 -1.38 0.52 0c0.11,0 0.19,0.01 0.25,0.04 0.06,0.03 0.11,0.07 0.15,0.13 0.04,0.06 0.05,0.12 0.05,0.18 0,0.06 -0.02,0.11 -0.05,0.17 -0.03,0.05 -0.08,0.09 -0.14,0.13 0.08,0.02 0.15,0.07 0.19,0.13 0.04,0.06 0.07,0.13 0.07,0.21 0,0.06 -0.01,0.13 -0.04,0.18 -0.03,0.06 -0.06,0.1 -0.1,0.13 -0.04,0.03 -0.09,0.05 -0.15,0.07 -0.06,0.02 -0.13,0.02 -0.22,0.02l-0.53 0zm0.18 -0.8l0.3 0c0.08,0 0.14,-0.01 0.17,-0.02 0.05,-0.01 0.08,-0.04 0.11,-0.07 0.02,-0.03 0.04,-0.07 0.04,-0.12 0,-0.05 -0.01,-0.09 -0.03,-0.12 -0.02,-0.03 -0.05,-0.06 -0.09,-0.07 -0.04,-0.01 -0.11,-0.02 -0.21,-0.02l-0.28 0 0 0.42zm0 0.64l0.34 0c0.06,0 0.1,-0 0.12,-0.01 0.04,-0.01 0.08,-0.02 0.11,-0.04 0.03,-0.02 0.05,-0.04 0.07,-0.08 0.02,-0.03 0.03,-0.07 0.03,-0.12 0,-0.05 -0.01,-0.1 -0.04,-0.13 -0.03,-0.04 -0.06,-0.06 -0.11,-0.08 -0.05,-0.02 -0.11,-0.02 -0.2,-0.02l-0.32 0 0 0.48z"/>
 </g>
</svg>
