<?xml version="1.0" encoding="UTF-8"?>
<!DOCTYPE svg PUBLIC "-//W3C//DTD SVG 1.1//EN" "http://www.w3.org/Graphics/SVG/1.1/DTD/svg11.dtd">
<!-- Creator: CorelDRAW -->
<svg xmlns="http://www.w3.org/2000/svg" xml:space="preserve" width="3.9284mm" height="1.8311mm" version="1.1" style="shape-rendering:geometricPrecision; text-rendering:geometricPrecision; image-rendering:optimizeQuality; fill-rule:evenodd; clip-rule:evenodd"
viewBox="0 0 0.65 0.3"
 xmlns:xlink="http://www.w3.org/1999/xlink"
 xmlns:xodm="http://www.corel.com/coreldraw/odm/2003">
 <defs>
  <style type="text/css">
   <![CDATA[
    .str0 {stroke:#FF6600;stroke-width:0;stroke-miterlimit:22.9256}
    .fil1 {fill:none;fill-rule:nonzero}
    .fil0 {fill:#FF6600;fill-rule:nonzero}
   ]]>
  </style>
 </defs>
 <g id="Слой_x0020_1">
  <metadata id="CorelCorpID_0Corel-Layer"/>
  <path class="fil0" d="M0 0l0.04 0 0 0.13 0.07 0c0.05,0 0.08,0.01 0.09,0.03 0.01,0.02 0.02,0.04 0.02,0.06 0,0.02 -0.01,0.04 -0.02,0.06 -0.02,0.02 -0.05,0.03 -0.09,0.03l-0.12 0 0 -0.3zm0.04 0.27l0.07 0c0.03,0 0.04,-0 0.05,-0.01 0.01,-0.01 0.02,-0.02 0.02,-0.04 0,-0.01 -0,-0.02 -0.01,-0.03 -0.01,-0.01 -0.02,-0.01 -0.03,-0.02 -0.01,-0 -0.03,-0 -0.05,-0l-0.05 0 0 0.11zm0.23 -0.27l0.04 0 0 0.3 -0.04 0 0 -0.3z"/>
  <polygon id="_1" class="fil0" points="0.37,0.08 0.41,0.08 0.41,0.27 0.49,0.27 0.49,0.08 0.53,0.08 0.53,0.27 0.62,0.27 0.62,0.08 0.65,0.08 0.65,0.3 0.37,0.3 "/>
  <path id="_2" class="fil1 str0" d="M0 0l0.04 0 0 0.13 0.07 0c0.05,0 0.08,0.01 0.09,0.03 0.01,0.02 0.02,0.04 0.02,0.06 0,0.02 -0.01,0.04 -0.02,0.06 -0.02,0.02 -0.05,0.03 -0.09,0.03l-0.12 0 0 -0.3zm0.04 0.27l0.07 0c0.03,0 0.04,-0 0.05,-0.01 0.01,-0.01 0.02,-0.02 0.02,-0.04 0,-0.01 -0,-0.02 -0.01,-0.03 -0.01,-0.01 -0.02,-0.01 -0.03,-0.02 -0.01,-0 -0.03,-0 -0.05,-0l-0.05 0 0 0.11zm0.23 -0.27l0.04 0 0 0.3 -0.04 0 0 -0.3z"/>
  <polygon id="_3" class="fil1 str0" points="0.37,0.08 0.41,0.08 0.41,0.27 0.49,0.27 0.49,0.08 0.53,0.08 0.53,0.27 0.62,0.27 0.62,0.08 0.65,0.08 0.65,0.3 0.37,0.3 "/>
 </g>
</svg>
