<?xml version="1.0" encoding="UTF-8"?>
<!DOCTYPE svg PUBLIC "-//W3C//DTD SVG 1.1//EN" "http://www.w3.org/Graphics/SVG/1.1/DTD/svg11.dtd">
<!-- Creator: CorelDRAW -->
<svg xmlns="http://www.w3.org/2000/svg" xml:space="preserve" width="17.3032mm" height="2.368mm" version="1.1" style="shape-rendering:geometricPrecision; text-rendering:geometricPrecision; image-rendering:optimizeQuality; fill-rule:evenodd; clip-rule:evenodd"
viewBox="0 0 12.75 1.74"
 xmlns:xlink="http://www.w3.org/1999/xlink"
 xmlns:xodm="http://www.corel.com/coreldraw/odm/2003">
 <defs>
  <style type="text/css">
   <![CDATA[
    .str0 {stroke:#FF6600;stroke-width:0;stroke-miterlimit:22.9256}
    .fil1 {fill:none;fill-rule:nonzero}
    .fil0 {fill:#FF6600;fill-rule:nonzero}
   ]]>
  </style>
 </defs>
 <g id="Слой_x0020_1">
  <metadata id="CorelCorpID_0Corel-Layer"/>
  <polygon class="fil0" points="0,1.35 0,0 0.18,0 0.18,0.56 0.88,0.56 0.88,0 1.06,0 1.06,1.35 0.88,1.35 0.88,0.71 0.18,0.71 0.18,1.35 "/>
  <path id="_1" class="fil0" d="M2.26 0.37l0.17 0 0 0.98 -0.17 0 0 -0.98zm-0.93 0l0.17 0 0 0.38 0.21 0c0.14,0 0.24,0.03 0.32,0.08 0.07,0.05 0.11,0.13 0.11,0.22 0,0.08 -0.03,0.15 -0.09,0.21 -0.06,0.06 -0.16,0.09 -0.3,0.09l-0.41 0 0 -0.98zm0.17 0.84l0.17 0c0.1,0 0.18,-0.01 0.22,-0.04 0.04,-0.03 0.07,-0.07 0.07,-0.12 0,-0.04 -0.02,-0.08 -0.05,-0.11 -0.03,-0.03 -0.11,-0.05 -0.22,-0.05l-0.2 0 0 0.32z"/>
  <path id="_2" class="fil0" d="M2.77 0.37l0.77 0 0 0.98 -0.17 0 0 -0.84 -0.44 0 0 0.49c0,0.11 -0,0.19 -0.01,0.22 -0.01,0.04 -0.03,0.07 -0.06,0.09 -0.03,0.03 -0.08,0.04 -0.14,0.04 -0.04,0 -0.08,-0 -0.13,-0.01l0 -0.14 0.07 0c0.03,0 0.06,-0 0.07,-0.01 0.01,-0.01 0.02,-0.02 0.03,-0.03 0,-0.02 0.01,-0.07 0.01,-0.15l0 -0.64z"/>
  <polygon id="_3" class="fil0" points="4.31,0.37 4.48,0.37 4.48,0.78 4.94,0.78 4.94,0.37 5.1,0.37 5.1,1.35 4.94,1.35 4.94,0.92 4.48,0.92 4.48,1.35 4.31,1.35 "/>
  <path id="_4" class="fil0" d="M5.29 0.86c0,-0.18 0.05,-0.31 0.15,-0.4 0.08,-0.07 0.19,-0.11 0.31,-0.11 0.13,0 0.24,0.04 0.33,0.13 0.09,0.09 0.13,0.21 0.13,0.36 0,0.13 -0.02,0.22 -0.06,0.3 -0.04,0.07 -0.09,0.13 -0.16,0.17 -0.07,0.04 -0.15,0.06 -0.24,0.06 -0.14,0 -0.25,-0.04 -0.33,-0.13 -0.08,-0.09 -0.13,-0.21 -0.13,-0.38zm0.17 0c0,0.12 0.03,0.22 0.08,0.28 0.05,0.06 0.12,0.09 0.21,0.09 0.08,0 0.15,-0.03 0.21,-0.09 0.05,-0.06 0.08,-0.16 0.08,-0.29 0,-0.12 -0.03,-0.21 -0.08,-0.27 -0.05,-0.06 -0.12,-0.09 -0.21,-0.09 -0.08,0 -0.15,0.03 -0.21,0.09 -0.05,0.06 -0.08,0.16 -0.08,0.28z"/>
  <path id="_5" class="fil0" d="M6.92 0.37l0.38 0c0.09,0 0.16,0.01 0.21,0.02 0.05,0.02 0.08,0.04 0.12,0.09 0.03,0.04 0.05,0.09 0.05,0.15 0,0.05 -0.01,0.09 -0.03,0.12 -0.02,0.03 -0.05,0.06 -0.09,0.09 0.05,0.02 0.08,0.04 0.11,0.09 0.03,0.04 0.05,0.09 0.05,0.15 -0.01,0.09 -0.04,0.16 -0.1,0.21 -0.06,0.04 -0.15,0.07 -0.26,0.07l-0.44 0 0 -0.98zm0.17 0.41l0.18 0c0.07,0 0.12,-0 0.14,-0.01 0.03,-0.01 0.05,-0.02 0.07,-0.04 0.02,-0.02 0.03,-0.05 0.03,-0.08 0,-0.05 -0.02,-0.09 -0.05,-0.11 -0.04,-0.02 -0.1,-0.03 -0.19,-0.03l-0.18 0 0 0.28zm0 0.43l0.22 0c0.09,0 0.16,-0.01 0.19,-0.03 0.03,-0.02 0.05,-0.06 0.05,-0.11 0,-0.03 -0.01,-0.06 -0.03,-0.09 -0.02,-0.03 -0.05,-0.04 -0.08,-0.05 -0.03,-0.01 -0.08,-0.01 -0.16,-0.01l-0.2 0 0 0.29z"/>
  <path id="_6" class="fil0" d="M7.87 1.73l-0.02 -0.15c0.04,0.01 0.07,0.01 0.09,0.01 0.04,0 0.07,-0.01 0.09,-0.02 0.02,-0.01 0.04,-0.03 0.05,-0.05 0.01,-0.02 0.03,-0.06 0.05,-0.12 0,-0.01 0.01,-0.02 0.01,-0.04l-0.37 -0.98 0.18 0 0.2 0.56c0.03,0.07 0.05,0.15 0.07,0.23 0.02,-0.07 0.04,-0.15 0.07,-0.22l0.21 -0.57 0.17 0 -0.37 0.99c-0.04,0.11 -0.07,0.18 -0.09,0.22 -0.03,0.05 -0.06,0.09 -0.1,0.12 -0.04,0.03 -0.08,0.04 -0.14,0.04 -0.03,0 -0.07,-0.01 -0.11,-0.02z"/>
  <polygon id="_7" class="fil0" points="8.81,0.37 9.06,0.37 9.32,1.15 9.61,0.37 9.84,0.37 9.84,1.35 9.68,1.35 9.68,0.56 9.39,1.35 9.24,1.35 8.97,0.52 8.97,1.35 8.81,1.35 "/>
  <path id="_8" class="fil0" d="M10.11 1.73l-0.02 -0.15c0.04,0.01 0.07,0.01 0.09,0.01 0.04,0 0.07,-0.01 0.09,-0.02 0.02,-0.01 0.04,-0.03 0.05,-0.05 0.01,-0.02 0.03,-0.06 0.05,-0.12 0,-0.01 0.01,-0.02 0.01,-0.04l-0.37 -0.98 0.18 0 0.2 0.56c0.03,0.07 0.05,0.15 0.07,0.23 0.02,-0.07 0.04,-0.15 0.07,-0.22l0.21 -0.57 0.17 0 -0.37 0.99c-0.04,0.11 -0.07,0.18 -0.09,0.22 -0.03,0.05 -0.06,0.09 -0.1,0.12 -0.04,0.03 -0.08,0.04 -0.14,0.04 -0.03,0 -0.07,-0.01 -0.11,-0.02z"/>
  <path id="_9" class="fil0" d="M11.04 1.72l0 -1.35 0.15 0 0 0.13c0.04,-0.05 0.08,-0.09 0.12,-0.11 0.04,-0.02 0.1,-0.04 0.16,-0.04 0.08,0 0.16,0.02 0.22,0.06 0.06,0.04 0.11,0.1 0.14,0.18 0.03,0.08 0.05,0.16 0.05,0.26 0,0.1 -0.02,0.19 -0.05,0.27 -0.04,0.08 -0.09,0.14 -0.16,0.18 -0.07,0.04 -0.14,0.06 -0.22,0.06 -0.06,0 -0.1,-0.01 -0.15,-0.03 -0.04,-0.02 -0.08,-0.05 -0.11,-0.09l0 0.48 -0.17 0zm0.15 -0.86c0,0.13 0.03,0.22 0.08,0.28 0.05,0.06 0.11,0.09 0.18,0.09 0.07,0 0.14,-0.03 0.19,-0.09 0.05,-0.06 0.08,-0.16 0.08,-0.29 0,-0.12 -0.03,-0.22 -0.08,-0.28 -0.05,-0.06 -0.11,-0.09 -0.18,-0.09 -0.07,0 -0.13,0.03 -0.19,0.1 -0.05,0.07 -0.08,0.16 -0.08,0.29z"/>
  <polygon id="_10" class="fil0" points="11.96,0.37 12.75,0.37 12.75,0.51 12.44,0.51 12.44,1.35 12.27,1.35 12.27,0.51 11.96,0.51 "/>
  <polygon id="_11" class="fil1 str0" points="0,1.35 0,0 0.18,0 0.18,0.56 0.88,0.56 0.88,0 1.06,0 1.06,1.35 0.88,1.35 0.88,0.71 0.18,0.71 0.18,1.35 "/>
  <path id="_12" class="fil1 str0" d="M2.26 0.37l0.17 0 0 0.98 -0.17 0 0 -0.98zm-0.93 0l0.17 0 0 0.38 0.21 0c0.14,0 0.24,0.03 0.32,0.08 0.07,0.05 0.11,0.13 0.11,0.22 0,0.08 -0.03,0.15 -0.09,0.21 -0.06,0.06 -0.16,0.09 -0.3,0.09l-0.41 0 0 -0.98zm0.17 0.84l0.17 0c0.1,0 0.18,-0.01 0.22,-0.04 0.04,-0.03 0.07,-0.07 0.07,-0.12 0,-0.04 -0.02,-0.08 -0.05,-0.11 -0.03,-0.03 -0.11,-0.05 -0.22,-0.05l-0.2 0 0 0.32z"/>
  <path id="_13" class="fil1 str0" d="M2.77 0.37l0.77 0 0 0.98 -0.17 0 0 -0.84 -0.44 0 0 0.49c0,0.11 -0,0.19 -0.01,0.22 -0.01,0.04 -0.03,0.07 -0.06,0.09 -0.03,0.03 -0.08,0.04 -0.14,0.04 -0.04,0 -0.08,-0 -0.13,-0.01l0 -0.14 0.07 0c0.03,0 0.06,-0 0.07,-0.01 0.01,-0.01 0.02,-0.02 0.03,-0.03 0,-0.02 0.01,-0.07 0.01,-0.15l0 -0.64z"/>
  <polygon id="_14" class="fil1 str0" points="4.31,0.37 4.48,0.37 4.48,0.78 4.94,0.78 4.94,0.37 5.1,0.37 5.1,1.35 4.94,1.35 4.94,0.92 4.48,0.92 4.48,1.35 4.31,1.35 "/>
  <path id="_15" class="fil1 str0" d="M5.29 0.86c0,-0.18 0.05,-0.31 0.15,-0.4 0.08,-0.07 0.19,-0.11 0.31,-0.11 0.13,0 0.24,0.04 0.33,0.13 0.09,0.09 0.13,0.21 0.13,0.36 0,0.13 -0.02,0.22 -0.06,0.3 -0.04,0.07 -0.09,0.13 -0.16,0.17 -0.07,0.04 -0.15,0.06 -0.24,0.06 -0.14,0 -0.25,-0.04 -0.33,-0.13 -0.08,-0.09 -0.13,-0.21 -0.13,-0.38zm0.17 0c0,0.12 0.03,0.22 0.08,0.28 0.05,0.06 0.12,0.09 0.21,0.09 0.08,0 0.15,-0.03 0.21,-0.09 0.05,-0.06 0.08,-0.16 0.08,-0.29 0,-0.12 -0.03,-0.21 -0.08,-0.27 -0.05,-0.06 -0.12,-0.09 -0.21,-0.09 -0.08,0 -0.15,0.03 -0.21,0.09 -0.05,0.06 -0.08,0.16 -0.08,0.28z"/>
  <path id="_16" class="fil1 str0" d="M6.92 0.37l0.38 0c0.09,0 0.16,0.01 0.21,0.02 0.05,0.02 0.08,0.04 0.12,0.09 0.03,0.04 0.05,0.09 0.05,0.15 0,0.05 -0.01,0.09 -0.03,0.12 -0.02,0.03 -0.05,0.06 -0.09,0.09 0.05,0.02 0.08,0.04 0.11,0.09 0.03,0.04 0.05,0.09 0.05,0.15 -0.01,0.09 -0.04,0.16 -0.1,0.21 -0.06,0.04 -0.15,0.07 -0.26,0.07l-0.44 0 0 -0.98zm0.17 0.41l0.18 0c0.07,0 0.12,-0 0.14,-0.01 0.03,-0.01 0.05,-0.02 0.07,-0.04 0.02,-0.02 0.03,-0.05 0.03,-0.08 0,-0.05 -0.02,-0.09 -0.05,-0.11 -0.04,-0.02 -0.1,-0.03 -0.19,-0.03l-0.18 0 0 0.28zm0 0.43l0.22 0c0.09,0 0.16,-0.01 0.19,-0.03 0.03,-0.02 0.05,-0.06 0.05,-0.11 0,-0.03 -0.01,-0.06 -0.03,-0.09 -0.02,-0.03 -0.05,-0.04 -0.08,-0.05 -0.03,-0.01 -0.08,-0.01 -0.16,-0.01l-0.2 0 0 0.29z"/>
  <path id="_17" class="fil1 str0" d="M7.87 1.73l-0.02 -0.15c0.04,0.01 0.07,0.01 0.09,0.01 0.04,0 0.07,-0.01 0.09,-0.02 0.02,-0.01 0.04,-0.03 0.05,-0.05 0.01,-0.02 0.03,-0.06 0.05,-0.12 0,-0.01 0.01,-0.02 0.01,-0.04l-0.37 -0.98 0.18 0 0.2 0.56c0.03,0.07 0.05,0.15 0.07,0.23 0.02,-0.07 0.04,-0.15 0.07,-0.22l0.21 -0.57 0.17 0 -0.37 0.99c-0.04,0.11 -0.07,0.18 -0.09,0.22 -0.03,0.05 -0.06,0.09 -0.1,0.12 -0.04,0.03 -0.08,0.04 -0.14,0.04 -0.03,0 -0.07,-0.01 -0.11,-0.02z"/>
  <polygon id="_18" class="fil1 str0" points="8.81,0.37 9.06,0.37 9.32,1.15 9.61,0.37 9.84,0.37 9.84,1.35 9.68,1.35 9.68,0.56 9.39,1.35 9.24,1.35 8.97,0.52 8.97,1.35 8.81,1.35 "/>
  <path id="_19" class="fil1 str0" d="M10.11 1.73l-0.02 -0.15c0.04,0.01 0.07,0.01 0.09,0.01 0.04,0 0.07,-0.01 0.09,-0.02 0.02,-0.01 0.04,-0.03 0.05,-0.05 0.01,-0.02 0.03,-0.06 0.05,-0.12 0,-0.01 0.01,-0.02 0.01,-0.04l-0.37 -0.98 0.18 0 0.2 0.56c0.03,0.07 0.05,0.15 0.07,0.23 0.02,-0.07 0.04,-0.15 0.07,-0.22l0.21 -0.57 0.17 0 -0.37 0.99c-0.04,0.11 -0.07,0.18 -0.09,0.22 -0.03,0.05 -0.06,0.09 -0.1,0.12 -0.04,0.03 -0.08,0.04 -0.14,0.04 -0.03,0 -0.07,-0.01 -0.11,-0.02z"/>
  <path id="_20" class="fil1 str0" d="M11.04 1.72l0 -1.35 0.15 0 0 0.13c0.04,-0.05 0.08,-0.09 0.12,-0.11 0.04,-0.02 0.1,-0.04 0.16,-0.04 0.08,0 0.16,0.02 0.22,0.06 0.06,0.04 0.11,0.1 0.14,0.18 0.03,0.08 0.05,0.16 0.05,0.26 0,0.1 -0.02,0.19 -0.05,0.27 -0.04,0.08 -0.09,0.14 -0.16,0.18 -0.07,0.04 -0.14,0.06 -0.22,0.06 -0.06,0 -0.1,-0.01 -0.15,-0.03 -0.04,-0.02 -0.08,-0.05 -0.11,-0.09l0 0.48 -0.17 0zm0.15 -0.86c0,0.13 0.03,0.22 0.08,0.28 0.05,0.06 0.11,0.09 0.18,0.09 0.07,0 0.14,-0.03 0.19,-0.09 0.05,-0.06 0.08,-0.16 0.08,-0.29 0,-0.12 -0.03,-0.22 -0.08,-0.28 -0.05,-0.06 -0.11,-0.09 -0.18,-0.09 -0.07,0 -0.13,0.03 -0.19,0.1 -0.05,0.07 -0.08,0.16 -0.08,0.29z"/>
  <polygon id="_21" class="fil1 str0" points="11.96,0.37 12.75,0.37 12.75,0.51 12.44,0.51 12.44,1.35 12.27,1.35 12.27,0.51 11.96,0.51 "/>
 </g>
</svg>
