<?xml version="1.0" encoding="UTF-8" standalone="no"?>
<svg
   xmlns:dc="http://purl.org/dc/elements/1.1/"
   xmlns:cc="http://creativecommons.org/ns#"
   xmlns:rdf="http://www.w3.org/1999/02/22-rdf-syntax-ns#"
   xmlns:svg="http://www.w3.org/2000/svg"
   xmlns="http://www.w3.org/2000/svg"
   xmlns:sodipodi="http://sodipodi.sourceforge.net/DTD/sodipodi-0.dtd"
   xmlns:inkscape="http://www.inkscape.org/namespaces/inkscape"
   width="131.23361mm"
   height="24.240601mm"
   viewBox="0 0 131.23361 24.240601"
   version="1.1"
   id="svg8"
   inkscape:version="1.0.1 (3bc2e813f5, 2020-09-07)"
   sodipodi:docname="Nazvanie.svg">
  <defs
     id="defs2" />
  <sodipodi:namedview
     id="base"
     pagecolor="#ffffff"
     bordercolor="#666666"
     borderopacity="1.0"
     inkscape:pageopacity="0.0"
     inkscape:pageshadow="2"
     inkscape:zoom="1.4"
     inkscape:cx="231.54411"
     inkscape:cy="56.148792"
     inkscape:document-units="mm"
     inkscape:current-layer="layer1"
     inkscape:document-rotation="0"
     showgrid="false"
     fit-margin-top="0"
     fit-margin-left="0"
     fit-margin-right="0"
     fit-margin-bottom="0"
     inkscape:window-width="1264"
     inkscape:window-height="967"
     inkscape:window-x="0"
     inkscape:window-y="0"
     inkscape:window-maximized="0" />
  <metadata
     id="metadata5">
    <rdf:RDF>
      <cc:Work
         rdf:about="">
        <dc:format>image/svg+xml</dc:format>
        <dc:type
           rdf:resource="http://purl.org/dc/dcmitype/StillImage" />
        <dc:title></dc:title>
      </cc:Work>
    </rdf:RDF>
  </metadata>
  <g
     inkscape:label="Слой 1"
     inkscape:groupmode="layer"
     id="layer1"
     transform="translate(-42.158664,-95.539066)">
    <g
       id="g24"
       transform="translate(148.86912,41.961316)">
      <path
         style="fill:#e21e24;stroke-width:0.215072"
         d="m -93.719077,77.547111 c -1.71771,-0.62686 -2.59463,-1.85587 -3.65239,-5.11886 -0.77108,-2.37864 -1.4476,-3.60615 -1.98747,-3.60615 -0.26162,0 -0.2894,0.37199 -0.17266,2.31203 0.18241,3.03147 -0.12955,4.61135 -1.102683,5.58449 -0.60462,0.60462 -0.85661,0.70625 -1.74946,0.70556 -1.97083,-0.002 -2.99433,-1.0957 -3.73544,-3.99342 -0.5791,-2.26427 -0.74873,-5.83903 -0.43812,-9.2327 0.40381,-4.41181 1.03147,-6.91151 2.19759,-8.7521 1.55397,-2.45274 4.681493,-2.45201 5.548183,0.001 0.32358,0.91595 0.28903,1.11083 -0.77931,4.39559 -0.20292,0.62392 0.5949,0.44617 1.46233,-0.3258 0.43,-0.38268 1.33733,-1.40745 2.01629,-2.27726 1.39153,-1.78269 2.27067,-2.29466 3.62774,-2.11264 1.62431,0.21787 2.71374,1.56537 2.71437,3.35737 6.9e-4,1.95023 -1.37633,3.74252 -3.89036,5.06361 -0.81736,0.42951 -1.4861,0.85868 -1.4861,0.9537 0,0.095 0.55862,0.51758 1.24139,0.93901 2.54278,1.56949 4.56186,4.26962 5.01149,6.70189 0.63964,3.4601 -2.01281,6.43081 -4.82539,5.40439 z m -3.42217,-17.02769 c 0.40388,-0.30806 1.26029,-1.27131 1.90314,-2.14057 0.64285,-0.86926 1.33775,-1.67888 1.54423,-1.79916 0.20648,-0.12027 0.29647,-0.22162 0.19998,-0.22522 -0.4525,-0.0169 -1.0476,0.53268 -2.06937,1.91097 -0.61095,0.82412 -1.44797,1.79443 -1.86005,2.15624 -0.9148,0.80321 -0.7278,0.86801 0.28207,0.0977 z m -5.990463,-4.34798 c 0.26477,-0.37184 0.69115,-0.82298 0.94751,-1.00254 0.25636,-0.17956 0.36084,-0.32647 0.23218,-0.32647 -0.83404,0 -2.04804,1.77072 -2.58043,3.76376 -0.48698,1.82305 -0.30274,1.81221 0.32398,-0.0191 0.32745,-0.95679 0.81199,-2.04386 1.07676,-2.41569 z m 20.566853,21.58857 c -0.11829,-0.0453 -0.48367,-0.14164 -0.81194,-0.21414 -0.8821,-0.19479 -2.26268,-1.54128 -2.51622,-2.45409 -0.34489,-1.24171 -0.2624,-2.01484 0.34507,-3.23387 0.45983,-0.92274 0.87106,-1.34293 2.19881,-2.24672 3.71449,-2.5284 3.71496,-2.59348 0.0445,-6.15438 -3.53267,-3.42718 -4.21065,-4.7818 -3.37304,-6.73941 0.81404,-1.90254 2.95867,-2.63275 4.86942,-1.65796 0.51654,0.26352 1.88526,1.4446 3.0416,2.62462 1.15633,1.18003 2.22652,2.1082 2.37821,2.06262 0.15168,-0.0456 0.97359,-1.1435 1.82646,-2.4398 2.22836,-3.38696 3.30701,-4.13702 5.09892,-3.54563 0.94841,0.313 1.55188,1.13716 1.88298,2.57156 0.56035,2.42757 -0.56642,7.5103 -2.43496,10.98379 -2.71606,5.04899 -6.1318,8.76107 -9.07489,9.86222 -1.14967,0.43015 -3.04245,0.74672 -3.47488,0.58119 z m -0.36086,-6.66093 c 0.64048,-0.48345 1.41921,-1.10579 1.73051,-1.38297 l 0.56599,-0.50397 -0.86028,0.48621 c -1.92154,1.08598 -3.34448,2.56859 -3.32872,3.46828 0.003,0.15374 0.16759,-0.0508 0.36644,-0.45451 0.19885,-0.40371 0.88558,-1.12958 1.52606,-1.61304 z m 9.64917,-13.10215 c 0.75571,-1.16311 1.6365,-2.36218 1.95733,-2.66458 0.50584,-0.47681 0.51843,-0.51596 0.0948,-0.29477 -0.26869,0.14028 -0.83263,0.71026 -1.25319,1.26662 -1.25278,1.65725 -3.11555,4.64266 -2.62645,4.2093 0.24944,-0.22099 1.07182,-1.35345 1.82752,-2.51657 z m -11.8625,-1.07858 c 0.16073,-0.22948 0.56373,-0.59624 0.89554,-0.81502 0.72823,-0.48016 0.50274,-0.52649 -0.36884,-0.0758 -0.77977,0.40323 -1.08051,0.94328 -1.03883,1.86551 0.0322,0.71227 0.0323,0.71236 0.12605,0.0778 0.0516,-0.34941 0.22534,-0.82306 0.38608,-1.05254 z m 26.87732,20.63098 c -3.9871,-0.76666 -6.71942,-2.7625 -6.94116,-5.0702 -0.0927,-0.96511 -0.0421,-1.1158 0.58547,-1.7434 0.907738,-1.176058 2.438837,-0.604216 3.78331,-0.54069 2.93039,0.13846 3.11974,0.12289 3.53333,-0.29071 0.24036,-0.24035 0.43702,-0.51529 0.43702,-0.61097 0,-0.50694 -0.63453,-0.91001 -1.61304,-1.02465 -1.38918,-0.16275 -2.00774,-0.47478 -2.38414,-1.20266 -0.82162,-1.58883 0.18415,-3.33135 2.2766,-3.94427 0.66983,-0.19621 1.29043,-0.72699 1.29043,-1.10368 0,-0.47253 -0.8885,-0.54723 -2.36626,-0.19895 -3.8343,0.90368 -5.84563,0.0218 -5.88323,-2.57942 -0.0126,-0.87217 0.11168,-1.31037 0.56667,-1.9979 1.58792,-2.39951 6.53556,-4.10785 10.0632,-3.47467 3.62943,0.65147 5.56784,2.56076 5.56784,5.48424 0,1.69599 -0.49217,2.72533 -2.00195,4.18695 -0.66808,0.64676 -1.21469,1.32442 -1.21469,1.5059 0,0.18148 0.45573,0.66852 1.01272,1.08232 2.138,1.58833 2.98267,3.33546 2.80722,5.80654 -0.30383,4.2792 -4.3517,6.70988 -9.51934,5.71622 z m -2.7475,-6.05039 c 1.55192,0.0778 1.87706,0.0541 1.24199,-0.0904 -1.5066,-0.34296 -3.67132,-0.26883 -4.00626,0.1372 -0.26735,0.32408 -0.25006,0.33378 0.18341,0.10282 0.31866,-0.16979 1.18106,-0.21978 2.58086,-0.1496 z m 2.25272,-6.7632 c 0.48081,0 2.15062,-0.9697 2.36101,-1.3711 0.22852,-0.43598 0.22078,-0.4404 -0.16813,-0.096 -0.22422,0.19855 -0.89158,0.5684 -1.48303,0.82189 -1.10866,0.47516 -1.82811,0.99943 -1.82811,1.33214 0,0.10457 0.21181,-0.007 0.4707,-0.2484 0.25888,-0.24119 0.55028,-0.43852 0.64756,-0.43852 z m -4.13375,-7.58133 c 0.50065,-0.42854 1.50492,-1.02254 2.23172,-1.32002 0.7268,-0.29747 1.12788,-0.5455 0.8913,-0.55117 -0.70637,-0.0169 -2.961,1.17449 -3.69511,1.95262 -0.37626,0.39882 -0.74398,1.01548 -0.81716,1.37035 l -0.13306,0.64521 0.30602,-0.65892 c 0.16832,-0.3624 0.71565,-1.00953 1.21629,-1.43807 z m 23.072993,20.4733 c -3.35888,-0.59185 -5.644653,-2.95782 -6.635893,-6.86872 -0.49395,-1.94886 -0.31925,-6.55181 0.33473,-8.81919 1.23552,-4.28368 3.656359,-7.56478 6.047957,-8.19714 0.867116,-0.22927 1.085055,-0.21116 1.814233,0.15076 1.406691,0.69819 1.718592,1.33688 1.704985,3.49134 -0.0065,1.02665 -0.09319,2.56929 -0.192679,3.42808 -0.212751,1.83647 -0.01473,2.19235 1.508803,2.71147 4.594066,1.56535 6.397941,6.79705 3.769738,10.93319 -1.571169,2.47264 -4.975999,3.76504 -8.351874,3.17021 z m 4.008784,-6.95432 c 0.244914,-0.2607 0.497197,-0.80808 0.560635,-1.21641 l 0.115339,-0.74241 -0.410837,0.87878 c -0.225961,0.48333 -0.687699,1.08342 -1.026085,1.33353 -0.512331,0.37869 -0.537389,0.43517 -0.149798,0.33763 0.255998,-0.0644 0.665835,-0.33042 0.910746,-0.59112 z m -0.838518,-1.55038 c 0,-1.24138 -1.028779,-2.10987 -1.738467,-1.46761 -0.583103,0.5277 -0.512487,1.09956 0.227116,1.83916 0.535152,0.53515 0.710434,0.60134 1.075359,0.40603 0.26161,-0.14 0.435992,-0.45101 0.435992,-0.77758 z m -5.612743,-11.89776 c 0.520824,-0.72217 1.270888,-1.51325 1.666807,-1.75794 1.021274,-0.63118 0.894822,-0.75074 -0.16439,-0.15543 -1.004111,0.56434 -1.855028,1.56069 -2.537929,2.9717 -0.50495,1.04332 -0.410738,0.94703 1.035512,-1.05833 z m 20.807682,20.40428 c -2.412142,-0.40475 -4.801808,-2.27348 -5.839616,-4.56662 -1.125272,-2.4864 -1.435223,-5.74676 -0.85994,-9.04567 1.158937,-6.64583 5.256761,-11.61398 8.363467,-10.13975 1.667416,0.79124 2.096553,2.45623 1.521528,5.90334 -0.457129,2.74034 -0.315441,3.18767 1.148581,3.62631 1.357496,0.40671 3.302867,1.83831 4.054285,2.98354 0.981324,1.49563 1.215576,2.43871 1.104767,4.44774 -0.116563,2.11336 -0.734404,3.48011 -2.172362,4.80558 -1.231993,1.13561 -2.311303,1.68196 -3.904479,1.97648 -1.415429,0.26165 -1.903073,0.26295 -3.416231,0.009 z m 3.520627,-6.5514 c 0.776827,-0.40171 1.078495,-0.93967 1.046106,-1.86551 -0.01486,-0.42465 -0.06324,-0.53912 -0.1196,-0.28298 -0.224077,1.01833 -0.591037,1.62834 -1.223161,2.03333 -0.794117,0.50876 -0.605834,0.58186 0.296655,0.11516 z m -0.258003,-2.01323 c 0.0434,-0.29012 -0.173401,-0.70298 -0.585602,-1.11518 -0.548853,-0.54886 -0.724891,-0.61685 -1.090501,-0.42118 -0.630348,0.33735 -0.573741,1.39044 0.111578,2.07576 0.501315,0.50131 0.587613,0.52112 1.021591,0.23442 0.260713,-0.17224 0.505032,-0.52046 0.542934,-0.77382 z M -24.0146,57.398811 c 0.501036,-0.69234 1.314012,-1.55075 1.806613,-1.90759 0.962111,-0.69695 0.961171,-0.83832 -0.0023,-0.34011 -0.867559,0.44863 -2.080842,1.87184 -2.709685,3.17851 -0.300911,0.62527 -0.425281,0.95486 -0.276376,0.73241 0.148905,-0.22244 0.680675,-0.97089 1.181713,-1.66322 z m 43.596076,20.05883 c -1.106674,-0.51349 -1.979886,-1.85759 -2.882723,-4.43729 -1.077177,-3.07784 -1.445243,-3.22234 -2.884577,-1.13249 -1.928269,2.79976 -3.9152093,2.37775 -5.2598543,-1.11715 -0.781386,-2.03092 -1.189141,-1.76188 -2.484911,1.63961 -1.269576,3.33272 -2.227619,4.42082 -3.924655,4.45742 -1.80863201,0.039 -2.91191901,-1.43859 -3.309101,-4.43176 -0.583082,-4.39413 1.15040899,-12.23321 3.484385,-15.75687 0.936933,-1.41451 1.915902,-2.09608 3.185977,-2.21812 1.495006,-0.14365 2.695064,0.60354 4.176392,2.60033 1.6426643,2.21428 1.8873753,2.40479 2.6306013,2.04799 0.330013,-0.15843 1.297718,-1.21938 2.150459,-2.35766 1.839209,-2.45507 2.709326,-3.07676 4.306276,-3.07676 0.931602,0 1.267426,0.11286 1.943229,0.65303 1.643776,1.31388 2.860051,3.85683 3.537833,7.39681 0.408423,2.13316 0.34345,9.60168 -0.100927,11.60125 -0.823285,3.70453 -2.405311,5.13532 -4.568404,4.13166 z M 2.0413017,60.537011 c 0.816063,-2.1225 1.892773,-3.8654 2.728126,-4.41607 0.346577,-0.22846 0.49137,-0.41603 0.321762,-0.41681 -0.169607,-7.7e-4 -0.762565,0.46979 -1.317681,1.04572 -0.964565,1.00072 -1.983761,3.11482 -2.44999,5.08197 -0.238328,1.00557 -0.0045,0.58373 0.717783,-1.29481 z m 11.9313693,-0.93551 c 0.338491,-0.31084 1.14905,-1.29104 1.801242,-2.17821 0.652193,-0.88717 1.39146,-1.78891 1.642817,-2.00385 0.420399,-0.3595 0.422552,-0.37391 0.02687,-0.17981 -0.584654,0.28679 -1.345118,1.13633 -2.681526,2.99563 -0.618571,0.8606 -1.405472,1.70993 -1.748668,1.8874 -0.343199,0.17748 -0.623997,0.37199 -0.623997,0.43226 0,0.1983 0.955999,-0.37739 1.583263,-0.95342 z m -23.2195753,17.29609 c -0.366739,-0.15678 -0.745706,-0.46519 -0.8421487,-0.68535 -0.09644,-0.22016 -0.190459,-2.86825 -0.208921,-5.88463 0.3013752,-3.015364 -0.08654,-5.660754 -0.937795,-8.49534 -1.398639,-4.65732 -1.239219,-6.64652 0.619678,-7.73218 1.1046197,-0.64513 2.8840827,-0.5701 4.1558887,0.17522 2.443671,1.43209 3.536955,4.89969 3.298019,10.46043 -0.340883,7.93335 -3.095746,13.43964 -6.084717,12.16185 z m -1.5006617,-18.82588 c -0.179689,-1.58825 0.127129,-2.42534 1.0570517,-2.88398 0.387545,-0.19114 0.525408,-0.33762 0.320389,-0.34041 -0.578989,-0.008 -1.6166547,1.00603 -1.7592407,1.71897 -0.123596,0.61797 0.208946,2.79265 0.42704,2.79265 0.05522,0 0.03486,-0.57926 -0.04524,-1.28723 z"
         id="path26"
         sodipodi:nodetypes="csscscsccccscccsscscccscccccccssccccccsccccscccsscscccccccscccccccccscccccsccccsssssssccssscssccsscccsssscccsccssccscscsscssscsscsscssssssssssscsssssssssccssssssssssscssssccssssssssssssssssssssssssssssssssssccssssssscsss" />
    </g>
  </g>
</svg>
