<?xml version="1.0" encoding="UTF-8"?>
<!DOCTYPE svg PUBLIC "-//W3C//DTD SVG 1.1//EN" "http://www.w3.org/Graphics/SVG/1.1/DTD/svg11.dtd">
<!-- Creator: CorelDRAW -->
<svg xmlns="http://www.w3.org/2000/svg" xml:space="preserve" width="10.9624mm" height="1.8618mm" version="1.1" style="shape-rendering:geometricPrecision; text-rendering:geometricPrecision; image-rendering:optimizeQuality; fill-rule:evenodd; clip-rule:evenodd"
viewBox="0 0 4.85 0.82"
 xmlns:xlink="http://www.w3.org/1999/xlink"
 xmlns:xodm="http://www.corel.com/coreldraw/odm/2003">
 <defs>
  <style type="text/css">
   <![CDATA[
    .str0 {stroke:#FF6600;stroke-width:0;stroke-miterlimit:22.9256}
    .fil1 {fill:none;fill-rule:nonzero}
    .fil0 {fill:#FF6600;fill-rule:nonzero}
   ]]>
  </style>
 </defs>
 <g id="Слой_x0020_1">
  <metadata id="CorelCorpID_0Corel-Layer"/>
  <path class="fil0" d="M0.14 0l0.51 0 0 0.81 -0.11 0 0 -0.71 -0.29 0 0 0.42c0,0.08 -0,0.15 -0.01,0.19 -0.01,0.04 -0.02,0.07 -0.05,0.09 -0.03,0.02 -0.06,0.03 -0.1,0.03 -0.02,0 -0.05,-0 -0.09,-0.01l0.02 -0.09c0.02,0.01 0.03,0.01 0.05,0.01 0.02,0 0.04,-0.01 0.05,-0.03 0.01,-0.02 0.02,-0.06 0.02,-0.13l0 -0.57z"/>
  <path id="_1" class="fil0" d="M1.21 0.62l0.1 0.01c-0.02,0.06 -0.05,0.11 -0.09,0.14 -0.04,0.03 -0.1,0.05 -0.17,0.05 -0.09,0 -0.15,-0.03 -0.2,-0.08 -0.05,-0.05 -0.08,-0.13 -0.08,-0.22 0,-0.1 0.03,-0.17 0.08,-0.23 0.05,-0.05 0.12,-0.08 0.2,-0.08 0.08,0 0.14,0.03 0.19,0.08 0.05,0.05 0.07,0.13 0.07,0.23 0,0.01 -0,0.01 -0,0.03l-0.44 0c0,0.06 0.02,0.11 0.05,0.15 0.03,0.03 0.07,0.05 0.12,0.05 0.04,0 0.07,-0.01 0.09,-0.03 0.03,-0.02 0.05,-0.05 0.06,-0.09zm-0.33 -0.16l0.33 0c-0,-0.05 -0.02,-0.09 -0.04,-0.11 -0.03,-0.04 -0.07,-0.06 -0.12,-0.06 -0.05,0 -0.08,0.02 -0.12,0.05 -0.03,0.03 -0.05,0.07 -0.05,0.12z"/>
  <polygon id="_2" class="fil0" points="1.44,0.22 1.54,0.22 1.54,0.47 1.81,0.47 1.81,0.22 1.91,0.22 1.91,0.81 1.81,0.81 1.81,0.55 1.54,0.55 1.54,0.81 1.44,0.81 "/>
  <polygon id="_3" class="fil0" points="2.01,0.22 2.48,0.22 2.48,0.31 2.3,0.31 2.3,0.81 2.2,0.81 2.2,0.31 2.01,0.31 "/>
  <path id="_4" class="fil0" d="M3.04 0.22l0 0.59 -0.1 0 0 -0.23 -0.06 0c-0.03,0 -0.06,0 -0.08,0.01 -0.02,0.01 -0.04,0.04 -0.08,0.09l-0.09 0.13 -0.12 0 0.11 -0.16c0.03,-0.05 0.07,-0.08 0.1,-0.08 -0.06,-0.01 -0.1,-0.03 -0.13,-0.06 -0.03,-0.03 -0.04,-0.07 -0.04,-0.11 0,-0.05 0.02,-0.09 0.05,-0.12 0.04,-0.03 0.09,-0.05 0.16,-0.05l0.27 0zm-0.1 0.08l-0.14 0c-0.06,0 -0.1,0.01 -0.11,0.03 -0.02,0.02 -0.03,0.04 -0.03,0.06 0,0.04 0.01,0.06 0.04,0.08 0.03,0.02 0.07,0.02 0.13,0.02l0.11 0 0 -0.19z"/>
  <path id="_5" class="fil0" d="M3.19 0.22l0.1 0 0 0.45 0.28 -0.45 0.11 0 0 0.59 -0.1 0 0 -0.44 -0.28 0.44 -0.11 0 0 -0.59zm0.34 -0.22l0.07 0c-0.01,0.05 -0.02,0.08 -0.05,0.11 -0.03,0.03 -0.07,0.04 -0.11,0.04 -0.05,0 -0.08,-0.01 -0.11,-0.04 -0.03,-0.02 -0.05,-0.06 -0.05,-0.11l0.07 0c0.01,0.03 0.02,0.04 0.03,0.06 0.02,0.01 0.04,0.02 0.06,0.02 0.03,0 0.05,-0.01 0.07,-0.02 0.02,-0.01 0.03,-0.03 0.03,-0.06z"/>
  <path id="_6" class="fil0" d="M3.82 0.22l0.1 0 0 0.25c0.03,0 0.05,-0.01 0.07,-0.02 0.01,-0.01 0.03,-0.05 0.06,-0.11 0.02,-0.05 0.04,-0.08 0.05,-0.09 0.01,-0.01 0.03,-0.02 0.04,-0.03 0.02,-0.01 0.04,-0.01 0.08,-0.01l0.02 0 0 0.08 -0.03 -0c-0.03,0 -0.04,0 -0.05,0.01 -0.01,0.01 -0.02,0.03 -0.04,0.07 -0.02,0.04 -0.03,0.07 -0.04,0.08 -0.01,0.01 -0.03,0.03 -0.06,0.04 0.04,0.01 0.09,0.05 0.13,0.12l0.11 0.18 -0.11 0 -0.11 -0.18c-0.02,-0.04 -0.04,-0.06 -0.06,-0.07 -0.02,-0.01 -0.04,-0.02 -0.06,-0.02l0 0.27 -0.1 0 0 -0.59z"/>
  <path id="_7" class="fil0" d="M4.73 0.74c-0.04,0.03 -0.07,0.05 -0.11,0.07 -0.03,0.01 -0.07,0.02 -0.11,0.02 -0.06,0 -0.11,-0.02 -0.15,-0.05 -0.03,-0.03 -0.05,-0.07 -0.05,-0.12 0,-0.03 0.01,-0.05 0.02,-0.08 0.01,-0.02 0.03,-0.04 0.05,-0.06 0.02,-0.01 0.05,-0.03 0.07,-0.03 0.02,-0.01 0.05,-0.01 0.09,-0.01 0.08,-0.01 0.14,-0.02 0.18,-0.03 0,-0.01 0,-0.02 0,-0.03 0,-0.04 -0.01,-0.07 -0.03,-0.09 -0.03,-0.02 -0.06,-0.03 -0.11,-0.03 -0.05,0 -0.08,0.01 -0.1,0.02 -0.02,0.02 -0.04,0.05 -0.05,0.09l-0.1 -0.01c0.01,-0.04 0.02,-0.08 0.04,-0.1 0.02,-0.03 0.05,-0.05 0.09,-0.06 0.04,-0.01 0.08,-0.02 0.13,-0.02 0.05,0 0.09,0.01 0.12,0.02 0.03,0.01 0.05,0.03 0.07,0.04 0.01,0.02 0.03,0.04 0.03,0.07 0,0.02 0,0.05 0,0.09l0 0.13c0,0.09 0,0.15 0.01,0.18 0,0.02 0.01,0.05 0.02,0.07l-0.1 0c-0.01,-0.02 -0.02,-0.05 -0.02,-0.07zm-0.01 -0.22c-0.04,0.01 -0.09,0.03 -0.16,0.04 -0.04,0.01 -0.07,0.01 -0.09,0.02 -0.02,0.01 -0.03,0.02 -0.04,0.03 -0.01,0.01 -0.01,0.03 -0.01,0.05 0,0.03 0.01,0.05 0.03,0.07 0.02,0.02 0.05,0.03 0.09,0.03 0.04,0 0.07,-0.01 0.1,-0.03 0.03,-0.02 0.05,-0.04 0.07,-0.07 0.01,-0.02 0.02,-0.06 0.02,-0.1l0 -0.04z"/>
  <path id="_8" class="fil1 str0" d="M0.14 0l0.51 0 0 0.81 -0.11 0 0 -0.71 -0.29 0 0 0.42c0,0.08 -0,0.15 -0.01,0.19 -0.01,0.04 -0.02,0.07 -0.05,0.09 -0.03,0.02 -0.06,0.03 -0.1,0.03 -0.02,0 -0.05,-0 -0.09,-0.01l0.02 -0.09c0.02,0.01 0.03,0.01 0.05,0.01 0.02,0 0.04,-0.01 0.05,-0.03 0.01,-0.02 0.02,-0.06 0.02,-0.13l0 -0.57z"/>
  <path id="_9" class="fil1 str0" d="M1.21 0.62l0.1 0.01c-0.02,0.06 -0.05,0.11 -0.09,0.14 -0.04,0.03 -0.1,0.05 -0.17,0.05 -0.09,0 -0.15,-0.03 -0.2,-0.08 -0.05,-0.05 -0.08,-0.13 -0.08,-0.22 0,-0.1 0.03,-0.17 0.08,-0.23 0.05,-0.05 0.12,-0.08 0.2,-0.08 0.08,0 0.14,0.03 0.19,0.08 0.05,0.05 0.07,0.13 0.07,0.23 0,0.01 -0,0.01 -0,0.03l-0.44 0c0,0.06 0.02,0.11 0.05,0.15 0.03,0.03 0.07,0.05 0.12,0.05 0.04,0 0.07,-0.01 0.09,-0.03 0.03,-0.02 0.05,-0.05 0.06,-0.09zm-0.33 -0.16l0.33 0c-0,-0.05 -0.02,-0.09 -0.04,-0.11 -0.03,-0.04 -0.07,-0.06 -0.12,-0.06 -0.05,0 -0.08,0.02 -0.12,0.05 -0.03,0.03 -0.05,0.07 -0.05,0.12z"/>
  <polygon id="_10" class="fil1 str0" points="1.44,0.22 1.54,0.22 1.54,0.47 1.81,0.47 1.81,0.22 1.91,0.22 1.91,0.81 1.81,0.81 1.81,0.55 1.54,0.55 1.54,0.81 1.44,0.81 "/>
  <polygon id="_11" class="fil1 str0" points="2.01,0.22 2.48,0.22 2.48,0.31 2.3,0.31 2.3,0.81 2.2,0.81 2.2,0.31 2.01,0.31 "/>
  <path id="_12" class="fil1 str0" d="M3.04 0.22l0 0.59 -0.1 0 0 -0.23 -0.06 0c-0.03,0 -0.06,0 -0.08,0.01 -0.02,0.01 -0.04,0.04 -0.08,0.09l-0.09 0.13 -0.12 0 0.11 -0.16c0.03,-0.05 0.07,-0.08 0.1,-0.08 -0.06,-0.01 -0.1,-0.03 -0.13,-0.06 -0.03,-0.03 -0.04,-0.07 -0.04,-0.11 0,-0.05 0.02,-0.09 0.05,-0.12 0.04,-0.03 0.09,-0.05 0.16,-0.05l0.27 0zm-0.1 0.08l-0.14 0c-0.06,0 -0.1,0.01 -0.11,0.03 -0.02,0.02 -0.03,0.04 -0.03,0.06 0,0.04 0.01,0.06 0.04,0.08 0.03,0.02 0.07,0.02 0.13,0.02l0.11 0 0 -0.19z"/>
  <path id="_13" class="fil1 str0" d="M3.19 0.22l0.1 0 0 0.45 0.28 -0.45 0.11 0 0 0.59 -0.1 0 0 -0.44 -0.28 0.44 -0.11 0 0 -0.59zm0.34 -0.22l0.07 0c-0.01,0.05 -0.02,0.08 -0.05,0.11 -0.03,0.03 -0.07,0.04 -0.11,0.04 -0.05,0 -0.08,-0.01 -0.11,-0.04 -0.03,-0.02 -0.05,-0.06 -0.05,-0.11l0.07 0c0.01,0.03 0.02,0.04 0.03,0.06 0.02,0.01 0.04,0.02 0.06,0.02 0.03,0 0.05,-0.01 0.07,-0.02 0.02,-0.01 0.03,-0.03 0.03,-0.06z"/>
  <path id="_14" class="fil1 str0" d="M3.82 0.22l0.1 0 0 0.25c0.03,0 0.05,-0.01 0.07,-0.02 0.01,-0.01 0.03,-0.05 0.06,-0.11 0.02,-0.05 0.04,-0.08 0.05,-0.09 0.01,-0.01 0.03,-0.02 0.04,-0.03 0.02,-0.01 0.04,-0.01 0.08,-0.01l0.02 0 0 0.08 -0.03 -0c-0.03,0 -0.04,0 -0.05,0.01 -0.01,0.01 -0.02,0.03 -0.04,0.07 -0.02,0.04 -0.03,0.07 -0.04,0.08 -0.01,0.01 -0.03,0.03 -0.06,0.04 0.04,0.01 0.09,0.05 0.13,0.12l0.11 0.18 -0.11 0 -0.11 -0.18c-0.02,-0.04 -0.04,-0.06 -0.06,-0.07 -0.02,-0.01 -0.04,-0.02 -0.06,-0.02l0 0.27 -0.1 0 0 -0.59z"/>
  <path id="_15" class="fil1 str0" d="M4.73 0.74c-0.04,0.03 -0.07,0.05 -0.11,0.07 -0.03,0.01 -0.07,0.02 -0.11,0.02 -0.06,0 -0.11,-0.02 -0.15,-0.05 -0.03,-0.03 -0.05,-0.07 -0.05,-0.12 0,-0.03 0.01,-0.05 0.02,-0.08 0.01,-0.02 0.03,-0.04 0.05,-0.06 0.02,-0.01 0.05,-0.03 0.07,-0.03 0.02,-0.01 0.05,-0.01 0.09,-0.01 0.08,-0.01 0.14,-0.02 0.18,-0.03 0,-0.01 0,-0.02 0,-0.03 0,-0.04 -0.01,-0.07 -0.03,-0.09 -0.03,-0.02 -0.06,-0.03 -0.11,-0.03 -0.05,0 -0.08,0.01 -0.1,0.02 -0.02,0.02 -0.04,0.05 -0.05,0.09l-0.1 -0.01c0.01,-0.04 0.02,-0.08 0.04,-0.1 0.02,-0.03 0.05,-0.05 0.09,-0.06 0.04,-0.01 0.08,-0.02 0.13,-0.02 0.05,0 0.09,0.01 0.12,0.02 0.03,0.01 0.05,0.03 0.07,0.04 0.01,0.02 0.03,0.04 0.03,0.07 0,0.02 0,0.05 0,0.09l0 0.13c0,0.09 0,0.15 0.01,0.18 0,0.02 0.01,0.05 0.02,0.07l-0.1 0c-0.01,-0.02 -0.02,-0.05 -0.02,-0.07zm-0.01 -0.22c-0.04,0.01 -0.09,0.03 -0.16,0.04 -0.04,0.01 -0.07,0.01 -0.09,0.02 -0.02,0.01 -0.03,0.02 -0.04,0.03 -0.01,0.01 -0.01,0.03 -0.01,0.05 0,0.03 0.01,0.05 0.03,0.07 0.02,0.02 0.05,0.03 0.09,0.03 0.04,0 0.07,-0.01 0.1,-0.03 0.03,-0.02 0.05,-0.04 0.07,-0.07 0.01,-0.02 0.02,-0.06 0.02,-0.1l0 -0.04z"/>
 </g>
</svg>
