<?xml version="1.0" encoding="UTF-8"?>
<!DOCTYPE svg PUBLIC "-//W3C//DTD SVG 1.1//EN" "http://www.w3.org/Graphics/SVG/1.1/DTD/svg11.dtd">
<!-- Creator: CorelDRAW -->
<svg xmlns="http://www.w3.org/2000/svg" xml:space="preserve" width="27.5469mm" height="5.5693mm" version="1.1" style="shape-rendering:geometricPrecision; text-rendering:geometricPrecision; image-rendering:optimizeQuality; fill-rule:evenodd; clip-rule:evenodd"
viewBox="0 0 29.63 5.99"
 xmlns:xlink="http://www.w3.org/1999/xlink"
 xmlns:xodm="http://www.corel.com/coreldraw/odm/2003">
 <defs>
  <style type="text/css">
   <![CDATA[
    .str0 {stroke:#FF6600;stroke-width:0;stroke-miterlimit:22.9256}
    .fil1 {fill:none;fill-rule:nonzero}
    .fil0 {fill:#FF6600;fill-rule:nonzero}
   ]]>
  </style>
 </defs>
 <g id="Слой_x0020_1">
  <metadata id="CorelCorpID_0Corel-Layer"/>
  <path class="fil0" d="M0 2l0 -1.97 0.39 0 0.47 1.39c0.04,0.13 0.07,0.23 0.09,0.29 0.02,-0.07 0.06,-0.18 0.11,-0.32l0.47 -1.37 0.35 0 0 1.97 -0.25 0 0 -1.65 -0.57 1.65 -0.23 0 -0.57 -1.68 0 1.68 -0.25 0z"/>
  <path id="_1" class="fil0" d="M2.21 1.29c0,-0.26 0.07,-0.46 0.22,-0.59 0.12,-0.11 0.27,-0.16 0.45,-0.16 0.2,0 0.36,0.06 0.48,0.19 0.12,0.13 0.19,0.31 0.19,0.53 0,0.18 -0.03,0.33 -0.08,0.43 -0.06,0.1 -0.14,0.19 -0.24,0.24 -0.1,0.06 -0.22,0.09 -0.34,0.09 -0.2,0 -0.36,-0.06 -0.48,-0.19 -0.12,-0.13 -0.18,-0.31 -0.18,-0.55zm0.25 0c0,0.18 0.04,0.32 0.12,0.41 0.08,0.09 0.18,0.14 0.3,0.14 0.12,0 0.22,-0.05 0.3,-0.14 0.08,-0.09 0.12,-0.23 0.12,-0.42 0,-0.18 -0.04,-0.31 -0.12,-0.4 -0.08,-0.09 -0.18,-0.14 -0.3,-0.14 -0.12,0 -0.22,0.04 -0.3,0.14 -0.08,0.09 -0.12,0.23 -0.12,0.41z"/>
  <path id="_2" class="fil0" d="M3.83 2.55l0 -1.97 0.22 0 0 0.19c0.05,-0.07 0.11,-0.13 0.18,-0.16 0.07,-0.04 0.14,-0.05 0.24,-0.05 0.12,0 0.23,0.03 0.32,0.09 0.09,0.06 0.16,0.15 0.21,0.26 0.05,0.11 0.07,0.24 0.07,0.37 0,0.15 -0.03,0.28 -0.08,0.39 -0.05,0.12 -0.13,0.21 -0.23,0.27 -0.1,0.06 -0.2,0.09 -0.31,0.09 -0.08,0 -0.15,-0.02 -0.22,-0.05 -0.06,-0.03 -0.12,-0.08 -0.16,-0.13l0 0.7 -0.24 0zm0.22 -1.25c0,0.18 0.04,0.32 0.11,0.41 0.07,0.09 0.16,0.13 0.27,0.13 0.11,0 0.2,-0.05 0.28,-0.14 0.08,-0.09 0.11,-0.23 0.11,-0.42 0,-0.18 -0.04,-0.32 -0.11,-0.41 -0.07,-0.09 -0.16,-0.14 -0.27,-0.14 -0.1,0 -0.19,0.05 -0.27,0.14 -0.08,0.1 -0.12,0.24 -0.12,0.42z"/>
  <path id="_3" class="fil0" d="M5.27 1.29c0,-0.26 0.07,-0.46 0.22,-0.59 0.12,-0.11 0.27,-0.16 0.45,-0.16 0.2,0 0.36,0.06 0.48,0.19 0.12,0.13 0.19,0.31 0.19,0.53 0,0.18 -0.03,0.33 -0.08,0.43 -0.06,0.1 -0.14,0.19 -0.24,0.24 -0.1,0.06 -0.22,0.09 -0.34,0.09 -0.2,0 -0.36,-0.06 -0.48,-0.19 -0.12,-0.13 -0.18,-0.31 -0.18,-0.55zm0.25 0c0,0.18 0.04,0.32 0.12,0.41 0.08,0.09 0.18,0.14 0.3,0.14 0.12,0 0.22,-0.05 0.3,-0.14 0.08,-0.09 0.12,-0.23 0.12,-0.42 0,-0.18 -0.04,-0.31 -0.12,-0.4 -0.08,-0.09 -0.18,-0.14 -0.3,-0.14 -0.12,0 -0.22,0.04 -0.3,0.14 -0.08,0.09 -0.12,0.23 -0.12,0.41z"/>
  <path id="_4" class="fil0" d="M7.17 1.36l0 -0.19c0.1,-0 0.17,-0.01 0.21,-0.01 0.04,-0.01 0.07,-0.03 0.11,-0.06 0.03,-0.04 0.05,-0.08 0.05,-0.13 0,-0.06 -0.02,-0.12 -0.07,-0.16 -0.04,-0.04 -0.1,-0.06 -0.17,-0.06 -0.14,0 -0.23,0.08 -0.29,0.24l-0.23 -0.04c0.07,-0.27 0.24,-0.4 0.52,-0.4 0.15,0 0.27,0.04 0.36,0.12 0.09,0.08 0.13,0.18 0.13,0.3 0,0.12 -0.06,0.21 -0.17,0.28 0.07,0.04 0.13,0.09 0.16,0.15 0.04,0.06 0.05,0.13 0.05,0.21 0,0.13 -0.05,0.23 -0.14,0.31 -0.09,0.08 -0.22,0.12 -0.39,0.12 -0.33,0 -0.51,-0.14 -0.57,-0.43l0.23 -0.05c0.02,0.09 0.06,0.16 0.13,0.21 0.06,0.05 0.14,0.07 0.22,0.07 0.08,0 0.15,-0.02 0.2,-0.07 0.05,-0.05 0.08,-0.1 0.08,-0.18 0,-0.06 -0.02,-0.1 -0.05,-0.14 -0.03,-0.04 -0.07,-0.07 -0.11,-0.08 -0.04,-0.01 -0.11,-0.02 -0.21,-0.02 -0.01,0 -0.03,0 -0.05,0z"/>
  <path id="_5" class="fil0" d="M8.18 2l0 -0.28 0.27 0 0 0.28c0,0.1 -0.02,0.18 -0.05,0.25 -0.04,0.06 -0.09,0.11 -0.17,0.14l-0.07 -0.1c0.05,-0.02 0.09,-0.06 0.11,-0.1 0.02,-0.04 0.04,-0.11 0.04,-0.19l-0.14 0z"/>
  <path id="_6" class="fil0" d="M11.08 1.31l0.26 0.07c-0.05,0.21 -0.15,0.38 -0.29,0.49 -0.14,0.11 -0.31,0.17 -0.52,0.17 -0.21,0 -0.38,-0.04 -0.52,-0.13 -0.13,-0.09 -0.23,-0.21 -0.3,-0.37 -0.07,-0.16 -0.1,-0.34 -0.1,-0.53 0,-0.2 0.04,-0.38 0.12,-0.54 0.08,-0.15 0.19,-0.27 0.33,-0.35 0.14,-0.08 0.3,-0.12 0.48,-0.12 0.2,0 0.36,0.05 0.5,0.15 0.13,0.1 0.23,0.24 0.28,0.42l-0.26 0.06c-0.05,-0.14 -0.11,-0.25 -0.2,-0.31 -0.09,-0.07 -0.2,-0.1 -0.33,-0.1 -0.15,0 -0.28,0.04 -0.38,0.11 -0.1,0.07 -0.17,0.17 -0.21,0.29 -0.04,0.12 -0.06,0.25 -0.06,0.38 0,0.17 0.02,0.31 0.07,0.44 0.05,0.13 0.12,0.22 0.23,0.28 0.1,0.06 0.21,0.09 0.33,0.09 0.15,0 0.27,-0.04 0.37,-0.13 0.1,-0.08 0.17,-0.21 0.2,-0.37z"/>
  <path id="_7" class="fil0" d="M11.54 1.29c0,-0.26 0.07,-0.46 0.22,-0.59 0.12,-0.11 0.27,-0.16 0.45,-0.16 0.2,0 0.36,0.06 0.48,0.19 0.12,0.13 0.19,0.31 0.19,0.53 0,0.18 -0.03,0.33 -0.08,0.43 -0.06,0.1 -0.14,0.19 -0.24,0.24 -0.1,0.06 -0.22,0.09 -0.34,0.09 -0.2,0 -0.36,-0.06 -0.48,-0.19 -0.12,-0.13 -0.18,-0.31 -0.18,-0.55zm0.25 0c0,0.18 0.04,0.32 0.12,0.41 0.08,0.09 0.18,0.14 0.3,0.14 0.12,0 0.22,-0.05 0.3,-0.14 0.08,-0.09 0.12,-0.23 0.12,-0.42 0,-0.18 -0.04,-0.31 -0.12,-0.4 -0.08,-0.09 -0.18,-0.14 -0.3,-0.14 -0.12,0 -0.22,0.04 -0.3,0.14 -0.08,0.09 -0.12,0.23 -0.12,0.41z"/>
  <path id="_8" class="fil0" d="M13.22 0.58l1.12 0 0 1.43 -0.24 0 0 -1.23 -0.64 0 0 0.71c0,0.17 -0.01,0.27 -0.02,0.33 -0.01,0.05 -0.04,0.1 -0.09,0.14 -0.05,0.04 -0.12,0.06 -0.21,0.06 -0.06,0 -0.12,-0 -0.19,-0.01l0 -0.2 0.11 0c0.05,0 0.09,-0.01 0.11,-0.02 0.02,-0.01 0.04,-0.03 0.04,-0.05 0.01,-0.02 0.01,-0.1 0.01,-0.22l0 -0.94z"/>
  <polygon id="_9" class="fil0" points="14.7,0.58 14.95,0.58 14.95,1.17 15.62,1.17 15.62,0.58 15.86,0.58 15.86,2 15.62,2 15.62,1.37 14.95,1.37 14.95,2 14.7,2 "/>
  <polygon id="_10" class="fil0" points="16.23,0.58 16.47,0.58 16.47,1.8 17.14,1.8 17.14,0.58 17.38,0.58 17.38,1.8 17.54,1.8 17.54,2.41 17.34,2.41 17.34,2 16.23,2 "/>
  <path id="_11" class="fil0" d="M18.74 1.54l0.25 0.03c-0.04,0.15 -0.11,0.26 -0.22,0.34 -0.11,0.08 -0.24,0.12 -0.41,0.12 -0.21,0 -0.37,-0.06 -0.5,-0.19 -0.12,-0.13 -0.18,-0.31 -0.18,-0.54 0,-0.24 0.06,-0.43 0.18,-0.56 0.12,-0.13 0.28,-0.2 0.48,-0.2 0.19,0 0.35,0.06 0.47,0.19 0.12,0.13 0.18,0.31 0.18,0.55 0,0.01 -0,0.04 -0,0.06l-1.06 0c0.01,0.16 0.05,0.28 0.13,0.36 0.08,0.08 0.18,0.12 0.3,0.12 0.09,0 0.16,-0.02 0.23,-0.07 0.06,-0.05 0.11,-0.12 0.15,-0.22zm-0.79 -0.39l0.79 0c-0.01,-0.12 -0.04,-0.21 -0.09,-0.27 -0.08,-0.09 -0.18,-0.14 -0.3,-0.14 -0.11,0 -0.2,0.04 -0.28,0.11 -0.08,0.07 -0.12,0.17 -0.13,0.3z"/>
  <polygon id="_12" class="fil0" points="20.06,0.58 20.3,0.58 20.3,1.66 20.98,0.58 21.24,0.58 21.24,2 20.99,2 20.99,0.92 20.32,2 20.06,2 "/>
  <path id="_13" class="fil0" d="M22.38 2l0 -1.97 0.74 0c0.15,0 0.27,0.02 0.36,0.06 0.09,0.04 0.16,0.1 0.21,0.18 0.05,0.08 0.08,0.17 0.08,0.26 0,0.08 -0.02,0.16 -0.07,0.24 -0.05,0.07 -0.11,0.13 -0.21,0.18 0.12,0.03 0.21,0.09 0.27,0.18 0.06,0.08 0.1,0.18 0.1,0.3 0,0.09 -0.02,0.18 -0.06,0.26 -0.04,0.08 -0.09,0.14 -0.14,0.18 -0.06,0.04 -0.13,0.08 -0.22,0.1 -0.09,0.02 -0.19,0.03 -0.32,0.03l-0.75 0zm0.26 -1.14l0.43 0c0.12,0 0.2,-0.01 0.25,-0.02 0.07,-0.02 0.12,-0.05 0.15,-0.1 0.03,-0.05 0.05,-0.1 0.05,-0.17 0,-0.07 -0.02,-0.12 -0.05,-0.17 -0.03,-0.05 -0.08,-0.08 -0.13,-0.1 -0.06,-0.02 -0.16,-0.03 -0.3,-0.03l-0.39 0 0 0.6zm0 0.91l0.49 0c0.08,0 0.14,-0 0.18,-0.01 0.06,-0.01 0.11,-0.03 0.15,-0.05 0.04,-0.03 0.07,-0.06 0.1,-0.11 0.03,-0.05 0.04,-0.1 0.04,-0.17 0,-0.07 -0.02,-0.14 -0.06,-0.19 -0.04,-0.05 -0.09,-0.09 -0.16,-0.11 -0.07,-0.02 -0.16,-0.03 -0.29,-0.03l-0.46 0 0 0.68z"/>
  <path id="_14" class="fil0" d="M25.17 1.54l0.25 0.03c-0.04,0.15 -0.11,0.26 -0.22,0.34 -0.11,0.08 -0.24,0.12 -0.41,0.12 -0.21,0 -0.37,-0.06 -0.5,-0.19 -0.12,-0.13 -0.18,-0.31 -0.18,-0.54 0,-0.24 0.06,-0.43 0.18,-0.56 0.12,-0.13 0.28,-0.2 0.48,-0.2 0.19,0 0.35,0.06 0.47,0.19 0.12,0.13 0.18,0.31 0.18,0.55 0,0.01 -0,0.04 -0,0.06l-1.06 0c0.01,0.16 0.05,0.28 0.13,0.36 0.08,0.08 0.18,0.12 0.3,0.12 0.09,0 0.16,-0.02 0.23,-0.07 0.06,-0.05 0.11,-0.12 0.15,-0.22zm-0.79 -0.39l0.79 0c-0.01,-0.12 -0.04,-0.21 -0.09,-0.27 -0.08,-0.09 -0.18,-0.14 -0.3,-0.14 -0.11,0 -0.2,0.04 -0.28,0.11 -0.08,0.07 -0.12,0.17 -0.13,0.3z"/>
  <polygon id="_15" class="fil0" points="25.51,0.58 26.66,0.58 26.66,0.78 26.21,0.78 26.21,2 25.96,2 25.96,0.78 25.51,0.78 "/>
  <path id="_16" class="fil0" d="M27.84 1.54l0.25 0.03c-0.04,0.15 -0.11,0.26 -0.22,0.34 -0.11,0.08 -0.24,0.12 -0.41,0.12 -0.21,0 -0.37,-0.06 -0.5,-0.19 -0.12,-0.13 -0.18,-0.31 -0.18,-0.54 0,-0.24 0.06,-0.43 0.18,-0.56 0.12,-0.13 0.28,-0.2 0.48,-0.2 0.19,0 0.35,0.06 0.47,0.19 0.12,0.13 0.18,0.31 0.18,0.55 0,0.01 -0,0.04 -0,0.06l-1.06 0c0.01,0.16 0.05,0.28 0.13,0.36 0.08,0.08 0.18,0.12 0.3,0.12 0.09,0 0.16,-0.02 0.23,-0.07 0.06,-0.05 0.11,-0.12 0.15,-0.22zm-0.79 -0.39l0.79 0c-0.01,-0.12 -0.04,-0.21 -0.09,-0.27 -0.08,-0.09 -0.18,-0.14 -0.3,-0.14 -0.11,0 -0.2,0.04 -0.28,0.11 -0.08,0.07 -0.12,0.17 -0.13,0.3z"/>
  <path id="_17" class="fil0" d="M28.39 2.55l0 -1.97 0.22 0 0 0.19c0.05,-0.07 0.11,-0.13 0.18,-0.16 0.07,-0.04 0.14,-0.05 0.24,-0.05 0.12,0 0.23,0.03 0.32,0.09 0.09,0.06 0.16,0.15 0.21,0.26 0.05,0.11 0.07,0.24 0.07,0.37 0,0.15 -0.03,0.28 -0.08,0.39 -0.05,0.12 -0.13,0.21 -0.23,0.27 -0.1,0.06 -0.2,0.09 -0.31,0.09 -0.08,0 -0.15,-0.02 -0.22,-0.05 -0.06,-0.03 -0.12,-0.08 -0.16,-0.13l0 0.7 -0.24 0zm0.22 -1.25c0,0.18 0.04,0.32 0.11,0.41 0.07,0.09 0.16,0.13 0.27,0.13 0.11,0 0.2,-0.05 0.28,-0.14 0.08,-0.09 0.11,-0.23 0.11,-0.42 0,-0.18 -0.04,-0.32 -0.11,-0.41 -0.07,-0.09 -0.16,-0.14 -0.27,-0.14 -0.1,0 -0.19,0.05 -0.27,0.14 -0.08,0.1 -0.12,0.24 -0.12,0.42z"/>
  <path id="_18" class="fil0" d="M5.53 5.96l0 -1.97 0.22 0 0 0.19c0.05,-0.07 0.11,-0.13 0.18,-0.16 0.07,-0.04 0.14,-0.05 0.24,-0.05 0.12,0 0.23,0.03 0.32,0.09 0.09,0.06 0.16,0.15 0.21,0.26 0.05,0.11 0.07,0.24 0.07,0.37 0,0.15 -0.03,0.28 -0.08,0.39 -0.05,0.12 -0.13,0.21 -0.23,0.27 -0.1,0.06 -0.2,0.09 -0.31,0.09 -0.08,0 -0.15,-0.02 -0.22,-0.05 -0.06,-0.03 -0.12,-0.08 -0.16,-0.13l0 0.7 -0.24 0zm0.22 -1.25c0,0.18 0.04,0.32 0.11,0.41 0.07,0.09 0.16,0.13 0.27,0.13 0.11,0 0.2,-0.05 0.28,-0.14 0.08,-0.09 0.11,-0.23 0.11,-0.42 0,-0.18 -0.04,-0.32 -0.11,-0.41 -0.07,-0.09 -0.16,-0.14 -0.27,-0.14 -0.1,0 -0.19,0.05 -0.27,0.14 -0.08,0.1 -0.12,0.24 -0.12,0.42z"/>
  <path id="_19" class="fil0" d="M7.02 5.96l-0.03 -0.22c0.05,0.01 0.1,0.02 0.14,0.02 0.05,0 0.1,-0.01 0.13,-0.03 0.03,-0.02 0.06,-0.04 0.08,-0.08 0.02,-0.02 0.04,-0.08 0.07,-0.18 0,-0.01 0.01,-0.03 0.02,-0.06l-0.54 -1.43 0.26 0 0.3 0.82c0.04,0.1 0.07,0.21 0.1,0.33 0.03,-0.11 0.06,-0.22 0.1,-0.32l0.3 -0.83 0.24 0 -0.54 1.45c-0.06,0.16 -0.1,0.26 -0.14,0.32 -0.04,0.08 -0.09,0.14 -0.15,0.17 -0.06,0.04 -0.12,0.06 -0.2,0.06 -0.05,0 -0.1,-0.01 -0.16,-0.03z"/>
  <path id="_20" class="fil0" d="M9.31 4.89l0.24 0.03c-0.03,0.16 -0.09,0.29 -0.2,0.38 -0.11,0.09 -0.24,0.14 -0.39,0.14 -0.19,0 -0.35,-0.06 -0.47,-0.19 -0.12,-0.13 -0.18,-0.31 -0.18,-0.55 0,-0.15 0.03,-0.29 0.08,-0.4 0.05,-0.12 0.13,-0.2 0.23,-0.26 0.1,-0.06 0.22,-0.09 0.34,-0.09 0.15,0 0.28,0.04 0.38,0.12 0.1,0.08 0.16,0.19 0.19,0.33l-0.23 0.04c-0.02,-0.1 -0.06,-0.17 -0.12,-0.22 -0.06,-0.05 -0.13,-0.07 -0.21,-0.07 -0.12,0 -0.22,0.04 -0.3,0.13 -0.08,0.09 -0.11,0.23 -0.11,0.41 0,0.19 0.04,0.33 0.11,0.42 0.07,0.09 0.17,0.13 0.29,0.13 0.1,0 0.17,-0.03 0.24,-0.09 0.06,-0.06 0.1,-0.15 0.12,-0.27z"/>
  <path id="_21" class="fil0" d="M10.68 4.89l0.24 0.03c-0.03,0.16 -0.09,0.29 -0.2,0.38 -0.11,0.09 -0.24,0.14 -0.39,0.14 -0.19,0 -0.35,-0.06 -0.47,-0.19 -0.12,-0.13 -0.18,-0.31 -0.18,-0.55 0,-0.15 0.03,-0.29 0.08,-0.4 0.05,-0.12 0.13,-0.2 0.23,-0.26 0.1,-0.06 0.22,-0.09 0.34,-0.09 0.15,0 0.28,0.04 0.38,0.12 0.1,0.08 0.16,0.19 0.19,0.33l-0.23 0.04c-0.02,-0.1 -0.06,-0.17 -0.12,-0.22 -0.06,-0.05 -0.13,-0.07 -0.21,-0.07 -0.12,0 -0.22,0.04 -0.3,0.13 -0.08,0.09 -0.11,0.23 -0.11,0.41 0,0.19 0.04,0.33 0.11,0.42 0.07,0.09 0.17,0.13 0.29,0.13 0.1,0 0.17,-0.03 0.24,-0.09 0.06,-0.06 0.1,-0.15 0.12,-0.27z"/>
  <path id="_22" class="fil0" d="M11.12 3.99l0.24 0 0 0.62c0.08,0 0.13,-0.01 0.16,-0.04 0.03,-0.03 0.08,-0.12 0.14,-0.26 0.05,-0.11 0.09,-0.19 0.12,-0.22 0.03,-0.04 0.06,-0.06 0.1,-0.07 0.04,-0.01 0.1,-0.02 0.19,-0.02l0.05 0 0 0.2 -0.07 -0c-0.06,0 -0.1,0.01 -0.12,0.03 -0.02,0.02 -0.05,0.08 -0.09,0.18 -0.04,0.09 -0.07,0.16 -0.1,0.19 -0.03,0.04 -0.08,0.07 -0.14,0.1 0.1,0.03 0.21,0.12 0.31,0.29l0.27 0.44 -0.27 0 -0.26 -0.44c-0.05,-0.09 -0.1,-0.15 -0.14,-0.18 -0.04,-0.03 -0.09,-0.04 -0.14,-0.04l0 0.66 -0.24 0 0 -1.43z"/>
  <path id="_23" class="fil0" d="M13.32 5.23c-0.09,0.08 -0.18,0.13 -0.26,0.16 -0.08,0.03 -0.17,0.05 -0.27,0.05 -0.16,0 -0.28,-0.04 -0.36,-0.11 -0.08,-0.08 -0.13,-0.17 -0.13,-0.29 0,-0.07 0.02,-0.13 0.05,-0.19 0.03,-0.06 0.07,-0.1 0.13,-0.14 0.05,-0.03 0.11,-0.06 0.17,-0.08 0.05,-0.01 0.12,-0.02 0.22,-0.04 0.2,-0.02 0.34,-0.05 0.43,-0.08 0,-0.03 0,-0.05 0,-0.06 0,-0.1 -0.02,-0.17 -0.07,-0.21 -0.06,-0.05 -0.15,-0.08 -0.28,-0.08 -0.11,0 -0.2,0.02 -0.25,0.06 -0.05,0.04 -0.09,0.11 -0.12,0.21l-0.24 -0.03c0.02,-0.1 0.06,-0.18 0.11,-0.25 0.05,-0.06 0.12,-0.11 0.21,-0.14 0.09,-0.03 0.2,-0.05 0.32,-0.05 0.12,0 0.22,0.01 0.3,0.04 0.08,0.03 0.13,0.06 0.17,0.11 0.04,0.04 0.06,0.1 0.08,0.17 0.01,0.04 0.01,0.12 0.01,0.22l0 0.32c0,0.22 0,0.37 0.02,0.43 0.01,0.06 0.03,0.12 0.06,0.17l-0.25 0c-0.02,-0.05 -0.04,-0.11 -0.05,-0.18zm-0.02 -0.54c-0.09,0.04 -0.22,0.07 -0.4,0.09 -0.1,0.01 -0.17,0.03 -0.21,0.05 -0.04,0.02 -0.07,0.04 -0.1,0.08 -0.02,0.03 -0.03,0.07 -0.03,0.11 0,0.06 0.02,0.12 0.07,0.16 0.05,0.04 0.12,0.06 0.21,0.06 0.09,0 0.18,-0.02 0.25,-0.06 0.07,-0.04 0.13,-0.1 0.16,-0.17 0.03,-0.05 0.04,-0.13 0.04,-0.24l0 -0.09z"/>
  <path id="_24" class="fil0" d="M15.04 3.99l0 1.43 -0.24 0 0 -0.56 -0.14 0c-0.08,0 -0.15,0.01 -0.19,0.03 -0.04,0.02 -0.1,0.09 -0.18,0.21l-0.21 0.31 -0.3 0 0.26 -0.38c0.08,-0.12 0.16,-0.18 0.24,-0.2 -0.14,-0.02 -0.24,-0.07 -0.31,-0.15 -0.07,-0.08 -0.1,-0.17 -0.1,-0.28 0,-0.12 0.04,-0.22 0.13,-0.3 0.09,-0.08 0.21,-0.12 0.38,-0.12l0.66 0zm-0.24 0.2l-0.34 0c-0.14,0 -0.24,0.02 -0.28,0.07 -0.04,0.04 -0.06,0.1 -0.06,0.16 0,0.09 0.03,0.15 0.09,0.19 0.06,0.04 0.17,0.06 0.33,0.06l0.27 0 0 -0.47z"/>
  <path id="_25" class="fil0" d="M17.11 4.89l0.24 0.03c-0.03,0.16 -0.09,0.29 -0.2,0.38 -0.11,0.09 -0.24,0.14 -0.39,0.14 -0.19,0 -0.35,-0.06 -0.47,-0.19 -0.12,-0.13 -0.18,-0.31 -0.18,-0.55 0,-0.15 0.03,-0.29 0.08,-0.4 0.05,-0.12 0.13,-0.2 0.23,-0.26 0.1,-0.06 0.22,-0.09 0.34,-0.09 0.15,0 0.28,0.04 0.38,0.12 0.1,0.08 0.16,0.19 0.19,0.33l-0.23 0.04c-0.02,-0.1 -0.06,-0.17 -0.12,-0.22 -0.06,-0.05 -0.13,-0.07 -0.21,-0.07 -0.12,0 -0.22,0.04 -0.3,0.13 -0.08,0.09 -0.11,0.23 -0.11,0.41 0,0.19 0.04,0.33 0.11,0.42 0.07,0.09 0.17,0.13 0.29,0.13 0.1,0 0.17,-0.03 0.24,-0.09 0.06,-0.06 0.1,-0.15 0.12,-0.27z"/>
  <path id="_26" class="fil0" d="M17.55 3.99l0.24 0 0 0.62c0.08,0 0.13,-0.01 0.16,-0.04 0.03,-0.03 0.08,-0.12 0.14,-0.26 0.05,-0.11 0.09,-0.19 0.12,-0.22 0.03,-0.04 0.06,-0.06 0.1,-0.07 0.04,-0.01 0.1,-0.02 0.19,-0.02l0.05 0 0 0.2 -0.07 -0c-0.06,0 -0.1,0.01 -0.12,0.03 -0.02,0.02 -0.05,0.08 -0.09,0.18 -0.04,0.09 -0.07,0.16 -0.1,0.19 -0.03,0.04 -0.08,0.07 -0.14,0.1 0.1,0.03 0.21,0.12 0.31,0.29l0.27 0.44 -0.27 0 -0.26 -0.44c-0.05,-0.09 -0.1,-0.15 -0.14,-0.18 -0.04,-0.03 -0.09,-0.04 -0.14,-0.04l0 0.66 -0.24 0 0 -1.43z"/>
  <path id="_27" class="fil0" d="M19.74 5.23c-0.09,0.08 -0.18,0.13 -0.26,0.16 -0.08,0.03 -0.17,0.05 -0.27,0.05 -0.16,0 -0.28,-0.04 -0.36,-0.11 -0.08,-0.08 -0.13,-0.17 -0.13,-0.29 0,-0.07 0.02,-0.13 0.05,-0.19 0.03,-0.06 0.07,-0.1 0.13,-0.14 0.05,-0.03 0.11,-0.06 0.17,-0.08 0.05,-0.01 0.12,-0.02 0.22,-0.04 0.2,-0.02 0.34,-0.05 0.43,-0.08 0,-0.03 0,-0.05 0,-0.06 0,-0.1 -0.02,-0.17 -0.07,-0.21 -0.06,-0.05 -0.15,-0.08 -0.28,-0.08 -0.11,0 -0.2,0.02 -0.25,0.06 -0.05,0.04 -0.09,0.11 -0.12,0.21l-0.24 -0.03c0.02,-0.1 0.06,-0.18 0.11,-0.25 0.05,-0.06 0.12,-0.11 0.21,-0.14 0.09,-0.03 0.2,-0.05 0.32,-0.05 0.12,0 0.22,0.01 0.3,0.04 0.08,0.03 0.13,0.06 0.17,0.11 0.04,0.04 0.06,0.1 0.08,0.17 0.01,0.04 0.01,0.12 0.01,0.22l0 0.32c0,0.22 0,0.37 0.02,0.43 0.01,0.06 0.03,0.12 0.06,0.17l-0.25 0c-0.02,-0.05 -0.04,-0.11 -0.05,-0.18zm-0.02 -0.54c-0.09,0.04 -0.22,0.07 -0.4,0.09 -0.1,0.01 -0.17,0.03 -0.21,0.05 -0.04,0.02 -0.07,0.04 -0.1,0.08 -0.02,0.03 -0.03,0.07 -0.03,0.11 0,0.06 0.02,0.12 0.07,0.16 0.05,0.04 0.12,0.06 0.21,0.06 0.09,0 0.18,-0.02 0.25,-0.06 0.07,-0.04 0.13,-0.1 0.16,-0.17 0.03,-0.05 0.04,-0.13 0.04,-0.24l0 -0.09z"/>
  <path id="_28" class="fil0" d="M20.63 4.77l0 -0.19c0.1,-0 0.17,-0.01 0.21,-0.01 0.04,-0.01 0.07,-0.03 0.11,-0.06 0.03,-0.04 0.05,-0.08 0.05,-0.13 0,-0.06 -0.02,-0.12 -0.07,-0.16 -0.04,-0.04 -0.1,-0.06 -0.17,-0.06 -0.14,0 -0.23,0.08 -0.29,0.24l-0.23 -0.04c0.07,-0.27 0.24,-0.4 0.52,-0.4 0.15,0 0.27,0.04 0.36,0.12 0.09,0.08 0.13,0.18 0.13,0.3 0,0.12 -0.06,0.21 -0.17,0.28 0.07,0.04 0.13,0.09 0.16,0.15 0.04,0.06 0.05,0.13 0.05,0.21 0,0.13 -0.05,0.23 -0.14,0.31 -0.09,0.08 -0.22,0.12 -0.39,0.12 -0.33,0 -0.51,-0.14 -0.57,-0.43l0.23 -0.05c0.02,0.09 0.06,0.16 0.13,0.21 0.06,0.05 0.14,0.07 0.22,0.07 0.08,0 0.15,-0.02 0.2,-0.07 0.05,-0.05 0.08,-0.1 0.08,-0.18 0,-0.06 -0.02,-0.1 -0.05,-0.14 -0.03,-0.04 -0.07,-0.07 -0.11,-0.08 -0.04,-0.01 -0.11,-0.02 -0.21,-0.02 -0.01,0 -0.03,0 -0.05,0z"/>
  <path id="_29" class="fil0" d="M21.57 3.99l0.24 0 0 0.62c0.08,0 0.13,-0.01 0.16,-0.04 0.03,-0.03 0.08,-0.12 0.14,-0.26 0.05,-0.11 0.09,-0.19 0.12,-0.22 0.03,-0.04 0.06,-0.06 0.1,-0.07 0.04,-0.01 0.1,-0.02 0.19,-0.02l0.05 0 0 0.2 -0.07 -0c-0.06,0 -0.1,0.01 -0.12,0.03 -0.02,0.02 -0.05,0.08 -0.09,0.18 -0.04,0.09 -0.07,0.16 -0.1,0.19 -0.03,0.04 -0.08,0.07 -0.14,0.1 0.1,0.03 0.21,0.12 0.31,0.29l0.27 0.44 -0.27 0 -0.26 -0.44c-0.05,-0.09 -0.1,-0.15 -0.14,-0.18 -0.04,-0.03 -0.09,-0.04 -0.14,-0.04l0 0.66 -0.24 0 0 -1.43z"/>
  <path id="_30" class="fil0" d="M23.77 5.23c-0.09,0.08 -0.18,0.13 -0.26,0.16 -0.08,0.03 -0.17,0.05 -0.27,0.05 -0.16,0 -0.28,-0.04 -0.36,-0.11 -0.08,-0.08 -0.13,-0.17 -0.13,-0.29 0,-0.07 0.02,-0.13 0.05,-0.19 0.03,-0.06 0.07,-0.1 0.13,-0.14 0.05,-0.03 0.11,-0.06 0.17,-0.08 0.05,-0.01 0.12,-0.02 0.22,-0.04 0.2,-0.02 0.34,-0.05 0.43,-0.08 0,-0.03 0,-0.05 0,-0.06 0,-0.1 -0.02,-0.17 -0.07,-0.21 -0.06,-0.05 -0.15,-0.08 -0.28,-0.08 -0.11,0 -0.2,0.02 -0.25,0.06 -0.05,0.04 -0.09,0.11 -0.12,0.21l-0.24 -0.03c0.02,-0.1 0.06,-0.18 0.11,-0.25 0.05,-0.06 0.12,-0.11 0.21,-0.14 0.09,-0.03 0.2,-0.05 0.32,-0.05 0.12,0 0.22,0.01 0.3,0.04 0.08,0.03 0.13,0.06 0.17,0.11 0.04,0.04 0.06,0.1 0.08,0.17 0.01,0.04 0.01,0.12 0.01,0.22l0 0.32c0,0.22 0,0.37 0.02,0.43 0.01,0.06 0.03,0.12 0.06,0.17l-0.25 0c-0.02,-0.05 -0.04,-0.11 -0.05,-0.18zm-0.02 -0.54c-0.09,0.04 -0.22,0.07 -0.4,0.09 -0.1,0.01 -0.17,0.03 -0.21,0.05 -0.04,0.02 -0.07,0.04 -0.1,0.08 -0.02,0.03 -0.03,0.07 -0.03,0.11 0,0.06 0.02,0.12 0.07,0.16 0.05,0.04 0.12,0.06 0.21,0.06 0.09,0 0.18,-0.02 0.25,-0.06 0.07,-0.04 0.13,-0.1 0.16,-0.17 0.03,-0.05 0.04,-0.13 0.04,-0.24l0 -0.09z"/>
  <path id="_31" class="fil0" d="M5.08 5.99c-0.13,-0.17 -0.25,-0.36 -0.34,-0.59 -0.09,-0.23 -0.14,-0.46 -0.14,-0.7 0,-0.21 0.03,-0.42 0.1,-0.61 0.08,-0.23 0.2,-0.45 0.37,-0.68l0.17 0c-0.11,0.19 -0.18,0.32 -0.22,0.4 -0.05,0.12 -0.1,0.25 -0.13,0.39 -0.04,0.17 -0.06,0.34 -0.06,0.5 0,0.43 0.13,0.86 0.4,1.29l-0.17 0z"/>
  <path id="_32" class="fil0" d="M24.52 5.99l-0.17 0c0.27,-0.43 0.4,-0.86 0.4,-1.29 0,-0.17 -0.02,-0.34 -0.06,-0.5 -0.03,-0.13 -0.07,-0.26 -0.13,-0.39 -0.03,-0.08 -0.11,-0.21 -0.22,-0.4l0.17 0c0.17,0.22 0.29,0.45 0.37,0.68 0.07,0.19 0.1,0.4 0.1,0.61 0,0.24 -0.05,0.48 -0.14,0.7 -0.09,0.23 -0.2,0.42 -0.34,0.59z"/>
  <path id="_33" class="fil1 str0" d="M0 2l0 -1.97 0.39 0 0.47 1.39c0.04,0.13 0.07,0.23 0.09,0.29 0.02,-0.07 0.06,-0.18 0.11,-0.32l0.47 -1.37 0.35 0 0 1.97 -0.25 0 0 -1.65 -0.57 1.65 -0.23 0 -0.57 -1.68 0 1.68 -0.25 0z"/>
  <path id="_34" class="fil1 str0" d="M2.21 1.29c0,-0.26 0.07,-0.46 0.22,-0.59 0.12,-0.11 0.27,-0.16 0.45,-0.16 0.2,0 0.36,0.06 0.48,0.19 0.12,0.13 0.19,0.31 0.19,0.53 0,0.18 -0.03,0.33 -0.08,0.43 -0.06,0.1 -0.14,0.19 -0.24,0.24 -0.1,0.06 -0.22,0.09 -0.34,0.09 -0.2,0 -0.36,-0.06 -0.48,-0.19 -0.12,-0.13 -0.18,-0.31 -0.18,-0.55zm0.25 0c0,0.18 0.04,0.32 0.12,0.41 0.08,0.09 0.18,0.14 0.3,0.14 0.12,0 0.22,-0.05 0.3,-0.14 0.08,-0.09 0.12,-0.23 0.12,-0.42 0,-0.18 -0.04,-0.31 -0.12,-0.4 -0.08,-0.09 -0.18,-0.14 -0.3,-0.14 -0.12,0 -0.22,0.04 -0.3,0.14 -0.08,0.09 -0.12,0.23 -0.12,0.41z"/>
  <path id="_35" class="fil1 str0" d="M3.83 2.55l0 -1.97 0.22 0 0 0.19c0.05,-0.07 0.11,-0.13 0.18,-0.16 0.07,-0.04 0.14,-0.05 0.24,-0.05 0.12,0 0.23,0.03 0.32,0.09 0.09,0.06 0.16,0.15 0.21,0.26 0.05,0.11 0.07,0.24 0.07,0.37 0,0.15 -0.03,0.28 -0.08,0.39 -0.05,0.12 -0.13,0.21 -0.23,0.27 -0.1,0.06 -0.2,0.09 -0.31,0.09 -0.08,0 -0.15,-0.02 -0.22,-0.05 -0.06,-0.03 -0.12,-0.08 -0.16,-0.13l0 0.7 -0.24 0zm0.22 -1.25c0,0.18 0.04,0.32 0.11,0.41 0.07,0.09 0.16,0.13 0.27,0.13 0.11,0 0.2,-0.05 0.28,-0.14 0.08,-0.09 0.11,-0.23 0.11,-0.42 0,-0.18 -0.04,-0.32 -0.11,-0.41 -0.07,-0.09 -0.16,-0.14 -0.27,-0.14 -0.1,0 -0.19,0.05 -0.27,0.14 -0.08,0.1 -0.12,0.24 -0.12,0.42z"/>
  <path id="_36" class="fil1 str0" d="M5.27 1.29c0,-0.26 0.07,-0.46 0.22,-0.59 0.12,-0.11 0.27,-0.16 0.45,-0.16 0.2,0 0.36,0.06 0.48,0.19 0.12,0.13 0.19,0.31 0.19,0.53 0,0.18 -0.03,0.33 -0.08,0.43 -0.06,0.1 -0.14,0.19 -0.24,0.24 -0.1,0.06 -0.22,0.09 -0.34,0.09 -0.2,0 -0.36,-0.06 -0.48,-0.19 -0.12,-0.13 -0.18,-0.31 -0.18,-0.55zm0.25 0c0,0.18 0.04,0.32 0.12,0.41 0.08,0.09 0.18,0.14 0.3,0.14 0.12,0 0.22,-0.05 0.3,-0.14 0.08,-0.09 0.12,-0.23 0.12,-0.42 0,-0.18 -0.04,-0.31 -0.12,-0.4 -0.08,-0.09 -0.18,-0.14 -0.3,-0.14 -0.12,0 -0.22,0.04 -0.3,0.14 -0.08,0.09 -0.12,0.23 -0.12,0.41z"/>
  <path id="_37" class="fil1 str0" d="M7.17 1.36l0 -0.19c0.1,-0 0.17,-0.01 0.21,-0.01 0.04,-0.01 0.07,-0.03 0.11,-0.06 0.03,-0.04 0.05,-0.08 0.05,-0.13 0,-0.06 -0.02,-0.12 -0.07,-0.16 -0.04,-0.04 -0.1,-0.06 -0.17,-0.06 -0.14,0 -0.23,0.08 -0.29,0.24l-0.23 -0.04c0.07,-0.27 0.24,-0.4 0.52,-0.4 0.15,0 0.27,0.04 0.36,0.12 0.09,0.08 0.13,0.18 0.13,0.3 0,0.12 -0.06,0.21 -0.17,0.28 0.07,0.04 0.13,0.09 0.16,0.15 0.04,0.06 0.05,0.13 0.05,0.21 0,0.13 -0.05,0.23 -0.14,0.31 -0.09,0.08 -0.22,0.12 -0.39,0.12 -0.33,0 -0.51,-0.14 -0.57,-0.43l0.23 -0.05c0.02,0.09 0.06,0.16 0.13,0.21 0.06,0.05 0.14,0.07 0.22,0.07 0.08,0 0.15,-0.02 0.2,-0.07 0.05,-0.05 0.08,-0.1 0.08,-0.18 0,-0.06 -0.02,-0.1 -0.05,-0.14 -0.03,-0.04 -0.07,-0.07 -0.11,-0.08 -0.04,-0.01 -0.11,-0.02 -0.21,-0.02 -0.01,0 -0.03,0 -0.05,0z"/>
  <path id="_38" class="fil1 str0" d="M8.18 2l0 -0.28 0.27 0 0 0.28c0,0.1 -0.02,0.18 -0.05,0.25 -0.04,0.06 -0.09,0.11 -0.17,0.14l-0.07 -0.1c0.05,-0.02 0.09,-0.06 0.11,-0.1 0.02,-0.04 0.04,-0.11 0.04,-0.19l-0.14 0z"/>
  <path id="_39" class="fil1 str0" d="M11.08 1.31l0.26 0.07c-0.05,0.21 -0.15,0.38 -0.29,0.49 -0.14,0.11 -0.31,0.17 -0.52,0.17 -0.21,0 -0.38,-0.04 -0.52,-0.13 -0.13,-0.09 -0.23,-0.21 -0.3,-0.37 -0.07,-0.16 -0.1,-0.34 -0.1,-0.53 0,-0.2 0.04,-0.38 0.12,-0.54 0.08,-0.15 0.19,-0.27 0.33,-0.35 0.14,-0.08 0.3,-0.12 0.48,-0.12 0.2,0 0.36,0.05 0.5,0.15 0.13,0.1 0.23,0.24 0.28,0.42l-0.26 0.06c-0.05,-0.14 -0.11,-0.25 -0.2,-0.31 -0.09,-0.07 -0.2,-0.1 -0.33,-0.1 -0.15,0 -0.28,0.04 -0.38,0.11 -0.1,0.07 -0.17,0.17 -0.21,0.29 -0.04,0.12 -0.06,0.25 -0.06,0.38 0,0.17 0.02,0.31 0.07,0.44 0.05,0.13 0.12,0.22 0.23,0.28 0.1,0.06 0.21,0.09 0.33,0.09 0.15,0 0.27,-0.04 0.37,-0.13 0.1,-0.08 0.17,-0.21 0.2,-0.37z"/>
  <path id="_40" class="fil1 str0" d="M11.54 1.29c0,-0.26 0.07,-0.46 0.22,-0.59 0.12,-0.11 0.27,-0.16 0.45,-0.16 0.2,0 0.36,0.06 0.48,0.19 0.12,0.13 0.19,0.31 0.19,0.53 0,0.18 -0.03,0.33 -0.08,0.43 -0.06,0.1 -0.14,0.19 -0.24,0.24 -0.1,0.06 -0.22,0.09 -0.34,0.09 -0.2,0 -0.36,-0.06 -0.48,-0.19 -0.12,-0.13 -0.18,-0.31 -0.18,-0.55zm0.25 0c0,0.18 0.04,0.32 0.12,0.41 0.08,0.09 0.18,0.14 0.3,0.14 0.12,0 0.22,-0.05 0.3,-0.14 0.08,-0.09 0.12,-0.23 0.12,-0.42 0,-0.18 -0.04,-0.31 -0.12,-0.4 -0.08,-0.09 -0.18,-0.14 -0.3,-0.14 -0.12,0 -0.22,0.04 -0.3,0.14 -0.08,0.09 -0.12,0.23 -0.12,0.41z"/>
  <path id="_41" class="fil1 str0" d="M13.22 0.58l1.12 0 0 1.43 -0.24 0 0 -1.23 -0.64 0 0 0.71c0,0.17 -0.01,0.27 -0.02,0.33 -0.01,0.05 -0.04,0.1 -0.09,0.14 -0.05,0.04 -0.12,0.06 -0.21,0.06 -0.06,0 -0.12,-0 -0.19,-0.01l0 -0.2 0.11 0c0.05,0 0.09,-0.01 0.11,-0.02 0.02,-0.01 0.04,-0.03 0.04,-0.05 0.01,-0.02 0.01,-0.1 0.01,-0.22l0 -0.94z"/>
  <polygon id="_42" class="fil1 str0" points="14.7,0.58 14.95,0.58 14.95,1.17 15.62,1.17 15.62,0.58 15.86,0.58 15.86,2 15.62,2 15.62,1.37 14.95,1.37 14.95,2 14.7,2 "/>
  <polygon id="_43" class="fil1 str0" points="16.23,0.58 16.47,0.58 16.47,1.8 17.14,1.8 17.14,0.58 17.38,0.58 17.38,1.8 17.54,1.8 17.54,2.41 17.34,2.41 17.34,2 16.23,2 "/>
  <path id="_44" class="fil1 str0" d="M18.74 1.54l0.25 0.03c-0.04,0.15 -0.11,0.26 -0.22,0.34 -0.11,0.08 -0.24,0.12 -0.41,0.12 -0.21,0 -0.37,-0.06 -0.5,-0.19 -0.12,-0.13 -0.18,-0.31 -0.18,-0.54 0,-0.24 0.06,-0.43 0.18,-0.56 0.12,-0.13 0.28,-0.2 0.48,-0.2 0.19,0 0.35,0.06 0.47,0.19 0.12,0.13 0.18,0.31 0.18,0.55 0,0.01 -0,0.04 -0,0.06l-1.06 0c0.01,0.16 0.05,0.28 0.13,0.36 0.08,0.08 0.18,0.12 0.3,0.12 0.09,0 0.16,-0.02 0.23,-0.07 0.06,-0.05 0.11,-0.12 0.15,-0.22zm-0.79 -0.39l0.79 0c-0.01,-0.12 -0.04,-0.21 -0.09,-0.27 -0.08,-0.09 -0.18,-0.14 -0.3,-0.14 -0.11,0 -0.2,0.04 -0.28,0.11 -0.08,0.07 -0.12,0.17 -0.13,0.3z"/>
  <polygon id="_45" class="fil1 str0" points="20.06,0.58 20.3,0.58 20.3,1.66 20.98,0.58 21.24,0.58 21.24,2 20.99,2 20.99,0.92 20.32,2 20.06,2 "/>
  <path id="_46" class="fil1 str0" d="M22.38 2l0 -1.97 0.74 0c0.15,0 0.27,0.02 0.36,0.06 0.09,0.04 0.16,0.1 0.21,0.18 0.05,0.08 0.08,0.17 0.08,0.26 0,0.08 -0.02,0.16 -0.07,0.24 -0.05,0.07 -0.11,0.13 -0.21,0.18 0.12,0.03 0.21,0.09 0.27,0.18 0.06,0.08 0.1,0.18 0.1,0.3 0,0.09 -0.02,0.18 -0.06,0.26 -0.04,0.08 -0.09,0.14 -0.14,0.18 -0.06,0.04 -0.13,0.08 -0.22,0.1 -0.09,0.02 -0.19,0.03 -0.32,0.03l-0.75 0zm0.26 -1.14l0.43 0c0.12,0 0.2,-0.01 0.25,-0.02 0.07,-0.02 0.12,-0.05 0.15,-0.1 0.03,-0.05 0.05,-0.1 0.05,-0.17 0,-0.07 -0.02,-0.12 -0.05,-0.17 -0.03,-0.05 -0.08,-0.08 -0.13,-0.1 -0.06,-0.02 -0.16,-0.03 -0.3,-0.03l-0.39 0 0 0.6zm0 0.91l0.49 0c0.08,0 0.14,-0 0.18,-0.01 0.06,-0.01 0.11,-0.03 0.15,-0.05 0.04,-0.03 0.07,-0.06 0.1,-0.11 0.03,-0.05 0.04,-0.1 0.04,-0.17 0,-0.07 -0.02,-0.14 -0.06,-0.19 -0.04,-0.05 -0.09,-0.09 -0.16,-0.11 -0.07,-0.02 -0.16,-0.03 -0.29,-0.03l-0.46 0 0 0.68z"/>
  <path id="_47" class="fil1 str0" d="M25.17 1.54l0.25 0.03c-0.04,0.15 -0.11,0.26 -0.22,0.34 -0.11,0.08 -0.24,0.12 -0.41,0.12 -0.21,0 -0.37,-0.06 -0.5,-0.19 -0.12,-0.13 -0.18,-0.31 -0.18,-0.54 0,-0.24 0.06,-0.43 0.18,-0.56 0.12,-0.13 0.28,-0.2 0.48,-0.2 0.19,0 0.35,0.06 0.47,0.19 0.12,0.13 0.18,0.31 0.18,0.55 0,0.01 -0,0.04 -0,0.06l-1.06 0c0.01,0.16 0.05,0.28 0.13,0.36 0.08,0.08 0.18,0.12 0.3,0.12 0.09,0 0.16,-0.02 0.23,-0.07 0.06,-0.05 0.11,-0.12 0.15,-0.22zm-0.79 -0.39l0.79 0c-0.01,-0.12 -0.04,-0.21 -0.09,-0.27 -0.08,-0.09 -0.18,-0.14 -0.3,-0.14 -0.11,0 -0.2,0.04 -0.28,0.11 -0.08,0.07 -0.12,0.17 -0.13,0.3z"/>
  <polygon id="_48" class="fil1 str0" points="25.51,0.58 26.66,0.58 26.66,0.78 26.21,0.78 26.21,2 25.96,2 25.96,0.78 25.51,0.78 "/>
  <path id="_49" class="fil1 str0" d="M27.84 1.54l0.25 0.03c-0.04,0.15 -0.11,0.26 -0.22,0.34 -0.11,0.08 -0.24,0.12 -0.41,0.12 -0.21,0 -0.37,-0.06 -0.5,-0.19 -0.12,-0.13 -0.18,-0.31 -0.18,-0.54 0,-0.24 0.06,-0.43 0.18,-0.56 0.12,-0.13 0.28,-0.2 0.48,-0.2 0.19,0 0.35,0.06 0.47,0.19 0.12,0.13 0.18,0.31 0.18,0.55 0,0.01 -0,0.04 -0,0.06l-1.06 0c0.01,0.16 0.05,0.28 0.13,0.36 0.08,0.08 0.18,0.12 0.3,0.12 0.09,0 0.16,-0.02 0.23,-0.07 0.06,-0.05 0.11,-0.12 0.15,-0.22zm-0.79 -0.39l0.79 0c-0.01,-0.12 -0.04,-0.21 -0.09,-0.27 -0.08,-0.09 -0.18,-0.14 -0.3,-0.14 -0.11,0 -0.2,0.04 -0.28,0.11 -0.08,0.07 -0.12,0.17 -0.13,0.3z"/>
  <path id="_50" class="fil1 str0" d="M28.39 2.55l0 -1.97 0.22 0 0 0.19c0.05,-0.07 0.11,-0.13 0.18,-0.16 0.07,-0.04 0.14,-0.05 0.24,-0.05 0.12,0 0.23,0.03 0.32,0.09 0.09,0.06 0.16,0.15 0.21,0.26 0.05,0.11 0.07,0.24 0.07,0.37 0,0.15 -0.03,0.28 -0.08,0.39 -0.05,0.12 -0.13,0.21 -0.23,0.27 -0.1,0.06 -0.2,0.09 -0.31,0.09 -0.08,0 -0.15,-0.02 -0.22,-0.05 -0.06,-0.03 -0.12,-0.08 -0.16,-0.13l0 0.7 -0.24 0zm0.22 -1.25c0,0.18 0.04,0.32 0.11,0.41 0.07,0.09 0.16,0.13 0.27,0.13 0.11,0 0.2,-0.05 0.28,-0.14 0.08,-0.09 0.11,-0.23 0.11,-0.42 0,-0.18 -0.04,-0.32 -0.11,-0.41 -0.07,-0.09 -0.16,-0.14 -0.27,-0.14 -0.1,0 -0.19,0.05 -0.27,0.14 -0.08,0.1 -0.12,0.24 -0.12,0.42z"/>
  <path id="_51" class="fil1 str0" d="M5.53 5.96l0 -1.97 0.22 0 0 0.19c0.05,-0.07 0.11,-0.13 0.18,-0.16 0.07,-0.04 0.14,-0.05 0.24,-0.05 0.12,0 0.23,0.03 0.32,0.09 0.09,0.06 0.16,0.15 0.21,0.26 0.05,0.11 0.07,0.24 0.07,0.37 0,0.15 -0.03,0.28 -0.08,0.39 -0.05,0.12 -0.13,0.21 -0.23,0.27 -0.1,0.06 -0.2,0.09 -0.31,0.09 -0.08,0 -0.15,-0.02 -0.22,-0.05 -0.06,-0.03 -0.12,-0.08 -0.16,-0.13l0 0.7 -0.24 0zm0.22 -1.25c0,0.18 0.04,0.32 0.11,0.41 0.07,0.09 0.16,0.13 0.27,0.13 0.11,0 0.2,-0.05 0.28,-0.14 0.08,-0.09 0.11,-0.23 0.11,-0.42 0,-0.18 -0.04,-0.32 -0.11,-0.41 -0.07,-0.09 -0.16,-0.14 -0.27,-0.14 -0.1,0 -0.19,0.05 -0.27,0.14 -0.08,0.1 -0.12,0.24 -0.12,0.42z"/>
  <path id="_52" class="fil1 str0" d="M7.02 5.96l-0.03 -0.22c0.05,0.01 0.1,0.02 0.14,0.02 0.05,0 0.1,-0.01 0.13,-0.03 0.03,-0.02 0.06,-0.04 0.08,-0.08 0.02,-0.02 0.04,-0.08 0.07,-0.18 0,-0.01 0.01,-0.03 0.02,-0.06l-0.54 -1.43 0.26 0 0.3 0.82c0.04,0.1 0.07,0.21 0.1,0.33 0.03,-0.11 0.06,-0.22 0.1,-0.32l0.3 -0.83 0.24 0 -0.54 1.45c-0.06,0.16 -0.1,0.26 -0.14,0.32 -0.04,0.08 -0.09,0.14 -0.15,0.17 -0.06,0.04 -0.12,0.06 -0.2,0.06 -0.05,0 -0.1,-0.01 -0.16,-0.03z"/>
  <path id="_53" class="fil1 str0" d="M9.31 4.89l0.24 0.03c-0.03,0.16 -0.09,0.29 -0.2,0.38 -0.11,0.09 -0.24,0.14 -0.39,0.14 -0.19,0 -0.35,-0.06 -0.47,-0.19 -0.12,-0.13 -0.18,-0.31 -0.18,-0.55 0,-0.15 0.03,-0.29 0.08,-0.4 0.05,-0.12 0.13,-0.2 0.23,-0.26 0.1,-0.06 0.22,-0.09 0.34,-0.09 0.15,0 0.28,0.04 0.38,0.12 0.1,0.08 0.16,0.19 0.19,0.33l-0.23 0.04c-0.02,-0.1 -0.06,-0.17 -0.12,-0.22 -0.06,-0.05 -0.13,-0.07 -0.21,-0.07 -0.12,0 -0.22,0.04 -0.3,0.13 -0.08,0.09 -0.11,0.23 -0.11,0.41 0,0.19 0.04,0.33 0.11,0.42 0.07,0.09 0.17,0.13 0.29,0.13 0.1,0 0.17,-0.03 0.24,-0.09 0.06,-0.06 0.1,-0.15 0.12,-0.27z"/>
  <path id="_54" class="fil1 str0" d="M10.68 4.89l0.24 0.03c-0.03,0.16 -0.09,0.29 -0.2,0.38 -0.11,0.09 -0.24,0.14 -0.39,0.14 -0.19,0 -0.35,-0.06 -0.47,-0.19 -0.12,-0.13 -0.18,-0.31 -0.18,-0.55 0,-0.15 0.03,-0.29 0.08,-0.4 0.05,-0.12 0.13,-0.2 0.23,-0.26 0.1,-0.06 0.22,-0.09 0.34,-0.09 0.15,0 0.28,0.04 0.38,0.12 0.1,0.08 0.16,0.19 0.19,0.33l-0.23 0.04c-0.02,-0.1 -0.06,-0.17 -0.12,-0.22 -0.06,-0.05 -0.13,-0.07 -0.21,-0.07 -0.12,0 -0.22,0.04 -0.3,0.13 -0.08,0.09 -0.11,0.23 -0.11,0.41 0,0.19 0.04,0.33 0.11,0.42 0.07,0.09 0.17,0.13 0.29,0.13 0.1,0 0.17,-0.03 0.24,-0.09 0.06,-0.06 0.1,-0.15 0.12,-0.27z"/>
  <path id="_55" class="fil1 str0" d="M11.12 3.99l0.24 0 0 0.62c0.08,0 0.13,-0.01 0.16,-0.04 0.03,-0.03 0.08,-0.12 0.14,-0.26 0.05,-0.11 0.09,-0.19 0.12,-0.22 0.03,-0.04 0.06,-0.06 0.1,-0.07 0.04,-0.01 0.1,-0.02 0.19,-0.02l0.05 0 0 0.2 -0.07 -0c-0.06,0 -0.1,0.01 -0.12,0.03 -0.02,0.02 -0.05,0.08 -0.09,0.18 -0.04,0.09 -0.07,0.16 -0.1,0.19 -0.03,0.04 -0.08,0.07 -0.14,0.1 0.1,0.03 0.21,0.12 0.31,0.29l0.27 0.44 -0.27 0 -0.26 -0.44c-0.05,-0.09 -0.1,-0.15 -0.14,-0.18 -0.04,-0.03 -0.09,-0.04 -0.14,-0.04l0 0.66 -0.24 0 0 -1.43z"/>
  <path id="_56" class="fil1 str0" d="M13.32 5.23c-0.09,0.08 -0.18,0.13 -0.26,0.16 -0.08,0.03 -0.17,0.05 -0.27,0.05 -0.16,0 -0.28,-0.04 -0.36,-0.11 -0.08,-0.08 -0.13,-0.17 -0.13,-0.29 0,-0.07 0.02,-0.13 0.05,-0.19 0.03,-0.06 0.07,-0.1 0.13,-0.14 0.05,-0.03 0.11,-0.06 0.17,-0.08 0.05,-0.01 0.12,-0.02 0.22,-0.04 0.2,-0.02 0.34,-0.05 0.43,-0.08 0,-0.03 0,-0.05 0,-0.06 0,-0.1 -0.02,-0.17 -0.07,-0.21 -0.06,-0.05 -0.15,-0.08 -0.28,-0.08 -0.11,0 -0.2,0.02 -0.25,0.06 -0.05,0.04 -0.09,0.11 -0.12,0.21l-0.24 -0.03c0.02,-0.1 0.06,-0.18 0.11,-0.25 0.05,-0.06 0.12,-0.11 0.21,-0.14 0.09,-0.03 0.2,-0.05 0.32,-0.05 0.12,0 0.22,0.01 0.3,0.04 0.08,0.03 0.13,0.06 0.17,0.11 0.04,0.04 0.06,0.1 0.08,0.17 0.01,0.04 0.01,0.12 0.01,0.22l0 0.32c0,0.22 0,0.37 0.02,0.43 0.01,0.06 0.03,0.12 0.06,0.17l-0.25 0c-0.02,-0.05 -0.04,-0.11 -0.05,-0.18zm-0.02 -0.54c-0.09,0.04 -0.22,0.07 -0.4,0.09 -0.1,0.01 -0.17,0.03 -0.21,0.05 -0.04,0.02 -0.07,0.04 -0.1,0.08 -0.02,0.03 -0.03,0.07 -0.03,0.11 0,0.06 0.02,0.12 0.07,0.16 0.05,0.04 0.12,0.06 0.21,0.06 0.09,0 0.18,-0.02 0.25,-0.06 0.07,-0.04 0.13,-0.1 0.16,-0.17 0.03,-0.05 0.04,-0.13 0.04,-0.24l0 -0.09z"/>
  <path id="_57" class="fil1 str0" d="M15.04 3.99l0 1.43 -0.24 0 0 -0.56 -0.14 0c-0.08,0 -0.15,0.01 -0.19,0.03 -0.04,0.02 -0.1,0.09 -0.18,0.21l-0.21 0.31 -0.3 0 0.26 -0.38c0.08,-0.12 0.16,-0.18 0.24,-0.2 -0.14,-0.02 -0.24,-0.07 -0.31,-0.15 -0.07,-0.08 -0.1,-0.17 -0.1,-0.28 0,-0.12 0.04,-0.22 0.13,-0.3 0.09,-0.08 0.21,-0.12 0.38,-0.12l0.66 0zm-0.24 0.2l-0.34 0c-0.14,0 -0.24,0.02 -0.28,0.07 -0.04,0.04 -0.06,0.1 -0.06,0.16 0,0.09 0.03,0.15 0.09,0.19 0.06,0.04 0.17,0.06 0.33,0.06l0.27 0 0 -0.47z"/>
  <path id="_58" class="fil1 str0" d="M17.11 4.89l0.24 0.03c-0.03,0.16 -0.09,0.29 -0.2,0.38 -0.11,0.09 -0.24,0.14 -0.39,0.14 -0.19,0 -0.35,-0.06 -0.47,-0.19 -0.12,-0.13 -0.18,-0.31 -0.18,-0.55 0,-0.15 0.03,-0.29 0.08,-0.4 0.05,-0.12 0.13,-0.2 0.23,-0.26 0.1,-0.06 0.22,-0.09 0.34,-0.09 0.15,0 0.28,0.04 0.38,0.12 0.1,0.08 0.16,0.19 0.19,0.33l-0.23 0.04c-0.02,-0.1 -0.06,-0.17 -0.12,-0.22 -0.06,-0.05 -0.13,-0.07 -0.21,-0.07 -0.12,0 -0.22,0.04 -0.3,0.13 -0.08,0.09 -0.11,0.23 -0.11,0.41 0,0.19 0.04,0.33 0.11,0.42 0.07,0.09 0.17,0.13 0.29,0.13 0.1,0 0.17,-0.03 0.24,-0.09 0.06,-0.06 0.1,-0.15 0.12,-0.27z"/>
  <path id="_59" class="fil1 str0" d="M17.55 3.99l0.24 0 0 0.62c0.08,0 0.13,-0.01 0.16,-0.04 0.03,-0.03 0.08,-0.12 0.14,-0.26 0.05,-0.11 0.09,-0.19 0.12,-0.22 0.03,-0.04 0.06,-0.06 0.1,-0.07 0.04,-0.01 0.1,-0.02 0.19,-0.02l0.05 0 0 0.2 -0.07 -0c-0.06,0 -0.1,0.01 -0.12,0.03 -0.02,0.02 -0.05,0.08 -0.09,0.18 -0.04,0.09 -0.07,0.16 -0.1,0.19 -0.03,0.04 -0.08,0.07 -0.14,0.1 0.1,0.03 0.21,0.12 0.31,0.29l0.27 0.44 -0.27 0 -0.26 -0.44c-0.05,-0.09 -0.1,-0.15 -0.14,-0.18 -0.04,-0.03 -0.09,-0.04 -0.14,-0.04l0 0.66 -0.24 0 0 -1.43z"/>
  <path id="_60" class="fil1 str0" d="M19.74 5.23c-0.09,0.08 -0.18,0.13 -0.26,0.16 -0.08,0.03 -0.17,0.05 -0.27,0.05 -0.16,0 -0.28,-0.04 -0.36,-0.11 -0.08,-0.08 -0.13,-0.17 -0.13,-0.29 0,-0.07 0.02,-0.13 0.05,-0.19 0.03,-0.06 0.07,-0.1 0.13,-0.14 0.05,-0.03 0.11,-0.06 0.17,-0.08 0.05,-0.01 0.12,-0.02 0.22,-0.04 0.2,-0.02 0.34,-0.05 0.43,-0.08 0,-0.03 0,-0.05 0,-0.06 0,-0.1 -0.02,-0.17 -0.07,-0.21 -0.06,-0.05 -0.15,-0.08 -0.28,-0.08 -0.11,0 -0.2,0.02 -0.25,0.06 -0.05,0.04 -0.09,0.11 -0.12,0.21l-0.24 -0.03c0.02,-0.1 0.06,-0.18 0.11,-0.25 0.05,-0.06 0.12,-0.11 0.21,-0.14 0.09,-0.03 0.2,-0.05 0.32,-0.05 0.12,0 0.22,0.01 0.3,0.04 0.08,0.03 0.13,0.06 0.17,0.11 0.04,0.04 0.06,0.1 0.08,0.17 0.01,0.04 0.01,0.12 0.01,0.22l0 0.32c0,0.22 0,0.37 0.02,0.43 0.01,0.06 0.03,0.12 0.06,0.17l-0.25 0c-0.02,-0.05 -0.04,-0.11 -0.05,-0.18zm-0.02 -0.54c-0.09,0.04 -0.22,0.07 -0.4,0.09 -0.1,0.01 -0.17,0.03 -0.21,0.05 -0.04,0.02 -0.07,0.04 -0.1,0.08 -0.02,0.03 -0.03,0.07 -0.03,0.11 0,0.06 0.02,0.12 0.07,0.16 0.05,0.04 0.12,0.06 0.21,0.06 0.09,0 0.18,-0.02 0.25,-0.06 0.07,-0.04 0.13,-0.1 0.16,-0.17 0.03,-0.05 0.04,-0.13 0.04,-0.24l0 -0.09z"/>
  <path id="_61" class="fil1 str0" d="M20.63 4.77l0 -0.19c0.1,-0 0.17,-0.01 0.21,-0.01 0.04,-0.01 0.07,-0.03 0.11,-0.06 0.03,-0.04 0.05,-0.08 0.05,-0.13 0,-0.06 -0.02,-0.12 -0.07,-0.16 -0.04,-0.04 -0.1,-0.06 -0.17,-0.06 -0.14,0 -0.23,0.08 -0.29,0.24l-0.23 -0.04c0.07,-0.27 0.24,-0.4 0.52,-0.4 0.15,0 0.27,0.04 0.36,0.12 0.09,0.08 0.13,0.18 0.13,0.3 0,0.12 -0.06,0.21 -0.17,0.28 0.07,0.04 0.13,0.09 0.16,0.15 0.04,0.06 0.05,0.13 0.05,0.21 0,0.13 -0.05,0.23 -0.14,0.31 -0.09,0.08 -0.22,0.12 -0.39,0.12 -0.33,0 -0.51,-0.14 -0.57,-0.43l0.23 -0.05c0.02,0.09 0.06,0.16 0.13,0.21 0.06,0.05 0.14,0.07 0.22,0.07 0.08,0 0.15,-0.02 0.2,-0.07 0.05,-0.05 0.08,-0.1 0.08,-0.18 0,-0.06 -0.02,-0.1 -0.05,-0.14 -0.03,-0.04 -0.07,-0.07 -0.11,-0.08 -0.04,-0.01 -0.11,-0.02 -0.21,-0.02 -0.01,0 -0.03,0 -0.05,0z"/>
  <path id="_62" class="fil1 str0" d="M21.57 3.99l0.24 0 0 0.62c0.08,0 0.13,-0.01 0.16,-0.04 0.03,-0.03 0.08,-0.12 0.14,-0.26 0.05,-0.11 0.09,-0.19 0.12,-0.22 0.03,-0.04 0.06,-0.06 0.1,-0.07 0.04,-0.01 0.1,-0.02 0.19,-0.02l0.05 0 0 0.2 -0.07 -0c-0.06,0 -0.1,0.01 -0.12,0.03 -0.02,0.02 -0.05,0.08 -0.09,0.18 -0.04,0.09 -0.07,0.16 -0.1,0.19 -0.03,0.04 -0.08,0.07 -0.14,0.1 0.1,0.03 0.21,0.12 0.31,0.29l0.27 0.44 -0.27 0 -0.26 -0.44c-0.05,-0.09 -0.1,-0.15 -0.14,-0.18 -0.04,-0.03 -0.09,-0.04 -0.14,-0.04l0 0.66 -0.24 0 0 -1.43z"/>
  <path id="_63" class="fil1 str0" d="M23.77 5.23c-0.09,0.08 -0.18,0.13 -0.26,0.16 -0.08,0.03 -0.17,0.05 -0.27,0.05 -0.16,0 -0.28,-0.04 -0.36,-0.11 -0.08,-0.08 -0.13,-0.17 -0.13,-0.29 0,-0.07 0.02,-0.13 0.05,-0.19 0.03,-0.06 0.07,-0.1 0.13,-0.14 0.05,-0.03 0.11,-0.06 0.17,-0.08 0.05,-0.01 0.12,-0.02 0.22,-0.04 0.2,-0.02 0.34,-0.05 0.43,-0.08 0,-0.03 0,-0.05 0,-0.06 0,-0.1 -0.02,-0.17 -0.07,-0.21 -0.06,-0.05 -0.15,-0.08 -0.28,-0.08 -0.11,0 -0.2,0.02 -0.25,0.06 -0.05,0.04 -0.09,0.11 -0.12,0.21l-0.24 -0.03c0.02,-0.1 0.06,-0.18 0.11,-0.25 0.05,-0.06 0.12,-0.11 0.21,-0.14 0.09,-0.03 0.2,-0.05 0.32,-0.05 0.12,0 0.22,0.01 0.3,0.04 0.08,0.03 0.13,0.06 0.17,0.11 0.04,0.04 0.06,0.1 0.08,0.17 0.01,0.04 0.01,0.12 0.01,0.22l0 0.32c0,0.22 0,0.37 0.02,0.43 0.01,0.06 0.03,0.12 0.06,0.17l-0.25 0c-0.02,-0.05 -0.04,-0.11 -0.05,-0.18zm-0.02 -0.54c-0.09,0.04 -0.22,0.07 -0.4,0.09 -0.1,0.01 -0.17,0.03 -0.21,0.05 -0.04,0.02 -0.07,0.04 -0.1,0.08 -0.02,0.03 -0.03,0.07 -0.03,0.11 0,0.06 0.02,0.12 0.07,0.16 0.05,0.04 0.12,0.06 0.21,0.06 0.09,0 0.18,-0.02 0.25,-0.06 0.07,-0.04 0.13,-0.1 0.16,-0.17 0.03,-0.05 0.04,-0.13 0.04,-0.24l0 -0.09z"/>
  <path id="_64" class="fil1 str0" d="M5.08 5.99c-0.13,-0.17 -0.25,-0.36 -0.34,-0.59 -0.09,-0.23 -0.14,-0.46 -0.14,-0.7 0,-0.21 0.03,-0.42 0.1,-0.61 0.08,-0.23 0.2,-0.45 0.37,-0.68l0.17 0c-0.11,0.19 -0.18,0.32 -0.22,0.4 -0.05,0.12 -0.1,0.25 -0.13,0.39 -0.04,0.17 -0.06,0.34 -0.06,0.5 0,0.43 0.13,0.86 0.4,1.29l-0.17 0z"/>
  <path id="_65" class="fil1 str0" d="M24.52 5.99l-0.17 0c0.27,-0.43 0.4,-0.86 0.4,-1.29 0,-0.17 -0.02,-0.34 -0.06,-0.5 -0.03,-0.13 -0.07,-0.26 -0.13,-0.39 -0.03,-0.08 -0.11,-0.21 -0.22,-0.4l0.17 0c0.17,0.22 0.29,0.45 0.37,0.68 0.07,0.19 0.1,0.4 0.1,0.61 0,0.24 -0.05,0.48 -0.14,0.7 -0.09,0.23 -0.2,0.42 -0.34,0.59z"/>
 </g>
</svg>
