<?xml version="1.0" encoding="UTF-8"?>
<!DOCTYPE svg PUBLIC "-//W3C//DTD SVG 1.1//EN" "http://www.w3.org/Graphics/SVG/1.1/DTD/svg11.dtd">
<!-- Creator: CorelDRAW -->
<svg xmlns="http://www.w3.org/2000/svg" xml:space="preserve" width="35.3131mm" height="5.2244mm" version="1.1" style="shape-rendering:geometricPrecision; text-rendering:geometricPrecision; image-rendering:optimizeQuality; fill-rule:evenodd; clip-rule:evenodd"
viewBox="0 0 51.29 7.59"
 xmlns:xlink="http://www.w3.org/1999/xlink"
 xmlns:xodm="http://www.corel.com/coreldraw/odm/2003">
 <defs>
  <style type="text/css">
   <![CDATA[
    .str0 {stroke:#FF6600;stroke-width:0;stroke-miterlimit:22.9256}
    .fil1 {fill:none;fill-rule:nonzero}
    .fil0 {fill:#FF6600;fill-rule:nonzero}
   ]]>
  </style>
 </defs>
 <g id="Слой_x0020_1">
  <metadata id="CorelCorpID_0Corel-Layer"/>
  <path class="fil0" d="M16.2 0l1.62 0 0 2.35 0.24 0 0 0.93 -0.31 0 0 -0.62 -1.76 0 0 0.62 -0.31 0 0 -0.93 0.2 0c0.22,-0.32 0.32,-0.98 0.32,-1.96l0 -0.39zm1.27 0.31l-0.93 0 0 0.14c0,0.23 -0.02,0.54 -0.06,0.93 -0.04,0.39 -0.12,0.72 -0.24,0.97l1.23 0 0 -2.03z"/>
  <path id="_1" class="fil0" d="M18.46 2.66l0 -2.66 1 0c0.2,0 0.37,0.03 0.49,0.08 0.12,0.05 0.22,0.14 0.29,0.25 0.07,0.11 0.1,0.23 0.1,0.35 0,0.11 -0.03,0.22 -0.09,0.32 -0.06,0.1 -0.15,0.18 -0.28,0.24 0.16,0.05 0.28,0.13 0.37,0.24 0.09,0.11 0.13,0.25 0.13,0.4 0,0.13 -0.03,0.24 -0.08,0.35 -0.05,0.11 -0.12,0.19 -0.19,0.25 -0.08,0.06 -0.17,0.1 -0.29,0.13 -0.12,0.03 -0.26,0.04 -0.43,0.04l-1.01 0zm0.35 -1.54l0.57 0c0.16,0 0.27,-0.01 0.34,-0.03 0.09,-0.03 0.16,-0.07 0.2,-0.13 0.05,-0.06 0.07,-0.14 0.07,-0.23 0,-0.09 -0.02,-0.17 -0.06,-0.23 -0.04,-0.07 -0.1,-0.11 -0.18,-0.14 -0.08,-0.02 -0.21,-0.04 -0.4,-0.04l-0.53 0 0 0.81zm0 1.23l0.66 0c0.11,0 0.19,-0 0.24,-0.01 0.08,-0.01 0.15,-0.04 0.2,-0.07 0.05,-0.03 0.1,-0.08 0.13,-0.15 0.04,-0.07 0.05,-0.14 0.05,-0.22 0,-0.1 -0.03,-0.19 -0.08,-0.26 -0.05,-0.07 -0.12,-0.13 -0.21,-0.15 -0.09,-0.03 -0.22,-0.04 -0.39,-0.04l-0.62 0 0 0.92z"/>
  <path id="_2" class="fil0" d="M20.53 2.66l1.02 -2.66 0.39 0 1.08 2.66 -0.4 0 -0.31 -0.81 -1.12 0 -0.29 0.81 -0.37 0zm0.76 -1.09l0.91 0 -0.28 -0.74c-0.08,-0.22 -0.15,-0.41 -0.19,-0.56 -0.04,0.17 -0.09,0.34 -0.15,0.51l-0.29 0.78z"/>
  <path id="_3" class="fil0" d="M24.35 0l1.73 0 0 0.31 -1.37 0 0 0.82 0.63 0c0.23,0 0.42,0.02 0.56,0.07 0.14,0.04 0.25,0.13 0.33,0.25 0.08,0.12 0.13,0.27 0.13,0.43 0,0.13 -0.03,0.26 -0.09,0.38 -0.06,0.12 -0.15,0.21 -0.27,0.29 -0.12,0.07 -0.32,0.11 -0.61,0.11l-1.04 0 0 -2.66zm0.35 2.36l0.7 0c0.19,0 0.33,-0.04 0.43,-0.12 0.09,-0.08 0.14,-0.19 0.14,-0.35 0,-0.11 -0.03,-0.2 -0.08,-0.28 -0.05,-0.07 -0.13,-0.12 -0.23,-0.15 -0.1,-0.02 -0.26,-0.04 -0.5,-0.04l-0.47 0 0 0.92z"/>
  <path id="_4" class="fil0" d="M26.77 2.66l0 -2.66 1 0c0.18,0 0.31,0.01 0.4,0.03 0.13,0.02 0.24,0.06 0.33,0.12 0.09,0.06 0.16,0.15 0.21,0.26 0.05,0.11 0.08,0.23 0.08,0.36 0,0.23 -0.07,0.42 -0.22,0.57 -0.14,0.16 -0.4,0.23 -0.78,0.23l-0.68 0 0 1.08 -0.35 0zm0.35 -1.4l0.69 0c0.23,0 0.39,-0.04 0.48,-0.13 0.1,-0.08 0.14,-0.2 0.14,-0.36 0,-0.11 -0.03,-0.21 -0.08,-0.29 -0.06,-0.08 -0.13,-0.13 -0.22,-0.16 -0.06,-0.02 -0.17,-0.02 -0.33,-0.02l-0.68 0 0 0.95z"/>
  <path id="_5" class="fil0" d="M28.71 2.66l1.02 -2.66 0.39 0 1.08 2.66 -0.4 0 -0.31 -0.81 -1.12 0 -0.29 0.81 -0.37 0zm0.76 -1.09l0.91 0 -0.28 -0.74c-0.08,-0.22 -0.15,-0.41 -0.19,-0.56 -0.04,0.17 -0.09,0.34 -0.15,0.51l-0.29 0.78z"/>
  <polygon id="_6" class="fil0" points="31.86,2.66 31.86,0.31 30.99,0.31 30.99,0 33.09,0 33.09,0.31 32.22,0.31 32.22,2.66 "/>
  <path id="_7" class="fil0" d="M33.04 2.66l1.02 -2.66 0.39 0 1.08 2.66 -0.4 0 -0.31 -0.81 -1.12 0 -0.29 0.81 -0.37 0zm0.76 -1.09l0.91 0 -0.28 -0.74c-0.08,-0.22 -0.15,-0.41 -0.19,-0.56 -0.04,0.17 -0.09,0.34 -0.15,0.51l-0.29 0.78z"/>
  <path id="_8" class="fil0" d="M0.64 7.59c-0.18,-0.23 -0.33,-0.49 -0.46,-0.8 -0.12,-0.3 -0.19,-0.62 -0.19,-0.95 0,-0.29 0.05,-0.56 0.14,-0.83 0.11,-0.31 0.28,-0.61 0.5,-0.91l0.23 0c-0.15,0.25 -0.24,0.43 -0.29,0.54 -0.07,0.17 -0.13,0.34 -0.17,0.52 -0.05,0.23 -0.08,0.45 -0.08,0.68 0,0.58 0.18,1.16 0.54,1.74l-0.23 0z"/>
  <path id="_9" class="fil0" d="M1.24 7.55l-0.04 -0.3c0.07,0.02 0.13,0.03 0.19,0.03 0.07,0 0.13,-0.01 0.17,-0.04 0.04,-0.02 0.08,-0.06 0.11,-0.1 0.02,-0.03 0.05,-0.11 0.1,-0.24 0.01,-0.02 0.02,-0.04 0.03,-0.08l-0.73 -1.93 0.35 0 0.4 1.11c0.05,0.14 0.1,0.29 0.14,0.45 0.04,-0.15 0.08,-0.29 0.13,-0.43l0.41 -1.12 0.33 0 -0.73 1.96c-0.08,0.21 -0.14,0.36 -0.18,0.44 -0.06,0.11 -0.12,0.19 -0.2,0.24 -0.08,0.05 -0.17,0.07 -0.27,0.07 -0.06,0 -0.13,-0.01 -0.21,-0.04z"/>
  <path id="_10" class="fil0" d="M3.25 4.88l1.34 0 0 1.66 0.21 0 0 0.81 -0.27 0 0 -0.55 -1.52 0 0 0.55 -0.27 0 0 -0.81 0.17 0c0.23,-0.31 0.34,-0.87 0.33,-1.66zm0.27 0.27c-0.02,0.63 -0.12,1.09 -0.29,1.39l1.04 0 0 -1.39 -0.75 0z"/>
  <polygon id="_11" class="fil0" points="5.17,4.88 5.67,4.88 6.18,6.42 6.74,4.88 7.21,4.88 7.21,6.81 6.88,6.81 6.88,5.26 6.31,6.81 6.02,6.81 5.49,5.18 5.49,6.81 5.17,6.81 "/>
  <path id="_12" class="fil0" d="M7.74 7.55l-0.04 -0.3c0.07,0.02 0.13,0.03 0.19,0.03 0.07,0 0.13,-0.01 0.17,-0.04 0.04,-0.02 0.08,-0.06 0.11,-0.1 0.02,-0.03 0.05,-0.11 0.1,-0.24 0.01,-0.02 0.02,-0.04 0.03,-0.08l-0.73 -1.93 0.35 0 0.4 1.11c0.05,0.14 0.1,0.29 0.14,0.45 0.04,-0.15 0.08,-0.29 0.13,-0.43l0.41 -1.12 0.33 0 -0.73 1.96c-0.08,0.21 -0.14,0.36 -0.18,0.44 -0.06,0.11 -0.12,0.19 -0.2,0.24 -0.08,0.05 -0.17,0.07 -0.27,0.07 -0.06,0 -0.13,-0.01 -0.21,-0.04z"/>
  <path id="_13" class="fil0" d="M9.57 7.55l0 -2.67 0.3 0 0 0.25c0.07,-0.1 0.15,-0.17 0.24,-0.22 0.09,-0.05 0.2,-0.07 0.32,-0.07 0.16,0 0.31,0.04 0.43,0.13 0.13,0.08 0.22,0.2 0.28,0.36 0.06,0.15 0.1,0.32 0.1,0.51 0,0.2 -0.04,0.37 -0.11,0.53 -0.07,0.16 -0.17,0.28 -0.31,0.36 -0.13,0.08 -0.28,0.13 -0.42,0.13 -0.11,0 -0.21,-0.02 -0.29,-0.07 -0.09,-0.05 -0.16,-0.1 -0.21,-0.17l0 0.94 -0.33 0zm0.3 -1.69c0,0.25 0.05,0.43 0.15,0.55 0.1,0.12 0.22,0.18 0.36,0.18 0.14,0 0.27,-0.06 0.37,-0.18 0.1,-0.12 0.15,-0.31 0.15,-0.57 0,-0.25 -0.05,-0.43 -0.15,-0.55 -0.1,-0.12 -0.22,-0.18 -0.36,-0.18 -0.14,0 -0.26,0.07 -0.37,0.19 -0.11,0.13 -0.16,0.32 -0.16,0.57z"/>
  <polygon id="_14" class="fil0" points="11.38,4.88 12.94,4.88 12.94,5.15 12.32,5.15 12.32,6.81 11.99,6.81 11.99,5.15 11.38,5.15 "/>
  <path id="_15" class="fil0" d="M14.47 6.1l0.32 0.04c-0.04,0.22 -0.12,0.39 -0.27,0.52 -0.14,0.12 -0.32,0.19 -0.53,0.19 -0.26,0 -0.47,-0.09 -0.63,-0.26 -0.16,-0.17 -0.24,-0.42 -0.24,-0.74 0,-0.21 0.03,-0.39 0.1,-0.55 0.07,-0.16 0.17,-0.27 0.31,-0.35 0.14,-0.08 0.29,-0.12 0.46,-0.12 0.21,0 0.38,0.05 0.51,0.16 0.13,0.11 0.22,0.26 0.26,0.45l-0.32 0.05c-0.03,-0.13 -0.08,-0.23 -0.16,-0.29 -0.08,-0.06 -0.17,-0.1 -0.28,-0.1 -0.16,0 -0.3,0.06 -0.4,0.18 -0.1,0.12 -0.15,0.3 -0.15,0.56 0,0.26 0.05,0.45 0.15,0.56 0.1,0.12 0.23,0.18 0.39,0.18 0.13,0 0.24,-0.04 0.32,-0.12 0.09,-0.08 0.14,-0.2 0.16,-0.36z"/>
  <path id="_16" class="fil0" d="M15.06 4.88l0.33 0 0 0.83c0.1,0 0.18,-0.02 0.22,-0.06 0.04,-0.04 0.1,-0.16 0.18,-0.35 0.06,-0.15 0.12,-0.25 0.16,-0.3 0.04,-0.05 0.09,-0.08 0.14,-0.1 0.05,-0.02 0.14,-0.03 0.25,-0.03l0.07 0 0 0.27 -0.09 -0c-0.09,0 -0.14,0.01 -0.17,0.04 -0.03,0.03 -0.06,0.11 -0.12,0.24 -0.05,0.13 -0.09,0.21 -0.14,0.26 -0.04,0.05 -0.1,0.09 -0.19,0.13 0.14,0.04 0.28,0.17 0.42,0.39l0.36 0.6 -0.36 0 -0.35 -0.6c-0.07,-0.12 -0.13,-0.2 -0.19,-0.24 -0.05,-0.04 -0.12,-0.06 -0.19,-0.06l0 0.89 -0.33 0 0 -1.93z"/>
  <path id="_17" class="fil0" d="M18.03 6.57c-0.12,0.1 -0.24,0.18 -0.35,0.22 -0.11,0.04 -0.23,0.06 -0.36,0.06 -0.21,0 -0.37,-0.05 -0.49,-0.15 -0.11,-0.1 -0.17,-0.23 -0.17,-0.39 0,-0.09 0.02,-0.18 0.06,-0.26 0.04,-0.08 0.1,-0.14 0.17,-0.19 0.07,-0.05 0.15,-0.08 0.24,-0.11 0.06,-0.02 0.16,-0.03 0.29,-0.05 0.26,-0.03 0.46,-0.07 0.58,-0.11 0,-0.04 0,-0.07 0,-0.08 0,-0.13 -0.03,-0.23 -0.09,-0.28 -0.08,-0.07 -0.21,-0.11 -0.37,-0.11 -0.15,0 -0.27,0.03 -0.34,0.08 -0.07,0.05 -0.13,0.15 -0.16,0.29l-0.32 -0.04c0.03,-0.14 0.08,-0.25 0.14,-0.33 0.07,-0.08 0.16,-0.15 0.29,-0.19 0.13,-0.05 0.27,-0.07 0.44,-0.07 0.16,0 0.3,0.02 0.4,0.06 0.1,0.04 0.18,0.09 0.23,0.15 0.05,0.06 0.08,0.13 0.1,0.22 0.01,0.06 0.02,0.16 0.02,0.3l0 0.43c0,0.3 0.01,0.49 0.02,0.57 0.01,0.08 0.04,0.16 0.08,0.23l-0.34 0c-0.03,-0.07 -0.05,-0.15 -0.06,-0.24zm-0.03 -0.72c-0.12,0.05 -0.3,0.09 -0.53,0.12 -0.13,0.02 -0.23,0.04 -0.29,0.07 -0.06,0.02 -0.1,0.06 -0.13,0.11 -0.03,0.05 -0.05,0.1 -0.05,0.15 0,0.09 0.03,0.16 0.1,0.22 0.07,0.06 0.16,0.09 0.29,0.09 0.13,0 0.24,-0.03 0.34,-0.08 0.1,-0.05 0.17,-0.13 0.22,-0.22 0.04,-0.07 0.05,-0.18 0.05,-0.33l0 -0.12z"/>
  <path id="_18" class="fil0" d="M20.36 4.88l0 1.93 -0.33 0 0 -0.75 -0.19 0c-0.11,0 -0.2,0.01 -0.26,0.05 -0.06,0.03 -0.14,0.13 -0.25,0.29l-0.29 0.42 -0.4 0 0.35 -0.52c0.11,-0.16 0.22,-0.25 0.32,-0.27 -0.19,-0.03 -0.32,-0.09 -0.42,-0.2 -0.09,-0.11 -0.14,-0.23 -0.14,-0.38 0,-0.17 0.06,-0.3 0.18,-0.41 0.12,-0.1 0.29,-0.16 0.51,-0.16l0.89 0zm-0.33 0.27l-0.46 0c-0.19,0 -0.32,0.03 -0.38,0.09 -0.06,0.06 -0.08,0.13 -0.08,0.21 0,0.12 0.04,0.2 0.12,0.25 0.08,0.05 0.23,0.08 0.44,0.08l0.36 0 0 -0.64z"/>
  <polygon id="_19" class="fil0" points="21.88,4.88 22.21,4.88 22.21,5.68 23.11,5.68 23.11,4.88 23.44,4.88 23.44,6.81 23.11,6.81 23.11,5.95 22.21,5.95 22.21,6.81 21.88,6.81 "/>
  <path id="_20" class="fil0" d="M25.19 6.57c-0.12,0.1 -0.24,0.18 -0.35,0.22 -0.11,0.04 -0.23,0.06 -0.36,0.06 -0.21,0 -0.37,-0.05 -0.49,-0.15 -0.11,-0.1 -0.17,-0.23 -0.17,-0.39 0,-0.09 0.02,-0.18 0.06,-0.26 0.04,-0.08 0.1,-0.14 0.17,-0.19 0.07,-0.05 0.15,-0.08 0.24,-0.11 0.06,-0.02 0.16,-0.03 0.29,-0.05 0.26,-0.03 0.46,-0.07 0.58,-0.11 0,-0.04 0,-0.07 0,-0.08 0,-0.13 -0.03,-0.23 -0.09,-0.28 -0.08,-0.07 -0.21,-0.11 -0.37,-0.11 -0.15,0 -0.27,0.03 -0.34,0.08 -0.07,0.05 -0.13,0.15 -0.16,0.29l-0.32 -0.04c0.03,-0.14 0.08,-0.25 0.14,-0.33 0.07,-0.08 0.16,-0.15 0.29,-0.19 0.13,-0.05 0.27,-0.07 0.44,-0.07 0.16,0 0.3,0.02 0.4,0.06 0.1,0.04 0.18,0.09 0.23,0.15 0.05,0.06 0.08,0.13 0.1,0.22 0.01,0.06 0.02,0.16 0.02,0.3l0 0.43c0,0.3 0.01,0.49 0.02,0.57 0.01,0.08 0.04,0.16 0.08,0.23l-0.34 0c-0.03,-0.07 -0.05,-0.15 -0.06,-0.24zm-0.03 -0.72c-0.12,0.05 -0.3,0.09 -0.53,0.12 -0.13,0.02 -0.23,0.04 -0.29,0.07 -0.06,0.02 -0.1,0.06 -0.13,0.11 -0.03,0.05 -0.05,0.1 -0.05,0.15 0,0.09 0.03,0.16 0.1,0.22 0.07,0.06 0.16,0.09 0.29,0.09 0.13,0 0.24,-0.03 0.34,-0.08 0.1,-0.05 0.17,-0.13 0.22,-0.22 0.04,-0.07 0.05,-0.18 0.05,-0.33l0 -0.12z"/>
  <path id="_21" class="fil0" d="M25.99 7.55l0 -2.67 0.3 0 0 0.25c0.07,-0.1 0.15,-0.17 0.24,-0.22 0.09,-0.05 0.2,-0.07 0.32,-0.07 0.16,0 0.31,0.04 0.43,0.13 0.13,0.08 0.22,0.2 0.28,0.36 0.06,0.15 0.1,0.32 0.1,0.51 0,0.2 -0.04,0.37 -0.11,0.53 -0.07,0.16 -0.17,0.28 -0.31,0.36 -0.13,0.08 -0.28,0.13 -0.42,0.13 -0.11,0 -0.21,-0.02 -0.29,-0.07 -0.09,-0.05 -0.16,-0.1 -0.21,-0.17l0 0.94 -0.33 0zm0.3 -1.69c0,0.25 0.05,0.43 0.15,0.55 0.1,0.12 0.22,0.18 0.36,0.18 0.14,0 0.27,-0.06 0.37,-0.18 0.1,-0.12 0.15,-0.31 0.15,-0.57 0,-0.25 -0.05,-0.43 -0.15,-0.55 -0.1,-0.12 -0.22,-0.18 -0.36,-0.18 -0.14,0 -0.26,0.07 -0.37,0.19 -0.11,0.13 -0.16,0.32 -0.16,0.57z"/>
  <path id="_22" class="fil0" d="M27.94 5.84c0,-0.36 0.1,-0.62 0.3,-0.79 0.17,-0.14 0.37,-0.21 0.61,-0.21 0.26,0 0.48,0.09 0.65,0.26 0.17,0.17 0.25,0.41 0.25,0.72 0,0.25 -0.04,0.44 -0.11,0.58 -0.07,0.14 -0.18,0.25 -0.32,0.33 -0.14,0.08 -0.3,0.12 -0.46,0.12 -0.27,0 -0.49,-0.09 -0.65,-0.26 -0.17,-0.17 -0.25,-0.42 -0.25,-0.75zm0.33 0c0,0.25 0.05,0.43 0.16,0.55 0.11,0.12 0.24,0.18 0.41,0.18 0.16,0 0.3,-0.06 0.41,-0.18 0.11,-0.12 0.16,-0.31 0.16,-0.56 0,-0.24 -0.05,-0.42 -0.16,-0.54 -0.11,-0.12 -0.24,-0.18 -0.4,-0.18 -0.16,0 -0.3,0.06 -0.41,0.18 -0.11,0.12 -0.16,0.31 -0.16,0.55z"/>
  <path id="_23" class="fil0" d="M30.3 4.88l1.34 0 0 1.66 0.21 0 0 0.81 -0.27 0 0 -0.55 -1.52 0 0 0.55 -0.27 0 0 -0.81 0.17 0c0.23,-0.31 0.34,-0.87 0.33,-1.66zm0.27 0.27c-0.02,0.63 -0.12,1.09 -0.29,1.39l1.04 0 0 -1.39 -0.75 0z"/>
  <polygon id="_24" class="fil0" points="32.21,4.88 32.54,4.88 32.54,5.68 33.44,5.68 33.44,4.88 33.77,4.88 33.77,6.81 33.44,6.81 33.44,5.95 32.54,5.95 32.54,6.81 32.21,6.81 "/>
  <path id="_25" class="fil0" d="M35.52 6.57c-0.12,0.1 -0.24,0.18 -0.35,0.22 -0.11,0.04 -0.23,0.06 -0.36,0.06 -0.21,0 -0.37,-0.05 -0.49,-0.15 -0.11,-0.1 -0.17,-0.23 -0.17,-0.39 0,-0.09 0.02,-0.18 0.06,-0.26 0.04,-0.08 0.1,-0.14 0.17,-0.19 0.07,-0.05 0.15,-0.08 0.24,-0.11 0.06,-0.02 0.16,-0.03 0.29,-0.05 0.26,-0.03 0.46,-0.07 0.58,-0.11 0,-0.04 0,-0.07 0,-0.08 0,-0.13 -0.03,-0.23 -0.09,-0.28 -0.08,-0.07 -0.21,-0.11 -0.37,-0.11 -0.15,0 -0.27,0.03 -0.34,0.08 -0.07,0.05 -0.13,0.15 -0.16,0.29l-0.32 -0.04c0.03,-0.14 0.08,-0.25 0.14,-0.33 0.07,-0.08 0.16,-0.15 0.29,-0.19 0.13,-0.05 0.27,-0.07 0.44,-0.07 0.16,0 0.3,0.02 0.4,0.06 0.1,0.04 0.18,0.09 0.23,0.15 0.05,0.06 0.08,0.13 0.1,0.22 0.01,0.06 0.02,0.16 0.02,0.3l0 0.43c0,0.3 0.01,0.49 0.02,0.57 0.01,0.08 0.04,0.16 0.08,0.23l-0.34 0c-0.03,-0.07 -0.05,-0.15 -0.06,-0.24zm-0.03 -0.72c-0.12,0.05 -0.3,0.09 -0.53,0.12 -0.13,0.02 -0.23,0.04 -0.29,0.07 -0.06,0.02 -0.1,0.06 -0.13,0.11 -0.03,0.05 -0.05,0.1 -0.05,0.15 0,0.09 0.03,0.16 0.1,0.22 0.07,0.06 0.16,0.09 0.29,0.09 0.13,0 0.24,-0.03 0.34,-0.08 0.1,-0.05 0.17,-0.13 0.22,-0.22 0.04,-0.07 0.05,-0.18 0.05,-0.33l0 -0.12z"/>
  <path id="_26" class="fil0" d="M37.84 4.88l0 1.93 -0.33 0 0 -0.75 -0.19 0c-0.11,0 -0.2,0.01 -0.26,0.05 -0.06,0.03 -0.14,0.13 -0.25,0.29l-0.29 0.42 -0.4 0 0.35 -0.52c0.11,-0.16 0.22,-0.25 0.32,-0.27 -0.19,-0.03 -0.32,-0.09 -0.42,-0.2 -0.09,-0.11 -0.14,-0.23 -0.14,-0.38 0,-0.17 0.06,-0.3 0.18,-0.41 0.12,-0.1 0.29,-0.16 0.51,-0.16l0.89 0zm-0.33 0.27l-0.46 0c-0.19,0 -0.32,0.03 -0.38,0.09 -0.06,0.06 -0.08,0.13 -0.08,0.21 0,0.12 0.04,0.2 0.12,0.25 0.08,0.05 0.23,0.08 0.44,0.08l0.36 0 0 -0.64z"/>
  <path id="_27" class="fil0" d="M40.63 6.1l0.32 0.04c-0.04,0.22 -0.12,0.39 -0.27,0.52 -0.14,0.12 -0.32,0.19 -0.53,0.19 -0.26,0 -0.47,-0.09 -0.63,-0.26 -0.16,-0.17 -0.24,-0.42 -0.24,-0.74 0,-0.21 0.03,-0.39 0.1,-0.55 0.07,-0.16 0.17,-0.27 0.31,-0.35 0.14,-0.08 0.29,-0.12 0.46,-0.12 0.21,0 0.38,0.05 0.51,0.16 0.13,0.11 0.22,0.26 0.26,0.45l-0.32 0.05c-0.03,-0.13 -0.08,-0.23 -0.16,-0.29 -0.08,-0.06 -0.17,-0.1 -0.28,-0.1 -0.16,0 -0.3,0.06 -0.4,0.18 -0.1,0.12 -0.15,0.3 -0.15,0.56 0,0.26 0.05,0.45 0.15,0.56 0.1,0.12 0.23,0.18 0.39,0.18 0.13,0 0.24,-0.04 0.32,-0.12 0.09,-0.08 0.14,-0.2 0.16,-0.36z"/>
  <path id="_28" class="fil0" d="M41.22 4.88l0.33 0 0 0.83c0.1,0 0.18,-0.02 0.22,-0.06 0.04,-0.04 0.1,-0.16 0.18,-0.35 0.06,-0.15 0.12,-0.25 0.16,-0.3 0.04,-0.05 0.09,-0.08 0.14,-0.1 0.05,-0.02 0.14,-0.03 0.25,-0.03l0.07 0 0 0.27 -0.09 -0c-0.09,0 -0.14,0.01 -0.17,0.04 -0.03,0.03 -0.06,0.11 -0.12,0.24 -0.05,0.13 -0.09,0.21 -0.14,0.26 -0.04,0.05 -0.1,0.09 -0.19,0.13 0.14,0.04 0.28,0.17 0.42,0.39l0.36 0.6 -0.36 0 -0.35 -0.6c-0.07,-0.12 -0.13,-0.2 -0.19,-0.24 -0.05,-0.04 -0.12,-0.06 -0.19,-0.06l0 0.89 -0.33 0 0 -1.93z"/>
  <path id="_29" class="fil0" d="M44.19 6.57c-0.12,0.1 -0.24,0.18 -0.35,0.22 -0.11,0.04 -0.23,0.06 -0.36,0.06 -0.21,0 -0.37,-0.05 -0.49,-0.15 -0.11,-0.1 -0.17,-0.23 -0.17,-0.39 0,-0.09 0.02,-0.18 0.06,-0.26 0.04,-0.08 0.1,-0.14 0.17,-0.19 0.07,-0.05 0.15,-0.08 0.24,-0.11 0.06,-0.02 0.16,-0.03 0.29,-0.05 0.26,-0.03 0.46,-0.07 0.58,-0.11 0,-0.04 0,-0.07 0,-0.08 0,-0.13 -0.03,-0.23 -0.09,-0.28 -0.08,-0.07 -0.21,-0.11 -0.37,-0.11 -0.15,0 -0.27,0.03 -0.34,0.08 -0.07,0.05 -0.13,0.15 -0.16,0.29l-0.32 -0.04c0.03,-0.14 0.08,-0.25 0.14,-0.33 0.07,-0.08 0.16,-0.15 0.29,-0.19 0.13,-0.05 0.27,-0.07 0.44,-0.07 0.16,0 0.3,0.02 0.4,0.06 0.1,0.04 0.18,0.09 0.23,0.15 0.05,0.06 0.08,0.13 0.1,0.22 0.01,0.06 0.02,0.16 0.02,0.3l0 0.43c0,0.3 0.01,0.49 0.02,0.57 0.01,0.08 0.04,0.16 0.08,0.23l-0.34 0c-0.03,-0.07 -0.05,-0.15 -0.06,-0.24zm-0.03 -0.72c-0.12,0.05 -0.3,0.09 -0.53,0.12 -0.13,0.02 -0.23,0.04 -0.29,0.07 -0.06,0.02 -0.1,0.06 -0.13,0.11 -0.03,0.05 -0.05,0.1 -0.05,0.15 0,0.09 0.03,0.16 0.1,0.22 0.07,0.06 0.16,0.09 0.29,0.09 0.13,0 0.24,-0.03 0.34,-0.08 0.1,-0.05 0.17,-0.13 0.22,-0.22 0.04,-0.07 0.05,-0.18 0.05,-0.33l0 -0.12z"/>
  <path id="_30" class="fil0" d="M45.38 5.94l0 -0.26c0.14,-0 0.23,-0.01 0.28,-0.02 0.05,-0.01 0.1,-0.04 0.14,-0.09 0.04,-0.05 0.07,-0.11 0.07,-0.18 0,-0.09 -0.03,-0.16 -0.09,-0.21 -0.06,-0.05 -0.13,-0.08 -0.23,-0.08 -0.18,0 -0.31,0.11 -0.39,0.32l-0.31 -0.05c0.1,-0.36 0.33,-0.54 0.7,-0.54 0.21,0 0.37,0.06 0.48,0.17 0.12,0.11 0.18,0.25 0.18,0.4 0,0.16 -0.08,0.28 -0.23,0.37 0.1,0.05 0.17,0.12 0.22,0.2 0.05,0.08 0.07,0.18 0.07,0.29 0,0.17 -0.06,0.31 -0.19,0.42 -0.13,0.11 -0.3,0.16 -0.53,0.16 -0.44,0 -0.69,-0.19 -0.76,-0.58l0.31 -0.07c0.03,0.12 0.08,0.22 0.17,0.29 0.09,0.07 0.18,0.1 0.29,0.1 0.11,0 0.2,-0.03 0.27,-0.09 0.07,-0.06 0.11,-0.14 0.11,-0.24 0,-0.07 -0.02,-0.14 -0.07,-0.2 -0.05,-0.06 -0.09,-0.09 -0.15,-0.1 -0.05,-0.01 -0.15,-0.02 -0.28,-0.02 -0.01,0 -0.04,0 -0.07,0z"/>
  <path id="_31" class="fil0" d="M46.65 4.88l0.33 0 0 0.83c0.1,0 0.18,-0.02 0.22,-0.06 0.04,-0.04 0.1,-0.16 0.18,-0.35 0.06,-0.15 0.12,-0.25 0.16,-0.3 0.04,-0.05 0.09,-0.08 0.14,-0.1 0.05,-0.02 0.14,-0.03 0.25,-0.03l0.07 0 0 0.27 -0.09 -0c-0.09,0 -0.14,0.01 -0.17,0.04 -0.03,0.03 -0.06,0.11 -0.12,0.24 -0.05,0.13 -0.09,0.21 -0.14,0.26 -0.04,0.05 -0.1,0.09 -0.19,0.13 0.14,0.04 0.28,0.17 0.42,0.39l0.36 0.6 -0.36 0 -0.35 -0.6c-0.07,-0.12 -0.13,-0.2 -0.19,-0.24 -0.05,-0.04 -0.12,-0.06 -0.19,-0.06l0 0.89 -0.33 0 0 -1.93z"/>
  <path id="_32" class="fil0" d="M49.62 6.57c-0.12,0.1 -0.24,0.18 -0.35,0.22 -0.11,0.04 -0.23,0.06 -0.36,0.06 -0.21,0 -0.37,-0.05 -0.49,-0.15 -0.11,-0.1 -0.17,-0.23 -0.17,-0.39 0,-0.09 0.02,-0.18 0.06,-0.26 0.04,-0.08 0.1,-0.14 0.17,-0.19 0.07,-0.05 0.15,-0.08 0.24,-0.11 0.06,-0.02 0.16,-0.03 0.29,-0.05 0.26,-0.03 0.46,-0.07 0.58,-0.11 0,-0.04 0,-0.07 0,-0.08 0,-0.13 -0.03,-0.23 -0.09,-0.28 -0.08,-0.07 -0.21,-0.11 -0.37,-0.11 -0.15,0 -0.27,0.03 -0.34,0.08 -0.07,0.05 -0.13,0.15 -0.16,0.29l-0.32 -0.04c0.03,-0.14 0.08,-0.25 0.14,-0.33 0.07,-0.08 0.16,-0.15 0.29,-0.19 0.13,-0.05 0.27,-0.07 0.44,-0.07 0.16,0 0.3,0.02 0.4,0.06 0.1,0.04 0.18,0.09 0.23,0.15 0.05,0.06 0.08,0.13 0.1,0.22 0.01,0.06 0.02,0.16 0.02,0.3l0 0.43c0,0.3 0.01,0.49 0.02,0.57 0.01,0.08 0.04,0.16 0.08,0.23l-0.34 0c-0.03,-0.07 -0.05,-0.15 -0.06,-0.24zm-0.03 -0.72c-0.12,0.05 -0.3,0.09 -0.53,0.12 -0.13,0.02 -0.23,0.04 -0.29,0.07 -0.06,0.02 -0.1,0.06 -0.13,0.11 -0.03,0.05 -0.05,0.1 -0.05,0.15 0,0.09 0.03,0.16 0.1,0.22 0.07,0.06 0.16,0.09 0.29,0.09 0.13,0 0.24,-0.03 0.34,-0.08 0.1,-0.05 0.17,-0.13 0.22,-0.22 0.04,-0.07 0.05,-0.18 0.05,-0.33l0 -0.12z"/>
  <path id="_33" class="fil0" d="M50.64 7.59l-0.23 0c0.36,-0.58 0.54,-1.16 0.54,-1.74 0,-0.23 -0.03,-0.45 -0.08,-0.68 -0.04,-0.18 -0.1,-0.36 -0.17,-0.52 -0.05,-0.11 -0.14,-0.29 -0.29,-0.54l0.23 0c0.23,0.3 0.39,0.61 0.5,0.91 0.09,0.26 0.14,0.54 0.14,0.83 0,0.33 -0.06,0.64 -0.19,0.95 -0.12,0.3 -0.28,0.57 -0.46,0.8z"/>
  <path id="_34" class="fil1 str0" d="M16.2 0l1.62 0 0 2.35 0.24 0 0 0.93 -0.31 0 0 -0.62 -1.76 0 0 0.62 -0.31 0 0 -0.93 0.2 0c0.22,-0.32 0.32,-0.98 0.32,-1.96l0 -0.39zm1.27 0.31l-0.93 0 0 0.14c0,0.23 -0.02,0.54 -0.06,0.93 -0.04,0.39 -0.12,0.72 -0.24,0.97l1.23 0 0 -2.03z"/>
  <path id="_35" class="fil1 str0" d="M18.46 2.66l0 -2.66 1 0c0.2,0 0.37,0.03 0.49,0.08 0.12,0.05 0.22,0.14 0.29,0.25 0.07,0.11 0.1,0.23 0.1,0.35 0,0.11 -0.03,0.22 -0.09,0.32 -0.06,0.1 -0.15,0.18 -0.28,0.24 0.16,0.05 0.28,0.13 0.37,0.24 0.09,0.11 0.13,0.25 0.13,0.4 0,0.13 -0.03,0.24 -0.08,0.35 -0.05,0.11 -0.12,0.19 -0.19,0.25 -0.08,0.06 -0.17,0.1 -0.29,0.13 -0.12,0.03 -0.26,0.04 -0.43,0.04l-1.01 0zm0.35 -1.54l0.57 0c0.16,0 0.27,-0.01 0.34,-0.03 0.09,-0.03 0.16,-0.07 0.2,-0.13 0.05,-0.06 0.07,-0.14 0.07,-0.23 0,-0.09 -0.02,-0.17 -0.06,-0.23 -0.04,-0.07 -0.1,-0.11 -0.18,-0.14 -0.08,-0.02 -0.21,-0.04 -0.4,-0.04l-0.53 0 0 0.81zm0 1.23l0.66 0c0.11,0 0.19,-0 0.24,-0.01 0.08,-0.01 0.15,-0.04 0.2,-0.07 0.05,-0.03 0.1,-0.08 0.13,-0.15 0.04,-0.07 0.05,-0.14 0.05,-0.22 0,-0.1 -0.03,-0.19 -0.08,-0.26 -0.05,-0.07 -0.12,-0.13 -0.21,-0.15 -0.09,-0.03 -0.22,-0.04 -0.39,-0.04l-0.62 0 0 0.92z"/>
  <path id="_36" class="fil1 str0" d="M20.53 2.66l1.02 -2.66 0.39 0 1.08 2.66 -0.4 0 -0.31 -0.81 -1.12 0 -0.29 0.81 -0.37 0zm0.76 -1.09l0.91 0 -0.28 -0.74c-0.08,-0.22 -0.15,-0.41 -0.19,-0.56 -0.04,0.17 -0.09,0.34 -0.15,0.51l-0.29 0.78z"/>
  <path id="_37" class="fil1 str0" d="M24.35 0l1.73 0 0 0.31 -1.37 0 0 0.82 0.63 0c0.23,0 0.42,0.02 0.56,0.07 0.14,0.04 0.25,0.13 0.33,0.25 0.08,0.12 0.13,0.27 0.13,0.43 0,0.13 -0.03,0.26 -0.09,0.38 -0.06,0.12 -0.15,0.21 -0.27,0.29 -0.12,0.07 -0.32,0.11 -0.61,0.11l-1.04 0 0 -2.66zm0.35 2.36l0.7 0c0.19,0 0.33,-0.04 0.43,-0.12 0.09,-0.08 0.14,-0.19 0.14,-0.35 0,-0.11 -0.03,-0.2 -0.08,-0.28 -0.05,-0.07 -0.13,-0.12 -0.23,-0.15 -0.1,-0.02 -0.26,-0.04 -0.5,-0.04l-0.47 0 0 0.92z"/>
  <path id="_38" class="fil1 str0" d="M26.77 2.66l0 -2.66 1 0c0.18,0 0.31,0.01 0.4,0.03 0.13,0.02 0.24,0.06 0.33,0.12 0.09,0.06 0.16,0.15 0.21,0.26 0.05,0.11 0.08,0.23 0.08,0.36 0,0.23 -0.07,0.42 -0.22,0.57 -0.14,0.16 -0.4,0.23 -0.78,0.23l-0.68 0 0 1.08 -0.35 0zm0.35 -1.4l0.69 0c0.23,0 0.39,-0.04 0.48,-0.13 0.1,-0.08 0.14,-0.2 0.14,-0.36 0,-0.11 -0.03,-0.21 -0.08,-0.29 -0.06,-0.08 -0.13,-0.13 -0.22,-0.16 -0.06,-0.02 -0.17,-0.02 -0.33,-0.02l-0.68 0 0 0.95z"/>
  <path id="_39" class="fil1 str0" d="M28.71 2.66l1.02 -2.66 0.39 0 1.08 2.66 -0.4 0 -0.31 -0.81 -1.12 0 -0.29 0.81 -0.37 0zm0.76 -1.09l0.91 0 -0.28 -0.74c-0.08,-0.22 -0.15,-0.41 -0.19,-0.56 -0.04,0.17 -0.09,0.34 -0.15,0.51l-0.29 0.78z"/>
  <polygon id="_40" class="fil1 str0" points="31.86,2.66 31.86,0.31 30.99,0.31 30.99,0 33.09,0 33.09,0.31 32.22,0.31 32.22,2.66 "/>
  <path id="_41" class="fil1 str0" d="M33.04 2.66l1.02 -2.66 0.39 0 1.08 2.66 -0.4 0 -0.31 -0.81 -1.12 0 -0.29 0.81 -0.37 0zm0.76 -1.09l0.91 0 -0.28 -0.74c-0.08,-0.22 -0.15,-0.41 -0.19,-0.56 -0.04,0.17 -0.09,0.34 -0.15,0.51l-0.29 0.78z"/>
  <path id="_42" class="fil1 str0" d="M0.64 7.59c-0.18,-0.23 -0.33,-0.49 -0.46,-0.8 -0.12,-0.3 -0.19,-0.62 -0.19,-0.95 0,-0.29 0.05,-0.56 0.14,-0.83 0.11,-0.31 0.28,-0.61 0.5,-0.91l0.23 0c-0.15,0.25 -0.24,0.43 -0.29,0.54 -0.07,0.17 -0.13,0.34 -0.17,0.52 -0.05,0.23 -0.08,0.45 -0.08,0.68 0,0.58 0.18,1.16 0.54,1.74l-0.23 0z"/>
  <path id="_43" class="fil1 str0" d="M1.24 7.55l-0.04 -0.3c0.07,0.02 0.13,0.03 0.19,0.03 0.07,0 0.13,-0.01 0.17,-0.04 0.04,-0.02 0.08,-0.06 0.11,-0.1 0.02,-0.03 0.05,-0.11 0.1,-0.24 0.01,-0.02 0.02,-0.04 0.03,-0.08l-0.73 -1.93 0.35 0 0.4 1.11c0.05,0.14 0.1,0.29 0.14,0.45 0.04,-0.15 0.08,-0.29 0.13,-0.43l0.41 -1.12 0.33 0 -0.73 1.96c-0.08,0.21 -0.14,0.36 -0.18,0.44 -0.06,0.11 -0.12,0.19 -0.2,0.24 -0.08,0.05 -0.17,0.07 -0.27,0.07 -0.06,0 -0.13,-0.01 -0.21,-0.04z"/>
  <path id="_44" class="fil1 str0" d="M3.25 4.88l1.34 0 0 1.66 0.21 0 0 0.81 -0.27 0 0 -0.55 -1.52 0 0 0.55 -0.27 0 0 -0.81 0.17 0c0.23,-0.31 0.34,-0.87 0.33,-1.66zm0.27 0.27c-0.02,0.63 -0.12,1.09 -0.29,1.39l1.04 0 0 -1.39 -0.75 0z"/>
  <polygon id="_45" class="fil1 str0" points="5.17,4.88 5.67,4.88 6.18,6.42 6.74,4.88 7.21,4.88 7.21,6.81 6.88,6.81 6.88,5.26 6.31,6.81 6.02,6.81 5.49,5.18 5.49,6.81 5.17,6.81 "/>
  <path id="_46" class="fil1 str0" d="M7.74 7.55l-0.04 -0.3c0.07,0.02 0.13,0.03 0.19,0.03 0.07,0 0.13,-0.01 0.17,-0.04 0.04,-0.02 0.08,-0.06 0.11,-0.1 0.02,-0.03 0.05,-0.11 0.1,-0.24 0.01,-0.02 0.02,-0.04 0.03,-0.08l-0.73 -1.93 0.35 0 0.4 1.11c0.05,0.14 0.1,0.29 0.14,0.45 0.04,-0.15 0.08,-0.29 0.13,-0.43l0.41 -1.12 0.33 0 -0.73 1.96c-0.08,0.21 -0.14,0.36 -0.18,0.44 -0.06,0.11 -0.12,0.19 -0.2,0.24 -0.08,0.05 -0.17,0.07 -0.27,0.07 -0.06,0 -0.13,-0.01 -0.21,-0.04z"/>
  <path id="_47" class="fil1 str0" d="M9.57 7.55l0 -2.67 0.3 0 0 0.25c0.07,-0.1 0.15,-0.17 0.24,-0.22 0.09,-0.05 0.2,-0.07 0.32,-0.07 0.16,0 0.31,0.04 0.43,0.13 0.13,0.08 0.22,0.2 0.28,0.36 0.06,0.15 0.1,0.32 0.1,0.51 0,0.2 -0.04,0.37 -0.11,0.53 -0.07,0.16 -0.17,0.28 -0.31,0.36 -0.13,0.08 -0.28,0.13 -0.42,0.13 -0.11,0 -0.21,-0.02 -0.29,-0.07 -0.09,-0.05 -0.16,-0.1 -0.21,-0.17l0 0.94 -0.33 0zm0.3 -1.69c0,0.25 0.05,0.43 0.15,0.55 0.1,0.12 0.22,0.18 0.36,0.18 0.14,0 0.27,-0.06 0.37,-0.18 0.1,-0.12 0.15,-0.31 0.15,-0.57 0,-0.25 -0.05,-0.43 -0.15,-0.55 -0.1,-0.12 -0.22,-0.18 -0.36,-0.18 -0.14,0 -0.26,0.07 -0.37,0.19 -0.11,0.13 -0.16,0.32 -0.16,0.57z"/>
  <polygon id="_48" class="fil1 str0" points="11.38,4.88 12.94,4.88 12.94,5.15 12.32,5.15 12.32,6.81 11.99,6.81 11.99,5.15 11.38,5.15 "/>
  <path id="_49" class="fil1 str0" d="M14.47 6.1l0.32 0.04c-0.04,0.22 -0.12,0.39 -0.27,0.52 -0.14,0.12 -0.32,0.19 -0.53,0.19 -0.26,0 -0.47,-0.09 -0.63,-0.26 -0.16,-0.17 -0.24,-0.42 -0.24,-0.74 0,-0.21 0.03,-0.39 0.1,-0.55 0.07,-0.16 0.17,-0.27 0.31,-0.35 0.14,-0.08 0.29,-0.12 0.46,-0.12 0.21,0 0.38,0.05 0.51,0.16 0.13,0.11 0.22,0.26 0.26,0.45l-0.32 0.05c-0.03,-0.13 -0.08,-0.23 -0.16,-0.29 -0.08,-0.06 -0.17,-0.1 -0.28,-0.1 -0.16,0 -0.3,0.06 -0.4,0.18 -0.1,0.12 -0.15,0.3 -0.15,0.56 0,0.26 0.05,0.45 0.15,0.56 0.1,0.12 0.23,0.18 0.39,0.18 0.13,0 0.24,-0.04 0.32,-0.12 0.09,-0.08 0.14,-0.2 0.16,-0.36z"/>
  <path id="_50" class="fil1 str0" d="M15.06 4.88l0.33 0 0 0.83c0.1,0 0.18,-0.02 0.22,-0.06 0.04,-0.04 0.1,-0.16 0.18,-0.35 0.06,-0.15 0.12,-0.25 0.16,-0.3 0.04,-0.05 0.09,-0.08 0.14,-0.1 0.05,-0.02 0.14,-0.03 0.25,-0.03l0.07 0 0 0.27 -0.09 -0c-0.09,0 -0.14,0.01 -0.17,0.04 -0.03,0.03 -0.06,0.11 -0.12,0.24 -0.05,0.13 -0.09,0.21 -0.14,0.26 -0.04,0.05 -0.1,0.09 -0.19,0.13 0.14,0.04 0.28,0.17 0.42,0.39l0.36 0.6 -0.36 0 -0.35 -0.6c-0.07,-0.12 -0.13,-0.2 -0.19,-0.24 -0.05,-0.04 -0.12,-0.06 -0.19,-0.06l0 0.89 -0.33 0 0 -1.93z"/>
  <path id="_51" class="fil1 str0" d="M18.03 6.57c-0.12,0.1 -0.24,0.18 -0.35,0.22 -0.11,0.04 -0.23,0.06 -0.36,0.06 -0.21,0 -0.37,-0.05 -0.49,-0.15 -0.11,-0.1 -0.17,-0.23 -0.17,-0.39 0,-0.09 0.02,-0.18 0.06,-0.26 0.04,-0.08 0.1,-0.14 0.17,-0.19 0.07,-0.05 0.15,-0.08 0.24,-0.11 0.06,-0.02 0.16,-0.03 0.29,-0.05 0.26,-0.03 0.46,-0.07 0.58,-0.11 0,-0.04 0,-0.07 0,-0.08 0,-0.13 -0.03,-0.23 -0.09,-0.28 -0.08,-0.07 -0.21,-0.11 -0.37,-0.11 -0.15,0 -0.27,0.03 -0.34,0.08 -0.07,0.05 -0.13,0.15 -0.16,0.29l-0.32 -0.04c0.03,-0.14 0.08,-0.25 0.14,-0.33 0.07,-0.08 0.16,-0.15 0.29,-0.19 0.13,-0.05 0.27,-0.07 0.44,-0.07 0.16,0 0.3,0.02 0.4,0.06 0.1,0.04 0.18,0.09 0.23,0.15 0.05,0.06 0.08,0.13 0.1,0.22 0.01,0.06 0.02,0.16 0.02,0.3l0 0.43c0,0.3 0.01,0.49 0.02,0.57 0.01,0.08 0.04,0.16 0.08,0.23l-0.34 0c-0.03,-0.07 -0.05,-0.15 -0.06,-0.24zm-0.03 -0.72c-0.12,0.05 -0.3,0.09 -0.53,0.12 -0.13,0.02 -0.23,0.04 -0.29,0.07 -0.06,0.02 -0.1,0.06 -0.13,0.11 -0.03,0.05 -0.05,0.1 -0.05,0.15 0,0.09 0.03,0.16 0.1,0.22 0.07,0.06 0.16,0.09 0.29,0.09 0.13,0 0.24,-0.03 0.34,-0.08 0.1,-0.05 0.17,-0.13 0.22,-0.22 0.04,-0.07 0.05,-0.18 0.05,-0.33l0 -0.12z"/>
  <path id="_52" class="fil1 str0" d="M20.36 4.88l0 1.93 -0.33 0 0 -0.75 -0.19 0c-0.11,0 -0.2,0.01 -0.26,0.05 -0.06,0.03 -0.14,0.13 -0.25,0.29l-0.29 0.42 -0.4 0 0.35 -0.52c0.11,-0.16 0.22,-0.25 0.32,-0.27 -0.19,-0.03 -0.32,-0.09 -0.42,-0.2 -0.09,-0.11 -0.14,-0.23 -0.14,-0.38 0,-0.17 0.06,-0.3 0.18,-0.41 0.12,-0.1 0.29,-0.16 0.51,-0.16l0.89 0zm-0.33 0.27l-0.46 0c-0.19,0 -0.32,0.03 -0.38,0.09 -0.06,0.06 -0.08,0.13 -0.08,0.21 0,0.12 0.04,0.2 0.12,0.25 0.08,0.05 0.23,0.08 0.44,0.08l0.36 0 0 -0.64z"/>
  <polygon id="_53" class="fil1 str0" points="21.88,4.88 22.21,4.88 22.21,5.68 23.11,5.68 23.11,4.88 23.44,4.88 23.44,6.81 23.11,6.81 23.11,5.95 22.21,5.95 22.21,6.81 21.88,6.81 "/>
  <path id="_54" class="fil1 str0" d="M25.19 6.57c-0.12,0.1 -0.24,0.18 -0.35,0.22 -0.11,0.04 -0.23,0.06 -0.36,0.06 -0.21,0 -0.37,-0.05 -0.49,-0.15 -0.11,-0.1 -0.17,-0.23 -0.17,-0.39 0,-0.09 0.02,-0.18 0.06,-0.26 0.04,-0.08 0.1,-0.14 0.17,-0.19 0.07,-0.05 0.15,-0.08 0.24,-0.11 0.06,-0.02 0.16,-0.03 0.29,-0.05 0.26,-0.03 0.46,-0.07 0.58,-0.11 0,-0.04 0,-0.07 0,-0.08 0,-0.13 -0.03,-0.23 -0.09,-0.28 -0.08,-0.07 -0.21,-0.11 -0.37,-0.11 -0.15,0 -0.27,0.03 -0.34,0.08 -0.07,0.05 -0.13,0.15 -0.16,0.29l-0.32 -0.04c0.03,-0.14 0.08,-0.25 0.14,-0.33 0.07,-0.08 0.16,-0.15 0.29,-0.19 0.13,-0.05 0.27,-0.07 0.44,-0.07 0.16,0 0.3,0.02 0.4,0.06 0.1,0.04 0.18,0.09 0.23,0.15 0.05,0.06 0.08,0.13 0.1,0.22 0.01,0.06 0.02,0.16 0.02,0.3l0 0.43c0,0.3 0.01,0.49 0.02,0.57 0.01,0.08 0.04,0.16 0.08,0.23l-0.34 0c-0.03,-0.07 -0.05,-0.15 -0.06,-0.24zm-0.03 -0.72c-0.12,0.05 -0.3,0.09 -0.53,0.12 -0.13,0.02 -0.23,0.04 -0.29,0.07 -0.06,0.02 -0.1,0.06 -0.13,0.11 -0.03,0.05 -0.05,0.1 -0.05,0.15 0,0.09 0.03,0.16 0.1,0.22 0.07,0.06 0.16,0.09 0.29,0.09 0.13,0 0.24,-0.03 0.34,-0.08 0.1,-0.05 0.17,-0.13 0.22,-0.22 0.04,-0.07 0.05,-0.18 0.05,-0.33l0 -0.12z"/>
  <path id="_55" class="fil1 str0" d="M25.99 7.55l0 -2.67 0.3 0 0 0.25c0.07,-0.1 0.15,-0.17 0.24,-0.22 0.09,-0.05 0.2,-0.07 0.32,-0.07 0.16,0 0.31,0.04 0.43,0.13 0.13,0.08 0.22,0.2 0.28,0.36 0.06,0.15 0.1,0.32 0.1,0.51 0,0.2 -0.04,0.37 -0.11,0.53 -0.07,0.16 -0.17,0.28 -0.31,0.36 -0.13,0.08 -0.28,0.13 -0.42,0.13 -0.11,0 -0.21,-0.02 -0.29,-0.07 -0.09,-0.05 -0.16,-0.1 -0.21,-0.17l0 0.94 -0.33 0zm0.3 -1.69c0,0.25 0.05,0.43 0.15,0.55 0.1,0.12 0.22,0.18 0.36,0.18 0.14,0 0.27,-0.06 0.37,-0.18 0.1,-0.12 0.15,-0.31 0.15,-0.57 0,-0.25 -0.05,-0.43 -0.15,-0.55 -0.1,-0.12 -0.22,-0.18 -0.36,-0.18 -0.14,0 -0.26,0.07 -0.37,0.19 -0.11,0.13 -0.16,0.32 -0.16,0.57z"/>
  <path id="_56" class="fil1 str0" d="M27.94 5.84c0,-0.36 0.1,-0.62 0.3,-0.79 0.17,-0.14 0.37,-0.21 0.61,-0.21 0.26,0 0.48,0.09 0.65,0.26 0.17,0.17 0.25,0.41 0.25,0.72 0,0.25 -0.04,0.44 -0.11,0.58 -0.07,0.14 -0.18,0.25 -0.32,0.33 -0.14,0.08 -0.3,0.12 -0.46,0.12 -0.27,0 -0.49,-0.09 -0.65,-0.26 -0.17,-0.17 -0.25,-0.42 -0.25,-0.75zm0.33 0c0,0.25 0.05,0.43 0.16,0.55 0.11,0.12 0.24,0.18 0.41,0.18 0.16,0 0.3,-0.06 0.41,-0.18 0.11,-0.12 0.16,-0.31 0.16,-0.56 0,-0.24 -0.05,-0.42 -0.16,-0.54 -0.11,-0.12 -0.24,-0.18 -0.4,-0.18 -0.16,0 -0.3,0.06 -0.41,0.18 -0.11,0.12 -0.16,0.31 -0.16,0.55z"/>
  <path id="_57" class="fil1 str0" d="M30.3 4.88l1.34 0 0 1.66 0.21 0 0 0.81 -0.27 0 0 -0.55 -1.52 0 0 0.55 -0.27 0 0 -0.81 0.17 0c0.23,-0.31 0.34,-0.87 0.33,-1.66zm0.27 0.27c-0.02,0.63 -0.12,1.09 -0.29,1.39l1.04 0 0 -1.39 -0.75 0z"/>
  <polygon id="_58" class="fil1 str0" points="32.21,4.88 32.54,4.88 32.54,5.68 33.44,5.68 33.44,4.88 33.77,4.88 33.77,6.81 33.44,6.81 33.44,5.95 32.54,5.95 32.54,6.81 32.21,6.81 "/>
  <path id="_59" class="fil1 str0" d="M35.52 6.57c-0.12,0.1 -0.24,0.18 -0.35,0.22 -0.11,0.04 -0.23,0.06 -0.36,0.06 -0.21,0 -0.37,-0.05 -0.49,-0.15 -0.11,-0.1 -0.17,-0.23 -0.17,-0.39 0,-0.09 0.02,-0.18 0.06,-0.26 0.04,-0.08 0.1,-0.14 0.17,-0.19 0.07,-0.05 0.15,-0.08 0.24,-0.11 0.06,-0.02 0.16,-0.03 0.29,-0.05 0.26,-0.03 0.46,-0.07 0.58,-0.11 0,-0.04 0,-0.07 0,-0.08 0,-0.13 -0.03,-0.23 -0.09,-0.28 -0.08,-0.07 -0.21,-0.11 -0.37,-0.11 -0.15,0 -0.27,0.03 -0.34,0.08 -0.07,0.05 -0.13,0.15 -0.16,0.29l-0.32 -0.04c0.03,-0.14 0.08,-0.25 0.14,-0.33 0.07,-0.08 0.16,-0.15 0.29,-0.19 0.13,-0.05 0.27,-0.07 0.44,-0.07 0.16,0 0.3,0.02 0.4,0.06 0.1,0.04 0.18,0.09 0.23,0.15 0.05,0.06 0.08,0.13 0.1,0.22 0.01,0.06 0.02,0.16 0.02,0.3l0 0.43c0,0.3 0.01,0.49 0.02,0.57 0.01,0.08 0.04,0.16 0.08,0.23l-0.34 0c-0.03,-0.07 -0.05,-0.15 -0.06,-0.24zm-0.03 -0.72c-0.12,0.05 -0.3,0.09 -0.53,0.12 -0.13,0.02 -0.23,0.04 -0.29,0.07 -0.06,0.02 -0.1,0.06 -0.13,0.11 -0.03,0.05 -0.05,0.1 -0.05,0.15 0,0.09 0.03,0.16 0.1,0.22 0.07,0.06 0.16,0.09 0.29,0.09 0.13,0 0.24,-0.03 0.34,-0.08 0.1,-0.05 0.17,-0.13 0.22,-0.22 0.04,-0.07 0.05,-0.18 0.05,-0.33l0 -0.12z"/>
  <path id="_60" class="fil1 str0" d="M37.84 4.88l0 1.93 -0.33 0 0 -0.75 -0.19 0c-0.11,0 -0.2,0.01 -0.26,0.05 -0.06,0.03 -0.14,0.13 -0.25,0.29l-0.29 0.42 -0.4 0 0.35 -0.52c0.11,-0.16 0.22,-0.25 0.32,-0.27 -0.19,-0.03 -0.32,-0.09 -0.42,-0.2 -0.09,-0.11 -0.14,-0.23 -0.14,-0.38 0,-0.17 0.06,-0.3 0.18,-0.41 0.12,-0.1 0.29,-0.16 0.51,-0.16l0.89 0zm-0.33 0.27l-0.46 0c-0.19,0 -0.32,0.03 -0.38,0.09 -0.06,0.06 -0.08,0.13 -0.08,0.21 0,0.12 0.04,0.2 0.12,0.25 0.08,0.05 0.23,0.08 0.44,0.08l0.36 0 0 -0.64z"/>
  <path id="_61" class="fil1 str0" d="M40.63 6.1l0.32 0.04c-0.04,0.22 -0.12,0.39 -0.27,0.52 -0.14,0.12 -0.32,0.19 -0.53,0.19 -0.26,0 -0.47,-0.09 -0.63,-0.26 -0.16,-0.17 -0.24,-0.42 -0.24,-0.74 0,-0.21 0.03,-0.39 0.1,-0.55 0.07,-0.16 0.17,-0.27 0.31,-0.35 0.14,-0.08 0.29,-0.12 0.46,-0.12 0.21,0 0.38,0.05 0.51,0.16 0.13,0.11 0.22,0.26 0.26,0.45l-0.32 0.05c-0.03,-0.13 -0.08,-0.23 -0.16,-0.29 -0.08,-0.06 -0.17,-0.1 -0.28,-0.1 -0.16,0 -0.3,0.06 -0.4,0.18 -0.1,0.12 -0.15,0.3 -0.15,0.56 0,0.26 0.05,0.45 0.15,0.56 0.1,0.12 0.23,0.18 0.39,0.18 0.13,0 0.24,-0.04 0.32,-0.12 0.09,-0.08 0.14,-0.2 0.16,-0.36z"/>
  <path id="_62" class="fil1 str0" d="M41.22 4.88l0.33 0 0 0.83c0.1,0 0.18,-0.02 0.22,-0.06 0.04,-0.04 0.1,-0.16 0.18,-0.35 0.06,-0.15 0.12,-0.25 0.16,-0.3 0.04,-0.05 0.09,-0.08 0.14,-0.1 0.05,-0.02 0.14,-0.03 0.25,-0.03l0.07 0 0 0.27 -0.09 -0c-0.09,0 -0.14,0.01 -0.17,0.04 -0.03,0.03 -0.06,0.11 -0.12,0.24 -0.05,0.13 -0.09,0.21 -0.14,0.26 -0.04,0.05 -0.1,0.09 -0.19,0.13 0.14,0.04 0.28,0.17 0.42,0.39l0.36 0.6 -0.36 0 -0.35 -0.6c-0.07,-0.12 -0.13,-0.2 -0.19,-0.24 -0.05,-0.04 -0.12,-0.06 -0.19,-0.06l0 0.89 -0.33 0 0 -1.93z"/>
  <path id="_63" class="fil1 str0" d="M44.19 6.57c-0.12,0.1 -0.24,0.18 -0.35,0.22 -0.11,0.04 -0.23,0.06 -0.36,0.06 -0.21,0 -0.37,-0.05 -0.49,-0.15 -0.11,-0.1 -0.17,-0.23 -0.17,-0.39 0,-0.09 0.02,-0.18 0.06,-0.26 0.04,-0.08 0.1,-0.14 0.17,-0.19 0.07,-0.05 0.15,-0.08 0.24,-0.11 0.06,-0.02 0.16,-0.03 0.29,-0.05 0.26,-0.03 0.46,-0.07 0.58,-0.11 0,-0.04 0,-0.07 0,-0.08 0,-0.13 -0.03,-0.23 -0.09,-0.28 -0.08,-0.07 -0.21,-0.11 -0.37,-0.11 -0.15,0 -0.27,0.03 -0.34,0.08 -0.07,0.05 -0.13,0.15 -0.16,0.29l-0.32 -0.04c0.03,-0.14 0.08,-0.25 0.14,-0.33 0.07,-0.08 0.16,-0.15 0.29,-0.19 0.13,-0.05 0.27,-0.07 0.44,-0.07 0.16,0 0.3,0.02 0.4,0.06 0.1,0.04 0.18,0.09 0.23,0.15 0.05,0.06 0.08,0.13 0.1,0.22 0.01,0.06 0.02,0.16 0.02,0.3l0 0.43c0,0.3 0.01,0.49 0.02,0.57 0.01,0.08 0.04,0.16 0.08,0.23l-0.34 0c-0.03,-0.07 -0.05,-0.15 -0.06,-0.24zm-0.03 -0.72c-0.12,0.05 -0.3,0.09 -0.53,0.12 -0.13,0.02 -0.23,0.04 -0.29,0.07 -0.06,0.02 -0.1,0.06 -0.13,0.11 -0.03,0.05 -0.05,0.1 -0.05,0.15 0,0.09 0.03,0.16 0.1,0.22 0.07,0.06 0.16,0.09 0.29,0.09 0.13,0 0.24,-0.03 0.34,-0.08 0.1,-0.05 0.17,-0.13 0.22,-0.22 0.04,-0.07 0.05,-0.18 0.05,-0.33l0 -0.12z"/>
  <path id="_64" class="fil1 str0" d="M45.38 5.94l0 -0.26c0.14,-0 0.23,-0.01 0.28,-0.02 0.05,-0.01 0.1,-0.04 0.14,-0.09 0.04,-0.05 0.07,-0.11 0.07,-0.18 0,-0.09 -0.03,-0.16 -0.09,-0.21 -0.06,-0.05 -0.13,-0.08 -0.23,-0.08 -0.18,0 -0.31,0.11 -0.39,0.32l-0.31 -0.05c0.1,-0.36 0.33,-0.54 0.7,-0.54 0.21,0 0.37,0.06 0.48,0.17 0.12,0.11 0.18,0.25 0.18,0.4 0,0.16 -0.08,0.28 -0.23,0.37 0.1,0.05 0.17,0.12 0.22,0.2 0.05,0.08 0.07,0.18 0.07,0.29 0,0.17 -0.06,0.31 -0.19,0.42 -0.13,0.11 -0.3,0.16 -0.53,0.16 -0.44,0 -0.69,-0.19 -0.76,-0.58l0.31 -0.07c0.03,0.12 0.08,0.22 0.17,0.29 0.09,0.07 0.18,0.1 0.29,0.1 0.11,0 0.2,-0.03 0.27,-0.09 0.07,-0.06 0.11,-0.14 0.11,-0.24 0,-0.07 -0.02,-0.14 -0.07,-0.2 -0.05,-0.06 -0.09,-0.09 -0.15,-0.1 -0.05,-0.01 -0.15,-0.02 -0.28,-0.02 -0.01,0 -0.04,0 -0.07,0z"/>
  <path id="_65" class="fil1 str0" d="M46.65 4.88l0.33 0 0 0.83c0.1,0 0.18,-0.02 0.22,-0.06 0.04,-0.04 0.1,-0.16 0.18,-0.35 0.06,-0.15 0.12,-0.25 0.16,-0.3 0.04,-0.05 0.09,-0.08 0.14,-0.1 0.05,-0.02 0.14,-0.03 0.25,-0.03l0.07 0 0 0.27 -0.09 -0c-0.09,0 -0.14,0.01 -0.17,0.04 -0.03,0.03 -0.06,0.11 -0.12,0.24 -0.05,0.13 -0.09,0.21 -0.14,0.26 -0.04,0.05 -0.1,0.09 -0.19,0.13 0.14,0.04 0.28,0.17 0.42,0.39l0.36 0.6 -0.36 0 -0.35 -0.6c-0.07,-0.12 -0.13,-0.2 -0.19,-0.24 -0.05,-0.04 -0.12,-0.06 -0.19,-0.06l0 0.89 -0.33 0 0 -1.93z"/>
  <path id="_66" class="fil1 str0" d="M49.62 6.57c-0.12,0.1 -0.24,0.18 -0.35,0.22 -0.11,0.04 -0.23,0.06 -0.36,0.06 -0.21,0 -0.37,-0.05 -0.49,-0.15 -0.11,-0.1 -0.17,-0.23 -0.17,-0.39 0,-0.09 0.02,-0.18 0.06,-0.26 0.04,-0.08 0.1,-0.14 0.17,-0.19 0.07,-0.05 0.15,-0.08 0.24,-0.11 0.06,-0.02 0.16,-0.03 0.29,-0.05 0.26,-0.03 0.46,-0.07 0.58,-0.11 0,-0.04 0,-0.07 0,-0.08 0,-0.13 -0.03,-0.23 -0.09,-0.28 -0.08,-0.07 -0.21,-0.11 -0.37,-0.11 -0.15,0 -0.27,0.03 -0.34,0.08 -0.07,0.05 -0.13,0.15 -0.16,0.29l-0.32 -0.04c0.03,-0.14 0.08,-0.25 0.14,-0.33 0.07,-0.08 0.16,-0.15 0.29,-0.19 0.13,-0.05 0.27,-0.07 0.44,-0.07 0.16,0 0.3,0.02 0.4,0.06 0.1,0.04 0.18,0.09 0.23,0.15 0.05,0.06 0.08,0.13 0.1,0.22 0.01,0.06 0.02,0.16 0.02,0.3l0 0.43c0,0.3 0.01,0.49 0.02,0.57 0.01,0.08 0.04,0.16 0.08,0.23l-0.34 0c-0.03,-0.07 -0.05,-0.15 -0.06,-0.24zm-0.03 -0.72c-0.12,0.05 -0.3,0.09 -0.53,0.12 -0.13,0.02 -0.23,0.04 -0.29,0.07 -0.06,0.02 -0.1,0.06 -0.13,0.11 -0.03,0.05 -0.05,0.1 -0.05,0.15 0,0.09 0.03,0.16 0.1,0.22 0.07,0.06 0.16,0.09 0.29,0.09 0.13,0 0.24,-0.03 0.34,-0.08 0.1,-0.05 0.17,-0.13 0.22,-0.22 0.04,-0.07 0.05,-0.18 0.05,-0.33l0 -0.12z"/>
  <path id="_67" class="fil1 str0" d="M50.64 7.59l-0.23 0c0.36,-0.58 0.54,-1.16 0.54,-1.74 0,-0.23 -0.03,-0.45 -0.08,-0.68 -0.04,-0.18 -0.1,-0.36 -0.17,-0.52 -0.05,-0.11 -0.14,-0.29 -0.29,-0.54l0.23 0c0.23,0.3 0.39,0.61 0.5,0.91 0.09,0.26 0.14,0.54 0.14,0.83 0,0.33 -0.06,0.64 -0.19,0.95 -0.12,0.3 -0.28,0.57 -0.46,0.8z"/>
 </g>
</svg>
