<?xml version="1.0" encoding="UTF-8"?>
<!DOCTYPE svg PUBLIC "-//W3C//DTD SVG 1.1//EN" "http://www.w3.org/Graphics/SVG/1.1/DTD/svg11.dtd">
<!-- Creator: CorelDRAW -->
<svg xmlns="http://www.w3.org/2000/svg" xml:space="preserve" width="20.2971mm" height="2.7796mm" version="1.1" style="shape-rendering:geometricPrecision; text-rendering:geometricPrecision; image-rendering:optimizeQuality; fill-rule:evenodd; clip-rule:evenodd"
viewBox="0 0 17.58 2.41"
 xmlns:xlink="http://www.w3.org/1999/xlink"
 xmlns:xodm="http://www.corel.com/coreldraw/odm/2003">
 <defs>
  <style type="text/css">
   <![CDATA[
    .str0 {stroke:#FF6600;stroke-width:0;stroke-miterlimit:22.9256}
    .fil1 {fill:none;fill-rule:nonzero}
    .fil0 {fill:#FF6600;fill-rule:nonzero}
   ]]>
  </style>
 </defs>
 <g id="Слой_x0020_1">
  <metadata id="CorelCorpID_0Corel-Layer"/>
  <path class="fil0" d="M0 1.97l0.61 -1.59 0.23 0 0.65 1.59 -0.24 0 -0.18 -0.48 -0.67 0 -0.17 0.48 -0.22 0zm0.46 -0.65l0.54 0 -0.17 -0.44c-0.05,-0.13 -0.09,-0.24 -0.11,-0.33 -0.02,0.1 -0.05,0.2 -0.09,0.31l-0.17 0.47z"/>
  <path id="_1" class="fil0" d="M1.82 0.38l0.99 0 0 1.59 -0.21 0 0 -1.4 -0.57 0 0 0.82c0,0.17 -0.01,0.29 -0.02,0.36 -0.02,0.08 -0.05,0.14 -0.1,0.18 -0.05,0.04 -0.11,0.06 -0.19,0.06 -0.05,0 -0.1,-0.01 -0.17,-0.03l0.04 -0.19c0.03,0.02 0.06,0.03 0.09,0.03 0.05,0 0.08,-0.02 0.11,-0.05 0.02,-0.04 0.04,-0.12 0.04,-0.25l0 -1.12z"/>
  <path id="_2" class="fil0" d="M4.29 1.97l-0.21 0 0 -0.64c-0.19,0.07 -0.35,0.1 -0.49,0.1 -0.11,0 -0.21,-0.03 -0.29,-0.08 -0.08,-0.05 -0.14,-0.12 -0.17,-0.2 -0.03,-0.08 -0.04,-0.18 -0.04,-0.31l0 -0.47 0.21 0 0 0.45c0,0.17 0.03,0.29 0.09,0.34 0.06,0.05 0.14,0.08 0.23,0.08 0.15,0 0.3,-0.03 0.47,-0.1l0 -0.77 0.21 0 0 1.59z"/>
  <polygon id="_3" class="fil0" points="4.64,1.97 4.64,0.38 4.85,0.38 4.85,1.03 5.67,1.03 5.67,0.38 5.88,0.38 5.88,1.97 5.67,1.97 5.67,1.22 4.85,1.22 4.85,1.97 "/>
  <path id="_4" class="fil0" d="M6.24 0.38l0.21 0 0 0.68 0.38 0c0.25,0 0.41,0.05 0.49,0.14 0.08,0.09 0.12,0.2 0.12,0.31 0,0.12 -0.04,0.23 -0.13,0.32 -0.08,0.09 -0.24,0.14 -0.47,0.14l-0.6 0 0 -1.59zm0.21 1.41l0.38 0c0.13,0 0.23,-0.02 0.29,-0.07 0.06,-0.04 0.09,-0.12 0.09,-0.21 0,-0.07 -0.02,-0.12 -0.05,-0.17 -0.04,-0.04 -0.08,-0.07 -0.14,-0.09 -0.06,-0.01 -0.15,-0.02 -0.28,-0.02l-0.28 0 0 0.55zm1.17 -1.41l0.21 0 0 1.59 -0.21 0 0 -1.59z"/>
  <path id="_5" class="fil0" d="M8.19 0.38l0.19 0 0 1.26 0.84 -1.26 0.21 0 0 1.59 -0.19 0 0 -1.25 -0.84 1.25 -0.21 0 0 -1.59zm0.79 -0.38l0.13 0c-0.01,0.09 -0.04,0.16 -0.1,0.21 -0.06,0.05 -0.13,0.07 -0.22,0.07 -0.09,0 -0.17,-0.02 -0.22,-0.07 -0.06,-0.05 -0.09,-0.12 -0.1,-0.21l0.13 0c0.01,0.05 0.03,0.09 0.06,0.11 0.03,0.02 0.07,0.04 0.12,0.04 0.06,0 0.1,-0.01 0.13,-0.04 0.03,-0.02 0.05,-0.06 0.06,-0.11z"/>
  <path id="_6" class="fil0" d="M10.4 0.38l0.21 0 0 0.7c0.1,0 0.16,-0.02 0.2,-0.06 0.04,-0.04 0.09,-0.13 0.15,-0.27 0.04,-0.1 0.08,-0.18 0.11,-0.22 0.03,-0.04 0.07,-0.08 0.12,-0.11 0.05,-0.03 0.11,-0.04 0.17,-0.04 0.08,0 0.12,0 0.13,0l0 0.18c-0.01,0 -0.02,-0 -0.04,-0 -0.02,-0 -0.04,-0 -0.04,-0 -0.07,0 -0.12,0.02 -0.15,0.05 -0.03,0.03 -0.07,0.1 -0.11,0.21 -0.05,0.13 -0.1,0.22 -0.14,0.25 -0.04,0.03 -0.08,0.06 -0.13,0.08 0.1,0.03 0.2,0.12 0.3,0.28l0.33 0.53 -0.26 0 -0.27 -0.43c-0.07,-0.12 -0.13,-0.2 -0.18,-0.25 -0.05,-0.04 -0.11,-0.07 -0.19,-0.07l0 0.74 -0.21 0 0 -1.59z"/>
  <path id="_7" class="fil0" d="M11.55 0.38l0.21 0 0.52 0.97 0.45 -0.97 0.21 0 -0.59 1.23c-0.07,0.15 -0.14,0.26 -0.18,0.3 -0.05,0.05 -0.12,0.07 -0.2,0.07 -0.05,0 -0.12,-0.01 -0.2,-0.04l0 -0.18c0.06,0.03 0.12,0.05 0.18,0.05 0.05,0 0.09,-0.02 0.13,-0.05 0.04,-0.03 0.08,-0.11 0.12,-0.22l-0.64 -1.17z"/>
  <polygon id="_8" class="fil0" points="13.12,0.38 14.37,0.38 14.37,1.97 14.16,1.97 14.16,0.57 13.33,0.57 13.33,1.97 13.12,1.97 "/>
  <polygon id="_9" class="fil0" points="14.72,1.97 14.72,0.38 15.86,0.38 15.86,0.57 14.93,0.57 14.93,1.05 15.8,1.05 15.8,1.24 14.93,1.24 14.93,1.78 15.9,1.78 15.9,1.97 "/>
  <polygon id="_10" class="fil0" points="16.19,0.38 16.4,0.38 16.4,1.78 17.23,1.78 17.23,0.38 17.44,0.38 17.44,1.78 17.58,1.78 17.58,2.41 17.39,2.41 17.39,1.97 16.19,1.97 "/>
  <path id="_11" class="fil1 str0" d="M0 1.97l0.61 -1.59 0.23 0 0.65 1.59 -0.24 0 -0.18 -0.48 -0.67 0 -0.17 0.48 -0.22 0zm0.46 -0.65l0.54 0 -0.17 -0.44c-0.05,-0.13 -0.09,-0.24 -0.11,-0.33 -0.02,0.1 -0.05,0.2 -0.09,0.31l-0.17 0.47z"/>
  <path id="_12" class="fil1 str0" d="M1.82 0.38l0.99 0 0 1.59 -0.21 0 0 -1.4 -0.57 0 0 0.82c0,0.17 -0.01,0.29 -0.02,0.36 -0.02,0.08 -0.05,0.14 -0.1,0.18 -0.05,0.04 -0.11,0.06 -0.19,0.06 -0.05,0 -0.1,-0.01 -0.17,-0.03l0.04 -0.19c0.03,0.02 0.06,0.03 0.09,0.03 0.05,0 0.08,-0.02 0.11,-0.05 0.02,-0.04 0.04,-0.12 0.04,-0.25l0 -1.12z"/>
  <path id="_13" class="fil1 str0" d="M4.29 1.97l-0.21 0 0 -0.64c-0.19,0.07 -0.35,0.1 -0.49,0.1 -0.11,0 -0.21,-0.03 -0.29,-0.08 -0.08,-0.05 -0.14,-0.12 -0.17,-0.2 -0.03,-0.08 -0.04,-0.18 -0.04,-0.31l0 -0.47 0.21 0 0 0.45c0,0.17 0.03,0.29 0.09,0.34 0.06,0.05 0.14,0.08 0.23,0.08 0.15,0 0.3,-0.03 0.47,-0.1l0 -0.77 0.21 0 0 1.59z"/>
  <polygon id="_14" class="fil1 str0" points="4.64,1.97 4.64,0.38 4.85,0.38 4.85,1.03 5.67,1.03 5.67,0.38 5.88,0.38 5.88,1.97 5.67,1.97 5.67,1.22 4.85,1.22 4.85,1.97 "/>
  <path id="_15" class="fil1 str0" d="M6.24 0.38l0.21 0 0 0.68 0.38 0c0.25,0 0.41,0.05 0.49,0.14 0.08,0.09 0.12,0.2 0.12,0.31 0,0.12 -0.04,0.23 -0.13,0.32 -0.08,0.09 -0.24,0.14 -0.47,0.14l-0.6 0 0 -1.59zm0.21 1.41l0.38 0c0.13,0 0.23,-0.02 0.29,-0.07 0.06,-0.04 0.09,-0.12 0.09,-0.21 0,-0.07 -0.02,-0.12 -0.05,-0.17 -0.04,-0.04 -0.08,-0.07 -0.14,-0.09 -0.06,-0.01 -0.15,-0.02 -0.28,-0.02l-0.28 0 0 0.55zm1.17 -1.41l0.21 0 0 1.59 -0.21 0 0 -1.59z"/>
  <path id="_16" class="fil1 str0" d="M8.19 0.38l0.19 0 0 1.26 0.84 -1.26 0.21 0 0 1.59 -0.19 0 0 -1.25 -0.84 1.25 -0.21 0 0 -1.59zm0.79 -0.38l0.13 0c-0.01,0.09 -0.04,0.16 -0.1,0.21 -0.06,0.05 -0.13,0.07 -0.22,0.07 -0.09,0 -0.17,-0.02 -0.22,-0.07 -0.06,-0.05 -0.09,-0.12 -0.1,-0.21l0.13 0c0.01,0.05 0.03,0.09 0.06,0.11 0.03,0.02 0.07,0.04 0.12,0.04 0.06,0 0.1,-0.01 0.13,-0.04 0.03,-0.02 0.05,-0.06 0.06,-0.11z"/>
  <path id="_17" class="fil1 str0" d="M10.4 0.38l0.21 0 0 0.7c0.1,0 0.16,-0.02 0.2,-0.06 0.04,-0.04 0.09,-0.13 0.15,-0.27 0.04,-0.1 0.08,-0.18 0.11,-0.22 0.03,-0.04 0.07,-0.08 0.12,-0.11 0.05,-0.03 0.11,-0.04 0.17,-0.04 0.08,0 0.12,0 0.13,0l0 0.18c-0.01,0 -0.02,-0 -0.04,-0 -0.02,-0 -0.04,-0 -0.04,-0 -0.07,0 -0.12,0.02 -0.15,0.05 -0.03,0.03 -0.07,0.1 -0.11,0.21 -0.05,0.13 -0.1,0.22 -0.14,0.25 -0.04,0.03 -0.08,0.06 -0.13,0.08 0.1,0.03 0.2,0.12 0.3,0.28l0.33 0.53 -0.26 0 -0.27 -0.43c-0.07,-0.12 -0.13,-0.2 -0.18,-0.25 -0.05,-0.04 -0.11,-0.07 -0.19,-0.07l0 0.74 -0.21 0 0 -1.59z"/>
  <path id="_18" class="fil1 str0" d="M11.55 0.38l0.21 0 0.52 0.97 0.45 -0.97 0.21 0 -0.59 1.23c-0.07,0.15 -0.14,0.26 -0.18,0.3 -0.05,0.05 -0.12,0.07 -0.2,0.07 -0.05,0 -0.12,-0.01 -0.2,-0.04l0 -0.18c0.06,0.03 0.12,0.05 0.18,0.05 0.05,0 0.09,-0.02 0.13,-0.05 0.04,-0.03 0.08,-0.11 0.12,-0.22l-0.64 -1.17z"/>
  <polygon id="_19" class="fil1 str0" points="13.12,0.38 14.37,0.38 14.37,1.97 14.16,1.97 14.16,0.57 13.33,0.57 13.33,1.97 13.12,1.97 "/>
  <polygon id="_20" class="fil1 str0" points="14.72,1.97 14.72,0.38 15.86,0.38 15.86,0.57 14.93,0.57 14.93,1.05 15.8,1.05 15.8,1.24 14.93,1.24 14.93,1.78 15.9,1.78 15.9,1.97 "/>
  <polygon id="_21" class="fil1 str0" points="16.19,0.38 16.4,0.38 16.4,1.78 17.23,1.78 17.23,0.38 17.44,0.38 17.44,1.78 17.58,1.78 17.58,2.41 17.39,2.41 17.39,1.97 16.19,1.97 "/>
 </g>
</svg>
