<?xml version="1.0" encoding="UTF-8"?>
<!DOCTYPE svg PUBLIC "-//W3C//DTD SVG 1.1//EN" "http://www.w3.org/Graphics/SVG/1.1/DTD/svg11.dtd">
<!-- Creator: CorelDRAW -->
<svg xmlns="http://www.w3.org/2000/svg" xml:space="preserve" width="25.9674mm" height="5.5386mm" version="1.1" style="shape-rendering:geometricPrecision; text-rendering:geometricPrecision; image-rendering:optimizeQuality; fill-rule:evenodd; clip-rule:evenodd"
viewBox="0 0 26.32 5.61"
 xmlns:xlink="http://www.w3.org/1999/xlink"
 xmlns:xodm="http://www.corel.com/coreldraw/odm/2003">
 <defs>
  <style type="text/css">
   <![CDATA[
    .str0 {stroke:#FF6600;stroke-width:0;stroke-miterlimit:22.9256}
    .fil1 {fill:none;fill-rule:nonzero}
    .fil0 {fill:#FF6600;fill-rule:nonzero}
   ]]>
  </style>
 </defs>
 <g id="Слой_x0020_1">
  <metadata id="CorelCorpID_0Corel-Layer"/>
  <polygon class="fil0" points="0,0 0.25,0 0.25,1.64 0.86,1.64 0.86,0 1.11,0 1.11,1.64 1.72,1.64 1.72,0 1.97,0 1.97,1.86 0,1.86 "/>
  <path id="_1" class="fil0" d="M2.33 2.37l-0.03 -0.21c0.05,0.01 0.09,0.02 0.13,0.02 0.05,0 0.09,-0.01 0.12,-0.03 0.03,-0.02 0.06,-0.04 0.08,-0.07 0.01,-0.02 0.04,-0.08 0.07,-0.17 0,-0.01 0.01,-0.03 0.02,-0.06l-0.51 -1.35 0.24 0 0.28 0.78c0.04,0.1 0.07,0.2 0.1,0.31 0.03,-0.1 0.06,-0.2 0.09,-0.3l0.29 -0.78 0.23 0 -0.51 1.37c-0.05,0.15 -0.1,0.25 -0.13,0.3 -0.04,0.07 -0.09,0.13 -0.14,0.16 -0.05,0.03 -0.12,0.05 -0.19,0.05 -0.04,0 -0.09,-0.01 -0.15,-0.03z"/>
  <polygon id="_2" class="fil0" points="3.64,0.51 3.87,0.51 3.87,1.07 4.5,1.07 4.5,0.51 4.73,0.51 4.73,1.86 4.5,1.86 4.5,1.26 3.87,1.26 3.87,1.86 3.64,1.86 "/>
  <path id="_3" class="fil0" d="M5.25 0.51l0.94 0 0 1.16 0.15 0 0 0.57 -0.19 0 0 -0.38 -1.06 0 0 0.38 -0.19 0 0 -0.57 0.12 0c0.16,-0.22 0.24,-0.6 0.23,-1.16zm0.19 0.19c-0.02,0.44 -0.08,0.76 -0.2,0.97l0.72 0 0 -0.97 -0.52 0z"/>
  <path id="_4" class="fil0" d="M7.86 0.51l0.23 0 0 1.35 -0.23 0 0 -1.35zm-1.27 0l0.23 0 0 0.53 0.29 0c0.19,0 0.33,0.04 0.43,0.11 0.1,0.07 0.15,0.17 0.15,0.3 0,0.11 -0.04,0.21 -0.13,0.29 -0.08,0.08 -0.22,0.12 -0.41,0.12l-0.57 0 0 -1.35zm0.23 1.16l0.24 0c0.14,0 0.25,-0.02 0.31,-0.05 0.06,-0.04 0.09,-0.09 0.09,-0.17 0,-0.06 -0.02,-0.11 -0.07,-0.16 -0.05,-0.05 -0.15,-0.07 -0.3,-0.07l-0.27 0 0 0.44z"/>
  <path id="_5" class="fil0" d="M8.5 1.86l0 -0.26 0.26 0 0 0.26c0,0.1 -0.02,0.17 -0.05,0.23 -0.03,0.06 -0.09,0.1 -0.16,0.14l-0.06 -0.1c0.05,-0.02 0.08,-0.05 0.11,-0.09 0.02,-0.04 0.04,-0.1 0.04,-0.18l-0.13 0z"/>
  <path id="_6" class="fil0" d="M10.05 0l1.16 0 0 1.86 -0.25 0 0 -1.64 -0.67 0 0 0.96c0,0.19 -0.01,0.34 -0.03,0.43 -0.02,0.09 -0.06,0.16 -0.11,0.21 -0.06,0.05 -0.13,0.08 -0.22,0.08 -0.05,0 -0.12,-0.01 -0.2,-0.03l0.04 -0.22c0.04,0.02 0.07,0.03 0.1,0.03 0.06,0 0.1,-0.02 0.12,-0.06 0.03,-0.04 0.04,-0.14 0.04,-0.3l0 -1.31z"/>
  <path id="_7" class="fil0" d="M12.87 0.51l0.23 0 0 1.35 -0.23 0 0 -1.35zm-1.27 0l0.23 0 0 0.53 0.29 0c0.19,0 0.33,0.04 0.43,0.11 0.1,0.07 0.15,0.17 0.15,0.3 0,0.11 -0.04,0.21 -0.13,0.29 -0.08,0.08 -0.22,0.12 -0.41,0.12l-0.57 0 0 -1.35zm0.23 1.16l0.24 0c0.14,0 0.25,-0.02 0.31,-0.05 0.06,-0.04 0.09,-0.09 0.09,-0.17 0,-0.06 -0.02,-0.11 -0.07,-0.16 -0.05,-0.05 -0.15,-0.07 -0.3,-0.07l-0.27 0 0 0.44z"/>
  <polygon id="_8" class="fil0" points="13.46,0.51 13.81,0.51 14.16,1.59 14.56,0.51 14.88,0.51 14.88,1.86 14.65,1.86 14.65,0.77 14.26,1.86 14.05,1.86 13.68,0.72 13.68,1.86 13.46,1.86 "/>
  <path id="_9" class="fil0" d="M16.51 0.51l0.23 0 0 1.35 -0.23 0 0 -1.35zm-1.27 0l0.23 0 0 0.53 0.29 0c0.19,0 0.33,0.04 0.43,0.11 0.1,0.07 0.15,0.17 0.15,0.3 0,0.11 -0.04,0.21 -0.13,0.29 -0.08,0.08 -0.22,0.12 -0.41,0.12l-0.57 0 0 -1.35zm0.23 1.16l0.24 0c0.14,0 0.25,-0.02 0.31,-0.05 0.06,-0.04 0.09,-0.09 0.09,-0.17 0,-0.06 -0.02,-0.11 -0.07,-0.16 -0.05,-0.05 -0.15,-0.07 -0.3,-0.07l-0.27 0 0 0.44z"/>
  <path id="_10" class="fil0" d="M17.15 1.86l0 -0.26 0.26 0 0 0.26c0,0.1 -0.02,0.17 -0.05,0.23 -0.03,0.06 -0.09,0.1 -0.16,0.14l-0.06 -0.1c0.05,-0.02 0.08,-0.05 0.11,-0.09 0.02,-0.04 0.04,-0.1 0.04,-0.18l-0.13 0z"/>
  <polygon id="_11" class="fil0" points="18.53,0.51 18.76,0.51 18.76,1.07 19.4,1.07 19.4,0.51 19.62,0.51 19.62,1.86 19.4,1.86 19.4,1.26 18.76,1.26 18.76,1.86 18.53,1.86 "/>
  <path id="_12" class="fil0" d="M19.88 1.18c0,-0.25 0.07,-0.43 0.21,-0.55 0.12,-0.1 0.26,-0.15 0.42,-0.15 0.18,0 0.34,0.06 0.45,0.18 0.12,0.12 0.18,0.29 0.18,0.5 0,0.17 -0.03,0.31 -0.08,0.41 -0.05,0.1 -0.13,0.18 -0.23,0.23 -0.1,0.05 -0.21,0.08 -0.32,0.08 -0.19,0 -0.34,-0.06 -0.46,-0.18 -0.12,-0.12 -0.17,-0.29 -0.17,-0.52zm0.23 0c0,0.17 0.04,0.3 0.11,0.39 0.08,0.09 0.17,0.13 0.28,0.13 0.11,0 0.21,-0.04 0.28,-0.13 0.08,-0.09 0.11,-0.22 0.11,-0.39 0,-0.17 -0.04,-0.29 -0.11,-0.38 -0.08,-0.09 -0.17,-0.13 -0.28,-0.13 -0.11,0 -0.21,0.04 -0.28,0.13 -0.08,0.09 -0.11,0.21 -0.11,0.38z"/>
  <polygon id="_13" class="fil0" points="22.63,1.86 22.63,0.22 22.02,0.22 22.02,0 23.49,0 23.49,0.22 22.87,0.22 22.87,1.86 "/>
  <path id="_14" class="fil0" d="M23.63 1.18c0,-0.25 0.07,-0.43 0.21,-0.55 0.12,-0.1 0.26,-0.15 0.42,-0.15 0.18,0 0.34,0.06 0.45,0.18 0.12,0.12 0.18,0.29 0.18,0.5 0,0.17 -0.03,0.31 -0.08,0.41 -0.05,0.1 -0.13,0.18 -0.23,0.23 -0.1,0.05 -0.21,0.08 -0.32,0.08 -0.19,0 -0.34,-0.06 -0.46,-0.18 -0.12,-0.12 -0.17,-0.29 -0.17,-0.52zm0.23 0c0,0.17 0.04,0.3 0.11,0.39 0.08,0.09 0.17,0.13 0.28,0.13 0.11,0 0.21,-0.04 0.28,-0.13 0.08,-0.09 0.11,-0.22 0.11,-0.39 0,-0.17 -0.04,-0.29 -0.11,-0.38 -0.08,-0.09 -0.17,-0.13 -0.28,-0.13 -0.11,0 -0.21,0.04 -0.28,0.13 -0.08,0.09 -0.11,0.21 -0.11,0.38zm0.04 -0.84l0 -0.26 0.24 0 0 0.26 -0.24 0zm0.47 0l0 -0.26 0.24 0 0 0.26 -0.24 0z"/>
  <path id="_15" class="fil0" d="M25.26 0.51l1.06 0 0 1.34 -0.23 0 0 -1.15 -0.6 0 0 0.67c0,0.16 -0.01,0.26 -0.02,0.31 -0.01,0.05 -0.04,0.09 -0.08,0.13 -0.05,0.04 -0.11,0.06 -0.2,0.06 -0.05,0 -0.11,-0 -0.18,-0.01l0 -0.19 0.1 0c0.05,0 0.08,-0 0.1,-0.01 0.02,-0.01 0.03,-0.03 0.04,-0.05 0.01,-0.02 0.01,-0.09 0.01,-0.21l0 -0.89z"/>
  <path id="_16" class="fil0" d="M5.66 4.46l0 -0.18c0.1,-0 0.16,-0 0.2,-0.01 0.04,-0.01 0.07,-0.03 0.1,-0.06 0.03,-0.03 0.05,-0.08 0.05,-0.13 0,-0.06 -0.02,-0.11 -0.06,-0.15 -0.04,-0.04 -0.09,-0.05 -0.16,-0.05 -0.13,0 -0.22,0.08 -0.27,0.23l-0.22 -0.04c0.07,-0.25 0.23,-0.38 0.49,-0.38 0.14,0 0.26,0.04 0.34,0.12 0.08,0.08 0.12,0.17 0.12,0.28 0,0.11 -0.05,0.2 -0.16,0.26 0.07,0.04 0.12,0.08 0.15,0.14 0.03,0.06 0.05,0.12 0.05,0.2 0,0.12 -0.04,0.22 -0.13,0.29 -0.09,0.08 -0.21,0.11 -0.37,0.11 -0.31,0 -0.48,-0.14 -0.53,-0.41l0.22 -0.05c0.02,0.09 0.06,0.15 0.12,0.2 0.06,0.05 0.13,0.07 0.2,0.07 0.08,0 0.14,-0.02 0.19,-0.07 0.05,-0.04 0.08,-0.1 0.08,-0.17 0,-0.05 -0.02,-0.1 -0.05,-0.14 -0.03,-0.04 -0.07,-0.06 -0.1,-0.07 -0.04,-0.01 -0.1,-0.01 -0.2,-0.01 -0.01,0 -0.03,0 -0.05,0zm-0.22 -0.9l0 -0.26 0.24 0 0 0.26 -0.24 0zm0.47 0l0 -0.26 0.24 0 0 0.26 -0.24 0z"/>
  <path id="_17" class="fil0" d="M6.54 5.59l-0.03 -0.21c0.05,0.01 0.09,0.02 0.13,0.02 0.05,0 0.09,-0.01 0.12,-0.03 0.03,-0.02 0.06,-0.04 0.08,-0.07 0.01,-0.02 0.04,-0.08 0.07,-0.17 0,-0.01 0.01,-0.03 0.02,-0.06l-0.51 -1.35 0.24 0 0.28 0.78c0.04,0.1 0.07,0.2 0.1,0.31 0.03,-0.1 0.06,-0.2 0.09,-0.3l0.29 -0.78 0.23 0 -0.51 1.37c-0.05,0.15 -0.1,0.25 -0.13,0.3 -0.04,0.07 -0.09,0.13 -0.14,0.16 -0.05,0.03 -0.12,0.05 -0.19,0.05 -0.04,0 -0.09,-0.01 -0.15,-0.03z"/>
  <path id="_18" class="fil0" d="M7.76 3.72l0.23 0 0 0.25c0,0.11 0.01,0.19 0.02,0.24 0.01,0.05 0.04,0.09 0.09,0.13 0.05,0.04 0.11,0.05 0.19,0.05 0.09,0 0.2,-0.02 0.34,-0.07l0 -0.61 0.23 0 0 1.35 -0.23 0 0 -0.54c-0.14,0.04 -0.27,0.07 -0.39,0.07 -0.1,0 -0.19,-0.03 -0.27,-0.08 -0.08,-0.05 -0.13,-0.12 -0.16,-0.19 -0.03,-0.08 -0.04,-0.16 -0.04,-0.25l0 -0.35z"/>
  <path id="_19" class="fil0" d="M9.92 3.72l0.52 0c0.13,0 0.22,0.01 0.29,0.03 0.06,0.02 0.12,0.06 0.16,0.12 0.05,0.06 0.07,0.13 0.07,0.21 0,0.06 -0.01,0.12 -0.04,0.17 -0.03,0.05 -0.07,0.09 -0.12,0.12 0.06,0.02 0.12,0.06 0.16,0.12 0.04,0.06 0.06,0.13 0.06,0.21 -0.01,0.13 -0.05,0.22 -0.14,0.28 -0.08,0.06 -0.2,0.09 -0.36,0.09l-0.61 0 0 -1.35zm0.23 0.57l0.24 0c0.1,0 0.16,-0.01 0.2,-0.02 0.04,-0.01 0.07,-0.03 0.1,-0.06 0.03,-0.03 0.04,-0.07 0.04,-0.11 0,-0.07 -0.03,-0.12 -0.07,-0.15 -0.05,-0.03 -0.14,-0.04 -0.26,-0.04l-0.25 0 0 0.38zm0 0.59l0.3 0c0.13,0 0.22,-0.02 0.27,-0.04 0.05,-0.03 0.07,-0.08 0.08,-0.16 0,-0.04 -0.01,-0.08 -0.04,-0.12 -0.03,-0.04 -0.06,-0.06 -0.11,-0.07 -0.04,-0.01 -0.12,-0.01 -0.21,-0.01l-0.28 0 0 0.4z"/>
  <path id="_20" class="fil0" d="M12.58 3.72l0.23 0 0 1.35 -0.23 0 0 -1.35zm-1.27 0l0.23 0 0 0.53 0.29 0c0.19,0 0.33,0.04 0.43,0.11 0.1,0.07 0.15,0.17 0.15,0.3 0,0.11 -0.04,0.21 -0.13,0.29 -0.08,0.08 -0.22,0.12 -0.41,0.12l-0.57 0 0 -1.35zm0.23 1.16l0.24 0c0.14,0 0.25,-0.02 0.31,-0.05 0.06,-0.04 0.09,-0.09 0.09,-0.17 0,-0.06 -0.02,-0.11 -0.07,-0.16 -0.05,-0.05 -0.15,-0.07 -0.3,-0.07l-0.27 0 0 0.44z"/>
  <path id="_21" class="fil0" d="M13.97 3.72l0 0.58c0.07,0 0.13,-0.01 0.16,-0.04 0.03,-0.03 0.07,-0.11 0.13,-0.24 0.05,-0.13 0.1,-0.21 0.14,-0.24 0.04,-0.03 0.11,-0.05 0.2,-0.05l0.08 0 0 0.19 -0.06 -0c-0.06,0 -0.1,0.01 -0.12,0.03 -0.02,0.02 -0.05,0.07 -0.08,0.17 -0.03,0.09 -0.06,0.15 -0.09,0.18 -0.03,0.03 -0.07,0.06 -0.13,0.09 0.1,0.03 0.19,0.12 0.29,0.27l0.25 0.42 -0.25 0 -0.24 -0.42c-0.05,-0.08 -0.09,-0.14 -0.13,-0.17 -0.04,-0.03 -0.08,-0.04 -0.13,-0.04l0 0.62 -0.23 0 0 -0.62c-0.05,0 -0.09,0.01 -0.13,0.04 -0.04,0.03 -0.08,0.08 -0.13,0.17l-0.25 0.42 -0.25 0 0.25 -0.42c0.09,-0.16 0.19,-0.25 0.29,-0.27 -0.07,-0.03 -0.11,-0.07 -0.14,-0.1 -0.03,-0.04 -0.07,-0.12 -0.12,-0.26 -0.02,-0.05 -0.04,-0.08 -0.06,-0.09 -0.02,-0.01 -0.05,-0.02 -0.1,-0.02 -0.01,0 -0.03,0 -0.07,0l0 -0.19 0.03 0c0.09,0 0.15,0.01 0.19,0.02 0.04,0.01 0.07,0.03 0.1,0.07 0.03,0.03 0.06,0.11 0.11,0.21 0.05,0.13 0.1,0.21 0.13,0.24 0.03,0.03 0.08,0.04 0.16,0.04l0 -0.58 0.23 0z"/>
  <path id="_22" class="fil0" d="M16.17 3.72l0.23 0 0 1.35 -0.23 0 0 -1.35zm-1.27 0l0.23 0 0 0.53 0.29 0c0.19,0 0.33,0.04 0.43,0.11 0.1,0.07 0.15,0.17 0.15,0.3 0,0.11 -0.04,0.21 -0.13,0.29 -0.08,0.08 -0.22,0.12 -0.41,0.12l-0.57 0 0 -1.35zm0.23 1.16l0.24 0c0.14,0 0.25,-0.02 0.31,-0.05 0.06,-0.04 0.09,-0.09 0.09,-0.17 0,-0.06 -0.02,-0.11 -0.07,-0.16 -0.05,-0.05 -0.15,-0.07 -0.3,-0.07l-0.27 0 0 0.44z"/>
  <path id="_23" class="fil0" d="M16.75 3.72l0.23 0 0 0.58c0.07,0 0.12,-0.01 0.15,-0.04 0.03,-0.03 0.07,-0.11 0.13,-0.24 0.04,-0.11 0.08,-0.18 0.11,-0.21 0.03,-0.03 0.06,-0.06 0.1,-0.07 0.04,-0.01 0.1,-0.02 0.17,-0.02l0.05 0 0 0.19 -0.06 -0c-0.06,0 -0.1,0.01 -0.12,0.03 -0.02,0.02 -0.04,0.07 -0.08,0.17 -0.03,0.09 -0.07,0.15 -0.1,0.18 -0.03,0.03 -0.07,0.06 -0.13,0.09 0.1,0.03 0.19,0.12 0.29,0.27l0.25 0.42 -0.25 0 -0.25 -0.42c-0.05,-0.08 -0.09,-0.14 -0.13,-0.17 -0.04,-0.03 -0.08,-0.04 -0.13,-0.04l0 0.62 -0.23 0 0 -1.35z"/>
  <path id="_24" class="fil0" d="M19.17 3.72l0.23 0 0 1.35 -0.23 0 0 -1.35zm-1.27 0l0.23 0 0 0.53 0.29 0c0.19,0 0.33,0.04 0.43,0.11 0.1,0.07 0.15,0.17 0.15,0.3 0,0.11 -0.04,0.21 -0.13,0.29 -0.08,0.08 -0.22,0.12 -0.41,0.12l-0.57 0 0 -1.35zm0.23 1.16l0.24 0c0.14,0 0.25,-0.02 0.31,-0.05 0.06,-0.04 0.09,-0.09 0.09,-0.17 0,-0.06 -0.02,-0.11 -0.07,-0.16 -0.05,-0.05 -0.15,-0.07 -0.3,-0.07l-0.27 0 0 0.44z"/>
  <path id="_25" class="fil0" d="M19.87 3.72l1.06 0 0 1.34 -0.23 0 0 -1.15 -0.6 0 0 0.67c0,0.16 -0.01,0.26 -0.02,0.31 -0.01,0.05 -0.04,0.09 -0.08,0.13 -0.05,0.04 -0.11,0.06 -0.2,0.06 -0.05,0 -0.11,-0 -0.18,-0.01l0 -0.19 0.1 0c0.05,0 0.08,-0 0.1,-0.01 0.02,-0.01 0.03,-0.03 0.04,-0.05 0.01,-0.02 0.01,-0.09 0.01,-0.21l0 -0.89z"/>
  <path id="_26" class="fil0" d="M4.94 5.61c-0.13,-0.16 -0.23,-0.34 -0.32,-0.56 -0.09,-0.21 -0.13,-0.43 -0.13,-0.66 0,-0.2 0.03,-0.39 0.1,-0.58 0.08,-0.21 0.19,-0.43 0.35,-0.64l0.16 0c-0.1,0.18 -0.17,0.3 -0.2,0.38 -0.05,0.12 -0.09,0.24 -0.12,0.36 -0.04,0.16 -0.05,0.32 -0.05,0.48 0,0.41 0.13,0.81 0.38,1.22l-0.16 0z"/>
  <path id="_27" class="fil0" d="M21.42 5.61l-0.16 0c0.25,-0.4 0.38,-0.81 0.38,-1.22 0,-0.16 -0.02,-0.32 -0.05,-0.47 -0.03,-0.13 -0.07,-0.25 -0.12,-0.36 -0.03,-0.08 -0.1,-0.2 -0.2,-0.38l0.16 0c0.16,0.21 0.28,0.42 0.35,0.64 0.06,0.18 0.1,0.38 0.1,0.58 0,0.23 -0.04,0.45 -0.13,0.66 -0.09,0.21 -0.19,0.4 -0.32,0.56z"/>
  <polygon id="_28" class="fil1 str0" points="0,0 0.25,0 0.25,1.64 0.86,1.64 0.86,0 1.11,0 1.11,1.64 1.72,1.64 1.72,0 1.97,0 1.97,1.86 0,1.86 "/>
  <path id="_29" class="fil1 str0" d="M2.33 2.37l-0.03 -0.21c0.05,0.01 0.09,0.02 0.13,0.02 0.05,0 0.09,-0.01 0.12,-0.03 0.03,-0.02 0.06,-0.04 0.08,-0.07 0.01,-0.02 0.04,-0.08 0.07,-0.17 0,-0.01 0.01,-0.03 0.02,-0.06l-0.51 -1.35 0.24 0 0.28 0.78c0.04,0.1 0.07,0.2 0.1,0.31 0.03,-0.1 0.06,-0.2 0.09,-0.3l0.29 -0.78 0.23 0 -0.51 1.37c-0.05,0.15 -0.1,0.25 -0.13,0.3 -0.04,0.07 -0.09,0.13 -0.14,0.16 -0.05,0.03 -0.12,0.05 -0.19,0.05 -0.04,0 -0.09,-0.01 -0.15,-0.03z"/>
  <polygon id="_30" class="fil1 str0" points="3.64,0.51 3.87,0.51 3.87,1.07 4.5,1.07 4.5,0.51 4.73,0.51 4.73,1.86 4.5,1.86 4.5,1.26 3.87,1.26 3.87,1.86 3.64,1.86 "/>
  <path id="_31" class="fil1 str0" d="M5.25 0.51l0.94 0 0 1.16 0.15 0 0 0.57 -0.19 0 0 -0.38 -1.06 0 0 0.38 -0.19 0 0 -0.57 0.12 0c0.16,-0.22 0.24,-0.6 0.23,-1.16zm0.19 0.19c-0.02,0.44 -0.08,0.76 -0.2,0.97l0.72 0 0 -0.97 -0.52 0z"/>
  <path id="_32" class="fil1 str0" d="M7.86 0.51l0.23 0 0 1.35 -0.23 0 0 -1.35zm-1.27 0l0.23 0 0 0.53 0.29 0c0.19,0 0.33,0.04 0.43,0.11 0.1,0.07 0.15,0.17 0.15,0.3 0,0.11 -0.04,0.21 -0.13,0.29 -0.08,0.08 -0.22,0.12 -0.41,0.12l-0.57 0 0 -1.35zm0.23 1.16l0.24 0c0.14,0 0.25,-0.02 0.31,-0.05 0.06,-0.04 0.09,-0.09 0.09,-0.17 0,-0.06 -0.02,-0.11 -0.07,-0.16 -0.05,-0.05 -0.15,-0.07 -0.3,-0.07l-0.27 0 0 0.44z"/>
  <path id="_33" class="fil1 str0" d="M8.5 1.86l0 -0.26 0.26 0 0 0.26c0,0.1 -0.02,0.17 -0.05,0.23 -0.03,0.06 -0.09,0.1 -0.16,0.14l-0.06 -0.1c0.05,-0.02 0.08,-0.05 0.11,-0.09 0.02,-0.04 0.04,-0.1 0.04,-0.18l-0.13 0z"/>
  <path id="_34" class="fil1 str0" d="M10.05 0l1.16 0 0 1.86 -0.25 0 0 -1.64 -0.67 0 0 0.96c0,0.19 -0.01,0.34 -0.03,0.43 -0.02,0.09 -0.06,0.16 -0.11,0.21 -0.06,0.05 -0.13,0.08 -0.22,0.08 -0.05,0 -0.12,-0.01 -0.2,-0.03l0.04 -0.22c0.04,0.02 0.07,0.03 0.1,0.03 0.06,0 0.1,-0.02 0.12,-0.06 0.03,-0.04 0.04,-0.14 0.04,-0.3l0 -1.31z"/>
  <path id="_35" class="fil1 str0" d="M12.87 0.51l0.23 0 0 1.35 -0.23 0 0 -1.35zm-1.27 0l0.23 0 0 0.53 0.29 0c0.19,0 0.33,0.04 0.43,0.11 0.1,0.07 0.15,0.17 0.15,0.3 0,0.11 -0.04,0.21 -0.13,0.29 -0.08,0.08 -0.22,0.12 -0.41,0.12l-0.57 0 0 -1.35zm0.23 1.16l0.24 0c0.14,0 0.25,-0.02 0.31,-0.05 0.06,-0.04 0.09,-0.09 0.09,-0.17 0,-0.06 -0.02,-0.11 -0.07,-0.16 -0.05,-0.05 -0.15,-0.07 -0.3,-0.07l-0.27 0 0 0.44z"/>
  <polygon id="_36" class="fil1 str0" points="13.46,0.51 13.81,0.51 14.16,1.59 14.56,0.51 14.88,0.51 14.88,1.86 14.65,1.86 14.65,0.77 14.26,1.86 14.05,1.86 13.68,0.72 13.68,1.86 13.46,1.86 "/>
  <path id="_37" class="fil1 str0" d="M16.51 0.51l0.23 0 0 1.35 -0.23 0 0 -1.35zm-1.27 0l0.23 0 0 0.53 0.29 0c0.19,0 0.33,0.04 0.43,0.11 0.1,0.07 0.15,0.17 0.15,0.3 0,0.11 -0.04,0.21 -0.13,0.29 -0.08,0.08 -0.22,0.12 -0.41,0.12l-0.57 0 0 -1.35zm0.23 1.16l0.24 0c0.14,0 0.25,-0.02 0.31,-0.05 0.06,-0.04 0.09,-0.09 0.09,-0.17 0,-0.06 -0.02,-0.11 -0.07,-0.16 -0.05,-0.05 -0.15,-0.07 -0.3,-0.07l-0.27 0 0 0.44z"/>
  <path id="_38" class="fil1 str0" d="M17.15 1.86l0 -0.26 0.26 0 0 0.26c0,0.1 -0.02,0.17 -0.05,0.23 -0.03,0.06 -0.09,0.1 -0.16,0.14l-0.06 -0.1c0.05,-0.02 0.08,-0.05 0.11,-0.09 0.02,-0.04 0.04,-0.1 0.04,-0.18l-0.13 0z"/>
  <polygon id="_39" class="fil1 str0" points="18.53,0.51 18.76,0.51 18.76,1.07 19.4,1.07 19.4,0.51 19.62,0.51 19.62,1.86 19.4,1.86 19.4,1.26 18.76,1.26 18.76,1.86 18.53,1.86 "/>
  <path id="_40" class="fil1 str0" d="M19.88 1.18c0,-0.25 0.07,-0.43 0.21,-0.55 0.12,-0.1 0.26,-0.15 0.42,-0.15 0.18,0 0.34,0.06 0.45,0.18 0.12,0.12 0.18,0.29 0.18,0.5 0,0.17 -0.03,0.31 -0.08,0.41 -0.05,0.1 -0.13,0.18 -0.23,0.23 -0.1,0.05 -0.21,0.08 -0.32,0.08 -0.19,0 -0.34,-0.06 -0.46,-0.18 -0.12,-0.12 -0.17,-0.29 -0.17,-0.52zm0.23 0c0,0.17 0.04,0.3 0.11,0.39 0.08,0.09 0.17,0.13 0.28,0.13 0.11,0 0.21,-0.04 0.28,-0.13 0.08,-0.09 0.11,-0.22 0.11,-0.39 0,-0.17 -0.04,-0.29 -0.11,-0.38 -0.08,-0.09 -0.17,-0.13 -0.28,-0.13 -0.11,0 -0.21,0.04 -0.28,0.13 -0.08,0.09 -0.11,0.21 -0.11,0.38z"/>
  <polygon id="_41" class="fil1 str0" points="22.63,1.86 22.63,0.22 22.02,0.22 22.02,0 23.49,0 23.49,0.22 22.87,0.22 22.87,1.86 "/>
  <path id="_42" class="fil1 str0" d="M23.63 1.18c0,-0.25 0.07,-0.43 0.21,-0.55 0.12,-0.1 0.26,-0.15 0.42,-0.15 0.18,0 0.34,0.06 0.45,0.18 0.12,0.12 0.18,0.29 0.18,0.5 0,0.17 -0.03,0.31 -0.08,0.41 -0.05,0.1 -0.13,0.18 -0.23,0.23 -0.1,0.05 -0.21,0.08 -0.32,0.08 -0.19,0 -0.34,-0.06 -0.46,-0.18 -0.12,-0.12 -0.17,-0.29 -0.17,-0.52zm0.23 0c0,0.17 0.04,0.3 0.11,0.39 0.08,0.09 0.17,0.13 0.28,0.13 0.11,0 0.21,-0.04 0.28,-0.13 0.08,-0.09 0.11,-0.22 0.11,-0.39 0,-0.17 -0.04,-0.29 -0.11,-0.38 -0.08,-0.09 -0.17,-0.13 -0.28,-0.13 -0.11,0 -0.21,0.04 -0.28,0.13 -0.08,0.09 -0.11,0.21 -0.11,0.38zm0.04 -0.84l0 -0.26 0.24 0 0 0.26 -0.24 0zm0.47 0l0 -0.26 0.24 0 0 0.26 -0.24 0z"/>
  <path id="_43" class="fil1 str0" d="M25.26 0.51l1.06 0 0 1.34 -0.23 0 0 -1.15 -0.6 0 0 0.67c0,0.16 -0.01,0.26 -0.02,0.31 -0.01,0.05 -0.04,0.09 -0.08,0.13 -0.05,0.04 -0.11,0.06 -0.2,0.06 -0.05,0 -0.11,-0 -0.18,-0.01l0 -0.19 0.1 0c0.05,0 0.08,-0 0.1,-0.01 0.02,-0.01 0.03,-0.03 0.04,-0.05 0.01,-0.02 0.01,-0.09 0.01,-0.21l0 -0.89z"/>
  <path id="_44" class="fil1 str0" d="M5.66 4.46l0 -0.18c0.1,-0 0.16,-0 0.2,-0.01 0.04,-0.01 0.07,-0.03 0.1,-0.06 0.03,-0.03 0.05,-0.08 0.05,-0.13 0,-0.06 -0.02,-0.11 -0.06,-0.15 -0.04,-0.04 -0.09,-0.05 -0.16,-0.05 -0.13,0 -0.22,0.08 -0.27,0.23l-0.22 -0.04c0.07,-0.25 0.23,-0.38 0.49,-0.38 0.14,0 0.26,0.04 0.34,0.12 0.08,0.08 0.12,0.17 0.12,0.28 0,0.11 -0.05,0.2 -0.16,0.26 0.07,0.04 0.12,0.08 0.15,0.14 0.03,0.06 0.05,0.12 0.05,0.2 0,0.12 -0.04,0.22 -0.13,0.29 -0.09,0.08 -0.21,0.11 -0.37,0.11 -0.31,0 -0.48,-0.14 -0.53,-0.41l0.22 -0.05c0.02,0.09 0.06,0.15 0.12,0.2 0.06,0.05 0.13,0.07 0.2,0.07 0.08,0 0.14,-0.02 0.19,-0.07 0.05,-0.04 0.08,-0.1 0.08,-0.17 0,-0.05 -0.02,-0.1 -0.05,-0.14 -0.03,-0.04 -0.07,-0.06 -0.1,-0.07 -0.04,-0.01 -0.1,-0.01 -0.2,-0.01 -0.01,0 -0.03,0 -0.05,0zm-0.22 -0.9l0 -0.26 0.24 0 0 0.26 -0.24 0zm0.47 0l0 -0.26 0.24 0 0 0.26 -0.24 0z"/>
  <path id="_45" class="fil1 str0" d="M6.54 5.59l-0.03 -0.21c0.05,0.01 0.09,0.02 0.13,0.02 0.05,0 0.09,-0.01 0.12,-0.03 0.03,-0.02 0.06,-0.04 0.08,-0.07 0.01,-0.02 0.04,-0.08 0.07,-0.17 0,-0.01 0.01,-0.03 0.02,-0.06l-0.51 -1.35 0.24 0 0.28 0.78c0.04,0.1 0.07,0.2 0.1,0.31 0.03,-0.1 0.06,-0.2 0.09,-0.3l0.29 -0.78 0.23 0 -0.51 1.37c-0.05,0.15 -0.1,0.25 -0.13,0.3 -0.04,0.07 -0.09,0.13 -0.14,0.16 -0.05,0.03 -0.12,0.05 -0.19,0.05 -0.04,0 -0.09,-0.01 -0.15,-0.03z"/>
  <path id="_46" class="fil1 str0" d="M7.76 3.72l0.23 0 0 0.25c0,0.11 0.01,0.19 0.02,0.24 0.01,0.05 0.04,0.09 0.09,0.13 0.05,0.04 0.11,0.05 0.19,0.05 0.09,0 0.2,-0.02 0.34,-0.07l0 -0.61 0.23 0 0 1.35 -0.23 0 0 -0.54c-0.14,0.04 -0.27,0.07 -0.39,0.07 -0.1,0 -0.19,-0.03 -0.27,-0.08 -0.08,-0.05 -0.13,-0.12 -0.16,-0.19 -0.03,-0.08 -0.04,-0.16 -0.04,-0.25l0 -0.35z"/>
  <path id="_47" class="fil1 str0" d="M9.92 3.72l0.52 0c0.13,0 0.22,0.01 0.29,0.03 0.06,0.02 0.12,0.06 0.16,0.12 0.05,0.06 0.07,0.13 0.07,0.21 0,0.06 -0.01,0.12 -0.04,0.17 -0.03,0.05 -0.07,0.09 -0.12,0.12 0.06,0.02 0.12,0.06 0.16,0.12 0.04,0.06 0.06,0.13 0.06,0.21 -0.01,0.13 -0.05,0.22 -0.14,0.28 -0.08,0.06 -0.2,0.09 -0.36,0.09l-0.61 0 0 -1.35zm0.23 0.57l0.24 0c0.1,0 0.16,-0.01 0.2,-0.02 0.04,-0.01 0.07,-0.03 0.1,-0.06 0.03,-0.03 0.04,-0.07 0.04,-0.11 0,-0.07 -0.03,-0.12 -0.07,-0.15 -0.05,-0.03 -0.14,-0.04 -0.26,-0.04l-0.25 0 0 0.38zm0 0.59l0.3 0c0.13,0 0.22,-0.02 0.27,-0.04 0.05,-0.03 0.07,-0.08 0.08,-0.16 0,-0.04 -0.01,-0.08 -0.04,-0.12 -0.03,-0.04 -0.06,-0.06 -0.11,-0.07 -0.04,-0.01 -0.12,-0.01 -0.21,-0.01l-0.28 0 0 0.4z"/>
  <path id="_48" class="fil1 str0" d="M12.58 3.72l0.23 0 0 1.35 -0.23 0 0 -1.35zm-1.27 0l0.23 0 0 0.53 0.29 0c0.19,0 0.33,0.04 0.43,0.11 0.1,0.07 0.15,0.17 0.15,0.3 0,0.11 -0.04,0.21 -0.13,0.29 -0.08,0.08 -0.22,0.12 -0.41,0.12l-0.57 0 0 -1.35zm0.23 1.16l0.24 0c0.14,0 0.25,-0.02 0.31,-0.05 0.06,-0.04 0.09,-0.09 0.09,-0.17 0,-0.06 -0.02,-0.11 -0.07,-0.16 -0.05,-0.05 -0.15,-0.07 -0.3,-0.07l-0.27 0 0 0.44z"/>
  <path id="_49" class="fil1 str0" d="M13.97 3.72l0 0.58c0.07,0 0.13,-0.01 0.16,-0.04 0.03,-0.03 0.07,-0.11 0.13,-0.24 0.05,-0.13 0.1,-0.21 0.14,-0.24 0.04,-0.03 0.11,-0.05 0.2,-0.05l0.08 0 0 0.19 -0.06 -0c-0.06,0 -0.1,0.01 -0.12,0.03 -0.02,0.02 -0.05,0.07 -0.08,0.17 -0.03,0.09 -0.06,0.15 -0.09,0.18 -0.03,0.03 -0.07,0.06 -0.13,0.09 0.1,0.03 0.19,0.12 0.29,0.27l0.25 0.42 -0.25 0 -0.24 -0.42c-0.05,-0.08 -0.09,-0.14 -0.13,-0.17 -0.04,-0.03 -0.08,-0.04 -0.13,-0.04l0 0.62 -0.23 0 0 -0.62c-0.05,0 -0.09,0.01 -0.13,0.04 -0.04,0.03 -0.08,0.08 -0.13,0.17l-0.25 0.42 -0.25 0 0.25 -0.42c0.09,-0.16 0.19,-0.25 0.29,-0.27 -0.07,-0.03 -0.11,-0.07 -0.14,-0.1 -0.03,-0.04 -0.07,-0.12 -0.12,-0.26 -0.02,-0.05 -0.04,-0.08 -0.06,-0.09 -0.02,-0.01 -0.05,-0.02 -0.1,-0.02 -0.01,0 -0.03,0 -0.07,0l0 -0.19 0.03 0c0.09,0 0.15,0.01 0.19,0.02 0.04,0.01 0.07,0.03 0.1,0.07 0.03,0.03 0.06,0.11 0.11,0.21 0.05,0.13 0.1,0.21 0.13,0.24 0.03,0.03 0.08,0.04 0.16,0.04l0 -0.58 0.23 0z"/>
  <path id="_50" class="fil1 str0" d="M16.17 3.72l0.23 0 0 1.35 -0.23 0 0 -1.35zm-1.27 0l0.23 0 0 0.53 0.29 0c0.19,0 0.33,0.04 0.43,0.11 0.1,0.07 0.15,0.17 0.15,0.3 0,0.11 -0.04,0.21 -0.13,0.29 -0.08,0.08 -0.22,0.12 -0.41,0.12l-0.57 0 0 -1.35zm0.23 1.16l0.24 0c0.14,0 0.25,-0.02 0.31,-0.05 0.06,-0.04 0.09,-0.09 0.09,-0.17 0,-0.06 -0.02,-0.11 -0.07,-0.16 -0.05,-0.05 -0.15,-0.07 -0.3,-0.07l-0.27 0 0 0.44z"/>
  <path id="_51" class="fil1 str0" d="M16.75 3.72l0.23 0 0 0.58c0.07,0 0.12,-0.01 0.15,-0.04 0.03,-0.03 0.07,-0.11 0.13,-0.24 0.04,-0.11 0.08,-0.18 0.11,-0.21 0.03,-0.03 0.06,-0.06 0.1,-0.07 0.04,-0.01 0.1,-0.02 0.17,-0.02l0.05 0 0 0.19 -0.06 -0c-0.06,0 -0.1,0.01 -0.12,0.03 -0.02,0.02 -0.04,0.07 -0.08,0.17 -0.03,0.09 -0.07,0.15 -0.1,0.18 -0.03,0.03 -0.07,0.06 -0.13,0.09 0.1,0.03 0.19,0.12 0.29,0.27l0.25 0.42 -0.25 0 -0.25 -0.42c-0.05,-0.08 -0.09,-0.14 -0.13,-0.17 -0.04,-0.03 -0.08,-0.04 -0.13,-0.04l0 0.62 -0.23 0 0 -1.35z"/>
  <path id="_52" class="fil1 str0" d="M19.17 3.72l0.23 0 0 1.35 -0.23 0 0 -1.35zm-1.27 0l0.23 0 0 0.53 0.29 0c0.19,0 0.33,0.04 0.43,0.11 0.1,0.07 0.15,0.17 0.15,0.3 0,0.11 -0.04,0.21 -0.13,0.29 -0.08,0.08 -0.22,0.12 -0.41,0.12l-0.57 0 0 -1.35zm0.23 1.16l0.24 0c0.14,0 0.25,-0.02 0.31,-0.05 0.06,-0.04 0.09,-0.09 0.09,-0.17 0,-0.06 -0.02,-0.11 -0.07,-0.16 -0.05,-0.05 -0.15,-0.07 -0.3,-0.07l-0.27 0 0 0.44z"/>
  <path id="_53" class="fil1 str0" d="M19.87 3.72l1.06 0 0 1.34 -0.23 0 0 -1.15 -0.6 0 0 0.67c0,0.16 -0.01,0.26 -0.02,0.31 -0.01,0.05 -0.04,0.09 -0.08,0.13 -0.05,0.04 -0.11,0.06 -0.2,0.06 -0.05,0 -0.11,-0 -0.18,-0.01l0 -0.19 0.1 0c0.05,0 0.08,-0 0.1,-0.01 0.02,-0.01 0.03,-0.03 0.04,-0.05 0.01,-0.02 0.01,-0.09 0.01,-0.21l0 -0.89z"/>
  <path id="_54" class="fil1 str0" d="M4.94 5.61c-0.13,-0.16 -0.23,-0.34 -0.32,-0.56 -0.09,-0.21 -0.13,-0.43 -0.13,-0.66 0,-0.2 0.03,-0.39 0.1,-0.58 0.08,-0.21 0.19,-0.43 0.35,-0.64l0.16 0c-0.1,0.18 -0.17,0.3 -0.2,0.38 -0.05,0.12 -0.09,0.24 -0.12,0.36 -0.04,0.16 -0.05,0.32 -0.05,0.48 0,0.41 0.13,0.81 0.38,1.22l-0.16 0z"/>
  <path id="_55" class="fil1 str0" d="M21.42 5.61l-0.16 0c0.25,-0.4 0.38,-0.81 0.38,-1.22 0,-0.16 -0.02,-0.32 -0.05,-0.47 -0.03,-0.13 -0.07,-0.25 -0.12,-0.36 -0.03,-0.08 -0.1,-0.2 -0.2,-0.38l0.16 0c0.16,0.21 0.28,0.42 0.35,0.64 0.06,0.18 0.1,0.38 0.1,0.58 0,0.23 -0.04,0.45 -0.13,0.66 -0.09,0.21 -0.19,0.4 -0.32,0.56z"/>
 </g>
</svg>
