<?xml version="1.0" encoding="UTF-8"?>
<!DOCTYPE svg PUBLIC "-//W3C//DTD SVG 1.1//EN" "http://www.w3.org/Graphics/SVG/1.1/DTD/svg11.dtd">
<!-- Creator: CorelDRAW -->
<svg xmlns="http://www.w3.org/2000/svg" xml:space="preserve" width="26.0546mm" height="2.3706mm" version="1.1" style="shape-rendering:geometricPrecision; text-rendering:geometricPrecision; image-rendering:optimizeQuality; fill-rule:evenodd; clip-rule:evenodd"
viewBox="0 0 29.02 2.64"
 xmlns:xlink="http://www.w3.org/1999/xlink"
 xmlns:xodm="http://www.corel.com/coreldraw/odm/2003">
 <defs>
  <style type="text/css">
   <![CDATA[
    .str0 {stroke:#FF6600;stroke-width:0;stroke-miterlimit:22.9256}
    .fil1 {fill:none;fill-rule:nonzero}
    .fil0 {fill:#FF6600;fill-rule:nonzero}
   ]]>
  </style>
 </defs>
 <g id="Слой_x0020_1">
  <metadata id="CorelCorpID_0Corel-Layer"/>
  <polygon class="fil0" points="0.67,2.07 0.67,0.27 0,0.27 0,0.03 1.61,0.03 1.61,0.27 0.94,0.27 0.94,2.07 "/>
  <path id="_1" class="fil0" d="M1.91 0.03l0.27 0 0 0.87 0.49 0c0.32,0 0.53,0.06 0.63,0.18 0.1,0.12 0.15,0.25 0.15,0.4 0,0.16 -0.05,0.3 -0.16,0.41 -0.11,0.12 -0.31,0.18 -0.6,0.18l-0.77 0 0 -2.04zm0.27 1.81l0.49 0c0.17,0 0.29,-0.03 0.37,-0.09 0.08,-0.06 0.11,-0.15 0.11,-0.27 0,-0.08 -0.02,-0.16 -0.07,-0.21 -0.05,-0.06 -0.11,-0.09 -0.18,-0.11 -0.07,-0.02 -0.19,-0.02 -0.37,-0.02l-0.36 0 0 0.71zm1.51 -1.81l0.27 0 0 2.04 -0.27 0 0 -2.04z"/>
  <path id="_2" class="fil0" d="M4.41 2.07l0 -2.04 0.77 0c0.14,0 0.24,0.01 0.31,0.02 0.1,0.02 0.18,0.05 0.25,0.09 0.07,0.05 0.12,0.11 0.16,0.2 0.04,0.08 0.06,0.18 0.06,0.28 0,0.17 -0.06,0.32 -0.17,0.44 -0.11,0.12 -0.31,0.18 -0.6,0.18l-0.52 0 0 0.83 -0.27 0zm0.27 -1.07l0.53 0c0.17,0 0.3,-0.03 0.37,-0.1 0.07,-0.07 0.11,-0.16 0.11,-0.27 0,-0.08 -0.02,-0.16 -0.06,-0.22 -0.04,-0.06 -0.1,-0.1 -0.17,-0.12 -0.05,-0.01 -0.13,-0.02 -0.25,-0.02l-0.52 0 0 0.73z"/>
  <path id="_3" class="fil0" d="M6.28 2.07l0 -2.04 0.4 0 0.48 1.44c0.04,0.13 0.08,0.23 0.1,0.3 0.02,-0.07 0.06,-0.18 0.11,-0.33l0.49 -1.42 0.36 0 0 2.04 -0.26 0 0 -1.71 -0.6 1.71 -0.24 0 -0.59 -1.74 0 1.74 -0.26 0z"/>
  <path id="_4" class="fil0" d="M8.57 1.08c0,-0.34 0.09,-0.6 0.27,-0.79 0.18,-0.19 0.42,-0.29 0.7,-0.29 0.19,0 0.36,0.05 0.51,0.13 0.15,0.09 0.27,0.21 0.35,0.38 0.08,0.16 0.12,0.34 0.12,0.55 0,0.21 -0.04,0.39 -0.13,0.55 -0.08,0.16 -0.2,0.29 -0.35,0.37 -0.15,0.08 -0.32,0.13 -0.5,0.13 -0.19,0 -0.36,-0.05 -0.51,-0.14 -0.15,-0.09 -0.27,-0.22 -0.34,-0.38 -0.08,-0.16 -0.12,-0.33 -0.12,-0.51zm0.28 0c0,0.25 0.07,0.44 0.2,0.58 0.13,0.14 0.3,0.21 0.5,0.21 0.2,0 0.37,-0.07 0.5,-0.21 0.13,-0.14 0.2,-0.34 0.2,-0.61 0,-0.17 -0.03,-0.31 -0.08,-0.43 -0.06,-0.12 -0.14,-0.22 -0.25,-0.29 -0.11,-0.07 -0.23,-0.1 -0.36,-0.1 -0.19,0 -0.36,0.07 -0.49,0.2 -0.14,0.13 -0.21,0.35 -0.21,0.66z"/>
  <path id="_5" class="fil0" d="M12.32 1.36l0.27 0.07c-0.06,0.22 -0.16,0.39 -0.3,0.51 -0.15,0.12 -0.33,0.17 -0.54,0.17 -0.22,0 -0.4,-0.04 -0.54,-0.13 -0.14,-0.09 -0.24,-0.22 -0.31,-0.39 -0.07,-0.17 -0.11,-0.35 -0.11,-0.55 0,-0.21 0.04,-0.4 0.12,-0.56 0.08,-0.16 0.2,-0.28 0.35,-0.36 0.15,-0.08 0.31,-0.12 0.49,-0.12 0.2,0 0.38,0.05 0.51,0.16 0.14,0.1 0.24,0.25 0.29,0.44l-0.26 0.06c-0.05,-0.15 -0.12,-0.26 -0.21,-0.32 -0.09,-0.07 -0.2,-0.1 -0.34,-0.1 -0.16,0 -0.29,0.04 -0.39,0.11 -0.1,0.08 -0.18,0.18 -0.22,0.3 -0.04,0.13 -0.06,0.26 -0.06,0.39 0,0.17 0.03,0.32 0.08,0.45 0.05,0.13 0.13,0.23 0.23,0.29 0.11,0.06 0.22,0.1 0.35,0.1 0.15,0 0.28,-0.04 0.38,-0.13 0.1,-0.09 0.18,-0.22 0.21,-0.39z"/>
  <polygon id="_6" class="fil0" points="13.35,2.07 13.35,0.27 12.68,0.27 12.68,0.03 14.29,0.03 14.29,0.27 13.62,0.27 13.62,2.07 "/>
  <path id="_7" class="fil0" d="M15.21 0.9l0 0.24 0.76 0c-0.01,0.23 -0.07,0.41 -0.19,0.54 -0.12,0.13 -0.27,0.2 -0.45,0.2 -0.33,0 -0.53,-0.17 -0.61,-0.52l-0.26 0.07c0.12,0.45 0.4,0.67 0.85,0.67 0.32,0 0.56,-0.1 0.72,-0.31 0.16,-0.21 0.23,-0.46 0.22,-0.77 0,-0.19 -0.04,-0.35 -0.1,-0.51 -0.07,-0.15 -0.18,-0.28 -0.32,-0.38 -0.14,-0.1 -0.32,-0.15 -0.52,-0.15 -0.21,0 -0.39,0.05 -0.53,0.16 -0.14,0.1 -0.24,0.25 -0.29,0.44l0.26 0.07c0.08,-0.28 0.26,-0.42 0.56,-0.42 0.2,0 0.35,0.06 0.47,0.18 0.11,0.12 0.18,0.28 0.19,0.49l-0.75 0z"/>
  <path id="_8" class="fil0" d="M16.61 2.07l0 -2.04 0.4 0 0.48 1.44c0.04,0.13 0.08,0.23 0.1,0.3 0.02,-0.07 0.06,-0.18 0.11,-0.33l0.49 -1.42 0.36 0 0 2.04 -0.26 0 0 -1.71 -0.6 1.71 -0.24 0 -0.59 -1.74 0 1.74 -0.26 0z"/>
  <path id="_9" class="fil0" d="M19.79 0.03l0.27 0 0 0.89c0.12,0 0.21,-0.02 0.26,-0.07 0.05,-0.05 0.11,-0.16 0.19,-0.35 0.06,-0.13 0.1,-0.23 0.14,-0.28 0.04,-0.06 0.09,-0.1 0.16,-0.14 0.07,-0.04 0.14,-0.06 0.22,-0.06 0.1,0 0.16,0 0.16,0l0 0.23c-0.01,0 -0.03,-0 -0.05,-0 -0.03,-0 -0.05,-0 -0.05,-0 -0.09,0 -0.15,0.02 -0.19,0.06 -0.04,0.04 -0.09,0.13 -0.15,0.27 -0.07,0.17 -0.13,0.28 -0.17,0.33 -0.05,0.04 -0.1,0.08 -0.17,0.11 0.13,0.04 0.26,0.16 0.39,0.36l0.42 0.68 -0.34 0 -0.34 -0.55c-0.09,-0.15 -0.17,-0.26 -0.23,-0.32 -0.06,-0.06 -0.14,-0.09 -0.24,-0.09l0 0.95 -0.27 0 0 -2.04z"/>
  <path id="_10" class="fil0" d="M21.27 0.03l0.27 0 0.67 1.25 0.58 -1.25 0.27 0 -0.76 1.59c-0.1,0.2 -0.17,0.33 -0.24,0.39 -0.06,0.06 -0.15,0.09 -0.26,0.09 -0.07,0 -0.15,-0.02 -0.26,-0.05l0 -0.23c0.07,0.04 0.15,0.06 0.23,0.06 0.07,0 0.12,-0.02 0.17,-0.06 0.05,-0.04 0.1,-0.14 0.16,-0.29l-0.83 -1.5z"/>
  <polygon id="_11" class="fil0" points="23.28,0.03 24.88,0.03 24.88,2.07 24.61,2.07 24.61,0.27 23.55,0.27 23.55,2.07 23.28,2.07 "/>
  <polygon id="_12" class="fil0" points="25.33,2.07 25.33,0.03 26.81,0.03 26.81,0.27 25.6,0.27 25.6,0.9 26.73,0.9 26.73,1.14 25.6,1.14 25.6,1.83 26.85,1.83 26.85,2.07 "/>
  <polygon id="_13" class="fil0" points="27.23,0.03 27.5,0.03 27.5,1.83 28.56,1.83 28.56,0.03 28.83,0.03 28.83,1.83 29.02,1.83 29.02,2.64 28.78,2.64 28.78,2.07 27.23,2.07 "/>
  <polygon id="_14" class="fil1 str0" points="0.67,2.07 0.67,0.27 0,0.27 0,0.03 1.61,0.03 1.61,0.27 0.94,0.27 0.94,2.07 "/>
  <path id="_15" class="fil1 str0" d="M1.91 0.03l0.27 0 0 0.87 0.49 0c0.32,0 0.53,0.06 0.63,0.18 0.1,0.12 0.15,0.25 0.15,0.4 0,0.16 -0.05,0.3 -0.16,0.41 -0.11,0.12 -0.31,0.18 -0.6,0.18l-0.77 0 0 -2.04zm0.27 1.81l0.49 0c0.17,0 0.29,-0.03 0.37,-0.09 0.08,-0.06 0.11,-0.15 0.11,-0.27 0,-0.08 -0.02,-0.16 -0.07,-0.21 -0.05,-0.06 -0.11,-0.09 -0.18,-0.11 -0.07,-0.02 -0.19,-0.02 -0.37,-0.02l-0.36 0 0 0.71zm1.51 -1.81l0.27 0 0 2.04 -0.27 0 0 -2.04z"/>
  <path id="_16" class="fil1 str0" d="M4.41 2.07l0 -2.04 0.77 0c0.14,0 0.24,0.01 0.31,0.02 0.1,0.02 0.18,0.05 0.25,0.09 0.07,0.05 0.12,0.11 0.16,0.2 0.04,0.08 0.06,0.18 0.06,0.28 0,0.17 -0.06,0.32 -0.17,0.44 -0.11,0.12 -0.31,0.18 -0.6,0.18l-0.52 0 0 0.83 -0.27 0zm0.27 -1.07l0.53 0c0.17,0 0.3,-0.03 0.37,-0.1 0.07,-0.07 0.11,-0.16 0.11,-0.27 0,-0.08 -0.02,-0.16 -0.06,-0.22 -0.04,-0.06 -0.1,-0.1 -0.17,-0.12 -0.05,-0.01 -0.13,-0.02 -0.25,-0.02l-0.52 0 0 0.73z"/>
  <path id="_17" class="fil1 str0" d="M6.28 2.07l0 -2.04 0.4 0 0.48 1.44c0.04,0.13 0.08,0.23 0.1,0.3 0.02,-0.07 0.06,-0.18 0.11,-0.33l0.49 -1.42 0.36 0 0 2.04 -0.26 0 0 -1.71 -0.6 1.71 -0.24 0 -0.59 -1.74 0 1.74 -0.26 0z"/>
  <path id="_18" class="fil1 str0" d="M8.57 1.08c0,-0.34 0.09,-0.6 0.27,-0.79 0.18,-0.19 0.42,-0.29 0.7,-0.29 0.19,0 0.36,0.05 0.51,0.13 0.15,0.09 0.27,0.21 0.35,0.38 0.08,0.16 0.12,0.34 0.12,0.55 0,0.21 -0.04,0.39 -0.13,0.55 -0.08,0.16 -0.2,0.29 -0.35,0.37 -0.15,0.08 -0.32,0.13 -0.5,0.13 -0.19,0 -0.36,-0.05 -0.51,-0.14 -0.15,-0.09 -0.27,-0.22 -0.34,-0.38 -0.08,-0.16 -0.12,-0.33 -0.12,-0.51zm0.28 0c0,0.25 0.07,0.44 0.2,0.58 0.13,0.14 0.3,0.21 0.5,0.21 0.2,0 0.37,-0.07 0.5,-0.21 0.13,-0.14 0.2,-0.34 0.2,-0.61 0,-0.17 -0.03,-0.31 -0.08,-0.43 -0.06,-0.12 -0.14,-0.22 -0.25,-0.29 -0.11,-0.07 -0.23,-0.1 -0.36,-0.1 -0.19,0 -0.36,0.07 -0.49,0.2 -0.14,0.13 -0.21,0.35 -0.21,0.66z"/>
  <path id="_19" class="fil1 str0" d="M12.32 1.36l0.27 0.07c-0.06,0.22 -0.16,0.39 -0.3,0.51 -0.15,0.12 -0.33,0.17 -0.54,0.17 -0.22,0 -0.4,-0.04 -0.54,-0.13 -0.14,-0.09 -0.24,-0.22 -0.31,-0.39 -0.07,-0.17 -0.11,-0.35 -0.11,-0.55 0,-0.21 0.04,-0.4 0.12,-0.56 0.08,-0.16 0.2,-0.28 0.35,-0.36 0.15,-0.08 0.31,-0.12 0.49,-0.12 0.2,0 0.38,0.05 0.51,0.16 0.14,0.1 0.24,0.25 0.29,0.44l-0.26 0.06c-0.05,-0.15 -0.12,-0.26 -0.21,-0.32 -0.09,-0.07 -0.2,-0.1 -0.34,-0.1 -0.16,0 -0.29,0.04 -0.39,0.11 -0.1,0.08 -0.18,0.18 -0.22,0.3 -0.04,0.13 -0.06,0.26 -0.06,0.39 0,0.17 0.03,0.32 0.08,0.45 0.05,0.13 0.13,0.23 0.23,0.29 0.11,0.06 0.22,0.1 0.35,0.1 0.15,0 0.28,-0.04 0.38,-0.13 0.1,-0.09 0.18,-0.22 0.21,-0.39z"/>
  <polygon id="_20" class="fil1 str0" points="13.35,2.07 13.35,0.27 12.68,0.27 12.68,0.03 14.29,0.03 14.29,0.27 13.62,0.27 13.62,2.07 "/>
  <path id="_21" class="fil1 str0" d="M15.21 0.9l0 0.24 0.76 0c-0.01,0.23 -0.07,0.41 -0.19,0.54 -0.12,0.13 -0.27,0.2 -0.45,0.2 -0.33,0 -0.53,-0.17 -0.61,-0.52l-0.26 0.07c0.12,0.45 0.4,0.67 0.85,0.67 0.32,0 0.56,-0.1 0.72,-0.31 0.16,-0.21 0.23,-0.46 0.22,-0.77 0,-0.19 -0.04,-0.35 -0.1,-0.51 -0.07,-0.15 -0.18,-0.28 -0.32,-0.38 -0.14,-0.1 -0.32,-0.15 -0.52,-0.15 -0.21,0 -0.39,0.05 -0.53,0.16 -0.14,0.1 -0.24,0.25 -0.29,0.44l0.26 0.07c0.08,-0.28 0.26,-0.42 0.56,-0.42 0.2,0 0.35,0.06 0.47,0.18 0.11,0.12 0.18,0.28 0.19,0.49l-0.75 0z"/>
  <path id="_22" class="fil1 str0" d="M16.61 2.07l0 -2.04 0.4 0 0.48 1.44c0.04,0.13 0.08,0.23 0.1,0.3 0.02,-0.07 0.06,-0.18 0.11,-0.33l0.49 -1.42 0.36 0 0 2.04 -0.26 0 0 -1.71 -0.6 1.71 -0.24 0 -0.59 -1.74 0 1.74 -0.26 0z"/>
  <path id="_23" class="fil1 str0" d="M19.79 0.03l0.27 0 0 0.89c0.12,0 0.21,-0.02 0.26,-0.07 0.05,-0.05 0.11,-0.16 0.19,-0.35 0.06,-0.13 0.1,-0.23 0.14,-0.28 0.04,-0.06 0.09,-0.1 0.16,-0.14 0.07,-0.04 0.14,-0.06 0.22,-0.06 0.1,0 0.16,0 0.16,0l0 0.23c-0.01,0 -0.03,-0 -0.05,-0 -0.03,-0 -0.05,-0 -0.05,-0 -0.09,0 -0.15,0.02 -0.19,0.06 -0.04,0.04 -0.09,0.13 -0.15,0.27 -0.07,0.17 -0.13,0.28 -0.17,0.33 -0.05,0.04 -0.1,0.08 -0.17,0.11 0.13,0.04 0.26,0.16 0.39,0.36l0.42 0.68 -0.34 0 -0.34 -0.55c-0.09,-0.15 -0.17,-0.26 -0.23,-0.32 -0.06,-0.06 -0.14,-0.09 -0.24,-0.09l0 0.95 -0.27 0 0 -2.04z"/>
  <path id="_24" class="fil1 str0" d="M21.27 0.03l0.27 0 0.67 1.25 0.58 -1.25 0.27 0 -0.76 1.59c-0.1,0.2 -0.17,0.33 -0.24,0.39 -0.06,0.06 -0.15,0.09 -0.26,0.09 -0.07,0 -0.15,-0.02 -0.26,-0.05l0 -0.23c0.07,0.04 0.15,0.06 0.23,0.06 0.07,0 0.12,-0.02 0.17,-0.06 0.05,-0.04 0.1,-0.14 0.16,-0.29l-0.83 -1.5z"/>
  <polygon id="_25" class="fil1 str0" points="23.28,0.03 24.88,0.03 24.88,2.07 24.61,2.07 24.61,0.27 23.55,0.27 23.55,2.07 23.28,2.07 "/>
  <polygon id="_26" class="fil1 str0" points="25.33,2.07 25.33,0.03 26.81,0.03 26.81,0.27 25.6,0.27 25.6,0.9 26.73,0.9 26.73,1.14 25.6,1.14 25.6,1.83 26.85,1.83 26.85,2.07 "/>
  <polygon id="_27" class="fil1 str0" points="27.23,0.03 27.5,0.03 27.5,1.83 28.56,1.83 28.56,0.03 28.83,0.03 28.83,1.83 29.02,1.83 29.02,2.64 28.78,2.64 28.78,2.07 27.23,2.07 "/>
 </g>
</svg>
