<?xml version="1.0" encoding="UTF-8"?>
<!DOCTYPE svg PUBLIC "-//W3C//DTD SVG 1.1//EN" "http://www.w3.org/Graphics/SVG/1.1/DTD/svg11.dtd">
<!-- Creator: CorelDRAW -->
<svg xmlns="http://www.w3.org/2000/svg" xml:space="preserve" width="31.0048mm" height="5.2678mm" version="1.1" style="shape-rendering:geometricPrecision; text-rendering:geometricPrecision; image-rendering:optimizeQuality; fill-rule:evenodd; clip-rule:evenodd"
viewBox="0 0 37.72 6.41"
 xmlns:xlink="http://www.w3.org/1999/xlink"
 xmlns:xodm="http://www.corel.com/coreldraw/odm/2003">
 <defs>
  <style type="text/css">
   <![CDATA[
    .str0 {stroke:#FF6600;stroke-width:0;stroke-miterlimit:22.9256}
    .fil1 {fill:none;fill-rule:nonzero}
    .fil0 {fill:#FF6600;fill-rule:nonzero}
   ]]>
  </style>
 </defs>
 <g id="Слой_x0020_1">
  <metadata id="CorelCorpID_0Corel-Layer"/>
  <polygon class="fil0" points="10.17,0.05 11.61,0.05 11.61,0.31 10.46,0.31 10.46,2.28 10.17,2.28 "/>
  <path id="_1" class="fil0" d="M11.59 2.9l-0.03 -0.25c0.06,0.02 0.11,0.02 0.16,0.02 0.06,0 0.11,-0.01 0.15,-0.03 0.04,-0.02 0.07,-0.05 0.09,-0.09 0.02,-0.03 0.05,-0.1 0.08,-0.2 0.01,-0.01 0.01,-0.04 0.02,-0.07l-0.61 -1.62 0.29 0 0.34 0.93c0.04,0.12 0.08,0.24 0.12,0.37 0.03,-0.12 0.07,-0.24 0.11,-0.36l0.34 -0.94 0.27 0 -0.61 1.64c-0.07,0.18 -0.12,0.3 -0.15,0.37 -0.05,0.09 -0.1,0.16 -0.17,0.2 -0.06,0.04 -0.14,0.06 -0.23,0.06 -0.05,0 -0.11,-0.01 -0.18,-0.03z"/>
  <path id="_2" class="fil0" d="M14.18 1.69l0.27 0.04c-0.03,0.18 -0.1,0.33 -0.23,0.43 -0.12,0.1 -0.27,0.16 -0.45,0.16 -0.22,0 -0.4,-0.07 -0.53,-0.22 -0.13,-0.14 -0.2,-0.35 -0.2,-0.62 0,-0.17 0.03,-0.33 0.09,-0.46 0.06,-0.13 0.15,-0.23 0.26,-0.29 0.12,-0.07 0.25,-0.1 0.38,-0.1 0.17,0 0.32,0.04 0.43,0.13 0.11,0.09 0.18,0.21 0.21,0.38l-0.26 0.04c-0.03,-0.11 -0.07,-0.19 -0.13,-0.24 -0.06,-0.05 -0.14,-0.08 -0.23,-0.08 -0.14,0 -0.25,0.05 -0.34,0.15 -0.09,0.1 -0.13,0.25 -0.13,0.47 0,0.22 0.04,0.37 0.12,0.47 0.08,0.1 0.19,0.15 0.32,0.15 0.11,0 0.2,-0.03 0.27,-0.1 0.07,-0.07 0.12,-0.17 0.14,-0.3z"/>
  <polygon id="_3" class="fil0" points="14.68,0.67 14.95,0.67 14.95,1.9 15.72,0.67 16.01,0.67 16.01,2.28 15.74,2.28 15.74,1.06 14.98,2.28 14.68,2.28 "/>
  <polygon id="_4" class="fil0" points="16.31,1.61 16.31,1.34 17.16,1.34 17.16,1.61 "/>
  <path id="_5" class="fil0" d="M17.59 0.67l1.27 0 0 1.61 -0.27 0 0 -1.39 -0.72 0 0 0.8c0,0.19 -0.01,0.31 -0.02,0.37 -0.01,0.06 -0.05,0.11 -0.1,0.16 -0.05,0.04 -0.13,0.07 -0.24,0.07 -0.06,0 -0.14,-0 -0.22,-0.01l0 -0.23 0.12 0c0.06,0 0.1,-0.01 0.12,-0.02 0.02,-0.01 0.04,-0.03 0.05,-0.06 0.01,-0.03 0.01,-0.11 0.01,-0.25l0 -1.06z"/>
  <path id="_6" class="fil0" d="M20.37 1.76l0.28 0.04c-0.04,0.16 -0.13,0.29 -0.25,0.38 -0.12,0.09 -0.27,0.14 -0.46,0.14 -0.24,0 -0.42,-0.07 -0.56,-0.22 -0.14,-0.14 -0.21,-0.35 -0.21,-0.61 0,-0.27 0.07,-0.48 0.21,-0.63 0.14,-0.15 0.32,-0.22 0.54,-0.22 0.22,0 0.39,0.07 0.53,0.22 0.14,0.15 0.2,0.35 0.2,0.62 0,0.02 -0,0.04 -0,0.07l-1.2 0c0.01,0.18 0.06,0.31 0.15,0.41 0.09,0.09 0.2,0.14 0.34,0.14 0.1,0 0.19,-0.03 0.26,-0.08 0.07,-0.05 0.13,-0.14 0.17,-0.25zm-0.9 -0.44l0.9 0c-0.01,-0.14 -0.05,-0.24 -0.1,-0.31 -0.09,-0.11 -0.2,-0.16 -0.34,-0.16 -0.13,0 -0.23,0.04 -0.32,0.13 -0.09,0.08 -0.13,0.2 -0.14,0.34z"/>
  <path id="_7" class="fil0" d="M22.14 0l0.24 0c-0.01,0.11 -0.04,0.18 -0.07,0.23 -0.04,0.04 -0.08,0.07 -0.14,0.08 -0.06,0.01 -0.17,0.02 -0.34,0.02 -0.22,0 -0.38,0.02 -0.46,0.07 -0.08,0.04 -0.14,0.11 -0.18,0.21 -0.04,0.1 -0.06,0.22 -0.06,0.37 0.07,-0.1 0.15,-0.18 0.24,-0.23 0.09,-0.05 0.2,-0.08 0.31,-0.08 0.21,0 0.39,0.07 0.53,0.22 0.14,0.15 0.21,0.34 0.21,0.59 0,0.19 -0.03,0.34 -0.1,0.46 -0.07,0.12 -0.15,0.21 -0.25,0.28 -0.1,0.07 -0.23,0.1 -0.39,0.1 -0.19,0 -0.34,-0.04 -0.45,-0.13 -0.11,-0.09 -0.19,-0.2 -0.24,-0.34 -0.06,-0.14 -0.09,-0.37 -0.09,-0.71 0,-0.43 0.07,-0.71 0.22,-0.86 0.14,-0.15 0.37,-0.22 0.66,-0.22 0.19,0 0.29,-0 0.32,-0.01 0.02,-0.01 0.04,-0.02 0.05,-0.04zm-0.01 1.47c0,-0.17 -0.04,-0.3 -0.12,-0.41 -0.08,-0.11 -0.19,-0.16 -0.34,-0.16 -0.15,0 -0.27,0.06 -0.35,0.17 -0.08,0.11 -0.12,0.26 -0.12,0.45 0,0.19 0.05,0.33 0.14,0.43 0.09,0.1 0.2,0.15 0.33,0.15 0.14,0 0.25,-0.06 0.33,-0.17 0.08,-0.11 0.13,-0.27 0.13,-0.46z"/>
  <path id="_8" class="fil0" d="M23.81 1.76l0.28 0.04c-0.04,0.16 -0.13,0.29 -0.25,0.38 -0.12,0.09 -0.27,0.14 -0.46,0.14 -0.24,0 -0.42,-0.07 -0.56,-0.22 -0.14,-0.14 -0.21,-0.35 -0.21,-0.61 0,-0.27 0.07,-0.48 0.21,-0.63 0.14,-0.15 0.32,-0.22 0.54,-0.22 0.22,0 0.39,0.07 0.53,0.22 0.14,0.15 0.2,0.35 0.2,0.62 0,0.02 -0,0.04 -0,0.07l-1.2 0c0.01,0.18 0.06,0.31 0.15,0.41 0.09,0.09 0.2,0.14 0.34,0.14 0.1,0 0.19,-0.03 0.26,-0.08 0.07,-0.05 0.13,-0.14 0.17,-0.25zm-0.9 -0.44l0.9 0c-0.01,-0.14 -0.05,-0.24 -0.1,-0.31 -0.09,-0.11 -0.2,-0.16 -0.34,-0.16 -0.13,0 -0.23,0.04 -0.32,0.13 -0.09,0.08 -0.13,0.2 -0.14,0.34z"/>
  <path id="_9" class="fil0" d="M24.59 0.67l1.13 0 0 1.39 0.17 0 0 0.68 -0.22 0 0 -0.46 -1.27 0 0 0.46 -0.22 0 0 -0.68 0.14 0c0.19,-0.26 0.29,-0.73 0.28,-1.39zm0.23 0.23c-0.02,0.52 -0.1,0.91 -0.24,1.16l0.87 0 0 -1.16 -0.63 0z"/>
  <polygon id="_10" class="fil0" points="26.19,0.67 26.46,0.67 26.46,1.9 27.22,0.67 27.52,0.67 27.52,2.28 27.24,2.28 27.24,1.06 26.48,2.28 26.19,2.28 "/>
  <path id="_11" class="fil0" d="M0.54 6.41c-0.15,-0.19 -0.28,-0.41 -0.38,-0.67 -0.1,-0.26 -0.16,-0.52 -0.16,-0.79 0,-0.24 0.04,-0.47 0.12,-0.69 0.09,-0.26 0.23,-0.51 0.42,-0.77l0.2 0c-0.12,0.21 -0.2,0.36 -0.24,0.45 -0.06,0.14 -0.11,0.29 -0.15,0.44 -0.04,0.19 -0.07,0.38 -0.07,0.57 0,0.49 0.15,0.97 0.45,1.46l-0.2 0z"/>
  <path id="_12" class="fil0" d="M1.05 6.37l0 -2.23 0.25 0 0 0.21c0.06,-0.08 0.12,-0.14 0.2,-0.18 0.07,-0.04 0.16,-0.06 0.27,-0.06 0.14,0 0.26,0.04 0.36,0.11 0.11,0.07 0.18,0.17 0.24,0.3 0.05,0.13 0.08,0.27 0.08,0.42 0,0.16 -0.03,0.31 -0.09,0.44 -0.06,0.13 -0.15,0.23 -0.26,0.3 -0.11,0.07 -0.23,0.11 -0.36,0.11 -0.09,0 -0.17,-0.02 -0.25,-0.06 -0.07,-0.04 -0.13,-0.09 -0.18,-0.15l0 0.79 -0.27 0zm0.25 -1.42c0,0.21 0.04,0.36 0.13,0.46 0.08,0.1 0.19,0.15 0.3,0.15 0.12,0 0.22,-0.05 0.31,-0.15 0.09,-0.1 0.13,-0.26 0.13,-0.48 0,-0.21 -0.04,-0.36 -0.13,-0.46 -0.08,-0.1 -0.19,-0.15 -0.3,-0.15 -0.12,0 -0.22,0.05 -0.31,0.16 -0.09,0.11 -0.13,0.27 -0.13,0.47z"/>
  <path id="_13" class="fil0" d="M2.73 6.38l-0.03 -0.25c0.06,0.02 0.11,0.02 0.16,0.02 0.06,0 0.11,-0.01 0.15,-0.03 0.04,-0.02 0.07,-0.05 0.09,-0.09 0.02,-0.03 0.05,-0.1 0.08,-0.2 0.01,-0.01 0.01,-0.04 0.02,-0.07l-0.61 -1.62 0.29 0 0.34 0.93c0.04,0.12 0.08,0.24 0.12,0.37 0.03,-0.12 0.07,-0.24 0.11,-0.36l0.34 -0.94 0.27 0 -0.61 1.64c-0.07,0.18 -0.12,0.3 -0.15,0.37 -0.05,0.09 -0.1,0.16 -0.17,0.2 -0.06,0.04 -0.14,0.06 -0.23,0.06 -0.05,0 -0.11,-0.01 -0.18,-0.03z"/>
  <path id="_14" class="fil0" d="M5.32 5.16l0.27 0.04c-0.03,0.18 -0.1,0.33 -0.23,0.43 -0.12,0.1 -0.27,0.16 -0.45,0.16 -0.22,0 -0.4,-0.07 -0.53,-0.22 -0.13,-0.14 -0.2,-0.35 -0.2,-0.62 0,-0.17 0.03,-0.33 0.09,-0.46 0.06,-0.13 0.15,-0.23 0.26,-0.29 0.12,-0.07 0.25,-0.1 0.38,-0.1 0.17,0 0.32,0.04 0.43,0.13 0.11,0.09 0.18,0.21 0.21,0.38l-0.26 0.04c-0.03,-0.11 -0.07,-0.19 -0.13,-0.24 -0.06,-0.05 -0.14,-0.08 -0.23,-0.08 -0.14,0 -0.25,0.05 -0.34,0.15 -0.09,0.1 -0.13,0.25 -0.13,0.47 0,0.22 0.04,0.37 0.12,0.47 0.08,0.1 0.19,0.15 0.32,0.15 0.11,0 0.2,-0.03 0.27,-0.1 0.07,-0.07 0.12,-0.17 0.14,-0.3z"/>
  <path id="_15" class="fil0" d="M6.88 5.16l0.27 0.04c-0.03,0.18 -0.1,0.33 -0.23,0.43 -0.12,0.1 -0.27,0.16 -0.45,0.16 -0.22,0 -0.4,-0.07 -0.53,-0.22 -0.13,-0.14 -0.2,-0.35 -0.2,-0.62 0,-0.17 0.03,-0.33 0.09,-0.46 0.06,-0.13 0.15,-0.23 0.26,-0.29 0.12,-0.07 0.25,-0.1 0.38,-0.1 0.17,0 0.32,0.04 0.43,0.13 0.11,0.09 0.18,0.21 0.21,0.38l-0.26 0.04c-0.03,-0.11 -0.07,-0.19 -0.13,-0.24 -0.06,-0.05 -0.14,-0.08 -0.23,-0.08 -0.14,0 -0.25,0.05 -0.34,0.15 -0.09,0.1 -0.13,0.25 -0.13,0.47 0,0.22 0.04,0.37 0.12,0.47 0.08,0.1 0.19,0.15 0.32,0.15 0.11,0 0.2,-0.03 0.27,-0.1 0.07,-0.07 0.12,-0.17 0.14,-0.3z"/>
  <path id="_16" class="fil0" d="M7.38 4.14l0.27 0 0 0.7c0.09,0 0.15,-0.02 0.18,-0.05 0.03,-0.03 0.09,-0.13 0.15,-0.29 0.05,-0.13 0.1,-0.21 0.13,-0.25 0.03,-0.04 0.07,-0.07 0.12,-0.08 0.04,-0.01 0.11,-0.02 0.21,-0.02l0.05 0 0 0.23 -0.08 -0c-0.07,0 -0.12,0.01 -0.14,0.03 -0.02,0.02 -0.05,0.09 -0.1,0.2 -0.04,0.11 -0.08,0.18 -0.11,0.22 -0.03,0.04 -0.09,0.08 -0.16,0.11 0.12,0.03 0.23,0.14 0.35,0.33l0.3 0.5 -0.3 0 -0.3 -0.5c-0.06,-0.1 -0.11,-0.17 -0.16,-0.2 -0.04,-0.03 -0.1,-0.05 -0.16,-0.05l0 0.75 -0.27 0 0 -1.61z"/>
  <path id="_17" class="fil0" d="M9.86 5.55c-0.1,0.09 -0.2,0.15 -0.29,0.18 -0.09,0.04 -0.19,0.05 -0.3,0.05 -0.18,0 -0.31,-0.04 -0.41,-0.13 -0.1,-0.09 -0.14,-0.2 -0.14,-0.33 0,-0.08 0.02,-0.15 0.05,-0.22 0.04,-0.07 0.08,-0.12 0.14,-0.16 0.06,-0.04 0.12,-0.07 0.2,-0.09 0.05,-0.01 0.14,-0.03 0.24,-0.04 0.22,-0.03 0.38,-0.06 0.49,-0.09 0,-0.04 0,-0.06 0,-0.07 0,-0.11 -0.03,-0.19 -0.08,-0.23 -0.07,-0.06 -0.17,-0.09 -0.31,-0.09 -0.13,0 -0.22,0.02 -0.29,0.07 -0.06,0.05 -0.11,0.12 -0.14,0.24l-0.27 -0.04c0.02,-0.11 0.06,-0.21 0.12,-0.28 0.06,-0.07 0.14,-0.12 0.24,-0.16 0.11,-0.04 0.23,-0.06 0.37,-0.06 0.14,0 0.25,0.02 0.34,0.05 0.09,0.03 0.15,0.07 0.19,0.12 0.04,0.05 0.07,0.11 0.09,0.19 0.01,0.05 0.01,0.13 0.01,0.25l0 0.36c0,0.25 0.01,0.41 0.02,0.48 0.01,0.07 0.03,0.13 0.07,0.19l-0.29 0c-0.03,-0.06 -0.05,-0.12 -0.05,-0.2zm-0.02 -0.61c-0.1,0.04 -0.25,0.07 -0.45,0.1 -0.11,0.02 -0.19,0.03 -0.24,0.05 -0.05,0.02 -0.08,0.05 -0.11,0.09 -0.03,0.04 -0.04,0.08 -0.04,0.13 0,0.07 0.03,0.13 0.08,0.18 0.06,0.05 0.14,0.07 0.24,0.07 0.11,0 0.2,-0.02 0.28,-0.07 0.08,-0.05 0.14,-0.11 0.18,-0.19 0.03,-0.06 0.04,-0.15 0.04,-0.27l0 -0.1z"/>
  <path id="_18" class="fil0" d="M11.81 4.14l0 1.61 -0.27 0 0 -0.63 -0.16 0c-0.1,0 -0.17,0.01 -0.21,0.04 -0.05,0.03 -0.12,0.1 -0.21,0.24l-0.24 0.35 -0.34 0 0.3 -0.43c0.09,-0.13 0.18,-0.21 0.27,-0.22 -0.16,-0.02 -0.27,-0.08 -0.35,-0.17 -0.08,-0.09 -0.11,-0.2 -0.11,-0.32 0,-0.14 0.05,-0.25 0.15,-0.34 0.1,-0.09 0.24,-0.13 0.43,-0.13l0.75 0zm-0.27 0.23l-0.39 0c-0.16,0 -0.27,0.03 -0.32,0.08 -0.05,0.05 -0.07,0.11 -0.07,0.18 0,0.1 0.03,0.17 0.1,0.21 0.07,0.05 0.19,0.07 0.37,0.07l0.3 0 0 -0.53z"/>
  <polygon id="_19" class="fil0" points="13.09,4.14 13.36,4.14 13.36,4.81 14.12,4.81 14.12,4.14 14.39,4.14 14.39,5.76 14.12,5.76 14.12,5.04 13.36,5.04 13.36,5.76 13.09,5.76 "/>
  <path id="_20" class="fil0" d="M15.86 5.55c-0.1,0.09 -0.2,0.15 -0.29,0.18 -0.09,0.04 -0.19,0.05 -0.3,0.05 -0.18,0 -0.31,-0.04 -0.41,-0.13 -0.1,-0.09 -0.14,-0.2 -0.14,-0.33 0,-0.08 0.02,-0.15 0.05,-0.22 0.04,-0.07 0.08,-0.12 0.14,-0.16 0.06,-0.04 0.12,-0.07 0.2,-0.09 0.05,-0.01 0.14,-0.03 0.24,-0.04 0.22,-0.03 0.38,-0.06 0.49,-0.09 0,-0.04 0,-0.06 0,-0.07 0,-0.11 -0.03,-0.19 -0.08,-0.23 -0.07,-0.06 -0.17,-0.09 -0.31,-0.09 -0.13,0 -0.22,0.02 -0.29,0.07 -0.06,0.05 -0.11,0.12 -0.14,0.24l-0.27 -0.04c0.02,-0.11 0.06,-0.21 0.12,-0.28 0.06,-0.07 0.14,-0.12 0.24,-0.16 0.11,-0.04 0.23,-0.06 0.37,-0.06 0.14,0 0.25,0.02 0.34,0.05 0.09,0.03 0.15,0.07 0.19,0.12 0.04,0.05 0.07,0.11 0.09,0.19 0.01,0.05 0.01,0.13 0.01,0.25l0 0.36c0,0.25 0.01,0.41 0.02,0.48 0.01,0.07 0.03,0.13 0.07,0.19l-0.29 0c-0.03,-0.06 -0.05,-0.12 -0.05,-0.2zm-0.02 -0.61c-0.1,0.04 -0.25,0.07 -0.45,0.1 -0.11,0.02 -0.19,0.03 -0.24,0.05 -0.05,0.02 -0.08,0.05 -0.11,0.09 -0.03,0.04 -0.04,0.08 -0.04,0.13 0,0.07 0.03,0.13 0.08,0.18 0.06,0.05 0.14,0.07 0.24,0.07 0.11,0 0.2,-0.02 0.28,-0.07 0.08,-0.05 0.14,-0.11 0.18,-0.19 0.03,-0.06 0.04,-0.15 0.04,-0.27l0 -0.1z"/>
  <path id="_21" class="fil0" d="M16.53 6.37l0 -2.23 0.25 0 0 0.21c0.06,-0.08 0.12,-0.14 0.2,-0.18 0.07,-0.04 0.16,-0.06 0.27,-0.06 0.14,0 0.26,0.04 0.36,0.11 0.11,0.07 0.18,0.17 0.24,0.3 0.05,0.13 0.08,0.27 0.08,0.42 0,0.16 -0.03,0.31 -0.09,0.44 -0.06,0.13 -0.15,0.23 -0.26,0.3 -0.11,0.07 -0.23,0.11 -0.36,0.11 -0.09,0 -0.17,-0.02 -0.25,-0.06 -0.07,-0.04 -0.13,-0.09 -0.18,-0.15l0 0.79 -0.27 0zm0.25 -1.42c0,0.21 0.04,0.36 0.13,0.46 0.08,0.1 0.19,0.15 0.3,0.15 0.12,0 0.22,-0.05 0.31,-0.15 0.09,-0.1 0.13,-0.26 0.13,-0.48 0,-0.21 -0.04,-0.36 -0.13,-0.46 -0.08,-0.1 -0.19,-0.15 -0.3,-0.15 -0.12,0 -0.22,0.05 -0.31,0.16 -0.09,0.11 -0.13,0.27 -0.13,0.47z"/>
  <path id="_22" class="fil0" d="M18.16 4.95c0,-0.3 0.08,-0.52 0.25,-0.66 0.14,-0.12 0.31,-0.18 0.51,-0.18 0.22,0 0.4,0.07 0.54,0.22 0.14,0.14 0.21,0.35 0.21,0.6 0,0.21 -0.03,0.37 -0.09,0.49 -0.06,0.12 -0.15,0.21 -0.27,0.28 -0.12,0.07 -0.25,0.1 -0.39,0.1 -0.23,0 -0.41,-0.07 -0.55,-0.22 -0.14,-0.14 -0.21,-0.35 -0.21,-0.62zm0.28 0c0,0.21 0.05,0.36 0.14,0.46 0.09,0.1 0.2,0.15 0.34,0.15 0.14,0 0.25,-0.05 0.34,-0.15 0.09,-0.1 0.14,-0.26 0.14,-0.47 0,-0.2 -0.05,-0.35 -0.14,-0.45 -0.09,-0.1 -0.2,-0.15 -0.34,-0.15 -0.14,0 -0.25,0.05 -0.34,0.15 -0.09,0.1 -0.14,0.26 -0.14,0.46z"/>
  <path id="_23" class="fil0" d="M20.14 4.14l1.13 0 0 1.39 0.17 0 0 0.68 -0.22 0 0 -0.46 -1.27 0 0 0.46 -0.22 0 0 -0.68 0.14 0c0.19,-0.26 0.29,-0.73 0.28,-1.39zm0.23 0.23c-0.02,0.52 -0.1,0.91 -0.24,1.16l0.87 0 0 -1.16 -0.63 0z"/>
  <polygon id="_24" class="fil0" points="21.74,4.14 22.02,4.14 22.02,4.81 22.77,4.81 22.77,4.14 23.05,4.14 23.05,5.76 22.77,5.76 22.77,5.04 22.02,5.04 22.02,5.76 21.74,5.76 "/>
  <path id="_25" class="fil0" d="M24.51 5.55c-0.1,0.09 -0.2,0.15 -0.29,0.18 -0.09,0.04 -0.19,0.05 -0.3,0.05 -0.18,0 -0.31,-0.04 -0.41,-0.13 -0.1,-0.09 -0.14,-0.2 -0.14,-0.33 0,-0.08 0.02,-0.15 0.05,-0.22 0.04,-0.07 0.08,-0.12 0.14,-0.16 0.06,-0.04 0.12,-0.07 0.2,-0.09 0.05,-0.01 0.14,-0.03 0.24,-0.04 0.22,-0.03 0.38,-0.06 0.49,-0.09 0,-0.04 0,-0.06 0,-0.07 0,-0.11 -0.03,-0.19 -0.08,-0.23 -0.07,-0.06 -0.17,-0.09 -0.31,-0.09 -0.13,0 -0.22,0.02 -0.29,0.07 -0.06,0.05 -0.11,0.12 -0.14,0.24l-0.27 -0.04c0.02,-0.11 0.06,-0.21 0.12,-0.28 0.06,-0.07 0.14,-0.12 0.24,-0.16 0.11,-0.04 0.23,-0.06 0.37,-0.06 0.14,0 0.25,0.02 0.34,0.05 0.09,0.03 0.15,0.07 0.19,0.12 0.04,0.05 0.07,0.11 0.09,0.19 0.01,0.05 0.01,0.13 0.01,0.25l0 0.36c0,0.25 0.01,0.41 0.02,0.48 0.01,0.07 0.03,0.13 0.07,0.19l-0.29 0c-0.03,-0.06 -0.05,-0.12 -0.05,-0.2zm-0.02 -0.61c-0.1,0.04 -0.25,0.07 -0.45,0.1 -0.11,0.02 -0.19,0.03 -0.24,0.05 -0.05,0.02 -0.08,0.05 -0.11,0.09 -0.03,0.04 -0.04,0.08 -0.04,0.13 0,0.07 0.03,0.13 0.08,0.18 0.06,0.05 0.14,0.07 0.24,0.07 0.11,0 0.2,-0.02 0.28,-0.07 0.08,-0.05 0.14,-0.11 0.18,-0.19 0.03,-0.06 0.04,-0.15 0.04,-0.27l0 -0.1z"/>
  <path id="_26" class="fil0" d="M26.46 4.14l0 1.61 -0.27 0 0 -0.63 -0.16 0c-0.1,0 -0.17,0.01 -0.21,0.04 -0.05,0.03 -0.12,0.1 -0.21,0.24l-0.24 0.35 -0.34 0 0.3 -0.43c0.09,-0.13 0.18,-0.21 0.27,-0.22 -0.16,-0.02 -0.27,-0.08 -0.35,-0.17 -0.08,-0.09 -0.11,-0.2 -0.11,-0.32 0,-0.14 0.05,-0.25 0.15,-0.34 0.1,-0.09 0.24,-0.13 0.43,-0.13l0.75 0zm-0.27 0.23l-0.39 0c-0.16,0 -0.27,0.03 -0.32,0.08 -0.05,0.05 -0.07,0.11 -0.07,0.18 0,0.1 0.03,0.17 0.1,0.21 0.07,0.05 0.19,0.07 0.37,0.07l0.3 0 0 -0.53z"/>
  <path id="_27" class="fil0" d="M28.79 5.16l0.27 0.04c-0.03,0.18 -0.1,0.33 -0.23,0.43 -0.12,0.1 -0.27,0.16 -0.45,0.16 -0.22,0 -0.4,-0.07 -0.53,-0.22 -0.13,-0.14 -0.2,-0.35 -0.2,-0.62 0,-0.17 0.03,-0.33 0.09,-0.46 0.06,-0.13 0.15,-0.23 0.26,-0.29 0.12,-0.07 0.25,-0.1 0.38,-0.1 0.17,0 0.32,0.04 0.43,0.13 0.11,0.09 0.18,0.21 0.21,0.38l-0.26 0.04c-0.03,-0.11 -0.07,-0.19 -0.13,-0.24 -0.06,-0.05 -0.14,-0.08 -0.23,-0.08 -0.14,0 -0.25,0.05 -0.34,0.15 -0.09,0.1 -0.13,0.25 -0.13,0.47 0,0.22 0.04,0.37 0.12,0.47 0.08,0.1 0.19,0.15 0.32,0.15 0.11,0 0.2,-0.03 0.27,-0.1 0.07,-0.07 0.12,-0.17 0.14,-0.3z"/>
  <path id="_28" class="fil0" d="M29.29 4.14l0.27 0 0 0.7c0.09,0 0.15,-0.02 0.18,-0.05 0.03,-0.03 0.09,-0.13 0.15,-0.29 0.05,-0.13 0.1,-0.21 0.13,-0.25 0.03,-0.04 0.07,-0.07 0.12,-0.08 0.04,-0.01 0.11,-0.02 0.21,-0.02l0.05 0 0 0.23 -0.08 -0c-0.07,0 -0.12,0.01 -0.14,0.03 -0.02,0.02 -0.05,0.09 -0.1,0.2 -0.04,0.11 -0.08,0.18 -0.11,0.22 -0.03,0.04 -0.09,0.08 -0.16,0.11 0.12,0.03 0.23,0.14 0.35,0.33l0.3 0.5 -0.3 0 -0.3 -0.5c-0.06,-0.1 -0.11,-0.17 -0.16,-0.2 -0.04,-0.03 -0.1,-0.05 -0.16,-0.05l0 0.75 -0.27 0 0 -1.61z"/>
  <path id="_29" class="fil0" d="M31.78 5.55c-0.1,0.09 -0.2,0.15 -0.29,0.18 -0.09,0.04 -0.19,0.05 -0.3,0.05 -0.18,0 -0.31,-0.04 -0.41,-0.13 -0.1,-0.09 -0.14,-0.2 -0.14,-0.33 0,-0.08 0.02,-0.15 0.05,-0.22 0.04,-0.07 0.08,-0.12 0.14,-0.16 0.06,-0.04 0.12,-0.07 0.2,-0.09 0.05,-0.01 0.14,-0.03 0.24,-0.04 0.22,-0.03 0.38,-0.06 0.49,-0.09 0,-0.04 0,-0.06 0,-0.07 0,-0.11 -0.03,-0.19 -0.08,-0.23 -0.07,-0.06 -0.17,-0.09 -0.31,-0.09 -0.13,0 -0.22,0.02 -0.29,0.07 -0.06,0.05 -0.11,0.12 -0.14,0.24l-0.27 -0.04c0.02,-0.11 0.06,-0.21 0.12,-0.28 0.06,-0.07 0.14,-0.12 0.24,-0.16 0.11,-0.04 0.23,-0.06 0.37,-0.06 0.14,0 0.25,0.02 0.34,0.05 0.09,0.03 0.15,0.07 0.19,0.12 0.04,0.05 0.07,0.11 0.09,0.19 0.01,0.05 0.01,0.13 0.01,0.25l0 0.36c0,0.25 0.01,0.41 0.02,0.48 0.01,0.07 0.03,0.13 0.07,0.19l-0.29 0c-0.03,-0.06 -0.05,-0.12 -0.05,-0.2zm-0.02 -0.61c-0.1,0.04 -0.25,0.07 -0.45,0.1 -0.11,0.02 -0.19,0.03 -0.24,0.05 -0.05,0.02 -0.08,0.05 -0.11,0.09 -0.03,0.04 -0.04,0.08 -0.04,0.13 0,0.07 0.03,0.13 0.08,0.18 0.06,0.05 0.14,0.07 0.24,0.07 0.11,0 0.2,-0.02 0.28,-0.07 0.08,-0.05 0.14,-0.11 0.18,-0.19 0.03,-0.06 0.04,-0.15 0.04,-0.27l0 -0.1z"/>
  <path id="_30" class="fil0" d="M32.78 5.02l0 -0.21c0.12,-0 0.19,-0.01 0.24,-0.01 0.04,-0.01 0.08,-0.03 0.12,-0.07 0.04,-0.04 0.06,-0.09 0.06,-0.15 0,-0.07 -0.02,-0.13 -0.07,-0.18 -0.05,-0.04 -0.11,-0.07 -0.19,-0.07 -0.15,0 -0.26,0.09 -0.32,0.27l-0.26 -0.04c0.08,-0.3 0.28,-0.45 0.59,-0.45 0.17,0 0.31,0.05 0.4,0.14 0.1,0.09 0.15,0.21 0.15,0.34 0,0.13 -0.06,0.24 -0.19,0.31 0.08,0.04 0.14,0.1 0.18,0.17 0.04,0.07 0.06,0.15 0.06,0.24 0,0.14 -0.05,0.26 -0.16,0.35 -0.11,0.09 -0.25,0.14 -0.44,0.14 -0.37,0 -0.58,-0.16 -0.64,-0.49l0.26 -0.06c0.02,0.1 0.07,0.18 0.14,0.24 0.07,0.06 0.15,0.08 0.25,0.08 0.09,0 0.17,-0.03 0.23,-0.08 0.06,-0.05 0.09,-0.12 0.09,-0.2 0,-0.06 -0.02,-0.12 -0.06,-0.16 -0.04,-0.05 -0.08,-0.08 -0.12,-0.09 -0.04,-0.01 -0.12,-0.02 -0.24,-0.02 -0.01,0 -0.03,0 -0.06,0z"/>
  <path id="_31" class="fil0" d="M33.84 4.14l0.27 0 0 0.7c0.09,0 0.15,-0.02 0.18,-0.05 0.03,-0.03 0.09,-0.13 0.15,-0.29 0.05,-0.13 0.1,-0.21 0.13,-0.25 0.03,-0.04 0.07,-0.07 0.12,-0.08 0.04,-0.01 0.11,-0.02 0.21,-0.02l0.05 0 0 0.23 -0.08 -0c-0.07,0 -0.12,0.01 -0.14,0.03 -0.02,0.02 -0.05,0.09 -0.1,0.2 -0.04,0.11 -0.08,0.18 -0.11,0.22 -0.03,0.04 -0.09,0.08 -0.16,0.11 0.12,0.03 0.23,0.14 0.35,0.33l0.3 0.5 -0.3 0 -0.3 -0.5c-0.06,-0.1 -0.11,-0.17 -0.16,-0.2 -0.04,-0.03 -0.1,-0.05 -0.16,-0.05l0 0.75 -0.27 0 0 -1.61z"/>
  <path id="_32" class="fil0" d="M36.33 5.55c-0.1,0.09 -0.2,0.15 -0.29,0.18 -0.09,0.04 -0.19,0.05 -0.3,0.05 -0.18,0 -0.31,-0.04 -0.41,-0.13 -0.1,-0.09 -0.14,-0.2 -0.14,-0.33 0,-0.08 0.02,-0.15 0.05,-0.22 0.04,-0.07 0.08,-0.12 0.14,-0.16 0.06,-0.04 0.12,-0.07 0.2,-0.09 0.05,-0.01 0.14,-0.03 0.24,-0.04 0.22,-0.03 0.38,-0.06 0.49,-0.09 0,-0.04 0,-0.06 0,-0.07 0,-0.11 -0.03,-0.19 -0.08,-0.23 -0.07,-0.06 -0.17,-0.09 -0.31,-0.09 -0.13,0 -0.22,0.02 -0.29,0.07 -0.06,0.05 -0.11,0.12 -0.14,0.24l-0.27 -0.04c0.02,-0.11 0.06,-0.21 0.12,-0.28 0.06,-0.07 0.14,-0.12 0.24,-0.16 0.11,-0.04 0.23,-0.06 0.37,-0.06 0.14,0 0.25,0.02 0.34,0.05 0.09,0.03 0.15,0.07 0.19,0.12 0.04,0.05 0.07,0.11 0.09,0.19 0.01,0.05 0.01,0.13 0.01,0.25l0 0.36c0,0.25 0.01,0.41 0.02,0.48 0.01,0.07 0.03,0.13 0.07,0.19l-0.29 0c-0.03,-0.06 -0.05,-0.12 -0.05,-0.2zm-0.02 -0.61c-0.1,0.04 -0.25,0.07 -0.45,0.1 -0.11,0.02 -0.19,0.03 -0.24,0.05 -0.05,0.02 -0.08,0.05 -0.11,0.09 -0.03,0.04 -0.04,0.08 -0.04,0.13 0,0.07 0.03,0.13 0.08,0.18 0.06,0.05 0.14,0.07 0.24,0.07 0.11,0 0.2,-0.02 0.28,-0.07 0.08,-0.05 0.14,-0.11 0.18,-0.19 0.03,-0.06 0.04,-0.15 0.04,-0.27l0 -0.1z"/>
  <path id="_33" class="fil0" d="M37.19 6.41l-0.2 0c0.3,-0.49 0.45,-0.97 0.45,-1.46 0,-0.19 -0.02,-0.38 -0.07,-0.57 -0.03,-0.15 -0.08,-0.3 -0.14,-0.44 -0.04,-0.09 -0.12,-0.24 -0.24,-0.46l0.2 0c0.19,0.25 0.33,0.51 0.42,0.77 0.08,0.22 0.12,0.45 0.12,0.69 0,0.27 -0.05,0.54 -0.16,0.79 -0.1,0.26 -0.23,0.48 -0.38,0.67z"/>
  <polygon id="_34" class="fil1 str0" points="10.17,0.05 11.61,0.05 11.61,0.31 10.46,0.31 10.46,2.28 10.17,2.28 "/>
  <path id="_35" class="fil1 str0" d="M11.59 2.9l-0.03 -0.25c0.06,0.02 0.11,0.02 0.16,0.02 0.06,0 0.11,-0.01 0.15,-0.03 0.04,-0.02 0.07,-0.05 0.09,-0.09 0.02,-0.03 0.05,-0.1 0.08,-0.2 0.01,-0.01 0.01,-0.04 0.02,-0.07l-0.61 -1.62 0.29 0 0.34 0.93c0.04,0.12 0.08,0.24 0.12,0.37 0.03,-0.12 0.07,-0.24 0.11,-0.36l0.34 -0.94 0.27 0 -0.61 1.64c-0.07,0.18 -0.12,0.3 -0.15,0.37 -0.05,0.09 -0.1,0.16 -0.17,0.2 -0.06,0.04 -0.14,0.06 -0.23,0.06 -0.05,0 -0.11,-0.01 -0.18,-0.03z"/>
  <path id="_36" class="fil1 str0" d="M14.18 1.69l0.27 0.04c-0.03,0.18 -0.1,0.33 -0.23,0.43 -0.12,0.1 -0.27,0.16 -0.45,0.16 -0.22,0 -0.4,-0.07 -0.53,-0.22 -0.13,-0.14 -0.2,-0.35 -0.2,-0.62 0,-0.17 0.03,-0.33 0.09,-0.46 0.06,-0.13 0.15,-0.23 0.26,-0.29 0.12,-0.07 0.25,-0.1 0.38,-0.1 0.17,0 0.32,0.04 0.43,0.13 0.11,0.09 0.18,0.21 0.21,0.38l-0.26 0.04c-0.03,-0.11 -0.07,-0.19 -0.13,-0.24 -0.06,-0.05 -0.14,-0.08 -0.23,-0.08 -0.14,0 -0.25,0.05 -0.34,0.15 -0.09,0.1 -0.13,0.25 -0.13,0.47 0,0.22 0.04,0.37 0.12,0.47 0.08,0.1 0.19,0.15 0.32,0.15 0.11,0 0.2,-0.03 0.27,-0.1 0.07,-0.07 0.12,-0.17 0.14,-0.3z"/>
  <polygon id="_37" class="fil1 str0" points="14.68,0.67 14.95,0.67 14.95,1.9 15.72,0.67 16.01,0.67 16.01,2.28 15.74,2.28 15.74,1.06 14.98,2.28 14.68,2.28 "/>
  <polygon id="_38" class="fil1 str0" points="16.31,1.61 16.31,1.34 17.16,1.34 17.16,1.61 "/>
  <path id="_39" class="fil1 str0" d="M17.59 0.67l1.27 0 0 1.61 -0.27 0 0 -1.39 -0.72 0 0 0.8c0,0.19 -0.01,0.31 -0.02,0.37 -0.01,0.06 -0.05,0.11 -0.1,0.16 -0.05,0.04 -0.13,0.07 -0.24,0.07 -0.06,0 -0.14,-0 -0.22,-0.01l0 -0.23 0.12 0c0.06,0 0.1,-0.01 0.12,-0.02 0.02,-0.01 0.04,-0.03 0.05,-0.06 0.01,-0.03 0.01,-0.11 0.01,-0.25l0 -1.06z"/>
  <path id="_40" class="fil1 str0" d="M20.37 1.76l0.28 0.04c-0.04,0.16 -0.13,0.29 -0.25,0.38 -0.12,0.09 -0.27,0.14 -0.46,0.14 -0.24,0 -0.42,-0.07 -0.56,-0.22 -0.14,-0.14 -0.21,-0.35 -0.21,-0.61 0,-0.27 0.07,-0.48 0.21,-0.63 0.14,-0.15 0.32,-0.22 0.54,-0.22 0.22,0 0.39,0.07 0.53,0.22 0.14,0.15 0.2,0.35 0.2,0.62 0,0.02 -0,0.04 -0,0.07l-1.2 0c0.01,0.18 0.06,0.31 0.15,0.41 0.09,0.09 0.2,0.14 0.34,0.14 0.1,0 0.19,-0.03 0.26,-0.08 0.07,-0.05 0.13,-0.14 0.17,-0.25zm-0.9 -0.44l0.9 0c-0.01,-0.14 -0.05,-0.24 -0.1,-0.31 -0.09,-0.11 -0.2,-0.16 -0.34,-0.16 -0.13,0 -0.23,0.04 -0.32,0.13 -0.09,0.08 -0.13,0.2 -0.14,0.34z"/>
  <path id="_41" class="fil1 str0" d="M22.14 0l0.24 0c-0.01,0.11 -0.04,0.18 -0.07,0.23 -0.04,0.04 -0.08,0.07 -0.14,0.08 -0.06,0.01 -0.17,0.02 -0.34,0.02 -0.22,0 -0.38,0.02 -0.46,0.07 -0.08,0.04 -0.14,0.11 -0.18,0.21 -0.04,0.1 -0.06,0.22 -0.06,0.37 0.07,-0.1 0.15,-0.18 0.24,-0.23 0.09,-0.05 0.2,-0.08 0.31,-0.08 0.21,0 0.39,0.07 0.53,0.22 0.14,0.15 0.21,0.34 0.21,0.59 0,0.19 -0.03,0.34 -0.1,0.46 -0.07,0.12 -0.15,0.21 -0.25,0.28 -0.1,0.07 -0.23,0.1 -0.39,0.1 -0.19,0 -0.34,-0.04 -0.45,-0.13 -0.11,-0.09 -0.19,-0.2 -0.24,-0.34 -0.06,-0.14 -0.09,-0.37 -0.09,-0.71 0,-0.43 0.07,-0.71 0.22,-0.86 0.14,-0.15 0.37,-0.22 0.66,-0.22 0.19,0 0.29,-0 0.32,-0.01 0.02,-0.01 0.04,-0.02 0.05,-0.04zm-0.01 1.47c0,-0.17 -0.04,-0.3 -0.12,-0.41 -0.08,-0.11 -0.19,-0.16 -0.34,-0.16 -0.15,0 -0.27,0.06 -0.35,0.17 -0.08,0.11 -0.12,0.26 -0.12,0.45 0,0.19 0.05,0.33 0.14,0.43 0.09,0.1 0.2,0.15 0.33,0.15 0.14,0 0.25,-0.06 0.33,-0.17 0.08,-0.11 0.13,-0.27 0.13,-0.46z"/>
  <path id="_42" class="fil1 str0" d="M23.81 1.76l0.28 0.04c-0.04,0.16 -0.13,0.29 -0.25,0.38 -0.12,0.09 -0.27,0.14 -0.46,0.14 -0.24,0 -0.42,-0.07 -0.56,-0.22 -0.14,-0.14 -0.21,-0.35 -0.21,-0.61 0,-0.27 0.07,-0.48 0.21,-0.63 0.14,-0.15 0.32,-0.22 0.54,-0.22 0.22,0 0.39,0.07 0.53,0.22 0.14,0.15 0.2,0.35 0.2,0.62 0,0.02 -0,0.04 -0,0.07l-1.2 0c0.01,0.18 0.06,0.31 0.15,0.41 0.09,0.09 0.2,0.14 0.34,0.14 0.1,0 0.19,-0.03 0.26,-0.08 0.07,-0.05 0.13,-0.14 0.17,-0.25zm-0.9 -0.44l0.9 0c-0.01,-0.14 -0.05,-0.24 -0.1,-0.31 -0.09,-0.11 -0.2,-0.16 -0.34,-0.16 -0.13,0 -0.23,0.04 -0.32,0.13 -0.09,0.08 -0.13,0.2 -0.14,0.34z"/>
  <path id="_43" class="fil1 str0" d="M24.59 0.67l1.13 0 0 1.39 0.17 0 0 0.68 -0.22 0 0 -0.46 -1.27 0 0 0.46 -0.22 0 0 -0.68 0.14 0c0.19,-0.26 0.29,-0.73 0.28,-1.39zm0.23 0.23c-0.02,0.52 -0.1,0.91 -0.24,1.16l0.87 0 0 -1.16 -0.63 0z"/>
  <polygon id="_44" class="fil1 str0" points="26.19,0.67 26.46,0.67 26.46,1.9 27.22,0.67 27.52,0.67 27.52,2.28 27.24,2.28 27.24,1.06 26.48,2.28 26.19,2.28 "/>
  <path id="_45" class="fil1 str0" d="M0.54 6.41c-0.15,-0.19 -0.28,-0.41 -0.38,-0.67 -0.1,-0.26 -0.16,-0.52 -0.16,-0.79 0,-0.24 0.04,-0.47 0.12,-0.69 0.09,-0.26 0.23,-0.51 0.42,-0.77l0.2 0c-0.12,0.21 -0.2,0.36 -0.24,0.45 -0.06,0.14 -0.11,0.29 -0.15,0.44 -0.04,0.19 -0.07,0.38 -0.07,0.57 0,0.49 0.15,0.97 0.45,1.46l-0.2 0z"/>
  <path id="_46" class="fil1 str0" d="M1.05 6.37l0 -2.23 0.25 0 0 0.21c0.06,-0.08 0.12,-0.14 0.2,-0.18 0.07,-0.04 0.16,-0.06 0.27,-0.06 0.14,0 0.26,0.04 0.36,0.11 0.11,0.07 0.18,0.17 0.24,0.3 0.05,0.13 0.08,0.27 0.08,0.42 0,0.16 -0.03,0.31 -0.09,0.44 -0.06,0.13 -0.15,0.23 -0.26,0.3 -0.11,0.07 -0.23,0.11 -0.36,0.11 -0.09,0 -0.17,-0.02 -0.25,-0.06 -0.07,-0.04 -0.13,-0.09 -0.18,-0.15l0 0.79 -0.27 0zm0.25 -1.42c0,0.21 0.04,0.36 0.13,0.46 0.08,0.1 0.19,0.15 0.3,0.15 0.12,0 0.22,-0.05 0.31,-0.15 0.09,-0.1 0.13,-0.26 0.13,-0.48 0,-0.21 -0.04,-0.36 -0.13,-0.46 -0.08,-0.1 -0.19,-0.15 -0.3,-0.15 -0.12,0 -0.22,0.05 -0.31,0.16 -0.09,0.11 -0.13,0.27 -0.13,0.47z"/>
  <path id="_47" class="fil1 str0" d="M2.73 6.38l-0.03 -0.25c0.06,0.02 0.11,0.02 0.16,0.02 0.06,0 0.11,-0.01 0.15,-0.03 0.04,-0.02 0.07,-0.05 0.09,-0.09 0.02,-0.03 0.05,-0.1 0.08,-0.2 0.01,-0.01 0.01,-0.04 0.02,-0.07l-0.61 -1.62 0.29 0 0.34 0.93c0.04,0.12 0.08,0.24 0.12,0.37 0.03,-0.12 0.07,-0.24 0.11,-0.36l0.34 -0.94 0.27 0 -0.61 1.64c-0.07,0.18 -0.12,0.3 -0.15,0.37 -0.05,0.09 -0.1,0.16 -0.17,0.2 -0.06,0.04 -0.14,0.06 -0.23,0.06 -0.05,0 -0.11,-0.01 -0.18,-0.03z"/>
  <path id="_48" class="fil1 str0" d="M5.32 5.16l0.27 0.04c-0.03,0.18 -0.1,0.33 -0.23,0.43 -0.12,0.1 -0.27,0.16 -0.45,0.16 -0.22,0 -0.4,-0.07 -0.53,-0.22 -0.13,-0.14 -0.2,-0.35 -0.2,-0.62 0,-0.17 0.03,-0.33 0.09,-0.46 0.06,-0.13 0.15,-0.23 0.26,-0.29 0.12,-0.07 0.25,-0.1 0.38,-0.1 0.17,0 0.32,0.04 0.43,0.13 0.11,0.09 0.18,0.21 0.21,0.38l-0.26 0.04c-0.03,-0.11 -0.07,-0.19 -0.13,-0.24 -0.06,-0.05 -0.14,-0.08 -0.23,-0.08 -0.14,0 -0.25,0.05 -0.34,0.15 -0.09,0.1 -0.13,0.25 -0.13,0.47 0,0.22 0.04,0.37 0.12,0.47 0.08,0.1 0.19,0.15 0.32,0.15 0.11,0 0.2,-0.03 0.27,-0.1 0.07,-0.07 0.12,-0.17 0.14,-0.3z"/>
  <path id="_49" class="fil1 str0" d="M6.88 5.16l0.27 0.04c-0.03,0.18 -0.1,0.33 -0.23,0.43 -0.12,0.1 -0.27,0.16 -0.45,0.16 -0.22,0 -0.4,-0.07 -0.53,-0.22 -0.13,-0.14 -0.2,-0.35 -0.2,-0.62 0,-0.17 0.03,-0.33 0.09,-0.46 0.06,-0.13 0.15,-0.23 0.26,-0.29 0.12,-0.07 0.25,-0.1 0.38,-0.1 0.17,0 0.32,0.04 0.43,0.13 0.11,0.09 0.18,0.21 0.21,0.38l-0.26 0.04c-0.03,-0.11 -0.07,-0.19 -0.13,-0.24 -0.06,-0.05 -0.14,-0.08 -0.23,-0.08 -0.14,0 -0.25,0.05 -0.34,0.15 -0.09,0.1 -0.13,0.25 -0.13,0.47 0,0.22 0.04,0.37 0.12,0.47 0.08,0.1 0.19,0.15 0.32,0.15 0.11,0 0.2,-0.03 0.27,-0.1 0.07,-0.07 0.12,-0.17 0.14,-0.3z"/>
  <path id="_50" class="fil1 str0" d="M7.38 4.14l0.27 0 0 0.7c0.09,0 0.15,-0.02 0.18,-0.05 0.03,-0.03 0.09,-0.13 0.15,-0.29 0.05,-0.13 0.1,-0.21 0.13,-0.25 0.03,-0.04 0.07,-0.07 0.12,-0.08 0.04,-0.01 0.11,-0.02 0.21,-0.02l0.05 0 0 0.23 -0.08 -0c-0.07,0 -0.12,0.01 -0.14,0.03 -0.02,0.02 -0.05,0.09 -0.1,0.2 -0.04,0.11 -0.08,0.18 -0.11,0.22 -0.03,0.04 -0.09,0.08 -0.16,0.11 0.12,0.03 0.23,0.14 0.35,0.33l0.3 0.5 -0.3 0 -0.3 -0.5c-0.06,-0.1 -0.11,-0.17 -0.16,-0.2 -0.04,-0.03 -0.1,-0.05 -0.16,-0.05l0 0.75 -0.27 0 0 -1.61z"/>
  <path id="_51" class="fil1 str0" d="M9.86 5.55c-0.1,0.09 -0.2,0.15 -0.29,0.18 -0.09,0.04 -0.19,0.05 -0.3,0.05 -0.18,0 -0.31,-0.04 -0.41,-0.13 -0.1,-0.09 -0.14,-0.2 -0.14,-0.33 0,-0.08 0.02,-0.15 0.05,-0.22 0.04,-0.07 0.08,-0.12 0.14,-0.16 0.06,-0.04 0.12,-0.07 0.2,-0.09 0.05,-0.01 0.14,-0.03 0.24,-0.04 0.22,-0.03 0.38,-0.06 0.49,-0.09 0,-0.04 0,-0.06 0,-0.07 0,-0.11 -0.03,-0.19 -0.08,-0.23 -0.07,-0.06 -0.17,-0.09 -0.31,-0.09 -0.13,0 -0.22,0.02 -0.29,0.07 -0.06,0.05 -0.11,0.12 -0.14,0.24l-0.27 -0.04c0.02,-0.11 0.06,-0.21 0.12,-0.28 0.06,-0.07 0.14,-0.12 0.24,-0.16 0.11,-0.04 0.23,-0.06 0.37,-0.06 0.14,0 0.25,0.02 0.34,0.05 0.09,0.03 0.15,0.07 0.19,0.12 0.04,0.05 0.07,0.11 0.09,0.19 0.01,0.05 0.01,0.13 0.01,0.25l0 0.36c0,0.25 0.01,0.41 0.02,0.48 0.01,0.07 0.03,0.13 0.07,0.19l-0.29 0c-0.03,-0.06 -0.05,-0.12 -0.05,-0.2zm-0.02 -0.61c-0.1,0.04 -0.25,0.07 -0.45,0.1 -0.11,0.02 -0.19,0.03 -0.24,0.05 -0.05,0.02 -0.08,0.05 -0.11,0.09 -0.03,0.04 -0.04,0.08 -0.04,0.13 0,0.07 0.03,0.13 0.08,0.18 0.06,0.05 0.14,0.07 0.24,0.07 0.11,0 0.2,-0.02 0.28,-0.07 0.08,-0.05 0.14,-0.11 0.18,-0.19 0.03,-0.06 0.04,-0.15 0.04,-0.27l0 -0.1z"/>
  <path id="_52" class="fil1 str0" d="M11.81 4.14l0 1.61 -0.27 0 0 -0.63 -0.16 0c-0.1,0 -0.17,0.01 -0.21,0.04 -0.05,0.03 -0.12,0.1 -0.21,0.24l-0.24 0.35 -0.34 0 0.3 -0.43c0.09,-0.13 0.18,-0.21 0.27,-0.22 -0.16,-0.02 -0.27,-0.08 -0.35,-0.17 -0.08,-0.09 -0.11,-0.2 -0.11,-0.32 0,-0.14 0.05,-0.25 0.15,-0.34 0.1,-0.09 0.24,-0.13 0.43,-0.13l0.75 0zm-0.27 0.23l-0.39 0c-0.16,0 -0.27,0.03 -0.32,0.08 -0.05,0.05 -0.07,0.11 -0.07,0.18 0,0.1 0.03,0.17 0.1,0.21 0.07,0.05 0.19,0.07 0.37,0.07l0.3 0 0 -0.53z"/>
  <polygon id="_53" class="fil1 str0" points="13.09,4.14 13.36,4.14 13.36,4.81 14.12,4.81 14.12,4.14 14.39,4.14 14.39,5.76 14.12,5.76 14.12,5.04 13.36,5.04 13.36,5.76 13.09,5.76 "/>
  <path id="_54" class="fil1 str0" d="M15.86 5.55c-0.1,0.09 -0.2,0.15 -0.29,0.18 -0.09,0.04 -0.19,0.05 -0.3,0.05 -0.18,0 -0.31,-0.04 -0.41,-0.13 -0.1,-0.09 -0.14,-0.2 -0.14,-0.33 0,-0.08 0.02,-0.15 0.05,-0.22 0.04,-0.07 0.08,-0.12 0.14,-0.16 0.06,-0.04 0.12,-0.07 0.2,-0.09 0.05,-0.01 0.14,-0.03 0.24,-0.04 0.22,-0.03 0.38,-0.06 0.49,-0.09 0,-0.04 0,-0.06 0,-0.07 0,-0.11 -0.03,-0.19 -0.08,-0.23 -0.07,-0.06 -0.17,-0.09 -0.31,-0.09 -0.13,0 -0.22,0.02 -0.29,0.07 -0.06,0.05 -0.11,0.12 -0.14,0.24l-0.27 -0.04c0.02,-0.11 0.06,-0.21 0.12,-0.28 0.06,-0.07 0.14,-0.12 0.24,-0.16 0.11,-0.04 0.23,-0.06 0.37,-0.06 0.14,0 0.25,0.02 0.34,0.05 0.09,0.03 0.15,0.07 0.19,0.12 0.04,0.05 0.07,0.11 0.09,0.19 0.01,0.05 0.01,0.13 0.01,0.25l0 0.36c0,0.25 0.01,0.41 0.02,0.48 0.01,0.07 0.03,0.13 0.07,0.19l-0.29 0c-0.03,-0.06 -0.05,-0.12 -0.05,-0.2zm-0.02 -0.61c-0.1,0.04 -0.25,0.07 -0.45,0.1 -0.11,0.02 -0.19,0.03 -0.24,0.05 -0.05,0.02 -0.08,0.05 -0.11,0.09 -0.03,0.04 -0.04,0.08 -0.04,0.13 0,0.07 0.03,0.13 0.08,0.18 0.06,0.05 0.14,0.07 0.24,0.07 0.11,0 0.2,-0.02 0.28,-0.07 0.08,-0.05 0.14,-0.11 0.18,-0.19 0.03,-0.06 0.04,-0.15 0.04,-0.27l0 -0.1z"/>
  <path id="_55" class="fil1 str0" d="M16.53 6.37l0 -2.23 0.25 0 0 0.21c0.06,-0.08 0.12,-0.14 0.2,-0.18 0.07,-0.04 0.16,-0.06 0.27,-0.06 0.14,0 0.26,0.04 0.36,0.11 0.11,0.07 0.18,0.17 0.24,0.3 0.05,0.13 0.08,0.27 0.08,0.42 0,0.16 -0.03,0.31 -0.09,0.44 -0.06,0.13 -0.15,0.23 -0.26,0.3 -0.11,0.07 -0.23,0.11 -0.36,0.11 -0.09,0 -0.17,-0.02 -0.25,-0.06 -0.07,-0.04 -0.13,-0.09 -0.18,-0.15l0 0.79 -0.27 0zm0.25 -1.42c0,0.21 0.04,0.36 0.13,0.46 0.08,0.1 0.19,0.15 0.3,0.15 0.12,0 0.22,-0.05 0.31,-0.15 0.09,-0.1 0.13,-0.26 0.13,-0.48 0,-0.21 -0.04,-0.36 -0.13,-0.46 -0.08,-0.1 -0.19,-0.15 -0.3,-0.15 -0.12,0 -0.22,0.05 -0.31,0.16 -0.09,0.11 -0.13,0.27 -0.13,0.47z"/>
  <path id="_56" class="fil1 str0" d="M18.16 4.95c0,-0.3 0.08,-0.52 0.25,-0.66 0.14,-0.12 0.31,-0.18 0.51,-0.18 0.22,0 0.4,0.07 0.54,0.22 0.14,0.14 0.21,0.35 0.21,0.6 0,0.21 -0.03,0.37 -0.09,0.49 -0.06,0.12 -0.15,0.21 -0.27,0.28 -0.12,0.07 -0.25,0.1 -0.39,0.1 -0.23,0 -0.41,-0.07 -0.55,-0.22 -0.14,-0.14 -0.21,-0.35 -0.21,-0.62zm0.28 0c0,0.21 0.05,0.36 0.14,0.46 0.09,0.1 0.2,0.15 0.34,0.15 0.14,0 0.25,-0.05 0.34,-0.15 0.09,-0.1 0.14,-0.26 0.14,-0.47 0,-0.2 -0.05,-0.35 -0.14,-0.45 -0.09,-0.1 -0.2,-0.15 -0.34,-0.15 -0.14,0 -0.25,0.05 -0.34,0.15 -0.09,0.1 -0.14,0.26 -0.14,0.46z"/>
  <path id="_57" class="fil1 str0" d="M20.14 4.14l1.13 0 0 1.39 0.17 0 0 0.68 -0.22 0 0 -0.46 -1.27 0 0 0.46 -0.22 0 0 -0.68 0.14 0c0.19,-0.26 0.29,-0.73 0.28,-1.39zm0.23 0.23c-0.02,0.52 -0.1,0.91 -0.24,1.16l0.87 0 0 -1.16 -0.63 0z"/>
  <polygon id="_58" class="fil1 str0" points="21.74,4.14 22.02,4.14 22.02,4.81 22.77,4.81 22.77,4.14 23.05,4.14 23.05,5.76 22.77,5.76 22.77,5.04 22.02,5.04 22.02,5.76 21.74,5.76 "/>
  <path id="_59" class="fil1 str0" d="M24.51 5.55c-0.1,0.09 -0.2,0.15 -0.29,0.18 -0.09,0.04 -0.19,0.05 -0.3,0.05 -0.18,0 -0.31,-0.04 -0.41,-0.13 -0.1,-0.09 -0.14,-0.2 -0.14,-0.33 0,-0.08 0.02,-0.15 0.05,-0.22 0.04,-0.07 0.08,-0.12 0.14,-0.16 0.06,-0.04 0.12,-0.07 0.2,-0.09 0.05,-0.01 0.14,-0.03 0.24,-0.04 0.22,-0.03 0.38,-0.06 0.49,-0.09 0,-0.04 0,-0.06 0,-0.07 0,-0.11 -0.03,-0.19 -0.08,-0.23 -0.07,-0.06 -0.17,-0.09 -0.31,-0.09 -0.13,0 -0.22,0.02 -0.29,0.07 -0.06,0.05 -0.11,0.12 -0.14,0.24l-0.27 -0.04c0.02,-0.11 0.06,-0.21 0.12,-0.28 0.06,-0.07 0.14,-0.12 0.24,-0.16 0.11,-0.04 0.23,-0.06 0.37,-0.06 0.14,0 0.25,0.02 0.34,0.05 0.09,0.03 0.15,0.07 0.19,0.12 0.04,0.05 0.07,0.11 0.09,0.19 0.01,0.05 0.01,0.13 0.01,0.25l0 0.36c0,0.25 0.01,0.41 0.02,0.48 0.01,0.07 0.03,0.13 0.07,0.19l-0.29 0c-0.03,-0.06 -0.05,-0.12 -0.05,-0.2zm-0.02 -0.61c-0.1,0.04 -0.25,0.07 -0.45,0.1 -0.11,0.02 -0.19,0.03 -0.24,0.05 -0.05,0.02 -0.08,0.05 -0.11,0.09 -0.03,0.04 -0.04,0.08 -0.04,0.13 0,0.07 0.03,0.13 0.08,0.18 0.06,0.05 0.14,0.07 0.24,0.07 0.11,0 0.2,-0.02 0.28,-0.07 0.08,-0.05 0.14,-0.11 0.18,-0.19 0.03,-0.06 0.04,-0.15 0.04,-0.27l0 -0.1z"/>
  <path id="_60" class="fil1 str0" d="M26.46 4.14l0 1.61 -0.27 0 0 -0.63 -0.16 0c-0.1,0 -0.17,0.01 -0.21,0.04 -0.05,0.03 -0.12,0.1 -0.21,0.24l-0.24 0.35 -0.34 0 0.3 -0.43c0.09,-0.13 0.18,-0.21 0.27,-0.22 -0.16,-0.02 -0.27,-0.08 -0.35,-0.17 -0.08,-0.09 -0.11,-0.2 -0.11,-0.32 0,-0.14 0.05,-0.25 0.15,-0.34 0.1,-0.09 0.24,-0.13 0.43,-0.13l0.75 0zm-0.27 0.23l-0.39 0c-0.16,0 -0.27,0.03 -0.32,0.08 -0.05,0.05 -0.07,0.11 -0.07,0.18 0,0.1 0.03,0.17 0.1,0.21 0.07,0.05 0.19,0.07 0.37,0.07l0.3 0 0 -0.53z"/>
  <path id="_61" class="fil1 str0" d="M28.79 5.16l0.27 0.04c-0.03,0.18 -0.1,0.33 -0.23,0.43 -0.12,0.1 -0.27,0.16 -0.45,0.16 -0.22,0 -0.4,-0.07 -0.53,-0.22 -0.13,-0.14 -0.2,-0.35 -0.2,-0.62 0,-0.17 0.03,-0.33 0.09,-0.46 0.06,-0.13 0.15,-0.23 0.26,-0.29 0.12,-0.07 0.25,-0.1 0.38,-0.1 0.17,0 0.32,0.04 0.43,0.13 0.11,0.09 0.18,0.21 0.21,0.38l-0.26 0.04c-0.03,-0.11 -0.07,-0.19 -0.13,-0.24 -0.06,-0.05 -0.14,-0.08 -0.23,-0.08 -0.14,0 -0.25,0.05 -0.34,0.15 -0.09,0.1 -0.13,0.25 -0.13,0.47 0,0.22 0.04,0.37 0.12,0.47 0.08,0.1 0.19,0.15 0.32,0.15 0.11,0 0.2,-0.03 0.27,-0.1 0.07,-0.07 0.12,-0.17 0.14,-0.3z"/>
  <path id="_62" class="fil1 str0" d="M29.29 4.14l0.27 0 0 0.7c0.09,0 0.15,-0.02 0.18,-0.05 0.03,-0.03 0.09,-0.13 0.15,-0.29 0.05,-0.13 0.1,-0.21 0.13,-0.25 0.03,-0.04 0.07,-0.07 0.12,-0.08 0.04,-0.01 0.11,-0.02 0.21,-0.02l0.05 0 0 0.23 -0.08 -0c-0.07,0 -0.12,0.01 -0.14,0.03 -0.02,0.02 -0.05,0.09 -0.1,0.2 -0.04,0.11 -0.08,0.18 -0.11,0.22 -0.03,0.04 -0.09,0.08 -0.16,0.11 0.12,0.03 0.23,0.14 0.35,0.33l0.3 0.5 -0.3 0 -0.3 -0.5c-0.06,-0.1 -0.11,-0.17 -0.16,-0.2 -0.04,-0.03 -0.1,-0.05 -0.16,-0.05l0 0.75 -0.27 0 0 -1.61z"/>
  <path id="_63" class="fil1 str0" d="M31.78 5.55c-0.1,0.09 -0.2,0.15 -0.29,0.18 -0.09,0.04 -0.19,0.05 -0.3,0.05 -0.18,0 -0.31,-0.04 -0.41,-0.13 -0.1,-0.09 -0.14,-0.2 -0.14,-0.33 0,-0.08 0.02,-0.15 0.05,-0.22 0.04,-0.07 0.08,-0.12 0.14,-0.16 0.06,-0.04 0.12,-0.07 0.2,-0.09 0.05,-0.01 0.14,-0.03 0.24,-0.04 0.22,-0.03 0.38,-0.06 0.49,-0.09 0,-0.04 0,-0.06 0,-0.07 0,-0.11 -0.03,-0.19 -0.08,-0.23 -0.07,-0.06 -0.17,-0.09 -0.31,-0.09 -0.13,0 -0.22,0.02 -0.29,0.07 -0.06,0.05 -0.11,0.12 -0.14,0.24l-0.27 -0.04c0.02,-0.11 0.06,-0.21 0.12,-0.28 0.06,-0.07 0.14,-0.12 0.24,-0.16 0.11,-0.04 0.23,-0.06 0.37,-0.06 0.14,0 0.25,0.02 0.34,0.05 0.09,0.03 0.15,0.07 0.19,0.12 0.04,0.05 0.07,0.11 0.09,0.19 0.01,0.05 0.01,0.13 0.01,0.25l0 0.36c0,0.25 0.01,0.41 0.02,0.48 0.01,0.07 0.03,0.13 0.07,0.19l-0.29 0c-0.03,-0.06 -0.05,-0.12 -0.05,-0.2zm-0.02 -0.61c-0.1,0.04 -0.25,0.07 -0.45,0.1 -0.11,0.02 -0.19,0.03 -0.24,0.05 -0.05,0.02 -0.08,0.05 -0.11,0.09 -0.03,0.04 -0.04,0.08 -0.04,0.13 0,0.07 0.03,0.13 0.08,0.18 0.06,0.05 0.14,0.07 0.24,0.07 0.11,0 0.2,-0.02 0.28,-0.07 0.08,-0.05 0.14,-0.11 0.18,-0.19 0.03,-0.06 0.04,-0.15 0.04,-0.27l0 -0.1z"/>
  <path id="_64" class="fil1 str0" d="M32.78 5.02l0 -0.21c0.12,-0 0.19,-0.01 0.24,-0.01 0.04,-0.01 0.08,-0.03 0.12,-0.07 0.04,-0.04 0.06,-0.09 0.06,-0.15 0,-0.07 -0.02,-0.13 -0.07,-0.18 -0.05,-0.04 -0.11,-0.07 -0.19,-0.07 -0.15,0 -0.26,0.09 -0.32,0.27l-0.26 -0.04c0.08,-0.3 0.28,-0.45 0.59,-0.45 0.17,0 0.31,0.05 0.4,0.14 0.1,0.09 0.15,0.21 0.15,0.34 0,0.13 -0.06,0.24 -0.19,0.31 0.08,0.04 0.14,0.1 0.18,0.17 0.04,0.07 0.06,0.15 0.06,0.24 0,0.14 -0.05,0.26 -0.16,0.35 -0.11,0.09 -0.25,0.14 -0.44,0.14 -0.37,0 -0.58,-0.16 -0.64,-0.49l0.26 -0.06c0.02,0.1 0.07,0.18 0.14,0.24 0.07,0.06 0.15,0.08 0.25,0.08 0.09,0 0.17,-0.03 0.23,-0.08 0.06,-0.05 0.09,-0.12 0.09,-0.2 0,-0.06 -0.02,-0.12 -0.06,-0.16 -0.04,-0.05 -0.08,-0.08 -0.12,-0.09 -0.04,-0.01 -0.12,-0.02 -0.24,-0.02 -0.01,0 -0.03,0 -0.06,0z"/>
  <path id="_65" class="fil1 str0" d="M33.84 4.14l0.27 0 0 0.7c0.09,0 0.15,-0.02 0.18,-0.05 0.03,-0.03 0.09,-0.13 0.15,-0.29 0.05,-0.13 0.1,-0.21 0.13,-0.25 0.03,-0.04 0.07,-0.07 0.12,-0.08 0.04,-0.01 0.11,-0.02 0.21,-0.02l0.05 0 0 0.23 -0.08 -0c-0.07,0 -0.12,0.01 -0.14,0.03 -0.02,0.02 -0.05,0.09 -0.1,0.2 -0.04,0.11 -0.08,0.18 -0.11,0.22 -0.03,0.04 -0.09,0.08 -0.16,0.11 0.12,0.03 0.23,0.14 0.35,0.33l0.3 0.5 -0.3 0 -0.3 -0.5c-0.06,-0.1 -0.11,-0.17 -0.16,-0.2 -0.04,-0.03 -0.1,-0.05 -0.16,-0.05l0 0.75 -0.27 0 0 -1.61z"/>
  <path id="_66" class="fil1 str0" d="M36.33 5.55c-0.1,0.09 -0.2,0.15 -0.29,0.18 -0.09,0.04 -0.19,0.05 -0.3,0.05 -0.18,0 -0.31,-0.04 -0.41,-0.13 -0.1,-0.09 -0.14,-0.2 -0.14,-0.33 0,-0.08 0.02,-0.15 0.05,-0.22 0.04,-0.07 0.08,-0.12 0.14,-0.16 0.06,-0.04 0.12,-0.07 0.2,-0.09 0.05,-0.01 0.14,-0.03 0.24,-0.04 0.22,-0.03 0.38,-0.06 0.49,-0.09 0,-0.04 0,-0.06 0,-0.07 0,-0.11 -0.03,-0.19 -0.08,-0.23 -0.07,-0.06 -0.17,-0.09 -0.31,-0.09 -0.13,0 -0.22,0.02 -0.29,0.07 -0.06,0.05 -0.11,0.12 -0.14,0.24l-0.27 -0.04c0.02,-0.11 0.06,-0.21 0.12,-0.28 0.06,-0.07 0.14,-0.12 0.24,-0.16 0.11,-0.04 0.23,-0.06 0.37,-0.06 0.14,0 0.25,0.02 0.34,0.05 0.09,0.03 0.15,0.07 0.19,0.12 0.04,0.05 0.07,0.11 0.09,0.19 0.01,0.05 0.01,0.13 0.01,0.25l0 0.36c0,0.25 0.01,0.41 0.02,0.48 0.01,0.07 0.03,0.13 0.07,0.19l-0.29 0c-0.03,-0.06 -0.05,-0.12 -0.05,-0.2zm-0.02 -0.61c-0.1,0.04 -0.25,0.07 -0.45,0.1 -0.11,0.02 -0.19,0.03 -0.24,0.05 -0.05,0.02 -0.08,0.05 -0.11,0.09 -0.03,0.04 -0.04,0.08 -0.04,0.13 0,0.07 0.03,0.13 0.08,0.18 0.06,0.05 0.14,0.07 0.24,0.07 0.11,0 0.2,-0.02 0.28,-0.07 0.08,-0.05 0.14,-0.11 0.18,-0.19 0.03,-0.06 0.04,-0.15 0.04,-0.27l0 -0.1z"/>
  <path id="_67" class="fil1 str0" d="M37.19 6.41l-0.2 0c0.3,-0.49 0.45,-0.97 0.45,-1.46 0,-0.19 -0.02,-0.38 -0.07,-0.57 -0.03,-0.15 -0.08,-0.3 -0.14,-0.44 -0.04,-0.09 -0.12,-0.24 -0.24,-0.46l0.2 0c0.19,0.25 0.33,0.51 0.42,0.77 0.08,0.22 0.12,0.45 0.12,0.69 0,0.27 -0.05,0.54 -0.16,0.79 -0.1,0.26 -0.23,0.48 -0.38,0.67z"/>
 </g>
</svg>
