<?xml version="1.0" encoding="UTF-8"?>
<!DOCTYPE svg PUBLIC "-//W3C//DTD SVG 1.1//EN" "http://www.w3.org/Graphics/SVG/1.1/DTD/svg11.dtd">
<!-- Creator: CorelDRAW -->
<svg xmlns="http://www.w3.org/2000/svg" xml:space="preserve" width="21.7137mm" height="2.368mm" version="1.1" style="shape-rendering:geometricPrecision; text-rendering:geometricPrecision; image-rendering:optimizeQuality; fill-rule:evenodd; clip-rule:evenodd"
viewBox="0 0 20.13 2.2"
 xmlns:xlink="http://www.w3.org/1999/xlink"
 xmlns:xodm="http://www.corel.com/coreldraw/odm/2003">
 <defs>
  <style type="text/css">
   <![CDATA[
    .str0 {stroke:#FF6600;stroke-width:0;stroke-miterlimit:22.9256}
    .fil1 {fill:none;fill-rule:nonzero}
    .fil0 {fill:#FF6600;fill-rule:nonzero}
   ]]>
  </style>
 </defs>
 <g id="Слой_x0020_1">
  <metadata id="CorelCorpID_0Corel-Layer"/>
  <path class="fil0" d="M0.34 0l1.03 0 0 1.5 0.15 0 0 0.6 -0.2 0 0 -0.4 -1.12 0 0 0.4 -0.2 0 0 -0.6 0.13 0c0.14,-0.21 0.21,-0.62 0.21,-1.25l0 -0.25zm0.81 0.2l-0.59 0 0 0.09c0,0.14 -0.01,0.34 -0.04,0.59 -0.03,0.25 -0.08,0.46 -0.15,0.62l0.78 0 0 -1.3z"/>
  <path id="_1" class="fil0" d="M2.6 1.3l0.22 0.03c-0.03,0.13 -0.1,0.22 -0.19,0.29 -0.09,0.07 -0.21,0.1 -0.35,0.1 -0.18,0 -0.32,-0.06 -0.43,-0.17 -0.11,-0.11 -0.16,-0.27 -0.16,-0.46 0,-0.21 0.05,-0.37 0.16,-0.48 0.11,-0.11 0.24,-0.17 0.41,-0.17 0.16,0 0.3,0.06 0.4,0.17 0.1,0.11 0.16,0.27 0.16,0.47 0,0.01 -0,0.03 -0,0.06l-0.92 0c0.01,0.13 0.05,0.24 0.11,0.31 0.07,0.07 0.15,0.11 0.26,0.11 0.08,0 0.14,-0.02 0.2,-0.06 0.05,-0.04 0.1,-0.1 0.13,-0.19zm-0.68 -0.33l0.69 0c-0.01,-0.1 -0.04,-0.18 -0.08,-0.23 -0.07,-0.08 -0.15,-0.12 -0.26,-0.12 -0.1,0 -0.18,0.03 -0.24,0.1 -0.06,0.06 -0.1,0.15 -0.11,0.26z"/>
  <path id="_2" class="fil0" d="M3.08 0.47l0.48 0c0.12,0 0.21,0.01 0.26,0.03 0.06,0.02 0.11,0.06 0.15,0.11 0.04,0.05 0.06,0.12 0.06,0.19 0,0.06 -0.01,0.11 -0.04,0.15 -0.02,0.04 -0.06,0.08 -0.11,0.11 0.06,0.02 0.11,0.06 0.14,0.11 0.04,0.05 0.06,0.12 0.06,0.19 -0.01,0.12 -0.05,0.2 -0.12,0.26 -0.08,0.06 -0.19,0.08 -0.33,0.08l-0.55 0 0 -1.23zm0.21 0.52l0.22 0c0.09,0 0.15,-0 0.18,-0.01 0.03,-0.01 0.06,-0.03 0.09,-0.06 0.03,-0.03 0.04,-0.06 0.04,-0.1 0,-0.07 -0.02,-0.11 -0.07,-0.14 -0.05,-0.03 -0.12,-0.04 -0.23,-0.04l-0.23 0 0 0.35zm0 0.54l0.27 0c0.12,0 0.2,-0.01 0.24,-0.04 0.04,-0.03 0.07,-0.07 0.07,-0.14 0,-0.04 -0.01,-0.08 -0.04,-0.11 -0.03,-0.03 -0.06,-0.05 -0.1,-0.06 -0.04,-0.01 -0.11,-0.01 -0.2,-0.01l-0.25 0 0 0.37z"/>
  <path id="_3" class="fil0" d="M4.28 2.17l-0.02 -0.19c0.05,0.01 0.09,0.02 0.12,0.02 0.05,0 0.08,-0.01 0.11,-0.02 0.03,-0.02 0.05,-0.04 0.07,-0.06 0.01,-0.02 0.03,-0.07 0.06,-0.16 0,-0.01 0.01,-0.03 0.02,-0.05l-0.47 -1.23 0.22 0 0.26 0.71c0.03,0.09 0.06,0.18 0.09,0.28 0.02,-0.09 0.05,-0.19 0.09,-0.28l0.26 -0.72 0.21 0 -0.47 1.25c-0.05,0.13 -0.09,0.23 -0.12,0.28 -0.04,0.07 -0.08,0.12 -0.13,0.15 -0.05,0.03 -0.11,0.05 -0.17,0.05 -0.04,0 -0.09,-0.01 -0.13,-0.02z"/>
  <polygon id="_4" class="fil0" points="5.48,0.47 5.69,0.47 5.69,1.52 6.16,1.52 6.16,0.47 6.37,0.47 6.37,1.52 6.85,1.52 6.85,0.47 7.05,0.47 7.05,1.7 5.48,1.7 "/>
  <path id="_5" class="fil0" d="M7.37 0.47l0.21 0 0 0.53c0.07,0 0.11,-0.01 0.14,-0.04 0.03,-0.03 0.07,-0.1 0.12,-0.22 0.04,-0.1 0.07,-0.16 0.1,-0.19 0.03,-0.03 0.05,-0.05 0.09,-0.06 0.03,-0.01 0.09,-0.02 0.16,-0.02l0.04 0 0 0.17 -0.06 -0c-0.05,0 -0.09,0.01 -0.11,0.02 -0.02,0.02 -0.04,0.07 -0.07,0.15 -0.03,0.08 -0.06,0.14 -0.09,0.17 -0.03,0.03 -0.07,0.06 -0.12,0.08 0.09,0.02 0.18,0.11 0.27,0.25l0.23 0.38 -0.23 0 -0.23 -0.38c-0.05,-0.08 -0.09,-0.13 -0.12,-0.15 -0.03,-0.02 -0.07,-0.04 -0.12,-0.04l0 0.57 -0.21 0 0 -1.23z"/>
  <path id="_6" class="fil0" d="M9.27 1.54c-0.08,0.07 -0.15,0.11 -0.22,0.14 -0.07,0.03 -0.15,0.04 -0.23,0.04 -0.14,0 -0.24,-0.03 -0.31,-0.1 -0.07,-0.07 -0.11,-0.15 -0.11,-0.25 0,-0.06 0.01,-0.11 0.04,-0.16 0.03,-0.05 0.06,-0.09 0.11,-0.12 0.04,-0.03 0.09,-0.05 0.15,-0.07 0.04,-0.01 0.1,-0.02 0.19,-0.03 0.17,-0.02 0.29,-0.04 0.37,-0.07 0,-0.03 0,-0.05 0,-0.05 0,-0.08 -0.02,-0.14 -0.06,-0.18 -0.05,-0.05 -0.13,-0.07 -0.24,-0.07 -0.1,0 -0.17,0.02 -0.22,0.05 -0.05,0.03 -0.08,0.1 -0.1,0.18l-0.2 -0.03c0.02,-0.09 0.05,-0.16 0.09,-0.21 0.04,-0.05 0.1,-0.09 0.18,-0.12 0.08,-0.03 0.17,-0.04 0.28,-0.04 0.11,0 0.19,0.01 0.26,0.04 0.07,0.02 0.11,0.06 0.15,0.09 0.03,0.04 0.05,0.08 0.07,0.14 0.01,0.04 0.01,0.1 0.01,0.19l0 0.28c0,0.19 0,0.32 0.01,0.37 0.01,0.05 0.03,0.1 0.05,0.15l-0.22 0c-0.02,-0.04 -0.03,-0.1 -0.04,-0.15zm-0.02 -0.46c-0.08,0.03 -0.19,0.06 -0.34,0.08 -0.09,0.01 -0.15,0.03 -0.18,0.04 -0.04,0.02 -0.06,0.04 -0.08,0.07 -0.02,0.03 -0.03,0.06 -0.03,0.1 0,0.05 0.02,0.1 0.06,0.14 0.04,0.04 0.1,0.06 0.18,0.06 0.08,0 0.15,-0.02 0.21,-0.05 0.06,-0.03 0.11,-0.08 0.14,-0.14 0.02,-0.05 0.03,-0.12 0.03,-0.21l0 -0.08z"/>
  <polygon id="_7" class="fil0" points="10.44,0.47 10.65,0.47 10.65,1.41 11.23,0.47 11.45,0.47 11.45,1.7 11.24,1.7 11.24,0.77 10.67,1.7 10.44,1.7 "/>
  <path id="_8" class="fil0" d="M14 2.17l-0.02 -0.19c0.05,0.01 0.09,0.02 0.12,0.02 0.05,0 0.08,-0.01 0.11,-0.02 0.03,-0.02 0.05,-0.04 0.07,-0.06 0.01,-0.02 0.03,-0.07 0.06,-0.16 0,-0.01 0.01,-0.03 0.02,-0.05l-0.47 -1.23 0.22 0 0.26 0.71c0.03,0.09 0.06,0.18 0.09,0.28 0.02,-0.09 0.05,-0.19 0.09,-0.28l0.26 -0.72 0.21 0 -0.47 1.25c-0.05,0.13 -0.09,0.23 -0.12,0.28 -0.04,0.07 -0.08,0.12 -0.13,0.15 -0.05,0.03 -0.11,0.05 -0.17,0.05 -0.04,0 -0.09,-0.01 -0.13,-0.02z"/>
  <polygon id="_9" class="fil0" points="15.17,0.47 15.49,0.47 15.82,1.45 16.18,0.47 16.48,0.47 16.48,1.7 16.27,1.7 16.27,0.71 15.9,1.7 15.72,1.7 15.38,0.66 15.38,1.7 15.17,1.7 "/>
  <path id="_10" class="fil0" d="M16.81 2.17l-0.02 -0.19c0.05,0.01 0.09,0.02 0.12,0.02 0.05,0 0.08,-0.01 0.11,-0.02 0.03,-0.02 0.05,-0.04 0.07,-0.06 0.01,-0.02 0.03,-0.07 0.06,-0.16 0,-0.01 0.01,-0.03 0.02,-0.05l-0.47 -1.23 0.22 0 0.26 0.71c0.03,0.09 0.06,0.18 0.09,0.28 0.02,-0.09 0.05,-0.19 0.09,-0.28l0.26 -0.72 0.21 0 -0.47 1.25c-0.05,0.13 -0.09,0.23 -0.12,0.28 -0.04,0.07 -0.08,0.12 -0.13,0.15 -0.05,0.03 -0.11,0.05 -0.17,0.05 -0.04,0 -0.09,-0.01 -0.13,-0.02z"/>
  <path id="_11" class="fil0" d="M17.98 2.17l0 -1.7 0.19 0 0 0.16c0.04,-0.06 0.1,-0.11 0.15,-0.14 0.06,-0.03 0.12,-0.05 0.2,-0.05 0.11,0 0.2,0.03 0.28,0.08 0.08,0.05 0.14,0.13 0.18,0.23 0.04,0.1 0.06,0.21 0.06,0.32 0,0.13 -0.02,0.24 -0.07,0.34 -0.04,0.1 -0.11,0.18 -0.2,0.23 -0.09,0.05 -0.18,0.08 -0.27,0.08 -0.07,0 -0.13,-0.01 -0.19,-0.04 -0.06,-0.03 -0.1,-0.07 -0.14,-0.11l0 0.6 -0.21 0zm0.19 -1.08c0,0.16 0.03,0.27 0.1,0.35 0.06,0.08 0.14,0.11 0.23,0.11 0.09,0 0.17,-0.04 0.24,-0.12 0.07,-0.08 0.1,-0.2 0.1,-0.36 0,-0.16 -0.03,-0.27 -0.1,-0.35 -0.06,-0.08 -0.14,-0.12 -0.23,-0.12 -0.09,0 -0.17,0.04 -0.23,0.12 -0.07,0.08 -0.1,0.2 -0.1,0.36z"/>
  <polygon id="_12" class="fil0" points="19.14,0.47 20.13,0.47 20.13,0.64 19.74,0.64 19.74,1.7 19.53,1.7 19.53,0.64 19.14,0.64 "/>
  <path id="_13" class="fil0" d="M12.44 1.7l0 -1.7 0.64 0c0.13,0 0.23,0.02 0.31,0.05 0.08,0.03 0.14,0.09 0.18,0.16 0.04,0.07 0.07,0.15 0.07,0.22 0,0.07 -0.02,0.14 -0.06,0.2 -0.04,0.06 -0.1,0.12 -0.18,0.16 0.1,0.03 0.18,0.08 0.24,0.15 0.06,0.07 0.08,0.16 0.08,0.26 0,0.08 -0.02,0.15 -0.05,0.22 -0.03,0.07 -0.08,0.12 -0.12,0.16 -0.05,0.04 -0.11,0.06 -0.19,0.08 -0.07,0.02 -0.17,0.03 -0.27,0.03l-0.65 0zm0.23 -0.98l0.37 0c0.1,0 0.17,-0.01 0.21,-0.02 0.06,-0.02 0.1,-0.05 0.13,-0.08 0.03,-0.04 0.04,-0.09 0.04,-0.15 0,-0.06 -0.01,-0.11 -0.04,-0.15 -0.03,-0.04 -0.07,-0.07 -0.12,-0.09 -0.05,-0.02 -0.14,-0.02 -0.26,-0.02l-0.34 0 0 0.51zm0 0.78l0.42 0c0.07,0 0.12,-0 0.15,-0.01 0.05,-0.01 0.09,-0.02 0.13,-0.05 0.03,-0.02 0.06,-0.05 0.09,-0.09 0.02,-0.04 0.03,-0.09 0.03,-0.14 0,-0.06 -0.02,-0.12 -0.05,-0.17 -0.03,-0.05 -0.08,-0.08 -0.14,-0.1 -0.06,-0.02 -0.14,-0.03 -0.25,-0.03l-0.39 0 0 0.59z"/>
  <path id="_14" class="fil1 str0" d="M0.34 0l1.03 0 0 1.5 0.15 0 0 0.6 -0.2 0 0 -0.4 -1.12 0 0 0.4 -0.2 0 0 -0.6 0.13 0c0.14,-0.21 0.21,-0.62 0.21,-1.25l0 -0.25zm0.81 0.2l-0.59 0 0 0.09c0,0.14 -0.01,0.34 -0.04,0.59 -0.03,0.25 -0.08,0.46 -0.15,0.62l0.78 0 0 -1.3z"/>
  <path id="_15" class="fil1 str0" d="M2.6 1.3l0.22 0.03c-0.03,0.13 -0.1,0.22 -0.19,0.29 -0.09,0.07 -0.21,0.1 -0.35,0.1 -0.18,0 -0.32,-0.06 -0.43,-0.17 -0.11,-0.11 -0.16,-0.27 -0.16,-0.46 0,-0.21 0.05,-0.37 0.16,-0.48 0.11,-0.11 0.24,-0.17 0.41,-0.17 0.16,0 0.3,0.06 0.4,0.17 0.1,0.11 0.16,0.27 0.16,0.47 0,0.01 -0,0.03 -0,0.06l-0.92 0c0.01,0.13 0.05,0.24 0.11,0.31 0.07,0.07 0.15,0.11 0.26,0.11 0.08,0 0.14,-0.02 0.2,-0.06 0.05,-0.04 0.1,-0.1 0.13,-0.19zm-0.68 -0.33l0.69 0c-0.01,-0.1 -0.04,-0.18 -0.08,-0.23 -0.07,-0.08 -0.15,-0.12 -0.26,-0.12 -0.1,0 -0.18,0.03 -0.24,0.1 -0.06,0.06 -0.1,0.15 -0.11,0.26z"/>
  <path id="_16" class="fil1 str0" d="M3.08 0.47l0.48 0c0.12,0 0.21,0.01 0.26,0.03 0.06,0.02 0.11,0.06 0.15,0.11 0.04,0.05 0.06,0.12 0.06,0.19 0,0.06 -0.01,0.11 -0.04,0.15 -0.02,0.04 -0.06,0.08 -0.11,0.11 0.06,0.02 0.11,0.06 0.14,0.11 0.04,0.05 0.06,0.12 0.06,0.19 -0.01,0.12 -0.05,0.2 -0.12,0.26 -0.08,0.06 -0.19,0.08 -0.33,0.08l-0.55 0 0 -1.23zm0.21 0.52l0.22 0c0.09,0 0.15,-0 0.18,-0.01 0.03,-0.01 0.06,-0.03 0.09,-0.06 0.03,-0.03 0.04,-0.06 0.04,-0.1 0,-0.07 -0.02,-0.11 -0.07,-0.14 -0.05,-0.03 -0.12,-0.04 -0.23,-0.04l-0.23 0 0 0.35zm0 0.54l0.27 0c0.12,0 0.2,-0.01 0.24,-0.04 0.04,-0.03 0.07,-0.07 0.07,-0.14 0,-0.04 -0.01,-0.08 -0.04,-0.11 -0.03,-0.03 -0.06,-0.05 -0.1,-0.06 -0.04,-0.01 -0.11,-0.01 -0.2,-0.01l-0.25 0 0 0.37z"/>
  <path id="_17" class="fil1 str0" d="M4.28 2.17l-0.02 -0.19c0.05,0.01 0.09,0.02 0.12,0.02 0.05,0 0.08,-0.01 0.11,-0.02 0.03,-0.02 0.05,-0.04 0.07,-0.06 0.01,-0.02 0.03,-0.07 0.06,-0.16 0,-0.01 0.01,-0.03 0.02,-0.05l-0.47 -1.23 0.22 0 0.26 0.71c0.03,0.09 0.06,0.18 0.09,0.28 0.02,-0.09 0.05,-0.19 0.09,-0.28l0.26 -0.72 0.21 0 -0.47 1.25c-0.05,0.13 -0.09,0.23 -0.12,0.28 -0.04,0.07 -0.08,0.12 -0.13,0.15 -0.05,0.03 -0.11,0.05 -0.17,0.05 -0.04,0 -0.09,-0.01 -0.13,-0.02z"/>
  <polygon id="_18" class="fil1 str0" points="5.48,0.47 5.69,0.47 5.69,1.52 6.16,1.52 6.16,0.47 6.37,0.47 6.37,1.52 6.85,1.52 6.85,0.47 7.05,0.47 7.05,1.7 5.48,1.7 "/>
  <path id="_19" class="fil1 str0" d="M7.37 0.47l0.21 0 0 0.53c0.07,0 0.11,-0.01 0.14,-0.04 0.03,-0.03 0.07,-0.1 0.12,-0.22 0.04,-0.1 0.07,-0.16 0.1,-0.19 0.03,-0.03 0.05,-0.05 0.09,-0.06 0.03,-0.01 0.09,-0.02 0.16,-0.02l0.04 0 0 0.17 -0.06 -0c-0.05,0 -0.09,0.01 -0.11,0.02 -0.02,0.02 -0.04,0.07 -0.07,0.15 -0.03,0.08 -0.06,0.14 -0.09,0.17 -0.03,0.03 -0.07,0.06 -0.12,0.08 0.09,0.02 0.18,0.11 0.27,0.25l0.23 0.38 -0.23 0 -0.23 -0.38c-0.05,-0.08 -0.09,-0.13 -0.12,-0.15 -0.03,-0.02 -0.07,-0.04 -0.12,-0.04l0 0.57 -0.21 0 0 -1.23z"/>
  <path id="_20" class="fil1 str0" d="M9.27 1.54c-0.08,0.07 -0.15,0.11 -0.22,0.14 -0.07,0.03 -0.15,0.04 -0.23,0.04 -0.14,0 -0.24,-0.03 -0.31,-0.1 -0.07,-0.07 -0.11,-0.15 -0.11,-0.25 0,-0.06 0.01,-0.11 0.04,-0.16 0.03,-0.05 0.06,-0.09 0.11,-0.12 0.04,-0.03 0.09,-0.05 0.15,-0.07 0.04,-0.01 0.1,-0.02 0.19,-0.03 0.17,-0.02 0.29,-0.04 0.37,-0.07 0,-0.03 0,-0.05 0,-0.05 0,-0.08 -0.02,-0.14 -0.06,-0.18 -0.05,-0.05 -0.13,-0.07 -0.24,-0.07 -0.1,0 -0.17,0.02 -0.22,0.05 -0.05,0.03 -0.08,0.1 -0.1,0.18l-0.2 -0.03c0.02,-0.09 0.05,-0.16 0.09,-0.21 0.04,-0.05 0.1,-0.09 0.18,-0.12 0.08,-0.03 0.17,-0.04 0.28,-0.04 0.11,0 0.19,0.01 0.26,0.04 0.07,0.02 0.11,0.06 0.15,0.09 0.03,0.04 0.05,0.08 0.07,0.14 0.01,0.04 0.01,0.1 0.01,0.19l0 0.28c0,0.19 0,0.32 0.01,0.37 0.01,0.05 0.03,0.1 0.05,0.15l-0.22 0c-0.02,-0.04 -0.03,-0.1 -0.04,-0.15zm-0.02 -0.46c-0.08,0.03 -0.19,0.06 -0.34,0.08 -0.09,0.01 -0.15,0.03 -0.18,0.04 -0.04,0.02 -0.06,0.04 -0.08,0.07 -0.02,0.03 -0.03,0.06 -0.03,0.1 0,0.05 0.02,0.1 0.06,0.14 0.04,0.04 0.1,0.06 0.18,0.06 0.08,0 0.15,-0.02 0.21,-0.05 0.06,-0.03 0.11,-0.08 0.14,-0.14 0.02,-0.05 0.03,-0.12 0.03,-0.21l0 -0.08z"/>
  <polygon id="_21" class="fil1 str0" points="10.44,0.47 10.65,0.47 10.65,1.41 11.23,0.47 11.45,0.47 11.45,1.7 11.24,1.7 11.24,0.77 10.67,1.7 10.44,1.7 "/>
  <path id="_22" class="fil1 str0" d="M14 2.17l-0.02 -0.19c0.05,0.01 0.09,0.02 0.12,0.02 0.05,0 0.08,-0.01 0.11,-0.02 0.03,-0.02 0.05,-0.04 0.07,-0.06 0.01,-0.02 0.03,-0.07 0.06,-0.16 0,-0.01 0.01,-0.03 0.02,-0.05l-0.47 -1.23 0.22 0 0.26 0.71c0.03,0.09 0.06,0.18 0.09,0.28 0.02,-0.09 0.05,-0.19 0.09,-0.28l0.26 -0.72 0.21 0 -0.47 1.25c-0.05,0.13 -0.09,0.23 -0.12,0.28 -0.04,0.07 -0.08,0.12 -0.13,0.15 -0.05,0.03 -0.11,0.05 -0.17,0.05 -0.04,0 -0.09,-0.01 -0.13,-0.02z"/>
  <polygon id="_23" class="fil1 str0" points="15.17,0.47 15.49,0.47 15.82,1.45 16.18,0.47 16.48,0.47 16.48,1.7 16.27,1.7 16.27,0.71 15.9,1.7 15.72,1.7 15.38,0.66 15.38,1.7 15.17,1.7 "/>
  <path id="_24" class="fil1 str0" d="M16.81 2.17l-0.02 -0.19c0.05,0.01 0.09,0.02 0.12,0.02 0.05,0 0.08,-0.01 0.11,-0.02 0.03,-0.02 0.05,-0.04 0.07,-0.06 0.01,-0.02 0.03,-0.07 0.06,-0.16 0,-0.01 0.01,-0.03 0.02,-0.05l-0.47 -1.23 0.22 0 0.26 0.71c0.03,0.09 0.06,0.18 0.09,0.28 0.02,-0.09 0.05,-0.19 0.09,-0.28l0.26 -0.72 0.21 0 -0.47 1.25c-0.05,0.13 -0.09,0.23 -0.12,0.28 -0.04,0.07 -0.08,0.12 -0.13,0.15 -0.05,0.03 -0.11,0.05 -0.17,0.05 -0.04,0 -0.09,-0.01 -0.13,-0.02z"/>
  <path id="_25" class="fil1 str0" d="M17.98 2.17l0 -1.7 0.19 0 0 0.16c0.04,-0.06 0.1,-0.11 0.15,-0.14 0.06,-0.03 0.12,-0.05 0.2,-0.05 0.11,0 0.2,0.03 0.28,0.08 0.08,0.05 0.14,0.13 0.18,0.23 0.04,0.1 0.06,0.21 0.06,0.32 0,0.13 -0.02,0.24 -0.07,0.34 -0.04,0.1 -0.11,0.18 -0.2,0.23 -0.09,0.05 -0.18,0.08 -0.27,0.08 -0.07,0 -0.13,-0.01 -0.19,-0.04 -0.06,-0.03 -0.1,-0.07 -0.14,-0.11l0 0.6 -0.21 0zm0.19 -1.08c0,0.16 0.03,0.27 0.1,0.35 0.06,0.08 0.14,0.11 0.23,0.11 0.09,0 0.17,-0.04 0.24,-0.12 0.07,-0.08 0.1,-0.2 0.1,-0.36 0,-0.16 -0.03,-0.27 -0.1,-0.35 -0.06,-0.08 -0.14,-0.12 -0.23,-0.12 -0.09,0 -0.17,0.04 -0.23,0.12 -0.07,0.08 -0.1,0.2 -0.1,0.36z"/>
  <polygon id="_26" class="fil1 str0" points="19.14,0.47 20.13,0.47 20.13,0.64 19.74,0.64 19.74,1.7 19.53,1.7 19.53,0.64 19.14,0.64 "/>
  <path id="_27" class="fil1 str0" d="M12.44 1.7l0 -1.7 0.64 0c0.13,0 0.23,0.02 0.31,0.05 0.08,0.03 0.14,0.09 0.18,0.16 0.04,0.07 0.07,0.15 0.07,0.22 0,0.07 -0.02,0.14 -0.06,0.2 -0.04,0.06 -0.1,0.12 -0.18,0.16 0.1,0.03 0.18,0.08 0.24,0.15 0.06,0.07 0.08,0.16 0.08,0.26 0,0.08 -0.02,0.15 -0.05,0.22 -0.03,0.07 -0.08,0.12 -0.12,0.16 -0.05,0.04 -0.11,0.06 -0.19,0.08 -0.07,0.02 -0.17,0.03 -0.27,0.03l-0.65 0zm0.23 -0.98l0.37 0c0.1,0 0.17,-0.01 0.21,-0.02 0.06,-0.02 0.1,-0.05 0.13,-0.08 0.03,-0.04 0.04,-0.09 0.04,-0.15 0,-0.06 -0.01,-0.11 -0.04,-0.15 -0.03,-0.04 -0.07,-0.07 -0.12,-0.09 -0.05,-0.02 -0.14,-0.02 -0.26,-0.02l-0.34 0 0 0.51zm0 0.78l0.42 0c0.07,0 0.12,-0 0.15,-0.01 0.05,-0.01 0.09,-0.02 0.13,-0.05 0.03,-0.02 0.06,-0.05 0.09,-0.09 0.02,-0.04 0.03,-0.09 0.03,-0.14 0,-0.06 -0.02,-0.12 -0.05,-0.17 -0.03,-0.05 -0.08,-0.08 -0.14,-0.1 -0.06,-0.02 -0.14,-0.03 -0.25,-0.03l-0.39 0 0 0.59z"/>
 </g>
</svg>
