<?xml version="1.0" encoding="UTF-8"?>
<!DOCTYPE svg PUBLIC "-//W3C//DTD SVG 1.1//EN" "http://www.w3.org/Graphics/SVG/1.1/DTD/svg11.dtd">
<!-- Creator: CorelDRAW -->
<svg xmlns="http://www.w3.org/2000/svg" xml:space="preserve" width="25.2692mm" height="5.5925mm" version="1.1" style="shape-rendering:geometricPrecision; text-rendering:geometricPrecision; image-rendering:optimizeQuality; fill-rule:evenodd; clip-rule:evenodd"
viewBox="0 0 24.94 5.52"
 xmlns:xlink="http://www.w3.org/1999/xlink"
 xmlns:xodm="http://www.corel.com/coreldraw/odm/2003">
 <defs>
  <style type="text/css">
   <![CDATA[
    .str0 {stroke:#FF6600;stroke-width:0;stroke-miterlimit:22.9256}
    .fil1 {fill:none;fill-rule:nonzero}
    .fil0 {fill:#FF6600;fill-rule:nonzero}
   ]]>
  </style>
 </defs>
 <g id="Слой_x0020_1">
  <metadata id="CorelCorpID_0Corel-Layer"/>
  <path class="fil0" d="M5.91 1.66l0.23 -0.06c0.02,0.09 0.06,0.17 0.14,0.26 0.08,0.09 0.17,0.13 0.3,0.13 0.13,0 0.23,-0.03 0.3,-0.1 0.07,-0.06 0.11,-0.14 0.11,-0.24 0,-0.1 -0.04,-0.18 -0.12,-0.24 -0.08,-0.06 -0.18,-0.09 -0.31,-0.09l-0.11 0 0 -0.21c0.11,0 0.19,-0.01 0.25,-0.02 0.06,-0.01 0.11,-0.05 0.15,-0.1 0.04,-0.05 0.07,-0.11 0.07,-0.18 0,-0.08 -0.03,-0.15 -0.09,-0.2 -0.06,-0.06 -0.14,-0.09 -0.25,-0.09 -0.09,0 -0.17,0.02 -0.23,0.07 -0.06,0.05 -0.11,0.11 -0.13,0.18 -0.02,0.08 -0.04,0.13 -0.04,0.17l-0.23 -0.05c0.06,-0.38 0.27,-0.58 0.63,-0.58 0.18,0 0.32,0.05 0.42,0.15 0.1,0.1 0.15,0.21 0.15,0.34 0,0.17 -0.08,0.3 -0.24,0.39 0.09,0.03 0.17,0.08 0.23,0.16 0.06,0.08 0.09,0.17 0.09,0.28 0,0.16 -0.06,0.29 -0.18,0.39 -0.12,0.1 -0.28,0.16 -0.48,0.16 -0.34,0 -0.56,-0.18 -0.67,-0.54zm0.34 -1.41l0 -0.25 0.23 0 0 0.25 -0.23 0zm0.46 0l0 -0.25 0.23 0 0 0.25 -0.23 0z"/>
  <path id="_1" class="fil0" d="M7.33 2.17l0.69 -1.81 0.26 0 0.74 1.81 -0.27 0 -0.21 -0.55 -0.76 0 -0.2 0.55 -0.25 0zm0.52 -0.74l0.62 0 -0.19 -0.5c-0.06,-0.15 -0.1,-0.28 -0.13,-0.38 -0.02,0.12 -0.06,0.23 -0.1,0.35l-0.2 0.53z"/>
  <path id="_2" class="fil0" d="M9.08 1.66l0.23 -0.06c0.02,0.09 0.06,0.17 0.14,0.26 0.08,0.09 0.17,0.13 0.3,0.13 0.13,0 0.23,-0.03 0.3,-0.1 0.07,-0.06 0.11,-0.14 0.11,-0.24 0,-0.1 -0.04,-0.18 -0.12,-0.24 -0.08,-0.06 -0.18,-0.09 -0.31,-0.09l-0.11 0 0 -0.21c0.11,0 0.19,-0.01 0.25,-0.02 0.06,-0.01 0.11,-0.05 0.15,-0.1 0.04,-0.05 0.07,-0.11 0.07,-0.18 0,-0.08 -0.03,-0.15 -0.09,-0.2 -0.06,-0.06 -0.14,-0.09 -0.25,-0.09 -0.09,0 -0.17,0.02 -0.23,0.07 -0.06,0.05 -0.11,0.11 -0.13,0.18 -0.02,0.08 -0.04,0.13 -0.04,0.17l-0.23 -0.05c0.06,-0.38 0.27,-0.58 0.63,-0.58 0.18,0 0.32,0.05 0.42,0.15 0.1,0.1 0.15,0.21 0.15,0.34 0,0.17 -0.08,0.3 -0.24,0.39 0.09,0.03 0.17,0.08 0.23,0.16 0.06,0.08 0.09,0.17 0.09,0.28 0,0.16 -0.06,0.29 -0.18,0.39 -0.12,0.1 -0.28,0.16 -0.48,0.16 -0.34,0 -0.56,-0.18 -0.67,-0.54z"/>
  <polygon id="_3" class="fil0" points="10.71,2.17 10.71,0.36 12.02,0.36 12.02,0.58 10.95,0.58 10.95,1.13 11.95,1.13 11.95,1.34 10.95,1.34 10.95,1.96 12.06,1.96 12.06,2.17 "/>
  <polygon id="_4" class="fil0" points="12.4,0.36 13.56,0.36 13.56,0.58 12.64,0.58 12.64,2.17 12.4,2.17 "/>
  <path id="_5" class="fil0" d="M13.56 0.36l0.79 0 0 0.77 0.43 0c0.28,0 0.47,0.05 0.56,0.16 0.09,0.11 0.13,0.22 0.13,0.36 0,0.15 -0.05,0.28 -0.15,0.38 -0.1,0.1 -0.28,0.15 -0.52,0.15l-0.69 0 0 -1.59 -0.55 0 0 -0.21zm0.79 1.6l0.44 0c0.15,0 0.26,-0.03 0.33,-0.08 0.07,-0.05 0.1,-0.13 0.1,-0.24 0,-0.07 -0.02,-0.14 -0.06,-0.19 -0.04,-0.05 -0.09,-0.08 -0.16,-0.1 -0.07,-0.01 -0.17,-0.02 -0.33,-0.02l-0.32 0 0 0.63z"/>
  <path id="_6" class="fil0" d="M15.76 2.17l0 -1.81 1.3 0 0 0.21 -1.06 0 0 0.56 1 0 0 0.21 -1 0 0 0.62 1.11 0 0 0.21 -1.35 0zm0.31 -1.92l0 -0.25 0.23 0 0 0.25 -0.23 0zm0.46 0l0 -0.25 0.23 0 0 0.25 -0.23 0z"/>
  <path id="_7" class="fil0" d="M18.73 1.54l0.24 0.06c-0.05,0.2 -0.14,0.35 -0.27,0.45 -0.13,0.1 -0.29,0.15 -0.48,0.15 -0.19,0 -0.35,-0.04 -0.47,-0.12 -0.12,-0.08 -0.21,-0.19 -0.28,-0.34 -0.06,-0.15 -0.1,-0.31 -0.1,-0.48 0,-0.19 0.04,-0.35 0.11,-0.49 0.07,-0.14 0.17,-0.25 0.31,-0.32 0.13,-0.07 0.28,-0.11 0.44,-0.11 0.18,0 0.33,0.05 0.46,0.14 0.12,0.09 0.21,0.22 0.26,0.39l-0.23 0.06c-0.04,-0.13 -0.1,-0.23 -0.18,-0.29 -0.08,-0.06 -0.18,-0.09 -0.3,-0.09 -0.14,0 -0.25,0.03 -0.35,0.1 -0.09,0.07 -0.16,0.16 -0.2,0.27 -0.04,0.11 -0.06,0.23 -0.06,0.35 0,0.15 0.02,0.29 0.07,0.4 0.04,0.11 0.11,0.2 0.21,0.26 0.09,0.06 0.2,0.08 0.31,0.08 0.13,0 0.25,-0.04 0.34,-0.12 0.09,-0.08 0.16,-0.19 0.19,-0.34z"/>
  <path id="_8" class="fil0" d="M0.44 5.52c-0.12,-0.15 -0.23,-0.33 -0.31,-0.54 -0.08,-0.21 -0.13,-0.42 -0.13,-0.64 0,-0.2 0.03,-0.38 0.09,-0.56 0.07,-0.21 0.19,-0.41 0.34,-0.62l0.16 0c-0.1,0.17 -0.17,0.29 -0.2,0.37 -0.05,0.11 -0.09,0.23 -0.12,0.35 -0.04,0.15 -0.05,0.31 -0.05,0.46 0,0.39 0.12,0.79 0.37,1.18l-0.16 0z"/>
  <path id="_9" class="fil0" d="M0.78 4.48l0.23 -0.06c0.02,0.09 0.06,0.17 0.14,0.26 0.08,0.09 0.17,0.13 0.3,0.13 0.13,0 0.23,-0.03 0.3,-0.1 0.07,-0.06 0.11,-0.14 0.11,-0.24 0,-0.1 -0.04,-0.18 -0.12,-0.24 -0.08,-0.06 -0.18,-0.09 -0.31,-0.09l-0.11 0 0 -0.21c0.11,0 0.19,-0.01 0.25,-0.02 0.06,-0.01 0.11,-0.05 0.15,-0.1 0.04,-0.05 0.07,-0.11 0.07,-0.18 0,-0.08 -0.03,-0.15 -0.09,-0.2 -0.06,-0.06 -0.14,-0.09 -0.25,-0.09 -0.09,0 -0.17,0.02 -0.23,0.07 -0.06,0.05 -0.11,0.11 -0.13,0.18 -0.02,0.08 -0.04,0.13 -0.04,0.17l-0.23 -0.05c0.06,-0.38 0.27,-0.58 0.63,-0.58 0.18,0 0.32,0.05 0.42,0.15 0.1,0.1 0.15,0.21 0.15,0.34 0,0.17 -0.08,0.3 -0.24,0.39 0.09,0.03 0.17,0.08 0.23,0.16 0.06,0.08 0.09,0.17 0.09,0.28 0,0.16 -0.06,0.29 -0.18,0.39 -0.12,0.1 -0.28,0.16 -0.48,0.16 -0.34,0 -0.56,-0.18 -0.67,-0.54zm0.34 -1.41l0 -0.25 0.23 0 0 0.25 -0.23 0zm0.46 0l0 -0.25 0.23 0 0 0.25 -0.23 0z"/>
  <path id="_10" class="fil0" d="M2.37 5.49l-0.03 -0.21c0.05,0.01 0.09,0.02 0.13,0.02 0.05,0 0.09,-0.01 0.12,-0.02 0.03,-0.02 0.05,-0.04 0.07,-0.07 0.01,-0.02 0.04,-0.08 0.07,-0.17 0,-0.01 0.01,-0.03 0.02,-0.05l-0.5 -1.31 0.24 0 0.27 0.76c0.04,0.1 0.07,0.2 0.1,0.3 0.03,-0.1 0.06,-0.2 0.09,-0.29l0.28 -0.76 0.22 0 -0.5 1.33c-0.05,0.14 -0.1,0.24 -0.12,0.3 -0.04,0.07 -0.08,0.13 -0.14,0.16 -0.05,0.03 -0.11,0.05 -0.18,0.05 -0.04,0 -0.09,-0.01 -0.14,-0.03z"/>
  <path id="_11" class="fil0" d="M3.56 3.68l0.22 0 0 0.25c0,0.11 0.01,0.18 0.02,0.23 0.01,0.05 0.04,0.09 0.09,0.13 0.05,0.04 0.11,0.05 0.18,0.05 0.08,0 0.19,-0.02 0.33,-0.07l0 -0.59 0.22 0 0 1.31 -0.22 0 0 -0.53c-0.14,0.04 -0.26,0.06 -0.38,0.06 -0.1,0 -0.19,-0.03 -0.26,-0.08 -0.08,-0.05 -0.13,-0.11 -0.16,-0.19 -0.03,-0.07 -0.04,-0.15 -0.04,-0.24l0 -0.34z"/>
  <path id="_12" class="fil0" d="M5.65 3.68l0.22 0 0 0.57c0.07,0 0.12,-0.01 0.15,-0.04 0.03,-0.03 0.07,-0.11 0.13,-0.24 0.04,-0.1 0.08,-0.17 0.11,-0.2 0.03,-0.03 0.06,-0.06 0.09,-0.07 0.04,-0.01 0.09,-0.02 0.17,-0.02l0.04 0 0 0.18 -0.06 -0c-0.06,0 -0.1,0.01 -0.11,0.03 -0.02,0.02 -0.04,0.07 -0.08,0.16 -0.03,0.09 -0.06,0.15 -0.09,0.18 -0.03,0.03 -0.07,0.06 -0.13,0.09 0.1,0.03 0.19,0.11 0.28,0.27l0.24 0.41 -0.24 0 -0.24 -0.4c-0.05,-0.08 -0.09,-0.14 -0.13,-0.16 -0.04,-0.03 -0.08,-0.04 -0.13,-0.04l0 0.61 -0.22 0 0 -1.31z"/>
  <path id="_13" class="fil0" d="M7.67 4.83c-0.08,0.07 -0.16,0.12 -0.24,0.15 -0.08,0.03 -0.16,0.04 -0.25,0.04 -0.14,0 -0.25,-0.03 -0.33,-0.11 -0.08,-0.07 -0.12,-0.16 -0.12,-0.27 0,-0.06 0.01,-0.12 0.04,-0.18 0.03,-0.05 0.07,-0.1 0.11,-0.13 0.05,-0.03 0.1,-0.06 0.16,-0.07 0.04,-0.01 0.11,-0.02 0.2,-0.03 0.18,-0.02 0.31,-0.05 0.4,-0.08 0,-0.03 0,-0.05 0,-0.06 0,-0.09 -0.02,-0.15 -0.06,-0.19 -0.06,-0.05 -0.14,-0.07 -0.25,-0.07 -0.1,0 -0.18,0.02 -0.23,0.06 -0.05,0.04 -0.09,0.1 -0.11,0.19l-0.22 -0.03c0.02,-0.09 0.05,-0.17 0.1,-0.23 0.05,-0.06 0.11,-0.1 0.2,-0.13 0.09,-0.03 0.19,-0.05 0.3,-0.05 0.11,0 0.2,0.01 0.27,0.04 0.07,0.03 0.12,0.06 0.15,0.1 0.03,0.04 0.06,0.09 0.07,0.15 0.01,0.04 0.01,0.11 0.01,0.2l0 0.29c0,0.21 0,0.34 0.01,0.39 0.01,0.06 0.03,0.11 0.05,0.16l-0.23 0c-0.02,-0.05 -0.04,-0.1 -0.04,-0.16zm-0.02 -0.49c-0.08,0.03 -0.2,0.06 -0.36,0.08 -0.09,0.01 -0.16,0.03 -0.19,0.04 -0.04,0.02 -0.07,0.04 -0.09,0.07 -0.02,0.03 -0.03,0.07 -0.03,0.11 0,0.06 0.02,0.11 0.07,0.15 0.05,0.04 0.11,0.06 0.2,0.06 0.09,0 0.16,-0.02 0.23,-0.06 0.07,-0.04 0.12,-0.09 0.15,-0.15 0.02,-0.05 0.04,-0.12 0.04,-0.22l0 -0.08z"/>
  <path id="_14" class="fil0" d="M8.33 3.68l1.03 0 0 1.31 -0.22 0 0 -1.12 -0.59 0 0 0.65c0,0.15 -0.01,0.25 -0.01,0.3 -0.01,0.05 -0.04,0.09 -0.08,0.13 -0.04,0.04 -0.11,0.05 -0.19,0.05 -0.05,0 -0.11,-0 -0.18,-0.01l0 -0.18 0.1 0c0.05,0 0.08,-0 0.1,-0.01 0.02,-0.01 0.03,-0.02 0.04,-0.05 0.01,-0.02 0.01,-0.09 0.01,-0.2l0 -0.86z"/>
  <path id="_15" class="fil0" d="M10.94 3.68l0.22 0 0 1.31 -0.22 0 0 -1.31zm-1.24 0l0.22 0 0 0.51 0.28 0c0.18,0 0.32,0.04 0.42,0.11 0.1,0.07 0.15,0.17 0.15,0.29 0,0.11 -0.04,0.2 -0.12,0.28 -0.08,0.08 -0.21,0.12 -0.4,0.12l-0.55 0 0 -1.31zm0.22 1.13l0.23 0c0.14,0 0.24,-0.02 0.3,-0.05 0.06,-0.03 0.09,-0.09 0.09,-0.16 0,-0.06 -0.02,-0.11 -0.07,-0.15 -0.04,-0.04 -0.14,-0.07 -0.29,-0.07l-0.26 0 0 0.43z"/>
  <path id="_16" class="fil0" d="M11.5 3.68l0.22 0 0 0.57c0.07,0 0.12,-0.01 0.15,-0.04 0.03,-0.03 0.07,-0.11 0.13,-0.24 0.04,-0.1 0.08,-0.17 0.11,-0.2 0.03,-0.03 0.06,-0.06 0.09,-0.07 0.04,-0.01 0.09,-0.02 0.17,-0.02l0.04 0 0 0.18 -0.06 -0c-0.06,0 -0.1,0.01 -0.11,0.03 -0.02,0.02 -0.04,0.07 -0.08,0.16 -0.03,0.09 -0.06,0.15 -0.09,0.18 -0.03,0.03 -0.07,0.06 -0.13,0.09 0.1,0.03 0.19,0.11 0.28,0.27l0.24 0.41 -0.24 0 -0.24 -0.4c-0.05,-0.08 -0.09,-0.14 -0.13,-0.16 -0.04,-0.03 -0.08,-0.04 -0.13,-0.04l0 0.61 -0.22 0 0 -1.31z"/>
  <path id="_17" class="fil0" d="M13.31 3.68l0.51 0c0.13,0 0.22,0.01 0.28,0.03 0.06,0.02 0.11,0.06 0.16,0.12 0.04,0.06 0.07,0.12 0.07,0.2 0,0.06 -0.01,0.12 -0.04,0.16 -0.03,0.05 -0.06,0.09 -0.12,0.12 0.06,0.02 0.11,0.06 0.15,0.12 0.04,0.06 0.06,0.12 0.06,0.2 -0.01,0.12 -0.05,0.22 -0.13,0.28 -0.08,0.06 -0.2,0.09 -0.35,0.09l-0.59 0 0 -1.31zm0.22 0.55l0.24 0c0.09,0 0.16,-0.01 0.19,-0.01 0.04,-0.01 0.07,-0.03 0.09,-0.06 0.03,-0.03 0.04,-0.07 0.04,-0.11 0,-0.07 -0.02,-0.12 -0.07,-0.14 -0.05,-0.03 -0.13,-0.04 -0.25,-0.04l-0.24 0 0 0.37zm0 0.58l0.29 0c0.13,0 0.21,-0.01 0.26,-0.04 0.05,-0.03 0.07,-0.08 0.07,-0.15 0,-0.04 -0.01,-0.08 -0.04,-0.12 -0.03,-0.04 -0.06,-0.06 -0.11,-0.07 -0.04,-0.01 -0.11,-0.01 -0.21,-0.01l-0.27 0 0 0.39z"/>
  <path id="_18" class="fil0" d="M15.9 3.68l0.22 0 0 1.31 -0.22 0 0 -1.31zm-1.24 0l0.22 0 0 0.51 0.28 0c0.18,0 0.32,0.04 0.42,0.11 0.1,0.07 0.15,0.17 0.15,0.29 0,0.11 -0.04,0.2 -0.12,0.28 -0.08,0.08 -0.21,0.12 -0.4,0.12l-0.55 0 0 -1.31zm0.22 1.13l0.23 0c0.14,0 0.24,-0.02 0.3,-0.05 0.06,-0.03 0.09,-0.09 0.09,-0.16 0,-0.06 -0.02,-0.11 -0.07,-0.15 -0.04,-0.04 -0.14,-0.07 -0.29,-0.07l-0.26 0 0 0.43z"/>
  <path id="_19" class="fil0" d="M17.26 3.68l0 0.57c0.07,0 0.12,-0.01 0.15,-0.04 0.03,-0.03 0.07,-0.11 0.12,-0.24 0.05,-0.12 0.1,-0.2 0.14,-0.24 0.04,-0.03 0.1,-0.05 0.19,-0.05l0.08 0 0 0.18 -0.06 -0c-0.06,0 -0.1,0.01 -0.11,0.03 -0.02,0.02 -0.04,0.07 -0.08,0.16 -0.03,0.09 -0.06,0.14 -0.09,0.18 -0.03,0.03 -0.07,0.06 -0.13,0.09 0.1,0.03 0.19,0.11 0.28,0.27l0.24 0.41 -0.24 0 -0.24 -0.41c-0.05,-0.08 -0.09,-0.14 -0.13,-0.16 -0.04,-0.03 -0.08,-0.04 -0.13,-0.04l0 0.61 -0.23 0 0 -0.61c-0.05,0 -0.09,0.01 -0.13,0.04 -0.04,0.03 -0.08,0.08 -0.13,0.16l-0.24 0.41 -0.24 0 0.24 -0.41c0.09,-0.15 0.19,-0.24 0.28,-0.27 -0.07,-0.03 -0.11,-0.06 -0.14,-0.1 -0.03,-0.04 -0.07,-0.12 -0.12,-0.26 -0.02,-0.05 -0.04,-0.07 -0.06,-0.08 -0.02,-0.01 -0.05,-0.02 -0.1,-0.02 -0.01,0 -0.03,0 -0.07,0l0 -0.18 0.03 0c0.09,0 0.15,0.01 0.18,0.02 0.03,0.01 0.07,0.03 0.09,0.07 0.03,0.03 0.06,0.1 0.11,0.21 0.05,0.13 0.09,0.21 0.12,0.24 0.03,0.03 0.08,0.04 0.15,0.04l0 -0.57 0.23 0z"/>
  <path id="_20" class="fil0" d="M19.4 3.68l0.22 0 0 1.31 -0.22 0 0 -1.31zm-1.24 0l0.22 0 0 0.51 0.28 0c0.18,0 0.32,0.04 0.42,0.11 0.1,0.07 0.15,0.17 0.15,0.29 0,0.11 -0.04,0.2 -0.12,0.28 -0.08,0.08 -0.21,0.12 -0.4,0.12l-0.55 0 0 -1.31zm0.22 1.13l0.23 0c0.14,0 0.24,-0.02 0.3,-0.05 0.06,-0.03 0.09,-0.09 0.09,-0.16 0,-0.06 -0.02,-0.11 -0.07,-0.15 -0.04,-0.04 -0.14,-0.07 -0.29,-0.07l-0.26 0 0 0.43z"/>
  <path id="_21" class="fil0" d="M19.96 3.68l0.22 0 0 0.57c0.07,0 0.12,-0.01 0.15,-0.04 0.03,-0.03 0.07,-0.11 0.13,-0.24 0.04,-0.1 0.08,-0.17 0.11,-0.2 0.03,-0.03 0.06,-0.06 0.09,-0.07 0.04,-0.01 0.09,-0.02 0.17,-0.02l0.04 0 0 0.18 -0.06 -0c-0.06,0 -0.1,0.01 -0.11,0.03 -0.02,0.02 -0.04,0.07 -0.08,0.16 -0.03,0.09 -0.06,0.15 -0.09,0.18 -0.03,0.03 -0.07,0.06 -0.13,0.09 0.1,0.03 0.19,0.11 0.28,0.27l0.24 0.41 -0.24 0 -0.24 -0.4c-0.05,-0.08 -0.09,-0.14 -0.13,-0.16 -0.04,-0.03 -0.08,-0.04 -0.13,-0.04l0 0.61 -0.22 0 0 -1.31z"/>
  <path id="_22" class="fil0" d="M22.32 3.68l0.22 0 0 1.31 -0.22 0 0 -1.31zm-1.24 0l0.22 0 0 0.51 0.28 0c0.18,0 0.32,0.04 0.42,0.11 0.1,0.07 0.15,0.17 0.15,0.29 0,0.11 -0.04,0.2 -0.12,0.28 -0.08,0.08 -0.21,0.12 -0.4,0.12l-0.55 0 0 -1.31zm0.22 1.13l0.23 0c0.14,0 0.24,-0.02 0.3,-0.05 0.06,-0.03 0.09,-0.09 0.09,-0.16 0,-0.06 -0.02,-0.11 -0.07,-0.15 -0.04,-0.04 -0.14,-0.07 -0.29,-0.07l-0.26 0 0 0.43z"/>
  <path id="_23" class="fil0" d="M22.99 3.68l1.03 0 0 1.31 -0.22 0 0 -1.12 -0.59 0 0 0.65c0,0.15 -0.01,0.25 -0.01,0.3 -0.01,0.05 -0.04,0.09 -0.08,0.13 -0.04,0.04 -0.11,0.05 -0.19,0.05 -0.05,0 -0.11,-0 -0.18,-0.01l0 -0.18 0.1 0c0.05,0 0.08,-0 0.1,-0.01 0.02,-0.01 0.03,-0.02 0.04,-0.05 0.01,-0.02 0.01,-0.09 0.01,-0.2l0 -0.86z"/>
  <path id="_24" class="fil0" d="M24.5 5.52l-0.16 0c0.25,-0.39 0.37,-0.79 0.37,-1.18 0,-0.15 -0.02,-0.31 -0.05,-0.46 -0.03,-0.12 -0.07,-0.24 -0.12,-0.36 -0.03,-0.07 -0.1,-0.2 -0.2,-0.37l0.16 0c0.15,0.21 0.27,0.41 0.34,0.62 0.06,0.18 0.09,0.37 0.09,0.56 0,0.22 -0.04,0.44 -0.13,0.64 -0.08,0.21 -0.19,0.39 -0.31,0.54z"/>
  <path id="_25" class="fil1 str0" d="M5.91 1.66l0.23 -0.06c0.02,0.09 0.06,0.17 0.14,0.26 0.08,0.09 0.17,0.13 0.3,0.13 0.13,0 0.23,-0.03 0.3,-0.1 0.07,-0.06 0.11,-0.14 0.11,-0.24 0,-0.1 -0.04,-0.18 -0.12,-0.24 -0.08,-0.06 -0.18,-0.09 -0.31,-0.09l-0.11 0 0 -0.21c0.11,0 0.19,-0.01 0.25,-0.02 0.06,-0.01 0.11,-0.05 0.15,-0.1 0.04,-0.05 0.07,-0.11 0.07,-0.18 0,-0.08 -0.03,-0.15 -0.09,-0.2 -0.06,-0.06 -0.14,-0.09 -0.25,-0.09 -0.09,0 -0.17,0.02 -0.23,0.07 -0.06,0.05 -0.11,0.11 -0.13,0.18 -0.02,0.08 -0.04,0.13 -0.04,0.17l-0.23 -0.05c0.06,-0.38 0.27,-0.58 0.63,-0.58 0.18,0 0.32,0.05 0.42,0.15 0.1,0.1 0.15,0.21 0.15,0.34 0,0.17 -0.08,0.3 -0.24,0.39 0.09,0.03 0.17,0.08 0.23,0.16 0.06,0.08 0.09,0.17 0.09,0.28 0,0.16 -0.06,0.29 -0.18,0.39 -0.12,0.1 -0.28,0.16 -0.48,0.16 -0.34,0 -0.56,-0.18 -0.67,-0.54zm0.34 -1.41l0 -0.25 0.23 0 0 0.25 -0.23 0zm0.46 0l0 -0.25 0.23 0 0 0.25 -0.23 0z"/>
  <path id="_26" class="fil1 str0" d="M7.33 2.17l0.69 -1.81 0.26 0 0.74 1.81 -0.27 0 -0.21 -0.55 -0.76 0 -0.2 0.55 -0.25 0zm0.52 -0.74l0.62 0 -0.19 -0.5c-0.06,-0.15 -0.1,-0.28 -0.13,-0.38 -0.02,0.12 -0.06,0.23 -0.1,0.35l-0.2 0.53z"/>
  <path id="_27" class="fil1 str0" d="M9.08 1.66l0.23 -0.06c0.02,0.09 0.06,0.17 0.14,0.26 0.08,0.09 0.17,0.13 0.3,0.13 0.13,0 0.23,-0.03 0.3,-0.1 0.07,-0.06 0.11,-0.14 0.11,-0.24 0,-0.1 -0.04,-0.18 -0.12,-0.24 -0.08,-0.06 -0.18,-0.09 -0.31,-0.09l-0.11 0 0 -0.21c0.11,0 0.19,-0.01 0.25,-0.02 0.06,-0.01 0.11,-0.05 0.15,-0.1 0.04,-0.05 0.07,-0.11 0.07,-0.18 0,-0.08 -0.03,-0.15 -0.09,-0.2 -0.06,-0.06 -0.14,-0.09 -0.25,-0.09 -0.09,0 -0.17,0.02 -0.23,0.07 -0.06,0.05 -0.11,0.11 -0.13,0.18 -0.02,0.08 -0.04,0.13 -0.04,0.17l-0.23 -0.05c0.06,-0.38 0.27,-0.58 0.63,-0.58 0.18,0 0.32,0.05 0.42,0.15 0.1,0.1 0.15,0.21 0.15,0.34 0,0.17 -0.08,0.3 -0.24,0.39 0.09,0.03 0.17,0.08 0.23,0.16 0.06,0.08 0.09,0.17 0.09,0.28 0,0.16 -0.06,0.29 -0.18,0.39 -0.12,0.1 -0.28,0.16 -0.48,0.16 -0.34,0 -0.56,-0.18 -0.67,-0.54z"/>
  <polygon id="_28" class="fil1 str0" points="10.71,2.17 10.71,0.36 12.02,0.36 12.02,0.58 10.95,0.58 10.95,1.13 11.95,1.13 11.95,1.34 10.95,1.34 10.95,1.96 12.06,1.96 12.06,2.17 "/>
  <polygon id="_29" class="fil1 str0" points="12.4,0.36 13.56,0.36 13.56,0.58 12.64,0.58 12.64,2.17 12.4,2.17 "/>
  <path id="_30" class="fil1 str0" d="M13.56 0.36l0.79 0 0 0.77 0.43 0c0.28,0 0.47,0.05 0.56,0.16 0.09,0.11 0.13,0.22 0.13,0.36 0,0.15 -0.05,0.28 -0.15,0.38 -0.1,0.1 -0.28,0.15 -0.52,0.15l-0.69 0 0 -1.59 -0.55 0 0 -0.21zm0.79 1.6l0.44 0c0.15,0 0.26,-0.03 0.33,-0.08 0.07,-0.05 0.1,-0.13 0.1,-0.24 0,-0.07 -0.02,-0.14 -0.06,-0.19 -0.04,-0.05 -0.09,-0.08 -0.16,-0.1 -0.07,-0.01 -0.17,-0.02 -0.33,-0.02l-0.32 0 0 0.63z"/>
  <path id="_31" class="fil1 str0" d="M15.76 2.17l0 -1.81 1.3 0 0 0.21 -1.06 0 0 0.56 1 0 0 0.21 -1 0 0 0.62 1.11 0 0 0.21 -1.35 0zm0.31 -1.92l0 -0.25 0.23 0 0 0.25 -0.23 0zm0.46 0l0 -0.25 0.23 0 0 0.25 -0.23 0z"/>
  <path id="_32" class="fil1 str0" d="M18.73 1.54l0.24 0.06c-0.05,0.2 -0.14,0.35 -0.27,0.45 -0.13,0.1 -0.29,0.15 -0.48,0.15 -0.19,0 -0.35,-0.04 -0.47,-0.12 -0.12,-0.08 -0.21,-0.19 -0.28,-0.34 -0.06,-0.15 -0.1,-0.31 -0.1,-0.48 0,-0.19 0.04,-0.35 0.11,-0.49 0.07,-0.14 0.17,-0.25 0.31,-0.32 0.13,-0.07 0.28,-0.11 0.44,-0.11 0.18,0 0.33,0.05 0.46,0.14 0.12,0.09 0.21,0.22 0.26,0.39l-0.23 0.06c-0.04,-0.13 -0.1,-0.23 -0.18,-0.29 -0.08,-0.06 -0.18,-0.09 -0.3,-0.09 -0.14,0 -0.25,0.03 -0.35,0.1 -0.09,0.07 -0.16,0.16 -0.2,0.27 -0.04,0.11 -0.06,0.23 -0.06,0.35 0,0.15 0.02,0.29 0.07,0.4 0.04,0.11 0.11,0.2 0.21,0.26 0.09,0.06 0.2,0.08 0.31,0.08 0.13,0 0.25,-0.04 0.34,-0.12 0.09,-0.08 0.16,-0.19 0.19,-0.34z"/>
  <path id="_33" class="fil1 str0" d="M0.44 5.52c-0.12,-0.15 -0.23,-0.33 -0.31,-0.54 -0.08,-0.21 -0.13,-0.42 -0.13,-0.64 0,-0.2 0.03,-0.38 0.09,-0.56 0.07,-0.21 0.19,-0.41 0.34,-0.62l0.16 0c-0.1,0.17 -0.17,0.29 -0.2,0.37 -0.05,0.11 -0.09,0.23 -0.12,0.35 -0.04,0.15 -0.05,0.31 -0.05,0.46 0,0.39 0.12,0.79 0.37,1.18l-0.16 0z"/>
  <path id="_34" class="fil1 str0" d="M0.78 4.48l0.23 -0.06c0.02,0.09 0.06,0.17 0.14,0.26 0.08,0.09 0.17,0.13 0.3,0.13 0.13,0 0.23,-0.03 0.3,-0.1 0.07,-0.06 0.11,-0.14 0.11,-0.24 0,-0.1 -0.04,-0.18 -0.12,-0.24 -0.08,-0.06 -0.18,-0.09 -0.31,-0.09l-0.11 0 0 -0.21c0.11,0 0.19,-0.01 0.25,-0.02 0.06,-0.01 0.11,-0.05 0.15,-0.1 0.04,-0.05 0.07,-0.11 0.07,-0.18 0,-0.08 -0.03,-0.15 -0.09,-0.2 -0.06,-0.06 -0.14,-0.09 -0.25,-0.09 -0.09,0 -0.17,0.02 -0.23,0.07 -0.06,0.05 -0.11,0.11 -0.13,0.18 -0.02,0.08 -0.04,0.13 -0.04,0.17l-0.23 -0.05c0.06,-0.38 0.27,-0.58 0.63,-0.58 0.18,0 0.32,0.05 0.42,0.15 0.1,0.1 0.15,0.21 0.15,0.34 0,0.17 -0.08,0.3 -0.24,0.39 0.09,0.03 0.17,0.08 0.23,0.16 0.06,0.08 0.09,0.17 0.09,0.28 0,0.16 -0.06,0.29 -0.18,0.39 -0.12,0.1 -0.28,0.16 -0.48,0.16 -0.34,0 -0.56,-0.18 -0.67,-0.54zm0.34 -1.41l0 -0.25 0.23 0 0 0.25 -0.23 0zm0.46 0l0 -0.25 0.23 0 0 0.25 -0.23 0z"/>
  <path id="_35" class="fil1 str0" d="M2.37 5.49l-0.03 -0.21c0.05,0.01 0.09,0.02 0.13,0.02 0.05,0 0.09,-0.01 0.12,-0.02 0.03,-0.02 0.05,-0.04 0.07,-0.07 0.01,-0.02 0.04,-0.08 0.07,-0.17 0,-0.01 0.01,-0.03 0.02,-0.05l-0.5 -1.31 0.24 0 0.27 0.76c0.04,0.1 0.07,0.2 0.1,0.3 0.03,-0.1 0.06,-0.2 0.09,-0.29l0.28 -0.76 0.22 0 -0.5 1.33c-0.05,0.14 -0.1,0.24 -0.12,0.3 -0.04,0.07 -0.08,0.13 -0.14,0.16 -0.05,0.03 -0.11,0.05 -0.18,0.05 -0.04,0 -0.09,-0.01 -0.14,-0.03z"/>
  <path id="_36" class="fil1 str0" d="M3.56 3.68l0.22 0 0 0.25c0,0.11 0.01,0.18 0.02,0.23 0.01,0.05 0.04,0.09 0.09,0.13 0.05,0.04 0.11,0.05 0.18,0.05 0.08,0 0.19,-0.02 0.33,-0.07l0 -0.59 0.22 0 0 1.31 -0.22 0 0 -0.53c-0.14,0.04 -0.26,0.06 -0.38,0.06 -0.1,0 -0.19,-0.03 -0.26,-0.08 -0.08,-0.05 -0.13,-0.11 -0.16,-0.19 -0.03,-0.07 -0.04,-0.15 -0.04,-0.24l0 -0.34z"/>
  <path id="_37" class="fil1 str0" d="M5.65 3.68l0.22 0 0 0.57c0.07,0 0.12,-0.01 0.15,-0.04 0.03,-0.03 0.07,-0.11 0.13,-0.24 0.04,-0.1 0.08,-0.17 0.11,-0.2 0.03,-0.03 0.06,-0.06 0.09,-0.07 0.04,-0.01 0.09,-0.02 0.17,-0.02l0.04 0 0 0.18 -0.06 -0c-0.06,0 -0.1,0.01 -0.11,0.03 -0.02,0.02 -0.04,0.07 -0.08,0.16 -0.03,0.09 -0.06,0.15 -0.09,0.18 -0.03,0.03 -0.07,0.06 -0.13,0.09 0.1,0.03 0.19,0.11 0.28,0.27l0.24 0.41 -0.24 0 -0.24 -0.4c-0.05,-0.08 -0.09,-0.14 -0.13,-0.16 -0.04,-0.03 -0.08,-0.04 -0.13,-0.04l0 0.61 -0.22 0 0 -1.31z"/>
  <path id="_38" class="fil1 str0" d="M7.67 4.83c-0.08,0.07 -0.16,0.12 -0.24,0.15 -0.08,0.03 -0.16,0.04 -0.25,0.04 -0.14,0 -0.25,-0.03 -0.33,-0.11 -0.08,-0.07 -0.12,-0.16 -0.12,-0.27 0,-0.06 0.01,-0.12 0.04,-0.18 0.03,-0.05 0.07,-0.1 0.11,-0.13 0.05,-0.03 0.1,-0.06 0.16,-0.07 0.04,-0.01 0.11,-0.02 0.2,-0.03 0.18,-0.02 0.31,-0.05 0.4,-0.08 0,-0.03 0,-0.05 0,-0.06 0,-0.09 -0.02,-0.15 -0.06,-0.19 -0.06,-0.05 -0.14,-0.07 -0.25,-0.07 -0.1,0 -0.18,0.02 -0.23,0.06 -0.05,0.04 -0.09,0.1 -0.11,0.19l-0.22 -0.03c0.02,-0.09 0.05,-0.17 0.1,-0.23 0.05,-0.06 0.11,-0.1 0.2,-0.13 0.09,-0.03 0.19,-0.05 0.3,-0.05 0.11,0 0.2,0.01 0.27,0.04 0.07,0.03 0.12,0.06 0.15,0.1 0.03,0.04 0.06,0.09 0.07,0.15 0.01,0.04 0.01,0.11 0.01,0.2l0 0.29c0,0.21 0,0.34 0.01,0.39 0.01,0.06 0.03,0.11 0.05,0.16l-0.23 0c-0.02,-0.05 -0.04,-0.1 -0.04,-0.16zm-0.02 -0.49c-0.08,0.03 -0.2,0.06 -0.36,0.08 -0.09,0.01 -0.16,0.03 -0.19,0.04 -0.04,0.02 -0.07,0.04 -0.09,0.07 -0.02,0.03 -0.03,0.07 -0.03,0.11 0,0.06 0.02,0.11 0.07,0.15 0.05,0.04 0.11,0.06 0.2,0.06 0.09,0 0.16,-0.02 0.23,-0.06 0.07,-0.04 0.12,-0.09 0.15,-0.15 0.02,-0.05 0.04,-0.12 0.04,-0.22l0 -0.08z"/>
  <path id="_39" class="fil1 str0" d="M8.33 3.68l1.03 0 0 1.31 -0.22 0 0 -1.12 -0.59 0 0 0.65c0,0.15 -0.01,0.25 -0.01,0.3 -0.01,0.05 -0.04,0.09 -0.08,0.13 -0.04,0.04 -0.11,0.05 -0.19,0.05 -0.05,0 -0.11,-0 -0.18,-0.01l0 -0.18 0.1 0c0.05,0 0.08,-0 0.1,-0.01 0.02,-0.01 0.03,-0.02 0.04,-0.05 0.01,-0.02 0.01,-0.09 0.01,-0.2l0 -0.86z"/>
  <path id="_40" class="fil1 str0" d="M10.94 3.68l0.22 0 0 1.31 -0.22 0 0 -1.31zm-1.24 0l0.22 0 0 0.51 0.28 0c0.18,0 0.32,0.04 0.42,0.11 0.1,0.07 0.15,0.17 0.15,0.29 0,0.11 -0.04,0.2 -0.12,0.28 -0.08,0.08 -0.21,0.12 -0.4,0.12l-0.55 0 0 -1.31zm0.22 1.13l0.23 0c0.14,0 0.24,-0.02 0.3,-0.05 0.06,-0.03 0.09,-0.09 0.09,-0.16 0,-0.06 -0.02,-0.11 -0.07,-0.15 -0.04,-0.04 -0.14,-0.07 -0.29,-0.07l-0.26 0 0 0.43z"/>
  <path id="_41" class="fil1 str0" d="M11.5 3.68l0.22 0 0 0.57c0.07,0 0.12,-0.01 0.15,-0.04 0.03,-0.03 0.07,-0.11 0.13,-0.24 0.04,-0.1 0.08,-0.17 0.11,-0.2 0.03,-0.03 0.06,-0.06 0.09,-0.07 0.04,-0.01 0.09,-0.02 0.17,-0.02l0.04 0 0 0.18 -0.06 -0c-0.06,0 -0.1,0.01 -0.11,0.03 -0.02,0.02 -0.04,0.07 -0.08,0.16 -0.03,0.09 -0.06,0.15 -0.09,0.18 -0.03,0.03 -0.07,0.06 -0.13,0.09 0.1,0.03 0.19,0.11 0.28,0.27l0.24 0.41 -0.24 0 -0.24 -0.4c-0.05,-0.08 -0.09,-0.14 -0.13,-0.16 -0.04,-0.03 -0.08,-0.04 -0.13,-0.04l0 0.61 -0.22 0 0 -1.31z"/>
  <path id="_42" class="fil1 str0" d="M13.31 3.68l0.51 0c0.13,0 0.22,0.01 0.28,0.03 0.06,0.02 0.11,0.06 0.16,0.12 0.04,0.06 0.07,0.12 0.07,0.2 0,0.06 -0.01,0.12 -0.04,0.16 -0.03,0.05 -0.06,0.09 -0.12,0.12 0.06,0.02 0.11,0.06 0.15,0.12 0.04,0.06 0.06,0.12 0.06,0.2 -0.01,0.12 -0.05,0.22 -0.13,0.28 -0.08,0.06 -0.2,0.09 -0.35,0.09l-0.59 0 0 -1.31zm0.22 0.55l0.24 0c0.09,0 0.16,-0.01 0.19,-0.01 0.04,-0.01 0.07,-0.03 0.09,-0.06 0.03,-0.03 0.04,-0.07 0.04,-0.11 0,-0.07 -0.02,-0.12 -0.07,-0.14 -0.05,-0.03 -0.13,-0.04 -0.25,-0.04l-0.24 0 0 0.37zm0 0.58l0.29 0c0.13,0 0.21,-0.01 0.26,-0.04 0.05,-0.03 0.07,-0.08 0.07,-0.15 0,-0.04 -0.01,-0.08 -0.04,-0.12 -0.03,-0.04 -0.06,-0.06 -0.11,-0.07 -0.04,-0.01 -0.11,-0.01 -0.21,-0.01l-0.27 0 0 0.39z"/>
  <path id="_43" class="fil1 str0" d="M15.9 3.68l0.22 0 0 1.31 -0.22 0 0 -1.31zm-1.24 0l0.22 0 0 0.51 0.28 0c0.18,0 0.32,0.04 0.42,0.11 0.1,0.07 0.15,0.17 0.15,0.29 0,0.11 -0.04,0.2 -0.12,0.28 -0.08,0.08 -0.21,0.12 -0.4,0.12l-0.55 0 0 -1.31zm0.22 1.13l0.23 0c0.14,0 0.24,-0.02 0.3,-0.05 0.06,-0.03 0.09,-0.09 0.09,-0.16 0,-0.06 -0.02,-0.11 -0.07,-0.15 -0.04,-0.04 -0.14,-0.07 -0.29,-0.07l-0.26 0 0 0.43z"/>
  <path id="_44" class="fil1 str0" d="M17.26 3.68l0 0.57c0.07,0 0.12,-0.01 0.15,-0.04 0.03,-0.03 0.07,-0.11 0.12,-0.24 0.05,-0.12 0.1,-0.2 0.14,-0.24 0.04,-0.03 0.1,-0.05 0.19,-0.05l0.08 0 0 0.18 -0.06 -0c-0.06,0 -0.1,0.01 -0.11,0.03 -0.02,0.02 -0.04,0.07 -0.08,0.16 -0.03,0.09 -0.06,0.14 -0.09,0.18 -0.03,0.03 -0.07,0.06 -0.13,0.09 0.1,0.03 0.19,0.11 0.28,0.27l0.24 0.41 -0.24 0 -0.24 -0.41c-0.05,-0.08 -0.09,-0.14 -0.13,-0.16 -0.04,-0.03 -0.08,-0.04 -0.13,-0.04l0 0.61 -0.23 0 0 -0.61c-0.05,0 -0.09,0.01 -0.13,0.04 -0.04,0.03 -0.08,0.08 -0.13,0.16l-0.24 0.41 -0.24 0 0.24 -0.41c0.09,-0.15 0.19,-0.24 0.28,-0.27 -0.07,-0.03 -0.11,-0.06 -0.14,-0.1 -0.03,-0.04 -0.07,-0.12 -0.12,-0.26 -0.02,-0.05 -0.04,-0.07 -0.06,-0.08 -0.02,-0.01 -0.05,-0.02 -0.1,-0.02 -0.01,0 -0.03,0 -0.07,0l0 -0.18 0.03 0c0.09,0 0.15,0.01 0.18,0.02 0.03,0.01 0.07,0.03 0.09,0.07 0.03,0.03 0.06,0.1 0.11,0.21 0.05,0.13 0.09,0.21 0.12,0.24 0.03,0.03 0.08,0.04 0.15,0.04l0 -0.57 0.23 0z"/>
  <path id="_45" class="fil1 str0" d="M19.4 3.68l0.22 0 0 1.31 -0.22 0 0 -1.31zm-1.24 0l0.22 0 0 0.51 0.28 0c0.18,0 0.32,0.04 0.42,0.11 0.1,0.07 0.15,0.17 0.15,0.29 0,0.11 -0.04,0.2 -0.12,0.28 -0.08,0.08 -0.21,0.12 -0.4,0.12l-0.55 0 0 -1.31zm0.22 1.13l0.23 0c0.14,0 0.24,-0.02 0.3,-0.05 0.06,-0.03 0.09,-0.09 0.09,-0.16 0,-0.06 -0.02,-0.11 -0.07,-0.15 -0.04,-0.04 -0.14,-0.07 -0.29,-0.07l-0.26 0 0 0.43z"/>
  <path id="_46" class="fil1 str0" d="M19.96 3.68l0.22 0 0 0.57c0.07,0 0.12,-0.01 0.15,-0.04 0.03,-0.03 0.07,-0.11 0.13,-0.24 0.04,-0.1 0.08,-0.17 0.11,-0.2 0.03,-0.03 0.06,-0.06 0.09,-0.07 0.04,-0.01 0.09,-0.02 0.17,-0.02l0.04 0 0 0.18 -0.06 -0c-0.06,0 -0.1,0.01 -0.11,0.03 -0.02,0.02 -0.04,0.07 -0.08,0.16 -0.03,0.09 -0.06,0.15 -0.09,0.18 -0.03,0.03 -0.07,0.06 -0.13,0.09 0.1,0.03 0.19,0.11 0.28,0.27l0.24 0.41 -0.24 0 -0.24 -0.4c-0.05,-0.08 -0.09,-0.14 -0.13,-0.16 -0.04,-0.03 -0.08,-0.04 -0.13,-0.04l0 0.61 -0.22 0 0 -1.31z"/>
  <path id="_47" class="fil1 str0" d="M22.32 3.68l0.22 0 0 1.31 -0.22 0 0 -1.31zm-1.24 0l0.22 0 0 0.51 0.28 0c0.18,0 0.32,0.04 0.42,0.11 0.1,0.07 0.15,0.17 0.15,0.29 0,0.11 -0.04,0.2 -0.12,0.28 -0.08,0.08 -0.21,0.12 -0.4,0.12l-0.55 0 0 -1.31zm0.22 1.13l0.23 0c0.14,0 0.24,-0.02 0.3,-0.05 0.06,-0.03 0.09,-0.09 0.09,-0.16 0,-0.06 -0.02,-0.11 -0.07,-0.15 -0.04,-0.04 -0.14,-0.07 -0.29,-0.07l-0.26 0 0 0.43z"/>
  <path id="_48" class="fil1 str0" d="M22.99 3.68l1.03 0 0 1.31 -0.22 0 0 -1.12 -0.59 0 0 0.65c0,0.15 -0.01,0.25 -0.01,0.3 -0.01,0.05 -0.04,0.09 -0.08,0.13 -0.04,0.04 -0.11,0.05 -0.19,0.05 -0.05,0 -0.11,-0 -0.18,-0.01l0 -0.18 0.1 0c0.05,0 0.08,-0 0.1,-0.01 0.02,-0.01 0.03,-0.02 0.04,-0.05 0.01,-0.02 0.01,-0.09 0.01,-0.2l0 -0.86z"/>
  <path id="_49" class="fil1 str0" d="M24.5 5.52l-0.16 0c0.25,-0.39 0.37,-0.79 0.37,-1.18 0,-0.15 -0.02,-0.31 -0.05,-0.46 -0.03,-0.12 -0.07,-0.24 -0.12,-0.36 -0.03,-0.07 -0.1,-0.2 -0.2,-0.37l0.16 0c0.15,0.21 0.27,0.41 0.34,0.62 0.06,0.18 0.09,0.37 0.09,0.56 0,0.22 -0.04,0.44 -0.13,0.64 -0.08,0.21 -0.19,0.39 -0.31,0.54z"/>
 </g>
</svg>
