<?xml version="1.0" encoding="UTF-8"?>
<!DOCTYPE svg PUBLIC "-//W3C//DTD SVG 1.1//EN" "http://www.w3.org/Graphics/SVG/1.1/DTD/svg11.dtd">
<!-- Creator: CorelDRAW -->
<svg xmlns="http://www.w3.org/2000/svg" xml:space="preserve" width="40.1557mm" height="5.2678mm" version="1.1" style="shape-rendering:geometricPrecision; text-rendering:geometricPrecision; image-rendering:optimizeQuality; fill-rule:evenodd; clip-rule:evenodd"
viewBox="0 0 65.98 8.66"
 xmlns:xlink="http://www.w3.org/1999/xlink"
 xmlns:xodm="http://www.corel.com/coreldraw/odm/2003">
 <defs>
  <style type="text/css">
   <![CDATA[
    .str0 {stroke:#FF6600;stroke-width:0;stroke-miterlimit:22.9256}
    .fil1 {fill:none;fill-rule:nonzero}
    .fil0 {fill:#FF6600;fill-rule:nonzero}
   ]]>
  </style>
 </defs>
 <g id="Слой_x0020_1">
  <metadata id="CorelCorpID_0Corel-Layer"/>
  <path class="fil0" d="M0 0.07l0.4 0 0 1.32c0.18,0 0.31,-0.04 0.38,-0.11 0.07,-0.07 0.17,-0.24 0.28,-0.51 0.08,-0.2 0.15,-0.34 0.21,-0.42 0.05,-0.08 0.13,-0.15 0.23,-0.21 0.1,-0.06 0.21,-0.08 0.33,-0.08 0.15,0 0.23,0 0.24,0l0 0.34c-0.01,0 -0.04,-0 -0.08,-0 -0.04,-0 -0.07,-0 -0.08,-0 -0.13,0 -0.22,0.03 -0.28,0.09 -0.06,0.06 -0.13,0.19 -0.22,0.39 -0.1,0.25 -0.19,0.42 -0.26,0.48 -0.07,0.07 -0.15,0.12 -0.25,0.16 0.19,0.05 0.39,0.23 0.57,0.54l0.62 1 -0.49 0 -0.5 -0.82c-0.14,-0.23 -0.25,-0.38 -0.35,-0.47 -0.09,-0.08 -0.21,-0.13 -0.36,-0.13l0 1.41 -0.4 0 0 -3.01z"/>
  <path id="_1" class="fil0" d="M3.82 2.81c-0.14,0.12 -0.27,0.2 -0.4,0.25 -0.13,0.05 -0.26,0.07 -0.41,0.07 -0.24,0 -0.42,-0.06 -0.55,-0.17 -0.13,-0.12 -0.19,-0.27 -0.19,-0.45 0,-0.11 0.02,-0.2 0.07,-0.29 0.05,-0.09 0.11,-0.16 0.19,-0.21 0.08,-0.05 0.17,-0.09 0.27,-0.12 0.07,-0.02 0.18,-0.04 0.33,-0.06 0.3,-0.03 0.52,-0.08 0.66,-0.13 0,-0.05 0,-0.08 0,-0.1 0,-0.15 -0.03,-0.26 -0.1,-0.32 -0.09,-0.08 -0.24,-0.12 -0.42,-0.12 -0.17,0 -0.3,0.03 -0.39,0.09 -0.08,0.06 -0.14,0.17 -0.18,0.32l-0.36 -0.05c0.03,-0.15 0.09,-0.28 0.16,-0.38 0.08,-0.1 0.18,-0.17 0.33,-0.22 0.14,-0.05 0.31,-0.08 0.5,-0.08 0.19,0 0.34,0.02 0.46,0.07 0.12,0.04 0.2,0.1 0.26,0.17 0.05,0.07 0.09,0.15 0.12,0.25 0.01,0.06 0.02,0.18 0.02,0.34l0 0.49c0,0.34 0.01,0.56 0.02,0.65 0.01,0.09 0.05,0.18 0.09,0.26l-0.39 0c-0.04,-0.08 -0.06,-0.17 -0.07,-0.27zm-0.03 -0.82c-0.13,0.05 -0.34,0.1 -0.61,0.14 -0.15,0.02 -0.26,0.05 -0.32,0.07 -0.06,0.03 -0.11,0.07 -0.15,0.12 -0.03,0.05 -0.05,0.11 -0.05,0.17 0,0.1 0.04,0.18 0.11,0.24 0.07,0.07 0.18,0.1 0.33,0.1 0.14,0 0.27,-0.03 0.38,-0.09 0.11,-0.06 0.19,-0.15 0.24,-0.25 0.04,-0.08 0.06,-0.21 0.06,-0.37l0 -0.13z"/>
  <path id="_2" class="fil0" d="M4.73 0.9l0.37 0 0 0.94c0.12,0 0.2,-0.02 0.25,-0.07 0.05,-0.04 0.12,-0.18 0.21,-0.39 0.07,-0.17 0.13,-0.29 0.18,-0.34 0.05,-0.05 0.1,-0.09 0.16,-0.11 0.06,-0.02 0.15,-0.03 0.28,-0.03l0.07 0 0 0.3 -0.1 -0c-0.1,0 -0.16,0.01 -0.19,0.04 -0.03,0.03 -0.07,0.12 -0.13,0.27 -0.06,0.14 -0.11,0.24 -0.15,0.3 -0.05,0.05 -0.12,0.1 -0.22,0.15 0.16,0.04 0.32,0.19 0.47,0.44l0.41 0.68 -0.41 0 -0.4 -0.67c-0.08,-0.14 -0.15,-0.23 -0.21,-0.27 -0.06,-0.04 -0.13,-0.07 -0.21,-0.07l0 1.01 -0.37 0 0 -2.18z"/>
  <path id="_3" class="fil0" d="M9.16 2.28l0.36 0.05c-0.04,0.25 -0.14,0.44 -0.3,0.58 -0.16,0.14 -0.36,0.21 -0.6,0.21 -0.3,0 -0.54,-0.1 -0.72,-0.29 -0.18,-0.19 -0.27,-0.47 -0.27,-0.84 0,-0.24 0.04,-0.44 0.12,-0.62 0.08,-0.18 0.2,-0.31 0.36,-0.4 0.16,-0.09 0.33,-0.13 0.52,-0.13 0.24,0 0.43,0.06 0.58,0.18 0.15,0.12 0.25,0.29 0.29,0.51l-0.36 0.05c-0.03,-0.15 -0.09,-0.26 -0.18,-0.33 -0.09,-0.07 -0.19,-0.11 -0.31,-0.11 -0.19,0 -0.34,0.07 -0.45,0.2 -0.12,0.13 -0.17,0.34 -0.17,0.63 0,0.29 0.06,0.5 0.17,0.64 0.11,0.13 0.26,0.2 0.44,0.2 0.15,0 0.27,-0.04 0.36,-0.13 0.1,-0.09 0.16,-0.22 0.18,-0.41z"/>
  <path id="_4" class="fil0" d="M9.74 1.99c0,-0.4 0.11,-0.7 0.34,-0.89 0.19,-0.16 0.42,-0.24 0.69,-0.24 0.3,0 0.54,0.1 0.73,0.29 0.19,0.2 0.29,0.47 0.29,0.81 0,0.28 -0.04,0.5 -0.13,0.66 -0.08,0.16 -0.21,0.28 -0.37,0.37 -0.16,0.09 -0.34,0.13 -0.53,0.13 -0.31,0 -0.55,-0.1 -0.74,-0.29 -0.19,-0.2 -0.28,-0.48 -0.28,-0.84zm0.38 0c0,0.28 0.06,0.49 0.18,0.63 0.12,0.14 0.28,0.21 0.46,0.21 0.18,0 0.34,-0.07 0.46,-0.21 0.12,-0.14 0.18,-0.35 0.18,-0.64 0,-0.27 -0.06,-0.47 -0.18,-0.61 -0.12,-0.14 -0.28,-0.21 -0.46,-0.21 -0.19,0 -0.34,0.07 -0.46,0.21 -0.12,0.14 -0.18,0.35 -0.18,0.62z"/>
  <path id="_5" class="fil0" d="M13.81 0l0.33 0c-0.01,0.15 -0.05,0.25 -0.1,0.31 -0.05,0.06 -0.11,0.09 -0.19,0.11 -0.08,0.02 -0.23,0.02 -0.46,0.02 -0.3,0 -0.51,0.03 -0.62,0.09 -0.11,0.06 -0.19,0.15 -0.24,0.28 -0.05,0.13 -0.07,0.3 -0.08,0.5 0.09,-0.14 0.2,-0.24 0.33,-0.31 0.12,-0.07 0.26,-0.1 0.42,-0.1 0.29,0 0.52,0.1 0.71,0.29 0.19,0.2 0.28,0.46 0.28,0.8 0,0.25 -0.05,0.46 -0.14,0.63 -0.09,0.16 -0.21,0.29 -0.34,0.38 -0.13,0.09 -0.31,0.13 -0.53,0.13 -0.26,0 -0.46,-0.06 -0.6,-0.18 -0.14,-0.12 -0.25,-0.27 -0.33,-0.45 -0.08,-0.18 -0.11,-0.51 -0.11,-0.96 0,-0.57 0.1,-0.96 0.29,-1.16 0.19,-0.2 0.49,-0.3 0.9,-0.3 0.25,0 0.39,-0 0.43,-0.01 0.03,-0.01 0.06,-0.03 0.07,-0.06zm-0.01 1.98c0,-0.23 -0.05,-0.41 -0.16,-0.56 -0.11,-0.14 -0.26,-0.22 -0.45,-0.22 -0.2,0 -0.36,0.08 -0.47,0.23 -0.11,0.15 -0.17,0.36 -0.17,0.61 0,0.25 0.06,0.45 0.18,0.58 0.12,0.13 0.27,0.2 0.45,0.2 0.18,0 0.33,-0.08 0.45,-0.23 0.11,-0.15 0.17,-0.36 0.17,-0.62z"/>
  <path id="_6" class="fil0" d="M15.95 2.81c-0.14,0.12 -0.27,0.2 -0.4,0.25 -0.13,0.05 -0.26,0.07 -0.41,0.07 -0.24,0 -0.42,-0.06 -0.55,-0.17 -0.13,-0.12 -0.19,-0.27 -0.19,-0.45 0,-0.11 0.02,-0.2 0.07,-0.29 0.05,-0.09 0.11,-0.16 0.19,-0.21 0.08,-0.05 0.17,-0.09 0.27,-0.12 0.07,-0.02 0.18,-0.04 0.33,-0.06 0.3,-0.03 0.52,-0.08 0.66,-0.13 0,-0.05 0,-0.08 0,-0.1 0,-0.15 -0.03,-0.26 -0.1,-0.32 -0.09,-0.08 -0.24,-0.12 -0.42,-0.12 -0.17,0 -0.3,0.03 -0.39,0.09 -0.08,0.06 -0.14,0.17 -0.18,0.32l-0.36 -0.05c0.03,-0.15 0.09,-0.28 0.16,-0.38 0.08,-0.1 0.18,-0.17 0.33,-0.22 0.14,-0.05 0.31,-0.08 0.5,-0.08 0.19,0 0.34,0.02 0.46,0.07 0.12,0.04 0.2,0.1 0.26,0.17 0.05,0.07 0.09,0.15 0.12,0.25 0.01,0.06 0.02,0.18 0.02,0.34l0 0.49c0,0.34 0.01,0.56 0.02,0.65 0.01,0.09 0.05,0.18 0.09,0.26l-0.39 0c-0.04,-0.08 -0.06,-0.17 -0.07,-0.27zm-0.03 -0.82c-0.13,0.05 -0.34,0.1 -0.61,0.14 -0.15,0.02 -0.26,0.05 -0.32,0.07 -0.06,0.03 -0.11,0.07 -0.15,0.12 -0.03,0.05 -0.05,0.11 -0.05,0.17 0,0.1 0.04,0.18 0.11,0.24 0.07,0.07 0.18,0.1 0.33,0.1 0.14,0 0.27,-0.03 0.38,-0.09 0.11,-0.06 0.19,-0.15 0.24,-0.25 0.04,-0.08 0.06,-0.21 0.06,-0.37l0 -0.13z"/>
  <path id="_7" class="fil0" d="M16.86 0.9l0.37 0 0 0.94c0.12,0 0.2,-0.02 0.25,-0.07 0.05,-0.04 0.12,-0.18 0.21,-0.39 0.07,-0.17 0.13,-0.29 0.18,-0.34 0.05,-0.05 0.1,-0.09 0.16,-0.11 0.06,-0.02 0.15,-0.03 0.28,-0.03l0.07 0 0 0.3 -0.1 -0c-0.1,0 -0.16,0.01 -0.19,0.04 -0.03,0.03 -0.07,0.12 -0.13,0.27 -0.06,0.14 -0.11,0.24 -0.15,0.3 -0.05,0.05 -0.12,0.1 -0.22,0.15 0.16,0.04 0.32,0.19 0.47,0.44l0.41 0.68 -0.41 0 -0.4 -0.67c-0.08,-0.14 -0.15,-0.23 -0.21,-0.27 -0.06,-0.04 -0.13,-0.07 -0.21,-0.07l0 1.01 -0.37 0 0 -2.18z"/>
  <path id="_8" class="fil0" d="M20.22 2.81c-0.14,0.12 -0.27,0.2 -0.4,0.25 -0.13,0.05 -0.26,0.07 -0.41,0.07 -0.24,0 -0.42,-0.06 -0.55,-0.17 -0.13,-0.12 -0.19,-0.27 -0.19,-0.45 0,-0.11 0.02,-0.2 0.07,-0.29 0.05,-0.09 0.11,-0.16 0.19,-0.21 0.08,-0.05 0.17,-0.09 0.27,-0.12 0.07,-0.02 0.18,-0.04 0.33,-0.06 0.3,-0.03 0.52,-0.08 0.66,-0.13 0,-0.05 0,-0.08 0,-0.1 0,-0.15 -0.03,-0.26 -0.1,-0.32 -0.09,-0.08 -0.24,-0.12 -0.42,-0.12 -0.17,0 -0.3,0.03 -0.39,0.09 -0.08,0.06 -0.14,0.17 -0.18,0.32l-0.36 -0.05c0.03,-0.15 0.09,-0.28 0.16,-0.38 0.08,-0.1 0.18,-0.17 0.33,-0.22 0.14,-0.05 0.31,-0.08 0.5,-0.08 0.19,0 0.34,0.02 0.46,0.07 0.12,0.04 0.2,0.1 0.26,0.17 0.05,0.07 0.09,0.15 0.12,0.25 0.01,0.06 0.02,0.18 0.02,0.34l0 0.49c0,0.34 0.01,0.56 0.02,0.65 0.01,0.09 0.05,0.18 0.09,0.26l-0.39 0c-0.04,-0.08 -0.06,-0.17 -0.07,-0.27zm-0.03 -0.82c-0.13,0.05 -0.34,0.1 -0.61,0.14 -0.15,0.02 -0.26,0.05 -0.32,0.07 -0.06,0.03 -0.11,0.07 -0.15,0.12 -0.03,0.05 -0.05,0.11 -0.05,0.17 0,0.1 0.04,0.18 0.11,0.24 0.07,0.07 0.18,0.1 0.33,0.1 0.14,0 0.27,-0.03 0.38,-0.09 0.11,-0.06 0.19,-0.15 0.24,-0.25 0.04,-0.08 0.06,-0.21 0.06,-0.37l0 -0.13z"/>
  <path id="_9" class="fil0" d="M23.72 2.28l0.36 0.05c-0.04,0.25 -0.14,0.44 -0.3,0.58 -0.16,0.14 -0.36,0.21 -0.6,0.21 -0.3,0 -0.54,-0.1 -0.72,-0.29 -0.18,-0.19 -0.27,-0.47 -0.27,-0.84 0,-0.24 0.04,-0.44 0.12,-0.62 0.08,-0.18 0.2,-0.31 0.36,-0.4 0.16,-0.09 0.33,-0.13 0.52,-0.13 0.24,0 0.43,0.06 0.58,0.18 0.15,0.12 0.25,0.29 0.29,0.51l-0.36 0.05c-0.03,-0.15 -0.09,-0.26 -0.18,-0.33 -0.09,-0.07 -0.19,-0.11 -0.31,-0.11 -0.19,0 -0.34,0.07 -0.45,0.2 -0.12,0.13 -0.17,0.34 -0.17,0.63 0,0.29 0.06,0.5 0.17,0.64 0.11,0.13 0.26,0.2 0.44,0.2 0.15,0 0.27,-0.04 0.36,-0.13 0.1,-0.09 0.16,-0.22 0.18,-0.41z"/>
  <path id="_10" class="fil0" d="M25.89 2.37l0.38 0.05c-0.06,0.22 -0.17,0.4 -0.33,0.52 -0.16,0.12 -0.37,0.18 -0.62,0.18 -0.32,0 -0.57,-0.1 -0.76,-0.29 -0.19,-0.2 -0.28,-0.47 -0.28,-0.82 0,-0.37 0.09,-0.65 0.28,-0.85 0.19,-0.2 0.43,-0.3 0.73,-0.3 0.29,0 0.53,0.1 0.71,0.3 0.18,0.2 0.28,0.48 0.28,0.84 0,0.02 -0,0.05 -0,0.1l-1.62 0c0.01,0.24 0.08,0.42 0.2,0.55 0.12,0.13 0.27,0.19 0.45,0.19 0.14,0 0.25,-0.04 0.35,-0.11 0.1,-0.07 0.17,-0.19 0.23,-0.34zm-1.21 -0.59l1.21 0c-0.02,-0.18 -0.06,-0.32 -0.14,-0.41 -0.12,-0.14 -0.27,-0.21 -0.46,-0.21 -0.17,0 -0.31,0.06 -0.43,0.17 -0.11,0.11 -0.18,0.27 -0.19,0.46z"/>
  <path id="_11" class="fil0" d="M28.28 0l0.33 0c-0.01,0.15 -0.05,0.25 -0.1,0.31 -0.05,0.06 -0.11,0.09 -0.19,0.11 -0.08,0.02 -0.23,0.02 -0.46,0.02 -0.3,0 -0.51,0.03 -0.62,0.09 -0.11,0.06 -0.19,0.15 -0.24,0.28 -0.05,0.13 -0.07,0.3 -0.08,0.5 0.09,-0.14 0.2,-0.24 0.33,-0.31 0.12,-0.07 0.26,-0.1 0.42,-0.1 0.29,0 0.52,0.1 0.71,0.29 0.19,0.2 0.28,0.46 0.28,0.8 0,0.25 -0.05,0.46 -0.14,0.63 -0.09,0.16 -0.21,0.29 -0.34,0.38 -0.13,0.09 -0.31,0.13 -0.53,0.13 -0.26,0 -0.46,-0.06 -0.6,-0.18 -0.14,-0.12 -0.25,-0.27 -0.33,-0.45 -0.08,-0.18 -0.11,-0.51 -0.11,-0.96 0,-0.57 0.1,-0.96 0.29,-1.16 0.19,-0.2 0.49,-0.3 0.9,-0.3 0.25,0 0.39,-0 0.43,-0.01 0.03,-0.01 0.06,-0.03 0.07,-0.06zm-0.01 1.98c0,-0.23 -0.05,-0.41 -0.16,-0.56 -0.11,-0.14 -0.26,-0.22 -0.45,-0.22 -0.2,0 -0.36,0.08 -0.47,0.23 -0.11,0.15 -0.17,0.36 -0.17,0.61 0,0.25 0.06,0.45 0.18,0.58 0.12,0.13 0.27,0.2 0.45,0.2 0.18,0 0.33,-0.08 0.45,-0.23 0.11,-0.15 0.17,-0.36 0.17,-0.62z"/>
  <path id="_12" class="fil0" d="M30.54 2.37l0.38 0.05c-0.06,0.22 -0.17,0.4 -0.33,0.52 -0.16,0.12 -0.37,0.18 -0.62,0.18 -0.32,0 -0.57,-0.1 -0.76,-0.29 -0.19,-0.2 -0.28,-0.47 -0.28,-0.82 0,-0.37 0.09,-0.65 0.28,-0.85 0.19,-0.2 0.43,-0.3 0.73,-0.3 0.29,0 0.53,0.1 0.71,0.3 0.18,0.2 0.28,0.48 0.28,0.84 0,0.02 -0,0.05 -0,0.1l-1.62 0c0.01,0.24 0.08,0.42 0.2,0.55 0.12,0.13 0.27,0.19 0.45,0.19 0.14,0 0.25,-0.04 0.35,-0.11 0.1,-0.07 0.17,-0.19 0.23,-0.34zm-1.21 -0.59l1.21 0c-0.02,-0.18 -0.06,-0.32 -0.14,-0.41 -0.12,-0.14 -0.27,-0.21 -0.46,-0.21 -0.17,0 -0.31,0.06 -0.43,0.17 -0.11,0.11 -0.18,0.27 -0.19,0.46z"/>
  <polygon id="_13" class="fil0" points="32.36,0.9 34.13,0.9 34.13,1.21 33.43,1.21 33.43,3.08 33.06,3.08 33.06,1.21 32.36,1.21 "/>
  <path id="_14" class="fil0" d="M34.29 1.99c0,-0.4 0.11,-0.7 0.34,-0.89 0.19,-0.16 0.42,-0.24 0.69,-0.24 0.3,0 0.54,0.1 0.73,0.29 0.19,0.2 0.29,0.47 0.29,0.81 0,0.28 -0.04,0.5 -0.13,0.66 -0.08,0.16 -0.21,0.28 -0.37,0.37 -0.16,0.09 -0.34,0.13 -0.53,0.13 -0.31,0 -0.55,-0.1 -0.74,-0.29 -0.19,-0.2 -0.28,-0.48 -0.28,-0.84zm0.38 0c0,0.28 0.06,0.49 0.18,0.63 0.12,0.14 0.28,0.21 0.46,0.21 0.18,0 0.34,-0.07 0.46,-0.21 0.12,-0.14 0.18,-0.35 0.18,-0.64 0,-0.27 -0.06,-0.47 -0.18,-0.61 -0.12,-0.14 -0.28,-0.21 -0.46,-0.21 -0.19,0 -0.34,0.07 -0.46,0.21 -0.12,0.14 -0.18,0.35 -0.18,0.62z"/>
  <path id="_15" class="fil0" d="M36.77 0.9l0.85 0c0.21,0 0.36,0.02 0.47,0.05 0.1,0.03 0.19,0.1 0.26,0.19 0.07,0.09 0.11,0.21 0.11,0.34 0,0.1 -0.02,0.2 -0.06,0.27 -0.04,0.08 -0.11,0.14 -0.19,0.19 0.1,0.03 0.19,0.1 0.25,0.19 0.07,0.09 0.1,0.2 0.1,0.33 -0.01,0.21 -0.09,0.36 -0.22,0.46 -0.13,0.1 -0.33,0.15 -0.58,0.15l-0.98 0 0 -2.18zm0.37 0.92l0.39 0c0.16,0 0.26,-0.01 0.32,-0.02 0.06,-0.02 0.11,-0.05 0.16,-0.1 0.05,-0.05 0.07,-0.11 0.07,-0.18 0,-0.12 -0.04,-0.2 -0.12,-0.24 -0.08,-0.05 -0.22,-0.07 -0.42,-0.07l-0.4 0 0 0.61zm0 0.96l0.49 0c0.21,0 0.35,-0.02 0.43,-0.07 0.08,-0.05 0.12,-0.13 0.12,-0.25 0,-0.07 -0.02,-0.13 -0.07,-0.19 -0.05,-0.06 -0.1,-0.1 -0.18,-0.11 -0.07,-0.02 -0.19,-0.02 -0.35,-0.02l-0.45 0 0 0.66z"/>
  <path id="_16" class="fil0" d="M40.38 2.81c-0.14,0.12 -0.27,0.2 -0.4,0.25 -0.13,0.05 -0.26,0.07 -0.41,0.07 -0.24,0 -0.42,-0.06 -0.55,-0.17 -0.13,-0.12 -0.19,-0.27 -0.19,-0.45 0,-0.11 0.02,-0.2 0.07,-0.29 0.05,-0.09 0.11,-0.16 0.19,-0.21 0.08,-0.05 0.17,-0.09 0.27,-0.12 0.07,-0.02 0.18,-0.04 0.33,-0.06 0.3,-0.03 0.52,-0.08 0.66,-0.13 0,-0.05 0,-0.08 0,-0.1 0,-0.15 -0.03,-0.26 -0.1,-0.32 -0.09,-0.08 -0.24,-0.12 -0.42,-0.12 -0.17,0 -0.3,0.03 -0.39,0.09 -0.08,0.06 -0.14,0.17 -0.18,0.32l-0.36 -0.05c0.03,-0.15 0.09,-0.28 0.16,-0.38 0.08,-0.1 0.18,-0.17 0.33,-0.22 0.14,-0.05 0.31,-0.08 0.5,-0.08 0.19,0 0.34,0.02 0.46,0.07 0.12,0.04 0.2,0.1 0.26,0.17 0.05,0.07 0.09,0.15 0.12,0.25 0.01,0.06 0.02,0.18 0.02,0.34l0 0.49c0,0.34 0.01,0.56 0.02,0.65 0.01,0.09 0.05,0.18 0.09,0.26l-0.39 0c-0.04,-0.08 -0.06,-0.17 -0.07,-0.27zm-0.03 -0.82c-0.13,0.05 -0.34,0.1 -0.61,0.14 -0.15,0.02 -0.26,0.05 -0.32,0.07 -0.06,0.03 -0.11,0.07 -0.15,0.12 -0.03,0.05 -0.05,0.11 -0.05,0.17 0,0.1 0.04,0.18 0.11,0.24 0.07,0.07 0.18,0.1 0.33,0.1 0.14,0 0.27,-0.03 0.38,-0.09 0.11,-0.06 0.19,-0.15 0.24,-0.25 0.04,-0.08 0.06,-0.21 0.06,-0.37l0 -0.13z"/>
  <path id="_17" class="fil0" d="M41.29 3.92l0 -3.02 0.34 0 0 0.29c0.08,-0.11 0.17,-0.19 0.27,-0.25 0.1,-0.06 0.22,-0.08 0.36,-0.08 0.19,0 0.35,0.05 0.49,0.14 0.14,0.1 0.25,0.23 0.32,0.4 0.07,0.17 0.11,0.36 0.11,0.57 0,0.22 -0.04,0.42 -0.12,0.6 -0.08,0.18 -0.2,0.31 -0.35,0.41 -0.15,0.09 -0.31,0.14 -0.48,0.14 -0.12,0 -0.23,-0.03 -0.33,-0.08 -0.1,-0.05 -0.18,-0.12 -0.24,-0.2l0 1.06 -0.37 0zm0.34 -1.91c0,0.28 0.06,0.49 0.17,0.62 0.11,0.13 0.25,0.2 0.41,0.2 0.16,0 0.3,-0.07 0.42,-0.21 0.12,-0.14 0.17,-0.35 0.17,-0.64 0,-0.28 -0.06,-0.48 -0.17,-0.62 -0.11,-0.14 -0.25,-0.21 -0.41,-0.21 -0.16,0 -0.3,0.07 -0.42,0.22 -0.12,0.15 -0.18,0.36 -0.18,0.64z"/>
  <polygon id="_18" class="fil0" points="43.63,0.9 44,0.9 44,2.56 45.02,0.9 45.42,0.9 45.42,3.08 45.05,3.08 45.05,1.43 44.02,3.08 43.63,3.08 "/>
  <polygon id="_19" class="fil0" points="45.99,0.9 46.36,0.9 46.36,2.78 47.2,2.78 47.2,0.9 47.57,0.9 47.57,2.78 48.41,2.78 48.41,0.9 48.78,0.9 48.78,2.78 49.02,2.78 49.02,3.7 48.71,3.7 48.71,3.08 45.99,3.08 "/>
  <path id="_20" class="fil0" d="M50.85 2.81c-0.14,0.12 -0.27,0.2 -0.4,0.25 -0.13,0.05 -0.26,0.07 -0.41,0.07 -0.24,0 -0.42,-0.06 -0.55,-0.17 -0.13,-0.12 -0.19,-0.27 -0.19,-0.45 0,-0.11 0.02,-0.2 0.07,-0.29 0.05,-0.09 0.11,-0.16 0.19,-0.21 0.08,-0.05 0.17,-0.09 0.27,-0.12 0.07,-0.02 0.18,-0.04 0.33,-0.06 0.3,-0.03 0.52,-0.08 0.66,-0.13 0,-0.05 0,-0.08 0,-0.1 0,-0.15 -0.03,-0.26 -0.1,-0.32 -0.09,-0.08 -0.24,-0.12 -0.42,-0.12 -0.17,0 -0.3,0.03 -0.39,0.09 -0.08,0.06 -0.14,0.17 -0.18,0.32l-0.36 -0.05c0.03,-0.15 0.09,-0.28 0.16,-0.38 0.08,-0.1 0.18,-0.17 0.33,-0.22 0.14,-0.05 0.31,-0.08 0.5,-0.08 0.19,0 0.34,0.02 0.46,0.07 0.12,0.04 0.2,0.1 0.26,0.17 0.05,0.07 0.09,0.15 0.12,0.25 0.01,0.06 0.02,0.18 0.02,0.34l0 0.49c0,0.34 0.01,0.56 0.02,0.65 0.01,0.09 0.05,0.18 0.09,0.26l-0.39 0c-0.04,-0.08 -0.06,-0.17 -0.07,-0.27zm-0.03 -0.82c-0.13,0.05 -0.34,0.1 -0.61,0.14 -0.15,0.02 -0.26,0.05 -0.32,0.07 -0.06,0.03 -0.11,0.07 -0.15,0.12 -0.03,0.05 -0.05,0.11 -0.05,0.17 0,0.1 0.04,0.18 0.11,0.24 0.07,0.07 0.18,0.1 0.33,0.1 0.14,0 0.27,-0.03 0.38,-0.09 0.11,-0.06 0.19,-0.15 0.24,-0.25 0.04,-0.08 0.06,-0.21 0.06,-0.37l0 -0.13z"/>
  <polygon id="_21" class="fil0" points="52.93,0.9 53.3,0.9 53.3,2.56 54.33,0.9 54.73,0.9 54.73,3.08 54.36,3.08 54.36,1.43 53.33,3.08 52.93,3.08 "/>
  <path id="_22" class="fil0" d="M56.71 2.28l0.36 0.05c-0.04,0.25 -0.14,0.44 -0.3,0.58 -0.16,0.14 -0.36,0.21 -0.6,0.21 -0.3,0 -0.54,-0.1 -0.72,-0.29 -0.18,-0.19 -0.27,-0.47 -0.27,-0.84 0,-0.24 0.04,-0.44 0.12,-0.62 0.08,-0.18 0.2,-0.31 0.36,-0.4 0.16,-0.09 0.33,-0.13 0.52,-0.13 0.24,0 0.43,0.06 0.58,0.18 0.15,0.12 0.25,0.29 0.29,0.51l-0.36 0.05c-0.03,-0.15 -0.09,-0.26 -0.18,-0.33 -0.09,-0.07 -0.19,-0.11 -0.31,-0.11 -0.19,0 -0.34,0.07 -0.45,0.2 -0.12,0.13 -0.17,0.34 -0.17,0.63 0,0.29 0.06,0.5 0.17,0.64 0.11,0.13 0.26,0.2 0.44,0.2 0.15,0 0.27,-0.04 0.36,-0.13 0.1,-0.09 0.16,-0.22 0.18,-0.41z"/>
  <path id="_23" class="fil0" d="M57.38 0.9l0.37 0 0 0.94c0.12,0 0.2,-0.02 0.25,-0.07 0.05,-0.04 0.12,-0.18 0.21,-0.39 0.07,-0.17 0.13,-0.29 0.18,-0.34 0.05,-0.05 0.1,-0.09 0.16,-0.11 0.06,-0.02 0.15,-0.03 0.28,-0.03l0.07 0 0 0.3 -0.1 -0c-0.1,0 -0.16,0.01 -0.19,0.04 -0.03,0.03 -0.07,0.12 -0.13,0.27 -0.06,0.14 -0.11,0.24 -0.15,0.3 -0.05,0.05 -0.12,0.1 -0.22,0.15 0.16,0.04 0.32,0.19 0.47,0.44l0.41 0.68 -0.41 0 -0.4 -0.67c-0.08,-0.14 -0.15,-0.23 -0.21,-0.27 -0.06,-0.04 -0.13,-0.07 -0.21,-0.07l0 1.01 -0.37 0 0 -2.18z"/>
  <path id="_24" class="fil0" d="M60.74 2.81c-0.14,0.12 -0.27,0.2 -0.4,0.25 -0.13,0.05 -0.26,0.07 -0.41,0.07 -0.24,0 -0.42,-0.06 -0.55,-0.17 -0.13,-0.12 -0.19,-0.27 -0.19,-0.45 0,-0.11 0.02,-0.2 0.07,-0.29 0.05,-0.09 0.11,-0.16 0.19,-0.21 0.08,-0.05 0.17,-0.09 0.27,-0.12 0.07,-0.02 0.18,-0.04 0.33,-0.06 0.3,-0.03 0.52,-0.08 0.66,-0.13 0,-0.05 0,-0.08 0,-0.1 0,-0.15 -0.03,-0.26 -0.1,-0.32 -0.09,-0.08 -0.24,-0.12 -0.42,-0.12 -0.17,0 -0.3,0.03 -0.39,0.09 -0.08,0.06 -0.14,0.17 -0.18,0.32l-0.36 -0.05c0.03,-0.15 0.09,-0.28 0.16,-0.38 0.08,-0.1 0.18,-0.17 0.33,-0.22 0.14,-0.05 0.31,-0.08 0.5,-0.08 0.19,0 0.34,0.02 0.46,0.07 0.12,0.04 0.2,0.1 0.26,0.17 0.05,0.07 0.09,0.15 0.12,0.25 0.01,0.06 0.02,0.18 0.02,0.34l0 0.49c0,0.34 0.01,0.56 0.02,0.65 0.01,0.09 0.05,0.18 0.09,0.26l-0.39 0c-0.04,-0.08 -0.06,-0.17 -0.07,-0.27zm-0.03 -0.82c-0.13,0.05 -0.34,0.1 -0.61,0.14 -0.15,0.02 -0.26,0.05 -0.32,0.07 -0.06,0.03 -0.11,0.07 -0.15,0.12 -0.03,0.05 -0.05,0.11 -0.05,0.17 0,0.1 0.04,0.18 0.11,0.24 0.07,0.07 0.18,0.1 0.33,0.1 0.14,0 0.27,-0.03 0.38,-0.09 0.11,-0.06 0.19,-0.15 0.24,-0.25 0.04,-0.08 0.06,-0.21 0.06,-0.37l0 -0.13z"/>
  <path id="_25" class="fil0" d="M61.83 0.9l1.72 0 0 2.18 -0.37 0 0 -1.87 -0.98 0 0 1.08c0,0.25 -0.01,0.42 -0.02,0.5 -0.02,0.08 -0.06,0.15 -0.14,0.21 -0.07,0.06 -0.18,0.09 -0.32,0.09 -0.09,0 -0.19,-0.01 -0.3,-0.02l0 -0.31 0.16 0c0.08,0 0.13,-0.01 0.16,-0.02 0.03,-0.02 0.05,-0.04 0.07,-0.07 0.01,-0.03 0.02,-0.15 0.02,-0.33l0 -1.44z"/>
  <path id="_26" class="fil0" d="M65.52 2.81c-0.14,0.12 -0.27,0.2 -0.4,0.25 -0.13,0.05 -0.26,0.07 -0.41,0.07 -0.24,0 -0.42,-0.06 -0.55,-0.17 -0.13,-0.12 -0.19,-0.27 -0.19,-0.45 0,-0.11 0.02,-0.2 0.07,-0.29 0.05,-0.09 0.11,-0.16 0.19,-0.21 0.08,-0.05 0.17,-0.09 0.27,-0.12 0.07,-0.02 0.18,-0.04 0.33,-0.06 0.3,-0.03 0.52,-0.08 0.66,-0.13 0,-0.05 0,-0.08 0,-0.1 0,-0.15 -0.03,-0.26 -0.1,-0.32 -0.09,-0.08 -0.24,-0.12 -0.42,-0.12 -0.17,0 -0.3,0.03 -0.39,0.09 -0.08,0.06 -0.14,0.17 -0.18,0.32l-0.36 -0.05c0.03,-0.15 0.09,-0.28 0.16,-0.38 0.08,-0.1 0.18,-0.17 0.33,-0.22 0.14,-0.05 0.31,-0.08 0.5,-0.08 0.19,0 0.34,0.02 0.46,0.07 0.12,0.04 0.2,0.1 0.26,0.17 0.05,0.07 0.09,0.15 0.12,0.25 0.01,0.06 0.02,0.18 0.02,0.34l0 0.49c0,0.34 0.01,0.56 0.02,0.65 0.01,0.09 0.05,0.18 0.09,0.26l-0.39 0c-0.04,-0.08 -0.06,-0.17 -0.07,-0.27zm-0.03 -0.82c-0.13,0.05 -0.34,0.1 -0.61,0.14 -0.15,0.02 -0.26,0.05 -0.32,0.07 -0.06,0.03 -0.11,0.07 -0.15,0.12 -0.03,0.05 -0.05,0.11 -0.05,0.17 0,0.1 0.04,0.18 0.11,0.24 0.07,0.07 0.18,0.1 0.33,0.1 0.14,0 0.27,-0.03 0.38,-0.09 0.11,-0.06 0.19,-0.15 0.24,-0.25 0.04,-0.08 0.06,-0.21 0.06,-0.37l0 -0.13z"/>
  <path id="_27" class="fil0" d="M16.53 8.66c-0.2,-0.26 -0.38,-0.56 -0.52,-0.9 -0.14,-0.34 -0.21,-0.7 -0.21,-1.07 0,-0.33 0.05,-0.64 0.16,-0.93 0.12,-0.35 0.31,-0.69 0.57,-1.03l0.26 0c-0.17,0.28 -0.28,0.49 -0.33,0.61 -0.08,0.19 -0.15,0.39 -0.2,0.59 -0.06,0.26 -0.09,0.51 -0.09,0.77 0,0.66 0.2,1.31 0.61,1.97l-0.26 0z"/>
  <polygon id="_28" class="fil0" points="17.22,5.59 17.59,5.59 17.59,6.5 18.61,6.5 18.61,5.59 18.98,5.59 18.98,7.77 18.61,7.77 18.61,6.81 17.59,6.81 17.59,7.77 17.22,7.77 "/>
  <path id="_29" class="fil0" d="M21.03 7.07l0.38 0.05c-0.06,0.22 -0.17,0.4 -0.33,0.52 -0.16,0.12 -0.37,0.18 -0.62,0.18 -0.32,0 -0.57,-0.1 -0.76,-0.29 -0.19,-0.2 -0.28,-0.47 -0.28,-0.82 0,-0.37 0.09,-0.65 0.28,-0.85 0.19,-0.2 0.43,-0.3 0.73,-0.3 0.29,0 0.53,0.1 0.71,0.3 0.18,0.2 0.28,0.48 0.28,0.84 0,0.02 -0,0.05 -0,0.1l-1.62 0c0.01,0.24 0.08,0.42 0.2,0.55 0.12,0.13 0.27,0.19 0.45,0.19 0.14,0 0.25,-0.04 0.35,-0.11 0.1,-0.07 0.17,-0.19 0.23,-0.34zm-1.21 -0.59l1.21 0c-0.02,-0.18 -0.06,-0.32 -0.14,-0.41 -0.12,-0.14 -0.27,-0.21 -0.46,-0.21 -0.17,0 -0.31,0.06 -0.43,0.17 -0.11,0.11 -0.18,0.27 -0.19,0.46z"/>
  <polygon id="_30" class="fil0" points="21.88,5.59 22.25,5.59 22.25,6.5 23.27,6.5 23.27,5.59 23.64,5.59 23.64,7.77 23.27,7.77 23.27,6.81 22.25,6.81 22.25,7.77 21.88,7.77 "/>
  <path id="_31" class="fil0" d="M25.68 7.07l0.38 0.05c-0.06,0.22 -0.17,0.4 -0.33,0.52 -0.16,0.12 -0.37,0.18 -0.62,0.18 -0.32,0 -0.57,-0.1 -0.76,-0.29 -0.19,-0.2 -0.28,-0.47 -0.28,-0.82 0,-0.37 0.09,-0.65 0.28,-0.85 0.19,-0.2 0.43,-0.3 0.73,-0.3 0.29,0 0.53,0.1 0.71,0.3 0.18,0.2 0.28,0.48 0.28,0.84 0,0.02 -0,0.05 -0,0.1l-1.62 0c0.01,0.24 0.08,0.42 0.2,0.55 0.12,0.13 0.27,0.19 0.45,0.19 0.14,0 0.25,-0.04 0.35,-0.11 0.1,-0.07 0.17,-0.19 0.23,-0.34zm-1.21 -0.59l1.21 0c-0.02,-0.18 -0.06,-0.32 -0.14,-0.41 -0.12,-0.14 -0.27,-0.21 -0.46,-0.21 -0.17,0 -0.31,0.06 -0.43,0.17 -0.11,0.11 -0.18,0.27 -0.19,0.46z"/>
  <polygon id="_32" class="fil0" points="26.54,5.59 26.91,5.59 26.91,7.47 27.93,7.47 27.93,5.59 28.3,5.59 28.3,7.47 28.54,7.47 28.54,8.39 28.24,8.39 28.24,7.77 26.54,7.77 "/>
  <path id="_33" class="fil0" d="M28.94 5.59l0.37 0 0 0.94c0.12,0 0.2,-0.02 0.25,-0.07 0.05,-0.04 0.12,-0.18 0.21,-0.39 0.07,-0.17 0.13,-0.29 0.18,-0.34 0.05,-0.05 0.1,-0.09 0.16,-0.11 0.06,-0.02 0.15,-0.03 0.28,-0.03l0.07 0 0 0.3 -0.1 -0c-0.1,0 -0.16,0.01 -0.19,0.04 -0.03,0.03 -0.07,0.12 -0.13,0.27 -0.06,0.14 -0.11,0.24 -0.15,0.3 -0.05,0.05 -0.12,0.1 -0.22,0.15 0.16,0.04 0.32,0.19 0.47,0.44l0.41 0.68 -0.41 0 -0.4 -0.67c-0.08,-0.14 -0.15,-0.23 -0.21,-0.27 -0.06,-0.04 -0.13,-0.07 -0.21,-0.07l0 1.01 -0.37 0 0 -2.18z"/>
  <path id="_34" class="fil0" d="M32.29 7.5c-0.14,0.12 -0.27,0.2 -0.4,0.25 -0.13,0.05 -0.26,0.07 -0.41,0.07 -0.24,0 -0.42,-0.06 -0.55,-0.17 -0.13,-0.12 -0.19,-0.27 -0.19,-0.45 0,-0.11 0.02,-0.2 0.07,-0.29 0.05,-0.09 0.11,-0.16 0.19,-0.21 0.08,-0.05 0.17,-0.09 0.27,-0.12 0.07,-0.02 0.18,-0.04 0.33,-0.06 0.3,-0.03 0.52,-0.08 0.66,-0.13 0,-0.05 0,-0.08 0,-0.1 0,-0.15 -0.03,-0.26 -0.1,-0.32 -0.09,-0.08 -0.24,-0.12 -0.42,-0.12 -0.17,0 -0.3,0.03 -0.39,0.09 -0.08,0.06 -0.14,0.17 -0.18,0.32l-0.36 -0.05c0.03,-0.15 0.09,-0.28 0.16,-0.38 0.08,-0.1 0.18,-0.17 0.33,-0.22 0.14,-0.05 0.31,-0.08 0.5,-0.08 0.19,0 0.34,0.02 0.46,0.07 0.12,0.04 0.2,0.1 0.26,0.17 0.05,0.07 0.09,0.15 0.12,0.25 0.01,0.06 0.02,0.18 0.02,0.34l0 0.49c0,0.34 0.01,0.56 0.02,0.65 0.01,0.09 0.05,0.18 0.09,0.26l-0.39 0c-0.04,-0.08 -0.06,-0.17 -0.07,-0.27zm-0.03 -0.82c-0.13,0.05 -0.34,0.1 -0.61,0.14 -0.15,0.02 -0.26,0.05 -0.32,0.07 -0.06,0.03 -0.11,0.07 -0.15,0.12 -0.03,0.05 -0.05,0.11 -0.05,0.17 0,0.1 0.04,0.18 0.11,0.24 0.07,0.07 0.18,0.1 0.33,0.1 0.14,0 0.27,-0.03 0.38,-0.09 0.11,-0.06 0.19,-0.15 0.24,-0.25 0.04,-0.08 0.06,-0.21 0.06,-0.37l0 -0.13z"/>
  <path id="_35" class="fil0" d="M34.93 5.59l0 2.18 -0.37 0 0 -0.85 -0.21 0c-0.13,0 -0.23,0.02 -0.29,0.05 -0.06,0.03 -0.16,0.14 -0.28,0.32l-0.32 0.47 -0.46 0 0.4 -0.59c0.12,-0.18 0.24,-0.28 0.36,-0.3 -0.21,-0.03 -0.37,-0.1 -0.47,-0.23 -0.1,-0.12 -0.15,-0.27 -0.15,-0.43 0,-0.19 0.07,-0.34 0.2,-0.46 0.13,-0.12 0.33,-0.18 0.58,-0.18l1.01 0zm-0.37 0.31l-0.53 0c-0.22,0 -0.36,0.03 -0.43,0.1 -0.06,0.07 -0.1,0.15 -0.1,0.24 0,0.13 0.05,0.23 0.14,0.29 0.09,0.06 0.26,0.09 0.5,0.09l0.41 0 0 -0.72z"/>
  <path id="_36" class="fil0" d="M38.07 6.98l0.36 0.05c-0.04,0.25 -0.14,0.44 -0.3,0.58 -0.16,0.14 -0.36,0.21 -0.6,0.21 -0.3,0 -0.54,-0.1 -0.72,-0.29 -0.18,-0.19 -0.27,-0.47 -0.27,-0.84 0,-0.24 0.04,-0.44 0.12,-0.62 0.08,-0.18 0.2,-0.31 0.36,-0.4 0.16,-0.09 0.33,-0.13 0.52,-0.13 0.24,0 0.43,0.06 0.58,0.18 0.15,0.12 0.25,0.29 0.29,0.51l-0.36 0.05c-0.03,-0.15 -0.09,-0.26 -0.18,-0.33 -0.09,-0.07 -0.19,-0.11 -0.31,-0.11 -0.19,0 -0.34,0.07 -0.45,0.2 -0.12,0.13 -0.17,0.34 -0.17,0.63 0,0.29 0.06,0.5 0.17,0.64 0.11,0.13 0.26,0.2 0.44,0.2 0.15,0 0.27,-0.04 0.36,-0.13 0.1,-0.09 0.16,-0.22 0.18,-0.41z"/>
  <path id="_37" class="fil0" d="M38.75 5.59l0.37 0 0 0.94c0.12,0 0.2,-0.02 0.25,-0.07 0.05,-0.04 0.12,-0.18 0.21,-0.39 0.07,-0.17 0.13,-0.29 0.18,-0.34 0.05,-0.05 0.1,-0.09 0.16,-0.11 0.06,-0.02 0.15,-0.03 0.28,-0.03l0.07 0 0 0.3 -0.1 -0c-0.1,0 -0.16,0.01 -0.19,0.04 -0.03,0.03 -0.07,0.12 -0.13,0.27 -0.06,0.14 -0.11,0.24 -0.15,0.3 -0.05,0.05 -0.12,0.1 -0.22,0.15 0.16,0.04 0.32,0.19 0.47,0.44l0.41 0.68 -0.41 0 -0.4 -0.67c-0.08,-0.14 -0.15,-0.23 -0.21,-0.27 -0.06,-0.04 -0.13,-0.07 -0.21,-0.07l0 1.01 -0.37 0 0 -2.18z"/>
  <path id="_38" class="fil0" d="M42.1 7.5c-0.14,0.12 -0.27,0.2 -0.4,0.25 -0.13,0.05 -0.26,0.07 -0.41,0.07 -0.24,0 -0.42,-0.06 -0.55,-0.17 -0.13,-0.12 -0.19,-0.27 -0.19,-0.45 0,-0.11 0.02,-0.2 0.07,-0.29 0.05,-0.09 0.11,-0.16 0.19,-0.21 0.08,-0.05 0.17,-0.09 0.27,-0.12 0.07,-0.02 0.18,-0.04 0.33,-0.06 0.3,-0.03 0.52,-0.08 0.66,-0.13 0,-0.05 0,-0.08 0,-0.1 0,-0.15 -0.03,-0.26 -0.1,-0.32 -0.09,-0.08 -0.24,-0.12 -0.42,-0.12 -0.17,0 -0.3,0.03 -0.39,0.09 -0.08,0.06 -0.14,0.17 -0.18,0.32l-0.36 -0.05c0.03,-0.15 0.09,-0.28 0.16,-0.38 0.08,-0.1 0.18,-0.17 0.33,-0.22 0.14,-0.05 0.31,-0.08 0.5,-0.08 0.19,0 0.34,0.02 0.46,0.07 0.12,0.04 0.2,0.1 0.26,0.17 0.05,0.07 0.09,0.15 0.12,0.25 0.01,0.06 0.02,0.18 0.02,0.34l0 0.49c0,0.34 0.01,0.56 0.02,0.65 0.01,0.09 0.05,0.18 0.09,0.26l-0.39 0c-0.04,-0.08 -0.06,-0.17 -0.07,-0.27zm-0.03 -0.82c-0.13,0.05 -0.34,0.1 -0.61,0.14 -0.15,0.02 -0.26,0.05 -0.32,0.07 -0.06,0.03 -0.11,0.07 -0.15,0.12 -0.03,0.05 -0.05,0.11 -0.05,0.17 0,0.1 0.04,0.18 0.11,0.24 0.07,0.07 0.18,0.1 0.33,0.1 0.14,0 0.27,-0.03 0.38,-0.09 0.11,-0.06 0.19,-0.15 0.24,-0.25 0.04,-0.08 0.06,-0.21 0.06,-0.37l0 -0.13z"/>
  <path id="_39" class="fil0" d="M43.45 6.79l0 -0.29c0.16,-0 0.26,-0.01 0.32,-0.02 0.06,-0.01 0.11,-0.04 0.16,-0.1 0.05,-0.05 0.08,-0.12 0.08,-0.2 0,-0.1 -0.03,-0.18 -0.1,-0.24 -0.07,-0.06 -0.15,-0.09 -0.26,-0.09 -0.21,0 -0.35,0.12 -0.44,0.37l-0.35 -0.06c0.11,-0.41 0.37,-0.61 0.79,-0.61 0.23,0 0.41,0.06 0.55,0.19 0.13,0.13 0.2,0.28 0.2,0.45 0,0.18 -0.09,0.32 -0.26,0.42 0.11,0.06 0.19,0.13 0.25,0.22 0.05,0.09 0.08,0.2 0.08,0.32 0,0.2 -0.07,0.35 -0.21,0.48 -0.14,0.12 -0.34,0.18 -0.6,0.18 -0.5,0 -0.79,-0.22 -0.86,-0.66l0.35 -0.08c0.03,0.14 0.1,0.25 0.19,0.32 0.1,0.08 0.21,0.11 0.33,0.11 0.12,0 0.23,-0.03 0.31,-0.11 0.08,-0.07 0.12,-0.16 0.12,-0.27 0,-0.08 -0.03,-0.16 -0.08,-0.22 -0.05,-0.06 -0.11,-0.1 -0.17,-0.12 -0.06,-0.02 -0.17,-0.02 -0.32,-0.02 -0.01,0 -0.04,0 -0.08,0z"/>
  <path id="_40" class="fil0" d="M44.89 5.59l0.37 0 0 0.94c0.12,0 0.2,-0.02 0.25,-0.07 0.05,-0.04 0.12,-0.18 0.21,-0.39 0.07,-0.17 0.13,-0.29 0.18,-0.34 0.05,-0.05 0.1,-0.09 0.16,-0.11 0.06,-0.02 0.15,-0.03 0.28,-0.03l0.07 0 0 0.3 -0.1 -0c-0.1,0 -0.16,0.01 -0.19,0.04 -0.03,0.03 -0.07,0.12 -0.13,0.27 -0.06,0.14 -0.11,0.24 -0.15,0.3 -0.05,0.05 -0.12,0.1 -0.22,0.15 0.16,0.04 0.32,0.19 0.47,0.44l0.41 0.68 -0.41 0 -0.4 -0.67c-0.08,-0.14 -0.15,-0.23 -0.21,-0.27 -0.06,-0.04 -0.13,-0.07 -0.21,-0.07l0 1.01 -0.37 0 0 -2.18z"/>
  <path id="_41" class="fil0" d="M48.25 7.5c-0.14,0.12 -0.27,0.2 -0.4,0.25 -0.13,0.05 -0.26,0.07 -0.41,0.07 -0.24,0 -0.42,-0.06 -0.55,-0.17 -0.13,-0.12 -0.19,-0.27 -0.19,-0.45 0,-0.11 0.02,-0.2 0.07,-0.29 0.05,-0.09 0.11,-0.16 0.19,-0.21 0.08,-0.05 0.17,-0.09 0.27,-0.12 0.07,-0.02 0.18,-0.04 0.33,-0.06 0.3,-0.03 0.52,-0.08 0.66,-0.13 0,-0.05 0,-0.08 0,-0.1 0,-0.15 -0.03,-0.26 -0.1,-0.32 -0.09,-0.08 -0.24,-0.12 -0.42,-0.12 -0.17,0 -0.3,0.03 -0.39,0.09 -0.08,0.06 -0.14,0.17 -0.18,0.32l-0.36 -0.05c0.03,-0.15 0.09,-0.28 0.16,-0.38 0.08,-0.1 0.18,-0.17 0.33,-0.22 0.14,-0.05 0.31,-0.08 0.5,-0.08 0.19,0 0.34,0.02 0.46,0.07 0.12,0.04 0.2,0.1 0.26,0.17 0.05,0.07 0.09,0.15 0.12,0.25 0.01,0.06 0.02,0.18 0.02,0.34l0 0.49c0,0.34 0.01,0.56 0.02,0.65 0.01,0.09 0.05,0.18 0.09,0.26l-0.39 0c-0.04,-0.08 -0.06,-0.17 -0.07,-0.27zm-0.03 -0.82c-0.13,0.05 -0.34,0.1 -0.61,0.14 -0.15,0.02 -0.26,0.05 -0.32,0.07 -0.06,0.03 -0.11,0.07 -0.15,0.12 -0.03,0.05 -0.05,0.11 -0.05,0.17 0,0.1 0.04,0.18 0.11,0.24 0.07,0.07 0.18,0.1 0.33,0.1 0.14,0 0.27,-0.03 0.38,-0.09 0.11,-0.06 0.19,-0.15 0.24,-0.25 0.04,-0.08 0.06,-0.21 0.06,-0.37l0 -0.13z"/>
  <path id="_42" class="fil0" d="M49.41 8.66l-0.26 0c0.41,-0.66 0.61,-1.31 0.61,-1.97 0,-0.26 -0.03,-0.51 -0.09,-0.76 -0.05,-0.21 -0.11,-0.4 -0.19,-0.59 -0.05,-0.12 -0.16,-0.33 -0.33,-0.61l0.26 0c0.26,0.34 0.45,0.69 0.57,1.03 0.1,0.3 0.16,0.61 0.16,0.93 0,0.37 -0.07,0.73 -0.21,1.07 -0.14,0.34 -0.31,0.64 -0.51,0.9z"/>
  <path id="_43" class="fil1 str0" d="M0 0.07l0.4 0 0 1.32c0.18,0 0.31,-0.04 0.38,-0.11 0.07,-0.07 0.17,-0.24 0.28,-0.51 0.08,-0.2 0.15,-0.34 0.21,-0.42 0.05,-0.08 0.13,-0.15 0.23,-0.21 0.1,-0.06 0.21,-0.08 0.33,-0.08 0.15,0 0.23,0 0.24,0l0 0.34c-0.01,0 -0.04,-0 -0.08,-0 -0.04,-0 -0.07,-0 -0.08,-0 -0.13,0 -0.22,0.03 -0.28,0.09 -0.06,0.06 -0.13,0.19 -0.22,0.39 -0.1,0.25 -0.19,0.42 -0.26,0.48 -0.07,0.07 -0.15,0.12 -0.25,0.16 0.19,0.05 0.39,0.23 0.57,0.54l0.62 1 -0.49 0 -0.5 -0.82c-0.14,-0.23 -0.25,-0.38 -0.35,-0.47 -0.09,-0.08 -0.21,-0.13 -0.36,-0.13l0 1.41 -0.4 0 0 -3.01z"/>
  <path id="_44" class="fil1 str0" d="M3.82 2.81c-0.14,0.12 -0.27,0.2 -0.4,0.25 -0.13,0.05 -0.26,0.07 -0.41,0.07 -0.24,0 -0.42,-0.06 -0.55,-0.17 -0.13,-0.12 -0.19,-0.27 -0.19,-0.45 0,-0.11 0.02,-0.2 0.07,-0.29 0.05,-0.09 0.11,-0.16 0.19,-0.21 0.08,-0.05 0.17,-0.09 0.27,-0.12 0.07,-0.02 0.18,-0.04 0.33,-0.06 0.3,-0.03 0.52,-0.08 0.66,-0.13 0,-0.05 0,-0.08 0,-0.1 0,-0.15 -0.03,-0.26 -0.1,-0.32 -0.09,-0.08 -0.24,-0.12 -0.42,-0.12 -0.17,0 -0.3,0.03 -0.39,0.09 -0.08,0.06 -0.14,0.17 -0.18,0.32l-0.36 -0.05c0.03,-0.15 0.09,-0.28 0.16,-0.38 0.08,-0.1 0.18,-0.17 0.33,-0.22 0.14,-0.05 0.31,-0.08 0.5,-0.08 0.19,0 0.34,0.02 0.46,0.07 0.12,0.04 0.2,0.1 0.26,0.17 0.05,0.07 0.09,0.15 0.12,0.25 0.01,0.06 0.02,0.18 0.02,0.34l0 0.49c0,0.34 0.01,0.56 0.02,0.65 0.01,0.09 0.05,0.18 0.09,0.26l-0.39 0c-0.04,-0.08 -0.06,-0.17 -0.07,-0.27zm-0.03 -0.82c-0.13,0.05 -0.34,0.1 -0.61,0.14 -0.15,0.02 -0.26,0.05 -0.32,0.07 -0.06,0.03 -0.11,0.07 -0.15,0.12 -0.03,0.05 -0.05,0.11 -0.05,0.17 0,0.1 0.04,0.18 0.11,0.24 0.07,0.07 0.18,0.1 0.33,0.1 0.14,0 0.27,-0.03 0.38,-0.09 0.11,-0.06 0.19,-0.15 0.24,-0.25 0.04,-0.08 0.06,-0.21 0.06,-0.37l0 -0.13z"/>
  <path id="_45" class="fil1 str0" d="M4.73 0.9l0.37 0 0 0.94c0.12,0 0.2,-0.02 0.25,-0.07 0.05,-0.04 0.12,-0.18 0.21,-0.39 0.07,-0.17 0.13,-0.29 0.18,-0.34 0.05,-0.05 0.1,-0.09 0.16,-0.11 0.06,-0.02 0.15,-0.03 0.28,-0.03l0.07 0 0 0.3 -0.1 -0c-0.1,0 -0.16,0.01 -0.19,0.04 -0.03,0.03 -0.07,0.12 -0.13,0.27 -0.06,0.14 -0.11,0.24 -0.15,0.3 -0.05,0.05 -0.12,0.1 -0.22,0.15 0.16,0.04 0.32,0.19 0.47,0.44l0.41 0.68 -0.41 0 -0.4 -0.67c-0.08,-0.14 -0.15,-0.23 -0.21,-0.27 -0.06,-0.04 -0.13,-0.07 -0.21,-0.07l0 1.01 -0.37 0 0 -2.18z"/>
  <path id="_46" class="fil1 str0" d="M9.16 2.28l0.36 0.05c-0.04,0.25 -0.14,0.44 -0.3,0.58 -0.16,0.14 -0.36,0.21 -0.6,0.21 -0.3,0 -0.54,-0.1 -0.72,-0.29 -0.18,-0.19 -0.27,-0.47 -0.27,-0.84 0,-0.24 0.04,-0.44 0.12,-0.62 0.08,-0.18 0.2,-0.31 0.36,-0.4 0.16,-0.09 0.33,-0.13 0.52,-0.13 0.24,0 0.43,0.06 0.58,0.18 0.15,0.12 0.25,0.29 0.29,0.51l-0.36 0.05c-0.03,-0.15 -0.09,-0.26 -0.18,-0.33 -0.09,-0.07 -0.19,-0.11 -0.31,-0.11 -0.19,0 -0.34,0.07 -0.45,0.2 -0.12,0.13 -0.17,0.34 -0.17,0.63 0,0.29 0.06,0.5 0.17,0.64 0.11,0.13 0.26,0.2 0.44,0.2 0.15,0 0.27,-0.04 0.36,-0.13 0.1,-0.09 0.16,-0.22 0.18,-0.41z"/>
  <path id="_47" class="fil1 str0" d="M9.74 1.99c0,-0.4 0.11,-0.7 0.34,-0.89 0.19,-0.16 0.42,-0.24 0.69,-0.24 0.3,0 0.54,0.1 0.73,0.29 0.19,0.2 0.29,0.47 0.29,0.81 0,0.28 -0.04,0.5 -0.13,0.66 -0.08,0.16 -0.21,0.28 -0.37,0.37 -0.16,0.09 -0.34,0.13 -0.53,0.13 -0.31,0 -0.55,-0.1 -0.74,-0.29 -0.19,-0.2 -0.28,-0.48 -0.28,-0.84zm0.38 0c0,0.28 0.06,0.49 0.18,0.63 0.12,0.14 0.28,0.21 0.46,0.21 0.18,0 0.34,-0.07 0.46,-0.21 0.12,-0.14 0.18,-0.35 0.18,-0.64 0,-0.27 -0.06,-0.47 -0.18,-0.61 -0.12,-0.14 -0.28,-0.21 -0.46,-0.21 -0.19,0 -0.34,0.07 -0.46,0.21 -0.12,0.14 -0.18,0.35 -0.18,0.62z"/>
  <path id="_48" class="fil1 str0" d="M13.81 0l0.33 0c-0.01,0.15 -0.05,0.25 -0.1,0.31 -0.05,0.06 -0.11,0.09 -0.19,0.11 -0.08,0.02 -0.23,0.02 -0.46,0.02 -0.3,0 -0.51,0.03 -0.62,0.09 -0.11,0.06 -0.19,0.15 -0.24,0.28 -0.05,0.13 -0.07,0.3 -0.08,0.5 0.09,-0.14 0.2,-0.24 0.33,-0.31 0.12,-0.07 0.26,-0.1 0.42,-0.1 0.29,0 0.52,0.1 0.71,0.29 0.19,0.2 0.28,0.46 0.28,0.8 0,0.25 -0.05,0.46 -0.14,0.63 -0.09,0.16 -0.21,0.29 -0.34,0.38 -0.13,0.09 -0.31,0.13 -0.53,0.13 -0.26,0 -0.46,-0.06 -0.6,-0.18 -0.14,-0.12 -0.25,-0.27 -0.33,-0.45 -0.08,-0.18 -0.11,-0.51 -0.11,-0.96 0,-0.57 0.1,-0.96 0.29,-1.16 0.19,-0.2 0.49,-0.3 0.9,-0.3 0.25,0 0.39,-0 0.43,-0.01 0.03,-0.01 0.06,-0.03 0.07,-0.06zm-0.01 1.98c0,-0.23 -0.05,-0.41 -0.16,-0.56 -0.11,-0.14 -0.26,-0.22 -0.45,-0.22 -0.2,0 -0.36,0.08 -0.47,0.23 -0.11,0.15 -0.17,0.36 -0.17,0.61 0,0.25 0.06,0.45 0.18,0.58 0.12,0.13 0.27,0.2 0.45,0.2 0.18,0 0.33,-0.08 0.45,-0.23 0.11,-0.15 0.17,-0.36 0.17,-0.62z"/>
  <path id="_49" class="fil1 str0" d="M15.95 2.81c-0.14,0.12 -0.27,0.2 -0.4,0.25 -0.13,0.05 -0.26,0.07 -0.41,0.07 -0.24,0 -0.42,-0.06 -0.55,-0.17 -0.13,-0.12 -0.19,-0.27 -0.19,-0.45 0,-0.11 0.02,-0.2 0.07,-0.29 0.05,-0.09 0.11,-0.16 0.19,-0.21 0.08,-0.05 0.17,-0.09 0.27,-0.12 0.07,-0.02 0.18,-0.04 0.33,-0.06 0.3,-0.03 0.52,-0.08 0.66,-0.13 0,-0.05 0,-0.08 0,-0.1 0,-0.15 -0.03,-0.26 -0.1,-0.32 -0.09,-0.08 -0.24,-0.12 -0.42,-0.12 -0.17,0 -0.3,0.03 -0.39,0.09 -0.08,0.06 -0.14,0.17 -0.18,0.32l-0.36 -0.05c0.03,-0.15 0.09,-0.28 0.16,-0.38 0.08,-0.1 0.18,-0.17 0.33,-0.22 0.14,-0.05 0.31,-0.08 0.5,-0.08 0.19,0 0.34,0.02 0.46,0.07 0.12,0.04 0.2,0.1 0.26,0.17 0.05,0.07 0.09,0.15 0.12,0.25 0.01,0.06 0.02,0.18 0.02,0.34l0 0.49c0,0.34 0.01,0.56 0.02,0.65 0.01,0.09 0.05,0.18 0.09,0.26l-0.39 0c-0.04,-0.08 -0.06,-0.17 -0.07,-0.27zm-0.03 -0.82c-0.13,0.05 -0.34,0.1 -0.61,0.14 -0.15,0.02 -0.26,0.05 -0.32,0.07 -0.06,0.03 -0.11,0.07 -0.15,0.12 -0.03,0.05 -0.05,0.11 -0.05,0.17 0,0.1 0.04,0.18 0.11,0.24 0.07,0.07 0.18,0.1 0.33,0.1 0.14,0 0.27,-0.03 0.38,-0.09 0.11,-0.06 0.19,-0.15 0.24,-0.25 0.04,-0.08 0.06,-0.21 0.06,-0.37l0 -0.13z"/>
  <path id="_50" class="fil1 str0" d="M16.86 0.9l0.37 0 0 0.94c0.12,0 0.2,-0.02 0.25,-0.07 0.05,-0.04 0.12,-0.18 0.21,-0.39 0.07,-0.17 0.13,-0.29 0.18,-0.34 0.05,-0.05 0.1,-0.09 0.16,-0.11 0.06,-0.02 0.15,-0.03 0.28,-0.03l0.07 0 0 0.3 -0.1 -0c-0.1,0 -0.16,0.01 -0.19,0.04 -0.03,0.03 -0.07,0.12 -0.13,0.27 -0.06,0.14 -0.11,0.24 -0.15,0.3 -0.05,0.05 -0.12,0.1 -0.22,0.15 0.16,0.04 0.32,0.19 0.47,0.44l0.41 0.68 -0.41 0 -0.4 -0.67c-0.08,-0.14 -0.15,-0.23 -0.21,-0.27 -0.06,-0.04 -0.13,-0.07 -0.21,-0.07l0 1.01 -0.37 0 0 -2.18z"/>
  <path id="_51" class="fil1 str0" d="M20.22 2.81c-0.14,0.12 -0.27,0.2 -0.4,0.25 -0.13,0.05 -0.26,0.07 -0.41,0.07 -0.24,0 -0.42,-0.06 -0.55,-0.17 -0.13,-0.12 -0.19,-0.27 -0.19,-0.45 0,-0.11 0.02,-0.2 0.07,-0.29 0.05,-0.09 0.11,-0.16 0.19,-0.21 0.08,-0.05 0.17,-0.09 0.27,-0.12 0.07,-0.02 0.18,-0.04 0.33,-0.06 0.3,-0.03 0.52,-0.08 0.66,-0.13 0,-0.05 0,-0.08 0,-0.1 0,-0.15 -0.03,-0.26 -0.1,-0.32 -0.09,-0.08 -0.24,-0.12 -0.42,-0.12 -0.17,0 -0.3,0.03 -0.39,0.09 -0.08,0.06 -0.14,0.17 -0.18,0.32l-0.36 -0.05c0.03,-0.15 0.09,-0.28 0.16,-0.38 0.08,-0.1 0.18,-0.17 0.33,-0.22 0.14,-0.05 0.31,-0.08 0.5,-0.08 0.19,0 0.34,0.02 0.46,0.07 0.12,0.04 0.2,0.1 0.26,0.17 0.05,0.07 0.09,0.15 0.12,0.25 0.01,0.06 0.02,0.18 0.02,0.34l0 0.49c0,0.34 0.01,0.56 0.02,0.65 0.01,0.09 0.05,0.18 0.09,0.26l-0.39 0c-0.04,-0.08 -0.06,-0.17 -0.07,-0.27zm-0.03 -0.82c-0.13,0.05 -0.34,0.1 -0.61,0.14 -0.15,0.02 -0.26,0.05 -0.32,0.07 -0.06,0.03 -0.11,0.07 -0.15,0.12 -0.03,0.05 -0.05,0.11 -0.05,0.17 0,0.1 0.04,0.18 0.11,0.24 0.07,0.07 0.18,0.1 0.33,0.1 0.14,0 0.27,-0.03 0.38,-0.09 0.11,-0.06 0.19,-0.15 0.24,-0.25 0.04,-0.08 0.06,-0.21 0.06,-0.37l0 -0.13z"/>
  <path id="_52" class="fil1 str0" d="M23.72 2.28l0.36 0.05c-0.04,0.25 -0.14,0.44 -0.3,0.58 -0.16,0.14 -0.36,0.21 -0.6,0.21 -0.3,0 -0.54,-0.1 -0.72,-0.29 -0.18,-0.19 -0.27,-0.47 -0.27,-0.84 0,-0.24 0.04,-0.44 0.12,-0.62 0.08,-0.18 0.2,-0.31 0.36,-0.4 0.16,-0.09 0.33,-0.13 0.52,-0.13 0.24,0 0.43,0.06 0.58,0.18 0.15,0.12 0.25,0.29 0.29,0.51l-0.36 0.05c-0.03,-0.15 -0.09,-0.26 -0.18,-0.33 -0.09,-0.07 -0.19,-0.11 -0.31,-0.11 -0.19,0 -0.34,0.07 -0.45,0.2 -0.12,0.13 -0.17,0.34 -0.17,0.63 0,0.29 0.06,0.5 0.17,0.64 0.11,0.13 0.26,0.2 0.44,0.2 0.15,0 0.27,-0.04 0.36,-0.13 0.1,-0.09 0.16,-0.22 0.18,-0.41z"/>
  <path id="_53" class="fil1 str0" d="M25.89 2.37l0.38 0.05c-0.06,0.22 -0.17,0.4 -0.33,0.52 -0.16,0.12 -0.37,0.18 -0.62,0.18 -0.32,0 -0.57,-0.1 -0.76,-0.29 -0.19,-0.2 -0.28,-0.47 -0.28,-0.82 0,-0.37 0.09,-0.65 0.28,-0.85 0.19,-0.2 0.43,-0.3 0.73,-0.3 0.29,0 0.53,0.1 0.71,0.3 0.18,0.2 0.28,0.48 0.28,0.84 0,0.02 -0,0.05 -0,0.1l-1.62 0c0.01,0.24 0.08,0.42 0.2,0.55 0.12,0.13 0.27,0.19 0.45,0.19 0.14,0 0.25,-0.04 0.35,-0.11 0.1,-0.07 0.17,-0.19 0.23,-0.34zm-1.21 -0.59l1.21 0c-0.02,-0.18 -0.06,-0.32 -0.14,-0.41 -0.12,-0.14 -0.27,-0.21 -0.46,-0.21 -0.17,0 -0.31,0.06 -0.43,0.17 -0.11,0.11 -0.18,0.27 -0.19,0.46z"/>
  <path id="_54" class="fil1 str0" d="M28.28 0l0.33 0c-0.01,0.15 -0.05,0.25 -0.1,0.31 -0.05,0.06 -0.11,0.09 -0.19,0.11 -0.08,0.02 -0.23,0.02 -0.46,0.02 -0.3,0 -0.51,0.03 -0.62,0.09 -0.11,0.06 -0.19,0.15 -0.24,0.28 -0.05,0.13 -0.07,0.3 -0.08,0.5 0.09,-0.14 0.2,-0.24 0.33,-0.31 0.12,-0.07 0.26,-0.1 0.42,-0.1 0.29,0 0.52,0.1 0.71,0.29 0.19,0.2 0.28,0.46 0.28,0.8 0,0.25 -0.05,0.46 -0.14,0.63 -0.09,0.16 -0.21,0.29 -0.34,0.38 -0.13,0.09 -0.31,0.13 -0.53,0.13 -0.26,0 -0.46,-0.06 -0.6,-0.18 -0.14,-0.12 -0.25,-0.27 -0.33,-0.45 -0.08,-0.18 -0.11,-0.51 -0.11,-0.96 0,-0.57 0.1,-0.96 0.29,-1.16 0.19,-0.2 0.49,-0.3 0.9,-0.3 0.25,0 0.39,-0 0.43,-0.01 0.03,-0.01 0.06,-0.03 0.07,-0.06zm-0.01 1.98c0,-0.23 -0.05,-0.41 -0.16,-0.56 -0.11,-0.14 -0.26,-0.22 -0.45,-0.22 -0.2,0 -0.36,0.08 -0.47,0.23 -0.11,0.15 -0.17,0.36 -0.17,0.61 0,0.25 0.06,0.45 0.18,0.58 0.12,0.13 0.27,0.2 0.45,0.2 0.18,0 0.33,-0.08 0.45,-0.23 0.11,-0.15 0.17,-0.36 0.17,-0.62z"/>
  <path id="_55" class="fil1 str0" d="M30.54 2.37l0.38 0.05c-0.06,0.22 -0.17,0.4 -0.33,0.52 -0.16,0.12 -0.37,0.18 -0.62,0.18 -0.32,0 -0.57,-0.1 -0.76,-0.29 -0.19,-0.2 -0.28,-0.47 -0.28,-0.82 0,-0.37 0.09,-0.65 0.28,-0.85 0.19,-0.2 0.43,-0.3 0.73,-0.3 0.29,0 0.53,0.1 0.71,0.3 0.18,0.2 0.28,0.48 0.28,0.84 0,0.02 -0,0.05 -0,0.1l-1.62 0c0.01,0.24 0.08,0.42 0.2,0.55 0.12,0.13 0.27,0.19 0.45,0.19 0.14,0 0.25,-0.04 0.35,-0.11 0.1,-0.07 0.17,-0.19 0.23,-0.34zm-1.21 -0.59l1.21 0c-0.02,-0.18 -0.06,-0.32 -0.14,-0.41 -0.12,-0.14 -0.27,-0.21 -0.46,-0.21 -0.17,0 -0.31,0.06 -0.43,0.17 -0.11,0.11 -0.18,0.27 -0.19,0.46z"/>
  <polygon id="_56" class="fil1 str0" points="32.36,0.9 34.13,0.9 34.13,1.21 33.43,1.21 33.43,3.08 33.06,3.08 33.06,1.21 32.36,1.21 "/>
  <path id="_57" class="fil1 str0" d="M34.29 1.99c0,-0.4 0.11,-0.7 0.34,-0.89 0.19,-0.16 0.42,-0.24 0.69,-0.24 0.3,0 0.54,0.1 0.73,0.29 0.19,0.2 0.29,0.47 0.29,0.81 0,0.28 -0.04,0.5 -0.13,0.66 -0.08,0.16 -0.21,0.28 -0.37,0.37 -0.16,0.09 -0.34,0.13 -0.53,0.13 -0.31,0 -0.55,-0.1 -0.74,-0.29 -0.19,-0.2 -0.28,-0.48 -0.28,-0.84zm0.38 0c0,0.28 0.06,0.49 0.18,0.63 0.12,0.14 0.28,0.21 0.46,0.21 0.18,0 0.34,-0.07 0.46,-0.21 0.12,-0.14 0.18,-0.35 0.18,-0.64 0,-0.27 -0.06,-0.47 -0.18,-0.61 -0.12,-0.14 -0.28,-0.21 -0.46,-0.21 -0.19,0 -0.34,0.07 -0.46,0.21 -0.12,0.14 -0.18,0.35 -0.18,0.62z"/>
  <path id="_58" class="fil1 str0" d="M36.77 0.9l0.85 0c0.21,0 0.36,0.02 0.47,0.05 0.1,0.03 0.19,0.1 0.26,0.19 0.07,0.09 0.11,0.21 0.11,0.34 0,0.1 -0.02,0.2 -0.06,0.27 -0.04,0.08 -0.11,0.14 -0.19,0.19 0.1,0.03 0.19,0.1 0.25,0.19 0.07,0.09 0.1,0.2 0.1,0.33 -0.01,0.21 -0.09,0.36 -0.22,0.46 -0.13,0.1 -0.33,0.15 -0.58,0.15l-0.98 0 0 -2.18zm0.37 0.92l0.39 0c0.16,0 0.26,-0.01 0.32,-0.02 0.06,-0.02 0.11,-0.05 0.16,-0.1 0.05,-0.05 0.07,-0.11 0.07,-0.18 0,-0.12 -0.04,-0.2 -0.12,-0.24 -0.08,-0.05 -0.22,-0.07 -0.42,-0.07l-0.4 0 0 0.61zm0 0.96l0.49 0c0.21,0 0.35,-0.02 0.43,-0.07 0.08,-0.05 0.12,-0.13 0.12,-0.25 0,-0.07 -0.02,-0.13 -0.07,-0.19 -0.05,-0.06 -0.1,-0.1 -0.18,-0.11 -0.07,-0.02 -0.19,-0.02 -0.35,-0.02l-0.45 0 0 0.66z"/>
  <path id="_59" class="fil1 str0" d="M40.38 2.81c-0.14,0.12 -0.27,0.2 -0.4,0.25 -0.13,0.05 -0.26,0.07 -0.41,0.07 -0.24,0 -0.42,-0.06 -0.55,-0.17 -0.13,-0.12 -0.19,-0.27 -0.19,-0.45 0,-0.11 0.02,-0.2 0.07,-0.29 0.05,-0.09 0.11,-0.16 0.19,-0.21 0.08,-0.05 0.17,-0.09 0.27,-0.12 0.07,-0.02 0.18,-0.04 0.33,-0.06 0.3,-0.03 0.52,-0.08 0.66,-0.13 0,-0.05 0,-0.08 0,-0.1 0,-0.15 -0.03,-0.26 -0.1,-0.32 -0.09,-0.08 -0.24,-0.12 -0.42,-0.12 -0.17,0 -0.3,0.03 -0.39,0.09 -0.08,0.06 -0.14,0.17 -0.18,0.32l-0.36 -0.05c0.03,-0.15 0.09,-0.28 0.16,-0.38 0.08,-0.1 0.18,-0.17 0.33,-0.22 0.14,-0.05 0.31,-0.08 0.5,-0.08 0.19,0 0.34,0.02 0.46,0.07 0.12,0.04 0.2,0.1 0.26,0.17 0.05,0.07 0.09,0.15 0.12,0.25 0.01,0.06 0.02,0.18 0.02,0.34l0 0.49c0,0.34 0.01,0.56 0.02,0.65 0.01,0.09 0.05,0.18 0.09,0.26l-0.39 0c-0.04,-0.08 -0.06,-0.17 -0.07,-0.27zm-0.03 -0.82c-0.13,0.05 -0.34,0.1 -0.61,0.14 -0.15,0.02 -0.26,0.05 -0.32,0.07 -0.06,0.03 -0.11,0.07 -0.15,0.12 -0.03,0.05 -0.05,0.11 -0.05,0.17 0,0.1 0.04,0.18 0.11,0.24 0.07,0.07 0.18,0.1 0.33,0.1 0.14,0 0.27,-0.03 0.38,-0.09 0.11,-0.06 0.19,-0.15 0.24,-0.25 0.04,-0.08 0.06,-0.21 0.06,-0.37l0 -0.13z"/>
  <path id="_60" class="fil1 str0" d="M41.29 3.92l0 -3.02 0.34 0 0 0.29c0.08,-0.11 0.17,-0.19 0.27,-0.25 0.1,-0.06 0.22,-0.08 0.36,-0.08 0.19,0 0.35,0.05 0.49,0.14 0.14,0.1 0.25,0.23 0.32,0.4 0.07,0.17 0.11,0.36 0.11,0.57 0,0.22 -0.04,0.42 -0.12,0.6 -0.08,0.18 -0.2,0.31 -0.35,0.41 -0.15,0.09 -0.31,0.14 -0.48,0.14 -0.12,0 -0.23,-0.03 -0.33,-0.08 -0.1,-0.05 -0.18,-0.12 -0.24,-0.2l0 1.06 -0.37 0zm0.34 -1.91c0,0.28 0.06,0.49 0.17,0.62 0.11,0.13 0.25,0.2 0.41,0.2 0.16,0 0.3,-0.07 0.42,-0.21 0.12,-0.14 0.17,-0.35 0.17,-0.64 0,-0.28 -0.06,-0.48 -0.17,-0.62 -0.11,-0.14 -0.25,-0.21 -0.41,-0.21 -0.16,0 -0.3,0.07 -0.42,0.22 -0.12,0.15 -0.18,0.36 -0.18,0.64z"/>
  <polygon id="_61" class="fil1 str0" points="43.63,0.9 44,0.9 44,2.56 45.02,0.9 45.42,0.9 45.42,3.08 45.05,3.08 45.05,1.43 44.02,3.08 43.63,3.08 "/>
  <polygon id="_62" class="fil1 str0" points="45.99,0.9 46.36,0.9 46.36,2.78 47.2,2.78 47.2,0.9 47.57,0.9 47.57,2.78 48.41,2.78 48.41,0.9 48.78,0.9 48.78,2.78 49.02,2.78 49.02,3.7 48.71,3.7 48.71,3.08 45.99,3.08 "/>
  <path id="_63" class="fil1 str0" d="M50.85 2.81c-0.14,0.12 -0.27,0.2 -0.4,0.25 -0.13,0.05 -0.26,0.07 -0.41,0.07 -0.24,0 -0.42,-0.06 -0.55,-0.17 -0.13,-0.12 -0.19,-0.27 -0.19,-0.45 0,-0.11 0.02,-0.2 0.07,-0.29 0.05,-0.09 0.11,-0.16 0.19,-0.21 0.08,-0.05 0.17,-0.09 0.27,-0.12 0.07,-0.02 0.18,-0.04 0.33,-0.06 0.3,-0.03 0.52,-0.08 0.66,-0.13 0,-0.05 0,-0.08 0,-0.1 0,-0.15 -0.03,-0.26 -0.1,-0.32 -0.09,-0.08 -0.24,-0.12 -0.42,-0.12 -0.17,0 -0.3,0.03 -0.39,0.09 -0.08,0.06 -0.14,0.17 -0.18,0.32l-0.36 -0.05c0.03,-0.15 0.09,-0.28 0.16,-0.38 0.08,-0.1 0.18,-0.17 0.33,-0.22 0.14,-0.05 0.31,-0.08 0.5,-0.08 0.19,0 0.34,0.02 0.46,0.07 0.12,0.04 0.2,0.1 0.26,0.17 0.05,0.07 0.09,0.15 0.12,0.25 0.01,0.06 0.02,0.18 0.02,0.34l0 0.49c0,0.34 0.01,0.56 0.02,0.65 0.01,0.09 0.05,0.18 0.09,0.26l-0.39 0c-0.04,-0.08 -0.06,-0.17 -0.07,-0.27zm-0.03 -0.82c-0.13,0.05 -0.34,0.1 -0.61,0.14 -0.15,0.02 -0.26,0.05 -0.32,0.07 -0.06,0.03 -0.11,0.07 -0.15,0.12 -0.03,0.05 -0.05,0.11 -0.05,0.17 0,0.1 0.04,0.18 0.11,0.24 0.07,0.07 0.18,0.1 0.33,0.1 0.14,0 0.27,-0.03 0.38,-0.09 0.11,-0.06 0.19,-0.15 0.24,-0.25 0.04,-0.08 0.06,-0.21 0.06,-0.37l0 -0.13z"/>
  <polygon id="_64" class="fil1 str0" points="52.93,0.9 53.3,0.9 53.3,2.56 54.33,0.9 54.73,0.9 54.73,3.08 54.36,3.08 54.36,1.43 53.33,3.08 52.93,3.08 "/>
  <path id="_65" class="fil1 str0" d="M56.71 2.28l0.36 0.05c-0.04,0.25 -0.14,0.44 -0.3,0.58 -0.16,0.14 -0.36,0.21 -0.6,0.21 -0.3,0 -0.54,-0.1 -0.72,-0.29 -0.18,-0.19 -0.27,-0.47 -0.27,-0.84 0,-0.24 0.04,-0.44 0.12,-0.62 0.08,-0.18 0.2,-0.31 0.36,-0.4 0.16,-0.09 0.33,-0.13 0.52,-0.13 0.24,0 0.43,0.06 0.58,0.18 0.15,0.12 0.25,0.29 0.29,0.51l-0.36 0.05c-0.03,-0.15 -0.09,-0.26 -0.18,-0.33 -0.09,-0.07 -0.19,-0.11 -0.31,-0.11 -0.19,0 -0.34,0.07 -0.45,0.2 -0.12,0.13 -0.17,0.34 -0.17,0.63 0,0.29 0.06,0.5 0.17,0.64 0.11,0.13 0.26,0.2 0.44,0.2 0.15,0 0.27,-0.04 0.36,-0.13 0.1,-0.09 0.16,-0.22 0.18,-0.41z"/>
  <path id="_66" class="fil1 str0" d="M57.38 0.9l0.37 0 0 0.94c0.12,0 0.2,-0.02 0.25,-0.07 0.05,-0.04 0.12,-0.18 0.21,-0.39 0.07,-0.17 0.13,-0.29 0.18,-0.34 0.05,-0.05 0.1,-0.09 0.16,-0.11 0.06,-0.02 0.15,-0.03 0.28,-0.03l0.07 0 0 0.3 -0.1 -0c-0.1,0 -0.16,0.01 -0.19,0.04 -0.03,0.03 -0.07,0.12 -0.13,0.27 -0.06,0.14 -0.11,0.24 -0.15,0.3 -0.05,0.05 -0.12,0.1 -0.22,0.15 0.16,0.04 0.32,0.19 0.47,0.44l0.41 0.68 -0.41 0 -0.4 -0.67c-0.08,-0.14 -0.15,-0.23 -0.21,-0.27 -0.06,-0.04 -0.13,-0.07 -0.21,-0.07l0 1.01 -0.37 0 0 -2.18z"/>
  <path id="_67" class="fil1 str0" d="M60.74 2.81c-0.14,0.12 -0.27,0.2 -0.4,0.25 -0.13,0.05 -0.26,0.07 -0.41,0.07 -0.24,0 -0.42,-0.06 -0.55,-0.17 -0.13,-0.12 -0.19,-0.27 -0.19,-0.45 0,-0.11 0.02,-0.2 0.07,-0.29 0.05,-0.09 0.11,-0.16 0.19,-0.21 0.08,-0.05 0.17,-0.09 0.27,-0.12 0.07,-0.02 0.18,-0.04 0.33,-0.06 0.3,-0.03 0.52,-0.08 0.66,-0.13 0,-0.05 0,-0.08 0,-0.1 0,-0.15 -0.03,-0.26 -0.1,-0.32 -0.09,-0.08 -0.24,-0.12 -0.42,-0.12 -0.17,0 -0.3,0.03 -0.39,0.09 -0.08,0.06 -0.14,0.17 -0.18,0.32l-0.36 -0.05c0.03,-0.15 0.09,-0.28 0.16,-0.38 0.08,-0.1 0.18,-0.17 0.33,-0.22 0.14,-0.05 0.31,-0.08 0.5,-0.08 0.19,0 0.34,0.02 0.46,0.07 0.12,0.04 0.2,0.1 0.26,0.17 0.05,0.07 0.09,0.15 0.12,0.25 0.01,0.06 0.02,0.18 0.02,0.34l0 0.49c0,0.34 0.01,0.56 0.02,0.65 0.01,0.09 0.05,0.18 0.09,0.26l-0.39 0c-0.04,-0.08 -0.06,-0.17 -0.07,-0.27zm-0.03 -0.82c-0.13,0.05 -0.34,0.1 -0.61,0.14 -0.15,0.02 -0.26,0.05 -0.32,0.07 -0.06,0.03 -0.11,0.07 -0.15,0.12 -0.03,0.05 -0.05,0.11 -0.05,0.17 0,0.1 0.04,0.18 0.11,0.24 0.07,0.07 0.18,0.1 0.33,0.1 0.14,0 0.27,-0.03 0.38,-0.09 0.11,-0.06 0.19,-0.15 0.24,-0.25 0.04,-0.08 0.06,-0.21 0.06,-0.37l0 -0.13z"/>
  <path id="_68" class="fil1 str0" d="M61.83 0.9l1.72 0 0 2.18 -0.37 0 0 -1.87 -0.98 0 0 1.08c0,0.25 -0.01,0.42 -0.02,0.5 -0.02,0.08 -0.06,0.15 -0.14,0.21 -0.07,0.06 -0.18,0.09 -0.32,0.09 -0.09,0 -0.19,-0.01 -0.3,-0.02l0 -0.31 0.16 0c0.08,0 0.13,-0.01 0.16,-0.02 0.03,-0.02 0.05,-0.04 0.07,-0.07 0.01,-0.03 0.02,-0.15 0.02,-0.33l0 -1.44z"/>
  <path id="_69" class="fil1 str0" d="M65.52 2.81c-0.14,0.12 -0.27,0.2 -0.4,0.25 -0.13,0.05 -0.26,0.07 -0.41,0.07 -0.24,0 -0.42,-0.06 -0.55,-0.17 -0.13,-0.12 -0.19,-0.27 -0.19,-0.45 0,-0.11 0.02,-0.2 0.07,-0.29 0.05,-0.09 0.11,-0.16 0.19,-0.21 0.08,-0.05 0.17,-0.09 0.27,-0.12 0.07,-0.02 0.18,-0.04 0.33,-0.06 0.3,-0.03 0.52,-0.08 0.66,-0.13 0,-0.05 0,-0.08 0,-0.1 0,-0.15 -0.03,-0.26 -0.1,-0.32 -0.09,-0.08 -0.24,-0.12 -0.42,-0.12 -0.17,0 -0.3,0.03 -0.39,0.09 -0.08,0.06 -0.14,0.17 -0.18,0.32l-0.36 -0.05c0.03,-0.15 0.09,-0.28 0.16,-0.38 0.08,-0.1 0.18,-0.17 0.33,-0.22 0.14,-0.05 0.31,-0.08 0.5,-0.08 0.19,0 0.34,0.02 0.46,0.07 0.12,0.04 0.2,0.1 0.26,0.17 0.05,0.07 0.09,0.15 0.12,0.25 0.01,0.06 0.02,0.18 0.02,0.34l0 0.49c0,0.34 0.01,0.56 0.02,0.65 0.01,0.09 0.05,0.18 0.09,0.26l-0.39 0c-0.04,-0.08 -0.06,-0.17 -0.07,-0.27zm-0.03 -0.82c-0.13,0.05 -0.34,0.1 -0.61,0.14 -0.15,0.02 -0.26,0.05 -0.32,0.07 -0.06,0.03 -0.11,0.07 -0.15,0.12 -0.03,0.05 -0.05,0.11 -0.05,0.17 0,0.1 0.04,0.18 0.11,0.24 0.07,0.07 0.18,0.1 0.33,0.1 0.14,0 0.27,-0.03 0.38,-0.09 0.11,-0.06 0.19,-0.15 0.24,-0.25 0.04,-0.08 0.06,-0.21 0.06,-0.37l0 -0.13z"/>
  <path id="_70" class="fil1 str0" d="M16.53 8.66c-0.2,-0.26 -0.38,-0.56 -0.52,-0.9 -0.14,-0.34 -0.21,-0.7 -0.21,-1.07 0,-0.33 0.05,-0.64 0.16,-0.93 0.12,-0.35 0.31,-0.69 0.57,-1.03l0.26 0c-0.17,0.28 -0.28,0.49 -0.33,0.61 -0.08,0.19 -0.15,0.39 -0.2,0.59 -0.06,0.26 -0.09,0.51 -0.09,0.77 0,0.66 0.2,1.31 0.61,1.97l-0.26 0z"/>
  <polygon id="_71" class="fil1 str0" points="17.22,5.59 17.59,5.59 17.59,6.5 18.61,6.5 18.61,5.59 18.98,5.59 18.98,7.77 18.61,7.77 18.61,6.81 17.59,6.81 17.59,7.77 17.22,7.77 "/>
  <path id="_72" class="fil1 str0" d="M21.03 7.07l0.38 0.05c-0.06,0.22 -0.17,0.4 -0.33,0.52 -0.16,0.12 -0.37,0.18 -0.62,0.18 -0.32,0 -0.57,-0.1 -0.76,-0.29 -0.19,-0.2 -0.28,-0.47 -0.28,-0.82 0,-0.37 0.09,-0.65 0.28,-0.85 0.19,-0.2 0.43,-0.3 0.73,-0.3 0.29,0 0.53,0.1 0.71,0.3 0.18,0.2 0.28,0.48 0.28,0.84 0,0.02 -0,0.05 -0,0.1l-1.62 0c0.01,0.24 0.08,0.42 0.2,0.55 0.12,0.13 0.27,0.19 0.45,0.19 0.14,0 0.25,-0.04 0.35,-0.11 0.1,-0.07 0.17,-0.19 0.23,-0.34zm-1.21 -0.59l1.21 0c-0.02,-0.18 -0.06,-0.32 -0.14,-0.41 -0.12,-0.14 -0.27,-0.21 -0.46,-0.21 -0.17,0 -0.31,0.06 -0.43,0.17 -0.11,0.11 -0.18,0.27 -0.19,0.46z"/>
  <polygon id="_73" class="fil1 str0" points="21.88,5.59 22.25,5.59 22.25,6.5 23.27,6.5 23.27,5.59 23.64,5.59 23.64,7.77 23.27,7.77 23.27,6.81 22.25,6.81 22.25,7.77 21.88,7.77 "/>
  <path id="_74" class="fil1 str0" d="M25.68 7.07l0.38 0.05c-0.06,0.22 -0.17,0.4 -0.33,0.52 -0.16,0.12 -0.37,0.18 -0.62,0.18 -0.32,0 -0.57,-0.1 -0.76,-0.29 -0.19,-0.2 -0.28,-0.47 -0.28,-0.82 0,-0.37 0.09,-0.65 0.28,-0.85 0.19,-0.2 0.43,-0.3 0.73,-0.3 0.29,0 0.53,0.1 0.71,0.3 0.18,0.2 0.28,0.48 0.28,0.84 0,0.02 -0,0.05 -0,0.1l-1.62 0c0.01,0.24 0.08,0.42 0.2,0.55 0.12,0.13 0.27,0.19 0.45,0.19 0.14,0 0.25,-0.04 0.35,-0.11 0.1,-0.07 0.17,-0.19 0.23,-0.34zm-1.21 -0.59l1.21 0c-0.02,-0.18 -0.06,-0.32 -0.14,-0.41 -0.12,-0.14 -0.27,-0.21 -0.46,-0.21 -0.17,0 -0.31,0.06 -0.43,0.17 -0.11,0.11 -0.18,0.27 -0.19,0.46z"/>
  <polygon id="_75" class="fil1 str0" points="26.54,5.59 26.91,5.59 26.91,7.47 27.93,7.47 27.93,5.59 28.3,5.59 28.3,7.47 28.54,7.47 28.54,8.39 28.24,8.39 28.24,7.77 26.54,7.77 "/>
  <path id="_76" class="fil1 str0" d="M28.94 5.59l0.37 0 0 0.94c0.12,0 0.2,-0.02 0.25,-0.07 0.05,-0.04 0.12,-0.18 0.21,-0.39 0.07,-0.17 0.13,-0.29 0.18,-0.34 0.05,-0.05 0.1,-0.09 0.16,-0.11 0.06,-0.02 0.15,-0.03 0.28,-0.03l0.07 0 0 0.3 -0.1 -0c-0.1,0 -0.16,0.01 -0.19,0.04 -0.03,0.03 -0.07,0.12 -0.13,0.27 -0.06,0.14 -0.11,0.24 -0.15,0.3 -0.05,0.05 -0.12,0.1 -0.22,0.15 0.16,0.04 0.32,0.19 0.47,0.44l0.41 0.68 -0.41 0 -0.4 -0.67c-0.08,-0.14 -0.15,-0.23 -0.21,-0.27 -0.06,-0.04 -0.13,-0.07 -0.21,-0.07l0 1.01 -0.37 0 0 -2.18z"/>
  <path id="_77" class="fil1 str0" d="M32.29 7.5c-0.14,0.12 -0.27,0.2 -0.4,0.25 -0.13,0.05 -0.26,0.07 -0.41,0.07 -0.24,0 -0.42,-0.06 -0.55,-0.17 -0.13,-0.12 -0.19,-0.27 -0.19,-0.45 0,-0.11 0.02,-0.2 0.07,-0.29 0.05,-0.09 0.11,-0.16 0.19,-0.21 0.08,-0.05 0.17,-0.09 0.27,-0.12 0.07,-0.02 0.18,-0.04 0.33,-0.06 0.3,-0.03 0.52,-0.08 0.66,-0.13 0,-0.05 0,-0.08 0,-0.1 0,-0.15 -0.03,-0.26 -0.1,-0.32 -0.09,-0.08 -0.24,-0.12 -0.42,-0.12 -0.17,0 -0.3,0.03 -0.39,0.09 -0.08,0.06 -0.14,0.17 -0.18,0.32l-0.36 -0.05c0.03,-0.15 0.09,-0.28 0.16,-0.38 0.08,-0.1 0.18,-0.17 0.33,-0.22 0.14,-0.05 0.31,-0.08 0.5,-0.08 0.19,0 0.34,0.02 0.46,0.07 0.12,0.04 0.2,0.1 0.26,0.17 0.05,0.07 0.09,0.15 0.12,0.25 0.01,0.06 0.02,0.18 0.02,0.34l0 0.49c0,0.34 0.01,0.56 0.02,0.65 0.01,0.09 0.05,0.18 0.09,0.26l-0.39 0c-0.04,-0.08 -0.06,-0.17 -0.07,-0.27zm-0.03 -0.82c-0.13,0.05 -0.34,0.1 -0.61,0.14 -0.15,0.02 -0.26,0.05 -0.32,0.07 -0.06,0.03 -0.11,0.07 -0.15,0.12 -0.03,0.05 -0.05,0.11 -0.05,0.17 0,0.1 0.04,0.18 0.11,0.24 0.07,0.07 0.18,0.1 0.33,0.1 0.14,0 0.27,-0.03 0.38,-0.09 0.11,-0.06 0.19,-0.15 0.24,-0.25 0.04,-0.08 0.06,-0.21 0.06,-0.37l0 -0.13z"/>
  <path id="_78" class="fil1 str0" d="M34.93 5.59l0 2.18 -0.37 0 0 -0.85 -0.21 0c-0.13,0 -0.23,0.02 -0.29,0.05 -0.06,0.03 -0.16,0.14 -0.28,0.32l-0.32 0.47 -0.46 0 0.4 -0.59c0.12,-0.18 0.24,-0.28 0.36,-0.3 -0.21,-0.03 -0.37,-0.1 -0.47,-0.23 -0.1,-0.12 -0.15,-0.27 -0.15,-0.43 0,-0.19 0.07,-0.34 0.2,-0.46 0.13,-0.12 0.33,-0.18 0.58,-0.18l1.01 0zm-0.37 0.31l-0.53 0c-0.22,0 -0.36,0.03 -0.43,0.1 -0.06,0.07 -0.1,0.15 -0.1,0.24 0,0.13 0.05,0.23 0.14,0.29 0.09,0.06 0.26,0.09 0.5,0.09l0.41 0 0 -0.72z"/>
  <path id="_79" class="fil1 str0" d="M38.07 6.98l0.36 0.05c-0.04,0.25 -0.14,0.44 -0.3,0.58 -0.16,0.14 -0.36,0.21 -0.6,0.21 -0.3,0 -0.54,-0.1 -0.72,-0.29 -0.18,-0.19 -0.27,-0.47 -0.27,-0.84 0,-0.24 0.04,-0.44 0.12,-0.62 0.08,-0.18 0.2,-0.31 0.36,-0.4 0.16,-0.09 0.33,-0.13 0.52,-0.13 0.24,0 0.43,0.06 0.58,0.18 0.15,0.12 0.25,0.29 0.29,0.51l-0.36 0.05c-0.03,-0.15 -0.09,-0.26 -0.18,-0.33 -0.09,-0.07 -0.19,-0.11 -0.31,-0.11 -0.19,0 -0.34,0.07 -0.45,0.2 -0.12,0.13 -0.17,0.34 -0.17,0.63 0,0.29 0.06,0.5 0.17,0.64 0.11,0.13 0.26,0.2 0.44,0.2 0.15,0 0.27,-0.04 0.36,-0.13 0.1,-0.09 0.16,-0.22 0.18,-0.41z"/>
  <path id="_80" class="fil1 str0" d="M38.75 5.59l0.37 0 0 0.94c0.12,0 0.2,-0.02 0.25,-0.07 0.05,-0.04 0.12,-0.18 0.21,-0.39 0.07,-0.17 0.13,-0.29 0.18,-0.34 0.05,-0.05 0.1,-0.09 0.16,-0.11 0.06,-0.02 0.15,-0.03 0.28,-0.03l0.07 0 0 0.3 -0.1 -0c-0.1,0 -0.16,0.01 -0.19,0.04 -0.03,0.03 -0.07,0.12 -0.13,0.27 -0.06,0.14 -0.11,0.24 -0.15,0.3 -0.05,0.05 -0.12,0.1 -0.22,0.15 0.16,0.04 0.32,0.19 0.47,0.44l0.41 0.68 -0.41 0 -0.4 -0.67c-0.08,-0.14 -0.15,-0.23 -0.21,-0.27 -0.06,-0.04 -0.13,-0.07 -0.21,-0.07l0 1.01 -0.37 0 0 -2.18z"/>
  <path id="_81" class="fil1 str0" d="M42.1 7.5c-0.14,0.12 -0.27,0.2 -0.4,0.25 -0.13,0.05 -0.26,0.07 -0.41,0.07 -0.24,0 -0.42,-0.06 -0.55,-0.17 -0.13,-0.12 -0.19,-0.27 -0.19,-0.45 0,-0.11 0.02,-0.2 0.07,-0.29 0.05,-0.09 0.11,-0.16 0.19,-0.21 0.08,-0.05 0.17,-0.09 0.27,-0.12 0.07,-0.02 0.18,-0.04 0.33,-0.06 0.3,-0.03 0.52,-0.08 0.66,-0.13 0,-0.05 0,-0.08 0,-0.1 0,-0.15 -0.03,-0.26 -0.1,-0.32 -0.09,-0.08 -0.24,-0.12 -0.42,-0.12 -0.17,0 -0.3,0.03 -0.39,0.09 -0.08,0.06 -0.14,0.17 -0.18,0.32l-0.36 -0.05c0.03,-0.15 0.09,-0.28 0.16,-0.38 0.08,-0.1 0.18,-0.17 0.33,-0.22 0.14,-0.05 0.31,-0.08 0.5,-0.08 0.19,0 0.34,0.02 0.46,0.07 0.12,0.04 0.2,0.1 0.26,0.17 0.05,0.07 0.09,0.15 0.12,0.25 0.01,0.06 0.02,0.18 0.02,0.34l0 0.49c0,0.34 0.01,0.56 0.02,0.65 0.01,0.09 0.05,0.18 0.09,0.26l-0.39 0c-0.04,-0.08 -0.06,-0.17 -0.07,-0.27zm-0.03 -0.82c-0.13,0.05 -0.34,0.1 -0.61,0.14 -0.15,0.02 -0.26,0.05 -0.32,0.07 -0.06,0.03 -0.11,0.07 -0.15,0.12 -0.03,0.05 -0.05,0.11 -0.05,0.17 0,0.1 0.04,0.18 0.11,0.24 0.07,0.07 0.18,0.1 0.33,0.1 0.14,0 0.27,-0.03 0.38,-0.09 0.11,-0.06 0.19,-0.15 0.24,-0.25 0.04,-0.08 0.06,-0.21 0.06,-0.37l0 -0.13z"/>
  <path id="_82" class="fil1 str0" d="M43.45 6.79l0 -0.29c0.16,-0 0.26,-0.01 0.32,-0.02 0.06,-0.01 0.11,-0.04 0.16,-0.1 0.05,-0.05 0.08,-0.12 0.08,-0.2 0,-0.1 -0.03,-0.18 -0.1,-0.24 -0.07,-0.06 -0.15,-0.09 -0.26,-0.09 -0.21,0 -0.35,0.12 -0.44,0.37l-0.35 -0.06c0.11,-0.41 0.37,-0.61 0.79,-0.61 0.23,0 0.41,0.06 0.55,0.19 0.13,0.13 0.2,0.28 0.2,0.45 0,0.18 -0.09,0.32 -0.26,0.42 0.11,0.06 0.19,0.13 0.25,0.22 0.05,0.09 0.08,0.2 0.08,0.32 0,0.2 -0.07,0.35 -0.21,0.48 -0.14,0.12 -0.34,0.18 -0.6,0.18 -0.5,0 -0.79,-0.22 -0.86,-0.66l0.35 -0.08c0.03,0.14 0.1,0.25 0.19,0.32 0.1,0.08 0.21,0.11 0.33,0.11 0.12,0 0.23,-0.03 0.31,-0.11 0.08,-0.07 0.12,-0.16 0.12,-0.27 0,-0.08 -0.03,-0.16 -0.08,-0.22 -0.05,-0.06 -0.11,-0.1 -0.17,-0.12 -0.06,-0.02 -0.17,-0.02 -0.32,-0.02 -0.01,0 -0.04,0 -0.08,0z"/>
  <path id="_83" class="fil1 str0" d="M44.89 5.59l0.37 0 0 0.94c0.12,0 0.2,-0.02 0.25,-0.07 0.05,-0.04 0.12,-0.18 0.21,-0.39 0.07,-0.17 0.13,-0.29 0.18,-0.34 0.05,-0.05 0.1,-0.09 0.16,-0.11 0.06,-0.02 0.15,-0.03 0.28,-0.03l0.07 0 0 0.3 -0.1 -0c-0.1,0 -0.16,0.01 -0.19,0.04 -0.03,0.03 -0.07,0.12 -0.13,0.27 -0.06,0.14 -0.11,0.24 -0.15,0.3 -0.05,0.05 -0.12,0.1 -0.22,0.15 0.16,0.04 0.32,0.19 0.47,0.44l0.41 0.68 -0.41 0 -0.4 -0.67c-0.08,-0.14 -0.15,-0.23 -0.21,-0.27 -0.06,-0.04 -0.13,-0.07 -0.21,-0.07l0 1.01 -0.37 0 0 -2.18z"/>
  <path id="_84" class="fil1 str0" d="M48.25 7.5c-0.14,0.12 -0.27,0.2 -0.4,0.25 -0.13,0.05 -0.26,0.07 -0.41,0.07 -0.24,0 -0.42,-0.06 -0.55,-0.17 -0.13,-0.12 -0.19,-0.27 -0.19,-0.45 0,-0.11 0.02,-0.2 0.07,-0.29 0.05,-0.09 0.11,-0.16 0.19,-0.21 0.08,-0.05 0.17,-0.09 0.27,-0.12 0.07,-0.02 0.18,-0.04 0.33,-0.06 0.3,-0.03 0.52,-0.08 0.66,-0.13 0,-0.05 0,-0.08 0,-0.1 0,-0.15 -0.03,-0.26 -0.1,-0.32 -0.09,-0.08 -0.24,-0.12 -0.42,-0.12 -0.17,0 -0.3,0.03 -0.39,0.09 -0.08,0.06 -0.14,0.17 -0.18,0.32l-0.36 -0.05c0.03,-0.15 0.09,-0.28 0.16,-0.38 0.08,-0.1 0.18,-0.17 0.33,-0.22 0.14,-0.05 0.31,-0.08 0.5,-0.08 0.19,0 0.34,0.02 0.46,0.07 0.12,0.04 0.2,0.1 0.26,0.17 0.05,0.07 0.09,0.15 0.12,0.25 0.01,0.06 0.02,0.18 0.02,0.34l0 0.49c0,0.34 0.01,0.56 0.02,0.65 0.01,0.09 0.05,0.18 0.09,0.26l-0.39 0c-0.04,-0.08 -0.06,-0.17 -0.07,-0.27zm-0.03 -0.82c-0.13,0.05 -0.34,0.1 -0.61,0.14 -0.15,0.02 -0.26,0.05 -0.32,0.07 -0.06,0.03 -0.11,0.07 -0.15,0.12 -0.03,0.05 -0.05,0.11 -0.05,0.17 0,0.1 0.04,0.18 0.11,0.24 0.07,0.07 0.18,0.1 0.33,0.1 0.14,0 0.27,-0.03 0.38,-0.09 0.11,-0.06 0.19,-0.15 0.24,-0.25 0.04,-0.08 0.06,-0.21 0.06,-0.37l0 -0.13z"/>
  <path id="_85" class="fil1 str0" d="M49.41 8.66l-0.26 0c0.41,-0.66 0.61,-1.31 0.61,-1.97 0,-0.26 -0.03,-0.51 -0.09,-0.76 -0.05,-0.21 -0.11,-0.4 -0.19,-0.59 -0.05,-0.12 -0.16,-0.33 -0.33,-0.61l0.26 0c0.26,0.34 0.45,0.69 0.57,1.03 0.1,0.3 0.16,0.61 0.16,0.93 0,0.37 -0.07,0.73 -0.21,1.07 -0.14,0.34 -0.31,0.64 -0.51,0.9z"/>
 </g>
</svg>
