<?xml version="1.0" encoding="UTF-8"?>
<!DOCTYPE svg PUBLIC "-//W3C//DTD SVG 1.1//EN" "http://www.w3.org/Graphics/SVG/1.1/DTD/svg11.dtd">
<!-- Creator: CorelDRAW -->
<svg xmlns="http://www.w3.org/2000/svg" xml:space="preserve" width="29.3729mm" height="5.5925mm" version="1.1" style="shape-rendering:geometricPrecision; text-rendering:geometricPrecision; image-rendering:optimizeQuality; fill-rule:evenodd; clip-rule:evenodd"
viewBox="0 0 35.31 6.72"
 xmlns:xlink="http://www.w3.org/1999/xlink"
 xmlns:xodm="http://www.corel.com/coreldraw/odm/2003">
 <defs>
  <style type="text/css">
   <![CDATA[
    .str0 {stroke:#FF6600;stroke-width:0;stroke-miterlimit:22.9256}
    .fil1 {fill:none;fill-rule:nonzero}
    .fil0 {fill:#FF6600;fill-rule:nonzero}
   ]]>
  </style>
 </defs>
 <g id="Слой_x0020_1">
  <metadata id="CorelCorpID_0Corel-Layer"/>
  <path class="fil0" d="M7.43 0.44l0.29 0 0 0.97c0.13,0 0.23,-0.03 0.28,-0.08 0.05,-0.05 0.12,-0.18 0.21,-0.37 0.06,-0.14 0.11,-0.25 0.15,-0.31 0.04,-0.06 0.1,-0.11 0.17,-0.15 0.07,-0.04 0.15,-0.06 0.24,-0.06 0.11,0 0.17,0 0.18,0l0 0.25c-0.01,0 -0.03,-0 -0.06,-0 -0.03,-0 -0.05,-0 -0.06,-0 -0.09,0 -0.16,0.02 -0.21,0.07 -0.05,0.05 -0.1,0.14 -0.16,0.29 -0.07,0.19 -0.14,0.3 -0.19,0.35 -0.05,0.05 -0.11,0.09 -0.18,0.12 0.14,0.04 0.28,0.17 0.42,0.39l0.45 0.73 -0.36 0 -0.37 -0.6c-0.1,-0.17 -0.19,-0.28 -0.25,-0.34 -0.07,-0.06 -0.16,-0.09 -0.26,-0.09l0 1.03 -0.29 0 0 -2.2z"/>
  <path id="_1" class="fil0" d="M9.23 0.44l0.29 0 0 0.94 0.52 0c0.34,0 0.57,0.06 0.68,0.19 0.11,0.13 0.16,0.27 0.16,0.43 0,0.17 -0.06,0.32 -0.17,0.45 -0.12,0.13 -0.33,0.19 -0.65,0.19l-0.84 0 0 -2.2zm0.29 1.95l0.53 0c0.18,0 0.32,-0.03 0.4,-0.09 0.08,-0.06 0.12,-0.16 0.12,-0.3 0,-0.09 -0.03,-0.17 -0.07,-0.23 -0.05,-0.06 -0.11,-0.1 -0.19,-0.12 -0.08,-0.02 -0.21,-0.03 -0.39,-0.03l-0.39 0 0 0.76zm1.63 -1.95l0.29 0 0 2.2 -0.29 0 0 -2.2z"/>
  <path id="_2" class="fil0" d="M11.94 0.44l0.29 0 0 0.97c0.13,0 0.23,-0.03 0.28,-0.08 0.05,-0.05 0.12,-0.18 0.21,-0.37 0.06,-0.14 0.11,-0.25 0.15,-0.31 0.04,-0.06 0.1,-0.11 0.17,-0.15 0.07,-0.04 0.15,-0.06 0.24,-0.06 0.11,0 0.17,0 0.18,0l0 0.25c-0.01,0 -0.03,-0 -0.06,-0 -0.03,-0 -0.05,-0 -0.06,-0 -0.09,0 -0.16,0.02 -0.21,0.07 -0.05,0.05 -0.1,0.14 -0.16,0.29 -0.07,0.19 -0.14,0.3 -0.19,0.35 -0.05,0.05 -0.11,0.09 -0.18,0.12 0.14,0.04 0.28,0.17 0.42,0.39l0.45 0.73 -0.36 0 -0.37 -0.6c-0.1,-0.17 -0.19,-0.28 -0.25,-0.34 -0.07,-0.06 -0.16,-0.09 -0.26,-0.09l0 1.03 -0.29 0 0 -2.2z"/>
  <path id="_3" class="fil0" d="M14.57 2.64l0 -2.2 0.83 0c0.17,0 0.3,0.02 0.4,0.07 0.1,0.04 0.18,0.11 0.24,0.21 0.06,0.09 0.09,0.19 0.09,0.29 0,0.09 -0.03,0.18 -0.08,0.27 -0.05,0.08 -0.13,0.15 -0.23,0.2 0.13,0.04 0.24,0.11 0.31,0.2 0.07,0.09 0.11,0.2 0.11,0.33 0,0.1 -0.02,0.2 -0.07,0.29 -0.04,0.09 -0.1,0.16 -0.16,0.2 -0.06,0.05 -0.14,0.08 -0.24,0.11 -0.1,0.02 -0.22,0.04 -0.36,0.04l-0.84 0zm0.29 -1.28l0.48 0c0.13,0 0.22,-0.01 0.28,-0.03 0.07,-0.02 0.13,-0.06 0.17,-0.11 0.04,-0.05 0.06,-0.12 0.06,-0.19 0,-0.07 -0.02,-0.14 -0.05,-0.19 -0.03,-0.06 -0.08,-0.09 -0.15,-0.11 -0.07,-0.02 -0.18,-0.03 -0.33,-0.03l-0.44 0 0 0.67zm0 1.02l0.55 0c0.09,0 0.16,-0 0.2,-0.01 0.07,-0.01 0.12,-0.03 0.17,-0.06 0.05,-0.03 0.08,-0.07 0.11,-0.12 0.03,-0.05 0.04,-0.12 0.04,-0.19 0,-0.08 -0.02,-0.15 -0.06,-0.21 -0.04,-0.06 -0.1,-0.1 -0.18,-0.13 -0.07,-0.02 -0.18,-0.04 -0.32,-0.04l-0.51 0 0 0.76z"/>
  <path id="_4" class="fil0" d="M16.65 0.44l0.29 0 0 0.94 0.52 0c0.34,0 0.57,0.06 0.68,0.19 0.11,0.13 0.16,0.27 0.16,0.43 0,0.17 -0.06,0.32 -0.17,0.45 -0.12,0.13 -0.33,0.19 -0.65,0.19l-0.84 0 0 -2.2zm0.29 1.95l0.53 0c0.18,0 0.32,-0.03 0.4,-0.09 0.08,-0.06 0.12,-0.16 0.12,-0.3 0,-0.09 -0.03,-0.17 -0.07,-0.23 -0.05,-0.06 -0.11,-0.1 -0.19,-0.12 -0.08,-0.02 -0.21,-0.03 -0.39,-0.03l-0.39 0 0 0.76zm1.63 -1.95l0.29 0 0 2.2 -0.29 0 0 -2.2z"/>
  <polygon id="_5" class="fil0" points="19.36,2.64 19.36,0.44 19.66,0.44 19.66,1.35 20.79,1.35 20.79,0.44 21.09,0.44 21.09,2.64 20.79,2.64 20.79,1.61 19.66,1.61 19.66,2.64 "/>
  <path id="_6" class="fil0" d="M21.34 0.44l0.96 0 0 0.94 0.53 0c0.35,0 0.57,0.06 0.68,0.19 0.11,0.13 0.16,0.27 0.16,0.43 0,0.18 -0.06,0.34 -0.19,0.46 -0.12,0.12 -0.34,0.18 -0.64,0.18l-0.84 0 0 -1.94 -0.67 0 0 -0.26zm0.96 1.95l0.53 0c0.18,0 0.32,-0.03 0.4,-0.09 0.08,-0.06 0.12,-0.16 0.12,-0.29 0,-0.09 -0.02,-0.17 -0.07,-0.23 -0.05,-0.06 -0.11,-0.1 -0.19,-0.12 -0.08,-0.02 -0.21,-0.03 -0.4,-0.03l-0.39 0 0 0.76z"/>
  <path id="_7" class="fil0" d="M24.01 2.64l0 -2.2 1.59 0 0 0.26 -1.3 0 0 0.68 1.21 0 0 0.26 -1.21 0 0 0.75 1.35 0 0 0.26 -1.64 0zm0.37 -2.34l0 -0.31 0.28 0 0 0.31 -0.28 0zm0.56 0l0 -0.31 0.28 0 0 0.31 -0.28 0z"/>
  <path id="_8" class="fil0" d="M27.62 1.87l0.29 0.07c-0.06,0.24 -0.17,0.42 -0.33,0.55 -0.16,0.13 -0.35,0.19 -0.58,0.19 -0.24,0 -0.43,-0.05 -0.58,-0.14 -0.15,-0.1 -0.26,-0.24 -0.34,-0.42 -0.08,-0.18 -0.12,-0.38 -0.12,-0.59 0,-0.23 0.04,-0.43 0.13,-0.6 0.09,-0.17 0.21,-0.3 0.37,-0.39 0.16,-0.09 0.34,-0.13 0.53,-0.13 0.22,0 0.41,0.06 0.55,0.17 0.15,0.11 0.25,0.27 0.31,0.47l-0.29 0.07c-0.05,-0.16 -0.13,-0.28 -0.22,-0.35 -0.1,-0.07 -0.22,-0.11 -0.37,-0.11 -0.17,0 -0.31,0.04 -0.42,0.12 -0.11,0.08 -0.19,0.19 -0.24,0.33 -0.05,0.14 -0.07,0.28 -0.07,0.42 0,0.19 0.03,0.35 0.08,0.49 0.05,0.14 0.14,0.24 0.25,0.31 0.11,0.07 0.24,0.1 0.37,0.1 0.16,0 0.3,-0.05 0.41,-0.14 0.11,-0.09 0.19,-0.23 0.23,-0.42z"/>
  <path id="_9" class="fil0" d="M0.53 6.72c-0.15,-0.19 -0.27,-0.41 -0.38,-0.66 -0.1,-0.25 -0.15,-0.51 -0.15,-0.78 0,-0.24 0.04,-0.47 0.12,-0.68 0.09,-0.25 0.23,-0.5 0.42,-0.76l0.19 0c-0.12,0.21 -0.2,0.36 -0.24,0.45 -0.06,0.14 -0.11,0.28 -0.14,0.43 -0.04,0.19 -0.06,0.37 -0.06,0.56 0,0.48 0.15,0.96 0.45,1.44l-0.19 0z"/>
  <path id="_10" class="fil0" d="M1.03 6.69l-0.03 -0.25c0.06,0.02 0.11,0.02 0.15,0.02 0.06,0 0.11,-0.01 0.14,-0.03 0.04,-0.02 0.07,-0.05 0.09,-0.08 0.02,-0.03 0.04,-0.09 0.08,-0.2 0.01,-0.01 0.01,-0.04 0.02,-0.07l-0.61 -1.6 0.29 0 0.33 0.92c0.04,0.12 0.08,0.24 0.12,0.37 0.03,-0.12 0.07,-0.24 0.11,-0.36l0.34 -0.93 0.27 0 -0.6 1.62c-0.07,0.17 -0.12,0.29 -0.15,0.36 -0.05,0.09 -0.1,0.15 -0.17,0.2 -0.06,0.04 -0.14,0.06 -0.22,0.06 -0.05,0 -0.11,-0.01 -0.17,-0.03z"/>
  <path id="_11" class="fil0" d="M2.69 4.48l1.11 0 0 1.37 0.17 0 0 0.67 -0.22 0 0 -0.45 -1.26 0 0 0.45 -0.22 0 0 -0.67 0.14 0c0.19,-0.26 0.28,-0.72 0.27,-1.37zm0.22 0.22c-0.02,0.52 -0.1,0.9 -0.24,1.15l0.86 0 0 -1.15 -0.62 0z"/>
  <polygon id="_12" class="fil0" points="4.28,4.48 4.69,4.48 5.11,5.76 5.58,4.48 5.97,4.48 5.97,6.08 5.7,6.08 5.7,4.79 5.23,6.08 4.98,6.08 4.54,4.73 4.54,6.08 4.28,6.08 "/>
  <path id="_13" class="fil0" d="M6.4 6.69l-0.03 -0.25c0.06,0.02 0.11,0.02 0.15,0.02 0.06,0 0.11,-0.01 0.14,-0.03 0.04,-0.02 0.07,-0.05 0.09,-0.08 0.02,-0.03 0.04,-0.09 0.08,-0.2 0.01,-0.01 0.01,-0.04 0.02,-0.07l-0.61 -1.6 0.29 0 0.33 0.92c0.04,0.12 0.08,0.24 0.12,0.37 0.03,-0.12 0.07,-0.24 0.11,-0.36l0.34 -0.93 0.27 0 -0.6 1.62c-0.07,0.17 -0.12,0.29 -0.15,0.36 -0.05,0.09 -0.1,0.15 -0.17,0.2 -0.06,0.04 -0.14,0.06 -0.22,0.06 -0.05,0 -0.11,-0.01 -0.17,-0.03z"/>
  <path id="_14" class="fil0" d="M7.92 6.69l0 -2.21 0.25 0 0 0.21c0.06,-0.08 0.12,-0.14 0.2,-0.18 0.07,-0.04 0.16,-0.06 0.27,-0.06 0.14,0 0.26,0.03 0.36,0.11 0.1,0.07 0.18,0.17 0.24,0.3 0.05,0.13 0.08,0.27 0.08,0.42 0,0.16 -0.03,0.31 -0.09,0.44 -0.06,0.13 -0.14,0.23 -0.26,0.3 -0.11,0.07 -0.23,0.1 -0.35,0.1 -0.09,0 -0.17,-0.02 -0.24,-0.06 -0.07,-0.04 -0.13,-0.09 -0.18,-0.14l0 0.78 -0.27 0zm0.25 -1.4c0,0.2 0.04,0.36 0.12,0.45 0.08,0.1 0.18,0.15 0.3,0.15 0.12,0 0.22,-0.05 0.31,-0.15 0.09,-0.1 0.13,-0.26 0.13,-0.47 0,-0.2 -0.04,-0.35 -0.13,-0.46 -0.08,-0.1 -0.18,-0.15 -0.3,-0.15 -0.11,0 -0.22,0.05 -0.3,0.16 -0.09,0.11 -0.13,0.26 -0.13,0.47z"/>
  <polygon id="_15" class="fil0" points="9.42,4.48 10.71,4.48 10.71,4.71 10.2,4.71 10.2,6.08 9.93,6.08 9.93,4.71 9.42,4.71 "/>
  <path id="_16" class="fil0" d="M11.82 4.48l0.27 0 0 0.69c0.09,0 0.15,-0.02 0.18,-0.05 0.03,-0.03 0.09,-0.13 0.15,-0.29 0.05,-0.13 0.1,-0.21 0.13,-0.25 0.03,-0.04 0.07,-0.07 0.11,-0.08 0.04,-0.01 0.11,-0.02 0.21,-0.02l0.05 0 0 0.22 -0.08 -0c-0.07,0 -0.12,0.01 -0.14,0.03 -0.02,0.02 -0.05,0.09 -0.1,0.2 -0.04,0.1 -0.08,0.18 -0.11,0.22 -0.03,0.04 -0.09,0.08 -0.16,0.11 0.12,0.03 0.23,0.14 0.34,0.32l0.3 0.49 -0.3 0 -0.29 -0.49c-0.06,-0.1 -0.11,-0.17 -0.15,-0.2 -0.04,-0.03 -0.1,-0.05 -0.16,-0.05l0 0.74 -0.27 0 0 -1.6z"/>
  <path id="_17" class="fil0" d="M14.27 5.88c-0.1,0.09 -0.2,0.15 -0.29,0.18 -0.09,0.04 -0.19,0.05 -0.3,0.05 -0.18,0 -0.31,-0.04 -0.4,-0.13 -0.09,-0.08 -0.14,-0.19 -0.14,-0.33 0,-0.08 0.02,-0.15 0.05,-0.21 0.04,-0.06 0.08,-0.12 0.14,-0.15 0.06,-0.04 0.12,-0.07 0.19,-0.09 0.05,-0.01 0.13,-0.03 0.24,-0.04 0.22,-0.03 0.38,-0.06 0.48,-0.09 0,-0.04 0,-0.06 0,-0.07 0,-0.11 -0.03,-0.19 -0.08,-0.23 -0.07,-0.06 -0.17,-0.09 -0.31,-0.09 -0.13,0 -0.22,0.02 -0.28,0.07 -0.06,0.04 -0.11,0.12 -0.13,0.24l-0.26 -0.04c0.02,-0.11 0.06,-0.2 0.12,-0.27 0.06,-0.07 0.14,-0.12 0.24,-0.16 0.1,-0.04 0.23,-0.06 0.36,-0.06 0.14,0 0.25,0.02 0.33,0.05 0.08,0.03 0.15,0.07 0.19,0.12 0.04,0.05 0.07,0.11 0.08,0.18 0.01,0.05 0.01,0.13 0.01,0.25l0 0.36c0,0.25 0.01,0.41 0.02,0.48 0.01,0.07 0.03,0.13 0.07,0.19l-0.28 0c-0.03,-0.06 -0.04,-0.12 -0.05,-0.2zm-0.02 -0.6c-0.1,0.04 -0.25,0.07 -0.44,0.1 -0.11,0.02 -0.19,0.03 -0.24,0.05 -0.05,0.02 -0.08,0.05 -0.11,0.09 -0.03,0.04 -0.04,0.08 -0.04,0.13 0,0.07 0.03,0.13 0.08,0.18 0.05,0.05 0.13,0.07 0.24,0.07 0.1,0 0.2,-0.02 0.28,-0.07 0.08,-0.05 0.14,-0.11 0.18,-0.19 0.03,-0.06 0.04,-0.15 0.04,-0.27l0 -0.1z"/>
  <path id="_18" class="fil0" d="M15.07 4.48l1.26 0 0 1.59 -0.27 0 0 -1.37 -0.72 0 0 0.79c0,0.18 -0.01,0.31 -0.02,0.37 -0.01,0.06 -0.05,0.11 -0.1,0.15 -0.05,0.04 -0.13,0.07 -0.23,0.07 -0.06,0 -0.14,-0 -0.22,-0.01l0 -0.22 0.12 0c0.06,0 0.1,-0.01 0.12,-0.02 0.02,-0.01 0.04,-0.03 0.05,-0.05 0.01,-0.03 0.01,-0.11 0.01,-0.24l0 -1.05z"/>
  <path id="_19" class="fil0" d="M18.25 4.48l0.27 0 0 1.6 -0.27 0 0 -1.6zm-1.51 0l0.27 0 0 0.62 0.34 0c0.22,0 0.39,0.04 0.51,0.13 0.12,0.09 0.18,0.21 0.18,0.36 0,0.13 -0.05,0.25 -0.15,0.34 -0.1,0.09 -0.26,0.14 -0.48,0.14l-0.67 0 0 -1.6zm0.27 1.37l0.28 0c0.17,0 0.29,-0.02 0.37,-0.06 0.07,-0.04 0.11,-0.11 0.11,-0.2 0,-0.07 -0.03,-0.13 -0.08,-0.18 -0.05,-0.05 -0.17,-0.08 -0.36,-0.08l-0.32 0 0 0.53z"/>
  <path id="_20" class="fil0" d="M18.94 4.48l0.27 0 0 0.69c0.09,0 0.15,-0.02 0.18,-0.05 0.03,-0.03 0.09,-0.13 0.15,-0.29 0.05,-0.13 0.1,-0.21 0.13,-0.25 0.03,-0.04 0.07,-0.07 0.11,-0.08 0.04,-0.01 0.11,-0.02 0.21,-0.02l0.05 0 0 0.22 -0.08 -0c-0.07,0 -0.12,0.01 -0.14,0.03 -0.02,0.02 -0.05,0.09 -0.1,0.2 -0.04,0.1 -0.08,0.18 -0.11,0.22 -0.03,0.04 -0.09,0.08 -0.16,0.11 0.12,0.03 0.23,0.14 0.34,0.32l0.3 0.49 -0.3 0 -0.29 -0.49c-0.06,-0.1 -0.11,-0.17 -0.15,-0.2 -0.04,-0.03 -0.1,-0.05 -0.16,-0.05l0 0.74 -0.27 0 0 -1.6z"/>
  <path id="_21" class="fil0" d="M21.14 4.48l0.62 0c0.15,0 0.27,0.01 0.34,0.04 0.07,0.03 0.14,0.07 0.19,0.14 0.05,0.07 0.08,0.15 0.08,0.25 0,0.08 -0.02,0.14 -0.05,0.2 -0.03,0.06 -0.08,0.1 -0.14,0.14 0.07,0.03 0.14,0.07 0.19,0.14 0.05,0.07 0.07,0.15 0.07,0.24 -0.01,0.15 -0.06,0.26 -0.16,0.34 -0.1,0.07 -0.24,0.11 -0.43,0.11l-0.72 0 0 -1.6zm0.27 0.67l0.29 0c0.11,0 0.19,-0.01 0.24,-0.02 0.04,-0.01 0.08,-0.04 0.12,-0.07 0.03,-0.04 0.05,-0.08 0.05,-0.13 0,-0.08 -0.03,-0.14 -0.09,-0.18 -0.06,-0.03 -0.16,-0.05 -0.3,-0.05l-0.3 0 0 0.45zm0 0.7l0.36 0c0.15,0 0.26,-0.02 0.31,-0.05 0.06,-0.04 0.09,-0.1 0.09,-0.18 0,-0.05 -0.02,-0.1 -0.05,-0.14 -0.03,-0.04 -0.08,-0.07 -0.13,-0.08 -0.05,-0.01 -0.14,-0.02 -0.25,-0.02l-0.33 0 0 0.48z"/>
  <path id="_22" class="fil0" d="M24.29 4.48l0.27 0 0 1.6 -0.27 0 0 -1.6zm-1.51 0l0.27 0 0 0.62 0.34 0c0.22,0 0.39,0.04 0.51,0.13 0.12,0.09 0.18,0.21 0.18,0.36 0,0.13 -0.05,0.25 -0.15,0.34 -0.1,0.09 -0.26,0.14 -0.48,0.14l-0.67 0 0 -1.6zm0.27 1.37l0.28 0c0.17,0 0.29,-0.02 0.37,-0.06 0.07,-0.04 0.11,-0.11 0.11,-0.2 0,-0.07 -0.03,-0.13 -0.08,-0.18 -0.05,-0.05 -0.17,-0.08 -0.36,-0.08l-0.32 0 0 0.53z"/>
  <path id="_23" class="fil0" d="M25.95 4.48l0 0.69c0.09,0 0.15,-0.02 0.18,-0.05 0.04,-0.03 0.09,-0.13 0.15,-0.29 0.06,-0.15 0.12,-0.25 0.17,-0.29 0.05,-0.04 0.13,-0.06 0.23,-0.06l0.1 0 0 0.22 -0.07 -0c-0.07,0 -0.12,0.01 -0.14,0.03 -0.02,0.02 -0.05,0.09 -0.1,0.2 -0.04,0.1 -0.08,0.18 -0.11,0.22 -0.03,0.04 -0.09,0.08 -0.16,0.11 0.12,0.03 0.23,0.14 0.34,0.32l0.3 0.49 -0.3 0 -0.29 -0.49c-0.06,-0.1 -0.11,-0.17 -0.15,-0.2 -0.04,-0.03 -0.1,-0.05 -0.16,-0.05l0 0.74 -0.28 0 0 -0.74c-0.06,0 -0.11,0.02 -0.16,0.05 -0.04,0.03 -0.1,0.1 -0.15,0.2l-0.29 0.49 -0.3 0 0.3 -0.49c0.11,-0.19 0.23,-0.29 0.34,-0.32 -0.08,-0.04 -0.14,-0.08 -0.17,-0.12 -0.03,-0.04 -0.08,-0.15 -0.14,-0.31 -0.02,-0.06 -0.05,-0.09 -0.07,-0.1 -0.03,-0.01 -0.06,-0.02 -0.12,-0.02 -0.01,0 -0.04,0 -0.08,0l0 -0.22 0.04 0c0.1,0 0.18,0.01 0.22,0.02 0.04,0.01 0.08,0.04 0.11,0.08 0.03,0.04 0.08,0.12 0.13,0.25 0.07,0.16 0.12,0.25 0.15,0.29 0.03,0.03 0.1,0.05 0.18,0.05l0 -0.69 0.28 0z"/>
  <path id="_24" class="fil0" d="M28.56 4.48l0.27 0 0 1.6 -0.27 0 0 -1.6zm-1.51 0l0.27 0 0 0.62 0.34 0c0.22,0 0.39,0.04 0.51,0.13 0.12,0.09 0.18,0.21 0.18,0.36 0,0.13 -0.05,0.25 -0.15,0.34 -0.1,0.09 -0.26,0.14 -0.48,0.14l-0.67 0 0 -1.6zm0.27 1.37l0.28 0c0.17,0 0.29,-0.02 0.37,-0.06 0.07,-0.04 0.11,-0.11 0.11,-0.2 0,-0.07 -0.03,-0.13 -0.08,-0.18 -0.05,-0.05 -0.17,-0.08 -0.36,-0.08l-0.32 0 0 0.53z"/>
  <path id="_25" class="fil0" d="M29.25 4.48l0.27 0 0 0.69c0.09,0 0.15,-0.02 0.18,-0.05 0.03,-0.03 0.09,-0.13 0.15,-0.29 0.05,-0.13 0.1,-0.21 0.13,-0.25 0.03,-0.04 0.07,-0.07 0.11,-0.08 0.04,-0.01 0.11,-0.02 0.21,-0.02l0.05 0 0 0.22 -0.08 -0c-0.07,0 -0.12,0.01 -0.14,0.03 -0.02,0.02 -0.05,0.09 -0.1,0.2 -0.04,0.1 -0.08,0.18 -0.11,0.22 -0.03,0.04 -0.09,0.08 -0.16,0.11 0.12,0.03 0.23,0.14 0.34,0.32l0.3 0.49 -0.3 0 -0.29 -0.49c-0.06,-0.1 -0.11,-0.17 -0.15,-0.2 -0.04,-0.03 -0.1,-0.05 -0.16,-0.05l0 0.74 -0.27 0 0 -1.6z"/>
  <path id="_26" class="fil0" d="M32.11 4.48l0.27 0 0 1.6 -0.27 0 0 -1.6zm-1.51 0l0.27 0 0 0.62 0.34 0c0.22,0 0.39,0.04 0.51,0.13 0.12,0.09 0.18,0.21 0.18,0.36 0,0.13 -0.05,0.25 -0.15,0.34 -0.1,0.09 -0.26,0.14 -0.48,0.14l-0.67 0 0 -1.6zm0.27 1.37l0.28 0c0.17,0 0.29,-0.02 0.37,-0.06 0.07,-0.04 0.11,-0.11 0.11,-0.2 0,-0.07 -0.03,-0.13 -0.08,-0.18 -0.05,-0.05 -0.17,-0.08 -0.36,-0.08l-0.32 0 0 0.53z"/>
  <path id="_27" class="fil0" d="M32.93 4.48l1.26 0 0 1.59 -0.27 0 0 -1.37 -0.72 0 0 0.79c0,0.18 -0.01,0.31 -0.02,0.37 -0.01,0.06 -0.05,0.11 -0.1,0.15 -0.05,0.04 -0.13,0.07 -0.23,0.07 -0.06,0 -0.14,-0 -0.22,-0.01l0 -0.22 0.12 0c0.06,0 0.1,-0.01 0.12,-0.02 0.02,-0.01 0.04,-0.03 0.05,-0.05 0.01,-0.03 0.01,-0.11 0.01,-0.24l0 -1.05z"/>
  <path id="_28" class="fil0" d="M34.77 6.72l-0.19 0c0.3,-0.48 0.45,-0.96 0.45,-1.44 0,-0.19 -0.02,-0.37 -0.06,-0.56 -0.03,-0.15 -0.08,-0.29 -0.14,-0.43 -0.04,-0.09 -0.12,-0.24 -0.24,-0.45l0.19 0c0.19,0.25 0.33,0.5 0.42,0.76 0.08,0.22 0.12,0.45 0.12,0.68 0,0.27 -0.05,0.53 -0.16,0.78 -0.1,0.25 -0.23,0.47 -0.38,0.66z"/>
  <path id="_29" class="fil1 str0" d="M7.43 0.44l0.29 0 0 0.97c0.13,0 0.23,-0.03 0.28,-0.08 0.05,-0.05 0.12,-0.18 0.21,-0.37 0.06,-0.14 0.11,-0.25 0.15,-0.31 0.04,-0.06 0.1,-0.11 0.17,-0.15 0.07,-0.04 0.15,-0.06 0.24,-0.06 0.11,0 0.17,0 0.18,0l0 0.25c-0.01,0 -0.03,-0 -0.06,-0 -0.03,-0 -0.05,-0 -0.06,-0 -0.09,0 -0.16,0.02 -0.21,0.07 -0.05,0.05 -0.1,0.14 -0.16,0.29 -0.07,0.19 -0.14,0.3 -0.19,0.35 -0.05,0.05 -0.11,0.09 -0.18,0.12 0.14,0.04 0.28,0.17 0.42,0.39l0.45 0.73 -0.36 0 -0.37 -0.6c-0.1,-0.17 -0.19,-0.28 -0.25,-0.34 -0.07,-0.06 -0.16,-0.09 -0.26,-0.09l0 1.03 -0.29 0 0 -2.2z"/>
  <path id="_30" class="fil1 str0" d="M9.23 0.44l0.29 0 0 0.94 0.52 0c0.34,0 0.57,0.06 0.68,0.19 0.11,0.13 0.16,0.27 0.16,0.43 0,0.17 -0.06,0.32 -0.17,0.45 -0.12,0.13 -0.33,0.19 -0.65,0.19l-0.84 0 0 -2.2zm0.29 1.95l0.53 0c0.18,0 0.32,-0.03 0.4,-0.09 0.08,-0.06 0.12,-0.16 0.12,-0.3 0,-0.09 -0.03,-0.17 -0.07,-0.23 -0.05,-0.06 -0.11,-0.1 -0.19,-0.12 -0.08,-0.02 -0.21,-0.03 -0.39,-0.03l-0.39 0 0 0.76zm1.63 -1.95l0.29 0 0 2.2 -0.29 0 0 -2.2z"/>
  <path id="_31" class="fil1 str0" d="M11.94 0.44l0.29 0 0 0.97c0.13,0 0.23,-0.03 0.28,-0.08 0.05,-0.05 0.12,-0.18 0.21,-0.37 0.06,-0.14 0.11,-0.25 0.15,-0.31 0.04,-0.06 0.1,-0.11 0.17,-0.15 0.07,-0.04 0.15,-0.06 0.24,-0.06 0.11,0 0.17,0 0.18,0l0 0.25c-0.01,0 -0.03,-0 -0.06,-0 -0.03,-0 -0.05,-0 -0.06,-0 -0.09,0 -0.16,0.02 -0.21,0.07 -0.05,0.05 -0.1,0.14 -0.16,0.29 -0.07,0.19 -0.14,0.3 -0.19,0.35 -0.05,0.05 -0.11,0.09 -0.18,0.12 0.14,0.04 0.28,0.17 0.42,0.39l0.45 0.73 -0.36 0 -0.37 -0.6c-0.1,-0.17 -0.19,-0.28 -0.25,-0.34 -0.07,-0.06 -0.16,-0.09 -0.26,-0.09l0 1.03 -0.29 0 0 -2.2z"/>
  <path id="_32" class="fil1 str0" d="M14.57 2.64l0 -2.2 0.83 0c0.17,0 0.3,0.02 0.4,0.07 0.1,0.04 0.18,0.11 0.24,0.21 0.06,0.09 0.09,0.19 0.09,0.29 0,0.09 -0.03,0.18 -0.08,0.27 -0.05,0.08 -0.13,0.15 -0.23,0.2 0.13,0.04 0.24,0.11 0.31,0.2 0.07,0.09 0.11,0.2 0.11,0.33 0,0.1 -0.02,0.2 -0.07,0.29 -0.04,0.09 -0.1,0.16 -0.16,0.2 -0.06,0.05 -0.14,0.08 -0.24,0.11 -0.1,0.02 -0.22,0.04 -0.36,0.04l-0.84 0zm0.29 -1.28l0.48 0c0.13,0 0.22,-0.01 0.28,-0.03 0.07,-0.02 0.13,-0.06 0.17,-0.11 0.04,-0.05 0.06,-0.12 0.06,-0.19 0,-0.07 -0.02,-0.14 -0.05,-0.19 -0.03,-0.06 -0.08,-0.09 -0.15,-0.11 -0.07,-0.02 -0.18,-0.03 -0.33,-0.03l-0.44 0 0 0.67zm0 1.02l0.55 0c0.09,0 0.16,-0 0.2,-0.01 0.07,-0.01 0.12,-0.03 0.17,-0.06 0.05,-0.03 0.08,-0.07 0.11,-0.12 0.03,-0.05 0.04,-0.12 0.04,-0.19 0,-0.08 -0.02,-0.15 -0.06,-0.21 -0.04,-0.06 -0.1,-0.1 -0.18,-0.13 -0.07,-0.02 -0.18,-0.04 -0.32,-0.04l-0.51 0 0 0.76z"/>
  <path id="_33" class="fil1 str0" d="M16.65 0.44l0.29 0 0 0.94 0.52 0c0.34,0 0.57,0.06 0.68,0.19 0.11,0.13 0.16,0.27 0.16,0.43 0,0.17 -0.06,0.32 -0.17,0.45 -0.12,0.13 -0.33,0.19 -0.65,0.19l-0.84 0 0 -2.2zm0.29 1.95l0.53 0c0.18,0 0.32,-0.03 0.4,-0.09 0.08,-0.06 0.12,-0.16 0.12,-0.3 0,-0.09 -0.03,-0.17 -0.07,-0.23 -0.05,-0.06 -0.11,-0.1 -0.19,-0.12 -0.08,-0.02 -0.21,-0.03 -0.39,-0.03l-0.39 0 0 0.76zm1.63 -1.95l0.29 0 0 2.2 -0.29 0 0 -2.2z"/>
  <polygon id="_34" class="fil1 str0" points="19.36,2.64 19.36,0.44 19.66,0.44 19.66,1.35 20.79,1.35 20.79,0.44 21.09,0.44 21.09,2.64 20.79,2.64 20.79,1.61 19.66,1.61 19.66,2.64 "/>
  <path id="_35" class="fil1 str0" d="M21.34 0.44l0.96 0 0 0.94 0.53 0c0.35,0 0.57,0.06 0.68,0.19 0.11,0.13 0.16,0.27 0.16,0.43 0,0.18 -0.06,0.34 -0.19,0.46 -0.12,0.12 -0.34,0.18 -0.64,0.18l-0.84 0 0 -1.94 -0.67 0 0 -0.26zm0.96 1.95l0.53 0c0.18,0 0.32,-0.03 0.4,-0.09 0.08,-0.06 0.12,-0.16 0.12,-0.29 0,-0.09 -0.02,-0.17 -0.07,-0.23 -0.05,-0.06 -0.11,-0.1 -0.19,-0.12 -0.08,-0.02 -0.21,-0.03 -0.4,-0.03l-0.39 0 0 0.76z"/>
  <path id="_36" class="fil1 str0" d="M24.01 2.64l0 -2.2 1.59 0 0 0.26 -1.3 0 0 0.68 1.21 0 0 0.26 -1.21 0 0 0.75 1.35 0 0 0.26 -1.64 0zm0.37 -2.34l0 -0.31 0.28 0 0 0.31 -0.28 0zm0.56 0l0 -0.31 0.28 0 0 0.31 -0.28 0z"/>
  <path id="_37" class="fil1 str0" d="M27.62 1.87l0.29 0.07c-0.06,0.24 -0.17,0.42 -0.33,0.55 -0.16,0.13 -0.35,0.19 -0.58,0.19 -0.24,0 -0.43,-0.05 -0.58,-0.14 -0.15,-0.1 -0.26,-0.24 -0.34,-0.42 -0.08,-0.18 -0.12,-0.38 -0.12,-0.59 0,-0.23 0.04,-0.43 0.13,-0.6 0.09,-0.17 0.21,-0.3 0.37,-0.39 0.16,-0.09 0.34,-0.13 0.53,-0.13 0.22,0 0.41,0.06 0.55,0.17 0.15,0.11 0.25,0.27 0.31,0.47l-0.29 0.07c-0.05,-0.16 -0.13,-0.28 -0.22,-0.35 -0.1,-0.07 -0.22,-0.11 -0.37,-0.11 -0.17,0 -0.31,0.04 -0.42,0.12 -0.11,0.08 -0.19,0.19 -0.24,0.33 -0.05,0.14 -0.07,0.28 -0.07,0.42 0,0.19 0.03,0.35 0.08,0.49 0.05,0.14 0.14,0.24 0.25,0.31 0.11,0.07 0.24,0.1 0.37,0.1 0.16,0 0.3,-0.05 0.41,-0.14 0.11,-0.09 0.19,-0.23 0.23,-0.42z"/>
  <path id="_38" class="fil1 str0" d="M0.53 6.72c-0.15,-0.19 -0.27,-0.41 -0.38,-0.66 -0.1,-0.25 -0.15,-0.51 -0.15,-0.78 0,-0.24 0.04,-0.47 0.12,-0.68 0.09,-0.25 0.23,-0.5 0.42,-0.76l0.19 0c-0.12,0.21 -0.2,0.36 -0.24,0.45 -0.06,0.14 -0.11,0.28 -0.14,0.43 -0.04,0.19 -0.06,0.37 -0.06,0.56 0,0.48 0.15,0.96 0.45,1.44l-0.19 0z"/>
  <path id="_39" class="fil1 str0" d="M1.03 6.69l-0.03 -0.25c0.06,0.02 0.11,0.02 0.15,0.02 0.06,0 0.11,-0.01 0.14,-0.03 0.04,-0.02 0.07,-0.05 0.09,-0.08 0.02,-0.03 0.04,-0.09 0.08,-0.2 0.01,-0.01 0.01,-0.04 0.02,-0.07l-0.61 -1.6 0.29 0 0.33 0.92c0.04,0.12 0.08,0.24 0.12,0.37 0.03,-0.12 0.07,-0.24 0.11,-0.36l0.34 -0.93 0.27 0 -0.6 1.62c-0.07,0.17 -0.12,0.29 -0.15,0.36 -0.05,0.09 -0.1,0.15 -0.17,0.2 -0.06,0.04 -0.14,0.06 -0.22,0.06 -0.05,0 -0.11,-0.01 -0.17,-0.03z"/>
  <path id="_40" class="fil1 str0" d="M2.69 4.48l1.11 0 0 1.37 0.17 0 0 0.67 -0.22 0 0 -0.45 -1.26 0 0 0.45 -0.22 0 0 -0.67 0.14 0c0.19,-0.26 0.28,-0.72 0.27,-1.37zm0.22 0.22c-0.02,0.52 -0.1,0.9 -0.24,1.15l0.86 0 0 -1.15 -0.62 0z"/>
  <polygon id="_41" class="fil1 str0" points="4.28,4.48 4.69,4.48 5.11,5.76 5.58,4.48 5.97,4.48 5.97,6.08 5.7,6.08 5.7,4.79 5.23,6.08 4.98,6.08 4.54,4.73 4.54,6.08 4.28,6.08 "/>
  <path id="_42" class="fil1 str0" d="M6.4 6.69l-0.03 -0.25c0.06,0.02 0.11,0.02 0.15,0.02 0.06,0 0.11,-0.01 0.14,-0.03 0.04,-0.02 0.07,-0.05 0.09,-0.08 0.02,-0.03 0.04,-0.09 0.08,-0.2 0.01,-0.01 0.01,-0.04 0.02,-0.07l-0.61 -1.6 0.29 0 0.33 0.92c0.04,0.12 0.08,0.24 0.12,0.37 0.03,-0.12 0.07,-0.24 0.11,-0.36l0.34 -0.93 0.27 0 -0.6 1.62c-0.07,0.17 -0.12,0.29 -0.15,0.36 -0.05,0.09 -0.1,0.15 -0.17,0.2 -0.06,0.04 -0.14,0.06 -0.22,0.06 -0.05,0 -0.11,-0.01 -0.17,-0.03z"/>
  <path id="_43" class="fil1 str0" d="M7.92 6.69l0 -2.21 0.25 0 0 0.21c0.06,-0.08 0.12,-0.14 0.2,-0.18 0.07,-0.04 0.16,-0.06 0.27,-0.06 0.14,0 0.26,0.03 0.36,0.11 0.1,0.07 0.18,0.17 0.24,0.3 0.05,0.13 0.08,0.27 0.08,0.42 0,0.16 -0.03,0.31 -0.09,0.44 -0.06,0.13 -0.14,0.23 -0.26,0.3 -0.11,0.07 -0.23,0.1 -0.35,0.1 -0.09,0 -0.17,-0.02 -0.24,-0.06 -0.07,-0.04 -0.13,-0.09 -0.18,-0.14l0 0.78 -0.27 0zm0.25 -1.4c0,0.2 0.04,0.36 0.12,0.45 0.08,0.1 0.18,0.15 0.3,0.15 0.12,0 0.22,-0.05 0.31,-0.15 0.09,-0.1 0.13,-0.26 0.13,-0.47 0,-0.2 -0.04,-0.35 -0.13,-0.46 -0.08,-0.1 -0.18,-0.15 -0.3,-0.15 -0.11,0 -0.22,0.05 -0.3,0.16 -0.09,0.11 -0.13,0.26 -0.13,0.47z"/>
  <polygon id="_44" class="fil1 str0" points="9.42,4.48 10.71,4.48 10.71,4.71 10.2,4.71 10.2,6.08 9.93,6.08 9.93,4.71 9.42,4.71 "/>
  <path id="_45" class="fil1 str0" d="M11.82 4.48l0.27 0 0 0.69c0.09,0 0.15,-0.02 0.18,-0.05 0.03,-0.03 0.09,-0.13 0.15,-0.29 0.05,-0.13 0.1,-0.21 0.13,-0.25 0.03,-0.04 0.07,-0.07 0.11,-0.08 0.04,-0.01 0.11,-0.02 0.21,-0.02l0.05 0 0 0.22 -0.08 -0c-0.07,0 -0.12,0.01 -0.14,0.03 -0.02,0.02 -0.05,0.09 -0.1,0.2 -0.04,0.1 -0.08,0.18 -0.11,0.22 -0.03,0.04 -0.09,0.08 -0.16,0.11 0.12,0.03 0.23,0.14 0.34,0.32l0.3 0.49 -0.3 0 -0.29 -0.49c-0.06,-0.1 -0.11,-0.17 -0.15,-0.2 -0.04,-0.03 -0.1,-0.05 -0.16,-0.05l0 0.74 -0.27 0 0 -1.6z"/>
  <path id="_46" class="fil1 str0" d="M14.27 5.88c-0.1,0.09 -0.2,0.15 -0.29,0.18 -0.09,0.04 -0.19,0.05 -0.3,0.05 -0.18,0 -0.31,-0.04 -0.4,-0.13 -0.09,-0.08 -0.14,-0.19 -0.14,-0.33 0,-0.08 0.02,-0.15 0.05,-0.21 0.04,-0.06 0.08,-0.12 0.14,-0.15 0.06,-0.04 0.12,-0.07 0.19,-0.09 0.05,-0.01 0.13,-0.03 0.24,-0.04 0.22,-0.03 0.38,-0.06 0.48,-0.09 0,-0.04 0,-0.06 0,-0.07 0,-0.11 -0.03,-0.19 -0.08,-0.23 -0.07,-0.06 -0.17,-0.09 -0.31,-0.09 -0.13,0 -0.22,0.02 -0.28,0.07 -0.06,0.04 -0.11,0.12 -0.13,0.24l-0.26 -0.04c0.02,-0.11 0.06,-0.2 0.12,-0.27 0.06,-0.07 0.14,-0.12 0.24,-0.16 0.1,-0.04 0.23,-0.06 0.36,-0.06 0.14,0 0.25,0.02 0.33,0.05 0.08,0.03 0.15,0.07 0.19,0.12 0.04,0.05 0.07,0.11 0.08,0.18 0.01,0.05 0.01,0.13 0.01,0.25l0 0.36c0,0.25 0.01,0.41 0.02,0.48 0.01,0.07 0.03,0.13 0.07,0.19l-0.28 0c-0.03,-0.06 -0.04,-0.12 -0.05,-0.2zm-0.02 -0.6c-0.1,0.04 -0.25,0.07 -0.44,0.1 -0.11,0.02 -0.19,0.03 -0.24,0.05 -0.05,0.02 -0.08,0.05 -0.11,0.09 -0.03,0.04 -0.04,0.08 -0.04,0.13 0,0.07 0.03,0.13 0.08,0.18 0.05,0.05 0.13,0.07 0.24,0.07 0.1,0 0.2,-0.02 0.28,-0.07 0.08,-0.05 0.14,-0.11 0.18,-0.19 0.03,-0.06 0.04,-0.15 0.04,-0.27l0 -0.1z"/>
  <path id="_47" class="fil1 str0" d="M15.07 4.48l1.26 0 0 1.59 -0.27 0 0 -1.37 -0.72 0 0 0.79c0,0.18 -0.01,0.31 -0.02,0.37 -0.01,0.06 -0.05,0.11 -0.1,0.15 -0.05,0.04 -0.13,0.07 -0.23,0.07 -0.06,0 -0.14,-0 -0.22,-0.01l0 -0.22 0.12 0c0.06,0 0.1,-0.01 0.12,-0.02 0.02,-0.01 0.04,-0.03 0.05,-0.05 0.01,-0.03 0.01,-0.11 0.01,-0.24l0 -1.05z"/>
  <path id="_48" class="fil1 str0" d="M18.25 4.48l0.27 0 0 1.6 -0.27 0 0 -1.6zm-1.51 0l0.27 0 0 0.62 0.34 0c0.22,0 0.39,0.04 0.51,0.13 0.12,0.09 0.18,0.21 0.18,0.36 0,0.13 -0.05,0.25 -0.15,0.34 -0.1,0.09 -0.26,0.14 -0.48,0.14l-0.67 0 0 -1.6zm0.27 1.37l0.28 0c0.17,0 0.29,-0.02 0.37,-0.06 0.07,-0.04 0.11,-0.11 0.11,-0.2 0,-0.07 -0.03,-0.13 -0.08,-0.18 -0.05,-0.05 -0.17,-0.08 -0.36,-0.08l-0.32 0 0 0.53z"/>
  <path id="_49" class="fil1 str0" d="M18.94 4.48l0.27 0 0 0.69c0.09,0 0.15,-0.02 0.18,-0.05 0.03,-0.03 0.09,-0.13 0.15,-0.29 0.05,-0.13 0.1,-0.21 0.13,-0.25 0.03,-0.04 0.07,-0.07 0.11,-0.08 0.04,-0.01 0.11,-0.02 0.21,-0.02l0.05 0 0 0.22 -0.08 -0c-0.07,0 -0.12,0.01 -0.14,0.03 -0.02,0.02 -0.05,0.09 -0.1,0.2 -0.04,0.1 -0.08,0.18 -0.11,0.22 -0.03,0.04 -0.09,0.08 -0.16,0.11 0.12,0.03 0.23,0.14 0.34,0.32l0.3 0.49 -0.3 0 -0.29 -0.49c-0.06,-0.1 -0.11,-0.17 -0.15,-0.2 -0.04,-0.03 -0.1,-0.05 -0.16,-0.05l0 0.74 -0.27 0 0 -1.6z"/>
  <path id="_50" class="fil1 str0" d="M21.14 4.48l0.62 0c0.15,0 0.27,0.01 0.34,0.04 0.07,0.03 0.14,0.07 0.19,0.14 0.05,0.07 0.08,0.15 0.08,0.25 0,0.08 -0.02,0.14 -0.05,0.2 -0.03,0.06 -0.08,0.1 -0.14,0.14 0.07,0.03 0.14,0.07 0.19,0.14 0.05,0.07 0.07,0.15 0.07,0.24 -0.01,0.15 -0.06,0.26 -0.16,0.34 -0.1,0.07 -0.24,0.11 -0.43,0.11l-0.72 0 0 -1.6zm0.27 0.67l0.29 0c0.11,0 0.19,-0.01 0.24,-0.02 0.04,-0.01 0.08,-0.04 0.12,-0.07 0.03,-0.04 0.05,-0.08 0.05,-0.13 0,-0.08 -0.03,-0.14 -0.09,-0.18 -0.06,-0.03 -0.16,-0.05 -0.3,-0.05l-0.3 0 0 0.45zm0 0.7l0.36 0c0.15,0 0.26,-0.02 0.31,-0.05 0.06,-0.04 0.09,-0.1 0.09,-0.18 0,-0.05 -0.02,-0.1 -0.05,-0.14 -0.03,-0.04 -0.08,-0.07 -0.13,-0.08 -0.05,-0.01 -0.14,-0.02 -0.25,-0.02l-0.33 0 0 0.48z"/>
  <path id="_51" class="fil1 str0" d="M24.29 4.48l0.27 0 0 1.6 -0.27 0 0 -1.6zm-1.51 0l0.27 0 0 0.62 0.34 0c0.22,0 0.39,0.04 0.51,0.13 0.12,0.09 0.18,0.21 0.18,0.36 0,0.13 -0.05,0.25 -0.15,0.34 -0.1,0.09 -0.26,0.14 -0.48,0.14l-0.67 0 0 -1.6zm0.27 1.37l0.28 0c0.17,0 0.29,-0.02 0.37,-0.06 0.07,-0.04 0.11,-0.11 0.11,-0.2 0,-0.07 -0.03,-0.13 -0.08,-0.18 -0.05,-0.05 -0.17,-0.08 -0.36,-0.08l-0.32 0 0 0.53z"/>
  <path id="_52" class="fil1 str0" d="M25.95 4.48l0 0.69c0.09,0 0.15,-0.02 0.18,-0.05 0.04,-0.03 0.09,-0.13 0.15,-0.29 0.06,-0.15 0.12,-0.25 0.17,-0.29 0.05,-0.04 0.13,-0.06 0.23,-0.06l0.1 0 0 0.22 -0.07 -0c-0.07,0 -0.12,0.01 -0.14,0.03 -0.02,0.02 -0.05,0.09 -0.1,0.2 -0.04,0.1 -0.08,0.18 -0.11,0.22 -0.03,0.04 -0.09,0.08 -0.16,0.11 0.12,0.03 0.23,0.14 0.34,0.32l0.3 0.49 -0.3 0 -0.29 -0.49c-0.06,-0.1 -0.11,-0.17 -0.15,-0.2 -0.04,-0.03 -0.1,-0.05 -0.16,-0.05l0 0.74 -0.28 0 0 -0.74c-0.06,0 -0.11,0.02 -0.16,0.05 -0.04,0.03 -0.1,0.1 -0.15,0.2l-0.29 0.49 -0.3 0 0.3 -0.49c0.11,-0.19 0.23,-0.29 0.34,-0.32 -0.08,-0.04 -0.14,-0.08 -0.17,-0.12 -0.03,-0.04 -0.08,-0.15 -0.14,-0.31 -0.02,-0.06 -0.05,-0.09 -0.07,-0.1 -0.03,-0.01 -0.06,-0.02 -0.12,-0.02 -0.01,0 -0.04,0 -0.08,0l0 -0.22 0.04 0c0.1,0 0.18,0.01 0.22,0.02 0.04,0.01 0.08,0.04 0.11,0.08 0.03,0.04 0.08,0.12 0.13,0.25 0.07,0.16 0.12,0.25 0.15,0.29 0.03,0.03 0.1,0.05 0.18,0.05l0 -0.69 0.28 0z"/>
  <path id="_53" class="fil1 str0" d="M28.56 4.48l0.27 0 0 1.6 -0.27 0 0 -1.6zm-1.51 0l0.27 0 0 0.62 0.34 0c0.22,0 0.39,0.04 0.51,0.13 0.12,0.09 0.18,0.21 0.18,0.36 0,0.13 -0.05,0.25 -0.15,0.34 -0.1,0.09 -0.26,0.14 -0.48,0.14l-0.67 0 0 -1.6zm0.27 1.37l0.28 0c0.17,0 0.29,-0.02 0.37,-0.06 0.07,-0.04 0.11,-0.11 0.11,-0.2 0,-0.07 -0.03,-0.13 -0.08,-0.18 -0.05,-0.05 -0.17,-0.08 -0.36,-0.08l-0.32 0 0 0.53z"/>
  <path id="_54" class="fil1 str0" d="M29.25 4.48l0.27 0 0 0.69c0.09,0 0.15,-0.02 0.18,-0.05 0.03,-0.03 0.09,-0.13 0.15,-0.29 0.05,-0.13 0.1,-0.21 0.13,-0.25 0.03,-0.04 0.07,-0.07 0.11,-0.08 0.04,-0.01 0.11,-0.02 0.21,-0.02l0.05 0 0 0.22 -0.08 -0c-0.07,0 -0.12,0.01 -0.14,0.03 -0.02,0.02 -0.05,0.09 -0.1,0.2 -0.04,0.1 -0.08,0.18 -0.11,0.22 -0.03,0.04 -0.09,0.08 -0.16,0.11 0.12,0.03 0.23,0.14 0.34,0.32l0.3 0.49 -0.3 0 -0.29 -0.49c-0.06,-0.1 -0.11,-0.17 -0.15,-0.2 -0.04,-0.03 -0.1,-0.05 -0.16,-0.05l0 0.74 -0.27 0 0 -1.6z"/>
  <path id="_55" class="fil1 str0" d="M32.11 4.48l0.27 0 0 1.6 -0.27 0 0 -1.6zm-1.51 0l0.27 0 0 0.62 0.34 0c0.22,0 0.39,0.04 0.51,0.13 0.12,0.09 0.18,0.21 0.18,0.36 0,0.13 -0.05,0.25 -0.15,0.34 -0.1,0.09 -0.26,0.14 -0.48,0.14l-0.67 0 0 -1.6zm0.27 1.37l0.28 0c0.17,0 0.29,-0.02 0.37,-0.06 0.07,-0.04 0.11,-0.11 0.11,-0.2 0,-0.07 -0.03,-0.13 -0.08,-0.18 -0.05,-0.05 -0.17,-0.08 -0.36,-0.08l-0.32 0 0 0.53z"/>
  <path id="_56" class="fil1 str0" d="M32.93 4.48l1.26 0 0 1.59 -0.27 0 0 -1.37 -0.72 0 0 0.79c0,0.18 -0.01,0.31 -0.02,0.37 -0.01,0.06 -0.05,0.11 -0.1,0.15 -0.05,0.04 -0.13,0.07 -0.23,0.07 -0.06,0 -0.14,-0 -0.22,-0.01l0 -0.22 0.12 0c0.06,0 0.1,-0.01 0.12,-0.02 0.02,-0.01 0.04,-0.03 0.05,-0.05 0.01,-0.03 0.01,-0.11 0.01,-0.24l0 -1.05z"/>
  <path id="_57" class="fil1 str0" d="M34.77 6.72l-0.19 0c0.3,-0.48 0.45,-0.96 0.45,-1.44 0,-0.19 -0.02,-0.37 -0.06,-0.56 -0.03,-0.15 -0.08,-0.29 -0.14,-0.43 -0.04,-0.09 -0.12,-0.24 -0.24,-0.45l0.19 0c0.19,0.25 0.33,0.5 0.42,0.76 0.08,0.22 0.12,0.45 0.12,0.68 0,0.27 -0.05,0.53 -0.16,0.78 -0.1,0.25 -0.23,0.47 -0.38,0.66z"/>
 </g>
</svg>
