<?xml version="1.0" encoding="UTF-8"?>
<!DOCTYPE svg PUBLIC "-//W3C//DTD SVG 1.1//EN" "http://www.w3.org/Graphics/SVG/1.1/DTD/svg11.dtd">
<!-- Creator: CorelDRAW 2019 (64-Bit) -->
<svg xmlns="http://www.w3.org/2000/svg" xml:space="preserve" width="1.32037cm" height="0.39793cm" version="1.1" style="shape-rendering:geometricPrecision; text-rendering:geometricPrecision; image-rendering:optimizeQuality; fill-rule:evenodd; clip-rule:evenodd"
viewBox="0 0 0.792 0.239"
 xmlns:xlink="http://www.w3.org/1999/xlink"
 xmlns:xodm="http://www.corel.com/coreldraw/odm/2003">
 <defs>
  <style type="text/css">
   <![CDATA[
    .fil0 {fill:#9C6921;fill-rule:nonzero}
   ]]>
  </style>
 </defs>
 <g id="Слой_x0020_1">
  <metadata id="CorelCorpID_0Corel-Layer"/>
  <path class="fil0" d="M-0 0l0.104 0 0 0.015 -0.021 0c-0.005,0 -0.008,0.001 -0.01,0.004 -0.002,0.002 -0.003,0.006 -0.003,0.012l0 0.073 0.11 0 0 -0.073c0,-0.006 -0.001,-0.01 -0.003,-0.012 -0.002,-0.002 -0.006,-0.004 -0.011,-0.004l-0.003 0 -0.017 0 0 -0.015 0.104 0 0 0.015 -0.021 0c-0.005,0 -0.008,0.001 -0.01,0.004 -0.002,0.002 -0.003,0.006 -0.003,0.012l0 0.173c0,0.006 0.001,0.01 0.004,0.012 0.002,0.002 0.007,0.003 0.014,0.003l0.017 0 0 0.015 -0.104 0 0 -0.015 0.017 0c0.007,0 0.011,-0.001 0.014,-0.003 0.002,-0.002 0.004,-0.006 0.004,-0.012l0 -0.084 -0.11 0 0 0.084c0,0.006 0.001,0.01 0.003,0.012 0.002,0.002 0.007,0.003 0.013,0.003l0.017 0 0 0.015 -0.104 0 0 -0.015 0.017 0c0.007,0 0.011,-0.001 0.014,-0.003 0.002,-0.002 0.004,-0.006 0.004,-0.012l0 -0.173c0,-0.006 -0.001,-0.01 -0.003,-0.012 -0.002,-0.002 -0.006,-0.004 -0.011,-0.004l-0.003 0 -0.017 0 0 -0.015zm0.369 0.15l0 -0.039c0,-0.005 -0.001,-0.008 -0.003,-0.01 -0.002,-0.002 -0.005,-0.003 -0.009,-0.003l-0.012 0c-0.012,0 -0.021,0.002 -0.027,0.006 -0.005,0.004 -0.008,0.01 -0.008,0.019 0,0.01 0.003,0.017 0.01,0.021 0.006,0.004 0.018,0.006 0.034,0.006l0.015 0zm-0.026 0.085l0 -0.014 0.015 -0.001c0.004,-0 0.007,-0.001 0.009,-0.003 0.001,-0.001 0.002,-0.005 0.002,-0.009l0 -0.047 -0.014 0c-0.009,0 -0.016,0.002 -0.021,0.007 -0.005,0.004 -0.008,0.011 -0.009,0.02l-0.002 0.021c-0.001,0.011 -0.004,0.019 -0.008,0.023 -0.004,0.004 -0.011,0.006 -0.021,0.006 -0.009,0 -0.016,-0.003 -0.021,-0.008 -0.005,-0.005 -0.007,-0.014 -0.007,-0.024l0 -0.005 0.01 0c0,0.009 0.001,0.014 0.002,0.017 0.001,0.003 0.003,0.004 0.006,0.004 0.002,0 0.003,-0.001 0.005,-0.003 0.002,-0.002 0.003,-0.006 0.004,-0.01l0.006 -0.024c0.002,-0.009 0.006,-0.015 0.011,-0.019 0.005,-0.004 0.012,-0.007 0.022,-0.008 -0.017,-0.001 -0.029,-0.005 -0.038,-0.011 -0.009,-0.006 -0.013,-0.015 -0.013,-0.027 0,-0.012 0.005,-0.022 0.014,-0.028 0.009,-0.006 0.023,-0.009 0.041,-0.009l0.088 0 0 0.014 -0.015 0.001c-0.004,0 -0.007,0.001 -0.009,0.003 -0.001,0.001 -0.002,0.005 -0.002,0.01l0 0.098c0,0.005 0.001,0.008 0.002,0.009 0.001,0.002 0.004,0.002 0.009,0.003l0.015 0.001 0 0.014 -0.081 0zm0.224 -0.124c0,-0.005 -0.001,-0.008 -0.002,-0.009 -0.001,-0.002 -0.004,-0.002 -0.009,-0.003l-0.015 -0.001 0 -0.014 0.081 0 0 0.014 -0.015 0.001c-0.005,0 -0.008,0.001 -0.009,0.003 -0.001,0.002 -0.002,0.005 -0.002,0.009l0 0.098c0,0.005 0.001,0.008 0.002,0.009 0.001,0.002 0.004,0.002 0.009,0.003l0.015 0.001 0 0.014 -0.081 0 0 -0.014 0.015 -0.001c0.005,-0 0.008,-0.001 0.009,-0.003 0.001,-0.002 0.002,-0.005 0.002,-0.009l0 -0.045 -0.068 0 0 0.045c0,0.005 0.001,0.008 0.002,0.009 0.001,0.002 0.004,0.002 0.009,0.003l0.015 0.001 0 0.014 -0.081 0 0 -0.014 0.015 -0.001c0.004,-0 0.007,-0.001 0.009,-0.003 0.001,-0.001 0.002,-0.005 0.002,-0.009l0 -0.098c0,-0.005 -0.001,-0.008 -0.002,-0.01 -0.001,-0.002 -0.004,-0.002 -0.009,-0.003l-0.015 -0.001 0 -0.014 0.081 0 0 0.014 -0.015 0.001c-0.004,0 -0.007,0.001 -0.009,0.003 -0.001,0.001 -0.002,0.005 -0.002,0.01l0 0.038 0.068 0 0 -0.038zm0.13 0.035l0.032 0c0.02,0 0.036,0.004 0.047,0.011 0.011,0.007 0.016,0.018 0.016,0.032 0,0.015 -0.005,0.026 -0.015,0.034 -0.01,0.008 -0.024,0.012 -0.043,0.012l-0.092 0 0 -0.014 0.015 -0.001c0.005,-0 0.008,-0.001 0.009,-0.003 0.001,-0.002 0.002,-0.005 0.002,-0.009l0 -0.098c0,-0.005 -0.001,-0.008 -0.002,-0.009 -0.001,-0.002 -0.004,-0.002 -0.009,-0.003l-0.015 -0.001 0 -0.014 0.082 0 0 0.014 -0.015 0.001c-0.005,0 -0.008,0.001 -0.009,0.003 -0.001,0.002 -0.002,0.005 -0.002,0.009l0 0.035zm0 0.014l0 0.049c0,0.005 0.001,0.008 0.002,0.01 0.001,0.002 0.004,0.002 0.009,0.002l0.013 0c0.013,0 0.023,-0.002 0.029,-0.007 0.006,-0.005 0.009,-0.012 0.009,-0.022 0,-0.012 -0.003,-0.02 -0.01,-0.025 -0.007,-0.005 -0.018,-0.007 -0.035,-0.007l-0.016 0z"/>
 </g>
</svg>
