<?xml version="1.0" encoding="UTF-8"?>
<!DOCTYPE svg PUBLIC "-//W3C//DTD SVG 1.1//EN" "http://www.w3.org/Graphics/SVG/1.1/DTD/svg11.dtd">
<!-- Creator: CorelDRAW 2019 (64-Bit) -->
<svg xmlns="http://www.w3.org/2000/svg" xml:space="preserve" width="1.45683cm" height="0.508cm" version="1.1" style="shape-rendering:geometricPrecision; text-rendering:geometricPrecision; image-rendering:optimizeQuality; fill-rule:evenodd; clip-rule:evenodd"
viewBox="0 0 0.966 0.337"
 xmlns:xlink="http://www.w3.org/1999/xlink"
 xmlns:xodm="http://www.corel.com/coreldraw/odm/2003">
 <defs>
  <style type="text/css">
   <![CDATA[
    .fil0 {fill:#9C6921;fill-rule:nonzero}
   ]]>
  </style>
 </defs>
 <g id="Слой_x0020_1">
  <metadata id="CorelCorpID_0Corel-Layer"/>
  <path class="fil0" d="M0.046 0.135c0,0.04 0.006,0.07 0.019,0.089 0.012,0.019 0.032,0.029 0.057,0.029 0.025,0 0.044,-0.01 0.057,-0.029 0.013,-0.02 0.019,-0.049 0.019,-0.089 0,-0.04 -0.006,-0.07 -0.019,-0.089 -0.012,-0.019 -0.032,-0.029 -0.057,-0.029 -0.026,0 -0.045,0.01 -0.057,0.029 -0.013,0.019 -0.019,0.049 -0.019,0.089zm-0.046 0c0,-0.039 0.011,-0.072 0.034,-0.097 0.023,-0.025 0.052,-0.038 0.088,-0.038 0.036,0 0.065,0.013 0.087,0.038 0.023,0.025 0.034,0.058 0.034,0.097 0,0.04 -0.011,0.072 -0.034,0.097 -0.023,0.025 -0.052,0.037 -0.088,0.037 -0.036,0 -0.065,-0.013 -0.088,-0.038 -0.023,-0.025 -0.034,-0.057 -0.034,-0.097zm0.272 0.128l0 -0.015 0.016 -0.001c0.005,-0 0.008,-0.001 0.01,-0.003 0.002,-0.002 0.002,-0.005 0.002,-0.01l0 -0.107c0,-0.005 -0.001,-0.009 -0.002,-0.01 -0.002,-0.002 -0.005,-0.003 -0.01,-0.003l-0.016 -0.001 0 -0.015 0.136 0 0.003 0.058 -0.013 0c-0.003,-0.016 -0.008,-0.027 -0.015,-0.033 -0.007,-0.006 -0.018,-0.01 -0.032,-0.01 -0.008,0 -0.012,0.001 -0.015,0.002 -0.002,0.002 -0.003,0.005 -0.003,0.011l0 0.107c0,0.005 0.001,0.009 0.002,0.01 0.002,0.002 0.005,0.003 0.01,0.003l0.016 0.001 0 0.015 -0.089 0zm0.253 -0.013c0.015,0 0.025,-0.005 0.032,-0.016 0.007,-0.011 0.01,-0.028 0.01,-0.051 0,-0.024 -0.003,-0.041 -0.01,-0.052 -0.007,-0.011 -0.017,-0.016 -0.031,-0.016 -0.016,0 -0.027,0.005 -0.034,0.016 -0.007,0.011 -0.011,0.028 -0.011,0.052 0,0.024 0.003,0.041 0.01,0.052 0.007,0.011 0.018,0.016 0.033,0.016zm-0.102 0.072l0.015 -0.001c0.005,-0 0.008,-0.001 0.01,-0.003 0.001,-0.002 0.002,-0.005 0.002,-0.01l0 -0.18c0,-0.006 -0.001,-0.01 -0.003,-0.012 -0.002,-0.002 -0.007,-0.003 -0.015,-0.003l-0.004 0c0,0 -0,0 -0.001,0 -0.002,0 -0.003,0 -0.004,0l0 -0.015 0.058 -0.004 0 0.031c0.007,-0.011 0.014,-0.019 0.023,-0.024 0.009,-0.005 0.018,-0.008 0.029,-0.008 0.021,0 0.038,0.008 0.051,0.025 0.014,0.017 0.02,0.038 0.02,0.063 0,0.025 -0.007,0.046 -0.021,0.063 -0.014,0.017 -0.031,0.025 -0.052,0.025 -0.011,0 -0.02,-0.002 -0.028,-0.006 -0.008,-0.004 -0.015,-0.011 -0.022,-0.02l0 0.065c0,0.005 0.001,0.008 0.002,0.01 0.002,0.002 0.005,0.003 0.01,0.003l0.015 0.001 0 0.015 -0.087 0 0 -0.015zm0.307 -0.154c0.005,0 0.008,-0.001 0.01,-0.002 0.002,-0.002 0.003,-0.005 0.003,-0.009 0,-0.016 -0.003,-0.028 -0.01,-0.037 -0.006,-0.009 -0.016,-0.013 -0.028,-0.013 -0.014,0 -0.024,0.005 -0.03,0.015 -0.007,0.01 -0.01,0.025 -0.01,0.046l0.066 0zm0.037 0.043l0.012 0.007c-0.008,0.017 -0.018,0.029 -0.03,0.037 -0.013,0.008 -0.027,0.013 -0.045,0.013 -0.023,0 -0.041,-0.008 -0.056,-0.024 -0.014,-0.016 -0.021,-0.037 -0.021,-0.063 0,-0.026 0.007,-0.047 0.021,-0.064 0.014,-0.016 0.033,-0.024 0.056,-0.024 0.023,0 0.041,0.008 0.055,0.023 0.014,0.015 0.02,0.035 0.02,0.061 0,0.001 -0,0.002 -0,0.003 -0,0.002 -0,0.003 -0,0.004l-0.116 0c0,0.001 -0,0.002 -0,0.004 -0,0.001 -0,0.003 -0,0.003 0,0.018 0.004,0.033 0.013,0.044 0.009,0.011 0.02,0.016 0.034,0.016 0.012,0 0.023,-0.003 0.033,-0.01 0.009,-0.006 0.017,-0.016 0.024,-0.029zm0.2 0.037l0 0.015 -0.082 0 0 -0.015 0.013 -0.001c0.005,-0 0.008,-0.001 0.01,-0.003 0.001,-0.002 0.002,-0.005 0.002,-0.01l0 -0.044c-0.009,0.003 -0.018,0.005 -0.027,0.006 -0.009,0.001 -0.017,0.002 -0.025,0.002 -0.016,0 -0.028,-0.003 -0.036,-0.009 -0.008,-0.006 -0.012,-0.015 -0.012,-0.027l0 -0.034c0,-0.005 -0.001,-0.009 -0.002,-0.01 -0.002,-0.002 -0.005,-0.003 -0.01,-0.003l-0.013 -0.001 0 -0.015 0.083 0 0 0.015 -0.014 0.001c-0.005,0 -0.008,0.001 -0.01,0.003 -0.002,0.002 -0.002,0.005 -0.002,0.01l0 0.029c0,0.009 0.002,0.016 0.006,0.019 0.004,0.004 0.011,0.006 0.022,0.006 0.006,0 0.012,-0.001 0.019,-0.002 0.007,-0.001 0.014,-0.003 0.021,-0.005l0 -0.047c0,-0.005 -0.001,-0.009 -0.002,-0.01 -0.001,-0.002 -0.005,-0.003 -0.009,-0.003l-0.013 -0.001 0 -0.015 0.082 0 0 0.015 -0.013 0.001c-0.005,0 -0.008,0.001 -0.01,0.003 -0.001,0.002 -0.002,0.005 -0.002,0.01l0 0.107c0,0.005 0.001,0.009 0.002,0.01 0.001,0.002 0.005,0.002 0.01,0.003l0.013 0.001z"/>
 </g>
</svg>
