<?xml version="1.0" encoding="UTF-8"?>
<!DOCTYPE svg PUBLIC "-//W3C//DTD SVG 1.1//EN" "http://www.w3.org/Graphics/SVG/1.1/DTD/svg11.dtd">
<!-- Creator: CorelDRAW 2019 (64-Bit) -->
<svg xmlns="http://www.w3.org/2000/svg" xml:space="preserve" width="1.66878cm" height="1.46449cm" version="1.1" style="shape-rendering:geometricPrecision; text-rendering:geometricPrecision; image-rendering:optimizeQuality; fill-rule:evenodd; clip-rule:evenodd"
viewBox="0 0 2.693 2.363"
 xmlns:xlink="http://www.w3.org/1999/xlink"
 xmlns:xodm="http://www.corel.com/coreldraw/odm/2003">
 <defs>
  <style type="text/css">
   <![CDATA[
    .fil4 {fill:red;fill-rule:nonzero}
    .fil5 {fill:url(#id16)}
    .fil8 {fill:url(#id17)}
    .fil12 {fill:url(#id18)}
    .fil3 {fill:url(#id19)}
    .fil6 {fill:url(#id20)}
    .fil11 {fill:url(#id21)}
    .fil2 {fill:url(#id22)}
    .fil7 {fill:url(#id23)}
    .fil0 {fill:url(#id24)}
    .fil9 {fill:url(#id25)}
    .fil1 {fill:url(#id26)}
    .fil10 {fill:url(#id27)}
   ]]>
  </style>
    <mask id="id0">
  <linearGradient id="id1" gradientUnits="userSpaceOnUse" x1="1.384" y1="-0.072" x2="2.173" y2="4.674">
   <stop offset="0" style="stop-opacity:1; stop-color:white"/>
   <stop offset="0.419608" style="stop-opacity:-115.957; stop-color:white"/>
   <stop offset="1" style="stop-opacity:0; stop-color:white"/>
  </linearGradient>
     <rect style="fill:url(#id1)" x="0.012" y="-0.003" width="1.25" height="1.184"/>
    </mask>
    <mask id="id2">
  <linearGradient id="id3" gradientUnits="userSpaceOnUse" x1="1.384" y1="-0.072" x2="2.173" y2="4.674">
   <stop offset="0" style="stop-opacity:1; stop-color:white"/>
   <stop offset="0.419608" style="stop-opacity:-115.957; stop-color:white"/>
   <stop offset="1" style="stop-opacity:0; stop-color:white"/>
  </linearGradient>
     <rect style="fill:url(#id3)" x="0.026" y="1.172" width="1.25" height="1.184"/>
    </mask>
    <mask id="id4">
  <linearGradient id="id5" gradientUnits="userSpaceOnUse" x1="1.384" y1="-0.072" x2="2.173" y2="4.674">
   <stop offset="0" style="stop-opacity:1; stop-color:white"/>
   <stop offset="0.419608" style="stop-opacity:-115.957; stop-color:white"/>
   <stop offset="1" style="stop-opacity:0; stop-color:white"/>
  </linearGradient>
     <rect style="fill:url(#id5)" x="1.45" y="1.181" width="1.25" height="1.184"/>
    </mask>
    <mask id="id6">
  <linearGradient id="id7" gradientUnits="userSpaceOnUse" x1="1.384" y1="-0.072" x2="2.173" y2="4.674">
   <stop offset="0" style="stop-opacity:1; stop-color:white"/>
   <stop offset="0.419608" style="stop-opacity:-115.957; stop-color:white"/>
   <stop offset="1" style="stop-opacity:0; stop-color:white"/>
  </linearGradient>
     <rect style="fill:url(#id7)" x="1.459" y="-0.016" width="1.25" height="1.184"/>
    </mask>
    <mask id="id8">
  <linearGradient id="id9" gradientUnits="userSpaceOnUse" x1="1.672" y1="2.873" x2="-0.034" y2="-2.886">
   <stop offset="0" style="stop-opacity:1; stop-color:white"/>
   <stop offset="0.419608" style="stop-opacity:-115.957; stop-color:white"/>
   <stop offset="1" style="stop-opacity:0; stop-color:white"/>
  </linearGradient>
     <rect style="fill:url(#id9)" x="-0.016" y="0.011" width="1.25" height="1.184"/>
    </mask>
    <mask id="id10">
  <linearGradient id="id11" gradientUnits="userSpaceOnUse" x1="1.672" y1="2.873" x2="-0.034" y2="-2.886">
   <stop offset="0" style="stop-opacity:1; stop-color:white"/>
   <stop offset="0.419608" style="stop-opacity:-115.957; stop-color:white"/>
   <stop offset="1" style="stop-opacity:0; stop-color:white"/>
  </linearGradient>
     <rect style="fill:url(#id11)" x="-0.003" y="1.186" width="1.25" height="1.184"/>
    </mask>
    <mask id="id12">
  <linearGradient id="id13" gradientUnits="userSpaceOnUse" x1="1.672" y1="2.873" x2="-0.034" y2="-2.886">
   <stop offset="0" style="stop-opacity:1; stop-color:white"/>
   <stop offset="0.419608" style="stop-opacity:-115.957; stop-color:white"/>
   <stop offset="1" style="stop-opacity:0; stop-color:white"/>
  </linearGradient>
     <rect style="fill:url(#id13)" x="1.422" y="1.195" width="1.25" height="1.184"/>
    </mask>
    <mask id="id14">
  <linearGradient id="id15" gradientUnits="userSpaceOnUse" x1="1.672" y1="2.873" x2="-0.034" y2="-2.886">
   <stop offset="0" style="stop-opacity:1; stop-color:white"/>
   <stop offset="0.419608" style="stop-opacity:-115.957; stop-color:white"/>
   <stop offset="1" style="stop-opacity:0; stop-color:white"/>
  </linearGradient>
     <rect style="fill:url(#id15)" x="1.431" y="-0.003" width="1.25" height="1.184"/>
    </mask>
  <linearGradient id="id16" gradientUnits="userSpaceOnUse" x1="0.028" y1="0.59" x2="1.246" y2="0.59">
   <stop offset="0" style="stop-opacity:1; stop-color:aqua"/>
   <stop offset="1" style="stop-opacity:1; stop-color:#FEFEFE"/>
  </linearGradient>
  <linearGradient id="id17" gradientUnits="userSpaceOnUse" xlink:href="#id16" x1="2.693" y1="0.576" x2="1.475" y2="0.576">
  </linearGradient>
  <linearGradient id="id18" gradientUnits="userSpaceOnUse" xlink:href="#id16" x1="2.665" y1="0.59" x2="1.447" y2="0.59">
  </linearGradient>
  <linearGradient id="id19" gradientUnits="userSpaceOnUse" xlink:href="#id16" x1="2.665" y1="0.576" x2="1.447" y2="0.576">
  </linearGradient>
  <linearGradient id="id20" gradientUnits="userSpaceOnUse" xlink:href="#id16" x1="0.042" y1="1.764" x2="1.26" y2="1.764">
  </linearGradient>
  <linearGradient id="id21" gradientUnits="userSpaceOnUse" xlink:href="#id16" x1="2.656" y1="1.787" x2="1.438" y2="1.787">
  </linearGradient>
  <linearGradient id="id22" gradientUnits="userSpaceOnUse" xlink:href="#id16" x1="2.656" y1="1.773" x2="1.438" y2="1.773">
  </linearGradient>
  <linearGradient id="id23" gradientUnits="userSpaceOnUse" xlink:href="#id16" x1="2.684" y1="1.773" x2="1.466" y2="1.773">
  </linearGradient>
  <linearGradient id="id24" gradientUnits="userSpaceOnUse" xlink:href="#id16" x1="0" y1="0.59" x2="1.218" y2="0.59">
  </linearGradient>
  <linearGradient id="id25" gradientUnits="userSpaceOnUse" xlink:href="#id16" x1="0" y1="0.603" x2="1.218" y2="0.603">
  </linearGradient>
  <linearGradient id="id26" gradientUnits="userSpaceOnUse" xlink:href="#id16" x1="0.014" y1="1.764" x2="1.231" y2="1.764">
  </linearGradient>
  <linearGradient id="id27" gradientUnits="userSpaceOnUse" xlink:href="#id16" x1="0.014" y1="1.778" x2="1.231" y2="1.778">
  </linearGradient>
 </defs>
 <g id="Слой_x0020_1">
  <metadata id="CorelCorpID_0Corel-Layer"/>
  <polygon class="fil0" points="-0,0.014 1.218,0.014 1.218,1.166 -0,1.166 "/>
  <polygon class="fil1" points="0.014,1.188 1.231,1.188 1.231,2.34 0.014,2.34 "/>
  <polygon class="fil2" points="2.656,1.197 1.438,1.197 1.438,2.35 2.656,2.35 "/>
  <polygon class="fil3" points="2.665,0 1.447,0 1.447,1.152 2.665,1.152 "/>
  <path class="fil4" d="M0.703 1.222c-0.005,0.001 -0.011,0.004 -0.019,0.007l-0.01 0.004 -0.01 0.004c0.009,-0.012 0.02,-0.02 0.036,-0.025 0.008,-0.002 0.015,-0.003 0.022,-0.003 0.008,0.001 0.015,0.003 0.02,0.008 -0.014,0 -0.028,0.002 -0.039,0.006zm-0.379 -0.088c-0.006,0.011 -0.012,0.022 -0.017,0.032 -0.012,0.025 -0.02,0.047 -0.025,0.067 -0.007,0.024 -0.01,0.047 -0.01,0.07 0.001,0.023 0.005,0.047 0.012,0.071l-0.008 -0.017 -0.003 -0.008 -0.003 -0.009 -0.003 -0.009 -0.002 -0.009 -0.001 -0.009 -0.001 -0.01c-0.002,-0.023 -0,-0.048 0.007,-0.074 0.006,-0.024 0.016,-0.046 0.028,-0.068 0.006,-0.011 0.013,-0.021 0.02,-0.032l0.011 -0.014c0.004,-0.006 0.008,-0.01 0.012,-0.014l-0.01 0.016 -0.009 0.016zm-0.051 -0.381c-0.009,0.008 -0.018,0.016 -0.027,0.025 -0.018,0.017 -0.034,0.036 -0.047,0.055 -0.014,0.019 -0.026,0.04 -0.036,0.063 -0.005,0.012 -0.008,0.023 -0.01,0.034 -0.003,0.013 -0.004,0.025 -0.002,0.036 -0.007,-0.02 -0.005,-0.044 0.004,-0.073 0.007,-0.022 0.019,-0.045 0.034,-0.067 0.016,-0.022 0.032,-0.04 0.05,-0.054 0.01,-0.008 0.02,-0.016 0.03,-0.022 0.011,-0.007 0.022,-0.013 0.033,-0.018l-0.015 0.011c-0.006,0.004 -0.011,0.008 -0.015,0.011zm0.363 0.447c-0.028,0.022 -0.056,0.036 -0.084,0.041 -0.023,0.005 -0.038,0.004 -0.046,-0.003 -0.003,-0.004 -0.005,-0.008 -0.007,-0.012 -0.002,-0.007 -0.003,-0.014 -0.001,-0.022 0.004,-0.021 0.02,-0.048 0.048,-0.079 0.037,-0.041 0.065,-0.087 0.083,-0.138 0.017,-0.05 0.024,-0.098 0.019,-0.145 -0.004,-0.049 -0.02,-0.089 -0.048,-0.122 -0.029,-0.035 -0.069,-0.057 -0.119,-0.066 -0.06,-0.01 -0.118,-0.003 -0.175,0.022 -0.05,0.022 -0.093,0.055 -0.131,0.099 -0.035,0.042 -0.057,0.084 -0.068,0.128 -0.01,0.044 -0.005,0.079 0.015,0.105 0.02,0.025 0.047,0.035 0.081,0.03 0.035,-0.005 0.073,-0.025 0.114,-0.061 0.023,-0.02 0.039,-0.033 0.049,-0.038 0.01,-0.005 0.019,-0.006 0.025,-0.002 0.015,0.008 0.006,0.03 -0.027,0.065 -0.062,0.065 -0.104,0.129 -0.126,0.192 -0.028,0.08 -0.022,0.154 0.018,0.223 0.028,0.048 0.076,0.076 0.145,0.083 0.055,0.005 0.121,-0.003 0.198,-0.026 0.076,-0.022 0.136,-0.051 0.179,-0.086 0.044,-0.036 0.064,-0.074 0.06,-0.115 -0.001,-0.02 -0.008,-0.039 -0.02,-0.056 -0.012,-0.018 -0.027,-0.031 -0.046,-0.04 -0.02,-0.01 -0.041,-0.013 -0.063,-0.011 -0.025,0.003 -0.049,0.014 -0.073,0.033zm0.583 -0.204c-0.003,0.015 -0.008,0.027 -0.015,0.038 -0.009,0.012 -0.019,0.021 -0.031,0.026 0.019,-0.018 0.03,-0.04 0.034,-0.066 0.004,-0.02 0.003,-0.045 -0.002,-0.076 0.014,0.024 0.018,0.05 0.014,0.078zm-0.071 0.025c-0.013,0.008 -0.028,0.008 -0.045,-0 -0.017,-0.009 -0.031,-0.023 -0.042,-0.043 -0.011,-0.021 -0.016,-0.041 -0.015,-0.061 0.001,-0.021 0.008,-0.035 0.021,-0.043 0.013,-0.008 0.028,-0.008 0.044,0.001 0.017,0.008 0.031,0.023 0.042,0.043 0.011,0.021 0.016,0.041 0.015,0.061 -0.001,0.021 -0.008,0.035 -0.021,0.043zm-0.298 -0.359c-0.01,0.028 -0.016,0.061 -0.018,0.1 -0.002,0.031 -0,0.066 0.004,0.103 -0.003,-0.013 -0.007,-0.03 -0.01,-0.051 -0.002,-0.017 -0.003,-0.035 -0.003,-0.052 -0,-0.037 0.005,-0.072 0.016,-0.104 0.012,-0.036 0.031,-0.066 0.056,-0.088 0.013,-0.012 0.027,-0.022 0.043,-0.03 0.017,-0.008 0.033,-0.014 0.049,-0.017 -0.036,0.014 -0.065,0.031 -0.086,0.053 -0.023,0.024 -0.04,0.052 -0.051,0.086zm0.189 -0.197c-0.111,0.011 -0.187,0.062 -0.228,0.154 -0.036,0.081 -0.041,0.178 -0.013,0.291 0.027,0.109 0.075,0.202 0.145,0.276 0.076,0.081 0.158,0.118 0.246,0.112 0.082,-0.006 0.143,-0.055 0.182,-0.147 0.036,-0.084 0.047,-0.182 0.032,-0.295 -0.015,-0.115 -0.053,-0.209 -0.113,-0.282 -0.068,-0.082 -0.151,-0.118 -0.25,-0.108zm0.954 0.376c-0.005,0.001 -0.011,0.004 -0.019,0.007l-0.01 0.004 -0.01 0.004c0.009,-0.012 0.02,-0.02 0.035,-0.025 0.008,-0.002 0.015,-0.003 0.022,-0.003 0.008,0.001 0.015,0.003 0.02,0.008 -0.014,0 -0.028,0.002 -0.039,0.006zm-0.379 -0.088c-0.006,0.011 -0.012,0.022 -0.017,0.032 -0.012,0.025 -0.02,0.047 -0.025,0.067 -0.007,0.024 -0.01,0.047 -0.01,0.07 0.001,0.023 0.005,0.047 0.012,0.071l-0.008 -0.017 -0.003 -0.008 -0.003 -0.009 -0.003 -0.009 -0.002 -0.009 -0.001 -0.009 -0.001 -0.01c-0.002,-0.023 -0,-0.048 0.007,-0.074 0.006,-0.024 0.016,-0.046 0.028,-0.068 0.006,-0.011 0.013,-0.021 0.02,-0.031l0.011 -0.014c0.004,-0.006 0.008,-0.01 0.012,-0.014l-0.01 0.016 -0.009 0.016zm-0.051 -0.381c-0.009,0.008 -0.018,0.016 -0.027,0.025 -0.018,0.017 -0.034,0.036 -0.047,0.055 -0.014,0.019 -0.026,0.04 -0.035,0.063 -0.005,0.012 -0.008,0.023 -0.01,0.034 -0.003,0.013 -0.004,0.025 -0.002,0.036 -0.007,-0.02 -0.005,-0.044 0.004,-0.073 0.007,-0.022 0.019,-0.045 0.034,-0.067 0.016,-0.022 0.032,-0.04 0.05,-0.054 0.01,-0.008 0.02,-0.016 0.03,-0.022 0.011,-0.007 0.022,-0.013 0.033,-0.018l-0.015 0.011c-0.006,0.004 -0.011,0.008 -0.015,0.011zm0.363 0.447c-0.028,0.022 -0.056,0.036 -0.084,0.042 -0.023,0.005 -0.038,0.004 -0.046,-0.003 -0.003,-0.004 -0.005,-0.008 -0.007,-0.012 -0.002,-0.007 -0.003,-0.014 -0.001,-0.022 0.004,-0.021 0.02,-0.048 0.048,-0.079 0.037,-0.041 0.065,-0.087 0.083,-0.138 0.017,-0.05 0.024,-0.098 0.019,-0.145 -0.004,-0.049 -0.02,-0.089 -0.048,-0.122 -0.029,-0.035 -0.069,-0.057 -0.119,-0.066 -0.06,-0.01 -0.118,-0.003 -0.175,0.022 -0.05,0.022 -0.093,0.055 -0.131,0.099 -0.035,0.042 -0.057,0.084 -0.068,0.128 -0.01,0.044 -0.005,0.079 0.015,0.105 0.02,0.025 0.047,0.035 0.081,0.03 0.035,-0.005 0.073,-0.025 0.114,-0.061 0.023,-0.02 0.039,-0.033 0.049,-0.038 0.01,-0.005 0.019,-0.006 0.025,-0.002 0.015,0.008 0.006,0.03 -0.027,0.065 -0.062,0.065 -0.104,0.129 -0.126,0.192 -0.028,0.08 -0.022,0.154 0.018,0.223 0.028,0.048 0.076,0.076 0.145,0.083 0.055,0.005 0.121,-0.003 0.198,-0.026 0.076,-0.022 0.136,-0.051 0.179,-0.086 0.044,-0.036 0.064,-0.074 0.06,-0.115 -0.001,-0.02 -0.008,-0.039 -0.02,-0.056 -0.012,-0.018 -0.027,-0.031 -0.046,-0.04 -0.02,-0.01 -0.041,-0.013 -0.063,-0.011 -0.025,0.003 -0.049,0.014 -0.073,0.033zm0.227 -0.627c-0.009,0.007 -0.017,0.014 -0.023,0.021 -0.007,0.007 -0.014,0.015 -0.02,0.024 -0.013,0.017 -0.022,0.035 -0.026,0.055 -0.005,0.022 -0.005,0.043 -0.001,0.062 -0.009,-0.019 -0.012,-0.04 -0.009,-0.064 0.003,-0.021 0.012,-0.041 0.026,-0.06 0.014,-0.018 0.029,-0.033 0.047,-0.045 0.019,-0.013 0.039,-0.02 0.06,-0.023 -0.02,0.007 -0.038,0.017 -0.055,0.03zm0.232 0.004c-0.031,-0.04 -0.066,-0.066 -0.104,-0.077 -0.034,-0.01 -0.068,-0.009 -0.104,0.004 -0.032,0.011 -0.061,0.03 -0.086,0.056 -0.025,0.025 -0.041,0.052 -0.05,0.079 -0.008,0.023 -0.011,0.047 -0.009,0.07 0.002,0.022 0.007,0.042 0.017,0.058 0.01,0.017 0.022,0.028 0.037,0.034 0.016,0.006 0.034,0.005 0.052,-0.004 0.023,-0.01 0.044,0.002 0.064,0.035 0.007,0.012 0.015,0.028 0.022,0.047 0.003,0.007 0.006,0.015 0.009,0.023l0.004 0.011 0.004 0.01c0.02,0.055 0.036,0.112 0.048,0.172 0.004,0.019 0.008,0.042 0.013,0.069l0.003 0.015 0.002 0.015c0.002,0.011 0.004,0.02 0.005,0.027 0.007,0.037 0.015,0.063 0.024,0.076 0.012,0.018 0.029,0.026 0.052,0.026 0.045,0 0.078,-0.031 0.098,-0.093 0.019,-0.055 0.026,-0.127 0.021,-0.216 -0.004,-0.085 -0.018,-0.168 -0.04,-0.249 -0.023,-0.084 -0.051,-0.147 -0.084,-0.19z"/>
  <path class="fil4" d="M0.717 1.57c-0.012,0.008 -0.023,0.016 -0.033,0.025 -0.022,0.02 -0.039,0.042 -0.05,0.065 -0.005,0.01 -0.008,0.023 -0.01,0.039 -0.001,0.011 -0.001,0.025 -0.001,0.041 0,0.013 0.002,0.027 0.004,0.041 0.001,0.006 0.002,0.013 0.003,0.021l0.004 0.02c-0.01,-0.028 -0.016,-0.056 -0.018,-0.082 -0.003,-0.035 -0,-0.063 0.01,-0.084 0.012,-0.025 0.03,-0.047 0.054,-0.066 0.011,-0.009 0.023,-0.016 0.035,-0.024 0.014,-0.007 0.027,-0.013 0.039,-0.017 -0.015,0.007 -0.027,0.014 -0.036,0.021zm0.284 -0.019c-0.01,-0.026 -0.033,-0.044 -0.069,-0.054 -0.034,-0.01 -0.073,-0.011 -0.117,-0.004 -0.046,0.008 -0.087,0.024 -0.125,0.048 -0.042,0.026 -0.073,0.059 -0.092,0.098 -0.018,0.036 -0.021,0.086 -0.009,0.149 0.011,0.058 0.032,0.119 0.063,0.181 0.031,0.063 0.067,0.114 0.105,0.153 0.042,0.043 0.08,0.064 0.115,0.064 0.05,-0 0.08,-0.021 0.088,-0.064 0.007,-0.038 -0.002,-0.082 -0.029,-0.133 -0.004,-0.007 -0.009,-0.016 -0.016,-0.029 -0.002,-0.003 -0.005,-0.009 -0.009,-0.016l-0.005 -0.009 -0.005 -0.009c-0.017,-0.031 -0.031,-0.056 -0.04,-0.076 -0.031,-0.063 -0.04,-0.106 -0.029,-0.128 0.005,-0.01 0.02,-0.021 0.044,-0.031 0.004,-0.002 0.01,-0.004 0.016,-0.007l0.018 -0.007c0.015,-0.006 0.027,-0.011 0.036,-0.015 0.027,-0.013 0.046,-0.027 0.056,-0.042 0.014,-0.02 0.015,-0.043 0.004,-0.07zm0.464 0.242c-0.004,0.01 -0.009,0.018 -0.016,0.025 -0.007,0.007 -0.015,0.012 -0.025,0.014 0.015,-0.012 0.026,-0.026 0.032,-0.042 0.006,-0.015 0.007,-0.033 0.005,-0.053 0.01,0.018 0.011,0.037 0.004,0.056zm-0.11 -0.019c-0.005,-0.011 -0.007,-0.022 -0.004,-0.033 0.003,-0.011 0.009,-0.019 0.018,-0.023 0.009,-0.004 0.019,-0.004 0.03,0.001 0.01,0.005 0.018,0.012 0.024,0.023 0.006,0.011 0.007,0.022 0.004,0.033 -0.003,0.011 -0.009,0.019 -0.018,0.023 -0.009,0.004 -0.019,0.004 -0.03,-0 -0.01,-0.005 -0.018,-0.012 -0.023,-0.024zm-0.128 -0.346c-0.021,0.016 -0.038,0.036 -0.051,0.059 -0.012,0.021 -0.022,0.045 -0.03,0.073l-0.002 0.01 -0.002 0.01 -0.003 0.019 -0.002 0.02 -0.002 0.02c-0.002,-0.027 -0.001,-0.054 0.004,-0.08 0.005,-0.028 0.015,-0.053 0.029,-0.076 0.015,-0.025 0.033,-0.045 0.055,-0.06 0.01,-0.008 0.022,-0.014 0.035,-0.02l0.009 -0.004 0.009 -0.003 0.019 -0.005c-0.027,0.01 -0.05,0.023 -0.069,0.039zm0.142 -0.088c-0.102,0.005 -0.176,0.044 -0.224,0.117 -0.042,0.064 -0.056,0.143 -0.044,0.236 0.012,0.09 0.046,0.168 0.101,0.231 0.059,0.069 0.13,0.103 0.21,0.101 0.076,-0.002 0.136,-0.039 0.182,-0.113 0.042,-0.067 0.062,-0.147 0.061,-0.239 -0.001,-0.095 -0.025,-0.173 -0.071,-0.235 -0.052,-0.07 -0.124,-0.102 -0.215,-0.098zm0.807 0.219c0,0.012 -0.003,0.022 -0.009,0.031 -0.006,0.008 -0.014,0.015 -0.025,0.021 -0.01,0.005 -0.02,0.008 -0.03,0.009 0.011,-0.006 0.02,-0.011 0.026,-0.015 0.009,-0.006 0.016,-0.013 0.021,-0.02 0.005,-0.008 0.008,-0.016 0.009,-0.026 0.001,-0.008 0,-0.018 -0.001,-0.03 0.005,0.01 0.008,0.02 0.009,0.03zm-0.121 0.023c-0.009,-0.009 -0.012,-0.027 -0.009,-0.054 0.003,-0.027 0.01,-0.043 0.023,-0.046 0.015,-0.004 0.031,0.006 0.047,0.029 0.007,0.009 0.012,0.019 0.015,0.029 0.004,0.01 0.005,0.018 0.003,0.024 -0.003,0.009 -0.014,0.016 -0.035,0.022 -0.021,0.006 -0.036,0.005 -0.044,-0.003zm-0.15 -0.279c-0.007,0.023 -0.013,0.047 -0.018,0.073 -0.003,0.02 -0.006,0.045 -0.009,0.075 -0.002,-0.024 -0.001,-0.049 0.002,-0.076 0.002,-0.024 0.008,-0.049 0.016,-0.075 0.009,-0.027 0.02,-0.05 0.033,-0.069 0.008,-0.01 0.016,-0.02 0.026,-0.028 0.011,-0.009 0.022,-0.014 0.033,-0.017 -0.02,0.009 -0.038,0.025 -0.053,0.05 -0.012,0.02 -0.022,0.042 -0.03,0.068zm-0.097 0.421c-0.006,0.006 -0.011,0.011 -0.015,0.017 -0.004,0.006 -0.006,0.013 -0.006,0.021 -0.004,-0.008 -0.004,-0.016 0,-0.025 0.003,-0.006 0.007,-0.013 0.014,-0.02 0.012,-0.011 0.026,-0.019 0.041,-0.024l-0.009 0.008 -0.009 0.008c-0.007,0.006 -0.013,0.011 -0.017,0.015zm0.544 -0.22c-0.013,0 -0.024,-0.002 -0.031,-0.007 -0.007,-0.004 -0.013,-0.012 -0.018,-0.023 -0.003,-0.006 -0.009,-0.02 -0.016,-0.041 -0.004,-0.01 -0.007,-0.02 -0.011,-0.027 -0.004,-0.011 -0.009,-0.022 -0.014,-0.032 -0.04,-0.087 -0.086,-0.15 -0.137,-0.189 -0.048,-0.036 -0.096,-0.047 -0.144,-0.035 -0.041,0.011 -0.074,0.044 -0.1,0.101 -0.026,0.056 -0.039,0.123 -0.039,0.2 0,0.031 0.002,0.061 0.006,0.092 0.001,0.005 0.001,0.011 0.002,0.017l0.001 0.008 0.001 0.007c0.002,0.012 0.003,0.02 0.003,0.026 0.001,0.016 0,0.028 -0.003,0.036 -0.004,0.009 -0.012,0.017 -0.026,0.025 -0.037,0.02 -0.061,0.043 -0.071,0.068 -0.009,0.023 -0.006,0.046 0.009,0.07 0.021,0.034 0.071,0.051 0.15,0.051 0.071,-0 0.155,-0.013 0.253,-0.039 0.089,-0.024 0.157,-0.047 0.202,-0.069 0.067,-0.032 0.106,-0.069 0.116,-0.111 0.009,-0.039 0.001,-0.07 -0.024,-0.094 -0.025,-0.023 -0.061,-0.034 -0.108,-0.034z"/>
  <g id="_2234722856208">
   <polygon class="fil5" style="mask:url(#id0)" points="0.028,0.014 1.246,0.014 1.246,1.166 0.028,1.166 "/>
   <polygon class="fil6" style="mask:url(#id2)" points="0.042,1.188 1.26,1.188 1.26,2.34 0.042,2.34 "/>
   <polygon class="fil7" style="mask:url(#id4)" points="2.684,1.197 1.466,1.197 1.466,2.35 2.684,2.35 "/>
   <polygon class="fil8" style="mask:url(#id6)" points="2.693,0 1.475,0 1.475,1.152 2.693,1.152 "/>
  </g>
  <g id="_2234722858128">
   <polygon class="fil9" style="mask:url(#id8)" points="-0,0.027 1.218,0.027 1.218,1.179 -0,1.179 "/>
   <polygon class="fil10" style="mask:url(#id10)" points="0.014,1.202 1.231,1.202 1.231,2.354 0.014,2.354 "/>
   <polygon class="fil11" style="mask:url(#id12)" points="2.656,1.211 1.438,1.211 1.438,2.363 2.656,2.363 "/>
   <polygon class="fil12" style="mask:url(#id14)" points="2.665,0.014 1.447,0.014 1.447,1.166 2.665,1.166 "/>
  </g>
 </g>
</svg>
