<?xml version="1.0" encoding="UTF-8"?>
<!DOCTYPE svg PUBLIC "-//W3C//DTD SVG 1.1//EN" "http://www.w3.org/Graphics/SVG/1.1/DTD/svg11.dtd">
<!-- Creator: CorelDRAW 2019 (64-Bit) -->
<svg xmlns="http://www.w3.org/2000/svg" xml:space="preserve" width="1.66878cm" height="1.46449cm" version="1.1" style="shape-rendering:geometricPrecision; text-rendering:geometricPrecision; image-rendering:optimizeQuality; fill-rule:evenodd; clip-rule:evenodd"
viewBox="0 0 2.931 2.573"
 xmlns:xlink="http://www.w3.org/1999/xlink"
 xmlns:xodm="http://www.corel.com/coreldraw/odm/2003">
 <defs>
  <style type="text/css">
   <![CDATA[
    .fil4 {fill:red;fill-rule:nonzero}
    .fil11 {fill:url(#id16)}
    .fil2 {fill:url(#id17)}
    .fil8 {fill:url(#id18)}
    .fil7 {fill:url(#id19)}
    .fil1 {fill:url(#id20)}
    .fil10 {fill:url(#id21)}
    .fil3 {fill:url(#id22)}
    .fil12 {fill:url(#id23)}
    .fil5 {fill:url(#id24)}
    .fil6 {fill:url(#id25)}
    .fil9 {fill:url(#id26)}
    .fil0 {fill:url(#id27)}
   ]]>
  </style>
    <mask id="id0">
  <linearGradient id="id1" gradientUnits="userSpaceOnUse" x1="1.507" y1="-0.078" x2="2.365" y2="5.088">
   <stop offset="0" style="stop-opacity:1; stop-color:white"/>
   <stop offset="0.419608" style="stop-opacity:-115.957; stop-color:white"/>
   <stop offset="1" style="stop-opacity:0; stop-color:white"/>
  </linearGradient>
     <rect style="fill:url(#id1)" x="0.013" y="-0.003" width="1.361" height="1.289"/>
    </mask>
    <mask id="id2">
  <linearGradient id="id3" gradientUnits="userSpaceOnUse" x1="1.507" y1="-0.078" x2="2.365" y2="5.088">
   <stop offset="0" style="stop-opacity:1; stop-color:white"/>
   <stop offset="0.419608" style="stop-opacity:-115.957; stop-color:white"/>
   <stop offset="1" style="stop-opacity:0; stop-color:white"/>
  </linearGradient>
     <rect style="fill:url(#id3)" x="0.028" y="1.276" width="1.361" height="1.289"/>
    </mask>
    <mask id="id4">
  <linearGradient id="id5" gradientUnits="userSpaceOnUse" x1="1.507" y1="-0.078" x2="2.365" y2="5.088">
   <stop offset="0" style="stop-opacity:1; stop-color:white"/>
   <stop offset="0.419608" style="stop-opacity:-115.957; stop-color:white"/>
   <stop offset="1" style="stop-opacity:0; stop-color:white"/>
  </linearGradient>
     <rect style="fill:url(#id5)" x="1.578" y="1.286" width="1.361" height="1.289"/>
    </mask>
    <mask id="id6">
  <linearGradient id="id7" gradientUnits="userSpaceOnUse" x1="1.507" y1="-0.078" x2="2.365" y2="5.088">
   <stop offset="0" style="stop-opacity:1; stop-color:white"/>
   <stop offset="0.419608" style="stop-opacity:-115.957; stop-color:white"/>
   <stop offset="1" style="stop-opacity:0; stop-color:white"/>
  </linearGradient>
     <rect style="fill:url(#id7)" x="1.588" y="-0.018" width="1.361" height="1.289"/>
    </mask>
    <mask id="id8">
  <linearGradient id="id9" gradientUnits="userSpaceOnUse" x1="1.82" y1="3.127" x2="-0.037" y2="-3.141">
   <stop offset="0" style="stop-opacity:1; stop-color:white"/>
   <stop offset="0.419608" style="stop-opacity:-115.957; stop-color:white"/>
   <stop offset="1" style="stop-opacity:0; stop-color:white"/>
  </linearGradient>
     <rect style="fill:url(#id9)" x="-0.018" y="0.012" width="1.361" height="1.289"/>
    </mask>
    <mask id="id10">
  <linearGradient id="id11" gradientUnits="userSpaceOnUse" x1="1.82" y1="3.127" x2="-0.037" y2="-3.141">
   <stop offset="0" style="stop-opacity:1; stop-color:white"/>
   <stop offset="0.419608" style="stop-opacity:-115.957; stop-color:white"/>
   <stop offset="1" style="stop-opacity:0; stop-color:white"/>
  </linearGradient>
     <rect style="fill:url(#id11)" x="-0.003" y="1.291" width="1.361" height="1.289"/>
    </mask>
    <mask id="id12">
  <linearGradient id="id13" gradientUnits="userSpaceOnUse" x1="1.82" y1="3.127" x2="-0.037" y2="-3.141">
   <stop offset="0" style="stop-opacity:1; stop-color:white"/>
   <stop offset="0.419608" style="stop-opacity:-115.957; stop-color:white"/>
   <stop offset="1" style="stop-opacity:0; stop-color:white"/>
  </linearGradient>
     <rect style="fill:url(#id13)" x="1.548" y="1.301" width="1.361" height="1.289"/>
    </mask>
    <mask id="id14">
  <linearGradient id="id15" gradientUnits="userSpaceOnUse" x1="1.82" y1="3.127" x2="-0.037" y2="-3.141">
   <stop offset="0" style="stop-opacity:1; stop-color:white"/>
   <stop offset="0.419608" style="stop-opacity:-115.957; stop-color:white"/>
   <stop offset="1" style="stop-opacity:0; stop-color:white"/>
  </linearGradient>
     <rect style="fill:url(#id15)" x="1.558" y="-0.003" width="1.361" height="1.289"/>
    </mask>
  <linearGradient id="id16" gradientUnits="userSpaceOnUse" x1="2.891" y1="1.945" x2="1.565" y2="1.945">
   <stop offset="0" style="stop-opacity:1; stop-color:aqua"/>
   <stop offset="1" style="stop-opacity:1; stop-color:#FEFEFE"/>
  </linearGradient>
  <linearGradient id="id17" gradientUnits="userSpaceOnUse" xlink:href="#id16" x1="2.891" y1="1.931" x2="1.565" y2="1.931">
  </linearGradient>
  <linearGradient id="id18" gradientUnits="userSpaceOnUse" xlink:href="#id16" x1="2.931" y1="0.627" x2="1.606" y2="0.627">
  </linearGradient>
  <linearGradient id="id19" gradientUnits="userSpaceOnUse" xlink:href="#id16" x1="2.922" y1="1.931" x2="1.596" y2="1.931">
  </linearGradient>
  <linearGradient id="id20" gradientUnits="userSpaceOnUse" xlink:href="#id16" x1="0.015" y1="1.921" x2="1.341" y2="1.921">
  </linearGradient>
  <linearGradient id="id21" gradientUnits="userSpaceOnUse" xlink:href="#id16" x1="0.015" y1="1.936" x2="1.341" y2="1.936">
  </linearGradient>
  <linearGradient id="id22" gradientUnits="userSpaceOnUse" xlink:href="#id16" x1="2.901" y1="0.627" x2="1.575" y2="0.627">
  </linearGradient>
  <linearGradient id="id23" gradientUnits="userSpaceOnUse" xlink:href="#id16" x1="2.901" y1="0.642" x2="1.575" y2="0.642">
  </linearGradient>
  <linearGradient id="id24" gradientUnits="userSpaceOnUse" xlink:href="#id16" x1="0.031" y1="0.642" x2="1.356" y2="0.642">
  </linearGradient>
  <linearGradient id="id25" gradientUnits="userSpaceOnUse" xlink:href="#id16" x1="0.045" y1="1.921" x2="1.371" y2="1.921">
  </linearGradient>
  <linearGradient id="id26" gradientUnits="userSpaceOnUse" xlink:href="#id16" x1="0" y1="0.657" x2="1.326" y2="0.657">
  </linearGradient>
  <linearGradient id="id27" gradientUnits="userSpaceOnUse" xlink:href="#id16" x1="0" y1="0.642" x2="1.326" y2="0.642">
  </linearGradient>
 </defs>
 <g id="Слой_x0020_1">
  <metadata id="CorelCorpID_0Corel-Layer"/>
  <polygon class="fil0" points="-0,0.015 1.326,0.015 1.326,1.269 -0,1.269 "/>
  <polygon class="fil1" points="0.015,1.294 1.341,1.294 1.341,2.548 0.015,2.548 "/>
  <polygon class="fil2" points="2.891,1.303 1.565,1.303 1.565,2.558 2.891,2.558 "/>
  <polygon class="fil3" points="2.901,0 1.575,0 1.575,1.254 2.901,1.254 "/>
  <g id="_2234928469440">
   <path class="fil4" d="M0.761 1.33c-0.005,0.002 -0.012,0.004 -0.02,0.007l-0.011 0.005 -0.011 0.004c0.009,-0.013 0.022,-0.022 0.039,-0.028 0.009,-0.003 0.017,-0.004 0.024,-0.003 0.009,0.001 0.016,0.004 0.022,0.008 -0.016,0 -0.03,0.002 -0.043,0.006zm-0.413 -0.096c-0.007,0.012 -0.013,0.024 -0.018,0.035 -0.013,0.027 -0.022,0.051 -0.027,0.073 -0.007,0.026 -0.011,0.051 -0.011,0.077 0.001,0.025 0.005,0.051 0.014,0.078l-0.009 -0.018 -0.003 -0.009 -0.003 -0.01 -0.003 -0.009 -0.002 -0.01 -0.001 -0.01 -0.001 -0.011c-0.002,-0.026 -0,-0.052 0.007,-0.081 0.007,-0.026 0.017,-0.051 0.031,-0.074 0.007,-0.012 0.014,-0.023 0.022,-0.034l0.012 -0.016c0.005,-0.006 0.009,-0.011 0.013,-0.015l-0.01 0.017 -0.01 0.017zm-0.056 -0.414c-0.01,0.008 -0.02,0.017 -0.029,0.027 -0.02,0.019 -0.037,0.039 -0.051,0.059 -0.015,0.021 -0.028,0.044 -0.039,0.068 -0.005,0.013 -0.009,0.025 -0.011,0.037 -0.003,0.014 -0.004,0.027 -0.002,0.039 -0.007,-0.021 -0.006,-0.048 0.005,-0.08 0.008,-0.024 0.02,-0.049 0.037,-0.072 0.017,-0.023 0.035,-0.043 0.055,-0.059 0.011,-0.009 0.022,-0.017 0.032,-0.024 0.012,-0.008 0.024,-0.015 0.036,-0.019l-0.016 0.012c-0.007,0.004 -0.012,0.009 -0.016,0.012zm0.395 0.487c-0.031,0.024 -0.061,0.039 -0.091,0.045 -0.025,0.005 -0.041,0.004 -0.05,-0.004 -0.003,-0.004 -0.006,-0.008 -0.008,-0.013 -0.003,-0.007 -0.003,-0.015 -0.001,-0.023 0.004,-0.023 0.021,-0.052 0.052,-0.086 0.041,-0.044 0.071,-0.094 0.09,-0.15 0.019,-0.054 0.026,-0.107 0.021,-0.158 -0.005,-0.053 -0.022,-0.097 -0.052,-0.132 -0.032,-0.038 -0.075,-0.062 -0.13,-0.072 -0.065,-0.011 -0.128,-0.003 -0.19,0.024 -0.054,0.024 -0.101,0.06 -0.142,0.108 -0.038,0.045 -0.062,0.092 -0.074,0.139 -0.011,0.048 -0.006,0.086 0.016,0.114 0.022,0.027 0.051,0.038 0.088,0.033 0.038,-0.005 0.079,-0.028 0.124,-0.066 0.025,-0.022 0.043,-0.036 0.053,-0.042 0.011,-0.005 0.02,-0.006 0.028,-0.002 0.017,0.009 0.007,0.033 -0.03,0.071 -0.067,0.071 -0.113,0.141 -0.137,0.21 -0.03,0.087 -0.024,0.168 0.019,0.243 0.03,0.053 0.083,0.083 0.157,0.09 0.06,0.006 0.132,-0.004 0.215,-0.028 0.083,-0.024 0.148,-0.056 0.194,-0.094 0.047,-0.039 0.069,-0.081 0.066,-0.125 -0.001,-0.022 -0.009,-0.042 -0.022,-0.061 -0.013,-0.019 -0.03,-0.034 -0.05,-0.044 -0.022,-0.011 -0.044,-0.015 -0.068,-0.012 -0.027,0.004 -0.054,0.015 -0.079,0.036zm0.635 -0.222c-0.003,0.016 -0.008,0.03 -0.017,0.041 -0.009,0.013 -0.02,0.022 -0.034,0.028 0.02,-0.019 0.033,-0.043 0.038,-0.072 0.004,-0.022 0.004,-0.049 -0.002,-0.082 0.015,0.026 0.02,0.054 0.015,0.085zm-0.078 0.027c-0.014,0.009 -0.03,0.009 -0.049,-0 -0.018,-0.01 -0.034,-0.025 -0.046,-0.047 -0.012,-0.023 -0.017,-0.045 -0.016,-0.067 0.001,-0.022 0.009,-0.038 0.023,-0.047 0.014,-0.009 0.03,-0.009 0.048,0.001 0.018,0.009 0.034,0.025 0.046,0.047 0.012,0.023 0.017,0.045 0.016,0.067 -0.001,0.023 -0.009,0.038 -0.022,0.047zm-0.324 -0.391c-0.011,0.031 -0.017,0.067 -0.02,0.108 -0.002,0.034 -0,0.071 0.004,0.112 -0.004,-0.014 -0.007,-0.033 -0.01,-0.056 -0.002,-0.019 -0.003,-0.038 -0.003,-0.056 -0,-0.04 0.005,-0.078 0.017,-0.113 0.013,-0.04 0.034,-0.072 0.061,-0.096 0.014,-0.013 0.03,-0.024 0.047,-0.033 0.018,-0.009 0.036,-0.015 0.054,-0.019 -0.039,0.015 -0.071,0.034 -0.094,0.058 -0.025,0.026 -0.043,0.057 -0.055,0.094zm0.205 -0.215c-0.121,0.012 -0.204,0.068 -0.248,0.167 -0.04,0.088 -0.045,0.194 -0.015,0.316 0.029,0.119 0.082,0.219 0.158,0.301 0.082,0.088 0.172,0.129 0.268,0.122 0.09,-0.007 0.156,-0.06 0.198,-0.16 0.039,-0.091 0.051,-0.198 0.034,-0.321 -0.017,-0.126 -0.058,-0.228 -0.123,-0.307 -0.074,-0.089 -0.165,-0.129 -0.272,-0.118zm1.038 0.41c-0.005,0.002 -0.012,0.004 -0.02,0.007l-0.011 0.005 -0.011 0.004c0.009,-0.013 0.022,-0.022 0.039,-0.028 0.009,-0.003 0.017,-0.004 0.024,-0.003 0.009,0.001 0.016,0.004 0.022,0.008 -0.016,0 -0.03,0.002 -0.043,0.006zm-0.413 -0.096c-0.007,0.012 -0.013,0.024 -0.018,0.035 -0.013,0.027 -0.022,0.051 -0.027,0.073 -0.007,0.026 -0.011,0.051 -0.011,0.077 0.001,0.025 0.005,0.051 0.014,0.078l-0.009 -0.018 -0.003 -0.009 -0.003 -0.01 -0.003 -0.009 -0.002 -0.01 -0.001 -0.009 -0.001 -0.011c-0.002,-0.026 -0,-0.052 0.007,-0.081 0.007,-0.026 0.017,-0.051 0.031,-0.074 0.007,-0.012 0.014,-0.023 0.022,-0.034l0.012 -0.016c0.005,-0.006 0.009,-0.011 0.013,-0.015l-0.01 0.017 -0.01 0.017zm-0.056 -0.414c-0.01,0.008 -0.02,0.017 -0.029,0.027 -0.02,0.019 -0.037,0.039 -0.051,0.059 -0.015,0.021 -0.028,0.044 -0.039,0.068 -0.005,0.013 -0.009,0.025 -0.011,0.037 -0.003,0.014 -0.004,0.027 -0.002,0.039 -0.007,-0.021 -0.006,-0.048 0.005,-0.08 0.008,-0.024 0.02,-0.049 0.037,-0.073 0.017,-0.023 0.035,-0.043 0.055,-0.059 0.011,-0.009 0.022,-0.017 0.032,-0.024 0.012,-0.008 0.024,-0.015 0.036,-0.019l-0.016 0.012c-0.007,0.004 -0.012,0.009 -0.016,0.012zm0.395 0.487c-0.031,0.024 -0.061,0.039 -0.091,0.045 -0.025,0.005 -0.041,0.004 -0.05,-0.004 -0.003,-0.004 -0.006,-0.008 -0.008,-0.013 -0.003,-0.007 -0.003,-0.015 -0.001,-0.023 0.004,-0.023 0.021,-0.052 0.052,-0.086 0.041,-0.044 0.071,-0.094 0.09,-0.15 0.019,-0.054 0.026,-0.107 0.021,-0.158 -0.005,-0.053 -0.022,-0.097 -0.052,-0.132 -0.032,-0.038 -0.075,-0.062 -0.13,-0.072 -0.065,-0.011 -0.128,-0.003 -0.19,0.024 -0.054,0.024 -0.101,0.06 -0.142,0.108 -0.038,0.045 -0.062,0.092 -0.074,0.139 -0.011,0.048 -0.006,0.086 0.016,0.114 0.022,0.027 0.051,0.038 0.088,0.033 0.038,-0.005 0.079,-0.028 0.124,-0.066 0.025,-0.022 0.043,-0.036 0.053,-0.042 0.011,-0.005 0.02,-0.006 0.028,-0.002 0.017,0.009 0.007,0.033 -0.03,0.071 -0.067,0.071 -0.113,0.141 -0.137,0.21 -0.03,0.087 -0.024,0.168 0.019,0.243 0.03,0.053 0.083,0.083 0.157,0.09 0.06,0.006 0.132,-0.004 0.215,-0.028 0.083,-0.024 0.148,-0.056 0.194,-0.094 0.047,-0.039 0.069,-0.081 0.066,-0.125 -0.001,-0.022 -0.009,-0.042 -0.022,-0.061 -0.013,-0.019 -0.03,-0.034 -0.05,-0.044 -0.022,-0.011 -0.044,-0.015 -0.068,-0.012 -0.027,0.004 -0.054,0.015 -0.079,0.036zm0.247 -0.683c-0.01,0.007 -0.018,0.015 -0.025,0.022 -0.008,0.008 -0.015,0.016 -0.021,0.026 -0.014,0.019 -0.024,0.039 -0.028,0.06 -0.005,0.024 -0.006,0.047 -0.001,0.068 -0.01,-0.021 -0.013,-0.044 -0.009,-0.07 0.003,-0.023 0.013,-0.045 0.028,-0.066 0.015,-0.02 0.032,-0.036 0.051,-0.049 0.021,-0.014 0.042,-0.022 0.065,-0.025 -0.021,0.008 -0.041,0.019 -0.06,0.033zm0.253 0.004c-0.034,-0.044 -0.071,-0.072 -0.113,-0.084 -0.036,-0.011 -0.074,-0.01 -0.113,0.004 -0.035,0.012 -0.066,0.033 -0.094,0.061 -0.027,0.027 -0.045,0.056 -0.055,0.087 -0.008,0.025 -0.011,0.051 -0.01,0.076 0.002,0.024 0.008,0.045 0.018,0.064 0.011,0.018 0.024,0.031 0.041,0.037 0.018,0.007 0.037,0.005 0.057,-0.004 0.025,-0.011 0.048,0.002 0.07,0.039 0.008,0.014 0.016,0.03 0.024,0.051 0.003,0.008 0.007,0.016 0.01,0.025l0.004 0.012 0.004 0.011c0.021,0.059 0.039,0.122 0.052,0.187 0.005,0.021 0.009,0.046 0.014,0.075l0.004 0.017 0.003 0.016c0.002,0.012 0.004,0.022 0.005,0.029 0.008,0.04 0.017,0.068 0.027,0.083 0.013,0.019 0.032,0.029 0.057,0.028 0.049,0 0.085,-0.034 0.106,-0.101 0.02,-0.06 0.028,-0.138 0.023,-0.235 -0.005,-0.092 -0.019,-0.182 -0.044,-0.271 -0.025,-0.092 -0.056,-0.161 -0.091,-0.207z"/>
   <path class="fil4" d="M1.994 1.965c-0.005,0.008 -0.012,0.013 -0.018,0.017 -0.008,0.005 -0.016,0.007 -0.024,0.008 0.014,-0.008 0.025,-0.018 0.035,-0.031 0.007,-0.01 0.014,-0.024 0.02,-0.042 0.002,0.017 -0.002,0.033 -0.013,0.048zm-0.063 -0.013c-0.009,-0.001 -0.016,-0.006 -0.021,-0.015 -0.006,-0.009 -0.008,-0.018 -0.007,-0.03 0.001,-0.011 0.005,-0.021 0.012,-0.029 0.007,-0.007 0.015,-0.011 0.023,-0.01 0.009,0.001 0.016,0.005 0.021,0.014 0.005,0.009 0.007,0.019 0.006,0.03 -0.001,0.011 -0.005,0.021 -0.012,0.029 -0.007,0.007 -0.014,0.011 -0.023,0.01zm-0.16 -0.246c-0.008,0.021 -0.016,0.049 -0.026,0.083 -0.003,0.012 -0.006,0.026 -0.01,0.042l-0.01 0.043c0.003,-0.027 0.007,-0.056 0.013,-0.087 0.006,-0.028 0.014,-0.057 0.024,-0.085 0.011,-0.032 0.024,-0.059 0.037,-0.081l0.006 -0.009c0.002,-0.004 0.004,-0.006 0.006,-0.009l0.007 -0.009 0.007 -0.008c0.013,-0.013 0.026,-0.021 0.037,-0.023 -0.011,0.004 -0.022,0.013 -0.034,0.027l-0.006 0.008 -0.006 0.009c-0.002,0.002 -0.004,0.005 -0.006,0.009l-0.005 0.01c-0.012,0.023 -0.023,0.049 -0.034,0.08zm0.091 -0.184c-0.045,0.006 -0.086,0.051 -0.12,0.133 -0.031,0.074 -0.052,0.165 -0.064,0.27 -0.011,0.104 -0.009,0.194 0.006,0.268 0.016,0.081 0.046,0.124 0.087,0.127 0.032,0.003 0.059,-0.006 0.083,-0.025 0.017,-0.015 0.034,-0.037 0.049,-0.067 0.003,-0.006 0.006,-0.013 0.009,-0.02l0.009 -0.019c0.007,-0.016 0.012,-0.028 0.016,-0.035 0.012,-0.024 0.024,-0.038 0.036,-0.041 0.013,-0.004 0.031,0.001 0.054,0.013 0.007,0.004 0.018,0.01 0.033,0.019l0.018 0.01 0.018 0.011c0.029,0.016 0.054,0.025 0.075,0.027 0.028,0.003 0.052,-0.004 0.073,-0.023 0.025,-0.022 0.029,-0.069 0.011,-0.143 -0.016,-0.069 -0.047,-0.143 -0.091,-0.224 -0.046,-0.084 -0.095,-0.151 -0.146,-0.203 -0.058,-0.058 -0.11,-0.084 -0.156,-0.078zm0.7 0.116c-0.001,0.011 -0.004,0.021 -0.009,0.031 -0.005,0.01 -0.012,0.019 -0.02,0.025 -0.009,0.007 -0.019,0.011 -0.029,0.012 0.01,-0.005 0.017,-0.011 0.024,-0.018 0.007,-0.007 0.013,-0.015 0.017,-0.023 0.009,-0.017 0.014,-0.036 0.014,-0.058 0.004,0.009 0.005,0.02 0.004,0.031zm-0.103 -0.016c0.002,-0.012 0.007,-0.021 0.014,-0.028 0.007,-0.007 0.015,-0.01 0.023,-0.008 0.008,0.002 0.015,0.007 0.019,0.016 0.004,0.009 0.005,0.019 0.003,0.031 -0.002,0.012 -0.007,0.021 -0.014,0.027 -0.007,0.007 -0.015,0.01 -0.023,0.008 -0.008,-0.002 -0.014,-0.007 -0.019,-0.016 -0.004,-0.009 -0.005,-0.02 -0.004,-0.031zm-0.135 -0.175c-0.02,0.017 -0.035,0.037 -0.046,0.06 -0.01,0.021 -0.018,0.045 -0.023,0.073 -0.003,0.022 -0.005,0.047 -0.004,0.077 -0.002,-0.011 -0.004,-0.024 -0.004,-0.039 -0,-0.014 0,-0.027 0.001,-0.039 0.003,-0.027 0.01,-0.052 0.021,-0.076 0.012,-0.025 0.029,-0.045 0.05,-0.061 0.01,-0.008 0.021,-0.015 0.034,-0.021 0.013,-0.006 0.025,-0.011 0.037,-0.014 -0.026,0.012 -0.048,0.026 -0.065,0.041zm0.076 -0.087c-0.067,0.019 -0.117,0.054 -0.15,0.105 -0.029,0.045 -0.043,0.1 -0.041,0.165 0.002,0.06 0.016,0.121 0.043,0.185 0.026,0.062 0.06,0.116 0.102,0.164 0.04,0.045 0.08,0.078 0.119,0.097 0.034,0.017 0.065,0.023 0.093,0.017 0.025,-0.005 0.044,-0.018 0.057,-0.04 0.013,-0.022 0.017,-0.047 0.012,-0.077 -0.003,-0.02 -0.01,-0.042 -0.021,-0.066 -0.003,-0.007 -0.008,-0.016 -0.014,-0.028l-0.007 -0.013c-0.002,-0.005 -0.005,-0.009 -0.006,-0.012 -0.009,-0.019 -0.013,-0.034 -0.012,-0.046 0,-0.015 0.008,-0.029 0.022,-0.041 0.047,-0.041 0.076,-0.091 0.089,-0.148 0.012,-0.053 0.008,-0.103 -0.012,-0.151 -0.021,-0.048 -0.054,-0.083 -0.1,-0.104 -0.05,-0.023 -0.107,-0.026 -0.171,-0.008z"/>
  </g>
  <g id="_2234928468736">
   <polygon class="fil5" style="mask:url(#id0)" points="0.031,0.015 1.356,0.015 1.356,1.269 0.031,1.269 "/>
   <polygon class="fil6" style="mask:url(#id2)" points="0.045,1.294 1.371,1.294 1.371,2.548 0.045,2.548 "/>
   <polygon class="fil7" style="mask:url(#id4)" points="2.922,1.303 1.596,1.303 1.596,2.558 2.922,2.558 "/>
   <polygon class="fil8" style="mask:url(#id6)" points="2.931,0 1.606,0 1.606,1.254 2.931,1.254 "/>
  </g>
  <g id="_2234928450368">
   <polygon class="fil9" style="mask:url(#id8)" points="-0,0.03 1.326,0.03 1.326,1.284 -0,1.284 "/>
   <polygon class="fil10" style="mask:url(#id10)" points="0.015,1.308 1.341,1.308 1.341,2.563 0.015,2.563 "/>
   <polygon class="fil11" style="mask:url(#id12)" points="2.891,1.318 1.565,1.318 1.565,2.573 2.891,2.573 "/>
   <polygon class="fil12" style="mask:url(#id14)" points="2.901,0.015 1.575,0.015 1.575,1.269 2.901,1.269 "/>
  </g>
 </g>
</svg>
