<?xml version="1.0" encoding="UTF-8"?>
<!DOCTYPE svg PUBLIC "-//W3C//DTD SVG 1.1//EN" "http://www.w3.org/Graphics/SVG/1.1/DTD/svg11.dtd">
<!-- Creator: CorelDRAW 2019 (64-Bit) -->
<svg xmlns="http://www.w3.org/2000/svg" xml:space="preserve" width="0.84666cm" height="0.3243cm" version="1.1" style="shape-rendering:geometricPrecision; text-rendering:geometricPrecision; image-rendering:optimizeQuality; fill-rule:evenodd; clip-rule:evenodd"
viewBox="0 0 0.659 0.253"
 xmlns:xlink="http://www.w3.org/1999/xlink"
 xmlns:xodm="http://www.corel.com/coreldraw/odm/2003">
 <defs>
  <style type="text/css">
   <![CDATA[
    .fil0 {fill:#706541;fill-rule:nonzero}
   ]]>
  </style>
 </defs>
 <g id="Слой_x0020_1">
  <metadata id="CorelCorpID_0Corel-Layer"/>
  <g id="_2494996946160">
   <path class="fil0" d="M0.027 0.2c0.009,0.013 0.02,0.019 0.032,0.019 0.008,0 0.015,-0.002 0.02,-0.007 0.005,-0.005 0.008,-0.011 0.008,-0.019 0,-0.008 -0.002,-0.014 -0.007,-0.019 -0.005,-0.005 -0.015,-0.008 -0.031,-0.008l-0.008 0 0 -0.031 0.007 0c0.009,0 0.016,-0.002 0.021,-0.006 0.005,-0.004 0.007,-0.01 0.007,-0.017 0,-0.007 -0.002,-0.012 -0.006,-0.016 -0.004,-0.004 -0.009,-0.006 -0.016,-0.006 -0.008,0 -0.016,0.004 -0.024,0.012l-0.02 -0.023c0.011,-0.01 0.02,-0.016 0.028,-0.018 0.007,-0.002 0.014,-0.003 0.02,-0.003 0.015,0 0.027,0.004 0.038,0.013 0.01,0.009 0.015,0.021 0.015,0.035 0,0.007 -0.001,0.013 -0.003,0.019 -0.002,0.006 -0.009,0.013 -0.019,0.02 0.022,0.01 0.032,0.026 0.032,0.049 0,0.017 -0.006,0.031 -0.017,0.041 -0.011,0.01 -0.026,0.016 -0.044,0.016 -0.011,0 -0.021,-0.002 -0.03,-0.006 -0.009,-0.004 -0.019,-0.013 -0.029,-0.027l0.027 -0.019zm0.26 -0.136l0 0.184 -0.035 0 0 -0.115 -0.069 0.115 -0.03 0 0 -0.184 0.035 0 0 0.119 0.07 -0.119 0.029 0zm0.121 0.103l-0.012 0c-0.017,0 -0.029,-0.001 -0.037,-0.003 -0.008,-0.002 -0.016,-0.006 -0.023,-0.011 -0.007,-0.006 -0.012,-0.013 -0.015,-0.021 -0.003,-0.008 -0.004,-0.019 -0.004,-0.032l0 -0.036 0.035 0 0 0.036c0,0.013 0.002,0.021 0.007,0.026 0.004,0.005 0.014,0.007 0.028,0.007l0.021 0 0 -0.069 0.035 0 0 0.184 -0.035 0 0 -0.081zm0.216 -0.103l0.035 0 0 0.184 -0.035 0 0 -0.184zm-0.139 0.184l0 -0.184 0.035 0 0 0.069 0.008 0c0.015,0 0.027,0.002 0.036,0.005 0.01,0.003 0.018,0.01 0.025,0.019 0.007,0.009 0.011,0.021 0.011,0.034 0,0.013 -0.003,0.023 -0.009,0.032 -0.006,0.009 -0.013,0.015 -0.021,0.019 -0.008,0.004 -0.019,0.005 -0.033,0.005l-0.051 0zm0.035 -0.083l0 0.05 0.009 0c0.014,0 0.024,-0.002 0.029,-0.005 0.005,-0.004 0.007,-0.01 0.007,-0.018 0,-0.017 -0.013,-0.026 -0.038,-0.026l-0.007 0z"/>
   <path class="fil0" d="M0.029 0c0.004,0 0.008,0.001 0.011,0.004 0.003,0.003 0.004,0.007 0.004,0.011 0,0.004 -0.002,0.008 -0.004,0.011 -0.003,0.003 -0.007,0.005 -0.011,0.005 -0.004,0 -0.008,-0.002 -0.011,-0.005 -0.003,-0.003 -0.004,-0.007 -0.004,-0.011 0,-0.004 0.002,-0.008 0.004,-0.011 0.003,-0.003 0.007,-0.004 0.011,-0.004zm0.056 0c0.004,0 0.008,0.001 0.011,0.004 0.003,0.003 0.004,0.007 0.004,0.011 0,0.004 -0.002,0.008 -0.004,0.011 -0.003,0.003 -0.007,0.005 -0.011,0.005 -0.004,0 -0.008,-0.002 -0.011,-0.005 -0.003,-0.003 -0.004,-0.007 -0.004,-0.011 0,-0.004 0.002,-0.008 0.004,-0.011 0.003,-0.003 0.007,-0.004 0.011,-0.004z"/>
  </g>
 </g>
</svg>
