<?xml version="1.0" encoding="UTF-8"?>
<!DOCTYPE svg PUBLIC "-//W3C//DTD SVG 1.1//EN" "http://www.w3.org/Graphics/SVG/1.1/DTD/svg11.dtd">
<!-- Creator: CorelDRAW 2019 (64-Bit) -->
<svg xmlns="http://www.w3.org/2000/svg" xml:space="preserve" width="1.27cm" height="0.25978cm" version="1.1" style="shape-rendering:geometricPrecision; text-rendering:geometricPrecision; image-rendering:optimizeQuality; fill-rule:evenodd; clip-rule:evenodd"
viewBox="0 0 1.494 0.306"
 xmlns:xlink="http://www.w3.org/1999/xlink"
 xmlns:xodm="http://www.corel.com/coreldraw/odm/2003">
 <defs>
  <style type="text/css">
   <![CDATA[
    .fil0 {fill:#706541;fill-rule:nonzero}
   ]]>
  </style>
 </defs>
 <g id="Слой_x0020_1">
  <metadata id="CorelCorpID_0Corel-Layer"/>
  <path class="fil0" d="M0.201 0.266l-0.073 -0.195 -0.074 0.195 -0.053 0 0.102 -0.266 0.051 0 0.102 0.266 -0.054 0zm0.158 -0.06l-0.094 -0.206 0.057 0 0.062 0.149 0.051 -0.149 0.052 0 -0.07 0.191c-0.012,0.032 -0.025,0.054 -0.039,0.065 -0.014,0.011 -0.029,0.016 -0.045,0.016 -0.026,0 -0.05,-0.013 -0.072,-0.039l0.033 -0.033c0.013,0.015 0.026,0.023 0.039,0.023 0.006,0 0.01,-0.001 0.014,-0.004 0.004,-0.003 0.008,-0.007 0.013,-0.014zm0.248 -0.206l0.051 0 0.085 0.219 0.029 0 0 0.087 -0.049 0 0 -0.04 -0.183 0 0 0.04 -0.049 0 0 -0.087 0.029 0 0.085 -0.219zm0.026 0.07l-0.058 0.149 0.116 0 -0.058 -0.149zm0.276 -0.07l0.051 0 0 0.092 0.072 -0.092 0.061 0 -0.092 0.119 0.101 0.147 -0.06 0 -0.081 -0.119 0 0.119 -0.051 0 0 -0.266zm0.228 0l0.144 0 0 0.05 -0.094 0 0 0.048 0.094 0 0 0.049 -0.094 0 0 0.07 0.094 0 0 0.05 -0.144 0 0 -0.266zm0.306 0.149l-0.017 0c-0.024,0 -0.042,-0.001 -0.054,-0.004 -0.012,-0.003 -0.023,-0.008 -0.033,-0.016 -0.01,-0.008 -0.018,-0.018 -0.022,-0.03 -0.004,-0.012 -0.006,-0.027 -0.006,-0.047l0 -0.053 0.051 0 0 0.052c0,0.018 0.003,0.031 0.01,0.038 0.006,0.007 0.02,0.011 0.041,0.011l0.03 0 0 -0.1 0.051 0 0 0.266 -0.051 0 0 -0.117z"/>
 </g>
</svg>
