<?xml version="1.0" encoding="UTF-8"?>
<!DOCTYPE svg PUBLIC "-//W3C//DTD SVG 1.1//EN" "http://www.w3.org/Graphics/SVG/1.1/DTD/svg11.dtd">
<!-- Creator: CorelDRAW 2019 (64-Bit) -->
<svg xmlns="http://www.w3.org/2000/svg" xml:space="preserve" width="0.81844cm" height="0.26829cm" version="1.1" style="shape-rendering:geometricPrecision; text-rendering:geometricPrecision; image-rendering:optimizeQuality; fill-rule:evenodd; clip-rule:evenodd"
viewBox="0 0 0.596 0.195"
 xmlns:xlink="http://www.w3.org/1999/xlink"
 xmlns:xodm="http://www.corel.com/coreldraw/odm/2003">
 <defs>
  <style type="text/css">
   <![CDATA[
    .fil0 {fill:#706541;fill-rule:nonzero}
   ]]>
  </style>
 </defs>
 <g id="Слой_x0020_1">
  <metadata id="CorelCorpID_0Corel-Layer"/>
  <path class="fil0" d="M0.024 0.127c0.008,0.012 0.018,0.017 0.029,0.017 0.007,0 0.013,-0.002 0.018,-0.006 0.005,-0.004 0.007,-0.01 0.007,-0.017 0,-0.007 -0.002,-0.013 -0.007,-0.017 -0.004,-0.005 -0.014,-0.007 -0.028,-0.007l-0.007 0 0 -0.028 0.007 0c0.008,0 0.015,-0.002 0.019,-0.006 0.004,-0.004 0.006,-0.009 0.006,-0.015 0,-0.006 -0.002,-0.011 -0.005,-0.014 -0.004,-0.003 -0.008,-0.005 -0.014,-0.005 -0.007,0 -0.014,0.004 -0.022,0.01l-0.018 -0.021c0.01,-0.009 0.018,-0.014 0.025,-0.016 0.007,-0.002 0.013,-0.003 0.018,-0.003 0.013,0 0.025,0.004 0.034,0.012 0.009,0.008 0.014,0.019 0.014,0.032 0,0.006 -0.001,0.012 -0.003,0.017 -0.002,0.006 -0.008,0.012 -0.017,0.018 0.019,0.009 0.029,0.023 0.029,0.044 0,0.015 -0.005,0.028 -0.015,0.037 -0.01,0.009 -0.024,0.014 -0.04,0.014 -0.01,0 -0.019,-0.002 -0.027,-0.006 -0.008,-0.004 -0.017,-0.012 -0.026,-0.024l0.024 -0.018zm0.165 -0.123l0.032 0 0.063 0.166 -0.033 0 -0.013 -0.034 -0.068 0 -0.013 0.034 -0.033 0 0.064 -0.166zm0.016 0.044l-0.022 0.057 0.045 0 -0.022 -0.057zm0.201 -0.044l0 0.166 -0.031 0 0 -0.067 -0.008 0 -0.033 0.067 -0.034 0 0.037 -0.072c-0.022,-0.006 -0.032,-0.021 -0.032,-0.043 0,-0.008 0.001,-0.015 0.003,-0.021 0.002,-0.006 0.006,-0.011 0.01,-0.015 0.004,-0.004 0.009,-0.007 0.015,-0.009 0.006,-0.002 0.01,-0.003 0.013,-0.003 0.003,-0 0.012,-0.001 0.027,-0.001l0.033 0zm-0.031 0.068l0 -0.037 -0.009 0c-0.008,0 -0.014,0 -0.017,0.001 -0.003,0.001 -0.006,0.003 -0.008,0.006 -0.002,0.003 -0.003,0.007 -0.003,0.012 0,0.007 0.002,0.012 0.007,0.014 0.004,0.003 0.011,0.004 0.021,0.004l0.01 0zm0.069 0.098l0 -0.166 0.032 0 0 0.138 0.055 0 0 -0.138 0.032 0 0 0.138 0.034 0 0 0.053 -0.029 0 0 -0.025 -0.123 0z"/>
 </g>
</svg>
