<?xml version="1.0" encoding="UTF-8"?>
<!DOCTYPE svg PUBLIC "-//W3C//DTD SVG 1.1//EN" "http://www.w3.org/Graphics/SVG/1.1/DTD/svg11.dtd">
<!-- Creator: CorelDRAW 2019 (64-Bit) -->
<svg xmlns="http://www.w3.org/2000/svg" xml:space="preserve" width="0.90726cm" height="0.2394cm" version="1.1" style="shape-rendering:geometricPrecision; text-rendering:geometricPrecision; image-rendering:optimizeQuality; fill-rule:evenodd; clip-rule:evenodd"
viewBox="0 0 0.734 0.194"
 xmlns:xlink="http://www.w3.org/1999/xlink"
 xmlns:xodm="http://www.corel.com/coreldraw/odm/2003">
 <defs>
  <style type="text/css">
   <![CDATA[
    .fil0 {fill:#706541;fill-rule:nonzero}
   ]]>
  </style>
 </defs>
 <g id="Слой_x0020_1">
  <metadata id="CorelCorpID_0Corel-Layer"/>
  <path class="fil0" d="M0.14 0.189l-0.051 -0.135 -0.052 0.135 -0.037 0 0.071 -0.185 0.035 0 0.071 0.185 -0.037 0zm0.192 -0.185l0 0.185 -0.035 0 0 -0.116 -0.069 0.116 -0.03 0 0 -0.185 0.035 0 0 0.119 0.07 -0.119 0.029 0zm0.21 0.032l-0.024 0.023c-0.017,-0.018 -0.035,-0.026 -0.056,-0.026 -0.018,0 -0.032,0.006 -0.044,0.018 -0.012,0.012 -0.018,0.027 -0.018,0.045 0,0.012 0.003,0.023 0.008,0.033 0.005,0.01 0.013,0.017 0.023,0.022 0.01,0.005 0.021,0.008 0.032,0.008 0.01,0 0.019,-0.002 0.028,-0.006 0.008,-0.004 0.018,-0.011 0.028,-0.021l0.024 0.025c-0.014,0.013 -0.026,0.023 -0.038,0.028 -0.012,0.005 -0.026,0.008 -0.041,0.008 -0.029,0 -0.052,-0.009 -0.07,-0.027 -0.018,-0.018 -0.027,-0.042 -0.027,-0.07 0,-0.018 0.004,-0.035 0.012,-0.049 0.008,-0.014 0.02,-0.026 0.036,-0.034 0.015,-0.009 0.032,-0.013 0.05,-0.013 0.015,0 0.03,0.003 0.044,0.01 0.014,0.006 0.026,0.016 0.036,0.027zm0.087 -0.032l0.035 0 0.071 0.185 -0.036 0 -0.014 -0.038 -0.075 0 -0.015 0.038 -0.036 0 0.071 -0.185zm0.018 0.049l-0.025 0.064 0.05 0 -0.025 -0.064z"/>
 </g>
</svg>
