<?xml version="1.0" encoding="UTF-8"?>
<!DOCTYPE svg PUBLIC "-//W3C//DTD SVG 1.1//EN" "http://www.w3.org/Graphics/SVG/1.1/DTD/svg11.dtd">
<!-- Creator: CorelDRAW 2019 (64-Bit) -->
<svg xmlns="http://www.w3.org/2000/svg" xml:space="preserve" width="3.02476cm" height="0.56727cm" version="1.1" style="shape-rendering:geometricPrecision; text-rendering:geometricPrecision; image-rendering:optimizeQuality; fill-rule:evenodd; clip-rule:evenodd"
viewBox="0 0 8.064 1.512"
 xmlns:xlink="http://www.w3.org/1999/xlink"
 xmlns:xodm="http://www.corel.com/coreldraw/odm/2003">
 <defs>
  <style type="text/css">
   <![CDATA[
    .fil0 {fill:#706541;fill-rule:nonzero}
   ]]>
  </style>
 </defs>
 <g id="Слой_x0020_1">
  <metadata id="CorelCorpID_0Corel-Layer"/>
  <path class="fil0" d="M0.668 0c0.181,0 0.337,0.066 0.467,0.198 0.13,0.132 0.196,0.293 0.196,0.482 0,0.188 -0.064,0.347 -0.193,0.477 -0.128,0.13 -0.284,0.195 -0.468,0.195 -0.192,0 -0.352,-0.067 -0.479,-0.201 -0.127,-0.134 -0.191,-0.292 -0.191,-0.476 0,-0.123 0.03,-0.236 0.089,-0.34 0.059,-0.103 0.141,-0.185 0.244,-0.245 0.104,-0.06 0.215,-0.091 0.335,-0.091zm-0.004 0.24c-0.118,0 -0.217,0.042 -0.297,0.124 -0.081,0.083 -0.121,0.188 -0.121,0.316 0,0.142 0.05,0.255 0.152,0.338 0.079,0.065 0.169,0.097 0.271,0.097 0.115,0 0.213,-0.042 0.294,-0.126 0.081,-0.084 0.122,-0.187 0.122,-0.311 0,-0.123 -0.041,-0.226 -0.122,-0.311 -0.081,-0.085 -0.181,-0.127 -0.297,-0.127zm0.773 -0.208l0.708 0 0 0.242 -0.234 0 0 1.046 -0.248 0 0 -1.046 -0.226 0 0 -0.242zm0.872 0l0.636 0 0 0.24 -0.394 0 0 1.048 -0.242 0 0 -1.288zm1.218 0l0.245 0 0.493 1.288 -0.253 0 -0.1 -0.266 -0.525 0 -0.102 0.266 -0.253 0 0.496 -1.288zm0.123 0.342l-0.174 0.443 0.346 0 -0.173 -0.443zm1.22 -0.342l0.246 0 0.414 1.058 0.142 0 0 0.422 -0.235 0 0 -0.192 -0.884 0 0 0.192 -0.235 0 0 -0.422 0.142 0 0.411 -1.058zm0.125 0.339l-0.281 0.72 0.562 0 -0.281 -0.72zm0.835 -0.339l0.246 0 0 0.446 0.346 -0.446 0.294 0 -0.447 0.575 0.491 0.713 -0.289 0 -0.395 -0.574 0 0.574 -0.246 0 0 -1.288zm1.495 0l0.245 0 0.493 1.288 -0.253 0 -0.1 -0.266 -0.525 0 -0.102 0.266 -0.253 0 0.496 -1.288zm0.123 0.342l-0.174 0.443 0.346 0 -0.173 -0.443z"/>
 </g>
</svg>
