<?xml version="1.0" encoding="UTF-8"?>
<!DOCTYPE svg PUBLIC "-//W3C//DTD SVG 1.1//EN" "http://www.w3.org/Graphics/SVG/1.1/DTD/svg11.dtd">
<!-- Creator: CorelDRAW 2019 (64-Bit) -->
<svg xmlns="http://www.w3.org/2000/svg" xml:space="preserve" width="1.27cm" height="0.20692cm" version="1.1" style="shape-rendering:geometricPrecision; text-rendering:geometricPrecision; image-rendering:optimizeQuality; fill-rule:evenodd; clip-rule:evenodd"
viewBox="0 0 1.492 0.243"
 xmlns:xlink="http://www.w3.org/1999/xlink"
 xmlns:xodm="http://www.corel.com/coreldraw/odm/2003">
 <defs>
  <style type="text/css">
   <![CDATA[
    .fil0 {fill:#706541;fill-rule:nonzero}
   ]]>
  </style>
 </defs>
 <g id="Слой_x0020_1">
  <metadata id="CorelCorpID_0Corel-Layer"/>
  <path class="fil0" d="M-0 0l0.045 0 0 0.082 0.064 -0.082 0.054 0 -0.082 0.106 0.09 0.131 -0.053 0 -0.073 -0.106 0 0.106 -0.045 0 0 -0.237zm0.269 0.184l-0.084 -0.184 0.051 0 0.056 0.133 0.046 -0.133 0.046 0 -0.063 0.17c-0.011,0.029 -0.023,0.048 -0.035,0.058 -0.013,0.01 -0.026,0.015 -0.041,0.015 -0.023,0 -0.045,-0.012 -0.065,-0.035l0.03 -0.03c0.012,0.014 0.023,0.021 0.035,0.021 0.005,0 0.009,-0.001 0.013,-0.004 0.003,-0.002 0.007,-0.006 0.012,-0.012zm0.248 -0.05l-0.015 0c-0.022,0 -0.038,-0.001 -0.048,-0.003 -0.01,-0.002 -0.02,-0.007 -0.03,-0.014 -0.009,-0.007 -0.016,-0.016 -0.02,-0.027 -0.004,-0.01 -0.006,-0.024 -0.006,-0.042l0 -0.047 0.046 0 0 0.046c0,0.016 0.003,0.027 0.009,0.034 0.006,0.006 0.018,0.01 0.037,0.01l0.027 0 0 -0.09 0.045 0 0 0.237 -0.045 0 0 -0.104zm0.279 -0.133l0.045 0 0 0.237 -0.045 0 0 -0.237zm-0.18 0.237l0 -0.237 0.045 0 0 0.09 0.01 0c0.019,0 0.034,0.002 0.047,0.007 0.012,0.004 0.023,0.013 0.032,0.025 0.009,0.012 0.014,0.027 0.014,0.044 0,0.016 -0.004,0.03 -0.012,0.041 -0.008,0.011 -0.017,0.019 -0.027,0.024 -0.01,0.005 -0.024,0.007 -0.042,0.007l-0.066 0zm0.045 -0.107l0 0.064 0.011 0c0.019,0 0.031,-0.002 0.037,-0.007 0.006,-0.005 0.009,-0.013 0.009,-0.024 0,-0.023 -0.016,-0.034 -0.049,-0.034l-0.009 0zm0.234 -0.13l0.048 0c0.026,0 0.044,0.002 0.056,0.007 0.011,0.005 0.02,0.013 0.027,0.023 0.007,0.011 0.01,0.024 0.01,0.039 0,0.017 -0.004,0.03 -0.013,0.041 -0.009,0.011 -0.02,0.019 -0.035,0.023 -0.009,0.002 -0.025,0.004 -0.047,0.004l0 0.101 -0.045 0 0 -0.237zm0.045 0.093l0.014 0c0.011,0 0.019,-0.001 0.024,-0.002 0.004,-0.002 0.008,-0.004 0.01,-0.008 0.003,-0.004 0.004,-0.008 0.004,-0.014 0,-0.009 -0.004,-0.016 -0.011,-0.02 -0.005,-0.003 -0.015,-0.005 -0.029,-0.005l-0.013 0 0 0.049zm0.212 -0.093l0.045 0 0.091 0.237 -0.047 0 -0.018 -0.049 -0.097 0 -0.019 0.049 -0.047 0 0.091 -0.237zm0.023 0.063l-0.032 0.082 0.064 0 -0.032 -0.082zm0.148 -0.063l0.046 0 0 0.09 0.079 0 0 -0.09 0.045 0 0 0.237 -0.045 0 0 -0.104 -0.079 0 0 0.104 -0.046 0 0 -0.237z"/>
 </g>
</svg>
