<?xml version="1.0" encoding="UTF-8"?>
<!DOCTYPE svg PUBLIC "-//W3C//DTD SVG 1.1//EN" "http://www.w3.org/Graphics/SVG/1.1/DTD/svg11.dtd">
<!-- Creator: CorelDRAW 2019 (64-Bit) -->
<svg xmlns="http://www.w3.org/2000/svg" xml:space="preserve" width="2.31164cm" height="0.56727cm" version="1.1" style="shape-rendering:geometricPrecision; text-rendering:geometricPrecision; image-rendering:optimizeQuality; fill-rule:evenodd; clip-rule:evenodd"
viewBox="0 0 4.715 1.157"
 xmlns:xlink="http://www.w3.org/1999/xlink"
 xmlns:xodm="http://www.corel.com/coreldraw/odm/2003">
 <defs>
  <style type="text/css">
   <![CDATA[
    .fil0 {fill:#706541;fill-rule:nonzero}
   ]]>
  </style>
 </defs>
 <g id="Слой_x0020_1">
  <metadata id="CorelCorpID_0Corel-Layer"/>
  <path class="fil0" d="M-0 0.025l0.541 0 0 0.185 -0.179 0 0 0.8 -0.19 0 0 -0.8 -0.173 0 0 -0.185zm1.13 -0.025c0.138,0 0.258,0.051 0.357,0.151 0.1,0.101 0.15,0.224 0.15,0.369 0,0.144 -0.049,0.266 -0.147,0.365 -0.098,0.099 -0.218,0.149 -0.358,0.149 -0.147,0 -0.269,-0.051 -0.366,-0.153 -0.097,-0.102 -0.146,-0.224 -0.146,-0.364 0,-0.094 0.023,-0.181 0.068,-0.26 0.045,-0.079 0.108,-0.142 0.187,-0.188 0.079,-0.046 0.165,-0.069 0.256,-0.069zm-0.003 0.184c-0.09,0 -0.166,0.032 -0.228,0.095 -0.062,0.063 -0.092,0.144 -0.092,0.242 0,0.109 0.039,0.195 0.116,0.258 0.06,0.05 0.129,0.074 0.207,0.074 0.088,0 0.163,-0.032 0.225,-0.097 0.062,-0.064 0.093,-0.143 0.093,-0.238 0,-0.094 -0.031,-0.173 -0.094,-0.238 -0.062,-0.065 -0.138,-0.097 -0.228,-0.097zm1.005 -0.159l0.188 0 0.316 0.81 0.109 0 0 0.323 -0.18 0 0 -0.147 -0.677 0 0 0.147 -0.18 0 0 -0.323 0.109 0 0.314 -0.81zm0.096 0.259l-0.215 0.551 0.43 0 -0.215 -0.551zm1.099 -0.284c0.138,0 0.258,0.051 0.357,0.151 0.1,0.101 0.15,0.224 0.15,0.369 0,0.144 -0.049,0.266 -0.148,0.365 -0.098,0.099 -0.218,0.149 -0.358,0.149 -0.147,0 -0.269,-0.051 -0.366,-0.153 -0.097,-0.102 -0.146,-0.224 -0.146,-0.364 0,-0.094 0.023,-0.181 0.068,-0.26 0.045,-0.079 0.108,-0.142 0.187,-0.188 0.079,-0.046 0.165,-0.069 0.256,-0.069zm-0.003 0.184c-0.09,0 -0.166,0.032 -0.228,0.095 -0.062,0.063 -0.092,0.144 -0.092,0.242 0,0.109 0.039,0.195 0.116,0.258 0.06,0.05 0.129,0.074 0.207,0.074 0.088,0 0.163,-0.032 0.225,-0.097 0.062,-0.064 0.093,-0.143 0.093,-0.238 0,-0.094 -0.031,-0.173 -0.094,-0.238 -0.062,-0.065 -0.138,-0.097 -0.228,-0.097zm0.685 -0.159l0.19 0 0 0.372 0.327 0 0 -0.372 0.188 0 0 0.985 -0.188 0 0 -0.432 -0.327 0 0 0.432 -0.19 0 0 -0.985z"/>
 </g>
</svg>
