<?xml version="1.0" encoding="UTF-8"?>
<!DOCTYPE svg PUBLIC "-//W3C//DTD SVG 1.1//EN" "http://www.w3.org/Graphics/SVG/1.1/DTD/svg11.dtd">
<!-- Creator: CorelDRAW 2019 (64-Bit) -->
<svg xmlns="http://www.w3.org/2000/svg" xml:space="preserve" width="0.42829cm" height="0.2902cm" version="1.1" style="shape-rendering:geometricPrecision; text-rendering:geometricPrecision; image-rendering:optimizeQuality; fill-rule:evenodd; clip-rule:evenodd"
viewBox="0 0 0.163 0.11"
 xmlns:xlink="http://www.w3.org/1999/xlink"
 xmlns:xodm="http://www.corel.com/coreldraw/odm/2003">
 <defs>
  <style type="text/css">
   <![CDATA[
    .fil0 {fill:#706541;fill-rule:nonzero}
   ]]>
  </style>
 </defs>
 <g id="Слой_x0020_1">
  <metadata id="CorelCorpID_0Corel-Layer"/>
  <path class="fil0" d="M-0 0.024l0.047 0 0 0.016 -0.031 0 0 0.016 0.031 0 0 0.016 -0.031 0 0 0.023 0.031 0 0 0.016 -0.047 0 0 -0.087zm0.011 -0.024c0.002,0 0.004,0.001 0.006,0.002 0.002,0.002 0.002,0.004 0.002,0.006 0,0.002 -0.001,0.004 -0.002,0.006 -0.002,0.002 -0.004,0.002 -0.006,0.002 -0.002,0 -0.004,-0.001 -0.006,-0.002 -0.002,-0.002 -0.002,-0.004 -0.002,-0.006 0,-0.002 0.001,-0.004 0.002,-0.006 0.002,-0.002 0.004,-0.002 0.006,-0.002zm0.026 0c0.002,0 0.004,0.001 0.006,0.002 0.002,0.002 0.002,0.004 0.002,0.006 0,0.002 -0.001,0.004 -0.002,0.006 -0.002,0.002 -0.004,0.002 -0.006,0.002 -0.002,0 -0.004,-0.001 -0.006,-0.002 -0.002,-0.002 -0.002,-0.004 -0.002,-0.006 0,-0.002 0.001,-0.004 0.002,-0.006 0.002,-0.002 0.004,-0.002 0.006,-0.002zm0.064 0.072l-0.002 -0.003 -0.024 0.041 -0.019 0 0.032 -0.05 -0.029 -0.036 0.02 0 0.023 0.031 0 -0.031 0.017 0 0 0.031 0.023 -0.031 0.02 0 -0.029 0.036 0.032 0.05 -0.019 0 -0.024 -0.041 -0.002 0.003 0 0.038 -0.017 0 0 -0.038z"/>
 </g>
</svg>
