<?xml version="1.0" encoding="UTF-8"?>
<!DOCTYPE svg PUBLIC "-//W3C//DTD SVG 1.1//EN" "http://www.w3.org/Graphics/SVG/1.1/DTD/svg11.dtd">
<!-- Creator: CorelDRAW 2019 (64-Bit) -->
<svg xmlns="http://www.w3.org/2000/svg" xml:space="preserve" width="0.90531cm" height="0.2394cm" version="1.1" style="shape-rendering:geometricPrecision; text-rendering:geometricPrecision; image-rendering:optimizeQuality; fill-rule:evenodd; clip-rule:evenodd"
viewBox="0 0 0.728 0.193"
 xmlns:xlink="http://www.w3.org/1999/xlink"
 xmlns:xodm="http://www.corel.com/coreldraw/odm/2003">
 <defs>
  <style type="text/css">
   <![CDATA[
    .fil0 {fill:#706541;fill-rule:nonzero}
   ]]>
  </style>
 </defs>
 <g id="Слой_x0020_1">
  <metadata id="CorelCorpID_0Corel-Layer"/>
  <path class="fil0" d="M0.177 0.037l-0.024 0.023c-0.017,-0.018 -0.035,-0.026 -0.056,-0.026 -0.017,0 -0.032,0.006 -0.044,0.018 -0.012,0.012 -0.018,0.027 -0.018,0.044 0,0.012 0.003,0.023 0.008,0.033 0.005,0.009 0.013,0.017 0.022,0.022 0.01,0.005 0.02,0.008 0.032,0.008 0.01,0 0.019,-0.002 0.028,-0.006 0.008,-0.004 0.018,-0.011 0.028,-0.021l0.024 0.025c-0.013,0.013 -0.026,0.022 -0.038,0.028 -0.012,0.005 -0.026,0.008 -0.041,0.008 -0.028,0 -0.052,-0.009 -0.07,-0.027 -0.018,-0.018 -0.027,-0.041 -0.027,-0.069 0,-0.018 0.004,-0.035 0.012,-0.049 0.008,-0.014 0.02,-0.026 0.035,-0.034 0.015,-0.009 0.032,-0.013 0.05,-0.013 0.015,0 0.029,0.003 0.043,0.01 0.014,0.006 0.026,0.015 0.036,0.027zm0.116 -0.037c0.026,0 0.048,0.009 0.066,0.028 0.019,0.019 0.028,0.042 0.028,0.069 0,0.027 -0.009,0.049 -0.027,0.068 -0.018,0.019 -0.04,0.028 -0.067,0.028 -0.027,0 -0.05,-0.01 -0.068,-0.029 -0.018,-0.019 -0.027,-0.042 -0.027,-0.068 0,-0.017 0.004,-0.034 0.013,-0.048 0.008,-0.015 0.02,-0.026 0.035,-0.035 0.015,-0.009 0.031,-0.013 0.048,-0.013zm-0.001 0.034c-0.017,0 -0.031,0.006 -0.042,0.018 -0.011,0.012 -0.017,0.027 -0.017,0.045 0,0.02 0.007,0.036 0.022,0.048 0.011,0.009 0.024,0.014 0.039,0.014 0.016,0 0.03,-0.006 0.042,-0.018 0.012,-0.012 0.017,-0.027 0.017,-0.044 0,-0.017 -0.006,-0.032 -0.017,-0.044 -0.012,-0.012 -0.026,-0.018 -0.042,-0.018zm0.128 0.154l0 -0.183 0.029 0c0.017,0 0.029,0.001 0.037,0.003 0.011,0.003 0.02,0.008 0.026,0.016 0.006,0.008 0.01,0.017 0.01,0.028 0,0.007 -0.001,0.013 -0.004,0.019 -0.003,0.006 -0.008,0.011 -0.014,0.016 0.011,0.005 0.019,0.012 0.024,0.02 0.005,0.008 0.008,0.017 0.008,0.028 0,0.01 -0.003,0.02 -0.008,0.028 -0.005,0.008 -0.012,0.015 -0.021,0.019 -0.008,0.004 -0.02,0.006 -0.035,0.006l-0.051 0zm0.035 -0.15l0 0.039 0.008 0c0.009,0 0.015,-0.002 0.019,-0.005 0.004,-0.004 0.006,-0.008 0.006,-0.015 0,-0.006 -0.002,-0.01 -0.006,-0.014 -0.004,-0.003 -0.01,-0.005 -0.018,-0.005l-0.009 0zm0 0.07l0 0.047 0.009 0c0.015,0 0.024,-0.002 0.03,-0.005 0.005,-0.004 0.008,-0.009 0.008,-0.016 0,-0.008 -0.003,-0.014 -0.009,-0.019 -0.006,-0.005 -0.016,-0.007 -0.03,-0.007l-0.007 0zm0.169 -0.103l0.035 0 0.07 0.183 -0.036 0 -0.014 -0.038 -0.075 0 -0.015 0.038 -0.036 0 0.071 -0.183zm0.018 0.049l-0.025 0.063 0.049 0 -0.025 -0.063z"/>
 </g>
</svg>
