<?xml version="1.0" encoding="UTF-8"?>
<!DOCTYPE svg PUBLIC "-//W3C//DTD SVG 1.1//EN" "http://www.w3.org/Graphics/SVG/1.1/DTD/svg11.dtd">
<!-- Creator: CorelDRAW 2019 (64-Bit) -->
<svg xmlns="http://www.w3.org/2000/svg" xml:space="preserve" width="1.27cm" height="0.30461cm" version="1.1" style="shape-rendering:geometricPrecision; text-rendering:geometricPrecision; image-rendering:optimizeQuality; fill-rule:evenodd; clip-rule:evenodd"
viewBox="0 0 1.494 0.358"
 xmlns:xlink="http://www.w3.org/1999/xlink"
 xmlns:xodm="http://www.corel.com/coreldraw/odm/2003">
 <defs>
  <style type="text/css">
   <![CDATA[
    .fil0 {fill:#706541;fill-rule:nonzero}
   ]]>
  </style>
 </defs>
 <g id="Слой_x0020_1">
  <metadata id="CorelCorpID_0Corel-Layer"/>
  <g id="_2495018378352">
   <path class="fil0" d="M0.13 0.237l-0.017 0c-0.024,0 -0.042,-0.001 -0.053,-0.004 -0.011,-0.002 -0.022,-0.008 -0.033,-0.016 -0.01,-0.008 -0.018,-0.018 -0.022,-0.029 -0.004,-0.012 -0.006,-0.027 -0.006,-0.046l0 -0.052 0.05 0 0 0.051c0,0.018 0.003,0.03 0.009,0.037 0.006,0.007 0.02,0.011 0.04,0.011l0.03 0 0 -0.099 0.05 0 0 0.262 -0.05 0 0 -0.115zm0.183 0.056l-0.093 -0.203 0.056 0 0.061 0.146 0.05 -0.146 0.051 0 -0.069 0.188c-0.012,0.032 -0.025,0.053 -0.039,0.064 -0.014,0.011 -0.029,0.016 -0.045,0.016 -0.026,0 -0.05,-0.013 -0.071,-0.038l0.033 -0.033c0.013,0.015 0.026,0.023 0.038,0.023 0.006,0 0.01,-0.001 0.014,-0.004 0.004,-0.003 0.008,-0.007 0.013,-0.013zm0.28 0.014l0 -0.217 0.05 0 0 0.217 0.071 0 0 -0.217 0.05 0 0 0.262 -0.291 0 0 -0.262 0.05 0 0 0.217 0.07 0zm0.261 0.045l0 -0.215 -0.058 0 0 -0.047 0.108 0 0 0.099 0.011 0c0.021,0 0.038,0.002 0.052,0.007 0.014,0.005 0.026,0.014 0.036,0.028 0.01,0.014 0.015,0.03 0.015,0.049 0,0.018 -0.004,0.033 -0.013,0.046 -0.009,0.013 -0.019,0.022 -0.031,0.027 -0.011,0.005 -0.027,0.007 -0.046,0.007l-0.073 0zm0.049 -0.119l0 0.071 0.013 0c0.018,0 0.032,-0.002 0.04,-0.007 0.008,-0.005 0.012,-0.014 0.012,-0.026 0,-0.025 -0.018,-0.037 -0.055,-0.037l-0.01 0zm0.31 -0.143l0 0.262 -0.049 0 0 -0.106 -0.012 0 -0.053 0.106 -0.054 0 0.059 -0.114c-0.034,-0.01 -0.051,-0.033 -0.051,-0.069 0,-0.013 0.002,-0.024 0.005,-0.033 0.004,-0.009 0.009,-0.018 0.015,-0.024 0.007,-0.007 0.014,-0.011 0.023,-0.015 0.009,-0.003 0.016,-0.005 0.021,-0.005 0.005,-0 0.02,-0.001 0.043,-0.002l0.052 0zm-0.049 0.108l0 -0.059 -0.014 0c-0.012,0 -0.021,0.001 -0.027,0.002 -0.005,0.001 -0.01,0.005 -0.013,0.01 -0.003,0.005 -0.005,0.011 -0.005,0.018 0,0.011 0.003,0.018 0.01,0.023 0.007,0.004 0.018,0.006 0.033,0.006l0.016 0zm0.277 0.154l-0.072 -0.192 -0.073 0.192 -0.053 0 0.101 -0.262 0.05 0 0.1 0.262 -0.053 0z"/>
   <path class="fil0" d="M0.054 0c0.006,0 0.011,0.002 0.015,0.006 0.004,0.004 0.006,0.009 0.006,0.015 0,0.006 -0.002,0.011 -0.006,0.016 -0.004,0.004 -0.009,0.006 -0.015,0.006 -0.006,0 -0.011,-0.002 -0.015,-0.006 -0.004,-0.004 -0.006,-0.009 -0.006,-0.016 0,-0.006 0.002,-0.011 0.006,-0.015 0.004,-0.004 0.009,-0.006 0.015,-0.006zm0.08 0c0.006,0 0.011,0.002 0.015,0.006 0.004,0.004 0.006,0.009 0.006,0.015 0,0.006 -0.002,0.011 -0.006,0.016 -0.004,0.004 -0.009,0.006 -0.015,0.006 -0.006,0 -0.011,-0.002 -0.015,-0.006 -0.004,-0.004 -0.006,-0.009 -0.006,-0.016 0,-0.006 0.002,-0.011 0.006,-0.015 0.004,-0.004 0.009,-0.006 0.015,-0.006z"/>
  </g>
 </g>
</svg>
