<?xml version="1.0" encoding="UTF-8"?>
<!DOCTYPE svg PUBLIC "-//W3C//DTD SVG 1.1//EN" "http://www.w3.org/Graphics/SVG/1.1/DTD/svg11.dtd">
<!-- Creator: CorelDRAW 2019 (64-Bit) -->
<svg xmlns="http://www.w3.org/2000/svg" xml:space="preserve" width="0.90948cm" height="0.90817cm" version="1.1" style="shape-rendering:geometricPrecision; text-rendering:geometricPrecision; image-rendering:optimizeQuality; fill-rule:evenodd; clip-rule:evenodd"
viewBox="0 0 1.268 1.266"
 xmlns:xlink="http://www.w3.org/1999/xlink"
 xmlns:xodm="http://www.corel.com/coreldraw/odm/2003">
 <defs>
  <style type="text/css">
   <![CDATA[
    .str0 {stroke:white;stroke-width:0.011;stroke-linejoin:round;stroke-miterlimit:22.9256}
    .fil2 {fill:none}
    .fil0 {fill:#FFFF99}
    .fil1 {fill:#A39F6B;fill-rule:nonzero}
   ]]>
  </style>
   <clipPath id="id0">
    <path d="M1.079 1.26l-1.074 0c0,-0.173 0,-0.346 0,-0.519 0.002,-0.045 0.074,-0.02 0.121,0.022 0.336,0.27 0.405,-0.493 0.001,-0.246 -0.065,0.049 -0.123,0.081 -0.121,0.021l0 -0.529c0.348,0 0.695,0 1.043,0 0.236,0 0.208,-0.045 0.208,0.182 0,0.279 0,0.557 0,0.836 0,0.249 0.054,0.233 -0.178,0.233z"/>
   </clipPath>
 </defs>
 <g id="Слой_x0020_1">
  <metadata id="CorelCorpID_0Corel-Layer"/>
  <path class="fil0" d="M1.079 1.26l-1.074 0c0,-0.173 0,-0.346 0,-0.519 0.002,-0.045 0.074,-0.02 0.121,0.022 0.336,0.27 0.405,-0.493 0.001,-0.246 -0.065,0.049 -0.123,0.081 -0.121,0.021l0 -0.529c0.348,0 0.695,0 1.043,0 0.236,0 0.208,-0.045 0.208,0.182 0,0.279 0,0.557 0,0.836 0,0.249 0.054,0.233 -0.178,0.233z"/>
  <g style="clip-path:url(#id0)">
   <g id="_2229982495296">
    <path id="1" class="fil1" d="M-3.241 0.191c-0.012,0.002 -0.022,0.004 -0.03,0.007 -0.012,0.003 -0.021,0.008 -0.028,0.013 -0.005,0.004 -0.009,0.007 -0.011,0.011 -0.003,0.004 -0.004,0.009 -0.004,0.016 -0.001,-0.006 -0,-0.012 0.002,-0.017 0.002,-0.004 0.006,-0.009 0.011,-0.013 0.007,-0.006 0.017,-0.01 0.029,-0.014 0.02,-0.006 0.041,-0.007 0.063,-0.005 -0.011,0.001 -0.022,0.003 -0.031,0.004zm0.05 -0.026c-0.043,-0.002 -0.078,0.003 -0.105,0.015 -0.028,0.013 -0.041,0.033 -0.04,0.058 0.001,0.014 0.007,0.024 0.016,0.03 0.007,0.005 0.018,0.008 0.032,0.01l0.009 0.001 0.009 0.001c0.007,0.001 0.012,0.001 0.016,0.002 0.011,0.002 0.017,0.007 0.02,0.014 0.001,0.004 -0,0.029 -0.005,0.075 -0.002,0.023 -0.004,0.043 -0.005,0.059 -0.001,0.023 -0.001,0.043 0.001,0.061 0.002,0.026 0.011,0.047 0.025,0.063 0.015,0.017 0.033,0.024 0.054,0.021 0.038,-0.006 0.052,-0.047 0.042,-0.123 -0.006,-0.04 -0.008,-0.075 -0.008,-0.103 -0,-0.03 0.002,-0.048 0.008,-0.053 0.004,-0.003 0.011,-0.005 0.021,-0.005 0.003,0 0.007,0 0.014,0l0.007 0 0.007 -0c0.011,-0 0.02,-0.002 0.027,-0.005 0.009,-0.004 0.014,-0.012 0.017,-0.022 0.004,-0.013 0.002,-0.025 -0.006,-0.037 -0.007,-0.011 -0.018,-0.021 -0.033,-0.03 -0.031,-0.018 -0.072,-0.028 -0.121,-0.031z"/>
    <path id="2" class="fil1" d="M-2.758 0.195c-0.004,0.003 -0.007,0.008 -0.011,0.013 -0.005,0.008 -0.011,0.018 -0.018,0.03l-0.004 0.007 -0.004 0.008c-0.003,0.006 -0.006,0.011 -0.009,0.015 -0.004,0.006 -0.008,0.011 -0.011,0.014 -0.005,0.005 -0.01,0.007 -0.015,0.008 0.005,-0.002 0.009,-0.006 0.013,-0.01 0.003,-0.004 0.006,-0.008 0.009,-0.014 0.002,-0.004 0.005,-0.009 0.008,-0.016l0.009 -0.015c0.007,-0.013 0.014,-0.023 0.019,-0.03 0.004,-0.005 0.008,-0.009 0.012,-0.013 0.006,-0.004 0.011,-0.007 0.015,-0.006 -0.005,0.001 -0.009,0.004 -0.014,0.009zm-0.17 0.259c-0.004,0.003 -0.008,0.006 -0.011,0.009 -0.008,0.006 -0.014,0.013 -0.019,0.019 -0.003,0.004 -0.005,0.008 -0.007,0.012 -0.001,0.003 -0.003,0.008 -0.004,0.014 -0,-0.005 0,-0.01 0.001,-0.015 0.001,-0.005 0.003,-0.009 0.006,-0.014 0.004,-0.007 0.01,-0.014 0.019,-0.021 0.006,-0.005 0.013,-0.01 0.022,-0.016l0.006 -0.004 0.006 -0.004c0.004,-0.003 0.008,-0.006 0.011,-0.008 -0.005,0.006 -0.012,0.012 -0.02,0.019l-0.011 0.008zm-0.045 -0.234c-0.003,0.004 -0.005,0.008 -0.006,0.014 -0.001,0.005 -0.002,0.01 -0.002,0.016 -0.002,-0.005 -0.003,-0.011 -0.002,-0.017 0.001,-0.006 0.002,-0.011 0.006,-0.016 0.003,-0.005 0.008,-0.009 0.012,-0.011 0.005,-0.003 0.01,-0.003 0.016,-0.002 -0.01,0.002 -0.018,0.008 -0.024,0.016zm0.229 -0.056c-0.011,-0 -0.021,0.005 -0.032,0.016 -0.008,0.008 -0.016,0.02 -0.026,0.036l-0.006 0.01 -0.003 0.005 -0.002 0.005c-0.004,0.008 -0.007,0.013 -0.01,0.017 -0.007,0.011 -0.012,0.017 -0.016,0.017 -0.004,0 -0.012,-0.008 -0.025,-0.023l-0.002 -0.003 -0.002 -0.003c-0.002,-0.002 -0.003,-0.004 -0.005,-0.006 -0.004,-0.004 -0.007,-0.008 -0.01,-0.012 -0.009,-0.009 -0.017,-0.018 -0.025,-0.025 -0.013,-0.012 -0.027,-0.017 -0.041,-0.017 -0.013,0 -0.024,0.005 -0.034,0.014 -0.01,0.009 -0.016,0.021 -0.018,0.035 -0.002,0.015 0.001,0.03 0.009,0.045 0.006,0.011 0.014,0.022 0.025,0.034 0.004,0.005 0.009,0.01 0.015,0.015l0.007 0.007 0.007 0.007c0.012,0.012 0.021,0.02 0.025,0.026 0.007,0.009 0.011,0.017 0.012,0.024 0.001,0.007 -0.004,0.015 -0.012,0.023 -0.003,0.003 -0.008,0.006 -0.014,0.011l-0.004 0.003 -0.004 0.003 -0.008 0.006c-0.014,0.01 -0.024,0.02 -0.03,0.029 -0.01,0.013 -0.015,0.027 -0.015,0.043 -0,0.012 0.002,0.023 0.006,0.034 0.005,0.01 0.011,0.019 0.02,0.025 0.02,0.014 0.044,0.017 0.074,0.007 0.039,-0.013 0.079,-0.05 0.118,-0.11 0.035,-0.054 0.058,-0.106 0.068,-0.155 0.01,-0.05 0.011,-0.087 0.002,-0.112 -0.008,-0.02 -0.022,-0.03 -0.042,-0.03z"/>
    <path id="3" class="fil1" d="M-2.349 0.228c0.002,-0.005 0.005,-0.01 0.008,-0.015 0.004,-0.005 0.008,-0.009 0.012,-0.011 0.005,-0.003 0.01,-0.004 0.015,-0.003 -0.005,0.001 -0.009,0.003 -0.013,0.007 -0.004,0.003 -0.007,0.007 -0.01,0.011 -0.003,0.004 -0.005,0.008 -0.008,0.013l-0.004 0.007 -0.004 0.007c0.001,-0.005 0.002,-0.01 0.004,-0.016zm-0.105 -0.039c-0.002,0.001 -0.003,0.001 -0.005,0.002 -0.003,0.002 -0.006,0.004 -0.008,0.007 -0.003,0.004 -0.006,0.012 -0.009,0.022 -0.001,-0.004 -0.001,-0.009 -0,-0.013 0.001,-0.005 0.002,-0.009 0.005,-0.012 0.003,-0.004 0.007,-0.006 0.011,-0.008 0.002,-0.001 0.004,-0.001 0.006,-0.001 0.002,0 0.004,0 0.006,0.001l-0.003 0.001 -0.003 0.001zm-0.095 0.178c-0.002,0.002 -0.005,0.004 -0.009,0.007l-0.004 0.003 -0.004 0.003c-0.012,0.007 -0.023,0.015 -0.033,0.024 -0.01,0.009 -0.019,0.019 -0.028,0.03 -0.008,0.011 -0.015,0.024 -0.02,0.037 0.001,-0.007 0.004,-0.014 0.007,-0.021 0.003,-0.007 0.007,-0.013 0.01,-0.019 0.007,-0.011 0.016,-0.022 0.028,-0.032 0.011,-0.01 0.023,-0.017 0.034,-0.023l0.005 -0.002 0.005 -0.002c0.003,-0.002 0.006,-0.004 0.008,-0.006 0.006,-0.005 0.009,-0.011 0.01,-0.018 0,0.007 -0.002,0.014 -0.008,0.02zm-0.068 -0.153c-0.002,0.004 -0.004,0.009 -0.005,0.014 -0.001,0.004 -0.001,0.009 -0.002,0.016 -0.004,-0.011 -0.004,-0.022 0.002,-0.033 0.003,-0.005 0.007,-0.009 0.011,-0.012 0.005,-0.003 0.01,-0.004 0.015,-0.003 -0.01,0.002 -0.017,0.008 -0.023,0.017zm0.281 0.135c-0.008,-0.004 -0.01,-0.008 -0.007,-0.012 0.001,-0.001 0.007,-0.006 0.019,-0.013 0.006,-0.004 0.01,-0.007 0.014,-0.01 0.006,-0.004 0.01,-0.009 0.015,-0.014 0.011,-0.013 0.019,-0.027 0.023,-0.044 0.004,-0.016 0.004,-0.031 -0.001,-0.045 -0.005,-0.013 -0.012,-0.022 -0.023,-0.028 -0.011,-0.006 -0.022,-0.007 -0.033,-0.003 -0.013,0.005 -0.024,0.015 -0.033,0.031 -0.007,0.012 -0.012,0.026 -0.016,0.042 -0.002,0.011 -0.005,0.019 -0.009,0.023 -0.003,0.004 -0.005,0.002 -0.005,-0.006 0,-0.036 -0.006,-0.062 -0.017,-0.08 -0.011,-0.018 -0.027,-0.025 -0.049,-0.023 -0.007,0.001 -0.013,0.003 -0.019,0.007 -0.007,0.005 -0.012,0.011 -0.015,0.018 -0.009,0.019 -0.008,0.043 0.003,0.073 0.003,0.007 0.003,0.012 0.001,0.014 -0.002,0.002 -0.006,0 -0.012,-0.004 -0.014,-0.011 -0.029,-0.03 -0.043,-0.058 -0.009,-0.018 -0.021,-0.03 -0.034,-0.037 -0.012,-0.006 -0.024,-0.006 -0.036,-0.001 -0.011,0.005 -0.02,0.014 -0.026,0.026 -0.007,0.013 -0.008,0.028 -0.005,0.044 0.003,0.018 0.01,0.033 0.022,0.047 0.008,0.01 0.019,0.019 0.033,0.029 0.002,0.001 0.004,0.003 0.007,0.005l0.003 0.002 0.004 0.002c0.005,0.003 0.008,0.006 0.009,0.007 0.004,0.005 0.003,0.009 -0.005,0.013 -0.041,0.021 -0.07,0.05 -0.088,0.086 -0.008,0.017 -0.013,0.034 -0.013,0.051 -0.001,0.018 0.003,0.034 0.011,0.048 0.007,0.013 0.017,0.022 0.028,0.027 0.011,0.005 0.023,0.006 0.036,0.002 0.013,-0.004 0.025,-0.012 0.035,-0.024 0.011,-0.014 0.019,-0.031 0.025,-0.052 0.009,-0.035 0.019,-0.057 0.03,-0.065 0.004,-0.003 0.007,-0.003 0.01,-0.001 0.002,0.002 0.003,0.006 0.002,0.011l-0 0.001 -0 0.001c-0,0.001 -0,0.002 -0,0.003 -0,0.002 -0.001,0.005 -0.001,0.007 -0.001,0.006 -0.002,0.012 -0.003,0.018 -0.002,0.017 -0.003,0.032 -0.002,0.046 0.002,0.041 0.016,0.063 0.042,0.066 0.02,0.002 0.036,-0.006 0.049,-0.025 0.013,-0.018 0.02,-0.044 0.023,-0.077 0.001,-0.01 0.003,-0.013 0.006,-0.011 0.001,0.001 0.002,0.003 0.003,0.005 0.001,0.002 0.002,0.004 0.002,0.006 0.001,0.004 0.002,0.007 0.003,0.011 0.006,0.023 0.015,0.041 0.026,0.055 0.01,0.013 0.021,0.021 0.034,0.025 0.012,0.004 0.024,0.003 0.035,-0.002 0.011,-0.005 0.021,-0.014 0.028,-0.027 0.008,-0.014 0.012,-0.03 0.012,-0.048 -0,-0.017 -0.004,-0.034 -0.012,-0.052 -0.017,-0.037 -0.045,-0.067 -0.086,-0.089z"/>
    <path id="4" class="fil1" d="M-1.863 0.195c-0.004,0.003 -0.007,0.008 -0.011,0.013 -0.005,0.008 -0.011,0.018 -0.018,0.03l-0.004 0.007 -0.004 0.008c-0.003,0.006 -0.006,0.011 -0.009,0.015 -0.004,0.006 -0.008,0.011 -0.011,0.014 -0.005,0.005 -0.01,0.007 -0.015,0.008 0.005,-0.002 0.009,-0.006 0.013,-0.01 0.003,-0.004 0.006,-0.008 0.009,-0.014 0.002,-0.004 0.005,-0.009 0.008,-0.016l0.009 -0.015c0.007,-0.013 0.014,-0.023 0.019,-0.03 0.004,-0.005 0.008,-0.009 0.012,-0.013 0.006,-0.004 0.011,-0.007 0.015,-0.006 -0.005,0.001 -0.009,0.004 -0.014,0.009zm-0.17 0.259c-0.004,0.003 -0.008,0.006 -0.011,0.009 -0.008,0.006 -0.014,0.013 -0.019,0.019 -0.003,0.004 -0.005,0.008 -0.007,0.012 -0.001,0.003 -0.003,0.008 -0.004,0.014 -0,-0.005 0,-0.01 0.001,-0.015 0.001,-0.005 0.003,-0.009 0.006,-0.014 0.004,-0.007 0.01,-0.014 0.019,-0.021 0.006,-0.005 0.013,-0.01 0.022,-0.016l0.006 -0.004 0.006 -0.004c0.004,-0.003 0.008,-0.006 0.011,-0.008 -0.005,0.006 -0.012,0.012 -0.02,0.019l-0.011 0.008zm-0.045 -0.234c-0.003,0.004 -0.005,0.008 -0.006,0.014 -0.001,0.005 -0.002,0.01 -0.002,0.016 -0.002,-0.005 -0.003,-0.011 -0.002,-0.017 0.001,-0.006 0.002,-0.011 0.006,-0.016 0.003,-0.005 0.008,-0.009 0.012,-0.011 0.005,-0.003 0.01,-0.003 0.016,-0.002 -0.01,0.002 -0.018,0.008 -0.024,0.016zm0.229 -0.056c-0.011,0 -0.021,0.005 -0.032,0.016 -0.008,0.008 -0.016,0.02 -0.026,0.036l-0.006 0.01 -0.003 0.005 -0.002 0.005c-0.004,0.008 -0.007,0.013 -0.01,0.017 -0.007,0.011 -0.012,0.017 -0.016,0.017 -0.004,0 -0.012,-0.008 -0.025,-0.023l-0.002 -0.003 -0.002 -0.003c-0.002,-0.002 -0.003,-0.004 -0.005,-0.006 -0.004,-0.004 -0.007,-0.008 -0.01,-0.012 -0.009,-0.009 -0.017,-0.018 -0.025,-0.025 -0.013,-0.012 -0.027,-0.017 -0.041,-0.017 -0.013,-0 -0.024,0.005 -0.034,0.014 -0.01,0.009 -0.016,0.021 -0.018,0.035 -0.002,0.015 0.001,0.03 0.009,0.045 0.006,0.011 0.014,0.022 0.025,0.034 0.004,0.005 0.009,0.01 0.015,0.015l0.007 0.007 0.007 0.007c0.012,0.012 0.021,0.02 0.025,0.026 0.007,0.009 0.011,0.017 0.012,0.024 0.001,0.007 -0.004,0.015 -0.012,0.023 -0.003,0.003 -0.008,0.006 -0.014,0.011l-0.004 0.003 -0.004 0.003 -0.008 0.006c-0.014,0.01 -0.024,0.02 -0.03,0.029 -0.01,0.013 -0.015,0.027 -0.015,0.043 -0,0.012 0.002,0.023 0.006,0.034 0.005,0.01 0.011,0.019 0.02,0.025 0.02,0.014 0.044,0.017 0.074,0.007 0.039,-0.013 0.079,-0.05 0.118,-0.11 0.035,-0.054 0.058,-0.106 0.068,-0.155 0.01,-0.05 0.011,-0.087 0.002,-0.112 -0.008,-0.02 -0.022,-0.03 -0.042,-0.03z"/>
    <path id="5" class="fil1" d="M-1.478 0.193c-0.004,0.003 -0.008,0.007 -0.013,0.013 -0.006,0.008 -0.013,0.018 -0.022,0.031l-0.005 0.008 -0.005 0.008c-0.004,0.006 -0.008,0.011 -0.012,0.015 -0.005,0.005 -0.01,0.009 -0.015,0.011 -0.006,0.003 -0.012,0.004 -0.018,0.004 0.011,-0.001 0.021,-0.007 0.03,-0.018 0.004,-0.004 0.007,-0.009 0.011,-0.015l0.005 -0.008 0.005 -0.008c0.009,-0.014 0.016,-0.024 0.023,-0.031 0.005,-0.006 0.01,-0.01 0.014,-0.012 0.006,-0.003 0.012,-0.005 0.018,-0.004 -0.006,0.001 -0.012,0.003 -0.016,0.007zm-0.214 0.026c-0.006,0.009 -0.012,0.019 -0.018,0.033 -0.004,0.008 -0.009,0.02 -0.014,0.035 -0.002,0.006 -0.004,0.012 -0.006,0.018l-0.003 0.009 -0.003 0.009c0.005,-0.027 0.012,-0.052 0.022,-0.074 0.006,-0.014 0.013,-0.025 0.02,-0.033 0.004,-0.005 0.009,-0.009 0.014,-0.012 0.006,-0.003 0.011,-0.005 0.017,-0.005 -0.01,0.001 -0.02,0.008 -0.029,0.02zm0.323 0.142c-0.002,-0.057 -0.012,-0.104 -0.028,-0.141 -0.016,-0.034 -0.034,-0.053 -0.056,-0.056 -0.016,-0.002 -0.031,0.002 -0.044,0.014 -0.01,0.009 -0.023,0.026 -0.039,0.052 -0.014,0.022 -0.025,0.032 -0.035,0.03 -0.007,-0.001 -0.015,-0.01 -0.024,-0.026 -0.011,-0.019 -0.022,-0.032 -0.032,-0.042 -0.013,-0.011 -0.026,-0.017 -0.04,-0.015 -0.037,0.004 -0.067,0.051 -0.089,0.141 -0.014,0.058 -0.02,0.11 -0.018,0.156 0.003,0.052 0.018,0.081 0.044,0.087 0.015,0.003 0.029,-0.001 0.04,-0.012 0.009,-0.009 0.017,-0.023 0.025,-0.042 0.003,-0.006 0.005,-0.014 0.009,-0.024l0.002 -0.006 0.002 -0.006c0.001,-0.004 0.003,-0.008 0.003,-0.011 0.006,-0.015 0.01,-0.024 0.015,-0.025 0.003,-0.001 0.007,0.002 0.01,0.009 0.001,0.002 0.003,0.006 0.004,0.011l0.001 0.003 0.001 0.003 0.002 0.007c0.005,0.012 0.009,0.021 0.015,0.027 0.007,0.008 0.016,0.013 0.026,0.013 0.008,0 0.015,-0.003 0.022,-0.01 0.005,-0.004 0.01,-0.011 0.016,-0.021l0.003 -0.005 0.003 -0.005c0.002,-0.004 0.004,-0.007 0.006,-0.009 0.005,-0.005 0.009,-0.007 0.013,-0.006 0.004,0.002 0.009,0.009 0.013,0.023 0.001,0.003 0.002,0.006 0.003,0.009l0.002 0.005 0.002 0.005c0.003,0.009 0.005,0.016 0.007,0.022 0.006,0.018 0.013,0.031 0.021,0.041 0.01,0.012 0.022,0.019 0.036,0.019 0.024,0.001 0.04,-0.019 0.05,-0.061 0.009,-0.036 0.012,-0.088 0.01,-0.154z"/>
    <path id="6" class="fil1" d="M-1.161 0.448c-0.004,0.005 -0.008,0.009 -0.012,0.012 -0.005,0.003 -0.01,0.004 -0.015,0.004 0.01,-0.004 0.018,-0.01 0.024,-0.019 0.005,-0.008 0.009,-0.018 0.011,-0.03 0.003,0.012 0,0.023 -0.007,0.033zm-0.055 -0.029c-0.001,-0.007 0,-0.014 0.003,-0.02 0.003,-0.006 0.008,-0.009 0.013,-0.01 0.006,-0.001 0.011,0.001 0.016,0.006 0.005,0.004 0.008,0.01 0.009,0.018 0.001,0.007 0,0.014 -0.003,0.02 -0.003,0.006 -0.008,0.009 -0.013,0.01 -0.006,0.001 -0.011,-0.001 -0.016,-0.005 -0.005,-0.004 -0.008,-0.01 -0.009,-0.018zm-0.014 -0.221c-0.014,0.006 -0.026,0.014 -0.036,0.025 -0.01,0.01 -0.019,0.022 -0.027,0.037l-0.003 0.005 -0.003 0.005 -0.005 0.011 -0.004 0.011 -0.004 0.011c0.003,-0.016 0.008,-0.031 0.015,-0.046 0.007,-0.015 0.016,-0.028 0.027,-0.039 0.012,-0.012 0.025,-0.02 0.038,-0.025 0.007,-0.003 0.014,-0.004 0.022,-0.005l0.006 -0.001 0.006 -0 0.011 0c-0.016,0.001 -0.03,0.005 -0.043,0.01zm0.089 -0.027c-0.055,-0.015 -0.1,-0.005 -0.137,0.029 -0.032,0.03 -0.052,0.073 -0.06,0.129 -0.008,0.054 -0.002,0.104 0.018,0.15 0.021,0.05 0.052,0.081 0.095,0.094 0.04,0.012 0.078,0.001 0.114,-0.034 0.032,-0.031 0.056,-0.074 0.069,-0.127 0.014,-0.055 0.014,-0.104 -0.001,-0.147 -0.017,-0.049 -0.05,-0.08 -0.098,-0.093z"/>
    <path id="7" class="fil1" d="M-0.798 0.211c-0.005,0.006 -0.009,0.013 -0.014,0.021 -0.008,0.014 -0.015,0.03 -0.022,0.046l-0.004 0.012 -0.004 0.012c-0.004,0.011 -0.006,0.019 -0.009,0.024 -0.004,0.011 -0.008,0.018 -0.012,0.023 -0.003,0.004 -0.007,0.006 -0.01,0.008 -0.003,0.001 -0.007,0.002 -0.012,0.001 0.005,-0 0.009,-0.001 0.012,-0.003 0.003,-0.002 0.006,-0.005 0.009,-0.008 0.003,-0.005 0.007,-0.012 0.01,-0.023l0.004 -0.012 0.004 -0.013c0.003,-0.01 0.006,-0.018 0.008,-0.025 0.007,-0.018 0.014,-0.033 0.023,-0.046 0.012,-0.017 0.023,-0.029 0.035,-0.036 -0.007,0.005 -0.012,0.011 -0.018,0.017zm-0.176 0.067c-0.002,0.011 -0.005,0.026 -0.007,0.042l-0.002 0.021 -0.002 0.021c-0.002,-0.042 0.003,-0.08 0.013,-0.112 0.002,-0.006 0.004,-0.012 0.006,-0.018 0.003,-0.007 0.006,-0.013 0.009,-0.018 0.009,-0.013 0.018,-0.019 0.029,-0.018 -0.014,0.001 -0.025,0.012 -0.033,0.032 -0.003,0.007 -0.006,0.016 -0.009,0.026 -0.001,0.004 -0.002,0.008 -0.003,0.013l-0.001 0.006 -0.001 0.003 -0.001 0.003zm0.244 -0.103c-0.022,-0.014 -0.044,-0.013 -0.066,0.004 -0.018,0.013 -0.035,0.035 -0.049,0.065 -0.005,0.01 -0.009,0.021 -0.013,0.034 -0.002,0.005 -0.003,0.01 -0.005,0.016l-0.002 0.007 -0.001 0.004 -0.001 0.003c-0.003,0.011 -0.006,0.018 -0.008,0.022 -0.003,0.006 -0.005,0.008 -0.008,0.008 -0.004,-0 -0.007,-0.004 -0.007,-0.011 -0,-0.007 0.001,-0.022 0.004,-0.045 0.006,-0.042 0.003,-0.072 -0.008,-0.089 -0.009,-0.014 -0.022,-0.019 -0.041,-0.017 -0.023,0.004 -0.041,0.027 -0.054,0.07 -0.013,0.042 -0.018,0.093 -0.016,0.153 0.003,0.11 0.033,0.17 0.09,0.178 0.017,0.002 0.033,-0.002 0.05,-0.013 0.016,-0.01 0.029,-0.024 0.04,-0.043 0.009,-0.016 0.017,-0.031 0.024,-0.044 0.002,-0.005 0.005,-0.01 0.007,-0.015 0.002,-0.004 0.003,-0.007 0.005,-0.011 0.003,-0.007 0.005,-0.011 0.006,-0.013 0.001,-0.002 0.003,-0.003 0.005,-0.002 0.002,0.001 0.003,0.009 0.001,0.024l-0.001 0.005 -0.001 0.006c-0.001,0.005 -0.001,0.009 -0.001,0.012 -0.001,0.01 -0.001,0.019 -0.002,0.026 -0.001,0.047 0.014,0.07 0.046,0.07 0.02,-0 0.036,-0.019 0.048,-0.057 0.01,-0.034 0.015,-0.076 0.015,-0.127 0,-0.05 -0.005,-0.096 -0.014,-0.136 -0.01,-0.044 -0.024,-0.071 -0.042,-0.083zm-0.141 -0.049c0.009,-0.001 0.018,-0.003 0.025,-0.006 0.008,-0.003 0.016,-0.008 0.022,-0.013 0.001,-0.001 0.003,-0.003 0.005,-0.005l0.005 -0.005 0.002 -0.003c0.001,-0.001 0.002,-0.002 0.003,-0.002 0.001,-0 0.002,-0.001 0.003,-0.001l0.002 0 0.002 0 -0.002 0 -0.002 0c-0.001,0 -0.002,0.001 -0.003,0.001 -0.001,0.001 -0.001,0.001 -0.002,0.002l-0.002 0.003c-0.003,0.005 -0.006,0.008 -0.009,0.011 -0.003,0.003 -0.006,0.006 -0.011,0.009 -0.003,0.002 -0.007,0.004 -0.012,0.006 -0.008,0.003 -0.017,0.005 -0.026,0.005l-0.007 0 -0.006 -0c-0.006,-0 -0.01,0 -0.012,0.002 0.001,-0.002 0.003,-0.003 0.006,-0.003l0.003 -0.001 0.003 -0.001 0.013 -0.001zm0.099 -0.02c0,-0.013 -0.004,-0.022 -0.012,-0.029 -0.008,-0.007 -0.017,-0.009 -0.027,-0.007 -0.007,0.002 -0.013,0.006 -0.018,0.013l-0.003 0.004c-0.001,0.001 -0.002,0.003 -0.004,0.004 -0.003,0.003 -0.006,0.006 -0.01,0.007 -0.006,0.003 -0.011,0.005 -0.018,0.006 -0.002,0 -0.005,0.001 -0.008,0.001l-0.004 0 -0.004 0c-0.012,0 -0.022,0.003 -0.028,0.007 -0.006,0.005 -0.01,0.011 -0.01,0.02 -0.001,0.007 0.001,0.014 0.005,0.021 0.006,0.011 0.017,0.019 0.032,0.022 0.015,0.003 0.031,0.003 0.048,-0.002 0.017,-0.005 0.032,-0.013 0.043,-0.024 0.012,-0.012 0.018,-0.027 0.018,-0.044z"/>
    <path id="8" class="fil1" d="M-0.612 0.485c-0.005,0.006 -0.009,0.013 -0.012,0.023 -0.001,-0.01 0.002,-0.019 0.009,-0.027 0.003,-0.004 0.007,-0.007 0.011,-0.008 0.005,-0.002 0.009,-0.002 0.013,-0.001 -0.008,0.002 -0.015,0.007 -0.021,0.013zm0.02 -0.037c-0.013,0 -0.025,0.006 -0.035,0.017 -0.01,0.011 -0.016,0.024 -0.018,0.04 -0.001,0.011 -0,0.021 0.003,0.031 0.003,0.01 0.008,0.018 0.015,0.026 0.005,0.005 0.006,0.014 0.004,0.026l-0.001 0.003 -0.001 0.004c-0,0.002 -0.001,0.005 -0.001,0.006 -0,0.004 0,0.008 0.002,0.01 0.004,0.005 0.011,0.007 0.02,0.004 0.008,-0.003 0.017,-0.009 0.026,-0.018 0.022,-0.022 0.034,-0.047 0.038,-0.077 0.002,-0.02 -0.002,-0.037 -0.012,-0.051 -0.01,-0.014 -0.023,-0.021 -0.039,-0.021z"/>
    <path id="9" class="fil1" d="M-3.145 1.06c-0.003,0.007 -0.007,0.011 -0.013,0.014 -0.006,0.003 -0.012,0.005 -0.018,0.003 0.006,-0.001 0.011,-0.003 0.016,-0.007 0.005,-0.004 0.008,-0.008 0.011,-0.014 0.005,-0.01 0.005,-0.022 0.003,-0.036 0.003,0.006 0.005,0.012 0.005,0.019 0,0.007 -0.001,0.014 -0.004,0.02zm-0.049 -0.017c-0.003,-0.006 -0.004,-0.011 -0.003,-0.017 0.001,-0.006 0.003,-0.009 0.006,-0.012 0.004,-0.002 0.008,-0.002 0.012,0 0.005,0.002 0.009,0.006 0.012,0.012 0.003,0.006 0.004,0.011 0.003,0.017 -0.001,0.006 -0.003,0.01 -0.006,0.012 -0.004,0.002 -0.008,0.002 -0.012,0 -0.005,-0.002 -0.009,-0.006 -0.012,-0.012zm-0.023 -0.12c0.004,-0.001 0.008,-0.003 0.012,-0.005 0.004,-0.003 0.007,-0.005 0.01,-0.008 0.003,-0.003 0.005,-0.006 0.008,-0.011 0.002,-0.004 0.004,-0.008 0.005,-0.012 0.001,0.01 -0.002,0.019 -0.009,0.027 -0.004,0.004 -0.007,0.006 -0.012,0.008 -0.005,0.002 -0.009,0.002 -0.013,0.001zm-0.006 -0.041c0.002,-0.004 0.005,-0.007 0.008,-0.008 0.003,-0.002 0.006,-0.002 0.008,0 0.002,0.001 0.004,0.004 0.004,0.008 0,0.004 -0,0.007 -0.002,0.011 -0.002,0.004 -0.004,0.007 -0.008,0.008 -0.003,0.002 -0.006,0.002 -0.008,0 -0.002,-0.001 -0.004,-0.004 -0.004,-0.008 -0,-0.004 0,-0.007 0.002,-0.011zm-0.045 -0.051c-0.004,0.005 -0.009,0.011 -0.013,0.018 -0.007,0.011 -0.013,0.024 -0.019,0.04 -0.004,0.012 -0.009,0.027 -0.012,0.044 0.001,-0.015 0.004,-0.03 0.009,-0.045 0.004,-0.015 0.011,-0.029 0.018,-0.042 0.009,-0.014 0.019,-0.025 0.03,-0.032 0.007,-0.004 0.014,-0.008 0.02,-0.009 0.007,-0.002 0.014,-0.002 0.021,-0.002 -0.015,0.001 -0.027,0.006 -0.039,0.015 -0.006,0.004 -0.011,0.009 -0.016,0.014zm0.114 0.11c-0.003,-0.001 -0.004,-0.004 -0.002,-0.009 0.001,-0.002 0.002,-0.005 0.004,-0.008l0.001 -0.002 0.001 -0.003c0.001,-0.002 0.002,-0.004 0.003,-0.006 0.005,-0.01 0.008,-0.02 0.01,-0.03 0.003,-0.014 0.003,-0.028 0.001,-0.042 -0.002,-0.016 -0.011,-0.03 -0.025,-0.041 -0.015,-0.011 -0.031,-0.017 -0.05,-0.018 -0.021,-0.001 -0.04,0.006 -0.058,0.019 -0.02,0.015 -0.036,0.039 -0.048,0.07 -0.012,0.032 -0.019,0.068 -0.02,0.106 -0.001,0.039 0.004,0.075 0.015,0.107 0.012,0.035 0.029,0.063 0.052,0.082 0.025,0.021 0.056,0.03 0.092,0.028 0.034,-0.002 0.062,-0.015 0.082,-0.036 0.019,-0.02 0.029,-0.044 0.03,-0.073 0.002,-0.029 -0.005,-0.056 -0.02,-0.082 -0.016,-0.028 -0.039,-0.048 -0.069,-0.061z"/>
    <path id="10" class="fil1" d="M-2.853 1.035c-0.004,0.003 -0.007,0.005 -0.011,0.006 -0.004,0.001 -0.009,0.001 -0.013,0 0.008,-0.002 0.015,-0.006 0.021,-0.011 0.005,-0.004 0.01,-0.011 0.016,-0.019 -0.001,0.009 -0.006,0.017 -0.013,0.023zm-0.029 -0.016c-0.004,-0.002 -0.007,-0.006 -0.008,-0.011 -0.001,-0.005 -0.001,-0.011 0.001,-0.017 0.002,-0.006 0.005,-0.01 0.01,-0.013 0.004,-0.003 0.009,-0.003 0.013,-0.002 0.004,0.002 0.007,0.005 0.008,0.011 0.001,0.005 0.001,0.011 -0.001,0.017 -0.002,0.006 -0.005,0.01 -0.01,0.013 -0.004,0.003 -0.009,0.003 -0.013,0.002zm-0.043 -0.155c-0.007,0.01 -0.015,0.023 -0.024,0.04 -0.003,0.006 -0.007,0.013 -0.011,0.021l-0.011 0.021c0.005,-0.014 0.011,-0.029 0.019,-0.044 0.007,-0.014 0.015,-0.028 0.024,-0.041 0.01,-0.015 0.02,-0.028 0.029,-0.037l0.004 -0.004c0.002,-0.002 0.003,-0.003 0.004,-0.004l0.005 -0.004 0.005 -0.003c0.008,-0.005 0.016,-0.007 0.021,-0.007 -0.006,0.001 -0.013,0.004 -0.02,0.009l-0.004 0.003 -0.004 0.004c-0.001,0.001 -0.003,0.002 -0.004,0.004l-0.004 0.004c-0.009,0.01 -0.018,0.023 -0.028,0.037zm0.07 -0.083c-0.023,-0.004 -0.049,0.013 -0.078,0.052 -0.026,0.035 -0.049,0.079 -0.07,0.132 -0.02,0.053 -0.032,0.101 -0.036,0.142 -0.004,0.046 0.004,0.072 0.024,0.081 0.015,0.006 0.03,0.006 0.044,-0.001 0.011,-0.005 0.022,-0.014 0.034,-0.028 0.002,-0.003 0.005,-0.006 0.007,-0.009l0.007 -0.009c0.006,-0.007 0.01,-0.013 0.013,-0.016 0.009,-0.011 0.017,-0.016 0.024,-0.016 0.007,0 0.015,0.005 0.024,0.015 0.003,0.003 0.007,0.008 0.013,0.015l0.007 0.008 0.007 0.008c0.012,0.013 0.023,0.022 0.033,0.026 0.013,0.006 0.026,0.006 0.039,-0 0.015,-0.008 0.024,-0.032 0.026,-0.074 0.002,-0.039 -0.002,-0.083 -0.012,-0.132 -0.01,-0.052 -0.024,-0.095 -0.042,-0.13 -0.02,-0.04 -0.042,-0.061 -0.065,-0.065z"/>
    <path id="11" class="fil1" d="M-2.476 0.808c-0.002,0.001 -0.005,0.003 -0.007,0.006 -0.003,0.004 -0.005,0.01 -0.007,0.018 -0.002,0.011 -0.003,0.025 -0.002,0.041l-0 0.005 0 0.005c0,0.004 0,0.008 -0,0.011 -0.001,0.008 -0.002,0.015 -0.005,0.021 -0.003,0.007 -0.007,0.013 -0.011,0.018 -0.005,0.005 -0.011,0.008 -0.017,0.01 0.012,-0.006 0.02,-0.016 0.025,-0.03 0.002,-0.007 0.003,-0.013 0.004,-0.02 0,-0.003 0,-0.006 0,-0.01l-0 -0.005 0 -0.006c-0,-0.017 0.001,-0.031 0.003,-0.042 0.002,-0.009 0.005,-0.015 0.009,-0.02 0.003,-0.003 0.005,-0.005 0.008,-0.006 0.003,-0.001 0.006,-0.001 0.01,-0.001 -0.004,0.001 -0.007,0.001 -0.009,0.003zm-0.179 0.007c-0.006,0.007 -0.011,0.016 -0.014,0.026 -0.003,0.009 -0.005,0.019 -0.008,0.031l-0.003 0.015 -0.003 0.016c0,-0.022 0.004,-0.043 0.01,-0.063 0.004,-0.011 0.009,-0.021 0.016,-0.028 0.004,-0.004 0.008,-0.007 0.013,-0.009 0.005,-0.002 0.01,-0.003 0.015,-0.002 -0.009,0.001 -0.018,0.006 -0.025,0.014zm0.187 -0.032c-0.018,0.001 -0.031,0.01 -0.038,0.026 -0.007,0.016 -0.01,0.041 -0.009,0.074 0.001,0.015 -0.002,0.026 -0.009,0.033 -0.005,0.006 -0.012,0.009 -0.021,0.008 -0.009,-0.001 -0.015,-0.005 -0.02,-0.012 -0.004,-0.007 -0.006,-0.017 -0.005,-0.029 0.003,-0.034 0,-0.059 -0.009,-0.076 -0.009,-0.015 -0.023,-0.024 -0.042,-0.028 -0.016,-0.003 -0.03,0.001 -0.043,0.012 -0.012,0.01 -0.021,0.025 -0.027,0.043 -0.011,0.036 -0.017,0.078 -0.017,0.127 -0.001,0.047 0.004,0.092 0.013,0.135 0.007,0.032 0.018,0.054 0.033,0.068 0.012,0.011 0.026,0.016 0.042,0.014 0.034,-0.005 0.049,-0.032 0.046,-0.081 -0.002,-0.036 0.004,-0.053 0.021,-0.053 0.008,0 0.014,0.003 0.019,0.01 0.006,0.009 0.008,0.022 0.007,0.041 -0.002,0.032 0.003,0.056 0.014,0.073 0.01,0.016 0.024,0.023 0.043,0.023 0.031,0 0.053,-0.021 0.066,-0.064 0.009,-0.031 0.015,-0.082 0.017,-0.153 0.002,-0.055 -0.005,-0.1 -0.019,-0.137 -0.015,-0.038 -0.035,-0.056 -0.06,-0.055z"/>
    <path id="12" class="fil1" d="M-2.185 1.067c-0.003,0.005 -0.007,0.009 -0.013,0.012 -0.005,0.003 -0.011,0.003 -0.016,0.002 0.011,-0.002 0.019,-0.008 0.025,-0.017 0.003,-0.004 0.004,-0.009 0.006,-0.015 0.001,-0.005 0.001,-0.011 0.001,-0.017 0.002,0.006 0.003,0.011 0.002,0.018 -0,0.006 -0.002,0.012 -0.005,0.017zm-0.047 -0.022c-0.003,-0.006 -0.004,-0.011 -0.003,-0.016 0.001,-0.006 0.003,-0.009 0.007,-0.011 0.004,-0.002 0.008,-0.002 0.012,0.001 0.005,0.002 0.008,0.007 0.011,0.012 0.003,0.006 0.004,0.011 0.003,0.017 -0.001,0.005 -0.003,0.009 -0.007,0.011 -0.004,0.002 -0.008,0.002 -0.012,-0.001 -0.005,-0.002 -0.008,-0.007 -0.011,-0.012zm-0.025 -0.239c-0.003,0.002 -0.007,0.004 -0.011,0.008 -0.006,0.006 -0.012,0.012 -0.018,0.02 -0.004,0.006 -0.01,0.014 -0.016,0.023 -0.002,0.003 -0.005,0.007 -0.007,0.012l-0.007 0.012c0.004,-0.011 0.007,-0.02 0.011,-0.027 0.004,-0.009 0.009,-0.018 0.015,-0.025 0.007,-0.009 0.013,-0.015 0.02,-0.02 0.009,-0.007 0.018,-0.01 0.026,-0.009 -0.004,0.001 -0.008,0.002 -0.012,0.005zm0.069 0.139c-0.009,-0.003 -0.015,-0.008 -0.017,-0.016 -0.002,-0.006 -0.002,-0.015 -0,-0.026 0,-0.002 0.001,-0.005 0.001,-0.008l0.001 -0.008c0.001,-0.007 0.002,-0.013 0.003,-0.018 0.002,-0.015 0.003,-0.028 0.001,-0.039 -0.002,-0.016 -0.007,-0.029 -0.017,-0.038 -0.009,-0.01 -0.021,-0.014 -0.034,-0.012 -0.014,0.001 -0.028,0.009 -0.042,0.024 -0.016,0.016 -0.031,0.039 -0.044,0.07 -0.013,0.031 -0.022,0.065 -0.026,0.102 -0.004,0.038 -0.002,0.073 0.006,0.104 0.009,0.035 0.023,0.062 0.044,0.081 0.023,0.021 0.052,0.032 0.088,0.032 0.034,-0 0.062,-0.011 0.084,-0.033 0.02,-0.02 0.032,-0.045 0.037,-0.074 0.004,-0.03 -0.001,-0.057 -0.015,-0.082 -0.015,-0.027 -0.039,-0.046 -0.07,-0.057z"/>
    <path id="13" class="fil1" d="M-1.778 0.808c-0.004,0.003 -0.008,0.007 -0.013,0.013 -0.006,0.008 -0.013,0.018 -0.022,0.031l-0.005 0.008 -0.005 0.008c-0.004,0.006 -0.008,0.011 -0.012,0.015 -0.005,0.005 -0.01,0.009 -0.015,0.011 -0.006,0.003 -0.012,0.004 -0.018,0.004 0.011,-0.001 0.021,-0.007 0.03,-0.018 0.004,-0.004 0.007,-0.009 0.011,-0.015l0.005 -0.008 0.005 -0.008c0.009,-0.014 0.016,-0.024 0.023,-0.031 0.005,-0.006 0.01,-0.01 0.014,-0.012 0.006,-0.003 0.012,-0.005 0.018,-0.004 -0.006,0.001 -0.012,0.003 -0.016,0.007zm-0.214 0.026c-0.006,0.009 -0.012,0.019 -0.018,0.033 -0.004,0.008 -0.009,0.02 -0.014,0.035 -0.002,0.006 -0.004,0.012 -0.006,0.018l-0.003 0.009 -0.003 0.009c0.005,-0.027 0.012,-0.052 0.022,-0.074 0.006,-0.014 0.013,-0.025 0.02,-0.033 0.004,-0.005 0.009,-0.009 0.014,-0.012 0.006,-0.003 0.011,-0.005 0.017,-0.005 -0.01,0.001 -0.02,0.008 -0.029,0.02zm0.323 0.142c-0.002,-0.057 -0.012,-0.104 -0.028,-0.141 -0.016,-0.034 -0.034,-0.053 -0.056,-0.056 -0.016,-0.002 -0.031,0.002 -0.044,0.014 -0.01,0.009 -0.023,0.026 -0.039,0.052 -0.014,0.022 -0.025,0.032 -0.035,0.03 -0.007,-0.001 -0.015,-0.01 -0.024,-0.026 -0.011,-0.019 -0.022,-0.032 -0.032,-0.042 -0.013,-0.011 -0.026,-0.017 -0.04,-0.015 -0.037,0.004 -0.067,0.051 -0.089,0.141 -0.014,0.058 -0.02,0.11 -0.018,0.156 0.003,0.052 0.018,0.081 0.044,0.087 0.015,0.003 0.029,-0.001 0.04,-0.012 0.009,-0.009 0.017,-0.023 0.025,-0.042 0.003,-0.006 0.005,-0.014 0.009,-0.024l0.002 -0.006 0.002 -0.006c0.001,-0.004 0.003,-0.008 0.003,-0.011 0.006,-0.015 0.011,-0.024 0.015,-0.025 0.003,-0.001 0.007,0.002 0.01,0.009 0.001,0.002 0.003,0.006 0.004,0.011l0.001 0.003 0.001 0.003 0.002 0.007c0.005,0.012 0.009,0.021 0.015,0.027 0.007,0.008 0.016,0.013 0.026,0.013 0.008,0 0.015,-0.003 0.022,-0.01 0.005,-0.004 0.01,-0.011 0.016,-0.021l0.003 -0.005 0.003 -0.005c0.002,-0.004 0.004,-0.007 0.006,-0.009 0.005,-0.005 0.009,-0.007 0.013,-0.006 0.004,0.002 0.009,0.009 0.013,0.023 0.001,0.003 0.002,0.006 0.003,0.009l0.002 0.005 0.002 0.005c0.003,0.009 0.005,0.016 0.007,0.022 0.006,0.018 0.013,0.031 0.021,0.041 0.01,0.012 0.022,0.019 0.036,0.019 0.024,0.001 0.04,-0.019 0.05,-0.061 0.009,-0.036 0.012,-0.088 0.01,-0.154z"/>
    <path id="14" class="fil1" d="M-1.465 1.067c-0.003,0.005 -0.007,0.009 -0.013,0.012 -0.005,0.003 -0.011,0.003 -0.016,0.002 0.011,-0.002 0.019,-0.008 0.025,-0.017 0.003,-0.004 0.004,-0.009 0.006,-0.015 0.001,-0.005 0.001,-0.011 0.001,-0.017 0.002,0.006 0.003,0.011 0.002,0.018 -0,0.006 -0.002,0.012 -0.005,0.017zm-0.047 -0.022c-0.003,-0.006 -0.004,-0.011 -0.003,-0.016 0.001,-0.006 0.003,-0.009 0.007,-0.011 0.004,-0.002 0.008,-0.002 0.012,0.001 0.005,0.002 0.008,0.006 0.011,0.012 0.003,0.006 0.004,0.011 0.003,0.017 -0.001,0.005 -0.003,0.009 -0.007,0.011 -0.004,0.002 -0.008,0.002 -0.012,-0.001 -0.005,-0.002 -0.008,-0.007 -0.011,-0.012zm-0.025 -0.239c-0.003,0.002 -0.007,0.004 -0.011,0.008 -0.006,0.006 -0.012,0.012 -0.018,0.02 -0.005,0.006 -0.01,0.014 -0.016,0.023 -0.002,0.003 -0.005,0.007 -0.007,0.012l-0.007 0.012c0.004,-0.011 0.007,-0.02 0.011,-0.027 0.004,-0.009 0.009,-0.018 0.015,-0.025 0.007,-0.009 0.013,-0.015 0.02,-0.02 0.009,-0.007 0.018,-0.01 0.026,-0.009 -0.004,0.001 -0.008,0.002 -0.012,0.005zm0.069 0.139c-0.009,-0.003 -0.015,-0.008 -0.017,-0.016 -0.002,-0.006 -0.002,-0.015 -0,-0.026 0,-0.002 0.001,-0.005 0.001,-0.008l0.001 -0.008c0.001,-0.007 0.002,-0.013 0.003,-0.018 0.002,-0.015 0.003,-0.028 0.001,-0.039 -0.002,-0.016 -0.008,-0.029 -0.017,-0.038 -0.009,-0.01 -0.021,-0.014 -0.034,-0.012 -0.014,0.001 -0.028,0.009 -0.042,0.024 -0.016,0.016 -0.031,0.039 -0.044,0.07 -0.013,0.031 -0.022,0.065 -0.026,0.102 -0.004,0.038 -0.002,0.073 0.006,0.104 0.009,0.035 0.023,0.062 0.044,0.081 0.023,0.021 0.052,0.032 0.088,0.032 0.034,-0 0.062,-0.011 0.084,-0.033 0.02,-0.02 0.033,-0.045 0.037,-0.074 0.004,-0.03 -0.001,-0.057 -0.015,-0.082 -0.015,-0.027 -0.039,-0.046 -0.07,-0.057zm0.111 -0.133c-0.003,0.003 -0.005,0.006 -0.007,0.011 -0.001,0.004 -0.002,0.009 -0.002,0.014 -0,0.007 0,0.017 0.002,0.029l0.003 0.014 0.002 0.014c-0.004,-0.01 -0.007,-0.019 -0.009,-0.028 -0.003,-0.011 -0.004,-0.021 -0.003,-0.03 0.001,-0.006 0.002,-0.011 0.003,-0.015 0.002,-0.006 0.005,-0.01 0.009,-0.013 0.007,-0.006 0.016,-0.008 0.026,-0.007 -0.01,0.001 -0.018,0.005 -0.024,0.011zm0.093 0.016c-0.007,-0.015 -0.017,-0.027 -0.029,-0.036 -0.011,-0.008 -0.022,-0.012 -0.035,-0.013 -0.012,-0.001 -0.022,0.001 -0.032,0.006 -0.01,0.005 -0.017,0.013 -0.022,0.022 -0.009,0.018 -0.008,0.045 0.001,0.079 0.001,0.006 0.003,0.013 0.006,0.022l0.003 0.011 0.003 0.011c0.005,0.018 0.008,0.032 0.009,0.044 0.003,0.028 0.004,0.057 0.004,0.086 -0,0.009 -0.001,0.021 -0.001,0.033l-0 0.007 -0 0.007c-0,0.005 -0.001,0.01 -0.001,0.013 -0.001,0.018 0,0.031 0.003,0.039 0.003,0.009 0.01,0.015 0.02,0.018 0.019,0.005 0.037,-0.006 0.052,-0.033 0.014,-0.024 0.024,-0.057 0.032,-0.1 0.007,-0.041 0.01,-0.081 0.008,-0.121 -0.002,-0.042 -0.008,-0.074 -0.019,-0.097z"/>
    <path id="15" class="fil1" d="M-1.079 0.954c-0.005,0.004 -0.011,0.008 -0.019,0.011 -0.008,0.003 -0.014,0.006 -0.018,0.008 -0.007,0.005 -0.01,0.01 -0.011,0.017 -0.001,-0.004 0,-0.007 0.002,-0.011 0.002,-0.003 0.004,-0.006 0.007,-0.009 0.004,-0.004 0.011,-0.007 0.019,-0.01 0.007,-0.002 0.012,-0.005 0.018,-0.009 0.006,-0.004 0.011,-0.01 0.014,-0.015 -0.002,0.007 -0.006,0.013 -0.012,0.019zm-0.075 0.13c-0.009,-0.001 -0.017,-0.001 -0.023,-0.001 -0.005,0 -0.008,0.002 -0.01,0.003 -0.001,0.001 -0.002,0.002 -0.003,0.004l-0.001 0.003 -0.001 0.003c0,-0.003 0,-0.005 0,-0.006 0,-0.003 0.001,-0.005 0.003,-0.006 0.002,-0.002 0.006,-0.004 0.011,-0.005 0.006,-0.001 0.014,-0.001 0.024,-0 0.006,0.001 0.014,0.002 0.023,0.003l0.011 0.002 0.012 0.002c-0.007,0.001 -0.014,0.001 -0.023,0l-0.012 -0.001 -0.011 -0.001zm0.018 -0.268c-0.011,0.005 -0.02,0.01 -0.027,0.014 -0.004,0.003 -0.008,0.006 -0.012,0.009 -0.004,0.003 -0.007,0.007 -0.011,0.011 -0.007,0.009 -0.011,0.019 -0.011,0.029 -0.001,-0.005 -0.001,-0.011 0,-0.017 0.001,-0.005 0.004,-0.01 0.007,-0.015 0.005,-0.008 0.013,-0.015 0.023,-0.022 0.018,-0.011 0.037,-0.018 0.058,-0.021 -0.01,0.003 -0.019,0.007 -0.029,0.011zm0.167 0.202c-0.005,-0.007 -0.01,-0.013 -0.016,-0.018 -0.004,-0.004 -0.009,-0.007 -0.014,-0.011l-0.003 -0.002 -0.003 -0.002c-0.002,-0.001 -0.003,-0.002 -0.005,-0.003 -0.003,-0.002 -0.004,-0.005 -0.005,-0.007 -0,-0.003 0.002,-0.007 0.006,-0.012 0.002,-0.002 0.004,-0.004 0.007,-0.007l0.002 -0.002 0.002 -0.002 0.005 -0.005c0.008,-0.008 0.014,-0.015 0.018,-0.022 0.006,-0.01 0.01,-0.02 0.011,-0.031 0.004,-0.028 -0.001,-0.052 -0.016,-0.072 -0.016,-0.021 -0.041,-0.034 -0.074,-0.04 -0.016,-0.003 -0.035,-0.002 -0.055,0.001 -0.02,0.004 -0.038,0.01 -0.055,0.019 -0.018,0.01 -0.032,0.021 -0.042,0.034 -0.011,0.015 -0.015,0.03 -0.013,0.047 0.005,0.042 0.037,0.054 0.097,0.036 0.01,-0.003 0.018,-0.004 0.024,-0.003 0.005,0.001 0.009,0.003 0.01,0.006 0.001,0.003 -0,0.006 -0.004,0.01 -0.004,0.004 -0.01,0.007 -0.017,0.01 -0.028,0.01 -0.041,0.026 -0.04,0.049 0.001,0.011 0.004,0.021 0.011,0.028 0.008,0.008 0.018,0.012 0.03,0.011 0.013,-0 0.02,0.004 0.024,0.012 0.001,0.003 0.001,0.007 -0,0.01 -0.001,0.004 -0.004,0.006 -0.008,0.009 -0.006,0.003 -0.016,0.004 -0.031,0.003 -0.003,-0 -0.006,-0.001 -0.01,-0.001l-0.01 -0.001c-0.008,-0.001 -0.015,-0.002 -0.02,-0.002 -0.015,-0.001 -0.027,0.001 -0.035,0.005 -0.01,0.006 -0.016,0.016 -0.017,0.031 -0.001,0.017 0.006,0.034 0.022,0.05 0.015,0.015 0.035,0.027 0.06,0.036 0.025,0.009 0.05,0.012 0.074,0.011 0.027,-0.002 0.048,-0.01 0.065,-0.024 0.024,-0.02 0.037,-0.045 0.039,-0.076 0.002,-0.028 -0.004,-0.053 -0.018,-0.074z"/>
    <path id="16" class="fil1" d="M-0.495 0.812c-0.004,0.005 -0.008,0.013 -0.01,0.022 -0.001,0.007 -0.002,0.015 -0.003,0.026l0 0.007 -0 0.007c0,0.005 -0,0.01 -0,0.013l-0.002 -0.013c-0.001,-0.005 -0.001,-0.01 -0.001,-0.014 -0,-0.009 0,-0.018 0.002,-0.027 0.002,-0.011 0.006,-0.019 0.012,-0.025 0.003,-0.003 0.007,-0.005 0.011,-0.007 0.004,-0.001 0.008,-0.001 0.012,-0.001 -0.009,0.001 -0.016,0.005 -0.021,0.01zm-0.027 0.208c-0.004,0.004 -0.008,0.006 -0.012,0.007 -0.005,0.002 -0.009,0.002 -0.013,0.001 0.009,-0.002 0.016,-0.006 0.021,-0.012 0.004,-0.004 0.009,-0.011 0.014,-0.022 -0,0.01 -0.004,0.019 -0.011,0.026zm-0.1 -0.181c-0.002,0.003 -0.004,0.006 -0.005,0.009 -0.002,0.003 -0.003,0.007 -0.004,0.01 -0.002,0.006 -0.003,0.013 -0.005,0.022 -0.001,0.007 -0.002,0.015 -0.003,0.023 -0.003,-0.016 -0.002,-0.031 0.003,-0.046 0.003,-0.009 0.006,-0.016 0.011,-0.021 0.003,-0.003 0.006,-0.005 0.009,-0.007 0.004,-0.001 0.007,-0.001 0.011,-0.001 -0.007,0.001 -0.013,0.004 -0.017,0.01zm-0.034 0.185c-0.003,0.003 -0.007,0.005 -0.01,0.006 -0.004,0.001 -0.008,0.001 -0.011,0 0.008,-0.002 0.014,-0.006 0.019,-0.01 0.002,-0.002 0.005,-0.004 0.007,-0.008l0.004 -0.005 0.003 -0.005c-0.001,0.009 -0.004,0.016 -0.011,0.022zm-0.093 -0.208c-0.006,0.004 -0.011,0.009 -0.016,0.016 -0.008,0.011 -0.015,0.025 -0.02,0.041 -0.004,0.012 -0.008,0.027 -0.011,0.046 -0.002,0.013 -0.003,0.029 -0.004,0.047 -0.001,-0.016 -0.001,-0.031 0.001,-0.048 0.002,-0.017 0.005,-0.033 0.01,-0.047 0.005,-0.017 0.013,-0.031 0.022,-0.042 0.005,-0.007 0.011,-0.012 0.017,-0.016 0.007,-0.004 0.014,-0.006 0.021,-0.006 -0.007,0.001 -0.014,0.003 -0.02,0.008zm0.278 -0.036c-0.02,-0.001 -0.035,0.006 -0.046,0.021 -0.011,0.016 -0.016,0.04 -0.014,0.072 0.003,0.051 0.004,0.087 0.001,0.106 -0.003,0.019 -0.01,0.027 -0.02,0.027 -0.011,-0.001 -0.014,-0.033 -0.01,-0.096 0.002,-0.034 -0.001,-0.06 -0.009,-0.078 -0.008,-0.017 -0.02,-0.025 -0.037,-0.025 -0.019,-0 -0.034,0.011 -0.043,0.032 -0.008,0.018 -0.012,0.04 -0.011,0.066 0.003,0.069 -0.003,0.103 -0.019,0.103 -0.007,0 -0.012,-0.006 -0.015,-0.019 -0.004,-0.016 -0.004,-0.04 0.001,-0.071 0.012,-0.084 0.002,-0.128 -0.032,-0.131 -0.013,-0.001 -0.026,0.003 -0.037,0.011 -0.012,0.008 -0.023,0.021 -0.032,0.039 -0.02,0.039 -0.029,0.091 -0.025,0.156 0.003,0.055 0.014,0.098 0.033,0.13 0.014,0.023 0.033,0.041 0.058,0.053 0.026,0.013 0.066,0.019 0.122,0.018 0.061,-0.001 0.105,-0.012 0.132,-0.033 0.025,-0.019 0.042,-0.049 0.053,-0.09 0.004,-0.015 0.007,-0.03 0.009,-0.048 0.001,-0.006 0.001,-0.013 0.002,-0.02 0,-0.003 0,-0.005 0.001,-0.008l0 -0.004 0 -0.003c0.005,-0.066 0.002,-0.116 -0.007,-0.15 -0.01,-0.036 -0.028,-0.054 -0.055,-0.056z"/>
    <path id="17" class="fil1" d="M-0.2 1.063c-0.004,0.005 -0.008,0.009 -0.012,0.012 -0.005,0.003 -0.01,0.004 -0.015,0.004 0.01,-0.004 0.018,-0.01 0.024,-0.019 0.005,-0.008 0.009,-0.018 0.011,-0.03 0.003,0.012 0,0.023 -0.007,0.033zm-0.055 -0.029c-0.001,-0.007 0,-0.014 0.003,-0.02 0.003,-0.006 0.008,-0.009 0.013,-0.01 0.006,-0.001 0.011,0.001 0.016,0.006 0.005,0.004 0.008,0.01 0.009,0.018 0.001,0.007 0,0.014 -0.003,0.02 -0.003,0.006 -0.008,0.009 -0.013,0.01 -0.006,0.001 -0.011,-0.001 -0.016,-0.005 -0.005,-0.004 -0.008,-0.01 -0.009,-0.018zm-0.014 -0.221c-0.014,0.006 -0.026,0.014 -0.036,0.025 -0.01,0.01 -0.019,0.022 -0.027,0.037l-0.003 0.005 -0.003 0.005 -0.005 0.011 -0.004 0.011 -0.004 0.011c0.003,-0.016 0.008,-0.031 0.015,-0.046 0.007,-0.015 0.016,-0.028 0.027,-0.039 0.012,-0.012 0.025,-0.02 0.038,-0.025 0.007,-0.003 0.014,-0.004 0.022,-0.006l0.006 -0.001 0.006 -0 0.011 0c-0.016,0.001 -0.03,0.005 -0.043,0.01zm0.089 -0.027c-0.055,-0.015 -0.1,-0.005 -0.137,0.029 -0.032,0.03 -0.052,0.073 -0.06,0.129 -0.008,0.054 -0.002,0.104 0.018,0.15 0.021,0.05 0.052,0.081 0.095,0.094 0.04,0.012 0.078,0.001 0.114,-0.034 0.032,-0.031 0.056,-0.074 0.069,-0.127 0.014,-0.055 0.014,-0.104 -0.001,-0.147 -0.017,-0.049 -0.05,-0.08 -0.098,-0.093z"/>
    <path id="18" class="fil1" d="M0.188 0.809c-0.002,0.001 -0.005,0.003 -0.007,0.006 -0.003,0.004 -0.005,0.01 -0.007,0.018 -0.002,0.011 -0.003,0.025 -0.002,0.041l0 0.005 0 0.005c0,0.004 0,0.008 -0,0.011 -0.001,0.008 -0.002,0.015 -0.005,0.021 -0.003,0.007 -0.007,0.013 -0.011,0.018 -0.005,0.005 -0.011,0.008 -0.017,0.01 0.012,-0.006 0.02,-0.016 0.025,-0.03 0.002,-0.007 0.003,-0.013 0.004,-0.02 0,-0.003 0,-0.006 0,-0.01l-0 -0.005 0 -0.006c-0,-0.017 0.001,-0.031 0.003,-0.042 0.002,-0.009 0.005,-0.015 0.009,-0.02 0.003,-0.003 0.005,-0.005 0.008,-0.006 0.003,-0.001 0.006,-0.001 0.01,-0.001 -0.004,0.001 -0.007,0.001 -0.009,0.003zm-0.179 0.007c-0.006,0.007 -0.011,0.016 -0.014,0.026 -0.003,0.009 -0.005,0.019 -0.008,0.031l-0.003 0.015 -0.003 0.016c0,-0.022 0.004,-0.043 0.01,-0.063 0.004,-0.011 0.009,-0.021 0.016,-0.028 0.004,-0.004 0.008,-0.007 0.013,-0.009 0.005,-0.002 0.01,-0.003 0.015,-0.002 -0.009,0.001 -0.018,0.006 -0.025,0.014zm0.187 -0.032c-0.018,0.001 -0.031,0.01 -0.038,0.026 -0.007,0.016 -0.01,0.041 -0.009,0.074 0.001,0.015 -0.002,0.026 -0.009,0.033 -0.005,0.006 -0.012,0.009 -0.021,0.008 -0.009,-0.001 -0.015,-0.005 -0.02,-0.012 -0.004,-0.007 -0.006,-0.017 -0.005,-0.029 0.003,-0.034 0,-0.059 -0.009,-0.076 -0.009,-0.015 -0.023,-0.024 -0.042,-0.028 -0.016,-0.003 -0.03,0.001 -0.043,0.012 -0.012,0.01 -0.021,0.025 -0.027,0.043 -0.011,0.036 -0.017,0.078 -0.017,0.127 -0.001,0.047 0.004,0.092 0.013,0.135 0.007,0.032 0.018,0.054 0.033,0.068 0.012,0.011 0.026,0.016 0.042,0.014 0.034,-0.005 0.049,-0.032 0.046,-0.081 -0.002,-0.036 0.004,-0.053 0.021,-0.053 0.008,0 0.014,0.003 0.019,0.01 0.006,0.009 0.008,0.022 0.007,0.041 -0.002,0.032 0.003,0.056 0.014,0.073 0.01,0.016 0.024,0.023 0.043,0.023 0.031,0 0.053,-0.021 0.066,-0.064 0.009,-0.031 0.015,-0.082 0.017,-0.153 0.002,-0.055 -0.005,-0.1 -0.019,-0.137 -0.015,-0.038 -0.035,-0.056 -0.06,-0.055z"/>
    <path id="19" class="fil1" d="M0.48 1.073l-0.004 0.001c-0.003,0.001 -0.006,0.002 -0.008,0.002 -0.006,0.002 -0.012,0.002 -0.017,0.001 0.006,-0.001 0.011,-0.003 0.016,-0.005l0.004 -0.002 0.004 -0.001c0.003,-0.002 0.006,-0.003 0.008,-0.003 0.006,-0.002 0.011,-0.003 0.016,-0.004 0.006,-0.001 0.012,-0.001 0.017,0 -0.009,0.002 -0.02,0.005 -0.032,0.009l-0.004 0.001zm-0.076 -0.268c-0.008,0.002 -0.015,0.006 -0.022,0.01 -0.008,0.005 -0.014,0.01 -0.019,0.016 -0.005,0.005 -0.01,0.012 -0.014,0.02 -0.006,0.012 -0.012,0.029 -0.017,0.049 -0.002,0.008 -0.004,0.017 -0.005,0.026 -0.001,0.004 -0.001,0.008 -0.002,0.013l-0.002 0.013c0,-0.018 0.002,-0.036 0.005,-0.053 0.004,-0.019 0.009,-0.036 0.016,-0.05 0.005,-0.009 0.01,-0.016 0.015,-0.022 0.007,-0.006 0.013,-0.011 0.021,-0.015 0.007,-0.004 0.015,-0.007 0.023,-0.008 0.009,-0.002 0.017,-0.002 0.024,-0.002 -0.009,0.001 -0.017,0.002 -0.024,0.004zm0.051 0.153l0.002 -0.001c0.002,-0.001 0.003,-0.001 0.005,-0.001 0.004,-0 0.007,-0 0.009,0 0.004,0.001 0.006,0.003 0.008,0.005 -0.002,-0.001 -0.005,-0.001 -0.008,-0.001 -0.003,0 -0.005,0 -0.008,0.001l-0.002 0 -0.002 0c-0.002,0 -0.003,0.001 -0.004,0.001 -0.003,0 -0.006,-0 -0.009,-0.001l0.004 -0.001 0.004 -0.001 0.002 -0.001zm0.012 0.093c-0.009,0.004 -0.017,0.004 -0.023,0.002 -0.005,-0.002 -0.009,-0.006 -0.011,-0.012 -0.002,-0.006 -0.001,-0.011 0.002,-0.016 0.003,-0.005 0.008,-0.008 0.014,-0.009 0.019,-0.002 0.033,-0.007 0.042,-0.016 0.008,-0.008 0.012,-0.019 0.012,-0.032 -0.001,-0.012 -0.006,-0.021 -0.016,-0.027 -0.01,-0.006 -0.022,-0.007 -0.036,-0.003 -0.012,0.003 -0.019,-0 -0.023,-0.01 -0.001,-0.004 -0.001,-0.009 -0,-0.013 0.001,-0.005 0.004,-0.008 0.007,-0.011 0.005,-0.004 0.013,-0.007 0.023,-0.008 0.004,-0.001 0.008,-0.001 0.014,-0.001l0.007 -0 0.007 -0.001c0.012,-0.001 0.021,-0.003 0.027,-0.006 0.009,-0.004 0.015,-0.01 0.019,-0.019 0.006,-0.015 0.004,-0.031 -0.008,-0.046 -0.011,-0.015 -0.026,-0.026 -0.047,-0.035 -0.022,-0.009 -0.044,-0.012 -0.066,-0.009 -0.025,0.003 -0.047,0.014 -0.064,0.032 -0.016,0.017 -0.029,0.043 -0.037,0.079 -0.007,0.033 -0.011,0.07 -0.009,0.11 0.002,0.04 0.007,0.076 0.017,0.107 0.01,0.033 0.024,0.056 0.041,0.068 0.016,0.012 0.037,0.017 0.06,0.016 0.022,-0.001 0.044,-0.006 0.066,-0.017 0.022,-0.01 0.04,-0.023 0.053,-0.039 0.015,-0.017 0.022,-0.033 0.022,-0.05 0,-0.022 -0.008,-0.036 -0.024,-0.043 -0.017,-0.007 -0.04,-0.005 -0.07,0.008z"/>
    <path id="20" class="fil1" d="M0.765 0.951c-0.002,0.006 -0.005,0.011 -0.009,0.015 -0.004,0.005 -0.009,0.008 -0.013,0.01 -0.006,0.002 -0.011,0.003 -0.016,0.002 0.005,-0.001 0.01,-0.003 0.014,-0.006 0.004,-0.003 0.008,-0.006 0.011,-0.01 0.007,-0.007 0.012,-0.017 0.015,-0.028 0.001,0.006 -0,0.011 -0.002,0.017zm-0.048 -0.025c0.003,-0.006 0.006,-0.01 0.011,-0.012 0.005,-0.003 0.009,-0.003 0.012,-0.001 0.004,0.002 0.006,0.006 0.007,0.011 0.001,0.006 -0,0.011 -0.003,0.017 -0.003,0.006 -0.006,0.01 -0.011,0.012 -0.005,0.002 -0.009,0.003 -0.012,0.001 -0.004,-0.002 -0.006,-0.006 -0.007,-0.011 -0.001,-0.006 0,-0.011 0.003,-0.017zm-0.041 -0.114c-0.012,0.006 -0.022,0.014 -0.031,0.024 -0.008,0.009 -0.015,0.021 -0.021,0.035 -0.005,0.011 -0.009,0.024 -0.013,0.04 0.001,-0.006 0.002,-0.013 0.003,-0.021 0.002,-0.007 0.004,-0.014 0.006,-0.021 0.005,-0.014 0.012,-0.026 0.021,-0.037 0.01,-0.011 0.021,-0.019 0.033,-0.025 0.006,-0.003 0.013,-0.005 0.019,-0.006 0.007,-0.001 0.014,-0.002 0.02,-0.002 -0.015,0.002 -0.027,0.006 -0.038,0.012zm0.05 -0.034c-0.036,-0 -0.065,0.01 -0.088,0.032 -0.021,0.019 -0.035,0.046 -0.044,0.081 -0.008,0.032 -0.01,0.066 -0.006,0.104 0.004,0.037 0.012,0.071 0.026,0.102 0.013,0.03 0.028,0.054 0.044,0.07 0.014,0.014 0.028,0.022 0.043,0.024 0.013,0.001 0.024,-0.003 0.033,-0.012 0.009,-0.01 0.015,-0.022 0.017,-0.039 0.001,-0.011 0.001,-0.024 -0.001,-0.038 -0.001,-0.004 -0.002,-0.01 -0.003,-0.017l-0.001 -0.008c-0.001,-0.003 -0.001,-0.005 -0.001,-0.007 -0.002,-0.011 -0.001,-0.02 0.001,-0.026 0.002,-0.008 0.008,-0.014 0.016,-0.018 0.029,-0.015 0.05,-0.036 0.065,-0.064 0.014,-0.026 0.019,-0.053 0.016,-0.082 -0.003,-0.029 -0.014,-0.052 -0.034,-0.071 -0.021,-0.02 -0.048,-0.03 -0.082,-0.031z"/>
   </g>
  </g>
  <path class="fil2 str0" d="M1.079 1.26l-1.074 0c0,-0.173 0,-0.346 0,-0.519 0.002,-0.045 0.074,-0.02 0.121,0.022 0.336,0.27 0.405,-0.493 0.001,-0.246 -0.065,0.049 -0.123,0.081 -0.121,0.021l0 -0.529c0.348,0 0.695,0 1.043,0 0.236,0 0.208,-0.045 0.208,0.182 0,0.279 0,0.557 0,0.836 0,0.249 0.054,0.233 -0.178,0.233z"/>
 </g>
</svg>
