<?xml version="1.0" encoding="UTF-8"?>
<!DOCTYPE svg PUBLIC "-//W3C//DTD SVG 1.1//EN" "http://www.w3.org/Graphics/SVG/1.1/DTD/svg11.dtd">
<!-- Creator: CorelDRAW 2019 (64-Bit) -->
<svg xmlns="http://www.w3.org/2000/svg" xml:space="preserve" width="0.91097cm" height="0.90596cm" version="1.1" style="shape-rendering:geometricPrecision; text-rendering:geometricPrecision; image-rendering:optimizeQuality; fill-rule:evenodd; clip-rule:evenodd"
viewBox="0 0 1.044 1.038"
 xmlns:xlink="http://www.w3.org/1999/xlink"
 xmlns:xodm="http://www.corel.com/coreldraw/odm/2003">
 <defs>
  <style type="text/css">
   <![CDATA[
    .str0 {stroke:white;stroke-width:0.009;stroke-linejoin:round;stroke-miterlimit:22.9256}
    .fil2 {fill:none}
    .fil0 {fill:#FFFF99}
    .fil1 {fill:#A39F6B;fill-rule:nonzero}
   ]]>
  </style>
   <clipPath id="id0">
    <path d="M0.887 1.034l-0.883 0c0,-0.142 0,-0.285 0,-0.427 0.001,-0.037 0.061,-0.017 0.099,0.018 0.276,0.222 0.333,-0.406 0,-0.202 -0.053,0.04 -0.101,0.067 -0.1,0.017l0 -0.435c0.286,0 0.572,0 0.858,0 0.166,-0.005 0.168,0.019 0.171,0.15 0.006,0.229 0.01,0.458 0,0.687 -0.008,0.18 -0.014,0.192 -0.146,0.192z"/>
   </clipPath>
 </defs>
 <g id="Слой_x0020_1">
  <metadata id="CorelCorpID_0Corel-Layer"/>
  <path class="fil0" d="M0.887 1.034l-0.883 0c0,-0.142 0,-0.285 0,-0.427 0.001,-0.037 0.061,-0.017 0.099,0.018 0.276,0.222 0.333,-0.406 0,-0.202 -0.053,0.04 -0.101,0.067 -0.1,0.017l0 -0.435c0.286,0 0.572,0 0.858,0 0.166,-0.005 0.168,0.019 0.171,0.15 0.006,0.229 0.01,0.458 0,0.687 -0.008,0.18 -0.014,0.192 -0.146,0.192z"/>
  <g style="clip-path:url(#id0)">
   <g id="_1963127976912">
    <g>
     <path id="1" class="fil1" d="M-2.309 0.085c-0.004,0.003 -0.008,0.007 -0.012,0.013 -0.006,0.007 -0.012,0.017 -0.021,0.03l-0.005 0.008 -0.005 0.008c-0.004,0.006 -0.008,0.01 -0.012,0.014 -0.005,0.005 -0.01,0.008 -0.014,0.011 -0.006,0.003 -0.012,0.004 -0.017,0.003 0.01,-0.001 0.02,-0.007 0.029,-0.017 0.003,-0.004 0.007,-0.009 0.011,-0.014l0.005 -0.008 0.005 -0.008c0.008,-0.013 0.016,-0.023 0.022,-0.03 0.005,-0.005 0.01,-0.009 0.014,-0.012 0.006,-0.003 0.011,-0.005 0.017,-0.004 -0.006,0.001 -0.011,0.003 -0.016,0.006zm-0.205 0.025c-0.006,0.008 -0.012,0.019 -0.018,0.031 -0.004,0.008 -0.008,0.019 -0.014,0.034 -0.002,0.006 -0.004,0.012 -0.006,0.018l-0.003 0.009 -0.003 0.009c0.005,-0.026 0.012,-0.05 0.021,-0.071 0.006,-0.013 0.013,-0.024 0.019,-0.032 0.004,-0.005 0.008,-0.009 0.014,-0.012 0.005,-0.003 0.011,-0.005 0.017,-0.004 -0.01,0.001 -0.019,0.007 -0.028,0.019zm0.31 0.137c-0.002,-0.055 -0.011,-0.1 -0.027,-0.135 -0.015,-0.033 -0.033,-0.051 -0.054,-0.054 -0.015,-0.002 -0.029,0.002 -0.042,0.013 -0.01,0.009 -0.022,0.025 -0.037,0.05 -0.013,0.021 -0.024,0.031 -0.034,0.029 -0.006,-0.001 -0.014,-0.01 -0.023,-0.025 -0.011,-0.018 -0.021,-0.031 -0.031,-0.04 -0.012,-0.011 -0.025,-0.016 -0.038,-0.015 -0.035,0.004 -0.064,0.049 -0.085,0.135 -0.014,0.055 -0.02,0.105 -0.017,0.149 0.003,0.05 0.017,0.078 0.042,0.084 0.015,0.003 0.027,-0.001 0.038,-0.012 0.008,-0.009 0.016,-0.022 0.024,-0.041 0.002,-0.006 0.005,-0.014 0.008,-0.023l0.002 -0.006 0.002 -0.006c0.001,-0.004 0.002,-0.007 0.003,-0.01 0.005,-0.015 0.01,-0.023 0.014,-0.024 0.003,-0.001 0.006,0.002 0.009,0.009 0.001,0.002 0.002,0.006 0.004,0.011l0.001 0.003 0.001 0.003 0.002 0.007c0.004,0.011 0.009,0.02 0.014,0.026 0.007,0.008 0.015,0.012 0.025,0.012 0.007,0 0.014,-0.003 0.021,-0.009 0.004,-0.004 0.01,-0.011 0.015,-0.02l0.003 -0.005 0.003 -0.005c0.002,-0.004 0.004,-0.007 0.006,-0.009 0.004,-0.005 0.009,-0.007 0.013,-0.005 0.004,0.002 0.008,0.009 0.012,0.022 0.001,0.003 0.002,0.006 0.003,0.009l0.002 0.005 0.001 0.005c0.003,0.009 0.005,0.016 0.007,0.021 0.006,0.017 0.013,0.03 0.02,0.039 0.009,0.012 0.021,0.018 0.034,0.018 0.023,0.001 0.039,-0.019 0.048,-0.058 0.008,-0.035 0.011,-0.084 0.009,-0.148zm0.199 0.082c-0.003,0.005 -0.007,0.009 -0.012,0.011 -0.005,0.003 -0.01,0.004 -0.015,0.004 0.009,-0.004 0.017,-0.01 0.023,-0.018 0.005,-0.008 0.009,-0.017 0.01,-0.029 0.002,0.011 0,0.022 -0.006,0.032zm-0.053 -0.028c-0.001,-0.007 0,-0.013 0.003,-0.019 0.003,-0.006 0.007,-0.009 0.013,-0.01 0.005,-0.001 0.01,0.001 0.015,0.005 0.005,0.004 0.007,0.01 0.008,0.017 0.001,0.007 0,0.013 -0.003,0.019 -0.003,0.006 -0.007,0.009 -0.013,0.01 -0.005,0.001 -0.01,-0.001 -0.015,-0.005 -0.005,-0.004 -0.007,-0.01 -0.008,-0.017zm-0.013 -0.212c-0.013,0.006 -0.025,0.014 -0.035,0.024 -0.009,0.009 -0.018,0.021 -0.026,0.035l-0.003 0.005 -0.003 0.005 -0.005 0.01 -0.004 0.011 -0.004 0.011c0.003,-0.015 0.008,-0.03 0.014,-0.044 0.007,-0.014 0.015,-0.027 0.026,-0.037 0.011,-0.011 0.024,-0.019 0.037,-0.024 0.006,-0.002 0.013,-0.004 0.021,-0.005l0.005 -0.001 0.005 -0 0.011 0c-0.015,0.001 -0.029,0.005 -0.041,0.01zm0.085 -0.025c-0.052,-0.014 -0.096,-0.005 -0.131,0.028 -0.031,0.029 -0.05,0.07 -0.058,0.123 -0.007,0.052 -0.002,0.1 0.017,0.144 0.02,0.048 0.05,0.078 0.091,0.09 0.039,0.011 0.075,0.001 0.109,-0.033 0.031,-0.03 0.053,-0.071 0.067,-0.122 0.014,-0.052 0.013,-0.1 -0.001,-0.141 -0.016,-0.047 -0.048,-0.077 -0.094,-0.089zm0.257 0.017l-0.005 0.001c-0.002,0.001 -0.003,0.001 -0.005,0.002 -0.001,0 -0.003,0.001 -0.004,0.002l-0.002 0.001 -0.002 0.001 -0.004 0.003c-0.002,0.001 -0.003,0.002 -0.004,0.003 -0.01,0.008 -0.019,0.018 -0.027,0.031 -0.007,0.01 -0.014,0.022 -0.021,0.037 -0.005,0.01 -0.01,0.023 -0.016,0.039 0.003,-0.014 0.007,-0.027 0.013,-0.041 0.006,-0.014 0.012,-0.026 0.02,-0.038 0.009,-0.013 0.019,-0.024 0.029,-0.031 0.012,-0.009 0.025,-0.013 0.038,-0.012l-0.01 0.002zm0.156 0.124c-0.016,-0.047 -0.039,-0.084 -0.068,-0.111 -0.029,-0.028 -0.06,-0.039 -0.09,-0.035 -0.026,0.004 -0.05,0.023 -0.071,0.057 -0.021,0.032 -0.036,0.071 -0.045,0.117 -0.011,0.052 -0.012,0.1 -0.005,0.144 0.004,0.022 0.009,0.039 0.017,0.052 0.008,0.014 0.018,0.022 0.03,0.024 0.018,0.003 0.033,-0.004 0.044,-0.021 0.009,-0.013 0.016,-0.034 0.022,-0.062 0.001,-0.005 0.002,-0.011 0.004,-0.018l0.002 -0.009 0.001 -0.009c0.003,-0.015 0.005,-0.025 0.006,-0.031 0.005,-0.021 0.011,-0.032 0.017,-0.033 0.005,-0.001 0.01,0.001 0.014,0.007 0.004,0.005 0.008,0.013 0.012,0.025 0.001,0.004 0.003,0.01 0.006,0.017l0.003 0.009 0.003 0.009c0.005,0.016 0.01,0.029 0.015,0.039 0.012,0.027 0.025,0.045 0.041,0.054 0.014,0.009 0.028,0.009 0.04,0 0.008,-0.006 0.014,-0.016 0.019,-0.03 0.005,-0.014 0.007,-0.031 0.008,-0.051 0.001,-0.045 -0.007,-0.093 -0.026,-0.145zm0.224 0.125c-0.003,0.005 -0.007,0.009 -0.012,0.011 -0.005,0.003 -0.01,0.004 -0.015,0.004 0.009,-0.004 0.017,-0.01 0.023,-0.018 0.005,-0.008 0.009,-0.017 0.01,-0.029 0.002,0.011 0,0.022 -0.006,0.032zm-0.053 -0.028c-0.001,-0.007 0,-0.013 0.003,-0.019 0.003,-0.006 0.007,-0.009 0.013,-0.01 0.005,-0.001 0.01,0.001 0.015,0.005 0.005,0.004 0.007,0.01 0.008,0.017 0.001,0.007 0,0.013 -0.003,0.019 -0.003,0.006 -0.007,0.009 -0.013,0.01 -0.005,0.001 -0.01,-0.001 -0.015,-0.005 -0.005,-0.004 -0.007,-0.01 -0.008,-0.017zm-0.013 -0.212c-0.013,0.006 -0.025,0.014 -0.035,0.024 -0.009,0.009 -0.018,0.021 -0.026,0.035l-0.003 0.005 -0.003 0.005 -0.005 0.01 -0.004 0.011 -0.004 0.011c0.003,-0.015 0.008,-0.03 0.014,-0.044 0.007,-0.014 0.015,-0.027 0.026,-0.037 0.011,-0.011 0.024,-0.019 0.037,-0.024 0.006,-0.002 0.013,-0.004 0.021,-0.005l0.005 -0.001 0.005 -0 0.011 0c-0.015,0.001 -0.029,0.005 -0.041,0.01zm0.085 -0.025c-0.052,-0.014 -0.096,-0.005 -0.131,0.028 -0.031,0.029 -0.05,0.07 -0.058,0.123 -0.007,0.052 -0.002,0.1 0.017,0.144 0.02,0.048 0.05,0.078 0.091,0.09 0.039,0.011 0.075,0.001 0.109,-0.033 0.031,-0.03 0.053,-0.071 0.067,-0.122 0.014,-0.052 0.013,-0.1 -0.001,-0.141 -0.016,-0.047 -0.048,-0.077 -0.094,-0.089zm0.377 0.252c-0.002,0.006 -0.005,0.012 -0.009,0.016 -0.004,0.004 -0.01,0.006 -0.016,0.007 -0.006,0.001 -0.011,0.001 -0.017,0 0.007,-0.002 0.012,-0.003 0.016,-0.004 0.006,-0.002 0.01,-0.005 0.014,-0.007 0.004,-0.003 0.007,-0.008 0.009,-0.013 0.001,-0.004 0.003,-0.01 0.004,-0.017 0.001,0.006 0.001,0.012 0,0.018zm-0.065 -0.007c-0.003,-0.007 -0.002,-0.017 0.003,-0.031 0.006,-0.015 0.012,-0.022 0.018,-0.022 0.008,0 0.015,0.008 0.02,0.023 0.002,0.006 0.003,0.012 0.004,0.018 0,0.006 -0,0.011 -0.002,0.014 -0.003,0.004 -0.01,0.007 -0.021,0.006 -0.011,-0 -0.019,-0.003 -0.022,-0.009zm-0.034 -0.179c-0.007,0.011 -0.014,0.024 -0.02,0.037 -0.005,0.011 -0.01,0.024 -0.016,0.04 0.003,-0.014 0.007,-0.027 0.012,-0.041 0.005,-0.013 0.011,-0.026 0.019,-0.039 0.009,-0.014 0.018,-0.025 0.027,-0.033 0.005,-0.004 0.011,-0.008 0.018,-0.011 0.007,-0.003 0.013,-0.004 0.02,-0.004 -0.012,0.002 -0.023,0.008 -0.035,0.019 -0.009,0.009 -0.017,0.02 -0.025,0.032zm-0.112 0.216c-0.004,0.002 -0.007,0.005 -0.01,0.007 -0.003,0.003 -0.005,0.006 -0.006,0.011 -0.001,-0.005 0.001,-0.009 0.004,-0.014 0.002,-0.003 0.006,-0.006 0.01,-0.009 0.008,-0.004 0.016,-0.007 0.024,-0.006l-0.006 0.003 -0.006 0.003c-0.005,0.002 -0.008,0.004 -0.011,0.005zm0.309 -0.033c-0.007,-0.002 -0.012,-0.005 -0.015,-0.009 -0.003,-0.003 -0.005,-0.009 -0.006,-0.016 -0.001,-0.004 -0.001,-0.012 -0.002,-0.025 -0,-0.006 -0.001,-0.012 -0.001,-0.017 -0.001,-0.007 -0.001,-0.013 -0.002,-0.02 -0.007,-0.055 -0.021,-0.097 -0.041,-0.127 -0.019,-0.028 -0.042,-0.042 -0.068,-0.043 -0.022,-0.001 -0.044,0.012 -0.066,0.039 -0.022,0.027 -0.038,0.062 -0.05,0.104 -0.005,0.017 -0.008,0.034 -0.011,0.052 -0.001,0.003 -0.001,0.006 -0.001,0.01l-0.001 0.005 -0.001 0.004c-0.001,0.007 -0.002,0.012 -0.002,0.015 -0.002,0.009 -0.004,0.015 -0.007,0.019 -0.003,0.004 -0.009,0.008 -0.017,0.009 -0.022,0.005 -0.037,0.014 -0.046,0.026 -0.008,0.011 -0.01,0.024 -0.006,0.04 0.006,0.022 0.029,0.04 0.069,0.053 0.036,0.011 0.081,0.018 0.134,0.02 0.049,0.001 0.087,-0 0.113,-0.005 0.039,-0.007 0.064,-0.021 0.075,-0.042 0.011,-0.02 0.011,-0.038 0.002,-0.056 -0.009,-0.017 -0.026,-0.029 -0.05,-0.036zm0.253 0.025l-0.004 0.001c-0.003,0.001 -0.006,0.002 -0.008,0.002 -0.006,0.002 -0.011,0.002 -0.016,0.001 0.005,-0.001 0.01,-0.003 0.015,-0.004l0.004 -0.002 0.004 -0.001c0.003,-0.002 0.006,-0.002 0.008,-0.003 0.006,-0.002 0.011,-0.003 0.016,-0.004 0.006,-0.001 0.011,-0.001 0.016,0 -0.009,0.002 -0.019,0.005 -0.03,0.009l-0.004 0.001zm-0.073 -0.257c-0.008,0.002 -0.015,0.005 -0.021,0.009 -0.007,0.005 -0.013,0.01 -0.018,0.015 -0.005,0.005 -0.009,0.012 -0.014,0.02 -0.006,0.012 -0.011,0.028 -0.016,0.047 -0.002,0.008 -0.003,0.016 -0.005,0.025 -0.001,0.003 -0.001,0.008 -0.002,0.012l-0.002 0.013c0,-0.018 0.002,-0.035 0.005,-0.051 0.004,-0.019 0.009,-0.035 0.016,-0.048 0.005,-0.009 0.009,-0.016 0.014,-0.021 0.006,-0.006 0.013,-0.011 0.02,-0.015 0.007,-0.004 0.014,-0.006 0.022,-0.008 0.008,-0.002 0.016,-0.002 0.023,-0.002 -0.009,0.001 -0.016,0.002 -0.023,0.004zm0.049 0.147l0.002 -0.001c0.002,-0.001 0.003,-0.001 0.004,-0.001 0.003,-0 0.006,-0 0.009,0 0.003,0.001 0.006,0.003 0.007,0.005 -0.002,-0.001 -0.005,-0.001 -0.008,-0.001 -0.003,0 -0.005,0 -0.008,0.001l-0.002 0 -0.002 0c-0.002,0 -0.003,0.001 -0.004,0.001 -0.003,0 -0.006,-0 -0.009,-0.001l0.004 -0.001 0.004 -0.001 0.002 -0.001zm0.011 0.09c-0.009,0.004 -0.016,0.004 -0.022,0.002 -0.005,-0.002 -0.009,-0.006 -0.01,-0.012 -0.001,-0.005 -0.001,-0.01 0.002,-0.015 0.003,-0.005 0.007,-0.008 0.014,-0.009 0.018,-0.002 0.031,-0.007 0.04,-0.016 0.008,-0.008 0.012,-0.018 0.011,-0.03 -0.001,-0.011 -0.006,-0.02 -0.015,-0.025 -0.01,-0.006 -0.021,-0.007 -0.034,-0.003 -0.011,0.003 -0.018,-0 -0.022,-0.01 -0.001,-0.004 -0.001,-0.008 -0,-0.012 0.001,-0.004 0.003,-0.008 0.007,-0.01 0.005,-0.004 0.012,-0.006 0.022,-0.008 0.003,-0.001 0.008,-0.001 0.014,-0.001l0.007 -0 0.007 -0.001c0.011,-0.001 0.02,-0.003 0.026,-0.006 0.009,-0.004 0.015,-0.01 0.018,-0.018 0.006,-0.015 0.003,-0.029 -0.008,-0.044 -0.01,-0.014 -0.025,-0.025 -0.046,-0.033 -0.021,-0.008 -0.042,-0.011 -0.064,-0.008 -0.024,0.003 -0.045,0.014 -0.062,0.031 -0.016,0.016 -0.027,0.041 -0.035,0.076 -0.007,0.032 -0.01,0.067 -0.009,0.106 0.002,0.038 0.007,0.072 0.016,0.102 0.01,0.032 0.023,0.054 0.039,0.065 0.016,0.011 0.035,0.016 0.058,0.015 0.021,-0.001 0.042,-0.006 0.063,-0.016 0.021,-0.01 0.038,-0.022 0.051,-0.037 0.014,-0.016 0.021,-0.032 0.021,-0.048 0,-0.021 -0.007,-0.035 -0.023,-0.042 -0.016,-0.007 -0.039,-0.004 -0.068,0.007zm0.347 -0.216c-0.003,0.004 -0.006,0.01 -0.008,0.017 -0.001,0.004 -0.003,0.01 -0.006,0.018l-0.005 0.019c-0,-0.006 0,-0.013 0.001,-0.02 0.001,-0.007 0.003,-0.013 0.005,-0.019 0.003,-0.007 0.006,-0.013 0.01,-0.017 0.005,-0.006 0.011,-0.008 0.017,-0.007 -0.005,0.001 -0.01,0.004 -0.014,0.01zm-0.06 0.193c-0.004,0.003 -0.008,0.005 -0.012,0.006 -0.004,0.001 -0.009,0.001 -0.012,0 0.005,-0.001 0.008,-0.003 0.011,-0.004 0.004,-0.002 0.007,-0.004 0.01,-0.006 0.003,-0.002 0.006,-0.005 0.009,-0.008l0.004 -0.005 0.004 -0.005c-0.003,0.009 -0.007,0.016 -0.014,0.022zm-0.095 -0.211c-0.004,0.003 -0.007,0.007 -0.01,0.01 -0.005,0.006 -0.01,0.015 -0.015,0.024 -0.003,0.007 -0.007,0.016 -0.011,0.027l-0.005 0.014 -0.005 0.014c0.003,-0.021 0.009,-0.04 0.017,-0.057 0.005,-0.01 0.011,-0.019 0.016,-0.025 0.003,-0.003 0.007,-0.006 0.012,-0.009 0.005,-0.002 0.01,-0.003 0.014,-0.003 -0.005,0.001 -0.009,0.003 -0.013,0.006zm0.225 0.271c-0.01,-0.003 -0.015,-0.013 -0.014,-0.029 0,-0.005 0.001,-0.013 0.003,-0.023l0.002 -0.012c0.001,-0.005 0.001,-0.009 0.002,-0.012 0.007,-0.062 0.01,-0.106 0.007,-0.131 -0.003,-0.04 -0.017,-0.064 -0.041,-0.072 -0.017,-0.006 -0.032,-0.002 -0.044,0.012 -0.012,0.014 -0.02,0.037 -0.023,0.068 -0.009,0.085 -0.024,0.127 -0.046,0.127 -0.025,0 -0.027,-0.035 -0.009,-0.104 0.009,-0.036 0.009,-0.065 -0.001,-0.088 -0.01,-0.022 -0.026,-0.033 -0.049,-0.032 -0.024,0.001 -0.044,0.02 -0.06,0.057 -0.016,0.036 -0.025,0.08 -0.028,0.133 -0.003,0.053 0.001,0.096 0.014,0.127 0.01,0.025 0.025,0.044 0.045,0.058 0.017,0.012 0.038,0.018 0.062,0.02 0.009,0 0.021,0 0.036,-0.001l0.01 -0.001 0.01 -0.001c0.009,-0 0.016,-0.001 0.021,-0.001 0.008,-0.001 0.015,0.001 0.02,0.005 0.003,0.003 0.007,0.008 0.012,0.016l0.003 0.004 0.003 0.004c0.002,0.003 0.004,0.007 0.007,0.009 0.006,0.006 0.014,0.011 0.023,0.013 0.015,0.004 0.03,0 0.042,-0.012 0.012,-0.011 0.02,-0.027 0.025,-0.047 0.005,-0.02 0.005,-0.038 0.001,-0.054 -0.005,-0.018 -0.015,-0.029 -0.031,-0.034zm0.089 0.023c-0.004,0.005 -0.007,0.011 -0.01,0.019 -0.001,-0.008 0.001,-0.016 0.007,-0.022 0.003,-0.003 0.006,-0.005 0.009,-0.007 0.004,-0.002 0.008,-0.002 0.011,-0.001 -0.007,0.002 -0.012,0.005 -0.017,0.011zm0.017 -0.03c-0.011,0 -0.021,0.005 -0.029,0.014 -0.008,0.009 -0.013,0.02 -0.015,0.033 -0.001,0.009 -0,0.017 0.002,0.026 0.003,0.008 0.007,0.015 0.012,0.021 0.004,0.004 0.005,0.012 0.003,0.022l-0 0.003 -0.001 0.003c-0,0.002 -0.001,0.004 -0.001,0.005 -0,0.004 0,0.006 0.002,0.008 0.004,0.004 0.009,0.005 0.016,0.003 0.007,-0.002 0.014,-0.007 0.021,-0.015 0.018,-0.018 0.028,-0.039 0.031,-0.063 0.002,-0.016 -0.001,-0.03 -0.01,-0.042 -0.008,-0.011 -0.019,-0.017 -0.032,-0.017zm-2.274 0.519c-0.002,0.005 -0.006,0.009 -0.011,0.012 -0.005,0.003 -0.01,0.004 -0.015,0.003 0.005,-0.001 0.009,-0.003 0.013,-0.006 0.004,-0.003 0.007,-0.007 0.009,-0.011 0.004,-0.008 0.004,-0.018 0.002,-0.03 0.003,0.005 0.004,0.01 0.004,0.015 0,0.006 -0.001,0.011 -0.003,0.016zm-0.04 -0.014c-0.002,-0.005 -0.003,-0.009 -0.003,-0.014 0,-0.005 0.002,-0.008 0.005,-0.01 0.003,-0.002 0.006,-0.002 0.01,0 0.004,0.002 0.007,0.005 0.01,0.01 0.002,0.005 0.003,0.009 0.003,0.014 -0,0.005 -0.002,0.008 -0.005,0.01 -0.003,0.002 -0.006,0.002 -0.01,-0 -0.004,-0.002 -0.007,-0.005 -0.01,-0.01zm-0.019 -0.098c0.003,-0.001 0.007,-0.002 0.01,-0.004 0.003,-0.002 0.006,-0.004 0.008,-0.007 0.002,-0.002 0.004,-0.005 0.006,-0.009 0.002,-0.003 0.003,-0.006 0.004,-0.01 0.001,0.008 -0.002,0.015 -0.008,0.022 -0.003,0.003 -0.006,0.005 -0.01,0.007 -0.004,0.002 -0.007,0.002 -0.011,0.001zm-0.005 -0.034c0.002,-0.003 0.004,-0.005 0.006,-0.007 0.002,-0.001 0.005,-0.001 0.007,0 0.002,0.001 0.003,0.003 0.003,0.006 0,0.003 -0,0.006 -0.002,0.009 -0.002,0.003 -0.004,0.005 -0.006,0.007 -0.002,0.001 -0.005,0.001 -0.007,0 -0.002,-0.001 -0.003,-0.003 -0.003,-0.006 -0,-0.003 0,-0.006 0.002,-0.009zm-0.037 -0.042c-0.003,0.004 -0.007,0.009 -0.011,0.014 -0.005,0.009 -0.011,0.02 -0.015,0.033 -0.004,0.01 -0.007,0.022 -0.01,0.036 0.001,-0.012 0.004,-0.024 0.007,-0.037 0.004,-0.013 0.009,-0.024 0.015,-0.034 0.007,-0.012 0.016,-0.021 0.025,-0.027 0.006,-0.004 0.011,-0.006 0.016,-0.008 0.006,-0.001 0.012,-0.002 0.017,-0.002 -0.012,0.001 -0.023,0.005 -0.032,0.012 -0.005,0.003 -0.009,0.007 -0.013,0.012zm0.094 0.09c-0.002,-0.001 -0.003,-0.004 -0.002,-0.008 0.001,-0.001 0.002,-0.004 0.003,-0.007l0.001 -0.002 0.001 -0.002c0.001,-0.002 0.002,-0.003 0.002,-0.005 0.004,-0.009 0.007,-0.017 0.008,-0.025 0.002,-0.011 0.003,-0.023 0.001,-0.035 -0.002,-0.013 -0.009,-0.025 -0.021,-0.034 -0.012,-0.009 -0.026,-0.014 -0.041,-0.015 -0.017,-0 -0.033,0.005 -0.047,0.016 -0.017,0.013 -0.03,0.032 -0.039,0.058 -0.01,0.027 -0.015,0.056 -0.016,0.087 -0.001,0.032 0.003,0.062 0.012,0.088 0.01,0.029 0.024,0.052 0.042,0.067 0.021,0.017 0.046,0.025 0.076,0.023 0.028,-0.002 0.051,-0.012 0.067,-0.03 0.015,-0.016 0.024,-0.036 0.025,-0.06 0.001,-0.024 -0.004,-0.046 -0.016,-0.067 -0.013,-0.023 -0.032,-0.039 -0.057,-0.05zm0.279 0.074c-0.001,0.001 -0.003,0.002 -0.005,0.004l-0.002 0.002 -0.002 0.002c-0.004,0.003 -0.008,0.005 -0.011,0.006 -0.004,0.001 -0.008,0.001 -0.012,0 0.007,-0.002 0.015,-0.005 0.021,-0.01l0.002 -0.002 0.002 -0.002c0.002,-0.001 0.004,-0.002 0.006,-0.003 0.004,-0.002 0.008,-0.003 0.012,-0.002 -0.004,0.001 -0.007,0.002 -0.011,0.005zm-0.126 -0.157c-0.008,0.008 -0.014,0.018 -0.02,0.03 -0.005,0.01 -0.01,0.021 -0.014,0.035 0.002,-0.012 0.006,-0.025 0.011,-0.036 0.005,-0.012 0.012,-0.022 0.02,-0.031 0.009,-0.01 0.018,-0.017 0.029,-0.022 0.006,-0.002 0.012,-0.004 0.017,-0.005 0.006,-0.001 0.012,-0.001 0.017,-0.001 -0.013,0.001 -0.024,0.004 -0.033,0.009 -0.01,0.005 -0.02,0.013 -0.027,0.022zm0.173 0.182c-0.002,-0.024 -0.01,-0.04 -0.024,-0.046 -0.006,-0.003 -0.013,-0.003 -0.02,-0.001 -0.007,0.002 -0.014,0.005 -0.02,0.011 -0.006,0.005 -0.013,0.007 -0.02,0.007 -0.006,-0.001 -0.012,-0.004 -0.018,-0.01 -0.005,-0.006 -0.009,-0.014 -0.012,-0.023 -0.003,-0.01 -0.003,-0.021 -0.001,-0.033 0.002,-0.017 0.01,-0.027 0.023,-0.029 0.009,-0.002 0.023,0.001 0.039,0.008 0.007,0.003 0.014,0.003 0.02,-0 0.006,-0.003 0.01,-0.008 0.014,-0.015 0.003,-0.007 0.004,-0.016 0.003,-0.025 -0.001,-0.01 -0.005,-0.019 -0.011,-0.028 -0.013,-0.019 -0.03,-0.032 -0.052,-0.04 -0.02,-0.007 -0.039,-0.007 -0.06,-0.002 -0.026,0.007 -0.047,0.025 -0.064,0.054 -0.018,0.032 -0.028,0.071 -0.028,0.118 -0,0.053 0.013,0.095 0.038,0.125 0.012,0.014 0.026,0.025 0.042,0.031 0.016,0.007 0.033,0.009 0.052,0.007 0.032,-0.003 0.057,-0.015 0.076,-0.037 0.018,-0.021 0.026,-0.044 0.024,-0.071zm0.171 0.01l-0.003 0.001c-0.003,0.001 -0.005,0.002 -0.007,0.002 -0.005,0.001 -0.01,0.001 -0.014,0 0.005,-0.001 0.009,-0.002 0.013,-0.004l0.003 -0.001 0.003 -0.001c0.003,-0.001 0.005,-0.002 0.007,-0.003 0.005,-0.002 0.009,-0.003 0.013,-0.003 0.005,-0.001 0.01,-0.001 0.014,0 -0.008,0.002 -0.016,0.004 -0.026,0.007l-0.003 0.001zm-0.063 -0.22c-0.007,0.002 -0.013,0.005 -0.018,0.008 -0.006,0.004 -0.012,0.008 -0.016,0.013 -0.004,0.004 -0.008,0.01 -0.012,0.017 -0.005,0.01 -0.01,0.024 -0.014,0.04 -0.002,0.006 -0.003,0.013 -0.004,0.021 -0.001,0.003 -0.001,0.006 -0.002,0.011l-0.002 0.011c0,-0.015 0.002,-0.03 0.004,-0.043 0.003,-0.016 0.008,-0.03 0.014,-0.041 0.004,-0.007 0.008,-0.013 0.012,-0.018 0.005,-0.005 0.011,-0.009 0.017,-0.013 0.006,-0.003 0.012,-0.005 0.019,-0.007 0.007,-0.001 0.014,-0.002 0.02,-0.001 -0.008,0.001 -0.014,0.002 -0.02,0.004zm0.042 0.126l0.002 -0.001c0.001,-0 0.003,-0.001 0.004,-0.001 0.003,-0 0.005,-0 0.008,0 0.003,0.001 0.005,0.002 0.006,0.004 -0.002,-0 -0.004,-0.001 -0.007,-0.001 -0.002,0 -0.004,0 -0.007,0.001l-0.002 0 -0.002 0c-0.001,0 -0.003,0 -0.003,0 -0.003,0 -0.005,-0 -0.007,-0.001l0.003 -0.001 0.003 -0.001 0.001 -0zm0.01 0.076c-0.008,0.003 -0.014,0.004 -0.019,0.002 -0.004,-0.002 -0.007,-0.005 -0.008,-0.01 -0.001,-0.005 -0.001,-0.009 0.002,-0.013 0.003,-0.004 0.007,-0.007 0.012,-0.007 0.015,-0.002 0.027,-0.006 0.034,-0.014 0.007,-0.007 0.01,-0.015 0.009,-0.026 -0,-0.01 -0.005,-0.017 -0.013,-0.022 -0.008,-0.005 -0.018,-0.006 -0.029,-0.003 -0.01,0.003 -0.016,-0 -0.019,-0.009 -0.001,-0.003 -0.001,-0.007 -0,-0.01 0.001,-0.004 0.003,-0.007 0.006,-0.009 0.004,-0.003 0.01,-0.006 0.019,-0.007 0.003,-0 0.007,-0.001 0.012,-0.001l0.006 -0 0.006 -0c0.01,-0.001 0.017,-0.003 0.022,-0.005 0.007,-0.003 0.012,-0.008 0.015,-0.016 0.005,-0.013 0.003,-0.025 -0.006,-0.038 -0.009,-0.012 -0.022,-0.022 -0.039,-0.029 -0.018,-0.007 -0.036,-0.009 -0.054,-0.007 -0.021,0.003 -0.038,0.011 -0.053,0.026 -0.014,0.014 -0.024,0.035 -0.03,0.065 -0.006,0.027 -0.009,0.058 -0.007,0.091 0.001,0.033 0.006,0.062 0.014,0.087 0.009,0.027 0.02,0.046 0.033,0.056 0.013,0.009 0.03,0.014 0.05,0.013 0.018,-0.001 0.036,-0.005 0.054,-0.014 0.018,-0.008 0.032,-0.019 0.044,-0.032 0.012,-0.014 0.018,-0.027 0.018,-0.041 0,-0.018 -0.006,-0.03 -0.02,-0.036 -0.014,-0.006 -0.033,-0.004 -0.058,0.006zm-0.057 -0.263c0,-0 0.001,-0.001 0.001,-0.001 0.001,-0 0.001,-0 0.002,-0 -0,0 -0,0.001 -0,0.002l0 0 0 0.001 0 0.001 0 0.001c-0,0.002 -0.001,0.003 -0.002,0.005 -0.002,-0.001 -0.003,-0.003 -0.002,-0.005 0,-0.001 0.001,-0.002 0.001,-0.003zm0.011 0.034c0.006,-0.001 0.011,-0.005 0.014,-0.012 0.003,-0.007 0.004,-0.014 0.001,-0.022 -0.002,-0.008 -0.007,-0.014 -0.013,-0.018 -0.006,-0.003 -0.012,-0.004 -0.018,-0.001 -0.005,0.003 -0.008,0.007 -0.01,0.013 -0.002,0.006 -0.002,0.012 -0,0.019 0.002,0.006 0.005,0.012 0.01,0.016 0.005,0.004 0.01,0.005 0.015,0.004zm0.05 -0.047c0.001,-0.002 0.003,-0.003 0.004,-0.004 0.002,-0.001 0.004,-0.001 0.005,0 -0.001,0.001 -0.003,0.002 -0.004,0.003 -0.001,0.001 -0.002,0.002 -0.003,0.003 -0.001,0.001 -0.002,0.002 -0.003,0.004l-0.001 0.002 -0.001 0.002c-0.001,-0.004 -0,-0.007 0.002,-0.011zm0.001 0.046c0.008,0.002 0.016,0.001 0.023,-0.005 0.007,-0.006 0.011,-0.014 0.013,-0.024 0.001,-0.01 -0.001,-0.019 -0.006,-0.027 -0.005,-0.007 -0.012,-0.011 -0.021,-0.011 -0.007,0 -0.013,0.003 -0.019,0.009 -0.005,0.006 -0.009,0.013 -0.01,0.021 -0.001,0.008 0,0.016 0.004,0.023 0.004,0.007 0.009,0.012 0.016,0.014z"/>
     <path class="fil1" d="M-1.623 0.665c-0.001,0.001 -0.003,0.001 -0.005,0.002l-0.004 0.002 -0.004 0.003c-0.002,0.001 -0.003,0.002 -0.004,0.003 -0.005,0.003 -0.01,0.008 -0.015,0.013 -0.006,0.006 -0.01,0.012 -0.013,0.016 -0.007,0.011 -0.012,0.024 -0.014,0.039 -0.001,0.003 -0.001,0.007 -0.001,0.011l-0.001 0.011c-0,0.003 -0.001,0.007 -0.001,0.011l-0 0.011c-0.002,-0.016 -0.002,-0.03 -0,-0.044 0.001,-0.016 0.006,-0.029 0.014,-0.041l0.003 -0.005 0.003 -0.004c0.001,-0.001 0.002,-0.003 0.003,-0.004l0.002 -0.002 0.002 -0.002c0.007,-0.006 0.012,-0.011 0.016,-0.013 0.011,-0.007 0.024,-0.012 0.038,-0.015l-0.005 0.002 -0.005 0.002c-0.003,0.001 -0.006,0.003 -0.009,0.004zm0.153 0.044c-0.012,-0.028 -0.031,-0.049 -0.056,-0.062 -0.023,-0.012 -0.048,-0.015 -0.075,-0.01 -0.026,0.005 -0.049,0.016 -0.067,0.035 -0.02,0.02 -0.031,0.044 -0.033,0.073 -0.005,0.053 0.003,0.106 0.023,0.157 0.009,0.023 0.019,0.041 0.03,0.054 0.012,0.014 0.024,0.02 0.035,0.018 0.016,-0.002 0.026,-0.012 0.029,-0.031 0.004,-0.021 0.001,-0.056 -0.008,-0.107 -0.007,-0.04 -0.003,-0.062 0.012,-0.064 0.009,-0.001 0.015,0.006 0.02,0.021 0.004,0.014 0.006,0.032 0.006,0.054 -0.002,0.048 0.003,0.082 0.014,0.101 0.008,0.014 0.021,0.021 0.037,0.02 0.014,-0.001 0.025,-0.01 0.035,-0.029 0.009,-0.017 0.015,-0.039 0.018,-0.066 0.003,-0.027 0.003,-0.055 0,-0.084 -0.003,-0.03 -0.01,-0.057 -0.02,-0.08zm0.191 0.067c-0.002,0.005 -0.004,0.009 -0.007,0.012 -0.003,0.004 -0.007,0.007 -0.011,0.008 -0.005,0.002 -0.009,0.002 -0.013,0.001 0.004,-0.001 0.008,-0.003 0.012,-0.005 0.004,-0.002 0.007,-0.005 0.009,-0.008 0.005,-0.006 0.01,-0.014 0.012,-0.023 0,0.005 -0,0.009 -0.002,0.014zm-0.039 -0.02c0.002,-0.005 0.005,-0.008 0.009,-0.01 0.004,-0.002 0.007,-0.002 0.01,-0 0.003,0.002 0.005,0.005 0.006,0.009 0.001,0.005 -0,0.009 -0.002,0.014 -0.002,0.005 -0.005,0.008 -0.009,0.01 -0.004,0.002 -0.007,0.002 -0.01,0 -0.003,-0.002 -0.005,-0.005 -0.006,-0.009 -0.001,-0.005 0,-0.009 0.002,-0.014zm-0.033 -0.094c-0.01,0.005 -0.018,0.012 -0.026,0.02 -0.007,0.008 -0.013,0.017 -0.018,0.029 -0.004,0.009 -0.008,0.02 -0.011,0.033 0,-0.005 0.001,-0.011 0.003,-0.017 0.001,-0.006 0.003,-0.012 0.005,-0.017 0.004,-0.011 0.01,-0.021 0.017,-0.03 0.008,-0.009 0.017,-0.016 0.027,-0.02 0.005,-0.002 0.01,-0.004 0.016,-0.005 0.006,-0.001 0.011,-0.001 0.016,-0.001 -0.012,0.002 -0.022,0.005 -0.031,0.01zm0.041 -0.028c-0.029,-0 -0.053,0.008 -0.072,0.026 -0.017,0.016 -0.029,0.038 -0.036,0.067 -0.006,0.026 -0.008,0.055 -0.005,0.086 0.003,0.03 0.01,0.058 0.021,0.084 0.011,0.025 0.023,0.044 0.036,0.058 0.012,0.012 0.023,0.018 0.035,0.019 0.011,0.001 0.02,-0.002 0.027,-0.01 0.008,-0.008 0.012,-0.018 0.014,-0.032 0.001,-0.009 0.001,-0.02 -0.001,-0.031 -0.001,-0.003 -0.001,-0.008 -0.002,-0.014l-0.001 -0.007c-0,-0.002 -0.001,-0.004 -0.001,-0.006 -0.001,-0.009 -0.001,-0.016 0,-0.022 0.002,-0.006 0.006,-0.011 0.014,-0.015 0.024,-0.012 0.041,-0.03 0.053,-0.053 0.011,-0.021 0.015,-0.044 0.013,-0.067 -0.003,-0.024 -0.012,-0.043 -0.028,-0.058 -0.017,-0.016 -0.04,-0.025 -0.068,-0.025zm0.269 0.211c-0.003,0.003 -0.006,0.004 -0.009,0.005 -0.004,0.001 -0.007,0.001 -0.01,0 0.007,-0.002 0.012,-0.005 0.017,-0.009 0.004,-0.003 0.008,-0.009 0.013,-0.016 -0.001,0.008 -0.005,0.014 -0.011,0.019zm-0.023 -0.013c-0.003,-0.002 -0.006,-0.005 -0.007,-0.009 -0.001,-0.004 -0.001,-0.009 0.001,-0.014 0.002,-0.005 0.004,-0.008 0.008,-0.011 0.004,-0.002 0.007,-0.003 0.01,-0.001 0.003,0.001 0.006,0.004 0.007,0.009 0.001,0.004 0.001,0.009 -0.001,0.014 -0.002,0.005 -0.004,0.008 -0.008,0.011 -0.004,0.002 -0.007,0.003 -0.01,0.001zm-0.035 -0.127c-0.006,0.008 -0.012,0.019 -0.02,0.033 -0.003,0.005 -0.006,0.011 -0.009,0.017l-0.009 0.017c0.004,-0.011 0.009,-0.024 0.015,-0.036 0.006,-0.012 0.012,-0.023 0.019,-0.034 0.008,-0.013 0.016,-0.023 0.024,-0.03l0.004 -0.003c0.001,-0.001 0.002,-0.002 0.003,-0.003l0.004 -0.003 0.004 -0.003c0.007,-0.004 0.013,-0.006 0.018,-0.005 -0.005,0 -0.01,0.003 -0.017,0.007l-0.004 0.003 -0.003 0.003c-0.001,0.001 -0.002,0.002 -0.003,0.003l-0.003 0.004c-0.007,0.008 -0.015,0.019 -0.023,0.03zm0.058 -0.068c-0.019,-0.003 -0.04,0.011 -0.064,0.042 -0.021,0.028 -0.04,0.065 -0.057,0.109 -0.017,0.044 -0.027,0.083 -0.029,0.117 -0.003,0.037 0.004,0.06 0.02,0.066 0.012,0.005 0.024,0.005 0.036,-0 0.009,-0.004 0.018,-0.012 0.028,-0.023 0.002,-0.002 0.004,-0.005 0.006,-0.007l0.006 -0.007c0.005,-0.006 0.008,-0.011 0.01,-0.013 0.008,-0.009 0.014,-0.013 0.019,-0.013 0.005,0 0.012,0.004 0.02,0.013 0.002,0.003 0.006,0.007 0.011,0.012l0.006 0.007 0.006 0.007c0.01,0.011 0.019,0.018 0.027,0.022 0.011,0.005 0.021,0.005 0.032,-0 0.012,-0.006 0.02,-0.026 0.021,-0.06 0.002,-0.032 -0.002,-0.068 -0.01,-0.109 -0.008,-0.042 -0.02,-0.078 -0.034,-0.107 -0.017,-0.033 -0.034,-0.05 -0.053,-0.054zm0.276 0.23c-0.002,0.005 -0.006,0.009 -0.011,0.012 -0.005,0.003 -0.01,0.004 -0.015,0.003 0.005,-0.001 0.009,-0.003 0.013,-0.006 0.004,-0.003 0.007,-0.007 0.009,-0.011 0.004,-0.008 0.004,-0.018 0.002,-0.03 0.003,0.005 0.004,0.01 0.004,0.015 0,0.006 -0.001,0.011 -0.003,0.016zm-0.04 -0.014c-0.002,-0.005 -0.003,-0.009 -0.003,-0.014 0,-0.005 0.002,-0.008 0.005,-0.01 0.003,-0.002 0.006,-0.002 0.01,0 0.004,0.002 0.007,0.005 0.01,0.01 0.002,0.005 0.003,0.009 0.003,0.014 -0,0.005 -0.002,0.008 -0.005,0.01 -0.003,0.002 -0.006,0.002 -0.01,0 -0.004,-0.002 -0.007,-0.005 -0.01,-0.01zm-0.019 -0.098c0.003,-0.001 0.007,-0.002 0.01,-0.004 0.003,-0.002 0.006,-0.004 0.008,-0.007 0.002,-0.002 0.004,-0.005 0.006,-0.009 0.002,-0.003 0.003,-0.006 0.004,-0.01 0.001,0.008 -0.002,0.015 -0.008,0.022 -0.003,0.003 -0.006,0.005 -0.01,0.007 -0.004,0.002 -0.007,0.002 -0.011,0.001zm-0.005 -0.034c0.002,-0.003 0.004,-0.005 0.006,-0.007 0.002,-0.001 0.005,-0.001 0.007,0 0.002,0.001 0.003,0.003 0.003,0.006 0,0.003 -0,0.006 -0.002,0.009 -0.002,0.003 -0.004,0.005 -0.006,0.007 -0.002,0.001 -0.005,0.001 -0.007,-0 -0.002,-0.001 -0.003,-0.003 -0.003,-0.006 -0,-0.003 0,-0.006 0.002,-0.009zm-0.037 -0.042c-0.003,0.004 -0.007,0.009 -0.011,0.014 -0.006,0.009 -0.011,0.02 -0.015,0.033 -0.004,0.01 -0.007,0.022 -0.01,0.036 0.001,-0.012 0.004,-0.024 0.007,-0.037 0.004,-0.013 0.009,-0.024 0.015,-0.034 0.007,-0.012 0.016,-0.021 0.025,-0.027 0.006,-0.004 0.011,-0.006 0.016,-0.008 0.006,-0.001 0.012,-0.002 0.017,-0.002 -0.012,0.001 -0.023,0.005 -0.032,0.012 -0.005,0.003 -0.009,0.007 -0.013,0.012zm0.094 0.09c-0.002,-0.001 -0.003,-0.004 -0.002,-0.008 0.001,-0.001 0.002,-0.004 0.003,-0.007l0.001 -0.002 0.001 -0.002c0.001,-0.002 0.002,-0.003 0.002,-0.005 0.004,-0.009 0.007,-0.017 0.008,-0.025 0.002,-0.011 0.003,-0.023 0.001,-0.035 -0.002,-0.013 -0.009,-0.025 -0.021,-0.034 -0.012,-0.009 -0.026,-0.014 -0.041,-0.015 -0.017,-0 -0.033,0.005 -0.047,0.016 -0.016,0.013 -0.03,0.032 -0.039,0.058 -0.01,0.027 -0.015,0.056 -0.016,0.087 -0.001,0.032 0.003,0.062 0.012,0.088 0.01,0.029 0.024,0.052 0.042,0.067 0.021,0.017 0.046,0.025 0.076,0.023 0.028,-0.002 0.051,-0.012 0.067,-0.03 0.015,-0.016 0.024,-0.036 0.025,-0.06 0.001,-0.024 -0.004,-0.046 -0.016,-0.067 -0.013,-0.023 -0.032,-0.039 -0.057,-0.05zm0.266 -0.094c-0.004,0.005 -0.008,0.01 -0.012,0.017 -0.007,0.012 -0.013,0.024 -0.018,0.038l-0.004 0.01 -0.003 0.01c-0.003,0.009 -0.005,0.016 -0.007,0.02 -0.003,0.009 -0.007,0.015 -0.01,0.019 -0.002,0.003 -0.005,0.005 -0.008,0.006 -0.003,0.001 -0.006,0.002 -0.01,0.001 0.004,-0 0.007,-0.001 0.01,-0.002 0.003,-0.001 0.005,-0.004 0.007,-0.007 0.003,-0.004 0.006,-0.01 0.008,-0.019l0.003 -0.01 0.003 -0.01c0.002,-0.008 0.005,-0.015 0.007,-0.02 0.005,-0.015 0.012,-0.027 0.019,-0.038 0.01,-0.014 0.019,-0.024 0.029,-0.029 -0.005,0.004 -0.01,0.009 -0.015,0.014zm-0.144 0.055c-0.002,0.01 -0.004,0.021 -0.005,0.035l-0.002 0.018 -0.002 0.017c-0.001,-0.034 0.002,-0.065 0.011,-0.092 0.002,-0.005 0.003,-0.01 0.005,-0.014 0.003,-0.006 0.005,-0.01 0.008,-0.014 0.007,-0.011 0.015,-0.016 0.024,-0.015 -0.011,0.001 -0.02,0.01 -0.027,0.026 -0.003,0.006 -0.005,0.013 -0.007,0.021 -0.001,0.003 -0.002,0.006 -0.002,0.01l-0.001 0.005 -0 0.002 -0 0.002zm0.2 -0.085c-0.018,-0.012 -0.036,-0.011 -0.054,0.003 -0.015,0.011 -0.028,0.029 -0.04,0.053 -0.004,0.008 -0.007,0.017 -0.011,0.027 -0.001,0.004 -0.003,0.008 -0.004,0.013l-0.002 0.006 -0.001 0.003 -0.001 0.003c-0.003,0.009 -0.005,0.015 -0.007,0.018 -0.002,0.005 -0.004,0.007 -0.006,0.007 -0.004,-0 -0.006,-0.003 -0.006,-0.01 -0,-0.005 0.001,-0.017 0.003,-0.036 0.005,-0.035 0.003,-0.059 -0.006,-0.073 -0.007,-0.011 -0.018,-0.016 -0.034,-0.013 -0.019,0.003 -0.033,0.022 -0.044,0.057 -0.01,0.034 -0.015,0.076 -0.014,0.125 0.003,0.091 0.027,0.139 0.074,0.146 0.014,0.002 0.027,-0.002 0.041,-0.01 0.013,-0.008 0.024,-0.02 0.032,-0.035 0.008,-0.013 0.015,-0.025 0.02,-0.036 0.002,-0.004 0.004,-0.009 0.006,-0.013 0.001,-0.003 0.003,-0.006 0.004,-0.009 0.002,-0.006 0.004,-0.009 0.005,-0.01 0.001,-0.002 0.003,-0.002 0.004,-0.002 0.002,0.001 0.002,0.007 0.001,0.02l-0 0.005 -0.001 0.004c-0,0.004 -0.001,0.007 -0.001,0.01 -0.001,0.008 -0.001,0.015 -0.001,0.022 -0.001,0.039 0.012,0.058 0.038,0.058 0.017,-0 0.03,-0.016 0.039,-0.046 0.008,-0.028 0.012,-0.063 0.013,-0.105 0,-0.041 -0.004,-0.079 -0.012,-0.112 -0.009,-0.036 -0.02,-0.059 -0.034,-0.068zm0.178 0.012l-0.004 0.001c-0.001,0 -0.003,0.001 -0.004,0.002 -0.001,0 -0.002,0.001 -0.004,0.002l-0.002 0.001 -0.002 0.001 -0.003 0.003c-0.001,0.001 -0.002,0.002 -0.003,0.003 -0.008,0.007 -0.016,0.016 -0.023,0.027 -0.006,0.008 -0.012,0.019 -0.018,0.032 -0.004,0.009 -0.009,0.02 -0.014,0.034 0.003,-0.012 0.006,-0.023 0.011,-0.035 0.005,-0.012 0.011,-0.023 0.017,-0.033 0.008,-0.011 0.016,-0.02 0.025,-0.027 0.011,-0.008 0.022,-0.011 0.033,-0.01l-0.008 0.001zm0.133 0.106c-0.014,-0.04 -0.033,-0.072 -0.058,-0.095 -0.025,-0.024 -0.051,-0.034 -0.077,-0.03 -0.022,0.003 -0.042,0.02 -0.061,0.049 -0.018,0.027 -0.031,0.061 -0.039,0.1 -0.009,0.044 -0.01,0.085 -0.004,0.123 0.003,0.019 0.008,0.034 0.015,0.045 0.007,0.012 0.016,0.019 0.026,0.021 0.016,0.003 0.028,-0.003 0.038,-0.018 0.007,-0.011 0.014,-0.029 0.019,-0.053 0.001,-0.004 0.002,-0.009 0.003,-0.015l0.002 -0.007 0.001 -0.007c0.002,-0.013 0.004,-0.022 0.005,-0.027 0.004,-0.018 0.009,-0.028 0.015,-0.029 0.004,-0.001 0.008,0.001 0.012,0.006 0.003,0.004 0.007,0.012 0.01,0.022 0.001,0.004 0.003,0.008 0.005,0.014l0.003 0.008 0.003 0.008c0.005,0.014 0.009,0.025 0.013,0.033 0.01,0.023 0.022,0.038 0.035,0.046 0.012,0.008 0.024,0.008 0.035,0 0.007,-0.005 0.012,-0.013 0.016,-0.025 0.004,-0.012 0.006,-0.027 0.006,-0.044 0.001,-0.038 -0.006,-0.08 -0.022,-0.125zm0.189 0.11c-0.003,0.004 -0.006,0.008 -0.01,0.01 -0.004,0.002 -0.009,0.003 -0.013,0.002 0.009,-0.002 0.016,-0.006 0.02,-0.014 0.002,-0.003 0.004,-0.007 0.005,-0.012 0.001,-0.004 0.001,-0.009 0.001,-0.014 0.002,0.005 0.002,0.009 0.002,0.014 -0,0.005 -0.002,0.01 -0.004,0.014zm-0.038 -0.018c-0.002,-0.005 -0.003,-0.009 -0.002,-0.014 0.001,-0.005 0.002,-0.008 0.005,-0.009 0.003,-0.002 0.007,-0.001 0.01,0.001 0.004,0.002 0.007,0.005 0.009,0.01 0.002,0.005 0.003,0.009 0.002,0.014 -0.001,0.004 -0.002,0.007 -0.006,0.009 -0.003,0.002 -0.006,0.002 -0.01,-0 -0.004,-0.002 -0.007,-0.005 -0.009,-0.01zm-0.02 -0.196c-0.003,0.001 -0.006,0.003 -0.009,0.006 -0.005,0.005 -0.01,0.01 -0.015,0.017 -0.004,0.005 -0.008,0.011 -0.013,0.019 -0.002,0.003 -0.004,0.006 -0.006,0.01l-0.006 0.01c0.003,-0.009 0.006,-0.016 0.009,-0.022 0.004,-0.008 0.008,-0.014 0.012,-0.02 0.005,-0.007 0.011,-0.013 0.017,-0.017 0.007,-0.005 0.015,-0.008 0.021,-0.007 -0.003,0 -0.007,0.002 -0.01,0.004zm0.057 0.115c-0.007,-0.002 -0.012,-0.007 -0.014,-0.013 -0.002,-0.005 -0.002,-0.012 -0,-0.022 0,-0.002 0.001,-0.004 0.001,-0.007l0.001 -0.007c0.001,-0.006 0.002,-0.011 0.003,-0.014 0.002,-0.012 0.002,-0.023 0.001,-0.032 -0.002,-0.013 -0.006,-0.024 -0.014,-0.031 -0.008,-0.008 -0.017,-0.011 -0.028,-0.01 -0.012,0.001 -0.023,0.008 -0.035,0.019 -0.013,0.013 -0.025,0.032 -0.036,0.057 -0.011,0.026 -0.018,0.054 -0.021,0.084 -0.003,0.031 -0.002,0.06 0.005,0.086 0.007,0.028 0.019,0.051 0.036,0.067 0.019,0.018 0.043,0.026 0.072,0.026 0.028,-0 0.051,-0.009 0.069,-0.027 0.017,-0.016 0.027,-0.037 0.03,-0.061 0.003,-0.024 -0.001,-0.047 -0.012,-0.068 -0.013,-0.022 -0.032,-0.038 -0.058,-0.047zm0.284 -0.112c-0.002,0.001 -0.004,0.003 -0.006,0.005 -0.002,0.003 -0.004,0.008 -0.006,0.015 -0.002,0.009 -0.002,0.02 -0.002,0.034l-0 0.004 0 0.004c0,0.003 0,0.006 -0,0.009 -0.001,0.006 -0.002,0.012 -0.004,0.017 -0.002,0.006 -0.005,0.011 -0.009,0.014 -0.004,0.004 -0.009,0.007 -0.014,0.008 0.01,-0.005 0.017,-0.013 0.02,-0.024 0.002,-0.005 0.003,-0.011 0.003,-0.016 0,-0.002 0,-0.005 0,-0.008l-0 -0.004 0 -0.005c-0,-0.014 0.001,-0.026 0.003,-0.035 0.002,-0.007 0.004,-0.013 0.007,-0.016 0.002,-0.002 0.004,-0.004 0.007,-0.005 0.002,-0.001 0.005,-0.001 0.008,-0.001 -0.003,0 -0.006,0.001 -0.008,0.002zm-0.147 0.006c-0.005,0.006 -0.009,0.013 -0.012,0.021 -0.002,0.007 -0.004,0.016 -0.007,0.025l-0.003 0.013 -0.003 0.013c0,-0.018 0.003,-0.035 0.008,-0.052 0.003,-0.009 0.007,-0.017 0.013,-0.023 0.003,-0.003 0.007,-0.006 0.011,-0.007 0.004,-0.002 0.008,-0.002 0.012,-0.002 -0.008,0.001 -0.014,0.005 -0.02,0.012zm0.154 -0.026c-0.015,0.001 -0.025,0.008 -0.031,0.022 -0.006,0.013 -0.009,0.033 -0.007,0.061 0,0.012 -0.002,0.021 -0.007,0.027 -0.004,0.005 -0.01,0.008 -0.017,0.007 -0.007,-0.001 -0.013,-0.004 -0.016,-0.01 -0.004,-0.006 -0.005,-0.014 -0.004,-0.024 0.003,-0.028 0,-0.049 -0.008,-0.063 -0.007,-0.013 -0.019,-0.02 -0.035,-0.023 -0.013,-0.002 -0.025,0.001 -0.035,0.01 -0.01,0.008 -0.018,0.02 -0.022,0.035 -0.009,0.03 -0.014,0.064 -0.014,0.105 -0,0.039 0.003,0.076 0.011,0.111 0.006,0.026 0.015,0.045 0.027,0.056 0.01,0.009 0.022,0.013 0.034,0.011 0.028,-0.004 0.04,-0.027 0.038,-0.067 -0.002,-0.029 0.004,-0.044 0.017,-0.044 0.007,0 0.012,0.003 0.015,0.008 0.005,0.007 0.007,0.018 0.006,0.034 -0.001,0.026 0.003,0.046 0.012,0.06 0.008,0.013 0.02,0.019 0.035,0.019 0.026,0 0.044,-0.017 0.054,-0.052 0.008,-0.025 0.012,-0.067 0.014,-0.126 0.001,-0.045 -0.004,-0.083 -0.016,-0.113 -0.012,-0.031 -0.029,-0.046 -0.049,-0.045zm0.235 0.229c-0.003,0.004 -0.006,0.007 -0.01,0.009 -0.004,0.002 -0.008,0.004 -0.013,0.003 0.008,-0.003 0.015,-0.008 0.019,-0.015 0.004,-0.006 0.007,-0.015 0.009,-0.025 0.002,0.01 0,0.019 -0.005,0.027zm-0.046 -0.024c-0.001,-0.006 0,-0.011 0.003,-0.016 0.003,-0.005 0.006,-0.008 0.011,-0.009 0.005,-0.001 0.009,0.001 0.013,0.005 0.004,0.004 0.006,0.008 0.007,0.014 0.001,0.006 0,0.011 -0.003,0.016 -0.003,0.005 -0.006,0.008 -0.011,0.008 -0.005,0.001 -0.009,-0.001 -0.013,-0.004 -0.004,-0.004 -0.006,-0.008 -0.007,-0.014zm-0.011 -0.182c-0.011,0.005 -0.021,0.012 -0.03,0.021 -0.008,0.008 -0.015,0.018 -0.022,0.03l-0.002 0.004 -0.002 0.004 -0.004 0.009 -0.003 0.009 -0.003 0.009c0.002,-0.013 0.007,-0.026 0.012,-0.037 0.006,-0.012 0.013,-0.023 0.022,-0.032 0.01,-0.01 0.02,-0.017 0.032,-0.021 0.006,-0.002 0.011,-0.004 0.018,-0.005l0.005 -0 0.005 -0 0.009 0c-0.013,0.001 -0.025,0.004 -0.035,0.009zm0.073 -0.022c-0.045,-0.012 -0.082,-0.004 -0.112,0.024 -0.026,0.025 -0.043,0.06 -0.049,0.106 -0.006,0.044 -0.001,0.086 0.014,0.124 0.017,0.041 0.043,0.067 0.078,0.077 0.033,0.01 0.064,0.001 0.094,-0.028 0.027,-0.026 0.046,-0.061 0.057,-0.105 0.012,-0.045 0.011,-0.085 -0.001,-0.121 -0.014,-0.04 -0.041,-0.066 -0.081,-0.076z"/>
    </g>
   </g>
  </g>
  <path class="fil2 str0" d="M0.887 1.034l-0.883 0c0,-0.142 0,-0.285 0,-0.427 0.001,-0.037 0.061,-0.017 0.099,0.018 0.276,0.222 0.333,-0.406 0,-0.202 -0.053,0.04 -0.101,0.067 -0.1,0.017l0 -0.435c0.286,0 0.572,0 0.858,0 0.166,-0.005 0.168,0.019 0.171,0.15 0.006,0.229 0.01,0.458 0,0.687 -0.008,0.18 -0.014,0.192 -0.146,0.192z"/>
 </g>
</svg>
