<?xml version="1.0" encoding="UTF-8"?>
<!DOCTYPE svg PUBLIC "-//W3C//DTD SVG 1.1//EN" "http://www.w3.org/Graphics/SVG/1.1/DTD/svg11.dtd">
<!-- Creator: CorelDRAW 2019 (64-Bit) -->
<svg xmlns="http://www.w3.org/2000/svg" xml:space="preserve" width="1.47801cm" height="0.90544cm" version="1.1" style="shape-rendering:geometricPrecision; text-rendering:geometricPrecision; image-rendering:optimizeQuality; fill-rule:evenodd; clip-rule:evenodd"
viewBox="0 0 3.179 1.948"
 xmlns:xlink="http://www.w3.org/1999/xlink"
 xmlns:xodm="http://www.corel.com/coreldraw/odm/2003">
 <defs>
  <style type="text/css">
   <![CDATA[
    .str0 {stroke:white;stroke-width:0.016;stroke-linejoin:round;stroke-miterlimit:22.9256}
    .fil2 {fill:none}
    .fil0 {fill:#FFFF99}
    .fil1 {fill:#A39F6B;fill-rule:nonzero}
   ]]>
  </style>
   <clipPath id="id0">
    <path d="M2.555 0.008l0 0.811c-0.003,0.089 0.087,0.038 0.187,-0.037 0.624,-0.381 0.517,0.796 -0.001,0.38 -0.072,-0.066 -0.184,-0.104 -0.186,-0.034l0 0.811 -1.932 0c0,-0.267 0,-0.534 0,-0.806 0.003,-0.094 -0.087,-0.043 -0.187,0.032 -0.624,0.381 -0.517,-0.796 0.001,-0.38 0.072,0.066 0.184,0.104 0.186,0.034l0 -0.811 1.932 0z"/>
   </clipPath>
 </defs>
 <g id="Слой_x0020_1">
  <metadata id="CorelCorpID_0Corel-Layer"/>
  <path class="fil0" d="M2.555 0.008l0 0.811c-0.003,0.089 0.087,0.038 0.187,-0.037 0.624,-0.381 0.517,0.796 -0.001,0.38 -0.072,-0.066 -0.184,-0.104 -0.186,-0.034l0 0.811 -1.932 0c0,-0.267 0,-0.534 0,-0.806 0.003,-0.094 -0.087,-0.043 -0.187,0.032 -0.624,0.381 -0.517,-0.796 0.001,-0.38 0.072,0.066 0.184,0.104 0.186,0.034l0 -0.811 1.932 0z"/>
  <g style="clip-path:url(#id0)">
   <g id="_2230105483680">
    <path id="1" class="fil1" d="M-2.455 0.289c-0.019,0.003 -0.035,0.006 -0.047,0.01 -0.018,0.005 -0.032,0.012 -0.043,0.02 -0.008,0.006 -0.014,0.011 -0.017,0.016 -0.005,0.006 -0.007,0.014 -0.007,0.024 -0.002,-0.009 -0.001,-0.018 0.004,-0.026 0.003,-0.007 0.009,-0.014 0.017,-0.02 0.011,-0.008 0.026,-0.016 0.045,-0.022 0.03,-0.009 0.063,-0.012 0.097,-0.008 -0.018,0.002 -0.034,0.004 -0.048,0.006zm0.078 -0.04c-0.067,-0.004 -0.121,0.004 -0.162,0.024 -0.044,0.021 -0.064,0.05 -0.061,0.089 0.002,0.022 0.01,0.037 0.025,0.047 0.011,0.007 0.027,0.012 0.049,0.015l0.014 0.001 0.013 0.001c0.01,0.001 0.018,0.002 0.024,0.004 0.017,0.004 0.027,0.011 0.031,0.022 0.002,0.007 -0,0.045 -0.007,0.116 -0.004,0.036 -0.006,0.066 -0.007,0.092 -0.002,0.036 -0.001,0.067 0.001,0.094 0.003,0.04 0.016,0.073 0.038,0.098 0.023,0.026 0.05,0.037 0.083,0.033 0.059,-0.009 0.08,-0.072 0.064,-0.19 -0.008,-0.062 -0.013,-0.116 -0.013,-0.16 -0.001,-0.047 0.004,-0.075 0.012,-0.082 0.006,-0.005 0.017,-0.008 0.032,-0.008 0.004,0 0.011,0 0.021,0l0.011 0 0.011 -0c0.018,-0 0.032,-0.003 0.042,-0.008 0.013,-0.007 0.022,-0.018 0.027,-0.034 0.005,-0.02 0.003,-0.039 -0.008,-0.057 -0.011,-0.017 -0.028,-0.032 -0.052,-0.046 -0.048,-0.028 -0.111,-0.044 -0.187,-0.048z"/>
    <path id="2" class="fil1" d="M-1.71 0.295c-0.005,0.005 -0.011,0.012 -0.016,0.02 -0.008,0.012 -0.017,0.027 -0.028,0.046l-0.007 0.012 -0.007 0.012c-0.005,0.009 -0.01,0.017 -0.014,0.023 -0.007,0.009 -0.012,0.016 -0.017,0.021 -0.008,0.007 -0.015,0.011 -0.023,0.013 0.008,-0.003 0.014,-0.009 0.02,-0.016 0.004,-0.005 0.009,-0.013 0.015,-0.022 0.003,-0.006 0.007,-0.014 0.013,-0.024l0.013 -0.024c0.011,-0.02 0.021,-0.035 0.029,-0.046 0.007,-0.008 0.013,-0.015 0.019,-0.02 0.009,-0.007 0.017,-0.01 0.024,-0.01 -0.007,0.001 -0.014,0.006 -0.021,0.013zm-0.263 0.399c-0.007,0.005 -0.012,0.01 -0.016,0.013 -0.013,0.01 -0.022,0.02 -0.029,0.029 -0.004,0.006 -0.007,0.012 -0.01,0.018 -0.002,0.005 -0.004,0.012 -0.006,0.021 -0,-0.007 0,-0.015 0.002,-0.023 0.002,-0.007 0.005,-0.014 0.009,-0.021 0.006,-0.01 0.016,-0.021 0.029,-0.032 0.009,-0.007 0.021,-0.015 0.034,-0.024l0.009 -0.006 0.009 -0.006c0.007,-0.004 0.013,-0.008 0.017,-0.012 -0.007,0.009 -0.018,0.019 -0.031,0.029l-0.016 0.012zm-0.069 -0.361c-0.004,0.006 -0.007,0.013 -0.009,0.021 -0.002,0.007 -0.003,0.015 -0.003,0.024 -0.003,-0.008 -0.004,-0.017 -0.003,-0.026 0.001,-0.009 0.004,-0.017 0.009,-0.025 0.005,-0.008 0.012,-0.013 0.019,-0.017 0.008,-0.004 0.016,-0.005 0.024,-0.003 -0.016,0.004 -0.028,0.012 -0.037,0.025zm0.353 -0.086c-0.016,-0 -0.033,0.008 -0.049,0.025 -0.012,0.012 -0.025,0.031 -0.04,0.056l-0.009 0.015 -0.004 0.007 -0.004 0.007c-0.007,0.012 -0.011,0.02 -0.015,0.026 -0.01,0.017 -0.019,0.025 -0.025,0.026 -0.006,0 -0.019,-0.012 -0.039,-0.035l-0.003 -0.004 -0.004 -0.004c-0.003,-0.003 -0.005,-0.006 -0.007,-0.008 -0.006,-0.007 -0.011,-0.013 -0.016,-0.019 -0.013,-0.014 -0.026,-0.027 -0.039,-0.039 -0.02,-0.018 -0.042,-0.027 -0.064,-0.027 -0.02,0 -0.038,0.007 -0.053,0.022 -0.015,0.015 -0.024,0.033 -0.027,0.055 -0.004,0.023 0.001,0.047 0.013,0.07 0.009,0.017 0.022,0.034 0.039,0.053 0.007,0.007 0.014,0.015 0.023,0.024l0.011 0.011 0.011 0.011c0.019,0.018 0.032,0.031 0.039,0.04 0.011,0.014 0.017,0.026 0.018,0.036 0.001,0.011 -0.005,0.023 -0.019,0.035 -0.005,0.005 -0.012,0.01 -0.021,0.017l-0.006 0.004 -0.006 0.004 -0.013 0.009c-0.021,0.015 -0.037,0.03 -0.047,0.044 -0.015,0.02 -0.023,0.042 -0.024,0.066 -0.001,0.019 0.002,0.036 0.009,0.052 0.007,0.016 0.017,0.029 0.031,0.039 0.03,0.022 0.068,0.025 0.114,0.011 0.061,-0.02 0.121,-0.077 0.182,-0.17 0.054,-0.084 0.089,-0.164 0.104,-0.24 0.016,-0.078 0.016,-0.135 0.002,-0.172 -0.012,-0.031 -0.033,-0.047 -0.065,-0.047z"/>
    <path id="3" class="fil1" d="M-1.078 0.346c0.003,-0.008 0.007,-0.016 0.012,-0.023 0.006,-0.008 0.012,-0.014 0.018,-0.018 0.008,-0.005 0.016,-0.007 0.023,-0.005 -0.007,0.002 -0.014,0.005 -0.02,0.011 -0.005,0.005 -0.011,0.01 -0.015,0.017 -0.004,0.006 -0.008,0.012 -0.013,0.02l-0.006 0.011 -0.006 0.011c0.001,-0.008 0.003,-0.016 0.007,-0.024zm-0.161 -0.061c-0.003,0.001 -0.005,0.002 -0.008,0.004 -0.005,0.003 -0.009,0.007 -0.013,0.011 -0.005,0.007 -0.01,0.018 -0.014,0.034 -0.002,-0.007 -0.002,-0.013 -0.001,-0.02 0.001,-0.007 0.004,-0.013 0.008,-0.019 0.005,-0.006 0.01,-0.01 0.016,-0.012 0.003,-0.001 0.006,-0.001 0.01,-0.001 0.003,0 0.006,0 0.009,0.001l-0.004 0.001 -0.004 0.001zm-0.147 0.275c-0.003,0.003 -0.008,0.007 -0.013,0.01l-0.007 0.004 -0.007 0.004c-0.018,0.011 -0.035,0.024 -0.05,0.037 -0.016,0.014 -0.03,0.029 -0.043,0.046 -0.012,0.017 -0.023,0.036 -0.031,0.057 0.002,-0.01 0.006,-0.021 0.01,-0.032 0.005,-0.011 0.01,-0.02 0.016,-0.029 0.011,-0.017 0.025,-0.034 0.043,-0.049 0.017,-0.015 0.035,-0.027 0.053,-0.036l0.007 -0.004 0.007 -0.003c0.005,-0.003 0.009,-0.006 0.012,-0.008 0.009,-0.007 0.013,-0.016 0.015,-0.028 0.001,0.011 -0.003,0.022 -0.012,0.031zm-0.105 -0.236c-0.004,0.006 -0.006,0.013 -0.008,0.022 -0.001,0.006 -0.002,0.014 -0.002,0.024 -0.007,-0.017 -0.006,-0.034 0.004,-0.051 0.005,-0.008 0.011,-0.014 0.018,-0.018 0.008,-0.004 0.016,-0.006 0.024,-0.004 -0.015,0.003 -0.026,0.012 -0.035,0.027zm0.433 0.208c-0.012,-0.007 -0.015,-0.013 -0.01,-0.018 0.002,-0.002 0.012,-0.009 0.03,-0.02 0.009,-0.006 0.016,-0.011 0.022,-0.016 0.009,-0.007 0.016,-0.014 0.023,-0.022 0.017,-0.02 0.029,-0.042 0.036,-0.068 0.007,-0.025 0.006,-0.048 -0.002,-0.069 -0.007,-0.02 -0.019,-0.034 -0.035,-0.043 -0.017,-0.01 -0.034,-0.011 -0.051,-0.005 -0.02,0.007 -0.036,0.023 -0.051,0.048 -0.011,0.019 -0.019,0.041 -0.024,0.064 -0.004,0.018 -0.008,0.029 -0.014,0.035 -0.005,0.006 -0.007,0.003 -0.007,-0.01 0,-0.055 -0.009,-0.096 -0.026,-0.124 -0.017,-0.027 -0.042,-0.039 -0.075,-0.036 -0.011,0.001 -0.021,0.005 -0.03,0.012 -0.01,0.007 -0.018,0.017 -0.024,0.028 -0.014,0.029 -0.012,0.067 0.005,0.112 0.004,0.012 0.005,0.019 0.001,0.021 -0.004,0.002 -0.01,0 -0.019,-0.006 -0.022,-0.017 -0.044,-0.046 -0.067,-0.09 -0.015,-0.028 -0.032,-0.047 -0.053,-0.056 -0.019,-0.008 -0.037,-0.009 -0.056,-0.001 -0.018,0.008 -0.031,0.021 -0.041,0.041 -0.01,0.02 -0.013,0.043 -0.008,0.068 0.005,0.027 0.016,0.051 0.034,0.073 0.012,0.015 0.029,0.029 0.051,0.044 0.003,0.002 0.007,0.004 0.011,0.008l0.005 0.003 0.005 0.003c0.007,0.005 0.012,0.009 0.015,0.012 0.007,0.007 0.004,0.014 -0.007,0.02 -0.063,0.033 -0.108,0.077 -0.135,0.133 -0.013,0.027 -0.02,0.053 -0.021,0.079 -0.001,0.027 0.005,0.052 0.017,0.074 0.011,0.02 0.026,0.034 0.044,0.042 0.018,0.008 0.036,0.009 0.056,0.003 0.02,-0.006 0.038,-0.019 0.054,-0.038 0.017,-0.021 0.03,-0.048 0.038,-0.081 0.014,-0.054 0.029,-0.088 0.046,-0.101 0.006,-0.005 0.011,-0.005 0.015,-0.002 0.003,0.003 0.005,0.009 0.003,0.017l-0 0.001 -0 0.002c-0,0.002 -0.001,0.003 -0.001,0.004 -0.001,0.004 -0.001,0.007 -0.002,0.011 -0.002,0.009 -0.003,0.019 -0.004,0.028 -0.003,0.026 -0.004,0.05 -0.003,0.071 0.003,0.064 0.025,0.098 0.065,0.102 0.03,0.003 0.055,-0.01 0.075,-0.039 0.019,-0.028 0.031,-0.068 0.036,-0.119 0.001,-0.015 0.004,-0.021 0.009,-0.017 0.001,0.001 0.003,0.004 0.005,0.007 0.001,0.003 0.002,0.006 0.003,0.009 0.001,0.006 0.003,0.011 0.004,0.016 0.01,0.035 0.023,0.063 0.04,0.085 0.016,0.02 0.033,0.033 0.052,0.039 0.019,0.006 0.036,0.005 0.054,-0.003 0.017,-0.008 0.032,-0.022 0.043,-0.041 0.013,-0.022 0.019,-0.047 0.019,-0.074 -0,-0.026 -0.007,-0.053 -0.019,-0.08 -0.026,-0.057 -0.07,-0.103 -0.132,-0.137z"/>
    <path id="4" class="fil1" d="M-0.328 0.295c-0.005,0.005 -0.011,0.012 -0.016,0.02 -0.008,0.012 -0.017,0.027 -0.028,0.046l-0.007 0.012 -0.007 0.012c-0.005,0.009 -0.01,0.017 -0.014,0.023 -0.007,0.009 -0.012,0.016 -0.017,0.021 -0.008,0.007 -0.015,0.011 -0.023,0.013 0.008,-0.003 0.014,-0.009 0.02,-0.016 0.004,-0.005 0.009,-0.013 0.015,-0.022 0.003,-0.006 0.007,-0.014 0.013,-0.024l0.013 -0.024c0.011,-0.02 0.021,-0.035 0.029,-0.046 0.007,-0.008 0.013,-0.015 0.019,-0.02 0.009,-0.007 0.017,-0.01 0.024,-0.01 -0.007,0.001 -0.014,0.006 -0.021,0.013zm-0.263 0.399c-0.007,0.005 -0.012,0.01 -0.016,0.013 -0.013,0.01 -0.022,0.02 -0.029,0.029 -0.004,0.006 -0.007,0.012 -0.01,0.018 -0.002,0.005 -0.004,0.012 -0.006,0.021 -0,-0.007 0,-0.015 0.002,-0.023 0.002,-0.007 0.005,-0.014 0.009,-0.021 0.006,-0.01 0.016,-0.021 0.029,-0.032 0.009,-0.007 0.021,-0.015 0.034,-0.024l0.009 -0.006 0.009 -0.006c0.007,-0.004 0.013,-0.008 0.017,-0.012 -0.007,0.009 -0.018,0.019 -0.031,0.029l-0.016 0.012zm-0.069 -0.361c-0.004,0.006 -0.007,0.013 -0.009,0.021 -0.002,0.007 -0.003,0.015 -0.003,0.024 -0.003,-0.008 -0.004,-0.017 -0.003,-0.026 0.001,-0.009 0.004,-0.017 0.009,-0.025 0.005,-0.008 0.012,-0.013 0.019,-0.017 0.008,-0.004 0.016,-0.005 0.024,-0.003 -0.016,0.004 -0.028,0.012 -0.037,0.025zm0.353 -0.086c-0.016,0 -0.033,0.008 -0.049,0.025 -0.012,0.012 -0.025,0.031 -0.04,0.056l-0.009 0.015 -0.004 0.007 -0.004 0.007c-0.007,0.012 -0.011,0.02 -0.015,0.026 -0.01,0.017 -0.019,0.025 -0.025,0.026 -0.006,0 -0.019,-0.012 -0.039,-0.035l-0.003 -0.004 -0.004 -0.004c-0.003,-0.003 -0.005,-0.006 -0.007,-0.008 -0.006,-0.007 -0.011,-0.013 -0.016,-0.019 -0.013,-0.014 -0.026,-0.027 -0.039,-0.039 -0.02,-0.018 -0.042,-0.027 -0.064,-0.027 -0.02,-0 -0.038,0.007 -0.053,0.022 -0.015,0.015 -0.024,0.033 -0.027,0.055 -0.004,0.023 0.001,0.047 0.013,0.07 0.009,0.017 0.022,0.034 0.039,0.053 0.007,0.007 0.014,0.015 0.023,0.024l0.011 0.011 0.011 0.011c0.019,0.018 0.032,0.031 0.039,0.04 0.011,0.014 0.017,0.026 0.018,0.036 0.001,0.011 -0.005,0.023 -0.019,0.035 -0.005,0.005 -0.012,0.01 -0.021,0.017l-0.006 0.004 -0.006 0.004 -0.013 0.009c-0.021,0.015 -0.037,0.03 -0.047,0.044 -0.015,0.02 -0.023,0.042 -0.024,0.066 -0.001,0.019 0.002,0.036 0.009,0.052 0.007,0.016 0.017,0.029 0.031,0.039 0.03,0.022 0.068,0.026 0.114,0.011 0.061,-0.02 0.121,-0.077 0.182,-0.17 0.054,-0.084 0.089,-0.164 0.104,-0.24 0.016,-0.078 0.016,-0.135 0.002,-0.172 -0.012,-0.031 -0.033,-0.047 -0.065,-0.047z"/>
    <path id="5" class="fil1" d="M0.267 0.293c-0.006,0.005 -0.013,0.012 -0.02,0.02 -0.009,0.012 -0.02,0.028 -0.033,0.048l-0.008 0.012 -0.008 0.012c-0.007,0.009 -0.013,0.017 -0.019,0.023 -0.008,0.007 -0.015,0.013 -0.023,0.017 -0.01,0.005 -0.019,0.006 -0.028,0.005 0.017,-0.002 0.032,-0.011 0.047,-0.028 0.005,-0.006 0.011,-0.014 0.017,-0.023l0.008 -0.012 0.008 -0.012c0.014,-0.021 0.025,-0.037 0.035,-0.048 0.008,-0.008 0.015,-0.015 0.022,-0.019 0.009,-0.005 0.018,-0.008 0.027,-0.007 -0.01,0.001 -0.018,0.004 -0.025,0.01zm-0.33 0.04c-0.01,0.013 -0.019,0.03 -0.028,0.05 -0.006,0.012 -0.013,0.031 -0.022,0.055 -0.003,0.009 -0.006,0.019 -0.009,0.028l-0.005 0.014 -0.005 0.014c0.007,-0.042 0.019,-0.08 0.034,-0.115 0.01,-0.022 0.02,-0.039 0.031,-0.051 0.006,-0.007 0.014,-0.014 0.022,-0.019 0.009,-0.005 0.018,-0.008 0.027,-0.007 -0.016,0.002 -0.03,0.012 -0.045,0.031zm0.498 0.22c-0.003,-0.089 -0.018,-0.161 -0.044,-0.217 -0.024,-0.053 -0.053,-0.081 -0.087,-0.086 -0.025,-0.004 -0.047,0.004 -0.068,0.021 -0.015,0.014 -0.036,0.041 -0.06,0.08 -0.021,0.034 -0.039,0.05 -0.054,0.046 -0.01,-0.002 -0.022,-0.016 -0.037,-0.041 -0.017,-0.029 -0.034,-0.05 -0.049,-0.064 -0.02,-0.018 -0.04,-0.026 -0.062,-0.024 -0.057,0.006 -0.103,0.078 -0.138,0.217 -0.022,0.089 -0.031,0.169 -0.027,0.24 0.005,0.081 0.027,0.126 0.067,0.135 0.023,0.005 0.044,-0.001 0.061,-0.019 0.014,-0.014 0.026,-0.036 0.038,-0.065 0.004,-0.01 0.008,-0.022 0.013,-0.038l0.003 -0.009 0.003 -0.009c0.002,-0.007 0.004,-0.012 0.005,-0.016 0.009,-0.024 0.016,-0.037 0.023,-0.039 0.005,-0.002 0.01,0.002 0.015,0.014 0.002,0.003 0.004,0.009 0.007,0.018l0.002 0.005 0.002 0.005 0.004 0.011c0.007,0.018 0.015,0.032 0.022,0.041 0.011,0.013 0.025,0.019 0.04,0.02 0.012,0 0.023,-0.005 0.033,-0.015 0.007,-0.007 0.015,-0.017 0.025,-0.032l0.005 -0.008 0.005 -0.008c0.004,-0.006 0.007,-0.011 0.01,-0.014 0.007,-0.008 0.014,-0.011 0.02,-0.008 0.007,0.003 0.013,0.014 0.02,0.035 0.001,0.004 0.003,0.009 0.004,0.015l0.003 0.008 0.002 0.008c0.004,0.014 0.008,0.025 0.011,0.034 0.01,0.027 0.021,0.048 0.032,0.063 0.015,0.019 0.034,0.029 0.055,0.029 0.037,0.001 0.062,-0.03 0.078,-0.094 0.013,-0.056 0.018,-0.136 0.015,-0.238z"/>
    <path id="6" class="fil1" d="M0.756 0.686c-0.005,0.008 -0.012,0.014 -0.019,0.018 -0.008,0.005 -0.015,0.007 -0.024,0.006 0.015,-0.006 0.027,-0.016 0.036,-0.029 0.008,-0.012 0.014,-0.027 0.017,-0.046 0.004,0.018 0,0.035 -0.01,0.051zm-0.085 -0.045c-0.002,-0.011 0,-0.022 0.005,-0.031 0.005,-0.009 0.012,-0.014 0.021,-0.016 0.009,-0.002 0.017,0.001 0.024,0.008 0.007,0.007 0.012,0.016 0.014,0.027 0.002,0.011 0,0.021 -0.005,0.03 -0.005,0.009 -0.012,0.014 -0.021,0.016 -0.009,0.002 -0.017,-0.001 -0.024,-0.008 -0.007,-0.007 -0.012,-0.016 -0.013,-0.027zm-0.021 -0.341c-0.021,0.009 -0.04,0.022 -0.056,0.039 -0.015,0.015 -0.029,0.034 -0.042,0.057l-0.004 0.008 -0.004 0.008 -0.007 0.016 -0.007 0.017 -0.006 0.017c0.005,-0.025 0.012,-0.048 0.023,-0.07 0.011,-0.023 0.025,-0.043 0.042,-0.06 0.018,-0.018 0.038,-0.031 0.059,-0.039 0.01,-0.004 0.022,-0.007 0.034,-0.008l0.009 -0.001 0.009 -0 0.017 0c-0.025,0.002 -0.047,0.007 -0.066,0.016zm0.137 -0.041c-0.084,-0.022 -0.155,-0.008 -0.211,0.045 -0.05,0.046 -0.081,0.112 -0.093,0.198 -0.012,0.083 -0.003,0.161 0.027,0.232 0.032,0.077 0.081,0.125 0.147,0.144 0.062,0.018 0.121,0.001 0.176,-0.052 0.05,-0.049 0.086,-0.114 0.107,-0.197 0.022,-0.084 0.021,-0.16 -0.002,-0.227 -0.026,-0.076 -0.076,-0.123 -0.152,-0.144z"/>
    <path id="7" class="fil1" d="M1.316 0.319c-0.007,0.009 -0.015,0.019 -0.022,0.032 -0.013,0.022 -0.024,0.046 -0.033,0.072l-0.007 0.019 -0.006 0.019c-0.005,0.017 -0.01,0.029 -0.013,0.038 -0.007,0.016 -0.013,0.028 -0.019,0.036 -0.005,0.006 -0.01,0.01 -0.015,0.012 -0.005,0.002 -0.011,0.003 -0.019,0.002 0.007,-0 0.013,-0.002 0.018,-0.004 0.005,-0.003 0.009,-0.007 0.014,-0.013 0.005,-0.007 0.01,-0.019 0.016,-0.035l0.006 -0.019 0.006 -0.019c0.005,-0.015 0.009,-0.028 0.013,-0.038 0.01,-0.028 0.022,-0.051 0.035,-0.072 0.018,-0.027 0.036,-0.045 0.054,-0.055 -0.01,0.007 -0.019,0.016 -0.027,0.027zm-0.271 0.103c-0.004,0.018 -0.007,0.039 -0.01,0.065l-0.004 0.032 -0.004 0.033c-0.002,-0.065 0.004,-0.123 0.021,-0.173 0.003,-0.01 0.007,-0.019 0.01,-0.027 0.004,-0.011 0.009,-0.02 0.014,-0.027 0.013,-0.02 0.028,-0.029 0.045,-0.028 -0.021,0.002 -0.038,0.018 -0.051,0.049 -0.005,0.011 -0.009,0.025 -0.013,0.04 -0.001,0.006 -0.003,0.012 -0.004,0.02l-0.002 0.008 -0.001 0.004 -0.001 0.004zm0.376 -0.16c-0.033,-0.022 -0.068,-0.02 -0.102,0.005 -0.028,0.021 -0.053,0.054 -0.075,0.1 -0.007,0.015 -0.014,0.032 -0.021,0.052 -0.003,0.007 -0.005,0.015 -0.008,0.025l-0.004 0.012 -0.002 0.006 -0.002 0.005c-0.005,0.016 -0.009,0.028 -0.012,0.034 -0.004,0.008 -0.008,0.013 -0.012,0.012 -0.007,-0.001 -0.011,-0.007 -0.011,-0.018 -0,-0.01 0.002,-0.033 0.006,-0.069 0.009,-0.065 0.005,-0.111 -0.012,-0.138 -0.013,-0.021 -0.034,-0.03 -0.063,-0.026 -0.035,0.005 -0.063,0.041 -0.083,0.108 -0.02,0.064 -0.028,0.143 -0.025,0.236 0.005,0.17 0.051,0.262 0.139,0.275 0.026,0.003 0.051,-0.003 0.076,-0.02 0.024,-0.016 0.044,-0.038 0.061,-0.066 0.015,-0.025 0.027,-0.047 0.037,-0.068 0.004,-0.008 0.007,-0.016 0.011,-0.024 0.003,-0.005 0.005,-0.011 0.007,-0.017 0.004,-0.011 0.007,-0.018 0.009,-0.02 0.002,-0.003 0.005,-0.004 0.008,-0.003 0.003,0.001 0.004,0.014 0.001,0.037l-0.001 0.008 -0.001 0.009c-0.001,0.007 -0.002,0.013 -0.002,0.019 -0.001,0.015 -0.002,0.029 -0.002,0.041 -0.002,0.072 0.022,0.108 0.071,0.108 0.032,-0 0.056,-0.029 0.074,-0.088 0.016,-0.052 0.023,-0.117 0.023,-0.197 0,-0.077 -0.007,-0.148 -0.022,-0.21 -0.016,-0.068 -0.038,-0.11 -0.064,-0.128zm-0.217 -0.075c0.015,-0.002 0.027,-0.005 0.038,-0.009 0.013,-0.005 0.024,-0.012 0.034,-0.02 0.002,-0.002 0.004,-0.004 0.007,-0.007l0.007 -0.008 0.004 -0.004c0.001,-0.002 0.003,-0.003 0.004,-0.003 0.002,-0.001 0.003,-0.001 0.005,-0.002l0.003 0 0.002 0 -0.002 0 -0.003 0.001c-0.002,0.001 -0.003,0.001 -0.004,0.002 -0.001,0.001 -0.002,0.002 -0.003,0.004l-0.003 0.004c-0.005,0.007 -0.01,0.013 -0.013,0.017 -0.004,0.005 -0.01,0.009 -0.016,0.014 -0.005,0.003 -0.011,0.006 -0.019,0.009 -0.013,0.005 -0.026,0.008 -0.04,0.008l-0.01 0 -0.01 -0c-0.009,-0 -0.015,0.001 -0.019,0.003 0.002,-0.002 0.005,-0.004 0.009,-0.005l0.005 -0.001 0.005 -0.001 0.02 -0.002zm0.153 -0.031c0,-0.02 -0.006,-0.035 -0.018,-0.045 -0.012,-0.011 -0.026,-0.014 -0.042,-0.01 -0.01,0.002 -0.019,0.009 -0.028,0.02l-0.005 0.007c-0.002,0.002 -0.004,0.004 -0.006,0.006 -0.005,0.005 -0.01,0.008 -0.015,0.012 -0.008,0.004 -0.018,0.008 -0.027,0.009 -0.003,0.001 -0.008,0.001 -0.012,0.001l-0.006 0 -0.006 0c-0.019,0.001 -0.034,0.005 -0.043,0.012 -0.01,0.007 -0.015,0.017 -0.016,0.03 -0.001,0.011 0.002,0.022 0.007,0.032 0.009,0.017 0.026,0.029 0.05,0.034 0.023,0.005 0.047,0.004 0.074,-0.003 0.027,-0.007 0.049,-0.02 0.066,-0.037 0.019,-0.019 0.028,-0.042 0.028,-0.068z"/>
    <path id="8" class="fil1" d="M1.603 0.743c-0.007,0.009 -0.014,0.02 -0.019,0.036 -0.002,-0.015 0.003,-0.029 0.013,-0.042 0.005,-0.006 0.011,-0.01 0.017,-0.013 0.007,-0.003 0.014,-0.003 0.021,-0.002 -0.012,0.003 -0.023,0.01 -0.032,0.021zm0.031 -0.056c-0.021,0 -0.039,0.009 -0.055,0.026 -0.016,0.017 -0.025,0.037 -0.028,0.061 -0.002,0.017 -0,0.033 0.004,0.048 0.005,0.015 0.013,0.029 0.023,0.04 0.008,0.008 0.01,0.022 0.007,0.041l-0.001 0.005 -0.001 0.005c-0.001,0.004 -0.001,0.007 -0.001,0.01 -0.001,0.007 0.001,0.012 0.003,0.015 0.007,0.008 0.017,0.01 0.03,0.006 0.012,-0.004 0.026,-0.013 0.04,-0.028 0.033,-0.034 0.053,-0.073 0.058,-0.119 0.004,-0.03 -0.003,-0.056 -0.019,-0.078 -0.016,-0.022 -0.036,-0.032 -0.06,-0.032z"/>
    <path id="9" class="fil1" d="M-2.306 1.63c-0.005,0.01 -0.011,0.017 -0.02,0.022 -0.009,0.005 -0.018,0.007 -0.027,0.005 0.009,-0.002 0.017,-0.005 0.024,-0.011 0.007,-0.006 0.013,-0.013 0.016,-0.021 0.007,-0.015 0.008,-0.034 0.004,-0.056 0.005,0.008 0.008,0.018 0.008,0.029 0.001,0.011 -0.001,0.021 -0.005,0.031zm-0.076 -0.027c-0.004,-0.008 -0.006,-0.017 -0.005,-0.026 0.001,-0.008 0.004,-0.015 0.01,-0.018 0.006,-0.004 0.012,-0.004 0.019,0 0.007,0.004 0.013,0.01 0.018,0.018 0.004,0.009 0.006,0.017 0.005,0.026 -0.001,0.009 -0.004,0.015 -0.01,0.018 -0.006,0.004 -0.012,0.004 -0.019,0 -0.007,-0.004 -0.013,-0.01 -0.018,-0.018zm-0.036 -0.185c0.006,-0.002 0.012,-0.004 0.018,-0.008 0.006,-0.004 0.011,-0.008 0.015,-0.012 0.004,-0.005 0.008,-0.01 0.012,-0.017 0.003,-0.006 0.006,-0.012 0.008,-0.019 0.002,0.015 -0.003,0.029 -0.014,0.041 -0.005,0.006 -0.011,0.01 -0.018,0.012 -0.007,0.003 -0.014,0.003 -0.02,0.002zm-0.009 -0.064c0.003,-0.006 0.007,-0.01 0.012,-0.012 0.005,-0.002 0.009,-0.002 0.013,0 0.003,0.002 0.006,0.006 0.006,0.012 0.001,0.006 -0.001,0.011 -0.004,0.017 -0.003,0.006 -0.007,0.01 -0.012,0.012 -0.005,0.002 -0.009,0.002 -0.013,0 -0.004,-0.002 -0.006,-0.006 -0.006,-0.012 -0.001,-0.006 0.001,-0.011 0.004,-0.017zm-0.069 -0.079c-0.007,0.007 -0.013,0.016 -0.02,0.027 -0.01,0.017 -0.02,0.037 -0.029,0.062 -0.007,0.019 -0.013,0.042 -0.019,0.067 0.002,-0.023 0.007,-0.046 0.013,-0.069 0.007,-0.024 0.016,-0.045 0.028,-0.065 0.014,-0.022 0.029,-0.039 0.047,-0.05 0.011,-0.007 0.021,-0.012 0.031,-0.014 0.011,-0.003 0.022,-0.004 0.032,-0.003 -0.022,0.002 -0.042,0.01 -0.06,0.023 -0.009,0.007 -0.017,0.014 -0.024,0.022zm0.176 0.169c-0.005,-0.002 -0.006,-0.007 -0.003,-0.015 0.001,-0.003 0.003,-0.007 0.006,-0.013l0.002 -0.004 0.002 -0.004c0.002,-0.003 0.003,-0.006 0.004,-0.009 0.007,-0.016 0.013,-0.031 0.016,-0.046 0.004,-0.021 0.005,-0.043 0.001,-0.065 -0.004,-0.025 -0.017,-0.046 -0.039,-0.064 -0.022,-0.018 -0.048,-0.027 -0.077,-0.028 -0.032,-0.001 -0.061,0.009 -0.089,0.029 -0.031,0.024 -0.056,0.06 -0.074,0.108 -0.019,0.05 -0.029,0.105 -0.03,0.164 -0.002,0.06 0.006,0.115 0.022,0.166 0.018,0.055 0.045,0.097 0.08,0.126 0.039,0.033 0.087,0.047 0.142,0.043 0.053,-0.004 0.095,-0.022 0.126,-0.056 0.029,-0.03 0.044,-0.068 0.047,-0.113 0.003,-0.044 -0.007,-0.086 -0.03,-0.126 -0.025,-0.043 -0.06,-0.074 -0.106,-0.094z"/>
    <path id="10" class="fil1" d="M-1.856 1.591c-0.006,0.005 -0.012,0.008 -0.018,0.01 -0.007,0.002 -0.013,0.002 -0.02,0 0.012,-0.003 0.023,-0.009 0.033,-0.017 0.008,-0.007 0.016,-0.016 0.025,-0.029 -0.002,0.014 -0.009,0.026 -0.02,0.036zm-0.044 -0.025c-0.006,-0.003 -0.01,-0.008 -0.012,-0.017 -0.002,-0.008 -0.002,-0.017 0.002,-0.026 0.003,-0.009 0.008,-0.016 0.015,-0.02 0.007,-0.004 0.013,-0.005 0.02,-0.003 0.006,0.003 0.011,0.008 0.013,0.016 0.002,0.008 0.001,0.017 -0.002,0.026 -0.003,0.009 -0.008,0.016 -0.015,0.02 -0.007,0.004 -0.013,0.005 -0.02,0.003zm-0.066 -0.239c-0.01,0.015 -0.023,0.036 -0.038,0.062 -0.005,0.009 -0.011,0.02 -0.017,0.032l-0.017 0.032c0.008,-0.022 0.018,-0.044 0.029,-0.068 0.011,-0.022 0.023,-0.043 0.036,-0.064 0.016,-0.024 0.031,-0.043 0.045,-0.057l0.007 -0.006c0.003,-0.002 0.005,-0.004 0.007,-0.006l0.007 -0.006 0.007 -0.005c0.013,-0.007 0.024,-0.011 0.033,-0.01 -0.009,0.001 -0.02,0.005 -0.031,0.014l-0.007 0.005 -0.007 0.006c-0.002,0.002 -0.004,0.004 -0.006,0.006l-0.006 0.007c-0.014,0.016 -0.028,0.035 -0.043,0.057zm0.109 -0.129c-0.035,-0.006 -0.075,0.021 -0.12,0.08 -0.04,0.053 -0.076,0.122 -0.108,0.204 -0.032,0.082 -0.05,0.156 -0.055,0.22 -0.006,0.07 0.007,0.112 0.038,0.124 0.023,0.01 0.046,0.01 0.068,-0.001 0.016,-0.008 0.034,-0.022 0.052,-0.043 0.003,-0.004 0.007,-0.009 0.011,-0.014l0.011 -0.013c0.009,-0.012 0.015,-0.02 0.02,-0.024 0.014,-0.017 0.027,-0.025 0.036,-0.025 0.01,0 0.023,0.008 0.038,0.024 0.005,0.005 0.011,0.012 0.02,0.023l0.011 0.012 0.011 0.013c0.018,0.02 0.035,0.033 0.05,0.04 0.02,0.009 0.04,0.009 0.06,-0.001 0.023,-0.012 0.037,-0.049 0.04,-0.113 0.003,-0.06 -0.003,-0.128 -0.018,-0.204 -0.016,-0.08 -0.037,-0.146 -0.065,-0.201 -0.031,-0.061 -0.064,-0.095 -0.1,-0.101z"/>
    <path id="11" class="fil1" d="M-1.274 1.242c-0.004,0.002 -0.007,0.005 -0.011,0.01 -0.005,0.007 -0.008,0.016 -0.011,0.029 -0.003,0.017 -0.004,0.038 -0.004,0.063l-0 0.008 0 0.008c0,0.007 0,0.012 -0,0.017 -0.001,0.012 -0.004,0.023 -0.008,0.032 -0.004,0.011 -0.01,0.02 -0.018,0.027 -0.008,0.008 -0.017,0.013 -0.026,0.016 0.018,-0.009 0.031,-0.025 0.038,-0.046 0.003,-0.01 0.005,-0.02 0.006,-0.031 0,-0.004 0,-0.009 0,-0.015l-0 -0.008 0 -0.008c-0,-0.027 0.002,-0.048 0.005,-0.065 0.003,-0.013 0.008,-0.024 0.014,-0.03 0.004,-0.005 0.008,-0.007 0.013,-0.009 0.004,-0.002 0.009,-0.002 0.015,-0.002 -0.006,0.001 -0.011,0.002 -0.014,0.004zm-0.276 0.011c-0.01,0.011 -0.017,0.024 -0.022,0.04 -0.004,0.013 -0.008,0.029 -0.013,0.047l-0.005 0.024 -0.005 0.024c0.001,-0.033 0.006,-0.066 0.016,-0.097 0.006,-0.018 0.014,-0.032 0.025,-0.043 0.006,-0.006 0.013,-0.011 0.02,-0.014 0.008,-0.003 0.015,-0.004 0.022,-0.003 -0.014,0.002 -0.027,0.009 -0.038,0.022zm0.288 -0.049c-0.028,0.002 -0.047,0.015 -0.059,0.041 -0.011,0.025 -0.016,0.063 -0.014,0.114 0.001,0.023 -0.004,0.039 -0.014,0.051 -0.008,0.01 -0.019,0.014 -0.032,0.013 -0.013,-0.001 -0.023,-0.007 -0.03,-0.019 -0.007,-0.012 -0.009,-0.027 -0.008,-0.045 0.005,-0.052 0,-0.091 -0.014,-0.118 -0.013,-0.024 -0.035,-0.038 -0.065,-0.043 -0.025,-0.004 -0.047,0.002 -0.066,0.018 -0.019,0.016 -0.033,0.038 -0.042,0.067 -0.017,0.055 -0.026,0.121 -0.027,0.197 -0.001,0.073 0.006,0.142 0.02,0.208 0.011,0.049 0.028,0.084 0.051,0.105 0.019,0.018 0.041,0.025 0.064,0.021 0.052,-0.008 0.076,-0.05 0.071,-0.125 -0.004,-0.055 0.007,-0.082 0.032,-0.082 0.012,0 0.022,0.005 0.029,0.015 0.009,0.013 0.013,0.035 0.011,0.064 -0.003,0.049 0.005,0.086 0.022,0.112 0.015,0.024 0.037,0.036 0.066,0.036 0.048,0 0.082,-0.033 0.101,-0.098 0.014,-0.047 0.023,-0.126 0.026,-0.236 0.003,-0.085 -0.007,-0.155 -0.029,-0.211 -0.023,-0.059 -0.054,-0.087 -0.093,-0.085z"/>
    <path id="12" class="fil1" d="M-0.826 1.64c-0.005,0.008 -0.011,0.014 -0.02,0.018 -0.008,0.004 -0.016,0.005 -0.025,0.003 0.017,-0.003 0.03,-0.012 0.038,-0.026 0.004,-0.006 0.007,-0.014 0.009,-0.023 0.001,-0.008 0.002,-0.017 0.002,-0.026 0.003,0.009 0.005,0.018 0.004,0.027 -0.001,0.01 -0.003,0.018 -0.008,0.026zm-0.072 -0.034c-0.004,-0.009 -0.005,-0.017 -0.004,-0.025 0.001,-0.009 0.004,-0.015 0.01,-0.018 0.006,-0.003 0.012,-0.003 0.019,0.001 0.007,0.004 0.013,0.01 0.017,0.019 0.004,0.009 0.005,0.017 0.004,0.026 -0.001,0.008 -0.005,0.014 -0.011,0.017 -0.006,0.003 -0.012,0.003 -0.019,-0.001 -0.007,-0.004 -0.013,-0.01 -0.017,-0.019zm-0.038 -0.368c-0.005,0.002 -0.011,0.006 -0.017,0.012 -0.01,0.009 -0.019,0.019 -0.028,0.032 -0.007,0.009 -0.015,0.021 -0.024,0.036 -0.003,0.005 -0.007,0.011 -0.011,0.019l-0.011 0.019c0.005,-0.017 0.011,-0.03 0.017,-0.041 0.007,-0.014 0.015,-0.027 0.023,-0.038 0.01,-0.013 0.02,-0.024 0.031,-0.032 0.014,-0.01 0.027,-0.015 0.04,-0.014 -0.007,0.001 -0.013,0.003 -0.019,0.007zm0.106 0.215c-0.014,-0.004 -0.023,-0.013 -0.027,-0.024 -0.003,-0.009 -0.003,-0.023 -0,-0.041 0.001,-0.003 0.001,-0.008 0.002,-0.012l0.002 -0.013c0.002,-0.012 0.004,-0.02 0.005,-0.027 0.003,-0.023 0.004,-0.043 0.002,-0.06 -0.003,-0.025 -0.012,-0.045 -0.026,-0.059 -0.015,-0.015 -0.032,-0.021 -0.052,-0.019 -0.022,0.002 -0.044,0.014 -0.065,0.036 -0.025,0.025 -0.047,0.061 -0.067,0.108 -0.021,0.048 -0.034,0.101 -0.04,0.157 -0.006,0.058 -0.003,0.112 0.009,0.161 0.013,0.053 0.036,0.095 0.067,0.125 0.036,0.033 0.081,0.049 0.136,0.049 0.052,-0.001 0.095,-0.018 0.13,-0.051 0.031,-0.03 0.05,-0.069 0.056,-0.115 0.006,-0.046 -0.001,-0.088 -0.023,-0.127 -0.024,-0.042 -0.06,-0.071 -0.109,-0.088z"/>
    <path id="13" class="fil1" d="M-0.197 1.242c-0.006,0.005 -0.013,0.012 -0.02,0.02 -0.009,0.012 -0.02,0.028 -0.033,0.048l-0.008 0.012 -0.008 0.012c-0.007,0.009 -0.013,0.017 -0.019,0.023 -0.008,0.007 -0.015,0.013 -0.023,0.017 -0.01,0.005 -0.019,0.006 -0.028,0.005 0.017,-0.002 0.032,-0.011 0.047,-0.028 0.005,-0.006 0.011,-0.014 0.017,-0.023l0.008 -0.012 0.008 -0.012c0.014,-0.021 0.025,-0.037 0.035,-0.048 0.008,-0.008 0.015,-0.015 0.022,-0.019 0.009,-0.005 0.018,-0.008 0.027,-0.007 -0.01,0.001 -0.018,0.004 -0.025,0.01zm-0.33 0.04c-0.01,0.013 -0.019,0.03 -0.028,0.05 -0.006,0.012 -0.013,0.031 -0.022,0.055 -0.003,0.009 -0.006,0.019 -0.01,0.028l-0.005 0.014 -0.005 0.014c0.007,-0.042 0.019,-0.08 0.034,-0.115 0.01,-0.022 0.02,-0.039 0.031,-0.051 0.006,-0.007 0.014,-0.014 0.022,-0.019 0.009,-0.005 0.018,-0.008 0.027,-0.007 -0.016,0.002 -0.03,0.012 -0.045,0.031zm0.498 0.22c-0.003,-0.089 -0.018,-0.161 -0.044,-0.217 -0.024,-0.053 -0.053,-0.081 -0.087,-0.086 -0.025,-0.004 -0.047,0.004 -0.068,0.021 -0.015,0.014 -0.036,0.041 -0.06,0.08 -0.021,0.034 -0.039,0.05 -0.054,0.046 -0.01,-0.002 -0.022,-0.016 -0.037,-0.041 -0.017,-0.029 -0.034,-0.05 -0.049,-0.064 -0.02,-0.018 -0.04,-0.026 -0.062,-0.024 -0.057,0.006 -0.103,0.078 -0.138,0.217 -0.022,0.089 -0.031,0.169 -0.027,0.24 0.005,0.081 0.027,0.126 0.067,0.135 0.023,0.005 0.044,-0.001 0.061,-0.019 0.014,-0.014 0.026,-0.036 0.038,-0.065 0.004,-0.01 0.008,-0.022 0.013,-0.038l0.003 -0.009 0.003 -0.009c0.002,-0.007 0.004,-0.012 0.005,-0.016 0.009,-0.024 0.016,-0.037 0.023,-0.039 0.005,-0.002 0.01,0.002 0.015,0.014 0.002,0.003 0.004,0.009 0.007,0.018l0.002 0.005 0.002 0.005 0.004 0.011c0.007,0.018 0.014,0.032 0.022,0.041 0.011,0.013 0.025,0.019 0.04,0.02 0.012,0 0.023,-0.005 0.034,-0.015 0.007,-0.007 0.015,-0.017 0.025,-0.032l0.005 -0.008 0.005 -0.008c0.004,-0.006 0.007,-0.011 0.01,-0.014 0.007,-0.008 0.014,-0.011 0.02,-0.008 0.007,0.003 0.013,0.014 0.02,0.035 0.001,0.004 0.003,0.009 0.004,0.015l0.002 0.008 0.002 0.008c0.004,0.014 0.008,0.025 0.011,0.034 0.01,0.027 0.021,0.048 0.032,0.063 0.015,0.019 0.034,0.029 0.055,0.029 0.037,0.001 0.062,-0.03 0.078,-0.094 0.013,-0.056 0.018,-0.136 0.015,-0.238z"/>
    <path id="14" class="fil1" d="M0.287 1.641c-0.005,0.008 -0.011,0.014 -0.02,0.018 -0.008,0.004 -0.016,0.005 -0.025,0.003 0.017,-0.003 0.03,-0.012 0.038,-0.026 0.004,-0.006 0.007,-0.014 0.009,-0.023 0.001,-0.008 0.002,-0.017 0.002,-0.026 0.003,0.009 0.005,0.018 0.004,0.027 -0.001,0.01 -0.003,0.018 -0.008,0.026zm-0.072 -0.034c-0.004,-0.009 -0.005,-0.017 -0.004,-0.025 0.001,-0.009 0.004,-0.015 0.01,-0.018 0.006,-0.003 0.012,-0.003 0.019,0.001 0.007,0.004 0.013,0.01 0.017,0.019 0.004,0.009 0.005,0.017 0.004,0.026 -0.001,0.008 -0.005,0.014 -0.011,0.017 -0.006,0.003 -0.012,0.003 -0.019,-0.001 -0.007,-0.004 -0.013,-0.01 -0.017,-0.019zm-0.038 -0.368c-0.005,0.003 -0.011,0.007 -0.017,0.012 -0.01,0.009 -0.019,0.019 -0.028,0.032 -0.007,0.009 -0.015,0.021 -0.024,0.036 -0.003,0.005 -0.007,0.011 -0.011,0.019l-0.011 0.019c0.005,-0.017 0.011,-0.03 0.017,-0.041 0.007,-0.014 0.015,-0.027 0.023,-0.038 0.01,-0.013 0.02,-0.024 0.031,-0.032 0.014,-0.01 0.027,-0.015 0.04,-0.014 -0.007,0.001 -0.013,0.004 -0.019,0.007zm0.106 0.215c-0.014,-0.004 -0.023,-0.013 -0.027,-0.024 -0.003,-0.009 -0.003,-0.023 -0,-0.041 0.001,-0.003 0.001,-0.008 0.002,-0.012l0.002 -0.012c0.002,-0.012 0.004,-0.021 0.005,-0.027 0.003,-0.023 0.004,-0.043 0.002,-0.06 -0.003,-0.025 -0.012,-0.045 -0.026,-0.059 -0.015,-0.015 -0.032,-0.021 -0.052,-0.019 -0.022,0.002 -0.044,0.014 -0.065,0.036 -0.025,0.025 -0.047,0.061 -0.067,0.108 -0.021,0.049 -0.034,0.101 -0.04,0.157 -0.006,0.058 -0.003,0.112 0.009,0.161 0.013,0.053 0.036,0.095 0.067,0.125 0.036,0.033 0.081,0.049 0.136,0.049 0.052,-0.001 0.095,-0.018 0.129,-0.051 0.031,-0.03 0.05,-0.069 0.057,-0.115 0.006,-0.046 -0.001,-0.088 -0.023,-0.127 -0.024,-0.042 -0.06,-0.071 -0.109,-0.088zm0.171 -0.205c-0.005,0.004 -0.008,0.01 -0.01,0.017 -0.002,0.006 -0.003,0.013 -0.004,0.021 -0.001,0.011 0.001,0.026 0.003,0.044l0.004 0.022 0.004 0.022c-0.006,-0.016 -0.01,-0.03 -0.014,-0.043 -0.004,-0.017 -0.006,-0.032 -0.005,-0.046 0.001,-0.009 0.002,-0.017 0.004,-0.023 0.003,-0.008 0.008,-0.015 0.013,-0.02 0.011,-0.009 0.025,-0.013 0.041,-0.011 -0.015,0.002 -0.027,0.007 -0.036,0.017zm0.143 0.025c-0.011,-0.024 -0.026,-0.042 -0.045,-0.055 -0.017,-0.012 -0.034,-0.019 -0.053,-0.02 -0.018,-0.001 -0.035,0.002 -0.05,0.01 -0.015,0.008 -0.026,0.019 -0.034,0.034 -0.013,0.028 -0.013,0.069 0.001,0.123 0.002,0.009 0.005,0.02 0.009,0.034l0.005 0.017 0.005 0.017c0.007,0.027 0.012,0.049 0.014,0.067 0.005,0.043 0.007,0.087 0.006,0.133 -0,0.014 -0.001,0.032 -0.002,0.052l-0 0.012 -0 0.011c-0.001,0.008 -0.001,0.015 -0.001,0.02 -0.001,0.028 0.001,0.048 0.004,0.059 0.005,0.015 0.015,0.024 0.03,0.028 0.03,0.007 0.056,-0.01 0.08,-0.052 0.021,-0.037 0.038,-0.088 0.049,-0.154 0.011,-0.063 0.015,-0.125 0.012,-0.187 -0.003,-0.065 -0.013,-0.115 -0.03,-0.149z"/>
    <path id="15" class="fil1" d="M0.881 1.466c-0.008,0.007 -0.018,0.012 -0.029,0.017 -0.012,0.004 -0.022,0.008 -0.028,0.013 -0.01,0.007 -0.016,0.016 -0.017,0.026 -0.001,-0.006 0,-0.011 0.003,-0.017 0.002,-0.005 0.006,-0.01 0.011,-0.014 0.007,-0.006 0.017,-0.011 0.029,-0.015 0.01,-0.004 0.019,-0.008 0.028,-0.014 0.009,-0.007 0.017,-0.015 0.022,-0.024 -0.003,0.011 -0.009,0.02 -0.018,0.029zm-0.116 0.201c-0.014,-0.002 -0.026,-0.002 -0.035,-0.001 -0.007,0.001 -0.013,0.002 -0.015,0.005 -0.002,0.001 -0.004,0.004 -0.005,0.007l-0.001 0.005 -0.001 0.004c0,-0.004 0,-0.007 0,-0.01 0.001,-0.004 0.002,-0.007 0.004,-0.009 0.004,-0.004 0.01,-0.007 0.018,-0.008 0.009,-0.002 0.021,-0.002 0.036,-0.001 0.009,0.001 0.021,0.003 0.035,0.005l0.018 0.003 0.018 0.003c-0.01,0.001 -0.022,0.001 -0.036,0l-0.018 -0.002 -0.018 -0.002zm0.028 -0.414c-0.017,0.008 -0.031,0.015 -0.042,0.022 -0.006,0.004 -0.012,0.009 -0.019,0.014 -0.006,0.005 -0.011,0.01 -0.017,0.017 -0.011,0.014 -0.017,0.029 -0.016,0.045 -0.002,-0.008 -0.001,-0.017 0.001,-0.026 0.002,-0.008 0.006,-0.016 0.011,-0.024 0.008,-0.012 0.02,-0.024 0.036,-0.034 0.028,-0.018 0.058,-0.028 0.09,-0.032 -0.015,0.005 -0.03,0.011 -0.044,0.017zm0.257 0.312c-0.007,-0.011 -0.015,-0.02 -0.024,-0.028 -0.006,-0.006 -0.013,-0.011 -0.022,-0.017l-0.004 -0.003 -0.004 -0.003c-0.003,-0.002 -0.005,-0.004 -0.007,-0.005 -0.004,-0.003 -0.006,-0.007 -0.007,-0.011 -0.001,-0.005 0.003,-0.011 0.01,-0.019 0.003,-0.003 0.006,-0.007 0.011,-0.012l0.003 -0.003 0.004 -0.003 0.007 -0.007c0.012,-0.012 0.021,-0.023 0.028,-0.034 0.009,-0.015 0.015,-0.031 0.018,-0.048 0.007,-0.043 -0.002,-0.08 -0.025,-0.111 -0.025,-0.032 -0.063,-0.053 -0.114,-0.061 -0.025,-0.004 -0.053,-0.004 -0.084,0.002 -0.031,0.006 -0.059,0.015 -0.086,0.029 -0.028,0.015 -0.049,0.032 -0.064,0.053 -0.017,0.023 -0.023,0.047 -0.02,0.072 0.007,0.064 0.057,0.083 0.15,0.056 0.015,-0.004 0.028,-0.006 0.038,-0.005 0.008,0.001 0.013,0.004 0.015,0.009 0.002,0.005 -0,0.01 -0.006,0.016 -0.006,0.006 -0.015,0.011 -0.027,0.015 -0.043,0.015 -0.063,0.04 -0.062,0.076 0.001,0.017 0.007,0.032 0.018,0.044 0.012,0.012 0.028,0.018 0.047,0.017 0.019,-0 0.032,0.006 0.036,0.018 0.002,0.005 0.002,0.011 -0,0.016 -0.002,0.006 -0.006,0.01 -0.012,0.013 -0.009,0.005 -0.025,0.006 -0.047,0.004 -0.004,-0 -0.009,-0.001 -0.015,-0.002l-0.015 -0.002c-0.013,-0.002 -0.023,-0.003 -0.031,-0.003 -0.023,-0.001 -0.041,0.001 -0.054,0.008 -0.015,0.009 -0.024,0.024 -0.027,0.048 -0.002,0.027 0.009,0.052 0.034,0.077 0.023,0.023 0.054,0.042 0.092,0.055 0.039,0.014 0.077,0.019 0.114,0.017 0.041,-0.003 0.075,-0.015 0.101,-0.036 0.037,-0.031 0.057,-0.07 0.06,-0.118 0.004,-0.043 -0.006,-0.081 -0.028,-0.114z"/>
    <path id="16" class="fil1" d="M1.783 1.248c-0.007,0.008 -0.012,0.02 -0.015,0.035 -0.002,0.01 -0.004,0.024 -0.005,0.04l0 0.01 -0 0.01c0,0.008 -0,0.015 -0,0.02l-0.003 -0.02c-0.001,-0.008 -0.002,-0.015 -0.002,-0.021 -0.001,-0.015 0,-0.028 0.003,-0.041 0.004,-0.017 0.01,-0.029 0.018,-0.038 0.005,-0.005 0.011,-0.008 0.018,-0.01 0.006,-0.002 0.013,-0.002 0.019,-0.001 -0.015,0.002 -0.025,0.007 -0.032,0.016zm-0.041 0.321c-0.006,0.006 -0.012,0.009 -0.018,0.011 -0.007,0.002 -0.014,0.003 -0.02,0.001 0.014,-0.003 0.025,-0.01 0.033,-0.018 0.006,-0.006 0.013,-0.017 0.022,-0.033 -0.001,0.016 -0.006,0.029 -0.016,0.04zm-0.154 -0.28c-0.003,0.005 -0.006,0.009 -0.008,0.014 -0.002,0.005 -0.004,0.011 -0.006,0.016 -0.003,0.009 -0.005,0.02 -0.007,0.033 -0.002,0.011 -0.003,0.023 -0.004,0.035 -0.004,-0.025 -0.003,-0.048 0.004,-0.071 0.004,-0.014 0.01,-0.025 0.017,-0.032 0.004,-0.005 0.009,-0.008 0.014,-0.01 0.006,-0.002 0.011,-0.002 0.017,-0.001 -0.011,0.002 -0.02,0.007 -0.027,0.016zm-0.052 0.285c-0.005,0.004 -0.01,0.007 -0.016,0.009 -0.006,0.002 -0.012,0.002 -0.018,0 0.012,-0.004 0.021,-0.009 0.029,-0.016 0.004,-0.003 0.007,-0.007 0.011,-0.012l0.005 -0.007 0.005 -0.008c-0.001,0.013 -0.007,0.025 -0.017,0.033zm-0.143 -0.321c-0.009,0.006 -0.017,0.014 -0.024,0.024 -0.013,0.017 -0.023,0.039 -0.031,0.064 -0.006,0.018 -0.012,0.042 -0.016,0.071 -0.003,0.02 -0.005,0.044 -0.007,0.073 -0.002,-0.024 -0.001,-0.049 0.001,-0.074 0.003,-0.027 0.008,-0.051 0.015,-0.073 0.008,-0.027 0.02,-0.048 0.034,-0.065 0.008,-0.01 0.017,-0.018 0.027,-0.024 0.011,-0.007 0.022,-0.01 0.033,-0.009 -0.011,0.001 -0.022,0.005 -0.031,0.012zm0.429 -0.055c-0.03,-0.002 -0.054,0.008 -0.07,0.032 -0.017,0.025 -0.024,0.062 -0.021,0.112 0.005,0.079 0.005,0.134 0.001,0.164 -0.005,0.029 -0.015,0.042 -0.03,0.041 -0.017,-0.002 -0.022,-0.051 -0.016,-0.148 0.003,-0.053 -0.001,-0.093 -0.014,-0.12 -0.012,-0.026 -0.031,-0.039 -0.056,-0.039 -0.03,-0 -0.052,0.016 -0.067,0.049 -0.012,0.028 -0.018,0.062 -0.016,0.102 0.005,0.107 -0.005,0.16 -0.029,0.16 -0.01,0 -0.018,-0.01 -0.023,-0.03 -0.006,-0.025 -0.006,-0.062 0.001,-0.11 0.019,-0.13 0.002,-0.198 -0.049,-0.202 -0.02,-0.002 -0.04,0.004 -0.058,0.017 -0.019,0.013 -0.036,0.033 -0.05,0.059 -0.032,0.06 -0.045,0.141 -0.039,0.241 0.005,0.085 0.022,0.152 0.051,0.2 0.022,0.036 0.051,0.063 0.089,0.082 0.04,0.02 0.102,0.029 0.188,0.027 0.094,-0.002 0.162,-0.019 0.204,-0.051 0.038,-0.029 0.065,-0.076 0.083,-0.14 0.006,-0.022 0.011,-0.047 0.014,-0.074 0.001,-0.01 0.002,-0.02 0.003,-0.031 0,-0.004 0.001,-0.008 0.001,-0.013l0 -0.005 0 -0.005c0.007,-0.102 0.004,-0.179 -0.011,-0.231 -0.015,-0.055 -0.044,-0.084 -0.084,-0.087z"/>
    <path id="17" class="fil1" d="M2.239 1.635c-0.005,0.008 -0.012,0.014 -0.019,0.018 -0.008,0.005 -0.015,0.007 -0.024,0.006 0.015,-0.006 0.027,-0.016 0.036,-0.029 0.008,-0.012 0.014,-0.027 0.017,-0.046 0.004,0.018 0,0.035 -0.01,0.051zm-0.085 -0.045c-0.002,-0.011 0,-0.022 0.005,-0.031 0.005,-0.009 0.012,-0.014 0.02,-0.016 0.009,-0.001 0.017,0.001 0.024,0.009 0.007,0.007 0.012,0.016 0.014,0.027 0.002,0.011 0,0.021 -0.005,0.03 -0.005,0.009 -0.012,0.014 -0.02,0.016 -0.009,0.002 -0.017,-0.001 -0.024,-0.008 -0.007,-0.007 -0.012,-0.016 -0.013,-0.027zm-0.021 -0.341c-0.021,0.009 -0.04,0.022 -0.056,0.039 -0.015,0.015 -0.029,0.034 -0.042,0.057l-0.004 0.008 -0.004 0.008 -0.007 0.016 -0.007 0.017 -0.006 0.017c0.005,-0.025 0.012,-0.048 0.023,-0.07 0.011,-0.023 0.025,-0.043 0.042,-0.06 0.018,-0.018 0.038,-0.031 0.059,-0.039 0.01,-0.004 0.022,-0.007 0.034,-0.008l0.009 -0.001 0.009 -0 0.017 0c-0.025,0.002 -0.047,0.007 -0.066,0.016zm0.137 -0.041c-0.084,-0.022 -0.155,-0.008 -0.211,0.045 -0.05,0.046 -0.081,0.112 -0.093,0.198 -0.012,0.083 -0.003,0.161 0.027,0.232 0.032,0.077 0.081,0.125 0.147,0.144 0.062,0.018 0.121,0.001 0.176,-0.052 0.05,-0.049 0.086,-0.114 0.107,-0.197 0.022,-0.084 0.021,-0.16 -0.002,-0.227 -0.026,-0.076 -0.076,-0.123 -0.152,-0.144z"/>
    <path id="18" class="fil1" d="M2.837 1.243c-0.004,0.002 -0.007,0.005 -0.011,0.01 -0.005,0.007 -0.008,0.016 -0.011,0.029 -0.003,0.017 -0.004,0.038 -0.004,0.063l0 0.008 0 0.008c0,0.007 0,0.012 -0,0.017 -0.001,0.012 -0.004,0.023 -0.008,0.032 -0.004,0.011 -0.01,0.02 -0.018,0.027 -0.008,0.008 -0.017,0.013 -0.026,0.016 0.018,-0.009 0.031,-0.025 0.038,-0.046 0.003,-0.01 0.005,-0.02 0.006,-0.031 0,-0.004 0,-0.009 0,-0.015l-0 -0.008 0 -0.008c-0,-0.027 0.002,-0.048 0.005,-0.065 0.003,-0.013 0.008,-0.024 0.014,-0.03 0.004,-0.005 0.008,-0.007 0.013,-0.009 0.004,-0.002 0.009,-0.002 0.015,-0.002 -0.006,0.001 -0.011,0.002 -0.014,0.004zm-0.276 0.011c-0.01,0.011 -0.017,0.024 -0.022,0.04 -0.004,0.013 -0.008,0.029 -0.013,0.047l-0.005 0.024 -0.005 0.024c0.001,-0.033 0.006,-0.066 0.016,-0.097 0.006,-0.018 0.014,-0.032 0.025,-0.043 0.006,-0.006 0.013,-0.011 0.02,-0.014 0.008,-0.003 0.015,-0.004 0.022,-0.003 -0.014,0.002 -0.027,0.009 -0.038,0.022zm0.288 -0.049c-0.028,0.002 -0.047,0.015 -0.059,0.041 -0.011,0.025 -0.016,0.063 -0.014,0.114 0.001,0.023 -0.004,0.039 -0.014,0.051 -0.008,0.01 -0.019,0.014 -0.032,0.013 -0.013,-0.001 -0.023,-0.007 -0.03,-0.019 -0.007,-0.012 -0.009,-0.027 -0.008,-0.045 0.005,-0.052 0,-0.091 -0.014,-0.118 -0.013,-0.024 -0.035,-0.038 -0.065,-0.043 -0.025,-0.004 -0.047,0.002 -0.066,0.018 -0.019,0.016 -0.033,0.038 -0.042,0.067 -0.017,0.055 -0.026,0.121 -0.027,0.197 -0.001,0.073 0.006,0.142 0.02,0.208 0.011,0.049 0.028,0.084 0.051,0.105 0.019,0.018 0.041,0.025 0.064,0.021 0.052,-0.008 0.076,-0.05 0.071,-0.125 -0.004,-0.055 0.007,-0.082 0.032,-0.082 0.012,0 0.022,0.005 0.029,0.015 0.009,0.013 0.013,0.035 0.011,0.064 -0.003,0.049 0.005,0.086 0.022,0.112 0.015,0.024 0.037,0.036 0.066,0.036 0.048,0 0.082,-0.033 0.101,-0.098 0.014,-0.047 0.023,-0.126 0.026,-0.236 0.003,-0.085 -0.007,-0.155 -0.029,-0.211 -0.023,-0.059 -0.054,-0.087 -0.093,-0.085z"/>
    <path id="19" class="fil1" d="M3.288 1.65l-0.006 0.002c-0.005,0.002 -0.009,0.003 -0.012,0.003 -0.01,0.002 -0.018,0.003 -0.026,0.001 0.009,-0.002 0.017,-0.004 0.025,-0.007l0.006 -0.003 0.006 -0.002c0.005,-0.002 0.009,-0.004 0.012,-0.005 0.009,-0.003 0.018,-0.005 0.025,-0.006 0.01,-0.002 0.018,-0.002 0.026,0 -0.014,0.003 -0.03,0.008 -0.049,0.014l-0.006 0.002zm-0.118 -0.413c-0.013,0.004 -0.024,0.008 -0.034,0.015 -0.012,0.007 -0.022,0.015 -0.029,0.024 -0.008,0.008 -0.015,0.019 -0.022,0.032 -0.01,0.019 -0.018,0.044 -0.026,0.075 -0.003,0.012 -0.006,0.026 -0.008,0.04 -0.001,0.006 -0.002,0.012 -0.003,0.02l-0.003 0.02c0.001,-0.029 0.003,-0.056 0.008,-0.081 0.006,-0.03 0.014,-0.056 0.025,-0.078 0.007,-0.014 0.015,-0.025 0.023,-0.034 0.01,-0.01 0.021,-0.018 0.032,-0.023 0.011,-0.006 0.023,-0.01 0.036,-0.013 0.013,-0.003 0.026,-0.003 0.038,-0.003 -0.014,0.001 -0.026,0.003 -0.037,0.007zm0.078 0.236l0.003 -0.001c0.003,-0.001 0.005,-0.002 0.007,-0.002 0.005,-0.001 0.01,-0.001 0.014,0 0.005,0.002 0.009,0.004 0.012,0.008 -0.003,-0.001 -0.008,-0.001 -0.013,-0.001 -0.004,0 -0.008,0.001 -0.012,0.001l-0.003 0 -0.003 0c-0.003,0.001 -0.005,0.001 -0.007,0.001 -0.005,0 -0.01,-0 -0.014,-0.002l0.007 -0.002 0.006 -0.002 0.003 -0.001zm0.018 0.144c-0.014,0.006 -0.026,0.007 -0.036,0.003 -0.008,-0.003 -0.014,-0.01 -0.016,-0.019 -0.002,-0.009 -0.001,-0.017 0.003,-0.024 0.005,-0.008 0.012,-0.013 0.022,-0.014 0.029,-0.003 0.051,-0.011 0.065,-0.025 0.013,-0.013 0.019,-0.029 0.018,-0.049 -0.001,-0.018 -0.009,-0.032 -0.024,-0.041 -0.015,-0.009 -0.034,-0.011 -0.055,-0.005 -0.018,0.005 -0.03,-0 -0.035,-0.016 -0.002,-0.007 -0.002,-0.013 -0,-0.02 0.002,-0.007 0.005,-0.013 0.011,-0.017 0.008,-0.006 0.019,-0.01 0.035,-0.012 0.005,-0.001 0.013,-0.002 0.022,-0.002l0.011 -0 0.011 -0.001c0.018,-0.002 0.032,-0.005 0.042,-0.009 0.014,-0.006 0.023,-0.016 0.029,-0.03 0.01,-0.023 0.005,-0.047 -0.012,-0.071 -0.016,-0.023 -0.041,-0.041 -0.073,-0.054 -0.034,-0.013 -0.068,-0.018 -0.103,-0.013 -0.039,0.005 -0.072,0.022 -0.099,0.05 -0.025,0.026 -0.044,0.067 -0.056,0.123 -0.011,0.052 -0.016,0.108 -0.014,0.17 0.003,0.062 0.011,0.117 0.026,0.165 0.016,0.052 0.037,0.086 0.063,0.105 0.025,0.018 0.056,0.026 0.093,0.025 0.033,-0.001 0.067,-0.01 0.102,-0.026 0.033,-0.016 0.061,-0.035 0.082,-0.059 0.023,-0.026 0.034,-0.051 0.034,-0.076 0,-0.034 -0.012,-0.056 -0.037,-0.067 -0.026,-0.011 -0.062,-0.007 -0.109,0.012z"/>
    <path id="20" class="fil1" d="M3.728 1.463c-0.003,0.008 -0.008,0.016 -0.014,0.023 -0.006,0.007 -0.013,0.012 -0.021,0.016 -0.009,0.003 -0.017,0.004 -0.025,0.003 0.008,-0.002 0.016,-0.005 0.022,-0.009 0.007,-0.004 0.013,-0.009 0.018,-0.015 0.01,-0.012 0.018,-0.026 0.023,-0.044 0.001,0.009 -0,0.017 -0.004,0.026zm-0.074 -0.038c0.004,-0.009 0.01,-0.015 0.017,-0.019 0.007,-0.004 0.013,-0.004 0.019,-0.001 0.006,0.003 0.009,0.009 0.011,0.017 0.001,0.009 -0,0.017 -0.004,0.026 -0.004,0.009 -0.01,0.015 -0.016,0.019 -0.007,0.004 -0.014,0.004 -0.019,0.001 -0.006,-0.003 -0.009,-0.009 -0.011,-0.017 -0.001,-0.009 0,-0.017 0.004,-0.026zm-0.063 -0.176c-0.019,0.009 -0.034,0.022 -0.048,0.038 -0.012,0.014 -0.024,0.032 -0.033,0.054 -0.007,0.017 -0.014,0.037 -0.02,0.062 0.001,-0.009 0.003,-0.02 0.005,-0.032 0.003,-0.011 0.006,-0.022 0.01,-0.032 0.008,-0.021 0.019,-0.04 0.033,-0.057 0.015,-0.017 0.032,-0.03 0.051,-0.038 0.009,-0.004 0.019,-0.007 0.03,-0.009 0.011,-0.002 0.021,-0.003 0.031,-0.003 -0.023,0.004 -0.042,0.01 -0.058,0.018zm0.077 -0.053c-0.055,-0.001 -0.1,0.016 -0.136,0.049 -0.032,0.03 -0.054,0.071 -0.067,0.125 -0.012,0.049 -0.015,0.103 -0.009,0.161 0.006,0.057 0.019,0.109 0.04,0.158 0.02,0.047 0.043,0.083 0.067,0.108 0.022,0.022 0.044,0.034 0.066,0.036 0.02,0.002 0.037,-0.004 0.052,-0.019 0.014,-0.015 0.023,-0.035 0.026,-0.06 0.002,-0.017 0.002,-0.037 -0.001,-0.059 -0.001,-0.006 -0.003,-0.015 -0.005,-0.026l-0.002 -0.012c-0.001,-0.004 -0.002,-0.008 -0.002,-0.012 -0.002,-0.017 -0.002,-0.031 0.001,-0.041 0.004,-0.012 0.012,-0.022 0.025,-0.028 0.044,-0.023 0.077,-0.056 0.1,-0.099 0.021,-0.04 0.029,-0.082 0.024,-0.126 -0.005,-0.044 -0.022,-0.08 -0.052,-0.109 -0.032,-0.031 -0.074,-0.047 -0.127,-0.048z"/>
   </g>
  </g>
  <path class="fil2 str0" d="M2.555 0.008l0 0.811c-0.003,0.089 0.087,0.038 0.187,-0.037 0.624,-0.381 0.517,0.796 -0.001,0.38 -0.072,-0.066 -0.184,-0.104 -0.186,-0.034l0 0.811 -1.932 0c0,-0.267 0,-0.534 0,-0.806 0.003,-0.094 -0.087,-0.043 -0.187,0.032 -0.624,0.381 -0.517,-0.796 0.001,-0.38 0.072,0.066 0.184,0.104 0.186,0.034l0 -0.811 1.932 0z"/>
 </g>
</svg>
