<?xml version="1.0" encoding="UTF-8"?>
<!DOCTYPE svg PUBLIC "-//W3C//DTD SVG 1.1//EN" "http://www.w3.org/Graphics/SVG/1.1/DTD/svg11.dtd">
<!-- Creator: CorelDRAW 2019 (64-Bit) -->
<svg xmlns="http://www.w3.org/2000/svg" xml:space="preserve" width="1.47801cm" height="0.90544cm" version="1.1" style="shape-rendering:geometricPrecision; text-rendering:geometricPrecision; image-rendering:optimizeQuality; fill-rule:evenodd; clip-rule:evenodd"
viewBox="0 0 2.622 1.606"
 xmlns:xlink="http://www.w3.org/1999/xlink"
 xmlns:xodm="http://www.corel.com/coreldraw/odm/2003">
 <defs>
  <style type="text/css">
   <![CDATA[
    .str0 {stroke:white;stroke-width:0.014;stroke-linejoin:round;stroke-miterlimit:22.9256}
    .fil2 {fill:none}
    .fil0 {fill:#FFFF99}
    .fil1 {fill:#A39F6B;fill-rule:nonzero}
   ]]>
  </style>
   <clipPath id="id0">
    <path d="M2.107 0.007l0 0.669c-0.002,0.073 0.072,0.032 0.154,-0.03 0.515,-0.315 0.426,0.657 -0.001,0.313 -0.059,-0.054 -0.152,-0.086 -0.154,-0.028l0 0.669 -1.593 0c0,-0.22 0,-0.441 0,-0.665 0.002,-0.077 -0.072,-0.036 -0.154,0.026 -0.515,0.315 -0.426,-0.657 0.001,-0.313 0.059,0.054 0.152,0.086 0.154,0.028l0 -0.669 1.593 0z"/>
   </clipPath>
 </defs>
 <g id="Слой_x0020_1">
  <metadata id="CorelCorpID_0Corel-Layer"/>
  <path class="fil0" d="M2.107 0.007l0 0.669c-0.002,0.073 0.072,0.032 0.154,-0.03 0.515,-0.315 0.426,0.657 -0.001,0.313 -0.059,-0.054 -0.152,-0.086 -0.154,-0.028l0 0.669 -1.593 0c0,-0.22 0,-0.441 0,-0.665 0.002,-0.077 -0.072,-0.036 -0.154,0.026 -0.515,0.315 -0.426,-0.657 0.001,-0.313 0.059,0.054 0.152,0.086 0.154,0.028l0 -0.669 1.593 0z"/>
  <g style="clip-path:url(#id0)">
   <g id="_1963126654432">
    <g>
     <path id="1" class="fil1" d="M-1.473 0.131c-0.006,0.005 -0.012,0.011 -0.019,0.02 -0.009,0.011 -0.019,0.027 -0.032,0.046l-0.007 0.012 -0.008 0.012c-0.006,0.009 -0.013,0.016 -0.019,0.022 -0.007,0.007 -0.015,0.013 -0.022,0.017 -0.009,0.004 -0.018,0.006 -0.027,0.005 0.016,-0.001 0.031,-0.01 0.045,-0.027 0.005,-0.006 0.011,-0.013 0.017,-0.022l0.008 -0.012 0.008 -0.012c0.013,-0.02 0.024,-0.036 0.034,-0.046 0.008,-0.008 0.015,-0.014 0.021,-0.018 0.009,-0.005 0.017,-0.007 0.026,-0.006 -0.009,0.001 -0.018,0.004 -0.024,0.01zm-0.317 0.039c-0.009,0.013 -0.019,0.029 -0.027,0.048 -0.006,0.012 -0.013,0.03 -0.021,0.053 -0.003,0.009 -0.006,0.018 -0.009,0.027l-0.005 0.013 -0.005 0.014c0.007,-0.04 0.018,-0.077 0.033,-0.11 0.009,-0.021 0.019,-0.037 0.03,-0.049 0.006,-0.007 0.013,-0.013 0.021,-0.018 0.008,-0.005 0.017,-0.007 0.026,-0.007 -0.015,0.002 -0.029,0.012 -0.043,0.029zm0.48 0.211c-0.003,-0.085 -0.017,-0.155 -0.042,-0.209 -0.023,-0.051 -0.051,-0.078 -0.083,-0.083 -0.024,-0.003 -0.046,0.004 -0.065,0.021 -0.015,0.013 -0.034,0.039 -0.058,0.077 -0.02,0.033 -0.038,0.048 -0.052,0.045 -0.01,-0.002 -0.022,-0.015 -0.036,-0.039 -0.017,-0.028 -0.032,-0.048 -0.048,-0.062 -0.019,-0.017 -0.039,-0.025 -0.059,-0.023 -0.055,0.006 -0.099,0.075 -0.132,0.209 -0.022,0.086 -0.03,0.163 -0.026,0.231 0.005,0.078 0.026,0.121 0.065,0.13 0.023,0.005 0.042,-0.001 0.059,-0.018 0.013,-0.013 0.025,-0.034 0.037,-0.063 0.004,-0.009 0.008,-0.021 0.013,-0.036l0.003 -0.009 0.003 -0.009c0.002,-0.006 0.004,-0.012 0.005,-0.016 0.008,-0.023 0.016,-0.035 0.022,-0.038 0.005,-0.002 0.01,0.002 0.014,0.013 0.002,0.003 0.004,0.009 0.006,0.017l0.002 0.005 0.002 0.005 0.003 0.01c0.007,0.017 0.014,0.031 0.022,0.04 0.011,0.012 0.024,0.019 0.039,0.019 0.011,0 0.022,-0.005 0.032,-0.014 0.007,-0.006 0.015,-0.017 0.024,-0.031l0.005 -0.008 0.005 -0.008c0.003,-0.006 0.007,-0.01 0.01,-0.013 0.007,-0.008 0.013,-0.011 0.02,-0.008 0.006,0.003 0.013,0.014 0.019,0.034 0.001,0.004 0.003,0.009 0.004,0.014l0.002 0.008 0.002 0.008c0.004,0.013 0.008,0.024 0.011,0.033 0.01,0.026 0.02,0.046 0.031,0.06 0.015,0.018 0.032,0.028 0.053,0.028 0.035,0.001 0.06,-0.029 0.075,-0.09 0.013,-0.054 0.018,-0.13 0.014,-0.229zm0.308 0.128c-0.005,0.008 -0.011,0.013 -0.019,0.017 -0.007,0.005 -0.015,0.007 -0.023,0.006 0.015,-0.006 0.026,-0.015 0.035,-0.028 0.008,-0.012 0.013,-0.026 0.016,-0.044 0.004,0.018 0,0.034 -0.01,0.049zm-0.082 -0.044c-0.002,-0.011 0,-0.021 0.005,-0.029 0.005,-0.009 0.011,-0.014 0.02,-0.015 0.008,-0.001 0.016,0.001 0.023,0.008 0.007,0.007 0.011,0.015 0.013,0.026 0.002,0.011 0,0.021 -0.005,0.029 -0.005,0.009 -0.011,0.014 -0.02,0.015 -0.008,0.001 -0.016,-0.001 -0.023,-0.008 -0.007,-0.006 -0.011,-0.015 -0.013,-0.026zm-0.02 -0.328c-0.02,0.009 -0.038,0.021 -0.054,0.037 -0.014,0.014 -0.028,0.033 -0.04,0.055l-0.004 0.008 -0.004 0.008 -0.007 0.016 -0.006 0.017 -0.006 0.017c0.004,-0.024 0.012,-0.046 0.022,-0.068 0.01,-0.022 0.024,-0.041 0.04,-0.058 0.017,-0.018 0.036,-0.03 0.057,-0.038 0.01,-0.004 0.021,-0.006 0.032,-0.008l0.008 -0.001 0.008 -0 0.017 0c-0.024,0.002 -0.045,0.007 -0.063,0.015zm0.132 -0.039c-0.081,-0.022 -0.149,-0.007 -0.203,0.043 -0.048,0.045 -0.078,0.108 -0.089,0.191 -0.011,0.08 -0.003,0.155 0.026,0.223 0.031,0.074 0.078,0.12 0.142,0.139 0.06,0.018 0.116,0.001 0.169,-0.051 0.048,-0.047 0.083,-0.11 0.103,-0.189 0.021,-0.081 0.02,-0.154 -0.002,-0.219 -0.025,-0.073 -0.074,-0.119 -0.146,-0.138zm0.399 0.026l-0.008 0.002c-0.003,0.001 -0.005,0.002 -0.007,0.003 -0.002,0.001 -0.004,0.002 -0.007,0.003l-0.003 0.002 -0.003 0.002 -0.006 0.005c-0.002,0.002 -0.004,0.003 -0.006,0.005 -0.015,0.013 -0.029,0.029 -0.042,0.048 -0.01,0.015 -0.021,0.034 -0.032,0.057 -0.008,0.016 -0.016,0.036 -0.026,0.061 0.005,-0.021 0.012,-0.042 0.02,-0.064 0.009,-0.021 0.019,-0.041 0.032,-0.059 0.014,-0.02 0.029,-0.036 0.044,-0.048 0.019,-0.014 0.039,-0.021 0.059,-0.019l-0.015 0.003zm0.241 0.192c-0.025,-0.073 -0.06,-0.13 -0.105,-0.172 -0.046,-0.043 -0.092,-0.061 -0.14,-0.054 -0.04,0.006 -0.077,0.035 -0.111,0.088 -0.032,0.05 -0.055,0.11 -0.07,0.18 -0.016,0.08 -0.019,0.154 -0.007,0.223 0.006,0.034 0.014,0.061 0.026,0.081 0.013,0.022 0.028,0.035 0.046,0.038 0.028,0.005 0.051,-0.006 0.068,-0.033 0.013,-0.021 0.025,-0.053 0.035,-0.096 0.002,-0.008 0.004,-0.017 0.006,-0.027l0.003 -0.013 0.002 -0.013c0.004,-0.023 0.007,-0.039 0.01,-0.048 0.008,-0.032 0.016,-0.05 0.026,-0.052 0.008,-0.002 0.015,0.002 0.022,0.012 0.006,0.008 0.012,0.021 0.019,0.039 0.002,0.006 0.005,0.015 0.009,0.026l0.005 0.015 0.005 0.014c0.008,0.025 0.016,0.045 0.023,0.06 0.018,0.041 0.039,0.069 0.063,0.084 0.022,0.014 0.043,0.014 0.063,0 0.012,-0.009 0.022,-0.024 0.03,-0.046 0.007,-0.022 0.011,-0.048 0.012,-0.079 0.002,-0.069 -0.011,-0.144 -0.04,-0.225zm0.347 0.194c-0.005,0.008 -0.011,0.013 -0.019,0.017 -0.007,0.005 -0.015,0.007 -0.023,0.006 0.015,-0.006 0.026,-0.015 0.035,-0.028 0.008,-0.012 0.013,-0.026 0.016,-0.044 0.004,0.018 0,0.034 -0.01,0.049zm-0.082 -0.044c-0.002,-0.011 0,-0.021 0.005,-0.029 0.005,-0.009 0.011,-0.014 0.02,-0.015 0.008,-0.001 0.016,0.001 0.023,0.008 0.007,0.007 0.011,0.015 0.013,0.026 0.002,0.011 0,0.021 -0.005,0.029 -0.005,0.009 -0.011,0.014 -0.02,0.015 -0.008,0.001 -0.016,-0.001 -0.023,-0.008 -0.007,-0.006 -0.011,-0.015 -0.013,-0.026zm-0.02 -0.328c-0.02,0.009 -0.038,0.021 -0.054,0.037 -0.014,0.014 -0.028,0.033 -0.04,0.055l-0.004 0.008 -0.004 0.008 -0.007 0.016 -0.006 0.017 -0.006 0.017c0.004,-0.024 0.012,-0.046 0.022,-0.068 0.01,-0.022 0.024,-0.041 0.04,-0.058 0.017,-0.018 0.036,-0.03 0.057,-0.038 0.01,-0.004 0.021,-0.006 0.032,-0.008l0.008 -0.001 0.008 -0 0.017 0c-0.024,0.002 -0.045,0.007 -0.063,0.015zm0.132 -0.039c-0.081,-0.022 -0.149,-0.007 -0.203,0.043 -0.048,0.045 -0.078,0.108 -0.089,0.191 -0.011,0.08 -0.003,0.155 0.026,0.223 0.031,0.074 0.078,0.12 0.142,0.139 0.06,0.018 0.116,0.001 0.169,-0.05 0.048,-0.047 0.083,-0.11 0.103,-0.189 0.021,-0.081 0.02,-0.154 -0.002,-0.219 -0.025,-0.073 -0.074,-0.119 -0.146,-0.138zm0.583 0.39c-0.002,0.01 -0.007,0.018 -0.015,0.024 -0.007,0.006 -0.015,0.009 -0.024,0.012 -0.009,0.002 -0.017,0.002 -0.026,0 0.01,-0.002 0.018,-0.004 0.024,-0.006 0.009,-0.003 0.016,-0.007 0.021,-0.012 0.006,-0.005 0.01,-0.012 0.013,-0.02 0.002,-0.006 0.004,-0.015 0.006,-0.026 0.002,0.01 0.002,0.019 0,0.028zm-0.1 -0.011c-0.005,-0.01 -0.003,-0.026 0.005,-0.048 0.009,-0.023 0.018,-0.034 0.029,-0.034 0.013,0 0.023,0.012 0.03,0.036 0.003,0.01 0.005,0.019 0.005,0.028 0.001,0.01 -0.001,0.017 -0.003,0.021 -0.004,0.007 -0.015,0.01 -0.033,0.01 -0.018,-0 -0.029,-0.005 -0.034,-0.014zm-0.053 -0.276c-0.011,0.017 -0.021,0.037 -0.031,0.058 -0.007,0.016 -0.015,0.037 -0.024,0.062 0.004,-0.021 0.011,-0.043 0.019,-0.064 0.008,-0.02 0.017,-0.04 0.03,-0.06 0.013,-0.021 0.027,-0.038 0.042,-0.051 0.008,-0.007 0.017,-0.013 0.027,-0.018 0.01,-0.005 0.021,-0.007 0.03,-0.006 -0.018,0.002 -0.036,0.012 -0.053,0.029 -0.014,0.014 -0.027,0.03 -0.039,0.05zm-0.174 0.335c-0.006,0.004 -0.011,0.007 -0.015,0.011 -0.005,0.004 -0.008,0.01 -0.01,0.016 -0.001,-0.007 0.001,-0.014 0.006,-0.021 0.003,-0.005 0.009,-0.009 0.016,-0.013 0.012,-0.007 0.025,-0.01 0.038,-0.01l-0.009 0.004 -0.009 0.004c-0.007,0.003 -0.013,0.006 -0.017,0.008zm0.479 -0.051c-0.011,-0.003 -0.018,-0.008 -0.023,-0.014 -0.005,-0.005 -0.008,-0.014 -0.009,-0.024 -0.001,-0.006 -0.002,-0.019 -0.003,-0.039 -0.001,-0.01 -0.001,-0.019 -0.002,-0.026 -0.001,-0.011 -0.002,-0.021 -0.003,-0.031 -0.011,-0.084 -0.033,-0.15 -0.064,-0.196 -0.03,-0.043 -0.065,-0.065 -0.105,-0.066 -0.035,-0.001 -0.069,0.019 -0.102,0.061 -0.034,0.042 -0.059,0.095 -0.077,0.161 -0.007,0.026 -0.013,0.053 -0.017,0.08 -0.001,0.005 -0.002,0.009 -0.002,0.015l-0.001 0.007 -0.001 0.006c-0.001,0.011 -0.002,0.018 -0.003,0.023 -0.003,0.014 -0.006,0.024 -0.011,0.03 -0.005,0.007 -0.014,0.012 -0.026,0.014 -0.034,0.008 -0.058,0.021 -0.072,0.04 -0.012,0.017 -0.015,0.038 -0.009,0.062 0.009,0.034 0.044,0.061 0.106,0.081 0.056,0.018 0.125,0.028 0.208,0.03 0.076,0.002 0.134,-0.001 0.175,-0.008 0.06,-0.011 0.099,-0.032 0.116,-0.065 0.016,-0.031 0.017,-0.06 0.003,-0.086 -0.014,-0.026 -0.04,-0.045 -0.077,-0.056zm0.391 0.039l-0.006 0.002c-0.005,0.002 -0.009,0.003 -0.012,0.003 -0.009,0.002 -0.018,0.003 -0.025,0.001 0.008,-0.002 0.016,-0.004 0.024,-0.007l0.006 -0.002 0.005 -0.002c0.005,-0.002 0.009,-0.004 0.012,-0.005 0.009,-0.003 0.017,-0.005 0.024,-0.006 0.009,-0.001 0.018,-0.001 0.025,0 -0.014,0.003 -0.029,0.008 -0.047,0.014l-0.006 0.002zm-0.114 -0.397c-0.012,0.004 -0.023,0.008 -0.033,0.014 -0.011,0.007 -0.021,0.015 -0.028,0.023 -0.008,0.008 -0.015,0.018 -0.021,0.03 -0.009,0.019 -0.018,0.043 -0.025,0.072 -0.003,0.012 -0.005,0.025 -0.008,0.038 -0.001,0.005 -0.002,0.012 -0.003,0.019l-0.003 0.02c0.001,-0.027 0.003,-0.053 0.008,-0.078 0.005,-0.029 0.014,-0.054 0.024,-0.075 0.007,-0.013 0.015,-0.024 0.022,-0.033 0.01,-0.009 0.02,-0.017 0.031,-0.023 0.01,-0.006 0.022,-0.01 0.035,-0.012 0.013,-0.003 0.025,-0.003 0.036,-0.003 -0.014,0.001 -0.025,0.003 -0.035,0.006zm0.075 0.227l0.003 -0.001c0.003,-0.001 0.005,-0.001 0.007,-0.002 0.005,-0.001 0.01,-0.001 0.014,0 0.005,0.001 0.009,0.004 0.011,0.008 -0.003,-0.001 -0.007,-0.001 -0.012,-0.001 -0.004,0 -0.008,0.001 -0.012,0.001l-0.003 0 -0.003 0c-0.003,0.001 -0.005,0.001 -0.007,0.001 -0.005,0 -0.01,-0 -0.013,-0.002l0.006 -0.002 0.006 -0.002 0.003 -0.001zm0.018 0.139c-0.014,0.006 -0.025,0.007 -0.035,0.003 -0.008,-0.003 -0.013,-0.009 -0.016,-0.018 -0.002,-0.008 -0.001,-0.016 0.003,-0.024 0.004,-0.008 0.012,-0.012 0.021,-0.013 0.028,-0.003 0.049,-0.011 0.062,-0.024 0.012,-0.012 0.018,-0.028 0.017,-0.047 -0.001,-0.018 -0.009,-0.031 -0.023,-0.039 -0.015,-0.009 -0.032,-0.01 -0.053,-0.005 -0.017,0.005 -0.028,-0 -0.033,-0.015 -0.002,-0.006 -0.002,-0.013 -0,-0.019 0.002,-0.007 0.005,-0.012 0.01,-0.016 0.007,-0.006 0.019,-0.01 0.034,-0.012 0.005,-0.001 0.012,-0.002 0.021,-0.002l0.011 -0 0.011 -0.001c0.017,-0.001 0.031,-0.004 0.04,-0.009 0.013,-0.006 0.023,-0.015 0.028,-0.029 0.009,-0.022 0.005,-0.045 -0.012,-0.068 -0.016,-0.022 -0.039,-0.039 -0.07,-0.052 -0.033,-0.013 -0.066,-0.017 -0.099,-0.013 -0.037,0.005 -0.069,0.021 -0.095,0.048 -0.024,0.025 -0.043,0.064 -0.054,0.118 -0.011,0.05 -0.016,0.104 -0.013,0.164 0.002,0.059 0.011,0.112 0.025,0.158 0.016,0.05 0.036,0.083 0.06,0.101 0.024,0.017 0.054,0.025 0.09,0.024 0.032,-0.001 0.065,-0.009 0.098,-0.025 0.032,-0.015 0.059,-0.034 0.079,-0.057 0.022,-0.025 0.033,-0.049 0.033,-0.074 0,-0.033 -0.012,-0.054 -0.035,-0.064 -0.025,-0.011 -0.06,-0.007 -0.105,0.012zm0.538 -0.334c-0.005,0.007 -0.009,0.015 -0.013,0.026 -0.002,0.006 -0.005,0.015 -0.009,0.028l-0.008 0.029c-0,-0.01 0,-0.02 0.002,-0.031 0.001,-0.011 0.004,-0.021 0.007,-0.03 0.005,-0.012 0.01,-0.02 0.016,-0.027 0.008,-0.009 0.017,-0.013 0.026,-0.011 -0.008,0.002 -0.016,0.007 -0.022,0.015zm-0.093 0.299c-0.006,0.005 -0.012,0.008 -0.018,0.009 -0.007,0.002 -0.013,0.002 -0.019,0 0.007,-0.002 0.013,-0.004 0.017,-0.006 0.006,-0.003 0.011,-0.006 0.015,-0.01 0.004,-0.003 0.009,-0.007 0.013,-0.013l0.007 -0.007 0.007 -0.007c-0.004,0.014 -0.011,0.025 -0.022,0.034zm-0.147 -0.327c-0.006,0.005 -0.011,0.01 -0.015,0.015 -0.008,0.01 -0.016,0.023 -0.023,0.038 -0.005,0.011 -0.011,0.024 -0.018,0.041l-0.008 0.022 -0.008 0.022c0.005,-0.032 0.013,-0.062 0.026,-0.089 0.008,-0.016 0.016,-0.029 0.026,-0.039 0.004,-0.005 0.01,-0.009 0.018,-0.014 0.008,-0.004 0.015,-0.005 0.021,-0.005 -0.007,0.001 -0.014,0.004 -0.02,0.009zm0.348 0.419c-0.015,-0.005 -0.023,-0.02 -0.022,-0.045 0,-0.008 0.002,-0.02 0.004,-0.036l0.003 -0.019c0.001,-0.007 0.002,-0.014 0.003,-0.019 0.011,-0.096 0.015,-0.164 0.011,-0.203 -0.005,-0.062 -0.026,-0.099 -0.063,-0.112 -0.027,-0.009 -0.05,-0.003 -0.068,0.018 -0.019,0.022 -0.031,0.057 -0.036,0.105 -0.014,0.131 -0.037,0.196 -0.071,0.196 -0.038,0 -0.043,-0.053 -0.014,-0.16 0.015,-0.055 0.014,-0.1 -0.001,-0.136 -0.015,-0.034 -0.04,-0.05 -0.076,-0.049 -0.036,0.001 -0.067,0.031 -0.093,0.089 -0.024,0.055 -0.039,0.124 -0.044,0.206 -0.005,0.082 0.002,0.148 0.021,0.197 0.015,0.038 0.038,0.068 0.07,0.09 0.026,0.019 0.058,0.029 0.096,0.03 0.014,0.001 0.033,0 0.055,-0.001l0.015 -0.001 0.015 -0.001c0.014,-0.001 0.025,-0.001 0.033,-0.002 0.013,-0.001 0.023,0.002 0.032,0.008 0.005,0.004 0.011,0.012 0.018,0.024l0.004 0.007 0.005 0.007c0.003,0.005 0.007,0.01 0.01,0.014 0.009,0.01 0.021,0.016 0.035,0.021 0.024,0.007 0.046,0 0.066,-0.019 0.018,-0.018 0.031,-0.042 0.039,-0.072 0.008,-0.031 0.008,-0.058 0.001,-0.084 -0.008,-0.028 -0.024,-0.045 -0.047,-0.053zm0.137 0.035c-0.006,0.007 -0.011,0.017 -0.016,0.029 -0.001,-0.013 0.002,-0.024 0.011,-0.035 0.004,-0.005 0.009,-0.008 0.014,-0.011 0.006,-0.002 0.012,-0.003 0.017,-0.001 -0.01,0.003 -0.019,0.008 -0.026,0.017zm0.026 -0.047c-0.017,0 -0.032,0.007 -0.045,0.021 -0.013,0.014 -0.021,0.031 -0.023,0.051 -0.002,0.014 -0,0.027 0.004,0.04 0.004,0.013 0.01,0.024 0.019,0.033 0.006,0.007 0.008,0.018 0.005,0.034l-0.001 0.004 -0.001 0.005c-0,0.003 -0.001,0.006 -0.001,0.008 -0,0.006 0,0.01 0.003,0.013 0.006,0.007 0.014,0.008 0.025,0.005 0.01,-0.003 0.021,-0.011 0.033,-0.023 0.027,-0.028 0.043,-0.06 0.048,-0.098 0.003,-0.025 -0.002,-0.046 -0.016,-0.065 -0.013,-0.018 -0.03,-0.027 -0.05,-0.027zm-3.52 0.803c-0.004,0.008 -0.009,0.014 -0.016,0.018 -0.007,0.004 -0.015,0.006 -0.023,0.004 0.008,-0.002 0.014,-0.004 0.02,-0.009 0.006,-0.005 0.01,-0.011 0.014,-0.017 0.006,-0.013 0.007,-0.028 0.003,-0.046 0.004,0.007 0.006,0.015 0.007,0.024 0.001,0.009 -0.001,0.017 -0.004,0.025zm-0.062 -0.022c-0.004,-0.007 -0.005,-0.014 -0.004,-0.021 0.001,-0.007 0.003,-0.012 0.008,-0.015 0.005,-0.003 0.01,-0.003 0.016,0 0.006,0.003 0.011,0.008 0.015,0.015 0.004,0.007 0.005,0.014 0.004,0.021 -0.001,0.007 -0.003,0.012 -0.008,0.015 -0.005,0.003 -0.01,0.003 -0.016,-0 -0.006,-0.003 -0.011,-0.008 -0.015,-0.015zm-0.03 -0.152c0.005,-0.002 0.01,-0.004 0.015,-0.006 0.005,-0.003 0.009,-0.007 0.012,-0.01 0.003,-0.004 0.007,-0.008 0.01,-0.014 0.002,-0.005 0.005,-0.01 0.007,-0.016 0.001,0.013 -0.003,0.024 -0.012,0.034 -0.004,0.005 -0.009,0.008 -0.015,0.01 -0.006,0.002 -0.012,0.003 -0.017,0.002zm-0.007 -0.053c0.003,-0.005 0.006,-0.008 0.01,-0.01 0.004,-0.002 0.007,-0.002 0.01,0 0.003,0.002 0.005,0.005 0.005,0.01 0,0.005 -0.001,0.009 -0.003,0.014 -0.002,0.005 -0.006,0.008 -0.01,0.01 -0.004,0.002 -0.007,0.002 -0.01,0 -0.003,-0.002 -0.005,-0.005 -0.005,-0.01 -0,-0.005 0.001,-0.009 0.003,-0.014zm-0.057 -0.065c-0.005,0.006 -0.011,0.013 -0.017,0.022 -0.009,0.014 -0.016,0.031 -0.024,0.051 -0.006,0.016 -0.011,0.034 -0.016,0.055 0.002,-0.019 0.006,-0.038 0.011,-0.057 0.006,-0.019 0.013,-0.037 0.023,-0.053 0.011,-0.018 0.024,-0.032 0.039,-0.041 0.009,-0.006 0.017,-0.01 0.025,-0.012 0.009,-0.002 0.018,-0.003 0.027,-0.003 -0.019,0.002 -0.035,0.008 -0.049,0.019 -0.007,0.005 -0.014,0.011 -0.02,0.018zm0.145 0.14c-0.004,-0.002 -0.005,-0.006 -0.002,-0.012 0.001,-0.002 0.003,-0.006 0.005,-0.011l0.002 -0.003 0.002 -0.003c0.001,-0.003 0.003,-0.005 0.004,-0.008 0.006,-0.013 0.01,-0.026 0.013,-0.038 0.004,-0.017 0.004,-0.035 0.001,-0.054 -0.003,-0.021 -0.014,-0.038 -0.032,-0.052 -0.019,-0.015 -0.04,-0.022 -0.064,-0.023 -0.026,-0.001 -0.051,0.007 -0.073,0.024 -0.026,0.02 -0.046,0.049 -0.061,0.089 -0.015,0.041 -0.024,0.086 -0.025,0.135 -0.001,0.05 0.005,0.095 0.019,0.137 0.015,0.045 0.037,0.08 0.066,0.104 0.032,0.027 0.071,0.039 0.117,0.036 0.044,-0.003 0.078,-0.019 0.104,-0.046 0.024,-0.025 0.037,-0.056 0.039,-0.093 0.002,-0.037 -0.006,-0.071 -0.025,-0.104 -0.02,-0.035 -0.05,-0.061 -0.088,-0.077zm0.432 0.115c-0.002,0.001 -0.004,0.003 -0.007,0.006l-0.004 0.003 -0.004 0.003c-0.006,0.005 -0.012,0.007 -0.018,0.009 -0.007,0.002 -0.013,0.002 -0.019,0.001 0.012,-0.003 0.022,-0.008 0.033,-0.015l0.004 -0.003 0.004 -0.003c0.003,-0.002 0.006,-0.004 0.009,-0.005 0.007,-0.003 0.013,-0.004 0.019,-0.003 -0.006,0.001 -0.011,0.004 -0.017,0.007zm-0.195 -0.243c-0.012,0.013 -0.022,0.028 -0.031,0.046 -0.008,0.015 -0.015,0.033 -0.022,0.054 0.003,-0.019 0.009,-0.038 0.017,-0.056 0.008,-0.018 0.018,-0.034 0.031,-0.048 0.013,-0.015 0.029,-0.026 0.045,-0.034 0.009,-0.004 0.018,-0.006 0.027,-0.007 0.01,-0.001 0.019,-0.002 0.027,-0.001 -0.02,0.002 -0.037,0.006 -0.052,0.013 -0.016,0.008 -0.03,0.02 -0.043,0.034zm0.268 0.282c-0.003,-0.038 -0.016,-0.062 -0.038,-0.071 -0.01,-0.004 -0.02,-0.005 -0.031,-0.002 -0.011,0.003 -0.022,0.008 -0.031,0.017 -0.01,0.008 -0.02,0.012 -0.03,0.01 -0.01,-0.001 -0.019,-0.006 -0.027,-0.015 -0.008,-0.009 -0.014,-0.021 -0.018,-0.036 -0.004,-0.016 -0.005,-0.033 -0.002,-0.051 0.004,-0.027 0.015,-0.042 0.035,-0.045 0.015,-0.002 0.035,0.001 0.061,0.012 0.011,0.004 0.022,0.004 0.032,-0.001 0.009,-0.005 0.016,-0.013 0.021,-0.023 0.005,-0.012 0.006,-0.024 0.004,-0.038 -0.002,-0.015 -0.008,-0.03 -0.017,-0.044 -0.02,-0.03 -0.047,-0.05 -0.08,-0.061 -0.03,-0.01 -0.061,-0.011 -0.092,-0.003 -0.04,0.01 -0.073,0.038 -0.099,0.083 -0.029,0.049 -0.043,0.11 -0.043,0.183 -0,0.082 0.02,0.147 0.059,0.193 0.018,0.022 0.04,0.038 0.065,0.048 0.025,0.01 0.052,0.014 0.081,0.011 0.049,-0.004 0.088,-0.023 0.117,-0.057 0.028,-0.032 0.04,-0.068 0.036,-0.11zm0.264 0.016l-0.005 0.002c-0.004,0.001 -0.008,0.003 -0.011,0.003 -0.008,0.002 -0.015,0.002 -0.021,0.001 0.007,-0.001 0.014,-0.003 0.02,-0.006l0.005 -0.002 0.005 -0.002c0.004,-0.002 0.007,-0.003 0.01,-0.004 0.007,-0.003 0.014,-0.004 0.021,-0.005 0.008,-0.001 0.015,-0.001 0.022,0 -0.012,0.002 -0.025,0.006 -0.04,0.011l-0.005 0.002zm-0.097 -0.34c-0.01,0.003 -0.02,0.007 -0.028,0.012 -0.01,0.006 -0.018,0.013 -0.024,0.02 -0.007,0.007 -0.013,0.016 -0.018,0.026 -0.008,0.016 -0.015,0.037 -0.021,0.062 -0.003,0.01 -0.005,0.021 -0.007,0.033 -0.001,0.004 -0.002,0.01 -0.003,0.017l-0.002 0.017c0,-0.024 0.003,-0.046 0.007,-0.067 0.005,-0.025 0.012,-0.046 0.021,-0.064 0.006,-0.011 0.012,-0.02 0.019,-0.028 0.008,-0.008 0.017,-0.015 0.026,-0.019 0.009,-0.005 0.019,-0.008 0.03,-0.011 0.011,-0.002 0.021,-0.003 0.031,-0.002 -0.012,0.001 -0.022,0.003 -0.03,0.006zm0.064 0.195l0.003 -0.001c0.002,-0.001 0.004,-0.001 0.006,-0.002 0.004,-0 0.008,-0 0.012,0.001 0.004,0.001 0.008,0.004 0.01,0.007 -0.003,-0.001 -0.006,-0.001 -0.01,-0.001 -0.004,0 -0.007,0 -0.01,0.001l-0.003 0 -0.003 0c-0.002,0 -0.004,0.001 -0.005,0.001 -0.004,0 -0.008,-0 -0.012,-0.002l0.005 -0.002 0.005 -0.002 0.002 -0.001zm0.016 0.118c-0.012,0.005 -0.022,0.006 -0.03,0.003 -0.007,-0.003 -0.011,-0.008 -0.013,-0.015 -0.002,-0.007 -0.001,-0.014 0.002,-0.02 0.004,-0.007 0.01,-0.011 0.019,-0.011 0.024,-0.002 0.042,-0.009 0.053,-0.021 0.01,-0.01 0.015,-0.024 0.015,-0.04 -0.001,-0.015 -0.007,-0.026 -0.02,-0.033 -0.013,-0.008 -0.028,-0.009 -0.045,-0.004 -0.015,0.004 -0.025,-0 -0.029,-0.013 -0.002,-0.005 -0.002,-0.011 -0,-0.016 0.002,-0.006 0.004,-0.011 0.009,-0.014 0.006,-0.005 0.016,-0.009 0.029,-0.011 0.004,-0 0.011,-0.001 0.018,-0.001l0.009 -0 0.009 -0.001c0.015,-0.001 0.026,-0.004 0.035,-0.008 0.011,-0.005 0.019,-0.013 0.024,-0.024 0.008,-0.019 0.005,-0.039 -0.01,-0.059 -0.014,-0.019 -0.034,-0.034 -0.061,-0.044 -0.028,-0.011 -0.056,-0.015 -0.084,-0.011 -0.032,0.004 -0.059,0.018 -0.082,0.041 -0.021,0.021 -0.036,0.055 -0.047,0.101 -0.009,0.043 -0.013,0.089 -0.012,0.14 0.002,0.051 0.009,0.096 0.022,0.135 0.013,0.043 0.03,0.071 0.052,0.086 0.021,0.015 0.047,0.022 0.077,0.021 0.028,-0.001 0.056,-0.008 0.084,-0.022 0.028,-0.013 0.05,-0.029 0.068,-0.049 0.019,-0.021 0.028,-0.042 0.028,-0.063 0,-0.028 -0.01,-0.046 -0.03,-0.055 -0.022,-0.009 -0.051,-0.006 -0.089,0.01zm-0.088 -0.407c0.001,-0.001 0.001,-0.001 0.002,-0.002 0.001,-0.001 0.002,-0.001 0.003,-0 -0,0.001 -0,0.002 -0,0.003l0 0.001 0 0.001 0 0.002 0 0.002c-0,0.003 -0.001,0.005 -0.003,0.008 -0.003,-0.002 -0.004,-0.005 -0.004,-0.009 0,-0.002 0.001,-0.003 0.002,-0.005zm0.017 0.052c0.01,-0.002 0.017,-0.008 0.022,-0.018 0.005,-0.01 0.006,-0.022 0.002,-0.034 -0.004,-0.012 -0.01,-0.022 -0.02,-0.027 -0.009,-0.005 -0.018,-0.006 -0.027,-0.001 -0.008,0.004 -0.013,0.011 -0.016,0.021 -0.003,0.009 -0.003,0.019 -0,0.029 0.003,0.01 0.008,0.018 0.016,0.024 0.008,0.006 0.016,0.008 0.024,0.007zm0.077 -0.072c0.002,-0.003 0.004,-0.005 0.007,-0.006 0.003,-0.001 0.006,-0.001 0.008,0 -0.002,0.001 -0.004,0.003 -0.006,0.004 -0.002,0.002 -0.003,0.004 -0.004,0.005 -0.001,0.002 -0.003,0.004 -0.004,0.006l-0.002 0.003 -0.002 0.004c-0.002,-0.006 -0.001,-0.012 0.003,-0.017zm0.002 0.071c0.013,0.004 0.024,0.001 0.035,-0.008 0.011,-0.009 0.018,-0.021 0.02,-0.037 0.002,-0.016 -0.001,-0.03 -0.01,-0.042 -0.009,-0.012 -0.019,-0.017 -0.032,-0.017 -0.011,0 -0.021,0.005 -0.029,0.014 -0.009,0.009 -0.014,0.02 -0.015,0.033 -0.002,0.013 0.001,0.025 0.007,0.036 0.006,0.011 0.014,0.018 0.025,0.022z"/>
     <path class="fil1" d="M-0.413 1.029c-0.002,0.001 -0.004,0.002 -0.007,0.004l-0.007 0.004 -0.007 0.004c-0.003,0.002 -0.005,0.003 -0.006,0.005 -0.007,0.005 -0.015,0.012 -0.024,0.021 -0.009,0.01 -0.016,0.018 -0.02,0.025 -0.011,0.017 -0.018,0.037 -0.022,0.061 -0.001,0.005 -0.002,0.01 -0.002,0.017l-0.001 0.017c-0,0.005 -0.001,0.011 -0.001,0.017l-0 0.017c-0.002,-0.024 -0.003,-0.047 -0.001,-0.068 0.002,-0.024 0.009,-0.045 0.021,-0.064l0.005 -0.007 0.005 -0.007c0.001,-0.002 0.003,-0.004 0.005,-0.006l0.003 -0.003 0.003 -0.003c0.01,-0.01 0.019,-0.016 0.025,-0.02 0.017,-0.011 0.037,-0.019 0.059,-0.023l-0.007 0.003 -0.007 0.003c-0.005,0.002 -0.01,0.004 -0.014,0.006zm0.237 0.069c-0.019,-0.044 -0.048,-0.076 -0.087,-0.095 -0.036,-0.018 -0.074,-0.023 -0.116,-0.015 -0.041,0.007 -0.076,0.025 -0.104,0.054 -0.031,0.031 -0.048,0.068 -0.052,0.113 -0.007,0.083 0.005,0.164 0.035,0.243 0.014,0.036 0.029,0.063 0.046,0.083 0.019,0.021 0.037,0.03 0.054,0.028 0.025,-0.003 0.04,-0.019 0.046,-0.048 0.006,-0.032 0.002,-0.087 -0.012,-0.166 -0.011,-0.062 -0.004,-0.095 0.019,-0.099 0.013,-0.002 0.024,0.009 0.031,0.033 0.007,0.022 0.01,0.05 0.009,0.083 -0.003,0.074 0.005,0.126 0.022,0.156 0.013,0.022 0.032,0.033 0.057,0.031 0.021,-0.001 0.039,-0.016 0.054,-0.044 0.014,-0.026 0.023,-0.06 0.028,-0.103 0.005,-0.042 0.005,-0.086 0,-0.13 -0.005,-0.047 -0.016,-0.088 -0.031,-0.124zm0.295 0.104c-0.003,0.007 -0.006,0.013 -0.011,0.019 -0.005,0.006 -0.011,0.01 -0.017,0.013 -0.007,0.003 -0.014,0.004 -0.02,0.002 0.007,-0.001 0.013,-0.004 0.018,-0.007 0.006,-0.004 0.01,-0.008 0.015,-0.013 0.009,-0.01 0.015,-0.022 0.019,-0.036 0.001,0.007 -0,0.014 -0.003,0.022zm-0.061 -0.031c0.003,-0.007 0.008,-0.013 0.014,-0.016 0.006,-0.003 0.011,-0.003 0.016,-0.001 0.005,0.003 0.008,0.008 0.009,0.014 0.001,0.007 -0,0.014 -0.004,0.021 -0.003,0.007 -0.008,0.013 -0.013,0.016 -0.006,0.003 -0.011,0.003 -0.016,0.001 -0.005,-0.003 -0.008,-0.008 -0.009,-0.014 -0.001,-0.007 0,-0.014 0.003,-0.021zm-0.052 -0.145c-0.015,0.008 -0.028,0.018 -0.04,0.031 -0.01,0.012 -0.019,0.027 -0.027,0.044 -0.006,0.014 -0.012,0.031 -0.017,0.051 0.001,-0.008 0.002,-0.017 0.004,-0.027 0.002,-0.009 0.005,-0.018 0.008,-0.026 0.007,-0.018 0.016,-0.033 0.027,-0.047 0.012,-0.014 0.026,-0.025 0.042,-0.031 0.008,-0.003 0.016,-0.006 0.025,-0.008 0.009,-0.001 0.018,-0.002 0.025,-0.002 -0.019,0.003 -0.035,0.008 -0.048,0.015zm0.063 -0.043c-0.045,-0.001 -0.083,0.013 -0.112,0.041 -0.026,0.024 -0.045,0.059 -0.056,0.103 -0.01,0.04 -0.012,0.085 -0.007,0.133 0.005,0.047 0.016,0.09 0.033,0.13 0.017,0.039 0.035,0.068 0.056,0.089 0.018,0.018 0.036,0.028 0.054,0.03 0.016,0.002 0.031,-0.003 0.042,-0.016 0.012,-0.012 0.019,-0.029 0.021,-0.049 0.002,-0.014 0.002,-0.03 -0.001,-0.048 -0.001,-0.005 -0.002,-0.012 -0.004,-0.022l-0.002 -0.01c-0.001,-0.004 -0.001,-0.007 -0.002,-0.01 -0.002,-0.014 -0.002,-0.025 0.001,-0.033 0.003,-0.01 0.01,-0.018 0.021,-0.023 0.036,-0.019 0.064,-0.046 0.082,-0.081 0.017,-0.033 0.024,-0.068 0.02,-0.104 -0.004,-0.036 -0.018,-0.066 -0.043,-0.09 -0.026,-0.025 -0.061,-0.038 -0.105,-0.039zm0.417 0.326c-0.005,0.004 -0.01,0.007 -0.015,0.008 -0.006,0.002 -0.011,0.002 -0.016,0 0.01,-0.003 0.019,-0.007 0.027,-0.014 0.006,-0.005 0.013,-0.013 0.02,-0.024 -0.002,0.012 -0.007,0.022 -0.017,0.03zm-0.036 -0.021c-0.005,-0.002 -0.009,-0.007 -0.01,-0.014 -0.002,-0.007 -0.001,-0.014 0.001,-0.021 0.003,-0.008 0.007,-0.013 0.013,-0.017 0.006,-0.004 0.011,-0.004 0.016,-0.002 0.005,0.002 0.009,0.007 0.01,0.014 0.002,0.007 0.001,0.014 -0.002,0.022 -0.003,0.007 -0.007,0.013 -0.013,0.017 -0.006,0.004 -0.011,0.004 -0.016,0.002zm-0.054 -0.197c-0.009,0.013 -0.019,0.03 -0.031,0.051 -0.004,0.008 -0.009,0.016 -0.014,0.026l-0.014 0.027c0.007,-0.018 0.015,-0.036 0.024,-0.056 0.009,-0.018 0.019,-0.035 0.03,-0.052 0.013,-0.02 0.026,-0.035 0.037,-0.047l0.005 -0.005c0.002,-0.002 0.004,-0.004 0.005,-0.005l0.006 -0.005 0.006 -0.004c0.011,-0.006 0.02,-0.009 0.027,-0.008 -0.008,0.001 -0.016,0.005 -0.026,0.011l-0.005 0.004 -0.005 0.005c-0.002,0.001 -0.003,0.003 -0.005,0.005l-0.005 0.006c-0.012,0.013 -0.023,0.029 -0.035,0.047zm0.09 -0.106c-0.029,-0.005 -0.062,0.017 -0.099,0.066 -0.033,0.044 -0.062,0.1 -0.089,0.169 -0.026,0.068 -0.041,0.128 -0.046,0.181 -0.005,0.058 0.006,0.092 0.031,0.103 0.019,0.008 0.038,0.008 0.056,-0.001 0.013,-0.006 0.028,-0.018 0.043,-0.036 0.003,-0.003 0.006,-0.007 0.009,-0.011l0.009 -0.011c0.007,-0.01 0.013,-0.016 0.016,-0.02 0.012,-0.014 0.022,-0.021 0.03,-0.021 0.008,0 0.019,0.007 0.031,0.019 0.004,0.004 0.009,0.01 0.017,0.019l0.009 0.01 0.009 0.011c0.015,0.016 0.029,0.027 0.041,0.033 0.016,0.008 0.033,0.007 0.049,-0.001 0.019,-0.01 0.03,-0.041 0.033,-0.094 0.002,-0.049 -0.003,-0.106 -0.015,-0.169 -0.013,-0.066 -0.031,-0.121 -0.053,-0.165 -0.026,-0.05 -0.053,-0.078 -0.082,-0.083zm0.428 0.356c-0.004,0.008 -0.009,0.014 -0.016,0.018 -0.007,0.004 -0.015,0.006 -0.023,0.004 0.008,-0.002 0.014,-0.004 0.02,-0.009 0.006,-0.005 0.01,-0.011 0.014,-0.017 0.006,-0.013 0.007,-0.028 0.003,-0.046 0.004,0.007 0.006,0.015 0.007,0.024 0.001,0.009 -0.001,0.017 -0.004,0.025zm-0.062 -0.022c-0.004,-0.007 -0.005,-0.014 -0.004,-0.021 0.001,-0.007 0.003,-0.012 0.008,-0.015 0.005,-0.003 0.01,-0.003 0.016,0 0.006,0.003 0.011,0.008 0.015,0.015 0.004,0.007 0.005,0.014 0.004,0.021 -0.001,0.007 -0.003,0.012 -0.008,0.015 -0.005,0.003 -0.01,0.003 -0.016,0 -0.006,-0.003 -0.011,-0.008 -0.015,-0.015zm-0.03 -0.152c0.005,-0.002 0.01,-0.004 0.015,-0.006 0.005,-0.003 0.009,-0.007 0.012,-0.01 0.003,-0.004 0.007,-0.008 0.01,-0.014 0.002,-0.005 0.005,-0.01 0.007,-0.016 0.001,0.013 -0.003,0.024 -0.012,0.034 -0.004,0.005 -0.009,0.008 -0.015,0.01 -0.006,0.002 -0.012,0.003 -0.017,0.002zm-0.007 -0.053c0.003,-0.005 0.006,-0.008 0.01,-0.01 0.004,-0.002 0.007,-0.002 0.01,0 0.003,0.002 0.005,0.005 0.005,0.01 0,0.005 -0.001,0.009 -0.003,0.014 -0.002,0.005 -0.006,0.008 -0.01,0.01 -0.004,0.002 -0.007,0.002 -0.01,-0 -0.003,-0.002 -0.005,-0.005 -0.005,-0.01 -0,-0.005 0.001,-0.009 0.003,-0.014zm-0.057 -0.065c-0.005,0.006 -0.011,0.013 -0.017,0.022 -0.009,0.014 -0.016,0.031 -0.024,0.051 -0.006,0.016 -0.011,0.034 -0.016,0.055 0.002,-0.019 0.006,-0.038 0.011,-0.057 0.006,-0.019 0.013,-0.037 0.023,-0.053 0.011,-0.018 0.024,-0.032 0.039,-0.041 0.009,-0.006 0.017,-0.01 0.025,-0.012 0.009,-0.002 0.018,-0.003 0.027,-0.003 -0.019,0.002 -0.035,0.008 -0.049,0.019 -0.007,0.005 -0.014,0.012 -0.02,0.018zm0.145 0.14c-0.004,-0.002 -0.005,-0.006 -0.002,-0.012 0.001,-0.002 0.003,-0.006 0.005,-0.011l0.002 -0.003 0.002 -0.003c0.001,-0.003 0.003,-0.005 0.004,-0.008 0.006,-0.013 0.01,-0.026 0.013,-0.038 0.004,-0.017 0.004,-0.035 0.001,-0.054 -0.003,-0.021 -0.014,-0.038 -0.032,-0.052 -0.019,-0.015 -0.04,-0.022 -0.064,-0.023 -0.026,-0.001 -0.051,0.007 -0.073,0.024 -0.026,0.02 -0.046,0.049 -0.061,0.089 -0.015,0.041 -0.024,0.086 -0.025,0.135 -0.001,0.05 0.005,0.095 0.019,0.137 0.015,0.045 0.037,0.08 0.066,0.104 0.032,0.027 0.071,0.039 0.117,0.036 0.044,-0.003 0.078,-0.019 0.104,-0.046 0.024,-0.025 0.037,-0.056 0.039,-0.093 0.002,-0.037 -0.006,-0.071 -0.025,-0.104 -0.02,-0.035 -0.05,-0.061 -0.088,-0.077zm0.412 -0.145c-0.006,0.007 -0.012,0.016 -0.018,0.026 -0.011,0.018 -0.02,0.038 -0.027,0.059l-0.005 0.015 -0.005 0.016c-0.004,0.014 -0.008,0.024 -0.011,0.031 -0.005,0.013 -0.011,0.023 -0.016,0.03 -0.004,0.005 -0.008,0.008 -0.013,0.01 -0.004,0.002 -0.009,0.003 -0.016,0.002 0.006,-0 0.011,-0.001 0.015,-0.003 0.004,-0.002 0.008,-0.006 0.011,-0.011 0.004,-0.006 0.009,-0.016 0.013,-0.029l0.005 -0.016 0.005 -0.016c0.004,-0.013 0.007,-0.023 0.01,-0.032 0.008,-0.023 0.018,-0.042 0.029,-0.059 0.015,-0.022 0.03,-0.037 0.045,-0.045 -0.008,0.006 -0.016,0.013 -0.023,0.022zm-0.223 0.085c-0.003,0.015 -0.006,0.033 -0.008,0.054l-0.003 0.027 -0.003 0.027c-0.002,-0.053 0.004,-0.101 0.017,-0.143 0.002,-0.008 0.005,-0.016 0.008,-0.022 0.004,-0.009 0.008,-0.016 0.012,-0.022 0.011,-0.016 0.024,-0.024 0.038,-0.023 -0.017,0.002 -0.031,0.015 -0.042,0.04 -0.004,0.009 -0.008,0.02 -0.011,0.033 -0.001,0.005 -0.003,0.01 -0.004,0.016l-0.002 0.007 -0.001 0.003 -0.001 0.003zm0.31 -0.131c-0.027,-0.018 -0.055,-0.017 -0.084,0.004 -0.023,0.017 -0.044,0.045 -0.062,0.083 -0.006,0.012 -0.012,0.026 -0.017,0.042 -0.002,0.006 -0.004,0.013 -0.007,0.021l-0.003 0.01 -0.001 0.004 -0.002 0.004c-0.004,0.013 -0.008,0.023 -0.01,0.028 -0.003,0.007 -0.006,0.011 -0.009,0.01 -0.006,-0.001 -0.009,-0.005 -0.009,-0.015 -0,-0.008 0.001,-0.027 0.005,-0.056 0.007,-0.054 0.004,-0.092 -0.01,-0.114 -0.011,-0.017 -0.028,-0.024 -0.052,-0.021 -0.029,0.004 -0.052,0.034 -0.068,0.088 -0.016,0.053 -0.023,0.118 -0.021,0.194 0.004,0.14 0.042,0.216 0.115,0.227 0.021,0.003 0.042,-0.002 0.063,-0.016 0.02,-0.013 0.036,-0.031 0.05,-0.054 0.012,-0.02 0.023,-0.039 0.031,-0.056 0.003,-0.007 0.006,-0.013 0.009,-0.02 0.002,-0.004 0.004,-0.009 0.006,-0.014 0.004,-0.009 0.006,-0.014 0.007,-0.016 0.002,-0.002 0.004,-0.003 0.007,-0.003 0.003,0.001 0.003,0.011 0.001,0.03l-0.001 0.007 -0.001 0.007c-0.001,0.006 -0.001,0.011 -0.002,0.015 -0.001,0.013 -0.002,0.024 -0.002,0.033 -0.001,0.06 0.018,0.089 0.059,0.089 0.026,-0 0.046,-0.024 0.061,-0.072 0.013,-0.043 0.019,-0.097 0.02,-0.162 0,-0.064 -0.006,-0.122 -0.019,-0.173 -0.013,-0.056 -0.031,-0.091 -0.053,-0.106zm0.276 0.018l-0.006 0.002c-0.002,0.001 -0.004,0.002 -0.006,0.003 -0.001,0 -0.003,0.001 -0.006,0.003l-0.003 0.002 -0.003 0.001 -0.005 0.004c-0.002,0.002 -0.004,0.003 -0.005,0.004 -0.013,0.011 -0.025,0.025 -0.036,0.041 -0.009,0.013 -0.018,0.029 -0.028,0.049 -0.006,0.014 -0.014,0.031 -0.022,0.052 0.004,-0.018 0.01,-0.036 0.018,-0.055 0.007,-0.018 0.016,-0.035 0.027,-0.051 0.012,-0.018 0.025,-0.031 0.038,-0.041 0.016,-0.012 0.033,-0.018 0.051,-0.016l-0.013 0.002zm0.206 0.164c-0.022,-0.062 -0.052,-0.111 -0.09,-0.147 -0.039,-0.037 -0.079,-0.052 -0.12,-0.046 -0.034,0.005 -0.066,0.03 -0.095,0.075 -0.027,0.043 -0.047,0.094 -0.06,0.155 -0.014,0.068 -0.016,0.132 -0.006,0.191 0.005,0.029 0.012,0.052 0.023,0.07 0.011,0.019 0.024,0.03 0.04,0.032 0.024,0.004 0.044,-0.005 0.059,-0.029 0.012,-0.018 0.021,-0.045 0.03,-0.083 0.002,-0.007 0.003,-0.015 0.005,-0.023l0.002 -0.011 0.002 -0.011c0.004,-0.02 0.006,-0.033 0.008,-0.041 0.006,-0.028 0.014,-0.043 0.023,-0.044 0.007,-0.002 0.013,0.002 0.019,0.01 0.005,0.007 0.01,0.018 0.016,0.033 0.002,0.005 0.005,0.013 0.008,0.022l0.004 0.013 0.004 0.012c0.007,0.021 0.014,0.038 0.02,0.052 0.016,0.035 0.034,0.059 0.054,0.072 0.019,0.012 0.037,0.012 0.054,0 0.011,-0.008 0.019,-0.021 0.025,-0.039 0.006,-0.019 0.009,-0.041 0.01,-0.068 0.002,-0.059 -0.01,-0.123 -0.034,-0.193zm0.293 0.171c-0.004,0.007 -0.009,0.012 -0.016,0.015 -0.007,0.003 -0.014,0.004 -0.02,0.003 0.014,-0.003 0.024,-0.01 0.031,-0.022 0.003,-0.005 0.006,-0.011 0.008,-0.019 0.001,-0.006 0.002,-0.014 0.002,-0.022 0.003,0.007 0.004,0.015 0.003,0.022 -0,0.008 -0.003,0.015 -0.007,0.022zm-0.059 -0.028c-0.003,-0.007 -0.004,-0.014 -0.003,-0.021 0.001,-0.007 0.004,-0.012 0.008,-0.015 0.005,-0.003 0.01,-0.002 0.016,0.001 0.006,0.003 0.01,0.008 0.014,0.015 0.003,0.007 0.004,0.014 0.003,0.021 -0.001,0.007 -0.004,0.012 -0.009,0.014 -0.005,0.003 -0.01,0.002 -0.015,-0.001 -0.006,-0.003 -0.01,-0.008 -0.014,-0.016zm-0.031 -0.304c-0.004,0.002 -0.009,0.005 -0.014,0.01 -0.008,0.007 -0.016,0.016 -0.023,0.026 -0.006,0.007 -0.012,0.017 -0.02,0.03 -0.003,0.004 -0.006,0.009 -0.009,0.016l-0.009 0.016c0.005,-0.014 0.009,-0.025 0.014,-0.034 0.006,-0.012 0.012,-0.022 0.019,-0.032 0.008,-0.011 0.017,-0.02 0.026,-0.026 0.012,-0.008 0.022,-0.012 0.033,-0.011 -0.005,0.001 -0.011,0.003 -0.016,0.006zm0.088 0.177c-0.011,-0.004 -0.019,-0.01 -0.022,-0.02 -0.002,-0.008 -0.003,-0.019 -0,-0.033 0,-0.003 0.001,-0.006 0.002,-0.01l0.002 -0.011c0.002,-0.01 0.003,-0.017 0.004,-0.022 0.003,-0.019 0.003,-0.035 0.002,-0.05 -0.002,-0.021 -0.01,-0.037 -0.021,-0.049 -0.012,-0.012 -0.026,-0.018 -0.043,-0.016 -0.018,0.002 -0.036,0.012 -0.054,0.03 -0.02,0.021 -0.039,0.05 -0.056,0.089 -0.017,0.04 -0.028,0.083 -0.033,0.13 -0.005,0.048 -0.003,0.092 0.007,0.133 0.011,0.044 0.029,0.078 0.056,0.103 0.029,0.027 0.067,0.041 0.112,0.04 0.043,-0 0.079,-0.014 0.107,-0.042 0.026,-0.025 0.041,-0.057 0.047,-0.095 0.005,-0.038 -0.001,-0.073 -0.019,-0.105 -0.02,-0.035 -0.049,-0.059 -0.09,-0.072zm0.439 -0.174c-0.003,0.001 -0.006,0.004 -0.009,0.008 -0.004,0.005 -0.007,0.013 -0.009,0.024 -0.002,0.014 -0.003,0.031 -0.003,0.052l-0 0.007 0 0.007c0,0.005 0,0.01 -0,0.014 -0.001,0.01 -0.003,0.019 -0.006,0.027 -0.004,0.009 -0.008,0.016 -0.014,0.022 -0.007,0.006 -0.014,0.011 -0.022,0.013 0.015,-0.008 0.026,-0.02 0.032,-0.038 0.003,-0.008 0.004,-0.017 0.005,-0.025 0,-0.003 0,-0.008 0,-0.013l-0 -0.007 0 -0.007c-0,-0.022 0.001,-0.04 0.004,-0.053 0.003,-0.011 0.007,-0.019 0.012,-0.025 0.003,-0.004 0.007,-0.006 0.011,-0.007 0.003,-0.001 0.007,-0.002 0.012,-0.002 -0.005,0.001 -0.009,0.002 -0.012,0.003zm-0.227 0.009c-0.008,0.009 -0.014,0.02 -0.018,0.033 -0.003,0.011 -0.007,0.024 -0.01,0.039l-0.004 0.019 -0.004 0.02c0.001,-0.028 0.005,-0.054 0.013,-0.08 0.005,-0.015 0.012,-0.026 0.021,-0.035 0.005,-0.005 0.01,-0.009 0.016,-0.011 0.007,-0.003 0.013,-0.003 0.019,-0.003 -0.012,0.001 -0.022,0.007 -0.031,0.018zm0.238 -0.041c-0.023,0.001 -0.039,0.013 -0.049,0.034 -0.009,0.02 -0.013,0.052 -0.011,0.094 0.001,0.019 -0.003,0.033 -0.011,0.042 -0.007,0.008 -0.016,0.012 -0.027,0.011 -0.011,-0.001 -0.019,-0.006 -0.025,-0.015 -0.006,-0.01 -0.008,-0.022 -0.006,-0.037 0.004,-0.043 0,-0.075 -0.012,-0.097 -0.011,-0.019 -0.029,-0.031 -0.054,-0.035 -0.02,-0.003 -0.038,0.002 -0.055,0.015 -0.016,0.013 -0.027,0.031 -0.034,0.055 -0.014,0.046 -0.022,0.1 -0.022,0.162 -0.001,0.06 0.005,0.117 0.017,0.172 0.009,0.04 0.023,0.069 0.042,0.087 0.016,0.015 0.034,0.02 0.053,0.017 0.043,-0.007 0.063,-0.041 0.058,-0.103 -0.003,-0.045 0.006,-0.068 0.026,-0.068 0.01,0 0.018,0.004 0.024,0.012 0.007,0.011 0.01,0.029 0.009,0.052 -0.002,0.04 0.004,0.071 0.018,0.093 0.013,0.02 0.031,0.03 0.054,0.03 0.04,0 0.068,-0.027 0.084,-0.081 0.012,-0.039 0.019,-0.104 0.021,-0.194 0.002,-0.07 -0.006,-0.128 -0.024,-0.174 -0.019,-0.048 -0.044,-0.072 -0.077,-0.07zm0.364 0.355c-0.004,0.007 -0.01,0.011 -0.016,0.015 -0.006,0.004 -0.013,0.006 -0.019,0.005 0.013,-0.005 0.023,-0.013 0.03,-0.024 0.007,-0.01 0.011,-0.023 0.014,-0.038 0.003,0.015 0,0.029 -0.008,0.042zm-0.07 -0.037c-0.001,-0.009 0,-0.018 0.004,-0.025 0.004,-0.007 0.01,-0.012 0.017,-0.013 0.007,-0.001 0.014,0.001 0.02,0.007 0.006,0.006 0.01,0.013 0.011,0.022 0.002,0.009 0,0.018 -0.004,0.025 -0.004,0.008 -0.01,0.012 -0.017,0.013 -0.007,0.001 -0.014,-0.001 -0.02,-0.007 -0.006,-0.005 -0.01,-0.013 -0.011,-0.022zm-0.018 -0.281c-0.017,0.008 -0.033,0.018 -0.046,0.032 -0.012,0.012 -0.024,0.028 -0.034,0.047l-0.003 0.007 -0.003 0.007 -0.006 0.014 -0.005 0.014 -0.005 0.014c0.004,-0.02 0.01,-0.04 0.019,-0.058 0.009,-0.019 0.02,-0.036 0.034,-0.049 0.015,-0.015 0.031,-0.026 0.049,-0.032 0.009,-0.003 0.018,-0.005 0.028,-0.007l0.007 -0.001 0.007 -0 0.014 0c-0.02,0.002 -0.039,0.006 -0.054,0.013zm0.113 -0.034c-0.07,-0.019 -0.127,-0.006 -0.174,0.037 -0.041,0.038 -0.066,0.093 -0.077,0.164 -0.01,0.069 -0.002,0.133 0.022,0.191 0.026,0.064 0.067,0.103 0.121,0.119 0.051,0.015 0.1,0.001 0.145,-0.043 0.041,-0.04 0.071,-0.094 0.088,-0.162 0.018,-0.07 0.018,-0.132 -0.001,-0.187 -0.021,-0.062 -0.063,-0.102 -0.125,-0.118z"/>
    </g>
   </g>
  </g>
  <path class="fil2 str0" d="M2.107 0.007l0 0.669c-0.002,0.073 0.072,0.032 0.154,-0.03 0.515,-0.315 0.426,0.657 -0.001,0.313 -0.059,-0.054 -0.152,-0.086 -0.154,-0.028l0 0.669 -1.593 0c0,-0.22 0,-0.441 0,-0.665 0.002,-0.077 -0.072,-0.036 -0.154,0.026 -0.515,0.315 -0.426,-0.657 0.001,-0.313 0.059,0.054 0.152,0.086 0.154,0.028l0 -0.669 1.593 0z"/>
 </g>
</svg>
