<?xml version="1.0" encoding="UTF-8"?>
<!DOCTYPE svg PUBLIC "-//W3C//DTD SVG 1.1//EN" "http://www.w3.org/Graphics/SVG/1.1/DTD/svg11.dtd">
<!-- Creator: CorelDRAW 2019 (64-Bit) -->
<svg xmlns="http://www.w3.org/2000/svg" xml:space="preserve" width="1.19182cm" height="0.90544cm" version="1.1" style="shape-rendering:geometricPrecision; text-rendering:geometricPrecision; image-rendering:optimizeQuality; fill-rule:evenodd; clip-rule:evenodd"
viewBox="0 0 1.986 1.509"
 xmlns:xlink="http://www.w3.org/1999/xlink"
 xmlns:xodm="http://www.corel.com/coreldraw/odm/2003">
 <defs>
  <style type="text/css">
   <![CDATA[
    .str0 {stroke:white;stroke-width:0.013;stroke-linejoin:round;stroke-miterlimit:22.9256}
    .fil2 {fill:none}
    .fil0 {fill:#FFFF99}
    .fil1 {fill:#A39F6B;fill-rule:nonzero}
   ]]>
  </style>
   <clipPath id="id0">
    <path d="M1.98 1.503l0 -0.633c0.002,-0.072 -0.067,-0.033 -0.145,0.025 -0.484,0.296 -0.401,-0.617 0.001,-0.294 0.056,0.051 0.142,0.08 0.144,0.027 0,-0.207 0,-0.414 0,-0.621l-1.497 0 0 0.628c-0.002,0.054 -0.088,0.024 -0.144,-0.027 -0.401,-0.323 -0.484,0.59 -0.001,0.294 0.077,-0.058 0.147,-0.097 0.145,-0.028l0 0.628 1.497 0z"/>
   </clipPath>
 </defs>
 <g id="Слой_x0020_1">
  <metadata id="CorelCorpID_0Corel-Layer"/>
  <path class="fil0" d="M1.98 1.503l0 -0.633c0.002,-0.072 -0.067,-0.033 -0.145,0.025 -0.484,0.296 -0.401,-0.617 0.001,-0.294 0.056,0.051 0.142,0.08 0.144,0.027 0,-0.207 0,-0.414 0,-0.621l-1.497 0 0 0.628c-0.002,0.054 -0.088,0.024 -0.144,-0.027 -0.401,-0.323 -0.484,0.59 -0.001,0.294 0.077,-0.058 0.147,-0.097 0.145,-0.028l0 0.628 1.497 0z"/>
  <g style="clip-path:url(#id0)">
   <g id="_2229992322176">
    <path id="1" class="fil1" d="M-0.406 0.224c-0.015,0.002 -0.027,0.005 -0.036,0.008 -0.014,0.004 -0.025,0.009 -0.034,0.015 -0.006,0.004 -0.01,0.009 -0.013,0.013 -0.004,0.005 -0.005,0.011 -0.005,0.019 -0.002,-0.007 -0.001,-0.014 0.003,-0.02 0.003,-0.005 0.007,-0.01 0.013,-0.016 0.008,-0.007 0.02,-0.012 0.035,-0.017 0.023,-0.007 0.048,-0.009 0.075,-0.006 -0.014,0.001 -0.026,0.003 -0.037,0.005zm0.06 -0.031c-0.052,-0.003 -0.094,0.003 -0.126,0.018 -0.034,0.016 -0.05,0.039 -0.047,0.069 0.001,0.017 0.008,0.029 0.02,0.036 0.008,0.006 0.021,0.009 0.038,0.011l0.01 0.001 0.01 0.001c0.008,0.001 0.014,0.002 0.019,0.003 0.013,0.003 0.021,0.009 0.024,0.017 0.002,0.005 -0,0.035 -0.006,0.09 -0.003,0.028 -0.005,0.051 -0.006,0.071 -0.001,0.028 -0.001,0.052 0.001,0.073 0.003,0.031 0.013,0.056 0.03,0.076 0.018,0.02 0.039,0.029 0.064,0.026 0.045,-0.007 0.062,-0.056 0.05,-0.147 -0.007,-0.048 -0.01,-0.089 -0.01,-0.124 -0,-0.036 0.003,-0.058 0.01,-0.064 0.005,-0.004 0.013,-0.006 0.025,-0.006 0.003,0 0.009,0 0.017,0l0.009 0 0.009 -0c0.014,-0 0.024,-0.002 0.032,-0.007 0.01,-0.005 0.017,-0.014 0.021,-0.027 0.004,-0.016 0.002,-0.03 -0.007,-0.044 -0.008,-0.013 -0.022,-0.025 -0.04,-0.036 -0.037,-0.021 -0.086,-0.034 -0.145,-0.037z"/>
    <path id="2" class="fil1" d="M0.172 0.228c-0.004,0.004 -0.008,0.009 -0.013,0.016 -0.006,0.009 -0.014,0.021 -0.022,0.035l-0.005 0.009 -0.005 0.009c-0.004,0.007 -0.008,0.013 -0.011,0.018 -0.005,0.007 -0.009,0.013 -0.013,0.017 -0.006,0.006 -0.012,0.009 -0.018,0.01 0.006,-0.003 0.011,-0.007 0.016,-0.012 0.003,-0.004 0.007,-0.01 0.011,-0.017 0.002,-0.004 0.006,-0.011 0.01,-0.019l0.01 -0.018c0.009,-0.015 0.016,-0.027 0.023,-0.036 0.005,-0.006 0.01,-0.011 0.015,-0.015 0.007,-0.005 0.013,-0.008 0.018,-0.008 -0.005,0.001 -0.011,0.004 -0.017,0.01zm-0.204 0.309c-0.005,0.004 -0.009,0.008 -0.013,0.01 -0.01,0.008 -0.017,0.015 -0.023,0.023 -0.003,0.005 -0.006,0.01 -0.008,0.014 -0.002,0.004 -0.003,0.01 -0.004,0.016 -0,-0.006 0,-0.011 0.002,-0.018 0.002,-0.006 0.004,-0.011 0.007,-0.016 0.005,-0.008 0.012,-0.016 0.023,-0.025 0.007,-0.006 0.016,-0.012 0.027,-0.019l0.007 -0.004 0.007 -0.004c0.005,-0.003 0.01,-0.007 0.013,-0.009 -0.006,0.007 -0.014,0.015 -0.024,0.023l-0.013 0.01zm-0.053 -0.28c-0.003,0.005 -0.005,0.01 -0.007,0.017 -0.002,0.006 -0.002,0.012 -0.002,0.019 -0.002,-0.006 -0.003,-0.013 -0.002,-0.02 0.001,-0.007 0.003,-0.013 0.007,-0.02 0.004,-0.006 0.009,-0.01 0.015,-0.013 0.006,-0.003 0.012,-0.004 0.019,-0.002 -0.012,0.003 -0.022,0.009 -0.029,0.02zm0.274 -0.066c-0.013,-0 -0.025,0.006 -0.038,0.02 -0.009,0.01 -0.02,0.024 -0.031,0.043l-0.007 0.012 -0.003 0.006 -0.003 0.006c-0.005,0.009 -0.009,0.016 -0.011,0.02 -0.008,0.013 -0.014,0.02 -0.019,0.02 -0.005,0 -0.015,-0.009 -0.03,-0.027l-0.002 -0.003 -0.003 -0.003c-0.002,-0.002 -0.004,-0.005 -0.006,-0.007 -0.004,-0.005 -0.009,-0.01 -0.012,-0.014 -0.01,-0.011 -0.02,-0.021 -0.03,-0.03 -0.016,-0.014 -0.032,-0.021 -0.049,-0.021 -0.016,0 -0.029,0.006 -0.041,0.017 -0.012,0.011 -0.019,0.025 -0.021,0.042 -0.003,0.018 0.001,0.036 0.01,0.054 0.007,0.013 0.017,0.027 0.03,0.041 0.005,0.006 0.011,0.012 0.018,0.018l0.009 0.009 0.009 0.008c0.015,0.014 0.025,0.024 0.03,0.031 0.009,0.01 0.013,0.02 0.014,0.028 0.001,0.009 -0.004,0.018 -0.015,0.027 -0.004,0.004 -0.009,0.008 -0.016,0.013l-0.004 0.003 -0.005 0.003 -0.01 0.007c-0.016,0.012 -0.028,0.023 -0.036,0.034 -0.011,0.015 -0.018,0.032 -0.018,0.051 -0.001,0.014 0.002,0.028 0.007,0.04 0.006,0.012 0.014,0.022 0.024,0.03 0.024,0.017 0.053,0.02 0.088,0.008 0.047,-0.016 0.094,-0.059 0.141,-0.132 0.042,-0.065 0.069,-0.127 0.081,-0.186 0.012,-0.06 0.013,-0.105 0.002,-0.133 -0.009,-0.024 -0.026,-0.036 -0.05,-0.036z"/>
    <path id="3" class="fil1" d="M0.662 0.268c0.002,-0.006 0.006,-0.012 0.009,-0.018 0.004,-0.006 0.009,-0.011 0.014,-0.014 0.006,-0.004 0.012,-0.005 0.018,-0.004 -0.006,0.001 -0.011,0.004 -0.016,0.008 -0.004,0.004 -0.008,0.008 -0.012,0.013 -0.003,0.004 -0.006,0.01 -0.01,0.016l-0.004 0.009 -0.005 0.008c0.001,-0.006 0.002,-0.012 0.005,-0.019zm-0.125 -0.047c-0.002,0.001 -0.004,0.002 -0.006,0.003 -0.004,0.002 -0.007,0.005 -0.01,0.009 -0.004,0.005 -0.007,0.014 -0.01,0.026 -0.001,-0.005 -0.001,-0.01 -0.001,-0.016 0.001,-0.006 0.003,-0.01 0.006,-0.015 0.004,-0.005 0.008,-0.008 0.013,-0.009 0.002,-0.001 0.005,-0.001 0.008,-0.001 0.002,0 0.004,0 0.007,0.001l-0.003 0.001 -0.003 0.001zm-0.114 0.213c-0.002,0.003 -0.006,0.005 -0.01,0.008l-0.005 0.003 -0.005 0.003c-0.014,0.009 -0.027,0.018 -0.039,0.029 -0.012,0.011 -0.023,0.023 -0.033,0.036 -0.01,0.013 -0.018,0.028 -0.024,0.044 0.002,-0.008 0.004,-0.016 0.008,-0.025 0.004,-0.008 0.008,-0.016 0.012,-0.022 0.008,-0.013 0.019,-0.026 0.033,-0.038 0.013,-0.012 0.027,-0.021 0.041,-0.028l0.005 -0.003 0.005 -0.003c0.004,-0.002 0.007,-0.004 0.009,-0.007 0.007,-0.006 0.01,-0.013 0.011,-0.021 0,0.009 -0.003,0.017 -0.009,0.024zm-0.081 -0.183c-0.003,0.005 -0.005,0.01 -0.006,0.017 -0.001,0.005 -0.002,0.011 -0.002,0.019 -0.005,-0.014 -0.004,-0.027 0.003,-0.039 0.004,-0.006 0.008,-0.011 0.014,-0.014 0.006,-0.003 0.012,-0.004 0.018,-0.003 -0.012,0.002 -0.021,0.009 -0.027,0.021zm0.336 0.161c-0.009,-0.005 -0.012,-0.01 -0.008,-0.014 0.001,-0.002 0.009,-0.007 0.023,-0.016 0.007,-0.004 0.012,-0.008 0.017,-0.012 0.007,-0.005 0.013,-0.011 0.018,-0.017 0.013,-0.015 0.023,-0.033 0.028,-0.053 0.005,-0.019 0.005,-0.037 -0.001,-0.054 -0.005,-0.015 -0.014,-0.026 -0.027,-0.033 -0.013,-0.007 -0.026,-0.009 -0.04,-0.004 -0.015,0.006 -0.028,0.018 -0.039,0.037 -0.008,0.015 -0.014,0.031 -0.019,0.05 -0.003,0.014 -0.006,0.023 -0.01,0.027 -0.004,0.005 -0.006,0.002 -0.006,-0.008 0,-0.043 -0.007,-0.075 -0.02,-0.096 -0.013,-0.021 -0.033,-0.03 -0.058,-0.028 -0.008,0.001 -0.016,0.004 -0.023,0.009 -0.008,0.006 -0.014,0.013 -0.018,0.022 -0.01,0.023 -0.009,0.052 0.004,0.087 0.003,0.009 0.004,0.014 0.001,0.016 -0.003,0.002 -0.008,0 -0.015,-0.005 -0.017,-0.013 -0.034,-0.036 -0.052,-0.07 -0.011,-0.022 -0.025,-0.036 -0.041,-0.044 -0.014,-0.007 -0.029,-0.007 -0.043,-0.001 -0.014,0.006 -0.024,0.016 -0.031,0.031 -0.008,0.016 -0.01,0.033 -0.006,0.052 0.004,0.021 0.012,0.04 0.027,0.056 0.01,0.012 0.023,0.023 0.039,0.034 0.002,0.001 0.005,0.003 0.009,0.006l0.004 0.003 0.004 0.002c0.005,0.004 0.009,0.007 0.011,0.009 0.005,0.006 0.003,0.011 -0.005,0.015 -0.049,0.025 -0.083,0.06 -0.105,0.103 -0.01,0.021 -0.015,0.041 -0.016,0.061 -0.001,0.021 0.004,0.04 0.013,0.057 0.008,0.015 0.02,0.026 0.034,0.032 0.014,0.006 0.028,0.007 0.043,0.002 0.016,-0.005 0.029,-0.014 0.042,-0.029 0.013,-0.016 0.023,-0.037 0.029,-0.063 0.011,-0.042 0.022,-0.068 0.035,-0.078 0.005,-0.004 0.009,-0.004 0.012,-0.001 0.003,0.003 0.004,0.007 0.002,0.013l-0 0.001 -0 0.001c-0,0.001 -0,0.002 -0.001,0.003 -0,0.003 -0.001,0.005 -0.001,0.008 -0.001,0.007 -0.002,0.015 -0.003,0.022 -0.003,0.02 -0.003,0.039 -0.003,0.055 0.002,0.049 0.019,0.076 0.05,0.079 0.023,0.003 0.043,-0.007 0.058,-0.03 0.015,-0.022 0.024,-0.052 0.028,-0.092 0.001,-0.012 0.003,-0.016 0.007,-0.013 0.001,0.001 0.002,0.003 0.004,0.006 0.001,0.002 0.002,0.005 0.002,0.007 0.001,0.004 0.002,0.009 0.003,0.013 0.008,0.027 0.018,0.049 0.031,0.066 0.012,0.015 0.026,0.026 0.041,0.03 0.014,0.004 0.028,0.004 0.042,-0.002 0.014,-0.006 0.025,-0.017 0.034,-0.032 0.01,-0.017 0.015,-0.036 0.015,-0.057 -0,-0.02 -0.005,-0.041 -0.015,-0.062 -0.02,-0.044 -0.054,-0.08 -0.102,-0.106z"/>
    <path id="4" class="fil1" d="M1.242 0.229c-0.004,0.004 -0.008,0.009 -0.013,0.016 -0.006,0.009 -0.014,0.021 -0.022,0.035l-0.005 0.009 -0.005 0.009c-0.004,0.007 -0.008,0.013 -0.011,0.018 -0.005,0.007 -0.009,0.013 -0.013,0.017 -0.006,0.006 -0.012,0.009 -0.018,0.01 0.006,-0.003 0.011,-0.007 0.016,-0.012 0.003,-0.004 0.007,-0.01 0.011,-0.017 0.002,-0.004 0.006,-0.011 0.01,-0.019l0.01 -0.018c0.009,-0.015 0.016,-0.027 0.023,-0.036 0.005,-0.006 0.01,-0.011 0.015,-0.015 0.007,-0.005 0.013,-0.008 0.018,-0.008 -0.005,0.001 -0.011,0.004 -0.017,0.01zm-0.204 0.309c-0.005,0.004 -0.009,0.008 -0.013,0.01 -0.01,0.008 -0.017,0.015 -0.023,0.023 -0.003,0.005 -0.006,0.009 -0.008,0.014 -0.002,0.004 -0.003,0.01 -0.004,0.016 -0,-0.006 0,-0.011 0.002,-0.018 0.002,-0.006 0.004,-0.011 0.007,-0.016 0.005,-0.008 0.012,-0.016 0.023,-0.025 0.007,-0.006 0.016,-0.012 0.027,-0.019l0.007 -0.004 0.007 -0.004c0.005,-0.003 0.01,-0.007 0.013,-0.009 -0.006,0.007 -0.014,0.015 -0.024,0.023l-0.013 0.01zm-0.053 -0.28c-0.003,0.005 -0.005,0.01 -0.007,0.017 -0.001,0.006 -0.002,0.012 -0.002,0.019 -0.002,-0.006 -0.003,-0.013 -0.002,-0.02 0.001,-0.007 0.003,-0.013 0.007,-0.02 0.004,-0.006 0.009,-0.01 0.015,-0.013 0.006,-0.003 0.012,-0.004 0.019,-0.002 -0.012,0.003 -0.022,0.009 -0.029,0.02zm0.274 -0.066c-0.013,0 -0.025,0.006 -0.038,0.02 -0.009,0.01 -0.02,0.024 -0.031,0.043l-0.007 0.012 -0.003 0.006 -0.003 0.006c-0.005,0.009 -0.009,0.016 -0.011,0.02 -0.008,0.013 -0.014,0.02 -0.019,0.02 -0.005,0 -0.015,-0.009 -0.03,-0.027l-0.002 -0.003 -0.003 -0.003c-0.002,-0.002 -0.004,-0.005 -0.006,-0.007 -0.004,-0.005 -0.009,-0.01 -0.012,-0.014 -0.01,-0.011 -0.02,-0.021 -0.03,-0.03 -0.016,-0.014 -0.032,-0.021 -0.049,-0.021 -0.016,-0 -0.029,0.006 -0.041,0.017 -0.012,0.011 -0.019,0.025 -0.021,0.042 -0.003,0.018 0.001,0.036 0.01,0.054 0.007,0.013 0.017,0.027 0.03,0.041 0.005,0.006 0.011,0.012 0.018,0.018l0.009 0.009 0.009 0.008c0.015,0.014 0.025,0.024 0.03,0.031 0.009,0.01 0.013,0.02 0.014,0.028 0.001,0.009 -0.004,0.018 -0.015,0.027 -0.004,0.004 -0.009,0.008 -0.016,0.013l-0.004 0.003 -0.005 0.003 -0.01 0.007c-0.016,0.012 -0.028,0.023 -0.036,0.034 -0.011,0.015 -0.018,0.032 -0.018,0.051 -0.001,0.014 0.002,0.028 0.007,0.04 0.006,0.012 0.014,0.022 0.024,0.03 0.024,0.017 0.053,0.02 0.088,0.008 0.047,-0.016 0.094,-0.059 0.141,-0.132 0.042,-0.065 0.069,-0.127 0.081,-0.186 0.012,-0.06 0.013,-0.105 0.002,-0.133 -0.009,-0.024 -0.026,-0.036 -0.05,-0.036z"/>
    <path id="5" class="fil1" d="M1.703 0.227c-0.005,0.004 -0.01,0.009 -0.015,0.016 -0.007,0.009 -0.016,0.021 -0.026,0.037l-0.006 0.01 -0.006 0.01c-0.005,0.007 -0.01,0.013 -0.015,0.018 -0.006,0.006 -0.012,0.01 -0.018,0.013 -0.008,0.004 -0.015,0.005 -0.022,0.004 0.013,-0.001 0.025,-0.008 0.036,-0.021 0.004,-0.005 0.009,-0.011 0.013,-0.018l0.006 -0.01 0.006 -0.01c0.01,-0.016 0.02,-0.029 0.027,-0.037 0.006,-0.007 0.012,-0.012 0.017,-0.015 0.007,-0.004 0.014,-0.006 0.021,-0.005 -0.008,0.001 -0.014,0.003 -0.02,0.008zm-0.255 0.031c-0.008,0.01 -0.015,0.023 -0.022,0.039 -0.004,0.01 -0.01,0.024 -0.017,0.042 -0.003,0.007 -0.005,0.015 -0.007,0.022l-0.004 0.011 -0.004 0.011c0.006,-0.032 0.015,-0.062 0.026,-0.089 0.008,-0.017 0.016,-0.03 0.024,-0.04 0.005,-0.006 0.01,-0.011 0.017,-0.015 0.007,-0.004 0.014,-0.006 0.021,-0.006 -0.012,0.001 -0.023,0.009 -0.035,0.024zm0.386 0.17c-0.002,-0.069 -0.014,-0.125 -0.034,-0.168 -0.019,-0.041 -0.041,-0.063 -0.067,-0.067 -0.019,-0.003 -0.037,0.003 -0.052,0.017 -0.012,0.011 -0.028,0.032 -0.046,0.062 -0.016,0.027 -0.03,0.039 -0.042,0.036 -0.008,-0.002 -0.017,-0.012 -0.029,-0.032 -0.013,-0.022 -0.026,-0.039 -0.038,-0.05 -0.015,-0.014 -0.031,-0.02 -0.048,-0.018 -0.044,0.005 -0.08,0.061 -0.107,0.168 -0.017,0.069 -0.024,0.131 -0.021,0.186 0.004,0.062 0.021,0.097 0.052,0.104 0.018,0.004 0.034,-0.001 0.048,-0.014 0.01,-0.011 0.02,-0.028 0.029,-0.051 0.003,-0.008 0.006,-0.017 0.01,-0.029l0.002 -0.007 0.002 -0.007c0.002,-0.005 0.003,-0.009 0.004,-0.013 0.007,-0.018 0.013,-0.028 0.018,-0.03 0.004,-0.002 0.008,0.002 0.012,0.011 0.001,0.003 0.003,0.007 0.005,0.014l0.001 0.004 0.002 0.004 0.003 0.008c0.006,0.014 0.011,0.025 0.017,0.032 0.009,0.01 0.019,0.015 0.031,0.016 0.009,0 0.018,-0.004 0.026,-0.011 0.006,-0.005 0.012,-0.013 0.019,-0.025l0.004 -0.006 0.004 -0.006c0.003,-0.005 0.005,-0.008 0.008,-0.011 0.005,-0.006 0.011,-0.009 0.016,-0.007 0.005,0.002 0.01,0.011 0.016,0.027 0.001,0.003 0.002,0.007 0.003,0.011l0.002 0.006 0.002 0.006c0.003,0.011 0.006,0.02 0.009,0.027 0.008,0.021 0.016,0.037 0.025,0.049 0.012,0.015 0.026,0.022 0.043,0.023 0.028,0.001 0.048,-0.023 0.06,-0.073 0.01,-0.043 0.014,-0.105 0.011,-0.185z"/>
    <path id="6" class="fil1" d="M2.082 0.531c-0.004,0.006 -0.009,0.011 -0.015,0.014 -0.006,0.004 -0.012,0.005 -0.018,0.005 0.012,-0.005 0.021,-0.012 0.028,-0.022 0.006,-0.009 0.011,-0.021 0.013,-0.036 0.003,0.014 0,0.027 -0.008,0.04zm-0.066 -0.035c-0.001,-0.009 0,-0.017 0.004,-0.024 0.004,-0.007 0.009,-0.011 0.016,-0.012 0.007,-0.001 0.013,0.001 0.019,0.007 0.006,0.005 0.009,0.012 0.01,0.021 0.002,0.009 0,0.017 -0.004,0.024 -0.004,0.007 -0.009,0.011 -0.016,0.012 -0.007,0.001 -0.013,-0.001 -0.019,-0.006 -0.006,-0.005 -0.009,-0.012 -0.01,-0.021zm-0.017 -0.264c-0.016,0.007 -0.031,0.017 -0.043,0.03 -0.012,0.012 -0.022,0.026 -0.032,0.044l-0.003 0.006 -0.003 0.006 -0.006 0.013 -0.005 0.014 -0.005 0.013c0.004,-0.019 0.01,-0.037 0.018,-0.054 0.008,-0.018 0.019,-0.033 0.032,-0.046 0.014,-0.014 0.029,-0.024 0.046,-0.03 0.008,-0.003 0.017,-0.005 0.026,-0.007l0.007 -0.001 0.007 -0 0.013 0c-0.019,0.002 -0.036,0.006 -0.051,0.012zm0.106 -0.032c-0.065,-0.017 -0.12,-0.006 -0.164,0.035 -0.038,0.036 -0.062,0.087 -0.072,0.154 -0.009,0.065 -0.002,0.125 0.021,0.18 0.025,0.06 0.063,0.097 0.114,0.112 0.048,0.014 0.094,0.001 0.136,-0.041 0.039,-0.038 0.067,-0.088 0.083,-0.152 0.017,-0.065 0.016,-0.124 -0.001,-0.176 -0.02,-0.059 -0.059,-0.096 -0.118,-0.111z"/>
    <path id="7" class="fil1" d="M2.516 0.248c-0.006,0.007 -0.011,0.015 -0.017,0.025 -0.01,0.017 -0.018,0.035 -0.026,0.055l-0.005 0.014 -0.005 0.015c-0.004,0.013 -0.008,0.023 -0.01,0.029 -0.005,0.013 -0.01,0.022 -0.015,0.028 -0.004,0.004 -0.008,0.008 -0.012,0.009 -0.004,0.002 -0.009,0.002 -0.015,0.002 0.006,-0 0.01,-0.001 0.014,-0.003 0.004,-0.002 0.007,-0.006 0.01,-0.01 0.004,-0.006 0.008,-0.015 0.012,-0.027l0.004 -0.015 0.005 -0.015c0.004,-0.012 0.007,-0.022 0.01,-0.03 0.008,-0.021 0.017,-0.04 0.027,-0.056 0.014,-0.021 0.028,-0.035 0.042,-0.043 -0.008,0.006 -0.015,0.013 -0.021,0.021zm-0.21 0.08c-0.003,0.014 -0.006,0.031 -0.008,0.05l-0.003 0.025 -0.003 0.026c-0.002,-0.05 0.003,-0.095 0.016,-0.134 0.002,-0.008 0.005,-0.015 0.008,-0.021 0.003,-0.008 0.007,-0.015 0.011,-0.021 0.01,-0.015 0.022,-0.023 0.035,-0.022 -0.016,0.002 -0.029,0.014 -0.04,0.038 -0.004,0.009 -0.007,0.019 -0.01,0.031 -0.001,0.005 -0.002,0.01 -0.003,0.015l-0.002 0.007 -0.001 0.003 -0.001 0.003zm0.292 -0.124c-0.026,-0.017 -0.052,-0.016 -0.079,0.004 -0.022,0.016 -0.041,0.042 -0.058,0.077 -0.006,0.011 -0.011,0.025 -0.016,0.04 -0.002,0.006 -0.004,0.012 -0.006,0.019l-0.003 0.009 -0.002 0.004 -0.001 0.004c-0.004,0.013 -0.007,0.021 -0.009,0.026 -0.003,0.007 -0.006,0.01 -0.009,0.01 -0.005,-0 -0.008,-0.005 -0.009,-0.014 -0,-0.008 0.001,-0.026 0.005,-0.054 0.007,-0.05 0.004,-0.086 -0.009,-0.107 -0.01,-0.016 -0.026,-0.023 -0.048,-0.02 -0.027,0.004 -0.049,0.032 -0.065,0.083 -0.015,0.05 -0.022,0.111 -0.02,0.183 0.004,0.132 0.04,0.203 0.108,0.213 0.02,0.003 0.04,-0.002 0.059,-0.015 0.019,-0.012 0.034,-0.029 0.047,-0.051 0.011,-0.019 0.021,-0.037 0.029,-0.053 0.003,-0.006 0.006,-0.012 0.008,-0.018 0.002,-0.004 0.004,-0.009 0.006,-0.014 0.003,-0.009 0.006,-0.014 0.007,-0.015 0.002,-0.002 0.004,-0.003 0.006,-0.002 0.003,0.001 0.003,0.011 0.001,0.029l-0.001 0.006 -0.001 0.007c-0.001,0.006 -0.001,0.01 -0.002,0.014 -0.001,0.012 -0.002,0.022 -0.002,0.031 -0.001,0.056 0.017,0.084 0.055,0.084 0.024,-0 0.044,-0.023 0.057,-0.068 0.012,-0.04 0.018,-0.091 0.018,-0.152 0,-0.06 -0.005,-0.114 -0.017,-0.163 -0.013,-0.052 -0.029,-0.085 -0.05,-0.099zm-0.168 -0.058c0.011,-0.001 0.021,-0.004 0.03,-0.007 0.01,-0.004 0.019,-0.009 0.026,-0.016 0.002,-0.002 0.003,-0.003 0.005,-0.006l0.006 -0.006 0.003 -0.003c0.001,-0.001 0.002,-0.002 0.003,-0.002 0.001,-0.001 0.003,-0.001 0.004,-0.001l0.002 0 0.002 0 -0.002 0 -0.002 0.001c-0.001,0 -0.002,0.001 -0.003,0.002 -0.001,0.001 -0.002,0.002 -0.003,0.003l-0.002 0.003c-0.004,0.006 -0.007,0.01 -0.01,0.013 -0.003,0.004 -0.008,0.007 -0.013,0.011 -0.004,0.002 -0.009,0.005 -0.015,0.007 -0.01,0.004 -0.02,0.006 -0.031,0.006l-0.008 0 -0.008 -0c-0.007,-0 -0.012,0.001 -0.015,0.002 0.002,-0.002 0.004,-0.003 0.007,-0.004l0.004 -0.001 0.004 -0.001 0.015 -0.001zm0.118 -0.024c0,-0.015 -0.005,-0.027 -0.014,-0.035 -0.009,-0.008 -0.02,-0.011 -0.033,-0.008 -0.008,0.002 -0.015,0.007 -0.022,0.015l-0.004 0.005c-0.001,0.002 -0.003,0.003 -0.004,0.005 -0.004,0.004 -0.007,0.007 -0.012,0.009 -0.007,0.003 -0.014,0.006 -0.021,0.007 -0.003,0 -0.006,0.001 -0.01,0.001l-0.005 0 -0.005 0c-0.015,0 -0.026,0.004 -0.033,0.009 -0.008,0.006 -0.012,0.013 -0.012,0.024 -0.001,0.008 0.001,0.017 0.006,0.025 0.007,0.013 0.02,0.022 0.039,0.027 0.018,0.004 0.037,0.003 0.057,-0.002 0.021,-0.006 0.038,-0.015 0.051,-0.029 0.015,-0.015 0.022,-0.033 0.022,-0.053z"/>
    <path id="8" class="fil1" d="M2.739 0.576c-0.006,0.007 -0.011,0.016 -0.015,0.028 -0.001,-0.012 0.002,-0.023 0.01,-0.032 0.004,-0.005 0.008,-0.008 0.013,-0.01 0.006,-0.002 0.011,-0.003 0.016,-0.001 -0.01,0.002 -0.018,0.008 -0.025,0.016zm0.024 -0.044c-0.016,0 -0.03,0.007 -0.042,0.02 -0.012,0.013 -0.02,0.029 -0.022,0.048 -0.002,0.013 -0,0.025 0.003,0.038 0.004,0.012 0.01,0.022 0.018,0.031 0.006,0.006 0.008,0.017 0.005,0.032l-0.001 0.004 -0.001 0.004c-0,0.003 -0.001,0.005 -0.001,0.008 -0,0.005 0,0.009 0.003,0.012 0.005,0.006 0.013,0.008 0.023,0.004 0.01,-0.003 0.02,-0.01 0.031,-0.021 0.026,-0.026 0.041,-0.057 0.045,-0.092 0.003,-0.023 -0.002,-0.044 -0.015,-0.061 -0.012,-0.017 -0.028,-0.025 -0.047,-0.025z"/>
    <path id="9" class="fil1" d="M-0.29 1.263c-0.004,0.008 -0.009,0.014 -0.015,0.017 -0.007,0.004 -0.014,0.006 -0.021,0.004 0.007,-0.001 0.013,-0.004 0.019,-0.008 0.006,-0.004 0.01,-0.01 0.013,-0.016 0.005,-0.012 0.006,-0.026 0.003,-0.043 0.004,0.007 0.006,0.014 0.006,0.022 0.001,0.008 -0.001,0.016 -0.004,0.024zm-0.059 -0.021c-0.003,-0.007 -0.005,-0.013 -0.004,-0.02 0.001,-0.007 0.003,-0.011 0.008,-0.014 0.004,-0.003 0.009,-0.003 0.015,0 0.006,0.003 0.01,0.008 0.014,0.014 0.003,0.007 0.005,0.013 0.004,0.02 -0.001,0.007 -0.003,0.011 -0.008,0.014 -0.004,0.003 -0.009,0.003 -0.015,0 -0.006,-0.003 -0.01,-0.008 -0.014,-0.014zm-0.028 -0.143c0.005,-0.001 0.01,-0.003 0.014,-0.006 0.004,-0.003 0.008,-0.006 0.011,-0.01 0.003,-0.004 0.006,-0.008 0.009,-0.013 0.002,-0.004 0.004,-0.009 0.006,-0.015 0.001,0.012 -0.002,0.022 -0.011,0.032 -0.004,0.004 -0.009,0.008 -0.014,0.01 -0.006,0.002 -0.011,0.003 -0.016,0.001zm-0.007 -0.05c0.002,-0.005 0.005,-0.008 0.009,-0.01 0.004,-0.002 0.007,-0.002 0.01,0 0.003,0.002 0.004,0.005 0.005,0.009 0,0.004 -0.001,0.009 -0.003,0.013 -0.002,0.005 -0.005,0.008 -0.009,0.01 -0.004,0.002 -0.007,0.002 -0.01,0 -0.003,-0.002 -0.004,-0.005 -0.005,-0.009 -0,-0.004 0.001,-0.009 0.003,-0.013zm-0.054 -0.061c-0.005,0.006 -0.01,0.013 -0.016,0.021 -0.008,0.013 -0.015,0.029 -0.022,0.048 -0.005,0.015 -0.01,0.032 -0.015,0.052 0.002,-0.018 0.005,-0.036 0.01,-0.054 0.005,-0.018 0.013,-0.035 0.022,-0.05 0.011,-0.017 0.023,-0.03 0.036,-0.039 0.009,-0.005 0.016,-0.009 0.024,-0.011 0.009,-0.002 0.017,-0.003 0.025,-0.002 -0.017,0.002 -0.033,0.008 -0.046,0.018 -0.007,0.005 -0.013,0.011 -0.019,0.017zm0.136 0.131c-0.004,-0.002 -0.004,-0.005 -0.002,-0.011 0.001,-0.002 0.002,-0.005 0.005,-0.01l0.002 -0.003 0.002 -0.003c0.001,-0.002 0.002,-0.005 0.003,-0.007 0.006,-0.012 0.01,-0.024 0.012,-0.036 0.003,-0.016 0.004,-0.033 0.001,-0.051 -0.003,-0.019 -0.013,-0.036 -0.03,-0.049 -0.017,-0.014 -0.037,-0.021 -0.06,-0.022 -0.025,-0.001 -0.048,0.007 -0.069,0.023 -0.024,0.018 -0.043,0.046 -0.057,0.084 -0.014,0.039 -0.022,0.081 -0.023,0.127 -0.001,0.047 0.005,0.089 0.017,0.129 0.014,0.042 0.035,0.075 0.062,0.098 0.03,0.025 0.067,0.036 0.11,0.033 0.041,-0.003 0.074,-0.017 0.098,-0.043 0.022,-0.023 0.034,-0.053 0.036,-0.088 0.002,-0.034 -0.006,-0.067 -0.023,-0.097 -0.019,-0.033 -0.047,-0.057 -0.082,-0.072z"/>
    <path id="10" class="fil1" d="M0.059 1.233c-0.004,0.004 -0.009,0.006 -0.014,0.008 -0.005,0.002 -0.01,0.002 -0.015,0 0.01,-0.003 0.018,-0.007 0.025,-0.013 0.006,-0.005 0.012,-0.013 0.019,-0.023 -0.001,0.011 -0.007,0.02 -0.016,0.028zm-0.034 -0.02c-0.005,-0.002 -0.008,-0.007 -0.01,-0.013 -0.002,-0.006 -0.001,-0.013 0.001,-0.02 0.003,-0.007 0.006,-0.012 0.012,-0.016 0.005,-0.003 0.01,-0.004 0.015,-0.002 0.005,0.002 0.008,0.006 0.01,0.013 0.002,0.006 0.001,0.013 -0.001,0.02 -0.003,0.007 -0.006,0.012 -0.012,0.016 -0.005,0.003 -0.01,0.004 -0.015,0.002zm-0.051 -0.185c-0.008,0.012 -0.018,0.028 -0.029,0.048 -0.004,0.007 -0.008,0.015 -0.013,0.025l-0.013 0.025c0.006,-0.017 0.014,-0.034 0.023,-0.052 0.008,-0.017 0.018,-0.033 0.028,-0.049 0.012,-0.018 0.024,-0.033 0.035,-0.044l0.005 -0.005c0.002,-0.002 0.004,-0.003 0.005,-0.004l0.005 -0.004 0.006 -0.004c0.01,-0.006 0.019,-0.008 0.026,-0.008 -0.007,0.001 -0.015,0.004 -0.024,0.011l-0.005 0.004 -0.005 0.005c-0.001,0.001 -0.003,0.003 -0.005,0.004l-0.005 0.005c-0.011,0.012 -0.022,0.027 -0.033,0.044zm0.084 -0.1c-0.027,-0.005 -0.058,0.016 -0.093,0.062 -0.031,0.041 -0.059,0.094 -0.083,0.158 -0.024,0.064 -0.039,0.121 -0.043,0.17 -0.004,0.054 0.005,0.087 0.029,0.096 0.018,0.008 0.035,0.007 0.052,-0.001 0.013,-0.006 0.026,-0.017 0.04,-0.033 0.003,-0.003 0.006,-0.007 0.009,-0.011l0.008 -0.01c0.007,-0.009 0.012,-0.015 0.015,-0.019 0.011,-0.013 0.021,-0.019 0.028,-0.019 0.008,0 0.018,0.006 0.029,0.018 0.004,0.004 0.009,0.01 0.016,0.018l0.009 0.01 0.009 0.01c0.014,0.015 0.027,0.026 0.039,0.031 0.015,0.007 0.031,0.007 0.046,-0.001 0.018,-0.009 0.028,-0.038 0.031,-0.088 0.002,-0.046 -0.002,-0.099 -0.014,-0.158 -0.012,-0.062 -0.029,-0.113 -0.05,-0.155 -0.024,-0.047 -0.05,-0.073 -0.077,-0.078z"/>
    <path id="11" class="fil1" d="M0.509 0.962c-0.003,0.001 -0.006,0.004 -0.008,0.008 -0.004,0.005 -0.006,0.012 -0.008,0.022 -0.002,0.013 -0.003,0.029 -0.003,0.049l-0 0.006 0 0.006c0,0.005 0,0.009 -0,0.013 -0.001,0.009 -0.003,0.018 -0.006,0.025 -0.003,0.008 -0.008,0.015 -0.014,0.021 -0.006,0.006 -0.013,0.01 -0.02,0.012 0.014,-0.007 0.024,-0.019 0.03,-0.035 0.002,-0.008 0.004,-0.016 0.004,-0.024 0,-0.003 0,-0.007 0,-0.012l-0 -0.006 0 -0.007c-0,-0.021 0.001,-0.037 0.004,-0.05 0.003,-0.01 0.006,-0.018 0.011,-0.023 0.003,-0.004 0.006,-0.006 0.01,-0.007 0.003,-0.001 0.007,-0.002 0.011,-0.001 -0.005,0.001 -0.008,0.002 -0.011,0.003zm-0.214 0.009c-0.007,0.008 -0.013,0.019 -0.017,0.031 -0.003,0.01 -0.006,0.023 -0.01,0.037l-0.004 0.018 -0.004 0.019c0.001,-0.026 0.005,-0.051 0.012,-0.075 0.004,-0.014 0.011,-0.025 0.019,-0.033 0.005,-0.005 0.01,-0.008 0.015,-0.011 0.006,-0.002 0.012,-0.003 0.017,-0.002 -0.011,0.001 -0.021,0.007 -0.029,0.017zm0.223 -0.038c-0.022,0.001 -0.037,0.012 -0.046,0.032 -0.009,0.019 -0.012,0.049 -0.011,0.089 0.001,0.018 -0.003,0.031 -0.01,0.039 -0.006,0.008 -0.015,0.011 -0.025,0.01 -0.01,-0.001 -0.018,-0.006 -0.023,-0.014 -0.005,-0.009 -0.007,-0.021 -0.006,-0.035 0.004,-0.04 0,-0.071 -0.011,-0.091 -0.01,-0.018 -0.027,-0.029 -0.051,-0.033 -0.019,-0.003 -0.036,0.002 -0.051,0.014 -0.015,0.012 -0.026,0.029 -0.032,0.052 -0.013,0.043 -0.02,0.094 -0.021,0.152 -0.001,0.056 0.005,0.11 0.016,0.161 0.008,0.038 0.022,0.065 0.04,0.082 0.015,0.014 0.032,0.019 0.05,0.016 0.041,-0.006 0.059,-0.039 0.055,-0.097 -0.003,-0.043 0.005,-0.064 0.025,-0.064 0.01,0 0.017,0.004 0.022,0.012 0.007,0.01 0.01,0.027 0.009,0.049 -0.002,0.038 0.004,0.067 0.017,0.087 0.012,0.019 0.029,0.028 0.051,0.028 0.037,0 0.064,-0.025 0.079,-0.076 0.011,-0.037 0.018,-0.098 0.02,-0.183 0.002,-0.065 -0.006,-0.12 -0.023,-0.164 -0.018,-0.046 -0.042,-0.067 -0.072,-0.066z"/>
    <path id="12" class="fil1" d="M0.857 1.271c-0.004,0.006 -0.009,0.011 -0.015,0.014 -0.006,0.003 -0.013,0.004 -0.019,0.003 0.013,-0.002 0.023,-0.009 0.029,-0.02 0.003,-0.005 0.005,-0.01 0.007,-0.018 0.001,-0.006 0.001,-0.013 0.001,-0.02 0.003,0.007 0.004,0.014 0.003,0.021 -0,0.008 -0.003,0.014 -0.006,0.02zm-0.056 -0.027c-0.003,-0.007 -0.004,-0.013 -0.003,-0.02 0.001,-0.007 0.003,-0.011 0.008,-0.014 0.005,-0.002 0.01,-0.002 0.015,0.001 0.006,0.003 0.01,0.008 0.013,0.014 0.003,0.007 0.004,0.014 0.003,0.02 -0.001,0.006 -0.004,0.011 -0.008,0.013 -0.004,0.002 -0.009,0.002 -0.014,-0.001 -0.006,-0.003 -0.01,-0.008 -0.013,-0.015zm-0.029 -0.285c-0.004,0.002 -0.008,0.005 -0.013,0.009 -0.007,0.007 -0.015,0.015 -0.022,0.024 -0.005,0.007 -0.012,0.016 -0.019,0.028 -0.003,0.004 -0.006,0.009 -0.009,0.015l-0.008 0.015c0.004,-0.013 0.009,-0.024 0.013,-0.032 0.005,-0.011 0.011,-0.021 0.018,-0.03 0.008,-0.01 0.016,-0.018 0.024,-0.024 0.011,-0.008 0.021,-0.012 0.031,-0.011 -0.005,0.001 -0.01,0.003 -0.015,0.006zm0.082 0.167c-0.011,-0.003 -0.018,-0.01 -0.021,-0.019 -0.002,-0.007 -0.002,-0.018 -0,-0.031 0,-0.003 0.001,-0.006 0.002,-0.01l0.002 -0.01c0.002,-0.009 0.003,-0.016 0.004,-0.021 0.002,-0.018 0.003,-0.033 0.002,-0.047 -0.002,-0.019 -0.009,-0.035 -0.02,-0.046 -0.011,-0.012 -0.025,-0.016 -0.04,-0.015 -0.017,0.002 -0.034,0.011 -0.051,0.028 -0.019,0.019 -0.037,0.047 -0.052,0.083 -0.016,0.037 -0.027,0.078 -0.031,0.122 -0.005,0.045 -0.002,0.087 0.007,0.125 0.01,0.041 0.028,0.074 0.052,0.097 0.028,0.026 0.063,0.038 0.105,0.038 0.04,-0 0.074,-0.014 0.1,-0.04 0.024,-0.024 0.039,-0.053 0.044,-0.089 0.005,-0.036 -0.001,-0.068 -0.018,-0.099 -0.018,-0.033 -0.046,-0.055 -0.084,-0.068z"/>
    <path id="13" class="fil1" d="M1.344 0.962c-0.005,0.004 -0.01,0.009 -0.015,0.016 -0.007,0.009 -0.016,0.021 -0.026,0.037l-0.006 0.01 -0.006 0.01c-0.005,0.007 -0.01,0.013 -0.015,0.018 -0.006,0.006 -0.012,0.01 -0.018,0.013 -0.008,0.004 -0.015,0.005 -0.022,0.004 0.013,-0.001 0.025,-0.008 0.036,-0.021 0.004,-0.005 0.009,-0.011 0.013,-0.018l0.006 -0.01 0.006 -0.01c0.01,-0.016 0.02,-0.029 0.027,-0.037 0.006,-0.007 0.012,-0.012 0.017,-0.015 0.007,-0.004 0.014,-0.006 0.021,-0.005 -0.008,0.001 -0.014,0.003 -0.02,0.008zm-0.255 0.031c-0.008,0.01 -0.015,0.023 -0.022,0.039 -0.004,0.01 -0.01,0.024 -0.017,0.042 -0.003,0.007 -0.005,0.015 -0.007,0.022l-0.004 0.011 -0.004 0.011c0.006,-0.032 0.015,-0.062 0.026,-0.089 0.008,-0.017 0.016,-0.03 0.024,-0.04 0.005,-0.006 0.01,-0.011 0.017,-0.015 0.007,-0.004 0.014,-0.006 0.021,-0.006 -0.012,0.001 -0.023,0.009 -0.034,0.024zm0.386 0.17c-0.002,-0.069 -0.014,-0.125 -0.034,-0.168 -0.019,-0.041 -0.041,-0.063 -0.067,-0.067 -0.019,-0.003 -0.037,0.003 -0.052,0.017 -0.012,0.011 -0.028,0.032 -0.046,0.062 -0.016,0.027 -0.03,0.039 -0.042,0.036 -0.008,-0.002 -0.017,-0.012 -0.029,-0.032 -0.013,-0.022 -0.026,-0.039 -0.038,-0.05 -0.015,-0.014 -0.031,-0.02 -0.048,-0.018 -0.044,0.005 -0.08,0.061 -0.107,0.168 -0.017,0.069 -0.024,0.131 -0.021,0.186 0.004,0.062 0.021,0.097 0.052,0.104 0.018,0.004 0.034,-0.001 0.048,-0.014 0.01,-0.011 0.02,-0.028 0.029,-0.051 0.003,-0.008 0.006,-0.017 0.01,-0.029l0.002 -0.007 0.002 -0.007c0.002,-0.005 0.003,-0.009 0.004,-0.013 0.007,-0.018 0.013,-0.028 0.018,-0.03 0.004,-0.002 0.008,0.002 0.012,0.011 0.001,0.003 0.003,0.007 0.005,0.014l0.001 0.004 0.002 0.004 0.003 0.008c0.006,0.014 0.011,0.025 0.017,0.032 0.009,0.01 0.019,0.015 0.031,0.016 0.009,0 0.018,-0.004 0.026,-0.011 0.006,-0.005 0.012,-0.013 0.019,-0.025l0.004 -0.006 0.004 -0.006c0.003,-0.005 0.005,-0.008 0.008,-0.011 0.005,-0.006 0.011,-0.009 0.016,-0.007 0.005,0.002 0.01,0.011 0.016,0.027 0.001,0.003 0.002,0.007 0.003,0.011l0.002 0.006 0.002 0.006c0.003,0.011 0.006,0.02 0.009,0.027 0.008,0.021 0.016,0.037 0.025,0.049 0.012,0.015 0.026,0.022 0.043,0.023 0.028,0.001 0.048,-0.023 0.06,-0.073 0.01,-0.043 0.014,-0.105 0.011,-0.185z"/>
    <path id="14" class="fil1" d="M1.719 1.271c-0.004,0.006 -0.009,0.011 -0.015,0.014 -0.006,0.003 -0.013,0.004 -0.019,0.003 0.013,-0.002 0.023,-0.009 0.029,-0.02 0.003,-0.005 0.005,-0.01 0.007,-0.018 0.001,-0.006 0.001,-0.013 0.001,-0.02 0.003,0.007 0.004,0.014 0.003,0.021 -0,0.008 -0.003,0.014 -0.006,0.02zm-0.056 -0.027c-0.003,-0.007 -0.004,-0.013 -0.003,-0.02 0.001,-0.007 0.003,-0.011 0.008,-0.014 0.005,-0.002 0.01,-0.002 0.015,0.001 0.006,0.003 0.01,0.008 0.013,0.014 0.003,0.007 0.004,0.014 0.003,0.02 -0.001,0.006 -0.004,0.011 -0.008,0.013 -0.004,0.002 -0.009,0.002 -0.014,-0.001 -0.006,-0.003 -0.01,-0.008 -0.013,-0.015zm-0.029 -0.285c-0.004,0.002 -0.008,0.005 -0.013,0.009 -0.007,0.007 -0.015,0.015 -0.022,0.024 -0.006,0.007 -0.012,0.016 -0.019,0.028 -0.003,0.004 -0.006,0.009 -0.009,0.015l-0.008 0.015c0.004,-0.013 0.009,-0.024 0.013,-0.032 0.005,-0.011 0.011,-0.021 0.018,-0.03 0.008,-0.01 0.016,-0.018 0.024,-0.024 0.011,-0.008 0.021,-0.012 0.031,-0.011 -0.005,0.001 -0.01,0.003 -0.015,0.006zm0.082 0.167c-0.011,-0.003 -0.018,-0.01 -0.021,-0.019 -0.002,-0.007 -0.002,-0.018 -0,-0.031 0,-0.003 0.001,-0.006 0.002,-0.01l0.002 -0.01c0.002,-0.009 0.003,-0.016 0.004,-0.021 0.002,-0.018 0.003,-0.033 0.002,-0.047 -0.002,-0.019 -0.009,-0.035 -0.02,-0.046 -0.011,-0.012 -0.025,-0.016 -0.04,-0.015 -0.017,0.002 -0.034,0.011 -0.051,0.028 -0.019,0.019 -0.037,0.047 -0.052,0.083 -0.016,0.038 -0.027,0.078 -0.031,0.122 -0.005,0.045 -0.002,0.087 0.007,0.125 0.01,0.041 0.028,0.074 0.052,0.097 0.028,0.026 0.063,0.038 0.105,0.038 0.04,-0 0.074,-0.014 0.1,-0.04 0.024,-0.024 0.039,-0.053 0.044,-0.089 0.005,-0.036 -0.001,-0.068 -0.018,-0.099 -0.018,-0.033 -0.046,-0.055 -0.084,-0.068zm0.132 -0.159c-0.004,0.003 -0.006,0.008 -0.008,0.013 -0.002,0.005 -0.002,0.01 -0.003,0.016 -0,0.008 0,0.02 0.002,0.034l0.003 0.017 0.003 0.017c-0.005,-0.012 -0.008,-0.023 -0.01,-0.033 -0.003,-0.013 -0.005,-0.025 -0.004,-0.035 0.001,-0.007 0.002,-0.013 0.003,-0.018 0.003,-0.007 0.006,-0.012 0.01,-0.015 0.009,-0.007 0.019,-0.01 0.031,-0.009 -0.012,0.001 -0.021,0.006 -0.028,0.013zm0.111 0.019c-0.009,-0.018 -0.021,-0.032 -0.035,-0.043 -0.013,-0.009 -0.027,-0.014 -0.041,-0.016 -0.014,-0.001 -0.027,0.001 -0.039,0.008 -0.012,0.006 -0.02,0.015 -0.026,0.027 -0.01,0.022 -0.01,0.053 0.001,0.095 0.001,0.007 0.004,0.015 0.007,0.026l0.004 0.013 0.004 0.013c0.006,0.021 0.009,0.038 0.011,0.052 0.004,0.033 0.005,0.068 0.004,0.103 -0,0.011 -0.001,0.025 -0.001,0.04l-0 0.009 -0 0.009c-0,0.006 -0.001,0.012 -0.001,0.016 -0.001,0.022 0.001,0.037 0.003,0.046 0.004,0.011 0.012,0.018 0.023,0.021 0.023,0.006 0.044,-0.008 0.062,-0.04 0.016,-0.029 0.029,-0.068 0.038,-0.119 0.008,-0.049 0.012,-0.097 0.01,-0.145 -0.002,-0.05 -0.01,-0.089 -0.023,-0.116z"/>
    <path id="15" class="fil1" d="M2.179 1.136c-0.006,0.005 -0.014,0.01 -0.022,0.013 -0.01,0.003 -0.017,0.007 -0.022,0.01 -0.008,0.006 -0.012,0.012 -0.013,0.02 -0.001,-0.004 0,-0.009 0.002,-0.013 0.002,-0.004 0.005,-0.008 0.008,-0.011 0.005,-0.004 0.013,-0.008 0.023,-0.012 0.008,-0.003 0.015,-0.006 0.022,-0.011 0.007,-0.005 0.013,-0.011 0.017,-0.018 -0.002,0.008 -0.007,0.016 -0.014,0.022zm-0.09 0.156c-0.011,-0.001 -0.02,-0.001 -0.027,-0.001 -0.006,0.001 -0.01,0.002 -0.012,0.004 -0.002,0.001 -0.003,0.003 -0.004,0.005l-0.001 0.004 -0.001 0.003c0,-0.003 0,-0.006 0,-0.008 0,-0.003 0.002,-0.005 0.003,-0.007 0.003,-0.003 0.007,-0.005 0.014,-0.006 0.007,-0.001 0.017,-0.002 0.028,-0.001 0.007,0.001 0.016,0.002 0.027,0.004l0.014 0.002 0.014 0.002c-0.008,0.001 -0.017,0.001 -0.028,0l-0.014 -0.001 -0.014 -0.001zm0.022 -0.321c-0.013,0.006 -0.024,0.012 -0.032,0.017 -0.005,0.003 -0.01,0.007 -0.015,0.011 -0.004,0.004 -0.009,0.008 -0.013,0.013 -0.009,0.011 -0.013,0.023 -0.013,0.035 -0.001,-0.006 -0.001,-0.013 0.001,-0.02 0.002,-0.006 0.005,-0.012 0.009,-0.018 0.006,-0.009 0.016,-0.018 0.028,-0.027 0.021,-0.014 0.045,-0.022 0.07,-0.025 -0.012,0.004 -0.023,0.008 -0.034,0.013zm0.199 0.241c-0.006,-0.008 -0.012,-0.016 -0.019,-0.022 -0.005,-0.004 -0.01,-0.009 -0.017,-0.013l-0.003 -0.002 -0.003 -0.002c-0.002,-0.002 -0.004,-0.003 -0.005,-0.004 -0.003,-0.003 -0.005,-0.006 -0.005,-0.009 -0,-0.004 0.002,-0.008 0.008,-0.014 0.002,-0.002 0.005,-0.005 0.009,-0.009l0.003 -0.002 0.003 -0.002 0.005 -0.006c0.009,-0.009 0.016,-0.018 0.022,-0.027 0.007,-0.012 0.012,-0.024 0.014,-0.037 0.005,-0.033 -0.001,-0.062 -0.02,-0.086 -0.019,-0.025 -0.049,-0.041 -0.088,-0.048 -0.02,-0.003 -0.041,-0.003 -0.065,0.001 -0.024,0.004 -0.046,0.012 -0.066,0.023 -0.022,0.012 -0.038,0.025 -0.05,0.041 -0.013,0.018 -0.018,0.036 -0.016,0.056 0.005,0.05 0.044,0.064 0.116,0.044 0.012,-0.003 0.022,-0.004 0.029,-0.004 0.006,0.001 0.01,0.003 0.011,0.007 0.001,0.004 -0,0.008 -0.005,0.012 -0.005,0.005 -0.012,0.009 -0.021,0.012 -0.033,0.012 -0.049,0.031 -0.048,0.059 0.001,0.014 0.005,0.025 0.014,0.034 0.009,0.009 0.022,0.014 0.036,0.013 0.015,-0 0.024,0.004 0.028,0.014 0.002,0.004 0.001,0.008 -0,0.012 -0.002,0.004 -0.005,0.008 -0.01,0.01 -0.007,0.004 -0.019,0.005 -0.037,0.003 -0.003,-0 -0.007,-0.001 -0.011,-0.001l-0.012 -0.001c-0.01,-0.001 -0.018,-0.002 -0.024,-0.002 -0.018,-0.001 -0.032,0.001 -0.042,0.006 -0.012,0.007 -0.019,0.019 -0.021,0.037 -0.002,0.021 0.007,0.041 0.027,0.06 0.018,0.018 0.042,0.032 0.072,0.043 0.03,0.011 0.06,0.015 0.089,0.013 0.032,-0.002 0.058,-0.012 0.078,-0.028 0.028,-0.024 0.044,-0.054 0.047,-0.091 0.003,-0.033 -0.005,-0.063 -0.022,-0.088z"/>
    <path id="16" class="fil1" d="M2.878 0.967c-0.005,0.006 -0.009,0.015 -0.011,0.027 -0.002,0.008 -0.003,0.018 -0.004,0.031l0 0.008 -0 0.008c0,0.006 -0,0.012 -0,0.016l-0.003 -0.016c-0.001,-0.006 -0.001,-0.011 -0.002,-0.016 -0.001,-0.011 0,-0.022 0.002,-0.032 0.003,-0.013 0.007,-0.023 0.014,-0.029 0.004,-0.004 0.008,-0.006 0.014,-0.008 0.005,-0.001 0.01,-0.001 0.015,-0.001 -0.011,0.001 -0.02,0.006 -0.025,0.012zm-0.032 0.248c-0.004,0.004 -0.009,0.007 -0.014,0.009 -0.006,0.002 -0.011,0.002 -0.016,0.001 0.011,-0.003 0.019,-0.007 0.026,-0.014 0.005,-0.005 0.01,-0.013 0.017,-0.026 -0,0.012 -0.005,0.023 -0.013,0.031zm-0.119 -0.217c-0.003,0.004 -0.005,0.007 -0.006,0.011 -0.002,0.004 -0.003,0.008 -0.004,0.012 -0.002,0.007 -0.004,0.015 -0.006,0.026 -0.001,0.008 -0.002,0.018 -0.003,0.027 -0.003,-0.019 -0.002,-0.038 0.003,-0.055 0.003,-0.011 0.008,-0.019 0.013,-0.025 0.003,-0.004 0.007,-0.006 0.011,-0.008 0.004,-0.001 0.009,-0.002 0.013,-0.001 -0.009,0.001 -0.016,0.005 -0.021,0.012zm-0.041 0.221c-0.004,0.003 -0.008,0.006 -0.012,0.007 -0.005,0.001 -0.009,0.001 -0.014,0 0.009,-0.003 0.017,-0.007 0.022,-0.012 0.003,-0.002 0.006,-0.005 0.009,-0.009l0.004 -0.006 0.004 -0.006c-0.001,0.01 -0.005,0.019 -0.013,0.026zm-0.111 -0.248c-0.007,0.005 -0.013,0.011 -0.019,0.019 -0.01,0.014 -0.018,0.03 -0.024,0.05 -0.005,0.014 -0.009,0.032 -0.013,0.055 -0.002,0.015 -0.004,0.034 -0.005,0.056 -0.001,-0.019 -0.001,-0.038 0.001,-0.057 0.002,-0.021 0.006,-0.039 0.011,-0.057 0.006,-0.021 0.015,-0.037 0.026,-0.05 0.006,-0.008 0.013,-0.014 0.021,-0.019 0.009,-0.005 0.017,-0.008 0.026,-0.007 -0.009,0.001 -0.017,0.004 -0.024,0.01zm0.333 -0.043c-0.024,-0.002 -0.042,0.007 -0.055,0.025 -0.014,0.02 -0.019,0.048 -0.016,0.086 0.004,0.061 0.004,0.104 0.001,0.127 -0.004,0.022 -0.011,0.033 -0.023,0.032 -0.013,-0.001 -0.017,-0.04 -0.012,-0.115 0.002,-0.041 -0.001,-0.072 -0.011,-0.093 -0.01,-0.02 -0.024,-0.03 -0.044,-0.03 -0.023,-0 -0.04,0.013 -0.052,0.038 -0.01,0.021 -0.014,0.048 -0.013,0.079 0.004,0.083 -0.004,0.124 -0.023,0.124 -0.008,0 -0.014,-0.008 -0.018,-0.023 -0.005,-0.02 -0.005,-0.048 0.001,-0.085 0.015,-0.101 0.002,-0.153 -0.038,-0.157 -0.016,-0.001 -0.031,0.003 -0.045,0.013 -0.015,0.01 -0.028,0.025 -0.038,0.046 -0.024,0.047 -0.035,0.109 -0.03,0.187 0.004,0.066 0.017,0.117 0.04,0.155 0.017,0.028 0.04,0.049 0.069,0.063 0.031,0.015 0.079,0.022 0.145,0.021 0.073,-0.002 0.126,-0.015 0.158,-0.039 0.029,-0.022 0.051,-0.059 0.064,-0.108 0.005,-0.017 0.008,-0.036 0.011,-0.057 0.001,-0.008 0.002,-0.016 0.002,-0.024 0,-0.003 0,-0.006 0.001,-0.01l0 -0.004 0 -0.004c0.006,-0.079 0.003,-0.139 -0.008,-0.179 -0.012,-0.043 -0.034,-0.065 -0.065,-0.067z"/>
    <path id="17" class="fil1" d="M3.232 1.267c-0.004,0.006 -0.009,0.011 -0.015,0.014 -0.006,0.004 -0.012,0.005 -0.018,0.005 0.012,-0.005 0.021,-0.012 0.028,-0.022 0.006,-0.009 0.011,-0.021 0.013,-0.036 0.003,0.014 0,0.027 -0.008,0.04zm-0.066 -0.035c-0.001,-0.009 0,-0.017 0.004,-0.024 0.004,-0.007 0.009,-0.011 0.016,-0.012 0.007,-0.001 0.013,0.001 0.019,0.007 0.006,0.005 0.009,0.012 0.01,0.021 0.002,0.009 0,0.017 -0.004,0.024 -0.004,0.007 -0.009,0.011 -0.016,0.012 -0.007,0.001 -0.013,-0.001 -0.019,-0.006 -0.006,-0.005 -0.009,-0.012 -0.01,-0.021zm-0.016 -0.264c-0.016,0.007 -0.031,0.017 -0.043,0.03 -0.012,0.012 -0.022,0.026 -0.032,0.044l-0.003 0.006 -0.003 0.006 -0.006 0.013 -0.005 0.014 -0.005 0.013c0.004,-0.019 0.01,-0.037 0.018,-0.054 0.008,-0.018 0.019,-0.033 0.032,-0.046 0.014,-0.014 0.029,-0.024 0.046,-0.03 0.008,-0.003 0.017,-0.005 0.026,-0.007l0.007 -0.001 0.007 -0 0.013 0c-0.019,0.002 -0.036,0.006 -0.051,0.012zm0.106 -0.032c-0.065,-0.017 -0.12,-0.006 -0.164,0.035 -0.038,0.036 -0.062,0.087 -0.072,0.154 -0.009,0.065 -0.002,0.125 0.021,0.18 0.025,0.06 0.063,0.097 0.114,0.112 0.048,0.014 0.094,0.001 0.136,-0.041 0.039,-0.038 0.067,-0.088 0.083,-0.152 0.017,-0.065 0.016,-0.124 -0.001,-0.176 -0.02,-0.059 -0.059,-0.096 -0.118,-0.111z"/>
    <path id="18" class="fil1" d="M3.695 0.963c-0.003,0.001 -0.006,0.004 -0.008,0.008 -0.004,0.005 -0.006,0.012 -0.008,0.022 -0.002,0.013 -0.003,0.029 -0.003,0.049l0 0.006 0 0.006c0,0.005 0,0.009 -0,0.013 -0.001,0.009 -0.003,0.018 -0.006,0.025 -0.003,0.008 -0.008,0.015 -0.014,0.021 -0.006,0.006 -0.013,0.01 -0.02,0.012 0.014,-0.007 0.024,-0.019 0.03,-0.035 0.002,-0.008 0.004,-0.016 0.004,-0.024 0,-0.003 0,-0.007 0,-0.012l-0 -0.006 0 -0.007c-0,-0.021 0.001,-0.037 0.004,-0.05 0.003,-0.01 0.006,-0.018 0.011,-0.023 0.003,-0.004 0.006,-0.006 0.01,-0.007 0.003,-0.001 0.007,-0.002 0.011,-0.001 -0.005,0.001 -0.008,0.002 -0.011,0.003zm-0.213 0.009c-0.007,0.008 -0.013,0.019 -0.017,0.031 -0.003,0.01 -0.006,0.023 -0.01,0.037l-0.004 0.018 -0.004 0.019c0.001,-0.026 0.005,-0.051 0.012,-0.075 0.004,-0.014 0.011,-0.025 0.019,-0.033 0.005,-0.005 0.01,-0.008 0.015,-0.011 0.006,-0.002 0.012,-0.003 0.017,-0.002 -0.011,0.001 -0.021,0.007 -0.029,0.017zm0.223 -0.038c-0.022,0.001 -0.037,0.012 -0.046,0.032 -0.009,0.019 -0.012,0.049 -0.011,0.089 0.001,0.018 -0.003,0.031 -0.011,0.039 -0.006,0.008 -0.015,0.011 -0.025,0.01 -0.01,-0.001 -0.018,-0.006 -0.023,-0.014 -0.005,-0.009 -0.007,-0.021 -0.006,-0.035 0.004,-0.04 0,-0.071 -0.011,-0.091 -0.01,-0.018 -0.027,-0.029 -0.051,-0.033 -0.019,-0.003 -0.036,0.002 -0.051,0.014 -0.015,0.012 -0.026,0.029 -0.032,0.052 -0.013,0.043 -0.02,0.094 -0.021,0.152 -0.001,0.056 0.005,0.11 0.016,0.161 0.008,0.038 0.021,0.065 0.04,0.082 0.015,0.014 0.032,0.019 0.05,0.016 0.041,-0.006 0.059,-0.039 0.055,-0.097 -0.003,-0.043 0.005,-0.064 0.025,-0.064 0.01,0 0.017,0.004 0.022,0.012 0.007,0.01 0.01,0.027 0.009,0.049 -0.002,0.038 0.004,0.067 0.017,0.087 0.012,0.019 0.029,0.028 0.051,0.028 0.037,0 0.064,-0.025 0.079,-0.076 0.011,-0.037 0.018,-0.098 0.02,-0.183 0.002,-0.065 -0.006,-0.12 -0.023,-0.164 -0.018,-0.046 -0.042,-0.067 -0.072,-0.066z"/>
    <path id="19" class="fil1" d="M4.045 1.279l-0.005 0.002c-0.004,0.001 -0.007,0.002 -0.01,0.003 -0.007,0.002 -0.014,0.002 -0.02,0.001 0.007,-0.001 0.013,-0.003 0.019,-0.006l0.004 -0.002 0.004 -0.002c0.004,-0.002 0.007,-0.003 0.009,-0.004 0.007,-0.003 0.014,-0.004 0.02,-0.005 0.008,-0.001 0.014,-0.001 0.02,0 -0.011,0.002 -0.024,0.006 -0.038,0.011l-0.005 0.002zm-0.091 -0.32c-0.01,0.003 -0.019,0.007 -0.026,0.011 -0.009,0.006 -0.017,0.012 -0.023,0.019 -0.006,0.006 -0.012,0.015 -0.017,0.024 -0.008,0.015 -0.014,0.034 -0.02,0.058 -0.002,0.01 -0.004,0.02 -0.006,0.031 -0.001,0.004 -0.002,0.01 -0.002,0.016l-0.002 0.016c0,-0.022 0.003,-0.043 0.006,-0.063 0.004,-0.023 0.011,-0.043 0.019,-0.06 0.006,-0.011 0.012,-0.02 0.018,-0.026 0.008,-0.008 0.016,-0.014 0.025,-0.018 0.008,-0.005 0.018,-0.008 0.028,-0.01 0.01,-0.002 0.02,-0.003 0.029,-0.002 -0.011,0.001 -0.02,0.003 -0.028,0.005zm0.061 0.183l0.002 -0.001c0.002,-0.001 0.004,-0.001 0.005,-0.001 0.004,-0.001 0.008,-0 0.011,0 0.004,0.001 0.007,0.003 0.009,0.006 -0.002,-0.001 -0.006,-0.001 -0.01,-0.001 -0.003,0 -0.006,0.001 -0.009,0.001l-0.002 0 -0.002 0c-0.002,0 -0.004,0.001 -0.005,0.001 -0.004,0 -0.008,-0 -0.011,-0.001l0.005 -0.002 0.005 -0.002 0.002 -0.001zm0.014 0.112c-0.011,0.005 -0.02,0.005 -0.028,0.002 -0.006,-0.003 -0.011,-0.007 -0.013,-0.014 -0.002,-0.007 -0.001,-0.013 0.003,-0.019 0.004,-0.006 0.009,-0.01 0.017,-0.011 0.023,-0.002 0.039,-0.009 0.05,-0.02 0.01,-0.01 0.015,-0.023 0.014,-0.038 -0.001,-0.014 -0.007,-0.025 -0.019,-0.032 -0.012,-0.007 -0.026,-0.008 -0.042,-0.004 -0.014,0.004 -0.023,-0 -0.027,-0.012 -0.001,-0.005 -0.002,-0.01 -0,-0.016 0.002,-0.005 0.004,-0.01 0.008,-0.013 0.006,-0.005 0.015,-0.008 0.027,-0.01 0.004,-0.001 0.01,-0.001 0.017,-0.002l0.009 -0 0.009 -0.001c0.014,-0.001 0.025,-0.004 0.033,-0.007 0.011,-0.005 0.018,-0.012 0.023,-0.023 0.007,-0.018 0.004,-0.037 -0.009,-0.055 -0.013,-0.018 -0.032,-0.032 -0.057,-0.042 -0.026,-0.01 -0.053,-0.014 -0.079,-0.01 -0.03,0.004 -0.056,0.017 -0.077,0.039 -0.02,0.02 -0.034,0.052 -0.044,0.095 -0.009,0.04 -0.013,0.084 -0.011,0.132 0.002,0.048 0.009,0.09 0.02,0.127 0.013,0.04 0.029,0.067 0.049,0.081 0.02,0.014 0.044,0.02 0.072,0.019 0.026,-0.001 0.052,-0.008 0.079,-0.02 0.026,-0.012 0.047,-0.027 0.064,-0.046 0.018,-0.02 0.026,-0.04 0.027,-0.059 0,-0.026 -0.009,-0.044 -0.029,-0.052 -0.02,-0.008 -0.048,-0.005 -0.084,0.009z"/>
    <path id="20" class="fil1" d="M4.385 1.133c-0.002,0.007 -0.006,0.013 -0.011,0.018 -0.005,0.006 -0.01,0.01 -0.016,0.012 -0.007,0.003 -0.013,0.003 -0.019,0.002 0.006,-0.001 0.012,-0.004 0.017,-0.007 0.005,-0.003 0.01,-0.007 0.014,-0.012 0.008,-0.009 0.014,-0.02 0.018,-0.034 0.001,0.007 -0,0.013 -0.003,0.02zm-0.057 -0.029c0.003,-0.007 0.008,-0.012 0.013,-0.015 0.005,-0.003 0.01,-0.003 0.015,-0.001 0.004,0.002 0.007,0.007 0.008,0.013 0.001,0.007 -0,0.013 -0.003,0.02 -0.003,0.007 -0.007,0.012 -0.013,0.015 -0.006,0.003 -0.01,0.003 -0.015,0.001 -0.004,-0.002 -0.007,-0.007 -0.008,-0.013 -0.001,-0.007 0,-0.013 0.003,-0.02zm-0.048 -0.136c-0.014,0.007 -0.027,0.017 -0.037,0.029 -0.01,0.011 -0.018,0.025 -0.026,0.042 -0.006,0.013 -0.011,0.029 -0.016,0.048 0.001,-0.007 0.002,-0.016 0.004,-0.025 0.002,-0.009 0.005,-0.017 0.008,-0.025 0.006,-0.017 0.015,-0.031 0.025,-0.044 0.011,-0.013 0.025,-0.023 0.04,-0.029 0.007,-0.003 0.015,-0.006 0.023,-0.007 0.009,-0.001 0.017,-0.002 0.024,-0.002 -0.018,0.003 -0.033,0.007 -0.045,0.014zm0.059 -0.041c-0.042,-0 -0.078,0.012 -0.105,0.038 -0.025,0.023 -0.042,0.055 -0.052,0.097 -0.009,0.038 -0.012,0.079 -0.007,0.125 0.004,0.044 0.015,0.085 0.031,0.122 0.016,0.036 0.033,0.064 0.052,0.084 0.017,0.017 0.034,0.027 0.051,0.028 0.015,0.002 0.029,-0.003 0.04,-0.015 0.011,-0.012 0.018,-0.027 0.02,-0.046 0.002,-0.013 0.001,-0.028 -0.001,-0.045 -0.001,-0.005 -0.002,-0.012 -0.004,-0.02l-0.002 -0.01c-0.001,-0.003 -0.001,-0.006 -0.002,-0.009 -0.002,-0.013 -0.002,-0.024 0.001,-0.031 0.003,-0.009 0.009,-0.017 0.02,-0.022 0.034,-0.018 0.06,-0.043 0.077,-0.077 0.016,-0.031 0.023,-0.064 0.019,-0.097 -0.004,-0.034 -0.017,-0.062 -0.04,-0.084 -0.025,-0.024 -0.058,-0.036 -0.098,-0.037z"/>
   </g>
  </g>
  <path class="fil2 str0" d="M1.98 1.503l0 -0.633c0.002,-0.072 -0.067,-0.033 -0.145,0.025 -0.484,0.296 -0.401,-0.617 0.001,-0.294 0.056,0.051 0.142,0.08 0.144,0.027 0,-0.207 0,-0.414 0,-0.621l-1.497 0 0 0.628c-0.002,0.054 -0.088,0.024 -0.144,-0.027 -0.401,-0.323 -0.484,0.59 -0.001,0.294 0.077,-0.058 0.147,-0.097 0.145,-0.028l0 0.628 1.497 0z"/>
 </g>
</svg>
