<?xml version="1.0" encoding="UTF-8"?>
<!DOCTYPE svg PUBLIC "-//W3C//DTD SVG 1.1//EN" "http://www.w3.org/Graphics/SVG/1.1/DTD/svg11.dtd">
<!-- Creator: CorelDRAW 2019 (64-Bit) -->
<svg xmlns="http://www.w3.org/2000/svg" xml:space="preserve" width="0.90636cm" height="0.90556cm" version="1.1" style="shape-rendering:geometricPrecision; text-rendering:geometricPrecision; image-rendering:optimizeQuality; fill-rule:evenodd; clip-rule:evenodd"
viewBox="0 0 0.993 0.992"
 xmlns:xlink="http://www.w3.org/1999/xlink"
 xmlns:xodm="http://www.corel.com/coreldraw/odm/2003">
 <defs>
  <style type="text/css">
   <![CDATA[
    .str0 {stroke:white;stroke-width:0.008;stroke-linejoin:round;stroke-miterlimit:22.9256}
    .fil2 {fill:none}
    .fil0 {fill:#FFFF99}
    .fil1 {fill:#A39F6B;fill-rule:nonzero}
   ]]>
  </style>
   <clipPath id="id0">
    <path d="M0.158 0.004l0.831 0c0,0.136 0,0.272 0,0.408 -0.001,0.035 -0.058,0.016 -0.095,-0.017 -0.264,-0.212 -0.318,0.388 -0,0.193 0.051,-0.038 0.097,-0.064 0.095,-0.017l0 0.416c-0.28,0 -0.56,0 -0.84,0 -0.15,0.002 -0.146,-0.026 -0.143,-0.183 0.004,-0.25 0,-0.417 0,-0.666 -0.004,-0.107 0.001,-0.129 0.153,-0.133z"/>
   </clipPath>
 </defs>
 <g id="Слой_x0020_1">
  <metadata id="CorelCorpID_0Corel-Layer"/>
  <path class="fil0" d="M0.158 0.004l0.831 0c0,0.136 0,0.272 0,0.408 -0.001,0.035 -0.058,0.016 -0.095,-0.017 -0.264,-0.212 -0.318,0.388 -0,0.193 0.051,-0.038 0.097,-0.064 0.095,-0.017l0 0.416c-0.28,0 -0.56,0 -0.84,0 -0.15,0.002 -0.146,-0.026 -0.143,-0.183 0.004,-0.25 0,-0.417 0,-0.666 -0.004,-0.107 0.001,-0.129 0.153,-0.133z"/>
  <g style="clip-path:url(#id0)">
   <g id="_1963267558496">
    <g>
     <path id="1" class="fil1" d="M0.745 0.081c-0.004,0.003 -0.008,0.007 -0.012,0.012 -0.005,0.007 -0.012,0.016 -0.02,0.029l-0.005 0.007 -0.005 0.007c-0.004,0.005 -0.008,0.01 -0.011,0.014 -0.004,0.004 -0.009,0.008 -0.014,0.01 -0.006,0.003 -0.011,0.004 -0.016,0.003 0.01,-0.001 0.019,-0.006 0.028,-0.016 0.003,-0.004 0.007,-0.008 0.01,-0.014l0.005 -0.007 0.005 -0.007c0.008,-0.013 0.015,-0.022 0.021,-0.029 0.005,-0.005 0.009,-0.009 0.013,-0.011 0.005,-0.003 0.011,-0.005 0.016,-0.004 -0.006,0.001 -0.011,0.003 -0.015,0.006zm-0.196 0.024c-0.006,0.008 -0.011,0.018 -0.017,0.03 -0.003,0.007 -0.008,0.018 -0.013,0.033 -0.002,0.006 -0.004,0.011 -0.006,0.017l-0.003 0.008 -0.003 0.008c0.004,-0.025 0.011,-0.048 0.02,-0.068 0.006,-0.013 0.012,-0.023 0.018,-0.03 0.004,-0.004 0.008,-0.008 0.013,-0.011 0.005,-0.003 0.011,-0.005 0.016,-0.004 -0.009,0.001 -0.018,0.007 -0.026,0.018zm0.296 0.131c-0.002,-0.053 -0.011,-0.096 -0.026,-0.129 -0.014,-0.031 -0.031,-0.048 -0.051,-0.051 -0.015,-0.002 -0.028,0.002 -0.04,0.013 -0.009,0.008 -0.021,0.024 -0.036,0.047 -0.013,0.02 -0.023,0.03 -0.032,0.027 -0.006,-0.001 -0.013,-0.009 -0.022,-0.024 -0.01,-0.017 -0.02,-0.03 -0.029,-0.038 -0.012,-0.011 -0.024,-0.015 -0.037,-0.014 -0.034,0.004 -0.061,0.047 -0.082,0.129 -0.013,0.053 -0.019,0.101 -0.016,0.143 0.003,0.048 0.016,0.075 0.04,0.08 0.014,0.003 0.026,-0.001 0.036,-0.011 0.008,-0.008 0.016,-0.021 0.023,-0.039 0.002,-0.006 0.005,-0.013 0.008,-0.022l0.002 -0.005 0.002 -0.005c0.001,-0.004 0.002,-0.007 0.003,-0.01 0.005,-0.014 0.01,-0.022 0.014,-0.023 0.003,-0.001 0.006,0.001 0.009,0.008 0.001,0.002 0.002,0.006 0.004,0.011l0.001 0.003 0.001 0.003 0.002 0.006c0.004,0.011 0.009,0.019 0.013,0.025 0.007,0.008 0.015,0.012 0.024,0.012 0.007,0 0.014,-0.003 0.02,-0.009 0.004,-0.004 0.009,-0.01 0.015,-0.019l0.003 -0.005 0.003 -0.005c0.002,-0.004 0.004,-0.006 0.006,-0.008 0.004,-0.005 0.008,-0.007 0.012,-0.005 0.004,0.002 0.008,0.009 0.012,0.021 0.001,0.002 0.002,0.005 0.003,0.009l0.001 0.005 0.001 0.005c0.003,0.008 0.005,0.015 0.007,0.02 0.006,0.016 0.012,0.029 0.019,0.037 0.009,0.011 0.02,0.017 0.033,0.017 0.022,0.001 0.037,-0.018 0.046,-0.056 0.008,-0.033 0.011,-0.08 0.009,-0.142zm0.19 0.079c-0.003,0.005 -0.007,0.008 -0.011,0.011 -0.004,0.003 -0.009,0.004 -0.014,0.004 0.009,-0.004 0.016,-0.009 0.022,-0.017 0.005,-0.007 0.008,-0.016 0.01,-0.027 0.002,0.011 0,0.021 -0.006,0.03zm-0.051 -0.027c-0.001,-0.007 0,-0.013 0.003,-0.018 0.003,-0.005 0.007,-0.008 0.012,-0.01 0.005,-0.001 0.01,0.001 0.014,0.005 0.004,0.004 0.007,0.009 0.008,0.016 0.001,0.007 0,0.013 -0.003,0.018 -0.003,0.005 -0.007,0.009 -0.012,0.009 -0.005,0.001 -0.01,-0.001 -0.014,-0.005 -0.004,-0.004 -0.007,-0.009 -0.008,-0.016zm-0.013 -0.203c-0.012,0.005 -0.024,0.013 -0.033,0.023 -0.009,0.009 -0.017,0.02 -0.025,0.034l-0.002 0.005 -0.002 0.005 -0.004 0.01 -0.004 0.01 -0.004 0.01c0.003,-0.015 0.007,-0.029 0.014,-0.042 0.006,-0.014 0.015,-0.026 0.025,-0.036 0.011,-0.011 0.022,-0.019 0.035,-0.023 0.006,-0.002 0.013,-0.004 0.02,-0.005l0.005 -0.001 0.005 -0 0.01 0c-0.015,0.001 -0.028,0.004 -0.039,0.01zm0.081 -0.024c-0.05,-0.013 -0.092,-0.005 -0.125,0.027 -0.029,0.027 -0.048,0.067 -0.055,0.118 -0.007,0.05 -0.002,0.096 0.016,0.138 0.019,0.046 0.048,0.074 0.087,0.086 0.037,0.011 0.072,0.001 0.104,-0.031 0.03,-0.029 0.051,-0.068 0.064,-0.117 0.013,-0.05 0.013,-0.095 -0.001,-0.135 -0.015,-0.045 -0.045,-0.073 -0.09,-0.085zm0.246 0.016l-0.005 0.001c-0.002,0.001 -0.003,0.001 -0.004,0.002 -0.001,0 -0.002,0.001 -0.004,0.002l-0.002 0.001 -0.002 0.001 -0.004 0.003c-0.002,0.001 -0.003,0.002 -0.004,0.003 -0.009,0.008 -0.018,0.018 -0.026,0.03 -0.006,0.009 -0.013,0.021 -0.02,0.035 -0.005,0.01 -0.01,0.022 -0.016,0.037 0.003,-0.013 0.007,-0.026 0.013,-0.039 0.005,-0.013 0.012,-0.025 0.019,-0.037 0.009,-0.013 0.018,-0.023 0.027,-0.03 0.012,-0.009 0.024,-0.013 0.037,-0.012l-0.009 0.002zm0.149 0.118c-0.016,-0.045 -0.037,-0.08 -0.065,-0.106 -0.028,-0.026 -0.057,-0.038 -0.086,-0.033 -0.025,0.004 -0.047,0.022 -0.068,0.054 -0.02,0.031 -0.034,0.068 -0.043,0.111 -0.01,0.049 -0.011,0.095 -0.004,0.138 0.004,0.021 0.009,0.038 0.016,0.05 0.008,0.014 0.017,0.021 0.029,0.023 0.017,0.003 0.031,-0.004 0.042,-0.021 0.008,-0.013 0.015,-0.033 0.021,-0.06 0.001,-0.005 0.002,-0.011 0.003,-0.017l0.002 -0.008 0.001 -0.008c0.003,-0.014 0.005,-0.024 0.006,-0.03 0.005,-0.02 0.01,-0.031 0.016,-0.032 0.005,-0.001 0.009,0.001 0.014,0.007 0.004,0.005 0.007,0.013 0.011,0.024 0.001,0.004 0.003,0.009 0.006,0.016l0.003 0.009 0.003 0.009c0.005,0.015 0.01,0.028 0.014,0.037 0.011,0.025 0.024,0.043 0.039,0.052 0.014,0.008 0.027,0.008 0.039,0 0.008,-0.005 0.014,-0.015 0.018,-0.028 0.004,-0.014 0.007,-0.03 0.007,-0.049 0.001,-0.043 -0.007,-0.089 -0.025,-0.139zm0.214 0.119c-0.003,0.005 -0.007,0.008 -0.011,0.011 -0.004,0.003 -0.009,0.004 -0.014,0.004 0.009,-0.004 0.016,-0.009 0.022,-0.017 0.005,-0.007 0.008,-0.016 0.01,-0.027 0.002,0.011 0,0.021 -0.006,0.03zm-0.051 -0.027c-0.001,-0.007 0,-0.013 0.003,-0.018 0.003,-0.005 0.007,-0.008 0.012,-0.01 0.005,-0.001 0.01,0.001 0.014,0.005 0.004,0.004 0.007,0.009 0.008,0.016 0.001,0.007 0,0.013 -0.003,0.018 -0.003,0.005 -0.007,0.009 -0.012,0.009 -0.005,0.001 -0.01,-0.001 -0.014,-0.005 -0.004,-0.004 -0.007,-0.009 -0.008,-0.016zm-0.013 -0.203c-0.012,0.005 -0.024,0.013 -0.033,0.023 -0.009,0.009 -0.017,0.02 -0.025,0.034l-0.002 0.005 -0.002 0.005 -0.004 0.01 -0.004 0.01 -0.004 0.01c0.003,-0.015 0.007,-0.029 0.014,-0.042 0.006,-0.014 0.015,-0.026 0.025,-0.036 0.011,-0.011 0.022,-0.019 0.035,-0.023 0.006,-0.002 0.013,-0.004 0.02,-0.005l0.005 -0.001 0.005 -0 0.01 0c-0.015,0.001 -0.028,0.004 -0.039,0.01zm0.081 -0.024c-0.05,-0.013 -0.092,-0.005 -0.125,0.027 -0.029,0.028 -0.048,0.067 -0.055,0.118 -0.007,0.05 -0.002,0.096 0.016,0.138 0.019,0.046 0.048,0.074 0.087,0.086 0.037,0.011 0.072,0.001 0.104,-0.031 0.03,-0.029 0.051,-0.068 0.064,-0.117 0.013,-0.05 0.013,-0.095 -0.001,-0.135 -0.015,-0.045 -0.045,-0.073 -0.09,-0.085zm0.36 0.241c-0.001,0.006 -0.004,0.011 -0.009,0.015 -0.004,0.004 -0.009,0.006 -0.015,0.007 -0.005,0.001 -0.011,0.001 -0.016,0 0.006,-0.001 0.011,-0.003 0.015,-0.004 0.005,-0.002 0.01,-0.004 0.013,-0.007 0.004,-0.003 0.006,-0.007 0.008,-0.012 0.001,-0.004 0.003,-0.009 0.004,-0.016 0.001,0.006 0.001,0.012 0,0.017zm-0.062 -0.007c-0.003,-0.006 -0.002,-0.016 0.003,-0.03 0.005,-0.014 0.011,-0.021 0.018,-0.021 0.008,0 0.014,0.008 0.019,0.022 0.002,0.006 0.003,0.012 0.003,0.017 0,0.006 -0,0.01 -0.002,0.013 -0.002,0.004 -0.009,0.006 -0.02,0.006 -0.011,-0 -0.018,-0.003 -0.021,-0.008zm-0.033 -0.171c-0.007,0.011 -0.013,0.023 -0.019,0.036 -0.004,0.01 -0.01,0.023 -0.015,0.038 0.003,-0.013 0.007,-0.026 0.012,-0.04 0.005,-0.012 0.011,-0.025 0.018,-0.037 0.008,-0.013 0.017,-0.023 0.026,-0.031 0.005,-0.004 0.011,-0.008 0.017,-0.011 0.006,-0.003 0.013,-0.004 0.019,-0.004 -0.011,0.001 -0.022,0.007 -0.033,0.018 -0.009,0.008 -0.017,0.019 -0.024,0.031zm-0.107 0.207c-0.004,0.002 -0.007,0.004 -0.009,0.007 -0.003,0.003 -0.005,0.006 -0.006,0.01 -0.001,-0.005 0.001,-0.009 0.004,-0.013 0.002,-0.003 0.005,-0.006 0.01,-0.008 0.007,-0.004 0.015,-0.006 0.023,-0.006l-0.005 0.003 -0.006 0.003c-0.004,0.002 -0.008,0.004 -0.01,0.005zm0.295 -0.031c-0.007,-0.002 -0.011,-0.005 -0.014,-0.008 -0.003,-0.003 -0.005,-0.008 -0.006,-0.015 -0.001,-0.004 -0.001,-0.012 -0.002,-0.024 -0,-0.006 -0.001,-0.012 -0.001,-0.016 -0,-0.006 -0.001,-0.013 -0.002,-0.019 -0.007,-0.052 -0.02,-0.093 -0.04,-0.121 -0.018,-0.026 -0.04,-0.04 -0.065,-0.041 -0.021,-0.001 -0.042,0.012 -0.063,0.037 -0.021,0.026 -0.037,0.059 -0.048,0.1 -0.004,0.016 -0.008,0.033 -0.01,0.049 -0.001,0.003 -0.001,0.006 -0.001,0.009l-0.001 0.004 -0.001 0.004c-0.001,0.007 -0.001,0.011 -0.002,0.014 -0.002,0.009 -0.004,0.015 -0.007,0.018 -0.003,0.004 -0.009,0.007 -0.016,0.009 -0.021,0.005 -0.036,0.013 -0.044,0.025 -0.008,0.011 -0.009,0.023 -0.006,0.038 0.005,0.021 0.027,0.038 0.066,0.05 0.034,0.011 0.077,0.017 0.128,0.019 0.047,0.001 0.083,-0 0.108,-0.005 0.037,-0.006 0.061,-0.02 0.072,-0.04 0.01,-0.019 0.011,-0.037 0.002,-0.053 -0.009,-0.016 -0.025,-0.028 -0.048,-0.035zm0.241 0.024l-0.004 0.001c-0.003,0.001 -0.005,0.002 -0.007,0.002 -0.006,0.001 -0.011,0.002 -0.016,0.001 0.005,-0.001 0.01,-0.002 0.015,-0.004l0.003 -0.002 0.003 -0.001c0.003,-0.001 0.005,-0.002 0.007,-0.003 0.005,-0.002 0.011,-0.003 0.015,-0.004 0.006,-0.001 0.011,-0.001 0.015,0 -0.008,0.002 -0.018,0.005 -0.029,0.008l-0.004 0.001zm-0.07 -0.245c-0.007,0.002 -0.014,0.005 -0.02,0.009 -0.007,0.004 -0.013,0.009 -0.018,0.014 -0.005,0.005 -0.009,0.011 -0.013,0.019 -0.006,0.011 -0.011,0.026 -0.016,0.045 -0.002,0.007 -0.003,0.015 -0.005,0.024 -0.001,0.003 -0.001,0.007 -0.002,0.012l-0.002 0.012c0,-0.017 0.002,-0.033 0.005,-0.048 0.003,-0.018 0.008,-0.033 0.015,-0.046 0.004,-0.008 0.009,-0.015 0.014,-0.02 0.006,-0.006 0.012,-0.01 0.019,-0.014 0.006,-0.004 0.014,-0.006 0.021,-0.008 0.008,-0.002 0.015,-0.002 0.022,-0.002 -0.008,0.001 -0.016,0.002 -0.022,0.004zm0.047 0.14l0.002 -0.001c0.002,-0.001 0.003,-0.001 0.004,-0.001 0.003,-0 0.006,-0 0.008,0 0.003,0.001 0.006,0.003 0.007,0.005 -0.002,-0.001 -0.004,-0.001 -0.008,-0.001 -0.003,0 -0.005,0 -0.007,0.001l-0.002 0 -0.002 0c-0.002,0 -0.003,0.001 -0.004,0.001 -0.003,0 -0.006,-0 -0.008,-0.001l0.004 -0.001 0.004 -0.001 0.002 -0.001zm0.011 0.086c-0.008,0.004 -0.016,0.004 -0.021,0.002 -0.005,-0.002 -0.008,-0.006 -0.01,-0.011 -0.001,-0.005 -0.001,-0.01 0.002,-0.015 0.003,-0.005 0.007,-0.007 0.013,-0.008 0.017,-0.002 0.03,-0.007 0.038,-0.015 0.008,-0.008 0.011,-0.017 0.011,-0.029 -0.001,-0.011 -0.005,-0.019 -0.014,-0.024 -0.009,-0.005 -0.02,-0.006 -0.033,-0.003 -0.011,0.003 -0.018,-0 -0.021,-0.009 -0.001,-0.004 -0.001,-0.008 -0,-0.012 0.001,-0.004 0.003,-0.008 0.006,-0.01 0.005,-0.004 0.012,-0.006 0.021,-0.007 0.003,-0.001 0.008,-0.001 0.013,-0.001l0.007 -0 0.007 -0.001c0.011,-0.001 0.019,-0.003 0.025,-0.005 0.008,-0.004 0.014,-0.01 0.017,-0.018 0.006,-0.014 0.003,-0.028 -0.007,-0.042 -0.01,-0.014 -0.024,-0.024 -0.044,-0.032 -0.02,-0.008 -0.041,-0.011 -0.061,-0.008 -0.023,0.003 -0.043,0.013 -0.059,0.03 -0.015,0.015 -0.026,0.04 -0.034,0.073 -0.007,0.031 -0.01,0.064 -0.008,0.101 0.001,0.037 0.007,0.069 0.015,0.098 0.01,0.031 0.022,0.051 0.037,0.062 0.015,0.011 0.033,0.016 0.055,0.015 0.02,-0.001 0.04,-0.006 0.06,-0.016 0.02,-0.009 0.036,-0.021 0.049,-0.035 0.013,-0.015 0.02,-0.03 0.02,-0.045 0,-0.02 -0.007,-0.033 -0.022,-0.04 -0.016,-0.006 -0.037,-0.004 -0.065,0.007zm0.332 -0.206c-0.003,0.004 -0.006,0.009 -0.008,0.016 -0.001,0.004 -0.003,0.01 -0.005,0.017l-0.005 0.018c-0,-0.006 0,-0.012 0.001,-0.019 0.001,-0.007 0.002,-0.013 0.005,-0.018 0.003,-0.007 0.006,-0.013 0.01,-0.016 0.005,-0.006 0.01,-0.008 0.016,-0.007 -0.005,0.001 -0.01,0.004 -0.014,0.009zm-0.057 0.185c-0.004,0.003 -0.007,0.005 -0.011,0.006 -0.004,0.001 -0.008,0.001 -0.012,0 0.004,-0.001 0.008,-0.003 0.011,-0.004 0.004,-0.002 0.007,-0.004 0.009,-0.006 0.003,-0.002 0.005,-0.005 0.008,-0.008l0.004 -0.004 0.004 -0.005c-0.002,0.009 -0.007,0.016 -0.014,0.021zm-0.091 -0.202c-0.004,0.003 -0.007,0.006 -0.01,0.009 -0.005,0.006 -0.01,0.014 -0.014,0.023 -0.003,0.007 -0.007,0.015 -0.011,0.026l-0.005 0.014 -0.005 0.013c0.003,-0.02 0.008,-0.038 0.016,-0.055 0.005,-0.01 0.01,-0.018 0.016,-0.024 0.003,-0.003 0.006,-0.006 0.011,-0.009 0.005,-0.002 0.009,-0.003 0.013,-0.003 -0.004,0.001 -0.008,0.003 -0.012,0.005zm0.215 0.259c-0.01,-0.003 -0.014,-0.013 -0.013,-0.028 0,-0.005 0.001,-0.013 0.002,-0.022l0.002 -0.012c0.001,-0.005 0.001,-0.009 0.002,-0.012 0.007,-0.059 0.009,-0.101 0.007,-0.125 -0.003,-0.038 -0.016,-0.061 -0.039,-0.069 -0.017,-0.006 -0.031,-0.002 -0.042,0.011 -0.012,0.014 -0.019,0.035 -0.022,0.065 -0.008,0.081 -0.023,0.121 -0.044,0.121 -0.023,0 -0.026,-0.033 -0.008,-0.099 0.009,-0.034 0.009,-0.062 -0.001,-0.084 -0.009,-0.021 -0.025,-0.031 -0.047,-0.03 -0.022,0.001 -0.042,0.019 -0.057,0.055 -0.015,0.034 -0.024,0.076 -0.027,0.127 -0.003,0.051 0.001,0.091 0.013,0.122 0.009,0.023 0.024,0.042 0.043,0.056 0.016,0.011 0.036,0.018 0.059,0.019 0.009,0 0.02,0 0.034,-0.001l0.009 -0.001 0.009 -0.001c0.008,-0 0.015,-0.001 0.02,-0.001 0.008,-0.001 0.014,0.001 0.019,0.005 0.003,0.003 0.007,0.008 0.011,0.015l0.002 0.004 0.003 0.004c0.002,0.003 0.004,0.006 0.006,0.008 0.006,0.006 0.013,0.01 0.022,0.013 0.015,0.004 0.028,0 0.041,-0.012 0.011,-0.011 0.019,-0.026 0.024,-0.045 0.005,-0.019 0.005,-0.036 0.001,-0.052 -0.005,-0.017 -0.015,-0.028 -0.029,-0.032zm0.085 0.022c-0.004,0.004 -0.007,0.01 -0.01,0.018 -0.001,-0.008 0.001,-0.015 0.007,-0.021 0.003,-0.003 0.006,-0.005 0.009,-0.007 0.004,-0.001 0.007,-0.002 0.011,-0.001 -0.006,0.002 -0.012,0.005 -0.016,0.011zm0.016 -0.029c-0.011,0 -0.02,0.005 -0.028,0.013 -0.008,0.008 -0.013,0.019 -0.014,0.031 -0.001,0.008 -0,0.017 0.002,0.025 0.002,0.008 0.006,0.015 0.012,0.02 0.004,0.004 0.005,0.011 0.003,0.021l-0 0.003 -0.001 0.003c-0,0.002 -0.001,0.004 -0.001,0.005 -0,0.003 0,0.006 0.002,0.008 0.003,0.004 0.009,0.005 0.015,0.003 0.006,-0.002 0.013,-0.007 0.02,-0.014 0.017,-0.017 0.027,-0.037 0.03,-0.061 0.002,-0.015 -0.001,-0.029 -0.01,-0.04 -0.008,-0.011 -0.018,-0.017 -0.031,-0.017zm-2.173 0.496c-0.002,0.005 -0.006,0.009 -0.01,0.011 -0.004,0.003 -0.009,0.004 -0.014,0.003 0.005,-0.001 0.009,-0.003 0.012,-0.005 0.004,-0.003 0.006,-0.006 0.008,-0.011 0.004,-0.008 0.004,-0.017 0.002,-0.028 0.002,0.004 0.004,0.009 0.004,0.015 0,0.005 -0.001,0.011 -0.003,0.016zm-0.039 -0.014c-0.002,-0.004 -0.003,-0.009 -0.003,-0.013 0,-0.004 0.002,-0.007 0.005,-0.009 0.003,-0.002 0.006,-0.002 0.01,0 0.004,0.002 0.007,0.005 0.009,0.009 0.002,0.004 0.003,0.009 0.003,0.013 -0,0.004 -0.002,0.007 -0.005,0.009 -0.003,0.002 -0.006,0.002 -0.01,-0 -0.004,-0.002 -0.007,-0.005 -0.009,-0.009zm-0.018 -0.094c0.003,-0.001 0.006,-0.002 0.009,-0.004 0.003,-0.002 0.005,-0.004 0.007,-0.006 0.002,-0.002 0.004,-0.005 0.006,-0.008 0.002,-0.003 0.003,-0.006 0.004,-0.01 0.001,0.008 -0.002,0.015 -0.007,0.021 -0.003,0.003 -0.006,0.005 -0.009,0.006 -0.004,0.001 -0.007,0.002 -0.01,0.001zm-0.004 -0.033c0.002,-0.003 0.004,-0.005 0.006,-0.006 0.002,-0.001 0.005,-0.001 0.006,0 0.002,0.001 0.003,0.003 0.003,0.006 0,0.003 -0,0.006 -0.002,0.009 -0.001,0.003 -0.003,0.005 -0.006,0.006 -0.002,0.001 -0.004,0.001 -0.006,0 -0.002,-0.001 -0.003,-0.003 -0.003,-0.006 -0,-0.003 0,-0.006 0.002,-0.009zm-0.035 -0.04c-0.003,0.004 -0.007,0.008 -0.01,0.014 -0.005,0.009 -0.01,0.019 -0.015,0.031 -0.003,0.01 -0.007,0.021 -0.01,0.034 0.001,-0.012 0.003,-0.023 0.007,-0.035 0.003,-0.012 0.008,-0.023 0.014,-0.033 0.007,-0.011 0.015,-0.02 0.024,-0.025 0.006,-0.003 0.011,-0.006 0.016,-0.007 0.006,-0.001 0.011,-0.002 0.016,-0.002 -0.011,0.001 -0.022,0.005 -0.03,0.012 -0.005,0.003 -0.009,0.007 -0.012,0.011zm0.09 0.086c-0.002,-0.001 -0.003,-0.003 -0.002,-0.007 0.001,-0.001 0.002,-0.004 0.003,-0.007l0.001 -0.002 0.001 -0.002c0.001,-0.002 0.002,-0.003 0.002,-0.005 0.004,-0.008 0.006,-0.016 0.008,-0.024 0.002,-0.011 0.002,-0.022 0.001,-0.033 -0.002,-0.013 -0.009,-0.023 -0.02,-0.032 -0.011,-0.009 -0.025,-0.014 -0.039,-0.014 -0.016,-0 -0.031,0.004 -0.045,0.015 -0.016,0.012 -0.028,0.03 -0.037,0.055 -0.009,0.026 -0.015,0.053 -0.015,0.083 -0.001,0.031 0.003,0.059 0.011,0.084 0.009,0.028 0.023,0.049 0.041,0.064 0.02,0.017 0.044,0.024 0.072,0.022 0.027,-0.002 0.048,-0.011 0.064,-0.028 0.015,-0.015 0.023,-0.035 0.024,-0.058 0.001,-0.023 -0.004,-0.044 -0.015,-0.064 -0.013,-0.022 -0.031,-0.037 -0.054,-0.048zm0.267 0.071c-0.001,0.001 -0.003,0.002 -0.004,0.003l-0.002 0.002 -0.002 0.002c-0.004,0.003 -0.007,0.005 -0.011,0.005 -0.004,0.001 -0.008,0.001 -0.012,0 0.007,-0.002 0.014,-0.005 0.02,-0.009l0.002 -0.002 0.002 -0.002c0.002,-0.001 0.004,-0.002 0.005,-0.003 0.004,-0.002 0.008,-0.002 0.012,-0.002 -0.003,0.001 -0.007,0.002 -0.01,0.005zm-0.12 -0.15c-0.007,0.008 -0.014,0.018 -0.019,0.029 -0.005,0.009 -0.009,0.02 -0.013,0.033 0.002,-0.012 0.006,-0.023 0.011,-0.035 0.005,-0.011 0.011,-0.021 0.019,-0.03 0.008,-0.009 0.018,-0.016 0.028,-0.021 0.006,-0.002 0.011,-0.004 0.016,-0.005 0.006,-0.001 0.012,-0.001 0.017,-0.001 -0.012,0.001 -0.023,0.004 -0.032,0.008 -0.01,0.005 -0.019,0.012 -0.026,0.021zm0.165 0.174c-0.002,-0.023 -0.01,-0.038 -0.023,-0.044 -0.006,-0.003 -0.012,-0.003 -0.019,-0.001 -0.007,0.002 -0.013,0.005 -0.019,0.01 -0.006,0.005 -0.012,0.007 -0.019,0.006 -0.006,-0.001 -0.012,-0.004 -0.017,-0.009 -0.005,-0.006 -0.009,-0.013 -0.011,-0.022 -0.002,-0.01 -0.003,-0.02 -0.001,-0.032 0.002,-0.016 0.009,-0.026 0.022,-0.028 0.009,-0.001 0.022,0.001 0.038,0.007 0.007,0.003 0.014,0.003 0.02,-0 0.006,-0.003 0.01,-0.008 0.013,-0.014 0.003,-0.007 0.004,-0.015 0.002,-0.024 -0.001,-0.009 -0.005,-0.018 -0.011,-0.027 -0.013,-0.018 -0.029,-0.031 -0.05,-0.038 -0.019,-0.006 -0.038,-0.007 -0.057,-0.002 -0.025,0.006 -0.045,0.024 -0.061,0.051 -0.018,0.03 -0.026,0.068 -0.026,0.113 -0,0.051 0.012,0.091 0.036,0.119 0.011,0.014 0.025,0.023 0.04,0.03 0.015,0.006 0.032,0.009 0.05,0.007 0.03,-0.003 0.054,-0.014 0.072,-0.035 0.017,-0.02 0.025,-0.042 0.022,-0.068zm0.163 0.01l-0.003 0.001c-0.003,0.001 -0.005,0.002 -0.006,0.002 -0.005,0.001 -0.009,0.001 -0.013,0 0.004,-0.001 0.008,-0.002 0.012,-0.004l0.003 -0.001 0.003 -0.001c0.002,-0.001 0.005,-0.002 0.006,-0.002 0.005,-0.002 0.009,-0.003 0.013,-0.003 0.005,-0.001 0.01,-0.001 0.013,0 -0.007,0.001 -0.016,0.004 -0.025,0.007l-0.003 0.001zm-0.06 -0.21c-0.006,0.002 -0.012,0.004 -0.017,0.007 -0.006,0.004 -0.011,0.008 -0.015,0.012 -0.004,0.004 -0.008,0.01 -0.011,0.016 -0.005,0.01 -0.009,0.023 -0.013,0.038 -0.002,0.006 -0.003,0.013 -0.004,0.02 -0.001,0.003 -0.001,0.006 -0.002,0.01l-0.001 0.01c0,-0.015 0.002,-0.028 0.004,-0.041 0.003,-0.015 0.007,-0.028 0.013,-0.04 0.004,-0.007 0.007,-0.013 0.012,-0.017 0.005,-0.005 0.011,-0.009 0.016,-0.012 0.006,-0.003 0.012,-0.005 0.018,-0.007 0.007,-0.001 0.013,-0.002 0.019,-0.001 -0.007,0.001 -0.013,0.002 -0.019,0.003zm0.04 0.12l0.002 -0.001c0.001,-0 0.002,-0.001 0.004,-0.001 0.003,-0 0.005,-0 0.007,0 0.003,0.001 0.005,0.002 0.006,0.004 -0.002,-0 -0.004,-0.001 -0.006,-0.001 -0.002,0 -0.004,0 -0.006,0.001l-0.002 0 -0.002 0c-0.001,0 -0.003,0 -0.003,0 -0.003,0 -0.005,-0 -0.007,-0.001l0.003 -0.001 0.003 -0.001 0.001 -0zm0.01 0.073c-0.007,0.003 -0.014,0.004 -0.019,0.002 -0.004,-0.002 -0.007,-0.005 -0.008,-0.01 -0.001,-0.005 -0.001,-0.009 0.002,-0.012 0.002,-0.004 0.006,-0.007 0.011,-0.007 0.015,-0.002 0.026,-0.006 0.033,-0.013 0.006,-0.006 0.009,-0.015 0.009,-0.025 -0,-0.009 -0.004,-0.016 -0.012,-0.021 -0.008,-0.005 -0.017,-0.005 -0.028,-0.002 -0.009,0.002 -0.015,-0 -0.018,-0.008 -0.001,-0.003 -0.001,-0.006 -0,-0.01 0.001,-0.004 0.003,-0.006 0.005,-0.009 0.004,-0.003 0.01,-0.005 0.018,-0.007 0.003,-0 0.007,-0.001 0.011,-0.001l0.006 -0 0.006 -0c0.009,-0.001 0.016,-0.002 0.021,-0.005 0.007,-0.003 0.012,-0.008 0.015,-0.015 0.005,-0.012 0.003,-0.024 -0.006,-0.036 -0.009,-0.012 -0.021,-0.021 -0.038,-0.027 -0.017,-0.007 -0.035,-0.009 -0.052,-0.007 -0.02,0.003 -0.037,0.011 -0.05,0.025 -0.013,0.013 -0.023,0.034 -0.029,0.062 -0.006,0.026 -0.008,0.055 -0.007,0.087 0.001,0.031 0.006,0.059 0.013,0.084 0.008,0.026 0.019,0.044 0.032,0.053 0.013,0.009 0.029,0.013 0.047,0.013 0.017,-0.001 0.034,-0.005 0.052,-0.013 0.017,-0.008 0.031,-0.018 0.042,-0.03 0.012,-0.013 0.017,-0.026 0.017,-0.039 0,-0.017 -0.006,-0.029 -0.019,-0.034 -0.013,-0.006 -0.032,-0.004 -0.055,0.006zm-0.054 -0.251c0,-0 0.001,-0.001 0.001,-0.001 0.001,-0 0.001,-0 0.002,-0 -0,0 -0,0.001 -0,0.002l0 0 0 0.001 0 0.001 0 0.001c-0,0.002 -0.001,0.003 -0.002,0.005 -0.002,-0.001 -0.003,-0.003 -0.002,-0.005 0,-0.001 0.001,-0.002 0.001,-0.003zm0.01 0.032c0.006,-0.001 0.01,-0.005 0.013,-0.011 0.003,-0.006 0.003,-0.013 0.001,-0.021 -0.002,-0.008 -0.006,-0.013 -0.012,-0.017 -0.006,-0.003 -0.011,-0.003 -0.017,-0.001 -0.005,0.002 -0.008,0.007 -0.01,0.013 -0.002,0.006 -0.002,0.012 -0,0.018 0.002,0.006 0.005,0.011 0.01,0.015 0.005,0.004 0.01,0.005 0.015,0.004zm0.047 -0.045c0.001,-0.002 0.003,-0.003 0.004,-0.003 0.002,-0.001 0.004,-0.001 0.005,0 -0.001,0.001 -0.002,0.002 -0.004,0.003 -0.001,0.001 -0.002,0.002 -0.003,0.003 -0.001,0.001 -0.002,0.002 -0.002,0.004l-0.001 0.002 -0.001 0.002c-0.001,-0.004 -0,-0.007 0.002,-0.01zm0.001 0.044c0.008,0.002 0.015,0.001 0.022,-0.005 0.007,-0.005 0.011,-0.013 0.012,-0.023 0.001,-0.01 -0.001,-0.019 -0.006,-0.026 -0.005,-0.007 -0.012,-0.011 -0.02,-0.011 -0.007,0 -0.013,0.003 -0.018,0.009 -0.005,0.005 -0.008,0.012 -0.009,0.02 -0.001,0.008 0,0.015 0.004,0.022 0.004,0.007 0.009,0.011 0.015,0.013z"/>
     <path class="fil1" d="M1.4 0.635c-0.001,0.001 -0.003,0.001 -0.004,0.002l-0.004 0.002 -0.004 0.002c-0.002,0.001 -0.003,0.002 -0.004,0.003 -0.005,0.003 -0.009,0.007 -0.015,0.013 -0.006,0.006 -0.01,0.011 -0.012,0.015 -0.007,0.011 -0.011,0.023 -0.013,0.038 -0.001,0.003 -0.001,0.006 -0.001,0.01l-0.001 0.01c-0,0.003 -0.001,0.006 -0.001,0.01l-0 0.01c-0.001,-0.015 -0.002,-0.029 -0,-0.042 0.001,-0.015 0.006,-0.028 0.013,-0.04l0.003 -0.004 0.003 -0.004c0.001,-0.001 0.002,-0.002 0.003,-0.004l0.002 -0.002 0.002 -0.002c0.006,-0.006 0.011,-0.01 0.016,-0.012 0.011,-0.007 0.023,-0.012 0.036,-0.014l-0.005 0.002 -0.005 0.002c-0.003,0.001 -0.006,0.002 -0.009,0.004zm0.147 0.042c-0.012,-0.027 -0.03,-0.047 -0.054,-0.059 -0.022,-0.011 -0.046,-0.014 -0.071,-0.01 -0.025,0.005 -0.047,0.016 -0.064,0.033 -0.019,0.019 -0.03,0.042 -0.032,0.07 -0.004,0.051 0.003,0.101 0.022,0.15 0.008,0.022 0.018,0.039 0.029,0.051 0.011,0.013 0.023,0.019 0.033,0.017 0.015,-0.002 0.025,-0.012 0.028,-0.029 0.004,-0.02 0.001,-0.054 -0.007,-0.103 -0.007,-0.038 -0.003,-0.059 0.012,-0.061 0.008,-0.001 0.015,0.006 0.019,0.02 0.004,0.014 0.006,0.031 0.005,0.051 -0.002,0.046 0.003,0.078 0.014,0.096 0.008,0.014 0.02,0.02 0.035,0.019 0.013,-0.001 0.024,-0.01 0.033,-0.027 0.008,-0.016 0.014,-0.037 0.017,-0.063 0.003,-0.026 0.003,-0.053 0,-0.08 -0.003,-0.029 -0.01,-0.055 -0.019,-0.077zm0.182 0.064c-0.002,0.004 -0.004,0.008 -0.007,0.012 -0.003,0.004 -0.007,0.006 -0.011,0.008 -0.004,0.002 -0.008,0.002 -0.013,0.001 0.004,-0.001 0.008,-0.002 0.011,-0.004 0.003,-0.002 0.006,-0.005 0.009,-0.008 0.005,-0.006 0.009,-0.013 0.012,-0.022 0,0.004 -0,0.009 -0.002,0.013zm-0.038 -0.019c0.002,-0.005 0.005,-0.008 0.009,-0.01 0.004,-0.002 0.007,-0.002 0.01,-0 0.003,0.002 0.005,0.005 0.005,0.009 0.001,0.004 -0,0.009 -0.002,0.013 -0.002,0.005 -0.005,0.008 -0.008,0.01 -0.004,0.002 -0.007,0.002 -0.01,0 -0.003,-0.002 -0.005,-0.005 -0.005,-0.009 -0.001,-0.004 0,-0.009 0.002,-0.013zm-0.032 -0.089c-0.009,0.005 -0.018,0.011 -0.024,0.019 -0.006,0.007 -0.012,0.016 -0.017,0.027 -0.004,0.009 -0.007,0.019 -0.01,0.031 0,-0.005 0.001,-0.01 0.003,-0.017 0.001,-0.006 0.003,-0.011 0.005,-0.016 0.004,-0.011 0.01,-0.021 0.017,-0.029 0.008,-0.009 0.016,-0.015 0.026,-0.019 0.005,-0.002 0.01,-0.004 0.015,-0.005 0.006,-0.001 0.011,-0.001 0.016,-0.001 -0.012,0.002 -0.021,0.005 -0.03,0.009zm0.039 -0.027c-0.028,-0 -0.051,0.008 -0.069,0.025 -0.016,0.015 -0.028,0.036 -0.034,0.064 -0.006,0.025 -0.008,0.052 -0.005,0.082 0.003,0.029 0.01,0.056 0.02,0.08 0.01,0.024 0.022,0.042 0.034,0.055 0.011,0.011 0.022,0.017 0.034,0.019 0.01,0.001 0.019,-0.002 0.026,-0.01 0.007,-0.008 0.012,-0.018 0.013,-0.03 0.001,-0.009 0.001,-0.019 -0.001,-0.03 -0.001,-0.003 -0.001,-0.008 -0.002,-0.013l-0.001 -0.006c-0,-0.002 -0.001,-0.004 -0.001,-0.006 -0.001,-0.009 -0.001,-0.016 0,-0.021 0.002,-0.006 0.006,-0.011 0.013,-0.014 0.022,-0.011 0.039,-0.028 0.051,-0.05 0.011,-0.02 0.015,-0.042 0.012,-0.064 -0.002,-0.022 -0.011,-0.041 -0.026,-0.055 -0.016,-0.016 -0.038,-0.024 -0.065,-0.024zm0.258 0.201c-0.003,0.002 -0.006,0.004 -0.009,0.005 -0.003,0.001 -0.007,0.001 -0.01,0 0.006,-0.002 0.012,-0.005 0.017,-0.009 0.004,-0.003 0.008,-0.008 0.012,-0.015 -0.001,0.007 -0.004,0.013 -0.01,0.018zm-0.022 -0.013c-0.003,-0.001 -0.005,-0.004 -0.006,-0.009 -0.001,-0.004 -0.001,-0.009 0.001,-0.013 0.002,-0.005 0.004,-0.008 0.008,-0.01 0.003,-0.002 0.007,-0.003 0.01,-0.001 0.003,0.001 0.005,0.004 0.006,0.008 0.001,0.004 0.001,0.009 -0.001,0.013 -0.002,0.005 -0.004,0.008 -0.008,0.01 -0.003,0.002 -0.007,0.003 -0.01,0.001zm-0.034 -0.122c-0.005,0.008 -0.012,0.018 -0.019,0.031 -0.002,0.005 -0.005,0.01 -0.009,0.016l-0.009 0.017c0.004,-0.011 0.009,-0.022 0.015,-0.034 0.005,-0.011 0.012,-0.022 0.019,-0.032 0.008,-0.012 0.016,-0.022 0.023,-0.029l0.003 -0.003c0.001,-0.001 0.002,-0.002 0.003,-0.003l0.004 -0.003 0.004 -0.003c0.007,-0.004 0.012,-0.005 0.017,-0.005 -0.005,0 -0.01,0.003 -0.016,0.007l-0.003 0.003 -0.003 0.003c-0.001,0.001 -0.002,0.002 -0.003,0.003l-0.003 0.003c-0.007,0.008 -0.014,0.018 -0.022,0.029zm0.055 -0.065c-0.018,-0.003 -0.038,0.01 -0.061,0.041 -0.02,0.027 -0.039,0.062 -0.055,0.104 -0.016,0.042 -0.025,0.079 -0.028,0.112 -0.003,0.036 0.003,0.057 0.019,0.063 0.012,0.005 0.023,0.005 0.034,-0 0.008,-0.004 0.017,-0.011 0.026,-0.022 0.002,-0.002 0.004,-0.004 0.006,-0.007l0.005 -0.007c0.005,-0.006 0.008,-0.01 0.01,-0.012 0.007,-0.008 0.014,-0.013 0.018,-0.013 0.005,0 0.012,0.004 0.019,0.012 0.002,0.002 0.006,0.006 0.01,0.012l0.006 0.006 0.006 0.007c0.009,0.01 0.018,0.017 0.026,0.021 0.01,0.005 0.02,0.005 0.03,-0 0.012,-0.006 0.019,-0.025 0.02,-0.058 0.002,-0.03 -0.002,-0.065 -0.009,-0.104 -0.008,-0.04 -0.019,-0.074 -0.033,-0.102 -0.016,-0.031 -0.033,-0.048 -0.051,-0.051zm0.264 0.22c-0.002,0.005 -0.006,0.009 -0.01,0.011 -0.004,0.003 -0.009,0.004 -0.014,0.003 0.005,-0.001 0.009,-0.003 0.012,-0.005 0.004,-0.003 0.006,-0.006 0.008,-0.011 0.004,-0.008 0.004,-0.017 0.002,-0.028 0.002,0.004 0.004,0.009 0.004,0.015 0,0.005 -0,0.011 -0.003,0.016zm-0.039 -0.014c-0.002,-0.004 -0.003,-0.009 -0.003,-0.013 0,-0.004 0.002,-0.007 0.005,-0.009 0.003,-0.002 0.006,-0.002 0.01,0 0.004,0.002 0.007,0.005 0.009,0.009 0.002,0.004 0.003,0.009 0.003,0.013 -0,0.004 -0.002,0.007 -0.005,0.009 -0.003,0.002 -0.006,0.002 -0.01,0 -0.004,-0.002 -0.007,-0.005 -0.009,-0.009zm-0.018 -0.094c0.003,-0.001 0.006,-0.002 0.009,-0.004 0.003,-0.002 0.005,-0.004 0.007,-0.006 0.002,-0.002 0.004,-0.005 0.006,-0.008 0.002,-0.003 0.003,-0.006 0.004,-0.01 0.001,0.008 -0.002,0.015 -0.007,0.021 -0.003,0.003 -0.006,0.005 -0.009,0.006 -0.004,0.001 -0.007,0.002 -0.01,0.001zm-0.004 -0.033c0.002,-0.003 0.004,-0.005 0.006,-0.006 0.002,-0.001 0.005,-0.001 0.006,0 0.002,0.001 0.003,0.003 0.003,0.006 0,0.003 -0,0.006 -0.002,0.009 -0.001,0.003 -0.003,0.005 -0.006,0.006 -0.002,0.001 -0.004,0.001 -0.006,-0 -0.002,-0.001 -0.003,-0.003 -0.003,-0.006 -0,-0.003 0,-0.006 0.002,-0.009zm-0.035 -0.04c-0.003,0.004 -0.007,0.008 -0.01,0.014 -0.005,0.009 -0.01,0.019 -0.015,0.031 -0.003,0.01 -0.007,0.021 -0.01,0.034 0.001,-0.012 0.003,-0.023 0.007,-0.035 0.003,-0.012 0.008,-0.023 0.014,-0.033 0.007,-0.011 0.015,-0.02 0.024,-0.025 0.006,-0.003 0.011,-0.006 0.016,-0.007 0.006,-0.001 0.011,-0.002 0.016,-0.002 -0.011,0.001 -0.022,0.005 -0.03,0.012 -0.005,0.003 -0.009,0.007 -0.012,0.011zm0.09 0.086c-0.002,-0.001 -0.003,-0.003 -0.002,-0.007 0.001,-0.001 0.002,-0.004 0.003,-0.007l0.001 -0.002 0.001 -0.002c0.001,-0.002 0.002,-0.003 0.002,-0.005 0.004,-0.008 0.006,-0.016 0.008,-0.024 0.002,-0.011 0.002,-0.022 0.001,-0.033 -0.002,-0.013 -0.009,-0.024 -0.02,-0.032 -0.011,-0.009 -0.025,-0.014 -0.039,-0.014 -0.016,-0 -0.031,0.004 -0.045,0.015 -0.016,0.012 -0.028,0.03 -0.037,0.055 -0.009,0.026 -0.015,0.053 -0.015,0.083 -0.001,0.031 0.003,0.059 0.011,0.084 0.009,0.028 0.023,0.049 0.041,0.064 0.02,0.017 0.044,0.024 0.072,0.022 0.027,-0.002 0.048,-0.011 0.064,-0.029 0.015,-0.015 0.023,-0.035 0.024,-0.058 0.001,-0.023 -0.004,-0.044 -0.015,-0.064 -0.013,-0.022 -0.031,-0.037 -0.054,-0.048zm0.255 -0.09c-0.004,0.005 -0.007,0.01 -0.011,0.016 -0.007,0.011 -0.012,0.023 -0.017,0.036l-0.003 0.01 -0.003 0.01c-0.003,0.009 -0.005,0.015 -0.007,0.019 -0.003,0.008 -0.007,0.014 -0.01,0.018 -0.002,0.003 -0.005,0.005 -0.008,0.006 -0.003,0.001 -0.006,0.002 -0.01,0.001 0.004,-0 0.007,-0.001 0.009,-0.002 0.002,-0.001 0.005,-0.004 0.007,-0.007 0.003,-0.004 0.005,-0.01 0.008,-0.018l0.003 -0.01 0.003 -0.01c0.002,-0.008 0.004,-0.014 0.006,-0.019 0.005,-0.014 0.011,-0.026 0.018,-0.036 0.009,-0.014 0.018,-0.023 0.028,-0.028 -0.005,0.004 -0.01,0.008 -0.014,0.014zm-0.138 0.052c-0.002,0.009 -0.004,0.02 -0.005,0.033l-0.002 0.017 -0.002 0.016c-0.001,-0.033 0.002,-0.062 0.01,-0.088 0.001,-0.005 0.003,-0.01 0.005,-0.014 0.002,-0.005 0.005,-0.01 0.007,-0.014 0.007,-0.01 0.015,-0.015 0.023,-0.014 -0.011,0.001 -0.019,0.009 -0.026,0.025 -0.002,0.006 -0.005,0.013 -0.007,0.02 -0.001,0.003 -0.002,0.006 -0.002,0.01l-0.001 0.004 -0 0.002 -0 0.002zm0.191 -0.081c-0.017,-0.011 -0.034,-0.01 -0.052,0.003 -0.014,0.011 -0.027,0.028 -0.038,0.051 -0.004,0.008 -0.007,0.016 -0.011,0.026 -0.001,0.004 -0.003,0.008 -0.004,0.013l-0.002 0.006 -0.001 0.003 -0.001 0.003c-0.003,0.008 -0.005,0.014 -0.006,0.017 -0.002,0.004 -0.004,0.006 -0.006,0.006 -0.004,-0 -0.006,-0.003 -0.006,-0.009 -0,-0.005 0.001,-0.017 0.003,-0.035 0.004,-0.033 0.002,-0.057 -0.006,-0.07 -0.007,-0.011 -0.017,-0.015 -0.032,-0.013 -0.018,0.003 -0.032,0.021 -0.042,0.055 -0.01,0.033 -0.014,0.073 -0.013,0.12 0.002,0.087 0.026,0.133 0.071,0.14 0.013,0.002 0.026,-0.002 0.039,-0.01 0.012,-0.008 0.023,-0.019 0.031,-0.034 0.008,-0.013 0.014,-0.024 0.019,-0.035 0.002,-0.004 0.004,-0.008 0.005,-0.012 0.001,-0.003 0.002,-0.006 0.004,-0.009 0.002,-0.006 0.004,-0.009 0.004,-0.01 0.001,-0.001 0.002,-0.002 0.004,-0.002 0.002,0.001 0.002,0.007 0.001,0.019l-0 0.004 -0.001 0.004c-0,0.004 -0.001,0.007 -0.001,0.01 -0.001,0.008 -0.001,0.015 -0.001,0.021 -0.001,0.037 0.011,0.055 0.036,0.055 0.016,-0 0.028,-0.015 0.037,-0.044 0.008,-0.026 0.012,-0.06 0.012,-0.1 0,-0.039 -0.004,-0.075 -0.011,-0.107 -0.008,-0.034 -0.019,-0.056 -0.033,-0.065zm0.17 0.011l-0.004 0.001c-0.001,0 -0.003,0.001 -0.004,0.002 -0.001,0 -0.002,0.001 -0.004,0.002l-0.002 0.001 -0.002 0.001 -0.003 0.002c-0.001,0.001 -0.002,0.002 -0.003,0.002 -0.008,0.007 -0.015,0.015 -0.022,0.025 -0.006,0.008 -0.011,0.018 -0.017,0.03 -0.004,0.008 -0.009,0.019 -0.014,0.032 0.002,-0.011 0.006,-0.022 0.011,-0.034 0.005,-0.011 0.01,-0.022 0.017,-0.031 0.007,-0.011 0.015,-0.019 0.024,-0.025 0.01,-0.008 0.021,-0.011 0.031,-0.01l-0.008 0.001zm0.127 0.101c-0.013,-0.038 -0.032,-0.069 -0.055,-0.091 -0.024,-0.023 -0.049,-0.032 -0.074,-0.029 -0.021,0.003 -0.041,0.019 -0.058,0.046 -0.017,0.026 -0.029,0.058 -0.037,0.096 -0.009,0.042 -0.01,0.082 -0.004,0.118 0.003,0.018 0.008,0.032 0.014,0.043 0.007,0.012 0.015,0.018 0.025,0.02 0.015,0.003 0.027,-0.003 0.036,-0.018 0.007,-0.011 0.013,-0.028 0.018,-0.051 0.001,-0.004 0.002,-0.009 0.003,-0.014l0.002 -0.007 0.001 -0.007c0.002,-0.012 0.004,-0.021 0.005,-0.026 0.004,-0.017 0.009,-0.026 0.014,-0.027 0.004,-0.001 0.008,0.001 0.012,0.006 0.003,0.004 0.006,0.011 0.01,0.021 0.001,0.003 0.003,0.008 0.005,0.014l0.002 0.008 0.003 0.008c0.004,0.013 0.008,0.024 0.012,0.032 0.01,0.022 0.021,0.036 0.034,0.044 0.012,0.007 0.023,0.007 0.033,0 0.007,-0.005 0.012,-0.013 0.016,-0.024 0.004,-0.012 0.006,-0.026 0.006,-0.042 0.001,-0.036 -0.006,-0.076 -0.021,-0.119zm0.181 0.106c-0.002,0.004 -0.006,0.007 -0.01,0.009 -0.004,0.002 -0.008,0.003 -0.013,0.002 0.009,-0.002 0.015,-0.006 0.019,-0.013 0.002,-0.003 0.003,-0.007 0.005,-0.012 0.001,-0.004 0.001,-0.008 0.001,-0.013 0.002,0.004 0.002,0.009 0.002,0.014 -0,0.005 -0.002,0.009 -0.004,0.013zm-0.037 -0.017c-0.002,-0.004 -0.003,-0.009 -0.002,-0.013 0.001,-0.004 0.002,-0.007 0.005,-0.009 0.003,-0.002 0.006,-0.001 0.01,0.001 0.004,0.002 0.006,0.005 0.009,0.01 0.002,0.004 0.003,0.009 0.002,0.013 -0,0.004 -0.002,0.007 -0.005,0.009 -0.003,0.002 -0.006,0.001 -0.01,-0 -0.004,-0.002 -0.006,-0.005 -0.009,-0.01zm-0.019 -0.187c-0.002,0.001 -0.005,0.003 -0.009,0.006 -0.005,0.004 -0.01,0.01 -0.014,0.016 -0.003,0.005 -0.008,0.011 -0.012,0.018 -0.002,0.003 -0.004,0.006 -0.006,0.01l-0.005 0.01c0.003,-0.008 0.006,-0.016 0.009,-0.021 0.003,-0.007 0.007,-0.014 0.012,-0.019 0.005,-0.007 0.01,-0.012 0.016,-0.016 0.007,-0.005 0.014,-0.008 0.02,-0.007 -0.003,0 -0.007,0.002 -0.01,0.004zm0.054 0.11c-0.007,-0.002 -0.012,-0.006 -0.014,-0.012 -0.002,-0.005 -0.002,-0.012 -0,-0.021 0,-0.002 0.001,-0.004 0.001,-0.006l0.001 -0.007c0.001,-0.006 0.002,-0.01 0.002,-0.014 0.002,-0.012 0.002,-0.022 0.001,-0.031 -0.001,-0.013 -0.006,-0.023 -0.013,-0.03 -0.007,-0.008 -0.016,-0.011 -0.026,-0.01 -0.011,0.001 -0.022,0.007 -0.033,0.019 -0.013,0.013 -0.024,0.031 -0.034,0.055 -0.011,0.025 -0.017,0.051 -0.02,0.08 -0.003,0.03 -0.002,0.057 0.005,0.082 0.007,0.027 0.018,0.048 0.034,0.064 0.018,0.017 0.041,0.025 0.069,0.025 0.027,-0 0.049,-0.009 0.066,-0.026 0.016,-0.016 0.025,-0.035 0.029,-0.058 0.003,-0.023 -0.001,-0.045 -0.012,-0.065 -0.012,-0.021 -0.031,-0.036 -0.055,-0.045zm0.271 -0.107c-0.002,0.001 -0.004,0.003 -0.005,0.005 -0.002,0.003 -0.004,0.008 -0.005,0.015 -0.001,0.009 -0.002,0.019 -0.002,0.032l-0 0.004 0 0.004c0,0.003 0,0.006 -0,0.009 -0.001,0.006 -0.002,0.012 -0.004,0.017 -0.002,0.005 -0.005,0.01 -0.009,0.014 -0.004,0.004 -0.008,0.007 -0.013,0.008 0.009,-0.005 0.016,-0.013 0.02,-0.023 0.002,-0.005 0.003,-0.01 0.003,-0.016 0,-0.002 0,-0.005 0,-0.008l-0 -0.004 0 -0.004c-0,-0.014 0.001,-0.025 0.003,-0.033 0.002,-0.007 0.004,-0.012 0.007,-0.015 0.002,-0.002 0.004,-0.004 0.007,-0.005 0.002,-0.001 0.004,-0.001 0.008,-0.001 -0.003,0 -0.005,0.001 -0.007,0.002zm-0.14 0.006c-0.005,0.006 -0.009,0.012 -0.011,0.021 -0.002,0.007 -0.004,0.015 -0.006,0.024l-0.003 0.012 -0.003 0.012c0,-0.017 0.003,-0.034 0.008,-0.05 0.003,-0.009 0.007,-0.016 0.013,-0.022 0.003,-0.003 0.006,-0.006 0.01,-0.007 0.004,-0.002 0.008,-0.002 0.011,-0.002 -0.007,0.001 -0.014,0.004 -0.019,0.011zm0.147 -0.025c-0.014,0.001 -0.024,0.008 -0.03,0.021 -0.006,0.013 -0.008,0.032 -0.007,0.058 0,0.012 -0.002,0.02 -0.007,0.026 -0.004,0.005 -0.01,0.007 -0.016,0.007 -0.007,-0.001 -0.012,-0.004 -0.015,-0.01 -0.003,-0.006 -0.005,-0.014 -0.004,-0.023 0.003,-0.027 0,-0.047 -0.007,-0.06 -0.007,-0.012 -0.018,-0.019 -0.033,-0.022 -0.013,-0.002 -0.024,0.001 -0.034,0.009 -0.01,0.008 -0.017,0.019 -0.021,0.034 -0.009,0.028 -0.013,0.062 -0.014,0.1 -0,0.037 0.003,0.072 0.01,0.106 0.005,0.025 0.014,0.043 0.026,0.054 0.01,0.009 0.021,0.013 0.033,0.011 0.027,-0.004 0.039,-0.025 0.036,-0.064 -0.002,-0.028 0.003,-0.042 0.016,-0.042 0.006,0 0.011,0.003 0.015,0.008 0.004,0.007 0.006,0.018 0.006,0.032 -0.001,0.025 0.002,0.044 0.011,0.057 0.008,0.012 0.019,0.018 0.034,0.018 0.025,0 0.042,-0.017 0.052,-0.05 0.007,-0.024 0.012,-0.064 0.013,-0.12 0.001,-0.043 -0.004,-0.079 -0.015,-0.108 -0.012,-0.03 -0.027,-0.044 -0.047,-0.043zm0.225 0.219c-0.003,0.004 -0.006,0.007 -0.01,0.009 -0.004,0.002 -0.008,0.003 -0.012,0.003 0.008,-0.003 0.014,-0.008 0.018,-0.015 0.004,-0.006 0.007,-0.014 0.009,-0.023 0.002,0.009 0,0.018 -0.005,0.026zm-0.043 -0.023c-0.001,-0.006 0,-0.011 0.002,-0.016 0.002,-0.005 0.006,-0.007 0.01,-0.008 0.004,-0.001 0.009,0.001 0.012,0.004 0.004,0.003 0.006,0.008 0.007,0.014 0.001,0.006 0,0.011 -0.002,0.015 -0.002,0.005 -0.006,0.007 -0.01,0.008 -0.004,0.001 -0.009,-0.001 -0.012,-0.004 -0.004,-0.003 -0.006,-0.008 -0.007,-0.014zm-0.011 -0.174c-0.011,0.005 -0.02,0.011 -0.029,0.02 -0.008,0.008 -0.015,0.017 -0.021,0.029l-0.002 0.004 -0.002 0.004 -0.004 0.008 -0.003 0.009 -0.003 0.009c0.002,-0.013 0.006,-0.024 0.012,-0.036 0.006,-0.012 0.013,-0.022 0.021,-0.031 0.009,-0.009 0.019,-0.016 0.03,-0.02 0.005,-0.002 0.011,-0.003 0.017,-0.004l0.004 -0 0.004 -0 0.009 0c-0.013,0.001 -0.024,0.004 -0.034,0.008zm0.07 -0.021c-0.043,-0.011 -0.079,-0.004 -0.107,0.023 -0.025,0.024 -0.041,0.057 -0.047,0.101 -0.006,0.042 -0.001,0.082 0.014,0.118 0.016,0.039 0.041,0.064 0.075,0.074 0.032,0.009 0.061,0 0.09,-0.027 0.026,-0.025 0.044,-0.058 0.055,-0.1 0.011,-0.043 0.011,-0.082 -0.001,-0.116 -0.013,-0.038 -0.039,-0.063 -0.077,-0.073z"/>
    </g>
   </g>
  </g>
  <path class="fil2 str0" d="M0.158 0.004l0.831 0c0,0.136 0,0.272 0,0.408 -0.001,0.035 -0.058,0.016 -0.095,-0.017 -0.264,-0.212 -0.318,0.388 -0,0.193 0.051,-0.038 0.097,-0.064 0.095,-0.017l0 0.416c-0.28,0 -0.56,0 -0.84,0 -0.15,0.002 -0.146,-0.026 -0.143,-0.183 0.004,-0.25 0,-0.417 0,-0.666 -0.004,-0.107 0.001,-0.129 0.153,-0.133z"/>
 </g>
</svg>
