<?xml version="1.0" encoding="UTF-8"?>
<!DOCTYPE svg PUBLIC "-//W3C//DTD SVG 1.1//EN" "http://www.w3.org/Graphics/SVG/1.1/DTD/svg11.dtd">
<!-- Creator: CorelDRAW 2019 (64-Bit) -->
<svg xmlns="http://www.w3.org/2000/svg" xml:space="preserve" width="1.19182cm" height="0.90544cm" version="1.1" style="shape-rendering:geometricPrecision; text-rendering:geometricPrecision; image-rendering:optimizeQuality; fill-rule:evenodd; clip-rule:evenodd"
viewBox="0 0 1.604 1.219"
 xmlns:xlink="http://www.w3.org/1999/xlink"
 xmlns:xodm="http://www.corel.com/coreldraw/odm/2003">
 <defs>
  <style type="text/css">
   <![CDATA[
    .str0 {stroke:white;stroke-width:0.01;stroke-linejoin:round;stroke-miterlimit:22.9256}
    .fil2 {fill:none}
    .fil0 {fill:#FFFF99}
    .fil1 {fill:#A39F6B;fill-rule:nonzero}
   ]]>
  </style>
   <clipPath id="id0">
    <path d="M1.599 1.214l0 -0.511c0.002,-0.058 -0.054,-0.026 -0.117,0.02 -0.391,0.239 -0.324,-0.498 0,-0.238 0.045,0.041 0.115,0.065 0.116,0.021 0,-0.167 0,-0.334 0,-0.502l-1.209 0 0 0.508c-0.001,0.043 -0.071,0.02 -0.116,-0.021 -0.324,-0.26 -0.391,0.477 -0,0.238 0.063,-0.047 0.119,-0.078 0.117,-0.023l0 0.508 1.209 0z"/>
   </clipPath>
 </defs>
 <g id="Слой_x0020_1">
  <metadata id="CorelCorpID_0Corel-Layer"/>
  <path class="fil0" d="M1.599 1.214l0 -0.511c0.002,-0.058 -0.054,-0.026 -0.117,0.02 -0.391,0.239 -0.324,-0.498 0,-0.238 0.045,0.041 0.115,0.065 0.116,0.021 0,-0.167 0,-0.334 0,-0.502l-1.209 0 0 0.508c-0.001,0.043 -0.071,0.02 -0.116,-0.021 -0.324,-0.26 -0.391,0.477 -0,0.238 0.063,-0.047 0.119,-0.078 0.117,-0.023l0 0.508 1.209 0z"/>
  <g style="clip-path:url(#id0)">
   <g id="_1964476258304">
    <g>
     <path id="1" class="fil1" d="M0.091 0.099c-0.005,0.003 -0.009,0.008 -0.014,0.015 -0.007,0.009 -0.015,0.02 -0.024,0.035l-0.006 0.009 -0.006 0.009c-0.005,0.007 -0.009,0.012 -0.014,0.017 -0.005,0.005 -0.011,0.01 -0.017,0.013 -0.007,0.003 -0.014,0.005 -0.02,0.004 0.012,-0.001 0.024,-0.008 0.034,-0.02 0.004,-0.005 0.008,-0.01 0.013,-0.017l0.006 -0.009 0.006 -0.009c0.01,-0.015 0.018,-0.027 0.026,-0.035 0.006,-0.006 0.011,-0.011 0.016,-0.014 0.007,-0.004 0.013,-0.006 0.02,-0.005 -0.007,0.001 -0.013,0.003 -0.019,0.008zm-0.241 0.029c-0.007,0.01 -0.014,0.022 -0.021,0.037 -0.004,0.009 -0.01,0.022 -0.016,0.04 -0.002,0.007 -0.005,0.014 -0.007,0.021l-0.004 0.01 -0.004 0.01c0.005,-0.031 0.014,-0.059 0.025,-0.084 0.007,-0.016 0.015,-0.028 0.023,-0.037 0.005,-0.005 0.01,-0.01 0.016,-0.014 0.006,-0.004 0.013,-0.006 0.02,-0.005 -0.011,0.001 -0.022,0.009 -0.033,0.022zm0.364 0.16c-0.002,-0.065 -0.013,-0.118 -0.032,-0.159 -0.018,-0.039 -0.039,-0.06 -0.063,-0.063 -0.018,-0.003 -0.035,0.003 -0.049,0.016 -0.011,0.01 -0.026,0.03 -0.044,0.058 -0.015,0.025 -0.029,0.036 -0.04,0.034 -0.007,-0.001 -0.016,-0.011 -0.027,-0.03 -0.013,-0.021 -0.025,-0.037 -0.036,-0.047 -0.015,-0.013 -0.03,-0.019 -0.045,-0.017 -0.042,0.004 -0.075,0.057 -0.1,0.159 -0.016,0.065 -0.023,0.124 -0.02,0.175 0.004,0.059 0.02,0.092 0.049,0.098 0.017,0.004 0.032,-0.001 0.045,-0.014 0.01,-0.01 0.019,-0.026 0.028,-0.048 0.003,-0.007 0.006,-0.016 0.01,-0.028l0.002 -0.007 0.002 -0.007c0.002,-0.005 0.003,-0.009 0.004,-0.012 0.006,-0.017 0.012,-0.027 0.017,-0.029 0.004,-0.002 0.007,0.002 0.011,0.01 0.001,0.003 0.003,0.007 0.005,0.013l0.001 0.004 0.002 0.004 0.003 0.008c0.005,0.013 0.011,0.023 0.016,0.03 0.008,0.009 0.018,0.014 0.029,0.015 0.009,0 0.017,-0.003 0.024,-0.011 0.005,-0.005 0.011,-0.013 0.018,-0.024l0.004 -0.006 0.004 -0.006c0.003,-0.004 0.005,-0.008 0.007,-0.01 0.005,-0.006 0.01,-0.008 0.015,-0.006 0.005,0.002 0.01,0.011 0.015,0.026 0.001,0.003 0.002,0.007 0.003,0.011l0.002 0.006 0.002 0.006c0.003,0.01 0.006,0.019 0.008,0.025 0.007,0.02 0.015,0.035 0.024,0.046 0.011,0.014 0.025,0.021 0.04,0.021 0.027,0.001 0.046,-0.022 0.057,-0.068 0.01,-0.041 0.013,-0.099 0.011,-0.174zm0.234 0.097c-0.004,0.006 -0.009,0.01 -0.014,0.013 -0.006,0.003 -0.011,0.005 -0.017,0.005 0.011,-0.005 0.02,-0.012 0.027,-0.021 0.006,-0.009 0.01,-0.02 0.012,-0.034 0.003,0.013 0,0.026 -0.007,0.037zm-0.062 -0.033c-0.001,-0.008 0,-0.016 0.004,-0.022 0.004,-0.007 0.009,-0.01 0.015,-0.012 0.006,-0.001 0.012,0.001 0.018,0.006 0.005,0.005 0.009,0.012 0.01,0.02 0.001,0.008 0,0.016 -0.004,0.022 -0.004,0.007 -0.009,0.011 -0.015,0.012 -0.006,0.001 -0.012,-0.001 -0.018,-0.006 -0.005,-0.005 -0.009,-0.012 -0.01,-0.02zm-0.016 -0.249c-0.015,0.007 -0.029,0.016 -0.041,0.028 -0.011,0.011 -0.021,0.025 -0.03,0.042l-0.003 0.006 -0.003 0.006 -0.005 0.012 -0.005 0.013 -0.004 0.013c0.003,-0.018 0.009,-0.035 0.017,-0.051 0.008,-0.017 0.018,-0.031 0.03,-0.044 0.013,-0.013 0.028,-0.023 0.043,-0.029 0.008,-0.003 0.016,-0.005 0.024,-0.006l0.006 -0.001 0.006 -0 0.013 0c-0.018,0.002 -0.034,0.005 -0.048,0.012zm0.1 -0.03c-0.062,-0.016 -0.113,-0.006 -0.154,0.033 -0.036,0.034 -0.059,0.082 -0.068,0.145 -0.009,0.061 -0.002,0.117 0.02,0.169 0.023,0.056 0.059,0.091 0.107,0.106 0.045,0.013 0.088,0.001 0.128,-0.038 0.037,-0.035 0.063,-0.083 0.078,-0.143 0.016,-0.062 0.016,-0.117 -0.001,-0.166 -0.019,-0.055 -0.056,-0.09 -0.111,-0.105zm0.302 0.02l-0.006 0.002c-0.002,0.001 -0.004,0.001 -0.005,0.002 -0.001,0 -0.003,0.001 -0.005,0.002l-0.003 0.002 -0.003 0.001 -0.005 0.004c-0.002,0.001 -0.003,0.003 -0.004,0.004 -0.011,0.01 -0.022,0.022 -0.032,0.036 -0.008,0.012 -0.016,0.026 -0.024,0.043 -0.006,0.012 -0.012,0.027 -0.019,0.046 0.004,-0.016 0.009,-0.032 0.015,-0.048 0.007,-0.016 0.015,-0.031 0.024,-0.045 0.011,-0.016 0.022,-0.028 0.034,-0.036 0.014,-0.011 0.03,-0.016 0.045,-0.014l-0.012 0.002zm0.183 0.145c-0.019,-0.055 -0.046,-0.099 -0.079,-0.13 -0.035,-0.032 -0.07,-0.046 -0.106,-0.041 -0.03,0.005 -0.058,0.027 -0.084,0.067 -0.024,0.038 -0.042,0.083 -0.053,0.137 -0.012,0.061 -0.014,0.117 -0.005,0.169 0.004,0.025 0.011,0.046 0.02,0.062 0.01,0.017 0.021,0.026 0.035,0.029 0.021,0.004 0.039,-0.005 0.052,-0.025 0.01,-0.016 0.019,-0.04 0.026,-0.073 0.001,-0.006 0.003,-0.013 0.004,-0.021l0.002 -0.01 0.002 -0.01c0.003,-0.017 0.006,-0.029 0.007,-0.037 0.006,-0.025 0.012,-0.038 0.02,-0.039 0.006,-0.001 0.012,0.002 0.017,0.009 0.004,0.006 0.009,0.016 0.014,0.03 0.002,0.005 0.004,0.012 0.007,0.02l0.004 0.011 0.004 0.011c0.006,0.019 0.012,0.034 0.017,0.046 0.014,0.031 0.03,0.052 0.048,0.063 0.017,0.01 0.033,0.01 0.047,0 0.009,-0.007 0.017,-0.018 0.022,-0.035 0.005,-0.017 0.008,-0.037 0.009,-0.06 0.001,-0.052 -0.009,-0.109 -0.03,-0.171zm0.264 0.147c-0.004,0.006 -0.009,0.01 -0.014,0.013 -0.006,0.003 -0.011,0.005 -0.017,0.005 0.011,-0.005 0.02,-0.012 0.026,-0.021 0.006,-0.009 0.01,-0.02 0.012,-0.034 0.003,0.013 0,0.026 -0.007,0.037zm-0.062 -0.033c-0.001,-0.008 0,-0.016 0.004,-0.022 0.004,-0.007 0.009,-0.01 0.015,-0.012 0.006,-0.001 0.012,0.001 0.018,0.006 0.005,0.005 0.009,0.012 0.01,0.02 0.001,0.008 0,0.016 -0.004,0.022 -0.004,0.007 -0.009,0.011 -0.015,0.012 -0.006,0.001 -0.012,-0.001 -0.018,-0.006 -0.005,-0.005 -0.009,-0.012 -0.01,-0.02zm-0.016 -0.249c-0.015,0.007 -0.029,0.016 -0.041,0.028 -0.011,0.011 -0.021,0.025 -0.03,0.042l-0.003 0.006 -0.003 0.006 -0.005 0.012 -0.005 0.013 -0.004 0.013c0.003,-0.018 0.009,-0.035 0.017,-0.051 0.008,-0.017 0.018,-0.031 0.03,-0.044 0.013,-0.013 0.028,-0.023 0.043,-0.029 0.008,-0.003 0.016,-0.005 0.024,-0.006l0.006 -0.001 0.006 -0 0.013 0c-0.018,0.002 -0.034,0.005 -0.048,0.012zm0.1 -0.03c-0.062,-0.016 -0.113,-0.006 -0.154,0.033 -0.036,0.034 -0.059,0.082 -0.068,0.145 -0.009,0.061 -0.002,0.117 0.02,0.169 0.023,0.056 0.059,0.091 0.107,0.105 0.045,0.013 0.088,0.001 0.128,-0.038 0.037,-0.035 0.063,-0.083 0.078,-0.143 0.016,-0.062 0.016,-0.117 -0.001,-0.166 -0.019,-0.055 -0.056,-0.09 -0.111,-0.105zm0.442 0.296c-0.002,0.008 -0.005,0.014 -0.011,0.018 -0.005,0.004 -0.011,0.007 -0.018,0.009 -0.007,0.001 -0.013,0.001 -0.019,0 0.008,-0.002 0.014,-0.003 0.018,-0.005 0.007,-0.002 0.012,-0.005 0.016,-0.009 0.004,-0.004 0.008,-0.009 0.01,-0.015 0.002,-0.005 0.003,-0.011 0.004,-0.02 0.002,0.007 0.002,0.014 0,0.021zm-0.076 -0.008c-0.004,-0.008 -0.003,-0.02 0.004,-0.037 0.007,-0.017 0.014,-0.026 0.022,-0.026 0.01,0 0.017,0.009 0.023,0.028 0.002,0.007 0.004,0.015 0.004,0.021 0,0.007 -0,0.013 -0.002,0.016 -0.003,0.005 -0.011,0.008 -0.025,0.008 -0.013,-0 -0.022,-0.004 -0.026,-0.01zm-0.04 -0.21c-0.008,0.013 -0.016,0.028 -0.023,0.044 -0.006,0.013 -0.012,0.028 -0.018,0.047 0.003,-0.016 0.008,-0.032 0.014,-0.049 0.006,-0.015 0.013,-0.03 0.023,-0.045 0.01,-0.016 0.021,-0.029 0.032,-0.038 0.006,-0.005 0.013,-0.01 0.021,-0.013 0.008,-0.003 0.016,-0.005 0.023,-0.005 -0.014,0.002 -0.027,0.009 -0.041,0.022 -0.01,0.01 -0.02,0.023 -0.03,0.038zm-0.132 0.254c-0.005,0.003 -0.009,0.005 -0.012,0.008 -0.004,0.003 -0.006,0.007 -0.007,0.012 -0.001,-0.006 0.001,-0.011 0.004,-0.016 0.003,-0.004 0.007,-0.007 0.012,-0.01 0.009,-0.005 0.019,-0.008 0.029,-0.007l-0.007 0.003 -0.007 0.003c-0.005,0.002 -0.01,0.005 -0.013,0.006zm0.363 -0.038c-0.008,-0.002 -0.014,-0.006 -0.017,-0.01 -0.003,-0.004 -0.006,-0.01 -0.007,-0.019 -0.001,-0.005 -0.002,-0.014 -0.003,-0.03 -0,-0.008 -0.001,-0.014 -0.002,-0.02 -0.001,-0.008 -0.001,-0.016 -0.003,-0.024 -0.009,-0.064 -0.025,-0.114 -0.049,-0.149 -0.022,-0.032 -0.049,-0.049 -0.08,-0.05 -0.026,-0.001 -0.052,0.015 -0.077,0.046 -0.025,0.032 -0.045,0.072 -0.059,0.122 -0.005,0.02 -0.01,0.04 -0.013,0.061 -0.001,0.003 -0.001,0.007 -0.002,0.011l-0.001 0.005 -0.001 0.005c-0.001,0.008 -0.002,0.014 -0.002,0.017 -0.002,0.011 -0.005,0.018 -0.008,0.023 -0.004,0.005 -0.01,0.009 -0.02,0.011 -0.026,0.006 -0.044,0.016 -0.054,0.031 -0.009,0.013 -0.012,0.029 -0.007,0.047 0.007,0.026 0.034,0.047 0.081,0.062 0.042,0.013 0.095,0.021 0.158,0.023 0.058,0.002 0.102,-0 0.133,-0.006 0.046,-0.008 0.075,-0.024 0.088,-0.05 0.012,-0.023 0.013,-0.045 0.002,-0.066 -0.011,-0.02 -0.03,-0.034 -0.058,-0.042zm0.297 0.03l-0.004 0.002c-0.004,0.001 -0.007,0.002 -0.009,0.003 -0.007,0.002 -0.013,0.002 -0.019,0.001 0.006,-0.001 0.012,-0.003 0.018,-0.005l0.004 -0.002 0.004 -0.002c0.004,-0.002 0.007,-0.003 0.009,-0.004 0.007,-0.002 0.013,-0.004 0.019,-0.005 0.007,-0.001 0.013,-0.001 0.019,0 -0.01,0.002 -0.022,0.006 -0.036,0.01l-0.004 0.002zm-0.086 -0.302c-0.009,0.003 -0.017,0.006 -0.025,0.011 -0.009,0.005 -0.016,0.011 -0.022,0.017 -0.006,0.006 -0.011,0.014 -0.016,0.023 -0.007,0.014 -0.013,0.032 -0.019,0.055 -0.002,0.009 -0.004,0.019 -0.006,0.029 -0.001,0.004 -0.002,0.009 -0.002,0.015l-0.002 0.015c0,-0.021 0.002,-0.041 0.006,-0.059 0.004,-0.022 0.01,-0.041 0.018,-0.057 0.005,-0.01 0.011,-0.018 0.017,-0.025 0.007,-0.007 0.015,-0.013 0.023,-0.017 0.008,-0.004 0.017,-0.007 0.026,-0.009 0.01,-0.002 0.019,-0.003 0.027,-0.002 -0.01,0.001 -0.019,0.003 -0.027,0.005zm0.057 0.172l0.002 -0.001c0.002,-0.001 0.004,-0.001 0.005,-0.001 0.004,-0.001 0.007,-0 0.01,0 0.004,0.001 0.007,0.003 0.009,0.006 -0.002,-0.001 -0.006,-0.001 -0.009,-0.001 -0.003,0 -0.006,0.001 -0.009,0.001l-0.002 0 -0.002 0c-0.002,0 -0.004,0.001 -0.005,0.001 -0.004,0 -0.007,-0 -0.01,-0.001l0.005 -0.002 0.004 -0.002 0.002 -0.001zm0.013 0.105c-0.01,0.004 -0.019,0.005 -0.026,0.002 -0.006,-0.002 -0.01,-0.007 -0.012,-0.014 -0.002,-0.006 -0.001,-0.012 0.002,-0.018 0.003,-0.006 0.009,-0.009 0.016,-0.01 0.021,-0.002 0.037,-0.008 0.047,-0.018 0.009,-0.009 0.014,-0.021 0.013,-0.036 -0.001,-0.013 -0.007,-0.023 -0.018,-0.03 -0.011,-0.007 -0.025,-0.008 -0.04,-0.004 -0.013,0.004 -0.022,-0 -0.025,-0.011 -0.001,-0.005 -0.002,-0.01 -0,-0.015 0.001,-0.005 0.004,-0.009 0.008,-0.012 0.006,-0.005 0.014,-0.008 0.026,-0.009 0.004,-0.001 0.009,-0.001 0.016,-0.002l0.008 -0 0.008 -0.001c0.013,-0.001 0.023,-0.003 0.031,-0.007 0.01,-0.005 0.017,-0.012 0.021,-0.022 0.007,-0.017 0.004,-0.034 -0.009,-0.052 -0.012,-0.017 -0.03,-0.03 -0.053,-0.039 -0.025,-0.01 -0.05,-0.013 -0.075,-0.01 -0.028,0.004 -0.053,0.016 -0.072,0.036 -0.019,0.019 -0.032,0.049 -0.041,0.09 -0.008,0.038 -0.012,0.079 -0.01,0.124 0.002,0.045 0.008,0.085 0.019,0.12 0.012,0.038 0.027,0.063 0.046,0.076 0.018,0.013 0.041,0.019 0.068,0.018 0.024,-0.001 0.049,-0.007 0.074,-0.019 0.024,-0.011 0.045,-0.026 0.06,-0.043 0.017,-0.019 0.025,-0.037 0.025,-0.056 0,-0.025 -0.009,-0.041 -0.027,-0.049 -0.019,-0.008 -0.046,-0.005 -0.079,0.009zm0.408 -0.254c-0.004,0.005 -0.007,0.012 -0.01,0.019 -0.002,0.005 -0.004,0.012 -0.007,0.021l-0.006 0.022c-0,-0.007 0,-0.015 0.002,-0.023 0.001,-0.008 0.003,-0.016 0.006,-0.023 0.003,-0.009 0.007,-0.015 0.012,-0.02 0.006,-0.007 0.013,-0.01 0.02,-0.008 -0.006,0.001 -0.012,0.005 -0.017,0.011zm-0.071 0.227c-0.004,0.003 -0.009,0.006 -0.014,0.007 -0.005,0.001 -0.01,0.001 -0.015,0 0.005,-0.002 0.01,-0.003 0.013,-0.005 0.004,-0.002 0.008,-0.005 0.012,-0.008 0.003,-0.002 0.007,-0.006 0.01,-0.01l0.005 -0.005 0.005 -0.006c-0.003,0.011 -0.008,0.019 -0.017,0.026zm-0.111 -0.248c-0.005,0.004 -0.009,0.008 -0.012,0.011 -0.006,0.008 -0.012,0.017 -0.018,0.029 -0.004,0.008 -0.008,0.018 -0.013,0.031l-0.006 0.017 -0.006 0.017c0.003,-0.024 0.01,-0.047 0.02,-0.067 0.006,-0.012 0.012,-0.022 0.019,-0.029 0.003,-0.004 0.008,-0.007 0.014,-0.011 0.006,-0.003 0.011,-0.004 0.016,-0.004 -0.005,0.001 -0.01,0.003 -0.015,0.007zm0.264 0.318c-0.012,-0.004 -0.017,-0.015 -0.016,-0.034 0,-0.006 0.001,-0.016 0.003,-0.027l0.002 -0.015c0.001,-0.006 0.002,-0.011 0.002,-0.015 0.008,-0.073 0.011,-0.124 0.009,-0.154 -0.004,-0.047 -0.02,-0.075 -0.048,-0.085 -0.02,-0.007 -0.038,-0.003 -0.052,0.014 -0.014,0.017 -0.023,0.043 -0.027,0.08 -0.01,0.099 -0.028,0.149 -0.054,0.149 -0.029,0 -0.032,-0.041 -0.01,-0.122 0.011,-0.042 0.011,-0.076 -0.001,-0.103 -0.011,-0.026 -0.031,-0.038 -0.058,-0.037 -0.028,0.001 -0.051,0.023 -0.07,0.067 -0.018,0.042 -0.029,0.094 -0.033,0.156 -0.004,0.062 0.002,0.112 0.016,0.15 0.011,0.029 0.029,0.052 0.053,0.068 0.02,0.014 0.044,0.022 0.073,0.023 0.011,0 0.025,0 0.042,-0.001l0.011 -0.001 0.012 -0.001c0.01,-0.001 0.019,-0.001 0.025,-0.002 0.01,-0.001 0.018,0.001 0.024,0.006 0.004,0.003 0.009,0.009 0.014,0.018l0.003 0.005 0.004 0.005c0.003,0.004 0.005,0.008 0.008,0.01 0.007,0.007 0.016,0.013 0.027,0.016 0.018,0.005 0.035,0 0.05,-0.015 0.014,-0.013 0.023,-0.032 0.029,-0.055 0.006,-0.023 0.006,-0.044 0.001,-0.063 -0.006,-0.021 -0.018,-0.034 -0.036,-0.04zm0.104 0.026c-0.005,0.005 -0.009,0.013 -0.012,0.022 -0.001,-0.01 0.002,-0.018 0.008,-0.026 0.003,-0.004 0.007,-0.006 0.011,-0.008 0.005,-0.002 0.009,-0.002 0.013,-0.001 -0.008,0.002 -0.014,0.006 -0.02,0.013zm0.02 -0.035c-0.013,0 -0.024,0.006 -0.034,0.016 -0.01,0.01 -0.016,0.023 -0.018,0.038 -0.001,0.01 -0,0.02 0.003,0.03 0.003,0.01 0.008,0.018 0.014,0.025 0.005,0.005 0.006,0.014 0.004,0.026l-0.001 0.003 -0.001 0.003c-0,0.002 -0.001,0.004 -0.001,0.006 -0,0.004 0,0.007 0.002,0.009 0.004,0.005 0.011,0.006 0.019,0.004 0.008,-0.003 0.016,-0.008 0.025,-0.017 0.021,-0.021 0.033,-0.046 0.036,-0.075 0.002,-0.019 -0.002,-0.035 -0.012,-0.049 -0.01,-0.013 -0.022,-0.02 -0.038,-0.02zm-2.671 0.61c-0.003,0.006 -0.007,0.011 -0.013,0.014 -0.005,0.003 -0.011,0.004 -0.017,0.003 0.006,-0.001 0.011,-0.003 0.015,-0.007 0.004,-0.004 0.008,-0.008 0.01,-0.013 0.004,-0.01 0.005,-0.021 0.003,-0.035 0.003,0.005 0.005,0.011 0.005,0.018 0,0.007 -0.001,0.013 -0.003,0.019zm-0.047 -0.017c-0.003,-0.005 -0.004,-0.011 -0.003,-0.016 0.001,-0.005 0.003,-0.009 0.006,-0.011 0.004,-0.002 0.008,-0.002 0.012,0 0.005,0.002 0.008,0.006 0.011,0.011 0.003,0.005 0.004,0.011 0.003,0.016 -0.001,0.005 -0.003,0.009 -0.006,0.011 -0.004,0.002 -0.008,0.002 -0.012,-0 -0.005,-0.002 -0.008,-0.006 -0.011,-0.011zm-0.022 -0.116c0.004,-0.001 0.008,-0.003 0.011,-0.005 0.004,-0.002 0.007,-0.005 0.009,-0.008 0.003,-0.003 0.005,-0.006 0.007,-0.01 0.002,-0.004 0.004,-0.008 0.005,-0.012 0.001,0.009 -0.002,0.018 -0.009,0.026 -0.003,0.004 -0.007,0.006 -0.011,0.008 -0.004,0.002 -0.009,0.002 -0.013,0.001zm-0.005 -0.04c0.002,-0.004 0.004,-0.006 0.007,-0.008 0.003,-0.002 0.006,-0.002 0.008,0 0.002,0.001 0.003,0.004 0.004,0.008 0,0.004 -0,0.007 -0.002,0.011 -0.002,0.004 -0.004,0.006 -0.007,0.008 -0.003,0.002 -0.005,0.002 -0.008,0 -0.002,-0.001 -0.003,-0.004 -0.004,-0.007 -0,-0.004 0,-0.007 0.002,-0.011zm-0.043 -0.05c-0.004,0.004 -0.008,0.01 -0.013,0.017 -0.006,0.011 -0.012,0.023 -0.018,0.039 -0.004,0.012 -0.008,0.026 -0.012,0.042 0.001,-0.014 0.004,-0.029 0.008,-0.043 0.004,-0.015 0.01,-0.028 0.018,-0.04 0.009,-0.014 0.018,-0.024 0.029,-0.031 0.007,-0.004 0.013,-0.007 0.019,-0.009 0.007,-0.002 0.014,-0.002 0.02,-0.002 -0.014,0.001 -0.026,0.006 -0.037,0.014 -0.006,0.004 -0.011,0.009 -0.015,0.014zm0.11 0.106c-0.003,-0.001 -0.003,-0.004 -0.002,-0.009 0.001,-0.002 0.002,-0.004 0.004,-0.008l0.001 -0.002 0.001 -0.002c0.001,-0.002 0.002,-0.004 0.003,-0.006 0.005,-0.01 0.008,-0.02 0.01,-0.029 0.003,-0.013 0.003,-0.027 0.001,-0.041 -0.002,-0.016 -0.011,-0.029 -0.025,-0.04 -0.014,-0.011 -0.03,-0.017 -0.048,-0.017 -0.02,-0.001 -0.038,0.006 -0.056,0.018 -0.019,0.015 -0.035,0.037 -0.046,0.068 -0.012,0.031 -0.018,0.065 -0.019,0.102 -0.001,0.038 0.004,0.072 0.014,0.104 0.011,0.034 0.028,0.061 0.05,0.079 0.025,0.02 0.054,0.029 0.089,0.027 0.033,-0.002 0.059,-0.014 0.079,-0.035 0.018,-0.019 0.028,-0.043 0.029,-0.071 0.002,-0.028 -0.005,-0.054 -0.019,-0.079 -0.016,-0.027 -0.038,-0.046 -0.067,-0.059zm0.328 0.087c-0.002,0.001 -0.003,0.002 -0.005,0.004l-0.003 0.002 -0.003 0.002c-0.005,0.003 -0.009,0.006 -0.013,0.007 -0.005,0.001 -0.01,0.002 -0.014,0.001 0.009,-0.002 0.017,-0.006 0.025,-0.011l0.003 -0.002 0.003 -0.002c0.003,-0.002 0.005,-0.003 0.007,-0.004 0.005,-0.002 0.01,-0.003 0.014,-0.002 -0.004,0.001 -0.008,0.003 -0.013,0.006zm-0.148 -0.185c-0.009,0.01 -0.017,0.022 -0.024,0.035 -0.006,0.011 -0.011,0.025 -0.016,0.041 0.003,-0.015 0.007,-0.029 0.013,-0.043 0.006,-0.014 0.014,-0.026 0.024,-0.037 0.01,-0.011 0.022,-0.02 0.034,-0.026 0.007,-0.003 0.014,-0.005 0.02,-0.006 0.007,-0.001 0.014,-0.001 0.021,-0.001 -0.015,0.001 -0.028,0.005 -0.039,0.01 -0.012,0.006 -0.023,0.015 -0.032,0.026zm0.203 0.214c-0.002,-0.029 -0.012,-0.047 -0.029,-0.054 -0.007,-0.003 -0.015,-0.004 -0.024,-0.002 -0.008,0.002 -0.016,0.006 -0.024,0.013 -0.007,0.006 -0.015,0.009 -0.023,0.008 -0.007,-0.001 -0.014,-0.005 -0.021,-0.011 -0.006,-0.007 -0.011,-0.016 -0.014,-0.027 -0.003,-0.012 -0.004,-0.025 -0.002,-0.039 0.003,-0.02 0.012,-0.032 0.027,-0.034 0.011,-0.002 0.027,0.001 0.046,0.009 0.009,0.003 0.017,0.003 0.024,-0.001 0.007,-0.003 0.012,-0.009 0.016,-0.018 0.004,-0.009 0.005,-0.018 0.003,-0.029 -0.002,-0.011 -0.006,-0.023 -0.013,-0.033 -0.015,-0.023 -0.036,-0.038 -0.061,-0.046 -0.023,-0.008 -0.046,-0.009 -0.07,-0.002 -0.03,0.008 -0.055,0.029 -0.075,0.063 -0.022,0.037 -0.033,0.083 -0.033,0.139 -0,0.062 0.015,0.111 0.045,0.147 0.014,0.017 0.03,0.029 0.049,0.037 0.019,0.008 0.039,0.011 0.061,0.009 0.037,-0.003 0.067,-0.018 0.089,-0.043 0.021,-0.024 0.03,-0.052 0.028,-0.083zm0.2 0.012l-0.004 0.001c-0.003,0.001 -0.006,0.002 -0.008,0.002 -0.006,0.001 -0.011,0.002 -0.016,0.001 0.005,-0.001 0.01,-0.003 0.015,-0.005l0.004 -0.001 0.004 -0.002c0.003,-0.001 0.006,-0.002 0.008,-0.003 0.006,-0.002 0.011,-0.003 0.016,-0.004 0.006,-0.001 0.012,-0.001 0.016,0 -0.009,0.002 -0.019,0.005 -0.031,0.009l-0.004 0.001zm-0.074 -0.258c-0.008,0.002 -0.015,0.005 -0.021,0.009 -0.007,0.005 -0.014,0.01 -0.018,0.015 -0.005,0.005 -0.01,0.012 -0.014,0.02 -0.006,0.012 -0.011,0.028 -0.016,0.047 -0.002,0.008 -0.004,0.016 -0.005,0.025 -0.001,0.003 -0.001,0.008 -0.002,0.013l-0.002 0.013c0,-0.018 0.002,-0.035 0.005,-0.051 0.004,-0.019 0.009,-0.035 0.016,-0.049 0.004,-0.009 0.009,-0.015 0.014,-0.021 0.006,-0.006 0.013,-0.011 0.02,-0.015 0.007,-0.004 0.014,-0.006 0.023,-0.008 0.008,-0.002 0.016,-0.002 0.024,-0.002 -0.009,0.001 -0.017,0.002 -0.023,0.004zm0.049 0.148l0.002 -0.001c0.001,-0 0.003,-0.001 0.004,-0.001 0.003,-0 0.006,-0 0.009,0.001 0.003,0.001 0.006,0.003 0.007,0.005 -0.002,-0.001 -0.005,-0.001 -0.008,-0.001 -0.003,0 -0.005,0 -0.008,0.001l-0.002 0 -0.002 0c-0.002,0 -0.003,0.001 -0.004,0.001 -0.003,0 -0.006,-0 -0.009,-0.001l0.004 -0.002 0.004 -0.001 0.002 -0.001zm0.012 0.09c-0.009,0.004 -0.017,0.004 -0.023,0.002 -0.005,-0.002 -0.009,-0.006 -0.01,-0.012 -0.001,-0.006 -0.001,-0.011 0.002,-0.015 0.003,-0.005 0.008,-0.008 0.014,-0.009 0.018,-0.002 0.032,-0.007 0.04,-0.016 0.008,-0.008 0.012,-0.018 0.011,-0.031 -0.001,-0.011 -0.005,-0.02 -0.015,-0.025 -0.01,-0.006 -0.021,-0.007 -0.034,-0.003 -0.011,0.003 -0.019,-0 -0.022,-0.01 -0.001,-0.004 -0.001,-0.008 -0,-0.012 0.001,-0.004 0.003,-0.008 0.007,-0.011 0.005,-0.004 0.012,-0.007 0.022,-0.008 0.003,-0 0.008,-0.001 0.014,-0.001l0.007 -0 0.007 -0c0.011,-0.001 0.02,-0.003 0.026,-0.006 0.009,-0.004 0.015,-0.01 0.018,-0.018 0.006,-0.015 0.003,-0.03 -0.007,-0.045 -0.01,-0.014 -0.026,-0.026 -0.046,-0.034 -0.021,-0.008 -0.042,-0.011 -0.064,-0.008 -0.024,0.003 -0.045,0.013 -0.062,0.031 -0.016,0.016 -0.028,0.042 -0.035,0.077 -0.007,0.032 -0.01,0.068 -0.009,0.107 0.002,0.039 0.007,0.073 0.016,0.103 0.01,0.032 0.023,0.054 0.039,0.065 0.016,0.011 0.035,0.016 0.058,0.016 0.021,-0.001 0.042,-0.006 0.064,-0.016 0.021,-0.01 0.038,-0.022 0.051,-0.037 0.014,-0.016 0.021,-0.032 0.021,-0.048 0,-0.021 -0.008,-0.035 -0.023,-0.042 -0.016,-0.007 -0.039,-0.004 -0.068,0.008zm-0.067 -0.309c0.001,-0.001 0.001,-0.001 0.002,-0.001 0.001,-0 0.001,-0 0.002,-0 -0,0.001 -0,0.001 -0,0.002l0 0.001 0 0.001 0 0.001 0 0.001c-0,0.002 -0.001,0.004 -0.002,0.006 -0.002,-0.001 -0.003,-0.003 -0.003,-0.006 0,-0.001 0.001,-0.003 0.001,-0.004zm0.013 0.04c0.007,-0.001 0.013,-0.006 0.016,-0.014 0.004,-0.008 0.004,-0.016 0.002,-0.026 -0.003,-0.009 -0.008,-0.016 -0.015,-0.021 -0.007,-0.004 -0.014,-0.004 -0.021,-0.001 -0.006,0.003 -0.01,0.008 -0.012,0.016 -0.002,0.007 -0.002,0.014 -0,0.022 0.002,0.008 0.006,0.014 0.012,0.018 0.006,0.004 0.012,0.006 0.018,0.005zm0.058 -0.055c0.002,-0.002 0.003,-0.003 0.005,-0.004 0.002,-0.001 0.004,-0.001 0.006,0 -0.002,0.001 -0.003,0.002 -0.004,0.003 -0.001,0.002 -0.002,0.003 -0.003,0.004 -0.001,0.001 -0.002,0.003 -0.003,0.004l-0.002 0.002 -0.002 0.003c-0.001,-0.004 -0.001,-0.009 0.003,-0.013zm0.002 0.054c0.01,0.003 0.019,0.001 0.027,-0.006 0.008,-0.007 0.013,-0.016 0.015,-0.028 0.002,-0.012 -0.001,-0.023 -0.007,-0.032 -0.006,-0.009 -0.015,-0.013 -0.025,-0.013 -0.008,0 -0.016,0.004 -0.022,0.011 -0.006,0.007 -0.01,0.015 -0.012,0.025 -0.001,0.01 0.001,0.019 0.005,0.027 0.005,0.008 0.011,0.014 0.019,0.016z"/>
     <path class="fil1" d="M0.896 0.781c-0.001,0.001 -0.003,0.002 -0.005,0.003l-0.005 0.003 -0.005 0.003c-0.002,0.001 -0.004,0.002 -0.005,0.004 -0.006,0.004 -0.012,0.009 -0.018,0.016 -0.007,0.008 -0.012,0.014 -0.015,0.019 -0.008,0.013 -0.014,0.028 -0.016,0.046 -0.001,0.004 -0.001,0.008 -0.001,0.013l-0.001 0.013c-0,0.004 -0.001,0.008 -0.001,0.013l-0 0.013c-0.002,-0.018 -0.002,-0.035 -0,-0.051 0.002,-0.018 0.007,-0.034 0.016,-0.049l0.004 -0.005 0.004 -0.005c0.001,-0.001 0.002,-0.003 0.004,-0.005l0.002 -0.002 0.002 -0.002c0.008,-0.007 0.014,-0.012 0.019,-0.015 0.013,-0.009 0.028,-0.015 0.044,-0.017l-0.006 0.002 -0.006 0.002c-0.004,0.002 -0.008,0.003 -0.011,0.005zm0.18 0.052c-0.014,-0.033 -0.036,-0.058 -0.066,-0.072 -0.027,-0.014 -0.057,-0.017 -0.088,-0.012 -0.031,0.006 -0.057,0.019 -0.079,0.041 -0.023,0.023 -0.036,0.052 -0.039,0.086 -0.006,0.063 0.003,0.124 0.027,0.185 0.01,0.027 0.022,0.048 0.035,0.063 0.014,0.016 0.028,0.023 0.041,0.021 0.019,-0.003 0.03,-0.015 0.035,-0.036 0.005,-0.024 0.002,-0.066 -0.009,-0.126 -0.008,-0.047 -0.003,-0.072 0.015,-0.075 0.01,-0.001 0.018,0.007 0.024,0.025 0.005,0.017 0.007,0.038 0.007,0.063 -0.002,0.056 0.004,0.096 0.017,0.119 0.01,0.017 0.024,0.025 0.043,0.023 0.016,-0.001 0.03,-0.012 0.041,-0.034 0.01,-0.02 0.017,-0.046 0.021,-0.078 0.004,-0.032 0.004,-0.065 0,-0.098 -0.004,-0.036 -0.012,-0.067 -0.024,-0.094zm0.224 0.079c-0.002,0.005 -0.005,0.01 -0.009,0.014 -0.004,0.004 -0.008,0.008 -0.013,0.01 -0.005,0.002 -0.01,0.003 -0.015,0.002 0.005,-0.001 0.01,-0.003 0.014,-0.006 0.004,-0.003 0.008,-0.006 0.011,-0.01 0.006,-0.007 0.011,-0.016 0.015,-0.027 0.001,0.005 -0,0.011 -0.002,0.016zm-0.046 -0.024c0.003,-0.006 0.006,-0.01 0.011,-0.012 0.004,-0.002 0.008,-0.003 0.012,-0.001 0.004,0.002 0.006,0.006 0.007,0.011 0.001,0.005 -0,0.011 -0.003,0.016 -0.003,0.006 -0.006,0.01 -0.01,0.012 -0.004,0.002 -0.008,0.003 -0.012,0.001 -0.004,-0.002 -0.006,-0.006 -0.007,-0.011 -0.001,-0.005 0,-0.011 0.003,-0.016zm-0.039 -0.11c-0.012,0.006 -0.022,0.014 -0.03,0.024 -0.008,0.009 -0.015,0.02 -0.021,0.034 -0.005,0.011 -0.009,0.023 -0.013,0.039 0.001,-0.006 0.002,-0.013 0.003,-0.02 0.002,-0.007 0.004,-0.014 0.006,-0.02 0.005,-0.013 0.012,-0.025 0.02,-0.036 0.009,-0.011 0.02,-0.019 0.032,-0.024 0.006,-0.003 0.012,-0.004 0.019,-0.006 0.007,-0.001 0.013,-0.002 0.019,-0.002 -0.014,0.002 -0.026,0.006 -0.036,0.011zm0.048 -0.033c-0.034,-0 -0.063,0.01 -0.085,0.031 -0.02,0.019 -0.034,0.045 -0.042,0.078 -0.008,0.031 -0.009,0.064 -0.006,0.101 0.004,0.035 0.012,0.068 0.025,0.099 0.013,0.029 0.027,0.052 0.042,0.068 0.014,0.014 0.027,0.021 0.041,0.023 0.012,0.001 0.023,-0.003 0.032,-0.012 0.009,-0.009 0.014,-0.022 0.016,-0.037 0.001,-0.011 0.001,-0.023 -0.001,-0.037 -0.001,-0.004 -0.002,-0.009 -0.003,-0.016l-0.001 -0.008c-0.001,-0.003 -0.001,-0.005 -0.001,-0.007 -0.001,-0.011 -0.001,-0.019 0.001,-0.025 0.002,-0.008 0.008,-0.013 0.016,-0.018 0.028,-0.014 0.048,-0.035 0.062,-0.062 0.013,-0.025 0.018,-0.051 0.015,-0.079 -0.003,-0.028 -0.014,-0.05 -0.032,-0.068 -0.02,-0.019 -0.047,-0.029 -0.079,-0.03zm0.316 0.248c-0.004,0.003 -0.007,0.005 -0.011,0.006 -0.004,0.001 -0.008,0.001 -0.012,0 0.008,-0.002 0.014,-0.006 0.021,-0.011 0.005,-0.004 0.01,-0.01 0.015,-0.018 -0.001,0.009 -0.005,0.016 -0.013,0.023zm-0.028 -0.016c-0.004,-0.002 -0.007,-0.005 -0.008,-0.011 -0.001,-0.005 -0.001,-0.011 0.001,-0.016 0.002,-0.006 0.005,-0.01 0.01,-0.013 0.004,-0.003 0.008,-0.003 0.012,-0.002 0.004,0.002 0.007,0.005 0.008,0.01 0.001,0.005 0.001,0.011 -0.001,0.016 -0.002,0.006 -0.005,0.01 -0.01,0.013 -0.004,0.003 -0.008,0.003 -0.012,0.002zm-0.041 -0.15c-0.006,0.01 -0.014,0.023 -0.024,0.039 -0.003,0.006 -0.007,0.012 -0.011,0.02l-0.011 0.02c0.005,-0.013 0.011,-0.028 0.018,-0.042 0.007,-0.014 0.014,-0.027 0.023,-0.04 0.01,-0.015 0.019,-0.027 0.028,-0.036l0.004 -0.004c0.002,-0.002 0.003,-0.003 0.004,-0.004l0.004 -0.004 0.005 -0.003c0.008,-0.005 0.015,-0.007 0.021,-0.006 -0.006,0.001 -0.012,0.003 -0.019,0.009l-0.004 0.003 -0.004 0.004c-0.001,0.001 -0.002,0.002 -0.004,0.004l-0.004 0.004c-0.009,0.01 -0.018,0.022 -0.027,0.036zm0.068 -0.08c-0.022,-0.004 -0.047,0.013 -0.075,0.05 -0.025,0.033 -0.047,0.076 -0.067,0.128 -0.02,0.052 -0.031,0.097 -0.035,0.138 -0.004,0.044 0.004,0.07 0.023,0.078 0.015,0.006 0.029,0.006 0.042,-0.001 0.01,-0.005 0.021,-0.014 0.033,-0.027 0.002,-0.003 0.005,-0.006 0.007,-0.009l0.007 -0.008c0.006,-0.007 0.01,-0.012 0.012,-0.015 0.009,-0.01 0.017,-0.016 0.023,-0.016 0.006,0 0.014,0.005 0.024,0.015 0.003,0.003 0.007,0.008 0.013,0.015l0.007 0.008 0.007 0.008c0.012,0.012 0.022,0.021 0.031,0.025 0.012,0.006 0.025,0.006 0.037,-0 0.015,-0.007 0.023,-0.031 0.025,-0.071 0.002,-0.037 -0.002,-0.08 -0.012,-0.128 -0.01,-0.05 -0.023,-0.092 -0.04,-0.126 -0.019,-0.038 -0.04,-0.059 -0.062,-0.063zm0.324 0.27c-0.003,0.006 -0.007,0.011 -0.012,0.014 -0.006,0.003 -0.011,0.004 -0.017,0.003 0.006,-0.001 0.011,-0.003 0.015,-0.007 0.004,-0.004 0.008,-0.008 0.01,-0.013 0.004,-0.01 0.005,-0.021 0.003,-0.035 0.003,0.005 0.005,0.011 0.005,0.018 0,0.007 -0.001,0.013 -0.003,0.019zm-0.047 -0.017c-0.003,-0.005 -0.004,-0.011 -0.003,-0.016 0.001,-0.005 0.003,-0.009 0.006,-0.011 0.004,-0.002 0.008,-0.002 0.012,0 0.005,0.002 0.008,0.006 0.011,0.011 0.003,0.005 0.004,0.011 0.003,0.016 -0.001,0.005 -0.003,0.009 -0.006,0.011 -0.004,0.002 -0.008,0.002 -0.012,0 -0.005,-0.002 -0.008,-0.006 -0.011,-0.011zm-0.022 -0.116c0.004,-0.001 0.008,-0.003 0.011,-0.005 0.004,-0.002 0.007,-0.005 0.009,-0.008 0.003,-0.003 0.005,-0.006 0.007,-0.01 0.002,-0.004 0.004,-0.008 0.005,-0.012 0.001,0.009 -0.002,0.018 -0.009,0.026 -0.003,0.004 -0.007,0.006 -0.011,0.008 -0.004,0.002 -0.009,0.002 -0.013,0.001zm-0.005 -0.04c0.002,-0.004 0.004,-0.006 0.007,-0.008 0.003,-0.002 0.006,-0.002 0.008,0 0.002,0.001 0.003,0.004 0.004,0.008 0,0.004 -0,0.007 -0.002,0.011 -0.002,0.004 -0.004,0.006 -0.007,0.008 -0.003,0.002 -0.005,0.002 -0.008,-0 -0.002,-0.001 -0.003,-0.004 -0.004,-0.007 -0,-0.004 0,-0.007 0.002,-0.011zm-0.043 -0.05c-0.004,0.004 -0.008,0.01 -0.013,0.017 -0.006,0.011 -0.012,0.023 -0.018,0.039 -0.004,0.012 -0.008,0.026 -0.012,0.042 0.001,-0.014 0.004,-0.029 0.008,-0.043 0.004,-0.015 0.01,-0.028 0.018,-0.04 0.009,-0.014 0.018,-0.024 0.029,-0.031 0.007,-0.004 0.013,-0.007 0.019,-0.009 0.007,-0.002 0.014,-0.002 0.02,-0.002 -0.014,0.001 -0.026,0.006 -0.037,0.014 -0.006,0.004 -0.011,0.009 -0.015,0.014zm0.11 0.106c-0.003,-0.001 -0.004,-0.004 -0.002,-0.009 0.001,-0.002 0.002,-0.004 0.004,-0.008l0.001 -0.002 0.001 -0.002c0.001,-0.002 0.002,-0.004 0.003,-0.006 0.005,-0.01 0.008,-0.02 0.01,-0.029 0.003,-0.013 0.003,-0.027 0.001,-0.041 -0.002,-0.016 -0.011,-0.029 -0.025,-0.04 -0.014,-0.011 -0.03,-0.017 -0.048,-0.017 -0.02,-0.001 -0.038,0.005 -0.056,0.018 -0.019,0.015 -0.035,0.037 -0.046,0.068 -0.012,0.031 -0.018,0.065 -0.019,0.102 -0.001,0.038 0.004,0.072 0.014,0.104 0.011,0.034 0.028,0.061 0.05,0.079 0.025,0.02 0.054,0.029 0.089,0.027 0.033,-0.002 0.059,-0.014 0.079,-0.035 0.018,-0.019 0.028,-0.043 0.029,-0.071 0.002,-0.028 -0.005,-0.054 -0.019,-0.079 -0.016,-0.027 -0.038,-0.046 -0.067,-0.059zm0.313 -0.11c-0.004,0.006 -0.009,0.012 -0.014,0.02 -0.008,0.014 -0.015,0.029 -0.021,0.045l-0.004 0.012 -0.004 0.012c-0.003,0.011 -0.006,0.018 -0.008,0.024 -0.004,0.01 -0.008,0.018 -0.012,0.023 -0.003,0.004 -0.006,0.006 -0.01,0.007 -0.003,0.001 -0.007,0.002 -0.012,0.001 0.005,-0 0.008,-0.001 0.011,-0.002 0.003,-0.002 0.006,-0.004 0.008,-0.008 0.003,-0.005 0.007,-0.012 0.01,-0.022l0.004 -0.012 0.004 -0.012c0.003,-0.01 0.006,-0.018 0.008,-0.024 0.006,-0.017 0.014,-0.032 0.022,-0.045 0.011,-0.017 0.023,-0.028 0.034,-0.034 -0.006,0.005 -0.012,0.01 -0.017,0.017zm-0.169 0.064c-0.002,0.011 -0.004,0.025 -0.006,0.041l-0.002 0.021 -0.002 0.02c-0.001,-0.04 0.003,-0.076 0.013,-0.108 0.002,-0.006 0.004,-0.012 0.006,-0.017 0.003,-0.007 0.006,-0.012 0.009,-0.017 0.008,-0.012 0.018,-0.018 0.029,-0.017 -0.013,0.001 -0.024,0.011 -0.032,0.031 -0.003,0.007 -0.006,0.015 -0.008,0.025 -0.001,0.004 -0.002,0.007 -0.003,0.012l-0.001 0.006 -0.001 0.003 -0.001 0.002zm0.235 -0.1c-0.021,-0.014 -0.042,-0.013 -0.063,0.003 -0.018,0.013 -0.033,0.034 -0.047,0.063 -0.004,0.009 -0.009,0.02 -0.013,0.032 -0.002,0.004 -0.003,0.01 -0.005,0.016l-0.002 0.007 -0.001 0.003 -0.001 0.003c-0.003,0.01 -0.006,0.017 -0.008,0.021 -0.002,0.005 -0.005,0.008 -0.007,0.008 -0.004,-0 -0.007,-0.004 -0.007,-0.011 -0,-0.006 0.001,-0.021 0.004,-0.043 0.006,-0.041 0.003,-0.07 -0.007,-0.086 -0.008,-0.013 -0.021,-0.018 -0.039,-0.016 -0.022,0.003 -0.039,0.026 -0.052,0.067 -0.012,0.04 -0.018,0.089 -0.016,0.147 0.003,0.106 0.032,0.164 0.087,0.172 0.016,0.002 0.032,-0.002 0.048,-0.012 0.015,-0.01 0.028,-0.024 0.038,-0.041 0.009,-0.015 0.017,-0.03 0.024,-0.043 0.002,-0.005 0.005,-0.01 0.007,-0.015 0.002,-0.003 0.003,-0.007 0.005,-0.011 0.003,-0.007 0.005,-0.011 0.005,-0.012 0.001,-0.002 0.003,-0.002 0.005,-0.002 0.002,0.001 0.002,0.008 0.001,0.023l-0.001 0.005 -0.001 0.005c-0.001,0.005 -0.001,0.009 -0.001,0.012 -0.001,0.01 -0.002,0.018 -0.002,0.025 -0.001,0.045 0.014,0.068 0.045,0.068 0.02,-0 0.035,-0.018 0.046,-0.055 0.01,-0.032 0.015,-0.074 0.015,-0.123 0,-0.048 -0.005,-0.092 -0.014,-0.131 -0.01,-0.042 -0.023,-0.069 -0.04,-0.08zm0.209 0.014l-0.005 0.001c-0.002,0.001 -0.003,0.001 -0.005,0.002 -0.001,0 -0.003,0.001 -0.004,0.002l-0.002 0.001 -0.002 0.001 -0.004 0.003c-0.002,0.001 -0.003,0.002 -0.004,0.003 -0.01,0.008 -0.019,0.019 -0.027,0.031 -0.007,0.01 -0.014,0.022 -0.021,0.037 -0.005,0.01 -0.01,0.024 -0.017,0.04 0.003,-0.014 0.008,-0.028 0.013,-0.041 0.006,-0.014 0.012,-0.027 0.021,-0.038 0.009,-0.013 0.019,-0.024 0.029,-0.031 0.012,-0.009 0.025,-0.013 0.039,-0.012l-0.01 0.002zm0.157 0.125c-0.017,-0.047 -0.039,-0.085 -0.068,-0.112 -0.03,-0.028 -0.06,-0.04 -0.091,-0.035 -0.026,0.004 -0.05,0.023 -0.072,0.057 -0.021,0.032 -0.036,0.071 -0.045,0.117 -0.011,0.052 -0.012,0.1 -0.005,0.145 0.004,0.022 0.009,0.04 0.017,0.053 0.008,0.014 0.018,0.023 0.03,0.025 0.018,0.003 0.033,-0.004 0.044,-0.022 0.009,-0.013 0.016,-0.034 0.023,-0.063 0.001,-0.005 0.002,-0.011 0.004,-0.018l0.002 -0.009 0.001 -0.009c0.003,-0.015 0.005,-0.025 0.006,-0.031 0.005,-0.021 0.011,-0.032 0.017,-0.034 0.005,-0.001 0.01,0.001 0.014,0.007 0.004,0.005 0.008,0.014 0.012,0.025 0.001,0.004 0.003,0.01 0.006,0.017l0.003 0.009 0.003 0.009c0.005,0.016 0.01,0.029 0.015,0.039 0.012,0.027 0.025,0.045 0.041,0.054 0.014,0.009 0.028,0.009 0.041,0 0.008,-0.006 0.014,-0.016 0.019,-0.03 0.005,-0.014 0.007,-0.031 0.008,-0.051 0.001,-0.045 -0.007,-0.094 -0.026,-0.146zm0.223 0.13c-0.003,0.005 -0.007,0.009 -0.012,0.011 -0.005,0.003 -0.01,0.003 -0.016,0.002 0.011,-0.002 0.019,-0.007 0.024,-0.016 0.002,-0.004 0.004,-0.008 0.006,-0.014 0.001,-0.005 0.001,-0.01 0.001,-0.016 0.002,0.005 0.003,0.011 0.002,0.017 -0,0.006 -0.002,0.012 -0.005,0.016zm-0.045 -0.021c-0.003,-0.005 -0.003,-0.011 -0.003,-0.016 0.001,-0.005 0.003,-0.009 0.006,-0.011 0.004,-0.002 0.008,-0.002 0.012,0.001 0.004,0.002 0.008,0.006 0.01,0.012 0.003,0.006 0.003,0.011 0.003,0.016 -0.001,0.005 -0.003,0.009 -0.007,0.011 -0.004,0.002 -0.008,0.002 -0.012,-0.001 -0.004,-0.002 -0.008,-0.006 -0.011,-0.012zm-0.024 -0.23c-0.003,0.002 -0.007,0.004 -0.011,0.007 -0.006,0.005 -0.012,0.012 -0.018,0.02 -0.004,0.006 -0.009,0.013 -0.015,0.023 -0.002,0.003 -0.004,0.007 -0.007,0.012l-0.007 0.012c0.003,-0.01 0.007,-0.019 0.01,-0.026 0.004,-0.009 0.009,-0.017 0.015,-0.024 0.006,-0.008 0.013,-0.015 0.019,-0.02 0.009,-0.006 0.017,-0.009 0.025,-0.009 -0.004,0.001 -0.008,0.002 -0.012,0.004zm0.067 0.135c-0.009,-0.003 -0.014,-0.008 -0.017,-0.015 -0.002,-0.006 -0.002,-0.014 -0,-0.025 0,-0.002 0.001,-0.005 0.001,-0.008l0.001 -0.008c0.001,-0.007 0.002,-0.013 0.003,-0.017 0.002,-0.014 0.002,-0.027 0.001,-0.038 -0.002,-0.016 -0.007,-0.028 -0.016,-0.037 -0.009,-0.009 -0.02,-0.013 -0.032,-0.012 -0.014,0.001 -0.027,0.009 -0.041,0.023 -0.016,0.016 -0.03,0.038 -0.042,0.067 -0.013,0.03 -0.021,0.063 -0.025,0.098 -0.004,0.037 -0.002,0.07 0.006,0.101 0.008,0.033 0.022,0.059 0.042,0.078 0.022,0.021 0.051,0.031 0.085,0.031 0.033,-0 0.06,-0.011 0.081,-0.032 0.019,-0.019 0.031,-0.043 0.035,-0.072 0.004,-0.029 -0.001,-0.055 -0.014,-0.08 -0.015,-0.026 -0.038,-0.045 -0.068,-0.055zm0.333 -0.132c-0.002,0.001 -0.005,0.003 -0.007,0.006 -0.003,0.004 -0.005,0.01 -0.007,0.018 -0.002,0.011 -0.003,0.024 -0.002,0.04l-0 0.005 0 0.005c0,0.004 0,0.008 -0,0.011 -0.001,0.008 -0.002,0.014 -0.005,0.02 -0.003,0.007 -0.006,0.012 -0.011,0.017 -0.005,0.005 -0.01,0.008 -0.016,0.01 0.012,-0.006 0.02,-0.015 0.024,-0.029 0.002,-0.006 0.003,-0.013 0.004,-0.019 0,-0.003 0,-0.006 0,-0.01l-0 -0.005 0 -0.005c-0,-0.017 0.001,-0.03 0.003,-0.041 0.002,-0.008 0.005,-0.015 0.009,-0.019 0.003,-0.003 0.005,-0.005 0.008,-0.006 0.002,-0.001 0.006,-0.001 0.009,-0.001 -0.004,0.001 -0.007,0.001 -0.009,0.003zm-0.172 0.007c-0.006,0.007 -0.011,0.015 -0.014,0.025 -0.003,0.008 -0.005,0.018 -0.008,0.03l-0.003 0.015 -0.003 0.015c0,-0.021 0.004,-0.041 0.01,-0.061 0.004,-0.011 0.009,-0.02 0.016,-0.027 0.004,-0.004 0.008,-0.007 0.013,-0.009 0.005,-0.002 0.01,-0.003 0.014,-0.002 -0.009,0.001 -0.017,0.006 -0.024,0.014zm0.18 -0.031c-0.017,0.001 -0.03,0.01 -0.037,0.026 -0.007,0.015 -0.01,0.039 -0.009,0.072 0.001,0.014 -0.002,0.025 -0.008,0.032 -0.005,0.006 -0.012,0.009 -0.02,0.008 -0.008,-0.001 -0.015,-0.005 -0.019,-0.012 -0.004,-0.007 -0.006,-0.017 -0.005,-0.028 0.003,-0.033 0,-0.057 -0.009,-0.074 -0.008,-0.015 -0.022,-0.024 -0.041,-0.027 -0.015,-0.003 -0.029,0.001 -0.041,0.011 -0.012,0.01 -0.021,0.024 -0.026,0.042 -0.011,0.035 -0.016,0.076 -0.017,0.123 -0.001,0.046 0.004,0.089 0.013,0.13 0.007,0.031 0.017,0.053 0.032,0.066 0.012,0.011 0.026,0.015 0.04,0.013 0.033,-0.005 0.048,-0.031 0.044,-0.078 -0.002,-0.034 0.004,-0.051 0.02,-0.051 0.008,0 0.014,0.003 0.018,0.009 0.006,0.008 0.008,0.022 0.007,0.04 -0.002,0.031 0.003,0.054 0.014,0.07 0.01,0.015 0.023,0.023 0.041,0.023 0.03,0 0.051,-0.021 0.064,-0.061 0.009,-0.03 0.014,-0.079 0.016,-0.147 0.002,-0.053 -0.005,-0.097 -0.018,-0.132 -0.014,-0.037 -0.034,-0.054 -0.058,-0.053zm0.276 0.269c-0.003,0.005 -0.007,0.009 -0.012,0.011 -0.005,0.003 -0.01,0.004 -0.015,0.004 0.01,-0.004 0.017,-0.01 0.023,-0.018 0.005,-0.008 0.009,-0.017 0.01,-0.029 0.002,0.011 0,0.022 -0.006,0.032zm-0.053 -0.028c-0.001,-0.007 0,-0.013 0.003,-0.019 0.003,-0.006 0.007,-0.009 0.013,-0.01 0.005,-0.001 0.01,0.001 0.015,0.005 0.005,0.004 0.007,0.01 0.008,0.017 0.001,0.007 0,0.013 -0.003,0.019 -0.003,0.006 -0.007,0.009 -0.013,0.01 -0.005,0.001 -0.01,-0.001 -0.015,-0.005 -0.005,-0.004 -0.007,-0.01 -0.008,-0.017zm-0.013 -0.213c-0.013,0.006 -0.025,0.014 -0.035,0.024 -0.009,0.009 -0.018,0.021 -0.026,0.036l-0.003 0.005 -0.003 0.005 -0.005 0.01 -0.004 0.011 -0.004 0.011c0.003,-0.015 0.008,-0.03 0.014,-0.044 0.007,-0.014 0.016,-0.027 0.026,-0.038 0.011,-0.011 0.024,-0.02 0.037,-0.024 0.006,-0.002 0.013,-0.004 0.021,-0.005l0.005 -0.001 0.005 -0 0.011 0c-0.016,0.001 -0.029,0.005 -0.041,0.01zm0.086 -0.026c-0.053,-0.014 -0.097,-0.005 -0.132,0.028 -0.031,0.029 -0.05,0.07 -0.058,0.124 -0.007,0.052 -0.002,0.101 0.017,0.145 0.02,0.048 0.051,0.078 0.092,0.09 0.039,0.012 0.076,0.001 0.11,-0.033 0.031,-0.03 0.054,-0.071 0.067,-0.123 0.014,-0.053 0.013,-0.1 -0.001,-0.142 -0.016,-0.047 -0.048,-0.077 -0.095,-0.09z"/>
    </g>
   </g>
  </g>
  <path class="fil2 str0" d="M1.599 1.214l0 -0.511c0.002,-0.058 -0.054,-0.026 -0.117,0.02 -0.391,0.239 -0.324,-0.498 0,-0.238 0.045,0.041 0.115,0.065 0.116,0.021 0,-0.167 0,-0.334 0,-0.502l-1.209 0 0 0.508c-0.001,0.043 -0.071,0.02 -0.116,-0.021 -0.324,-0.26 -0.391,0.477 -0,0.238 0.063,-0.047 0.119,-0.078 0.117,-0.023l0 0.508 1.209 0z"/>
 </g>
</svg>
