<?xml version="1.0" encoding="UTF-8"?>
<!DOCTYPE svg PUBLIC "-//W3C//DTD SVG 1.1//EN" "http://www.w3.org/Graphics/SVG/1.1/DTD/svg11.dtd">
<!-- Creator: CorelDRAW 2019 (64-Bit) -->
<svg xmlns="http://www.w3.org/2000/svg" xml:space="preserve" width="0.90948cm" height="0.90839cm" version="1.1" style="shape-rendering:geometricPrecision; text-rendering:geometricPrecision; image-rendering:optimizeQuality; fill-rule:evenodd; clip-rule:evenodd"
viewBox="0 0 1.12 1.118"
 xmlns:xlink="http://www.w3.org/1999/xlink"
 xmlns:xodm="http://www.corel.com/coreldraw/odm/2003">
 <defs>
  <style type="text/css">
   <![CDATA[
    .str0 {stroke:white;stroke-width:0.009;stroke-linejoin:round;stroke-miterlimit:22.9256}
    .fil2 {fill:none}
    .fil0 {fill:#FFFF99}
    .fil1 {fill:#A39F6B;fill-rule:nonzero}
   ]]>
  </style>
   <clipPath id="id0">
    <path d="M0.181 0.008l0.934 0c0,0.153 0,0.306 0,0.459 -0.001,0.04 -0.065,0.018 -0.107,-0.02 -0.296,-0.238 -0.358,0.436 -0,0.217 0.057,-0.043 0.109,-0.072 0.107,-0.019l0 0.467c-0.315,0 -0.63,0 -0.945,0 -0.209,0 -0.161,0.023 -0.161,-0.206 0,-0.281 0,-0.469 0,-0.749 0,-0.187 -0.023,-0.15 0.172,-0.15z"/>
   </clipPath>
 </defs>
 <g id="Слой_x0020_1">
  <metadata id="CorelCorpID_0Corel-Layer"/>
  <path class="fil0" d="M0.181 0.008l0.934 0c0,0.153 0,0.306 0,0.459 -0.001,0.04 -0.065,0.018 -0.107,-0.02 -0.296,-0.238 -0.358,0.436 -0,0.217 0.057,-0.043 0.109,-0.072 0.107,-0.019l0 0.467c-0.315,0 -0.63,0 -0.945,0 -0.209,0 -0.161,0.023 -0.161,-0.206 0,-0.281 0,-0.469 0,-0.749 0,-0.187 -0.023,-0.15 0.172,-0.15z"/>
  <g style="clip-path:url(#id0)">
   <g id="_2229954252000">
    <g>
     <path id="1" class="fil1" d="M0.458 0.168c-0.011,0.002 -0.02,0.004 -0.027,0.006 -0.01,0.003 -0.019,0.007 -0.025,0.011 -0.004,0.003 -0.008,0.006 -0.01,0.009 -0.003,0.004 -0.004,0.008 -0.004,0.014 -0.001,-0.005 -0,-0.01 0.002,-0.015 0.002,-0.004 0.005,-0.008 0.01,-0.011 0.006,-0.005 0.015,-0.009 0.025,-0.013 0.017,-0.005 0.036,-0.007 0.055,-0.005 -0.01,0.001 -0.019,0.002 -0.027,0.004zm0.045 -0.023c-0.038,-0.002 -0.069,0.002 -0.093,0.014 -0.025,0.012 -0.037,0.029 -0.035,0.051 0.001,0.012 0.006,0.021 0.015,0.027 0.006,0.004 0.016,0.007 0.028,0.008l0.008 0.001 0.008 0.001c0.006,0.001 0.011,0.001 0.014,0.002 0.01,0.002 0.015,0.006 0.018,0.013 0.001,0.004 -0,0.026 -0.004,0.066 -0.002,0.02 -0.004,0.038 -0.004,0.052 -0.001,0.02 -0.001,0.038 0,0.054 0.002,0.023 0.009,0.042 0.022,0.056 0.013,0.015 0.029,0.021 0.047,0.019 0.034,-0.005 0.046,-0.041 0.037,-0.109 -0.005,-0.036 -0.007,-0.066 -0.007,-0.091 -0,-0.027 0.002,-0.043 0.007,-0.047 0.003,-0.003 0.01,-0.004 0.018,-0.005 0.003,0 0.007,0 0.012,0l0.006 0 0.006 -0c0.01,-0 0.018,-0.002 0.024,-0.005 0.008,-0.004 0.013,-0.01 0.015,-0.02 0.003,-0.011 0.002,-0.022 -0.005,-0.033 -0.006,-0.01 -0.016,-0.019 -0.03,-0.027 -0.028,-0.016 -0.063,-0.025 -0.107,-0.028zm0.382 0.026c-0.003,0.003 -0.006,0.007 -0.009,0.012 -0.005,0.007 -0.01,0.016 -0.016,0.026l-0.004 0.007 -0.004 0.007c-0.003,0.005 -0.006,0.01 -0.008,0.013 -0.004,0.005 -0.007,0.009 -0.01,0.012 -0.004,0.004 -0.009,0.007 -0.013,0.007 0.004,-0.002 0.008,-0.005 0.011,-0.009 0.002,-0.003 0.005,-0.007 0.008,-0.013 0.002,-0.003 0.004,-0.008 0.007,-0.014l0.008 -0.013c0.006,-0.011 0.012,-0.02 0.017,-0.026 0.004,-0.005 0.007,-0.008 0.011,-0.011 0.005,-0.004 0.01,-0.006 0.014,-0.006 -0.004,0.001 -0.008,0.003 -0.012,0.008zm-0.151 0.229c-0.004,0.003 -0.007,0.006 -0.009,0.008 -0.007,0.006 -0.013,0.011 -0.017,0.017 -0.002,0.004 -0.004,0.007 -0.006,0.011 -0.001,0.003 -0.002,0.007 -0.003,0.012 -0,-0.004 0,-0.008 0.001,-0.013 0.001,-0.004 0.003,-0.008 0.005,-0.012 0.004,-0.006 0.009,-0.012 0.017,-0.019 0.005,-0.004 0.012,-0.009 0.02,-0.014l0.005 -0.003 0.005 -0.003c0.004,-0.003 0.007,-0.005 0.01,-0.007 -0.004,0.005 -0.01,0.011 -0.018,0.017l-0.009 0.007zm-0.04 -0.207c-0.002,0.003 -0.004,0.007 -0.005,0.012 -0.001,0.004 -0.002,0.009 -0.002,0.014 -0.002,-0.005 -0.002,-0.009 -0.002,-0.015 0,-0.005 0.002,-0.01 0.005,-0.015 0.003,-0.004 0.007,-0.008 0.011,-0.01 0.005,-0.002 0.009,-0.003 0.014,-0.002 -0.009,0.002 -0.016,0.007 -0.021,0.015zm0.202 -0.049c-0.009,-0 -0.019,0.005 -0.028,0.014 -0.007,0.007 -0.014,0.018 -0.023,0.032l-0.005 0.009 -0.002 0.004 -0.002 0.004c-0.004,0.007 -0.007,0.012 -0.008,0.015 -0.006,0.01 -0.011,0.015 -0.014,0.015 -0.004,0 -0.011,-0.007 -0.022,-0.02l-0.002 -0.002 -0.002 -0.003c-0.002,-0.002 -0.003,-0.003 -0.004,-0.005 -0.003,-0.004 -0.006,-0.007 -0.009,-0.011 -0.008,-0.008 -0.015,-0.016 -0.022,-0.022 -0.012,-0.01 -0.024,-0.015 -0.037,-0.015 -0.012,0 -0.022,0.004 -0.03,0.012 -0.009,0.008 -0.014,0.019 -0.016,0.031 -0.002,0.013 0,0.027 0.008,0.04 0.005,0.01 0.013,0.02 0.022,0.03 0.004,0.004 0.008,0.009 0.013,0.013l0.007 0.006 0.007 0.006c0.011,0.01 0.018,0.018 0.022,0.023 0.006,0.008 0.01,0.015 0.01,0.021 0,0.006 -0.003,0.013 -0.011,0.02 -0.003,0.003 -0.007,0.006 -0.012,0.009l-0.003 0.002 -0.004 0.003 -0.007 0.005c-0.012,0.009 -0.021,0.017 -0.027,0.025 -0.008,0.011 -0.013,0.024 -0.014,0.038 -0,0.011 0.001,0.021 0.005,0.03 0.004,0.009 0.01,0.016 0.018,0.022 0.017,0.013 0.039,0.015 0.065,0.006 0.035,-0.011 0.069,-0.044 0.104,-0.097 0.031,-0.048 0.051,-0.094 0.06,-0.137 0.009,-0.044 0.009,-0.077 0.001,-0.099 -0.007,-0.018 -0.019,-0.027 -0.037,-0.027zm0.35 0.056c0.002,-0.005 0.004,-0.009 0.007,-0.013 0.003,-0.005 0.007,-0.008 0.011,-0.01 0.005,-0.003 0.009,-0.004 0.013,-0.003 -0.004,0.001 -0.008,0.003 -0.012,0.006 -0.003,0.003 -0.006,0.006 -0.009,0.01 -0.002,0.003 -0.005,0.007 -0.007,0.012l-0.003 0.006 -0.004 0.006c0.001,-0.005 0.002,-0.009 0.004,-0.014zm-0.092 -0.035c-0.001,0.001 -0.003,0.001 -0.004,0.002 -0.003,0.002 -0.005,0.004 -0.007,0.006 -0.003,0.004 -0.006,0.01 -0.008,0.02 -0.001,-0.004 -0.001,-0.008 -0,-0.012 0.001,-0.004 0.002,-0.008 0.005,-0.011 0.003,-0.003 0.006,-0.006 0.009,-0.007 0.002,-0.001 0.004,-0.001 0.006,-0.001 0.002,0 0.003,0 0.005,0.001l-0.003 0.001 -0.002 0.001zm-0.084 0.157c-0.002,0.002 -0.004,0.004 -0.008,0.006l-0.004 0.002 -0.004 0.002c-0.01,0.007 -0.02,0.014 -0.029,0.021 -0.009,0.008 -0.017,0.017 -0.024,0.026 -0.007,0.01 -0.013,0.021 -0.018,0.033 0.001,-0.006 0.003,-0.012 0.006,-0.018 0.003,-0.006 0.006,-0.012 0.009,-0.016 0.006,-0.01 0.014,-0.019 0.024,-0.028 0.01,-0.009 0.02,-0.015 0.03,-0.021l0.004 -0.002 0.004 -0.002c0.003,-0.002 0.005,-0.003 0.007,-0.005 0.005,-0.004 0.008,-0.009 0.008,-0.016 0,0.006 -0.002,0.012 -0.007,0.018zm-0.06 -0.135c-0.002,0.003 -0.004,0.008 -0.004,0.012 -0.001,0.004 -0.001,0.008 -0.001,0.014 -0.004,-0.01 -0.003,-0.02 0.002,-0.029 0.003,-0.005 0.006,-0.008 0.01,-0.01 0.005,-0.003 0.009,-0.003 0.014,-0.002 -0.009,0.002 -0.015,0.007 -0.02,0.015zm0.248 0.119c-0.007,-0.004 -0.009,-0.007 -0.006,-0.01 0.001,-0.001 0.007,-0.005 0.017,-0.012 0.005,-0.003 0.009,-0.006 0.013,-0.009 0.005,-0.004 0.009,-0.008 0.013,-0.012 0.01,-0.011 0.017,-0.024 0.021,-0.039 0.004,-0.014 0.003,-0.028 -0.001,-0.04 -0.004,-0.011 -0.011,-0.019 -0.02,-0.025 -0.01,-0.005 -0.019,-0.006 -0.029,-0.003 -0.011,0.004 -0.021,0.013 -0.029,0.028 -0.006,0.011 -0.011,0.023 -0.014,0.037 -0.002,0.01 -0.005,0.017 -0.008,0.02 -0.003,0.003 -0.004,0.001 -0.004,-0.006 0,-0.032 -0.005,-0.055 -0.015,-0.071 -0.01,-0.016 -0.024,-0.022 -0.043,-0.02 -0.006,0.001 -0.012,0.003 -0.017,0.007 -0.006,0.004 -0.01,0.009 -0.014,0.016 -0.008,0.017 -0.007,0.038 0.003,0.064 0.003,0.007 0.003,0.011 0.001,0.012 -0.002,0.001 -0.006,0 -0.011,-0.004 -0.013,-0.009 -0.025,-0.027 -0.038,-0.051 -0.008,-0.016 -0.018,-0.027 -0.03,-0.032 -0.011,-0.005 -0.021,-0.005 -0.032,-0.001 -0.01,0.004 -0.018,0.012 -0.023,0.023 -0.006,0.012 -0.007,0.025 -0.005,0.039 0.003,0.015 0.009,0.029 0.02,0.042 0.007,0.009 0.017,0.017 0.029,0.025 0.002,0.001 0.004,0.002 0.007,0.004l0.003 0.002 0.003 0.002c0.004,0.003 0.007,0.005 0.008,0.007 0.004,0.004 0.003,0.008 -0.004,0.011 -0.036,0.019 -0.062,0.044 -0.078,0.076 -0.007,0.015 -0.011,0.03 -0.012,0.045 -0,0.016 0.003,0.03 0.01,0.042 0.006,0.011 0.015,0.019 0.025,0.024 0.01,0.005 0.021,0.005 0.032,0.002 0.012,-0.003 0.022,-0.011 0.031,-0.022 0.01,-0.012 0.017,-0.027 0.022,-0.046 0.008,-0.031 0.017,-0.05 0.026,-0.058 0.004,-0.003 0.006,-0.003 0.009,-0.001 0.002,0.002 0.003,0.005 0.002,0.01l-0 0.001 -0 0.001c-0,0.001 -0,0.002 -0,0.002 -0,0.002 -0.001,0.004 -0.001,0.006 -0.001,0.005 -0.002,0.011 -0.003,0.016 -0.002,0.015 -0.003,0.029 -0.002,0.041 0.002,0.036 0.014,0.056 0.037,0.058 0.017,0.002 0.032,-0.005 0.043,-0.022 0.011,-0.016 0.018,-0.039 0.021,-0.068 0.001,-0.009 0.002,-0.012 0.005,-0.01 0.001,0.001 0.002,0.002 0.003,0.004 0.001,0.002 0.001,0.003 0.002,0.005 0.001,0.003 0.002,0.006 0.002,0.009 0.006,0.02 0.013,0.036 0.023,0.048 0.009,0.011 0.019,0.019 0.03,0.022 0.011,0.003 0.021,0.003 0.031,-0.002 0.01,-0.005 0.018,-0.012 0.025,-0.024 0.007,-0.013 0.011,-0.027 0.011,-0.042 -0,-0.015 -0.004,-0.03 -0.011,-0.046 -0.015,-0.033 -0.04,-0.059 -0.076,-0.078zm0.418 -0.136c-0.003,0.003 -0.006,0.007 -0.009,0.012 -0.005,0.007 -0.01,0.016 -0.016,0.026l-0.004 0.007 -0.004 0.007c-0.003,0.005 -0.006,0.01 -0.008,0.013 -0.004,0.005 -0.007,0.009 -0.01,0.012 -0.004,0.004 -0.009,0.007 -0.013,0.007 0.004,-0.002 0.008,-0.005 0.011,-0.009 0.002,-0.003 0.005,-0.007 0.008,-0.013 0.002,-0.003 0.004,-0.008 0.007,-0.014l0.008 -0.013c0.006,-0.011 0.012,-0.02 0.017,-0.026 0.004,-0.005 0.007,-0.008 0.011,-0.011 0.005,-0.004 0.01,-0.006 0.014,-0.006 -0.004,0.001 -0.008,0.003 -0.012,0.008zm-0.151 0.229c-0.004,0.003 -0.007,0.006 -0.009,0.008 -0.007,0.006 -0.013,0.011 -0.017,0.017 -0.002,0.004 -0.004,0.007 -0.006,0.011 -0.001,0.003 -0.002,0.007 -0.003,0.012 -0,-0.004 0,-0.008 0.001,-0.013 0.001,-0.004 0.003,-0.008 0.005,-0.012 0.004,-0.006 0.009,-0.012 0.017,-0.019 0.005,-0.004 0.012,-0.009 0.02,-0.014l0.005 -0.003 0.005 -0.003c0.004,-0.003 0.007,-0.005 0.01,-0.007 -0.004,0.005 -0.01,0.011 -0.018,0.017l-0.009 0.007zm-0.04 -0.207c-0.002,0.003 -0.004,0.007 -0.005,0.012 -0.001,0.004 -0.002,0.009 -0.002,0.014 -0.002,-0.005 -0.002,-0.009 -0.002,-0.015 0,-0.005 0.002,-0.01 0.005,-0.015 0.003,-0.004 0.007,-0.008 0.011,-0.01 0.005,-0.002 0.009,-0.003 0.014,-0.002 -0.009,0.002 -0.016,0.007 -0.021,0.014zm0.202 -0.049c-0.009,0 -0.019,0.005 -0.028,0.015 -0.007,0.007 -0.014,0.018 -0.023,0.032l-0.005 0.009 -0.002 0.004 -0.002 0.004c-0.004,0.007 -0.007,0.012 -0.008,0.015 -0.006,0.01 -0.011,0.015 -0.014,0.015 -0.004,0 -0.011,-0.007 -0.022,-0.02l-0.002 -0.002 -0.002 -0.003c-0.002,-0.002 -0.003,-0.003 -0.004,-0.005 -0.003,-0.004 -0.006,-0.007 -0.009,-0.011 -0.008,-0.008 -0.015,-0.016 -0.022,-0.022 -0.012,-0.01 -0.024,-0.015 -0.037,-0.015 -0.012,-0 -0.022,0.004 -0.03,0.012 -0.009,0.008 -0.014,0.019 -0.016,0.031 -0.002,0.013 0,0.027 0.008,0.04 0.005,0.01 0.013,0.02 0.022,0.03 0.004,0.004 0.008,0.009 0.013,0.013l0.007 0.006 0.007 0.006c0.011,0.01 0.018,0.018 0.022,0.023 0.006,0.008 0.01,0.015 0.01,0.021 0,0.006 -0.003,0.013 -0.011,0.02 -0.003,0.003 -0.007,0.006 -0.012,0.009l-0.003 0.002 -0.004 0.003 -0.007 0.005c-0.012,0.009 -0.021,0.017 -0.027,0.025 -0.008,0.011 -0.013,0.024 -0.014,0.038 -0,0.011 0.001,0.021 0.005,0.03 0.004,0.009 0.01,0.016 0.018,0.022 0.017,0.013 0.039,0.015 0.065,0.006 0.035,-0.011 0.069,-0.044 0.104,-0.097 0.031,-0.048 0.051,-0.094 0.06,-0.137 0.009,-0.044 0.009,-0.077 0.001,-0.099 -0.007,-0.018 -0.019,-0.027 -0.037,-0.027zm0.328 0.026c-0.004,0.003 -0.007,0.007 -0.011,0.012 -0.005,0.007 -0.012,0.016 -0.019,0.028l-0.004 0.007 -0.005 0.007c-0.004,0.005 -0.007,0.01 -0.011,0.013 -0.004,0.004 -0.009,0.008 -0.013,0.01 -0.006,0.003 -0.011,0.004 -0.016,0.003 0.009,-0.001 0.019,-0.006 0.027,-0.016 0.003,-0.004 0.006,-0.008 0.01,-0.013l0.004 -0.007 0.004 -0.007c0.008,-0.012 0.014,-0.021 0.02,-0.028 0.005,-0.005 0.009,-0.009 0.013,-0.011 0.005,-0.003 0.01,-0.004 0.016,-0.004 -0.006,0.001 -0.01,0.003 -0.015,0.006zm-0.189 0.023c-0.006,0.008 -0.011,0.017 -0.016,0.029 -0.003,0.007 -0.008,0.018 -0.013,0.031 -0.002,0.005 -0.004,0.011 -0.005,0.016l-0.003 0.008 -0.003 0.008c0.004,-0.024 0.011,-0.046 0.019,-0.066 0.006,-0.012 0.012,-0.022 0.018,-0.029 0.004,-0.004 0.008,-0.008 0.013,-0.011 0.005,-0.003 0.01,-0.004 0.015,-0.004 -0.009,0.001 -0.017,0.007 -0.025,0.018zm0.285 0.126c-0.002,-0.051 -0.01,-0.092 -0.025,-0.124 -0.014,-0.03 -0.03,-0.047 -0.05,-0.049 -0.014,-0.002 -0.027,0.002 -0.039,0.012 -0.009,0.008 -0.02,0.023 -0.034,0.046 -0.012,0.02 -0.022,0.029 -0.031,0.026 -0.006,-0.001 -0.013,-0.009 -0.021,-0.023 -0.01,-0.017 -0.019,-0.029 -0.028,-0.037 -0.011,-0.01 -0.023,-0.015 -0.035,-0.014 -0.033,0.003 -0.059,0.045 -0.079,0.124 -0.013,0.051 -0.018,0.097 -0.016,0.137 0.003,0.046 0.016,0.072 0.039,0.077 0.013,0.003 0.025,-0.001 0.035,-0.011 0.008,-0.008 0.015,-0.02 0.022,-0.037 0.002,-0.006 0.005,-0.013 0.008,-0.022l0.002 -0.005 0.002 -0.005c0.001,-0.004 0.002,-0.007 0.003,-0.009 0.005,-0.013 0.009,-0.021 0.013,-0.022 0.003,-0.001 0.006,0.001 0.009,0.008 0.001,0.002 0.002,0.005 0.004,0.01l0.001 0.003 0.001 0.003 0.002 0.006c0.004,0.01 0.008,0.018 0.013,0.024 0.006,0.007 0.014,0.011 0.023,0.011 0.007,0 0.013,-0.003 0.019,-0.008 0.004,-0.004 0.009,-0.01 0.014,-0.019l0.003 -0.005 0.003 -0.005c0.002,-0.003 0.004,-0.006 0.006,-0.008 0.004,-0.005 0.008,-0.006 0.012,-0.005 0.004,0.002 0.008,0.008 0.011,0.02 0.001,0.002 0.002,0.005 0.003,0.008l0.001 0.005 0.001 0.005c0.002,0.008 0.005,0.015 0.006,0.02 0.006,0.016 0.012,0.028 0.019,0.036 0.009,0.011 0.019,0.016 0.032,0.017 0.021,0.001 0.036,-0.017 0.045,-0.054 0.008,-0.032 0.01,-0.078 0.008,-0.136zm0.184 0.076c-0.003,0.005 -0.007,0.008 -0.011,0.01 -0.004,0.003 -0.009,0.004 -0.013,0.004 0.009,-0.004 0.016,-0.009 0.021,-0.017 0.005,-0.007 0.008,-0.016 0.01,-0.026 0.002,0.011 0,0.02 -0.006,0.029zm-0.049 -0.026c-0.001,-0.006 0,-0.012 0.003,-0.018 0.003,-0.005 0.007,-0.008 0.012,-0.009 0.005,-0.001 0.01,0.001 0.014,0.005 0.004,0.004 0.007,0.009 0.008,0.015 0.001,0.007 0,0.012 -0.003,0.017 -0.003,0.005 -0.007,0.008 -0.012,0.009 -0.005,0.001 -0.01,-0.001 -0.014,-0.005 -0.004,-0.004 -0.007,-0.009 -0.008,-0.015zm-0.012 -0.195c-0.012,0.005 -0.023,0.013 -0.032,0.022 -0.009,0.009 -0.017,0.019 -0.024,0.033l-0.002 0.005 -0.002 0.005 -0.004 0.009 -0.004 0.01 -0.004 0.01c0.003,-0.014 0.007,-0.028 0.013,-0.04 0.006,-0.013 0.014,-0.025 0.024,-0.034 0.01,-0.01 0.022,-0.018 0.034,-0.022 0.006,-0.002 0.012,-0.004 0.019,-0.005l0.005 -0.001 0.005 -0 0.01 0c-0.014,0.001 -0.027,0.004 -0.038,0.009zm0.078 -0.023c-0.048,-0.013 -0.088,-0.004 -0.121,0.026 -0.028,0.026 -0.046,0.064 -0.053,0.114 -0.007,0.048 -0.002,0.092 0.015,0.133 0.018,0.044 0.046,0.072 0.084,0.083 0.036,0.011 0.069,0.001 0.101,-0.03 0.029,-0.028 0.049,-0.065 0.061,-0.112 0.012,-0.048 0.012,-0.092 -0.001,-0.13 -0.015,-0.043 -0.044,-0.071 -0.087,-0.082zm0.303 0.035c-0.004,0.005 -0.008,0.011 -0.013,0.018 -0.007,0.013 -0.014,0.026 -0.019,0.041l-0.004 0.011 -0.004 0.011c-0.003,0.01 -0.006,0.017 -0.008,0.022 -0.004,0.009 -0.007,0.016 -0.011,0.02 -0.003,0.003 -0.006,0.006 -0.009,0.007 -0.003,0.001 -0.007,0.002 -0.011,0.001 0.004,-0 0.008,-0.001 0.01,-0.002 0.003,-0.002 0.005,-0.004 0.008,-0.007 0.003,-0.004 0.006,-0.011 0.009,-0.02l0.003 -0.011 0.004 -0.011c0.003,-0.009 0.005,-0.016 0.007,-0.022 0.006,-0.016 0.013,-0.029 0.02,-0.041 0.01,-0.015 0.021,-0.026 0.031,-0.032 -0.006,0.004 -0.011,0.009 -0.016,0.015zm-0.155 0.059c-0.002,0.01 -0.004,0.023 -0.006,0.037l-0.002 0.019 -0.002 0.019c-0.001,-0.037 0.003,-0.07 0.012,-0.099 0.002,-0.006 0.004,-0.011 0.006,-0.016 0.002,-0.006 0.005,-0.011 0.008,-0.015 0.008,-0.011 0.016,-0.017 0.026,-0.016 -0.012,0.001 -0.022,0.011 -0.029,0.028 -0.003,0.006 -0.005,0.014 -0.008,0.023 -0.001,0.003 -0.002,0.007 -0.003,0.011l-0.001 0.005 -0 0.003 -0 0.002zm0.215 -0.091c-0.019,-0.013 -0.039,-0.012 -0.058,0.003 -0.016,0.012 -0.031,0.031 -0.043,0.057 -0.004,0.008 -0.008,0.018 -0.012,0.03 -0.001,0.004 -0.003,0.009 -0.005,0.014l-0.002 0.007 -0.001 0.003 -0.001 0.003c-0.003,0.009 -0.005,0.016 -0.007,0.019 -0.002,0.005 -0.005,0.007 -0.007,0.007 -0.004,-0 -0.006,-0.004 -0.006,-0.01 -0,-0.006 0.001,-0.019 0.004,-0.04 0.005,-0.037 0.003,-0.064 -0.007,-0.079 -0.008,-0.012 -0.02,-0.017 -0.036,-0.015 -0.02,0.003 -0.036,0.024 -0.048,0.062 -0.011,0.037 -0.016,0.082 -0.015,0.135 0.003,0.098 0.029,0.15 0.08,0.158 0.015,0.002 0.029,-0.002 0.044,-0.011 0.014,-0.009 0.025,-0.022 0.035,-0.038 0.008,-0.014 0.015,-0.027 0.021,-0.039 0.002,-0.005 0.004,-0.009 0.006,-0.013 0.001,-0.003 0.003,-0.006 0.004,-0.01 0.002,-0.006 0.004,-0.01 0.005,-0.011 0.001,-0.002 0.003,-0.002 0.005,-0.002 0.002,0.001 0.002,0.008 0.001,0.021l-0 0.005 -0.001 0.005c-0,0.004 -0.001,0.008 -0.001,0.011 -0.001,0.009 -0.001,0.016 -0.001,0.023 -0.001,0.041 0.013,0.062 0.04,0.062 0.018,-0 0.032,-0.017 0.042,-0.05 0.009,-0.03 0.013,-0.067 0.013,-0.112 0,-0.044 -0.004,-0.084 -0.013,-0.12 -0.009,-0.039 -0.021,-0.063 -0.037,-0.073zm-0.124 -0.043c0.008,-0.001 0.016,-0.003 0.022,-0.005 0.007,-0.003 0.014,-0.007 0.019,-0.011 0.001,-0.001 0.003,-0.003 0.004,-0.004l0.004 -0.004 0.002 -0.002c0.001,-0.001 0.002,-0.001 0.002,-0.002 0.001,-0 0.002,-0.001 0.003,-0.001l0.001 0 0.001 0 -0.001 0 -0.001 0c-0.001,0 -0.002,0.001 -0.002,0.001 -0.001,0.001 -0.001,0.001 -0.002,0.002l-0.002 0.003c-0.003,0.004 -0.006,0.007 -0.008,0.01 -0.002,0.003 -0.006,0.005 -0.009,0.008 -0.003,0.002 -0.007,0.004 -0.011,0.005 -0.007,0.003 -0.015,0.004 -0.023,0.005l-0.006 0 -0.006 -0c-0.005,-0 -0.009,0 -0.011,0.002 0.001,-0.001 0.003,-0.002 0.005,-0.003l0.003 -0.001 0.003 -0.001 0.011 -0.001zm0.087 -0.018c0,-0.011 -0.004,-0.02 -0.011,-0.026 -0.007,-0.006 -0.015,-0.008 -0.024,-0.006 -0.006,0.001 -0.011,0.005 -0.016,0.011l-0.003 0.004c-0.001,0.001 -0.002,0.003 -0.003,0.004 -0.003,0.003 -0.006,0.005 -0.009,0.007 -0.005,0.003 -0.01,0.004 -0.016,0.005 -0.002,0 -0.004,0.001 -0.007,0.001l-0.003 0 -0.003 0c-0.011,0 -0.019,0.003 -0.025,0.007 -0.006,0.004 -0.009,0.01 -0.009,0.017 -0,0.006 0.001,0.012 0.004,0.019 0.005,0.01 0.015,0.016 0.029,0.02 0.013,0.003 0.027,0.002 0.042,-0.001 0.015,-0.004 0.028,-0.011 0.038,-0.021 0.011,-0.011 0.016,-0.024 0.016,-0.039zm0.141 0.335c-0.004,0.005 -0.008,0.012 -0.011,0.02 -0.001,-0.009 0.002,-0.017 0.008,-0.024 0.003,-0.003 0.006,-0.006 0.01,-0.007 0.004,-0.002 0.008,-0.002 0.012,-0.001 -0.007,0.002 -0.013,0.006 -0.018,0.012zm0.018 -0.032c-0.012,0 -0.022,0.005 -0.031,0.015 -0.009,0.01 -0.014,0.021 -0.016,0.035 -0.001,0.009 -0,0.019 0.003,0.028 0.003,0.009 0.007,0.016 0.013,0.023 0.004,0.005 0.006,0.013 0.004,0.023l-0 0.003 -0.001 0.003c-0,0.002 -0.001,0.004 -0.001,0.006 -0,0.004 0,0.007 0.002,0.009 0.004,0.005 0.01,0.006 0.017,0.003 0.007,-0.002 0.015,-0.008 0.023,-0.016 0.019,-0.019 0.03,-0.042 0.033,-0.068 0.002,-0.017 -0.002,-0.032 -0.011,-0.045 -0.009,-0.012 -0.021,-0.019 -0.034,-0.019zm-2.256 0.54c-0.003,0.006 -0.006,0.01 -0.011,0.013 -0.005,0.003 -0.01,0.004 -0.016,0.003 0.005,-0.001 0.01,-0.003 0.014,-0.006 0.004,-0.003 0.007,-0.007 0.009,-0.012 0.004,-0.009 0.005,-0.019 0.002,-0.032 0.003,0.005 0.004,0.01 0.005,0.016 0,0.006 -0.001,0.012 -0.003,0.018zm-0.043 -0.015c-0.002,-0.005 -0.004,-0.01 -0.003,-0.015 0,-0.005 0.002,-0.008 0.006,-0.01 0.003,-0.002 0.007,-0.002 0.011,0 0.004,0.002 0.008,0.006 0.01,0.01 0.003,0.005 0.004,0.01 0.003,0.015 -0,0.005 -0.002,0.008 -0.006,0.011 -0.003,0.002 -0.007,0.002 -0.011,0 -0.004,-0.002 -0.008,-0.006 -0.01,-0.011zm-0.021 -0.106c0.004,-0.001 0.007,-0.003 0.01,-0.004 0.003,-0.002 0.006,-0.005 0.008,-0.007 0.002,-0.003 0.005,-0.006 0.007,-0.009 0.002,-0.003 0.003,-0.007 0.005,-0.011 0.001,0.009 -0.002,0.017 -0.008,0.024 -0.003,0.003 -0.007,0.006 -0.01,0.007 -0.004,0.002 -0.008,0.002 -0.012,0.001zm-0.005 -0.037c0.002,-0.003 0.004,-0.006 0.007,-0.007 0.003,-0.001 0.005,-0.001 0.007,0 0.002,0.001 0.003,0.004 0.004,0.007 0,0.003 -0,0.006 -0.002,0.01 -0.002,0.003 -0.004,0.006 -0.007,0.007 -0.003,0.001 -0.005,0.001 -0.007,0 -0.002,-0.001 -0.003,-0.004 -0.004,-0.007 -0,-0.003 0,-0.006 0.002,-0.01zm-0.04 -0.045c-0.004,0.004 -0.008,0.009 -0.012,0.016 -0.006,0.01 -0.011,0.021 -0.016,0.035 -0.004,0.011 -0.008,0.024 -0.011,0.038 0.001,-0.013 0.004,-0.026 0.008,-0.04 0.004,-0.013 0.009,-0.026 0.016,-0.037 0.008,-0.013 0.017,-0.022 0.027,-0.028 0.006,-0.004 0.012,-0.007 0.018,-0.008 0.007,-0.002 0.013,-0.002 0.019,-0.002 -0.013,0.001 -0.024,0.006 -0.034,0.013 -0.005,0.004 -0.01,0.008 -0.014,0.013zm0.101 0.097c-0.003,-0.001 -0.003,-0.004 -0.002,-0.008 0.001,-0.002 0.002,-0.004 0.004,-0.007l0.001 -0.002 0.001 -0.002c0.001,-0.002 0.002,-0.004 0.003,-0.005 0.004,-0.009 0.007,-0.018 0.009,-0.026 0.002,-0.012 0.003,-0.025 0.001,-0.037 -0.002,-0.014 -0.01,-0.026 -0.022,-0.036 -0.013,-0.01 -0.028,-0.015 -0.044,-0.016 -0.018,-0.001 -0.035,0.005 -0.051,0.017 -0.018,0.014 -0.032,0.034 -0.042,0.062 -0.011,0.029 -0.016,0.06 -0.017,0.094 -0.001,0.034 0.003,0.066 0.013,0.095 0.01,0.031 0.026,0.056 0.046,0.072 0.023,0.019 0.05,0.027 0.081,0.025 0.03,-0.002 0.054,-0.013 0.072,-0.032 0.016,-0.017 0.025,-0.039 0.027,-0.065 0.002,-0.025 -0.004,-0.049 -0.017,-0.072 -0.014,-0.024 -0.035,-0.042 -0.061,-0.054z"/>
     <path class="fil1" d="M0.801 0.914c-0.003,0.003 -0.007,0.005 -0.01,0.006 -0.004,0.001 -0.008,0.001 -0.011,0 0.007,-0.002 0.013,-0.005 0.019,-0.01 0.004,-0.004 0.009,-0.009 0.014,-0.017 -0.001,0.008 -0.005,0.015 -0.012,0.021zm-0.025 -0.015c-0.004,-0.002 -0.006,-0.005 -0.007,-0.01 -0.001,-0.005 -0.001,-0.01 0.001,-0.015 0.002,-0.005 0.005,-0.009 0.009,-0.012 0.004,-0.003 0.008,-0.003 0.011,-0.001 0.004,0.001 0.006,0.005 0.007,0.009 0.001,0.005 0.001,0.01 -0.001,0.015 -0.002,0.005 -0.005,0.009 -0.009,0.012 -0.004,0.003 -0.008,0.003 -0.011,0.001zm-0.038 -0.137c-0.006,0.009 -0.013,0.021 -0.022,0.035 -0.003,0.005 -0.006,0.011 -0.01,0.018l-0.01 0.019c0.005,-0.012 0.01,-0.025 0.017,-0.039 0.006,-0.012 0.013,-0.025 0.021,-0.036 0.009,-0.014 0.018,-0.024 0.026,-0.033l0.004 -0.004c0.001,-0.001 0.003,-0.002 0.004,-0.003l0.004 -0.003 0.004 -0.003c0.007,-0.004 0.014,-0.006 0.019,-0.006 -0.005,0.001 -0.011,0.003 -0.018,0.008l-0.004 0.003 -0.004 0.004c-0.001,0.001 -0.002,0.002 -0.004,0.003l-0.003 0.004c-0.008,0.009 -0.016,0.02 -0.025,0.033zm0.062 -0.074c-0.02,-0.003 -0.043,0.012 -0.069,0.046 -0.023,0.03 -0.043,0.07 -0.062,0.117 -0.018,0.047 -0.029,0.089 -0.032,0.126 -0.003,0.04 0.004,0.064 0.021,0.071 0.013,0.006 0.026,0.005 0.039,-0.001 0.009,-0.004 0.019,-0.013 0.03,-0.025 0.002,-0.002 0.004,-0.005 0.007,-0.008l0.006 -0.008c0.005,-0.007 0.009,-0.011 0.011,-0.014 0.008,-0.009 0.015,-0.014 0.021,-0.014 0.006,0 0.013,0.005 0.022,0.013 0.003,0.003 0.007,0.007 0.012,0.013l0.006 0.007 0.006 0.007c0.011,0.011 0.02,0.019 0.029,0.023 0.011,0.005 0.023,0.005 0.034,-0 0.013,-0.007 0.021,-0.028 0.023,-0.065 0.002,-0.034 -0.002,-0.073 -0.011,-0.117 -0.009,-0.046 -0.021,-0.084 -0.037,-0.115 -0.018,-0.035 -0.037,-0.054 -0.057,-0.058zm0.334 0.025c-0.002,0.001 -0.004,0.003 -0.006,0.006 -0.003,0.004 -0.005,0.009 -0.006,0.016 -0.002,0.01 -0.002,0.022 -0.002,0.036l-0 0.005 0 0.005c0,0.004 0,0.007 -0,0.01 -0.001,0.007 -0.002,0.013 -0.004,0.019 -0.002,0.006 -0.006,0.011 -0.01,0.016 -0.005,0.004 -0.01,0.007 -0.015,0.009 0.011,-0.005 0.018,-0.014 0.022,-0.026 0.002,-0.006 0.003,-0.012 0.003,-0.018 0,-0.002 0,-0.005 0,-0.009l-0 -0.005 0 -0.005c-0,-0.015 0.001,-0.028 0.003,-0.037 0.002,-0.008 0.005,-0.013 0.008,-0.017 0.002,-0.003 0.005,-0.004 0.007,-0.005 0.002,-0.001 0.005,-0.001 0.008,-0.001 -0.003,0.001 -0.006,0.001 -0.008,0.002zm-0.158 0.006c-0.006,0.006 -0.01,0.014 -0.013,0.023 -0.002,0.008 -0.005,0.017 -0.007,0.027l-0.003 0.013 -0.003 0.014c0,-0.019 0.004,-0.038 0.009,-0.056 0.003,-0.01 0.008,-0.018 0.014,-0.024 0.003,-0.004 0.007,-0.006 0.011,-0.008 0.005,-0.002 0.009,-0.002 0.013,-0.002 -0.008,0.001 -0.016,0.005 -0.022,0.013zm0.165 -0.028c-0.016,0.001 -0.027,0.009 -0.034,0.023 -0.007,0.014 -0.009,0.036 -0.008,0.065 0,0.013 -0.002,0.023 -0.008,0.029 -0.005,0.006 -0.011,0.008 -0.018,0.007 -0.008,-0.001 -0.013,-0.004 -0.017,-0.011 -0.004,-0.007 -0.005,-0.015 -0.004,-0.026 0.003,-0.03 0,-0.052 -0.008,-0.067 -0.008,-0.013 -0.02,-0.022 -0.037,-0.025 -0.014,-0.002 -0.027,0.001 -0.038,0.011 -0.011,0.009 -0.019,0.022 -0.024,0.038 -0.01,0.032 -0.015,0.069 -0.015,0.112 -0,0.042 0.003,0.081 0.012,0.119 0.006,0.028 0.016,0.048 0.029,0.06 0.011,0.01 0.023,0.014 0.037,0.012 0.03,-0.005 0.043,-0.029 0.04,-0.071 -0.002,-0.031 0.004,-0.047 0.018,-0.047 0.007,0 0.012,0.003 0.016,0.009 0.005,0.008 0.007,0.02 0.007,0.036 -0.001,0.028 0.003,0.049 0.012,0.064 0.009,0.014 0.021,0.021 0.038,0.021 0.028,0 0.047,-0.019 0.058,-0.056 0.008,-0.027 0.013,-0.072 0.015,-0.135 0.001,-0.048 -0.004,-0.089 -0.017,-0.121 -0.013,-0.034 -0.031,-0.05 -0.053,-0.049zm0.249 0.25c-0.003,0.005 -0.007,0.008 -0.011,0.01 -0.005,0.002 -0.009,0.003 -0.014,0.002 0.01,-0.002 0.017,-0.007 0.022,-0.015 0.002,-0.003 0.004,-0.008 0.005,-0.013 0.001,-0.004 0.001,-0.009 0.001,-0.015 0.002,0.005 0.003,0.01 0.002,0.016 -0,0.006 -0.002,0.011 -0.005,0.015zm-0.041 -0.02c-0.002,-0.005 -0.003,-0.01 -0.002,-0.015 0.001,-0.005 0.003,-0.008 0.006,-0.01 0.003,-0.002 0.007,-0.001 0.011,0.001 0.004,0.002 0.007,0.006 0.01,0.011 0.002,0.005 0.003,0.01 0.002,0.015 -0.001,0.005 -0.003,0.008 -0.006,0.01 -0.003,0.002 -0.007,0.002 -0.011,-0.001 -0.004,-0.002 -0.007,-0.006 -0.01,-0.011zm-0.022 -0.211c-0.003,0.001 -0.006,0.004 -0.01,0.007 -0.005,0.005 -0.011,0.011 -0.016,0.018 -0.004,0.005 -0.009,0.012 -0.014,0.021 -0.002,0.003 -0.004,0.007 -0.007,0.011l-0.006 0.011c0.003,-0.01 0.006,-0.017 0.01,-0.024 0.004,-0.008 0.008,-0.015 0.013,-0.022 0.006,-0.008 0.012,-0.014 0.018,-0.018 0.008,-0.006 0.016,-0.009 0.023,-0.008 -0.004,0.001 -0.007,0.002 -0.011,0.004zm0.061 0.123c-0.008,-0.003 -0.013,-0.007 -0.015,-0.014 -0.002,-0.005 -0.002,-0.013 -0,-0.023 0,-0.002 0.001,-0.004 0.001,-0.007l0.001 -0.007c0.001,-0.007 0.002,-0.012 0.003,-0.015 0.002,-0.013 0.002,-0.024 0.001,-0.034 -0.002,-0.014 -0.007,-0.026 -0.015,-0.034 -0.008,-0.009 -0.018,-0.012 -0.03,-0.011 -0.012,0.001 -0.025,0.008 -0.037,0.021 -0.014,0.014 -0.027,0.035 -0.039,0.062 -0.012,0.028 -0.02,0.058 -0.023,0.09 -0.003,0.033 -0.002,0.064 0.005,0.092 0.008,0.031 0.02,0.054 0.039,0.072 0.02,0.019 0.046,0.028 0.078,0.028 0.03,-0 0.055,-0.01 0.074,-0.029 0.018,-0.017 0.029,-0.039 0.032,-0.066 0.004,-0.026 -0.001,-0.051 -0.013,-0.073 -0.014,-0.024 -0.034,-0.041 -0.062,-0.05zm0.362 -0.121c-0.004,0.003 -0.007,0.007 -0.011,0.012 -0.005,0.007 -0.011,0.016 -0.019,0.028l-0.004 0.007 -0.005 0.007c-0.004,0.005 -0.007,0.01 -0.011,0.013 -0.004,0.004 -0.009,0.008 -0.013,0.01 -0.006,0.003 -0.011,0.004 -0.016,0.003 0.01,-0.001 0.019,-0.006 0.027,-0.016 0.003,-0.004 0.006,-0.008 0.01,-0.013l0.004 -0.007 0.004 -0.007c0.008,-0.012 0.014,-0.021 0.02,-0.028 0.005,-0.005 0.009,-0.009 0.013,-0.011 0.005,-0.003 0.01,-0.004 0.016,-0.004 -0.006,0.001 -0.01,0.003 -0.015,0.006zm-0.189 0.023c-0.006,0.008 -0.011,0.017 -0.016,0.029 -0.003,0.007 -0.008,0.018 -0.013,0.031 -0.002,0.005 -0.004,0.011 -0.005,0.016l-0.003 0.008 -0.003 0.008c0.004,-0.024 0.011,-0.046 0.019,-0.066 0.006,-0.012 0.012,-0.022 0.018,-0.029 0.004,-0.004 0.008,-0.008 0.013,-0.011 0.005,-0.003 0.01,-0.004 0.015,-0.004 -0.009,0.001 -0.017,0.007 -0.025,0.018zm0.285 0.126c-0.002,-0.051 -0.01,-0.092 -0.025,-0.124 -0.014,-0.03 -0.03,-0.047 -0.05,-0.049 -0.014,-0.002 -0.027,0.002 -0.039,0.012 -0.009,0.008 -0.02,0.023 -0.034,0.046 -0.012,0.02 -0.022,0.029 -0.031,0.026 -0.006,-0.001 -0.013,-0.009 -0.021,-0.023 -0.01,-0.017 -0.019,-0.029 -0.028,-0.037 -0.011,-0.01 -0.023,-0.015 -0.035,-0.014 -0.033,0.003 -0.059,0.045 -0.079,0.124 -0.013,0.051 -0.018,0.097 -0.016,0.137 0.003,0.046 0.016,0.072 0.039,0.077 0.013,0.003 0.025,-0.001 0.035,-0.011 0.008,-0.008 0.015,-0.02 0.022,-0.037 0.002,-0.006 0.005,-0.013 0.008,-0.022l0.002 -0.005 0.002 -0.005c0.001,-0.004 0.002,-0.007 0.003,-0.009 0.005,-0.013 0.009,-0.021 0.013,-0.022 0.003,-0.001 0.006,0.001 0.009,0.008 0.001,0.002 0.002,0.005 0.004,0.01l0.001 0.003 0.001 0.003 0.002 0.006c0.004,0.01 0.008,0.018 0.013,0.024 0.006,0.007 0.014,0.011 0.023,0.011 0.007,0 0.013,-0.003 0.019,-0.008 0.004,-0.004 0.009,-0.01 0.014,-0.019l0.003 -0.005 0.003 -0.005c0.002,-0.003 0.004,-0.006 0.006,-0.008 0.004,-0.005 0.008,-0.006 0.012,-0.005 0.004,0.002 0.008,0.008 0.011,0.02 0.001,0.002 0.002,0.005 0.003,0.008l0.001 0.005 0.001 0.005c0.002,0.008 0.005,0.015 0.006,0.02 0.006,0.016 0.012,0.028 0.019,0.036 0.009,0.011 0.019,0.016 0.032,0.017 0.021,0.001 0.036,-0.017 0.045,-0.054 0.008,-0.032 0.01,-0.078 0.008,-0.136zm0.18 0.079c-0.003,0.005 -0.007,0.008 -0.011,0.01 -0.005,0.002 -0.009,0.003 -0.014,0.002 0.01,-0.002 0.017,-0.007 0.022,-0.015 0.002,-0.003 0.004,-0.008 0.005,-0.013 0.001,-0.004 0.001,-0.009 0.001,-0.015 0.002,0.005 0.003,0.01 0.002,0.016 -0,0.006 -0.002,0.011 -0.005,0.015zm-0.041 -0.02c-0.002,-0.005 -0.003,-0.01 -0.002,-0.015 0.001,-0.005 0.003,-0.008 0.006,-0.01 0.003,-0.002 0.007,-0.001 0.011,0.001 0.004,0.002 0.007,0.006 0.01,0.011 0.002,0.005 0.003,0.01 0.002,0.015 -0.001,0.005 -0.003,0.008 -0.006,0.01 -0.003,0.002 -0.007,0.002 -0.011,-0.001 -0.004,-0.002 -0.007,-0.006 -0.01,-0.011zm-0.022 -0.211c-0.003,0.002 -0.006,0.004 -0.01,0.007 -0.005,0.005 -0.011,0.011 -0.016,0.018 -0.004,0.005 -0.009,0.012 -0.014,0.021 -0.002,0.003 -0.004,0.007 -0.007,0.011l-0.006 0.011c0.003,-0.01 0.006,-0.017 0.01,-0.024 0.004,-0.008 0.008,-0.015 0.013,-0.022 0.006,-0.008 0.012,-0.014 0.018,-0.018 0.008,-0.006 0.016,-0.009 0.023,-0.008 -0.004,0.001 -0.007,0.002 -0.011,0.004zm0.061 0.123c-0.008,-0.003 -0.013,-0.007 -0.015,-0.014 -0.002,-0.005 -0.002,-0.013 -0,-0.023 0,-0.002 0.001,-0.004 0.001,-0.007l0.001 -0.007c0.001,-0.007 0.002,-0.012 0.003,-0.016 0.002,-0.013 0.002,-0.024 0.001,-0.034 -0.002,-0.014 -0.007,-0.026 -0.015,-0.034 -0.008,-0.009 -0.018,-0.012 -0.03,-0.011 -0.012,0.001 -0.025,0.008 -0.037,0.021 -0.014,0.014 -0.027,0.035 -0.039,0.062 -0.012,0.028 -0.02,0.058 -0.023,0.09 -0.003,0.033 -0.002,0.064 0.005,0.092 0.008,0.031 0.02,0.054 0.039,0.072 0.02,0.019 0.046,0.028 0.078,0.028 0.03,-0 0.054,-0.01 0.074,-0.029 0.018,-0.017 0.029,-0.039 0.033,-0.066 0.004,-0.026 -0.001,-0.051 -0.013,-0.073 -0.014,-0.024 -0.034,-0.041 -0.062,-0.05zm0.098 -0.117c-0.003,0.003 -0.005,0.006 -0.006,0.01 -0.001,0.004 -0.002,0.008 -0.002,0.012 -0,0.006 0,0.015 0.002,0.025l0.002 0.012 0.002 0.013c-0.003,-0.009 -0.006,-0.017 -0.008,-0.025 -0.002,-0.01 -0.003,-0.019 -0.003,-0.026 0,-0.005 0.001,-0.01 0.003,-0.013 0.002,-0.005 0.004,-0.009 0.008,-0.011 0.006,-0.005 0.014,-0.007 0.023,-0.006 -0.009,0.001 -0.016,0.004 -0.021,0.009zm0.082 0.014c-0.007,-0.013 -0.015,-0.024 -0.026,-0.032 -0.009,-0.007 -0.02,-0.011 -0.031,-0.011 -0.01,-0.001 -0.02,0.001 -0.029,0.006 -0.009,0.005 -0.015,0.011 -0.019,0.02 -0.008,0.016 -0.007,0.039 0.001,0.07 0.001,0.005 0.003,0.011 0.005,0.019l0.003 0.01 0.003 0.01c0.004,0.015 0.007,0.028 0.008,0.038 0.003,0.025 0.004,0.05 0.003,0.076 -0,0.008 -0.001,0.018 -0.001,0.03l-0 0.007 -0 0.006c-0,0.005 -0,0.009 -0,0.012 -0,0.016 0,0.027 0.003,0.034 0.003,0.008 0.009,0.014 0.017,0.016 0.017,0.004 0.032,-0.006 0.046,-0.03 0.012,-0.021 0.021,-0.051 0.028,-0.088 0.006,-0.036 0.009,-0.072 0.007,-0.107 -0.002,-0.037 -0.007,-0.066 -0.017,-0.085zm0.163 0.11c-0.004,0.004 -0.01,0.007 -0.017,0.01 -0.007,0.002 -0.012,0.005 -0.016,0.007 -0.006,0.004 -0.009,0.009 -0.01,0.015 -0,-0.003 0,-0.007 0.001,-0.01 0.001,-0.003 0.003,-0.006 0.006,-0.008 0.004,-0.003 0.01,-0.006 0.017,-0.009 0.006,-0.002 0.011,-0.005 0.016,-0.008 0.005,-0.004 0.01,-0.008 0.012,-0.013 -0.002,0.006 -0.005,0.012 -0.01,0.016zm-0.066 0.115c-0.008,-0.001 -0.015,-0.001 -0.02,-0.001 -0.004,0 -0.007,0.001 -0.009,0.003 -0.001,0.001 -0.002,0.002 -0.003,0.004l-0.001 0.003 -0.001 0.003c0,-0.002 0,-0.004 0,-0.006 0,-0.002 0.001,-0.004 0.002,-0.005 0.002,-0.002 0.006,-0.004 0.01,-0.005 0.005,-0.001 0.012,-0.001 0.021,-0 0.005,0.001 0.012,0.002 0.02,0.003l0.01 0.002 0.01 0.002c-0.006,0.001 -0.013,0.001 -0.021,0l-0.01 -0.001 -0.01 -0.001zm0.016 -0.237c-0.01,0.004 -0.018,0.009 -0.024,0.013 -0.003,0.002 -0.007,0.005 -0.011,0.008 -0.003,0.003 -0.006,0.006 -0.01,0.01 -0.007,0.008 -0.01,0.017 -0.009,0.026 -0.001,-0.005 -0.001,-0.009 0,-0.015 0.001,-0.005 0.003,-0.009 0.006,-0.013 0.005,-0.007 0.012,-0.013 0.021,-0.02 0.016,-0.01 0.033,-0.016 0.052,-0.018 -0.009,0.003 -0.017,0.006 -0.025,0.01zm0.147 0.178c-0.004,-0.006 -0.009,-0.011 -0.014,-0.016 -0.004,-0.003 -0.008,-0.006 -0.012,-0.01l-0.003 -0.002 -0.002 -0.002c-0.002,-0.001 -0.003,-0.002 -0.004,-0.003 -0.002,-0.002 -0.004,-0.004 -0.004,-0.006 -0,-0.003 0.002,-0.006 0.006,-0.011 0.001,-0.002 0.004,-0.004 0.007,-0.007l0.002 -0.002 0.002 -0.002 0.004 -0.004c0.007,-0.007 0.012,-0.013 0.016,-0.02 0.005,-0.009 0.009,-0.018 0.01,-0.027 0.004,-0.025 -0.001,-0.046 -0.014,-0.063 -0.014,-0.018 -0.036,-0.03 -0.065,-0.035 -0.014,-0.003 -0.031,-0.002 -0.048,0.001 -0.018,0.003 -0.034,0.009 -0.049,0.017 -0.016,0.009 -0.028,0.018 -0.037,0.03 -0.009,0.013 -0.013,0.027 -0.012,0.041 0.004,0.037 0.033,0.047 0.086,0.032 0.009,-0.002 0.016,-0.003 0.022,-0.003 0.005,0.001 0.008,0.002 0.008,0.005 0.001,0.003 -0,0.006 -0.004,0.009 -0.004,0.003 -0.009,0.006 -0.015,0.009 -0.024,0.009 -0.036,0.023 -0.036,0.043 0,0.01 0.004,0.018 0.01,0.025 0.007,0.007 0.016,0.01 0.027,0.01 0.011,-0 0.018,0.003 0.021,0.011 0.001,0.003 0.001,0.006 -0,0.009 -0.001,0.003 -0.004,0.006 -0.007,0.008 -0.005,0.003 -0.014,0.003 -0.027,0.002 -0.002,-0 -0.005,-0.001 -0.008,-0.001l-0.009 -0.001c-0.007,-0.001 -0.013,-0.002 -0.018,-0.002 -0.013,-0.001 -0.024,0.001 -0.031,0.004 -0.009,0.005 -0.014,0.014 -0.015,0.027 -0.001,0.015 0.005,0.03 0.02,0.044 0.013,0.013 0.031,0.024 0.053,0.032 0.022,0.008 0.044,0.011 0.066,0.01 0.024,-0.002 0.043,-0.009 0.058,-0.021 0.021,-0.017 0.032,-0.04 0.035,-0.068 0.002,-0.025 -0.003,-0.046 -0.016,-0.065zm0.419 -0.182c-0.004,0.005 -0.007,0.011 -0.008,0.02 -0.001,0.006 -0.002,0.013 -0.003,0.023l0 0.006 -0 0.006c0,0.005 -0,0.009 -0,0.012l-0.002 -0.011c-0.001,-0.004 -0.001,-0.008 -0.001,-0.012 -0,-0.008 0,-0.016 0.002,-0.024 0.002,-0.01 0.005,-0.017 0.01,-0.022 0.003,-0.003 0.006,-0.005 0.01,-0.006 0.004,-0.001 0.007,-0.001 0.011,-0.001 -0.008,0.001 -0.014,0.004 -0.019,0.009zm-0.024 0.183c-0.003,0.003 -0.007,0.005 -0.01,0.006 -0.004,0.001 -0.008,0.002 -0.012,0.001 0.008,-0.002 0.014,-0.005 0.019,-0.01 0.003,-0.003 0.008,-0.01 0.012,-0.019 -0,0.009 -0.003,0.017 -0.009,0.023zm-0.088 -0.16c-0.002,0.003 -0.003,0.005 -0.005,0.008 -0.001,0.003 -0.002,0.006 -0.003,0.009 -0.002,0.005 -0.003,0.011 -0.004,0.019 -0.001,0.006 -0.002,0.013 -0.002,0.02 -0.002,-0.014 -0.002,-0.028 0.002,-0.041 0.002,-0.008 0.006,-0.014 0.01,-0.018 0.002,-0.003 0.005,-0.005 0.008,-0.006 0.003,-0.001 0.006,-0.001 0.01,-0.001 -0.006,0.001 -0.012,0.004 -0.015,0.009zm-0.03 0.163c-0.003,0.003 -0.006,0.004 -0.009,0.005 -0.003,0.001 -0.007,0.001 -0.01,0 0.007,-0.002 0.012,-0.005 0.016,-0.009 0.002,-0.001 0.004,-0.004 0.007,-0.007l0.003 -0.004 0.003 -0.004c-0.001,0.008 -0.004,0.014 -0.01,0.019zm-0.082 -0.183c-0.005,0.004 -0.01,0.008 -0.014,0.014 -0.007,0.01 -0.013,0.022 -0.017,0.037 -0.004,0.011 -0.007,0.024 -0.009,0.04 -0.002,0.011 -0.003,0.025 -0.004,0.042 -0.001,-0.014 -0.001,-0.028 0.001,-0.042 0.002,-0.015 0.004,-0.029 0.008,-0.042 0.005,-0.015 0.011,-0.028 0.019,-0.037 0.005,-0.006 0.01,-0.011 0.015,-0.014 0.006,-0.004 0.013,-0.006 0.019,-0.005 -0.007,0.001 -0.012,0.003 -0.018,0.007zm0.246 -0.031c-0.017,-0.001 -0.031,0.005 -0.04,0.018 -0.01,0.014 -0.014,0.036 -0.012,0.064 0.003,0.045 0.003,0.077 0,0.094 -0.003,0.016 -0.008,0.024 -0.017,0.023 -0.01,-0.001 -0.013,-0.029 -0.009,-0.085 0.002,-0.03 -0.001,-0.053 -0.008,-0.069 -0.007,-0.015 -0.018,-0.022 -0.032,-0.022 -0.017,-0 -0.03,0.009 -0.038,0.028 -0.007,0.016 -0.01,0.035 -0.009,0.058 0.003,0.061 -0.003,0.091 -0.017,0.091 -0.006,0 -0.01,-0.006 -0.013,-0.017 -0.004,-0.014 -0.003,-0.035 0.001,-0.063 0.011,-0.074 0.001,-0.113 -0.028,-0.116 -0.012,-0.001 -0.023,0.002 -0.033,0.01 -0.011,0.007 -0.02,0.019 -0.028,0.034 -0.018,0.034 -0.026,0.081 -0.022,0.138 0.003,0.048 0.012,0.087 0.029,0.115 0.012,0.021 0.029,0.036 0.051,0.047 0.023,0.011 0.058,0.016 0.107,0.016 0.054,-0.001 0.093,-0.011 0.117,-0.029 0.022,-0.017 0.037,-0.043 0.047,-0.08 0.003,-0.013 0.006,-0.027 0.008,-0.042 0.001,-0.006 0.001,-0.011 0.002,-0.018 0,-0.002 0,-0.005 0,-0.007l0 -0.003 0 -0.003c0.004,-0.058 0.002,-0.102 -0.006,-0.132 -0.009,-0.032 -0.025,-0.048 -0.048,-0.05zm0.239 0.25c-0.003,0.005 -0.007,0.008 -0.011,0.01 -0.004,0.003 -0.009,0.004 -0.013,0.004 0.009,-0.004 0.016,-0.009 0.021,-0.017 0.005,-0.007 0.008,-0.016 0.01,-0.026 0.002,0.011 0,0.02 -0.006,0.029zm-0.049 -0.026c-0.001,-0.006 0,-0.012 0.003,-0.018 0.003,-0.005 0.007,-0.008 0.012,-0.009 0.005,-0.001 0.01,0.001 0.014,0.005 0.004,0.004 0.007,0.009 0.008,0.015 0.001,0.007 0,0.012 -0.003,0.017 -0.003,0.005 -0.007,0.008 -0.012,0.009 -0.005,0.001 -0.01,-0.001 -0.014,-0.005 -0.004,-0.004 -0.007,-0.009 -0.008,-0.015zm-0.012 -0.195c-0.012,0.005 -0.023,0.013 -0.032,0.022 -0.009,0.009 -0.017,0.019 -0.024,0.033l-0.002 0.005 -0.002 0.005 -0.004 0.009 -0.004 0.01 -0.004 0.01c0.003,-0.014 0.007,-0.028 0.013,-0.04 0.006,-0.013 0.014,-0.025 0.024,-0.034 0.01,-0.01 0.022,-0.018 0.034,-0.022 0.006,-0.002 0.012,-0.004 0.019,-0.005l0.005 -0.001 0.005 -0 0.01 0c-0.014,0.001 -0.027,0.004 -0.038,0.009zm0.078 -0.023c-0.048,-0.013 -0.088,-0.004 -0.121,0.026 -0.028,0.026 -0.046,0.064 -0.053,0.114 -0.007,0.048 -0.002,0.092 0.015,0.133 0.018,0.044 0.046,0.072 0.084,0.083 0.036,0.011 0.069,0.001 0.101,-0.03 0.029,-0.028 0.049,-0.065 0.061,-0.112 0.012,-0.048 0.012,-0.092 -0.001,-0.13 -0.015,-0.043 -0.044,-0.071 -0.087,-0.082zm0.325 0.02c-0.002,0.001 -0.004,0.003 -0.006,0.006 -0.003,0.004 -0.005,0.009 -0.006,0.016 -0.002,0.01 -0.002,0.022 -0.002,0.036l0 0.005 0 0.005c0,0.004 0,0.007 -0,0.01 -0.001,0.007 -0.002,0.013 -0.004,0.019 -0.002,0.006 -0.006,0.011 -0.01,0.016 -0.005,0.004 -0.01,0.007 -0.015,0.009 0.011,-0.005 0.018,-0.014 0.022,-0.026 0.002,-0.006 0.003,-0.012 0.003,-0.018 0,-0.002 0,-0.005 0,-0.009l-0 -0.005 0 -0.005c-0,-0.015 0.001,-0.028 0.003,-0.037 0.002,-0.008 0.005,-0.013 0.008,-0.017 0.002,-0.003 0.005,-0.004 0.007,-0.005 0.002,-0.001 0.005,-0.001 0.008,-0.001 -0.003,0.001 -0.006,0.001 -0.008,0.002zm-0.158 0.006c-0.006,0.006 -0.01,0.014 -0.013,0.023 -0.002,0.008 -0.005,0.017 -0.007,0.027l-0.003 0.013 -0.003 0.014c0,-0.019 0.004,-0.038 0.009,-0.056 0.003,-0.01 0.008,-0.018 0.014,-0.024 0.003,-0.004 0.007,-0.006 0.011,-0.008 0.005,-0.002 0.009,-0.002 0.013,-0.002 -0.008,0.001 -0.016,0.005 -0.022,0.013zm0.165 -0.028c-0.016,0.001 -0.027,0.009 -0.034,0.023 -0.007,0.014 -0.009,0.036 -0.008,0.065 0,0.013 -0.002,0.023 -0.008,0.029 -0.005,0.006 -0.011,0.008 -0.018,0.007 -0.008,-0.001 -0.013,-0.004 -0.017,-0.011 -0.004,-0.007 -0.005,-0.015 -0.004,-0.026 0.003,-0.03 0,-0.052 -0.008,-0.067 -0.008,-0.013 -0.02,-0.022 -0.037,-0.025 -0.014,-0.002 -0.027,0.001 -0.038,0.011 -0.011,0.009 -0.019,0.022 -0.024,0.038 -0.01,0.032 -0.015,0.069 -0.015,0.112 -0,0.042 0.003,0.081 0.012,0.119 0.006,0.028 0.016,0.048 0.029,0.06 0.011,0.01 0.023,0.014 0.037,0.012 0.03,-0.005 0.043,-0.029 0.04,-0.071 -0.002,-0.031 0.004,-0.047 0.018,-0.047 0.007,0 0.012,0.003 0.016,0.009 0.005,0.008 0.007,0.02 0.007,0.036 -0.001,0.028 0.003,0.049 0.012,0.064 0.009,0.014 0.021,0.021 0.038,0.021 0.028,0 0.047,-0.019 0.058,-0.056 0.008,-0.027 0.013,-0.072 0.015,-0.135 0.001,-0.048 -0.004,-0.089 -0.017,-0.121 -0.013,-0.034 -0.031,-0.05 -0.053,-0.049z"/>
     <path class="fil1" d="M3.746 0.948l-0.003 0.001c-0.003,0.001 -0.005,0.002 -0.007,0.002 -0.006,0.001 -0.01,0.002 -0.015,0.001 0.005,-0.001 0.01,-0.002 0.014,-0.004l0.003 -0.001 0.003 -0.001c0.003,-0.001 0.005,-0.002 0.007,-0.003 0.005,-0.002 0.01,-0.003 0.015,-0.004 0.006,-0.001 0.01,-0.001 0.015,0 -0.008,0.002 -0.017,0.005 -0.028,0.008l-0.004 0.001zm-0.068 -0.236c-0.007,0.002 -0.014,0.005 -0.019,0.008 -0.007,0.004 -0.012,0.009 -0.017,0.014 -0.005,0.005 -0.009,0.011 -0.012,0.018 -0.006,0.011 -0.011,0.025 -0.015,0.043 -0.002,0.007 -0.003,0.015 -0.004,0.023 -0.001,0.003 -0.001,0.007 -0.002,0.011l-0.002 0.012c0,-0.016 0.002,-0.032 0.005,-0.047 0.003,-0.017 0.008,-0.032 0.014,-0.045 0.004,-0.008 0.009,-0.014 0.013,-0.019 0.006,-0.006 0.012,-0.01 0.018,-0.013 0.006,-0.003 0.013,-0.006 0.021,-0.007 0.008,-0.002 0.015,-0.002 0.021,-0.002 -0.008,0.001 -0.015,0.002 -0.021,0.004zm0.045 0.135l0.002 -0.001c0.002,-0.001 0.003,-0.001 0.004,-0.001 0.003,-0 0.006,-0 0.008,0 0.003,0.001 0.005,0.002 0.007,0.005 -0.002,-0.001 -0.004,-0.001 -0.007,-0.001 -0.002,0 -0.005,0 -0.007,0.001l-0.002 0 -0.002 0c-0.002,0 -0.003,0.001 -0.004,0.001 -0.003,0 -0.006,-0 -0.008,-0.001l0.004 -0.001 0.004 -0.001 0.002 -0.001zm0.011 0.082c-0.008,0.003 -0.015,0.004 -0.021,0.002 -0.005,-0.002 -0.008,-0.005 -0.009,-0.011 -0.001,-0.005 -0.001,-0.01 0.002,-0.014 0.003,-0.005 0.007,-0.007 0.013,-0.008 0.017,-0.002 0.029,-0.007 0.037,-0.015 0.007,-0.007 0.011,-0.017 0.01,-0.028 -0.001,-0.011 -0.005,-0.018 -0.014,-0.023 -0.009,-0.005 -0.019,-0.006 -0.031,-0.003 -0.01,0.003 -0.017,-0 -0.02,-0.009 -0.001,-0.004 -0.001,-0.008 -0,-0.011 0.001,-0.004 0.003,-0.007 0.006,-0.01 0.004,-0.004 0.011,-0.006 0.02,-0.007 0.003,-0.001 0.007,-0.001 0.012,-0.001l0.006 -0 0.007 -0.001c0.01,-0.001 0.018,-0.003 0.024,-0.005 0.008,-0.004 0.013,-0.009 0.017,-0.017 0.005,-0.013 0.003,-0.027 -0.007,-0.041 -0.009,-0.013 -0.023,-0.023 -0.042,-0.031 -0.019,-0.008 -0.039,-0.01 -0.059,-0.008 -0.022,0.003 -0.041,0.012 -0.057,0.028 -0.015,0.015 -0.025,0.038 -0.032,0.07 -0.007,0.03 -0.009,0.062 -0.008,0.097 0.001,0.035 0.006,0.067 0.015,0.094 0.009,0.03 0.021,0.05 0.036,0.06 0.014,0.01 0.032,0.015 0.053,0.014 0.019,-0.001 0.039,-0.006 0.058,-0.015 0.019,-0.009 0.035,-0.02 0.047,-0.034 0.013,-0.015 0.019,-0.029 0.02,-0.044 0,-0.02 -0.007,-0.032 -0.021,-0.038 -0.015,-0.006 -0.036,-0.004 -0.062,0.007zm0.264 -0.089c-0.002,0.005 -0.004,0.009 -0.008,0.013 -0.004,0.004 -0.008,0.007 -0.012,0.009 -0.005,0.002 -0.01,0.003 -0.014,0.001 0.005,-0.001 0.009,-0.003 0.013,-0.005 0.004,-0.002 0.007,-0.005 0.01,-0.009 0.006,-0.007 0.01,-0.015 0.013,-0.025 0,0.005 -0,0.01 -0.002,0.015zm-0.042 -0.022c0.002,-0.005 0.006,-0.009 0.01,-0.011 0.004,-0.002 0.008,-0.002 0.011,-0.001 0.003,0.002 0.005,0.005 0.006,0.01 0.001,0.005 -0,0.01 -0.003,0.015 -0.002,0.005 -0.005,0.009 -0.009,0.011 -0.004,0.002 -0.008,0.002 -0.011,0.001 -0.003,-0.002 -0.005,-0.005 -0.006,-0.01 -0.001,-0.005 0,-0.01 0.002,-0.015zm-0.036 -0.101c-0.011,0.005 -0.02,0.013 -0.027,0.022 -0.007,0.008 -0.014,0.019 -0.019,0.031 -0.004,0.01 -0.008,0.021 -0.012,0.035 0,-0.005 0.001,-0.011 0.003,-0.019 0.002,-0.006 0.003,-0.013 0.006,-0.018 0.005,-0.012 0.011,-0.023 0.019,-0.033 0.008,-0.01 0.018,-0.017 0.029,-0.022 0.005,-0.002 0.011,-0.004 0.017,-0.005 0.006,-0.001 0.012,-0.002 0.017,-0.002 -0.013,0.002 -0.024,0.005 -0.033,0.01zm0.044 -0.03c-0.031,-0 -0.057,0.009 -0.078,0.028 -0.018,0.017 -0.031,0.041 -0.039,0.071 -0.007,0.028 -0.009,0.059 -0.005,0.092 0.003,0.032 0.011,0.063 0.023,0.09 0.011,0.027 0.024,0.047 0.039,0.062 0.012,0.013 0.025,0.02 0.038,0.021 0.011,0.001 0.021,-0.002 0.029,-0.011 0.008,-0.009 0.013,-0.02 0.015,-0.034 0.001,-0.01 0.001,-0.021 -0.001,-0.034 -0.001,-0.004 -0.002,-0.009 -0.003,-0.015l-0.001 -0.007c-0,-0.003 -0.001,-0.005 -0.001,-0.007 -0.001,-0.01 -0.001,-0.018 0,-0.023 0.002,-0.007 0.007,-0.012 0.015,-0.016 0.025,-0.013 0.044,-0.032 0.057,-0.057 0.012,-0.023 0.017,-0.047 0.014,-0.072 -0.003,-0.025 -0.013,-0.046 -0.03,-0.062 -0.018,-0.018 -0.043,-0.027 -0.073,-0.027z"/>
    </g>
   </g>
  </g>
  <path class="fil2 str0" d="M0.181 0.008l0.934 0c0,0.153 0,0.306 0,0.459 -0.001,0.04 -0.065,0.018 -0.107,-0.02 -0.296,-0.238 -0.358,0.436 -0,0.217 0.057,-0.043 0.109,-0.072 0.107,-0.019l0 0.467c-0.315,0 -0.63,0 -0.945,0 -0.209,0 -0.161,0.023 -0.161,-0.206 0,-0.281 0,-0.469 0,-0.749 0,-0.187 -0.023,-0.15 0.172,-0.15z"/>
 </g>
</svg>
