<?xml version="1.0" encoding="UTF-8"?>
<!DOCTYPE svg PUBLIC "-//W3C//DTD SVG 1.1//EN" "http://www.w3.org/Graphics/SVG/1.1/DTD/svg11.dtd">
<!-- Creator: CorelDRAW 2019 (64-Bit) -->
<svg xmlns="http://www.w3.org/2000/svg" xml:space="preserve" width="1.46444cm" height="0.508cm" version="1.1" style="shape-rendering:geometricPrecision; text-rendering:geometricPrecision; image-rendering:optimizeQuality; fill-rule:evenodd; clip-rule:evenodd"
viewBox="0 0 0.977 0.339"
 xmlns:xlink="http://www.w3.org/1999/xlink"
 xmlns:xodm="http://www.corel.com/coreldraw/odm/2003">
 <defs>
  <style type="text/css">
   <![CDATA[
    .fil0 {fill:#9C6921;fill-rule:nonzero}
   ]]>
  </style>
 </defs>
 <g id="Слой_x0020_1">
  <metadata id="CorelCorpID_0Corel-Layer"/>
  <path class="fil0" d="M-0 0l0.279 0 0 0.017 -0.024 0c-0.005,0 -0.009,0.001 -0.011,0.004 -0.002,0.003 -0.004,0.007 -0.004,0.013l0 0.194c0,0.007 0.001,0.011 0.004,0.014 0.003,0.002 0.008,0.004 0.015,0.004l0.019 0 0 0.017 -0.117 0 0 -0.017 0.019 0c0.007,0 0.013,-0.001 0.015,-0.004 0.003,-0.002 0.004,-0.007 0.004,-0.014l0 -0.195c0,-0.006 -0.001,-0.011 -0.004,-0.013 -0.002,-0.003 -0.006,-0.004 -0.012,-0.004l-0.004 0 -0.089 0c-0.005,0 -0.009,0.001 -0.011,0.004 -0.002,0.003 -0.003,0.007 -0.003,0.013l0 0.195c0,0.007 0.001,0.011 0.004,0.014 0.003,0.002 0.008,0.004 0.015,0.004l0.019 0 0 0.017 -0.116 0 0 -0.017 0.019 0c0.008,0 0.013,-0.001 0.015,-0.004 0.003,-0.002 0.004,-0.007 0.004,-0.014l0 -0.194c0,-0.006 -0.001,-0.011 -0.004,-0.013 -0.002,-0.003 -0.006,-0.004 -0.012,-0.004l-0.004 0 -0.019 0 0 -0.017zm0.377 0.259l-0.058 -0.133c-0.002,-0.006 -0.006,-0.01 -0.009,-0.012 -0.004,-0.002 -0.009,-0.003 -0.017,-0.003l-0.002 0 0 -0.015 0.085 0 0 0.015 -0.01 0 -0.005 0c-0.003,0 -0.005,0.001 -0.007,0.002 -0.002,0.001 -0.002,0.003 -0.002,0.006 0,0.001 0,0.002 0.001,0.005 0.001,0.002 0.002,0.004 0.003,0.007l0.039 0.089 0.036 -0.087c0.001,-0.001 0.001,-0.002 0.001,-0.004 0,-0.001 0.001,-0.003 0.001,-0.004 0,-0.005 -0.002,-0.008 -0.005,-0.009 -0.003,-0.002 -0.01,-0.003 -0.021,-0.003l-0 -0.015 0.07 0 0 0.015c-0.007,0 -0.012,0.002 -0.016,0.005 -0.004,0.003 -0.008,0.008 -0.011,0.015l-0.062 0.143c-0.01,0.024 -0.021,0.041 -0.032,0.051 -0.011,0.01 -0.024,0.015 -0.039,0.015 -0.01,0 -0.019,-0.002 -0.025,-0.008 -0.006,-0.005 -0.009,-0.012 -0.009,-0.021 0,-0.006 0.002,-0.011 0.006,-0.015 0.004,-0.004 0.009,-0.006 0.015,-0.006 0.006,0 0.011,0.002 0.014,0.005 0.003,0.003 0.005,0.008 0.005,0.014 0,0.002 -0,0.004 -0.002,0.006 -0.001,0.002 -0.002,0.003 -0.002,0.003 0,0.001 0.001,0.002 0.002,0.003 0.001,0.001 0.003,0.001 0.005,0.001 0.007,0 0.014,-0.005 0.022,-0.016 0.008,-0.01 0.016,-0.024 0.023,-0.041l0.003 -0.006zm0.251 -0.135c0,-0.005 -0.001,-0.009 -0.002,-0.011 -0.002,-0.002 -0.005,-0.003 -0.01,-0.003l-0.017 -0.001 0 -0.015 0.091 0 0 0.015 -0.017 0.001c-0.005,0 -0.008,0.001 -0.01,0.003 -0.002,0.002 -0.002,0.005 -0.002,0.011l0 0.11c0,0.005 0.001,0.009 0.002,0.011 0.002,0.002 0.005,0.003 0.01,0.003l0.016 0.001 0 0.015 -0.091 0 0 -0.015 0.017 -0.001c0.005,-0 0.009,-0.001 0.01,-0.003 0.002,-0.002 0.002,-0.005 0.002,-0.011l0 -0.051 -0.076 0 0 0.051c0,0.005 0.001,0.009 0.002,0.011 0.002,0.002 0.005,0.003 0.01,0.003l0.017 0.001 0 0.015 -0.091 0 0 -0.015 0.017 -0.001c0.005,-0 0.008,-0.001 0.01,-0.003 0.002,-0.002 0.002,-0.005 0.002,-0.011l0 -0.11c0,-0.005 -0.001,-0.009 -0.002,-0.011 -0.002,-0.002 -0.005,-0.003 -0.01,-0.003l-0.017 -0.001 0 -0.015 0.091 0 0 0.015 -0.017 0.001c-0.005,0 -0.008,0.001 -0.01,0.003 -0.002,0.002 -0.002,0.005 -0.002,0.011l0 0.043 0.076 0 0 -0.043zm0.258 0.139l0 -0.015 0.017 -0.001c0.005,-0 0.008,-0.001 0.01,-0.003 0.002,-0.002 0.002,-0.005 0.002,-0.011l0 -0.11c0,-0.005 -0.001,-0.009 -0.002,-0.011 -0.002,-0.002 -0.005,-0.003 -0.01,-0.003l-0.017 -0.001 0 -0.015 0.091 0 0 0.015 -0.017 0.001c-0.005,0 -0.008,0.001 -0.01,0.003 -0.002,0.002 -0.002,0.005 -0.002,0.011l0 0.11c0,0.005 0.001,0.009 0.002,0.011 0.002,0.002 0.005,0.003 0.01,0.003l0.016 0.001 0 0.015 -0.091 0zm-0.112 -0.084l0 0.055c0,0.005 0.001,0.009 0.002,0.011 0.002,0.002 0.005,0.003 0.01,0.003l0.014 0c0.015,0 0.026,-0.003 0.032,-0.008 0.006,-0.005 0.01,-0.013 0.01,-0.025 0,-0.013 -0.004,-0.023 -0.011,-0.028 -0.007,-0.005 -0.021,-0.008 -0.04,-0.008l-0.018 0zm0 -0.015l0.036 0c0.023,0 0.04,0.004 0.052,0.013 0.012,0.008 0.018,0.02 0.018,0.036 0,0.017 -0.006,0.029 -0.017,0.038 -0.011,0.009 -0.027,0.013 -0.048,0.013l-0.103 0 0 -0.015 0.017 -0.001c0.005,-0 0.009,-0.001 0.01,-0.003 0.002,-0.002 0.002,-0.005 0.002,-0.011l0 -0.11c0,-0.005 -0.001,-0.009 -0.002,-0.011 -0.002,-0.002 -0.005,-0.003 -0.01,-0.003l-0.017 -0.001 0 -0.015 0.091 0 0 0.015 -0.017 0.001c-0.005,0 -0.008,0.001 -0.01,0.003 -0.002,0.002 -0.002,0.005 -0.002,0.011l0 0.04z"/>
 </g>
</svg>
