<?xml version="1.0" encoding="UTF-8"?>
<!DOCTYPE svg PUBLIC "-//W3C//DTD SVG 1.1//EN" "http://www.w3.org/Graphics/SVG/1.1/DTD/svg11.dtd">
<!-- Creator: CorelDRAW 2019 (64-Bit) -->
<svg xmlns="http://www.w3.org/2000/svg" xml:space="preserve" width="220.621mm" height="69.3508mm" version="1.1" style="shape-rendering:geometricPrecision; text-rendering:geometricPrecision; image-rendering:optimizeQuality; fill-rule:evenodd; clip-rule:evenodd"
viewBox="0 0 7130.62 2241.46"
 xmlns:xlink="http://www.w3.org/1999/xlink"
 xmlns:xodm="http://www.corel.com/coreldraw/odm/2003">
 <defs>
  <style type="text/css">
   <![CDATA[
    .fil0 {fill:#EEF0A9}
   ]]>
  </style>
 </defs>
 <g id="Слой_x0020_1">
  <metadata id="CorelCorpID_0Corel-Layer"/>
  <path class="fil0" d="M5713.59 1609.18c487.91,-243.49 439.2,-412.68 1122.12,-637.56 45.58,-15 99.83,-26.11 146.98,-37.86 25.59,-6.38 147.92,-21.54 147.92,-44.31 0,-63.88 -264.27,-118.3 -354.89,-118.3 -162.08,0 -212.44,1.05 -372.64,41.41 -29.61,7.45 -55.24,17.07 -85.76,17.75 -17.32,-74.29 -136.23,-196.89 -186.8,-242.03 -1013.59,-904.97 -5071.81,-728.49 -5903.65,273.52 -481.94,586.19 -135.18,935.88 470.33,1137.65 1302.68,434.07 3688.39,272.49 5016.39,-390.26z"/>
 </g>
</svg>
