<?xml version="1.0" encoding="UTF-8"?>
<!DOCTYPE svg PUBLIC "-//W3C//DTD SVG 1.1//EN" "http://www.w3.org/Graphics/SVG/1.1/DTD/svg11.dtd">
<!-- Creator: CorelDRAW 2019 (64-Bit) -->
<svg xmlns="http://www.w3.org/2000/svg" xml:space="preserve" width="1.17918cm" height="0.40639cm" version="1.1" style="shape-rendering:geometricPrecision; text-rendering:geometricPrecision; image-rendering:optimizeQuality; fill-rule:evenodd; clip-rule:evenodd"
viewBox="0 0 0.633 0.218"
 xmlns:xlink="http://www.w3.org/1999/xlink"
 xmlns:xodm="http://www.corel.com/coreldraw/odm/2003">
 <defs>
  <style type="text/css">
   <![CDATA[
    .fil0 {fill:#9C6921;fill-rule:nonzero}
   ]]>
  </style>
 </defs>
 <g id="Слой_x0020_1">
  <metadata id="CorelCorpID_0Corel-Layer"/>
  <path class="fil0" d="M0.063 0.028l0 0.077c0.002,0 0.004,0.001 0.007,0.001 0.002,0 0.006,0 0.011,0 0.025,0 0.042,-0.003 0.051,-0.01 0.009,-0.007 0.014,-0.019 0.014,-0.037 0,-0.016 -0.004,-0.028 -0.011,-0.035 -0.008,-0.007 -0.021,-0.01 -0.04,-0.01l-0.015 0c-0.001,0 -0.001,0 -0.002,0 -0,0 -0,0 -0,0 -0.005,0 -0.008,0.001 -0.01,0.003 -0.002,0.002 -0.003,0.006 -0.003,0.011zm-0.063 0.186l0 -0.014 0.015 0c0.006,0 0.01,-0.001 0.012,-0.003 0.002,-0.002 0.003,-0.006 0.003,-0.011l0 -0.157c0,-0.005 -0.001,-0.009 -0.003,-0.011 -0.002,-0.002 -0.005,-0.003 -0.01,-0.003l-0.003 0 -0.015 0 0 -0.014 0.102 0c0.027,0 0.047,0.005 0.06,0.014 0.013,0.009 0.019,0.024 0.019,0.045 0,0.02 -0.007,0.035 -0.022,0.045 -0.015,0.01 -0.037,0.015 -0.066,0.015 -0.007,0 -0.013,-0 -0.017,-0 -0.004,-0 -0.008,-0 -0.013,-0.001l0 0.067c0,0.005 0.001,0.009 0.003,0.011 0.002,0.002 0.006,0.003 0.012,0.003l0.018 0 0 0.014 -0.097 0zm0.268 -0.129c-0.013,0 -0.022,0.005 -0.027,0.015 -0.006,0.01 -0.009,0.025 -0.009,0.047 0,0.021 0.003,0.037 0.009,0.046 0.006,0.01 0.015,0.015 0.027,0.015 0.013,0 0.022,-0.005 0.028,-0.014 0.006,-0.01 0.009,-0.025 0.009,-0.046 0,-0.021 -0.003,-0.037 -0.009,-0.047 -0.006,-0.01 -0.015,-0.015 -0.027,-0.015zm0 -0.012c0.02,0 0.035,0.007 0.048,0.02 0.012,0.014 0.018,0.031 0.018,0.053 0,0.022 -0.006,0.039 -0.018,0.053 -0.012,0.013 -0.028,0.02 -0.048,0.02 -0.02,0 -0.036,-0.007 -0.048,-0.02 -0.012,-0.013 -0.019,-0.031 -0.019,-0.053 0,-0.022 0.006,-0.039 0.018,-0.053 0.012,-0.014 0.028,-0.02 0.048,-0.02zm0.097 0.001l0.008 0 0.007 0.012c0.005,-0.004 0.01,-0.007 0.016,-0.009 0.006,-0.002 0.012,-0.003 0.018,-0.003 0.014,0 0.024,0.003 0.032,0.01 0.008,0.006 0.012,0.015 0.012,0.026 0,0.008 -0.003,0.015 -0.008,0.021 -0.006,0.006 -0.014,0.009 -0.024,0.011 0.012,0.001 0.021,0.005 0.028,0.012 0.007,0.006 0.01,0.015 0.01,0.024 0,0.013 -0.006,0.023 -0.017,0.031 -0.011,0.008 -0.026,0.011 -0.044,0.011 -0.016,0 -0.028,-0.003 -0.037,-0.01 -0.009,-0.006 -0.014,-0.015 -0.014,-0.026 0,-0.006 0.002,-0.012 0.005,-0.016 0.003,-0.004 0.008,-0.006 0.013,-0.006 0.005,0 0.009,0.001 0.012,0.004 0.003,0.003 0.004,0.006 0.004,0.011 0,0.006 -0.002,0.01 -0.007,0.012 -0.005,0.002 -0.007,0.004 -0.007,0.004 0,0.004 0.003,0.007 0.008,0.01 0.005,0.003 0.012,0.004 0.02,0.004 0.01,0 0.019,-0.003 0.025,-0.008 0.006,-0.005 0.009,-0.013 0.009,-0.022 0,-0.01 -0.003,-0.018 -0.008,-0.023 -0.005,-0.005 -0.014,-0.007 -0.025,-0.007l-0.008 0 0 -0.011 0.008 0c0.01,0 0.018,-0.002 0.023,-0.007 0.005,-0.005 0.008,-0.011 0.008,-0.02 0,-0.008 -0.002,-0.014 -0.006,-0.018 -0.004,-0.004 -0.01,-0.007 -0.016,-0.007 -0.008,0 -0.016,0.003 -0.023,0.01 -0.007,0.007 -0.011,0.016 -0.013,0.028l-0.011 0 0.002 -0.049zm0.213 0.067c-0.022,0.003 -0.038,0.007 -0.048,0.013 -0.01,0.006 -0.015,0.014 -0.015,0.025 0,0.008 0.002,0.014 0.006,0.018 0.004,0.004 0.01,0.006 0.018,0.006 0.012,0 0.022,-0.004 0.029,-0.011 0.007,-0.007 0.011,-0.018 0.011,-0.031l0 -0.02zm0.002 0.055c-0.005,0.007 -0.013,0.013 -0.023,0.017 -0.01,0.004 -0.02,0.007 -0.03,0.007 -0.012,0 -0.022,-0.003 -0.03,-0.01 -0.007,-0.007 -0.011,-0.015 -0.011,-0.026 0,-0.014 0.007,-0.026 0.021,-0.034 0.014,-0.009 0.038,-0.015 0.07,-0.021l0 -0.021c0,-0.007 -0.003,-0.012 -0.008,-0.016 -0.005,-0.004 -0.013,-0.006 -0.023,-0.006 -0.008,0 -0.014,0.001 -0.019,0.003 -0.005,0.002 -0.007,0.005 -0.007,0.008 0,0.001 0.001,0.003 0.003,0.006 0.002,0.003 0.004,0.007 0.004,0.011 0,0.005 -0.001,0.008 -0.004,0.011 -0.003,0.003 -0.006,0.004 -0.011,0.004 -0.005,0 -0.01,-0.001 -0.013,-0.004 -0.003,-0.003 -0.005,-0.007 -0.005,-0.012 0,-0.011 0.005,-0.02 0.016,-0.027 0.011,-0.007 0.024,-0.011 0.041,-0.011 0.019,0 0.033,0.003 0.041,0.01 0.009,0.007 0.013,0.018 0.013,0.033l0 0 0 0.07c0,0.004 0.001,0.007 0.003,0.009 0.002,0.002 0.005,0.003 0.008,0.003 0.002,0 0.005,-0.001 0.007,-0.002 0.003,-0.001 0.004,-0.002 0.005,-0.002 0.001,0 0.002,0 0.003,0.001 0.001,0.001 0.001,0.002 0.001,0.003 0,0.004 -0.003,0.008 -0.008,0.012 -0.006,0.004 -0.012,0.006 -0.019,0.006 -0.007,0 -0.012,-0.002 -0.017,-0.006 -0.004,-0.004 -0.007,-0.009 -0.008,-0.016z"/>
 </g>
</svg>
