<?xml version="1.0" encoding="UTF-8"?>
<!DOCTYPE svg PUBLIC "-//W3C//DTD SVG 1.1//EN" "http://www.w3.org/Graphics/SVG/1.1/DTD/svg11.dtd">
<!-- Creator: CorelDRAW 2019 (64-Bit) -->
<svg xmlns="http://www.w3.org/2000/svg" xml:space="preserve" width="9.7863mm" height="7.3099mm" version="1.1" style="shape-rendering:geometricPrecision; text-rendering:geometricPrecision; image-rendering:optimizeQuality; fill-rule:evenodd; clip-rule:evenodd"
viewBox="0 0 6.1 4.56"
 xmlns:xlink="http://www.w3.org/1999/xlink"
 xmlns:xodm="http://www.corel.com/coreldraw/odm/2003">
 <defs>
  <style type="text/css">
   <![CDATA[
    .fil0 {fill:#EDF1A7}
    .fil1 {fill:#C4A655;fill-rule:nonzero}
   ]]>
  </style>
 </defs>
 <g id="Слой_x0020_1">
  <metadata id="CorelCorpID_0Corel-Layer"/>
  <path class="fil0" d="M3.19 1.28c-1.3,0 -2.35,0.88 -2.35,1.96 0,1.08 1.03,1.32 2.33,1.32 1.3,0 2.37,-0.24 2.37,-1.32 0,-1.08 -1.05,-1.96 -2.35,-1.96z"/>
  <ellipse class="fil0" transform="matrix(-1.12475 -0.24905 -0.226492 0.927485 3.95255 0.516666)" rx="0.56" ry="0.54"/>
  <ellipse class="fil0" transform="matrix(-1.11419 0.280277 0.243953 0.969787 2.1403 0.608279)" rx="0.56" ry="0.52"/>
  <ellipse class="fil0" transform="matrix(-0.86054 0.509382 0.451524 0.762795 0.585939 1.56001)" rx="0.6" ry="0.62"/>
  <ellipse class="fil0" transform="matrix(-0.778223 -0.672232 -0.554266 0.622581 5.48047 1.34731)" rx="0.67" ry="0.62"/>
  <path class="fil1" d="M2.45 2.9c-0.01,0.02 -0.01,0.03 -0.03,0.04 -0.01,0.01 -0.02,0.02 -0.04,0.03 -0.02,0.01 -0.03,0.01 -0.05,0 0.02,-0 0.03,-0.01 0.04,-0.02 0.01,-0.01 0.02,-0.02 0.03,-0.03 0.02,-0.02 0.03,-0.05 0.04,-0.08 0,0.02 -0,0.03 -0.01,0.05zm-0.14 -0.07c0.01,-0.02 0.02,-0.03 0.03,-0.04 0.01,-0.01 0.02,-0.01 0.04,-0 0.01,0.01 0.02,0.02 0.02,0.03 0,0.02 -0,0.03 -0.01,0.05 -0.01,0.02 -0.02,0.03 -0.03,0.04 -0.01,0.01 -0.03,0.01 -0.04,0 -0.01,-0.01 -0.02,-0.02 -0.02,-0.03 -0,-0.02 0,-0.03 0.01,-0.05zm-0.12 -0.32c-0.03,0.02 -0.06,0.04 -0.09,0.07 -0.02,0.03 -0.04,0.06 -0.06,0.1 -0.01,0.03 -0.03,0.07 -0.04,0.11 0,-0.02 0,-0.04 0.01,-0.06 0,-0.02 0.01,-0.04 0.02,-0.06 0.01,-0.04 0.03,-0.07 0.06,-0.11 0.03,-0.03 0.06,-0.06 0.09,-0.07 0.02,-0.01 0.04,-0.01 0.06,-0.02 0.02,-0 0.04,-0.01 0.06,-0.01 -0.04,0.01 -0.08,0.02 -0.11,0.03zm0.14 -0.1c-0.1,-0 -0.19,0.03 -0.25,0.09 -0.06,0.05 -0.1,0.13 -0.12,0.23 -0.02,0.09 -0.03,0.19 -0.02,0.3 0.01,0.1 0.04,0.2 0.07,0.29 0.04,0.09 0.08,0.15 0.12,0.2 0.04,0.04 0.08,0.06 0.12,0.07 0.04,0 0.07,-0.01 0.1,-0.04 0.03,-0.03 0.04,-0.06 0.05,-0.11 0,-0.03 0,-0.07 -0,-0.11 -0,-0.01 -0,-0.03 -0.01,-0.05l-0 -0.02c-0,-0.01 -0,-0.02 -0,-0.02 -0,-0.03 -0,-0.06 0,-0.07 0.01,-0.02 0.02,-0.04 0.05,-0.05 0.08,-0.04 0.14,-0.1 0.18,-0.18 0.04,-0.07 0.05,-0.15 0.04,-0.23 -0.01,-0.08 -0.04,-0.15 -0.1,-0.2 -0.06,-0.06 -0.14,-0.09 -0.23,-0.09z"/>
  <path id="1" class="fil1" d="M3.44 2.5c-0.01,0.01 -0.02,0.02 -0.03,0.04 -0.02,0.02 -0.03,0.05 -0.05,0.08l-0.01 0.02 -0.01 0.02c-0.01,0.02 -0.02,0.03 -0.03,0.04 -0.01,0.02 -0.02,0.03 -0.03,0.04 -0.01,0.01 -0.03,0.02 -0.04,0.02 0.01,-0.01 0.03,-0.02 0.04,-0.03 0.01,-0.01 0.02,-0.02 0.03,-0.04 0.01,-0.01 0.01,-0.03 0.02,-0.04l0.02 -0.04c0.02,-0.04 0.04,-0.07 0.05,-0.08 0.01,-0.01 0.02,-0.03 0.03,-0.04 0.02,-0.01 0.03,-0.02 0.04,-0.02 -0.01,0 -0.03,0.01 -0.04,0.02zm-0.49 0.74c-0.01,0.01 -0.02,0.02 -0.03,0.02 -0.02,0.02 -0.04,0.04 -0.05,0.05 -0.01,0.01 -0.01,0.02 -0.02,0.03 -0,0.01 -0.01,0.02 -0.01,0.04 -0,-0.01 0,-0.03 0,-0.04 0,-0.01 0.01,-0.03 0.02,-0.04 0.01,-0.02 0.03,-0.04 0.05,-0.06 0.02,-0.01 0.04,-0.03 0.06,-0.05l0.02 -0.01 0.02 -0.01c0.01,-0.01 0.02,-0.02 0.03,-0.02 -0.01,0.02 -0.03,0.04 -0.06,0.05l-0.03 0.02zm-0.13 -0.67c-0.01,0.01 -0.01,0.02 -0.02,0.04 -0,0.01 -0.01,0.03 -0.01,0.05 -0.01,-0.01 -0.01,-0.03 -0.01,-0.05 0,-0.02 0.01,-0.03 0.02,-0.05 0.01,-0.01 0.02,-0.02 0.04,-0.03 0.01,-0.01 0.03,-0.01 0.04,-0.01 -0.03,0.01 -0.05,0.02 -0.07,0.05zm0.65 -0.16c-0.03,0 -0.06,0.02 -0.09,0.05 -0.02,0.02 -0.05,0.06 -0.07,0.1l-0.02 0.03 -0.01 0.01 -0.01 0.01c-0.01,0.02 -0.02,0.04 -0.03,0.05 -0.02,0.03 -0.03,0.05 -0.05,0.05 -0.01,0 -0.04,-0.02 -0.07,-0.06l-0.01 -0.01 -0.01 -0.01c-0,-0.01 -0.01,-0.01 -0.01,-0.02 -0.01,-0.01 -0.02,-0.02 -0.03,-0.03 -0.02,-0.03 -0.05,-0.05 -0.07,-0.07 -0.04,-0.03 -0.08,-0.05 -0.12,-0.05 -0.04,0 -0.07,0.01 -0.1,0.04 -0.03,0.03 -0.04,0.06 -0.05,0.1 -0.01,0.04 0,0.09 0.02,0.13 0.02,0.03 0.04,0.06 0.07,0.1 0.01,0.01 0.03,0.03 0.04,0.04l0.02 0.02 0.02 0.02c0.03,0.03 0.06,0.06 0.07,0.07 0.02,0.02 0.03,0.05 0.03,0.07 0,0.02 -0.01,0.04 -0.03,0.06 -0.01,0.01 -0.02,0.02 -0.04,0.03l-0.01 0.01 -0.01 0.01 -0.02 0.02c-0.04,0.03 -0.07,0.06 -0.09,0.08 -0.03,0.04 -0.04,0.08 -0.04,0.12 -0,0.03 0,0.07 0.02,0.1 0.01,0.03 0.03,0.05 0.06,0.07 0.06,0.04 0.13,0.05 0.21,0.02 0.11,-0.04 0.22,-0.14 0.34,-0.31 0.1,-0.15 0.16,-0.3 0.19,-0.44 0.03,-0.14 0.03,-0.25 0,-0.32 -0.02,-0.06 -0.06,-0.09 -0.12,-0.09z"/>
  <path id="2" class="fil1" d="M4.33 3.13c-0,0 -0.01,0.01 -0.02,0.01l-0.01 0.01 -0.01 0.01c-0.01,0.01 -0.03,0.02 -0.04,0.02 -0.01,0 -0.03,0 -0.04,0 0.03,-0.01 0.05,-0.02 0.07,-0.03l0.01 -0.01 0.01 -0.01c0.01,-0.01 0.01,-0.01 0.02,-0.01 0.02,-0.01 0.03,-0.01 0.04,-0.01 -0.01,0 -0.03,0.01 -0.04,0.02zm-0.44 -0.55c-0.03,0.03 -0.05,0.06 -0.07,0.1 -0.02,0.03 -0.03,0.07 -0.05,0.12 0.01,-0.04 0.02,-0.09 0.04,-0.13 0.02,-0.04 0.04,-0.08 0.07,-0.11 0.03,-0.03 0.06,-0.06 0.1,-0.08 0.02,-0.01 0.04,-0.01 0.06,-0.02 0.02,-0 0.04,-0 0.06,-0 -0.04,0 -0.08,0.01 -0.12,0.03 -0.04,0.02 -0.07,0.04 -0.1,0.08zm0.6 0.63c-0.01,-0.09 -0.04,-0.14 -0.08,-0.16 -0.02,-0.01 -0.04,-0.01 -0.07,-0.01 -0.02,0.01 -0.05,0.02 -0.07,0.04 -0.02,0.02 -0.04,0.03 -0.07,0.02 -0.02,-0 -0.04,-0.01 -0.06,-0.03 -0.02,-0.02 -0.03,-0.05 -0.04,-0.08 -0.01,-0.04 -0.01,-0.07 -0.01,-0.12 0.01,-0.06 0.03,-0.09 0.08,-0.1 0.03,-0.01 0.08,0 0.14,0.03 0.03,0.01 0.05,0.01 0.07,-0 0.02,-0.01 0.04,-0.03 0.05,-0.05 0.01,-0.03 0.01,-0.05 0.01,-0.09 -0,-0.03 -0.02,-0.07 -0.04,-0.1 -0.05,-0.07 -0.11,-0.11 -0.18,-0.14 -0.07,-0.02 -0.14,-0.03 -0.21,-0.01 -0.09,0.02 -0.16,0.09 -0.22,0.19 -0.06,0.11 -0.1,0.25 -0.1,0.41 0,0.18 0.04,0.33 0.13,0.43 0.04,0.05 0.09,0.09 0.15,0.11 0.06,0.02 0.12,0.03 0.18,0.03 0.11,-0.01 0.2,-0.05 0.26,-0.13 0.06,-0.07 0.09,-0.15 0.08,-0.25z"/>
 </g>
</svg>
