<?xml version="1.0" encoding="UTF-8"?>
<!DOCTYPE svg PUBLIC "-//W3C//DTD SVG 1.1//EN" "http://www.w3.org/Graphics/SVG/1.1/DTD/svg11.dtd">
<!-- Creator: CorelDRAW 2019 (64-Bit) -->
<svg xmlns="http://www.w3.org/2000/svg" xml:space="preserve" width="55.7547mm" height="9.919mm" version="1.1" style="shape-rendering:geometricPrecision; text-rendering:geometricPrecision; image-rendering:optimizeQuality; fill-rule:evenodd; clip-rule:evenodd"
viewBox="0 0 201.03 35.76"
 xmlns:xlink="http://www.w3.org/1999/xlink"
 xmlns:xodm="http://www.corel.com/coreldraw/odm/2003">
 <defs>
  <style type="text/css">
   <![CDATA[
    .fil0 {fill:#E31E24;fill-rule:nonzero}
   ]]>
  </style>
 </defs>
 <g id="Слой_x0020_1">
  <metadata id="CorelCorpID_0Corel-Layer"/>
  <path class="fil0" d="M9.15 3.67c-0.14,0.07 -0.31,0.15 -0.5,0.24l-0.48 0.25 -0.48 0.26c-0.2,0.11 -0.35,0.21 -0.46,0.31 -0.53,0.34 -1.09,0.79 -1.68,1.35 -0.66,0.66 -1.13,1.2 -1.4,1.64 -0.79,1.13 -1.3,2.46 -1.54,3.99 -0.06,0.32 -0.11,0.68 -0.14,1.08l-0.07 1.11c-0.03,0.32 -0.06,0.69 -0.07,1.11l-0.02 1.11c-0.17,-1.58 -0.19,-3.06 -0.04,-4.45 0.16,-1.58 0.67,-2.98 1.51,-4.22l0.34 -0.46 0.36 -0.43c0.08,-0.12 0.2,-0.25 0.36,-0.41l0.21 -0.2 0.2 -0.21c0.72,-0.62 1.32,-1.07 1.81,-1.32 1.23,-0.76 2.63,-1.26 4.18,-1.5l-0.53 0.17 -0.53 0.16c-0.38,0.13 -0.72,0.26 -1.01,0.41zm16.95 4.5c-1.35,-2.89 -3.43,-4.98 -6.24,-6.26 -2.56,-1.17 -5.32,-1.51 -8.26,-1.01 -2.92,0.48 -5.39,1.66 -7.41,3.54 -2.19,2.02 -3.41,4.49 -3.68,7.41 -0.52,5.44 0.33,10.77 2.52,15.98 0.98,2.34 2.09,4.17 3.32,5.46 1.32,1.38 2.6,2 3.85,1.83 1.78,-0.22 2.87,-1.27 3.25,-3.13 0.44,-2.1 0.15,-5.73 -0.85,-10.9 -0.77,-4.09 -0.31,-6.25 1.37,-6.47 0.95,-0.12 1.68,0.6 2.22,2.14 0.48,1.44 0.69,3.26 0.62,5.46 -0.18,4.88 0.35,8.3 1.59,10.25 0.92,1.46 2.28,2.14 4.07,2.02 1.51,-0.08 2.79,-1.05 3.85,-2.92 0.98,-1.72 1.64,-3.96 2,-6.74 0.37,-2.78 0.37,-5.62 0,-8.52 -0.39,-3.08 -1.13,-5.8 -2.23,-8.16z"/>
  <path id="1" class="fil0" d="M45.47 24.35c-0.32,0.43 -0.7,0.75 -1.13,0.96 -0.44,0.25 -0.91,0.37 -1.39,0.34 0.9,-0.34 1.61,-0.86 2.14,-1.57 0.48,-0.66 0.81,-1.49 0.99,-2.5 0.23,0.99 0.02,1.91 -0.6,2.77zm-5.03 -2.46c-0.1,-0.61 0,-1.17 0.29,-1.66 0.29,-0.48 0.69,-0.77 1.21,-0.87 0.51,-0.08 0.99,0.07 1.41,0.46 0.44,0.37 0.7,0.85 0.8,1.46 0.12,0.62 0.02,1.16 -0.29,1.64 -0.29,0.49 -0.69,0.78 -1.21,0.86 -0.51,0.08 -0.99,-0.07 -1.42,-0.44 -0.43,-0.36 -0.69,-0.85 -0.79,-1.46zm-1.26 -18.46c-1.23,0.49 -2.33,1.19 -3.29,2.09 -0.88,0.81 -1.7,1.84 -2.46,3.08l-0.24 0.43 -0.24 0.44 -0.44 0.89 -0.39 0.94 -0.36 0.94c0.27,-1.33 0.72,-2.6 1.35,-3.8 0.64,-1.25 1.46,-2.33 2.46,-3.25 1.06,-0.99 2.23,-1.69 3.49,-2.12 0.61,-0.21 1.27,-0.36 1.97,-0.46l0.51 -0.05 0.5 -0.02 1.01 0.02c-1.46,0.12 -2.75,0.4 -3.88,0.87zm8.07 -2.22c-4.96,-1.22 -9.1,-0.41 -12.42,2.43 -2.92,2.51 -4.74,6.08 -5.46,10.74 -0.69,4.52 -0.16,8.71 1.59,12.56 1.87,4.17 4.77,6.78 8.66,7.82 3.66,0.99 7.11,0.05 10.35,-2.84 2.95,-2.63 5.05,-6.18 6.31,-10.64 1.28,-4.57 1.25,-8.67 -0.1,-12.3 -1.53,-4.09 -4.5,-6.68 -8.93,-7.77z"/>
  <path id="2" class="fil0" d="M78.15 23.17c-0.15,0.56 -0.44,1.02 -0.9,1.37 -0.42,0.32 -0.91,0.53 -1.49,0.65 -0.53,0.1 -1.05,0.1 -1.57,0 0.62,-0.13 1.12,-0.25 1.47,-0.36 0.54,-0.17 0.98,-0.39 1.3,-0.65 0.35,-0.29 0.62,-0.67 0.82,-1.13 0.14,-0.35 0.26,-0.84 0.36,-1.46 0.12,0.54 0.12,1.07 0,1.59zm-6.11 -0.62c-0.31,-0.57 -0.21,-1.47 0.31,-2.72 0.53,-1.28 1.11,-1.92 1.75,-1.91 0.77,0.02 1.39,0.7 1.86,2.05 0.19,0.55 0.3,1.08 0.34,1.59 0.03,0.54 -0.03,0.95 -0.19,1.2 -0.25,0.39 -0.91,0.58 -2,0.56 -1.08,-0.02 -1.77,-0.28 -2.06,-0.77zm-3.25 -15.55c-0.67,0.98 -1.3,2.06 -1.88,3.25 -0.44,0.93 -0.94,2.09 -1.49,3.47 0.27,-1.19 0.66,-2.39 1.16,-3.62 0.46,-1.13 1.07,-2.24 1.82,-3.37 0.82,-1.19 1.67,-2.14 2.55,-2.84 0.51,-0.39 1.07,-0.71 1.66,-0.99 0.64,-0.25 1.26,-0.38 1.85,-0.36 -1.1,0.13 -2.19,0.67 -3.27,1.63 -0.85,0.77 -1.65,1.71 -2.41,2.82zm-10.62 18.85c-0.39,0.2 -0.7,0.39 -0.94,0.6 -0.29,0.25 -0.49,0.55 -0.6,0.92 -0.07,-0.42 0.05,-0.81 0.35,-1.18 0.21,-0.27 0.53,-0.52 0.97,-0.75 0.74,-0.38 1.5,-0.57 2.31,-0.55l-0.53 0.24 -0.55 0.25c-0.44,0.17 -0.77,0.34 -1.01,0.48zm29.27 -2.86c-0.65,-0.18 -1.11,-0.44 -1.4,-0.77 -0.28,-0.3 -0.46,-0.76 -0.56,-1.37 -0.07,-0.34 -0.13,-1.07 -0.21,-2.19 -0.03,-0.56 -0.07,-1.05 -0.12,-1.47 -0.05,-0.59 -0.12,-1.18 -0.21,-1.75 -0.69,-4.75 -2,-8.43 -3.93,-11.03 -1.81,-2.41 -3.95,-3.65 -6.42,-3.71 -2.12,-0.05 -4.2,1.08 -6.24,3.42 -2.05,2.34 -3.62,5.37 -4.72,9.07 -0.44,1.48 -0.78,2.97 -1.04,4.5 -0.05,0.25 -0.1,0.53 -0.14,0.85l-0.05 0.4 -0.07 0.36c-0.08,0.6 -0.15,1.02 -0.2,1.28 -0.16,0.78 -0.38,1.35 -0.67,1.68 -0.32,0.39 -0.85,0.66 -1.59,0.81 -2.09,0.44 -3.55,1.19 -4.38,2.27 -0.76,0.96 -0.94,2.12 -0.56,3.48 0.53,1.93 2.7,3.45 6.51,4.58 3.4,0.99 7.64,1.57 12.73,1.71 4.64,0.12 8.2,-0.03 10.69,-0.44 3.69,-0.59 6.06,-1.82 7.12,-3.68 0.99,-1.73 1.05,-3.35 0.17,-4.86 -0.87,-1.45 -2.44,-2.51 -4.72,-3.15z"/>
  <path id="3" class="fil0" d="M110.91 22.04c-0.34,0.26 -0.68,0.44 -1.04,0.53 -0.4,0.11 -0.79,0.12 -1.16,0.02 0.72,-0.18 1.36,-0.48 1.93,-0.92 0.45,-0.35 0.93,-0.88 1.45,-1.59 -0.12,0.77 -0.51,1.42 -1.18,1.95zm-2.6 -1.37c-0.37,-0.16 -0.62,-0.46 -0.72,-0.91 -0.13,-0.45 -0.1,-0.91 0.09,-1.4 0.2,-0.49 0.49,-0.86 0.9,-1.11 0.4,-0.24 0.79,-0.29 1.15,-0.14 0.37,0.14 0.62,0.44 0.75,0.89 0.12,0.45 0.07,0.92 -0.12,1.42 -0.2,0.48 -0.49,0.85 -0.9,1.11 -0.4,0.24 -0.78,0.29 -1.15,0.14zm-3.88 -12.95c-0.61,0.84 -1.35,1.95 -2.22,3.34 -0.29,0.5 -0.62,1.08 -1.01,1.73l-1.01 1.76c0.47,-1.17 1.04,-2.39 1.71,-3.66 0.63,-1.18 1.34,-2.32 2.14,-3.44 0.93,-1.28 1.82,-2.31 2.67,-3.08l0.39 -0.34c0.15,-0.13 0.27,-0.23 0.39,-0.31l0.41 -0.31 0.44 -0.27c0.76,-0.39 1.41,-0.58 1.95,-0.55 -0.55,0.05 -1.16,0.3 -1.83,0.75l-0.39 0.29 -0.39 0.34c-0.11,0.08 -0.23,0.19 -0.36,0.31l-0.35 0.36c-0.82,0.85 -1.67,1.88 -2.53,3.08zm6.4 -6.96c-2.09,-0.32 -4.44,1.12 -7.05,4.31 -2.34,2.88 -4.45,6.58 -6.33,11.07 -1.86,4.46 -2.94,8.43 -3.25,11.9 -0.34,3.8 0.4,6.05 2.21,6.74 1.36,0.53 2.69,0.52 3.98,-0.05 0.96,-0.42 1.98,-1.19 3.06,-2.33 0.21,-0.22 0.44,-0.48 0.67,-0.75l0.62 -0.72c0.53,-0.62 0.91,-1.07 1.16,-1.32 0.85,-0.9 1.56,-1.35 2.14,-1.35 0.6,0 1.34,0.43 2.22,1.27 0.27,0.26 0.67,0.67 1.2,1.26l0.66 0.67 0.65 0.7c1.08,1.08 2.08,1.8 2.96,2.19 1.18,0.5 2.34,0.48 3.52,-0.04 1.38,-0.63 2.16,-2.68 2.36,-6.15 0.17,-3.24 -0.19,-6.93 -1.08,-11.07 -0.93,-4.31 -2.2,-7.92 -3.8,-10.86 -1.83,-3.3 -3.79,-5.13 -5.87,-5.46z"/>
  <path id="4" class="fil0" d="M139.28 15.01c-0.18,0.46 -0.45,0.88 -0.82,1.25 -0.37,0.39 -0.78,0.67 -1.22,0.85 -0.5,0.19 -0.98,0.24 -1.45,0.14 0.48,-0.09 0.91,-0.25 1.3,-0.48 0.4,-0.23 0.75,-0.5 1.04,-0.82 0.61,-0.62 1.07,-1.41 1.37,-2.36 0.05,0.47 -0.02,0.94 -0.21,1.42zm-4.36 -2.05c0.25,-0.48 0.58,-0.83 0.99,-1.04 0.41,-0.21 0.79,-0.23 1.13,-0.05 0.34,0.17 0.55,0.49 0.62,0.94 0.07,0.47 -0.02,0.93 -0.26,1.4 -0.24,0.48 -0.56,0.83 -0.96,1.04 -0.42,0.21 -0.8,0.22 -1.13,0.05 -0.34,-0.17 -0.54,-0.49 -0.62,-0.94 -0.07,-0.47 0.02,-0.94 0.24,-1.4zm-3.68 -9.51c-1.09,0.51 -2.03,1.19 -2.82,2.05 -0.73,0.78 -1.39,1.75 -1.95,2.91 -0.44,0.91 -0.83,2.03 -1.2,3.34 0.05,-0.49 0.15,-1.08 0.31,-1.76 0.16,-0.61 0.35,-1.18 0.58,-1.73 0.47,-1.16 1.11,-2.19 1.92,-3.08 0.87,-0.94 1.87,-1.62 3.02,-2.05 0.56,-0.22 1.14,-0.39 1.76,-0.5 0.66,-0.1 1.26,-0.15 1.8,-0.15 -1.33,0.2 -2.47,0.52 -3.42,0.97zm4.5 -2.84c-3.23,-0.03 -5.89,0.85 -7.99,2.67 -1.87,1.6 -3.2,3.86 -3.97,6.76 -0.71,2.65 -0.88,5.55 -0.53,8.72 0.34,3.06 1.12,5.92 2.36,8.54 1.18,2.53 2.51,4.49 3.97,5.85 1.28,1.2 2.58,1.86 3.88,1.97 1.17,0.12 2.18,-0.23 3.03,-1.04 0.85,-0.81 1.36,-1.87 1.51,-3.23 0.13,-0.93 0.11,-1.99 -0.07,-3.17 -0.07,-0.34 -0.16,-0.81 -0.27,-1.42l-0.12 -0.67c-0.05,-0.24 -0.09,-0.45 -0.12,-0.62 -0.14,-0.94 -0.12,-1.66 0.05,-2.19 0.21,-0.66 0.71,-1.17 1.5,-1.54 2.6,-1.22 4.55,-3.01 5.87,-5.35 1.24,-2.18 1.71,-4.45 1.42,-6.81 -0.29,-2.39 -1.31,-4.35 -3.06,-5.9 -1.89,-1.67 -4.38,-2.52 -7.46,-2.57z"/>
  <path id="5" class="fil0" d="M163.22 24.35c-0.32,0.43 -0.7,0.75 -1.13,0.96 -0.44,0.25 -0.91,0.37 -1.39,0.34 0.9,-0.34 1.61,-0.86 2.14,-1.57 0.48,-0.66 0.81,-1.49 0.99,-2.5 0.23,0.99 0.02,1.91 -0.6,2.77zm-5.03 -2.46c-0.1,-0.61 0,-1.17 0.29,-1.66 0.29,-0.48 0.69,-0.77 1.21,-0.87 0.51,-0.08 0.99,0.07 1.41,0.46 0.44,0.37 0.7,0.85 0.8,1.46 0.12,0.62 0.02,1.16 -0.29,1.64 -0.29,0.49 -0.69,0.78 -1.21,0.86 -0.51,0.08 -0.99,-0.07 -1.42,-0.44 -0.43,-0.36 -0.69,-0.85 -0.79,-1.46zm-1.26 -18.46c-1.23,0.49 -2.33,1.19 -3.29,2.09 -0.88,0.81 -1.7,1.84 -2.46,3.08l-0.24 0.43 -0.24 0.44 -0.44 0.89 -0.39 0.94 -0.36 0.94c0.27,-1.33 0.72,-2.6 1.35,-3.8 0.64,-1.25 1.46,-2.33 2.46,-3.25 1.06,-0.99 2.23,-1.69 3.49,-2.12 0.61,-0.21 1.27,-0.36 1.97,-0.46l0.51 -0.05 0.5 -0.02 1.01 0.02c-1.46,0.12 -2.75,0.4 -3.88,0.87zm8.07 -2.22c-4.96,-1.22 -9.1,-0.41 -12.42,2.43 -2.92,2.51 -4.74,6.08 -5.46,10.74 -0.69,4.52 -0.16,8.71 1.59,12.56 1.87,4.17 4.77,6.78 8.66,7.82 3.66,0.99 7.11,0.05 10.35,-2.84 2.95,-2.63 5.05,-6.18 6.31,-10.64 1.28,-4.57 1.25,-8.67 -0.1,-12.3 -1.53,-4.09 -4.5,-6.68 -8.93,-7.77z"/>
  <path id="6" class="fil0" d="M191.28 8.2c-0.65,0.81 -1.28,1.5 -1.91,2.05 -0.81,0.71 -1.58,1.2 -2.33,1.49 0.61,-0.38 1.31,-0.97 2.09,-1.76 0.61,-0.62 1.21,-1.31 1.81,-2.06 0.29,-0.37 0.56,-0.73 0.81,-1.08l0.22 -0.29 0.19 -0.27c0.16,-0.24 0.3,-0.43 0.44,-0.58 0.34,-0.37 0.72,-0.66 1.13,-0.86 0.48,-0.23 0.95,-0.32 1.37,-0.27 -0.83,0.07 -1.57,0.53 -2.21,1.37 -0.12,0.13 -0.24,0.31 -0.39,0.56l-0.19 0.29 -0.2 0.29c-0.22,0.32 -0.5,0.7 -0.84,1.13zm-9.49 -5.27c-0.32,0.21 -0.62,0.49 -0.91,0.85 -0.42,0.51 -0.83,1.22 -1.22,2.14 -0.25,0.57 -0.53,1.36 -0.87,2.38l-0.36 1.23 -0.36 1.22c0.08,-0.99 0.21,-1.84 0.39,-2.55 0.21,-0.9 0.48,-1.72 0.8,-2.46 0.41,-0.96 0.87,-1.7 1.37,-2.22 0.32,-0.34 0.67,-0.6 1.06,-0.79 0.44,-0.2 0.87,-0.28 1.27,-0.25 -0.44,0.07 -0.82,0.21 -1.16,0.44zm10.81 13.96c-0.64,-0.35 -0.8,-0.67 -0.46,-0.96 0.13,-0.12 0.39,-0.28 0.77,-0.46l0.26 -0.14 0.29 -0.15c0.27,-0.11 0.49,-0.21 0.65,-0.29 1.21,-0.59 2.18,-1.23 2.92,-1.92 1.1,-1.01 1.88,-2.22 2.33,-3.62 0.42,-1.3 0.39,-2.53 -0.07,-3.71 -0.44,-1.08 -1.15,-1.87 -2.17,-2.41 -1.03,-0.53 -2.08,-0.64 -3.17,-0.34 -1.22,0.34 -2.27,1.16 -3.13,2.46 -1.46,2.22 -2.86,3.73 -4.19,4.55 -0.53,0.34 -0.89,0.43 -1.08,0.29 -0.19,-0.16 -0.14,-0.54 0.15,-1.13 1.15,-2.41 1.51,-4.36 1.08,-5.87 -0.37,-1.25 -1.22,-2.04 -2.56,-2.36 -2.74,-0.64 -4.86,0.72 -6.35,4.07 -1.21,2.69 -1.99,6.61 -2.33,11.77 -0.35,5.18 -0.12,9.36 0.71,12.51 1,3.84 2.78,5.71 5.35,5.61 2.36,-0.08 3.73,-1.82 4.12,-5.2 0.12,-1.13 0.13,-2.42 0.02,-3.85 -0.05,-0.49 -0.11,-0.99 -0.17,-1.49 -0.02,-0.2 -0.04,-0.39 -0.07,-0.58l-0.02 -0.22 -0.02 -0.1 0 -0.07c-0.07,-0.44 -0.01,-0.73 0.16,-0.9 0.2,-0.16 0.46,-0.09 0.8,0.2 0.88,0.75 1.71,2.59 2.48,5.51 0.49,1.87 1.22,3.42 2.16,4.62 0.89,1.09 1.88,1.82 2.98,2.19 1.06,0.34 2.1,0.32 3.13,-0.05 1.03,-0.4 1.9,-1.12 2.6,-2.14 0.78,-1.16 1.19,-2.46 1.22,-3.92 0.03,-1.4 -0.28,-2.83 -0.94,-4.31 -1.43,-3.11 -3.92,-5.64 -7.46,-7.61z"/>
 </g>
</svg>
