<?xml version="1.0" encoding="UTF-8"?>
<!DOCTYPE svg PUBLIC "-//W3C//DTD SVG 1.1//EN" "http://www.w3.org/Graphics/SVG/1.1/DTD/svg11.dtd">
<!-- Creator: CorelDRAW -->
<svg xmlns="http://www.w3.org/2000/svg" xml:space="preserve" width="34.3346mm" height="15.6042mm" version="1.1" style="shape-rendering:geometricPrecision; text-rendering:geometricPrecision; image-rendering:optimizeQuality; fill-rule:evenodd; clip-rule:evenodd"
viewBox="0 0 96.29 43.76"
 xmlns:xlink="http://www.w3.org/1999/xlink"
 xmlns:xodm="http://www.corel.com/coreldraw/odm/2003">
 <defs>
  <style type="text/css">
   <![CDATA[
    .fil0 {fill:#656554;fill-rule:nonzero}
   ]]>
  </style>
 </defs>
 <g id="Слой_x0020_1">
  <metadata id="CorelCorpID_0Corel-Layer"/>
  <path class="fil0" d="M0.6 0.65c0.37,-0.43 0.83,-0.65 1.37,-0.65 0.43,0 0.79,0.13 1.07,0.38 0.28,0.25 0.42,0.57 0.42,0.97 0,0.56 -0.26,0.97 -0.79,1.21 0.69,0.22 1.04,0.68 1.04,1.4 0,0.48 -0.16,0.87 -0.47,1.16 -0.31,0.29 -0.74,0.44 -1.28,0.44 -0.38,0 -0.71,-0.08 -0.98,-0.24 -0.28,-0.16 -0.54,-0.43 -0.79,-0.83l0.41 -0.24c0.24,0.36 0.47,0.59 0.69,0.69 0.21,0.1 0.43,0.15 0.66,0.15 0.34,0 0.62,-0.1 0.85,-0.29 0.23,-0.19 0.35,-0.48 0.35,-0.86 0,-0.2 -0.04,-0.37 -0.12,-0.52 -0.08,-0.15 -0.19,-0.27 -0.34,-0.36 -0.15,-0.09 -0.28,-0.15 -0.42,-0.17 -0.13,-0.02 -0.35,-0.04 -0.65,-0.04l-0.09 0 0 -0.46 0.18 0c0.78,0 1.17,-0.32 1.17,-0.95 0,-0.3 -0.09,-0.53 -0.27,-0.7 -0.18,-0.17 -0.4,-0.26 -0.68,-0.26 -0.35,0 -0.69,0.16 -1,0.48l-0.36 -0.32z"/>
  <path id="_1" class="fil0" d="M8.55 1.51l0 3.92 -0.5 0 0 -0.67c-0.21,0.26 -0.45,0.45 -0.71,0.58 -0.26,0.13 -0.55,0.19 -0.86,0.19 -0.55,0 -1.02,-0.2 -1.41,-0.6 -0.39,-0.4 -0.58,-0.89 -0.58,-1.46 0,-0.56 0.2,-1.04 0.59,-1.44 0.39,-0.4 0.87,-0.6 1.42,-0.6 0.32,0 0.61,0.07 0.87,0.2 0.26,0.14 0.49,0.34 0.68,0.61l0 -0.72 0.5 0zm-2.01 0.39c-0.28,0 -0.54,0.07 -0.77,0.21 -0.24,0.14 -0.42,0.33 -0.56,0.58 -0.14,0.25 -0.21,0.51 -0.21,0.79 0,0.27 0.07,0.54 0.21,0.79 0.14,0.25 0.33,0.45 0.57,0.59 0.24,0.14 0.49,0.21 0.76,0.21 0.27,0 0.53,-0.07 0.78,-0.21 0.25,-0.14 0.43,-0.33 0.57,-0.56 0.13,-0.24 0.2,-0.5 0.2,-0.8 0,-0.45 -0.15,-0.83 -0.45,-1.13 -0.3,-0.3 -0.66,-0.46 -1.09,-0.46z"/>
  <polygon id="_2" class="fil0" points="9.68,1.51 10.18,1.51 10.18,3.16 11.99,1.51 12.68,1.51 10.71,3.3 12.84,5.43 12.13,5.43 10.33,3.62 10.18,3.76 10.18,5.43 9.68,5.43 "/>
  <path id="_3" class="fil0" d="M13.37 1.51l0.5 0 0 0.72c0.2,-0.27 0.43,-0.48 0.68,-0.61 0.26,-0.14 0.55,-0.2 0.86,-0.2 0.55,0 1.03,0.2 1.42,0.6 0.39,0.4 0.59,0.88 0.59,1.44 0,0.58 -0.2,1.06 -0.59,1.46 -0.39,0.4 -0.86,0.6 -1.41,0.6 -0.31,0 -0.59,-0.07 -0.85,-0.19 -0.26,-0.13 -0.49,-0.32 -0.71,-0.58l0 2.11 -0.5 0 0 -5.35zm2.01 0.39c-0.43,0 -0.8,0.15 -1.09,0.46 -0.3,0.3 -0.45,0.68 -0.45,1.13 0,0.3 0.07,0.56 0.2,0.8 0.13,0.24 0.32,0.42 0.57,0.56 0.25,0.14 0.51,0.21 0.78,0.21 0.27,0 0.52,-0.07 0.76,-0.21 0.24,-0.14 0.43,-0.33 0.57,-0.59 0.14,-0.25 0.21,-0.51 0.21,-0.79 0,-0.28 -0.07,-0.54 -0.21,-0.79 -0.14,-0.25 -0.33,-0.44 -0.56,-0.58 -0.23,-0.14 -0.49,-0.21 -0.77,-0.21z"/>
  <polygon id="_4" class="fil0" points="17.94,1.51 18.47,1.51 19.81,4.52 21.11,1.51 21.65,1.51 19.32,6.86 18.79,6.86 19.55,5.11 "/>
  <polygon id="_5" class="fil0" points="24.3,1.51 24.8,1.51 24.8,3.24 26.66,1.51 27.27,1.51 25.43,3.25 27.41,5.43 26.76,5.43 25.08,3.54 24.8,3.78 24.8,5.43 24.3,5.43 24.3,3.78 24.02,3.54 22.34,5.43 21.7,5.43 23.65,3.26 21.85,1.51 22.46,1.51 24.3,3.23 "/>
  <polygon id="_6" class="fil0" points="28.43,1.51 28.43,4.42 31.3,1.51 31.34,1.51 31.34,5.43 30.84,5.43 30.84,2.55 28,5.43 27.93,5.43 27.93,1.51 "/>
  <polygon id="_7" class="fil0" points="35.76,5.43 35.23,5.43 33.92,2.57 32.62,5.43 32.09,5.43 33.86,1.51 33.95,1.51 "/>
  <path id="_8" class="fil0" d="M40.4 1.51l0 3.92 -0.5 0 0 -0.67c-0.21,0.26 -0.45,0.45 -0.71,0.58 -0.26,0.13 -0.55,0.19 -0.86,0.19 -0.55,0 -1.02,-0.2 -1.41,-0.6 -0.39,-0.4 -0.58,-0.89 -0.58,-1.46 0,-0.56 0.2,-1.04 0.59,-1.44 0.39,-0.4 0.87,-0.6 1.42,-0.6 0.32,0 0.61,0.07 0.87,0.2 0.26,0.14 0.49,0.34 0.68,0.61l0 -0.72 0.5 0zm-2.01 0.39c-0.28,0 -0.54,0.07 -0.77,0.21 -0.24,0.14 -0.42,0.33 -0.56,0.58 -0.14,0.25 -0.21,0.51 -0.21,0.79 0,0.27 0.07,0.54 0.21,0.79 0.14,0.25 0.33,0.45 0.57,0.59 0.24,0.14 0.49,0.21 0.76,0.21 0.27,0 0.53,-0.07 0.78,-0.21 0.25,-0.14 0.43,-0.33 0.57,-0.56 0.13,-0.24 0.2,-0.5 0.2,-0.8 0,-0.45 -0.15,-0.83 -0.45,-1.13 -0.3,-0.3 -0.66,-0.46 -1.09,-0.46z"/>
  <path id="_9" class="fil0" d="M45.31 2.33l-0.4 0.25c-0.34,-0.46 -0.82,-0.69 -1.41,-0.69 -0.48,0 -0.87,0.15 -1.19,0.46 -0.31,0.31 -0.47,0.68 -0.47,1.12 0,0.29 0.07,0.55 0.22,0.8 0.14,0.25 0.34,0.45 0.6,0.59 0.25,0.14 0.54,0.21 0.85,0.21 0.57,0 1.04,-0.23 1.41,-0.69l0.4 0.26c-0.19,0.28 -0.44,0.5 -0.75,0.66 -0.32,0.16 -0.67,0.23 -1.08,0.23 -0.62,0 -1.13,-0.2 -1.54,-0.59 -0.41,-0.39 -0.61,-0.87 -0.61,-1.43 0,-0.38 0.1,-0.73 0.29,-1.05 0.19,-0.32 0.45,-0.58 0.78,-0.76 0.33,-0.18 0.71,-0.27 1.12,-0.27 0.26,0 0.51,0.04 0.75,0.12 0.24,0.08 0.44,0.18 0.61,0.31 0.17,0.13 0.31,0.29 0.43,0.48z"/>
  <path id="_10" class="fil0" d="M46.77 3.06l0.48 0c0.38,0 0.68,0.03 0.89,0.09 0.22,0.06 0.4,0.19 0.56,0.4 0.16,0.21 0.23,0.44 0.23,0.71 0,0.32 -0.11,0.6 -0.34,0.83 -0.22,0.23 -0.56,0.34 -1.02,0.34l-1.3 0 0 -3.92 0.49 0 0 1.55zm0.02 0.46l0 1.48 0.58 0c0.68,0 1.02,-0.24 1.02,-0.72 0,-0.14 -0.04,-0.27 -0.11,-0.4 -0.07,-0.13 -0.18,-0.22 -0.32,-0.28 -0.14,-0.05 -0.39,-0.08 -0.74,-0.08l-0.43 0z"/>
  <polygon id="_11" class="fil0" points="55.06,5.43 54.54,5.43 53.22,2.57 51.93,5.43 51.39,5.43 53.17,1.51 53.26,1.51 "/>
  <polygon id="_12" class="fil0" points="56.32,1.51 56.32,4.42 59.19,1.51 59.22,1.51 59.22,5.43 58.73,5.43 58.73,2.55 55.88,5.43 55.82,5.43 55.82,1.51 "/>
  <path id="_13" class="fil0" d="M64.13 2.33l-0.4 0.25c-0.34,-0.46 -0.82,-0.69 -1.41,-0.69 -0.48,0 -0.87,0.15 -1.19,0.46 -0.31,0.31 -0.47,0.68 -0.47,1.12 0,0.29 0.07,0.55 0.22,0.8 0.14,0.25 0.34,0.45 0.6,0.59 0.25,0.14 0.54,0.21 0.85,0.21 0.57,0 1.04,-0.23 1.41,-0.69l0.4 0.26c-0.19,0.28 -0.44,0.5 -0.75,0.66 -0.32,0.16 -0.67,0.23 -1.08,0.23 -0.62,0 -1.13,-0.2 -1.54,-0.59 -0.41,-0.39 -0.61,-0.87 -0.61,-1.43 0,-0.38 0.1,-0.73 0.29,-1.05 0.19,-0.32 0.45,-0.58 0.78,-0.76 0.33,-0.18 0.71,-0.27 1.12,-0.27 0.26,0 0.51,0.04 0.75,0.12 0.24,0.08 0.44,0.18 0.61,0.31 0.17,0.13 0.31,0.29 0.43,0.48z"/>
  <polygon id="_14" class="fil0" points="64.65,1.51 67.21,1.51 67.21,1.95 66.18,1.95 66.18,5.43 65.68,5.43 65.68,1.95 64.65,1.95 "/>
  <path id="_15" class="fil0" d="M68.39 3.06l0.48 0c0.38,0 0.68,0.03 0.89,0.09 0.22,0.06 0.4,0.19 0.56,0.4 0.16,0.21 0.23,0.44 0.23,0.71 0,0.32 -0.11,0.6 -0.34,0.83 -0.22,0.23 -0.56,0.34 -1.02,0.34l-1.3 0 0 -3.92 0.49 0 0 1.55zm0.02 0.46l0 1.48 0.58 0c0.68,0 1.02,-0.24 1.02,-0.72 0,-0.14 -0.04,-0.27 -0.11,-0.4 -0.07,-0.13 -0.18,-0.22 -0.32,-0.28 -0.14,-0.05 -0.39,-0.08 -0.74,-0.08l-0.43 0z"/>
  <path id="_16" class="fil0" d="M74.64 4.13l0.42 0.22c-0.14,0.27 -0.3,0.49 -0.48,0.66 -0.18,0.17 -0.39,0.29 -0.61,0.38 -0.23,0.09 -0.49,0.13 -0.77,0.13 -0.64,0 -1.14,-0.21 -1.49,-0.63 -0.36,-0.42 -0.54,-0.89 -0.54,-1.42 0,-0.5 0.15,-0.94 0.46,-1.33 0.38,-0.49 0.9,-0.74 1.55,-0.74 0.67,0 1.2,0.25 1.6,0.76 0.28,0.36 0.43,0.8 0.43,1.34l-3.52 0c0.01,0.45 0.16,0.83 0.44,1.11 0.28,0.29 0.63,0.44 1.04,0.44 0.2,0 0.39,-0.03 0.58,-0.1 0.19,-0.07 0.35,-0.16 0.48,-0.27 0.13,-0.11 0.28,-0.3 0.43,-0.55zm0 -1.06c-0.07,-0.27 -0.16,-0.48 -0.29,-0.64 -0.13,-0.16 -0.3,-0.29 -0.51,-0.39 -0.21,-0.1 -0.43,-0.15 -0.67,-0.15 -0.39,0 -0.72,0.12 -0.99,0.37 -0.2,0.18 -0.35,0.45 -0.46,0.81l2.92 0z"/>
  <path id="_17" class="fil0" d="M77.25 5.43l-1.13 0 0 -3.92 1.12 0c0.43,0 0.73,0.1 0.92,0.29 0.19,0.2 0.28,0.43 0.28,0.69 0,0.4 -0.17,0.67 -0.52,0.81 0.51,0.18 0.76,0.53 0.76,1.04 0,0.72 -0.47,1.08 -1.42,1.08zm-0.63 -3.48l0 1.22 0.33 0c0.3,0 0.49,-0.01 0.58,-0.04 0.09,-0.02 0.18,-0.08 0.26,-0.18 0.08,-0.09 0.12,-0.22 0.12,-0.38 0,-0.16 -0.04,-0.3 -0.13,-0.41 -0.08,-0.11 -0.17,-0.17 -0.27,-0.19 -0.09,-0.02 -0.28,-0.03 -0.57,-0.03l-0.33 0zm0 1.68l0 1.37 0.54 0c0.25,0 0.44,-0.02 0.54,-0.05 0.11,-0.03 0.2,-0.1 0.28,-0.21 0.08,-0.11 0.12,-0.24 0.12,-0.41 0,-0.21 -0.07,-0.38 -0.2,-0.51 -0.13,-0.13 -0.31,-0.19 -0.53,-0.19l-0.75 0z"/>
  <path id="_18" class="fil0" d="M85.36 2.33l-0.4 0.25c-0.34,-0.46 -0.82,-0.69 -1.41,-0.69 -0.48,0 -0.87,0.15 -1.19,0.46 -0.31,0.31 -0.47,0.68 -0.47,1.12 0,0.29 0.07,0.55 0.22,0.8 0.14,0.25 0.34,0.45 0.6,0.59 0.25,0.14 0.54,0.21 0.85,0.21 0.57,0 1.04,-0.23 1.41,-0.69l0.4 0.26c-0.19,0.28 -0.44,0.5 -0.75,0.66 -0.32,0.16 -0.67,0.23 -1.08,0.23 -0.62,0 -1.13,-0.2 -1.54,-0.59 -0.41,-0.39 -0.61,-0.87 -0.61,-1.43 0,-0.38 0.1,-0.73 0.29,-1.05 0.19,-0.32 0.45,-0.58 0.78,-0.76 0.33,-0.18 0.71,-0.27 1.12,-0.27 0.26,0 0.51,0.04 0.75,0.12 0.24,0.08 0.44,0.18 0.61,0.31 0.17,0.13 0.31,0.29 0.43,0.48z"/>
  <polygon id="_19" class="fil0" points="85.89,1.51 88.45,1.51 88.45,1.95 87.41,1.95 87.41,5.43 86.91,5.43 86.91,1.95 85.89,1.95 "/>
  <path id="_20" class="fil0" d="M93.01 1.51l0 3.92 -0.5 0 0 -0.67c-0.21,0.26 -0.45,0.45 -0.71,0.58 -0.26,0.13 -0.55,0.19 -0.86,0.19 -0.55,0 -1.02,-0.2 -1.41,-0.6 -0.39,-0.4 -0.58,-0.89 -0.58,-1.46 0,-0.56 0.2,-1.04 0.59,-1.44 0.39,-0.4 0.87,-0.6 1.42,-0.6 0.32,0 0.61,0.07 0.87,0.2 0.26,0.14 0.49,0.34 0.68,0.61l0 -0.72 0.5 0zm-2.01 0.39c-0.28,0 -0.54,0.07 -0.77,0.21 -0.24,0.14 -0.42,0.33 -0.56,0.58 -0.14,0.25 -0.21,0.51 -0.21,0.79 0,0.27 0.07,0.54 0.21,0.79 0.14,0.25 0.33,0.45 0.57,0.59 0.24,0.14 0.49,0.21 0.76,0.21 0.27,0 0.53,-0.07 0.78,-0.21 0.25,-0.14 0.43,-0.33 0.57,-0.56 0.13,-0.24 0.2,-0.5 0.2,-0.8 0,-0.45 -0.15,-0.83 -0.45,-1.13 -0.3,-0.3 -0.66,-0.46 -1.09,-0.46z"/>
  <path id="_21" class="fil0" d="M95.79 3.68l-0.36 0 -1.12 1.75 -0.54 0 1.18 -1.8c-0.29,-0.04 -0.53,-0.15 -0.71,-0.33 -0.18,-0.19 -0.27,-0.42 -0.27,-0.69 0,-0.35 0.11,-0.62 0.31,-0.8 0.21,-0.19 0.48,-0.29 0.82,-0.29l1.19 0 0 3.92 -0.5 0 0 -1.75zm0 -1.73l-0.33 0c-0.32,0 -0.54,0.02 -0.65,0.06 -0.11,0.04 -0.2,0.11 -0.26,0.21 -0.07,0.1 -0.1,0.23 -0.1,0.4 0,0.16 0.04,0.29 0.13,0.4 0.08,0.1 0.18,0.17 0.28,0.19 0.1,0.02 0.3,0.04 0.6,0.04l0.33 0 0 -1.3z"/>
  <polygon id="_22" class="fil0" points="4.64,14.63 4.09,14.63 4.09,10.56 0.61,14.63 0.5,14.63 0.5,9.33 1.02,9.33 1.02,13.46 4.52,9.33 4.64,9.33 "/>
  <path id="_23" class="fil0" d="M9.71 10.62c0.6,0 1.1,0.22 1.49,0.65 0.36,0.4 0.54,0.87 0.54,1.41 0,0.55 -0.19,1.02 -0.57,1.43 -0.38,0.41 -0.87,0.61 -1.46,0.61 -0.6,0 -1.09,-0.2 -1.47,-0.61 -0.38,-0.41 -0.57,-0.89 -0.57,-1.43 0,-0.54 0.18,-1.01 0.54,-1.41 0.39,-0.44 0.89,-0.66 1.5,-0.66zm-0 0.49c-0.42,0 -0.77,0.15 -1.07,0.46 -0.3,0.31 -0.45,0.68 -0.45,1.12 0,0.28 0.07,0.54 0.2,0.79 0.14,0.24 0.32,0.43 0.55,0.56 0.23,0.13 0.49,0.2 0.76,0.2 0.28,0 0.53,-0.07 0.76,-0.2 0.23,-0.13 0.42,-0.32 0.55,-0.56 0.14,-0.24 0.2,-0.51 0.2,-0.79 0,-0.44 -0.15,-0.81 -0.45,-1.12 -0.3,-0.31 -0.66,-0.46 -1.07,-0.46z"/>
  <path id="_24" class="fil0" d="M16.45 11.53l-0.4 0.25c-0.34,-0.46 -0.82,-0.69 -1.41,-0.69 -0.48,0 -0.87,0.15 -1.19,0.46 -0.31,0.31 -0.47,0.68 -0.47,1.12 0,0.29 0.07,0.55 0.22,0.8 0.14,0.25 0.34,0.45 0.6,0.59 0.25,0.14 0.54,0.21 0.85,0.21 0.57,0 1.04,-0.23 1.41,-0.69l0.4 0.26c-0.19,0.28 -0.44,0.5 -0.75,0.66 -0.32,0.16 -0.67,0.23 -1.08,0.23 -0.62,0 -1.13,-0.2 -1.54,-0.59 -0.41,-0.39 -0.61,-0.87 -0.61,-1.43 0,-0.38 0.1,-0.73 0.29,-1.05 0.19,-0.32 0.45,-0.58 0.78,-0.76 0.33,-0.18 0.71,-0.27 1.12,-0.27 0.26,0 0.51,0.04 0.75,0.12 0.24,0.08 0.44,0.18 0.61,0.31 0.17,0.13 0.31,0.29 0.43,0.48z"/>
  <path id="_25" class="fil0" d="M20.7 13.33l0.42 0.22c-0.14,0.27 -0.3,0.49 -0.48,0.66 -0.18,0.17 -0.39,0.29 -0.61,0.38 -0.23,0.09 -0.49,0.13 -0.77,0.13 -0.64,0 -1.14,-0.21 -1.49,-0.63 -0.36,-0.42 -0.54,-0.89 -0.54,-1.42 0,-0.5 0.15,-0.94 0.46,-1.33 0.38,-0.49 0.9,-0.74 1.55,-0.74 0.67,0 1.2,0.25 1.6,0.76 0.28,0.36 0.43,0.8 0.43,1.34l-3.52 0c0.01,0.45 0.16,0.83 0.43,1.11 0.28,0.29 0.63,0.44 1.04,0.44 0.2,0 0.39,-0.03 0.58,-0.1 0.19,-0.07 0.35,-0.16 0.48,-0.27 0.13,-0.11 0.28,-0.3 0.43,-0.55zm0 -1.06c-0.07,-0.27 -0.16,-0.48 -0.29,-0.64 -0.13,-0.16 -0.3,-0.29 -0.51,-0.39 -0.21,-0.1 -0.43,-0.15 -0.67,-0.15 -0.39,0 -0.72,0.12 -0.99,0.37 -0.2,0.18 -0.35,0.45 -0.46,0.81l2.92 0z"/>
  <polygon id="_26" class="fil0" points="25.48,14.63 24.95,14.63 23.64,11.77 22.34,14.63 21.81,14.63 23.59,10.71 23.67,10.71 "/>
  <path id="_27" class="fil0" d="M30.12 10.71l0 3.92 -0.5 0 0 -0.67c-0.21,0.26 -0.45,0.45 -0.71,0.58 -0.26,0.13 -0.55,0.19 -0.86,0.19 -0.55,0 -1.02,-0.2 -1.41,-0.6 -0.39,-0.4 -0.58,-0.89 -0.58,-1.46 0,-0.56 0.2,-1.04 0.59,-1.44 0.39,-0.4 0.87,-0.6 1.42,-0.6 0.32,0 0.61,0.07 0.87,0.2 0.26,0.14 0.49,0.34 0.68,0.61l0 -0.72 0.5 0zm-2.01 0.39c-0.28,0 -0.54,0.07 -0.77,0.21 -0.24,0.14 -0.42,0.33 -0.56,0.58 -0.14,0.25 -0.21,0.51 -0.21,0.79 0,0.27 0.07,0.54 0.21,0.79 0.14,0.25 0.33,0.45 0.57,0.59 0.24,0.14 0.49,0.21 0.76,0.21 0.27,0 0.53,-0.07 0.78,-0.21 0.25,-0.14 0.43,-0.33 0.57,-0.56 0.13,-0.24 0.2,-0.5 0.2,-0.8 0,-0.45 -0.15,-0.83 -0.45,-1.13 -0.3,-0.3 -0.66,-0.46 -1.09,-0.46z"/>
  <polygon id="_28" class="fil0" points="32.86,10.71 33.38,10.71 34.73,13.72 36.03,10.71 36.57,10.71 34.24,16.06 33.71,16.06 34.47,14.31 "/>
  <path id="_29" class="fil0" d="M40.37 14.63l-1.13 0 0 -3.92 1.12 0c0.43,0 0.73,0.1 0.92,0.29 0.19,0.2 0.28,0.43 0.28,0.69 0,0.4 -0.17,0.67 -0.52,0.81 0.51,0.18 0.76,0.53 0.76,1.04 0,0.72 -0.47,1.08 -1.42,1.08zm-0.63 -3.48l0 1.22 0.33 0c0.3,0 0.49,-0.01 0.58,-0.04 0.09,-0.02 0.18,-0.08 0.26,-0.18 0.08,-0.09 0.12,-0.22 0.12,-0.38 0,-0.16 -0.04,-0.3 -0.13,-0.41 -0.08,-0.11 -0.17,-0.17 -0.27,-0.19 -0.09,-0.02 -0.28,-0.03 -0.57,-0.03l-0.33 0zm0 1.68l0 1.37 0.54 0c0.25,0 0.44,-0.02 0.55,-0.05 0.11,-0.03 0.2,-0.1 0.28,-0.21 0.08,-0.11 0.12,-0.24 0.12,-0.41 0,-0.21 -0.07,-0.38 -0.2,-0.51 -0.13,-0.13 -0.31,-0.19 -0.53,-0.19l-0.75 0z"/>
  <path id="_30" class="fil0" d="M44.52 10.62c0.6,0 1.1,0.22 1.49,0.65 0.36,0.4 0.54,0.87 0.54,1.41 0,0.55 -0.19,1.02 -0.57,1.43 -0.38,0.41 -0.87,0.61 -1.46,0.61 -0.6,0 -1.09,-0.2 -1.47,-0.61 -0.38,-0.41 -0.57,-0.89 -0.57,-1.43 0,-0.54 0.18,-1.01 0.54,-1.41 0.39,-0.44 0.89,-0.66 1.5,-0.66zm-0 0.49c-0.42,0 -0.77,0.15 -1.07,0.46 -0.3,0.31 -0.45,0.68 -0.45,1.12 0,0.28 0.07,0.54 0.2,0.79 0.14,0.24 0.32,0.43 0.55,0.56 0.23,0.13 0.49,0.2 0.76,0.2 0.28,0 0.53,-0.07 0.76,-0.2 0.23,-0.13 0.42,-0.32 0.55,-0.56 0.14,-0.24 0.2,-0.51 0.2,-0.79 0,-0.44 -0.15,-0.81 -0.45,-1.12 -0.3,-0.31 -0.66,-0.46 -1.07,-0.46z"/>
  <path id="_31" class="fil0" d="M47.51 14.2l1.5 -3.49 0.26 0 1.5 3.49 0.47 0 0 0.93 -0.48 0 0 -0.5 -3.22 0 0 0.52 -0.5 0 0 -0.95 0.48 0zm1.63 -2.7l-1.14 2.7 2.23 0 -1.09 -2.7z"/>
  <path id="_32" class="fil0" d="M52.41 12.26l0.48 0c0.38,0 0.68,0.03 0.89,0.09 0.22,0.06 0.4,0.19 0.56,0.4 0.16,0.21 0.23,0.44 0.23,0.71 0,0.32 -0.11,0.6 -0.34,0.83 -0.22,0.23 -0.56,0.34 -1.02,0.34l-1.3 0 0 -3.92 0.49 0 0 1.55zm0.02 0.46l0 1.48 0.58 0c0.68,0 1.02,-0.24 1.02,-0.72 0,-0.14 -0.04,-0.27 -0.11,-0.4 -0.07,-0.13 -0.18,-0.22 -0.32,-0.28 -0.14,-0.05 -0.39,-0.08 -0.74,-0.08l-0.43 0zm2.84 -2.01l0.5 0 0 3.92 -0.5 0 0 -3.92z"/>
  <path id="_33" class="fil0" d="M57.38 13.83c0.12,0 0.22,0.04 0.31,0.13 0.09,0.09 0.13,0.19 0.13,0.32 0,0.12 -0.04,0.23 -0.13,0.31 -0.09,0.09 -0.19,0.13 -0.31,0.13 -0.12,0 -0.22,-0.04 -0.31,-0.13 -0.09,-0.09 -0.13,-0.19 -0.13,-0.31 0,-0.13 0.04,-0.23 0.13,-0.32 0.09,-0.09 0.19,-0.13 0.31,-0.13z"/>
  <path id="_34" class="fil0" d="M4.81 21.42l-2.49 0 0 -0.52 2.46 0c-0.05,-0.61 -0.29,-1.09 -0.75,-1.45 -0.45,-0.36 -0.95,-0.54 -1.5,-0.54 -0.79,0 -1.42,0.31 -1.88,0.92l-0.42 -0.31c0.24,-0.35 0.56,-0.62 0.96,-0.82 0.4,-0.2 0.85,-0.3 1.34,-0.3 0.81,0 1.48,0.26 2.03,0.79 0.54,0.53 0.82,1.18 0.82,1.96 0,0.78 -0.26,1.45 -0.77,1.99 -0.51,0.54 -1.21,0.82 -2.08,0.82 -0.98,0 -1.75,-0.35 -2.3,-1.06l0.42 -0.32c0.49,0.58 1.11,0.87 1.85,0.87 0.57,0 1.07,-0.17 1.51,-0.5 0.44,-0.33 0.7,-0.85 0.8,-1.54z"/>
  <polygon id="_35" class="fil0" points="5.94,19.91 8.5,19.91 8.5,20.35 7.46,20.35 7.46,23.83 6.96,23.83 6.96,20.35 5.94,20.35 "/>
  <path id="_36" class="fil0" d="M11.02 19.82c0.6,0 1.1,0.22 1.49,0.65 0.36,0.4 0.54,0.87 0.54,1.41 0,0.55 -0.19,1.02 -0.57,1.43 -0.38,0.41 -0.87,0.61 -1.46,0.61 -0.6,0 -1.09,-0.2 -1.47,-0.61 -0.38,-0.41 -0.57,-0.89 -0.57,-1.43 0,-0.54 0.18,-1.01 0.54,-1.41 0.39,-0.44 0.89,-0.66 1.5,-0.66zm-0 0.49c-0.42,0 -0.77,0.15 -1.07,0.46 -0.3,0.31 -0.45,0.68 -0.45,1.12 0,0.28 0.07,0.54 0.2,0.79 0.14,0.24 0.32,0.43 0.55,0.56 0.23,0.13 0.49,0.2 0.76,0.2 0.28,0 0.53,-0.07 0.76,-0.2 0.23,-0.13 0.42,-0.32 0.55,-0.56 0.14,-0.24 0.2,-0.51 0.2,-0.79 0,-0.44 -0.15,-0.81 -0.45,-1.12 -0.3,-0.31 -0.66,-0.46 -1.07,-0.46z"/>
  <path id="_37" class="fil0" d="M17.14 23.83l-1.13 0 0 -3.92 1.12 0c0.43,0 0.73,0.1 0.92,0.29 0.19,0.2 0.28,0.43 0.28,0.69 0,0.4 -0.17,0.67 -0.52,0.81 0.51,0.18 0.76,0.53 0.76,1.04 0,0.72 -0.47,1.08 -1.42,1.08zm-0.63 -3.48l0 1.22 0.33 0c0.3,0 0.49,-0.01 0.58,-0.04 0.09,-0.02 0.18,-0.08 0.26,-0.18 0.08,-0.09 0.12,-0.22 0.12,-0.38 0,-0.16 -0.04,-0.3 -0.13,-0.41 -0.08,-0.11 -0.17,-0.17 -0.27,-0.19 -0.09,-0.02 -0.28,-0.03 -0.57,-0.03l-0.33 0zm0 1.68l0 1.37 0.54 0c0.25,0 0.44,-0.02 0.55,-0.05 0.11,-0.03 0.2,-0.1 0.28,-0.21 0.08,-0.11 0.12,-0.24 0.12,-0.41 0,-0.21 -0.07,-0.38 -0.2,-0.51 -0.13,-0.13 -0.31,-0.19 -0.53,-0.19l-0.75 0z"/>
  <path id="_38" class="fil0" d="M22.73 22.53l0.42 0.22c-0.14,0.27 -0.3,0.49 -0.48,0.66 -0.18,0.17 -0.39,0.29 -0.61,0.38 -0.23,0.09 -0.49,0.13 -0.77,0.13 -0.64,0 -1.14,-0.21 -1.49,-0.63 -0.36,-0.42 -0.54,-0.89 -0.54,-1.42 0,-0.5 0.15,-0.94 0.46,-1.33 0.38,-0.49 0.9,-0.74 1.55,-0.74 0.67,0 1.2,0.25 1.6,0.76 0.28,0.36 0.43,0.8 0.43,1.34l-3.52 0c0.01,0.45 0.16,0.83 0.44,1.11 0.28,0.29 0.63,0.44 1.04,0.44 0.2,0 0.39,-0.03 0.58,-0.1 0.19,-0.07 0.35,-0.16 0.48,-0.27 0.13,-0.11 0.28,-0.3 0.43,-0.55zm0.01 -1.06c-0.07,-0.27 -0.16,-0.48 -0.29,-0.64 -0.13,-0.16 -0.3,-0.29 -0.51,-0.39 -0.21,-0.1 -0.43,-0.15 -0.67,-0.15 -0.39,0 -0.72,0.12 -0.99,0.37 -0.2,0.18 -0.35,0.45 -0.46,0.81l2.92 0z"/>
  <polygon id="_39" class="fil0" points="23.77,19.91 26.33,19.91 26.33,20.35 25.3,20.35 25.3,23.83 24.8,23.83 24.8,20.35 23.77,20.35 "/>
  <path id="_40" class="fil0" d="M30.3 22.53l0.42 0.22c-0.14,0.27 -0.3,0.49 -0.48,0.66 -0.18,0.17 -0.39,0.29 -0.61,0.38 -0.23,0.09 -0.49,0.13 -0.77,0.13 -0.64,0 -1.14,-0.21 -1.49,-0.63 -0.36,-0.42 -0.54,-0.89 -0.54,-1.42 0,-0.5 0.15,-0.94 0.46,-1.33 0.39,-0.49 0.9,-0.74 1.55,-0.74 0.67,0 1.2,0.25 1.6,0.76 0.28,0.36 0.43,0.8 0.43,1.34l-3.52 0c0.01,0.45 0.16,0.83 0.43,1.11 0.28,0.29 0.63,0.44 1.04,0.44 0.2,0 0.39,-0.03 0.58,-0.1 0.19,-0.07 0.35,-0.16 0.48,-0.27 0.13,-0.11 0.27,-0.3 0.43,-0.55zm0.01 -1.06c-0.07,-0.27 -0.16,-0.48 -0.29,-0.64 -0.13,-0.16 -0.3,-0.29 -0.51,-0.39 -0.21,-0.1 -0.43,-0.15 -0.67,-0.15 -0.39,0 -0.72,0.12 -0.99,0.37 -0.2,0.18 -0.35,0.45 -0.46,0.81l2.92 0z"/>
  <path id="_41" class="fil0" d="M31.79 19.91l0.5 0 0 0.72c0.2,-0.27 0.43,-0.48 0.68,-0.61 0.26,-0.14 0.55,-0.2 0.86,-0.2 0.55,0 1.03,0.2 1.42,0.6 0.39,0.4 0.59,0.88 0.59,1.44 0,0.58 -0.2,1.06 -0.59,1.46 -0.39,0.4 -0.86,0.6 -1.41,0.6 -0.31,0 -0.59,-0.07 -0.85,-0.19 -0.26,-0.13 -0.49,-0.32 -0.71,-0.58l0 2.11 -0.5 0 0 -5.35zm2.01 0.39c-0.43,0 -0.8,0.15 -1.09,0.46 -0.3,0.3 -0.45,0.68 -0.45,1.13 0,0.3 0.07,0.56 0.2,0.8 0.13,0.24 0.32,0.42 0.57,0.56 0.25,0.14 0.51,0.21 0.78,0.21 0.27,0 0.52,-0.07 0.76,-0.21 0.24,-0.14 0.43,-0.33 0.57,-0.59 0.14,-0.25 0.21,-0.51 0.21,-0.79 0,-0.28 -0.07,-0.54 -0.21,-0.79 -0.14,-0.25 -0.33,-0.44 -0.56,-0.58 -0.23,-0.14 -0.49,-0.21 -0.77,-0.21z"/>
  <path id="_42" class="fil0" d="M39.47 21.55l0.26 0c0.17,0 0.32,-0.06 0.46,-0.16 0.14,-0.11 0.21,-0.27 0.21,-0.47 0,-0.17 -0.06,-0.32 -0.17,-0.45 -0.11,-0.13 -0.29,-0.19 -0.52,-0.19 -0.27,0 -0.55,0.11 -0.82,0.32l-0.28 -0.35c0.35,-0.3 0.73,-0.44 1.13,-0.44 0.33,0 0.6,0.1 0.82,0.29 0.22,0.19 0.33,0.44 0.33,0.75 0,0.41 -0.18,0.68 -0.54,0.83 0.47,0.2 0.7,0.54 0.7,1.04 0,0.31 -0.11,0.59 -0.33,0.85 -0.22,0.25 -0.55,0.38 -0.98,0.38 -0.53,0 -0.96,-0.17 -1.29,-0.52l0.31 -0.35c0.24,0.27 0.55,0.41 0.94,0.41 0.26,0 0.46,-0.07 0.6,-0.21 0.15,-0.14 0.22,-0.32 0.22,-0.54 0,-0.22 -0.07,-0.39 -0.22,-0.53 -0.15,-0.13 -0.32,-0.2 -0.52,-0.2l-0.31 0 0 -0.44z"/>
  <path id="_43" class="fil0" d="M45.79 19.91l0 3.92 -0.5 0 0 -0.67c-0.21,0.26 -0.45,0.45 -0.71,0.58 -0.26,0.13 -0.55,0.19 -0.86,0.19 -0.55,0 -1.02,-0.2 -1.41,-0.6 -0.39,-0.4 -0.58,-0.89 -0.58,-1.46 0,-0.56 0.2,-1.04 0.59,-1.44 0.39,-0.4 0.87,-0.6 1.42,-0.6 0.32,0 0.61,0.07 0.87,0.2 0.26,0.14 0.49,0.34 0.68,0.61l0 -0.72 0.5 0zm-2.01 0.39c-0.28,0 -0.54,0.07 -0.77,0.21 -0.24,0.14 -0.42,0.33 -0.56,0.58 -0.14,0.25 -0.21,0.51 -0.21,0.79 0,0.27 0.07,0.54 0.21,0.79 0.14,0.25 0.33,0.45 0.57,0.59 0.24,0.14 0.49,0.21 0.76,0.21 0.27,0 0.53,-0.07 0.78,-0.21 0.25,-0.14 0.43,-0.33 0.57,-0.56 0.13,-0.24 0.2,-0.5 0.2,-0.8 0,-0.45 -0.15,-0.83 -0.45,-1.13 -0.3,-0.3 -0.66,-0.46 -1.09,-0.46z"/>
  <polygon id="_44" class="fil0" points="51.17,19.91 51.31,19.91 52.63,23.83 52.1,23.83 51.14,20.95 49.64,23.83 49.54,23.83 48.04,20.94 47.08,23.83 46.56,23.83 47.88,19.91 48.02,19.91 49.59,22.98 "/>
  <path id="_45" class="fil0" d="M56.66 22.53l0.42 0.22c-0.14,0.27 -0.3,0.49 -0.48,0.66 -0.18,0.17 -0.39,0.29 -0.61,0.38 -0.23,0.09 -0.49,0.13 -0.77,0.13 -0.64,0 -1.14,-0.21 -1.49,-0.63 -0.36,-0.42 -0.54,-0.89 -0.54,-1.42 0,-0.5 0.15,-0.94 0.46,-1.33 0.39,-0.49 0.9,-0.74 1.55,-0.74 0.67,0 1.2,0.25 1.6,0.76 0.28,0.36 0.43,0.8 0.43,1.34l-3.52 0c0.01,0.45 0.16,0.83 0.43,1.11 0.28,0.29 0.63,0.44 1.04,0.44 0.2,0 0.39,-0.03 0.58,-0.1 0.19,-0.07 0.35,-0.16 0.48,-0.27 0.13,-0.11 0.28,-0.3 0.43,-0.55zm0.01 -1.06c-0.07,-0.27 -0.16,-0.48 -0.29,-0.64 -0.13,-0.16 -0.3,-0.29 -0.51,-0.39 -0.21,-0.1 -0.43,-0.15 -0.67,-0.15 -0.39,0 -0.72,0.12 -0.99,0.37 -0.2,0.18 -0.35,0.45 -0.46,0.81l2.92 0z"/>
  <polygon id="_46" class="fil0" points="57.7,19.91 60.26,19.91 60.26,20.35 59.23,20.35 59.23,23.83 58.73,23.83 58.73,20.35 57.7,20.35 "/>
  <path id="_47" class="fil0" d="M64.82 19.91l0 3.92 -0.5 0 0 -0.67c-0.21,0.26 -0.45,0.45 -0.71,0.58 -0.26,0.13 -0.55,0.19 -0.86,0.19 -0.55,0 -1.02,-0.2 -1.41,-0.6 -0.39,-0.4 -0.58,-0.89 -0.58,-1.46 0,-0.56 0.2,-1.04 0.59,-1.44 0.39,-0.4 0.87,-0.6 1.42,-0.6 0.32,0 0.61,0.07 0.87,0.2 0.26,0.14 0.49,0.34 0.68,0.61l0 -0.72 0.5 0zm-2.01 0.39c-0.28,0 -0.54,0.07 -0.77,0.21 -0.24,0.14 -0.42,0.33 -0.56,0.58 -0.14,0.25 -0.21,0.51 -0.21,0.79 0,0.27 0.07,0.54 0.21,0.79 0.14,0.25 0.33,0.45 0.57,0.59 0.24,0.14 0.49,0.21 0.76,0.21 0.27,0 0.53,-0.07 0.78,-0.21 0.25,-0.14 0.43,-0.33 0.57,-0.56 0.13,-0.24 0.2,-0.5 0.2,-0.8 0,-0.45 -0.15,-0.83 -0.45,-1.13 -0.3,-0.3 -0.66,-0.46 -1.09,-0.46z"/>
  <path id="_48" class="fil0" d="M69.24 22.53l0.42 0.22c-0.14,0.27 -0.3,0.49 -0.48,0.66 -0.18,0.17 -0.39,0.29 -0.61,0.38 -0.23,0.09 -0.49,0.13 -0.77,0.13 -0.64,0 -1.14,-0.21 -1.49,-0.63 -0.36,-0.42 -0.54,-0.89 -0.54,-1.42 0,-0.5 0.15,-0.94 0.46,-1.33 0.38,-0.49 0.9,-0.74 1.55,-0.74 0.67,0 1.2,0.25 1.6,0.76 0.28,0.36 0.43,0.8 0.43,1.34l-3.52 0c0.01,0.45 0.16,0.83 0.44,1.11 0.28,0.29 0.63,0.44 1.04,0.44 0.2,0 0.39,-0.03 0.58,-0.1 0.19,-0.07 0.35,-0.16 0.48,-0.27 0.13,-0.11 0.28,-0.3 0.43,-0.55zm0.01 -1.06c-0.07,-0.27 -0.16,-0.48 -0.29,-0.64 -0.13,-0.16 -0.3,-0.29 -0.51,-0.39 -0.21,-0.1 -0.43,-0.15 -0.67,-0.15 -0.39,0 -0.72,0.12 -0.99,0.37 -0.2,0.18 -0.35,0.45 -0.46,0.81l2.92 0z"/>
  <polygon id="_49" class="fil0" points="70.29,19.91 72.85,19.91 72.85,20.35 71.81,20.35 71.81,23.83 71.31,23.83 71.31,20.35 70.29,20.35 "/>
  <polygon id="_50" class="fil0" points="3.54,30.57 3.54,33.03 3.01,33.03 3.01,30.57 2.85,30.42 0.7,33.03 -0,33.03 2.51,30.1 0.2,27.73 0.9,27.73 3.01,29.97 3.01,27.73 3.54,27.73 3.54,29.97 5.66,27.73 6.36,27.73 4.05,30.1 6.56,33.03 5.86,33.03 3.7,30.42 "/>
  <path id="_51" class="fil0" d="M10.55 31.73l0.42 0.22c-0.14,0.27 -0.3,0.49 -0.48,0.66 -0.18,0.17 -0.39,0.29 -0.61,0.38 -0.23,0.09 -0.49,0.13 -0.77,0.13 -0.64,0 -1.14,-0.21 -1.49,-0.63 -0.36,-0.42 -0.54,-0.89 -0.54,-1.42 0,-0.5 0.15,-0.94 0.46,-1.33 0.39,-0.49 0.9,-0.74 1.55,-0.74 0.67,0 1.2,0.25 1.6,0.76 0.28,0.36 0.43,0.8 0.43,1.34l-3.52 0c0.01,0.45 0.16,0.83 0.43,1.11 0.28,0.29 0.63,0.44 1.04,0.44 0.2,0 0.39,-0.03 0.58,-0.1 0.19,-0.07 0.35,-0.16 0.48,-0.27 0.13,-0.11 0.28,-0.3 0.43,-0.55zm0.01 -1.06c-0.07,-0.27 -0.16,-0.48 -0.29,-0.64 -0.13,-0.16 -0.3,-0.29 -0.51,-0.39 -0.21,-0.1 -0.43,-0.15 -0.67,-0.15 -0.39,0 -0.72,0.12 -0.99,0.37 -0.2,0.18 -0.35,0.45 -0.46,0.81l2.92 0z"/>
  <polygon id="_52" class="fil0" points="15.33,33.03 14.81,33.03 13.49,30.18 12.2,33.03 11.66,33.03 13.44,29.11 13.53,29.11 "/>
  <polygon id="_53" class="fil0" points="15.66,29.11 18.22,29.11 18.22,29.55 17.19,29.55 17.19,33.03 16.69,33.03 16.69,29.55 15.66,29.55 "/>
  <path id="_54" class="fil0" d="M20.75 29.02c0.6,0 1.1,0.22 1.49,0.65 0.36,0.4 0.54,0.87 0.54,1.41 0,0.55 -0.19,1.02 -0.57,1.43 -0.38,0.41 -0.87,0.61 -1.46,0.61 -0.6,0 -1.09,-0.2 -1.47,-0.61 -0.38,-0.41 -0.57,-0.89 -0.57,-1.43 0,-0.54 0.18,-1.01 0.54,-1.41 0.39,-0.44 0.89,-0.66 1.5,-0.66zm-0 0.49c-0.42,0 -0.77,0.15 -1.07,0.46 -0.3,0.31 -0.45,0.68 -0.45,1.12 0,0.28 0.07,0.54 0.2,0.79 0.14,0.24 0.32,0.43 0.55,0.56 0.23,0.13 0.49,0.2 0.76,0.2 0.28,0 0.53,-0.07 0.76,-0.2 0.23,-0.13 0.42,-0.32 0.55,-0.56 0.14,-0.24 0.2,-0.51 0.2,-0.79 0,-0.44 -0.15,-0.81 -0.45,-1.12 -0.3,-0.31 -0.66,-0.46 -1.07,-0.46z"/>
  <path id="_55" class="fil0" d="M24.2 29.11l0 2.9 2.86 -2.9 0.04 0 0 3.92 -0.5 0 0 -2.88 -2.84 2.88 -0.06 0 0 -3.92 0.5 0zm-0.07 -1.58l0.47 0c0.08,0.13 0.19,0.22 0.33,0.28 0.14,0.06 0.3,0.09 0.49,0.09 0.19,0 0.35,-0.03 0.46,-0.08 0.12,-0.06 0.23,-0.15 0.33,-0.29l0.45 0c-0.05,0.22 -0.19,0.4 -0.4,0.54 -0.22,0.15 -0.5,0.22 -0.85,0.22 -0.35,0 -0.64,-0.07 -0.86,-0.21 -0.22,-0.14 -0.36,-0.32 -0.42,-0.55z"/>
  <path id="_56" class="fil0" d="M32.1 29.02c0.6,0 1.1,0.22 1.49,0.65 0.36,0.4 0.54,0.87 0.54,1.41 0,0.55 -0.19,1.02 -0.57,1.43 -0.38,0.41 -0.87,0.61 -1.46,0.61 -0.6,0 -1.09,-0.2 -1.47,-0.61 -0.38,-0.41 -0.57,-0.89 -0.57,-1.43 0,-0.54 0.18,-1.01 0.54,-1.41 0.39,-0.44 0.89,-0.66 1.5,-0.66zm-0 0.49c-0.42,0 -0.77,0.15 -1.07,0.46 -0.3,0.31 -0.45,0.68 -0.45,1.12 0,0.28 0.07,0.54 0.2,0.79 0.14,0.24 0.32,0.43 0.55,0.56 0.23,0.13 0.49,0.2 0.76,0.2 0.28,0 0.53,-0.07 0.76,-0.2 0.23,-0.13 0.42,-0.32 0.55,-0.56 0.14,-0.24 0.2,-0.51 0.2,-0.79 0,-0.44 -0.15,-0.81 -0.45,-1.12 -0.3,-0.31 -0.66,-0.46 -1.07,-0.46z"/>
  <path id="_57" class="fil0" d="M38.84 29.93l-0.4 0.25c-0.34,-0.46 -0.82,-0.69 -1.41,-0.69 -0.48,0 -0.87,0.15 -1.19,0.46 -0.31,0.31 -0.47,0.68 -0.47,1.12 0,0.29 0.07,0.55 0.22,0.8 0.14,0.25 0.34,0.45 0.6,0.59 0.25,0.14 0.54,0.21 0.85,0.21 0.57,0 1.04,-0.23 1.41,-0.69l0.4 0.26c-0.19,0.28 -0.44,0.5 -0.75,0.66 -0.32,0.16 -0.67,0.23 -1.08,0.23 -0.62,0 -1.13,-0.2 -1.54,-0.59 -0.41,-0.39 -0.61,-0.87 -0.61,-1.43 0,-0.38 0.1,-0.73 0.29,-1.05 0.19,-0.32 0.45,-0.58 0.78,-0.76 0.33,-0.18 0.71,-0.27 1.12,-0.27 0.26,0 0.51,0.04 0.75,0.12 0.24,0.08 0.44,0.18 0.61,0.31 0.17,0.13 0.31,0.29 0.43,0.48z"/>
  <path id="_58" class="fil0" d="M43.09 31.73l0.42 0.22c-0.14,0.27 -0.3,0.49 -0.48,0.66 -0.18,0.17 -0.39,0.29 -0.61,0.38 -0.23,0.09 -0.49,0.13 -0.77,0.13 -0.64,0 -1.14,-0.21 -1.49,-0.63 -0.36,-0.42 -0.54,-0.89 -0.54,-1.42 0,-0.5 0.15,-0.94 0.46,-1.33 0.38,-0.49 0.9,-0.74 1.55,-0.74 0.67,0 1.2,0.25 1.6,0.76 0.28,0.36 0.43,0.8 0.43,1.34l-3.52 0c0.01,0.45 0.16,0.83 0.43,1.11 0.28,0.29 0.63,0.44 1.04,0.44 0.2,0 0.39,-0.03 0.58,-0.1 0.19,-0.07 0.35,-0.16 0.48,-0.27 0.13,-0.11 0.28,-0.3 0.43,-0.55zm0.01 -1.06c-0.07,-0.27 -0.17,-0.48 -0.29,-0.64 -0.13,-0.16 -0.3,-0.29 -0.51,-0.39 -0.21,-0.1 -0.43,-0.15 -0.67,-0.15 -0.39,0 -0.72,0.12 -0.99,0.37 -0.2,0.18 -0.35,0.45 -0.46,0.81l2.92 0z"/>
  <polygon id="_59" class="fil0" points="47.34,31.14 45.06,31.14 45.06,33.03 44.57,33.03 44.57,29.11 45.06,29.11 45.06,30.67 47.34,30.67 47.34,29.11 47.84,29.11 47.84,33.03 47.34,33.03 "/>
  <polygon id="_60" class="fil0" points="49.45,29.11 49.45,32.02 52.32,29.11 52.36,29.11 52.36,33.03 51.86,33.03 51.86,30.15 49.01,33.03 48.95,33.03 48.95,29.11 "/>
  <path id="_61" class="fil0" d="M59.29 29.93l-0.4 0.25c-0.34,-0.46 -0.82,-0.69 -1.41,-0.69 -0.48,0 -0.87,0.15 -1.19,0.46 -0.31,0.31 -0.47,0.68 -0.47,1.12 0,0.29 0.07,0.55 0.22,0.8 0.14,0.25 0.34,0.45 0.6,0.59 0.25,0.14 0.54,0.21 0.85,0.21 0.57,0 1.04,-0.23 1.41,-0.69l0.4 0.26c-0.19,0.28 -0.44,0.5 -0.75,0.66 -0.32,0.16 -0.67,0.23 -1.08,0.23 -0.62,0 -1.13,-0.2 -1.54,-0.59 -0.41,-0.39 -0.61,-0.87 -0.61,-1.43 0,-0.38 0.1,-0.73 0.29,-1.05 0.19,-0.32 0.45,-0.58 0.78,-0.76 0.33,-0.18 0.71,-0.27 1.12,-0.27 0.26,0 0.51,0.04 0.75,0.12 0.24,0.08 0.44,0.18 0.61,0.31 0.17,0.13 0.31,0.29 0.43,0.48z"/>
  <polygon id="_62" class="fil0" points="63.55,33.03 63.03,33.03 61.71,30.18 60.42,33.03 59.88,33.03 61.66,29.11 61.75,29.11 "/>
  <path id="_63" class="fil0" d="M67.6 31.73l0.42 0.22c-0.14,0.27 -0.3,0.49 -0.48,0.66 -0.18,0.17 -0.39,0.29 -0.61,0.38 -0.23,0.09 -0.49,0.13 -0.77,0.13 -0.64,0 -1.14,-0.21 -1.49,-0.63 -0.36,-0.42 -0.54,-0.89 -0.54,-1.42 0,-0.5 0.15,-0.94 0.46,-1.33 0.39,-0.49 0.9,-0.74 1.55,-0.74 0.67,0 1.2,0.25 1.6,0.76 0.28,0.36 0.43,0.8 0.43,1.34l-3.52 0c0.01,0.45 0.16,0.83 0.43,1.11 0.28,0.29 0.63,0.44 1.04,0.44 0.2,0 0.39,-0.03 0.58,-0.1 0.19,-0.07 0.35,-0.16 0.48,-0.27 0.13,-0.11 0.28,-0.3 0.43,-0.55zm0.01 -1.06c-0.07,-0.27 -0.16,-0.48 -0.29,-0.64 -0.13,-0.16 -0.3,-0.29 -0.51,-0.39 -0.21,-0.1 -0.43,-0.15 -0.67,-0.15 -0.39,0 -0.72,0.12 -0.99,0.37 -0.2,0.18 -0.35,0.45 -0.46,0.81l2.92 0z"/>
  <path id="_64" class="fil0" d="M69.11 32.6l1.5 -3.49 0.26 0 1.5 3.49 0.47 0 0 0.93 -0.48 0 0 -0.5 -3.22 0 0 0.52 -0.5 0 0 -0.95 0.48 0zm1.63 -2.7l-1.14 2.7 2.23 0 -1.09 -2.7z"/>
  <path id="_65" class="fil0" d="M74.01 30.66l0.48 0c0.38,0 0.68,0.03 0.89,0.09 0.22,0.06 0.4,0.19 0.56,0.4 0.16,0.21 0.23,0.44 0.23,0.71 0,0.32 -0.11,0.6 -0.34,0.83 -0.22,0.23 -0.56,0.34 -1.02,0.34l-1.3 0 0 -3.92 0.49 0 0 1.55zm0.02 0.46l0 1.48 0.58 0c0.68,0 1.02,-0.24 1.02,-0.72 0,-0.14 -0.04,-0.27 -0.11,-0.4 -0.07,-0.13 -0.18,-0.22 -0.32,-0.28 -0.14,-0.05 -0.39,-0.08 -0.74,-0.08l-0.43 0zm2.84 -2.01l0.5 0 0 3.92 -0.5 0 0 -3.92z"/>
  <path id="_66" class="fil0" d="M78.98 32.24c0.12,0 0.22,0.04 0.31,0.13 0.09,0.09 0.13,0.19 0.13,0.32 0,0.12 -0.04,0.23 -0.13,0.31 -0.09,0.09 -0.19,0.13 -0.31,0.13 -0.12,0 -0.22,-0.04 -0.31,-0.13 -0.09,-0.09 -0.13,-0.19 -0.13,-0.31 0,-0.13 0.04,-0.23 0.13,-0.32 0.09,-0.09 0.19,-0.13 0.31,-0.13z"/>
  <path id="_67" class="fil0" d="M1.53 36.71l0.58 0c-0.23,0.48 -0.42,1.04 -0.56,1.69 -0.14,0.64 -0.21,1.3 -0.21,1.99 0,0.63 0.05,1.24 0.16,1.83 0.11,0.59 0.25,1.1 0.44,1.55l-0.55 0c-0.18,-0.43 -0.32,-0.93 -0.42,-1.51 -0.11,-0.58 -0.16,-1.18 -0.16,-1.81 0,-0.67 0.06,-1.33 0.19,-1.97 0.12,-0.64 0.3,-1.23 0.54,-1.77z"/>
  <path id="_68" class="fil0" d="M6.99 38.31l0 3.92 -0.5 0 0 -0.67c-0.21,0.26 -0.45,0.45 -0.71,0.58 -0.26,0.13 -0.55,0.19 -0.86,0.19 -0.55,0 -1.02,-0.2 -1.41,-0.6 -0.39,-0.4 -0.58,-0.89 -0.58,-1.46 0,-0.56 0.2,-1.04 0.59,-1.44 0.39,-0.4 0.87,-0.6 1.42,-0.6 0.32,0 0.61,0.07 0.87,0.2 0.26,0.14 0.49,0.34 0.68,0.61l0 -0.72 0.5 0zm-2.01 0.39c-0.28,0 -0.54,0.07 -0.77,0.21 -0.24,0.14 -0.42,0.33 -0.56,0.58 -0.14,0.25 -0.21,0.51 -0.21,0.79 0,0.27 0.07,0.54 0.21,0.79 0.14,0.25 0.33,0.45 0.57,0.59 0.24,0.14 0.49,0.21 0.76,0.21 0.27,0 0.53,-0.07 0.78,-0.21 0.25,-0.14 0.43,-0.33 0.57,-0.56 0.13,-0.24 0.2,-0.5 0.2,-0.8 0,-0.45 -0.15,-0.83 -0.45,-1.13 -0.3,-0.3 -0.66,-0.46 -1.09,-0.46z"/>
  <path id="_69" class="fil0" d="M9.26 42.23l-1.13 0 0 -3.92 1.12 0c0.43,0 0.73,0.1 0.92,0.29 0.19,0.2 0.28,0.43 0.28,0.69 0,0.4 -0.17,0.67 -0.52,0.81 0.51,0.18 0.76,0.53 0.76,1.04 0,0.72 -0.47,1.08 -1.42,1.08zm-0.63 -3.48l0 1.22 0.33 0c0.3,0 0.49,-0.01 0.58,-0.04 0.09,-0.02 0.18,-0.08 0.26,-0.18 0.08,-0.09 0.12,-0.22 0.12,-0.38 0,-0.16 -0.04,-0.3 -0.13,-0.41 -0.08,-0.11 -0.17,-0.17 -0.27,-0.19 -0.09,-0.02 -0.28,-0.03 -0.57,-0.03l-0.33 0zm0 1.68l0 1.37 0.54 0c0.25,0 0.44,-0.02 0.55,-0.05 0.11,-0.03 0.2,-0.1 0.28,-0.21 0.08,-0.11 0.12,-0.24 0.12,-0.41 0,-0.21 -0.07,-0.38 -0.2,-0.51 -0.13,-0.13 -0.31,-0.19 -0.53,-0.19l-0.75 0z"/>
  <polygon id="_70" class="fil0" points="11.12,38.31 13.68,38.31 13.68,38.75 12.65,38.75 12.65,42.23 12.15,42.23 12.15,38.75 11.12,38.75 "/>
  <path id="_71" class="fil0" d="M16.21 38.22c0.6,0 1.1,0.22 1.49,0.65 0.36,0.4 0.54,0.87 0.54,1.41 0,0.55 -0.19,1.02 -0.57,1.43 -0.38,0.41 -0.87,0.61 -1.46,0.61 -0.6,0 -1.09,-0.2 -1.47,-0.61 -0.38,-0.41 -0.57,-0.89 -0.57,-1.43 0,-0.54 0.18,-1.01 0.54,-1.41 0.39,-0.44 0.89,-0.66 1.5,-0.66zm-0 0.49c-0.42,0 -0.77,0.15 -1.07,0.46 -0.3,0.31 -0.45,0.68 -0.45,1.12 0,0.28 0.07,0.54 0.2,0.79 0.14,0.24 0.32,0.43 0.55,0.56 0.23,0.13 0.49,0.2 0.76,0.2 0.28,0 0.53,-0.07 0.76,-0.2 0.23,-0.13 0.42,-0.32 0.55,-0.56 0.14,-0.24 0.2,-0.51 0.2,-0.79 0,-0.44 -0.15,-0.81 -0.45,-1.12 -0.3,-0.31 -0.66,-0.46 -1.07,-0.46z"/>
  <path id="_72" class="fil0" d="M19.17 38.31l0.5 0 0 0.72c0.2,-0.27 0.43,-0.48 0.68,-0.61 0.26,-0.14 0.55,-0.2 0.86,-0.2 0.55,0 1.03,0.2 1.42,0.6 0.39,0.4 0.59,0.88 0.59,1.44 0,0.58 -0.2,1.06 -0.59,1.46 -0.39,0.4 -0.86,0.6 -1.41,0.6 -0.31,0 -0.59,-0.07 -0.85,-0.19 -0.26,-0.13 -0.49,-0.32 -0.71,-0.58l0 2.11 -0.5 0 0 -5.35zm2.01 0.39c-0.43,0 -0.8,0.15 -1.09,0.46 -0.3,0.3 -0.45,0.68 -0.45,1.13 0,0.3 0.07,0.56 0.2,0.8 0.13,0.24 0.32,0.42 0.57,0.56 0.25,0.14 0.51,0.21 0.78,0.21 0.27,0 0.52,-0.07 0.76,-0.21 0.24,-0.14 0.43,-0.33 0.57,-0.59 0.14,-0.25 0.21,-0.51 0.21,-0.79 0,-0.28 -0.07,-0.54 -0.21,-0.79 -0.14,-0.25 -0.33,-0.44 -0.56,-0.58 -0.23,-0.14 -0.49,-0.21 -0.77,-0.21z"/>
  <path id="_73" class="fil0" d="M24.72 38.22c0.12,0 0.22,0.04 0.31,0.13 0.09,0.09 0.13,0.19 0.13,0.32 0,0.12 -0.04,0.23 -0.13,0.32 -0.09,0.09 -0.19,0.13 -0.31,0.13 -0.12,0 -0.22,-0.04 -0.31,-0.13 -0.09,-0.09 -0.13,-0.19 -0.13,-0.32 0,-0.12 0.04,-0.23 0.13,-0.31 0.09,-0.09 0.19,-0.13 0.31,-0.13zm0 3.22c0.12,0 0.22,0.04 0.31,0.13 0.09,0.09 0.13,0.19 0.13,0.32 0,0.12 -0.04,0.23 -0.13,0.31 -0.09,0.09 -0.19,0.13 -0.31,0.13 -0.12,0 -0.22,-0.04 -0.31,-0.13 -0.09,-0.09 -0.13,-0.19 -0.13,-0.31 0,-0.13 0.04,-0.23 0.13,-0.32 0.09,-0.09 0.19,-0.13 0.31,-0.13z"/>
  <polygon id="_74" class="fil0" points="28.32,36.93 31.33,36.93 31.33,37.45 28.85,37.45 28.85,39.11 31.31,39.11 31.31,39.63 28.85,39.63 28.85,41.72 31.31,41.72 31.31,42.23 28.32,42.23 "/>
  <path id="_75" class="fil0" d="M32.71 41.44c0.12,0 0.22,0.04 0.31,0.13 0.09,0.09 0.13,0.19 0.13,0.32 0,0.12 -0.04,0.23 -0.13,0.31 -0.09,0.09 -0.19,0.13 -0.31,0.13 -0.12,0 -0.22,-0.04 -0.31,-0.13 -0.09,-0.09 -0.13,-0.19 -0.13,-0.31 0,-0.13 0.04,-0.23 0.13,-0.32 0.09,-0.09 0.19,-0.13 0.31,-0.13z"/>
  <path id="_76" class="fil0" d="M36.41 37.45c0.37,-0.43 0.83,-0.65 1.37,-0.65 0.43,0 0.79,0.13 1.07,0.38 0.28,0.25 0.42,0.57 0.42,0.97 0,0.56 -0.26,0.97 -0.79,1.21 0.69,0.22 1.04,0.68 1.04,1.4 0,0.48 -0.16,0.87 -0.47,1.16 -0.31,0.29 -0.74,0.44 -1.28,0.44 -0.38,0 -0.71,-0.08 -0.98,-0.24 -0.28,-0.16 -0.54,-0.43 -0.79,-0.83l0.41 -0.24c0.24,0.36 0.47,0.59 0.69,0.69 0.21,0.1 0.43,0.15 0.66,0.15 0.34,0 0.62,-0.1 0.85,-0.29 0.23,-0.19 0.35,-0.48 0.35,-0.86 0,-0.2 -0.04,-0.37 -0.12,-0.52 -0.08,-0.15 -0.19,-0.27 -0.34,-0.36 -0.15,-0.09 -0.28,-0.15 -0.42,-0.17 -0.13,-0.02 -0.35,-0.04 -0.65,-0.04l-0.09 0 0 -0.46 0.18 0c0.78,0 1.17,-0.32 1.17,-0.95 0,-0.3 -0.09,-0.53 -0.27,-0.7 -0.18,-0.17 -0.4,-0.26 -0.68,-0.26 -0.35,0 -0.69,0.16 -1,0.48l-0.36 -0.32z"/>
  <polygon id="_77" class="fil0" points="40.98,38.31 40.98,41.22 43.85,38.31 43.89,38.31 43.89,42.23 43.39,42.23 43.39,39.35 40.54,42.23 40.48,42.23 40.48,38.31 "/>
  <polygon id="_78" class="fil0" points="44.56,38.31 45.16,38.31 46.2,39.75 47.22,38.31 47.82,38.31 46.5,40.16 47.99,42.23 47.39,42.23 46.2,40.58 45.02,42.23 44.42,42.23 45.9,40.17 "/>
  <path id="_79" class="fil0" d="M48.99 43.76l-0.58 0c0.24,-0.48 0.43,-1.04 0.57,-1.69 0.14,-0.64 0.21,-1.3 0.21,-1.99 0,-0.63 -0.05,-1.24 -0.16,-1.83 -0.11,-0.59 -0.25,-1.1 -0.44,-1.55l0.55 0c0.18,0.43 0.32,0.93 0.43,1.51 0.1,0.58 0.16,1.18 0.16,1.81 0,0.67 -0.06,1.33 -0.19,1.97 -0.12,0.64 -0.31,1.23 -0.54,1.77z"/>
 </g>
</svg>
