<?xml version="1.0" encoding="UTF-8"?>
<!DOCTYPE svg PUBLIC "-//W3C//DTD SVG 1.1//EN" "http://www.w3.org/Graphics/SVG/1.1/DTD/svg11.dtd">
<!-- Creator: CorelDRAW -->
<svg xmlns="http://www.w3.org/2000/svg" xml:space="preserve" width="27.8225mm" height="8.6647mm" version="1.1" style="shape-rendering:geometricPrecision; text-rendering:geometricPrecision; image-rendering:optimizeQuality; fill-rule:evenodd; clip-rule:evenodd"
viewBox="0 0 46.24 14.4"
 xmlns:xlink="http://www.w3.org/1999/xlink"
 xmlns:xodm="http://www.corel.com/coreldraw/odm/2003">
 <defs>
  <style type="text/css">
   <![CDATA[
    .fil0 {fill:#969677;fill-rule:nonzero}
    .fil1 {fill:white;fill-rule:nonzero}
   ]]>
  </style>
 </defs>
 <g id="Слой_x0020_1">
  <metadata id="CorelCorpID_0Corel-Layer"/>
  <path class="fil0" d="M3.2 4.5c-0.05,0.09 -0.11,0.16 -0.2,0.21 -0.09,0.05 -0.18,0.07 -0.27,0.05 0.09,-0.02 0.17,-0.05 0.24,-0.1 0.07,-0.05 0.13,-0.12 0.16,-0.19 0.07,-0.14 0.08,-0.31 0.04,-0.51 0.05,0.08 0.08,0.17 0.08,0.27 0.01,0.1 -0.01,0.19 -0.05,0.28zm-0.76 -0.25c-0.04,-0.08 -0.06,-0.16 -0.05,-0.24 0.01,-0.08 0.04,-0.13 0.1,-0.17 0.06,-0.03 0.12,-0.03 0.19,0 0.07,0.03 0.13,0.09 0.18,0.17 0.04,0.08 0.06,0.16 0.05,0.24 -0.01,0.08 -0.04,0.14 -0.1,0.17 -0.06,0.03 -0.12,0.03 -0.19,0 -0.07,-0.03 -0.13,-0.09 -0.18,-0.17zm-0.36 -1.71c0.06,-0.02 0.12,-0.04 0.18,-0.07 0.06,-0.04 0.11,-0.07 0.15,-0.12 0.04,-0.04 0.08,-0.09 0.12,-0.15 0.03,-0.05 0.06,-0.11 0.08,-0.18 0.02,0.14 -0.03,0.27 -0.14,0.38 -0.05,0.05 -0.11,0.09 -0.18,0.12 -0.07,0.03 -0.14,0.03 -0.2,0.02zm-0.09 -0.59c0.03,-0.05 0.07,-0.09 0.12,-0.12 0.05,-0.02 0.09,-0.02 0.13,0 0.03,0.02 0.06,0.06 0.06,0.11 0.01,0.05 -0.01,0.1 -0.04,0.16 -0.03,0.05 -0.07,0.09 -0.12,0.12 -0.05,0.02 -0.09,0.02 -0.13,0 -0.04,-0.02 -0.06,-0.06 -0.06,-0.11 -0.01,-0.05 0.01,-0.1 0.04,-0.16zm-0.7 -0.73c-0.07,0.07 -0.13,0.15 -0.2,0.25 -0.1,0.16 -0.2,0.35 -0.29,0.57 -0.07,0.18 -0.13,0.39 -0.19,0.62 0.02,-0.21 0.07,-0.43 0.13,-0.64 0.07,-0.22 0.16,-0.42 0.28,-0.6 0.14,-0.21 0.29,-0.36 0.47,-0.46 0.11,-0.06 0.21,-0.11 0.31,-0.13 0.11,-0.03 0.22,-0.04 0.32,-0.03 -0.22,0.02 -0.42,0.09 -0.6,0.21 -0.09,0.06 -0.17,0.13 -0.24,0.21zm1.76 1.57c-0.05,-0.02 -0.06,-0.06 -0.03,-0.13 0.01,-0.03 0.03,-0.06 0.06,-0.12l0.02 -0.03 0.02 -0.04c0.02,-0.03 0.03,-0.06 0.04,-0.09 0.07,-0.15 0.13,-0.29 0.15,-0.43 0.04,-0.2 0.05,-0.4 0.01,-0.61 -0.04,-0.23 -0.17,-0.43 -0.39,-0.59 -0.22,-0.16 -0.48,-0.25 -0.77,-0.26 -0.32,-0.01 -0.61,0.08 -0.89,0.27 -0.31,0.22 -0.56,0.55 -0.74,1 -0.19,0.46 -0.29,0.97 -0.3,1.51 -0.02,0.56 0.06,1.07 0.22,1.54 0.18,0.51 0.45,0.9 0.8,1.17 0.39,0.3 0.87,0.43 1.42,0.4 0.53,-0.04 0.95,-0.21 1.26,-0.52 0.29,-0.28 0.44,-0.63 0.47,-1.05 0.03,-0.41 -0.07,-0.8 -0.3,-1.16 -0.25,-0.39 -0.6,-0.68 -1.06,-0.87z"/>
  <path id="_1" class="fil0" d="M7.59 4.59c-0.05,0.08 -0.11,0.13 -0.2,0.17 -0.08,0.04 -0.16,0.05 -0.25,0.03 0.17,-0.03 0.3,-0.11 0.38,-0.24 0.04,-0.05 0.07,-0.13 0.09,-0.21 0.01,-0.07 0.02,-0.15 0.02,-0.24 0.03,0.08 0.05,0.16 0.04,0.25 -0.01,0.09 -0.03,0.17 -0.08,0.24zm-0.72 -0.32c-0.04,-0.08 -0.05,-0.16 -0.04,-0.23 0.01,-0.08 0.04,-0.13 0.1,-0.16 0.06,-0.03 0.12,-0.02 0.19,0.01 0.07,0.04 0.13,0.09 0.17,0.17 0.04,0.08 0.05,0.16 0.04,0.24 -0.01,0.08 -0.05,0.13 -0.11,0.16 -0.06,0.03 -0.12,0.03 -0.19,-0.01 -0.07,-0.04 -0.13,-0.09 -0.17,-0.18zm-0.38 -3.41c-0.05,0.03 -0.11,0.06 -0.17,0.11 -0.1,0.08 -0.19,0.18 -0.28,0.29 -0.07,0.08 -0.15,0.19 -0.24,0.33 -0.03,0.05 -0.07,0.11 -0.11,0.18l-0.11 0.18c0.05,-0.15 0.11,-0.28 0.17,-0.38 0.07,-0.13 0.15,-0.25 0.23,-0.35 0.1,-0.12 0.2,-0.22 0.31,-0.29 0.14,-0.1 0.27,-0.14 0.4,-0.13 -0.07,0.01 -0.13,0.03 -0.19,0.07zm1.06 1.99c-0.14,-0.04 -0.23,-0.12 -0.27,-0.23 -0.03,-0.09 -0.03,-0.21 -0,-0.38 0.01,-0.03 0.01,-0.07 0.02,-0.12l0.02 -0.12c0.02,-0.11 0.04,-0.19 0.05,-0.25 0.03,-0.21 0.04,-0.39 0.02,-0.56 -0.03,-0.23 -0.12,-0.41 -0.26,-0.55 -0.15,-0.14 -0.32,-0.2 -0.52,-0.18 -0.22,0.02 -0.44,0.13 -0.65,0.34 -0.25,0.23 -0.47,0.56 -0.67,1 -0.21,0.45 -0.34,0.94 -0.4,1.46 -0.06,0.54 -0.03,1.04 0.09,1.49 0.13,0.49 0.36,0.88 0.67,1.16 0.36,0.31 0.81,0.46 1.36,0.45 0.52,-0.01 0.95,-0.16 1.29,-0.47 0.31,-0.28 0.5,-0.64 0.57,-1.06 0.06,-0.43 -0.01,-0.82 -0.23,-1.18 -0.24,-0.39 -0.6,-0.66 -1.09,-0.81zm1.71 -1.9c-0.05,0.04 -0.08,0.09 -0.1,0.16 -0.02,0.06 -0.03,0.12 -0.04,0.19 -0.01,0.1 0.01,0.24 0.03,0.41l0.04 0.2 0.04 0.21c-0.06,-0.15 -0.1,-0.28 -0.14,-0.4 -0.04,-0.16 -0.06,-0.3 -0.05,-0.42 0.01,-0.08 0.02,-0.15 0.04,-0.22 0.03,-0.08 0.08,-0.14 0.13,-0.18 0.11,-0.08 0.25,-0.12 0.41,-0.1 -0.15,0.02 -0.27,0.07 -0.36,0.15zm1.43 0.23c-0.11,-0.22 -0.27,-0.39 -0.45,-0.51 -0.17,-0.11 -0.35,-0.17 -0.53,-0.19 -0.18,-0.01 -0.35,0.02 -0.5,0.09 -0.15,0.07 -0.26,0.18 -0.34,0.32 -0.13,0.26 -0.13,0.64 0.01,1.14 0.02,0.08 0.05,0.18 0.09,0.31l0.05 0.16 0.05 0.16c0.07,0.25 0.12,0.46 0.14,0.62 0.05,0.4 0.07,0.81 0.06,1.23 -0,0.13 -0.01,0.29 -0.02,0.48l-0 0.11 -0 0.1c-0.01,0.08 -0.01,0.14 -0.01,0.19 -0.01,0.26 0.01,0.44 0.04,0.55 0.05,0.13 0.15,0.22 0.3,0.26 0.3,0.07 0.56,-0.09 0.8,-0.48 0.21,-0.34 0.38,-0.82 0.49,-1.42 0.11,-0.58 0.15,-1.16 0.12,-1.73 -0.03,-0.6 -0.13,-1.06 -0.3,-1.38z"/>
  <path id="_2" class="fil0" d="M12.9 1c-0.02,0.01 -0.05,0.03 -0.09,0.04l-0.08 0.04 -0.08 0.04c-0.03,0.02 -0.06,0.04 -0.08,0.05 -0.09,0.06 -0.19,0.13 -0.29,0.23 -0.11,0.11 -0.19,0.21 -0.24,0.28 -0.13,0.19 -0.22,0.42 -0.26,0.68 -0.01,0.05 -0.02,0.12 -0.02,0.19l-0.01 0.19c-0.01,0.05 -0.01,0.12 -0.01,0.19l-0 0.19c-0.03,-0.27 -0.03,-0.52 -0.01,-0.76 0.03,-0.27 0.11,-0.51 0.26,-0.72l0.06 -0.08 0.06 -0.07c0.01,-0.02 0.03,-0.04 0.06,-0.07l0.04 -0.03 0.03 -0.04c0.12,-0.11 0.22,-0.18 0.31,-0.23 0.21,-0.13 0.45,-0.21 0.71,-0.26l-0.09 0.03 -0.09 0.03c-0.06,0.02 -0.12,0.05 -0.17,0.07zm2.88 0.77c-0.23,-0.49 -0.58,-0.85 -1.06,-1.07 -0.44,-0.2 -0.9,-0.26 -1.4,-0.17 -0.5,0.08 -0.92,0.28 -1.26,0.61 -0.37,0.35 -0.58,0.77 -0.63,1.27 -0.09,0.93 0.06,1.84 0.43,2.73 0.17,0.4 0.35,0.71 0.56,0.93 0.22,0.24 0.44,0.34 0.65,0.31 0.3,-0.04 0.49,-0.22 0.55,-0.54 0.07,-0.36 0.03,-0.98 -0.14,-1.86 -0.13,-0.7 -0.05,-1.07 0.23,-1.11 0.16,-0.02 0.29,0.1 0.38,0.37 0.08,0.25 0.12,0.56 0.11,0.93 -0.03,0.83 0.06,1.42 0.27,1.75 0.16,0.25 0.39,0.37 0.69,0.35 0.26,-0.01 0.47,-0.18 0.65,-0.5 0.17,-0.29 0.28,-0.68 0.34,-1.15 0.06,-0.47 0.06,-0.96 0,-1.46 -0.07,-0.53 -0.19,-0.99 -0.38,-1.4z"/>
  <path id="_3" class="fil0" d="M20.39 0.92c-0.05,0.05 -0.11,0.11 -0.16,0.19 -0.08,0.11 -0.17,0.25 -0.28,0.42l-0.07 0.11 -0.07 0.11c-0.05,0.09 -0.1,0.16 -0.14,0.21 -0.07,0.09 -0.12,0.15 -0.17,0.2 -0.08,0.07 -0.16,0.11 -0.23,0.12 0.08,-0.03 0.14,-0.08 0.2,-0.15 0.04,-0.05 0.09,-0.12 0.15,-0.2 0.03,-0.05 0.07,-0.13 0.13,-0.22l0.13 -0.22c0.11,-0.18 0.21,-0.33 0.29,-0.42 0.07,-0.07 0.13,-0.13 0.19,-0.18 0.09,-0.06 0.17,-0.09 0.24,-0.09 -0.07,0.01 -0.14,0.05 -0.21,0.12zm-2.63 3.7c-0.07,0.05 -0.12,0.09 -0.16,0.12 -0.13,0.09 -0.22,0.18 -0.29,0.27 -0.04,0.06 -0.07,0.11 -0.1,0.17 -0.02,0.05 -0.04,0.12 -0.06,0.2 -0,-0.07 0,-0.14 0.02,-0.21 0.02,-0.07 0.05,-0.13 0.09,-0.19 0.06,-0.1 0.16,-0.2 0.29,-0.3 0.09,-0.07 0.21,-0.14 0.34,-0.23l0.09 -0.05 0.09 -0.05c0.07,-0.04 0.13,-0.08 0.17,-0.11 -0.07,0.08 -0.18,0.18 -0.31,0.27l-0.16 0.12zm-0.69 -3.34c-0.04,0.05 -0.07,0.12 -0.09,0.2 -0.02,0.07 -0.03,0.14 -0.03,0.23 -0.03,-0.07 -0.04,-0.15 -0.03,-0.24 0.01,-0.08 0.04,-0.16 0.09,-0.23 0.05,-0.07 0.12,-0.12 0.19,-0.16 0.08,-0.04 0.16,-0.05 0.24,-0.03 -0.16,0.03 -0.28,0.11 -0.37,0.23zm3.54 -0.79c-0.16,0 -0.33,0.08 -0.49,0.23 -0.12,0.12 -0.25,0.29 -0.4,0.51l-0.09 0.14 -0.04 0.07 -0.04 0.07c-0.07,0.11 -0.11,0.19 -0.15,0.24 -0.1,0.16 -0.19,0.24 -0.25,0.24 -0.06,0 -0.19,-0.11 -0.39,-0.32l-0.03 -0.04 -0.04 -0.04c-0.03,-0.03 -0.05,-0.06 -0.07,-0.08 -0.06,-0.06 -0.11,-0.12 -0.16,-0.17 -0.13,-0.13 -0.26,-0.25 -0.39,-0.36 -0.2,-0.17 -0.42,-0.25 -0.64,-0.25 -0.2,0 -0.38,0.07 -0.53,0.2 -0.15,0.13 -0.24,0.3 -0.27,0.51 -0.04,0.22 0.01,0.43 0.13,0.65 0.09,0.15 0.22,0.32 0.39,0.49 0.07,0.07 0.14,0.14 0.23,0.22l0.11 0.1 0.11 0.1c0.19,0.16 0.32,0.29 0.39,0.37 0.11,0.13 0.17,0.24 0.18,0.34 0.01,0.1 -0.05,0.21 -0.19,0.32 -0.05,0.04 -0.12,0.09 -0.21,0.15l-0.06 0.04 -0.06 0.04 -0.13 0.08c-0.21,0.14 -0.37,0.28 -0.47,0.41 -0.15,0.18 -0.23,0.39 -0.24,0.61 -0.01,0.17 0.02,0.33 0.09,0.48 0.07,0.15 0.17,0.27 0.31,0.36 0.3,0.2 0.68,0.24 1.14,0.1 0.61,-0.19 1.21,-0.71 1.82,-1.58 0.54,-0.78 0.89,-1.52 1.04,-2.22 0.16,-0.72 0.16,-1.25 0.02,-1.59 -0.12,-0.29 -0.33,-0.43 -0.65,-0.43z"/>
  <path id="_4" class="fil0" d="M25.21 4.06c-0.03,0.01 -0.05,0.03 -0.09,0.06l-0.04 0.03 -0.04 0.03c-0.07,0.05 -0.15,0.08 -0.21,0.1 -0.08,0.02 -0.16,0.02 -0.23,0.01 0.14,-0.03 0.27,-0.08 0.4,-0.17l0.04 -0.03 0.04 -0.03c0.04,-0.03 0.08,-0.04 0.11,-0.05 0.08,-0.04 0.16,-0.04 0.23,-0.03 -0.07,0.01 -0.14,0.04 -0.2,0.08zm-2.36 -2.73c-0.14,0.15 -0.27,0.32 -0.38,0.52 -0.09,0.17 -0.18,0.37 -0.26,0.6 0.04,-0.22 0.11,-0.43 0.21,-0.63 0.1,-0.2 0.22,-0.38 0.38,-0.54 0.16,-0.17 0.35,-0.3 0.55,-0.38 0.11,-0.04 0.22,-0.07 0.32,-0.08 0.12,-0.02 0.23,-0.02 0.33,-0.01 -0.24,0.02 -0.45,0.07 -0.63,0.15 -0.2,0.1 -0.37,0.22 -0.52,0.38zm3.25 3.17c-0.04,-0.43 -0.19,-0.69 -0.46,-0.8 -0.12,-0.05 -0.24,-0.05 -0.38,-0.03 -0.13,0.03 -0.26,0.09 -0.38,0.19 -0.12,0.09 -0.24,0.13 -0.37,0.12 -0.12,-0.01 -0.23,-0.07 -0.33,-0.17 -0.1,-0.1 -0.17,-0.24 -0.22,-0.4 -0.05,-0.18 -0.06,-0.37 -0.03,-0.58 0.04,-0.3 0.19,-0.47 0.43,-0.51 0.18,-0.03 0.42,0.02 0.74,0.13 0.14,0.05 0.27,0.05 0.38,-0.01 0.11,-0.05 0.2,-0.14 0.25,-0.26 0.06,-0.13 0.07,-0.27 0.05,-0.43 -0.03,-0.17 -0.1,-0.33 -0.21,-0.49 -0.25,-0.33 -0.57,-0.56 -0.97,-0.69 -0.37,-0.12 -0.74,-0.13 -1.12,-0.03 -0.48,0.12 -0.89,0.43 -1.21,0.93 -0.35,0.55 -0.52,1.24 -0.52,2.05 0,0.92 0.24,1.65 0.71,2.17 0.22,0.25 0.48,0.43 0.78,0.54 0.3,0.12 0.63,0.16 0.98,0.13 0.59,-0.05 1.07,-0.26 1.42,-0.64 0.34,-0.36 0.49,-0.77 0.44,-1.23z"/>
  <path id="_5" class="fil0" d="M29.24 1.77c-0.11,0.14 -0.22,0.26 -0.32,0.35 -0.14,0.12 -0.27,0.21 -0.4,0.25 0.1,-0.06 0.22,-0.17 0.36,-0.3 0.1,-0.11 0.21,-0.22 0.31,-0.35 0.05,-0.06 0.1,-0.12 0.14,-0.19l0.04 -0.05 0.03 -0.05c0.03,-0.04 0.05,-0.07 0.07,-0.1 0.06,-0.06 0.12,-0.11 0.19,-0.15 0.08,-0.04 0.16,-0.05 0.23,-0.05 -0.14,0.01 -0.27,0.09 -0.38,0.23 -0.02,0.02 -0.04,0.05 -0.07,0.1l-0.03 0.05 -0.03 0.05c-0.04,0.05 -0.09,0.12 -0.14,0.19zm-1.61 -0.9c-0.05,0.04 -0.11,0.08 -0.15,0.14 -0.07,0.09 -0.14,0.21 -0.21,0.37 -0.04,0.1 -0.09,0.23 -0.15,0.41l-0.06 0.21 -0.06 0.21c0.01,-0.17 0.04,-0.31 0.07,-0.44 0.04,-0.15 0.08,-0.29 0.14,-0.42 0.07,-0.16 0.15,-0.29 0.23,-0.38 0.05,-0.06 0.11,-0.1 0.18,-0.13 0.08,-0.03 0.15,-0.05 0.22,-0.04 -0.07,0.01 -0.14,0.04 -0.2,0.07zm1.84 2.39c-0.11,-0.06 -0.14,-0.12 -0.08,-0.16 0.02,-0.02 0.07,-0.05 0.13,-0.08l0.04 -0.02 0.05 -0.03c0.05,-0.02 0.08,-0.04 0.11,-0.05 0.21,-0.1 0.37,-0.21 0.5,-0.33 0.19,-0.17 0.32,-0.38 0.4,-0.62 0.07,-0.22 0.07,-0.43 -0.01,-0.63 -0.07,-0.18 -0.2,-0.32 -0.37,-0.41 -0.17,-0.09 -0.35,-0.11 -0.54,-0.06 -0.21,0.06 -0.39,0.2 -0.53,0.42 -0.25,0.38 -0.49,0.64 -0.71,0.78 -0.09,0.06 -0.15,0.07 -0.18,0.05 -0.03,-0.03 -0.02,-0.09 0.03,-0.19 0.2,-0.41 0.26,-0.75 0.18,-1 -0.06,-0.21 -0.21,-0.35 -0.43,-0.4 -0.47,-0.11 -0.83,0.12 -1.08,0.7 -0.21,0.46 -0.34,1.13 -0.4,2.01 -0.06,0.89 -0.02,1.6 0.12,2.14 0.17,0.66 0.47,0.98 0.91,0.96 0.4,-0.01 0.63,-0.31 0.7,-0.89 0.02,-0.19 0.02,-0.41 0,-0.66 -0.01,-0.08 -0.02,-0.17 -0.03,-0.25 -0,-0.03 -0.01,-0.07 -0.01,-0.1l-0 -0.04 -0 -0.02 0 -0.01c-0.01,-0.07 -0,-0.12 0.03,-0.15 0.03,-0.03 0.08,-0.02 0.14,0.03 0.15,0.13 0.29,0.44 0.42,0.94 0.08,0.32 0.21,0.58 0.37,0.79 0.15,0.19 0.32,0.31 0.51,0.38 0.18,0.06 0.36,0.05 0.53,-0.01 0.17,-0.07 0.32,-0.19 0.44,-0.37 0.13,-0.2 0.2,-0.42 0.21,-0.67 0.01,-0.24 -0.05,-0.48 -0.16,-0.74 -0.24,-0.53 -0.67,-0.97 -1.27,-1.3z"/>
  <path id="_6" class="fil0" d="M36.66 1.02c-0.03,0.03 -0.06,0.09 -0.08,0.16 -0.02,0.05 -0.03,0.11 -0.05,0.19l-0.02 0.09 -0.02 0.1c-0.01,-0.06 -0.02,-0.13 -0.02,-0.2 0,-0.07 0.01,-0.14 0.03,-0.2 0.03,-0.08 0.07,-0.14 0.12,-0.18 0.06,-0.04 0.12,-0.05 0.2,-0.03 -0.08,0.02 -0.14,0.05 -0.16,0.08zm-0.08 2.02c-0.04,0.09 -0.1,0.15 -0.18,0.19 -0.08,0.04 -0.16,0.06 -0.24,0.04 0.08,-0.02 0.15,-0.05 0.21,-0.09 0.06,-0.04 0.11,-0.1 0.14,-0.16 0.03,-0.06 0.05,-0.13 0.06,-0.22l0.02 -0.24c0.03,0.08 0.04,0.16 0.04,0.24 0,0.09 -0.01,0.18 -0.04,0.25zm-2.62 -2.12c-0.07,0.05 -0.14,0.13 -0.2,0.25 -0.05,0.1 -0.1,0.2 -0.13,0.3 -0.04,0.1 -0.07,0.2 -0.1,0.31 -0.05,0.17 -0.1,0.38 -0.15,0.65 -0.02,0.1 -0.03,0.21 -0.05,0.33l-0.05 0.33c0,-0.21 0.02,-0.43 0.05,-0.67 0.03,-0.22 0.07,-0.44 0.13,-0.66 0.08,-0.27 0.16,-0.48 0.25,-0.62 0.07,-0.12 0.15,-0.2 0.23,-0.25 0.11,-0.07 0.22,-0.1 0.32,-0.09 -0.11,0.01 -0.21,0.05 -0.3,0.12zm3 -0.3c-0.28,-0.04 -0.49,0.04 -0.63,0.24 -0.17,0.25 -0.21,0.67 -0.12,1.28 0.05,0.33 0.07,0.54 0.07,0.63 -0.01,0.11 -0.04,0.16 -0.11,0.17 -0.04,0 -0.08,-0.04 -0.12,-0.12 -0.03,-0.06 -0.07,-0.16 -0.12,-0.31l-0.02 -0.05 -0.02 -0.05 -0.04 -0.11c-0.03,-0.09 -0.06,-0.17 -0.08,-0.23 -0.07,-0.18 -0.14,-0.34 -0.21,-0.48 -0.22,-0.43 -0.47,-0.73 -0.75,-0.93 -0.34,-0.24 -0.68,-0.25 -1.02,-0.05 -0.27,0.16 -0.48,0.56 -0.64,1.19 -0.15,0.58 -0.22,1.23 -0.22,1.94 0,0.73 0.08,1.34 0.24,1.82 0.17,0.54 0.42,0.8 0.74,0.81 0.49,0 0.72,-0.33 0.71,-1 -0,-0.11 -0.01,-0.23 -0.03,-0.38 -0.01,-0.05 -0.01,-0.1 -0.02,-0.17l-0.01 -0.08 -0.01 -0.08c-0.02,-0.22 -0.02,-0.33 0.02,-0.34 0.03,-0.01 0.06,0 0.08,0.03 0.01,0.02 0.04,0.08 0.08,0.18 0.03,0.06 0.05,0.11 0.07,0.16 0.03,0.07 0.07,0.15 0.11,0.22 0.1,0.2 0.22,0.41 0.37,0.63 0.17,0.26 0.37,0.46 0.61,0.61 0.26,0.15 0.51,0.21 0.77,0.18 0.88,-0.12 1.34,-0.97 1.39,-2.54 0.03,-0.86 -0.06,-1.58 -0.25,-2.18 -0.2,-0.61 -0.48,-0.95 -0.83,-1z"/>
  <path id="_7" class="fil0" d="M39.53 2.04c-0.02,0.04 -0.04,0.07 -0.07,0.09 -0.03,0.03 -0.07,0.04 -0.11,0.05 0.07,-0.03 0.11,-0.08 0.15,-0.15 0.03,-0.05 0.05,-0.12 0.06,-0.21 0.02,0.08 0.01,0.15 -0.03,0.23zm-0.22 0.01c-0.04,0.01 -0.08,0 -0.12,-0.04 -0.04,-0.04 -0.07,-0.09 -0.08,-0.15 -0.01,-0.07 -0.01,-0.13 0.01,-0.18 0.02,-0.06 0.05,-0.09 0.09,-0.1 0.04,-0.01 0.08,0 0.12,0.04 0.04,0.04 0.07,0.09 0.08,0.15 0.01,0.07 0.01,0.13 -0.01,0.18 -0.02,0.06 -0.05,0.09 -0.09,0.1zm-0.53 -1.24c-0.05,0.07 -0.09,0.16 -0.13,0.26 -0.03,0.09 -0.05,0.18 -0.07,0.29 0,-0.04 0.01,-0.09 0.02,-0.15 0.01,-0.05 0.02,-0.1 0.03,-0.15 0.03,-0.1 0.07,-0.19 0.13,-0.27 0.06,-0.09 0.14,-0.16 0.23,-0.2 0.05,-0.02 0.09,-0.04 0.14,-0.05 0.05,-0.01 0.1,-0.01 0.15,-0.01 -0.11,0.01 -0.2,0.03 -0.28,0.08 -0.08,0.05 -0.15,0.11 -0.21,0.2zm0.68 -0.39c-0.31,-0.06 -0.57,0.02 -0.75,0.24 -0.17,0.19 -0.26,0.46 -0.27,0.79 -0.01,0.32 0.04,0.62 0.17,0.88 0.14,0.29 0.34,0.46 0.59,0.51 0.23,0.05 0.44,-0.04 0.62,-0.26 0.17,-0.2 0.28,-0.47 0.33,-0.79 0.05,-0.33 0.02,-0.62 -0.08,-0.87 -0.12,-0.28 -0.32,-0.45 -0.6,-0.5z"/>
  <path id="_8" class="fil0" d="M45.42 4.9c-0.03,0 -0.08,0 -0.14,0.01l-0.07 0.01 -0.07 0c0.08,-0.06 0.17,-0.1 0.28,-0.1 0.06,0 0.11,0.01 0.15,0.02 0.05,0.02 0.09,0.05 0.12,0.09 -0.09,-0.03 -0.19,-0.04 -0.27,-0.04zm-2.33 -1.33c-0.06,0.06 -0.12,0.12 -0.17,0.18 -0.13,0.14 -0.22,0.27 -0.29,0.39 -0.09,0.14 -0.16,0.29 -0.2,0.45 -0.04,0.15 -0.06,0.32 -0.06,0.5l-0.02 -0.13 -0 -0.06 0 -0.07 0 -0.06 0 -0.07 0.01 -0.06 0.01 -0.07c0.03,-0.16 0.09,-0.32 0.19,-0.48 0.09,-0.15 0.2,-0.28 0.32,-0.39 0.06,-0.06 0.13,-0.12 0.19,-0.17l0.1 -0.07c0.04,-0.03 0.07,-0.05 0.11,-0.07l-0.09 0.09 -0.09 0.09zm0.4 -2.63c-0.08,0.03 -0.15,0.07 -0.22,0.11 -0.15,0.08 -0.29,0.17 -0.41,0.27 -0.13,0.1 -0.25,0.22 -0.36,0.35 -0.05,0.07 -0.1,0.14 -0.14,0.21 -0.05,0.08 -0.08,0.16 -0.09,0.23 -0.01,-0.14 0.05,-0.3 0.17,-0.48 0.09,-0.13 0.21,-0.26 0.35,-0.38 0.15,-0.11 0.29,-0.2 0.44,-0.26 0.08,-0.04 0.16,-0.06 0.24,-0.09 0.09,-0.03 0.17,-0.05 0.25,-0.05l-0.12 0.04c-0.05,0.02 -0.09,0.03 -0.12,0.05zm1.52 3.68c-0.23,0.09 -0.44,0.13 -0.63,0.11 -0.16,-0.01 -0.26,-0.05 -0.29,-0.11 -0.01,-0.03 -0.02,-0.06 -0.02,-0.09 -0,-0.05 0.01,-0.1 0.04,-0.14 0.07,-0.13 0.22,-0.28 0.47,-0.43 0.33,-0.2 0.6,-0.45 0.81,-0.75 0.21,-0.3 0.35,-0.6 0.41,-0.93 0.07,-0.33 0.04,-0.63 -0.08,-0.9 -0.12,-0.29 -0.34,-0.52 -0.66,-0.67 -0.37,-0.19 -0.77,-0.25 -1.2,-0.19 -0.37,0.05 -0.72,0.18 -1.06,0.4 -0.31,0.21 -0.54,0.45 -0.7,0.72 -0.15,0.27 -0.19,0.52 -0.11,0.72 0.09,0.2 0.24,0.32 0.47,0.36 0.24,0.04 0.53,-0.03 0.87,-0.18 0.19,-0.09 0.32,-0.14 0.4,-0.16 0.08,-0.01 0.13,-0 0.17,0.04 0.09,0.08 -0.02,0.21 -0.31,0.38 -0.53,0.31 -0.94,0.65 -1.21,1.03 -0.34,0.48 -0.44,0.98 -0.32,1.51 0.09,0.38 0.35,0.65 0.79,0.83 0.35,0.14 0.81,0.21 1.35,0.22 0.55,0 1,-0.07 1.35,-0.22 0.36,-0.15 0.56,-0.37 0.62,-0.65 0.03,-0.14 0.02,-0.27 -0.02,-0.41 -0.04,-0.14 -0.12,-0.26 -0.22,-0.36 -0.11,-0.1 -0.24,-0.17 -0.39,-0.19 -0.17,-0.03 -0.35,-0 -0.54,0.07z"/>
  <path id="_9" class="fil0" d="M3.72 12.81c-0.03,0 -0.08,0 -0.14,0.01l-0.07 0.01 -0.07 0c0.08,-0.06 0.17,-0.1 0.28,-0.1 0.06,0 0.11,0.01 0.15,0.02 0.05,0.02 0.09,0.05 0.12,0.09 -0.09,-0.03 -0.19,-0.04 -0.27,-0.04zm-2.33 -1.33c-0.06,0.06 -0.12,0.12 -0.17,0.18 -0.13,0.14 -0.22,0.27 -0.29,0.39 -0.09,0.14 -0.16,0.29 -0.2,0.45 -0.04,0.15 -0.06,0.32 -0.06,0.5l-0.02 -0.13 -0 -0.06 0 -0.07 0 -0.06 0 -0.07 0.01 -0.06 0.01 -0.07c0.03,-0.16 0.09,-0.32 0.19,-0.48 0.09,-0.15 0.2,-0.28 0.32,-0.39 0.06,-0.06 0.13,-0.12 0.19,-0.17l0.1 -0.07c0.04,-0.03 0.07,-0.05 0.11,-0.07l-0.09 0.09 -0.09 0.09zm0.4 -2.63c-0.08,0.03 -0.15,0.07 -0.22,0.11 -0.15,0.08 -0.29,0.17 -0.41,0.27 -0.13,0.1 -0.25,0.22 -0.36,0.35 -0.05,0.07 -0.1,0.14 -0.14,0.21 -0.05,0.08 -0.08,0.16 -0.09,0.23 -0.01,-0.14 0.05,-0.3 0.17,-0.48 0.09,-0.13 0.21,-0.26 0.35,-0.38 0.15,-0.11 0.29,-0.2 0.44,-0.26 0.08,-0.04 0.16,-0.06 0.24,-0.09 0.09,-0.03 0.17,-0.05 0.25,-0.05l-0.12 0.04c-0.05,0.02 -0.09,0.03 -0.12,0.05zm1.52 3.68c-0.23,0.09 -0.44,0.13 -0.63,0.11 -0.16,-0.01 -0.26,-0.05 -0.29,-0.11 -0.01,-0.03 -0.02,-0.06 -0.02,-0.09 -0,-0.05 0.01,-0.1 0.04,-0.14 0.07,-0.13 0.22,-0.28 0.47,-0.43 0.33,-0.2 0.6,-0.45 0.81,-0.75 0.21,-0.3 0.35,-0.6 0.41,-0.93 0.07,-0.33 0.04,-0.63 -0.08,-0.9 -0.12,-0.29 -0.34,-0.52 -0.66,-0.67 -0.37,-0.19 -0.77,-0.25 -1.2,-0.19 -0.37,0.05 -0.72,0.18 -1.06,0.4 -0.31,0.21 -0.54,0.45 -0.7,0.72 -0.16,0.27 -0.19,0.52 -0.11,0.72 0.08,0.2 0.24,0.32 0.47,0.36 0.24,0.04 0.53,-0.03 0.87,-0.18 0.19,-0.09 0.32,-0.14 0.4,-0.16 0.08,-0.01 0.13,-0 0.17,0.04 0.09,0.08 -0.02,0.21 -0.31,0.38 -0.53,0.31 -0.94,0.65 -1.21,1.03 -0.34,0.48 -0.44,0.98 -0.32,1.51 0.09,0.38 0.35,0.65 0.79,0.83 0.35,0.14 0.81,0.21 1.35,0.22 0.55,0 1,-0.07 1.35,-0.22 0.36,-0.15 0.56,-0.37 0.62,-0.65 0.03,-0.14 0.02,-0.27 -0.02,-0.41 -0.04,-0.14 -0.12,-0.26 -0.22,-0.36 -0.11,-0.1 -0.24,-0.17 -0.39,-0.19 -0.17,-0.03 -0.35,-0 -0.54,0.07z"/>
  <path id="_10" class="fil0" d="M7.56 12.33c-0.05,0.09 -0.1,0.17 -0.18,0.22 -0.08,0.06 -0.16,0.1 -0.25,0.11 0.16,-0.08 0.27,-0.2 0.36,-0.37 0.07,-0.13 0.11,-0.3 0.14,-0.51 0.04,0.19 0.02,0.37 -0.06,0.54zm-0.52 0.02c-0.1,0.03 -0.2,0 -0.29,-0.09 -0.1,-0.09 -0.16,-0.22 -0.19,-0.37 -0.03,-0.16 -0.03,-0.3 0.02,-0.44 0.05,-0.13 0.12,-0.22 0.22,-0.25 0.1,-0.03 0.2,0 0.29,0.09 0.09,0.09 0.16,0.21 0.19,0.37 0.03,0.16 0.03,0.3 -0.02,0.44 -0.05,0.13 -0.12,0.22 -0.22,0.25zm-1.26 -2.97c-0.12,0.17 -0.22,0.38 -0.32,0.63 -0.07,0.2 -0.13,0.43 -0.18,0.69 0,-0.09 0.02,-0.21 0.04,-0.36 0.02,-0.12 0.05,-0.23 0.08,-0.35 0.07,-0.25 0.17,-0.47 0.31,-0.66 0.15,-0.22 0.33,-0.38 0.54,-0.48 0.11,-0.05 0.22,-0.09 0.34,-0.12 0.12,-0.02 0.24,-0.03 0.36,-0.02 -0.26,0.02 -0.49,0.08 -0.67,0.19 -0.2,0.11 -0.36,0.27 -0.5,0.47zm1.63 -0.94c-0.75,-0.14 -1.35,0.05 -1.8,0.57 -0.4,0.47 -0.62,1.1 -0.65,1.9 -0.03,0.78 0.1,1.49 0.42,2.12 0.34,0.69 0.81,1.09 1.4,1.22 0.56,0.12 1.05,-0.09 1.49,-0.62 0.4,-0.49 0.66,-1.12 0.78,-1.89 0.12,-0.8 0.06,-1.49 -0.19,-2.09 -0.29,-0.68 -0.77,-1.08 -1.44,-1.21z"/>
  <path id="_11" class="fil0" d="M12.96 12.81c-0.03,0 -0.08,0 -0.14,0.01l-0.07 0.01 -0.07 0c0.08,-0.06 0.17,-0.1 0.28,-0.1 0.06,0 0.11,0.01 0.15,0.02 0.05,0.02 0.09,0.05 0.12,0.09 -0.1,-0.03 -0.19,-0.04 -0.27,-0.04zm-2.33 -1.33c-0.06,0.06 -0.12,0.12 -0.17,0.18 -0.13,0.14 -0.22,0.27 -0.29,0.39 -0.09,0.14 -0.16,0.29 -0.2,0.45 -0.04,0.15 -0.06,0.32 -0.06,0.5l-0.02 -0.13 -0 -0.06 0 -0.07 0 -0.06 0 -0.07 0.01 -0.06 0.01 -0.07c0.03,-0.16 0.09,-0.32 0.19,-0.48 0.09,-0.15 0.2,-0.28 0.32,-0.39 0.06,-0.06 0.13,-0.12 0.19,-0.17l0.1 -0.07c0.04,-0.03 0.07,-0.05 0.11,-0.07l-0.09 0.09 -0.09 0.09zm0.4 -2.63c-0.08,0.03 -0.15,0.07 -0.22,0.11 -0.15,0.08 -0.29,0.17 -0.41,0.27 -0.13,0.1 -0.25,0.22 -0.36,0.35 -0.05,0.07 -0.1,0.14 -0.14,0.21 -0.05,0.08 -0.08,0.16 -0.09,0.23 -0.01,-0.14 0.05,-0.3 0.17,-0.48 0.09,-0.13 0.21,-0.26 0.35,-0.38 0.15,-0.11 0.29,-0.2 0.44,-0.26 0.08,-0.04 0.16,-0.06 0.24,-0.09 0.09,-0.03 0.17,-0.05 0.25,-0.05l-0.12 0.04c-0.05,0.02 -0.09,0.03 -0.12,0.05zm1.52 3.68c-0.23,0.09 -0.44,0.13 -0.63,0.11 -0.16,-0.01 -0.26,-0.05 -0.29,-0.11 -0.01,-0.03 -0.02,-0.06 -0.02,-0.09 -0,-0.05 0.01,-0.1 0.04,-0.14 0.07,-0.13 0.22,-0.28 0.47,-0.43 0.33,-0.2 0.6,-0.45 0.81,-0.75 0.21,-0.3 0.35,-0.6 0.41,-0.93 0.07,-0.33 0.04,-0.63 -0.08,-0.9 -0.12,-0.29 -0.34,-0.52 -0.66,-0.67 -0.37,-0.19 -0.77,-0.25 -1.2,-0.19 -0.37,0.05 -0.72,0.18 -1.06,0.4 -0.31,0.21 -0.54,0.45 -0.7,0.72 -0.15,0.27 -0.19,0.52 -0.11,0.72 0.09,0.2 0.24,0.32 0.47,0.36 0.24,0.04 0.53,-0.03 0.87,-0.18 0.19,-0.09 0.32,-0.14 0.4,-0.16 0.08,-0.01 0.13,-0 0.17,0.04 0.09,0.08 -0.02,0.21 -0.31,0.38 -0.53,0.31 -0.94,0.65 -1.21,1.03 -0.34,0.48 -0.44,0.98 -0.32,1.51 0.09,0.38 0.35,0.65 0.79,0.83 0.35,0.14 0.81,0.21 1.35,0.22 0.55,0 1,-0.07 1.35,-0.22 0.36,-0.15 0.56,-0.37 0.62,-0.65 0.03,-0.14 0.02,-0.27 -0.02,-0.41 -0.04,-0.14 -0.12,-0.26 -0.22,-0.36 -0.11,-0.1 -0.24,-0.17 -0.39,-0.19 -0.17,-0.03 -0.35,-0 -0.54,0.07z"/>
  <path id="_12" class="fil0" d="M21.97 8.81c-0.12,0.03 -0.23,0.07 -0.33,0.12 -0.23,0.11 -0.42,0.25 -0.56,0.41 -0.07,0.07 -0.12,0.17 -0.18,0.29 -0.04,0.09 -0.07,0.2 -0.11,0.34 -0.03,0.11 -0.05,0.23 -0.07,0.35 -0.01,0.05 -0.02,0.11 -0.03,0.18l-0.02 0.18c-0.01,-0.26 0,-0.5 0.05,-0.72 0.06,-0.29 0.15,-0.52 0.28,-0.67 0.16,-0.18 0.36,-0.31 0.6,-0.41 0.11,-0.04 0.22,-0.08 0.34,-0.11 0.13,-0.03 0.25,-0.04 0.36,-0.04 -0.14,0.03 -0.26,0.05 -0.35,0.08zm2.37 0.53c-0.02,-0.24 -0.16,-0.44 -0.43,-0.61 -0.25,-0.16 -0.57,-0.27 -0.95,-0.31 -0.39,-0.04 -0.77,-0.01 -1.14,0.09 -0.41,0.12 -0.74,0.31 -0.99,0.58 -0.23,0.25 -0.38,0.65 -0.44,1.2 -0.05,0.5 -0.03,1.05 0.08,1.64 0.11,0.59 0.27,1.1 0.49,1.52 0.24,0.45 0.5,0.72 0.78,0.81 0.41,0.12 0.7,0.02 0.88,-0.31 0.15,-0.29 0.18,-0.68 0.09,-1.16 -0.01,-0.07 -0.03,-0.16 -0.06,-0.28 -0.01,-0.03 -0.02,-0.09 -0.04,-0.16l-0.02 -0.09 -0.02 -0.09c-0.07,-0.3 -0.12,-0.54 -0.15,-0.72 -0.1,-0.6 -0.07,-0.97 0.07,-1.12 0.07,-0.07 0.21,-0.12 0.44,-0.15 0.04,-0.01 0.09,-0.01 0.15,-0.02l0.16 -0.01c0.14,-0.01 0.24,-0.03 0.33,-0.04 0.25,-0.04 0.44,-0.11 0.56,-0.21 0.16,-0.13 0.23,-0.32 0.21,-0.57z"/>
  <path id="_13" class="fil0" d="M27.55 12.45c-0.05,0.07 -0.12,0.13 -0.19,0.16 -0.08,0.04 -0.16,0.06 -0.24,0.06 0.15,-0.06 0.27,-0.15 0.36,-0.27 0.08,-0.11 0.14,-0.25 0.17,-0.43 0.04,0.17 0,0.33 -0.1,0.47zm-0.85 -0.42c-0.02,-0.1 0,-0.2 0.05,-0.28 0.05,-0.08 0.12,-0.13 0.21,-0.15 0.09,-0.01 0.17,0.01 0.24,0.08 0.07,0.06 0.12,0.15 0.14,0.25 0.02,0.11 0,0.2 -0.05,0.28 -0.05,0.08 -0.12,0.13 -0.21,0.15 -0.09,0.01 -0.17,-0.01 -0.24,-0.07 -0.07,-0.06 -0.12,-0.15 -0.13,-0.25zm-0.21 -3.16c-0.21,0.08 -0.4,0.2 -0.56,0.36 -0.15,0.14 -0.29,0.31 -0.42,0.53l-0.04 0.07 -0.04 0.07 -0.07 0.15 -0.07 0.16 -0.06 0.16c0.05,-0.23 0.12,-0.45 0.23,-0.65 0.11,-0.21 0.25,-0.4 0.42,-0.56 0.18,-0.17 0.38,-0.29 0.59,-0.36 0.1,-0.04 0.22,-0.06 0.34,-0.08l0.09 -0.01 0.09 -0 0.17 0c-0.25,0.02 -0.47,0.07 -0.66,0.15zm1.37 -0.38c-0.84,-0.21 -1.55,-0.07 -2.11,0.42 -0.5,0.43 -0.81,1.04 -0.93,1.84 -0.12,0.77 -0.03,1.49 0.27,2.15 0.32,0.71 0.81,1.16 1.47,1.34 0.62,0.17 1.21,0.01 1.76,-0.49 0.5,-0.45 0.86,-1.06 1.07,-1.82 0.22,-0.78 0.21,-1.48 -0.02,-2.1 -0.26,-0.7 -0.77,-1.14 -1.52,-1.33z"/>
  <path id="_14" class="fil0" d="M33.92 12.25c-0.03,0.1 -0.08,0.17 -0.15,0.23 -0.07,0.05 -0.15,0.09 -0.25,0.11 -0.09,0.02 -0.18,0.02 -0.27,0 0.11,-0.02 0.19,-0.04 0.25,-0.06 0.09,-0.03 0.17,-0.07 0.22,-0.11 0.06,-0.05 0.11,-0.11 0.14,-0.19 0.02,-0.06 0.04,-0.14 0.06,-0.25 0.02,0.09 0.02,0.18 0,0.27zm-1.04 -0.11c-0.05,-0.1 -0.03,-0.25 0.05,-0.47 0.09,-0.22 0.19,-0.33 0.3,-0.33 0.13,0 0.24,0.12 0.32,0.35 0.03,0.09 0.05,0.18 0.06,0.27 0.01,0.09 -0.01,0.16 -0.03,0.21 -0.04,0.07 -0.16,0.1 -0.34,0.1 -0.18,-0 -0.3,-0.05 -0.35,-0.13zm-0.55 -2.66c-0.11,0.17 -0.22,0.35 -0.32,0.56 -0.08,0.16 -0.16,0.36 -0.25,0.59 0.05,-0.2 0.11,-0.41 0.2,-0.62 0.08,-0.19 0.18,-0.38 0.31,-0.58 0.14,-0.2 0.28,-0.37 0.43,-0.49 0.09,-0.07 0.18,-0.12 0.28,-0.17 0.11,-0.04 0.21,-0.06 0.31,-0.06 -0.19,0.02 -0.37,0.12 -0.56,0.28 -0.14,0.13 -0.28,0.29 -0.41,0.48zm-1.8 3.22c-0.07,0.03 -0.12,0.07 -0.16,0.1 -0.05,0.04 -0.08,0.09 -0.1,0.16 -0.01,-0.07 0.01,-0.14 0.06,-0.2 0.04,-0.05 0.09,-0.09 0.16,-0.13 0.13,-0.06 0.26,-0.1 0.39,-0.09l-0.09 0.04 -0.09 0.04c-0.07,0.03 -0.13,0.06 -0.17,0.08zm4.98 -0.49c-0.11,-0.03 -0.19,-0.07 -0.24,-0.13 -0.05,-0.05 -0.08,-0.13 -0.09,-0.23 -0.01,-0.06 -0.02,-0.18 -0.04,-0.38 -0.01,-0.1 -0.01,-0.18 -0.02,-0.25 -0.01,-0.1 -0.02,-0.2 -0.04,-0.3 -0.12,-0.81 -0.34,-1.44 -0.67,-1.89 -0.31,-0.41 -0.67,-0.62 -1.09,-0.63 -0.36,-0.01 -0.71,0.19 -1.06,0.58 -0.35,0.4 -0.62,0.92 -0.8,1.55 -0.07,0.25 -0.13,0.51 -0.18,0.77 -0.01,0.04 -0.02,0.09 -0.02,0.14l-0.01 0.07 -0.01 0.06c-0.01,0.1 -0.03,0.17 -0.03,0.22 -0.03,0.13 -0.06,0.23 -0.11,0.29 -0.05,0.07 -0.14,0.11 -0.27,0.14 -0.35,0.07 -0.6,0.2 -0.74,0.39 -0.13,0.16 -0.16,0.36 -0.09,0.6 0.09,0.33 0.46,0.59 1.11,0.78 0.58,0.17 1.3,0.27 2.16,0.29 0.79,0.02 1.39,-0.01 1.82,-0.07 0.63,-0.1 1.03,-0.31 1.21,-0.63 0.17,-0.3 0.18,-0.57 0.03,-0.83 -0.15,-0.25 -0.41,-0.43 -0.8,-0.54z"/>
  <path id="_15" class="fil0" d="M16.7 12.32c-0.01,0.07 -0.04,0.13 -0.09,0.2 -0.04,0.06 -0.1,0.11 -0.16,0.15 -0.07,0.04 -0.14,0.07 -0.2,0.07 0.14,-0.09 0.23,-0.18 0.29,-0.27 0.06,-0.09 0.11,-0.21 0.15,-0.37 0.01,0.07 0.01,0.14 -0,0.22zm-1.67 0.31c-0.08,0.01 -0.14,0.01 -0.2,0.03 -0.07,0.02 -0.13,0.04 -0.18,0.07 -0.04,0.03 -0.08,0.08 -0.13,0.15 0.01,-0.08 0.03,-0.14 0.09,-0.2 0.05,-0.05 0.12,-0.09 0.2,-0.11 0.07,-0.01 0.15,-0.02 0.21,-0.01 0.08,0.01 0.15,0.03 0.21,0.05 -0.06,0.01 -0.13,0.02 -0.21,0.02zm0.01 -3.51c-0.08,0.06 -0.15,0.12 -0.2,0.18 -0.03,0.03 -0.05,0.06 -0.08,0.1 -0.02,0.03 -0.05,0.07 -0.07,0.11 -0.03,0.07 -0.07,0.16 -0.09,0.26 -0.01,0.04 -0.02,0.08 -0.03,0.13l-0.03 0.14c0,-0.21 0.03,-0.39 0.09,-0.55 0.02,-0.05 0.04,-0.1 0.07,-0.13 0.03,-0.04 0.06,-0.07 0.09,-0.11 0.05,-0.06 0.12,-0.12 0.21,-0.19 0.15,-0.11 0.32,-0.19 0.5,-0.24 0.1,-0.02 0.19,-0.04 0.27,-0.06 0.11,-0.01 0.21,-0.02 0.27,-0.02 -0.22,0.05 -0.39,0.09 -0.52,0.14 -0.19,0.07 -0.35,0.15 -0.48,0.24zm1.71 1.34c-0.14,-0.03 -0.27,-0.05 -0.41,-0.06 -0.05,-0 -0.1,-0.01 -0.16,-0.01l-0.07 -0 -0.06 -0c-0.17,-0.01 -0.28,-0.04 -0.32,-0.1 -0.04,-0.05 -0.04,-0.12 -0.01,-0.21 0.03,-0.08 0.09,-0.15 0.17,-0.19 0.24,-0.12 0.62,-0.13 1.13,-0.04 0.21,0.04 0.39,0.01 0.54,-0.1 0.14,-0.1 0.23,-0.24 0.26,-0.41 0.03,-0.18 0,-0.34 -0.1,-0.5 -0.11,-0.17 -0.29,-0.28 -0.53,-0.35 -0.4,-0.11 -0.85,-0.12 -1.35,-0.04 -0.63,0.1 -1.08,0.34 -1.35,0.73 -0.17,0.24 -0.26,0.6 -0.26,1.06 0,0.47 0.09,0.81 0.28,1.01 0.11,0.13 0.25,0.21 0.4,0.26 0.12,0.04 0.27,0.06 0.45,0.07l0.11 0 0.11 0c0.09,0 0.16,0.01 0.22,0.01 0.16,0.01 0.28,0.05 0.38,0.11 0.14,0.09 0.21,0.21 0.22,0.36 0.01,0.15 -0.04,0.26 -0.15,0.33 -0.06,0.03 -0.11,0.05 -0.16,0.06 -0.09,0.01 -0.22,-0.01 -0.39,-0.06 -0.91,-0.26 -1.41,-0.06 -1.49,0.58 -0.04,0.29 0.06,0.55 0.3,0.78 0.22,0.21 0.53,0.37 0.91,0.47 0.39,0.09 0.78,0.11 1.17,0.04 0.42,-0.07 0.78,-0.24 1.06,-0.49 0.29,-0.26 0.5,-0.55 0.61,-0.9 0.11,-0.33 0.12,-0.66 0.04,-1 -0.08,-0.34 -0.25,-0.63 -0.51,-0.87 -0.27,-0.26 -0.62,-0.44 -1.03,-0.53z"/>
  <path class="fil1" d="M2.98 4.13c-0.05,0.09 -0.11,0.16 -0.2,0.21 -0.09,0.05 -0.18,0.07 -0.27,0.05 0.09,-0.02 0.17,-0.05 0.24,-0.1 0.07,-0.05 0.13,-0.12 0.16,-0.19 0.07,-0.14 0.08,-0.31 0.04,-0.51 0.05,0.08 0.08,0.17 0.08,0.27 0.01,0.1 -0.01,0.19 -0.05,0.28zm-0.76 -0.25c-0.04,-0.08 -0.06,-0.16 -0.05,-0.24 0.01,-0.08 0.04,-0.13 0.1,-0.17 0.06,-0.03 0.12,-0.03 0.19,0 0.07,0.03 0.13,0.09 0.18,0.17 0.04,0.08 0.06,0.16 0.05,0.24 -0.01,0.08 -0.04,0.14 -0.1,0.17 -0.06,0.03 -0.12,0.03 -0.19,0 -0.07,-0.03 -0.13,-0.09 -0.18,-0.17zm-0.36 -1.71c0.06,-0.02 0.12,-0.04 0.18,-0.07 0.06,-0.04 0.11,-0.07 0.15,-0.12 0.04,-0.04 0.08,-0.09 0.12,-0.15 0.03,-0.05 0.06,-0.11 0.08,-0.18 0.02,0.14 -0.03,0.27 -0.14,0.38 -0.05,0.05 -0.11,0.09 -0.18,0.12 -0.07,0.03 -0.14,0.03 -0.2,0.02zm-0.09 -0.59c0.03,-0.05 0.07,-0.09 0.12,-0.12 0.05,-0.02 0.09,-0.02 0.13,0 0.03,0.02 0.06,0.06 0.06,0.11 0.01,0.05 -0.01,0.1 -0.04,0.16 -0.03,0.05 -0.07,0.09 -0.12,0.12 -0.05,0.02 -0.09,0.02 -0.13,0 -0.04,-0.02 -0.06,-0.06 -0.06,-0.11 -0.01,-0.05 0.01,-0.1 0.04,-0.16zm-0.7 -0.73c-0.07,0.07 -0.13,0.15 -0.2,0.25 -0.1,0.16 -0.2,0.35 -0.29,0.57 -0.07,0.18 -0.13,0.39 -0.19,0.62 0.02,-0.21 0.07,-0.43 0.13,-0.64 0.07,-0.22 0.16,-0.42 0.28,-0.6 0.14,-0.21 0.29,-0.36 0.47,-0.46 0.11,-0.06 0.21,-0.11 0.31,-0.13 0.11,-0.03 0.22,-0.04 0.32,-0.03 -0.22,0.02 -0.42,0.09 -0.6,0.21 -0.09,0.06 -0.17,0.13 -0.24,0.21zm1.76 1.57c-0.05,-0.02 -0.06,-0.06 -0.03,-0.13 0.01,-0.03 0.03,-0.06 0.06,-0.12l0.02 -0.03 0.02 -0.04c0.02,-0.03 0.03,-0.06 0.04,-0.09 0.07,-0.15 0.13,-0.29 0.15,-0.43 0.04,-0.2 0.05,-0.4 0.01,-0.61 -0.04,-0.23 -0.17,-0.43 -0.39,-0.59 -0.22,-0.16 -0.48,-0.25 -0.77,-0.26 -0.32,-0.01 -0.61,0.08 -0.89,0.27 -0.31,0.22 -0.56,0.55 -0.74,1 -0.19,0.46 -0.29,0.97 -0.3,1.51 -0.02,0.56 0.06,1.07 0.22,1.54 0.18,0.51 0.45,0.9 0.8,1.17 0.39,0.3 0.87,0.43 1.42,0.4 0.53,-0.04 0.95,-0.21 1.26,-0.52 0.29,-0.28 0.44,-0.63 0.47,-1.05 0.03,-0.41 -0.07,-0.8 -0.3,-1.16 -0.25,-0.39 -0.6,-0.68 -1.06,-0.87z"/>
  <path id="_1_0" class="fil1" d="M7.37 4.23c-0.05,0.08 -0.11,0.13 -0.2,0.17 -0.08,0.04 -0.16,0.05 -0.25,0.03 0.17,-0.03 0.3,-0.11 0.38,-0.24 0.04,-0.05 0.07,-0.13 0.09,-0.21 0.01,-0.07 0.02,-0.15 0.02,-0.24 0.03,0.08 0.05,0.16 0.04,0.25 -0.01,0.09 -0.03,0.17 -0.08,0.24zm-0.72 -0.32c-0.04,-0.08 -0.05,-0.16 -0.04,-0.23 0.01,-0.08 0.04,-0.13 0.1,-0.16 0.06,-0.03 0.12,-0.02 0.19,0.01 0.07,0.04 0.13,0.09 0.17,0.17 0.04,0.08 0.05,0.16 0.04,0.24 -0.01,0.08 -0.05,0.13 -0.11,0.16 -0.06,0.03 -0.12,0.03 -0.19,-0.01 -0.07,-0.04 -0.13,-0.09 -0.17,-0.18zm-0.38 -3.41c-0.05,0.03 -0.11,0.06 -0.17,0.11 -0.1,0.08 -0.19,0.18 -0.28,0.29 -0.07,0.08 -0.15,0.19 -0.24,0.33 -0.03,0.05 -0.07,0.11 -0.11,0.18l-0.11 0.18c0.05,-0.15 0.11,-0.28 0.17,-0.38 0.07,-0.13 0.15,-0.25 0.23,-0.35 0.1,-0.12 0.2,-0.22 0.31,-0.29 0.14,-0.1 0.27,-0.14 0.4,-0.13 -0.07,0.01 -0.13,0.03 -0.19,0.07zm1.06 1.99c-0.14,-0.04 -0.23,-0.12 -0.27,-0.23 -0.03,-0.09 -0.03,-0.21 -0,-0.38 0.01,-0.03 0.01,-0.07 0.02,-0.12l0.02 -0.12c0.02,-0.11 0.04,-0.19 0.05,-0.25 0.03,-0.21 0.04,-0.39 0.02,-0.56 -0.03,-0.23 -0.12,-0.41 -0.26,-0.55 -0.15,-0.14 -0.32,-0.2 -0.52,-0.18 -0.22,0.02 -0.44,0.13 -0.65,0.34 -0.25,0.23 -0.47,0.56 -0.67,1 -0.21,0.45 -0.34,0.94 -0.4,1.46 -0.06,0.54 -0.03,1.04 0.09,1.49 0.13,0.49 0.36,0.88 0.67,1.16 0.36,0.31 0.81,0.46 1.36,0.45 0.52,-0.01 0.95,-0.16 1.29,-0.47 0.31,-0.28 0.5,-0.64 0.57,-1.06 0.06,-0.43 -0.01,-0.82 -0.23,-1.18 -0.24,-0.39 -0.6,-0.66 -1.09,-0.81zm1.71 -1.9c-0.05,0.04 -0.08,0.09 -0.1,0.16 -0.02,0.06 -0.03,0.12 -0.04,0.19 -0.01,0.1 0.01,0.24 0.03,0.41l0.04 0.2 0.04 0.21c-0.06,-0.15 -0.1,-0.28 -0.14,-0.4 -0.04,-0.16 -0.06,-0.3 -0.05,-0.42 0.01,-0.08 0.02,-0.15 0.04,-0.22 0.03,-0.08 0.08,-0.14 0.13,-0.18 0.11,-0.08 0.25,-0.12 0.41,-0.1 -0.15,0.02 -0.27,0.07 -0.36,0.15zm1.43 0.23c-0.11,-0.22 -0.27,-0.39 -0.45,-0.51 -0.17,-0.11 -0.35,-0.17 -0.53,-0.19 -0.18,-0.01 -0.35,0.02 -0.5,0.09 -0.15,0.07 -0.26,0.18 -0.34,0.32 -0.13,0.26 -0.13,0.64 0.01,1.14 0.02,0.08 0.05,0.18 0.09,0.31l0.05 0.16 0.05 0.16c0.07,0.25 0.12,0.46 0.14,0.62 0.05,0.4 0.07,0.81 0.06,1.23 -0,0.13 -0.01,0.29 -0.02,0.48l-0 0.11 -0 0.1c-0.01,0.08 -0.01,0.14 -0.01,0.19 -0.01,0.26 0.01,0.44 0.04,0.55 0.05,0.13 0.15,0.22 0.3,0.26 0.3,0.07 0.56,-0.09 0.8,-0.48 0.21,-0.34 0.38,-0.82 0.49,-1.42 0.11,-0.58 0.15,-1.16 0.12,-1.73 -0.03,-0.6 -0.13,-1.06 -0.3,-1.38z"/>
  <path id="_2_1" class="fil1" d="M12.68 0.63c-0.02,0.01 -0.05,0.03 -0.09,0.04l-0.08 0.04 -0.08 0.04c-0.03,0.02 -0.06,0.04 -0.08,0.05 -0.09,0.06 -0.19,0.13 -0.29,0.23 -0.11,0.11 -0.19,0.21 -0.24,0.28 -0.13,0.19 -0.22,0.42 -0.26,0.68 -0.01,0.05 -0.02,0.12 -0.02,0.19l-0.01 0.19c-0.01,0.05 -0.01,0.12 -0.01,0.19l-0 0.19c-0.03,-0.27 -0.03,-0.52 -0.01,-0.76 0.03,-0.27 0.11,-0.51 0.26,-0.72l0.06 -0.08 0.06 -0.07c0.01,-0.02 0.03,-0.04 0.06,-0.07l0.04 -0.03 0.03 -0.04c0.12,-0.11 0.22,-0.18 0.31,-0.23 0.21,-0.13 0.45,-0.21 0.71,-0.26l-0.09 0.03 -0.09 0.03c-0.06,0.02 -0.12,0.05 -0.17,0.07zm2.88 0.77c-0.23,-0.49 -0.58,-0.85 -1.06,-1.07 -0.44,-0.2 -0.9,-0.26 -1.4,-0.17 -0.5,0.08 -0.92,0.28 -1.26,0.61 -0.37,0.35 -0.58,0.77 -0.63,1.27 -0.09,0.93 0.06,1.84 0.43,2.73 0.17,0.4 0.35,0.71 0.56,0.93 0.22,0.24 0.44,0.34 0.65,0.31 0.3,-0.04 0.49,-0.22 0.55,-0.54 0.07,-0.36 0.03,-0.98 -0.14,-1.86 -0.13,-0.7 -0.05,-1.07 0.23,-1.11 0.16,-0.02 0.29,0.1 0.38,0.37 0.08,0.25 0.12,0.56 0.11,0.93 -0.03,0.83 0.06,1.42 0.27,1.75 0.16,0.25 0.39,0.37 0.69,0.35 0.26,-0.01 0.47,-0.18 0.65,-0.5 0.17,-0.29 0.28,-0.68 0.34,-1.15 0.06,-0.47 0.06,-0.96 0,-1.46 -0.07,-0.53 -0.19,-0.99 -0.38,-1.4z"/>
  <path id="_3_2" class="fil1" d="M20.17 0.56c-0.05,0.05 -0.11,0.11 -0.16,0.19 -0.08,0.11 -0.17,0.25 -0.28,0.42l-0.07 0.11 -0.07 0.11c-0.05,0.09 -0.1,0.16 -0.14,0.21 -0.07,0.09 -0.12,0.15 -0.17,0.2 -0.08,0.07 -0.16,0.11 -0.23,0.12 0.08,-0.03 0.14,-0.08 0.2,-0.15 0.04,-0.05 0.09,-0.12 0.15,-0.2 0.03,-0.05 0.07,-0.13 0.13,-0.22l0.13 -0.22c0.11,-0.18 0.21,-0.33 0.29,-0.42 0.07,-0.07 0.13,-0.13 0.19,-0.18 0.09,-0.06 0.17,-0.09 0.24,-0.09 -0.07,0.01 -0.14,0.05 -0.21,0.12zm-2.63 3.7c-0.07,0.05 -0.12,0.09 -0.16,0.12 -0.13,0.09 -0.22,0.18 -0.29,0.27 -0.04,0.06 -0.07,0.11 -0.1,0.17 -0.02,0.05 -0.04,0.12 -0.06,0.2 -0,-0.07 0,-0.14 0.02,-0.21 0.02,-0.07 0.05,-0.13 0.09,-0.19 0.06,-0.1 0.16,-0.2 0.29,-0.3 0.09,-0.07 0.21,-0.14 0.34,-0.23l0.09 -0.05 0.09 -0.05c0.07,-0.04 0.13,-0.08 0.17,-0.11 -0.07,0.08 -0.18,0.18 -0.31,0.27l-0.16 0.12zm-0.69 -3.34c-0.04,0.05 -0.07,0.12 -0.09,0.2 -0.02,0.07 -0.03,0.14 -0.03,0.23 -0.03,-0.07 -0.04,-0.15 -0.03,-0.24 0.01,-0.08 0.04,-0.16 0.09,-0.23 0.05,-0.07 0.12,-0.12 0.19,-0.16 0.08,-0.04 0.16,-0.05 0.24,-0.03 -0.16,0.03 -0.28,0.11 -0.37,0.23zm3.54 -0.79c-0.16,0 -0.33,0.08 -0.49,0.23 -0.12,0.12 -0.25,0.29 -0.4,0.51l-0.09 0.14 -0.04 0.07 -0.04 0.07c-0.07,0.11 -0.11,0.19 -0.15,0.24 -0.1,0.16 -0.19,0.24 -0.25,0.24 -0.06,0 -0.19,-0.11 -0.39,-0.32l-0.03 -0.04 -0.04 -0.04c-0.03,-0.03 -0.05,-0.06 -0.07,-0.08 -0.06,-0.06 -0.11,-0.12 -0.16,-0.17 -0.13,-0.13 -0.26,-0.25 -0.39,-0.36 -0.2,-0.17 -0.42,-0.25 -0.64,-0.25 -0.2,0 -0.38,0.07 -0.53,0.2 -0.15,0.13 -0.24,0.3 -0.27,0.51 -0.04,0.22 0.01,0.43 0.13,0.65 0.09,0.15 0.22,0.32 0.39,0.49 0.07,0.07 0.14,0.14 0.23,0.22l0.11 0.1 0.11 0.1c0.19,0.16 0.32,0.29 0.39,0.37 0.11,0.13 0.17,0.24 0.18,0.34 0.01,0.1 -0.05,0.21 -0.19,0.32 -0.05,0.04 -0.12,0.09 -0.21,0.15l-0.06 0.04 -0.06 0.04 -0.13 0.08c-0.21,0.14 -0.37,0.28 -0.47,0.41 -0.15,0.18 -0.23,0.39 -0.24,0.61 -0.01,0.17 0.02,0.33 0.09,0.48 0.07,0.15 0.17,0.27 0.31,0.36 0.3,0.2 0.68,0.24 1.14,0.1 0.61,-0.19 1.21,-0.71 1.82,-1.58 0.54,-0.78 0.89,-1.52 1.04,-2.22 0.16,-0.72 0.16,-1.25 0.02,-1.59 -0.12,-0.29 -0.33,-0.43 -0.65,-0.43z"/>
  <path id="_4_3" class="fil1" d="M24.99 3.7c-0.03,0.01 -0.05,0.03 -0.09,0.06l-0.04 0.03 -0.04 0.03c-0.07,0.05 -0.15,0.08 -0.21,0.1 -0.08,0.02 -0.16,0.02 -0.23,0.01 0.14,-0.03 0.27,-0.08 0.4,-0.17l0.04 -0.03 0.04 -0.03c0.04,-0.03 0.08,-0.04 0.11,-0.05 0.08,-0.04 0.16,-0.04 0.23,-0.03 -0.07,0.01 -0.14,0.04 -0.2,0.08zm-2.36 -2.73c-0.14,0.15 -0.27,0.32 -0.38,0.52 -0.09,0.17 -0.18,0.37 -0.26,0.6 0.04,-0.22 0.11,-0.43 0.21,-0.63 0.1,-0.2 0.22,-0.38 0.38,-0.54 0.16,-0.17 0.35,-0.3 0.55,-0.38 0.11,-0.04 0.22,-0.07 0.32,-0.08 0.12,-0.02 0.23,-0.02 0.33,-0.01 -0.24,0.02 -0.45,0.07 -0.63,0.15 -0.2,0.1 -0.37,0.22 -0.52,0.38zm3.25 3.17c-0.04,-0.43 -0.19,-0.69 -0.46,-0.8 -0.12,-0.05 -0.24,-0.05 -0.38,-0.03 -0.13,0.03 -0.26,0.09 -0.38,0.19 -0.12,0.09 -0.24,0.13 -0.37,0.12 -0.12,-0.01 -0.23,-0.07 -0.33,-0.17 -0.1,-0.1 -0.17,-0.24 -0.22,-0.4 -0.05,-0.18 -0.06,-0.37 -0.03,-0.58 0.04,-0.3 0.19,-0.47 0.43,-0.51 0.18,-0.03 0.42,0.02 0.74,0.13 0.14,0.05 0.27,0.05 0.38,-0.01 0.11,-0.05 0.2,-0.14 0.25,-0.26 0.06,-0.13 0.07,-0.27 0.05,-0.43 -0.03,-0.17 -0.1,-0.33 -0.21,-0.49 -0.25,-0.33 -0.57,-0.56 -0.97,-0.69 -0.37,-0.12 -0.74,-0.13 -1.12,-0.03 -0.48,0.12 -0.89,0.43 -1.21,0.93 -0.35,0.55 -0.52,1.24 -0.52,2.05 0,0.92 0.24,1.65 0.71,2.17 0.22,0.25 0.48,0.43 0.78,0.54 0.3,0.12 0.63,0.16 0.98,0.13 0.59,-0.05 1.07,-0.26 1.42,-0.64 0.34,-0.36 0.49,-0.77 0.44,-1.23z"/>
  <path id="_5_4" class="fil1" d="M29.02 1.41c-0.11,0.14 -0.22,0.26 -0.32,0.35 -0.14,0.12 -0.27,0.21 -0.4,0.25 0.1,-0.06 0.22,-0.17 0.36,-0.3 0.1,-0.11 0.21,-0.22 0.31,-0.35 0.05,-0.06 0.1,-0.12 0.14,-0.19l0.04 -0.05 0.03 -0.05c0.03,-0.04 0.05,-0.07 0.07,-0.1 0.06,-0.06 0.12,-0.11 0.19,-0.15 0.08,-0.04 0.16,-0.05 0.23,-0.05 -0.14,0.01 -0.27,0.09 -0.38,0.23 -0.02,0.02 -0.04,0.05 -0.07,0.1l-0.03 0.05 -0.03 0.05c-0.04,0.05 -0.09,0.12 -0.14,0.19zm-1.61 -0.9c-0.05,0.04 -0.11,0.08 -0.15,0.14 -0.07,0.09 -0.14,0.21 -0.21,0.37 -0.04,0.1 -0.09,0.23 -0.15,0.41l-0.06 0.21 -0.06 0.21c0.01,-0.17 0.04,-0.31 0.07,-0.44 0.04,-0.15 0.08,-0.29 0.14,-0.42 0.07,-0.16 0.15,-0.29 0.23,-0.38 0.05,-0.06 0.11,-0.1 0.18,-0.13 0.08,-0.03 0.15,-0.05 0.22,-0.04 -0.07,0.01 -0.14,0.04 -0.2,0.07zm1.84 2.39c-0.11,-0.06 -0.14,-0.12 -0.08,-0.16 0.02,-0.02 0.07,-0.05 0.13,-0.08l0.04 -0.02 0.05 -0.03c0.05,-0.02 0.08,-0.04 0.11,-0.05 0.21,-0.1 0.37,-0.21 0.5,-0.33 0.19,-0.17 0.32,-0.38 0.4,-0.62 0.07,-0.22 0.07,-0.43 -0.01,-0.63 -0.07,-0.18 -0.2,-0.32 -0.37,-0.41 -0.17,-0.09 -0.35,-0.11 -0.54,-0.06 -0.21,0.06 -0.39,0.2 -0.53,0.42 -0.25,0.38 -0.49,0.64 -0.71,0.78 -0.09,0.06 -0.15,0.07 -0.18,0.05 -0.03,-0.03 -0.02,-0.09 0.03,-0.19 0.2,-0.41 0.26,-0.75 0.18,-1 -0.06,-0.21 -0.21,-0.35 -0.43,-0.4 -0.47,-0.11 -0.83,0.12 -1.08,0.7 -0.21,0.46 -0.34,1.13 -0.4,2.01 -0.06,0.89 -0.02,1.6 0.12,2.14 0.17,0.66 0.47,0.98 0.91,0.96 0.4,-0.01 0.63,-0.31 0.7,-0.89 0.02,-0.19 0.02,-0.41 0,-0.66 -0.01,-0.08 -0.02,-0.17 -0.03,-0.25 -0,-0.03 -0.01,-0.07 -0.01,-0.1l-0 -0.04 -0 -0.02 0 -0.01c-0.01,-0.07 -0,-0.12 0.03,-0.15 0.03,-0.03 0.08,-0.02 0.14,0.03 0.15,0.13 0.29,0.44 0.42,0.94 0.08,0.32 0.21,0.58 0.37,0.79 0.15,0.19 0.32,0.31 0.51,0.38 0.18,0.06 0.36,0.05 0.53,-0.01 0.17,-0.07 0.32,-0.19 0.44,-0.37 0.13,-0.2 0.2,-0.42 0.21,-0.67 0.01,-0.24 -0.05,-0.48 -0.16,-0.74 -0.24,-0.53 -0.67,-0.97 -1.27,-1.3z"/>
  <path id="_6_5" class="fil1" d="M36.44 0.66c-0.03,0.03 -0.06,0.09 -0.08,0.16 -0.02,0.05 -0.03,0.11 -0.05,0.19l-0.02 0.09 -0.02 0.1c-0.01,-0.06 -0.02,-0.13 -0.02,-0.2 0,-0.07 0.01,-0.14 0.03,-0.2 0.03,-0.08 0.07,-0.14 0.12,-0.18 0.06,-0.04 0.12,-0.05 0.2,-0.03 -0.08,0.02 -0.14,0.05 -0.16,0.08zm-0.08 2.02c-0.04,0.09 -0.1,0.15 -0.18,0.19 -0.08,0.04 -0.16,0.06 -0.24,0.04 0.08,-0.02 0.15,-0.05 0.21,-0.09 0.06,-0.04 0.11,-0.1 0.14,-0.16 0.03,-0.06 0.05,-0.13 0.06,-0.22l0.02 -0.24c0.03,0.08 0.04,0.16 0.04,0.24 0,0.09 -0.01,0.18 -0.04,0.25zm-2.62 -2.12c-0.07,0.05 -0.14,0.13 -0.2,0.25 -0.05,0.1 -0.1,0.2 -0.13,0.3 -0.04,0.1 -0.07,0.2 -0.1,0.31 -0.05,0.17 -0.1,0.38 -0.15,0.65 -0.02,0.1 -0.03,0.21 -0.05,0.33l-0.05 0.33c0,-0.21 0.02,-0.43 0.05,-0.67 0.03,-0.22 0.07,-0.44 0.13,-0.66 0.08,-0.27 0.16,-0.48 0.25,-0.62 0.07,-0.12 0.15,-0.2 0.23,-0.25 0.11,-0.07 0.22,-0.1 0.32,-0.09 -0.11,0.01 -0.21,0.05 -0.3,0.12zm3 -0.3c-0.28,-0.04 -0.49,0.04 -0.63,0.24 -0.17,0.25 -0.21,0.67 -0.12,1.28 0.05,0.33 0.07,0.54 0.07,0.63 -0.01,0.11 -0.04,0.16 -0.11,0.17 -0.04,0 -0.08,-0.04 -0.12,-0.12 -0.03,-0.06 -0.07,-0.16 -0.12,-0.31l-0.02 -0.05 -0.02 -0.05 -0.04 -0.11c-0.03,-0.09 -0.06,-0.17 -0.08,-0.23 -0.07,-0.18 -0.14,-0.34 -0.21,-0.48 -0.22,-0.43 -0.47,-0.73 -0.75,-0.93 -0.34,-0.24 -0.68,-0.25 -1.02,-0.05 -0.27,0.16 -0.48,0.56 -0.64,1.19 -0.15,0.58 -0.22,1.23 -0.22,1.94 0,0.73 0.08,1.34 0.24,1.82 0.17,0.54 0.42,0.8 0.74,0.81 0.49,0 0.72,-0.33 0.71,-1 -0,-0.11 -0.01,-0.23 -0.03,-0.38 -0.01,-0.05 -0.01,-0.1 -0.02,-0.17l-0.01 -0.08 -0.01 -0.08c-0.02,-0.22 -0.02,-0.33 0.02,-0.34 0.03,-0.01 0.06,0 0.08,0.03 0.01,0.02 0.04,0.08 0.08,0.18 0.03,0.06 0.05,0.11 0.07,0.16 0.03,0.07 0.07,0.15 0.11,0.22 0.1,0.2 0.22,0.41 0.37,0.63 0.17,0.26 0.37,0.46 0.61,0.61 0.26,0.15 0.51,0.21 0.77,0.18 0.88,-0.12 1.34,-0.97 1.39,-2.54 0.03,-0.86 -0.06,-1.58 -0.25,-2.18 -0.2,-0.61 -0.48,-0.95 -0.83,-1z"/>
  <path id="_7_6" class="fil1" d="M39.31 1.68c-0.02,0.04 -0.04,0.07 -0.07,0.09 -0.03,0.03 -0.07,0.04 -0.11,0.05 0.07,-0.03 0.11,-0.08 0.15,-0.15 0.03,-0.05 0.05,-0.12 0.06,-0.21 0.02,0.08 0.01,0.15 -0.03,0.23zm-0.22 0.01c-0.04,0.01 -0.08,0 -0.12,-0.04 -0.04,-0.04 -0.07,-0.09 -0.08,-0.15 -0.01,-0.07 -0.01,-0.13 0.01,-0.18 0.02,-0.06 0.05,-0.09 0.09,-0.1 0.04,-0.01 0.08,0 0.12,0.04 0.04,0.04 0.07,0.09 0.08,0.15 0.01,0.07 0.01,0.13 -0.01,0.18 -0.02,0.06 -0.05,0.09 -0.09,0.1zm-0.53 -1.24c-0.05,0.07 -0.09,0.16 -0.13,0.26 -0.03,0.09 -0.05,0.18 -0.07,0.29 0,-0.04 0.01,-0.09 0.02,-0.15 0.01,-0.05 0.02,-0.1 0.03,-0.15 0.03,-0.1 0.07,-0.19 0.13,-0.27 0.06,-0.09 0.14,-0.16 0.23,-0.2 0.05,-0.02 0.09,-0.04 0.14,-0.05 0.05,-0.01 0.1,-0.01 0.15,-0.01 -0.11,0.01 -0.2,0.03 -0.28,0.08 -0.08,0.05 -0.15,0.11 -0.21,0.2zm0.68 -0.39c-0.31,-0.06 -0.57,0.02 -0.75,0.24 -0.17,0.19 -0.26,0.46 -0.27,0.79 -0.01,0.32 0.04,0.62 0.17,0.88 0.14,0.29 0.34,0.46 0.59,0.51 0.23,0.05 0.44,-0.04 0.62,-0.26 0.17,-0.2 0.28,-0.47 0.33,-0.79 0.05,-0.33 0.02,-0.62 -0.08,-0.87 -0.12,-0.28 -0.32,-0.45 -0.6,-0.5z"/>
  <path id="_8_7" class="fil1" d="M45.2 4.54c-0.03,0 -0.08,0 -0.14,0.01l-0.07 0.01 -0.07 0c0.08,-0.06 0.17,-0.1 0.28,-0.1 0.06,0 0.11,0.01 0.15,0.02 0.05,0.02 0.09,0.05 0.12,0.09 -0.09,-0.03 -0.19,-0.04 -0.27,-0.04zm-2.33 -1.33c-0.06,0.06 -0.12,0.12 -0.17,0.18 -0.13,0.14 -0.22,0.27 -0.29,0.39 -0.09,0.14 -0.16,0.29 -0.2,0.45 -0.04,0.15 -0.06,0.32 -0.06,0.5l-0.02 -0.13 -0 -0.06 0 -0.07 0 -0.06 0 -0.07 0.01 -0.06 0.01 -0.07c0.03,-0.16 0.09,-0.32 0.19,-0.48 0.09,-0.15 0.2,-0.28 0.32,-0.39 0.06,-0.06 0.13,-0.12 0.19,-0.17l0.1 -0.07c0.04,-0.03 0.07,-0.05 0.11,-0.07l-0.09 0.09 -0.09 0.09zm0.4 -2.63c-0.08,0.03 -0.15,0.07 -0.22,0.11 -0.15,0.08 -0.29,0.17 -0.41,0.27 -0.13,0.1 -0.25,0.22 -0.36,0.35 -0.05,0.07 -0.1,0.14 -0.14,0.21 -0.05,0.08 -0.08,0.16 -0.09,0.23 -0.01,-0.14 0.05,-0.3 0.17,-0.48 0.09,-0.13 0.21,-0.26 0.35,-0.38 0.15,-0.11 0.29,-0.2 0.44,-0.26 0.08,-0.04 0.16,-0.06 0.24,-0.09 0.09,-0.03 0.17,-0.05 0.25,-0.05l-0.12 0.04c-0.05,0.02 -0.09,0.03 -0.12,0.05zm1.52 3.68c-0.23,0.09 -0.44,0.13 -0.63,0.11 -0.16,-0.01 -0.26,-0.05 -0.29,-0.11 -0.01,-0.03 -0.02,-0.06 -0.02,-0.09 -0,-0.05 0.01,-0.1 0.04,-0.14 0.07,-0.13 0.22,-0.28 0.47,-0.43 0.33,-0.2 0.6,-0.45 0.81,-0.75 0.21,-0.3 0.35,-0.6 0.41,-0.93 0.07,-0.33 0.04,-0.63 -0.08,-0.9 -0.12,-0.29 -0.34,-0.52 -0.66,-0.67 -0.37,-0.19 -0.77,-0.25 -1.2,-0.19 -0.37,0.05 -0.72,0.18 -1.06,0.4 -0.31,0.21 -0.54,0.45 -0.7,0.72 -0.15,0.27 -0.19,0.52 -0.11,0.72 0.09,0.2 0.24,0.32 0.47,0.36 0.24,0.04 0.53,-0.03 0.87,-0.18 0.19,-0.09 0.32,-0.14 0.4,-0.16 0.08,-0.01 0.13,-0 0.17,0.04 0.09,0.08 -0.02,0.21 -0.31,0.38 -0.53,0.31 -0.94,0.65 -1.21,1.03 -0.34,0.48 -0.44,0.98 -0.32,1.51 0.09,0.38 0.35,0.65 0.79,0.83 0.35,0.14 0.81,0.21 1.35,0.22 0.55,0 1,-0.07 1.35,-0.22 0.36,-0.15 0.56,-0.37 0.62,-0.65 0.03,-0.14 0.02,-0.27 -0.02,-0.41 -0.04,-0.14 -0.12,-0.26 -0.22,-0.36 -0.11,-0.1 -0.24,-0.17 -0.39,-0.19 -0.17,-0.03 -0.35,-0 -0.54,0.07z"/>
  <path id="_9_8" class="fil1" d="M3.5 12.45c-0.03,0 -0.08,0 -0.14,0.01l-0.07 0.01 -0.07 0c0.08,-0.06 0.17,-0.1 0.28,-0.1 0.06,0 0.11,0.01 0.15,0.02 0.05,0.02 0.09,0.05 0.12,0.09 -0.09,-0.03 -0.19,-0.04 -0.27,-0.04zm-2.33 -1.33c-0.06,0.06 -0.12,0.12 -0.17,0.18 -0.13,0.14 -0.22,0.27 -0.29,0.39 -0.09,0.14 -0.16,0.29 -0.2,0.45 -0.04,0.15 -0.06,0.32 -0.06,0.5l-0.02 -0.13 -0 -0.06 0 -0.07 0 -0.06 0 -0.07 0.01 -0.06 0.01 -0.07c0.03,-0.16 0.09,-0.32 0.19,-0.48 0.09,-0.15 0.2,-0.28 0.32,-0.39 0.06,-0.06 0.13,-0.12 0.19,-0.17l0.1 -0.07c0.04,-0.03 0.07,-0.05 0.11,-0.07l-0.09 0.09 -0.09 0.09zm0.4 -2.63c-0.08,0.03 -0.15,0.07 -0.22,0.11 -0.15,0.08 -0.29,0.17 -0.41,0.27 -0.13,0.1 -0.25,0.22 -0.36,0.35 -0.05,0.07 -0.1,0.14 -0.14,0.21 -0.05,0.08 -0.08,0.16 -0.09,0.23 -0.01,-0.14 0.05,-0.3 0.17,-0.48 0.09,-0.13 0.21,-0.26 0.35,-0.38 0.15,-0.11 0.29,-0.2 0.44,-0.26 0.08,-0.04 0.16,-0.06 0.24,-0.09 0.09,-0.03 0.17,-0.05 0.25,-0.05l-0.12 0.04c-0.05,0.02 -0.09,0.03 -0.12,0.05zm1.52 3.68c-0.23,0.09 -0.44,0.13 -0.63,0.11 -0.16,-0.01 -0.26,-0.05 -0.29,-0.11 -0.01,-0.03 -0.02,-0.06 -0.02,-0.09 -0,-0.05 0.01,-0.1 0.04,-0.14 0.07,-0.13 0.22,-0.28 0.47,-0.43 0.33,-0.2 0.6,-0.45 0.81,-0.75 0.21,-0.3 0.35,-0.6 0.41,-0.93 0.07,-0.33 0.04,-0.63 -0.08,-0.9 -0.12,-0.29 -0.34,-0.52 -0.66,-0.67 -0.37,-0.19 -0.77,-0.25 -1.2,-0.19 -0.37,0.05 -0.72,0.18 -1.06,0.4 -0.31,0.21 -0.54,0.45 -0.7,0.72 -0.16,0.27 -0.19,0.52 -0.11,0.72 0.08,0.2 0.24,0.32 0.47,0.36 0.24,0.04 0.53,-0.03 0.87,-0.18 0.19,-0.09 0.32,-0.14 0.4,-0.16 0.08,-0.01 0.13,-0 0.17,0.04 0.09,0.08 -0.02,0.21 -0.31,0.38 -0.53,0.31 -0.94,0.65 -1.21,1.03 -0.34,0.48 -0.44,0.98 -0.32,1.51 0.09,0.38 0.35,0.65 0.79,0.83 0.35,0.14 0.81,0.21 1.35,0.22 0.55,0 1,-0.07 1.35,-0.22 0.36,-0.15 0.56,-0.37 0.62,-0.65 0.03,-0.14 0.02,-0.27 -0.02,-0.41 -0.04,-0.14 -0.12,-0.26 -0.22,-0.36 -0.11,-0.1 -0.24,-0.17 -0.39,-0.19 -0.17,-0.03 -0.35,-0 -0.54,0.07z"/>
  <path id="_10_9" class="fil1" d="M7.34 11.97c-0.05,0.09 -0.1,0.17 -0.18,0.22 -0.08,0.06 -0.16,0.1 -0.25,0.11 0.16,-0.08 0.27,-0.2 0.36,-0.37 0.07,-0.13 0.11,-0.3 0.14,-0.51 0.04,0.19 0.02,0.37 -0.06,0.54zm-0.52 0.02c-0.1,0.03 -0.2,0 -0.29,-0.09 -0.1,-0.09 -0.16,-0.22 -0.19,-0.37 -0.03,-0.16 -0.03,-0.3 0.02,-0.44 0.05,-0.13 0.12,-0.22 0.22,-0.25 0.1,-0.03 0.2,0 0.29,0.09 0.09,0.09 0.16,0.21 0.19,0.37 0.03,0.16 0.03,0.3 -0.02,0.44 -0.05,0.13 -0.12,0.22 -0.22,0.25zm-1.26 -2.97c-0.12,0.17 -0.22,0.38 -0.32,0.63 -0.07,0.2 -0.13,0.43 -0.18,0.69 0,-0.09 0.02,-0.21 0.04,-0.36 0.02,-0.12 0.05,-0.23 0.08,-0.35 0.07,-0.25 0.17,-0.47 0.31,-0.66 0.15,-0.22 0.33,-0.38 0.54,-0.48 0.11,-0.05 0.22,-0.09 0.34,-0.12 0.12,-0.02 0.24,-0.03 0.36,-0.02 -0.26,0.02 -0.49,0.08 -0.67,0.19 -0.2,0.11 -0.36,0.27 -0.5,0.47zm1.63 -0.94c-0.75,-0.14 -1.35,0.05 -1.8,0.57 -0.4,0.47 -0.62,1.1 -0.65,1.9 -0.03,0.78 0.1,1.49 0.42,2.12 0.34,0.69 0.81,1.09 1.4,1.22 0.56,0.12 1.05,-0.09 1.49,-0.62 0.4,-0.49 0.66,-1.12 0.78,-1.89 0.12,-0.8 0.06,-1.49 -0.19,-2.09 -0.29,-0.68 -0.77,-1.08 -1.44,-1.21z"/>
  <path id="_11_10" class="fil1" d="M12.74 12.45c-0.03,0 -0.08,0 -0.14,0.01l-0.07 0.01 -0.07 0c0.08,-0.06 0.17,-0.1 0.28,-0.1 0.06,0 0.11,0.01 0.15,0.02 0.05,0.02 0.09,0.05 0.12,0.09 -0.1,-0.03 -0.19,-0.04 -0.27,-0.04zm-2.33 -1.33c-0.06,0.06 -0.12,0.12 -0.17,0.18 -0.13,0.14 -0.22,0.27 -0.29,0.39 -0.09,0.14 -0.16,0.29 -0.2,0.45 -0.04,0.15 -0.06,0.32 -0.06,0.5l-0.02 -0.13 -0 -0.06 0 -0.07 0 -0.06 0 -0.07 0.01 -0.06 0.01 -0.07c0.03,-0.16 0.09,-0.32 0.19,-0.48 0.09,-0.15 0.2,-0.28 0.32,-0.39 0.06,-0.06 0.13,-0.12 0.19,-0.17l0.1 -0.07c0.04,-0.03 0.07,-0.05 0.11,-0.07l-0.09 0.09 -0.09 0.09zm0.4 -2.63c-0.08,0.03 -0.15,0.07 -0.22,0.11 -0.15,0.08 -0.29,0.17 -0.41,0.27 -0.13,0.1 -0.25,0.22 -0.36,0.35 -0.05,0.07 -0.1,0.14 -0.14,0.21 -0.05,0.08 -0.08,0.16 -0.09,0.23 -0.01,-0.14 0.05,-0.3 0.17,-0.48 0.09,-0.13 0.21,-0.26 0.35,-0.38 0.15,-0.11 0.29,-0.2 0.44,-0.26 0.08,-0.04 0.16,-0.06 0.24,-0.09 0.09,-0.03 0.17,-0.05 0.25,-0.05l-0.12 0.04c-0.05,0.02 -0.09,0.03 -0.12,0.05zm1.52 3.68c-0.23,0.09 -0.44,0.13 -0.63,0.11 -0.16,-0.01 -0.26,-0.05 -0.29,-0.11 -0.01,-0.03 -0.02,-0.06 -0.02,-0.09 -0,-0.05 0.01,-0.1 0.04,-0.14 0.07,-0.13 0.22,-0.28 0.47,-0.43 0.33,-0.2 0.6,-0.45 0.81,-0.75 0.21,-0.3 0.35,-0.6 0.41,-0.93 0.07,-0.33 0.04,-0.63 -0.08,-0.9 -0.12,-0.29 -0.34,-0.52 -0.66,-0.67 -0.37,-0.19 -0.77,-0.25 -1.2,-0.19 -0.37,0.05 -0.72,0.18 -1.06,0.4 -0.31,0.21 -0.54,0.45 -0.7,0.72 -0.15,0.27 -0.19,0.52 -0.11,0.72 0.09,0.2 0.24,0.32 0.47,0.36 0.24,0.04 0.53,-0.03 0.87,-0.18 0.19,-0.09 0.32,-0.14 0.4,-0.16 0.08,-0.01 0.13,-0 0.17,0.04 0.09,0.08 -0.02,0.21 -0.31,0.38 -0.53,0.31 -0.94,0.65 -1.21,1.03 -0.34,0.48 -0.44,0.98 -0.32,1.51 0.09,0.38 0.35,0.65 0.79,0.83 0.35,0.14 0.81,0.21 1.35,0.22 0.55,0 1,-0.07 1.35,-0.22 0.36,-0.15 0.56,-0.37 0.62,-0.65 0.03,-0.14 0.02,-0.27 -0.02,-0.41 -0.04,-0.14 -0.12,-0.26 -0.22,-0.36 -0.11,-0.1 -0.24,-0.17 -0.39,-0.19 -0.17,-0.03 -0.35,-0 -0.54,0.07z"/>
  <path id="_12_11" class="fil1" d="M21.75 8.44c-0.12,0.03 -0.23,0.07 -0.33,0.12 -0.23,0.11 -0.42,0.25 -0.56,0.41 -0.07,0.07 -0.12,0.17 -0.18,0.29 -0.04,0.09 -0.07,0.2 -0.11,0.34 -0.03,0.11 -0.05,0.23 -0.07,0.35 -0.01,0.05 -0.02,0.11 -0.03,0.18l-0.02 0.18c-0.01,-0.26 0,-0.5 0.05,-0.72 0.06,-0.29 0.15,-0.52 0.28,-0.67 0.16,-0.18 0.36,-0.31 0.6,-0.41 0.11,-0.04 0.22,-0.08 0.34,-0.11 0.13,-0.03 0.25,-0.04 0.36,-0.04 -0.14,0.03 -0.26,0.05 -0.35,0.08zm2.37 0.53c-0.02,-0.24 -0.16,-0.44 -0.43,-0.61 -0.25,-0.16 -0.57,-0.27 -0.95,-0.31 -0.39,-0.04 -0.77,-0.01 -1.14,0.09 -0.41,0.12 -0.74,0.31 -0.99,0.58 -0.23,0.25 -0.38,0.65 -0.44,1.2 -0.05,0.5 -0.03,1.05 0.08,1.64 0.11,0.59 0.27,1.1 0.49,1.52 0.24,0.45 0.5,0.72 0.78,0.81 0.41,0.12 0.7,0.02 0.88,-0.31 0.15,-0.29 0.18,-0.68 0.09,-1.16 -0.01,-0.07 -0.03,-0.16 -0.06,-0.28 -0.01,-0.03 -0.02,-0.09 -0.04,-0.16l-0.02 -0.09 -0.02 -0.09c-0.07,-0.3 -0.12,-0.54 -0.15,-0.72 -0.1,-0.6 -0.07,-0.97 0.07,-1.12 0.07,-0.07 0.21,-0.12 0.44,-0.15 0.04,-0.01 0.09,-0.01 0.15,-0.02l0.16 -0.01c0.14,-0.01 0.24,-0.03 0.33,-0.04 0.25,-0.04 0.44,-0.11 0.56,-0.21 0.16,-0.13 0.23,-0.32 0.21,-0.57z"/>
  <path id="_13_12" class="fil1" d="M27.33 12.09c-0.05,0.07 -0.12,0.13 -0.19,0.16 -0.08,0.04 -0.16,0.06 -0.24,0.06 0.15,-0.06 0.27,-0.15 0.36,-0.27 0.08,-0.11 0.14,-0.25 0.17,-0.43 0.04,0.17 0,0.33 -0.1,0.47zm-0.85 -0.42c-0.02,-0.1 0,-0.2 0.05,-0.28 0.05,-0.08 0.12,-0.13 0.21,-0.15 0.09,-0.01 0.17,0.01 0.24,0.08 0.07,0.06 0.12,0.15 0.14,0.25 0.02,0.11 0,0.2 -0.05,0.28 -0.05,0.08 -0.12,0.13 -0.21,0.15 -0.09,0.01 -0.17,-0.01 -0.24,-0.07 -0.07,-0.06 -0.12,-0.15 -0.13,-0.25zm-0.21 -3.16c-0.21,0.08 -0.4,0.2 -0.56,0.36 -0.15,0.14 -0.29,0.31 -0.42,0.53l-0.04 0.07 -0.04 0.07 -0.07 0.15 -0.07 0.16 -0.06 0.16c0.05,-0.23 0.12,-0.45 0.23,-0.65 0.11,-0.21 0.25,-0.4 0.42,-0.56 0.18,-0.17 0.38,-0.29 0.59,-0.36 0.1,-0.04 0.22,-0.06 0.34,-0.08l0.09 -0.01 0.09 -0 0.17 0c-0.25,0.02 -0.47,0.07 -0.66,0.15zm1.37 -0.38c-0.84,-0.21 -1.55,-0.07 -2.11,0.42 -0.5,0.43 -0.81,1.04 -0.93,1.84 -0.12,0.77 -0.03,1.49 0.27,2.15 0.32,0.71 0.81,1.16 1.47,1.34 0.62,0.17 1.21,0.01 1.76,-0.49 0.5,-0.45 0.86,-1.06 1.07,-1.82 0.22,-0.78 0.21,-1.48 -0.02,-2.1 -0.26,-0.7 -0.77,-1.14 -1.52,-1.33z"/>
  <path id="_14_13" class="fil1" d="M33.7 11.88c-0.03,0.1 -0.08,0.17 -0.15,0.23 -0.07,0.05 -0.15,0.09 -0.25,0.11 -0.09,0.02 -0.18,0.02 -0.27,0 0.11,-0.02 0.19,-0.04 0.25,-0.06 0.09,-0.03 0.17,-0.07 0.22,-0.11 0.06,-0.05 0.11,-0.11 0.14,-0.19 0.02,-0.06 0.04,-0.14 0.06,-0.25 0.02,0.09 0.02,0.18 0,0.27zm-1.04 -0.11c-0.05,-0.1 -0.03,-0.25 0.05,-0.47 0.09,-0.22 0.19,-0.33 0.3,-0.33 0.13,0 0.24,0.12 0.32,0.35 0.03,0.09 0.05,0.18 0.06,0.27 0.01,0.09 -0.01,0.16 -0.03,0.21 -0.04,0.07 -0.16,0.1 -0.34,0.1 -0.18,-0 -0.3,-0.05 -0.35,-0.13zm-0.55 -2.66c-0.11,0.17 -0.22,0.35 -0.32,0.56 -0.08,0.16 -0.16,0.36 -0.25,0.59 0.05,-0.2 0.11,-0.41 0.2,-0.62 0.08,-0.19 0.18,-0.38 0.31,-0.58 0.14,-0.2 0.28,-0.37 0.43,-0.49 0.09,-0.07 0.18,-0.12 0.28,-0.17 0.11,-0.04 0.21,-0.06 0.31,-0.06 -0.19,0.02 -0.37,0.12 -0.56,0.28 -0.14,0.13 -0.28,0.29 -0.41,0.48zm-1.8 3.22c-0.07,0.03 -0.12,0.07 -0.16,0.1 -0.05,0.04 -0.08,0.09 -0.1,0.16 -0.01,-0.07 0.01,-0.14 0.06,-0.2 0.04,-0.05 0.09,-0.09 0.16,-0.13 0.13,-0.06 0.26,-0.1 0.39,-0.09l-0.09 0.04 -0.09 0.04c-0.07,0.03 -0.13,0.06 -0.17,0.08zm4.98 -0.49c-0.11,-0.03 -0.19,-0.07 -0.24,-0.13 -0.05,-0.05 -0.08,-0.13 -0.09,-0.23 -0.01,-0.06 -0.02,-0.18 -0.04,-0.38 -0.01,-0.1 -0.01,-0.18 -0.02,-0.25 -0.01,-0.1 -0.02,-0.2 -0.04,-0.3 -0.12,-0.81 -0.34,-1.44 -0.67,-1.89 -0.31,-0.41 -0.67,-0.62 -1.09,-0.63 -0.36,-0.01 -0.71,0.19 -1.06,0.58 -0.35,0.4 -0.62,0.92 -0.8,1.55 -0.07,0.25 -0.13,0.51 -0.18,0.77 -0.01,0.04 -0.02,0.09 -0.02,0.14l-0.01 0.07 -0.01 0.06c-0.01,0.1 -0.03,0.17 -0.03,0.22 -0.03,0.13 -0.06,0.23 -0.11,0.29 -0.05,0.07 -0.14,0.11 -0.27,0.14 -0.35,0.07 -0.6,0.2 -0.74,0.39 -0.13,0.16 -0.16,0.36 -0.09,0.6 0.09,0.33 0.46,0.59 1.11,0.78 0.58,0.17 1.3,0.27 2.16,0.29 0.79,0.02 1.39,-0.01 1.82,-0.07 0.63,-0.1 1.03,-0.31 1.21,-0.63 0.17,-0.3 0.18,-0.57 0.03,-0.83 -0.15,-0.25 -0.41,-0.43 -0.8,-0.54z"/>
  <path id="_15_14" class="fil1" d="M16.48 11.95c-0.01,0.07 -0.04,0.13 -0.09,0.2 -0.04,0.06 -0.1,0.11 -0.16,0.15 -0.07,0.04 -0.14,0.07 -0.2,0.07 0.14,-0.09 0.23,-0.18 0.29,-0.27 0.06,-0.09 0.11,-0.21 0.15,-0.37 0.01,0.07 0.01,0.14 -0,0.22zm-1.67 0.31c-0.08,0.01 -0.14,0.01 -0.2,0.03 -0.07,0.02 -0.13,0.04 -0.18,0.07 -0.04,0.03 -0.08,0.08 -0.13,0.15 0.01,-0.08 0.03,-0.14 0.09,-0.2 0.05,-0.05 0.12,-0.09 0.2,-0.11 0.07,-0.01 0.15,-0.02 0.21,-0.01 0.08,0.01 0.15,0.03 0.21,0.05 -0.06,0.01 -0.13,0.02 -0.21,0.02zm0.01 -3.51c-0.08,0.06 -0.15,0.12 -0.2,0.18 -0.03,0.03 -0.05,0.06 -0.08,0.1 -0.02,0.03 -0.05,0.07 -0.07,0.11 -0.03,0.07 -0.07,0.16 -0.09,0.26 -0.01,0.04 -0.02,0.08 -0.03,0.13l-0.03 0.14c0,-0.21 0.03,-0.39 0.09,-0.55 0.02,-0.05 0.04,-0.1 0.07,-0.13 0.03,-0.04 0.06,-0.07 0.09,-0.11 0.05,-0.06 0.12,-0.12 0.21,-0.19 0.15,-0.11 0.32,-0.19 0.5,-0.24 0.1,-0.02 0.19,-0.04 0.27,-0.06 0.11,-0.01 0.21,-0.02 0.27,-0.02 -0.22,0.05 -0.39,0.09 -0.52,0.14 -0.19,0.07 -0.35,0.15 -0.48,0.24zm1.71 1.34c-0.14,-0.03 -0.27,-0.05 -0.41,-0.06 -0.05,-0 -0.1,-0.01 -0.16,-0.01l-0.07 -0 -0.06 -0c-0.17,-0.01 -0.28,-0.04 -0.32,-0.1 -0.04,-0.05 -0.04,-0.12 -0.01,-0.21 0.03,-0.08 0.09,-0.15 0.17,-0.19 0.24,-0.12 0.62,-0.13 1.13,-0.04 0.21,0.04 0.39,0.01 0.54,-0.1 0.14,-0.1 0.23,-0.24 0.26,-0.41 0.03,-0.18 0,-0.34 -0.1,-0.5 -0.11,-0.17 -0.29,-0.28 -0.53,-0.35 -0.4,-0.11 -0.85,-0.12 -1.35,-0.04 -0.63,0.1 -1.08,0.34 -1.35,0.73 -0.17,0.24 -0.26,0.6 -0.26,1.06 0,0.47 0.09,0.81 0.28,1.01 0.11,0.13 0.25,0.21 0.4,0.26 0.12,0.04 0.27,0.06 0.45,0.07l0.11 0 0.11 0c0.09,0 0.16,0.01 0.22,0.01 0.16,0.01 0.28,0.05 0.38,0.11 0.14,0.09 0.21,0.21 0.22,0.36 0.01,0.15 -0.04,0.26 -0.15,0.33 -0.06,0.03 -0.11,0.05 -0.16,0.06 -0.09,0.01 -0.22,-0.01 -0.39,-0.06 -0.91,-0.26 -1.41,-0.06 -1.49,0.58 -0.04,0.29 0.06,0.55 0.3,0.78 0.22,0.21 0.53,0.37 0.91,0.47 0.39,0.09 0.78,0.11 1.17,0.04 0.42,-0.07 0.78,-0.24 1.06,-0.49 0.29,-0.26 0.5,-0.55 0.61,-0.9 0.11,-0.33 0.12,-0.66 0.04,-1 -0.08,-0.34 -0.25,-0.63 -0.51,-0.87 -0.27,-0.26 -0.62,-0.44 -1.03,-0.53z"/>
 </g>
</svg>
