<?xml version="1.0" encoding="UTF-8"?>
<!DOCTYPE svg PUBLIC "-//W3C//DTD SVG 1.1//EN" "http://www.w3.org/Graphics/SVG/1.1/DTD/svg11.dtd">
<!-- Creator: CorelDRAW 2019 (64-Bit) -->
<svg xmlns="http://www.w3.org/2000/svg" xml:space="preserve" width="48.7786mm" height="15.3415mm" version="1.1" style="shape-rendering:geometricPrecision; text-rendering:geometricPrecision; image-rendering:optimizeQuality; fill-rule:evenodd; clip-rule:evenodd"
viewBox="0 0 157.85 49.65"
 xmlns:xlink="http://www.w3.org/1999/xlink"
 xmlns:xodm="http://www.corel.com/coreldraw/odm/2003">
 <defs>
  <style type="text/css">
   <![CDATA[
    .fil0 {fill:#AC6919;fill-rule:nonzero}
   ]]>
  </style>
 </defs>
 <g id="Слой_x0020_1">
  <metadata id="CorelCorpID_0Corel-Layer"/>
  <path class="fil0" d="M0.61 7.18l-0.61 0 0 -1.48 0.49 0 2.38 -5.54 0.21 0 2.52 5.54 0.47 0 0 1.48 -0.61 0 0 -0.91 -4.85 0 0 0.91zm0.56 -1.48l3.71 0 -1.9 -4.27 -1.81 4.27z"/>
  <path id="1" class="fil0" d="M9.84 0c0.92,0 1.69,0.31 2.31,0.93 0.62,0.62 0.93,1.38 0.93,2.28 0,0.9 -0.31,1.65 -0.93,2.28 -0.62,0.62 -1.37,0.94 -2.26,0.94 -0.9,0 -1.66,-0.31 -2.28,-0.93 -0.62,-0.62 -0.93,-1.37 -0.93,-2.25 0,-0.59 0.14,-1.13 0.42,-1.63 0.28,-0.5 0.67,-0.89 1.16,-1.18 0.49,-0.28 1.01,-0.43 1.58,-0.43zm0.03 0.6c-0.45,0 -0.87,0.12 -1.28,0.35 -0.4,0.24 -0.72,0.55 -0.94,0.95 -0.23,0.4 -0.34,0.84 -0.34,1.34 0,0.73 0.25,1.34 0.75,1.84 0.5,0.5 1.1,0.75 1.81,0.75 0.47,0 0.91,-0.12 1.31,-0.34 0.4,-0.23 0.72,-0.54 0.94,-0.94 0.22,-0.4 0.34,-0.84 0.34,-1.33 0,-0.49 -0.11,-0.92 -0.34,-1.32 -0.22,-0.39 -0.54,-0.71 -0.95,-0.94 -0.41,-0.24 -0.84,-0.35 -1.3,-0.35z"/>
  <path id="2" class="fil0" d="M14.29 0.15l1.21 0c0.69,0 1.16,0.03 1.41,0.09 0.35,0.09 0.63,0.26 0.85,0.53 0.22,0.27 0.33,0.6 0.33,1.01 0,0.41 -0.11,0.74 -0.32,1.01 -0.21,0.26 -0.51,0.44 -0.89,0.53 -0.28,0.07 -0.79,0.1 -1.55,0.1l-0.43 0 0 2.84 -0.61 0 0 -6.11zm0.61 0.6l0 2.08 1.03 0.01c0.42,0 0.72,-0.04 0.91,-0.12 0.19,-0.08 0.35,-0.2 0.46,-0.37 0.11,-0.17 0.17,-0.36 0.17,-0.57 0,-0.2 -0.06,-0.39 -0.17,-0.56 -0.11,-0.17 -0.26,-0.29 -0.44,-0.36 -0.18,-0.07 -0.48,-0.11 -0.89,-0.11l-1.07 0z"/>
  <path id="3" class="fil0" d="M22.2 0c0.92,0 1.69,0.31 2.31,0.93 0.62,0.62 0.93,1.38 0.93,2.28 0,0.9 -0.31,1.65 -0.93,2.28 -0.62,0.62 -1.37,0.94 -2.26,0.94 -0.9,0 -1.66,-0.31 -2.28,-0.93 -0.62,-0.62 -0.93,-1.37 -0.93,-2.25 0,-0.59 0.14,-1.13 0.42,-1.63 0.28,-0.5 0.67,-0.89 1.15,-1.18 0.49,-0.28 1.01,-0.43 1.58,-0.43zm0.03 0.6c-0.45,0 -0.87,0.12 -1.28,0.35 -0.4,0.24 -0.72,0.55 -0.94,0.95 -0.23,0.4 -0.34,0.84 -0.34,1.34 0,0.73 0.25,1.34 0.75,1.84 0.5,0.5 1.1,0.75 1.81,0.75 0.47,0 0.91,-0.12 1.31,-0.34 0.4,-0.23 0.71,-0.54 0.94,-0.94 0.22,-0.4 0.34,-0.84 0.34,-1.33 0,-0.49 -0.11,-0.92 -0.34,-1.32 -0.22,-0.39 -0.54,-0.71 -0.95,-0.94 -0.41,-0.24 -0.84,-0.35 -1.3,-0.35z"/>
  <polygon id="4" class="fil0" points="27.26,6.27 26.65,6.27 26.65,0.15 29.7,0.15 29.7,0.75 27.26,0.75 "/>
  <polygon id="5" class="fil0" points="35.36,6.27 34.72,6.27 34.72,1.57 30.71,6.27 30.58,6.27 30.58,0.15 31.18,0.15 31.18,4.92 35.22,0.15 35.36,0.15 "/>
  <polygon id="6" class="fil0" points="36.83,0.15 40.31,0.15 40.31,0.75 37.44,0.75 37.44,2.67 40.29,2.67 40.29,3.26 37.44,3.26 37.44,5.67 40.29,5.67 40.29,6.27 36.83,6.27 "/>
  <path id="7" class="fil0" d="M43.71 0.15l1.21 0c0.69,0 1.16,0.03 1.41,0.09 0.35,0.09 0.63,0.26 0.85,0.53 0.22,0.27 0.33,0.6 0.33,1.01 0,0.41 -0.11,0.74 -0.32,1.01 -0.21,0.26 -0.51,0.44 -0.89,0.53 -0.28,0.07 -0.79,0.1 -1.55,0.1l-0.43 0 0 2.84 -0.61 0 0 -6.11zm0.61 0.6l0 2.08 1.03 0.01c0.42,0 0.72,-0.04 0.91,-0.12 0.19,-0.08 0.35,-0.2 0.46,-0.37 0.11,-0.17 0.16,-0.36 0.16,-0.57 0,-0.2 -0.05,-0.39 -0.16,-0.56 -0.11,-0.17 -0.26,-0.29 -0.44,-0.36 -0.18,-0.07 -0.48,-0.11 -0.89,-0.11l-1.07 0z"/>
  <polygon id="8" class="fil0" points="48.72,0.15 52.2,0.15 52.2,0.75 49.33,0.75 49.33,2.67 52.18,2.67 52.18,3.26 49.33,3.26 49.33,5.67 52.18,5.67 52.18,6.27 48.72,6.27 "/>
  <path id="9" class="fil0" d="M53.25 6.27l0 -6.11 3.05 0 0 0.6 -2.44 0 0 1.96 0.28 0c0.75,0 1.3,0.07 1.64,0.2 0.34,0.13 0.61,0.35 0.81,0.64 0.2,0.29 0.29,0.61 0.29,0.97 0,0.47 -0.17,0.87 -0.52,1.23 -0.35,0.35 -0.83,0.53 -1.45,0.53l-1.67 0zm0.61 -2.95l0 2.35 0.74 0c0.44,0 0.76,-0.04 0.97,-0.13 0.21,-0.09 0.37,-0.22 0.49,-0.4 0.12,-0.18 0.18,-0.39 0.18,-0.61 0,-0.28 -0.09,-0.52 -0.26,-0.72 -0.17,-0.2 -0.39,-0.33 -0.65,-0.39 -0.26,-0.06 -0.64,-0.09 -1.15,-0.09l-0.34 0z"/>
  <path id="10" class="fil0" d="M61.55 0.15l-1.21 0c-0.68,0 -1.13,0.03 -1.37,0.08 -0.36,0.08 -0.66,0.26 -0.88,0.53 -0.23,0.27 -0.34,0.61 -0.34,1.01 0,0.33 0.08,0.62 0.23,0.88 0.16,0.25 0.38,0.44 0.67,0.57 0.29,0.13 0.69,0.19 1.2,0.2l-2.19 2.84 0.75 0 2.19 -2.84 0.35 0 0 2.84 0.61 0 0 -6.11zm-0.61 0.6l0 2.08 -1.05 0.01c-0.41,0 -0.71,-0.04 -0.9,-0.12 -0.19,-0.08 -0.35,-0.2 -0.46,-0.37 -0.11,-0.17 -0.16,-0.36 -0.16,-0.57 0,-0.2 0.06,-0.39 0.17,-0.56 0.11,-0.17 0.26,-0.29 0.44,-0.36 0.18,-0.07 0.48,-0.11 0.9,-0.11l1.07 0z"/>
  <polygon id="11" class="fil0" points="62.44,0.75 62.44,0.15 65.77,0.15 65.77,0.75 64.41,0.75 64.41,6.27 63.79,6.27 63.79,0.75 "/>
  <path id="12" class="fil0" d="M69.13 0.15l2.83 6.11 -0.65 0 -0.95 -2.01 -2.63 0 -0.94 2.01 -0.68 0 2.87 -6.11 0.15 0zm-0.08 1.28l-1.05 2.23 2.09 0 -1.04 -2.23z"/>
  <path id="13" class="fil0" d="M73.71 0l0 4.73 -0.59 0 0 -4.73 0.59 0zm-0.29 5.35c0.14,0 0.26,0.05 0.36,0.15 0.1,0.1 0.15,0.22 0.15,0.37 0,0.14 -0.05,0.26 -0.15,0.36 -0.1,0.1 -0.22,0.15 -0.36,0.15 -0.14,0 -0.26,-0.05 -0.36,-0.15 -0.1,-0.1 -0.15,-0.22 -0.15,-0.36 0,-0.14 0.05,-0.27 0.15,-0.37 0.1,-0.1 0.22,-0.15 0.36,-0.15z"/>
  <polygon id="14" class="fil0" points="0.29,10.77 1,10.77 2.46,13.14 3.91,10.77 4.62,10.77 2.81,13.72 4.74,16.88 4.03,16.88 2.45,14.3 0.87,16.88 0.16,16.88 2.1,13.72 "/>
  <path id="15" class="fil0" d="M8.66 10.62c0.92,0 1.69,0.31 2.31,0.93 0.62,0.62 0.93,1.38 0.93,2.28 0,0.9 -0.31,1.65 -0.93,2.28 -0.62,0.62 -1.37,0.94 -2.26,0.94 -0.9,0 -1.66,-0.31 -2.28,-0.93 -0.62,-0.62 -0.93,-1.37 -0.93,-2.25 0,-0.59 0.14,-1.13 0.42,-1.63 0.28,-0.5 0.67,-0.89 1.15,-1.18 0.49,-0.28 1.01,-0.43 1.58,-0.43zm0.03 0.6c-0.45,0 -0.87,0.12 -1.28,0.35 -0.4,0.24 -0.72,0.55 -0.94,0.95 -0.23,0.4 -0.34,0.84 -0.34,1.34 0,0.73 0.25,1.34 0.75,1.84 0.5,0.5 1.1,0.75 1.81,0.75 0.47,0 0.91,-0.12 1.31,-0.34 0.4,-0.23 0.71,-0.54 0.94,-0.94 0.22,-0.4 0.34,-0.84 0.34,-1.33 0,-0.49 -0.11,-0.92 -0.34,-1.32 -0.22,-0.39 -0.54,-0.71 -0.95,-0.94 -0.41,-0.24 -0.84,-0.35 -1.3,-0.35z"/>
  <path id="16" class="fil0" d="M15.6 13.41l0 -2.64 0.61 0 0 6.11 -0.61 0 0 -2.88 -0.44 0c-0.61,0 -1.05,-0.03 -1.32,-0.08 -0.28,-0.05 -0.53,-0.16 -0.75,-0.33 -0.22,-0.17 -0.37,-0.37 -0.45,-0.62 -0.08,-0.24 -0.12,-0.58 -0.12,-1l0 -1.21 0.59 0 0 1.25c0,0.51 0.1,0.87 0.31,1.08 0.2,0.21 0.55,0.31 1.02,0.31l0.43 -0 0.19 0 0.54 0z"/>
  <path id="17" class="fil0" d="M17.22 10.79l0.68 0 1.84 4.15 1.68 -4.17 0.67 0 -2.31 5.49c-0.21,0.52 -0.6,0.77 -1.14,0.77 -0.22,0 -0.43,-0.05 -0.62,-0.13 -0.2,-0.09 -0.44,-0.3 -0.74,-0.64l0.44 -0.37c0.3,0.3 0.51,0.47 0.61,0.52 0.1,0.04 0.21,0.06 0.31,0.06 0.16,0 0.3,-0.04 0.41,-0.13 0.12,-0.09 0.25,-0.3 0.38,-0.64l-2.22 -4.92z"/>
  <polygon id="18" class="fil0" points="25.48,10.77 29.79,10.77 29.79,16.88 29.19,16.88 29.19,11.35 26.09,11.35 26.09,16.88 25.48,16.88 "/>
  <path id="19" class="fil0" d="M34.17 10.62c0.92,0 1.69,0.31 2.31,0.93 0.62,0.62 0.93,1.38 0.93,2.28 0,0.9 -0.31,1.65 -0.93,2.28 -0.62,0.62 -1.37,0.94 -2.26,0.94 -0.9,0 -1.66,-0.31 -2.28,-0.93 -0.62,-0.62 -0.93,-1.37 -0.93,-2.25 0,-0.59 0.14,-1.13 0.42,-1.63 0.28,-0.5 0.67,-0.89 1.16,-1.18 0.49,-0.28 1.01,-0.43 1.58,-0.43zm0.03 0.6c-0.45,0 -0.87,0.12 -1.28,0.35 -0.4,0.24 -0.72,0.55 -0.94,0.95 -0.23,0.4 -0.34,0.84 -0.34,1.34 0,0.73 0.25,1.34 0.75,1.84 0.5,0.5 1.1,0.75 1.81,0.75 0.47,0 0.91,-0.12 1.31,-0.34 0.4,-0.23 0.71,-0.54 0.94,-0.94 0.22,-0.4 0.34,-0.84 0.34,-1.33 0,-0.49 -0.11,-0.92 -0.34,-1.32 -0.22,-0.39 -0.54,-0.71 -0.95,-0.94 -0.41,-0.24 -0.84,-0.35 -1.3,-0.35z"/>
  <path id="20" class="fil0" d="M38.75 11.36c0.43,-0.5 0.95,-0.75 1.58,-0.75 0.5,0 0.91,0.14 1.24,0.43 0.33,0.29 0.49,0.66 0.49,1.12 0,0.65 -0.3,1.12 -0.91,1.4 0.8,0.25 1.2,0.79 1.2,1.62 0,0.55 -0.18,1 -0.54,1.34 -0.36,0.34 -0.85,0.51 -1.47,0.51 -0.44,0 -0.82,-0.09 -1.14,-0.27 -0.32,-0.18 -0.62,-0.5 -0.91,-0.95l0.47 -0.28c0.28,0.42 0.55,0.68 0.79,0.8 0.25,0.12 0.5,0.18 0.77,0.18 0.39,0 0.72,-0.11 0.99,-0.34 0.27,-0.22 0.41,-0.55 0.41,-0.99 0,-0.23 -0.05,-0.43 -0.14,-0.6 -0.09,-0.17 -0.22,-0.31 -0.39,-0.41 -0.17,-0.11 -0.33,-0.17 -0.48,-0.2 -0.15,-0.03 -0.4,-0.04 -0.75,-0.04l-0.1 0 0 -0.54 0.2 0c0.9,0 1.35,-0.37 1.35,-1.1 0,-0.34 -0.1,-0.61 -0.31,-0.81 -0.21,-0.2 -0.47,-0.3 -0.78,-0.3 -0.41,0 -0.79,0.19 -1.15,0.56l-0.42 -0.37z"/>
  <polygon id="21" class="fil0" points="43.53,10.77 44.14,10.77 44.14,13.33 47.24,13.33 47.24,10.77 47.85,10.77 47.85,16.88 47.24,16.88 47.24,13.93 44.14,13.93 44.14,16.88 43.53,16.88 "/>
  <path id="22" class="fil0" d="M51.81 10.77l2.84 6.11 -0.65 0 -0.95 -2.01 -2.63 0 -0.94 2.01 -0.68 0 2.87 -6.11 0.15 0zm-0.08 1.28l-1.05 2.23 2.09 0 -1.04 -2.23z"/>
  <polygon id="23" class="fil0" points="55.58,10.77 56.2,10.77 56.2,13.06 58.63,10.77 59.45,10.77 56.52,13.51 59.68,16.88 58.87,16.88 56.2,14.03 56.2,16.88 55.58,16.88 "/>
  <path id="24" class="fil0" d="M63.48 10.62c0.92,0 1.69,0.31 2.31,0.93 0.62,0.62 0.93,1.38 0.93,2.28 0,0.9 -0.31,1.65 -0.93,2.28 -0.62,0.62 -1.37,0.94 -2.26,0.94 -0.9,0 -1.66,-0.31 -2.28,-0.93 -0.62,-0.62 -0.93,-1.37 -0.93,-2.25 0,-0.59 0.14,-1.13 0.42,-1.63 0.28,-0.5 0.67,-0.89 1.16,-1.18 0.49,-0.28 1.01,-0.43 1.58,-0.43zm0.03 0.6c-0.45,0 -0.87,0.12 -1.28,0.35 -0.4,0.24 -0.72,0.55 -0.94,0.95 -0.23,0.4 -0.34,0.84 -0.34,1.34 0,0.73 0.25,1.34 0.75,1.84 0.5,0.5 1.1,0.75 1.81,0.75 0.47,0 0.91,-0.12 1.31,-0.34 0.4,-0.23 0.71,-0.54 0.94,-0.94 0.22,-0.4 0.34,-0.84 0.34,-1.33 0,-0.49 -0.11,-0.92 -0.34,-1.32 -0.22,-0.39 -0.54,-0.71 -0.95,-0.94 -0.41,-0.24 -0.84,-0.35 -1.3,-0.35z"/>
  <polygon id="25" class="fil0" points="67.67,16.88 68.52,10.77 68.64,10.77 71.11,15.79 73.57,10.77 73.66,10.77 74.54,16.88 73.95,16.88 73.34,12.51 71.19,16.88 71.03,16.88 68.85,12.47 68.27,16.88 "/>
  <polygon id="26" class="fil0" points="80.5,16.88 79.87,16.88 79.87,12.19 75.86,16.88 75.72,16.88 75.72,10.77 76.33,10.77 76.33,15.54 80.37,10.77 80.5,10.77 "/>
  <polygon id="27" class="fil0" points="81.37,11.37 81.37,10.77 84.7,10.77 84.7,11.37 83.34,11.37 83.34,16.88 82.73,16.88 82.73,11.37 "/>
  <path id="28" class="fil0" d="M85.58 10.77l0.61 0 0 2.62 0.44 0c0.8,0 1.37,0.04 1.71,0.12 0.35,0.08 0.63,0.26 0.84,0.53 0.21,0.28 0.32,0.64 0.32,1.08 0,0.43 -0.1,0.79 -0.31,1.07 -0.21,0.28 -0.47,0.47 -0.79,0.56 -0.32,0.09 -0.86,0.13 -1.61,0.13l-1.21 0 0 -6.11zm0.61 5.52l0.65 0c0.68,0 1.13,-0.03 1.34,-0.1 0.21,-0.07 0.37,-0.19 0.5,-0.36 0.12,-0.18 0.18,-0.4 0.18,-0.68 0,-0.31 -0.08,-0.55 -0.23,-0.74 -0.16,-0.19 -0.35,-0.31 -0.59,-0.35 -0.24,-0.04 -0.68,-0.06 -1.33,-0.06l-0.51 0 0 2.3z"/>
  <path id="29" class="fil0" d="M93.06 10.77l1.2 0c0.48,0 0.85,0.06 1.11,0.17 0.26,0.11 0.46,0.29 0.61,0.53 0.15,0.24 0.23,0.5 0.23,0.79 0,0.27 -0.07,0.52 -0.2,0.74 -0.13,0.22 -0.32,0.4 -0.58,0.54 0.32,0.11 0.56,0.23 0.73,0.38 0.17,0.14 0.3,0.32 0.4,0.53 0.09,0.21 0.14,0.43 0.14,0.67 0,0.49 -0.18,0.91 -0.53,1.25 -0.36,0.34 -0.84,0.51 -1.44,0.51l-1.67 0 0 -6.11zm0.59 0.6l0 1.96 0.35 0c0.42,0 0.73,-0.04 0.93,-0.12 0.2,-0.08 0.36,-0.2 0.47,-0.37 0.12,-0.17 0.18,-0.36 0.18,-0.57 0,-0.28 -0.1,-0.5 -0.29,-0.66 -0.2,-0.16 -0.51,-0.24 -0.93,-0.24l-0.71 0zm0 2.57l0 2.35 0.75 0c0.44,0 0.77,-0.04 0.98,-0.13 0.21,-0.09 0.37,-0.23 0.5,-0.41 0.13,-0.19 0.19,-0.39 0.19,-0.6 0,-0.27 -0.09,-0.51 -0.27,-0.71 -0.18,-0.2 -0.42,-0.34 -0.73,-0.42 -0.21,-0.05 -0.57,-0.08 -1.08,-0.08l-0.34 0z"/>
  <path id="30" class="fil0" d="M100.39 10.77l2.84 6.11 -0.65 0 -0.95 -2.01 -2.63 0 -0.94 2.01 -0.68 0 2.87 -6.11 0.15 0zm-0.08 1.28l-1.05 2.23 2.09 0 -1.04 -2.23z"/>
  <path id="31" class="fil0" d="M109.83 11.9l-0.48 0.37c-0.26,-0.35 -0.58,-0.61 -0.95,-0.79 -0.37,-0.18 -0.78,-0.27 -1.22,-0.27 -0.48,0 -0.93,0.12 -1.35,0.35 -0.41,0.23 -0.73,0.55 -0.96,0.94 -0.23,0.39 -0.34,0.84 -0.34,1.33 0,0.75 0.25,1.37 0.76,1.87 0.51,0.5 1.15,0.75 1.92,0.75 0.85,0 1.56,-0.33 2.13,-1l0.48 0.37c-0.3,0.39 -0.68,0.69 -1.13,0.9 -0.45,0.21 -0.96,0.32 -1.52,0.32 -1.06,0 -1.9,-0.36 -2.52,-1.07 -0.51,-0.6 -0.77,-1.33 -0.77,-2.18 0,-0.89 0.31,-1.65 0.94,-2.26 0.62,-0.61 1.41,-0.92 2.35,-0.92 0.57,0 1.08,0.11 1.54,0.34 0.46,0.23 0.83,0.54 1.12,0.95z"/>
  <path id="32" class="fil0" d="M119.05 11.9l-0.48 0.37c-0.26,-0.35 -0.58,-0.61 -0.95,-0.79 -0.37,-0.18 -0.78,-0.27 -1.22,-0.27 -0.48,0 -0.93,0.12 -1.35,0.35 -0.41,0.23 -0.73,0.55 -0.96,0.94 -0.23,0.39 -0.34,0.84 -0.34,1.33 0,0.75 0.25,1.37 0.76,1.87 0.51,0.5 1.15,0.75 1.92,0.75 0.85,0 1.56,-0.33 2.13,-1l0.48 0.37c-0.3,0.39 -0.68,0.69 -1.13,0.9 -0.45,0.21 -0.96,0.32 -1.52,0.32 -1.06,0 -1.9,-0.36 -2.52,-1.07 -0.51,-0.6 -0.77,-1.33 -0.77,-2.18 0,-0.89 0.31,-1.65 0.93,-2.26 0.62,-0.61 1.41,-0.92 2.35,-0.92 0.57,0 1.08,0.11 1.54,0.34 0.46,0.23 0.83,0.54 1.12,0.95z"/>
  <polygon id="33" class="fil0" points="122.61,10.77 123.23,10.77 123.23,13.06 125.66,10.77 126.48,10.77 123.55,13.51 126.71,16.88 125.9,16.88 123.23,14.03 123.23,16.88 122.61,16.88 "/>
  <path id="34" class="fil0" d="M130.51 10.62c0.92,0 1.69,0.31 2.31,0.93 0.62,0.62 0.93,1.38 0.93,2.28 0,0.9 -0.31,1.65 -0.93,2.28 -0.62,0.62 -1.37,0.94 -2.26,0.94 -0.9,0 -1.66,-0.31 -2.28,-0.93 -0.62,-0.62 -0.93,-1.37 -0.93,-2.25 0,-0.59 0.14,-1.13 0.42,-1.63 0.28,-0.5 0.67,-0.89 1.16,-1.18 0.49,-0.28 1.01,-0.43 1.58,-0.43zm0.03 0.6c-0.45,0 -0.87,0.12 -1.28,0.35 -0.4,0.24 -0.72,0.55 -0.94,0.95 -0.23,0.4 -0.34,0.84 -0.34,1.34 0,0.73 0.25,1.34 0.75,1.84 0.5,0.5 1.1,0.75 1.81,0.75 0.47,0 0.91,-0.12 1.31,-0.34 0.4,-0.23 0.71,-0.54 0.94,-0.94 0.22,-0.4 0.34,-0.84 0.34,-1.33 0,-0.49 -0.11,-0.92 -0.34,-1.32 -0.22,-0.39 -0.54,-0.71 -0.95,-0.94 -0.41,-0.24 -0.84,-0.35 -1.3,-0.35z"/>
  <polygon id="35" class="fil0" points="134.37,11.37 134.37,10.77 137.69,10.77 137.69,11.37 136.34,11.37 136.34,16.88 135.72,16.88 135.72,11.37 "/>
  <path id="36" class="fil0" d="M141.47 10.62c0.92,0 1.69,0.31 2.31,0.93 0.62,0.62 0.93,1.38 0.93,2.28 0,0.9 -0.31,1.65 -0.93,2.28 -0.62,0.62 -1.37,0.94 -2.26,0.94 -0.9,0 -1.66,-0.31 -2.28,-0.93 -0.62,-0.62 -0.93,-1.37 -0.93,-2.25 0,-0.59 0.14,-1.13 0.42,-1.63 0.28,-0.5 0.67,-0.89 1.16,-1.18 0.49,-0.28 1.01,-0.43 1.58,-0.43zm0.03 0.6c-0.45,0 -0.87,0.12 -1.28,0.35 -0.4,0.24 -0.72,0.55 -0.94,0.95 -0.23,0.4 -0.34,0.84 -0.34,1.34 0,0.73 0.25,1.34 0.75,1.84 0.5,0.5 1.1,0.75 1.81,0.75 0.47,0 0.91,-0.12 1.31,-0.34 0.4,-0.23 0.72,-0.54 0.94,-0.94 0.22,-0.4 0.34,-0.84 0.34,-1.33 0,-0.49 -0.11,-0.92 -0.34,-1.32 -0.22,-0.39 -0.54,-0.71 -0.95,-0.94 -0.41,-0.24 -0.84,-0.35 -1.3,-0.35z"/>
  <polygon id="37" class="fil0" points="145.66,16.88 146.5,10.77 146.63,10.77 149.1,15.79 151.56,10.77 151.65,10.77 152.53,16.88 151.94,16.88 151.33,12.51 149.18,16.88 149.02,16.88 146.84,12.47 146.26,16.88 "/>
  <polygon id="38" class="fil0" points="155.58,14.33 157.85,14.33 157.85,14.84 155.58,14.84 "/>
  <polygon id="39" class="fil0" points="0.62,21.39 4.1,21.39 4.1,21.98 1.23,21.98 1.23,23.9 4.07,23.9 4.07,24.49 1.23,24.49 1.23,26.9 4.07,26.9 4.07,27.5 0.62,27.5 "/>
  <polygon id="40" class="fil0" points="5.75,27.5 5.14,27.5 5.14,21.39 8.18,21.39 8.18,21.98 5.75,21.98 "/>
  <path id="41" class="fil0" d="M11.95 21.23c0.92,0 1.69,0.31 2.31,0.93 0.62,0.62 0.93,1.38 0.93,2.28 0,0.9 -0.31,1.65 -0.93,2.28 -0.62,0.62 -1.37,0.94 -2.26,0.94 -0.9,0 -1.66,-0.31 -2.28,-0.93 -0.62,-0.62 -0.93,-1.37 -0.93,-2.25 0,-0.59 0.14,-1.13 0.42,-1.63 0.28,-0.5 0.67,-0.89 1.16,-1.18 0.49,-0.28 1.01,-0.43 1.58,-0.43zm0.03 0.6c-0.45,0 -0.87,0.12 -1.28,0.35 -0.4,0.24 -0.72,0.55 -0.94,0.95 -0.23,0.4 -0.34,0.84 -0.34,1.34 0,0.73 0.25,1.34 0.75,1.84 0.5,0.5 1.1,0.75 1.81,0.75 0.47,0 0.91,-0.12 1.31,-0.34 0.4,-0.23 0.71,-0.54 0.94,-0.94 0.22,-0.4 0.34,-0.84 0.34,-1.33 0,-0.49 -0.11,-0.92 -0.34,-1.32 -0.22,-0.39 -0.54,-0.71 -0.95,-0.94 -0.41,-0.24 -0.84,-0.35 -1.3,-0.35z"/>
  <path id="42" class="fil0" d="M18.88 21.98c0.43,-0.5 0.95,-0.75 1.58,-0.75 0.5,0 0.91,0.14 1.24,0.43 0.33,0.29 0.49,0.66 0.49,1.12 0,0.65 -0.3,1.12 -0.91,1.4 0.8,0.25 1.2,0.79 1.2,1.62 0,0.55 -0.18,1 -0.54,1.34 -0.36,0.34 -0.85,0.51 -1.47,0.51 -0.44,0 -0.82,-0.09 -1.14,-0.27 -0.32,-0.18 -0.62,-0.5 -0.91,-0.95l0.47 -0.28c0.28,0.42 0.55,0.68 0.79,0.8 0.25,0.12 0.5,0.18 0.77,0.18 0.39,0 0.72,-0.11 0.99,-0.34 0.27,-0.22 0.41,-0.55 0.41,-0.99 0,-0.23 -0.05,-0.43 -0.14,-0.6 -0.09,-0.17 -0.22,-0.31 -0.39,-0.41 -0.17,-0.11 -0.33,-0.17 -0.48,-0.2 -0.15,-0.03 -0.4,-0.04 -0.75,-0.04l-0.1 0 0 -0.54 0.2 0c0.9,0 1.35,-0.37 1.35,-1.1 0,-0.34 -0.1,-0.61 -0.31,-0.81 -0.21,-0.2 -0.47,-0.3 -0.78,-0.3 -0.41,0 -0.79,0.19 -1.15,0.56l-0.42 -0.37z"/>
  <path id="43" class="fil0" d="M26.57 21.23c0.92,0 1.69,0.31 2.31,0.93 0.62,0.62 0.93,1.38 0.93,2.28 0,0.9 -0.31,1.65 -0.93,2.28 -0.62,0.62 -1.37,0.94 -2.26,0.94 -0.9,0 -1.66,-0.31 -2.28,-0.93 -0.62,-0.62 -0.93,-1.37 -0.93,-2.25 0,-0.59 0.14,-1.13 0.42,-1.63 0.28,-0.5 0.67,-0.89 1.15,-1.18 0.49,-0.28 1.01,-0.43 1.58,-0.43zm0.03 0.6c-0.45,0 -0.87,0.12 -1.28,0.35 -0.4,0.24 -0.72,0.55 -0.94,0.95 -0.23,0.4 -0.34,0.84 -0.34,1.34 0,0.73 0.25,1.34 0.75,1.84 0.5,0.5 1.1,0.75 1.81,0.75 0.47,0 0.91,-0.12 1.31,-0.34 0.4,-0.23 0.71,-0.54 0.94,-0.94 0.22,-0.4 0.34,-0.84 0.34,-1.33 0,-0.49 -0.11,-0.92 -0.34,-1.32 -0.22,-0.39 -0.54,-0.71 -0.95,-0.94 -0.41,-0.24 -0.84,-0.35 -1.3,-0.35z"/>
  <path id="44" class="fil0" d="M31.04 21.39l1.2 0c0.48,0 0.85,0.06 1.11,0.17 0.26,0.11 0.46,0.29 0.61,0.53 0.15,0.24 0.23,0.5 0.23,0.79 0,0.27 -0.07,0.52 -0.2,0.74 -0.13,0.22 -0.32,0.4 -0.58,0.54 0.32,0.11 0.56,0.23 0.73,0.38 0.17,0.14 0.3,0.32 0.4,0.53 0.09,0.21 0.14,0.43 0.14,0.67 0,0.49 -0.18,0.91 -0.53,1.25 -0.36,0.34 -0.84,0.51 -1.44,0.51l-1.67 0 0 -6.11zm0.59 0.6l0 1.96 0.35 0c0.42,0 0.73,-0.04 0.93,-0.12 0.2,-0.08 0.36,-0.2 0.47,-0.37 0.12,-0.17 0.18,-0.36 0.18,-0.57 0,-0.28 -0.1,-0.5 -0.29,-0.66 -0.2,-0.16 -0.51,-0.24 -0.93,-0.24l-0.71 0zm0 2.57l0 2.35 0.75 0c0.44,0 0.77,-0.04 0.98,-0.13 0.21,-0.09 0.37,-0.23 0.5,-0.41 0.13,-0.19 0.19,-0.39 0.19,-0.6 0,-0.27 -0.09,-0.51 -0.27,-0.71 -0.18,-0.2 -0.42,-0.34 -0.73,-0.42 -0.21,-0.05 -0.57,-0.08 -1.08,-0.08l-0.34 0z"/>
  <path id="45" class="fil0" d="M35.42 21.4l0.68 0 1.85 4.15 1.68 -4.17 0.67 0 -2.31 5.49c-0.21,0.52 -0.6,0.77 -1.14,0.77 -0.22,0 -0.43,-0.05 -0.62,-0.13 -0.2,-0.09 -0.44,-0.3 -0.74,-0.64l0.44 -0.37c0.3,0.3 0.51,0.47 0.61,0.52 0.1,0.04 0.21,0.06 0.31,0.06 0.16,0 0.3,-0.04 0.41,-0.13 0.12,-0.09 0.25,-0.3 0.38,-0.64l-2.22 -4.92z"/>
  <polygon id="46" class="fil0" points="40.75,21.98 40.75,21.39 44.07,21.39 44.07,21.98 42.72,21.98 42.72,27.5 42.1,27.5 42.1,21.98 "/>
  <polygon id="47" class="fil0" points="47.29,21.39 51.6,21.39 51.6,27.5 50.99,27.5 50.99,21.97 47.9,21.97 47.9,27.5 47.29,27.5 "/>
  <path id="48" class="fil0" d="M55.97 21.23c0.92,0 1.69,0.31 2.31,0.93 0.62,0.62 0.93,1.38 0.93,2.28 0,0.9 -0.31,1.65 -0.93,2.28 -0.62,0.62 -1.37,0.94 -2.26,0.94 -0.9,0 -1.66,-0.31 -2.28,-0.93 -0.62,-0.62 -0.93,-1.37 -0.93,-2.25 0,-0.59 0.14,-1.13 0.42,-1.63 0.28,-0.5 0.67,-0.89 1.16,-1.18 0.49,-0.28 1.01,-0.43 1.58,-0.43zm0.03 0.6c-0.45,0 -0.87,0.12 -1.28,0.35 -0.4,0.24 -0.72,0.55 -0.94,0.95 -0.23,0.4 -0.34,0.84 -0.34,1.34 0,0.73 0.25,1.34 0.75,1.84 0.5,0.5 1.1,0.75 1.81,0.75 0.47,0 0.91,-0.12 1.31,-0.34 0.4,-0.23 0.72,-0.54 0.94,-0.94 0.22,-0.4 0.34,-0.84 0.34,-1.33 0,-0.49 -0.11,-0.92 -0.34,-1.32 -0.22,-0.39 -0.54,-0.71 -0.95,-0.94 -0.41,-0.24 -0.84,-0.35 -1.3,-0.35z"/>
  <path id="49" class="fil0" d="M60.43 28.41l-0.61 0 0 -1.48 0.49 0 2.38 -5.54 0.21 0 2.52 5.54 0.47 0 0 1.48 -0.61 0 0 -0.91 -4.85 0 0 0.91zm0.56 -1.48l3.71 0 -1.9 -4.27 -1.81 4.27z"/>
  <path id="50" class="fil0" d="M69.25 21.39l2.84 6.11 -0.65 0 -0.95 -2.01 -2.63 0 -0.94 2.01 -0.68 0 2.87 -6.11 0.15 0zm-0.08 1.28l-1.05 2.23 2.09 0 -1.04 -2.23z"/>
  <path id="51" class="fil0" d="M73.02 21.39l1.21 0c0.69,0 1.16,0.03 1.41,0.09 0.35,0.09 0.63,0.26 0.85,0.53 0.22,0.27 0.33,0.6 0.33,1.01 0,0.41 -0.11,0.74 -0.32,1.01 -0.21,0.26 -0.51,0.44 -0.89,0.53 -0.28,0.07 -0.79,0.1 -1.55,0.1l-0.43 0 0 2.84 -0.61 0 0 -6.11zm0.61 0.6l0 2.08 1.03 0.01c0.42,0 0.72,-0.04 0.91,-0.12 0.19,-0.08 0.35,-0.2 0.46,-0.37 0.11,-0.17 0.17,-0.36 0.17,-0.57 0,-0.2 -0.06,-0.39 -0.17,-0.56 -0.11,-0.17 -0.26,-0.29 -0.44,-0.36 -0.18,-0.07 -0.48,-0.11 -0.89,-0.11l-1.07 0z"/>
  <path id="52" class="fil0" d="M80.93 21.23c0.92,0 1.69,0.31 2.31,0.93 0.62,0.62 0.93,1.38 0.93,2.28 0,0.9 -0.31,1.65 -0.93,2.28 -0.62,0.62 -1.37,0.94 -2.26,0.94 -0.9,0 -1.66,-0.31 -2.28,-0.93 -0.62,-0.62 -0.93,-1.37 -0.93,-2.25 0,-0.59 0.14,-1.13 0.42,-1.63 0.28,-0.5 0.67,-0.89 1.16,-1.18 0.49,-0.28 1.01,-0.43 1.58,-0.43zm0.03 0.6c-0.45,0 -0.87,0.12 -1.28,0.35 -0.4,0.24 -0.72,0.55 -0.94,0.95 -0.23,0.4 -0.34,0.84 -0.34,1.34 0,0.73 0.25,1.34 0.75,1.84 0.5,0.5 1.1,0.75 1.81,0.75 0.47,0 0.91,-0.12 1.31,-0.34 0.4,-0.23 0.71,-0.54 0.94,-0.94 0.22,-0.4 0.34,-0.84 0.34,-1.33 0,-0.49 -0.11,-0.92 -0.34,-1.32 -0.22,-0.39 -0.54,-0.71 -0.95,-0.94 -0.41,-0.24 -0.84,-0.35 -1.3,-0.35z"/>
  <polygon id="53" class="fil0" points="85.39,21.39 86,21.39 86,23.68 88.44,21.39 89.26,21.39 86.33,24.13 89.49,27.5 88.68,27.5 86,24.65 86,27.5 85.39,27.5 "/>
  <path id="54" class="fil0" d="M90.93 26.58c0.14,0 0.26,0.05 0.36,0.15 0.1,0.1 0.15,0.22 0.15,0.37 0,0.14 -0.05,0.26 -0.15,0.36 -0.1,0.1 -0.22,0.15 -0.36,0.15 -0.14,0 -0.26,-0.05 -0.36,-0.15 -0.1,-0.1 -0.15,-0.22 -0.15,-0.36 0,-0.14 0.05,-0.27 0.15,-0.37 0.1,-0.1 0.22,-0.15 0.36,-0.15z"/>
  <path id="55" class="fil0" d="M3.51 31.85c0.92,0 1.69,0.31 2.31,0.93 0.62,0.62 0.93,1.38 0.93,2.28 0,0.9 -0.31,1.65 -0.93,2.28 -0.62,0.62 -1.37,0.94 -2.26,0.94 -0.9,0 -1.66,-0.31 -2.28,-0.93 -0.62,-0.62 -0.93,-1.37 -0.93,-2.25 0,-0.59 0.14,-1.13 0.42,-1.63 0.28,-0.5 0.67,-0.89 1.16,-1.18 0.49,-0.28 1.01,-0.43 1.58,-0.43zm0.03 0.6c-0.45,0 -0.87,0.12 -1.28,0.35 -0.4,0.24 -0.72,0.55 -0.94,0.95 -0.23,0.4 -0.34,0.84 -0.34,1.34 0,0.73 0.25,1.34 0.75,1.84 0.5,0.5 1.1,0.75 1.81,0.75 0.47,0 0.91,-0.12 1.31,-0.34 0.4,-0.23 0.72,-0.54 0.94,-0.94 0.22,-0.4 0.34,-0.84 0.34,-1.33 0,-0.49 -0.11,-0.92 -0.34,-1.32 -0.22,-0.39 -0.54,-0.71 -0.95,-0.94 -0.41,-0.24 -0.84,-0.35 -1.3,-0.35z"/>
  <polygon id="56" class="fil0" points="7.96,32 8.57,32 8.57,34.57 11.66,34.57 11.66,32 12.27,32 12.27,38.12 11.66,38.12 11.66,35.16 8.57,35.16 8.57,38.12 7.96,38.12 "/>
  <path id="57" class="fil0" d="M16.11 32l1.2 0c0.48,0 0.85,0.06 1.11,0.17 0.26,0.11 0.46,0.29 0.61,0.53 0.15,0.24 0.23,0.5 0.23,0.79 0,0.27 -0.07,0.52 -0.2,0.74 -0.13,0.22 -0.32,0.4 -0.58,0.54 0.32,0.11 0.56,0.23 0.73,0.38 0.17,0.14 0.3,0.32 0.4,0.53 0.09,0.21 0.14,0.43 0.14,0.67 0,0.49 -0.18,0.91 -0.53,1.25 -0.36,0.34 -0.84,0.51 -1.44,0.51l-1.67 0 0 -6.11zm0.59 0.6l0 1.96 0.35 0c0.42,0 0.73,-0.04 0.93,-0.12 0.2,-0.08 0.36,-0.2 0.47,-0.37 0.12,-0.17 0.18,-0.36 0.18,-0.57 0,-0.28 -0.1,-0.5 -0.29,-0.66 -0.2,-0.16 -0.51,-0.24 -0.93,-0.24l-0.71 0zm0 2.57l0 2.35 0.75 0c0.44,0 0.77,-0.04 0.98,-0.13 0.21,-0.09 0.37,-0.23 0.5,-0.41 0.13,-0.19 0.19,-0.39 0.19,-0.6 0,-0.27 -0.09,-0.51 -0.27,-0.71 -0.18,-0.2 -0.42,-0.34 -0.73,-0.42 -0.21,-0.05 -0.57,-0.08 -1.08,-0.08l-0.34 0z"/>
  <path id="58" class="fil0" d="M26.61 33.13l-0.48 0.37c-0.26,-0.35 -0.58,-0.61 -0.95,-0.79 -0.37,-0.18 -0.78,-0.27 -1.22,-0.27 -0.48,0 -0.93,0.12 -1.35,0.35 -0.41,0.23 -0.73,0.55 -0.96,0.94 -0.23,0.39 -0.34,0.84 -0.34,1.33 0,0.75 0.25,1.37 0.76,1.87 0.51,0.5 1.15,0.75 1.92,0.75 0.85,0 1.56,-0.33 2.13,-1l0.48 0.37c-0.3,0.39 -0.68,0.69 -1.13,0.9 -0.45,0.21 -0.96,0.32 -1.52,0.32 -1.06,0 -1.9,-0.36 -2.52,-1.07 -0.51,-0.6 -0.77,-1.33 -0.77,-2.18 0,-0.89 0.31,-1.65 0.94,-2.26 0.62,-0.61 1.41,-0.92 2.35,-0.92 0.57,0 1.08,0.11 1.54,0.34 0.46,0.23 0.83,0.54 1.12,0.95z"/>
  <polygon id="59" class="fil0" points="27.84,32 31.31,32 31.31,32.6 28.45,32.6 28.45,34.52 31.29,34.52 31.29,35.11 28.45,35.11 28.45,37.52 31.29,37.52 31.29,38.12 27.84,38.12 "/>
  <polygon id="60" class="fil0" points="32.97,38.12 32.36,38.12 32.36,32 35.4,32 35.4,32.6 32.97,32.6 "/>
  <path id="61" class="fil0" d="M36.27 39.03l-0.61 0 0 -1.48 0.49 0 2.38 -5.54 0.21 0 2.52 5.54 0.47 0 0 1.48 -0.61 0 0 -0.91 -4.85 0 0 0.91zm0.56 -1.48l3.71 0 -1.9 -4.27 -1.81 4.27z"/>
  <path id="62" class="fil0" d="M45.09 32l2.83 6.11 -0.65 0 -0.95 -2.01 -2.63 0 -0.94 2.01 -0.68 0 2.87 -6.11 0.15 0zm-0.08 1.28l-1.04 2.23 2.09 0 -1.04 -2.23z"/>
  <path id="63" class="fil0" d="M51.21 38.12l0 -6.11 3.05 0 0 0.6 -2.44 0 0 1.96 0.28 0c0.75,0 1.3,0.07 1.64,0.2 0.34,0.13 0.61,0.35 0.81,0.64 0.2,0.29 0.29,0.61 0.29,0.97 0,0.47 -0.17,0.87 -0.52,1.23 -0.35,0.35 -0.83,0.53 -1.45,0.53l-1.67 0zm0.61 -2.95l0 2.35 0.74 0c0.44,0 0.76,-0.04 0.97,-0.13 0.21,-0.09 0.37,-0.22 0.49,-0.4 0.12,-0.18 0.18,-0.39 0.18,-0.61 0,-0.28 -0.09,-0.52 -0.26,-0.72 -0.17,-0.2 -0.39,-0.33 -0.65,-0.39 -0.26,-0.06 -0.64,-0.09 -1.15,-0.09l-0.34 0z"/>
  <path id="64" class="fil0" d="M55.59 32.02l0.68 0 1.85 4.15 1.68 -4.17 0.67 0 -2.31 5.49c-0.21,0.52 -0.6,0.77 -1.14,0.77 -0.22,0 -0.43,-0.05 -0.62,-0.13 -0.2,-0.09 -0.44,-0.3 -0.74,-0.64l0.44 -0.37c0.3,0.3 0.51,0.47 0.61,0.52 0.1,0.04 0.21,0.06 0.31,0.06 0.16,0 0.3,-0.04 0.41,-0.13 0.12,-0.09 0.25,-0.3 0.39,-0.64l-2.22 -4.92z"/>
  <path id="65" class="fil0" d="M61.52 39.03l-0.61 0 0 -1.48 0.49 0 2.38 -5.54 0.21 0 2.52 5.54 0.47 0 0 1.48 -0.61 0 0 -0.91 -4.85 0 0 0.91zm0.56 -1.48l3.71 0 -1.9 -4.27 -1.81 4.27z"/>
  <polygon id="66" class="fil0" points="67.86,32 71.34,32 71.34,32.6 68.47,32.6 68.47,34.52 71.31,34.52 71.31,35.11 68.47,35.11 68.47,37.52 71.31,37.52 71.31,38.12 67.86,38.12 "/>
  <polygon id="67" class="fil0" points="71.79,32.6 71.79,32 75.11,32 75.11,32.6 73.76,32.6 73.76,38.12 73.14,38.12 73.14,32.6 "/>
  <path id="68" class="fil0" d="M83.99 33.13l-0.48 0.37c-0.26,-0.35 -0.58,-0.61 -0.95,-0.79 -0.37,-0.18 -0.78,-0.27 -1.22,-0.27 -0.48,0 -0.93,0.12 -1.35,0.35 -0.41,0.23 -0.73,0.55 -0.96,0.94 -0.23,0.39 -0.34,0.84 -0.34,1.33 0,0.75 0.25,1.37 0.76,1.87 0.51,0.5 1.15,0.75 1.92,0.75 0.85,0 1.56,-0.33 2.13,-1l0.48 0.37c-0.3,0.39 -0.68,0.69 -1.13,0.9 -0.45,0.21 -0.96,0.32 -1.52,0.32 -1.06,0 -1.9,-0.36 -2.52,-1.07 -0.51,-0.6 -0.77,-1.33 -0.77,-2.18 0,-0.89 0.31,-1.65 0.94,-2.26 0.62,-0.61 1.41,-0.92 2.35,-0.92 0.57,0 1.08,0.11 1.54,0.34 0.46,0.23 0.83,0.54 1.12,0.95z"/>
  <path id="69" class="fil0" d="M87.57 32l1.2 0c0.48,0 0.85,0.06 1.11,0.17 0.26,0.11 0.46,0.29 0.61,0.53 0.15,0.24 0.23,0.5 0.23,0.79 0,0.27 -0.07,0.52 -0.2,0.74 -0.13,0.22 -0.32,0.4 -0.58,0.54 0.32,0.11 0.56,0.23 0.73,0.38 0.17,0.14 0.3,0.32 0.4,0.53 0.09,0.21 0.14,0.43 0.14,0.67 0,0.49 -0.18,0.91 -0.53,1.25 -0.36,0.34 -0.84,0.51 -1.44,0.51l-1.67 0 0 -6.11zm0.59 0.6l0 1.96 0.35 0c0.42,0 0.73,-0.04 0.93,-0.12 0.2,-0.08 0.36,-0.2 0.47,-0.37 0.12,-0.17 0.18,-0.36 0.18,-0.57 0,-0.28 -0.1,-0.5 -0.29,-0.66 -0.2,-0.16 -0.51,-0.24 -0.93,-0.24l-0.71 0zm0 2.57l0 2.35 0.75 0c0.44,0 0.77,-0.04 0.98,-0.13 0.21,-0.09 0.37,-0.23 0.5,-0.41 0.13,-0.19 0.19,-0.39 0.19,-0.6 0,-0.27 -0.09,-0.51 -0.27,-0.71 -0.18,-0.2 -0.42,-0.34 -0.73,-0.42 -0.21,-0.05 -0.57,-0.08 -1.08,-0.08l-0.34 0z"/>
  <path id="70" class="fil0" d="M94.9 32l2.84 6.11 -0.65 0 -0.95 -2.01 -2.63 0 -0.94 2.01 -0.68 0 2.87 -6.11 0.15 0zm-0.08 1.28l-1.05 2.23 2.09 0 -1.04 -2.23z"/>
  <polygon id="71" class="fil0" points="98.41,38.12 99.25,32 99.38,32 101.85,37.02 104.31,32 104.4,32 105.28,38.12 104.69,38.12 104.08,33.74 101.93,38.12 101.77,38.12 99.59,33.71 99.01,38.12 "/>
  <polygon id="72" class="fil0" points="111.24,38.12 110.61,38.12 110.61,33.42 106.6,38.12 106.46,38.12 106.46,32 107.07,32 107.07,36.77 111.1,32 111.24,32 "/>
  <polygon id="73" class="fil0" points="0.6,42.62 1.21,42.62 1.21,45.18 4.31,45.18 4.31,42.62 4.92,42.62 4.92,48.73 4.31,48.73 4.31,45.78 1.21,45.78 1.21,48.73 0.6,48.73 "/>
  <path id="74" class="fil0" d="M8.88 42.62l2.83 6.11 -0.65 0 -0.95 -2.01 -2.63 0 -0.94 2.01 -0.68 0 2.87 -6.11 0.15 0zm-0.08 1.28l-1.05 2.23 2.09 0 -1.04 -2.23z"/>
  <path id="75" class="fil0" d="M20.65 43.75l-0.48 0.37c-0.26,-0.35 -0.58,-0.61 -0.95,-0.79 -0.37,-0.18 -0.78,-0.27 -1.22,-0.27 -0.48,0 -0.93,0.12 -1.35,0.35 -0.41,0.23 -0.73,0.55 -0.96,0.94 -0.23,0.39 -0.34,0.84 -0.34,1.33 0,0.75 0.25,1.37 0.76,1.87 0.51,0.5 1.15,0.75 1.92,0.75 0.85,0 1.56,-0.33 2.13,-1l0.48 0.37c-0.3,0.39 -0.68,0.69 -1.13,0.9 -0.45,0.21 -0.96,0.32 -1.52,0.32 -1.06,0 -1.9,-0.36 -2.52,-1.07 -0.51,-0.6 -0.77,-1.33 -0.77,-2.18 0,-0.89 0.31,-1.65 0.94,-2.26 0.62,-0.61 1.41,-0.92 2.35,-0.92 0.57,0 1.08,0.11 1.54,0.34 0.46,0.23 0.83,0.54 1.12,0.95z"/>
  <polygon id="76" class="fil0" points="21.27,43.22 21.27,42.62 24.6,42.62 24.6,43.22 23.24,43.22 23.24,48.73 22.63,48.73 22.63,43.22 "/>
  <path id="77" class="fil0" d="M25.48 42.62l1.21 0c0.69,0 1.16,0.03 1.41,0.09 0.35,0.09 0.63,0.26 0.85,0.53 0.22,0.27 0.33,0.6 0.33,1.01 0,0.41 -0.11,0.74 -0.32,1.01 -0.21,0.26 -0.51,0.44 -0.89,0.53 -0.28,0.07 -0.79,0.1 -1.55,0.1l-0.43 0 0 2.84 -0.61 0 0 -6.11zm0.61 0.6l0 2.08 1.03 0.01c0.42,0 0.72,-0.04 0.91,-0.12 0.19,-0.08 0.35,-0.2 0.46,-0.37 0.11,-0.17 0.17,-0.36 0.17,-0.57 0,-0.2 -0.06,-0.39 -0.17,-0.56 -0.11,-0.17 -0.26,-0.29 -0.44,-0.36 -0.18,-0.07 -0.48,-0.11 -0.89,-0.11l-1.07 0z"/>
  <path id="78" class="fil0" d="M32.97 42.62l2.84 6.11 -0.65 0 -0.95 -2.01 -2.63 0 -0.94 2.01 -0.68 0 2.87 -6.11 0.15 0zm-0.08 1.28l-1.05 2.23 2.09 0 -1.04 -2.23z"/>
  <polygon id="79" class="fil0" points="36.74,42.62 37.35,42.62 37.35,45.18 40.44,45.18 40.44,42.62 41.05,42.62 41.05,48.73 40.44,48.73 40.44,45.78 37.35,45.78 37.35,48.73 36.74,48.73 "/>
  <polygon id="80" class="fil0" points="47.32,48.73 46.68,48.73 46.68,44.04 42.67,48.73 42.53,48.73 42.53,42.62 43.14,42.62 43.14,47.39 47.18,42.62 47.32,42.62 "/>
  <polygon id="81" class="fil0" points="53.29,48.73 48.78,48.73 48.78,42.62 49.39,42.62 49.39,48.16 52.2,48.16 52.2,42.62 52.81,42.62 52.81,48.16 53.85,48.16 53.85,49.65 53.29,49.65 "/>
  <path id="82" class="fil0" d="M57.26 42.62l2.84 6.11 -0.65 0 -0.95 -2.01 -2.63 0 -0.94 2.01 -0.68 0 2.87 -6.11 0.15 0zm-0.08 1.28l-1.05 2.23 2.09 0 -1.04 -2.23z"/>
  <polygon id="83" class="fil0" points="60.72,42.62 61.43,42.62 62.88,44.99 64.34,42.62 65.05,42.62 63.24,45.57 65.17,48.73 64.46,48.73 62.88,46.15 61.29,48.73 60.58,48.73 62.53,45.57 "/>
  <path id="84" class="fil0" d="M73.52 45.95l-2.87 0 0 -0.6 2.84 0c-0.05,-0.7 -0.34,-1.26 -0.86,-1.67 -0.52,-0.41 -1.1,-0.62 -1.73,-0.62 -0.92,0 -1.64,0.35 -2.17,1.06l-0.48 -0.36c0.27,-0.4 0.65,-0.71 1.11,-0.94 0.47,-0.23 0.98,-0.34 1.55,-0.34 0.93,0 1.71,0.31 2.34,0.91 0.63,0.61 0.94,1.36 0.94,2.26 0,0.91 -0.3,1.67 -0.89,2.3 -0.59,0.63 -1.39,0.94 -2.39,0.94 -1.14,0 -2.02,-0.41 -2.66,-1.22l0.48 -0.37c0.57,0.67 1.28,1.01 2.13,1.01 0.65,0 1.23,-0.19 1.74,-0.58 0.5,-0.38 0.81,-0.98 0.92,-1.78z"/>
  <polygon id="85" class="fil0" points="74.81,43.22 74.81,42.62 78.14,42.62 78.14,43.22 76.78,43.22 76.78,48.73 76.16,48.73 76.16,43.22 "/>
  <path id="86" class="fil0" d="M81.91 42.47c0.92,0 1.69,0.31 2.31,0.93 0.62,0.62 0.93,1.38 0.93,2.28 0,0.9 -0.31,1.65 -0.93,2.28 -0.62,0.62 -1.37,0.94 -2.26,0.94 -0.9,0 -1.66,-0.31 -2.28,-0.93 -0.62,-0.62 -0.93,-1.37 -0.93,-2.25 0,-0.59 0.14,-1.13 0.42,-1.63 0.28,-0.5 0.67,-0.89 1.16,-1.18 0.49,-0.28 1.01,-0.43 1.58,-0.43zm0.03 0.6c-0.45,0 -0.87,0.12 -1.28,0.35 -0.4,0.24 -0.72,0.55 -0.94,0.95 -0.23,0.4 -0.34,0.84 -0.34,1.34 0,0.73 0.25,1.34 0.75,1.84 0.5,0.5 1.1,0.75 1.81,0.75 0.47,0 0.91,-0.12 1.31,-0.34 0.4,-0.23 0.71,-0.54 0.94,-0.94 0.22,-0.4 0.34,-0.84 0.34,-1.33 0,-0.49 -0.11,-0.92 -0.34,-1.32 -0.22,-0.39 -0.54,-0.71 -0.95,-0.94 -0.41,-0.24 -0.84,-0.35 -1.3,-0.35z"/>
  <path id="87" class="fil0" d="M91.16 48.73l-0.63 0 0 -4.7 -4.01 4.7 -0.14 0 0 -6.11 0.61 0 0 4.77 4.04 -4.77 0.14 0 0 6.11zm-3.85 -7.59l0.54 0c0.09,0.14 0.22,0.25 0.38,0.33 0.16,0.07 0.35,0.11 0.56,0.11 0.22,0 0.4,-0.03 0.54,-0.1 0.14,-0.06 0.26,-0.18 0.38,-0.34l0.52 0c-0.06,0.25 -0.22,0.46 -0.46,0.63 -0.25,0.17 -0.58,0.25 -0.99,0.25 -0.4,0 -0.73,-0.08 -0.99,-0.25 -0.26,-0.16 -0.42,-0.37 -0.49,-0.63z"/>
  <polygon id="88" class="fil0" points="95.57,48.73 94.96,48.73 94.96,42.62 98.01,42.62 98.01,43.22 95.57,43.22 "/>
  <path id="89" class="fil0" d="M101.37 42.62l2.83 6.11 -0.65 0 -0.95 -2.01 -2.63 0 -0.94 2.01 -0.68 0 2.87 -6.11 0.15 0zm-0.08 1.28l-1.05 2.23 2.09 0 -1.04 -2.23z"/>
  <path id="90" class="fil0" d="M105.27 43.21c0.43,-0.5 0.95,-0.75 1.58,-0.75 0.5,0 0.91,0.14 1.24,0.43 0.33,0.29 0.49,0.66 0.49,1.12 0,0.65 -0.3,1.12 -0.91,1.4 0.8,0.25 1.2,0.79 1.2,1.62 0,0.55 -0.18,1 -0.54,1.34 -0.36,0.34 -0.85,0.51 -1.47,0.51 -0.44,0 -0.82,-0.09 -1.14,-0.27 -0.32,-0.18 -0.62,-0.5 -0.91,-0.95l0.47 -0.28c0.28,0.42 0.55,0.68 0.79,0.8 0.25,0.12 0.5,0.18 0.77,0.18 0.39,0 0.72,-0.11 0.99,-0.34 0.27,-0.22 0.41,-0.55 0.41,-0.99 0,-0.23 -0.05,-0.43 -0.14,-0.6 -0.09,-0.17 -0.22,-0.31 -0.39,-0.41 -0.17,-0.11 -0.33,-0.17 -0.48,-0.2 -0.15,-0.03 -0.4,-0.04 -0.75,-0.04l-0.1 0 0 -0.54 0.2 0c0.9,0 1.35,-0.37 1.35,-1.1 0,-0.34 -0.1,-0.61 -0.31,-0.81 -0.21,-0.2 -0.47,-0.3 -0.78,-0.3 -0.41,0 -0.79,0.19 -1.15,0.56l-0.42 -0.37z"/>
  <polygon id="91" class="fil0" points="110.06,42.62 113.54,42.62 113.54,43.22 110.67,43.22 110.67,45.13 113.52,45.13 113.52,45.73 110.67,45.73 110.67,48.14 113.52,48.14 113.52,48.73 110.06,48.73 "/>
  <polygon id="92" class="fil0" points="113.99,43.22 113.99,42.62 117.32,42.62 117.32,43.22 115.96,43.22 115.96,48.73 115.35,48.73 115.35,43.22 "/>
  <path id="93" class="fil0" d="M118.2 42.62l0.61 0 0 2.62 0.44 0c0.8,0 1.37,0.04 1.71,0.12 0.35,0.08 0.63,0.26 0.84,0.53 0.21,0.28 0.32,0.64 0.32,1.08 0,0.43 -0.1,0.79 -0.31,1.07 -0.21,0.28 -0.47,0.47 -0.79,0.56 -0.32,0.09 -0.86,0.13 -1.61,0.13l-1.21 0 0 -6.11zm0.61 5.52l0.65 0c0.68,0 1.13,-0.03 1.34,-0.1 0.21,-0.07 0.37,-0.19 0.5,-0.36 0.12,-0.18 0.18,-0.4 0.18,-0.68 0,-0.31 -0.08,-0.55 -0.23,-0.74 -0.16,-0.19 -0.35,-0.31 -0.59,-0.35 -0.24,-0.04 -0.68,-0.06 -1.33,-0.06l-0.51 0 0 2.3zm4.02 -5.52l0.61 0 0 6.11 -0.61 0 0 -6.11z"/>
  <path id="94" class="fil0" d="M125.45 47.81c0.14,0 0.26,0.05 0.36,0.15 0.1,0.1 0.15,0.22 0.15,0.37 0,0.14 -0.05,0.26 -0.15,0.36 -0.1,0.1 -0.22,0.15 -0.36,0.15 -0.14,0 -0.26,-0.05 -0.36,-0.15 -0.1,-0.1 -0.15,-0.22 -0.15,-0.36 0,-0.14 0.05,-0.27 0.15,-0.37 0.1,-0.1 0.22,-0.15 0.36,-0.15z"/>
 </g>
</svg>
