<?xml version="1.0" encoding="UTF-8"?>
<!DOCTYPE svg PUBLIC "-//W3C//DTD SVG 1.1//EN" "http://www.w3.org/Graphics/SVG/1.1/DTD/svg11.dtd">
<!-- Creator: CorelDRAW -->
<svg xmlns="http://www.w3.org/2000/svg" xml:space="preserve" width="22.0453mm" height="12.2419mm" version="1.1" style="shape-rendering:geometricPrecision; text-rendering:geometricPrecision; image-rendering:optimizeQuality; fill-rule:evenodd; clip-rule:evenodd"
viewBox="0 0 39.81 22.11"
 xmlns:xlink="http://www.w3.org/1999/xlink"
 xmlns:xodm="http://www.corel.com/coreldraw/odm/2003">
 <defs>
  <style type="text/css">
   <![CDATA[
    .fil0 {fill:#656554;fill-rule:nonzero}
   ]]>
  </style>
 </defs>
 <g id="Слой_x0020_1">
  <metadata id="CorelCorpID_0Corel-Layer"/>
  <polygon class="fil0" points="3.01,3.41 2.64,3.41 1.51,0.77 0.37,3.41 -0,3.41 1.48,0 1.55,0 "/>
  <path id="_1" class="fil0" d="M5.64 2.58l0.27 0.14c-0.09,0.17 -0.19,0.32 -0.31,0.42 -0.12,0.11 -0.25,0.19 -0.4,0.25 -0.15,0.06 -0.31,0.08 -0.5,0.08 -0.41,0 -0.73,-0.13 -0.96,-0.4 -0.23,-0.27 -0.35,-0.57 -0.35,-0.91 0,-0.32 0.1,-0.6 0.29,-0.85 0.25,-0.32 0.58,-0.48 1,-0.48 0.43,0 0.77,0.16 1.03,0.49 0.18,0.23 0.27,0.52 0.28,0.86l-2.27 0c0.01,0.29 0.1,0.53 0.28,0.72 0.18,0.19 0.4,0.28 0.67,0.28 0.13,0 0.25,-0.02 0.37,-0.07 0.12,-0.04 0.22,-0.1 0.31,-0.18 0.09,-0.07 0.18,-0.19 0.28,-0.36zm0 -0.68c-0.04,-0.17 -0.11,-0.31 -0.19,-0.42 -0.08,-0.1 -0.19,-0.19 -0.33,-0.25 -0.14,-0.06 -0.28,-0.09 -0.43,-0.09 -0.25,0 -0.46,0.08 -0.64,0.24 -0.13,0.12 -0.23,0.29 -0.3,0.52l1.88 0z"/>
  <polygon id="_2" class="fil0" points="6.31,0.89 7.96,0.89 7.96,1.17 7.3,1.17 7.3,3.41 6.98,3.41 6.98,1.17 6.31,1.17 "/>
  <path id="_3" class="fil0" d="M9.59 0.83c0.39,0 0.71,0.14 0.96,0.42 0.23,0.26 0.35,0.56 0.35,0.91 0,0.35 -0.12,0.66 -0.37,0.92 -0.24,0.26 -0.56,0.39 -0.94,0.39 -0.39,0 -0.7,-0.13 -0.95,-0.39 -0.24,-0.26 -0.37,-0.57 -0.37,-0.92 0,-0.35 0.12,-0.65 0.35,-0.91 0.25,-0.28 0.58,-0.42 0.97,-0.42zm-0 0.32c-0.27,0 -0.5,0.1 -0.69,0.3 -0.19,0.2 -0.29,0.44 -0.29,0.72 0,0.18 0.04,0.35 0.13,0.51 0.09,0.16 0.21,0.28 0.36,0.36 0.15,0.09 0.31,0.13 0.49,0.13 0.18,0 0.34,-0.04 0.49,-0.13 0.15,-0.09 0.27,-0.21 0.36,-0.36 0.09,-0.16 0.13,-0.33 0.13,-0.51 0,-0.28 -0.1,-0.52 -0.29,-0.72 -0.19,-0.2 -0.42,-0.3 -0.69,-0.3z"/>
  <polygon id="_4" class="fil0" points="14.59,2.2 13.12,2.2 13.12,3.41 12.8,3.41 12.8,0.89 13.12,0.89 13.12,1.89 14.59,1.89 14.59,0.89 14.91,0.89 14.91,3.41 14.59,3.41 "/>
  <path id="_5" class="fil0" d="M18.12 0.89l0 2.52 -0.32 0 0 -0.43c-0.14,0.17 -0.29,0.29 -0.45,0.37 -0.17,0.08 -0.35,0.12 -0.55,0.12 -0.35,0 -0.66,-0.13 -0.91,-0.39 -0.25,-0.26 -0.38,-0.57 -0.38,-0.94 0,-0.36 0.13,-0.67 0.38,-0.93 0.25,-0.26 0.56,-0.39 0.91,-0.39 0.21,0 0.39,0.04 0.56,0.13 0.17,0.09 0.31,0.22 0.44,0.4l0 -0.46 0.32 0zm-1.29 0.25c-0.18,0 -0.35,0.04 -0.5,0.13 -0.15,0.09 -0.27,0.21 -0.36,0.37 -0.09,0.16 -0.13,0.33 -0.13,0.51 0,0.18 0.04,0.35 0.14,0.51 0.09,0.16 0.21,0.29 0.36,0.38 0.15,0.09 0.32,0.14 0.49,0.14 0.18,0 0.34,-0.04 0.5,-0.13 0.16,-0.09 0.28,-0.21 0.36,-0.36 0.09,-0.15 0.13,-0.32 0.13,-0.51 0,-0.29 -0.1,-0.53 -0.29,-0.73 -0.19,-0.2 -0.42,-0.29 -0.7,-0.29z"/>
  <path id="_6" class="fil0" d="M21.29 1.41l-0.26 0.16c-0.22,-0.29 -0.53,-0.44 -0.91,-0.44 -0.31,0 -0.56,0.1 -0.77,0.3 -0.2,0.2 -0.3,0.44 -0.3,0.72 0,0.18 0.05,0.36 0.14,0.52 0.09,0.16 0.22,0.29 0.38,0.38 0.16,0.09 0.34,0.13 0.55,0.13 0.37,0 0.67,-0.15 0.91,-0.44l0.26 0.17c-0.12,0.18 -0.28,0.32 -0.48,0.42 -0.2,0.1 -0.43,0.15 -0.69,0.15 -0.4,0 -0.73,-0.13 -0.99,-0.38 -0.26,-0.25 -0.39,-0.56 -0.39,-0.92 0,-0.24 0.06,-0.47 0.18,-0.68 0.12,-0.21 0.29,-0.37 0.5,-0.49 0.21,-0.12 0.45,-0.18 0.72,-0.18 0.17,0 0.33,0.03 0.48,0.08 0.15,0.05 0.29,0.12 0.39,0.2 0.11,0.08 0.2,0.19 0.28,0.31z"/>
  <polygon id="_7" class="fil0" points="21.63,0.89 23.28,0.89 23.28,1.17 22.61,1.17 22.61,3.41 22.29,3.41 22.29,1.17 21.63,1.17 "/>
  <path id="_8" class="fil0" d="M26.21 0.89l0 2.52 -0.32 0 0 -0.43c-0.14,0.17 -0.29,0.29 -0.45,0.37 -0.17,0.08 -0.35,0.12 -0.55,0.12 -0.35,0 -0.66,-0.13 -0.91,-0.39 -0.25,-0.26 -0.38,-0.57 -0.38,-0.94 0,-0.36 0.13,-0.67 0.38,-0.93 0.25,-0.26 0.56,-0.39 0.91,-0.39 0.21,0 0.39,0.04 0.56,0.13 0.17,0.09 0.31,0.22 0.44,0.4l0 -0.46 0.32 0zm-1.29 0.25c-0.18,0 -0.35,0.04 -0.5,0.13 -0.15,0.09 -0.27,0.21 -0.36,0.37 -0.09,0.16 -0.13,0.33 -0.13,0.51 0,0.18 0.04,0.35 0.14,0.51 0.09,0.16 0.21,0.29 0.36,0.38 0.15,0.09 0.32,0.14 0.49,0.14 0.18,0 0.34,-0.04 0.5,-0.13 0.16,-0.09 0.28,-0.21 0.36,-0.36 0.09,-0.15 0.13,-0.32 0.13,-0.51 0,-0.29 -0.1,-0.53 -0.29,-0.73 -0.19,-0.2 -0.42,-0.29 -0.7,-0.29z"/>
  <polygon id="_9" class="fil0" points="29.07,3.41 28.73,3.41 27.89,1.57 27.05,3.41 26.71,3.41 27.85,0.89 27.91,0.89 "/>
  <path id="_10" class="fil0" d="M30.75 0.83c0.39,0 0.71,0.14 0.96,0.42 0.23,0.26 0.35,0.56 0.35,0.91 0,0.35 -0.12,0.66 -0.37,0.92 -0.24,0.26 -0.56,0.39 -0.94,0.39 -0.39,0 -0.7,-0.13 -0.95,-0.39 -0.24,-0.26 -0.37,-0.57 -0.37,-0.92 0,-0.35 0.12,-0.65 0.35,-0.91 0.25,-0.28 0.58,-0.42 0.96,-0.42zm-0 0.32c-0.27,0 -0.5,0.1 -0.69,0.3 -0.19,0.2 -0.29,0.44 -0.29,0.72 0,0.18 0.04,0.35 0.13,0.51 0.09,0.16 0.21,0.28 0.36,0.36 0.15,0.09 0.31,0.13 0.49,0.13 0.18,0 0.34,-0.04 0.49,-0.13 0.15,-0.09 0.27,-0.21 0.36,-0.36 0.09,-0.16 0.13,-0.33 0.13,-0.51 0,-0.28 -0.1,-0.52 -0.29,-0.72 -0.19,-0.2 -0.42,-0.3 -0.69,-0.3z"/>
  <polygon id="_11" class="fil0" points="32.98,2.78 33.29,2.93 32.82,3.81 32.59,3.71 "/>
  <path id="_12" class="fil0" d="M2.64 7.34l-0.26 0.16c-0.22,-0.29 -0.53,-0.44 -0.91,-0.44 -0.31,0 -0.56,0.1 -0.77,0.3 -0.2,0.2 -0.3,0.44 -0.3,0.72 0,0.18 0.05,0.36 0.14,0.52 0.09,0.16 0.22,0.29 0.38,0.38 0.16,0.09 0.34,0.13 0.55,0.13 0.37,0 0.67,-0.15 0.91,-0.44l0.26 0.17c-0.12,0.18 -0.28,0.32 -0.48,0.42 -0.2,0.1 -0.43,0.15 -0.69,0.15 -0.4,0 -0.73,-0.13 -0.99,-0.38 -0.26,-0.25 -0.39,-0.56 -0.39,-0.92 0,-0.24 0.06,-0.47 0.18,-0.68 0.12,-0.21 0.29,-0.37 0.5,-0.49 0.21,-0.12 0.45,-0.18 0.72,-0.18 0.17,0 0.33,0.03 0.48,0.08 0.15,0.05 0.29,0.12 0.39,0.2 0.11,0.08 0.2,0.19 0.28,0.31z"/>
  <path id="_13" class="fil0" d="M4.45 6.75c0.39,0 0.71,0.14 0.96,0.42 0.23,0.26 0.35,0.56 0.35,0.91 0,0.35 -0.12,0.66 -0.37,0.92 -0.24,0.26 -0.56,0.39 -0.94,0.39 -0.39,0 -0.7,-0.13 -0.95,-0.39 -0.24,-0.26 -0.37,-0.57 -0.37,-0.92 0,-0.35 0.12,-0.65 0.35,-0.91 0.25,-0.28 0.58,-0.42 0.97,-0.42zm-0 0.32c-0.27,0 -0.5,0.1 -0.69,0.3 -0.19,0.2 -0.29,0.44 -0.29,0.72 0,0.18 0.04,0.35 0.13,0.51 0.09,0.16 0.21,0.28 0.36,0.36 0.15,0.09 0.31,0.13 0.49,0.13 0.18,0 0.34,-0.04 0.49,-0.13 0.15,-0.09 0.27,-0.21 0.36,-0.36 0.09,-0.16 0.13,-0.33 0.13,-0.51 0,-0.28 -0.1,-0.52 -0.29,-0.72 -0.19,-0.2 -0.42,-0.3 -0.69,-0.3z"/>
  <polygon id="_14" class="fil0" points="8.48,9.34 8.15,9.34 7.3,7.5 6.46,9.34 6.12,9.34 7.26,6.81 7.32,6.81 "/>
  <polygon id="_15" class="fil0" points="10.76,8.12 9.29,8.12 9.29,9.34 8.97,9.34 8.97,6.81 9.29,6.81 9.29,7.82 10.76,7.82 10.76,6.81 11.08,6.81 11.08,9.34 10.76,9.34 "/>
  <path id="_16" class="fil0" d="M12.12 7.81l0.31 0c0.24,0 0.44,0.02 0.57,0.06 0.14,0.04 0.26,0.12 0.36,0.26 0.1,0.13 0.15,0.28 0.15,0.46 0,0.21 -0.07,0.39 -0.22,0.53 -0.14,0.15 -0.36,0.22 -0.66,0.22l-0.84 0 0 -2.52 0.32 0 0 1zm0.01 0.3l0 0.95 0.37 0c0.44,0 0.66,-0.15 0.66,-0.46 0,-0.09 -0.02,-0.17 -0.07,-0.26 -0.05,-0.08 -0.12,-0.14 -0.21,-0.18 -0.09,-0.03 -0.25,-0.05 -0.48,-0.05l-0.28 0zm1.83 -1.3l0.32 0 0 2.52 -0.32 0 0 -2.52z"/>
  <polygon id="_17" class="fil0" points="18.72,9.34 14.97,9.34 14.97,6.81 15.29,6.81 15.29,9.03 16.68,9.03 16.68,6.81 17.01,6.81 17.01,9.03 18.39,9.03 18.39,6.81 18.72,6.81 "/>
  <polygon id="_18" class="fil0" points="19.43,6.81 19.75,6.81 19.75,7.88 20.92,6.81 21.36,6.81 20.1,7.97 21.47,9.34 21.01,9.34 19.86,8.17 19.75,8.26 19.75,9.34 19.43,9.34 "/>
  <path id="_19" class="fil0" d="M22.99 6.75c0.39,0 0.71,0.14 0.96,0.42 0.23,0.26 0.35,0.56 0.35,0.91 0,0.35 -0.12,0.66 -0.37,0.92 -0.24,0.26 -0.56,0.39 -0.94,0.39 -0.39,0 -0.7,-0.13 -0.95,-0.39 -0.24,-0.26 -0.37,-0.57 -0.37,-0.92 0,-0.35 0.12,-0.65 0.35,-0.91 0.25,-0.28 0.58,-0.42 0.97,-0.42zm-0 0.32c-0.27,0 -0.5,0.1 -0.69,0.3 -0.19,0.2 -0.29,0.44 -0.29,0.72 0,0.18 0.04,0.35 0.13,0.51 0.09,0.16 0.21,0.28 0.36,0.36 0.15,0.09 0.31,0.13 0.49,0.13 0.18,0 0.34,-0.04 0.49,-0.13 0.15,-0.09 0.27,-0.21 0.36,-0.36 0.09,-0.16 0.13,-0.33 0.13,-0.51 0,-0.28 -0.1,-0.52 -0.29,-0.72 -0.19,-0.2 -0.42,-0.3 -0.69,-0.3z"/>
  <polygon id="_20" class="fil0" points="26.53,7.1 26.53,9.34 26.2,9.34 26.2,6.81 27.47,6.81 27.47,7.1 "/>
  <path id="_21" class="fil0" d="M27.91 6.81l0.32 0 0 0.46c0.13,-0.18 0.27,-0.31 0.44,-0.4 0.17,-0.09 0.35,-0.13 0.56,-0.13 0.36,0 0.66,0.13 0.91,0.39 0.25,0.26 0.38,0.57 0.38,0.93 0,0.37 -0.13,0.68 -0.38,0.94 -0.25,0.26 -0.55,0.39 -0.91,0.39 -0.2,0 -0.38,-0.04 -0.55,-0.13 -0.17,-0.08 -0.32,-0.21 -0.45,-0.37l0 1.36 -0.32 0 0 -3.45zm1.29 0.25c-0.28,0 -0.51,0.1 -0.7,0.29 -0.19,0.2 -0.29,0.44 -0.29,0.73 0,0.19 0.04,0.36 0.13,0.51 0.08,0.15 0.21,0.27 0.37,0.36 0.16,0.09 0.33,0.13 0.5,0.13 0.17,0 0.34,-0.05 0.49,-0.14 0.15,-0.09 0.27,-0.22 0.36,-0.38 0.09,-0.16 0.14,-0.33 0.14,-0.51 0,-0.18 -0.04,-0.35 -0.13,-0.51 -0.09,-0.16 -0.21,-0.28 -0.36,-0.37 -0.15,-0.09 -0.32,-0.13 -0.5,-0.13z"/>
  <path id="_22" class="fil0" d="M33.25 8.5l0.27 0.14c-0.09,0.17 -0.19,0.32 -0.31,0.42 -0.12,0.11 -0.25,0.19 -0.4,0.25 -0.15,0.06 -0.31,0.08 -0.5,0.08 -0.41,0 -0.73,-0.13 -0.96,-0.4 -0.23,-0.27 -0.35,-0.57 -0.35,-0.91 0,-0.32 0.1,-0.6 0.29,-0.85 0.25,-0.32 0.58,-0.48 1,-0.48 0.43,0 0.77,0.16 1.03,0.49 0.18,0.23 0.27,0.52 0.28,0.86l-2.27 0c0.01,0.29 0.1,0.53 0.28,0.72 0.18,0.19 0.4,0.28 0.67,0.28 0.13,0 0.25,-0.02 0.37,-0.07 0.12,-0.04 0.22,-0.1 0.31,-0.18 0.09,-0.07 0.18,-0.19 0.28,-0.36zm0 -0.68c-0.04,-0.17 -0.11,-0.31 -0.19,-0.42 -0.08,-0.1 -0.19,-0.19 -0.33,-0.25 -0.14,-0.06 -0.28,-0.09 -0.43,-0.09 -0.25,0 -0.46,0.08 -0.64,0.24 -0.13,0.12 -0.23,0.29 -0.3,0.52l1.88 0z"/>
  <path id="_23" class="fil0" d="M36.32 8.5l0.27 0.14c-0.09,0.17 -0.19,0.32 -0.31,0.42 -0.12,0.11 -0.25,0.19 -0.4,0.25 -0.15,0.06 -0.31,0.08 -0.5,0.08 -0.41,0 -0.73,-0.13 -0.96,-0.4 -0.23,-0.27 -0.35,-0.57 -0.35,-0.91 0,-0.32 0.1,-0.6 0.29,-0.85 0.25,-0.32 0.58,-0.48 1,-0.48 0.43,0 0.77,0.16 1.03,0.49 0.18,0.23 0.27,0.52 0.28,0.86l-2.27 0c0.01,0.29 0.1,0.53 0.28,0.72 0.18,0.19 0.4,0.28 0.67,0.28 0.13,0 0.25,-0.02 0.37,-0.07 0.12,-0.04 0.22,-0.1 0.31,-0.18 0.09,-0.07 0.18,-0.19 0.28,-0.36zm0 -0.68c-0.04,-0.17 -0.11,-0.31 -0.19,-0.42 -0.08,-0.1 -0.19,-0.19 -0.33,-0.25 -0.14,-0.06 -0.28,-0.09 -0.43,-0.09 -0.25,0 -0.46,0.08 -0.64,0.24 -0.13,0.12 -0.23,0.29 -0.3,0.52l1.88 0z"/>
  <polygon id="_24" class="fil0" points="36.99,6.81 38.64,6.81 38.64,7.09 37.97,7.09 37.97,9.34 37.65,9.34 37.65,7.09 36.99,7.09 "/>
  <path id="_25" class="fil0" d="M39.43 8.82c0.08,0 0.14,0.03 0.2,0.08 0.06,0.06 0.08,0.12 0.08,0.2 0,0.08 -0.03,0.15 -0.08,0.2 -0.06,0.06 -0.12,0.08 -0.2,0.08 -0.08,0 -0.14,-0.03 -0.2,-0.08 -0.06,-0.06 -0.08,-0.12 -0.08,-0.2 0,-0.08 0.03,-0.15 0.08,-0.2 0.06,-0.06 0.12,-0.08 0.2,-0.08z"/>
  <polygon id="_26" class="fil0" points="0.26,11.85 0.6,11.85 0.6,13.13 1.96,11.85 2.42,11.85 0.79,13.38 2.55,15.26 2.1,15.26 0.6,13.67 0.6,15.26 0.26,15.26 "/>
  <polygon id="_27" class="fil0" points="2.73,12.74 3.06,12.74 3.93,14.67 4.77,12.74 5.11,12.74 3.62,16.18 3.27,16.18 3.76,15.05 "/>
  <path id="_28" class="fil0" d="M5.95 13.79l0.17 0c0.11,0 0.21,-0.04 0.3,-0.11 0.09,-0.07 0.14,-0.17 0.14,-0.3 0,-0.11 -0.04,-0.21 -0.11,-0.29 -0.07,-0.08 -0.18,-0.12 -0.34,-0.12 -0.18,0 -0.35,0.07 -0.53,0.2l-0.18 -0.22c0.23,-0.19 0.47,-0.28 0.72,-0.28 0.21,0 0.39,0.06 0.53,0.19 0.14,0.12 0.21,0.28 0.21,0.48 0,0.26 -0.12,0.44 -0.35,0.53 0.3,0.13 0.45,0.35 0.45,0.67 0,0.2 -0.07,0.38 -0.21,0.54 -0.14,0.16 -0.35,0.24 -0.63,0.24 -0.34,0 -0.62,-0.11 -0.83,-0.34l0.2 -0.23c0.16,0.18 0.36,0.26 0.6,0.26 0.16,0 0.29,-0.04 0.39,-0.13 0.09,-0.09 0.14,-0.2 0.14,-0.35 0,-0.14 -0.05,-0.25 -0.14,-0.34 -0.09,-0.09 -0.21,-0.13 -0.33,-0.13l-0.2 0 0 -0.28z"/>
  <path id="_29" class="fil0" d="M7.85 13.74l0.31 0c0.24,0 0.44,0.02 0.57,0.06 0.14,0.04 0.26,0.12 0.36,0.26 0.1,0.13 0.15,0.28 0.15,0.46 0,0.21 -0.07,0.39 -0.22,0.53 -0.14,0.15 -0.36,0.22 -0.66,0.22l-0.84 0 0 -2.52 0.32 0 0 1zm0.01 0.3l0 0.95 0.37 0c0.44,0 0.66,-0.15 0.66,-0.46 0,-0.09 -0.02,-0.17 -0.07,-0.26 -0.05,-0.08 -0.12,-0.14 -0.21,-0.18 -0.09,-0.03 -0.25,-0.05 -0.48,-0.05l-0.28 0z"/>
  <path id="_30" class="fil0" d="M10.07 13.74l0.31 0c0.24,0 0.44,0.02 0.57,0.06 0.14,0.04 0.26,0.12 0.36,0.26 0.1,0.13 0.15,0.28 0.15,0.46 0,0.21 -0.07,0.39 -0.22,0.53 -0.14,0.15 -0.36,0.22 -0.66,0.22l-0.84 0 0 -2.52 0.32 0 0 1zm0.01 0.3l0 0.95 0.37 0c0.44,0 0.66,-0.15 0.66,-0.46 0,-0.09 -0.02,-0.17 -0.07,-0.26 -0.05,-0.08 -0.12,-0.14 -0.21,-0.18 -0.09,-0.03 -0.25,-0.05 -0.48,-0.05l-0.28 0zm1.83 -1.3l0.32 0 0 2.52 -0.32 0 0 -2.52z"/>
  <polygon id="_31" class="fil0" points="15.65,12.74 15.74,12.74 16.59,15.26 16.26,15.26 15.63,13.41 14.67,15.26 14.61,15.26 13.64,13.4 13.02,15.26 12.68,15.26 13.54,12.74 13.63,12.74 14.64,14.71 "/>
  <path id="_32" class="fil0" d="M18.8 13.79l0.17 0c0.11,0 0.21,-0.04 0.3,-0.11 0.09,-0.07 0.14,-0.17 0.14,-0.3 0,-0.11 -0.04,-0.21 -0.11,-0.29 -0.07,-0.08 -0.18,-0.12 -0.34,-0.12 -0.18,0 -0.35,0.07 -0.53,0.2l-0.18 -0.22c0.23,-0.19 0.47,-0.28 0.72,-0.28 0.21,0 0.39,0.06 0.53,0.19 0.14,0.12 0.21,0.28 0.21,0.48 0,0.26 -0.12,0.44 -0.35,0.53 0.3,0.13 0.45,0.35 0.45,0.67 0,0.2 -0.07,0.38 -0.21,0.54 -0.14,0.16 -0.35,0.24 -0.63,0.24 -0.34,0 -0.62,-0.11 -0.83,-0.34l0.2 -0.23c0.16,0.18 0.36,0.26 0.6,0.26 0.16,0 0.29,-0.04 0.39,-0.13 0.09,-0.09 0.14,-0.2 0.14,-0.35 0,-0.14 -0.05,-0.25 -0.14,-0.34 -0.09,-0.09 -0.21,-0.13 -0.33,-0.13l-0.2 0 0 -0.28z"/>
  <path id="_33" class="fil0" d="M21.57 12.68c0.39,0 0.71,0.14 0.96,0.42 0.23,0.26 0.35,0.56 0.35,0.91 0,0.35 -0.12,0.66 -0.37,0.92 -0.24,0.26 -0.56,0.39 -0.94,0.39 -0.39,0 -0.7,-0.13 -0.95,-0.39 -0.24,-0.26 -0.37,-0.57 -0.37,-0.92 0,-0.35 0.12,-0.65 0.35,-0.91 0.25,-0.28 0.58,-0.42 0.96,-0.42zm-0 0.32c-0.27,0 -0.5,0.1 -0.69,0.3 -0.19,0.2 -0.29,0.44 -0.29,0.72 0,0.18 0.04,0.35 0.13,0.51 0.09,0.16 0.21,0.28 0.36,0.36 0.15,0.09 0.31,0.13 0.49,0.13 0.18,0 0.34,-0.04 0.49,-0.13 0.15,-0.09 0.27,-0.21 0.36,-0.36 0.09,-0.16 0.13,-0.33 0.13,-0.51 0,-0.28 -0.1,-0.52 -0.29,-0.72 -0.19,-0.2 -0.42,-0.3 -0.69,-0.3z"/>
  <path id="_34" class="fil0" d="M24.2 15.26l-0.73 0 0 -2.52 0.72 0c0.27,0 0.47,0.06 0.59,0.19 0.12,0.13 0.18,0.27 0.18,0.44 0,0.26 -0.11,0.43 -0.34,0.52 0.33,0.12 0.49,0.34 0.49,0.67 0,0.47 -0.3,0.7 -0.91,0.7zm-0.41 -2.24l0 0.78 0.21 0c0.19,0 0.32,-0.01 0.38,-0.02 0.06,-0.02 0.11,-0.05 0.17,-0.11 0.05,-0.06 0.08,-0.14 0.08,-0.24 0,-0.1 -0.03,-0.19 -0.08,-0.26 -0.05,-0.07 -0.11,-0.11 -0.17,-0.13 -0.06,-0.01 -0.18,-0.02 -0.37,-0.02l-0.21 0zm0 1.08l0 0.88 0.35 0c0.16,0 0.28,-0.01 0.35,-0.03 0.07,-0.02 0.13,-0.07 0.18,-0.14 0.05,-0.07 0.08,-0.16 0.08,-0.26 0,-0.14 -0.04,-0.25 -0.13,-0.33 -0.09,-0.08 -0.2,-0.12 -0.34,-0.12l-0.48 0z"/>
  <path id="_35" class="fil0" d="M27.8 14.43l0.27 0.14c-0.09,0.17 -0.19,0.32 -0.31,0.42 -0.12,0.11 -0.25,0.19 -0.4,0.25 -0.15,0.06 -0.31,0.08 -0.5,0.08 -0.41,0 -0.73,-0.13 -0.96,-0.4 -0.23,-0.27 -0.35,-0.57 -0.35,-0.91 0,-0.32 0.1,-0.6 0.29,-0.85 0.25,-0.32 0.58,-0.48 1,-0.48 0.43,0 0.77,0.16 1.03,0.49 0.18,0.23 0.27,0.52 0.28,0.86l-2.27 0c0.01,0.29 0.1,0.53 0.28,0.72 0.18,0.19 0.4,0.28 0.67,0.28 0.13,0 0.25,-0.02 0.37,-0.07 0.12,-0.04 0.22,-0.1 0.31,-0.18 0.09,-0.07 0.18,-0.19 0.28,-0.36zm0 -0.68c-0.04,-0.17 -0.11,-0.31 -0.19,-0.42 -0.08,-0.1 -0.19,-0.19 -0.33,-0.25 -0.14,-0.06 -0.28,-0.09 -0.43,-0.09 -0.25,0 -0.46,0.08 -0.64,0.24 -0.13,0.12 -0.23,0.29 -0.3,0.52l1.88 0z"/>
  <polygon id="_36" class="fil0" points="28.47,12.74 30.12,12.74 30.12,13.02 29.45,13.02 29.45,15.26 29.13,15.26 29.13,13.02 28.47,13.02 "/>
  <path id="_37" class="fil0" d="M32.59 15.26l-0.73 0 0 -2.52 0.72 0c0.27,0 0.47,0.06 0.59,0.19 0.12,0.13 0.18,0.27 0.18,0.44 0,0.26 -0.11,0.43 -0.34,0.52 0.33,0.12 0.49,0.34 0.49,0.67 0,0.47 -0.3,0.7 -0.91,0.7zm-0.41 -2.24l0 0.78 0.21 0c0.19,0 0.32,-0.01 0.38,-0.02 0.06,-0.02 0.11,-0.05 0.17,-0.11 0.05,-0.06 0.08,-0.14 0.08,-0.24 0,-0.1 -0.03,-0.19 -0.08,-0.26 -0.05,-0.07 -0.11,-0.11 -0.17,-0.13 -0.06,-0.01 -0.18,-0.02 -0.37,-0.02l-0.21 0zm0 1.08l0 0.88 0.35 0c0.16,0 0.28,-0.01 0.35,-0.03 0.07,-0.02 0.13,-0.07 0.18,-0.14 0.05,-0.07 0.08,-0.16 0.08,-0.26 0,-0.14 -0.04,-0.25 -0.13,-0.33 -0.09,-0.08 -0.2,-0.12 -0.34,-0.12l-0.48 0z"/>
  <path id="_38" class="fil0" d="M36.57 12.74l0 2.52 -0.32 0 0 -0.43c-0.14,0.17 -0.29,0.29 -0.46,0.37 -0.17,0.08 -0.35,0.12 -0.55,0.12 -0.35,0 -0.66,-0.13 -0.91,-0.39 -0.25,-0.26 -0.38,-0.57 -0.38,-0.94 0,-0.36 0.13,-0.67 0.38,-0.93 0.25,-0.26 0.56,-0.39 0.91,-0.39 0.21,0 0.39,0.04 0.56,0.13 0.17,0.09 0.31,0.22 0.44,0.4l0 -0.46 0.32 0zm-1.29 0.25c-0.18,0 -0.35,0.04 -0.5,0.13 -0.15,0.09 -0.27,0.21 -0.36,0.37 -0.09,0.16 -0.13,0.33 -0.13,0.51 0,0.18 0.04,0.35 0.14,0.51 0.09,0.16 0.21,0.29 0.36,0.38 0.15,0.09 0.32,0.14 0.49,0.14 0.18,0 0.34,-0.04 0.5,-0.13 0.16,-0.09 0.28,-0.21 0.36,-0.36 0.09,-0.15 0.13,-0.32 0.13,-0.51 0,-0.29 -0.1,-0.53 -0.29,-0.73 -0.19,-0.2 -0.43,-0.29 -0.7,-0.29z"/>
  <path id="_39" class="fil0" d="M39.74 13.26l-0.26 0.16c-0.22,-0.29 -0.53,-0.44 -0.91,-0.44 -0.31,0 -0.56,0.1 -0.77,0.3 -0.2,0.2 -0.3,0.44 -0.3,0.72 0,0.18 0.05,0.36 0.14,0.52 0.09,0.16 0.22,0.29 0.38,0.38 0.16,0.09 0.34,0.13 0.55,0.13 0.37,0 0.67,-0.15 0.91,-0.44l0.26 0.17c-0.12,0.18 -0.28,0.32 -0.48,0.42 -0.2,0.1 -0.43,0.15 -0.69,0.15 -0.4,0 -0.73,-0.13 -0.99,-0.38 -0.26,-0.25 -0.39,-0.56 -0.39,-0.92 0,-0.24 0.06,-0.47 0.18,-0.68 0.12,-0.21 0.29,-0.37 0.5,-0.49 0.21,-0.12 0.45,-0.18 0.72,-0.18 0.17,0 0.33,0.03 0.48,0.08 0.15,0.05 0.29,0.12 0.39,0.2 0.11,0.08 0.2,0.19 0.28,0.31z"/>
  <polygon id="_40" class="fil0" points="0.21,18.66 2.31,18.66 2.31,21.19 1.99,21.19 1.99,18.97 0.53,18.97 0.53,21.19 0.21,21.19 "/>
  <path id="_41" class="fil0" d="M4.22 18.6c0.39,0 0.71,0.14 0.96,0.42 0.23,0.26 0.35,0.56 0.35,0.91 0,0.35 -0.12,0.66 -0.37,0.92 -0.24,0.26 -0.56,0.39 -0.94,0.39 -0.39,0 -0.7,-0.13 -0.95,-0.39 -0.24,-0.26 -0.37,-0.57 -0.37,-0.92 0,-0.35 0.12,-0.65 0.35,-0.91 0.25,-0.28 0.58,-0.42 0.97,-0.42zm-0 0.32c-0.27,0 -0.5,0.1 -0.69,0.3 -0.19,0.2 -0.29,0.44 -0.29,0.72 0,0.18 0.04,0.35 0.13,0.51 0.09,0.16 0.21,0.28 0.36,0.36 0.15,0.09 0.31,0.13 0.49,0.13 0.18,0 0.34,-0.04 0.49,-0.13 0.15,-0.09 0.27,-0.21 0.36,-0.36 0.09,-0.16 0.13,-0.33 0.13,-0.51 0,-0.28 -0.1,-0.52 -0.29,-0.72 -0.19,-0.2 -0.42,-0.3 -0.69,-0.3z"/>
  <polygon id="_42" class="fil0" points="6.45,18.66 6.45,20.53 8.29,18.66 8.32,18.66 8.32,21.19 8,21.19 8,19.33 6.16,21.19 6.13,21.19 6.13,18.66 "/>
  <polygon id="_43" class="fil0" points="9.36,18.95 9.36,21.19 9.04,21.19 9.04,18.66 10.31,18.66 10.31,18.95 "/>
  <path id="_44" class="fil0" d="M10.74 18.66l0.32 0 0 0.46c0.13,-0.18 0.27,-0.31 0.44,-0.4 0.17,-0.09 0.35,-0.13 0.56,-0.13 0.36,0 0.66,0.13 0.91,0.39 0.25,0.26 0.38,0.57 0.38,0.93 0,0.37 -0.13,0.68 -0.38,0.94 -0.25,0.26 -0.55,0.39 -0.91,0.39 -0.2,0 -0.38,-0.04 -0.55,-0.13 -0.17,-0.08 -0.32,-0.21 -0.45,-0.37l0 1.36 -0.32 0 0 -3.45zm1.29 0.25c-0.28,0 -0.51,0.1 -0.7,0.29 -0.19,0.2 -0.29,0.44 -0.29,0.73 0,0.19 0.04,0.36 0.13,0.51 0.08,0.15 0.21,0.27 0.37,0.36 0.16,0.09 0.33,0.13 0.5,0.13 0.17,0 0.34,-0.05 0.49,-0.14 0.15,-0.09 0.27,-0.22 0.36,-0.38 0.09,-0.16 0.14,-0.33 0.14,-0.51 0,-0.18 -0.04,-0.35 -0.13,-0.51 -0.09,-0.16 -0.21,-0.28 -0.36,-0.37 -0.15,-0.09 -0.32,-0.13 -0.5,-0.13z"/>
  <path id="_45" class="fil0" d="M16.46 18.66l0 2.52 -0.32 0 0 -0.43c-0.14,0.17 -0.29,0.29 -0.46,0.37 -0.17,0.08 -0.35,0.12 -0.55,0.12 -0.35,0 -0.66,-0.13 -0.91,-0.39 -0.25,-0.26 -0.38,-0.57 -0.38,-0.94 0,-0.36 0.13,-0.67 0.38,-0.93 0.25,-0.26 0.56,-0.39 0.91,-0.39 0.21,0 0.39,0.04 0.56,0.13 0.17,0.09 0.31,0.22 0.44,0.4l0 -0.46 0.32 0zm-1.29 0.25c-0.18,0 -0.35,0.04 -0.5,0.13 -0.15,0.09 -0.27,0.21 -0.36,0.37 -0.09,0.16 -0.13,0.33 -0.13,0.51 0,0.18 0.04,0.35 0.14,0.51 0.09,0.16 0.21,0.29 0.36,0.38 0.15,0.09 0.32,0.14 0.49,0.14 0.18,0 0.34,-0.04 0.5,-0.13 0.16,-0.09 0.28,-0.21 0.36,-0.36 0.09,-0.15 0.13,-0.32 0.13,-0.51 0,-0.29 -0.1,-0.53 -0.29,-0.73 -0.19,-0.2 -0.42,-0.29 -0.7,-0.29z"/>
  <polygon id="_46" class="fil0" points="16.91,18.66 18.56,18.66 18.56,18.94 17.89,18.94 17.89,21.19 17.57,21.19 17.57,18.94 16.91,18.94 "/>
  <path id="_47" class="fil0" d="M19.31 19.66l0.31 0c0.24,0 0.44,0.02 0.57,0.06 0.14,0.04 0.26,0.12 0.36,0.26 0.1,0.13 0.15,0.28 0.15,0.46 0,0.21 -0.07,0.39 -0.22,0.53 -0.14,0.15 -0.36,0.22 -0.66,0.22l-0.84 0 0 -2.52 0.32 0 0 1zm0.01 0.3l0 0.95 0.37 0c0.44,0 0.66,-0.15 0.66,-0.46 0,-0.09 -0.02,-0.17 -0.07,-0.26 -0.05,-0.08 -0.12,-0.14 -0.21,-0.18 -0.09,-0.03 -0.25,-0.05 -0.48,-0.05l-0.28 0z"/>
  <path id="_48" class="fil0" d="M24.97 19.19l-0.26 0.16c-0.22,-0.29 -0.53,-0.44 -0.91,-0.44 -0.31,0 -0.56,0.1 -0.77,0.3 -0.2,0.2 -0.3,0.44 -0.3,0.72 0,0.18 0.05,0.36 0.14,0.52 0.09,0.16 0.22,0.29 0.38,0.38 0.16,0.09 0.34,0.13 0.55,0.13 0.37,0 0.67,-0.15 0.91,-0.44l0.26 0.17c-0.12,0.18 -0.28,0.32 -0.48,0.42 -0.2,0.1 -0.43,0.15 -0.69,0.15 -0.4,0 -0.73,-0.13 -0.99,-0.38 -0.26,-0.25 -0.39,-0.56 -0.39,-0.92 0,-0.24 0.06,-0.47 0.18,-0.68 0.12,-0.21 0.29,-0.37 0.5,-0.49 0.21,-0.12 0.45,-0.18 0.72,-0.18 0.17,0 0.33,0.03 0.48,0.08 0.15,0.05 0.29,0.12 0.39,0.2 0.11,0.08 0.2,0.19 0.28,0.31z"/>
  <polygon id="_49" class="fil0" points="25.58,18.66 25.91,18.66 25.91,19.73 27.07,18.66 27.52,18.66 26.25,19.81 27.62,21.19 27.16,21.19 26.01,20.02 25.91,20.11 25.91,21.19 25.58,21.19 "/>
  <path id="_50" class="fil0" d="M29.14 18.6c0.39,0 0.71,0.14 0.96,0.42 0.23,0.26 0.35,0.56 0.35,0.91 0,0.35 -0.12,0.66 -0.37,0.92 -0.24,0.26 -0.56,0.39 -0.94,0.39 -0.39,0 -0.7,-0.13 -0.95,-0.39 -0.24,-0.26 -0.37,-0.57 -0.37,-0.92 0,-0.35 0.12,-0.65 0.35,-0.91 0.25,-0.28 0.58,-0.42 0.97,-0.42zm-0 0.32c-0.27,0 -0.5,0.1 -0.69,0.3 -0.19,0.2 -0.29,0.44 -0.29,0.72 0,0.18 0.04,0.35 0.13,0.51 0.09,0.16 0.21,0.28 0.36,0.36 0.15,0.09 0.31,0.13 0.49,0.13 0.18,0 0.34,-0.04 0.49,-0.13 0.15,-0.09 0.27,-0.21 0.36,-0.36 0.09,-0.16 0.13,-0.33 0.13,-0.51 0,-0.28 -0.1,-0.52 -0.29,-0.72 -0.19,-0.2 -0.42,-0.3 -0.69,-0.3z"/>
  <path id="_51" class="fil0" d="M31.05 18.66l0.32 0 0 0.46c0.13,-0.18 0.27,-0.31 0.44,-0.4 0.17,-0.09 0.35,-0.13 0.56,-0.13 0.36,0 0.66,0.13 0.91,0.39 0.25,0.26 0.38,0.57 0.38,0.93 0,0.37 -0.13,0.68 -0.38,0.94 -0.25,0.26 -0.55,0.39 -0.91,0.39 -0.2,0 -0.38,-0.04 -0.55,-0.13 -0.17,-0.08 -0.32,-0.21 -0.45,-0.37l0 1.36 -0.32 0 0 -3.45zm1.29 0.25c-0.28,0 -0.51,0.1 -0.7,0.29 -0.19,0.2 -0.29,0.44 -0.29,0.73 0,0.19 0.04,0.36 0.13,0.51 0.08,0.15 0.21,0.27 0.37,0.36 0.16,0.09 0.33,0.13 0.5,0.13 0.17,0 0.34,-0.05 0.49,-0.14 0.15,-0.09 0.27,-0.22 0.36,-0.38 0.09,-0.16 0.14,-0.33 0.14,-0.51 0,-0.18 -0.04,-0.35 -0.13,-0.51 -0.09,-0.16 -0.21,-0.28 -0.36,-0.37 -0.15,-0.09 -0.32,-0.13 -0.5,-0.13z"/>
  <path id="_52" class="fil0" d="M36.39 20.35l0.27 0.14c-0.09,0.17 -0.19,0.32 -0.31,0.42 -0.12,0.11 -0.25,0.19 -0.4,0.25 -0.15,0.06 -0.31,0.08 -0.5,0.08 -0.41,0 -0.73,-0.13 -0.96,-0.4 -0.23,-0.27 -0.35,-0.57 -0.35,-0.91 0,-0.32 0.1,-0.6 0.29,-0.85 0.25,-0.32 0.58,-0.48 1,-0.48 0.43,0 0.77,0.16 1.03,0.49 0.18,0.23 0.27,0.52 0.28,0.86l-2.27 0c0.01,0.29 0.1,0.53 0.28,0.72 0.18,0.19 0.4,0.28 0.67,0.28 0.13,0 0.25,-0.02 0.37,-0.07 0.12,-0.04 0.22,-0.1 0.31,-0.18 0.09,-0.07 0.18,-0.19 0.28,-0.36zm0 -0.68c-0.04,-0.17 -0.11,-0.31 -0.19,-0.42 -0.08,-0.1 -0.19,-0.19 -0.33,-0.25 -0.14,-0.06 -0.28,-0.09 -0.43,-0.09 -0.25,0 -0.46,0.08 -0.64,0.24 -0.13,0.12 -0.23,0.29 -0.3,0.52l1.88 0z"/>
  <path id="_53" class="fil0" d="M39.46 20.35l0.27 0.14c-0.09,0.17 -0.19,0.32 -0.31,0.42 -0.12,0.11 -0.25,0.19 -0.4,0.25 -0.15,0.06 -0.31,0.08 -0.5,0.08 -0.41,0 -0.73,-0.13 -0.96,-0.4 -0.23,-0.27 -0.35,-0.57 -0.35,-0.91 0,-0.32 0.1,-0.6 0.29,-0.85 0.25,-0.32 0.58,-0.48 1,-0.48 0.43,0 0.77,0.16 1.03,0.49 0.18,0.23 0.27,0.52 0.28,0.86l-2.27 0c0.01,0.29 0.1,0.53 0.28,0.72 0.18,0.19 0.4,0.28 0.67,0.28 0.13,0 0.25,-0.02 0.37,-0.07 0.12,-0.04 0.22,-0.1 0.31,-0.18 0.09,-0.07 0.18,-0.19 0.28,-0.36zm0 -0.68c-0.04,-0.17 -0.11,-0.31 -0.19,-0.42 -0.08,-0.1 -0.19,-0.19 -0.33,-0.25 -0.14,-0.06 -0.28,-0.09 -0.43,-0.09 -0.25,0 -0.46,0.08 -0.64,0.24 -0.13,0.12 -0.23,0.29 -0.3,0.52l1.88 0z"/>
 </g>
</svg>
