<?xml version="1.0" encoding="UTF-8"?>
<!DOCTYPE svg PUBLIC "-//W3C//DTD SVG 1.1//EN" "http://www.w3.org/Graphics/SVG/1.1/DTD/svg11.dtd">
<!-- Creator: CorelDRAW -->
<svg xmlns="http://www.w3.org/2000/svg" xml:space="preserve" width="27.7444mm" height="8.6647mm" version="1.1" style="shape-rendering:geometricPrecision; text-rendering:geometricPrecision; image-rendering:optimizeQuality; fill-rule:evenodd; clip-rule:evenodd"
viewBox="0 0 39.82 12.44"
 xmlns:xlink="http://www.w3.org/1999/xlink"
 xmlns:xodm="http://www.corel.com/coreldraw/odm/2003">
 <defs>
  <style type="text/css">
   <![CDATA[
    .fil0 {fill:#969677;fill-rule:nonzero}
    .fil1 {fill:white;fill-rule:nonzero}
   ]]>
  </style>
 </defs>
 <g id="Слой_x0020_1">
  <metadata id="CorelCorpID_0Corel-Layer"/>
  <path class="fil0" d="M2.77 3.88c-0.04,0.08 -0.1,0.14 -0.17,0.18 -0.08,0.04 -0.15,0.06 -0.24,0.04 0.08,-0.01 0.15,-0.04 0.21,-0.08 0.06,-0.05 0.11,-0.1 0.14,-0.17 0.06,-0.12 0.07,-0.27 0.04,-0.44 0.04,0.07 0.07,0.15 0.07,0.23 0.01,0.08 -0.01,0.17 -0.05,0.24zm-0.65 -0.21c-0.04,-0.07 -0.05,-0.14 -0.05,-0.21 0.01,-0.07 0.04,-0.12 0.09,-0.15 0.05,-0.03 0.1,-0.03 0.17,0 0.06,0.03 0.12,0.08 0.16,0.15 0.04,0.07 0.05,0.14 0.05,0.21 -0.01,0.07 -0.04,0.12 -0.08,0.15 -0.05,0.03 -0.1,0.03 -0.17,0 -0.06,-0.03 -0.11,-0.08 -0.16,-0.15zm-0.31 -1.48c0.06,-0.01 0.11,-0.04 0.16,-0.06 0.05,-0.03 0.09,-0.06 0.13,-0.1 0.04,-0.04 0.07,-0.08 0.1,-0.13 0.03,-0.04 0.05,-0.1 0.07,-0.15 0.01,0.12 -0.03,0.23 -0.12,0.33 -0.05,0.04 -0.1,0.08 -0.16,0.1 -0.06,0.02 -0.12,0.03 -0.18,0.01zm-0.07 -0.51c0.03,-0.05 0.06,-0.08 0.1,-0.1 0.04,-0.02 0.08,-0.02 0.11,0 0.03,0.02 0.05,0.05 0.05,0.1 0,0.04 -0.01,0.09 -0.03,0.13 -0.03,0.05 -0.06,0.08 -0.1,0.1 -0.04,0.02 -0.08,0.02 -0.11,0 -0.03,-0.02 -0.05,-0.05 -0.05,-0.1 -0,-0.04 0.01,-0.09 0.03,-0.13zm-0.6 -0.63c-0.06,0.06 -0.11,0.13 -0.17,0.22 -0.09,0.13 -0.17,0.3 -0.25,0.49 -0.06,0.15 -0.11,0.33 -0.17,0.54 0.02,-0.18 0.06,-0.37 0.12,-0.55 0.06,-0.19 0.14,-0.36 0.24,-0.52 0.12,-0.18 0.25,-0.31 0.41,-0.4 0.1,-0.05 0.18,-0.09 0.27,-0.11 0.1,-0.02 0.19,-0.03 0.28,-0.03 -0.19,0.02 -0.37,0.08 -0.52,0.18 -0.08,0.05 -0.15,0.11 -0.21,0.18zm1.52 1.35c-0.04,-0.02 -0.05,-0.05 -0.03,-0.12 0.01,-0.02 0.03,-0.06 0.05,-0.1l0.02 -0.03 0.02 -0.03c0.01,-0.03 0.03,-0.05 0.04,-0.07 0.06,-0.13 0.11,-0.25 0.13,-0.37 0.04,-0.17 0.04,-0.34 0.01,-0.52 -0.03,-0.2 -0.15,-0.37 -0.34,-0.51 -0.19,-0.14 -0.42,-0.22 -0.67,-0.22 -0.28,-0.01 -0.53,0.07 -0.77,0.23 -0.27,0.19 -0.48,0.48 -0.64,0.86 -0.16,0.4 -0.25,0.84 -0.26,1.31 -0.01,0.48 0.05,0.92 0.19,1.33 0.16,0.44 0.39,0.78 0.69,1.01 0.34,0.26 0.75,0.37 1.23,0.34 0.46,-0.03 0.82,-0.18 1.09,-0.45 0.25,-0.24 0.38,-0.54 0.41,-0.91 0.02,-0.36 -0.06,-0.69 -0.26,-1.01 -0.21,-0.34 -0.52,-0.59 -0.92,-0.75z"/>
  <path id="_1" class="fil0" d="M6.56 3.96c-0.04,0.07 -0.1,0.11 -0.17,0.15 -0.07,0.03 -0.14,0.04 -0.21,0.03 0.15,-0.03 0.26,-0.1 0.33,-0.21 0.03,-0.05 0.06,-0.11 0.08,-0.18 0.01,-0.06 0.02,-0.13 0.02,-0.21 0.03,0.07 0.04,0.14 0.03,0.22 -0,0.08 -0.03,0.15 -0.07,0.21zm-0.62 -0.27c-0.03,-0.07 -0.05,-0.14 -0.03,-0.2 0.01,-0.07 0.04,-0.12 0.09,-0.14 0.05,-0.02 0.11,-0.02 0.17,0.01 0.06,0.03 0.11,0.08 0.14,0.15 0.04,0.07 0.05,0.14 0.04,0.21 -0.01,0.07 -0.04,0.11 -0.09,0.14 -0.05,0.03 -0.1,0.02 -0.16,-0.01 -0.06,-0.03 -0.11,-0.08 -0.15,-0.15zm-0.33 -2.94c-0.04,0.02 -0.09,0.05 -0.15,0.1 -0.08,0.07 -0.16,0.15 -0.24,0.25 -0.06,0.07 -0.13,0.17 -0.21,0.29 -0.03,0.04 -0.06,0.09 -0.1,0.15l-0.09 0.15c0.05,-0.13 0.1,-0.24 0.14,-0.33 0.06,-0.11 0.13,-0.22 0.2,-0.31 0.09,-0.11 0.18,-0.19 0.27,-0.25 0.12,-0.08 0.24,-0.12 0.34,-0.11 -0.06,0.01 -0.11,0.03 -0.17,0.06zm0.92 1.72c-0.12,-0.04 -0.2,-0.1 -0.23,-0.2 -0.03,-0.07 -0.03,-0.18 -0,-0.32 0,-0.03 0.01,-0.06 0.02,-0.1l0.02 -0.1c0.02,-0.09 0.03,-0.17 0.04,-0.22 0.03,-0.18 0.03,-0.34 0.02,-0.48 -0.03,-0.2 -0.1,-0.36 -0.22,-0.47 -0.13,-0.12 -0.27,-0.17 -0.45,-0.15 -0.19,0.02 -0.38,0.11 -0.57,0.29 -0.21,0.2 -0.41,0.49 -0.58,0.86 -0.18,0.39 -0.3,0.81 -0.35,1.26 -0.05,0.47 -0.03,0.9 0.08,1.29 0.11,0.43 0.31,0.76 0.58,1 0.31,0.26 0.7,0.4 1.17,0.39 0.45,-0 0.82,-0.14 1.12,-0.41 0.27,-0.24 0.43,-0.55 0.49,-0.92 0.05,-0.37 -0.01,-0.71 -0.2,-1.02 -0.2,-0.34 -0.52,-0.57 -0.94,-0.7zm1.48 -1.64c-0.04,0.04 -0.07,0.08 -0.09,0.13 -0.02,0.05 -0.03,0.11 -0.03,0.17 -0,0.09 0,0.21 0.03,0.35l0.04 0.17 0.03 0.18c-0.05,-0.13 -0.09,-0.24 -0.12,-0.34 -0.04,-0.14 -0.05,-0.26 -0.05,-0.37 0.01,-0.07 0.02,-0.13 0.04,-0.19 0.03,-0.07 0.07,-0.12 0.11,-0.16 0.1,-0.07 0.21,-0.1 0.35,-0.09 -0.13,0.01 -0.24,0.06 -0.31,0.13zm1.24 0.2c-0.1,-0.19 -0.23,-0.33 -0.39,-0.44 -0.14,-0.09 -0.3,-0.15 -0.46,-0.16 -0.16,-0.01 -0.3,0.01 -0.43,0.08 -0.13,0.06 -0.23,0.16 -0.29,0.27 -0.11,0.22 -0.11,0.55 0.01,0.98 0.02,0.07 0.04,0.16 0.08,0.27l0.04 0.14 0.04 0.13c0.06,0.22 0.1,0.4 0.12,0.54 0.04,0.34 0.06,0.7 0.05,1.06 -0,0.12 -0.01,0.25 -0.02,0.41l-0 0.09 -0 0.09c-0,0.07 -0.01,0.12 -0.01,0.16 -0.01,0.22 0.01,0.38 0.04,0.48 0.04,0.12 0.13,0.19 0.26,0.22 0.26,0.06 0.49,-0.08 0.69,-0.41 0.18,-0.3 0.32,-0.71 0.42,-1.23 0.09,-0.5 0.13,-1 0.11,-1.49 -0.02,-0.52 -0.11,-0.92 -0.26,-1.19z"/>
  <path id="_2" class="fil0" d="M11.14 0.86c-0.02,0.01 -0.05,0.02 -0.07,0.04l-0.07 0.04 -0.07 0.04c-0.03,0.02 -0.05,0.03 -0.07,0.05 -0.08,0.05 -0.16,0.12 -0.25,0.2 -0.1,0.1 -0.17,0.18 -0.2,0.24 -0.12,0.17 -0.19,0.36 -0.23,0.59 -0.01,0.05 -0.02,0.1 -0.02,0.16l-0.01 0.16c-0,0.05 -0.01,0.1 -0.01,0.16l-0 0.16c-0.03,-0.23 -0.03,-0.45 -0.01,-0.66 0.02,-0.23 0.1,-0.44 0.22,-0.62l0.05 -0.07 0.05 -0.06c0.01,-0.02 0.03,-0.04 0.05,-0.06l0.03 -0.03 0.03 -0.03c0.11,-0.09 0.19,-0.16 0.27,-0.2 0.18,-0.11 0.39,-0.19 0.61,-0.22l-0.08 0.03 -0.08 0.02c-0.06,0.02 -0.11,0.04 -0.15,0.06zm2.49 0.66c-0.2,-0.43 -0.5,-0.74 -0.92,-0.92 -0.38,-0.17 -0.78,-0.22 -1.21,-0.15 -0.43,0.07 -0.79,0.25 -1.09,0.52 -0.32,0.3 -0.5,0.66 -0.54,1.09 -0.08,0.8 0.05,1.59 0.37,2.36 0.14,0.35 0.31,0.62 0.49,0.81 0.19,0.2 0.38,0.29 0.57,0.27 0.26,-0.03 0.42,-0.19 0.48,-0.46 0.06,-0.31 0.02,-0.85 -0.12,-1.61 -0.11,-0.6 -0.05,-0.92 0.2,-0.96 0.14,-0.02 0.25,0.09 0.33,0.32 0.07,0.21 0.1,0.48 0.09,0.81 -0.03,0.72 0.05,1.23 0.23,1.51 0.14,0.22 0.33,0.32 0.6,0.3 0.22,-0.01 0.41,-0.16 0.57,-0.43 0.14,-0.25 0.24,-0.58 0.29,-1 0.05,-0.41 0.05,-0.83 0,-1.26 -0.06,-0.45 -0.17,-0.86 -0.33,-1.2z"/>
  <path id="_3" class="fil0" d="M17.6 0.79c-0.05,0.04 -0.09,0.1 -0.14,0.16 -0.07,0.09 -0.15,0.22 -0.24,0.37l-0.06 0.09 -0.06 0.1c-0.04,0.07 -0.09,0.13 -0.12,0.18 -0.06,0.07 -0.1,0.13 -0.15,0.17 -0.07,0.06 -0.13,0.09 -0.2,0.1 0.07,-0.03 0.12,-0.07 0.17,-0.13 0.04,-0.04 0.08,-0.1 0.13,-0.17 0.03,-0.04 0.06,-0.11 0.11,-0.19l0.11 -0.19c0.1,-0.16 0.18,-0.28 0.25,-0.37 0.06,-0.06 0.11,-0.12 0.16,-0.16 0.08,-0.05 0.15,-0.08 0.21,-0.08 -0.06,0.01 -0.12,0.05 -0.18,0.11zm-2.27 3.19c-0.06,0.04 -0.1,0.08 -0.14,0.11 -0.11,0.08 -0.19,0.16 -0.25,0.23 -0.03,0.05 -0.06,0.1 -0.09,0.15 -0.02,0.04 -0.04,0.1 -0.05,0.17 -0,-0.06 0,-0.12 0.02,-0.18 0.02,-0.06 0.04,-0.11 0.08,-0.17 0.05,-0.08 0.14,-0.17 0.25,-0.26 0.08,-0.06 0.18,-0.12 0.3,-0.2l0.08 -0.05 0.07 -0.05c0.06,-0.04 0.11,-0.07 0.15,-0.1 -0.06,0.07 -0.15,0.15 -0.27,0.23l-0.14 0.1zm-0.6 -2.89c-0.04,0.05 -0.06,0.1 -0.08,0.17 -0.02,0.06 -0.03,0.12 -0.03,0.2 -0.03,-0.06 -0.04,-0.13 -0.03,-0.21 0.01,-0.07 0.03,-0.14 0.08,-0.2 0.04,-0.06 0.1,-0.11 0.17,-0.13 0.07,-0.03 0.14,-0.04 0.21,-0.03 -0.14,0.03 -0.25,0.1 -0.32,0.2zm3.05 -0.69c-0.14,0 -0.28,0.07 -0.42,0.2 -0.1,0.1 -0.22,0.25 -0.34,0.44l-0.07 0.12 -0.04 0.06 -0.03 0.06c-0.06,0.09 -0.1,0.16 -0.13,0.21 -0.09,0.14 -0.16,0.2 -0.21,0.21 -0.05,0 -0.17,-0.09 -0.34,-0.28l-0.03 -0.03 -0.03 -0.04c-0.02,-0.03 -0.04,-0.05 -0.06,-0.07 -0.05,-0.05 -0.1,-0.1 -0.14,-0.15 -0.11,-0.12 -0.23,-0.22 -0.34,-0.31 -0.18,-0.14 -0.36,-0.21 -0.55,-0.21 -0.17,0 -0.33,0.06 -0.46,0.17 -0.13,0.12 -0.21,0.26 -0.24,0.44 -0.03,0.19 0.01,0.37 0.11,0.56 0.08,0.13 0.19,0.27 0.34,0.42 0.06,0.06 0.12,0.12 0.2,0.19l0.1 0.09 0.1 0.08c0.16,0.14 0.28,0.25 0.34,0.32 0.1,0.11 0.15,0.21 0.16,0.29 0.01,0.09 -0.05,0.18 -0.16,0.28 -0.04,0.04 -0.1,0.08 -0.18,0.13l-0.05 0.03 -0.05 0.04 -0.11 0.07c-0.18,0.12 -0.32,0.24 -0.41,0.36 -0.13,0.16 -0.2,0.33 -0.2,0.53 -0.01,0.15 0.02,0.29 0.08,0.42 0.06,0.13 0.15,0.23 0.27,0.31 0.26,0.18 0.59,0.2 0.98,0.08 0.52,-0.16 1.05,-0.61 1.57,-1.36 0.47,-0.67 0.77,-1.31 0.9,-1.92 0.13,-0.62 0.14,-1.08 0.02,-1.38 -0.1,-0.25 -0.29,-0.38 -0.56,-0.37z"/>
  <path id="_4" class="fil0" d="M21.77 3.51c-0.02,0.01 -0.05,0.03 -0.07,0.05l-0.04 0.03 -0.04 0.03c-0.06,0.04 -0.13,0.07 -0.18,0.09 -0.07,0.02 -0.14,0.02 -0.2,0.01 0.12,-0.02 0.24,-0.07 0.34,-0.15l0.04 -0.03 0.04 -0.03c0.04,-0.02 0.07,-0.04 0.09,-0.05 0.07,-0.03 0.14,-0.04 0.2,-0.02 -0.06,0.01 -0.12,0.04 -0.18,0.07zm-2.04 -2.36c-0.12,0.13 -0.23,0.28 -0.33,0.45 -0.08,0.14 -0.16,0.32 -0.23,0.52 0.04,-0.19 0.1,-0.37 0.18,-0.54 0.08,-0.17 0.19,-0.33 0.32,-0.47 0.14,-0.15 0.3,-0.26 0.47,-0.33 0.1,-0.04 0.19,-0.06 0.28,-0.07 0.1,-0.01 0.2,-0.02 0.28,-0.01 -0.21,0.02 -0.39,0.06 -0.54,0.13 -0.17,0.08 -0.32,0.19 -0.45,0.33zm2.8 2.73c-0.03,-0.37 -0.16,-0.6 -0.4,-0.69 -0.1,-0.04 -0.21,-0.05 -0.32,-0.02 -0.12,0.03 -0.23,0.08 -0.33,0.16 -0.1,0.08 -0.21,0.11 -0.32,0.1 -0.1,-0.01 -0.2,-0.06 -0.29,-0.15 -0.09,-0.09 -0.15,-0.21 -0.19,-0.34 -0.04,-0.15 -0.05,-0.32 -0.02,-0.5 0.04,-0.26 0.16,-0.4 0.37,-0.44 0.15,-0.02 0.37,0.01 0.64,0.11 0.12,0.04 0.23,0.04 0.33,-0.01 0.1,-0.04 0.17,-0.12 0.22,-0.23 0.05,-0.11 0.06,-0.24 0.04,-0.37 -0.02,-0.15 -0.08,-0.29 -0.18,-0.42 -0.21,-0.29 -0.49,-0.49 -0.84,-0.59 -0.32,-0.1 -0.64,-0.11 -0.97,-0.03 -0.42,0.1 -0.77,0.37 -1.04,0.81 -0.3,0.48 -0.45,1.07 -0.45,1.77 0,0.8 0.2,1.42 0.61,1.87 0.19,0.21 0.42,0.37 0.68,0.47 0.26,0.1 0.54,0.14 0.84,0.11 0.51,-0.04 0.92,-0.23 1.23,-0.55 0.29,-0.31 0.42,-0.66 0.38,-1.07z"/>
  <path id="_5" class="fil0" d="M25.25 1.53c-0.1,0.12 -0.19,0.22 -0.28,0.3 -0.12,0.1 -0.23,0.18 -0.34,0.22 0.09,-0.06 0.19,-0.14 0.31,-0.26 0.09,-0.09 0.18,-0.19 0.27,-0.3 0.04,-0.05 0.08,-0.11 0.12,-0.16l0.03 -0.04 0.03 -0.04c0.02,-0.04 0.04,-0.06 0.06,-0.08 0.05,-0.05 0.1,-0.1 0.17,-0.13 0.07,-0.03 0.14,-0.05 0.2,-0.04 -0.12,0.01 -0.23,0.08 -0.32,0.2 -0.02,0.02 -0.03,0.05 -0.06,0.08l-0.03 0.04 -0.03 0.04c-0.03,0.05 -0.07,0.1 -0.12,0.17zm-1.39 -0.78c-0.05,0.03 -0.09,0.07 -0.13,0.12 -0.06,0.08 -0.12,0.18 -0.18,0.32 -0.04,0.08 -0.08,0.2 -0.13,0.35l-0.05 0.18 -0.05 0.18c0.01,-0.15 0.03,-0.27 0.06,-0.38 0.03,-0.13 0.07,-0.25 0.12,-0.36 0.06,-0.14 0.13,-0.25 0.2,-0.33 0.05,-0.05 0.1,-0.09 0.16,-0.12 0.07,-0.03 0.13,-0.04 0.19,-0.04 -0.06,0.01 -0.12,0.03 -0.17,0.06zm1.59 2.06c-0.09,-0.05 -0.12,-0.1 -0.07,-0.14 0.02,-0.02 0.06,-0.04 0.11,-0.07l0.04 -0.02 0.04 -0.02c0.04,-0.02 0.07,-0.03 0.1,-0.04 0.18,-0.09 0.32,-0.18 0.43,-0.28 0.16,-0.15 0.28,-0.33 0.34,-0.53 0.06,-0.19 0.06,-0.37 -0.01,-0.55 -0.06,-0.16 -0.17,-0.28 -0.32,-0.36 -0.15,-0.08 -0.31,-0.09 -0.47,-0.05 -0.18,0.05 -0.33,0.17 -0.46,0.36 -0.21,0.33 -0.42,0.55 -0.61,0.67 -0.08,0.05 -0.13,0.06 -0.16,0.04 -0.03,-0.02 -0.02,-0.08 0.02,-0.17 0.17,-0.36 0.22,-0.64 0.16,-0.87 -0.05,-0.18 -0.18,-0.3 -0.38,-0.35 -0.4,-0.09 -0.71,0.11 -0.93,0.6 -0.18,0.4 -0.29,0.98 -0.34,1.74 -0.05,0.77 -0.02,1.38 0.1,1.85 0.15,0.57 0.41,0.84 0.79,0.83 0.35,-0.01 0.55,-0.27 0.6,-0.77 0.02,-0.17 0.02,-0.36 0,-0.57 -0.01,-0.07 -0.02,-0.15 -0.03,-0.22 -0,-0.03 -0.01,-0.06 -0.01,-0.08l-0 -0.03 -0 -0.01 0 -0.01c-0.01,-0.06 -0,-0.11 0.02,-0.13 0.03,-0.02 0.07,-0.01 0.12,0.03 0.13,0.11 0.25,0.38 0.36,0.81 0.07,0.28 0.18,0.5 0.32,0.68 0.13,0.16 0.28,0.27 0.44,0.32 0.16,0.05 0.31,0.05 0.46,-0.01 0.15,-0.06 0.28,-0.17 0.38,-0.32 0.11,-0.17 0.17,-0.36 0.18,-0.58 0,-0.21 -0.04,-0.42 -0.14,-0.64 -0.21,-0.46 -0.58,-0.83 -1.09,-1.12z"/>
  <path id="_6" class="fil0" d="M31.66 0.88c-0.03,0.03 -0.05,0.07 -0.07,0.14 -0.01,0.04 -0.03,0.09 -0.04,0.16l-0.02 0.08 -0.02 0.08c-0.01,-0.05 -0.02,-0.11 -0.01,-0.17 0,-0.06 0.01,-0.12 0.03,-0.17 0.03,-0.07 0.06,-0.12 0.1,-0.15 0.05,-0.04 0.11,-0.04 0.18,-0.03 -0.07,0.02 -0.12,0.04 -0.14,0.07zm-0.07 1.75c-0.04,0.07 -0.09,0.13 -0.15,0.16 -0.07,0.04 -0.14,0.05 -0.21,0.04 0.07,-0.02 0.13,-0.05 0.18,-0.08 0.05,-0.04 0.09,-0.09 0.12,-0.14 0.02,-0.05 0.04,-0.11 0.05,-0.19l0.02 -0.21c0.02,0.07 0.03,0.14 0.03,0.21 0,0.08 -0.01,0.15 -0.04,0.22zm-2.26 -1.83c-0.06,0.04 -0.12,0.12 -0.17,0.21 -0.04,0.09 -0.08,0.17 -0.11,0.26 -0.03,0.08 -0.06,0.17 -0.08,0.27 -0.04,0.14 -0.08,0.33 -0.13,0.56 -0.01,0.08 -0.03,0.18 -0.05,0.29l-0.05 0.28c0,-0.18 0.01,-0.37 0.04,-0.58 0.02,-0.19 0.06,-0.38 0.11,-0.57 0.07,-0.23 0.14,-0.41 0.22,-0.54 0.06,-0.1 0.13,-0.17 0.2,-0.22 0.1,-0.06 0.19,-0.08 0.28,-0.08 -0.09,0.01 -0.18,0.04 -0.26,0.1zm2.59 -0.26c-0.24,-0.03 -0.43,0.04 -0.54,0.21 -0.14,0.21 -0.18,0.58 -0.11,1.1 0.04,0.29 0.06,0.47 0.06,0.55 -0,0.09 -0.04,0.14 -0.1,0.14 -0.03,0 -0.07,-0.03 -0.1,-0.1 -0.03,-0.05 -0.06,-0.14 -0.1,-0.27l-0.01 -0.04 -0.01 -0.04 -0.03 -0.09c-0.03,-0.08 -0.05,-0.14 -0.07,-0.2 -0.06,-0.16 -0.12,-0.29 -0.18,-0.41 -0.19,-0.37 -0.41,-0.63 -0.65,-0.8 -0.3,-0.2 -0.59,-0.22 -0.88,-0.04 -0.23,0.14 -0.42,0.48 -0.55,1.02 -0.13,0.5 -0.19,1.06 -0.19,1.68 0,0.63 0.07,1.16 0.2,1.57 0.15,0.46 0.36,0.69 0.64,0.7 0.42,0 0.63,-0.29 0.61,-0.86 -0,-0.09 -0.01,-0.2 -0.02,-0.32 -0,-0.04 -0.01,-0.09 -0.02,-0.15l-0.01 -0.07 -0.01 -0.07c-0.02,-0.19 -0.02,-0.29 0.01,-0.29 0.03,-0.01 0.05,0 0.07,0.02 0.01,0.01 0.04,0.07 0.07,0.15 0.02,0.05 0.04,0.1 0.06,0.14 0.03,0.06 0.06,0.13 0.1,0.19 0.09,0.17 0.19,0.35 0.32,0.55 0.15,0.23 0.32,0.4 0.53,0.53 0.22,0.13 0.44,0.18 0.66,0.16 0.76,-0.1 1.16,-0.84 1.2,-2.2 0.02,-0.74 -0.05,-1.37 -0.22,-1.88 -0.17,-0.53 -0.41,-0.82 -0.72,-0.86z"/>
  <path id="_7" class="fil0" d="M34.14 1.76c-0.02,0.03 -0.04,0.06 -0.06,0.08 -0.03,0.02 -0.06,0.04 -0.09,0.04 0.06,-0.03 0.1,-0.07 0.13,-0.13 0.02,-0.05 0.04,-0.11 0.05,-0.18 0.02,0.07 0.01,0.13 -0.02,0.2zm-0.19 0.01c-0.04,0.01 -0.07,0 -0.11,-0.03 -0.03,-0.03 -0.06,-0.08 -0.07,-0.13 -0.01,-0.06 -0.01,-0.11 0.01,-0.16 0.02,-0.05 0.04,-0.08 0.08,-0.09 0.04,-0.01 0.07,0 0.1,0.03 0.03,0.03 0.06,0.08 0.07,0.13 0.01,0.06 0.01,0.11 -0.01,0.16 -0.02,0.05 -0.04,0.08 -0.08,0.09zm-0.46 -1.07c-0.04,0.06 -0.08,0.14 -0.11,0.23 -0.03,0.07 -0.05,0.16 -0.06,0.25 0,-0.03 0.01,-0.08 0.01,-0.13 0.01,-0.04 0.02,-0.08 0.03,-0.13 0.03,-0.09 0.06,-0.17 0.11,-0.24 0.05,-0.08 0.12,-0.14 0.19,-0.17 0.04,-0.02 0.08,-0.03 0.12,-0.04 0.04,-0.01 0.09,-0.01 0.13,-0.01 -0.1,0.01 -0.18,0.03 -0.24,0.07 -0.07,0.04 -0.13,0.1 -0.18,0.17zm0.59 -0.34c-0.27,-0.05 -0.49,0.02 -0.65,0.21 -0.14,0.17 -0.22,0.4 -0.24,0.69 -0.01,0.28 0.04,0.54 0.15,0.76 0.12,0.25 0.29,0.39 0.51,0.44 0.2,0.04 0.38,-0.03 0.54,-0.22 0.14,-0.18 0.24,-0.4 0.28,-0.68 0.04,-0.29 0.02,-0.54 -0.07,-0.75 -0.1,-0.24 -0.28,-0.39 -0.52,-0.44z"/>
  <path id="_8" class="fil0" d="M38.08 2.57c-0.07,0.05 -0.15,0.1 -0.25,0.13 -0.11,0.03 -0.19,0.07 -0.24,0.1 -0.09,0.06 -0.14,0.13 -0.14,0.21 -0.01,-0.04 0,-0.09 0.02,-0.14 0.02,-0.04 0.05,-0.08 0.09,-0.11 0.06,-0.04 0.14,-0.09 0.25,-0.12 0.09,-0.03 0.17,-0.07 0.24,-0.11 0.08,-0.05 0.14,-0.12 0.19,-0.19 -0.02,0.09 -0.07,0.16 -0.16,0.23zm-1 1.61c-0.12,-0.01 -0.22,-0.01 -0.3,-0.01 -0.06,0.01 -0.11,0.02 -0.13,0.04 -0.02,0.01 -0.03,0.03 -0.04,0.05l-0.01 0.04 -0.01 0.04c0,-0.03 0,-0.06 0,-0.08 0,-0.03 0.02,-0.06 0.04,-0.08 0.03,-0.03 0.08,-0.05 0.15,-0.06 0.08,-0.01 0.18,-0.02 0.31,-0.01 0.08,0.01 0.18,0.02 0.3,0.04l0.15 0.02 0.16 0.03c-0.09,0.01 -0.19,0.01 -0.31,0l-0.16 -0.01 -0.15 -0.01zm0.24 -3.31c-0.15,0.06 -0.27,0.12 -0.36,0.18 -0.05,0.03 -0.11,0.07 -0.16,0.11 -0.05,0.04 -0.1,0.08 -0.14,0.13 -0.1,0.11 -0.15,0.24 -0.14,0.36 -0.01,-0.06 -0.01,-0.13 0.01,-0.21 0.02,-0.07 0.05,-0.13 0.1,-0.19 0.07,-0.1 0.17,-0.19 0.31,-0.27 0.24,-0.14 0.5,-0.23 0.78,-0.26 -0.13,0.04 -0.26,0.09 -0.38,0.14zm2.22 2.49c-0.06,-0.08 -0.13,-0.16 -0.21,-0.23 -0.05,-0.04 -0.12,-0.09 -0.19,-0.13l-0.04 -0.03 -0.03 -0.02c-0.03,-0.02 -0.05,-0.03 -0.06,-0.04 -0.03,-0.03 -0.06,-0.06 -0.06,-0.09 -0,-0.04 0.02,-0.09 0.08,-0.15 0.02,-0.02 0.05,-0.05 0.1,-0.09l0.03 -0.03 0.03 -0.02 0.06 -0.06c0.1,-0.09 0.18,-0.19 0.24,-0.27 0.08,-0.12 0.13,-0.25 0.15,-0.38 0.06,-0.34 -0.02,-0.64 -0.22,-0.89 -0.21,-0.26 -0.54,-0.42 -0.99,-0.49 -0.22,-0.04 -0.46,-0.03 -0.73,0.01 -0.27,0.04 -0.51,0.12 -0.74,0.23 -0.24,0.12 -0.43,0.26 -0.55,0.42 -0.14,0.18 -0.2,0.38 -0.18,0.58 0.06,0.51 0.49,0.66 1.29,0.45 0.13,-0.03 0.24,-0.05 0.33,-0.04 0.07,0.01 0.11,0.03 0.13,0.07 0.01,0.04 -0,0.08 -0.05,0.13 -0.05,0.05 -0.13,0.09 -0.23,0.12 -0.37,0.12 -0.55,0.32 -0.54,0.6 0.01,0.14 0.06,0.26 0.15,0.35 0.1,0.1 0.24,0.14 0.41,0.13 0.17,-0 0.27,0.04 0.31,0.15 0.02,0.04 0.02,0.08 -0,0.13 -0.02,0.04 -0.05,0.08 -0.11,0.11 -0.08,0.04 -0.22,0.05 -0.41,0.03 -0.04,-0 -0.08,-0.01 -0.13,-0.01l-0.13 -0.01c-0.11,-0.01 -0.2,-0.02 -0.27,-0.03 -0.2,-0.01 -0.36,0.01 -0.46,0.06 -0.13,0.07 -0.21,0.2 -0.23,0.38 -0.02,0.21 0.08,0.42 0.3,0.62 0.2,0.19 0.47,0.33 0.8,0.44 0.34,0.11 0.67,0.15 0.99,0.13 0.36,-0.02 0.65,-0.12 0.87,-0.29 0.32,-0.24 0.49,-0.56 0.52,-0.94 0.03,-0.35 -0.05,-0.65 -0.24,-0.91z"/>
  <path id="_9" class="fil0" d="M3.21 11.07c-0.03,0 -0.07,0 -0.12,0.01l-0.06 0.01 -0.06 0c0.07,-0.05 0.15,-0.08 0.24,-0.08 0.05,0 0.09,0.01 0.13,0.02 0.04,0.02 0.08,0.04 0.1,0.08 -0.08,-0.02 -0.16,-0.04 -0.23,-0.03zm-2.01 -1.15c-0.05,0.05 -0.1,0.11 -0.15,0.16 -0.11,0.12 -0.19,0.24 -0.25,0.34 -0.08,0.12 -0.14,0.25 -0.17,0.39 -0.04,0.13 -0.05,0.28 -0.05,0.43l-0.02 -0.11 -0 -0.05 0 -0.06 0 -0.05 0 -0.06 0.01 -0.05 0.01 -0.06c0.03,-0.14 0.08,-0.28 0.16,-0.41 0.08,-0.13 0.17,-0.24 0.27,-0.34 0.05,-0.05 0.11,-0.1 0.17,-0.15l0.09 -0.06c0.03,-0.02 0.06,-0.04 0.09,-0.06l-0.08 0.07 -0.08 0.08zm0.35 -2.27c-0.07,0.03 -0.13,0.06 -0.19,0.1 -0.13,0.07 -0.25,0.15 -0.36,0.23 -0.11,0.09 -0.21,0.19 -0.31,0.3 -0.05,0.06 -0.09,0.12 -0.12,0.18 -0.04,0.07 -0.07,0.14 -0.07,0.2 -0,-0.12 0.04,-0.26 0.15,-0.41 0.08,-0.12 0.18,-0.22 0.31,-0.32 0.13,-0.1 0.25,-0.17 0.38,-0.23 0.07,-0.03 0.14,-0.06 0.2,-0.08 0.08,-0.02 0.15,-0.04 0.22,-0.05l-0.1 0.04c-0.04,0.01 -0.07,0.03 -0.1,0.04zm1.32 3.18c-0.2,0.08 -0.38,0.11 -0.55,0.1 -0.14,-0.01 -0.22,-0.04 -0.25,-0.1 -0.01,-0.03 -0.02,-0.05 -0.02,-0.08 -0,-0.04 0.01,-0.08 0.03,-0.13 0.06,-0.12 0.19,-0.24 0.41,-0.37 0.28,-0.17 0.51,-0.39 0.7,-0.65 0.18,-0.26 0.3,-0.52 0.35,-0.8 0.06,-0.29 0.03,-0.55 -0.07,-0.78 -0.11,-0.25 -0.3,-0.45 -0.57,-0.58 -0.32,-0.16 -0.67,-0.22 -1.03,-0.17 -0.32,0.04 -0.62,0.16 -0.91,0.35 -0.27,0.18 -0.47,0.39 -0.6,0.62 -0.13,0.24 -0.16,0.45 -0.09,0.63 0.07,0.17 0.21,0.28 0.41,0.31 0.21,0.03 0.46,-0.02 0.75,-0.16 0.16,-0.08 0.28,-0.12 0.34,-0.14 0.07,-0.01 0.12,-0 0.15,0.03 0.07,0.07 -0.01,0.18 -0.26,0.33 -0.46,0.27 -0.81,0.56 -1.04,0.89 -0.29,0.41 -0.38,0.85 -0.27,1.31 0.08,0.32 0.31,0.56 0.68,0.72 0.31,0.12 0.7,0.19 1.17,0.19 0.47,0 0.86,-0.06 1.16,-0.19 0.31,-0.13 0.49,-0.32 0.54,-0.56 0.03,-0.12 0.02,-0.24 -0.02,-0.36 -0.04,-0.12 -0.1,-0.22 -0.19,-0.31 -0.1,-0.09 -0.21,-0.15 -0.34,-0.17 -0.15,-0.02 -0.31,-0 -0.47,0.06z"/>
  <path id="_10" class="fil0" d="M6.53 10.65c-0.04,0.08 -0.09,0.14 -0.15,0.19 -0.07,0.05 -0.14,0.09 -0.22,0.1 0.14,-0.07 0.24,-0.18 0.31,-0.32 0.06,-0.11 0.1,-0.25 0.12,-0.44 0.04,0.16 0.02,0.32 -0.05,0.47zm-0.45 0.02c-0.09,0.03 -0.17,0 -0.25,-0.08 -0.08,-0.08 -0.14,-0.19 -0.17,-0.32 -0.03,-0.14 -0.02,-0.26 0.02,-0.38 0.04,-0.12 0.11,-0.19 0.19,-0.21 0.09,-0.03 0.17,0 0.25,0.08 0.08,0.08 0.14,0.18 0.17,0.32 0.03,0.14 0.02,0.26 -0.02,0.38 -0.04,0.12 -0.11,0.19 -0.19,0.21zm-1.09 -2.56c-0.1,0.14 -0.19,0.32 -0.27,0.54 -0.06,0.18 -0.11,0.38 -0.15,0.6 0,-0.08 0.01,-0.18 0.03,-0.31 0.02,-0.1 0.04,-0.2 0.07,-0.3 0.06,-0.21 0.15,-0.4 0.27,-0.57 0.13,-0.19 0.29,-0.33 0.47,-0.41 0.09,-0.04 0.19,-0.08 0.3,-0.1 0.11,-0.02 0.21,-0.02 0.31,-0.01 -0.23,0.02 -0.42,0.07 -0.58,0.16 -0.17,0.1 -0.31,0.23 -0.43,0.41zm1.41 -0.81c-0.65,-0.12 -1.17,0.04 -1.56,0.49 -0.34,0.4 -0.53,0.95 -0.57,1.64 -0.03,0.67 0.09,1.28 0.36,1.83 0.29,0.59 0.7,0.95 1.21,1.06 0.48,0.1 0.91,-0.07 1.29,-0.53 0.35,-0.42 0.57,-0.96 0.68,-1.64 0.11,-0.69 0.05,-1.29 -0.17,-1.81 -0.25,-0.58 -0.66,-0.93 -1.24,-1.04z"/>
  <path id="_11" class="fil0" d="M11.19 11.07c-0.03,0 -0.07,0 -0.12,0.01l-0.06 0.01 -0.06 0c0.07,-0.05 0.15,-0.08 0.24,-0.08 0.05,0 0.09,0.01 0.13,0.02 0.04,0.02 0.08,0.04 0.1,0.08 -0.08,-0.02 -0.16,-0.04 -0.23,-0.03zm-2.01 -1.15c-0.05,0.05 -0.1,0.11 -0.15,0.16 -0.11,0.12 -0.19,0.24 -0.25,0.34 -0.08,0.12 -0.14,0.25 -0.17,0.39 -0.03,0.13 -0.05,0.28 -0.05,0.43l-0.02 -0.11 -0 -0.05 0 -0.06 0 -0.05 0 -0.06 0.01 -0.05 0.01 -0.06c0.03,-0.14 0.08,-0.28 0.16,-0.41 0.08,-0.13 0.17,-0.24 0.27,-0.34 0.05,-0.05 0.11,-0.1 0.17,-0.15l0.09 -0.06c0.03,-0.02 0.06,-0.04 0.09,-0.06l-0.08 0.07 -0.08 0.08zm0.35 -2.27c-0.07,0.03 -0.13,0.06 -0.19,0.1 -0.13,0.07 -0.25,0.15 -0.36,0.23 -0.11,0.09 -0.21,0.19 -0.31,0.3 -0.05,0.06 -0.09,0.12 -0.12,0.18 -0.04,0.07 -0.07,0.14 -0.07,0.2 -0,-0.12 0.04,-0.26 0.15,-0.41 0.08,-0.12 0.18,-0.22 0.31,-0.32 0.13,-0.1 0.25,-0.17 0.38,-0.23 0.07,-0.03 0.14,-0.06 0.2,-0.08 0.08,-0.02 0.15,-0.04 0.22,-0.05l-0.1 0.04c-0.04,0.01 -0.07,0.03 -0.1,0.04zm1.32 3.18c-0.2,0.08 -0.38,0.11 -0.55,0.1 -0.14,-0.01 -0.22,-0.04 -0.25,-0.1 -0.01,-0.03 -0.02,-0.05 -0.02,-0.08 -0,-0.04 0.01,-0.08 0.03,-0.13 0.06,-0.12 0.19,-0.24 0.41,-0.37 0.28,-0.17 0.51,-0.39 0.7,-0.65 0.18,-0.26 0.3,-0.52 0.35,-0.8 0.06,-0.29 0.03,-0.55 -0.07,-0.78 -0.11,-0.25 -0.3,-0.45 -0.57,-0.58 -0.32,-0.16 -0.67,-0.22 -1.03,-0.17 -0.32,0.04 -0.62,0.16 -0.91,0.35 -0.27,0.18 -0.47,0.39 -0.6,0.62 -0.13,0.24 -0.16,0.45 -0.09,0.63 0.07,0.17 0.21,0.28 0.41,0.31 0.21,0.03 0.46,-0.02 0.75,-0.16 0.16,-0.08 0.28,-0.12 0.34,-0.14 0.07,-0.01 0.12,-0 0.15,0.03 0.07,0.07 -0.01,0.18 -0.26,0.33 -0.46,0.27 -0.81,0.56 -1.04,0.89 -0.29,0.41 -0.38,0.85 -0.27,1.31 0.08,0.32 0.31,0.56 0.68,0.72 0.31,0.12 0.7,0.19 1.17,0.19 0.47,0 0.86,-0.06 1.16,-0.19 0.31,-0.13 0.49,-0.32 0.54,-0.56 0.03,-0.12 0.02,-0.24 -0.02,-0.36 -0.04,-0.12 -0.1,-0.22 -0.19,-0.31 -0.1,-0.09 -0.21,-0.15 -0.34,-0.17 -0.15,-0.02 -0.3,-0 -0.47,0.06z"/>
  <path id="_12" class="fil0" d="M19.04 7.6c-0.1,0.03 -0.2,0.06 -0.29,0.11 -0.2,0.1 -0.36,0.21 -0.49,0.36 -0.06,0.06 -0.11,0.15 -0.15,0.25 -0.03,0.08 -0.06,0.17 -0.09,0.29 -0.02,0.09 -0.04,0.2 -0.06,0.3 -0.01,0.04 -0.01,0.1 -0.02,0.16l-0.01 0.15c-0.01,-0.22 0,-0.43 0.04,-0.62 0.05,-0.25 0.13,-0.45 0.24,-0.58 0.14,-0.15 0.31,-0.27 0.52,-0.36 0.09,-0.04 0.19,-0.07 0.3,-0.09 0.11,-0.02 0.21,-0.04 0.31,-0.04 -0.12,0.02 -0.22,0.04 -0.3,0.07zm2.04 0.46c-0.02,-0.21 -0.14,-0.38 -0.37,-0.53 -0.22,-0.14 -0.49,-0.23 -0.82,-0.27 -0.34,-0.04 -0.67,-0.01 -0.98,0.08 -0.35,0.1 -0.64,0.27 -0.85,0.5 -0.2,0.22 -0.33,0.56 -0.38,1.04 -0.04,0.44 -0.02,0.91 0.07,1.42 0.09,0.51 0.23,0.95 0.42,1.31 0.2,0.39 0.43,0.62 0.67,0.7 0.36,0.1 0.61,0.02 0.76,-0.27 0.13,-0.25 0.15,-0.58 0.07,-1 -0.01,-0.06 -0.03,-0.14 -0.05,-0.24 -0.01,-0.03 -0.02,-0.07 -0.03,-0.14l-0.02 -0.07 -0.01 -0.08c-0.06,-0.26 -0.1,-0.46 -0.13,-0.62 -0.08,-0.51 -0.06,-0.84 0.06,-0.97 0.06,-0.06 0.18,-0.1 0.38,-0.13 0.03,-0 0.08,-0.01 0.13,-0.01l0.14 -0.01c0.12,-0.01 0.21,-0.02 0.28,-0.03 0.22,-0.03 0.38,-0.09 0.48,-0.18 0.14,-0.11 0.2,-0.28 0.18,-0.49z"/>
  <path id="_13" class="fil0" d="M23.86 10.75c-0.05,0.06 -0.1,0.11 -0.17,0.14 -0.07,0.04 -0.13,0.05 -0.2,0.05 0.13,-0.05 0.24,-0.13 0.31,-0.23 0.07,-0.1 0.12,-0.22 0.14,-0.37 0.03,0.15 0,0.28 -0.09,0.41zm-0.74 -0.36c-0.01,-0.09 0,-0.17 0.04,-0.25 0.04,-0.07 0.1,-0.11 0.18,-0.13 0.07,-0.01 0.14,0.01 0.21,0.07 0.06,0.05 0.1,0.13 0.12,0.22 0.02,0.09 0,0.17 -0.04,0.24 -0.04,0.07 -0.1,0.12 -0.18,0.13 -0.07,0.01 -0.14,-0.01 -0.21,-0.06 -0.06,-0.05 -0.1,-0.13 -0.12,-0.22zm-0.18 -2.73c-0.18,0.07 -0.34,0.18 -0.48,0.31 -0.13,0.12 -0.25,0.27 -0.36,0.45l-0.03 0.06 -0.04 0.06 -0.06 0.13 -0.06 0.14 -0.05 0.14c0.04,-0.2 0.11,-0.38 0.2,-0.56 0.09,-0.18 0.21,-0.34 0.36,-0.48 0.16,-0.15 0.33,-0.25 0.51,-0.31 0.09,-0.03 0.19,-0.05 0.29,-0.07l0.07 -0.01 0.07 -0 0.15 0c-0.21,0.02 -0.4,0.06 -0.57,0.13zm1.18 -0.33c-0.73,-0.18 -1.33,-0.06 -1.82,0.36 -0.43,0.37 -0.7,0.9 -0.8,1.59 -0.1,0.67 -0.02,1.29 0.23,1.86 0.27,0.62 0.7,1 1.27,1.16 0.54,0.15 1.04,0.01 1.52,-0.42 0.43,-0.39 0.74,-0.91 0.93,-1.57 0.19,-0.67 0.18,-1.28 -0.01,-1.82 -0.22,-0.6 -0.66,-0.99 -1.31,-1.15z"/>
  <path id="_14" class="fil0" d="M29.36 10.58c-0.02,0.08 -0.07,0.15 -0.13,0.2 -0.06,0.05 -0.13,0.08 -0.22,0.1 -0.08,0.01 -0.15,0.01 -0.23,0 0.09,-0.02 0.16,-0.04 0.22,-0.05 0.08,-0.03 0.14,-0.06 0.19,-0.1 0.05,-0.04 0.09,-0.1 0.12,-0.17 0.02,-0.05 0.04,-0.12 0.05,-0.22 0.02,0.08 0.02,0.16 0,0.23zm-0.9 -0.09c-0.05,-0.08 -0.03,-0.22 0.05,-0.4 0.08,-0.19 0.16,-0.28 0.26,-0.28 0.11,0 0.2,0.1 0.27,0.3 0.03,0.08 0.04,0.16 0.05,0.24 0,0.08 -0,0.14 -0.03,0.18 -0.04,0.06 -0.13,0.08 -0.29,0.08 -0.16,-0 -0.26,-0.04 -0.3,-0.11zm-0.48 -2.3c-0.1,0.14 -0.19,0.3 -0.28,0.48 -0.07,0.14 -0.14,0.31 -0.22,0.51 0.04,-0.18 0.1,-0.35 0.17,-0.53 0.07,-0.17 0.16,-0.33 0.27,-0.5 0.12,-0.18 0.24,-0.32 0.38,-0.42 0.07,-0.06 0.16,-0.11 0.24,-0.15 0.09,-0.04 0.18,-0.06 0.27,-0.05 -0.16,0.02 -0.32,0.1 -0.48,0.24 -0.12,0.11 -0.24,0.25 -0.35,0.42zm-1.56 2.78c-0.06,0.03 -0.1,0.06 -0.14,0.09 -0.04,0.04 -0.07,0.08 -0.09,0.14 -0.01,-0.06 0.01,-0.12 0.05,-0.17 0.03,-0.04 0.08,-0.08 0.14,-0.11 0.11,-0.06 0.22,-0.08 0.34,-0.08l-0.08 0.04 -0.08 0.04c-0.06,0.03 -0.11,0.05 -0.15,0.07zm4.3 -0.42c-0.1,-0.03 -0.16,-0.06 -0.21,-0.11 -0.04,-0.04 -0.07,-0.11 -0.08,-0.2 -0.01,-0.05 -0.02,-0.16 -0.03,-0.32 -0,-0.08 -0.01,-0.16 -0.02,-0.22 -0.01,-0.09 -0.02,-0.17 -0.03,-0.26 -0.1,-0.7 -0.29,-1.24 -0.58,-1.63 -0.27,-0.36 -0.58,-0.54 -0.94,-0.55 -0.31,-0.01 -0.62,0.16 -0.92,0.5 -0.3,0.35 -0.53,0.79 -0.69,1.34 -0.06,0.22 -0.11,0.44 -0.15,0.66 -0.01,0.04 -0.01,0.08 -0.02,0.12l-0.01 0.06 -0.01 0.05c-0.01,0.09 -0.02,0.15 -0.03,0.19 -0.02,0.12 -0.06,0.2 -0.1,0.25 -0.05,0.06 -0.12,0.1 -0.23,0.12 -0.31,0.06 -0.52,0.18 -0.64,0.33 -0.11,0.14 -0.14,0.31 -0.08,0.51 0.08,0.29 0.4,0.51 0.95,0.68 0.5,0.15 1.12,0.23 1.87,0.25 0.68,0.02 1.2,-0 1.57,-0.06 0.54,-0.09 0.89,-0.27 1.05,-0.54 0.15,-0.26 0.15,-0.5 0.03,-0.72 -0.13,-0.21 -0.36,-0.37 -0.69,-0.46z"/>
  <path id="_15" class="fil0" d="M14.57 8.5c0.02,0.19 0,0.34 -0.04,0.47 -0.03,0.08 -0.07,0.15 -0.12,0.21 -0.06,0.06 -0.12,0.1 -0.19,0.13 0.13,-0.08 0.22,-0.2 0.27,-0.36 0.03,-0.13 0.04,-0.28 0.02,-0.46 -0.01,-0.18 -0.02,-0.34 -0.01,-0.47 0.01,-0.09 0.02,-0.17 0.04,-0.23 0.03,-0.1 0.06,-0.17 0.1,-0.21 -0.04,0.05 -0.06,0.13 -0.07,0.22 -0.01,0.07 -0.02,0.15 -0.02,0.23 0,0.15 0.01,0.3 0.02,0.47zm-1.69 -0.74c-0.05,0.07 -0.1,0.16 -0.14,0.26 -0.03,0.06 -0.06,0.15 -0.1,0.28l-0.04 0.15 -0.04 0.14c0,-0.12 0.01,-0.21 0.03,-0.3 0.02,-0.11 0.05,-0.21 0.09,-0.29 0.05,-0.11 0.1,-0.19 0.16,-0.26 0.04,-0.05 0.09,-0.08 0.12,-0.1 0.05,-0.03 0.1,-0.04 0.15,-0.04 -0.07,0.01 -0.15,0.07 -0.23,0.17zm3.02 1.83c-0.02,-0.72 -0.11,-1.27 -0.27,-1.67 -0.19,-0.45 -0.47,-0.67 -0.83,-0.67 -0.42,0.01 -0.6,0.43 -0.52,1.28 0.02,0.19 -0,0.33 -0.05,0.43 -0.05,0.09 -0.12,0.13 -0.22,0.13 -0.11,-0 -0.19,-0.05 -0.23,-0.13 -0.05,-0.08 -0.07,-0.22 -0.06,-0.4 0.02,-0.45 -0.02,-0.78 -0.12,-0.97 -0.09,-0.18 -0.25,-0.27 -0.47,-0.27 -0.2,0 -0.38,0.11 -0.52,0.34 -0.15,0.22 -0.24,0.52 -0.29,0.88 -0.06,0.4 -0.05,0.75 0.02,1.04 0.05,0.24 0.16,0.46 0.31,0.65 0.16,0.21 0.4,0.33 0.71,0.36 0.1,0.01 0.21,0.01 0.34,-0 0.02,-0 0.04,-0.01 0.07,-0.01l0.03 -0 0.03 -0c0.05,-0 0.08,-0.01 0.1,-0.01 0.1,-0.01 0.17,0.03 0.23,0.11 0.08,0.1 0.12,0.27 0.12,0.51 0,0.39 0.08,0.69 0.22,0.88 0.13,0.18 0.31,0.27 0.54,0.27 0.63,0.02 0.93,-0.9 0.88,-2.75z"/>
  <path class="fil1" d="M2.58 3.57c-0.04,0.08 -0.1,0.14 -0.17,0.18 -0.08,0.04 -0.15,0.06 -0.24,0.04 0.08,-0.01 0.15,-0.04 0.21,-0.08 0.06,-0.05 0.11,-0.1 0.14,-0.17 0.06,-0.12 0.07,-0.27 0.04,-0.44 0.04,0.07 0.07,0.15 0.07,0.23 0.01,0.08 -0.01,0.17 -0.05,0.24zm-0.65 -0.21c-0.04,-0.07 -0.05,-0.14 -0.05,-0.21 0.01,-0.07 0.04,-0.12 0.09,-0.15 0.05,-0.03 0.1,-0.03 0.17,0 0.06,0.03 0.12,0.08 0.16,0.15 0.04,0.07 0.05,0.14 0.05,0.21 -0.01,0.07 -0.04,0.12 -0.08,0.15 -0.05,0.03 -0.1,0.03 -0.17,0 -0.06,-0.03 -0.11,-0.08 -0.16,-0.15zm-0.31 -1.48c0.06,-0.01 0.11,-0.04 0.16,-0.06 0.05,-0.03 0.09,-0.06 0.13,-0.1 0.04,-0.04 0.07,-0.08 0.1,-0.13 0.03,-0.04 0.05,-0.1 0.07,-0.15 0.01,0.12 -0.03,0.23 -0.12,0.33 -0.05,0.04 -0.1,0.08 -0.16,0.1 -0.06,0.02 -0.12,0.03 -0.18,0.01zm-0.07 -0.51c0.03,-0.05 0.06,-0.08 0.1,-0.1 0.04,-0.02 0.08,-0.02 0.11,0 0.03,0.02 0.05,0.05 0.05,0.1 0,0.04 -0.01,0.09 -0.03,0.13 -0.03,0.05 -0.06,0.08 -0.1,0.1 -0.04,0.02 -0.08,0.02 -0.11,0 -0.03,-0.02 -0.05,-0.05 -0.05,-0.1 -0,-0.04 0.01,-0.09 0.03,-0.13zm-0.6 -0.63c-0.06,0.06 -0.11,0.13 -0.17,0.22 -0.09,0.13 -0.17,0.3 -0.25,0.49 -0.06,0.15 -0.11,0.33 -0.17,0.54 0.02,-0.18 0.06,-0.37 0.12,-0.55 0.06,-0.19 0.14,-0.36 0.24,-0.52 0.12,-0.18 0.25,-0.31 0.41,-0.4 0.1,-0.05 0.18,-0.09 0.27,-0.11 0.1,-0.02 0.19,-0.03 0.28,-0.03 -0.19,0.02 -0.37,0.08 -0.52,0.18 -0.08,0.05 -0.15,0.11 -0.21,0.18zm1.52 1.35c-0.04,-0.02 -0.05,-0.05 -0.03,-0.12 0.01,-0.02 0.03,-0.06 0.05,-0.1l0.02 -0.03 0.02 -0.03c0.01,-0.03 0.03,-0.05 0.04,-0.07 0.06,-0.13 0.11,-0.25 0.13,-0.37 0.04,-0.17 0.04,-0.34 0.01,-0.52 -0.03,-0.2 -0.15,-0.37 -0.34,-0.51 -0.19,-0.14 -0.42,-0.22 -0.67,-0.22 -0.28,-0.01 -0.53,0.07 -0.77,0.23 -0.27,0.19 -0.48,0.48 -0.64,0.86 -0.16,0.4 -0.25,0.84 -0.26,1.31 -0.01,0.48 0.05,0.92 0.19,1.33 0.16,0.44 0.39,0.78 0.69,1.01 0.34,0.26 0.75,0.37 1.23,0.34 0.46,-0.03 0.82,-0.18 1.09,-0.45 0.25,-0.24 0.38,-0.54 0.41,-0.91 0.02,-0.36 -0.06,-0.69 -0.26,-1.01 -0.21,-0.34 -0.52,-0.59 -0.92,-0.75z"/>
  <path id="_1_0" class="fil1" d="M6.37 3.65c-0.04,0.07 -0.1,0.11 -0.17,0.15 -0.07,0.03 -0.14,0.04 -0.21,0.03 0.15,-0.03 0.26,-0.1 0.33,-0.21 0.03,-0.05 0.06,-0.11 0.08,-0.18 0.01,-0.06 0.02,-0.13 0.02,-0.21 0.03,0.07 0.04,0.14 0.03,0.22 -0,0.08 -0.03,0.15 -0.07,0.21zm-0.62 -0.27c-0.03,-0.07 -0.05,-0.14 -0.03,-0.2 0.01,-0.07 0.04,-0.12 0.09,-0.14 0.05,-0.02 0.11,-0.02 0.17,0.01 0.06,0.03 0.11,0.08 0.14,0.15 0.04,0.07 0.05,0.14 0.04,0.21 -0.01,0.07 -0.04,0.11 -0.09,0.14 -0.05,0.03 -0.1,0.02 -0.16,-0.01 -0.06,-0.03 -0.11,-0.08 -0.15,-0.15zm-0.33 -2.94c-0.04,0.02 -0.09,0.05 -0.15,0.1 -0.08,0.07 -0.16,0.15 -0.24,0.25 -0.06,0.07 -0.13,0.17 -0.21,0.29 -0.03,0.04 -0.06,0.09 -0.1,0.15l-0.09 0.15c0.05,-0.13 0.1,-0.24 0.14,-0.33 0.06,-0.11 0.13,-0.22 0.2,-0.31 0.09,-0.11 0.18,-0.19 0.27,-0.25 0.12,-0.08 0.24,-0.12 0.34,-0.11 -0.06,0.01 -0.11,0.03 -0.17,0.06zm0.92 1.72c-0.12,-0.04 -0.2,-0.1 -0.23,-0.2 -0.03,-0.07 -0.03,-0.18 -0,-0.32 0,-0.03 0.01,-0.06 0.02,-0.1l0.02 -0.1c0.02,-0.09 0.03,-0.17 0.04,-0.22 0.03,-0.18 0.03,-0.34 0.02,-0.48 -0.03,-0.2 -0.1,-0.36 -0.22,-0.47 -0.13,-0.12 -0.27,-0.17 -0.45,-0.15 -0.19,0.02 -0.38,0.11 -0.57,0.29 -0.21,0.2 -0.41,0.49 -0.58,0.86 -0.18,0.39 -0.3,0.81 -0.35,1.26 -0.05,0.47 -0.03,0.9 0.08,1.29 0.11,0.43 0.31,0.76 0.58,1 0.31,0.26 0.7,0.4 1.17,0.39 0.45,-0 0.82,-0.14 1.12,-0.41 0.27,-0.24 0.43,-0.55 0.49,-0.92 0.05,-0.37 -0.01,-0.71 -0.2,-1.02 -0.2,-0.34 -0.52,-0.57 -0.94,-0.7zm1.48 -1.64c-0.04,0.04 -0.07,0.08 -0.09,0.13 -0.02,0.05 -0.03,0.11 -0.03,0.17 -0,0.09 0,0.21 0.03,0.35l0.04 0.17 0.03 0.18c-0.05,-0.13 -0.09,-0.24 -0.12,-0.34 -0.04,-0.14 -0.05,-0.26 -0.05,-0.37 0.01,-0.07 0.02,-0.13 0.04,-0.19 0.03,-0.07 0.07,-0.12 0.11,-0.16 0.1,-0.07 0.21,-0.1 0.35,-0.09 -0.13,0.01 -0.24,0.06 -0.31,0.13zm1.24 0.2c-0.1,-0.19 -0.23,-0.33 -0.39,-0.44 -0.14,-0.09 -0.3,-0.15 -0.46,-0.16 -0.16,-0.01 -0.3,0.01 -0.43,0.08 -0.13,0.06 -0.23,0.16 -0.29,0.27 -0.11,0.22 -0.11,0.55 0.01,0.98 0.02,0.07 0.04,0.16 0.08,0.27l0.04 0.14 0.04 0.13c0.06,0.22 0.1,0.4 0.12,0.54 0.04,0.34 0.06,0.7 0.05,1.06 -0,0.12 -0.01,0.25 -0.02,0.41l-0 0.09 -0 0.09c-0,0.07 -0.01,0.12 -0.01,0.16 -0.01,0.22 0.01,0.38 0.04,0.48 0.04,0.12 0.13,0.19 0.26,0.22 0.26,0.06 0.49,-0.08 0.69,-0.41 0.18,-0.3 0.32,-0.71 0.42,-1.23 0.09,-0.5 0.13,-1 0.11,-1.49 -0.02,-0.52 -0.11,-0.92 -0.26,-1.19z"/>
  <path id="_2_1" class="fil1" d="M10.95 0.55c-0.02,0.01 -0.05,0.02 -0.07,0.04l-0.07 0.04 -0.07 0.04c-0.03,0.02 -0.05,0.03 -0.07,0.05 -0.08,0.05 -0.16,0.12 -0.25,0.2 -0.1,0.1 -0.17,0.18 -0.2,0.24 -0.12,0.17 -0.19,0.36 -0.23,0.59 -0.01,0.05 -0.02,0.1 -0.02,0.16l-0.01 0.16c-0,0.05 -0.01,0.1 -0.01,0.16l-0 0.16c-0.03,-0.23 -0.03,-0.45 -0.01,-0.66 0.02,-0.23 0.1,-0.44 0.22,-0.62l0.05 -0.07 0.05 -0.06c0.01,-0.02 0.03,-0.04 0.05,-0.06l0.03 -0.03 0.03 -0.03c0.11,-0.09 0.19,-0.16 0.27,-0.2 0.18,-0.11 0.39,-0.19 0.61,-0.22l-0.08 0.03 -0.08 0.02c-0.06,0.02 -0.11,0.04 -0.15,0.06zm2.49 0.66c-0.2,-0.43 -0.5,-0.74 -0.92,-0.92 -0.38,-0.17 -0.78,-0.22 -1.21,-0.15 -0.43,0.07 -0.79,0.25 -1.09,0.52 -0.32,0.3 -0.5,0.66 -0.54,1.09 -0.08,0.8 0.05,1.59 0.37,2.36 0.14,0.35 0.31,0.62 0.49,0.81 0.19,0.2 0.38,0.29 0.57,0.27 0.26,-0.03 0.42,-0.19 0.48,-0.46 0.06,-0.31 0.02,-0.85 -0.12,-1.61 -0.11,-0.6 -0.05,-0.92 0.2,-0.96 0.14,-0.02 0.25,0.09 0.33,0.32 0.07,0.21 0.1,0.48 0.09,0.81 -0.03,0.72 0.05,1.23 0.23,1.51 0.14,0.22 0.33,0.32 0.6,0.3 0.22,-0.01 0.41,-0.16 0.57,-0.43 0.14,-0.25 0.24,-0.58 0.29,-1 0.05,-0.41 0.05,-0.83 0,-1.26 -0.06,-0.45 -0.17,-0.86 -0.33,-1.2z"/>
  <path id="_3_2" class="fil1" d="M17.41 0.48c-0.05,0.04 -0.09,0.1 -0.14,0.16 -0.07,0.09 -0.15,0.22 -0.24,0.37l-0.06 0.09 -0.06 0.1c-0.04,0.07 -0.09,0.13 -0.12,0.18 -0.06,0.07 -0.1,0.13 -0.15,0.17 -0.07,0.06 -0.13,0.09 -0.2,0.1 0.07,-0.03 0.12,-0.07 0.17,-0.13 0.04,-0.04 0.08,-0.1 0.13,-0.17 0.03,-0.04 0.06,-0.11 0.11,-0.19l0.11 -0.19c0.1,-0.16 0.18,-0.28 0.25,-0.37 0.06,-0.06 0.11,-0.12 0.16,-0.16 0.08,-0.05 0.15,-0.08 0.21,-0.08 -0.06,0.01 -0.12,0.05 -0.18,0.11zm-2.27 3.19c-0.06,0.04 -0.1,0.08 -0.14,0.11 -0.11,0.08 -0.19,0.16 -0.25,0.23 -0.03,0.05 -0.06,0.1 -0.09,0.15 -0.02,0.04 -0.04,0.1 -0.05,0.17 -0,-0.06 0,-0.12 0.02,-0.18 0.02,-0.06 0.04,-0.11 0.08,-0.17 0.05,-0.08 0.14,-0.17 0.25,-0.26 0.08,-0.06 0.18,-0.12 0.3,-0.2l0.08 -0.05 0.07 -0.05c0.06,-0.04 0.11,-0.07 0.15,-0.1 -0.06,0.07 -0.15,0.15 -0.27,0.23l-0.14 0.1zm-0.6 -2.89c-0.04,0.05 -0.06,0.1 -0.08,0.17 -0.02,0.06 -0.03,0.12 -0.03,0.2 -0.03,-0.06 -0.04,-0.13 -0.03,-0.21 0.01,-0.07 0.03,-0.14 0.08,-0.2 0.04,-0.06 0.1,-0.11 0.17,-0.13 0.07,-0.03 0.14,-0.04 0.21,-0.03 -0.14,0.03 -0.25,0.1 -0.32,0.2zm3.05 -0.69c-0.14,0 -0.28,0.07 -0.42,0.2 -0.1,0.1 -0.22,0.25 -0.34,0.44l-0.07 0.12 -0.04 0.06 -0.03 0.06c-0.06,0.09 -0.1,0.16 -0.13,0.21 -0.09,0.14 -0.16,0.2 -0.21,0.21 -0.05,0 -0.17,-0.09 -0.34,-0.28l-0.03 -0.03 -0.03 -0.04c-0.02,-0.03 -0.04,-0.05 -0.06,-0.07 -0.05,-0.05 -0.1,-0.1 -0.14,-0.15 -0.11,-0.12 -0.23,-0.22 -0.34,-0.31 -0.18,-0.14 -0.36,-0.21 -0.55,-0.21 -0.17,0 -0.33,0.06 -0.46,0.17 -0.13,0.12 -0.21,0.26 -0.24,0.44 -0.03,0.19 0.01,0.37 0.11,0.56 0.08,0.13 0.19,0.27 0.34,0.42 0.06,0.06 0.12,0.12 0.2,0.19l0.1 0.09 0.1 0.08c0.16,0.14 0.28,0.25 0.34,0.32 0.1,0.11 0.15,0.21 0.16,0.29 0.01,0.09 -0.05,0.18 -0.16,0.28 -0.04,0.04 -0.1,0.08 -0.18,0.13l-0.05 0.03 -0.05 0.04 -0.11 0.07c-0.18,0.12 -0.32,0.24 -0.41,0.36 -0.13,0.16 -0.2,0.33 -0.2,0.53 -0.01,0.15 0.02,0.29 0.08,0.42 0.06,0.13 0.15,0.23 0.27,0.31 0.26,0.18 0.59,0.2 0.98,0.08 0.52,-0.16 1.05,-0.61 1.57,-1.36 0.47,-0.67 0.77,-1.31 0.9,-1.92 0.13,-0.62 0.14,-1.08 0.02,-1.38 -0.1,-0.25 -0.29,-0.38 -0.56,-0.37z"/>
  <path id="_4_3" class="fil1" d="M21.58 3.2c-0.02,0.01 -0.05,0.03 -0.07,0.05l-0.04 0.03 -0.04 0.03c-0.06,0.04 -0.13,0.07 -0.18,0.09 -0.07,0.02 -0.14,0.02 -0.2,0.01 0.12,-0.02 0.24,-0.07 0.34,-0.15l0.04 -0.03 0.04 -0.03c0.04,-0.02 0.07,-0.04 0.09,-0.05 0.07,-0.03 0.14,-0.04 0.2,-0.02 -0.06,0.01 -0.12,0.04 -0.18,0.07zm-2.04 -2.36c-0.12,0.13 -0.23,0.28 -0.33,0.45 -0.08,0.14 -0.16,0.32 -0.23,0.52 0.04,-0.19 0.1,-0.37 0.18,-0.54 0.08,-0.17 0.19,-0.33 0.32,-0.47 0.14,-0.15 0.3,-0.26 0.47,-0.33 0.1,-0.04 0.19,-0.06 0.28,-0.07 0.1,-0.01 0.2,-0.02 0.28,-0.01 -0.21,0.02 -0.39,0.06 -0.54,0.13 -0.17,0.08 -0.32,0.19 -0.45,0.33zm2.8 2.73c-0.03,-0.37 -0.16,-0.6 -0.4,-0.69 -0.1,-0.04 -0.21,-0.05 -0.32,-0.02 -0.12,0.03 -0.23,0.08 -0.33,0.16 -0.1,0.08 -0.21,0.11 -0.32,0.1 -0.1,-0.01 -0.2,-0.06 -0.29,-0.15 -0.09,-0.09 -0.15,-0.21 -0.19,-0.34 -0.04,-0.15 -0.05,-0.32 -0.02,-0.5 0.04,-0.26 0.16,-0.4 0.37,-0.44 0.15,-0.02 0.37,0.01 0.64,0.11 0.12,0.04 0.23,0.04 0.33,-0.01 0.1,-0.04 0.17,-0.12 0.22,-0.23 0.05,-0.11 0.06,-0.24 0.04,-0.37 -0.02,-0.15 -0.08,-0.29 -0.18,-0.42 -0.21,-0.29 -0.49,-0.49 -0.84,-0.59 -0.32,-0.1 -0.64,-0.11 -0.97,-0.03 -0.42,0.1 -0.77,0.37 -1.04,0.81 -0.3,0.48 -0.45,1.07 -0.45,1.77 0,0.8 0.2,1.42 0.61,1.87 0.19,0.21 0.42,0.37 0.68,0.47 0.26,0.1 0.54,0.14 0.84,0.11 0.51,-0.04 0.92,-0.23 1.23,-0.55 0.29,-0.31 0.42,-0.66 0.38,-1.07z"/>
  <path id="_5_4" class="fil1" d="M25.06 1.22c-0.1,0.12 -0.19,0.22 -0.28,0.3 -0.12,0.1 -0.23,0.18 -0.34,0.22 0.09,-0.06 0.19,-0.14 0.31,-0.26 0.09,-0.09 0.18,-0.19 0.27,-0.3 0.04,-0.05 0.08,-0.11 0.12,-0.16l0.03 -0.04 0.03 -0.04c0.02,-0.04 0.04,-0.06 0.06,-0.08 0.05,-0.05 0.1,-0.1 0.17,-0.13 0.07,-0.03 0.14,-0.05 0.2,-0.04 -0.12,0.01 -0.23,0.08 -0.32,0.2 -0.02,0.02 -0.03,0.05 -0.06,0.08l-0.03 0.04 -0.03 0.04c-0.03,0.05 -0.07,0.1 -0.12,0.17zm-1.39 -0.78c-0.05,0.03 -0.09,0.07 -0.13,0.12 -0.06,0.08 -0.12,0.18 -0.18,0.32 -0.04,0.08 -0.08,0.2 -0.13,0.35l-0.05 0.18 -0.05 0.18c0.01,-0.15 0.03,-0.27 0.06,-0.38 0.03,-0.13 0.07,-0.25 0.12,-0.36 0.06,-0.14 0.13,-0.25 0.2,-0.33 0.05,-0.05 0.1,-0.09 0.16,-0.12 0.07,-0.03 0.13,-0.04 0.19,-0.04 -0.06,0.01 -0.12,0.03 -0.17,0.06zm1.59 2.06c-0.09,-0.05 -0.12,-0.1 -0.07,-0.14 0.02,-0.02 0.06,-0.04 0.11,-0.07l0.04 -0.02 0.04 -0.02c0.04,-0.02 0.07,-0.03 0.1,-0.04 0.18,-0.09 0.32,-0.18 0.43,-0.28 0.16,-0.15 0.28,-0.33 0.34,-0.53 0.06,-0.19 0.06,-0.37 -0.01,-0.55 -0.06,-0.16 -0.17,-0.28 -0.32,-0.36 -0.15,-0.08 -0.31,-0.09 -0.47,-0.05 -0.18,0.05 -0.33,0.17 -0.46,0.36 -0.21,0.33 -0.42,0.55 -0.61,0.67 -0.08,0.05 -0.13,0.06 -0.16,0.04 -0.03,-0.02 -0.02,-0.08 0.02,-0.17 0.17,-0.36 0.22,-0.64 0.16,-0.87 -0.05,-0.18 -0.18,-0.3 -0.38,-0.35 -0.4,-0.09 -0.71,0.11 -0.93,0.6 -0.18,0.4 -0.29,0.98 -0.34,1.74 -0.05,0.77 -0.02,1.38 0.1,1.85 0.15,0.57 0.41,0.84 0.79,0.83 0.35,-0.01 0.55,-0.27 0.6,-0.77 0.02,-0.17 0.02,-0.36 0,-0.57 -0.01,-0.07 -0.02,-0.15 -0.03,-0.22 -0,-0.03 -0.01,-0.06 -0.01,-0.08l-0 -0.03 -0 -0.01 0 -0.01c-0.01,-0.06 -0,-0.11 0.02,-0.13 0.03,-0.02 0.07,-0.01 0.12,0.03 0.13,0.11 0.25,0.38 0.36,0.81 0.07,0.28 0.18,0.5 0.32,0.68 0.13,0.16 0.28,0.27 0.44,0.32 0.16,0.05 0.31,0.05 0.46,-0.01 0.15,-0.06 0.28,-0.17 0.38,-0.32 0.11,-0.17 0.17,-0.36 0.18,-0.58 0,-0.21 -0.04,-0.42 -0.14,-0.64 -0.21,-0.46 -0.58,-0.83 -1.09,-1.12z"/>
  <path id="_6_5" class="fil1" d="M31.47 0.57c-0.03,0.03 -0.05,0.07 -0.07,0.14 -0.01,0.04 -0.03,0.09 -0.04,0.16l-0.02 0.08 -0.02 0.08c-0.01,-0.05 -0.02,-0.11 -0.01,-0.17 0,-0.06 0.01,-0.12 0.03,-0.17 0.03,-0.07 0.06,-0.12 0.1,-0.15 0.05,-0.04 0.11,-0.04 0.18,-0.03 -0.07,0.02 -0.12,0.04 -0.14,0.07zm-0.07 1.75c-0.04,0.07 -0.09,0.13 -0.15,0.16 -0.07,0.04 -0.14,0.05 -0.21,0.04 0.07,-0.02 0.13,-0.05 0.18,-0.08 0.05,-0.04 0.09,-0.09 0.12,-0.14 0.02,-0.05 0.04,-0.11 0.05,-0.19l0.02 -0.21c0.02,0.07 0.03,0.14 0.03,0.21 0,0.08 -0.01,0.15 -0.04,0.22zm-2.26 -1.83c-0.06,0.04 -0.12,0.12 -0.17,0.21 -0.04,0.09 -0.08,0.17 -0.11,0.26 -0.03,0.08 -0.06,0.17 -0.08,0.27 -0.04,0.14 -0.08,0.33 -0.13,0.56 -0.01,0.08 -0.03,0.18 -0.05,0.29l-0.05 0.28c0,-0.18 0.01,-0.37 0.04,-0.58 0.02,-0.19 0.06,-0.38 0.11,-0.57 0.07,-0.23 0.14,-0.41 0.22,-0.54 0.06,-0.1 0.13,-0.17 0.2,-0.22 0.1,-0.06 0.19,-0.08 0.28,-0.08 -0.09,0.01 -0.18,0.04 -0.26,0.1zm2.59 -0.26c-0.24,-0.03 -0.43,0.04 -0.54,0.21 -0.14,0.21 -0.18,0.58 -0.11,1.1 0.04,0.29 0.06,0.47 0.06,0.55 -0,0.09 -0.04,0.14 -0.1,0.14 -0.03,0 -0.07,-0.03 -0.1,-0.1 -0.03,-0.05 -0.06,-0.14 -0.1,-0.27l-0.01 -0.04 -0.01 -0.04 -0.03 -0.09c-0.03,-0.08 -0.05,-0.14 -0.07,-0.2 -0.06,-0.16 -0.12,-0.29 -0.18,-0.41 -0.19,-0.37 -0.41,-0.63 -0.65,-0.8 -0.3,-0.2 -0.59,-0.22 -0.88,-0.04 -0.23,0.14 -0.42,0.48 -0.55,1.02 -0.13,0.5 -0.19,1.06 -0.19,1.68 0,0.63 0.07,1.16 0.2,1.57 0.15,0.46 0.36,0.69 0.64,0.7 0.42,0 0.63,-0.29 0.61,-0.86 -0,-0.09 -0.01,-0.2 -0.02,-0.32 -0,-0.04 -0.01,-0.09 -0.02,-0.15l-0.01 -0.07 -0.01 -0.07c-0.02,-0.19 -0.02,-0.29 0.01,-0.29 0.03,-0.01 0.05,0 0.07,0.02 0.01,0.01 0.04,0.07 0.07,0.15 0.02,0.05 0.04,0.1 0.06,0.14 0.03,0.06 0.06,0.13 0.1,0.19 0.09,0.17 0.19,0.35 0.32,0.55 0.15,0.23 0.32,0.4 0.53,0.53 0.22,0.13 0.44,0.18 0.66,0.16 0.76,-0.1 1.16,-0.84 1.2,-2.2 0.02,-0.74 -0.05,-1.37 -0.22,-1.88 -0.17,-0.53 -0.41,-0.82 -0.72,-0.86z"/>
  <path id="_7_6" class="fil1" d="M33.95 1.45c-0.02,0.03 -0.04,0.06 -0.06,0.08 -0.03,0.02 -0.06,0.04 -0.09,0.04 0.06,-0.03 0.1,-0.07 0.13,-0.13 0.02,-0.05 0.04,-0.11 0.05,-0.18 0.02,0.07 0.01,0.13 -0.02,0.2zm-0.19 0.01c-0.04,0.01 -0.07,0 -0.11,-0.03 -0.03,-0.03 -0.06,-0.08 -0.07,-0.13 -0.01,-0.06 -0.01,-0.11 0.01,-0.16 0.02,-0.05 0.04,-0.08 0.08,-0.09 0.04,-0.01 0.07,0 0.1,0.03 0.03,0.03 0.06,0.08 0.07,0.13 0.01,0.06 0.01,0.11 -0.01,0.16 -0.02,0.05 -0.04,0.08 -0.08,0.09zm-0.46 -1.07c-0.04,0.06 -0.08,0.14 -0.11,0.23 -0.03,0.07 -0.05,0.16 -0.06,0.25 0,-0.03 0.01,-0.08 0.01,-0.13 0.01,-0.04 0.02,-0.08 0.03,-0.13 0.03,-0.09 0.06,-0.17 0.11,-0.24 0.05,-0.08 0.12,-0.14 0.19,-0.17 0.04,-0.02 0.08,-0.03 0.12,-0.04 0.04,-0.01 0.09,-0.01 0.13,-0.01 -0.1,0.01 -0.18,0.03 -0.24,0.07 -0.07,0.04 -0.13,0.1 -0.18,0.17zm0.59 -0.34c-0.27,-0.05 -0.49,0.02 -0.65,0.21 -0.14,0.17 -0.22,0.4 -0.24,0.69 -0.01,0.28 0.04,0.54 0.15,0.76 0.12,0.25 0.29,0.39 0.51,0.44 0.2,0.04 0.38,-0.03 0.54,-0.22 0.14,-0.18 0.24,-0.4 0.28,-0.68 0.04,-0.29 0.02,-0.54 -0.07,-0.75 -0.1,-0.24 -0.28,-0.39 -0.52,-0.44z"/>
  <path id="_8_7" class="fil1" d="M37.89 2.26c-0.07,0.05 -0.15,0.1 -0.25,0.13 -0.11,0.03 -0.19,0.07 -0.24,0.1 -0.09,0.06 -0.14,0.13 -0.14,0.21 -0.01,-0.04 0,-0.09 0.02,-0.14 0.02,-0.04 0.05,-0.08 0.09,-0.11 0.06,-0.04 0.14,-0.09 0.25,-0.12 0.09,-0.03 0.17,-0.07 0.24,-0.11 0.08,-0.05 0.14,-0.12 0.19,-0.19 -0.02,0.09 -0.07,0.16 -0.16,0.23zm-1 1.61c-0.12,-0.01 -0.22,-0.01 -0.3,-0.01 -0.06,0.01 -0.11,0.02 -0.13,0.04 -0.02,0.01 -0.03,0.03 -0.04,0.05l-0.01 0.04 -0.01 0.04c0,-0.03 0,-0.06 0,-0.08 0,-0.03 0.02,-0.06 0.04,-0.08 0.03,-0.03 0.08,-0.05 0.15,-0.06 0.08,-0.01 0.18,-0.02 0.31,-0.01 0.08,0.01 0.18,0.02 0.3,0.04l0.15 0.02 0.16 0.03c-0.09,0.01 -0.19,0.01 -0.31,0l-0.16 -0.01 -0.15 -0.01zm0.24 -3.31c-0.15,0.06 -0.27,0.12 -0.36,0.18 -0.05,0.03 -0.11,0.07 -0.16,0.11 -0.05,0.04 -0.1,0.08 -0.14,0.13 -0.1,0.11 -0.15,0.24 -0.14,0.36 -0.01,-0.06 -0.01,-0.13 0.01,-0.21 0.02,-0.07 0.05,-0.13 0.1,-0.19 0.07,-0.1 0.17,-0.19 0.31,-0.27 0.24,-0.14 0.5,-0.23 0.78,-0.26 -0.13,0.04 -0.26,0.09 -0.38,0.14zm2.22 2.49c-0.06,-0.08 -0.13,-0.16 -0.21,-0.23 -0.05,-0.04 -0.12,-0.09 -0.19,-0.13l-0.04 -0.03 -0.03 -0.02c-0.03,-0.02 -0.05,-0.03 -0.06,-0.04 -0.03,-0.03 -0.06,-0.06 -0.06,-0.09 -0,-0.04 0.02,-0.09 0.08,-0.15 0.02,-0.02 0.05,-0.05 0.1,-0.09l0.03 -0.03 0.03 -0.02 0.06 -0.06c0.1,-0.09 0.18,-0.19 0.24,-0.27 0.08,-0.12 0.13,-0.25 0.15,-0.38 0.06,-0.34 -0.02,-0.64 -0.22,-0.89 -0.21,-0.26 -0.54,-0.42 -0.99,-0.49 -0.22,-0.04 -0.46,-0.03 -0.73,0.01 -0.27,0.04 -0.51,0.12 -0.74,0.23 -0.24,0.12 -0.43,0.26 -0.55,0.42 -0.14,0.18 -0.2,0.38 -0.18,0.58 0.06,0.51 0.49,0.66 1.29,0.45 0.13,-0.03 0.24,-0.05 0.33,-0.04 0.07,0.01 0.11,0.03 0.13,0.07 0.01,0.04 -0,0.08 -0.05,0.13 -0.05,0.05 -0.13,0.09 -0.23,0.12 -0.37,0.12 -0.55,0.32 -0.54,0.6 0.01,0.14 0.06,0.26 0.15,0.35 0.1,0.1 0.24,0.14 0.41,0.13 0.17,-0 0.27,0.04 0.31,0.15 0.02,0.04 0.02,0.08 -0,0.13 -0.02,0.04 -0.05,0.08 -0.11,0.11 -0.08,0.04 -0.22,0.05 -0.41,0.03 -0.04,-0 -0.08,-0.01 -0.13,-0.01l-0.13 -0.01c-0.11,-0.01 -0.2,-0.02 -0.27,-0.03 -0.2,-0.01 -0.36,0.01 -0.46,0.06 -0.13,0.07 -0.21,0.2 -0.23,0.38 -0.02,0.21 0.08,0.42 0.3,0.62 0.2,0.19 0.47,0.33 0.8,0.44 0.34,0.11 0.67,0.15 0.99,0.13 0.36,-0.02 0.65,-0.12 0.87,-0.29 0.32,-0.24 0.49,-0.56 0.52,-0.94 0.03,-0.35 -0.05,-0.65 -0.24,-0.91z"/>
  <path id="_9_8" class="fil1" d="M3.02 10.75c-0.03,0 -0.07,0 -0.12,0.01l-0.06 0.01 -0.06 0c0.07,-0.05 0.15,-0.08 0.24,-0.08 0.05,0 0.09,0.01 0.13,0.02 0.04,0.02 0.08,0.04 0.1,0.08 -0.08,-0.02 -0.16,-0.04 -0.23,-0.03zm-2.01 -1.15c-0.05,0.05 -0.1,0.11 -0.15,0.16 -0.11,0.12 -0.19,0.24 -0.25,0.34 -0.08,0.12 -0.14,0.25 -0.17,0.39 -0.04,0.13 -0.05,0.28 -0.05,0.43l-0.02 -0.11 -0 -0.05 0 -0.06 0 -0.05 0 -0.06 0.01 -0.05 0.01 -0.06c0.03,-0.14 0.08,-0.28 0.16,-0.41 0.08,-0.13 0.17,-0.24 0.27,-0.34 0.05,-0.05 0.11,-0.1 0.17,-0.15l0.09 -0.06c0.03,-0.02 0.06,-0.04 0.09,-0.06l-0.08 0.07 -0.08 0.08zm0.35 -2.27c-0.07,0.03 -0.13,0.06 -0.19,0.1 -0.13,0.07 -0.25,0.15 -0.36,0.23 -0.11,0.09 -0.21,0.19 -0.31,0.3 -0.05,0.06 -0.09,0.12 -0.12,0.18 -0.04,0.07 -0.07,0.14 -0.07,0.2 -0,-0.12 0.04,-0.26 0.15,-0.41 0.08,-0.12 0.18,-0.22 0.31,-0.32 0.13,-0.1 0.25,-0.17 0.38,-0.23 0.07,-0.03 0.14,-0.06 0.2,-0.08 0.08,-0.02 0.15,-0.04 0.22,-0.05l-0.1 0.04c-0.04,0.01 -0.07,0.03 -0.1,0.04zm1.32 3.18c-0.2,0.08 -0.38,0.11 -0.55,0.1 -0.14,-0.01 -0.22,-0.04 -0.25,-0.1 -0.01,-0.03 -0.02,-0.05 -0.02,-0.08 -0,-0.04 0.01,-0.08 0.03,-0.13 0.06,-0.12 0.19,-0.24 0.41,-0.37 0.28,-0.17 0.51,-0.39 0.7,-0.65 0.18,-0.26 0.3,-0.52 0.35,-0.8 0.06,-0.29 0.03,-0.55 -0.07,-0.78 -0.11,-0.25 -0.3,-0.45 -0.57,-0.58 -0.32,-0.16 -0.67,-0.22 -1.03,-0.17 -0.32,0.04 -0.62,0.16 -0.91,0.35 -0.27,0.18 -0.47,0.39 -0.6,0.62 -0.13,0.24 -0.16,0.45 -0.09,0.63 0.07,0.17 0.21,0.28 0.41,0.31 0.21,0.03 0.46,-0.02 0.75,-0.16 0.16,-0.08 0.28,-0.12 0.34,-0.14 0.07,-0.01 0.12,-0 0.15,0.03 0.07,0.07 -0.01,0.18 -0.26,0.33 -0.46,0.27 -0.81,0.56 -1.04,0.89 -0.29,0.41 -0.38,0.85 -0.27,1.31 0.08,0.32 0.31,0.56 0.68,0.72 0.31,0.12 0.7,0.19 1.17,0.19 0.47,0 0.86,-0.06 1.16,-0.19 0.31,-0.13 0.49,-0.32 0.54,-0.56 0.03,-0.12 0.02,-0.24 -0.02,-0.36 -0.04,-0.12 -0.1,-0.22 -0.19,-0.31 -0.1,-0.09 -0.21,-0.15 -0.34,-0.17 -0.15,-0.02 -0.31,-0 -0.47,0.06z"/>
  <path id="_10_9" class="fil1" d="M6.34 10.33c-0.04,0.08 -0.09,0.14 -0.15,0.19 -0.07,0.05 -0.14,0.09 -0.22,0.1 0.14,-0.07 0.24,-0.18 0.31,-0.32 0.06,-0.11 0.1,-0.25 0.12,-0.44 0.04,0.16 0.02,0.32 -0.05,0.47zm-0.45 0.02c-0.09,0.03 -0.17,0 -0.25,-0.08 -0.08,-0.08 -0.14,-0.19 -0.17,-0.32 -0.03,-0.14 -0.02,-0.26 0.02,-0.38 0.04,-0.12 0.11,-0.19 0.19,-0.21 0.09,-0.03 0.17,0 0.25,0.08 0.08,0.08 0.14,0.18 0.17,0.32 0.03,0.14 0.02,0.26 -0.02,0.38 -0.04,0.12 -0.11,0.19 -0.19,0.21zm-1.09 -2.56c-0.1,0.14 -0.19,0.32 -0.27,0.54 -0.06,0.18 -0.11,0.38 -0.15,0.6 0,-0.08 0.01,-0.18 0.03,-0.31 0.02,-0.1 0.04,-0.2 0.07,-0.3 0.06,-0.21 0.15,-0.4 0.27,-0.57 0.13,-0.19 0.29,-0.33 0.47,-0.41 0.09,-0.04 0.19,-0.08 0.3,-0.1 0.11,-0.02 0.21,-0.02 0.31,-0.01 -0.23,0.02 -0.42,0.07 -0.58,0.16 -0.17,0.1 -0.31,0.23 -0.43,0.41zm1.41 -0.81c-0.65,-0.12 -1.17,0.04 -1.56,0.49 -0.34,0.4 -0.53,0.95 -0.57,1.64 -0.03,0.67 0.09,1.28 0.36,1.83 0.29,0.59 0.7,0.95 1.21,1.06 0.48,0.1 0.91,-0.07 1.29,-0.53 0.35,-0.42 0.57,-0.96 0.68,-1.64 0.11,-0.69 0.05,-1.29 -0.17,-1.81 -0.25,-0.58 -0.66,-0.93 -1.24,-1.04z"/>
  <path id="_11_10" class="fil1" d="M11 10.75c-0.03,0 -0.07,0 -0.12,0.01l-0.06 0.01 -0.06 0c0.07,-0.05 0.15,-0.08 0.24,-0.08 0.05,0 0.09,0.01 0.13,0.02 0.04,0.02 0.08,0.04 0.1,0.08 -0.08,-0.02 -0.16,-0.04 -0.23,-0.03zm-2.01 -1.15c-0.05,0.05 -0.1,0.11 -0.15,0.16 -0.11,0.12 -0.19,0.24 -0.25,0.34 -0.08,0.12 -0.14,0.25 -0.17,0.39 -0.03,0.13 -0.05,0.28 -0.05,0.43l-0.02 -0.11 -0 -0.05 0 -0.06 0 -0.05 0 -0.06 0.01 -0.05 0.01 -0.06c0.03,-0.14 0.08,-0.28 0.16,-0.41 0.08,-0.13 0.17,-0.24 0.27,-0.34 0.05,-0.05 0.11,-0.1 0.17,-0.15l0.09 -0.06c0.03,-0.02 0.06,-0.04 0.09,-0.06l-0.08 0.07 -0.08 0.08zm0.35 -2.27c-0.07,0.03 -0.13,0.06 -0.19,0.1 -0.13,0.07 -0.25,0.15 -0.36,0.23 -0.11,0.09 -0.21,0.19 -0.31,0.3 -0.05,0.06 -0.09,0.12 -0.12,0.18 -0.04,0.07 -0.07,0.14 -0.07,0.2 -0,-0.12 0.04,-0.26 0.15,-0.41 0.08,-0.12 0.18,-0.22 0.31,-0.32 0.13,-0.1 0.25,-0.17 0.38,-0.23 0.07,-0.03 0.14,-0.06 0.2,-0.08 0.08,-0.02 0.15,-0.04 0.22,-0.05l-0.1 0.04c-0.04,0.01 -0.07,0.03 -0.1,0.04zm1.32 3.18c-0.2,0.08 -0.38,0.11 -0.55,0.1 -0.14,-0.01 -0.22,-0.04 -0.25,-0.1 -0.01,-0.03 -0.02,-0.05 -0.02,-0.08 -0,-0.04 0.01,-0.08 0.03,-0.13 0.06,-0.12 0.19,-0.24 0.41,-0.37 0.28,-0.17 0.51,-0.39 0.7,-0.65 0.18,-0.26 0.3,-0.52 0.35,-0.8 0.06,-0.29 0.03,-0.55 -0.07,-0.78 -0.11,-0.25 -0.3,-0.45 -0.57,-0.58 -0.32,-0.16 -0.67,-0.22 -1.03,-0.17 -0.32,0.04 -0.62,0.16 -0.91,0.35 -0.27,0.18 -0.47,0.39 -0.6,0.62 -0.13,0.24 -0.16,0.45 -0.09,0.63 0.07,0.17 0.21,0.28 0.41,0.31 0.21,0.03 0.46,-0.02 0.75,-0.16 0.16,-0.08 0.28,-0.12 0.34,-0.14 0.07,-0.01 0.12,-0 0.15,0.03 0.07,0.07 -0.01,0.18 -0.26,0.33 -0.46,0.27 -0.81,0.56 -1.04,0.89 -0.29,0.41 -0.38,0.85 -0.27,1.31 0.08,0.32 0.31,0.56 0.68,0.72 0.31,0.12 0.7,0.19 1.17,0.19 0.47,0 0.86,-0.06 1.16,-0.19 0.31,-0.13 0.49,-0.32 0.54,-0.56 0.03,-0.12 0.02,-0.24 -0.02,-0.36 -0.04,-0.12 -0.1,-0.22 -0.19,-0.31 -0.1,-0.09 -0.21,-0.15 -0.34,-0.17 -0.15,-0.02 -0.3,-0 -0.47,0.06z"/>
  <path id="_12_11" class="fil1" d="M18.85 7.29c-0.1,0.03 -0.2,0.06 -0.29,0.11 -0.2,0.1 -0.36,0.21 -0.49,0.36 -0.06,0.06 -0.11,0.15 -0.15,0.25 -0.03,0.08 -0.06,0.17 -0.09,0.29 -0.02,0.09 -0.04,0.2 -0.06,0.3 -0.01,0.04 -0.01,0.1 -0.02,0.16l-0.01 0.15c-0.01,-0.22 0,-0.43 0.04,-0.62 0.05,-0.25 0.13,-0.45 0.24,-0.58 0.14,-0.15 0.31,-0.27 0.52,-0.36 0.09,-0.04 0.19,-0.07 0.3,-0.09 0.11,-0.02 0.21,-0.04 0.31,-0.04 -0.12,0.02 -0.22,0.04 -0.3,0.07zm2.04 0.46c-0.02,-0.21 -0.14,-0.38 -0.37,-0.53 -0.22,-0.14 -0.49,-0.23 -0.82,-0.27 -0.34,-0.04 -0.67,-0.01 -0.98,0.08 -0.35,0.1 -0.64,0.27 -0.85,0.5 -0.2,0.22 -0.33,0.56 -0.38,1.04 -0.04,0.44 -0.02,0.91 0.07,1.42 0.09,0.51 0.23,0.95 0.42,1.31 0.2,0.39 0.43,0.62 0.67,0.7 0.36,0.1 0.61,0.02 0.76,-0.27 0.13,-0.25 0.15,-0.58 0.07,-1 -0.01,-0.06 -0.03,-0.14 -0.05,-0.24 -0.01,-0.03 -0.02,-0.07 -0.03,-0.14l-0.02 -0.07 -0.01 -0.08c-0.06,-0.26 -0.1,-0.46 -0.13,-0.62 -0.08,-0.51 -0.06,-0.84 0.06,-0.97 0.06,-0.06 0.18,-0.1 0.38,-0.13 0.03,-0 0.08,-0.01 0.13,-0.01l0.14 -0.01c0.12,-0.01 0.21,-0.02 0.28,-0.03 0.22,-0.03 0.38,-0.09 0.48,-0.18 0.14,-0.11 0.2,-0.28 0.18,-0.49z"/>
  <path id="_13_12" class="fil1" d="M23.67 10.44c-0.05,0.06 -0.1,0.11 -0.17,0.14 -0.07,0.04 -0.13,0.05 -0.2,0.05 0.13,-0.05 0.24,-0.13 0.31,-0.23 0.07,-0.1 0.12,-0.22 0.14,-0.37 0.03,0.15 0,0.28 -0.09,0.41zm-0.74 -0.36c-0.01,-0.09 0,-0.17 0.04,-0.25 0.04,-0.07 0.1,-0.11 0.18,-0.13 0.07,-0.01 0.14,0.01 0.21,0.07 0.06,0.05 0.1,0.13 0.12,0.22 0.02,0.09 0,0.17 -0.04,0.24 -0.04,0.07 -0.1,0.12 -0.18,0.13 -0.07,0.01 -0.14,-0.01 -0.21,-0.06 -0.06,-0.05 -0.1,-0.13 -0.12,-0.22zm-0.18 -2.73c-0.18,0.07 -0.34,0.18 -0.48,0.31 -0.13,0.12 -0.25,0.27 -0.36,0.45l-0.03 0.06 -0.04 0.06 -0.06 0.13 -0.06 0.14 -0.05 0.14c0.04,-0.2 0.11,-0.38 0.2,-0.56 0.09,-0.18 0.21,-0.34 0.36,-0.48 0.16,-0.15 0.33,-0.25 0.51,-0.31 0.09,-0.03 0.19,-0.05 0.29,-0.07l0.07 -0.01 0.07 -0 0.15 0c-0.21,0.02 -0.4,0.06 -0.57,0.13zm1.18 -0.33c-0.73,-0.18 -1.33,-0.06 -1.82,0.36 -0.43,0.37 -0.7,0.9 -0.8,1.59 -0.1,0.67 -0.02,1.29 0.23,1.86 0.27,0.62 0.7,1 1.27,1.16 0.54,0.15 1.04,0.01 1.52,-0.42 0.43,-0.39 0.74,-0.91 0.93,-1.57 0.19,-0.67 0.18,-1.28 -0.01,-1.82 -0.22,-0.6 -0.66,-0.99 -1.31,-1.15z"/>
  <path id="_14_13" class="fil1" d="M29.17 10.26c-0.02,0.08 -0.07,0.15 -0.13,0.2 -0.06,0.05 -0.13,0.08 -0.22,0.1 -0.08,0.01 -0.15,0.01 -0.23,0 0.09,-0.02 0.16,-0.04 0.22,-0.05 0.08,-0.03 0.14,-0.06 0.19,-0.1 0.05,-0.04 0.09,-0.1 0.12,-0.17 0.02,-0.05 0.04,-0.12 0.05,-0.22 0.02,0.08 0.02,0.16 0,0.23zm-0.9 -0.09c-0.05,-0.08 -0.03,-0.22 0.05,-0.4 0.08,-0.19 0.16,-0.28 0.26,-0.28 0.11,0 0.2,0.1 0.27,0.3 0.03,0.08 0.04,0.16 0.05,0.24 0,0.08 -0,0.14 -0.03,0.18 -0.04,0.06 -0.13,0.08 -0.29,0.08 -0.16,-0 -0.26,-0.04 -0.3,-0.11zm-0.48 -2.3c-0.1,0.14 -0.19,0.3 -0.28,0.48 -0.07,0.14 -0.14,0.31 -0.22,0.51 0.04,-0.18 0.1,-0.35 0.17,-0.53 0.07,-0.17 0.16,-0.33 0.27,-0.5 0.12,-0.18 0.24,-0.32 0.38,-0.42 0.07,-0.06 0.16,-0.11 0.24,-0.15 0.09,-0.04 0.18,-0.06 0.27,-0.05 -0.16,0.02 -0.32,0.1 -0.48,0.24 -0.12,0.11 -0.24,0.25 -0.35,0.42zm-1.56 2.78c-0.06,0.03 -0.1,0.06 -0.14,0.09 -0.04,0.04 -0.07,0.08 -0.09,0.14 -0.01,-0.06 0.01,-0.12 0.05,-0.17 0.03,-0.04 0.08,-0.08 0.14,-0.11 0.11,-0.06 0.22,-0.08 0.34,-0.08l-0.08 0.04 -0.08 0.04c-0.06,0.03 -0.11,0.05 -0.15,0.07zm4.3 -0.42c-0.1,-0.03 -0.16,-0.06 -0.21,-0.11 -0.04,-0.04 -0.07,-0.11 -0.08,-0.2 -0.01,-0.05 -0.02,-0.16 -0.03,-0.32 -0,-0.08 -0.01,-0.16 -0.02,-0.22 -0.01,-0.09 -0.02,-0.17 -0.03,-0.26 -0.1,-0.7 -0.29,-1.24 -0.58,-1.63 -0.27,-0.36 -0.58,-0.54 -0.94,-0.55 -0.31,-0.01 -0.62,0.16 -0.92,0.5 -0.3,0.35 -0.53,0.79 -0.69,1.34 -0.06,0.22 -0.11,0.44 -0.15,0.66 -0.01,0.04 -0.01,0.08 -0.02,0.12l-0.01 0.06 -0.01 0.05c-0.01,0.09 -0.02,0.15 -0.03,0.19 -0.02,0.12 -0.06,0.2 -0.1,0.25 -0.05,0.06 -0.12,0.1 -0.23,0.12 -0.31,0.06 -0.52,0.18 -0.64,0.33 -0.11,0.14 -0.14,0.31 -0.08,0.51 0.08,0.29 0.4,0.51 0.95,0.68 0.5,0.15 1.12,0.23 1.87,0.25 0.68,0.02 1.2,-0 1.57,-0.06 0.54,-0.09 0.89,-0.27 1.05,-0.54 0.15,-0.26 0.15,-0.5 0.03,-0.72 -0.13,-0.21 -0.36,-0.37 -0.69,-0.46z"/>
  <path id="_15_14" class="fil1" d="M14.38 8.19c0.02,0.19 0,0.34 -0.04,0.47 -0.03,0.08 -0.07,0.15 -0.12,0.21 -0.06,0.06 -0.12,0.1 -0.19,0.13 0.13,-0.08 0.22,-0.2 0.27,-0.36 0.03,-0.13 0.04,-0.28 0.02,-0.46 -0.01,-0.18 -0.02,-0.34 -0.01,-0.47 0.01,-0.09 0.02,-0.17 0.04,-0.23 0.03,-0.1 0.06,-0.17 0.1,-0.21 -0.04,0.05 -0.06,0.13 -0.07,0.22 -0.01,0.07 -0.02,0.15 -0.02,0.23 0,0.15 0.01,0.3 0.02,0.47zm-1.69 -0.74c-0.05,0.07 -0.1,0.16 -0.14,0.26 -0.03,0.06 -0.06,0.15 -0.1,0.28l-0.04 0.15 -0.04 0.14c0,-0.12 0.01,-0.21 0.03,-0.3 0.02,-0.11 0.05,-0.21 0.09,-0.29 0.05,-0.11 0.1,-0.19 0.16,-0.26 0.04,-0.05 0.09,-0.08 0.12,-0.1 0.05,-0.03 0.1,-0.04 0.15,-0.04 -0.07,0.01 -0.15,0.07 -0.23,0.17zm3.02 1.83c-0.02,-0.72 -0.11,-1.27 -0.27,-1.67 -0.19,-0.45 -0.47,-0.67 -0.83,-0.67 -0.42,0.01 -0.6,0.43 -0.52,1.28 0.02,0.19 -0,0.33 -0.05,0.43 -0.05,0.09 -0.12,0.13 -0.22,0.13 -0.11,-0 -0.19,-0.05 -0.23,-0.13 -0.05,-0.08 -0.07,-0.22 -0.06,-0.4 0.02,-0.45 -0.02,-0.78 -0.12,-0.97 -0.09,-0.18 -0.25,-0.27 -0.47,-0.27 -0.2,0 -0.38,0.11 -0.52,0.34 -0.15,0.22 -0.24,0.52 -0.29,0.88 -0.06,0.4 -0.05,0.75 0.02,1.04 0.05,0.24 0.16,0.46 0.31,0.65 0.16,0.21 0.4,0.33 0.71,0.36 0.1,0.01 0.21,0.01 0.34,-0 0.02,-0 0.04,-0.01 0.07,-0.01l0.03 -0 0.03 -0c0.05,-0 0.08,-0.01 0.1,-0.01 0.1,-0.01 0.17,0.03 0.23,0.11 0.08,0.1 0.12,0.27 0.12,0.51 0,0.39 0.08,0.69 0.22,0.88 0.13,0.18 0.31,0.27 0.54,0.27 0.63,0.02 0.93,-0.9 0.88,-2.75z"/>
 </g>
</svg>
