<?xml version="1.0" encoding="UTF-8"?>
<!DOCTYPE svg PUBLIC "-//W3C//DTD SVG 1.1//EN" "http://www.w3.org/Graphics/SVG/1.1/DTD/svg11.dtd">
<!-- Creator: CorelDRAW -->
<svg xmlns="http://www.w3.org/2000/svg" xml:space="preserve" width="27.7444mm" height="8.6647mm" version="1.1" style="shape-rendering:geometricPrecision; text-rendering:geometricPrecision; image-rendering:optimizeQuality; fill-rule:evenodd; clip-rule:evenodd"
viewBox="0 0 41.72 13.03"
 xmlns:xlink="http://www.w3.org/1999/xlink"
 xmlns:xodm="http://www.corel.com/coreldraw/odm/2003">
 <defs>
  <style type="text/css">
   <![CDATA[
    .fil0 {fill:#969677;fill-rule:nonzero}
    .fil1 {fill:white;fill-rule:nonzero}
   ]]>
  </style>
 </defs>
 <g id="Слой_x0020_1">
  <metadata id="CorelCorpID_0Corel-Layer"/>
  <path class="fil0" d="M2.9 4.07c-0.04,0.09 -0.1,0.15 -0.18,0.19 -0.08,0.04 -0.16,0.06 -0.25,0.04 0.08,-0.02 0.16,-0.04 0.22,-0.09 0.06,-0.05 0.11,-0.11 0.15,-0.18 0.06,-0.13 0.08,-0.28 0.04,-0.47 0.04,0.07 0.07,0.15 0.07,0.24 0.01,0.09 -0.01,0.18 -0.05,0.26zm-0.68 -0.22c-0.04,-0.07 -0.06,-0.14 -0.05,-0.22 0.01,-0.07 0.04,-0.12 0.09,-0.15 0.05,-0.03 0.11,-0.03 0.17,0 0.07,0.03 0.12,0.08 0.16,0.15 0.04,0.07 0.06,0.14 0.05,0.22 -0.01,0.07 -0.04,0.12 -0.09,0.15 -0.05,0.03 -0.11,0.03 -0.17,0 -0.07,-0.03 -0.12,-0.08 -0.16,-0.15zm-0.32 -1.55c0.06,-0.02 0.11,-0.04 0.16,-0.06 0.05,-0.03 0.1,-0.07 0.13,-0.1 0.04,-0.04 0.07,-0.08 0.11,-0.14 0.03,-0.05 0.05,-0.1 0.07,-0.16 0.01,0.13 -0.03,0.24 -0.13,0.35 -0.05,0.05 -0.1,0.08 -0.16,0.1 -0.06,0.02 -0.13,0.03 -0.18,0.02zm-0.08 -0.54c0.03,-0.05 0.06,-0.09 0.11,-0.1 0.04,-0.02 0.08,-0.02 0.12,0 0.03,0.02 0.05,0.05 0.06,0.1 0.01,0.05 -0.01,0.09 -0.03,0.14 -0.03,0.05 -0.06,0.09 -0.11,0.1 -0.04,0.02 -0.08,0.02 -0.11,0 -0.03,-0.02 -0.05,-0.05 -0.06,-0.1 -0.01,-0.05 0.01,-0.09 0.03,-0.14zm-0.63 -0.66c-0.06,0.06 -0.12,0.14 -0.18,0.23 -0.09,0.14 -0.18,0.31 -0.26,0.52 -0.06,0.16 -0.12,0.35 -0.17,0.56 0.02,-0.19 0.06,-0.39 0.12,-0.58 0.06,-0.2 0.15,-0.38 0.26,-0.54 0.13,-0.19 0.27,-0.33 0.42,-0.42 0.1,-0.06 0.19,-0.1 0.28,-0.12 0.1,-0.02 0.2,-0.03 0.29,-0.03 -0.2,0.02 -0.38,0.08 -0.54,0.19 -0.08,0.05 -0.15,0.12 -0.22,0.19zm1.59 1.42c-0.04,-0.02 -0.05,-0.06 -0.03,-0.12 0.01,-0.02 0.03,-0.06 0.06,-0.11l0.02 -0.03 0.02 -0.03c0.01,-0.03 0.03,-0.05 0.04,-0.08 0.07,-0.13 0.11,-0.26 0.14,-0.39 0.04,-0.18 0.04,-0.36 0.01,-0.55 -0.03,-0.21 -0.15,-0.39 -0.35,-0.53 -0.2,-0.15 -0.44,-0.23 -0.7,-0.23 -0.29,-0.01 -0.56,0.07 -0.8,0.25 -0.28,0.2 -0.5,0.5 -0.67,0.91 -0.17,0.42 -0.26,0.88 -0.27,1.37 -0.02,0.5 0.05,0.97 0.2,1.39 0.16,0.46 0.4,0.81 0.72,1.06 0.36,0.27 0.78,0.39 1.29,0.36 0.48,-0.03 0.86,-0.19 1.14,-0.47 0.26,-0.25 0.4,-0.57 0.43,-0.95 0.03,-0.37 -0.07,-0.72 -0.27,-1.05 -0.22,-0.36 -0.55,-0.62 -0.96,-0.78z"/>
  <path id="_1" class="fil0" d="M6.87 4.15c-0.04,0.07 -0.1,0.12 -0.18,0.15 -0.07,0.03 -0.15,0.04 -0.22,0.03 0.15,-0.03 0.27,-0.1 0.34,-0.22 0.04,-0.05 0.06,-0.11 0.08,-0.19 0.01,-0.06 0.02,-0.14 0.02,-0.22 0.03,0.07 0.04,0.15 0.03,0.23 -0.01,0.08 -0.03,0.16 -0.07,0.22zm-0.65 -0.29c-0.04,-0.07 -0.05,-0.14 -0.04,-0.21 0.01,-0.07 0.04,-0.12 0.09,-0.15 0.05,-0.03 0.11,-0.02 0.17,0.01 0.06,0.03 0.12,0.08 0.15,0.16 0.04,0.07 0.05,0.15 0.04,0.22 -0.01,0.07 -0.04,0.12 -0.1,0.14 -0.05,0.03 -0.11,0.02 -0.17,-0.01 -0.06,-0.03 -0.12,-0.09 -0.15,-0.16zm-0.34 -3.08c-0.04,0.02 -0.1,0.06 -0.16,0.1 -0.09,0.07 -0.17,0.16 -0.26,0.26 -0.06,0.07 -0.14,0.18 -0.22,0.3 -0.03,0.04 -0.06,0.1 -0.1,0.16l-0.1 0.16c0.05,-0.14 0.1,-0.26 0.15,-0.35 0.06,-0.12 0.13,-0.23 0.21,-0.32 0.09,-0.11 0.18,-0.2 0.28,-0.26 0.13,-0.09 0.25,-0.12 0.36,-0.12 -0.06,0.01 -0.12,0.03 -0.17,0.06zm0.96 1.8c-0.13,-0.04 -0.21,-0.11 -0.24,-0.2 -0.03,-0.08 -0.03,-0.19 -0,-0.34 0,-0.03 0.01,-0.06 0.02,-0.1l0.02 -0.1c0.02,-0.1 0.03,-0.17 0.04,-0.23 0.03,-0.19 0.04,-0.36 0.02,-0.5 -0.03,-0.21 -0.1,-0.37 -0.23,-0.49 -0.13,-0.12 -0.29,-0.18 -0.47,-0.16 -0.2,0.02 -0.4,0.12 -0.59,0.31 -0.22,0.21 -0.43,0.51 -0.61,0.9 -0.19,0.41 -0.31,0.85 -0.36,1.32 -0.05,0.49 -0.03,0.94 0.08,1.35 0.12,0.45 0.32,0.8 0.61,1.05 0.32,0.28 0.73,0.41 1.23,0.41 0.47,-0.01 0.86,-0.15 1.17,-0.43 0.28,-0.26 0.45,-0.58 0.51,-0.96 0.06,-0.39 -0.01,-0.74 -0.21,-1.07 -0.21,-0.35 -0.54,-0.6 -0.98,-0.73zm1.55 -1.72c-0.04,0.04 -0.07,0.08 -0.09,0.14 -0.02,0.05 -0.03,0.11 -0.03,0.18 -0,0.09 0,0.21 0.03,0.37l0.04 0.18 0.03 0.19c-0.05,-0.13 -0.09,-0.25 -0.12,-0.36 -0.04,-0.14 -0.05,-0.27 -0.05,-0.38 0.01,-0.08 0.02,-0.14 0.04,-0.19 0.03,-0.07 0.07,-0.13 0.12,-0.16 0.1,-0.08 0.22,-0.11 0.37,-0.09 -0.14,0.02 -0.25,0.06 -0.33,0.14zm1.3 0.21c-0.1,-0.2 -0.24,-0.35 -0.41,-0.46 -0.15,-0.1 -0.31,-0.16 -0.48,-0.17 -0.16,-0.01 -0.31,0.02 -0.45,0.08 -0.14,0.07 -0.24,0.16 -0.3,0.29 -0.12,0.23 -0.11,0.58 0.01,1.03 0.02,0.07 0.04,0.17 0.08,0.28l0.04 0.14 0.05 0.14c0.07,0.23 0.11,0.41 0.13,0.56 0.04,0.36 0.06,0.73 0.05,1.11 -0,0.12 -0.01,0.27 -0.02,0.43l-0 0.1 -0 0.09c-0.01,0.07 -0.01,0.13 -0.01,0.17 -0.01,0.23 0.01,0.4 0.04,0.5 0.04,0.12 0.14,0.2 0.27,0.23 0.27,0.06 0.51,-0.08 0.73,-0.43 0.19,-0.31 0.34,-0.74 0.44,-1.29 0.1,-0.53 0.14,-1.05 0.11,-1.57 -0.03,-0.54 -0.12,-0.96 -0.27,-1.25z"/>
  <path id="_2" class="fil0" d="M11.68 0.9c-0.02,0.01 -0.05,0.02 -0.08,0.04l-0.07 0.04 -0.07 0.04c-0.03,0.02 -0.05,0.03 -0.07,0.05 -0.08,0.05 -0.17,0.12 -0.26,0.21 -0.1,0.1 -0.17,0.19 -0.21,0.25 -0.12,0.17 -0.2,0.38 -0.24,0.62 -0.01,0.05 -0.02,0.11 -0.02,0.17l-0.01 0.17c-0.01,0.05 -0.01,0.11 -0.01,0.17l-0 0.17c-0.03,-0.24 -0.03,-0.47 -0.01,-0.69 0.02,-0.24 0.1,-0.46 0.23,-0.65l0.05 -0.07 0.06 -0.07c0.01,-0.02 0.03,-0.04 0.06,-0.06l0.03 -0.03 0.03 -0.03c0.11,-0.1 0.2,-0.17 0.28,-0.2 0.19,-0.12 0.4,-0.19 0.64,-0.23l-0.08 0.03 -0.08 0.03c-0.06,0.02 -0.11,0.04 -0.16,0.06zm2.61 0.7c-0.21,-0.45 -0.53,-0.77 -0.96,-0.97 -0.39,-0.18 -0.82,-0.23 -1.27,-0.16 -0.45,0.08 -0.83,0.26 -1.14,0.55 -0.34,0.31 -0.52,0.7 -0.57,1.15 -0.08,0.84 0.05,1.67 0.39,2.47 0.15,0.36 0.32,0.64 0.51,0.85 0.2,0.21 0.4,0.31 0.59,0.28 0.27,-0.03 0.44,-0.2 0.5,-0.48 0.07,-0.33 0.02,-0.89 -0.13,-1.69 -0.12,-0.63 -0.05,-0.97 0.21,-1 0.15,-0.02 0.26,0.09 0.34,0.33 0.07,0.22 0.11,0.5 0.1,0.85 -0.03,0.76 0.05,1.28 0.24,1.59 0.14,0.23 0.35,0.33 0.63,0.31 0.23,-0.01 0.43,-0.16 0.59,-0.45 0.15,-0.27 0.25,-0.61 0.31,-1.04 0.06,-0.43 0.06,-0.87 0,-1.32 -0.06,-0.48 -0.17,-0.9 -0.34,-1.26z"/>
  <path id="_3" class="fil0" d="M18.45 0.83c-0.05,0.04 -0.1,0.1 -0.15,0.17 -0.07,0.1 -0.16,0.23 -0.25,0.38l-0.06 0.1 -0.06 0.1c-0.05,0.08 -0.09,0.14 -0.13,0.19 -0.06,0.08 -0.11,0.14 -0.15,0.18 -0.07,0.06 -0.14,0.1 -0.21,0.11 0.07,-0.03 0.13,-0.08 0.18,-0.13 0.04,-0.05 0.08,-0.11 0.13,-0.18 0.03,-0.05 0.07,-0.11 0.12,-0.2l0.12 -0.2c0.1,-0.17 0.19,-0.29 0.27,-0.38 0.06,-0.07 0.12,-0.12 0.17,-0.16 0.08,-0.06 0.15,-0.09 0.21,-0.08 -0.06,0.01 -0.13,0.05 -0.19,0.11zm-2.38 3.34c-0.06,0.04 -0.11,0.08 -0.15,0.11 -0.11,0.08 -0.2,0.17 -0.27,0.25 -0.04,0.05 -0.07,0.1 -0.09,0.15 -0.02,0.04 -0.04,0.1 -0.05,0.18 -0,-0.06 0,-0.12 0.02,-0.19 0.02,-0.06 0.05,-0.12 0.08,-0.18 0.06,-0.09 0.15,-0.18 0.27,-0.27 0.08,-0.06 0.19,-0.13 0.31,-0.2l0.08 -0.05 0.08 -0.05c0.06,-0.04 0.11,-0.07 0.16,-0.1 -0.07,0.08 -0.16,0.16 -0.28,0.25l-0.15 0.1zm-0.63 -3.02c-0.04,0.05 -0.06,0.11 -0.08,0.18 -0.02,0.06 -0.03,0.13 -0.03,0.2 -0.03,-0.07 -0.04,-0.14 -0.03,-0.22 0.01,-0.08 0.03,-0.14 0.08,-0.21 0.05,-0.06 0.1,-0.11 0.17,-0.14 0.07,-0.03 0.14,-0.04 0.22,-0.03 -0.15,0.03 -0.26,0.1 -0.34,0.21zm3.2 -0.72c-0.15,0 -0.3,0.07 -0.44,0.21 -0.11,0.1 -0.23,0.26 -0.36,0.47l-0.08 0.13 -0.04 0.06 -0.03 0.06c-0.06,0.1 -0.1,0.17 -0.13,0.22 -0.09,0.14 -0.17,0.21 -0.22,0.22 -0.06,0 -0.17,-0.1 -0.35,-0.29l-0.03 -0.03 -0.03 -0.04c-0.02,-0.03 -0.05,-0.05 -0.07,-0.07 -0.05,-0.06 -0.1,-0.11 -0.15,-0.16 -0.12,-0.12 -0.24,-0.23 -0.36,-0.32 -0.18,-0.15 -0.38,-0.22 -0.58,-0.22 -0.18,0 -0.34,0.06 -0.48,0.18 -0.14,0.12 -0.22,0.27 -0.25,0.46 -0.03,0.2 0.01,0.39 0.12,0.59 0.08,0.14 0.2,0.29 0.35,0.44 0.06,0.06 0.13,0.13 0.21,0.2l0.1 0.09 0.1 0.09c0.17,0.15 0.29,0.26 0.36,0.34 0.1,0.11 0.16,0.22 0.16,0.31 0.01,0.09 -0.05,0.19 -0.17,0.29 -0.04,0.04 -0.11,0.08 -0.19,0.14l-0.05 0.03 -0.06 0.04 -0.12 0.07c-0.19,0.13 -0.33,0.25 -0.43,0.37 -0.13,0.17 -0.2,0.35 -0.21,0.55 -0.01,0.16 0.02,0.3 0.09,0.44 0.06,0.13 0.16,0.24 0.28,0.32 0.28,0.18 0.62,0.21 1.03,0.09 0.55,-0.17 1.1,-0.64 1.64,-1.43 0.49,-0.7 0.8,-1.37 0.94,-2.01 0.14,-0.65 0.15,-1.13 0.02,-1.44 -0.11,-0.26 -0.3,-0.39 -0.59,-0.39z"/>
  <path id="_4" class="fil0" d="M22.81 3.68c-0.02,0.01 -0.05,0.03 -0.08,0.06l-0.04 0.03 -0.04 0.03c-0.07,0.05 -0.13,0.07 -0.19,0.09 -0.07,0.02 -0.14,0.02 -0.21,0.01 0.13,-0.03 0.25,-0.08 0.36,-0.15l0.04 -0.03 0.04 -0.03c0.04,-0.02 0.07,-0.04 0.1,-0.05 0.07,-0.03 0.14,-0.04 0.21,-0.03 -0.06,0.01 -0.12,0.04 -0.18,0.08zm-2.14 -2.47c-0.13,0.13 -0.24,0.29 -0.34,0.47 -0.09,0.15 -0.17,0.33 -0.24,0.54 0.04,-0.2 0.1,-0.39 0.19,-0.57 0.09,-0.18 0.2,-0.35 0.34,-0.49 0.15,-0.15 0.31,-0.27 0.5,-0.34 0.1,-0.04 0.2,-0.06 0.29,-0.08 0.11,-0.02 0.21,-0.02 0.3,-0.01 -0.21,0.02 -0.4,0.06 -0.57,0.13 -0.18,0.09 -0.33,0.2 -0.47,0.34zm2.94 2.86c-0.03,-0.39 -0.17,-0.63 -0.41,-0.72 -0.11,-0.04 -0.22,-0.05 -0.34,-0.02 -0.12,0.03 -0.24,0.08 -0.34,0.17 -0.11,0.08 -0.22,0.12 -0.33,0.1 -0.11,-0.01 -0.21,-0.06 -0.3,-0.15 -0.09,-0.09 -0.16,-0.21 -0.2,-0.36 -0.04,-0.16 -0.05,-0.34 -0.03,-0.52 0.04,-0.27 0.17,-0.42 0.39,-0.46 0.16,-0.02 0.38,0.02 0.67,0.12 0.13,0.04 0.24,0.04 0.35,-0.01 0.1,-0.05 0.18,-0.13 0.23,-0.24 0.05,-0.12 0.07,-0.25 0.04,-0.39 -0.02,-0.15 -0.09,-0.3 -0.19,-0.44 -0.22,-0.3 -0.52,-0.51 -0.88,-0.62 -0.33,-0.1 -0.67,-0.11 -1.01,-0.03 -0.44,0.11 -0.8,0.39 -1.09,0.85 -0.31,0.5 -0.47,1.12 -0.47,1.85 0,0.84 0.21,1.49 0.64,1.96 0.2,0.22 0.44,0.39 0.71,0.49 0.27,0.1 0.57,0.14 0.88,0.12 0.54,-0.04 0.96,-0.24 1.29,-0.58 0.31,-0.32 0.44,-0.7 0.4,-1.12z"/>
  <path id="_5" class="fil0" d="M26.45 1.6c-0.1,0.13 -0.2,0.23 -0.29,0.32 -0.12,0.11 -0.24,0.19 -0.36,0.23 0.09,-0.06 0.2,-0.15 0.32,-0.27 0.09,-0.1 0.19,-0.2 0.28,-0.32 0.04,-0.06 0.09,-0.11 0.13,-0.17l0.03 -0.04 0.03 -0.04c0.02,-0.04 0.05,-0.07 0.07,-0.09 0.05,-0.06 0.11,-0.1 0.17,-0.13 0.07,-0.04 0.15,-0.05 0.21,-0.04 -0.13,0.01 -0.24,0.08 -0.34,0.21 -0.02,0.02 -0.04,0.05 -0.06,0.09l-0.03 0.04 -0.03 0.04c-0.03,0.05 -0.08,0.11 -0.13,0.18zm-1.46 -0.82c-0.05,0.03 -0.1,0.08 -0.14,0.13 -0.06,0.08 -0.13,0.19 -0.19,0.33 -0.04,0.09 -0.08,0.21 -0.13,0.37l-0.06 0.19 -0.06 0.19c0.01,-0.15 0.03,-0.28 0.06,-0.39 0.03,-0.14 0.07,-0.27 0.12,-0.38 0.06,-0.15 0.13,-0.26 0.21,-0.34 0.05,-0.05 0.1,-0.09 0.16,-0.12 0.07,-0.03 0.13,-0.04 0.2,-0.04 -0.07,0.01 -0.13,0.03 -0.18,0.07zm1.66 2.16c-0.1,-0.05 -0.12,-0.1 -0.07,-0.15 0.02,-0.02 0.06,-0.04 0.12,-0.07l0.04 -0.02 0.04 -0.02c0.04,-0.02 0.08,-0.03 0.1,-0.04 0.19,-0.09 0.33,-0.19 0.45,-0.3 0.17,-0.16 0.29,-0.34 0.36,-0.56 0.06,-0.2 0.06,-0.39 -0.01,-0.57 -0.07,-0.17 -0.18,-0.29 -0.33,-0.37 -0.16,-0.08 -0.32,-0.1 -0.49,-0.05 -0.19,0.05 -0.35,0.18 -0.48,0.38 -0.22,0.34 -0.44,0.58 -0.64,0.7 -0.08,0.05 -0.14,0.07 -0.17,0.04 -0.03,-0.03 -0.02,-0.08 0.02,-0.18 0.18,-0.37 0.23,-0.68 0.17,-0.91 -0.06,-0.19 -0.19,-0.32 -0.39,-0.36 -0.42,-0.1 -0.75,0.11 -0.98,0.63 -0.19,0.42 -0.31,1.02 -0.36,1.82 -0.05,0.8 -0.02,1.45 0.11,1.94 0.15,0.59 0.43,0.88 0.82,0.87 0.36,-0.01 0.57,-0.28 0.63,-0.8 0.02,-0.18 0.02,-0.38 0,-0.6 -0.01,-0.08 -0.02,-0.15 -0.03,-0.23 -0,-0.03 -0.01,-0.06 -0.01,-0.09l-0 -0.03 -0 -0.02 0 -0.01c-0.01,-0.07 -0,-0.11 0.03,-0.14 0.03,-0.02 0.07,-0.01 0.12,0.03 0.14,0.12 0.26,0.4 0.38,0.85 0.08,0.29 0.19,0.53 0.33,0.71 0.14,0.17 0.29,0.28 0.46,0.34 0.16,0.05 0.32,0.05 0.48,-0.01 0.16,-0.06 0.29,-0.17 0.4,-0.33 0.12,-0.18 0.18,-0.38 0.19,-0.61 0,-0.22 -0.04,-0.44 -0.14,-0.67 -0.22,-0.48 -0.6,-0.87 -1.15,-1.18z"/>
  <path id="_6" class="fil0" d="M33.18 0.92c-0.03,0.03 -0.05,0.08 -0.07,0.14 -0.01,0.04 -0.03,0.1 -0.04,0.17l-0.02 0.09 -0.02 0.09c-0.01,-0.06 -0.02,-0.12 -0.02,-0.18 0,-0.06 0.01,-0.13 0.03,-0.18 0.03,-0.08 0.06,-0.13 0.11,-0.16 0.05,-0.04 0.11,-0.05 0.18,-0.03 -0.07,0.02 -0.12,0.04 -0.15,0.07zm-0.07 1.83c-0.04,0.08 -0.09,0.13 -0.16,0.17 -0.07,0.04 -0.15,0.05 -0.22,0.04 0.08,-0.02 0.14,-0.05 0.19,-0.09 0.05,-0.04 0.1,-0.09 0.13,-0.15 0.02,-0.05 0.04,-0.12 0.05,-0.2l0.02 -0.22c0.02,0.07 0.04,0.14 0.04,0.22 0,0.09 -0.01,0.16 -0.04,0.23zm-2.37 -1.91c-0.07,0.05 -0.13,0.12 -0.18,0.22 -0.05,0.09 -0.09,0.18 -0.12,0.27 -0.03,0.09 -0.06,0.18 -0.09,0.28 -0.04,0.15 -0.09,0.34 -0.13,0.58 -0.02,0.09 -0.03,0.19 -0.05,0.3l-0.05 0.3c0,-0.19 0.02,-0.39 0.04,-0.6 0.03,-0.2 0.06,-0.4 0.11,-0.6 0.07,-0.24 0.15,-0.43 0.23,-0.56 0.07,-0.1 0.14,-0.18 0.21,-0.23 0.1,-0.06 0.2,-0.09 0.29,-0.08 -0.1,0.01 -0.19,0.04 -0.27,0.11zm2.71 -0.27c-0.26,-0.03 -0.45,0.04 -0.57,0.22 -0.15,0.22 -0.19,0.61 -0.11,1.15 0.04,0.3 0.06,0.49 0.06,0.57 -0.01,0.1 -0.04,0.14 -0.1,0.15 -0.03,0 -0.07,-0.03 -0.11,-0.1 -0.03,-0.05 -0.06,-0.15 -0.11,-0.28l-0.02 -0.04 -0.02 -0.04 -0.03 -0.1c-0.03,-0.08 -0.05,-0.15 -0.07,-0.21 -0.06,-0.16 -0.13,-0.31 -0.19,-0.43 -0.2,-0.39 -0.43,-0.66 -0.68,-0.84 -0.31,-0.21 -0.62,-0.23 -0.92,-0.04 -0.24,0.15 -0.44,0.51 -0.58,1.07 -0.13,0.52 -0.2,1.11 -0.2,1.76 0,0.66 0.07,1.21 0.21,1.65 0.16,0.48 0.38,0.73 0.67,0.73 0.44,0 0.66,-0.3 0.64,-0.91 -0,-0.1 -0.01,-0.21 -0.03,-0.34 -0.01,-0.04 -0.01,-0.09 -0.02,-0.16l-0.01 -0.07 -0.01 -0.07c-0.02,-0.2 -0.02,-0.3 0.02,-0.31 0.03,-0.01 0.06,0 0.07,0.03 0.01,0.02 0.04,0.07 0.08,0.16 0.02,0.05 0.04,0.1 0.06,0.15 0.03,0.07 0.07,0.13 0.1,0.2 0.09,0.18 0.2,0.37 0.34,0.57 0.15,0.24 0.34,0.42 0.55,0.55 0.23,0.14 0.46,0.19 0.69,0.16 0.79,-0.11 1.21,-0.88 1.26,-2.3 0.03,-0.77 -0.05,-1.43 -0.23,-1.97 -0.18,-0.56 -0.43,-0.86 -0.75,-0.9z"/>
  <path id="_7" class="fil0" d="M35.77 1.85c-0.02,0.04 -0.04,0.06 -0.07,0.08 -0.03,0.02 -0.06,0.04 -0.1,0.04 0.06,-0.03 0.1,-0.08 0.13,-0.14 0.02,-0.05 0.04,-0.11 0.05,-0.19 0.02,0.07 0.01,0.14 -0.02,0.21zm-0.2 0.01c-0.04,0.01 -0.08,0 -0.11,-0.03 -0.04,-0.03 -0.06,-0.08 -0.07,-0.14 -0.01,-0.06 -0.01,-0.12 0.01,-0.16 0.02,-0.05 0.05,-0.08 0.08,-0.09 0.04,-0.01 0.07,0 0.11,0.03 0.04,0.03 0.06,0.08 0.07,0.14 0.01,0.06 0.01,0.12 -0.01,0.16 -0.02,0.05 -0.05,0.08 -0.08,0.09zm-0.48 -1.12c-0.05,0.06 -0.08,0.14 -0.12,0.24 -0.03,0.08 -0.05,0.16 -0.07,0.26 0,-0.04 0.01,-0.08 0.01,-0.14 0.01,-0.04 0.02,-0.09 0.03,-0.13 0.03,-0.09 0.07,-0.18 0.12,-0.25 0.06,-0.08 0.13,-0.14 0.2,-0.18 0.04,-0.02 0.08,-0.03 0.13,-0.04 0.05,-0.01 0.09,-0.01 0.14,-0.01 -0.1,0.01 -0.18,0.03 -0.25,0.07 -0.07,0.04 -0.14,0.1 -0.19,0.18zm0.61 -0.35c-0.28,-0.05 -0.51,0.02 -0.68,0.22 -0.15,0.18 -0.23,0.42 -0.25,0.72 -0.01,0.29 0.04,0.56 0.16,0.8 0.13,0.26 0.31,0.41 0.53,0.46 0.21,0.05 0.4,-0.03 0.56,-0.23 0.15,-0.18 0.25,-0.42 0.3,-0.72 0.05,-0.3 0.02,-0.56 -0.07,-0.79 -0.11,-0.26 -0.29,-0.41 -0.54,-0.46z"/>
  <path id="_8" class="fil0" d="M39.9 2.69c-0.07,0.06 -0.16,0.1 -0.26,0.14 -0.11,0.04 -0.2,0.07 -0.26,0.11 -0.09,0.06 -0.14,0.13 -0.15,0.22 -0.01,-0.05 0,-0.1 0.02,-0.14 0.02,-0.04 0.05,-0.08 0.1,-0.12 0.06,-0.05 0.15,-0.09 0.27,-0.13 0.09,-0.03 0.17,-0.07 0.25,-0.12 0.09,-0.06 0.15,-0.12 0.2,-0.2 -0.02,0.09 -0.08,0.17 -0.16,0.24zm-1.05 1.69c-0.13,-0.01 -0.23,-0.02 -0.31,-0.01 -0.07,0.01 -0.11,0.02 -0.14,0.04 -0.02,0.01 -0.03,0.03 -0.04,0.06l-0.01 0.04 -0.01 0.04c0,-0.03 0,-0.06 0,-0.08 0.01,-0.03 0.02,-0.06 0.04,-0.08 0.03,-0.03 0.09,-0.05 0.16,-0.07 0.08,-0.01 0.19,-0.02 0.33,-0.01 0.08,0.01 0.19,0.02 0.32,0.04l0.16 0.03 0.16 0.03c-0.09,0.01 -0.2,0.01 -0.33,0l-0.16 -0.02 -0.16 -0.02zm0.26 -3.47c-0.16,0.06 -0.28,0.13 -0.38,0.19 -0.05,0.03 -0.11,0.07 -0.17,0.12 -0.05,0.04 -0.1,0.09 -0.15,0.14 -0.1,0.12 -0.15,0.25 -0.15,0.38 -0.02,-0.07 -0.01,-0.14 0.01,-0.22 0.02,-0.07 0.05,-0.13 0.1,-0.2 0.07,-0.1 0.18,-0.2 0.32,-0.29 0.25,-0.15 0.52,-0.24 0.81,-0.27 -0.14,0.04 -0.27,0.09 -0.4,0.14zm2.33 2.61c-0.07,-0.09 -0.14,-0.17 -0.22,-0.24 -0.06,-0.05 -0.12,-0.09 -0.2,-0.14l-0.04 -0.03 -0.04 -0.03c-0.03,-0.02 -0.05,-0.03 -0.06,-0.04 -0.04,-0.03 -0.06,-0.06 -0.06,-0.09 -0.01,-0.04 0.03,-0.09 0.09,-0.16 0.02,-0.02 0.06,-0.05 0.1,-0.1l0.03 -0.03 0.03 -0.03 0.06 -0.06c0.11,-0.1 0.19,-0.19 0.25,-0.29 0.08,-0.13 0.14,-0.26 0.16,-0.4 0.06,-0.36 -0.02,-0.67 -0.23,-0.93 -0.22,-0.27 -0.57,-0.44 -1.03,-0.51 -0.23,-0.04 -0.48,-0.03 -0.76,0.02 -0.28,0.05 -0.54,0.13 -0.77,0.25 -0.25,0.12 -0.45,0.27 -0.58,0.44 -0.15,0.19 -0.21,0.39 -0.18,0.61 0.06,0.54 0.52,0.69 1.35,0.47 0.14,-0.04 0.25,-0.05 0.34,-0.04 0.08,0.01 0.12,0.03 0.13,0.07 0.02,0.04 -0,0.08 -0.06,0.13 -0.06,0.05 -0.14,0.09 -0.24,0.13 -0.39,0.13 -0.57,0.34 -0.56,0.63 0.01,0.15 0.06,0.27 0.16,0.36 0.11,0.1 0.25,0.15 0.43,0.14 0.18,-0 0.29,0.05 0.33,0.15 0.02,0.04 0.02,0.09 -0,0.13 -0.02,0.05 -0.06,0.08 -0.11,0.11 -0.08,0.04 -0.23,0.05 -0.43,0.03 -0.04,-0 -0.08,-0.01 -0.13,-0.01l-0.14 -0.02c-0.12,-0.02 -0.21,-0.02 -0.28,-0.03 -0.21,-0.01 -0.37,0.01 -0.49,0.06 -0.14,0.07 -0.22,0.2 -0.24,0.4 -0.02,0.22 0.08,0.44 0.31,0.65 0.21,0.19 0.49,0.35 0.84,0.46 0.35,0.11 0.7,0.16 1.04,0.14 0.37,-0.02 0.68,-0.12 0.91,-0.31 0.33,-0.26 0.51,-0.58 0.55,-0.99 0.03,-0.36 -0.05,-0.68 -0.26,-0.95z"/>
  <path id="_9" class="fil0" d="M3.36 11.59c-0.03,0 -0.07,0 -0.12,0.01l-0.07 0.01 -0.07 0c0.07,-0.06 0.16,-0.09 0.26,-0.09 0.05,0 0.1,0.01 0.14,0.02 0.05,0.02 0.08,0.05 0.11,0.08 -0.09,-0.03 -0.17,-0.04 -0.24,-0.03zm-2.11 -1.2c-0.06,0.06 -0.11,0.11 -0.16,0.16 -0.11,0.13 -0.2,0.25 -0.27,0.36 -0.08,0.13 -0.14,0.26 -0.18,0.41 -0.04,0.14 -0.05,0.29 -0.05,0.45l-0.02 -0.12 -0 -0.06 0 -0.06 0 -0.06 0 -0.06 0.01 -0.05 0.01 -0.06c0.03,-0.14 0.08,-0.29 0.17,-0.43 0.08,-0.13 0.18,-0.25 0.29,-0.36 0.06,-0.05 0.11,-0.11 0.17,-0.15l0.09 -0.07c0.04,-0.03 0.07,-0.05 0.1,-0.06l-0.08 0.08 -0.08 0.08zm0.37 -2.38c-0.07,0.03 -0.14,0.06 -0.2,0.1 -0.14,0.07 -0.26,0.15 -0.37,0.25 -0.12,0.09 -0.22,0.19 -0.32,0.31 -0.05,0.06 -0.09,0.12 -0.12,0.19 -0.04,0.07 -0.07,0.14 -0.08,0.21 -0,-0.13 0.05,-0.27 0.16,-0.43 0.08,-0.12 0.19,-0.24 0.32,-0.34 0.13,-0.1 0.26,-0.18 0.4,-0.24 0.07,-0.03 0.15,-0.06 0.21,-0.08 0.08,-0.02 0.16,-0.04 0.23,-0.05l-0.11 0.04c-0.04,0.01 -0.08,0.03 -0.11,0.04zm1.38 3.33c-0.21,0.08 -0.4,0.12 -0.57,0.1 -0.15,-0.01 -0.23,-0.04 -0.27,-0.1 -0.01,-0.03 -0.02,-0.06 -0.02,-0.09 -0,-0.04 0.01,-0.09 0.03,-0.13 0.06,-0.12 0.2,-0.25 0.43,-0.39 0.29,-0.18 0.54,-0.41 0.74,-0.68 0.19,-0.27 0.32,-0.55 0.37,-0.84 0.06,-0.3 0.04,-0.57 -0.07,-0.82 -0.11,-0.26 -0.31,-0.47 -0.6,-0.61 -0.34,-0.17 -0.7,-0.23 -1.08,-0.18 -0.33,0.04 -0.65,0.17 -0.96,0.36 -0.28,0.19 -0.49,0.41 -0.63,0.65 -0.14,0.25 -0.17,0.47 -0.1,0.66 0.08,0.18 0.22,0.29 0.43,0.32 0.22,0.03 0.48,-0.02 0.79,-0.16 0.17,-0.08 0.29,-0.13 0.36,-0.14 0.07,-0.01 0.12,-0 0.16,0.03 0.08,0.08 -0.02,0.19 -0.28,0.34 -0.48,0.28 -0.85,0.59 -1.09,0.93 -0.31,0.43 -0.4,0.89 -0.29,1.37 0.08,0.34 0.32,0.59 0.72,0.75 0.32,0.13 0.73,0.19 1.23,0.2 0.5,0 0.9,-0.06 1.22,-0.2 0.32,-0.14 0.51,-0.33 0.56,-0.58 0.03,-0.12 0.02,-0.25 -0.02,-0.37 -0.04,-0.13 -0.11,-0.24 -0.2,-0.32 -0.1,-0.09 -0.22,-0.15 -0.35,-0.18 -0.16,-0.02 -0.32,-0 -0.49,0.07z"/>
  <path id="_10" class="fil0" d="M6.84 11.16c-0.04,0.08 -0.09,0.15 -0.16,0.2 -0.07,0.06 -0.15,0.09 -0.23,0.1 0.14,-0.07 0.25,-0.18 0.32,-0.34 0.06,-0.11 0.1,-0.27 0.12,-0.46 0.04,0.17 0.02,0.33 -0.06,0.49zm-0.47 0.02c-0.09,0.03 -0.18,0 -0.27,-0.08 -0.09,-0.08 -0.14,-0.19 -0.17,-0.34 -0.03,-0.14 -0.02,-0.28 0.02,-0.4 0.04,-0.12 0.11,-0.2 0.2,-0.22 0.09,-0.03 0.18,0 0.26,0.08 0.09,0.08 0.14,0.19 0.17,0.34 0.03,0.14 0.02,0.28 -0.02,0.39 -0.04,0.12 -0.11,0.2 -0.2,0.22zm-1.14 -2.69c-0.11,0.15 -0.2,0.34 -0.29,0.57 -0.06,0.18 -0.12,0.39 -0.16,0.63 0,-0.08 0.01,-0.19 0.03,-0.32 0.02,-0.11 0.05,-0.21 0.07,-0.32 0.06,-0.22 0.16,-0.42 0.28,-0.6 0.14,-0.2 0.3,-0.34 0.49,-0.43 0.1,-0.05 0.2,-0.08 0.31,-0.1 0.11,-0.02 0.22,-0.02 0.32,-0.02 -0.24,0.02 -0.44,0.07 -0.61,0.17 -0.18,0.1 -0.33,0.24 -0.45,0.43zm1.47 -0.85c-0.68,-0.13 -1.23,0.04 -1.63,0.52 -0.36,0.42 -0.56,1 -0.59,1.72 -0.03,0.7 0.09,1.34 0.38,1.92 0.31,0.62 0.73,0.99 1.27,1.11 0.5,0.11 0.95,-0.08 1.35,-0.56 0.36,-0.44 0.6,-1.01 0.71,-1.71 0.11,-0.72 0.05,-1.35 -0.17,-1.9 -0.26,-0.61 -0.69,-0.98 -1.3,-1.09z"/>
  <path id="_11" class="fil0" d="M11.73 11.59c-0.03,0 -0.07,0 -0.12,0.01l-0.07 0.01 -0.07 0c0.07,-0.06 0.16,-0.09 0.26,-0.09 0.05,0 0.1,0.01 0.14,0.02 0.05,0.02 0.08,0.05 0.11,0.08 -0.09,-0.03 -0.17,-0.04 -0.24,-0.03zm-2.11 -1.2c-0.06,0.06 -0.11,0.11 -0.16,0.16 -0.11,0.13 -0.2,0.25 -0.27,0.36 -0.08,0.13 -0.14,0.26 -0.18,0.41 -0.04,0.14 -0.05,0.29 -0.05,0.45l-0.02 -0.12 -0 -0.06 0 -0.06 0 -0.06 0 -0.06 0.01 -0.05 0.01 -0.06c0.03,-0.14 0.08,-0.29 0.17,-0.43 0.08,-0.13 0.18,-0.25 0.29,-0.36 0.06,-0.05 0.12,-0.11 0.17,-0.15l0.09 -0.07c0.04,-0.03 0.07,-0.05 0.1,-0.06l-0.08 0.08 -0.08 0.08zm0.37 -2.38c-0.07,0.03 -0.14,0.06 -0.2,0.1 -0.14,0.07 -0.26,0.15 -0.37,0.25 -0.12,0.09 -0.22,0.19 -0.32,0.31 -0.05,0.06 -0.09,0.12 -0.12,0.19 -0.04,0.07 -0.07,0.14 -0.08,0.21 -0,-0.13 0.05,-0.27 0.16,-0.43 0.08,-0.12 0.19,-0.24 0.32,-0.34 0.13,-0.1 0.26,-0.18 0.4,-0.24 0.07,-0.03 0.15,-0.06 0.21,-0.08 0.08,-0.02 0.16,-0.04 0.23,-0.05l-0.11 0.04c-0.04,0.01 -0.08,0.03 -0.11,0.04zm1.38 3.33c-0.21,0.08 -0.4,0.12 -0.57,0.1 -0.15,-0.01 -0.23,-0.04 -0.27,-0.1 -0.01,-0.03 -0.02,-0.06 -0.02,-0.09 -0,-0.04 0.01,-0.09 0.03,-0.13 0.06,-0.12 0.2,-0.25 0.43,-0.39 0.29,-0.18 0.54,-0.41 0.74,-0.68 0.19,-0.27 0.32,-0.55 0.37,-0.84 0.06,-0.3 0.04,-0.57 -0.07,-0.82 -0.11,-0.26 -0.31,-0.47 -0.6,-0.61 -0.34,-0.17 -0.7,-0.23 -1.08,-0.18 -0.33,0.04 -0.65,0.17 -0.96,0.36 -0.28,0.19 -0.49,0.41 -0.63,0.65 -0.14,0.25 -0.17,0.47 -0.1,0.66 0.08,0.18 0.22,0.29 0.43,0.32 0.22,0.03 0.48,-0.02 0.79,-0.16 0.17,-0.08 0.29,-0.13 0.36,-0.14 0.07,-0.01 0.12,-0 0.16,0.03 0.08,0.08 -0.02,0.19 -0.28,0.34 -0.48,0.28 -0.85,0.59 -1.09,0.93 -0.31,0.43 -0.4,0.89 -0.29,1.37 0.08,0.34 0.32,0.59 0.72,0.75 0.32,0.13 0.73,0.19 1.23,0.2 0.5,0 0.9,-0.06 1.22,-0.2 0.32,-0.14 0.51,-0.33 0.56,-0.58 0.03,-0.12 0.02,-0.25 -0.02,-0.37 -0.04,-0.13 -0.11,-0.24 -0.2,-0.32 -0.1,-0.09 -0.22,-0.15 -0.36,-0.18 -0.16,-0.02 -0.32,-0 -0.49,0.07z"/>
  <path id="_12" class="fil0" d="M19.88 7.97c-0.11,0.03 -0.21,0.07 -0.3,0.11 -0.21,0.1 -0.38,0.23 -0.51,0.37 -0.06,0.07 -0.11,0.16 -0.16,0.26 -0.03,0.08 -0.06,0.18 -0.1,0.31 -0.03,0.1 -0.04,0.2 -0.06,0.32 -0.01,0.05 -0.02,0.1 -0.02,0.16l-0.01 0.16c-0.01,-0.23 0,-0.45 0.04,-0.65 0.05,-0.27 0.14,-0.47 0.26,-0.61 0.15,-0.16 0.33,-0.28 0.54,-0.37 0.1,-0.04 0.2,-0.07 0.31,-0.1 0.12,-0.02 0.22,-0.04 0.32,-0.04 -0.13,0.02 -0.23,0.05 -0.31,0.07zm2.14 0.48c-0.02,-0.22 -0.15,-0.4 -0.39,-0.56 -0.23,-0.15 -0.52,-0.24 -0.86,-0.28 -0.36,-0.04 -0.7,-0.01 -1.03,0.08 -0.37,0.1 -0.67,0.28 -0.9,0.53 -0.21,0.23 -0.34,0.59 -0.4,1.09 -0.05,0.46 -0.02,0.95 0.07,1.49 0.1,0.53 0.24,0.99 0.44,1.37 0.21,0.41 0.45,0.65 0.71,0.73 0.37,0.11 0.64,0.02 0.79,-0.28 0.14,-0.26 0.16,-0.61 0.08,-1.05 -0.01,-0.06 -0.03,-0.14 -0.05,-0.25 -0.01,-0.03 -0.02,-0.08 -0.03,-0.14l-0.02 -0.08 -0.02 -0.08c-0.06,-0.27 -0.11,-0.49 -0.13,-0.65 -0.09,-0.54 -0.07,-0.88 0.06,-1.02 0.06,-0.06 0.19,-0.11 0.4,-0.13 0.04,-0 0.08,-0.01 0.14,-0.01l0.15 -0.01c0.12,-0.01 0.22,-0.02 0.3,-0.03 0.23,-0.04 0.4,-0.1 0.51,-0.19 0.14,-0.12 0.2,-0.29 0.19,-0.51z"/>
  <path id="_13" class="fil0" d="M24.93 11.26c-0.05,0.07 -0.11,0.12 -0.17,0.15 -0.07,0.04 -0.14,0.06 -0.21,0.05 0.14,-0.05 0.25,-0.13 0.33,-0.24 0.07,-0.1 0.13,-0.23 0.15,-0.39 0.04,0.15 0,0.3 -0.09,0.43zm-0.77 -0.38c-0.02,-0.09 0,-0.18 0.04,-0.26 0.04,-0.08 0.11,-0.12 0.19,-0.13 0.08,-0.01 0.15,0.01 0.22,0.07 0.07,0.06 0.11,0.13 0.12,0.23 0.02,0.1 0,0.18 -0.04,0.25 -0.04,0.08 -0.11,0.12 -0.19,0.13 -0.08,0.01 -0.15,-0.01 -0.22,-0.07 -0.07,-0.06 -0.11,-0.13 -0.12,-0.23zm-0.19 -2.86c-0.19,0.08 -0.36,0.18 -0.51,0.32 -0.14,0.13 -0.26,0.28 -0.38,0.48l-0.04 0.07 -0.04 0.07 -0.07 0.14 -0.06 0.15 -0.06 0.14c0.04,-0.21 0.11,-0.4 0.21,-0.59 0.1,-0.19 0.22,-0.36 0.38,-0.5 0.16,-0.15 0.34,-0.26 0.54,-0.33 0.09,-0.03 0.19,-0.06 0.3,-0.07l0.08 -0.01 0.08 -0 0.16 0c-0.22,0.02 -0.42,0.06 -0.6,0.13zm1.24 -0.34c-0.76,-0.19 -1.4,-0.06 -1.91,0.38 -0.45,0.39 -0.73,0.94 -0.84,1.66 -0.11,0.7 -0.02,1.35 0.25,1.94 0.29,0.65 0.73,1.05 1.33,1.21 0.56,0.15 1.09,0.01 1.59,-0.44 0.45,-0.41 0.78,-0.96 0.97,-1.65 0.2,-0.71 0.19,-1.34 -0.02,-1.9 -0.24,-0.63 -0.69,-1.03 -1.37,-1.2z"/>
  <path id="_14" class="fil0" d="M30.69 11.08c-0.02,0.09 -0.07,0.16 -0.14,0.21 -0.06,0.05 -0.14,0.08 -0.23,0.1 -0.08,0.02 -0.16,0.02 -0.24,0 0.1,-0.02 0.17,-0.04 0.23,-0.06 0.08,-0.03 0.15,-0.06 0.2,-0.1 0.05,-0.04 0.1,-0.1 0.13,-0.18 0.02,-0.05 0.04,-0.13 0.06,-0.23 0.02,0.08 0.02,0.17 0,0.25zm-0.94 -0.1c-0.05,-0.09 -0.03,-0.23 0.05,-0.42 0.08,-0.2 0.17,-0.3 0.27,-0.29 0.12,0 0.21,0.11 0.29,0.32 0.03,0.09 0.05,0.17 0.05,0.25 0,0.08 -0.01,0.15 -0.03,0.19 -0.04,0.06 -0.14,0.09 -0.31,0.09 -0.17,-0 -0.27,-0.04 -0.32,-0.12zm-0.5 -2.41c-0.1,0.15 -0.2,0.32 -0.29,0.5 -0.07,0.14 -0.15,0.32 -0.23,0.54 0.04,-0.18 0.1,-0.37 0.18,-0.56 0.07,-0.17 0.16,-0.35 0.28,-0.52 0.13,-0.18 0.26,-0.33 0.39,-0.44 0.08,-0.06 0.16,-0.11 0.26,-0.15 0.1,-0.04 0.19,-0.06 0.28,-0.06 -0.17,0.02 -0.34,0.1 -0.5,0.25 -0.13,0.12 -0.25,0.26 -0.37,0.44zm-1.63 2.92c-0.06,0.03 -0.11,0.06 -0.14,0.09 -0.04,0.04 -0.08,0.09 -0.09,0.14 -0.01,-0.06 0.01,-0.13 0.05,-0.18 0.03,-0.04 0.08,-0.08 0.15,-0.12 0.11,-0.06 0.23,-0.09 0.36,-0.09l-0.08 0.04 -0.08 0.04c-0.07,0.03 -0.12,0.05 -0.16,0.07zm4.5 -0.44c-0.1,-0.03 -0.17,-0.07 -0.21,-0.12 -0.04,-0.05 -0.07,-0.12 -0.09,-0.21 -0.01,-0.05 -0.02,-0.17 -0.03,-0.34 -0.01,-0.09 -0.01,-0.16 -0.02,-0.23 -0.01,-0.09 -0.02,-0.18 -0.03,-0.27 -0.11,-0.73 -0.31,-1.3 -0.6,-1.71 -0.28,-0.37 -0.61,-0.56 -0.99,-0.57 -0.33,-0.01 -0.65,0.17 -0.96,0.53 -0.32,0.36 -0.56,0.83 -0.73,1.4 -0.07,0.23 -0.12,0.46 -0.16,0.7 -0.01,0.04 -0.02,0.08 -0.02,0.13l-0.01 0.06 -0.01 0.06c-0.01,0.09 -0.02,0.16 -0.03,0.2 -0.02,0.12 -0.06,0.21 -0.1,0.26 -0.05,0.06 -0.13,0.1 -0.24,0.13 -0.32,0.07 -0.55,0.18 -0.67,0.35 -0.12,0.15 -0.14,0.33 -0.09,0.54 0.08,0.3 0.42,0.53 1,0.71 0.52,0.15 1.18,0.24 1.96,0.26 0.71,0.02 1.26,-0.01 1.64,-0.07 0.57,-0.09 0.93,-0.28 1.1,-0.57 0.15,-0.27 0.16,-0.52 0.03,-0.75 -0.13,-0.23 -0.38,-0.39 -0.73,-0.49z"/>
  <path id="_15" class="fil0" d="M15.11 11.14c-0.01,0.06 -0.04,0.12 -0.08,0.18 -0.04,0.06 -0.09,0.1 -0.14,0.13 -0.06,0.04 -0.12,0.06 -0.18,0.07 0.12,-0.08 0.21,-0.16 0.27,-0.24 0.06,-0.08 0.1,-0.19 0.14,-0.33 0.01,0.06 0.01,0.13 -0,0.19zm-1.51 0.28c-0.07,0.01 -0.13,0.01 -0.18,0.02 -0.06,0.02 -0.12,0.04 -0.16,0.07 -0.04,0.03 -0.08,0.07 -0.11,0.14 0.01,-0.07 0.03,-0.13 0.08,-0.18 0.04,-0.05 0.1,-0.08 0.18,-0.1 0.07,-0.01 0.13,-0.01 0.19,-0.01 0.07,0.01 0.14,0.03 0.19,0.04 -0.05,0.01 -0.12,0.01 -0.19,0.01zm0.01 -3.17c-0.07,0.05 -0.13,0.11 -0.18,0.16 -0.03,0.03 -0.05,0.06 -0.07,0.09 -0.02,0.03 -0.04,0.06 -0.06,0.1 -0.03,0.07 -0.06,0.14 -0.08,0.23 -0.01,0.04 -0.02,0.08 -0.03,0.12l-0.03 0.12c0,-0.19 0.03,-0.35 0.08,-0.5 0.02,-0.05 0.04,-0.09 0.06,-0.12 0.03,-0.03 0.05,-0.07 0.08,-0.1 0.04,-0.05 0.11,-0.11 0.19,-0.17 0.14,-0.1 0.29,-0.17 0.45,-0.22 0.09,-0.02 0.17,-0.04 0.24,-0.05 0.1,-0.01 0.19,-0.02 0.25,-0.02 -0.19,0.04 -0.35,0.08 -0.47,0.13 -0.17,0.06 -0.32,0.13 -0.43,0.22zm1.55 1.21c-0.12,-0.03 -0.25,-0.05 -0.37,-0.06 -0.04,-0 -0.09,-0.01 -0.14,-0.01l-0.07 -0 -0.06 -0c-0.16,-0.01 -0.26,-0.03 -0.29,-0.09 -0.04,-0.05 -0.04,-0.11 -0.01,-0.19 0.03,-0.08 0.08,-0.13 0.15,-0.17 0.22,-0.11 0.56,-0.12 1.02,-0.04 0.19,0.04 0.36,0.01 0.49,-0.09 0.13,-0.09 0.21,-0.22 0.23,-0.37 0.03,-0.16 0,-0.31 -0.09,-0.45 -0.1,-0.15 -0.26,-0.26 -0.48,-0.32 -0.36,-0.1 -0.77,-0.11 -1.22,-0.03 -0.57,0.09 -0.98,0.31 -1.23,0.66 -0.16,0.22 -0.24,0.54 -0.24,0.96 0,0.43 0.08,0.73 0.25,0.92 0.1,0.11 0.22,0.19 0.37,0.24 0.11,0.04 0.24,0.05 0.41,0.06l0.1 0 0.1 0c0.08,0 0.15,0 0.2,0.01 0.14,0.01 0.26,0.05 0.34,0.1 0.12,0.08 0.19,0.19 0.2,0.33 0.01,0.14 -0.03,0.24 -0.13,0.3 -0.05,0.03 -0.1,0.05 -0.15,0.05 -0.08,0.01 -0.2,-0.01 -0.36,-0.05 -0.83,-0.23 -1.28,-0.06 -1.35,0.52 -0.03,0.26 0.06,0.5 0.27,0.71 0.2,0.19 0.48,0.33 0.82,0.42 0.35,0.09 0.7,0.1 1.05,0.04 0.38,-0.07 0.7,-0.21 0.96,-0.44 0.27,-0.23 0.45,-0.5 0.55,-0.82 0.1,-0.3 0.11,-0.6 0.04,-0.9 -0.07,-0.31 -0.23,-0.57 -0.46,-0.79 -0.25,-0.24 -0.56,-0.4 -0.93,-0.48z"/>
  <path class="fil1" d="M2.7 3.74c-0.04,0.09 -0.1,0.15 -0.18,0.19 -0.08,0.04 -0.16,0.06 -0.25,0.04 0.08,-0.02 0.16,-0.04 0.22,-0.09 0.06,-0.05 0.11,-0.11 0.15,-0.18 0.06,-0.13 0.08,-0.28 0.04,-0.47 0.04,0.07 0.07,0.15 0.07,0.24 0.01,0.09 -0.01,0.18 -0.05,0.26zm-0.68 -0.22c-0.04,-0.07 -0.06,-0.14 -0.05,-0.22 0.01,-0.07 0.04,-0.12 0.09,-0.15 0.05,-0.03 0.11,-0.03 0.17,0 0.07,0.03 0.12,0.08 0.16,0.15 0.04,0.07 0.06,0.14 0.05,0.22 -0.01,0.07 -0.04,0.12 -0.09,0.15 -0.05,0.03 -0.11,0.03 -0.17,0 -0.07,-0.03 -0.12,-0.08 -0.16,-0.15zm-0.32 -1.55c0.06,-0.02 0.11,-0.04 0.16,-0.06 0.05,-0.03 0.1,-0.07 0.13,-0.1 0.04,-0.04 0.07,-0.08 0.11,-0.14 0.03,-0.05 0.05,-0.1 0.07,-0.16 0.01,0.13 -0.03,0.24 -0.13,0.35 -0.05,0.05 -0.1,0.08 -0.16,0.1 -0.06,0.02 -0.13,0.03 -0.18,0.02zm-0.08 -0.54c0.03,-0.05 0.06,-0.09 0.11,-0.1 0.04,-0.02 0.08,-0.02 0.12,0 0.03,0.02 0.05,0.05 0.06,0.1 0.01,0.05 -0.01,0.09 -0.03,0.14 -0.03,0.05 -0.06,0.09 -0.11,0.1 -0.04,0.02 -0.08,0.02 -0.11,0 -0.03,-0.02 -0.05,-0.05 -0.06,-0.1 -0.01,-0.05 0.01,-0.09 0.03,-0.14zm-0.63 -0.66c-0.06,0.06 -0.12,0.14 -0.18,0.23 -0.09,0.14 -0.18,0.31 -0.26,0.52 -0.06,0.16 -0.12,0.35 -0.17,0.56 0.02,-0.19 0.06,-0.39 0.12,-0.58 0.06,-0.2 0.15,-0.38 0.26,-0.54 0.13,-0.19 0.27,-0.33 0.42,-0.42 0.1,-0.06 0.19,-0.1 0.28,-0.12 0.1,-0.02 0.2,-0.03 0.29,-0.03 -0.2,0.02 -0.38,0.08 -0.54,0.19 -0.08,0.05 -0.15,0.12 -0.22,0.19zm1.59 1.42c-0.04,-0.02 -0.05,-0.06 -0.03,-0.12 0.01,-0.02 0.03,-0.06 0.06,-0.11l0.02 -0.03 0.02 -0.03c0.01,-0.03 0.03,-0.05 0.04,-0.08 0.07,-0.13 0.11,-0.26 0.14,-0.39 0.04,-0.18 0.04,-0.36 0.01,-0.55 -0.03,-0.21 -0.15,-0.39 -0.35,-0.53 -0.2,-0.15 -0.44,-0.23 -0.7,-0.23 -0.29,-0.01 -0.56,0.07 -0.8,0.25 -0.28,0.2 -0.5,0.5 -0.67,0.91 -0.17,0.42 -0.26,0.88 -0.27,1.37 -0.02,0.5 0.05,0.97 0.2,1.39 0.16,0.46 0.4,0.81 0.72,1.06 0.36,0.27 0.78,0.39 1.29,0.36 0.48,-0.03 0.86,-0.19 1.14,-0.47 0.26,-0.25 0.4,-0.57 0.43,-0.95 0.03,-0.37 -0.07,-0.72 -0.27,-1.05 -0.22,-0.36 -0.55,-0.62 -0.96,-0.78z"/>
  <path id="_1_0" class="fil1" d="M6.67 3.83c-0.04,0.07 -0.1,0.12 -0.18,0.15 -0.07,0.03 -0.15,0.04 -0.22,0.03 0.15,-0.03 0.27,-0.1 0.34,-0.22 0.04,-0.05 0.06,-0.11 0.08,-0.19 0.01,-0.06 0.02,-0.14 0.02,-0.22 0.03,0.07 0.04,0.15 0.03,0.23 -0.01,0.08 -0.03,0.16 -0.07,0.22zm-0.65 -0.29c-0.04,-0.07 -0.05,-0.14 -0.04,-0.21 0.01,-0.07 0.04,-0.12 0.09,-0.15 0.05,-0.03 0.11,-0.02 0.17,0.01 0.06,0.03 0.12,0.08 0.15,0.16 0.04,0.07 0.05,0.15 0.04,0.22 -0.01,0.07 -0.04,0.12 -0.1,0.14 -0.05,0.03 -0.11,0.02 -0.17,-0.01 -0.06,-0.03 -0.12,-0.09 -0.15,-0.16zm-0.34 -3.08c-0.04,0.02 -0.1,0.06 -0.16,0.1 -0.09,0.07 -0.17,0.16 -0.26,0.26 -0.06,0.07 -0.14,0.18 -0.22,0.3 -0.03,0.04 -0.06,0.1 -0.1,0.16l-0.1 0.16c0.05,-0.14 0.1,-0.26 0.15,-0.35 0.06,-0.12 0.13,-0.23 0.21,-0.32 0.09,-0.11 0.18,-0.2 0.28,-0.26 0.13,-0.09 0.25,-0.12 0.36,-0.12 -0.06,0.01 -0.12,0.03 -0.17,0.06zm0.96 1.8c-0.13,-0.04 -0.21,-0.11 -0.24,-0.2 -0.03,-0.08 -0.03,-0.19 -0,-0.34 0,-0.03 0.01,-0.06 0.02,-0.1l0.02 -0.1c0.02,-0.1 0.03,-0.17 0.04,-0.23 0.03,-0.19 0.04,-0.36 0.02,-0.5 -0.03,-0.21 -0.1,-0.37 -0.23,-0.49 -0.13,-0.12 -0.29,-0.18 -0.47,-0.16 -0.2,0.02 -0.4,0.12 -0.59,0.31 -0.22,0.21 -0.43,0.51 -0.61,0.9 -0.19,0.41 -0.31,0.85 -0.36,1.32 -0.05,0.49 -0.03,0.94 0.08,1.35 0.12,0.45 0.32,0.8 0.61,1.05 0.32,0.28 0.73,0.41 1.23,0.41 0.47,-0.01 0.86,-0.15 1.17,-0.43 0.28,-0.26 0.45,-0.58 0.51,-0.96 0.06,-0.39 -0.01,-0.74 -0.21,-1.07 -0.21,-0.35 -0.54,-0.6 -0.98,-0.73zm1.55 -1.72c-0.04,0.04 -0.07,0.08 -0.09,0.14 -0.02,0.05 -0.03,0.11 -0.03,0.18 -0,0.09 0,0.21 0.03,0.37l0.04 0.18 0.03 0.19c-0.05,-0.13 -0.09,-0.25 -0.12,-0.36 -0.04,-0.14 -0.05,-0.27 -0.05,-0.38 0.01,-0.08 0.02,-0.14 0.04,-0.19 0.03,-0.07 0.07,-0.13 0.12,-0.16 0.1,-0.08 0.22,-0.11 0.37,-0.09 -0.14,0.02 -0.25,0.06 -0.33,0.14zm1.3 0.21c-0.1,-0.2 -0.24,-0.35 -0.41,-0.46 -0.15,-0.1 -0.31,-0.16 -0.48,-0.17 -0.16,-0.01 -0.31,0.02 -0.45,0.08 -0.14,0.07 -0.24,0.16 -0.3,0.29 -0.12,0.23 -0.11,0.58 0.01,1.03 0.02,0.07 0.04,0.17 0.08,0.28l0.04 0.14 0.05 0.14c0.07,0.23 0.11,0.41 0.13,0.56 0.04,0.36 0.06,0.73 0.05,1.11 -0,0.12 -0.01,0.27 -0.02,0.43l-0 0.1 -0 0.09c-0.01,0.07 -0.01,0.13 -0.01,0.17 -0.01,0.23 0.01,0.4 0.04,0.5 0.04,0.12 0.14,0.2 0.27,0.23 0.27,0.06 0.51,-0.08 0.73,-0.43 0.19,-0.31 0.34,-0.74 0.44,-1.29 0.1,-0.53 0.14,-1.05 0.11,-1.57 -0.03,-0.54 -0.12,-0.96 -0.27,-1.25z"/>
  <path id="_2_1" class="fil1" d="M11.48 0.57c-0.02,0.01 -0.05,0.02 -0.08,0.04l-0.07 0.04 -0.07 0.04c-0.03,0.02 -0.05,0.03 -0.07,0.05 -0.08,0.05 -0.17,0.12 -0.26,0.21 -0.1,0.1 -0.17,0.19 -0.21,0.25 -0.12,0.17 -0.2,0.38 -0.24,0.62 -0.01,0.05 -0.02,0.11 -0.02,0.17l-0.01 0.17c-0.01,0.05 -0.01,0.11 -0.01,0.17l-0 0.17c-0.03,-0.24 -0.03,-0.47 -0.01,-0.69 0.02,-0.24 0.1,-0.46 0.23,-0.65l0.05 -0.07 0.06 -0.07c0.01,-0.02 0.03,-0.04 0.06,-0.06l0.03 -0.03 0.03 -0.03c0.11,-0.1 0.2,-0.17 0.28,-0.2 0.19,-0.12 0.4,-0.19 0.64,-0.23l-0.08 0.03 -0.08 0.03c-0.06,0.02 -0.11,0.04 -0.16,0.06zm2.61 0.7c-0.21,-0.45 -0.53,-0.77 -0.96,-0.97 -0.39,-0.18 -0.82,-0.23 -1.27,-0.16 -0.45,0.08 -0.83,0.26 -1.14,0.55 -0.34,0.31 -0.52,0.7 -0.57,1.15 -0.08,0.84 0.05,1.67 0.39,2.47 0.15,0.36 0.32,0.64 0.51,0.85 0.2,0.21 0.4,0.31 0.59,0.28 0.27,-0.03 0.44,-0.2 0.5,-0.48 0.07,-0.33 0.02,-0.89 -0.13,-1.69 -0.12,-0.63 -0.05,-0.97 0.21,-1 0.15,-0.02 0.26,0.09 0.34,0.33 0.07,0.22 0.11,0.5 0.1,0.85 -0.03,0.76 0.05,1.28 0.24,1.59 0.14,0.23 0.35,0.33 0.63,0.31 0.23,-0.01 0.43,-0.16 0.59,-0.45 0.15,-0.27 0.25,-0.61 0.31,-1.04 0.06,-0.43 0.06,-0.87 0,-1.32 -0.06,-0.48 -0.17,-0.9 -0.34,-1.26z"/>
  <path id="_3_2" class="fil1" d="M18.25 0.5c-0.05,0.04 -0.1,0.1 -0.15,0.17 -0.07,0.1 -0.16,0.23 -0.25,0.38l-0.06 0.1 -0.06 0.1c-0.05,0.08 -0.09,0.14 -0.13,0.19 -0.06,0.08 -0.11,0.14 -0.15,0.18 -0.07,0.06 -0.14,0.1 -0.21,0.11 0.07,-0.03 0.13,-0.08 0.18,-0.13 0.04,-0.05 0.08,-0.11 0.13,-0.18 0.03,-0.05 0.07,-0.11 0.12,-0.2l0.12 -0.2c0.1,-0.17 0.19,-0.29 0.27,-0.38 0.06,-0.07 0.12,-0.12 0.17,-0.16 0.08,-0.06 0.15,-0.09 0.21,-0.08 -0.06,0.01 -0.13,0.05 -0.19,0.11zm-2.38 3.34c-0.06,0.04 -0.11,0.08 -0.15,0.11 -0.11,0.08 -0.2,0.17 -0.27,0.25 -0.04,0.05 -0.07,0.1 -0.09,0.15 -0.02,0.04 -0.04,0.1 -0.05,0.18 -0,-0.06 0,-0.12 0.02,-0.19 0.02,-0.06 0.05,-0.12 0.08,-0.18 0.06,-0.09 0.15,-0.18 0.27,-0.27 0.08,-0.06 0.19,-0.13 0.31,-0.2l0.08 -0.05 0.08 -0.05c0.06,-0.04 0.11,-0.07 0.16,-0.1 -0.07,0.08 -0.16,0.16 -0.28,0.25l-0.15 0.1zm-0.63 -3.02c-0.04,0.05 -0.06,0.11 -0.08,0.18 -0.02,0.06 -0.03,0.13 -0.03,0.2 -0.03,-0.07 -0.04,-0.14 -0.03,-0.22 0.01,-0.08 0.03,-0.14 0.08,-0.21 0.05,-0.06 0.1,-0.11 0.17,-0.14 0.07,-0.03 0.14,-0.04 0.22,-0.03 -0.15,0.03 -0.26,0.1 -0.34,0.21zm3.2 -0.72c-0.15,0 -0.3,0.07 -0.44,0.21 -0.11,0.1 -0.23,0.26 -0.36,0.47l-0.08 0.13 -0.04 0.06 -0.03 0.06c-0.06,0.1 -0.1,0.17 -0.13,0.22 -0.09,0.14 -0.17,0.21 -0.22,0.22 -0.06,0 -0.17,-0.1 -0.35,-0.29l-0.03 -0.03 -0.03 -0.04c-0.02,-0.03 -0.05,-0.05 -0.07,-0.07 -0.05,-0.06 -0.1,-0.11 -0.15,-0.16 -0.12,-0.12 -0.24,-0.23 -0.36,-0.32 -0.18,-0.15 -0.38,-0.22 -0.58,-0.22 -0.18,0 -0.34,0.06 -0.48,0.18 -0.14,0.12 -0.22,0.27 -0.25,0.46 -0.03,0.2 0.01,0.39 0.12,0.59 0.08,0.14 0.2,0.29 0.35,0.44 0.06,0.06 0.13,0.13 0.21,0.2l0.1 0.09 0.1 0.09c0.17,0.15 0.29,0.26 0.36,0.34 0.1,0.11 0.16,0.22 0.16,0.31 0.01,0.09 -0.05,0.19 -0.17,0.29 -0.04,0.04 -0.11,0.08 -0.19,0.14l-0.05 0.03 -0.06 0.04 -0.12 0.07c-0.19,0.13 -0.33,0.25 -0.43,0.37 -0.13,0.17 -0.2,0.35 -0.21,0.55 -0.01,0.16 0.02,0.3 0.09,0.44 0.06,0.13 0.16,0.24 0.28,0.32 0.28,0.18 0.62,0.21 1.03,0.09 0.55,-0.17 1.1,-0.64 1.64,-1.43 0.49,-0.7 0.8,-1.37 0.94,-2.01 0.14,-0.65 0.15,-1.13 0.02,-1.44 -0.11,-0.26 -0.3,-0.39 -0.59,-0.39z"/>
  <path id="_4_3" class="fil1" d="M22.61 3.35c-0.02,0.01 -0.05,0.03 -0.08,0.06l-0.04 0.03 -0.04 0.03c-0.07,0.05 -0.13,0.07 -0.19,0.09 -0.07,0.02 -0.14,0.02 -0.21,0.01 0.13,-0.03 0.25,-0.08 0.36,-0.15l0.04 -0.03 0.04 -0.03c0.04,-0.02 0.07,-0.04 0.1,-0.05 0.07,-0.03 0.14,-0.04 0.21,-0.03 -0.06,0.01 -0.12,0.04 -0.18,0.08zm-2.14 -2.47c-0.13,0.13 -0.24,0.29 -0.34,0.47 -0.09,0.15 -0.17,0.33 -0.24,0.54 0.04,-0.2 0.1,-0.39 0.19,-0.57 0.09,-0.18 0.2,-0.35 0.34,-0.49 0.15,-0.15 0.31,-0.27 0.5,-0.34 0.1,-0.04 0.2,-0.06 0.29,-0.08 0.11,-0.02 0.21,-0.02 0.3,-0.01 -0.21,0.02 -0.4,0.06 -0.57,0.13 -0.18,0.09 -0.33,0.2 -0.47,0.34zm2.94 2.86c-0.03,-0.39 -0.17,-0.63 -0.41,-0.72 -0.11,-0.04 -0.22,-0.05 -0.34,-0.02 -0.12,0.03 -0.24,0.08 -0.34,0.17 -0.11,0.08 -0.22,0.12 -0.33,0.1 -0.11,-0.01 -0.21,-0.06 -0.3,-0.15 -0.09,-0.09 -0.16,-0.21 -0.2,-0.36 -0.04,-0.16 -0.05,-0.34 -0.03,-0.52 0.04,-0.27 0.17,-0.42 0.39,-0.46 0.16,-0.02 0.38,0.02 0.67,0.12 0.13,0.04 0.24,0.04 0.35,-0.01 0.1,-0.05 0.18,-0.13 0.23,-0.24 0.05,-0.12 0.07,-0.25 0.04,-0.39 -0.02,-0.15 -0.09,-0.3 -0.19,-0.44 -0.22,-0.3 -0.52,-0.51 -0.88,-0.62 -0.33,-0.1 -0.67,-0.11 -1.01,-0.03 -0.44,0.11 -0.8,0.39 -1.09,0.85 -0.31,0.5 -0.47,1.12 -0.47,1.85 0,0.84 0.21,1.49 0.64,1.96 0.2,0.22 0.44,0.39 0.71,0.49 0.27,0.1 0.57,0.14 0.88,0.12 0.54,-0.04 0.96,-0.24 1.29,-0.58 0.31,-0.32 0.44,-0.7 0.4,-1.12z"/>
  <path id="_5_4" class="fil1" d="M26.26 1.27c-0.1,0.13 -0.2,0.23 -0.29,0.32 -0.12,0.11 -0.24,0.19 -0.36,0.23 0.09,-0.06 0.2,-0.15 0.32,-0.27 0.09,-0.1 0.19,-0.2 0.28,-0.32 0.04,-0.06 0.09,-0.11 0.13,-0.17l0.03 -0.04 0.03 -0.04c0.02,-0.04 0.05,-0.07 0.07,-0.09 0.05,-0.06 0.11,-0.1 0.17,-0.13 0.07,-0.04 0.15,-0.05 0.21,-0.04 -0.13,0.01 -0.24,0.08 -0.34,0.21 -0.02,0.02 -0.04,0.05 -0.06,0.09l-0.03 0.04 -0.03 0.04c-0.03,0.05 -0.08,0.11 -0.13,0.18zm-1.46 -0.82c-0.05,0.03 -0.1,0.08 -0.14,0.13 -0.06,0.08 -0.13,0.19 -0.19,0.33 -0.04,0.09 -0.08,0.21 -0.13,0.37l-0.06 0.19 -0.06 0.19c0.01,-0.15 0.03,-0.28 0.06,-0.39 0.03,-0.14 0.07,-0.27 0.12,-0.38 0.06,-0.15 0.13,-0.26 0.21,-0.34 0.05,-0.05 0.1,-0.09 0.16,-0.12 0.07,-0.03 0.13,-0.04 0.2,-0.04 -0.07,0.01 -0.13,0.03 -0.18,0.07zm1.66 2.16c-0.1,-0.05 -0.12,-0.1 -0.07,-0.15 0.02,-0.02 0.06,-0.04 0.12,-0.07l0.04 -0.02 0.04 -0.02c0.04,-0.02 0.08,-0.03 0.1,-0.04 0.19,-0.09 0.33,-0.19 0.45,-0.3 0.17,-0.16 0.29,-0.34 0.36,-0.56 0.06,-0.2 0.06,-0.39 -0.01,-0.57 -0.07,-0.17 -0.18,-0.29 -0.33,-0.37 -0.16,-0.08 -0.32,-0.1 -0.49,-0.05 -0.19,0.05 -0.35,0.18 -0.48,0.38 -0.22,0.34 -0.44,0.58 -0.64,0.7 -0.08,0.05 -0.14,0.07 -0.17,0.04 -0.03,-0.03 -0.02,-0.08 0.02,-0.18 0.18,-0.37 0.23,-0.68 0.17,-0.91 -0.06,-0.19 -0.19,-0.32 -0.39,-0.36 -0.42,-0.1 -0.75,0.11 -0.98,0.63 -0.19,0.42 -0.31,1.02 -0.36,1.82 -0.05,0.8 -0.02,1.45 0.11,1.94 0.15,0.59 0.43,0.88 0.82,0.87 0.36,-0.01 0.57,-0.28 0.63,-0.8 0.02,-0.18 0.02,-0.38 0,-0.6 -0.01,-0.08 -0.02,-0.15 -0.03,-0.23 -0,-0.03 -0.01,-0.06 -0.01,-0.09l-0 -0.03 -0 -0.02 0 -0.01c-0.01,-0.07 -0,-0.11 0.03,-0.14 0.03,-0.02 0.07,-0.01 0.12,0.03 0.14,0.12 0.26,0.4 0.38,0.85 0.08,0.29 0.19,0.53 0.33,0.71 0.14,0.17 0.29,0.28 0.46,0.34 0.16,0.05 0.32,0.05 0.48,-0.01 0.16,-0.06 0.29,-0.17 0.4,-0.33 0.12,-0.18 0.18,-0.38 0.19,-0.61 0,-0.22 -0.04,-0.44 -0.14,-0.67 -0.22,-0.48 -0.6,-0.87 -1.15,-1.18z"/>
  <path id="_6_5" class="fil1" d="M32.98 0.6c-0.03,0.03 -0.05,0.08 -0.07,0.14 -0.01,0.04 -0.03,0.1 -0.04,0.17l-0.02 0.09 -0.02 0.09c-0.01,-0.06 -0.02,-0.12 -0.02,-0.18 0,-0.06 0.01,-0.13 0.03,-0.18 0.03,-0.08 0.06,-0.13 0.11,-0.16 0.05,-0.04 0.11,-0.05 0.18,-0.03 -0.07,0.02 -0.12,0.04 -0.15,0.07zm-0.07 1.83c-0.04,0.08 -0.09,0.13 -0.16,0.17 -0.07,0.04 -0.15,0.05 -0.22,0.04 0.08,-0.02 0.14,-0.05 0.19,-0.09 0.05,-0.04 0.1,-0.09 0.13,-0.15 0.02,-0.05 0.04,-0.12 0.05,-0.2l0.02 -0.22c0.02,0.07 0.04,0.14 0.04,0.22 0,0.09 -0.01,0.16 -0.04,0.23zm-2.37 -1.91c-0.07,0.05 -0.13,0.12 -0.18,0.22 -0.05,0.09 -0.09,0.18 -0.12,0.27 -0.03,0.09 -0.06,0.18 -0.09,0.28 -0.04,0.15 -0.09,0.34 -0.13,0.58 -0.02,0.09 -0.03,0.19 -0.05,0.3l-0.05 0.3c0,-0.19 0.02,-0.39 0.04,-0.6 0.03,-0.2 0.06,-0.4 0.11,-0.6 0.07,-0.24 0.15,-0.43 0.23,-0.56 0.07,-0.1 0.14,-0.18 0.21,-0.23 0.1,-0.06 0.2,-0.09 0.29,-0.08 -0.1,0.01 -0.19,0.04 -0.27,0.11zm2.71 -0.27c-0.26,-0.03 -0.45,0.04 -0.57,0.22 -0.15,0.22 -0.19,0.61 -0.11,1.15 0.04,0.3 0.06,0.49 0.06,0.57 -0.01,0.1 -0.04,0.14 -0.1,0.15 -0.03,0 -0.07,-0.03 -0.11,-0.1 -0.03,-0.05 -0.06,-0.15 -0.11,-0.28l-0.02 -0.04 -0.02 -0.04 -0.03 -0.1c-0.03,-0.08 -0.05,-0.15 -0.07,-0.21 -0.06,-0.16 -0.13,-0.31 -0.19,-0.43 -0.2,-0.39 -0.43,-0.66 -0.68,-0.84 -0.31,-0.21 -0.62,-0.23 -0.92,-0.04 -0.24,0.15 -0.44,0.51 -0.58,1.07 -0.13,0.52 -0.2,1.11 -0.2,1.76 0,0.66 0.07,1.21 0.21,1.65 0.16,0.48 0.38,0.73 0.67,0.73 0.44,0 0.66,-0.3 0.64,-0.91 -0,-0.1 -0.01,-0.21 -0.03,-0.34 -0.01,-0.04 -0.01,-0.09 -0.02,-0.16l-0.01 -0.07 -0.01 -0.07c-0.02,-0.2 -0.02,-0.3 0.02,-0.31 0.03,-0.01 0.06,0 0.07,0.03 0.01,0.02 0.04,0.07 0.08,0.16 0.02,0.05 0.04,0.1 0.06,0.15 0.03,0.07 0.07,0.13 0.1,0.2 0.09,0.18 0.2,0.37 0.34,0.57 0.15,0.24 0.34,0.42 0.55,0.55 0.23,0.14 0.46,0.19 0.69,0.16 0.79,-0.11 1.21,-0.88 1.26,-2.3 0.03,-0.77 -0.05,-1.43 -0.23,-1.97 -0.18,-0.56 -0.43,-0.86 -0.75,-0.9z"/>
  <path id="_7_6" class="fil1" d="M35.57 1.52c-0.02,0.04 -0.04,0.06 -0.07,0.08 -0.03,0.02 -0.06,0.04 -0.1,0.04 0.06,-0.03 0.1,-0.08 0.13,-0.14 0.02,-0.05 0.04,-0.11 0.05,-0.19 0.02,0.07 0.01,0.14 -0.02,0.21zm-0.2 0.01c-0.04,0.01 -0.08,0 -0.11,-0.03 -0.04,-0.03 -0.06,-0.08 -0.07,-0.14 -0.01,-0.06 -0.01,-0.12 0.01,-0.16 0.02,-0.05 0.05,-0.08 0.08,-0.09 0.04,-0.01 0.07,0 0.11,0.03 0.04,0.03 0.06,0.08 0.07,0.14 0.01,0.06 0.01,0.12 -0.01,0.16 -0.02,0.05 -0.05,0.08 -0.08,0.09zm-0.48 -1.12c-0.05,0.06 -0.08,0.14 -0.12,0.24 -0.03,0.08 -0.05,0.16 -0.07,0.26 0,-0.04 0.01,-0.08 0.01,-0.14 0.01,-0.04 0.02,-0.09 0.03,-0.13 0.03,-0.09 0.07,-0.18 0.12,-0.25 0.06,-0.08 0.13,-0.14 0.2,-0.18 0.04,-0.02 0.08,-0.03 0.13,-0.04 0.05,-0.01 0.09,-0.01 0.14,-0.01 -0.1,0.01 -0.18,0.03 -0.25,0.07 -0.07,0.04 -0.14,0.1 -0.19,0.18zm0.61 -0.35c-0.28,-0.05 -0.51,0.02 -0.68,0.22 -0.15,0.18 -0.23,0.42 -0.25,0.72 -0.01,0.29 0.04,0.56 0.16,0.8 0.13,0.26 0.31,0.41 0.53,0.46 0.21,0.05 0.4,-0.03 0.56,-0.23 0.15,-0.18 0.25,-0.42 0.3,-0.72 0.05,-0.3 0.02,-0.56 -0.07,-0.79 -0.11,-0.26 -0.29,-0.41 -0.54,-0.46z"/>
  <path id="_8_7" class="fil1" d="M39.7 2.37c-0.07,0.06 -0.16,0.1 -0.26,0.14 -0.11,0.04 -0.2,0.07 -0.26,0.11 -0.09,0.06 -0.14,0.13 -0.15,0.22 -0.01,-0.05 0,-0.1 0.02,-0.14 0.02,-0.04 0.05,-0.08 0.1,-0.12 0.06,-0.05 0.15,-0.09 0.27,-0.13 0.09,-0.03 0.17,-0.07 0.25,-0.12 0.09,-0.06 0.15,-0.12 0.2,-0.2 -0.02,0.09 -0.08,0.17 -0.16,0.24zm-1.05 1.69c-0.13,-0.01 -0.23,-0.02 -0.31,-0.01 -0.07,0.01 -0.11,0.02 -0.14,0.04 -0.02,0.01 -0.03,0.03 -0.04,0.06l-0.01 0.04 -0.01 0.04c0,-0.03 0,-0.06 0,-0.08 0.01,-0.03 0.02,-0.06 0.04,-0.08 0.03,-0.03 0.09,-0.05 0.16,-0.07 0.08,-0.01 0.19,-0.02 0.33,-0.01 0.08,0.01 0.19,0.02 0.32,0.04l0.16 0.03 0.16 0.03c-0.09,0.01 -0.2,0.01 -0.33,0l-0.16 -0.02 -0.16 -0.02zm0.26 -3.47c-0.16,0.06 -0.28,0.13 -0.38,0.19 -0.05,0.03 -0.11,0.07 -0.17,0.12 -0.05,0.04 -0.1,0.09 -0.15,0.14 -0.1,0.12 -0.15,0.25 -0.15,0.38 -0.02,-0.07 -0.01,-0.14 0.01,-0.22 0.02,-0.07 0.05,-0.13 0.1,-0.2 0.07,-0.1 0.18,-0.2 0.32,-0.29 0.25,-0.15 0.52,-0.24 0.81,-0.27 -0.14,0.04 -0.27,0.09 -0.4,0.14zm2.33 2.61c-0.07,-0.09 -0.14,-0.17 -0.22,-0.24 -0.06,-0.05 -0.12,-0.09 -0.2,-0.14l-0.04 -0.03 -0.04 -0.03c-0.03,-0.02 -0.05,-0.03 -0.06,-0.04 -0.04,-0.03 -0.06,-0.06 -0.06,-0.09 -0.01,-0.04 0.03,-0.09 0.09,-0.16 0.02,-0.02 0.06,-0.05 0.1,-0.1l0.03 -0.03 0.03 -0.03 0.06 -0.06c0.11,-0.1 0.19,-0.19 0.25,-0.29 0.08,-0.13 0.14,-0.26 0.16,-0.4 0.06,-0.36 -0.02,-0.67 -0.23,-0.93 -0.22,-0.27 -0.57,-0.44 -1.03,-0.51 -0.23,-0.04 -0.48,-0.03 -0.76,0.02 -0.28,0.05 -0.54,0.13 -0.77,0.25 -0.25,0.12 -0.45,0.27 -0.58,0.44 -0.15,0.19 -0.21,0.39 -0.18,0.61 0.06,0.54 0.52,0.69 1.35,0.47 0.14,-0.04 0.25,-0.05 0.34,-0.04 0.08,0.01 0.12,0.03 0.13,0.07 0.02,0.04 -0,0.08 -0.06,0.13 -0.06,0.05 -0.14,0.09 -0.24,0.13 -0.39,0.13 -0.57,0.34 -0.56,0.63 0.01,0.15 0.06,0.27 0.16,0.36 0.11,0.1 0.25,0.15 0.43,0.14 0.18,-0 0.29,0.05 0.33,0.15 0.02,0.04 0.02,0.09 -0,0.13 -0.02,0.05 -0.06,0.08 -0.11,0.11 -0.08,0.04 -0.23,0.05 -0.43,0.03 -0.04,-0 -0.08,-0.01 -0.13,-0.01l-0.14 -0.02c-0.12,-0.02 -0.21,-0.02 -0.28,-0.03 -0.21,-0.01 -0.37,0.01 -0.49,0.06 -0.14,0.07 -0.22,0.2 -0.24,0.4 -0.02,0.22 0.08,0.44 0.31,0.65 0.21,0.19 0.49,0.35 0.84,0.46 0.35,0.11 0.7,0.16 1.04,0.14 0.37,-0.02 0.68,-0.12 0.91,-0.31 0.33,-0.26 0.51,-0.58 0.55,-0.99 0.03,-0.36 -0.05,-0.68 -0.26,-0.95z"/>
  <path id="_9_8" class="fil1" d="M3.16 11.27c-0.03,0 -0.07,0 -0.12,0.01l-0.07 0.01 -0.07 0c0.07,-0.06 0.16,-0.09 0.26,-0.09 0.05,0 0.1,0.01 0.14,0.02 0.05,0.02 0.08,0.05 0.11,0.08 -0.09,-0.03 -0.17,-0.04 -0.24,-0.03zm-2.11 -1.2c-0.06,0.06 -0.11,0.11 -0.16,0.16 -0.11,0.13 -0.2,0.25 -0.27,0.36 -0.08,0.13 -0.14,0.26 -0.18,0.41 -0.04,0.14 -0.05,0.29 -0.05,0.45l-0.02 -0.12 -0 -0.06 0 -0.06 0 -0.06 0 -0.06 0.01 -0.05 0.01 -0.06c0.03,-0.14 0.08,-0.29 0.17,-0.43 0.08,-0.13 0.18,-0.25 0.29,-0.36 0.06,-0.05 0.11,-0.11 0.17,-0.15l0.09 -0.07c0.04,-0.03 0.07,-0.05 0.1,-0.06l-0.08 0.08 -0.08 0.08zm0.37 -2.38c-0.07,0.03 -0.14,0.06 -0.2,0.1 -0.14,0.07 -0.26,0.15 -0.37,0.25 -0.12,0.09 -0.22,0.19 -0.32,0.31 -0.05,0.06 -0.09,0.12 -0.12,0.19 -0.04,0.07 -0.07,0.14 -0.08,0.21 -0,-0.13 0.05,-0.27 0.16,-0.43 0.08,-0.12 0.19,-0.24 0.32,-0.34 0.13,-0.1 0.26,-0.18 0.4,-0.24 0.07,-0.03 0.15,-0.06 0.21,-0.08 0.08,-0.02 0.16,-0.04 0.23,-0.05l-0.11 0.04c-0.04,0.01 -0.08,0.03 -0.11,0.04zm1.38 3.33c-0.21,0.08 -0.4,0.12 -0.57,0.1 -0.15,-0.01 -0.23,-0.04 -0.27,-0.1 -0.01,-0.03 -0.02,-0.06 -0.02,-0.09 -0,-0.04 0.01,-0.09 0.03,-0.13 0.06,-0.12 0.2,-0.25 0.43,-0.39 0.29,-0.18 0.54,-0.41 0.74,-0.68 0.19,-0.27 0.32,-0.55 0.37,-0.84 0.06,-0.3 0.04,-0.57 -0.07,-0.82 -0.11,-0.26 -0.31,-0.47 -0.6,-0.61 -0.34,-0.17 -0.7,-0.23 -1.08,-0.18 -0.33,0.04 -0.65,0.17 -0.96,0.36 -0.28,0.19 -0.49,0.41 -0.63,0.65 -0.14,0.25 -0.17,0.47 -0.1,0.66 0.08,0.18 0.22,0.29 0.43,0.32 0.22,0.03 0.48,-0.02 0.79,-0.16 0.17,-0.08 0.29,-0.13 0.36,-0.14 0.07,-0.01 0.12,-0 0.16,0.03 0.08,0.08 -0.02,0.19 -0.28,0.34 -0.48,0.28 -0.85,0.59 -1.09,0.93 -0.31,0.43 -0.4,0.89 -0.29,1.37 0.08,0.34 0.32,0.59 0.72,0.75 0.32,0.13 0.73,0.19 1.23,0.2 0.5,0 0.9,-0.06 1.22,-0.2 0.32,-0.14 0.51,-0.33 0.56,-0.58 0.03,-0.12 0.02,-0.25 -0.02,-0.37 -0.04,-0.13 -0.11,-0.24 -0.2,-0.32 -0.1,-0.09 -0.22,-0.15 -0.35,-0.18 -0.16,-0.02 -0.32,-0 -0.49,0.07z"/>
  <path id="_10_9" class="fil1" d="M6.64 10.83c-0.04,0.08 -0.09,0.15 -0.16,0.2 -0.07,0.06 -0.15,0.09 -0.23,0.1 0.14,-0.07 0.25,-0.18 0.32,-0.34 0.06,-0.11 0.1,-0.27 0.12,-0.46 0.04,0.17 0.02,0.33 -0.06,0.49zm-0.47 0.02c-0.09,0.03 -0.18,0 -0.27,-0.08 -0.09,-0.08 -0.14,-0.19 -0.17,-0.34 -0.03,-0.14 -0.02,-0.28 0.02,-0.4 0.04,-0.12 0.11,-0.2 0.2,-0.22 0.09,-0.03 0.18,0 0.26,0.08 0.09,0.08 0.14,0.19 0.17,0.34 0.03,0.14 0.02,0.28 -0.02,0.39 -0.04,0.12 -0.11,0.2 -0.2,0.22zm-1.14 -2.69c-0.11,0.15 -0.2,0.34 -0.29,0.57 -0.06,0.18 -0.12,0.39 -0.16,0.63 0,-0.08 0.01,-0.19 0.03,-0.32 0.02,-0.11 0.05,-0.21 0.07,-0.32 0.06,-0.22 0.16,-0.42 0.28,-0.6 0.14,-0.2 0.3,-0.34 0.49,-0.43 0.1,-0.05 0.2,-0.08 0.31,-0.1 0.11,-0.02 0.22,-0.02 0.32,-0.02 -0.24,0.02 -0.44,0.07 -0.61,0.17 -0.18,0.1 -0.33,0.24 -0.45,0.43zm1.47 -0.85c-0.68,-0.13 -1.23,0.04 -1.63,0.52 -0.36,0.42 -0.56,1 -0.59,1.72 -0.03,0.7 0.09,1.34 0.38,1.92 0.31,0.62 0.73,0.99 1.27,1.11 0.5,0.11 0.95,-0.08 1.35,-0.56 0.36,-0.44 0.6,-1.01 0.71,-1.71 0.11,-0.72 0.05,-1.35 -0.17,-1.9 -0.26,-0.61 -0.69,-0.98 -1.3,-1.09z"/>
  <path id="_11_10" class="fil1" d="M11.53 11.27c-0.03,0 -0.07,0 -0.12,0.01l-0.07 0.01 -0.07 0c0.07,-0.06 0.16,-0.09 0.26,-0.09 0.05,0 0.1,0.01 0.14,0.02 0.05,0.02 0.08,0.05 0.11,0.08 -0.09,-0.03 -0.17,-0.04 -0.24,-0.03zm-2.11 -1.2c-0.06,0.06 -0.11,0.11 -0.16,0.16 -0.11,0.13 -0.2,0.25 -0.27,0.36 -0.08,0.13 -0.14,0.26 -0.18,0.41 -0.04,0.14 -0.05,0.29 -0.05,0.45l-0.02 -0.12 -0 -0.06 0 -0.06 0 -0.06 0 -0.06 0.01 -0.05 0.01 -0.06c0.03,-0.14 0.08,-0.29 0.17,-0.43 0.08,-0.13 0.18,-0.25 0.29,-0.36 0.06,-0.05 0.12,-0.11 0.17,-0.15l0.09 -0.07c0.04,-0.03 0.07,-0.05 0.1,-0.06l-0.08 0.08 -0.08 0.08zm0.37 -2.38c-0.07,0.03 -0.14,0.06 -0.2,0.1 -0.14,0.07 -0.26,0.15 -0.37,0.25 -0.12,0.09 -0.22,0.19 -0.32,0.31 -0.05,0.06 -0.09,0.12 -0.12,0.19 -0.04,0.07 -0.07,0.14 -0.08,0.21 -0,-0.13 0.05,-0.27 0.16,-0.43 0.08,-0.12 0.19,-0.24 0.32,-0.34 0.13,-0.1 0.26,-0.18 0.4,-0.24 0.07,-0.03 0.15,-0.06 0.21,-0.08 0.08,-0.02 0.16,-0.04 0.23,-0.05l-0.11 0.04c-0.04,0.01 -0.08,0.03 -0.11,0.04zm1.38 3.33c-0.21,0.08 -0.4,0.12 -0.57,0.1 -0.15,-0.01 -0.23,-0.04 -0.27,-0.1 -0.01,-0.03 -0.02,-0.06 -0.02,-0.09 -0,-0.04 0.01,-0.09 0.03,-0.13 0.06,-0.12 0.2,-0.25 0.43,-0.39 0.29,-0.18 0.54,-0.41 0.74,-0.68 0.19,-0.27 0.32,-0.55 0.37,-0.84 0.06,-0.3 0.04,-0.57 -0.07,-0.82 -0.11,-0.26 -0.31,-0.47 -0.6,-0.61 -0.34,-0.17 -0.7,-0.23 -1.08,-0.18 -0.33,0.04 -0.65,0.17 -0.96,0.36 -0.28,0.19 -0.49,0.41 -0.63,0.65 -0.14,0.25 -0.17,0.47 -0.1,0.66 0.08,0.18 0.22,0.29 0.43,0.32 0.22,0.03 0.48,-0.02 0.79,-0.16 0.17,-0.08 0.29,-0.13 0.36,-0.14 0.07,-0.01 0.12,-0 0.16,0.03 0.08,0.08 -0.02,0.19 -0.28,0.34 -0.48,0.28 -0.85,0.59 -1.09,0.93 -0.31,0.43 -0.4,0.89 -0.29,1.37 0.08,0.34 0.32,0.59 0.72,0.75 0.32,0.13 0.73,0.19 1.23,0.2 0.5,0 0.9,-0.06 1.22,-0.2 0.32,-0.14 0.51,-0.33 0.56,-0.58 0.03,-0.12 0.02,-0.25 -0.02,-0.37 -0.04,-0.13 -0.11,-0.24 -0.2,-0.32 -0.1,-0.09 -0.22,-0.15 -0.36,-0.18 -0.16,-0.02 -0.32,-0 -0.49,0.07z"/>
  <path id="_12_11" class="fil1" d="M19.68 7.64c-0.11,0.03 -0.21,0.07 -0.3,0.11 -0.21,0.1 -0.38,0.23 -0.51,0.37 -0.06,0.07 -0.11,0.16 -0.16,0.26 -0.03,0.08 -0.06,0.18 -0.1,0.31 -0.03,0.1 -0.04,0.2 -0.06,0.32 -0.01,0.05 -0.02,0.1 -0.02,0.16l-0.01 0.16c-0.01,-0.23 0,-0.45 0.04,-0.65 0.05,-0.27 0.14,-0.47 0.26,-0.61 0.15,-0.16 0.33,-0.28 0.54,-0.37 0.1,-0.04 0.2,-0.07 0.31,-0.1 0.12,-0.02 0.22,-0.04 0.32,-0.04 -0.13,0.02 -0.23,0.05 -0.31,0.07zm2.14 0.48c-0.02,-0.22 -0.15,-0.4 -0.39,-0.56 -0.23,-0.15 -0.52,-0.24 -0.86,-0.28 -0.36,-0.04 -0.7,-0.01 -1.03,0.08 -0.37,0.1 -0.67,0.28 -0.9,0.53 -0.21,0.23 -0.34,0.59 -0.4,1.09 -0.05,0.46 -0.02,0.95 0.07,1.49 0.1,0.53 0.24,0.99 0.44,1.37 0.21,0.41 0.45,0.65 0.71,0.73 0.37,0.11 0.64,0.02 0.79,-0.28 0.14,-0.26 0.16,-0.61 0.08,-1.05 -0.01,-0.06 -0.03,-0.14 -0.05,-0.25 -0.01,-0.03 -0.02,-0.08 -0.03,-0.14l-0.02 -0.08 -0.02 -0.08c-0.06,-0.27 -0.11,-0.49 -0.13,-0.65 -0.09,-0.54 -0.07,-0.88 0.06,-1.02 0.06,-0.06 0.19,-0.11 0.4,-0.13 0.04,-0 0.08,-0.01 0.14,-0.01l0.15 -0.01c0.12,-0.01 0.22,-0.02 0.3,-0.03 0.23,-0.04 0.4,-0.1 0.51,-0.19 0.14,-0.12 0.2,-0.29 0.19,-0.51z"/>
  <path id="_13_12" class="fil1" d="M24.73 10.94c-0.05,0.07 -0.11,0.12 -0.17,0.15 -0.07,0.04 -0.14,0.06 -0.21,0.05 0.14,-0.05 0.25,-0.13 0.33,-0.24 0.07,-0.1 0.13,-0.23 0.15,-0.39 0.04,0.15 0,0.3 -0.09,0.43zm-0.77 -0.38c-0.02,-0.09 0,-0.18 0.04,-0.26 0.04,-0.08 0.11,-0.12 0.19,-0.13 0.08,-0.01 0.15,0.01 0.22,0.07 0.07,0.06 0.11,0.13 0.12,0.23 0.02,0.1 0,0.18 -0.04,0.25 -0.04,0.08 -0.11,0.12 -0.19,0.13 -0.08,0.01 -0.15,-0.01 -0.22,-0.07 -0.07,-0.06 -0.11,-0.13 -0.12,-0.23zm-0.19 -2.86c-0.19,0.08 -0.36,0.18 -0.51,0.32 -0.14,0.13 -0.26,0.28 -0.38,0.48l-0.04 0.07 -0.04 0.07 -0.07 0.14 -0.06 0.15 -0.06 0.14c0.04,-0.21 0.11,-0.4 0.21,-0.59 0.1,-0.19 0.22,-0.36 0.38,-0.5 0.16,-0.15 0.34,-0.26 0.54,-0.33 0.09,-0.03 0.19,-0.06 0.3,-0.07l0.08 -0.01 0.08 -0 0.16 0c-0.22,0.02 -0.42,0.06 -0.6,0.13zm1.24 -0.34c-0.76,-0.19 -1.4,-0.06 -1.91,0.38 -0.45,0.39 -0.73,0.94 -0.84,1.66 -0.11,0.7 -0.02,1.35 0.25,1.94 0.29,0.65 0.73,1.05 1.33,1.21 0.56,0.15 1.09,0.01 1.59,-0.44 0.45,-0.41 0.78,-0.96 0.97,-1.65 0.2,-0.71 0.19,-1.34 -0.02,-1.9 -0.24,-0.63 -0.69,-1.03 -1.37,-1.2z"/>
  <path id="_14_13" class="fil1" d="M30.49 10.75c-0.02,0.09 -0.07,0.16 -0.14,0.21 -0.06,0.05 -0.14,0.08 -0.23,0.1 -0.08,0.02 -0.16,0.02 -0.24,0 0.1,-0.02 0.17,-0.04 0.23,-0.06 0.08,-0.03 0.15,-0.06 0.2,-0.1 0.05,-0.04 0.1,-0.1 0.13,-0.18 0.02,-0.05 0.04,-0.13 0.06,-0.23 0.02,0.08 0.02,0.17 0,0.25zm-0.94 -0.1c-0.05,-0.09 -0.03,-0.23 0.05,-0.42 0.08,-0.2 0.17,-0.3 0.27,-0.29 0.12,0 0.21,0.11 0.29,0.32 0.03,0.09 0.05,0.17 0.05,0.25 0,0.08 -0.01,0.15 -0.03,0.19 -0.04,0.06 -0.14,0.09 -0.31,0.09 -0.17,-0 -0.27,-0.04 -0.32,-0.12zm-0.5 -2.41c-0.1,0.15 -0.2,0.32 -0.29,0.5 -0.07,0.14 -0.15,0.32 -0.23,0.54 0.04,-0.18 0.1,-0.37 0.18,-0.56 0.07,-0.17 0.16,-0.35 0.28,-0.52 0.13,-0.18 0.26,-0.33 0.39,-0.44 0.08,-0.06 0.16,-0.11 0.26,-0.15 0.1,-0.04 0.19,-0.06 0.28,-0.06 -0.17,0.02 -0.34,0.1 -0.5,0.25 -0.13,0.12 -0.25,0.26 -0.37,0.44zm-1.63 2.92c-0.06,0.03 -0.11,0.06 -0.14,0.09 -0.04,0.04 -0.08,0.09 -0.09,0.14 -0.01,-0.06 0.01,-0.13 0.05,-0.18 0.03,-0.04 0.08,-0.08 0.15,-0.12 0.11,-0.06 0.23,-0.09 0.36,-0.09l-0.08 0.04 -0.08 0.04c-0.07,0.03 -0.12,0.05 -0.16,0.07zm4.5 -0.44c-0.1,-0.03 -0.17,-0.07 -0.21,-0.12 -0.04,-0.05 -0.07,-0.12 -0.09,-0.21 -0.01,-0.05 -0.02,-0.17 -0.03,-0.34 -0.01,-0.09 -0.01,-0.16 -0.02,-0.23 -0.01,-0.09 -0.02,-0.18 -0.03,-0.27 -0.11,-0.73 -0.31,-1.3 -0.6,-1.71 -0.28,-0.37 -0.61,-0.56 -0.99,-0.57 -0.33,-0.01 -0.65,0.17 -0.96,0.53 -0.32,0.36 -0.56,0.83 -0.73,1.4 -0.07,0.23 -0.12,0.46 -0.16,0.7 -0.01,0.04 -0.02,0.08 -0.02,0.13l-0.01 0.06 -0.01 0.06c-0.01,0.09 -0.02,0.16 -0.03,0.2 -0.02,0.12 -0.06,0.21 -0.1,0.26 -0.05,0.06 -0.13,0.1 -0.24,0.13 -0.32,0.07 -0.55,0.18 -0.67,0.35 -0.12,0.15 -0.14,0.33 -0.09,0.54 0.08,0.3 0.42,0.53 1,0.71 0.52,0.15 1.18,0.24 1.96,0.26 0.71,0.02 1.26,-0.01 1.64,-0.07 0.57,-0.09 0.93,-0.28 1.1,-0.57 0.15,-0.27 0.16,-0.52 0.03,-0.75 -0.13,-0.23 -0.38,-0.39 -0.73,-0.49z"/>
  <path id="_15_14" class="fil1" d="M14.92 10.82c-0.01,0.06 -0.04,0.12 -0.08,0.18 -0.04,0.06 -0.09,0.1 -0.14,0.13 -0.06,0.04 -0.12,0.06 -0.18,0.07 0.12,-0.08 0.21,-0.16 0.27,-0.24 0.06,-0.08 0.1,-0.19 0.14,-0.33 0.01,0.06 0.01,0.13 -0,0.19zm-1.51 0.28c-0.07,0.01 -0.13,0.01 -0.18,0.02 -0.06,0.02 -0.12,0.04 -0.16,0.07 -0.04,0.03 -0.08,0.07 -0.11,0.14 0.01,-0.07 0.03,-0.13 0.08,-0.18 0.04,-0.05 0.1,-0.08 0.18,-0.1 0.07,-0.01 0.13,-0.01 0.19,-0.01 0.07,0.01 0.14,0.03 0.19,0.04 -0.05,0.01 -0.12,0.01 -0.19,0.01zm0.01 -3.17c-0.07,0.05 -0.13,0.11 -0.18,0.16 -0.03,0.03 -0.05,0.06 -0.07,0.09 -0.02,0.03 -0.04,0.06 -0.06,0.1 -0.03,0.07 -0.06,0.14 -0.08,0.23 -0.01,0.04 -0.02,0.08 -0.03,0.12l-0.03 0.12c0,-0.19 0.03,-0.35 0.08,-0.5 0.02,-0.05 0.04,-0.09 0.06,-0.12 0.03,-0.03 0.05,-0.07 0.08,-0.1 0.04,-0.05 0.11,-0.11 0.19,-0.17 0.14,-0.1 0.29,-0.17 0.45,-0.22 0.09,-0.02 0.17,-0.04 0.24,-0.05 0.1,-0.01 0.19,-0.02 0.25,-0.02 -0.19,0.04 -0.35,0.08 -0.47,0.13 -0.17,0.06 -0.32,0.13 -0.43,0.22zm1.55 1.21c-0.12,-0.03 -0.25,-0.05 -0.37,-0.06 -0.04,-0 -0.09,-0.01 -0.14,-0.01l-0.07 -0 -0.06 -0c-0.16,-0.01 -0.26,-0.03 -0.29,-0.09 -0.04,-0.05 -0.04,-0.11 -0.01,-0.19 0.03,-0.08 0.08,-0.13 0.15,-0.17 0.22,-0.11 0.56,-0.12 1.02,-0.04 0.19,0.04 0.36,0.01 0.49,-0.09 0.13,-0.09 0.21,-0.22 0.23,-0.37 0.03,-0.16 0,-0.31 -0.09,-0.45 -0.1,-0.15 -0.26,-0.26 -0.48,-0.32 -0.36,-0.1 -0.77,-0.11 -1.22,-0.03 -0.57,0.09 -0.98,0.31 -1.23,0.66 -0.16,0.22 -0.24,0.54 -0.24,0.96 0,0.43 0.08,0.73 0.25,0.92 0.1,0.11 0.22,0.19 0.37,0.24 0.11,0.04 0.24,0.05 0.41,0.06l0.1 0 0.1 0c0.08,0 0.15,0 0.2,0.01 0.14,0.01 0.26,0.05 0.34,0.1 0.12,0.08 0.19,0.19 0.2,0.33 0.01,0.14 -0.03,0.24 -0.13,0.3 -0.05,0.03 -0.1,0.05 -0.15,0.05 -0.08,0.01 -0.2,-0.01 -0.36,-0.05 -0.83,-0.23 -1.28,-0.06 -1.35,0.52 -0.03,0.26 0.06,0.5 0.27,0.71 0.2,0.19 0.48,0.33 0.82,0.42 0.35,0.09 0.7,0.1 1.05,0.04 0.38,-0.07 0.7,-0.21 0.96,-0.44 0.27,-0.23 0.45,-0.5 0.55,-0.82 0.1,-0.3 0.11,-0.6 0.04,-0.9 -0.07,-0.31 -0.23,-0.57 -0.46,-0.79 -0.25,-0.24 -0.56,-0.4 -0.93,-0.48z"/>
 </g>
</svg>
