<?xml version="1.0" encoding="UTF-8"?>
<!DOCTYPE svg PUBLIC "-//W3C//DTD SVG 1.1//EN" "http://www.w3.org/Graphics/SVG/1.1/DTD/svg11.dtd">
<!-- Creator: CorelDRAW -->
<svg xmlns="http://www.w3.org/2000/svg" xml:space="preserve" width="27.7459mm" height="9.0327mm" version="1.1" style="shape-rendering:geometricPrecision; text-rendering:geometricPrecision; image-rendering:optimizeQuality; fill-rule:evenodd; clip-rule:evenodd"
viewBox="0 0 63.07 20.53"
 xmlns:xlink="http://www.w3.org/1999/xlink"
 xmlns:xodm="http://www.corel.com/coreldraw/odm/2003">
 <defs>
  <style type="text/css">
   <![CDATA[
    .str0 {stroke:#656554;stroke-width:0;stroke-miterlimit:22.9256}
    .fil0 {fill:#656554;fill-rule:nonzero}
   ]]>
  </style>
 </defs>
 <g id="Слой_x0020_1">
  <metadata id="CorelCorpID_0Corel-Layer"/>
  <g id="_3090651296">
   <path class="fil0 str0" d="M0.52 0.58c0.3,-0.35 0.67,-0.53 1.11,-0.53 0.35,0 0.64,0.1 0.87,0.31 0.23,0.2 0.34,0.47 0.34,0.79 0,0.46 -0.21,0.78 -0.64,0.98 0.56,0.18 0.84,0.55 0.84,1.14 0,0.39 -0.13,0.7 -0.38,0.94 -0.25,0.24 -0.6,0.36 -1.04,0.36 -0.31,0 -0.57,-0.06 -0.8,-0.19 -0.23,-0.13 -0.44,-0.35 -0.64,-0.67l0.33 -0.2c0.2,0.29 0.38,0.48 0.56,0.56 0.17,0.08 0.35,0.12 0.54,0.12 0.27,0 0.5,-0.08 0.69,-0.24 0.19,-0.16 0.29,-0.39 0.29,-0.69 0,-0.16 -0.03,-0.3 -0.1,-0.42 -0.07,-0.12 -0.16,-0.22 -0.27,-0.29 -0.12,-0.07 -0.23,-0.12 -0.34,-0.14 -0.11,-0.02 -0.28,-0.03 -0.53,-0.03l-0.07 0 0 -0.38 0.14 0c0.63,0 0.95,-0.26 0.95,-0.77 0,-0.24 -0.07,-0.43 -0.22,-0.57 -0.14,-0.14 -0.33,-0.21 -0.55,-0.21 -0.29,0 -0.56,0.13 -0.81,0.39l-0.29 -0.26zm3.33 3.53l1.22 -2.83 0.21 0 1.21 2.83 0.38 0 0 0.75 -0.39 0 0 -0.41 -2.61 0 0 0.42 -0.4 0 0 -0.77 0.39 0zm1.32 -2.19l-0.92 2.19 1.81 0 -0.89 -2.19zm2.26 -0.64l0.4 0 0 0.58c0.16,-0.22 0.34,-0.39 0.55,-0.5 0.21,-0.11 0.44,-0.16 0.7,-0.16 0.45,0 0.83,0.16 1.15,0.49 0.32,0.32 0.48,0.71 0.48,1.17 0,0.47 -0.16,0.86 -0.47,1.19 -0.32,0.33 -0.7,0.49 -1.14,0.49 -0.25,0 -0.48,-0.05 -0.69,-0.16 -0.21,-0.11 -0.4,-0.26 -0.57,-0.47l0 1.71 -0.4 0 0 -4.34zm1.63 0.32c-0.35,0 -0.65,0.12 -0.89,0.37 -0.24,0.25 -0.36,0.55 -0.36,0.92 0,0.24 0.05,0.46 0.16,0.65 0.11,0.19 0.26,0.34 0.46,0.46 0.2,0.11 0.41,0.17 0.63,0.17 0.22,0 0.42,-0.06 0.62,-0.17 0.19,-0.11 0.34,-0.27 0.46,-0.47 0.11,-0.2 0.17,-0.42 0.17,-0.64 0,-0.23 -0.06,-0.44 -0.17,-0.64 -0.11,-0.2 -0.26,-0.36 -0.46,-0.47 -0.19,-0.11 -0.4,-0.17 -0.62,-0.17zm5.57 -0.32l0 3.18 -0.4 0 0 -0.55c-0.17,0.21 -0.36,0.36 -0.57,0.47 -0.21,0.1 -0.44,0.16 -0.69,0.16 -0.45,0 -0.83,-0.16 -1.14,-0.49 -0.32,-0.33 -0.47,-0.72 -0.47,-1.19 0,-0.46 0.16,-0.85 0.48,-1.17 0.32,-0.32 0.7,-0.49 1.15,-0.49 0.26,0 0.49,0.05 0.7,0.16 0.21,0.11 0.39,0.28 0.55,0.5l0 -0.58 0.4 0zm-1.63 0.32c-0.23,0 -0.44,0.06 -0.63,0.17 -0.19,0.11 -0.34,0.27 -0.46,0.47 -0.11,0.2 -0.17,0.41 -0.17,0.64 0,0.22 0.06,0.44 0.17,0.64 0.11,0.2 0.27,0.36 0.46,0.47 0.19,0.11 0.4,0.17 0.62,0.17 0.22,0 0.43,-0.06 0.63,-0.17 0.2,-0.11 0.35,-0.26 0.46,-0.46 0.11,-0.19 0.16,-0.41 0.16,-0.65 0,-0.37 -0.12,-0.67 -0.36,-0.92 -0.24,-0.25 -0.53,-0.37 -0.89,-0.37zm3.46 2.86l-0.92 0 0 -3.18 0.9 0c0.34,0 0.59,0.08 0.75,0.24 0.15,0.16 0.23,0.35 0.23,0.56 0,0.32 -0.14,0.54 -0.42,0.65 0.41,0.15 0.62,0.43 0.62,0.85 0,0.59 -0.38,0.88 -1.15,0.88zm-0.51 -2.82l0 0.99 0.27 0c0.24,0 0.4,-0.01 0.47,-0.03 0.07,-0.02 0.14,-0.07 0.21,-0.14 0.07,-0.08 0.1,-0.18 0.1,-0.3 0,-0.13 -0.03,-0.24 -0.1,-0.33 -0.07,-0.09 -0.14,-0.14 -0.22,-0.16 -0.08,-0.02 -0.23,-0.02 -0.46,-0.02l-0.27 0zm0 1.36l0 1.11 0.44 0c0.21,0 0.35,-0.01 0.44,-0.04 0.09,-0.03 0.16,-0.08 0.23,-0.17 0.06,-0.09 0.1,-0.2 0.1,-0.33 0,-0.17 -0.05,-0.31 -0.16,-0.41 -0.11,-0.1 -0.25,-0.15 -0.43,-0.15l-0.61 0zm5.44 -1.06l-0.32 0.2c-0.28,-0.37 -0.66,-0.56 -1.14,-0.56 -0.39,0 -0.71,0.12 -0.96,0.37 -0.25,0.25 -0.38,0.55 -0.38,0.9 0,0.23 0.06,0.45 0.18,0.65 0.12,0.2 0.28,0.36 0.48,0.47 0.2,0.11 0.43,0.17 0.69,0.17 0.47,0 0.85,-0.19 1.14,-0.56l0.32 0.21c-0.15,0.23 -0.35,0.4 -0.61,0.53 -0.26,0.13 -0.55,0.19 -0.87,0.19 -0.5,0 -0.92,-0.16 -1.25,-0.48 -0.33,-0.32 -0.49,-0.71 -0.49,-1.16 0,-0.31 0.08,-0.59 0.23,-0.85 0.15,-0.26 0.37,-0.47 0.64,-0.62 0.27,-0.15 0.57,-0.22 0.91,-0.22 0.21,0 0.41,0.03 0.61,0.1 0.19,0.06 0.36,0.15 0.5,0.25 0.14,0.1 0.25,0.23 0.35,0.39zm0.43 -0.66l2.07 0 0 0.35 -0.84 0 0 2.82 -0.4 0 0 -2.82 -0.83 0 0 -0.35zm3.54 3.18l-0.92 0 0 -3.18 0.9 0c0.34,0 0.59,0.08 0.75,0.24 0.15,0.16 0.23,0.35 0.23,0.56 0,0.32 -0.14,0.54 -0.42,0.65 0.41,0.15 0.62,0.43 0.62,0.85 0,0.59 -0.38,0.88 -1.15,0.88zm-0.51 -2.82l0 0.99 0.27 0c0.24,0 0.4,-0.01 0.47,-0.03 0.07,-0.02 0.14,-0.07 0.21,-0.14 0.07,-0.08 0.1,-0.18 0.1,-0.3 0,-0.13 -0.03,-0.24 -0.1,-0.33 -0.07,-0.09 -0.14,-0.14 -0.22,-0.16 -0.08,-0.02 -0.23,-0.02 -0.46,-0.02l-0.27 0zm0 1.36l0 1.11 0.44 0c0.21,0 0.35,-0.01 0.44,-0.04 0.09,-0.03 0.16,-0.08 0.23,-0.17 0.06,-0.09 0.1,-0.2 0.1,-0.33 0,-0.17 -0.05,-0.31 -0.16,-0.41 -0.11,-0.1 -0.25,-0.15 -0.43,-0.15l-0.61 0zm2.04 -1.72l0.42 0 1.09 2.44 1.06 -2.44 0.43 0 -1.88 4.34 -0.43 0 0.62 -1.42 -1.3 -2.92zm3.93 0l0 2.35 2.32 -2.35 0.03 0 0 3.18 -0.4 0 0 -2.33 -2.3 2.33 -0.05 0 0 -3.18 0.4 0zm-0.05 -1.28l0.38 0c0.07,0.1 0.15,0.18 0.27,0.23 0.11,0.05 0.24,0.08 0.4,0.08 0.16,0 0.28,-0.02 0.38,-0.07 0.1,-0.04 0.19,-0.12 0.27,-0.24l0.37 0c-0.04,0.18 -0.15,0.32 -0.33,0.44 -0.18,0.12 -0.41,0.18 -0.69,0.18 -0.28,0 -0.52,-0.06 -0.7,-0.17 -0.18,-0.12 -0.29,-0.26 -0.34,-0.44zm2.96 1.28l2.07 0 0 0.35 -0.84 0 0 2.82 -0.4 0 0 -2.82 -0.83 0 0 -0.35zm5.29 2.12l0.34 0.18c-0.11,0.22 -0.24,0.4 -0.39,0.53 -0.15,0.13 -0.31,0.24 -0.5,0.31 -0.19,0.07 -0.39,0.11 -0.63,0.11 -0.52,0 -0.92,-0.17 -1.21,-0.51 -0.29,-0.34 -0.44,-0.72 -0.44,-1.15 0,-0.4 0.12,-0.76 0.37,-1.07 0.31,-0.4 0.73,-0.6 1.26,-0.6 0.54,0 0.97,0.21 1.29,0.62 0.23,0.29 0.35,0.65 0.35,1.08l-2.85 0c0.01,0.37 0.13,0.67 0.35,0.9 0.23,0.24 0.51,0.35 0.84,0.35 0.16,0 0.32,-0.03 0.47,-0.08 0.15,-0.06 0.28,-0.13 0.39,-0.22 0.11,-0.09 0.22,-0.24 0.35,-0.45zm0 -0.86c-0.05,-0.22 -0.13,-0.39 -0.24,-0.52 -0.11,-0.13 -0.24,-0.24 -0.41,-0.32 -0.17,-0.08 -0.35,-0.12 -0.54,-0.12 -0.31,0 -0.58,0.1 -0.8,0.3 -0.16,0.15 -0.29,0.36 -0.37,0.66l2.37 0zm1.6 1.12l0.39 0.19 -0.59 1.1 -0.29 -0.12 0.48 -1.17zm2.91 0.44l1.22 -2.83 0.21 0 1.21 2.83 0.38 0 0 0.75 -0.39 0 0 -0.41 -2.61 0 0 0.42 -0.4 0 0 -0.77 0.39 0zm1.32 -2.19l-0.92 2.19 1.81 0 -0.89 -2.19zm2.26 -0.64l0.4 0 0 0.58c0.16,-0.22 0.34,-0.39 0.55,-0.5 0.21,-0.11 0.44,-0.16 0.7,-0.16 0.45,0 0.83,0.16 1.15,0.49 0.32,0.32 0.48,0.71 0.48,1.17 0,0.47 -0.16,0.86 -0.47,1.19 -0.32,0.33 -0.7,0.49 -1.14,0.49 -0.25,0 -0.48,-0.05 -0.69,-0.16 -0.21,-0.11 -0.4,-0.26 -0.57,-0.47l0 1.71 -0.4 0 0 -4.34zm1.63 0.32c-0.35,0 -0.65,0.12 -0.89,0.37 -0.24,0.25 -0.36,0.55 -0.36,0.92 0,0.24 0.05,0.46 0.16,0.65 0.11,0.19 0.26,0.34 0.46,0.46 0.2,0.11 0.41,0.17 0.63,0.17 0.22,0 0.42,-0.06 0.62,-0.17 0.19,-0.11 0.34,-0.27 0.46,-0.47 0.11,-0.2 0.17,-0.42 0.17,-0.64 0,-0.23 -0.06,-0.44 -0.17,-0.64 -0.11,-0.2 -0.26,-0.36 -0.46,-0.47 -0.19,-0.11 -0.4,-0.17 -0.62,-0.17zm2.08 -0.32l0.42 0 1.09 2.44 1.06 -2.44 0.43 0 -1.88 4.34 -0.43 0 0.62 -1.42 -1.3 -2.92zm4.06 1.33l0.21 0c0.14,0 0.26,-0.04 0.38,-0.13 0.11,-0.09 0.17,-0.22 0.17,-0.38 0,-0.14 -0.05,-0.26 -0.14,-0.36 -0.09,-0.1 -0.23,-0.15 -0.42,-0.15 -0.22,0 -0.44,0.09 -0.67,0.26l-0.23 -0.28c0.29,-0.24 0.59,-0.36 0.91,-0.36 0.27,0 0.49,0.08 0.67,0.24 0.18,0.16 0.27,0.36 0.27,0.61 0,0.33 -0.15,0.55 -0.44,0.67 0.38,0.16 0.57,0.44 0.57,0.84 0,0.25 -0.09,0.48 -0.27,0.69 -0.18,0.2 -0.44,0.31 -0.8,0.31 -0.43,0 -0.78,-0.14 -1.05,-0.42l0.25 -0.29c0.2,0.22 0.45,0.33 0.76,0.33 0.21,0 0.37,-0.06 0.49,-0.17 0.12,-0.11 0.18,-0.26 0.18,-0.44 0,-0.18 -0.06,-0.32 -0.18,-0.43 -0.12,-0.11 -0.26,-0.16 -0.42,-0.16l-0.25 0 0 -0.35zm2.39 -0.07l0.39 0c0.31,0 0.55,0.02 0.72,0.07 0.17,0.05 0.33,0.16 0.45,0.32 0.13,0.17 0.19,0.36 0.19,0.57 0,0.26 -0.09,0.48 -0.27,0.67 -0.18,0.19 -0.46,0.28 -0.83,0.28l-1.05 0 0 -3.18 0.4 0 0 1.26zm0.01 0.38l0 1.2 0.47 0c0.55,0 0.83,-0.19 0.83,-0.58 0,-0.11 -0.03,-0.22 -0.09,-0.33 -0.06,-0.11 -0.15,-0.18 -0.26,-0.22 -0.11,-0.04 -0.31,-0.06 -0.6,-0.06l-0.35 0zm3.72 0.13l-0.29 0 -0.91 1.42 -0.44 0 0.95 -1.46c-0.24,-0.03 -0.43,-0.12 -0.58,-0.27 -0.15,-0.15 -0.22,-0.34 -0.22,-0.56 0,-0.28 0.09,-0.5 0.25,-0.65 0.17,-0.15 0.39,-0.23 0.67,-0.23l0.96 0 0 3.18 -0.4 0 0 -1.42zm0 -1.41l-0.27 0c-0.26,0 -0.44,0.02 -0.53,0.05 -0.09,0.03 -0.16,0.09 -0.21,0.17 -0.05,0.08 -0.08,0.19 -0.08,0.33 0,0.13 0.03,0.24 0.1,0.32 0.07,0.08 0.14,0.14 0.23,0.16 0.08,0.02 0.25,0.03 0.49,0.03l0.27 0 0 -1.05zm1.94 -1.58l0 3.33 -0.42 0 0 -3.33 0.42 0zm-0.21 3.76c0.1,0 0.18,0.04 0.25,0.1 0.07,0.07 0.1,0.16 0.1,0.26 0,0.1 -0.03,0.18 -0.1,0.26 -0.07,0.07 -0.15,0.11 -0.25,0.11 -0.1,0 -0.18,-0.04 -0.25,-0.11 -0.07,-0.07 -0.1,-0.16 -0.1,-0.26 0,-0.1 0.03,-0.19 0.1,-0.26 0.07,-0.07 0.15,-0.1 0.25,-0.1zm-62.29 8.74l-0.43 0 0 -1.04 0.34 0 1.67 -3.89 0.15 0 1.77 3.89 0.33 0 0 1.04 -0.43 0 0 -0.64 -3.41 0 0 0.64zm0.4 -1.04l2.6 0 -1.33 -3 -1.27 3zm7.13 -2.78l0 3.18 -0.4 0 0 -0.55c-0.17,0.21 -0.36,0.36 -0.57,0.47 -0.21,0.1 -0.44,0.16 -0.69,0.16 -0.45,0 -0.83,-0.16 -1.14,-0.49 -0.32,-0.33 -0.47,-0.72 -0.47,-1.19 0,-0.46 0.16,-0.85 0.48,-1.17 0.32,-0.32 0.7,-0.49 1.15,-0.49 0.26,0 0.49,0.05 0.7,0.16 0.21,0.11 0.39,0.28 0.55,0.5l0 -0.58 0.4 0zm-1.63 0.32c-0.23,0 -0.44,0.06 -0.63,0.17 -0.19,0.11 -0.34,0.27 -0.46,0.47 -0.11,0.2 -0.17,0.41 -0.17,0.64 0,0.22 0.06,0.44 0.17,0.64 0.11,0.2 0.27,0.36 0.46,0.47 0.19,0.11 0.4,0.17 0.62,0.17 0.22,0 0.43,-0.06 0.63,-0.17 0.2,-0.11 0.35,-0.26 0.46,-0.46 0.11,-0.19 0.16,-0.41 0.16,-0.65 0,-0.37 -0.12,-0.67 -0.36,-0.92 -0.24,-0.25 -0.54,-0.37 -0.89,-0.37zm3.46 2.86l-0.92 0 0 -3.18 0.9 0c0.34,0 0.59,0.08 0.75,0.24 0.15,0.16 0.23,0.35 0.23,0.56 0,0.32 -0.14,0.54 -0.43,0.65 0.41,0.15 0.62,0.43 0.62,0.85 0,0.59 -0.38,0.88 -1.15,0.88zm-0.51 -2.82l0 0.99 0.27 0c0.24,0 0.4,-0.01 0.47,-0.03 0.07,-0.02 0.14,-0.07 0.21,-0.14 0.07,-0.08 0.1,-0.18 0.1,-0.3 0,-0.13 -0.03,-0.24 -0.1,-0.33 -0.07,-0.09 -0.14,-0.14 -0.22,-0.16 -0.08,-0.02 -0.23,-0.02 -0.46,-0.02l-0.27 0zm0 1.36l0 1.11 0.44 0c0.21,0 0.35,-0.01 0.44,-0.04 0.09,-0.03 0.16,-0.08 0.23,-0.17 0.06,-0.09 0.1,-0.2 0.1,-0.33 0,-0.17 -0.05,-0.31 -0.16,-0.41 -0.11,-0.1 -0.25,-0.15 -0.43,-0.15l-0.61 0zm4.62 -0.07l-1.84 0 0 1.53 -0.4 0 0 -3.18 0.4 0 0 1.26 1.84 0 0 -1.26 0.4 0 0 3.18 -0.4 0 0 -1.53zm2.81 -1.72c0.49,0 0.89,0.18 1.21,0.53 0.29,0.32 0.44,0.7 0.44,1.14 0,0.44 -0.15,0.83 -0.46,1.16 -0.31,0.33 -0.7,0.5 -1.19,0.5 -0.49,0 -0.88,-0.17 -1.19,-0.5 -0.31,-0.33 -0.46,-0.72 -0.46,-1.16 0,-0.44 0.15,-0.82 0.44,-1.14 0.32,-0.36 0.73,-0.53 1.21,-0.53zm-0 0.4c-0.34,0 -0.63,0.12 -0.87,0.37 -0.24,0.25 -0.36,0.55 -0.36,0.91 0,0.23 0.06,0.44 0.17,0.64 0.11,0.2 0.26,0.35 0.45,0.46 0.19,0.11 0.39,0.16 0.62,0.16 0.22,0 0.43,-0.05 0.62,-0.16 0.19,-0.11 0.34,-0.26 0.45,-0.46 0.11,-0.2 0.17,-0.41 0.17,-0.64 0,-0.36 -0.12,-0.66 -0.37,-0.91 -0.24,-0.25 -0.53,-0.37 -0.87,-0.37zm6.29 1.32l-1.84 0 0 1.53 -0.4 0 0 -3.18 0.4 0 0 1.26 1.84 0 0 -1.26 0.4 0 0 3.18 -0.4 0 0 -1.53zm3.97 0.48l0.34 0.18c-0.11,0.22 -0.24,0.4 -0.39,0.53 -0.15,0.13 -0.31,0.24 -0.5,0.31 -0.19,0.07 -0.39,0.11 -0.63,0.11 -0.52,0 -0.92,-0.17 -1.21,-0.51 -0.29,-0.34 -0.44,-0.72 -0.44,-1.15 0,-0.4 0.12,-0.76 0.37,-1.07 0.31,-0.4 0.73,-0.6 1.26,-0.6 0.54,0 0.97,0.21 1.29,0.62 0.23,0.29 0.35,0.65 0.35,1.08l-2.85 0c0.01,0.37 0.13,0.67 0.35,0.9 0.23,0.24 0.51,0.35 0.84,0.35 0.16,0 0.32,-0.03 0.47,-0.08 0.15,-0.06 0.28,-0.13 0.39,-0.22 0.11,-0.09 0.22,-0.24 0.35,-0.45zm0 -0.86c-0.05,-0.22 -0.13,-0.39 -0.24,-0.52 -0.11,-0.13 -0.24,-0.24 -0.41,-0.32 -0.17,-0.08 -0.35,-0.12 -0.54,-0.12 -0.31,0 -0.58,0.1 -0.8,0.3 -0.16,0.15 -0.29,0.36 -0.37,0.66l2.37 0zm3.76 1.91l-0.92 0 0 -3.18 0.9 0c0.34,0 0.59,0.08 0.75,0.24 0.15,0.16 0.23,0.35 0.23,0.56 0,0.32 -0.14,0.54 -0.43,0.65 0.41,0.15 0.62,0.43 0.62,0.85 0,0.59 -0.38,0.88 -1.15,0.88zm-0.51 -2.82l0 0.99 0.27 0c0.24,0 0.4,-0.01 0.47,-0.03 0.07,-0.02 0.14,-0.07 0.21,-0.14 0.07,-0.08 0.1,-0.18 0.1,-0.3 0,-0.13 -0.03,-0.24 -0.1,-0.33 -0.07,-0.09 -0.14,-0.14 -0.22,-0.16 -0.08,-0.02 -0.23,-0.02 -0.46,-0.02l-0.27 0zm0 1.36l0 1.11 0.44 0c0.21,0 0.35,-0.01 0.44,-0.04 0.09,-0.03 0.16,-0.08 0.23,-0.17 0.06,-0.09 0.1,-0.2 0.1,-0.33 0,-0.17 -0.05,-0.31 -0.16,-0.41 -0.11,-0.1 -0.25,-0.15 -0.43,-0.15l-0.61 0zm2.78 -1.72l0 2.35 2.32 -2.35 0.03 0 0 3.18 -0.4 0 0 -2.33 -2.3 2.33 -0.05 0 0 -3.18 0.4 0zm3.29 2.83l1.22 -2.83 0.21 0 1.21 2.83 0.38 0 0 0.75 -0.39 0 0 -0.41 -2.61 0 0 0.42 -0.4 0 0 -0.77 0.39 0zm1.32 -2.19l-0.92 2.19 1.81 0 -0.89 -2.19zm4.92 1.48l0.34 0.18c-0.11,0.22 -0.24,0.4 -0.39,0.53 -0.15,0.13 -0.31,0.24 -0.5,0.31 -0.19,0.07 -0.39,0.11 -0.63,0.11 -0.52,0 -0.92,-0.17 -1.21,-0.51 -0.29,-0.34 -0.44,-0.72 -0.44,-1.15 0,-0.4 0.12,-0.76 0.37,-1.07 0.31,-0.4 0.73,-0.6 1.26,-0.6 0.54,0 0.97,0.21 1.29,0.62 0.23,0.29 0.35,0.65 0.35,1.08l-2.85 0c0.01,0.37 0.13,0.67 0.35,0.9 0.23,0.24 0.51,0.35 0.84,0.35 0.16,0 0.32,-0.03 0.47,-0.08 0.15,-0.06 0.28,-0.13 0.39,-0.22 0.11,-0.09 0.22,-0.24 0.35,-0.45zm0 -0.86c-0.05,-0.22 -0.13,-0.39 -0.24,-0.52 -0.11,-0.13 -0.24,-0.24 -0.41,-0.32 -0.17,-0.08 -0.35,-0.12 -0.54,-0.12 -0.31,0 -0.58,0.1 -0.8,0.3 -0.16,0.15 -0.29,0.36 -0.37,0.66l2.37 0zm3.87 1.91l-0.43 0 -1.07 -2.32 -1.05 2.32 -0.43 0 1.44 -3.18 0.07 0 1.46 3.18zm1.02 -3.18l0 2.35 2.32 -2.35 0.03 0 0 3.18 -0.4 0 0 -2.33 -2.3 2.33 -0.05 0 0 -3.18 0.4 0zm6.33 0.66l-0.32 0.2c-0.28,-0.37 -0.66,-0.56 -1.14,-0.56 -0.39,0 -0.71,0.12 -0.96,0.37 -0.25,0.25 -0.38,0.55 -0.38,0.9 0,0.23 0.06,0.45 0.18,0.65 0.12,0.2 0.28,0.36 0.48,0.47 0.2,0.11 0.43,0.17 0.69,0.17 0.47,0 0.85,-0.19 1.14,-0.56l0.32 0.21c-0.15,0.23 -0.35,0.4 -0.61,0.53 -0.26,0.13 -0.55,0.19 -0.87,0.19 -0.5,0 -0.92,-0.16 -1.25,-0.48 -0.33,-0.32 -0.49,-0.71 -0.49,-1.16 0,-0.31 0.08,-0.59 0.23,-0.85 0.15,-0.26 0.37,-0.47 0.63,-0.62 0.27,-0.15 0.57,-0.22 0.91,-0.22 0.21,0 0.41,0.03 0.61,0.1 0.19,0.06 0.36,0.15 0.5,0.25 0.14,0.1 0.25,0.23 0.35,0.39zm1.18 0.6l0.39 0c0.31,0 0.55,0.02 0.72,0.07 0.17,0.05 0.33,0.16 0.45,0.32 0.13,0.17 0.19,0.36 0.19,0.57 0,0.26 -0.09,0.48 -0.27,0.67 -0.18,0.19 -0.46,0.28 -0.83,0.28l-1.05 0 0 -3.18 0.4 0 0 1.26zm0.02 0.38l0 1.2 0.47 0c0.55,0 0.83,-0.19 0.83,-0.58 0,-0.11 -0.03,-0.22 -0.09,-0.33 -0.06,-0.11 -0.15,-0.18 -0.26,-0.22 -0.11,-0.04 -0.31,-0.06 -0.6,-0.06l-0.35 0zm3.01 -2.86l0 3.33 -0.42 0 0 -3.33 0.42 0zm-0.21 3.76c0.1,0 0.18,0.04 0.25,0.1 0.07,0.07 0.1,0.16 0.1,0.26 0,0.1 -0.03,0.18 -0.1,0.26 -0.07,0.07 -0.15,0.11 -0.25,0.11 -0.1,0 -0.18,-0.04 -0.25,-0.11 -0.07,-0.07 -0.1,-0.16 -0.1,-0.26 0,-0.1 0.03,-0.19 0.1,-0.26 0.07,-0.07 0.15,-0.1 0.25,-0.1zm-57.31 8.74l-0.43 0 0 -1.04 0.34 0 1.67 -3.89 0.15 0 1.77 3.89 0.33 0 0 1.04 -0.43 0 0 -0.64 -3.41 0 0 0.64zm0.4 -1.04l2.6 0 -1.33 -3 -1.27 3zm7.13 -2.78l0 3.18 -0.4 0 0 -0.55c-0.17,0.21 -0.36,0.36 -0.57,0.47 -0.21,0.1 -0.44,0.16 -0.69,0.16 -0.45,0 -0.83,-0.16 -1.14,-0.49 -0.32,-0.33 -0.47,-0.72 -0.47,-1.19 0,-0.46 0.16,-0.85 0.48,-1.17 0.32,-0.32 0.7,-0.49 1.15,-0.49 0.26,0 0.49,0.05 0.7,0.16 0.21,0.11 0.39,0.28 0.55,0.5l0 -0.58 0.4 0zm-1.63 0.32c-0.23,0 -0.44,0.06 -0.63,0.17 -0.19,0.11 -0.34,0.27 -0.46,0.47 -0.11,0.2 -0.17,0.41 -0.17,0.64 0,0.22 0.06,0.44 0.17,0.64 0.11,0.2 0.27,0.36 0.46,0.47 0.19,0.11 0.4,0.17 0.62,0.17 0.22,0 0.43,-0.06 0.63,-0.17 0.2,-0.11 0.35,-0.26 0.46,-0.46 0.11,-0.19 0.16,-0.41 0.16,-0.65 0,-0.37 -0.12,-0.67 -0.36,-0.92 -0.24,-0.25 -0.54,-0.37 -0.89,-0.37zm3.46 2.86l-0.92 0 0 -3.18 0.9 0c0.34,0 0.59,0.08 0.75,0.24 0.15,0.16 0.23,0.35 0.23,0.56 0,0.32 -0.14,0.54 -0.43,0.65 0.41,0.15 0.62,0.43 0.62,0.85 0,0.59 -0.38,0.88 -1.15,0.88zm-0.51 -2.82l0 0.99 0.27 0c0.24,0 0.4,-0.01 0.47,-0.03 0.07,-0.02 0.14,-0.07 0.21,-0.14 0.07,-0.08 0.1,-0.18 0.1,-0.3 0,-0.13 -0.03,-0.24 -0.1,-0.33 -0.07,-0.09 -0.14,-0.14 -0.22,-0.16 -0.08,-0.02 -0.23,-0.02 -0.46,-0.02l-0.27 0zm0 1.36l0 1.11 0.44 0c0.21,0 0.35,-0.01 0.44,-0.04 0.09,-0.03 0.16,-0.08 0.23,-0.17 0.06,-0.09 0.1,-0.2 0.1,-0.33 0,-0.17 -0.05,-0.31 -0.16,-0.41 -0.11,-0.1 -0.25,-0.15 -0.43,-0.15l-0.61 0zm5.52 -1.72l0 3.18 -0.4 0 0 -0.55c-0.17,0.21 -0.36,0.36 -0.57,0.47 -0.21,0.1 -0.44,0.16 -0.69,0.16 -0.45,0 -0.83,-0.16 -1.14,-0.49 -0.32,-0.33 -0.47,-0.72 -0.47,-1.19 0,-0.46 0.16,-0.85 0.48,-1.17 0.32,-0.32 0.7,-0.49 1.15,-0.49 0.26,0 0.49,0.05 0.7,0.16 0.21,0.11 0.39,0.28 0.55,0.5l0 -0.58 0.4 0zm-1.63 0.32c-0.23,0 -0.44,0.06 -0.63,0.17 -0.19,0.11 -0.34,0.27 -0.46,0.47 -0.11,0.2 -0.17,0.41 -0.17,0.64 0,0.22 0.06,0.44 0.17,0.64 0.11,0.2 0.27,0.36 0.46,0.47 0.19,0.11 0.4,0.17 0.62,0.17 0.22,0 0.43,-0.06 0.63,-0.17 0.2,-0.11 0.35,-0.26 0.46,-0.46 0.11,-0.19 0.16,-0.41 0.16,-0.65 0,-0.37 -0.12,-0.67 -0.36,-0.92 -0.24,-0.25 -0.53,-0.37 -0.89,-0.37zm2.95 -0.32l0 2.35 2.32 -2.35 0.03 0 0 3.18 -0.4 0 0 -2.33 -2.3 2.33 -0.05 0 0 -3.18 0.4 0zm-0.05 -1.28l0.38 0c0.07,0.1 0.15,0.18 0.27,0.23 0.11,0.05 0.24,0.08 0.4,0.08 0.16,0 0.28,-0.02 0.38,-0.07 0.1,-0.04 0.19,-0.12 0.27,-0.24l0.37 0c-0.04,0.18 -0.15,0.32 -0.33,0.44 -0.18,0.12 -0.41,0.18 -0.69,0.18 -0.28,0 -0.52,-0.06 -0.7,-0.17 -0.18,-0.12 -0.29,-0.26 -0.34,-0.44zm2.96 1.28l2.07 0 0 0.35 -0.84 0 0 2.82 -0.4 0 0 -2.82 -0.83 0 0 -0.35zm5.29 2.12l0.34 0.18c-0.11,0.22 -0.24,0.4 -0.39,0.53 -0.15,0.13 -0.31,0.24 -0.5,0.31 -0.19,0.07 -0.39,0.11 -0.63,0.11 -0.52,0 -0.92,-0.17 -1.21,-0.51 -0.29,-0.34 -0.44,-0.72 -0.44,-1.15 0,-0.4 0.12,-0.76 0.37,-1.07 0.31,-0.4 0.73,-0.6 1.26,-0.6 0.54,0 0.97,0.21 1.29,0.62 0.23,0.29 0.35,0.65 0.35,1.08l-2.85 0c0.01,0.37 0.13,0.67 0.35,0.9 0.23,0.24 0.51,0.35 0.84,0.35 0.16,0 0.32,-0.03 0.47,-0.08 0.15,-0.06 0.28,-0.13 0.39,-0.22 0.11,-0.09 0.22,-0.24 0.35,-0.45zm0 -0.86c-0.05,-0.22 -0.13,-0.39 -0.24,-0.52 -0.11,-0.13 -0.24,-0.24 -0.41,-0.32 -0.17,-0.08 -0.35,-0.12 -0.54,-0.12 -0.31,0 -0.58,0.1 -0.8,0.3 -0.16,0.15 -0.29,0.36 -0.37,0.66l2.37 0zm2.84 -1.27l2.65 0 0 3.18 -0.4 0 0 -2.79 -1.84 0 0 2.79 -0.4 0 0 -3.18zm5.05 -0.08c0.49,0 0.89,0.18 1.21,0.53 0.29,0.32 0.44,0.7 0.44,1.14 0,0.44 -0.15,0.83 -0.46,1.16 -0.31,0.33 -0.7,0.5 -1.19,0.5 -0.49,0 -0.88,-0.17 -1.19,-0.5 -0.31,-0.33 -0.46,-0.72 -0.46,-1.16 0,-0.44 0.15,-0.82 0.44,-1.14 0.32,-0.36 0.73,-0.53 1.21,-0.53zm-0 0.4c-0.34,0 -0.63,0.12 -0.87,0.37 -0.24,0.25 -0.36,0.55 -0.36,0.91 0,0.23 0.06,0.44 0.17,0.64 0.11,0.2 0.26,0.35 0.45,0.46 0.19,0.11 0.39,0.16 0.62,0.16 0.22,0 0.43,-0.05 0.62,-0.16 0.19,-0.11 0.34,-0.26 0.45,-0.46 0.11,-0.2 0.17,-0.41 0.17,-0.64 0,-0.36 -0.12,-0.66 -0.37,-0.91 -0.24,-0.25 -0.53,-0.37 -0.87,-0.37zm2.8 -0.32l0 2.35 2.32 -2.35 0.03 0 0 3.18 -0.4 0 0 -2.33 -2.3 2.33 -0.05 0 0 -3.18 0.4 0zm3.66 0.36l0 2.82 -0.4 0 0 -3.18 1.6 0 0 0.36 -1.19 0zm1.75 -0.36l0.4 0 0 0.58c0.16,-0.22 0.34,-0.39 0.55,-0.5 0.21,-0.11 0.44,-0.16 0.7,-0.16 0.45,0 0.83,0.16 1.15,0.49 0.32,0.32 0.48,0.71 0.48,1.17 0,0.47 -0.16,0.86 -0.47,1.19 -0.32,0.33 -0.7,0.49 -1.14,0.49 -0.25,0 -0.48,-0.05 -0.69,-0.16 -0.21,-0.11 -0.4,-0.26 -0.57,-0.47l0 1.71 -0.4 0 0 -4.34zm1.63 0.32c-0.35,0 -0.65,0.12 -0.89,0.37 -0.24,0.25 -0.36,0.55 -0.36,0.92 0,0.24 0.05,0.46 0.16,0.65 0.11,0.19 0.26,0.34 0.46,0.46 0.2,0.11 0.41,0.17 0.63,0.17 0.22,0 0.42,-0.06 0.62,-0.17 0.19,-0.11 0.34,-0.27 0.46,-0.47 0.11,-0.2 0.17,-0.42 0.17,-0.64 0,-0.23 -0.06,-0.44 -0.17,-0.64 -0.11,-0.2 -0.26,-0.36 -0.46,-0.47 -0.19,-0.11 -0.4,-0.17 -0.62,-0.17zm5.57 -0.32l0 3.18 -0.4 0 0 -0.55c-0.17,0.21 -0.36,0.36 -0.57,0.47 -0.21,0.1 -0.44,0.16 -0.69,0.16 -0.45,0 -0.83,-0.16 -1.14,-0.49 -0.32,-0.33 -0.47,-0.72 -0.47,-1.19 0,-0.46 0.16,-0.85 0.48,-1.17 0.32,-0.32 0.7,-0.49 1.15,-0.49 0.26,0 0.49,0.05 0.7,0.16 0.21,0.11 0.39,0.28 0.55,0.5l0 -0.58 0.4 0zm-1.63 0.32c-0.23,0 -0.44,0.06 -0.63,0.17 -0.19,0.11 -0.34,0.27 -0.46,0.47 -0.11,0.2 -0.17,0.41 -0.17,0.64 0,0.22 0.06,0.44 0.17,0.64 0.11,0.2 0.27,0.36 0.46,0.47 0.19,0.11 0.4,0.17 0.62,0.17 0.22,0 0.43,-0.06 0.63,-0.17 0.2,-0.11 0.35,-0.26 0.46,-0.46 0.11,-0.19 0.16,-0.41 0.16,-0.65 0,-0.37 -0.12,-0.67 -0.36,-0.92 -0.24,-0.25 -0.53,-0.37 -0.89,-0.37z"/>
   <path class="fil0 str0" d="M51.2 18.32l0.34 0.18c-0.11,0.22 -0.24,0.4 -0.39,0.53 -0.15,0.13 -0.31,0.24 -0.5,0.31 -0.19,0.07 -0.39,0.11 -0.63,0.11 -0.52,0 -0.92,-0.17 -1.21,-0.51 -0.29,-0.34 -0.44,-0.72 -0.44,-1.15 0,-0.4 0.12,-0.76 0.37,-1.07 0.31,-0.4 0.73,-0.6 1.26,-0.6 0.54,0 0.97,0.21 1.29,0.62 0.23,0.29 0.35,0.65 0.35,1.08l-2.85 0c0.01,0.37 0.13,0.67 0.35,0.9 0.23,0.24 0.51,0.35 0.84,0.35 0.16,0 0.32,-0.03 0.47,-0.08 0.15,-0.06 0.28,-0.13 0.39,-0.22 0.11,-0.09 0.22,-0.24 0.35,-0.45zm0 -0.86c-0.05,-0.22 -0.13,-0.39 -0.24,-0.52 -0.11,-0.13 -0.24,-0.24 -0.41,-0.32 -0.17,-0.08 -0.35,-0.12 -0.54,-0.12 -0.31,0 -0.58,0.1 -0.8,0.3 -0.16,0.15 -0.29,0.36 -0.37,0.66l2.37 0zm4.63 -1.27l0.12 0 1.07 3.18 -0.42 0 -0.78 -2.33 -1.22 2.33 -0.08 0 -1.22 -2.34 -0.78 2.34 -0.42 0 1.08 -3.18 0.11 0 1.28 2.48 1.27 -2.48zm2.42 -1.23l0 3.33 -0.42 0 0 -3.33 0.42 0zm-0.21 3.76c0.1,0 0.18,0.04 0.25,0.1 0.07,0.07 0.1,0.16 0.1,0.26 0,0.1 -0.03,0.18 -0.1,0.26 -0.07,0.07 -0.15,0.11 -0.25,0.11 -0.1,0 -0.18,-0.04 -0.25,-0.11 -0.07,-0.07 -0.1,-0.16 -0.1,-0.26 0,-0.1 0.03,-0.19 0.1,-0.26 0.07,-0.07 0.15,-0.1 0.25,-0.1z"/>
  </g>
 </g>
</svg>
