<?xml version="1.0" encoding="UTF-8"?>
<!DOCTYPE svg PUBLIC "-//W3C//DTD SVG 1.1//EN" "http://www.w3.org/Graphics/SVG/1.1/DTD/svg11.dtd">
<!-- Creator: CorelDRAW -->
<svg xmlns="http://www.w3.org/2000/svg" xml:space="preserve" width="28.5742mm" height="8.7165mm" version="1.1" style="shape-rendering:geometricPrecision; text-rendering:geometricPrecision; image-rendering:optimizeQuality; fill-rule:evenodd; clip-rule:evenodd"
viewBox="0 0 76.51 23.34"
 xmlns:xlink="http://www.w3.org/1999/xlink"
 xmlns:xodm="http://www.corel.com/coreldraw/odm/2003">
 <defs>
  <style type="text/css">
   <![CDATA[
    .fil0 {fill:#656554;fill-rule:nonzero}
   ]]>
  </style>
 </defs>
 <g id="Слой_x0020_1">
  <metadata id="CorelCorpID_0Corel-Layer"/>
  <path class="fil0" d="M0.38 0.7c0.35,-0.41 0.79,-0.62 1.31,-0.62 0.41,0 0.75,0.12 1.02,0.36 0.27,0.24 0.4,0.55 0.4,0.93 0,0.54 -0.25,0.92 -0.76,1.16 0.66,0.21 0.99,0.65 0.99,1.34 0,0.46 -0.15,0.83 -0.44,1.11 -0.3,0.28 -0.7,0.42 -1.22,0.42 -0.36,0 -0.67,-0.08 -0.94,-0.23 -0.27,-0.15 -0.52,-0.41 -0.75,-0.79l0.39 -0.23c0.23,0.34 0.45,0.56 0.66,0.66 0.2,0.1 0.41,0.15 0.63,0.15 0.32,0 0.59,-0.09 0.82,-0.28 0.22,-0.19 0.34,-0.46 0.34,-0.82 0,-0.19 -0.04,-0.36 -0.11,-0.5 -0.08,-0.14 -0.18,-0.25 -0.32,-0.34 -0.14,-0.09 -0.27,-0.14 -0.4,-0.17 -0.12,-0.02 -0.33,-0.03 -0.62,-0.03l-0.09 0 0 -0.44 0.17 0c0.75,0 1.12,-0.3 1.12,-0.91 0,-0.28 -0.09,-0.5 -0.26,-0.67 -0.17,-0.17 -0.39,-0.25 -0.65,-0.25 -0.34,0 -0.66,0.15 -0.95,0.46l-0.34 -0.31z"/>
  <path id="_1" class="fil0" d="M4.3 4.86l1.44 -3.33 0.25 0 1.43 3.33 0.45 0 0 0.89 -0.46 0 0 -0.48 -3.07 0 0 0.5 -0.48 0 0 -0.91 0.45 0zm1.55 -2.58l-1.09 2.58 2.13 0 -1.04 -2.58z"/>
  <path id="_2" class="fil0" d="M8.51 1.53l0.48 0 0 0.69c0.19,-0.26 0.41,-0.46 0.65,-0.59 0.25,-0.13 0.52,-0.19 0.82,-0.19 0.53,0 0.98,0.19 1.36,0.57 0.38,0.38 0.56,0.84 0.56,1.38 0,0.55 -0.19,1.01 -0.56,1.4 -0.37,0.38 -0.82,0.57 -1.35,0.57 -0.3,0 -0.57,-0.06 -0.82,-0.19 -0.25,-0.12 -0.47,-0.31 -0.67,-0.55l0 2.02 -0.48 0 0 -5.11zm1.92 0.37c-0.41,0 -0.76,0.14 -1.04,0.43 -0.28,0.29 -0.42,0.65 -0.42,1.08 0,0.28 0.06,0.54 0.19,0.76 0.13,0.23 0.31,0.41 0.54,0.54 0.24,0.13 0.48,0.2 0.74,0.2 0.26,0 0.5,-0.07 0.72,-0.2 0.23,-0.13 0.41,-0.32 0.54,-0.56 0.13,-0.24 0.2,-0.49 0.2,-0.75 0,-0.27 -0.07,-0.52 -0.2,-0.75 -0.13,-0.24 -0.31,-0.42 -0.54,-0.55 -0.22,-0.13 -0.47,-0.2 -0.74,-0.2z"/>
  <path id="_3" class="fil0" d="M16.98 1.53l0 3.74 -0.48 0 0 -0.64c-0.2,0.25 -0.42,0.43 -0.67,0.55 -0.25,0.12 -0.52,0.18 -0.82,0.18 -0.53,0 -0.97,-0.19 -1.35,-0.57 -0.37,-0.38 -0.56,-0.85 -0.56,-1.4 0,-0.54 0.19,-1 0.56,-1.38 0.37,-0.38 0.83,-0.57 1.35,-0.57 0.3,0 0.58,0.06 0.83,0.19 0.25,0.13 0.46,0.32 0.65,0.59l0 -0.69 0.48 0zm-1.92 0.37c-0.27,0 -0.51,0.07 -0.74,0.2 -0.23,0.13 -0.4,0.31 -0.54,0.55 -0.13,0.24 -0.2,0.49 -0.2,0.75 0,0.26 0.07,0.51 0.2,0.75 0.13,0.24 0.31,0.43 0.54,0.56 0.23,0.13 0.47,0.2 0.73,0.2 0.26,0 0.51,-0.07 0.74,-0.2 0.23,-0.13 0.41,-0.31 0.54,-0.54 0.13,-0.23 0.19,-0.48 0.19,-0.76 0,-0.43 -0.14,-0.79 -0.42,-1.08 -0.28,-0.29 -0.63,-0.43 -1.04,-0.43z"/>
  <path id="_4" class="fil0" d="M19.14 5.27l-1.08 0 0 -3.74 1.07 0c0.41,0 0.7,0.09 0.88,0.28 0.18,0.19 0.27,0.41 0.27,0.66 0,0.38 -0.17,0.64 -0.5,0.77 0.48,0.17 0.72,0.5 0.72,1 0,0.69 -0.45,1.03 -1.35,1.03zm-0.61 -3.33l0 1.16 0.31 0c0.28,0 0.47,-0.01 0.56,-0.03 0.09,-0.02 0.17,-0.08 0.25,-0.17 0.08,-0.09 0.12,-0.21 0.12,-0.36 0,-0.16 -0.04,-0.28 -0.12,-0.39 -0.08,-0.11 -0.16,-0.17 -0.25,-0.19 -0.09,-0.02 -0.27,-0.03 -0.55,-0.03l-0.31 0zm0 1.61l0 1.31 0.51 0c0.24,0 0.42,-0.02 0.52,-0.05 0.1,-0.03 0.19,-0.1 0.27,-0.2 0.07,-0.1 0.11,-0.23 0.11,-0.39 0,-0.2 -0.06,-0.37 -0.19,-0.49 -0.13,-0.12 -0.3,-0.18 -0.51,-0.18l-0.71 0z"/>
  <path id="_5" class="fil0" d="M24.95 2.31l-0.38 0.24c-0.33,-0.44 -0.78,-0.66 -1.35,-0.66 -0.46,0 -0.83,0.15 -1.13,0.44 -0.3,0.29 -0.45,0.65 -0.45,1.06 0,0.27 0.07,0.53 0.21,0.77 0.14,0.24 0.33,0.43 0.57,0.56 0.24,0.13 0.51,0.2 0.81,0.2 0.55,0 1,-0.22 1.34,-0.66l0.38 0.25c-0.18,0.27 -0.42,0.48 -0.72,0.63 -0.3,0.15 -0.64,0.22 -1.03,0.22 -0.59,0 -1.08,-0.19 -1.47,-0.56 -0.39,-0.38 -0.58,-0.83 -0.58,-1.37 0,-0.36 0.09,-0.7 0.27,-1.01 0.18,-0.31 0.43,-0.55 0.75,-0.73 0.32,-0.17 0.67,-0.26 1.07,-0.26 0.25,0 0.49,0.04 0.72,0.11 0.23,0.08 0.42,0.17 0.58,0.29 0.16,0.12 0.3,0.27 0.41,0.46z"/>
  <polygon id="_6" class="fil0" points="25.46,1.53 27.9,1.53 27.9,1.94 26.91,1.94 26.91,5.27 26.44,5.27 26.44,1.94 25.46,1.94 "/>
  <path id="_7" class="fil0" d="M29.63 5.27l-1.08 0 0 -3.74 1.07 0c0.41,0 0.7,0.09 0.88,0.28 0.18,0.19 0.27,0.41 0.27,0.66 0,0.38 -0.17,0.64 -0.5,0.77 0.48,0.17 0.72,0.5 0.72,1 0,0.69 -0.45,1.03 -1.36,1.03zm-0.61 -3.33l0 1.16 0.31 0c0.28,0 0.47,-0.01 0.56,-0.03 0.09,-0.02 0.17,-0.08 0.25,-0.17 0.08,-0.09 0.12,-0.21 0.12,-0.36 0,-0.16 -0.04,-0.28 -0.12,-0.39 -0.08,-0.11 -0.16,-0.17 -0.25,-0.19 -0.09,-0.02 -0.27,-0.03 -0.55,-0.03l-0.31 0zm0 1.61l0 1.31 0.51 0c0.24,0 0.42,-0.02 0.52,-0.05 0.1,-0.03 0.19,-0.1 0.27,-0.2 0.07,-0.1 0.11,-0.23 0.11,-0.39 0,-0.2 -0.06,-0.37 -0.19,-0.49 -0.13,-0.12 -0.3,-0.18 -0.51,-0.18l-0.71 0z"/>
  <polygon id="_8" class="fil0" points="31.43,1.53 31.92,1.53 33.21,4.4 34.45,1.53 34.96,1.53 32.74,6.64 32.23,6.64 32.96,4.96 "/>
  <path id="_9" class="fil0" d="M36.06 1.53l0 2.77 2.74 -2.77 0.04 0 0 3.74 -0.48 0 0 -2.75 -2.71 2.75 -0.06 0 0 -3.74 0.48 0zm-0.06 -1.51l0.45 0c0.08,0.12 0.18,0.21 0.31,0.27 0.13,0.06 0.29,0.09 0.47,0.09 0.18,0 0.33,-0.03 0.44,-0.08 0.11,-0.05 0.22,-0.15 0.32,-0.28l0.43 0c-0.05,0.21 -0.18,0.38 -0.38,0.52 -0.21,0.14 -0.48,0.21 -0.82,0.21 -0.33,0 -0.61,-0.07 -0.82,-0.2 -0.21,-0.14 -0.35,-0.31 -0.4,-0.52z"/>
  <polygon id="_10" class="fil0" points="39.48,1.53 41.92,1.53 41.92,1.94 40.94,1.94 40.94,5.27 40.46,5.27 40.46,1.94 39.48,1.94 "/>
  <path id="_11" class="fil0" d="M45.71 4.03l0.4 0.21c-0.13,0.26 -0.29,0.47 -0.46,0.63 -0.17,0.16 -0.37,0.28 -0.59,0.36 -0.22,0.08 -0.46,0.12 -0.74,0.12 -0.61,0 -1.08,-0.2 -1.43,-0.6 -0.34,-0.4 -0.51,-0.85 -0.51,-1.35 0,-0.47 0.15,-0.9 0.44,-1.27 0.37,-0.47 0.86,-0.71 1.48,-0.71 0.64,0 1.14,0.24 1.52,0.72 0.27,0.34 0.41,0.77 0.41,1.28l-3.36 0c0.01,0.43 0.15,0.79 0.42,1.06 0.27,0.28 0.6,0.42 0.99,0.42 0.19,0 0.38,-0.03 0.56,-0.1 0.18,-0.07 0.33,-0.15 0.46,-0.26 0.13,-0.11 0.26,-0.28 0.41,-0.53zm0 -1.01c-0.06,-0.26 -0.16,-0.46 -0.28,-0.62 -0.12,-0.15 -0.29,-0.28 -0.49,-0.37 -0.2,-0.09 -0.41,-0.14 -0.64,-0.14 -0.37,0 -0.68,0.12 -0.95,0.35 -0.19,0.17 -0.34,0.43 -0.44,0.77l2.79 0z"/>
  <polygon id="_12" class="fil0" points="47.6,4.34 48.06,4.56 47.37,5.86 47.03,5.72 "/>
  <path id="_13" class="fil0" d="M51.01 1.53l0.48 0 0 0.69c0.19,-0.26 0.41,-0.46 0.65,-0.59 0.25,-0.13 0.52,-0.19 0.82,-0.19 0.53,0 0.98,0.19 1.36,0.57 0.38,0.38 0.56,0.84 0.56,1.38 0,0.55 -0.19,1.01 -0.56,1.4 -0.37,0.38 -0.82,0.57 -1.35,0.57 -0.3,0 -0.57,-0.06 -0.82,-0.19 -0.25,-0.12 -0.47,-0.31 -0.67,-0.55l0 2.02 -0.48 0 0 -5.11zm1.92 0.37c-0.41,0 -0.76,0.14 -1.04,0.43 -0.28,0.29 -0.42,0.65 -0.42,1.08 0,0.28 0.06,0.54 0.19,0.76 0.13,0.23 0.31,0.41 0.54,0.54 0.24,0.13 0.48,0.2 0.74,0.2 0.26,0 0.5,-0.07 0.72,-0.2 0.23,-0.13 0.41,-0.32 0.54,-0.56 0.13,-0.24 0.2,-0.49 0.2,-0.75 0,-0.27 -0.07,-0.52 -0.2,-0.75 -0.13,-0.24 -0.31,-0.42 -0.54,-0.55 -0.22,-0.13 -0.47,-0.2 -0.74,-0.2z"/>
  <path id="_14" class="fil0" d="M58.92 4.03l0.4 0.21c-0.13,0.26 -0.29,0.47 -0.46,0.63 -0.17,0.16 -0.37,0.28 -0.59,0.36 -0.22,0.08 -0.46,0.12 -0.74,0.12 -0.61,0 -1.08,-0.2 -1.43,-0.6 -0.34,-0.4 -0.51,-0.85 -0.51,-1.35 0,-0.47 0.15,-0.9 0.44,-1.27 0.37,-0.47 0.86,-0.71 1.48,-0.71 0.64,0 1.14,0.24 1.52,0.72 0.27,0.34 0.41,0.77 0.41,1.28l-3.36 0c0.01,0.43 0.15,0.79 0.42,1.06 0.27,0.28 0.6,0.42 0.99,0.42 0.19,0 0.38,-0.03 0.56,-0.1 0.18,-0.07 0.33,-0.15 0.46,-0.26 0.13,-0.11 0.26,-0.28 0.41,-0.53zm0 -1.01c-0.06,-0.26 -0.16,-0.46 -0.28,-0.62 -0.12,-0.15 -0.29,-0.28 -0.49,-0.37 -0.2,-0.09 -0.41,-0.14 -0.64,-0.14 -0.37,0 -0.68,0.12 -0.95,0.35 -0.19,0.17 -0.34,0.43 -0.44,0.77l2.79 0z"/>
  <path id="_15" class="fil0" d="M63.89 0l0 0.46c-0.23,0.04 -0.62,0.07 -1.18,0.08 -0.4,0.01 -0.71,0.04 -0.93,0.08 -0.22,0.04 -0.41,0.12 -0.57,0.23 -0.16,0.12 -0.3,0.29 -0.41,0.52 -0.11,0.23 -0.18,0.49 -0.21,0.78l-0.05 0.53c0.13,-0.43 0.34,-0.74 0.64,-0.94 0.3,-0.2 0.63,-0.3 0.99,-0.3 0.55,0 1.02,0.19 1.39,0.58 0.37,0.39 0.56,0.85 0.56,1.39 0,0.53 -0.19,0.99 -0.56,1.38 -0.37,0.38 -0.83,0.58 -1.39,0.58 -0.57,0 -1.05,-0.21 -1.45,-0.64 -0.4,-0.43 -0.59,-1.1 -0.59,-2.02 0,-0.64 0.07,-1.12 0.22,-1.45 0.15,-0.33 0.31,-0.56 0.5,-0.71 0.19,-0.14 0.43,-0.26 0.73,-0.34 0.3,-0.08 0.85,-0.13 1.67,-0.16 0.25,-0.01 0.46,-0.02 0.63,-0.05zm-0.25 3.42c0,-0.41 -0.14,-0.77 -0.43,-1.07 -0.29,-0.3 -0.63,-0.45 -1.02,-0.45 -0.39,0 -0.73,0.15 -1.02,0.45 -0.29,0.3 -0.43,0.65 -0.43,1.07 0,0.41 0.14,0.76 0.42,1.05 0.28,0.29 0.62,0.43 1.04,0.43 0.41,0 0.76,-0.14 1.04,-0.43 0.28,-0.29 0.42,-0.64 0.42,-1.05z"/>
  <path id="_16" class="fil0" d="M66.59 3.6l-0.34 0 -1.07 1.67 -0.52 0 1.12 -1.72c-0.28,-0.03 -0.51,-0.14 -0.68,-0.32 -0.17,-0.18 -0.26,-0.4 -0.26,-0.66 0,-0.33 0.1,-0.59 0.3,-0.77 0.2,-0.18 0.46,-0.27 0.79,-0.27l1.13 0 0 3.74 -0.48 0 0 -1.67zm0 -1.66l-0.32 0c-0.31,0 -0.51,0.02 -0.62,0.06 -0.11,0.04 -0.19,0.11 -0.25,0.2 -0.06,0.1 -0.09,0.22 -0.09,0.38 0,0.15 0.04,0.28 0.12,0.38 0.08,0.1 0.17,0.16 0.27,0.18 0.1,0.02 0.29,0.03 0.57,0.03l0.32 0 0 -1.24z"/>
  <polygon id="_17" class="fil0" points="67.72,1.53 70.16,1.53 70.16,1.94 69.17,1.94 69.17,5.27 68.7,5.27 68.7,1.94 67.72,1.94 "/>
  <path id="_18" class="fil0" d="M74.51 1.53l0 3.74 -0.48 0 0 -0.64c-0.2,0.25 -0.42,0.43 -0.67,0.55 -0.25,0.12 -0.52,0.18 -0.82,0.18 -0.53,0 -0.97,-0.19 -1.35,-0.57 -0.37,-0.38 -0.56,-0.85 -0.56,-1.4 0,-0.54 0.19,-1 0.56,-1.38 0.37,-0.38 0.83,-0.57 1.35,-0.57 0.3,0 0.58,0.06 0.83,0.19 0.25,0.13 0.46,0.32 0.65,0.59l0 -0.69 0.48 0zm-1.92 0.37c-0.27,0 -0.51,0.07 -0.74,0.2 -0.23,0.13 -0.4,0.31 -0.54,0.55 -0.13,0.24 -0.2,0.49 -0.2,0.75 0,0.26 0.07,0.51 0.2,0.75 0.13,0.24 0.31,0.43 0.54,0.56 0.23,0.13 0.47,0.2 0.73,0.2 0.26,0 0.51,-0.07 0.74,-0.2 0.23,-0.13 0.41,-0.31 0.54,-0.54 0.13,-0.23 0.19,-0.48 0.19,-0.76 0,-0.43 -0.14,-0.79 -0.42,-1.08 -0.28,-0.29 -0.63,-0.43 -1.04,-0.43z"/>
  <path id="_19" class="fil0" d="M76.34 0.08l0 3.92 -0.49 0 0 -3.92 0.49 0zm-0.24 4.42c0.12,0 0.21,0.04 0.3,0.12 0.08,0.08 0.12,0.18 0.12,0.3 0,0.12 -0.04,0.22 -0.12,0.3 -0.08,0.08 -0.18,0.13 -0.3,0.13 -0.12,0 -0.21,-0.04 -0.3,-0.13 -0.08,-0.08 -0.12,-0.18 -0.12,-0.3 0,-0.12 0.04,-0.22 0.12,-0.3 0.08,-0.08 0.18,-0.12 0.3,-0.12z"/>
  <polygon id="_20" class="fil0" points="0.27,9 3.84,9 3.84,14.05 3.33,14.05 3.33,9.47 0.77,9.47 0.77,14.05 0.27,14.05 "/>
  <path id="_21" class="fil0" d="M6.74 10.22c0.57,0 1.05,0.21 1.43,0.62 0.34,0.38 0.51,0.83 0.51,1.35 0,0.52 -0.18,0.98 -0.54,1.37 -0.36,0.39 -0.83,0.58 -1.4,0.58 -0.57,0 -1.04,-0.19 -1.4,-0.58 -0.36,-0.39 -0.54,-0.85 -0.54,-1.37 0,-0.52 0.17,-0.97 0.51,-1.34 0.38,-0.42 0.85,-0.63 1.43,-0.63zm-0 0.47c-0.4,0 -0.74,0.15 -1.02,0.44 -0.29,0.29 -0.43,0.65 -0.43,1.07 0,0.27 0.07,0.52 0.19,0.75 0.13,0.23 0.31,0.41 0.53,0.54 0.22,0.13 0.46,0.19 0.73,0.19 0.26,0 0.51,-0.06 0.73,-0.19 0.22,-0.13 0.4,-0.31 0.53,-0.54 0.13,-0.23 0.19,-0.48 0.19,-0.75 0,-0.42 -0.14,-0.78 -0.43,-1.07 -0.29,-0.29 -0.63,-0.44 -1.02,-0.44z"/>
  <path id="_22" class="fil0" d="M10.19 11.88l0.25 0c0.16,0 0.31,-0.05 0.44,-0.16 0.13,-0.11 0.2,-0.26 0.2,-0.45 0,-0.17 -0.05,-0.31 -0.16,-0.43 -0.11,-0.12 -0.27,-0.18 -0.5,-0.18 -0.26,0 -0.52,0.1 -0.79,0.3l-0.27 -0.33c0.34,-0.28 0.7,-0.42 1.07,-0.42 0.31,0 0.57,0.09 0.79,0.28 0.21,0.18 0.32,0.42 0.32,0.71 0,0.39 -0.17,0.65 -0.52,0.79 0.45,0.19 0.67,0.52 0.67,0.99 0,0.3 -0.11,0.57 -0.31,0.81 -0.21,0.24 -0.52,0.36 -0.94,0.36 -0.51,0 -0.92,-0.17 -1.23,-0.5l0.3 -0.34c0.23,0.26 0.53,0.39 0.89,0.39 0.24,0 0.44,-0.07 0.57,-0.2 0.14,-0.13 0.21,-0.3 0.21,-0.52 0,-0.21 -0.07,-0.38 -0.21,-0.5 -0.14,-0.13 -0.3,-0.19 -0.49,-0.19l-0.3 0 0 -0.42z"/>
  <path id="_23" class="fil0" d="M12.56 13.65l1.44 -3.33 0.25 0 1.43 3.33 0.45 0 0 0.89 -0.46 0 0 -0.48 -3.07 0 0 0.5 -0.48 0 0 -0.91 0.45 0zm1.55 -2.58l-1.09 2.58 2.13 0 -1.04 -2.58z"/>
  <path id="_24" class="fil0" d="M16.77 10.31l0.48 0 0 0.69c0.19,-0.26 0.41,-0.46 0.65,-0.59 0.25,-0.13 0.52,-0.19 0.82,-0.19 0.53,0 0.98,0.19 1.36,0.57 0.38,0.38 0.56,0.84 0.56,1.38 0,0.55 -0.19,1.01 -0.56,1.4 -0.37,0.38 -0.82,0.57 -1.35,0.57 -0.3,0 -0.57,-0.06 -0.82,-0.19 -0.25,-0.12 -0.47,-0.31 -0.67,-0.55l0 2.02 -0.48 0 0 -5.11zm1.92 0.37c-0.41,0 -0.76,0.14 -1.04,0.43 -0.28,0.29 -0.42,0.65 -0.42,1.08 0,0.28 0.06,0.54 0.19,0.76 0.13,0.23 0.31,0.41 0.54,0.54 0.24,0.13 0.48,0.2 0.74,0.2 0.26,0 0.5,-0.07 0.72,-0.2 0.23,-0.13 0.41,-0.32 0.54,-0.56 0.13,-0.24 0.2,-0.49 0.2,-0.75 0,-0.27 -0.07,-0.52 -0.2,-0.75 -0.13,-0.24 -0.31,-0.42 -0.54,-0.55 -0.22,-0.13 -0.47,-0.2 -0.74,-0.2z"/>
  <path id="_25" class="fil0" d="M25.24 10.31l0 3.74 -0.48 0 0 -0.64c-0.2,0.25 -0.43,0.43 -0.67,0.55 -0.25,0.12 -0.52,0.18 -0.82,0.18 -0.53,0 -0.97,-0.19 -1.35,-0.57 -0.37,-0.38 -0.56,-0.85 -0.56,-1.4 0,-0.54 0.19,-1 0.56,-1.38 0.37,-0.38 0.83,-0.57 1.35,-0.57 0.3,0 0.58,0.06 0.83,0.19 0.25,0.13 0.46,0.32 0.65,0.59l0 -0.69 0.48 0zm-1.92 0.37c-0.27,0 -0.51,0.07 -0.74,0.2 -0.22,0.13 -0.4,0.31 -0.54,0.55 -0.13,0.24 -0.2,0.49 -0.2,0.75 0,0.26 0.07,0.51 0.2,0.75 0.13,0.24 0.31,0.43 0.54,0.56 0.23,0.13 0.47,0.2 0.73,0.2 0.26,0 0.51,-0.07 0.74,-0.2 0.23,-0.13 0.41,-0.31 0.54,-0.54 0.13,-0.23 0.19,-0.48 0.19,-0.76 0,-0.43 -0.14,-0.79 -0.42,-1.08 -0.28,-0.29 -0.63,-0.43 -1.04,-0.43z"/>
  <path id="_26" class="fil0" d="M27.41 14.05l-1.08 0 0 -3.74 1.07 0c0.41,0 0.7,0.09 0.88,0.28 0.18,0.19 0.27,0.41 0.27,0.66 0,0.38 -0.17,0.64 -0.5,0.77 0.48,0.17 0.72,0.5 0.72,1 0,0.69 -0.45,1.03 -1.36,1.03zm-0.61 -3.33l0 1.16 0.31 0c0.28,0 0.47,-0.01 0.56,-0.03 0.09,-0.02 0.17,-0.08 0.25,-0.17 0.08,-0.09 0.12,-0.21 0.12,-0.36 0,-0.16 -0.04,-0.28 -0.12,-0.39 -0.08,-0.11 -0.16,-0.17 -0.25,-0.19 -0.09,-0.02 -0.27,-0.03 -0.55,-0.03l-0.31 0zm0 1.61l0 1.31 0.51 0c0.24,0 0.42,-0.02 0.52,-0.05 0.1,-0.03 0.19,-0.1 0.27,-0.2 0.07,-0.1 0.11,-0.23 0.11,-0.39 0,-0.2 -0.06,-0.37 -0.19,-0.49 -0.13,-0.12 -0.3,-0.18 -0.51,-0.18l-0.71 0z"/>
  <polygon id="_27" class="fil0" points="32.75,14.05 32.25,14.05 31,11.33 29.76,14.05 29.25,14.05 30.95,10.31 31.03,10.31 "/>
  <path id="_28" class="fil0" d="M35.06 12.39l-0.34 0 -1.07 1.67 -0.52 0 1.12 -1.72c-0.28,-0.03 -0.51,-0.14 -0.68,-0.32 -0.17,-0.18 -0.26,-0.4 -0.26,-0.66 0,-0.33 0.1,-0.59 0.3,-0.77 0.2,-0.18 0.46,-0.27 0.79,-0.27l1.13 0 0 3.74 -0.48 0 0 -1.67zm0 -1.66l-0.32 0c-0.31,0 -0.51,0.02 -0.62,0.06 -0.11,0.04 -0.19,0.11 -0.25,0.2 -0.06,0.1 -0.09,0.22 -0.09,0.38 0,0.15 0.04,0.28 0.12,0.38 0.08,0.1 0.17,0.16 0.27,0.18 0.1,0.02 0.29,0.03 0.57,0.03l0.32 0 0 -1.24z"/>
  <path id="_29" class="fil0" d="M37.08 14.05l-0.48 0 0 -3.74 0.48 0 0 1.57 0.63 0c0.08,-0.5 0.31,-0.9 0.67,-1.2 0.36,-0.31 0.78,-0.46 1.25,-0.46 0.55,0 1.01,0.19 1.38,0.58 0.37,0.39 0.56,0.85 0.56,1.39 0,0.53 -0.18,0.99 -0.55,1.38 -0.37,0.38 -0.83,0.58 -1.38,0.58 -0.49,0 -0.92,-0.16 -1.29,-0.49 -0.37,-0.32 -0.58,-0.76 -0.63,-1.3l-0.63 0 0 1.7zm4 -1.85c0,-0.41 -0.14,-0.77 -0.43,-1.07 -0.29,-0.3 -0.63,-0.45 -1.02,-0.45 -0.39,0 -0.74,0.15 -1.02,0.45 -0.29,0.3 -0.43,0.65 -0.43,1.07 0,0.41 0.14,0.76 0.41,1.05 0.27,0.29 0.62,0.43 1.04,0.43 0.41,0 0.76,-0.14 1.03,-0.43 0.28,-0.29 0.41,-0.64 0.41,-1.05z"/>
  <path id="_30" class="fil0" d="M45.47 14.05l-1.08 0 0 -3.74 1.07 0c0.41,0 0.7,0.09 0.88,0.28 0.18,0.19 0.27,0.41 0.27,0.66 0,0.38 -0.17,0.64 -0.5,0.77 0.48,0.17 0.72,0.5 0.72,1 0,0.69 -0.45,1.03 -1.35,1.03zm-0.61 -3.33l0 1.16 0.31 0c0.28,0 0.47,-0.01 0.56,-0.03 0.09,-0.02 0.17,-0.08 0.25,-0.17 0.08,-0.09 0.12,-0.21 0.12,-0.36 0,-0.16 -0.04,-0.28 -0.12,-0.39 -0.08,-0.11 -0.16,-0.17 -0.25,-0.19 -0.09,-0.02 -0.27,-0.03 -0.55,-0.03l-0.31 0zm0 1.61l0 1.31 0.51 0c0.24,0 0.42,-0.02 0.52,-0.05 0.1,-0.03 0.19,-0.1 0.27,-0.2 0.07,-0.1 0.11,-0.23 0.11,-0.39 0,-0.2 -0.06,-0.37 -0.19,-0.49 -0.13,-0.12 -0.3,-0.18 -0.51,-0.18l-0.71 0z"/>
  <path id="_31" class="fil0" d="M51.37 10.31l0 3.74 -0.48 0 0 -0.64c-0.2,0.25 -0.42,0.43 -0.67,0.55 -0.25,0.12 -0.52,0.18 -0.82,0.18 -0.53,0 -0.97,-0.19 -1.35,-0.57 -0.37,-0.38 -0.56,-0.85 -0.56,-1.4 0,-0.54 0.19,-1 0.56,-1.38 0.37,-0.38 0.83,-0.57 1.35,-0.57 0.3,0 0.58,0.06 0.83,0.19 0.25,0.13 0.46,0.32 0.65,0.59l0 -0.69 0.48 0zm-1.92 0.37c-0.27,0 -0.51,0.07 -0.74,0.2 -0.23,0.13 -0.4,0.31 -0.54,0.55 -0.13,0.24 -0.2,0.49 -0.2,0.75 0,0.26 0.07,0.51 0.2,0.75 0.13,0.24 0.31,0.43 0.54,0.56 0.23,0.13 0.47,0.2 0.73,0.2 0.26,0 0.51,-0.07 0.74,-0.2 0.23,-0.13 0.41,-0.31 0.54,-0.54 0.13,-0.23 0.19,-0.48 0.19,-0.76 0,-0.43 -0.14,-0.79 -0.42,-1.08 -0.28,-0.29 -0.63,-0.43 -1.04,-0.43z"/>
  <path id="_32" class="fil0" d="M56.06 11.09l-0.38 0.24c-0.33,-0.44 -0.78,-0.66 -1.35,-0.66 -0.45,0 -0.83,0.15 -1.13,0.44 -0.3,0.29 -0.45,0.65 -0.45,1.06 0,0.27 0.07,0.53 0.21,0.77 0.14,0.24 0.33,0.43 0.57,0.56 0.24,0.13 0.51,0.2 0.81,0.2 0.55,0 1,-0.22 1.34,-0.66l0.38 0.25c-0.18,0.27 -0.42,0.48 -0.72,0.63 -0.3,0.15 -0.64,0.22 -1.03,0.22 -0.59,0 -1.08,-0.19 -1.47,-0.56 -0.39,-0.38 -0.58,-0.83 -0.58,-1.37 0,-0.36 0.09,-0.7 0.27,-1.01 0.18,-0.31 0.43,-0.55 0.75,-0.73 0.32,-0.17 0.67,-0.26 1.07,-0.26 0.25,0 0.49,0.04 0.72,0.11 0.23,0.08 0.42,0.17 0.58,0.29 0.16,0.12 0.3,0.27 0.41,0.46z"/>
  <path id="_33" class="fil0" d="M3.81 19.88l-0.38 0.24c-0.33,-0.44 -0.78,-0.66 -1.35,-0.66 -0.46,0 -0.83,0.15 -1.13,0.44 -0.3,0.29 -0.45,0.65 -0.45,1.06 0,0.27 0.07,0.53 0.21,0.77 0.14,0.24 0.33,0.43 0.57,0.56 0.24,0.13 0.51,0.2 0.81,0.2 0.55,0 1,-0.22 1.34,-0.66l0.38 0.25c-0.18,0.27 -0.42,0.48 -0.72,0.63 -0.3,0.15 -0.64,0.22 -1.03,0.22 -0.59,0 -1.08,-0.19 -1.47,-0.56 -0.39,-0.38 -0.58,-0.83 -0.58,-1.37 0,-0.36 0.09,-0.7 0.27,-1.01 0.18,-0.31 0.43,-0.55 0.75,-0.73 0.32,-0.17 0.67,-0.26 1.07,-0.26 0.25,0 0.49,0.04 0.72,0.11 0.23,0.08 0.42,0.17 0.58,0.29 0.16,0.12 0.3,0.27 0.41,0.46z"/>
  <polygon id="_34" class="fil0" points="6.74,17.78 7.24,17.78 7.24,19.9 9.8,19.9 9.8,17.78 10.31,17.78 10.31,22.84 9.8,22.84 9.8,20.39 7.24,20.39 7.24,22.84 6.74,22.84 "/>
  <path id="_35" class="fil0" d="M13.21 19.01c0.57,0 1.05,0.21 1.43,0.62 0.34,0.38 0.51,0.83 0.51,1.35 0,0.52 -0.18,0.98 -0.54,1.37 -0.36,0.39 -0.83,0.58 -1.4,0.58 -0.57,0 -1.04,-0.19 -1.4,-0.58 -0.36,-0.39 -0.54,-0.85 -0.54,-1.37 0,-0.52 0.17,-0.97 0.51,-1.34 0.38,-0.42 0.85,-0.63 1.43,-0.63zm-0 0.47c-0.4,0 -0.74,0.15 -1.02,0.44 -0.29,0.29 -0.43,0.65 -0.43,1.07 0,0.27 0.07,0.52 0.19,0.75 0.13,0.23 0.31,0.41 0.53,0.54 0.22,0.13 0.46,0.19 0.73,0.19 0.26,0 0.51,-0.06 0.73,-0.19 0.22,-0.13 0.4,-0.31 0.53,-0.54 0.13,-0.23 0.19,-0.48 0.19,-0.75 0,-0.42 -0.14,-0.78 -0.43,-1.07 -0.29,-0.29 -0.63,-0.44 -1.02,-0.44z"/>
  <path id="_36" class="fil0" d="M17.12 22.84l-1.08 0 0 -3.74 1.07 0c0.41,0 0.7,0.09 0.88,0.28 0.18,0.19 0.27,0.41 0.27,0.66 0,0.38 -0.17,0.64 -0.5,0.77 0.48,0.17 0.72,0.5 0.72,1 0,0.69 -0.45,1.03 -1.35,1.03zm-0.61 -3.33l0 1.16 0.31 0c0.28,0 0.47,-0.01 0.56,-0.03 0.09,-0.02 0.17,-0.08 0.25,-0.17 0.08,-0.09 0.12,-0.21 0.12,-0.36 0,-0.16 -0.04,-0.28 -0.12,-0.39 -0.08,-0.11 -0.16,-0.17 -0.25,-0.19 -0.09,-0.02 -0.27,-0.03 -0.55,-0.03l-0.31 0zm0 1.61l0 1.31 0.51 0c0.24,0 0.42,-0.02 0.52,-0.05 0.1,-0.03 0.19,-0.1 0.27,-0.2 0.07,-0.1 0.11,-0.23 0.11,-0.39 0,-0.2 -0.06,-0.37 -0.19,-0.49 -0.13,-0.12 -0.3,-0.18 -0.51,-0.18l-0.71 0z"/>
  <path id="_37" class="fil0" d="M19.78 20.58l0.46 0c0.36,0 0.65,0.03 0.85,0.09 0.21,0.06 0.38,0.18 0.53,0.38 0.15,0.2 0.22,0.42 0.22,0.68 0,0.31 -0.11,0.57 -0.32,0.79 -0.21,0.22 -0.54,0.33 -0.97,0.33l-1.24 0 0 -3.74 0.47 0 0 1.48zm0.02 0.44l0 1.41 0.55 0c0.65,0 0.97,-0.23 0.97,-0.69 0,-0.13 -0.04,-0.26 -0.1,-0.38 -0.07,-0.13 -0.17,-0.21 -0.3,-0.26 -0.13,-0.05 -0.37,-0.08 -0.71,-0.08l-0.41 0zm2.71 -1.92l0.48 0 0 3.74 -0.48 0 0 -3.74z"/>
  <polygon id="_38" class="fil0" points="28.06,19.1 28.2,19.1 29.45,22.84 28.95,22.84 28.03,20.09 26.6,22.84 26.51,22.84 25.08,20.08 24.16,22.84 23.66,22.84 24.93,19.1 25.06,19.1 26.56,22.02 "/>
  <polygon id="_39" class="fil0" points="32.58,19.52 32.58,22.84 32.1,22.84 32.1,19.1 33.98,19.1 33.98,19.52 "/>
  <path id="_40" class="fil0" d="M36.39 19.01c0.57,0 1.05,0.21 1.43,0.62 0.34,0.38 0.51,0.83 0.51,1.35 0,0.52 -0.18,0.98 -0.54,1.37 -0.36,0.39 -0.83,0.58 -1.4,0.58 -0.57,0 -1.04,-0.19 -1.4,-0.58 -0.36,-0.39 -0.54,-0.85 -0.54,-1.37 0,-0.52 0.17,-0.97 0.51,-1.34 0.38,-0.42 0.85,-0.63 1.43,-0.63zm-0 0.47c-0.4,0 -0.74,0.15 -1.02,0.44 -0.29,0.29 -0.43,0.65 -0.43,1.07 0,0.27 0.07,0.52 0.19,0.75 0.13,0.23 0.31,0.41 0.53,0.54 0.22,0.13 0.46,0.19 0.73,0.19 0.26,0 0.51,-0.06 0.73,-0.19 0.22,-0.13 0.4,-0.31 0.53,-0.54 0.13,-0.23 0.19,-0.48 0.19,-0.75 0,-0.42 -0.14,-0.78 -0.43,-1.07 -0.29,-0.29 -0.63,-0.44 -1.02,-0.44z"/>
  <path id="_41" class="fil0" d="M39.25 22.43l1.44 -3.33 0.25 0 1.43 3.33 0.45 0 0 0.89 -0.46 0 0 -0.48 -3.07 0 0 0.5 -0.48 0 0 -0.91 0.45 0zm1.55 -2.58l-1.09 2.58 2.13 0 -1.04 -2.58z"/>
  <path id="_42" class="fil0" d="M45.21 19.01c0.57,0 1.05,0.21 1.43,0.62 0.34,0.38 0.51,0.83 0.51,1.35 0,0.52 -0.18,0.98 -0.54,1.37 -0.36,0.39 -0.83,0.58 -1.4,0.58 -0.57,0 -1.04,-0.19 -1.4,-0.58 -0.36,-0.39 -0.54,-0.85 -0.54,-1.37 0,-0.52 0.17,-0.97 0.51,-1.34 0.38,-0.42 0.85,-0.63 1.43,-0.63zm-0 0.47c-0.4,0 -0.74,0.15 -1.02,0.44 -0.29,0.29 -0.43,0.65 -0.43,1.07 0,0.27 0.07,0.52 0.19,0.75 0.13,0.23 0.31,0.41 0.53,0.54 0.22,0.13 0.46,0.19 0.73,0.19 0.26,0 0.51,-0.06 0.73,-0.19 0.22,-0.13 0.4,-0.31 0.53,-0.54 0.13,-0.23 0.19,-0.48 0.19,-0.75 0,-0.42 -0.14,-0.78 -0.43,-1.07 -0.29,-0.29 -0.63,-0.44 -1.02,-0.44z"/>
  <polygon id="_43" class="fil0" points="52.08,19.1 52.22,19.1 53.48,22.84 52.98,22.84 52.06,20.09 50.62,22.84 50.54,22.84 49.1,20.08 48.18,22.84 47.68,22.84 48.95,19.1 49.08,19.1 50.58,22.02 "/>
  <path id="_44" class="fil0" d="M54.93 17.65l0 3.92 -0.49 0 0 -3.92 0.49 0zm-0.24 4.42c0.12,0 0.21,0.04 0.3,0.12 0.08,0.08 0.12,0.18 0.12,0.3 0,0.12 -0.04,0.22 -0.12,0.3 -0.08,0.08 -0.18,0.13 -0.3,0.13 -0.12,0 -0.21,-0.04 -0.3,-0.13 -0.08,-0.08 -0.12,-0.18 -0.12,-0.3 0,-0.12 0.04,-0.22 0.12,-0.3 0.08,-0.08 0.18,-0.12 0.3,-0.12z"/>
 </g>
</svg>
