<?xml version="1.0" encoding="UTF-8"?>
<!DOCTYPE svg PUBLIC "-//W3C//DTD SVG 1.1//EN" "http://www.w3.org/Graphics/SVG/1.1/DTD/svg11.dtd">
<!-- Creator: CorelDRAW -->
<svg xmlns="http://www.w3.org/2000/svg" xml:space="preserve" width="26.942mm" height="8.6647mm" version="1.1" style="shape-rendering:geometricPrecision; text-rendering:geometricPrecision; image-rendering:optimizeQuality; fill-rule:evenodd; clip-rule:evenodd"
viewBox="0 0 41.5 13.35"
 xmlns:xlink="http://www.w3.org/1999/xlink"
 xmlns:xodm="http://www.corel.com/coreldraw/odm/2003">
 <defs>
  <style type="text/css">
   <![CDATA[
    .fil0 {fill:#969677;fill-rule:nonzero}
    .fil1 {fill:white;fill-rule:nonzero}
   ]]>
  </style>
 </defs>
 <g id="Слой_x0020_1">
  <metadata id="CorelCorpID_0Corel-Layer"/>
  <path class="fil0" d="M2.97 4.17c-0.04,0.09 -0.1,0.15 -0.19,0.19 -0.08,0.05 -0.17,0.06 -0.25,0.05 0.09,-0.02 0.16,-0.05 0.22,-0.09 0.07,-0.05 0.12,-0.11 0.15,-0.18 0.06,-0.13 0.08,-0.29 0.04,-0.48 0.05,0.07 0.07,0.16 0.08,0.25 0.01,0.09 -0.01,0.18 -0.05,0.26zm-0.7 -0.23c-0.04,-0.07 -0.06,-0.15 -0.05,-0.22 0.01,-0.07 0.04,-0.13 0.09,-0.16 0.05,-0.03 0.11,-0.03 0.18,0 0.07,0.03 0.12,0.08 0.17,0.16 0.04,0.07 0.06,0.15 0.05,0.22 -0.01,0.07 -0.04,0.13 -0.09,0.16 -0.05,0.03 -0.11,0.03 -0.18,0 -0.07,-0.03 -0.12,-0.08 -0.17,-0.16zm-0.33 -1.59c0.06,-0.02 0.12,-0.04 0.17,-0.07 0.05,-0.03 0.1,-0.07 0.14,-0.11 0.04,-0.04 0.08,-0.09 0.11,-0.14 0.03,-0.05 0.05,-0.1 0.08,-0.16 0.01,0.13 -0.03,0.25 -0.13,0.36 -0.05,0.05 -0.11,0.08 -0.17,0.11 -0.07,0.02 -0.13,0.03 -0.19,0.02zm-0.08 -0.55c0.03,-0.05 0.06,-0.09 0.11,-0.11 0.04,-0.02 0.08,-0.02 0.12,0 0.03,0.02 0.05,0.05 0.06,0.1 0.01,0.05 -0.01,0.1 -0.03,0.14 -0.03,0.05 -0.06,0.09 -0.11,0.11 -0.04,0.02 -0.08,0.02 -0.12,0 -0.03,-0.02 -0.05,-0.05 -0.06,-0.1 -0.01,-0.05 0.01,-0.1 0.03,-0.14zm-0.64 -0.68c-0.06,0.06 -0.12,0.14 -0.19,0.23 -0.1,0.14 -0.18,0.32 -0.27,0.53 -0.06,0.17 -0.12,0.36 -0.18,0.58 0.02,-0.2 0.06,-0.39 0.12,-0.6 0.06,-0.2 0.15,-0.39 0.26,-0.55 0.13,-0.19 0.27,-0.33 0.43,-0.43 0.1,-0.06 0.2,-0.1 0.28,-0.12 0.11,-0.02 0.21,-0.03 0.3,-0.03 -0.21,0.02 -0.39,0.08 -0.55,0.2 -0.08,0.06 -0.16,0.12 -0.22,0.19zm1.63 1.45c-0.04,-0.02 -0.05,-0.06 -0.03,-0.13 0.01,-0.02 0.03,-0.06 0.06,-0.11l0.02 -0.03 0.02 -0.03c0.01,-0.03 0.03,-0.05 0.04,-0.08 0.07,-0.14 0.12,-0.27 0.14,-0.4 0.04,-0.18 0.04,-0.37 0.01,-0.56 -0.03,-0.21 -0.16,-0.4 -0.36,-0.55 -0.21,-0.15 -0.45,-0.23 -0.72,-0.24 -0.3,-0.01 -0.57,0.08 -0.82,0.25 -0.29,0.2 -0.52,0.51 -0.68,0.93 -0.17,0.43 -0.27,0.9 -0.28,1.4 -0.02,0.52 0.05,0.99 0.21,1.42 0.17,0.47 0.41,0.83 0.74,1.08 0.36,0.28 0.8,0.4 1.32,0.37 0.49,-0.03 0.88,-0.19 1.17,-0.48 0.27,-0.26 0.41,-0.58 0.44,-0.97 0.03,-0.38 -0.07,-0.74 -0.28,-1.08 -0.23,-0.36 -0.56,-0.63 -0.99,-0.8z"/>
  <path id="_1" class="fil0" d="M7.04 4.26c-0.05,0.07 -0.11,0.12 -0.18,0.16 -0.08,0.04 -0.15,0.05 -0.23,0.03 0.16,-0.03 0.27,-0.1 0.35,-0.23 0.04,-0.05 0.06,-0.12 0.08,-0.19 0.01,-0.07 0.02,-0.14 0.02,-0.23 0.03,0.07 0.04,0.15 0.03,0.23 -0.01,0.08 -0.03,0.16 -0.08,0.23zm-0.67 -0.29c-0.04,-0.07 -0.05,-0.15 -0.04,-0.22 0.01,-0.07 0.04,-0.13 0.09,-0.15 0.06,-0.03 0.12,-0.02 0.18,0.01 0.07,0.03 0.12,0.09 0.16,0.16 0.04,0.08 0.05,0.15 0.04,0.22 -0.01,0.07 -0.04,0.12 -0.1,0.15 -0.05,0.03 -0.11,0.02 -0.17,-0.01 -0.07,-0.03 -0.12,-0.09 -0.16,-0.16zm-0.35 -3.16c-0.05,0.02 -0.1,0.06 -0.16,0.1 -0.09,0.07 -0.18,0.16 -0.26,0.27 -0.07,0.08 -0.14,0.18 -0.22,0.31 -0.03,0.04 -0.07,0.1 -0.11,0.16l-0.1 0.16c0.05,-0.14 0.1,-0.26 0.16,-0.36 0.06,-0.12 0.13,-0.23 0.22,-0.33 0.09,-0.11 0.19,-0.2 0.29,-0.27 0.13,-0.09 0.25,-0.13 0.37,-0.12 -0.06,0.01 -0.12,0.03 -0.18,0.06zm0.99 1.85c-0.13,-0.04 -0.21,-0.11 -0.25,-0.21 -0.03,-0.08 -0.03,-0.19 -0,-0.35 0.01,-0.03 0.01,-0.07 0.02,-0.11l0.02 -0.11c0.02,-0.1 0.03,-0.18 0.05,-0.24 0.03,-0.19 0.04,-0.37 0.02,-0.52 -0.03,-0.21 -0.11,-0.38 -0.24,-0.51 -0.13,-0.13 -0.29,-0.18 -0.48,-0.16 -0.2,0.02 -0.41,0.12 -0.61,0.31 -0.23,0.21 -0.44,0.52 -0.62,0.92 -0.19,0.42 -0.32,0.87 -0.37,1.35 -0.06,0.5 -0.03,0.96 0.08,1.38 0.12,0.46 0.33,0.82 0.63,1.07 0.33,0.28 0.75,0.42 1.26,0.42 0.48,-0.01 0.88,-0.15 1.2,-0.44 0.29,-0.26 0.47,-0.59 0.53,-0.98 0.06,-0.39 -0.01,-0.76 -0.21,-1.09 -0.22,-0.36 -0.56,-0.61 -1.01,-0.75zm1.58 -1.76c-0.04,0.04 -0.07,0.09 -0.09,0.14 -0.02,0.05 -0.03,0.11 -0.03,0.18 -0.01,0.09 0.01,0.22 0.03,0.38l0.04 0.19 0.03 0.19c-0.06,-0.14 -0.1,-0.26 -0.13,-0.37 -0.04,-0.15 -0.05,-0.28 -0.05,-0.39 0.01,-0.08 0.02,-0.14 0.04,-0.2 0.03,-0.07 0.07,-0.13 0.12,-0.17 0.1,-0.08 0.23,-0.11 0.38,-0.1 -0.14,0.02 -0.25,0.06 -0.34,0.14zm1.33 0.21c-0.11,-0.2 -0.25,-0.36 -0.42,-0.47 -0.15,-0.1 -0.32,-0.16 -0.5,-0.17 -0.17,-0.01 -0.32,0.02 -0.46,0.08 -0.14,0.07 -0.24,0.17 -0.31,0.29 -0.12,0.24 -0.12,0.59 0.01,1.05 0.02,0.07 0.05,0.17 0.08,0.29l0.05 0.15 0.05 0.14c0.07,0.23 0.11,0.42 0.13,0.58 0.04,0.37 0.06,0.75 0.05,1.14 -0,0.12 -0.01,0.27 -0.02,0.44l-0 0.1 -0 0.1c-0.01,0.07 -0.01,0.13 -0.01,0.18 -0.01,0.24 0.01,0.41 0.04,0.51 0.05,0.13 0.14,0.2 0.28,0.24 0.28,0.06 0.52,-0.08 0.74,-0.44 0.2,-0.32 0.35,-0.76 0.45,-1.32 0.1,-0.54 0.14,-1.07 0.11,-1.6 -0.03,-0.56 -0.12,-0.98 -0.28,-1.28z"/>
  <path id="_2" class="fil0" d="M11.96 0.92c-0.02,0.01 -0.05,0.02 -0.08,0.04l-0.08 0.04 -0.08 0.04c-0.03,0.02 -0.05,0.03 -0.07,0.05 -0.08,0.05 -0.17,0.12 -0.27,0.21 -0.1,0.1 -0.18,0.19 -0.22,0.26 -0.12,0.18 -0.2,0.39 -0.24,0.63 -0.01,0.05 -0.02,0.11 -0.02,0.17l-0.01 0.18c-0.01,0.05 -0.01,0.11 -0.01,0.18l-0 0.18c-0.03,-0.25 -0.03,-0.48 -0.01,-0.71 0.02,-0.25 0.1,-0.47 0.24,-0.67l0.05 -0.07 0.06 -0.07c0.01,-0.02 0.03,-0.04 0.06,-0.07l0.03 -0.03 0.03 -0.03c0.11,-0.1 0.21,-0.17 0.28,-0.21 0.19,-0.12 0.41,-0.2 0.66,-0.24l-0.08 0.03 -0.08 0.03c-0.06,0.02 -0.11,0.04 -0.16,0.07zm2.67 0.71c-0.21,-0.46 -0.54,-0.79 -0.98,-0.99 -0.4,-0.19 -0.84,-0.24 -1.3,-0.16 -0.46,0.08 -0.85,0.26 -1.17,0.56 -0.34,0.32 -0.54,0.71 -0.58,1.17 -0.08,0.86 0.05,1.71 0.4,2.53 0.15,0.37 0.33,0.66 0.52,0.87 0.21,0.22 0.41,0.32 0.61,0.29 0.28,-0.04 0.45,-0.2 0.51,-0.5 0.07,-0.33 0.02,-0.91 -0.13,-1.73 -0.12,-0.65 -0.05,-0.99 0.22,-1.03 0.15,-0.02 0.27,0.1 0.35,0.34 0.08,0.23 0.11,0.52 0.1,0.87 -0.03,0.77 0.06,1.32 0.25,1.63 0.14,0.23 0.36,0.34 0.64,0.32 0.24,-0.01 0.44,-0.17 0.61,-0.46 0.15,-0.27 0.26,-0.63 0.31,-1.07 0.06,-0.44 0.06,-0.89 0,-1.35 -0.06,-0.49 -0.18,-0.92 -0.35,-1.29z"/>
  <path id="_3" class="fil0" d="M18.9 0.85c-0.05,0.05 -0.1,0.1 -0.15,0.18 -0.08,0.1 -0.16,0.23 -0.26,0.39l-0.06 0.1 -0.06 0.1c-0.05,0.08 -0.09,0.14 -0.13,0.2 -0.06,0.08 -0.11,0.14 -0.16,0.18 -0.07,0.06 -0.14,0.1 -0.21,0.11 0.07,-0.03 0.13,-0.08 0.19,-0.14 0.04,-0.05 0.09,-0.11 0.14,-0.19 0.03,-0.05 0.07,-0.12 0.12,-0.21l0.12 -0.2c0.1,-0.17 0.19,-0.3 0.27,-0.39 0.06,-0.07 0.12,-0.13 0.17,-0.17 0.08,-0.06 0.16,-0.09 0.22,-0.08 -0.07,0.01 -0.13,0.05 -0.2,0.11zm-2.44 3.43c-0.06,0.05 -0.11,0.08 -0.15,0.11 -0.12,0.09 -0.21,0.17 -0.27,0.25 -0.04,0.05 -0.07,0.11 -0.09,0.16 -0.02,0.05 -0.04,0.11 -0.05,0.18 -0,-0.06 0,-0.13 0.02,-0.19 0.02,-0.06 0.05,-0.12 0.08,-0.18 0.06,-0.09 0.15,-0.18 0.27,-0.28 0.08,-0.06 0.19,-0.13 0.32,-0.21l0.08 -0.05 0.08 -0.05c0.06,-0.04 0.12,-0.07 0.16,-0.1 -0.07,0.08 -0.17,0.16 -0.29,0.25l-0.15 0.11zm-0.64 -3.1c-0.04,0.05 -0.06,0.11 -0.08,0.18 -0.02,0.06 -0.03,0.13 -0.03,0.21 -0.03,-0.07 -0.04,-0.14 -0.03,-0.22 0.01,-0.08 0.03,-0.15 0.08,-0.22 0.05,-0.07 0.11,-0.11 0.18,-0.14 0.07,-0.03 0.15,-0.04 0.22,-0.03 -0.15,0.03 -0.26,0.1 -0.35,0.22zm3.28 -0.74c-0.15,0 -0.3,0.07 -0.46,0.22 -0.11,0.11 -0.23,0.27 -0.37,0.48l-0.08 0.13 -0.04 0.06 -0.03 0.06c-0.06,0.1 -0.11,0.18 -0.14,0.22 -0.1,0.15 -0.17,0.22 -0.23,0.22 -0.06,0 -0.18,-0.1 -0.36,-0.3l-0.03 -0.04 -0.03 -0.04c-0.02,-0.03 -0.05,-0.05 -0.07,-0.07 -0.05,-0.06 -0.1,-0.11 -0.15,-0.16 -0.12,-0.12 -0.24,-0.23 -0.36,-0.33 -0.19,-0.15 -0.39,-0.23 -0.59,-0.23 -0.19,0 -0.35,0.06 -0.49,0.19 -0.14,0.13 -0.22,0.28 -0.25,0.47 -0.03,0.2 0.01,0.4 0.12,0.6 0.08,0.14 0.2,0.29 0.36,0.45 0.06,0.06 0.13,0.13 0.21,0.2l0.11 0.1 0.11 0.09c0.17,0.15 0.3,0.27 0.36,0.34 0.1,0.12 0.16,0.22 0.17,0.31 0.01,0.1 -0.05,0.2 -0.17,0.3 -0.05,0.04 -0.11,0.09 -0.2,0.14l-0.05 0.03 -0.06 0.04 -0.12 0.08c-0.19,0.13 -0.34,0.26 -0.44,0.38 -0.14,0.17 -0.21,0.36 -0.22,0.57 -0.01,0.16 0.02,0.31 0.09,0.45 0.07,0.14 0.16,0.25 0.29,0.33 0.28,0.19 0.63,0.22 1.05,0.09 0.56,-0.17 1.12,-0.66 1.68,-1.46 0.5,-0.72 0.82,-1.41 0.97,-2.06 0.14,-0.67 0.15,-1.16 0.02,-1.48 -0.11,-0.27 -0.31,-0.4 -0.6,-0.4z"/>
  <path id="_4" class="fil0" d="M23.36 3.77c-0.02,0.01 -0.05,0.03 -0.08,0.06l-0.04 0.03 -0.04 0.03c-0.07,0.05 -0.13,0.08 -0.2,0.09 -0.08,0.02 -0.15,0.02 -0.21,0.01 0.13,-0.03 0.25,-0.08 0.37,-0.16l0.04 -0.03 0.04 -0.03c0.04,-0.02 0.07,-0.04 0.1,-0.05 0.08,-0.03 0.15,-0.04 0.21,-0.03 -0.06,0.01 -0.13,0.04 -0.19,0.08zm-2.19 -2.53c-0.13,0.14 -0.25,0.3 -0.35,0.48 -0.09,0.15 -0.17,0.34 -0.24,0.56 0.04,-0.2 0.1,-0.4 0.19,-0.58 0.09,-0.19 0.2,-0.35 0.35,-0.5 0.15,-0.16 0.32,-0.27 0.51,-0.35 0.1,-0.04 0.2,-0.06 0.3,-0.08 0.11,-0.02 0.21,-0.02 0.3,-0.01 -0.22,0.02 -0.41,0.06 -0.58,0.14 -0.18,0.09 -0.34,0.21 -0.48,0.35zm3.01 2.93c-0.03,-0.39 -0.18,-0.64 -0.42,-0.74 -0.11,-0.04 -0.22,-0.05 -0.35,-0.02 -0.12,0.03 -0.24,0.09 -0.35,0.17 -0.11,0.08 -0.22,0.12 -0.34,0.11 -0.11,-0.01 -0.21,-0.06 -0.31,-0.16 -0.09,-0.1 -0.16,-0.22 -0.2,-0.37 -0.05,-0.17 -0.05,-0.34 -0.03,-0.53 0.04,-0.28 0.17,-0.43 0.4,-0.47 0.16,-0.02 0.39,0.02 0.69,0.12 0.13,0.05 0.25,0.04 0.36,-0.01 0.1,-0.05 0.18,-0.13 0.24,-0.24 0.05,-0.12 0.07,-0.25 0.05,-0.4 -0.02,-0.16 -0.09,-0.31 -0.19,-0.45 -0.23,-0.31 -0.53,-0.52 -0.9,-0.64 -0.34,-0.11 -0.69,-0.12 -1.04,-0.03 -0.45,0.11 -0.82,0.4 -1.12,0.87 -0.32,0.51 -0.48,1.14 -0.48,1.9 0,0.86 0.22,1.53 0.66,2.01 0.2,0.23 0.45,0.4 0.73,0.5 0.28,0.11 0.58,0.15 0.91,0.12 0.55,-0.05 0.99,-0.24 1.32,-0.59 0.31,-0.33 0.45,-0.71 0.41,-1.14z"/>
  <path id="_5" class="fil0" d="M27.1 1.64c-0.1,0.13 -0.2,0.24 -0.3,0.32 -0.13,0.11 -0.25,0.19 -0.37,0.24 0.1,-0.06 0.21,-0.15 0.33,-0.28 0.1,-0.1 0.19,-0.21 0.28,-0.33 0.05,-0.06 0.09,-0.12 0.13,-0.17l0.04 -0.05 0.03 -0.04c0.02,-0.04 0.05,-0.07 0.07,-0.09 0.05,-0.06 0.11,-0.1 0.18,-0.14 0.08,-0.04 0.15,-0.05 0.22,-0.04 -0.13,0.01 -0.25,0.08 -0.35,0.22 -0.02,0.02 -0.04,0.05 -0.06,0.09l-0.03 0.05 -0.03 0.05c-0.03,0.05 -0.08,0.11 -0.13,0.18zm-1.49 -0.84c-0.05,0.03 -0.1,0.08 -0.14,0.13 -0.07,0.08 -0.13,0.19 -0.19,0.34 -0.04,0.09 -0.08,0.21 -0.14,0.38l-0.06 0.2 -0.06 0.19c0.01,-0.16 0.03,-0.29 0.06,-0.4 0.03,-0.14 0.08,-0.27 0.13,-0.39 0.06,-0.15 0.14,-0.27 0.22,-0.35 0.05,-0.05 0.11,-0.1 0.17,-0.13 0.07,-0.03 0.14,-0.04 0.2,-0.04 -0.07,0.01 -0.13,0.03 -0.18,0.07zm1.7 2.21c-0.1,-0.06 -0.13,-0.11 -0.07,-0.15 0.02,-0.02 0.06,-0.04 0.12,-0.07l0.04 -0.02 0.05 -0.02c0.04,-0.02 0.08,-0.03 0.1,-0.05 0.19,-0.09 0.34,-0.2 0.46,-0.3 0.17,-0.16 0.3,-0.35 0.37,-0.57 0.07,-0.21 0.06,-0.4 -0.01,-0.59 -0.07,-0.17 -0.18,-0.3 -0.34,-0.38 -0.16,-0.08 -0.33,-0.1 -0.5,-0.05 -0.19,0.05 -0.36,0.18 -0.49,0.39 -0.23,0.35 -0.45,0.59 -0.66,0.72 -0.08,0.05 -0.14,0.07 -0.17,0.05 -0.03,-0.03 -0.02,-0.09 0.02,-0.18 0.18,-0.38 0.24,-0.69 0.17,-0.93 -0.06,-0.2 -0.19,-0.32 -0.4,-0.37 -0.43,-0.1 -0.77,0.11 -1,0.64 -0.19,0.43 -0.31,1.05 -0.37,1.87 -0.06,0.82 -0.02,1.48 0.11,1.98 0.16,0.61 0.44,0.91 0.84,0.89 0.37,-0.01 0.59,-0.29 0.65,-0.82 0.02,-0.18 0.02,-0.38 0,-0.61 -0.01,-0.08 -0.02,-0.16 -0.03,-0.24 -0,-0.03 -0.01,-0.06 -0.01,-0.09l-0 -0.04 -0 -0.02 0 -0.01c-0.01,-0.07 -0,-0.12 0.03,-0.14 0.03,-0.02 0.07,-0.01 0.13,0.03 0.14,0.12 0.27,0.41 0.39,0.87 0.08,0.3 0.19,0.54 0.34,0.73 0.14,0.17 0.3,0.29 0.47,0.35 0.17,0.05 0.33,0.05 0.49,-0.01 0.16,-0.06 0.3,-0.18 0.41,-0.34 0.12,-0.18 0.19,-0.39 0.19,-0.62 0.01,-0.22 -0.04,-0.45 -0.15,-0.68 -0.23,-0.49 -0.62,-0.89 -1.18,-1.21z"/>
  <path id="_6" class="fil0" d="M33.98 0.95c-0.03,0.03 -0.06,0.08 -0.08,0.15 -0.01,0.04 -0.03,0.1 -0.05,0.17l-0.02 0.09 -0.02 0.09c-0.01,-0.06 -0.02,-0.12 -0.02,-0.19 0,-0.07 0.01,-0.13 0.03,-0.19 0.03,-0.08 0.06,-0.13 0.11,-0.16 0.05,-0.04 0.12,-0.05 0.19,-0.03 -0.08,0.02 -0.13,0.04 -0.15,0.07zm-0.08 1.87c-0.04,0.08 -0.09,0.14 -0.16,0.17 -0.07,0.04 -0.15,0.05 -0.23,0.04 0.08,-0.02 0.14,-0.05 0.19,-0.09 0.06,-0.04 0.1,-0.09 0.13,-0.15 0.02,-0.05 0.04,-0.12 0.05,-0.2l0.02 -0.22c0.02,0.07 0.04,0.15 0.04,0.22 0,0.09 -0.01,0.16 -0.04,0.23zm-2.43 -1.96c-0.07,0.05 -0.13,0.13 -0.19,0.23 -0.05,0.09 -0.09,0.19 -0.12,0.28 -0.03,0.09 -0.06,0.19 -0.09,0.29 -0.04,0.15 -0.09,0.35 -0.14,0.6 -0.02,0.09 -0.03,0.19 -0.05,0.31l-0.05 0.3c0,-0.19 0.02,-0.4 0.05,-0.62 0.03,-0.21 0.06,-0.41 0.12,-0.61 0.07,-0.25 0.15,-0.44 0.24,-0.58 0.07,-0.11 0.14,-0.18 0.22,-0.23 0.1,-0.06 0.2,-0.09 0.3,-0.08 -0.1,0.01 -0.19,0.04 -0.28,0.11zm2.78 -0.27c-0.26,-0.03 -0.46,0.04 -0.58,0.22 -0.16,0.23 -0.19,0.62 -0.11,1.18 0.05,0.31 0.06,0.5 0.06,0.59 -0.01,0.1 -0.04,0.15 -0.1,0.15 -0.03,0 -0.07,-0.03 -0.11,-0.11 -0.03,-0.05 -0.06,-0.15 -0.11,-0.29l-0.02 -0.05 -0.02 -0.05 -0.03 -0.1c-0.03,-0.08 -0.05,-0.15 -0.08,-0.21 -0.07,-0.17 -0.13,-0.32 -0.19,-0.44 -0.2,-0.39 -0.44,-0.68 -0.7,-0.86 -0.32,-0.22 -0.63,-0.23 -0.94,-0.05 -0.25,0.15 -0.45,0.52 -0.6,1.1 -0.14,0.54 -0.2,1.14 -0.2,1.8 0,0.68 0.07,1.24 0.22,1.69 0.16,0.5 0.39,0.74 0.68,0.75 0.45,0 0.67,-0.31 0.66,-0.93 -0,-0.1 -0.01,-0.21 -0.03,-0.35 -0.01,-0.04 -0.01,-0.1 -0.02,-0.16l-0.01 -0.07 -0.01 -0.07c-0.02,-0.2 -0.02,-0.31 0.02,-0.32 0.03,-0.01 0.06,0 0.08,0.03 0.01,0.02 0.04,0.07 0.08,0.16 0.02,0.06 0.04,0.11 0.06,0.15 0.03,0.07 0.07,0.14 0.1,0.21 0.09,0.18 0.21,0.38 0.35,0.59 0.16,0.24 0.34,0.43 0.56,0.57 0.24,0.14 0.47,0.2 0.71,0.17 0.81,-0.11 1.24,-0.9 1.29,-2.36 0.03,-0.79 -0.05,-1.47 -0.24,-2.02 -0.19,-0.57 -0.44,-0.88 -0.77,-0.92z"/>
  <path id="_7" class="fil0" d="M36.64 1.89c-0.02,0.04 -0.04,0.06 -0.07,0.09 -0.03,0.02 -0.06,0.04 -0.1,0.04 0.06,-0.03 0.11,-0.08 0.14,-0.14 0.03,-0.05 0.04,-0.11 0.05,-0.2 0.02,0.07 0.01,0.14 -0.02,0.21zm-0.2 0.01c-0.04,0.01 -0.08,0 -0.11,-0.03 -0.04,-0.04 -0.06,-0.08 -0.07,-0.14 -0.01,-0.06 -0.01,-0.12 0.01,-0.17 0.02,-0.05 0.05,-0.08 0.09,-0.1 0.04,-0.01 0.08,0 0.11,0.03 0.04,0.03 0.06,0.08 0.07,0.14 0.01,0.06 0.01,0.12 -0.01,0.17 -0.02,0.05 -0.05,0.08 -0.09,0.1zm-0.49 -1.15c-0.05,0.06 -0.09,0.15 -0.12,0.24 -0.03,0.08 -0.05,0.17 -0.07,0.27 0,-0.04 0.01,-0.08 0.01,-0.14 0.01,-0.05 0.02,-0.09 0.03,-0.14 0.03,-0.1 0.07,-0.18 0.12,-0.25 0.06,-0.08 0.13,-0.15 0.21,-0.18 0.04,-0.02 0.09,-0.04 0.13,-0.04 0.05,-0.01 0.09,-0.01 0.14,-0.01 -0.1,0.01 -0.19,0.03 -0.26,0.07 -0.08,0.04 -0.14,0.1 -0.19,0.18zm0.63 -0.36c-0.29,-0.06 -0.52,0.02 -0.7,0.22 -0.15,0.18 -0.24,0.43 -0.25,0.74 -0.01,0.3 0.04,0.57 0.16,0.82 0.13,0.27 0.31,0.42 0.54,0.47 0.21,0.05 0.41,-0.03 0.58,-0.24 0.15,-0.19 0.26,-0.43 0.3,-0.73 0.05,-0.31 0.02,-0.58 -0.07,-0.81 -0.11,-0.26 -0.3,-0.42 -0.56,-0.47z"/>
  <path id="_8" class="fil0" d="M39.91 0.84c-0.07,0.03 -0.13,0.05 -0.18,0.08 -0.06,0.03 -0.11,0.07 -0.16,0.11 -0.11,0.08 -0.2,0.18 -0.26,0.29 -0.07,0.13 -0.11,0.26 -0.12,0.38 -0.02,-0.13 0,-0.27 0.06,-0.41 0.06,-0.12 0.14,-0.23 0.27,-0.32 0.12,-0.09 0.24,-0.15 0.37,-0.19 0.14,-0.04 0.27,-0.05 0.41,-0.03 -0.13,0.01 -0.26,0.04 -0.39,0.09zm1.41 0.45c-0.12,-0.3 -0.28,-0.52 -0.5,-0.66 -0.19,-0.12 -0.4,-0.18 -0.64,-0.16 -0.22,0.01 -0.43,0.07 -0.63,0.19 -0.2,0.11 -0.35,0.24 -0.45,0.4 -0.09,0.13 -0.15,0.27 -0.18,0.42 -0.03,0.14 -0.03,0.27 -0,0.39 0.03,0.12 0.09,0.21 0.17,0.27 0.09,0.07 0.2,0.09 0.33,0.07 0.16,-0.02 0.27,0.09 0.33,0.33 0.02,0.09 0.04,0.2 0.05,0.33 0.01,0.05 0.01,0.1 0.02,0.16l0 0.07 0 0.07c0.02,0.37 0.02,0.75 -0.02,1.14 -0.01,0.13 -0.02,0.28 -0.05,0.45l-0.01 0.1 -0.01 0.1c-0.01,0.07 -0.01,0.13 -0.02,0.18 -0.02,0.24 -0.02,0.41 0.01,0.51 0.04,0.13 0.13,0.21 0.27,0.26 0.27,0.08 0.53,-0.05 0.76,-0.39 0.21,-0.3 0.39,-0.73 0.52,-1.29 0.13,-0.53 0.19,-1.06 0.2,-1.6 0.01,-0.56 -0.05,-1 -0.17,-1.32z"/>
  <path id="_9" class="fil0" d="M3.44 11.88c-0.03,0 -0.07,0 -0.13,0.01l-0.07 0.01 -0.07 0c0.07,-0.06 0.16,-0.09 0.26,-0.09 0.05,0 0.1,0.01 0.14,0.02 0.05,0.02 0.08,0.05 0.11,0.08 -0.09,-0.03 -0.17,-0.04 -0.25,-0.04zm-2.16 -1.23c-0.06,0.06 -0.11,0.11 -0.16,0.17 -0.12,0.13 -0.21,0.25 -0.27,0.37 -0.08,0.13 -0.15,0.27 -0.19,0.42 -0.04,0.14 -0.06,0.3 -0.05,0.46l-0.02 -0.12 -0 -0.06 0 -0.06 0 -0.06 0 -0.06 0.01 -0.06 0.01 -0.06c0.03,-0.15 0.09,-0.3 0.17,-0.44 0.08,-0.14 0.18,-0.26 0.3,-0.37 0.06,-0.06 0.12,-0.11 0.18,-0.16l0.09 -0.07c0.04,-0.03 0.07,-0.05 0.1,-0.07l-0.09 0.08 -0.08 0.08zm0.38 -2.43c-0.07,0.03 -0.14,0.07 -0.21,0.1 -0.14,0.07 -0.27,0.16 -0.38,0.25 -0.12,0.09 -0.23,0.2 -0.33,0.32 -0.05,0.06 -0.09,0.13 -0.13,0.19 -0.04,0.07 -0.07,0.15 -0.08,0.22 -0.01,-0.13 0.05,-0.28 0.16,-0.44 0.09,-0.12 0.2,-0.24 0.33,-0.35 0.13,-0.1 0.27,-0.19 0.41,-0.24 0.08,-0.03 0.15,-0.06 0.22,-0.08 0.08,-0.02 0.16,-0.04 0.23,-0.05l-0.11 0.04c-0.04,0.01 -0.08,0.03 -0.11,0.04zm1.41 3.41c-0.21,0.08 -0.41,0.12 -0.59,0.1 -0.15,-0.01 -0.24,-0.04 -0.27,-0.1 -0.01,-0.03 -0.02,-0.06 -0.02,-0.09 -0,-0.04 0.01,-0.09 0.03,-0.13 0.06,-0.12 0.21,-0.26 0.44,-0.4 0.3,-0.18 0.55,-0.42 0.75,-0.7 0.2,-0.27 0.32,-0.56 0.38,-0.86 0.06,-0.31 0.04,-0.59 -0.07,-0.83 -0.12,-0.27 -0.32,-0.48 -0.61,-0.62 -0.35,-0.17 -0.72,-0.23 -1.11,-0.18 -0.34,0.05 -0.67,0.17 -0.98,0.37 -0.29,0.19 -0.5,0.42 -0.65,0.66 -0.14,0.25 -0.18,0.48 -0.1,0.67 0.08,0.19 0.23,0.3 0.44,0.33 0.22,0.03 0.49,-0.02 0.81,-0.17 0.17,-0.08 0.3,-0.13 0.37,-0.15 0.07,-0.01 0.12,-0 0.16,0.04 0.08,0.08 -0.02,0.2 -0.28,0.35 -0.5,0.29 -0.87,0.61 -1.12,0.95 -0.31,0.44 -0.41,0.91 -0.3,1.4 0.08,0.35 0.33,0.61 0.74,0.77 0.33,0.13 0.75,0.2 1.26,0.2 0.51,0 0.92,-0.07 1.25,-0.21 0.33,-0.14 0.52,-0.34 0.58,-0.6 0.03,-0.13 0.02,-0.25 -0.02,-0.38 -0.04,-0.13 -0.11,-0.24 -0.21,-0.33 -0.1,-0.1 -0.23,-0.16 -0.36,-0.18 -0.16,-0.02 -0.33,-0 -0.5,0.07z"/>
  <path id="_10" class="fil0" d="M7.01 11.43c-0.04,0.09 -0.1,0.15 -0.16,0.21 -0.07,0.06 -0.15,0.09 -0.24,0.1 0.14,-0.07 0.25,-0.19 0.33,-0.34 0.06,-0.12 0.1,-0.27 0.13,-0.47 0.04,0.17 0.02,0.34 -0.06,0.5zm-0.48 0.02c-0.09,0.03 -0.19,0 -0.27,-0.08 -0.09,-0.08 -0.15,-0.2 -0.18,-0.34 -0.03,-0.15 -0.02,-0.28 0.02,-0.41 0.05,-0.12 0.12,-0.2 0.21,-0.23 0.09,-0.03 0.18,0 0.27,0.08 0.09,0.08 0.15,0.2 0.18,0.34 0.03,0.15 0.02,0.28 -0.02,0.4 -0.05,0.12 -0.11,0.2 -0.2,0.23zm-1.17 -2.75c-0.11,0.15 -0.21,0.35 -0.29,0.58 -0.07,0.19 -0.12,0.4 -0.16,0.64 0,-0.09 0.01,-0.2 0.03,-0.33 0.02,-0.11 0.05,-0.22 0.08,-0.32 0.07,-0.23 0.16,-0.43 0.28,-0.61 0.14,-0.2 0.31,-0.35 0.5,-0.44 0.1,-0.05 0.21,-0.08 0.32,-0.11 0.12,-0.02 0.23,-0.02 0.33,-0.02 -0.24,0.02 -0.45,0.08 -0.63,0.17 -0.18,0.1 -0.34,0.25 -0.47,0.44zm1.51 -0.87c-0.7,-0.13 -1.26,0.04 -1.67,0.53 -0.37,0.43 -0.57,1.02 -0.61,1.76 -0.03,0.72 0.1,1.38 0.39,1.96 0.32,0.64 0.75,1.01 1.3,1.13 0.52,0.11 0.98,-0.08 1.38,-0.57 0.37,-0.45 0.61,-1.04 0.72,-1.76 0.11,-0.74 0.05,-1.38 -0.18,-1.94 -0.27,-0.63 -0.71,-1 -1.33,-1.12z"/>
  <path id="_11" class="fil0" d="M12.01 11.88c-0.03,0 -0.07,0 -0.13,0.01l-0.07 0.01 -0.07 0c0.07,-0.06 0.16,-0.09 0.26,-0.09 0.05,0 0.1,0.01 0.14,0.02 0.05,0.02 0.08,0.05 0.11,0.08 -0.09,-0.03 -0.17,-0.04 -0.25,-0.04zm-2.16 -1.23c-0.06,0.06 -0.11,0.11 -0.16,0.17 -0.12,0.13 -0.21,0.25 -0.27,0.37 -0.08,0.13 -0.15,0.27 -0.19,0.42 -0.04,0.14 -0.06,0.3 -0.05,0.46l-0.02 -0.12 -0 -0.06 0 -0.06 0 -0.06 0 -0.06 0.01 -0.06 0.01 -0.06c0.03,-0.15 0.09,-0.3 0.17,-0.44 0.08,-0.14 0.18,-0.26 0.3,-0.37 0.06,-0.06 0.12,-0.11 0.18,-0.16l0.09 -0.07c0.04,-0.03 0.07,-0.05 0.1,-0.07l-0.09 0.08 -0.08 0.08zm0.38 -2.43c-0.07,0.03 -0.14,0.07 -0.21,0.1 -0.14,0.07 -0.27,0.16 -0.38,0.25 -0.12,0.09 -0.23,0.2 -0.33,0.32 -0.05,0.06 -0.09,0.13 -0.13,0.19 -0.04,0.07 -0.07,0.15 -0.08,0.22 -0.01,-0.13 0.05,-0.28 0.16,-0.44 0.09,-0.12 0.2,-0.24 0.33,-0.35 0.13,-0.1 0.27,-0.19 0.41,-0.24 0.08,-0.03 0.15,-0.06 0.22,-0.08 0.08,-0.02 0.16,-0.04 0.23,-0.05l-0.11 0.04c-0.04,0.01 -0.08,0.03 -0.11,0.04zm1.41 3.41c-0.21,0.08 -0.41,0.12 -0.59,0.1 -0.15,-0.01 -0.24,-0.04 -0.27,-0.1 -0.01,-0.03 -0.02,-0.06 -0.02,-0.09 -0,-0.04 0.01,-0.09 0.03,-0.13 0.06,-0.12 0.21,-0.26 0.44,-0.4 0.3,-0.18 0.55,-0.42 0.75,-0.7 0.2,-0.27 0.32,-0.56 0.38,-0.86 0.06,-0.31 0.04,-0.59 -0.07,-0.83 -0.12,-0.27 -0.32,-0.48 -0.61,-0.62 -0.35,-0.17 -0.72,-0.23 -1.11,-0.18 -0.34,0.05 -0.67,0.17 -0.98,0.37 -0.29,0.19 -0.5,0.42 -0.65,0.66 -0.14,0.25 -0.18,0.48 -0.1,0.67 0.08,0.19 0.23,0.3 0.44,0.33 0.22,0.03 0.49,-0.02 0.81,-0.17 0.17,-0.08 0.3,-0.13 0.37,-0.15 0.07,-0.01 0.12,-0 0.16,0.04 0.08,0.08 -0.02,0.2 -0.28,0.35 -0.5,0.29 -0.87,0.61 -1.12,0.95 -0.31,0.44 -0.41,0.91 -0.3,1.4 0.08,0.35 0.33,0.61 0.74,0.77 0.33,0.13 0.75,0.2 1.26,0.2 0.51,0 0.92,-0.07 1.25,-0.21 0.33,-0.14 0.52,-0.34 0.58,-0.6 0.03,-0.13 0.02,-0.25 -0.02,-0.38 -0.04,-0.13 -0.11,-0.24 -0.21,-0.33 -0.1,-0.1 -0.23,-0.16 -0.36,-0.18 -0.16,-0.02 -0.33,-0 -0.5,0.07z"/>
  <path id="_12" class="fil0" d="M20.37 8.16c-0.11,0.03 -0.21,0.07 -0.31,0.11 -0.21,0.1 -0.39,0.23 -0.52,0.38 -0.06,0.07 -0.12,0.16 -0.16,0.27 -0.03,0.08 -0.07,0.19 -0.1,0.31 -0.03,0.1 -0.05,0.21 -0.06,0.32 -0.01,0.05 -0.02,0.1 -0.02,0.17l-0.01 0.16c-0.01,-0.24 0,-0.46 0.05,-0.67 0.05,-0.27 0.14,-0.48 0.26,-0.62 0.15,-0.16 0.34,-0.29 0.56,-0.38 0.1,-0.04 0.21,-0.07 0.32,-0.1 0.12,-0.02 0.23,-0.04 0.33,-0.04 -0.13,0.02 -0.24,0.05 -0.32,0.08zm2.19 0.49c-0.02,-0.22 -0.15,-0.41 -0.4,-0.57 -0.23,-0.15 -0.53,-0.25 -0.88,-0.29 -0.36,-0.04 -0.71,-0.01 -1.05,0.08 -0.38,0.11 -0.68,0.29 -0.92,0.54 -0.21,0.23 -0.35,0.61 -0.4,1.11 -0.05,0.47 -0.02,0.98 0.08,1.52 0.1,0.55 0.25,1.02 0.45,1.41 0.22,0.42 0.46,0.67 0.72,0.75 0.38,0.11 0.65,0.02 0.81,-0.29 0.14,-0.27 0.17,-0.63 0.08,-1.08 -0.01,-0.06 -0.03,-0.15 -0.05,-0.26 -0.01,-0.03 -0.02,-0.08 -0.03,-0.15l-0.02 -0.08 -0.02 -0.08c-0.06,-0.27 -0.11,-0.5 -0.14,-0.67 -0.09,-0.55 -0.07,-0.9 0.06,-1.04 0.06,-0.07 0.2,-0.11 0.41,-0.14 0.04,-0.01 0.08,-0.01 0.14,-0.01l0.15 -0.01c0.13,-0.01 0.23,-0.02 0.3,-0.03 0.24,-0.04 0.41,-0.1 0.52,-0.19 0.15,-0.12 0.21,-0.3 0.19,-0.53z"/>
  <path id="_13" class="fil0" d="M25.54 11.54c-0.05,0.07 -0.11,0.12 -0.18,0.15 -0.07,0.04 -0.14,0.06 -0.22,0.05 0.14,-0.05 0.25,-0.14 0.34,-0.25 0.08,-0.1 0.13,-0.24 0.16,-0.4 0.04,0.16 0,0.3 -0.09,0.44zm-0.79 -0.39c-0.02,-0.1 0,-0.19 0.05,-0.26 0.05,-0.08 0.11,-0.12 0.19,-0.14 0.08,-0.01 0.16,0.01 0.22,0.07 0.07,0.06 0.11,0.14 0.13,0.23 0.02,0.1 0,0.18 -0.05,0.26 -0.05,0.08 -0.11,0.12 -0.19,0.14 -0.08,0.01 -0.16,-0.01 -0.22,-0.07 -0.07,-0.06 -0.11,-0.14 -0.12,-0.23zm-0.2 -2.93c-0.19,0.08 -0.37,0.19 -0.52,0.33 -0.14,0.13 -0.27,0.29 -0.39,0.49l-0.04 0.07 -0.04 0.07 -0.07 0.14 -0.06 0.15 -0.06 0.15c0.04,-0.21 0.11,-0.41 0.21,-0.6 0.1,-0.2 0.23,-0.37 0.39,-0.51 0.17,-0.16 0.35,-0.27 0.55,-0.34 0.1,-0.03 0.2,-0.06 0.31,-0.07l0.08 -0.01 0.08 -0 0.16 0c-0.23,0.02 -0.43,0.06 -0.61,0.14zm1.27 -0.35c-0.78,-0.19 -1.43,-0.07 -1.96,0.39 -0.46,0.4 -0.75,0.96 -0.86,1.7 -0.11,0.72 -0.02,1.38 0.25,1.99 0.3,0.66 0.75,1.07 1.36,1.24 0.58,0.16 1.12,0.01 1.63,-0.45 0.46,-0.42 0.8,-0.98 0.99,-1.69 0.2,-0.72 0.2,-1.37 -0.02,-1.95 -0.24,-0.65 -0.71,-1.06 -1.41,-1.23z"/>
  <path id="_14" class="fil0" d="M31.44 11.35c-0.02,0.09 -0.07,0.16 -0.14,0.22 -0.07,0.05 -0.14,0.08 -0.23,0.1 -0.08,0.02 -0.17,0.02 -0.25,0 0.1,-0.02 0.18,-0.04 0.23,-0.06 0.09,-0.03 0.15,-0.06 0.2,-0.1 0.06,-0.05 0.1,-0.11 0.13,-0.18 0.02,-0.06 0.04,-0.13 0.06,-0.23 0.02,0.09 0.02,0.17 0,0.25zm-0.96 -0.1c-0.05,-0.09 -0.03,-0.23 0.05,-0.43 0.08,-0.2 0.17,-0.3 0.28,-0.3 0.12,0 0.22,0.11 0.29,0.32 0.03,0.09 0.05,0.17 0.05,0.25 0.01,0.09 -0.01,0.15 -0.03,0.19 -0.04,0.06 -0.14,0.09 -0.32,0.09 -0.17,-0 -0.28,-0.04 -0.32,-0.12zm-0.51 -2.47c-0.11,0.15 -0.2,0.33 -0.3,0.52 -0.07,0.15 -0.15,0.33 -0.23,0.55 0.04,-0.19 0.1,-0.38 0.18,-0.57 0.07,-0.18 0.17,-0.36 0.29,-0.53 0.13,-0.19 0.26,-0.34 0.4,-0.45 0.08,-0.06 0.17,-0.11 0.26,-0.16 0.1,-0.04 0.2,-0.06 0.29,-0.06 -0.17,0.02 -0.35,0.11 -0.52,0.26 -0.13,0.12 -0.26,0.27 -0.38,0.45zm-1.67 2.99c-0.06,0.03 -0.11,0.06 -0.15,0.1 -0.05,0.04 -0.08,0.09 -0.09,0.15 -0.01,-0.07 0.01,-0.13 0.06,-0.19 0.03,-0.04 0.08,-0.08 0.15,-0.12 0.12,-0.06 0.24,-0.09 0.36,-0.09l-0.08 0.04 -0.09 0.04c-0.07,0.03 -0.12,0.05 -0.16,0.08zm4.61 -0.45c-0.1,-0.03 -0.17,-0.07 -0.22,-0.12 -0.04,-0.05 -0.07,-0.12 -0.09,-0.22 -0.01,-0.05 -0.02,-0.17 -0.03,-0.35 -0.01,-0.09 -0.01,-0.17 -0.02,-0.23 -0.01,-0.09 -0.02,-0.19 -0.03,-0.28 -0.11,-0.75 -0.31,-1.34 -0.62,-1.75 -0.28,-0.38 -0.62,-0.58 -1.01,-0.59 -0.33,-0.01 -0.66,0.17 -0.98,0.54 -0.32,0.37 -0.57,0.85 -0.74,1.44 -0.07,0.23 -0.12,0.47 -0.16,0.71 -0.01,0.04 -0.02,0.08 -0.02,0.13l-0.01 0.06 -0.01 0.06c-0.01,0.1 -0.02,0.16 -0.03,0.2 -0.02,0.12 -0.06,0.21 -0.11,0.27 -0.05,0.06 -0.13,0.1 -0.25,0.13 -0.33,0.07 -0.56,0.19 -0.69,0.36 -0.12,0.15 -0.15,0.34 -0.09,0.55 0.08,0.31 0.43,0.55 1.03,0.73 0.54,0.16 1.2,0.25 2,0.27 0.73,0.02 1.29,-0.01 1.68,-0.07 0.58,-0.09 0.96,-0.29 1.12,-0.58 0.16,-0.27 0.17,-0.53 0.03,-0.77 -0.14,-0.23 -0.38,-0.4 -0.74,-0.5z"/>
  <path id="_15" class="fil0" d="M15.48 11.42c-0.01,0.06 -0.04,0.12 -0.08,0.18 -0.04,0.06 -0.09,0.1 -0.14,0.14 -0.07,0.04 -0.13,0.06 -0.19,0.07 0.13,-0.08 0.22,-0.17 0.27,-0.25 0.06,-0.08 0.1,-0.2 0.14,-0.34 0.01,0.06 0.01,0.13 -0,0.2zm-1.55 0.29c-0.07,0.01 -0.13,0.01 -0.18,0.02 -0.07,0.02 -0.12,0.04 -0.16,0.07 -0.04,0.03 -0.08,0.07 -0.12,0.14 0.01,-0.07 0.03,-0.13 0.08,-0.18 0.05,-0.05 0.11,-0.08 0.19,-0.1 0.07,-0.01 0.13,-0.01 0.2,-0.01 0.08,0.01 0.14,0.03 0.19,0.04 -0.06,0.01 -0.12,0.01 -0.19,0.01zm0.01 -3.25c-0.08,0.06 -0.14,0.11 -0.19,0.16 -0.03,0.03 -0.05,0.06 -0.08,0.1 -0.02,0.03 -0.04,0.06 -0.06,0.1 -0.03,0.07 -0.06,0.15 -0.08,0.24 -0.01,0.04 -0.02,0.08 -0.03,0.12l-0.03 0.13c0,-0.19 0.03,-0.36 0.08,-0.51 0.02,-0.05 0.04,-0.09 0.06,-0.12 0.03,-0.04 0.05,-0.07 0.08,-0.1 0.05,-0.06 0.11,-0.11 0.19,-0.18 0.14,-0.1 0.29,-0.17 0.47,-0.22 0.09,-0.02 0.17,-0.04 0.25,-0.05 0.11,-0.01 0.19,-0.02 0.25,-0.02 -0.2,0.04 -0.36,0.09 -0.49,0.13 -0.18,0.06 -0.32,0.14 -0.44,0.22zm1.59 1.24c-0.13,-0.03 -0.25,-0.05 -0.38,-0.06 -0.05,-0 -0.09,-0.01 -0.15,-0.01l-0.07 -0 -0.06 -0c-0.16,-0.01 -0.26,-0.04 -0.3,-0.09 -0.04,-0.05 -0.04,-0.11 -0.01,-0.19 0.03,-0.08 0.08,-0.14 0.16,-0.17 0.23,-0.11 0.57,-0.13 1.05,-0.04 0.2,0.04 0.36,0.01 0.5,-0.1 0.13,-0.1 0.21,-0.22 0.24,-0.38 0.03,-0.17 0,-0.32 -0.09,-0.46 -0.1,-0.15 -0.27,-0.26 -0.49,-0.32 -0.37,-0.1 -0.79,-0.11 -1.25,-0.03 -0.58,0.09 -1,0.32 -1.26,0.67 -0.16,0.22 -0.24,0.55 -0.24,0.98 0,0.44 0.09,0.75 0.26,0.94 0.1,0.12 0.23,0.2 0.38,0.24 0.11,0.04 0.25,0.06 0.42,0.06l0.1 0 0.1 0c0.08,0 0.15,0.01 0.2,0.01 0.14,0.01 0.26,0.05 0.35,0.1 0.13,0.08 0.19,0.19 0.2,0.34 0.01,0.14 -0.03,0.24 -0.14,0.3 -0.05,0.03 -0.1,0.05 -0.15,0.05 -0.08,0.01 -0.2,-0.01 -0.36,-0.06 -0.85,-0.24 -1.31,-0.06 -1.38,0.53 -0.03,0.27 0.06,0.51 0.28,0.72 0.21,0.2 0.49,0.34 0.84,0.43 0.36,0.09 0.72,0.1 1.08,0.04 0.39,-0.07 0.72,-0.22 0.99,-0.45 0.27,-0.24 0.46,-0.51 0.57,-0.84 0.1,-0.31 0.11,-0.62 0.04,-0.93 -0.08,-0.31 -0.23,-0.58 -0.47,-0.81 -0.25,-0.24 -0.57,-0.4 -0.96,-0.49z"/>
  <path class="fil1" d="M2.77 3.83c-0.04,0.09 -0.1,0.15 -0.19,0.19 -0.08,0.05 -0.17,0.06 -0.25,0.05 0.09,-0.02 0.16,-0.05 0.22,-0.09 0.07,-0.05 0.12,-0.11 0.15,-0.18 0.06,-0.13 0.08,-0.29 0.04,-0.48 0.05,0.07 0.07,0.16 0.08,0.25 0.01,0.09 -0.01,0.18 -0.05,0.26zm-0.7 -0.23c-0.04,-0.07 -0.06,-0.15 -0.05,-0.22 0.01,-0.07 0.04,-0.13 0.09,-0.16 0.05,-0.03 0.11,-0.03 0.18,0 0.07,0.03 0.12,0.08 0.17,0.16 0.04,0.07 0.06,0.15 0.05,0.22 -0.01,0.07 -0.04,0.13 -0.09,0.16 -0.05,0.03 -0.11,0.03 -0.18,0 -0.07,-0.03 -0.12,-0.08 -0.17,-0.16zm-0.33 -1.59c0.06,-0.02 0.12,-0.04 0.17,-0.07 0.05,-0.03 0.1,-0.07 0.14,-0.11 0.04,-0.04 0.08,-0.09 0.11,-0.14 0.03,-0.05 0.05,-0.1 0.08,-0.16 0.01,0.13 -0.03,0.25 -0.13,0.36 -0.05,0.05 -0.11,0.08 -0.17,0.11 -0.07,0.02 -0.13,0.03 -0.19,0.02zm-0.08 -0.55c0.03,-0.05 0.06,-0.09 0.11,-0.11 0.04,-0.02 0.08,-0.02 0.12,0 0.03,0.02 0.05,0.05 0.06,0.1 0.01,0.05 -0.01,0.1 -0.03,0.14 -0.03,0.05 -0.06,0.09 -0.11,0.11 -0.04,0.02 -0.08,0.02 -0.12,0 -0.03,-0.02 -0.05,-0.05 -0.06,-0.1 -0.01,-0.05 0.01,-0.1 0.03,-0.14zm-0.64 -0.68c-0.06,0.06 -0.12,0.14 -0.19,0.23 -0.1,0.14 -0.18,0.32 -0.27,0.53 -0.06,0.17 -0.12,0.36 -0.18,0.58 0.02,-0.2 0.06,-0.39 0.12,-0.6 0.06,-0.2 0.15,-0.39 0.26,-0.55 0.13,-0.19 0.27,-0.33 0.43,-0.43 0.1,-0.06 0.2,-0.1 0.28,-0.12 0.11,-0.02 0.21,-0.03 0.3,-0.03 -0.21,0.02 -0.39,0.08 -0.55,0.2 -0.08,0.06 -0.16,0.12 -0.22,0.19zm1.63 1.45c-0.04,-0.02 -0.05,-0.06 -0.03,-0.13 0.01,-0.02 0.03,-0.06 0.06,-0.11l0.02 -0.03 0.02 -0.03c0.01,-0.03 0.03,-0.05 0.04,-0.08 0.07,-0.14 0.12,-0.27 0.14,-0.4 0.04,-0.18 0.04,-0.37 0.01,-0.56 -0.03,-0.21 -0.16,-0.4 -0.36,-0.55 -0.21,-0.15 -0.45,-0.23 -0.72,-0.24 -0.3,-0.01 -0.57,0.08 -0.82,0.25 -0.29,0.2 -0.52,0.51 -0.68,0.93 -0.17,0.43 -0.27,0.9 -0.28,1.4 -0.02,0.52 0.05,0.99 0.21,1.42 0.17,0.47 0.41,0.83 0.74,1.08 0.36,0.28 0.8,0.4 1.32,0.37 0.49,-0.03 0.88,-0.19 1.17,-0.48 0.27,-0.26 0.41,-0.58 0.44,-0.97 0.03,-0.38 -0.07,-0.74 -0.28,-1.08 -0.23,-0.36 -0.56,-0.63 -0.99,-0.8z"/>
  <path id="_1_0" class="fil1" d="M6.83 3.92c-0.05,0.07 -0.11,0.12 -0.18,0.16 -0.08,0.04 -0.15,0.05 -0.23,0.03 0.16,-0.03 0.27,-0.1 0.35,-0.23 0.04,-0.05 0.06,-0.12 0.08,-0.19 0.01,-0.07 0.02,-0.14 0.02,-0.23 0.03,0.07 0.04,0.15 0.03,0.23 -0.01,0.08 -0.03,0.16 -0.08,0.23zm-0.67 -0.29c-0.04,-0.07 -0.05,-0.15 -0.04,-0.22 0.01,-0.07 0.04,-0.13 0.09,-0.15 0.06,-0.03 0.12,-0.02 0.18,0.01 0.07,0.03 0.12,0.09 0.16,0.16 0.04,0.08 0.05,0.15 0.04,0.22 -0.01,0.07 -0.04,0.12 -0.1,0.15 -0.05,0.03 -0.11,0.02 -0.17,-0.01 -0.07,-0.03 -0.12,-0.09 -0.16,-0.16zm-0.35 -3.16c-0.05,0.02 -0.1,0.06 -0.16,0.1 -0.09,0.07 -0.18,0.16 -0.26,0.27 -0.07,0.08 -0.14,0.18 -0.22,0.31 -0.03,0.04 -0.07,0.1 -0.11,0.16l-0.1 0.16c0.05,-0.14 0.1,-0.26 0.16,-0.36 0.06,-0.12 0.13,-0.23 0.22,-0.33 0.09,-0.11 0.19,-0.2 0.29,-0.27 0.13,-0.09 0.25,-0.13 0.37,-0.12 -0.06,0.01 -0.12,0.03 -0.18,0.06zm0.99 1.85c-0.13,-0.04 -0.21,-0.11 -0.25,-0.21 -0.03,-0.08 -0.03,-0.19 -0,-0.35 0.01,-0.03 0.01,-0.07 0.02,-0.11l0.02 -0.11c0.02,-0.1 0.03,-0.18 0.05,-0.24 0.03,-0.19 0.04,-0.37 0.02,-0.52 -0.03,-0.21 -0.11,-0.38 -0.24,-0.51 -0.13,-0.13 -0.29,-0.18 -0.48,-0.16 -0.2,0.02 -0.41,0.12 -0.61,0.31 -0.23,0.21 -0.44,0.52 -0.62,0.92 -0.19,0.42 -0.32,0.87 -0.37,1.35 -0.06,0.5 -0.03,0.96 0.08,1.38 0.12,0.46 0.33,0.82 0.63,1.07 0.33,0.28 0.75,0.42 1.26,0.42 0.48,-0.01 0.88,-0.15 1.2,-0.44 0.29,-0.26 0.47,-0.59 0.53,-0.98 0.06,-0.39 -0.01,-0.76 -0.21,-1.09 -0.22,-0.36 -0.56,-0.61 -1.01,-0.75zm1.58 -1.76c-0.04,0.04 -0.07,0.09 -0.09,0.14 -0.02,0.05 -0.03,0.11 -0.03,0.18 -0.01,0.09 0.01,0.22 0.03,0.38l0.04 0.19 0.03 0.19c-0.06,-0.14 -0.1,-0.26 -0.13,-0.37 -0.04,-0.15 -0.05,-0.28 -0.05,-0.39 0.01,-0.08 0.02,-0.14 0.04,-0.2 0.03,-0.07 0.07,-0.13 0.12,-0.17 0.1,-0.08 0.23,-0.11 0.38,-0.1 -0.14,0.02 -0.25,0.06 -0.34,0.14zm1.33 0.21c-0.11,-0.2 -0.25,-0.36 -0.42,-0.47 -0.15,-0.1 -0.32,-0.16 -0.5,-0.17 -0.17,-0.01 -0.32,0.02 -0.46,0.08 -0.14,0.07 -0.24,0.17 -0.31,0.29 -0.12,0.24 -0.12,0.59 0.01,1.05 0.02,0.07 0.05,0.17 0.08,0.29l0.05 0.15 0.05 0.14c0.07,0.23 0.11,0.42 0.13,0.58 0.04,0.37 0.06,0.75 0.05,1.14 -0,0.12 -0.01,0.27 -0.02,0.44l-0 0.1 -0 0.1c-0.01,0.07 -0.01,0.13 -0.01,0.18 -0.01,0.24 0.01,0.41 0.04,0.51 0.05,0.13 0.14,0.2 0.28,0.24 0.28,0.06 0.52,-0.08 0.74,-0.44 0.2,-0.32 0.35,-0.76 0.45,-1.32 0.1,-0.54 0.14,-1.07 0.11,-1.6 -0.03,-0.56 -0.12,-0.98 -0.28,-1.28z"/>
  <path id="_2_1" class="fil1" d="M11.76 0.59c-0.02,0.01 -0.05,0.02 -0.08,0.04l-0.08 0.04 -0.08 0.04c-0.03,0.02 -0.05,0.03 -0.07,0.05 -0.08,0.05 -0.17,0.12 -0.27,0.21 -0.1,0.1 -0.18,0.19 -0.22,0.26 -0.12,0.18 -0.2,0.39 -0.24,0.63 -0.01,0.05 -0.02,0.11 -0.02,0.17l-0.01 0.18c-0.01,0.05 -0.01,0.11 -0.01,0.18l-0 0.18c-0.03,-0.25 -0.03,-0.48 -0.01,-0.71 0.02,-0.25 0.1,-0.47 0.24,-0.67l0.05 -0.07 0.06 -0.07c0.01,-0.02 0.03,-0.04 0.06,-0.07l0.03 -0.03 0.03 -0.03c0.11,-0.1 0.21,-0.17 0.28,-0.21 0.19,-0.12 0.41,-0.2 0.66,-0.24l-0.08 0.03 -0.08 0.03c-0.06,0.02 -0.11,0.04 -0.16,0.07zm2.67 0.71c-0.21,-0.46 -0.54,-0.79 -0.98,-0.99 -0.4,-0.19 -0.84,-0.24 -1.3,-0.16 -0.46,0.08 -0.85,0.26 -1.17,0.56 -0.34,0.32 -0.54,0.71 -0.58,1.17 -0.08,0.86 0.05,1.71 0.4,2.53 0.15,0.37 0.33,0.66 0.52,0.87 0.21,0.22 0.41,0.32 0.61,0.29 0.28,-0.04 0.45,-0.2 0.51,-0.5 0.07,-0.33 0.02,-0.91 -0.13,-1.73 -0.12,-0.65 -0.05,-0.99 0.22,-1.03 0.15,-0.02 0.27,0.1 0.35,0.34 0.08,0.23 0.11,0.52 0.1,0.87 -0.03,0.77 0.06,1.32 0.25,1.63 0.14,0.23 0.36,0.34 0.64,0.32 0.24,-0.01 0.44,-0.17 0.61,-0.46 0.15,-0.27 0.26,-0.63 0.31,-1.07 0.06,-0.44 0.06,-0.89 0,-1.35 -0.06,-0.49 -0.18,-0.92 -0.35,-1.29z"/>
  <path id="_3_2" class="fil1" d="M18.69 0.51c-0.05,0.05 -0.1,0.1 -0.15,0.18 -0.08,0.1 -0.16,0.23 -0.26,0.39l-0.06 0.1 -0.06 0.1c-0.05,0.08 -0.09,0.14 -0.13,0.2 -0.06,0.08 -0.11,0.14 -0.16,0.18 -0.07,0.06 -0.14,0.1 -0.21,0.11 0.07,-0.03 0.13,-0.08 0.19,-0.14 0.04,-0.05 0.09,-0.11 0.14,-0.19 0.03,-0.05 0.07,-0.12 0.12,-0.21l0.12 -0.2c0.1,-0.17 0.19,-0.3 0.27,-0.39 0.06,-0.07 0.12,-0.13 0.17,-0.17 0.08,-0.06 0.16,-0.09 0.22,-0.08 -0.07,0.01 -0.13,0.05 -0.2,0.11zm-2.44 3.43c-0.06,0.05 -0.11,0.08 -0.15,0.11 -0.12,0.09 -0.21,0.17 -0.27,0.25 -0.04,0.05 -0.07,0.11 -0.09,0.16 -0.02,0.05 -0.04,0.11 -0.05,0.18 -0,-0.06 0,-0.13 0.02,-0.19 0.02,-0.06 0.05,-0.12 0.08,-0.18 0.06,-0.09 0.15,-0.18 0.27,-0.28 0.08,-0.06 0.19,-0.13 0.32,-0.21l0.08 -0.05 0.08 -0.05c0.06,-0.04 0.12,-0.07 0.16,-0.1 -0.07,0.08 -0.17,0.16 -0.29,0.25l-0.15 0.11zm-0.64 -3.1c-0.04,0.05 -0.06,0.11 -0.08,0.18 -0.02,0.06 -0.03,0.13 -0.03,0.21 -0.03,-0.07 -0.04,-0.14 -0.03,-0.22 0.01,-0.08 0.03,-0.15 0.08,-0.22 0.05,-0.07 0.11,-0.11 0.18,-0.14 0.07,-0.03 0.15,-0.04 0.22,-0.03 -0.15,0.03 -0.26,0.1 -0.35,0.22zm3.28 -0.74c-0.15,0 -0.3,0.07 -0.46,0.22 -0.11,0.11 -0.23,0.27 -0.37,0.48l-0.08 0.13 -0.04 0.06 -0.03 0.06c-0.06,0.1 -0.11,0.18 -0.14,0.22 -0.1,0.15 -0.17,0.22 -0.23,0.22 -0.06,0 -0.18,-0.1 -0.36,-0.3l-0.03 -0.04 -0.03 -0.04c-0.02,-0.03 -0.05,-0.05 -0.07,-0.07 -0.05,-0.06 -0.1,-0.11 -0.15,-0.16 -0.12,-0.12 -0.24,-0.23 -0.36,-0.33 -0.19,-0.15 -0.39,-0.23 -0.59,-0.23 -0.19,0 -0.35,0.06 -0.49,0.19 -0.14,0.13 -0.22,0.28 -0.25,0.47 -0.03,0.2 0.01,0.4 0.12,0.6 0.08,0.14 0.2,0.29 0.36,0.45 0.06,0.06 0.13,0.13 0.21,0.2l0.11 0.1 0.11 0.09c0.17,0.15 0.3,0.27 0.36,0.34 0.1,0.12 0.16,0.22 0.17,0.31 0.01,0.1 -0.05,0.2 -0.17,0.3 -0.05,0.04 -0.11,0.09 -0.2,0.14l-0.05 0.03 -0.06 0.04 -0.12 0.08c-0.19,0.13 -0.34,0.26 -0.44,0.38 -0.14,0.17 -0.21,0.36 -0.22,0.57 -0.01,0.16 0.02,0.31 0.09,0.45 0.07,0.14 0.16,0.25 0.29,0.33 0.28,0.19 0.63,0.22 1.05,0.09 0.56,-0.17 1.12,-0.66 1.68,-1.46 0.5,-0.72 0.82,-1.41 0.97,-2.06 0.14,-0.67 0.15,-1.16 0.02,-1.48 -0.11,-0.27 -0.31,-0.4 -0.6,-0.4z"/>
  <path id="_4_3" class="fil1" d="M23.16 3.43c-0.02,0.01 -0.05,0.03 -0.08,0.06l-0.04 0.03 -0.04 0.03c-0.07,0.05 -0.13,0.08 -0.2,0.09 -0.08,0.02 -0.15,0.02 -0.21,0.01 0.13,-0.03 0.25,-0.08 0.37,-0.16l0.04 -0.03 0.04 -0.03c0.04,-0.02 0.07,-0.04 0.1,-0.05 0.08,-0.03 0.15,-0.04 0.21,-0.03 -0.06,0.01 -0.13,0.04 -0.19,0.08zm-2.19 -2.53c-0.13,0.14 -0.25,0.3 -0.35,0.48 -0.09,0.15 -0.17,0.34 -0.24,0.56 0.04,-0.2 0.1,-0.4 0.19,-0.58 0.09,-0.19 0.2,-0.35 0.35,-0.5 0.15,-0.16 0.32,-0.27 0.51,-0.35 0.1,-0.04 0.2,-0.06 0.3,-0.08 0.11,-0.02 0.21,-0.02 0.3,-0.01 -0.22,0.02 -0.41,0.06 -0.58,0.14 -0.18,0.09 -0.34,0.21 -0.48,0.35zm3.01 2.93c-0.03,-0.39 -0.18,-0.64 -0.42,-0.74 -0.11,-0.04 -0.22,-0.05 -0.35,-0.02 -0.12,0.03 -0.24,0.09 -0.35,0.17 -0.11,0.08 -0.22,0.12 -0.34,0.11 -0.11,-0.01 -0.21,-0.06 -0.31,-0.16 -0.09,-0.1 -0.16,-0.22 -0.2,-0.37 -0.05,-0.17 -0.05,-0.34 -0.03,-0.53 0.04,-0.28 0.17,-0.43 0.4,-0.47 0.16,-0.02 0.39,0.02 0.69,0.12 0.13,0.05 0.25,0.04 0.36,-0.01 0.1,-0.05 0.18,-0.13 0.24,-0.24 0.05,-0.12 0.07,-0.25 0.05,-0.4 -0.02,-0.16 -0.09,-0.31 -0.19,-0.45 -0.23,-0.31 -0.53,-0.52 -0.9,-0.64 -0.34,-0.11 -0.69,-0.12 -1.04,-0.03 -0.45,0.11 -0.82,0.4 -1.12,0.87 -0.32,0.51 -0.48,1.14 -0.48,1.9 0,0.86 0.22,1.53 0.66,2.01 0.2,0.23 0.45,0.4 0.73,0.5 0.28,0.11 0.58,0.15 0.91,0.12 0.55,-0.05 0.99,-0.24 1.32,-0.59 0.31,-0.33 0.45,-0.71 0.41,-1.14z"/>
  <path id="_5_4" class="fil1" d="M26.89 1.31c-0.1,0.13 -0.2,0.24 -0.3,0.32 -0.13,0.11 -0.25,0.19 -0.37,0.24 0.1,-0.06 0.21,-0.15 0.33,-0.28 0.1,-0.1 0.19,-0.21 0.28,-0.33 0.05,-0.06 0.09,-0.12 0.13,-0.17l0.04 -0.05 0.03 -0.04c0.02,-0.04 0.05,-0.07 0.07,-0.09 0.05,-0.06 0.11,-0.1 0.18,-0.14 0.08,-0.04 0.15,-0.05 0.22,-0.04 -0.13,0.01 -0.25,0.08 -0.35,0.22 -0.02,0.02 -0.04,0.05 -0.06,0.09l-0.03 0.05 -0.03 0.05c-0.03,0.05 -0.08,0.11 -0.13,0.18zm-1.49 -0.84c-0.05,0.03 -0.1,0.08 -0.14,0.13 -0.07,0.08 -0.13,0.19 -0.19,0.34 -0.04,0.09 -0.08,0.21 -0.14,0.38l-0.06 0.2 -0.06 0.19c0.01,-0.16 0.03,-0.29 0.06,-0.4 0.03,-0.14 0.08,-0.27 0.13,-0.39 0.06,-0.15 0.14,-0.27 0.22,-0.35 0.05,-0.05 0.11,-0.1 0.17,-0.13 0.07,-0.03 0.14,-0.04 0.2,-0.04 -0.07,0.01 -0.13,0.03 -0.18,0.07zm1.7 2.21c-0.1,-0.06 -0.13,-0.11 -0.07,-0.15 0.02,-0.02 0.06,-0.04 0.12,-0.07l0.04 -0.02 0.05 -0.02c0.04,-0.02 0.08,-0.03 0.1,-0.05 0.19,-0.09 0.34,-0.2 0.46,-0.3 0.17,-0.16 0.3,-0.35 0.37,-0.57 0.07,-0.21 0.06,-0.4 -0.01,-0.59 -0.07,-0.17 -0.18,-0.3 -0.34,-0.38 -0.16,-0.08 -0.33,-0.1 -0.5,-0.05 -0.19,0.05 -0.36,0.18 -0.49,0.39 -0.23,0.35 -0.45,0.59 -0.66,0.72 -0.08,0.05 -0.14,0.07 -0.17,0.05 -0.03,-0.03 -0.02,-0.09 0.02,-0.18 0.18,-0.38 0.24,-0.69 0.17,-0.93 -0.06,-0.2 -0.19,-0.32 -0.4,-0.37 -0.43,-0.1 -0.77,0.11 -1,0.64 -0.19,0.43 -0.31,1.05 -0.37,1.87 -0.06,0.82 -0.02,1.48 0.11,1.98 0.16,0.61 0.44,0.91 0.84,0.89 0.37,-0.01 0.59,-0.29 0.65,-0.82 0.02,-0.18 0.02,-0.38 0,-0.61 -0.01,-0.08 -0.02,-0.16 -0.03,-0.24 -0,-0.03 -0.01,-0.06 -0.01,-0.09l-0 -0.04 -0 -0.02 0 -0.01c-0.01,-0.07 -0,-0.12 0.03,-0.14 0.03,-0.02 0.07,-0.01 0.13,0.03 0.14,0.12 0.27,0.41 0.39,0.87 0.08,0.3 0.19,0.54 0.34,0.73 0.14,0.17 0.3,0.29 0.47,0.35 0.17,0.05 0.33,0.05 0.49,-0.01 0.16,-0.06 0.3,-0.18 0.41,-0.34 0.12,-0.18 0.19,-0.39 0.19,-0.62 0.01,-0.22 -0.04,-0.45 -0.15,-0.68 -0.23,-0.49 -0.62,-0.89 -1.18,-1.21z"/>
  <path id="_6_5" class="fil1" d="M33.78 0.61c-0.03,0.03 -0.06,0.08 -0.08,0.15 -0.01,0.04 -0.03,0.1 -0.05,0.17l-0.02 0.09 -0.02 0.09c-0.01,-0.06 -0.02,-0.12 -0.02,-0.19 0,-0.07 0.01,-0.13 0.03,-0.19 0.03,-0.08 0.06,-0.13 0.11,-0.16 0.05,-0.04 0.12,-0.05 0.19,-0.03 -0.08,0.02 -0.13,0.04 -0.15,0.07zm-0.08 1.87c-0.04,0.08 -0.09,0.14 -0.16,0.17 -0.07,0.04 -0.15,0.05 -0.23,0.04 0.08,-0.02 0.14,-0.05 0.19,-0.09 0.06,-0.04 0.1,-0.09 0.13,-0.15 0.02,-0.05 0.04,-0.12 0.05,-0.2l0.02 -0.22c0.02,0.07 0.04,0.15 0.04,0.22 0,0.09 -0.01,0.16 -0.04,0.23zm-2.43 -1.96c-0.07,0.05 -0.13,0.13 -0.19,0.23 -0.05,0.09 -0.09,0.19 -0.12,0.28 -0.03,0.09 -0.06,0.19 -0.09,0.29 -0.04,0.15 -0.09,0.35 -0.14,0.6 -0.02,0.09 -0.03,0.19 -0.05,0.31l-0.05 0.3c0,-0.19 0.02,-0.4 0.05,-0.62 0.03,-0.21 0.06,-0.41 0.12,-0.61 0.07,-0.25 0.15,-0.44 0.24,-0.58 0.07,-0.11 0.14,-0.18 0.22,-0.23 0.1,-0.06 0.2,-0.09 0.3,-0.08 -0.1,0.01 -0.19,0.04 -0.28,0.11zm2.78 -0.27c-0.26,-0.03 -0.46,0.04 -0.58,0.22 -0.16,0.23 -0.19,0.62 -0.11,1.18 0.05,0.31 0.06,0.5 0.06,0.59 -0.01,0.1 -0.04,0.15 -0.1,0.15 -0.03,0 -0.07,-0.03 -0.11,-0.11 -0.03,-0.05 -0.06,-0.15 -0.11,-0.29l-0.02 -0.05 -0.02 -0.05 -0.03 -0.1c-0.03,-0.08 -0.05,-0.15 -0.08,-0.21 -0.07,-0.17 -0.13,-0.32 -0.19,-0.44 -0.2,-0.39 -0.44,-0.68 -0.7,-0.86 -0.32,-0.22 -0.63,-0.23 -0.94,-0.05 -0.25,0.15 -0.45,0.52 -0.6,1.1 -0.14,0.54 -0.2,1.14 -0.2,1.8 0,0.68 0.07,1.24 0.22,1.69 0.16,0.5 0.39,0.74 0.68,0.75 0.45,0 0.67,-0.31 0.66,-0.93 -0,-0.1 -0.01,-0.21 -0.03,-0.35 -0.01,-0.04 -0.01,-0.1 -0.02,-0.16l-0.01 -0.07 -0.01 -0.07c-0.02,-0.2 -0.02,-0.31 0.02,-0.32 0.03,-0.01 0.06,0 0.08,0.03 0.01,0.02 0.04,0.07 0.08,0.16 0.02,0.06 0.04,0.11 0.06,0.15 0.03,0.07 0.07,0.14 0.1,0.21 0.09,0.18 0.21,0.38 0.35,0.59 0.16,0.24 0.34,0.43 0.56,0.57 0.24,0.14 0.47,0.2 0.71,0.17 0.81,-0.11 1.24,-0.9 1.29,-2.36 0.03,-0.79 -0.05,-1.47 -0.24,-2.02 -0.19,-0.57 -0.44,-0.88 -0.77,-0.92z"/>
  <path id="_7_6" class="fil1" d="M36.44 1.56c-0.02,0.04 -0.04,0.06 -0.07,0.09 -0.03,0.02 -0.06,0.04 -0.1,0.04 0.06,-0.03 0.11,-0.08 0.14,-0.14 0.03,-0.05 0.04,-0.11 0.05,-0.2 0.02,0.07 0.01,0.14 -0.02,0.21zm-0.2 0.01c-0.04,0.01 -0.08,0 -0.11,-0.03 -0.04,-0.04 -0.06,-0.08 -0.07,-0.14 -0.01,-0.06 -0.01,-0.12 0.01,-0.17 0.02,-0.05 0.05,-0.08 0.09,-0.1 0.04,-0.01 0.08,0 0.11,0.03 0.04,0.03 0.06,0.08 0.07,0.14 0.01,0.06 0.01,0.12 -0.01,0.17 -0.02,0.05 -0.05,0.08 -0.09,0.1zm-0.49 -1.15c-0.05,0.06 -0.09,0.15 -0.12,0.24 -0.03,0.08 -0.05,0.17 -0.07,0.27 0,-0.04 0.01,-0.08 0.01,-0.14 0.01,-0.05 0.02,-0.09 0.03,-0.14 0.03,-0.1 0.07,-0.18 0.12,-0.25 0.06,-0.08 0.13,-0.15 0.21,-0.18 0.04,-0.02 0.09,-0.04 0.13,-0.04 0.05,-0.01 0.09,-0.01 0.14,-0.01 -0.1,0.01 -0.19,0.03 -0.26,0.07 -0.08,0.04 -0.14,0.1 -0.19,0.18zm0.63 -0.36c-0.29,-0.06 -0.52,0.02 -0.7,0.22 -0.15,0.18 -0.24,0.43 -0.25,0.74 -0.01,0.3 0.04,0.57 0.16,0.82 0.13,0.27 0.31,0.42 0.54,0.47 0.21,0.05 0.41,-0.03 0.58,-0.24 0.15,-0.19 0.26,-0.43 0.3,-0.73 0.05,-0.31 0.02,-0.58 -0.07,-0.81 -0.11,-0.26 -0.3,-0.42 -0.56,-0.47z"/>
  <path id="_8_7" class="fil1" d="M39.71 0.5c-0.07,0.03 -0.13,0.05 -0.18,0.08 -0.06,0.03 -0.11,0.07 -0.16,0.11 -0.11,0.08 -0.2,0.18 -0.26,0.29 -0.07,0.13 -0.11,0.26 -0.12,0.38 -0.02,-0.13 0,-0.27 0.06,-0.41 0.06,-0.12 0.14,-0.23 0.27,-0.32 0.12,-0.09 0.24,-0.15 0.37,-0.19 0.14,-0.04 0.27,-0.05 0.41,-0.03 -0.13,0.01 -0.26,0.04 -0.39,0.09zm1.41 0.45c-0.12,-0.3 -0.28,-0.52 -0.5,-0.66 -0.19,-0.12 -0.4,-0.18 -0.64,-0.16 -0.22,0.01 -0.43,0.07 -0.63,0.19 -0.2,0.11 -0.35,0.24 -0.45,0.4 -0.09,0.13 -0.15,0.27 -0.18,0.42 -0.03,0.14 -0.03,0.27 -0,0.39 0.03,0.12 0.09,0.21 0.17,0.27 0.09,0.07 0.2,0.09 0.33,0.07 0.16,-0.02 0.27,0.09 0.33,0.33 0.02,0.09 0.04,0.2 0.05,0.33 0.01,0.05 0.01,0.1 0.02,0.16l0 0.07 0 0.07c0.02,0.37 0.02,0.75 -0.02,1.14 -0.01,0.13 -0.02,0.28 -0.05,0.45l-0.01 0.1 -0.01 0.1c-0.01,0.07 -0.01,0.13 -0.02,0.18 -0.02,0.24 -0.02,0.41 0.01,0.51 0.04,0.13 0.13,0.21 0.27,0.26 0.27,0.08 0.53,-0.05 0.76,-0.39 0.21,-0.3 0.39,-0.73 0.52,-1.29 0.13,-0.53 0.19,-1.06 0.2,-1.6 0.01,-0.56 -0.05,-1 -0.17,-1.32z"/>
  <path id="_9_8" class="fil1" d="M3.24 11.54c-0.03,0 -0.07,0 -0.13,0.01l-0.07 0.01 -0.07 0c0.07,-0.06 0.16,-0.09 0.26,-0.09 0.05,0 0.1,0.01 0.14,0.02 0.05,0.02 0.08,0.05 0.11,0.08 -0.09,-0.03 -0.17,-0.04 -0.25,-0.04zm-2.16 -1.23c-0.06,0.06 -0.11,0.11 -0.16,0.17 -0.12,0.13 -0.21,0.25 -0.27,0.37 -0.08,0.13 -0.15,0.27 -0.19,0.42 -0.04,0.14 -0.06,0.3 -0.05,0.46l-0.02 -0.12 -0 -0.06 0 -0.06 0 -0.06 0 -0.06 0.01 -0.06 0.01 -0.06c0.03,-0.15 0.09,-0.3 0.17,-0.44 0.08,-0.14 0.18,-0.26 0.3,-0.37 0.06,-0.06 0.12,-0.11 0.18,-0.16l0.09 -0.07c0.04,-0.03 0.07,-0.05 0.1,-0.07l-0.09 0.08 -0.08 0.08zm0.38 -2.43c-0.07,0.03 -0.14,0.07 -0.21,0.1 -0.14,0.07 -0.27,0.16 -0.38,0.25 -0.12,0.09 -0.23,0.2 -0.33,0.32 -0.05,0.06 -0.09,0.13 -0.13,0.19 -0.04,0.07 -0.07,0.15 -0.08,0.22 -0.01,-0.13 0.05,-0.28 0.16,-0.44 0.09,-0.12 0.2,-0.24 0.33,-0.35 0.13,-0.1 0.27,-0.19 0.41,-0.24 0.08,-0.03 0.15,-0.06 0.22,-0.08 0.08,-0.02 0.16,-0.04 0.23,-0.05l-0.11 0.04c-0.04,0.01 -0.08,0.03 -0.11,0.04zm1.41 3.41c-0.21,0.08 -0.41,0.12 -0.59,0.1 -0.15,-0.01 -0.24,-0.04 -0.27,-0.1 -0.01,-0.03 -0.02,-0.06 -0.02,-0.09 -0,-0.04 0.01,-0.09 0.03,-0.13 0.06,-0.12 0.21,-0.26 0.44,-0.4 0.3,-0.18 0.55,-0.42 0.75,-0.7 0.2,-0.27 0.32,-0.56 0.38,-0.86 0.06,-0.31 0.04,-0.59 -0.07,-0.83 -0.12,-0.27 -0.32,-0.48 -0.61,-0.62 -0.35,-0.17 -0.72,-0.23 -1.11,-0.18 -0.34,0.05 -0.67,0.17 -0.98,0.37 -0.29,0.19 -0.5,0.42 -0.65,0.66 -0.14,0.25 -0.18,0.48 -0.1,0.67 0.08,0.19 0.23,0.3 0.44,0.33 0.22,0.03 0.49,-0.02 0.81,-0.17 0.17,-0.08 0.3,-0.13 0.37,-0.15 0.07,-0.01 0.12,-0 0.16,0.04 0.08,0.08 -0.02,0.2 -0.28,0.35 -0.5,0.29 -0.87,0.61 -1.12,0.95 -0.31,0.44 -0.41,0.91 -0.3,1.4 0.08,0.35 0.33,0.61 0.74,0.77 0.33,0.13 0.75,0.2 1.26,0.2 0.51,0 0.92,-0.07 1.25,-0.21 0.33,-0.14 0.52,-0.34 0.58,-0.6 0.03,-0.13 0.02,-0.25 -0.02,-0.38 -0.04,-0.13 -0.11,-0.24 -0.21,-0.33 -0.1,-0.1 -0.23,-0.16 -0.36,-0.18 -0.16,-0.02 -0.33,-0 -0.5,0.07z"/>
  <path id="_10_9" class="fil1" d="M6.8 11.09c-0.04,0.09 -0.1,0.15 -0.16,0.21 -0.07,0.06 -0.15,0.09 -0.24,0.1 0.14,-0.07 0.25,-0.19 0.33,-0.34 0.06,-0.12 0.1,-0.27 0.13,-0.47 0.04,0.17 0.02,0.34 -0.06,0.5zm-0.48 0.02c-0.09,0.03 -0.19,0 -0.27,-0.08 -0.09,-0.08 -0.15,-0.2 -0.18,-0.34 -0.03,-0.15 -0.02,-0.28 0.02,-0.41 0.05,-0.12 0.12,-0.2 0.21,-0.23 0.09,-0.03 0.18,0 0.27,0.08 0.09,0.08 0.15,0.2 0.18,0.34 0.03,0.15 0.02,0.28 -0.02,0.4 -0.05,0.12 -0.11,0.2 -0.2,0.23zm-1.17 -2.75c-0.11,0.15 -0.21,0.35 -0.29,0.58 -0.07,0.19 -0.12,0.4 -0.16,0.64 0,-0.09 0.01,-0.2 0.03,-0.33 0.02,-0.11 0.05,-0.22 0.08,-0.32 0.07,-0.23 0.16,-0.43 0.28,-0.61 0.14,-0.2 0.31,-0.35 0.5,-0.44 0.1,-0.05 0.21,-0.08 0.32,-0.11 0.12,-0.02 0.23,-0.02 0.33,-0.02 -0.24,0.02 -0.45,0.08 -0.63,0.17 -0.18,0.1 -0.34,0.25 -0.47,0.44zm1.51 -0.87c-0.7,-0.13 -1.26,0.04 -1.67,0.53 -0.37,0.43 -0.57,1.02 -0.61,1.76 -0.03,0.72 0.1,1.38 0.39,1.96 0.32,0.64 0.75,1.01 1.3,1.13 0.52,0.11 0.98,-0.08 1.38,-0.57 0.37,-0.45 0.61,-1.04 0.72,-1.76 0.11,-0.74 0.05,-1.38 -0.18,-1.94 -0.27,-0.63 -0.71,-1 -1.33,-1.12z"/>
  <path id="_11_10" class="fil1" d="M11.81 11.54c-0.03,0 -0.07,0 -0.13,0.01l-0.07 0.01 -0.07 0c0.07,-0.06 0.16,-0.09 0.26,-0.09 0.05,0 0.1,0.01 0.14,0.02 0.05,0.02 0.08,0.05 0.11,0.08 -0.09,-0.03 -0.17,-0.04 -0.25,-0.04zm-2.16 -1.23c-0.06,0.06 -0.11,0.11 -0.16,0.17 -0.12,0.13 -0.21,0.25 -0.27,0.37 -0.08,0.13 -0.15,0.27 -0.19,0.42 -0.04,0.14 -0.06,0.3 -0.05,0.46l-0.02 -0.12 -0 -0.06 0 -0.06 0 -0.06 0 -0.06 0.01 -0.06 0.01 -0.06c0.03,-0.15 0.09,-0.3 0.17,-0.44 0.08,-0.14 0.18,-0.26 0.3,-0.37 0.06,-0.06 0.12,-0.11 0.18,-0.16l0.09 -0.07c0.04,-0.03 0.07,-0.05 0.1,-0.07l-0.09 0.08 -0.08 0.08zm0.38 -2.43c-0.07,0.03 -0.14,0.07 -0.21,0.1 -0.14,0.07 -0.27,0.16 -0.38,0.25 -0.12,0.09 -0.23,0.2 -0.33,0.32 -0.05,0.06 -0.09,0.13 -0.13,0.19 -0.04,0.07 -0.07,0.15 -0.08,0.22 -0.01,-0.13 0.05,-0.28 0.16,-0.44 0.09,-0.12 0.2,-0.24 0.33,-0.35 0.13,-0.1 0.27,-0.19 0.41,-0.24 0.08,-0.03 0.15,-0.06 0.22,-0.08 0.08,-0.02 0.16,-0.04 0.23,-0.05l-0.11 0.04c-0.04,0.01 -0.08,0.03 -0.11,0.04zm1.41 3.41c-0.21,0.08 -0.41,0.12 -0.59,0.1 -0.15,-0.01 -0.24,-0.04 -0.27,-0.1 -0.01,-0.03 -0.02,-0.06 -0.02,-0.09 -0,-0.04 0.01,-0.09 0.03,-0.13 0.06,-0.12 0.21,-0.26 0.44,-0.4 0.3,-0.18 0.55,-0.42 0.75,-0.7 0.2,-0.27 0.32,-0.56 0.38,-0.86 0.06,-0.31 0.04,-0.59 -0.07,-0.83 -0.12,-0.27 -0.32,-0.48 -0.61,-0.62 -0.35,-0.17 -0.72,-0.23 -1.11,-0.18 -0.34,0.05 -0.67,0.17 -0.98,0.37 -0.29,0.19 -0.5,0.42 -0.65,0.66 -0.14,0.25 -0.18,0.48 -0.1,0.67 0.08,0.19 0.23,0.3 0.44,0.33 0.22,0.03 0.49,-0.02 0.81,-0.17 0.17,-0.08 0.3,-0.13 0.37,-0.15 0.07,-0.01 0.12,-0 0.16,0.04 0.08,0.08 -0.02,0.2 -0.28,0.35 -0.5,0.29 -0.87,0.61 -1.12,0.95 -0.31,0.44 -0.41,0.91 -0.3,1.4 0.08,0.35 0.33,0.61 0.74,0.77 0.33,0.13 0.75,0.2 1.26,0.2 0.51,0 0.92,-0.07 1.25,-0.21 0.33,-0.14 0.52,-0.34 0.58,-0.6 0.03,-0.13 0.02,-0.25 -0.02,-0.38 -0.04,-0.13 -0.11,-0.24 -0.21,-0.33 -0.1,-0.1 -0.23,-0.16 -0.36,-0.18 -0.16,-0.02 -0.33,-0 -0.5,0.07z"/>
  <path id="_12_11" class="fil1" d="M20.16 7.83c-0.11,0.03 -0.21,0.07 -0.31,0.11 -0.21,0.1 -0.39,0.23 -0.52,0.38 -0.06,0.07 -0.12,0.16 -0.16,0.27 -0.03,0.08 -0.07,0.19 -0.1,0.31 -0.03,0.1 -0.05,0.21 -0.06,0.32 -0.01,0.05 -0.02,0.1 -0.02,0.17l-0.01 0.16c-0.01,-0.24 0,-0.46 0.05,-0.67 0.05,-0.27 0.14,-0.48 0.26,-0.62 0.15,-0.16 0.34,-0.29 0.56,-0.38 0.1,-0.04 0.21,-0.07 0.32,-0.1 0.12,-0.02 0.23,-0.04 0.33,-0.04 -0.13,0.02 -0.24,0.05 -0.32,0.08zm2.19 0.49c-0.02,-0.22 -0.15,-0.41 -0.4,-0.57 -0.23,-0.15 -0.53,-0.25 -0.88,-0.29 -0.36,-0.04 -0.71,-0.01 -1.05,0.08 -0.38,0.11 -0.68,0.29 -0.92,0.54 -0.21,0.23 -0.35,0.61 -0.4,1.11 -0.05,0.47 -0.02,0.98 0.08,1.52 0.1,0.55 0.25,1.02 0.45,1.41 0.22,0.42 0.46,0.67 0.72,0.75 0.38,0.11 0.65,0.02 0.81,-0.29 0.14,-0.27 0.17,-0.63 0.08,-1.08 -0.01,-0.06 -0.03,-0.15 -0.05,-0.26 -0.01,-0.03 -0.02,-0.08 -0.03,-0.15l-0.02 -0.08 -0.02 -0.08c-0.06,-0.27 -0.11,-0.5 -0.14,-0.67 -0.09,-0.55 -0.07,-0.9 0.06,-1.04 0.06,-0.07 0.2,-0.11 0.41,-0.14 0.04,-0.01 0.08,-0.01 0.14,-0.01l0.15 -0.01c0.13,-0.01 0.23,-0.02 0.3,-0.03 0.24,-0.04 0.41,-0.1 0.52,-0.19 0.15,-0.12 0.21,-0.3 0.19,-0.53z"/>
  <path id="_13_12" class="fil1" d="M25.33 11.2c-0.05,0.07 -0.11,0.12 -0.18,0.15 -0.07,0.04 -0.14,0.06 -0.22,0.05 0.14,-0.05 0.25,-0.14 0.34,-0.25 0.08,-0.1 0.13,-0.24 0.16,-0.4 0.04,0.16 0,0.3 -0.09,0.44zm-0.79 -0.39c-0.02,-0.1 0,-0.19 0.05,-0.26 0.05,-0.08 0.11,-0.12 0.19,-0.14 0.08,-0.01 0.16,0.01 0.22,0.07 0.07,0.06 0.11,0.14 0.13,0.23 0.02,0.1 0,0.18 -0.05,0.26 -0.05,0.08 -0.11,0.12 -0.19,0.14 -0.08,0.01 -0.16,-0.01 -0.22,-0.07 -0.07,-0.06 -0.11,-0.14 -0.12,-0.23zm-0.2 -2.93c-0.19,0.08 -0.37,0.19 -0.52,0.33 -0.14,0.13 -0.27,0.29 -0.39,0.49l-0.04 0.07 -0.04 0.07 -0.07 0.14 -0.06 0.15 -0.06 0.15c0.04,-0.21 0.11,-0.41 0.21,-0.6 0.1,-0.2 0.23,-0.37 0.39,-0.51 0.17,-0.16 0.35,-0.27 0.55,-0.34 0.1,-0.03 0.2,-0.06 0.31,-0.07l0.08 -0.01 0.08 -0 0.16 0c-0.23,0.02 -0.43,0.06 -0.61,0.14zm1.27 -0.35c-0.78,-0.19 -1.43,-0.07 -1.96,0.39 -0.46,0.4 -0.75,0.96 -0.86,1.7 -0.11,0.72 -0.02,1.38 0.25,1.99 0.3,0.66 0.75,1.07 1.36,1.24 0.58,0.16 1.12,0.01 1.63,-0.45 0.46,-0.42 0.8,-0.98 0.99,-1.69 0.2,-0.72 0.2,-1.37 -0.02,-1.95 -0.24,-0.65 -0.71,-1.06 -1.41,-1.23z"/>
  <path id="_14_13" class="fil1" d="M31.23 11.01c-0.02,0.09 -0.07,0.16 -0.14,0.22 -0.07,0.05 -0.14,0.08 -0.23,0.1 -0.08,0.02 -0.17,0.02 -0.25,0 0.1,-0.02 0.18,-0.04 0.23,-0.06 0.09,-0.03 0.15,-0.06 0.2,-0.1 0.06,-0.05 0.1,-0.11 0.13,-0.18 0.02,-0.06 0.04,-0.13 0.06,-0.23 0.02,0.09 0.02,0.17 0,0.25zm-0.96 -0.1c-0.05,-0.09 -0.03,-0.23 0.05,-0.43 0.08,-0.2 0.17,-0.3 0.28,-0.3 0.12,0 0.22,0.11 0.29,0.32 0.03,0.09 0.05,0.17 0.05,0.25 0.01,0.09 -0.01,0.15 -0.03,0.19 -0.04,0.06 -0.14,0.09 -0.32,0.09 -0.17,-0 -0.28,-0.04 -0.32,-0.12zm-0.51 -2.47c-0.11,0.15 -0.2,0.33 -0.3,0.52 -0.07,0.15 -0.15,0.33 -0.23,0.55 0.04,-0.19 0.1,-0.38 0.18,-0.57 0.07,-0.18 0.17,-0.36 0.29,-0.53 0.13,-0.19 0.26,-0.34 0.4,-0.45 0.08,-0.06 0.17,-0.11 0.26,-0.16 0.1,-0.04 0.2,-0.06 0.29,-0.06 -0.17,0.02 -0.35,0.11 -0.52,0.26 -0.13,0.12 -0.26,0.27 -0.38,0.45zm-1.67 2.99c-0.06,0.03 -0.11,0.06 -0.15,0.1 -0.05,0.04 -0.08,0.09 -0.09,0.15 -0.01,-0.07 0.01,-0.13 0.06,-0.19 0.03,-0.04 0.08,-0.08 0.15,-0.12 0.12,-0.06 0.24,-0.09 0.36,-0.09l-0.08 0.04 -0.09 0.04c-0.07,0.03 -0.12,0.05 -0.16,0.08zm4.61 -0.45c-0.1,-0.03 -0.17,-0.07 -0.22,-0.12 -0.04,-0.05 -0.07,-0.12 -0.09,-0.22 -0.01,-0.05 -0.02,-0.17 -0.03,-0.35 -0.01,-0.09 -0.01,-0.17 -0.02,-0.23 -0.01,-0.09 -0.02,-0.19 -0.03,-0.28 -0.11,-0.75 -0.31,-1.34 -0.62,-1.75 -0.28,-0.38 -0.62,-0.58 -1.01,-0.59 -0.33,-0.01 -0.66,0.17 -0.98,0.54 -0.32,0.37 -0.57,0.85 -0.74,1.44 -0.07,0.23 -0.12,0.47 -0.16,0.71 -0.01,0.04 -0.02,0.08 -0.02,0.13l-0.01 0.06 -0.01 0.06c-0.01,0.1 -0.02,0.16 -0.03,0.2 -0.02,0.12 -0.06,0.21 -0.11,0.27 -0.05,0.06 -0.13,0.1 -0.25,0.13 -0.33,0.07 -0.56,0.19 -0.69,0.36 -0.12,0.15 -0.15,0.34 -0.09,0.55 0.08,0.31 0.43,0.55 1.03,0.73 0.54,0.16 1.2,0.25 2,0.27 0.73,0.02 1.29,-0.01 1.68,-0.07 0.58,-0.09 0.96,-0.29 1.12,-0.58 0.16,-0.27 0.17,-0.53 0.03,-0.77 -0.14,-0.23 -0.38,-0.4 -0.74,-0.5z"/>
  <path id="_15_14" class="fil1" d="M15.28 11.08c-0.01,0.06 -0.04,0.12 -0.08,0.18 -0.04,0.06 -0.09,0.1 -0.14,0.14 -0.07,0.04 -0.13,0.06 -0.19,0.07 0.13,-0.08 0.22,-0.17 0.27,-0.25 0.06,-0.08 0.1,-0.2 0.14,-0.34 0.01,0.06 0.01,0.13 -0,0.2zm-1.55 0.29c-0.07,0.01 -0.13,0.01 -0.18,0.02 -0.07,0.02 -0.12,0.04 -0.16,0.07 -0.04,0.03 -0.08,0.07 -0.12,0.14 0.01,-0.07 0.03,-0.13 0.08,-0.18 0.05,-0.05 0.11,-0.08 0.19,-0.1 0.07,-0.01 0.13,-0.01 0.2,-0.01 0.08,0.01 0.14,0.03 0.19,0.04 -0.06,0.01 -0.12,0.01 -0.19,0.01zm0.01 -3.25c-0.08,0.06 -0.14,0.11 -0.19,0.16 -0.03,0.03 -0.05,0.06 -0.08,0.1 -0.02,0.03 -0.04,0.06 -0.06,0.1 -0.03,0.07 -0.06,0.15 -0.08,0.24 -0.01,0.04 -0.02,0.08 -0.03,0.12l-0.03 0.13c0,-0.19 0.03,-0.36 0.08,-0.51 0.02,-0.05 0.04,-0.09 0.06,-0.12 0.03,-0.04 0.05,-0.07 0.08,-0.1 0.05,-0.06 0.11,-0.11 0.19,-0.18 0.14,-0.1 0.29,-0.17 0.47,-0.22 0.09,-0.02 0.17,-0.04 0.25,-0.05 0.11,-0.01 0.19,-0.02 0.25,-0.02 -0.2,0.04 -0.36,0.09 -0.49,0.13 -0.18,0.06 -0.32,0.14 -0.44,0.22zm1.59 1.24c-0.13,-0.03 -0.25,-0.05 -0.38,-0.06 -0.05,-0 -0.09,-0.01 -0.15,-0.01l-0.07 -0 -0.06 -0c-0.16,-0.01 -0.26,-0.04 -0.3,-0.09 -0.04,-0.05 -0.04,-0.11 -0.01,-0.19 0.03,-0.08 0.08,-0.14 0.16,-0.17 0.23,-0.11 0.57,-0.13 1.05,-0.04 0.2,0.04 0.36,0.01 0.5,-0.1 0.13,-0.1 0.21,-0.22 0.24,-0.38 0.03,-0.17 0,-0.32 -0.09,-0.46 -0.1,-0.15 -0.27,-0.26 -0.49,-0.32 -0.37,-0.1 -0.79,-0.11 -1.25,-0.03 -0.58,0.09 -1,0.32 -1.26,0.67 -0.16,0.22 -0.24,0.55 -0.24,0.98 0,0.44 0.09,0.75 0.26,0.94 0.1,0.12 0.23,0.2 0.38,0.24 0.11,0.04 0.25,0.06 0.42,0.06l0.1 0 0.1 0c0.08,0 0.15,0.01 0.2,0.01 0.14,0.01 0.26,0.05 0.35,0.1 0.13,0.08 0.19,0.19 0.2,0.34 0.01,0.14 -0.03,0.24 -0.14,0.3 -0.05,0.03 -0.1,0.05 -0.15,0.05 -0.08,0.01 -0.2,-0.01 -0.36,-0.06 -0.85,-0.24 -1.31,-0.06 -1.38,0.53 -0.03,0.27 0.06,0.51 0.28,0.72 0.21,0.2 0.49,0.34 0.84,0.43 0.36,0.09 0.72,0.1 1.08,0.04 0.39,-0.07 0.72,-0.22 0.99,-0.45 0.27,-0.24 0.46,-0.51 0.57,-0.84 0.1,-0.31 0.11,-0.62 0.04,-0.93 -0.08,-0.31 -0.23,-0.58 -0.47,-0.81 -0.25,-0.24 -0.57,-0.4 -0.96,-0.49z"/>
 </g>
</svg>
