<?xml version="1.0" encoding="UTF-8"?>
<!DOCTYPE svg PUBLIC "-//W3C//DTD SVG 1.1//EN" "http://www.w3.org/Graphics/SVG/1.1/DTD/svg11.dtd">
<!-- Creator: CorelDRAW -->
<svg xmlns="http://www.w3.org/2000/svg" xml:space="preserve" width="27.8225mm" height="8.6647mm" version="1.1" style="shape-rendering:geometricPrecision; text-rendering:geometricPrecision; image-rendering:optimizeQuality; fill-rule:evenodd; clip-rule:evenodd"
viewBox="0 0 44.22 13.77"
 xmlns:xlink="http://www.w3.org/1999/xlink"
 xmlns:xodm="http://www.corel.com/coreldraw/odm/2003">
 <defs>
  <style type="text/css">
   <![CDATA[
    .fil0 {fill:#969677;fill-rule:nonzero}
    .fil1 {fill:white;fill-rule:nonzero}
   ]]>
  </style>
 </defs>
 <g id="Слой_x0020_1">
  <metadata id="CorelCorpID_0Corel-Layer"/>
  <path class="fil0" d="M3.06 4.3c-0.04,0.09 -0.11,0.15 -0.19,0.2 -0.08,0.05 -0.17,0.06 -0.26,0.05 0.09,-0.02 0.17,-0.05 0.23,-0.09 0.07,-0.05 0.12,-0.11 0.16,-0.19 0.07,-0.14 0.08,-0.3 0.04,-0.49 0.05,0.08 0.07,0.16 0.08,0.26 0.01,0.09 -0.01,0.19 -0.05,0.27zm-0.72 -0.24c-0.04,-0.08 -0.06,-0.15 -0.05,-0.23 0.01,-0.08 0.04,-0.13 0.09,-0.16 0.05,-0.03 0.12,-0.03 0.18,0 0.07,0.03 0.13,0.09 0.17,0.16 0.04,0.08 0.06,0.15 0.05,0.23 -0.01,0.08 -0.04,0.13 -0.09,0.16 -0.05,0.03 -0.12,0.03 -0.18,0 -0.07,-0.03 -0.13,-0.09 -0.17,-0.16zm-0.34 -1.64c0.06,-0.02 0.12,-0.04 0.17,-0.07 0.05,-0.03 0.1,-0.07 0.14,-0.11 0.04,-0.04 0.08,-0.09 0.11,-0.15 0.03,-0.05 0.05,-0.11 0.08,-0.17 0.01,0.13 -0.03,0.26 -0.14,0.37 -0.05,0.05 -0.11,0.09 -0.17,0.11 -0.07,0.03 -0.13,0.03 -0.2,0.02zm-0.08 -0.57c0.03,-0.05 0.07,-0.09 0.11,-0.11 0.04,-0.02 0.09,-0.02 0.12,0 0.03,0.02 0.05,0.06 0.06,0.11 0.01,0.05 -0.01,0.1 -0.04,0.15 -0.03,0.05 -0.07,0.09 -0.11,0.11 -0.04,0.02 -0.08,0.02 -0.12,0 -0.03,-0.02 -0.05,-0.06 -0.06,-0.11 -0.01,-0.05 0.01,-0.1 0.03,-0.15zm-0.67 -0.7c-0.06,0.06 -0.13,0.14 -0.19,0.24 -0.1,0.15 -0.19,0.33 -0.27,0.55 -0.06,0.17 -0.13,0.37 -0.18,0.6 0.02,-0.2 0.06,-0.41 0.13,-0.61 0.07,-0.21 0.16,-0.4 0.27,-0.57 0.13,-0.2 0.28,-0.34 0.45,-0.44 0.11,-0.06 0.2,-0.1 0.29,-0.13 0.11,-0.02 0.21,-0.03 0.31,-0.03 -0.22,0.02 -0.4,0.09 -0.57,0.2 -0.09,0.06 -0.16,0.12 -0.23,0.2zm1.68 1.5c-0.04,-0.02 -0.05,-0.06 -0.03,-0.13 0.01,-0.02 0.03,-0.06 0.06,-0.11l0.02 -0.03 0.02 -0.03c0.01,-0.03 0.03,-0.06 0.04,-0.08 0.07,-0.14 0.12,-0.28 0.15,-0.41 0.04,-0.19 0.05,-0.38 0.01,-0.58 -0.04,-0.22 -0.16,-0.41 -0.38,-0.56 -0.22,-0.16 -0.46,-0.24 -0.74,-0.25 -0.31,-0.01 -0.59,0.08 -0.85,0.26 -0.3,0.21 -0.53,0.53 -0.7,0.96 -0.18,0.44 -0.27,0.93 -0.29,1.45 -0.02,0.53 0.06,1.02 0.22,1.47 0.17,0.49 0.43,0.86 0.76,1.12 0.38,0.29 0.83,0.42 1.36,0.38 0.51,-0.03 0.91,-0.2 1.2,-0.5 0.28,-0.27 0.42,-0.6 0.45,-1 0.03,-0.39 -0.07,-0.76 -0.29,-1.11 -0.24,-0.38 -0.58,-0.65 -1.02,-0.83z"/>
  <path id="_1" class="fil0" d="M7.26 4.39c-0.05,0.07 -0.11,0.13 -0.19,0.16 -0.08,0.04 -0.16,0.05 -0.24,0.03 0.16,-0.03 0.28,-0.11 0.36,-0.23 0.04,-0.05 0.07,-0.12 0.09,-0.2 0.01,-0.07 0.02,-0.15 0.02,-0.23 0.03,0.08 0.04,0.16 0.04,0.24 -0.01,0.09 -0.03,0.16 -0.08,0.23zm-0.69 -0.3c-0.04,-0.08 -0.05,-0.15 -0.04,-0.22 0.01,-0.08 0.04,-0.13 0.1,-0.16 0.06,-0.03 0.12,-0.02 0.18,0.01 0.07,0.03 0.12,0.09 0.16,0.17 0.04,0.08 0.05,0.15 0.04,0.23 -0.01,0.07 -0.04,0.12 -0.1,0.15 -0.05,0.03 -0.12,0.03 -0.18,-0.01 -0.07,-0.03 -0.12,-0.09 -0.16,-0.17zm-0.36 -3.26c-0.05,0.02 -0.1,0.06 -0.16,0.11 -0.09,0.08 -0.18,0.17 -0.27,0.28 -0.07,0.08 -0.15,0.19 -0.23,0.32 -0.03,0.04 -0.07,0.1 -0.11,0.17l-0.1 0.17c0.05,-0.15 0.11,-0.27 0.16,-0.37 0.07,-0.13 0.14,-0.24 0.22,-0.34 0.1,-0.12 0.2,-0.21 0.3,-0.28 0.13,-0.09 0.26,-0.13 0.38,-0.12 -0.06,0.01 -0.12,0.03 -0.18,0.06zm1.02 1.91c-0.13,-0.04 -0.22,-0.11 -0.25,-0.22 -0.03,-0.08 -0.03,-0.2 -0,-0.36 0.01,-0.03 0.01,-0.07 0.02,-0.11l0.02 -0.11c0.02,-0.1 0.04,-0.18 0.05,-0.24 0.03,-0.2 0.04,-0.38 0.02,-0.53 -0.03,-0.22 -0.11,-0.39 -0.25,-0.52 -0.14,-0.13 -0.3,-0.19 -0.5,-0.17 -0.21,0.02 -0.42,0.13 -0.63,0.32 -0.24,0.22 -0.45,0.54 -0.64,0.95 -0.2,0.43 -0.33,0.89 -0.38,1.39 -0.06,0.52 -0.03,0.99 0.09,1.42 0.13,0.47 0.34,0.84 0.65,1.11 0.34,0.29 0.77,0.44 1.3,0.43 0.5,-0.01 0.91,-0.16 1.24,-0.45 0.3,-0.27 0.48,-0.61 0.54,-1.02 0.06,-0.41 -0.01,-0.78 -0.22,-1.13 -0.23,-0.37 -0.57,-0.63 -1.04,-0.78zm1.63 -1.81c-0.04,0.04 -0.08,0.09 -0.1,0.15 -0.02,0.05 -0.03,0.12 -0.03,0.19 -0.01,0.1 0.01,0.23 0.03,0.39l0.04 0.19 0.04 0.2c-0.06,-0.14 -0.1,-0.27 -0.13,-0.38 -0.04,-0.15 -0.06,-0.29 -0.05,-0.4 0.01,-0.08 0.02,-0.15 0.04,-0.21 0.03,-0.08 0.07,-0.13 0.13,-0.17 0.11,-0.08 0.24,-0.11 0.39,-0.1 -0.15,0.02 -0.26,0.06 -0.35,0.15zm1.37 0.22c-0.11,-0.21 -0.25,-0.37 -0.43,-0.49 -0.16,-0.1 -0.33,-0.16 -0.51,-0.18 -0.17,-0.01 -0.33,0.02 -0.48,0.09 -0.15,0.07 -0.25,0.17 -0.32,0.3 -0.13,0.25 -0.12,0.61 0.01,1.09 0.02,0.08 0.05,0.18 0.09,0.3l0.05 0.15 0.05 0.15c0.07,0.24 0.11,0.44 0.13,0.6 0.04,0.38 0.06,0.77 0.05,1.18 -0,0.13 -0.01,0.28 -0.02,0.46l-0 0.1 -0 0.1c-0.01,0.07 -0.01,0.13 -0.01,0.18 -0.01,0.25 0.01,0.42 0.04,0.53 0.05,0.13 0.14,0.21 0.29,0.24 0.28,0.07 0.54,-0.09 0.77,-0.46 0.2,-0.33 0.36,-0.78 0.47,-1.36 0.1,-0.56 0.14,-1.11 0.12,-1.65 -0.03,-0.58 -0.12,-1.02 -0.29,-1.32z"/>
  <path id="_2" class="fil0" d="M12.34 0.95c-0.02,0.01 -0.05,0.02 -0.08,0.04l-0.08 0.04 -0.08 0.04c-0.03,0.02 -0.06,0.03 -0.07,0.05 -0.09,0.05 -0.18,0.13 -0.27,0.22 -0.11,0.11 -0.18,0.2 -0.23,0.27 -0.13,0.18 -0.21,0.4 -0.25,0.65 -0.01,0.05 -0.02,0.11 -0.02,0.18l-0.01 0.18c-0.01,0.05 -0.01,0.11 -0.01,0.18l-0 0.18c-0.03,-0.26 -0.03,-0.5 -0.01,-0.73 0.03,-0.26 0.11,-0.49 0.25,-0.69l0.05 -0.08 0.06 -0.07c0.01,-0.02 0.03,-0.04 0.06,-0.07l0.03 -0.03 0.03 -0.03c0.12,-0.1 0.22,-0.17 0.29,-0.22 0.2,-0.12 0.43,-0.21 0.68,-0.24l-0.09 0.03 -0.09 0.03c-0.06,0.02 -0.12,0.04 -0.16,0.07zm2.76 0.74c-0.22,-0.47 -0.56,-0.81 -1.01,-1.02 -0.42,-0.19 -0.86,-0.25 -1.34,-0.17 -0.47,0.08 -0.88,0.27 -1.2,0.58 -0.36,0.33 -0.55,0.73 -0.6,1.21 -0.08,0.89 0.05,1.76 0.41,2.61 0.16,0.38 0.34,0.68 0.54,0.89 0.21,0.23 0.42,0.33 0.63,0.3 0.29,-0.04 0.47,-0.21 0.53,-0.51 0.07,-0.34 0.02,-0.94 -0.14,-1.78 -0.13,-0.67 -0.05,-1.02 0.22,-1.06 0.15,-0.02 0.27,0.1 0.36,0.35 0.08,0.24 0.11,0.53 0.1,0.89 -0.03,0.8 0.06,1.36 0.26,1.68 0.15,0.24 0.37,0.35 0.66,0.33 0.25,-0.01 0.45,-0.17 0.63,-0.48 0.16,-0.28 0.27,-0.65 0.32,-1.1 0.06,-0.45 0.06,-0.92 0,-1.39 -0.06,-0.5 -0.18,-0.95 -0.36,-1.33z"/>
  <path id="_3" class="fil0" d="M19.5 0.88c-0.05,0.05 -0.1,0.11 -0.16,0.18 -0.08,0.1 -0.17,0.24 -0.27,0.41l-0.06 0.1 -0.06 0.11c-0.05,0.08 -0.09,0.15 -0.14,0.2 -0.06,0.08 -0.12,0.15 -0.16,0.19 -0.07,0.06 -0.15,0.1 -0.22,0.11 0.07,-0.03 0.14,-0.08 0.19,-0.14 0.04,-0.05 0.09,-0.11 0.14,-0.19 0.03,-0.05 0.07,-0.12 0.12,-0.21l0.13 -0.21c0.11,-0.18 0.2,-0.31 0.28,-0.41 0.06,-0.07 0.12,-0.13 0.18,-0.17 0.09,-0.06 0.16,-0.09 0.23,-0.09 -0.07,0.01 -0.14,0.05 -0.2,0.12zm-2.52 3.54c-0.06,0.05 -0.12,0.09 -0.16,0.12 -0.12,0.09 -0.21,0.18 -0.28,0.26 -0.04,0.05 -0.07,0.11 -0.1,0.16 -0.02,0.05 -0.04,0.11 -0.05,0.19 -0,-0.06 0,-0.13 0.02,-0.2 0.02,-0.06 0.05,-0.12 0.09,-0.19 0.06,-0.09 0.15,-0.19 0.28,-0.29 0.09,-0.07 0.2,-0.14 0.33,-0.22l0.09 -0.05 0.08 -0.05c0.07,-0.04 0.12,-0.08 0.16,-0.11 -0.07,0.08 -0.17,0.17 -0.3,0.26l-0.16 0.11zm-0.66 -3.2c-0.04,0.05 -0.07,0.12 -0.09,0.19 -0.02,0.06 -0.03,0.13 -0.03,0.22 -0.03,-0.07 -0.04,-0.15 -0.03,-0.23 0.01,-0.08 0.04,-0.15 0.09,-0.22 0.05,-0.07 0.11,-0.12 0.18,-0.15 0.08,-0.03 0.15,-0.04 0.23,-0.03 -0.15,0.03 -0.27,0.11 -0.36,0.22zm3.38 -0.76c-0.16,0 -0.31,0.07 -0.47,0.22 -0.11,0.11 -0.24,0.27 -0.38,0.49l-0.08 0.13 -0.04 0.07 -0.03 0.06c-0.06,0.1 -0.11,0.18 -0.14,0.23 -0.1,0.15 -0.18,0.23 -0.24,0.23 -0.06,0 -0.18,-0.1 -0.38,-0.31l-0.03 -0.04 -0.04 -0.04c-0.03,-0.03 -0.05,-0.05 -0.07,-0.08 -0.05,-0.06 -0.11,-0.12 -0.15,-0.17 -0.13,-0.13 -0.25,-0.24 -0.38,-0.34 -0.2,-0.16 -0.4,-0.24 -0.61,-0.24 -0.19,0 -0.36,0.06 -0.5,0.19 -0.14,0.13 -0.23,0.29 -0.26,0.49 -0.03,0.21 0.01,0.41 0.13,0.62 0.09,0.15 0.21,0.3 0.37,0.47 0.06,0.06 0.13,0.13 0.22,0.21l0.11 0.1 0.11 0.09c0.18,0.16 0.31,0.28 0.38,0.35 0.11,0.12 0.16,0.23 0.17,0.32 0.01,0.1 -0.05,0.2 -0.18,0.31 -0.05,0.04 -0.11,0.09 -0.2,0.15l-0.05 0.03 -0.06 0.04 -0.12 0.08c-0.2,0.14 -0.35,0.27 -0.45,0.39 -0.14,0.18 -0.22,0.37 -0.23,0.59 -0.01,0.17 0.02,0.32 0.09,0.46 0.07,0.14 0.17,0.25 0.3,0.34 0.29,0.19 0.65,0.23 1.09,0.09 0.58,-0.18 1.16,-0.68 1.74,-1.51 0.52,-0.74 0.85,-1.45 1,-2.12 0.15,-0.69 0.16,-1.19 0.02,-1.52 -0.11,-0.28 -0.32,-0.42 -0.62,-0.41z"/>
  <path id="_4" class="fil0" d="M24.11 3.89c-0.02,0.01 -0.05,0.03 -0.08,0.06l-0.04 0.03 -0.04 0.03c-0.07,0.05 -0.14,0.08 -0.2,0.1 -0.08,0.02 -0.15,0.02 -0.22,0.01 0.13,-0.03 0.26,-0.08 0.38,-0.16l0.04 -0.03 0.04 -0.03c0.04,-0.02 0.07,-0.04 0.1,-0.05 0.08,-0.03 0.15,-0.04 0.22,-0.03 -0.07,0.01 -0.13,0.04 -0.2,0.08zm-2.26 -2.61c-0.13,0.14 -0.26,0.31 -0.36,0.5 -0.09,0.16 -0.17,0.35 -0.25,0.58 0.04,-0.21 0.11,-0.41 0.2,-0.6 0.09,-0.19 0.21,-0.37 0.36,-0.52 0.16,-0.16 0.33,-0.28 0.53,-0.36 0.11,-0.04 0.21,-0.07 0.31,-0.08 0.11,-0.02 0.22,-0.02 0.31,-0.01 -0.23,0.02 -0.43,0.07 -0.6,0.14 -0.19,0.09 -0.35,0.21 -0.49,0.36zm3.11 3.03c-0.04,-0.41 -0.18,-0.66 -0.44,-0.76 -0.11,-0.04 -0.23,-0.05 -0.36,-0.02 -0.13,0.03 -0.25,0.09 -0.36,0.18 -0.11,0.09 -0.23,0.12 -0.35,0.11 -0.11,-0.01 -0.22,-0.06 -0.32,-0.16 -0.1,-0.1 -0.17,-0.23 -0.21,-0.38 -0.05,-0.17 -0.06,-0.35 -0.03,-0.55 0.04,-0.29 0.18,-0.45 0.41,-0.49 0.17,-0.03 0.41,0.02 0.71,0.13 0.13,0.05 0.25,0.04 0.37,-0.01 0.11,-0.05 0.19,-0.13 0.24,-0.25 0.05,-0.12 0.07,-0.26 0.05,-0.41 -0.02,-0.16 -0.09,-0.32 -0.2,-0.47 -0.24,-0.32 -0.55,-0.54 -0.93,-0.66 -0.35,-0.11 -0.71,-0.12 -1.07,-0.03 -0.46,0.11 -0.85,0.41 -1.15,0.89 -0.33,0.53 -0.5,1.18 -0.5,1.96 0,0.88 0.23,1.58 0.68,2.07 0.21,0.24 0.46,0.41 0.75,0.52 0.29,0.11 0.6,0.15 0.93,0.12 0.57,-0.05 1.02,-0.25 1.36,-0.61 0.32,-0.34 0.46,-0.74 0.42,-1.18z"/>
  <path id="_5" class="fil0" d="M27.96 1.69c-0.11,0.13 -0.21,0.24 -0.31,0.33 -0.13,0.12 -0.26,0.2 -0.38,0.24 0.1,-0.06 0.21,-0.16 0.34,-0.29 0.1,-0.1 0.2,-0.21 0.29,-0.34 0.05,-0.06 0.09,-0.12 0.13,-0.18l0.04 -0.05 0.03 -0.04c0.03,-0.04 0.05,-0.07 0.07,-0.09 0.05,-0.06 0.12,-0.11 0.18,-0.14 0.08,-0.04 0.15,-0.05 0.22,-0.04 -0.13,0.01 -0.25,0.09 -0.36,0.22 -0.02,0.02 -0.04,0.05 -0.06,0.09l-0.03 0.05 -0.03 0.05c-0.04,0.05 -0.08,0.11 -0.14,0.19zm-1.54 -0.86c-0.05,0.03 -0.1,0.08 -0.15,0.14 -0.07,0.08 -0.13,0.2 -0.2,0.35 -0.04,0.09 -0.09,0.22 -0.14,0.39l-0.06 0.2 -0.06 0.2c0.01,-0.16 0.03,-0.3 0.06,-0.42 0.03,-0.15 0.08,-0.28 0.13,-0.4 0.07,-0.16 0.14,-0.28 0.22,-0.36 0.05,-0.06 0.11,-0.1 0.17,-0.13 0.07,-0.03 0.14,-0.05 0.21,-0.04 -0.07,0.01 -0.13,0.03 -0.19,0.07zm1.76 2.28c-0.1,-0.06 -0.13,-0.11 -0.07,-0.16 0.02,-0.02 0.06,-0.05 0.13,-0.08l0.04 -0.02 0.05 -0.02c0.04,-0.02 0.08,-0.03 0.11,-0.05 0.2,-0.1 0.35,-0.2 0.47,-0.31 0.18,-0.17 0.31,-0.36 0.38,-0.59 0.07,-0.21 0.06,-0.41 -0.01,-0.61 -0.07,-0.18 -0.19,-0.31 -0.35,-0.39 -0.17,-0.09 -0.34,-0.1 -0.52,-0.06 -0.2,0.06 -0.37,0.19 -0.51,0.4 -0.24,0.36 -0.46,0.61 -0.68,0.74 -0.09,0.05 -0.14,0.07 -0.18,0.05 -0.03,-0.03 -0.02,-0.09 0.02,-0.19 0.19,-0.39 0.25,-0.71 0.18,-0.96 -0.06,-0.2 -0.2,-0.33 -0.42,-0.39 -0.45,-0.1 -0.79,0.12 -1.03,0.67 -0.2,0.44 -0.32,1.08 -0.38,1.93 -0.06,0.85 -0.02,1.53 0.12,2.05 0.16,0.63 0.45,0.93 0.87,0.92 0.38,-0.01 0.61,-0.3 0.67,-0.85 0.02,-0.19 0.02,-0.4 0,-0.63 -0.01,-0.08 -0.02,-0.16 -0.03,-0.24 -0,-0.03 -0.01,-0.06 -0.01,-0.09l-0 -0.04 -0 -0.02 0 -0.01c-0.01,-0.07 -0,-0.12 0.03,-0.15 0.03,-0.03 0.07,-0.01 0.13,0.03 0.14,0.12 0.28,0.42 0.4,0.9 0.08,0.31 0.2,0.56 0.35,0.76 0.14,0.18 0.31,0.3 0.48,0.36 0.17,0.05 0.34,0.05 0.51,-0.01 0.17,-0.07 0.31,-0.18 0.42,-0.35 0.13,-0.19 0.19,-0.4 0.2,-0.64 0.01,-0.23 -0.05,-0.46 -0.15,-0.71 -0.23,-0.51 -0.64,-0.92 -1.21,-1.24z"/>
  <path id="_6" class="fil0" d="M35.07 0.98c-0.03,0.03 -0.06,0.08 -0.08,0.15 -0.01,0.04 -0.03,0.1 -0.05,0.18l-0.02 0.09 -0.02 0.09c-0.01,-0.06 -0.02,-0.12 -0.02,-0.19 0,-0.07 0.01,-0.13 0.03,-0.19 0.03,-0.08 0.07,-0.14 0.11,-0.17 0.05,-0.04 0.12,-0.05 0.2,-0.03 -0.08,0.02 -0.13,0.05 -0.16,0.07zm-0.08 1.93c-0.04,0.08 -0.1,0.14 -0.17,0.18 -0.07,0.04 -0.15,0.06 -0.23,0.04 0.08,-0.02 0.15,-0.05 0.2,-0.09 0.06,-0.04 0.1,-0.1 0.13,-0.16 0.03,-0.05 0.04,-0.12 0.05,-0.21l0.02 -0.23c0.02,0.08 0.04,0.15 0.04,0.23 0,0.09 -0.01,0.17 -0.04,0.24zm-2.51 -2.02c-0.07,0.05 -0.13,0.13 -0.19,0.24 -0.05,0.1 -0.09,0.19 -0.13,0.29 -0.03,0.09 -0.07,0.19 -0.09,0.3 -0.04,0.16 -0.09,0.36 -0.14,0.62 -0.02,0.09 -0.03,0.2 -0.05,0.32l-0.05 0.31c0,-0.2 0.02,-0.41 0.05,-0.64 0.03,-0.21 0.07,-0.42 0.12,-0.63 0.08,-0.26 0.16,-0.46 0.24,-0.6 0.07,-0.11 0.14,-0.19 0.22,-0.24 0.11,-0.06 0.21,-0.09 0.31,-0.08 -0.1,0.01 -0.2,0.05 -0.29,0.11zm2.87 -0.28c-0.27,-0.03 -0.47,0.04 -0.6,0.23 -0.16,0.24 -0.2,0.64 -0.12,1.22 0.05,0.32 0.07,0.52 0.06,0.61 -0.01,0.1 -0.04,0.15 -0.11,0.16 -0.04,0 -0.07,-0.03 -0.11,-0.11 -0.03,-0.05 -0.07,-0.16 -0.12,-0.3l-0.02 -0.05 -0.02 -0.05 -0.03 -0.1c-0.03,-0.08 -0.05,-0.16 -0.08,-0.22 -0.07,-0.17 -0.13,-0.33 -0.2,-0.46 -0.21,-0.41 -0.45,-0.7 -0.72,-0.89 -0.33,-0.23 -0.65,-0.24 -0.97,-0.05 -0.26,0.16 -0.46,0.54 -0.61,1.13 -0.14,0.55 -0.21,1.17 -0.21,1.86 0,0.7 0.08,1.28 0.23,1.74 0.17,0.51 0.4,0.77 0.7,0.77 0.47,0 0.69,-0.32 0.68,-0.96 -0,-0.1 -0.01,-0.22 -0.03,-0.36 -0.01,-0.04 -0.01,-0.1 -0.02,-0.17l-0.01 -0.07 -0.01 -0.08c-0.02,-0.21 -0.02,-0.32 0.02,-0.33 0.03,-0.01 0.06,0 0.08,0.03 0.01,0.02 0.04,0.07 0.08,0.17 0.02,0.06 0.05,0.11 0.07,0.15 0.03,0.07 0.07,0.14 0.11,0.21 0.1,0.19 0.21,0.39 0.36,0.61 0.16,0.25 0.36,0.44 0.58,0.58 0.25,0.15 0.49,0.2 0.73,0.17 0.84,-0.12 1.28,-0.93 1.33,-2.43 0.03,-0.82 -0.05,-1.51 -0.24,-2.08 -0.19,-0.59 -0.46,-0.91 -0.79,-0.95z"/>
  <path id="_7" class="fil0" d="M37.81 1.95c-0.02,0.04 -0.04,0.07 -0.07,0.09 -0.03,0.03 -0.07,0.04 -0.1,0.04 0.06,-0.03 0.11,-0.08 0.14,-0.15 0.03,-0.05 0.04,-0.12 0.05,-0.2 0.02,0.07 0.01,0.15 -0.02,0.22zm-0.21 0.01c-0.04,0.01 -0.08,0 -0.12,-0.04 -0.04,-0.04 -0.06,-0.09 -0.08,-0.15 -0.01,-0.06 -0.01,-0.12 0.01,-0.17 0.02,-0.05 0.05,-0.09 0.09,-0.1 0.04,-0.01 0.08,0 0.12,0.04 0.04,0.04 0.06,0.08 0.08,0.15 0.01,0.06 0.01,0.12 -0.01,0.17 -0.02,0.05 -0.05,0.09 -0.09,0.1zm-0.5 -1.18c-0.05,0.07 -0.09,0.15 -0.13,0.25 -0.03,0.08 -0.05,0.17 -0.07,0.28 0,-0.04 0.01,-0.08 0.01,-0.14 0.01,-0.05 0.02,-0.09 0.03,-0.14 0.03,-0.1 0.07,-0.19 0.12,-0.26 0.06,-0.09 0.13,-0.15 0.22,-0.19 0.04,-0.02 0.09,-0.04 0.14,-0.05 0.05,-0.01 0.1,-0.01 0.14,-0.01 -0.11,0.01 -0.2,0.03 -0.27,0.07 -0.08,0.04 -0.15,0.11 -0.2,0.19zm0.65 -0.37c-0.3,-0.06 -0.54,0.02 -0.72,0.23 -0.16,0.19 -0.25,0.44 -0.26,0.76 -0.01,0.31 0.04,0.59 0.17,0.85 0.14,0.27 0.32,0.44 0.56,0.49 0.22,0.05 0.42,-0.03 0.59,-0.25 0.16,-0.19 0.26,-0.45 0.31,-0.76 0.05,-0.32 0.02,-0.6 -0.08,-0.84 -0.11,-0.27 -0.31,-0.43 -0.57,-0.48z"/>
  <path id="_8" class="fil0" d="M42.7 1.84c0.02,0.21 0,0.38 -0.05,0.52 -0.03,0.09 -0.07,0.17 -0.13,0.24 -0.06,0.07 -0.13,0.12 -0.22,0.15 0.15,-0.08 0.25,-0.22 0.29,-0.4 0.03,-0.14 0.04,-0.31 0.02,-0.5 -0.01,-0.2 -0.02,-0.37 -0.01,-0.52 0.01,-0.1 0.03,-0.19 0.04,-0.26 0.03,-0.11 0.07,-0.19 0.12,-0.23 -0.04,0.06 -0.07,0.14 -0.08,0.24 -0.01,0.08 -0.02,0.16 -0.02,0.26 0,0.17 0.01,0.34 0.02,0.52zm-1.87 -0.81c-0.05,0.08 -0.11,0.17 -0.15,0.28 -0.03,0.07 -0.07,0.17 -0.11,0.31l-0.04 0.16 -0.05 0.16c0,-0.13 0.01,-0.24 0.03,-0.33 0.02,-0.12 0.06,-0.23 0.1,-0.33 0.05,-0.12 0.11,-0.21 0.18,-0.29 0.05,-0.05 0.09,-0.09 0.13,-0.11 0.06,-0.03 0.11,-0.04 0.16,-0.04 -0.08,0.01 -0.17,0.08 -0.25,0.19zm3.34 2.03c-0.02,-0.79 -0.12,-1.41 -0.3,-1.85 -0.21,-0.5 -0.52,-0.74 -0.92,-0.74 -0.47,0.01 -0.66,0.48 -0.58,1.42 0.02,0.21 -0,0.37 -0.06,0.47 -0.05,0.1 -0.14,0.14 -0.25,0.14 -0.12,-0 -0.21,-0.05 -0.26,-0.15 -0.05,-0.09 -0.07,-0.24 -0.07,-0.44 0.02,-0.5 -0.02,-0.86 -0.14,-1.07 -0.1,-0.2 -0.27,-0.3 -0.52,-0.3 -0.22,0 -0.42,0.13 -0.58,0.37 -0.16,0.25 -0.27,0.57 -0.32,0.98 -0.06,0.45 -0.06,0.83 0.02,1.15 0.06,0.26 0.17,0.51 0.34,0.72 0.18,0.24 0.44,0.37 0.78,0.39 0.11,0.01 0.23,0.01 0.38,-0 0.02,-0 0.05,-0.01 0.08,-0.01l0.03 -0 0.03 -0c0.05,-0.01 0.09,-0.01 0.11,-0.01 0.11,-0.01 0.19,0.03 0.26,0.12 0.09,0.12 0.13,0.3 0.13,0.56 0,0.43 0.09,0.76 0.25,0.98 0.14,0.19 0.34,0.3 0.6,0.3 0.7,0.02 1.03,-1 0.97,-3.05z"/>
  <path id="_9" class="fil0" d="M3.55 12.26c-0.03,0 -0.07,0 -0.13,0.01l-0.07 0.01 -0.07 0c0.08,-0.06 0.17,-0.09 0.27,-0.09 0.05,0 0.1,0.01 0.14,0.02 0.05,0.02 0.09,0.05 0.11,0.09 -0.09,-0.03 -0.18,-0.04 -0.26,-0.04zm-2.23 -1.27c-0.06,0.06 -0.12,0.12 -0.16,0.17 -0.12,0.14 -0.21,0.26 -0.28,0.38 -0.09,0.14 -0.15,0.28 -0.19,0.43 -0.04,0.15 -0.06,0.31 -0.05,0.48l-0.02 -0.12 -0 -0.06 0 -0.06 0 -0.06 0 -0.06 0.01 -0.06 0.01 -0.06c0.03,-0.15 0.09,-0.31 0.18,-0.46 0.09,-0.14 0.19,-0.26 0.3,-0.38 0.06,-0.06 0.12,-0.11 0.18,-0.16l0.1 -0.07c0.04,-0.03 0.07,-0.05 0.1,-0.07l-0.09 0.08 -0.09 0.08zm0.39 -2.51c-0.07,0.03 -0.15,0.07 -0.22,0.11 -0.15,0.08 -0.28,0.16 -0.4,0.26 -0.12,0.1 -0.24,0.21 -0.34,0.33 -0.05,0.07 -0.1,0.13 -0.13,0.2 -0.04,0.08 -0.07,0.15 -0.08,0.22 -0.01,-0.14 0.05,-0.29 0.16,-0.46 0.09,-0.13 0.2,-0.25 0.34,-0.36 0.14,-0.11 0.28,-0.19 0.42,-0.25 0.08,-0.03 0.15,-0.06 0.23,-0.08 0.09,-0.03 0.17,-0.04 0.24,-0.05l-0.11 0.04c-0.05,0.01 -0.08,0.03 -0.11,0.04zm1.46 3.52c-0.22,0.09 -0.42,0.12 -0.61,0.11 -0.15,-0.01 -0.25,-0.05 -0.28,-0.11 -0.01,-0.03 -0.02,-0.06 -0.02,-0.09 -0,-0.05 0.01,-0.09 0.03,-0.14 0.06,-0.13 0.21,-0.27 0.45,-0.41 0.31,-0.19 0.57,-0.43 0.78,-0.72 0.2,-0.28 0.33,-0.58 0.39,-0.89 0.06,-0.32 0.04,-0.6 -0.07,-0.86 -0.12,-0.28 -0.33,-0.49 -0.63,-0.64 -0.36,-0.18 -0.74,-0.24 -1.14,-0.19 -0.35,0.05 -0.69,0.18 -1.01,0.39 -0.3,0.2 -0.52,0.43 -0.67,0.69 -0.15,0.26 -0.18,0.49 -0.1,0.69 0.08,0.19 0.23,0.31 0.45,0.34 0.23,0.03 0.51,-0.02 0.83,-0.17 0.18,-0.08 0.31,-0.13 0.38,-0.15 0.07,-0.01 0.13,-0 0.16,0.04 0.08,0.08 -0.02,0.2 -0.29,0.36 -0.51,0.3 -0.9,0.62 -1.16,0.99 -0.32,0.46 -0.42,0.94 -0.3,1.45 0.09,0.36 0.34,0.62 0.76,0.8 0.34,0.14 0.77,0.21 1.3,0.21 0.52,0 0.95,-0.07 1.29,-0.21 0.34,-0.15 0.54,-0.35 0.59,-0.62 0.03,-0.13 0.02,-0.26 -0.02,-0.39 -0.04,-0.13 -0.11,-0.25 -0.22,-0.34 -0.11,-0.1 -0.23,-0.16 -0.38,-0.19 -0.16,-0.03 -0.34,-0 -0.52,0.07z"/>
  <path id="_10" class="fil0" d="M7.23 11.79c-0.04,0.09 -0.1,0.16 -0.17,0.21 -0.08,0.06 -0.16,0.1 -0.24,0.11 0.15,-0.08 0.26,-0.19 0.34,-0.35 0.06,-0.12 0.11,-0.28 0.13,-0.48 0.04,0.18 0.02,0.35 -0.06,0.52zm-0.5 0.02c-0.1,0.03 -0.19,0 -0.28,-0.09 -0.09,-0.09 -0.15,-0.21 -0.18,-0.35 -0.03,-0.15 -0.02,-0.29 0.02,-0.42 0.05,-0.13 0.12,-0.21 0.22,-0.24 0.1,-0.03 0.19,0 0.28,0.09 0.09,0.08 0.15,0.2 0.18,0.35 0.03,0.15 0.02,0.29 -0.02,0.42 -0.05,0.13 -0.12,0.21 -0.21,0.24zm-1.21 -2.84c-0.11,0.16 -0.21,0.36 -0.3,0.6 -0.07,0.19 -0.12,0.42 -0.17,0.66 0,-0.09 0.01,-0.2 0.03,-0.34 0.02,-0.11 0.05,-0.22 0.08,-0.33 0.07,-0.24 0.17,-0.45 0.29,-0.63 0.15,-0.21 0.32,-0.36 0.52,-0.46 0.1,-0.05 0.21,-0.09 0.33,-0.11 0.12,-0.02 0.23,-0.02 0.34,-0.02 -0.25,0.02 -0.47,0.08 -0.65,0.18 -0.19,0.11 -0.35,0.26 -0.48,0.45zm1.56 -0.9c-0.72,-0.14 -1.3,0.05 -1.73,0.55 -0.38,0.45 -0.59,1.05 -0.63,1.82 -0.03,0.74 0.1,1.42 0.4,2.03 0.33,0.66 0.77,1.05 1.34,1.17 0.53,0.11 1.01,-0.08 1.42,-0.59 0.38,-0.47 0.63,-1.07 0.75,-1.81 0.12,-0.76 0.06,-1.43 -0.18,-2 -0.27,-0.65 -0.73,-1.03 -1.38,-1.16z"/>
  <path id="_11" class="fil0" d="M12.4 12.26c-0.03,0 -0.07,0 -0.13,0.01l-0.07 0.01 -0.07 0c0.08,-0.06 0.17,-0.09 0.27,-0.09 0.05,0 0.1,0.01 0.14,0.02 0.05,0.02 0.09,0.05 0.11,0.09 -0.09,-0.03 -0.18,-0.04 -0.26,-0.04zm-2.23 -1.27c-0.06,0.06 -0.11,0.12 -0.16,0.17 -0.12,0.14 -0.22,0.26 -0.28,0.38 -0.09,0.14 -0.15,0.28 -0.19,0.43 -0.04,0.15 -0.06,0.31 -0.05,0.48l-0.02 -0.12 -0 -0.06 0 -0.06 0 -0.06 0 -0.06 0.01 -0.06 0.01 -0.06c0.03,-0.15 0.09,-0.31 0.18,-0.46 0.09,-0.14 0.19,-0.26 0.3,-0.38 0.06,-0.06 0.12,-0.11 0.18,-0.16l0.1 -0.07c0.04,-0.03 0.07,-0.05 0.1,-0.07l-0.09 0.08 -0.09 0.08zm0.39 -2.51c-0.07,0.03 -0.15,0.07 -0.22,0.11 -0.15,0.08 -0.28,0.16 -0.4,0.26 -0.12,0.1 -0.24,0.21 -0.34,0.33 -0.05,0.07 -0.1,0.13 -0.13,0.2 -0.04,0.08 -0.07,0.15 -0.08,0.22 -0.01,-0.14 0.05,-0.29 0.16,-0.46 0.09,-0.13 0.2,-0.25 0.34,-0.36 0.14,-0.11 0.28,-0.19 0.42,-0.25 0.08,-0.03 0.15,-0.06 0.23,-0.08 0.09,-0.03 0.17,-0.04 0.24,-0.05l-0.11 0.04c-0.05,0.01 -0.08,0.03 -0.11,0.04zm1.46 3.52c-0.22,0.09 -0.42,0.12 -0.61,0.11 -0.15,-0.01 -0.25,-0.05 -0.28,-0.11 -0.01,-0.03 -0.02,-0.06 -0.02,-0.09 -0,-0.05 0.01,-0.09 0.03,-0.14 0.06,-0.13 0.21,-0.27 0.45,-0.41 0.31,-0.19 0.57,-0.43 0.78,-0.72 0.2,-0.28 0.33,-0.58 0.39,-0.89 0.06,-0.32 0.04,-0.6 -0.08,-0.86 -0.12,-0.28 -0.33,-0.49 -0.63,-0.64 -0.36,-0.18 -0.74,-0.24 -1.14,-0.19 -0.35,0.05 -0.69,0.18 -1.01,0.39 -0.3,0.2 -0.52,0.43 -0.67,0.69 -0.15,0.26 -0.18,0.49 -0.1,0.69 0.08,0.19 0.23,0.31 0.45,0.34 0.23,0.03 0.51,-0.02 0.83,-0.17 0.18,-0.08 0.31,-0.13 0.38,-0.15 0.07,-0.01 0.13,-0 0.16,0.04 0.08,0.08 -0.02,0.2 -0.29,0.36 -0.51,0.3 -0.9,0.62 -1.16,0.99 -0.32,0.46 -0.42,0.94 -0.3,1.45 0.09,0.36 0.34,0.62 0.76,0.8 0.34,0.14 0.77,0.21 1.3,0.21 0.52,0 0.95,-0.07 1.29,-0.21 0.34,-0.15 0.54,-0.35 0.59,-0.62 0.03,-0.13 0.02,-0.26 -0.02,-0.39 -0.04,-0.13 -0.11,-0.25 -0.21,-0.34 -0.11,-0.1 -0.23,-0.16 -0.38,-0.19 -0.16,-0.03 -0.34,-0 -0.52,0.07z"/>
  <path id="_12" class="fil0" d="M21.02 8.42c-0.11,0.03 -0.22,0.07 -0.32,0.12 -0.22,0.11 -0.4,0.24 -0.54,0.39 -0.06,0.07 -0.12,0.16 -0.17,0.28 -0.03,0.08 -0.07,0.19 -0.1,0.32 -0.03,0.1 -0.05,0.22 -0.06,0.33 -0.01,0.05 -0.02,0.11 -0.02,0.17l-0.01 0.17c-0.01,-0.24 0,-0.47 0.05,-0.69 0.05,-0.28 0.14,-0.49 0.27,-0.64 0.15,-0.17 0.35,-0.3 0.58,-0.39 0.1,-0.04 0.21,-0.08 0.33,-0.1 0.12,-0.03 0.24,-0.04 0.34,-0.04 -0.13,0.02 -0.24,0.05 -0.33,0.08zm2.26 0.51c-0.02,-0.23 -0.15,-0.42 -0.41,-0.59 -0.24,-0.16 -0.54,-0.26 -0.91,-0.3 -0.38,-0.04 -0.74,-0.01 -1.09,0.09 -0.39,0.11 -0.7,0.3 -0.95,0.56 -0.22,0.24 -0.36,0.62 -0.42,1.15 -0.05,0.48 -0.02,1.01 0.08,1.57 0.1,0.56 0.26,1.05 0.47,1.45 0.23,0.43 0.48,0.69 0.75,0.77 0.39,0.12 0.67,0.02 0.84,-0.3 0.14,-0.28 0.17,-0.65 0.08,-1.11 -0.01,-0.06 -0.03,-0.15 -0.05,-0.26 -0.01,-0.03 -0.02,-0.08 -0.04,-0.15l-0.02 -0.08 -0.02 -0.08c-0.07,-0.28 -0.11,-0.51 -0.14,-0.69 -0.09,-0.57 -0.07,-0.93 0.07,-1.07 0.06,-0.07 0.2,-0.12 0.42,-0.14 0.04,-0.01 0.09,-0.01 0.14,-0.01l0.15 -0.01c0.13,-0.01 0.23,-0.03 0.31,-0.03 0.24,-0.04 0.42,-0.1 0.54,-0.2 0.15,-0.12 0.22,-0.31 0.2,-0.54z"/>
  <path id="_13" class="fil0" d="M26.35 11.91c-0.05,0.07 -0.11,0.12 -0.18,0.16 -0.07,0.04 -0.15,0.06 -0.23,0.05 0.15,-0.05 0.26,-0.14 0.35,-0.26 0.08,-0.11 0.13,-0.24 0.16,-0.41 0.04,0.16 0,0.31 -0.1,0.45zm-0.82 -0.4c-0.02,-0.1 0,-0.19 0.05,-0.27 0.05,-0.08 0.11,-0.13 0.2,-0.14 0.08,-0.01 0.16,0.01 0.23,0.08 0.07,0.06 0.11,0.14 0.13,0.24 0.02,0.1 0,0.19 -0.05,0.27 -0.05,0.08 -0.11,0.13 -0.2,0.14 -0.08,0.01 -0.16,-0.01 -0.23,-0.07 -0.07,-0.06 -0.11,-0.14 -0.13,-0.24zm-0.2 -3.02c-0.2,0.08 -0.38,0.19 -0.54,0.34 -0.14,0.13 -0.28,0.3 -0.4,0.5l-0.04 0.07 -0.04 0.07 -0.07 0.15 -0.06 0.15 -0.06 0.15c0.04,-0.22 0.12,-0.43 0.22,-0.62 0.1,-0.2 0.24,-0.38 0.4,-0.53 0.17,-0.16 0.36,-0.28 0.57,-0.35 0.1,-0.03 0.21,-0.06 0.32,-0.08l0.08 -0.01 0.08 -0 0.16 0c-0.24,0.02 -0.45,0.07 -0.63,0.14zm1.31 -0.36c-0.81,-0.2 -1.48,-0.07 -2.02,0.4 -0.47,0.41 -0.77,0.99 -0.89,1.76 -0.11,0.74 -0.03,1.42 0.26,2.05 0.3,0.68 0.77,1.11 1.41,1.28 0.6,0.16 1.16,0.01 1.68,-0.47 0.48,-0.43 0.82,-1.01 1.03,-1.74 0.21,-0.75 0.2,-1.42 -0.02,-2.01 -0.25,-0.67 -0.73,-1.09 -1.45,-1.27z"/>
  <path id="_14" class="fil0" d="M32.44 11.71c-0.02,0.09 -0.07,0.17 -0.15,0.22 -0.07,0.05 -0.15,0.09 -0.24,0.11 -0.09,0.02 -0.17,0.02 -0.26,0 0.1,-0.02 0.18,-0.04 0.24,-0.06 0.09,-0.03 0.16,-0.06 0.21,-0.11 0.06,-0.05 0.1,-0.11 0.13,-0.19 0.02,-0.06 0.04,-0.14 0.06,-0.24 0.02,0.09 0.02,0.17 0,0.26zm-0.99 -0.1c-0.05,-0.09 -0.03,-0.24 0.05,-0.44 0.09,-0.21 0.18,-0.31 0.28,-0.31 0.13,0 0.23,0.11 0.3,0.33 0.03,0.09 0.05,0.18 0.05,0.26 0.01,0.09 -0.01,0.15 -0.03,0.2 -0.04,0.06 -0.15,0.09 -0.33,0.09 -0.18,-0 -0.29,-0.05 -0.34,-0.13zm-0.53 -2.54c-0.11,0.16 -0.21,0.34 -0.31,0.53 -0.07,0.15 -0.15,0.34 -0.24,0.57 0.04,-0.19 0.11,-0.39 0.19,-0.59 0.07,-0.18 0.17,-0.37 0.3,-0.55 0.13,-0.19 0.27,-0.35 0.42,-0.46 0.08,-0.06 0.17,-0.12 0.27,-0.16 0.1,-0.04 0.2,-0.06 0.3,-0.06 -0.18,0.02 -0.36,0.11 -0.53,0.27 -0.14,0.13 -0.27,0.28 -0.39,0.46zm-1.73 3.08c-0.06,0.03 -0.11,0.06 -0.15,0.1 -0.05,0.04 -0.08,0.09 -0.1,0.15 -0.01,-0.07 0.01,-0.13 0.06,-0.19 0.03,-0.04 0.09,-0.08 0.16,-0.12 0.12,-0.06 0.24,-0.09 0.38,-0.09l-0.09 0.04 -0.09 0.04c-0.07,0.03 -0.13,0.06 -0.16,0.08zm4.76 -0.47c-0.11,-0.03 -0.18,-0.07 -0.23,-0.13 -0.05,-0.05 -0.07,-0.12 -0.09,-0.22 -0.01,-0.06 -0.02,-0.17 -0.03,-0.36 -0.01,-0.09 -0.01,-0.17 -0.02,-0.24 -0.01,-0.1 -0.02,-0.19 -0.03,-0.29 -0.11,-0.78 -0.32,-1.38 -0.64,-1.8 -0.29,-0.39 -0.64,-0.6 -1.04,-0.61 -0.34,-0.01 -0.68,0.18 -1.01,0.56 -0.33,0.38 -0.59,0.88 -0.77,1.48 -0.07,0.24 -0.13,0.49 -0.17,0.74 -0.01,0.04 -0.02,0.09 -0.02,0.14l-0.01 0.07 -0.01 0.06c-0.01,0.1 -0.02,0.17 -0.03,0.21 -0.03,0.13 -0.06,0.22 -0.11,0.28 -0.05,0.06 -0.14,0.11 -0.26,0.13 -0.34,0.07 -0.58,0.19 -0.71,0.37 -0.12,0.16 -0.15,0.35 -0.09,0.57 0.09,0.32 0.44,0.56 1.06,0.75 0.55,0.16 1.24,0.26 2.07,0.28 0.75,0.02 1.33,-0.01 1.74,-0.07 0.6,-0.1 0.99,-0.3 1.16,-0.6 0.16,-0.28 0.17,-0.55 0.03,-0.8 -0.14,-0.24 -0.4,-0.41 -0.77,-0.51z"/>
  <path id="_15" class="fil0" d="M15.98 11.78c-0.01,0.07 -0.04,0.13 -0.08,0.19 -0.04,0.06 -0.09,0.11 -0.15,0.14 -0.07,0.04 -0.13,0.06 -0.19,0.07 0.13,-0.09 0.22,-0.17 0.28,-0.26 0.06,-0.09 0.11,-0.2 0.15,-0.35 0.01,0.07 0.01,0.13 -0,0.21zm-1.6 0.3c-0.07,0.01 -0.14,0.01 -0.19,0.02 -0.07,0.02 -0.12,0.04 -0.17,0.07 -0.04,0.03 -0.08,0.08 -0.12,0.15 0.01,-0.08 0.03,-0.14 0.08,-0.19 0.05,-0.05 0.11,-0.08 0.19,-0.1 0.07,-0.01 0.14,-0.01 0.2,-0.01 0.08,0.01 0.14,0.03 0.2,0.04 -0.06,0.01 -0.12,0.01 -0.2,0.01zm0.01 -3.35c-0.08,0.06 -0.14,0.11 -0.19,0.17 -0.03,0.03 -0.05,0.06 -0.08,0.1 -0.02,0.03 -0.04,0.07 -0.06,0.11 -0.03,0.07 -0.06,0.15 -0.09,0.25 -0.01,0.04 -0.02,0.08 -0.03,0.13l-0.03 0.13c0,-0.2 0.03,-0.37 0.09,-0.52 0.02,-0.05 0.04,-0.09 0.06,-0.13 0.03,-0.04 0.05,-0.07 0.08,-0.11 0.05,-0.06 0.11,-0.12 0.2,-0.18 0.14,-0.1 0.3,-0.18 0.48,-0.23 0.09,-0.02 0.18,-0.04 0.26,-0.05 0.11,-0.01 0.2,-0.02 0.26,-0.02 -0.21,0.04 -0.37,0.09 -0.5,0.13 -0.18,0.06 -0.34,0.14 -0.46,0.23zm1.64 1.28c-0.13,-0.03 -0.26,-0.05 -0.39,-0.06 -0.05,-0 -0.1,-0.01 -0.15,-0.01l-0.07 -0 -0.06 -0c-0.17,-0.01 -0.27,-0.04 -0.31,-0.09 -0.04,-0.05 -0.04,-0.12 -0.01,-0.2 0.03,-0.08 0.08,-0.14 0.16,-0.18 0.23,-0.12 0.59,-0.13 1.08,-0.04 0.2,0.04 0.38,0.01 0.52,-0.1 0.14,-0.1 0.22,-0.23 0.25,-0.39 0.03,-0.17 0,-0.33 -0.09,-0.48 -0.11,-0.16 -0.28,-0.27 -0.5,-0.33 -0.38,-0.1 -0.81,-0.11 -1.29,-0.03 -0.6,0.1 -1.03,0.33 -1.3,0.7 -0.17,0.23 -0.25,0.57 -0.25,1.02 0,0.45 0.09,0.77 0.26,0.97 0.11,0.12 0.24,0.2 0.39,0.25 0.11,0.04 0.26,0.06 0.43,0.06l0.11 0 0.11 0c0.09,0 0.15,0.01 0.21,0.01 0.15,0.01 0.27,0.05 0.36,0.11 0.13,0.08 0.2,0.2 0.21,0.35 0.01,0.14 -0.04,0.25 -0.14,0.31 -0.05,0.03 -0.11,0.05 -0.16,0.05 -0.09,0.01 -0.21,-0.01 -0.38,-0.06 -0.87,-0.24 -1.35,-0.06 -1.43,0.55 -0.04,0.28 0.06,0.53 0.29,0.75 0.21,0.21 0.5,0.35 0.87,0.44 0.37,0.09 0.74,0.1 1.12,0.04 0.4,-0.07 0.74,-0.23 1.02,-0.47 0.28,-0.24 0.48,-0.53 0.59,-0.86 0.1,-0.32 0.12,-0.64 0.04,-0.96 -0.08,-0.32 -0.24,-0.6 -0.49,-0.83 -0.26,-0.25 -0.59,-0.42 -0.99,-0.51z"/>
  <path class="fil1" d="M2.85 3.95c-0.04,0.09 -0.11,0.15 -0.19,0.2 -0.08,0.05 -0.17,0.06 -0.26,0.05 0.09,-0.02 0.17,-0.05 0.23,-0.09 0.07,-0.05 0.12,-0.11 0.16,-0.19 0.07,-0.14 0.08,-0.3 0.04,-0.49 0.05,0.08 0.07,0.16 0.08,0.26 0.01,0.09 -0.01,0.19 -0.05,0.27zm-0.72 -0.24c-0.04,-0.08 -0.06,-0.15 -0.05,-0.23 0.01,-0.08 0.04,-0.13 0.09,-0.16 0.05,-0.03 0.12,-0.03 0.18,0 0.07,0.03 0.13,0.09 0.17,0.16 0.04,0.08 0.06,0.15 0.05,0.23 -0.01,0.08 -0.04,0.13 -0.09,0.16 -0.05,0.03 -0.12,0.03 -0.18,0 -0.07,-0.03 -0.13,-0.09 -0.17,-0.16zm-0.34 -1.64c0.06,-0.02 0.12,-0.04 0.17,-0.07 0.05,-0.03 0.1,-0.07 0.14,-0.11 0.04,-0.04 0.08,-0.09 0.11,-0.15 0.03,-0.05 0.05,-0.11 0.08,-0.17 0.01,0.13 -0.03,0.26 -0.14,0.37 -0.05,0.05 -0.11,0.09 -0.17,0.11 -0.07,0.03 -0.13,0.03 -0.2,0.02zm-0.08 -0.57c0.03,-0.05 0.07,-0.09 0.11,-0.11 0.04,-0.02 0.09,-0.02 0.12,0 0.03,0.02 0.05,0.06 0.06,0.11 0.01,0.05 -0.01,0.1 -0.04,0.15 -0.03,0.05 -0.07,0.09 -0.11,0.11 -0.04,0.02 -0.08,0.02 -0.12,0 -0.03,-0.02 -0.05,-0.06 -0.06,-0.11 -0.01,-0.05 0.01,-0.1 0.03,-0.15zm-0.67 -0.7c-0.06,0.06 -0.13,0.14 -0.19,0.24 -0.1,0.15 -0.19,0.33 -0.27,0.55 -0.06,0.17 -0.13,0.37 -0.18,0.6 0.02,-0.2 0.06,-0.41 0.13,-0.61 0.07,-0.21 0.16,-0.4 0.27,-0.57 0.13,-0.2 0.28,-0.34 0.45,-0.44 0.11,-0.06 0.2,-0.1 0.29,-0.13 0.11,-0.02 0.21,-0.03 0.31,-0.03 -0.22,0.02 -0.4,0.09 -0.57,0.2 -0.09,0.06 -0.16,0.12 -0.23,0.2zm1.68 1.5c-0.04,-0.02 -0.05,-0.06 -0.03,-0.13 0.01,-0.02 0.03,-0.06 0.06,-0.11l0.02 -0.03 0.02 -0.03c0.01,-0.03 0.03,-0.06 0.04,-0.08 0.07,-0.14 0.12,-0.28 0.15,-0.41 0.04,-0.19 0.05,-0.38 0.01,-0.58 -0.04,-0.22 -0.16,-0.41 -0.38,-0.56 -0.22,-0.16 -0.46,-0.24 -0.74,-0.25 -0.31,-0.01 -0.59,0.08 -0.85,0.26 -0.3,0.21 -0.53,0.53 -0.7,0.96 -0.18,0.44 -0.27,0.93 -0.29,1.45 -0.02,0.53 0.06,1.02 0.22,1.47 0.17,0.49 0.43,0.86 0.76,1.12 0.38,0.29 0.83,0.42 1.36,0.38 0.51,-0.03 0.91,-0.2 1.2,-0.5 0.28,-0.27 0.42,-0.6 0.45,-1 0.03,-0.39 -0.07,-0.76 -0.29,-1.11 -0.24,-0.38 -0.58,-0.65 -1.02,-0.83z"/>
  <path id="_1_0" class="fil1" d="M7.05 4.04c-0.05,0.07 -0.11,0.13 -0.19,0.16 -0.08,0.04 -0.16,0.05 -0.24,0.03 0.16,-0.03 0.28,-0.11 0.36,-0.23 0.04,-0.05 0.07,-0.12 0.09,-0.2 0.01,-0.07 0.02,-0.15 0.02,-0.23 0.03,0.08 0.04,0.16 0.04,0.24 -0.01,0.09 -0.03,0.16 -0.08,0.23zm-0.69 -0.3c-0.04,-0.08 -0.05,-0.15 -0.04,-0.22 0.01,-0.08 0.04,-0.13 0.1,-0.16 0.06,-0.03 0.12,-0.02 0.18,0.01 0.07,0.03 0.12,0.09 0.16,0.17 0.04,0.08 0.05,0.15 0.04,0.23 -0.01,0.07 -0.04,0.12 -0.1,0.15 -0.05,0.03 -0.12,0.03 -0.18,-0.01 -0.07,-0.03 -0.12,-0.09 -0.16,-0.17zm-0.36 -3.26c-0.05,0.02 -0.1,0.06 -0.16,0.11 -0.09,0.08 -0.18,0.17 -0.27,0.28 -0.07,0.08 -0.15,0.19 -0.23,0.32 -0.03,0.04 -0.07,0.1 -0.11,0.17l-0.1 0.17c0.05,-0.15 0.11,-0.27 0.16,-0.37 0.07,-0.13 0.14,-0.24 0.22,-0.34 0.1,-0.12 0.2,-0.21 0.3,-0.28 0.13,-0.09 0.26,-0.13 0.38,-0.12 -0.06,0.01 -0.12,0.03 -0.18,0.06zm1.02 1.91c-0.13,-0.04 -0.22,-0.11 -0.25,-0.22 -0.03,-0.08 -0.03,-0.2 -0,-0.36 0.01,-0.03 0.01,-0.07 0.02,-0.11l0.02 -0.11c0.02,-0.1 0.04,-0.18 0.05,-0.24 0.03,-0.2 0.04,-0.38 0.02,-0.53 -0.03,-0.22 -0.11,-0.39 -0.25,-0.52 -0.14,-0.13 -0.3,-0.19 -0.5,-0.17 -0.21,0.02 -0.42,0.13 -0.63,0.32 -0.24,0.22 -0.45,0.54 -0.64,0.95 -0.2,0.43 -0.33,0.89 -0.38,1.39 -0.06,0.52 -0.03,0.99 0.09,1.42 0.13,0.47 0.34,0.84 0.65,1.11 0.34,0.29 0.77,0.44 1.3,0.43 0.5,-0.01 0.91,-0.16 1.24,-0.45 0.3,-0.27 0.48,-0.61 0.54,-1.02 0.06,-0.41 -0.01,-0.78 -0.22,-1.13 -0.23,-0.37 -0.57,-0.63 -1.04,-0.78zm1.63 -1.81c-0.04,0.04 -0.08,0.09 -0.1,0.15 -0.02,0.05 -0.03,0.12 -0.03,0.19 -0.01,0.1 0.01,0.23 0.03,0.39l0.04 0.19 0.04 0.2c-0.06,-0.14 -0.1,-0.27 -0.13,-0.38 -0.04,-0.15 -0.06,-0.29 -0.05,-0.4 0.01,-0.08 0.02,-0.15 0.04,-0.21 0.03,-0.08 0.07,-0.13 0.13,-0.17 0.11,-0.08 0.24,-0.11 0.39,-0.1 -0.15,0.02 -0.26,0.06 -0.35,0.15zm1.37 0.22c-0.11,-0.21 -0.25,-0.37 -0.43,-0.49 -0.16,-0.1 -0.33,-0.16 -0.51,-0.18 -0.17,-0.01 -0.33,0.02 -0.48,0.09 -0.15,0.07 -0.25,0.17 -0.32,0.3 -0.13,0.25 -0.12,0.61 0.01,1.09 0.02,0.08 0.05,0.18 0.09,0.3l0.05 0.15 0.05 0.15c0.07,0.24 0.11,0.44 0.13,0.6 0.04,0.38 0.06,0.77 0.05,1.18 -0,0.13 -0.01,0.28 -0.02,0.46l-0 0.1 -0 0.1c-0.01,0.07 -0.01,0.13 -0.01,0.18 -0.01,0.25 0.01,0.42 0.04,0.53 0.05,0.13 0.14,0.21 0.29,0.24 0.28,0.07 0.54,-0.09 0.77,-0.46 0.2,-0.33 0.36,-0.78 0.47,-1.36 0.1,-0.56 0.14,-1.11 0.12,-1.65 -0.03,-0.58 -0.12,-1.02 -0.29,-1.32z"/>
  <path id="_2_1" class="fil1" d="M12.13 0.61c-0.02,0.01 -0.05,0.02 -0.08,0.04l-0.08 0.04 -0.08 0.04c-0.03,0.02 -0.06,0.03 -0.07,0.05 -0.09,0.05 -0.18,0.13 -0.27,0.22 -0.11,0.11 -0.18,0.2 -0.23,0.27 -0.13,0.18 -0.21,0.4 -0.25,0.65 -0.01,0.05 -0.02,0.11 -0.02,0.18l-0.01 0.18c-0.01,0.05 -0.01,0.11 -0.01,0.18l-0 0.18c-0.03,-0.26 -0.03,-0.5 -0.01,-0.73 0.03,-0.26 0.11,-0.49 0.25,-0.69l0.05 -0.08 0.06 -0.07c0.01,-0.02 0.03,-0.04 0.06,-0.07l0.03 -0.03 0.03 -0.03c0.12,-0.1 0.22,-0.17 0.29,-0.22 0.2,-0.12 0.43,-0.21 0.68,-0.24l-0.09 0.03 -0.09 0.03c-0.06,0.02 -0.12,0.04 -0.16,0.07zm2.76 0.74c-0.22,-0.47 -0.56,-0.81 -1.01,-1.02 -0.42,-0.19 -0.86,-0.25 -1.34,-0.17 -0.47,0.08 -0.88,0.27 -1.2,0.58 -0.36,0.33 -0.55,0.73 -0.6,1.21 -0.08,0.89 0.05,1.76 0.41,2.61 0.16,0.38 0.34,0.68 0.54,0.89 0.21,0.23 0.42,0.33 0.63,0.3 0.29,-0.04 0.47,-0.21 0.53,-0.51 0.07,-0.34 0.02,-0.94 -0.14,-1.78 -0.13,-0.67 -0.05,-1.02 0.22,-1.06 0.15,-0.02 0.27,0.1 0.36,0.35 0.08,0.24 0.11,0.53 0.1,0.89 -0.03,0.8 0.06,1.36 0.26,1.68 0.15,0.24 0.37,0.35 0.66,0.33 0.25,-0.01 0.45,-0.17 0.63,-0.48 0.16,-0.28 0.27,-0.65 0.32,-1.1 0.06,-0.45 0.06,-0.92 0,-1.39 -0.06,-0.5 -0.18,-0.95 -0.36,-1.33z"/>
  <path id="_3_2" class="fil1" d="M19.29 0.53c-0.05,0.05 -0.1,0.11 -0.16,0.18 -0.08,0.1 -0.17,0.24 -0.27,0.41l-0.06 0.1 -0.06 0.11c-0.05,0.08 -0.09,0.15 -0.14,0.2 -0.06,0.08 -0.12,0.15 -0.16,0.19 -0.07,0.06 -0.15,0.1 -0.22,0.11 0.07,-0.03 0.14,-0.08 0.19,-0.14 0.04,-0.05 0.09,-0.11 0.14,-0.19 0.03,-0.05 0.07,-0.12 0.12,-0.21l0.13 -0.21c0.11,-0.18 0.2,-0.31 0.28,-0.41 0.06,-0.07 0.12,-0.13 0.18,-0.17 0.09,-0.06 0.16,-0.09 0.23,-0.09 -0.07,0.01 -0.14,0.05 -0.2,0.12zm-2.52 3.54c-0.06,0.05 -0.12,0.09 -0.16,0.12 -0.12,0.09 -0.21,0.18 -0.28,0.26 -0.04,0.05 -0.07,0.11 -0.1,0.16 -0.02,0.05 -0.04,0.11 -0.05,0.19 -0,-0.06 0,-0.13 0.02,-0.2 0.02,-0.06 0.05,-0.12 0.09,-0.19 0.06,-0.09 0.15,-0.19 0.28,-0.29 0.09,-0.07 0.2,-0.14 0.33,-0.22l0.09 -0.05 0.08 -0.05c0.07,-0.04 0.12,-0.08 0.16,-0.11 -0.07,0.08 -0.17,0.17 -0.3,0.26l-0.16 0.11zm-0.66 -3.2c-0.04,0.05 -0.07,0.12 -0.09,0.19 -0.02,0.06 -0.03,0.13 -0.03,0.22 -0.03,-0.07 -0.04,-0.15 -0.03,-0.23 0.01,-0.08 0.04,-0.15 0.09,-0.22 0.05,-0.07 0.11,-0.12 0.18,-0.15 0.08,-0.03 0.15,-0.04 0.23,-0.03 -0.15,0.03 -0.27,0.11 -0.36,0.22zm3.38 -0.76c-0.16,0 -0.31,0.07 -0.47,0.22 -0.11,0.11 -0.24,0.27 -0.38,0.49l-0.08 0.13 -0.04 0.07 -0.03 0.06c-0.06,0.1 -0.11,0.18 -0.14,0.23 -0.1,0.15 -0.18,0.23 -0.24,0.23 -0.06,0 -0.18,-0.1 -0.38,-0.31l-0.03 -0.04 -0.04 -0.04c-0.03,-0.03 -0.05,-0.05 -0.07,-0.08 -0.05,-0.06 -0.11,-0.12 -0.15,-0.17 -0.13,-0.13 -0.25,-0.24 -0.38,-0.34 -0.2,-0.16 -0.4,-0.24 -0.61,-0.24 -0.19,0 -0.36,0.06 -0.5,0.19 -0.14,0.13 -0.23,0.29 -0.26,0.49 -0.03,0.21 0.01,0.41 0.13,0.62 0.09,0.15 0.21,0.3 0.37,0.47 0.06,0.06 0.13,0.13 0.22,0.21l0.11 0.1 0.11 0.09c0.18,0.16 0.31,0.28 0.38,0.35 0.11,0.12 0.16,0.23 0.17,0.32 0.01,0.1 -0.05,0.2 -0.18,0.31 -0.05,0.04 -0.11,0.09 -0.2,0.15l-0.05 0.03 -0.06 0.04 -0.12 0.08c-0.2,0.14 -0.35,0.27 -0.45,0.39 -0.14,0.18 -0.22,0.37 -0.23,0.59 -0.01,0.17 0.02,0.32 0.09,0.46 0.07,0.14 0.17,0.25 0.3,0.34 0.29,0.19 0.65,0.23 1.09,0.09 0.58,-0.18 1.16,-0.68 1.74,-1.51 0.52,-0.74 0.85,-1.45 1,-2.12 0.15,-0.69 0.16,-1.19 0.02,-1.52 -0.11,-0.28 -0.32,-0.42 -0.62,-0.41z"/>
  <path id="_4_3" class="fil1" d="M23.9 3.54c-0.02,0.01 -0.05,0.03 -0.08,0.06l-0.04 0.03 -0.04 0.03c-0.07,0.05 -0.14,0.08 -0.2,0.1 -0.08,0.02 -0.15,0.02 -0.22,0.01 0.13,-0.03 0.26,-0.08 0.38,-0.16l0.04 -0.03 0.04 -0.03c0.04,-0.02 0.07,-0.04 0.1,-0.05 0.08,-0.03 0.15,-0.04 0.22,-0.03 -0.07,0.01 -0.13,0.04 -0.2,0.08zm-2.26 -2.61c-0.13,0.14 -0.26,0.31 -0.36,0.5 -0.09,0.16 -0.17,0.35 -0.25,0.58 0.04,-0.21 0.11,-0.41 0.2,-0.6 0.09,-0.19 0.21,-0.37 0.36,-0.52 0.16,-0.16 0.33,-0.28 0.53,-0.36 0.11,-0.04 0.21,-0.07 0.31,-0.08 0.11,-0.02 0.22,-0.02 0.31,-0.01 -0.23,0.02 -0.43,0.07 -0.6,0.14 -0.19,0.09 -0.35,0.21 -0.49,0.36zm3.11 3.03c-0.04,-0.41 -0.18,-0.66 -0.44,-0.76 -0.11,-0.04 -0.23,-0.05 -0.36,-0.02 -0.13,0.03 -0.25,0.09 -0.36,0.18 -0.11,0.09 -0.23,0.12 -0.35,0.11 -0.11,-0.01 -0.22,-0.06 -0.32,-0.16 -0.1,-0.1 -0.17,-0.23 -0.21,-0.38 -0.05,-0.17 -0.06,-0.35 -0.03,-0.55 0.04,-0.29 0.18,-0.45 0.41,-0.49 0.17,-0.03 0.41,0.02 0.71,0.13 0.13,0.05 0.25,0.04 0.37,-0.01 0.11,-0.05 0.19,-0.13 0.24,-0.25 0.05,-0.12 0.07,-0.26 0.05,-0.41 -0.02,-0.16 -0.09,-0.32 -0.2,-0.47 -0.24,-0.32 -0.55,-0.54 -0.93,-0.66 -0.35,-0.11 -0.71,-0.12 -1.07,-0.03 -0.46,0.11 -0.85,0.41 -1.15,0.89 -0.33,0.53 -0.5,1.18 -0.5,1.96 0,0.88 0.23,1.58 0.68,2.07 0.21,0.24 0.46,0.41 0.75,0.52 0.29,0.11 0.6,0.15 0.93,0.12 0.57,-0.05 1.02,-0.25 1.36,-0.61 0.32,-0.34 0.46,-0.74 0.42,-1.18z"/>
  <path id="_5_4" class="fil1" d="M27.75 1.35c-0.11,0.13 -0.21,0.24 -0.31,0.33 -0.13,0.12 -0.26,0.2 -0.38,0.24 0.1,-0.06 0.21,-0.16 0.34,-0.29 0.1,-0.1 0.2,-0.21 0.29,-0.34 0.05,-0.06 0.09,-0.12 0.13,-0.18l0.04 -0.05 0.03 -0.04c0.03,-0.04 0.05,-0.07 0.07,-0.09 0.05,-0.06 0.12,-0.11 0.18,-0.14 0.08,-0.04 0.15,-0.05 0.22,-0.04 -0.13,0.01 -0.25,0.09 -0.36,0.22 -0.02,0.02 -0.04,0.05 -0.06,0.09l-0.03 0.05 -0.03 0.05c-0.04,0.05 -0.08,0.11 -0.14,0.19zm-1.54 -0.86c-0.05,0.03 -0.1,0.08 -0.15,0.14 -0.07,0.08 -0.13,0.2 -0.2,0.35 -0.04,0.09 -0.09,0.22 -0.14,0.39l-0.06 0.2 -0.06 0.2c0.01,-0.16 0.03,-0.3 0.06,-0.42 0.03,-0.15 0.08,-0.28 0.13,-0.4 0.07,-0.16 0.14,-0.28 0.22,-0.36 0.05,-0.06 0.11,-0.1 0.17,-0.13 0.07,-0.03 0.14,-0.05 0.21,-0.04 -0.07,0.01 -0.13,0.03 -0.19,0.07zm1.76 2.28c-0.1,-0.06 -0.13,-0.11 -0.07,-0.16 0.02,-0.02 0.06,-0.05 0.13,-0.08l0.04 -0.02 0.05 -0.02c0.04,-0.02 0.08,-0.03 0.11,-0.05 0.2,-0.1 0.35,-0.2 0.47,-0.31 0.18,-0.17 0.31,-0.36 0.38,-0.59 0.07,-0.21 0.06,-0.41 -0.01,-0.61 -0.07,-0.18 -0.19,-0.31 -0.35,-0.39 -0.17,-0.09 -0.34,-0.1 -0.52,-0.06 -0.2,0.06 -0.37,0.19 -0.51,0.4 -0.24,0.36 -0.46,0.61 -0.68,0.74 -0.09,0.05 -0.14,0.07 -0.18,0.05 -0.03,-0.03 -0.02,-0.09 0.02,-0.19 0.19,-0.39 0.25,-0.71 0.18,-0.96 -0.06,-0.2 -0.2,-0.33 -0.42,-0.39 -0.45,-0.1 -0.79,0.12 -1.03,0.67 -0.2,0.44 -0.32,1.08 -0.38,1.93 -0.06,0.85 -0.02,1.53 0.12,2.05 0.16,0.63 0.45,0.93 0.87,0.92 0.38,-0.01 0.61,-0.3 0.67,-0.85 0.02,-0.19 0.02,-0.4 0,-0.63 -0.01,-0.08 -0.02,-0.16 -0.03,-0.24 -0,-0.03 -0.01,-0.06 -0.01,-0.09l-0 -0.04 -0 -0.02 0 -0.01c-0.01,-0.07 -0,-0.12 0.03,-0.15 0.03,-0.03 0.07,-0.01 0.13,0.03 0.14,0.12 0.28,0.42 0.4,0.9 0.08,0.31 0.2,0.56 0.35,0.76 0.14,0.18 0.31,0.3 0.48,0.36 0.17,0.05 0.34,0.05 0.51,-0.01 0.17,-0.07 0.31,-0.18 0.42,-0.35 0.13,-0.19 0.19,-0.4 0.2,-0.64 0.01,-0.23 -0.05,-0.46 -0.15,-0.71 -0.23,-0.51 -0.64,-0.92 -1.21,-1.24z"/>
  <path id="_6_5" class="fil1" d="M34.86 0.63c-0.03,0.03 -0.06,0.08 -0.08,0.15 -0.01,0.04 -0.03,0.1 -0.05,0.18l-0.02 0.09 -0.02 0.09c-0.01,-0.06 -0.02,-0.12 -0.02,-0.19 0,-0.07 0.01,-0.13 0.03,-0.19 0.03,-0.08 0.07,-0.14 0.11,-0.17 0.05,-0.04 0.12,-0.05 0.2,-0.03 -0.08,0.02 -0.13,0.05 -0.16,0.07zm-0.08 1.93c-0.04,0.08 -0.1,0.14 -0.17,0.18 -0.07,0.04 -0.15,0.06 -0.23,0.04 0.08,-0.02 0.15,-0.05 0.2,-0.09 0.06,-0.04 0.1,-0.1 0.13,-0.16 0.03,-0.05 0.04,-0.12 0.05,-0.21l0.02 -0.23c0.02,0.08 0.04,0.15 0.04,0.23 0,0.09 -0.01,0.17 -0.04,0.24zm-2.51 -2.02c-0.07,0.05 -0.13,0.13 -0.19,0.24 -0.05,0.1 -0.09,0.19 -0.13,0.29 -0.03,0.09 -0.07,0.19 -0.09,0.3 -0.04,0.16 -0.09,0.36 -0.14,0.62 -0.02,0.09 -0.03,0.2 -0.05,0.32l-0.05 0.31c0,-0.2 0.02,-0.41 0.05,-0.64 0.03,-0.21 0.07,-0.42 0.12,-0.63 0.08,-0.26 0.16,-0.46 0.24,-0.6 0.07,-0.11 0.14,-0.19 0.22,-0.24 0.11,-0.06 0.21,-0.09 0.31,-0.08 -0.1,0.01 -0.2,0.05 -0.29,0.11zm2.87 -0.28c-0.27,-0.03 -0.47,0.04 -0.6,0.23 -0.16,0.24 -0.2,0.64 -0.12,1.22 0.05,0.32 0.07,0.52 0.06,0.61 -0.01,0.1 -0.04,0.15 -0.11,0.16 -0.04,0 -0.07,-0.03 -0.11,-0.11 -0.03,-0.05 -0.07,-0.16 -0.12,-0.3l-0.02 -0.05 -0.02 -0.05 -0.03 -0.1c-0.03,-0.08 -0.05,-0.16 -0.08,-0.22 -0.07,-0.17 -0.13,-0.33 -0.2,-0.46 -0.21,-0.41 -0.45,-0.7 -0.72,-0.89 -0.33,-0.23 -0.65,-0.24 -0.97,-0.05 -0.26,0.16 -0.46,0.54 -0.61,1.13 -0.14,0.55 -0.21,1.17 -0.21,1.86 0,0.7 0.08,1.28 0.23,1.74 0.17,0.51 0.4,0.77 0.7,0.77 0.47,0 0.69,-0.32 0.68,-0.96 -0,-0.1 -0.01,-0.22 -0.03,-0.36 -0.01,-0.04 -0.01,-0.1 -0.02,-0.17l-0.01 -0.07 -0.01 -0.08c-0.02,-0.21 -0.02,-0.32 0.02,-0.33 0.03,-0.01 0.06,0 0.08,0.03 0.01,0.02 0.04,0.07 0.08,0.17 0.02,0.06 0.05,0.11 0.07,0.15 0.03,0.07 0.07,0.14 0.11,0.21 0.1,0.19 0.21,0.39 0.36,0.61 0.16,0.25 0.36,0.44 0.58,0.58 0.25,0.15 0.49,0.2 0.73,0.17 0.84,-0.12 1.28,-0.93 1.33,-2.43 0.03,-0.82 -0.05,-1.51 -0.24,-2.08 -0.19,-0.59 -0.46,-0.91 -0.79,-0.95z"/>
  <path id="_7_6" class="fil1" d="M37.6 1.61c-0.02,0.04 -0.04,0.07 -0.07,0.09 -0.03,0.03 -0.07,0.04 -0.1,0.04 0.06,-0.03 0.11,-0.08 0.14,-0.15 0.03,-0.05 0.04,-0.12 0.05,-0.2 0.02,0.07 0.01,0.15 -0.02,0.22zm-0.21 0.01c-0.04,0.01 -0.08,0 -0.12,-0.04 -0.04,-0.04 -0.06,-0.09 -0.08,-0.15 -0.01,-0.06 -0.01,-0.12 0.01,-0.17 0.02,-0.05 0.05,-0.09 0.09,-0.1 0.04,-0.01 0.08,0 0.12,0.04 0.04,0.04 0.06,0.08 0.08,0.15 0.01,0.06 0.01,0.12 -0.01,0.17 -0.02,0.05 -0.05,0.09 -0.09,0.1zm-0.5 -1.18c-0.05,0.07 -0.09,0.15 -0.13,0.25 -0.03,0.08 -0.05,0.17 -0.07,0.28 0,-0.04 0.01,-0.08 0.01,-0.14 0.01,-0.05 0.02,-0.09 0.03,-0.14 0.03,-0.1 0.07,-0.19 0.12,-0.26 0.06,-0.09 0.13,-0.15 0.22,-0.19 0.04,-0.02 0.09,-0.04 0.14,-0.05 0.05,-0.01 0.1,-0.01 0.14,-0.01 -0.11,0.01 -0.2,0.03 -0.27,0.07 -0.08,0.04 -0.15,0.11 -0.2,0.19zm0.65 -0.37c-0.3,-0.06 -0.54,0.02 -0.72,0.23 -0.16,0.19 -0.25,0.44 -0.26,0.76 -0.01,0.31 0.04,0.59 0.17,0.85 0.14,0.27 0.32,0.44 0.56,0.49 0.22,0.05 0.42,-0.03 0.59,-0.25 0.16,-0.19 0.26,-0.45 0.31,-0.76 0.05,-0.32 0.02,-0.6 -0.08,-0.84 -0.11,-0.27 -0.31,-0.43 -0.57,-0.48z"/>
  <path id="_8_7" class="fil1" d="M42.49 1.5c0.02,0.21 0,0.38 -0.05,0.52 -0.03,0.09 -0.07,0.17 -0.13,0.24 -0.06,0.07 -0.13,0.12 -0.22,0.15 0.15,-0.08 0.25,-0.22 0.29,-0.4 0.03,-0.14 0.04,-0.31 0.02,-0.5 -0.01,-0.2 -0.02,-0.37 -0.01,-0.52 0.01,-0.1 0.03,-0.19 0.04,-0.26 0.03,-0.11 0.07,-0.19 0.12,-0.23 -0.04,0.06 -0.07,0.14 -0.08,0.24 -0.01,0.08 -0.02,0.16 -0.02,0.26 0,0.17 0.01,0.34 0.02,0.52zm-1.87 -0.81c-0.05,0.08 -0.11,0.17 -0.15,0.28 -0.03,0.07 -0.07,0.17 -0.11,0.31l-0.04 0.16 -0.05 0.16c0,-0.13 0.01,-0.24 0.03,-0.33 0.02,-0.12 0.06,-0.23 0.1,-0.33 0.05,-0.12 0.11,-0.21 0.18,-0.29 0.05,-0.05 0.09,-0.09 0.13,-0.11 0.06,-0.03 0.11,-0.04 0.16,-0.04 -0.08,0.01 -0.17,0.08 -0.25,0.19zm3.34 2.03c-0.02,-0.79 -0.12,-1.41 -0.3,-1.85 -0.21,-0.5 -0.52,-0.74 -0.92,-0.74 -0.47,0.01 -0.66,0.48 -0.58,1.42 0.02,0.21 -0,0.37 -0.06,0.47 -0.05,0.1 -0.14,0.14 -0.25,0.14 -0.12,-0 -0.21,-0.05 -0.26,-0.15 -0.05,-0.09 -0.07,-0.24 -0.07,-0.44 0.02,-0.5 -0.02,-0.86 -0.14,-1.07 -0.1,-0.2 -0.27,-0.3 -0.52,-0.3 -0.22,0 -0.42,0.13 -0.58,0.37 -0.16,0.25 -0.27,0.57 -0.32,0.98 -0.06,0.45 -0.06,0.83 0.02,1.15 0.06,0.26 0.17,0.51 0.34,0.72 0.18,0.24 0.44,0.37 0.78,0.39 0.11,0.01 0.23,0.01 0.38,-0 0.02,-0 0.05,-0.01 0.08,-0.01l0.03 -0 0.03 -0c0.05,-0.01 0.09,-0.01 0.11,-0.01 0.11,-0.01 0.19,0.03 0.26,0.12 0.09,0.12 0.13,0.3 0.13,0.56 0,0.43 0.09,0.76 0.25,0.98 0.14,0.19 0.34,0.3 0.6,0.3 0.7,0.02 1.03,-1 0.97,-3.05z"/>
  <path id="_9_8" class="fil1" d="M3.34 11.91c-0.03,0 -0.07,0 -0.13,0.01l-0.07 0.01 -0.07 0c0.08,-0.06 0.17,-0.09 0.27,-0.09 0.05,0 0.1,0.01 0.14,0.02 0.05,0.02 0.09,0.05 0.11,0.09 -0.09,-0.03 -0.18,-0.04 -0.26,-0.04zm-2.23 -1.27c-0.06,0.06 -0.12,0.12 -0.16,0.17 -0.12,0.14 -0.21,0.26 -0.28,0.38 -0.09,0.14 -0.15,0.28 -0.19,0.43 -0.04,0.15 -0.06,0.31 -0.05,0.48l-0.02 -0.12 -0 -0.06 0 -0.06 0 -0.06 0 -0.06 0.01 -0.06 0.01 -0.06c0.03,-0.15 0.09,-0.31 0.18,-0.46 0.09,-0.14 0.19,-0.26 0.3,-0.38 0.06,-0.06 0.12,-0.11 0.18,-0.16l0.1 -0.07c0.04,-0.03 0.07,-0.05 0.1,-0.07l-0.09 0.08 -0.09 0.08zm0.39 -2.51c-0.07,0.03 -0.15,0.07 -0.22,0.11 -0.15,0.08 -0.28,0.16 -0.4,0.26 -0.12,0.1 -0.24,0.21 -0.34,0.33 -0.05,0.07 -0.1,0.13 -0.13,0.2 -0.04,0.08 -0.07,0.15 -0.08,0.22 -0.01,-0.14 0.05,-0.29 0.16,-0.46 0.09,-0.13 0.2,-0.25 0.34,-0.36 0.14,-0.11 0.28,-0.19 0.42,-0.25 0.08,-0.03 0.15,-0.06 0.23,-0.08 0.09,-0.03 0.17,-0.04 0.24,-0.05l-0.11 0.04c-0.05,0.01 -0.08,0.03 -0.11,0.04zm1.46 3.52c-0.22,0.09 -0.42,0.12 -0.61,0.11 -0.15,-0.01 -0.25,-0.05 -0.28,-0.11 -0.01,-0.03 -0.02,-0.06 -0.02,-0.09 -0,-0.05 0.01,-0.09 0.03,-0.14 0.06,-0.13 0.21,-0.27 0.45,-0.41 0.31,-0.19 0.57,-0.43 0.78,-0.72 0.2,-0.28 0.33,-0.58 0.39,-0.89 0.06,-0.32 0.04,-0.6 -0.07,-0.86 -0.12,-0.28 -0.33,-0.49 -0.63,-0.64 -0.36,-0.18 -0.74,-0.24 -1.14,-0.19 -0.35,0.05 -0.69,0.18 -1.01,0.39 -0.3,0.2 -0.52,0.43 -0.67,0.69 -0.15,0.26 -0.18,0.49 -0.1,0.69 0.08,0.19 0.23,0.31 0.45,0.34 0.23,0.03 0.51,-0.02 0.83,-0.17 0.18,-0.08 0.31,-0.13 0.38,-0.15 0.07,-0.01 0.13,-0 0.16,0.04 0.08,0.08 -0.02,0.2 -0.29,0.36 -0.51,0.3 -0.9,0.62 -1.16,0.99 -0.32,0.46 -0.42,0.94 -0.3,1.45 0.09,0.36 0.34,0.62 0.76,0.8 0.34,0.14 0.77,0.21 1.3,0.21 0.52,0 0.95,-0.07 1.29,-0.21 0.34,-0.15 0.54,-0.35 0.59,-0.62 0.03,-0.13 0.02,-0.26 -0.02,-0.39 -0.04,-0.13 -0.11,-0.25 -0.22,-0.34 -0.11,-0.1 -0.23,-0.16 -0.38,-0.19 -0.16,-0.03 -0.34,-0 -0.52,0.07z"/>
  <path id="_10_9" class="fil1" d="M7.02 11.44c-0.04,0.09 -0.1,0.16 -0.17,0.21 -0.08,0.06 -0.16,0.1 -0.24,0.11 0.15,-0.08 0.26,-0.19 0.34,-0.35 0.06,-0.12 0.11,-0.28 0.13,-0.48 0.04,0.18 0.02,0.35 -0.06,0.52zm-0.5 0.02c-0.1,0.03 -0.19,0 -0.28,-0.09 -0.09,-0.09 -0.15,-0.21 -0.18,-0.35 -0.03,-0.15 -0.02,-0.29 0.02,-0.42 0.05,-0.13 0.12,-0.21 0.22,-0.24 0.1,-0.03 0.19,0 0.28,0.09 0.09,0.08 0.15,0.2 0.18,0.35 0.03,0.15 0.02,0.29 -0.02,0.42 -0.05,0.13 -0.12,0.21 -0.21,0.24zm-1.21 -2.84c-0.11,0.16 -0.21,0.36 -0.3,0.6 -0.07,0.19 -0.12,0.42 -0.17,0.66 0,-0.09 0.01,-0.2 0.03,-0.34 0.02,-0.11 0.05,-0.22 0.08,-0.33 0.07,-0.24 0.17,-0.45 0.29,-0.63 0.15,-0.21 0.32,-0.36 0.52,-0.46 0.1,-0.05 0.21,-0.09 0.33,-0.11 0.12,-0.02 0.23,-0.02 0.34,-0.02 -0.25,0.02 -0.47,0.08 -0.65,0.18 -0.19,0.11 -0.35,0.26 -0.48,0.45zm1.56 -0.9c-0.72,-0.14 -1.3,0.05 -1.73,0.55 -0.38,0.45 -0.59,1.05 -0.63,1.82 -0.03,0.74 0.1,1.42 0.4,2.03 0.33,0.66 0.77,1.05 1.34,1.17 0.53,0.11 1.01,-0.08 1.42,-0.59 0.38,-0.47 0.63,-1.07 0.75,-1.81 0.12,-0.76 0.06,-1.43 -0.18,-2 -0.27,-0.65 -0.73,-1.03 -1.38,-1.16z"/>
  <path id="_11_10" class="fil1" d="M12.19 11.91c-0.03,0 -0.07,0 -0.13,0.01l-0.07 0.01 -0.07 0c0.08,-0.06 0.17,-0.09 0.27,-0.09 0.05,0 0.1,0.01 0.14,0.02 0.05,0.02 0.09,0.05 0.11,0.09 -0.09,-0.03 -0.18,-0.04 -0.26,-0.04zm-2.23 -1.27c-0.06,0.06 -0.11,0.12 -0.16,0.17 -0.12,0.14 -0.22,0.26 -0.28,0.38 -0.09,0.14 -0.15,0.28 -0.19,0.43 -0.04,0.15 -0.06,0.31 -0.05,0.48l-0.02 -0.12 -0 -0.06 0 -0.06 0 -0.06 0 -0.06 0.01 -0.06 0.01 -0.06c0.03,-0.15 0.09,-0.31 0.18,-0.46 0.09,-0.14 0.19,-0.26 0.3,-0.38 0.06,-0.06 0.12,-0.11 0.18,-0.16l0.1 -0.07c0.04,-0.03 0.07,-0.05 0.1,-0.07l-0.09 0.08 -0.09 0.08zm0.39 -2.51c-0.07,0.03 -0.15,0.07 -0.22,0.11 -0.15,0.08 -0.28,0.16 -0.4,0.26 -0.12,0.1 -0.24,0.21 -0.34,0.33 -0.05,0.07 -0.1,0.13 -0.13,0.2 -0.04,0.08 -0.07,0.15 -0.08,0.22 -0.01,-0.14 0.05,-0.29 0.16,-0.46 0.09,-0.13 0.2,-0.25 0.34,-0.36 0.14,-0.11 0.28,-0.19 0.42,-0.25 0.08,-0.03 0.15,-0.06 0.23,-0.08 0.09,-0.03 0.17,-0.04 0.24,-0.05l-0.11 0.04c-0.05,0.01 -0.08,0.03 -0.11,0.04zm1.46 3.52c-0.22,0.09 -0.42,0.12 -0.61,0.11 -0.15,-0.01 -0.25,-0.05 -0.28,-0.11 -0.01,-0.03 -0.02,-0.06 -0.02,-0.09 -0,-0.05 0.01,-0.09 0.03,-0.14 0.06,-0.13 0.21,-0.27 0.45,-0.41 0.31,-0.19 0.57,-0.43 0.78,-0.72 0.2,-0.28 0.33,-0.58 0.39,-0.89 0.06,-0.32 0.04,-0.6 -0.08,-0.86 -0.12,-0.28 -0.33,-0.49 -0.63,-0.64 -0.36,-0.18 -0.74,-0.24 -1.14,-0.19 -0.35,0.05 -0.69,0.18 -1.01,0.39 -0.3,0.2 -0.52,0.43 -0.67,0.69 -0.15,0.26 -0.18,0.49 -0.1,0.69 0.08,0.19 0.23,0.31 0.45,0.34 0.23,0.03 0.51,-0.02 0.83,-0.17 0.18,-0.08 0.31,-0.13 0.38,-0.15 0.07,-0.01 0.13,-0 0.16,0.04 0.08,0.08 -0.02,0.2 -0.29,0.36 -0.51,0.3 -0.9,0.62 -1.16,0.99 -0.32,0.46 -0.42,0.94 -0.3,1.45 0.09,0.36 0.34,0.62 0.76,0.8 0.34,0.14 0.77,0.21 1.3,0.21 0.52,0 0.95,-0.07 1.29,-0.21 0.34,-0.15 0.54,-0.35 0.59,-0.62 0.03,-0.13 0.02,-0.26 -0.02,-0.39 -0.04,-0.13 -0.11,-0.25 -0.21,-0.34 -0.11,-0.1 -0.23,-0.16 -0.38,-0.19 -0.16,-0.03 -0.34,-0 -0.52,0.07z"/>
  <path id="_12_11" class="fil1" d="M20.81 8.07c-0.11,0.03 -0.22,0.07 -0.32,0.12 -0.22,0.11 -0.4,0.24 -0.54,0.39 -0.06,0.07 -0.12,0.16 -0.17,0.28 -0.03,0.08 -0.07,0.19 -0.1,0.32 -0.03,0.1 -0.05,0.22 -0.06,0.33 -0.01,0.05 -0.02,0.11 -0.02,0.17l-0.01 0.17c-0.01,-0.24 0,-0.47 0.05,-0.69 0.05,-0.28 0.14,-0.49 0.27,-0.64 0.15,-0.17 0.35,-0.3 0.58,-0.39 0.1,-0.04 0.21,-0.08 0.33,-0.1 0.12,-0.03 0.24,-0.04 0.34,-0.04 -0.13,0.02 -0.24,0.05 -0.33,0.08zm2.26 0.51c-0.02,-0.23 -0.15,-0.42 -0.41,-0.59 -0.24,-0.16 -0.54,-0.26 -0.91,-0.3 -0.38,-0.04 -0.74,-0.01 -1.09,0.09 -0.39,0.11 -0.7,0.3 -0.95,0.56 -0.22,0.24 -0.36,0.62 -0.42,1.15 -0.05,0.48 -0.02,1.01 0.08,1.57 0.1,0.56 0.26,1.05 0.47,1.45 0.23,0.43 0.48,0.69 0.75,0.77 0.39,0.12 0.67,0.02 0.84,-0.3 0.14,-0.28 0.17,-0.65 0.08,-1.11 -0.01,-0.06 -0.03,-0.15 -0.05,-0.26 -0.01,-0.03 -0.02,-0.08 -0.04,-0.15l-0.02 -0.08 -0.02 -0.08c-0.07,-0.28 -0.11,-0.51 -0.14,-0.69 -0.09,-0.57 -0.07,-0.93 0.07,-1.07 0.06,-0.07 0.2,-0.12 0.42,-0.14 0.04,-0.01 0.09,-0.01 0.14,-0.01l0.15 -0.01c0.13,-0.01 0.23,-0.03 0.31,-0.03 0.24,-0.04 0.42,-0.1 0.54,-0.2 0.15,-0.12 0.22,-0.31 0.2,-0.54z"/>
  <path id="_13_12" class="fil1" d="M26.14 11.56c-0.05,0.07 -0.11,0.12 -0.18,0.16 -0.07,0.04 -0.15,0.06 -0.23,0.05 0.15,-0.05 0.26,-0.14 0.35,-0.26 0.08,-0.11 0.13,-0.24 0.16,-0.41 0.04,0.16 0,0.31 -0.1,0.45zm-0.82 -0.4c-0.02,-0.1 0,-0.19 0.05,-0.27 0.05,-0.08 0.11,-0.13 0.2,-0.14 0.08,-0.01 0.16,0.01 0.23,0.08 0.07,0.06 0.11,0.14 0.13,0.24 0.02,0.1 0,0.19 -0.05,0.27 -0.05,0.08 -0.11,0.13 -0.2,0.14 -0.08,0.01 -0.16,-0.01 -0.23,-0.07 -0.07,-0.06 -0.11,-0.14 -0.13,-0.24zm-0.2 -3.02c-0.2,0.08 -0.38,0.19 -0.54,0.34 -0.14,0.13 -0.28,0.3 -0.4,0.5l-0.04 0.07 -0.04 0.07 -0.07 0.15 -0.06 0.15 -0.06 0.15c0.04,-0.22 0.12,-0.43 0.22,-0.62 0.1,-0.2 0.24,-0.38 0.4,-0.53 0.17,-0.16 0.36,-0.28 0.57,-0.35 0.1,-0.03 0.21,-0.06 0.32,-0.08l0.08 -0.01 0.08 -0 0.16 0c-0.24,0.02 -0.45,0.07 -0.63,0.14zm1.31 -0.36c-0.81,-0.2 -1.48,-0.07 -2.02,0.4 -0.47,0.41 -0.77,0.99 -0.89,1.76 -0.11,0.74 -0.03,1.42 0.26,2.05 0.3,0.68 0.77,1.11 1.41,1.28 0.6,0.16 1.16,0.01 1.68,-0.47 0.48,-0.43 0.82,-1.01 1.03,-1.74 0.21,-0.75 0.2,-1.42 -0.02,-2.01 -0.25,-0.67 -0.73,-1.09 -1.45,-1.27z"/>
  <path id="_14_13" class="fil1" d="M32.23 11.37c-0.02,0.09 -0.07,0.17 -0.15,0.22 -0.07,0.05 -0.15,0.09 -0.24,0.11 -0.09,0.02 -0.17,0.02 -0.26,0 0.1,-0.02 0.18,-0.04 0.24,-0.06 0.09,-0.03 0.16,-0.06 0.21,-0.11 0.06,-0.05 0.1,-0.11 0.13,-0.19 0.02,-0.06 0.04,-0.14 0.06,-0.24 0.02,0.09 0.02,0.17 0,0.26zm-0.99 -0.1c-0.05,-0.09 -0.03,-0.24 0.05,-0.44 0.09,-0.21 0.18,-0.31 0.28,-0.31 0.13,0 0.23,0.11 0.3,0.33 0.03,0.09 0.05,0.18 0.05,0.26 0.01,0.09 -0.01,0.15 -0.03,0.2 -0.04,0.06 -0.15,0.09 -0.33,0.09 -0.18,-0 -0.29,-0.05 -0.34,-0.13zm-0.53 -2.54c-0.11,0.16 -0.21,0.34 -0.31,0.53 -0.07,0.15 -0.15,0.34 -0.24,0.57 0.04,-0.19 0.11,-0.39 0.19,-0.59 0.07,-0.18 0.17,-0.37 0.3,-0.55 0.13,-0.19 0.27,-0.35 0.42,-0.46 0.08,-0.06 0.17,-0.12 0.27,-0.16 0.1,-0.04 0.2,-0.06 0.3,-0.06 -0.18,0.02 -0.36,0.11 -0.53,0.27 -0.14,0.13 -0.27,0.28 -0.39,0.46zm-1.73 3.08c-0.06,0.03 -0.11,0.06 -0.15,0.1 -0.05,0.04 -0.08,0.09 -0.1,0.15 -0.01,-0.07 0.01,-0.13 0.06,-0.19 0.03,-0.04 0.09,-0.08 0.16,-0.12 0.12,-0.06 0.24,-0.09 0.38,-0.09l-0.09 0.04 -0.09 0.04c-0.07,0.03 -0.13,0.06 -0.16,0.08zm4.76 -0.47c-0.11,-0.03 -0.18,-0.07 -0.23,-0.13 -0.05,-0.05 -0.07,-0.12 -0.09,-0.22 -0.01,-0.06 -0.02,-0.17 -0.03,-0.36 -0.01,-0.09 -0.01,-0.17 -0.02,-0.24 -0.01,-0.1 -0.02,-0.19 -0.03,-0.29 -0.11,-0.78 -0.32,-1.38 -0.64,-1.8 -0.29,-0.39 -0.64,-0.6 -1.04,-0.61 -0.34,-0.01 -0.68,0.18 -1.01,0.56 -0.33,0.38 -0.59,0.88 -0.77,1.48 -0.07,0.24 -0.13,0.49 -0.17,0.74 -0.01,0.04 -0.02,0.09 -0.02,0.14l-0.01 0.07 -0.01 0.06c-0.01,0.1 -0.02,0.17 -0.03,0.21 -0.03,0.13 -0.06,0.22 -0.11,0.28 -0.05,0.06 -0.14,0.11 -0.26,0.13 -0.34,0.07 -0.58,0.19 -0.71,0.37 -0.12,0.16 -0.15,0.35 -0.09,0.57 0.09,0.32 0.44,0.56 1.06,0.75 0.55,0.16 1.24,0.26 2.07,0.28 0.75,0.02 1.33,-0.01 1.74,-0.07 0.6,-0.1 0.99,-0.3 1.16,-0.6 0.16,-0.28 0.17,-0.55 0.03,-0.8 -0.14,-0.24 -0.4,-0.41 -0.77,-0.51z"/>
  <path id="_15_14" class="fil1" d="M15.77 11.43c-0.01,0.07 -0.04,0.13 -0.08,0.19 -0.04,0.06 -0.09,0.11 -0.15,0.14 -0.07,0.04 -0.13,0.06 -0.19,0.07 0.13,-0.09 0.22,-0.17 0.28,-0.26 0.06,-0.09 0.11,-0.2 0.15,-0.35 0.01,0.07 0.01,0.13 -0,0.21zm-1.6 0.3c-0.07,0.01 -0.14,0.01 -0.19,0.02 -0.07,0.02 -0.12,0.04 -0.17,0.07 -0.04,0.03 -0.08,0.08 -0.12,0.15 0.01,-0.08 0.03,-0.14 0.08,-0.19 0.05,-0.05 0.11,-0.08 0.19,-0.1 0.07,-0.01 0.14,-0.01 0.2,-0.01 0.08,0.01 0.14,0.03 0.2,0.04 -0.06,0.01 -0.12,0.01 -0.2,0.01zm0.01 -3.35c-0.08,0.06 -0.14,0.11 -0.19,0.17 -0.03,0.03 -0.05,0.06 -0.08,0.1 -0.02,0.03 -0.04,0.07 -0.06,0.11 -0.03,0.07 -0.06,0.15 -0.09,0.25 -0.01,0.04 -0.02,0.08 -0.03,0.13l-0.03 0.13c0,-0.2 0.03,-0.37 0.09,-0.52 0.02,-0.05 0.04,-0.09 0.06,-0.13 0.03,-0.04 0.05,-0.07 0.08,-0.11 0.05,-0.06 0.11,-0.12 0.2,-0.18 0.14,-0.1 0.3,-0.18 0.48,-0.23 0.09,-0.02 0.18,-0.04 0.26,-0.05 0.11,-0.01 0.2,-0.02 0.26,-0.02 -0.21,0.04 -0.37,0.09 -0.5,0.13 -0.18,0.06 -0.34,0.14 -0.46,0.23zm1.64 1.28c-0.13,-0.03 -0.26,-0.05 -0.39,-0.06 -0.05,-0 -0.1,-0.01 -0.15,-0.01l-0.07 -0 -0.06 -0c-0.17,-0.01 -0.27,-0.04 -0.31,-0.09 -0.04,-0.05 -0.04,-0.12 -0.01,-0.2 0.03,-0.08 0.08,-0.14 0.16,-0.18 0.23,-0.12 0.59,-0.13 1.08,-0.04 0.2,0.04 0.38,0.01 0.52,-0.1 0.14,-0.1 0.22,-0.23 0.25,-0.39 0.03,-0.17 0,-0.33 -0.09,-0.48 -0.11,-0.16 -0.28,-0.27 -0.5,-0.33 -0.38,-0.1 -0.81,-0.11 -1.29,-0.03 -0.6,0.1 -1.03,0.33 -1.3,0.7 -0.17,0.23 -0.25,0.57 -0.25,1.02 0,0.45 0.09,0.77 0.26,0.97 0.11,0.12 0.24,0.2 0.39,0.25 0.11,0.04 0.26,0.06 0.43,0.06l0.11 0 0.11 0c0.09,0 0.15,0.01 0.21,0.01 0.15,0.01 0.27,0.05 0.36,0.11 0.13,0.08 0.2,0.2 0.21,0.35 0.01,0.14 -0.04,0.25 -0.14,0.31 -0.05,0.03 -0.11,0.05 -0.16,0.05 -0.09,0.01 -0.21,-0.01 -0.38,-0.06 -0.87,-0.24 -1.35,-0.06 -1.43,0.55 -0.04,0.28 0.06,0.53 0.29,0.75 0.21,0.21 0.5,0.35 0.87,0.44 0.37,0.09 0.74,0.1 1.12,0.04 0.4,-0.07 0.74,-0.23 1.02,-0.47 0.28,-0.24 0.48,-0.53 0.59,-0.86 0.1,-0.32 0.12,-0.64 0.04,-0.96 -0.08,-0.32 -0.24,-0.6 -0.49,-0.83 -0.26,-0.25 -0.59,-0.42 -0.99,-0.51z"/>
 </g>
</svg>
