<?xml version="1.0" encoding="UTF-8"?>
<!DOCTYPE svg PUBLIC "-//W3C//DTD SVG 1.1//EN" "http://www.w3.org/Graphics/SVG/1.1/DTD/svg11.dtd">
<!-- Creator: CorelDRAW 2019 (64-Bit) -->
<svg xmlns="http://www.w3.org/2000/svg" xml:space="preserve" width="1.71096cm" height="0.50799cm" version="1.1" style="shape-rendering:geometricPrecision; text-rendering:geometricPrecision; image-rendering:optimizeQuality; fill-rule:evenodd; clip-rule:evenodd"
viewBox="0 0 1.335 0.396"
 xmlns:xlink="http://www.w3.org/1999/xlink"
 xmlns:xodm="http://www.corel.com/coreldraw/odm/2003">
 <defs>
  <style type="text/css">
   <![CDATA[
    .fil0 {fill:#9C6921;fill-rule:nonzero}
   ]]>
  </style>
 </defs>
 <g id="Слой_x0020_1">
  <metadata id="CorelCorpID_0Corel-Layer"/>
  <path class="fil0" d="M-0 0l0.129 0 0 0.02 -0.02 0c-0.006,0 -0.01,0.002 -0.013,0.005 -0.003,0.003 -0.004,0.009 -0.004,0.016l0 0.229c0,0.008 0.002,0.013 0.005,0.016 0.003,0.003 0.009,0.004 0.018,0.004l0.055 0c0.009,0 0.015,-0.002 0.018,-0.004 0.003,-0.003 0.005,-0.008 0.005,-0.016l0 -0.229c0,-0.007 -0.001,-0.013 -0.004,-0.016 -0.003,-0.003 -0.008,-0.005 -0.014,-0.005l-0.004 0 -0.015 0 0 -0.02 0.121 0 0 0.02 -0.02 0c-0.006,0 -0.01,0.002 -0.013,0.005 -0.003,0.003 -0.004,0.009 -0.004,0.016l0 0.229c0,0.008 0.002,0.013 0.005,0.016 0.003,0.003 0.009,0.004 0.018,0.004l0.053 0c0.009,0 0.015,-0.002 0.018,-0.004 0.003,-0.003 0.005,-0.008 0.005,-0.016l0 -0.229c0,-0.007 -0.001,-0.013 -0.004,-0.016 -0.003,-0.003 -0.008,-0.005 -0.014,-0.005l-0.004 0 -0.015 0 0 -0.02 0.13 0 0 0.02 -0.028 0c-0.006,0 -0.01,0.002 -0.013,0.005 -0.003,0.003 -0.004,0.009 -0.004,0.016l0 0.229c0,0.008 0.002,0.013 0.005,0.016 0.003,0.003 0.009,0.004 0.018,0.004l0.023 0 0 0.106 -0.019 0c-0.006,-0.034 -0.015,-0.057 -0.028,-0.068 -0.013,-0.012 -0.043,-0.017 -0.089,-0.017l-0.294 0 0 -0.02 0.022 0c0.009,0 0.015,-0.002 0.018,-0.004 0.003,-0.003 0.005,-0.008 0.005,-0.016l0 -0.229c0,-0.007 -0.001,-0.013 -0.004,-0.016 -0.003,-0.003 -0.008,-0.005 -0.014,-0.005l-0.004 0 -0.022 0 0 -0.02zm0.576 0.047c0,-0.006 0.002,-0.012 0.007,-0.017 0.005,-0.005 0.01,-0.007 0.017,-0.007 0.006,0 0.012,0.002 0.016,0.007 0.005,0.005 0.007,0.01 0.007,0.017 0,0.007 -0.002,0.012 -0.007,0.017 -0.004,0.005 -0.01,0.007 -0.017,0.007 -0.007,0 -0.012,-0.002 -0.017,-0.007 -0.005,-0.004 -0.007,-0.01 -0.007,-0.017zm-0.076 0c0,-0.006 0.002,-0.012 0.007,-0.017 0.005,-0.005 0.01,-0.007 0.017,-0.007 0.006,0 0.012,0.002 0.016,0.007 0.005,0.005 0.007,0.01 0.007,0.017 0,0.007 -0.002,0.012 -0.007,0.017 -0.004,0.005 -0.01,0.007 -0.017,0.007 -0.007,0 -0.013,-0.002 -0.017,-0.007 -0.005,-0.004 -0.007,-0.01 -0.007,-0.017zm0.091 0.149c0.006,0 0.01,-0.001 0.012,-0.003 0.002,-0.002 0.003,-0.006 0.003,-0.011 0,-0.019 -0.004,-0.034 -0.012,-0.045 -0.008,-0.01 -0.019,-0.016 -0.034,-0.016 -0.016,0 -0.029,0.006 -0.037,0.018 -0.008,0.012 -0.012,0.031 -0.013,0.056l0.08 0zm0.045 0.053l0.015 0.009c-0.009,0.02 -0.022,0.035 -0.037,0.045 -0.015,0.01 -0.033,0.015 -0.054,0.015 -0.028,0 -0.05,-0.01 -0.067,-0.03 -0.017,-0.02 -0.026,-0.045 -0.026,-0.077 0,-0.032 0.009,-0.057 0.026,-0.077 0.017,-0.02 0.04,-0.03 0.067,-0.03 0.028,0 0.05,0.009 0.067,0.027 0.016,0.018 0.025,0.043 0.025,0.074 0,0.001 -0,0.002 -0,0.004 -0,0.002 -0,0.003 -0,0.004l-0.14 0c0,0.001 -0,0.003 -0,0.004 -0,0.002 -0,0.003 -0,0.004 0,0.022 0.005,0.04 0.016,0.053 0.01,0.013 0.024,0.02 0.042,0.02 0.015,0 0.028,-0.004 0.039,-0.012 0.011,-0.008 0.021,-0.019 0.029,-0.035zm0.079 0.062l0 -0.018 0.02 -0.001c0.006,-0 0.01,-0.001 0.012,-0.003 0.002,-0.002 0.003,-0.006 0.003,-0.012l0 -0.135c0,-0.004 -0.001,-0.007 -0.003,-0.009 -0.002,-0.002 -0.006,-0.003 -0.011,-0.003 -0.015,0 -0.027,0.004 -0.033,0.013 -0.007,0.009 -0.012,0.025 -0.017,0.05l-0.014 0 0.004 -0.081 0.187 0 0.004 0.081 -0.014 0c-0.005,-0.025 -0.01,-0.042 -0.017,-0.051 -0.007,-0.008 -0.018,-0.013 -0.033,-0.013 -0.005,0 -0.009,0.001 -0.011,0.003 -0.002,0.002 -0.003,0.006 -0.003,0.012l0 0.132c0,0.006 0.001,0.01 0.003,0.012 0.002,0.002 0.006,0.003 0.012,0.003l0.02 0.001 0 0.018 -0.108 0zm0.174 0l0 -0.018 0.02 -0.001c0.006,-0 0.01,-0.001 0.012,-0.003 0.002,-0.002 0.003,-0.006 0.003,-0.012l0 -0.13c0,-0.006 -0.001,-0.01 -0.003,-0.013 -0.002,-0.002 -0.006,-0.003 -0.012,-0.003l-0.02 -0.001 0 -0.018 0.108 0 0 0.018 -0.02 0.001c-0.006,0 -0.01,0.001 -0.012,0.003 -0.002,0.002 -0.003,0.006 -0.003,0.013l0 0.052 0.013 0c0.013,0 0.023,-0.002 0.029,-0.007 0.006,-0.005 0.011,-0.013 0.013,-0.025 0.001,-0.003 0.002,-0.008 0.003,-0.015 0.006,-0.032 0.02,-0.048 0.041,-0.048 0.011,0 0.02,0.003 0.026,0.009 0.007,0.006 0.01,0.014 0.01,0.023 0,0.007 -0.002,0.013 -0.006,0.017 -0.004,0.004 -0.009,0.006 -0.016,0.006 -0.006,0 -0.011,-0.002 -0.015,-0.005 -0.004,-0.003 -0.005,-0.007 -0.005,-0.013 0,-0.004 0.001,-0.008 0.004,-0.011 0.003,-0.004 0.004,-0.006 0.004,-0.007 0,-0.001 -0.001,-0.002 -0.002,-0.003 -0.001,-0.001 -0.003,-0.001 -0.004,-0.001 -0.009,0 -0.016,0.011 -0.021,0.033l0 0 -0 0.001c-0.005,0.027 -0.014,0.044 -0.027,0.05 0.013,0.002 0.023,0.006 0.029,0.011 0.007,0.005 0.012,0.013 0.015,0.024 0.002,0.007 0.004,0.016 0.006,0.028 0.003,0.018 0.008,0.028 0.015,0.028 0.004,0 0.008,-0.002 0.01,-0.006 0.002,-0.004 0.003,-0.009 0.003,-0.017l0 -0.005 0.013 0c0,0.002 0,0.003 0,0.004 0,0.001 0,0.002 0,0.002 0,0.015 -0.003,0.026 -0.009,0.033 -0.006,0.007 -0.015,0.011 -0.028,0.011 -0.022,0 -0.036,-0.018 -0.041,-0.053 -0.001,-0.006 -0.002,-0.011 -0.002,-0.014 -0.002,-0.014 -0.006,-0.024 -0.011,-0.029 -0.005,-0.005 -0.014,-0.007 -0.026,-0.007l-0.004 0 -0.018 0 0 0.062c0,0.006 0.001,0.01 0.003,0.012 0.002,0.002 0.006,0.003 0.012,0.003l0.02 0.001 0 0.018 -0.108 0zm0.367 -0.107c-0.032,0.004 -0.055,0.011 -0.07,0.02 -0.015,0.009 -0.022,0.021 -0.022,0.036 0,0.012 0.003,0.021 0.008,0.026 0.006,0.006 0.014,0.009 0.026,0.009 0.018,0 0.032,-0.005 0.042,-0.016 0.01,-0.011 0.016,-0.026 0.016,-0.046l0 -0.028zm0.003 0.08c-0.008,0.01 -0.019,0.019 -0.033,0.025 -0.014,0.006 -0.029,0.01 -0.044,0.01 -0.018,0 -0.032,-0.005 -0.043,-0.014 -0.011,-0.01 -0.016,-0.022 -0.016,-0.038 0,-0.021 0.01,-0.037 0.031,-0.05 0.021,-0.012 0.055,-0.023 0.103,-0.03l0 -0.031c0,-0.01 -0.004,-0.018 -0.012,-0.023 -0.008,-0.005 -0.019,-0.008 -0.034,-0.008 -0.011,0 -0.021,0.002 -0.028,0.005 -0.007,0.003 -0.011,0.007 -0.011,0.011 0,0.001 0.002,0.004 0.005,0.008 0.003,0.005 0.005,0.01 0.005,0.016 0,0.007 -0.002,0.012 -0.006,0.016 -0.004,0.004 -0.009,0.006 -0.016,0.006 -0.008,0 -0.014,-0.002 -0.019,-0.007 -0.005,-0.004 -0.007,-0.01 -0.007,-0.018 0,-0.016 0.008,-0.029 0.023,-0.039 0.016,-0.01 0.035,-0.016 0.06,-0.016 0.027,0 0.047,0.005 0.06,0.015 0.013,0.01 0.019,0.026 0.019,0.048l0 0 0 0.102c0,0.006 0.001,0.01 0.004,0.013 0.003,0.003 0.007,0.005 0.012,0.005 0.003,0 0.007,-0.001 0.01,-0.003 0.004,-0.002 0.006,-0.003 0.007,-0.003 0.002,0 0.003,0.001 0.004,0.002 0.001,0.001 0.002,0.003 0.002,0.005 0,0.006 -0.004,0.012 -0.012,0.017 -0.008,0.006 -0.017,0.009 -0.028,0.009 -0.01,0 -0.018,-0.003 -0.025,-0.008 -0.006,-0.006 -0.01,-0.013 -0.012,-0.024z"/>
 </g>
</svg>
