<?xml version="1.0" encoding="UTF-8"?>
<!DOCTYPE svg PUBLIC "-//W3C//DTD SVG 1.1//EN" "http://www.w3.org/Graphics/SVG/1.1/DTD/svg11.dtd">
<!-- Creator: CorelDRAW 2019 (64-Bit) -->
<svg xmlns="http://www.w3.org/2000/svg" xml:space="preserve" width="1.74856cm" height="0.508cm" version="1.1" style="shape-rendering:geometricPrecision; text-rendering:geometricPrecision; image-rendering:optimizeQuality; fill-rule:evenodd; clip-rule:evenodd"
viewBox="0 0 1.395 0.405"
 xmlns:xlink="http://www.w3.org/1999/xlink"
 xmlns:xodm="http://www.corel.com/coreldraw/odm/2003">
 <defs>
  <style type="text/css">
   <![CDATA[
    .fil0 {fill:#9C6921;fill-rule:nonzero}
   ]]>
  </style>
 </defs>
 <g id="Слой_x0020_1">
  <metadata id="CorelCorpID_0Corel-Layer"/>
  <path class="fil0" d="M-0 0l0.131 0 0 0.02 -0.02 0c-0.006,0 -0.011,0.002 -0.013,0.005 -0.003,0.003 -0.004,0.009 -0.004,0.016l0 0.232c0,0.008 0.002,0.014 0.005,0.017 0.003,0.003 0.009,0.005 0.018,0.005l0.056 0c0.009,0 0.015,-0.002 0.018,-0.005 0.003,-0.003 0.005,-0.008 0.005,-0.017l0 -0.232c0,-0.007 -0.001,-0.013 -0.004,-0.016 -0.003,-0.003 -0.008,-0.005 -0.014,-0.005l-0.004 0 -0.015 0 0 -0.02 0.123 0 0 0.02 -0.02 0c-0.006,0 -0.01,0.002 -0.013,0.005 -0.003,0.003 -0.004,0.009 -0.004,0.016l0 0.232c0,0.008 0.002,0.014 0.005,0.017 0.003,0.003 0.009,0.005 0.018,0.005l0.054 0c0.009,0 0.015,-0.002 0.018,-0.005 0.003,-0.003 0.005,-0.008 0.005,-0.017l0 -0.232c0,-0.007 -0.001,-0.013 -0.004,-0.016 -0.003,-0.003 -0.008,-0.005 -0.014,-0.005l-0.004 0 -0.015 0 0 -0.02 0.131 0 0 0.02 -0.029 0c-0.006,0 -0.01,0.002 -0.013,0.005 -0.003,0.003 -0.004,0.009 -0.004,0.016l0 0.232c0,0.008 0.002,0.014 0.005,0.017 0.003,0.003 0.009,0.005 0.018,0.005l0.023 0 0 0.02 -0.435 0 0 -0.02 0.023 0c0.009,0 0.015,-0.002 0.018,-0.005 0.003,-0.003 0.005,-0.008 0.005,-0.017l0 -0.232c0,-0.007 -0.001,-0.013 -0.004,-0.016 -0.003,-0.003 -0.008,-0.005 -0.014,-0.005l-0.004 0 -0.023 0 0 -0.02zm0.561 0.309l-0.069 -0.159c-0.003,-0.007 -0.007,-0.012 -0.011,-0.015 -0.005,-0.003 -0.011,-0.004 -0.02,-0.004l-0.003 0 0 -0.018 0.102 0 0 0.018 -0.012 0 -0.006 0c-0.004,0 -0.006,0.001 -0.008,0.002 -0.002,0.002 -0.003,0.004 -0.003,0.007 0,0.001 0,0.003 0.001,0.005 0.001,0.002 0.002,0.005 0.003,0.008l0.046 0.106 0.043 -0.104c0.001,-0.001 0.001,-0.003 0.002,-0.005 0,-0.002 0.001,-0.003 0.001,-0.005 0,-0.006 -0.002,-0.009 -0.006,-0.011 -0.004,-0.002 -0.012,-0.003 -0.025,-0.003l-0 -0.018 0.084 0 0 0.018c-0.008,0 -0.015,0.002 -0.02,0.005 -0.005,0.004 -0.009,0.01 -0.013,0.018l-0.074 0.171c-0.012,0.029 -0.025,0.049 -0.038,0.061 -0.013,0.012 -0.028,0.018 -0.046,0.018 -0.012,0 -0.022,-0.003 -0.029,-0.009 -0.007,-0.006 -0.011,-0.014 -0.011,-0.025 0,-0.007 0.003,-0.013 0.008,-0.018 0.005,-0.005 0.011,-0.008 0.019,-0.008 0.007,0 0.013,0.002 0.017,0.006 0.004,0.004 0.006,0.01 0.006,0.017 0,0.002 -0.001,0.005 -0.002,0.007 -0.001,0.002 -0.002,0.004 -0.002,0.004 0,0.002 0.001,0.003 0.002,0.004 0.001,0.001 0.003,0.001 0.006,0.001 0.008,0 0.017,-0.006 0.027,-0.019 0.01,-0.012 0.019,-0.029 0.028,-0.05l0.003 -0.007zm0.487 -0.013l0 0.018 -0.348 0 0 -0.018 0.016 -0.001c0.006,-0 0.01,-0.001 0.012,-0.003 0.002,-0.002 0.003,-0.006 0.003,-0.013l0 -0.131c0,-0.007 -0.001,-0.011 -0.003,-0.013 -0.002,-0.002 -0.006,-0.003 -0.012,-0.003l-0.016 -0.001 0 -0.018 0.101 0 0 0.018 -0.016 0.001c-0.006,0 -0.01,0.001 -0.012,0.003 -0.002,0.002 -0.003,0.006 -0.003,0.012l0 0.132c0,0.007 0.001,0.011 0.003,0.013 0.002,0.002 0.006,0.003 0.011,0.003l0.054 0c0.006,0 0.01,-0.001 0.012,-0.003 0.002,-0.002 0.003,-0.006 0.003,-0.013l0 -0.131c0,-0.006 -0.001,-0.011 -0.003,-0.013 -0.002,-0.002 -0.006,-0.003 -0.012,-0.003l-0.016 -0.001 0 -0.018 0.101 0 0 0.018 -0.016 0.001c-0.006,0 -0.01,0.001 -0.012,0.003 -0.002,0.002 -0.003,0.006 -0.003,0.011l0 0.132c0,0.007 0.001,0.011 0.003,0.013 0.002,0.002 0.006,0.003 0.012,0.003l0.054 0c0.006,0 0.01,-0.001 0.012,-0.003 0.002,-0.002 0.003,-0.006 0.003,-0.013l0 -0.131c0,-0.006 -0.001,-0.011 -0.003,-0.013 -0.002,-0.002 -0.006,-0.003 -0.012,-0.003l-0.016 -0.001 0 -0.018 0.101 0 0 0.018 -0.016 0.001c-0.006,0 -0.01,0.001 -0.012,0.003 -0.002,0.002 -0.003,0.006 -0.003,0.013l0 0.131c0,0.007 0.001,0.011 0.003,0.013 0.002,0.002 0.006,0.003 0.012,0.003l0.016 0.001zm0.238 0.018l0 -0.018 0.02 -0.001c0.006,-0 0.01,-0.001 0.012,-0.003 0.002,-0.002 0.003,-0.006 0.003,-0.013l0 -0.131c0,-0.006 -0.001,-0.011 -0.003,-0.013 -0.002,-0.002 -0.006,-0.003 -0.012,-0.003l-0.02 -0.001 0 -0.018 0.109 0 0 0.018 -0.02 0.001c-0.006,0 -0.01,0.001 -0.012,0.003 -0.002,0.002 -0.003,0.006 -0.003,0.013l0 0.131c0,0.006 0.001,0.011 0.003,0.013 0.002,0.002 0.006,0.003 0.012,0.003l0.02 0.001 0 0.018 -0.109 0zm-0.134 -0.101l0 0.066c0,0.007 0.001,0.011 0.003,0.013 0.002,0.002 0.006,0.003 0.012,0.003l0.017 0c0.018,0 0.031,-0.003 0.039,-0.009 0.008,-0.006 0.012,-0.016 0.012,-0.03 0,-0.016 -0.004,-0.027 -0.013,-0.034 -0.009,-0.007 -0.025,-0.01 -0.047,-0.01l-0.021 0zm0 -0.018l0.043 0c0.027,0 0.048,0.005 0.062,0.015 0.014,0.01 0.021,0.024 0.021,0.043 0,0.02 -0.007,0.035 -0.02,0.045 -0.013,0.01 -0.032,0.015 -0.058,0.015l-0.124 0 0 -0.018 0.02 -0.001c0.006,-0 0.01,-0.001 0.012,-0.003 0.002,-0.002 0.003,-0.006 0.003,-0.013l0 -0.131c0,-0.006 -0.001,-0.011 -0.003,-0.013 -0.002,-0.002 -0.006,-0.003 -0.012,-0.003l-0.02 -0.001 0 -0.018 0.109 0 0 0.018 -0.02 0.001c-0.006,0 -0.01,0.001 -0.012,0.003 -0.002,0.002 -0.003,0.006 -0.003,0.013l0 0.047z"/>
 </g>
</svg>
