<?xml version="1.0" encoding="UTF-8"?>
<!DOCTYPE svg PUBLIC "-//W3C//DTD SVG 1.1//EN" "http://www.w3.org/Graphics/SVG/1.1/DTD/svg11.dtd">
<!-- Creator: CorelDRAW 2019 (64-Bit) -->
<svg xmlns="http://www.w3.org/2000/svg" xml:space="preserve" width="1.17677cm" height="0.4064cm" version="1.1" style="shape-rendering:geometricPrecision; text-rendering:geometricPrecision; image-rendering:optimizeQuality; fill-rule:evenodd; clip-rule:evenodd"
viewBox="0 0 0.632 0.218"
 xmlns:xlink="http://www.w3.org/1999/xlink"
 xmlns:xodm="http://www.corel.com/coreldraw/odm/2003">
 <defs>
  <style type="text/css">
   <![CDATA[
    .fil0 {fill:#9C6921;fill-rule:nonzero}
   ]]>
  </style>
 </defs>
 <g id="Слой_x0020_1">
  <metadata id="CorelCorpID_0Corel-Layer"/>
  <path class="fil0" d="M0.163 0.14l0.014 0.002c-0.003,0.024 -0.012,0.043 -0.027,0.056 -0.015,0.014 -0.033,0.02 -0.055,0.02 -0.028,0 -0.05,-0.01 -0.068,-0.031 -0.018,-0.021 -0.027,-0.046 -0.027,-0.078 0,-0.032 0.009,-0.058 0.027,-0.079 0.018,-0.021 0.04,-0.031 0.067,-0.031 0.01,0 0.019,0.002 0.028,0.005 0.009,0.003 0.017,0.008 0.024,0.014l0.011 -0.018 0.011 0 0.004 0.084 -0.011 0.001c-0.004,-0.024 -0.012,-0.042 -0.022,-0.054 -0.011,-0.012 -0.024,-0.019 -0.04,-0.019 -0.02,0 -0.035,0.008 -0.045,0.024 -0.01,0.016 -0.015,0.04 -0.015,0.072 0,0.033 0.005,0.057 0.015,0.072 0.01,0.015 0.026,0.023 0.047,0.023 0.017,0 0.03,-0.005 0.041,-0.016 0.011,-0.011 0.019,-0.027 0.023,-0.048zm0.141 -0.037c0,-0.004 -0.001,-0.007 -0.002,-0.008 -0.001,-0.001 -0.004,-0.002 -0.008,-0.002l-0.013 -0.001 0 -0.012 0.072 0 0 0.012 -0.013 0.001c-0.004,0 -0.007,0.001 -0.008,0.002 -0.001,0.001 -0.002,0.004 -0.002,0.008l0 0.087c0,0.004 0.001,0.007 0.002,0.008 0.001,0.001 0.004,0.002 0.008,0.002l0.013 0.001 0 0.012 -0.072 0 0 -0.012 0.013 -0.001c0.004,-0 0.007,-0.001 0.008,-0.002 0.001,-0.001 0.002,-0.004 0.002,-0.008l0 -0.065 -0.06 0.062 0 0.003c0,0.004 0.001,0.006 0.002,0.008 0.001,0.001 0.004,0.002 0.008,0.002l0.013 0.001 0 0.012 -0.072 0 0 -0.012 0.013 -0.001c0.004,-0 0.007,-0.001 0.008,-0.002 0.001,-0.001 0.002,-0.004 0.002,-0.008l0 -0.087c0,-0.004 -0.001,-0.007 -0.002,-0.008 -0.001,-0.001 -0.004,-0.002 -0.008,-0.002l-0.013 -0.001 0 -0.012 0.072 0 0 0.012 -0.013 0.001c-0.004,0 -0.007,0.001 -0.008,0.002 -0.001,0.001 -0.002,0.004 -0.002,0.008l0 0.066 0.06 -0.062 0 -0.004zm0.077 -0.027l0.008 0 0.007 0.012c0.005,-0.004 0.01,-0.007 0.016,-0.009 0.006,-0.002 0.012,-0.003 0.018,-0.003 0.013,0 0.024,0.003 0.032,0.009 0.008,0.006 0.012,0.015 0.012,0.025 0,0.008 -0.003,0.015 -0.008,0.02 -0.005,0.005 -0.013,0.009 -0.024,0.011 0.012,0.001 0.021,0.005 0.027,0.011 0.007,0.006 0.01,0.014 0.01,0.024 0,0.013 -0.005,0.023 -0.016,0.03 -0.011,0.007 -0.025,0.011 -0.043,0.011 -0.015,0 -0.027,-0.003 -0.036,-0.009 -0.009,-0.006 -0.013,-0.015 -0.013,-0.025 0,-0.006 0.002,-0.012 0.005,-0.016 0.003,-0.004 0.008,-0.006 0.013,-0.006 0.005,0 0.009,0.001 0.012,0.004 0.003,0.003 0.004,0.006 0.004,0.011 0,0.006 -0.002,0.01 -0.007,0.012 -0.005,0.002 -0.007,0.004 -0.007,0.004 0,0.004 0.002,0.007 0.008,0.009 0.005,0.003 0.011,0.004 0.019,0.004 0.01,0 0.018,-0.003 0.024,-0.008 0.006,-0.005 0.009,-0.012 0.009,-0.021 0,-0.01 -0.002,-0.017 -0.008,-0.022 -0.005,-0.005 -0.013,-0.007 -0.025,-0.007l-0.008 0 0 -0.011 0.007 0c0.01,0 0.017,-0.002 0.022,-0.007 0.005,-0.004 0.008,-0.011 0.008,-0.02 0,-0.007 -0.002,-0.013 -0.006,-0.018 -0.004,-0.004 -0.009,-0.007 -0.016,-0.007 -0.008,0 -0.016,0.003 -0.022,0.01 -0.006,0.007 -0.011,0.016 -0.013,0.027l-0.01 0 0.002 -0.048zm0.167 0.059l0.028 0c0.018,0 0.032,0.003 0.041,0.01 0.009,0.007 0.014,0.016 0.014,0.029 0,0.013 -0.004,0.023 -0.013,0.03 -0.009,0.007 -0.021,0.01 -0.038,0.01l-0.082 0 0 -0.012 0.013 -0.001c0.004,-0 0.007,-0.001 0.008,-0.002 0.001,-0.001 0.002,-0.004 0.002,-0.008l0 -0.087c0,-0.004 -0.001,-0.007 -0.002,-0.008 -0.001,-0.001 -0.004,-0.002 -0.008,-0.002l-0.013 -0.001 0 -0.012 0.072 0 0 0.012 -0.013 0.001c-0.004,0 -0.007,0.001 -0.008,0.002 -0.001,0.001 -0.002,0.004 -0.002,0.008l0 0.031zm0 0.012l0 0.044c0,0.004 0.001,0.007 0.002,0.009 0.001,0.001 0.004,0.002 0.008,0.002l0.011 0c0.012,0 0.02,-0.002 0.026,-0.006 0.005,-0.004 0.008,-0.011 0.008,-0.02 0,-0.011 -0.003,-0.018 -0.009,-0.022 -0.006,-0.004 -0.016,-0.006 -0.031,-0.006l-0.014 0z"/>
 </g>
</svg>
