<?xml version="1.0" encoding="UTF-8"?>
<!DOCTYPE svg PUBLIC "-//W3C//DTD SVG 1.1//EN" "http://www.w3.org/Graphics/SVG/1.1/DTD/svg11.dtd">
<!-- Creator: CorelDRAW -->
<svg xmlns="http://www.w3.org/2000/svg" xml:space="preserve" width="78.9232mm" height="55.4595mm" version="1.1" style="shape-rendering:geometricPrecision; text-rendering:geometricPrecision; image-rendering:optimizeQuality; fill-rule:evenodd; clip-rule:evenodd"
viewBox="0 0 148.31 104.22"
 xmlns:xlink="http://www.w3.org/1999/xlink"
 xmlns:xodm="http://www.corel.com/coreldraw/odm/2003">
 <defs>
  <style type="text/css">
   <![CDATA[
    .fil0 {fill:#656551;fill-rule:nonzero}
   ]]>
  </style>
 </defs>
 <g id="Слой_x0020_1">
  <metadata id="CorelCorpID_0Corel-Layer"/>
  <path class="fil0" d="M62.4 99.78l0.94 0.24c-0.2,0.77 -0.55,1.35 -1.06,1.76 -0.51,0.4 -1.13,0.61 -1.87,0.61 -0.76,0 -1.38,-0.15 -1.86,-0.47 -0.48,-0.31 -0.84,-0.76 -1.09,-1.35 -0.25,-0.59 -0.37,-1.22 -0.37,-1.89 0,-0.74 0.14,-1.38 0.42,-1.93 0.28,-0.55 0.68,-0.96 1.2,-1.25 0.52,-0.28 1.09,-0.43 1.71,-0.43 0.71,0 1.3,0.18 1.78,0.54 0.48,0.36 0.82,0.87 1.01,1.52l-0.92 0.22c-0.16,-0.51 -0.4,-0.89 -0.71,-1.12 -0.31,-0.24 -0.7,-0.35 -1.18,-0.35 -0.54,0 -1,0.13 -1.36,0.39 -0.36,0.26 -0.62,0.61 -0.77,1.05 -0.15,0.44 -0.22,0.89 -0.22,1.36 0,0.6 0.09,1.13 0.26,1.57 0.17,0.45 0.45,0.78 0.81,1.01 0.37,0.22 0.77,0.33 1.2,0.33 0.52,0 0.96,-0.15 1.33,-0.45 0.36,-0.3 0.61,-0.75 0.74,-1.35z"/>
  <path id="_1" class="fil0" d="M64.39 97.13l0.87 0 0 2.14 1.06 0c0.08,-0.73 0.31,-1.29 0.69,-1.67 0.38,-0.39 0.88,-0.58 1.48,-0.58 0.52,0 0.92,0.1 1.22,0.31 0.3,0.21 0.55,0.5 0.74,0.86 0.19,0.37 0.29,0.86 0.29,1.48 0,0.88 -0.2,1.55 -0.6,2.01 -0.4,0.46 -0.95,0.68 -1.63,0.68 -0.64,0 -1.15,-0.21 -1.54,-0.64 -0.39,-0.42 -0.6,-1.01 -0.65,-1.74l-1.06 0 0 2.27 -0.87 0 0 -5.12zm4.14 0.63c-0.42,0 -0.76,0.16 -0.99,0.49 -0.24,0.32 -0.36,0.78 -0.36,1.37 0,0.7 0.12,1.22 0.36,1.54 0.24,0.33 0.56,0.49 0.96,0.49 0.4,0 0.72,-0.15 0.97,-0.45 0.25,-0.3 0.38,-0.79 0.38,-1.46 0,-0.66 -0.11,-1.15 -0.33,-1.48 -0.22,-0.33 -0.55,-0.49 -0.99,-0.49z"/>
  <path id="_2" class="fil0" d="M71.79 104.22l0 -7.09 0.79 0 0 0.67c0.19,-0.26 0.4,-0.46 0.63,-0.59 0.23,-0.13 0.52,-0.2 0.85,-0.2 0.44,0 0.82,0.11 1.16,0.34 0.33,0.22 0.59,0.54 0.76,0.95 0.17,0.41 0.26,0.86 0.26,1.35 0,0.52 -0.09,0.99 -0.28,1.41 -0.19,0.42 -0.46,0.74 -0.82,0.96 -0.36,0.22 -0.73,0.33 -1.13,0.33 -0.29,0 -0.55,-0.06 -0.78,-0.18 -0.23,-0.12 -0.42,-0.27 -0.57,-0.46l0 2.5 -0.87 0zm0.79 -4.5c0,0.66 0.13,1.14 0.4,1.46 0.27,0.31 0.59,0.47 0.97,0.47 0.39,0 0.71,-0.16 0.99,-0.49 0.27,-0.33 0.41,-0.83 0.41,-1.51 0,-0.65 -0.13,-1.14 -0.4,-1.46 -0.27,-0.32 -0.59,-0.49 -0.96,-0.49 -0.37,0 -0.69,0.17 -0.98,0.52 -0.28,0.35 -0.43,0.85 -0.43,1.5z"/>
  <path id="_3" class="fil0" d="M80.78 100.6l0.9 0.12c-0.14,0.52 -0.4,0.93 -0.78,1.22 -0.38,0.29 -0.87,0.43 -1.46,0.43 -0.75,0 -1.34,-0.23 -1.78,-0.69 -0.44,-0.46 -0.66,-1.11 -0.66,-1.94 0,-0.86 0.22,-1.53 0.66,-2 0.44,-0.48 1.02,-0.71 1.72,-0.71 0.68,0 1.24,0.23 1.67,0.7 0.43,0.47 0.65,1.12 0.65,1.96 0,0.05 -0,0.13 -0.01,0.23l-3.82 0c0.03,0.56 0.19,0.99 0.48,1.29 0.28,0.3 0.64,0.45 1.07,0.45 0.32,0 0.59,-0.08 0.81,-0.25 0.23,-0.17 0.4,-0.44 0.53,-0.8zm-2.84 -1.39l2.85 0c-0.04,-0.43 -0.15,-0.75 -0.33,-0.97 -0.27,-0.33 -0.63,-0.5 -1.07,-0.5 -0.4,0 -0.73,0.13 -1,0.4 -0.27,0.27 -0.42,0.62 -0.45,1.07z"/>
  <path id="_4" class="fil0" d="M86.12 100.38l0.85 0.12c-0.09,0.58 -0.33,1.04 -0.71,1.37 -0.38,0.33 -0.86,0.5 -1.41,0.5 -0.7,0 -1.26,-0.23 -1.69,-0.69 -0.43,-0.46 -0.64,-1.11 -0.64,-1.96 0,-0.55 0.09,-1.04 0.27,-1.45 0.18,-0.41 0.46,-0.72 0.84,-0.93 0.37,-0.21 0.78,-0.31 1.22,-0.31 0.55,0 1.01,0.14 1.36,0.42 0.35,0.28 0.58,0.68 0.68,1.2l-0.84 0.13c-0.08,-0.34 -0.22,-0.6 -0.43,-0.78 -0.2,-0.17 -0.45,-0.26 -0.74,-0.26 -0.44,0 -0.79,0.16 -1.07,0.47 -0.27,0.31 -0.41,0.81 -0.41,1.49 0,0.69 0.13,1.19 0.39,1.5 0.26,0.31 0.61,0.47 1.03,0.47 0.34,0 0.63,-0.1 0.85,-0.31 0.23,-0.21 0.37,-0.53 0.43,-0.96z"/>
  <path class="fil0" d="M67.14 4.71l0.94 0.24c-0.2,0.77 -0.55,1.35 -1.06,1.76 -0.51,0.4 -1.13,0.61 -1.87,0.61 -0.76,0 -1.38,-0.15 -1.86,-0.47 -0.48,-0.31 -0.84,-0.76 -1.09,-1.35 -0.25,-0.59 -0.37,-1.22 -0.37,-1.89 0,-0.74 0.14,-1.38 0.42,-1.93 0.28,-0.55 0.68,-0.96 1.2,-1.25 0.52,-0.28 1.09,-0.43 1.71,-0.43 0.71,0 1.3,0.18 1.78,0.54 0.48,0.36 0.82,0.87 1.01,1.52l-0.92 0.22c-0.16,-0.51 -0.4,-0.89 -0.71,-1.12 -0.31,-0.24 -0.7,-0.35 -1.18,-0.35 -0.54,0 -1,0.13 -1.36,0.39 -0.36,0.26 -0.62,0.61 -0.77,1.05 -0.15,0.44 -0.22,0.89 -0.22,1.36 0,0.6 0.09,1.13 0.26,1.57 0.17,0.45 0.45,0.78 0.81,1.01 0.37,0.22 0.77,0.33 1.2,0.33 0.52,0 0.96,-0.15 1.33,-0.45 0.36,-0.3 0.61,-0.75 0.74,-1.35z"/>
  <path id="_1_0" class="fil0" d="M69.12 2.06l0.87 0 0 2.21c0.28,0 0.47,-0.05 0.58,-0.16 0.11,-0.11 0.27,-0.41 0.49,-0.92 0.17,-0.4 0.31,-0.67 0.41,-0.8 0.11,-0.13 0.23,-0.22 0.37,-0.26 0.14,-0.04 0.36,-0.07 0.67,-0.07l0.17 0 0 0.72 -0.24 -0c-0.23,0 -0.38,0.03 -0.44,0.1 -0.07,0.07 -0.17,0.28 -0.31,0.63 -0.13,0.34 -0.25,0.57 -0.36,0.7 -0.11,0.13 -0.28,0.25 -0.51,0.35 0.37,0.1 0.74,0.45 1.1,1.04l0.95 1.59 -0.95 0 -0.94 -1.58c-0.19,-0.32 -0.35,-0.53 -0.49,-0.63 -0.14,-0.1 -0.31,-0.15 -0.51,-0.15l0 2.37 -0.87 0 0 -5.12z"/>
  <path id="_2_1" class="fil0" d="M77.01 6.55c-0.32,0.27 -0.63,0.47 -0.93,0.58 -0.3,0.11 -0.62,0.17 -0.96,0.17 -0.56,0 -1,-0.14 -1.3,-0.41 -0.3,-0.27 -0.45,-0.62 -0.45,-1.05 0,-0.25 0.06,-0.48 0.17,-0.69 0.12,-0.21 0.26,-0.37 0.45,-0.5 0.19,-0.13 0.39,-0.22 0.63,-0.28 0.17,-0.04 0.43,-0.09 0.77,-0.13 0.7,-0.08 1.22,-0.18 1.55,-0.3 0,-0.12 0.01,-0.19 0.01,-0.23 0,-0.35 -0.08,-0.6 -0.25,-0.75 -0.22,-0.2 -0.55,-0.29 -0.99,-0.29 -0.41,0 -0.71,0.07 -0.91,0.22 -0.2,0.14 -0.34,0.4 -0.43,0.76l-0.85 -0.12c0.08,-0.36 0.2,-0.66 0.38,-0.88 0.18,-0.22 0.43,-0.4 0.77,-0.52 0.33,-0.12 0.72,-0.18 1.17,-0.18 0.44,0 0.79,0.05 1.07,0.15 0.27,0.1 0.48,0.23 0.6,0.39 0.13,0.16 0.22,0.35 0.27,0.59 0.03,0.15 0.04,0.41 0.04,0.8l0 1.15c0,0.8 0.02,1.31 0.05,1.53 0.03,0.22 0.11,0.42 0.21,0.62l-0.91 0c-0.09,-0.18 -0.14,-0.4 -0.17,-0.64zm-0.07 -1.93c-0.32,0.13 -0.79,0.24 -1.42,0.33 -0.36,0.05 -0.61,0.11 -0.76,0.17 -0.15,0.06 -0.26,0.16 -0.34,0.28 -0.08,0.12 -0.12,0.26 -0.12,0.41 0,0.23 0.09,0.42 0.26,0.57 0.18,0.15 0.43,0.23 0.77,0.23 0.33,0 0.63,-0.07 0.89,-0.22 0.26,-0.14 0.45,-0.34 0.57,-0.6 0.09,-0.2 0.14,-0.48 0.14,-0.86l0.01 -0.32z"/>
  <path id="_3_2" class="fil0" d="M79.58 2.06l4.04 0 0 5.12 -0.87 0 0 -4.4 -2.3 0 0 2.55c0,0.59 -0.02,0.99 -0.06,1.18 -0.04,0.19 -0.14,0.35 -0.32,0.5 -0.17,0.14 -0.42,0.21 -0.75,0.21 -0.2,0 -0.44,-0.01 -0.7,-0.04l0 -0.72 0.38 0c0.18,0 0.31,-0.02 0.39,-0.06 0.08,-0.04 0.13,-0.1 0.15,-0.18 0.02,-0.08 0.04,-0.34 0.04,-0.78l0 -3.38z"/>
  <path class="fil0" d="M5.3 75.68l0.94 0.24c-0.2,0.77 -0.55,1.35 -1.06,1.76 -0.51,0.4 -1.13,0.61 -1.87,0.61 -0.76,0 -1.38,-0.15 -1.86,-0.47 -0.48,-0.31 -0.84,-0.76 -1.09,-1.35 -0.25,-0.59 -0.37,-1.22 -0.37,-1.89 0,-0.74 0.14,-1.38 0.42,-1.93 0.28,-0.55 0.68,-0.96 1.2,-1.25 0.52,-0.28 1.09,-0.43 1.71,-0.43 0.71,0 1.3,0.18 1.78,0.54 0.48,0.36 0.82,0.87 1.01,1.52l-0.92 0.22c-0.16,-0.51 -0.4,-0.89 -0.71,-1.12 -0.31,-0.24 -0.7,-0.35 -1.18,-0.35 -0.54,0 -1,0.13 -1.36,0.39 -0.36,0.26 -0.62,0.61 -0.77,1.05 -0.15,0.44 -0.22,0.89 -0.22,1.36 0,0.6 0.09,1.13 0.26,1.57 0.17,0.45 0.45,0.78 0.81,1.01 0.37,0.22 0.77,0.33 1.2,0.33 0.52,0 0.96,-0.15 1.33,-0.45 0.36,-0.3 0.61,-0.75 0.74,-1.35z"/>
  <path id="_1_3" class="fil0" d="M11.33 73.04l0 5.12 -0.87 0 0 -1.99 -0.5 0c-0.3,0 -0.53,0.04 -0.68,0.12 -0.15,0.08 -0.37,0.33 -0.66,0.76l-0.76 1.12 -1.08 0 0.94 -1.38c0.29,-0.42 0.57,-0.66 0.86,-0.71 -0.5,-0.07 -0.86,-0.25 -1.1,-0.54 -0.24,-0.29 -0.36,-0.62 -0.36,-1 0,-0.45 0.16,-0.81 0.47,-1.08 0.31,-0.28 0.77,-0.42 1.37,-0.42l2.38 0zm-0.87 0.72l-1.23 0c-0.52,0 -0.85,0.08 -1,0.24 -0.15,0.16 -0.22,0.35 -0.22,0.57 0,0.31 0.11,0.53 0.33,0.67 0.22,0.14 0.61,0.22 1.17,0.22l0.96 0 0 -1.7z"/>
  <path id="_2_4" class="fil0" d="M15.98 76.29l0.85 0.12c-0.09,0.58 -0.33,1.04 -0.71,1.37 -0.38,0.33 -0.86,0.5 -1.41,0.5 -0.7,0 -1.26,-0.23 -1.69,-0.69 -0.43,-0.46 -0.64,-1.11 -0.64,-1.96 0,-0.55 0.09,-1.04 0.27,-1.45 0.18,-0.41 0.46,-0.72 0.84,-0.93 0.37,-0.21 0.78,-0.31 1.22,-0.31 0.55,0 1.01,0.14 1.36,0.42 0.35,0.28 0.58,0.68 0.68,1.2l-0.84 0.13c-0.08,-0.34 -0.22,-0.6 -0.43,-0.78 -0.2,-0.17 -0.45,-0.26 -0.74,-0.26 -0.44,0 -0.79,0.16 -1.07,0.47 -0.27,0.31 -0.41,0.81 -0.41,1.49 0,0.69 0.13,1.19 0.39,1.5 0.26,0.31 0.61,0.47 1.03,0.47 0.34,0 0.63,-0.1 0.85,-0.31 0.23,-0.21 0.37,-0.53 0.43,-0.96z"/>
  <path id="_3_5" class="fil0" d="M17.55 73.04l0.87 0 0 2 1.1 0c0.72,0 1.27,0.14 1.66,0.42 0.39,0.28 0.58,0.66 0.58,1.15 0,0.43 -0.16,0.79 -0.49,1.1 -0.32,0.3 -0.84,0.46 -1.55,0.46l-2.17 0 0 -5.12zm0.87 4.41l0.91 0c0.55,0 0.94,-0.07 1.18,-0.2 0.24,-0.13 0.35,-0.35 0.35,-0.63 0,-0.22 -0.09,-0.42 -0.26,-0.59 -0.17,-0.17 -0.56,-0.26 -1.16,-0.26l-1.03 0 0 1.69z"/>
  <path id="_4_6" class="fil0" d="M22.71 73.04l0.87 0 0 2.21c0.28,0 0.47,-0.05 0.58,-0.16 0.11,-0.11 0.27,-0.41 0.49,-0.92 0.17,-0.4 0.31,-0.67 0.41,-0.8 0.11,-0.13 0.23,-0.22 0.37,-0.26 0.14,-0.04 0.36,-0.07 0.67,-0.07l0.17 0 0 0.72 -0.24 -0c-0.23,0 -0.38,0.03 -0.44,0.1 -0.07,0.07 -0.17,0.28 -0.31,0.63 -0.13,0.34 -0.25,0.57 -0.36,0.7 -0.11,0.13 -0.28,0.25 -0.51,0.35 0.37,0.1 0.74,0.45 1.1,1.04l0.95 1.59 -0.95 0 -0.94 -1.58c-0.19,-0.32 -0.35,-0.53 -0.49,-0.63 -0.14,-0.1 -0.31,-0.15 -0.51,-0.15l0 2.37 -0.87 0 0 -5.12z"/>
  <path id="_5" class="fil0" d="M30.6 77.52c-0.32,0.27 -0.63,0.47 -0.93,0.58 -0.3,0.11 -0.62,0.17 -0.96,0.17 -0.56,0 -1,-0.14 -1.3,-0.41 -0.3,-0.27 -0.45,-0.62 -0.45,-1.05 0,-0.25 0.06,-0.48 0.17,-0.69 0.12,-0.21 0.26,-0.37 0.45,-0.5 0.19,-0.13 0.39,-0.22 0.63,-0.28 0.17,-0.04 0.43,-0.09 0.77,-0.13 0.7,-0.08 1.22,-0.18 1.55,-0.3 0,-0.12 0.01,-0.19 0.01,-0.23 0,-0.35 -0.08,-0.6 -0.25,-0.75 -0.22,-0.2 -0.55,-0.29 -0.99,-0.29 -0.41,0 -0.71,0.07 -0.91,0.22 -0.2,0.14 -0.34,0.4 -0.43,0.76l-0.85 -0.12c0.08,-0.36 0.2,-0.66 0.38,-0.88 0.18,-0.22 0.43,-0.4 0.77,-0.52 0.33,-0.12 0.72,-0.18 1.17,-0.18 0.44,0 0.79,0.05 1.07,0.15 0.27,0.1 0.48,0.23 0.6,0.39 0.13,0.16 0.22,0.35 0.27,0.59 0.03,0.15 0.04,0.41 0.04,0.8l0 1.15c0,0.8 0.02,1.31 0.05,1.53 0.03,0.22 0.11,0.42 0.21,0.62l-0.91 0c-0.09,-0.18 -0.14,-0.4 -0.17,-0.64zm-0.07 -1.93c-0.32,0.13 -0.79,0.24 -1.42,0.33 -0.36,0.05 -0.61,0.11 -0.76,0.17 -0.15,0.06 -0.26,0.16 -0.34,0.28 -0.08,0.12 -0.12,0.26 -0.12,0.41 0,0.23 0.09,0.42 0.26,0.57 0.18,0.15 0.43,0.23 0.77,0.23 0.33,0 0.63,-0.07 0.89,-0.22 0.26,-0.14 0.45,-0.34 0.57,-0.6 0.09,-0.2 0.14,-0.48 0.14,-0.86l0.01 -0.32z"/>
  <path class="fil0" d="M5.3 15.3l0.94 0.24c-0.2,0.77 -0.55,1.35 -1.06,1.76 -0.51,0.4 -1.13,0.61 -1.87,0.61 -0.76,0 -1.38,-0.15 -1.86,-0.47 -0.48,-0.31 -0.84,-0.76 -1.09,-1.35 -0.25,-0.59 -0.37,-1.22 -0.37,-1.89 0,-0.74 0.14,-1.38 0.42,-1.93 0.28,-0.55 0.68,-0.96 1.2,-1.25 0.52,-0.28 1.09,-0.43 1.71,-0.43 0.71,0 1.3,0.18 1.78,0.54 0.48,0.36 0.82,0.87 1.01,1.52l-0.92 0.22c-0.16,-0.51 -0.4,-0.89 -0.71,-1.12 -0.31,-0.24 -0.7,-0.35 -1.18,-0.35 -0.54,0 -1,0.13 -1.36,0.39 -0.36,0.26 -0.62,0.61 -0.77,1.05 -0.15,0.44 -0.22,0.89 -0.22,1.36 0,0.6 0.09,1.13 0.26,1.57 0.17,0.45 0.45,0.78 0.81,1.01 0.37,0.22 0.77,0.33 1.2,0.33 0.52,0 0.96,-0.15 1.33,-0.45 0.36,-0.3 0.61,-0.75 0.74,-1.35z"/>
  <path id="_1_7" class="fil0" d="M7.3 12.66l0.87 0 0 2.14 1.06 0c0.08,-0.73 0.31,-1.29 0.69,-1.67 0.38,-0.39 0.88,-0.58 1.48,-0.58 0.52,0 0.92,0.1 1.22,0.31 0.3,0.21 0.55,0.5 0.74,0.86 0.19,0.37 0.29,0.86 0.29,1.48 0,0.88 -0.2,1.55 -0.6,2.01 -0.4,0.46 -0.95,0.68 -1.63,0.68 -0.64,0 -1.15,-0.21 -1.54,-0.64 -0.39,-0.42 -0.6,-1.01 -0.65,-1.74l-1.06 0 0 2.27 -0.87 0 0 -5.12zm4.14 0.63c-0.42,0 -0.76,0.16 -0.99,0.49 -0.24,0.32 -0.36,0.78 -0.36,1.37 0,0.7 0.12,1.22 0.36,1.54 0.24,0.33 0.56,0.49 0.96,0.49 0.4,0 0.72,-0.15 0.97,-0.45 0.25,-0.3 0.38,-0.79 0.38,-1.46 0,-0.66 -0.11,-1.15 -0.33,-1.48 -0.22,-0.33 -0.55,-0.49 -0.99,-0.49z"/>
  <path id="_2_8" class="fil0" d="M14.9 12.66l4.04 0 0 5.12 -0.87 0 0 -4.4 -2.3 0 0 2.55c0,0.59 -0.02,0.99 -0.06,1.18 -0.04,0.19 -0.14,0.35 -0.32,0.5 -0.17,0.14 -0.42,0.21 -0.75,0.21 -0.2,0 -0.44,-0.01 -0.7,-0.04l0 -0.72 0.38 0c0.18,0 0.31,-0.02 0.39,-0.06 0.08,-0.04 0.13,-0.1 0.15,-0.18 0.02,-0.08 0.04,-0.34 0.04,-0.78l0 -3.38z"/>
  <path id="_3_9" class="fil0" d="M21.53 14.8l0 0.71 1.81 0c-0.05,0.56 -0.2,0.97 -0.43,1.25 -0.23,0.28 -0.56,0.42 -0.97,0.42 -0.73,0 -1.16,-0.42 -1.3,-1.27l-0.85 0.12c0.09,0.56 0.32,1.01 0.7,1.35 0.38,0.34 0.87,0.51 1.48,0.51 0.73,0.04 1.29,-0.19 1.69,-0.69 0.4,-0.5 0.59,-1.16 0.57,-1.98 0,-0.83 -0.21,-1.48 -0.62,-1.96 -0.41,-0.48 -0.98,-0.71 -1.69,-0.71 -0.57,0 -1.03,0.15 -1.39,0.45 -0.35,0.3 -0.57,0.69 -0.65,1.17l0.84 0.14c0.14,-0.69 0.55,-1.04 1.22,-1.04 0.39,0 0.7,0.14 0.95,0.42 0.25,0.28 0.4,0.65 0.45,1.11l-1.81 0z"/>
  <polygon id="_4_10" class="fil0" points="25.31,12.66 26.64,12.66 28,16.76 29.5,12.66 30.74,12.66 30.74,17.78 29.87,17.78 29.87,13.65 28.36,17.78 27.58,17.78 26.16,13.46 26.16,17.78 25.31,17.78 "/>
  <path class="fil0" d="M126.08 20.09l0.94 0.24c-0.2,0.77 -0.55,1.35 -1.06,1.76 -0.51,0.4 -1.13,0.61 -1.87,0.61 -0.76,0 -1.38,-0.15 -1.86,-0.47 -0.48,-0.31 -0.84,-0.76 -1.09,-1.35 -0.25,-0.59 -0.37,-1.22 -0.37,-1.89 0,-0.74 0.14,-1.38 0.42,-1.93 0.28,-0.55 0.68,-0.96 1.2,-1.25 0.52,-0.28 1.09,-0.43 1.71,-0.43 0.71,0 1.3,0.18 1.78,0.54 0.48,0.36 0.82,0.87 1.01,1.52l-0.92 0.22c-0.16,-0.51 -0.4,-0.89 -0.71,-1.12 -0.31,-0.24 -0.7,-0.35 -1.18,-0.35 -0.54,0 -1,0.13 -1.36,0.39 -0.36,0.26 -0.62,0.61 -0.77,1.05 -0.15,0.44 -0.22,0.89 -0.22,1.36 0,0.6 0.09,1.13 0.26,1.57 0.17,0.45 0.45,0.78 0.81,1.01 0.37,0.22 0.77,0.33 1.2,0.33 0.52,0 0.96,-0.15 1.33,-0.45 0.36,-0.3 0.61,-0.75 0.74,-1.35z"/>
  <polygon id="_1_11" class="fil0" points="128.07,17.44 128.94,17.44 128.94,21.35 131.35,17.44 132.28,17.44 132.28,22.57 131.41,22.57 131.41,18.68 129,22.57 128.07,22.57 "/>
  <path id="_2_12" class="fil0" d="M134.72 20.25l0 -0.68c0.37,-0 0.62,-0.02 0.75,-0.04 0.13,-0.03 0.26,-0.1 0.38,-0.23 0.12,-0.13 0.18,-0.29 0.18,-0.48 0,-0.23 -0.08,-0.42 -0.23,-0.56 -0.16,-0.14 -0.36,-0.21 -0.61,-0.21 -0.49,0 -0.83,0.29 -1.03,0.86l-0.83 -0.14c0.26,-0.95 0.88,-1.43 1.86,-1.43 0.55,0 0.97,0.15 1.29,0.45 0.31,0.3 0.47,0.65 0.47,1.07 0,0.42 -0.2,0.75 -0.61,0.99 0.26,0.14 0.45,0.31 0.58,0.53 0.13,0.21 0.19,0.47 0.19,0.76 0,0.46 -0.17,0.83 -0.5,1.12 -0.34,0.29 -0.8,0.43 -1.41,0.43 -1.17,0 -1.85,-0.52 -2.03,-1.55l0.82 -0.18c0.07,0.33 0.22,0.58 0.45,0.76 0.23,0.18 0.49,0.27 0.78,0.27 0.29,0 0.54,-0.08 0.73,-0.25 0.19,-0.16 0.29,-0.38 0.29,-0.63 0,-0.2 -0.06,-0.37 -0.18,-0.52 -0.12,-0.15 -0.25,-0.24 -0.39,-0.28 -0.14,-0.04 -0.39,-0.06 -0.75,-0.06 -0.03,0 -0.1,0 -0.2,0z"/>
  <path id="_3_13" class="fil0" d="M138.09 17.44l0.87 0 0 2 1.1 0c0.72,0 1.27,0.14 1.66,0.42 0.39,0.28 0.58,0.66 0.58,1.15 0,0.43 -0.16,0.79 -0.49,1.1 -0.32,0.3 -0.84,0.46 -1.55,0.46l-2.17 0 0 -5.12zm0.87 4.41l0.91 0c0.55,0 0.94,-0.07 1.18,-0.2 0.24,-0.13 0.35,-0.35 0.35,-0.63 0,-0.22 -0.09,-0.42 -0.26,-0.59 -0.17,-0.17 -0.56,-0.26 -1.16,-0.26l-1.03 0 0 1.69z"/>
  <path class="fil0" d="M119.58 75.71l0.94 0.24c-0.2,0.77 -0.55,1.35 -1.06,1.76 -0.51,0.4 -1.13,0.61 -1.87,0.61 -0.76,0 -1.38,-0.15 -1.86,-0.47 -0.48,-0.31 -0.84,-0.76 -1.09,-1.35 -0.25,-0.59 -0.37,-1.22 -0.37,-1.89 0,-0.74 0.14,-1.38 0.42,-1.93 0.28,-0.55 0.68,-0.96 1.2,-1.25 0.52,-0.28 1.09,-0.43 1.71,-0.43 0.71,0 1.3,0.18 1.78,0.54 0.48,0.36 0.82,0.87 1.01,1.52l-0.92 0.22c-0.16,-0.51 -0.4,-0.89 -0.71,-1.12 -0.31,-0.24 -0.7,-0.35 -1.18,-0.35 -0.54,0 -1,0.13 -1.36,0.39 -0.36,0.26 -0.62,0.61 -0.77,1.05 -0.15,0.44 -0.22,0.89 -0.22,1.36 0,0.6 0.09,1.13 0.26,1.57 0.17,0.45 0.45,0.78 0.81,1.01 0.37,0.22 0.77,0.33 1.2,0.33 0.52,0 0.96,-0.15 1.33,-0.45 0.36,-0.3 0.61,-0.75 0.74,-1.35z"/>
  <path id="_1_14" class="fil0" d="M121.57 73.07l0.87 0 0 3.91 2.41 -3.91 0.93 0 0 5.12 -0.87 0 0 -3.88 -2.41 3.88 -0.94 0 0 -5.12zm0.75 -0.63l0 -0.99 0.91 0 0 0.99 -0.91 0zm1.8 0l0 -0.99 0.91 0 0 0.99 -0.91 0z"/>
  <path id="_2_15" class="fil0" d="M128.22 75.87l0 -0.68c0.37,-0 0.62,-0.02 0.75,-0.04 0.13,-0.03 0.26,-0.1 0.38,-0.23 0.12,-0.13 0.18,-0.29 0.18,-0.48 0,-0.23 -0.08,-0.42 -0.23,-0.56 -0.16,-0.14 -0.36,-0.21 -0.61,-0.21 -0.49,0 -0.83,0.29 -1.03,0.86l-0.83 -0.14c0.26,-0.95 0.88,-1.43 1.86,-1.43 0.55,0 0.97,0.15 1.29,0.45 0.31,0.3 0.47,0.65 0.47,1.07 0,0.42 -0.2,0.75 -0.61,0.99 0.26,0.14 0.45,0.31 0.58,0.53 0.13,0.21 0.19,0.47 0.19,0.76 0,0.46 -0.17,0.83 -0.5,1.12 -0.34,0.29 -0.8,0.43 -1.41,0.43 -1.17,0 -1.85,-0.52 -2.03,-1.55l0.82 -0.18c0.07,0.33 0.22,0.58 0.45,0.76 0.23,0.18 0.49,0.27 0.78,0.27 0.29,0 0.54,-0.08 0.73,-0.25 0.19,-0.16 0.29,-0.38 0.29,-0.63 0,-0.2 -0.06,-0.37 -0.18,-0.52 -0.12,-0.15 -0.25,-0.24 -0.39,-0.28 -0.14,-0.04 -0.39,-0.06 -0.75,-0.06 -0.03,0 -0.1,0 -0.2,0z"/>
  <path id="_3_16" class="fil0" d="M131.59 73.07l0.87 0 0 2 1.1 0c0.72,0 1.27,0.14 1.66,0.42 0.39,0.28 0.58,0.66 0.58,1.15 0,0.43 -0.16,0.79 -0.49,1.1 -0.32,0.3 -0.84,0.46 -1.55,0.46l-2.17 0 0 -5.12zm0.87 4.41l0.91 0c0.55,0 0.94,-0.07 1.18,-0.2 0.24,-0.13 0.35,-0.35 0.35,-0.63 0,-0.22 -0.09,-0.42 -0.26,-0.59 -0.17,-0.17 -0.56,-0.26 -1.16,-0.26l-1.03 0 0 1.69z"/>
  <path id="_4_17" class="fil0" d="M141.63 73.07l0.87 0 0 5.12 -0.87 0 0 -5.12zm-4.85 0l0.87 0 0 2 1.1 0c0.72,0 1.27,0.14 1.65,0.42 0.39,0.28 0.58,0.66 0.58,1.15 0,0.43 -0.16,0.79 -0.48,1.1 -0.32,0.3 -0.84,0.46 -1.55,0.46l-2.17 0 0 -5.12zm0.87 4.41l0.91 0c0.55,0 0.94,-0.07 1.18,-0.2 0.24,-0.13 0.35,-0.35 0.35,-0.63 0,-0.22 -0.09,-0.42 -0.26,-0.59 -0.17,-0.17 -0.56,-0.26 -1.15,-0.26l-1.03 0 0 1.69z"/>
  <path id="_5_18" class="fil0" d="M144.28 73.07l4.04 0 0 5.12 -0.87 0 0 -4.4 -2.3 0 0 2.55c0,0.59 -0.02,0.99 -0.06,1.18 -0.04,0.19 -0.14,0.35 -0.32,0.5 -0.17,0.14 -0.42,0.21 -0.75,0.21 -0.2,0 -0.44,-0.01 -0.7,-0.04l0 -0.72 0.38 0c0.18,0 0.31,-0.02 0.39,-0.06 0.08,-0.04 0.13,-0.1 0.15,-0.18 0.02,-0.08 0.04,-0.34 0.04,-0.78l0 -3.38z"/>
 </g>
</svg>
