<?xml version="1.0" encoding="UTF-8"?>
<!DOCTYPE svg PUBLIC "-//W3C//DTD SVG 1.1//EN" "http://www.w3.org/Graphics/SVG/1.1/DTD/svg11.dtd">
<!-- Creator: CorelDRAW 2019 (64-Bit) -->
<svg xmlns="http://www.w3.org/2000/svg" xml:space="preserve" width="7.23263cm" height="4.38874cm" version="1.1" style="shape-rendering:geometricPrecision; text-rendering:geometricPrecision; image-rendering:optimizeQuality; fill-rule:evenodd; clip-rule:evenodd"
viewBox="0 0 21.076 12.789"
 xmlns:xlink="http://www.w3.org/1999/xlink"
 xmlns:xodm="http://www.corel.com/coreldraw/odm/2003">
 <defs>
  <style type="text/css">
   <![CDATA[
    .fil0 {fill:#66654B;fill-rule:nonzero}
   ]]>
  </style>
 </defs>
 <g id="Слой_x0020_1">
  <metadata id="CorelCorpID_0Corel-Layer"/>
  <g id="_1663505293088">
   <path class="fil0" d="M1.043 6.36c0.066,0.01 0.118,0.029 0.154,0.058 0.037,0.029 0.064,0.074 0.083,0.133 0.011,0.037 0.022,0.09 0.033,0.158 0.017,0.105 0.044,0.158 0.082,0.158 0.023,0 0.04,-0.012 0.05,-0.037 0.011,-0.024 0.017,-0.066 0.018,-0.123l0.058 -0.001 0 0.037c0,0.078 -0.016,0.138 -0.047,0.179 -0.031,0.041 -0.077,0.062 -0.136,0.062 -0.109,0 -0.176,-0.101 -0.203,-0.302 -0.004,-0.031 -0.008,-0.055 -0.01,-0.071 -0.011,-0.076 -0.032,-0.128 -0.06,-0.155 -0.029,-0.027 -0.076,-0.041 -0.141,-0.041l-0.021 0 -0.084 0 0 0.394c0,0.029 0.005,0.048 0.016,0.058 0.011,0.01 0.032,0.016 0.063,0.016l0.081 0 0 0.072 -0.488 0 0 -0.072 0.079 0c0.032,0 0.053,-0.005 0.065,-0.016 0.011,-0.01 0.017,-0.03 0.017,-0.058l0 -0.814c0,-0.026 -0.005,-0.045 -0.015,-0.056 -0.01,-0.011 -0.027,-0.017 -0.051,-0.017l-0.016 0 -0.079 0 0 -0.072 0.488 0 0 0.072 -0.1 0c-0.021,0 -0.037,0.006 -0.047,0.017 -0.01,0.011 -0.015,0.03 -0.015,0.056l0 0.346 0.06 0c0.068,0 0.119,-0.013 0.153,-0.04 0.034,-0.027 0.058,-0.073 0.072,-0.14 0.005,-0.024 0.011,-0.058 0.018,-0.101 0.011,-0.072 0.022,-0.12 0.033,-0.144 0.015,-0.031 0.037,-0.055 0.065,-0.071 0.029,-0.017 0.062,-0.025 0.101,-0.025 0.052,0 0.094,0.015 0.128,0.044 0.033,0.03 0.05,0.067 0.05,0.113 0,0.03 -0.009,0.055 -0.029,0.075 -0.019,0.02 -0.044,0.029 -0.074,0.029 -0.031,0 -0.057,-0.008 -0.076,-0.023 -0.019,-0.015 -0.029,-0.035 -0.029,-0.06 0,-0.02 0.006,-0.039 0.019,-0.058 0.013,-0.019 0.019,-0.03 0.019,-0.032 0,-0.005 -0.003,-0.01 -0.008,-0.013 -0.006,-0.003 -0.013,-0.005 -0.022,-0.005 -0.048,0 -0.081,0.055 -0.1,0.164 -0.004,0.02 -0.006,0.035 -0.007,0.045 -0.018,0.092 -0.037,0.155 -0.058,0.189 -0.021,0.033 -0.053,0.057 -0.093,0.071zm1.309 -0.114l0 0.066 -0.071 0.002c-0.021,0.001 -0.035,0.005 -0.042,0.012 -0.006,0.007 -0.01,0.022 -0.01,0.045l0 0.461c0,0.022 0.003,0.037 0.01,0.044 0.007,0.007 0.021,0.011 0.043,0.012l0.07 0.003 0 0.064 -0.384 0 0 -0.064 0.07 -0.003c0.021,-0.001 0.035,-0.005 0.042,-0.012 0.007,-0.007 0.01,-0.022 0.01,-0.044l0 -0.519 -0.089 0c-0.078,0 -0.122,0.069 -0.13,0.207 -0.004,0.064 -0.007,0.117 -0.011,0.158 -0.01,0.112 -0.029,0.189 -0.056,0.23 -0.027,0.042 -0.068,0.062 -0.124,0.062 -0.035,0 -0.064,-0.011 -0.087,-0.032 -0.023,-0.021 -0.034,-0.047 -0.034,-0.077 0,-0.032 0.008,-0.057 0.023,-0.075 0.016,-0.018 0.038,-0.027 0.066,-0.027 0.021,0 0.038,0.006 0.052,0.019 0.014,0.013 0.021,0.029 0.021,0.048 0,0.019 -0.007,0.035 -0.02,0.05 -0.014,0.014 -0.02,0.022 -0.02,0.025 0,0.003 0.002,0.006 0.005,0.008 0.003,0.002 0.007,0.003 0.012,0.003 0.02,0 0.038,-0.009 0.052,-0.027 0.014,-0.018 0.024,-0.044 0.031,-0.079 0.01,-0.05 0.019,-0.114 0.027,-0.191 0.007,-0.078 0.011,-0.152 0.011,-0.223 0,-0.032 -0.005,-0.053 -0.014,-0.064 -0.009,-0.011 -0.029,-0.016 -0.058,-0.017l-0.06 -0.002 0 -0.066 0.666 0zm0.413 0.691l-0.243 -0.56c-0.01,-0.024 -0.024,-0.042 -0.04,-0.051 -0.016,-0.01 -0.039,-0.015 -0.069,-0.015l-0.009 0 0 -0.064 0.357 0 0 0.064 -0.041 0 -0.02 0c-0.013,0 -0.022,0.003 -0.028,0.008 -0.007,0.006 -0.01,0.014 -0.01,0.024 0,0.004 0.002,0.01 0.004,0.019 0.003,0.009 0.007,0.018 0.011,0.028l0.162 0.374 0.152 -0.367c0.003,-0.005 0.005,-0.01 0.006,-0.016 0.002,-0.006 0.002,-0.012 0.002,-0.018 0,-0.019 -0.007,-0.033 -0.02,-0.04 -0.013,-0.007 -0.042,-0.011 -0.087,-0.012l-0.001 -0.064 0.296 0 0 0.064c-0.028,0 -0.052,0.006 -0.069,0.019 -0.018,0.013 -0.033,0.034 -0.046,0.063l-0.259 0.602c-0.044,0.101 -0.089,0.173 -0.134,0.215 -0.046,0.042 -0.1,0.064 -0.162,0.064 -0.044,0 -0.078,-0.01 -0.103,-0.032 -0.025,-0.021 -0.038,-0.05 -0.038,-0.086 0,-0.025 0.009,-0.046 0.027,-0.064 0.018,-0.018 0.039,-0.027 0.065,-0.027 0.025,0 0.044,0.007 0.059,0.021 0.014,0.014 0.021,0.034 0.021,0.058 0,0.008 -0.002,0.017 -0.006,0.025 -0.004,0.008 -0.006,0.013 -0.006,0.015 0,0.005 0.003,0.01 0.008,0.013 0.005,0.003 0.012,0.005 0.02,0.005 0.028,0 0.059,-0.022 0.094,-0.066 0.035,-0.044 0.068,-0.102 0.097,-0.174l0.011 -0.025zm0.815 -0.652c-0.058,0 -0.102,0.026 -0.131,0.079 -0.029,0.052 -0.044,0.132 -0.044,0.238 0,0.107 0.015,0.186 0.044,0.238 0.029,0.052 0.074,0.079 0.134,0.079 0.058,0 0.101,-0.026 0.13,-0.079 0.029,-0.053 0.043,-0.132 0.043,-0.238 0,-0.108 -0.014,-0.187 -0.043,-0.239 -0.029,-0.052 -0.073,-0.078 -0.133,-0.078zm0.252 -0.461l0.055 0c-0.006,0.123 -0.082,0.198 -0.226,0.225 -0.02,0.004 -0.036,0.007 -0.048,0.009 -0.096,0.019 -0.164,0.052 -0.204,0.098 -0.041,0.046 -0.071,0.125 -0.092,0.237 0.03,-0.056 0.069,-0.099 0.115,-0.128 0.046,-0.029 0.099,-0.043 0.157,-0.043 0.094,0 0.172,0.036 0.233,0.107 0.061,0.072 0.092,0.162 0.092,0.273 0,0.111 -0.032,0.201 -0.095,0.272 -0.064,0.071 -0.143,0.106 -0.239,0.106 -0.106,0 -0.188,-0.038 -0.246,-0.115 -0.058,-0.077 -0.087,-0.187 -0.087,-0.329 0,-0.166 0.026,-0.299 0.076,-0.401 0.051,-0.102 0.126,-0.168 0.224,-0.198 0.033,-0.01 0.078,-0.019 0.136,-0.028 0.092,-0.015 0.141,-0.043 0.149,-0.084zm0.525 0.461c-0.065,0 -0.112,0.025 -0.142,0.076 -0.03,0.05 -0.045,0.131 -0.045,0.241 0,0.11 0.015,0.19 0.045,0.24 0.03,0.05 0.076,0.076 0.14,0.076 0.066,0 0.114,-0.025 0.144,-0.075 0.03,-0.05 0.045,-0.13 0.045,-0.241 0,-0.111 -0.015,-0.191 -0.045,-0.241 -0.03,-0.05 -0.077,-0.076 -0.142,-0.076zm0 -0.063c0.101,0 0.184,0.035 0.248,0.106 0.064,0.071 0.096,0.162 0.096,0.274 0,0.113 -0.032,0.204 -0.095,0.274 -0.064,0.07 -0.146,0.105 -0.248,0.105 -0.101,0 -0.184,-0.035 -0.248,-0.105 -0.064,-0.07 -0.096,-0.161 -0.096,-0.273 0,-0.113 0.032,-0.204 0.096,-0.274 0.064,-0.07 0.147,-0.105 0.249,-0.105zm0.443 0.733l0 -0.064 0.07 -0.003c0.021,-0.001 0.036,-0.005 0.042,-0.012 0.007,-0.007 0.01,-0.022 0.01,-0.044l0 -0.461c0,-0.022 -0.003,-0.037 -0.01,-0.045 -0.007,-0.007 -0.021,-0.011 -0.042,-0.012l-0.071 -0.003 0 -0.064 0.384 0 0 0.064 -0.071 0.003c-0.021,0.001 -0.035,0.005 -0.042,0.012 -0.006,0.007 -0.01,0.022 -0.01,0.045l0 0.185 0.046 0c0.046,0 0.08,-0.008 0.103,-0.025 0.023,-0.017 0.039,-0.046 0.048,-0.089 0.002,-0.012 0.006,-0.029 0.01,-0.052 0.022,-0.115 0.07,-0.172 0.146,-0.172 0.039,0 0.07,0.01 0.094,0.031 0.024,0.021 0.036,0.048 0.036,0.082 0,0.026 -0.007,0.046 -0.022,0.062 -0.014,0.015 -0.034,0.023 -0.058,0.023 -0.023,0 -0.041,-0.006 -0.053,-0.017 -0.013,-0.011 -0.019,-0.026 -0.019,-0.046 0,-0.014 0.005,-0.027 0.015,-0.041 0.01,-0.014 0.015,-0.022 0.015,-0.024 0,-0.004 -0.002,-0.007 -0.006,-0.01 -0.004,-0.003 -0.009,-0.004 -0.016,-0.004 -0.033,0 -0.058,0.039 -0.073,0.118l0 0.002 -0.001 0.004c-0.018,0.096 -0.05,0.155 -0.096,0.177 0.046,0.007 0.081,0.02 0.105,0.039 0.024,0.019 0.042,0.048 0.055,0.087 0.008,0.023 0.015,0.057 0.021,0.1 0.01,0.066 0.028,0.098 0.054,0.098 0.015,0 0.027,-0.007 0.034,-0.02 0.007,-0.013 0.011,-0.033 0.011,-0.061l0 -0.017 0.046 0c0,0.005 0,0.011 0.001,0.016 0,0.005 0.001,0.008 0.001,0.008 0,0.052 -0.011,0.092 -0.033,0.118 -0.022,0.026 -0.055,0.04 -0.099,0.04 -0.078,0 -0.127,-0.063 -0.144,-0.19 -0.003,-0.021 -0.006,-0.038 -0.008,-0.05 -0.008,-0.051 -0.021,-0.086 -0.041,-0.103 -0.019,-0.018 -0.051,-0.027 -0.094,-0.027l-0.014 0 -0.063 0 0 0.219c0,0.022 0.003,0.037 0.01,0.044 0.007,0.007 0.021,0.011 0.042,0.012l0.07 0.003 0 0.064 -0.384 0z"/>
   <path class="fil0" d="M17.683 3.907l0 0.072 -0.1 0c-0.021,0 -0.037,0.006 -0.047,0.017 -0.01,0.011 -0.015,0.03 -0.015,0.056l0 0.814c0,0.028 0.005,0.048 0.016,0.058 0.011,0.01 0.032,0.016 0.064,0.016l0.081 0 0 0.072 -0.49 0 0 -0.072 0.081 0c0.032,0 0.053,-0.005 0.065,-0.016 0.011,-0.01 0.017,-0.03 0.017,-0.058l0 -0.888 -0.168 0c-0.043,0 -0.073,0.006 -0.092,0.017 -0.018,0.011 -0.031,0.032 -0.037,0.062 -0.003,0.014 -0.007,0.075 -0.014,0.184 -0.006,0.109 -0.013,0.21 -0.02,0.302 -0.015,0.19 -0.043,0.319 -0.083,0.39 -0.04,0.071 -0.101,0.106 -0.184,0.106 -0.057,0 -0.102,-0.018 -0.134,-0.055 -0.033,-0.036 -0.049,-0.086 -0.049,-0.151 0,-0.051 0.013,-0.092 0.039,-0.123 0.026,-0.031 0.059,-0.047 0.1,-0.047 0.03,0 0.055,0.01 0.075,0.03 0.02,0.02 0.03,0.045 0.03,0.075 0,0.025 -0.005,0.045 -0.015,0.059 -0.01,0.014 -0.025,0.025 -0.047,0.032 -0.005,0.002 -0.012,0.004 -0.021,0.006 -0.029,0.007 -0.044,0.019 -0.044,0.036 0,0.019 0.007,0.034 0.022,0.046 0.015,0.012 0.033,0.018 0.055,0.018 0.04,0 0.072,-0.018 0.097,-0.054 0.025,-0.036 0.044,-0.092 0.057,-0.17 0.005,-0.032 0.011,-0.075 0.016,-0.127 0.005,-0.052 0.01,-0.113 0.015,-0.181 0.005,-0.073 0.009,-0.139 0.011,-0.2 0.003,-0.06 0.004,-0.102 0.004,-0.125 0,-0.054 -0.008,-0.09 -0.022,-0.107 -0.015,-0.018 -0.044,-0.026 -0.087,-0.026l-0.052 0 0 -0.072 0.876 0zm0.674 0.521c0,-0.022 -0.003,-0.037 -0.01,-0.044 -0.007,-0.007 -0.021,-0.011 -0.042,-0.012l-0.071 -0.003 0 -0.064 0.383 0 0 0.064 -0.069 0.003c-0.021,0.001 -0.035,0.005 -0.042,0.012 -0.006,0.007 -0.01,0.022 -0.01,0.044l0 0.461c0,0.022 0.003,0.037 0.01,0.044 0.007,0.007 0.021,0.011 0.042,0.012l0.069 0.003 0 0.064 -0.383 0 0 -0.064 0.07 -0.003c0.022,-0.001 0.036,-0.005 0.043,-0.012 0.006,-0.007 0.01,-0.022 0.01,-0.044l0 -0.343 -0.318 0.33 0 0.018c0,0.02 0.003,0.033 0.01,0.04 0.007,0.007 0.021,0.011 0.042,0.012l0.069 0.003 0 0.064 -0.383 0 0 -0.064 0.07 -0.003c0.021,-0.001 0.035,-0.005 0.041,-0.012 0.006,-0.007 0.01,-0.022 0.01,-0.045l0 -0.461c0,-0.023 -0.003,-0.038 -0.01,-0.045 -0.006,-0.007 -0.02,-0.011 -0.04,-0.012l-0.071 -0.003 0 -0.064 0.383 0 0 0.064 -0.07 0.003c-0.021,0.001 -0.035,0.005 -0.041,0.012 -0.006,0.007 -0.01,0.022 -0.01,0.045l0 0.349 0.318 -0.33 0 -0.02zm0.34 0.585l0 -0.064 0.07 -0.003c0.021,-0.001 0.035,-0.005 0.041,-0.012 0.006,-0.007 0.01,-0.022 0.01,-0.045l0 -0.461c0,-0.023 -0.003,-0.038 -0.01,-0.045 -0.006,-0.007 -0.02,-0.011 -0.04,-0.012l-0.071 -0.003 0 -0.064 0.841 0 0 0.064 -0.069 0.003c-0.021,0.001 -0.035,0.005 -0.042,0.012 -0.006,0.007 -0.01,0.022 -0.01,0.044l0 0.461c0,0.022 0.003,0.037 0.01,0.044 0.007,0.007 0.021,0.011 0.042,0.012l0.069 0.003 0 0.064 -0.383 0 0 -0.064 0.07 -0.003c0.022,-0.001 0.036,-0.005 0.043,-0.012 0.006,-0.007 0.01,-0.022 0.01,-0.044l0 -0.461c0,-0.023 -0.004,-0.038 -0.011,-0.045 -0.008,-0.008 -0.021,-0.011 -0.041,-0.011l-0.216 0c-0.019,0 -0.033,0.003 -0.04,0.01 -0.007,0.007 -0.011,0.022 -0.011,0.046l0 0.465c0,0.02 0.003,0.033 0.01,0.04 0.007,0.007 0.021,0.011 0.042,0.012l0.069 0.003 0 0.064 -0.383 0zm1.407 -0.382c-0.114,0.015 -0.197,0.038 -0.249,0.07 -0.052,0.031 -0.078,0.074 -0.078,0.128 0,0.042 0.01,0.073 0.03,0.094 0.02,0.02 0.05,0.031 0.091,0.031 0.063,0 0.113,-0.019 0.15,-0.058 0.037,-0.039 0.055,-0.093 0.055,-0.162l0 -0.101zm0.009 0.284c-0.027,0.036 -0.066,0.066 -0.117,0.089 -0.05,0.023 -0.103,0.034 -0.158,0.034 -0.064,0 -0.115,-0.017 -0.153,-0.051 -0.039,-0.034 -0.058,-0.079 -0.058,-0.136 0,-0.074 0.037,-0.133 0.111,-0.177 0.074,-0.044 0.196,-0.08 0.365,-0.107l0 -0.11c0,-0.035 -0.014,-0.063 -0.043,-0.082 -0.028,-0.019 -0.069,-0.029 -0.121,-0.029 -0.04,0 -0.073,0.005 -0.099,0.016 -0.025,0.011 -0.038,0.024 -0.038,0.039 0,0.003 0.006,0.013 0.018,0.03 0.012,0.016 0.018,0.035 0.018,0.055 0,0.024 -0.007,0.043 -0.021,0.056 -0.014,0.014 -0.033,0.021 -0.058,0.021 -0.028,0 -0.051,-0.008 -0.067,-0.023 -0.016,-0.015 -0.024,-0.037 -0.024,-0.064 0,-0.056 0.028,-0.103 0.083,-0.14 0.055,-0.037 0.126,-0.056 0.212,-0.056 0.098,0 0.169,0.018 0.214,0.053 0.045,0.035 0.067,0.093 0.067,0.173l0 0.001 0 0.363c0,0.02 0.005,0.035 0.015,0.046 0.01,0.011 0.024,0.016 0.042,0.016 0.011,0 0.023,-0.003 0.037,-0.01 0.014,-0.007 0.022,-0.01 0.026,-0.01 0.006,0 0.011,0.002 0.015,0.007 0.004,0.005 0.006,0.011 0.006,0.018 0,0.021 -0.015,0.041 -0.043,0.062 -0.029,0.021 -0.062,0.031 -0.099,0.031 -0.035,0 -0.065,-0.01 -0.087,-0.03 -0.023,-0.02 -0.037,-0.048 -0.043,-0.084z"/>
   <path class="fil0" d="M10.945 11.365l0 0.072 -0.1 0c-0.021,0 -0.037,0.006 -0.047,0.017 -0.01,0.011 -0.015,0.03 -0.015,0.056l0 0.814c0,0.028 0.005,0.048 0.016,0.058 0.011,0.01 0.032,0.016 0.064,0.016l0.081 0 0 0.072 -0.49 0 0 -0.072 0.081 0c0.032,0 0.053,-0.005 0.065,-0.016 0.011,-0.01 0.017,-0.03 0.017,-0.058l0 -0.888 -0.168 0c-0.043,0 -0.073,0.006 -0.092,0.017 -0.018,0.011 -0.031,0.032 -0.037,0.062 -0.003,0.014 -0.007,0.075 -0.014,0.184 -0.006,0.109 -0.013,0.21 -0.02,0.302 -0.015,0.19 -0.043,0.319 -0.083,0.39 -0.04,0.071 -0.101,0.106 -0.184,0.106 -0.057,0 -0.102,-0.018 -0.134,-0.055 -0.033,-0.036 -0.049,-0.086 -0.049,-0.151 0,-0.051 0.013,-0.092 0.039,-0.123 0.026,-0.031 0.059,-0.047 0.1,-0.047 0.03,0 0.055,0.01 0.075,0.03 0.02,0.02 0.03,0.045 0.03,0.075 0,0.025 -0.005,0.045 -0.015,0.059 -0.01,0.014 -0.025,0.025 -0.047,0.032 -0.005,0.002 -0.012,0.004 -0.021,0.006 -0.029,0.007 -0.044,0.019 -0.044,0.036 0,0.019 0.007,0.034 0.022,0.046 0.015,0.012 0.033,0.018 0.055,0.018 0.04,0 0.072,-0.018 0.097,-0.054 0.025,-0.036 0.044,-0.092 0.057,-0.17 0.005,-0.032 0.011,-0.075 0.016,-0.127 0.005,-0.052 0.01,-0.113 0.015,-0.181 0.005,-0.073 0.009,-0.139 0.011,-0.2 0.003,-0.06 0.004,-0.102 0.004,-0.125 0,-0.054 -0.008,-0.09 -0.022,-0.107 -0.015,-0.018 -0.044,-0.026 -0.087,-0.026l-0.052 0 0 -0.072 0.876 0zm0.565 0.706l0 -0.185c0,-0.023 -0.004,-0.039 -0.012,-0.047 -0.008,-0.008 -0.022,-0.013 -0.042,-0.013l-0.057 0c-0.058,0 -0.1,0.009 -0.125,0.027 -0.025,0.018 -0.038,0.047 -0.038,0.088 0,0.047 0.015,0.08 0.045,0.101 0.03,0.02 0.083,0.03 0.161,0.03l0.069 0zm-0.121 0.4l0 -0.064 0.07 -0.003c0.021,-0.001 0.035,-0.005 0.041,-0.012 0.006,-0.007 0.01,-0.022 0.01,-0.045l0 -0.219 -0.066 0c-0.042,0 -0.075,0.01 -0.098,0.031 -0.023,0.02 -0.036,0.052 -0.041,0.093l-0.011 0.098c-0.005,0.052 -0.018,0.088 -0.039,0.108 -0.02,0.02 -0.053,0.03 -0.097,0.03 -0.044,0 -0.077,-0.013 -0.098,-0.038 -0.021,-0.025 -0.032,-0.064 -0.032,-0.115l0 -0.022 0.047 0c0.002,0.04 0.006,0.067 0.011,0.081 0.006,0.014 0.015,0.02 0.029,0.02 0.008,0 0.016,-0.005 0.024,-0.016 0.007,-0.011 0.014,-0.026 0.019,-0.047l0.028 -0.111c0.01,-0.04 0.027,-0.07 0.051,-0.09 0.024,-0.02 0.058,-0.031 0.102,-0.035 -0.078,-0.005 -0.138,-0.023 -0.178,-0.053 -0.04,-0.03 -0.06,-0.071 -0.06,-0.125 0,-0.058 0.021,-0.101 0.064,-0.13 0.043,-0.029 0.107,-0.044 0.191,-0.044l0.415 0 0 0.064 -0.07 0.003c-0.021,0.001 -0.035,0.005 -0.041,0.012 -0.006,0.007 -0.01,0.022 -0.01,0.045l0 0.461c0,0.023 0.003,0.038 0.01,0.045 0.006,0.007 0.02,0.011 0.042,0.012l0.069 0.003 0 0.064 -0.383 0zm0.483 0l0 -0.064 0.07 -0.003c0.021,-0.001 0.036,-0.005 0.042,-0.012 0.007,-0.007 0.01,-0.022 0.01,-0.045l0 -0.461c0,-0.022 -0.003,-0.037 -0.01,-0.044 -0.007,-0.007 -0.021,-0.011 -0.042,-0.012l-0.071 -0.003 0 -0.064 0.587 0 0.014 0.251 -0.058 0c-0.012,-0.068 -0.033,-0.116 -0.064,-0.143 -0.031,-0.028 -0.077,-0.042 -0.139,-0.042 -0.032,0 -0.054,0.003 -0.063,0.01 -0.01,0.007 -0.015,0.023 -0.015,0.048l0 0.461c0,0.022 0.003,0.038 0.01,0.045 0.007,0.007 0.021,0.011 0.042,0.012l0.07 0.003 0 0.064 -0.384 0zm0.985 -0.018l-0.243 -0.56c-0.01,-0.024 -0.024,-0.042 -0.04,-0.051 -0.016,-0.01 -0.039,-0.015 -0.069,-0.015l-0.009 0 0 -0.064 0.357 0 0 0.064 -0.041 0 -0.02 0c-0.013,0 -0.022,0.003 -0.028,0.008 -0.007,0.006 -0.01,0.014 -0.01,0.024 0,0.004 0.002,0.01 0.004,0.019 0.003,0.009 0.007,0.018 0.011,0.028l0.162 0.374 0.152 -0.367c0.003,-0.005 0.005,-0.01 0.006,-0.016 0.002,-0.006 0.002,-0.012 0.002,-0.018 0,-0.019 -0.007,-0.033 -0.02,-0.04 -0.013,-0.007 -0.042,-0.011 -0.087,-0.012l-0.001 -0.064 0.296 0 0 0.064c-0.028,0 -0.052,0.006 -0.069,0.019 -0.018,0.013 -0.033,0.034 -0.046,0.063l-0.259 0.602c-0.044,0.101 -0.089,0.173 -0.134,0.215 -0.046,0.042 -0.1,0.064 -0.162,0.064 -0.044,0 -0.078,-0.01 -0.103,-0.032 -0.025,-0.021 -0.038,-0.05 -0.038,-0.086 0,-0.025 0.009,-0.046 0.027,-0.064 0.018,-0.018 0.039,-0.027 0.065,-0.027 0.025,0 0.044,0.007 0.059,0.021 0.014,0.014 0.021,0.034 0.021,0.058 0,0.008 -0.002,0.017 -0.006,0.025 -0.004,0.008 -0.006,0.013 -0.006,0.015 0,0.005 0.003,0.01 0.008,0.013 0.005,0.003 0.012,0.005 0.02,0.005 0.028,0 0.059,-0.022 0.094,-0.066 0.035,-0.044 0.068,-0.102 0.097,-0.174l0.011 -0.025zm1.71 -0.046l0 0.064 -1.223 0 0 -0.064 0.056 -0.003c0.021,-0.001 0.035,-0.005 0.041,-0.012 0.006,-0.007 0.01,-0.022 0.01,-0.045l0 -0.461c0,-0.023 -0.003,-0.038 -0.009,-0.045 -0.006,-0.007 -0.02,-0.011 -0.041,-0.012l-0.057 -0.003 0 -0.064 0.355 0 0 0.064 -0.057 0.003c-0.021,0.001 -0.034,0.005 -0.041,0.011 -0.006,0.007 -0.01,0.02 -0.01,0.041l0 0.465c0,0.023 0.004,0.039 0.011,0.046 0.007,0.007 0.021,0.011 0.04,0.011l0.191 0c0.02,0 0.033,-0.004 0.041,-0.011 0.007,-0.007 0.011,-0.023 0.011,-0.046l0 -0.461c0,-0.022 -0.003,-0.037 -0.01,-0.044 -0.007,-0.007 -0.021,-0.011 -0.041,-0.012l-0.057 -0.003 0 -0.064 0.355 0 0 0.064 -0.055 0.003c-0.021,0.001 -0.035,0.005 -0.042,0.012 -0.007,0.007 -0.01,0.02 -0.01,0.04l0 0.465c0,0.023 0.004,0.038 0.011,0.046 0.007,0.007 0.021,0.011 0.042,0.011l0.19 0c0.02,0 0.034,-0.004 0.041,-0.011 0.007,-0.007 0.011,-0.023 0.011,-0.046l0 -0.461c0,-0.022 -0.003,-0.037 -0.01,-0.044 -0.007,-0.007 -0.02,-0.011 -0.042,-0.012l-0.055 -0.003 0 -0.064 0.355 0 0 0.064 -0.057 0.003c-0.022,0.001 -0.036,0.005 -0.042,0.012 -0.006,0.007 -0.009,0.022 -0.009,0.045l0 0.461c0,0.023 0.003,0.038 0.01,0.045 0.007,0.007 0.021,0.011 0.043,0.012l0.056 0.003zm0.103 0.064l0 -0.064 0.07 -0.003c0.021,-0.001 0.036,-0.005 0.042,-0.012 0.007,-0.007 0.01,-0.022 0.01,-0.044l0 -0.461c0,-0.022 -0.003,-0.037 -0.01,-0.045 -0.007,-0.007 -0.021,-0.011 -0.042,-0.012l-0.071 -0.003 0 -0.064 0.384 0 0 0.064 -0.071 0.003c-0.021,0.001 -0.035,0.005 -0.042,0.012 -0.006,0.007 -0.01,0.022 -0.01,0.045l0 0.185 0.046 0c0.046,0 0.08,-0.008 0.103,-0.025 0.023,-0.017 0.039,-0.046 0.048,-0.089 0.002,-0.012 0.006,-0.029 0.01,-0.052 0.022,-0.115 0.07,-0.172 0.146,-0.172 0.039,0 0.07,0.01 0.094,0.031 0.024,0.021 0.036,0.048 0.036,0.082 0,0.026 -0.007,0.046 -0.022,0.062 -0.014,0.015 -0.034,0.023 -0.058,0.023 -0.023,0 -0.041,-0.006 -0.053,-0.017 -0.013,-0.011 -0.019,-0.026 -0.019,-0.046 0,-0.014 0.005,-0.027 0.015,-0.041 0.01,-0.014 0.015,-0.022 0.015,-0.024 0,-0.004 -0.002,-0.007 -0.006,-0.01 -0.004,-0.003 -0.009,-0.004 -0.016,-0.004 -0.033,0 -0.058,0.039 -0.073,0.118l0 0.002 -0.001 0.004c-0.018,0.096 -0.05,0.155 -0.096,0.177 0.046,0.007 0.081,0.02 0.105,0.039 0.024,0.019 0.042,0.048 0.055,0.087 0.008,0.023 0.015,0.057 0.021,0.1 0.01,0.066 0.028,0.098 0.054,0.098 0.015,0 0.027,-0.007 0.034,-0.02 0.007,-0.013 0.011,-0.033 0.011,-0.061l0 -0.017 0.046 0c0,0.005 0,0.011 0.001,0.016 0,0.005 0.001,0.008 0.001,0.008 0,0.052 -0.011,0.092 -0.033,0.118 -0.022,0.026 -0.055,0.04 -0.099,0.04 -0.078,0 -0.127,-0.063 -0.144,-0.19 -0.003,-0.021 -0.006,-0.038 -0.008,-0.05 -0.008,-0.051 -0.021,-0.086 -0.041,-0.103 -0.019,-0.018 -0.051,-0.027 -0.094,-0.027l-0.014 0 -0.063 0 0 0.219c0,0.022 0.003,0.037 0.01,0.044 0.007,0.007 0.021,0.011 0.042,0.012l0.07 0.003 0 0.064 -0.384 0zm1.305 -0.382c-0.114,0.015 -0.197,0.038 -0.249,0.07 -0.052,0.031 -0.078,0.074 -0.078,0.128 0,0.042 0.01,0.073 0.03,0.094 0.02,0.02 0.05,0.031 0.091,0.031 0.063,0 0.113,-0.019 0.15,-0.058 0.037,-0.039 0.055,-0.093 0.055,-0.162l0 -0.101zm0.009 0.284c-0.027,0.036 -0.066,0.066 -0.117,0.089 -0.05,0.023 -0.103,0.034 -0.158,0.034 -0.064,0 -0.115,-0.017 -0.153,-0.051 -0.039,-0.034 -0.058,-0.079 -0.058,-0.136 0,-0.074 0.037,-0.133 0.111,-0.177 0.074,-0.044 0.196,-0.08 0.365,-0.107l0 -0.11c0,-0.035 -0.014,-0.063 -0.043,-0.082 -0.028,-0.019 -0.069,-0.029 -0.121,-0.029 -0.04,0 -0.073,0.005 -0.099,0.016 -0.025,0.011 -0.038,0.024 -0.038,0.039 0,0.003 0.006,0.013 0.018,0.03 0.012,0.016 0.018,0.035 0.018,0.055 0,0.024 -0.007,0.043 -0.021,0.056 -0.014,0.014 -0.033,0.021 -0.058,0.021 -0.028,0 -0.051,-0.008 -0.067,-0.023 -0.016,-0.015 -0.024,-0.037 -0.024,-0.064 0,-0.056 0.028,-0.103 0.083,-0.14 0.055,-0.037 0.126,-0.056 0.212,-0.056 0.098,0 0.169,0.018 0.214,0.053 0.045,0.035 0.067,0.093 0.067,0.173l0 0.001 0 0.363c0,0.02 0.005,0.035 0.015,0.046 0.01,0.011 0.024,0.016 0.042,0.016 0.011,0 0.023,-0.003 0.037,-0.01 0.014,-0.007 0.022,-0.01 0.026,-0.01 0.006,0 0.011,0.002 0.015,0.007 0.004,0.005 0.006,0.011 0.006,0.018 0,0.021 -0.015,0.041 -0.043,0.062 -0.029,0.021 -0.062,0.031 -0.099,0.031 -0.035,0 -0.065,-0.01 -0.087,-0.03 -0.023,-0.02 -0.037,-0.048 -0.043,-0.084z"/>
   <path class="fil0" d="M5.852 0l1.173 0 0 0.072 -0.1 0c-0.021,0 -0.037,0.006 -0.047,0.018 -0.01,0.012 -0.015,0.03 -0.015,0.056l0 0.814c0,0.028 0.006,0.048 0.017,0.058 0.011,0.01 0.033,0.016 0.065,0.016l0.081 0 0 0.072 -0.49 0 0 -0.072 0.082 0c0.031,0 0.053,-0.005 0.064,-0.016 0.011,-0.01 0.017,-0.03 0.017,-0.058l0 -0.819c0,-0.027 -0.005,-0.045 -0.015,-0.056 -0.01,-0.011 -0.027,-0.016 -0.051,-0.016l-0.015 0 -0.376 0c-0.021,0 -0.037,0.006 -0.047,0.017 -0.01,0.011 -0.015,0.03 -0.015,0.055l0 0.819c0,0.028 0.005,0.048 0.016,0.058 0.011,0.01 0.032,0.016 0.063,0.016l0.081 0 0 0.072 -0.488 0 0 -0.072 0.079 0c0.032,0 0.053,-0.005 0.065,-0.016 0.011,-0.01 0.017,-0.03 0.017,-0.058l0 -0.814c0,-0.026 -0.005,-0.045 -0.015,-0.056 -0.01,-0.011 -0.027,-0.017 -0.051,-0.017l-0.016 0 -0.079 0 0 -0.072zm1.586 1.087l-0.243 -0.56c-0.01,-0.024 -0.024,-0.042 -0.04,-0.051 -0.016,-0.01 -0.039,-0.015 -0.069,-0.015l-0.009 0 0 -0.064 0.357 0 0 0.064 -0.041 0 -0.02 0c-0.013,0 -0.022,0.003 -0.028,0.008 -0.007,0.006 -0.01,0.014 -0.01,0.024 0,0.004 0.002,0.01 0.004,0.019 0.003,0.009 0.007,0.018 0.011,0.028l0.162 0.374 0.152 -0.367c0.003,-0.005 0.005,-0.01 0.006,-0.016 0.002,-0.006 0.002,-0.012 0.002,-0.018 0,-0.019 -0.007,-0.033 -0.02,-0.04 -0.013,-0.007 -0.042,-0.011 -0.087,-0.012l-0.001 -0.064 0.296 0 0 0.064c-0.028,0 -0.052,0.006 -0.069,0.019 -0.018,0.013 -0.033,0.034 -0.046,0.063l-0.259 0.602c-0.044,0.101 -0.089,0.173 -0.134,0.215 -0.046,0.042 -0.1,0.064 -0.162,0.064 -0.044,0 -0.078,-0.01 -0.103,-0.032 -0.025,-0.021 -0.038,-0.05 -0.038,-0.086 0,-0.025 0.009,-0.046 0.027,-0.064 0.018,-0.018 0.039,-0.027 0.065,-0.027 0.025,0 0.044,0.007 0.059,0.021 0.014,0.014 0.021,0.034 0.021,0.058 0,0.008 -0.002,0.017 -0.006,0.025 -0.004,0.008 -0.006,0.013 -0.006,0.015 0,0.005 0.003,0.01 0.008,0.013 0.005,0.003 0.012,0.005 0.02,0.005 0.028,0 0.059,-0.022 0.094,-0.066 0.035,-0.044 0.068,-0.102 0.097,-0.174l0.011 -0.025zm0.482 0.018l0 -0.064 0.07 -0.003c0.021,-0.001 0.036,-0.005 0.042,-0.012 0.007,-0.007 0.01,-0.022 0.01,-0.045l0 -0.461c0,-0.022 -0.003,-0.037 -0.01,-0.044 -0.007,-0.007 -0.021,-0.011 -0.042,-0.012l-0.071 -0.003 0 -0.064 0.587 0 0.014 0.251 -0.058 0c-0.012,-0.068 -0.033,-0.116 -0.064,-0.143 -0.031,-0.028 -0.077,-0.042 -0.139,-0.042 -0.032,0 -0.054,0.003 -0.063,0.01 -0.01,0.007 -0.015,0.023 -0.015,0.048l0 0.461c0,0.022 0.003,0.038 0.01,0.045 0.007,0.007 0.021,0.011 0.042,0.012l0.07 0.003 0 0.064 -0.384 0zm1.016 -0.671c-0.065,0 -0.112,0.025 -0.142,0.076 -0.03,0.05 -0.045,0.131 -0.045,0.241 0,0.11 0.015,0.19 0.045,0.24 0.03,0.05 0.076,0.076 0.14,0.076 0.066,0 0.114,-0.025 0.144,-0.075 0.03,-0.05 0.045,-0.13 0.045,-0.241 0,-0.111 -0.015,-0.191 -0.045,-0.241 -0.03,-0.05 -0.077,-0.076 -0.142,-0.076zm0 -0.063c0.101,0 0.184,0.035 0.248,0.106 0.064,0.071 0.096,0.162 0.096,0.274 0,0.113 -0.032,0.204 -0.095,0.274 -0.064,0.07 -0.146,0.105 -0.248,0.105 -0.101,0 -0.184,-0.035 -0.248,-0.105 -0.064,-0.07 -0.096,-0.161 -0.096,-0.273 0,-0.113 0.032,-0.204 0.096,-0.274 0.064,-0.07 0.147,-0.105 0.249,-0.105zm0.852 0.025c0.088,0 0.152,0.014 0.194,0.042 0.042,0.028 0.062,0.071 0.062,0.13 0,0.046 -0.015,0.083 -0.046,0.112 -0.031,0.028 -0.076,0.046 -0.136,0.054 0.073,0.006 0.128,0.025 0.165,0.056 0.038,0.031 0.056,0.073 0.056,0.127 0,0.06 -0.024,0.107 -0.071,0.14 -0.047,0.033 -0.114,0.05 -0.2,0.05l-0.433 0 0 -0.064 0.07 -0.003c0.021,-0.001 0.036,-0.005 0.042,-0.012 0.007,-0.007 0.01,-0.022 0.01,-0.044l0 -0.461c0,-0.022 -0.003,-0.037 -0.01,-0.044 -0.007,-0.007 -0.021,-0.011 -0.042,-0.012l-0.071 -0.003 0 -0.064 0.409 0zm-0.147 0.369l0 0.216c0,0.022 0.004,0.038 0.012,0.047 0.008,0.009 0.021,0.013 0.04,0.013l0.066 0c0.062,0 0.106,-0.01 0.134,-0.031 0.027,-0.021 0.041,-0.054 0.041,-0.099 0,-0.053 -0.016,-0.091 -0.046,-0.113 -0.031,-0.022 -0.086,-0.033 -0.165,-0.033l-0.081 0zm0.107 -0.305l-0.055 0c-0.018,0 -0.032,0.004 -0.04,0.013 -0.008,0.008 -0.012,0.024 -0.012,0.047l0 0.187 0.073 0c0.075,0 0.126,-0.009 0.152,-0.028 0.026,-0.019 0.04,-0.053 0.04,-0.101 0,-0.041 -0.012,-0.071 -0.037,-0.09 -0.025,-0.018 -0.065,-0.028 -0.121,-0.028zm1.012 0.06c0,-0.022 -0.003,-0.037 -0.01,-0.044 -0.007,-0.007 -0.021,-0.011 -0.042,-0.012l-0.071 -0.003 0 -0.064 0.383 0 0 0.064 -0.069 0.003c-0.021,0.001 -0.035,0.005 -0.042,0.012 -0.006,0.007 -0.01,0.022 -0.01,0.044l0 0.461c0,0.022 0.003,0.037 0.01,0.044 0.007,0.007 0.021,0.011 0.042,0.012l0.069 0.003 0 0.064 -0.383 0 0 -0.064 0.07 -0.003c0.022,-0.001 0.036,-0.005 0.043,-0.012 0.006,-0.007 0.01,-0.022 0.01,-0.044l0 -0.343 -0.318 0.33 0 0.018c0,0.02 0.003,0.033 0.01,0.04 0.007,0.007 0.021,0.011 0.042,0.012l0.069 0.003 0 0.064 -0.383 0 0 -0.064 0.07 -0.003c0.021,-0.001 0.035,-0.005 0.041,-0.012 0.006,-0.007 0.01,-0.022 0.01,-0.045l0 -0.461c0,-0.023 -0.003,-0.038 -0.01,-0.045 -0.006,-0.007 -0.02,-0.011 -0.04,-0.012l-0.071 -0.003 0 -0.064 0.383 0 0 0.064 -0.07 0.003c-0.021,0.001 -0.035,0.005 -0.041,0.012 -0.006,0.007 -0.01,0.022 -0.01,0.045l0 0.349 0.318 -0.33 0 -0.02zm1.181 0.795l-0.057 0c-0.009,-0.082 -0.028,-0.138 -0.058,-0.166 -0.03,-0.029 -0.104,-0.043 -0.221,-0.043l-0.505 0 0 -0.064 0.07 -0.003c0.021,-0.001 0.035,-0.005 0.041,-0.012 0.006,-0.007 0.01,-0.022 0.01,-0.045l0 -0.461c0,-0.023 -0.003,-0.038 -0.01,-0.045 -0.006,-0.007 -0.02,-0.011 -0.04,-0.012l-0.071 -0.003 0 -0.064 0.383 0 0 0.064 -0.07 0.003c-0.021,0.001 -0.035,0.005 -0.041,0.011 -0.006,0.007 -0.01,0.02 -0.01,0.041l0 0.465c0,0.023 0.004,0.039 0.011,0.046 0.007,0.007 0.021,0.011 0.04,0.011l0.216 0c0.02,0 0.034,-0.004 0.041,-0.011 0.007,-0.007 0.011,-0.023 0.011,-0.046l0 -0.461c0,-0.022 -0.003,-0.037 -0.01,-0.044 -0.007,-0.007 -0.021,-0.011 -0.042,-0.012l-0.071 -0.003 0 -0.064 0.383 0 0 0.064 -0.069 0.003c-0.021,0.001 -0.035,0.005 -0.042,0.012 -0.006,0.007 -0.01,0.022 -0.01,0.044l0 0.461c0,0.022 0.003,0.037 0.01,0.045 0.007,0.007 0.021,0.011 0.042,0.012l0.069 0.003 0 0.274zm0.567 -0.591c-0.114,0.015 -0.197,0.038 -0.249,0.07 -0.052,0.031 -0.078,0.074 -0.078,0.128 0,0.042 0.01,0.073 0.03,0.094 0.02,0.02 0.05,0.031 0.091,0.031 0.063,0 0.113,-0.019 0.15,-0.058 0.037,-0.039 0.055,-0.093 0.055,-0.162l0 -0.101zm0.009 0.284c-0.027,0.036 -0.066,0.066 -0.117,0.089 -0.05,0.023 -0.103,0.034 -0.158,0.034 -0.064,0 -0.115,-0.017 -0.153,-0.051 -0.039,-0.034 -0.058,-0.079 -0.058,-0.136 0,-0.074 0.037,-0.133 0.111,-0.177 0.074,-0.044 0.196,-0.08 0.365,-0.107l0 -0.11c0,-0.035 -0.014,-0.063 -0.043,-0.082 -0.028,-0.019 -0.069,-0.029 -0.121,-0.029 -0.04,0 -0.073,0.005 -0.099,0.016 -0.025,0.011 -0.038,0.024 -0.038,0.039 0,0.003 0.006,0.013 0.018,0.03 0.012,0.016 0.018,0.035 0.018,0.055 0,0.024 -0.007,0.043 -0.021,0.056 -0.014,0.014 -0.033,0.021 -0.058,0.021 -0.028,0 -0.051,-0.008 -0.067,-0.023 -0.016,-0.015 -0.024,-0.037 -0.024,-0.064 0,-0.056 0.028,-0.103 0.083,-0.14 0.055,-0.037 0.126,-0.056 0.212,-0.056 0.098,0 0.169,0.018 0.214,0.053 0.045,0.035 0.067,0.093 0.067,0.173l0 0.001 0 0.363c0,0.02 0.005,0.035 0.015,0.046 0.01,0.011 0.024,0.016 0.042,0.016 0.011,0 0.023,-0.003 0.037,-0.01 0.014,-0.007 0.022,-0.01 0.026,-0.01 0.006,0 0.011,0.002 0.015,0.007 0.004,0.005 0.006,0.011 0.006,0.018 0,0.021 -0.015,0.041 -0.043,0.062 -0.029,0.021 -0.062,0.031 -0.099,0.031 -0.035,0 -0.065,-0.01 -0.087,-0.03 -0.023,-0.02 -0.037,-0.048 -0.043,-0.084z"/>
   <path class="fil0" d="M0.199 3.205c0,0.172 0.027,0.3 0.081,0.384 0.054,0.084 0.136,0.126 0.248,0.126 0.109,0 0.191,-0.042 0.246,-0.127 0.054,-0.085 0.081,-0.212 0.081,-0.383 0,-0.174 -0.027,-0.302 -0.081,-0.385 -0.054,-0.083 -0.136,-0.125 -0.247,-0.125 -0.111,0 -0.193,0.042 -0.247,0.126 -0.054,0.084 -0.081,0.212 -0.081,0.384zm-0.199 0c0,-0.169 0.05,-0.309 0.149,-0.417 0.099,-0.109 0.225,-0.163 0.378,-0.163 0.153,0 0.279,0.054 0.377,0.163 0.098,0.109 0.148,0.248 0.148,0.418 0,0.17 -0.049,0.31 -0.147,0.417 -0.098,0.108 -0.224,0.162 -0.378,0.162 -0.154,0 -0.28,-0.054 -0.379,-0.162 -0.099,-0.108 -0.148,-0.247 -0.148,-0.416zm1.171 0.553l0 -0.064 0.07 -0.003c0.021,-0.001 0.036,-0.005 0.042,-0.012 0.007,-0.007 0.01,-0.022 0.01,-0.045l0 -0.461c0,-0.022 -0.003,-0.037 -0.01,-0.044 -0.007,-0.007 -0.021,-0.011 -0.042,-0.012l-0.071 -0.003 0 -0.064 0.587 0 0.014 0.251 -0.058 0c-0.012,-0.068 -0.033,-0.116 -0.064,-0.143 -0.031,-0.028 -0.077,-0.042 -0.139,-0.042 -0.032,0 -0.054,0.003 -0.063,0.01 -0.01,0.007 -0.015,0.023 -0.015,0.048l0 0.461c0,0.022 0.003,0.038 0.01,0.045 0.007,0.007 0.021,0.011 0.042,0.012l0.07 0.003 0 0.064 -0.384 0zm1.016 -0.671c-0.065,0 -0.112,0.025 -0.142,0.076 -0.03,0.05 -0.045,0.131 -0.045,0.241 0,0.11 0.015,0.19 0.045,0.24 0.03,0.05 0.076,0.076 0.14,0.076 0.066,0 0.114,-0.025 0.144,-0.075 0.03,-0.05 0.045,-0.13 0.045,-0.241 0,-0.111 -0.015,-0.191 -0.045,-0.241 -0.03,-0.05 -0.077,-0.076 -0.142,-0.076zm0 -0.063c0.101,0 0.184,0.035 0.248,0.106 0.064,0.071 0.096,0.162 0.096,0.274 0,0.113 -0.032,0.204 -0.095,0.274 -0.064,0.07 -0.146,0.105 -0.248,0.105 -0.101,0 -0.184,-0.035 -0.248,-0.105 -0.064,-0.07 -0.096,-0.161 -0.096,-0.273 0,-0.113 0.032,-0.204 0.096,-0.274 0.064,-0.07 0.147,-0.105 0.249,-0.105zm0.862 0.675c0.063,0 0.109,-0.023 0.139,-0.071 0.03,-0.047 0.045,-0.121 0.045,-0.222 0,-0.102 -0.014,-0.176 -0.042,-0.223 -0.028,-0.047 -0.073,-0.071 -0.133,-0.071 -0.067,0 -0.116,0.023 -0.146,0.069 -0.03,0.046 -0.046,0.121 -0.046,0.225 0,0.103 0.015,0.177 0.044,0.223 0.029,0.046 0.076,0.069 0.14,0.069zm-0.441 0.312l0.065 -0.003c0.021,-0.001 0.035,-0.005 0.042,-0.012 0.006,-0.007 0.009,-0.021 0.009,-0.043l0 -0.775c0,-0.026 -0.005,-0.044 -0.015,-0.052 -0.01,-0.008 -0.031,-0.012 -0.065,-0.012l-0.017 0c0,0 -0.001,0 -0.002,0 -0.007,0.001 -0.012,0.002 -0.017,0.002l0 -0.066 0.248 -0.019 0 0.132c0.028,-0.047 0.061,-0.082 0.098,-0.105 0.037,-0.023 0.08,-0.034 0.127,-0.034 0.089,0 0.163,0.035 0.221,0.106 0.058,0.071 0.088,0.162 0.088,0.273 0,0.109 -0.03,0.2 -0.09,0.272 -0.06,0.072 -0.134,0.108 -0.222,0.108 -0.047,0 -0.087,-0.009 -0.12,-0.026 -0.033,-0.017 -0.064,-0.045 -0.093,-0.085l0 0.28c0,0.021 0.003,0.036 0.01,0.043 0.007,0.007 0.021,0.011 0.042,0.012l0.064 0.003 0 0.064 -0.374 0 0 -0.064zm1.226 -0.925c-0.065,0 -0.112,0.025 -0.142,0.076 -0.03,0.05 -0.045,0.131 -0.045,0.241 0,0.11 0.015,0.19 0.045,0.24 0.03,0.05 0.076,0.076 0.14,0.076 0.066,0 0.114,-0.025 0.144,-0.075 0.03,-0.05 0.045,-0.13 0.045,-0.241 0,-0.111 -0.015,-0.191 -0.045,-0.241 -0.03,-0.05 -0.077,-0.076 -0.142,-0.076zm0 -0.063c0.101,0 0.184,0.035 0.248,0.106 0.064,0.071 0.096,0.162 0.096,0.274 0,0.113 -0.032,0.204 -0.095,0.274 -0.064,0.07 -0.146,0.105 -0.248,0.105 -0.101,0 -0.184,-0.035 -0.248,-0.105 -0.064,-0.07 -0.096,-0.161 -0.096,-0.273 0,-0.113 0.032,-0.204 0.096,-0.274 0.064,-0.07 0.147,-0.105 0.249,-0.105zm0.594 0.669l0.317 0 0 -0.579 -0.076 0c-0.045,0 -0.076,0.008 -0.093,0.024 -0.016,0.016 -0.029,0.064 -0.037,0.142 -0.01,0.096 -0.025,0.177 -0.042,0.242 -0.018,0.066 -0.04,0.122 -0.068,0.17zm0.579 -0.645l0 0.066 -0.071 0.002c-0.021,0.001 -0.035,0.005 -0.041,0.012 -0.006,0.007 -0.009,0.022 -0.009,0.045l0 0.461c0,0.023 0.003,0.038 0.009,0.045 0.006,0.007 0.02,0.011 0.042,0.012l0.07 0.003 0 0.274 -0.056 0c-0.008,-0.082 -0.028,-0.138 -0.058,-0.166 -0.03,-0.029 -0.104,-0.043 -0.222,-0.043l-0.109 0c-0.103,0 -0.169,0.015 -0.2,0.043 -0.03,0.029 -0.05,0.084 -0.058,0.166l-0.058 0 0 -0.274 0.019 0c0.038,0 0.066,-0.008 0.087,-0.023 0.02,-0.015 0.04,-0.043 0.057,-0.084 0.021,-0.047 0.038,-0.108 0.053,-0.183 0.015,-0.075 0.022,-0.141 0.022,-0.198 0,-0.036 -0.005,-0.06 -0.014,-0.071 -0.009,-0.011 -0.029,-0.017 -0.06,-0.018l-0.06 -0.002 0 -0.066 0.655 0z"/>
   <path class="fil0" d="M14.017 1.128l1.173 0 0 0.072 -0.1 0c-0.021,0 -0.037,0.006 -0.047,0.018 -0.01,0.012 -0.015,0.03 -0.015,0.056l0 0.814c0,0.028 0.006,0.048 0.017,0.058 0.011,0.01 0.033,0.016 0.065,0.016l0.081 0 0 0.072 -0.49 0 0 -0.072 0.082 0c0.031,0 0.053,-0.005 0.064,-0.016 0.011,-0.01 0.017,-0.03 0.017,-0.058l0 -0.819c0,-0.027 -0.005,-0.045 -0.015,-0.056 -0.01,-0.011 -0.027,-0.016 -0.051,-0.016l-0.015 0 -0.376 0c-0.021,0 -0.037,0.006 -0.047,0.017 -0.01,0.011 -0.015,0.03 -0.015,0.055l0 0.819c0,0.028 0.005,0.048 0.016,0.058 0.011,0.01 0.032,0.016 0.063,0.016l0.081 0 0 0.072 -0.488 0 0 -0.072 0.079 0c0.032,0 0.053,-0.005 0.065,-0.016 0.011,-0.01 0.017,-0.03 0.017,-0.058l0 -0.814c0,-0.026 -0.005,-0.045 -0.015,-0.056 -0.01,-0.011 -0.027,-0.017 -0.051,-0.017l-0.016 0 -0.079 0 0 -0.072zm1.716 0.697c0.021,0 0.035,-0.004 0.043,-0.01 0.007,-0.007 0.011,-0.02 0.011,-0.038 0,-0.069 -0.014,-0.122 -0.042,-0.159 -0.028,-0.037 -0.068,-0.055 -0.12,-0.055 -0.058,0 -0.102,0.021 -0.13,0.064 -0.029,0.043 -0.044,0.109 -0.045,0.199l0.284 0zm0.159 0.187l0.054 0.031c-0.033,0.071 -0.077,0.126 -0.131,0.162 -0.054,0.036 -0.118,0.054 -0.192,0.054 -0.098,0 -0.178,-0.035 -0.24,-0.105 -0.062,-0.07 -0.092,-0.161 -0.092,-0.273 0,-0.113 0.031,-0.204 0.092,-0.274 0.062,-0.07 0.142,-0.105 0.24,-0.105 0.099,0 0.178,0.032 0.237,0.097 0.058,0.065 0.088,0.152 0.088,0.263 0,0.003 -0,0.008 -0.001,0.015 -0,0.007 -0.001,0.012 -0.001,0.016l-0.499 0c0,0.004 -0,0.009 -0.001,0.015 -0,0.006 -0.001,0.011 -0.001,0.014 0,0.079 0.019,0.141 0.056,0.188 0.037,0.046 0.087,0.069 0.148,0.069 0.053,0 0.1,-0.014 0.14,-0.041 0.041,-0.028 0.075,-0.069 0.103,-0.124zm0.562 0.164c0.063,0 0.109,-0.023 0.139,-0.071 0.03,-0.047 0.045,-0.121 0.045,-0.222 0,-0.102 -0.014,-0.176 -0.042,-0.223 -0.028,-0.047 -0.073,-0.071 -0.133,-0.071 -0.067,0 -0.116,0.023 -0.146,0.069 -0.03,0.046 -0.046,0.121 -0.046,0.225 0,0.103 0.015,0.177 0.044,0.223 0.029,0.046 0.076,0.069 0.14,0.069zm-0.441 0.312l0.065 -0.003c0.021,-0.001 0.035,-0.005 0.042,-0.012 0.006,-0.007 0.009,-0.021 0.009,-0.043l0 -0.775c0,-0.026 -0.005,-0.044 -0.015,-0.052 -0.01,-0.008 -0.031,-0.012 -0.065,-0.012l-0.017 0c0,0 -0.001,0 -0.002,0 -0.007,0.001 -0.012,0.002 -0.017,0.002l0 -0.066 0.248 -0.019 0 0.132c0.028,-0.047 0.061,-0.082 0.098,-0.105 0.037,-0.023 0.08,-0.034 0.127,-0.034 0.089,0 0.163,0.035 0.221,0.106 0.058,0.071 0.088,0.162 0.088,0.273 0,0.109 -0.03,0.2 -0.09,0.272 -0.06,0.072 -0.134,0.108 -0.222,0.108 -0.047,0 -0.087,-0.009 -0.12,-0.026 -0.033,-0.017 -0.064,-0.045 -0.093,-0.085l0 0.28c0,0.021 0.003,0.036 0.01,0.043 0.007,0.007 0.021,0.011 0.042,0.012l0.064 0.003 0 0.064 -0.374 0 0 -0.064zm1.324 -0.663c0.021,0 0.035,-0.004 0.043,-0.01 0.007,-0.007 0.011,-0.02 0.011,-0.038 0,-0.069 -0.014,-0.122 -0.042,-0.159 -0.028,-0.037 -0.068,-0.055 -0.12,-0.055 -0.058,0 -0.102,0.021 -0.13,0.064 -0.029,0.043 -0.044,0.109 -0.045,0.199l0.284 0zm0.159 0.187l0.054 0.031c-0.033,0.071 -0.077,0.126 -0.131,0.162 -0.054,0.036 -0.118,0.054 -0.192,0.054 -0.098,0 -0.178,-0.035 -0.24,-0.105 -0.061,-0.07 -0.092,-0.161 -0.092,-0.273 0,-0.113 0.031,-0.204 0.092,-0.274 0.062,-0.07 0.142,-0.105 0.24,-0.105 0.099,0 0.178,0.032 0.237,0.097 0.058,0.065 0.088,0.152 0.088,0.263 0,0.003 -0,0.008 -0.001,0.015 -0,0.007 -0.001,0.012 -0.001,0.016l-0.499 0c0,0.004 -0,0.009 -0.001,0.015 -0,0.006 -0.001,0.011 -0.001,0.014 0,0.079 0.019,0.141 0.056,0.188 0.037,0.046 0.087,0.069 0.148,0.069 0.053,0 0.1,-0.014 0.14,-0.041 0.041,-0.028 0.075,-0.069 0.103,-0.124zm0.135 0.222l0 -0.064 0.07 -0.003c0.021,-0.001 0.035,-0.005 0.041,-0.012 0.006,-0.007 0.01,-0.022 0.01,-0.045l0 -0.461c0,-0.023 -0.003,-0.038 -0.01,-0.045 -0.006,-0.007 -0.02,-0.011 -0.04,-0.012l-0.071 -0.003 0 -0.064 0.841 0 0 0.064 -0.069 0.003c-0.021,0.001 -0.035,0.005 -0.042,0.012 -0.006,0.007 -0.01,0.022 -0.01,0.044l0 0.461c0,0.022 0.003,0.037 0.01,0.044 0.007,0.007 0.021,0.011 0.042,0.012l0.069 0.003 0 0.064 -0.383 0 0 -0.064 0.07 -0.003c0.022,-0.001 0.036,-0.005 0.043,-0.012 0.006,-0.007 0.01,-0.022 0.01,-0.044l0 -0.461c0,-0.023 -0.004,-0.038 -0.011,-0.045 -0.008,-0.008 -0.021,-0.011 -0.041,-0.011l-0.216 0c-0.019,0 -0.033,0.003 -0.04,0.01 -0.007,0.007 -0.011,0.022 -0.011,0.046l0 0.465c0,0.02 0.003,0.033 0.01,0.04 0.007,0.007 0.021,0.011 0.042,0.012l0.069 0.003 0 0.064 -0.383 0zm1.373 -0.409c0.021,0 0.035,-0.004 0.043,-0.01 0.007,-0.007 0.011,-0.02 0.011,-0.038 0,-0.069 -0.014,-0.122 -0.042,-0.159 -0.028,-0.037 -0.068,-0.055 -0.12,-0.055 -0.058,0 -0.102,0.021 -0.13,0.064 -0.029,0.043 -0.044,0.109 -0.045,0.199l0.284 0zm0.159 0.187l0.054 0.031c-0.033,0.071 -0.077,0.126 -0.131,0.162 -0.054,0.036 -0.118,0.054 -0.192,0.054 -0.098,0 -0.178,-0.035 -0.24,-0.105 -0.061,-0.07 -0.092,-0.161 -0.092,-0.273 0,-0.113 0.031,-0.204 0.092,-0.274 0.062,-0.07 0.142,-0.105 0.24,-0.105 0.099,0 0.178,0.032 0.237,0.097 0.058,0.065 0.088,0.152 0.088,0.263 0,0.003 -0,0.008 -0.001,0.015 -0,0.007 -0.001,0.012 -0.001,0.016l-0.499 0c0,0.004 -0,0.009 -0.001,0.015 -0,0.006 -0.001,0.011 -0.001,0.014 0,0.079 0.019,0.141 0.056,0.188 0.037,0.046 0.087,0.069 0.148,0.069 0.053,0 0.1,-0.014 0.14,-0.041 0.041,-0.028 0.075,-0.069 0.103,-0.124zm0.905 -0.487l0 0.066 -0.071 0.002c-0.021,0.001 -0.035,0.005 -0.042,0.012 -0.006,0.007 -0.01,0.022 -0.01,0.045l0 0.461c0,0.022 0.003,0.037 0.01,0.044 0.007,0.007 0.021,0.011 0.043,0.012l0.07 0.003 0 0.064 -0.384 0 0 -0.064 0.07 -0.003c0.021,-0.001 0.036,-0.005 0.042,-0.012 0.007,-0.007 0.01,-0.022 0.01,-0.044l0 -0.519 -0.089 0c-0.078,0 -0.122,0.069 -0.13,0.207 -0.004,0.064 -0.007,0.117 -0.011,0.158 -0.01,0.112 -0.029,0.189 -0.056,0.23 -0.027,0.042 -0.068,0.062 -0.124,0.062 -0.035,0 -0.064,-0.011 -0.087,-0.032 -0.023,-0.021 -0.034,-0.047 -0.034,-0.077 0,-0.032 0.008,-0.057 0.023,-0.075 0.016,-0.018 0.038,-0.027 0.066,-0.027 0.021,0 0.038,0.006 0.052,0.019 0.014,0.013 0.021,0.029 0.021,0.048 0,0.019 -0.007,0.035 -0.02,0.05 -0.014,0.014 -0.02,0.022 -0.02,0.025 0,0.003 0.002,0.006 0.005,0.008 0.003,0.002 0.007,0.003 0.012,0.003 0.02,0 0.038,-0.009 0.052,-0.027 0.014,-0.018 0.024,-0.044 0.031,-0.079 0.01,-0.05 0.019,-0.114 0.027,-0.191 0.007,-0.078 0.011,-0.152 0.011,-0.223 0,-0.032 -0.005,-0.053 -0.014,-0.064 -0.009,-0.011 -0.029,-0.016 -0.058,-0.017l-0.06 -0.002 0 -0.066 0.666 0z"/>
   <path class="fil0" d="M17.136 10.068l0 0.399c0,0.029 0.006,0.049 0.017,0.058 0.011,0.009 0.034,0.014 0.067,0.014l0.109 0c0.094,0 0.162,-0.018 0.202,-0.054 0.04,-0.036 0.06,-0.095 0.06,-0.178 0,-0.085 -0.024,-0.146 -0.074,-0.184 -0.049,-0.038 -0.13,-0.056 -0.243,-0.056l-0.138 0zm-0.325 0.544l0 -0.072 0.079 0c0.032,0 0.053,-0.005 0.065,-0.016 0.011,-0.01 0.017,-0.03 0.017,-0.058l0 -0.814c0,-0.026 -0.005,-0.045 -0.015,-0.056 -0.01,-0.011 -0.027,-0.017 -0.051,-0.017l-0.016 0 -0.079 0 0 -0.072 0.829 0 0.018 0.374 -0.066 0c-0.022,-0.123 -0.056,-0.204 -0.101,-0.244 -0.045,-0.04 -0.13,-0.06 -0.254,-0.06 -0.046,0 -0.074,0.004 -0.085,0.013 -0.011,0.008 -0.016,0.027 -0.016,0.055l0 0.355 0.203 0c0.146,0 0.255,0.026 0.328,0.079 0.073,0.053 0.11,0.131 0.11,0.235 0,0.095 -0.035,0.169 -0.106,0.221 -0.07,0.052 -0.17,0.079 -0.3,0.079l-0.56 0zm1.413 -0.671c-0.065,0 -0.112,0.025 -0.142,0.076 -0.03,0.05 -0.045,0.131 -0.045,0.241 0,0.11 0.015,0.19 0.045,0.24 0.03,0.05 0.076,0.076 0.14,0.076 0.066,0 0.114,-0.025 0.144,-0.075 0.03,-0.05 0.045,-0.13 0.045,-0.241 0,-0.111 -0.015,-0.191 -0.045,-0.241 -0.03,-0.05 -0.077,-0.076 -0.142,-0.076zm0 -0.063c0.101,0 0.184,0.035 0.248,0.106 0.064,0.071 0.096,0.162 0.096,0.274 0,0.113 -0.032,0.204 -0.095,0.274 -0.064,0.07 -0.146,0.105 -0.248,0.105 -0.101,0 -0.184,-0.035 -0.248,-0.105 -0.064,-0.07 -0.096,-0.161 -0.096,-0.273 0,-0.113 0.032,-0.204 0.096,-0.274 0.064,-0.07 0.147,-0.105 0.249,-0.105zm1.16 0.669l0 0.064 -0.355 0 0 -0.064 0.056 -0.003c0.022,-0.001 0.035,-0.005 0.042,-0.012 0.006,-0.007 0.009,-0.022 0.009,-0.045l0 -0.191c-0.04,0.012 -0.078,0.021 -0.115,0.027 -0.037,0.006 -0.073,0.009 -0.107,0.009 -0.069,0 -0.121,-0.013 -0.157,-0.04 -0.035,-0.027 -0.053,-0.066 -0.053,-0.118l0 -0.147c0,-0.022 -0.003,-0.037 -0.01,-0.044 -0.007,-0.007 -0.021,-0.011 -0.042,-0.012l-0.056 -0.003 0 -0.064 0.357 0 0 0.064 -0.059 0.003c-0.021,0.001 -0.034,0.004 -0.041,0.011 -0.007,0.007 -0.01,0.022 -0.01,0.045l0 0.126c0,0.039 0.009,0.067 0.027,0.083 0.018,0.016 0.05,0.024 0.094,0.024 0.024,0 0.051,-0.003 0.08,-0.008 0.03,-0.005 0.06,-0.013 0.091,-0.023l0 -0.202c0,-0.023 -0.003,-0.038 -0.009,-0.045 -0.006,-0.007 -0.02,-0.011 -0.041,-0.012l-0.057 -0.003 0 -0.064 0.355 0 0 0.064 -0.057 0.003c-0.021,0.001 -0.035,0.005 -0.041,0.011 -0.006,0.007 -0.009,0.022 -0.009,0.045l0 0.461c0,0.023 0.003,0.039 0.009,0.045 0.006,0.007 0.02,0.01 0.042,0.011l0.056 0.003zm0.106 0.064l0 -0.064 0.07 -0.003c0.021,-0.001 0.036,-0.005 0.042,-0.012 0.007,-0.007 0.01,-0.022 0.01,-0.044l0 -0.461c0,-0.022 -0.003,-0.037 -0.01,-0.045 -0.007,-0.007 -0.021,-0.011 -0.042,-0.012l-0.071 -0.003 0 -0.064 0.384 0 0 0.064 -0.071 0.003c-0.021,0.001 -0.035,0.005 -0.042,0.012 -0.006,0.007 -0.01,0.022 -0.01,0.045l0 0.185 0.046 0c0.046,0 0.08,-0.008 0.103,-0.025 0.023,-0.017 0.039,-0.046 0.048,-0.089 0.002,-0.012 0.006,-0.029 0.01,-0.052 0.022,-0.115 0.07,-0.172 0.146,-0.172 0.039,0 0.07,0.01 0.094,0.031 0.024,0.021 0.036,0.048 0.036,0.082 0,0.026 -0.007,0.046 -0.022,0.062 -0.014,0.015 -0.034,0.023 -0.058,0.023 -0.023,0 -0.041,-0.006 -0.053,-0.017 -0.013,-0.011 -0.019,-0.026 -0.019,-0.046 0,-0.014 0.005,-0.027 0.015,-0.041 0.01,-0.014 0.015,-0.022 0.015,-0.024 0,-0.004 -0.002,-0.007 -0.006,-0.01 -0.004,-0.003 -0.009,-0.004 -0.016,-0.004 -0.033,0 -0.058,0.039 -0.073,0.118l0 0.002 -0.001 0.004c-0.018,0.096 -0.05,0.155 -0.096,0.177 0.046,0.007 0.081,0.02 0.105,0.039 0.024,0.019 0.042,0.048 0.055,0.087 0.008,0.023 0.015,0.057 0.021,0.1 0.01,0.066 0.028,0.098 0.054,0.098 0.015,0 0.027,-0.007 0.034,-0.02 0.007,-0.013 0.011,-0.033 0.011,-0.061l0 -0.017 0.046 0c0,0.005 0,0.011 0.001,0.016 0,0.005 0.001,0.008 0.001,0.008 0,0.052 -0.011,0.092 -0.033,0.118 -0.022,0.026 -0.055,0.04 -0.099,0.04 -0.078,0 -0.127,-0.063 -0.144,-0.19 -0.003,-0.021 -0.006,-0.038 -0.008,-0.05 -0.008,-0.051 -0.021,-0.086 -0.041,-0.103 -0.019,-0.018 -0.051,-0.027 -0.094,-0.027l-0.014 0 -0.063 0 0 0.219c0,0.022 0.003,0.037 0.01,0.044 0.007,0.007 0.021,0.011 0.042,0.012l0.07 0.003 0 0.064 -0.384 0zm1.305 -0.382c-0.114,0.015 -0.197,0.038 -0.249,0.07 -0.052,0.031 -0.078,0.074 -0.078,0.128 0,0.042 0.01,0.073 0.03,0.094 0.02,0.02 0.05,0.031 0.091,0.031 0.063,0 0.113,-0.019 0.15,-0.058 0.037,-0.039 0.055,-0.093 0.055,-0.162l0 -0.101zm0.009 0.284c-0.027,0.036 -0.066,0.066 -0.117,0.089 -0.05,0.023 -0.103,0.034 -0.158,0.034 -0.064,0 -0.115,-0.017 -0.153,-0.051 -0.039,-0.034 -0.058,-0.079 -0.058,-0.136 0,-0.074 0.037,-0.133 0.111,-0.177 0.074,-0.044 0.196,-0.08 0.365,-0.107l0 -0.11c0,-0.035 -0.014,-0.063 -0.043,-0.082 -0.028,-0.019 -0.069,-0.029 -0.121,-0.029 -0.04,0 -0.073,0.005 -0.099,0.016 -0.025,0.011 -0.038,0.024 -0.038,0.039 0,0.003 0.006,0.013 0.018,0.03 0.012,0.016 0.018,0.035 0.018,0.055 0,0.024 -0.007,0.043 -0.021,0.056 -0.014,0.014 -0.033,0.021 -0.058,0.021 -0.028,0 -0.051,-0.008 -0.067,-0.023 -0.016,-0.015 -0.024,-0.037 -0.024,-0.064 0,-0.056 0.028,-0.103 0.083,-0.14 0.055,-0.037 0.126,-0.056 0.212,-0.056 0.098,0 0.169,0.018 0.214,0.053 0.045,0.035 0.067,0.093 0.067,0.173l0 0.001 0 0.363c0,0.02 0.005,0.035 0.015,0.046 0.01,0.011 0.024,0.016 0.042,0.016 0.011,0 0.023,-0.003 0.037,-0.01 0.014,-0.007 0.022,-0.01 0.026,-0.01 0.006,0 0.011,0.002 0.015,0.007 0.004,0.005 0.006,0.011 0.006,0.018 0,0.021 -0.015,0.041 -0.043,0.062 -0.029,0.021 -0.062,0.031 -0.099,0.031 -0.035,0 -0.065,-0.01 -0.087,-0.03 -0.023,-0.02 -0.037,-0.048 -0.043,-0.084z"/>
   <path class="fil0" d="M2.847 9.846l0 0.399c0,0.029 0.006,0.049 0.017,0.058 0.011,0.009 0.034,0.014 0.067,0.014l0.109 0c0.094,0 0.162,-0.018 0.202,-0.054 0.04,-0.036 0.06,-0.095 0.06,-0.178 0,-0.085 -0.024,-0.146 -0.074,-0.184 -0.049,-0.038 -0.13,-0.056 -0.243,-0.056l-0.138 0zm-0.325 0.544l0 -0.072 0.079 0c0.032,0 0.053,-0.005 0.065,-0.016 0.011,-0.01 0.017,-0.03 0.017,-0.058l0 -0.814c0,-0.026 -0.005,-0.045 -0.015,-0.056 -0.01,-0.011 -0.027,-0.017 -0.051,-0.017l-0.016 0 -0.079 0 0 -0.072 0.829 0 0.018 0.374 -0.066 0c-0.022,-0.123 -0.056,-0.204 -0.101,-0.244 -0.045,-0.04 -0.13,-0.06 -0.254,-0.06 -0.046,0 -0.074,0.004 -0.085,0.013 -0.011,0.008 -0.016,0.027 -0.016,0.055l0 0.355 0.203 0c0.146,0 0.255,0.026 0.328,0.079 0.073,0.053 0.11,0.131 0.11,0.235 0,0.095 -0.035,0.169 -0.106,0.221 -0.07,0.052 -0.17,0.079 -0.3,0.079l-0.56 0zm1.545 -0.382c-0.114,0.015 -0.197,0.038 -0.249,0.07 -0.052,0.031 -0.078,0.074 -0.078,0.128 0,0.042 0.01,0.073 0.03,0.094 0.02,0.02 0.05,0.031 0.091,0.031 0.063,0 0.113,-0.019 0.15,-0.058 0.037,-0.039 0.055,-0.093 0.055,-0.162l0 -0.101zm0.009 0.284c-0.027,0.036 -0.066,0.066 -0.117,0.089 -0.05,0.023 -0.103,0.034 -0.158,0.034 -0.064,0 -0.115,-0.017 -0.153,-0.051 -0.039,-0.034 -0.058,-0.079 -0.058,-0.136 0,-0.074 0.037,-0.133 0.111,-0.177 0.074,-0.044 0.196,-0.08 0.365,-0.107l0 -0.11c0,-0.035 -0.014,-0.063 -0.043,-0.082 -0.028,-0.019 -0.069,-0.029 -0.121,-0.029 -0.04,0 -0.073,0.005 -0.099,0.016 -0.025,0.011 -0.038,0.024 -0.038,0.039 0,0.003 0.006,0.013 0.018,0.03 0.012,0.016 0.018,0.035 0.018,0.055 0,0.024 -0.007,0.043 -0.021,0.056 -0.014,0.014 -0.033,0.021 -0.058,0.021 -0.028,0 -0.051,-0.008 -0.067,-0.023 -0.016,-0.015 -0.024,-0.037 -0.024,-0.064 0,-0.056 0.028,-0.103 0.083,-0.14 0.055,-0.037 0.126,-0.056 0.212,-0.056 0.098,0 0.169,0.018 0.214,0.053 0.045,0.035 0.067,0.093 0.067,0.173l0 0.001 0 0.363c0,0.02 0.005,0.035 0.015,0.046 0.01,0.011 0.024,0.016 0.042,0.016 0.011,0 0.023,-0.003 0.037,-0.01 0.014,-0.007 0.022,-0.01 0.026,-0.01 0.006,0 0.011,0.002 0.015,0.007 0.004,0.005 0.006,0.011 0.006,0.018 0,0.021 -0.015,0.041 -0.043,0.062 -0.029,0.021 -0.062,0.031 -0.099,0.031 -0.035,0 -0.065,-0.01 -0.087,-0.03 -0.023,-0.02 -0.037,-0.048 -0.043,-0.084zm0.647 -0.573c-0.058,0 -0.102,0.026 -0.131,0.079 -0.029,0.052 -0.044,0.132 -0.044,0.238 0,0.107 0.015,0.186 0.044,0.238 0.029,0.052 0.074,0.079 0.134,0.079 0.058,0 0.101,-0.026 0.13,-0.079 0.029,-0.053 0.043,-0.132 0.043,-0.238 0,-0.108 -0.014,-0.187 -0.043,-0.239 -0.029,-0.052 -0.073,-0.078 -0.133,-0.078zm0.252 -0.461l0.055 0c-0.006,0.123 -0.082,0.198 -0.226,0.225 -0.02,0.004 -0.036,0.007 -0.048,0.009 -0.096,0.019 -0.164,0.052 -0.204,0.098 -0.041,0.046 -0.071,0.125 -0.092,0.237 0.03,-0.056 0.069,-0.099 0.115,-0.128 0.046,-0.029 0.099,-0.043 0.157,-0.043 0.094,0 0.172,0.036 0.233,0.107 0.061,0.072 0.092,0.162 0.092,0.273 0,0.111 -0.032,0.201 -0.095,0.272 -0.064,0.071 -0.143,0.106 -0.239,0.106 -0.106,0 -0.188,-0.038 -0.246,-0.115 -0.058,-0.077 -0.087,-0.187 -0.087,-0.329 0,-0.166 0.026,-0.299 0.076,-0.401 0.051,-0.102 0.126,-0.168 0.224,-0.198 0.033,-0.01 0.078,-0.019 0.136,-0.028 0.092,-0.015 0.141,-0.043 0.149,-0.084zm0.525 0.461c-0.065,0 -0.112,0.025 -0.142,0.076 -0.03,0.05 -0.045,0.131 -0.045,0.241 0,0.11 0.015,0.19 0.045,0.24 0.03,0.05 0.076,0.076 0.14,0.076 0.066,0 0.114,-0.025 0.144,-0.075 0.03,-0.05 0.045,-0.13 0.045,-0.241 0,-0.111 -0.015,-0.191 -0.045,-0.241 -0.03,-0.05 -0.077,-0.076 -0.142,-0.076zm0 -0.063c0.101,0 0.184,0.035 0.248,0.106 0.064,0.071 0.096,0.162 0.096,0.274 0,0.113 -0.032,0.204 -0.095,0.274 -0.064,0.07 -0.146,0.105 -0.248,0.105 -0.101,0 -0.184,-0.035 -0.248,-0.105 -0.064,-0.07 -0.096,-0.161 -0.096,-0.273 0,-0.113 0.032,-0.204 0.096,-0.274 0.064,-0.07 0.147,-0.105 0.249,-0.105zm1.16 0.669l0 0.064 -0.355 0 0 -0.064 0.056 -0.003c0.022,-0.001 0.035,-0.005 0.042,-0.012 0.006,-0.007 0.009,-0.022 0.009,-0.045l0 -0.191c-0.04,0.012 -0.078,0.021 -0.115,0.027 -0.037,0.006 -0.073,0.009 -0.107,0.009 -0.069,0 -0.121,-0.013 -0.157,-0.04 -0.035,-0.027 -0.053,-0.066 -0.053,-0.118l0 -0.147c0,-0.022 -0.003,-0.037 -0.01,-0.044 -0.007,-0.007 -0.021,-0.011 -0.042,-0.012l-0.056 -0.003 0 -0.064 0.357 0 0 0.064 -0.059 0.003c-0.021,0.001 -0.034,0.004 -0.041,0.011 -0.007,0.007 -0.01,0.022 -0.01,0.045l0 0.126c0,0.039 0.009,0.067 0.027,0.083 0.018,0.016 0.05,0.024 0.094,0.024 0.024,0 0.051,-0.003 0.08,-0.008 0.03,-0.005 0.06,-0.013 0.091,-0.023l0 -0.202c0,-0.023 -0.003,-0.038 -0.009,-0.045 -0.006,-0.007 -0.02,-0.011 -0.041,-0.012l-0.057 -0.003 0 -0.064 0.355 0 0 0.064 -0.057 0.003c-0.021,0.001 -0.035,0.005 -0.041,0.011 -0.006,0.007 -0.009,0.022 -0.009,0.045l0 0.461c0,0.023 0.003,0.039 0.009,0.045 0.006,0.007 0.02,0.01 0.042,0.011l0.056 0.003zm0.106 0.064l0 -0.064 0.07 -0.003c0.021,-0.001 0.036,-0.005 0.042,-0.012 0.007,-0.007 0.01,-0.022 0.01,-0.044l0 -0.461c0,-0.022 -0.003,-0.037 -0.01,-0.045 -0.007,-0.007 -0.021,-0.011 -0.042,-0.012l-0.071 -0.003 0 -0.064 0.384 0 0 0.064 -0.071 0.003c-0.021,0.001 -0.035,0.005 -0.042,0.012 -0.006,0.007 -0.01,0.022 -0.01,0.045l0 0.185 0.046 0c0.046,0 0.08,-0.008 0.103,-0.025 0.023,-0.017 0.039,-0.046 0.048,-0.089 0.002,-0.012 0.006,-0.029 0.01,-0.052 0.022,-0.115 0.07,-0.172 0.146,-0.172 0.039,0 0.07,0.01 0.094,0.031 0.024,0.021 0.036,0.048 0.036,0.082 0,0.026 -0.007,0.046 -0.022,0.062 -0.014,0.015 -0.034,0.023 -0.058,0.023 -0.023,0 -0.041,-0.006 -0.053,-0.017 -0.013,-0.011 -0.019,-0.026 -0.019,-0.046 0,-0.014 0.005,-0.027 0.015,-0.041 0.01,-0.014 0.015,-0.022 0.015,-0.024 0,-0.004 -0.002,-0.007 -0.006,-0.01 -0.004,-0.003 -0.009,-0.004 -0.016,-0.004 -0.033,0 -0.058,0.039 -0.073,0.118l0 0.002 -0.001 0.004c-0.018,0.096 -0.05,0.155 -0.096,0.177 0.046,0.007 0.081,0.02 0.105,0.039 0.024,0.019 0.042,0.048 0.055,0.087 0.008,0.023 0.015,0.057 0.021,0.1 0.01,0.066 0.028,0.098 0.054,0.098 0.015,0 0.027,-0.007 0.034,-0.02 0.007,-0.013 0.011,-0.033 0.011,-0.061l0 -0.017 0.046 0c0,0.005 0,0.011 0.001,0.016 0,0.005 0.001,0.008 0.001,0.008 0,0.052 -0.011,0.092 -0.033,0.118 -0.022,0.026 -0.055,0.04 -0.099,0.04 -0.078,0 -0.127,-0.063 -0.144,-0.19 -0.003,-0.021 -0.006,-0.038 -0.008,-0.05 -0.008,-0.051 -0.021,-0.086 -0.041,-0.103 -0.019,-0.018 -0.051,-0.027 -0.094,-0.027l-0.014 0 -0.063 0 0 0.219c0,0.022 0.003,0.037 0.01,0.044 0.007,0.007 0.021,0.011 0.042,0.012l0.07 0.003 0 0.064 -0.384 0zm1.305 -0.382c-0.114,0.015 -0.197,0.038 -0.249,0.07 -0.052,0.031 -0.078,0.074 -0.078,0.128 0,0.042 0.01,0.073 0.03,0.094 0.02,0.02 0.05,0.031 0.091,0.031 0.063,0 0.113,-0.019 0.15,-0.058 0.037,-0.039 0.055,-0.093 0.055,-0.162l0 -0.101zm0.009 0.284c-0.027,0.036 -0.066,0.066 -0.117,0.089 -0.05,0.023 -0.103,0.034 -0.158,0.034 -0.064,0 -0.115,-0.017 -0.153,-0.051 -0.039,-0.034 -0.058,-0.079 -0.058,-0.136 0,-0.074 0.037,-0.133 0.111,-0.177 0.074,-0.044 0.196,-0.08 0.365,-0.107l0 -0.11c0,-0.035 -0.014,-0.063 -0.043,-0.082 -0.028,-0.019 -0.069,-0.029 -0.121,-0.029 -0.04,0 -0.073,0.005 -0.099,0.016 -0.025,0.011 -0.038,0.024 -0.038,0.039 0,0.003 0.006,0.013 0.018,0.03 0.012,0.016 0.018,0.035 0.018,0.055 0,0.024 -0.007,0.043 -0.021,0.056 -0.014,0.014 -0.033,0.021 -0.058,0.021 -0.028,0 -0.051,-0.008 -0.067,-0.023 -0.016,-0.015 -0.024,-0.037 -0.024,-0.064 0,-0.056 0.028,-0.103 0.083,-0.14 0.055,-0.037 0.126,-0.056 0.212,-0.056 0.098,0 0.169,0.018 0.214,0.053 0.045,0.035 0.067,0.093 0.067,0.173l0 0.001 0 0.363c0,0.02 0.005,0.035 0.015,0.046 0.01,0.011 0.024,0.016 0.042,0.016 0.011,0 0.023,-0.003 0.037,-0.01 0.014,-0.007 0.022,-0.01 0.026,-0.01 0.006,0 0.011,0.002 0.015,0.007 0.004,0.005 0.006,0.011 0.006,0.018 0,0.021 -0.015,0.041 -0.043,0.062 -0.029,0.021 -0.062,0.031 -0.099,0.031 -0.035,0 -0.065,-0.01 -0.087,-0.03 -0.023,-0.02 -0.037,-0.048 -0.043,-0.084z"/>
  </g>
 </g>
</svg>
