<?xml version="1.0" encoding="UTF-8"?>
<!DOCTYPE svg PUBLIC "-//W3C//DTD SVG 1.1//EN" "http://www.w3.org/Graphics/SVG/1.1/DTD/svg11.dtd">
<!-- Creator: CorelDRAW -->
<svg xmlns="http://www.w3.org/2000/svg" xml:space="preserve" width="73.2014mm" height="55.1863mm" version="1.1" style="shape-rendering:geometricPrecision; text-rendering:geometricPrecision; image-rendering:optimizeQuality; fill-rule:evenodd; clip-rule:evenodd"
viewBox="0 0 119.69 90.23"
 xmlns:xlink="http://www.w3.org/1999/xlink"
 xmlns:xodm="http://www.corel.com/coreldraw/odm/2003">
 <defs>
  <style type="text/css">
   <![CDATA[
    .fil0 {fill:#656551;fill-rule:nonzero}
   ]]>
  </style>
 </defs>
 <g id="Слой_x0020_1">
  <metadata id="CorelCorpID_0Corel-Layer"/>
  <path class="fil0" d="M53.57 82.82l0.82 0 0 2.76 1.19 0c0.06,-0.87 0.34,-1.57 0.86,-2.08 0.51,-0.52 1.15,-0.78 1.91,-0.78 0.8,0 1.46,0.28 1.99,0.85 0.53,0.56 0.79,1.33 0.79,2.3 0,1.01 -0.26,1.79 -0.79,2.36 -0.52,0.57 -1.2,0.85 -2.01,0.85 -0.74,0 -1.36,-0.25 -1.86,-0.74 -0.5,-0.49 -0.79,-1.17 -0.87,-2.04l-1.19 0 0 2.67 -0.82 0 0 -6.15zm2.81 3.1c0,0.78 0.18,1.38 0.54,1.81 0.36,0.43 0.82,0.64 1.4,0.64 0.59,0 1.07,-0.21 1.42,-0.65 0.35,-0.43 0.53,-1.05 0.53,-1.86 0,-0.77 -0.17,-1.37 -0.52,-1.81 -0.35,-0.44 -0.82,-0.66 -1.41,-0.66 -0.6,0 -1.08,0.22 -1.43,0.67 -0.35,0.45 -0.52,1.06 -0.52,1.85z"/>
  <polygon id="_1" class="fil0" points="62.12,84.51 64.69,84.51 64.69,85.14 62.88,85.14 62.88,88.97 62.12,88.97 "/>
  <path id="_2" class="fil0" d="M65.46 84.51l3.11 0 0 3.84 0.48 0 0 1.88 -0.62 0 0 -1.26 -3.51 0 0 1.26 -0.62 0 0 -1.88 0.4 0c0.53,-0.72 0.79,-2 0.76,-3.84zm0.63 0.63c-0.06,1.45 -0.28,2.52 -0.67,3.21l2.4 0 0 -3.21 -1.73 0z"/>
  <path id="_3" class="fil0" d="M69.6 86.74c0,-0.82 0.23,-1.43 0.69,-1.83 0.38,-0.33 0.85,-0.49 1.4,-0.49 0.61,0 1.11,0.2 1.5,0.6 0.39,0.4 0.58,0.95 0.58,1.66 0,0.57 -0.09,1.02 -0.26,1.35 -0.17,0.33 -0.42,0.58 -0.75,0.76 -0.33,0.18 -0.69,0.27 -1.08,0.27 -0.62,0 -1.13,-0.2 -1.51,-0.6 -0.39,-0.4 -0.58,-0.97 -0.58,-1.73zm0.77 0c0,0.57 0.12,1 0.37,1.28 0.25,0.28 0.56,0.43 0.94,0.43 0.38,0 0.69,-0.14 0.94,-0.43 0.25,-0.28 0.37,-0.72 0.37,-1.3 0,-0.55 -0.13,-0.97 -0.38,-1.25 -0.25,-0.28 -0.56,-0.43 -0.93,-0.43 -0.38,0 -0.69,0.14 -0.94,0.42 -0.25,0.28 -0.37,0.71 -0.37,1.28z"/>
  <polygon id="_4" class="fil0" points="74.66,84.51 75.42,84.51 75.42,86.37 77.51,86.37 77.51,84.51 78.27,84.51 78.27,88.97 77.51,88.97 77.51,86.99 75.42,86.99 75.42,88.97 74.66,88.97 "/>
  <path class="fil0" d="M52.16 0.1l0.82 0 0 2.76 1.19 0c0.06,-0.87 0.34,-1.57 0.86,-2.08 0.51,-0.52 1.15,-0.78 1.91,-0.78 0.8,0 1.46,0.28 1.99,0.85 0.53,0.56 0.79,1.33 0.79,2.3 0,1.01 -0.26,1.79 -0.79,2.36 -0.52,0.57 -1.2,0.85 -2.01,0.85 -0.74,0 -1.36,-0.25 -1.86,-0.74 -0.5,-0.49 -0.79,-1.17 -0.87,-2.04l-1.19 0 0 2.67 -0.82 0 0 -6.15zm2.81 3.1c0,0.78 0.18,1.38 0.54,1.81 0.36,0.43 0.82,0.64 1.4,0.64 0.59,0 1.07,-0.21 1.42,-0.65 0.35,-0.43 0.53,-1.05 0.53,-1.86 0,-0.77 -0.17,-1.37 -0.52,-1.81 -0.35,-0.44 -0.82,-0.66 -1.41,-0.66 -0.6,0 -1.08,0.22 -1.43,0.67 -0.35,0.45 -0.52,1.06 -0.52,1.85z"/>
  <path id="_1_0" class="fil0" d="M60.69 1.8l3.51 0 0 4.45 -0.76 0 0 -3.83 -2 0 0 2.22c0,0.52 -0.02,0.86 -0.05,1.02 -0.03,0.16 -0.13,0.31 -0.28,0.43 -0.15,0.12 -0.37,0.18 -0.65,0.18 -0.18,0 -0.38,-0.01 -0.61,-0.03l0 -0.63 0.33 0c0.16,0 0.27,-0.02 0.34,-0.05 0.07,-0.03 0.11,-0.08 0.13,-0.15 0.02,-0.07 0.03,-0.3 0.03,-0.68l0 -2.94z"/>
  <polygon id="_2_1" class="fil0" points="64.94,1.8 68.55,1.8 68.55,2.42 67.12,2.42 67.12,6.25 66.37,6.25 66.37,2.42 64.94,2.42 "/>
  <path id="_3_2" class="fil0" d="M68.89 4.02c0,-0.82 0.23,-1.43 0.69,-1.83 0.38,-0.33 0.85,-0.49 1.4,-0.49 0.61,0 1.11,0.2 1.5,0.6 0.39,0.4 0.58,0.95 0.58,1.66 0,0.57 -0.09,1.02 -0.26,1.35 -0.17,0.33 -0.42,0.58 -0.75,0.76 -0.33,0.18 -0.69,0.27 -1.08,0.27 -0.62,0 -1.13,-0.2 -1.51,-0.6 -0.39,-0.4 -0.58,-0.97 -0.58,-1.73zm0.77 0c0,0.57 0.12,1 0.37,1.28 0.25,0.28 0.56,0.43 0.94,0.43 0.38,0 0.69,-0.14 0.94,-0.43 0.25,-0.28 0.37,-0.72 0.37,-1.3 0,-0.55 -0.13,-0.97 -0.38,-1.25 -0.25,-0.28 -0.56,-0.43 -0.94,-0.43 -0.38,0 -0.69,0.14 -0.94,0.42 -0.25,0.28 -0.37,0.71 -0.37,1.28z"/>
  <polygon id="_4_3" class="fil0" points="73.98,1.8 74.73,1.8 74.73,5.63 76.45,5.63 76.45,1.8 77.21,1.8 77.21,5.63 78.93,5.63 78.93,1.8 79.68,1.8 79.68,6.25 73.98,6.25 "/>
  <path class="fil0" d="M5.18 61.85l0.82 0 0 2.76 1.19 0c0.06,-0.87 0.34,-1.57 0.86,-2.08 0.51,-0.52 1.15,-0.78 1.91,-0.78 0.8,0 1.46,0.28 1.99,0.85 0.53,0.56 0.79,1.33 0.79,2.3 0,1.01 -0.26,1.79 -0.79,2.36 -0.52,0.57 -1.2,0.85 -2.01,0.85 -0.74,0 -1.36,-0.25 -1.86,-0.74 -0.5,-0.49 -0.79,-1.17 -0.87,-2.04l-1.19 0 0 2.67 -0.82 0 0 -6.15zm2.81 3.1c0,0.78 0.18,1.38 0.54,1.81 0.36,0.43 0.82,0.64 1.4,0.64 0.59,0 1.07,-0.21 1.42,-0.65 0.35,-0.43 0.53,-1.05 0.53,-1.86 0,-0.77 -0.17,-1.37 -0.52,-1.81 -0.35,-0.44 -0.82,-0.66 -1.41,-0.66 -0.6,0 -1.08,0.22 -1.43,0.67 -0.35,0.45 -0.52,1.06 -0.52,1.85z"/>
  <path id="_1_4" class="fil0" d="M16.97 61.71l0.67 0.01c-0.03,0.3 -0.1,0.51 -0.2,0.63 -0.1,0.12 -0.23,0.19 -0.39,0.23 -0.16,0.03 -0.48,0.05 -0.94,0.05 -0.62,0 -1.05,0.06 -1.27,0.18 -0.22,0.12 -0.39,0.31 -0.49,0.58 -0.1,0.26 -0.15,0.6 -0.16,1.02 0.19,-0.28 0.41,-0.5 0.67,-0.64 0.25,-0.14 0.54,-0.21 0.86,-0.21 0.58,0 1.07,0.2 1.45,0.6 0.38,0.4 0.57,0.94 0.57,1.63 0,0.52 -0.1,0.95 -0.29,1.28 -0.19,0.33 -0.42,0.59 -0.69,0.77 -0.26,0.18 -0.62,0.27 -1.08,0.27 -0.53,0 -0.94,-0.12 -1.23,-0.36 -0.29,-0.24 -0.52,-0.55 -0.68,-0.93 -0.16,-0.38 -0.23,-1.03 -0.23,-1.97 0,-1.18 0.2,-1.97 0.6,-2.38 0.4,-0.41 1.01,-0.61 1.83,-0.61 0.51,0 0.8,-0.01 0.87,-0.03 0.07,-0.02 0.11,-0.06 0.13,-0.12zm-0.03 4.05c0,-0.46 -0.11,-0.84 -0.33,-1.14 -0.22,-0.3 -0.53,-0.44 -0.93,-0.44 -0.42,0 -0.74,0.16 -0.96,0.47 -0.23,0.31 -0.34,0.73 -0.34,1.25 0,0.52 0.12,0.91 0.38,1.18 0.25,0.27 0.56,0.41 0.92,0.41 0.38,0 0.68,-0.16 0.91,-0.48 0.23,-0.32 0.35,-0.74 0.35,-1.26z"/>
  <path id="_2_5" class="fil0" d="M21.59 66.56l0.78 0.1c-0.12,0.45 -0.35,0.81 -0.68,1.06 -0.33,0.25 -0.76,0.38 -1.27,0.38 -0.65,0 -1.17,-0.2 -1.55,-0.6 -0.38,-0.4 -0.57,-0.96 -0.57,-1.69 0,-0.75 0.19,-1.33 0.58,-1.74 0.39,-0.41 0.88,-0.62 1.5,-0.62 0.59,0 1.08,0.2 1.46,0.61 0.38,0.41 0.57,0.98 0.57,1.71 0,0.04 -0,0.11 -0,0.2l-3.32 0c0.03,0.49 0.17,0.86 0.42,1.12 0.25,0.26 0.56,0.39 0.93,0.39 0.28,0 0.51,-0.07 0.71,-0.22 0.2,-0.15 0.35,-0.38 0.47,-0.7zm-2.47 -1.21l2.48 0c-0.03,-0.38 -0.13,-0.66 -0.28,-0.84 -0.24,-0.29 -0.55,-0.44 -0.93,-0.44 -0.35,0 -0.64,0.12 -0.87,0.35 -0.23,0.23 -0.37,0.54 -0.39,0.93z"/>
  <path id="_3_6" class="fil0" d="M23.33 69.72l0 -6.17 0.69 0 0 0.59c0.16,-0.23 0.35,-0.4 0.55,-0.51 0.2,-0.11 0.45,-0.17 0.74,-0.17 0.38,0 0.72,0.1 1.01,0.29 0.29,0.19 0.51,0.47 0.66,0.83 0.15,0.36 0.22,0.75 0.22,1.17 0,0.45 -0.08,0.86 -0.24,1.23 -0.16,0.36 -0.4,0.64 -0.71,0.84 -0.31,0.19 -0.64,0.29 -0.98,0.29 -0.25,0 -0.48,-0.05 -0.68,-0.16 -0.2,-0.11 -0.36,-0.24 -0.49,-0.4l0 2.17 -0.76 0zm0.69 -3.91c0,0.57 0.12,0.99 0.35,1.27 0.23,0.27 0.51,0.41 0.84,0.41 0.34,0 0.62,-0.14 0.86,-0.43 0.24,-0.28 0.36,-0.72 0.36,-1.32 0,-0.57 -0.12,-0.99 -0.35,-1.27 -0.23,-0.28 -0.51,-0.42 -0.83,-0.42 -0.32,0 -0.6,0.15 -0.85,0.45 -0.25,0.3 -0.37,0.74 -0.37,1.31z"/>
  <path class="fil0" d="M-0 9.32l0.82 0 0 2.76 1.19 0c0.06,-0.87 0.34,-1.57 0.86,-2.08 0.51,-0.52 1.15,-0.78 1.91,-0.78 0.8,0 1.46,0.28 1.99,0.85 0.53,0.56 0.79,1.33 0.79,2.3 0,1.01 -0.26,1.79 -0.79,2.36 -0.52,0.57 -1.2,0.85 -2.01,0.85 -0.74,0 -1.36,-0.25 -1.86,-0.74 -0.5,-0.49 -0.79,-1.17 -0.87,-2.04l-1.19 0 0 2.67 -0.82 0 0 -6.15zm2.81 3.1c0,0.78 0.18,1.38 0.54,1.81 0.36,0.43 0.82,0.64 1.4,0.64 0.59,0 1.07,-0.21 1.42,-0.65 0.35,-0.43 0.53,-1.05 0.53,-1.86 0,-0.77 -0.17,-1.37 -0.52,-1.81 -0.35,-0.44 -0.82,-0.66 -1.41,-0.66 -0.6,0 -1.08,0.22 -1.43,0.67 -0.35,0.45 -0.52,1.06 -0.52,1.85z"/>
  <path id="_1_7" class="fil0" d="M11.8 9.17l0.67 0.01c-0.03,0.3 -0.1,0.51 -0.2,0.63 -0.1,0.12 -0.23,0.19 -0.39,0.23 -0.16,0.03 -0.48,0.05 -0.94,0.05 -0.62,0 -1.05,0.06 -1.27,0.18 -0.22,0.12 -0.39,0.31 -0.49,0.58 -0.1,0.26 -0.15,0.6 -0.16,1.02 0.19,-0.28 0.41,-0.5 0.67,-0.64 0.25,-0.14 0.54,-0.21 0.86,-0.21 0.58,0 1.07,0.2 1.45,0.6 0.38,0.4 0.57,0.94 0.57,1.63 0,0.52 -0.1,0.95 -0.29,1.28 -0.19,0.33 -0.42,0.59 -0.69,0.77 -0.26,0.18 -0.62,0.27 -1.08,0.27 -0.53,0 -0.94,-0.12 -1.23,-0.36 -0.29,-0.24 -0.52,-0.55 -0.68,-0.93 -0.16,-0.38 -0.23,-1.03 -0.23,-1.97 0,-1.18 0.2,-1.97 0.6,-2.38 0.4,-0.41 1.01,-0.61 1.83,-0.61 0.51,0 0.8,-0.01 0.87,-0.03 0.07,-0.02 0.11,-0.06 0.13,-0.12zm-0.03 4.05c0,-0.46 -0.11,-0.84 -0.33,-1.14 -0.22,-0.3 -0.53,-0.44 -0.93,-0.44 -0.42,0 -0.74,0.16 -0.96,0.47 -0.23,0.31 -0.34,0.73 -0.34,1.25 0,0.52 0.12,0.91 0.38,1.18 0.25,0.27 0.56,0.41 0.92,0.41 0.38,0 0.68,-0.16 0.91,-0.48 0.23,-0.32 0.35,-0.74 0.35,-1.26z"/>
  <path id="_2_8" class="fil0" d="M13.19 13.24c0,-0.82 0.23,-1.43 0.69,-1.83 0.38,-0.33 0.85,-0.49 1.4,-0.49 0.61,0 1.11,0.2 1.5,0.6 0.39,0.4 0.58,0.95 0.58,1.66 0,0.57 -0.09,1.02 -0.26,1.35 -0.17,0.33 -0.42,0.58 -0.75,0.76 -0.33,0.18 -0.69,0.27 -1.08,0.27 -0.62,0 -1.13,-0.2 -1.51,-0.6 -0.39,-0.4 -0.58,-0.97 -0.58,-1.73zm0.77 0c0,0.57 0.12,1 0.37,1.28 0.25,0.28 0.56,0.43 0.94,0.43 0.38,0 0.69,-0.14 0.94,-0.43 0.25,-0.28 0.37,-0.72 0.37,-1.3 0,-0.55 -0.13,-0.97 -0.38,-1.25 -0.25,-0.28 -0.56,-0.43 -0.93,-0.43 -0.38,0 -0.69,0.14 -0.94,0.42 -0.25,0.28 -0.37,0.71 -0.37,1.28z"/>
  <path class="fil0" d="M103.2 13.48l0.82 0 0 2.76 1.19 0c0.06,-0.87 0.34,-1.57 0.86,-2.08 0.51,-0.52 1.15,-0.78 1.91,-0.78 0.8,0 1.46,0.28 1.99,0.85 0.53,0.56 0.79,1.33 0.79,2.3 0,1.01 -0.26,1.79 -0.79,2.36 -0.52,0.57 -1.2,0.85 -2.01,0.85 -0.74,0 -1.36,-0.25 -1.86,-0.74 -0.5,-0.49 -0.79,-1.17 -0.87,-2.04l-1.19 0 0 2.67 -0.82 0 0 -6.15zm2.81 3.1c0,0.78 0.18,1.38 0.54,1.81 0.36,0.43 0.82,0.64 1.4,0.64 0.59,0 1.07,-0.21 1.42,-0.65 0.35,-0.43 0.53,-1.05 0.53,-1.86 0,-0.77 -0.17,-1.37 -0.52,-1.81 -0.35,-0.44 -0.82,-0.66 -1.41,-0.66 -0.6,0 -1.08,0.22 -1.43,0.67 -0.35,0.45 -0.52,1.06 -0.52,1.85z"/>
  <path id="_1_9" class="fil0" d="M114.66 18l0.74 0.1c-0.08,0.51 -0.29,0.9 -0.62,1.19 -0.33,0.29 -0.74,0.43 -1.23,0.43 -0.61,0 -1.1,-0.2 -1.47,-0.6 -0.37,-0.4 -0.56,-0.97 -0.56,-1.71 0,-0.48 0.08,-0.9 0.24,-1.26 0.16,-0.36 0.4,-0.63 0.73,-0.81 0.33,-0.18 0.68,-0.27 1.06,-0.27 0.48,0 0.88,0.12 1.19,0.37 0.31,0.24 0.51,0.59 0.59,1.04l-0.73 0.11c-0.07,-0.3 -0.19,-0.52 -0.37,-0.68 -0.18,-0.15 -0.39,-0.23 -0.64,-0.23 -0.38,0 -0.69,0.14 -0.93,0.41 -0.24,0.27 -0.36,0.7 -0.36,1.29 0,0.6 0.11,1.03 0.34,1.3 0.23,0.27 0.53,0.41 0.9,0.41 0.3,0 0.55,-0.09 0.74,-0.27 0.2,-0.18 0.33,-0.46 0.38,-0.84z"/>
  <path id="_2_10" class="fil0" d="M116.03 15.17l0.76 0 0 1.74 0.96 0c0.62,0 1.1,0.12 1.44,0.36 0.34,0.24 0.51,0.58 0.51,1 0,0.37 -0.14,0.69 -0.42,0.96 -0.28,0.26 -0.73,0.4 -1.35,0.4l-1.89 0 0 -4.46zm0.76 3.84l0.8 0c0.48,0 0.82,-0.06 1.03,-0.18 0.2,-0.12 0.31,-0.3 0.31,-0.55 0,-0.19 -0.08,-0.37 -0.23,-0.52 -0.15,-0.15 -0.49,-0.23 -1.01,-0.23l-0.9 0 0 1.47z"/>
  <path class="fil0" d="M102.07 61.88l0.82 0 0 2.76 1.19 0c0.06,-0.87 0.34,-1.57 0.86,-2.08 0.51,-0.52 1.15,-0.78 1.91,-0.78 0.8,0 1.46,0.28 1.99,0.85 0.53,0.56 0.79,1.33 0.79,2.3 0,1.01 -0.26,1.79 -0.79,2.36 -0.52,0.57 -1.2,0.85 -2.01,0.85 -0.74,0 -1.36,-0.25 -1.86,-0.74 -0.5,-0.49 -0.79,-1.17 -0.87,-2.04l-1.19 0 0 2.67 -0.82 0 0 -6.15zm2.81 3.1c0,0.78 0.18,1.38 0.54,1.81 0.36,0.43 0.82,0.64 1.4,0.64 0.59,0 1.07,-0.21 1.42,-0.65 0.35,-0.43 0.53,-1.05 0.53,-1.86 0,-0.77 -0.17,-1.37 -0.52,-1.81 -0.35,-0.44 -0.82,-0.66 -1.41,-0.66 -0.6,0 -1.08,0.22 -1.43,0.67 -0.35,0.45 -0.52,1.06 -0.52,1.85z"/>
  <polygon id="_1_11" class="fil0" points="110.65,63.57 111.4,63.57 111.4,67.41 113.12,67.41 113.12,63.57 113.88,63.57 113.88,67.41 115.6,67.41 115.6,63.57 116.35,63.57 116.35,68.03 110.65,68.03 "/>
 </g>
</svg>
