<?xml version="1.0" encoding="UTF-8"?>
<!DOCTYPE svg PUBLIC "-//W3C//DTD SVG 1.1//EN" "http://www.w3.org/Graphics/SVG/1.1/DTD/svg11.dtd">
<!-- Creator: CorelDRAW -->
<svg xmlns="http://www.w3.org/2000/svg" xml:space="preserve" width="78.8682mm" height="48.6748mm" version="1.1" style="shape-rendering:geometricPrecision; text-rendering:geometricPrecision; image-rendering:optimizeQuality; fill-rule:evenodd; clip-rule:evenodd"
viewBox="0 0 135.53 83.64"
 xmlns:xlink="http://www.w3.org/1999/xlink"
 xmlns:xodm="http://www.corel.com/coreldraw/odm/2003">
 <defs>
  <style type="text/css">
   <![CDATA[
    .fil0 {fill:#656551;fill-rule:nonzero}
   ]]>
  </style>
 </defs>
 <g id="Слой_x0020_1">
  <metadata id="CorelCorpID_0Corel-Layer"/>
  <path class="fil0" d="M58.35 2.91l0 0.76 2.4 0c-0.03,0.72 -0.23,1.29 -0.6,1.71 -0.37,0.42 -0.85,0.63 -1.43,0.63 -1.03,0 -1.68,-0.54 -1.94,-1.63l-0.82 0.22c0.37,1.43 1.27,2.14 2.7,2.14 1.02,0 1.78,-0.33 2.28,-0.99 0.5,-0.66 0.73,-1.46 0.7,-2.43 0,-0.59 -0.11,-1.12 -0.33,-1.61 -0.22,-0.48 -0.56,-0.88 -1.02,-1.19 -0.46,-0.31 -1.01,-0.47 -1.64,-0.47 -0.67,0 -1.23,0.17 -1.68,0.5 -0.45,0.33 -0.76,0.79 -0.92,1.38l0.84 0.22c0.25,-0.9 0.84,-1.35 1.77,-1.35 0.63,0 1.13,0.19 1.48,0.57 0.36,0.38 0.56,0.89 0.59,1.54l-2.37 0zm7.78 -2.91l0.7 0.01c-0.03,0.31 -0.1,0.53 -0.21,0.66 -0.11,0.12 -0.24,0.2 -0.41,0.24 -0.17,0.03 -0.5,0.05 -0.99,0.05 -0.65,0 -1.1,0.06 -1.34,0.19 -0.24,0.13 -0.41,0.33 -0.51,0.61 -0.1,0.28 -0.16,0.63 -0.17,1.07 0.2,-0.3 0.43,-0.52 0.7,-0.67 0.27,-0.15 0.57,-0.22 0.9,-0.22 0.61,0 1.12,0.21 1.53,0.63 0.4,0.42 0.6,0.99 0.6,1.71 0,0.55 -0.1,0.99 -0.3,1.34 -0.2,0.35 -0.44,0.62 -0.72,0.81 -0.28,0.19 -0.66,0.29 -1.13,0.29 -0.56,0 -0.99,-0.13 -1.3,-0.38 -0.31,-0.25 -0.54,-0.58 -0.71,-0.98 -0.16,-0.4 -0.25,-1.09 -0.25,-2.07 0,-1.24 0.21,-2.07 0.63,-2.5 0.42,-0.43 1.06,-0.64 1.93,-0.64 0.54,0 0.85,-0.01 0.92,-0.03 0.07,-0.02 0.12,-0.06 0.14,-0.13zm-0.03 4.25c0,-0.49 -0.12,-0.88 -0.35,-1.2 -0.23,-0.31 -0.56,-0.47 -0.98,-0.47 -0.44,0 -0.77,0.16 -1.01,0.49 -0.24,0.33 -0.36,0.77 -0.36,1.32 0,0.54 0.13,0.96 0.39,1.24 0.26,0.29 0.59,0.43 0.97,0.43 0.39,0 0.71,-0.17 0.96,-0.5 0.25,-0.33 0.37,-0.77 0.37,-1.32zm4.88 0.85l0.82 0.11c-0.13,0.48 -0.37,0.85 -0.72,1.11 -0.35,0.26 -0.79,0.4 -1.34,0.4 -0.68,0 -1.22,-0.21 -1.63,-0.63 -0.4,-0.42 -0.6,-1.01 -0.6,-1.77 0,-0.79 0.2,-1.4 0.61,-1.83 0.4,-0.43 0.93,-0.65 1.58,-0.65 0.62,0 1.13,0.21 1.53,0.64 0.4,0.43 0.59,1.02 0.59,1.8 0,0.05 -0,0.12 -0,0.21l-3.49 0c0.03,0.51 0.17,0.91 0.44,1.18 0.26,0.27 0.59,0.41 0.98,0.41 0.29,0 0.54,-0.08 0.74,-0.23 0.21,-0.15 0.37,-0.4 0.49,-0.74zm-2.6 -1.27l2.61 0c-0.03,-0.39 -0.14,-0.69 -0.3,-0.89 -0.25,-0.31 -0.58,-0.46 -0.98,-0.46 -0.36,0 -0.67,0.12 -0.92,0.37 -0.25,0.24 -0.38,0.57 -0.41,0.98zm4.42 -1.9l0.79 0 0 2.02c0.25,0 0.43,-0.05 0.53,-0.15 0.1,-0.1 0.25,-0.38 0.45,-0.85 0.16,-0.37 0.28,-0.61 0.38,-0.73 0.1,-0.12 0.21,-0.2 0.34,-0.24 0.13,-0.04 0.33,-0.06 0.61,-0.06l0.16 0 0 0.65 -0.22 -0c-0.21,0 -0.34,0.03 -0.4,0.09 -0.06,0.06 -0.16,0.26 -0.28,0.58 -0.12,0.31 -0.23,0.52 -0.33,0.64 -0.1,0.12 -0.25,0.22 -0.46,0.32 0.34,0.09 0.68,0.41 1.01,0.95l0.87 1.45 -0.87 0 -0.86 -1.45c-0.17,-0.29 -0.32,-0.49 -0.45,-0.58 -0.13,-0.09 -0.28,-0.14 -0.46,-0.14l0 2.17 -0.79 0 0 -4.69z"/>
  <path class="fil0" d="M24.68 78.14l0 0.76 2.4 0c-0.03,0.72 -0.23,1.29 -0.6,1.71 -0.37,0.42 -0.85,0.63 -1.43,0.63 -1.03,0 -1.68,-0.54 -1.94,-1.63l-0.82 0.22c0.37,1.43 1.27,2.14 2.7,2.14 1.02,0 1.78,-0.33 2.28,-0.99 0.5,-0.66 0.73,-1.46 0.7,-2.43 0,-0.59 -0.11,-1.12 -0.33,-1.61 -0.22,-0.48 -0.56,-0.88 -1.02,-1.19 -0.46,-0.31 -1.01,-0.47 -1.64,-0.47 -0.67,0 -1.23,0.17 -1.68,0.5 -0.45,0.33 -0.76,0.79 -0.92,1.38l0.84 0.22c0.25,-0.9 0.84,-1.35 1.77,-1.35 0.63,0 1.13,0.19 1.48,0.57 0.36,0.38 0.56,0.89 0.59,1.54l-2.37 0zm4.37 -0.98l2.7 0 0 0.66 -1.91 0 0 4.03 -0.79 0 0 -4.69zm7.75 0l0.79 0 0 4.69 -0.79 0 0 -4.69zm-4.43 0l0.79 0 0 1.83 1 0c0.65,0 1.16,0.13 1.51,0.38 0.35,0.25 0.53,0.6 0.53,1.05 0,0.39 -0.15,0.73 -0.44,1 -0.29,0.28 -0.77,0.42 -1.41,0.42l-1.98 0 0 -4.69zm0.79 4.04l0.83 0c0.5,0 0.86,-0.06 1.07,-0.19 0.22,-0.12 0.32,-0.32 0.32,-0.58 0,-0.2 -0.08,-0.38 -0.24,-0.54 -0.16,-0.16 -0.51,-0.24 -1.05,-0.24l-0.94 0 0 1.54zm5.67 2.45l0 -6.48 0.72 0 0 0.62c0.17,-0.24 0.36,-0.42 0.58,-0.54 0.21,-0.12 0.47,-0.18 0.78,-0.18 0.4,0 0.75,0.1 1.06,0.31 0.31,0.2 0.54,0.5 0.69,0.87 0.15,0.37 0.23,0.78 0.23,1.23 0,0.48 -0.09,0.91 -0.26,1.29 -0.17,0.38 -0.42,0.68 -0.75,0.88 -0.33,0.2 -0.67,0.31 -1.03,0.31 -0.26,0 -0.5,-0.06 -0.71,-0.17 -0.21,-0.11 -0.38,-0.25 -0.52,-0.42l0 2.29 -0.79 0zm0.72 -4.11c0,0.6 0.12,1.04 0.36,1.33 0.24,0.29 0.54,0.43 0.88,0.43 0.35,0 0.65,-0.15 0.9,-0.45 0.25,-0.3 0.38,-0.76 0.38,-1.38 0,-0.6 -0.12,-1.04 -0.37,-1.34 -0.25,-0.3 -0.54,-0.44 -0.88,-0.44 -0.34,0 -0.63,0.16 -0.89,0.47 -0.26,0.32 -0.39,0.77 -0.39,1.38z"/>
  <path class="fil0" d="M2.39 21.34l0 0.76 2.4 0c-0.03,0.72 -0.23,1.29 -0.6,1.71 -0.37,0.42 -0.85,0.63 -1.43,0.63 -1.03,0 -1.68,-0.54 -1.94,-1.63l-0.82 0.22c0.37,1.43 1.27,2.14 2.7,2.14 1.02,0 1.78,-0.33 2.28,-0.99 0.5,-0.66 0.73,-1.46 0.7,-2.43 0,-0.59 -0.11,-1.12 -0.33,-1.61 -0.22,-0.48 -0.56,-0.88 -1.02,-1.19 -0.46,-0.31 -1.01,-0.47 -1.64,-0.47 -0.67,0 -1.23,0.17 -1.68,0.5 -0.45,0.33 -0.76,0.79 -0.92,1.38l0.84 0.22c0.25,-0.9 0.84,-1.35 1.77,-1.35 0.63,0 1.13,0.19 1.48,0.57 0.36,0.38 0.56,0.89 0.59,1.54l-2.37 0zm4.36 -0.98l0.79 0 0 2.02c0.25,0 0.43,-0.05 0.53,-0.15 0.1,-0.1 0.25,-0.38 0.45,-0.85 0.16,-0.37 0.28,-0.61 0.38,-0.73 0.1,-0.12 0.21,-0.2 0.34,-0.24 0.13,-0.04 0.33,-0.06 0.61,-0.06l0.16 0 0 0.65 -0.22 -0c-0.21,0 -0.34,0.03 -0.4,0.09 -0.06,0.06 -0.16,0.26 -0.28,0.58 -0.12,0.31 -0.23,0.52 -0.33,0.64 -0.1,0.12 -0.25,0.22 -0.46,0.32 0.34,0.09 0.68,0.41 1.01,0.95l0.87 1.45 -0.87 0 -0.86 -1.45c-0.17,-0.29 -0.32,-0.49 -0.45,-0.58 -0.13,-0.09 -0.28,-0.14 -0.46,-0.14l0 2.17 -0.79 0 0 -4.69zm3.65 0l3.79 0 0 0.66 -1.5 0 0 4.03 -0.79 0 0 -4.03 -1.5 0 0 -0.66zm4.15 2.34c0,-0.87 0.24,-1.51 0.72,-1.92 0.4,-0.35 0.89,-0.52 1.47,-0.52 0.64,0 1.17,0.21 1.58,0.63 0.41,0.42 0.61,1 0.61,1.74 0,0.6 -0.09,1.07 -0.27,1.42 -0.18,0.34 -0.44,0.61 -0.79,0.8 -0.34,0.19 -0.72,0.29 -1.13,0.29 -0.66,0 -1.19,-0.21 -1.59,-0.63 -0.4,-0.42 -0.61,-1.02 -0.61,-1.81zm0.81 0c0,0.6 0.13,1.05 0.39,1.34 0.26,0.3 0.59,0.45 0.99,0.45 0.39,0 0.72,-0.15 0.99,-0.45 0.26,-0.3 0.39,-0.76 0.39,-1.37 0,-0.58 -0.13,-1.02 -0.4,-1.31 -0.26,-0.3 -0.59,-0.45 -0.98,-0.45 -0.4,0 -0.73,0.15 -0.99,0.44 -0.26,0.3 -0.39,0.74 -0.39,1.34zm4.51 -2.34l0.79 0 0 1.95 2.2 0 0 -1.95 0.79 0 0 4.69 -0.79 0 0 -2.08 -2.2 0 0 2.08 -0.79 0 0 -4.69z"/>
  <path class="fil0" d="M113.72 21.34l0 0.76 2.4 0c-0.03,0.72 -0.23,1.29 -0.6,1.71 -0.37,0.42 -0.85,0.63 -1.43,0.63 -1.03,0 -1.68,-0.54 -1.94,-1.63l-0.82 0.22c0.37,1.43 1.27,2.14 2.7,2.14 1.02,0 1.78,-0.33 2.28,-0.99 0.5,-0.66 0.73,-1.46 0.7,-2.43 0,-0.59 -0.11,-1.12 -0.33,-1.61 -0.22,-0.48 -0.56,-0.88 -1.02,-1.19 -0.46,-0.31 -1.01,-0.47 -1.64,-0.47 -0.67,0 -1.23,0.17 -1.68,0.5 -0.45,0.33 -0.76,0.79 -0.92,1.38l0.84 0.22c0.25,-0.9 0.84,-1.35 1.77,-1.35 0.63,0 1.13,0.19 1.48,0.57 0.36,0.38 0.56,0.89 0.59,1.54l-2.37 0zm4.36 -0.98l0.79 0 0 2.02c0.25,0 0.43,-0.05 0.53,-0.15 0.1,-0.1 0.25,-0.38 0.45,-0.85 0.16,-0.37 0.28,-0.61 0.38,-0.73 0.1,-0.12 0.21,-0.2 0.34,-0.24 0.13,-0.04 0.33,-0.06 0.61,-0.06l0.16 0 0 0.65 -0.22 -0c-0.21,0 -0.34,0.03 -0.4,0.09 -0.06,0.06 -0.16,0.26 -0.28,0.58 -0.12,0.31 -0.23,0.52 -0.33,0.64 -0.1,0.12 -0.25,0.22 -0.46,0.32 0.34,0.09 0.68,0.41 1.01,0.95l0.87 1.45 -0.87 0 -0.86 -1.45c-0.17,-0.29 -0.32,-0.49 -0.45,-0.58 -0.13,-0.09 -0.28,-0.14 -0.46,-0.14l0 2.17 -0.79 0 0 -4.69zm7.12 2.97l0.78 0.11c-0.09,0.53 -0.3,0.95 -0.65,1.25 -0.35,0.3 -0.78,0.45 -1.29,0.45 -0.64,0 -1.15,-0.21 -1.54,-0.63 -0.39,-0.42 -0.58,-1.02 -0.58,-1.8 0,-0.51 0.08,-0.95 0.25,-1.33 0.17,-0.38 0.42,-0.66 0.76,-0.85 0.34,-0.19 0.71,-0.28 1.12,-0.28 0.51,0 0.92,0.13 1.25,0.39 0.32,0.26 0.53,0.62 0.62,1.1l-0.77 0.12c-0.07,-0.31 -0.2,-0.55 -0.39,-0.71 -0.19,-0.16 -0.41,-0.24 -0.68,-0.24 -0.4,0 -0.73,0.14 -0.98,0.43 -0.25,0.29 -0.37,0.74 -0.37,1.36 0,0.63 0.12,1.08 0.36,1.37 0.24,0.28 0.56,0.43 0.94,0.43 0.31,0 0.57,-0.09 0.78,-0.29 0.21,-0.19 0.34,-0.48 0.4,-0.88zm4.65 0.2l0.82 0.11c-0.13,0.48 -0.37,0.85 -0.72,1.11 -0.35,0.26 -0.79,0.4 -1.34,0.4 -0.68,0 -1.22,-0.21 -1.63,-0.63 -0.4,-0.42 -0.6,-1.01 -0.6,-1.77 0,-0.79 0.2,-1.4 0.61,-1.83 0.4,-0.43 0.93,-0.65 1.58,-0.65 0.62,0 1.13,0.21 1.53,0.64 0.4,0.43 0.59,1.02 0.59,1.8 0,0.05 -0,0.12 -0,0.21l-3.49 0c0.03,0.51 0.17,0.91 0.44,1.18 0.26,0.27 0.59,0.41 0.98,0.41 0.29,0 0.54,-0.08 0.74,-0.23 0.21,-0.15 0.37,-0.4 0.49,-0.74zm-2.6 -1.27l2.61 0c-0.03,-0.39 -0.14,-0.69 -0.3,-0.89 -0.25,-0.31 -0.58,-0.46 -0.98,-0.46 -0.36,0 -0.67,0.12 -0.92,0.37 -0.25,0.24 -0.38,0.57 -0.41,0.98zm4.43 -1.9l0.79 0 0 3.57 2.21 -3.57 0.85 0 0 4.69 -0.79 0 0 -3.55 -2.2 3.55 -0.86 0 0 -4.69zm2.74 -1.73l0.54 0c-0.04,0.37 -0.18,0.66 -0.4,0.86 -0.23,0.2 -0.53,0.3 -0.9,0.3 -0.38,0 -0.68,-0.1 -0.9,-0.3 -0.22,-0.2 -0.36,-0.48 -0.4,-0.86l0.54 0c0.04,0.2 0.12,0.36 0.25,0.45 0.12,0.1 0.29,0.15 0.49,0.15 0.24,0 0.42,-0.05 0.54,-0.15 0.12,-0.1 0.2,-0.25 0.25,-0.46z"/>
  <path class="fil0" d="M90.21 78.98l0 0.76 2.4 0c-0.03,0.72 -0.23,1.29 -0.6,1.71 -0.37,0.42 -0.85,0.63 -1.43,0.63 -1.03,0 -1.68,-0.54 -1.94,-1.63l-0.82 0.22c0.37,1.43 1.27,2.14 2.7,2.14 1.02,0 1.78,-0.33 2.28,-0.99 0.5,-0.66 0.73,-1.46 0.7,-2.43 0,-0.59 -0.11,-1.12 -0.33,-1.61 -0.22,-0.48 -0.56,-0.88 -1.02,-1.19 -0.46,-0.31 -1.01,-0.47 -1.64,-0.47 -0.67,0 -1.23,0.17 -1.68,0.5 -0.45,0.33 -0.76,0.79 -0.92,1.38l0.84 0.22c0.25,-0.9 0.84,-1.35 1.77,-1.35 0.63,0 1.13,0.19 1.48,0.57 0.36,0.38 0.56,0.89 0.59,1.54l-2.37 0zm4.29 -0.98l1.22 0 1.24 3.75 1.37 -3.75 1.13 0 0 4.69 -0.79 0 0 -3.77 -1.38 3.77 -0.71 0 -1.3 -3.95 0 3.95 -0.78 0 0 -4.69zm9.38 3.17l0.82 0.11c-0.13,0.48 -0.37,0.85 -0.72,1.11 -0.35,0.26 -0.79,0.4 -1.34,0.4 -0.68,0 -1.22,-0.21 -1.63,-0.63 -0.4,-0.42 -0.6,-1.01 -0.6,-1.77 0,-0.79 0.2,-1.4 0.61,-1.83 0.4,-0.43 0.93,-0.65 1.58,-0.65 0.62,0 1.13,0.21 1.53,0.64 0.4,0.43 0.59,1.02 0.59,1.8 0,0.05 -0,0.12 -0,0.21l-3.49 0c0.03,0.51 0.17,0.91 0.44,1.18 0.26,0.27 0.59,0.41 0.98,0.41 0.29,0 0.54,-0.08 0.74,-0.23 0.21,-0.15 0.37,-0.4 0.49,-0.74zm-2.6 -1.27l2.61 0c-0.03,-0.39 -0.14,-0.69 -0.3,-0.89 -0.25,-0.31 -0.58,-0.46 -0.98,-0.46 -0.36,0 -0.67,0.12 -0.92,0.37 -0.25,0.24 -0.38,0.57 -0.41,0.98zm5.27 0.67l0 -0.62c0.33,-0 0.56,-0.02 0.68,-0.04 0.12,-0.02 0.24,-0.09 0.35,-0.21 0.11,-0.12 0.16,-0.26 0.16,-0.44 0,-0.21 -0.07,-0.38 -0.21,-0.51 -0.14,-0.13 -0.33,-0.19 -0.55,-0.19 -0.45,0 -0.76,0.26 -0.94,0.79l-0.76 -0.13c0.23,-0.87 0.8,-1.31 1.7,-1.31 0.5,0 0.89,0.14 1.18,0.41 0.28,0.27 0.43,0.6 0.43,0.98 0,0.38 -0.19,0.68 -0.55,0.91 0.24,0.13 0.41,0.29 0.53,0.48 0.12,0.2 0.18,0.43 0.18,0.7 0,0.42 -0.15,0.76 -0.46,1.02 -0.31,0.26 -0.73,0.39 -1.29,0.39 -1.07,0 -1.69,-0.47 -1.86,-1.42l0.75 -0.16c0.07,0.3 0.2,0.53 0.41,0.69 0.21,0.16 0.44,0.25 0.71,0.25 0.27,0 0.49,-0.08 0.67,-0.23 0.18,-0.15 0.27,-0.34 0.27,-0.58 0,-0.18 -0.06,-0.34 -0.17,-0.48 -0.11,-0.14 -0.23,-0.22 -0.36,-0.25 -0.13,-0.03 -0.36,-0.05 -0.69,-0.05 -0.03,0 -0.09,0 -0.18,0zm3.08 -2.56l0.79 0 0 1.83 1.01 0c0.66,0 1.16,0.13 1.52,0.38 0.35,0.25 0.53,0.6 0.53,1.05 0,0.39 -0.15,0.73 -0.44,1 -0.29,0.28 -0.77,0.42 -1.42,0.42l-1.98 0 0 -4.69zm0.79 4.04l0.84 0c0.5,0 0.86,-0.06 1.08,-0.19 0.22,-0.12 0.32,-0.32 0.32,-0.58 0,-0.2 -0.08,-0.38 -0.24,-0.54 -0.16,-0.16 -0.51,-0.24 -1.06,-0.24l-0.94 0 0 1.54z"/>
 </g>
</svg>
