<?xml version="1.0" encoding="UTF-8"?>
<!DOCTYPE svg PUBLIC "-//W3C//DTD SVG 1.1//EN" "http://www.w3.org/Graphics/SVG/1.1/DTD/svg11.dtd">
<!-- Creator: CorelDRAW -->
<svg xmlns="http://www.w3.org/2000/svg" xml:space="preserve" width="77.2551mm" height="55.4543mm" version="1.1" style="shape-rendering:geometricPrecision; text-rendering:geometricPrecision; image-rendering:optimizeQuality; fill-rule:evenodd; clip-rule:evenodd"
viewBox="0 0 170.92 122.69"
 xmlns:xlink="http://www.w3.org/1999/xlink"
 xmlns:xodm="http://www.corel.com/coreldraw/odm/2003">
 <defs>
  <style type="text/css">
   <![CDATA[
    .fil0 {fill:#656551;fill-rule:nonzero}
   ]]>
  </style>
 </defs>
 <g id="Слой_x0020_1">
  <metadata id="CorelCorpID_0Corel-Layer"/>
  <polygon class="fil0" points="73.7,120.25 73.7,112.9 70.96,112.9 70.96,111.93 77.55,111.93 77.55,112.9 74.8,112.9 74.8,120.25 "/>
  <path id="_1" class="fil0" d="M77.86 122.57l-0.12 -0.95c0.22,0.06 0.42,0.09 0.59,0.09 0.23,0 0.41,-0.04 0.55,-0.11 0.14,-0.08 0.25,-0.18 0.34,-0.32 0.06,-0.1 0.17,-0.36 0.31,-0.76 0.02,-0.06 0.05,-0.14 0.09,-0.25l-2.29 -6.05 1.09 0 1.26 3.48c0.16,0.44 0.31,0.9 0.44,1.39 0.12,-0.46 0.26,-0.91 0.42,-1.36l1.29 -3.52 1.02 0 -2.28 6.14c-0.25,0.66 -0.44,1.11 -0.58,1.36 -0.18,0.34 -0.39,0.58 -0.63,0.74 -0.24,0.16 -0.52,0.23 -0.84,0.23 -0.2,0 -0.42,-0.04 -0.66,-0.12z"/>
  <path id="_2" class="fil0" d="M83.96 114.22l4.75 0 0 6.03 -1.02 0 0 -5.18 -2.71 0 0 3c0,0.7 -0.02,1.16 -0.07,1.39 -0.05,0.22 -0.17,0.42 -0.37,0.58 -0.21,0.17 -0.5,0.25 -0.89,0.25 -0.24,0 -0.51,-0.02 -0.82,-0.04l0 -0.85 0.45 0c0.21,0 0.36,-0.02 0.45,-0.07 0.09,-0.04 0.15,-0.11 0.18,-0.21 0.03,-0.09 0.04,-0.4 0.04,-0.92l0 -3.98z"/>
  <path id="_3" class="fil0" d="M95.99 114.22l1.02 0 0 6.03 -1.02 0 0 -6.03zm-5.71 0l1.02 0 0 2.36 1.29 0c0.84,0 1.49,0.16 1.95,0.49 0.46,0.33 0.68,0.78 0.68,1.35 0,0.5 -0.19,0.93 -0.57,1.29 -0.38,0.36 -0.99,0.54 -1.82,0.54l-2.55 0 0 -6.03zm1.02 5.2l1.07 0c0.65,0 1.11,-0.08 1.38,-0.24 0.28,-0.16 0.41,-0.41 0.41,-0.74 0,-0.26 -0.1,-0.49 -0.31,-0.7 -0.21,-0.2 -0.66,-0.31 -1.36,-0.31l-1.21 0 0 1.99z"/>
  <path id="_4" class="fil0" d="M102.54 118.04l1 0.14c-0.11,0.69 -0.39,1.22 -0.84,1.61 -0.45,0.39 -1.01,0.58 -1.66,0.58 -0.82,0 -1.49,-0.27 -1.99,-0.81 -0.5,-0.54 -0.75,-1.31 -0.75,-2.31 0,-0.65 0.11,-1.22 0.32,-1.71 0.22,-0.49 0.54,-0.85 0.98,-1.09 0.44,-0.24 0.92,-0.37 1.44,-0.37 0.65,0 1.19,0.16 1.6,0.5 0.42,0.33 0.68,0.8 0.8,1.41l-0.99 0.15c-0.1,-0.4 -0.26,-0.71 -0.5,-0.91 -0.24,-0.2 -0.53,-0.31 -0.87,-0.31 -0.52,0 -0.93,0.18 -1.26,0.55 -0.32,0.37 -0.48,0.95 -0.48,1.75 0,0.81 0.15,1.4 0.46,1.76 0.31,0.37 0.72,0.55 1.21,0.55 0.4,0 0.74,-0.12 1.01,-0.37 0.27,-0.24 0.44,-0.62 0.51,-1.13z"/>
  <polygon class="fil0" points="73.49,8.32 73.49,0.98 70.75,0.98 70.75,0 77.34,0 77.34,0.98 74.59,0.98 74.59,8.32 "/>
  <path id="_1_0" class="fil0" d="M83.58 2.29l1.02 0 0 6.03 -1.02 0 0 -6.03zm-5.71 0l1.02 0 0 2.36 1.29 0c0.84,0 1.49,0.16 1.95,0.49 0.46,0.33 0.68,0.78 0.68,1.35 0,0.5 -0.19,0.93 -0.57,1.29 -0.38,0.36 -0.99,0.54 -1.82,0.54l-2.55 0 0 -6.03zm1.02 5.2l1.07 0c0.65,0 1.11,-0.08 1.38,-0.24 0.28,-0.16 0.41,-0.41 0.41,-0.74 0,-0.26 -0.1,-0.49 -0.31,-0.7 -0.21,-0.2 -0.66,-0.31 -1.36,-0.31l-1.21 0 0 1.99z"/>
  <path id="_2_1" class="fil0" d="M86.69 2.29l4.75 0 0 6.03 -1.02 0 0 -5.18 -2.71 0 0 3c0,0.7 -0.02,1.16 -0.07,1.39 -0.05,0.22 -0.17,0.42 -0.37,0.58 -0.21,0.17 -0.5,0.25 -0.89,0.25 -0.24,0 -0.51,-0.02 -0.82,-0.04l0 -0.85 0.45 0c0.21,0 0.36,-0.02 0.45,-0.07 0.09,-0.04 0.15,-0.11 0.18,-0.21 0.03,-0.09 0.04,-0.4 0.04,-0.92l0 -3.98z"/>
  <path id="_3_2" class="fil0" d="M96.92 6.11l1 0.14c-0.11,0.69 -0.39,1.22 -0.84,1.61 -0.45,0.39 -1.01,0.58 -1.66,0.58 -0.82,0 -1.49,-0.27 -1.99,-0.81 -0.5,-0.54 -0.75,-1.31 -0.75,-2.31 0,-0.65 0.11,-1.22 0.32,-1.71 0.22,-0.49 0.54,-0.85 0.98,-1.09 0.44,-0.24 0.92,-0.37 1.44,-0.37 0.65,0 1.19,0.16 1.6,0.5 0.42,0.33 0.68,0.8 0.8,1.41l-0.99 0.15c-0.1,-0.4 -0.26,-0.71 -0.5,-0.91 -0.24,-0.2 -0.53,-0.31 -0.87,-0.31 -0.52,0 -0.93,0.18 -1.26,0.55 -0.32,0.37 -0.48,0.95 -0.48,1.75 0,0.81 0.15,1.4 0.46,1.76 0.31,0.37 0.72,0.55 1.21,0.55 0.4,0 0.74,-0.12 1.01,-0.37 0.27,-0.24 0.44,-0.62 0.51,-1.13z"/>
  <polygon id="_4_3" class="fil0" points="98.79,2.29 99.81,2.29 99.81,6.89 102.65,2.29 103.75,2.29 103.75,8.32 102.73,8.32 102.73,3.75 99.89,8.32 98.79,8.32 "/>
  <polygon class="fil0" points="5.91,91.88 5.91,84.54 3.17,84.54 3.17,83.56 9.76,83.56 9.76,84.54 7.02,84.54 7.02,91.88 "/>
  <path id="_1_4" class="fil0" d="M10.07 94.2l-0.12 -0.95c0.22,0.06 0.42,0.09 0.59,0.09 0.23,0 0.41,-0.04 0.55,-0.11 0.14,-0.08 0.25,-0.18 0.34,-0.32 0.06,-0.1 0.17,-0.36 0.31,-0.76 0.02,-0.06 0.05,-0.14 0.09,-0.25l-2.29 -6.05 1.09 0 1.26 3.48c0.16,0.44 0.31,0.9 0.44,1.39 0.12,-0.46 0.26,-0.91 0.42,-1.36l1.29 -3.52 1.02 0 -2.28 6.14c-0.25,0.66 -0.44,1.11 -0.58,1.36 -0.18,0.34 -0.39,0.58 -0.63,0.74 -0.24,0.16 -0.52,0.23 -0.84,0.23 -0.2,0 -0.42,-0.04 -0.66,-0.12z"/>
  <path id="_2_5" class="fil0" d="M15.8 94.2l0 -8.35 0.93 0 0 0.79c0.22,-0.31 0.47,-0.54 0.74,-0.69 0.28,-0.15 0.61,-0.23 1,-0.23 0.52,0 0.97,0.13 1.36,0.4 0.39,0.26 0.69,0.64 0.89,1.12 0.2,0.48 0.3,1.01 0.3,1.58 0,0.61 -0.11,1.17 -0.33,1.66 -0.22,0.49 -0.54,0.87 -0.96,1.13 -0.42,0.26 -0.86,0.39 -1.33,0.39 -0.34,0 -0.65,-0.07 -0.92,-0.22 -0.27,-0.14 -0.49,-0.32 -0.67,-0.54l0 2.94 -1.02 0zm0.93 -5.29c0,0.77 0.16,1.34 0.47,1.71 0.31,0.37 0.69,0.56 1.14,0.56 0.45,0 0.84,-0.19 1.16,-0.58 0.32,-0.38 0.48,-0.98 0.48,-1.78 0,-0.77 -0.16,-1.34 -0.47,-1.72 -0.32,-0.38 -0.69,-0.57 -1.13,-0.57 -0.43,0 -0.82,0.2 -1.15,0.61 -0.34,0.41 -0.5,1 -0.5,1.77z"/>
  <polygon id="_3_6" class="fil0" points="22.27,85.85 23.29,85.85 23.29,90.45 26.13,85.85 27.23,85.85 27.23,91.88 26.21,91.88 26.21,87.31 23.37,91.88 22.27,91.88 "/>
  <polygon class="fil0" points="2.74,20.79 2.74,13.45 -0,13.45 -0,12.47 6.59,12.47 6.59,13.45 3.85,13.45 3.85,20.79 "/>
  <path id="_1_7" class="fil0" d="M6.9 23.11l-0.12 -0.95c0.22,0.06 0.42,0.09 0.59,0.09 0.23,0 0.41,-0.04 0.55,-0.11 0.14,-0.08 0.25,-0.18 0.34,-0.32 0.06,-0.1 0.17,-0.36 0.31,-0.76 0.02,-0.06 0.05,-0.14 0.09,-0.25l-2.29 -6.05 1.09 0 1.26 3.48c0.16,0.44 0.31,0.9 0.44,1.39 0.12,-0.46 0.26,-0.91 0.42,-1.36l1.29 -3.52 1.02 0 -2.28 6.14c-0.25,0.66 -0.44,1.11 -0.58,1.36 -0.18,0.34 -0.39,0.58 -0.63,0.74 -0.24,0.16 -0.52,0.23 -0.84,0.23 -0.2,0 -0.42,-0.04 -0.66,-0.12z"/>
  <path id="_2_8" class="fil0" d="M17.29 12.27l0.91 0.01c-0.04,0.4 -0.13,0.69 -0.27,0.85 -0.14,0.16 -0.31,0.26 -0.53,0.31 -0.22,0.04 -0.64,0.07 -1.28,0.07 -0.84,0 -1.41,0.08 -1.72,0.24 -0.3,0.16 -0.53,0.42 -0.66,0.78 -0.13,0.36 -0.21,0.82 -0.22,1.38 0.26,-0.38 0.56,-0.67 0.9,-0.86 0.34,-0.19 0.73,-0.29 1.16,-0.29 0.79,0 1.45,0.27 1.96,0.81 0.52,0.54 0.78,1.28 0.78,2.2 0,0.7 -0.13,1.28 -0.39,1.73 -0.26,0.45 -0.57,0.8 -0.93,1.04 -0.36,0.25 -0.84,0.37 -1.46,0.37 -0.72,0 -1.27,-0.16 -1.67,-0.49 -0.4,-0.33 -0.7,-0.75 -0.91,-1.26 -0.21,-0.51 -0.32,-1.4 -0.32,-2.66 0,-1.59 0.27,-2.66 0.81,-3.21 0.54,-0.55 1.36,-0.83 2.48,-0.83 0.7,0 1.09,-0.01 1.18,-0.03 0.09,-0.02 0.15,-0.08 0.18,-0.16zm-0.03 5.48c0,-0.63 -0.15,-1.14 -0.45,-1.54 -0.3,-0.4 -0.72,-0.6 -1.26,-0.6 -0.56,0 -1,0.21 -1.3,0.64 -0.31,0.42 -0.46,0.99 -0.46,1.69 0,0.7 0.17,1.23 0.51,1.6 0.34,0.37 0.76,0.56 1.25,0.56 0.51,0 0.92,-0.22 1.23,-0.64 0.32,-0.43 0.47,-1 0.47,-1.7z"/>
  <path id="_3_9" class="fil0" d="M23.22 20.04c-0.38,0.32 -0.75,0.55 -1.1,0.68 -0.35,0.13 -0.73,0.2 -1.13,0.2 -0.66,0 -1.17,-0.16 -1.53,-0.48 -0.36,-0.32 -0.53,-0.73 -0.53,-1.24 0,-0.29 0.07,-0.56 0.2,-0.81 0.14,-0.24 0.31,-0.44 0.53,-0.59 0.22,-0.15 0.46,-0.26 0.74,-0.34 0.2,-0.05 0.51,-0.1 0.91,-0.15 0.83,-0.1 1.44,-0.22 1.83,-0.35 0,-0.14 0.01,-0.23 0.01,-0.27 0,-0.41 -0.1,-0.71 -0.29,-0.88 -0.26,-0.23 -0.65,-0.34 -1.17,-0.34 -0.48,0 -0.84,0.09 -1.07,0.25 -0.23,0.17 -0.4,0.47 -0.51,0.9l-1 -0.14c0.09,-0.43 0.24,-0.78 0.45,-1.04 0.21,-0.26 0.51,-0.47 0.91,-0.61 0.39,-0.14 0.85,-0.21 1.37,-0.21 0.52,0 0.94,0.06 1.26,0.18 0.32,0.12 0.56,0.27 0.71,0.46 0.15,0.18 0.26,0.42 0.32,0.7 0.03,0.17 0.05,0.49 0.05,0.94l0 1.36c0,0.95 0.02,1.55 0.06,1.8 0.04,0.25 0.13,0.5 0.25,0.73l-1.07 0c-0.1,-0.22 -0.17,-0.47 -0.2,-0.76zm-0.08 -2.27c-0.37,0.15 -0.93,0.28 -1.67,0.38 -0.42,0.06 -0.72,0.13 -0.9,0.2 -0.17,0.08 -0.31,0.19 -0.4,0.33 -0.09,0.15 -0.14,0.31 -0.14,0.48 0,0.27 0.1,0.5 0.31,0.68 0.21,0.18 0.51,0.27 0.91,0.27 0.39,0 0.74,-0.09 1.05,-0.26 0.31,-0.17 0.53,-0.41 0.68,-0.7 0.11,-0.23 0.16,-0.57 0.16,-1.02l0.01 -0.37z"/>
  <polygon id="_4_10" class="fil0" points="24.96,14.76 29.84,14.76 29.84,15.61 27.91,15.61 27.91,20.79 26.89,20.79 26.89,15.61 24.96,15.61 "/>
  <polygon class="fil0" points="148.68,26.43 148.68,19.08 145.93,19.08 145.93,18.1 152.52,18.1 152.52,19.08 149.78,19.08 149.78,26.43 "/>
  <path id="_1_11" class="fil0" d="M155.06 22.92l0 0.84 2.13 0c-0.06,0.65 -0.23,1.14 -0.51,1.47 -0.27,0.33 -0.66,0.49 -1.14,0.49 -0.86,0 -1.37,-0.5 -1.52,-1.5l-1 0.14c0.11,0.66 0.38,1.19 0.83,1.59 0.44,0.4 1.03,0.6 1.74,0.6 0.85,0.05 1.52,-0.22 1.98,-0.81 0.47,-0.59 0.69,-1.37 0.67,-2.33 0,-0.98 -0.24,-1.75 -0.73,-2.31 -0.49,-0.56 -1.15,-0.84 -1.99,-0.84 -0.67,0 -1.22,0.18 -1.63,0.53 -0.42,0.36 -0.67,0.81 -0.76,1.37l0.99 0.16c0.17,-0.81 0.65,-1.22 1.44,-1.22 0.45,0 0.83,0.17 1.11,0.5 0.29,0.33 0.47,0.77 0.53,1.3l-2.13 0z"/>
  <path id="_2_12" class="fil0" d="M159.71 20.39l4.75 0 0 6.03 -1.02 0 0 -5.18 -2.71 0 0 3c0,0.7 -0.02,1.16 -0.07,1.39 -0.05,0.22 -0.17,0.42 -0.37,0.58 -0.21,0.17 -0.5,0.25 -0.89,0.25 -0.24,0 -0.51,-0.02 -0.82,-0.04l0 -0.85 0.45 0c0.21,0 0.36,-0.02 0.45,-0.07 0.09,-0.04 0.15,-0.11 0.18,-0.21 0.03,-0.09 0.04,-0.4 0.04,-0.92l0 -3.98z"/>
  <path id="_3_13" class="fil0" d="M165.97 20.39l1.02 0 0 2.36 1.29 0c0.84,0 1.49,0.16 1.95,0.49 0.46,0.33 0.68,0.78 0.68,1.35 0,0.5 -0.19,0.93 -0.57,1.29 -0.38,0.36 -0.99,0.54 -1.83,0.54l-2.56 0 0 -6.03zm1.02 5.2l1.08 0c0.65,0 1.11,-0.08 1.39,-0.24 0.28,-0.16 0.42,-0.41 0.42,-0.74 0,-0.26 -0.1,-0.49 -0.31,-0.7 -0.21,-0.2 -0.66,-0.31 -1.36,-0.31l-1.21 0 0 1.99z"/>
  <polygon class="fil0" points="148.42,91.92 148.42,84.57 145.67,84.57 145.67,83.6 152.26,83.6 152.26,84.57 149.52,84.57 149.52,91.92 "/>
  <path id="_1_14" class="fil0" d="M151.98 88.9c0,-1.11 0.31,-1.94 0.93,-2.48 0.52,-0.45 1.15,-0.67 1.9,-0.67 0.83,0 1.51,0.27 2.03,0.81 0.53,0.54 0.79,1.29 0.79,2.25 0,0.77 -0.12,1.38 -0.35,1.83 -0.23,0.44 -0.57,0.79 -1.02,1.03 -0.44,0.25 -0.93,0.37 -1.46,0.37 -0.84,0 -1.53,-0.27 -2.05,-0.81 -0.52,-0.54 -0.78,-1.32 -0.78,-2.33zm1.05 0c0,0.77 0.17,1.35 0.51,1.73 0.34,0.38 0.76,0.58 1.28,0.58 0.51,0 0.93,-0.19 1.27,-0.58 0.34,-0.39 0.51,-0.97 0.51,-1.76 0,-0.74 -0.17,-1.31 -0.51,-1.69 -0.34,-0.38 -0.76,-0.58 -1.27,-0.58 -0.51,0 -0.94,0.19 -1.28,0.57 -0.34,0.38 -0.51,0.96 -0.51,1.73z"/>
  <path id="_2_15" class="fil0" d="M159.07 85.89l4.75 0 0 6.03 -1.02 0 0 -5.18 -2.71 0 0 3c0,0.7 -0.02,1.16 -0.07,1.39 -0.05,0.22 -0.17,0.42 -0.37,0.58 -0.21,0.17 -0.5,0.25 -0.89,0.25 -0.24,0 -0.51,-0.02 -0.82,-0.04l0 -0.85 0.45 0c0.21,0 0.36,-0.02 0.45,-0.07 0.09,-0.04 0.15,-0.11 0.18,-0.21 0.03,-0.09 0.04,-0.4 0.04,-0.92l0 -3.98z"/>
 </g>
</svg>
