<?xml version="1.0" encoding="UTF-8"?>
<!DOCTYPE svg PUBLIC "-//W3C//DTD SVG 1.1//EN" "http://www.w3.org/Graphics/SVG/1.1/DTD/svg11.dtd">
<!-- Creator: CorelDRAW -->
<svg xmlns="http://www.w3.org/2000/svg" xml:space="preserve" width="83.8672mm" height="55.1285mm" version="1.1" style="shape-rendering:geometricPrecision; text-rendering:geometricPrecision; image-rendering:optimizeQuality; fill-rule:evenodd; clip-rule:evenodd"
viewBox="0 0 186.64 122.69"
 xmlns:xlink="http://www.w3.org/1999/xlink"
 xmlns:xodm="http://www.corel.com/coreldraw/odm/2003">
 <defs>
  <style type="text/css">
   <![CDATA[
    .fil0 {fill:#656551;fill-rule:nonzero}
   ]]>
  </style>
 </defs>
 <g id="Слой_x0020_1">
  <metadata id="CorelCorpID_0Corel-Layer"/>
  <polygon class="fil0" points="66.19,112.59 72.76,112.59 72.76,120.97 71.65,120.97 71.65,113.58 67.3,113.58 67.3,120.97 66.19,120.97 "/>
  <polygon id="_1" class="fil0" points="74.49,114.9 75.52,114.9 75.52,120.11 77.85,120.11 77.85,114.9 78.88,114.9 78.88,120.11 81.22,120.11 81.22,114.9 82.25,114.9 82.25,120.97 74.49,120.97 "/>
  <path id="_2" class="fil0" d="M87.97 119l1.06 0.14c-0.17,0.62 -0.48,1.1 -0.93,1.44 -0.45,0.34 -1.03,0.51 -1.73,0.51 -0.88,0 -1.59,-0.27 -2.1,-0.82 -0.52,-0.54 -0.78,-1.31 -0.78,-2.29 0,-1.02 0.26,-1.81 0.79,-2.37 0.52,-0.56 1.2,-0.84 2.04,-0.84 0.81,0 1.47,0.27 1.98,0.83 0.51,0.55 0.77,1.33 0.77,2.33 0,0.06 -0,0.15 -0.01,0.27l-4.52 0c0.04,0.66 0.23,1.18 0.57,1.53 0.34,0.35 0.76,0.53 1.26,0.53 0.38,0 0.7,-0.1 0.96,-0.3 0.27,-0.2 0.48,-0.52 0.63,-0.95zm-3.37 -1.65l3.38 0c-0.04,-0.51 -0.18,-0.89 -0.39,-1.15 -0.33,-0.4 -0.75,-0.59 -1.27,-0.59 -0.47,0 -0.87,0.16 -1.19,0.47 -0.32,0.32 -0.5,0.74 -0.53,1.27z"/>
  <polygon id="_3" class="fil0" points="90.34,114.9 91.36,114.9 91.36,117.42 94.22,117.42 94.22,114.9 95.25,114.9 95.25,120.97 94.22,120.97 94.22,118.28 91.36,118.28 91.36,120.97 90.34,120.97 "/>
  <polygon id="_4" class="fil0" points="96.79,114.9 97.82,114.9 97.82,119.53 100.68,114.9 101.79,114.9 101.79,120.97 100.76,120.97 100.76,116.37 97.9,120.97 96.79,120.97 "/>
  <polygon id="_5" class="fil0" points="103.34,114.9 104.37,114.9 104.37,120.13 107.22,120.13 107.22,114.9 108.25,114.9 108.25,120.13 108.91,120.13 108.91,122.69 108.07,122.69 108.07,120.97 103.34,120.97 "/>
  <path id="_6" class="fil0" d="M113.99 120.21c-0.38,0.33 -0.75,0.55 -1.1,0.69 -0.35,0.13 -0.73,0.2 -1.14,0.2 -0.67,0 -1.18,-0.16 -1.54,-0.49 -0.36,-0.32 -0.54,-0.74 -0.54,-1.24 0,-0.3 0.07,-0.57 0.2,-0.81 0.14,-0.25 0.31,-0.44 0.53,-0.59 0.22,-0.15 0.47,-0.26 0.74,-0.34 0.2,-0.05 0.51,-0.1 0.92,-0.15 0.83,-0.1 1.44,-0.22 1.84,-0.35 0,-0.14 0.01,-0.23 0.01,-0.27 0,-0.42 -0.1,-0.71 -0.29,-0.88 -0.26,-0.23 -0.65,-0.35 -1.17,-0.35 -0.49,0 -0.84,0.09 -1.07,0.26 -0.23,0.17 -0.4,0.47 -0.51,0.9l-1.01 -0.14c0.09,-0.43 0.24,-0.78 0.45,-1.04 0.21,-0.27 0.51,-0.47 0.91,-0.61 0.4,-0.14 0.86,-0.21 1.38,-0.21 0.52,0 0.94,0.06 1.27,0.18 0.32,0.12 0.56,0.27 0.72,0.46 0.15,0.19 0.26,0.42 0.32,0.7 0.03,0.18 0.05,0.49 0.05,0.95l0 1.36c0,0.95 0.02,1.56 0.06,1.81 0.04,0.26 0.13,0.5 0.25,0.73l-1.08 0c-0.1,-0.22 -0.17,-0.47 -0.2,-0.76zm-0.08 -2.28c-0.37,0.15 -0.94,0.28 -1.68,0.39 -0.42,0.06 -0.73,0.13 -0.9,0.2 -0.18,0.08 -0.31,0.19 -0.41,0.33 -0.1,0.15 -0.14,0.31 -0.14,0.49 0,0.27 0.1,0.5 0.31,0.68 0.21,0.18 0.51,0.27 0.91,0.27 0.4,0 0.75,-0.09 1.06,-0.26 0.31,-0.17 0.54,-0.41 0.68,-0.71 0.11,-0.23 0.17,-0.57 0.17,-1.02l0.01 -0.37z"/>
  <path class="fil0" d="M57.2 0.01l1.11 0 0 3.67c0.5,0 0.86,-0.1 1.07,-0.3 0.21,-0.2 0.47,-0.67 0.79,-1.42 0.23,-0.55 0.42,-0.94 0.57,-1.17 0.15,-0.23 0.36,-0.42 0.64,-0.57 0.28,-0.15 0.58,-0.23 0.92,-0.23 0.43,0 0.65,0 0.67,0.01l0 0.96c-0.04,0 -0.11,-0 -0.22,-0.01 -0.12,-0 -0.2,-0.01 -0.22,-0.01 -0.35,0 -0.62,0.09 -0.79,0.26 -0.18,0.17 -0.37,0.54 -0.6,1.1 -0.28,0.71 -0.52,1.16 -0.71,1.34 -0.19,0.18 -0.43,0.33 -0.7,0.44 0.54,0.15 1.07,0.65 1.6,1.5l1.72 2.79 -1.38 0 -1.41 -2.27c-0.38,-0.63 -0.71,-1.06 -0.96,-1.3 -0.26,-0.24 -0.59,-0.35 -1,-0.35l0 3.92 -1.11 0 0 -8.37z"/>
  <path id="_1_0" class="fil0" d="M63.47 5.35c0,-1.12 0.31,-1.95 0.94,-2.49 0.52,-0.45 1.16,-0.67 1.91,-0.67 0.83,0 1.51,0.27 2.04,0.82 0.53,0.54 0.79,1.3 0.79,2.26 0,0.78 -0.12,1.39 -0.35,1.84 -0.23,0.45 -0.57,0.79 -1.02,1.04 -0.45,0.25 -0.94,0.37 -1.46,0.37 -0.85,0 -1.54,-0.27 -2.06,-0.81 -0.52,-0.54 -0.79,-1.33 -0.79,-2.35zm1.05 0c0,0.78 0.17,1.36 0.51,1.74 0.34,0.39 0.77,0.58 1.28,0.58 0.51,0 0.94,-0.19 1.28,-0.58 0.34,-0.39 0.51,-0.98 0.51,-1.77 0,-0.75 -0.17,-1.32 -0.51,-1.7 -0.34,-0.39 -0.77,-0.58 -1.27,-0.58 -0.52,0 -0.94,0.19 -1.28,0.58 -0.34,0.38 -0.51,0.96 -0.51,1.74z"/>
  <path id="_2_1" class="fil0" d="M70.6 2.32l4.78 0 0 6.06 -1.03 0 0 -5.21 -2.72 0 0 3.02c0,0.7 -0.02,1.17 -0.07,1.39 -0.05,0.22 -0.17,0.42 -0.38,0.59 -0.21,0.17 -0.5,0.25 -0.89,0.25 -0.24,0 -0.52,-0.02 -0.83,-0.04l0 -0.86 0.45 0c0.21,0 0.36,-0.02 0.46,-0.07 0.09,-0.04 0.15,-0.11 0.18,-0.21 0.03,-0.1 0.04,-0.41 0.04,-0.93l0 -4z"/>
  <path id="_3_2" class="fil0" d="M76.67 5.35c0,-1.12 0.31,-1.95 0.94,-2.49 0.52,-0.45 1.16,-0.67 1.91,-0.67 0.83,0 1.51,0.27 2.04,0.82 0.53,0.54 0.79,1.3 0.79,2.26 0,0.78 -0.12,1.39 -0.35,1.84 -0.23,0.45 -0.57,0.79 -1.02,1.04 -0.45,0.25 -0.94,0.37 -1.46,0.37 -0.85,0 -1.54,-0.27 -2.06,-0.81 -0.52,-0.54 -0.79,-1.33 -0.79,-2.35zm1.05 0c0,0.78 0.17,1.36 0.51,1.74 0.34,0.39 0.77,0.58 1.28,0.58 0.51,0 0.94,-0.19 1.28,-0.58 0.34,-0.39 0.51,-0.98 0.51,-1.77 0,-0.75 -0.17,-1.32 -0.51,-1.7 -0.34,-0.39 -0.77,-0.58 -1.27,-0.58 -0.52,0 -0.94,0.19 -1.28,0.58 -0.34,0.38 -0.51,0.96 -0.51,1.74z"/>
  <path id="_4_3" class="fil0" d="M83.55 2.32l1.03 0 0 2.62c0.33,0 0.56,-0.06 0.69,-0.19 0.13,-0.12 0.32,-0.49 0.58,-1.1 0.2,-0.48 0.37,-0.8 0.49,-0.95 0.13,-0.15 0.27,-0.26 0.43,-0.31 0.17,-0.05 0.43,-0.08 0.79,-0.08l0.21 0 0 0.85 -0.29 -0.01c-0.27,0 -0.44,0.04 -0.52,0.12 -0.08,0.08 -0.2,0.33 -0.37,0.75 -0.16,0.4 -0.3,0.67 -0.43,0.82 -0.13,0.15 -0.33,0.29 -0.6,0.42 0.44,0.12 0.88,0.53 1.31,1.24l1.13 1.88 -1.13 0 -1.11 -1.87c-0.22,-0.38 -0.42,-0.63 -0.58,-0.75 -0.17,-0.12 -0.37,-0.18 -0.6,-0.18l0 2.81 -1.03 0 0 -6.07z"/>
  <path id="_5_4" class="fil0" d="M88.42 5.35c0,-1.12 0.31,-1.95 0.94,-2.49 0.52,-0.45 1.16,-0.67 1.91,-0.67 0.83,0 1.51,0.27 2.04,0.82 0.53,0.54 0.79,1.3 0.79,2.26 0,0.78 -0.12,1.39 -0.35,1.84 -0.23,0.45 -0.57,0.79 -1.02,1.04 -0.45,0.25 -0.94,0.37 -1.46,0.37 -0.85,0 -1.54,-0.27 -2.06,-0.81 -0.52,-0.54 -0.79,-1.33 -0.79,-2.35zm1.05 0c0,0.78 0.17,1.36 0.51,1.74 0.34,0.39 0.77,0.58 1.28,0.58 0.51,0 0.94,-0.19 1.28,-0.58 0.34,-0.39 0.51,-0.98 0.51,-1.77 0,-0.75 -0.17,-1.32 -0.51,-1.7 -0.34,-0.39 -0.77,-0.58 -1.27,-0.58 -0.52,0 -0.94,0.19 -1.28,0.58 -0.34,0.38 -0.51,0.96 -0.51,1.74z"/>
  <path id="_6_5" class="fil0" d="M95.55 2.32l4.78 0 0 6.06 -1.03 0 0 -5.21 -2.72 0 0 3.02c0,0.7 -0.02,1.17 -0.07,1.39 -0.05,0.22 -0.17,0.42 -0.38,0.59 -0.21,0.17 -0.5,0.25 -0.89,0.25 -0.24,0 -0.52,-0.02 -0.83,-0.04l0 -0.86 0.45 0c0.21,0 0.36,-0.02 0.46,-0.07 0.09,-0.04 0.15,-0.11 0.18,-0.21 0.03,-0.1 0.04,-0.41 0.04,-0.93l0 -4z"/>
  <path id="_7" class="fil0" d="M101.85 2.32l1.03 0 0 2.37 1.3 0c0.85,0 1.5,0.16 1.96,0.49 0.46,0.33 0.69,0.78 0.69,1.36 0,0.51 -0.19,0.94 -0.58,1.3 -0.38,0.36 -0.99,0.54 -1.84,0.54l-2.57 0 0 -6.07zm1.03 5.23l1.08 0c0.65,0 1.12,-0.08 1.4,-0.24 0.28,-0.16 0.42,-0.41 0.42,-0.75 0,-0.26 -0.1,-0.5 -0.31,-0.7 -0.21,-0.2 -0.66,-0.31 -1.37,-0.31l-1.22 0 0 2z"/>
  <path id="_8" class="fil0" d="M106.8 2.32l1.03 0 0 1.15c0,0.49 0.03,0.85 0.09,1.08 0.06,0.22 0.2,0.42 0.43,0.58 0.22,0.17 0.51,0.25 0.85,0.25 0.39,0 0.89,-0.1 1.51,-0.31l0 -2.74 1.03 0 0 6.07 -1.03 0 0 -2.45c-0.63,0.2 -1.23,0.3 -1.78,0.3 -0.46,0 -0.87,-0.12 -1.22,-0.35 -0.35,-0.23 -0.59,-0.52 -0.72,-0.86 -0.13,-0.34 -0.19,-0.71 -0.19,-1.12l0 -1.59z"/>
  <polygon id="_9" class="fil0" points="113.28,2.32 114.31,2.32 114.31,6.94 117.17,2.32 118.27,2.32 118.27,8.38 117.24,8.38 117.24,3.78 114.39,8.38 113.28,8.38 "/>
  <path id="_10" class="fil0" d="M119.8 2.32l1.03 0 0 2.62c0.33,0 0.56,-0.06 0.69,-0.19 0.13,-0.12 0.32,-0.49 0.58,-1.1 0.2,-0.48 0.37,-0.8 0.49,-0.95 0.13,-0.15 0.27,-0.26 0.43,-0.31 0.17,-0.05 0.43,-0.08 0.79,-0.08l0.21 0 0 0.85 -0.29 -0.01c-0.27,0 -0.44,0.04 -0.52,0.12 -0.08,0.08 -0.2,0.33 -0.37,0.75 -0.16,0.4 -0.3,0.67 -0.43,0.82 -0.13,0.15 -0.33,0.29 -0.6,0.42 0.44,0.12 0.88,0.53 1.31,1.24l1.13 1.88 -1.13 0 -1.11 -1.87c-0.22,-0.38 -0.42,-0.63 -0.58,-0.75 -0.17,-0.12 -0.37,-0.18 -0.6,-0.18l0 2.81 -1.03 0 0 -6.07z"/>
  <polygon class="fil0" points="9.13,92.21 9.13,84.82 6.37,84.82 6.37,83.84 13,83.84 13,84.82 10.24,84.82 10.24,92.21 "/>
  <path id="_1_6" class="fil0" d="M13.36 94.54l0 -8.4 0.94 0 0 0.8c0.22,-0.31 0.47,-0.54 0.75,-0.69 0.28,-0.15 0.61,-0.23 1.01,-0.23 0.52,0 0.97,0.13 1.37,0.4 0.4,0.27 0.69,0.64 0.9,1.12 0.2,0.49 0.3,1.02 0.3,1.59 0,0.62 -0.11,1.18 -0.33,1.67 -0.22,0.5 -0.55,0.88 -0.97,1.14 -0.42,0.26 -0.87,0.4 -1.34,0.4 -0.34,0 -0.65,-0.07 -0.92,-0.22 -0.27,-0.14 -0.49,-0.33 -0.67,-0.55l0 2.96 -1.03 0zm0.94 -5.32c0,0.78 0.16,1.35 0.47,1.72 0.32,0.37 0.7,0.56 1.15,0.56 0.46,0 0.85,-0.19 1.17,-0.58 0.33,-0.39 0.49,-0.98 0.49,-1.79 0,-0.77 -0.16,-1.35 -0.48,-1.73 -0.32,-0.38 -0.7,-0.58 -1.14,-0.58 -0.44,0 -0.82,0.2 -1.16,0.61 -0.34,0.41 -0.5,1 -0.5,1.78z"/>
  <path id="_2_7" class="fil0" d="M24.52 86.14l0 6.07 -1.03 0 0 -2.36 -0.59 0c-0.36,0 -0.63,0.05 -0.81,0.14 -0.18,0.1 -0.44,0.39 -0.78,0.9l-0.9 1.32 -1.27 0 1.11 -1.63c0.34,-0.5 0.68,-0.78 1.02,-0.84 -0.59,-0.08 -1.02,-0.29 -1.31,-0.64 -0.28,-0.34 -0.43,-0.74 -0.43,-1.18 0,-0.53 0.19,-0.95 0.56,-1.28 0.37,-0.33 0.91,-0.49 1.62,-0.49l2.82 0zm-1.03 0.85l-1.46 0c-0.61,0 -1.01,0.1 -1.19,0.29 -0.18,0.19 -0.27,0.42 -0.27,0.67 0,0.36 0.13,0.63 0.39,0.8 0.26,0.17 0.72,0.26 1.38,0.26l1.14 0 0 -2.01z"/>
  <path id="_3_8" class="fil0" d="M30.03 89.99l1.01 0.14c-0.11,0.69 -0.39,1.23 -0.85,1.62 -0.45,0.39 -1.01,0.59 -1.67,0.59 -0.83,0 -1.49,-0.27 -2,-0.81 -0.5,-0.54 -0.76,-1.32 -0.76,-2.33 0,-0.65 0.11,-1.23 0.33,-1.72 0.22,-0.49 0.55,-0.86 0.99,-1.1 0.44,-0.25 0.92,-0.37 1.45,-0.37 0.66,0 1.2,0.17 1.61,0.5 0.42,0.33 0.69,0.81 0.8,1.42l-0.99 0.15c-0.1,-0.41 -0.26,-0.71 -0.51,-0.92 -0.24,-0.2 -0.53,-0.31 -0.88,-0.31 -0.52,0 -0.94,0.19 -1.26,0.56 -0.32,0.37 -0.49,0.96 -0.49,1.76 0,0.81 0.16,1.41 0.47,1.77 0.31,0.37 0.72,0.55 1.22,0.55 0.41,0 0.74,-0.12 1.01,-0.37 0.27,-0.25 0.44,-0.63 0.51,-1.14z"/>
  <path id="_4_9" class="fil0" d="M31.66 89.18c0,-1.12 0.31,-1.95 0.94,-2.49 0.52,-0.45 1.16,-0.67 1.91,-0.67 0.83,0 1.51,0.27 2.04,0.82 0.53,0.54 0.79,1.3 0.79,2.26 0,0.78 -0.12,1.39 -0.35,1.84 -0.23,0.45 -0.57,0.79 -1.02,1.04 -0.45,0.25 -0.94,0.37 -1.46,0.37 -0.85,0 -1.54,-0.27 -2.06,-0.81 -0.52,-0.54 -0.79,-1.33 -0.79,-2.35zm1.05 0c0,0.78 0.17,1.36 0.51,1.74 0.34,0.39 0.77,0.58 1.28,0.58 0.51,0 0.94,-0.19 1.28,-0.58 0.34,-0.39 0.51,-0.98 0.51,-1.77 0,-0.75 -0.17,-1.32 -0.51,-1.7 -0.34,-0.39 -0.77,-0.58 -1.27,-0.58 -0.52,0 -0.94,0.19 -1.28,0.58 -0.34,0.38 -0.51,0.96 -0.51,1.74z"/>
  <polygon id="_5_10" class="fil0" points="38.55,86.14 42.04,86.14 42.04,87 39.58,87 39.58,92.21 38.55,92.21 "/>
  <path id="_6_11" class="fil0" d="M42.76 94.55l-0.12 -0.95c0.23,0.06 0.42,0.09 0.59,0.09 0.23,0 0.41,-0.04 0.55,-0.12 0.14,-0.08 0.25,-0.18 0.34,-0.32 0.06,-0.1 0.17,-0.36 0.31,-0.77 0.02,-0.06 0.05,-0.14 0.09,-0.25l-2.3 -6.09 1.1 0 1.27 3.5c0.17,0.44 0.31,0.91 0.44,1.4 0.12,-0.46 0.26,-0.92 0.42,-1.37l1.29 -3.54 1.03 0 -2.29 6.17c-0.25,0.66 -0.44,1.12 -0.58,1.37 -0.18,0.34 -0.39,0.58 -0.63,0.74 -0.24,0.16 -0.52,0.24 -0.85,0.24 -0.2,0 -0.42,-0.04 -0.66,-0.12z"/>
  <path id="_7_12" class="fil0" d="M50 89.46l0 -0.81c0.43,-0 0.73,-0.02 0.89,-0.05 0.16,-0.03 0.31,-0.12 0.45,-0.27 0.14,-0.15 0.21,-0.34 0.21,-0.57 0,-0.27 -0.09,-0.5 -0.28,-0.66 -0.19,-0.17 -0.42,-0.25 -0.72,-0.25 -0.58,0 -0.98,0.34 -1.22,1.02l-0.98 -0.16c0.3,-1.13 1.04,-1.7 2.21,-1.7 0.65,0 1.15,0.18 1.52,0.53 0.37,0.35 0.55,0.77 0.55,1.26 0,0.49 -0.24,0.89 -0.72,1.18 0.31,0.16 0.53,0.37 0.69,0.63 0.15,0.25 0.23,0.55 0.23,0.9 0,0.54 -0.2,0.98 -0.59,1.32 -0.4,0.34 -0.95,0.51 -1.66,0.51 -1.38,0 -2.19,-0.61 -2.41,-1.84l0.97 -0.21c0.09,0.39 0.27,0.69 0.53,0.9 0.27,0.21 0.57,0.32 0.92,0.32 0.35,0 0.64,-0.1 0.87,-0.29 0.23,-0.19 0.34,-0.44 0.34,-0.75 0,-0.24 -0.07,-0.44 -0.22,-0.62 -0.14,-0.18 -0.3,-0.28 -0.46,-0.33 -0.16,-0.04 -0.46,-0.07 -0.89,-0.07 -0.03,0 -0.11,0 -0.23,0.01z"/>
  <path id="_8_13" class="fil0" d="M54.01 86.14l1.03 0 0 2.62c0.33,0 0.56,-0.06 0.69,-0.19 0.13,-0.12 0.32,-0.49 0.58,-1.1 0.2,-0.48 0.37,-0.8 0.49,-0.95 0.13,-0.15 0.27,-0.26 0.43,-0.31 0.17,-0.05 0.43,-0.08 0.79,-0.08l0.21 0 0 0.85 -0.29 -0.01c-0.27,0 -0.44,0.04 -0.52,0.12 -0.08,0.08 -0.2,0.33 -0.37,0.75 -0.16,0.4 -0.3,0.67 -0.43,0.82 -0.13,0.15 -0.33,0.29 -0.6,0.42 0.44,0.12 0.88,0.53 1.31,1.24l1.13 1.88 -1.13 0 -1.11 -1.87c-0.22,-0.38 -0.42,-0.63 -0.58,-0.75 -0.17,-0.12 -0.37,-0.18 -0.6,-0.18l0 2.81 -1.03 0 0 -6.07z"/>
  <path id="_9_14" class="fil0" d="M63.36 91.45c-0.38,0.33 -0.75,0.55 -1.1,0.69 -0.35,0.13 -0.73,0.2 -1.14,0.2 -0.67,0 -1.18,-0.16 -1.54,-0.49 -0.36,-0.32 -0.54,-0.74 -0.54,-1.24 0,-0.3 0.07,-0.57 0.2,-0.81 0.14,-0.25 0.31,-0.44 0.53,-0.59 0.22,-0.15 0.47,-0.26 0.74,-0.34 0.2,-0.05 0.51,-0.1 0.92,-0.15 0.83,-0.1 1.44,-0.22 1.84,-0.35 0,-0.14 0.01,-0.23 0.01,-0.27 0,-0.42 -0.1,-0.71 -0.29,-0.88 -0.26,-0.23 -0.65,-0.35 -1.17,-0.35 -0.49,0 -0.84,0.09 -1.07,0.26 -0.23,0.17 -0.4,0.47 -0.51,0.9l-1.01 -0.14c0.09,-0.43 0.24,-0.78 0.45,-1.04 0.21,-0.27 0.51,-0.47 0.91,-0.61 0.4,-0.14 0.86,-0.21 1.38,-0.21 0.52,0 0.94,0.06 1.27,0.18 0.32,0.12 0.56,0.27 0.72,0.46 0.15,0.19 0.26,0.42 0.32,0.7 0.03,0.18 0.05,0.49 0.05,0.95l0 1.36c0,0.95 0.02,1.56 0.06,1.81 0.04,0.26 0.13,0.5 0.25,0.73l-1.08 0c-0.1,-0.22 -0.17,-0.47 -0.2,-0.76zm-0.08 -2.28c-0.37,0.15 -0.94,0.28 -1.68,0.39 -0.42,0.06 -0.73,0.13 -0.9,0.2 -0.18,0.08 -0.31,0.19 -0.41,0.33 -0.1,0.15 -0.14,0.31 -0.14,0.49 0,0.27 0.1,0.5 0.31,0.68 0.21,0.18 0.51,0.27 0.91,0.27 0.4,0 0.75,-0.09 1.06,-0.26 0.31,-0.17 0.54,-0.41 0.68,-0.71 0.11,-0.23 0.17,-0.57 0.17,-1.02l0.01 -0.37z"/>
  <polygon class="fil0" points="-0,14.42 6.57,14.42 6.57,22.79 5.46,22.79 5.46,15.4 1.11,15.4 1.11,22.79 -0,22.79 "/>
  <path id="_1_15" class="fil0" d="M8.27 25.12l0 -8.4 0.94 0 0 0.8c0.22,-0.31 0.47,-0.54 0.75,-0.69 0.28,-0.15 0.61,-0.23 1.01,-0.23 0.52,0 0.97,0.13 1.37,0.4 0.4,0.27 0.69,0.64 0.9,1.12 0.2,0.49 0.3,1.02 0.3,1.59 0,0.62 -0.11,1.18 -0.33,1.67 -0.22,0.5 -0.55,0.88 -0.97,1.14 -0.42,0.26 -0.87,0.4 -1.34,0.4 -0.34,0 -0.65,-0.07 -0.92,-0.22 -0.27,-0.14 -0.5,-0.33 -0.67,-0.55l0 2.96 -1.03 0zm0.94 -5.32c0,0.78 0.16,1.35 0.47,1.72 0.32,0.37 0.7,0.56 1.15,0.56 0.46,0 0.85,-0.19 1.17,-0.58 0.33,-0.39 0.49,-0.98 0.49,-1.79 0,-0.77 -0.16,-1.35 -0.48,-1.73 -0.32,-0.38 -0.7,-0.58 -1.14,-0.58 -0.44,0 -0.82,0.2 -1.16,0.61 -0.34,0.41 -0.51,1 -0.51,1.78z"/>
  <path id="_2_16" class="fil0" d="M19.42 16.72l0 6.07 -1.03 0 0 -2.36 -0.59 0c-0.36,0 -0.63,0.05 -0.81,0.14 -0.18,0.1 -0.44,0.39 -0.78,0.9l-0.9 1.32 -1.27 0 1.11 -1.63c0.34,-0.5 0.68,-0.78 1.02,-0.84 -0.59,-0.08 -1.02,-0.29 -1.31,-0.64 -0.28,-0.34 -0.43,-0.74 -0.43,-1.18 0,-0.53 0.19,-0.95 0.56,-1.28 0.37,-0.33 0.91,-0.49 1.62,-0.49l2.82 0zm-1.03 0.85l-1.46 0c-0.61,0 -1.01,0.1 -1.19,0.29 -0.18,0.19 -0.27,0.42 -0.27,0.67 0,0.36 0.13,0.63 0.39,0.8 0.26,0.17 0.72,0.26 1.38,0.26l1.14 0 0 -2.01z"/>
  <polygon id="_3_17" class="fil0" points="20.43,16.72 25.34,16.72 25.34,17.57 23.4,17.57 23.4,22.79 22.37,22.79 22.37,17.57 20.43,17.57 "/>
  <path id="_4_18" class="fil0" d="M26.31 16.72l1.03 0 0 2.62c0.33,0 0.56,-0.06 0.69,-0.19 0.13,-0.12 0.32,-0.49 0.58,-1.1 0.2,-0.48 0.37,-0.8 0.49,-0.95 0.13,-0.15 0.27,-0.26 0.43,-0.31 0.17,-0.05 0.43,-0.08 0.79,-0.08l0.21 0 0 0.85 -0.29 -0.01c-0.27,0 -0.44,0.04 -0.52,0.12 -0.08,0.08 -0.2,0.33 -0.37,0.75 -0.16,0.4 -0.3,0.67 -0.43,0.82 -0.13,0.15 -0.33,0.29 -0.6,0.42 0.44,0.12 0.88,0.53 1.31,1.24l1.13 1.88 -1.13 0 -1.11 -1.87c-0.22,-0.38 -0.42,-0.63 -0.58,-0.75 -0.17,-0.12 -0.37,-0.18 -0.6,-0.18l0 2.81 -1.03 0 0 -6.07z"/>
  <polygon id="_5_19" class="fil0" points="31.44,16.72 32.47,16.72 32.47,21.35 35.33,16.72 36.44,16.72 36.44,22.79 35.41,22.79 35.41,18.19 32.55,22.79 31.44,22.79 "/>
  <path id="_6_20" class="fil0" d="M43.19 25.24c-0.57,-0.72 -1.04,-1.55 -1.44,-2.51 -0.39,-0.96 -0.59,-1.95 -0.59,-2.98 0,-0.91 0.15,-1.77 0.44,-2.6 0.34,-0.96 0.87,-1.92 1.58,-2.88l0.74 0c-0.46,0.79 -0.77,1.36 -0.91,1.7 -0.23,0.52 -0.42,1.07 -0.55,1.64 -0.16,0.71 -0.25,1.43 -0.25,2.15 0,1.83 0.57,3.66 1.71,5.48l-0.74 0z"/>
  <polygon id="_7_21" class="fil0" points="45.12,16.72 46.15,16.72 46.15,21.35 49.01,16.72 50.11,16.72 50.11,22.79 49.08,22.79 49.08,18.19 46.23,22.79 45.12,22.79 "/>
  <polygon id="_8_22" class="fil0" points="51.65,16.72 55.15,16.72 55.15,17.57 52.68,17.57 52.68,22.79 51.65,22.79 "/>
  <path id="_9_23" class="fil0" d="M55.91 25.12l0 -8.4 0.94 0 0 0.8c0.22,-0.31 0.47,-0.54 0.75,-0.69 0.28,-0.15 0.61,-0.23 1.01,-0.23 0.52,0 0.97,0.13 1.37,0.4 0.4,0.27 0.69,0.64 0.9,1.12 0.2,0.49 0.3,1.02 0.3,1.59 0,0.62 -0.11,1.18 -0.33,1.67 -0.22,0.5 -0.55,0.88 -0.97,1.14 -0.42,0.26 -0.87,0.4 -1.34,0.4 -0.34,0 -0.65,-0.07 -0.92,-0.22 -0.27,-0.14 -0.49,-0.33 -0.67,-0.55l0 2.96 -1.03 0zm0.94 -5.32c0,0.78 0.16,1.35 0.47,1.72 0.32,0.37 0.7,0.56 1.15,0.56 0.46,0 0.85,-0.19 1.17,-0.58 0.33,-0.39 0.49,-0.98 0.49,-1.79 0,-0.77 -0.16,-1.35 -0.48,-1.73 -0.32,-0.38 -0.7,-0.58 -1.14,-0.58 -0.44,0 -0.82,0.2 -1.16,0.61 -0.34,0.41 -0.5,1 -0.5,1.78z"/>
  <path id="_10_24" class="fil0" d="M66.38 22.03c-0.38,0.33 -0.75,0.55 -1.1,0.69 -0.35,0.13 -0.73,0.2 -1.14,0.2 -0.67,0 -1.18,-0.16 -1.54,-0.49 -0.36,-0.32 -0.54,-0.74 -0.54,-1.24 0,-0.3 0.07,-0.57 0.2,-0.81 0.14,-0.25 0.31,-0.44 0.53,-0.59 0.22,-0.15 0.47,-0.26 0.74,-0.34 0.2,-0.05 0.51,-0.1 0.92,-0.15 0.83,-0.1 1.44,-0.22 1.84,-0.35 0,-0.14 0.01,-0.23 0.01,-0.27 0,-0.42 -0.1,-0.71 -0.29,-0.88 -0.26,-0.23 -0.65,-0.35 -1.17,-0.35 -0.49,0 -0.84,0.09 -1.07,0.26 -0.23,0.17 -0.4,0.47 -0.51,0.9l-1.01 -0.14c0.09,-0.43 0.24,-0.78 0.45,-1.04 0.21,-0.27 0.51,-0.47 0.91,-0.61 0.4,-0.14 0.86,-0.21 1.38,-0.21 0.52,0 0.94,0.06 1.27,0.18 0.32,0.12 0.56,0.27 0.72,0.46 0.15,0.19 0.26,0.42 0.32,0.7 0.03,0.18 0.05,0.49 0.05,0.95l0 1.36c0,0.95 0.02,1.56 0.06,1.81 0.04,0.26 0.13,0.5 0.25,0.73l-1.08 0c-0.1,-0.22 -0.17,-0.47 -0.2,-0.76zm-0.08 -2.28c-0.37,0.15 -0.94,0.28 -1.68,0.39 -0.42,0.06 -0.73,0.13 -0.9,0.2 -0.18,0.08 -0.31,0.19 -0.41,0.33 -0.1,0.15 -0.14,0.31 -0.14,0.49 0,0.27 0.1,0.5 0.31,0.68 0.21,0.18 0.51,0.27 0.91,0.27 0.4,0 0.75,-0.09 1.06,-0.26 0.31,-0.17 0.54,-0.41 0.68,-0.71 0.11,-0.23 0.17,-0.57 0.17,-1.02l0.01 -0.37z"/>
  <path id="_11" class="fil0" d="M69.6 25.24l-0.74 0c1.14,-1.83 1.71,-3.65 1.71,-5.48 0,-0.72 -0.08,-1.42 -0.25,-2.13 -0.13,-0.57 -0.31,-1.12 -0.54,-1.64 -0.15,-0.34 -0.46,-0.91 -0.92,-1.71l0.74 0c0.71,0.95 1.24,1.91 1.58,2.88 0.29,0.83 0.44,1.7 0.44,2.6 0,1.03 -0.2,2.02 -0.59,2.98 -0.39,0.96 -0.87,1.79 -1.43,2.51z"/>
  <polygon class="fil0" points="132.68,18.21 133.79,18.21 133.79,25.6 138.14,25.6 138.14,18.21 139.25,18.21 139.25,25.6 140.01,25.6 140.01,28.91 139.03,28.91 139.03,26.58 132.68,26.58 "/>
  <path id="_1_25" class="fil0" d="M146.95 20.51l1.03 0 0 6.07 -1.03 0 0 -6.07zm-5.74 0l1.03 0 0 2.37 1.3 0c0.85,0 1.5,0.16 1.96,0.49 0.46,0.33 0.69,0.78 0.69,1.36 0,0.51 -0.19,0.94 -0.57,1.3 -0.38,0.36 -0.99,0.54 -1.83,0.54l-2.56 0 0 -6.07zm1.03 5.23l1.08 0c0.65,0 1.11,-0.08 1.39,-0.24 0.28,-0.16 0.42,-0.41 0.42,-0.75 0,-0.26 -0.1,-0.5 -0.31,-0.7 -0.21,-0.2 -0.66,-0.31 -1.36,-0.31l-1.22 0 0 2z"/>
  <polygon id="_2_26" class="fil0" points="149.58,20.51 154.37,20.51 154.37,26.58 153.35,26.58 153.35,21.36 150.61,21.36 150.61,26.58 149.58,26.58 "/>
  <path id="_3_27" class="fil0" d="M156.42 20.51l4.78 0 0 6.06 -1.03 0 0 -5.21 -2.72 0 0 3.02c0,0.7 -0.02,1.17 -0.07,1.39 -0.05,0.22 -0.17,0.42 -0.38,0.59 -0.21,0.17 -0.5,0.25 -0.89,0.25 -0.24,0 -0.52,-0.02 -0.83,-0.04l0 -0.86 0.45 0c0.21,0 0.36,-0.02 0.46,-0.07 0.09,-0.04 0.15,-0.11 0.18,-0.21 0.03,-0.1 0.04,-0.41 0.04,-0.93l0 -4z"/>
  <path id="_4_28" class="fil0" d="M166.88 24.62l1.06 0.14c-0.17,0.62 -0.48,1.1 -0.93,1.44 -0.45,0.34 -1.03,0.51 -1.73,0.51 -0.88,0 -1.59,-0.27 -2.1,-0.82 -0.52,-0.54 -0.78,-1.31 -0.78,-2.29 0,-1.02 0.26,-1.81 0.79,-2.37 0.52,-0.56 1.2,-0.84 2.04,-0.84 0.81,0 1.47,0.27 1.98,0.83 0.51,0.55 0.77,1.33 0.77,2.33 0,0.06 -0,0.15 -0.01,0.27l-4.52 0c0.04,0.66 0.23,1.18 0.57,1.53 0.34,0.35 0.76,0.53 1.26,0.53 0.38,0 0.7,-0.1 0.96,-0.3 0.27,-0.2 0.48,-0.52 0.63,-0.95zm-3.37 -1.65l3.38 0c-0.04,-0.51 -0.18,-0.89 -0.39,-1.15 -0.33,-0.4 -0.75,-0.59 -1.27,-0.59 -0.47,0 -0.87,0.16 -1.19,0.47 -0.32,0.32 -0.5,0.74 -0.53,1.27zm0.05 -3.2l0 -1.17 1.08 0 0 1.17 -1.08 0zm2.13 0l0 -1.17 1.08 0 0 1.17 -1.08 0z"/>
  <polygon id="_5_29" class="fil0" points="169.24,20.51 170.27,20.51 170.27,23.04 173.12,23.04 173.12,20.51 174.15,20.51 174.15,26.58 173.12,26.58 173.12,23.89 170.27,23.89 170.27,26.58 169.24,26.58 "/>
  <path id="_6_30" class="fil0" d="M175.31 23.55c0,-1.12 0.31,-1.95 0.94,-2.49 0.52,-0.45 1.16,-0.67 1.91,-0.67 0.83,0 1.51,0.27 2.04,0.82 0.53,0.54 0.79,1.3 0.79,2.26 0,0.78 -0.12,1.39 -0.35,1.84 -0.23,0.45 -0.57,0.79 -1.02,1.04 -0.45,0.25 -0.94,0.37 -1.46,0.37 -0.85,0 -1.54,-0.27 -2.06,-0.81 -0.52,-0.54 -0.79,-1.33 -0.79,-2.35zm1.05 0c0,0.78 0.17,1.36 0.51,1.74 0.34,0.39 0.77,0.58 1.28,0.58 0.51,0 0.94,-0.19 1.28,-0.58 0.34,-0.39 0.51,-0.98 0.51,-1.77 0,-0.75 -0.17,-1.32 -0.51,-1.7 -0.34,-0.39 -0.77,-0.58 -1.27,-0.58 -0.52,0 -0.94,0.19 -1.28,0.58 -0.34,0.38 -0.51,0.96 -0.51,1.74z"/>
  <path id="_7_31" class="fil0" d="M182.19 20.51l1.03 0 0 2.62c0.33,0 0.56,-0.06 0.69,-0.19 0.13,-0.12 0.32,-0.49 0.58,-1.1 0.2,-0.48 0.37,-0.8 0.49,-0.95 0.13,-0.15 0.27,-0.26 0.43,-0.31 0.17,-0.05 0.43,-0.08 0.79,-0.08l0.21 0 0 0.85 -0.29 -0.01c-0.27,0 -0.44,0.04 -0.52,0.12 -0.08,0.08 -0.2,0.33 -0.37,0.75 -0.16,0.4 -0.3,0.67 -0.43,0.82 -0.13,0.15 -0.33,0.29 -0.6,0.42 0.44,0.12 0.88,0.53 1.31,1.24l1.13 1.88 -1.13 0 -1.11 -1.87c-0.22,-0.38 -0.42,-0.63 -0.58,-0.75 -0.17,-0.12 -0.37,-0.18 -0.6,-0.18l0 2.81 -1.03 0 0 -6.07z"/>
  <path class="fil0" d="M149.95 92.47l0 -8.37 3.16 0c0.56,0 0.98,0.03 1.27,0.08 0.41,0.07 0.76,0.2 1.03,0.39 0.28,0.19 0.5,0.46 0.67,0.81 0.17,0.34 0.25,0.72 0.25,1.14 0,0.71 -0.23,1.31 -0.68,1.8 -0.45,0.49 -1.27,0.74 -2.46,0.74l-2.15 0 0 3.41 -1.11 0zm1.11 -4.4l2.16 0c0.72,0 1.22,-0.13 1.53,-0.4 0.3,-0.27 0.45,-0.64 0.45,-1.13 0,-0.35 -0.09,-0.65 -0.27,-0.9 -0.18,-0.25 -0.41,-0.42 -0.7,-0.49 -0.19,-0.05 -0.53,-0.07 -1.03,-0.07l-2.14 0 0 2.99z"/>
  <path id="_1_32" class="fil0" d="M163.39 86.4l1.03 0 0 6.07 -1.03 0 0 -6.07zm-5.74 0l1.03 0 0 2.37 1.3 0c0.85,0 1.5,0.16 1.96,0.49 0.46,0.33 0.69,0.78 0.69,1.36 0,0.51 -0.19,0.94 -0.57,1.3 -0.38,0.36 -0.99,0.54 -1.83,0.54l-2.56 0 0 -6.07zm1.03 5.23l1.08 0c0.65,0 1.11,-0.08 1.39,-0.24 0.28,-0.16 0.42,-0.41 0.42,-0.75 0,-0.26 -0.1,-0.5 -0.31,-0.7 -0.21,-0.2 -0.66,-0.31 -1.36,-0.31l-1.22 0 0 2z"/>
  <path id="_2_33" class="fil0" d="M170.44 83.9l0.91 0.01c-0.04,0.41 -0.13,0.69 -0.27,0.85 -0.14,0.16 -0.32,0.26 -0.53,0.31 -0.22,0.04 -0.65,0.07 -1.28,0.07 -0.85,0 -1.42,0.08 -1.73,0.25 -0.31,0.16 -0.53,0.42 -0.66,0.78 -0.13,0.36 -0.21,0.82 -0.22,1.39 0.26,-0.39 0.56,-0.67 0.91,-0.87 0.34,-0.19 0.74,-0.29 1.17,-0.29 0.8,0 1.45,0.27 1.98,0.82 0.52,0.55 0.78,1.28 0.78,2.22 0,0.71 -0.13,1.29 -0.39,1.74 -0.26,0.45 -0.57,0.8 -0.94,1.05 -0.36,0.25 -0.85,0.37 -1.47,0.37 -0.72,0 -1.28,-0.16 -1.68,-0.49 -0.4,-0.33 -0.71,-0.75 -0.92,-1.26 -0.21,-0.51 -0.32,-1.41 -0.32,-2.68 0,-1.6 0.27,-2.68 0.81,-3.23 0.54,-0.56 1.37,-0.83 2.49,-0.83 0.7,0 1.1,-0.01 1.19,-0.03 0.09,-0.02 0.15,-0.08 0.18,-0.16zm-0.04 5.51c0,-0.63 -0.15,-1.15 -0.45,-1.55 -0.3,-0.4 -0.72,-0.6 -1.26,-0.6 -0.57,0 -1,0.21 -1.31,0.64 -0.31,0.42 -0.46,0.99 -0.46,1.7 0,0.7 0.17,1.24 0.51,1.61 0.34,0.37 0.76,0.56 1.26,0.56 0.51,0 0.92,-0.22 1.24,-0.65 0.32,-0.43 0.48,-1 0.48,-1.71z"/>
  <path id="_3_34" class="fil0" d="M176.42 91.71c-0.38,0.33 -0.75,0.55 -1.1,0.69 -0.35,0.13 -0.73,0.2 -1.14,0.2 -0.67,0 -1.18,-0.16 -1.54,-0.49 -0.36,-0.32 -0.54,-0.74 -0.54,-1.24 0,-0.3 0.07,-0.57 0.2,-0.81 0.14,-0.25 0.31,-0.44 0.53,-0.59 0.22,-0.15 0.47,-0.26 0.74,-0.34 0.2,-0.05 0.51,-0.1 0.92,-0.15 0.83,-0.1 1.44,-0.22 1.84,-0.35 0,-0.14 0.01,-0.23 0.01,-0.27 0,-0.42 -0.1,-0.71 -0.29,-0.88 -0.26,-0.23 -0.65,-0.35 -1.17,-0.35 -0.49,0 -0.84,0.09 -1.07,0.26 -0.23,0.17 -0.4,0.47 -0.51,0.9l-1.01 -0.14c0.09,-0.43 0.24,-0.78 0.45,-1.04 0.21,-0.27 0.51,-0.47 0.91,-0.61 0.4,-0.14 0.86,-0.21 1.38,-0.21 0.52,0 0.94,0.06 1.27,0.18 0.32,0.12 0.56,0.27 0.72,0.46 0.15,0.19 0.26,0.42 0.32,0.7 0.03,0.18 0.05,0.49 0.05,0.95l0 1.36c0,0.95 0.02,1.56 0.06,1.81 0.04,0.26 0.13,0.5 0.25,0.73l-1.08 0c-0.1,-0.22 -0.17,-0.47 -0.2,-0.76zm-0.08 -2.28c-0.37,0.15 -0.94,0.28 -1.68,0.39 -0.42,0.06 -0.73,0.13 -0.9,0.2 -0.18,0.08 -0.31,0.19 -0.41,0.33 -0.1,0.15 -0.14,0.31 -0.14,0.49 0,0.27 0.1,0.5 0.31,0.68 0.21,0.18 0.51,0.27 0.91,0.27 0.4,0 0.75,-0.09 1.06,-0.26 0.31,-0.17 0.54,-0.41 0.68,-0.71 0.11,-0.23 0.17,-0.57 0.17,-1.02l0.01 -0.37z"/>
 </g>
</svg>
