<?xml version="1.0" encoding="UTF-8"?>
<!DOCTYPE svg PUBLIC "-//W3C//DTD SVG 1.1//EN" "http://www.w3.org/Graphics/SVG/1.1/DTD/svg11.dtd">
<!-- Creator: CorelDRAW 2019 (64-Bit) -->
<svg xmlns="http://www.w3.org/2000/svg" xml:space="preserve" width="7.33176cm" height="4.37883cm" version="1.1" style="shape-rendering:geometricPrecision; text-rendering:geometricPrecision; image-rendering:optimizeQuality; fill-rule:evenodd; clip-rule:evenodd"
viewBox="0 0 21.45 12.811"
 xmlns:xlink="http://www.w3.org/1999/xlink"
 xmlns:xodm="http://www.corel.com/coreldraw/odm/2003">
 <defs>
  <style type="text/css">
   <![CDATA[
    .fil0 {fill:#7B6636;fill-rule:nonzero}
   ]]>
  </style>
 </defs>
 <g id="Слой_x0020_1">
  <metadata id="CorelCorpID_0Corel-Layer"/>
  <path class="fil0" d="M0.701 6.809l-0.182 -0.446 -0.176 0.446 0.358 0zm-0.169 -0.689l0.06 0 0.392 0.979c0.013,0.031 0.025,0.051 0.038,0.061 0.013,0.01 0.035,0.015 0.067,0.015l0.032 0 0 0.074 -0.46 0 0 -0.074 0.069 0c0.032,0 0.053,-0.003 0.065,-0.009 0.012,-0.006 0.018,-0.017 0.018,-0.032 0,-0.006 -0.001,-0.013 -0.003,-0.021 -0.002,-0.008 -0.006,-0.019 -0.011,-0.032l-0.07 -0.194 -0.414 0 -0.047 0.119c-0.006,0.016 -0.011,0.034 -0.015,0.051 -0.004,0.017 -0.006,0.03 -0.006,0.038 0,0.027 0.009,0.046 0.027,0.059 0.018,0.013 0.047,0.019 0.085,0.019l0.038 0 0 0.074 -0.397 0 0 -0.074 0.013 0c0.041,0 0.073,-0.009 0.094,-0.026 0.022,-0.017 0.043,-0.052 0.064,-0.103l0.361 -0.925zm1.194 0.541c0,-0.023 -0.003,-0.038 -0.01,-0.045 -0.007,-0.007 -0.021,-0.011 -0.042,-0.012l-0.071 -0.003 0 -0.065 0.384 0 0 0.065 -0.07 0.003c-0.022,0.001 -0.036,0.005 -0.042,0.012 -0.006,0.007 -0.01,0.022 -0.01,0.045l0 0.462c0,0.023 0.003,0.037 0.01,0.045 0.007,0.007 0.021,0.011 0.042,0.012l0.069 0.003 0 0.065 -0.384 0 0 -0.065 0.07 -0.003c0.022,-0.001 0.036,-0.005 0.043,-0.012 0.006,-0.007 0.01,-0.022 0.01,-0.045l0 -0.214 -0.32 0 0 0.214c0,0.023 0.003,0.038 0.01,0.045 0.006,0.007 0.021,0.011 0.042,0.012l0.07 0.003 0 0.065 -0.384 0 0 -0.065 0.07 -0.003c0.021,-0.001 0.035,-0.005 0.041,-0.012 0.006,-0.007 0.01,-0.022 0.01,-0.045l0 -0.462c0,-0.023 -0.003,-0.038 -0.01,-0.045 -0.006,-0.007 -0.02,-0.011 -0.04,-0.012l-0.071 -0.003 0 -0.065 0.384 0 0 0.065 -0.07 0.003c-0.021,0.001 -0.035,0.005 -0.041,0.012 -0.006,0.007 -0.01,0.022 -0.01,0.045l0 0.181 0.32 0 0 -0.181zm0.83 0.204c-0.114,0.015 -0.198,0.038 -0.25,0.07 -0.052,0.032 -0.078,0.074 -0.078,0.128 0,0.042 0.01,0.074 0.03,0.094 0.02,0.02 0.05,0.031 0.091,0.031 0.063,0 0.114,-0.019 0.151,-0.059 0.037,-0.039 0.055,-0.093 0.055,-0.163l0 -0.101zm0.009 0.285c-0.027,0.036 -0.067,0.066 -0.117,0.089 -0.05,0.023 -0.103,0.034 -0.158,0.034 -0.064,0 -0.115,-0.017 -0.154,-0.052 -0.039,-0.034 -0.058,-0.08 -0.058,-0.136 0,-0.074 0.037,-0.133 0.111,-0.178 0.074,-0.044 0.197,-0.08 0.367,-0.108l0 -0.11c0,-0.035 -0.014,-0.063 -0.043,-0.082 -0.028,-0.019 -0.069,-0.029 -0.122,-0.029 -0.04,0 -0.074,0.005 -0.099,0.016 -0.026,0.011 -0.038,0.024 -0.038,0.039 0,0.003 0.006,0.013 0.018,0.03 0.012,0.016 0.018,0.035 0.018,0.055 0,0.024 -0.007,0.043 -0.022,0.057 -0.014,0.014 -0.034,0.021 -0.058,0.021 -0.028,0 -0.051,-0.008 -0.067,-0.023 -0.016,-0.015 -0.024,-0.037 -0.024,-0.065 0,-0.056 0.028,-0.103 0.083,-0.141 0.056,-0.037 0.127,-0.056 0.213,-0.056 0.098,0 0.17,0.018 0.214,0.053 0.045,0.035 0.067,0.093 0.067,0.173l0 0.001 0 0.364c0,0.02 0.005,0.036 0.015,0.047 0.01,0.011 0.024,0.016 0.042,0.016 0.011,0 0.024,-0.003 0.037,-0.011 0.014,-0.007 0.023,-0.011 0.026,-0.011 0.006,0 0.011,0.002 0.015,0.007 0.004,0.005 0.006,0.011 0.006,0.018 0,0.021 -0.015,0.041 -0.044,0.062 -0.029,0.021 -0.062,0.031 -0.099,0.031 -0.036,0 -0.065,-0.01 -0.088,-0.03 -0.023,-0.02 -0.037,-0.048 -0.043,-0.084zm0.608 -0.825c0.016,0.011 0.034,0.019 0.053,0.024 0.019,0.005 0.043,0.007 0.071,0.007 0.028,0 0.053,-0.003 0.075,-0.007 0.022,-0.005 0.04,-0.013 0.057,-0.023 -0.015,-0.006 -0.026,-0.013 -0.033,-0.024 -0.007,-0.01 -0.011,-0.023 -0.011,-0.038 0,-0.019 0.007,-0.035 0.022,-0.049 0.015,-0.014 0.031,-0.022 0.049,-0.022 0.019,0 0.035,0.007 0.048,0.022 0.013,0.014 0.02,0.032 0.02,0.053 0,0.039 -0.021,0.072 -0.064,0.097 -0.042,0.026 -0.096,0.039 -0.162,0.039 -0.067,0 -0.122,-0.013 -0.164,-0.038 -0.042,-0.026 -0.063,-0.057 -0.063,-0.096 0,-0.021 0.007,-0.038 0.022,-0.054 0.014,-0.015 0.031,-0.023 0.05,-0.023 0.018,0 0.034,0.007 0.048,0.022 0.014,0.014 0.021,0.03 0.021,0.049 0,0.014 -0.003,0.026 -0.009,0.036 -0.006,0.01 -0.016,0.018 -0.029,0.026zm0.281 0.337c0,-0.022 -0.003,-0.037 -0.01,-0.045 -0.007,-0.007 -0.021,-0.011 -0.042,-0.012l-0.071 -0.003 0 -0.065 0.384 0 0 0.065 -0.07 0.003c-0.022,0.001 -0.036,0.005 -0.042,0.012 -0.006,0.007 -0.01,0.022 -0.01,0.045l0 0.463c0,0.022 0.003,0.037 0.01,0.045 0.007,0.007 0.021,0.011 0.042,0.012l0.069 0.003 0 0.065 -0.384 0 0 -0.065 0.07 -0.003c0.022,-0.001 0.036,-0.005 0.043,-0.012 0.006,-0.007 0.01,-0.022 0.01,-0.045l0 -0.345 -0.32 0.331 0 0.018c0,0.02 0.003,0.034 0.01,0.04 0.007,0.007 0.021,0.011 0.042,0.012l0.07 0.003 0 0.065 -0.384 0 0 -0.065 0.07 -0.003c0.021,-0.001 0.035,-0.005 0.041,-0.012 0.006,-0.007 0.01,-0.022 0.01,-0.045l0 -0.463c0,-0.023 -0.003,-0.038 -0.01,-0.045 -0.006,-0.007 -0.02,-0.011 -0.04,-0.012l-0.071 -0.003 0 -0.065 0.384 0 0 0.065 -0.07 0.003c-0.021,0.001 -0.035,0.005 -0.041,0.012 -0.006,0.007 -0.01,0.022 -0.01,0.045l0 0.351 0.32 -0.331 0 -0.02z"/>
  <path class="fil0" d="M17.975 3.373l-0.182 -0.446 -0.176 0.446 0.358 0zm-0.169 -0.689l0.06 0 0.392 0.979c0.013,0.031 0.025,0.051 0.038,0.061 0.013,0.01 0.035,0.015 0.067,0.015l0.032 0 0 0.074 -0.46 0 0 -0.074 0.069 0c0.032,0 0.053,-0.003 0.065,-0.009 0.012,-0.006 0.018,-0.017 0.018,-0.032 0,-0.006 -0.001,-0.013 -0.003,-0.021 -0.002,-0.008 -0.006,-0.019 -0.011,-0.032l-0.07 -0.194 -0.414 0 -0.047 0.119c-0.006,0.016 -0.011,0.034 -0.015,0.051 -0.004,0.017 -0.006,0.03 -0.006,0.038 0,0.027 0.009,0.046 0.027,0.059 0.018,0.013 0.047,0.019 0.085,0.019l0.038 0 0 0.074 -0.397 0 0 -0.074 0.013 0c0.041,0 0.073,-0.009 0.094,-0.026 0.022,-0.017 0.043,-0.052 0.064,-0.103l0.361 -0.925zm0.681 0.395l0.04 0 0.038 0.061c0.026,-0.022 0.054,-0.037 0.084,-0.048 0.03,-0.01 0.062,-0.015 0.095,-0.015 0.071,0 0.127,0.016 0.168,0.049 0.041,0.033 0.061,0.078 0.061,0.135 0,0.044 -0.015,0.08 -0.044,0.109 -0.029,0.029 -0.072,0.048 -0.127,0.059 0.062,0.007 0.111,0.027 0.146,0.061 0.035,0.033 0.053,0.076 0.053,0.127 0,0.067 -0.029,0.12 -0.086,0.16 -0.057,0.04 -0.134,0.06 -0.231,0.06 -0.081,0 -0.145,-0.017 -0.192,-0.05 -0.047,-0.033 -0.071,-0.078 -0.071,-0.133 0,-0.034 0.009,-0.061 0.027,-0.083 0.018,-0.022 0.041,-0.032 0.068,-0.032 0.027,0 0.049,0.007 0.064,0.021 0.015,0.014 0.023,0.034 0.023,0.059 0,0.03 -0.012,0.051 -0.037,0.062 -0.025,0.012 -0.037,0.019 -0.037,0.023 0,0.019 0.013,0.036 0.04,0.05 0.027,0.014 0.061,0.02 0.104,0.02 0.055,0 0.098,-0.014 0.129,-0.042 0.032,-0.028 0.048,-0.066 0.048,-0.113 0,-0.054 -0.013,-0.093 -0.04,-0.117 -0.027,-0.024 -0.07,-0.036 -0.131,-0.036l-0.043 0 0 -0.058 0.04 0c0.052,0 0.092,-0.012 0.119,-0.036 0.027,-0.024 0.041,-0.059 0.041,-0.104 0,-0.039 -0.011,-0.071 -0.032,-0.094 -0.021,-0.023 -0.049,-0.035 -0.085,-0.035 -0.044,0 -0.083,0.018 -0.117,0.054 -0.034,0.036 -0.057,0.084 -0.069,0.144l-0.056 0 0.009 -0.257zm0.963 0.06c-0.059,0 -0.102,0.026 -0.132,0.079 -0.029,0.053 -0.044,0.132 -0.044,0.239 0,0.107 0.015,0.187 0.044,0.239 0.029,0.053 0.074,0.079 0.134,0.079 0.058,0 0.101,-0.026 0.13,-0.079 0.029,-0.053 0.043,-0.132 0.043,-0.239 0,-0.108 -0.014,-0.188 -0.043,-0.24 -0.029,-0.052 -0.073,-0.078 -0.133,-0.078zm0.253 -0.463l0.055 0c-0.006,0.123 -0.082,0.199 -0.227,0.226 -0.021,0.004 -0.037,0.007 -0.048,0.009 -0.096,0.019 -0.165,0.052 -0.205,0.098 -0.041,0.046 -0.071,0.126 -0.092,0.238 0.03,-0.057 0.069,-0.099 0.115,-0.128 0.046,-0.029 0.099,-0.044 0.158,-0.044 0.095,0 0.172,0.036 0.234,0.108 0.061,0.072 0.092,0.163 0.092,0.274 0,0.111 -0.032,0.202 -0.095,0.273 -0.064,0.071 -0.144,0.107 -0.24,0.107 -0.107,0 -0.189,-0.038 -0.247,-0.116 -0.058,-0.077 -0.087,-0.187 -0.087,-0.33 0,-0.166 0.026,-0.301 0.077,-0.403 0.051,-0.102 0.126,-0.168 0.224,-0.199 0.033,-0.01 0.079,-0.019 0.137,-0.028 0.092,-0.015 0.142,-0.043 0.149,-0.085zm0.659 0.753c-0.114,0.015 -0.198,0.038 -0.25,0.07 -0.052,0.032 -0.078,0.074 -0.078,0.128 0,0.042 0.01,0.074 0.03,0.094 0.02,0.02 0.05,0.031 0.091,0.031 0.063,0 0.114,-0.019 0.151,-0.059 0.037,-0.039 0.055,-0.093 0.055,-0.163l0 -0.101zm0.009 0.285c-0.027,0.036 -0.067,0.066 -0.117,0.089 -0.05,0.023 -0.103,0.034 -0.158,0.034 -0.064,0 -0.115,-0.017 -0.154,-0.052 -0.039,-0.034 -0.058,-0.08 -0.058,-0.136 0,-0.074 0.037,-0.133 0.111,-0.178 0.074,-0.044 0.197,-0.08 0.367,-0.108l0 -0.11c0,-0.035 -0.014,-0.063 -0.043,-0.082 -0.028,-0.019 -0.069,-0.029 -0.122,-0.029 -0.04,0 -0.074,0.005 -0.099,0.016 -0.026,0.011 -0.038,0.024 -0.038,0.039 0,0.003 0.006,0.013 0.018,0.03 0.012,0.016 0.018,0.035 0.018,0.055 0,0.024 -0.007,0.043 -0.022,0.057 -0.014,0.014 -0.034,0.021 -0.058,0.021 -0.028,0 -0.051,-0.008 -0.067,-0.023 -0.016,-0.015 -0.024,-0.037 -0.024,-0.065 0,-0.056 0.028,-0.103 0.083,-0.141 0.056,-0.037 0.127,-0.056 0.213,-0.056 0.098,0 0.17,0.018 0.214,0.053 0.045,0.035 0.067,0.093 0.067,0.173l0 0.001 0 0.364c0,0.02 0.005,0.036 0.015,0.047 0.01,0.011 0.024,0.016 0.042,0.016 0.011,0 0.024,-0.003 0.037,-0.011 0.014,-0.007 0.023,-0.011 0.026,-0.011 0.006,0 0.011,0.002 0.015,0.007 0.004,0.005 0.006,0.011 0.006,0.018 0,0.021 -0.015,0.041 -0.044,0.062 -0.029,0.021 -0.062,0.031 -0.099,0.031 -0.036,0 -0.065,-0.01 -0.088,-0.03 -0.023,-0.02 -0.037,-0.048 -0.043,-0.084zm0.736 0.04c0.063,0 0.109,-0.024 0.139,-0.071 0.03,-0.047 0.045,-0.121 0.045,-0.223 0,-0.102 -0.014,-0.177 -0.043,-0.224 -0.028,-0.047 -0.073,-0.071 -0.134,-0.071 -0.067,0 -0.116,0.023 -0.147,0.069 -0.03,0.046 -0.046,0.121 -0.046,0.226 0,0.103 0.015,0.178 0.044,0.224 0.029,0.046 0.076,0.069 0.141,0.069zm-0.443 0.314l0.066 -0.003c0.022,-0.001 0.036,-0.005 0.042,-0.012 0.006,-0.007 0.009,-0.022 0.009,-0.044l0 -0.778c0,-0.026 -0.005,-0.044 -0.015,-0.052 -0.01,-0.008 -0.032,-0.012 -0.065,-0.012l-0.017 0c0,0 -0.001,0 -0.002,0 -0.007,0.001 -0.012,0.002 -0.017,0.002l0 -0.066 0.249 -0.019 0 0.132c0.028,-0.047 0.061,-0.082 0.099,-0.105 0.037,-0.023 0.08,-0.035 0.127,-0.035 0.09,0 0.164,0.036 0.222,0.107 0.059,0.072 0.088,0.163 0.088,0.274 0,0.11 -0.03,0.201 -0.09,0.273 -0.06,0.072 -0.135,0.108 -0.223,0.108 -0.047,0 -0.087,-0.009 -0.12,-0.026 -0.033,-0.017 -0.064,-0.046 -0.094,-0.085l0 0.281c0,0.022 0.003,0.036 0.01,0.043 0.007,0.007 0.021,0.011 0.043,0.012l0.064 0.003 0 0.065 -0.375 0 0 -0.065z"/>
  <path class="fil0" d="M8.981 12.346l-0.182 -0.446 -0.176 0.446 0.358 0zm-0.169 -0.689l0.06 0 0.392 0.979c0.013,0.031 0.025,0.051 0.038,0.061 0.013,0.01 0.035,0.015 0.067,0.015l0.032 0 0 0.074 -0.46 0 0 -0.074 0.069 0c0.032,0 0.053,-0.003 0.065,-0.009 0.012,-0.006 0.018,-0.017 0.018,-0.032 0,-0.006 -0.001,-0.013 -0.003,-0.021 -0.002,-0.008 -0.006,-0.019 -0.011,-0.032l-0.07 -0.194 -0.414 0 -0.047 0.119c-0.006,0.016 -0.011,0.034 -0.015,0.051 -0.004,0.017 -0.006,0.03 -0.006,0.038 0,0.027 0.009,0.046 0.027,0.059 0.018,0.013 0.047,0.019 0.085,0.019l0.038 0 0 0.074 -0.397 0 0 -0.074 0.013 0c0.041,0 0.073,-0.009 0.094,-0.026 0.022,-0.017 0.043,-0.052 0.064,-0.103l0.361 -0.925zm0.681 0.395l0.04 0 0.038 0.061c0.026,-0.022 0.054,-0.037 0.084,-0.048 0.03,-0.01 0.062,-0.015 0.095,-0.015 0.071,0 0.127,0.016 0.168,0.049 0.041,0.033 0.061,0.078 0.061,0.135 0,0.044 -0.015,0.08 -0.044,0.109 -0.029,0.029 -0.072,0.048 -0.127,0.059 0.062,0.007 0.111,0.027 0.146,0.061 0.035,0.033 0.053,0.076 0.053,0.127 0,0.067 -0.029,0.12 -0.086,0.16 -0.057,0.04 -0.134,0.06 -0.231,0.06 -0.081,0 -0.145,-0.017 -0.192,-0.05 -0.047,-0.033 -0.071,-0.078 -0.071,-0.133 0,-0.034 0.009,-0.061 0.027,-0.083 0.018,-0.022 0.041,-0.032 0.068,-0.032 0.027,0 0.049,0.007 0.064,0.021 0.015,0.014 0.023,0.034 0.023,0.059 0,0.03 -0.012,0.051 -0.037,0.062 -0.025,0.012 -0.037,0.019 -0.037,0.023 0,0.019 0.013,0.036 0.04,0.05 0.027,0.014 0.061,0.02 0.104,0.02 0.055,0 0.098,-0.014 0.129,-0.042 0.032,-0.028 0.048,-0.066 0.048,-0.113 0,-0.054 -0.013,-0.093 -0.04,-0.117 -0.027,-0.024 -0.07,-0.036 -0.131,-0.036l-0.043 0 0 -0.058 0.04 0c0.052,0 0.092,-0.012 0.119,-0.036 0.027,-0.024 0.041,-0.059 0.041,-0.104 0,-0.039 -0.011,-0.071 -0.032,-0.094 -0.021,-0.023 -0.049,-0.035 -0.085,-0.035 -0.044,0 -0.083,0.018 -0.117,0.054 -0.034,0.036 -0.057,0.084 -0.069,0.144l-0.056 0 0.009 -0.257zm1.039 0.022c0.088,0 0.153,0.014 0.194,0.042 0.042,0.028 0.063,0.071 0.063,0.13 0,0.047 -0.015,0.084 -0.046,0.112 -0.031,0.028 -0.076,0.046 -0.137,0.054 0.073,0.006 0.128,0.025 0.166,0.056 0.038,0.031 0.057,0.073 0.057,0.127 0,0.06 -0.024,0.107 -0.071,0.141 -0.047,0.033 -0.115,0.05 -0.201,0.05l-0.435 0 0 -0.065 0.07 -0.003c0.022,-0.001 0.036,-0.005 0.043,-0.012 0.007,-0.007 0.01,-0.022 0.01,-0.045l0 -0.463c0,-0.023 -0.003,-0.037 -0.01,-0.045 -0.007,-0.007 -0.021,-0.011 -0.042,-0.012l-0.071 -0.003 0 -0.065 0.41 0zm-0.147 0.37l0 0.217c0,0.023 0.004,0.038 0.012,0.047 0.008,0.009 0.021,0.013 0.04,0.013l0.066 0c0.062,0 0.107,-0.01 0.134,-0.031 0.027,-0.021 0.041,-0.054 0.041,-0.099 0,-0.054 -0.016,-0.091 -0.047,-0.113 -0.031,-0.022 -0.086,-0.033 -0.166,-0.033l-0.081 0zm0.107 -0.306l-0.056 0c-0.018,0 -0.032,0.004 -0.04,0.013 -0.008,0.008 -0.012,0.024 -0.012,0.047l0 0.188 0.074 0c0.075,0 0.126,-0.009 0.153,-0.028 0.026,-0.019 0.04,-0.053 0.04,-0.101 0,-0.041 -0.012,-0.071 -0.037,-0.09 -0.025,-0.018 -0.065,-0.028 -0.121,-0.028zm0.888 0.237c0.021,0 0.035,-0.004 0.043,-0.011 0.007,-0.007 0.011,-0.02 0.011,-0.038 0,-0.069 -0.014,-0.123 -0.042,-0.16 -0.028,-0.037 -0.068,-0.056 -0.121,-0.056 -0.059,0 -0.102,0.022 -0.131,0.065 -0.029,0.043 -0.044,0.11 -0.045,0.2l0.285 0zm0.16 0.188l0.054 0.031c-0.034,0.072 -0.077,0.126 -0.132,0.162 -0.054,0.036 -0.119,0.054 -0.193,0.054 -0.099,0 -0.179,-0.035 -0.241,-0.106 -0.062,-0.07 -0.093,-0.162 -0.093,-0.274 0,-0.113 0.031,-0.205 0.093,-0.275 0.062,-0.07 0.142,-0.106 0.241,-0.106 0.1,0 0.179,0.033 0.238,0.098 0.059,0.065 0.088,0.153 0.088,0.264 0,0.003 -0,0.008 -0.001,0.015 -0,0.007 -0.001,0.012 -0.001,0.016l-0.501 0c0,0.004 -0,0.009 -0.001,0.015 -0,0.006 -0.001,0.011 -0.001,0.014 0,0.079 0.019,0.142 0.056,0.189 0.037,0.046 0.087,0.07 0.149,0.07 0.053,0 0.1,-0.014 0.141,-0.041 0.041,-0.028 0.075,-0.069 0.103,-0.125zm0.767 0.024c-0.029,0.078 -0.067,0.134 -0.113,0.17 -0.046,0.036 -0.105,0.053 -0.176,0.053 -0.099,0 -0.179,-0.034 -0.241,-0.102 -0.062,-0.068 -0.093,-0.157 -0.093,-0.266 0,-0.118 0.033,-0.213 0.098,-0.285 0.066,-0.072 0.152,-0.108 0.259,-0.108 0.071,0 0.13,0.017 0.177,0.051 0.047,0.034 0.07,0.076 0.07,0.126 0,0.034 -0.009,0.06 -0.028,0.08 -0.019,0.02 -0.044,0.03 -0.075,0.03 -0.027,0 -0.048,-0.008 -0.065,-0.024 -0.017,-0.016 -0.026,-0.036 -0.026,-0.061 0,-0.023 0.008,-0.043 0.024,-0.06 0.016,-0.017 0.024,-0.027 0.024,-0.03 0,-0.015 -0.01,-0.027 -0.03,-0.037 -0.02,-0.009 -0.046,-0.014 -0.078,-0.014 -0.064,0 -0.111,0.026 -0.144,0.077 -0.032,0.051 -0.048,0.128 -0.048,0.231 0,0.1 0.018,0.175 0.053,0.224 0.035,0.049 0.089,0.074 0.16,0.074 0.046,0 0.084,-0.013 0.116,-0.038 0.032,-0.026 0.059,-0.065 0.08,-0.119l0.056 0.028zm0.329 -0.221l0.151 0c0.096,0 0.17,0.018 0.22,0.053 0.05,0.035 0.076,0.086 0.076,0.153 0,0.07 -0.023,0.123 -0.07,0.16 -0.046,0.036 -0.115,0.054 -0.204,0.054l-0.436 0 0 -0.065 0.07 -0.003c0.022,-0.001 0.036,-0.005 0.043,-0.012 0.007,-0.007 0.01,-0.022 0.01,-0.045l0 -0.463c0,-0.022 -0.003,-0.037 -0.01,-0.045 -0.007,-0.007 -0.021,-0.011 -0.042,-0.012l-0.071 -0.003 0 -0.065 0.386 0 0 0.065 -0.071 0.003c-0.022,0.001 -0.036,0.005 -0.042,0.012 -0.006,0.007 -0.01,0.022 -0.01,0.045l0 0.168zm0 0.065l0 0.233c0,0.023 0.004,0.038 0.011,0.046 0.007,0.007 0.021,0.011 0.041,0.011l0.06 0c0.063,0 0.108,-0.011 0.136,-0.032 0.027,-0.022 0.041,-0.056 0.041,-0.104 0,-0.057 -0.016,-0.096 -0.047,-0.119 -0.031,-0.023 -0.087,-0.035 -0.167,-0.035l-0.075 0z"/>
  <path class="fil0" d="M5.687 0.689l-0.182 -0.446 -0.176 0.446 0.358 0zm-0.169 -0.689l0.06 0 0.392 0.979c0.013,0.031 0.025,0.051 0.038,0.061 0.013,0.01 0.035,0.015 0.067,0.015l0.032 0 0 0.074 -0.46 0 0 -0.074 0.069 0c0.032,0 0.053,-0.003 0.065,-0.009 0.012,-0.006 0.018,-0.017 0.018,-0.032 0,-0.006 -0.001,-0.013 -0.003,-0.021 -0.002,-0.008 -0.006,-0.019 -0.011,-0.032l-0.07 -0.194 -0.414 0 -0.047 0.119c-0.006,0.016 -0.011,0.034 -0.015,0.051 -0.004,0.017 -0.006,0.03 -0.006,0.038 0,0.027 0.009,0.046 0.027,0.059 0.018,0.013 0.047,0.019 0.085,0.019l0.038 0 0 0.074 -0.397 0 0 -0.074 0.013 0c0.041,0 0.073,-0.009 0.094,-0.026 0.022,-0.017 0.043,-0.052 0.064,-0.103l0.361 -0.925zm0.759 1.128l0 -0.065 0.07 -0.003c0.022,-0.001 0.036,-0.005 0.042,-0.012 0.007,-0.007 0.01,-0.022 0.01,-0.045l0 -0.483c0,-0.015 -0.004,-0.026 -0.012,-0.033 -0.008,-0.007 -0.021,-0.01 -0.038,-0.01 -0.055,0 -0.095,0.015 -0.119,0.046 -0.024,0.031 -0.044,0.09 -0.06,0.18l-0.049 0 0.014 -0.287 0.669 0 0.016 0.287 -0.051 0c-0.016,-0.091 -0.037,-0.151 -0.061,-0.181 -0.024,-0.03 -0.063,-0.045 -0.117,-0.045 -0.019,0 -0.032,0.004 -0.04,0.012 -0.007,0.008 -0.011,0.022 -0.011,0.042l0 0.472c0,0.022 0.003,0.037 0.01,0.045 0.007,0.007 0.021,0.011 0.042,0.012l0.07 0.003 0 0.065 -0.386 0zm1.102 -0.383c-0.114,0.015 -0.198,0.038 -0.25,0.07 -0.052,0.032 -0.078,0.074 -0.078,0.128 0,0.042 0.01,0.074 0.03,0.094 0.02,0.02 0.05,0.031 0.091,0.031 0.063,0 0.114,-0.019 0.151,-0.059 0.037,-0.039 0.055,-0.093 0.055,-0.163l0 -0.101zm0.009 0.285c-0.027,0.036 -0.067,0.066 -0.117,0.089 -0.05,0.023 -0.103,0.034 -0.158,0.034 -0.064,0 -0.115,-0.017 -0.154,-0.052 -0.039,-0.034 -0.058,-0.08 -0.058,-0.136 0,-0.074 0.037,-0.133 0.111,-0.178 0.074,-0.044 0.197,-0.08 0.367,-0.108l0 -0.11c0,-0.035 -0.014,-0.063 -0.043,-0.082 -0.028,-0.019 -0.069,-0.029 -0.122,-0.029 -0.04,0 -0.074,0.005 -0.099,0.016 -0.026,0.011 -0.038,0.024 -0.038,0.039 0,0.003 0.006,0.013 0.018,0.03 0.012,0.016 0.018,0.035 0.018,0.055 0,0.024 -0.007,0.043 -0.022,0.057 -0.014,0.014 -0.034,0.021 -0.058,0.021 -0.028,0 -0.051,-0.008 -0.067,-0.023 -0.016,-0.015 -0.024,-0.037 -0.024,-0.065 0,-0.056 0.028,-0.103 0.083,-0.141 0.056,-0.037 0.127,-0.056 0.213,-0.056 0.098,0 0.17,0.018 0.214,0.053 0.045,0.035 0.067,0.093 0.067,0.173l0 0.001 0 0.364c0,0.02 0.005,0.036 0.015,0.047 0.01,0.011 0.024,0.016 0.042,0.016 0.011,0 0.024,-0.003 0.037,-0.011 0.014,-0.007 0.023,-0.011 0.026,-0.011 0.006,0 0.011,0.002 0.015,0.007 0.004,0.005 0.006,0.011 0.006,0.018 0,0.021 -0.015,0.041 -0.044,0.062 -0.029,0.021 -0.062,0.031 -0.099,0.031 -0.036,0 -0.065,-0.01 -0.088,-0.03 -0.023,-0.02 -0.037,-0.048 -0.043,-0.084zm0.938 -0.1c-0.029,0.078 -0.067,0.134 -0.113,0.17 -0.046,0.036 -0.105,0.053 -0.176,0.053 -0.099,0 -0.179,-0.034 -0.241,-0.102 -0.062,-0.068 -0.093,-0.157 -0.093,-0.266 0,-0.118 0.033,-0.213 0.098,-0.285 0.066,-0.072 0.152,-0.108 0.259,-0.108 0.071,0 0.13,0.017 0.177,0.051 0.047,0.034 0.07,0.076 0.07,0.126 0,0.034 -0.009,0.06 -0.028,0.08 -0.019,0.02 -0.044,0.03 -0.075,0.03 -0.027,0 -0.048,-0.008 -0.065,-0.024 -0.017,-0.016 -0.026,-0.036 -0.026,-0.061 0,-0.023 0.008,-0.043 0.024,-0.06 0.016,-0.017 0.024,-0.027 0.024,-0.03 0,-0.015 -0.01,-0.027 -0.03,-0.037 -0.02,-0.009 -0.046,-0.014 -0.078,-0.014 -0.064,0 -0.111,0.026 -0.144,0.077 -0.032,0.051 -0.048,0.128 -0.048,0.231 0,0.1 0.018,0.175 0.053,0.224 0.035,0.049 0.089,0.074 0.16,0.074 0.046,0 0.084,-0.013 0.116,-0.038 0.032,-0.026 0.059,-0.065 0.08,-0.119l0.056 0.028z"/>
  <path class="fil0" d="M1.601 10.726l-0.182 -0.446 -0.176 0.446 0.358 0zm-0.169 -0.689l0.06 0 0.392 0.979c0.013,0.031 0.025,0.051 0.038,0.061 0.013,0.01 0.035,0.015 0.067,0.015l0.032 0 0 0.074 -0.46 0 0 -0.074 0.069 0c0.032,0 0.053,-0.003 0.065,-0.009 0.012,-0.006 0.018,-0.017 0.018,-0.032 0,-0.006 -0.001,-0.013 -0.003,-0.021 -0.002,-0.008 -0.006,-0.019 -0.011,-0.032l-0.07 -0.194 -0.414 0 -0.047 0.119c-0.006,0.016 -0.011,0.034 -0.015,0.051 -0.004,0.017 -0.006,0.03 -0.006,0.038 0,0.027 0.009,0.046 0.027,0.059 0.018,0.013 0.047,0.019 0.085,0.019l0.038 0 0 0.074 -0.397 0 0 -0.074 0.013 0c0.041,0 0.073,-0.009 0.094,-0.026 0.022,-0.017 0.043,-0.052 0.064,-0.103l0.361 -0.925zm1.041 1.07c0.063,0 0.109,-0.024 0.139,-0.071 0.03,-0.047 0.045,-0.121 0.045,-0.223 0,-0.102 -0.014,-0.177 -0.043,-0.224 -0.028,-0.047 -0.073,-0.071 -0.134,-0.071 -0.067,0 -0.116,0.023 -0.147,0.069 -0.031,0.046 -0.046,0.121 -0.046,0.226 0,0.103 0.015,0.178 0.044,0.224 0.029,0.046 0.076,0.069 0.141,0.069zm-0.443 0.314l0.066 -0.003c0.022,-0.001 0.036,-0.005 0.042,-0.012 0.006,-0.007 0.009,-0.022 0.009,-0.044l0 -0.778c0,-0.026 -0.005,-0.044 -0.015,-0.052 -0.01,-0.008 -0.032,-0.012 -0.065,-0.012l-0.017 0c0,0 -0.001,0 -0.002,0 -0.007,0.001 -0.012,0.002 -0.017,0.002l0 -0.066 0.249 -0.019 0 0.132c0.028,-0.047 0.062,-0.082 0.099,-0.105 0.037,-0.023 0.08,-0.035 0.127,-0.035 0.09,0 0.164,0.036 0.222,0.107 0.059,0.072 0.088,0.163 0.088,0.274 0,0.11 -0.03,0.201 -0.09,0.273 -0.06,0.072 -0.135,0.108 -0.223,0.108 -0.047,0 -0.087,-0.009 -0.12,-0.026 -0.033,-0.017 -0.064,-0.046 -0.094,-0.085l0 0.281c0,0.022 0.003,0.036 0.01,0.043 0.007,0.007 0.021,0.011 0.043,0.012l0.064 0.003 0 0.065 -0.375 0 0 -0.065zm1.218 -0.928c-0.059,0 -0.102,0.026 -0.132,0.079 -0.029,0.053 -0.044,0.132 -0.044,0.239 0,0.107 0.015,0.187 0.044,0.239 0.029,0.053 0.074,0.079 0.134,0.079 0.058,0 0.101,-0.026 0.13,-0.079 0.029,-0.053 0.043,-0.132 0.043,-0.239 0,-0.108 -0.014,-0.188 -0.043,-0.24 -0.029,-0.052 -0.073,-0.078 -0.133,-0.078zm0.253 -0.463l0.055 0c-0.006,0.123 -0.082,0.199 -0.227,0.226 -0.021,0.004 -0.037,0.007 -0.048,0.009 -0.096,0.019 -0.165,0.052 -0.205,0.098 -0.041,0.046 -0.071,0.126 -0.092,0.238 0.03,-0.057 0.069,-0.099 0.115,-0.128 0.046,-0.029 0.099,-0.044 0.158,-0.044 0.095,0 0.172,0.036 0.234,0.108 0.061,0.072 0.092,0.163 0.092,0.274 0,0.111 -0.032,0.202 -0.095,0.273 -0.064,0.071 -0.144,0.107 -0.24,0.107 -0.107,0 -0.189,-0.038 -0.247,-0.116 -0.058,-0.077 -0.087,-0.187 -0.087,-0.33 0,-0.166 0.026,-0.301 0.077,-0.403 0.051,-0.102 0.126,-0.168 0.224,-0.199 0.033,-0.01 0.079,-0.019 0.137,-0.028 0.092,-0.015 0.142,-0.043 0.149,-0.085zm0.625 0.726c0.021,0 0.035,-0.004 0.043,-0.011 0.007,-0.007 0.011,-0.02 0.011,-0.038 0,-0.069 -0.014,-0.123 -0.042,-0.16 -0.028,-0.037 -0.068,-0.056 -0.121,-0.056 -0.059,0 -0.102,0.022 -0.131,0.065 -0.029,0.043 -0.044,0.11 -0.045,0.2l0.285 0zm0.16 0.188l0.054 0.031c-0.034,0.072 -0.077,0.126 -0.132,0.162 -0.054,0.036 -0.119,0.054 -0.193,0.054 -0.099,0 -0.179,-0.035 -0.241,-0.106 -0.062,-0.07 -0.093,-0.162 -0.093,-0.274 0,-0.113 0.031,-0.205 0.093,-0.275 0.062,-0.07 0.142,-0.106 0.241,-0.106 0.1,0 0.179,0.033 0.238,0.098 0.059,0.065 0.088,0.153 0.088,0.264 0,0.003 -0,0.008 -0.001,0.015 -0,0.007 -0.001,0.012 -0.001,0.016l-0.501 0c0,0.004 -0,0.009 -0.001,0.015 -0,0.006 -0.001,0.011 -0.001,0.014 0,0.079 0.019,0.142 0.056,0.189 0.037,0.046 0.087,0.07 0.149,0.07 0.053,0 0.1,-0.014 0.141,-0.041 0.041,-0.028 0.075,-0.069 0.103,-0.125zm0.565 0.164c0.063,0 0.109,-0.024 0.139,-0.071 0.03,-0.047 0.045,-0.121 0.045,-0.223 0,-0.102 -0.014,-0.177 -0.043,-0.224 -0.028,-0.047 -0.073,-0.071 -0.134,-0.071 -0.067,0 -0.116,0.023 -0.147,0.069 -0.03,0.046 -0.046,0.121 -0.046,0.226 0,0.103 0.015,0.178 0.044,0.224 0.029,0.046 0.076,0.069 0.141,0.069zm-0.443 0.314l0.066 -0.003c0.022,-0.001 0.036,-0.005 0.042,-0.012 0.006,-0.007 0.01,-0.022 0.01,-0.044l0 -0.778c0,-0.026 -0.005,-0.044 -0.015,-0.052 -0.01,-0.008 -0.032,-0.012 -0.065,-0.012l-0.017 0c0,0 -0.001,0 -0.002,0 -0.007,0.001 -0.012,0.002 -0.017,0.002l0 -0.066 0.249 -0.019 0 0.132c0.028,-0.047 0.061,-0.082 0.099,-0.105 0.037,-0.023 0.08,-0.035 0.127,-0.035 0.09,0 0.164,0.036 0.222,0.107 0.059,0.072 0.088,0.163 0.088,0.274 0,0.11 -0.03,0.201 -0.09,0.273 -0.06,0.072 -0.135,0.108 -0.223,0.108 -0.047,0 -0.087,-0.009 -0.12,-0.026 -0.033,-0.017 -0.064,-0.046 -0.094,-0.085l0 0.281c0,0.022 0.003,0.036 0.01,0.043 0.007,0.007 0.021,0.011 0.043,0.012l0.064 0.003 0 0.065 -0.375 0 0 -0.065zm1.457 -0.842c0,-0.022 -0.003,-0.037 -0.01,-0.045 -0.007,-0.007 -0.021,-0.011 -0.042,-0.012l-0.071 -0.003 0 -0.065 0.384 0 0 0.065 -0.07 0.003c-0.022,0.001 -0.036,0.005 -0.042,0.012 -0.006,0.007 -0.01,0.022 -0.01,0.045l0 0.463c0,0.022 0.003,0.037 0.01,0.045 0.007,0.007 0.021,0.011 0.042,0.012l0.069 0.003 0 0.065 -0.384 0 0 -0.065 0.07 -0.003c0.022,-0.001 0.036,-0.005 0.043,-0.012 0.006,-0.007 0.01,-0.022 0.01,-0.045l0 -0.345 -0.32 0.331 0 0.018c0,0.02 0.003,0.034 0.01,0.04 0.007,0.007 0.021,0.011 0.042,0.012l0.07 0.003 0 0.065 -0.384 0 0 -0.065 0.07 -0.003c0.021,-0.001 0.035,-0.005 0.041,-0.012 0.006,-0.007 0.01,-0.022 0.01,-0.045l0 -0.463c0,-0.023 -0.003,-0.038 -0.01,-0.045 -0.006,-0.007 -0.02,-0.011 -0.04,-0.012l-0.071 -0.003 0 -0.065 0.384 0 0 0.065 -0.07 0.003c-0.021,0.001 -0.035,0.005 -0.041,0.012 -0.006,0.007 -0.01,0.022 -0.01,0.045l0 0.351 0.32 -0.331 0 -0.02z"/>
  <path class="fil0" d="M1.034 3.351l-0.182 -0.446 -0.176 0.446 0.358 0zm-0.169 -0.689l0.06 0 0.392 0.979c0.013,0.031 0.025,0.051 0.038,0.061 0.013,0.01 0.035,0.015 0.067,0.015l0.032 0 0 0.074 -0.46 0 0 -0.074 0.069 0c0.032,0 0.053,-0.003 0.065,-0.009 0.012,-0.006 0.018,-0.017 0.018,-0.032 0,-0.006 -0.001,-0.013 -0.003,-0.021 -0.002,-0.008 -0.006,-0.019 -0.011,-0.032l-0.07 -0.194 -0.414 0 -0.047 0.119c-0.006,0.016 -0.011,0.034 -0.015,0.051 -0.004,0.017 -0.006,0.03 -0.006,0.038 0,0.027 0.009,0.046 0.027,0.059 0.018,0.013 0.047,0.019 0.085,0.019l0.038 0 0 0.074 -0.397 0 0 -0.074 0.013 0c0.041,0 0.073,-0.009 0.094,-0.026 0.022,-0.017 0.043,-0.052 0.064,-0.103l0.361 -0.925zm1.041 1.07c0.063,0 0.109,-0.024 0.139,-0.071 0.03,-0.047 0.045,-0.121 0.045,-0.223 0,-0.102 -0.014,-0.177 -0.043,-0.224 -0.028,-0.047 -0.073,-0.071 -0.134,-0.071 -0.067,0 -0.116,0.023 -0.147,0.069 -0.031,0.046 -0.046,0.121 -0.046,0.226 0,0.103 0.015,0.178 0.044,0.224 0.029,0.046 0.076,0.069 0.141,0.069zm-0.443 0.314l0.066 -0.003c0.022,-0.001 0.036,-0.005 0.042,-0.012 0.006,-0.007 0.009,-0.022 0.009,-0.044l0 -0.778c0,-0.026 -0.005,-0.044 -0.015,-0.052 -0.01,-0.008 -0.032,-0.012 -0.065,-0.012l-0.017 0c0,0 -0.001,0 -0.002,0 -0.007,0.001 -0.012,0.002 -0.017,0.002l0 -0.066 0.249 -0.019 0 0.132c0.028,-0.047 0.062,-0.082 0.099,-0.105 0.037,-0.023 0.08,-0.035 0.127,-0.035 0.09,0 0.164,0.036 0.222,0.107 0.059,0.072 0.088,0.163 0.088,0.274 0,0.11 -0.03,0.201 -0.09,0.273 -0.06,0.072 -0.135,0.108 -0.223,0.108 -0.047,0 -0.087,-0.009 -0.12,-0.026 -0.033,-0.017 -0.064,-0.046 -0.094,-0.085l0 0.281c0,0.022 0.003,0.036 0.01,0.043 0.007,0.007 0.021,0.011 0.043,0.012l0.064 0.003 0 0.065 -0.375 0 0 -0.065zm0.884 -0.255l0 -0.065 0.07 -0.003c0.022,-0.001 0.036,-0.005 0.043,-0.012 0.007,-0.007 0.01,-0.022 0.01,-0.045l0 -0.462c0,-0.023 -0.003,-0.037 -0.01,-0.045 -0.007,-0.007 -0.021,-0.011 -0.042,-0.012l-0.071 -0.003 0 -0.065 0.589 0 0.014 0.252 -0.058 0c-0.012,-0.068 -0.034,-0.116 -0.064,-0.144 -0.031,-0.028 -0.077,-0.042 -0.139,-0.042 -0.033,0 -0.054,0.003 -0.064,0.01 -0.01,0.007 -0.015,0.023 -0.015,0.048l0 0.462c0,0.023 0.003,0.038 0.01,0.045 0.007,0.007 0.021,0.011 0.042,0.012l0.07 0.003 0 0.065 -0.386 0zm1.153 -0.383c-0.114,0.015 -0.198,0.038 -0.25,0.07 -0.052,0.032 -0.078,0.074 -0.078,0.128 0,0.042 0.01,0.074 0.03,0.094 0.02,0.02 0.05,0.031 0.091,0.031 0.063,0 0.114,-0.019 0.151,-0.059 0.037,-0.039 0.055,-0.093 0.055,-0.163l0 -0.101zm0.009 0.285c-0.027,0.036 -0.067,0.066 -0.117,0.089 -0.05,0.023 -0.103,0.034 -0.158,0.034 -0.064,0 -0.115,-0.017 -0.154,-0.052 -0.039,-0.034 -0.058,-0.08 -0.058,-0.136 0,-0.074 0.037,-0.133 0.111,-0.178 0.074,-0.044 0.197,-0.08 0.367,-0.108l0 -0.11c0,-0.035 -0.014,-0.063 -0.043,-0.082 -0.028,-0.019 -0.069,-0.029 -0.122,-0.029 -0.04,0 -0.074,0.005 -0.099,0.016 -0.026,0.011 -0.038,0.024 -0.038,0.039 0,0.003 0.006,0.013 0.018,0.03 0.012,0.016 0.018,0.035 0.018,0.055 0,0.024 -0.007,0.043 -0.022,0.057 -0.014,0.014 -0.034,0.021 -0.058,0.021 -0.028,0 -0.051,-0.008 -0.067,-0.023 -0.016,-0.015 -0.024,-0.037 -0.024,-0.065 0,-0.056 0.028,-0.103 0.083,-0.141 0.056,-0.037 0.127,-0.056 0.213,-0.056 0.098,0 0.17,0.018 0.214,0.053 0.045,0.035 0.067,0.093 0.067,0.173l0 0.001 0 0.364c0,0.02 0.005,0.036 0.015,0.047 0.01,0.011 0.024,0.016 0.042,0.016 0.011,0 0.024,-0.003 0.037,-0.011 0.014,-0.007 0.023,-0.011 0.026,-0.011 0.006,0 0.011,0.002 0.015,0.007 0.004,0.005 0.006,0.011 0.006,0.018 0,0.021 -0.015,0.041 -0.044,0.062 -0.029,0.021 -0.062,0.031 -0.099,0.031 -0.036,0 -0.065,-0.01 -0.088,-0.03 -0.023,-0.02 -0.037,-0.048 -0.043,-0.084zm0.889 -0.489c0,-0.023 -0.003,-0.038 -0.01,-0.045 -0.007,-0.007 -0.021,-0.011 -0.042,-0.012l-0.071 -0.003 0 -0.065 0.384 0 0 0.065 -0.07 0.003c-0.022,0.001 -0.036,0.005 -0.042,0.012 -0.006,0.007 -0.01,0.022 -0.01,0.045l0 0.462c0,0.023 0.003,0.037 0.01,0.045 0.007,0.007 0.021,0.011 0.042,0.012l0.069 0.003 0 0.065 -0.384 0 0 -0.065 0.07 -0.003c0.022,-0.001 0.036,-0.005 0.043,-0.012 0.006,-0.007 0.01,-0.022 0.01,-0.045l0 -0.214 -0.32 0 0 0.214c0,0.023 0.003,0.038 0.01,0.045 0.006,0.007 0.021,0.011 0.042,0.012l0.07 0.003 0 0.065 -0.384 0 0 -0.065 0.07 -0.003c0.021,-0.001 0.035,-0.005 0.041,-0.012 0.006,-0.007 0.01,-0.022 0.01,-0.045l0 -0.462c0,-0.023 -0.003,-0.038 -0.01,-0.045 -0.006,-0.007 -0.02,-0.011 -0.04,-0.012l-0.071 -0.003 0 -0.065 0.384 0 0 0.065 -0.07 0.003c-0.021,0.001 -0.035,0.005 -0.041,0.012 -0.006,0.007 -0.01,0.022 -0.01,0.045l0 0.181 0.32 0 0 -0.181z"/>
  <path class="fil0" d="M11.656 0.83l-0.182 -0.446 -0.176 0.446 0.358 0zm-0.169 -0.689l0.06 0 0.392 0.979c0.013,0.031 0.025,0.051 0.038,0.061 0.013,0.01 0.035,0.015 0.067,0.015l0.032 0 0 0.074 -0.46 0 0 -0.074 0.069 0c0.032,0 0.053,-0.003 0.065,-0.009 0.012,-0.006 0.018,-0.017 0.018,-0.032 0,-0.006 -0.001,-0.013 -0.003,-0.021 -0.002,-0.008 -0.006,-0.019 -0.011,-0.032l-0.07 -0.194 -0.414 0 -0.047 0.119c-0.006,0.016 -0.011,0.034 -0.015,0.051 -0.004,0.017 -0.006,0.03 -0.006,0.038 0,0.027 0.009,0.046 0.027,0.059 0.018,0.013 0.047,0.019 0.085,0.019l0.038 0 0 0.074 -0.397 0 0 -0.074 0.013 0c0.041,0 0.073,-0.009 0.094,-0.026 0.022,-0.017 0.043,-0.052 0.064,-0.103l0.361 -0.925zm1.041 1.07c0.063,0 0.109,-0.024 0.139,-0.071 0.03,-0.047 0.045,-0.121 0.045,-0.223 0,-0.102 -0.014,-0.177 -0.043,-0.224 -0.028,-0.047 -0.073,-0.071 -0.134,-0.071 -0.067,0 -0.116,0.023 -0.147,0.069 -0.031,0.046 -0.046,0.121 -0.046,0.226 0,0.103 0.015,0.178 0.044,0.224 0.029,0.046 0.076,0.069 0.141,0.069zm-0.443 0.314l0.066 -0.003c0.022,-0.001 0.036,-0.005 0.042,-0.012 0.006,-0.007 0.009,-0.022 0.009,-0.044l0 -0.778c0,-0.026 -0.005,-0.044 -0.015,-0.052 -0.01,-0.008 -0.032,-0.012 -0.065,-0.012l-0.017 0c0,0 -0.001,0 -0.002,0 -0.007,0.001 -0.012,0.002 -0.017,0.002l0 -0.066 0.249 -0.019 0 0.132c0.028,-0.047 0.062,-0.082 0.099,-0.105 0.037,-0.023 0.08,-0.035 0.127,-0.035 0.09,0 0.164,0.036 0.222,0.107 0.059,0.072 0.088,0.163 0.088,0.274 0,0.11 -0.03,0.201 -0.09,0.273 -0.06,0.072 -0.135,0.108 -0.223,0.108 -0.047,0 -0.087,-0.009 -0.12,-0.026 -0.033,-0.017 -0.064,-0.046 -0.094,-0.085l0 0.281c0,0.022 0.003,0.036 0.01,0.043 0.007,0.007 0.021,0.011 0.043,0.012l0.064 0.003 0 0.065 -0.375 0 0 -0.065zm1.364 -0.638c-0.114,0.015 -0.198,0.038 -0.25,0.07 -0.052,0.032 -0.078,0.074 -0.078,0.128 0,0.042 0.01,0.074 0.03,0.094 0.02,0.02 0.05,0.031 0.091,0.031 0.063,0 0.114,-0.019 0.151,-0.059 0.037,-0.039 0.055,-0.093 0.055,-0.163l0 -0.101zm0.009 0.285c-0.027,0.036 -0.067,0.066 -0.117,0.089 -0.05,0.023 -0.103,0.034 -0.158,0.034 -0.064,0 -0.115,-0.017 -0.154,-0.052 -0.039,-0.034 -0.058,-0.08 -0.058,-0.136 0,-0.074 0.037,-0.133 0.111,-0.178 0.074,-0.044 0.197,-0.08 0.367,-0.108l0 -0.11c0,-0.035 -0.014,-0.063 -0.043,-0.082 -0.028,-0.019 -0.069,-0.029 -0.122,-0.029 -0.04,0 -0.074,0.005 -0.099,0.016 -0.026,0.011 -0.038,0.024 -0.038,0.039 0,0.003 0.006,0.013 0.018,0.03 0.012,0.016 0.018,0.035 0.018,0.055 0,0.024 -0.007,0.043 -0.022,0.057 -0.014,0.014 -0.034,0.021 -0.058,0.021 -0.028,0 -0.051,-0.008 -0.067,-0.023 -0.016,-0.015 -0.024,-0.037 -0.024,-0.065 0,-0.056 0.028,-0.103 0.083,-0.141 0.056,-0.037 0.127,-0.056 0.213,-0.056 0.098,0 0.17,0.018 0.214,0.053 0.045,0.035 0.067,0.093 0.067,0.173l0 0.001 0 0.364c0,0.02 0.005,0.036 0.015,0.047 0.01,0.011 0.024,0.016 0.042,0.016 0.011,0 0.024,-0.003 0.037,-0.011 0.014,-0.007 0.023,-0.011 0.026,-0.011 0.006,0 0.011,0.002 0.015,0.007 0.004,0.005 0.006,0.011 0.006,0.018 0,0.021 -0.015,0.041 -0.044,0.062 -0.029,0.021 -0.062,0.031 -0.099,0.031 -0.036,0 -0.065,-0.01 -0.088,-0.03 -0.023,-0.02 -0.037,-0.048 -0.043,-0.084zm0.286 0.098l0 -0.065 0.07 -0.003c0.022,-0.001 0.036,-0.005 0.043,-0.012 0.006,-0.007 0.01,-0.022 0.01,-0.045l0 -0.463c0,-0.022 -0.003,-0.037 -0.01,-0.045 -0.007,-0.007 -0.021,-0.011 -0.042,-0.012l-0.071 -0.003 0 -0.065 0.283 0 0.196 0.53 0.188 -0.53 0.293 0 0 0.065 -0.071 0.003c-0.022,0.001 -0.036,0.005 -0.042,0.012 -0.006,0.007 -0.01,0.022 -0.01,0.045l0 0.463c0,0.022 0.003,0.037 0.01,0.045 0.007,0.007 0.021,0.011 0.042,0.012l0.07 0.003 0 0.065 -0.378 0 0 -0.065 0.07 -0.003c0.022,-0.001 0.036,-0.005 0.043,-0.012 0.007,-0.007 0.01,-0.022 0.01,-0.045l0 -0.517 -0.23 0.641 -0.053 0 -0.241 -0.641 0 0.517c0,0.022 0.003,0.037 0.01,0.045 0.007,0.007 0.021,0.011 0.042,0.012l0.07 0.003 0 0.065 -0.303 0zm1.539 -0.383c-0.114,0.015 -0.198,0.038 -0.25,0.07 -0.052,0.032 -0.078,0.074 -0.078,0.128 0,0.042 0.01,0.074 0.03,0.094 0.02,0.02 0.05,0.031 0.091,0.031 0.063,0 0.114,-0.019 0.151,-0.059 0.037,-0.039 0.055,-0.093 0.055,-0.163l0 -0.101zm0.009 0.285c-0.027,0.036 -0.067,0.066 -0.117,0.089 -0.05,0.023 -0.103,0.034 -0.158,0.034 -0.064,0 -0.115,-0.017 -0.154,-0.052 -0.039,-0.034 -0.058,-0.08 -0.058,-0.136 0,-0.074 0.037,-0.133 0.111,-0.178 0.074,-0.044 0.197,-0.08 0.367,-0.108l0 -0.11c0,-0.035 -0.014,-0.063 -0.043,-0.082 -0.028,-0.019 -0.069,-0.029 -0.122,-0.029 -0.04,0 -0.074,0.005 -0.099,0.016 -0.026,0.011 -0.038,0.024 -0.038,0.039 0,0.003 0.006,0.013 0.018,0.03 0.012,0.016 0.018,0.035 0.018,0.055 0,0.024 -0.007,0.043 -0.022,0.057 -0.014,0.014 -0.034,0.021 -0.058,0.021 -0.028,0 -0.051,-0.008 -0.067,-0.023 -0.016,-0.015 -0.024,-0.037 -0.024,-0.065 0,-0.056 0.028,-0.103 0.083,-0.141 0.056,-0.037 0.127,-0.056 0.213,-0.056 0.098,0 0.17,0.018 0.214,0.053 0.045,0.035 0.067,0.093 0.067,0.173l0 0.001 0 0.364c0,0.02 0.005,0.036 0.015,0.047 0.01,0.011 0.024,0.016 0.042,0.016 0.011,0 0.024,-0.003 0.037,-0.011 0.014,-0.007 0.023,-0.011 0.026,-0.011 0.006,0 0.011,0.002 0.015,0.007 0.004,0.005 0.006,0.011 0.006,0.018 0,0.021 -0.015,0.041 -0.044,0.062 -0.029,0.021 -0.062,0.031 -0.099,0.031 -0.036,0 -0.065,-0.01 -0.088,-0.03 -0.023,-0.02 -0.037,-0.048 -0.043,-0.084z"/>
  <path class="fil0" d="M16.69 10.976l-0.182 -0.446 -0.176 0.446 0.358 0zm-0.169 -0.689l0.06 0 0.392 0.979c0.013,0.031 0.025,0.051 0.038,0.061 0.013,0.01 0.035,0.015 0.067,0.015l0.032 0 0 0.074 -0.46 0 0 -0.074 0.069 0c0.032,0 0.053,-0.003 0.065,-0.009 0.012,-0.006 0.018,-0.017 0.018,-0.032 0,-0.006 -0.001,-0.013 -0.003,-0.021 -0.002,-0.008 -0.006,-0.019 -0.011,-0.032l-0.07 -0.194 -0.414 0 -0.047 0.119c-0.006,0.016 -0.011,0.034 -0.015,0.051 -0.004,0.017 -0.006,0.03 -0.006,0.038 0,0.027 0.009,0.046 0.027,0.059 0.018,0.013 0.047,0.019 0.085,0.019l0.038 0 0 0.074 -0.397 0 0 -0.074 0.013 0c0.041,0 0.073,-0.009 0.094,-0.026 0.022,-0.017 0.043,-0.052 0.064,-0.103l0.361 -0.925zm1.041 1.07c0.063,0 0.109,-0.024 0.139,-0.071 0.03,-0.047 0.045,-0.121 0.045,-0.223 0,-0.102 -0.014,-0.177 -0.043,-0.224 -0.028,-0.047 -0.073,-0.071 -0.134,-0.071 -0.067,0 -0.116,0.023 -0.147,0.069 -0.031,0.046 -0.046,0.121 -0.046,0.226 0,0.103 0.015,0.178 0.044,0.224 0.029,0.046 0.076,0.069 0.141,0.069zm-0.443 0.314l0.066 -0.003c0.022,-0.001 0.036,-0.005 0.042,-0.012 0.006,-0.007 0.009,-0.022 0.009,-0.044l0 -0.778c0,-0.026 -0.005,-0.044 -0.015,-0.052 -0.01,-0.008 -0.032,-0.012 -0.065,-0.012l-0.017 0c0,0 -0.001,0 -0.002,0 -0.007,0.001 -0.012,0.002 -0.017,0.002l0 -0.066 0.249 -0.019 0 0.132c0.028,-0.047 0.062,-0.082 0.099,-0.105 0.037,-0.023 0.08,-0.035 0.127,-0.035 0.09,0 0.164,0.036 0.222,0.107 0.059,0.072 0.088,0.163 0.088,0.274 0,0.11 -0.03,0.201 -0.09,0.273 -0.06,0.072 -0.135,0.108 -0.223,0.108 -0.047,0 -0.087,-0.009 -0.12,-0.026 -0.033,-0.017 -0.064,-0.046 -0.094,-0.085l0 0.281c0,0.022 0.003,0.036 0.01,0.043 0.007,0.007 0.021,0.011 0.043,0.012l0.064 0.003 0 0.065 -0.375 0 0 -0.065z"/>
 </g>
</svg>
