<?xml version="1.0" encoding="UTF-8"?>
<!DOCTYPE svg PUBLIC "-//W3C//DTD SVG 1.1//EN" "http://www.w3.org/Graphics/SVG/1.1/DTD/svg11.dtd">
<!-- Creator: CorelDRAW -->
<svg xmlns="http://www.w3.org/2000/svg" xml:space="preserve" width="80.5397mm" height="55.4017mm" version="1.1" style="shape-rendering:geometricPrecision; text-rendering:geometricPrecision; image-rendering:optimizeQuality; fill-rule:evenodd; clip-rule:evenodd"
viewBox="0 0 154.57 106.33"
 xmlns:xlink="http://www.w3.org/1999/xlink"
 xmlns:xodm="http://www.corel.com/coreldraw/odm/2003">
 <defs>
  <style type="text/css">
   <![CDATA[
    .fil0 {fill:#656551;fill-rule:nonzero}
   ]]>
  </style>
 </defs>
 <g id="Слой_x0020_1">
  <metadata id="CorelCorpID_0Corel-Layer"/>
  <path class="fil0" d="M61.89 97.1l4.4 0 0 6.37 0.65 0 0 2.53 -0.85 0 0 -1.68 -4.78 0 0 1.68 -0.85 0 0 -2.53 0.55 0c0.58,-0.88 0.88,-2.65 0.88,-5.32l0 -1.06zm3.44 0.85l-2.52 0 0 0.37c0,0.62 -0.06,1.46 -0.17,2.52 -0.11,1.07 -0.33,1.94 -0.65,2.63l3.34 0 0 -5.53z"/>
  <path id="_1" class="fil0" d="M67.74 101.7c0,-0.97 0.27,-1.68 0.81,-2.15 0.45,-0.39 1,-0.58 1.65,-0.58 0.72,0 1.31,0.24 1.76,0.71 0.46,0.47 0.68,1.12 0.68,1.95 0,0.67 -0.1,1.2 -0.3,1.58 -0.2,0.38 -0.5,0.68 -0.88,0.9 -0.38,0.21 -0.81,0.32 -1.26,0.32 -0.73,0 -1.32,-0.23 -1.78,-0.7 -0.45,-0.47 -0.68,-1.14 -0.68,-2.03zm0.91 0c0,0.67 0.15,1.17 0.44,1.5 0.29,0.33 0.66,0.5 1.11,0.5 0.44,0 0.81,-0.17 1.1,-0.5 0.29,-0.33 0.44,-0.84 0.44,-1.53 0,-0.65 -0.15,-1.13 -0.44,-1.47 -0.29,-0.33 -0.66,-0.5 -1.1,-0.5 -0.45,0 -0.81,0.16 -1.11,0.5 -0.29,0.33 -0.44,0.83 -0.44,1.5z"/>
  <path id="_2" class="fil0" d="M73.68 106.33l0 -7.24 0.81 0 0 0.69c0.19,-0.27 0.41,-0.47 0.65,-0.6 0.24,-0.13 0.53,-0.2 0.87,-0.2 0.45,0 0.84,0.11 1.18,0.34 0.34,0.23 0.6,0.55 0.77,0.97 0.17,0.42 0.26,0.88 0.26,1.37 0,0.53 -0.1,1.01 -0.29,1.44 -0.19,0.43 -0.47,0.75 -0.84,0.98 -0.36,0.23 -0.75,0.34 -1.15,0.34 -0.3,0 -0.56,-0.06 -0.8,-0.19 -0.24,-0.12 -0.43,-0.28 -0.58,-0.47l0 2.55 -0.89 0zm0.81 -4.59c0,0.67 0.14,1.17 0.41,1.49 0.27,0.32 0.6,0.48 0.99,0.48 0.39,0 0.73,-0.17 1.01,-0.5 0.28,-0.33 0.42,-0.85 0.42,-1.54 0,-0.67 -0.14,-1.16 -0.41,-1.49 -0.27,-0.33 -0.6,-0.5 -0.98,-0.5 -0.38,0 -0.71,0.18 -1,0.53 -0.29,0.35 -0.44,0.86 -0.44,1.54z"/>
  <path id="_3" class="fil0" d="M78.95 101.7c0,-0.97 0.27,-1.68 0.81,-2.15 0.45,-0.39 1,-0.58 1.65,-0.58 0.72,0 1.31,0.24 1.76,0.71 0.46,0.47 0.68,1.12 0.68,1.95 0,0.67 -0.1,1.2 -0.3,1.58 -0.2,0.38 -0.5,0.68 -0.88,0.9 -0.38,0.21 -0.81,0.32 -1.26,0.32 -0.73,0 -1.32,-0.23 -1.78,-0.7 -0.45,-0.47 -0.68,-1.14 -0.68,-2.03zm0.91 0c0,0.67 0.15,1.17 0.44,1.5 0.29,0.33 0.66,0.5 1.11,0.5 0.44,0 0.81,-0.17 1.1,-0.5 0.29,-0.33 0.44,-0.84 0.44,-1.53 0,-0.65 -0.15,-1.13 -0.44,-1.47 -0.29,-0.33 -0.66,-0.5 -1.1,-0.5 -0.45,0 -0.81,0.16 -1.11,0.5 -0.29,0.33 -0.44,0.83 -0.44,1.5z"/>
  <polygon id="_4" class="fil0" points="84.9,99.09 87.91,99.09 87.91,99.82 85.78,99.82 85.78,104.32 84.9,104.32 "/>
  <path id="_5" class="fil0" d="M91.77 103.66c-0.33,0.28 -0.65,0.48 -0.95,0.59 -0.3,0.12 -0.63,0.17 -0.98,0.17 -0.57,0 -1.02,-0.14 -1.33,-0.42 -0.31,-0.28 -0.46,-0.64 -0.46,-1.07 0,-0.26 0.06,-0.49 0.17,-0.7 0.12,-0.21 0.27,-0.38 0.46,-0.51 0.19,-0.13 0.4,-0.23 0.64,-0.29 0.17,-0.05 0.44,-0.09 0.79,-0.13 0.72,-0.08 1.25,-0.19 1.58,-0.3 0,-0.12 0.01,-0.2 0.01,-0.23 0,-0.36 -0.08,-0.61 -0.25,-0.76 -0.23,-0.2 -0.56,-0.3 -1.01,-0.3 -0.42,0 -0.73,0.07 -0.93,0.22 -0.2,0.15 -0.35,0.4 -0.44,0.78l-0.87 -0.12c0.08,-0.37 0.21,-0.67 0.39,-0.9 0.18,-0.23 0.44,-0.4 0.79,-0.53 0.34,-0.12 0.74,-0.18 1.19,-0.18 0.45,0 0.81,0.05 1.09,0.16 0.28,0.11 0.49,0.24 0.62,0.4 0.13,0.16 0.22,0.36 0.28,0.6 0.03,0.15 0.04,0.42 0.04,0.82l0 1.18c0,0.82 0.02,1.34 0.06,1.56 0.04,0.22 0.11,0.43 0.22,0.63l-0.93 0c-0.09,-0.19 -0.15,-0.41 -0.17,-0.66zm-0.07 -1.97c-0.32,0.13 -0.81,0.24 -1.45,0.33 -0.37,0.05 -0.63,0.11 -0.78,0.18 -0.15,0.07 -0.27,0.16 -0.35,0.29 -0.08,0.13 -0.12,0.27 -0.12,0.42 0,0.23 0.09,0.43 0.27,0.59 0.18,0.16 0.44,0.24 0.79,0.24 0.34,0 0.65,-0.07 0.91,-0.22 0.27,-0.15 0.46,-0.35 0.59,-0.61 0.1,-0.2 0.14,-0.49 0.14,-0.88l0.01 -0.32z"/>
  <path class="fil0" d="M61.21 0.01l0.96 0 0 3.17c0.44,0 0.74,-0.09 0.92,-0.26 0.18,-0.17 0.4,-0.58 0.68,-1.22 0.2,-0.48 0.36,-0.81 0.5,-1.01 0.13,-0.2 0.31,-0.36 0.55,-0.49 0.24,-0.13 0.5,-0.2 0.79,-0.2 0.37,0 0.56,0 0.58,0.01l0 0.83c-0.03,0 -0.1,-0 -0.19,-0 -0.11,-0 -0.17,-0 -0.19,-0 -0.3,0 -0.53,0.07 -0.68,0.22 -0.15,0.15 -0.32,0.46 -0.52,0.95 -0.24,0.61 -0.45,1 -0.62,1.16 -0.17,0.16 -0.37,0.29 -0.6,0.38 0.47,0.13 0.93,0.56 1.38,1.29l1.49 2.4 -1.19 0 -1.21 -1.96c-0.33,-0.54 -0.61,-0.92 -0.83,-1.12 -0.22,-0.2 -0.51,-0.3 -0.87,-0.3l0 3.38 -0.96 0 0 -7.22z"/>
  <path id="_1_0" class="fil0" d="M66.62 4.61c0,-0.97 0.27,-1.68 0.81,-2.15 0.45,-0.39 1,-0.58 1.65,-0.58 0.72,0 1.31,0.24 1.76,0.71 0.46,0.47 0.68,1.12 0.68,1.95 0,0.67 -0.1,1.2 -0.3,1.58 -0.2,0.38 -0.5,0.68 -0.88,0.9 -0.38,0.21 -0.81,0.32 -1.26,0.32 -0.73,0 -1.32,-0.23 -1.78,-0.7 -0.45,-0.47 -0.68,-1.14 -0.68,-2.03zm0.91 0c0,0.67 0.15,1.17 0.44,1.5 0.29,0.33 0.66,0.5 1.11,0.5 0.44,0 0.81,-0.17 1.1,-0.5 0.29,-0.33 0.44,-0.84 0.44,-1.53 0,-0.65 -0.15,-1.13 -0.44,-1.47 -0.29,-0.33 -0.66,-0.5 -1.1,-0.5 -0.45,0 -0.81,0.16 -1.11,0.5 -0.29,0.33 -0.44,0.83 -0.44,1.5z"/>
  <path id="_2_1" class="fil0" d="M72.56 9.24l0 -7.24 0.81 0 0 0.69c0.19,-0.27 0.41,-0.47 0.65,-0.6 0.24,-0.13 0.53,-0.2 0.87,-0.2 0.45,0 0.84,0.11 1.18,0.34 0.34,0.23 0.6,0.55 0.77,0.97 0.17,0.42 0.26,0.88 0.26,1.37 0,0.53 -0.1,1.01 -0.29,1.44 -0.19,0.43 -0.47,0.75 -0.84,0.98 -0.36,0.23 -0.75,0.34 -1.15,0.34 -0.3,0 -0.56,-0.06 -0.8,-0.19 -0.24,-0.12 -0.43,-0.28 -0.58,-0.47l0 2.55 -0.89 0zm0.81 -4.59c0,0.67 0.14,1.17 0.41,1.49 0.27,0.32 0.6,0.48 0.99,0.48 0.39,0 0.73,-0.17 1.01,-0.5 0.28,-0.33 0.42,-0.85 0.42,-1.54 0,-0.67 -0.14,-1.16 -0.41,-1.49 -0.27,-0.33 -0.6,-0.5 -0.98,-0.5 -0.38,0 -0.71,0.18 -1,0.53 -0.29,0.35 -0.44,0.86 -0.44,1.54z"/>
  <path id="_3_2" class="fil0" d="M77.84 4.61c0,-0.97 0.27,-1.68 0.81,-2.15 0.45,-0.39 1,-0.58 1.65,-0.58 0.72,0 1.31,0.24 1.76,0.71 0.46,0.47 0.68,1.12 0.68,1.95 0,0.67 -0.1,1.2 -0.3,1.58 -0.2,0.38 -0.5,0.68 -0.88,0.9 -0.38,0.21 -0.81,0.32 -1.26,0.32 -0.73,0 -1.32,-0.23 -1.78,-0.7 -0.45,-0.47 -0.68,-1.14 -0.68,-2.03zm0.91 0c0,0.67 0.15,1.17 0.44,1.5 0.29,0.33 0.66,0.5 1.11,0.5 0.44,0 0.81,-0.17 1.1,-0.5 0.29,-0.33 0.44,-0.84 0.44,-1.53 0,-0.65 -0.15,-1.13 -0.44,-1.47 -0.29,-0.33 -0.66,-0.5 -1.1,-0.5 -0.45,0 -0.81,0.16 -1.11,0.5 -0.29,0.33 -0.44,0.83 -0.44,1.5z"/>
  <path id="_4_3" class="fil0" d="M83.78 2l2.04 0c0.5,0 0.87,0.04 1.12,0.13 0.24,0.08 0.45,0.24 0.63,0.46 0.18,0.23 0.26,0.49 0.26,0.81 0,0.25 -0.05,0.47 -0.15,0.65 -0.1,0.19 -0.26,0.34 -0.47,0.47 0.25,0.08 0.45,0.24 0.61,0.46 0.16,0.22 0.24,0.49 0.24,0.8 -0.03,0.5 -0.21,0.86 -0.53,1.1 -0.32,0.24 -0.79,0.36 -1.4,0.36l-2.35 0 0 -5.23zm0.89 2.21l0.94 0c0.37,0 0.63,-0.02 0.77,-0.06 0.14,-0.04 0.27,-0.12 0.38,-0.24 0.11,-0.12 0.17,-0.26 0.17,-0.43 0,-0.28 -0.1,-0.47 -0.29,-0.58 -0.19,-0.11 -0.53,-0.16 -1,-0.16l-0.97 0 0 1.47zm0 2.3l1.16 0c0.5,0 0.85,-0.06 1.03,-0.17 0.19,-0.12 0.28,-0.32 0.29,-0.61 0,-0.17 -0.05,-0.32 -0.16,-0.47 -0.11,-0.14 -0.25,-0.23 -0.42,-0.27 -0.17,-0.04 -0.45,-0.06 -0.84,-0.06l-1.07 0 0 1.57z"/>
  <path id="_5_4" class="fil0" d="M92.44 6.57c-0.33,0.28 -0.65,0.48 -0.95,0.59 -0.3,0.12 -0.63,0.17 -0.98,0.17 -0.57,0 -1.02,-0.14 -1.33,-0.42 -0.31,-0.28 -0.46,-0.64 -0.46,-1.07 0,-0.26 0.06,-0.49 0.17,-0.7 0.12,-0.21 0.27,-0.38 0.46,-0.51 0.19,-0.13 0.4,-0.23 0.64,-0.29 0.17,-0.05 0.44,-0.09 0.79,-0.13 0.72,-0.08 1.25,-0.19 1.58,-0.3 0,-0.12 0.01,-0.2 0.01,-0.23 0,-0.36 -0.08,-0.61 -0.25,-0.76 -0.23,-0.2 -0.56,-0.3 -1.01,-0.3 -0.42,0 -0.73,0.07 -0.93,0.22 -0.2,0.15 -0.35,0.4 -0.44,0.78l-0.87 -0.12c0.08,-0.37 0.21,-0.67 0.39,-0.9 0.18,-0.23 0.44,-0.4 0.79,-0.53 0.34,-0.12 0.74,-0.18 1.19,-0.18 0.45,0 0.81,0.05 1.09,0.16 0.28,0.11 0.49,0.24 0.62,0.4 0.13,0.16 0.22,0.36 0.28,0.6 0.03,0.15 0.04,0.42 0.04,0.82l0 1.18c0,0.82 0.02,1.34 0.06,1.56 0.04,0.22 0.11,0.43 0.22,0.63l-0.93 0c-0.09,-0.19 -0.15,-0.41 -0.17,-0.66zm-0.07 -1.97c-0.32,0.13 -0.81,0.24 -1.45,0.33 -0.37,0.05 -0.63,0.11 -0.78,0.18 -0.15,0.07 -0.27,0.16 -0.35,0.29 -0.08,0.13 -0.12,0.27 -0.12,0.42 0,0.23 0.09,0.43 0.27,0.59 0.18,0.16 0.44,0.24 0.79,0.24 0.34,0 0.65,-0.07 0.91,-0.22 0.27,-0.15 0.46,-0.35 0.59,-0.61 0.1,-0.2 0.14,-0.49 0.14,-0.88l0.01 -0.32z"/>
  <polygon class="fil0" points="3.1,72.3 4.06,72.3 4.06,78.67 7.81,78.67 7.81,72.3 8.77,72.3 8.77,78.67 9.43,78.67 9.43,81.53 8.58,81.53 8.58,79.52 3.1,79.52 "/>
  <path id="_1_5" class="fil0" d="M10.43 74.29l2.04 0c0.5,0 0.87,0.04 1.12,0.13 0.24,0.08 0.45,0.24 0.63,0.46 0.18,0.23 0.26,0.49 0.26,0.81 0,0.25 -0.05,0.47 -0.15,0.65 -0.1,0.19 -0.26,0.34 -0.47,0.47 0.25,0.08 0.45,0.24 0.61,0.46 0.16,0.22 0.24,0.49 0.24,0.8 -0.03,0.5 -0.21,0.86 -0.53,1.1 -0.32,0.24 -0.79,0.36 -1.4,0.36l-2.35 0 0 -5.23zm0.89 2.21l0.94 0c0.37,0 0.63,-0.02 0.77,-0.06 0.14,-0.04 0.27,-0.12 0.38,-0.24 0.11,-0.12 0.17,-0.26 0.17,-0.43 0,-0.28 -0.1,-0.47 -0.29,-0.58 -0.19,-0.11 -0.53,-0.16 -1,-0.16l-0.97 0 0 1.47zm0 2.3l1.16 0c0.5,0 0.85,-0.06 1.03,-0.17 0.19,-0.12 0.28,-0.32 0.29,-0.61 0,-0.17 -0.05,-0.32 -0.16,-0.47 -0.11,-0.14 -0.25,-0.23 -0.42,-0.27 -0.17,-0.04 -0.45,-0.06 -0.84,-0.06l-1.07 0 0 1.57z"/>
  <path id="_2_6" class="fil0" d="M19.25 77.83l0.92 0.12c-0.14,0.53 -0.41,0.95 -0.8,1.24 -0.39,0.29 -0.89,0.44 -1.49,0.44 -0.76,0 -1.37,-0.24 -1.82,-0.71 -0.45,-0.47 -0.67,-1.13 -0.67,-1.98 0,-0.88 0.23,-1.56 0.68,-2.04 0.45,-0.49 1.04,-0.73 1.76,-0.73 0.7,0 1.27,0.24 1.71,0.71 0.44,0.48 0.66,1.14 0.66,2.01 0,0.05 -0,0.13 -0.01,0.24l-3.9 0c0.03,0.57 0.19,1.01 0.49,1.32 0.29,0.3 0.66,0.46 1.09,0.46 0.32,0 0.6,-0.09 0.83,-0.26 0.23,-0.17 0.41,-0.45 0.55,-0.82zm-2.9 -1.42l2.91 0c-0.04,-0.44 -0.15,-0.77 -0.33,-0.99 -0.28,-0.34 -0.65,-0.51 -1.1,-0.51 -0.41,0 -0.75,0.14 -1.03,0.41 -0.28,0.27 -0.43,0.64 -0.46,1.09z"/>
  <polygon id="_3_7" class="fil0" points="20.49,74.29 24.72,74.29 24.72,75.02 23.05,75.02 23.05,79.52 22.16,79.52 22.16,75.02 20.49,75.02 "/>
  <path id="_4_8" class="fil0" d="M25.12 76.91c0,-0.97 0.27,-1.68 0.81,-2.15 0.45,-0.39 1,-0.58 1.65,-0.58 0.72,0 1.31,0.24 1.76,0.71 0.46,0.47 0.68,1.12 0.68,1.95 0,0.67 -0.1,1.2 -0.3,1.58 -0.2,0.38 -0.5,0.68 -0.88,0.9 -0.38,0.21 -0.81,0.32 -1.26,0.32 -0.73,0 -1.32,-0.23 -1.78,-0.7 -0.45,-0.47 -0.68,-1.14 -0.68,-2.03zm0.91 0c0,0.67 0.15,1.17 0.44,1.5 0.29,0.33 0.66,0.5 1.11,0.5 0.44,0 0.81,-0.17 1.1,-0.5 0.29,-0.33 0.44,-0.84 0.44,-1.53 0,-0.65 -0.15,-1.13 -0.44,-1.47 -0.29,-0.33 -0.66,-0.5 -1.1,-0.5 -0.45,0 -0.81,0.16 -1.11,0.5 -0.29,0.33 -0.44,0.83 -0.44,1.5z"/>
  <path id="_5_9" class="fil0" d="M31.05 74.29l0.89 0 0 2.26c0.28,0 0.48,-0.05 0.59,-0.16 0.11,-0.11 0.28,-0.42 0.5,-0.94 0.17,-0.41 0.32,-0.69 0.42,-0.82 0.11,-0.13 0.23,-0.22 0.37,-0.27 0.14,-0.05 0.37,-0.07 0.68,-0.07l0.18 0 0 0.73 -0.25 -0c-0.23,0 -0.38,0.04 -0.45,0.1 -0.07,0.07 -0.17,0.29 -0.32,0.65 -0.13,0.34 -0.26,0.58 -0.37,0.71 -0.11,0.13 -0.28,0.25 -0.52,0.36 0.38,0.1 0.76,0.46 1.13,1.07l0.97 1.62 -0.97 0 -0.96 -1.62c-0.19,-0.33 -0.36,-0.54 -0.5,-0.65 -0.14,-0.1 -0.32,-0.16 -0.52,-0.16l0 2.42 -0.89 0 0 -5.23z"/>
  <path class="fil0" d="M5.42 15.49l0.96 0.24c-0.2,0.78 -0.56,1.38 -1.08,1.79 -0.52,0.41 -1.15,0.62 -1.91,0.62 -0.78,0 -1.41,-0.16 -1.9,-0.48 -0.49,-0.32 -0.86,-0.77 -1.11,-1.37 -0.25,-0.6 -0.38,-1.25 -0.38,-1.93 0,-0.75 0.14,-1.41 0.43,-1.97 0.29,-0.56 0.7,-0.98 1.23,-1.28 0.53,-0.29 1.11,-0.44 1.75,-0.44 0.72,0 1.33,0.18 1.82,0.55 0.49,0.37 0.84,0.88 1.03,1.55l-0.94 0.22c-0.17,-0.52 -0.41,-0.91 -0.73,-1.15 -0.32,-0.24 -0.72,-0.36 -1.2,-0.36 -0.55,0 -1.02,0.13 -1.39,0.4 -0.37,0.27 -0.63,0.62 -0.78,1.07 -0.15,0.45 -0.23,0.91 -0.23,1.39 0,0.61 0.09,1.15 0.27,1.61 0.18,0.46 0.46,0.8 0.83,1.03 0.38,0.23 0.78,0.34 1.22,0.34 0.53,0 0.98,-0.15 1.35,-0.46 0.37,-0.31 0.62,-0.77 0.75,-1.37z"/>
  <path id="_1_10" class="fil0" d="M11.01 16.33l0.92 0.12c-0.14,0.53 -0.41,0.95 -0.8,1.24 -0.39,0.29 -0.89,0.44 -1.49,0.44 -0.76,0 -1.37,-0.24 -1.82,-0.71 -0.45,-0.47 -0.67,-1.13 -0.67,-1.98 0,-0.88 0.23,-1.56 0.68,-2.04 0.45,-0.49 1.04,-0.73 1.76,-0.73 0.7,0 1.27,0.24 1.71,0.71 0.44,0.48 0.66,1.14 0.66,2.01 0,0.05 -0,0.13 -0.01,0.24l-3.9 0c0.03,0.57 0.19,1.01 0.49,1.32 0.29,0.3 0.66,0.46 1.09,0.46 0.32,0 0.6,-0.09 0.83,-0.26 0.23,-0.17 0.41,-0.45 0.55,-0.82zm-2.9 -1.42l2.91 0c-0.04,-0.44 -0.15,-0.77 -0.33,-0.99 -0.28,-0.34 -0.65,-0.51 -1.1,-0.51 -0.41,0 -0.75,0.14 -1.03,0.41 -0.28,0.27 -0.43,0.64 -0.46,1.09z"/>
  <path id="_2_11" class="fil0" d="M13.05 20.03l0 -7.24 0.81 0 0 0.69c0.19,-0.27 0.41,-0.47 0.65,-0.6 0.24,-0.13 0.53,-0.2 0.87,-0.2 0.45,0 0.84,0.11 1.18,0.34 0.34,0.23 0.6,0.55 0.77,0.97 0.17,0.42 0.26,0.88 0.26,1.37 0,0.53 -0.1,1.01 -0.29,1.44 -0.19,0.43 -0.47,0.75 -0.84,0.98 -0.36,0.23 -0.75,0.34 -1.15,0.34 -0.3,0 -0.56,-0.06 -0.8,-0.19 -0.24,-0.12 -0.43,-0.28 -0.58,-0.47l0 2.55 -0.89 0zm0.81 -4.59c0,0.67 0.14,1.17 0.41,1.49 0.27,0.32 0.6,0.48 0.99,0.48 0.39,0 0.73,-0.17 1.01,-0.5 0.28,-0.33 0.42,-0.85 0.42,-1.54 0,-0.67 -0.14,-1.16 -0.41,-1.49 -0.27,-0.33 -0.6,-0.5 -0.98,-0.5 -0.38,0 -0.71,0.18 -1,0.53 -0.29,0.35 -0.44,0.86 -0.44,1.54z"/>
  <path id="_3_12" class="fil0" d="M19.12 12.79l3.65 0 0 4.51 0.57 0 0 2.21 -0.73 0 0 -1.48 -4.12 0 0 1.48 -0.73 0 0 -2.21 0.46 0c0.63,-0.85 0.92,-2.35 0.9,-4.51zm0.74 0.74c-0.07,1.7 -0.33,2.96 -0.79,3.77l2.81 0 0 -3.77 -2.03 0z"/>
  <polygon id="_4_13" class="fil0" points="24.32,12.79 25.21,12.79 25.21,17.3 27.67,17.3 27.67,12.79 28.56,12.79 28.56,17.3 29.13,17.3 29.13,19.51 28.41,19.51 28.41,18.03 24.32,18.03 "/>
  <path id="_5_14" class="fil0" d="M33.55 16.33l0.92 0.12c-0.14,0.53 -0.41,0.95 -0.8,1.24 -0.39,0.29 -0.89,0.44 -1.49,0.44 -0.76,0 -1.37,-0.24 -1.82,-0.71 -0.45,-0.47 -0.67,-1.13 -0.67,-1.98 0,-0.88 0.23,-1.56 0.68,-2.04 0.45,-0.49 1.04,-0.73 1.76,-0.73 0.7,0 1.27,0.24 1.71,0.71 0.44,0.48 0.66,1.14 0.66,2.01 0,0.05 -0,0.13 -0.01,0.24l-3.9 0c0.03,0.57 0.19,1.01 0.49,1.32 0.29,0.3 0.66,0.46 1.09,0.46 0.32,0 0.6,-0.09 0.83,-0.26 0.23,-0.17 0.41,-0.45 0.55,-0.82zm-2.9 -1.42l2.91 0c-0.04,-0.44 -0.15,-0.77 -0.33,-0.99 -0.28,-0.34 -0.65,-0.51 -1.1,-0.51 -0.41,0 -0.75,0.14 -1.03,0.41 -0.28,0.27 -0.43,0.64 -0.46,1.09z"/>
  <path class="fil0" d="M122.56 15.7l4.4 0 0 6.37 0.65 0 0 2.53 -0.85 0 0 -1.68 -4.78 0 0 1.68 -0.85 0 0 -2.53 0.55 0c0.58,-0.88 0.88,-2.65 0.88,-5.32l0 -1.06zm3.44 0.85l-2.52 0 0 0.37c0,0.62 -0.06,1.46 -0.17,2.52 -0.11,1.07 -0.33,1.94 -0.65,2.63l3.34 0 0 -5.53z"/>
  <path id="_1_15" class="fil0" d="M132.75 17.69l0 5.23 -0.89 0 0 -2.04 -0.51 0c-0.31,0 -0.54,0.04 -0.7,0.12 -0.15,0.08 -0.38,0.34 -0.67,0.77l-0.78 1.14 -1.1 0 0.96 -1.41c0.29,-0.43 0.58,-0.67 0.88,-0.73 -0.51,-0.07 -0.88,-0.25 -1.13,-0.55 -0.25,-0.3 -0.37,-0.64 -0.37,-1.02 0,-0.46 0.16,-0.82 0.48,-1.11 0.32,-0.28 0.79,-0.43 1.4,-0.43l2.43 0zm-0.89 0.74l-1.26 0c-0.53,0 -0.87,0.08 -1.02,0.25 -0.15,0.16 -0.23,0.36 -0.23,0.58 0,0.31 0.11,0.54 0.34,0.69 0.22,0.15 0.62,0.22 1.19,0.22l0.98 0 0 -1.73z"/>
  <polygon id="_2_16" class="fil0" points="133.62,17.69 137.86,17.69 137.86,18.42 136.19,18.42 136.19,22.92 135.3,22.92 135.3,18.42 133.62,18.42 "/>
  <path id="_3_17" class="fil0" d="M142.16 21.23l0.92 0.12c-0.14,0.53 -0.41,0.95 -0.8,1.24 -0.39,0.29 -0.89,0.44 -1.49,0.44 -0.76,0 -1.37,-0.24 -1.82,-0.71 -0.45,-0.47 -0.67,-1.13 -0.67,-1.98 0,-0.88 0.23,-1.56 0.68,-2.04 0.45,-0.49 1.04,-0.73 1.76,-0.73 0.7,0 1.27,0.24 1.71,0.71 0.44,0.48 0.66,1.14 0.66,2.01 0,0.05 -0,0.13 -0.01,0.24l-3.9 0c0.03,0.57 0.19,1.01 0.49,1.32 0.29,0.3 0.66,0.46 1.09,0.46 0.32,0 0.6,-0.09 0.83,-0.26 0.23,-0.17 0.41,-0.45 0.55,-0.82zm-2.9 -1.42l2.91 0c-0.04,-0.44 -0.15,-0.77 -0.33,-0.99 -0.28,-0.34 -0.65,-0.51 -1.1,-0.51 -0.41,0 -0.75,0.14 -1.03,0.41 -0.28,0.27 -0.43,0.64 -0.46,1.09z"/>
  <path id="_4_18" class="fil0" d="M144.3 17.69l4.12 0 0 5.23 -0.89 0 0 -4.49 -2.35 0 0 2.6c0,0.61 -0.02,1.01 -0.06,1.2 -0.04,0.19 -0.15,0.36 -0.32,0.51 -0.18,0.14 -0.43,0.22 -0.77,0.22 -0.21,0 -0.45,-0.01 -0.71,-0.04l0 -0.74 0.39 0c0.18,0 0.31,-0.02 0.39,-0.06 0.08,-0.04 0.13,-0.1 0.16,-0.18 0.03,-0.08 0.04,-0.35 0.04,-0.8l0 -3.45z"/>
  <path class="fil0" d="M126.05 76.23c0,-1.2 0.32,-2.13 0.97,-2.81 0.64,-0.68 1.47,-1.02 2.49,-1.02 0.67,0 1.27,0.16 1.8,0.48 0.53,0.32 0.94,0.76 1.22,1.33 0.28,0.57 0.42,1.21 0.42,1.93 0,0.73 -0.15,1.39 -0.44,1.96 -0.3,0.58 -0.71,1.02 -1.26,1.31 -0.54,0.3 -1.13,0.45 -1.75,0.45 -0.68,0 -1.29,-0.16 -1.82,-0.49 -0.53,-0.33 -0.94,-0.77 -1.22,-1.34 -0.28,-0.57 -0.41,-1.17 -0.41,-1.8zm0.99 0.02c0,0.87 0.23,1.55 0.7,2.05 0.47,0.5 1.05,0.75 1.76,0.75 0.72,0 1.31,-0.25 1.77,-0.76 0.46,-0.5 0.7,-1.22 0.7,-2.15 0,-0.59 -0.1,-1.1 -0.3,-1.54 -0.2,-0.44 -0.49,-0.78 -0.87,-1.02 -0.38,-0.24 -0.81,-0.36 -1.29,-0.36 -0.68,0 -1.26,0.23 -1.74,0.7 -0.49,0.46 -0.73,1.24 -0.73,2.32z"/>
  <path id="_1_19" class="fil0" d="M137.5 77.83l0.87 0.12c-0.1,0.6 -0.34,1.06 -0.73,1.4 -0.39,0.34 -0.87,0.51 -1.44,0.51 -0.71,0 -1.29,-0.23 -1.72,-0.7 -0.44,-0.47 -0.65,-1.14 -0.65,-2.01 0,-0.56 0.09,-1.06 0.28,-1.48 0.19,-0.42 0.47,-0.74 0.85,-0.95 0.38,-0.21 0.8,-0.32 1.25,-0.32 0.57,0 1.03,0.14 1.39,0.43 0.36,0.29 0.59,0.7 0.69,1.22l-0.86 0.13c-0.08,-0.35 -0.23,-0.62 -0.44,-0.79 -0.21,-0.18 -0.46,-0.27 -0.76,-0.27 -0.45,0 -0.81,0.16 -1.09,0.48 -0.28,0.32 -0.42,0.83 -0.42,1.52 0,0.7 0.13,1.21 0.4,1.53 0.27,0.32 0.62,0.48 1.05,0.48 0.35,0 0.64,-0.11 0.87,-0.32 0.23,-0.21 0.38,-0.54 0.44,-0.98z"/>
  <path id="_2_20" class="fil0" d="M142.69 78.05l0.92 0.12c-0.14,0.53 -0.41,0.95 -0.8,1.24 -0.39,0.29 -0.89,0.44 -1.49,0.44 -0.76,0 -1.37,-0.24 -1.82,-0.71 -0.45,-0.47 -0.67,-1.13 -0.67,-1.98 0,-0.88 0.23,-1.56 0.68,-2.04 0.45,-0.49 1.04,-0.73 1.76,-0.73 0.7,0 1.27,0.24 1.71,0.71 0.44,0.48 0.66,1.14 0.66,2.01 0,0.05 -0,0.13 -0.01,0.24l-3.9 0c0.03,0.57 0.19,1.01 0.49,1.32 0.29,0.3 0.66,0.46 1.09,0.46 0.32,0 0.6,-0.09 0.83,-0.26 0.23,-0.17 0.41,-0.45 0.55,-0.82zm-2.9 -1.42l2.91 0c-0.04,-0.44 -0.15,-0.77 -0.33,-0.99 -0.28,-0.34 -0.65,-0.51 -1.1,-0.51 -0.41,0 -0.75,0.14 -1.03,0.41 -0.28,0.27 -0.43,0.64 -0.46,1.09z"/>
  <polygon id="_3_21" class="fil0" points="144.73,74.51 145.61,74.51 145.61,76.69 148.08,76.69 148.08,74.51 148.96,74.51 148.96,79.75 148.08,79.75 148.08,77.43 145.61,77.43 145.61,79.75 144.73,79.75 "/>
  <path id="_4_22" class="fil0" d="M150.28 74.51l0.89 0 0 2.05 1.12 0c0.73,0 1.3,0.14 1.69,0.43 0.39,0.28 0.59,0.68 0.59,1.17 0,0.44 -0.16,0.81 -0.5,1.12 -0.33,0.31 -0.86,0.47 -1.58,0.47l-2.22 0 0 -5.23zm0.89 4.51l0.93 0c0.56,0 0.96,-0.07 1.21,-0.21 0.24,-0.14 0.36,-0.35 0.36,-0.65 0,-0.23 -0.09,-0.43 -0.27,-0.61 -0.18,-0.18 -0.57,-0.27 -1.18,-0.27l-1.05 0 0 1.72z"/>
 </g>
</svg>
