<?xml version="1.0" encoding="UTF-8"?>
<!DOCTYPE svg PUBLIC "-//W3C//DTD SVG 1.1//EN" "http://www.w3.org/Graphics/SVG/1.1/DTD/svg11.dtd">
<!-- Creator: CorelDRAW -->
<svg xmlns="http://www.w3.org/2000/svg" xml:space="preserve" width="82.3566mm" height="54.4087mm" version="1.1" style="shape-rendering:geometricPrecision; text-rendering:geometricPrecision; image-rendering:optimizeQuality; fill-rule:evenodd; clip-rule:evenodd"
viewBox="0 0 180.01 118.93"
 xmlns:xlink="http://www.w3.org/1999/xlink"
 xmlns:xodm="http://www.corel.com/coreldraw/odm/2003">
 <defs>
  <style type="text/css">
   <![CDATA[
    .fil0 {fill:#656551;fill-rule:nonzero}
   ]]>
  </style>
 </defs>
 <g id="Слой_x0020_1">
  <metadata id="CorelCorpID_0Corel-Layer"/>
  <path class="fil0" d="M80.14 118.8l-1.09 0 0 -3.31c-0.98,0.36 -1.83,0.54 -2.57,0.54 -0.57,0 -1.08,-0.13 -1.51,-0.4 -0.44,-0.27 -0.73,-0.61 -0.88,-1.02 -0.15,-0.41 -0.22,-0.95 -0.22,-1.62l0 -2.42 1.09 0 0 2.32c0,0.9 0.16,1.49 0.49,1.77 0.33,0.28 0.72,0.42 1.18,0.42 0.77,0 1.57,-0.17 2.42,-0.51l0 -4 1.09 0 0 8.22z"/>
  <path id="_1" class="fil0" d="M85.69 118.05c-0.38,0.32 -0.74,0.54 -1.08,0.68 -0.35,0.13 -0.72,0.2 -1.12,0.2 -0.65,0 -1.16,-0.16 -1.51,-0.48 -0.35,-0.32 -0.53,-0.73 -0.53,-1.22 0,-0.29 0.07,-0.56 0.2,-0.8 0.13,-0.24 0.31,-0.43 0.52,-0.58 0.22,-0.15 0.46,-0.26 0.73,-0.33 0.2,-0.05 0.5,-0.1 0.9,-0.15 0.82,-0.1 1.42,-0.21 1.8,-0.35 0,-0.14 0.01,-0.23 0.01,-0.26 0,-0.41 -0.1,-0.7 -0.29,-0.87 -0.26,-0.23 -0.64,-0.34 -1.15,-0.34 -0.48,0 -0.83,0.08 -1.05,0.25 -0.23,0.17 -0.39,0.46 -0.5,0.89l-0.99 -0.14c0.09,-0.42 0.24,-0.77 0.44,-1.03 0.21,-0.26 0.51,-0.46 0.9,-0.6 0.39,-0.14 0.84,-0.21 1.36,-0.21 0.51,0 0.92,0.06 1.24,0.18 0.32,0.12 0.55,0.27 0.7,0.45 0.15,0.18 0.25,0.41 0.32,0.69 0.03,0.17 0.05,0.48 0.05,0.93l0 1.34c0,0.94 0.02,1.53 0.06,1.78 0.04,0.25 0.12,0.49 0.25,0.72l-1.06 0c-0.1,-0.21 -0.17,-0.46 -0.2,-0.75zm-0.08 -2.24c-0.37,0.15 -0.92,0.28 -1.65,0.38 -0.42,0.06 -0.71,0.13 -0.88,0.2 -0.17,0.07 -0.3,0.18 -0.4,0.33 -0.09,0.14 -0.14,0.3 -0.14,0.48 0,0.27 0.1,0.49 0.31,0.67 0.2,0.18 0.5,0.27 0.9,0.27 0.39,0 0.74,-0.08 1.04,-0.25 0.3,-0.17 0.53,-0.4 0.67,-0.69 0.11,-0.23 0.16,-0.56 0.16,-1.01l0.01 -0.37z"/>
  <path id="_2" class="fil0" d="M92.53 110.38l0.9 0.01c-0.04,0.4 -0.13,0.68 -0.27,0.84 -0.14,0.16 -0.31,0.26 -0.52,0.3 -0.21,0.04 -0.64,0.07 -1.26,0.07 -0.83,0 -1.4,0.08 -1.7,0.24 -0.3,0.16 -0.52,0.42 -0.65,0.77 -0.13,0.35 -0.2,0.81 -0.22,1.36 0.25,-0.38 0.55,-0.66 0.89,-0.85 0.34,-0.19 0.72,-0.28 1.15,-0.28 0.78,0 1.43,0.27 1.94,0.8 0.51,0.54 0.77,1.26 0.77,2.18 0,0.69 -0.13,1.27 -0.39,1.71 -0.26,0.44 -0.56,0.79 -0.92,1.03 -0.35,0.24 -0.83,0.36 -1.44,0.36 -0.71,0 -1.26,-0.16 -1.65,-0.48 -0.39,-0.32 -0.69,-0.74 -0.9,-1.24 -0.21,-0.5 -0.31,-1.38 -0.31,-2.63 0,-1.57 0.27,-2.63 0.8,-3.18 0.53,-0.55 1.35,-0.82 2.45,-0.82 0.69,0 1.08,-0.01 1.17,-0.03 0.09,-0.02 0.15,-0.08 0.18,-0.16zm-0.03 5.41c0,-0.62 -0.15,-1.13 -0.44,-1.52 -0.29,-0.4 -0.71,-0.59 -1.24,-0.59 -0.56,0 -0.99,0.21 -1.29,0.63 -0.3,0.42 -0.45,0.97 -0.45,1.67 0,0.69 0.17,1.22 0.5,1.58 0.33,0.37 0.75,0.55 1.23,0.55 0.5,0 0.91,-0.21 1.22,-0.64 0.31,-0.42 0.47,-0.98 0.47,-1.68z"/>
  <path id="_3" class="fil0" d="M98.7 116.87l1.05 0.14c-0.16,0.61 -0.47,1.08 -0.91,1.41 -0.44,0.33 -1.01,0.5 -1.7,0.5 -0.87,0 -1.56,-0.27 -2.07,-0.8 -0.51,-0.53 -0.76,-1.29 -0.76,-2.25 0,-1 0.26,-1.78 0.77,-2.33 0.51,-0.55 1.18,-0.83 2,-0.83 0.79,0 1.44,0.27 1.95,0.81 0.5,0.54 0.76,1.3 0.76,2.29 0,0.06 -0,0.15 -0.01,0.27l-4.44 0c0.04,0.65 0.22,1.15 0.56,1.5 0.33,0.35 0.75,0.52 1.24,0.52 0.37,0 0.69,-0.1 0.95,-0.29 0.26,-0.2 0.47,-0.51 0.62,-0.94zm-3.31 -1.62l3.32 0c-0.04,-0.5 -0.17,-0.88 -0.38,-1.13 -0.32,-0.39 -0.74,-0.58 -1.25,-0.58 -0.46,0 -0.85,0.15 -1.17,0.47 -0.31,0.31 -0.49,0.73 -0.52,1.25z"/>
  <path id="_4" class="fil0" d="M101.03 112.84l1.01 0 0 4.55 2.81 -4.55 1.09 0 0 5.96 -1.01 0 0 -4.52 -2.8 4.52 -1.09 0 0 -5.96zm3.49 -2.21l0.69 0c-0.06,0.47 -0.23,0.84 -0.51,1.09 -0.29,0.25 -0.67,0.38 -1.14,0.38 -0.48,0 -0.86,-0.13 -1.15,-0.38 -0.29,-0.25 -0.46,-0.62 -0.51,-1.09l0.69 0c0.05,0.26 0.16,0.45 0.31,0.58 0.15,0.13 0.37,0.19 0.63,0.19 0.3,0 0.53,-0.06 0.69,-0.19 0.15,-0.12 0.26,-0.32 0.31,-0.58z"/>
  <path class="fil0" d="M73.8 8.22l-1.09 0 0 -3.31c-0.98,0.36 -1.83,0.54 -2.57,0.54 -0.57,0 -1.08,-0.13 -1.51,-0.4 -0.44,-0.27 -0.73,-0.61 -0.88,-1.02 -0.15,-0.41 -0.22,-0.95 -0.22,-1.62l0 -2.42 1.09 0 0 2.32c0,0.9 0.16,1.49 0.49,1.77 0.33,0.28 0.72,0.42 1.18,0.42 0.77,0 1.57,-0.17 2.42,-0.51l0 -4 1.09 0 0 8.22z"/>
  <polygon id="_1_0" class="fil0" points="75.46,2.26 76.47,2.26 76.47,6.81 79.28,2.26 80.37,2.26 80.37,8.22 79.35,8.22 79.35,3.71 76.55,8.22 75.46,8.22 "/>
  <polygon id="_2_1" class="fil0" points="81.88,2.26 82.89,2.26 82.89,4.74 85.69,4.74 85.69,2.26 86.7,2.26 86.7,8.22 85.69,8.22 85.69,5.58 82.89,5.58 82.89,8.22 81.88,8.22 "/>
  <polygon id="_3_2" class="fil0" points="88.22,2.26 91.65,2.26 91.65,3.1 89.23,3.1 89.23,8.22 88.22,8.22 "/>
  <path id="_4_3" class="fil0" d="M98.08 2.26l1.01 0 0 5.96 -1.01 0 0 -5.96zm-5.64 0l1.01 0 0 2.33 1.28 0c0.83,0 1.47,0.16 1.92,0.48 0.45,0.32 0.67,0.77 0.67,1.34 0,0.5 -0.19,0.92 -0.56,1.28 -0.38,0.35 -0.97,0.53 -1.8,0.53l-2.52 0 0 -5.96zm1.01 5.13l1.06 0c0.64,0 1.09,-0.08 1.37,-0.24 0.27,-0.16 0.41,-0.4 0.41,-0.74 0,-0.26 -0.1,-0.49 -0.3,-0.69 -0.2,-0.2 -0.65,-0.3 -1.34,-0.3l-1.19 0 0 1.96z"/>
  <path id="_5" class="fil0" d="M101.16 2.26l4.7 0 0 5.95 -1.01 0 0 -5.12 -2.68 0 0 2.97c0,0.69 -0.02,1.15 -0.07,1.37 -0.05,0.22 -0.17,0.41 -0.37,0.58 -0.2,0.16 -0.49,0.25 -0.87,0.25 -0.24,0 -0.51,-0.02 -0.81,-0.04l0 -0.84 0.44 0c0.21,0 0.36,-0.02 0.45,-0.07 0.09,-0.04 0.15,-0.11 0.18,-0.2 0.03,-0.09 0.04,-0.4 0.04,-0.91l0 -3.93z"/>
  <polygon id="_6" class="fil0" points="107.37,2.26 108.38,2.26 108.38,6.81 111.18,2.26 112.27,2.26 112.27,8.22 111.26,8.22 111.26,3.71 108.45,8.22 107.37,8.22 "/>
  <path class="fil0" d="M13.32 90.78l-1.09 0 0 -3.31c-0.98,0.36 -1.83,0.54 -2.57,0.54 -0.57,0 -1.08,-0.13 -1.51,-0.4 -0.44,-0.27 -0.73,-0.61 -0.88,-1.02 -0.15,-0.41 -0.22,-0.95 -0.22,-1.62l0 -2.42 1.09 0 0 2.32c0,0.9 0.16,1.49 0.49,1.77 0.33,0.28 0.72,0.42 1.18,0.42 0.77,0 1.57,-0.17 2.42,-0.51l0 -4 1.09 0 0 8.22z"/>
  <path id="_1_4" class="fil0" d="M19.05 88.85l1.05 0.14c-0.16,0.61 -0.47,1.08 -0.91,1.41 -0.44,0.33 -1.01,0.5 -1.7,0.5 -0.87,0 -1.56,-0.27 -2.07,-0.8 -0.51,-0.53 -0.76,-1.29 -0.76,-2.25 0,-1 0.26,-1.78 0.77,-2.33 0.51,-0.55 1.18,-0.83 2,-0.83 0.79,0 1.44,0.27 1.95,0.81 0.5,0.54 0.76,1.3 0.76,2.29 0,0.06 -0,0.15 -0.01,0.27l-4.44 0c0.04,0.65 0.22,1.15 0.56,1.5 0.33,0.35 0.75,0.52 1.24,0.52 0.37,0 0.69,-0.1 0.95,-0.29 0.26,-0.2 0.47,-0.51 0.62,-0.94zm-3.31 -1.62l3.32 0c-0.04,-0.5 -0.17,-0.88 -0.38,-1.13 -0.32,-0.39 -0.74,-0.58 -1.25,-0.58 -0.46,0 -0.85,0.15 -1.17,0.47 -0.31,0.31 -0.49,0.73 -0.52,1.25z"/>
  <path id="_2_5" class="fil0" d="M20.61 84.81l1.01 0 0 1.13c0,0.49 0.03,0.84 0.09,1.06 0.06,0.22 0.2,0.41 0.42,0.57 0.22,0.16 0.5,0.24 0.83,0.24 0.38,0 0.88,-0.1 1.49,-0.3l0 -2.7 1.01 0 0 5.96 -1.01 0 0 -2.41c-0.62,0.2 -1.2,0.29 -1.74,0.29 -0.45,0 -0.85,-0.11 -1.2,-0.34 -0.35,-0.23 -0.58,-0.51 -0.71,-0.84 -0.12,-0.33 -0.19,-0.7 -0.19,-1.1l0 -1.56z"/>
  <path id="_3_6" class="fil0" d="M31.04 88.85l1.05 0.14c-0.16,0.61 -0.47,1.08 -0.91,1.41 -0.44,0.33 -1.01,0.5 -1.7,0.5 -0.87,0 -1.56,-0.27 -2.07,-0.8 -0.51,-0.53 -0.76,-1.29 -0.76,-2.25 0,-1 0.26,-1.78 0.77,-2.33 0.51,-0.55 1.18,-0.83 2,-0.83 0.79,0 1.44,0.27 1.95,0.81 0.5,0.54 0.76,1.3 0.76,2.29 0,0.06 -0,0.15 -0.01,0.27l-4.44 0c0.04,0.65 0.22,1.15 0.56,1.5 0.33,0.35 0.75,0.52 1.24,0.52 0.37,0 0.69,-0.1 0.95,-0.29 0.26,-0.2 0.47,-0.51 0.62,-0.94zm-3.31 -1.62l3.32 0c-0.04,-0.5 -0.17,-0.88 -0.38,-1.13 -0.32,-0.39 -0.74,-0.58 -1.25,-0.58 -0.46,0 -0.85,0.15 -1.17,0.47 -0.31,0.31 -0.49,0.73 -0.52,1.25z"/>
  <polygon id="_4_7" class="fil0" points="33.36,84.81 36.79,84.81 36.79,85.65 34.37,85.65 34.37,90.78 33.36,90.78 "/>
  <path class="fil0" d="M6.27 22.39l-1.09 0 0 -3.31c-0.98,0.36 -1.83,0.54 -2.57,0.54 -0.57,0 -1.08,-0.13 -1.51,-0.4 -0.44,-0.27 -0.73,-0.61 -0.88,-1.02 -0.15,-0.41 -0.22,-0.95 -0.22,-1.62l0 -2.42 1.09 0 0 2.32c0,0.9 0.16,1.49 0.49,1.77 0.33,0.28 0.72,0.42 1.18,0.42 0.77,0 1.57,-0.17 2.42,-0.51l0 -4 1.09 0 0 8.22z"/>
  <polygon id="_1_8" class="fil0" points="7.93,16.43 8.94,16.43 8.94,20.98 11.75,16.43 12.83,16.43 12.83,22.39 11.82,22.39 11.82,17.88 9.02,22.39 7.93,22.39 "/>
  <polygon id="_2_9" class="fil0" points="14.38,16.43 15.94,16.43 17.51,21.2 19.26,16.43 20.7,16.43 20.7,22.39 19.69,22.39 19.69,17.59 17.93,22.39 17.03,22.39 15.37,17.37 15.37,22.39 14.38,22.39 "/>
  <path id="_3_10" class="fil0" d="M26.14 21.65c-0.38,0.32 -0.74,0.54 -1.08,0.68 -0.35,0.13 -0.72,0.2 -1.12,0.2 -0.65,0 -1.16,-0.16 -1.51,-0.48 -0.35,-0.32 -0.53,-0.73 -0.53,-1.22 0,-0.29 0.07,-0.56 0.2,-0.8 0.13,-0.24 0.31,-0.43 0.52,-0.58 0.22,-0.15 0.46,-0.26 0.73,-0.33 0.2,-0.05 0.5,-0.1 0.9,-0.15 0.82,-0.1 1.42,-0.21 1.8,-0.35 0,-0.14 0.01,-0.23 0.01,-0.26 0,-0.41 -0.1,-0.7 -0.29,-0.87 -0.26,-0.23 -0.64,-0.34 -1.15,-0.34 -0.48,0 -0.83,0.08 -1.05,0.25 -0.23,0.17 -0.39,0.46 -0.5,0.89l-0.99 -0.14c0.09,-0.42 0.24,-0.77 0.44,-1.03 0.21,-0.26 0.51,-0.46 0.9,-0.6 0.39,-0.14 0.84,-0.21 1.36,-0.21 0.51,0 0.92,0.06 1.24,0.18 0.32,0.12 0.55,0.27 0.7,0.45 0.15,0.18 0.25,0.41 0.32,0.69 0.03,0.17 0.05,0.48 0.05,0.93l0 1.34c0,0.94 0.02,1.53 0.06,1.78 0.04,0.25 0.12,0.49 0.25,0.72l-1.06 0c-0.1,-0.21 -0.17,-0.46 -0.2,-0.75zm-0.08 -2.24c-0.37,0.15 -0.92,0.28 -1.65,0.38 -0.42,0.06 -0.71,0.13 -0.88,0.2 -0.17,0.07 -0.3,0.18 -0.4,0.33 -0.09,0.14 -0.14,0.3 -0.14,0.48 0,0.27 0.1,0.49 0.31,0.67 0.2,0.18 0.5,0.27 0.9,0.27 0.39,0 0.74,-0.08 1.04,-0.25 0.3,-0.17 0.53,-0.4 0.67,-0.69 0.11,-0.23 0.16,-0.56 0.16,-1.01l0.01 -0.37z"/>
  <path id="_4_11" class="fil0" d="M29.12 16.43l4.7 0 0 5.95 -1.01 0 0 -5.12 -2.68 0 0 2.97c0,0.69 -0.02,1.15 -0.07,1.37 -0.05,0.22 -0.17,0.41 -0.37,0.58 -0.2,0.16 -0.49,0.25 -0.87,0.25 -0.24,0 -0.51,-0.02 -0.81,-0.04l0 -0.84 0.44 0c0.21,0 0.36,-0.02 0.45,-0.07 0.09,-0.04 0.15,-0.11 0.18,-0.2 0.03,-0.09 0.04,-0.4 0.04,-0.91l0 -3.93z"/>
  <polygon id="_5_12" class="fil0" points="35.33,16.43 36.34,16.43 36.34,20.98 39.15,16.43 40.24,16.43 40.24,22.39 39.23,22.39 39.23,17.88 36.42,22.39 35.33,22.39 "/>
  <path class="fil0" d="M150.25 26.11l-1.09 0 0 -3.31c-0.98,0.36 -1.83,0.54 -2.57,0.54 -0.57,0 -1.08,-0.13 -1.51,-0.4 -0.44,-0.27 -0.73,-0.61 -0.88,-1.02 -0.15,-0.41 -0.22,-0.95 -0.22,-1.62l0 -2.42 1.09 0 0 2.32c0,0.9 0.16,1.49 0.49,1.77 0.33,0.28 0.72,0.42 1.18,0.42 0.77,0 1.57,-0.17 2.42,-0.51l0 -4 1.09 0 0 8.22z"/>
  <polygon id="_1_13" class="fil0" points="151.91,20.15 152.92,20.15 152.92,24.69 155.73,20.15 156.82,20.15 156.82,26.11 155.81,26.11 155.81,21.59 153,26.11 151.91,26.11 "/>
  <polygon id="_2_14" class="fil0" points="158.33,20.15 163.04,20.15 163.04,26.11 162.03,26.11 162.03,20.99 159.34,20.99 159.34,26.11 158.33,26.11 "/>
  <path id="_3_15" class="fil0" d="M170.22 20.15l1.01 0 0 5.96 -1.01 0 0 -5.96zm-5.64 0l1.01 0 0 2.33 1.27 0c0.83,0 1.47,0.16 1.92,0.48 0.45,0.32 0.67,0.77 0.67,1.34 0,0.5 -0.19,0.92 -0.56,1.28 -0.38,0.35 -0.97,0.53 -1.8,0.53l-2.52 0 0 -5.96zm1.01 5.13l1.06 0c0.64,0 1.09,-0.08 1.37,-0.24 0.27,-0.16 0.41,-0.4 0.41,-0.74 0,-0.26 -0.1,-0.49 -0.3,-0.69 -0.2,-0.2 -0.65,-0.3 -1.34,-0.3l-1.19 0 0 1.96z"/>
  <path class="fil0" d="M153.89 90.81l-1.09 0 0 -3.31c-0.98,0.36 -1.83,0.54 -2.57,0.54 -0.57,0 -1.08,-0.13 -1.51,-0.4 -0.44,-0.27 -0.73,-0.61 -0.88,-1.02 -0.15,-0.41 -0.22,-0.95 -0.22,-1.62l0 -2.42 1.09 0 0 2.32c0,0.9 0.16,1.49 0.49,1.77 0.33,0.28 0.72,0.42 1.18,0.42 0.77,0 1.57,-0.17 2.42,-0.51l0 -4 1.09 0 0 8.22z"/>
  <path id="_1_16" class="fil0" d="M155.17 87.83c0,-1.1 0.31,-1.92 0.92,-2.45 0.51,-0.44 1.14,-0.66 1.87,-0.66 0.82,0 1.49,0.27 2.01,0.8 0.52,0.53 0.78,1.27 0.78,2.22 0,0.77 -0.11,1.37 -0.34,1.81 -0.23,0.44 -0.56,0.78 -1.01,1.02 -0.44,0.24 -0.92,0.36 -1.44,0.36 -0.83,0 -1.51,-0.27 -2.02,-0.8 -0.51,-0.53 -0.77,-1.3 -0.77,-2.31zm1.03 0c0,0.76 0.17,1.33 0.5,1.71 0.33,0.38 0.75,0.57 1.26,0.57 0.5,0 0.92,-0.19 1.25,-0.57 0.33,-0.38 0.5,-0.96 0.5,-1.74 0,-0.74 -0.17,-1.29 -0.5,-1.67 -0.33,-0.38 -0.75,-0.57 -1.25,-0.57 -0.51,0 -0.93,0.19 -1.26,0.56 -0.33,0.38 -0.5,0.95 -0.5,1.71z"/>
  <path id="_2_17" class="fil0" d="M161.94 93.1l0 -8.25 0.92 0 0 0.78c0.22,-0.3 0.46,-0.53 0.74,-0.68 0.27,-0.15 0.6,-0.23 0.99,-0.23 0.51,0 0.96,0.13 1.35,0.39 0.39,0.26 0.68,0.63 0.88,1.1 0.2,0.48 0.3,1 0.3,1.57 0,0.61 -0.11,1.15 -0.33,1.64 -0.22,0.49 -0.54,0.86 -0.95,1.12 -0.42,0.26 -0.85,0.39 -1.31,0.39 -0.34,0 -0.64,-0.07 -0.91,-0.21 -0.27,-0.14 -0.49,-0.32 -0.66,-0.54l0 2.91 -1.01 0zm0.92 -5.23c0,0.76 0.16,1.33 0.46,1.69 0.31,0.37 0.69,0.55 1.13,0.55 0.45,0 0.83,-0.19 1.15,-0.57 0.32,-0.38 0.48,-0.96 0.48,-1.76 0,-0.76 -0.16,-1.32 -0.47,-1.7 -0.31,-0.38 -0.68,-0.56 -1.12,-0.56 -0.43,0 -0.81,0.2 -1.14,0.6 -0.33,0.4 -0.5,0.98 -0.5,1.75z"/>
  <path id="_3_18" class="fil0" d="M174 84.85l1.01 0 0 5.96 -1.01 0 0 -5.96zm-5.64 0l1.01 0 0 2.33 1.27 0c0.83,0 1.47,0.16 1.92,0.48 0.45,0.32 0.67,0.77 0.67,1.34 0,0.5 -0.19,0.92 -0.56,1.28 -0.38,0.35 -0.97,0.53 -1.8,0.53l-2.52 0 0 -5.96zm1.01 5.13l1.06 0c0.64,0 1.09,-0.08 1.37,-0.24 0.27,-0.16 0.41,-0.4 0.41,-0.74 0,-0.26 -0.1,-0.49 -0.3,-0.69 -0.2,-0.2 -0.65,-0.3 -1.34,-0.3l-1.19 0 0 1.96z"/>
  <polygon id="_4_19" class="fil0" points="176.58,84.85 180.01,84.85 180.01,85.69 177.59,85.69 177.59,90.81 176.58,90.81 "/>
 </g>
</svg>
