<?xml version="1.0" encoding="UTF-8"?>
<!DOCTYPE svg PUBLIC "-//W3C//DTD SVG 1.1//EN" "http://www.w3.org/Graphics/SVG/1.1/DTD/svg11.dtd">
<!-- Creator: CorelDRAW 2019 (64-Bit) -->
<svg xmlns="http://www.w3.org/2000/svg" xml:space="preserve" width="7.42204cm" height="4.46343cm" version="1.1" style="shape-rendering:geometricPrecision; text-rendering:geometricPrecision; image-rendering:optimizeQuality; fill-rule:evenodd; clip-rule:evenodd"
viewBox="0 0 22.026 13.246"
 xmlns:xlink="http://www.w3.org/1999/xlink"
 xmlns:xodm="http://www.corel.com/coreldraw/odm/2003">
 <defs>
  <style type="text/css">
   <![CDATA[
    .fil0 {fill:#7B6636;fill-rule:nonzero}
   ]]>
  </style>
 </defs>
 <g id="Слой_x0020_1">
  <metadata id="CorelCorpID_0Corel-Layer"/>
  <path class="fil0" d="M0.406 6.199l0.39 0 0.302 0.861 0.293 -0.861 0.381 0 0 0.073 -0.101 0c-0.022,0 -0.038,0.006 -0.048,0.017 -0.01,0.012 -0.015,0.031 -0.015,0.057l0 0.829c0,0.029 0.005,0.049 0.016,0.06 0.011,0.011 0.032,0.016 0.064,0.016l0.083 0 0 0.073 -0.505 0 0 -0.073 0.093 0c0.032,0 0.054,-0.005 0.066,-0.016 0.011,-0.011 0.017,-0.03 0.017,-0.06l0 -0.878 -0.349 1.027 -0.061 0 -0.373 -1.027 0 0.778c0,0.068 0.014,0.115 0.041,0.142 0.027,0.026 0.076,0.04 0.145,0.04l0 0.067 -0.452 0 0.001 -0.067c0.071,-0.001 0.12,-0.014 0.147,-0.04 0.026,-0.025 0.039,-0.076 0.039,-0.152l0 -0.008 0 -0.711c0,-0.029 -0.005,-0.049 -0.016,-0.059 -0.011,-0.01 -0.033,-0.015 -0.066,-0.015l-0.092 0 0 -0.073zm1.95 0.737c-0.116,0.015 -0.2,0.039 -0.253,0.071 -0.053,0.032 -0.079,0.075 -0.079,0.13 0,0.043 0.01,0.075 0.03,0.095 0.02,0.021 0.051,0.031 0.093,0.031 0.064,0 0.115,-0.02 0.153,-0.06 0.037,-0.039 0.056,-0.095 0.056,-0.165l0 -0.103zm0.009 0.289c-0.028,0.037 -0.068,0.067 -0.119,0.09 -0.051,0.023 -0.105,0.035 -0.161,0.035 -0.065,0 -0.117,-0.017 -0.156,-0.052 -0.039,-0.035 -0.059,-0.081 -0.059,-0.138 0,-0.075 0.038,-0.135 0.113,-0.181 0.075,-0.045 0.199,-0.082 0.372,-0.109l0 -0.112c0,-0.036 -0.015,-0.064 -0.043,-0.083 -0.029,-0.019 -0.07,-0.029 -0.124,-0.029 -0.041,0 -0.075,0.005 -0.101,0.016 -0.026,0.011 -0.039,0.024 -0.039,0.04 0,0.003 0.006,0.014 0.018,0.03 0.012,0.017 0.019,0.035 0.019,0.056 0,0.024 -0.007,0.044 -0.022,0.057 -0.014,0.014 -0.034,0.021 -0.059,0.021 -0.029,0 -0.052,-0.008 -0.068,-0.024 -0.016,-0.016 -0.024,-0.037 -0.024,-0.065 0,-0.057 0.028,-0.105 0.084,-0.143 0.056,-0.038 0.128,-0.057 0.216,-0.057 0.1,0 0.172,0.018 0.218,0.054 0.045,0.036 0.068,0.094 0.068,0.176l0 0.001 0 0.369c0,0.02 0.005,0.036 0.015,0.047 0.01,0.011 0.024,0.017 0.043,0.017 0.011,0 0.024,-0.003 0.038,-0.011 0.014,-0.007 0.023,-0.011 0.027,-0.011 0.006,0 0.011,0.002 0.015,0.007 0.004,0.005 0.006,0.011 0.006,0.018 0,0.021 -0.015,0.042 -0.044,0.063 -0.03,0.021 -0.063,0.032 -0.101,0.032 -0.036,0 -0.066,-0.01 -0.089,-0.03 -0.023,-0.02 -0.038,-0.049 -0.044,-0.085zm0.29 0.1l0 -0.065 0.071 -0.003c0.022,-0.001 0.037,-0.005 0.044,-0.012 0.006,-0.007 0.01,-0.023 0.01,-0.045l0 -0.469c0,-0.023 -0.003,-0.038 -0.01,-0.045 -0.007,-0.007 -0.021,-0.011 -0.043,-0.012l-0.072 -0.003 0 -0.065 0.287 0 0.199 0.538 0.191 -0.538 0.297 0 0 0.065 -0.072 0.003c-0.022,0.001 -0.036,0.005 -0.043,0.012 -0.006,0.007 -0.01,0.023 -0.01,0.045l0 0.469c0,0.023 0.003,0.038 0.01,0.045 0.007,0.007 0.021,0.011 0.043,0.012l0.071 0.003 0 0.065 -0.384 0 0 -0.065 0.071 -0.003c0.022,-0.001 0.037,-0.005 0.044,-0.012 0.007,-0.007 0.01,-0.023 0.01,-0.045l0 -0.524 -0.233 0.65 -0.054 0 -0.245 -0.65 0 0.524c0,0.023 0.003,0.038 0.01,0.045 0.007,0.007 0.021,0.011 0.043,0.012l0.071 0.003 0 0.065 -0.307 0zm1.561 -0.389c-0.116,0.015 -0.2,0.039 -0.253,0.071 -0.053,0.032 -0.079,0.075 -0.079,0.13 0,0.043 0.01,0.075 0.03,0.095 0.02,0.021 0.051,0.031 0.093,0.031 0.064,0 0.115,-0.02 0.153,-0.06 0.037,-0.039 0.056,-0.095 0.056,-0.165l0 -0.103zm0.009 0.289c-0.028,0.037 -0.068,0.067 -0.119,0.09 -0.051,0.023 -0.105,0.035 -0.161,0.035 -0.065,0 -0.117,-0.017 -0.156,-0.052 -0.039,-0.035 -0.059,-0.081 -0.059,-0.138 0,-0.075 0.038,-0.135 0.113,-0.181 0.075,-0.045 0.199,-0.082 0.372,-0.109l0 -0.112c0,-0.036 -0.015,-0.064 -0.043,-0.083 -0.029,-0.019 -0.07,-0.029 -0.124,-0.029 -0.041,0 -0.075,0.005 -0.101,0.016 -0.026,0.011 -0.039,0.024 -0.039,0.04 0,0.003 0.006,0.014 0.018,0.03 0.012,0.017 0.019,0.035 0.019,0.056 0,0.024 -0.007,0.044 -0.022,0.057 -0.014,0.014 -0.034,0.021 -0.059,0.021 -0.029,0 -0.052,-0.008 -0.068,-0.024 -0.016,-0.016 -0.024,-0.037 -0.024,-0.065 0,-0.057 0.028,-0.105 0.084,-0.143 0.056,-0.038 0.128,-0.057 0.216,-0.057 0.1,0 0.172,0.018 0.218,0.054 0.045,0.036 0.068,0.094 0.068,0.176l0 0.001 0 0.369c0,0.02 0.005,0.036 0.015,0.047 0.01,0.011 0.024,0.017 0.043,0.017 0.011,0 0.024,-0.003 0.038,-0.011 0.014,-0.007 0.023,-0.011 0.027,-0.011 0.006,0 0.011,0.002 0.015,0.007 0.004,0.005 0.006,0.011 0.006,0.018 0,0.021 -0.015,0.042 -0.044,0.063 -0.03,0.021 -0.063,0.032 -0.101,0.032 -0.036,0 -0.066,-0.01 -0.089,-0.03 -0.023,-0.02 -0.038,-0.049 -0.044,-0.085z"/>
  <path class="fil0" d="M18.82 2.783c-0.005,0.228 -0.023,0.421 -0.052,0.577 -0.03,0.157 -0.074,0.291 -0.133,0.402l0.466 0 0 -0.979 -0.281 0zm-0.256 -0.073l0.872 0 0 0.073 -0.101 0c-0.022,0 -0.038,0.006 -0.048,0.018 -0.01,0.012 -0.016,0.031 -0.016,0.057l0 0.905 0.165 0 0 0.384 -0.06 0c-0.008,-0.116 -0.034,-0.197 -0.076,-0.242 -0.043,-0.045 -0.115,-0.068 -0.217,-0.068l-0.351 0c-0.102,0 -0.174,0.023 -0.217,0.068 -0.043,0.045 -0.068,0.126 -0.077,0.242l-0.057 0 0 -0.384 0.159 0c0.059,-0.095 0.105,-0.216 0.14,-0.361 0.034,-0.146 0.051,-0.298 0.051,-0.457 0,-0.069 -0.008,-0.113 -0.023,-0.132 -0.015,-0.019 -0.045,-0.029 -0.089,-0.029l-0.055 0 0 -0.073zm1.476 0.404c0.089,0 0.155,0.014 0.197,0.042 0.042,0.028 0.063,0.072 0.063,0.132 0,0.047 -0.016,0.085 -0.047,0.114 -0.031,0.028 -0.077,0.047 -0.138,0.055 0.074,0.006 0.13,0.025 0.168,0.057 0.038,0.031 0.057,0.074 0.057,0.129 0,0.061 -0.024,0.109 -0.072,0.143 -0.048,0.034 -0.116,0.051 -0.204,0.051l-0.441 0 0 -0.065 0.071 -0.003c0.022,-0.001 0.036,-0.005 0.043,-0.012 0.007,-0.007 0.01,-0.022 0.01,-0.045l0 -0.469c0,-0.023 -0.003,-0.038 -0.01,-0.045 -0.007,-0.007 -0.021,-0.011 -0.042,-0.012l-0.072 -0.003 0 -0.065 0.416 0zm-0.149 0.376l0 0.22c0,0.023 0.004,0.039 0.012,0.048 0.008,0.009 0.022,0.013 0.041,0.013l0.067 0c0.063,0 0.108,-0.01 0.136,-0.031 0.028,-0.021 0.042,-0.055 0.042,-0.101 0,-0.054 -0.016,-0.093 -0.047,-0.115 -0.031,-0.022 -0.088,-0.034 -0.168,-0.034l-0.082 0zm0.109 -0.31l-0.056 0c-0.019,0 -0.032,0.004 -0.04,0.013 -0.008,0.009 -0.012,0.024 -0.012,0.048l0 0.19 0.075 0c0.076,0 0.128,-0.01 0.155,-0.029 0.027,-0.019 0.04,-0.054 0.04,-0.103 0,-0.042 -0.012,-0.072 -0.038,-0.091 -0.025,-0.019 -0.066,-0.028 -0.123,-0.028zm0.801 -0.027c-0.066,0 -0.114,0.026 -0.144,0.077 -0.03,0.051 -0.045,0.133 -0.045,0.246 0,0.112 0.015,0.193 0.045,0.244 0.03,0.051 0.078,0.077 0.143,0.077 0.068,0 0.116,-0.025 0.147,-0.076 0.03,-0.051 0.045,-0.133 0.045,-0.245 0,-0.113 -0.015,-0.195 -0.046,-0.246 -0.03,-0.051 -0.079,-0.077 -0.145,-0.077zm0 -0.064c0.103,0 0.187,0.036 0.252,0.108 0.065,0.072 0.097,0.165 0.097,0.279 0,0.115 -0.032,0.208 -0.097,0.279 -0.065,0.071 -0.149,0.107 -0.252,0.107 -0.103,0 -0.187,-0.036 -0.253,-0.107 -0.065,-0.071 -0.098,-0.164 -0.098,-0.278 0,-0.115 0.032,-0.208 0.097,-0.279 0.065,-0.071 0.149,-0.107 0.253,-0.107zm0.877 0.688c0.064,0 0.111,-0.024 0.141,-0.072 0.03,-0.048 0.045,-0.123 0.045,-0.226 0,-0.104 -0.014,-0.179 -0.043,-0.227 -0.029,-0.048 -0.074,-0.072 -0.136,-0.072 -0.068,0 -0.118,0.023 -0.149,0.07 -0.031,0.047 -0.047,0.123 -0.047,0.229 0,0.104 0.015,0.18 0.045,0.227 0.03,0.047 0.077,0.07 0.143,0.07zm-0.45 0.318l0.067 -0.003c0.022,-0.001 0.036,-0.005 0.042,-0.012 0.006,-0.007 0.01,-0.022 0.01,-0.044l0 -0.789c0,-0.027 -0.005,-0.044 -0.015,-0.053 -0.01,-0.008 -0.032,-0.012 -0.066,-0.012l-0.017 0c0,0 -0.001,0 -0.002,0 -0.007,0.001 -0.012,0.002 -0.018,0.002l0 -0.067 0.253 -0.019 0 0.134c0.029,-0.048 0.062,-0.083 0.1,-0.107 0.038,-0.023 0.081,-0.035 0.129,-0.035 0.091,0 0.166,0.036 0.226,0.108 0.06,0.073 0.089,0.165 0.089,0.278 0,0.111 -0.03,0.203 -0.091,0.277 -0.061,0.073 -0.136,0.11 -0.226,0.11 -0.048,0 -0.089,-0.009 -0.122,-0.026 -0.034,-0.017 -0.065,-0.046 -0.095,-0.086l0 0.285c0,0.022 0.003,0.037 0.01,0.044 0.007,0.007 0.021,0.011 0.043,0.012l0.065 0.003 0 0.065 -0.38 0 0 -0.065z"/>
  <path class="fil0" d="M9.378 12.527l0.074 0.009c-0.017,0.13 -0.065,0.232 -0.143,0.305 -0.078,0.073 -0.178,0.11 -0.298,0.11 -0.149,0 -0.272,-0.055 -0.37,-0.166 -0.098,-0.111 -0.147,-0.251 -0.147,-0.42 0,-0.172 0.048,-0.314 0.143,-0.426 0.096,-0.112 0.217,-0.168 0.364,-0.168 0.054,0 0.104,0.008 0.151,0.025 0.047,0.017 0.09,0.043 0.13,0.078l0.06 -0.097 0.059 0 0.021 0.454 -0.061 0.003c-0.023,-0.128 -0.063,-0.226 -0.121,-0.293 -0.058,-0.068 -0.13,-0.101 -0.217,-0.101 -0.109,0 -0.19,0.043 -0.244,0.129 -0.054,0.086 -0.081,0.216 -0.081,0.39 0,0.176 0.027,0.307 0.082,0.391 0.055,0.084 0.139,0.126 0.254,0.126 0.089,0 0.163,-0.03 0.222,-0.089 0.059,-0.059 0.1,-0.146 0.123,-0.259zm0.63 -0.022c0.021,0 0.036,-0.004 0.043,-0.011 0.008,-0.007 0.011,-0.02 0.011,-0.039 0,-0.07 -0.014,-0.124 -0.043,-0.162 -0.028,-0.038 -0.069,-0.056 -0.122,-0.056 -0.06,0 -0.104,0.022 -0.133,0.065 -0.029,0.044 -0.044,0.111 -0.046,0.203l0.289 0zm0.162 0.19l0.055 0.031c-0.034,0.073 -0.078,0.128 -0.134,0.164 -0.055,0.037 -0.12,0.055 -0.195,0.055 -0.1,0 -0.182,-0.036 -0.244,-0.107 -0.063,-0.071 -0.094,-0.164 -0.094,-0.278 0,-0.115 0.031,-0.208 0.094,-0.279 0.063,-0.071 0.144,-0.107 0.244,-0.107 0.101,0 0.181,0.033 0.241,0.099 0.06,0.066 0.089,0.155 0.089,0.267 0,0.003 -0,0.008 -0.001,0.015 -0.001,0.007 -0.001,0.012 -0.001,0.016l-0.508 0c0,0.004 -0,0.009 -0.001,0.016 -0.001,0.006 -0.001,0.011 -0.001,0.014 0,0.08 0.019,0.144 0.057,0.191 0.038,0.047 0.088,0.071 0.151,0.071 0.054,0 0.101,-0.014 0.143,-0.042 0.041,-0.028 0.076,-0.07 0.104,-0.126zm0.573 0.167c0.064,0 0.111,-0.024 0.141,-0.072 0.03,-0.048 0.045,-0.123 0.045,-0.226 0,-0.104 -0.014,-0.179 -0.043,-0.227 -0.029,-0.048 -0.074,-0.072 -0.136,-0.072 -0.068,0 -0.118,0.023 -0.149,0.07 -0.031,0.047 -0.047,0.123 -0.047,0.229 0,0.104 0.015,0.18 0.045,0.227 0.03,0.047 0.077,0.07 0.143,0.07zm-0.45 0.318l0.067 -0.003c0.022,-0.001 0.036,-0.005 0.042,-0.012 0.006,-0.007 0.01,-0.022 0.01,-0.044l0 -0.789c0,-0.027 -0.005,-0.044 -0.015,-0.053 -0.01,-0.008 -0.032,-0.012 -0.066,-0.012l-0.017 0c0,0 -0.001,0 -0.002,0 -0.007,0.001 -0.012,0.002 -0.018,0.002l0 -0.067 0.253 -0.019 0 0.134c0.029,-0.048 0.062,-0.083 0.1,-0.107 0.038,-0.023 0.081,-0.035 0.129,-0.035 0.091,0 0.166,0.036 0.226,0.108 0.06,0.073 0.089,0.165 0.089,0.278 0,0.111 -0.03,0.203 -0.091,0.277 -0.061,0.073 -0.136,0.11 -0.226,0.11 -0.048,0 -0.089,-0.009 -0.122,-0.026 -0.034,-0.017 -0.065,-0.046 -0.095,-0.086l0 0.285c0,0.022 0.003,0.037 0.01,0.044 0.007,0.007 0.021,0.011 0.043,0.012l0.065 0.003 0 0.065 -0.38 0 0 -0.065zm1.349 -0.675c0.021,0 0.036,-0.004 0.043,-0.011 0.008,-0.007 0.011,-0.02 0.011,-0.039 0,-0.07 -0.014,-0.124 -0.043,-0.162 -0.028,-0.038 -0.069,-0.056 -0.122,-0.056 -0.06,0 -0.104,0.022 -0.133,0.065 -0.029,0.044 -0.044,0.111 -0.046,0.203l0.289 0zm0.162 0.19l0.055 0.031c-0.034,0.073 -0.078,0.128 -0.134,0.164 -0.055,0.037 -0.12,0.055 -0.195,0.055 -0.1,0 -0.182,-0.036 -0.244,-0.107 -0.063,-0.071 -0.094,-0.164 -0.094,-0.278 0,-0.115 0.031,-0.208 0.094,-0.279 0.063,-0.071 0.144,-0.107 0.244,-0.107 0.101,0 0.181,0.033 0.241,0.099 0.06,0.066 0.089,0.155 0.089,0.267 0,0.003 -0,0.008 -0.001,0.015 -0.001,0.007 -0.001,0.012 -0.001,0.016l-0.508 0c0,0.004 -0,0.009 -0.001,0.016 -0.001,0.006 -0.001,0.011 -0.001,0.014 0,0.08 0.019,0.144 0.057,0.191 0.038,0.047 0.088,0.071 0.151,0.071 0.054,0 0.101,-0.014 0.143,-0.042 0.041,-0.028 0.076,-0.07 0.104,-0.126zm0.485 -0.457c-0.06,0 -0.104,0.027 -0.134,0.08 -0.03,0.053 -0.044,0.134 -0.044,0.243 0,0.109 0.015,0.189 0.045,0.243 0.03,0.053 0.075,0.08 0.136,0.08 0.059,0 0.103,-0.027 0.132,-0.08 0.029,-0.054 0.044,-0.134 0.044,-0.242 0,-0.11 -0.015,-0.191 -0.044,-0.243 -0.029,-0.053 -0.074,-0.079 -0.135,-0.079zm0.257 -0.469l0.056 0c-0.006,0.125 -0.083,0.201 -0.231,0.229 -0.021,0.004 -0.037,0.007 -0.049,0.009 -0.097,0.019 -0.167,0.052 -0.208,0.1 -0.041,0.047 -0.073,0.128 -0.094,0.241 0.031,-0.057 0.07,-0.101 0.117,-0.13 0.047,-0.029 0.1,-0.044 0.16,-0.044 0.096,0 0.175,0.036 0.237,0.109 0.062,0.073 0.093,0.165 0.093,0.278 0,0.113 -0.032,0.205 -0.097,0.277 -0.065,0.072 -0.146,0.108 -0.243,0.108 -0.108,0 -0.192,-0.039 -0.25,-0.117 -0.059,-0.078 -0.088,-0.19 -0.088,-0.335 0,-0.169 0.026,-0.305 0.078,-0.409 0.052,-0.104 0.128,-0.171 0.228,-0.201 0.034,-0.01 0.08,-0.02 0.139,-0.029 0.094,-0.015 0.144,-0.043 0.151,-0.086zm0.609 1.093c0.064,0 0.111,-0.024 0.141,-0.072 0.03,-0.048 0.045,-0.123 0.045,-0.226 0,-0.104 -0.014,-0.179 -0.043,-0.227 -0.029,-0.048 -0.074,-0.072 -0.136,-0.072 -0.068,0 -0.118,0.023 -0.149,0.07 -0.031,0.047 -0.047,0.123 -0.047,0.229 0,0.104 0.015,0.18 0.045,0.227 0.03,0.047 0.077,0.07 0.143,0.07zm-0.45 0.318l0.067 -0.003c0.022,-0.001 0.036,-0.005 0.042,-0.012 0.006,-0.007 0.01,-0.022 0.01,-0.044l0 -0.789c0,-0.027 -0.005,-0.044 -0.015,-0.053 -0.01,-0.008 -0.032,-0.012 -0.066,-0.012l-0.017 0c0,0 -0.001,0 -0.002,0 -0.007,0.001 -0.012,0.002 -0.018,0.002l0 -0.067 0.253 -0.019 0 0.134c0.029,-0.048 0.062,-0.083 0.1,-0.107 0.038,-0.023 0.081,-0.035 0.129,-0.035 0.091,0 0.166,0.036 0.226,0.108 0.06,0.073 0.089,0.165 0.089,0.278 0,0.111 -0.03,0.203 -0.091,0.277 -0.061,0.073 -0.136,0.11 -0.226,0.11 -0.048,0 -0.089,-0.009 -0.122,-0.026 -0.034,-0.017 -0.065,-0.046 -0.095,-0.086l0 0.285c0,0.022 0.003,0.037 0.01,0.044 0.007,0.007 0.021,0.011 0.043,0.012l0.065 0.003 0 0.065 -0.38 0 0 -0.065zm1.249 -0.942c-0.066,0 -0.114,0.026 -0.144,0.077 -0.03,0.051 -0.045,0.133 -0.045,0.246 0,0.112 0.015,0.193 0.045,0.244 0.03,0.051 0.078,0.077 0.143,0.077 0.068,0 0.116,-0.025 0.147,-0.076 0.03,-0.051 0.045,-0.133 0.045,-0.245 0,-0.113 -0.015,-0.195 -0.046,-0.246 -0.03,-0.051 -0.079,-0.077 -0.145,-0.077zm0 -0.064c0.103,0 0.187,0.036 0.252,0.108 0.065,0.072 0.097,0.165 0.097,0.279 0,0.115 -0.032,0.208 -0.097,0.279 -0.065,0.071 -0.149,0.107 -0.252,0.107 -0.103,0 -0.187,-0.036 -0.253,-0.107 -0.065,-0.071 -0.098,-0.164 -0.098,-0.278 0,-0.115 0.032,-0.208 0.097,-0.279 0.065,-0.071 0.149,-0.107 0.253,-0.107z"/>
  <path class="fil0" d="M5.249 0l1.194 0 0 0.073 -0.101 0c-0.022,0 -0.038,0.006 -0.048,0.018 -0.01,0.012 -0.016,0.031 -0.016,0.057l0 0.829c0,0.029 0.006,0.049 0.017,0.059 0.011,0.011 0.033,0.016 0.066,0.016l0.082 0 0 0.073 -0.499 0 0 -0.073 0.083 0c0.032,0 0.054,-0.005 0.065,-0.016 0.011,-0.011 0.017,-0.03 0.017,-0.059l0 -0.834c0,-0.027 -0.005,-0.046 -0.015,-0.057 -0.01,-0.011 -0.027,-0.016 -0.052,-0.016l-0.015 0 -0.383 0c-0.022,0 -0.038,0.006 -0.048,0.017 -0.01,0.011 -0.015,0.03 -0.015,0.056l0 0.834c0,0.029 0.005,0.049 0.016,0.059 0.011,0.011 0.032,0.016 0.064,0.016l0.083 0 0 0.073 -0.497 0 0 -0.073 0.081 0c0.032,0 0.054,-0.005 0.066,-0.016 0.011,-0.011 0.017,-0.03 0.017,-0.059l0 -0.829c0,-0.027 -0.005,-0.046 -0.016,-0.057 -0.01,-0.011 -0.028,-0.017 -0.051,-0.017l-0.016 0 -0.081 0 0 -0.073zm1.748 0.709c0.021,0 0.036,-0.004 0.043,-0.011 0.008,-0.007 0.011,-0.02 0.011,-0.039 0,-0.07 -0.014,-0.124 -0.043,-0.162 -0.028,-0.038 -0.069,-0.056 -0.122,-0.056 -0.06,0 -0.104,0.022 -0.133,0.065 -0.029,0.044 -0.044,0.111 -0.046,0.203l0.289 0zm0.162 0.19l0.055 0.031c-0.034,0.073 -0.078,0.128 -0.134,0.164 -0.055,0.037 -0.12,0.055 -0.195,0.055 -0.1,0 -0.182,-0.036 -0.244,-0.107 -0.063,-0.071 -0.094,-0.164 -0.094,-0.278 0,-0.115 0.031,-0.208 0.094,-0.279 0.063,-0.071 0.144,-0.107 0.244,-0.107 0.101,0 0.181,0.033 0.241,0.099 0.06,0.066 0.089,0.155 0.089,0.267 0,0.003 -0,0.008 -0.001,0.015 -0.001,0.007 -0.001,0.012 -0.001,0.016l-0.508 0c0,0.004 -0,0.009 -0.001,0.016 -0.001,0.006 -0.001,0.011 -0.001,0.014 0,0.08 0.019,0.144 0.057,0.191 0.038,0.047 0.088,0.071 0.151,0.071 0.054,0 0.101,-0.014 0.143,-0.042 0.041,-0.028 0.076,-0.07 0.104,-0.126zm0.287 0.226l0 -0.065 0.071 -0.003c0.022,-0.001 0.036,-0.005 0.043,-0.012 0.007,-0.007 0.01,-0.023 0.01,-0.045l0 -0.49c0,-0.015 -0.004,-0.026 -0.012,-0.033 -0.008,-0.007 -0.021,-0.01 -0.038,-0.01 -0.056,0 -0.096,0.016 -0.121,0.047 -0.025,0.031 -0.045,0.092 -0.061,0.183l-0.05 0 0.014 -0.292 0.678 0 0.016 0.292 -0.052 0c-0.017,-0.092 -0.037,-0.153 -0.062,-0.183 -0.024,-0.03 -0.064,-0.046 -0.119,-0.046 -0.019,0 -0.033,0.004 -0.04,0.012 -0.008,0.008 -0.011,0.022 -0.011,0.042l0 0.479c0,0.023 0.003,0.038 0.01,0.045 0.007,0.007 0.021,0.011 0.043,0.012l0.071 0.003 0 0.065 -0.391 0zm0.951 -0.019l-0.248 -0.571c-0.011,-0.025 -0.024,-0.042 -0.04,-0.052 -0.016,-0.01 -0.04,-0.015 -0.071,-0.015l-0.009 0 0 -0.065 0.363 0 0 0.065 -0.042 0 -0.021 0c-0.013,0 -0.022,0.003 -0.029,0.008 -0.007,0.006 -0.01,0.014 -0.01,0.024 0,0.004 0.002,0.011 0.004,0.019 0.003,0.009 0.007,0.018 0.012,0.029l0.165 0.381 0.155 -0.374c0.003,-0.005 0.005,-0.011 0.006,-0.017 0.002,-0.006 0.002,-0.012 0.002,-0.018 0,-0.02 -0.007,-0.033 -0.02,-0.04 -0.014,-0.007 -0.043,-0.011 -0.089,-0.012l-0.001 -0.065 0.302 0 0 0.065c-0.029,0 -0.052,0.006 -0.07,0.019 -0.018,0.013 -0.034,0.034 -0.047,0.064l-0.263 0.613c-0.045,0.103 -0.09,0.176 -0.137,0.219 -0.047,0.043 -0.102,0.065 -0.165,0.065 -0.044,0 -0.08,-0.011 -0.105,-0.032 -0.026,-0.022 -0.038,-0.051 -0.038,-0.088 0,-0.025 0.009,-0.047 0.027,-0.065 0.018,-0.018 0.04,-0.027 0.066,-0.027 0.025,0 0.045,0.007 0.06,0.022 0.014,0.015 0.022,0.034 0.022,0.06 0,0.009 -0.002,0.017 -0.006,0.025 -0.004,0.008 -0.006,0.013 -0.006,0.015 0,0.005 0.003,0.01 0.008,0.013 0.005,0.003 0.012,0.005 0.021,0.005 0.028,0 0.06,-0.022 0.096,-0.067 0.036,-0.045 0.069,-0.104 0.099,-0.177l0.011 -0.025zm0.454 0.019l0.001 -0.065c0.029,-0.003 0.053,-0.008 0.072,-0.016 0.019,-0.008 0.038,-0.025 0.059,-0.049l0.198 -0.222 -0.217 -0.26c-0.014,-0.016 -0.027,-0.027 -0.041,-0.034 -0.014,-0.006 -0.03,-0.01 -0.048,-0.01l-0.014 0 0 -0.065 0.36 0 0 0.06c-0.036,0.001 -0.06,0.003 -0.072,0.007 -0.011,0.004 -0.017,0.01 -0.017,0.019 0,0.009 0.006,0.02 0.018,0.035 0.002,0.002 0.004,0.004 0.005,0.006l0.112 0.137 0.108 -0.119c0.006,-0.007 0.01,-0.014 0.014,-0.022 0.004,-0.008 0.006,-0.015 0.006,-0.02 0,-0.015 -0.007,-0.026 -0.021,-0.033 -0.014,-0.007 -0.037,-0.01 -0.071,-0.011l0 -0.059 0.312 0 0 0.065c-0.028,0.002 -0.051,0.006 -0.069,0.014 -0.018,0.008 -0.039,0.024 -0.062,0.049l-0.175 0.194 0.2 0.259c0.001,0.002 0.003,0.004 0.005,0.006 0.036,0.048 0.08,0.072 0.131,0.072l0 0.064 -0.379 0 0.001 -0.065c0.035,-0.001 0.059,-0.004 0.072,-0.008 0.014,-0.005 0.021,-0.012 0.021,-0.021 0,-0.005 -0.002,-0.01 -0.004,-0.015 -0.003,-0.005 -0.009,-0.015 -0.019,-0.029l-0.114 -0.155 -0.128 0.137c-0.007,0.008 -0.013,0.016 -0.016,0.024 -0.004,0.008 -0.006,0.016 -0.006,0.024 0,0.015 0.007,0.026 0.021,0.032 0.014,0.006 0.04,0.01 0.078,0.01l0 0.065 -0.321 0z"/>
  <path class="fil0" d="M0.993 10.168l1.194 0 0 0.073 -0.101 0c-0.022,0 -0.038,0.006 -0.048,0.018 -0.01,0.012 -0.016,0.031 -0.016,0.057l0 0.829c0,0.029 0.006,0.049 0.017,0.059 0.011,0.011 0.033,0.016 0.066,0.016l0.082 0 0 0.073 -0.499 0 0 -0.073 0.083 0c0.032,0 0.054,-0.005 0.065,-0.016 0.011,-0.011 0.017,-0.03 0.017,-0.059l0 -0.834c0,-0.027 -0.005,-0.046 -0.015,-0.057 -0.01,-0.011 -0.027,-0.016 -0.052,-0.016l-0.015 0 -0.383 0c-0.022,0 -0.038,0.006 -0.048,0.017 -0.01,0.011 -0.015,0.03 -0.015,0.056l0 0.834c0,0.029 0.005,0.049 0.016,0.059 0.011,0.011 0.032,0.016 0.064,0.016l0.083 0 0 0.073 -0.497 0 0 -0.073 0.081 0c0.032,0 0.054,-0.005 0.066,-0.016 0.011,-0.011 0.017,-0.03 0.017,-0.059l0 -0.829c0,-0.027 -0.005,-0.046 -0.016,-0.057 -0.01,-0.011 -0.028,-0.017 -0.051,-0.017l-0.016 0 -0.081 0 0 -0.073zm1.722 1.067c0.064,0 0.111,-0.024 0.141,-0.072 0.03,-0.048 0.045,-0.123 0.045,-0.226 0,-0.104 -0.014,-0.179 -0.043,-0.227 -0.029,-0.048 -0.074,-0.072 -0.136,-0.072 -0.068,0 -0.118,0.023 -0.149,0.07 -0.031,0.047 -0.047,0.123 -0.047,0.229 0,0.104 0.015,0.18 0.045,0.227 0.03,0.047 0.077,0.07 0.143,0.07zm-0.45 0.318l0.067 -0.003c0.022,-0.001 0.036,-0.005 0.042,-0.012 0.006,-0.007 0.01,-0.022 0.01,-0.044l0 -0.789c0,-0.027 -0.005,-0.044 -0.015,-0.053 -0.01,-0.008 -0.032,-0.012 -0.066,-0.012l-0.017 0c0,0 -0.001,0 -0.002,0 -0.007,0.001 -0.012,0.002 -0.018,0.002l0 -0.067 0.253 -0.019 0 0.134c0.029,-0.048 0.062,-0.083 0.1,-0.107 0.038,-0.023 0.081,-0.035 0.129,-0.035 0.091,0 0.166,0.036 0.226,0.108 0.06,0.073 0.089,0.165 0.089,0.278 0,0.111 -0.03,0.203 -0.091,0.277 -0.061,0.073 -0.136,0.11 -0.226,0.11 -0.048,0 -0.089,-0.009 -0.122,-0.026 -0.034,-0.017 -0.065,-0.046 -0.095,-0.086l0 0.285c0,0.022 0.003,0.037 0.01,0.044 0.007,0.007 0.021,0.011 0.043,0.012l0.065 0.003 0 0.065 -0.381 0 0 -0.065zm1.349 -0.675c0.021,0 0.036,-0.004 0.043,-0.011 0.008,-0.007 0.011,-0.02 0.011,-0.039 0,-0.07 -0.014,-0.124 -0.043,-0.162 -0.028,-0.038 -0.069,-0.056 -0.122,-0.056 -0.06,0 -0.104,0.022 -0.133,0.065 -0.029,0.044 -0.044,0.111 -0.046,0.203l0.289 0zm0.162 0.19l0.055 0.031c-0.034,0.073 -0.078,0.128 -0.134,0.164 -0.055,0.037 -0.12,0.055 -0.195,0.055 -0.1,0 -0.182,-0.036 -0.244,-0.107 -0.063,-0.071 -0.094,-0.164 -0.094,-0.278 0,-0.115 0.031,-0.208 0.094,-0.279 0.063,-0.071 0.144,-0.107 0.244,-0.107 0.101,0 0.181,0.033 0.241,0.099 0.06,0.066 0.089,0.155 0.089,0.267 0,0.003 -0,0.008 -0.001,0.015 -0.001,0.007 -0.001,0.012 -0.001,0.016l-0.508 0c0,0.004 -0,0.009 -0.001,0.016 -0.001,0.006 -0.001,0.011 -0.001,0.014 0,0.08 0.019,0.144 0.057,0.191 0.038,0.047 0.088,0.071 0.151,0.071 0.054,0 0.101,-0.014 0.143,-0.042 0.041,-0.028 0.076,-0.07 0.104,-0.126zm0.301 0.16l0.323 0 0 -0.589 -0.078 0c-0.046,0 -0.078,0.008 -0.095,0.025 -0.017,0.017 -0.029,0.065 -0.038,0.145 -0.011,0.097 -0.025,0.18 -0.043,0.247 -0.018,0.067 -0.041,0.124 -0.07,0.173zm0.59 -0.656l0 0.067 -0.072 0.002c-0.021,0.001 -0.035,0.005 -0.042,0.012 -0.006,0.007 -0.01,0.022 -0.01,0.046l0 0.469c0,0.023 0.003,0.038 0.01,0.045 0.006,0.007 0.021,0.011 0.042,0.012l0.071 0.003 0 0.279 -0.057 0c-0.009,-0.084 -0.028,-0.14 -0.059,-0.169 -0.031,-0.029 -0.106,-0.044 -0.226,-0.044l-0.111 0c-0.105,0 -0.172,0.015 -0.203,0.044 -0.031,0.029 -0.05,0.086 -0.059,0.169l-0.059 0 0 -0.279 0.02 0c0.038,0 0.068,-0.008 0.089,-0.023 0.021,-0.016 0.04,-0.044 0.058,-0.086 0.021,-0.048 0.039,-0.11 0.054,-0.187 0.015,-0.076 0.023,-0.143 0.023,-0.202 0,-0.037 -0.005,-0.061 -0.014,-0.072 -0.009,-0.011 -0.029,-0.017 -0.061,-0.018l-0.061 -0.002 0 -0.067 0.667 0zm0.072 0.722l0 -0.065 0.071 -0.003c0.022,-0.001 0.037,-0.005 0.044,-0.012 0.006,-0.007 0.01,-0.023 0.01,-0.045l0 -0.469c0,-0.023 -0.003,-0.038 -0.01,-0.045 -0.007,-0.007 -0.021,-0.011 -0.043,-0.012l-0.072 -0.003 0 -0.065 0.287 0 0.199 0.538 0.191 -0.538 0.297 0 0 0.065 -0.072 0.003c-0.022,0.001 -0.036,0.005 -0.043,0.012 -0.006,0.007 -0.01,0.023 -0.01,0.045l0 0.469c0,0.023 0.003,0.038 0.01,0.045 0.007,0.007 0.021,0.011 0.043,0.012l0.071 0.003 0 0.065 -0.384 0 0 -0.065 0.071 -0.003c0.022,-0.001 0.037,-0.005 0.044,-0.012 0.007,-0.007 0.01,-0.023 0.01,-0.045l0 -0.524 -0.233 0.65 -0.054 0 -0.245 -0.65 0 0.524c0,0.023 0.003,0.038 0.01,0.045 0.007,0.007 0.021,0.011 0.043,0.012l0.071 0.003 0 0.065 -0.307 0zm1.526 -0.416c0.021,0 0.036,-0.004 0.043,-0.011 0.008,-0.007 0.011,-0.02 0.011,-0.039 0,-0.07 -0.014,-0.124 -0.043,-0.162 -0.028,-0.038 -0.069,-0.056 -0.122,-0.056 -0.06,0 -0.104,0.022 -0.133,0.065 -0.029,0.044 -0.044,0.111 -0.046,0.203l0.289 0zm0.162 0.19l0.055 0.031c-0.034,0.073 -0.078,0.128 -0.134,0.164 -0.055,0.037 -0.12,0.055 -0.195,0.055 -0.1,0 -0.182,-0.036 -0.244,-0.107 -0.063,-0.071 -0.094,-0.164 -0.094,-0.278 0,-0.115 0.031,-0.208 0.094,-0.279 0.063,-0.071 0.144,-0.107 0.244,-0.107 0.101,0 0.181,0.033 0.241,0.099 0.06,0.066 0.089,0.155 0.089,0.267 0,0.003 -0,0.008 -0.001,0.015 -0.001,0.007 -0.001,0.012 -0.001,0.016l-0.508 0c0,0.004 -0,0.009 -0.001,0.016 -0.001,0.006 -0.001,0.011 -0.001,0.014 0,0.08 0.019,0.144 0.057,0.191 0.038,0.047 0.088,0.071 0.151,0.071 0.054,0 0.101,-0.014 0.143,-0.042 0.041,-0.028 0.076,-0.07 0.104,-0.126zm0.287 0.226l0 -0.065 0.071 -0.003c0.022,-0.001 0.036,-0.005 0.043,-0.012 0.007,-0.007 0.01,-0.023 0.01,-0.045l0 -0.49c0,-0.015 -0.004,-0.026 -0.012,-0.033 -0.008,-0.007 -0.021,-0.01 -0.038,-0.01 -0.056,0 -0.096,0.016 -0.121,0.047 -0.025,0.031 -0.045,0.092 -0.061,0.183l-0.05 0 0.014 -0.292 0.678 0 0.016 0.292 -0.052 0c-0.017,-0.092 -0.037,-0.153 -0.062,-0.183 -0.024,-0.03 -0.064,-0.046 -0.119,-0.046 -0.019,0 -0.033,0.004 -0.04,0.012 -0.008,0.008 -0.011,0.022 -0.011,0.042l0 0.479c0,0.023 0.003,0.038 0.01,0.045 0.007,0.007 0.021,0.011 0.043,0.012l0.071 0.003 0 0.065 -0.391 0z"/>
  <path class="fil0" d="M-0 3.818l0 -0.073 0.081 0c0.032,0 0.054,-0.005 0.066,-0.016 0.011,-0.011 0.017,-0.03 0.017,-0.059l0 -0.829c0,-0.027 -0.005,-0.046 -0.016,-0.057 -0.01,-0.011 -0.028,-0.017 -0.051,-0.017l-0.016 0 -0.081 0 0 -0.073 0.913 0 0.02 0.398 -0.067 0c-0.022,-0.133 -0.056,-0.221 -0.104,-0.264 -0.048,-0.043 -0.146,-0.064 -0.295,-0.064 -0.059,0 -0.096,0.005 -0.11,0.015 -0.015,0.01 -0.022,0.031 -0.022,0.063l0 0.829c0,0.029 0.005,0.049 0.017,0.06 0.011,0.01 0.037,0.016 0.077,0.016l0.07 0 0 0.073 -0.497 0zm1.483 -0.389c-0.116,0.015 -0.2,0.039 -0.253,0.071 -0.053,0.032 -0.079,0.075 -0.079,0.13 0,0.043 0.01,0.075 0.03,0.095 0.02,0.021 0.051,0.031 0.093,0.031 0.064,0 0.115,-0.02 0.153,-0.06 0.037,-0.039 0.056,-0.095 0.056,-0.165l0 -0.103zm0.009 0.289c-0.028,0.037 -0.068,0.067 -0.119,0.09 -0.051,0.023 -0.105,0.035 -0.161,0.035 -0.065,0 -0.117,-0.017 -0.156,-0.052 -0.039,-0.035 -0.059,-0.081 -0.059,-0.138 0,-0.075 0.038,-0.135 0.113,-0.181 0.075,-0.045 0.199,-0.082 0.372,-0.109l0 -0.112c0,-0.036 -0.015,-0.064 -0.043,-0.083 -0.029,-0.019 -0.07,-0.029 -0.124,-0.029 -0.041,0 -0.075,0.005 -0.101,0.016 -0.026,0.011 -0.039,0.024 -0.039,0.04 0,0.003 0.006,0.014 0.018,0.03 0.012,0.017 0.019,0.035 0.019,0.056 0,0.024 -0.007,0.044 -0.022,0.057 -0.014,0.014 -0.034,0.021 -0.059,0.021 -0.029,0 -0.052,-0.008 -0.068,-0.024 -0.016,-0.016 -0.024,-0.037 -0.024,-0.065 0,-0.057 0.028,-0.105 0.084,-0.143 0.056,-0.038 0.128,-0.057 0.216,-0.057 0.1,0 0.172,0.018 0.218,0.054 0.045,0.036 0.068,0.094 0.068,0.176l0 0.001 0 0.369c0,0.02 0.005,0.036 0.015,0.047 0.01,0.011 0.024,0.017 0.043,0.017 0.011,0 0.024,-0.003 0.038,-0.011 0.014,-0.007 0.023,-0.011 0.027,-0.011 0.006,0 0.011,0.002 0.015,0.007 0.004,0.005 0.006,0.011 0.006,0.018 0,0.021 -0.015,0.042 -0.044,0.063 -0.03,0.021 -0.063,0.032 -0.101,0.032 -0.036,0 -0.066,-0.01 -0.089,-0.03 -0.023,-0.02 -0.038,-0.049 -0.044,-0.085zm0.746 0.041c0.064,0 0.111,-0.024 0.141,-0.072 0.03,-0.048 0.045,-0.123 0.045,-0.226 0,-0.104 -0.014,-0.179 -0.043,-0.227 -0.029,-0.048 -0.074,-0.072 -0.136,-0.072 -0.068,0 -0.118,0.023 -0.149,0.07 -0.031,0.047 -0.047,0.123 -0.047,0.229 0,0.104 0.015,0.18 0.045,0.227 0.03,0.047 0.077,0.07 0.143,0.07zm-0.45 0.318l0.067 -0.003c0.022,-0.001 0.036,-0.005 0.042,-0.012 0.006,-0.007 0.01,-0.022 0.01,-0.044l0 -0.789c0,-0.027 -0.005,-0.044 -0.015,-0.053 -0.01,-0.008 -0.032,-0.012 -0.066,-0.012l-0.017 0c0,0 -0.001,0 -0.002,0 -0.007,0.001 -0.012,0.002 -0.018,0.002l0 -0.067 0.253 -0.019 0 0.134c0.029,-0.048 0.062,-0.083 0.1,-0.107 0.038,-0.023 0.081,-0.035 0.129,-0.035 0.091,0 0.166,0.036 0.226,0.108 0.06,0.073 0.089,0.165 0.089,0.278 0,0.111 -0.03,0.203 -0.091,0.277 -0.061,0.073 -0.136,0.11 -0.226,0.11 -0.048,0 -0.089,-0.009 -0.122,-0.026 -0.034,-0.017 -0.065,-0.046 -0.095,-0.086l0 0.285c0,0.022 0.003,0.037 0.01,0.044 0.007,0.007 0.021,0.011 0.043,0.012l0.065 0.003 0 0.065 -0.38 0 0 -0.065zm0.867 -0.259l0 -0.065 0.071 -0.003c0.022,-0.001 0.037,-0.005 0.044,-0.012 0.006,-0.007 0.01,-0.023 0.01,-0.045l0 -0.469c0,-0.023 -0.003,-0.038 -0.01,-0.045 -0.007,-0.007 -0.021,-0.011 -0.043,-0.012l-0.072 -0.003 0 -0.065 0.287 0 0.199 0.538 0.191 -0.538 0.297 0 0 0.065 -0.072 0.003c-0.022,0.001 -0.036,0.005 -0.043,0.012 -0.006,0.007 -0.01,0.023 -0.01,0.045l0 0.469c0,0.023 0.003,0.038 0.01,0.045 0.007,0.007 0.021,0.011 0.043,0.012l0.072 0.003 0 0.065 -0.384 0 0 -0.065 0.071 -0.003c0.022,-0.001 0.037,-0.005 0.044,-0.012 0.007,-0.007 0.01,-0.023 0.01,-0.045l0 -0.524 -0.233 0.65 -0.054 0 -0.245 -0.65 0 0.524c0,0.023 0.003,0.038 0.01,0.045 0.007,0.007 0.021,0.011 0.043,0.012l0.071 0.003 0 0.065 -0.307 0zm1.427 -0.683c-0.066,0 -0.114,0.026 -0.144,0.077 -0.03,0.051 -0.045,0.133 -0.045,0.246 0,0.112 0.015,0.193 0.045,0.244 0.03,0.051 0.078,0.077 0.143,0.077 0.068,0 0.116,-0.025 0.147,-0.076 0.03,-0.051 0.045,-0.133 0.045,-0.245 0,-0.113 -0.015,-0.195 -0.046,-0.246 -0.03,-0.051 -0.079,-0.077 -0.145,-0.077zm0 -0.064c0.103,0 0.187,0.036 0.252,0.108 0.065,0.072 0.097,0.165 0.097,0.279 0,0.115 -0.032,0.208 -0.097,0.279 -0.065,0.071 -0.149,0.107 -0.252,0.107 -0.103,0 -0.187,-0.036 -0.253,-0.107 -0.065,-0.071 -0.098,-0.164 -0.098,-0.278 0,-0.115 0.032,-0.208 0.097,-0.279 0.065,-0.071 0.149,-0.107 0.253,-0.107zm1.033 0.152c0,-0.023 -0.003,-0.038 -0.01,-0.045 -0.007,-0.007 -0.021,-0.011 -0.042,-0.012l-0.072 -0.003 0 -0.065 0.39 0 0 0.065 -0.071 0.003c-0.022,0.001 -0.036,0.005 -0.043,0.012 -0.006,0.007 -0.01,0.023 -0.01,0.045l0 0.469c0,0.023 0.003,0.038 0.01,0.045 0.007,0.007 0.021,0.011 0.043,0.012l0.07 0.003 0 0.065 -0.39 0 0 -0.065 0.071 -0.003c0.022,-0.001 0.037,-0.005 0.044,-0.012 0.006,-0.007 0.01,-0.022 0.01,-0.045l0 -0.217 -0.324 0 0 0.217c0,0.023 0.003,0.038 0.01,0.045 0.006,0.007 0.021,0.011 0.043,0.012l0.071 0.003 0 0.065 -0.39 0 0 -0.065 0.071 -0.003c0.021,-0.001 0.035,-0.005 0.042,-0.012 0.006,-0.007 0.01,-0.022 0.01,-0.045l0 -0.469c0,-0.023 -0.003,-0.039 -0.01,-0.046 -0.006,-0.007 -0.02,-0.011 -0.041,-0.012l-0.072 -0.003 0 -0.065 0.39 0 0 0.065 -0.071 0.003c-0.021,0.001 -0.035,0.005 -0.042,0.012 -0.006,0.007 -0.01,0.022 -0.01,0.046l0 0.184 0.324 0 0 -0.184zm0.622 0.17l0.154 0c0.098,0 0.172,0.018 0.223,0.054 0.051,0.036 0.077,0.087 0.077,0.155 0,0.071 -0.024,0.125 -0.071,0.162 -0.047,0.037 -0.116,0.055 -0.207,0.055l-0.442 0 0 -0.065 0.071 -0.003c0.022,-0.001 0.036,-0.005 0.043,-0.012 0.007,-0.007 0.01,-0.023 0.01,-0.045l0 -0.469c0,-0.023 -0.003,-0.038 -0.01,-0.045 -0.007,-0.007 -0.021,-0.011 -0.042,-0.012l-0.072 -0.003 0 -0.065 0.391 0 0 0.065 -0.072 0.003c-0.022,0.001 -0.036,0.005 -0.043,0.012 -0.006,0.007 -0.01,0.023 -0.01,0.045l0 0.17zm0 0.065l0 0.237c0,0.023 0.004,0.039 0.011,0.047 0.007,0.008 0.021,0.011 0.042,0.011l0.061 0c0.064,0 0.11,-0.011 0.138,-0.033 0.028,-0.022 0.042,-0.057 0.042,-0.106 0,-0.057 -0.016,-0.098 -0.048,-0.121 -0.032,-0.023 -0.088,-0.035 -0.169,-0.035l-0.076 0z"/>
  <path class="fil0" d="M12.35 0.336l0 0.406c0.011,0.002 0.022,0.003 0.035,0.004 0.012,0.001 0.032,0.001 0.058,0.001 0.132,0 0.222,-0.018 0.271,-0.055 0.049,-0.037 0.073,-0.101 0.073,-0.193 0,-0.087 -0.02,-0.148 -0.061,-0.185 -0.04,-0.036 -0.111,-0.054 -0.214,-0.054l-0.082 0c-0.004,0 -0.007,0 -0.011,0.001 -0.001,0.001 -0.002,0.001 -0.002,0.001 -0.024,0 -0.042,0.005 -0.052,0.016 -0.01,0.011 -0.015,0.03 -0.015,0.059zm-0.334 0.979l0 -0.073 0.081 0c0.032,0 0.054,-0.005 0.066,-0.016 0.011,-0.011 0.017,-0.03 0.017,-0.059l0 -0.829c0,-0.027 -0.005,-0.046 -0.016,-0.057 -0.01,-0.011 -0.028,-0.017 -0.051,-0.017l-0.016 0 -0.081 0 0 -0.073 0.537 0c0.144,0 0.25,0.025 0.316,0.075 0.066,0.05 0.099,0.128 0.099,0.236 0,0.106 -0.038,0.186 -0.116,0.239 -0.077,0.053 -0.193,0.08 -0.346,0.08 -0.037,0 -0.067,-0 -0.09,-0.001 -0.023,-0.001 -0.045,-0.002 -0.067,-0.003l0 0.353c0,0.029 0.005,0.049 0.016,0.059 0.011,0.011 0.032,0.016 0.064,0.016l0.097 0 0 0.073 -0.511 0zm1.416 -0.683c-0.066,0 -0.114,0.026 -0.145,0.077 -0.03,0.051 -0.045,0.133 -0.045,0.246 0,0.112 0.015,0.193 0.045,0.244 0.03,0.051 0.078,0.077 0.143,0.077 0.068,0 0.116,-0.025 0.147,-0.076 0.03,-0.051 0.045,-0.133 0.045,-0.245 0,-0.113 -0.015,-0.195 -0.046,-0.246 -0.03,-0.051 -0.079,-0.077 -0.145,-0.077zm0 -0.064c0.103,0 0.187,0.036 0.252,0.108 0.065,0.072 0.097,0.165 0.097,0.279 0,0.115 -0.032,0.208 -0.097,0.279 -0.065,0.071 -0.149,0.107 -0.252,0.107 -0.103,0 -0.187,-0.036 -0.253,-0.107 -0.065,-0.071 -0.098,-0.164 -0.098,-0.278 0,-0.115 0.032,-0.208 0.097,-0.279 0.065,-0.071 0.149,-0.107 0.253,-0.107zm1.702 0.681l0 0.279 -0.06 0c-0.009,-0.084 -0.028,-0.14 -0.059,-0.169 -0.031,-0.029 -0.106,-0.044 -0.225,-0.044l-0.903 0 0 -0.065 0.057 -0.003c0.022,-0.001 0.035,-0.005 0.042,-0.012 0.006,-0.007 0.01,-0.022 0.01,-0.046l0 -0.469c0,-0.023 -0.003,-0.038 -0.01,-0.045 -0.006,-0.007 -0.02,-0.011 -0.042,-0.012l-0.058 -0.003 0 -0.065 0.362 0 0 0.065 -0.058 0.003c-0.021,0.001 -0.035,0.005 -0.042,0.012 -0.006,0.007 -0.01,0.021 -0.01,0.042l0 0.474c0,0.024 0.004,0.039 0.011,0.047 0.007,0.007 0.021,0.011 0.041,0.011l0.195 0c0.02,0 0.034,-0.004 0.042,-0.011 0.008,-0.008 0.011,-0.023 0.011,-0.047l0 -0.469c0,-0.023 -0.003,-0.038 -0.01,-0.045 -0.007,-0.007 -0.021,-0.011 -0.042,-0.012l-0.058 -0.003 0 -0.065 0.362 0 0 0.065 -0.056 0.003c-0.022,0.001 -0.036,0.005 -0.042,0.012 -0.007,0.007 -0.01,0.021 -0.01,0.041l0 0.474c0,0.023 0.004,0.039 0.011,0.047 0.007,0.008 0.021,0.011 0.042,0.011l0.193 0c0.021,0 0.034,-0.004 0.042,-0.011 0.008,-0.008 0.011,-0.023 0.011,-0.047l0 -0.469c0,-0.023 -0.003,-0.038 -0.01,-0.045 -0.007,-0.007 -0.021,-0.011 -0.043,-0.012l-0.056 -0.003 0 -0.065 0.362 0 0 0.065 -0.058 0.003c-0.022,0.001 -0.037,0.005 -0.043,0.012 -0.006,0.007 -0.01,0.022 -0.01,0.045l0 0.469c0,0.023 0.003,0.039 0.01,0.046 0.007,0.007 0.021,0.011 0.044,0.012l0.057 0.003zm0.591 -0.323c-0.116,0.015 -0.2,0.039 -0.253,0.071 -0.053,0.032 -0.079,0.075 -0.079,0.13 0,0.043 0.01,0.075 0.03,0.095 0.02,0.021 0.051,0.031 0.093,0.031 0.064,0 0.115,-0.02 0.153,-0.06 0.037,-0.039 0.056,-0.095 0.056,-0.165l0 -0.103zm0.009 0.289c-0.028,0.037 -0.068,0.067 -0.119,0.09 -0.051,0.023 -0.105,0.035 -0.161,0.035 -0.065,0 -0.117,-0.017 -0.156,-0.052 -0.039,-0.035 -0.059,-0.081 -0.059,-0.138 0,-0.075 0.038,-0.135 0.113,-0.181 0.075,-0.045 0.199,-0.082 0.372,-0.109l0 -0.112c0,-0.036 -0.015,-0.064 -0.043,-0.083 -0.029,-0.019 -0.07,-0.029 -0.124,-0.029 -0.041,0 -0.075,0.005 -0.101,0.016 -0.026,0.011 -0.039,0.024 -0.039,0.04 0,0.003 0.006,0.014 0.018,0.03 0.012,0.017 0.019,0.035 0.019,0.056 0,0.024 -0.007,0.044 -0.022,0.057 -0.014,0.014 -0.034,0.021 -0.059,0.021 -0.029,0 -0.052,-0.008 -0.068,-0.024 -0.016,-0.016 -0.024,-0.037 -0.024,-0.065 0,-0.057 0.028,-0.105 0.084,-0.143 0.056,-0.038 0.128,-0.057 0.216,-0.057 0.1,0 0.172,0.018 0.218,0.054 0.045,0.036 0.068,0.094 0.068,0.176l0 0.001 0 0.369c0,0.02 0.005,0.036 0.015,0.047 0.01,0.011 0.024,0.017 0.043,0.017 0.011,0 0.024,-0.003 0.038,-0.011 0.014,-0.007 0.023,-0.011 0.027,-0.011 0.006,0 0.011,0.002 0.015,0.007 0.004,0.005 0.006,0.011 0.006,0.018 0,0.021 -0.015,0.042 -0.044,0.063 -0.03,0.021 -0.063,0.032 -0.101,0.032 -0.036,0 -0.066,-0.01 -0.089,-0.03 -0.023,-0.02 -0.038,-0.049 -0.044,-0.085z"/>
  <path class="fil0" d="M16.488 11.56l0 -0.073 0.081 0c0.032,0 0.054,-0.005 0.066,-0.016 0.011,-0.011 0.017,-0.03 0.017,-0.059l0 -0.829c0,-0.027 -0.005,-0.046 -0.016,-0.057 -0.01,-0.011 -0.028,-0.017 -0.051,-0.017l-0.016 0 -0.081 0 0 -0.073 0.913 0 0.02 0.398 -0.067 0c-0.022,-0.133 -0.056,-0.221 -0.104,-0.264 -0.048,-0.043 -0.146,-0.064 -0.295,-0.064 -0.059,0 -0.096,0.005 -0.11,0.015 -0.015,0.01 -0.022,0.031 -0.022,0.063l0 0.829c0,0.029 0.005,0.049 0.017,0.06 0.011,0.01 0.037,0.016 0.077,0.016l0.07 0 0 0.073 -0.497 0zm1.349 -0.683c-0.066,0 -0.114,0.026 -0.144,0.077 -0.03,0.051 -0.045,0.133 -0.045,0.246 0,0.112 0.015,0.193 0.045,0.244 0.03,0.051 0.078,0.077 0.143,0.077 0.068,0 0.116,-0.025 0.147,-0.076 0.03,-0.051 0.045,-0.133 0.045,-0.245 0,-0.113 -0.015,-0.195 -0.046,-0.246 -0.03,-0.051 -0.079,-0.077 -0.145,-0.077zm0 -0.064c0.103,0 0.187,0.036 0.252,0.108 0.065,0.072 0.097,0.165 0.097,0.279 0,0.115 -0.032,0.208 -0.097,0.279 -0.065,0.071 -0.149,0.107 -0.252,0.107 -0.103,0 -0.187,-0.036 -0.253,-0.107 -0.065,-0.071 -0.098,-0.164 -0.098,-0.278 0,-0.115 0.032,-0.208 0.097,-0.279 0.065,-0.071 0.149,-0.107 0.253,-0.107zm0.605 0.681l0.323 0 0 -0.589 -0.078 0c-0.046,0 -0.078,0.008 -0.095,0.025 -0.017,0.017 -0.029,0.065 -0.038,0.145 -0.011,0.097 -0.025,0.18 -0.043,0.247 -0.018,0.067 -0.041,0.124 -0.07,0.173zm0.59 -0.656l0 0.067 -0.072 0.002c-0.021,0.001 -0.035,0.005 -0.042,0.012 -0.006,0.007 -0.01,0.022 -0.01,0.046l0 0.469c0,0.023 0.003,0.038 0.01,0.045 0.006,0.007 0.021,0.011 0.042,0.012l0.071 0.003 0 0.279 -0.057 0c-0.009,-0.084 -0.028,-0.14 -0.059,-0.169 -0.031,-0.029 -0.106,-0.044 -0.226,-0.044l-0.111 0c-0.105,0 -0.172,0.015 -0.203,0.044 -0.031,0.029 -0.05,0.086 -0.059,0.169l-0.059 0 0 -0.279 0.02 0c0.038,0 0.068,-0.008 0.089,-0.023 0.021,-0.016 0.04,-0.044 0.058,-0.086 0.021,-0.048 0.039,-0.11 0.054,-0.187 0.015,-0.076 0.023,-0.143 0.023,-0.202 0,-0.037 -0.005,-0.061 -0.014,-0.072 -0.009,-0.011 -0.029,-0.017 -0.061,-0.018l-0.061 -0.002 0 -0.067 0.667 0z"/>
 </g>
</svg>
