<?xml version="1.0" encoding="UTF-8"?>
<!DOCTYPE svg PUBLIC "-//W3C//DTD SVG 1.1//EN" "http://www.w3.org/Graphics/SVG/1.1/DTD/svg11.dtd">
<!-- Creator: CorelDRAW -->
<svg xmlns="http://www.w3.org/2000/svg" xml:space="preserve" width="80.7799mm" height="54.4087mm" version="1.1" style="shape-rendering:geometricPrecision; text-rendering:geometricPrecision; image-rendering:optimizeQuality; fill-rule:evenodd; clip-rule:evenodd"
viewBox="0 0 145.75 98.17"
 xmlns:xlink="http://www.w3.org/1999/xlink"
 xmlns:xodm="http://www.corel.com/coreldraw/odm/2003">
 <defs>
  <style type="text/css">
   <![CDATA[
    .fil0 {fill:#656551;fill-rule:nonzero}
   ]]>
  </style>
 </defs>
 <g id="Слой_x0020_1">
  <metadata id="CorelCorpID_0Corel-Layer"/>
  <path class="fil0" d="M55.7 98.07l0 -6.79 2.56 0c0.45,0 0.79,0.02 1.03,0.06 0.33,0.06 0.61,0.16 0.84,0.32 0.23,0.16 0.41,0.37 0.55,0.65 0.14,0.28 0.21,0.59 0.21,0.92 0,0.58 -0.18,1.06 -0.55,1.46 -0.37,0.4 -1.03,0.6 -1.99,0.6l-1.74 0 0 2.77 -0.9 0zm0.9 -3.56l1.75 0c0.58,0 0.99,-0.11 1.24,-0.32 0.24,-0.22 0.37,-0.52 0.37,-0.91 0,-0.28 -0.07,-0.53 -0.21,-0.73 -0.14,-0.2 -0.33,-0.34 -0.57,-0.4 -0.15,-0.04 -0.43,-0.06 -0.84,-0.06l-1.74 0 0 2.43z"/>
  <path id="_1" class="fil0" d="M64.82 97.45c-0.31,0.26 -0.61,0.45 -0.89,0.56 -0.29,0.11 -0.59,0.16 -0.92,0.16 -0.54,0 -0.96,-0.13 -1.25,-0.39 -0.29,-0.26 -0.44,-0.6 -0.44,-1.01 0,-0.24 0.06,-0.46 0.16,-0.66 0.11,-0.2 0.25,-0.36 0.43,-0.48 0.18,-0.12 0.38,-0.21 0.6,-0.27 0.16,-0.04 0.41,-0.08 0.74,-0.12 0.67,-0.08 1.17,-0.18 1.49,-0.29 0,-0.11 0,-0.19 0,-0.22 0,-0.34 -0.08,-0.58 -0.24,-0.72 -0.21,-0.19 -0.53,-0.28 -0.95,-0.28 -0.39,0 -0.68,0.07 -0.87,0.21 -0.19,0.14 -0.33,0.38 -0.42,0.73l-0.82 -0.11c0.07,-0.35 0.2,-0.63 0.37,-0.85 0.17,-0.21 0.42,-0.38 0.74,-0.5 0.32,-0.12 0.7,-0.17 1.12,-0.17 0.42,0 0.76,0.05 1.03,0.15 0.26,0.1 0.46,0.22 0.58,0.37 0.12,0.15 0.21,0.34 0.26,0.57 0.03,0.14 0.04,0.4 0.04,0.77l0 1.11c0,0.77 0.02,1.26 0.05,1.47 0.03,0.21 0.1,0.4 0.2,0.59l-0.87 0c-0.08,-0.18 -0.14,-0.38 -0.16,-0.62zm-0.07 -1.85c-0.3,0.12 -0.76,0.23 -1.37,0.31 -0.34,0.05 -0.59,0.1 -0.73,0.17 -0.14,0.06 -0.25,0.15 -0.33,0.27 -0.08,0.12 -0.12,0.25 -0.12,0.39 0,0.22 0.08,0.4 0.25,0.55 0.17,0.15 0.42,0.22 0.74,0.22 0.32,0 0.61,-0.07 0.86,-0.21 0.25,-0.14 0.43,-0.33 0.55,-0.57 0.09,-0.19 0.13,-0.46 0.13,-0.83l0 -0.3z"/>
  <path id="_2" class="fil0" d="M70.09 96.27l0.82 0.11c-0.09,0.56 -0.32,1 -0.69,1.32 -0.37,0.32 -0.82,0.48 -1.36,0.48 -0.67,0 -1.21,-0.22 -1.62,-0.66 -0.41,-0.44 -0.61,-1.07 -0.61,-1.89 0,-0.53 0.09,-0.99 0.26,-1.39 0.18,-0.4 0.44,-0.7 0.8,-0.89 0.36,-0.2 0.75,-0.3 1.17,-0.3 0.53,0 0.97,0.13 1.31,0.4 0.34,0.27 0.56,0.65 0.65,1.15l-0.81 0.12c-0.08,-0.33 -0.21,-0.58 -0.41,-0.75 -0.2,-0.17 -0.43,-0.25 -0.71,-0.25 -0.42,0 -0.76,0.15 -1.03,0.45 -0.26,0.3 -0.39,0.78 -0.39,1.43 0,0.66 0.13,1.14 0.38,1.44 0.25,0.3 0.58,0.45 0.99,0.45 0.33,0 0.6,-0.1 0.82,-0.3 0.22,-0.2 0.36,-0.51 0.42,-0.92z"/>
  <path id="_3" class="fil0" d="M74.83 96.27l0.82 0.11c-0.09,0.56 -0.32,1 -0.69,1.32 -0.37,0.32 -0.82,0.48 -1.36,0.48 -0.67,0 -1.21,-0.22 -1.62,-0.66 -0.41,-0.44 -0.61,-1.07 -0.61,-1.89 0,-0.53 0.09,-0.99 0.26,-1.39 0.18,-0.4 0.44,-0.7 0.8,-0.89 0.36,-0.2 0.75,-0.3 1.17,-0.3 0.53,0 0.97,0.13 1.31,0.4 0.34,0.27 0.56,0.65 0.65,1.15l-0.81 0.12c-0.08,-0.33 -0.21,-0.58 -0.41,-0.75 -0.2,-0.17 -0.43,-0.25 -0.71,-0.25 -0.42,0 -0.76,0.15 -1.03,0.45 -0.26,0.3 -0.39,0.78 -0.39,1.43 0,0.66 0.13,1.14 0.38,1.44 0.25,0.3 0.58,0.45 0.99,0.45 0.33,0 0.6,-0.1 0.82,-0.3 0.22,-0.2 0.36,-0.51 0.42,-0.92z"/>
  <path id="_4" class="fil0" d="M76.36 93.15l1.92 0c0.47,0 0.82,0.04 1.05,0.12 0.23,0.08 0.43,0.22 0.59,0.43 0.17,0.21 0.25,0.46 0.25,0.76 0,0.24 -0.05,0.44 -0.15,0.61 -0.1,0.18 -0.24,0.32 -0.44,0.44 0.23,0.08 0.42,0.22 0.58,0.43 0.15,0.21 0.23,0.46 0.23,0.75 -0.03,0.47 -0.2,0.81 -0.5,1.04 -0.3,0.23 -0.74,0.34 -1.32,0.34l-2.21 0 0 -4.92zm0.83 2.08l0.88 0c0.35,0 0.6,-0.02 0.73,-0.06 0.13,-0.04 0.25,-0.11 0.36,-0.23 0.1,-0.11 0.16,-0.25 0.16,-0.41 0,-0.26 -0.09,-0.44 -0.27,-0.54 -0.18,-0.1 -0.5,-0.15 -0.94,-0.15l-0.91 0 0 1.38zm0 2.16l1.1 0c0.47,0 0.79,-0.06 0.97,-0.16 0.18,-0.11 0.27,-0.3 0.28,-0.57 0,-0.16 -0.05,-0.3 -0.15,-0.44 -0.1,-0.13 -0.24,-0.22 -0.4,-0.25 -0.16,-0.04 -0.43,-0.05 -0.79,-0.05l-1.01 0 0 1.48z"/>
  <path id="_5" class="fil0" d="M84.64 96.47l0.86 0.11c-0.13,0.5 -0.39,0.89 -0.75,1.17 -0.37,0.28 -0.83,0.42 -1.4,0.42 -0.72,0 -1.29,-0.22 -1.71,-0.66 -0.42,-0.44 -0.63,-1.06 -0.63,-1.86 0,-0.82 0.21,-1.47 0.64,-1.92 0.43,-0.46 0.98,-0.68 1.65,-0.68 0.66,0 1.19,0.22 1.61,0.67 0.42,0.45 0.62,1.08 0.62,1.89 0,0.05 -0,0.12 -0,0.22l-3.66 0c0.03,0.54 0.18,0.95 0.46,1.24 0.27,0.29 0.62,0.43 1.03,0.43 0.3,0 0.57,-0.08 0.78,-0.24 0.22,-0.16 0.39,-0.42 0.51,-0.77zm-2.73 -1.34l2.74 0c-0.04,-0.41 -0.14,-0.72 -0.31,-0.93 -0.26,-0.32 -0.61,-0.48 -1.03,-0.48 -0.38,0 -0.7,0.13 -0.96,0.38 -0.26,0.26 -0.4,0.6 -0.43,1.03z"/>
  <polygon id="_6" class="fil0" points="85.81,93.15 89.79,93.15 89.79,93.84 88.22,93.84 88.22,98.07 87.38,98.07 87.38,93.84 85.81,93.84 "/>
  <path class="fil0" d="M64.2 0l4.13 0 0 5.99 0.61 0 0 2.38 -0.8 0 0 -1.58 -4.49 0 0 1.58 -0.8 0 0 -2.38 0.52 0c0.55,-0.82 0.82,-2.49 0.82,-5l0 -0.99zm3.23 0.8l-2.37 0 0 0.35c0,0.58 -0.05,1.37 -0.16,2.37 -0.1,1 -0.31,1.83 -0.61,2.47l3.14 0 0 -5.2z"/>
  <path id="_1_0" class="fil0" d="M69.9 8.67l0 -6.81 0.76 0 0 0.65c0.18,-0.25 0.38,-0.44 0.61,-0.56 0.22,-0.12 0.5,-0.19 0.82,-0.19 0.42,0 0.79,0.11 1.11,0.32 0.32,0.21 0.56,0.52 0.73,0.91 0.16,0.39 0.25,0.82 0.25,1.29 0,0.5 -0.09,0.95 -0.27,1.36 -0.18,0.4 -0.44,0.71 -0.79,0.92 -0.34,0.21 -0.7,0.32 -1.08,0.32 -0.28,0 -0.53,-0.06 -0.75,-0.18 -0.22,-0.12 -0.4,-0.26 -0.54,-0.44l0 2.4 -0.83 0zm0.76 -4.32c0,0.63 0.13,1.1 0.38,1.4 0.26,0.3 0.57,0.45 0.93,0.45 0.37,0 0.69,-0.16 0.95,-0.47 0.26,-0.31 0.4,-0.8 0.4,-1.45 0,-0.63 -0.13,-1.09 -0.39,-1.4 -0.26,-0.31 -0.56,-0.47 -0.92,-0.47 -0.35,0 -0.67,0.17 -0.94,0.5 -0.27,0.33 -0.41,0.81 -0.41,1.44z"/>
  <path id="_2_1" class="fil0" d="M75.03 8.68l-0.09 -0.77c0.18,0.05 0.34,0.07 0.48,0.07 0.19,0 0.34,-0.03 0.45,-0.09 0.11,-0.06 0.2,-0.15 0.27,-0.26 0.05,-0.08 0.14,-0.29 0.25,-0.62 0.02,-0.05 0.04,-0.11 0.07,-0.2l-1.87 -4.94 0.89 0 1.03 2.84c0.13,0.36 0.25,0.74 0.36,1.14 0.1,-0.37 0.21,-0.74 0.34,-1.11l1.05 -2.87 0.83 0 -1.86 5.01c-0.2,0.54 -0.36,0.91 -0.47,1.11 -0.15,0.27 -0.32,0.47 -0.51,0.6 -0.19,0.13 -0.42,0.19 -0.69,0.19 -0.16,0 -0.34,-0.03 -0.54,-0.1z"/>
  <polygon id="_3_2" class="fil0" points="79.8,1.87 82.64,1.87 82.64,2.56 80.64,2.56 80.64,6.79 79.8,6.79 "/>
  <path class="fil0" d="M10.8 72.37l0.9 0.23c-0.19,0.74 -0.53,1.3 -1.01,1.69 -0.49,0.39 -1.09,0.58 -1.79,0.58 -0.73,0 -1.32,-0.15 -1.78,-0.45 -0.46,-0.3 -0.81,-0.73 -1.04,-1.29 -0.24,-0.57 -0.36,-1.17 -0.36,-1.82 0,-0.71 0.13,-1.32 0.4,-1.85 0.27,-0.53 0.65,-0.93 1.15,-1.2 0.5,-0.27 1.05,-0.41 1.64,-0.41 0.68,0 1.25,0.17 1.71,0.52 0.46,0.35 0.79,0.83 0.97,1.46l-0.88 0.21c-0.16,-0.49 -0.39,-0.85 -0.68,-1.08 -0.3,-0.23 -0.67,-0.34 -1.13,-0.34 -0.52,0 -0.96,0.12 -1.31,0.37 -0.35,0.25 -0.6,0.59 -0.74,1.01 -0.14,0.42 -0.21,0.86 -0.21,1.3 0,0.58 0.08,1.08 0.25,1.51 0.17,0.43 0.43,0.75 0.78,0.97 0.35,0.21 0.74,0.32 1.15,0.32 0.5,0 0.93,-0.15 1.27,-0.43 0.35,-0.29 0.58,-0.72 0.71,-1.29z"/>
  <path id="_1_3" class="fil0" d="M12.7 69.83l0.83 0 0 2.12c0.27,0 0.45,-0.05 0.56,-0.15 0.11,-0.1 0.26,-0.4 0.47,-0.89 0.16,-0.39 0.3,-0.64 0.4,-0.77 0.1,-0.12 0.22,-0.21 0.35,-0.25 0.13,-0.04 0.35,-0.06 0.64,-0.06l0.17 0 0 0.69 -0.23 -0c-0.22,0 -0.36,0.03 -0.42,0.1 -0.06,0.07 -0.16,0.27 -0.3,0.61 -0.13,0.32 -0.24,0.55 -0.35,0.67 -0.1,0.12 -0.27,0.24 -0.49,0.34 0.36,0.1 0.71,0.43 1.06,1l0.91 1.52 -0.92 0 -0.9 -1.52c-0.18,-0.31 -0.34,-0.51 -0.47,-0.61 -0.14,-0.1 -0.3,-0.15 -0.49,-0.15l0 2.28 -0.83 0 0 -4.92z"/>
  <path id="_2_4" class="fil0" d="M16.86 69.83l1.92 0c0.47,0 0.82,0.04 1.05,0.12 0.23,0.08 0.43,0.22 0.59,0.43 0.17,0.21 0.25,0.46 0.25,0.76 0,0.24 -0.05,0.44 -0.15,0.61 -0.1,0.18 -0.24,0.32 -0.44,0.44 0.23,0.08 0.42,0.22 0.58,0.43 0.15,0.21 0.23,0.46 0.23,0.75 -0.03,0.47 -0.2,0.81 -0.5,1.04 -0.3,0.23 -0.74,0.34 -1.32,0.34l-2.21 0 0 -4.92zm0.83 2.08l0.88 0c0.35,0 0.6,-0.02 0.73,-0.06 0.13,-0.04 0.25,-0.11 0.36,-0.23 0.1,-0.11 0.16,-0.25 0.16,-0.41 0,-0.26 -0.09,-0.44 -0.27,-0.54 -0.18,-0.1 -0.5,-0.15 -0.94,-0.15l-0.91 0 0 1.38zm0 2.16l1.1 0c0.47,0 0.79,-0.06 0.97,-0.16 0.18,-0.11 0.27,-0.3 0.28,-0.57 0,-0.16 -0.05,-0.3 -0.15,-0.44 -0.1,-0.13 -0.24,-0.22 -0.4,-0.25 -0.16,-0.04 -0.43,-0.05 -0.79,-0.05l-1.01 0 0 1.48z"/>
  <path id="_3_5" class="fil0" d="M21.48 72.29c0,-0.91 0.25,-1.58 0.76,-2.02 0.42,-0.36 0.94,-0.55 1.55,-0.55 0.67,0 1.23,0.22 1.66,0.66 0.43,0.44 0.64,1.05 0.64,1.83 0,0.63 -0.09,1.13 -0.28,1.49 -0.19,0.36 -0.47,0.64 -0.83,0.84 -0.36,0.2 -0.76,0.3 -1.19,0.3 -0.69,0 -1.25,-0.22 -1.67,-0.66 -0.43,-0.44 -0.64,-1.08 -0.64,-1.9zm0.85 0c0,0.63 0.14,1.1 0.41,1.41 0.28,0.31 0.62,0.47 1.04,0.47 0.41,0 0.76,-0.16 1.03,-0.47 0.27,-0.31 0.41,-0.79 0.41,-1.44 0,-0.61 -0.14,-1.07 -0.42,-1.38 -0.28,-0.31 -0.62,-0.47 -1.03,-0.47 -0.42,0 -0.76,0.15 -1.04,0.47 -0.27,0.31 -0.41,0.78 -0.41,1.41z"/>
  <path id="_4_6" class="fil0" d="M27.06 76.64l0 -6.81 0.76 0 0 0.65c0.18,-0.25 0.38,-0.44 0.61,-0.56 0.22,-0.12 0.5,-0.19 0.82,-0.19 0.42,0 0.79,0.11 1.11,0.32 0.32,0.21 0.56,0.52 0.73,0.91 0.16,0.39 0.25,0.82 0.25,1.29 0,0.5 -0.09,0.95 -0.27,1.36 -0.18,0.4 -0.44,0.71 -0.79,0.92 -0.34,0.21 -0.7,0.32 -1.08,0.32 -0.28,0 -0.53,-0.06 -0.75,-0.18 -0.22,-0.12 -0.4,-0.26 -0.54,-0.44l0 2.4 -0.83 0zm0.76 -4.32c0,0.63 0.13,1.1 0.38,1.4 0.26,0.3 0.57,0.45 0.93,0.45 0.37,0 0.69,-0.16 0.95,-0.47 0.26,-0.31 0.4,-0.8 0.4,-1.45 0,-0.63 -0.13,-1.09 -0.39,-1.4 -0.26,-0.31 -0.56,-0.47 -0.92,-0.47 -0.35,0 -0.67,0.17 -0.94,0.5 -0.27,0.33 -0.41,0.81 -0.41,1.44z"/>
  <path id="_5_7" class="fil0" d="M35.69 73.16l0.86 0.11c-0.13,0.5 -0.39,0.89 -0.75,1.17 -0.37,0.28 -0.83,0.42 -1.4,0.42 -0.72,0 -1.29,-0.22 -1.71,-0.66 -0.42,-0.44 -0.63,-1.06 -0.63,-1.86 0,-0.82 0.21,-1.47 0.64,-1.92 0.43,-0.46 0.98,-0.68 1.65,-0.68 0.66,0 1.19,0.22 1.61,0.67 0.42,0.45 0.62,1.08 0.62,1.89 0,0.05 -0,0.12 -0,0.22l-3.66 0c0.03,0.54 0.18,0.95 0.46,1.24 0.27,0.29 0.62,0.43 1.03,0.43 0.3,0 0.57,-0.08 0.78,-0.24 0.22,-0.16 0.39,-0.42 0.51,-0.77zm-2.73 -1.34l2.74 0c-0.04,-0.41 -0.14,-0.72 -0.31,-0.93 -0.26,-0.32 -0.61,-0.48 -1.03,-0.48 -0.38,0 -0.7,0.13 -0.96,0.38 -0.26,0.26 -0.4,0.6 -0.43,1.03z"/>
  <polygon id="_6_8" class="fil0" points="37.62,69.83 38.45,69.83 38.45,74.07 40.76,74.07 40.76,69.83 41.6,69.83 41.6,74.07 42.14,74.07 42.14,76.15 41.46,76.15 41.46,74.75 37.62,74.75 "/>
  <path class="fil0" d="M5.09 14.56l0.9 0.23c-0.19,0.74 -0.53,1.3 -1.01,1.69 -0.49,0.39 -1.09,0.58 -1.79,0.58 -0.73,0 -1.32,-0.15 -1.78,-0.45 -0.46,-0.3 -0.81,-0.73 -1.04,-1.29 -0.24,-0.57 -0.36,-1.17 -0.36,-1.82 0,-0.71 0.13,-1.32 0.4,-1.85 0.27,-0.53 0.65,-0.93 1.15,-1.2 0.5,-0.27 1.05,-0.41 1.64,-0.41 0.68,0 1.25,0.17 1.71,0.52 0.46,0.35 0.79,0.83 0.97,1.46l-0.88 0.21c-0.16,-0.49 -0.39,-0.85 -0.68,-1.08 -0.3,-0.23 -0.67,-0.34 -1.13,-0.34 -0.52,0 -0.96,0.12 -1.31,0.37 -0.35,0.25 -0.6,0.59 -0.74,1.01 -0.14,0.42 -0.21,0.86 -0.21,1.3 0,0.58 0.08,1.08 0.25,1.51 0.17,0.43 0.43,0.75 0.78,0.97 0.35,0.21 0.74,0.32 1.15,0.32 0.5,0 0.93,-0.15 1.27,-0.43 0.35,-0.29 0.58,-0.72 0.71,-1.29z"/>
  <polygon id="_1_9" class="fil0" points="6.56,12.02 10.54,12.02 10.54,12.71 8.97,12.71 8.97,16.94 8.14,16.94 8.14,12.71 6.56,12.71 "/>
  <path id="_2_10" class="fil0" d="M10.92 14.48c0,-0.91 0.25,-1.58 0.76,-2.02 0.42,-0.36 0.94,-0.55 1.55,-0.55 0.67,0 1.23,0.22 1.66,0.66 0.43,0.44 0.64,1.05 0.64,1.83 0,0.63 -0.09,1.13 -0.28,1.49 -0.19,0.36 -0.47,0.64 -0.83,0.84 -0.36,0.2 -0.76,0.3 -1.19,0.3 -0.69,0 -1.25,-0.22 -1.67,-0.66 -0.43,-0.44 -0.64,-1.08 -0.64,-1.9zm0.85 0c0,0.63 0.14,1.1 0.41,1.41 0.28,0.31 0.62,0.47 1.04,0.47 0.41,0 0.76,-0.16 1.03,-0.47 0.27,-0.31 0.41,-0.79 0.41,-1.44 0,-0.61 -0.14,-1.07 -0.42,-1.38 -0.28,-0.31 -0.62,-0.47 -1.03,-0.47 -0.42,0 -0.76,0.15 -1.04,0.47 -0.27,0.31 -0.41,0.78 -0.41,1.41z"/>
  <path id="_3_11" class="fil0" d="M16.71 12.02l3.88 0 0 4.92 -0.83 0 0 -4.22 -2.21 0 0 2.45c0,0.57 -0.02,0.95 -0.06,1.13 -0.04,0.18 -0.14,0.34 -0.31,0.48 -0.17,0.14 -0.41,0.2 -0.72,0.2 -0.19,0 -0.42,-0.01 -0.67,-0.04l0 -0.69 0.36 0c0.17,0 0.3,-0.02 0.37,-0.05 0.07,-0.03 0.12,-0.09 0.15,-0.17 0.02,-0.08 0.04,-0.33 0.04,-0.75l0 -3.24z"/>
  <path id="_4_12" class="fil0" d="M25.41 9.99l0.74 0.01c-0.03,0.33 -0.11,0.56 -0.22,0.69 -0.11,0.13 -0.26,0.21 -0.43,0.25 -0.18,0.04 -0.52,0.06 -1.04,0.06 -0.69,0 -1.15,0.07 -1.4,0.2 -0.25,0.13 -0.43,0.34 -0.54,0.64 -0.11,0.29 -0.17,0.67 -0.18,1.13 0.21,-0.31 0.46,-0.55 0.74,-0.7 0.28,-0.16 0.6,-0.23 0.95,-0.23 0.64,0 1.18,0.22 1.6,0.66 0.42,0.44 0.63,1.04 0.63,1.8 0,0.57 -0.11,1.04 -0.32,1.41 -0.21,0.37 -0.47,0.65 -0.76,0.85 -0.29,0.2 -0.69,0.3 -1.19,0.3 -0.58,0 -1.04,-0.13 -1.36,-0.4 -0.32,-0.27 -0.57,-0.61 -0.75,-1.02 -0.17,-0.42 -0.26,-1.14 -0.26,-2.17 0,-1.3 0.22,-2.17 0.66,-2.62 0.44,-0.45 1.11,-0.67 2.02,-0.67 0.57,0 0.89,-0.01 0.97,-0.03 0.08,-0.02 0.12,-0.06 0.15,-0.13zm-0.03 4.47c0,-0.51 -0.12,-0.93 -0.36,-1.26 -0.24,-0.33 -0.58,-0.49 -1.02,-0.49 -0.46,0 -0.81,0.17 -1.06,0.52 -0.25,0.34 -0.37,0.8 -0.37,1.38 0,0.57 0.14,1 0.41,1.31 0.27,0.3 0.62,0.45 1.02,0.45 0.41,0 0.75,-0.18 1.01,-0.52 0.26,-0.35 0.39,-0.81 0.39,-1.39z"/>
  <path class="fil0" d="M115.03 14.75l4.24 0 0 6.79 -0.9 0 0 -5.99 -2.44 0 0 3.5c0,0.71 -0.03,1.23 -0.1,1.56 -0.07,0.33 -0.21,0.59 -0.42,0.77 -0.21,0.18 -0.49,0.27 -0.81,0.27 -0.2,0 -0.44,-0.04 -0.72,-0.12l0.16 -0.8c0.15,0.08 0.27,0.11 0.38,0.11 0.2,0 0.36,-0.08 0.46,-0.23 0.1,-0.15 0.15,-0.51 0.15,-1.08l0 -4.78z"/>
  <path id="_1_13" class="fil0" d="M124 19.95l0.86 0.11c-0.13,0.5 -0.39,0.89 -0.75,1.17 -0.37,0.28 -0.83,0.42 -1.4,0.42 -0.72,0 -1.29,-0.22 -1.71,-0.66 -0.42,-0.44 -0.63,-1.06 -0.63,-1.86 0,-0.82 0.21,-1.47 0.64,-1.92 0.43,-0.46 0.98,-0.68 1.65,-0.68 0.66,0 1.19,0.22 1.61,0.67 0.42,0.45 0.62,1.08 0.62,1.89 0,0.05 -0,0.12 -0,0.22l-3.66 0c0.03,0.54 0.18,0.95 0.46,1.24 0.27,0.29 0.62,0.43 1.03,0.43 0.3,0 0.57,-0.08 0.78,-0.24 0.22,-0.16 0.39,-0.42 0.51,-0.77zm-2.73 -1.34l2.74 0c-0.04,-0.41 -0.14,-0.72 -0.31,-0.93 -0.26,-0.32 -0.61,-0.48 -1.03,-0.48 -0.38,0 -0.7,0.13 -0.96,0.38 -0.26,0.26 -0.4,0.6 -0.43,1.03z"/>
  <path id="_2_14" class="fil0" d="M129.4 14.59l0.74 0.01c-0.03,0.33 -0.11,0.56 -0.22,0.69 -0.11,0.13 -0.26,0.21 -0.43,0.25 -0.18,0.04 -0.52,0.06 -1.04,0.06 -0.69,0 -1.15,0.07 -1.4,0.2 -0.25,0.13 -0.43,0.34 -0.54,0.64 -0.11,0.29 -0.17,0.67 -0.18,1.13 0.21,-0.31 0.46,-0.55 0.74,-0.7 0.28,-0.16 0.6,-0.23 0.95,-0.23 0.64,0 1.18,0.22 1.6,0.66 0.42,0.44 0.63,1.04 0.63,1.8 0,0.57 -0.11,1.04 -0.32,1.41 -0.21,0.37 -0.47,0.65 -0.76,0.85 -0.29,0.2 -0.69,0.3 -1.19,0.3 -0.58,0 -1.04,-0.13 -1.36,-0.4 -0.32,-0.27 -0.57,-0.61 -0.75,-1.02 -0.17,-0.42 -0.26,-1.14 -0.26,-2.17 0,-1.3 0.22,-2.17 0.66,-2.62 0.44,-0.45 1.11,-0.67 2.02,-0.67 0.57,0 0.89,-0.01 0.97,-0.03 0.08,-0.02 0.12,-0.06 0.15,-0.13zm-0.03 4.47c0,-0.51 -0.12,-0.93 -0.36,-1.26 -0.24,-0.33 -0.58,-0.49 -1.02,-0.49 -0.46,0 -0.81,0.17 -1.06,0.52 -0.25,0.34 -0.37,0.8 -0.37,1.38 0,0.57 0.14,1 0.41,1.31 0.27,0.3 0.62,0.45 1.02,0.45 0.41,0 0.75,-0.18 1.01,-0.52 0.26,-0.35 0.39,-0.81 0.39,-1.39z"/>
  <path id="_3_15" class="fil0" d="M134.49 19.95l0.86 0.11c-0.13,0.5 -0.39,0.89 -0.75,1.17 -0.37,0.28 -0.83,0.42 -1.4,0.42 -0.72,0 -1.29,-0.22 -1.71,-0.66 -0.42,-0.44 -0.63,-1.06 -0.63,-1.86 0,-0.82 0.21,-1.47 0.64,-1.92 0.43,-0.46 0.98,-0.68 1.65,-0.68 0.66,0 1.19,0.22 1.61,0.67 0.42,0.45 0.62,1.08 0.62,1.89 0,0.05 -0,0.12 -0,0.22l-3.66 0c0.03,0.54 0.18,0.95 0.46,1.24 0.27,0.29 0.62,0.43 1.03,0.43 0.3,0 0.57,-0.08 0.78,-0.24 0.22,-0.16 0.39,-0.42 0.51,-0.77zm-2.73 -1.34l2.74 0c-0.04,-0.41 -0.14,-0.72 -0.31,-0.93 -0.26,-0.32 -0.61,-0.48 -1.03,-0.48 -0.38,0 -0.7,0.13 -0.96,0.38 -0.26,0.26 -0.4,0.6 -0.43,1.03z"/>
  <path id="_4_16" class="fil0" d="M136.85 16.62l3.43 0 0 4.24 0.53 0 0 2.08 -0.68 0 0 -1.39 -3.88 0 0 1.39 -0.68 0 0 -2.08 0.44 0c0.59,-0.8 0.87,-2.21 0.84,-4.24zm0.69 0.69c-0.06,1.6 -0.31,2.78 -0.74,3.55l2.64 0 0 -3.55 -1.91 0z"/>
  <path id="_5_17" class="fil0" d="M141.71 16.62l0.83 0 0 1.92 1.06 0c0.69,0 1.22,0.13 1.59,0.4 0.37,0.27 0.56,0.64 0.56,1.1 0,0.41 -0.15,0.76 -0.47,1.05 -0.31,0.29 -0.81,0.44 -1.49,0.44l-2.08 0 0 -4.92zm0.83 4.24l0.88 0c0.53,0 0.91,-0.06 1.13,-0.19 0.23,-0.13 0.34,-0.33 0.34,-0.61 0,-0.21 -0.08,-0.4 -0.25,-0.57 -0.17,-0.17 -0.54,-0.25 -1.11,-0.25l-0.99 0 0 1.62z"/>
  <path class="fil0" d="M112.64 71.66c0,-1.12 0.3,-2.01 0.91,-2.64 0.61,-0.64 1.39,-0.95 2.34,-0.95 0.63,0 1.19,0.15 1.7,0.45 0.5,0.3 0.89,0.72 1.15,1.25 0.26,0.53 0.4,1.14 0.4,1.82 0,0.69 -0.14,1.3 -0.42,1.85 -0.28,0.54 -0.67,0.95 -1.18,1.23 -0.51,0.28 -1.06,0.42 -1.65,0.42 -0.64,0 -1.21,-0.15 -1.71,-0.46 -0.5,-0.31 -0.88,-0.73 -1.14,-1.26 -0.26,-0.53 -0.39,-1.1 -0.39,-1.69zm0.93 0.02c0,0.82 0.22,1.46 0.66,1.93 0.44,0.47 0.99,0.7 1.65,0.7 0.68,0 1.23,-0.24 1.67,-0.71 0.44,-0.47 0.65,-1.15 0.65,-2.02 0,-0.55 -0.09,-1.03 -0.28,-1.44 -0.19,-0.41 -0.46,-0.73 -0.82,-0.96 -0.36,-0.23 -0.76,-0.34 -1.21,-0.34 -0.64,0 -1.18,0.22 -1.64,0.65 -0.46,0.44 -0.69,1.16 -0.69,2.18z"/>
  <path id="_1_18" class="fil0" d="M120.17 70.04l0.83 0 0 2.12c0.27,0 0.45,-0.05 0.56,-0.15 0.11,-0.1 0.26,-0.4 0.47,-0.89 0.16,-0.39 0.3,-0.64 0.4,-0.77 0.1,-0.12 0.22,-0.21 0.35,-0.25 0.13,-0.04 0.35,-0.06 0.64,-0.06l0.17 0 0 0.69 -0.23 -0c-0.22,0 -0.36,0.03 -0.42,0.1 -0.06,0.07 -0.16,0.27 -0.3,0.61 -0.13,0.32 -0.24,0.55 -0.35,0.67 -0.1,0.12 -0.27,0.24 -0.49,0.34 0.36,0.1 0.71,0.43 1.06,1l0.91 1.52 -0.92 0 -0.9 -1.52c-0.18,-0.31 -0.34,-0.51 -0.47,-0.61 -0.14,-0.1 -0.3,-0.15 -0.49,-0.15l0 2.28 -0.83 0 0 -4.92z"/>
  <path id="_2_19" class="fil0" d="M124.4 76.85l-0.09 -0.77c0.18,0.05 0.34,0.07 0.48,0.07 0.19,0 0.34,-0.03 0.45,-0.09 0.11,-0.06 0.2,-0.15 0.27,-0.26 0.05,-0.08 0.14,-0.29 0.25,-0.62 0.02,-0.05 0.04,-0.11 0.07,-0.2l-1.87 -4.94 0.89 0 1.03 2.84c0.13,0.36 0.25,0.74 0.36,1.14 0.1,-0.37 0.21,-0.74 0.34,-1.11l1.05 -2.87 0.83 0 -1.86 5.01c-0.2,0.54 -0.36,0.91 -0.47,1.11 -0.15,0.27 -0.32,0.47 -0.51,0.6 -0.19,0.13 -0.42,0.19 -0.69,0.19 -0.16,0 -0.34,-0.03 -0.54,-0.1z"/>
  <polygon id="_3_20" class="fil0" points="129.18,70.04 130.01,70.04 130.01,72.09 132.32,72.09 132.32,70.04 133.16,70.04 133.16,74.96 132.32,74.96 132.32,72.78 130.01,72.78 130.01,74.96 129.18,74.96 "/>
  <path id="_4_21" class="fil0" d="M134.39 70.04l0.83 0 0 1.92 1.06 0c0.69,0 1.22,0.13 1.59,0.4 0.37,0.27 0.56,0.64 0.56,1.1 0,0.41 -0.15,0.76 -0.47,1.05 -0.31,0.29 -0.81,0.44 -1.49,0.44l-2.08 0 0 -4.92zm0.83 4.24l0.88 0c0.53,0 0.91,-0.06 1.13,-0.19 0.23,-0.13 0.34,-0.33 0.34,-0.61 0,-0.21 -0.08,-0.4 -0.25,-0.57 -0.17,-0.17 -0.54,-0.25 -1.11,-0.25l-0.99 0 0 1.62z"/>
 </g>
</svg>
