<?xml version="1.0" encoding="UTF-8"?>
<!DOCTYPE svg PUBLIC "-//W3C//DTD SVG 1.1//EN" "http://www.w3.org/Graphics/SVG/1.1/DTD/svg11.dtd">
<!-- Creator: CorelDRAW -->
<svg xmlns="http://www.w3.org/2000/svg" xml:space="preserve" width="72.0638mm" height="54.3667mm" version="1.1" style="shape-rendering:geometricPrecision; text-rendering:geometricPrecision; image-rendering:optimizeQuality; fill-rule:evenodd; clip-rule:evenodd"
viewBox="0 0 119.46 90.12"
 xmlns:xlink="http://www.w3.org/1999/xlink"
 xmlns:xodm="http://www.corel.com/coreldraw/odm/2003">
 <defs>
  <style type="text/css">
   <![CDATA[
    .fil0 {fill:#656551;fill-rule:nonzero}
   ]]>
  </style>
 </defs>
 <g id="Слой_x0020_1">
  <metadata id="CorelCorpID_0Corel-Layer"/>
  <path class="fil0" d="M43.23 83.86l0.83 0 0 2.66 1.49 0c0.97,0 1.61,0.18 1.92,0.54 0.31,0.36 0.46,0.77 0.46,1.23 0,0.48 -0.16,0.91 -0.49,1.27 -0.33,0.36 -0.94,0.54 -1.83,0.54l-2.37 0 0 -6.24zm0.83 5.53l1.5 0c0.52,0 0.89,-0.09 1.13,-0.26 0.23,-0.17 0.35,-0.45 0.35,-0.84 0,-0.26 -0.07,-0.48 -0.21,-0.65 -0.14,-0.18 -0.32,-0.29 -0.55,-0.34 -0.22,-0.05 -0.6,-0.07 -1.12,-0.07l-1.1 0 0 2.16zm4.62 -5.53l0.83 0 0 6.24 -0.83 0 0 -6.24z"/>
  <path id="_1" class="fil0" d="M51.17 85.57l3.56 0 0 4.52 -0.77 0 0 -3.88 -2.03 0 0 2.25c0,0.52 -0.02,0.87 -0.05,1.04 -0.03,0.17 -0.13,0.31 -0.28,0.44 -0.15,0.12 -0.37,0.19 -0.66,0.19 -0.18,0 -0.38,-0.01 -0.62,-0.03l0 -0.64 0.34 0c0.16,0 0.27,-0.02 0.34,-0.05 0.07,-0.03 0.11,-0.08 0.14,-0.16 0.02,-0.07 0.03,-0.3 0.03,-0.69l0 -2.98z"/>
  <path id="_2" class="fil0" d="M55.87 85.57l0.77 0 0 1.77 0.97 0c0.63,0 1.12,0.12 1.46,0.37 0.34,0.25 0.51,0.58 0.51,1.01 0,0.38 -0.14,0.7 -0.43,0.97 -0.28,0.27 -0.74,0.4 -1.37,0.4l-1.91 0 0 -4.52zm0.77 3.89l0.81 0c0.49,0 0.83,-0.06 1.04,-0.18 0.21,-0.12 0.31,-0.3 0.31,-0.56 0,-0.2 -0.08,-0.37 -0.23,-0.52 -0.15,-0.15 -0.49,-0.23 -1.02,-0.23l-0.91 0 0 1.49z"/>
  <polygon id="_3" class="fil0" points="60.42,85.57 61.19,85.57 61.19,87.46 63.31,87.46 63.31,85.57 64.08,85.57 64.08,90.09 63.31,90.09 63.31,88.09 61.19,88.09 61.19,90.09 60.42,90.09 "/>
  <path id="_4" class="fil0" d="M68.79 85.57l0 4.52 -0.77 0 0 -1.76 -0.44 0c-0.27,0 -0.47,0.03 -0.6,0.11 -0.13,0.07 -0.33,0.29 -0.58,0.67l-0.67 0.98 -0.95 0 0.83 -1.21c0.25,-0.37 0.51,-0.58 0.76,-0.63 -0.44,-0.06 -0.76,-0.22 -0.97,-0.47 -0.21,-0.26 -0.32,-0.55 -0.32,-0.88 0,-0.39 0.14,-0.71 0.42,-0.96 0.28,-0.25 0.68,-0.37 1.2,-0.37l2.1 0zm-0.77 0.64l-1.09 0c-0.46,0 -0.75,0.07 -0.88,0.21 -0.13,0.14 -0.2,0.31 -0.2,0.5 0,0.27 0.1,0.47 0.29,0.6 0.19,0.13 0.54,0.19 1.03,0.19l0.85 0 0 -1.5z"/>
  <polygon id="_5" class="fil0" points="69.95,85.57 70.71,85.57 70.71,87.46 72.84,87.46 72.84,85.57 73.6,85.57 73.6,90.09 72.84,90.09 72.84,88.09 70.71,88.09 70.71,90.09 69.95,90.09 "/>
  <path id="_6" class="fil0" d="M74.74 85.57l0.77 0 0 1.77 0.97 0c0.63,0 1.12,0.12 1.46,0.37 0.34,0.25 0.51,0.58 0.51,1.01 0,0.38 -0.14,0.7 -0.43,0.97 -0.28,0.27 -0.74,0.4 -1.37,0.4l-1.91 0 0 -4.52zm0.77 3.89l0.81 0c0.49,0 0.83,-0.06 1.04,-0.18 0.21,-0.12 0.31,-0.3 0.31,-0.56 0,-0.2 -0.08,-0.37 -0.23,-0.52 -0.15,-0.15 -0.49,-0.23 -1.02,-0.23l-0.91 0 0 1.49z"/>
  <path class="fil0" d="M48.07 0l0.83 0 0 2.66 1.49 0c0.97,0 1.61,0.18 1.92,0.54 0.31,0.36 0.46,0.77 0.46,1.23 0,0.48 -0.16,0.91 -0.49,1.27 -0.33,0.36 -0.94,0.54 -1.83,0.54l-2.37 0 0 -6.24zm0.83 5.53l1.5 0c0.52,0 0.89,-0.09 1.13,-0.26 0.23,-0.17 0.35,-0.45 0.35,-0.84 0,-0.26 -0.07,-0.48 -0.21,-0.65 -0.14,-0.18 -0.32,-0.29 -0.55,-0.34 -0.22,-0.05 -0.6,-0.07 -1.12,-0.07l-1.1 0 0 2.16zm4.62 -5.53l0.83 0 0 6.24 -0.83 0 0 -6.24z"/>
  <polygon id="_1_0" class="fil0" points="55.67,1.72 56.85,1.72 58.05,5.33 59.37,1.72 60.46,1.72 60.46,6.24 59.7,6.24 59.7,2.6 58.36,6.24 57.68,6.24 56.42,2.42 56.42,6.24 55.67,6.24 "/>
  <path id="_2_1" class="fil0" d="M62.23 1.72l3.15 0 0 3.89 0.49 0 0 1.91 -0.63 0 0 -1.28 -3.56 0 0 1.28 -0.63 0 0 -1.91 0.4 0c0.54,-0.73 0.8,-2.03 0.78,-3.89zm0.64 0.64c-0.06,1.47 -0.28,2.55 -0.68,3.26l2.43 0 0 -3.26 -1.75 0z"/>
  <path id="_3_2" class="fil0" d="M66.68 7.97l-0.09 -0.71c0.17,0.04 0.31,0.07 0.44,0.07 0.17,0 0.31,-0.03 0.41,-0.09 0.1,-0.06 0.19,-0.14 0.25,-0.24 0.05,-0.08 0.13,-0.27 0.23,-0.57 0.01,-0.04 0.04,-0.1 0.07,-0.19l-1.72 -4.53 0.82 0 0.94 2.61c0.12,0.33 0.23,0.68 0.33,1.04 0.09,-0.34 0.19,-0.68 0.31,-1.02l0.96 -2.64 0.77 0 -1.71 4.6c-0.18,0.49 -0.33,0.83 -0.43,1.02 -0.14,0.25 -0.29,0.44 -0.47,0.55 -0.18,0.12 -0.39,0.18 -0.63,0.18 -0.15,0 -0.31,-0.03 -0.49,-0.09z"/>
  <path id="_4_3" class="fil0" d="M70.97 7.97l0 -6.25 0.7 0 0 0.59c0.16,-0.23 0.35,-0.4 0.56,-0.52 0.21,-0.11 0.46,-0.17 0.75,-0.17 0.39,0 0.73,0.1 1.02,0.3 0.29,0.2 0.52,0.48 0.67,0.84 0.15,0.36 0.23,0.76 0.23,1.19 0,0.46 -0.08,0.88 -0.25,1.25 -0.17,0.37 -0.41,0.65 -0.72,0.85 -0.31,0.2 -0.65,0.29 -1,0.29 -0.26,0 -0.48,-0.05 -0.69,-0.16 -0.2,-0.11 -0.37,-0.24 -0.5,-0.41l0 2.21 -0.77 0zm0.7 -3.97c0,0.58 0.12,1.01 0.35,1.28 0.24,0.28 0.52,0.42 0.85,0.42 0.34,0 0.63,-0.14 0.87,-0.43 0.24,-0.29 0.36,-0.73 0.36,-1.33 0,-0.57 -0.12,-1 -0.35,-1.29 -0.24,-0.29 -0.52,-0.43 -0.85,-0.43 -0.33,0 -0.61,0.15 -0.86,0.46 -0.25,0.3 -0.38,0.75 -0.38,1.33z"/>
  <path class="fil0" d="M-0 62.61l0.83 0 0 2.66 1.49 0c0.97,0 1.61,0.18 1.92,0.54 0.31,0.36 0.46,0.77 0.46,1.23 0,0.48 -0.16,0.91 -0.49,1.27 -0.33,0.36 -0.94,0.54 -1.83,0.54l-2.37 0 0 -6.24zm0.83 5.53l1.5 0c0.52,0 0.89,-0.09 1.13,-0.26 0.23,-0.17 0.35,-0.45 0.35,-0.84 0,-0.26 -0.07,-0.48 -0.21,-0.65 -0.14,-0.18 -0.32,-0.29 -0.55,-0.34 -0.22,-0.05 -0.6,-0.07 -1.12,-0.07l-1.1 0 0 2.16zm4.62 -5.53l0.83 0 0 6.24 -0.83 0 0 -6.24z"/>
  <path id="_1_4" class="fil0" d="M10.31 64.32l0 1.95c0.25,0 0.42,-0.05 0.52,-0.14 0.1,-0.09 0.24,-0.36 0.43,-0.82 0.17,-0.43 0.33,-0.7 0.47,-0.82 0.14,-0.12 0.36,-0.17 0.66,-0.17l0.28 0 0 0.63 -0.21 -0c-0.2,0 -0.33,0.03 -0.39,0.09 -0.06,0.06 -0.15,0.25 -0.27,0.56 -0.11,0.3 -0.22,0.5 -0.31,0.61 -0.1,0.11 -0.25,0.22 -0.45,0.31 0.33,0.09 0.65,0.39 0.97,0.92l0.84 1.4 -0.84 0 -0.82 -1.4c-0.17,-0.28 -0.31,-0.47 -0.44,-0.56 -0.12,-0.09 -0.27,-0.13 -0.45,-0.13l0 2.09 -0.78 0 0 -2.09c-0.17,0 -0.32,0.04 -0.44,0.13 -0.12,0.09 -0.27,0.27 -0.44,0.56l-0.83 1.4 -0.84 0 0.84 -1.4c0.32,-0.53 0.64,-0.83 0.97,-0.92 -0.23,-0.1 -0.39,-0.22 -0.48,-0.34 -0.09,-0.12 -0.23,-0.42 -0.41,-0.88 -0.06,-0.16 -0.13,-0.25 -0.2,-0.29 -0.07,-0.04 -0.18,-0.05 -0.33,-0.05 -0.04,0 -0.11,0 -0.23,0l0 -0.64 0.11 0c0.3,0 0.5,0.02 0.62,0.05 0.12,0.03 0.23,0.11 0.32,0.22 0.09,0.11 0.22,0.35 0.37,0.72 0.18,0.45 0.33,0.72 0.43,0.81 0.1,0.1 0.27,0.14 0.52,0.14l0 -1.95 0.78 0z"/>
  <path class="fil0" d="M0.25 9.34l0.83 0 0 2.66 1.49 0c0.97,0 1.61,0.18 1.92,0.54 0.31,0.36 0.46,0.77 0.46,1.23 0,0.48 -0.16,0.91 -0.49,1.27 -0.33,0.36 -0.94,0.54 -1.83,0.54l-2.37 0 0 -6.24zm0.83 5.53l1.5 0c0.52,0 0.89,-0.09 1.13,-0.26 0.23,-0.17 0.35,-0.45 0.35,-0.84 0,-0.26 -0.07,-0.48 -0.21,-0.65 -0.14,-0.18 -0.32,-0.29 -0.55,-0.34 -0.22,-0.05 -0.6,-0.07 -1.12,-0.07l-1.1 0 0 2.16zm4.62 -5.53l0.83 0 0 6.24 -0.83 0 0 -6.24z"/>
  <path id="_1_5" class="fil0" d="M10.56 11.06l0 1.95c0.25,0 0.42,-0.05 0.52,-0.14 0.1,-0.09 0.24,-0.36 0.43,-0.82 0.17,-0.43 0.33,-0.7 0.47,-0.82 0.14,-0.12 0.36,-0.17 0.66,-0.17l0.28 0 0 0.63 -0.21 -0c-0.2,0 -0.33,0.03 -0.39,0.09 -0.06,0.06 -0.15,0.25 -0.27,0.56 -0.11,0.3 -0.22,0.5 -0.31,0.61 -0.1,0.11 -0.25,0.22 -0.45,0.31 0.33,0.09 0.65,0.39 0.97,0.92l0.84 1.4 -0.84 0 -0.82 -1.4c-0.17,-0.28 -0.31,-0.47 -0.44,-0.56 -0.12,-0.09 -0.27,-0.13 -0.45,-0.13l0 2.09 -0.78 0 0 -2.09c-0.17,0 -0.32,0.04 -0.44,0.13 -0.12,0.09 -0.27,0.27 -0.44,0.56l-0.83 1.4 -0.84 0 0.84 -1.4c0.32,-0.53 0.64,-0.83 0.97,-0.92 -0.23,-0.1 -0.39,-0.22 -0.48,-0.34 -0.09,-0.12 -0.23,-0.42 -0.41,-0.88 -0.06,-0.16 -0.13,-0.25 -0.2,-0.29 -0.07,-0.04 -0.18,-0.05 -0.33,-0.05 -0.04,0 -0.11,0 -0.23,0l0 -0.64 0.11 0c0.3,0 0.5,0.02 0.62,0.05 0.12,0.03 0.23,0.11 0.32,0.22 0.09,0.11 0.22,0.35 0.37,0.72 0.18,0.45 0.33,0.72 0.43,0.81 0.1,0.1 0.27,0.14 0.52,0.14l0 -1.95 0.78 0z"/>
  <polygon id="_2_6" class="fil0" points="13.65,11.06 16.26,11.06 16.26,11.69 14.42,11.69 14.42,15.58 13.65,15.58 "/>
  <path id="_3_7" class="fil0" d="M16.35 13.32c0,-0.83 0.23,-1.45 0.7,-1.86 0.39,-0.33 0.86,-0.5 1.42,-0.5 0.62,0 1.13,0.2 1.52,0.61 0.39,0.4 0.59,0.97 0.59,1.68 0,0.58 -0.09,1.04 -0.26,1.37 -0.17,0.33 -0.43,0.59 -0.76,0.78 -0.33,0.18 -0.7,0.28 -1.09,0.28 -0.63,0 -1.14,-0.2 -1.53,-0.61 -0.39,-0.4 -0.58,-0.99 -0.58,-1.75zm0.78 0c0,0.58 0.13,1.01 0.38,1.3 0.25,0.29 0.57,0.43 0.96,0.43 0.38,0 0.7,-0.14 0.95,-0.43 0.25,-0.29 0.38,-0.73 0.38,-1.32 0,-0.56 -0.13,-0.98 -0.38,-1.27 -0.25,-0.29 -0.57,-0.43 -0.95,-0.43 -0.38,0 -0.7,0.14 -0.96,0.43 -0.25,0.29 -0.38,0.72 -0.38,1.29z"/>
  <polygon id="_4_8" class="fil0" points="21.48,11.06 22.25,11.06 22.25,12.94 24.37,12.94 24.37,11.06 25.14,11.06 25.14,15.58 24.37,15.58 24.37,13.58 22.25,13.58 22.25,15.58 21.48,15.58 "/>
  <path class="fil0" d="M102.6 13.56l0.83 0 0 2.66 1.49 0c0.97,0 1.61,0.18 1.92,0.54 0.31,0.36 0.46,0.77 0.46,1.23 0,0.48 -0.16,0.91 -0.49,1.27 -0.33,0.36 -0.94,0.54 -1.83,0.54l-2.37 0 0 -6.24zm0.83 5.53l1.5 0c0.52,0 0.89,-0.09 1.13,-0.26 0.23,-0.17 0.35,-0.45 0.35,-0.84 0,-0.26 -0.07,-0.48 -0.21,-0.65 -0.14,-0.18 -0.32,-0.29 -0.55,-0.34 -0.22,-0.05 -0.6,-0.07 -1.12,-0.07l-1.1 0 0 2.16zm4.62 -5.53l0.83 0 0 6.24 -0.83 0 0 -6.24z"/>
  <polygon id="_1_9" class="fil0" points="110.2,15.28 111.38,15.28 112.57,18.9 113.89,15.28 114.99,15.28 114.99,19.8 114.22,19.8 114.22,16.16 112.89,19.8 112.2,19.8 110.95,15.99 110.95,19.8 110.2,19.8 "/>
  <path class="fil0" d="M103.64 62.63l0.83 0 0 2.66 1.49 0c0.97,0 1.61,0.18 1.92,0.54 0.31,0.36 0.46,0.77 0.46,1.23 0,0.48 -0.16,0.91 -0.49,1.27 -0.33,0.36 -0.94,0.54 -1.83,0.54l-2.37 0 0 -6.24zm0.83 5.53l1.5 0c0.52,0 0.89,-0.09 1.13,-0.26 0.23,-0.17 0.35,-0.45 0.35,-0.84 0,-0.26 -0.07,-0.48 -0.21,-0.65 -0.14,-0.18 -0.32,-0.29 -0.55,-0.34 -0.22,-0.05 -0.6,-0.07 -1.12,-0.07l-1.1 0 0 2.16zm4.62 -5.53l0.83 0 0 6.24 -0.83 0 0 -6.24z"/>
  <polygon id="_1_10" class="fil0" points="111.21,64.35 113.82,64.35 113.82,64.98 111.98,64.98 111.98,68.87 111.21,68.87 "/>
  <path id="_2_11" class="fil0" d="M118.69 64.35l0.77 0 0 4.52 -0.77 0 0 -4.52zm-4.28 0l0.77 0 0 1.77 0.97 0c0.63,0 1.12,0.12 1.46,0.37 0.34,0.25 0.51,0.58 0.51,1.01 0,0.38 -0.14,0.7 -0.43,0.97 -0.28,0.27 -0.74,0.4 -1.36,0.4l-1.91 0 0 -4.52zm0.77 3.89l0.8 0c0.48,0 0.83,-0.06 1.04,-0.18 0.21,-0.12 0.31,-0.3 0.31,-0.56 0,-0.2 -0.08,-0.37 -0.23,-0.52 -0.15,-0.15 -0.49,-0.23 -1.02,-0.23l-0.91 0 0 1.49z"/>
 </g>
</svg>
