<?xml version="1.0" encoding="UTF-8"?>
<!DOCTYPE svg PUBLIC "-//W3C//DTD SVG 1.1//EN" "http://www.w3.org/Graphics/SVG/1.1/DTD/svg11.dtd">
<!-- Creator: CorelDRAW -->
<svg xmlns="http://www.w3.org/2000/svg" xml:space="preserve" width="71.8157mm" height="54.4034mm" version="1.1" style="shape-rendering:geometricPrecision; text-rendering:geometricPrecision; image-rendering:optimizeQuality; fill-rule:evenodd; clip-rule:evenodd"
viewBox="0 0 122.82 93.04"
 xmlns:xlink="http://www.w3.org/1999/xlink"
 xmlns:xodm="http://www.corel.com/coreldraw/odm/2003">
 <defs>
  <style type="text/css">
   <![CDATA[
    .fil0 {fill:#656551;fill-rule:nonzero}
   ]]>
  </style>
 </defs>
 <g id="Слой_x0020_1">
  <metadata id="CorelCorpID_0Corel-Layer"/>
  <path class="fil0" d="M57.87 86.52l0.86 0 2.11 3.96 1.83 -3.96 0.84 0 -2.41 5.01c-0.3,0.63 -0.55,1.04 -0.74,1.23 -0.19,0.19 -0.47,0.29 -0.83,0.29 -0.22,0 -0.49,-0.05 -0.81,-0.15l0 -0.73c0.23,0.13 0.47,0.2 0.72,0.2 0.21,0 0.38,-0.07 0.54,-0.2 0.15,-0.13 0.32,-0.44 0.5,-0.91l-2.61 -4.73z"/>
  <path id="_1" class="fil0" d="M63.84 88.29l0.79 0 0 0.88c0,0.38 0.02,0.66 0.07,0.83 0.04,0.17 0.15,0.32 0.33,0.45 0.17,0.13 0.39,0.19 0.65,0.19 0.3,0 0.69,-0.08 1.16,-0.24l0 -2.11 0.79 0 0 4.66 -0.79 0 0 -1.88c-0.49,0.15 -0.94,0.23 -1.36,0.23 -0.36,0 -0.67,-0.09 -0.94,-0.27 -0.27,-0.18 -0.46,-0.4 -0.55,-0.66 -0.1,-0.26 -0.15,-0.55 -0.15,-0.86l0 -1.22zm0.66 -0.58l0 -0.9 0.83 0 0 0.9 -0.83 0zm1.64 0l0 -0.9 0.83 0 0 0.9 -0.83 0z"/>
  <path id="_2" class="fil0" d="M73.26 88.29l0.79 0 0 4.66 -0.79 0 0 -4.66zm-4.41 0l0.79 0 0 1.82 1 0c0.65,0 1.15,0.13 1.5,0.38 0.35,0.25 0.53,0.6 0.53,1.05 0,0.39 -0.15,0.72 -0.44,1 -0.29,0.28 -0.76,0.41 -1.41,0.41l-1.97 0 0 -4.66zm0.79 4.02l0.83 0c0.5,0 0.86,-0.06 1.07,-0.18 0.21,-0.12 0.32,-0.31 0.32,-0.58 0,-0.2 -0.08,-0.38 -0.24,-0.54 -0.16,-0.16 -0.51,-0.24 -1.05,-0.24l-0.93 0 0 1.54z"/>
  <path class="fil0" d="M58.41 0l0.86 0 2.11 3.96 1.83 -3.96 0.84 0 -2.41 5.01c-0.3,0.63 -0.55,1.04 -0.74,1.23 -0.19,0.19 -0.47,0.29 -0.83,0.29 -0.22,0 -0.49,-0.05 -0.81,-0.15l0 -0.73c0.23,0.13 0.47,0.2 0.72,0.2 0.21,0 0.38,-0.07 0.54,-0.2 0.15,-0.13 0.32,-0.44 0.5,-0.91l-2.61 -4.73z"/>
  <path id="_1_0" class="fil0" d="M65.2 4.32l0 -0.62c0.33,-0 0.56,-0.02 0.68,-0.04 0.12,-0.02 0.24,-0.09 0.34,-0.21 0.11,-0.12 0.16,-0.26 0.16,-0.44 0,-0.21 -0.07,-0.38 -0.21,-0.51 -0.14,-0.13 -0.33,-0.19 -0.55,-0.19 -0.44,0 -0.76,0.26 -0.93,0.78l-0.75 -0.13c0.23,-0.87 0.8,-1.3 1.7,-1.3 0.5,0 0.89,0.13 1.17,0.41 0.28,0.27 0.42,0.59 0.42,0.97 0,0.38 -0.18,0.68 -0.55,0.9 0.24,0.13 0.41,0.29 0.53,0.48 0.12,0.19 0.18,0.43 0.18,0.69 0,0.42 -0.15,0.76 -0.46,1.02 -0.31,0.26 -0.73,0.39 -1.28,0.39 -1.06,0 -1.68,-0.47 -1.85,-1.41l0.75 -0.16c0.07,0.3 0.2,0.53 0.41,0.69 0.21,0.16 0.44,0.24 0.71,0.24 0.27,0 0.49,-0.07 0.66,-0.23 0.18,-0.15 0.27,-0.34 0.27,-0.58 0,-0.18 -0.06,-0.34 -0.17,-0.47 -0.11,-0.13 -0.23,-0.22 -0.35,-0.25 -0.13,-0.03 -0.35,-0.05 -0.68,-0.05 -0.03,0 -0.09,0 -0.18,0z"/>
  <path id="_2_1" class="fil0" d="M72.72 1.77l0.79 0 0 4.66 -0.79 0 0 -4.66zm-4.41 0l0.79 0 0 1.82 1 0c0.65,0 1.15,0.13 1.5,0.38 0.35,0.25 0.53,0.6 0.53,1.05 0,0.39 -0.15,0.72 -0.44,1 -0.29,0.28 -0.76,0.41 -1.41,0.41l-1.97 0 0 -4.66zm0.79 4.02l0.83 0c0.5,0 0.86,-0.06 1.07,-0.18 0.21,-0.12 0.32,-0.31 0.32,-0.58 0,-0.2 -0.08,-0.38 -0.24,-0.54 -0.16,-0.16 -0.51,-0.24 -1.05,-0.24l-0.93 0 0 1.54z"/>
  <path class="fil0" d="M-0 64.59l0.86 0 2.11 3.96 1.83 -3.96 0.84 0 -2.41 5.01c-0.3,0.63 -0.55,1.04 -0.74,1.23 -0.19,0.19 -0.47,0.29 -0.83,0.29 -0.22,0 -0.49,-0.05 -0.81,-0.15l0 -0.73c0.23,0.13 0.47,0.2 0.72,0.2 0.21,0 0.38,-0.07 0.54,-0.2 0.15,-0.13 0.32,-0.44 0.5,-0.91l-2.61 -4.73z"/>
  <path id="_1_2" class="fil0" d="M6.05 66.36l3.68 0 0 4.66 -0.79 0 0 -4 -2.09 0 0 2.32c0,0.54 -0.02,0.9 -0.05,1.07 -0.04,0.17 -0.13,0.32 -0.29,0.45 -0.16,0.13 -0.39,0.19 -0.68,0.19 -0.18,0 -0.4,-0.01 -0.64,-0.03l0 -0.66 0.35 0c0.16,0 0.28,-0.02 0.35,-0.05 0.07,-0.03 0.12,-0.09 0.14,-0.16 0.02,-0.07 0.03,-0.31 0.03,-0.71l0 -3.07z"/>
  <path id="_2_3" class="fil0" d="M10.9 66.36l1.82 0c0.45,0 0.78,0.04 1,0.11 0.22,0.07 0.4,0.21 0.56,0.41 0.16,0.2 0.24,0.44 0.24,0.72 0,0.22 -0.05,0.42 -0.14,0.58 -0.09,0.17 -0.23,0.31 -0.42,0.42 0.22,0.07 0.4,0.21 0.55,0.41 0.14,0.2 0.22,0.44 0.22,0.71 -0.03,0.44 -0.19,0.77 -0.47,0.98 -0.29,0.21 -0.7,0.32 -1.25,0.32l-2.1 0 0 -4.66zm0.79 1.97l0.84 0c0.33,0 0.56,-0.02 0.69,-0.05 0.13,-0.04 0.24,-0.11 0.34,-0.21 0.1,-0.11 0.15,-0.24 0.15,-0.38 0,-0.25 -0.09,-0.42 -0.26,-0.52 -0.17,-0.1 -0.47,-0.15 -0.89,-0.15l-0.86 0 0 1.31zm0 2.05l1.04 0c0.45,0 0.75,-0.05 0.92,-0.16 0.17,-0.1 0.25,-0.28 0.26,-0.54 0,-0.15 -0.05,-0.29 -0.14,-0.41 -0.1,-0.13 -0.22,-0.21 -0.38,-0.24 -0.15,-0.03 -0.4,-0.05 -0.74,-0.05l-0.95 0 0 1.4z"/>
  <path id="_3" class="fil0" d="M18.62 70.44c-0.29,0.25 -0.58,0.43 -0.85,0.53 -0.27,0.1 -0.56,0.15 -0.87,0.15 -0.51,0 -0.91,-0.12 -1.18,-0.37 -0.28,-0.25 -0.41,-0.57 -0.41,-0.96 0,-0.23 0.05,-0.44 0.16,-0.62 0.1,-0.19 0.24,-0.34 0.41,-0.45 0.17,-0.11 0.36,-0.2 0.57,-0.26 0.16,-0.04 0.39,-0.08 0.7,-0.12 0.64,-0.07 1.11,-0.17 1.41,-0.27 0,-0.11 0,-0.18 0,-0.21 0,-0.32 -0.07,-0.55 -0.22,-0.68 -0.2,-0.18 -0.5,-0.27 -0.9,-0.27 -0.37,0 -0.65,0.07 -0.83,0.2 -0.18,0.13 -0.31,0.36 -0.39,0.69l-0.77 -0.11c0.07,-0.33 0.19,-0.6 0.35,-0.8 0.16,-0.2 0.4,-0.36 0.7,-0.47 0.3,-0.11 0.66,-0.16 1.06,-0.16 0.4,0 0.72,0.05 0.97,0.14 0.25,0.09 0.43,0.21 0.55,0.35 0.12,0.14 0.2,0.32 0.25,0.54 0.03,0.13 0.04,0.38 0.04,0.73l0 1.05c0,0.73 0.02,1.2 0.05,1.39 0.03,0.2 0.1,0.38 0.19,0.56l-0.83 0c-0.08,-0.17 -0.13,-0.36 -0.15,-0.58zm-0.06 -1.75c-0.29,0.12 -0.72,0.22 -1.29,0.3 -0.33,0.05 -0.56,0.1 -0.69,0.16 -0.13,0.06 -0.24,0.14 -0.31,0.25 -0.07,0.11 -0.11,0.24 -0.11,0.37 0,0.21 0.08,0.38 0.24,0.52 0.16,0.14 0.39,0.21 0.7,0.21 0.3,0 0.58,-0.07 0.81,-0.2 0.24,-0.13 0.41,-0.31 0.52,-0.54 0.09,-0.18 0.13,-0.44 0.13,-0.79l0 -0.29z"/>
  <path id="_4" class="fil0" d="M20.58 66.36l0.79 0 0 3.56 2.2 -3.56 0.85 0 0 4.66 -0.79 0 0 -3.53 -2.19 3.53 -0.85 0 0 -4.66zm2.73 -1.73l0.54 0c-0.04,0.37 -0.18,0.65 -0.4,0.85 -0.22,0.2 -0.52,0.3 -0.9,0.3 -0.37,0 -0.67,-0.1 -0.9,-0.3 -0.22,-0.2 -0.36,-0.48 -0.4,-0.86l0.54 0c0.04,0.2 0.12,0.35 0.24,0.45 0.12,0.1 0.29,0.15 0.49,0.15 0.24,0 0.42,-0.05 0.54,-0.15 0.12,-0.1 0.2,-0.25 0.24,-0.46z"/>
  <path class="fil0" d="M-0 9.64l0.86 0 2.11 3.96 1.83 -3.96 0.84 0 -2.41 5.01c-0.3,0.63 -0.55,1.04 -0.74,1.23 -0.19,0.19 -0.47,0.29 -0.83,0.29 -0.22,0 -0.49,-0.05 -0.81,-0.15l0 -0.73c0.23,0.13 0.47,0.2 0.72,0.2 0.21,0 0.38,-0.07 0.54,-0.2 0.15,-0.13 0.32,-0.44 0.5,-0.91l-2.61 -4.73z"/>
  <path id="_1_4" class="fil0" d="M5.85 11.41l0.79 0 0 2.01c0.25,0 0.43,-0.05 0.53,-0.15 0.1,-0.1 0.25,-0.38 0.45,-0.84 0.16,-0.37 0.28,-0.61 0.38,-0.73 0.1,-0.12 0.21,-0.2 0.33,-0.24 0.13,-0.04 0.33,-0.06 0.61,-0.06l0.16 0 0 0.65 -0.22 -0c-0.21,0 -0.34,0.03 -0.4,0.09 -0.06,0.06 -0.16,0.26 -0.28,0.58 -0.12,0.31 -0.23,0.52 -0.33,0.63 -0.1,0.12 -0.25,0.22 -0.46,0.32 0.34,0.09 0.68,0.41 1.01,0.95l0.87 1.45 -0.87 0 -0.86 -1.44c-0.17,-0.29 -0.32,-0.48 -0.45,-0.58 -0.13,-0.09 -0.28,-0.14 -0.46,-0.14l0 2.16 -0.79 0 0 -4.66z"/>
  <path id="_2_5" class="fil0" d="M12.94 14.37l0.77 0.11c-0.09,0.53 -0.3,0.95 -0.65,1.25 -0.35,0.3 -0.78,0.45 -1.29,0.45 -0.64,0 -1.15,-0.21 -1.54,-0.62 -0.39,-0.42 -0.58,-1.01 -0.58,-1.79 0,-0.5 0.08,-0.94 0.25,-1.32 0.17,-0.38 0.42,-0.66 0.76,-0.85 0.34,-0.19 0.71,-0.28 1.11,-0.28 0.5,0 0.92,0.13 1.24,0.38 0.32,0.26 0.53,0.62 0.62,1.09l-0.76 0.12c-0.07,-0.31 -0.2,-0.55 -0.39,-0.71 -0.19,-0.16 -0.41,-0.24 -0.67,-0.24 -0.4,0 -0.72,0.14 -0.97,0.43 -0.25,0.29 -0.37,0.74 -0.37,1.35 0,0.63 0.12,1.08 0.36,1.36 0.24,0.28 0.55,0.43 0.94,0.43 0.31,0 0.57,-0.09 0.78,-0.28 0.21,-0.19 0.34,-0.48 0.4,-0.87z"/>
  <path id="_3_6" class="fil0" d="M17.56 14.56l0.82 0.11c-0.13,0.47 -0.37,0.84 -0.71,1.11 -0.35,0.26 -0.79,0.39 -1.33,0.39 -0.68,0 -1.22,-0.21 -1.62,-0.63 -0.4,-0.42 -0.6,-1.01 -0.6,-1.76 0,-0.78 0.2,-1.39 0.6,-1.82 0.4,-0.43 0.93,-0.65 1.57,-0.65 0.62,0 1.13,0.21 1.52,0.63 0.39,0.42 0.59,1.02 0.59,1.79 0,0.05 -0,0.12 -0,0.21l-3.47 0c0.03,0.51 0.17,0.9 0.43,1.17 0.26,0.27 0.58,0.41 0.97,0.41 0.29,0 0.54,-0.08 0.74,-0.23 0.21,-0.15 0.37,-0.4 0.49,-0.73zm-2.59 -1.27l2.6 0c-0.03,-0.39 -0.13,-0.69 -0.3,-0.88 -0.25,-0.3 -0.58,-0.46 -0.98,-0.46 -0.36,0 -0.67,0.12 -0.91,0.36 -0.25,0.24 -0.38,0.57 -0.41,0.97zm0.04 -2.46l0 -0.9 0.83 0 0 0.9 -0.83 0zm1.64 0l0 -0.9 0.83 0 0 0.9 -0.83 0z"/>
  <path class="fil0" d="M109.91 13.99l0.86 0 2.11 3.96 1.83 -3.96 0.84 0 -2.41 5.01c-0.3,0.63 -0.55,1.04 -0.74,1.23 -0.19,0.19 -0.47,0.29 -0.83,0.29 -0.22,0 -0.49,-0.05 -0.81,-0.15l0 -0.73c0.23,0.13 0.47,0.2 0.72,0.2 0.21,0 0.38,-0.07 0.54,-0.2 0.15,-0.13 0.32,-0.44 0.5,-0.91l-2.61 -4.73z"/>
  <path id="_1_7" class="fil0" d="M115.88 15.76l0.79 0 0 3.56 2.2 -3.56 0.85 0 0 4.66 -0.79 0 0 -3.53 -2.19 3.53 -0.85 0 0 -4.66zm2.73 -1.73l0.54 0c-0.04,0.37 -0.18,0.65 -0.4,0.85 -0.22,0.2 -0.52,0.3 -0.9,0.3 -0.37,0 -0.67,-0.1 -0.9,-0.3 -0.22,-0.2 -0.36,-0.48 -0.4,-0.86l0.54 0c0.04,0.2 0.12,0.35 0.24,0.45 0.12,0.1 0.29,0.15 0.49,0.15 0.24,0 0.42,-0.05 0.54,-0.15 0.12,-0.1 0.2,-0.25 0.24,-0.46z"/>
  <path class="fil0" d="M104 64.62l0.86 0 2.11 3.96 1.83 -3.96 0.84 0 -2.41 5.01c-0.3,0.63 -0.55,1.04 -0.74,1.23 -0.19,0.19 -0.47,0.29 -0.83,0.29 -0.22,0 -0.49,-0.05 -0.81,-0.15l0 -0.73c0.23,0.13 0.47,0.2 0.72,0.2 0.21,0 0.38,-0.07 0.54,-0.2 0.15,-0.13 0.32,-0.44 0.5,-0.91l-2.61 -4.73z"/>
  <path id="_1_8" class="fil0" d="M109.85 66.39l0.79 0 0 2.01c0.25,0 0.43,-0.05 0.53,-0.15 0.1,-0.1 0.25,-0.38 0.45,-0.84 0.16,-0.37 0.28,-0.61 0.38,-0.73 0.1,-0.12 0.21,-0.2 0.33,-0.24 0.13,-0.04 0.33,-0.06 0.61,-0.06l0.16 0 0 0.65 -0.22 -0c-0.21,0 -0.34,0.03 -0.4,0.09 -0.06,0.06 -0.16,0.26 -0.28,0.58 -0.12,0.31 -0.23,0.52 -0.33,0.63 -0.1,0.12 -0.25,0.22 -0.46,0.32 0.34,0.09 0.68,0.41 1.01,0.95l0.87 1.45 -0.87 0 -0.86 -1.44c-0.17,-0.29 -0.32,-0.48 -0.45,-0.58 -0.13,-0.09 -0.28,-0.14 -0.46,-0.14l0 2.16 -0.79 0 0 -4.66z"/>
  <polygon id="_2_9" class="fil0" points="113.79,66.39 114.58,66.39 114.58,68.33 116.77,68.33 116.77,66.39 117.56,66.39 117.56,71.05 116.77,71.05 116.77,68.99 114.58,68.99 114.58,71.05 113.79,71.05 "/>
  <path id="_3_10" class="fil0" d="M118.45 68.72c0,-0.86 0.24,-1.5 0.72,-1.91 0.4,-0.34 0.89,-0.52 1.47,-0.52 0.64,0 1.16,0.21 1.57,0.63 0.41,0.42 0.61,1 0.61,1.74 0,0.6 -0.09,1.07 -0.27,1.41 -0.18,0.34 -0.44,0.61 -0.79,0.8 -0.34,0.19 -0.72,0.28 -1.12,0.28 -0.65,0 -1.18,-0.21 -1.58,-0.63 -0.4,-0.42 -0.6,-1.02 -0.6,-1.8zm0.81 0c0,0.6 0.13,1.04 0.39,1.34 0.26,0.3 0.59,0.44 0.99,0.44 0.39,0 0.72,-0.15 0.98,-0.45 0.26,-0.3 0.39,-0.75 0.39,-1.36 0,-0.58 -0.13,-1.01 -0.39,-1.31 -0.26,-0.3 -0.59,-0.44 -0.98,-0.44 -0.4,0 -0.72,0.15 -0.99,0.44 -0.26,0.3 -0.39,0.74 -0.39,1.33z"/>
 </g>
</svg>
