<?xml version="1.0" encoding="UTF-8"?>
<!DOCTYPE svg PUBLIC "-//W3C//DTD SVG 1.1//EN" "http://www.w3.org/Graphics/SVG/1.1/DTD/svg11.dtd">
<!-- Creator: CorelDRAW 2019 (64-Bit) -->
<svg xmlns="http://www.w3.org/2000/svg" xml:space="preserve" width="6.82533cm" height="4.17218cm" version="1.1" style="shape-rendering:geometricPrecision; text-rendering:geometricPrecision; image-rendering:optimizeQuality; fill-rule:evenodd; clip-rule:evenodd"
viewBox="0 0 18.44 11.272"
 xmlns:xlink="http://www.w3.org/1999/xlink"
 xmlns:xodm="http://www.corel.com/coreldraw/odm/2003">
 <defs>
  <style type="text/css">
   <![CDATA[
    .fil0 {fill:#66654B;fill-rule:nonzero}
   ]]>
  </style>
 </defs>
 <g id="Слой_x0020_1">
  <metadata id="CorelCorpID_0Corel-Layer"/>
  <g id="_1663478850256">
   <path class="fil0" d="M0.738 5.86c0,-0.083 -0.02,-0.143 -0.061,-0.182 -0.04,-0.039 -0.099,-0.058 -0.176,-0.058 -0.008,0 -0.017,0 -0.027,0.001 -0.01,0 -0.02,0.001 -0.029,0.002 -0.011,0.002 -0.022,0.003 -0.034,0.004l0 0.451c0.007,0 0.015,0.001 0.023,0.001 0.007,0 0.014,0.001 0.023,0.001 0.009,0 0.017,0 0.027,0 0.05,0 0.091,-0.005 0.124,-0.015 0.033,-0.01 0.059,-0.025 0.079,-0.044 0.019,-0.019 0.033,-0.042 0.041,-0.07 0.008,-0.027 0.012,-0.059 0.012,-0.093zm0.146 0c0,0.05 -0.007,0.093 -0.021,0.129 -0.014,0.036 -0.037,0.066 -0.068,0.089 -0.031,0.023 -0.072,0.041 -0.122,0.052 -0.05,0.011 -0.111,0.017 -0.183,0.017l-0.34 0 0 -0.061 0.087 -0.006c0.01,-0.001 0.018,-0.005 0.022,-0.011 0.005,-0.007 0.007,-0.013 0.007,-0.018l0 -0.759c0,-0.005 -0.002,-0.012 -0.007,-0.018 -0.005,-0.007 -0.012,-0.01 -0.022,-0.012l-0.075 -0.006 0 -0.061 0.637 0 0 0.221 -0.078 0 -0.018 -0.128c-0.001,-0.007 -0.004,-0.014 -0.008,-0.019 -0.005,-0.005 -0.01,-0.008 -0.016,-0.008l-0.238 0c-0.01,0 -0.018,0.004 -0.022,0.011 -0.005,0.007 -0.007,0.014 -0.007,0.019l0 0.268c0.013,-0.001 0.025,-0.003 0.037,-0.004 0.011,-0.001 0.022,-0.001 0.034,-0.002 0.012,-0.001 0.023,-0.001 0.033,-0.001 0.053,0 0.101,0.007 0.147,0.02 0.045,0.013 0.084,0.033 0.117,0.059 0.033,0.026 0.059,0.058 0.078,0.096 0.019,0.038 0.028,0.083 0.028,0.133zm0.72 -0.333l-0.273 0.664c-0.004,0.011 -0.011,0.026 -0.018,0.044 -0.008,0.018 -0.017,0.036 -0.027,0.056 -0.01,0.02 -0.022,0.039 -0.035,0.059 -0.013,0.02 -0.027,0.037 -0.041,0.052 -0.017,0.017 -0.036,0.031 -0.056,0.04 -0.02,0.01 -0.043,0.015 -0.067,0.015 -0.017,0 -0.031,-0.002 -0.044,-0.007 -0.013,-0.005 -0.024,-0.011 -0.033,-0.018 -0.009,-0.008 -0.015,-0.016 -0.02,-0.026 -0.005,-0.01 -0.007,-0.02 -0.007,-0.031 0,-0.016 0.004,-0.031 0.011,-0.045 0.007,-0.013 0.019,-0.027 0.035,-0.04l0.133 0.061c0.011,-0.012 0.023,-0.026 0.034,-0.043 0.011,-0.017 0.022,-0.035 0.031,-0.054 0.01,-0.019 0.019,-0.038 0.027,-0.056 0.008,-0.019 0.015,-0.036 0.02,-0.052l-0.241 -0.619 -0.078 -0.008 0 -0.056 0.314 0 0 0.056 -0.068 0.004c-0.008,0.001 -0.014,0.004 -0.019,0.01 -0.005,0.006 -0.006,0.013 -0.003,0.021l0.165 0.419 0.168 -0.419c0.003,-0.007 0.003,-0.014 -0.001,-0.021 -0.004,-0.006 -0.01,-0.01 -0.018,-0.011l-0.067 -0.004 0 -0.055 0.253 0 0 0.056 -0.074 0.008zm0.624 0.145l-0.02 -0.122c-0.001,-0.005 -0.004,-0.009 -0.009,-0.012 -0.005,-0.003 -0.01,-0.005 -0.014,-0.005l-0.234 0 0 0.534c0,0.005 0.002,0.009 0.005,0.013 0.004,0.005 0.01,0.007 0.019,0.008l0.06 0.004 0 0.055 -0.307 0 0 -0.055 0.066 -0.004c0.009,-0.001 0.015,-0.004 0.019,-0.008 0.004,-0.004 0.005,-0.009 0.005,-0.013l0 -0.52c0,-0.005 -0.002,-0.01 -0.005,-0.015 -0.004,-0.004 -0.01,-0.007 -0.019,-0.007l-0.066 -0.004 0 -0.055 0.559 0 0 0.208 -0.058 0zm0.662 0.133c0,-0.039 -0.004,-0.076 -0.011,-0.112 -0.008,-0.035 -0.019,-0.067 -0.035,-0.094 -0.016,-0.027 -0.035,-0.049 -0.059,-0.065 -0.024,-0.016 -0.051,-0.024 -0.083,-0.024 -0.033,0 -0.061,0.008 -0.085,0.024 -0.024,0.016 -0.044,0.038 -0.059,0.065 -0.015,0.027 -0.027,0.059 -0.034,0.094 -0.007,0.036 -0.011,0.073 -0.011,0.112 0,0.038 0.004,0.075 0.011,0.111 0.008,0.035 0.019,0.067 0.035,0.094 0.016,0.027 0.035,0.049 0.059,0.066 0.024,0.016 0.051,0.025 0.083,0.025 0.032,0 0.06,-0.008 0.084,-0.024 0.024,-0.016 0.044,-0.038 0.059,-0.065 0.015,-0.027 0.027,-0.059 0.035,-0.094 0.008,-0.036 0.011,-0.073 0.011,-0.112zm0.149 0.001c0,0.05 -0.008,0.097 -0.024,0.141 -0.016,0.044 -0.039,0.082 -0.068,0.114 -0.03,0.032 -0.065,0.057 -0.107,0.076 -0.042,0.018 -0.089,0.028 -0.141,0.028 -0.052,0 -0.098,-0.009 -0.14,-0.027 -0.042,-0.018 -0.077,-0.043 -0.106,-0.075 -0.029,-0.032 -0.051,-0.07 -0.067,-0.113 -0.015,-0.044 -0.023,-0.091 -0.023,-0.142 0,-0.05 0.008,-0.097 0.024,-0.141 0.016,-0.044 0.038,-0.082 0.068,-0.115 0.03,-0.033 0.065,-0.058 0.107,-0.077 0.042,-0.018 0.089,-0.028 0.142,-0.028 0.053,0 0.1,0.009 0.141,0.028 0.042,0.019 0.077,0.045 0.106,0.077 0.029,0.033 0.05,0.071 0.066,0.115 0.015,0.044 0.022,0.09 0.022,0.14zm0.652 -0.004c0,-0.036 -0.004,-0.07 -0.013,-0.102 -0.009,-0.031 -0.021,-0.059 -0.038,-0.082 -0.017,-0.023 -0.037,-0.041 -0.062,-0.054 -0.025,-0.013 -0.053,-0.019 -0.086,-0.019 -0.018,0 -0.036,0.002 -0.053,0.007 -0.018,0.005 -0.033,0.009 -0.046,0.015 -0.016,0.006 -0.031,0.013 -0.046,0.021l0 0.476c0.011,0.005 0.023,0.009 0.035,0.012 0.011,0.003 0.023,0.005 0.037,0.008 0.014,0.002 0.028,0.004 0.043,0.004 0.039,0 0.073,-0.008 0.101,-0.024 0.029,-0.016 0.053,-0.037 0.071,-0.063 0.019,-0.026 0.033,-0.057 0.042,-0.091 0.009,-0.034 0.014,-0.07 0.014,-0.107zm0.142 -0.019c0,0.055 -0.008,0.106 -0.025,0.151 -0.016,0.045 -0.04,0.084 -0.071,0.116 -0.031,0.032 -0.068,0.057 -0.113,0.075 -0.045,0.018 -0.095,0.026 -0.151,0.026 -0.013,0 -0.027,-0 -0.042,-0.002 -0.015,-0.001 -0.029,-0.002 -0.041,-0.004 -0.015,-0.002 -0.029,-0.004 -0.044,-0.006l0 0.224c0,0.009 0.003,0.016 0.009,0.021 0.006,0.005 0.013,0.008 0.022,0.009l0.084 0.009 0 0.055 -0.345 0 0 -0.055 0.068 -0.009c0.009,-0.001 0.016,-0.004 0.022,-0.009 0.005,-0.005 0.008,-0.012 0.008,-0.021l0 -0.799 -0.098 0 0 -0.046 0.175 -0.054 0.055 0 0 0.07c0.02,-0.016 0.042,-0.031 0.065,-0.043 0.02,-0.011 0.043,-0.021 0.069,-0.031 0.026,-0.009 0.053,-0.014 0.08,-0.014 0.037,0 0.071,0.008 0.104,0.023 0.033,0.015 0.062,0.037 0.086,0.066 0.025,0.029 0.044,0.064 0.059,0.106 0.014,0.042 0.022,0.089 0.022,0.142z"/>
   <path class="fil0" d="M14.631 4.059c0,-0.083 -0.02,-0.143 -0.061,-0.182 -0.04,-0.039 -0.099,-0.058 -0.176,-0.058 -0.008,0 -0.017,0 -0.027,0.001 -0.01,0 -0.02,0.001 -0.029,0.002 -0.011,0.002 -0.022,0.003 -0.034,0.004l0 0.451c0.007,0 0.015,0.001 0.023,0.001 0.007,0 0.014,0.001 0.023,0.001 0.009,0 0.017,0 0.027,0 0.05,0 0.091,-0.005 0.124,-0.015 0.033,-0.01 0.059,-0.025 0.079,-0.044 0.019,-0.019 0.033,-0.042 0.041,-0.07 0.008,-0.027 0.012,-0.059 0.012,-0.093zm0.146 0c0,0.05 -0.007,0.093 -0.021,0.129 -0.014,0.036 -0.037,0.066 -0.068,0.089 -0.031,0.023 -0.072,0.041 -0.122,0.052 -0.05,0.011 -0.111,0.017 -0.183,0.017l-0.34 0 0 -0.061 0.087 -0.006c0.01,-0.001 0.018,-0.005 0.022,-0.011 0.005,-0.007 0.007,-0.013 0.007,-0.018l0 -0.759c0,-0.005 -0.002,-0.012 -0.007,-0.018 -0.005,-0.007 -0.012,-0.01 -0.022,-0.012l-0.075 -0.006 0 -0.061 0.637 0 0 0.221 -0.078 0 -0.018 -0.128c-0.001,-0.007 -0.004,-0.014 -0.008,-0.019 -0.005,-0.005 -0.01,-0.008 -0.016,-0.008l-0.238 0c-0.01,0 -0.018,0.004 -0.022,0.011 -0.005,0.007 -0.007,0.014 -0.007,0.019l0 0.268c0.013,-0.001 0.025,-0.003 0.037,-0.004 0.011,-0.001 0.022,-0.001 0.034,-0.002 0.012,-0.001 0.023,-0.001 0.033,-0.001 0.053,0 0.101,0.007 0.147,0.02 0.045,0.013 0.084,0.033 0.117,0.059 0.033,0.026 0.059,0.058 0.078,0.096 0.019,0.038 0.028,0.083 0.028,0.133zm0.703 0.216c-0.02,0.013 -0.04,0.024 -0.062,0.035 -0.022,0.01 -0.044,0.02 -0.067,0.028 -0.023,0.008 -0.046,0.014 -0.07,0.019 -0.024,0.004 -0.047,0.007 -0.071,0.007 -0.043,0 -0.084,-0.007 -0.124,-0.021 -0.04,-0.014 -0.075,-0.036 -0.105,-0.065 -0.03,-0.029 -0.054,-0.065 -0.073,-0.109 -0.018,-0.044 -0.027,-0.095 -0.027,-0.154 0,-0.055 0.008,-0.106 0.025,-0.151 0.017,-0.046 0.04,-0.084 0.069,-0.116 0.03,-0.032 0.065,-0.057 0.105,-0.075 0.041,-0.018 0.085,-0.027 0.134,-0.027 0.044,0 0.082,0.007 0.116,0.022 0.033,0.015 0.061,0.035 0.083,0.062 0.022,0.026 0.039,0.057 0.05,0.093 0.011,0.036 0.017,0.075 0.017,0.117l0 0.019c0,0.007 -0,0.014 -0.001,0.021l-0.46 0c0,0.036 0.004,0.072 0.011,0.107 0.008,0.036 0.021,0.067 0.039,0.096 0.018,0.028 0.042,0.051 0.073,0.069 0.031,0.018 0.069,0.026 0.114,0.026 0.02,0 0.04,-0.003 0.06,-0.008 0.02,-0.005 0.039,-0.012 0.058,-0.02 0.019,-0.008 0.038,-0.018 0.055,-0.028 0.018,-0.01 0.035,-0.021 0.051,-0.031l0 0.087zm-0.142 -0.392c0,-0.024 -0.003,-0.046 -0.008,-0.066 -0.006,-0.02 -0.014,-0.038 -0.025,-0.053 -0.011,-0.015 -0.026,-0.027 -0.043,-0.036 -0.017,-0.009 -0.038,-0.013 -0.062,-0.013 -0.023,0 -0.045,0.005 -0.066,0.014 -0.02,0.009 -0.038,0.023 -0.054,0.04 -0.015,0.017 -0.028,0.038 -0.037,0.063 -0.009,0.025 -0.015,0.052 -0.017,0.083l0.312 0 0 -0.031zm0.794 0.117c0,-0.036 -0.004,-0.07 -0.013,-0.102 -0.009,-0.031 -0.021,-0.059 -0.038,-0.082 -0.017,-0.023 -0.037,-0.041 -0.062,-0.054 -0.025,-0.013 -0.053,-0.019 -0.086,-0.019 -0.018,0 -0.036,0.002 -0.053,0.007 -0.018,0.005 -0.033,0.009 -0.046,0.015 -0.016,0.006 -0.031,0.013 -0.046,0.021l0 0.476c0.011,0.005 0.023,0.009 0.035,0.012 0.011,0.003 0.023,0.005 0.037,0.008 0.014,0.002 0.028,0.004 0.043,0.004 0.039,0 0.073,-0.008 0.101,-0.024 0.029,-0.016 0.053,-0.037 0.071,-0.063 0.019,-0.026 0.033,-0.057 0.042,-0.091 0.009,-0.034 0.014,-0.07 0.014,-0.107zm0.142 -0.019c0,0.055 -0.008,0.106 -0.025,0.151 -0.016,0.045 -0.04,0.084 -0.071,0.116 -0.031,0.032 -0.068,0.057 -0.113,0.075 -0.045,0.018 -0.095,0.026 -0.151,0.026 -0.013,0 -0.027,-0 -0.042,-0.002 -0.015,-0.001 -0.029,-0.002 -0.041,-0.004 -0.015,-0.002 -0.029,-0.004 -0.044,-0.006l0 0.224c0,0.009 0.003,0.016 0.009,0.021 0.006,0.005 0.013,0.008 0.022,0.009l0.084 0.009 0 0.055 -0.345 0 0 -0.055 0.068 -0.009c0.009,-0.001 0.016,-0.004 0.022,-0.009 0.005,-0.005 0.008,-0.012 0.008,-0.021l0 -0.799 -0.098 0 0 -0.046 0.175 -0.054 0.055 0 0 0.07c0.02,-0.016 0.042,-0.031 0.065,-0.043 0.02,-0.011 0.043,-0.021 0.069,-0.031 0.026,-0.009 0.053,-0.014 0.08,-0.014 0.037,0 0.071,0.008 0.104,0.023 0.033,0.015 0.062,0.037 0.086,0.066 0.025,0.029 0.044,0.064 0.059,0.106 0.014,0.042 0.022,0.089 0.022,0.142zm0.555 0.364l0 -0.055 0.065 -0.004c0.009,-0.001 0.015,-0.004 0.019,-0.008 0.004,-0.004 0.005,-0.009 0.005,-0.013l0 -0.424 -0.336 0.386 0 0.038c0,0.005 0.002,0.009 0.006,0.013 0.004,0.005 0.01,0.007 0.018,0.008l0.066 0.004 0 0.055 -0.305 0 0 -0.055 0.06 -0.004c0.008,-0.001 0.013,-0.004 0.017,-0.008 0.004,-0.004 0.005,-0.009 0.005,-0.013l0 -0.522c0,-0.005 -0.002,-0.009 -0.005,-0.014 -0.004,-0.004 -0.009,-0.007 -0.017,-0.008l-0.06 -0.004 0 -0.055 0.305 0 0 0.055 -0.066 0.004c-0.008,0.001 -0.014,0.004 -0.018,0.008 -0.004,0.004 -0.006,0.009 -0.006,0.013l0 0.407 0.336 -0.386 0 -0.021c0,-0.005 -0.002,-0.009 -0.005,-0.013 -0.004,-0.004 -0.01,-0.007 -0.019,-0.008l-0.065 -0.004 0 -0.055 0.305 0 0 0.055 -0.06 0.004c-0.008,0.001 -0.014,0.004 -0.018,0.008 -0.004,0.004 -0.006,0.009 -0.006,0.013l0 0.522c0,0.005 0.002,0.009 0.006,0.013 0.004,0.005 0.01,0.007 0.018,0.008l0.06 0.004 0 0.055 -0.305 0zm0.931 -0.19c0,0.066 -0.025,0.117 -0.076,0.153 -0.05,0.036 -0.128,0.054 -0.231,0.054 -0.018,0 -0.036,-0.001 -0.053,-0.002 -0.017,-0.001 -0.035,-0.003 -0.052,-0.006 -0.018,-0.003 -0.036,-0.006 -0.056,-0.011 -0.019,-0.005 -0.041,-0.01 -0.064,-0.017l0 -0.16 0.068 0 0.017 0.08c0.001,0.004 0.003,0.009 0.008,0.013 0.004,0.005 0.008,0.008 0.01,0.009 0.004,0.002 0.01,0.004 0.018,0.008 0.008,0.004 0.018,0.007 0.028,0.01 0.011,0.004 0.023,0.006 0.036,0.009 0.013,0.003 0.026,0.004 0.041,0.004 0.057,0 0.099,-0.013 0.128,-0.038 0.029,-0.026 0.044,-0.061 0.044,-0.108 0,-0.027 -0.005,-0.048 -0.015,-0.065 -0.01,-0.017 -0.022,-0.03 -0.037,-0.039 -0.015,-0.009 -0.032,-0.015 -0.05,-0.018 -0.018,-0.003 -0.036,-0.005 -0.053,-0.005 -0.011,0 -0.02,0 -0.027,0.001 -0.008,0 -0.014,0.001 -0.019,0.001 -0.006,0.001 -0.011,0.002 -0.014,0.002l0 -0.073c0.003,0 0.006,0.001 0.01,0.001 0.003,0 0.006,0 0.009,0l0.01 0c0.049,0 0.087,-0.01 0.115,-0.031 0.027,-0.021 0.041,-0.053 0.041,-0.097 0,-0.023 -0.004,-0.042 -0.011,-0.057 -0.007,-0.016 -0.018,-0.029 -0.03,-0.039 -0.013,-0.01 -0.028,-0.017 -0.044,-0.021 -0.017,-0.004 -0.035,-0.007 -0.054,-0.007 -0.014,0 -0.027,0.001 -0.039,0.004 -0.012,0.003 -0.023,0.006 -0.032,0.009 -0.009,0.004 -0.017,0.008 -0.024,0.012 -0.007,0.005 -0.012,0.009 -0.016,0.012 -0.003,0.003 -0.007,0.006 -0.012,0.01 -0.005,0.004 -0.008,0.008 -0.009,0.014l-0.017 0.082 -0.068 0 0 -0.154c0.024,-0.011 0.047,-0.019 0.068,-0.026 0.022,-0.007 0.042,-0.012 0.062,-0.016 0.02,-0.004 0.039,-0.006 0.057,-0.008 0.018,-0.001 0.037,-0.002 0.056,-0.002 0.033,0 0.065,0.004 0.095,0.012 0.03,0.008 0.057,0.02 0.079,0.035 0.023,0.015 0.041,0.033 0.054,0.054 0.013,0.021 0.02,0.045 0.02,0.071 0,0.016 -0.002,0.032 -0.006,0.048 -0.004,0.017 -0.012,0.032 -0.023,0.048 -0.011,0.015 -0.027,0.029 -0.048,0.042 -0.021,0.013 -0.047,0.024 -0.081,0.033 0.028,0.001 0.054,0.006 0.077,0.014 0.023,0.008 0.043,0.019 0.059,0.034 0.016,0.014 0.029,0.032 0.038,0.052 0.009,0.02 0.013,0.043 0.013,0.069zm0.541 -0.016c0,-0.023 -0.003,-0.045 -0.008,-0.064 -0.005,-0.019 -0.014,-0.036 -0.026,-0.05 -0.013,-0.014 -0.029,-0.025 -0.05,-0.033 -0.021,-0.008 -0.046,-0.012 -0.077,-0.012 -0.006,0 -0.013,0 -0.021,0.001 -0.008,0 -0.016,0.001 -0.024,0.002 -0.009,0.001 -0.018,0.002 -0.028,0.003l0 0.297c0.006,0 0.012,0.001 0.019,0.001 0.005,0 0.012,0.001 0.018,0.001 0.007,0 0.014,0 0.021,0 0.04,0 0.071,-0.004 0.094,-0.012 0.023,-0.008 0.041,-0.019 0.053,-0.033 0.012,-0.014 0.02,-0.029 0.023,-0.047 0.003,-0.018 0.005,-0.036 0.005,-0.055zm0.139 0c0,0.036 -0.005,0.067 -0.016,0.093 -0.01,0.026 -0.028,0.047 -0.052,0.064 -0.024,0.017 -0.056,0.029 -0.095,0.037 -0.039,0.008 -0.088,0.012 -0.145,0.012l-0.288 0 0 -0.055 0.07 -0.004c0.008,-0.001 0.013,-0.004 0.017,-0.008 0.004,-0.004 0.005,-0.009 0.005,-0.013l0 -0.522c0,-0.005 -0.002,-0.009 -0.005,-0.014 -0.004,-0.004 -0.009,-0.007 -0.017,-0.008l-0.062 -0.004 0 -0.055 0.316 0 0 0.055 -0.076 0.004c-0.008,0.001 -0.014,0.004 -0.018,0.008 -0.004,0.004 -0.006,0.009 -0.006,0.013l0 0.182c0.01,-0.001 0.02,-0.002 0.03,-0.003 0.008,-0.001 0.017,-0.002 0.027,-0.002 0.009,-0 0.018,-0.001 0.026,-0.001 0.042,0 0.081,0.005 0.116,0.014 0.035,0.009 0.066,0.023 0.092,0.042 0.026,0.019 0.046,0.042 0.06,0.07 0.014,0.028 0.022,0.06 0.022,0.096z"/>
   <path class="fil0" d="M8.613 10.973c0,-0.083 -0.02,-0.143 -0.061,-0.182 -0.04,-0.039 -0.099,-0.058 -0.176,-0.058 -0.008,0 -0.017,0 -0.027,0.001 -0.01,0 -0.02,0.001 -0.029,0.002 -0.011,0.002 -0.022,0.003 -0.034,0.004l0 0.451c0.007,0 0.015,0.001 0.023,0.001 0.007,0 0.014,0.001 0.023,0.001 0.009,0 0.017,0 0.027,0 0.05,0 0.091,-0.005 0.124,-0.015 0.033,-0.01 0.059,-0.025 0.079,-0.044 0.019,-0.019 0.033,-0.042 0.041,-0.07 0.008,-0.027 0.012,-0.059 0.012,-0.093zm0.146 0c0,0.05 -0.007,0.093 -0.021,0.129 -0.014,0.036 -0.037,0.066 -0.068,0.089 -0.031,0.023 -0.072,0.041 -0.122,0.052 -0.05,0.011 -0.111,0.017 -0.183,0.017l-0.34 0 0 -0.061 0.087 -0.006c0.01,-0.001 0.018,-0.005 0.022,-0.011 0.005,-0.007 0.007,-0.013 0.007,-0.018l0 -0.759c0,-0.005 -0.002,-0.012 -0.007,-0.018 -0.005,-0.007 -0.012,-0.01 -0.022,-0.012l-0.075 -0.006 0 -0.061 0.637 0 0 0.221 -0.078 0 -0.018 -0.128c-0.001,-0.007 -0.004,-0.014 -0.008,-0.019 -0.005,-0.005 -0.01,-0.008 -0.016,-0.008l-0.238 0c-0.01,0 -0.018,0.004 -0.022,0.011 -0.005,0.007 -0.007,0.014 -0.007,0.019l0 0.268c0.013,-0.001 0.025,-0.003 0.037,-0.004 0.011,-0.001 0.022,-0.001 0.034,-0.002 0.012,-0.001 0.023,-0.001 0.033,-0.001 0.053,0 0.101,0.007 0.147,0.02 0.045,0.013 0.084,0.033 0.117,0.059 0.033,0.026 0.059,0.058 0.078,0.096 0.019,0.038 0.028,0.083 0.028,0.133zm0.527 -0.093c-0.043,0.011 -0.079,0.021 -0.109,0.031 -0.03,0.01 -0.056,0.021 -0.077,0.032 -0.021,0.011 -0.037,0.021 -0.049,0.032 -0.012,0.01 -0.021,0.021 -0.028,0.032 -0.007,0.011 -0.011,0.022 -0.013,0.033 -0.002,0.011 -0.003,0.023 -0.003,0.034 0,0.015 0.002,0.029 0.007,0.042 0.005,0.013 0.012,0.025 0.021,0.036 0.009,0.01 0.02,0.019 0.033,0.025 0.013,0.006 0.028,0.009 0.045,0.009 0.019,0 0.039,-0.003 0.059,-0.009 0.02,-0.006 0.039,-0.013 0.056,-0.021 0.019,-0.009 0.039,-0.019 0.058,-0.031l0 -0.245zm0.019 0.38l-0.019 -0.084c-0.025,0.018 -0.05,0.034 -0.076,0.048 -0.011,0.006 -0.023,0.012 -0.036,0.017 -0.013,0.005 -0.026,0.01 -0.039,0.015 -0.013,0.004 -0.027,0.008 -0.041,0.011 -0.014,0.003 -0.028,0.004 -0.042,0.004 -0.026,0 -0.049,-0.004 -0.072,-0.012 -0.022,-0.008 -0.042,-0.02 -0.058,-0.036 -0.017,-0.016 -0.03,-0.035 -0.04,-0.058 -0.01,-0.023 -0.015,-0.049 -0.015,-0.08 0,-0.018 0.002,-0.034 0.005,-0.05 0.004,-0.016 0.01,-0.031 0.021,-0.046 0.01,-0.015 0.025,-0.029 0.044,-0.043 0.019,-0.014 0.044,-0.027 0.075,-0.04 0.031,-0.014 0.069,-0.027 0.114,-0.04 0.045,-0.013 0.098,-0.027 0.16,-0.04l0 -0.061c0,-0.048 -0.01,-0.083 -0.03,-0.106 -0.02,-0.023 -0.053,-0.034 -0.099,-0.034 -0.025,0 -0.046,0.002 -0.064,0.007 -0.018,0.005 -0.03,0.009 -0.037,0.011l0 0.124 -0.103 0c-0.006,0 -0.013,-0 -0.019,-0.001 -0.006,-0.001 -0.012,-0.003 -0.017,-0.006 -0.005,-0.003 -0.009,-0.007 -0.012,-0.012 -0.003,-0.005 -0.004,-0.013 -0.004,-0.021 0,-0.029 0.009,-0.054 0.026,-0.075 0.018,-0.021 0.04,-0.038 0.069,-0.052 0.028,-0.013 0.06,-0.023 0.095,-0.03 0.035,-0.006 0.07,-0.01 0.106,-0.01 0.044,0 0.08,0.005 0.109,0.016 0.029,0.01 0.052,0.025 0.069,0.044 0.017,0.019 0.029,0.041 0.036,0.067 0.007,0.026 0.01,0.054 0.01,0.085l0 0.398c0,0.009 0.003,0.016 0.009,0.022 0.006,0.006 0.013,0.009 0.021,0.01l0.069 0.004 0 0.055 -0.213 0zm0.769 0l0 -0.044 -0.168 -0.223c-0.005,-0.007 -0.01,-0.013 -0.014,-0.018 -0.004,-0.005 -0.01,-0.009 -0.017,-0.011 -0.007,-0.003 -0.016,-0.005 -0.028,-0.006 -0.011,-0.001 -0.027,-0.002 -0.045,-0.002l0 0.222c0,0.005 0.002,0.009 0.006,0.013 0.004,0.005 0.01,0.007 0.018,0.008l0.059 0.004 0 0.055 -0.305 0 0 -0.055 0.067 -0.004c0.008,-0.001 0.013,-0.004 0.017,-0.008 0.004,-0.004 0.005,-0.009 0.005,-0.013l0 -0.522c0,-0.005 -0.002,-0.009 -0.005,-0.014 -0.004,-0.004 -0.009,-0.007 -0.017,-0.008l-0.067 -0.004 0 -0.055 0.305 0 0 0.055 -0.059 0.004c-0.008,0.001 -0.014,0.004 -0.018,0.008 -0.004,0.004 -0.006,0.009 -0.006,0.013l0 0.238c0.035,-0.002 0.063,-0.01 0.085,-0.024 0.022,-0.014 0.042,-0.034 0.06,-0.06 0.012,-0.018 0.022,-0.035 0.028,-0.051 0.007,-0.016 0.013,-0.031 0.019,-0.046 0.005,-0.015 0.011,-0.029 0.016,-0.043 0.005,-0.014 0.013,-0.028 0.022,-0.043 0.012,-0.021 0.029,-0.037 0.051,-0.05 0.021,-0.013 0.044,-0.019 0.069,-0.019 0.017,0 0.033,0.002 0.047,0.007 0.014,0.005 0.027,0.011 0.037,0.018 0.01,0.008 0.018,0.016 0.025,0.026 0.006,0.01 0.009,0.02 0.009,0.031 0,0.016 -0.004,0.031 -0.012,0.044 -0.008,0.014 -0.019,0.027 -0.036,0.041l-0.132 -0.061c-0.008,0.008 -0.015,0.018 -0.021,0.03 -0.005,0.012 -0.01,0.025 -0.015,0.039 -0.005,0.014 -0.01,0.028 -0.016,0.043 -0.006,0.015 -0.013,0.029 -0.022,0.043 -0.007,0.012 -0.016,0.026 -0.026,0.043 -0.011,0.017 -0.024,0.031 -0.04,0.043 0.008,0.002 0.016,0.004 0.022,0.007 0.006,0.003 0.012,0.006 0.017,0.01 0.005,0.004 0.01,0.009 0.015,0.014 0.005,0.006 0.01,0.012 0.015,0.019l0.18 0.245 0.082 0.004 0 0.055 -0.209 0zm0.691 -0.38c-0.043,0.011 -0.079,0.021 -0.109,0.031 -0.03,0.01 -0.056,0.021 -0.077,0.032 -0.021,0.011 -0.037,0.021 -0.049,0.032 -0.012,0.01 -0.021,0.021 -0.028,0.032 -0.007,0.011 -0.011,0.022 -0.013,0.033 -0.002,0.011 -0.003,0.023 -0.003,0.034 0,0.015 0.002,0.029 0.007,0.042 0.005,0.013 0.012,0.025 0.021,0.036 0.009,0.01 0.02,0.019 0.033,0.025 0.013,0.006 0.028,0.009 0.045,0.009 0.019,0 0.039,-0.003 0.059,-0.009 0.02,-0.006 0.039,-0.013 0.056,-0.021 0.019,-0.009 0.039,-0.019 0.057,-0.031l0 -0.245zm0.019 0.38l-0.019 -0.084c-0.025,0.018 -0.05,0.034 -0.075,0.048 -0.011,0.006 -0.023,0.012 -0.036,0.017 -0.013,0.005 -0.026,0.01 -0.039,0.015 -0.013,0.004 -0.027,0.008 -0.041,0.011 -0.014,0.003 -0.028,0.004 -0.042,0.004 -0.026,0 -0.049,-0.004 -0.072,-0.012 -0.022,-0.008 -0.042,-0.02 -0.058,-0.036 -0.017,-0.016 -0.03,-0.035 -0.04,-0.058 -0.01,-0.023 -0.015,-0.049 -0.015,-0.08 0,-0.018 0.002,-0.034 0.005,-0.05 0.004,-0.016 0.01,-0.031 0.021,-0.046 0.01,-0.015 0.025,-0.029 0.044,-0.043 0.019,-0.014 0.044,-0.027 0.075,-0.04 0.031,-0.014 0.069,-0.027 0.114,-0.04 0.045,-0.013 0.098,-0.027 0.16,-0.04l0 -0.061c0,-0.048 -0.01,-0.083 -0.03,-0.106 -0.02,-0.023 -0.053,-0.034 -0.099,-0.034 -0.025,0 -0.046,0.002 -0.064,0.007 -0.018,0.005 -0.03,0.009 -0.037,0.011l0 0.124 -0.103 0c-0.006,0 -0.013,-0 -0.019,-0.001 -0.006,-0.001 -0.012,-0.003 -0.017,-0.006 -0.005,-0.003 -0.009,-0.007 -0.012,-0.012 -0.003,-0.005 -0.004,-0.013 -0.004,-0.021 0,-0.029 0.009,-0.054 0.026,-0.075 0.018,-0.021 0.04,-0.038 0.069,-0.052 0.028,-0.013 0.06,-0.023 0.095,-0.03 0.035,-0.006 0.07,-0.01 0.106,-0.01 0.044,0 0.08,0.005 0.109,0.016 0.029,0.01 0.052,0.025 0.069,0.044 0.017,0.019 0.029,0.041 0.036,0.067 0.007,0.026 0.01,0.054 0.01,0.085l0 0.398c0,0.009 0.003,0.016 0.009,0.022 0.006,0.006 0.013,0.009 0.021,0.01l0.069 0.004 0 0.055 -0.213 0z"/>
   <path class="fil0" d="M6.257 0.666c0,-0.083 -0.02,-0.143 -0.061,-0.182 -0.04,-0.039 -0.099,-0.058 -0.176,-0.058 -0.008,0 -0.017,0 -0.027,0.001 -0.01,0 -0.02,0.001 -0.029,0.002 -0.011,0.002 -0.022,0.003 -0.034,0.004l0 0.451c0.007,0 0.015,0.001 0.023,0.001 0.007,0 0.014,0.001 0.023,0.001 0.009,0 0.017,0 0.027,0 0.05,0 0.091,-0.005 0.124,-0.015 0.033,-0.01 0.059,-0.025 0.079,-0.044 0.019,-0.019 0.033,-0.042 0.041,-0.07 0.008,-0.027 0.012,-0.059 0.012,-0.093zm0.146 0c0,0.05 -0.007,0.093 -0.021,0.129 -0.014,0.036 -0.037,0.066 -0.068,0.089 -0.031,0.023 -0.072,0.041 -0.122,0.052 -0.05,0.011 -0.111,0.017 -0.183,0.017l-0.34 0 0 -0.061 0.087 -0.006c0.01,-0.001 0.018,-0.005 0.022,-0.011 0.005,-0.007 0.007,-0.013 0.007,-0.018l0 -0.759c0,-0.005 -0.002,-0.012 -0.007,-0.018 -0.005,-0.007 -0.012,-0.01 -0.022,-0.012l-0.075 -0.006 0 -0.061 0.637 0 0 0.221 -0.078 0 -0.018 -0.128c-0.001,-0.007 -0.004,-0.014 -0.008,-0.019 -0.005,-0.005 -0.01,-0.008 -0.016,-0.008l-0.238 0c-0.01,0 -0.018,0.004 -0.022,0.011 -0.005,0.007 -0.007,0.014 -0.007,0.019l0 0.268c0.013,-0.001 0.025,-0.003 0.037,-0.004 0.011,-0.001 0.022,-0.001 0.034,-0.002 0.012,-0.001 0.023,-0.001 0.033,-0.001 0.053,0 0.101,0.007 0.147,0.02 0.045,0.013 0.084,0.033 0.117,0.059 0.033,0.026 0.059,0.058 0.078,0.096 0.019,0.038 0.028,0.083 0.028,0.133zm0.562 0.287l0 -0.055 0.065 -0.004c0.009,-0.001 0.015,-0.004 0.019,-0.008 0.004,-0.004 0.005,-0.009 0.005,-0.013l0 -0.424 -0.336 0.386 0 0.038c0,0.005 0.002,0.009 0.006,0.013 0.004,0.005 0.01,0.007 0.018,0.008l0.066 0.004 0 0.055 -0.305 0 0 -0.055 0.06 -0.004c0.008,-0.001 0.013,-0.004 0.017,-0.008 0.004,-0.004 0.005,-0.009 0.005,-0.013l0 -0.522c0,-0.005 -0.002,-0.009 -0.005,-0.014 -0.004,-0.004 -0.009,-0.007 -0.017,-0.008l-0.06 -0.004 0 -0.055 0.305 0 0 0.055 -0.066 0.004c-0.008,0.001 -0.014,0.004 -0.018,0.008 -0.004,0.004 -0.006,0.009 -0.006,0.013l0 0.407 0.336 -0.386 0 -0.021c0,-0.005 -0.002,-0.009 -0.005,-0.013 -0.004,-0.004 -0.01,-0.007 -0.019,-0.008l-0.065 -0.004 0 -0.055 0.305 0 0 0.055 -0.06 0.004c-0.008,0.001 -0.014,0.004 -0.018,0.008 -0.004,0.004 -0.006,0.009 -0.006,0.013l0 0.522c0,0.005 0.002,0.009 0.006,0.013 0.004,0.005 0.01,0.007 0.018,0.008l0.06 0.004 0 0.055 -0.305 0zm0.954 -0.345c0,-0.036 -0.004,-0.07 -0.013,-0.102 -0.009,-0.031 -0.021,-0.059 -0.038,-0.082 -0.017,-0.023 -0.037,-0.041 -0.062,-0.054 -0.025,-0.013 -0.053,-0.019 -0.086,-0.019 -0.018,0 -0.036,0.002 -0.053,0.007 -0.018,0.005 -0.033,0.009 -0.046,0.015 -0.016,0.006 -0.031,0.013 -0.046,0.021l0 0.476c0.011,0.005 0.023,0.009 0.035,0.012 0.011,0.003 0.023,0.005 0.037,0.008 0.014,0.002 0.028,0.004 0.043,0.004 0.039,0 0.073,-0.008 0.101,-0.024 0.029,-0.016 0.053,-0.037 0.071,-0.063 0.019,-0.026 0.033,-0.057 0.042,-0.091 0.009,-0.034 0.014,-0.07 0.014,-0.107zm0.142 -0.019c0,0.055 -0.008,0.106 -0.025,0.151 -0.016,0.045 -0.04,0.084 -0.071,0.116 -0.031,0.032 -0.068,0.057 -0.113,0.075 -0.045,0.018 -0.095,0.026 -0.151,0.026 -0.013,0 -0.027,-0 -0.042,-0.002 -0.015,-0.001 -0.029,-0.002 -0.041,-0.004 -0.015,-0.002 -0.029,-0.004 -0.044,-0.006l0 0.224c0,0.009 0.003,0.016 0.009,0.021 0.006,0.005 0.013,0.008 0.022,0.009l0.084 0.009 0 0.055 -0.345 0 0 -0.055 0.068 -0.009c0.009,-0.001 0.016,-0.004 0.022,-0.009 0.005,-0.005 0.008,-0.012 0.008,-0.021l0 -0.799 -0.098 0 0 -0.046 0.175 -0.054 0.055 0 0 0.07c0.02,-0.016 0.042,-0.031 0.065,-0.043 0.02,-0.011 0.043,-0.021 0.069,-0.031 0.026,-0.009 0.053,-0.014 0.08,-0.014 0.037,0 0.071,0.008 0.104,0.023 0.033,0.015 0.062,0.037 0.086,0.066 0.025,0.029 0.044,0.064 0.059,0.106 0.014,0.042 0.022,0.089 0.022,0.142zm0.602 -0.252l-0.223 0c0,0.068 -0.002,0.128 -0.007,0.182 -0.005,0.054 -0.011,0.101 -0.019,0.142 -0.008,0.041 -0.017,0.076 -0.026,0.104 -0.01,0.028 -0.02,0.051 -0.03,0.068 -0.004,0.008 -0.009,0.016 -0.013,0.022 -0.004,0.006 -0.008,0.012 -0.011,0.016 -0.004,0.005 -0.007,0.009 -0.01,0.013l0.339 0 0 -0.547zm0.156 -0.021c-0.009,0 -0.015,0.003 -0.019,0.008 -0.004,0.005 -0.005,0.01 -0.005,0.014l0 0.573c0,0.004 0.001,0.008 0.004,0.012 0.003,0.004 0.006,0.008 0.01,0.011 0.004,0.003 0.008,0.006 0.013,0.008 0.005,0.002 0.009,0.003 0.013,0.004l0.051 0.004 0 0.224 -0.068 0c0,-0.036 -0.005,-0.067 -0.015,-0.095 -0.01,-0.027 -0.024,-0.051 -0.042,-0.069 -0.018,-0.019 -0.039,-0.033 -0.063,-0.043 -0.024,-0.01 -0.051,-0.015 -0.079,-0.015l-0.236 0c-0.064,0 -0.113,0.019 -0.147,0.057 -0.033,0.038 -0.05,0.093 -0.05,0.164l-0.07 0 0 -0.224c0.01,-0.002 0.022,-0.006 0.036,-0.013 0.014,-0.006 0.03,-0.015 0.046,-0.026 0.016,-0.011 0.033,-0.026 0.05,-0.044 0.017,-0.018 0.032,-0.04 0.047,-0.067 0.009,-0.016 0.018,-0.041 0.027,-0.074 0.009,-0.033 0.017,-0.071 0.024,-0.114 0.007,-0.043 0.013,-0.088 0.017,-0.136 0.004,-0.048 0.007,-0.095 0.007,-0.141 -0.002,-0.001 -0.003,-0.003 -0.004,-0.006 -0.001,-0.002 -0.002,-0.005 -0.004,-0.007 -0.001,-0.003 -0.003,-0.005 -0.006,-0.006 -0.003,-0.002 -0.006,-0.002 -0.01,-0.002l-0.075 -0.004 0 -0.043 0.614 0 0 0.043 -0.066 0.004zm0.735 0.431c0,0.036 -0.005,0.067 -0.016,0.093 -0.01,0.026 -0.028,0.047 -0.052,0.064 -0.024,0.017 -0.056,0.029 -0.095,0.037 -0.039,0.008 -0.088,0.012 -0.145,0.012l-0.29 0 0 -0.055 0.07 -0.004c0.009,-0.001 0.014,-0.004 0.018,-0.008 0.004,-0.004 0.005,-0.009 0.005,-0.013l0 -0.522c0,-0.005 -0.002,-0.009 -0.006,-0.014 -0.004,-0.004 -0.01,-0.007 -0.018,-0.008l-0.06 -0.004 0 -0.055 0.315 0 0 0.055 -0.075 0.004c-0.009,0.001 -0.015,0.004 -0.019,0.008 -0.004,0.004 -0.005,0.009 -0.005,0.013l0 0.182c0.009,-0.001 0.019,-0.002 0.028,-0.003 0.008,-0.001 0.018,-0.002 0.027,-0.002 0.01,-0 0.019,-0.001 0.027,-0.001 0.042,0 0.081,0.005 0.116,0.014 0.035,0.009 0.066,0.023 0.092,0.042 0.026,0.019 0.046,0.042 0.06,0.07 0.014,0.028 0.022,0.06 0.022,0.096zm-0.007 0.206l0 -0.055 0.068 -0.004c0.009,-0.001 0.015,-0.004 0.019,-0.008 0.004,-0.004 0.005,-0.009 0.005,-0.013l0 -0.522c0,-0.005 -0.002,-0.009 -0.005,-0.013 -0.004,-0.004 -0.01,-0.007 -0.019,-0.008l-0.068 -0.004 0 -0.055 0.315 0 0 0.055 -0.069 0.004c-0.008,0.001 -0.014,0.004 -0.017,0.008 -0.004,0.004 -0.005,0.009 -0.005,0.013l0 0.522c0,0.004 0.002,0.009 0.005,0.013 0.004,0.004 0.009,0.007 0.017,0.008l0.069 0.004 0 0.055 -0.315 0zm-0.133 -0.206c0,-0.023 -0.003,-0.045 -0.008,-0.064 -0.005,-0.019 -0.014,-0.036 -0.026,-0.05 -0.012,-0.014 -0.029,-0.025 -0.049,-0.033 -0.02,-0.008 -0.046,-0.012 -0.077,-0.012 -0.007,0 -0.014,0 -0.022,0.001 -0.008,0 -0.016,0.001 -0.024,0.002 -0.009,0.001 -0.018,0.002 -0.027,0.003l0 0.297 0.018 0.001c0.005,0 0.011,0.001 0.018,0.001 0.007,0 0.014,0 0.021,0 0.04,0 0.072,-0.004 0.095,-0.012 0.023,-0.008 0.041,-0.019 0.052,-0.033 0.012,-0.014 0.019,-0.029 0.023,-0.047 0.003,-0.018 0.005,-0.036 0.005,-0.055z"/>
   <path class="fil0" d="M1.569 9.02c0,-0.083 -0.02,-0.143 -0.061,-0.182 -0.04,-0.039 -0.099,-0.058 -0.176,-0.058 -0.008,0 -0.017,0 -0.027,0.001 -0.01,0 -0.02,0.001 -0.029,0.002 -0.011,0.002 -0.022,0.003 -0.034,0.004l0 0.451c0.007,0 0.015,0.001 0.023,0.001 0.007,0 0.014,0.001 0.023,0.001 0.009,0 0.017,0 0.027,0 0.05,0 0.091,-0.005 0.124,-0.015 0.033,-0.01 0.059,-0.025 0.079,-0.044 0.019,-0.019 0.033,-0.042 0.041,-0.07 0.008,-0.027 0.012,-0.059 0.012,-0.093zm0.146 0c0,0.05 -0.007,0.093 -0.021,0.129 -0.014,0.036 -0.037,0.066 -0.068,0.089 -0.031,0.023 -0.072,0.041 -0.122,0.052 -0.05,0.011 -0.111,0.017 -0.183,0.017l-0.34 0 0 -0.061 0.087 -0.006c0.01,-0.001 0.018,-0.005 0.022,-0.011 0.005,-0.007 0.007,-0.013 0.007,-0.018l0 -0.759c0,-0.005 -0.002,-0.012 -0.007,-0.018 -0.005,-0.007 -0.012,-0.01 -0.022,-0.012l-0.075 -0.006 0 -0.061 0.637 0 0 0.221 -0.078 0 -0.018 -0.128c-0.001,-0.007 -0.004,-0.014 -0.008,-0.019 -0.005,-0.005 -0.01,-0.008 -0.016,-0.008l-0.238 0c-0.01,0 -0.018,0.004 -0.022,0.011 -0.005,0.007 -0.007,0.014 -0.007,0.019l0 0.268c0.013,-0.001 0.025,-0.003 0.037,-0.004 0.011,-0.001 0.022,-0.001 0.034,-0.002 0.012,-0.001 0.023,-0.001 0.033,-0.001 0.053,0 0.101,0.007 0.147,0.02 0.045,0.013 0.084,0.033 0.117,0.059 0.033,0.026 0.059,0.058 0.078,0.096 0.019,0.038 0.028,0.083 0.028,0.133zm0.72 -0.333l-0.273 0.664c-0.004,0.011 -0.011,0.026 -0.018,0.044 -0.008,0.018 -0.017,0.036 -0.027,0.056 -0.01,0.02 -0.022,0.039 -0.035,0.059 -0.013,0.02 -0.027,0.037 -0.041,0.052 -0.017,0.017 -0.036,0.031 -0.056,0.04 -0.02,0.01 -0.043,0.015 -0.067,0.015 -0.017,0 -0.031,-0.002 -0.044,-0.007 -0.013,-0.005 -0.024,-0.011 -0.033,-0.018 -0.009,-0.008 -0.015,-0.016 -0.02,-0.026 -0.005,-0.01 -0.007,-0.02 -0.007,-0.031 0,-0.016 0.004,-0.031 0.011,-0.045 0.007,-0.013 0.019,-0.027 0.035,-0.04l0.133 0.061c0.011,-0.012 0.023,-0.026 0.034,-0.043 0.011,-0.017 0.022,-0.035 0.031,-0.054 0.01,-0.019 0.019,-0.038 0.027,-0.056 0.008,-0.019 0.015,-0.036 0.02,-0.052l-0.241 -0.619 -0.078 -0.008 0 -0.056 0.314 0 0 0.056 -0.068 0.004c-0.008,0.001 -0.014,0.004 -0.019,0.01 -0.005,0.006 -0.006,0.013 -0.003,0.021l0.165 0.419 0.168 -0.419c0.003,-0.007 0.003,-0.014 -0.001,-0.021 -0.004,-0.006 -0.01,-0.01 -0.018,-0.011l-0.067 -0.004 0 -0.055 0.253 0 0 0.056 -0.074 0.008zm0.664 0.278c0,-0.04 -0.005,-0.078 -0.013,-0.114 -0.009,-0.036 -0.022,-0.068 -0.038,-0.095 -0.017,-0.027 -0.037,-0.048 -0.062,-0.064 -0.024,-0.016 -0.053,-0.024 -0.084,-0.024 -0.033,0 -0.062,0.008 -0.087,0.024 -0.025,0.016 -0.045,0.037 -0.062,0.064 -0.017,0.027 -0.029,0.059 -0.037,0.095 -0.008,0.036 -0.012,0.075 -0.012,0.114 0,0.041 0.004,0.08 0.013,0.116 0.009,0.036 0.022,0.068 0.038,0.095 0.017,0.027 0.038,0.049 0.062,0.064 0.024,0.016 0.053,0.024 0.084,0.024 0.033,0 0.062,-0.008 0.086,-0.024 0.025,-0.016 0.045,-0.037 0.062,-0.064 0.017,-0.027 0.029,-0.059 0.037,-0.095 0.008,-0.036 0.012,-0.075 0.012,-0.116zm0.133 0c0,0.05 -0.008,0.097 -0.024,0.141 -0.016,0.044 -0.038,0.082 -0.067,0.114 -0.029,0.032 -0.064,0.058 -0.105,0.076 -0.041,0.019 -0.086,0.028 -0.136,0.028 -0.051,0 -0.097,-0.01 -0.138,-0.031 -0.041,-0.02 -0.075,-0.047 -0.104,-0.081 -0.029,-0.034 -0.051,-0.072 -0.066,-0.115 -0.015,-0.043 -0.023,-0.087 -0.023,-0.133l0 -0.109c0,-0.068 0.005,-0.128 0.015,-0.179 0.01,-0.052 0.024,-0.096 0.043,-0.133 0.018,-0.037 0.041,-0.069 0.067,-0.093 0.026,-0.025 0.056,-0.045 0.088,-0.06 0.032,-0.015 0.067,-0.025 0.105,-0.031 0.038,-0.006 0.077,-0.009 0.119,-0.009 0.039,0 0.07,-0.002 0.093,-0.007 0.023,-0.005 0.04,-0.01 0.053,-0.015 0.014,-0.006 0.023,-0.014 0.028,-0.022l0.022 0c-0.004,0.02 -0.01,0.04 -0.018,0.061 -0.008,0.02 -0.02,0.038 -0.037,0.054 -0.017,0.016 -0.04,0.029 -0.07,0.039 -0.029,0.01 -0.068,0.015 -0.115,0.015 -0.047,0 -0.088,0.004 -0.122,0.012 -0.034,0.008 -0.063,0.018 -0.086,0.032 -0.024,0.014 -0.043,0.03 -0.057,0.048 -0.015,0.018 -0.027,0.038 -0.036,0.06 -0.009,0.021 -0.016,0.044 -0.021,0.067 -0.005,0.023 -0.009,0.047 -0.012,0.07 0.01,-0.018 0.022,-0.036 0.038,-0.055 0.016,-0.019 0.035,-0.035 0.058,-0.05 0.023,-0.015 0.049,-0.027 0.078,-0.037 0.029,-0.009 0.062,-0.014 0.098,-0.014 0.051,0 0.097,0.009 0.138,0.029 0.041,0.019 0.075,0.045 0.104,0.078 0.029,0.033 0.05,0.071 0.066,0.114 0.015,0.043 0.023,0.09 0.023,0.138zm0.68 0.137c0,0.036 -0.005,0.067 -0.016,0.093 -0.01,0.026 -0.028,0.047 -0.052,0.064 -0.024,0.017 -0.056,0.029 -0.095,0.037 -0.039,0.008 -0.088,0.012 -0.145,0.012l-0.29 0 0 -0.055 0.07 -0.004c0.009,-0.001 0.014,-0.004 0.018,-0.008 0.004,-0.004 0.005,-0.009 0.005,-0.013l0 -0.522c0,-0.005 -0.002,-0.009 -0.006,-0.014 -0.004,-0.004 -0.01,-0.007 -0.018,-0.008l-0.06 -0.004 0 -0.055 0.315 0 0 0.055 -0.075 0.004c-0.009,0.001 -0.015,0.004 -0.019,0.008 -0.004,0.004 -0.005,0.009 -0.005,0.013l0 0.182c0.009,-0.001 0.019,-0.002 0.028,-0.003 0.008,-0.001 0.018,-0.002 0.027,-0.002 0.01,-0 0.019,-0.001 0.027,-0.001 0.042,0 0.081,0.005 0.116,0.014 0.035,0.009 0.066,0.023 0.092,0.042 0.026,0.019 0.046,0.042 0.06,0.07 0.014,0.028 0.022,0.06 0.022,0.096zm-0.007 0.206l0 -0.055 0.068 -0.004c0.009,-0.001 0.015,-0.004 0.019,-0.008 0.004,-0.004 0.005,-0.009 0.005,-0.013l0 -0.522c0,-0.005 -0.002,-0.009 -0.005,-0.013 -0.004,-0.004 -0.01,-0.007 -0.019,-0.008l-0.068 -0.004 0 -0.055 0.315 0 0 0.055 -0.069 0.004c-0.008,0.001 -0.014,0.004 -0.017,0.008 -0.004,0.004 -0.005,0.009 -0.005,0.013l0 0.522c0,0.004 0.002,0.009 0.005,0.013 0.004,0.004 0.009,0.007 0.017,0.008l0.069 0.004 0 0.055 -0.315 0zm-0.133 -0.206c0,-0.023 -0.003,-0.045 -0.008,-0.064 -0.005,-0.019 -0.014,-0.036 -0.026,-0.05 -0.012,-0.014 -0.029,-0.025 -0.049,-0.033 -0.02,-0.008 -0.046,-0.012 -0.077,-0.012 -0.007,0 -0.014,0 -0.022,0.001 -0.008,0 -0.016,0.001 -0.024,0.002 -0.009,0.001 -0.018,0.002 -0.027,0.003l0 0.297 0.018 0.001c0.005,0 0.011,0.001 0.018,0.001 0.007,0 0.014,0 0.021,0 0.04,0 0.072,-0.004 0.095,-0.012 0.023,-0.008 0.041,-0.019 0.052,-0.033 0.012,-0.014 0.019,-0.029 0.023,-0.047 0.003,-0.018 0.005,-0.036 0.005,-0.055zm0.967 0.206l0 -0.055 0.069 -0.004c0.008,-0.001 0.014,-0.004 0.018,-0.008 0.004,-0.004 0.006,-0.009 0.006,-0.014l0 -0.535 -0.224 0c0,0.136 -0.006,0.248 -0.017,0.337 -0.011,0.088 -0.028,0.152 -0.05,0.189 -0.013,0.024 -0.029,0.043 -0.046,0.057 -0.018,0.014 -0.035,0.025 -0.053,0.032 -0.018,0.007 -0.036,0.012 -0.053,0.014 -0.018,0.002 -0.033,0.004 -0.046,0.004 -0.01,0 -0.019,-0.002 -0.028,-0.006 -0.009,-0.004 -0.017,-0.009 -0.025,-0.016 -0.007,-0.006 -0.013,-0.014 -0.018,-0.022 -0.004,-0.009 -0.006,-0.018 -0.006,-0.027 0,-0.01 0.001,-0.019 0.005,-0.029 0.003,-0.01 0.007,-0.018 0.013,-0.026 0.006,-0.008 0.013,-0.014 0.022,-0.019 0.009,-0.005 0.02,-0.007 0.033,-0.007l0.103 0.051c0.005,0 0.011,-0.002 0.015,-0.006 0.005,-0.004 0.009,-0.009 0.013,-0.015 0.004,-0.006 0.007,-0.012 0.01,-0.019 0.003,-0.007 0.006,-0.013 0.009,-0.019 0.008,-0.017 0.015,-0.042 0.021,-0.075 0.006,-0.033 0.011,-0.071 0.015,-0.112 0.004,-0.042 0.007,-0.087 0.009,-0.134 0.002,-0.048 0.003,-0.094 0.003,-0.14 -0.004,-0.003 -0.007,-0.007 -0.009,-0.013 -0.002,-0.005 -0.007,-0.008 -0.015,-0.009l-0.069 -0.004 0 -0.054 0.613 0 0 0.054 -0.069 0.004c-0.008,0.001 -0.014,0.004 -0.018,0.008 -0.004,0.004 -0.005,0.009 -0.005,0.013l0 0.523c0,0.005 0.002,0.009 0.005,0.013 0.004,0.005 0.009,0.007 0.018,0.008l0.069 0.004 0 0.055 -0.317 0zm0.859 0l0 -0.055 0.065 -0.004c0.009,-0.001 0.015,-0.004 0.019,-0.008 0.004,-0.004 0.005,-0.009 0.005,-0.013l0 -0.424 -0.336 0.386 0 0.038c0,0.005 0.002,0.009 0.006,0.013 0.004,0.005 0.01,0.007 0.018,0.008l0.066 0.004 0 0.055 -0.305 0 0 -0.055 0.06 -0.004c0.008,-0.001 0.013,-0.004 0.017,-0.008 0.004,-0.004 0.005,-0.009 0.005,-0.013l0 -0.522c0,-0.005 -0.002,-0.009 -0.005,-0.014 -0.004,-0.004 -0.009,-0.007 -0.017,-0.008l-0.06 -0.004 0 -0.055 0.305 0 0 0.055 -0.066 0.004c-0.008,0.001 -0.014,0.004 -0.018,0.008 -0.004,0.004 -0.006,0.009 -0.006,0.013l0 0.407 0.336 -0.386 0 -0.021c0,-0.005 -0.002,-0.009 -0.005,-0.013 -0.004,-0.004 -0.01,-0.007 -0.019,-0.008l-0.065 -0.004 0 -0.055 0.305 0 0 0.055 -0.06 0.004c-0.008,0.001 -0.014,0.004 -0.018,0.008 -0.004,0.004 -0.006,0.009 -0.006,0.013l0 0.522c0,0.005 0.002,0.009 0.006,0.013 0.004,0.005 0.01,0.007 0.018,0.008l0.06 0.004 0 0.055 -0.305 0z"/>
   <path class="fil0" d="M0.588 2.667c0,-0.083 -0.02,-0.143 -0.061,-0.182 -0.04,-0.039 -0.099,-0.058 -0.176,-0.058 -0.008,0 -0.017,0 -0.027,0.001 -0.01,0 -0.02,0.001 -0.029,0.002 -0.011,0.002 -0.022,0.003 -0.034,0.004l0 0.451c0.007,0 0.015,0.001 0.023,0.001 0.007,0 0.014,0.001 0.023,0.001 0.009,0 0.017,0 0.027,0 0.05,0 0.091,-0.005 0.124,-0.015 0.033,-0.01 0.059,-0.025 0.079,-0.044 0.019,-0.019 0.033,-0.042 0.041,-0.07 0.008,-0.027 0.012,-0.059 0.012,-0.093zm0.146 0c0,0.05 -0.007,0.093 -0.021,0.129 -0.014,0.036 -0.037,0.066 -0.068,0.089 -0.031,0.023 -0.072,0.041 -0.122,0.052 -0.05,0.011 -0.111,0.017 -0.183,0.017l-0.34 0 0 -0.061 0.087 -0.006c0.01,-0.001 0.018,-0.005 0.022,-0.011 0.005,-0.007 0.007,-0.013 0.007,-0.018l0 -0.759c0,-0.005 -0.002,-0.012 -0.007,-0.018 -0.005,-0.007 -0.012,-0.01 -0.022,-0.012l-0.075 -0.006 0 -0.061 0.637 0 0 0.221 -0.078 0 -0.018 -0.128c-0.001,-0.007 -0.004,-0.014 -0.008,-0.019 -0.005,-0.005 -0.01,-0.008 -0.016,-0.008l-0.238 0c-0.01,0 -0.018,0.004 -0.022,0.011 -0.005,0.007 -0.007,0.014 -0.007,0.019l0 0.268c0.013,-0.001 0.025,-0.003 0.037,-0.004 0.011,-0.001 0.022,-0.001 0.034,-0.002 0.012,-0.001 0.023,-0.001 0.033,-0.001 0.053,0 0.101,0.007 0.147,0.02 0.045,0.013 0.084,0.033 0.117,0.059 0.033,0.026 0.059,0.058 0.078,0.096 0.019,0.038 0.028,0.083 0.028,0.133zm0.527 -0.093c-0.043,0.011 -0.079,0.021 -0.109,0.031 -0.03,0.01 -0.056,0.021 -0.077,0.032 -0.021,0.011 -0.037,0.021 -0.049,0.032 -0.012,0.01 -0.021,0.021 -0.028,0.032 -0.007,0.011 -0.011,0.022 -0.013,0.033 -0.002,0.011 -0.003,0.023 -0.003,0.034 0,0.015 0.002,0.029 0.007,0.042 0.005,0.013 0.012,0.025 0.021,0.036 0.009,0.01 0.02,0.019 0.033,0.025 0.013,0.006 0.028,0.009 0.045,0.009 0.019,0 0.039,-0.003 0.059,-0.009 0.02,-0.006 0.039,-0.013 0.056,-0.021 0.019,-0.009 0.039,-0.019 0.058,-0.031l0 -0.245zm0.019 0.38l-0.019 -0.084c-0.025,0.018 -0.05,0.034 -0.076,0.048 -0.011,0.006 -0.023,0.012 -0.036,0.017 -0.013,0.005 -0.026,0.01 -0.039,0.015 -0.013,0.004 -0.027,0.008 -0.041,0.011 -0.014,0.003 -0.028,0.004 -0.042,0.004 -0.026,0 -0.049,-0.004 -0.072,-0.012 -0.022,-0.008 -0.042,-0.02 -0.058,-0.036 -0.017,-0.016 -0.03,-0.035 -0.04,-0.058 -0.01,-0.023 -0.015,-0.049 -0.015,-0.08 0,-0.018 0.002,-0.034 0.005,-0.05 0.004,-0.016 0.01,-0.031 0.021,-0.046 0.01,-0.015 0.025,-0.029 0.044,-0.043 0.019,-0.014 0.044,-0.027 0.075,-0.04 0.031,-0.014 0.069,-0.027 0.114,-0.04 0.045,-0.013 0.098,-0.027 0.16,-0.04l0 -0.061c0,-0.048 -0.01,-0.083 -0.03,-0.106 -0.02,-0.023 -0.053,-0.034 -0.099,-0.034 -0.025,0 -0.046,0.002 -0.064,0.007 -0.018,0.005 -0.03,0.009 -0.037,0.011l0 0.124 -0.103 0c-0.006,0 -0.013,-0 -0.019,-0.001 -0.006,-0.001 -0.012,-0.003 -0.017,-0.006 -0.005,-0.003 -0.009,-0.007 -0.012,-0.012 -0.003,-0.005 -0.004,-0.013 -0.004,-0.021 0,-0.029 0.009,-0.054 0.026,-0.075 0.018,-0.021 0.04,-0.038 0.069,-0.052 0.028,-0.013 0.06,-0.023 0.095,-0.03 0.035,-0.006 0.07,-0.01 0.106,-0.01 0.044,0 0.08,0.005 0.109,0.016 0.029,0.01 0.052,0.025 0.069,0.044 0.017,0.019 0.029,0.041 0.036,0.067 0.007,0.026 0.01,0.054 0.01,0.085l0 0.398c0,0.009 0.003,0.016 0.009,0.022 0.006,0.006 0.013,0.009 0.021,0.01l0.069 0.004 0 0.055 -0.213 0zm0.769 0l0 -0.044 -0.168 -0.223c-0.005,-0.007 -0.01,-0.013 -0.014,-0.018 -0.004,-0.005 -0.01,-0.009 -0.017,-0.011 -0.007,-0.003 -0.016,-0.005 -0.028,-0.006 -0.011,-0.001 -0.027,-0.002 -0.045,-0.002l0 0.222c0,0.005 0.002,0.009 0.006,0.013 0.004,0.005 0.01,0.007 0.018,0.008l0.059 0.004 0 0.055 -0.305 0 0 -0.055 0.067 -0.004c0.008,-0.001 0.013,-0.004 0.017,-0.008 0.004,-0.004 0.005,-0.009 0.005,-0.013l0 -0.522c0,-0.005 -0.002,-0.009 -0.005,-0.014 -0.004,-0.004 -0.009,-0.007 -0.017,-0.008l-0.067 -0.004 0 -0.055 0.305 0 0 0.055 -0.059 0.004c-0.008,0.001 -0.014,0.004 -0.018,0.008 -0.004,0.004 -0.006,0.009 -0.006,0.013l0 0.238c0.035,-0.002 0.063,-0.01 0.085,-0.024 0.022,-0.014 0.042,-0.034 0.06,-0.06 0.012,-0.018 0.022,-0.035 0.028,-0.051 0.007,-0.016 0.013,-0.031 0.019,-0.046 0.005,-0.015 0.011,-0.029 0.016,-0.043 0.005,-0.014 0.013,-0.028 0.022,-0.043 0.012,-0.021 0.029,-0.037 0.051,-0.05 0.021,-0.013 0.044,-0.019 0.069,-0.019 0.017,0 0.033,0.002 0.047,0.007 0.014,0.005 0.027,0.011 0.037,0.018 0.01,0.008 0.018,0.016 0.025,0.026 0.006,0.01 0.009,0.02 0.009,0.031 0,0.016 -0.004,0.031 -0.012,0.044 -0.008,0.014 -0.019,0.027 -0.036,0.041l-0.132 -0.061c-0.008,0.008 -0.015,0.018 -0.021,0.03 -0.005,0.012 -0.01,0.025 -0.015,0.039 -0.005,0.014 -0.01,0.028 -0.016,0.043 -0.006,0.015 -0.013,0.029 -0.022,0.043 -0.007,0.012 -0.016,0.026 -0.026,0.043 -0.011,0.017 -0.024,0.031 -0.04,0.043 0.008,0.002 0.016,0.004 0.022,0.007 0.006,0.003 0.012,0.006 0.017,0.01 0.005,0.004 0.01,0.009 0.015,0.014 0.005,0.006 0.01,0.012 0.015,0.019l0.18 0.245 0.082 0.004 0 0.055 -0.209 0zm0.627 0l0 -0.055 0.057 -0.004c0.007,-0.001 0.013,-0.003 0.017,-0.007 0.005,-0.004 0.007,-0.009 0.007,-0.016l0 -0.229c-0.013,0.007 -0.028,0.015 -0.043,0.022 -0.015,0.008 -0.031,0.014 -0.046,0.02 -0.015,0.006 -0.031,0.011 -0.046,0.015 -0.015,0.004 -0.029,0.005 -0.041,0.005 -0.019,0 -0.04,-0.002 -0.061,-0.007 -0.022,-0.005 -0.041,-0.013 -0.06,-0.025 -0.018,-0.012 -0.034,-0.027 -0.046,-0.047 -0.012,-0.02 -0.018,-0.044 -0.018,-0.073l0 -0.201c0,-0.006 -0.002,-0.012 -0.007,-0.015 -0.004,-0.004 -0.01,-0.006 -0.017,-0.006l-0.063 -0.006 0 -0.055 0.3 0 0 0.055 -0.057 0.006c-0.008,0 -0.014,0.002 -0.018,0.006 -0.005,0.004 -0.007,0.009 -0.007,0.016l0 0.183c0,0.016 0.001,0.03 0.004,0.041 0.003,0.011 0.009,0.02 0.016,0.027 0.008,0.007 0.019,0.012 0.032,0.015 0.014,0.003 0.032,0.005 0.054,0.005 0.02,0 0.04,-0.003 0.059,-0.009 0.019,-0.006 0.04,-0.014 0.062,-0.025l0 -0.237c0,-0.007 -0.002,-0.012 -0.007,-0.016 -0.005,-0.004 -0.01,-0.006 -0.017,-0.006l-0.057 -0.006 0 -0.055 0.301 0 0 0.055 -0.064 0.006c-0.008,0 -0.013,0.002 -0.018,0.006 -0.004,0.004 -0.007,0.009 -0.007,0.016l0 0.519c0,0.007 0.002,0.012 0.007,0.016 0.004,0.004 0.01,0.006 0.018,0.007l0.064 0.004 0 0.055 -0.301 0zm0.813 -0.38c-0.043,0.011 -0.079,0.021 -0.109,0.031 -0.03,0.01 -0.056,0.021 -0.077,0.032 -0.021,0.011 -0.037,0.021 -0.049,0.032 -0.012,0.01 -0.021,0.021 -0.028,0.032 -0.007,0.011 -0.011,0.022 -0.013,0.033 -0.002,0.011 -0.003,0.023 -0.003,0.034 0,0.015 0.002,0.029 0.007,0.042 0.005,0.013 0.012,0.025 0.021,0.036 0.009,0.01 0.02,0.019 0.033,0.025 0.013,0.006 0.028,0.009 0.045,0.009 0.019,0 0.039,-0.003 0.059,-0.009 0.02,-0.006 0.039,-0.013 0.056,-0.021 0.019,-0.009 0.039,-0.019 0.057,-0.031l0 -0.245zm0.019 0.38l-0.019 -0.084c-0.025,0.018 -0.05,0.034 -0.075,0.048 -0.011,0.006 -0.023,0.012 -0.036,0.017 -0.013,0.005 -0.026,0.01 -0.039,0.015 -0.013,0.004 -0.027,0.008 -0.041,0.011 -0.014,0.003 -0.028,0.004 -0.042,0.004 -0.026,0 -0.049,-0.004 -0.072,-0.012 -0.022,-0.008 -0.042,-0.02 -0.058,-0.036 -0.017,-0.016 -0.03,-0.035 -0.04,-0.058 -0.01,-0.023 -0.015,-0.049 -0.015,-0.08 0,-0.018 0.002,-0.034 0.005,-0.05 0.004,-0.016 0.01,-0.031 0.021,-0.046 0.01,-0.015 0.025,-0.029 0.044,-0.043 0.019,-0.014 0.044,-0.027 0.075,-0.04 0.031,-0.014 0.069,-0.027 0.114,-0.04 0.045,-0.013 0.098,-0.027 0.16,-0.04l0 -0.061c0,-0.048 -0.01,-0.083 -0.03,-0.106 -0.02,-0.023 -0.053,-0.034 -0.099,-0.034 -0.025,0 -0.046,0.002 -0.064,0.007 -0.018,0.005 -0.03,0.009 -0.037,0.011l0 0.124 -0.103 0c-0.006,0 -0.013,-0 -0.019,-0.001 -0.006,-0.001 -0.012,-0.003 -0.017,-0.006 -0.005,-0.003 -0.009,-0.007 -0.012,-0.012 -0.003,-0.005 -0.004,-0.013 -0.004,-0.021 0,-0.029 0.009,-0.054 0.026,-0.075 0.018,-0.021 0.04,-0.038 0.069,-0.052 0.028,-0.013 0.06,-0.023 0.095,-0.03 0.035,-0.006 0.07,-0.01 0.106,-0.01 0.044,0 0.08,0.005 0.109,0.016 0.029,0.01 0.052,0.025 0.069,0.044 0.017,0.019 0.029,0.041 0.036,0.067 0.007,0.026 0.01,0.054 0.01,0.085l0 0.398c0,0.009 0.003,0.016 0.009,0.022 0.006,0.006 0.013,0.009 0.021,0.01l0.069 0.004 0 0.055 -0.213 0z"/>
   <path class="fil0" d="M12.226 1.482c0,-0.083 -0.02,-0.143 -0.061,-0.182 -0.04,-0.039 -0.099,-0.058 -0.176,-0.058 -0.008,0 -0.017,0 -0.027,0.001 -0.01,0 -0.02,0.001 -0.029,0.002 -0.011,0.002 -0.022,0.003 -0.034,0.004l0 0.451c0.007,0 0.015,0.001 0.023,0.001 0.007,0 0.014,0.001 0.023,0.001 0.009,0 0.017,0 0.027,0 0.05,0 0.091,-0.005 0.124,-0.015 0.033,-0.01 0.059,-0.025 0.079,-0.044 0.019,-0.019 0.033,-0.042 0.041,-0.07 0.008,-0.027 0.012,-0.059 0.012,-0.093zm0.146 0c0,0.05 -0.007,0.093 -0.021,0.129 -0.014,0.036 -0.037,0.066 -0.068,0.089 -0.031,0.023 -0.072,0.041 -0.122,0.052 -0.05,0.011 -0.111,0.017 -0.183,0.017l-0.34 0 0 -0.061 0.087 -0.006c0.01,-0.001 0.018,-0.005 0.022,-0.011 0.005,-0.007 0.007,-0.013 0.007,-0.018l0 -0.759c0,-0.005 -0.002,-0.012 -0.007,-0.018 -0.005,-0.007 -0.012,-0.01 -0.022,-0.012l-0.075 -0.006 0 -0.061 0.637 0 0 0.221 -0.078 0 -0.018 -0.128c-0.001,-0.007 -0.004,-0.014 -0.008,-0.019 -0.005,-0.005 -0.01,-0.008 -0.016,-0.008l-0.238 0c-0.01,0 -0.018,0.004 -0.022,0.011 -0.005,0.007 -0.007,0.014 -0.007,0.019l0 0.268c0.013,-0.001 0.025,-0.003 0.037,-0.004 0.011,-0.001 0.022,-0.001 0.034,-0.002 0.012,-0.001 0.023,-0.001 0.033,-0.001 0.053,0 0.101,0.007 0.147,0.02 0.045,0.013 0.084,0.033 0.117,0.059 0.033,0.026 0.059,0.058 0.078,0.096 0.019,0.038 0.028,0.083 0.028,0.133zm0.63 -0.055c0,-0.039 -0.004,-0.076 -0.011,-0.112 -0.008,-0.035 -0.019,-0.067 -0.035,-0.094 -0.016,-0.027 -0.035,-0.049 -0.059,-0.065 -0.024,-0.016 -0.051,-0.024 -0.083,-0.024 -0.033,0 -0.061,0.008 -0.085,0.024 -0.024,0.016 -0.044,0.038 -0.059,0.065 -0.015,0.027 -0.027,0.059 -0.034,0.094 -0.007,0.036 -0.011,0.073 -0.011,0.112 0,0.038 0.004,0.075 0.011,0.111 0.008,0.035 0.019,0.067 0.035,0.094 0.016,0.027 0.035,0.049 0.059,0.066 0.024,0.016 0.051,0.025 0.083,0.025 0.032,0 0.06,-0.008 0.084,-0.024 0.024,-0.016 0.044,-0.038 0.059,-0.065 0.015,-0.027 0.027,-0.059 0.035,-0.094 0.008,-0.036 0.011,-0.073 0.011,-0.112zm0.149 0.001c0,0.05 -0.008,0.097 -0.024,0.141 -0.016,0.044 -0.039,0.082 -0.068,0.114 -0.03,0.032 -0.065,0.057 -0.107,0.076 -0.042,0.018 -0.089,0.028 -0.141,0.028 -0.052,0 -0.098,-0.009 -0.14,-0.027 -0.042,-0.018 -0.077,-0.043 -0.106,-0.075 -0.029,-0.032 -0.051,-0.07 -0.067,-0.113 -0.015,-0.044 -0.023,-0.091 -0.023,-0.142 0,-0.05 0.008,-0.097 0.024,-0.141 0.016,-0.044 0.038,-0.082 0.068,-0.115 0.03,-0.033 0.065,-0.058 0.107,-0.077 0.042,-0.018 0.089,-0.028 0.142,-0.028 0.053,0 0.1,0.009 0.142,0.028 0.042,0.019 0.077,0.045 0.106,0.077 0.029,0.033 0.05,0.071 0.066,0.115 0.015,0.044 0.022,0.09 0.022,0.14zm-0.407 -0.569c0,0.011 -0.002,0.021 -0.006,0.031 -0.004,0.01 -0.01,0.018 -0.017,0.026 -0.007,0.008 -0.015,0.013 -0.025,0.018 -0.009,0.004 -0.019,0.006 -0.03,0.006 -0.011,0 -0.021,-0.002 -0.03,-0.006 -0.009,-0.004 -0.017,-0.01 -0.024,-0.018 -0.007,-0.007 -0.013,-0.016 -0.017,-0.025 -0.004,-0.009 -0.006,-0.019 -0.006,-0.03 0,-0.01 0.002,-0.02 0.006,-0.029 0.004,-0.009 0.01,-0.018 0.017,-0.025 0.007,-0.008 0.015,-0.013 0.024,-0.018 0.009,-0.005 0.019,-0.007 0.03,-0.007 0.011,0 0.021,0.002 0.03,0.006 0.009,0.004 0.018,0.01 0.025,0.017 0.007,0.007 0.013,0.015 0.017,0.025 0.004,0.009 0.006,0.02 0.006,0.03zm0.294 0c0,0.011 -0.002,0.021 -0.006,0.031 -0.004,0.01 -0.009,0.018 -0.016,0.026 -0.007,0.008 -0.015,0.013 -0.024,0.018 -0.009,0.004 -0.019,0.006 -0.03,0.006 -0.011,0 -0.021,-0.002 -0.03,-0.006 -0.009,-0.004 -0.018,-0.01 -0.025,-0.018 -0.007,-0.007 -0.013,-0.016 -0.017,-0.026 -0.004,-0.01 -0.006,-0.02 -0.006,-0.031 0,-0.01 0.002,-0.019 0.006,-0.029 0.004,-0.009 0.01,-0.018 0.018,-0.025 0.007,-0.007 0.016,-0.013 0.025,-0.017 0.009,-0.005 0.019,-0.007 0.03,-0.007 0.011,0 0.021,0.002 0.03,0.006 0.009,0.004 0.017,0.01 0.024,0.017 0.007,0.007 0.012,0.016 0.016,0.025 0.004,0.009 0.006,0.019 0.006,0.03zm0.715 0.294l-0.223 0c0,0.068 -0.002,0.128 -0.007,0.182 -0.005,0.054 -0.011,0.101 -0.019,0.142 -0.008,0.041 -0.017,0.076 -0.026,0.104 -0.01,0.028 -0.02,0.051 -0.03,0.068 -0.004,0.008 -0.009,0.016 -0.013,0.022 -0.004,0.006 -0.008,0.012 -0.011,0.016 -0.004,0.005 -0.007,0.009 -0.01,0.013l0.339 0 0 -0.547zm0.156 -0.021c-0.009,0 -0.015,0.003 -0.019,0.008 -0.004,0.005 -0.005,0.01 -0.005,0.014l0 0.573c0,0.004 0.001,0.008 0.004,0.012 0.003,0.004 0.006,0.008 0.01,0.011 0.004,0.003 0.008,0.006 0.013,0.008 0.005,0.002 0.009,0.003 0.013,0.004l0.051 0.004 0 0.224 -0.068 0c0,-0.036 -0.005,-0.067 -0.015,-0.095 -0.01,-0.027 -0.024,-0.051 -0.042,-0.069 -0.018,-0.019 -0.039,-0.033 -0.063,-0.043 -0.024,-0.01 -0.051,-0.015 -0.079,-0.015l-0.236 0c-0.064,0 -0.113,0.019 -0.147,0.057 -0.033,0.038 -0.05,0.093 -0.05,0.164l-0.07 0 0 -0.224c0.01,-0.002 0.022,-0.006 0.036,-0.013 0.014,-0.006 0.03,-0.015 0.046,-0.026 0.016,-0.011 0.033,-0.026 0.05,-0.044 0.017,-0.018 0.032,-0.04 0.047,-0.067 0.009,-0.016 0.018,-0.041 0.027,-0.074 0.009,-0.033 0.017,-0.071 0.024,-0.114 0.007,-0.043 0.013,-0.088 0.017,-0.136 0.004,-0.048 0.007,-0.095 0.007,-0.141 -0.002,-0.001 -0.003,-0.003 -0.004,-0.006 -0.001,-0.002 -0.002,-0.005 -0.004,-0.007 -0.001,-0.003 -0.003,-0.005 -0.006,-0.006 -0.003,-0.002 -0.006,-0.002 -0.01,-0.002l-0.075 -0.004 0 -0.043 0.614 0 0 0.043 -0.066 0.004zm0.751 0.566c-0.02,0.013 -0.04,0.024 -0.062,0.035 -0.022,0.01 -0.044,0.02 -0.067,0.028 -0.023,0.008 -0.046,0.014 -0.07,0.019 -0.024,0.004 -0.047,0.007 -0.071,0.007 -0.043,0 -0.084,-0.007 -0.124,-0.021 -0.04,-0.014 -0.075,-0.036 -0.105,-0.065 -0.03,-0.029 -0.054,-0.065 -0.073,-0.109 -0.018,-0.044 -0.027,-0.095 -0.027,-0.154 0,-0.055 0.008,-0.106 0.025,-0.151 0.017,-0.046 0.04,-0.084 0.069,-0.116 0.03,-0.032 0.065,-0.057 0.105,-0.075 0.041,-0.018 0.085,-0.027 0.134,-0.027 0.044,0 0.082,0.007 0.116,0.022 0.033,0.015 0.061,0.035 0.083,0.062 0.022,0.026 0.039,0.057 0.05,0.093 0.011,0.036 0.017,0.075 0.017,0.117l0 0.019c0,0.007 -0,0.014 -0.001,0.021l-0.46 0c0,0.036 0.004,0.072 0.011,0.107 0.008,0.036 0.021,0.067 0.039,0.096 0.018,0.028 0.042,0.051 0.073,0.069 0.031,0.018 0.069,0.026 0.114,0.026 0.02,0 0.04,-0.003 0.06,-0.008 0.02,-0.005 0.039,-0.012 0.058,-0.02 0.019,-0.008 0.038,-0.018 0.055,-0.028 0.018,-0.01 0.035,-0.021 0.051,-0.031l0 0.087zm-0.142 -0.392c0,-0.024 -0.003,-0.046 -0.008,-0.066 -0.006,-0.02 -0.014,-0.038 -0.025,-0.053 -0.011,-0.015 -0.026,-0.027 -0.043,-0.036 -0.017,-0.009 -0.038,-0.013 -0.062,-0.013 -0.023,0 -0.045,0.005 -0.066,0.014 -0.02,0.009 -0.038,0.023 -0.054,0.04 -0.015,0.017 -0.028,0.038 -0.037,0.063 -0.009,0.025 -0.015,0.052 -0.017,0.083l0.312 0 0 -0.031zm-0.204 -0.447c0,0.011 -0.002,0.021 -0.006,0.031 -0.004,0.01 -0.01,0.018 -0.017,0.026 -0.007,0.008 -0.015,0.013 -0.025,0.018 -0.009,0.004 -0.019,0.006 -0.03,0.006 -0.011,0 -0.021,-0.002 -0.03,-0.006 -0.009,-0.004 -0.017,-0.01 -0.024,-0.018 -0.007,-0.007 -0.013,-0.016 -0.017,-0.025 -0.004,-0.009 -0.006,-0.019 -0.006,-0.03 0,-0.01 0.002,-0.02 0.006,-0.029 0.004,-0.009 0.01,-0.018 0.017,-0.025 0.007,-0.008 0.015,-0.013 0.024,-0.018 0.009,-0.005 0.019,-0.007 0.03,-0.007 0.011,0 0.021,0.002 0.03,0.006 0.009,0.004 0.018,0.01 0.025,0.017 0.007,0.007 0.013,0.015 0.017,0.025 0.004,0.009 0.006,0.02 0.006,0.03zm0.294 0c0,0.011 -0.002,0.021 -0.006,0.031 -0.004,0.01 -0.009,0.018 -0.016,0.026 -0.007,0.008 -0.015,0.013 -0.024,0.018 -0.009,0.004 -0.019,0.006 -0.03,0.006 -0.011,0 -0.021,-0.002 -0.03,-0.006 -0.009,-0.004 -0.018,-0.01 -0.025,-0.018 -0.007,-0.007 -0.013,-0.016 -0.017,-0.026 -0.004,-0.01 -0.006,-0.02 -0.006,-0.031 0,-0.01 0.002,-0.019 0.006,-0.029 0.004,-0.009 0.01,-0.018 0.018,-0.025 0.007,-0.007 0.016,-0.013 0.025,-0.017 0.009,-0.005 0.019,-0.007 0.03,-0.007 0.011,0 0.021,0.002 0.03,0.006 0.009,0.004 0.017,0.01 0.024,0.017 0.007,0.007 0.012,0.016 0.016,0.025 0.004,0.009 0.006,0.019 0.006,0.03zm0.596 0.91l0 -0.055 0.066 -0.004c0.008,-0.001 0.014,-0.004 0.018,-0.008 0.004,-0.004 0.006,-0.009 0.006,-0.013l0 -0.247 -0.326 0 0 0.247c0,0.005 0.002,0.009 0.005,0.013 0.004,0.005 0.01,0.007 0.019,0.008l0.066 0.004 0 0.055 -0.312 0 0 -0.055 0.067 -0.004c0.008,-0.001 0.013,-0.004 0.017,-0.008 0.004,-0.004 0.005,-0.009 0.005,-0.013l0 -0.522c0,-0.005 -0.002,-0.009 -0.005,-0.014 -0.004,-0.004 -0.009,-0.007 -0.017,-0.008l-0.067 -0.004 0 -0.055 0.312 0 0 0.055 -0.066 0.004c-0.009,0.001 -0.015,0.004 -0.019,0.008 -0.004,0.004 -0.005,0.009 -0.005,0.013l0 0.214 0.326 0 0 -0.214c0,-0.005 -0.002,-0.009 -0.006,-0.013 -0.004,-0.004 -0.01,-0.007 -0.018,-0.008l-0.066 -0.004 0 -0.055 0.312 0 0 0.055 -0.067 0.004c-0.008,0.001 -0.014,0.004 -0.018,0.008 -0.004,0.004 -0.006,0.009 -0.006,0.013l0 0.522c0,0.005 0.002,0.009 0.006,0.013 0.004,0.005 0.01,0.007 0.018,0.008l0.067 0.004 0 0.055 -0.312 0zm0.926 -0.342c0,-0.039 -0.004,-0.076 -0.011,-0.112 -0.008,-0.035 -0.019,-0.067 -0.035,-0.094 -0.016,-0.027 -0.035,-0.049 -0.059,-0.065 -0.024,-0.016 -0.051,-0.024 -0.083,-0.024 -0.033,0 -0.061,0.008 -0.085,0.024 -0.024,0.016 -0.044,0.038 -0.059,0.065 -0.015,0.027 -0.027,0.059 -0.034,0.094 -0.007,0.036 -0.011,0.073 -0.011,0.112 0,0.038 0.004,0.075 0.011,0.111 0.008,0.035 0.019,0.067 0.035,0.094 0.016,0.027 0.035,0.049 0.059,0.066 0.024,0.016 0.051,0.025 0.083,0.025 0.032,0 0.06,-0.008 0.084,-0.024 0.024,-0.016 0.044,-0.038 0.059,-0.065 0.015,-0.027 0.027,-0.059 0.035,-0.094 0.008,-0.036 0.011,-0.073 0.011,-0.112zm0.149 0.001c0,0.05 -0.008,0.097 -0.024,0.141 -0.016,0.044 -0.039,0.082 -0.068,0.114 -0.03,0.032 -0.065,0.057 -0.107,0.076 -0.042,0.018 -0.089,0.028 -0.141,0.028 -0.052,0 -0.098,-0.009 -0.14,-0.027 -0.042,-0.018 -0.077,-0.043 -0.106,-0.075 -0.029,-0.032 -0.051,-0.07 -0.067,-0.113 -0.015,-0.044 -0.023,-0.091 -0.023,-0.142 0,-0.05 0.008,-0.097 0.024,-0.141 0.016,-0.044 0.038,-0.082 0.068,-0.115 0.03,-0.033 0.065,-0.058 0.107,-0.077 0.042,-0.018 0.089,-0.028 0.142,-0.028 0.053,0 0.1,0.009 0.141,0.028 0.042,0.019 0.077,0.045 0.106,0.077 0.029,0.033 0.05,0.071 0.066,0.115 0.015,0.044 0.022,0.09 0.022,0.14z"/>
   <path class="fil0" d="M14.588 9.25c0,-0.083 -0.02,-0.143 -0.061,-0.182 -0.04,-0.039 -0.099,-0.058 -0.176,-0.058 -0.008,0 -0.017,0 -0.027,0.001 -0.01,0 -0.02,0.001 -0.029,0.002 -0.011,0.002 -0.022,0.003 -0.034,0.004l0 0.451c0.007,0 0.015,0.001 0.023,0.001 0.007,0 0.014,0.001 0.023,0.001 0.009,0 0.017,0 0.027,0 0.05,0 0.091,-0.005 0.124,-0.015 0.033,-0.01 0.059,-0.025 0.079,-0.044 0.019,-0.019 0.033,-0.042 0.041,-0.07 0.008,-0.027 0.012,-0.059 0.012,-0.093zm0.146 0c0,0.05 -0.007,0.093 -0.021,0.129 -0.014,0.036 -0.037,0.066 -0.068,0.089 -0.031,0.023 -0.072,0.041 -0.122,0.052 -0.05,0.011 -0.111,0.017 -0.183,0.017l-0.34 0 0 -0.061 0.087 -0.006c0.01,-0.001 0.018,-0.005 0.022,-0.011 0.005,-0.007 0.007,-0.013 0.007,-0.018l0 -0.759c0,-0.005 -0.002,-0.012 -0.007,-0.018 -0.005,-0.007 -0.012,-0.01 -0.022,-0.012l-0.075 -0.006 0 -0.061 0.637 0 0 0.221 -0.078 0 -0.018 -0.128c-0.001,-0.007 -0.004,-0.014 -0.008,-0.019 -0.005,-0.005 -0.01,-0.008 -0.016,-0.008l-0.238 0c-0.01,0 -0.018,0.004 -0.022,0.011 -0.005,0.007 -0.007,0.014 -0.007,0.019l0 0.268c0.013,-0.001 0.025,-0.003 0.037,-0.004 0.011,-0.001 0.022,-0.001 0.034,-0.002 0.012,-0.001 0.023,-0.001 0.033,-0.001 0.053,0 0.101,0.007 0.147,0.02 0.045,0.013 0.084,0.033 0.117,0.059 0.033,0.026 0.059,0.058 0.078,0.096 0.019,0.038 0.028,0.083 0.028,0.133zm0.703 0.216c-0.02,0.013 -0.04,0.024 -0.062,0.035 -0.022,0.01 -0.044,0.02 -0.067,0.028 -0.023,0.008 -0.046,0.014 -0.07,0.019 -0.024,0.004 -0.047,0.007 -0.071,0.007 -0.043,0 -0.084,-0.007 -0.124,-0.021 -0.04,-0.014 -0.075,-0.036 -0.105,-0.065 -0.03,-0.029 -0.054,-0.065 -0.073,-0.109 -0.018,-0.044 -0.027,-0.095 -0.027,-0.154 0,-0.055 0.008,-0.106 0.025,-0.151 0.017,-0.046 0.04,-0.084 0.069,-0.116 0.03,-0.032 0.065,-0.057 0.105,-0.075 0.041,-0.018 0.085,-0.027 0.134,-0.027 0.044,0 0.082,0.007 0.116,0.022 0.033,0.015 0.061,0.035 0.083,0.062 0.022,0.026 0.039,0.057 0.05,0.093 0.011,0.036 0.017,0.075 0.017,0.117l0 0.019c0,0.007 -0,0.014 -0.001,0.021l-0.46 0c0,0.036 0.004,0.072 0.011,0.107 0.008,0.036 0.021,0.067 0.039,0.096 0.018,0.028 0.042,0.051 0.073,0.069 0.031,0.018 0.069,0.026 0.114,0.026 0.02,0 0.04,-0.003 0.06,-0.008 0.02,-0.005 0.039,-0.012 0.058,-0.02 0.019,-0.008 0.038,-0.018 0.055,-0.028 0.018,-0.01 0.035,-0.021 0.051,-0.031l0 0.087zm-0.142 -0.392c0,-0.024 -0.003,-0.046 -0.008,-0.066 -0.006,-0.02 -0.014,-0.038 -0.025,-0.053 -0.011,-0.015 -0.026,-0.027 -0.043,-0.036 -0.017,-0.009 -0.038,-0.013 -0.062,-0.013 -0.023,0 -0.045,0.005 -0.066,0.014 -0.02,0.009 -0.038,0.023 -0.054,0.04 -0.015,0.017 -0.028,0.038 -0.037,0.063 -0.009,0.025 -0.015,0.052 -0.017,0.083l0.312 0 0 -0.031zm0.723 0.463l0 -0.044 -0.168 -0.223c-0.005,-0.007 -0.01,-0.013 -0.014,-0.018 -0.004,-0.005 -0.01,-0.009 -0.017,-0.011 -0.007,-0.003 -0.016,-0.005 -0.028,-0.006 -0.011,-0.001 -0.027,-0.002 -0.045,-0.002l0 0.222c0,0.005 0.002,0.009 0.006,0.013 0.004,0.005 0.01,0.007 0.018,0.008l0.059 0.004 0 0.055 -0.305 0 0 -0.055 0.067 -0.004c0.008,-0.001 0.013,-0.004 0.017,-0.008 0.004,-0.004 0.005,-0.009 0.005,-0.013l0 -0.522c0,-0.005 -0.002,-0.009 -0.005,-0.014 -0.004,-0.004 -0.009,-0.007 -0.017,-0.008l-0.067 -0.004 0 -0.055 0.305 0 0 0.055 -0.059 0.004c-0.008,0.001 -0.014,0.004 -0.018,0.008 -0.004,0.004 -0.006,0.009 -0.006,0.013l0 0.238c0.035,-0.002 0.063,-0.01 0.085,-0.024 0.022,-0.014 0.042,-0.034 0.06,-0.06 0.012,-0.018 0.022,-0.035 0.028,-0.051 0.007,-0.016 0.013,-0.031 0.019,-0.046 0.005,-0.015 0.011,-0.029 0.016,-0.043 0.005,-0.014 0.013,-0.028 0.022,-0.043 0.012,-0.021 0.029,-0.037 0.051,-0.05 0.021,-0.013 0.044,-0.019 0.069,-0.019 0.017,0 0.033,0.002 0.047,0.007 0.014,0.005 0.027,0.011 0.037,0.018 0.01,0.008 0.018,0.016 0.025,0.026 0.006,0.01 0.009,0.02 0.009,0.031 0,0.016 -0.004,0.031 -0.012,0.044 -0.008,0.014 -0.019,0.027 -0.036,0.041l-0.132 -0.061c-0.008,0.008 -0.015,0.018 -0.021,0.03 -0.005,0.012 -0.01,0.025 -0.015,0.039 -0.005,0.014 -0.01,0.028 -0.016,0.043 -0.006,0.015 -0.013,0.029 -0.022,0.043 -0.007,0.012 -0.016,0.026 -0.026,0.043 -0.011,0.017 -0.024,0.031 -0.04,0.043 0.008,0.002 0.016,0.004 0.022,0.007 0.006,0.003 0.012,0.006 0.017,0.01 0.005,0.004 0.01,0.009 0.015,0.014 0.005,0.006 0.01,0.012 0.015,0.019l0.18 0.245 0.082 0.004 0 0.055 -0.209 0zm0.627 0l0 -0.055 0.057 -0.004c0.007,-0.001 0.013,-0.003 0.017,-0.007 0.005,-0.004 0.007,-0.009 0.007,-0.016l0 -0.229c-0.013,0.007 -0.028,0.015 -0.043,0.022 -0.015,0.008 -0.031,0.014 -0.046,0.02 -0.015,0.006 -0.031,0.011 -0.046,0.015 -0.015,0.004 -0.029,0.005 -0.041,0.005 -0.019,0 -0.04,-0.002 -0.061,-0.007 -0.022,-0.005 -0.041,-0.013 -0.06,-0.025 -0.018,-0.012 -0.034,-0.027 -0.046,-0.047 -0.012,-0.02 -0.018,-0.044 -0.018,-0.073l0 -0.201c0,-0.006 -0.002,-0.012 -0.007,-0.015 -0.004,-0.004 -0.01,-0.006 -0.017,-0.006l-0.063 -0.006 0 -0.055 0.3 0 0 0.055 -0.057 0.006c-0.008,0 -0.014,0.002 -0.018,0.006 -0.005,0.004 -0.007,0.009 -0.007,0.016l0 0.183c0,0.016 0.001,0.03 0.004,0.041 0.003,0.011 0.009,0.02 0.016,0.027 0.008,0.007 0.019,0.012 0.032,0.015 0.014,0.003 0.032,0.005 0.054,0.005 0.02,0 0.04,-0.003 0.059,-0.009 0.019,-0.006 0.04,-0.014 0.062,-0.025l0 -0.237c0,-0.007 -0.002,-0.012 -0.007,-0.016 -0.005,-0.004 -0.01,-0.006 -0.017,-0.006l-0.057 -0.006 0 -0.055 0.301 0 0 0.055 -0.064 0.006c-0.008,0 -0.013,0.002 -0.018,0.006 -0.004,0.004 -0.007,0.009 -0.007,0.016l0 0.519c0,0.007 0.002,0.012 0.007,0.016 0.004,0.004 0.01,0.006 0.018,0.007l0.064 0.004 0 0.055 -0.301 0zm0.989 -0.071c-0.02,0.013 -0.04,0.024 -0.062,0.035 -0.022,0.01 -0.044,0.02 -0.067,0.028 -0.023,0.008 -0.046,0.014 -0.07,0.019 -0.024,0.004 -0.047,0.007 -0.071,0.007 -0.043,0 -0.085,-0.007 -0.124,-0.021 -0.04,-0.014 -0.075,-0.036 -0.105,-0.065 -0.03,-0.029 -0.054,-0.065 -0.073,-0.109 -0.018,-0.044 -0.027,-0.095 -0.027,-0.154 0,-0.055 0.008,-0.106 0.025,-0.151 0.017,-0.046 0.04,-0.084 0.069,-0.116 0.03,-0.032 0.065,-0.057 0.105,-0.075 0.041,-0.018 0.085,-0.027 0.134,-0.027 0.044,0 0.082,0.007 0.116,0.022 0.033,0.015 0.061,0.035 0.083,0.062 0.022,0.026 0.039,0.057 0.05,0.093 0.011,0.036 0.017,0.075 0.017,0.117l0 0.019c0,0.007 -0,0.014 -0.001,0.021l-0.46 0c0,0.036 0.004,0.072 0.011,0.107 0.008,0.036 0.021,0.067 0.039,0.096 0.018,0.028 0.042,0.051 0.073,0.069 0.031,0.018 0.069,0.026 0.114,0.026 0.02,0 0.04,-0.003 0.06,-0.008 0.02,-0.005 0.039,-0.012 0.058,-0.02 0.019,-0.008 0.038,-0.018 0.055,-0.028 0.018,-0.01 0.035,-0.021 0.051,-0.031l0 0.087zm-0.142 -0.392c0,-0.024 -0.003,-0.046 -0.008,-0.066 -0.006,-0.02 -0.014,-0.038 -0.025,-0.053 -0.011,-0.015 -0.026,-0.027 -0.043,-0.036 -0.017,-0.009 -0.038,-0.013 -0.062,-0.013 -0.023,0 -0.045,0.005 -0.066,0.014 -0.02,0.009 -0.038,0.023 -0.054,0.04 -0.015,0.017 -0.028,0.038 -0.037,0.063 -0.009,0.025 -0.015,0.052 -0.017,0.083l0.312 0 0 -0.031z"/>
  </g>
 </g>
</svg>
