<?xml version="1.0" encoding="UTF-8"?>
<!DOCTYPE svg PUBLIC "-//W3C//DTD SVG 1.1//EN" "http://www.w3.org/Graphics/SVG/1.1/DTD/svg11.dtd">
<!-- Creator: CorelDRAW -->
<svg xmlns="http://www.w3.org/2000/svg" xml:space="preserve" width="78.065mm" height="54.4087mm" version="1.1" style="shape-rendering:geometricPrecision; text-rendering:geometricPrecision; image-rendering:optimizeQuality; fill-rule:evenodd; clip-rule:evenodd"
viewBox="0 0 174.53 121.64"
 xmlns:xlink="http://www.w3.org/1999/xlink"
 xmlns:xodm="http://www.corel.com/coreldraw/odm/2003">
 <defs>
  <style type="text/css">
   <![CDATA[
    .fil0 {fill:#656551;fill-rule:nonzero}
   ]]>
  </style>
 </defs>
 <g id="Слой_x0020_1">
  <metadata id="CorelCorpID_0Corel-Layer"/>
  <path class="fil0" d="M72.21 121.51l0 -8.41 3.16 0c0.64,0 1.16,0.08 1.55,0.25 0.39,0.17 0.69,0.43 0.91,0.79 0.22,0.35 0.33,0.72 0.33,1.11 0,0.36 -0.1,0.7 -0.29,1.01 -0.19,0.32 -0.49,0.57 -0.88,0.77 0.51,0.15 0.9,0.4 1.17,0.76 0.27,0.36 0.41,0.78 0.41,1.27 0,0.4 -0.08,0.76 -0.25,1.1 -0.17,0.34 -0.37,0.6 -0.62,0.78 -0.24,0.18 -0.55,0.32 -0.92,0.41 -0.37,0.09 -0.82,0.14 -1.36,0.14l-3.21 0zm1.12 -4.88l1.82 0c0.49,0 0.85,-0.03 1.06,-0.1 0.28,-0.08 0.5,-0.23 0.64,-0.42 0.14,-0.2 0.22,-0.44 0.22,-0.74 0,-0.28 -0.07,-0.53 -0.2,-0.74 -0.13,-0.21 -0.32,-0.36 -0.57,-0.44 -0.25,-0.08 -0.68,-0.12 -1.28,-0.12l-1.68 0 0 2.55zm0 3.89l2.1 0c0.36,0 0.61,-0.01 0.76,-0.04 0.25,-0.04 0.47,-0.12 0.64,-0.23 0.17,-0.11 0.31,-0.26 0.42,-0.47 0.11,-0.21 0.17,-0.44 0.17,-0.71 0,-0.32 -0.08,-0.59 -0.24,-0.82 -0.16,-0.23 -0.38,-0.4 -0.67,-0.49 -0.28,-0.09 -0.7,-0.14 -1.23,-0.14l-1.95 0 0 2.9z"/>
  <path id="_1" class="fil0" d="M84.12 119.54l1.07 0.14c-0.17,0.62 -0.48,1.1 -0.93,1.45 -0.45,0.34 -1.03,0.51 -1.74,0.51 -0.89,0 -1.59,-0.27 -2.11,-0.82 -0.52,-0.55 -0.78,-1.32 -0.78,-2.3 0,-1.02 0.26,-1.82 0.79,-2.38 0.53,-0.57 1.21,-0.85 2.05,-0.85 0.81,0 1.48,0.28 1.99,0.83 0.52,0.55 0.77,1.33 0.77,2.34 0,0.06 -0,0.15 -0.01,0.27l-4.54 0c0.04,0.67 0.23,1.18 0.57,1.53 0.34,0.35 0.76,0.53 1.27,0.53 0.38,0 0.7,-0.1 0.97,-0.3 0.27,-0.2 0.48,-0.52 0.64,-0.96zm-3.38 -1.66l3.4 0c-0.04,-0.51 -0.18,-0.9 -0.39,-1.15 -0.33,-0.4 -0.75,-0.6 -1.28,-0.6 -0.47,0 -0.87,0.16 -1.19,0.48 -0.32,0.32 -0.5,0.74 -0.53,1.27z"/>
  <path id="_2" class="fil0" d="M90.48 119.28l1.01 0.14c-0.11,0.7 -0.39,1.24 -0.85,1.63 -0.46,0.39 -1.02,0.59 -1.68,0.59 -0.83,0 -1.5,-0.27 -2.01,-0.82 -0.51,-0.54 -0.76,-1.32 -0.76,-2.34 0,-0.66 0.11,-1.23 0.33,-1.72 0.22,-0.49 0.55,-0.86 0.99,-1.11 0.44,-0.25 0.93,-0.37 1.45,-0.37 0.66,0 1.2,0.17 1.62,0.5 0.42,0.33 0.69,0.81 0.81,1.43l-1 0.15c-0.1,-0.41 -0.26,-0.72 -0.51,-0.92 -0.24,-0.21 -0.54,-0.31 -0.88,-0.31 -0.52,0 -0.94,0.19 -1.27,0.56 -0.32,0.37 -0.49,0.96 -0.49,1.77 0,0.82 0.16,1.41 0.47,1.78 0.32,0.37 0.72,0.56 1.23,0.56 0.41,0 0.75,-0.12 1.02,-0.37 0.27,-0.25 0.44,-0.63 0.52,-1.14z"/>
  <polygon id="_3" class="fil0" points="92.37,115.41 93.4,115.41 93.4,117.95 96.27,117.95 96.27,115.41 97.3,115.41 97.3,121.51 96.27,121.51 96.27,118.81 93.4,118.81 93.4,121.51 92.37,121.51 "/>
  <path id="_4" class="fil0" d="M102.84 120.75c-0.38,0.33 -0.75,0.56 -1.11,0.69 -0.35,0.14 -0.73,0.2 -1.14,0.2 -0.67,0 -1.18,-0.16 -1.54,-0.49 -0.36,-0.33 -0.54,-0.74 -0.54,-1.25 0,-0.3 0.07,-0.57 0.2,-0.82 0.14,-0.25 0.32,-0.44 0.53,-0.59 0.22,-0.15 0.47,-0.26 0.74,-0.34 0.2,-0.05 0.51,-0.1 0.92,-0.15 0.83,-0.1 1.45,-0.22 1.84,-0.35 0,-0.14 0.01,-0.23 0.01,-0.27 0,-0.42 -0.1,-0.71 -0.29,-0.89 -0.26,-0.23 -0.66,-0.35 -1.18,-0.35 -0.49,0 -0.85,0.09 -1.08,0.26 -0.23,0.17 -0.4,0.47 -0.51,0.91l-1.01 -0.14c0.09,-0.43 0.24,-0.78 0.45,-1.05 0.21,-0.27 0.52,-0.47 0.92,-0.61 0.4,-0.14 0.86,-0.22 1.39,-0.22 0.52,0 0.95,0.06 1.27,0.18 0.33,0.12 0.57,0.28 0.72,0.46 0.15,0.19 0.26,0.42 0.32,0.7 0.03,0.18 0.05,0.49 0.05,0.95l0 1.37c0,0.96 0.02,1.56 0.06,1.82 0.04,0.26 0.13,0.5 0.25,0.74l-1.08 0c-0.1,-0.22 -0.17,-0.47 -0.2,-0.76zm-0.08 -2.29c-0.38,0.15 -0.94,0.28 -1.69,0.39 -0.43,0.06 -0.73,0.13 -0.9,0.21 -0.18,0.08 -0.31,0.19 -0.41,0.33 -0.1,0.15 -0.14,0.31 -0.14,0.49 0,0.27 0.1,0.5 0.31,0.68 0.21,0.18 0.51,0.27 0.92,0.27 0.4,0 0.75,-0.09 1.06,-0.26 0.31,-0.17 0.54,-0.41 0.68,-0.71 0.11,-0.23 0.17,-0.58 0.17,-1.03l0.01 -0.38z"/>
  <path class="fil0" d="M73.82 0l5.25 0 0 8.41 -1.12 0 0 -7.42 -3.02 0 0 4.33c0,0.88 -0.04,1.53 -0.12,1.93 -0.08,0.41 -0.26,0.73 -0.52,0.96 -0.26,0.23 -0.6,0.34 -1.01,0.34 -0.25,0 -0.54,-0.05 -0.89,-0.15l0.2 -0.99c0.18,0.09 0.34,0.14 0.47,0.14 0.25,0 0.44,-0.09 0.57,-0.28 0.13,-0.19 0.19,-0.64 0.19,-1.34l0 -5.93z"/>
  <path id="_1_0" class="fil0" d="M80.86 10.75l-0.12 -0.96c0.23,0.06 0.42,0.09 0.59,0.09 0.23,0 0.42,-0.04 0.55,-0.12 0.14,-0.08 0.25,-0.18 0.34,-0.32 0.06,-0.1 0.17,-0.36 0.32,-0.77 0.02,-0.06 0.05,-0.14 0.09,-0.25l-2.31 -6.12 1.1 0 1.27 3.52c0.17,0.44 0.31,0.91 0.44,1.41 0.12,-0.46 0.26,-0.92 0.42,-1.37l1.3 -3.56 1.03 0 -2.3 6.2c-0.25,0.67 -0.44,1.13 -0.58,1.38 -0.18,0.34 -0.4,0.59 -0.63,0.75 -0.24,0.16 -0.52,0.24 -0.85,0.24 -0.2,0 -0.42,-0.04 -0.67,-0.12z"/>
  <path id="_2_1" class="fil0" d="M86.4 2.31l1.03 0 0 1.15c0,0.5 0.03,0.86 0.09,1.08 0.06,0.22 0.2,0.42 0.43,0.59 0.23,0.17 0.51,0.25 0.85,0.25 0.39,0 0.9,-0.1 1.52,-0.31l0 -2.76 1.03 0 0 6.1 -1.03 0 0 -2.46c-0.64,0.2 -1.23,0.3 -1.78,0.3 -0.46,0 -0.87,-0.12 -1.23,-0.35 -0.35,-0.23 -0.6,-0.52 -0.72,-0.86 -0.13,-0.34 -0.19,-0.71 -0.19,-1.12l0 -1.6z"/>
  <polygon id="_3_2" class="fil0" points="92.9,2.31 93.94,2.31 93.94,6.96 96.81,2.31 97.92,2.31 97.92,8.41 96.89,8.41 96.89,3.79 94.02,8.41 92.9,8.41 "/>
  <path id="_4_3" class="fil0" d="M99.45 2.31l1.03 0 0 2.63c0.33,0 0.56,-0.06 0.69,-0.19 0.13,-0.13 0.33,-0.49 0.58,-1.1 0.2,-0.48 0.37,-0.8 0.49,-0.95 0.13,-0.15 0.27,-0.26 0.44,-0.31 0.17,-0.05 0.43,-0.08 0.79,-0.08l0.21 0 0 0.85 -0.29 -0.01c-0.27,0 -0.45,0.04 -0.52,0.12 -0.08,0.08 -0.2,0.33 -0.37,0.75 -0.16,0.4 -0.3,0.68 -0.43,0.83 -0.13,0.15 -0.33,0.29 -0.6,0.42 0.44,0.12 0.88,0.53 1.31,1.24l1.13 1.89 -1.14 0 -1.12 -1.88c-0.23,-0.38 -0.42,-0.63 -0.59,-0.75 -0.17,-0.12 -0.37,-0.18 -0.6,-0.18l0 2.82 -1.03 0 0 -6.1z"/>
  <path class="fil0" d="M9.16 84.21l0 3.69c0.55,0 0.92,-0.1 1.13,-0.3 0.2,-0.2 0.46,-0.67 0.78,-1.42 0.23,-0.55 0.42,-0.94 0.57,-1.17 0.15,-0.23 0.37,-0.42 0.65,-0.57 0.28,-0.15 0.59,-0.23 0.92,-0.23 0.36,0 0.59,0 0.68,0.01l0 0.96c-0.04,0 -0.11,-0 -0.22,-0.01 -0.12,-0 -0.2,-0.01 -0.22,-0.01 -0.36,0 -0.62,0.09 -0.79,0.26 -0.18,0.17 -0.38,0.54 -0.6,1.1 -0.24,0.61 -0.46,1.03 -0.64,1.25 -0.18,0.22 -0.44,0.4 -0.78,0.55 0.55,0.15 1.08,0.65 1.6,1.5l1.73 2.8 -1.38 0 -1.41 -2.28c-0.37,-0.61 -0.69,-1.03 -0.94,-1.28 -0.25,-0.25 -0.61,-0.37 -1.07,-0.37l0 3.94 -1.14 0 0 -3.94c-0.37,0 -0.69,0.1 -0.97,0.29 -0.28,0.19 -0.61,0.61 -0.98,1.25l-0.07 0.11 -1.41 2.28 -1.38 0 1.73 -2.8c0.53,-0.85 1.07,-1.35 1.61,-1.5 -0.3,-0.12 -0.55,-0.29 -0.74,-0.49 -0.19,-0.21 -0.42,-0.64 -0.68,-1.3 -0.24,-0.6 -0.45,-0.98 -0.62,-1.13 -0.17,-0.15 -0.43,-0.23 -0.77,-0.23l-0.45 0.01 0 -0.96c0.04,-0.01 0.26,-0.01 0.64,-0.01 0.37,0 0.69,0.08 0.96,0.23 0.27,0.15 0.48,0.34 0.64,0.57 0.15,0.23 0.35,0.62 0.59,1.18 0.32,0.76 0.58,1.23 0.78,1.42 0.2,0.19 0.58,0.29 1.13,0.3l0 -3.69 1.14 0z"/>
  <path id="_1_4" class="fil0" d="M14.61 94.97l-0.12 -0.96c0.23,0.06 0.42,0.09 0.59,0.09 0.23,0 0.42,-0.04 0.55,-0.12 0.14,-0.08 0.25,-0.18 0.34,-0.32 0.06,-0.1 0.17,-0.36 0.32,-0.77 0.02,-0.06 0.05,-0.14 0.09,-0.25l-2.31 -6.12 1.1 0 1.27 3.52c0.17,0.44 0.31,0.91 0.44,1.41 0.12,-0.46 0.26,-0.92 0.42,-1.37l1.3 -3.56 1.03 0 -2.3 6.2c-0.25,0.67 -0.44,1.13 -0.58,1.38 -0.18,0.34 -0.4,0.59 -0.63,0.75 -0.24,0.16 -0.52,0.24 -0.85,0.24 -0.2,0 -0.42,-0.04 -0.67,-0.12z"/>
  <path id="_2_5" class="fil0" d="M20.4 94.96l0 -8.43 0.94 0 0 0.8c0.22,-0.31 0.47,-0.54 0.75,-0.7 0.28,-0.15 0.62,-0.23 1.01,-0.23 0.52,0 0.98,0.13 1.38,0.4 0.4,0.27 0.7,0.64 0.9,1.13 0.2,0.49 0.3,1.02 0.3,1.6 0,0.62 -0.11,1.18 -0.33,1.68 -0.22,0.5 -0.55,0.88 -0.97,1.15 -0.42,0.26 -0.87,0.4 -1.34,0.4 -0.34,0 -0.65,-0.07 -0.93,-0.22 -0.27,-0.14 -0.5,-0.33 -0.67,-0.55l0 2.97 -1.03 0zm0.94 -5.35c0,0.78 0.16,1.36 0.47,1.73 0.32,0.37 0.7,0.56 1.15,0.56 0.46,0 0.85,-0.19 1.17,-0.58 0.33,-0.39 0.49,-0.99 0.49,-1.8 0,-0.78 -0.16,-1.35 -0.48,-1.74 -0.32,-0.39 -0.7,-0.58 -1.14,-0.58 -0.44,0 -0.83,0.21 -1.16,0.61 -0.34,0.41 -0.51,1.01 -0.51,1.79z"/>
  <path id="_3_6" class="fil0" d="M30.92 91.86c-0.38,0.33 -0.75,0.56 -1.11,0.69 -0.35,0.14 -0.73,0.2 -1.14,0.2 -0.67,0 -1.18,-0.16 -1.54,-0.49 -0.36,-0.33 -0.54,-0.74 -0.54,-1.25 0,-0.3 0.07,-0.57 0.2,-0.82 0.14,-0.25 0.32,-0.44 0.53,-0.59 0.22,-0.15 0.47,-0.26 0.74,-0.34 0.2,-0.05 0.51,-0.1 0.92,-0.15 0.83,-0.1 1.45,-0.22 1.84,-0.35 0,-0.14 0.01,-0.23 0.01,-0.27 0,-0.42 -0.1,-0.71 -0.29,-0.89 -0.26,-0.23 -0.66,-0.35 -1.18,-0.35 -0.49,0 -0.85,0.09 -1.08,0.26 -0.23,0.17 -0.4,0.47 -0.51,0.91l-1.01 -0.14c0.09,-0.43 0.24,-0.78 0.45,-1.05 0.21,-0.27 0.52,-0.47 0.92,-0.61 0.4,-0.14 0.86,-0.22 1.39,-0.22 0.52,0 0.95,0.06 1.27,0.18 0.33,0.12 0.57,0.28 0.72,0.46 0.15,0.19 0.26,0.42 0.32,0.7 0.03,0.18 0.05,0.49 0.05,0.95l0 1.37c0,0.96 0.02,1.56 0.06,1.82 0.04,0.26 0.13,0.5 0.25,0.74l-1.08 0c-0.1,-0.22 -0.17,-0.47 -0.2,-0.76zm-0.08 -2.29c-0.38,0.15 -0.94,0.28 -1.69,0.39 -0.43,0.06 -0.73,0.13 -0.9,0.21 -0.18,0.08 -0.31,0.19 -0.41,0.33 -0.1,0.15 -0.14,0.31 -0.14,0.49 0,0.27 0.1,0.5 0.31,0.68 0.21,0.18 0.51,0.27 0.92,0.27 0.4,0 0.75,-0.09 1.06,-0.26 0.31,-0.17 0.54,-0.41 0.68,-0.71 0.11,-0.23 0.17,-0.58 0.17,-1.03l0.01 -0.38z"/>
  <path id="_4_7" class="fil0" d="M33.47 86.53l2.38 0c0.58,0 1.02,0.05 1.3,0.15 0.28,0.1 0.53,0.28 0.73,0.54 0.21,0.26 0.31,0.57 0.31,0.94 0,0.29 -0.06,0.55 -0.18,0.76 -0.12,0.22 -0.3,0.4 -0.54,0.54 0.29,0.1 0.52,0.27 0.71,0.54 0.19,0.26 0.28,0.57 0.28,0.93 -0.04,0.58 -0.24,1.01 -0.62,1.28 -0.37,0.28 -0.92,0.42 -1.63,0.42l-2.74 0 0 -6.1zm1.03 2.57l1.1 0c0.44,0 0.74,-0.02 0.9,-0.07 0.16,-0.05 0.31,-0.14 0.44,-0.28 0.13,-0.14 0.19,-0.31 0.19,-0.5 0,-0.32 -0.11,-0.55 -0.34,-0.67 -0.23,-0.13 -0.61,-0.19 -1.16,-0.19l-1.13 0 0 1.72zm0 2.68l1.36 0c0.58,0 0.98,-0.07 1.2,-0.2 0.22,-0.14 0.33,-0.37 0.34,-0.7 0,-0.19 -0.06,-0.38 -0.19,-0.54 -0.13,-0.17 -0.29,-0.27 -0.49,-0.32 -0.2,-0.05 -0.53,-0.07 -0.97,-0.07l-1.25 0 0 1.83z"/>
  <path id="_5" class="fil0" d="M39.94 86.53l4.8 0 0 6.09 -1.03 0 0 -5.23 -2.74 0 0 3.03c0,0.71 -0.02,1.17 -0.07,1.4 -0.05,0.23 -0.17,0.42 -0.38,0.59 -0.21,0.17 -0.51,0.25 -0.89,0.25 -0.24,0 -0.52,-0.02 -0.83,-0.05l0 -0.86 0.45 0c0.21,0 0.37,-0.02 0.46,-0.07 0.09,-0.04 0.15,-0.11 0.18,-0.21 0.03,-0.1 0.04,-0.41 0.04,-0.93l0 -4.02z"/>
  <path id="_6" class="fil0" d="M46.27 86.53l1.03 0 0 2.38 1.31 0c0.85,0 1.51,0.16 1.97,0.5 0.46,0.33 0.69,0.79 0.69,1.37 0,0.51 -0.19,0.94 -0.58,1.31 -0.38,0.36 -1,0.54 -1.84,0.54l-2.58 0 0 -6.1zm1.03 5.25l1.09 0c0.66,0 1.12,-0.08 1.4,-0.24 0.28,-0.16 0.42,-0.41 0.42,-0.75 0,-0.26 -0.1,-0.5 -0.31,-0.71 -0.21,-0.21 -0.67,-0.31 -1.38,-0.31l-1.23 0 0 2.01z"/>
  <path class="fil0" d="M1.42 12.58l5.25 0 0 8.41 -1.12 0 0 -7.42 -3.02 0 0 4.33c0,0.88 -0.04,1.53 -0.12,1.93 -0.08,0.41 -0.26,0.73 -0.52,0.96 -0.26,0.23 -0.6,0.34 -1.01,0.34 -0.25,0 -0.54,-0.05 -0.89,-0.15l0.2 -0.99c0.18,0.09 0.34,0.14 0.47,0.14 0.25,0 0.44,-0.09 0.57,-0.28 0.13,-0.19 0.19,-0.64 0.19,-1.34l0 -5.93z"/>
  <path id="_1_8" class="fil0" d="M12.54 19.01l1.07 0.14c-0.17,0.62 -0.48,1.1 -0.93,1.45 -0.45,0.34 -1.03,0.51 -1.74,0.51 -0.89,0 -1.59,-0.27 -2.11,-0.82 -0.52,-0.55 -0.78,-1.32 -0.78,-2.3 0,-1.02 0.26,-1.82 0.79,-2.38 0.53,-0.57 1.21,-0.85 2.05,-0.85 0.81,0 1.48,0.28 1.99,0.83 0.52,0.55 0.77,1.33 0.77,2.34 0,0.06 -0,0.15 -0.01,0.27l-4.54 0c0.04,0.67 0.23,1.18 0.57,1.53 0.34,0.35 0.76,0.53 1.27,0.53 0.38,0 0.7,-0.1 0.97,-0.3 0.27,-0.2 0.48,-0.52 0.64,-0.96zm-3.38 -1.66l3.4 0c-0.04,-0.51 -0.18,-0.9 -0.39,-1.15 -0.33,-0.4 -0.75,-0.6 -1.28,-0.6 -0.47,0 -0.87,0.16 -1.19,0.48 -0.32,0.32 -0.5,0.74 -0.53,1.27z"/>
  <path id="_2_9" class="fil0" d="M18.9 18.76l1.01 0.14c-0.11,0.7 -0.39,1.24 -0.85,1.63 -0.46,0.39 -1.02,0.59 -1.68,0.59 -0.83,0 -1.5,-0.27 -2.01,-0.82 -0.51,-0.54 -0.76,-1.32 -0.76,-2.34 0,-0.66 0.11,-1.23 0.33,-1.72 0.22,-0.49 0.55,-0.86 0.99,-1.11 0.44,-0.25 0.93,-0.37 1.45,-0.37 0.66,0 1.2,0.17 1.62,0.5 0.42,0.33 0.69,0.81 0.81,1.43l-1 0.15c-0.1,-0.41 -0.26,-0.72 -0.51,-0.92 -0.24,-0.21 -0.54,-0.31 -0.88,-0.31 -0.52,0 -0.94,0.19 -1.27,0.56 -0.32,0.37 -0.49,0.96 -0.49,1.77 0,0.82 0.16,1.41 0.47,1.78 0.32,0.37 0.72,0.56 1.23,0.56 0.41,0 0.75,-0.12 1.02,-0.37 0.27,-0.25 0.44,-0.63 0.52,-1.14z"/>
  <polygon id="_3_10" class="fil0" points="20.25,14.89 25.18,14.89 25.18,15.75 23.23,15.75 23.23,20.99 22.2,20.99 22.2,15.75 20.25,15.75 "/>
  <polygon id="_4_11" class="fil0" points="26.17,14.89 27.2,14.89 27.2,17.43 30.07,17.43 30.07,14.89 31.1,14.89 31.1,20.99 30.07,20.99 30.07,18.29 27.2,18.29 27.2,20.99 26.17,20.99 "/>
  <polygon id="_5_12" class="fil0" points="32.65,14.89 33.69,14.89 33.69,19.54 36.56,14.89 37.67,14.89 37.67,20.99 36.64,20.99 36.64,16.37 33.77,20.99 32.65,20.99 "/>
  <polygon id="_6_13" class="fil0" points="39.23,14.89 40.26,14.89 40.26,20.14 43.13,20.14 43.13,14.89 44.16,14.89 44.16,20.14 44.83,20.14 44.83,22.71 43.99,22.71 43.99,20.99 39.23,20.99 "/>
  <path id="_7" class="fil0" d="M49.93 20.22c-0.38,0.33 -0.75,0.56 -1.11,0.69 -0.35,0.14 -0.73,0.2 -1.14,0.2 -0.67,0 -1.18,-0.16 -1.54,-0.49 -0.36,-0.33 -0.54,-0.74 -0.54,-1.25 0,-0.3 0.07,-0.57 0.2,-0.82 0.14,-0.25 0.32,-0.44 0.53,-0.59 0.22,-0.15 0.47,-0.26 0.74,-0.34 0.2,-0.05 0.51,-0.1 0.92,-0.15 0.83,-0.1 1.45,-0.22 1.84,-0.35 0,-0.14 0.01,-0.23 0.01,-0.27 0,-0.42 -0.1,-0.71 -0.29,-0.89 -0.26,-0.23 -0.66,-0.35 -1.18,-0.35 -0.49,0 -0.85,0.09 -1.08,0.26 -0.23,0.17 -0.4,0.47 -0.51,0.91l-1.01 -0.14c0.09,-0.43 0.24,-0.78 0.45,-1.05 0.21,-0.27 0.52,-0.47 0.92,-0.61 0.4,-0.14 0.86,-0.22 1.39,-0.22 0.52,0 0.95,0.06 1.27,0.18 0.33,0.12 0.57,0.28 0.72,0.46 0.15,0.19 0.26,0.42 0.32,0.7 0.03,0.18 0.05,0.49 0.05,0.95l0 1.37c0,0.96 0.02,1.56 0.06,1.82 0.04,0.26 0.13,0.5 0.25,0.74l-1.08 0c-0.1,-0.22 -0.17,-0.47 -0.2,-0.76zm-0.08 -2.29c-0.38,0.15 -0.94,0.28 -1.69,0.39 -0.43,0.06 -0.73,0.13 -0.9,0.21 -0.18,0.08 -0.31,0.19 -0.41,0.33 -0.1,0.15 -0.14,0.31 -0.14,0.49 0,0.27 0.1,0.5 0.31,0.68 0.21,0.18 0.51,0.27 0.92,0.27 0.4,0 0.75,-0.09 1.06,-0.26 0.31,-0.17 0.54,-0.41 0.68,-0.71 0.11,-0.23 0.17,-0.58 0.17,-1.03l0.01 -0.38z"/>
  <path class="fil0" d="M148.88 18.28l5.25 0 0 8.41 -1.12 0 0 -7.42 -3.02 0 0 4.33c0,0.88 -0.04,1.53 -0.12,1.93 -0.08,0.41 -0.26,0.73 -0.52,0.96 -0.26,0.23 -0.6,0.34 -1.01,0.34 -0.25,0 -0.54,-0.05 -0.89,-0.15l0.2 -0.99c0.18,0.09 0.34,0.14 0.47,0.14 0.25,0 0.44,-0.09 0.57,-0.28 0.13,-0.19 0.19,-0.64 0.19,-1.34l0 -5.93z"/>
  <path id="_1_14" class="fil0" d="M160 24.72l1.07 0.14c-0.17,0.62 -0.48,1.1 -0.93,1.45 -0.45,0.34 -1.03,0.51 -1.74,0.51 -0.89,0 -1.59,-0.27 -2.11,-0.82 -0.52,-0.55 -0.78,-1.32 -0.78,-2.3 0,-1.02 0.26,-1.82 0.79,-2.38 0.53,-0.57 1.21,-0.85 2.05,-0.85 0.81,0 1.48,0.28 1.99,0.83 0.52,0.55 0.77,1.33 0.77,2.34 0,0.06 -0,0.15 -0.01,0.27l-4.54 0c0.04,0.67 0.23,1.18 0.57,1.53 0.34,0.35 0.76,0.53 1.27,0.53 0.38,0 0.7,-0.1 0.97,-0.3 0.27,-0.2 0.48,-0.52 0.64,-0.96zm-3.38 -1.66l3.4 0c-0.04,-0.51 -0.18,-0.9 -0.39,-1.15 -0.33,-0.4 -0.75,-0.6 -1.28,-0.6 -0.47,0 -0.87,0.16 -1.19,0.48 -0.32,0.32 -0.5,0.74 -0.53,1.27z"/>
  <path id="_2_15" class="fil0" d="M166.36 24.46l1.01 0.14c-0.11,0.7 -0.39,1.24 -0.85,1.63 -0.46,0.39 -1.02,0.59 -1.68,0.59 -0.83,0 -1.5,-0.27 -2.01,-0.82 -0.51,-0.54 -0.76,-1.32 -0.76,-2.34 0,-0.66 0.11,-1.23 0.33,-1.72 0.22,-0.49 0.55,-0.86 0.99,-1.11 0.44,-0.25 0.93,-0.37 1.45,-0.37 0.66,0 1.2,0.17 1.62,0.5 0.42,0.33 0.69,0.81 0.81,1.43l-1 0.15c-0.1,-0.41 -0.26,-0.72 -0.51,-0.92 -0.24,-0.21 -0.54,-0.31 -0.88,-0.31 -0.52,0 -0.94,0.19 -1.27,0.56 -0.32,0.37 -0.49,0.96 -0.49,1.77 0,0.82 0.16,1.41 0.47,1.78 0.32,0.37 0.72,0.56 1.23,0.56 0.41,0 0.75,-0.12 1.02,-0.37 0.27,-0.25 0.44,-0.63 0.52,-1.14z"/>
  <path class="fil0" d="M147.2 90.51l1.06 -0.27c0.08,0.41 0.3,0.81 0.64,1.22 0.35,0.41 0.81,0.61 1.39,0.61 0.59,0 1.05,-0.15 1.39,-0.45 0.34,-0.3 0.51,-0.67 0.51,-1.1 0,-0.46 -0.18,-0.83 -0.54,-1.1 -0.36,-0.27 -0.84,-0.41 -1.46,-0.41l-0.53 0 0 -0.97c0.51,0 0.9,-0.03 1.17,-0.09 0.27,-0.06 0.51,-0.21 0.72,-0.45 0.21,-0.24 0.31,-0.52 0.31,-0.83 0,-0.36 -0.14,-0.68 -0.42,-0.95 -0.28,-0.27 -0.67,-0.41 -1.15,-0.41 -0.42,0 -0.78,0.11 -1.08,0.32 -0.3,0.21 -0.5,0.5 -0.62,0.85 -0.11,0.35 -0.17,0.61 -0.17,0.78l-1.07 -0.25c0.26,-1.79 1.25,-2.68 2.95,-2.68 0.82,0 1.47,0.23 1.95,0.69 0.48,0.46 0.72,0.99 0.72,1.6 0,0.78 -0.37,1.39 -1.11,1.82 0.43,0.12 0.79,0.36 1.08,0.73 0.29,0.37 0.43,0.8 0.43,1.31 0,0.72 -0.28,1.33 -0.84,1.82 -0.56,0.49 -1.3,0.73 -2.23,0.73 -1.59,0 -2.62,-0.84 -3.1,-2.51z"/>
  <polygon id="_1_16" class="fil0" points="154.62,86.79 155.66,86.79 155.66,91.44 158.53,86.79 159.64,86.79 159.64,92.88 158.61,92.88 158.61,88.26 155.74,92.88 154.62,92.88 "/>
  <polygon id="_2_17" class="fil0" points="161.22,86.79 162.81,86.79 164.42,91.66 166.21,86.79 167.68,86.79 167.68,92.88 166.65,92.88 166.65,87.97 164.85,92.88 163.93,92.88 162.23,87.74 162.23,92.88 161.22,92.88 "/>
  <path id="_3_18" class="fil0" d="M173.25 92.12c-0.38,0.33 -0.75,0.56 -1.11,0.69 -0.35,0.14 -0.73,0.2 -1.14,0.2 -0.67,0 -1.18,-0.16 -1.54,-0.49 -0.36,-0.33 -0.54,-0.74 -0.54,-1.25 0,-0.3 0.07,-0.57 0.2,-0.82 0.14,-0.25 0.32,-0.44 0.53,-0.59 0.22,-0.15 0.47,-0.26 0.74,-0.34 0.2,-0.05 0.51,-0.1 0.92,-0.15 0.83,-0.1 1.45,-0.22 1.84,-0.35 0,-0.14 0.01,-0.23 0.01,-0.27 0,-0.42 -0.1,-0.71 -0.29,-0.89 -0.26,-0.23 -0.66,-0.35 -1.18,-0.35 -0.49,0 -0.85,0.09 -1.08,0.26 -0.23,0.17 -0.4,0.47 -0.51,0.91l-1.01 -0.14c0.09,-0.43 0.24,-0.78 0.45,-1.05 0.21,-0.27 0.52,-0.47 0.92,-0.61 0.4,-0.14 0.86,-0.22 1.39,-0.22 0.52,0 0.95,0.06 1.27,0.18 0.33,0.12 0.57,0.28 0.72,0.46 0.15,0.19 0.26,0.42 0.32,0.7 0.03,0.18 0.05,0.49 0.05,0.95l0 1.37c0,0.96 0.02,1.56 0.06,1.82 0.04,0.26 0.13,0.5 0.25,0.74l-1.08 0c-0.1,-0.22 -0.17,-0.47 -0.2,-0.76zm-0.08 -2.29c-0.38,0.15 -0.94,0.28 -1.69,0.39 -0.43,0.06 -0.73,0.13 -0.9,0.21 -0.18,0.08 -0.31,0.19 -0.41,0.33 -0.1,0.15 -0.14,0.31 -0.14,0.49 0,0.27 0.1,0.5 0.31,0.68 0.21,0.18 0.51,0.27 0.92,0.27 0.4,0 0.75,-0.09 1.06,-0.26 0.31,-0.17 0.54,-0.41 0.68,-0.71 0.11,-0.23 0.17,-0.58 0.17,-1.03l0.01 -0.38z"/>
 </g>
</svg>
