<?xml version="1.0" encoding="UTF-8" standalone="no"?>
<svg
   xmlns:dc="http://purl.org/dc/elements/1.1/"
   xmlns:cc="http://creativecommons.org/ns#"
   xmlns:rdf="http://www.w3.org/1999/02/22-rdf-syntax-ns#"
   xmlns:svg="http://www.w3.org/2000/svg"
   xmlns="http://www.w3.org/2000/svg"
   xmlns:sodipodi="http://sodipodi.sourceforge.net/DTD/sodipodi-0.dtd"
   xmlns:inkscape="http://www.inkscape.org/namespaces/inkscape"
   width="45.16227mm"
   height="19.365641mm"
   viewBox="0 0 45.162271 19.365641"
   version="1.1"
   id="svg8"
   inkscape:version="1.0.1 (3bc2e813f5, 2020-09-07)"
   sodipodi:docname="Strelka.svg">
  <defs
     id="defs2" />
  <sodipodi:namedview
     id="base"
     pagecolor="#ffffff"
     bordercolor="#666666"
     borderopacity="1.0"
     inkscape:pageopacity="0.0"
     inkscape:pageshadow="2"
     inkscape:zoom="1.979899"
     inkscape:cx="122.69187"
     inkscape:cy="105.42739"
     inkscape:document-units="mm"
     inkscape:current-layer="layer1"
     inkscape:document-rotation="0"
     showgrid="false"
     inkscape:snap-global="true"
     fit-margin-top="0"
     fit-margin-left="0"
     fit-margin-right="0"
     fit-margin-bottom="0"
     inkscape:window-width="1264"
     inkscape:window-height="967"
     inkscape:window-x="0"
     inkscape:window-y="0"
     inkscape:window-maximized="0" />
  <metadata
     id="metadata5">
    <rdf:RDF>
      <cc:Work
         rdf:about="">
        <dc:format>image/svg+xml</dc:format>
        <dc:type
           rdf:resource="http://purl.org/dc/dcmitype/StillImage" />
        <dc:title></dc:title>
      </cc:Work>
    </rdf:RDF>
  </metadata>
  <g
     inkscape:label="Слой 1"
     inkscape:groupmode="layer"
     id="layer1"
     transform="translate(-9.4012561,-155.45563)">
    <path
       style="fill:#b5c422;stroke-width:0.215072"
       d="m 37.731434,174.26007 c -0.192268,-0.42198 -0.191182,-0.969 0.0046,-2.32318 0.140861,-0.97418 0.256103,-2.06891 0.256103,-2.43273 0,-1.23991 -0.103766,-1.25239 -6.18889,-0.74393 -12.833162,1.07232 -20.766081,0.23011 -22.0982899,-2.3461 -0.72996,-1.41159 -0.103628,-2.81026 1.4452089,-3.22731 0.644494,-0.17355 1.4597,-0.1709 3.053244,0.01 5.178335,0.58756 19.790487,0.44787 21.509319,-0.20563 0.802451,-0.30509 0.853898,-0.90306 0.226454,-2.63206 -1.183253,-3.2606 -1.279999,-3.74053 -0.877776,-4.3544 0.315431,-0.48141 0.509441,-0.5491 1.57385,-0.5491 1.393206,0 9.014781,1.27925 11.572799,1.94245 5.39977,1.39995 7.522085,3.86903 5.735037,6.67209 -1.342024,2.10502 -6.657594,6.55387 -10.574156,8.85 -3.357323,1.96827 -5.156401,2.3959 -5.637506,1.33999 z"
       id="path1528" />
  </g>
</svg>
