<?xml version="1.0" encoding="UTF-8"?>
<!DOCTYPE svg PUBLIC "-//W3C//DTD SVG 1.1//EN" "http://www.w3.org/Graphics/SVG/1.1/DTD/svg11.dtd">
<!-- Creator: CorelDRAW 2019 (64-Bit) -->
<svg xmlns="http://www.w3.org/2000/svg" xml:space="preserve" width="0.97863cm" height="0.73099cm" version="1.1" style="shape-rendering:geometricPrecision; text-rendering:geometricPrecision; image-rendering:optimizeQuality; fill-rule:evenodd; clip-rule:evenodd"
viewBox="0 0 0.637 0.476"
 xmlns:xlink="http://www.w3.org/1999/xlink"
 xmlns:xodm="http://www.corel.com/coreldraw/odm/2003">
 <defs>
  <style type="text/css">
   <![CDATA[
    .fil0 {fill:#AEA363}
   ]]>
  </style>
 </defs>
 <g id="Слой_x0020_1">
  <metadata id="CorelCorpID_0Corel-Layer"/>
  <path class="fil0" d="M0.304 0.134c0.136,0 0.246,0.092 0.246,0.205 0,0.113 -0.108,0.138 -0.243,0.138 -0.136,0 -0.248,-0.025 -0.248,-0.138 0,-0.113 0.11,-0.205 0.246,-0.205z"/>
  <ellipse class="fil0" transform="matrix(1.12475 -0.24905 0.226492 0.927485 0.224679 0.0539378)" rx="0.058" ry="0.056"/>
  <ellipse class="fil0" transform="matrix(1.11419 0.280277 -0.243953 0.969787 0.41387 0.0635018)" rx="0.058" ry="0.054"/>
  <ellipse class="fil0" transform="matrix(0.86054 0.509382 -0.451524 0.762795 0.57614 0.162859)" rx="0.062" ry="0.065"/>
  <ellipse class="fil0" transform="matrix(0.778223 -0.672232 0.554266 0.622581 0.0651703 0.140654)" rx="0.07" ry="0.065"/>
 </g>
</svg>
