<?xml version="1.0" encoding="UTF-8"?>
<!DOCTYPE svg PUBLIC "-//W3C//DTD SVG 1.1//EN" "http://www.w3.org/Graphics/SVG/1.1/DTD/svg11.dtd">
<!-- Creator: CorelDRAW 2019 (64-Bit) -->
<svg xmlns="http://www.w3.org/2000/svg" xml:space="preserve" width="0.97863cm" height="0.73099cm" version="1.1" style="shape-rendering:geometricPrecision; text-rendering:geometricPrecision; image-rendering:optimizeQuality; fill-rule:evenodd; clip-rule:evenodd"
viewBox="0 0 0.626 0.468"
 xmlns:xlink="http://www.w3.org/1999/xlink"
 xmlns:xodm="http://www.corel.com/coreldraw/odm/2003">
 <defs>
  <style type="text/css">
   <![CDATA[
    .fil0 {fill:#AEA363}
   ]]>
  </style>
 </defs>
 <g id="Слой_x0020_1">
  <metadata id="CorelCorpID_0Corel-Layer"/>
  <path class="fil0" d="M0.327 0.131c-0.133,0 -0.241,0.09 -0.241,0.201 0,0.111 0.106,0.135 0.239,0.135 0.133,0 0.243,-0.024 0.243,-0.135 0,-0.111 -0.108,-0.201 -0.241,-0.201z"/>
  <ellipse class="fil0" transform="matrix(-1.12475 -0.24905 -0.226492 0.927485 0.405326 0.0529831)" rx="0.057" ry="0.055"/>
  <ellipse class="fil0" transform="matrix(-1.11419 0.280277 0.243953 0.969787 0.219484 0.0623779)" rx="0.057" ry="0.053"/>
  <ellipse class="fil0" transform="matrix(-0.86054 0.509382 0.451524 0.762795 0.060087 0.159976)" rx="0.061" ry="0.063"/>
  <ellipse class="fil0" transform="matrix(-0.778223 -0.672232 -0.554266 0.622581 0.562012 0.138164)" rx="0.069" ry="0.064"/>
 </g>
</svg>
