<?xml version="1.0" encoding="UTF-8"?>
<!DOCTYPE svg PUBLIC "-//W3C//DTD SVG 1.1//EN" "http://www.w3.org/Graphics/SVG/1.1/DTD/svg11.dtd">
<!-- Creator: CorelDRAW -->
<svg xmlns="http://www.w3.org/2000/svg" xml:space="preserve" width="18.9205mm" height="5.9884mm" version="1.1" style="shape-rendering:geometricPrecision; text-rendering:geometricPrecision; image-rendering:optimizeQuality; fill-rule:evenodd; clip-rule:evenodd"
viewBox="0 0 37.45 11.85"
 xmlns:xlink="http://www.w3.org/1999/xlink"
 xmlns:xodm="http://www.corel.com/coreldraw/odm/2003">
 <defs>
  <style type="text/css">
   <![CDATA[
    .fil0 {fill:#969677;fill-rule:nonzero}
   ]]>
  </style>
 </defs>
 <g id="Слой_x0020_1">
  <metadata id="CorelCorpID_0Corel-Layer"/>
  <path class="fil0" d="M0.38 7.18c-0.01,0 -0.02,0.01 -0.02,0.02l-0.02 0.02 -0.02 0.02c-0.01,0.01 -0.02,0.02 -0.02,0.02 -0.02,0.02 -0.05,0.05 -0.08,0.09 -0.03,0.04 -0.05,0.08 -0.06,0.11 -0.03,0.07 -0.05,0.15 -0.04,0.24 -0,0.02 0,0.04 0,0.06l0.01 0.06c0,0.02 0,0.04 0.01,0.06l0.01 0.06c-0.02,-0.09 -0.04,-0.17 -0.04,-0.26 -0.01,-0.09 0.01,-0.18 0.04,-0.26l0.01 -0.03 0.02 -0.03c0,-0.01 0.01,-0.02 0.02,-0.03l0.01 -0.01 0.01 -0.01c0.03,-0.04 0.06,-0.07 0.08,-0.09 0.06,-0.05 0.13,-0.09 0.21,-0.12l-0.03 0.01 -0.03 0.01c-0.02,0.01 -0.04,0.02 -0.05,0.03zm0.94 0.11c-0.1,-0.15 -0.23,-0.26 -0.39,-0.31 -0.15,-0.05 -0.3,-0.04 -0.45,0.01 -0.15,0.05 -0.27,0.14 -0.36,0.27 -0.1,0.14 -0.14,0.29 -0.13,0.46 0.02,0.32 0.12,0.62 0.28,0.9 0.07,0.13 0.15,0.22 0.23,0.29 0.08,0.07 0.16,0.09 0.22,0.07 0.09,-0.03 0.14,-0.1 0.14,-0.21 0,-0.13 -0.05,-0.33 -0.15,-0.62 -0.08,-0.23 -0.07,-0.36 0.01,-0.38 0.05,-0.01 0.09,0.02 0.14,0.1 0.04,0.08 0.07,0.18 0.08,0.31 0.04,0.28 0.1,0.48 0.18,0.58 0.06,0.08 0.14,0.1 0.23,0.08 0.08,-0.02 0.14,-0.08 0.18,-0.2 0.04,-0.11 0.05,-0.24 0.04,-0.41 -0.01,-0.16 -0.03,-0.33 -0.08,-0.49 -0.05,-0.17 -0.11,-0.32 -0.19,-0.45zm1.18 0.21c-0.01,0.03 -0.02,0.05 -0.03,0.08 -0.02,0.03 -0.04,0.04 -0.06,0.06 -0.02,0.02 -0.05,0.02 -0.08,0.02 0.02,-0.01 0.05,-0.02 0.06,-0.04 0.02,-0.02 0.04,-0.04 0.05,-0.06 0.03,-0.04 0.04,-0.09 0.05,-0.15 0.01,0.03 0.01,0.05 0,0.08zm-0.25 -0.08c0.01,-0.03 0.02,-0.05 0.04,-0.07 0.02,-0.02 0.04,-0.02 0.06,-0.01 0.02,0.01 0.03,0.02 0.04,0.05 0.01,0.03 0.01,0.05 -0,0.08 -0.01,0.03 -0.02,0.05 -0.04,0.07 -0.02,0.02 -0.04,0.02 -0.06,0.01 -0.02,-0.01 -0.03,-0.02 -0.04,-0.05 -0.01,-0.03 -0.01,-0.05 -0,-0.08zm-0.28 -0.52c-0.05,0.04 -0.1,0.09 -0.13,0.14 -0.03,0.05 -0.06,0.11 -0.08,0.18 -0.01,0.06 -0.02,0.12 -0.03,0.2 -0,-0.03 -0,-0.06 0,-0.1 0,-0.04 0.01,-0.07 0.01,-0.1 0.01,-0.07 0.04,-0.14 0.07,-0.19 0.04,-0.06 0.08,-0.11 0.14,-0.14 0.03,-0.02 0.06,-0.03 0.09,-0.04 0.03,-0.01 0.07,-0.02 0.09,-0.02 -0.07,0.02 -0.13,0.05 -0.17,0.09zm0.21 -0.2c-0.17,0.03 -0.3,0.1 -0.4,0.22 -0.08,0.11 -0.13,0.25 -0.15,0.42 -0.01,0.16 0.01,0.33 0.05,0.51 0.05,0.17 0.11,0.33 0.2,0.47 0.09,0.14 0.17,0.24 0.26,0.3 0.08,0.06 0.15,0.08 0.22,0.08 0.06,-0 0.11,-0.03 0.15,-0.09 0.04,-0.05 0.05,-0.12 0.05,-0.2 -0,-0.05 -0.01,-0.12 -0.03,-0.18 -0.01,-0.02 -0.02,-0.05 -0.03,-0.08l-0.01 -0.04c-0,-0.01 -0.01,-0.03 -0.01,-0.04 -0.02,-0.05 -0.02,-0.09 -0.02,-0.13 0,-0.04 0.03,-0.07 0.07,-0.1 0.13,-0.09 0.21,-0.21 0.26,-0.36 0.05,-0.14 0.05,-0.27 0.01,-0.4 -0.04,-0.14 -0.11,-0.24 -0.22,-0.31 -0.12,-0.08 -0.26,-0.11 -0.42,-0.08zm1.78 1.11c-0.01,0.03 -0.03,0.05 -0.05,0.06 -0.02,0.02 -0.04,0.03 -0.07,0.03 0.04,-0.03 0.08,-0.06 0.1,-0.11 0.02,-0.04 0.03,-0.09 0.03,-0.15 0.02,0.06 0.02,0.11 -0.01,0.16zm-0.29 -0.1c-0.01,-0.03 -0.01,-0.07 -0,-0.1 0.01,-0.03 0.03,-0.05 0.06,-0.06 0.03,-0.01 0.05,-0 0.08,0.01 0.03,0.02 0.04,0.04 0.06,0.08 0.01,0.03 0.01,0.07 0,0.1 -0.01,0.03 -0.03,0.05 -0.06,0.06 -0.03,0.01 -0.05,0 -0.08,-0.01 -0.03,-0.02 -0.04,-0.04 -0.06,-0.08zm-0.24 -1.05c-0.06,0.04 -0.11,0.09 -0.15,0.15 -0.04,0.05 -0.07,0.12 -0.1,0.2l-0.01 0.03 -0.01 0.03 -0.01 0.06 -0.01 0.06 -0.01 0.06c0,-0.08 0.01,-0.16 0.04,-0.23 0.02,-0.08 0.06,-0.15 0.1,-0.21 0.05,-0.07 0.1,-0.12 0.17,-0.15 0.03,-0.02 0.06,-0.03 0.1,-0.04l0.03 -0.01 0.03 -0.01 0.05 -0.01c-0.08,0.02 -0.14,0.05 -0.2,0.08zm0.41 -0.2c-0.27,-0.03 -0.49,0.05 -0.64,0.25 -0.13,0.17 -0.19,0.39 -0.19,0.67 0.01,0.27 0.07,0.5 0.2,0.71 0.14,0.22 0.32,0.35 0.53,0.38 0.2,0.03 0.38,-0.06 0.52,-0.25 0.13,-0.18 0.21,-0.4 0.23,-0.67 0.03,-0.27 -0.01,-0.51 -0.12,-0.71 -0.12,-0.22 -0.3,-0.35 -0.55,-0.37zm1.68 -0.08c-0.02,0.03 -0.04,0.07 -0.05,0.11 -0.03,0.08 -0.05,0.15 -0.07,0.24l-0.01 0.06 -0.01 0.06c-0.01,0.06 -0.02,0.1 -0.02,0.12 -0.01,0.05 -0.03,0.1 -0.04,0.12 -0.01,0.02 -0.03,0.03 -0.04,0.04 -0.02,0.01 -0.03,0.02 -0.06,0.02 0.02,-0 0.04,-0.01 0.05,-0.02 0.01,-0.01 0.03,-0.03 0.04,-0.05 0.01,-0.03 0.02,-0.07 0.03,-0.12l0.01 -0.06 0.01 -0.06c0.01,-0.05 0.01,-0.09 0.02,-0.13 0.02,-0.09 0.04,-0.17 0.07,-0.24 0.04,-0.09 0.09,-0.16 0.14,-0.2 -0.03,0.03 -0.05,0.06 -0.07,0.1zm-0.79 0.46c-0,0.06 -0,0.13 0,0.21l0.01 0.1 0 0.1c-0.04,-0.2 -0.05,-0.38 -0.02,-0.55 0,-0.03 0.01,-0.06 0.02,-0.09 0.01,-0.04 0.02,-0.07 0.03,-0.09 0.03,-0.07 0.07,-0.11 0.13,-0.11 -0.06,0.02 -0.11,0.08 -0.13,0.18 -0.01,0.04 -0.02,0.08 -0.02,0.13 -0,0.02 -0,0.04 -0,0.06l-0 0.03 -0 0.01 -0 0.01zm1.09 -0.69c-0.11,-0.05 -0.22,-0.03 -0.31,0.07 -0.08,0.08 -0.14,0.2 -0.18,0.35 -0.01,0.05 -0.03,0.11 -0.04,0.17 -0,0.02 -0.01,0.05 -0.01,0.08l-0.01 0.04 -0 0.02 -0 0.02c-0.01,0.05 -0.02,0.09 -0.02,0.11 -0.01,0.03 -0.02,0.04 -0.03,0.04 -0.02,0 -0.04,-0.01 -0.04,-0.05 -0.01,-0.03 -0.01,-0.1 -0.02,-0.22 -0.01,-0.21 -0.04,-0.35 -0.11,-0.42 -0.05,-0.06 -0.12,-0.07 -0.21,-0.05 -0.11,0.03 -0.17,0.16 -0.2,0.38 -0.03,0.21 -0.02,0.46 0.04,0.75 0.1,0.53 0.29,0.79 0.57,0.79 0.08,-0 0.16,-0.04 0.23,-0.1 0.07,-0.06 0.12,-0.14 0.16,-0.24 0.03,-0.08 0.06,-0.16 0.08,-0.23 0.01,-0.03 0.01,-0.05 0.02,-0.08 0.01,-0.02 0.01,-0.04 0.01,-0.06 0.01,-0.04 0.01,-0.06 0.02,-0.06 0,-0.01 0.01,-0.01 0.02,-0.01 0.01,0 0.02,0.04 0.02,0.11l0 0.03 0 0.03c0,0.02 0,0.04 0,0.06 0,0.05 0.01,0.09 0.01,0.13 0.03,0.23 0.12,0.33 0.28,0.3 0.1,-0.02 0.16,-0.12 0.19,-0.31 0.02,-0.17 0.01,-0.38 -0.03,-0.62 -0.04,-0.24 -0.1,-0.46 -0.18,-0.64 -0.08,-0.2 -0.17,-0.32 -0.26,-0.37zm1.19 0.62c-0.02,0.03 -0.05,0.05 -0.08,0.07 -0.04,0.02 -0.06,0.04 -0.08,0.05 -0.03,0.03 -0.04,0.06 -0.04,0.09 -0.01,-0.02 -0.01,-0.04 -0,-0.06 0,-0.02 0.01,-0.03 0.03,-0.05 0.02,-0.02 0.05,-0.04 0.08,-0.06 0.03,-0.02 0.06,-0.04 0.08,-0.06 0.03,-0.03 0.04,-0.05 0.06,-0.08 -0,0.04 -0.02,0.07 -0.04,0.1zm-0.26 0.69c-0.05,0 -0.08,0.01 -0.11,0.01 -0.02,0.01 -0.04,0.01 -0.05,0.02 -0.01,0.01 -0.01,0.01 -0.01,0.02l-0 0.02 -0 0.01c-0,-0.01 -0,-0.02 -0,-0.03 -0,-0.01 0,-0.02 0.01,-0.03 0.01,-0.01 0.03,-0.03 0.05,-0.03 0.03,-0.01 0.07,-0.02 0.11,-0.02 0.03,-0 0.07,-0 0.11,-0l0.06 0 0.06 0c-0.03,0.01 -0.07,0.02 -0.11,0.02l-0.06 0 -0.06 0zm-0.12 -1.3c-0.05,0.03 -0.09,0.06 -0.12,0.09 -0.02,0.02 -0.03,0.03 -0.05,0.05 -0.02,0.02 -0.03,0.04 -0.04,0.06 -0.03,0.05 -0.04,0.1 -0.03,0.15 -0.01,-0.02 -0.01,-0.05 -0.01,-0.08 0,-0.03 0.01,-0.05 0.02,-0.08 0.02,-0.04 0.05,-0.08 0.09,-0.13 0.08,-0.07 0.17,-0.12 0.26,-0.15 -0.04,0.02 -0.09,0.05 -0.13,0.08zm0.96 0.84c-0.03,-0.03 -0.06,-0.05 -0.09,-0.08 -0.02,-0.01 -0.05,-0.03 -0.08,-0.04l-0.02 -0.01 -0.01 -0.01c-0.01,-0.01 -0.02,-0.01 -0.02,-0.01 -0.01,-0.01 -0.02,-0.02 -0.03,-0.03 -0,-0.01 0,-0.04 0.02,-0.06 0.01,-0.01 0.02,-0.02 0.03,-0.04l0.01 -0.01 0.01 -0.01 0.02 -0.03c0.03,-0.04 0.05,-0.08 0.07,-0.12 0.02,-0.05 0.03,-0.1 0.03,-0.16 -0,-0.14 -0.05,-0.25 -0.13,-0.33 -0.09,-0.09 -0.22,-0.13 -0.39,-0.13 -0.08,-0 -0.17,0.02 -0.26,0.05 -0.09,0.03 -0.18,0.08 -0.25,0.13 -0.08,0.06 -0.14,0.13 -0.17,0.2 -0.04,0.08 -0.05,0.16 -0.03,0.24 0.05,0.2 0.22,0.23 0.49,0.1 0.05,-0.02 0.08,-0.03 0.12,-0.03 0.03,-0 0.04,0.01 0.05,0.02 0.01,0.01 0,0.03 -0.01,0.05 -0.02,0.02 -0.04,0.04 -0.08,0.06 -0.12,0.07 -0.18,0.16 -0.16,0.27 0.01,0.05 0.04,0.1 0.08,0.13 0.04,0.03 0.1,0.04 0.16,0.03 0.06,-0.01 0.1,0 0.12,0.04 0.01,0.02 0.01,0.03 0.01,0.05 -0,0.02 -0.01,0.03 -0.03,0.05 -0.03,0.02 -0.07,0.03 -0.15,0.04 -0.01,0 -0.03,0 -0.05,0l-0.05 0c-0.04,0 -0.07,0 -0.1,0.01 -0.07,0.01 -0.13,0.02 -0.16,0.05 -0.04,0.03 -0.06,0.09 -0.06,0.16 0.01,0.08 0.06,0.16 0.15,0.22 0.08,0.06 0.19,0.1 0.32,0.13 0.13,0.02 0.25,0.02 0.37,-0.01 0.13,-0.03 0.23,-0.08 0.3,-0.16 0.1,-0.11 0.14,-0.25 0.13,-0.4 -0.01,-0.14 -0.06,-0.25 -0.15,-0.34zm1.17 -1.22c-0.01,0.01 -0.02,0.02 -0.03,0.04 -0.01,0.02 -0.02,0.05 -0.02,0.09 -0,0.05 0.01,0.12 0.02,0.2l0 0.02 0 0.03c0,0.02 0.01,0.04 0.01,0.05 0,0.04 -0,0.07 -0.01,0.11 -0.01,0.04 -0.02,0.07 -0.04,0.09 -0.02,0.03 -0.05,0.05 -0.07,0.06 0.05,-0.04 0.08,-0.09 0.1,-0.16 0.01,-0.03 0.01,-0.07 0,-0.1 -0,-0.01 -0,-0.03 -0.01,-0.05l-0.01 -0.02 -0 -0.03c-0.01,-0.08 -0.02,-0.15 -0.02,-0.2 0,-0.04 0.01,-0.08 0.03,-0.1 0.01,-0.02 0.02,-0.03 0.04,-0.03 0.01,-0.01 0.03,-0.01 0.05,-0.01 -0.02,0.01 -0.03,0.01 -0.04,0.02zm-0.85 0.17c-0.02,0.04 -0.04,0.08 -0.05,0.14 -0.01,0.04 -0.01,0.1 -0.02,0.15l-0 0.08 -0 0.08c-0.01,-0.1 -0.01,-0.21 0,-0.31 0.01,-0.06 0.03,-0.11 0.06,-0.15 0.02,-0.02 0.03,-0.04 0.06,-0.05 0.02,-0.01 0.05,-0.02 0.07,-0.02 -0.04,0.01 -0.08,0.04 -0.11,0.09zm0.87 -0.3c-0.09,0.02 -0.14,0.07 -0.16,0.16 -0.02,0.08 -0.02,0.2 0.01,0.36 0.01,0.07 0.01,0.12 -0.02,0.16 -0.02,0.04 -0.05,0.05 -0.09,0.06 -0.04,0 -0.08,-0.01 -0.1,-0.04 -0.03,-0.03 -0.04,-0.08 -0.05,-0.14 -0.01,-0.17 -0.04,-0.29 -0.1,-0.36 -0.05,-0.07 -0.13,-0.1 -0.23,-0.1 -0.08,-0 -0.14,0.03 -0.2,0.09 -0.05,0.06 -0.08,0.13 -0.1,0.23 -0.03,0.18 -0.02,0.39 0.02,0.63 0.03,0.23 0.09,0.44 0.17,0.64 0.06,0.15 0.13,0.25 0.21,0.3 0.07,0.05 0.14,0.06 0.21,0.03 0.16,-0.05 0.21,-0.19 0.16,-0.43 -0.04,-0.17 -0.02,-0.26 0.06,-0.27 0.04,-0.01 0.07,0 0.1,0.03 0.03,0.04 0.06,0.1 0.07,0.19 0.02,0.15 0.06,0.27 0.12,0.34 0.06,0.07 0.13,0.09 0.22,0.08 0.15,-0.02 0.24,-0.14 0.27,-0.36 0.02,-0.16 0.01,-0.4 -0.04,-0.75 -0.04,-0.26 -0.1,-0.48 -0.2,-0.64 -0.1,-0.17 -0.21,-0.24 -0.33,-0.22zm1.59 1.17l-0.02 0.01c-0.01,0.01 -0.03,0.01 -0.04,0.02 -0.03,0.01 -0.06,0.02 -0.08,0.02 0.03,-0.01 0.05,-0.02 0.07,-0.03l0.02 -0.01 0.02 -0.01c0.01,-0.01 0.03,-0.02 0.04,-0.02 0.03,-0.02 0.05,-0.03 0.08,-0.03 0.03,-0.01 0.06,-0.01 0.08,-0.01 -0.04,0.02 -0.09,0.04 -0.14,0.07l-0.02 0.01zm-0.58 -1.23c-0.04,0.02 -0.07,0.04 -0.1,0.06 -0.03,0.03 -0.06,0.06 -0.08,0.09 -0.02,0.03 -0.04,0.07 -0.05,0.11 -0.02,0.06 -0.04,0.15 -0.04,0.25 -0,0.04 -0,0.08 -0,0.13 -0,0.02 -0,0.04 0,0.06l0 0.07c-0.01,-0.09 -0.02,-0.17 -0.02,-0.26 0,-0.1 0.02,-0.18 0.04,-0.26 0.02,-0.05 0.03,-0.09 0.06,-0.12 0.03,-0.04 0.06,-0.07 0.09,-0.09 0.03,-0.02 0.07,-0.04 0.11,-0.06 0.04,-0.01 0.08,-0.02 0.12,-0.03 -0.04,0.01 -0.08,0.02 -0.11,0.04zm0.36 0.7l0.01 -0c0.01,-0 0.02,-0.01 0.02,-0.01 0.02,-0 0.03,-0.01 0.04,-0.01 0.02,0 0.03,0.01 0.04,0.02 -0.01,-0 -0.02,-0 -0.04,0 -0.01,0 -0.03,0.01 -0.04,0.01l-0.01 0 -0.01 0c-0.01,0 -0.01,0.01 -0.02,0.01 -0.02,0 -0.03,0 -0.04,0l0.02 -0.01 0.02 -0.01 0.01 -0.01zm0.13 0.44c-0.04,0.03 -0.08,0.03 -0.11,0.03 -0.03,-0.01 -0.05,-0.02 -0.06,-0.05 -0.01,-0.03 -0.01,-0.05 -0,-0.08 0.01,-0.03 0.03,-0.05 0.06,-0.05 0.09,-0.02 0.15,-0.06 0.19,-0.11 0.03,-0.05 0.04,-0.1 0.03,-0.16 -0.01,-0.06 -0.04,-0.1 -0.1,-0.12 -0.05,-0.02 -0.11,-0.02 -0.17,0.01 -0.05,0.02 -0.09,0.01 -0.12,-0.03 -0.01,-0.02 -0.01,-0.04 -0.01,-0.06 0,-0.02 0.01,-0.04 0.02,-0.06 0.02,-0.02 0.06,-0.04 0.1,-0.06 0.02,-0.01 0.04,-0.01 0.07,-0.02l0.03 -0.01 0.04 -0.01c0.06,-0.01 0.1,-0.03 0.13,-0.05 0.04,-0.03 0.06,-0.06 0.08,-0.11 0.02,-0.08 -0.01,-0.15 -0.07,-0.22 -0.06,-0.06 -0.15,-0.11 -0.26,-0.13 -0.11,-0.02 -0.22,-0.02 -0.33,0.01 -0.12,0.04 -0.21,0.1 -0.28,0.21 -0.07,0.09 -0.1,0.23 -0.11,0.41 -0.01,0.17 0,0.35 0.04,0.54 0.04,0.19 0.09,0.36 0.16,0.5 0.08,0.15 0.16,0.25 0.25,0.29 0.09,0.04 0.19,0.05 0.3,0.03 0.1,-0.02 0.21,-0.06 0.3,-0.13 0.1,-0.07 0.17,-0.14 0.23,-0.23 0.06,-0.09 0.08,-0.18 0.07,-0.26 -0.02,-0.11 -0.07,-0.17 -0.15,-0.19 -0.09,-0.02 -0.2,0.01 -0.33,0.09zm1.64 -0.37c-0.01,0.01 -0.01,0.01 -0.02,0.03l-0.01 0.01 -0.01 0.01c-0.02,0.02 -0.04,0.04 -0.06,0.04 -0.02,0.01 -0.05,0.02 -0.07,0.01 0.04,-0.02 0.08,-0.04 0.11,-0.08l0.01 -0.01 0.01 -0.01c0.01,-0.01 0.02,-0.02 0.03,-0.02 0.02,-0.02 0.05,-0.02 0.07,-0.02 -0.02,0.01 -0.04,0.02 -0.06,0.04zm-0.88 -0.8c-0.04,0.06 -0.07,0.12 -0.09,0.19 -0.02,0.06 -0.04,0.13 -0.05,0.22 0,-0.07 0.01,-0.15 0.03,-0.22 0.02,-0.07 0.05,-0.14 0.09,-0.2 0.04,-0.07 0.09,-0.12 0.15,-0.16 0.03,-0.02 0.06,-0.03 0.1,-0.04 0.04,-0.01 0.07,-0.02 0.1,-0.02 -0.07,0.02 -0.14,0.05 -0.19,0.08 -0.06,0.04 -0.1,0.09 -0.14,0.15zm1.18 0.9c-0.04,-0.14 -0.1,-0.22 -0.19,-0.25 -0.04,-0.01 -0.08,-0.01 -0.12,0.01 -0.04,0.02 -0.08,0.04 -0.11,0.08 -0.03,0.04 -0.07,0.06 -0.11,0.06 -0.04,0 -0.08,-0.01 -0.11,-0.04 -0.04,-0.03 -0.07,-0.07 -0.09,-0.12 -0.03,-0.06 -0.04,-0.12 -0.04,-0.19 -0,-0.1 0.03,-0.17 0.11,-0.19 0.05,-0.02 0.13,-0.02 0.24,0.01 0.05,0.01 0.09,0 0.12,-0.02 0.03,-0.02 0.05,-0.06 0.06,-0.1 0.01,-0.05 0.01,-0.1 -0.01,-0.15 -0.02,-0.06 -0.05,-0.11 -0.09,-0.15 -0.1,-0.1 -0.21,-0.16 -0.34,-0.18 -0.12,-0.02 -0.24,-0.01 -0.35,0.05 -0.14,0.06 -0.25,0.19 -0.32,0.38 -0.08,0.2 -0.09,0.44 -0.05,0.72 0.05,0.31 0.16,0.54 0.34,0.69 0.08,0.07 0.17,0.12 0.27,0.14 0.1,0.02 0.2,0.02 0.31,-0.01 0.18,-0.05 0.32,-0.14 0.41,-0.29 0.09,-0.14 0.11,-0.28 0.07,-0.44zm0.95 -1.31c-0.02,0.03 -0.04,0.07 -0.05,0.11 -0.03,0.08 -0.05,0.15 -0.07,0.24l-0.01 0.06 -0.01 0.06c-0.01,0.06 -0.02,0.1 -0.02,0.12 -0.01,0.05 -0.03,0.1 -0.04,0.12 -0.01,0.02 -0.03,0.03 -0.04,0.04 -0.01,0.01 -0.03,0.02 -0.06,0.02 0.02,-0 0.04,-0.01 0.05,-0.02 0.01,-0.01 0.03,-0.03 0.04,-0.05 0.01,-0.03 0.02,-0.07 0.03,-0.12l0.01 -0.06 0.01 -0.06c0.01,-0.05 0.01,-0.09 0.02,-0.13 0.02,-0.09 0.04,-0.17 0.07,-0.24 0.04,-0.09 0.09,-0.16 0.14,-0.2 -0.03,0.03 -0.05,0.06 -0.07,0.1zm-0.79 0.46c-0,0.06 -0,0.13 0,0.21l0.01 0.1 0 0.1c-0.04,-0.2 -0.05,-0.38 -0.02,-0.55 0,-0.03 0.01,-0.06 0.02,-0.09 0.01,-0.04 0.02,-0.07 0.03,-0.09 0.03,-0.07 0.07,-0.11 0.13,-0.11 -0.06,0.02 -0.11,0.08 -0.13,0.18 -0.01,0.04 -0.02,0.08 -0.02,0.13 -0,0.02 -0,0.04 -0,0.06l-0 0.03 -0 0.01 -0 0.01zm1.09 -0.69c-0.11,-0.05 -0.22,-0.03 -0.31,0.07 -0.08,0.08 -0.14,0.2 -0.18,0.35 -0.01,0.05 -0.03,0.11 -0.04,0.17 -0,0.02 -0.01,0.05 -0.01,0.08l-0.01 0.04 -0 0.02 -0 0.02c-0.01,0.05 -0.02,0.09 -0.02,0.11 -0.01,0.03 -0.02,0.04 -0.03,0.04 -0.02,0 -0.04,-0.01 -0.04,-0.05 -0.01,-0.03 -0.01,-0.1 -0.02,-0.22 -0.01,-0.21 -0.04,-0.35 -0.11,-0.42 -0.05,-0.06 -0.12,-0.07 -0.21,-0.05 -0.11,0.03 -0.17,0.16 -0.2,0.38 -0.03,0.21 -0.02,0.46 0.04,0.75 0.1,0.53 0.29,0.79 0.57,0.79 0.08,-0 0.16,-0.04 0.23,-0.1 0.07,-0.06 0.12,-0.14 0.16,-0.24 0.03,-0.08 0.06,-0.16 0.08,-0.23 0.01,-0.03 0.02,-0.05 0.02,-0.08 0.01,-0.02 0.01,-0.04 0.01,-0.06 0.01,-0.04 0.01,-0.06 0.02,-0.06 0,-0.01 0.01,-0.01 0.02,-0.01 0.01,0 0.02,0.04 0.02,0.11l0 0.03 0 0.03c0,0.02 0,0.04 0,0.06 0,0.05 0.01,0.09 0.01,0.13 0.03,0.23 0.12,0.33 0.28,0.3 0.1,-0.02 0.16,-0.12 0.19,-0.31 0.02,-0.17 0.01,-0.38 -0.03,-0.62 -0.04,-0.24 -0.1,-0.46 -0.18,-0.64 -0.08,-0.2 -0.17,-0.32 -0.27,-0.37zm2.17 0.84c-0.01,0.01 -0.01,0.01 -0.02,0.03l-0.01 0.01 -0.01 0.01c-0.02,0.02 -0.04,0.04 -0.06,0.04 -0.02,0.01 -0.05,0.02 -0.07,0.01 0.04,-0.02 0.08,-0.04 0.11,-0.08l0.01 -0.01 0.01 -0.01c0.01,-0.01 0.02,-0.02 0.03,-0.02 0.02,-0.02 0.05,-0.02 0.07,-0.02 -0.02,0.01 -0.04,0.02 -0.06,0.04zm-0.89 -0.8c-0.04,0.06 -0.07,0.12 -0.09,0.19 -0.02,0.06 -0.04,0.13 -0.05,0.22 0,-0.08 0.01,-0.15 0.03,-0.22 0.02,-0.07 0.05,-0.14 0.09,-0.2 0.04,-0.07 0.09,-0.12 0.15,-0.15 0.03,-0.02 0.06,-0.03 0.1,-0.04 0.04,-0.01 0.07,-0.02 0.1,-0.02 -0.07,0.02 -0.14,0.05 -0.19,0.08 -0.06,0.04 -0.1,0.09 -0.14,0.15zm1.18 0.9c-0.03,-0.14 -0.1,-0.22 -0.19,-0.25 -0.04,-0.01 -0.08,-0.01 -0.12,0.01 -0.04,0.02 -0.08,0.04 -0.11,0.08 -0.03,0.04 -0.07,0.06 -0.11,0.06 -0.04,0 -0.08,-0.01 -0.11,-0.04 -0.04,-0.03 -0.07,-0.07 -0.09,-0.12 -0.02,-0.06 -0.04,-0.12 -0.04,-0.19 -0,-0.1 0.03,-0.17 0.11,-0.19 0.05,-0.02 0.13,-0.02 0.24,0.01 0.05,0.01 0.09,0 0.12,-0.02 0.03,-0.02 0.05,-0.06 0.06,-0.1 0.01,-0.05 0.01,-0.1 -0.01,-0.15 -0.02,-0.06 -0.05,-0.11 -0.09,-0.15 -0.1,-0.1 -0.21,-0.16 -0.34,-0.18 -0.12,-0.02 -0.24,-0 -0.35,0.05 -0.14,0.06 -0.25,0.19 -0.32,0.38 -0.08,0.2 -0.09,0.44 -0.05,0.72 0.05,0.31 0.16,0.54 0.34,0.69 0.08,0.07 0.17,0.12 0.27,0.14 0.1,0.02 0.2,0.02 0.31,-0.01 0.18,-0.05 0.32,-0.14 0.41,-0.29 0.09,-0.14 0.11,-0.28 0.07,-0.44zm0.58 -1.36l-0.02 0.01c-0.01,0 -0.02,0.01 -0.02,0.01 -0.01,0 -0.01,0.01 -0.02,0.01l-0.01 0.01 -0.01 0.01 -0.02 0.02c-0.01,0.01 -0.01,0.01 -0.02,0.02 -0.04,0.05 -0.08,0.11 -0.11,0.18 -0.03,0.05 -0.05,0.12 -0.07,0.2 -0.02,0.06 -0.03,0.13 -0.05,0.21 0,-0.07 0.02,-0.14 0.03,-0.22 0.02,-0.07 0.04,-0.14 0.07,-0.21 0.04,-0.07 0.07,-0.13 0.12,-0.18 0.05,-0.06 0.12,-0.09 0.18,-0.09l-0.05 0.02zm0.88 0.49c-0.12,-0.22 -0.26,-0.39 -0.43,-0.5 -0.17,-0.11 -0.33,-0.15 -0.48,-0.1 -0.13,0.04 -0.23,0.15 -0.31,0.34 -0.08,0.18 -0.12,0.38 -0.13,0.62 -0.01,0.27 0.02,0.51 0.09,0.73 0.04,0.11 0.08,0.19 0.13,0.25 0.05,0.06 0.11,0.1 0.17,0.1 0.09,0 0.16,-0.05 0.2,-0.14 0.03,-0.07 0.05,-0.18 0.06,-0.33 0,-0.03 0,-0.06 0,-0.09l0 -0.04 0 -0.04c0,-0.08 0,-0.13 0.01,-0.16 0.01,-0.11 0.03,-0.17 0.06,-0.18 0.02,-0.01 0.05,-0 0.08,0.03 0.02,0.02 0.05,0.06 0.08,0.12 0.01,0.02 0.03,0.05 0.04,0.08l0.02 0.04 0.02 0.04c0.04,0.08 0.07,0.14 0.11,0.18 0.08,0.12 0.16,0.2 0.25,0.24 0.08,0.03 0.15,0.02 0.2,-0.03 0.04,-0.04 0.06,-0.09 0.07,-0.16 0.01,-0.07 0.01,-0.16 -0,-0.26 -0.03,-0.22 -0.11,-0.46 -0.25,-0.71z"/>
  <path class="fil0" d="M18.64 5.44c-0.01,0.03 -0.03,0.05 -0.05,0.07 -0.02,0.02 -0.05,0.03 -0.07,0.03 0.04,-0.03 0.08,-0.06 0.1,-0.11 0.02,-0.04 0.03,-0.09 0.03,-0.15 0.02,0.06 0.02,0.11 -0.01,0.16zm-0.29 -0.1c-0.01,-0.03 -0.01,-0.07 -0,-0.1 0.01,-0.03 0.03,-0.05 0.06,-0.06 0.03,-0.01 0.05,-0 0.08,0.01 0.03,0.02 0.04,0.04 0.06,0.08 0.01,0.03 0.01,0.07 0,0.1 -0.01,0.03 -0.03,0.05 -0.06,0.06 -0.03,0.01 -0.05,0 -0.08,-0.01 -0.03,-0.02 -0.04,-0.04 -0.06,-0.08zm-0.24 -1.05c-0.06,0.04 -0.11,0.09 -0.15,0.15 -0.04,0.05 -0.07,0.12 -0.1,0.2l-0.01 0.03 -0.01 0.03 -0.02 0.06 -0.01 0.06 -0.01 0.06c0,-0.08 0.01,-0.16 0.04,-0.23 0.02,-0.08 0.06,-0.15 0.1,-0.21 0.05,-0.07 0.1,-0.12 0.17,-0.15 0.03,-0.02 0.06,-0.03 0.1,-0.04l0.03 -0.01 0.03 -0.01 0.05 -0.01c-0.08,0.02 -0.14,0.05 -0.2,0.08zm0.41 -0.2c-0.27,-0.03 -0.49,0.05 -0.64,0.25 -0.13,0.17 -0.19,0.39 -0.19,0.67 0.01,0.27 0.07,0.5 0.2,0.71 0.14,0.22 0.32,0.35 0.53,0.38 0.2,0.03 0.38,-0.06 0.52,-0.25 0.13,-0.18 0.21,-0.4 0.23,-0.67 0.03,-0.27 -0.01,-0.51 -0.12,-0.71 -0.12,-0.22 -0.3,-0.35 -0.55,-0.37zm1.78 1.07c-0.01,0.03 -0.03,0.06 -0.05,0.08 -0.02,0.02 -0.05,0.03 -0.08,0.03 0.03,-0.01 0.05,-0.03 0.07,-0.05 0.02,-0.02 0.03,-0.05 0.04,-0.07 0.01,-0.05 0.01,-0.11 -0.02,-0.18 0.02,0.02 0.03,0.05 0.04,0.09 0.01,0.03 0.01,0.07 -0,0.1zm-0.25 -0.05c-0.02,-0.02 -0.03,-0.05 -0.03,-0.08 -0,-0.03 0.01,-0.05 0.02,-0.06 0.02,-0.01 0.04,-0.02 0.06,-0.01 0.02,0.01 0.05,0.02 0.07,0.05 0.02,0.02 0.03,0.05 0.03,0.08 0,0.03 -0.01,0.05 -0.02,0.06 -0.02,0.01 -0.04,0.02 -0.06,0.01 -0.02,-0.01 -0.05,-0.02 -0.07,-0.05zm-0.21 -0.56c0.02,-0.01 0.04,-0.02 0.05,-0.03 0.02,-0.02 0.03,-0.03 0.04,-0.05 0.01,-0.02 0.02,-0.04 0.03,-0.06 0.01,-0.02 0.01,-0.04 0.02,-0.06 0.01,0.05 0,0.09 -0.02,0.14 -0.01,0.02 -0.03,0.04 -0.05,0.05 -0.02,0.01 -0.04,0.02 -0.06,0.02zm-0.06 -0.2c0.01,-0.02 0.02,-0.04 0.03,-0.04 0.01,-0.01 0.03,-0.01 0.04,-0.01 0.01,0.01 0.02,0.02 0.03,0.03 0,0.02 0,0.04 -0,0.05 -0.01,0.02 -0.02,0.04 -0.03,0.04 -0.01,0.01 -0.03,0.01 -0.04,0.01 -0.01,-0.01 -0.02,-0.02 -0.03,-0.03 -0,-0.02 -0,-0.04 0,-0.05zm-0.26 -0.21c-0.02,0.03 -0.03,0.06 -0.05,0.1 -0.02,0.06 -0.04,0.13 -0.06,0.21 -0.01,0.06 -0.02,0.14 -0.03,0.22 -0,-0.07 -0,-0.15 0.01,-0.22 0.01,-0.08 0.03,-0.15 0.06,-0.22 0.03,-0.08 0.07,-0.14 0.12,-0.18 0.03,-0.03 0.06,-0.05 0.09,-0.06 0.03,-0.01 0.07,-0.02 0.1,-0.03 -0.07,0.02 -0.13,0.05 -0.17,0.1 -0.03,0.03 -0.05,0.05 -0.06,0.08zm0.63 0.44c-0.02,-0 -0.02,-0.02 -0.02,-0.04 0,-0.01 0.01,-0.02 0.01,-0.04l0 -0.01 0 -0.01c0,-0.01 0.01,-0.02 0.01,-0.03 0.01,-0.05 0.02,-0.1 0.02,-0.15 0,-0.07 -0.01,-0.14 -0.03,-0.2 -0.02,-0.08 -0.08,-0.14 -0.15,-0.18 -0.08,-0.04 -0.16,-0.06 -0.26,-0.05 -0.1,0.01 -0.19,0.06 -0.26,0.14 -0.08,0.09 -0.14,0.21 -0.17,0.37 -0.03,0.17 -0.04,0.34 -0.01,0.53 0.03,0.19 0.08,0.36 0.15,0.51 0.08,0.16 0.19,0.28 0.31,0.35 0.14,0.08 0.29,0.1 0.46,0.06 0.16,-0.04 0.28,-0.12 0.36,-0.24 0.07,-0.11 0.1,-0.23 0.09,-0.38 -0.01,-0.14 -0.07,-0.27 -0.16,-0.38 -0.1,-0.12 -0.23,-0.2 -0.38,-0.24zm1.52 0.22c-0.02,0.02 -0.03,0.03 -0.05,0.04 -0.02,0.01 -0.04,0.01 -0.06,0.01 0.04,-0.02 0.07,-0.04 0.09,-0.07 0.02,-0.02 0.04,-0.06 0.06,-0.1 0,0.05 -0.01,0.09 -0.04,0.12zm-0.15 -0.06c-0.02,-0.01 -0.04,-0.02 -0.05,-0.05 -0.01,-0.02 -0.01,-0.05 -0.01,-0.08 0.01,-0.03 0.02,-0.05 0.04,-0.07 0.02,-0.02 0.04,-0.02 0.06,-0.02 0.02,0 0.04,0.02 0.05,0.04 0.01,0.02 0.01,0.05 0.01,0.08 -0.01,0.03 -0.02,0.05 -0.04,0.07 -0.02,0.02 -0.04,0.02 -0.06,0.02zm-0.33 -0.71c-0.02,0.05 -0.05,0.12 -0.09,0.21 -0.01,0.03 -0.02,0.07 -0.04,0.11l-0.04 0.11c0.01,-0.07 0.03,-0.15 0.06,-0.23 0.02,-0.07 0.05,-0.14 0.08,-0.22 0.04,-0.08 0.08,-0.15 0.11,-0.2l0.02 -0.02c0.01,-0.01 0.01,-0.02 0.02,-0.02l0.02 -0.02 0.02 -0.02c0.04,-0.03 0.07,-0.05 0.1,-0.05 -0.03,0.01 -0.06,0.03 -0.09,0.06l-0.02 0.02 -0.02 0.02c-0,0.01 -0.01,0.01 -0.02,0.02l-0.02 0.02c-0.04,0.06 -0.07,0.12 -0.11,0.2zm0.27 -0.46c-0.11,-0 -0.22,0.1 -0.33,0.31 -0.1,0.19 -0.17,0.42 -0.23,0.69 -0.06,0.27 -0.08,0.51 -0.06,0.71 0.02,0.22 0.08,0.34 0.18,0.37 0.08,0.02 0.15,0.01 0.21,-0.04 0.05,-0.03 0.09,-0.09 0.14,-0.16 0.01,-0.01 0.02,-0.03 0.03,-0.05l0.03 -0.05c0.02,-0.04 0.04,-0.07 0.05,-0.09 0.04,-0.06 0.07,-0.09 0.1,-0.1 0.03,-0.01 0.07,0.01 0.13,0.05 0.02,0.01 0.04,0.03 0.08,0.06l0.04 0.03 0.04 0.03c0.07,0.05 0.13,0.09 0.18,0.1 0.07,0.02 0.13,0.01 0.19,-0.03 0.07,-0.05 0.09,-0.17 0.07,-0.37 -0.02,-0.19 -0.07,-0.4 -0.16,-0.63 -0.09,-0.24 -0.19,-0.44 -0.3,-0.59 -0.13,-0.17 -0.25,-0.26 -0.36,-0.26zm2.48 0.83c-0.01,0.01 -0.01,0.01 -0.02,0.03l-0.01 0.01 -0.01 0.01c-0.02,0.02 -0.04,0.04 -0.06,0.04 -0.02,0.01 -0.05,0.02 -0.07,0.01 0.04,-0.02 0.08,-0.04 0.11,-0.08l0.01 -0.01 0.01 -0.01c0.01,-0.01 0.02,-0.02 0.03,-0.02 0.02,-0.02 0.05,-0.02 0.07,-0.02 -0.02,0.01 -0.04,0.02 -0.06,0.04zm-0.88 -0.8c-0.04,0.06 -0.07,0.12 -0.09,0.19 -0.02,0.06 -0.04,0.13 -0.05,0.22 0,-0.08 0.01,-0.15 0.03,-0.22 0.02,-0.07 0.05,-0.14 0.09,-0.2 0.04,-0.07 0.09,-0.12 0.15,-0.15 0.03,-0.02 0.06,-0.03 0.1,-0.04 0.04,-0.01 0.07,-0.02 0.1,-0.02 -0.07,0.02 -0.14,0.05 -0.19,0.08 -0.06,0.04 -0.1,0.09 -0.14,0.15zm1.19 0.9c-0.04,-0.14 -0.1,-0.22 -0.19,-0.25 -0.04,-0.01 -0.08,-0.01 -0.12,0.01 -0.04,0.02 -0.08,0.04 -0.11,0.08 -0.03,0.04 -0.07,0.06 -0.11,0.06 -0.04,0 -0.08,-0.01 -0.11,-0.04 -0.04,-0.03 -0.07,-0.07 -0.09,-0.12 -0.02,-0.06 -0.04,-0.12 -0.04,-0.19 -0,-0.1 0.03,-0.17 0.11,-0.19 0.05,-0.02 0.13,-0.02 0.24,0.01 0.05,0.01 0.09,0 0.12,-0.02 0.03,-0.02 0.05,-0.06 0.06,-0.1 0.01,-0.05 0.01,-0.1 -0.01,-0.15 -0.02,-0.06 -0.05,-0.11 -0.09,-0.15 -0.1,-0.1 -0.21,-0.16 -0.34,-0.18 -0.12,-0.02 -0.24,-0.01 -0.35,0.05 -0.14,0.06 -0.25,0.19 -0.32,0.38 -0.08,0.2 -0.09,0.44 -0.05,0.72 0.05,0.31 0.16,0.54 0.34,0.69 0.08,0.07 0.17,0.12 0.27,0.14 0.1,0.02 0.2,0.02 0.31,-0.01 0.18,-0.05 0.32,-0.14 0.41,-0.29 0.09,-0.14 0.11,-0.28 0.07,-0.44zm1.59 -0.2c-0.01,0.03 -0.03,0.06 -0.05,0.08 -0.03,0.02 -0.05,0.03 -0.08,0.03 0.03,-0.01 0.05,-0.03 0.07,-0.05 0.02,-0.02 0.03,-0.04 0.04,-0.07 0.01,-0.02 0.01,-0.05 0.01,-0.09 -0,-0.03 -0.01,-0.06 -0.02,-0.09 0.02,0.03 0.03,0.05 0.03,0.09 0.01,0.03 0,0.07 -0,0.1zm-0.25 -0.06c-0.01,-0.03 -0.02,-0.05 -0.01,-0.08 0,-0.03 0.01,-0.04 0.03,-0.05 0.02,-0.01 0.04,-0.01 0.06,0 0.02,0.01 0.04,0.03 0.05,0.06 0.01,0.03 0.02,0.05 0.02,0.08 -0,0.03 -0.01,0.05 -0.03,0.05 -0.02,0.01 -0.04,0.01 -0.06,-0 -0.02,-0.01 -0.04,-0.03 -0.05,-0.06zm-0.61 -0.88c-0.03,0.06 -0.04,0.14 -0.06,0.24 -0.01,0.07 -0.01,0.15 -0.01,0.25 -0,-0.04 -0.01,-0.08 -0.01,-0.13 -0,-0.05 0,-0.09 0,-0.13 0.01,-0.09 0.02,-0.17 0.05,-0.24 0.02,-0.04 0.04,-0.08 0.06,-0.11 0.03,-0.03 0.05,-0.06 0.08,-0.09 0.03,-0.03 0.06,-0.05 0.1,-0.06 0.04,-0.02 0.08,-0.03 0.11,-0.04 -0.08,0.03 -0.14,0.07 -0.2,0.12 -0.06,0.06 -0.11,0.12 -0.13,0.19zm0.52 0.36c-0.05,0 -0.09,-0.02 -0.1,-0.07 -0.01,-0.02 -0.01,-0.04 -0.01,-0.07 0,-0.02 0.01,-0.04 0.02,-0.06 0.03,-0.04 0.08,-0.07 0.14,-0.09 0.02,-0.01 0.05,-0.02 0.08,-0.02l0.04 -0.01 0.04 -0.01c0.06,-0.02 0.11,-0.04 0.14,-0.06 0.04,-0.03 0.06,-0.07 0.05,-0.13 -0,-0.08 -0.04,-0.15 -0.12,-0.2 -0.07,-0.05 -0.16,-0.08 -0.27,-0.08 -0.11,-0.01 -0.22,0.01 -0.32,0.06 -0.11,0.05 -0.2,0.12 -0.27,0.22 -0.06,0.09 -0.11,0.22 -0.12,0.38 -0.02,0.16 -0.01,0.32 0.03,0.49 0.03,0.18 0.09,0.33 0.17,0.47 0.08,0.15 0.18,0.25 0.29,0.3 0.1,0.05 0.2,0.07 0.3,0.08 0.1,0 0.2,-0.02 0.28,-0.07 0.09,-0.05 0.16,-0.11 0.21,-0.19 0.06,-0.09 0.09,-0.19 0.09,-0.3 0,-0.08 -0,-0.16 -0.03,-0.24 -0.03,-0.08 -0.06,-0.16 -0.12,-0.22 -0.13,-0.14 -0.31,-0.2 -0.55,-0.18zm1.79 -0.95c-0.01,0.02 -0.03,0.04 -0.04,0.07 -0.02,0.04 -0.04,0.09 -0.06,0.16l-0.01 0.04 -0.01 0.04c-0.01,0.03 -0.02,0.06 -0.03,0.08 -0.02,0.03 -0.03,0.06 -0.04,0.08 -0.02,0.03 -0.04,0.04 -0.07,0.05 0.02,-0.02 0.04,-0.04 0.05,-0.06 0.01,-0.02 0.02,-0.04 0.03,-0.08 0.01,-0.02 0.02,-0.05 0.03,-0.08l0.03 -0.08c0.02,-0.07 0.05,-0.12 0.07,-0.16 0.02,-0.03 0.03,-0.05 0.05,-0.07 0.02,-0.03 0.05,-0.04 0.07,-0.04 -0.02,0.01 -0.04,0.03 -0.06,0.05zm-0.62 1.38c-0.02,0.02 -0.03,0.04 -0.04,0.05 -0.03,0.04 -0.06,0.07 -0.08,0.11 -0.01,0.02 -0.02,0.04 -0.02,0.06 -0,0.02 -0.01,0.04 -0.01,0.07 -0,-0.02 -0.01,-0.05 -0,-0.07 0,-0.02 0.01,-0.05 0.02,-0.07 0.01,-0.04 0.04,-0.07 0.08,-0.12 0.02,-0.03 0.06,-0.06 0.09,-0.09l0.03 -0.02 0.02 -0.02c0.02,-0.02 0.04,-0.03 0.05,-0.05 -0.02,0.03 -0.05,0.07 -0.08,0.11l-0.05 0.05zm-0.4 -1.09c-0.01,0.02 -0.02,0.04 -0.02,0.07 -0,0.02 -0,0.05 0,0.08 -0.01,-0.02 -0.02,-0.05 -0.02,-0.08 -0,-0.03 0,-0.06 0.02,-0.08 0.01,-0.03 0.03,-0.05 0.05,-0.06 0.02,-0.02 0.05,-0.02 0.07,-0.02 -0.05,0.02 -0.08,0.05 -0.1,0.1zm1.06 -0.45c-0.05,0.01 -0.1,0.04 -0.14,0.1 -0.03,0.04 -0.06,0.11 -0.1,0.19l-0.02 0.05 -0.01 0.03 -0.01 0.02c-0.01,0.04 -0.03,0.07 -0.03,0.09 -0.02,0.06 -0.04,0.09 -0.06,0.09 -0.02,0 -0.07,-0.03 -0.14,-0.09l-0.01 -0.01 -0.01 -0.01c-0.01,-0.01 -0.02,-0.02 -0.03,-0.02 -0.02,-0.02 -0.04,-0.04 -0.06,-0.05 -0.05,-0.04 -0.1,-0.07 -0.14,-0.1 -0.07,-0.05 -0.14,-0.06 -0.21,-0.05 -0.06,0.01 -0.11,0.04 -0.15,0.09 -0.04,0.05 -0.06,0.11 -0.06,0.18 0,0.07 0.03,0.15 0.08,0.21 0.04,0.05 0.09,0.1 0.15,0.15 0.02,0.02 0.05,0.04 0.08,0.06l0.04 0.03 0.04 0.03c0.07,0.05 0.12,0.08 0.14,0.11 0.04,0.04 0.07,0.07 0.07,0.1 0.01,0.03 -0.01,0.07 -0.04,0.12 -0.01,0.02 -0.03,0.04 -0.06,0.06l-0.02 0.02 -0.02 0.02 -0.04 0.03c-0.06,0.06 -0.1,0.11 -0.12,0.16 -0.04,0.07 -0.05,0.14 -0.04,0.22 0.01,0.06 0.03,0.11 0.06,0.16 0.03,0.05 0.07,0.08 0.12,0.1 0.11,0.05 0.23,0.04 0.36,-0.02 0.18,-0.09 0.34,-0.3 0.48,-0.62 0.13,-0.29 0.19,-0.56 0.2,-0.8 0.01,-0.25 -0.02,-0.43 -0.08,-0.54 -0.05,-0.09 -0.13,-0.13 -0.23,-0.11zm1.27 0.24c-0.03,0.05 -0.05,0.1 -0.08,0.13 -0.04,0.05 -0.07,0.08 -0.11,0.11 0.03,-0.03 0.06,-0.07 0.09,-0.12 0.03,-0.04 0.05,-0.09 0.08,-0.13 0.01,-0.02 0.02,-0.05 0.03,-0.07l0.01 -0.02 0.01 -0.02c0.01,-0.02 0.01,-0.03 0.02,-0.04 0.01,-0.02 0.03,-0.04 0.05,-0.06 0.02,-0.02 0.05,-0.03 0.07,-0.03 -0.04,0.01 -0.08,0.04 -0.1,0.1 -0,0.01 -0.01,0.02 -0.02,0.04l-0.01 0.02 -0.01 0.02c-0.01,0.02 -0.02,0.04 -0.03,0.07zm-0.55 -0.22c-0.02,0.01 -0.03,0.03 -0.04,0.06 -0.02,0.03 -0.03,0.08 -0.04,0.13 -0.01,0.03 -0.02,0.08 -0.02,0.14l-0.01 0.07 -0.01 0.07c-0,-0.06 -0.01,-0.11 -0,-0.15 0,-0.05 0.01,-0.1 0.02,-0.15 0.01,-0.06 0.03,-0.11 0.05,-0.14 0.01,-0.02 0.03,-0.04 0.05,-0.05 0.02,-0.02 0.04,-0.02 0.07,-0.03 -0.02,0.01 -0.04,0.02 -0.06,0.04zm0.7 0.71c-0.04,-0.01 -0.05,-0.03 -0.03,-0.05 0.01,-0.01 0.02,-0.02 0.04,-0.03l0.01 -0.01 0.01 -0.01c0.01,-0.01 0.02,-0.02 0.03,-0.02 0.06,-0.04 0.1,-0.09 0.14,-0.14 0.05,-0.07 0.08,-0.14 0.09,-0.23 0.01,-0.08 -0,-0.15 -0.04,-0.21 -0.03,-0.06 -0.08,-0.1 -0.14,-0.12 -0.06,-0.02 -0.12,-0.02 -0.17,0.01 -0.06,0.03 -0.11,0.09 -0.14,0.17 -0.06,0.14 -0.12,0.24 -0.18,0.3 -0.02,0.02 -0.04,0.03 -0.05,0.03 -0.01,-0.01 -0.01,-0.03 -0,-0.07 0.04,-0.15 0.04,-0.26 0,-0.35 -0.03,-0.07 -0.08,-0.11 -0.16,-0.11 -0.15,-0.01 -0.25,0.08 -0.3,0.29 -0.04,0.17 -0.04,0.4 -0.01,0.7 0.03,0.3 0.08,0.54 0.15,0.71 0.09,0.21 0.2,0.31 0.34,0.28 0.12,-0.02 0.18,-0.14 0.17,-0.33 -0,-0.07 -0.02,-0.14 -0.03,-0.22 -0.01,-0.03 -0.01,-0.06 -0.02,-0.08 -0,-0.01 -0.01,-0.02 -0.01,-0.03l-0 -0.01 -0 -0.01 -0 -0c-0.01,-0.02 -0.01,-0.04 0,-0.05 0.01,-0.01 0.02,-0.01 0.04,0 0.05,0.04 0.11,0.13 0.18,0.3 0.04,0.1 0.1,0.19 0.16,0.25 0.06,0.06 0.12,0.09 0.18,0.1 0.06,0.01 0.11,0 0.17,-0.03 0.05,-0.03 0.09,-0.08 0.12,-0.15 0.03,-0.07 0.04,-0.15 0.03,-0.24 -0.01,-0.08 -0.04,-0.16 -0.09,-0.24 -0.1,-0.17 -0.26,-0.29 -0.47,-0.37zm1.56 0.18c-0.01,0.03 -0.03,0.06 -0.05,0.08 -0.02,0.02 -0.05,0.03 -0.08,0.03 0.03,-0.01 0.05,-0.03 0.07,-0.04 0.02,-0.02 0.03,-0.05 0.04,-0.07 0.01,-0.05 0.01,-0.11 -0.02,-0.18 0.02,0.02 0.03,0.05 0.04,0.09 0.01,0.03 0.01,0.07 -0,0.1zm-0.25 -0.04c-0.02,-0.02 -0.03,-0.05 -0.03,-0.08 -0,-0.03 0.01,-0.05 0.02,-0.06 0.02,-0.01 0.04,-0.02 0.06,-0.01 0.03,0.01 0.05,0.02 0.07,0.05 0.02,0.02 0.03,0.05 0.03,0.08 0,0.03 -0,0.05 -0.02,0.06 -0.02,0.01 -0.04,0.02 -0.06,0.01 -0.02,-0.01 -0.05,-0.02 -0.07,-0.05zm-0.21 -0.56c0.02,-0.01 0.04,-0.02 0.05,-0.03 0.02,-0.02 0.03,-0.03 0.04,-0.05 0.01,-0.02 0.02,-0.04 0.03,-0.06 0.01,-0.02 0.01,-0.04 0.02,-0.06 0.01,0.05 0,0.09 -0.02,0.14 -0.01,0.02 -0.03,0.04 -0.05,0.05 -0.02,0.01 -0.04,0.02 -0.06,0.02zm-0.06 -0.2c0.01,-0.02 0.02,-0.04 0.03,-0.04 0.01,-0.01 0.03,-0.01 0.04,-0.01 0.01,0.01 0.02,0.02 0.03,0.03 0,0.02 0,0.04 -0,0.05 -0.01,0.02 -0.02,0.04 -0.03,0.04 -0.01,0.01 -0.03,0.01 -0.04,0.01 -0.01,-0.01 -0.02,-0.02 -0.03,-0.03 -0,-0.02 -0,-0.04 0,-0.05zm-0.26 -0.21c-0.02,0.03 -0.03,0.06 -0.05,0.09 -0.02,0.06 -0.04,0.13 -0.06,0.21 -0.01,0.06 -0.02,0.14 -0.03,0.22 -0,-0.07 -0,-0.15 0.01,-0.22 0.01,-0.08 0.03,-0.15 0.06,-0.22 0.03,-0.08 0.07,-0.14 0.12,-0.18 0.03,-0.03 0.06,-0.05 0.09,-0.06 0.03,-0.01 0.07,-0.02 0.1,-0.03 -0.07,0.02 -0.13,0.05 -0.17,0.1 -0.03,0.03 -0.05,0.05 -0.06,0.08zm0.63 0.44c-0.02,-0 -0.02,-0.02 -0.02,-0.04 0,-0.01 0.01,-0.02 0.01,-0.04l0 -0.01 0 -0.01c0,-0.01 0.01,-0.02 0.01,-0.03 0.01,-0.05 0.02,-0.1 0.02,-0.15 0,-0.07 -0.01,-0.14 -0.03,-0.2 -0.02,-0.08 -0.08,-0.14 -0.15,-0.18 -0.08,-0.04 -0.16,-0.06 -0.26,-0.05 -0.1,0.01 -0.19,0.06 -0.26,0.14 -0.08,0.09 -0.14,0.21 -0.17,0.37 -0.03,0.17 -0.04,0.34 -0.01,0.53 0.03,0.19 0.08,0.36 0.15,0.51 0.08,0.16 0.19,0.28 0.31,0.35 0.14,0.08 0.29,0.1 0.46,0.06 0.16,-0.04 0.28,-0.12 0.36,-0.24 0.07,-0.11 0.1,-0.23 0.09,-0.38 -0.01,-0.14 -0.07,-0.27 -0.16,-0.38 -0.1,-0.12 -0.23,-0.2 -0.38,-0.24zm1.52 0.36c-0.01,0.03 -0.03,0.05 -0.05,0.06 -0.02,0.02 -0.05,0.03 -0.07,0.03 0.04,-0.03 0.08,-0.06 0.1,-0.11 0.02,-0.04 0.03,-0.09 0.03,-0.15 0.02,0.06 0.02,0.11 -0.01,0.16zm-0.29 -0.1c-0.01,-0.03 -0.01,-0.07 -0,-0.1 0.01,-0.03 0.03,-0.05 0.06,-0.06 0.03,-0.01 0.05,-0 0.08,0.01 0.03,0.02 0.04,0.04 0.06,0.08 0.01,0.03 0.01,0.07 0,0.1 -0.01,0.03 -0.03,0.05 -0.06,0.06 -0.03,0.01 -0.05,0 -0.08,-0.01 -0.03,-0.02 -0.04,-0.04 -0.06,-0.08zm-0.24 -1.05c-0.06,0.04 -0.11,0.09 -0.16,0.15 -0.04,0.05 -0.07,0.12 -0.1,0.2l-0.01 0.03 -0.01 0.03 -0.02 0.06 -0.01 0.06 -0.01 0.06c0,-0.08 0.01,-0.16 0.04,-0.23 0.02,-0.08 0.06,-0.15 0.1,-0.21 0.05,-0.07 0.1,-0.12 0.17,-0.15 0.03,-0.02 0.06,-0.03 0.1,-0.04l0.03 -0.01 0.03 -0.01 0.05 -0.01c-0.08,0.02 -0.14,0.05 -0.2,0.08zm0.41 -0.2c-0.27,-0.03 -0.49,0.05 -0.64,0.25 -0.13,0.17 -0.19,0.39 -0.19,0.67 0.01,0.27 0.07,0.5 0.2,0.71 0.14,0.22 0.32,0.35 0.53,0.38 0.2,0.03 0.38,-0.06 0.52,-0.25 0.13,-0.18 0.21,-0.4 0.23,-0.67 0.03,-0.27 -0.01,-0.51 -0.12,-0.71 -0.12,-0.22 -0.3,-0.35 -0.55,-0.37zm1.68 -0.08c-0.02,0.03 -0.04,0.07 -0.05,0.11 -0.03,0.08 -0.05,0.15 -0.07,0.24l-0.01 0.06 -0.01 0.06c-0.01,0.06 -0.02,0.1 -0.02,0.12 -0.01,0.05 -0.03,0.09 -0.04,0.12 -0.01,0.02 -0.03,0.04 -0.04,0.05 -0.02,0.01 -0.03,0.02 -0.06,0.02 0.02,-0 0.04,-0.01 0.05,-0.02 0.01,-0.01 0.03,-0.03 0.04,-0.05 0.01,-0.03 0.02,-0.06 0.03,-0.12l0.01 -0.06 0.01 -0.06c0.01,-0.05 0.01,-0.09 0.02,-0.13 0.02,-0.09 0.04,-0.17 0.07,-0.24 0.04,-0.09 0.09,-0.16 0.14,-0.2 -0.03,0.03 -0.05,0.06 -0.07,0.1zm-0.79 0.46c-0,0.06 -0,0.13 0,0.21l0 0.1 0.01 0.1c-0.04,-0.2 -0.05,-0.38 -0.02,-0.55 0.01,-0.03 0.01,-0.06 0.02,-0.09 0.01,-0.04 0.02,-0.07 0.03,-0.09 0.03,-0.07 0.07,-0.11 0.13,-0.11 -0.06,0.02 -0.11,0.08 -0.13,0.18 -0.01,0.04 -0.02,0.08 -0.02,0.13 -0,0.02 -0,0.04 -0,0.06l-0 0.03 -0 0.01 -0 0.01zm1.09 -0.69c-0.12,-0.05 -0.22,-0.03 -0.31,0.07 -0.08,0.08 -0.14,0.2 -0.18,0.35 -0.01,0.05 -0.03,0.11 -0.04,0.17 -0,0.02 -0.01,0.05 -0.01,0.08l-0.01 0.04 -0 0.02 -0 0.02c-0.01,0.05 -0.01,0.09 -0.02,0.11 -0.01,0.03 -0.02,0.04 -0.03,0.04 -0.02,0 -0.04,-0.01 -0.04,-0.05 -0.01,-0.03 -0.01,-0.11 -0.01,-0.22 -0.01,-0.21 -0.04,-0.35 -0.11,-0.42 -0.05,-0.06 -0.12,-0.08 -0.21,-0.05 -0.11,0.03 -0.18,0.16 -0.21,0.38 -0.03,0.21 -0.02,0.46 0.04,0.75 0.1,0.53 0.29,0.79 0.57,0.79 0.08,-0 0.16,-0.04 0.23,-0.1 0.07,-0.06 0.12,-0.14 0.16,-0.24 0.03,-0.08 0.06,-0.16 0.08,-0.23 0.01,-0.03 0.01,-0.05 0.02,-0.08 0,-0.02 0.01,-0.04 0.01,-0.06 0.01,-0.04 0.01,-0.06 0.02,-0.07 0,-0.01 0.01,-0.01 0.02,-0.01 0.01,0 0.02,0.04 0.02,0.12l0 0.03 0 0.03c0,0.02 0,0.04 0,0.06 0,0.05 0.01,0.09 0.01,0.13 0.03,0.23 0.12,0.33 0.28,0.3 0.1,-0.02 0.16,-0.12 0.19,-0.31 0.02,-0.17 0.01,-0.38 -0.03,-0.62 -0.04,-0.24 -0.1,-0.46 -0.18,-0.64 -0.08,-0.2 -0.17,-0.32 -0.27,-0.37zm-0.72 -0.12c0.04,-0.01 0.08,-0.03 0.11,-0.05 0.04,-0.02 0.07,-0.05 0.09,-0.08 0.01,-0.01 0.01,-0.02 0.02,-0.03l0.02 -0.03 0.01 -0.01c0,-0.01 0.01,-0.01 0.01,-0.01 0,-0 0.01,-0.01 0.02,-0.01l0.01 -0 0.01 -0 -0.01 0 -0.01 0c-0,0 -0.01,0.01 -0.01,0.01 -0,0 -0.01,0.01 -0.01,0.01l-0.01 0.02c-0.01,0.03 -0.02,0.05 -0.03,0.06 -0.01,0.02 -0.03,0.03 -0.04,0.05 -0.01,0.01 -0.03,0.03 -0.05,0.04 -0.04,0.02 -0.08,0.04 -0.12,0.04l-0.03 0.01 -0.03 0c-0.03,0 -0.05,0.01 -0.06,0.02 0.01,-0.01 0.01,-0.02 0.03,-0.02l0.01 -0.01 0.01 -0.01 0.06 -0.02zm0.46 -0.17c-0.01,-0.06 -0.04,-0.1 -0.08,-0.13 -0.04,-0.03 -0.09,-0.03 -0.14,-0.01 -0.03,0.01 -0.06,0.04 -0.08,0.08l-0.01 0.02c-0.01,0.01 -0.01,0.02 -0.01,0.02 -0.01,0.02 -0.03,0.03 -0.04,0.04 -0.02,0.02 -0.05,0.03 -0.08,0.04 -0.01,0 -0.02,0.01 -0.04,0.01l-0.02 0 -0.02 0c-0.06,0.01 -0.1,0.03 -0.13,0.06 -0.03,0.03 -0.04,0.06 -0.03,0.1 0,0.03 0.02,0.07 0.04,0.1 0.04,0.05 0.09,0.08 0.17,0.08 0.07,0 0.15,-0.01 0.23,-0.05 0.08,-0.04 0.14,-0.09 0.19,-0.15 0.05,-0.07 0.07,-0.15 0.05,-0.23z"/>
  <path class="fil0" d="M4.1 9.94c-0.01,0.01 -0.02,0.02 -0.03,0.04 -0.01,0.02 -0.02,0.05 -0.02,0.09 -0,0.05 0.01,0.12 0.02,0.2l0 0.02 0 0.03c0,0.02 0.01,0.04 0.01,0.05 0,0.04 -0,0.07 -0.01,0.11 -0.01,0.04 -0.02,0.07 -0.04,0.09 -0.02,0.03 -0.05,0.05 -0.07,0.06 0.05,-0.04 0.09,-0.09 0.1,-0.16 0,-0.03 0.01,-0.07 0,-0.1 -0,-0.01 -0,-0.03 -0.01,-0.05l-0.01 -0.02 -0 -0.03c-0.01,-0.08 -0.02,-0.15 -0.02,-0.2 0,-0.04 0.01,-0.08 0.03,-0.1 0.01,-0.02 0.02,-0.03 0.04,-0.03 0.01,-0.01 0.03,-0.01 0.04,-0.01 -0.02,0.01 -0.03,0.01 -0.04,0.02zm-0.85 0.17c-0.02,0.04 -0.04,0.08 -0.05,0.14 -0.01,0.04 -0.01,0.1 -0.02,0.15l-0 0.08 -0 0.08c-0.01,-0.1 -0.01,-0.21 0,-0.31 0.01,-0.06 0.03,-0.11 0.06,-0.15 0.02,-0.02 0.03,-0.04 0.06,-0.05 0.02,-0.01 0.05,-0.02 0.07,-0.02 -0.04,0.01 -0.08,0.04 -0.11,0.09zm0.87 -0.3c-0.09,0.02 -0.14,0.07 -0.16,0.16 -0.02,0.08 -0.02,0.2 0.01,0.36 0.01,0.07 0.01,0.12 -0.02,0.16 -0.02,0.04 -0.05,0.05 -0.09,0.06 -0.04,0 -0.08,-0.01 -0.1,-0.04 -0.03,-0.03 -0.04,-0.08 -0.05,-0.14 -0.01,-0.17 -0.04,-0.29 -0.1,-0.36 -0.05,-0.07 -0.13,-0.1 -0.23,-0.1 -0.08,-0 -0.14,0.03 -0.2,0.09 -0.05,0.06 -0.08,0.13 -0.1,0.23 -0.03,0.18 -0.02,0.39 0.02,0.63 0.03,0.23 0.09,0.44 0.17,0.64 0.06,0.15 0.13,0.25 0.21,0.3 0.07,0.04 0.14,0.06 0.21,0.03 0.16,-0.05 0.21,-0.19 0.16,-0.43 -0.04,-0.17 -0.02,-0.26 0.06,-0.27 0.04,-0.01 0.07,0 0.1,0.03 0.03,0.04 0.06,0.1 0.07,0.19 0.02,0.15 0.06,0.27 0.12,0.34 0.06,0.07 0.13,0.09 0.22,0.08 0.15,-0.02 0.24,-0.14 0.27,-0.36 0.02,-0.16 0.01,-0.4 -0.04,-0.75 -0.03,-0.26 -0.1,-0.48 -0.2,-0.64 -0.1,-0.17 -0.21,-0.24 -0.33,-0.22zm1.59 0.98c-0.02,0.02 -0.03,0.03 -0.05,0.04 -0.02,0.01 -0.04,0.01 -0.06,0.01 0.04,-0.02 0.07,-0.04 0.09,-0.07 0.02,-0.02 0.04,-0.06 0.06,-0.1 0,0.05 -0.01,0.09 -0.04,0.12zm-0.15 -0.06c-0.02,-0.01 -0.04,-0.02 -0.05,-0.05 -0.01,-0.02 -0.01,-0.05 -0.01,-0.08 0.01,-0.03 0.02,-0.05 0.04,-0.07 0.02,-0.02 0.04,-0.02 0.06,-0.02 0.02,0 0.04,0.02 0.05,0.04 0.01,0.02 0.01,0.05 0.01,0.08 -0.01,0.03 -0.02,0.05 -0.04,0.07 -0.02,0.02 -0.04,0.02 -0.06,0.02zm-0.33 -0.71c-0.02,0.05 -0.05,0.12 -0.09,0.21 -0.01,0.03 -0.02,0.07 -0.04,0.11l-0.04 0.11c0.01,-0.07 0.03,-0.15 0.06,-0.23 0.02,-0.07 0.05,-0.14 0.08,-0.22 0.04,-0.08 0.08,-0.15 0.11,-0.2l0.02 -0.02c0.01,-0.01 0.01,-0.02 0.02,-0.02l0.02 -0.02 0.02 -0.02c0.04,-0.03 0.07,-0.05 0.1,-0.05 -0.03,0.01 -0.06,0.03 -0.09,0.06l-0.02 0.02 -0.02 0.02c-0,0.01 -0.01,0.01 -0.02,0.02l-0.02 0.02c-0.04,0.06 -0.07,0.12 -0.11,0.2zm0.27 -0.46c-0.11,-0 -0.22,0.1 -0.33,0.31 -0.1,0.19 -0.17,0.42 -0.23,0.69 -0.06,0.27 -0.08,0.51 -0.06,0.71 0.02,0.22 0.08,0.34 0.18,0.37 0.08,0.02 0.15,0.01 0.21,-0.04 0.05,-0.03 0.09,-0.09 0.14,-0.16 0.01,-0.01 0.02,-0.03 0.03,-0.05l0.03 -0.05c0.02,-0.04 0.04,-0.07 0.05,-0.09 0.04,-0.06 0.07,-0.09 0.1,-0.1 0.03,-0.01 0.08,0.01 0.13,0.05 0.02,0.01 0.04,0.03 0.08,0.06l0.04 0.03 0.04 0.03c0.07,0.05 0.13,0.09 0.18,0.1 0.07,0.02 0.13,0.01 0.19,-0.03 0.07,-0.05 0.09,-0.17 0.07,-0.37 -0.02,-0.19 -0.07,-0.4 -0.16,-0.63 -0.09,-0.24 -0.19,-0.44 -0.3,-0.59 -0.13,-0.17 -0.25,-0.26 -0.36,-0.26zm2.4 -0.24c-0.01,0.02 -0.03,0.04 -0.04,0.07 -0.02,0.04 -0.04,0.09 -0.06,0.16l-0.01 0.04 -0.01 0.04c-0.01,0.03 -0.02,0.06 -0.03,0.08 -0.02,0.03 -0.03,0.06 -0.04,0.08 -0.02,0.03 -0.04,0.04 -0.06,0.05 0.02,-0.01 0.04,-0.04 0.05,-0.06 0.01,-0.02 0.02,-0.04 0.03,-0.08 0.01,-0.02 0.02,-0.05 0.03,-0.08l0.03 -0.08c0.02,-0.07 0.05,-0.12 0.07,-0.16 0.02,-0.03 0.03,-0.05 0.05,-0.07 0.02,-0.03 0.05,-0.04 0.07,-0.04 -0.02,0.01 -0.04,0.03 -0.06,0.05zm-0.62 1.38c-0.02,0.02 -0.03,0.04 -0.04,0.05 -0.03,0.04 -0.06,0.07 -0.08,0.11 -0.01,0.02 -0.02,0.04 -0.02,0.06 -0,0.02 -0.01,0.04 -0.01,0.07 -0,-0.02 -0.01,-0.05 -0,-0.07 0,-0.02 0.01,-0.05 0.02,-0.07 0.01,-0.04 0.04,-0.07 0.08,-0.12 0.02,-0.03 0.06,-0.06 0.09,-0.09l0.03 -0.02 0.02 -0.02c0.02,-0.02 0.03,-0.03 0.05,-0.05 -0.02,0.03 -0.05,0.07 -0.08,0.11l-0.04 0.05zm-0.4 -1.09c-0.01,0.02 -0.02,0.04 -0.02,0.07 -0,0.02 -0,0.05 0,0.08 -0.01,-0.02 -0.02,-0.05 -0.02,-0.08 -0,-0.03 0,-0.06 0.02,-0.08 0.01,-0.03 0.03,-0.05 0.05,-0.06 0.02,-0.02 0.05,-0.02 0.07,-0.02 -0.05,0.02 -0.08,0.05 -0.1,0.1zm1.06 -0.45c-0.05,0.01 -0.1,0.04 -0.14,0.1 -0.03,0.04 -0.06,0.11 -0.1,0.19l-0.02 0.05 -0.01 0.03 -0.01 0.02c-0.01,0.04 -0.03,0.07 -0.03,0.09 -0.02,0.06 -0.04,0.09 -0.06,0.09 -0.02,0 -0.07,-0.03 -0.14,-0.09l-0.01 -0.01 -0.01 -0.01c-0.01,-0.01 -0.02,-0.02 -0.03,-0.02 -0.02,-0.02 -0.04,-0.04 -0.06,-0.05 -0.05,-0.04 -0.1,-0.07 -0.14,-0.1 -0.07,-0.05 -0.14,-0.06 -0.21,-0.05 -0.06,0.01 -0.11,0.04 -0.15,0.09 -0.04,0.05 -0.06,0.11 -0.06,0.18 0,0.08 0.03,0.15 0.08,0.21 0.04,0.05 0.09,0.1 0.15,0.15 0.02,0.02 0.05,0.04 0.08,0.06l0.04 0.03 0.04 0.03c0.07,0.05 0.12,0.08 0.14,0.11 0.04,0.04 0.07,0.07 0.07,0.1 0.01,0.03 -0.01,0.07 -0.04,0.12 -0.01,0.02 -0.03,0.04 -0.06,0.06l-0.02 0.02 -0.02 0.02 -0.04 0.03c-0.06,0.06 -0.1,0.11 -0.12,0.16 -0.04,0.07 -0.05,0.14 -0.04,0.22 0.01,0.06 0.03,0.11 0.06,0.16 0.03,0.05 0.07,0.08 0.12,0.1 0.11,0.05 0.23,0.05 0.36,-0.02 0.18,-0.09 0.34,-0.3 0.48,-0.62 0.13,-0.29 0.19,-0.56 0.2,-0.8 0.01,-0.25 -0.02,-0.43 -0.08,-0.54 -0.05,-0.09 -0.13,-0.13 -0.23,-0.11zm1.81 1.04c-0,0.03 -0.01,0.06 -0.03,0.09 -0.02,0.02 -0.04,0.04 -0.07,0.05 -0.03,0.01 -0.05,0.01 -0.08,0.01 0.03,-0.01 0.06,-0.02 0.07,-0.03 0.03,-0.01 0.05,-0.03 0.06,-0.05 0.02,-0.02 0.03,-0.04 0.03,-0.07 0,-0.02 0.01,-0.05 0.01,-0.09 0.01,0.03 0.02,0.06 0.01,0.09zm-0.33 0.02c-0.02,-0.03 -0.02,-0.08 -0.01,-0.16 0.02,-0.08 0.04,-0.12 0.08,-0.12 0.04,-0.01 0.08,0.03 0.12,0.1 0.02,0.03 0.03,0.06 0.03,0.09 0.01,0.03 0.01,0.05 0,0.07 -0.01,0.02 -0.04,0.04 -0.1,0.05 -0.06,0.01 -0.1,-0 -0.12,-0.03zm-0.32 -0.87c-0.03,0.06 -0.05,0.13 -0.07,0.2 -0.01,0.06 -0.03,0.13 -0.05,0.21 0,-0.07 0.01,-0.14 0.03,-0.22 0.01,-0.07 0.04,-0.14 0.06,-0.21 0.03,-0.08 0.07,-0.14 0.11,-0.19 0.02,-0.03 0.05,-0.05 0.08,-0.07 0.03,-0.02 0.06,-0.03 0.09,-0.04 -0.06,0.02 -0.11,0.06 -0.16,0.12 -0.04,0.05 -0.07,0.11 -0.1,0.18zm-0.39 1.18c-0.02,0.01 -0.03,0.03 -0.04,0.04 -0.01,0.02 -0.02,0.04 -0.02,0.06 -0.01,-0.02 -0,-0.05 0.01,-0.07 0.01,-0.02 0.02,-0.03 0.04,-0.05 0.04,-0.03 0.07,-0.05 0.12,-0.05l-0.03 0.02 -0.03 0.02c-0.02,0.01 -0.04,0.03 -0.05,0.04zm1.52 -0.42c-0.04,-0 -0.06,-0.02 -0.08,-0.03 -0.02,-0.02 -0.03,-0.04 -0.04,-0.07 -0.01,-0.02 -0.02,-0.06 -0.03,-0.12 -0.01,-0.03 -0.01,-0.06 -0.02,-0.08 -0.01,-0.03 -0.02,-0.07 -0.03,-0.1 -0.08,-0.27 -0.18,-0.47 -0.31,-0.6 -0.12,-0.12 -0.24,-0.18 -0.37,-0.16 -0.11,0.02 -0.21,0.1 -0.3,0.25 -0.09,0.15 -0.14,0.34 -0.17,0.56 -0.01,0.09 -0.01,0.18 -0.01,0.27 -0,0.02 -0,0.03 0,0.05l0 0.02 -0 0.02c0,0.04 0,0.06 0,0.08 -0,0.05 -0.01,0.08 -0.02,0.1 -0.01,0.02 -0.04,0.05 -0.08,0.06 -0.11,0.04 -0.18,0.1 -0.21,0.17 -0.03,0.06 -0.03,0.13 0,0.21 0.05,0.11 0.18,0.18 0.39,0.21 0.19,0.03 0.42,0.02 0.69,-0.01 0.25,-0.03 0.43,-0.07 0.56,-0.12 0.19,-0.07 0.3,-0.16 0.34,-0.27 0.04,-0.11 0.02,-0.2 -0.04,-0.28 -0.06,-0.08 -0.15,-0.12 -0.28,-0.14zm1.65 -1.44c-0.02,0.02 -0.03,0.04 -0.05,0.07 -0.02,0.04 -0.05,0.1 -0.08,0.17l-0.02 0.04 -0.02 0.04c-0.02,0.03 -0.03,0.06 -0.05,0.08 -0.02,0.03 -0.04,0.05 -0.06,0.07 -0.03,0.02 -0.06,0.03 -0.08,0.03 0.05,-0.01 0.1,-0.05 0.13,-0.11 0.01,-0.02 0.03,-0.05 0.04,-0.08l0.02 -0.04 0.02 -0.04c0.03,-0.07 0.06,-0.13 0.08,-0.17 0.02,-0.03 0.04,-0.05 0.06,-0.07 0.03,-0.02 0.05,-0.03 0.08,-0.03 -0.03,0.01 -0.06,0.02 -0.07,0.04zm-1.01 0.29c-0.02,0.05 -0.04,0.1 -0.06,0.17 -0.01,0.04 -0.03,0.1 -0.04,0.18 -0.01,0.03 -0.01,0.06 -0.02,0.09l-0.01 0.05 -0.01 0.05c0,-0.13 0.02,-0.26 0.05,-0.37 0.02,-0.07 0.04,-0.13 0.07,-0.18 0.02,-0.03 0.04,-0.05 0.06,-0.07 0.02,-0.02 0.05,-0.03 0.08,-0.04 -0.05,0.01 -0.09,0.05 -0.12,0.12zm1.67 0.43c-0.05,-0.27 -0.14,-0.49 -0.25,-0.66 -0.1,-0.15 -0.21,-0.23 -0.31,-0.23 -0.08,0 -0.15,0.04 -0.2,0.1 -0.04,0.05 -0.09,0.14 -0.15,0.28 -0.05,0.12 -0.1,0.18 -0.15,0.17 -0.03,-0 -0.08,-0.04 -0.14,-0.11 -0.07,-0.08 -0.13,-0.14 -0.19,-0.17 -0.07,-0.05 -0.14,-0.06 -0.2,-0.04 -0.17,0.05 -0.28,0.3 -0.32,0.75 -0.02,0.29 -0.01,0.54 0.04,0.76 0.06,0.25 0.15,0.38 0.28,0.39 0.08,0 0.14,-0.02 0.18,-0.09 0.03,-0.05 0.06,-0.13 0.09,-0.22 0.01,-0.03 0.01,-0.07 0.02,-0.12l0.01 -0.03 0 -0.03c0,-0.02 0.01,-0.04 0.01,-0.05 0.01,-0.08 0.03,-0.12 0.05,-0.13 0.01,-0.01 0.03,0 0.05,0.04 0.01,0.01 0.02,0.03 0.03,0.05l0.01 0.01 0.01 0.02 0.02 0.03c0.03,0.05 0.06,0.09 0.09,0.12 0.04,0.03 0.09,0.05 0.14,0.04 0.04,-0 0.07,-0.03 0.1,-0.06 0.02,-0.02 0.04,-0.06 0.06,-0.11l0.01 -0.03 0.01 -0.03c0.01,-0.02 0.02,-0.04 0.02,-0.05 0.02,-0.03 0.04,-0.04 0.06,-0.04 0.02,0.01 0.05,0.04 0.08,0.1 0.01,0.01 0.01,0.03 0.02,0.04l0.01 0.02 0.01 0.02c0.02,0.04 0.04,0.08 0.05,0.1 0.04,0.08 0.09,0.14 0.13,0.18 0.06,0.05 0.12,0.07 0.19,0.06 0.11,-0.01 0.18,-0.13 0.2,-0.33 0.01,-0.18 -0.01,-0.43 -0.08,-0.75zm1.18 -1.02c-0.01,0.02 -0.03,0.04 -0.04,0.07 -0.02,0.04 -0.04,0.09 -0.06,0.16l-0.01 0.04 -0.01 0.04c-0.01,0.03 -0.02,0.06 -0.03,0.08 -0.02,0.03 -0.03,0.06 -0.04,0.08 -0.02,0.03 -0.04,0.04 -0.06,0.05 0.02,-0.01 0.04,-0.04 0.05,-0.06 0.01,-0.02 0.02,-0.04 0.03,-0.08 0.01,-0.02 0.02,-0.05 0.03,-0.08l0.03 -0.08c0.02,-0.07 0.05,-0.12 0.07,-0.16 0.02,-0.03 0.03,-0.05 0.05,-0.07 0.02,-0.03 0.05,-0.04 0.07,-0.04 -0.02,0.01 -0.04,0.03 -0.06,0.05zm-0.62 1.38c-0.02,0.02 -0.03,0.04 -0.04,0.05 -0.03,0.04 -0.06,0.07 -0.08,0.11 -0.01,0.02 -0.02,0.04 -0.02,0.06 -0,0.02 -0.01,0.04 -0.01,0.07 -0,-0.02 -0.01,-0.05 -0,-0.07 0,-0.02 0.01,-0.05 0.02,-0.07 0.01,-0.04 0.04,-0.07 0.08,-0.12 0.02,-0.03 0.06,-0.06 0.09,-0.09l0.03 -0.02 0.02 -0.02c0.02,-0.02 0.03,-0.03 0.05,-0.05 -0.02,0.03 -0.05,0.07 -0.08,0.11l-0.05 0.05zm-0.4 -1.09c-0.01,0.02 -0.02,0.04 -0.02,0.07 -0,0.02 -0,0.05 0,0.08 -0.01,-0.02 -0.02,-0.05 -0.02,-0.08 -0,-0.03 0,-0.06 0.01,-0.08 0.01,-0.03 0.03,-0.05 0.05,-0.06 0.02,-0.02 0.05,-0.02 0.07,-0.02 -0.05,0.02 -0.08,0.05 -0.1,0.1zm1.06 -0.45c-0.05,0.01 -0.1,0.04 -0.14,0.1 -0.03,0.04 -0.06,0.11 -0.1,0.19l-0.02 0.05 -0.01 0.03 -0.01 0.02c-0.01,0.04 -0.03,0.07 -0.03,0.09 -0.02,0.06 -0.04,0.09 -0.06,0.09 -0.02,0 -0.07,-0.03 -0.14,-0.09l-0.01 -0.01 -0.01 -0.01c-0.01,-0.01 -0.02,-0.02 -0.03,-0.02 -0.02,-0.02 -0.04,-0.04 -0.06,-0.05 -0.05,-0.04 -0.1,-0.07 -0.14,-0.1 -0.07,-0.05 -0.14,-0.06 -0.21,-0.05 -0.06,0.01 -0.11,0.04 -0.15,0.09 -0.04,0.05 -0.06,0.11 -0.06,0.18 0,0.07 0.03,0.15 0.08,0.21 0.04,0.05 0.09,0.1 0.15,0.15 0.02,0.02 0.05,0.04 0.08,0.06l0.04 0.03 0.04 0.03c0.07,0.05 0.12,0.08 0.14,0.11 0.04,0.04 0.07,0.07 0.07,0.1 0.01,0.03 -0.01,0.07 -0.04,0.12 -0.01,0.02 -0.03,0.04 -0.06,0.06l-0.02 0.02 -0.02 0.02 -0.04 0.03c-0.06,0.06 -0.1,0.11 -0.12,0.16 -0.04,0.07 -0.05,0.14 -0.04,0.22 0.01,0.06 0.03,0.11 0.06,0.16 0.03,0.05 0.07,0.08 0.12,0.1 0.11,0.05 0.23,0.04 0.36,-0.02 0.18,-0.09 0.34,-0.3 0.48,-0.62 0.13,-0.29 0.19,-0.56 0.2,-0.8 0.01,-0.25 -0.02,-0.43 -0.08,-0.54 -0.05,-0.09 -0.13,-0.13 -0.23,-0.11zm1.35 0.63c-0.01,0.03 -0.02,0.05 -0.03,0.08 -0.02,0.03 -0.04,0.04 -0.06,0.06 -0.02,0.02 -0.05,0.02 -0.08,0.02 0.02,-0.01 0.05,-0.02 0.06,-0.04 0.02,-0.02 0.04,-0.04 0.05,-0.06 0.03,-0.04 0.04,-0.09 0.05,-0.15 0.01,0.03 0.01,0.05 0,0.08zm-0.25 -0.08c0.01,-0.03 0.02,-0.05 0.04,-0.07 0.02,-0.02 0.04,-0.02 0.06,-0.01 0.02,0.01 0.03,0.02 0.04,0.05 0.01,0.03 0.01,0.05 -0,0.08 -0.01,0.03 -0.02,0.05 -0.04,0.07 -0.02,0.02 -0.04,0.02 -0.06,0.01 -0.02,-0.01 -0.03,-0.02 -0.04,-0.05 -0.01,-0.03 -0.01,-0.05 -0,-0.08zm-0.28 -0.52c-0.05,0.04 -0.1,0.09 -0.13,0.14 -0.03,0.05 -0.06,0.11 -0.08,0.18 -0.01,0.06 -0.02,0.12 -0.03,0.2 -0,-0.03 -0,-0.06 0,-0.1 0,-0.04 0.01,-0.07 0.01,-0.1 0.01,-0.07 0.04,-0.14 0.07,-0.19 0.04,-0.06 0.08,-0.11 0.14,-0.14 0.03,-0.02 0.06,-0.03 0.09,-0.04 0.03,-0.01 0.07,-0.02 0.09,-0.02 -0.07,0.02 -0.13,0.05 -0.17,0.09zm0.21 -0.2c-0.17,0.03 -0.3,0.1 -0.4,0.22 -0.08,0.11 -0.13,0.25 -0.15,0.42 -0.01,0.16 0.01,0.33 0.05,0.51 0.05,0.17 0.11,0.33 0.2,0.47 0.09,0.14 0.17,0.24 0.26,0.3 0.08,0.06 0.15,0.08 0.22,0.08 0.06,-0 0.11,-0.03 0.15,-0.09 0.04,-0.05 0.05,-0.12 0.05,-0.2 -0,-0.05 -0.01,-0.12 -0.03,-0.18 -0.01,-0.02 -0.02,-0.05 -0.03,-0.08l-0.01 -0.04c-0,-0.01 -0.01,-0.03 -0.01,-0.03 -0.02,-0.05 -0.02,-0.09 -0.02,-0.13 0,-0.04 0.03,-0.07 0.06,-0.1 0.13,-0.09 0.21,-0.21 0.26,-0.36 0.05,-0.14 0.05,-0.27 0.01,-0.4 -0.04,-0.14 -0.11,-0.24 -0.22,-0.31 -0.12,-0.08 -0.26,-0.11 -0.42,-0.08zm1.16 -0.05c-0.06,0.02 -0.1,0.04 -0.14,0.06 -0.05,0.03 -0.1,0.05 -0.13,0.08 -0.02,0.02 -0.04,0.04 -0.05,0.06 -0.01,0.02 -0.01,0.05 -0.01,0.08 -0.01,-0.03 -0.01,-0.06 -0,-0.08 0.01,-0.02 0.02,-0.05 0.04,-0.07 0.03,-0.03 0.07,-0.06 0.13,-0.09 0.09,-0.04 0.19,-0.07 0.3,-0.07 -0.05,0.01 -0.1,0.03 -0.15,0.04zm0.22 -0.16c-0.21,0.02 -0.37,0.07 -0.49,0.16 -0.13,0.09 -0.17,0.19 -0.15,0.31 0.02,0.07 0.05,0.11 0.1,0.13 0.04,0.02 0.09,0.02 0.16,0.02l0.04 -0 0.04 -0c0.03,-0 0.06,-0 0.08,-0 0.05,0 0.09,0.02 0.11,0.05 0.01,0.02 0.02,0.14 0.04,0.36 0.01,0.11 0.01,0.21 0.02,0.29 0.01,0.11 0.03,0.21 0.05,0.29 0.03,0.12 0.09,0.22 0.17,0.29 0.08,0.07 0.18,0.09 0.27,0.06 0.18,-0.06 0.21,-0.26 0.1,-0.62 -0.06,-0.19 -0.1,-0.35 -0.12,-0.49 -0.03,-0.15 -0.03,-0.23 -0,-0.26 0.02,-0.02 0.05,-0.03 0.1,-0.04 0.01,-0 0.04,-0.01 0.07,-0.01l0.03 -0 0.03 -0.01c0.06,-0.01 0.1,-0.03 0.13,-0.05 0.04,-0.03 0.06,-0.07 0.07,-0.12 0.01,-0.07 -0.01,-0.12 -0.06,-0.17 -0.04,-0.05 -0.1,-0.09 -0.18,-0.12 -0.16,-0.06 -0.37,-0.08 -0.61,-0.06zm2.17 0.88c-0.01,0.01 -0.01,0.01 -0.02,0.03l-0.01 0.01 -0.01 0.01c-0.02,0.02 -0.04,0.04 -0.06,0.04 -0.02,0.01 -0.05,0.02 -0.07,0.01 0.04,-0.02 0.08,-0.04 0.11,-0.08l0.01 -0.01 0.01 -0.01c0.01,-0.01 0.02,-0.02 0.03,-0.02 0.02,-0.02 0.05,-0.02 0.07,-0.02 -0.02,0.01 -0.04,0.02 -0.06,0.04zm-0.88 -0.8c-0.04,0.06 -0.07,0.12 -0.09,0.19 -0.02,0.06 -0.04,0.13 -0.05,0.22 0,-0.08 0.01,-0.15 0.03,-0.22 0.02,-0.07 0.05,-0.14 0.09,-0.2 0.04,-0.07 0.09,-0.12 0.15,-0.15 0.03,-0.02 0.06,-0.03 0.1,-0.04 0.04,-0.01 0.07,-0.02 0.1,-0.02 -0.07,0.02 -0.14,0.05 -0.19,0.08 -0.06,0.04 -0.1,0.09 -0.14,0.15zm1.19 0.9c-0.03,-0.14 -0.1,-0.22 -0.19,-0.25 -0.04,-0.01 -0.08,-0.01 -0.12,0.01 -0.04,0.02 -0.08,0.04 -0.11,0.08 -0.03,0.04 -0.07,0.06 -0.11,0.06 -0.04,0 -0.08,-0.01 -0.11,-0.04 -0.04,-0.03 -0.07,-0.07 -0.09,-0.12 -0.02,-0.06 -0.04,-0.12 -0.04,-0.19 -0,-0.1 0.03,-0.17 0.11,-0.19 0.05,-0.02 0.13,-0.02 0.24,0.01 0.05,0.01 0.09,0 0.12,-0.02 0.03,-0.02 0.05,-0.06 0.06,-0.1 0.01,-0.05 0.01,-0.1 -0.01,-0.15 -0.02,-0.06 -0.05,-0.11 -0.09,-0.15 -0.1,-0.1 -0.21,-0.16 -0.34,-0.18 -0.12,-0.02 -0.24,-0 -0.35,0.05 -0.14,0.06 -0.25,0.19 -0.32,0.38 -0.08,0.2 -0.09,0.44 -0.05,0.72 0.05,0.31 0.16,0.54 0.34,0.69 0.08,0.07 0.17,0.12 0.27,0.14 0.1,0.02 0.2,0.02 0.31,-0.01 0.18,-0.05 0.32,-0.14 0.41,-0.29 0.09,-0.14 0.11,-0.28 0.07,-0.44zm0.83 -1.08c-0.03,0.05 -0.05,0.1 -0.08,0.13 -0.04,0.05 -0.07,0.08 -0.11,0.11 0.03,-0.03 0.06,-0.07 0.09,-0.12 0.03,-0.04 0.05,-0.09 0.08,-0.13 0.01,-0.02 0.02,-0.05 0.03,-0.07l0.01 -0.02 0.01 -0.02c0.01,-0.02 0.01,-0.03 0.02,-0.04 0.01,-0.02 0.03,-0.04 0.05,-0.06 0.02,-0.02 0.05,-0.03 0.07,-0.03 -0.04,0.01 -0.08,0.04 -0.1,0.1 -0,0.01 -0.01,0.02 -0.02,0.04l-0.01 0.02 -0.01 0.02c-0.01,0.02 -0.02,0.04 -0.03,0.07zm-0.55 -0.22c-0.02,0.01 -0.03,0.03 -0.04,0.06 -0.02,0.03 -0.03,0.08 -0.04,0.13 -0.01,0.03 -0.02,0.08 -0.02,0.14l-0.01 0.07 -0.01 0.07c-0,-0.06 -0.01,-0.11 -0,-0.15 0,-0.05 0.01,-0.1 0.02,-0.15 0.01,-0.06 0.03,-0.11 0.05,-0.14 0.01,-0.02 0.03,-0.04 0.05,-0.05 0.02,-0.02 0.04,-0.02 0.07,-0.03 -0.02,0.01 -0.04,0.02 -0.06,0.04zm0.7 0.71c-0.04,-0.02 -0.05,-0.03 -0.03,-0.05 0.01,-0.01 0.02,-0.02 0.04,-0.03l0.01 -0.01 0.01 -0.01c0.01,-0.01 0.02,-0.02 0.03,-0.02 0.06,-0.04 0.1,-0.09 0.14,-0.14 0.05,-0.07 0.08,-0.14 0.09,-0.23 0.01,-0.08 -0,-0.15 -0.04,-0.21 -0.03,-0.06 -0.08,-0.1 -0.14,-0.12 -0.06,-0.02 -0.12,-0.02 -0.17,0.01 -0.06,0.03 -0.11,0.09 -0.14,0.17 -0.06,0.14 -0.12,0.24 -0.18,0.3 -0.02,0.02 -0.04,0.03 -0.05,0.03 -0.01,-0.01 -0.01,-0.03 -0,-0.07 0.04,-0.15 0.04,-0.26 0,-0.35 -0.03,-0.07 -0.08,-0.11 -0.16,-0.11 -0.15,-0.01 -0.25,0.08 -0.3,0.29 -0.04,0.17 -0.04,0.4 -0.01,0.7 0.03,0.3 0.08,0.54 0.15,0.71 0.09,0.21 0.2,0.31 0.34,0.28 0.12,-0.02 0.18,-0.14 0.17,-0.33 -0,-0.07 -0.02,-0.14 -0.03,-0.22 -0.01,-0.03 -0.02,-0.06 -0.02,-0.08 -0,-0.01 -0.01,-0.02 -0.01,-0.03l-0 -0.01 -0 -0.01 -0 -0c-0.01,-0.02 -0.01,-0.04 0,-0.05 0.01,-0.01 0.02,-0.01 0.04,0 0.05,0.04 0.11,0.13 0.18,0.3 0.04,0.1 0.1,0.19 0.16,0.25 0.06,0.06 0.12,0.09 0.18,0.1 0.06,0.01 0.11,0 0.17,-0.03 0.05,-0.03 0.09,-0.08 0.12,-0.15 0.03,-0.07 0.04,-0.15 0.03,-0.24 -0.01,-0.08 -0.04,-0.16 -0.09,-0.24 -0.1,-0.17 -0.26,-0.29 -0.47,-0.37zm1.51 0.2c-0.01,0.03 -0.03,0.05 -0.05,0.07 -0.02,0.02 -0.05,0.03 -0.07,0.03 0.04,-0.03 0.08,-0.06 0.1,-0.11 0.02,-0.04 0.03,-0.09 0.03,-0.15 0.02,0.06 0.02,0.11 -0.01,0.16zm-0.29 -0.1c-0.01,-0.03 -0.01,-0.07 -0,-0.1 0.01,-0.03 0.03,-0.05 0.06,-0.06 0.03,-0.01 0.05,-0 0.08,0.01 0.03,0.02 0.04,0.04 0.06,0.08 0.01,0.03 0.01,0.07 0,0.1 -0.01,0.03 -0.03,0.05 -0.06,0.06 -0.03,0.01 -0.05,0 -0.08,-0.01 -0.03,-0.02 -0.04,-0.04 -0.06,-0.08zm-0.24 -1.05c-0.06,0.04 -0.11,0.09 -0.16,0.15 -0.04,0.05 -0.07,0.12 -0.1,0.2l-0.01 0.03 -0.01 0.03 -0.02 0.06 -0.01 0.06 -0.01 0.06c0,-0.08 0.01,-0.16 0.04,-0.23 0.02,-0.08 0.06,-0.15 0.1,-0.21 0.05,-0.07 0.1,-0.12 0.17,-0.15 0.03,-0.02 0.06,-0.03 0.1,-0.04l0.03 -0.01 0.03 -0.01 0.05 -0.01c-0.08,0.02 -0.14,0.05 -0.2,0.08zm0.41 -0.2c-0.27,-0.03 -0.49,0.05 -0.64,0.25 -0.13,0.17 -0.19,0.39 -0.19,0.67 0.01,0.27 0.07,0.5 0.2,0.71 0.14,0.22 0.32,0.35 0.53,0.38 0.2,0.03 0.38,-0.06 0.52,-0.25 0.13,-0.18 0.21,-0.4 0.23,-0.67 0.03,-0.27 -0.01,-0.51 -0.12,-0.71 -0.12,-0.22 -0.3,-0.35 -0.55,-0.37z"/>
  <path class="fil0" d="M23.14 6.86c-0.02,0.02 -0.03,0.04 -0.05,0.07 -0.02,0.04 -0.05,0.1 -0.08,0.17l-0.02 0.04 -0.02 0.04c-0.02,0.03 -0.03,0.06 -0.05,0.08 -0.02,0.03 -0.04,0.05 -0.06,0.07 -0.03,0.02 -0.06,0.03 -0.08,0.03 0.05,-0.01 0.1,-0.05 0.13,-0.11 0.01,-0.02 0.03,-0.05 0.04,-0.08l0.02 -0.04 0.02 -0.04c0.03,-0.07 0.06,-0.13 0.08,-0.17 0.02,-0.03 0.04,-0.05 0.06,-0.07 0.03,-0.02 0.05,-0.03 0.08,-0.03 -0.03,0.01 -0.05,0.02 -0.07,0.04zm-1.01 0.29c-0.02,0.05 -0.04,0.1 -0.06,0.17 -0.01,0.04 -0.03,0.1 -0.04,0.18 -0.01,0.03 -0.01,0.06 -0.02,0.09l-0.01 0.05 -0.01 0.05c0,-0.13 0.02,-0.26 0.05,-0.37 0.02,-0.07 0.04,-0.13 0.07,-0.18 0.02,-0.03 0.04,-0.05 0.06,-0.07 0.02,-0.02 0.05,-0.03 0.08,-0.04 -0.05,0.01 -0.09,0.05 -0.12,0.12zm1.67 0.43c-0.05,-0.27 -0.14,-0.49 -0.25,-0.66 -0.1,-0.15 -0.21,-0.23 -0.31,-0.23 -0.08,0 -0.15,0.04 -0.2,0.1 -0.04,0.05 -0.09,0.14 -0.15,0.28 -0.05,0.12 -0.1,0.18 -0.15,0.17 -0.03,-0 -0.08,-0.04 -0.14,-0.11 -0.07,-0.08 -0.13,-0.14 -0.19,-0.17 -0.07,-0.05 -0.14,-0.06 -0.2,-0.04 -0.17,0.05 -0.28,0.3 -0.32,0.75 -0.02,0.29 -0.01,0.54 0.04,0.76 0.06,0.25 0.15,0.38 0.28,0.39 0.08,0 0.14,-0.02 0.18,-0.09 0.04,-0.05 0.06,-0.13 0.09,-0.22 0.01,-0.03 0.01,-0.07 0.02,-0.12l0.01 -0.03 0 -0.03c0,-0.02 0.01,-0.04 0.01,-0.05 0.01,-0.08 0.03,-0.12 0.05,-0.13 0.02,-0.01 0.03,0 0.05,0.04 0.01,0.01 0.02,0.03 0.03,0.05l0.01 0.01 0.01 0.02 0.02 0.03c0.03,0.05 0.06,0.09 0.09,0.12 0.04,0.03 0.09,0.05 0.13,0.04 0.04,-0 0.07,-0.03 0.1,-0.06 0.02,-0.02 0.04,-0.06 0.06,-0.11l0.01 -0.03 0.01 -0.03c0.01,-0.02 0.02,-0.04 0.02,-0.05 0.02,-0.03 0.04,-0.04 0.06,-0.04 0.02,0.01 0.05,0.04 0.08,0.1 0.01,0.01 0.01,0.03 0.02,0.04l0.01 0.02 0.01 0.02c0.02,0.04 0.04,0.07 0.05,0.1 0.04,0.08 0.09,0.14 0.13,0.18 0.06,0.05 0.12,0.07 0.19,0.06 0.11,-0.01 0.18,-0.13 0.19,-0.33 0.01,-0.18 -0.01,-0.43 -0.08,-0.75zm1.48 -0.29c-0.01,0.03 -0.03,0.05 -0.05,0.06 -0.02,0.02 -0.05,0.02 -0.07,0.02 0.05,-0.02 0.08,-0.05 0.11,-0.1 0.02,-0.04 0.03,-0.09 0.03,-0.15 0.02,0.06 0.02,0.11 -0.01,0.17zm-0.25 -0.11c-0.01,-0.03 -0,-0.06 0.01,-0.08 0.01,-0.02 0.03,-0.04 0.05,-0.04 0.02,-0 0.04,0 0.06,0.02 0.02,0.02 0.03,0.04 0.04,0.07 0,0.03 0,0.06 -0.01,0.08 -0.01,0.02 -0.03,0.04 -0.05,0.04 -0.02,0 -0.04,-0 -0.06,-0.02 -0.02,-0.02 -0.03,-0.04 -0.04,-0.07zm-0.2 -0.58c-0.05,0.04 -0.09,0.08 -0.11,0.12 -0.03,0.05 -0.05,0.1 -0.06,0.16 -0.01,0.03 -0.01,0.06 -0.01,0.09 -0,0.02 -0,0.05 0,0.09 -0.01,-0.06 -0.02,-0.12 -0.01,-0.18 0.01,-0.06 0.03,-0.12 0.06,-0.17 0.03,-0.05 0.08,-0.09 0.13,-0.12 0.05,-0.03 0.1,-0.05 0.16,-0.06l-0.04 0.02c-0.01,0.01 -0.03,0.01 -0.04,0.02 -0.02,0.01 -0.04,0.02 -0.07,0.04zm-0.13 1.3c-0.04,0.08 -0.05,0.16 -0.06,0.22 -0.01,-0.04 -0.01,-0.08 -0,-0.12 0.01,-0.03 0.02,-0.07 0.03,-0.12 0.02,-0.04 0.03,-0.07 0.06,-0.1 0.02,-0.03 0.04,-0.06 0.07,-0.09l-0.03 0.05 -0.03 0.05c-0.02,0.04 -0.04,0.07 -0.05,0.1zm0.25 -1.48c-0.12,0.04 -0.22,0.1 -0.29,0.18 -0.07,0.08 -0.1,0.18 -0.12,0.29 -0.01,0.11 -0,0.21 0.04,0.32 0.04,0.11 0.1,0.2 0.18,0.28 0.02,0.02 0.02,0.04 0.02,0.06 -0,0.02 -0.02,0.04 -0.04,0.07l-0.01 0.01 -0.01 0.01c-0.01,0.01 -0.01,0.02 -0.02,0.03 -0.01,0.02 -0.03,0.04 -0.04,0.06 -0.03,0.05 -0.06,0.11 -0.08,0.17 -0.03,0.09 -0.04,0.18 -0.03,0.26 0.01,0.07 0.04,0.14 0.09,0.19 0.04,0.05 0.09,0.08 0.15,0.1 0.06,0.02 0.11,0.02 0.15,0 0.11,-0.04 0.19,-0.13 0.22,-0.26 0.01,-0.02 0.01,-0.05 0.02,-0.08l0.01 -0.04 0.01 -0.04c0.01,-0.06 0.02,-0.1 0.04,-0.13 0.02,-0.04 0.04,-0.05 0.06,-0.03 0.03,0.03 0.05,0.11 0.08,0.25 0.01,0.08 0.05,0.13 0.1,0.17 0.05,0.04 0.1,0.05 0.16,0.04 0.06,-0.01 0.11,-0.05 0.16,-0.1 0.05,-0.06 0.08,-0.15 0.1,-0.25 0.02,-0.17 0.02,-0.35 -0.01,-0.55 -0.03,-0.2 -0.09,-0.39 -0.16,-0.55 -0.09,-0.18 -0.19,-0.31 -0.31,-0.39 -0.13,-0.09 -0.28,-0.12 -0.44,-0.07zm1.66 0.59c-0.02,0.03 -0.05,0.05 -0.08,0.07 -0.04,0.02 -0.06,0.04 -0.08,0.05 -0.03,0.03 -0.04,0.06 -0.04,0.09 -0.01,-0.02 -0.01,-0.04 -0,-0.06 0,-0.02 0.01,-0.03 0.03,-0.05 0.02,-0.02 0.05,-0.04 0.08,-0.06 0.03,-0.02 0.06,-0.04 0.08,-0.06 0.03,-0.03 0.04,-0.05 0.06,-0.08 -0,0.04 -0.02,0.07 -0.04,0.1zm-0.26 0.69c-0.05,0 -0.08,0.01 -0.11,0.01 -0.02,0.01 -0.04,0.01 -0.05,0.02 -0.01,0.01 -0.01,0.01 -0.01,0.02l-0 0.02 -0 0.01c-0,-0.01 -0,-0.02 -0,-0.03 -0,-0.01 0,-0.02 0.01,-0.03 0.01,-0.01 0.03,-0.03 0.05,-0.03 0.03,-0.01 0.07,-0.02 0.11,-0.02 0.03,-0 0.07,-0 0.11,-0l0.06 0 0.06 0c-0.03,0.01 -0.07,0.02 -0.11,0.02l-0.06 0 -0.06 0zm-0.12 -1.3c-0.05,0.03 -0.09,0.06 -0.12,0.09 -0.02,0.02 -0.03,0.03 -0.05,0.05 -0.02,0.02 -0.03,0.04 -0.04,0.06 -0.03,0.05 -0.04,0.1 -0.03,0.15 -0.01,-0.02 -0.01,-0.05 -0.01,-0.08 0,-0.03 0.01,-0.05 0.02,-0.08 0.02,-0.04 0.05,-0.08 0.09,-0.13 0.08,-0.07 0.17,-0.12 0.26,-0.15 -0.04,0.02 -0.09,0.05 -0.13,0.08zm0.96 0.84c-0.03,-0.03 -0.06,-0.05 -0.09,-0.08 -0.02,-0.01 -0.05,-0.03 -0.08,-0.04l-0.02 -0.01 -0.01 -0.01c-0.01,-0.01 -0.02,-0.01 -0.02,-0.01 -0.01,-0.01 -0.02,-0.02 -0.03,-0.03 -0,-0.01 0,-0.04 0.02,-0.06 0.01,-0.01 0.02,-0.02 0.03,-0.04l0.01 -0.01 0.01 -0.01 0.02 -0.03c0.03,-0.04 0.05,-0.08 0.07,-0.12 0.02,-0.05 0.03,-0.1 0.03,-0.16 -0,-0.14 -0.05,-0.25 -0.13,-0.33 -0.09,-0.09 -0.22,-0.13 -0.39,-0.13 -0.08,-0 -0.17,0.02 -0.26,0.05 -0.09,0.03 -0.18,0.08 -0.25,0.13 -0.08,0.06 -0.14,0.13 -0.17,0.2 -0.04,0.08 -0.05,0.16 -0.03,0.24 0.05,0.2 0.22,0.23 0.49,0.1 0.05,-0.02 0.08,-0.03 0.12,-0.03 0.03,-0 0.04,0.01 0.05,0.02 0.01,0.01 0,0.03 -0.01,0.05 -0.02,0.02 -0.04,0.04 -0.08,0.06 -0.13,0.07 -0.18,0.16 -0.16,0.27 0.01,0.05 0.04,0.1 0.08,0.13 0.04,0.03 0.1,0.04 0.16,0.03 0.06,-0.01 0.1,0 0.12,0.04 0.01,0.02 0.01,0.03 0.01,0.05 -0,0.02 -0.01,0.03 -0.03,0.05 -0.03,0.02 -0.07,0.03 -0.15,0.04 -0.01,0 -0.03,0 -0.05,0l-0.05 0c-0.04,0 -0.07,0 -0.1,0.01 -0.07,0.01 -0.13,0.02 -0.16,0.05 -0.04,0.03 -0.06,0.09 -0.06,0.16 0.01,0.08 0.06,0.16 0.15,0.22 0.08,0.06 0.19,0.1 0.32,0.13 0.13,0.02 0.25,0.02 0.37,-0.01 0.13,-0.03 0.23,-0.08 0.3,-0.16 0.1,-0.11 0.14,-0.25 0.13,-0.4 -0.01,-0.14 -0.06,-0.25 -0.15,-0.34zm1.11 0.06c-0.01,0.03 -0.03,0.05 -0.05,0.07 -0.02,0.02 -0.05,0.02 -0.08,0.02 0.05,-0.02 0.09,-0.05 0.11,-0.1 0.01,-0.02 0.01,-0.05 0.02,-0.08 0,-0.02 -0,-0.05 -0.01,-0.08 0.01,0.03 0.02,0.05 0.03,0.08 0,0.03 -0,0.06 -0.01,0.09zm-0.24 -0.07c-0.02,-0.02 -0.03,-0.05 -0.03,-0.08 -0,-0.03 0.01,-0.05 0.02,-0.06 0.02,-0.01 0.04,-0.01 0.06,-0.01 0.02,0.01 0.04,0.02 0.06,0.05 0.02,0.03 0.03,0.05 0.03,0.08 0,0.03 -0.01,0.05 -0.02,0.06 -0.02,0.01 -0.04,0.02 -0.06,0.01 -0.02,-0.01 -0.04,-0.03 -0.06,-0.05zm-0.3 -1.13c-0.01,0.01 -0.03,0.03 -0.05,0.05 -0.03,0.03 -0.05,0.07 -0.07,0.11 -0.02,0.03 -0.04,0.07 -0.06,0.12 -0.01,0.02 -0.02,0.04 -0.03,0.07l-0.02 0.07c0.01,-0.05 0.02,-0.1 0.03,-0.14 0.01,-0.05 0.03,-0.09 0.05,-0.13 0.02,-0.05 0.05,-0.08 0.08,-0.11 0.04,-0.04 0.08,-0.06 0.12,-0.06 -0.02,0.01 -0.04,0.02 -0.06,0.03zm0.44 0.62c-0.05,-0.01 -0.08,-0.03 -0.1,-0.06 -0.01,-0.03 -0.02,-0.07 -0.02,-0.13 0,-0.01 0,-0.02 0,-0.04l0 -0.04c0,-0.04 0,-0.07 0,-0.09 -0,-0.07 -0.01,-0.13 -0.02,-0.19 -0.02,-0.08 -0.06,-0.13 -0.11,-0.17 -0.05,-0.04 -0.11,-0.05 -0.17,-0.03 -0.07,0.02 -0.13,0.07 -0.19,0.15 -0.06,0.09 -0.12,0.21 -0.16,0.37 -0.04,0.16 -0.06,0.33 -0.05,0.51 0.01,0.19 0.05,0.35 0.11,0.5 0.07,0.16 0.16,0.28 0.27,0.36 0.13,0.09 0.28,0.11 0.45,0.08 0.16,-0.03 0.29,-0.1 0.38,-0.22 0.08,-0.11 0.12,-0.24 0.12,-0.39 -0,-0.15 -0.05,-0.27 -0.14,-0.38 -0.1,-0.12 -0.22,-0.19 -0.38,-0.22zm0.43 -0.73c-0.01,0.02 -0.02,0.04 -0.02,0.06 -0,0.02 -0,0.04 -0,0.07 0,0.03 0.01,0.08 0.03,0.14l0.02 0.07 0.02 0.07c-0.03,-0.05 -0.05,-0.09 -0.06,-0.13 -0.02,-0.05 -0.03,-0.1 -0.04,-0.14 -0,-0.03 -0,-0.05 0,-0.07 0.01,-0.03 0.02,-0.05 0.03,-0.07 0.03,-0.03 0.07,-0.05 0.12,-0.06 -0.05,0.01 -0.08,0.04 -0.11,0.07zm0.46 0.01c-0.05,-0.07 -0.1,-0.12 -0.17,-0.15 -0.06,-0.03 -0.12,-0.04 -0.18,-0.04 -0.06,0 -0.11,0.02 -0.15,0.06 -0.04,0.03 -0.07,0.07 -0.09,0.12 -0.03,0.09 -0,0.22 0.07,0.38 0.01,0.03 0.03,0.06 0.04,0.1l0.02 0.05 0.02 0.05c0.04,0.08 0.06,0.15 0.08,0.2 0.04,0.13 0.06,0.27 0.08,0.41 0.01,0.04 0.01,0.1 0.02,0.16l0 0.04 0 0.03c0,0.03 0.01,0.05 0.01,0.06 0.01,0.09 0.03,0.15 0.04,0.18 0.02,0.04 0.06,0.07 0.11,0.07 0.1,0.01 0.17,-0.06 0.22,-0.2 0.05,-0.13 0.07,-0.29 0.07,-0.5 0,-0.2 -0.02,-0.4 -0.06,-0.59 -0.04,-0.2 -0.1,-0.35 -0.17,-0.45zm1.1 0.02c-0.03,0.05 -0.05,0.1 -0.08,0.13 -0.04,0.05 -0.07,0.08 -0.11,0.11 0.03,-0.03 0.06,-0.07 0.09,-0.12 0.03,-0.04 0.05,-0.09 0.08,-0.13 0.01,-0.02 0.02,-0.05 0.03,-0.07l0.01 -0.02 0.01 -0.02c0.01,-0.02 0.01,-0.03 0.02,-0.04 0.01,-0.02 0.03,-0.04 0.05,-0.06 0.02,-0.02 0.05,-0.03 0.07,-0.03 -0.04,0.01 -0.08,0.04 -0.1,0.1 -0,0.01 -0.01,0.02 -0.02,0.04l-0.01 0.02 -0.01 0.02c-0.01,0.02 -0.02,0.04 -0.03,0.07zm-0.55 -0.22c-0.02,0.01 -0.03,0.03 -0.04,0.06 -0.02,0.03 -0.03,0.08 -0.04,0.13 -0.01,0.03 -0.02,0.08 -0.02,0.14l-0.01 0.07 -0.01 0.07c-0,-0.06 -0.01,-0.11 -0,-0.15 0,-0.05 0.01,-0.1 0.02,-0.15 0.01,-0.06 0.03,-0.11 0.05,-0.14 0.01,-0.02 0.03,-0.04 0.05,-0.05 0.02,-0.02 0.04,-0.02 0.07,-0.03 -0.02,0.01 -0.04,0.02 -0.06,0.04zm0.7 0.71c-0.04,-0.01 -0.05,-0.03 -0.03,-0.05 0.01,-0.01 0.02,-0.02 0.04,-0.03l0.01 -0.01 0.01 -0.01c0.01,-0.01 0.02,-0.02 0.03,-0.02 0.06,-0.04 0.1,-0.09 0.14,-0.14 0.05,-0.07 0.08,-0.14 0.09,-0.23 0.01,-0.08 -0,-0.15 -0.04,-0.21 -0.03,-0.06 -0.08,-0.1 -0.14,-0.12 -0.06,-0.02 -0.12,-0.02 -0.17,0.01 -0.06,0.03 -0.11,0.09 -0.14,0.17 -0.06,0.14 -0.12,0.24 -0.18,0.3 -0.02,0.02 -0.04,0.03 -0.05,0.03 -0.01,-0.01 -0.01,-0.03 -0,-0.07 0.04,-0.15 0.04,-0.26 0,-0.35 -0.03,-0.07 -0.08,-0.11 -0.16,-0.11 -0.15,-0.01 -0.25,0.08 -0.3,0.29 -0.04,0.17 -0.04,0.4 -0.01,0.7 0.03,0.3 0.08,0.54 0.15,0.71 0.09,0.21 0.2,0.31 0.34,0.28 0.12,-0.02 0.18,-0.14 0.17,-0.33 -0,-0.07 -0.02,-0.14 -0.03,-0.22 -0.01,-0.03 -0.01,-0.06 -0.02,-0.08 -0,-0.01 -0.01,-0.02 -0.01,-0.03l-0 -0.01 -0 -0.01 -0 -0c-0.01,-0.02 -0.01,-0.04 0,-0.05 0.01,-0.01 0.02,-0.01 0.04,0 0.05,0.04 0.11,0.13 0.18,0.3 0.04,0.1 0.1,0.19 0.16,0.25 0.06,0.06 0.12,0.09 0.18,0.1 0.06,0.01 0.11,0 0.17,-0.03 0.05,-0.03 0.09,-0.08 0.12,-0.15 0.03,-0.07 0.04,-0.15 0.03,-0.24 -0.01,-0.08 -0.04,-0.16 -0.09,-0.24 -0.1,-0.17 -0.26,-0.29 -0.47,-0.37zm1.51 0.25l-0.02 0.01c-0.01,0.01 -0.03,0.01 -0.04,0.02 -0.03,0.01 -0.06,0.02 -0.08,0.02 0.03,-0.01 0.05,-0.02 0.07,-0.03l0.02 -0.01 0.02 -0.01c0.01,-0.01 0.03,-0.02 0.04,-0.02 0.03,-0.02 0.05,-0.03 0.08,-0.03 0.03,-0.01 0.06,-0.01 0.08,-0.01 -0.04,0.02 -0.09,0.04 -0.14,0.07l-0.02 0.01zm-0.58 -1.23c-0.04,0.02 -0.07,0.04 -0.1,0.06 -0.03,0.03 -0.06,0.06 -0.08,0.09 -0.02,0.03 -0.04,0.07 -0.05,0.11 -0.02,0.06 -0.04,0.15 -0.04,0.25 -0,0.04 -0,0.08 -0,0.13 -0,0.02 -0,0.04 0,0.06l0 0.07c-0.01,-0.09 -0.02,-0.17 -0.02,-0.26 0,-0.1 0.02,-0.18 0.04,-0.26 0.02,-0.05 0.03,-0.09 0.06,-0.12 0.03,-0.04 0.06,-0.07 0.09,-0.09 0.03,-0.02 0.07,-0.04 0.11,-0.06 0.04,-0.01 0.08,-0.02 0.12,-0.03 -0.04,0.01 -0.08,0.02 -0.11,0.04zm0.36 0.7l0.01 -0c0.01,-0 0.01,-0.01 0.02,-0.01 0.02,-0 0.03,-0.01 0.04,-0.01 0.02,0 0.03,0.01 0.04,0.02 -0.01,-0 -0.02,-0 -0.04,0 -0.01,0 -0.03,0.01 -0.04,0.01l-0.01 0 -0.01 0c-0.01,0 -0.02,0.01 -0.02,0.01 -0.02,0 -0.03,0 -0.04,0l0.02 -0.01 0.02 -0.01 0.01 -0.01zm0.13 0.44c-0.04,0.03 -0.08,0.03 -0.11,0.03 -0.03,-0.01 -0.05,-0.02 -0.06,-0.05 -0.01,-0.03 -0.01,-0.05 -0,-0.08 0.01,-0.03 0.03,-0.05 0.06,-0.05 0.09,-0.02 0.15,-0.06 0.19,-0.11 0.03,-0.05 0.04,-0.1 0.03,-0.16 -0.01,-0.06 -0.04,-0.1 -0.1,-0.12 -0.05,-0.02 -0.11,-0.02 -0.17,0.01 -0.05,0.02 -0.09,0.01 -0.12,-0.03 -0.01,-0.02 -0.01,-0.04 -0.01,-0.06 0,-0.02 0.01,-0.04 0.02,-0.06 0.02,-0.02 0.06,-0.04 0.1,-0.06 0.02,-0.01 0.04,-0.01 0.07,-0.02l0.03 -0.01 0.04 -0.01c0.06,-0.01 0.1,-0.03 0.13,-0.05 0.04,-0.03 0.07,-0.06 0.08,-0.11 0.02,-0.08 -0.01,-0.15 -0.07,-0.22 -0.06,-0.06 -0.15,-0.11 -0.26,-0.13 -0.11,-0.02 -0.22,-0.02 -0.33,0.01 -0.12,0.04 -0.21,0.1 -0.28,0.21 -0.07,0.09 -0.1,0.23 -0.11,0.41 -0.01,0.17 0,0.35 0.04,0.54 0.04,0.19 0.09,0.36 0.16,0.5 0.08,0.15 0.16,0.25 0.25,0.29 0.09,0.04 0.19,0.05 0.3,0.03 0.1,-0.02 0.21,-0.06 0.3,-0.13 0.1,-0.07 0.17,-0.14 0.23,-0.23 0.06,-0.09 0.08,-0.18 0.07,-0.26 -0.02,-0.11 -0.07,-0.17 -0.15,-0.19 -0.09,-0.02 -0.2,0.01 -0.33,0.09z"/>
  <path class="fil0" d="M36.92 3.13l0.53 -0.09 -0.54 -3.04 -0.53 0.09 0.25 1.38c-0.1,0.09 -0.26,0.16 -0.41,0.19 -0.34,0.06 -0.54,-0.1 -0.6,-0.43l-0.17 -0.98 -0.53 0.09 0.19 1.05c0.1,0.58 0.46,0.86 1.01,0.76 0.22,-0.04 0.41,-0.12 0.57,-0.26l0.01 -0 0.22 1.22z"/>
 </g>
</svg>
