<?xml version="1.0" encoding="UTF-8"?>
<!DOCTYPE svg PUBLIC "-//W3C//DTD SVG 1.1//EN" "http://www.w3.org/Graphics/SVG/1.1/DTD/svg11.dtd">
<!-- Creator: CorelDRAW -->
<svg xmlns="http://www.w3.org/2000/svg" xml:space="preserve" width="28.5618mm" height="9.4574mm" version="1.1" style="shape-rendering:geometricPrecision; text-rendering:geometricPrecision; image-rendering:optimizeQuality; fill-rule:evenodd; clip-rule:evenodd"
viewBox="0 0 76.7 25.4"
 xmlns:xlink="http://www.w3.org/1999/xlink"
 xmlns:xodm="http://www.corel.com/coreldraw/odm/2003">
 <defs>
  <style type="text/css">
   <![CDATA[
    .fil0 {fill:#656554;fill-rule:nonzero}
   ]]>
  </style>
 </defs>
 <g id="Слой_x0020_1">
  <metadata id="CorelCorpID_0Corel-Layer"/>
  <path class="fil0" d="M0.38 1.83c0.35,-0.41 0.79,-0.62 1.31,-0.62 0.41,0 0.76,0.12 1.03,0.36 0.27,0.24 0.41,0.55 0.41,0.93 0,0.54 -0.25,0.93 -0.76,1.16 0.66,0.21 1,0.65 1,1.34 0,0.46 -0.15,0.83 -0.45,1.11 -0.3,0.28 -0.71,0.42 -1.22,0.42 -0.36,0 -0.68,-0.08 -0.94,-0.23 -0.27,-0.15 -0.52,-0.41 -0.75,-0.79l0.39 -0.23c0.23,0.35 0.45,0.57 0.66,0.66 0.2,0.1 0.42,0.15 0.64,0.15 0.32,0 0.59,-0.09 0.82,-0.28 0.22,-0.19 0.34,-0.46 0.34,-0.82 0,-0.19 -0.04,-0.36 -0.11,-0.5 -0.08,-0.14 -0.19,-0.26 -0.32,-0.34 -0.14,-0.09 -0.27,-0.14 -0.4,-0.17 -0.13,-0.02 -0.33,-0.03 -0.62,-0.03l-0.09 0 0 -0.45 0.17 0c0.75,0 1.12,-0.31 1.12,-0.91 0,-0.28 -0.09,-0.51 -0.26,-0.67 -0.17,-0.17 -0.39,-0.25 -0.65,-0.25 -0.34,0 -0.66,0.15 -0.96,0.46l-0.35 -0.31z"/>
  <path id="_1" class="fil0" d="M7.43 5.16l0.4 0.21c-0.13,0.26 -0.29,0.47 -0.46,0.63 -0.17,0.16 -0.37,0.28 -0.59,0.36 -0.22,0.08 -0.46,0.12 -0.74,0.12 -0.61,0 -1.09,-0.2 -1.43,-0.6 -0.34,-0.4 -0.52,-0.85 -0.52,-1.36 0,-0.47 0.15,-0.9 0.44,-1.27 0.37,-0.47 0.86,-0.71 1.48,-0.71 0.64,0 1.15,0.24 1.53,0.73 0.27,0.34 0.41,0.77 0.41,1.28l-3.37 0c0.01,0.43 0.15,0.79 0.42,1.07 0.27,0.28 0.6,0.42 1,0.42 0.19,0 0.38,-0.03 0.56,-0.1 0.18,-0.07 0.33,-0.15 0.46,-0.26 0.13,-0.11 0.26,-0.28 0.41,-0.53zm0 -1.01c-0.06,-0.26 -0.16,-0.46 -0.28,-0.62 -0.12,-0.15 -0.29,-0.28 -0.49,-0.37 -0.2,-0.09 -0.42,-0.14 -0.64,-0.14 -0.37,0 -0.68,0.12 -0.95,0.35 -0.19,0.17 -0.34,0.43 -0.44,0.78l2.8 0z"/>
  <path id="_2" class="fil0" d="M10.51 4.72l-0.84 0c-0.38,0 -0.66,-0.1 -0.85,-0.3 -0.18,-0.2 -0.28,-0.47 -0.28,-0.83l0 -0.94 0.47 0 0 0.68c0,0.44 0.06,0.71 0.19,0.81 0.12,0.1 0.33,0.16 0.61,0.16l0.7 0 0 -1.65 0.48 0 0 3.75 -0.48 0 0 -1.69z"/>
  <path id="_3" class="fil0" d="M15.63 1.12l0 0.46c-0.23,0.04 -0.62,0.07 -1.18,0.08 -0.4,0.01 -0.71,0.04 -0.93,0.08 -0.22,0.04 -0.41,0.12 -0.57,0.23 -0.16,0.12 -0.3,0.29 -0.41,0.52 -0.11,0.23 -0.18,0.49 -0.21,0.78l-0.05 0.53c0.13,-0.43 0.35,-0.75 0.64,-0.95 0.3,-0.2 0.63,-0.3 0.99,-0.3 0.55,0 1.02,0.2 1.39,0.59 0.37,0.39 0.56,0.85 0.56,1.39 0,0.53 -0.19,0.99 -0.56,1.38 -0.37,0.39 -0.84,0.58 -1.39,0.58 -0.57,0 -1.05,-0.21 -1.45,-0.64 -0.4,-0.43 -0.59,-1.1 -0.59,-2.02 0,-0.64 0.07,-1.13 0.22,-1.46 0.15,-0.33 0.31,-0.57 0.5,-0.71 0.19,-0.14 0.43,-0.26 0.73,-0.34 0.3,-0.08 0.86,-0.13 1.67,-0.16 0.25,-0.01 0.46,-0.02 0.64,-0.05zm-0.25 3.43c0,-0.41 -0.14,-0.77 -0.43,-1.07 -0.29,-0.3 -0.63,-0.45 -1.03,-0.45 -0.39,0 -0.74,0.15 -1.02,0.45 -0.29,0.3 -0.43,0.65 -0.43,1.07 0,0.41 0.14,0.76 0.42,1.05 0.28,0.29 0.63,0.43 1.04,0.43 0.42,0 0.76,-0.15 1.04,-0.43 0.28,-0.29 0.42,-0.64 0.42,-1.05z"/>
  <polygon id="_4" class="fil0" points="16.36,2.65 16.85,2.65 18.14,5.53 19.39,2.65 19.9,2.65 17.68,7.78 17.16,7.78 17.89,6.1 "/>
  <path id="_5" class="fil0" d="M20.53 2.65l0.48 0 0 0.69c0.19,-0.26 0.41,-0.46 0.65,-0.59 0.25,-0.13 0.52,-0.19 0.83,-0.19 0.53,0 0.98,0.19 1.36,0.57 0.38,0.38 0.57,0.84 0.57,1.38 0,0.55 -0.19,1.02 -0.56,1.4 -0.37,0.38 -0.82,0.58 -1.35,0.58 -0.3,0 -0.57,-0.06 -0.82,-0.19 -0.25,-0.12 -0.47,-0.31 -0.68,-0.56l0 2.02 -0.48 0 0 -5.12zm1.92 0.37c-0.42,0 -0.76,0.14 -1.05,0.44 -0.28,0.29 -0.43,0.65 -0.43,1.08 0,0.28 0.06,0.54 0.19,0.77 0.13,0.23 0.31,0.41 0.54,0.54 0.24,0.13 0.49,0.2 0.75,0.2 0.26,0 0.5,-0.07 0.73,-0.2 0.23,-0.13 0.41,-0.32 0.54,-0.56 0.13,-0.24 0.2,-0.49 0.2,-0.75 0,-0.27 -0.07,-0.52 -0.2,-0.76 -0.13,-0.24 -0.31,-0.42 -0.54,-0.55 -0.22,-0.13 -0.47,-0.2 -0.74,-0.2z"/>
  <path id="_6" class="fil0" d="M28.46 5.16l0.4 0.21c-0.13,0.26 -0.29,0.47 -0.46,0.63 -0.17,0.16 -0.37,0.28 -0.59,0.36 -0.22,0.08 -0.46,0.12 -0.74,0.12 -0.61,0 -1.09,-0.2 -1.43,-0.6 -0.34,-0.4 -0.52,-0.85 -0.52,-1.36 0,-0.47 0.15,-0.9 0.44,-1.27 0.37,-0.47 0.86,-0.71 1.48,-0.71 0.64,0 1.15,0.24 1.53,0.73 0.27,0.34 0.41,0.77 0.41,1.28l-3.37 0c0.01,0.43 0.15,0.79 0.42,1.07 0.27,0.28 0.6,0.42 1,0.42 0.19,0 0.38,-0.03 0.56,-0.1 0.18,-0.07 0.33,-0.15 0.46,-0.26 0.13,-0.11 0.26,-0.28 0.41,-0.53zm0 -1.01c-0.06,-0.26 -0.16,-0.46 -0.28,-0.62 -0.12,-0.15 -0.29,-0.28 -0.49,-0.37 -0.2,-0.09 -0.42,-0.14 -0.64,-0.14 -0.37,0 -0.68,0.12 -0.95,0.35 -0.19,0.17 -0.34,0.43 -0.44,0.78l2.8 0z"/>
  <path id="_7" class="fil0" d="M33.5 3.43l-0.38 0.24c-0.33,-0.44 -0.78,-0.66 -1.35,-0.66 -0.46,0 -0.84,0.15 -1.14,0.44 -0.3,0.29 -0.45,0.65 -0.45,1.07 0,0.27 0.07,0.53 0.21,0.77 0.14,0.24 0.33,0.43 0.57,0.56 0.24,0.13 0.51,0.2 0.81,0.2 0.55,0 1,-0.22 1.35,-0.66l0.38 0.25c-0.18,0.27 -0.42,0.48 -0.72,0.63 -0.3,0.15 -0.65,0.22 -1.03,0.22 -0.59,0 -1.08,-0.19 -1.47,-0.56 -0.39,-0.38 -0.58,-0.83 -0.58,-1.37 0,-0.36 0.09,-0.7 0.27,-1.01 0.18,-0.31 0.43,-0.55 0.75,-0.73 0.32,-0.17 0.68,-0.26 1.07,-0.26 0.25,0 0.49,0.04 0.72,0.11 0.23,0.08 0.42,0.17 0.59,0.3 0.16,0.12 0.3,0.28 0.41,0.46z"/>
  <path id="_8" class="fil0" d="M34.89 4.14l0.46 0c0.36,0 0.65,0.03 0.85,0.09 0.21,0.06 0.38,0.19 0.53,0.38 0.15,0.2 0.22,0.42 0.22,0.68 0,0.31 -0.11,0.57 -0.32,0.79 -0.21,0.22 -0.54,0.33 -0.98,0.33l-1.24 0 0 -3.75 0.47 0 0 1.48zm0.02 0.45l0 1.41 0.55 0c0.65,0 0.98,-0.23 0.98,-0.69 0,-0.13 -0.03,-0.26 -0.11,-0.39 -0.07,-0.13 -0.17,-0.21 -0.31,-0.26 -0.13,-0.05 -0.37,-0.08 -0.71,-0.08l-0.41 0z"/>
  <polygon id="_9" class="fil0" points="38.21,5.47 38.67,5.69 37.98,7 37.64,6.85 "/>
  <polygon id="_10" class="fil0" points="41.62,2.65 44.75,2.65 44.75,6.41 44.27,6.41 44.27,3.11 42.09,3.11 42.09,6.41 41.62,6.41 "/>
  <polygon id="_11" class="fil0" points="46.29,2.65 46.29,5.43 49.04,2.65 49.08,2.65 49.08,6.41 48.6,6.41 48.6,3.65 45.88,6.41 45.82,6.41 45.82,2.65 "/>
  <polygon id="_12" class="fil0" points="52.8,4.6 50.62,4.6 50.62,6.41 50.14,6.41 50.14,2.65 50.62,2.65 50.62,4.14 52.8,4.14 52.8,2.65 53.28,2.65 53.28,6.41 52.8,6.41 "/>
  <path id="_13" class="fil0" d="M58.06 2.65l0 3.75 -0.48 0 0 -0.65c-0.2,0.25 -0.43,0.43 -0.68,0.55 -0.25,0.12 -0.52,0.18 -0.82,0.18 -0.53,0 -0.98,-0.19 -1.35,-0.58 -0.37,-0.39 -0.56,-0.85 -0.56,-1.4 0,-0.54 0.19,-1 0.57,-1.38 0.38,-0.38 0.83,-0.57 1.36,-0.57 0.31,0 0.58,0.06 0.83,0.19 0.25,0.13 0.46,0.32 0.65,0.59l0 -0.69 0.48 0zm-1.92 0.37c-0.27,0 -0.51,0.07 -0.74,0.2 -0.23,0.13 -0.4,0.32 -0.54,0.55 -0.13,0.24 -0.2,0.49 -0.2,0.76 0,0.26 0.07,0.51 0.2,0.75 0.13,0.24 0.31,0.43 0.54,0.56 0.23,0.13 0.47,0.2 0.73,0.2 0.26,0 0.51,-0.07 0.74,-0.2 0.23,-0.13 0.42,-0.31 0.54,-0.54 0.13,-0.23 0.19,-0.48 0.19,-0.77 0,-0.43 -0.14,-0.79 -0.43,-1.08 -0.28,-0.29 -0.63,-0.44 -1.05,-0.44z"/>
  <polygon id="_14" class="fil0" points="62.31,6.41 61.8,6.41 60.54,3.67 59.3,6.41 58.79,6.41 60.49,2.65 60.58,2.65 "/>
  <path id="_15" class="fil0" d="M63.85 4.14l0.46 0c0.36,0 0.65,0.03 0.85,0.09 0.21,0.06 0.38,0.19 0.53,0.38 0.15,0.2 0.22,0.42 0.22,0.68 0,0.31 -0.11,0.57 -0.32,0.79 -0.22,0.22 -0.54,0.33 -0.98,0.33l-1.24 0 0 -3.31 -0.69 0 0 -0.45 1.17 0 0 1.48zm0 0.41l0 1.45 0.55 0c0.66,0 0.99,-0.24 0.99,-0.72 0,-0.16 -0.04,-0.31 -0.13,-0.43 -0.09,-0.12 -0.2,-0.2 -0.35,-0.24 -0.14,-0.04 -0.36,-0.06 -0.65,-0.06l-0.41 0z"/>
  <path id="_16" class="fil0" d="M69.83 5.16l0.41 0.21c-0.13,0.26 -0.29,0.47 -0.46,0.63 -0.17,0.16 -0.37,0.28 -0.59,0.36 -0.22,0.08 -0.46,0.12 -0.74,0.12 -0.61,0 -1.09,-0.2 -1.43,-0.6 -0.34,-0.4 -0.52,-0.85 -0.52,-1.36 0,-0.47 0.15,-0.9 0.44,-1.27 0.37,-0.47 0.86,-0.71 1.48,-0.71 0.64,0 1.15,0.24 1.53,0.73 0.27,0.34 0.41,0.77 0.41,1.28l-3.37 0c0.01,0.43 0.15,0.79 0.42,1.07 0.27,0.28 0.6,0.42 1,0.42 0.19,0 0.38,-0.03 0.56,-0.1 0.18,-0.07 0.33,-0.15 0.46,-0.26 0.13,-0.11 0.26,-0.28 0.41,-0.53zm0 -1.01c-0.06,-0.26 -0.16,-0.46 -0.28,-0.62 -0.12,-0.15 -0.29,-0.28 -0.49,-0.37 -0.2,-0.09 -0.42,-0.14 -0.64,-0.14 -0.37,0 -0.68,0.12 -0.95,0.35 -0.19,0.17 -0.34,0.43 -0.44,0.78l2.8 0zm-2.1 -2.98c0.11,0 0.2,0.04 0.28,0.12 0.08,0.08 0.12,0.17 0.12,0.28 0,0.11 -0.04,0.2 -0.12,0.28 -0.08,0.08 -0.17,0.12 -0.28,0.12 -0.11,0 -0.2,-0.04 -0.28,-0.12 -0.08,-0.08 -0.12,-0.17 -0.12,-0.28 0,-0.11 0.04,-0.2 0.12,-0.28 0.08,-0.08 0.17,-0.12 0.28,-0.12zm1.4 0c0.11,0 0.2,0.04 0.28,0.12 0.08,0.08 0.12,0.17 0.12,0.28 0,0.11 -0.04,0.2 -0.12,0.28 -0.08,0.08 -0.17,0.12 -0.28,0.12 -0.11,0 -0.2,-0.04 -0.28,-0.12 -0.08,-0.08 -0.12,-0.17 -0.12,-0.28 0,-0.11 0.04,-0.2 0.12,-0.28 0.08,-0.08 0.17,-0.12 0.28,-0.12z"/>
  <path id="_17" class="fil0" d="M74.86 3.43l-0.38 0.24c-0.33,-0.44 -0.78,-0.66 -1.35,-0.66 -0.46,0 -0.84,0.15 -1.14,0.44 -0.3,0.29 -0.45,0.65 -0.45,1.07 0,0.27 0.07,0.53 0.21,0.77 0.14,0.24 0.33,0.43 0.57,0.56 0.24,0.13 0.51,0.2 0.81,0.2 0.55,0 1,-0.22 1.35,-0.66l0.38 0.25c-0.18,0.27 -0.42,0.48 -0.72,0.63 -0.3,0.15 -0.65,0.22 -1.03,0.22 -0.59,0 -1.08,-0.19 -1.47,-0.56 -0.39,-0.38 -0.58,-0.83 -0.58,-1.37 0,-0.36 0.09,-0.7 0.27,-1.01 0.18,-0.31 0.43,-0.55 0.75,-0.73 0.32,-0.17 0.68,-0.26 1.07,-0.26 0.25,0 0.49,0.04 0.72,0.11 0.23,0.08 0.43,0.17 0.59,0.3 0.16,0.12 0.3,0.28 0.41,0.46z"/>
  <path id="_18" class="fil0" d="M76.52 1.21l0 3.93 -0.49 0 0 -3.93 0.49 0zm-0.24 4.44c0.12,0 0.21,0.04 0.3,0.12 0.08,0.08 0.12,0.18 0.12,0.3 0,0.12 -0.04,0.22 -0.12,0.3 -0.08,0.08 -0.18,0.13 -0.3,0.13 -0.12,0 -0.21,-0.04 -0.3,-0.13 -0.08,-0.08 -0.12,-0.18 -0.12,-0.3 0,-0.12 0.04,-0.22 0.12,-0.3 0.08,-0.08 0.18,-0.12 0.3,-0.12z"/>
  <path id="_19" class="fil0" d="M0.38 10.64c0.35,-0.41 0.79,-0.62 1.31,-0.62 0.41,0 0.76,0.12 1.03,0.36 0.27,0.24 0.41,0.55 0.41,0.93 0,0.54 -0.25,0.93 -0.76,1.16 0.66,0.21 1,0.65 1,1.34 0,0.46 -0.15,0.83 -0.45,1.11 -0.3,0.28 -0.71,0.42 -1.22,0.42 -0.36,0 -0.68,-0.08 -0.94,-0.23 -0.27,-0.15 -0.52,-0.41 -0.75,-0.79l0.39 -0.23c0.23,0.35 0.45,0.57 0.66,0.66 0.2,0.1 0.42,0.15 0.64,0.15 0.32,0 0.59,-0.09 0.82,-0.28 0.22,-0.19 0.34,-0.46 0.34,-0.82 0,-0.19 -0.04,-0.36 -0.11,-0.5 -0.08,-0.14 -0.19,-0.26 -0.32,-0.34 -0.14,-0.09 -0.27,-0.14 -0.4,-0.17 -0.13,-0.02 -0.33,-0.03 -0.62,-0.03l-0.09 0 0 -0.45 0.17 0c0.75,0 1.12,-0.31 1.12,-0.91 0,-0.28 -0.09,-0.51 -0.26,-0.67 -0.17,-0.17 -0.39,-0.25 -0.65,-0.25 -0.34,0 -0.66,0.15 -0.96,0.46l-0.35 -0.31z"/>
  <path id="_20" class="fil0" d="M7.43 13.97l0.4 0.21c-0.13,0.26 -0.29,0.47 -0.46,0.63 -0.17,0.16 -0.37,0.28 -0.59,0.36 -0.22,0.08 -0.46,0.12 -0.74,0.12 -0.61,0 -1.09,-0.2 -1.43,-0.6 -0.34,-0.4 -0.52,-0.85 -0.52,-1.36 0,-0.47 0.15,-0.9 0.44,-1.27 0.37,-0.47 0.86,-0.71 1.48,-0.71 0.64,0 1.15,0.24 1.53,0.73 0.27,0.34 0.41,0.77 0.41,1.28l-3.37 0c0.01,0.43 0.15,0.79 0.42,1.07 0.27,0.28 0.6,0.42 1,0.42 0.19,0 0.38,-0.03 0.56,-0.1 0.18,-0.07 0.33,-0.15 0.46,-0.26 0.13,-0.11 0.26,-0.28 0.41,-0.53zm0 -1.01c-0.06,-0.26 -0.16,-0.46 -0.28,-0.62 -0.12,-0.15 -0.29,-0.28 -0.49,-0.37 -0.2,-0.09 -0.42,-0.14 -0.64,-0.14 -0.37,0 -0.68,0.12 -0.95,0.35 -0.19,0.17 -0.34,0.43 -0.44,0.78l2.8 0z"/>
  <path id="_21" class="fil0" d="M10.51 13.53l-0.84 0c-0.38,0 -0.66,-0.1 -0.85,-0.3 -0.18,-0.2 -0.28,-0.47 -0.28,-0.83l0 -0.94 0.47 0 0 0.68c0,0.44 0.06,0.71 0.19,0.81 0.12,0.1 0.33,0.16 0.61,0.16l0.7 0 0 -1.65 0.48 0 0 3.75 -0.48 0 0 -1.69z"/>
  <polygon id="_22" class="fil0" points="12.06,11.46 12.54,11.46 12.54,13.04 14.27,11.46 14.93,11.46 13.04,13.18 15.08,15.22 14.4,15.22 12.69,13.48 12.54,13.62 12.54,15.22 12.06,15.22 "/>
  <path id="_23" class="fil0" d="M16.06 12.95l0.46 0c0.36,0 0.65,0.03 0.85,0.09 0.21,0.06 0.38,0.19 0.53,0.38 0.15,0.2 0.22,0.42 0.22,0.68 0,0.31 -0.11,0.57 -0.32,0.79 -0.21,0.22 -0.54,0.33 -0.98,0.33l-1.24 0 0 -3.75 0.47 0 0 1.48zm0.02 0.45l0 1.41 0.55 0c0.65,0 0.98,-0.23 0.98,-0.69 0,-0.13 -0.04,-0.26 -0.11,-0.39 -0.07,-0.13 -0.17,-0.21 -0.31,-0.26 -0.13,-0.05 -0.37,-0.08 -0.71,-0.08l-0.41 0zm2.72 -1.93l0.48 0 0 3.75 -0.48 0 0 -3.75z"/>
  <polygon id="_24" class="fil0" points="23.46,15.22 22.95,15.22 21.7,12.48 20.46,15.22 19.94,15.22 21.65,11.46 21.73,11.46 "/>
  <path id="_25" class="fil0" d="M27.9 11.46l0 3.75 -0.48 0 0 -0.65c-0.2,0.25 -0.43,0.43 -0.68,0.55 -0.25,0.12 -0.52,0.18 -0.82,0.18 -0.53,0 -0.98,-0.19 -1.35,-0.58 -0.37,-0.39 -0.56,-0.85 -0.56,-1.4 0,-0.54 0.19,-1 0.57,-1.38 0.38,-0.38 0.83,-0.57 1.36,-0.57 0.31,0 0.58,0.06 0.83,0.19 0.25,0.13 0.46,0.32 0.65,0.59l0 -0.69 0.48 0zm-1.92 0.37c-0.27,0 -0.51,0.07 -0.74,0.2 -0.23,0.13 -0.4,0.32 -0.54,0.55 -0.13,0.24 -0.2,0.49 -0.2,0.76 0,0.26 0.07,0.51 0.2,0.75 0.13,0.24 0.31,0.43 0.54,0.56 0.23,0.13 0.47,0.2 0.73,0.2 0.26,0 0.51,-0.07 0.74,-0.2 0.23,-0.13 0.42,-0.31 0.54,-0.54 0.13,-0.23 0.19,-0.48 0.19,-0.77 0,-0.43 -0.14,-0.79 -0.43,-1.08 -0.28,-0.29 -0.63,-0.44 -1.05,-0.44z"/>
  <path id="_26" class="fil0" d="M32.61 12.24l-0.38 0.24c-0.33,-0.44 -0.78,-0.66 -1.35,-0.66 -0.46,0 -0.84,0.15 -1.14,0.44 -0.3,0.29 -0.45,0.65 -0.45,1.07 0,0.27 0.07,0.53 0.21,0.77 0.14,0.24 0.33,0.43 0.57,0.56 0.24,0.13 0.51,0.2 0.81,0.2 0.55,0 1,-0.22 1.35,-0.66l0.38 0.25c-0.18,0.27 -0.42,0.48 -0.72,0.63 -0.3,0.15 -0.65,0.22 -1.03,0.22 -0.59,0 -1.08,-0.19 -1.47,-0.56 -0.39,-0.38 -0.58,-0.83 -0.58,-1.37 0,-0.36 0.09,-0.7 0.27,-1.01 0.18,-0.31 0.43,-0.55 0.75,-0.73 0.32,-0.17 0.68,-0.26 1.07,-0.26 0.25,0 0.49,0.04 0.72,0.11 0.23,0.08 0.43,0.17 0.59,0.3 0.16,0.12 0.3,0.28 0.41,0.46z"/>
  <path id="_27" class="fil0" d="M34 12.95l0.46 0c0.36,0 0.65,0.03 0.85,0.09 0.21,0.06 0.38,0.19 0.53,0.38 0.15,0.2 0.22,0.42 0.22,0.68 0,0.31 -0.11,0.57 -0.32,0.79 -0.21,0.22 -0.54,0.33 -0.98,0.33l-1.24 0 0 -3.75 0.47 0 0 1.48zm0.02 0.45l0 1.41 0.55 0c0.65,0 0.98,-0.23 0.98,-0.69 0,-0.13 -0.03,-0.26 -0.11,-0.39 -0.07,-0.13 -0.17,-0.21 -0.31,-0.26 -0.13,-0.05 -0.37,-0.08 -0.71,-0.08l-0.41 0z"/>
  <polygon id="_28" class="fil0" points="36.84,11.46 37.31,11.46 37.31,13.04 39.05,11.46 39.71,11.46 37.82,13.18 39.86,15.22 39.18,15.22 37.46,13.48 37.31,13.62 37.31,15.22 36.84,15.22 "/>
  <path id="_29" class="fil0" d="M42.13 11.37c0.57,0 1.05,0.21 1.43,0.63 0.34,0.38 0.52,0.83 0.52,1.35 0,0.52 -0.18,0.98 -0.55,1.37 -0.36,0.39 -0.83,0.59 -1.4,0.59 -0.57,0 -1.04,-0.2 -1.41,-0.59 -0.36,-0.39 -0.55,-0.85 -0.55,-1.37 0,-0.52 0.17,-0.97 0.52,-1.35 0.38,-0.42 0.86,-0.63 1.43,-0.63zm-0 0.47c-0.4,0 -0.74,0.15 -1.03,0.44 -0.29,0.3 -0.43,0.65 -0.43,1.07 0,0.27 0.07,0.52 0.2,0.76 0.13,0.23 0.31,0.41 0.53,0.54 0.22,0.13 0.47,0.19 0.73,0.19 0.27,0 0.51,-0.06 0.73,-0.19 0.22,-0.13 0.4,-0.31 0.53,-0.54 0.13,-0.23 0.2,-0.49 0.2,-0.76 0,-0.42 -0.14,-0.78 -0.43,-1.07 -0.29,-0.3 -0.63,-0.44 -1.03,-0.44z"/>
  <polygon id="_30" class="fil0" points="46.49,11.46 48.94,11.46 48.94,11.88 47.95,11.88 47.95,15.22 47.47,15.22 47.47,11.88 46.49,11.88 "/>
  <polygon id="_31" class="fil0" points="50.07,11.46 50.07,14.24 52.81,11.46 52.85,11.46 52.85,15.22 52.37,15.22 52.37,12.46 49.65,15.22 49.59,15.22 49.59,11.46 "/>
  <polygon id="_32" class="fil0" points="57.08,15.22 56.58,15.22 55.32,12.48 54.08,15.22 53.57,15.22 55.27,11.46 55.36,11.46 "/>
  <path id="_33" class="fil0" d="M60.96 13.97l0.41 0.21c-0.13,0.26 -0.29,0.47 -0.46,0.63 -0.17,0.16 -0.37,0.28 -0.59,0.36 -0.22,0.08 -0.46,0.12 -0.74,0.12 -0.61,0 -1.09,-0.2 -1.43,-0.6 -0.34,-0.4 -0.52,-0.85 -0.52,-1.36 0,-0.47 0.15,-0.9 0.44,-1.27 0.37,-0.47 0.86,-0.71 1.48,-0.71 0.64,0 1.15,0.24 1.53,0.73 0.27,0.34 0.41,0.77 0.41,1.28l-3.37 0c0.01,0.43 0.15,0.79 0.42,1.07 0.27,0.28 0.6,0.42 1,0.42 0.19,0 0.38,-0.03 0.56,-0.1 0.18,-0.07 0.33,-0.15 0.46,-0.26 0.13,-0.11 0.26,-0.28 0.41,-0.53zm0 -1.01c-0.06,-0.26 -0.16,-0.46 -0.28,-0.62 -0.12,-0.15 -0.29,-0.28 -0.49,-0.37 -0.2,-0.09 -0.42,-0.14 -0.64,-0.14 -0.37,0 -0.68,0.12 -0.95,0.35 -0.19,0.17 -0.34,0.43 -0.44,0.78l2.8 0z"/>
  <path id="_34" class="fil0" d="M62.41 14.81l1.44 -3.34 0.25 0 1.43 3.34 0.45 0 0 0.89 -0.46 0 0 -0.48 -3.08 0 0 0.5 -0.48 0 0 -0.91 0.46 0zm1.56 -2.59l-1.09 2.59 2.14 0 -1.05 -2.59z"/>
  <path id="_35" class="fil0" d="M67.1 12.95l0.46 0c0.36,0 0.65,0.03 0.85,0.09 0.21,0.06 0.38,0.19 0.53,0.38 0.15,0.2 0.22,0.42 0.22,0.68 0,0.31 -0.11,0.57 -0.32,0.79 -0.21,0.22 -0.54,0.33 -0.98,0.33l-1.24 0 0 -3.75 0.47 0 0 1.48zm0.02 0.45l0 1.41 0.55 0c0.65,0 0.98,-0.23 0.98,-0.69 0,-0.13 -0.04,-0.26 -0.11,-0.39 -0.07,-0.13 -0.17,-0.21 -0.31,-0.26 -0.13,-0.05 -0.37,-0.08 -0.71,-0.08l-0.41 0zm2.72 -1.93l0.48 0 0 3.75 -0.48 0 0 -3.75z"/>
  <path id="_36" class="fil0" d="M71.96 13.03l0.25 0c0.16,0 0.31,-0.05 0.44,-0.16 0.13,-0.11 0.2,-0.26 0.2,-0.45 0,-0.17 -0.05,-0.31 -0.16,-0.43 -0.11,-0.12 -0.27,-0.18 -0.5,-0.18 -0.26,0 -0.52,0.1 -0.79,0.3l-0.27 -0.33c0.34,-0.28 0.7,-0.42 1.08,-0.42 0.31,0 0.58,0.09 0.79,0.28 0.21,0.18 0.32,0.42 0.32,0.72 0,0.39 -0.17,0.65 -0.52,0.79 0.45,0.19 0.67,0.52 0.67,0.99 0,0.3 -0.11,0.57 -0.31,0.81 -0.21,0.24 -0.52,0.36 -0.94,0.36 -0.51,0 -0.92,-0.17 -1.24,-0.5l0.3 -0.34c0.23,0.26 0.53,0.39 0.9,0.39 0.24,0 0.44,-0.07 0.58,-0.2 0.14,-0.13 0.21,-0.3 0.21,-0.52 0,-0.21 -0.07,-0.38 -0.21,-0.51 -0.14,-0.13 -0.31,-0.19 -0.5,-0.19l-0.3 0 0 -0.42z"/>
  <path id="_37" class="fil0" d="M1.28 24.03l-1.08 0 0 -3.75 1.07 0c0.41,0 0.7,0.09 0.88,0.28 0.18,0.19 0.27,0.41 0.27,0.66 0,0.38 -0.17,0.64 -0.5,0.77 0.48,0.17 0.73,0.51 0.73,1 0,0.69 -0.45,1.04 -1.36,1.04zm-0.61 -3.34l0 1.17 0.31 0c0.29,0 0.47,-0.01 0.56,-0.03 0.09,-0.02 0.17,-0.08 0.25,-0.17 0.08,-0.09 0.12,-0.21 0.12,-0.36 0,-0.16 -0.04,-0.28 -0.12,-0.39 -0.08,-0.11 -0.17,-0.17 -0.25,-0.19 -0.09,-0.02 -0.27,-0.03 -0.55,-0.03l-0.31 0zm0 1.61l0 1.31 0.52 0c0.24,0 0.42,-0.02 0.52,-0.05 0.1,-0.03 0.19,-0.1 0.27,-0.2 0.07,-0.1 0.11,-0.23 0.11,-0.39 0,-0.21 -0.06,-0.37 -0.19,-0.49 -0.13,-0.12 -0.3,-0.18 -0.51,-0.18l-0.72 0z"/>
  <polygon id="_38" class="fil0" points="3.08,20.27 3.58,20.27 4.87,23.15 6.12,20.27 6.63,20.27 4.4,25.4 3.89,25.4 4.62,23.72 "/>
  <path id="_39" class="fil0" d="M10.38 22.29c-0.05,0.42 -0.22,0.75 -0.52,1.01 -0.3,0.25 -0.65,0.38 -1.07,0.38 -0.55,0 -1,-0.22 -1.35,-0.66l-0.38 0.25c0.18,0.29 0.43,0.5 0.75,0.64 0.32,0.14 0.65,0.21 1,0.21 0.6,0 1.1,-0.19 1.48,-0.57 0.38,-0.38 0.58,-0.84 0.58,-1.37 0,-0.56 -0.2,-1.03 -0.59,-1.42 -0.4,-0.39 -0.9,-0.58 -1.5,-0.58 -0.35,0 -0.68,0.08 -1,0.23 -0.32,0.15 -0.55,0.37 -0.71,0.65l0.38 0.24c0.33,-0.44 0.78,-0.66 1.35,-0.66 0.4,0 0.74,0.12 1.03,0.35 0.29,0.23 0.47,0.53 0.55,0.89l-1.66 0 0 0.42 1.66 0z"/>
  <polygon id="_40" class="fil0" points="15.82,20.27 15.96,20.27 17.22,24.03 16.72,24.03 15.79,21.27 14.36,24.03 14.27,24.03 12.83,21.26 11.91,24.03 11.41,24.03 12.68,20.27 12.81,20.27 14.31,23.21 "/>
  <path id="_41" class="fil0" d="M19.97 18.95l0.99 0c0.4,0 0.71,0.05 0.92,0.14 0.22,0.1 0.39,0.24 0.51,0.44 0.13,0.2 0.19,0.42 0.19,0.66 0,0.23 -0.06,0.43 -0.16,0.62 -0.11,0.19 -0.27,0.33 -0.48,0.45 0.26,0.09 0.46,0.19 0.6,0.32 0.14,0.12 0.25,0.27 0.33,0.44 0.08,0.17 0.12,0.36 0.12,0.56 0,0.41 -0.15,0.75 -0.44,1.03 -0.3,0.28 -0.69,0.42 -1.19,0.42l-1.38 0 0 -5.07zm0.49 0.49l0 1.63 0.29 0c0.35,0 0.61,-0.03 0.77,-0.1 0.17,-0.07 0.3,-0.17 0.39,-0.31 0.1,-0.14 0.15,-0.3 0.15,-0.47 0,-0.23 -0.08,-0.41 -0.24,-0.55 -0.16,-0.13 -0.42,-0.2 -0.77,-0.2l-0.59 0zm0 2.13l0 1.95 0.63 0c0.37,0 0.64,-0.04 0.81,-0.11 0.17,-0.07 0.31,-0.19 0.41,-0.34 0.1,-0.15 0.16,-0.32 0.16,-0.5 0,-0.23 -0.07,-0.42 -0.22,-0.59 -0.15,-0.17 -0.35,-0.28 -0.6,-0.35 -0.17,-0.04 -0.47,-0.06 -0.9,-0.06l-0.29 0z"/>
  <path id="_42" class="fil0" d="M24.38 21.76l0.46 0c0.36,0 0.65,0.03 0.85,0.09 0.21,0.06 0.38,0.19 0.53,0.38 0.15,0.2 0.22,0.42 0.22,0.68 0,0.31 -0.11,0.57 -0.32,0.79 -0.21,0.22 -0.54,0.33 -0.98,0.33l-1.24 0 0 -3.75 0.47 0 0 1.48zm0.02 0.45l0 1.41 0.55 0c0.65,0 0.98,-0.23 0.98,-0.69 0,-0.13 -0.03,-0.26 -0.11,-0.39 -0.07,-0.13 -0.17,-0.21 -0.31,-0.26 -0.13,-0.05 -0.37,-0.08 -0.71,-0.08l-0.41 0zm2.72 -1.93l0.48 0 0 3.75 -0.48 0 0 -3.75z"/>
  <polygon id="_43" class="fil0" points="31.78,24.03 31.28,24.03 30.02,21.29 28.78,24.03 28.27,24.03 29.97,20.27 30.05,20.27 "/>
  <path id="_44" class="fil0" d="M32.98 21.76l0.46 0c0.36,0 0.65,0.03 0.85,0.09 0.21,0.06 0.38,0.19 0.53,0.38 0.15,0.2 0.22,0.42 0.22,0.68 0,0.31 -0.11,0.57 -0.32,0.79 -0.21,0.22 -0.54,0.33 -0.98,0.33l-1.24 0 0 -3.75 0.47 0 0 1.48zm0.02 0.45l0 1.41 0.55 0c0.65,0 0.98,-0.23 0.98,-0.69 0,-0.13 -0.04,-0.26 -0.11,-0.39 -0.07,-0.13 -0.17,-0.21 -0.31,-0.26 -0.13,-0.05 -0.37,-0.08 -0.71,-0.08l-0.41 0z"/>
  <path id="_45" class="fil0" d="M41.48 20.27l0 3.75 -0.48 0 0 -0.65c-0.2,0.25 -0.43,0.43 -0.68,0.55 -0.25,0.12 -0.52,0.18 -0.82,0.18 -0.53,0 -0.98,-0.19 -1.35,-0.58 -0.37,-0.39 -0.56,-0.85 -0.56,-1.4 0,-0.54 0.19,-1 0.57,-1.38 0.38,-0.38 0.83,-0.57 1.36,-0.57 0.31,0 0.58,0.06 0.83,0.19 0.25,0.13 0.46,0.32 0.65,0.59l0 -0.69 0.48 0zm-1.92 0.37c-0.27,0 -0.51,0.07 -0.74,0.2 -0.23,0.13 -0.4,0.32 -0.54,0.55 -0.13,0.24 -0.2,0.49 -0.2,0.76 0,0.26 0.07,0.51 0.2,0.75 0.13,0.24 0.31,0.43 0.54,0.56 0.23,0.13 0.47,0.2 0.73,0.2 0.26,0 0.51,-0.07 0.74,-0.2 0.23,-0.13 0.42,-0.31 0.54,-0.54 0.13,-0.23 0.19,-0.48 0.19,-0.77 0,-0.43 -0.14,-0.79 -0.43,-1.08 -0.28,-0.29 -0.63,-0.44 -1.05,-0.44z"/>
  <path id="_46" class="fil0" d="M42.57 20.27l0.48 0 0 0.69c0.19,-0.26 0.41,-0.46 0.65,-0.59 0.25,-0.13 0.52,-0.19 0.83,-0.19 0.53,0 0.98,0.19 1.36,0.57 0.38,0.38 0.57,0.84 0.57,1.38 0,0.55 -0.19,1.02 -0.56,1.4 -0.37,0.38 -0.82,0.58 -1.35,0.58 -0.3,0 -0.57,-0.06 -0.82,-0.19 -0.25,-0.12 -0.47,-0.31 -0.68,-0.56l0 2.02 -0.48 0 0 -5.12zm1.92 0.37c-0.42,0 -0.76,0.14 -1.05,0.44 -0.28,0.29 -0.43,0.65 -0.43,1.08 0,0.28 0.06,0.54 0.19,0.77 0.13,0.23 0.31,0.41 0.54,0.54 0.24,0.13 0.49,0.2 0.75,0.2 0.26,0 0.5,-0.07 0.73,-0.2 0.23,-0.13 0.41,-0.32 0.54,-0.56 0.13,-0.24 0.2,-0.49 0.2,-0.75 0,-0.27 -0.07,-0.52 -0.2,-0.76 -0.13,-0.24 -0.31,-0.42 -0.54,-0.55 -0.22,-0.13 -0.47,-0.2 -0.74,-0.2z"/>
  <path id="_47" class="fil0" d="M50.5 22.78l0.41 0.21c-0.13,0.26 -0.29,0.47 -0.46,0.63 -0.17,0.16 -0.37,0.28 -0.59,0.36 -0.22,0.08 -0.46,0.12 -0.74,0.12 -0.61,0 -1.09,-0.2 -1.43,-0.6 -0.34,-0.4 -0.52,-0.85 -0.52,-1.36 0,-0.47 0.15,-0.9 0.44,-1.27 0.37,-0.47 0.86,-0.71 1.48,-0.71 0.64,0 1.15,0.24 1.53,0.73 0.27,0.34 0.41,0.77 0.41,1.28l-3.37 0c0.01,0.43 0.15,0.79 0.42,1.07 0.27,0.28 0.6,0.42 1,0.42 0.19,0 0.38,-0.03 0.56,-0.1 0.18,-0.07 0.33,-0.15 0.46,-0.26 0.13,-0.11 0.26,-0.28 0.41,-0.53zm0 -1.01c-0.06,-0.26 -0.16,-0.46 -0.28,-0.62 -0.12,-0.15 -0.29,-0.28 -0.49,-0.37 -0.2,-0.09 -0.42,-0.14 -0.64,-0.14 -0.37,0 -0.68,0.12 -0.95,0.35 -0.19,0.17 -0.34,0.43 -0.44,0.78l2.8 0z"/>
  <polygon id="_48" class="fil0" points="54.57,22.22 52.39,22.22 52.39,24.03 51.91,24.03 51.91,20.27 52.39,20.27 52.39,21.77 54.57,21.77 54.57,20.27 55.05,20.27 55.05,24.03 54.57,24.03 "/>
  <path id="_49" class="fil0" d="M56.86 18.83l0 3.93 -0.49 0 0 -3.93 0.49 0zm-0.24 4.44c0.12,0 0.21,0.04 0.3,0.12 0.08,0.08 0.12,0.18 0.12,0.3 0,0.12 -0.04,0.22 -0.12,0.3 -0.08,0.08 -0.18,0.13 -0.3,0.13 -0.12,0 -0.21,-0.04 -0.3,-0.13 -0.08,-0.08 -0.12,-0.18 -0.12,-0.3 0,-0.12 0.04,-0.22 0.12,-0.3 0.08,-0.08 0.18,-0.12 0.3,-0.12z"/>
  <path class="fil0" d="M0.95 0c0.1,0 0.19,0.04 0.26,0.11 0.07,0.07 0.11,0.16 0.11,0.26 0,0.1 -0.04,0.19 -0.11,0.26 -0.07,0.07 -0.16,0.11 -0.26,0.11 -0.1,0 -0.19,-0.04 -0.26,-0.11 -0.07,-0.07 -0.11,-0.16 -0.11,-0.26 0,-0.1 0.04,-0.19 0.11,-0.26 0.07,-0.07 0.16,-0.11 0.26,-0.11zm1.42 0c0.1,0 0.19,0.04 0.26,0.11 0.07,0.07 0.11,0.16 0.11,0.26 0,0.1 -0.04,0.19 -0.11,0.26 -0.07,0.07 -0.16,0.11 -0.26,0.11 -0.1,0 -0.19,-0.04 -0.26,-0.11 -0.07,-0.07 -0.11,-0.16 -0.11,-0.26 0,-0.1 0.04,-0.19 0.11,-0.26 0.07,-0.07 0.16,-0.11 0.26,-0.11z"/>
  <path class="fil0" d="M0.95 8.89c0.1,0 0.19,0.04 0.26,0.11 0.07,0.07 0.11,0.16 0.11,0.26 0,0.1 -0.04,0.19 -0.11,0.26 -0.07,0.07 -0.16,0.11 -0.26,0.11 -0.1,0 -0.19,-0.04 -0.26,-0.11 -0.07,-0.07 -0.11,-0.16 -0.11,-0.26 0,-0.1 0.04,-0.19 0.11,-0.26 0.07,-0.07 0.16,-0.11 0.26,-0.11zm1.42 0c0.1,0 0.19,0.04 0.26,0.11 0.07,0.07 0.11,0.16 0.11,0.26 0,0.1 -0.04,0.19 -0.11,0.26 -0.07,0.07 -0.16,0.11 -0.26,0.11 -0.1,0 -0.19,-0.04 -0.26,-0.11 -0.07,-0.07 -0.11,-0.16 -0.11,-0.26 0,-0.1 0.04,-0.19 0.11,-0.26 0.07,-0.07 0.16,-0.11 0.26,-0.11z"/>
  <path class="fil0" d="M50.62 9.95c0.1,0 0.19,0.04 0.26,0.11 0.07,0.07 0.11,0.16 0.11,0.26 0,0.1 -0.04,0.19 -0.11,0.26 -0.07,0.07 -0.16,0.11 -0.26,0.11 -0.1,0 -0.19,-0.04 -0.26,-0.11 -0.07,-0.07 -0.11,-0.16 -0.11,-0.26 0,-0.1 0.04,-0.19 0.11,-0.26 0.07,-0.07 0.16,-0.11 0.26,-0.11zm1.42 0c0.1,0 0.19,0.04 0.26,0.11 0.07,0.07 0.11,0.16 0.11,0.26 0,0.1 -0.04,0.19 -0.11,0.26 -0.07,0.07 -0.16,0.11 -0.26,0.11 -0.1,0 -0.19,-0.04 -0.26,-0.11 -0.07,-0.07 -0.11,-0.16 -0.11,-0.26 0,-0.1 0.04,-0.19 0.11,-0.26 0.07,-0.07 0.16,-0.11 0.26,-0.11z"/>
 </g>
</svg>
