<?xml version="1.0" encoding="UTF-8"?>
<!DOCTYPE svg PUBLIC "-//W3C//DTD SVG 1.1//EN" "http://www.w3.org/Graphics/SVG/1.1/DTD/svg11.dtd">
<!-- Creator: CorelDRAW -->
<svg xmlns="http://www.w3.org/2000/svg" xml:space="preserve" width="27.5436mm" height="9.377mm" version="1.1" style="shape-rendering:geometricPrecision; text-rendering:geometricPrecision; image-rendering:optimizeQuality; fill-rule:evenodd; clip-rule:evenodd"
viewBox="0 0 57.67 19.63"
 xmlns:xlink="http://www.w3.org/1999/xlink"
 xmlns:xodm="http://www.corel.com/coreldraw/odm/2003">
 <defs>
  <style type="text/css">
   <![CDATA[
    .fil0 {fill:#656554;fill-rule:nonzero}
   ]]>
  </style>
 </defs>
 <g id="Слой_x0020_1">
  <metadata id="CorelCorpID_0Corel-Layer"/>
  <path class="fil0" d="M-0 3.63l0.49 -0.13c0.04,0.19 0.14,0.38 0.3,0.57 0.16,0.19 0.38,0.29 0.65,0.29 0.27,0 0.49,-0.07 0.65,-0.21 0.16,-0.14 0.24,-0.31 0.24,-0.51 0,-0.22 -0.08,-0.39 -0.25,-0.52 -0.17,-0.13 -0.39,-0.19 -0.68,-0.19l-0.25 0 0 -0.46c0.24,0 0.42,-0.01 0.54,-0.04 0.13,-0.03 0.24,-0.1 0.33,-0.21 0.1,-0.11 0.15,-0.24 0.15,-0.39 0,-0.17 -0.07,-0.32 -0.2,-0.45 -0.13,-0.13 -0.31,-0.19 -0.53,-0.19 -0.2,0 -0.36,0.05 -0.5,0.15 -0.14,0.1 -0.23,0.23 -0.29,0.4 -0.05,0.16 -0.08,0.29 -0.08,0.37l-0.5 -0.12c0.12,-0.84 0.58,-1.26 1.37,-1.26 0.38,0 0.68,0.11 0.91,0.32 0.22,0.21 0.34,0.46 0.34,0.75 0,0.37 -0.17,0.65 -0.52,0.85 0.2,0.06 0.37,0.17 0.5,0.34 0.13,0.17 0.2,0.38 0.2,0.62 0,0.34 -0.13,0.62 -0.39,0.85 -0.26,0.23 -0.61,0.34 -1.04,0.34 -0.74,0 -1.22,-0.39 -1.45,-1.18zm0.74 -3.07l0 -0.55 0.5 0 0 0.55 -0.5 0zm1 0l0 -0.55 0.5 0 0 0.55 -0.5 0z"/>
  <path id="_1" class="fil0" d="M5.4 3.81l0.5 0.07c-0.08,0.29 -0.22,0.52 -0.43,0.68 -0.21,0.16 -0.48,0.24 -0.81,0.24 -0.41,0 -0.74,-0.13 -0.99,-0.39 -0.24,-0.26 -0.36,-0.62 -0.36,-1.08 0,-0.48 0.12,-0.85 0.37,-1.12 0.25,-0.27 0.56,-0.4 0.96,-0.4 0.38,0 0.69,0.13 0.93,0.39 0.24,0.26 0.36,0.63 0.36,1.1 0,0.03 -0,0.07 -0,0.13l-2.12 0c0.02,0.31 0.11,0.55 0.26,0.72 0.16,0.17 0.36,0.25 0.59,0.25 0.18,0 0.33,-0.05 0.45,-0.14 0.12,-0.09 0.22,-0.24 0.3,-0.45zm-1.58 -0.78l1.58 0c-0.02,-0.24 -0.08,-0.42 -0.18,-0.54 -0.15,-0.19 -0.35,-0.28 -0.59,-0.28 -0.22,0 -0.41,0.07 -0.56,0.22 -0.15,0.15 -0.23,0.35 -0.25,0.6z"/>
  <path id="_2" class="fil0" d="M6.14 1.88l0.48 0 0 0.54c0,0.23 0.01,0.4 0.04,0.51 0.03,0.1 0.09,0.2 0.2,0.27 0.11,0.08 0.24,0.12 0.4,0.12 0.18,0 0.42,-0.05 0.71,-0.15l0 -1.29 0.48 0 0 2.86 -0.48 0 0 -1.15c-0.3,0.09 -0.57,0.14 -0.83,0.14 -0.22,0 -0.41,-0.06 -0.57,-0.17 -0.17,-0.11 -0.28,-0.25 -0.34,-0.4 -0.06,-0.16 -0.09,-0.34 -0.09,-0.53l0 -0.75z"/>
  <path id="_3" class="fil0" d="M11.25 0.7l0.43 0.01c-0.02,0.19 -0.06,0.33 -0.13,0.4 -0.06,0.08 -0.15,0.12 -0.25,0.15 -0.1,0.02 -0.3,0.03 -0.6,0.03 -0.4,0 -0.67,0.04 -0.81,0.12 -0.14,0.08 -0.25,0.2 -0.31,0.37 -0.06,0.17 -0.1,0.39 -0.1,0.65 0.12,-0.18 0.26,-0.32 0.43,-0.41 0.16,-0.09 0.35,-0.14 0.55,-0.14 0.37,0 0.68,0.13 0.93,0.39 0.24,0.26 0.37,0.61 0.37,1.04 0,0.33 -0.06,0.61 -0.18,0.82 -0.12,0.21 -0.27,0.38 -0.44,0.49 -0.17,0.12 -0.4,0.17 -0.69,0.17 -0.34,0 -0.6,-0.08 -0.79,-0.23 -0.19,-0.16 -0.33,-0.35 -0.43,-0.6 -0.1,-0.24 -0.15,-0.66 -0.15,-1.26 0,-0.75 0.13,-1.26 0.38,-1.52 0.25,-0.26 0.64,-0.39 1.17,-0.39 0.33,0 0.51,-0.01 0.56,-0.02 0.04,-0.01 0.07,-0.04 0.08,-0.08zm-0.02 2.6c0,-0.3 -0.07,-0.54 -0.21,-0.73 -0.14,-0.19 -0.34,-0.28 -0.59,-0.28 -0.27,0 -0.47,0.1 -0.61,0.3 -0.14,0.2 -0.22,0.47 -0.22,0.8 0,0.33 0.08,0.58 0.24,0.76 0.16,0.18 0.36,0.26 0.59,0.26 0.24,0 0.43,-0.1 0.58,-0.3 0.15,-0.2 0.22,-0.47 0.22,-0.81z"/>
  <path id="_4" class="fil0" d="M12.17 5.84l-0.05 -0.45c0.11,0.03 0.2,0.04 0.28,0.04 0.11,0 0.19,-0.02 0.26,-0.05 0.06,-0.04 0.12,-0.09 0.16,-0.15 0.03,-0.05 0.08,-0.17 0.15,-0.36 0.01,-0.03 0.02,-0.07 0.04,-0.12l-1.08 -2.87 0.51 0 0.59 1.65c0.08,0.21 0.15,0.43 0.21,0.66 0.06,-0.22 0.12,-0.43 0.2,-0.64l0.61 -1.67 0.48 0 -1.07 2.91c-0.12,0.31 -0.21,0.53 -0.27,0.65 -0.09,0.16 -0.18,0.28 -0.29,0.35 -0.11,0.07 -0.24,0.11 -0.4,0.11 -0.09,0 -0.2,-0.02 -0.31,-0.06z"/>
  <path id="_5" class="fil0" d="M14.87 5.83l0 -3.96 0.44 0 0 0.38c0.1,-0.15 0.22,-0.25 0.35,-0.33 0.13,-0.07 0.29,-0.11 0.47,-0.11 0.24,0 0.46,0.06 0.64,0.19 0.19,0.12 0.32,0.3 0.42,0.53 0.09,0.23 0.14,0.48 0.14,0.75 0,0.29 -0.05,0.55 -0.16,0.79 -0.1,0.23 -0.26,0.41 -0.45,0.54 -0.2,0.12 -0.41,0.19 -0.63,0.19 -0.16,0 -0.3,-0.03 -0.43,-0.1 -0.13,-0.07 -0.23,-0.15 -0.31,-0.26l0 1.39 -0.48 0zm0.44 -2.51c0,0.37 0.07,0.64 0.22,0.81 0.15,0.18 0.33,0.26 0.54,0.26 0.21,0 0.4,-0.09 0.55,-0.27 0.15,-0.18 0.23,-0.46 0.23,-0.84 0,-0.36 -0.07,-0.64 -0.22,-0.82 -0.15,-0.18 -0.33,-0.27 -0.53,-0.27 -0.2,0 -0.39,0.1 -0.54,0.29 -0.16,0.19 -0.24,0.47 -0.24,0.84z"/>
  <path id="_6" class="fil0" d="M18.04 4.74l0 -0.55 0.55 0 0 0.55c0,0.2 -0.04,0.37 -0.11,0.49 -0.07,0.12 -0.19,0.22 -0.34,0.29l-0.13 -0.21c0.1,-0.05 0.18,-0.11 0.22,-0.2 0.05,-0.09 0.08,-0.21 0.08,-0.38l-0.27 0z"/>
  <path id="_7" class="fil0" d="M21.67 3.07l0 0.4 1 0c-0.03,0.31 -0.11,0.54 -0.24,0.7 -0.13,0.16 -0.31,0.23 -0.54,0.23 -0.41,0 -0.65,-0.24 -0.72,-0.71l-0.47 0.07c0.05,0.31 0.18,0.56 0.39,0.75 0.21,0.19 0.48,0.29 0.82,0.29 0.4,0.02 0.71,-0.11 0.93,-0.39 0.22,-0.28 0.33,-0.65 0.31,-1.1 0,-0.46 -0.12,-0.83 -0.34,-1.09 -0.23,-0.27 -0.54,-0.4 -0.94,-0.4 -0.32,0 -0.57,0.08 -0.77,0.25 -0.2,0.17 -0.31,0.39 -0.36,0.65l0.47 0.08c0.08,-0.39 0.3,-0.58 0.68,-0.58 0.21,0 0.39,0.08 0.52,0.24 0.14,0.16 0.22,0.36 0.25,0.62l-1 0z"/>
  <polygon id="_8" class="fil0" points="23.77,1.88 24.25,1.88 24.25,4.34 25.34,4.34 25.34,1.88 25.83,1.88 25.83,4.34 26.92,4.34 26.92,1.88 27.4,1.88 27.4,4.74 23.77,4.74 "/>
  <path id="_9" class="fil0" d="M27.89 1.88l1.27 0 0 1.12 0.61 0c0.43,0 0.75,0.08 0.94,0.25 0.2,0.17 0.29,0.38 0.29,0.62 0,0.26 -0.1,0.46 -0.28,0.62 -0.19,0.16 -0.47,0.24 -0.84,0.24l-1.2 0 0 -2.46 -0.79 0 0 -0.4zm1.27 2.47l0.51 0c0.31,0 0.52,-0.04 0.65,-0.11 0.13,-0.07 0.19,-0.19 0.19,-0.36 0,-0.15 -0.05,-0.27 -0.16,-0.35 -0.11,-0.08 -0.32,-0.12 -0.62,-0.12l-0.57 0 0 0.95z"/>
  <path id="_10" class="fil0" d="M33.5 3.81l0.5 0.07c-0.08,0.29 -0.22,0.52 -0.43,0.68 -0.21,0.16 -0.48,0.24 -0.81,0.24 -0.41,0 -0.74,-0.13 -0.99,-0.39 -0.24,-0.26 -0.36,-0.62 -0.36,-1.08 0,-0.48 0.12,-0.85 0.37,-1.12 0.25,-0.27 0.56,-0.4 0.96,-0.4 0.38,0 0.69,0.13 0.93,0.39 0.24,0.26 0.36,0.63 0.36,1.1 0,0.03 -0,0.07 -0,0.13l-2.12 0c0.02,0.31 0.11,0.55 0.26,0.72 0.16,0.17 0.36,0.25 0.59,0.25 0.18,0 0.33,-0.05 0.45,-0.14 0.12,-0.09 0.22,-0.24 0.3,-0.45zm-1.58 -0.78l1.58 0c-0.02,-0.24 -0.08,-0.42 -0.18,-0.54 -0.15,-0.19 -0.35,-0.28 -0.6,-0.28 -0.22,0 -0.41,0.07 -0.56,0.22 -0.15,0.15 -0.23,0.35 -0.25,0.6zm0.02 -1.51l0 -0.55 0.5 0 0 0.55 -0.5 0zm1 0l0 -0.55 0.5 0 0 0.55 -0.5 0z"/>
  <path id="_11" class="fil0" d="M36.47 3.69l0.47 0.07c-0.05,0.33 -0.18,0.58 -0.4,0.76 -0.21,0.18 -0.47,0.28 -0.78,0.28 -0.39,0 -0.7,-0.13 -0.94,-0.38 -0.24,-0.26 -0.35,-0.62 -0.35,-1.1 0,-0.31 0.05,-0.58 0.15,-0.81 0.1,-0.23 0.26,-0.4 0.46,-0.52 0.21,-0.12 0.43,-0.17 0.68,-0.17 0.31,0 0.56,0.08 0.76,0.23 0.2,0.16 0.32,0.38 0.38,0.67l-0.47 0.07c-0.04,-0.19 -0.12,-0.34 -0.24,-0.43 -0.11,-0.1 -0.25,-0.15 -0.41,-0.15 -0.24,0 -0.44,0.09 -0.59,0.26 -0.15,0.18 -0.23,0.45 -0.23,0.83 0,0.38 0.07,0.66 0.22,0.84 0.15,0.17 0.34,0.26 0.57,0.26 0.19,0 0.35,-0.06 0.47,-0.17 0.13,-0.12 0.21,-0.29 0.24,-0.54z"/>
  <path id="_12" class="fil0" d="M37.6 3.76l-0.15 -2.09 0 -0.87 0.6 0 0 0.87 -0.14 2.09 -0.31 0zm-0.13 0.98l0 -0.55 0.55 0 0 0.55 -0.55 0z"/>
  <path id="_13" class="fil0" d="M0.22 7.66l0.52 0 0 1.73c0.24,0 0.4,-0.05 0.5,-0.14 0.1,-0.09 0.22,-0.31 0.37,-0.67 0.11,-0.26 0.2,-0.44 0.27,-0.55 0.07,-0.11 0.17,-0.2 0.3,-0.27 0.13,-0.07 0.27,-0.11 0.43,-0.11 0.2,0 0.3,0 0.32,0.01l0 0.45c-0.02,0 -0.05,-0 -0.1,-0 -0.06,-0 -0.09,-0 -0.1,-0 -0.17,0 -0.29,0.04 -0.37,0.12 -0.08,0.08 -0.18,0.25 -0.28,0.52 -0.13,0.33 -0.24,0.55 -0.33,0.63 -0.09,0.09 -0.2,0.16 -0.33,0.21 0.25,0.07 0.5,0.31 0.75,0.71l0.81 1.31 -0.64 0 -0.66 -1.07c-0.18,-0.3 -0.33,-0.5 -0.45,-0.61 -0.12,-0.11 -0.28,-0.17 -0.47,-0.17l0 1.85 -0.52 0 0 -3.94z"/>
  <path id="_14" class="fil0" d="M5.28 10.68l0.5 0.07c-0.08,0.29 -0.22,0.52 -0.43,0.68 -0.21,0.16 -0.48,0.24 -0.81,0.24 -0.41,0 -0.74,-0.13 -0.99,-0.39 -0.24,-0.26 -0.36,-0.62 -0.36,-1.08 0,-0.48 0.12,-0.85 0.37,-1.12 0.25,-0.27 0.56,-0.4 0.96,-0.4 0.38,0 0.69,0.13 0.93,0.39 0.24,0.26 0.36,0.63 0.36,1.1 0,0.03 -0,0.07 -0,0.13l-2.12 0c0.02,0.31 0.11,0.55 0.26,0.72 0.16,0.17 0.36,0.25 0.59,0.25 0.18,0 0.33,-0.05 0.45,-0.14 0.12,-0.09 0.22,-0.24 0.3,-0.45zm-1.58 -0.78l1.58 0c-0.02,-0.24 -0.08,-0.42 -0.18,-0.54 -0.15,-0.19 -0.35,-0.28 -0.59,-0.28 -0.22,0 -0.41,0.07 -0.56,0.22 -0.15,0.15 -0.23,0.35 -0.25,0.6z"/>
  <polygon id="_15" class="fil0" points="6.4,8.75 7.15,8.75 7.9,11.04 8.73,8.75 9.42,8.75 9.42,11.61 8.93,11.61 8.93,9.3 8.1,11.61 7.67,11.61 6.88,9.19 6.88,11.61 6.4,11.61 "/>
  <path id="_16" class="fil0" d="M12.01 11.25c-0.18,0.15 -0.35,0.26 -0.52,0.32 -0.17,0.06 -0.34,0.09 -0.53,0.09 -0.31,0 -0.55,-0.08 -0.72,-0.23 -0.17,-0.15 -0.25,-0.35 -0.25,-0.59 0,-0.14 0.03,-0.27 0.1,-0.38 0.06,-0.12 0.15,-0.21 0.25,-0.28 0.1,-0.07 0.22,-0.12 0.35,-0.16 0.09,-0.02 0.24,-0.05 0.43,-0.07 0.39,-0.05 0.68,-0.1 0.86,-0.17 0,-0.07 0,-0.11 0,-0.13 0,-0.2 -0.05,-0.34 -0.14,-0.42 -0.12,-0.11 -0.31,-0.16 -0.55,-0.16 -0.23,0 -0.4,0.04 -0.5,0.12 -0.11,0.08 -0.19,0.22 -0.24,0.43l-0.47 -0.07c0.04,-0.2 0.11,-0.37 0.21,-0.49 0.1,-0.12 0.24,-0.22 0.43,-0.29 0.19,-0.07 0.4,-0.1 0.65,-0.1 0.24,0 0.44,0.03 0.59,0.09 0.15,0.06 0.26,0.13 0.33,0.22 0.07,0.09 0.12,0.2 0.15,0.33 0.02,0.08 0.02,0.23 0.02,0.45l0 0.64c0,0.45 0.01,0.73 0.03,0.85 0.02,0.12 0.06,0.24 0.12,0.35l-0.5 0c-0.05,-0.1 -0.08,-0.22 -0.09,-0.36zm-0.04 -1.07c-0.18,0.07 -0.44,0.13 -0.79,0.18 -0.2,0.03 -0.34,0.06 -0.42,0.1 -0.08,0.04 -0.15,0.09 -0.19,0.16 -0.04,0.07 -0.07,0.15 -0.07,0.23 0,0.13 0.05,0.24 0.15,0.32 0.1,0.09 0.24,0.13 0.43,0.13 0.19,0 0.35,-0.04 0.5,-0.12 0.14,-0.08 0.25,-0.19 0.32,-0.33 0.05,-0.11 0.08,-0.27 0.08,-0.48l0 -0.18z"/>
  <path id="_17" class="fil0" d="M13.43 8.75l2.24 0 0 2.86 -0.48 0 0 -2.45 -1.28 0 0 1.42c0,0.33 -0.01,0.55 -0.03,0.66 -0.02,0.11 -0.08,0.2 -0.18,0.28 -0.1,0.08 -0.24,0.12 -0.42,0.12 -0.11,0 -0.24,-0.01 -0.39,-0.02l0 -0.4 0.21 0c0.1,0 0.17,-0.01 0.21,-0.03 0.04,-0.02 0.07,-0.05 0.09,-0.1 0.01,-0.05 0.02,-0.19 0.02,-0.44l0 -1.88z"/>
  <path id="_18" class="fil0" d="M18.25 11.25c-0.18,0.15 -0.35,0.26 -0.52,0.32 -0.17,0.06 -0.34,0.09 -0.53,0.09 -0.31,0 -0.55,-0.08 -0.72,-0.23 -0.17,-0.15 -0.25,-0.35 -0.25,-0.59 0,-0.14 0.03,-0.27 0.09,-0.38 0.06,-0.12 0.15,-0.21 0.25,-0.28 0.1,-0.07 0.22,-0.12 0.35,-0.16 0.09,-0.02 0.24,-0.05 0.43,-0.07 0.39,-0.05 0.68,-0.1 0.86,-0.17 0,-0.07 0,-0.11 0,-0.13 0,-0.2 -0.05,-0.34 -0.14,-0.42 -0.12,-0.11 -0.31,-0.16 -0.55,-0.16 -0.23,0 -0.4,0.04 -0.5,0.12 -0.11,0.08 -0.19,0.22 -0.24,0.43l-0.47 -0.07c0.04,-0.2 0.11,-0.37 0.21,-0.49 0.1,-0.12 0.24,-0.22 0.43,-0.29 0.19,-0.07 0.4,-0.1 0.65,-0.1 0.24,0 0.44,0.03 0.59,0.09 0.15,0.06 0.26,0.13 0.33,0.22 0.07,0.09 0.12,0.2 0.15,0.33 0.02,0.08 0.02,0.23 0.02,0.45l0 0.64c0,0.45 0.01,0.73 0.03,0.85 0.02,0.12 0.06,0.24 0.12,0.35l-0.5 0c-0.05,-0.1 -0.08,-0.22 -0.09,-0.36zm-0.04 -1.07c-0.18,0.07 -0.44,0.13 -0.79,0.18 -0.2,0.03 -0.34,0.06 -0.42,0.1 -0.08,0.04 -0.15,0.09 -0.19,0.16 -0.04,0.07 -0.07,0.15 -0.07,0.23 0,0.13 0.05,0.24 0.15,0.32 0.1,0.09 0.24,0.13 0.43,0.13 0.19,0 0.35,-0.04 0.5,-0.12 0.14,-0.08 0.25,-0.19 0.32,-0.33 0.05,-0.11 0.08,-0.27 0.08,-0.48l0 -0.18z"/>
  <path id="_19" class="fil0" d="M21.29 10.56l0.47 0.07c-0.05,0.33 -0.18,0.58 -0.4,0.76 -0.21,0.18 -0.47,0.28 -0.78,0.28 -0.39,0 -0.7,-0.13 -0.94,-0.38 -0.24,-0.26 -0.35,-0.62 -0.35,-1.1 0,-0.31 0.05,-0.58 0.15,-0.81 0.1,-0.23 0.26,-0.4 0.46,-0.52 0.21,-0.12 0.43,-0.17 0.68,-0.17 0.31,0 0.56,0.08 0.76,0.23 0.2,0.16 0.32,0.38 0.38,0.67l-0.47 0.07c-0.04,-0.19 -0.12,-0.34 -0.24,-0.43 -0.11,-0.1 -0.25,-0.15 -0.41,-0.15 -0.24,0 -0.44,0.09 -0.59,0.26 -0.15,0.18 -0.23,0.45 -0.23,0.83 0,0.38 0.07,0.66 0.22,0.84 0.15,0.17 0.34,0.26 0.57,0.26 0.19,0 0.35,-0.06 0.47,-0.17 0.13,-0.12 0.21,-0.29 0.24,-0.54z"/>
  <path id="_20" class="fil0" d="M22.16 8.75l0.48 0 0 1.12 0.61 0c0.4,0 0.7,0.08 0.92,0.23 0.21,0.16 0.32,0.37 0.32,0.64 0,0.24 -0.09,0.44 -0.27,0.61 -0.18,0.17 -0.47,0.25 -0.86,0.25l-1.2 0 0 -2.86zm0.48 2.46l0.51 0c0.31,0 0.52,-0.04 0.65,-0.11 0.13,-0.08 0.2,-0.19 0.2,-0.35 0,-0.12 -0.05,-0.23 -0.15,-0.33 -0.1,-0.1 -0.31,-0.15 -0.64,-0.15l-0.57 0 0 0.94z"/>
  <path id="_21" class="fil0" d="M26.37 10.18c0,-0.53 0.15,-0.92 0.44,-1.17 0.24,-0.21 0.54,-0.32 0.89,-0.32 0.39,0 0.71,0.13 0.96,0.39 0.25,0.26 0.37,0.61 0.37,1.06 0,0.37 -0.05,0.66 -0.16,0.87 -0.11,0.21 -0.27,0.37 -0.48,0.49 -0.21,0.12 -0.44,0.17 -0.69,0.17 -0.4,0 -0.72,-0.13 -0.96,-0.38 -0.25,-0.26 -0.37,-0.63 -0.37,-1.11zm0.49 0c0,0.37 0.08,0.64 0.24,0.82 0.16,0.18 0.36,0.27 0.6,0.27 0.24,0 0.44,-0.09 0.6,-0.27 0.16,-0.18 0.24,-0.46 0.24,-0.83 0,-0.35 -0.08,-0.62 -0.24,-0.8 -0.16,-0.18 -0.36,-0.27 -0.6,-0.27 -0.24,0 -0.44,0.09 -0.6,0.27 -0.16,0.18 -0.24,0.45 -0.24,0.82zm0.08 -1.78l0 -0.55 0.5 0 0 0.55 -0.5 0zm1 0l0 -0.55 0.5 0 0 0.55 -0.5 0z"/>
  <polygon id="_22" class="fil0" points="29.61,8.75 30.35,8.75 31.1,11.04 31.93,8.75 32.62,8.75 32.62,11.61 32.14,11.61 32.14,9.3 31.3,11.61 30.87,11.61 30.08,9.19 30.08,11.61 29.61,11.61 "/>
  <path id="_23" class="fil0" d="M36.74 11.25c-0.18,0.15 -0.35,0.26 -0.52,0.32 -0.17,0.06 -0.34,0.09 -0.53,0.09 -0.31,0 -0.55,-0.08 -0.72,-0.23 -0.17,-0.15 -0.25,-0.35 -0.25,-0.59 0,-0.14 0.03,-0.27 0.09,-0.38 0.06,-0.12 0.15,-0.21 0.25,-0.28 0.1,-0.07 0.22,-0.12 0.35,-0.16 0.09,-0.02 0.24,-0.05 0.43,-0.07 0.39,-0.05 0.68,-0.1 0.86,-0.17 0,-0.07 0,-0.11 0,-0.13 0,-0.2 -0.05,-0.34 -0.14,-0.42 -0.12,-0.11 -0.31,-0.16 -0.55,-0.16 -0.23,0 -0.4,0.04 -0.5,0.12 -0.11,0.08 -0.19,0.22 -0.24,0.43l-0.47 -0.07c0.04,-0.2 0.11,-0.37 0.21,-0.49 0.1,-0.12 0.24,-0.22 0.43,-0.29 0.19,-0.07 0.4,-0.1 0.65,-0.1 0.24,0 0.44,0.03 0.59,0.09 0.15,0.06 0.26,0.13 0.33,0.22 0.07,0.09 0.12,0.2 0.15,0.33 0.02,0.08 0.02,0.23 0.02,0.45l0 0.64c0,0.45 0.01,0.73 0.03,0.85 0.02,0.12 0.06,0.24 0.12,0.35l-0.5 0c-0.05,-0.1 -0.08,-0.22 -0.09,-0.36zm-0.04 -1.07c-0.18,0.07 -0.44,0.13 -0.79,0.18 -0.2,0.03 -0.34,0.06 -0.42,0.1 -0.08,0.04 -0.15,0.09 -0.19,0.16 -0.04,0.07 -0.07,0.15 -0.07,0.23 0,0.13 0.05,0.24 0.15,0.32 0.1,0.09 0.24,0.13 0.43,0.13 0.19,0 0.35,-0.04 0.5,-0.12 0.14,-0.08 0.25,-0.19 0.32,-0.33 0.05,-0.11 0.08,-0.27 0.08,-0.48l0 -0.18z"/>
  <path id="_24" class="fil0" d="M38.3 8.75l1.98 0 0 2.46 0.31 0 0 1.21 -0.39 0 0 -0.81 -2.24 0 0 0.81 -0.39 0 0 -1.21 0.25 0c0.34,-0.46 0.5,-1.28 0.49,-2.46zm0.4 0.4c-0.04,0.93 -0.18,1.62 -0.43,2.06l1.53 0 0 -2.06 -1.1 0z"/>
  <path id="_25" class="fil0" d="M42.98 10.56l0.47 0.07c-0.05,0.33 -0.18,0.58 -0.4,0.76 -0.21,0.18 -0.47,0.28 -0.78,0.28 -0.39,0 -0.7,-0.13 -0.94,-0.38 -0.24,-0.26 -0.35,-0.62 -0.35,-1.1 0,-0.31 0.05,-0.58 0.15,-0.81 0.1,-0.23 0.26,-0.4 0.46,-0.52 0.21,-0.12 0.43,-0.17 0.68,-0.17 0.31,0 0.56,0.08 0.76,0.23 0.2,0.16 0.32,0.38 0.38,0.67l-0.47 0.07c-0.04,-0.19 -0.12,-0.34 -0.24,-0.43 -0.11,-0.1 -0.25,-0.15 -0.41,-0.15 -0.24,0 -0.44,0.09 -0.59,0.26 -0.15,0.18 -0.23,0.45 -0.23,0.83 0,0.38 0.07,0.66 0.22,0.84 0.15,0.17 0.34,0.26 0.57,0.26 0.19,0 0.35,-0.06 0.47,-0.17 0.13,-0.12 0.21,-0.29 0.24,-0.54z"/>
  <path id="_26" class="fil0" d="M43.85 8.75l0.48 0 0 1.23c0.15,0 0.26,-0.03 0.32,-0.09 0.06,-0.06 0.15,-0.23 0.27,-0.52 0.1,-0.23 0.17,-0.37 0.23,-0.45 0.06,-0.07 0.13,-0.12 0.2,-0.15 0.08,-0.02 0.2,-0.04 0.37,-0.04l0.1 0 0 0.4 -0.13 -0c-0.13,0 -0.21,0.02 -0.24,0.06 -0.04,0.04 -0.1,0.16 -0.17,0.35 -0.07,0.19 -0.14,0.32 -0.2,0.39 -0.06,0.07 -0.15,0.14 -0.28,0.2 0.21,0.06 0.41,0.25 0.61,0.58l0.53 0.89 -0.53 0 -0.52 -0.88c-0.1,-0.18 -0.2,-0.3 -0.27,-0.35 -0.08,-0.06 -0.17,-0.09 -0.28,-0.09l0 1.32 -0.48 0 0 -2.86z"/>
  <path id="_27" class="fil0" d="M48.25 10.68l0.5 0.07c-0.08,0.29 -0.22,0.52 -0.43,0.68 -0.21,0.16 -0.48,0.24 -0.81,0.24 -0.41,0 -0.74,-0.13 -0.99,-0.39 -0.24,-0.26 -0.36,-0.62 -0.36,-1.08 0,-0.48 0.12,-0.85 0.37,-1.12 0.25,-0.27 0.56,-0.4 0.96,-0.4 0.38,0 0.69,0.13 0.93,0.39 0.24,0.26 0.36,0.63 0.36,1.1 0,0.03 -0,0.07 -0,0.13l-2.12 0c0.02,0.31 0.11,0.55 0.26,0.72 0.16,0.17 0.36,0.25 0.59,0.25 0.18,0 0.33,-0.05 0.45,-0.14 0.12,-0.09 0.22,-0.24 0.3,-0.45zm-1.58 -0.78l1.58 0c-0.02,-0.24 -0.08,-0.42 -0.18,-0.54 -0.15,-0.19 -0.35,-0.28 -0.59,-0.28 -0.22,0 -0.41,0.07 -0.56,0.22 -0.15,0.15 -0.23,0.35 -0.25,0.6z"/>
  <polygon id="_28" class="fil0" points="50.88,8.75 51.36,8.75 51.36,9.94 52.7,9.94 52.7,8.75 53.18,8.75 53.18,11.61 52.7,11.61 52.7,10.34 51.36,10.34 51.36,11.61 50.88,11.61 "/>
  <polygon id="_29" class="fil0" points="53.9,8.75 54.38,8.75 54.38,10.93 55.72,8.75 56.24,8.75 56.24,11.61 55.76,11.61 55.76,9.44 54.42,11.61 53.9,11.61 "/>
  <path id="_30" class="fil0" d="M57.22 10.63l-0.15 -2.09 0 -0.87 0.6 0 0 0.87 -0.14 2.09 -0.31 0zm-0.13 0.98l0 -0.55 0.55 0 0 0.55 -0.55 0z"/>
  <path id="_31" class="fil0" d="M0.05 16.56c0,-0.65 0.18,-1.17 0.52,-1.54 0.35,-0.37 0.8,-0.55 1.35,-0.55 0.36,0 0.69,0.09 0.98,0.26 0.29,0.17 0.51,0.42 0.66,0.73 0.15,0.31 0.23,0.66 0.23,1.06 0,0.4 -0.08,0.76 -0.24,1.07 -0.16,0.32 -0.39,0.55 -0.68,0.72 -0.29,0.16 -0.61,0.24 -0.95,0.24 -0.37,0 -0.7,-0.09 -0.99,-0.27 -0.29,-0.18 -0.51,-0.42 -0.66,-0.73 -0.15,-0.31 -0.22,-0.64 -0.22,-0.98zm0.54 0.01c0,0.47 0.13,0.85 0.38,1.12 0.25,0.27 0.57,0.41 0.96,0.41 0.39,0 0.71,-0.14 0.96,-0.41 0.25,-0.28 0.38,-0.67 0.38,-1.17 0,-0.32 -0.05,-0.6 -0.16,-0.84 -0.11,-0.24 -0.27,-0.42 -0.47,-0.56 -0.21,-0.13 -0.44,-0.2 -0.7,-0.2 -0.37,0 -0.68,0.13 -0.95,0.38 -0.26,0.25 -0.4,0.68 -0.4,1.27z"/>
  <path id="_32" class="fil0" d="M4.41 15.62l0.48 0 0 2.18 1.34 -2.18 0.52 0 0 2.86 -0.48 0 0 -2.17 -1.34 2.17 -0.52 0 0 -2.86zm1.66 -1.06l0.33 0c-0.03,0.23 -0.11,0.4 -0.25,0.52 -0.14,0.12 -0.32,0.18 -0.55,0.18 -0.23,0 -0.41,-0.06 -0.55,-0.18 -0.14,-0.12 -0.22,-0.3 -0.24,-0.52l0.33 0c0.02,0.12 0.07,0.22 0.15,0.28 0.07,0.06 0.17,0.09 0.3,0.09 0.15,0 0.25,-0.03 0.33,-0.09 0.07,-0.06 0.12,-0.15 0.15,-0.28z"/>
  <path id="_33" class="fil0" d="M7.85 15.62l1.98 0 0 2.46 0.31 0 0 1.21 -0.39 0 0 -0.81 -2.24 0 0 0.81 -0.39 0 0 -1.21 0.25 0c0.34,-0.46 0.5,-1.28 0.49,-2.46zm0.4 0.4c-0.04,0.93 -0.18,1.62 -0.43,2.06l1.53 0 0 -2.06 -1.1 0z"/>
  <path id="_34" class="fil0" d="M10.49 17.05c0,-0.53 0.15,-0.92 0.44,-1.17 0.24,-0.21 0.54,-0.32 0.89,-0.32 0.39,0 0.71,0.13 0.96,0.39 0.25,0.26 0.37,0.61 0.37,1.06 0,0.37 -0.05,0.66 -0.16,0.87 -0.11,0.21 -0.27,0.37 -0.48,0.49 -0.21,0.12 -0.44,0.17 -0.69,0.17 -0.4,0 -0.72,-0.13 -0.96,-0.38 -0.25,-0.26 -0.37,-0.63 -0.37,-1.11zm0.49 0c0,0.37 0.08,0.64 0.24,0.82 0.16,0.18 0.36,0.27 0.6,0.27 0.24,0 0.44,-0.09 0.6,-0.27 0.16,-0.18 0.24,-0.46 0.24,-0.83 0,-0.35 -0.08,-0.62 -0.24,-0.8 -0.16,-0.18 -0.36,-0.27 -0.6,-0.27 -0.24,0 -0.44,0.09 -0.6,0.27 -0.16,0.18 -0.24,0.45 -0.24,0.82z"/>
  <path id="_35" class="fil0" d="M13.83 15.62l2.24 0 0 2.86 -0.48 0 0 -2.45 -1.28 0 0 1.42c0,0.33 -0.01,0.55 -0.03,0.66 -0.02,0.11 -0.08,0.2 -0.18,0.28 -0.1,0.08 -0.24,0.12 -0.42,0.12 -0.11,0 -0.24,-0.01 -0.39,-0.02l0 -0.4 0.21 0c0.1,0 0.17,-0.01 0.21,-0.03 0.04,-0.02 0.07,-0.05 0.09,-0.1 0.01,-0.05 0.02,-0.19 0.02,-0.44l0 -1.88z"/>
  <path id="_36" class="fil0" d="M17.5 16.81l0 0.4 1 0c-0.03,0.31 -0.11,0.54 -0.24,0.7 -0.13,0.16 -0.31,0.23 -0.54,0.23 -0.41,0 -0.65,-0.24 -0.72,-0.71l-0.47 0.07c0.05,0.31 0.18,0.56 0.39,0.75 0.21,0.19 0.48,0.29 0.82,0.29 0.4,0.02 0.71,-0.11 0.93,-0.39 0.22,-0.28 0.33,-0.65 0.31,-1.1 0,-0.46 -0.11,-0.83 -0.34,-1.09 -0.23,-0.27 -0.54,-0.4 -0.94,-0.4 -0.32,0 -0.57,0.08 -0.77,0.25 -0.2,0.17 -0.31,0.39 -0.36,0.65l0.47 0.08c0.08,-0.39 0.3,-0.58 0.68,-0.58 0.21,0 0.39,0.08 0.52,0.24 0.14,0.16 0.22,0.36 0.25,0.62l-1 0z"/>
  <polygon id="_37" class="fil0" points="21.12,15.62 21.6,15.62 21.6,18.07 22.69,18.07 22.69,15.62 23.18,15.62 23.18,18.07 24.27,18.07 24.27,15.62 24.75,15.62 24.75,18.48 21.12,18.48 "/>
  <path id="_38" class="fil0" d="M25.47 19.57l-0.05 -0.45c0.11,0.03 0.2,0.04 0.28,0.04 0.11,0 0.19,-0.02 0.26,-0.05 0.06,-0.04 0.12,-0.09 0.16,-0.15 0.03,-0.05 0.08,-0.17 0.15,-0.36 0.01,-0.03 0.02,-0.07 0.04,-0.12l-1.08 -2.87 0.51 0 0.59 1.65c0.08,0.21 0.15,0.43 0.21,0.66 0.06,-0.22 0.12,-0.43 0.2,-0.64l0.61 -1.67 0.48 0 -1.07 2.91c-0.12,0.31 -0.21,0.53 -0.27,0.65 -0.09,0.16 -0.18,0.28 -0.29,0.35 -0.11,0.07 -0.24,0.11 -0.4,0.11 -0.09,0 -0.2,-0.02 -0.31,-0.06z"/>
  <path id="_39" class="fil0" d="M28.43 15.62l1.98 0 0 2.46 0.31 0 0 1.21 -0.39 0 0 -0.81 -2.24 0 0 0.81 -0.39 0 0 -1.21 0.25 0c0.34,-0.46 0.5,-1.28 0.49,-2.46zm0.4 0.4c-0.04,0.93 -0.18,1.62 -0.43,2.06l1.53 0 0 -2.06 -1.1 0z"/>
  <path id="_40" class="fil0" d="M31.06 17.05c0,-0.53 0.15,-0.92 0.44,-1.17 0.24,-0.21 0.54,-0.32 0.89,-0.32 0.39,0 0.71,0.13 0.96,0.39 0.25,0.26 0.37,0.61 0.37,1.06 0,0.37 -0.05,0.66 -0.16,0.87 -0.11,0.21 -0.27,0.37 -0.48,0.49 -0.21,0.12 -0.44,0.17 -0.69,0.17 -0.4,0 -0.72,-0.13 -0.96,-0.38 -0.25,-0.26 -0.37,-0.63 -0.37,-1.11zm0.49 0c0,0.37 0.08,0.64 0.24,0.82 0.16,0.18 0.36,0.27 0.6,0.27 0.24,0 0.44,-0.09 0.6,-0.27 0.16,-0.18 0.24,-0.46 0.24,-0.83 0,-0.35 -0.08,-0.62 -0.24,-0.8 -0.16,-0.18 -0.36,-0.27 -0.6,-0.27 -0.24,0 -0.44,0.09 -0.6,0.27 -0.16,0.18 -0.24,0.45 -0.24,0.82z"/>
  <polygon id="_41" class="fil0" points="34.3,15.62 35.05,15.62 35.8,17.9 36.63,15.62 37.32,15.62 37.32,18.48 36.83,18.48 36.83,16.17 36,18.48 35.57,18.48 34.78,16.06 34.78,18.48 34.3,18.48 "/>
  <path id="_42" class="fil0" d="M38.31 17.5l-0.15 -2.09 0 -0.87 0.6 0 0 0.87 -0.14 2.09 -0.31 0zm-0.13 0.98l0 -0.55 0.55 0 0 0.55 -0.55 0z"/>
 </g>
</svg>
