<?xml version="1.0" encoding="UTF-8"?>
<!DOCTYPE svg PUBLIC "-//W3C//DTD SVG 1.1//EN" "http://www.w3.org/Graphics/SVG/1.1/DTD/svg11.dtd">
<!-- Creator: CorelDRAW 2019 (64-Bit) -->
<svg xmlns="http://www.w3.org/2000/svg" xml:space="preserve" width="1.86199cm" height="0.42464cm" version="1.1" style="shape-rendering:geometricPrecision; text-rendering:geometricPrecision; image-rendering:optimizeQuality; fill-rule:evenodd; clip-rule:evenodd"
viewBox="0 0 4.026 0.918"
 xmlns:xlink="http://www.w3.org/1999/xlink"
 xmlns:xodm="http://www.corel.com/coreldraw/odm/2003">
 <defs>
  <style type="text/css">
   <![CDATA[
    .fil0 {fill:#A39F6B;fill-rule:nonzero}
   ]]>
  </style>
 </defs>
 <g id="Слой_x0020_1">
  <metadata id="CorelCorpID_0Corel-Layer"/>
  <g id="_2361866836096">
   <path class="fil0" d="M0.165 0.305c-0.003,0.003 -0.007,0.005 -0.01,0.006 -0.004,0.001 -0.008,0.001 -0.012,0.001 0.007,-0.002 0.013,-0.006 0.019,-0.01 0.004,-0.004 0.009,-0.01 0.014,-0.018 -0.001,0.008 -0.005,0.016 -0.011,0.021zm-0.026 -0.014c-0.004,-0.002 -0.006,-0.005 -0.007,-0.01 -0.001,-0.005 -0.001,-0.01 0,-0.015 0.002,-0.005 0.005,-0.009 0.009,-0.012 0.004,-0.003 0.008,-0.003 0.011,-0.002 0.004,0.001 0.006,0.005 0.008,0.009 0.001,0.005 0.001,0.01 -0.001,0.015 -0.002,0.005 -0.005,0.009 -0.009,0.012 -0.004,0.003 -0.008,0.003 -0.011,0.002zm-0.042 -0.139c-0.006,0.009 -0.013,0.021 -0.021,0.037 -0.003,0.005 -0.006,0.012 -0.01,0.019l-0.01 0.019c0.004,-0.013 0.01,-0.026 0.016,-0.04 0.006,-0.013 0.013,-0.025 0.02,-0.038 0.009,-0.014 0.017,-0.025 0.026,-0.034l0.004 -0.004c0.001,-0.001 0.003,-0.003 0.004,-0.004l0.004 -0.003 0.004 -0.003c0.007,-0.004 0.014,-0.007 0.019,-0.006 -0.005,0.001 -0.011,0.004 -0.018,0.009l-0.004 0.003 -0.004 0.004c-0.001,0.001 -0.002,0.002 -0.004,0.003l-0.003 0.004c-0.008,0.009 -0.016,0.021 -0.024,0.034zm0.062 -0.077c-0.021,-0.003 -0.044,0.013 -0.069,0.049 -0.022,0.032 -0.042,0.072 -0.06,0.122 -0.017,0.049 -0.027,0.092 -0.029,0.13 -0.002,0.041 0.006,0.065 0.024,0.072 0.014,0.005 0.027,0.005 0.04,-0.002 0.009,-0.005 0.019,-0.013 0.03,-0.026 0.002,-0.002 0.004,-0.005 0.006,-0.008l0.006 -0.008c0.005,-0.007 0.009,-0.012 0.011,-0.015 0.008,-0.01 0.015,-0.015 0.021,-0.015 0.006,-0 0.013,0.004 0.022,0.013 0.003,0.003 0.007,0.007 0.012,0.013l0.007 0.007 0.007 0.007c0.011,0.011 0.021,0.019 0.03,0.023 0.012,0.005 0.023,0.005 0.035,-0.001 0.014,-0.007 0.021,-0.03 0.022,-0.067 0.001,-0.035 -0.004,-0.075 -0.014,-0.12 -0.01,-0.046 -0.024,-0.085 -0.041,-0.117 -0.019,-0.035 -0.039,-0.055 -0.06,-0.058zm0.357 0.276c-0.002,0.005 -0.005,0.008 -0.009,0.011 -0.004,0.003 -0.008,0.004 -0.013,0.003 0.004,-0.001 0.008,-0.003 0.011,-0.006 0.003,-0.003 0.006,-0.006 0.007,-0.01 0.002,-0.004 0.003,-0.008 0.003,-0.012 0,-0.004 0,-0.009 -0.001,-0.013 0.002,0.004 0.003,0.009 0.003,0.014 0,0.005 -0.001,0.01 -0.003,0.014zm-0.036 -0.014c-0.001,-0.004 -0.002,-0.008 -0.001,-0.012 0.001,-0.004 0.003,-0.006 0.006,-0.007 0.003,-0.001 0.006,-0.001 0.009,0.002 0.003,0.002 0.005,0.006 0.007,0.01 0.002,0.004 0.002,0.008 0.001,0.012 -0.001,0.004 -0.003,0.006 -0.006,0.007 -0.003,0.001 -0.006,0.001 -0.009,-0.002 -0.003,-0.002 -0.005,-0.006 -0.007,-0.01zm-0.073 -0.142c-0.005,0.009 -0.009,0.02 -0.013,0.034 -0.003,0.01 -0.005,0.022 -0.007,0.037 0,-0.006 0,-0.012 0.001,-0.019 0.001,-0.007 0.002,-0.013 0.003,-0.018 0.003,-0.013 0.007,-0.025 0.013,-0.035 0.003,-0.006 0.007,-0.011 0.011,-0.015 0.004,-0.004 0.009,-0.008 0.014,-0.011 0.005,-0.003 0.011,-0.006 0.016,-0.007 0.006,-0.002 0.012,-0.003 0.017,-0.004 -0.012,0.003 -0.022,0.007 -0.031,0.014 -0.01,0.007 -0.018,0.016 -0.024,0.025zm0.07 0.064c-0.008,-0 -0.012,-0.005 -0.014,-0.012 -0.001,-0.003 -0.001,-0.007 0,-0.01 0.001,-0.003 0.003,-0.006 0.005,-0.008 0.005,-0.005 0.013,-0.008 0.022,-0.01 0.003,-0.001 0.008,-0.001 0.013,-0.002l0.006 -0.001 0.006 -0.001c0.01,-0.001 0.017,-0.003 0.022,-0.006 0.006,-0.004 0.01,-0.01 0.011,-0.018 0.001,-0.012 -0.003,-0.023 -0.013,-0.032 -0.01,-0.009 -0.022,-0.015 -0.038,-0.018 -0.016,-0.003 -0.032,-0.002 -0.048,0.002 -0.018,0.005 -0.033,0.014 -0.045,0.027 -0.011,0.012 -0.02,0.031 -0.026,0.054 -0.005,0.023 -0.007,0.047 -0.006,0.073 0.002,0.027 0.007,0.051 0.015,0.073 0.009,0.023 0.022,0.04 0.038,0.051 0.014,0.009 0.028,0.015 0.044,0.017 0.015,0.002 0.029,0.001 0.043,-0.004 0.014,-0.005 0.025,-0.013 0.035,-0.024 0.01,-0.012 0.017,-0.026 0.02,-0.043 0.002,-0.012 0.003,-0.024 0.001,-0.036 -0.002,-0.013 -0.007,-0.024 -0.013,-0.034 -0.016,-0.024 -0.042,-0.037 -0.077,-0.038zm0.285 -0.105c-0.003,0.003 -0.005,0.006 -0.007,0.01 -0.004,0.006 -0.008,0.013 -0.013,0.022l-0.003 0.006 -0.003 0.006c-0.002,0.004 -0.004,0.008 -0.006,0.011 -0.003,0.004 -0.006,0.008 -0.008,0.01 -0.004,0.003 -0.007,0.006 -0.011,0.006 0.004,-0.002 0.007,-0.004 0.009,-0.008 0.002,-0.003 0.004,-0.006 0.007,-0.011 0.001,-0.003 0.003,-0.007 0.006,-0.011l0.006 -0.011c0.005,-0.01 0.009,-0.017 0.013,-0.022 0.003,-0.004 0.006,-0.007 0.009,-0.009 0.004,-0.003 0.008,-0.005 0.011,-0.005 -0.003,0.001 -0.007,0.003 -0.01,0.007zm-0.119 0.192c-0.003,0.003 -0.006,0.005 -0.008,0.007 -0.006,0.005 -0.01,0.01 -0.014,0.014 -0.002,0.003 -0.003,0.006 -0.005,0.009 -0.001,0.003 -0.002,0.006 -0.002,0.01 -0,-0.003 0,-0.007 0.001,-0.011 0.001,-0.003 0.002,-0.007 0.004,-0.01 0.003,-0.005 0.007,-0.01 0.013,-0.016 0.004,-0.004 0.009,-0.008 0.016,-0.012l0.004 -0.003 0.004 -0.003c0.003,-0.002 0.006,-0.004 0.008,-0.006 -0.003,0.004 -0.008,0.009 -0.014,0.014l-0.008 0.006zm-0.037 -0.17c-0.002,0.003 -0.003,0.006 -0.004,0.01 -0.001,0.003 -0.001,0.007 -0.001,0.012 -0.002,-0.004 -0.002,-0.008 -0.002,-0.012 0,-0.004 0.002,-0.008 0.004,-0.012 0.002,-0.004 0.005,-0.006 0.009,-0.008 0.004,-0.002 0.007,-0.003 0.011,-0.002 -0.008,0.002 -0.013,0.006 -0.017,0.012zm0.166 -0.045c-0.008,0 -0.015,0.004 -0.023,0.013 -0.006,0.006 -0.012,0.015 -0.018,0.027l-0.004 0.007 -0.002 0.004 -0.002 0.003c-0.003,0.006 -0.005,0.01 -0.007,0.012 -0.005,0.008 -0.008,0.012 -0.011,0.013 -0.003,0 -0.009,-0.005 -0.019,-0.016l-0.002 -0.002 -0.002 -0.002c-0.001,-0.001 -0.003,-0.003 -0.004,-0.004 -0.003,-0.003 -0.005,-0.006 -0.008,-0.009 -0.006,-0.007 -0.013,-0.013 -0.019,-0.018 -0.01,-0.008 -0.02,-0.012 -0.03,-0.012 -0.01,0 -0.018,0.004 -0.025,0.011 -0.007,0.007 -0.011,0.016 -0.012,0.026 -0.001,0.011 0.001,0.022 0.007,0.033 0.004,0.008 0.011,0.016 0.019,0.024 0.003,0.003 0.007,0.007 0.011,0.011l0.006 0.005 0.006 0.005c0.009,0.008 0.016,0.014 0.019,0.018 0.005,0.006 0.008,0.012 0.009,0.017 0.001,0.005 -0.002,0.011 -0.008,0.017 -0.002,0.002 -0.006,0.005 -0.01,0.008l-0.003 0.002 -0.003 0.002 -0.006 0.004c-0.01,0.008 -0.017,0.015 -0.022,0.022 -0.007,0.01 -0.01,0.02 -0.01,0.032 -0,0.009 0.002,0.017 0.005,0.024 0.004,0.007 0.009,0.013 0.015,0.018 0.015,0.01 0.033,0.011 0.054,0.004 0.028,-0.01 0.056,-0.038 0.084,-0.083 0.024,-0.04 0.04,-0.078 0.046,-0.114 0.006,-0.037 0.006,-0.064 -0.001,-0.081 -0.006,-0.015 -0.016,-0.022 -0.031,-0.021zm0.184 0.061c-0.005,0.007 -0.01,0.013 -0.015,0.018 -0.006,0.006 -0.012,0.011 -0.018,0.013 0.005,-0.003 0.01,-0.009 0.016,-0.016 0.005,-0.006 0.009,-0.012 0.014,-0.018 0.002,-0.003 0.004,-0.006 0.006,-0.01l0.002 -0.003 0.001 -0.002c0.001,-0.002 0.002,-0.004 0.003,-0.005 0.003,-0.003 0.006,-0.006 0.009,-0.008 0.004,-0.002 0.008,-0.003 0.011,-0.003 -0.007,0.001 -0.012,0.005 -0.017,0.012 -0.001,0.001 -0.002,0.003 -0.003,0.005l-0.001 0.003 -0.001 0.003c-0.002,0.003 -0.004,0.006 -0.006,0.01zm-0.077 -0.044c-0.003,0.002 -0.005,0.004 -0.007,0.008 -0.003,0.005 -0.006,0.011 -0.009,0.019 -0.002,0.005 -0.004,0.012 -0.006,0.021l-0.003 0.011 -0.003 0.011c0,-0.009 0.001,-0.016 0.003,-0.022 0.001,-0.008 0.003,-0.015 0.006,-0.022 0.003,-0.008 0.007,-0.015 0.01,-0.02 0.002,-0.003 0.005,-0.005 0.008,-0.007 0.004,-0.002 0.007,-0.003 0.01,-0.002 -0.003,0.001 -0.007,0.002 -0.009,0.004zm0.09 0.119c-0.005,-0.003 -0.007,-0.006 -0.004,-0.008 0.001,-0.001 0.003,-0.003 0.006,-0.004l0.002 -0.001 0.002 -0.001c0.002,-0.001 0.004,-0.002 0.005,-0.003 0.01,-0.005 0.017,-0.011 0.023,-0.017 0.009,-0.009 0.015,-0.02 0.018,-0.032 0.003,-0.011 0.003,-0.022 -0.001,-0.032 -0.004,-0.009 -0.01,-0.016 -0.018,-0.021 -0.008,-0.004 -0.017,-0.005 -0.026,-0.002 -0.01,0.003 -0.018,0.011 -0.025,0.022 -0.011,0.02 -0.022,0.033 -0.033,0.041 -0.004,0.003 -0.007,0.004 -0.009,0.003 -0.002,-0.001 -0.001,-0.005 0.001,-0.01 0.009,-0.021 0.011,-0.038 0.007,-0.051 -0.003,-0.011 -0.01,-0.017 -0.021,-0.02 -0.022,-0.005 -0.039,0.007 -0.05,0.037 -0.009,0.024 -0.014,0.058 -0.016,0.103 -0.002,0.045 0.001,0.082 0.009,0.109 0.009,0.033 0.024,0.049 0.044,0.048 0.019,-0.001 0.029,-0.017 0.032,-0.046 0.001,-0.01 0,-0.021 -0.001,-0.034 -0.001,-0.004 -0.001,-0.009 -0.002,-0.013 -0,-0.002 -0,-0.003 -0.001,-0.005l-0 -0.002 -0 -0.001 -0 -0.001c-0.001,-0.004 -0,-0.006 0.001,-0.008 0.002,-0.001 0.004,-0.001 0.006,0.002 0.007,0.006 0.014,0.022 0.021,0.048 0.004,0.016 0.011,0.03 0.018,0.04 0.007,0.009 0.016,0.016 0.024,0.018 0.009,0.003 0.017,0.002 0.025,-0.001 0.008,-0.004 0.015,-0.01 0.02,-0.019 0.006,-0.01 0.009,-0.022 0.009,-0.034 -0,-0.012 -0.003,-0.025 -0.009,-0.037 -0.012,-0.027 -0.033,-0.048 -0.062,-0.065zm0.228 0.057c-0.002,0.005 -0.005,0.008 -0.009,0.011 -0.004,0.003 -0.008,0.004 -0.013,0.003 0.004,-0.001 0.008,-0.003 0.011,-0.005 0.003,-0.003 0.006,-0.006 0.008,-0.01 0.003,-0.007 0.004,-0.016 0.001,-0.026 0.002,0.004 0.004,0.009 0.004,0.014 0,0.005 -0,0.01 -0.002,0.015zm-0.036 -0.012c-0.002,-0.004 -0.003,-0.008 -0.003,-0.012 0,-0.004 0.002,-0.007 0.004,-0.009 0.003,-0.002 0.006,-0.002 0.009,-0 0.004,0.002 0.006,0.004 0.009,0.008 0.002,0.004 0.003,0.008 0.003,0.012 -0,0.004 -0.002,0.007 -0.004,0.009 -0.003,0.002 -0.006,0.002 -0.009,0 -0.003,-0.002 -0.006,-0.004 -0.009,-0.008zm-0.019 -0.087c0.003,-0.001 0.006,-0.002 0.008,-0.004 0.003,-0.002 0.005,-0.004 0.007,-0.006 0.002,-0.002 0.004,-0.005 0.005,-0.008 0.001,-0.003 0.003,-0.006 0.004,-0.009 0.001,0.007 -0.001,0.014 -0.006,0.02 -0.003,0.003 -0.005,0.005 -0.008,0.006 -0.003,0.001 -0.007,0.002 -0.01,0.001zm-0.005 -0.03c0.001,-0.003 0.003,-0.005 0.005,-0.006 0.002,-0.001 0.004,-0.001 0.006,-0 0.002,0.001 0.003,0.003 0.003,0.006 0,0.003 -0,0.005 -0.002,0.008 -0.001,0.003 -0.003,0.005 -0.005,0.006 -0.002,0.001 -0.004,0.001 -0.006,0 -0.002,-0.001 -0.003,-0.003 -0.003,-0.006 -0,-0.003 0,-0.005 0.001,-0.008zm-0.034 -0.037c-0.003,0.003 -0.006,0.008 -0.009,0.013 -0.005,0.008 -0.009,0.018 -0.013,0.03 -0.003,0.009 -0.006,0.02 -0.008,0.032 0.001,-0.011 0.003,-0.022 0.005,-0.033 0.003,-0.011 0.007,-0.021 0.013,-0.031 0.006,-0.011 0.013,-0.019 0.022,-0.024 0.005,-0.003 0.01,-0.006 0.014,-0.007 0.005,-0.001 0.01,-0.002 0.015,-0.002 -0.011,0.001 -0.02,0.005 -0.028,0.012 -0.004,0.003 -0.008,0.007 -0.011,0.011zm0.085 0.078c-0.002,-0.001 -0.003,-0.003 -0.002,-0.007 0,-0.001 0.001,-0.003 0.003,-0.006l0.001 -0.002 0.001 -0.002c0.001,-0.002 0.001,-0.003 0.002,-0.004 0.003,-0.008 0.006,-0.015 0.007,-0.022 0.002,-0.01 0.002,-0.02 -0,-0.031 -0.002,-0.012 -0.009,-0.022 -0.019,-0.03 -0.011,-0.008 -0.023,-0.012 -0.037,-0.012 -0.015,-0 -0.029,0.005 -0.042,0.015 -0.014,0.012 -0.025,0.029 -0.033,0.052 -0.008,0.024 -0.012,0.05 -0.012,0.078 -0,0.028 0.004,0.054 0.013,0.078 0.009,0.026 0.022,0.045 0.039,0.059 0.019,0.015 0.041,0.021 0.068,0.019 0.025,-0.002 0.045,-0.012 0.059,-0.028 0.013,-0.015 0.02,-0.033 0.021,-0.054 0.001,-0.021 -0.005,-0.041 -0.016,-0.059 -0.012,-0.02 -0.029,-0.034 -0.051,-0.043zm0.221 0.063c-0.003,0.002 -0.005,0.004 -0.008,0.005 -0.003,0.001 -0.006,0.001 -0.009,0 0.006,-0.002 0.011,-0.004 0.015,-0.008 0.004,-0.003 0.007,-0.008 0.011,-0.014 -0.001,0.007 -0.004,0.012 -0.009,0.017zm-0.021 -0.011c-0.003,-0.001 -0.005,-0.004 -0.006,-0.008 -0.001,-0.004 -0.001,-0.008 0,-0.012 0.001,-0.004 0.004,-0.008 0.007,-0.01 0.003,-0.002 0.006,-0.003 0.009,-0.001 0.003,0.001 0.005,0.004 0.006,0.008 0.001,0.004 0.001,0.008 -0.001,0.012 -0.001,0.004 -0.004,0.007 -0.007,0.01 -0.003,0.002 -0.006,0.003 -0.009,0.001zm-0.034 -0.112c-0.005,0.007 -0.01,0.017 -0.017,0.03 -0.002,0.004 -0.005,0.01 -0.008,0.015l-0.008 0.016c0.003,-0.01 0.008,-0.021 0.013,-0.032 0.005,-0.01 0.01,-0.02 0.016,-0.03 0.007,-0.011 0.014,-0.021 0.021,-0.027l0.003 -0.003c0.001,-0.001 0.002,-0.002 0.003,-0.003l0.003 -0.003 0.003 -0.002c0.006,-0.004 0.011,-0.005 0.015,-0.005 -0.004,0.001 -0.009,0.003 -0.015,0.007l-0.003 0.003 -0.003 0.003c-0.001,0.001 -0.002,0.002 -0.003,0.003l-0.003 0.003c-0.006,0.008 -0.013,0.017 -0.02,0.027zm0.05 -0.062c-0.017,-0.002 -0.035,0.011 -0.056,0.039 -0.018,0.026 -0.034,0.058 -0.048,0.098 -0.014,0.039 -0.022,0.074 -0.023,0.104 -0.002,0.033 0.005,0.053 0.019,0.058 0.011,0.004 0.022,0.004 0.032,-0.001 0.008,-0.004 0.016,-0.011 0.024,-0.021 0.002,-0.002 0.003,-0.004 0.005,-0.007l0.005 -0.006c0.004,-0.006 0.007,-0.01 0.009,-0.012 0.007,-0.008 0.012,-0.012 0.017,-0.012 0.005,-0 0.011,0.003 0.018,0.011 0.002,0.002 0.006,0.006 0.01,0.011l0.005 0.006 0.005 0.006c0.009,0.009 0.017,0.015 0.024,0.018 0.01,0.004 0.019,0.004 0.028,-0.001 0.011,-0.006 0.017,-0.024 0.017,-0.054 0.001,-0.028 -0.003,-0.06 -0.011,-0.096 -0.008,-0.037 -0.02,-0.069 -0.033,-0.094 -0.015,-0.028 -0.032,-0.044 -0.048,-0.046zm0.242 0.207l-0.003 0.001c-0.002,0.001 -0.004,0.001 -0.006,0.002 -0.004,0.001 -0.009,0.001 -0.012,0.001 0.004,-0.001 0.008,-0.002 0.011,-0.004l0.003 -0.001 0.003 -0.001c0.002,-0.001 0.004,-0.002 0.006,-0.002 0.004,-0.002 0.008,-0.003 0.012,-0.003 0.005,-0.001 0.009,-0.001 0.012,-0 -0.007,0.002 -0.014,0.004 -0.023,0.007l-0.003 0.001zm-0.061 -0.194c-0.006,0.002 -0.011,0.004 -0.016,0.007 -0.005,0.004 -0.01,0.008 -0.014,0.012 -0.004,0.004 -0.007,0.009 -0.01,0.015 -0.004,0.009 -0.008,0.021 -0.011,0.036 -0.001,0.006 -0.002,0.012 -0.003,0.019 -0,0.003 -0.001,0.006 -0.001,0.01l-0.001 0.01c-0,-0.013 0.001,-0.026 0.003,-0.039 0.002,-0.014 0.006,-0.027 0.011,-0.037 0.003,-0.007 0.007,-0.012 0.011,-0.016 0.005,-0.005 0.01,-0.009 0.015,-0.012 0.005,-0.003 0.011,-0.005 0.017,-0.007 0.006,-0.001 0.012,-0.002 0.018,-0.002 -0.007,0.001 -0.012,0.002 -0.017,0.004zm0.04 0.11l0.001 -0c0.001,-0 0.002,-0.001 0.003,-0.001 0.003,-0 0.005,-0 0.007,0 0.003,0.001 0.005,0.002 0.006,0.004 -0.002,-0 -0.004,-0.001 -0.006,-0 -0.002,0 -0.004,0 -0.006,0.001l-0.001 0 -0.001 0c-0.001,0 -0.002,0 -0.003,0.001 -0.002,0 -0.005,-0 -0.007,-0.001l0.003 -0.001 0.003 -0.001 0.001 -0.001zm0.011 0.068c-0.007,0.003 -0.012,0.004 -0.017,0.002 -0.004,-0.001 -0.007,-0.004 -0.008,-0.009 -0.001,-0.004 -0.001,-0.008 0.001,-0.012 0.002,-0.004 0.005,-0.006 0.01,-0.007 0.014,-0.002 0.024,-0.006 0.03,-0.013 0.006,-0.006 0.009,-0.014 0.008,-0.023 -0.001,-0.009 -0.005,-0.015 -0.012,-0.019 -0.007,-0.004 -0.016,-0.005 -0.026,-0.002 -0.008,0.003 -0.014,0 -0.017,-0.007 -0.001,-0.003 -0.001,-0.006 -0,-0.009 0.001,-0.003 0.002,-0.006 0.005,-0.008 0.004,-0.003 0.009,-0.005 0.016,-0.006 0.003,-0 0.006,-0.001 0.01,-0.001l0.005 -0 0.005 -0.001c0.008,-0.001 0.015,-0.003 0.02,-0.005 0.006,-0.003 0.011,-0.008 0.013,-0.014 0.004,-0.011 0.002,-0.022 -0.007,-0.033 -0.008,-0.011 -0.02,-0.019 -0.035,-0.024 -0.016,-0.006 -0.032,-0.008 -0.049,-0.005 -0.018,0.003 -0.034,0.011 -0.046,0.025 -0.012,0.013 -0.02,0.032 -0.025,0.059 -0.005,0.025 -0.006,0.051 -0.004,0.081 0.002,0.029 0.007,0.055 0.014,0.077 0.008,0.024 0.019,0.04 0.031,0.049 0.012,0.008 0.027,0.012 0.044,0.011 0.016,-0.001 0.032,-0.006 0.048,-0.014 0.016,-0.008 0.028,-0.018 0.038,-0.029 0.01,-0.012 0.015,-0.024 0.015,-0.037 -0,-0.016 -0.006,-0.026 -0.018,-0.031 -0.012,-0.005 -0.03,-0.003 -0.051,0.007zm0.252 -0.184c-0.002,0.001 -0.003,0.002 -0.005,0.005 -0.002,0.003 -0.004,0.008 -0.005,0.014 -0.001,0.008 -0.002,0.018 -0.001,0.03l0 0.004 0 0.004c0,0.003 0,0.006 0,0.008 -0,0.006 -0.001,0.011 -0.003,0.015 -0.002,0.005 -0.005,0.009 -0.008,0.013 -0.004,0.004 -0.008,0.006 -0.012,0.008 0.009,-0.005 0.014,-0.012 0.018,-0.022 0.001,-0.005 0.002,-0.01 0.002,-0.015 0,-0.002 0,-0.004 0,-0.007l-0 -0.004 -0 -0.004c-0,-0.013 0,-0.023 0.002,-0.031 0.001,-0.006 0.004,-0.011 0.006,-0.014 0.002,-0.002 0.004,-0.004 0.006,-0.004 0.002,-0.001 0.004,-0.001 0.007,-0.001 -0.003,0.001 -0.005,0.001 -0.007,0.002zm-0.13 0.009c-0.004,0.005 -0.008,0.012 -0.01,0.019 -0.002,0.006 -0.004,0.014 -0.005,0.022l-0.002 0.011 -0.002 0.011c-0,-0.016 0.002,-0.031 0.006,-0.046 0.002,-0.008 0.006,-0.015 0.011,-0.02 0.003,-0.003 0.006,-0.005 0.009,-0.007 0.004,-0.002 0.007,-0.002 0.011,-0.002 -0.007,0.001 -0.013,0.004 -0.018,0.011zm0.135 -0.027c-0.013,0.001 -0.022,0.008 -0.027,0.02 -0.005,0.012 -0.007,0.03 -0.005,0.054 0.001,0.011 -0.001,0.019 -0.006,0.024 -0.004,0.005 -0.009,0.007 -0.015,0.007 -0.006,-0 -0.011,-0.003 -0.015,-0.008 -0.003,-0.005 -0.005,-0.012 -0.004,-0.021 0.002,-0.025 -0.001,-0.043 -0.008,-0.055 -0.006,-0.011 -0.017,-0.017 -0.031,-0.019 -0.012,-0.002 -0.022,0.002 -0.031,0.009 -0.009,0.008 -0.015,0.018 -0.019,0.032 -0.007,0.026 -0.011,0.057 -0.01,0.093 0.001,0.034 0.005,0.067 0.012,0.098 0.006,0.023 0.014,0.039 0.026,0.049 0.009,0.008 0.02,0.011 0.031,0.009 0.025,-0.005 0.035,-0.025 0.032,-0.06 -0.002,-0.026 0.002,-0.039 0.014,-0.039 0.006,-0 0.01,0.002 0.014,0.007 0.004,0.006 0.006,0.016 0.006,0.03 -0.001,0.023 0.003,0.041 0.012,0.053 0.008,0.011 0.018,0.016 0.032,0.016 0.023,-0.001 0.038,-0.017 0.047,-0.048 0.006,-0.023 0.009,-0.06 0.009,-0.112 0,-0.04 -0.005,-0.073 -0.017,-0.099 -0.012,-0.027 -0.027,-0.04 -0.045,-0.039zm0.283 0.055c-0.005,0.007 -0.01,0.013 -0.015,0.018 -0.006,0.006 -0.012,0.011 -0.018,0.013 0.005,-0.003 0.01,-0.009 0.016,-0.016 0.005,-0.006 0.009,-0.012 0.014,-0.018 0.002,-0.003 0.004,-0.006 0.006,-0.01l0.002 -0.003 0.001 -0.002c0.001,-0.002 0.002,-0.004 0.003,-0.005 0.003,-0.003 0.006,-0.006 0.009,-0.008 0.004,-0.002 0.008,-0.003 0.011,-0.003 -0.007,0.001 -0.012,0.005 -0.017,0.012 -0.001,0.001 -0.002,0.003 -0.003,0.005l-0.001 0.003 -0.001 0.003c-0.002,0.003 -0.004,0.006 -0.006,0.01zm-0.077 -0.044c-0.003,0.002 -0.005,0.004 -0.007,0.008 -0.003,0.005 -0.006,0.011 -0.009,0.019 -0.002,0.005 -0.004,0.012 -0.006,0.021l-0.003 0.011 -0.003 0.011c0,-0.009 0.001,-0.016 0.002,-0.022 0.001,-0.008 0.003,-0.015 0.006,-0.022 0.003,-0.008 0.007,-0.015 0.01,-0.02 0.002,-0.003 0.005,-0.005 0.008,-0.007 0.004,-0.002 0.007,-0.003 0.01,-0.002 -0.003,0.001 -0.007,0.002 -0.009,0.004zm0.09 0.119c-0.005,-0.003 -0.007,-0.006 -0.004,-0.008 0.001,-0.001 0.003,-0.003 0.006,-0.004l0.002 -0.001 0.002 -0.001c0.002,-0.001 0.004,-0.002 0.005,-0.003 0.01,-0.005 0.017,-0.011 0.023,-0.017 0.009,-0.009 0.015,-0.02 0.018,-0.032 0.003,-0.011 0.003,-0.022 -0.001,-0.032 -0.004,-0.009 -0.01,-0.016 -0.018,-0.021 -0.008,-0.004 -0.017,-0.005 -0.025,-0.002 -0.01,0.003 -0.018,0.011 -0.025,0.022 -0.011,0.02 -0.022,0.033 -0.033,0.041 -0.004,0.003 -0.007,0.004 -0.009,0.003 -0.002,-0.001 -0.001,-0.005 0.001,-0.01 0.009,-0.021 0.011,-0.038 0.007,-0.051 -0.003,-0.011 -0.01,-0.018 -0.021,-0.02 -0.022,-0.005 -0.039,0.007 -0.05,0.037 -0.009,0.024 -0.014,0.058 -0.016,0.103 -0.002,0.045 0.001,0.082 0.009,0.109 0.009,0.033 0.024,0.049 0.044,0.048 0.019,-0.001 0.029,-0.017 0.032,-0.046 0.001,-0.01 0,-0.021 -0.001,-0.034 -0.001,-0.004 -0.001,-0.009 -0.002,-0.013 -0,-0.002 -0,-0.003 -0.001,-0.005l-0 -0.002 -0 -0.001 0 -0.001c-0.001,-0.004 -0,-0.006 0.001,-0.008 0.002,-0.001 0.004,-0.001 0.006,0.002 0.007,0.006 0.014,0.022 0.021,0.048 0.004,0.016 0.011,0.03 0.018,0.04 0.007,0.009 0.016,0.016 0.024,0.018 0.009,0.003 0.017,0.002 0.025,-0.001 0.008,-0.004 0.015,-0.01 0.02,-0.019 0.006,-0.01 0.009,-0.022 0.009,-0.034 -0,-0.012 -0.003,-0.025 -0.009,-0.037 -0.012,-0.027 -0.033,-0.048 -0.062,-0.065z"/>
   <path class="fil0" d="M2.404 0.296c-0.002,0.004 -0.005,0.007 -0.009,0.009 -0.004,0.002 -0.008,0.003 -0.012,0.002 0.008,-0.002 0.014,-0.006 0.018,-0.013 0.002,-0.003 0.003,-0.006 0.004,-0.011 0,-0.004 0.001,-0.008 0.001,-0.012 0.002,0.004 0.002,0.008 0.002,0.013 -0,0.005 -0.001,0.009 -0.004,0.013zm-0.034 -0.015c-0.002,-0.004 -0.003,-0.008 -0.002,-0.012 0,-0.004 0.002,-0.007 0.005,-0.009 0.003,-0.001 0.006,-0.001 0.009,0 0.003,0.002 0.006,0.005 0.008,0.009 0.002,0.004 0.003,0.008 0.002,0.012 -0,0.004 -0.002,0.007 -0.005,0.008 -0.003,0.002 -0.006,0.002 -0.009,-0 -0.003,-0.002 -0.006,-0.005 -0.008,-0.009zm-0.023 -0.173c-0.002,0.001 -0.005,0.003 -0.008,0.006 -0.004,0.004 -0.009,0.009 -0.013,0.015 -0.003,0.004 -0.007,0.01 -0.011,0.017 -0.002,0.002 -0.003,0.005 -0.005,0.009l-0.005 0.009c0.002,-0.008 0.005,-0.015 0.007,-0.02 0.003,-0.007 0.007,-0.013 0.011,-0.018 0.005,-0.006 0.009,-0.012 0.014,-0.015 0.006,-0.005 0.013,-0.007 0.019,-0.007 -0.003,0.001 -0.006,0.002 -0.009,0.004zm0.053 0.1c-0.007,-0.002 -0.011,-0.006 -0.013,-0.011 -0.002,-0.004 -0.002,-0.011 -0.001,-0.019 0,-0.002 0,-0.004 0.001,-0.006l0.001 -0.006c0.001,-0.005 0.002,-0.01 0.002,-0.013 0.001,-0.011 0.001,-0.02 0,-0.028 -0.002,-0.012 -0.006,-0.021 -0.013,-0.028 -0.007,-0.007 -0.015,-0.01 -0.025,-0.008 -0.01,0.001 -0.02,0.007 -0.03,0.018 -0.011,0.012 -0.022,0.029 -0.03,0.052 -0.009,0.023 -0.015,0.048 -0.017,0.075 -0.002,0.028 -0,0.053 0.006,0.076 0.007,0.025 0.018,0.044 0.033,0.058 0.017,0.015 0.039,0.022 0.065,0.021 0.025,-0.001 0.045,-0.01 0.06,-0.026 0.014,-0.015 0.023,-0.033 0.025,-0.055 0.002,-0.022 -0.002,-0.042 -0.012,-0.06 -0.012,-0.02 -0.029,-0.033 -0.052,-0.04zm0.078 -0.099c-0.002,0.002 -0.004,0.005 -0.005,0.008 -0.001,0.003 -0.001,0.006 -0.001,0.01 -0,0.005 0.001,0.012 0.002,0.021l0.002 0.01 0.002 0.01c-0.003,-0.007 -0.005,-0.014 -0.007,-0.02 -0.002,-0.008 -0.003,-0.015 -0.003,-0.021 0,-0.004 0.001,-0.008 0.002,-0.011 0.001,-0.004 0.003,-0.007 0.006,-0.009 0.005,-0.004 0.011,-0.006 0.019,-0.006 -0.007,0.001 -0.013,0.004 -0.017,0.008zm0.068 0.01c-0.006,-0.011 -0.013,-0.019 -0.022,-0.026 -0.008,-0.005 -0.016,-0.008 -0.025,-0.009 -0.008,-0 -0.016,0.001 -0.023,0.005 -0.007,0.004 -0.012,0.01 -0.015,0.017 -0.006,0.013 -0.005,0.033 0.002,0.058 0.001,0.004 0.003,0.009 0.005,0.016l0.003 0.008 0.003 0.008c0.004,0.013 0.006,0.023 0.007,0.032 0.003,0.02 0.004,0.041 0.004,0.063 0,0.007 -0,0.015 -0,0.024l-0 0.005 -0 0.005c-0,0.004 -0,0.007 -0,0.01 -0,0.013 0.001,0.022 0.003,0.028 0.002,0.007 0.007,0.011 0.015,0.013 0.014,0.003 0.027,-0.005 0.037,-0.025 0.01,-0.018 0.017,-0.042 0.021,-0.073 0.004,-0.03 0.005,-0.059 0.003,-0.088 -0.002,-0.031 -0.007,-0.054 -0.016,-0.07zm0.13 -0.022l-0.004 0.001c-0.001,0 -0.002,0.001 -0.003,0.002 -0.001,0 -0.002,0.001 -0.003,0.002l-0.002 0.001 -0.002 0.001 -0.003 0.002c-0.001,0.001 -0.002,0.002 -0.003,0.002 -0.007,0.006 -0.014,0.014 -0.02,0.024 -0.005,0.008 -0.01,0.017 -0.015,0.028 -0.003,0.008 -0.007,0.018 -0.012,0.03 0.002,-0.01 0.005,-0.021 0.009,-0.032 0.004,-0.011 0.009,-0.02 0.015,-0.029 0.007,-0.01 0.014,-0.018 0.021,-0.024 0.009,-0.007 0.019,-0.011 0.029,-0.01l-0.007 0.002zm0.121 0.091c-0.013,-0.035 -0.031,-0.063 -0.054,-0.083 -0.023,-0.02 -0.046,-0.029 -0.069,-0.025 -0.02,0.003 -0.037,0.018 -0.053,0.045 -0.015,0.025 -0.026,0.055 -0.032,0.089 -0.007,0.039 -0.007,0.076 -0,0.11 0.003,0.016 0.008,0.03 0.014,0.039 0.007,0.011 0.014,0.017 0.023,0.018 0.014,0.002 0.025,-0.004 0.033,-0.017 0.006,-0.01 0.012,-0.026 0.016,-0.048 0.001,-0.004 0.002,-0.008 0.002,-0.013l0.001 -0.007 0.001 -0.007c0.002,-0.011 0.003,-0.019 0.004,-0.024 0.003,-0.016 0.007,-0.025 0.012,-0.026 0.004,-0.001 0.007,0.001 0.011,0.005 0.003,0.004 0.006,0.01 0.01,0.019 0.001,0.003 0.003,0.007 0.005,0.013l0.002 0.007 0.003 0.007c0.004,0.012 0.008,0.022 0.012,0.029 0.009,0.02 0.02,0.033 0.032,0.04 0.011,0.006 0.021,0.006 0.031,-0.001 0.006,-0.005 0.011,-0.012 0.014,-0.023 0.003,-0.011 0.005,-0.024 0.005,-0.039 0,-0.034 -0.008,-0.07 -0.023,-0.11zm0.187 0.096c-0.002,0.004 -0.005,0.007 -0.009,0.008 -0.004,0.002 -0.007,0.003 -0.011,0.002 0.008,-0.002 0.013,-0.006 0.017,-0.013 0.002,-0.003 0.003,-0.006 0.004,-0.01 0.001,-0.003 0.001,-0.007 0.001,-0.012 0.002,0.004 0.002,0.008 0.002,0.012 -0,0.004 -0.001,0.009 -0.004,0.012zm-0.033 -0.015c-0.002,-0.004 -0.003,-0.008 -0.002,-0.011 0,-0.004 0.002,-0.007 0.005,-0.008 0.003,-0.002 0.006,-0.002 0.009,0 0.003,0.002 0.006,0.005 0.008,0.008 0.002,0.004 0.003,0.008 0.002,0.012 -0.001,0.004 -0.002,0.006 -0.005,0.008 -0.003,0.001 -0.006,0.001 -0.009,-0 -0.003,-0.002 -0.006,-0.004 -0.008,-0.008zm-0.07 -0.179c-0.002,0 -0.004,0.001 -0.007,0.001 -0.005,0.001 -0.009,0.003 -0.013,0.005 -0.004,0.002 -0.007,0.006 -0.009,0.011 -0.002,0.005 -0.003,0.01 -0.003,0.015 -0.002,-0.005 -0.001,-0.011 0,-0.016 0.002,-0.005 0.005,-0.009 0.01,-0.013 0.004,-0.003 0.009,-0.004 0.014,-0.005 0.003,-0 0.005,-0 0.008,0l0.004 0.001 0.004 0.001 -0.004 0 -0.003 0zm0.1 0.108c-0.007,-0.002 -0.012,-0.005 -0.015,-0.009 -0.003,-0.004 -0.005,-0.008 -0.007,-0.015 -0.001,-0.004 -0.002,-0.01 -0.003,-0.02 -0.001,-0.005 -0.001,-0.009 -0.002,-0.012 -0.001,-0.005 -0.001,-0.009 -0.002,-0.013 -0.004,-0.018 -0.012,-0.032 -0.025,-0.041 -0.01,-0.008 -0.022,-0.012 -0.037,-0.014 -0.011,-0.001 -0.02,0 -0.029,0.004 -0.01,0.004 -0.017,0.011 -0.021,0.02 -0.005,0.01 -0.006,0.02 -0.003,0.031 0.003,0.012 0.011,0.019 0.023,0.02 0.007,0.001 0.01,0.006 0.01,0.016 -0,0.003 -0.001,0.007 -0.002,0.012 -0,0.001 -0.001,0.003 -0.001,0.005l-0 0.001 -0 0.001c-0,0.001 -0,0.001 -0,0.002 -0.005,0.022 -0.007,0.044 -0.006,0.066 0.001,0.023 0.005,0.044 0.012,0.061 0.008,0.019 0.019,0.034 0.033,0.045 0.015,0.011 0.034,0.017 0.056,0.016 0.024,-0.001 0.043,-0.009 0.058,-0.025 0.014,-0.014 0.022,-0.032 0.024,-0.053 0.002,-0.021 -0.002,-0.04 -0.012,-0.058 -0.011,-0.019 -0.028,-0.032 -0.05,-0.038zm0.213 0.081l-0.003 0.001c-0.002,0.001 -0.004,0.002 -0.006,0.002 -0.004,0.001 -0.008,0.001 -0.012,0.001 0.004,-0.001 0.008,-0.002 0.011,-0.004l0.003 -0.001 0.003 -0.001c0.002,-0.001 0.004,-0.002 0.006,-0.002 0.004,-0.002 0.008,-0.003 0.012,-0.003 0.005,-0.001 0.009,-0.001 0.012,-0 -0.007,0.002 -0.014,0.004 -0.023,0.007l-0.003 0.001zm-0.061 -0.193c-0.006,0.002 -0.011,0.004 -0.016,0.007 -0.005,0.004 -0.01,0.008 -0.014,0.012 -0.004,0.004 -0.007,0.009 -0.01,0.015 -0.004,0.009 -0.008,0.021 -0.011,0.036 -0.001,0.006 -0.003,0.012 -0.003,0.019 -0,0.003 -0.001,0.006 -0.001,0.01l-0.001 0.009c-0,-0.013 0.001,-0.026 0.003,-0.038 0.002,-0.014 0.006,-0.026 0.011,-0.037 0.003,-0.007 0.007,-0.012 0.01,-0.016 0.005,-0.005 0.01,-0.009 0.015,-0.012 0.005,-0.003 0.011,-0.005 0.017,-0.007 0.006,-0.001 0.012,-0.002 0.018,-0.002 -0.007,0.001 -0.012,0.002 -0.017,0.004zm0.04 0.11l0.002 -0.001c0.001,-0 0.002,-0.001 0.003,-0.001 0.002,-0 0.005,-0 0.007,0 0.003,0.001 0.005,0.002 0.006,0.004 -0.002,-0 -0.004,-0.001 -0.006,-0 -0.002,0 -0.004,0 -0.006,0.001l-0.002 0 -0.002 0c-0.001,0 -0.002,0 -0.003,0.001 -0.002,0 -0.005,-0 -0.007,-0.001l0.003 -0.001 0.003 -0.001 0.001 -0zm0.011 0.068c-0.007,0.003 -0.012,0.004 -0.017,0.002 -0.004,-0.002 -0.007,-0.004 -0.008,-0.009 -0.001,-0.004 -0.001,-0.008 0.001,-0.012 0.002,-0.004 0.006,-0.006 0.01,-0.007 0.014,-0.002 0.024,-0.006 0.03,-0.013 0.006,-0.006 0.008,-0.014 0.008,-0.023 -0.001,-0.009 -0.005,-0.015 -0.012,-0.019 -0.007,-0.004 -0.016,-0.005 -0.026,-0.002 -0.009,0.002 -0.014,0 -0.017,-0.007 -0.001,-0.003 -0.001,-0.006 -0,-0.009 0.001,-0.003 0.002,-0.006 0.005,-0.008 0.004,-0.003 0.009,-0.005 0.016,-0.007 0.003,-0 0.006,-0.001 0.01,-0.001l0.005 -0 0.005 -0c0.008,-0.001 0.015,-0.003 0.02,-0.005 0.006,-0.003 0.011,-0.008 0.013,-0.014 0.004,-0.011 0.002,-0.022 -0.007,-0.033 -0.008,-0.011 -0.02,-0.019 -0.035,-0.024 -0.016,-0.006 -0.032,-0.008 -0.048,-0.005 -0.018,0.003 -0.034,0.011 -0.046,0.025 -0.012,0.013 -0.02,0.032 -0.025,0.059 -0.005,0.024 -0.006,0.051 -0.004,0.081 0.002,0.029 0.007,0.055 0.014,0.077 0.008,0.024 0.019,0.04 0.031,0.049 0.012,0.008 0.027,0.012 0.044,0.011 0.016,-0.001 0.032,-0.006 0.048,-0.014 0.016,-0.008 0.028,-0.018 0.038,-0.029 0.01,-0.012 0.015,-0.024 0.015,-0.037 -0,-0.016 -0.006,-0.026 -0.018,-0.031 -0.012,-0.005 -0.029,-0.003 -0.051,0.007zm-0.057 -0.231c0,-0 0.001,-0.001 0.001,-0.001 0.001,-0 0.001,-0 0.002,-0 -0,0 -0,0.001 -0,0.001l0 0 0 0.001 0 0.001 0 0.001c-0,0.002 -0.001,0.003 -0.001,0.004 -0.002,-0.001 -0.002,-0.003 -0.002,-0.005 0,-0.001 0,-0.002 0.001,-0.003zm0.01 0.03c0.006,-0.001 0.01,-0.005 0.012,-0.011 0.003,-0.006 0.003,-0.012 0.001,-0.02 -0.002,-0.007 -0.006,-0.012 -0.012,-0.015 -0.005,-0.003 -0.011,-0.003 -0.016,-0 -0.004,0.002 -0.007,0.006 -0.009,0.012 -0.002,0.005 -0.002,0.011 0,0.017 0.002,0.006 0.005,0.01 0.009,0.014 0.004,0.003 0.009,0.004 0.014,0.003zm0.043 -0.043c0.001,-0.002 0.002,-0.003 0.004,-0.003 0.002,-0.001 0.003,-0.001 0.005,0 -0.001,0.001 -0.002,0.002 -0.003,0.003 -0.001,0.001 -0.002,0.002 -0.002,0.003 -0.001,0.001 -0.001,0.002 -0.002,0.003l-0.001 0.002 -0.001 0.002c-0.001,-0.003 -0.001,-0.007 0.002,-0.01zm0.002 0.04c0.007,0.002 0.014,0 0.02,-0.005 0.006,-0.005 0.01,-0.012 0.011,-0.022 0.001,-0.009 -0.001,-0.017 -0.006,-0.024 -0.005,-0.006 -0.011,-0.01 -0.019,-0.009 -0.006,0 -0.012,0.003 -0.017,0.008 -0.005,0.005 -0.007,0.012 -0.008,0.019 -0.001,0.007 0.001,0.014 0.004,0.02 0.004,0.006 0.008,0.01 0.015,0.012zm0.25 0.181c-0.001,0.001 -0.002,0.002 -0.004,0.003l-0.002 0.002 -0.002 0.002c-0.003,0.003 -0.007,0.004 -0.01,0.005 -0.004,0.001 -0.007,0.001 -0.011,0.001 0.007,-0.002 0.013,-0.005 0.019,-0.009l0.002 -0.002 0.002 -0.002c0.002,-0.001 0.004,-0.002 0.005,-0.003 0.004,-0.002 0.007,-0.003 0.011,-0.002 -0.003,0.001 -0.006,0.002 -0.01,0.004zm-0.115 -0.136c-0.006,0.008 -0.012,0.017 -0.017,0.027 -0.004,0.009 -0.008,0.019 -0.012,0.031 0.002,-0.011 0.005,-0.022 0.009,-0.032 0.004,-0.01 0.01,-0.02 0.017,-0.028 0.007,-0.009 0.016,-0.016 0.025,-0.02 0.005,-0.002 0.01,-0.004 0.015,-0.005 0.006,-0.001 0.011,-0.001 0.015,-0.001 -0.011,0.001 -0.021,0.004 -0.029,0.008 -0.009,0.005 -0.017,0.012 -0.024,0.02zm0.158 0.157c-0.002,-0.022 -0.01,-0.035 -0.023,-0.04 -0.006,-0.002 -0.011,-0.003 -0.018,-0.001 -0.006,0.002 -0.012,0.005 -0.018,0.01 -0.005,0.005 -0.011,0.007 -0.017,0.006 -0.006,-0 -0.011,-0.003 -0.016,-0.008 -0.005,-0.005 -0.009,-0.012 -0.011,-0.02 -0.003,-0.009 -0.003,-0.019 -0.002,-0.029 0.002,-0.015 0.008,-0.024 0.02,-0.026 0.008,-0.002 0.02,0 0.035,0.006 0.007,0.002 0.013,0.002 0.018,-0.001 0.005,-0.003 0.009,-0.007 0.012,-0.014 0.003,-0.007 0.003,-0.014 0.002,-0.022 -0.001,-0.009 -0.005,-0.017 -0.011,-0.025 -0.012,-0.017 -0.028,-0.028 -0.047,-0.034 -0.018,-0.005 -0.035,-0.005 -0.053,-0 -0.023,0.007 -0.041,0.023 -0.056,0.049 -0.016,0.029 -0.023,0.064 -0.022,0.105 0.001,0.047 0.013,0.084 0.037,0.11 0.011,0.012 0.023,0.021 0.038,0.027 0.014,0.005 0.03,0.007 0.046,0.005 0.028,-0.003 0.05,-0.015 0.066,-0.034 0.015,-0.019 0.022,-0.04 0.019,-0.064zm0.084 -0.188c-0.009,0.002 -0.016,0.003 -0.022,0.005 -0.008,0.003 -0.015,0.006 -0.02,0.01 -0.004,0.003 -0.006,0.005 -0.008,0.008 -0.002,0.003 -0.003,0.007 -0.003,0.011 -0.001,-0.004 -0.001,-0.008 0.001,-0.012 0.002,-0.003 0.004,-0.007 0.008,-0.01 0.005,-0.004 0.012,-0.008 0.021,-0.011 0.014,-0.005 0.029,-0.006 0.045,-0.005 -0.008,0.001 -0.016,0.002 -0.023,0.004zm0.036 -0.02c-0.031,-0.001 -0.057,0.003 -0.076,0.013 -0.02,0.01 -0.03,0.025 -0.028,0.043 0.001,0.01 0.005,0.017 0.013,0.022 0.005,0.003 0.013,0.005 0.024,0.006l0.006 0 0.006 0c0.005,0 0.009,0.001 0.012,0.001 0.008,0.002 0.013,0.005 0.015,0.01 0.001,0.003 0,0.021 -0.002,0.055 -0.001,0.017 -0.002,0.031 -0.002,0.043 -0,0.017 0,0.032 0.002,0.044 0.002,0.019 0.009,0.034 0.019,0.046 0.011,0.012 0.024,0.017 0.039,0.014 0.028,-0.005 0.037,-0.035 0.028,-0.09 -0.005,-0.029 -0.008,-0.054 -0.008,-0.075 -0.001,-0.022 0.001,-0.035 0.005,-0.039 0.003,-0.002 0.008,-0.004 0.015,-0.004 0.002,-0 0.005,-0 0.01,-0l0.005 0 0.005 -0c0.008,-0 0.015,-0.002 0.02,-0.005 0.006,-0.003 0.01,-0.009 0.012,-0.017 0.002,-0.01 0.001,-0.019 -0.005,-0.027 -0.005,-0.008 -0.014,-0.015 -0.025,-0.021 -0.023,-0.012 -0.053,-0.019 -0.089,-0.02zm0.272 0.202c-0.002,0.004 -0.005,0.007 -0.009,0.009 -0.004,0.002 -0.008,0.003 -0.012,0.002 0.008,-0.002 0.014,-0.006 0.018,-0.013 0.002,-0.003 0.003,-0.006 0.004,-0.011 0,-0.004 0.001,-0.008 0.001,-0.012 0.002,0.004 0.002,0.008 0.002,0.013 -0,0.005 -0.001,0.009 -0.004,0.013zm-0.034 -0.015c-0.002,-0.004 -0.003,-0.008 -0.002,-0.012 0,-0.004 0.002,-0.007 0.005,-0.009 0.003,-0.002 0.006,-0.001 0.009,0 0.003,0.002 0.006,0.005 0.008,0.009 0.002,0.004 0.003,0.008 0.002,0.012 -0,0.004 -0.002,0.007 -0.005,0.008 -0.003,0.002 -0.006,0.002 -0.009,-0 -0.003,-0.002 -0.006,-0.005 -0.008,-0.009zm-0.023 -0.173c-0.002,0.001 -0.005,0.003 -0.008,0.006 -0.004,0.004 -0.009,0.009 -0.013,0.015 -0.003,0.004 -0.007,0.01 -0.011,0.017 -0.002,0.002 -0.003,0.005 -0.005,0.009l-0.005 0.009c0.002,-0.008 0.005,-0.015 0.007,-0.02 0.003,-0.007 0.007,-0.013 0.011,-0.018 0.005,-0.006 0.009,-0.012 0.014,-0.015 0.006,-0.005 0.013,-0.007 0.019,-0.007 -0.003,0.001 -0.006,0.002 -0.009,0.004zm0.053 0.1c-0.007,-0.002 -0.011,-0.006 -0.013,-0.011 -0.002,-0.004 -0.002,-0.011 -0.001,-0.019 0,-0.002 0,-0.004 0.001,-0.006l0.001 -0.006c0.001,-0.005 0.002,-0.01 0.002,-0.013 0.001,-0.011 0.001,-0.02 0,-0.028 -0.002,-0.012 -0.006,-0.021 -0.013,-0.028 -0.007,-0.007 -0.015,-0.01 -0.025,-0.008 -0.01,0.001 -0.02,0.007 -0.03,0.018 -0.011,0.012 -0.022,0.029 -0.03,0.052 -0.009,0.023 -0.015,0.048 -0.017,0.075 -0.002,0.028 -0,0.053 0.006,0.076 0.007,0.025 0.018,0.044 0.033,0.058 0.017,0.015 0.039,0.022 0.065,0.021 0.025,-0.001 0.045,-0.01 0.06,-0.026 0.014,-0.015 0.023,-0.033 0.025,-0.055 0.002,-0.022 -0.002,-0.042 -0.012,-0.06 -0.012,-0.02 -0.029,-0.033 -0.052,-0.04zm0.078 -0.099c-0.002,0.002 -0.004,0.005 -0.005,0.008 -0.001,0.003 -0.001,0.006 -0.001,0.01 -0,0.005 0.001,0.012 0.002,0.021l0.002 0.01 0.002 0.01c-0.003,-0.007 -0.005,-0.014 -0.007,-0.02 -0.002,-0.008 -0.003,-0.015 -0.003,-0.021 0,-0.004 0.001,-0.008 0.002,-0.011 0.001,-0.004 0.003,-0.007 0.006,-0.009 0.005,-0.004 0.011,-0.006 0.019,-0.006 -0.007,0.001 -0.013,0.004 -0.017,0.008zm0.068 0.01c-0.006,-0.011 -0.013,-0.019 -0.022,-0.026 -0.008,-0.005 -0.017,-0.008 -0.025,-0.009 -0.009,-0 -0.016,0.001 -0.023,0.005 -0.007,0.004 -0.012,0.01 -0.015,0.017 -0.006,0.013 -0.005,0.033 0.002,0.058 0.001,0.004 0.003,0.009 0.005,0.016l0.003 0.008 0.003 0.008c0.004,0.013 0.006,0.023 0.007,0.032 0.003,0.02 0.004,0.041 0.004,0.063 0,0.007 -0,0.015 -0,0.024l-0 0.005 -0 0.005c-0,0.004 -0,0.007 -0,0.01 -0,0.013 0.001,0.022 0.003,0.028 0.002,0.007 0.007,0.011 0.015,0.013 0.014,0.003 0.026,-0.005 0.037,-0.025 0.01,-0.018 0.017,-0.042 0.021,-0.073 0.004,-0.03 0.005,-0.059 0.003,-0.088 -0.002,-0.031 -0.007,-0.054 -0.016,-0.07zm-3.774 0.557c-0.002,0.003 -0.005,0.006 -0.007,0.01 -0.004,0.006 -0.008,0.013 -0.012,0.022l-0.003 0.006 -0.003 0.006c-0.002,0.004 -0.004,0.008 -0.006,0.011 -0.003,0.004 -0.006,0.008 -0.008,0.01 -0.004,0.003 -0.007,0.006 -0.011,0.006 0.004,-0.002 0.007,-0.004 0.009,-0.008 0.002,-0.003 0.004,-0.006 0.007,-0.011 0.001,-0.003 0.003,-0.007 0.006,-0.011l0.006 -0.011c0.005,-0.01 0.009,-0.017 0.013,-0.022 0.003,-0.004 0.006,-0.007 0.009,-0.009 0.004,-0.003 0.008,-0.005 0.011,-0.005 -0.003,0.001 -0.007,0.003 -0.01,0.007zm-0.119 0.192c-0.003,0.003 -0.006,0.005 -0.008,0.007 -0.006,0.005 -0.01,0.01 -0.014,0.014 -0.002,0.003 -0.003,0.006 -0.005,0.009 -0.001,0.003 -0.002,0.006 -0.002,0.01 -0,-0.003 0,-0.007 0.001,-0.011 0.001,-0.003 0.002,-0.007 0.004,-0.01 0.003,-0.005 0.007,-0.01 0.013,-0.016 0.004,-0.004 0.009,-0.008 0.016,-0.012l0.004 -0.003 0.004 -0.003c0.003,-0.002 0.006,-0.004 0.008,-0.006 -0.003,0.004 -0.008,0.009 -0.014,0.014l-0.008 0.006zm-0.037 -0.17c-0.002,0.003 -0.003,0.006 -0.004,0.01 -0.001,0.003 -0.001,0.007 -0.001,0.012 -0.002,-0.004 -0.002,-0.008 -0.002,-0.012 0,-0.004 0.002,-0.008 0.004,-0.012 0.002,-0.004 0.005,-0.006 0.009,-0.008 0.004,-0.002 0.007,-0.003 0.011,-0.002 -0.008,0.002 -0.013,0.006 -0.017,0.012zm0.166 -0.045c-0.008,0 -0.015,0.004 -0.023,0.013 -0.005,0.006 -0.012,0.015 -0.018,0.027l-0.004 0.007 -0.002 0.004 -0.002 0.003c-0.003,0.006 -0.005,0.01 -0.007,0.012 -0.005,0.008 -0.008,0.012 -0.011,0.013 -0.003,0 -0.009,-0.005 -0.019,-0.016l-0.002 -0.002 -0.002 -0.002c-0.001,-0.001 -0.003,-0.003 -0.004,-0.004 -0.003,-0.003 -0.005,-0.006 -0.008,-0.009 -0.006,-0.007 -0.013,-0.013 -0.019,-0.018 -0.01,-0.008 -0.02,-0.012 -0.03,-0.012 -0.01,0 -0.018,0.004 -0.025,0.011 -0.007,0.007 -0.011,0.016 -0.012,0.026 -0.001,0.011 0.001,0.022 0.007,0.033 0.004,0.008 0.011,0.016 0.019,0.024 0.003,0.003 0.007,0.007 0.011,0.011l0.006 0.005 0.006 0.005c0.009,0.008 0.015,0.014 0.019,0.018 0.005,0.006 0.008,0.012 0.009,0.017 0.001,0.005 -0.002,0.011 -0.008,0.017 -0.002,0.002 -0.006,0.005 -0.01,0.008l-0.003 0.002 -0.003 0.002 -0.006 0.004c-0.01,0.008 -0.017,0.015 -0.022,0.022 -0.007,0.01 -0.01,0.02 -0.01,0.032 -0,0.009 0.002,0.017 0.005,0.024 0.004,0.007 0.009,0.013 0.015,0.018 0.015,0.01 0.033,0.011 0.054,0.004 0.028,-0.01 0.056,-0.038 0.084,-0.083 0.024,-0.04 0.04,-0.078 0.046,-0.114 0.006,-0.037 0.006,-0.064 -0.001,-0.081 -0.006,-0.015 -0.016,-0.022 -0.031,-0.021zm0.248 0.19c-0.001,0.005 -0.003,0.009 -0.007,0.012 -0.003,0.003 -0.007,0.005 -0.012,0.006 -0.004,0.001 -0.008,0.001 -0.013,0 0.005,-0.001 0.009,-0.002 0.012,-0.003 0.004,-0.002 0.008,-0.004 0.01,-0.006 0.003,-0.003 0.005,-0.006 0.006,-0.01 0.001,-0.003 0.002,-0.007 0.003,-0.013 0.001,0.005 0.001,0.009 0,0.014zm-0.049 -0.004c-0.003,-0.005 -0.002,-0.013 0.002,-0.024 0.004,-0.011 0.008,-0.017 0.014,-0.017 0.006,-0 0.011,0.006 0.015,0.017 0.002,0.005 0.003,0.009 0.003,0.014 0,0.005 -0,0.008 -0.001,0.011 -0.002,0.003 -0.007,0.005 -0.016,0.005 -0.009,0 -0.014,-0.002 -0.017,-0.006zm-0.03 -0.135c-0.005,0.009 -0.01,0.018 -0.014,0.029 -0.003,0.008 -0.007,0.018 -0.011,0.031 0.002,-0.01 0.005,-0.021 0.008,-0.032 0.003,-0.01 0.008,-0.02 0.014,-0.03 0.006,-0.011 0.013,-0.019 0.02,-0.025 0.004,-0.003 0.008,-0.006 0.013,-0.009 0.005,-0.002 0.01,-0.004 0.015,-0.004 -0.009,0.001 -0.017,0.006 -0.026,0.015 -0.007,0.007 -0.013,0.015 -0.019,0.025zm-0.081 0.167c-0.003,0.002 -0.006,0.004 -0.007,0.005 -0.002,0.002 -0.004,0.005 -0.005,0.008 -0.001,-0.004 0,-0.007 0.003,-0.01 0.002,-0.002 0.004,-0.005 0.008,-0.007 0.006,-0.003 0.012,-0.005 0.018,-0.005l-0.004 0.002 -0.004 0.002c-0.003,0.002 -0.006,0.003 -0.008,0.004zm0.234 -0.031c-0.005,-0.001 -0.009,-0.004 -0.011,-0.006 -0.002,-0.003 -0.004,-0.007 -0.005,-0.012 -0.001,-0.003 -0.001,-0.009 -0.002,-0.019 -0,-0.005 -0.001,-0.009 -0.001,-0.013 -0.001,-0.005 -0.001,-0.01 -0.002,-0.015 -0.007,-0.041 -0.018,-0.073 -0.034,-0.095 -0.015,-0.021 -0.033,-0.031 -0.052,-0.031 -0.017,0 -0.033,0.01 -0.049,0.031 -0.016,0.021 -0.028,0.048 -0.036,0.08 -0.003,0.013 -0.006,0.026 -0.007,0.039 -0,0.002 -0.001,0.005 -0.001,0.007l-0 0.004 -0.001 0.003c-0.001,0.005 -0.001,0.009 -0.001,0.011 -0.001,0.007 -0.003,0.012 -0.005,0.015 -0.002,0.003 -0.007,0.006 -0.013,0.007 -0.017,0.004 -0.028,0.011 -0.035,0.021 -0.006,0.009 -0.007,0.019 -0.004,0.031 0.005,0.017 0.023,0.029 0.053,0.038 0.028,0.008 0.062,0.012 0.102,0.012 0.037,0 0.066,-0.002 0.086,-0.006 0.029,-0.006 0.048,-0.017 0.056,-0.034 0.008,-0.015 0.008,-0.029 0,-0.042 -0.007,-0.012 -0.02,-0.021 -0.039,-0.026z"/>
   <path class="fil0" d="M0.84 0.619c-0.003,0.002 -0.006,0.006 -0.009,0.01 -0.004,0.006 -0.009,0.013 -0.015,0.023l-0.003 0.006 -0.004 0.006c-0.003,0.004 -0.006,0.008 -0.009,0.011 -0.003,0.004 -0.007,0.006 -0.011,0.008 -0.005,0.002 -0.009,0.003 -0.013,0.003 0.008,-0.001 0.015,-0.006 0.022,-0.014 0.002,-0.003 0.005,-0.007 0.008,-0.011l0.004 -0.006 0.004 -0.006c0.006,-0.01 0.011,-0.018 0.016,-0.023 0.004,-0.004 0.007,-0.007 0.01,-0.009 0.004,-0.003 0.008,-0.004 0.013,-0.004 -0.005,0.001 -0.009,0.002 -0.012,0.005zm-0.155 0.023c-0.004,0.006 -0.009,0.014 -0.013,0.024 -0.003,0.006 -0.006,0.015 -0.01,0.026 -0.001,0.004 -0.003,0.009 -0.004,0.013l-0.002 0.007 -0.002 0.007c0.003,-0.02 0.008,-0.038 0.015,-0.055 0.004,-0.01 0.009,-0.019 0.014,-0.025 0.003,-0.004 0.006,-0.007 0.01,-0.009 0.004,-0.003 0.008,-0.004 0.013,-0.004 -0.007,0.001 -0.014,0.006 -0.021,0.015zm0.238 0.097c-0.003,-0.042 -0.011,-0.076 -0.023,-0.102 -0.012,-0.025 -0.026,-0.038 -0.042,-0.04 -0.012,-0.001 -0.022,0.002 -0.032,0.011 -0.007,0.007 -0.016,0.02 -0.027,0.039 -0.01,0.017 -0.018,0.024 -0.025,0.023 -0.005,-0.001 -0.011,-0.007 -0.018,-0.019 -0.008,-0.013 -0.016,-0.023 -0.024,-0.03 -0.01,-0.008 -0.019,-0.012 -0.029,-0.01 -0.027,0.004 -0.048,0.038 -0.062,0.104 -0.009,0.042 -0.013,0.08 -0.01,0.114 0.003,0.038 0.014,0.059 0.034,0.063 0.011,0.002 0.021,-0.001 0.029,-0.01 0.006,-0.007 0.012,-0.017 0.017,-0.031 0.002,-0.005 0.004,-0.011 0.006,-0.018l0.001 -0.004 0.001 -0.004c0.001,-0.003 0.002,-0.006 0.002,-0.008 0.004,-0.011 0.007,-0.017 0.01,-0.019 0.002,-0.001 0.005,0.001 0.007,0.006 0.001,0.002 0.002,0.004 0.003,0.008l0.001 0.002 0.001 0.002 0.002 0.005c0.004,0.008 0.007,0.015 0.011,0.019 0.005,0.006 0.012,0.009 0.019,0.009 0.006,0 0.011,-0.003 0.016,-0.007 0.003,-0.003 0.007,-0.008 0.011,-0.016l0.002 -0.004 0.002 -0.004c0.002,-0.003 0.003,-0.005 0.005,-0.007 0.003,-0.004 0.006,-0.005 0.009,-0.004 0.003,0.001 0.006,0.007 0.01,0.016 0.001,0.002 0.001,0.004 0.002,0.007l0.001 0.004 0.001 0.004c0.002,0.007 0.004,0.012 0.006,0.016 0.005,0.013 0.01,0.022 0.016,0.029 0.007,0.009 0.016,0.013 0.026,0.013 0.017,0 0.029,-0.015 0.036,-0.045 0.006,-0.027 0.007,-0.064 0.004,-0.113zm0.195 -0.127c-0.003,0.003 -0.005,0.006 -0.007,0.01 -0.004,0.006 -0.008,0.013 -0.013,0.022l-0.003 0.006 -0.003 0.006c-0.002,0.004 -0.004,0.008 -0.006,0.011 -0.003,0.004 -0.006,0.008 -0.008,0.01 -0.004,0.003 -0.007,0.006 -0.011,0.006 0.004,-0.002 0.007,-0.004 0.009,-0.008 0.002,-0.003 0.004,-0.006 0.007,-0.01 0.001,-0.003 0.003,-0.007 0.006,-0.012l0.006 -0.011c0.005,-0.01 0.009,-0.017 0.013,-0.022 0.003,-0.004 0.006,-0.007 0.009,-0.009 0.004,-0.003 0.008,-0.005 0.011,-0.005 -0.003,0.001 -0.007,0.003 -0.01,0.007zm-0.119 0.192c-0.003,0.003 -0.006,0.005 -0.008,0.007 -0.006,0.005 -0.01,0.01 -0.014,0.014 -0.002,0.003 -0.003,0.006 -0.005,0.009 -0.001,0.003 -0.002,0.006 -0.002,0.01 -0,-0.003 0,-0.007 0.001,-0.011 0.001,-0.003 0.002,-0.007 0.004,-0.01 0.003,-0.005 0.007,-0.01 0.013,-0.016 0.004,-0.004 0.009,-0.008 0.016,-0.012l0.004 -0.003 0.004 -0.003c0.003,-0.002 0.006,-0.004 0.008,-0.006 -0.003,0.004 -0.008,0.009 -0.014,0.014l-0.008 0.006zm-0.037 -0.17c-0.002,0.003 -0.003,0.006 -0.004,0.01 -0.001,0.003 -0.001,0.007 -0.001,0.012 -0.002,-0.004 -0.002,-0.008 -0.002,-0.012 0,-0.004 0.002,-0.008 0.004,-0.012 0.002,-0.004 0.005,-0.006 0.009,-0.008 0.004,-0.002 0.007,-0.002 0.011,-0.002 -0.008,0.002 -0.013,0.006 -0.017,0.012zm0.166 -0.045c-0.008,0 -0.015,0.004 -0.023,0.013 -0.006,0.006 -0.012,0.015 -0.018,0.027l-0.004 0.007 -0.002 0.004 -0.002 0.003c-0.003,0.006 -0.005,0.01 -0.007,0.012 -0.005,0.008 -0.008,0.012 -0.011,0.012 -0.003,0 -0.009,-0.005 -0.019,-0.016l-0.002 -0.002 -0.002 -0.002c-0.001,-0.001 -0.003,-0.003 -0.004,-0.004 -0.003,-0.003 -0.005,-0.006 -0.008,-0.009 -0.006,-0.007 -0.013,-0.013 -0.019,-0.018 -0.01,-0.008 -0.02,-0.012 -0.03,-0.012 -0.01,0 -0.018,0.004 -0.025,0.011 -0.007,0.007 -0.011,0.016 -0.012,0.026 -0.001,0.011 0.001,0.022 0.007,0.033 0.004,0.008 0.011,0.016 0.019,0.024 0.003,0.003 0.007,0.007 0.011,0.011l0.006 0.005 0.006 0.005c0.009,0.008 0.015,0.014 0.019,0.018 0.005,0.006 0.008,0.012 0.009,0.017 0.001,0.005 -0.002,0.011 -0.008,0.017 -0.002,0.002 -0.006,0.005 -0.01,0.008l-0.003 0.002 -0.003 0.002 -0.006 0.004c-0.01,0.008 -0.017,0.015 -0.022,0.022 -0.007,0.01 -0.01,0.02 -0.01,0.032 -0,0.009 0.002,0.017 0.005,0.024 0.004,0.007 0.009,0.013 0.015,0.018 0.015,0.01 0.033,0.011 0.054,0.004 0.028,-0.01 0.056,-0.038 0.084,-0.083 0.024,-0.04 0.04,-0.078 0.046,-0.114 0.006,-0.037 0.006,-0.064 -0.001,-0.081 -0.006,-0.015 -0.016,-0.022 -0.031,-0.021zm0.188 0.12c-0.001,0.004 -0.003,0.008 -0.006,0.011 -0.003,0.003 -0.006,0.006 -0.01,0.008 -0.004,0.002 -0.008,0.002 -0.012,0.002 0.004,-0.001 0.007,-0.002 0.01,-0.004 0.003,-0.002 0.006,-0.005 0.008,-0.007 0.005,-0.006 0.008,-0.013 0.01,-0.021 0,0.004 0,0.008 -0.001,0.012zm-0.035 -0.017c0.002,-0.004 0.004,-0.007 0.008,-0.009 0.003,-0.002 0.006,-0.002 0.009,-0.001 0.003,0.001 0.005,0.004 0.005,0.008 0.001,0.004 0,0.008 -0.002,0.012 -0.002,0.004 -0.004,0.007 -0.007,0.009 -0.003,0.002 -0.006,0.002 -0.009,0.001 -0.003,-0.001 -0.004,-0.004 -0.005,-0.008 -0.001,-0.004 -0,-0.008 0.002,-0.012zm-0.032 -0.082c-0.009,0.005 -0.016,0.011 -0.022,0.018 -0.006,0.007 -0.011,0.016 -0.015,0.026 -0.003,0.008 -0.006,0.018 -0.009,0.029 0,-0.004 0.001,-0.01 0.002,-0.015 0.001,-0.005 0.003,-0.01 0.004,-0.015 0.003,-0.01 0.008,-0.019 0.015,-0.027 0.007,-0.008 0.015,-0.015 0.024,-0.019 0.004,-0.002 0.009,-0.004 0.014,-0.005 0.005,-0.001 0.01,-0.002 0.014,-0.002 -0.011,0.002 -0.02,0.005 -0.027,0.009zm0.035 -0.026c-0.026,0 -0.047,0.009 -0.063,0.025 -0.015,0.014 -0.025,0.034 -0.03,0.06 -0.005,0.023 -0.006,0.049 -0.002,0.076 0.003,0.027 0.01,0.051 0.021,0.074 0.01,0.022 0.021,0.039 0.033,0.05 0.011,0.01 0.021,0.016 0.032,0.016 0.009,0.001 0.017,-0.002 0.024,-0.01 0.007,-0.007 0.01,-0.017 0.011,-0.028 0.001,-0.008 0,-0.017 -0.001,-0.028 -0.001,-0.003 -0.001,-0.007 -0.003,-0.012l-0.001 -0.006c-0,-0.002 -0.001,-0.004 -0.001,-0.005 -0.001,-0.008 -0.001,-0.014 -0,-0.019 0.001,-0.006 0.005,-0.01 0.012,-0.014 0.021,-0.011 0.036,-0.027 0.046,-0.048 0.009,-0.019 0.013,-0.039 0.01,-0.06 -0.003,-0.021 -0.012,-0.038 -0.026,-0.051 -0.016,-0.014 -0.036,-0.021 -0.06,-0.021zm0.174 0.015c-0.009,0.002 -0.016,0.003 -0.022,0.005 -0.008,0.003 -0.015,0.006 -0.02,0.01 -0.004,0.003 -0.006,0.005 -0.008,0.008 -0.002,0.003 -0.003,0.007 -0.003,0.011 -0.001,-0.004 -0.001,-0.008 0.001,-0.012 0.002,-0.003 0.004,-0.006 0.008,-0.01 0.005,-0.004 0.012,-0.008 0.021,-0.011 0.014,-0.005 0.029,-0.006 0.045,-0.005 -0.008,0.001 -0.016,0.002 -0.023,0.004zm0.036 -0.02c-0.031,-0.001 -0.057,0.003 -0.076,0.013 -0.02,0.01 -0.03,0.025 -0.028,0.043 0.001,0.01 0.005,0.017 0.013,0.022 0.005,0.003 0.013,0.005 0.024,0.006l0.006 0 0.006 0c0.005,0 0.009,0.001 0.012,0.001 0.008,0.002 0.013,0.005 0.015,0.01 0.001,0.003 0,0.021 -0.002,0.055 -0.001,0.017 -0.002,0.031 -0.002,0.043 -0,0.017 0,0.032 0.002,0.044 0.002,0.019 0.009,0.034 0.019,0.046 0.011,0.012 0.024,0.017 0.039,0.014 0.028,-0.005 0.037,-0.035 0.028,-0.09 -0.005,-0.029 -0.008,-0.054 -0.008,-0.075 -0.001,-0.022 0.001,-0.035 0.005,-0.039 0.003,-0.002 0.008,-0.004 0.015,-0.004 0.002,-0 0.005,-0 0.01,-0l0.005 0 0.005 -0c0.008,-0 0.015,-0.002 0.02,-0.005 0.006,-0.003 0.01,-0.009 0.012,-0.017 0.002,-0.01 0.001,-0.019 -0.005,-0.027 -0.005,-0.008 -0.014,-0.015 -0.025,-0.021 -0.023,-0.012 -0.053,-0.019 -0.089,-0.02zm0.343 0.056c-0.005,0.007 -0.01,0.013 -0.015,0.018 -0.006,0.006 -0.012,0.011 -0.018,0.013 0.005,-0.003 0.01,-0.009 0.016,-0.016 0.005,-0.006 0.009,-0.012 0.014,-0.018 0.002,-0.003 0.004,-0.006 0.006,-0.01l0.002 -0.003 0.001 -0.002c0.001,-0.002 0.002,-0.004 0.003,-0.005 0.003,-0.003 0.006,-0.006 0.009,-0.008 0.004,-0.002 0.008,-0.003 0.011,-0.003 -0.007,0.001 -0.012,0.005 -0.017,0.012 -0.001,0.001 -0.002,0.003 -0.003,0.005l-0.001 0.003 -0.002 0.003c-0.002,0.003 -0.004,0.006 -0.006,0.01zm-0.077 -0.044c-0.003,0.002 -0.005,0.004 -0.007,0.008 -0.003,0.005 -0.006,0.011 -0.009,0.019 -0.002,0.005 -0.004,0.012 -0.006,0.021l-0.003 0.011 -0.003 0.011c0,-0.009 0.001,-0.016 0.003,-0.022 0.001,-0.008 0.003,-0.015 0.006,-0.022 0.003,-0.008 0.007,-0.015 0.01,-0.02 0.002,-0.003 0.005,-0.005 0.008,-0.007 0.004,-0.002 0.007,-0.003 0.01,-0.002 -0.003,0.001 -0.007,0.002 -0.009,0.004zm0.09 0.119c-0.005,-0.003 -0.007,-0.006 -0.004,-0.008 0.001,-0.001 0.003,-0.003 0.006,-0.004l0.002 -0.001 0.002 -0.001c0.002,-0.001 0.004,-0.002 0.005,-0.003 0.01,-0.005 0.017,-0.011 0.023,-0.017 0.009,-0.009 0.015,-0.02 0.018,-0.032 0.003,-0.011 0.003,-0.022 -0.001,-0.032 -0.004,-0.009 -0.01,-0.016 -0.018,-0.021 -0.008,-0.004 -0.017,-0.005 -0.025,-0.002 -0.01,0.003 -0.018,0.011 -0.025,0.022 -0.011,0.02 -0.022,0.033 -0.033,0.041 -0.004,0.003 -0.007,0.004 -0.009,0.003 -0.002,-0.001 -0.001,-0.005 0.001,-0.01 0.009,-0.021 0.011,-0.038 0.007,-0.051 -0.003,-0.011 -0.01,-0.017 -0.021,-0.02 -0.022,-0.005 -0.039,0.007 -0.05,0.037 -0.009,0.024 -0.014,0.058 -0.016,0.103 -0.002,0.045 0.001,0.082 0.009,0.109 0.009,0.033 0.024,0.049 0.044,0.048 0.019,-0.001 0.029,-0.017 0.032,-0.046 0.001,-0.01 0,-0.021 -0.001,-0.034 -0.001,-0.004 -0.001,-0.009 -0.002,-0.013 -0,-0.002 -0,-0.003 -0.001,-0.005l-0 -0.002 -0 -0.001 -0 -0.001c-0.001,-0.004 -0,-0.006 0.001,-0.008 0.002,-0.001 0.004,-0.001 0.006,0.002 0.007,0.006 0.014,0.022 0.021,0.048 0.004,0.016 0.011,0.03 0.018,0.04 0.007,0.009 0.016,0.016 0.024,0.018 0.009,0.003 0.017,0.002 0.025,-0.001 0.008,-0.004 0.015,-0.01 0.02,-0.019 0.006,-0.01 0.009,-0.022 0.009,-0.034 -0,-0.012 -0.003,-0.025 -0.009,-0.037 -0.012,-0.027 -0.033,-0.048 -0.062,-0.065zm0.218 0.062c-0.002,0.004 -0.005,0.007 -0.009,0.009 -0.004,0.002 -0.008,0.003 -0.012,0.002 0.008,-0.002 0.014,-0.006 0.018,-0.013 0.002,-0.003 0.003,-0.006 0.004,-0.011 0,-0.004 0.001,-0.008 0.001,-0.012 0.002,0.004 0.002,0.008 0.002,0.013 -0,0.005 -0.001,0.009 -0.004,0.013zm-0.034 -0.015c-0.002,-0.004 -0.003,-0.008 -0.002,-0.012 0,-0.004 0.002,-0.007 0.005,-0.009 0.003,-0.001 0.006,-0.001 0.009,0 0.003,0.002 0.006,0.005 0.008,0.009 0.002,0.004 0.003,0.008 0.002,0.012 -0,0.004 -0.002,0.007 -0.005,0.008 -0.003,0.002 -0.006,0.002 -0.009,-0 -0.003,-0.002 -0.006,-0.005 -0.008,-0.009zm-0.023 -0.173c-0.002,0.001 -0.005,0.003 -0.008,0.006 -0.004,0.004 -0.009,0.009 -0.013,0.015 -0.003,0.004 -0.007,0.01 -0.011,0.017 -0.002,0.002 -0.003,0.005 -0.005,0.009l-0.005 0.009c0.002,-0.008 0.005,-0.015 0.007,-0.02 0.003,-0.007 0.007,-0.013 0.011,-0.018 0.005,-0.006 0.009,-0.012 0.014,-0.015 0.006,-0.005 0.013,-0.007 0.019,-0.007 -0.003,0.001 -0.006,0.002 -0.009,0.004zm0.053 0.1c-0.007,-0.002 -0.011,-0.006 -0.013,-0.011 -0.002,-0.004 -0.002,-0.011 -0.001,-0.019 0,-0.002 0,-0.004 0.001,-0.006l0.001 -0.006c0.001,-0.005 0.002,-0.01 0.002,-0.013 0.001,-0.011 0.001,-0.02 0,-0.028 -0.002,-0.012 -0.006,-0.021 -0.013,-0.028 -0.007,-0.007 -0.015,-0.01 -0.025,-0.008 -0.01,0.001 -0.02,0.007 -0.03,0.018 -0.011,0.012 -0.022,0.029 -0.03,0.052 -0.009,0.023 -0.015,0.048 -0.017,0.075 -0.002,0.028 -0,0.053 0.006,0.076 0.007,0.025 0.018,0.044 0.033,0.058 0.017,0.015 0.039,0.022 0.065,0.021 0.025,-0.001 0.045,-0.01 0.06,-0.026 0.014,-0.015 0.023,-0.033 0.025,-0.055 0.002,-0.022 -0.002,-0.042 -0.012,-0.06 -0.012,-0.02 -0.029,-0.033 -0.052,-0.04zm0.078 -0.099c-0.002,0.002 -0.004,0.005 -0.005,0.008 -0.001,0.003 -0.001,0.006 -0.001,0.01 -0,0.005 0.001,0.012 0.002,0.021l0.002 0.01 0.002 0.01c-0.003,-0.007 -0.005,-0.014 -0.007,-0.02 -0.002,-0.008 -0.003,-0.015 -0.003,-0.021 0,-0.004 0.001,-0.008 0.002,-0.011 0.001,-0.004 0.003,-0.007 0.006,-0.009 0.005,-0.004 0.011,-0.006 0.019,-0.006 -0.007,0.001 -0.013,0.004 -0.017,0.008zm0.068 0.01c-0.006,-0.011 -0.013,-0.019 -0.022,-0.026 -0.008,-0.005 -0.016,-0.008 -0.025,-0.009 -0.008,-0 -0.016,0.001 -0.023,0.005 -0.007,0.004 -0.012,0.01 -0.015,0.017 -0.006,0.013 -0.005,0.033 0.002,0.058 0.001,0.004 0.003,0.009 0.005,0.016l0.003 0.008 0.003 0.008c0.004,0.013 0.006,0.023 0.007,0.032 0.003,0.02 0.004,0.041 0.004,0.063 0,0.007 -0,0.015 -0,0.024l-0 0.005 -0 0.005c-0,0.004 -0,0.007 -0,0.01 -0,0.013 0.001,0.022 0.003,0.028 0.002,0.007 0.007,0.011 0.015,0.013 0.014,0.003 0.027,-0.005 0.037,-0.025 0.01,-0.018 0.017,-0.042 0.021,-0.073 0.004,-0.03 0.005,-0.059 0.003,-0.088 -0.002,-0.031 -0.007,-0.054 -0.016,-0.07zm0.13 -0.022l-0.004 0.001c-0.001,0 -0.002,0.001 -0.003,0.002 -0.001,0 -0.002,0.001 -0.003,0.002l-0.002 0.001 -0.002 0.001 -0.003 0.002c-0.001,0.001 -0.002,0.002 -0.003,0.002 -0.007,0.006 -0.014,0.014 -0.02,0.024 -0.005,0.008 -0.01,0.017 -0.015,0.028 -0.003,0.008 -0.007,0.018 -0.012,0.03 0.002,-0.01 0.005,-0.021 0.009,-0.032 0.004,-0.011 0.009,-0.02 0.015,-0.029 0.007,-0.01 0.014,-0.018 0.021,-0.024 0.009,-0.007 0.019,-0.011 0.029,-0.01l-0.007 0.001zm0.121 0.091c-0.013,-0.035 -0.031,-0.063 -0.054,-0.083 -0.023,-0.02 -0.046,-0.029 -0.069,-0.025 -0.02,0.003 -0.037,0.018 -0.053,0.045 -0.015,0.025 -0.026,0.055 -0.032,0.089 -0.007,0.039 -0.007,0.076 -0,0.109 0.003,0.016 0.008,0.03 0.014,0.04 0.007,0.011 0.014,0.017 0.023,0.018 0.014,0.002 0.025,-0.004 0.033,-0.017 0.006,-0.01 0.012,-0.026 0.016,-0.048 0.001,-0.004 0.002,-0.008 0.002,-0.013l0.001 -0.007 0.001 -0.007c0.002,-0.011 0.003,-0.019 0.004,-0.024 0.003,-0.016 0.007,-0.025 0.012,-0.026 0.004,-0.001 0.007,0.001 0.011,0.005 0.003,0.004 0.006,0.01 0.01,0.019 0.001,0.003 0.003,0.007 0.005,0.013l0.002 0.007 0.003 0.007c0.004,0.012 0.008,0.022 0.012,0.029 0.009,0.02 0.02,0.033 0.032,0.04 0.011,0.006 0.021,0.006 0.031,-0.001 0.006,-0.005 0.011,-0.012 0.014,-0.023 0.003,-0.011 0.005,-0.024 0.005,-0.039 0,-0.034 -0.008,-0.07 -0.023,-0.11zm0.171 0.093c-0.002,0.004 -0.005,0.007 -0.009,0.009 -0.004,0.002 -0.008,0.003 -0.012,0.002 0.008,-0.002 0.014,-0.006 0.018,-0.013 0.002,-0.003 0.003,-0.006 0.004,-0.011 0,-0.004 0.001,-0.008 0.001,-0.012 0.002,0.004 0.002,0.008 0.002,0.013 -0,0.005 -0.001,0.009 -0.004,0.012zm-0.034 -0.015c-0.002,-0.004 -0.003,-0.008 -0.002,-0.012 0,-0.004 0.002,-0.007 0.005,-0.009 0.003,-0.002 0.006,-0.001 0.009,0 0.003,0.002 0.006,0.005 0.008,0.009 0.002,0.004 0.003,0.008 0.002,0.012 -0,0.004 -0.002,0.007 -0.005,0.008 -0.003,0.002 -0.006,0.002 -0.009,-0 -0.003,-0.002 -0.006,-0.005 -0.008,-0.009zm-0.023 -0.173c-0.002,0.001 -0.005,0.003 -0.008,0.006 -0.004,0.004 -0.009,0.009 -0.013,0.015 -0.003,0.004 -0.007,0.01 -0.011,0.017 -0.002,0.002 -0.003,0.005 -0.005,0.009l-0.005 0.009c0.002,-0.008 0.005,-0.015 0.007,-0.02 0.003,-0.007 0.007,-0.013 0.011,-0.018 0.005,-0.006 0.009,-0.011 0.014,-0.015 0.006,-0.005 0.013,-0.007 0.019,-0.007 -0.003,0.001 -0.006,0.002 -0.009,0.004zm0.053 0.1c-0.007,-0.002 -0.011,-0.006 -0.013,-0.011 -0.002,-0.004 -0.002,-0.011 -0.001,-0.019 0,-0.002 0,-0.004 0.001,-0.006l0.001 -0.006c0.001,-0.005 0.002,-0.01 0.002,-0.013 0.001,-0.011 0.001,-0.02 0,-0.028 -0.002,-0.012 -0.006,-0.021 -0.013,-0.028 -0.007,-0.007 -0.015,-0.01 -0.025,-0.008 -0.01,0.001 -0.02,0.007 -0.03,0.018 -0.011,0.012 -0.022,0.029 -0.03,0.052 -0.009,0.023 -0.015,0.048 -0.017,0.075 -0.002,0.028 -0,0.053 0.006,0.076 0.007,0.025 0.018,0.044 0.033,0.058 0.017,0.015 0.039,0.022 0.065,0.021 0.025,-0.001 0.045,-0.01 0.06,-0.026 0.014,-0.015 0.023,-0.033 0.025,-0.055 0.002,-0.022 -0.002,-0.042 -0.012,-0.06 -0.012,-0.02 -0.029,-0.033 -0.052,-0.04zm0.078 -0.099c-0.002,0.002 -0.004,0.005 -0.005,0.008 -0.001,0.003 -0.001,0.006 -0.001,0.01 -0,0.005 0.001,0.012 0.002,0.021l0.002 0.01 0.002 0.01c-0.003,-0.007 -0.005,-0.014 -0.007,-0.02 -0.002,-0.008 -0.003,-0.015 -0.003,-0.021 0,-0.004 0.001,-0.008 0.002,-0.011 0.001,-0.004 0.003,-0.007 0.006,-0.009 0.005,-0.004 0.011,-0.006 0.019,-0.006 -0.007,0.001 -0.013,0.004 -0.017,0.008zm0.068 0.01c-0.006,-0.011 -0.013,-0.019 -0.022,-0.026 -0.008,-0.005 -0.017,-0.008 -0.026,-0.009 -0.008,-0 -0.016,0.001 -0.023,0.005 -0.007,0.004 -0.012,0.01 -0.015,0.017 -0.006,0.013 -0.005,0.033 0.002,0.058 0.001,0.004 0.003,0.009 0.005,0.016l0.003 0.008 0.003 0.008c0.004,0.013 0.006,0.023 0.007,0.032 0.003,0.02 0.004,0.041 0.004,0.063 0,0.007 -0,0.015 -0,0.024l-0 0.005 -0 0.005c-0,0.004 -0,0.007 -0,0.01 -0,0.013 0.001,0.022 0.003,0.028 0.002,0.007 0.007,0.011 0.015,0.013 0.014,0.003 0.027,-0.005 0.037,-0.025 0.01,-0.018 0.017,-0.042 0.021,-0.073 0.004,-0.03 0.005,-0.059 0.003,-0.088 -0.002,-0.031 -0.007,-0.054 -0.016,-0.07zm0.202 -0.02c-0.002,0.001 -0.003,0.002 -0.005,0.005 -0.002,0.003 -0.004,0.008 -0.005,0.014 -0.001,0.008 -0.002,0.018 -0.001,0.03l0 0.004 0 0.004c0,0.003 0,0.006 0,0.008 -0,0.006 -0.001,0.011 -0.003,0.015 -0.002,0.005 -0.005,0.009 -0.008,0.013 -0.004,0.004 -0.008,0.006 -0.012,0.008 0.009,-0.005 0.014,-0.012 0.018,-0.022 0.001,-0.005 0.002,-0.01 0.002,-0.015 0,-0.002 0,-0.004 0,-0.007l-0 -0.004 -0 -0.004c-0,-0.013 0,-0.023 0.002,-0.031 0.001,-0.006 0.004,-0.011 0.006,-0.014 0.002,-0.002 0.004,-0.004 0.006,-0.004 0.002,-0.001 0.004,-0.001 0.007,-0.001 -0.003,0 -0.005,0.001 -0.007,0.002zm-0.13 0.009c-0.004,0.005 -0.008,0.012 -0.01,0.019 -0.002,0.006 -0.004,0.014 -0.005,0.022l-0.002 0.011 -0.002 0.011c-0,-0.016 0.002,-0.031 0.006,-0.046 0.002,-0.008 0.006,-0.015 0.011,-0.02 0.003,-0.003 0.006,-0.005 0.009,-0.007 0.004,-0.002 0.007,-0.002 0.011,-0.002 -0.007,0.001 -0.013,0.004 -0.018,0.011zm0.135 -0.027c-0.013,0.001 -0.022,0.008 -0.027,0.02 -0.005,0.012 -0.007,0.03 -0.005,0.054 0.001,0.011 -0.001,0.019 -0.006,0.024 -0.004,0.005 -0.009,0.007 -0.015,0.007 -0.006,-0 -0.011,-0.003 -0.015,-0.008 -0.003,-0.005 -0.005,-0.012 -0.004,-0.021 0.002,-0.025 -0.001,-0.043 -0.008,-0.055 -0.006,-0.011 -0.017,-0.017 -0.031,-0.019 -0.012,-0.002 -0.022,0.002 -0.031,0.01 -0.009,0.008 -0.015,0.018 -0.019,0.032 -0.007,0.026 -0.011,0.057 -0.01,0.093 0.001,0.034 0.005,0.067 0.012,0.098 0.006,0.023 0.014,0.039 0.026,0.049 0.009,0.008 0.02,0.011 0.031,0.009 0.025,-0.005 0.035,-0.025 0.032,-0.06 -0.002,-0.026 0.002,-0.039 0.014,-0.039 0.006,-0 0.01,0.002 0.014,0.007 0.004,0.006 0.006,0.016 0.006,0.03 -0.001,0.023 0.003,0.041 0.012,0.053 0.008,0.011 0.018,0.016 0.032,0.016 0.023,-0.001 0.038,-0.017 0.047,-0.048 0.006,-0.023 0.009,-0.06 0.009,-0.112 0,-0.04 -0.005,-0.073 -0.017,-0.099 -0.012,-0.027 -0.027,-0.04 -0.045,-0.039zm0.298 0.193c-0.002,0.005 -0.005,0.008 -0.009,0.011 -0.004,0.003 -0.008,0.004 -0.013,0.003 0.004,-0.001 0.008,-0.003 0.011,-0.005 0.003,-0.003 0.006,-0.006 0.008,-0.01 0.003,-0.007 0.004,-0.016 0.001,-0.026 0.002,0.004 0.004,0.008 0.004,0.014 0,0.005 -0,0.01 -0.002,0.015zm-0.036 -0.012c-0.002,-0.004 -0.003,-0.008 -0.003,-0.012 0,-0.004 0.002,-0.007 0.004,-0.009 0.003,-0.002 0.006,-0.002 0.009,-0 0.004,0.002 0.006,0.004 0.009,0.008 0.002,0.004 0.003,0.008 0.003,0.012 -0,0.004 -0.002,0.007 -0.004,0.009 -0.003,0.002 -0.006,0.002 -0.009,0 -0.003,-0.002 -0.006,-0.004 -0.009,-0.008zm-0.019 -0.087c0.003,-0.001 0.006,-0.002 0.008,-0.004 0.003,-0.002 0.005,-0.004 0.007,-0.006 0.002,-0.002 0.004,-0.005 0.005,-0.008 0.001,-0.003 0.003,-0.006 0.004,-0.009 0.001,0.007 -0.001,0.014 -0.006,0.02 -0.002,0.003 -0.005,0.005 -0.008,0.006 -0.003,0.001 -0.007,0.002 -0.01,0.001zm-0.005 -0.03c0.001,-0.003 0.003,-0.005 0.005,-0.006 0.002,-0.001 0.004,-0.001 0.006,-0 0.002,0.001 0.003,0.003 0.003,0.006 0,0.003 -0,0.005 -0.002,0.008 -0.001,0.003 -0.003,0.005 -0.005,0.006 -0.002,0.001 -0.004,0.001 -0.006,0 -0.002,-0.001 -0.003,-0.003 -0.003,-0.006 -0,-0.003 0,-0.005 0.001,-0.008zm-0.034 -0.037c-0.003,0.003 -0.006,0.008 -0.009,0.013 -0.005,0.008 -0.009,0.018 -0.013,0.029 -0.003,0.009 -0.006,0.02 -0.008,0.032 0.001,-0.011 0.003,-0.022 0.005,-0.033 0.003,-0.011 0.007,-0.021 0.013,-0.031 0.006,-0.011 0.013,-0.019 0.022,-0.024 0.005,-0.003 0.01,-0.006 0.014,-0.007 0.005,-0.001 0.01,-0.002 0.015,-0.002 -0.011,0.001 -0.02,0.005 -0.028,0.012 -0.004,0.003 -0.008,0.007 -0.011,0.011zm0.085 0.078c-0.002,-0.001 -0.003,-0.003 -0.002,-0.007 0,-0.001 0.001,-0.003 0.003,-0.006l0.001 -0.002 0.001 -0.002c0.001,-0.001 0.001,-0.003 0.002,-0.004 0.003,-0.008 0.006,-0.015 0.007,-0.022 0.002,-0.01 0.002,-0.02 -0,-0.031 -0.002,-0.012 -0.009,-0.022 -0.019,-0.03 -0.011,-0.008 -0.023,-0.012 -0.037,-0.012 -0.015,-0 -0.029,0.005 -0.042,0.015 -0.014,0.012 -0.025,0.029 -0.033,0.052 -0.008,0.024 -0.012,0.05 -0.012,0.078 -0,0.028 0.004,0.054 0.013,0.078 0.009,0.026 0.022,0.045 0.039,0.059 0.019,0.015 0.042,0.021 0.068,0.019 0.025,-0.002 0.045,-0.012 0.059,-0.028 0.013,-0.015 0.02,-0.033 0.021,-0.054 0.001,-0.021 -0.004,-0.041 -0.016,-0.059 -0.012,-0.02 -0.029,-0.034 -0.051,-0.043z"/>
   <path class="fil0" d="M3.486 0.741l-0.003 0.001c-0.002,0.001 -0.004,0.001 -0.006,0.002 -0.004,0.001 -0.009,0.002 -0.012,0.001 0.004,-0.001 0.008,-0.002 0.012,-0.004l0.003 -0.001 0.003 -0.001c0.002,-0.001 0.004,-0.002 0.006,-0.002 0.004,-0.002 0.008,-0.003 0.012,-0.003 0.005,-0.001 0.009,-0.001 0.012,-0 -0.007,0.002 -0.014,0.004 -0.023,0.007l-0.003 0.001zm-0.061 -0.194c-0.006,0.002 -0.011,0.004 -0.016,0.007 -0.005,0.004 -0.01,0.008 -0.014,0.012 -0.004,0.004 -0.007,0.009 -0.01,0.015 -0.004,0.009 -0.008,0.021 -0.011,0.036 -0.001,0.006 -0.002,0.012 -0.003,0.019 -0,0.003 -0.001,0.006 -0.001,0.01l-0.001 0.01c-0,-0.013 0.001,-0.026 0.003,-0.038 0.002,-0.014 0.006,-0.027 0.011,-0.037 0.003,-0.007 0.007,-0.012 0.011,-0.016 0.005,-0.005 0.01,-0.009 0.015,-0.012 0.005,-0.003 0.011,-0.005 0.017,-0.007 0.006,-0.001 0.012,-0.002 0.018,-0.002 -0.007,0.001 -0.012,0.002 -0.017,0.004zm0.04 0.11l0.001 -0c0.001,-0 0.002,-0.001 0.003,-0.001 0.003,-0 0.005,-0 0.007,0 0.003,0.001 0.005,0.002 0.006,0.004 -0.002,-0 -0.004,-0.001 -0.006,-0 -0.002,0 -0.004,0 -0.006,0.001l-0.002 0 -0.001 0c-0.001,0 -0.002,0 -0.003,0.001 -0.002,0 -0.005,-0 -0.007,-0.001l0.003 -0.001 0.003 -0.001 0.001 -0.001zm0.011 0.068c-0.007,0.003 -0.012,0.004 -0.017,0.002 -0.004,-0.001 -0.007,-0.004 -0.008,-0.009 -0.001,-0.004 -0.001,-0.008 0.001,-0.012 0.002,-0.004 0.006,-0.006 0.01,-0.007 0.014,-0.002 0.024,-0.006 0.03,-0.013 0.006,-0.006 0.009,-0.014 0.008,-0.023 -0.001,-0.009 -0.005,-0.015 -0.012,-0.019 -0.007,-0.004 -0.016,-0.005 -0.026,-0.002 -0.008,0.003 -0.014,0 -0.017,-0.007 -0.001,-0.003 -0.001,-0.006 -0,-0.009 0.001,-0.003 0.002,-0.006 0.005,-0.008 0.004,-0.003 0.009,-0.005 0.016,-0.006 0.003,-0 0.006,-0.001 0.01,-0.001l0.005 -0 0.005 -0.001c0.008,-0.001 0.015,-0.003 0.02,-0.005 0.006,-0.003 0.011,-0.008 0.013,-0.014 0.004,-0.011 0.002,-0.022 -0.007,-0.033 -0.008,-0.011 -0.02,-0.019 -0.035,-0.024 -0.016,-0.006 -0.032,-0.008 -0.049,-0.005 -0.018,0.003 -0.034,0.011 -0.046,0.025 -0.012,0.013 -0.02,0.032 -0.025,0.059 -0.005,0.024 -0.006,0.051 -0.004,0.081 0.002,0.029 0.007,0.055 0.014,0.077 0.008,0.024 0.019,0.04 0.031,0.049 0.012,0.008 0.027,0.012 0.044,0.011 0.016,-0.001 0.032,-0.005 0.048,-0.014 0.016,-0.008 0.028,-0.018 0.038,-0.029 0.01,-0.012 0.015,-0.024 0.015,-0.037 -0,-0.016 -0.006,-0.026 -0.018,-0.031 -0.012,-0.005 -0.03,-0.003 -0.051,0.007zm0.215 -0.079c-0.001,0.004 -0.003,0.008 -0.006,0.011 -0.003,0.003 -0.006,0.006 -0.01,0.008 -0.004,0.002 -0.008,0.002 -0.012,0.002 0.004,-0.001 0.007,-0.002 0.01,-0.004 0.003,-0.002 0.006,-0.005 0.008,-0.007 0.005,-0.006 0.008,-0.013 0.01,-0.021 0.001,0.004 0,0.008 -0.001,0.012zm-0.035 -0.017c0.002,-0.004 0.004,-0.007 0.008,-0.009 0.003,-0.002 0.006,-0.002 0.009,-0.001 0.003,0.001 0.005,0.004 0.005,0.008 0.001,0.004 0,0.008 -0.002,0.012 -0.002,0.004 -0.004,0.007 -0.007,0.009 -0.003,0.002 -0.006,0.002 -0.009,0.001 -0.003,-0.001 -0.004,-0.004 -0.005,-0.008 -0.001,-0.004 -0,-0.008 0.002,-0.012zm-0.032 -0.082c-0.009,0.005 -0.016,0.011 -0.022,0.018 -0.006,0.007 -0.011,0.016 -0.015,0.026 -0.003,0.008 -0.006,0.018 -0.009,0.029 0,-0.004 0.001,-0.009 0.002,-0.015 0.001,-0.005 0.003,-0.01 0.004,-0.015 0.003,-0.01 0.008,-0.019 0.015,-0.027 0.007,-0.008 0.015,-0.015 0.024,-0.019 0.004,-0.002 0.009,-0.004 0.014,-0.005 0.005,-0.001 0.01,-0.002 0.014,-0.002 -0.011,0.002 -0.02,0.005 -0.027,0.009zm0.035 -0.026c-0.026,0 -0.047,0.009 -0.063,0.025 -0.015,0.014 -0.025,0.034 -0.03,0.06 -0.005,0.023 -0.006,0.049 -0.002,0.076 0.003,0.027 0.01,0.051 0.021,0.074 0.01,0.022 0.021,0.039 0.033,0.05 0.011,0.01 0.021,0.016 0.032,0.016 0.009,0.001 0.017,-0.002 0.024,-0.01 0.007,-0.007 0.01,-0.017 0.011,-0.028 0.001,-0.008 0,-0.017 -0.001,-0.028 -0.001,-0.003 -0.001,-0.007 -0.003,-0.012l-0.001 -0.006c-0,-0.002 -0.001,-0.004 -0.001,-0.005 -0.001,-0.008 -0.001,-0.014 -0,-0.019 0.001,-0.006 0.005,-0.01 0.012,-0.014 0.021,-0.011 0.036,-0.027 0.046,-0.048 0.009,-0.019 0.013,-0.039 0.01,-0.06 -0.003,-0.021 -0.012,-0.038 -0.026,-0.051 -0.016,-0.014 -0.036,-0.021 -0.06,-0.021zm0.244 0.18c-0.003,0.002 -0.005,0.004 -0.008,0.005 -0.003,0.001 -0.006,0.001 -0.009,0 0.006,-0.002 0.011,-0.005 0.015,-0.008 0.004,-0.003 0.007,-0.008 0.011,-0.014 -0.001,0.007 -0.004,0.012 -0.009,0.017zm-0.021 -0.011c-0.003,-0.001 -0.005,-0.004 -0.006,-0.008 -0.001,-0.004 -0.001,-0.008 0,-0.012 0.001,-0.004 0.004,-0.008 0.007,-0.01 0.003,-0.002 0.006,-0.003 0.009,-0.001 0.003,0.001 0.005,0.004 0.006,0.008 0.001,0.004 0.001,0.008 -0.001,0.012 -0.001,0.004 -0.004,0.007 -0.007,0.01 -0.003,0.002 -0.006,0.003 -0.009,0.001zm-0.034 -0.112c-0.005,0.007 -0.01,0.017 -0.017,0.03 -0.002,0.004 -0.005,0.01 -0.008,0.015l-0.008 0.016c0.003,-0.01 0.008,-0.021 0.013,-0.032 0.005,-0.01 0.01,-0.02 0.016,-0.03 0.007,-0.011 0.014,-0.021 0.021,-0.027l0.003 -0.003c0.001,-0.001 0.002,-0.002 0.003,-0.003l0.003 -0.003 0.003 -0.002c0.006,-0.004 0.011,-0.005 0.015,-0.005 -0.004,0.001 -0.009,0.003 -0.015,0.007l-0.003 0.003 -0.003 0.003c-0.001,0.001 -0.002,0.002 -0.003,0.003l-0.003 0.003c-0.006,0.008 -0.013,0.017 -0.02,0.027zm0.05 -0.062c-0.017,-0.002 -0.035,0.011 -0.056,0.039 -0.018,0.026 -0.034,0.058 -0.048,0.098 -0.014,0.039 -0.022,0.074 -0.023,0.104 -0.002,0.033 0.005,0.053 0.019,0.058 0.011,0.004 0.022,0.004 0.032,-0.001 0.008,-0.004 0.016,-0.011 0.024,-0.021 0.002,-0.002 0.003,-0.004 0.005,-0.007l0.005 -0.006c0.004,-0.006 0.007,-0.01 0.009,-0.012 0.007,-0.008 0.012,-0.012 0.017,-0.012 0.005,-0 0.011,0.003 0.018,0.011 0.002,0.002 0.006,0.006 0.01,0.011l0.005 0.006 0.005 0.006c0.009,0.009 0.017,0.015 0.024,0.018 0.01,0.004 0.019,0.004 0.028,-0.001 0.011,-0.006 0.017,-0.024 0.017,-0.054 0.001,-0.028 -0.003,-0.06 -0.011,-0.096 -0.008,-0.037 -0.02,-0.069 -0.033,-0.094 -0.015,-0.028 -0.032,-0.044 -0.048,-0.046z"/>
  </g>
 </g>
</svg>
