<?xml version="1.0" encoding="UTF-8"?>
<!DOCTYPE svg PUBLIC "-//W3C//DTD SVG 1.1//EN" "http://www.w3.org/Graphics/SVG/1.1/DTD/svg11.dtd">
<!-- Creator: CorelDRAW 2019 (64-Bit) -->
<svg xmlns="http://www.w3.org/2000/svg" xml:space="preserve" width="1.26614cm" height="0.14857cm" version="1.1" style="shape-rendering:geometricPrecision; text-rendering:geometricPrecision; image-rendering:optimizeQuality; fill-rule:evenodd; clip-rule:evenodd"
viewBox="0 0 1.365 0.16"
 xmlns:xlink="http://www.w3.org/1999/xlink"
 xmlns:xodm="http://www.corel.com/coreldraw/odm/2003">
 <defs>
  <style type="text/css">
   <![CDATA[
    .fil0 {fill:#A39F6B;fill-rule:nonzero}
   ]]>
  </style>
 </defs>
 <g id="Слой_x0020_1">
  <metadata id="CorelCorpID_0Corel-Layer"/>
  <path class="fil0" d="M0.09 0.012c-0.001,0 -0.002,0.001 -0.003,0.002 -0.001,0.002 -0.002,0.004 -0.003,0.007 -0.001,0.004 -0.001,0.01 -0.001,0.016l0 0.002 0 0.002c0,0.002 0,0.003 -0,0.004 -0,0.003 -0.001,0.006 -0.002,0.008 -0.001,0.003 -0.003,0.005 -0.004,0.007 -0.002,0.002 -0.004,0.003 -0.007,0.004 0.005,-0.002 0.008,-0.006 0.01,-0.011 0.001,-0.003 0.001,-0.005 0.001,-0.008 0,-0.001 0,-0.002 0,-0.004l-0 -0.002 0 -0.002c-0,-0.007 0,-0.012 0.001,-0.016 0.001,-0.003 0.002,-0.006 0.003,-0.008 0.001,-0.001 0.002,-0.002 0.003,-0.002 0.001,-0 0.002,-0.001 0.004,-0 -0.001,0 -0.003,0.001 -0.004,0.001zm-0.069 0.003c-0.002,0.003 -0.004,0.006 -0.006,0.01 -0.001,0.003 -0.002,0.007 -0.003,0.012l-0.001 0.006 -0.001 0.006c0,-0.008 0.002,-0.017 0.004,-0.024 0.001,-0.004 0.003,-0.008 0.006,-0.011 0.002,-0.002 0.003,-0.003 0.005,-0.003 0.002,-0.001 0.004,-0.001 0.006,-0.001 -0.004,0 -0.007,0.002 -0.01,0.005zm0.072 -0.012c-0.007,0 -0.012,0.004 -0.015,0.01 -0.003,0.006 -0.004,0.016 -0.003,0.029 0,0.006 -0.001,0.01 -0.003,0.013 -0.002,0.002 -0.005,0.004 -0.008,0.003 -0.003,-0 -0.006,-0.002 -0.008,-0.005 -0.002,-0.003 -0.002,-0.007 -0.002,-0.011 0.001,-0.013 0,-0.023 -0.004,-0.03 -0.003,-0.006 -0.009,-0.009 -0.016,-0.011 -0.006,-0.001 -0.012,0 -0.017,0.005 -0.005,0.004 -0.008,0.01 -0.01,0.017 -0.004,0.014 -0.007,0.03 -0.007,0.049 -0,0.018 0.001,0.036 0.005,0.052 0.003,0.012 0.007,0.021 0.013,0.026 0.005,0.004 0.01,0.006 0.016,0.005 0.013,-0.002 0.019,-0.013 0.018,-0.031 -0.001,-0.014 0.002,-0.021 0.008,-0.021 0.003,0 0.005,0.001 0.007,0.004 0.002,0.003 0.003,0.009 0.003,0.016 -0.001,0.012 0.001,0.022 0.005,0.028 0.004,0.006 0.009,0.009 0.017,0.009 0.012,0 0.021,-0.008 0.025,-0.025 0.004,-0.012 0.006,-0.032 0.006,-0.059 0.001,-0.021 -0.002,-0.039 -0.007,-0.053 -0.006,-0.015 -0.014,-0.022 -0.023,-0.021zm0.11 0.112l-0.002 0.001c-0.001,0 -0.002,0.001 -0.003,0.001 -0.002,0.001 -0.005,0.001 -0.007,0 0.002,-0 0.004,-0.001 0.006,-0.002l0.001 -0.001 0.001 -0.001c0.001,-0.001 0.002,-0.001 0.003,-0.001 0.002,-0.001 0.004,-0.001 0.006,-0.002 0.002,-0 0.005,-0 0.006,0 -0.004,0.001 -0.008,0.002 -0.012,0.004l-0.002 0.001zm-0.03 -0.104c-0.003,0.001 -0.006,0.002 -0.009,0.004 -0.003,0.002 -0.005,0.004 -0.007,0.006 -0.002,0.002 -0.004,0.005 -0.005,0.008 -0.002,0.005 -0.005,0.011 -0.007,0.019 -0.001,0.003 -0.001,0.006 -0.002,0.01 -0,0.001 -0.001,0.003 -0.001,0.005l-0.001 0.005c0,-0.007 0.001,-0.014 0.002,-0.02 0.001,-0.008 0.004,-0.014 0.006,-0.02 0.002,-0.004 0.004,-0.006 0.006,-0.008 0.003,-0.002 0.005,-0.004 0.008,-0.006 0.003,-0.001 0.006,-0.003 0.009,-0.003 0.003,-0.001 0.006,-0.001 0.009,-0.001 -0.004,0 -0.007,0.001 -0.009,0.002zm0.02 0.059l0.001 -0c0.001,-0 0.001,-0 0.002,-0 0.001,-0 0.003,-0 0.004,0 0.001,0 0.002,0.001 0.003,0.002 -0.001,-0 -0.002,-0 -0.003,-0 -0.001,0 -0.002,0 -0.003,0l-0.001 0 -0.001 0c-0.001,0 -0.001,0 -0.002,0 -0.001,0 -0.002,-0 -0.004,-0l0.002 -0.001 0.002 -0.001 0.001 -0zm0.005 0.036c-0.004,0.001 -0.007,0.002 -0.009,0.001 -0.002,-0.001 -0.003,-0.002 -0.004,-0.005 -0.001,-0.002 -0,-0.004 0.001,-0.006 0.001,-0.002 0.003,-0.003 0.006,-0.003 0.007,-0.001 0.013,-0.003 0.016,-0.006 0.003,-0.003 0.005,-0.007 0.005,-0.012 -0,-0.005 -0.002,-0.008 -0.006,-0.01 -0.004,-0.002 -0.008,-0.003 -0.014,-0.001 -0.005,0.001 -0.007,-0 -0.009,-0.004 -0,-0.002 -0.001,-0.003 -0,-0.005 0,-0.002 0.001,-0.003 0.003,-0.004 0.002,-0.002 0.005,-0.003 0.009,-0.003 0.001,-0 0.003,-0 0.005,-0.001l0.003 -0 0.003 -0c0.005,-0 0.008,-0.001 0.011,-0.002 0.003,-0.002 0.006,-0.004 0.007,-0.007 0.002,-0.006 0.001,-0.012 -0.003,-0.018 -0.004,-0.006 -0.01,-0.01 -0.018,-0.013 -0.009,-0.003 -0.017,-0.004 -0.026,-0.003 -0.01,0.001 -0.018,0.005 -0.025,0.012 -0.006,0.006 -0.011,0.017 -0.014,0.031 -0.003,0.013 -0.004,0.027 -0.003,0.043 0.001,0.015 0.003,0.029 0.007,0.041 0.004,0.013 0.009,0.022 0.016,0.026 0.006,0.004 0.014,0.007 0.023,0.006 0.008,-0 0.017,-0.002 0.026,-0.007 0.008,-0.004 0.015,-0.009 0.021,-0.015 0.006,-0.006 0.009,-0.013 0.009,-0.019 0,-0.009 -0.003,-0.014 -0.009,-0.017 -0.007,-0.003 -0.016,-0.002 -0.027,0.003zm0.084 -0.091c-0.001,0 -0.001,0.001 -0.002,0.001l-0.002 0.001 -0.002 0.001c-0.001,0 -0.001,0.001 -0.002,0.001 -0.002,0.002 -0.005,0.004 -0.007,0.006 -0.003,0.003 -0.005,0.006 -0.006,0.008 -0.003,0.005 -0.006,0.011 -0.007,0.018 -0,0.001 -0,0.003 -0.001,0.005l-0 0.005c-0,0.001 -0,0.003 -0,0.005l-0 0.005c-0.001,-0.007 -0.001,-0.014 -0,-0.021 0.001,-0.007 0.003,-0.014 0.006,-0.02l0.001 -0.002 0.002 -0.002c0,-0.001 0.001,-0.001 0.002,-0.002l0.001 -0.001 0.001 -0.001c0.003,-0.003 0.006,-0.005 0.008,-0.006 0.005,-0.003 0.011,-0.006 0.018,-0.007l-0.002 0.001 -0.002 0.001c-0.002,0.001 -0.003,0.001 -0.004,0.002zm0.072 0.021c-0.006,-0.013 -0.015,-0.023 -0.027,-0.029 -0.011,-0.005 -0.023,-0.007 -0.035,-0.005 -0.012,0.002 -0.023,0.008 -0.032,0.016 -0.009,0.009 -0.015,0.021 -0.016,0.034 -0.002,0.025 0.001,0.05 0.011,0.074 0.004,0.011 0.009,0.019 0.014,0.025 0.006,0.006 0.011,0.009 0.016,0.008 0.008,-0.001 0.012,-0.006 0.014,-0.014 0.002,-0.01 0.001,-0.027 -0.004,-0.05 -0.003,-0.019 -0.001,-0.029 0.006,-0.03 0.004,-0.001 0.007,0.003 0.009,0.01 0.002,0.007 0.003,0.015 0.003,0.025 -0.001,0.023 0.001,0.038 0.007,0.047 0.004,0.007 0.01,0.01 0.017,0.009 0.006,-0 0.012,-0.005 0.016,-0.013 0.004,-0.008 0.007,-0.018 0.009,-0.031 0.002,-0.013 0.002,-0.026 0,-0.039 -0.002,-0.014 -0.005,-0.027 -0.01,-0.038zm0.09 0.032c-0.001,0.002 -0.002,0.004 -0.004,0.006 -0.002,0.002 -0.003,0.003 -0.005,0.004 -0.002,0.001 -0.004,0.001 -0.006,0.001 0.002,-0 0.004,-0.001 0.006,-0.002 0.002,-0.001 0.003,-0.002 0.004,-0.004 0.003,-0.003 0.005,-0.007 0.006,-0.011 0,0.002 -0,0.004 -0.001,0.007zm-0.019 -0.009c0.001,-0.002 0.002,-0.004 0.004,-0.005 0.002,-0.001 0.003,-0.001 0.005,-0 0.001,0.001 0.002,0.002 0.003,0.004 0,0.002 -0,0.004 -0.001,0.006 -0.001,0.002 -0.002,0.004 -0.004,0.005 -0.002,0.001 -0.003,0.001 -0.005,0 -0.001,-0.001 -0.002,-0.002 -0.003,-0.004 -0,-0.002 0,-0.004 0.001,-0.006zm-0.016 -0.044c-0.005,0.002 -0.009,0.006 -0.012,0.009 -0.003,0.004 -0.006,0.008 -0.008,0.013 -0.002,0.004 -0.004,0.009 -0.005,0.015 0,-0.002 0.001,-0.005 0.001,-0.008 0.001,-0.003 0.002,-0.005 0.002,-0.008 0.002,-0.005 0.005,-0.01 0.008,-0.014 0.004,-0.004 0.008,-0.007 0.013,-0.01 0.002,-0.001 0.005,-0.002 0.007,-0.002 0.003,-0 0.005,-0.001 0.008,-0.001 -0.006,0.001 -0.011,0.002 -0.015,0.004zm0.019 -0.013c-0.014,-0 -0.025,0.004 -0.034,0.012 -0.008,0.007 -0.014,0.018 -0.017,0.031 -0.003,0.012 -0.004,0.026 -0.002,0.04 0.001,0.014 0.005,0.027 0.01,0.04 0.005,0.012 0.011,0.021 0.017,0.027 0.005,0.006 0.011,0.009 0.017,0.009 0.005,0.001 0.009,-0.001 0.013,-0.005 0.004,-0.004 0.006,-0.009 0.006,-0.015 0.001,-0.004 0,-0.009 -0,-0.015 -0,-0.002 -0.001,-0.004 -0.001,-0.007l-0 -0.003c-0,-0.001 -0,-0.002 -0.001,-0.003 -0.001,-0.004 -0.001,-0.008 0,-0.01 0.001,-0.003 0.003,-0.005 0.006,-0.007 0.011,-0.006 0.019,-0.014 0.025,-0.025 0.005,-0.01 0.007,-0.021 0.006,-0.032 -0.001,-0.011 -0.006,-0.02 -0.013,-0.027 -0.008,-0.008 -0.019,-0.012 -0.032,-0.012zm0.127 0.099c-0.001,0.001 -0.003,0.002 -0.004,0.002 -0.002,0 -0.003,0.001 -0.005,0 0.003,-0.001 0.006,-0.002 0.008,-0.004 0.002,-0.002 0.004,-0.004 0.006,-0.007 -0,0.004 -0.002,0.007 -0.005,0.009zm-0.011 -0.006c-0.002,-0.001 -0.003,-0.002 -0.003,-0.004 -0.001,-0.002 -0,-0.004 0,-0.006 0.001,-0.002 0.002,-0.004 0.004,-0.005 0.002,-0.001 0.003,-0.001 0.005,-0.001 0.002,0.001 0.003,0.002 0.003,0.004 0,0.002 0,0.004 -0.001,0.007 -0.001,0.002 -0.002,0.004 -0.004,0.005 -0.002,0.001 -0.003,0.001 -0.005,0.001zm-0.017 -0.06c-0.003,0.004 -0.006,0.009 -0.009,0.015 -0.001,0.002 -0.003,0.005 -0.004,0.008l-0.004 0.008c0.002,-0.005 0.004,-0.011 0.007,-0.017 0.003,-0.005 0.006,-0.011 0.009,-0.016 0.004,-0.006 0.008,-0.011 0.011,-0.014l0.002 -0.002c0.001,-0.001 0.001,-0.001 0.002,-0.001l0.002 -0.001 0.002 -0.001c0.003,-0.002 0.006,-0.003 0.008,-0.003 -0.002,0 -0.005,0.001 -0.008,0.003l-0.002 0.001 -0.002 0.002c-0,0 -0.001,0.001 -0.002,0.001l-0.002 0.002c-0.003,0.004 -0.007,0.009 -0.011,0.014zm0.027 -0.032c-0.009,-0.001 -0.019,0.005 -0.03,0.02 -0.01,0.013 -0.019,0.03 -0.027,0.051 -0.008,0.021 -0.013,0.039 -0.014,0.055 -0.001,0.018 0.002,0.028 0.009,0.031 0.006,0.002 0.011,0.002 0.017,-0 0.004,-0.002 0.008,-0.006 0.013,-0.011 0.001,-0.001 0.002,-0.002 0.003,-0.003l0.003 -0.003c0.002,-0.003 0.004,-0.005 0.005,-0.006 0.004,-0.004 0.007,-0.006 0.009,-0.006 0.003,0 0.006,0.002 0.009,0.006 0.001,0.001 0.003,0.003 0.005,0.006l0.003 0.003 0.003 0.003c0.005,0.005 0.009,0.008 0.013,0.01 0.005,0.002 0.01,0.002 0.015,-0 0.006,-0.003 0.009,-0.012 0.01,-0.028 0.001,-0.015 -0.001,-0.032 -0.005,-0.051 -0.004,-0.02 -0.009,-0.037 -0.016,-0.05 -0.008,-0.015 -0.016,-0.024 -0.025,-0.025zm0.13 0.108c-0.001,0.003 -0.003,0.004 -0.005,0.006 -0.002,0.001 -0.004,0.002 -0.007,0.001 0.002,-0 0.004,-0.001 0.006,-0.003 0.002,-0.001 0.003,-0.003 0.004,-0.005 0.002,-0.004 0.002,-0.009 0.001,-0.014 0.001,0.002 0.002,0.005 0.002,0.007 0,0.003 -0,0.005 -0.001,0.008zm-0.019 -0.007c-0.001,-0.002 -0.002,-0.004 -0.001,-0.006 0,-0.002 0.001,-0.004 0.002,-0.005 0.001,-0.001 0.003,-0.001 0.005,0 0.002,0.001 0.003,0.002 0.005,0.005 0.001,0.002 0.002,0.004 0.001,0.006 -0,0.002 -0.001,0.004 -0.002,0.005 -0.001,0.001 -0.003,0.001 -0.005,-0 -0.002,-0.001 -0.003,-0.002 -0.005,-0.005zm-0.009 -0.046c0.002,-0 0.003,-0.001 0.005,-0.002 0.001,-0.001 0.003,-0.002 0.004,-0.003 0.001,-0.001 0.002,-0.003 0.003,-0.004 0.001,-0.001 0.001,-0.003 0.002,-0.005 0,0.004 -0.001,0.007 -0.004,0.01 -0.001,0.001 -0.003,0.002 -0.005,0.003 -0.002,0.001 -0.004,0.001 -0.005,0zm-0.002 -0.016c0.001,-0.001 0.002,-0.003 0.003,-0.003 0.001,-0.001 0.002,-0.001 0.003,0 0.001,0.001 0.001,0.002 0.002,0.003 0,0.001 -0,0.003 -0.001,0.004 -0.001,0.001 -0.002,0.003 -0.003,0.003 -0.001,0.001 -0.002,0.001 -0.003,0 -0.001,-0.001 -0.001,-0.002 -0.002,-0.003 -0,-0.001 0,-0.003 0.001,-0.004zm-0.017 -0.02c-0.002,0.002 -0.003,0.004 -0.005,0.007 -0.003,0.004 -0.005,0.009 -0.007,0.015 -0.002,0.005 -0.003,0.01 -0.005,0.017 0.001,-0.006 0.002,-0.012 0.003,-0.017 0.002,-0.006 0.004,-0.011 0.007,-0.016 0.003,-0.006 0.007,-0.01 0.012,-0.012 0.003,-0.002 0.005,-0.003 0.008,-0.004 0.003,-0.001 0.006,-0.001 0.008,-0.001 -0.006,0.001 -0.011,0.002 -0.015,0.006 -0.002,0.002 -0.004,0.003 -0.006,0.006zm0.044 0.042c-0.001,-0 -0.001,-0.002 -0.001,-0.004 0,-0.001 0.001,-0.002 0.002,-0.003l0.001 -0.001 0.001 -0.001c0,-0.001 0.001,-0.002 0.001,-0.002 0.002,-0.004 0.003,-0.008 0.004,-0.012 0.001,-0.005 0.001,-0.011 0,-0.016 -0.001,-0.006 -0.004,-0.012 -0.01,-0.016 -0.006,-0.004 -0.012,-0.007 -0.019,-0.007 -0.008,-0 -0.015,0.002 -0.022,0.007 -0.008,0.006 -0.014,0.015 -0.018,0.027 -0.005,0.013 -0.007,0.026 -0.008,0.041 -0,0.015 0.001,0.029 0.006,0.042 0.005,0.014 0.011,0.024 0.02,0.032 0.01,0.008 0.022,0.012 0.036,0.011 0.013,-0.001 0.024,-0.006 0.032,-0.014 0.007,-0.008 0.011,-0.017 0.012,-0.028 0.001,-0.011 -0.002,-0.022 -0.008,-0.032 -0.006,-0.011 -0.015,-0.018 -0.027,-0.023zm0.125 -0.044c-0.002,0.002 -0.004,0.005 -0.006,0.008 -0.003,0.006 -0.006,0.011 -0.008,0.018l-0.002 0.005 -0.002 0.005c-0.001,0.004 -0.002,0.007 -0.003,0.009 -0.002,0.004 -0.003,0.007 -0.005,0.009 -0.001,0.001 -0.002,0.002 -0.004,0.003 -0.001,0.001 -0.003,0.001 -0.005,0.001 0.002,-0 0.003,-0 0.005,-0.001 0.001,-0.001 0.002,-0.002 0.003,-0.003 0.001,-0.002 0.003,-0.005 0.004,-0.009l0.001 -0.005 0.002 -0.005c0.001,-0.004 0.002,-0.007 0.003,-0.01 0.003,-0.007 0.005,-0.013 0.009,-0.018 0.004,-0.007 0.009,-0.011 0.014,-0.014 -0.003,0.002 -0.005,0.004 -0.007,0.007zm-0.068 0.026c-0.001,0.005 -0.002,0.01 -0.003,0.016l-0.001 0.008 -0.001 0.008c-0.001,-0.016 0.001,-0.031 0.005,-0.043 0.001,-0.003 0.002,-0.005 0.002,-0.007 0.001,-0.003 0.002,-0.005 0.004,-0.007 0.003,-0.005 0.007,-0.007 0.011,-0.007 -0.005,0.001 -0.01,0.005 -0.013,0.012 -0.001,0.003 -0.002,0.006 -0.003,0.01 -0,0.001 -0.001,0.003 -0.001,0.005l-0.001 0.002 -0 0.001 -0 0.001zm0.094 -0.04c-0.008,-0.005 -0.017,-0.005 -0.025,0.001 -0.007,0.005 -0.013,0.014 -0.019,0.025 -0.002,0.004 -0.004,0.008 -0.005,0.013 -0.001,0.002 -0.001,0.004 -0.002,0.006l-0.001 0.003 -0 0.001 -0 0.001c-0.001,0.004 -0.002,0.007 -0.003,0.008 -0.001,0.002 -0.002,0.003 -0.003,0.003 -0.002,-0 -0.003,-0.002 -0.003,-0.004 -0,-0.003 0,-0.008 0.002,-0.017 0.002,-0.016 0.001,-0.028 -0.003,-0.035 -0.003,-0.005 -0.009,-0.007 -0.016,-0.006 -0.009,0.001 -0.016,0.01 -0.021,0.027 -0.005,0.016 -0.007,0.036 -0.006,0.059 0.001,0.043 0.013,0.066 0.035,0.069 0.006,0.001 0.013,-0.001 0.019,-0.005 0.006,-0.004 0.011,-0.009 0.015,-0.016 0.004,-0.006 0.007,-0.012 0.009,-0.017 0.001,-0.002 0.002,-0.004 0.003,-0.006 0.001,-0.001 0.001,-0.003 0.002,-0.004 0.001,-0.003 0.002,-0.004 0.002,-0.005 0,-0.001 0.001,-0.001 0.002,-0.001 0.001,0 0.001,0.003 0,0.009l-0 0.002 -0 0.002c-0,0.002 -0,0.003 -0.001,0.005 -0,0.004 -0.001,0.007 -0.001,0.01 -0,0.018 0.006,0.027 0.018,0.027 0.008,-0 0.014,-0.007 0.018,-0.022 0.004,-0.013 0.006,-0.029 0.006,-0.049 0,-0.019 -0.002,-0.037 -0.006,-0.053 -0.004,-0.017 -0.009,-0.028 -0.016,-0.032zm0.084 0.005l-0.002 0.001c-0.001,0 -0.001,0 -0.002,0.001 -0,0 -0.001,0 -0.002,0.001l-0.001 0.001 -0.001 0 -0.002 0.001c-0.001,0 -0.001,0.001 -0.002,0.001 -0.004,0.003 -0.008,0.007 -0.011,0.012 -0.003,0.004 -0.006,0.009 -0.008,0.015 -0.002,0.004 -0.004,0.009 -0.007,0.016 0.001,-0.005 0.003,-0.011 0.005,-0.017 0.002,-0.006 0.005,-0.011 0.008,-0.015 0.004,-0.005 0.008,-0.01 0.012,-0.012 0.005,-0.004 0.01,-0.005 0.015,-0.005l-0.004 0.001zm0.063 0.05c-0.007,-0.019 -0.016,-0.034 -0.027,-0.045 -0.012,-0.011 -0.024,-0.016 -0.036,-0.014 -0.01,0.002 -0.02,0.009 -0.029,0.023 -0.008,0.013 -0.014,0.029 -0.018,0.047 -0.004,0.021 -0.005,0.04 -0.002,0.058 0.002,0.009 0.004,0.016 0.007,0.021 0.003,0.006 0.007,0.009 0.012,0.01 0.007,0.001 0.013,-0.002 0.018,-0.009 0.003,-0.005 0.007,-0.014 0.009,-0.025 0,-0.002 0.001,-0.004 0.001,-0.007l0.001 -0.003 0.001 -0.003c0.001,-0.006 0.002,-0.01 0.002,-0.013 0.002,-0.008 0.004,-0.013 0.007,-0.013 0.002,-0 0.004,0.001 0.006,0.003 0.002,0.002 0.003,0.005 0.005,0.01 0.001,0.002 0.001,0.004 0.002,0.007l0.001 0.004 0.001 0.004c0.002,0.006 0.004,0.012 0.006,0.016 0.005,0.011 0.01,0.018 0.017,0.022 0.006,0.004 0.011,0.004 0.016,0 0.003,-0.002 0.006,-0.006 0.008,-0.012 0.002,-0.006 0.003,-0.013 0.003,-0.021 0,-0.018 -0.003,-0.038 -0.01,-0.059zm0.089 0.052c-0.001,0.002 -0.003,0.004 -0.005,0.005 -0.002,0.001 -0.004,0.001 -0.006,0.001 0.004,-0.001 0.007,-0.003 0.01,-0.007 0.001,-0.001 0.002,-0.003 0.002,-0.006 0,-0.002 0,-0.004 0,-0.007 0.001,0.002 0.001,0.004 0.001,0.007 -0,0.002 -0.001,0.005 -0.002,0.007zm-0.018 -0.009c-0.001,-0.002 -0.001,-0.004 -0.001,-0.006 0,-0.002 0.001,-0.004 0.003,-0.004 0.001,-0.001 0.003,-0.001 0.005,0 0.002,0.001 0.003,0.003 0.004,0.005 0.001,0.002 0.001,0.004 0.001,0.006 -0,0.002 -0.001,0.003 -0.003,0.004 -0.001,0.001 -0.003,0.001 -0.005,-0 -0.002,-0.001 -0.003,-0.003 -0.004,-0.005zm-0.01 -0.092c-0.001,0.001 -0.003,0.002 -0.004,0.003 -0.002,0.002 -0.005,0.005 -0.007,0.008 -0.002,0.002 -0.004,0.005 -0.006,0.009 -0.001,0.001 -0.002,0.003 -0.003,0.005l-0.003 0.005c0.001,-0.004 0.003,-0.008 0.004,-0.01 0.002,-0.004 0.004,-0.007 0.006,-0.01 0.003,-0.003 0.005,-0.006 0.008,-0.008 0.004,-0.003 0.007,-0.004 0.01,-0.003 -0.002,0 -0.003,0.001 -0.005,0.002zm0.027 0.054c-0.004,-0.001 -0.006,-0.003 -0.007,-0.006 -0.001,-0.002 -0.001,-0.006 -0,-0.01 0,-0.001 0,-0.002 0.001,-0.003l0.001 -0.003c0.001,-0.003 0.001,-0.005 0.001,-0.007 0.001,-0.006 0.001,-0.011 0,-0.015 -0.001,-0.006 -0.003,-0.011 -0.006,-0.015 -0.004,-0.004 -0.008,-0.005 -0.013,-0.005 -0.005,0 -0.011,0.004 -0.016,0.009 -0.006,0.006 -0.012,0.015 -0.017,0.027 -0.005,0.012 -0.009,0.025 -0.01,0.039 -0.002,0.015 -0.001,0.028 0.002,0.04 0.003,0.013 0.009,0.024 0.017,0.031 0.009,0.008 0.02,0.012 0.034,0.012 0.013,-0 0.024,-0.004 0.033,-0.013 0.008,-0.008 0.012,-0.017 0.014,-0.029 0.002,-0.012 -0,-0.022 -0.006,-0.032 -0.006,-0.011 -0.015,-0.018 -0.027,-0.022zm0.134 -0.053c-0.001,0 -0.002,0.001 -0.003,0.002 -0.001,0.002 -0.002,0.004 -0.003,0.007 -0.001,0.004 -0.001,0.01 -0.001,0.016l0 0.002 0 0.002c0,0.002 0,0.003 -0,0.004 -0,0.003 -0.001,0.006 -0.002,0.008 -0.001,0.003 -0.003,0.005 -0.004,0.007 -0.002,0.002 -0.004,0.003 -0.007,0.004 0.005,-0.002 0.008,-0.006 0.01,-0.011 0.001,-0.003 0.001,-0.005 0.001,-0.008 0,-0.001 0,-0.002 0,-0.004l-0 -0.002 0 -0.002c-0,-0.007 0,-0.012 0.001,-0.016 0.001,-0.003 0.002,-0.006 0.003,-0.008 0.001,-0.001 0.002,-0.002 0.003,-0.002 0.001,-0 0.002,-0.001 0.004,-0 -0.001,0 -0.003,0.001 -0.004,0.001zm-0.069 0.003c-0.002,0.003 -0.004,0.006 -0.006,0.01 -0.001,0.003 -0.002,0.007 -0.003,0.012l-0.001 0.006 -0.001 0.006c0,-0.008 0.002,-0.017 0.004,-0.024 0.001,-0.004 0.003,-0.008 0.006,-0.011 0.002,-0.002 0.003,-0.003 0.005,-0.003 0.002,-0.001 0.004,-0.001 0.006,-0.001 -0.004,0 -0.007,0.002 -0.01,0.005zm0.072 -0.012c-0.007,0 -0.012,0.004 -0.015,0.01 -0.003,0.006 -0.004,0.016 -0.003,0.029 0,0.006 -0.001,0.01 -0.003,0.013 -0.002,0.002 -0.005,0.004 -0.008,0.003 -0.003,-0 -0.006,-0.002 -0.008,-0.005 -0.002,-0.003 -0.002,-0.007 -0.002,-0.011 0.001,-0.013 0,-0.023 -0.004,-0.03 -0.003,-0.006 -0.009,-0.009 -0.016,-0.011 -0.006,-0.001 -0.012,0 -0.017,0.005 -0.005,0.004 -0.008,0.01 -0.01,0.017 -0.004,0.014 -0.007,0.03 -0.007,0.049 -0,0.018 0.002,0.036 0.005,0.052 0.003,0.012 0.007,0.021 0.013,0.026 0.005,0.004 0.01,0.006 0.016,0.005 0.013,-0.002 0.019,-0.013 0.018,-0.031 -0.001,-0.014 0.002,-0.021 0.008,-0.021 0.003,0 0.005,0.001 0.007,0.004 0.002,0.003 0.003,0.009 0.003,0.016 -0.001,0.012 0.001,0.022 0.005,0.028 0.004,0.006 0.009,0.009 0.017,0.009 0.012,0 0.021,-0.008 0.025,-0.025 0.004,-0.012 0.006,-0.032 0.006,-0.059 0.001,-0.021 -0.002,-0.039 -0.007,-0.053 -0.006,-0.015 -0.013,-0.022 -0.023,-0.021zm0.111 0.108c-0.001,0.002 -0.003,0.003 -0.005,0.004 -0.002,0.001 -0.004,0.002 -0.006,0.002 0.004,-0.002 0.007,-0.004 0.009,-0.007 0.002,-0.003 0.003,-0.007 0.004,-0.012 0.001,0.005 0,0.009 -0.003,0.013zm-0.021 -0.011c-0,-0.003 0,-0.005 0.001,-0.008 0.001,-0.002 0.003,-0.004 0.005,-0.004 0.002,-0 0.004,0 0.006,0.002 0.002,0.002 0.003,0.004 0.003,0.007 0,0.003 0,0.005 -0.001,0.008 -0.001,0.002 -0.003,0.004 -0.005,0.004 -0.002,0 -0.004,-0 -0.006,-0.002 -0.002,-0.002 -0.003,-0.004 -0.003,-0.007zm-0.005 -0.085c-0.005,0.002 -0.01,0.006 -0.014,0.01 -0.004,0.004 -0.007,0.009 -0.01,0.014l-0.001 0.002 -0.001 0.002 -0.002 0.004 -0.002 0.004 -0.002 0.004c0.001,-0.006 0.003,-0.012 0.006,-0.018 0.003,-0.006 0.006,-0.011 0.01,-0.015 0.005,-0.005 0.009,-0.008 0.015,-0.01 0.003,-0.001 0.005,-0.002 0.008,-0.002l0.002 -0 0.002 -0 0.004 0c-0.006,0.001 -0.012,0.002 -0.017,0.004zm0.034 -0.01c-0.021,-0.006 -0.039,-0.002 -0.053,0.011 -0.012,0.012 -0.02,0.028 -0.023,0.05 -0.003,0.021 -0.001,0.04 0.007,0.058 0.008,0.019 0.02,0.031 0.037,0.036 0.016,0.005 0.03,0 0.044,-0.013 0.013,-0.012 0.022,-0.029 0.027,-0.049 0.005,-0.021 0.005,-0.04 -0,-0.057 -0.007,-0.019 -0.019,-0.031 -0.038,-0.036z"/>
 </g>
</svg>
