<?xml version="1.0" encoding="UTF-8"?>
<!DOCTYPE svg PUBLIC "-//W3C//DTD SVG 1.1//EN" "http://www.w3.org/Graphics/SVG/1.1/DTD/svg11.dtd">
<!-- Creator: CorelDRAW 2019 (64-Bit) -->
<svg xmlns="http://www.w3.org/2000/svg" xml:space="preserve" width="0.91056cm" height="0.1827cm" version="1.1" style="shape-rendering:geometricPrecision; text-rendering:geometricPrecision; image-rendering:optimizeQuality; fill-rule:evenodd; clip-rule:evenodd"
viewBox="0 0 0.707 0.142"
 xmlns:xlink="http://www.w3.org/1999/xlink"
 xmlns:xodm="http://www.corel.com/coreldraw/odm/2003">
 <defs>
  <style type="text/css">
   <![CDATA[
    .fil0 {fill:#A39F6B;fill-rule:nonzero}
   ]]>
  </style>
 </defs>
 <g id="Слой_x0020_1">
  <metadata id="CorelCorpID_0Corel-Layer"/>
  <path class="fil0" d="M0.068 0.035c-0.001,0.001 -0.002,0.002 -0.003,0.004 -0.001,0.002 -0.003,0.005 -0.005,0.008l-0.001 0.002 -0.001 0.002c-0.001,0.002 -0.002,0.003 -0.003,0.004 -0.001,0.002 -0.002,0.003 -0.003,0.004 -0.001,0.001 -0.003,0.002 -0.004,0.002 0.001,-0.001 0.003,-0.002 0.004,-0.003 0.001,-0.001 0.002,-0.002 0.003,-0.004 0.001,-0.001 0.001,-0.002 0.002,-0.004l0.002 -0.004c0.002,-0.004 0.004,-0.006 0.005,-0.008 0.001,-0.001 0.002,-0.003 0.003,-0.004 0.002,-0.001 0.003,-0.002 0.004,-0.002 -0.001,0 -0.003,0.001 -0.004,0.002zm-0.048 0.072c-0.001,0.001 -0.002,0.002 -0.003,0.002 -0.002,0.002 -0.004,0.004 -0.005,0.005 -0.001,0.001 -0.001,0.002 -0.002,0.003 -0,0.001 -0.001,0.002 -0.001,0.004 -0,-0.001 0,-0.003 0,-0.004 0,-0.001 0.001,-0.003 0.002,-0.004 0.001,-0.002 0.003,-0.004 0.005,-0.006 0.002,-0.001 0.004,-0.003 0.006,-0.004l0.002 -0.001 0.002 -0.001c0.001,-0.001 0.002,-0.002 0.003,-0.002 -0.001,0.002 -0.003,0.003 -0.006,0.005l-0.003 0.002zm-0.012 -0.065c-0.001,0.001 -0.001,0.002 -0.002,0.004 -0,0.001 -0.001,0.003 -0.001,0.004 -0.001,-0.001 -0.001,-0.003 -0.001,-0.005 0,-0.002 0.001,-0.003 0.002,-0.005 0.001,-0.001 0.002,-0.002 0.003,-0.003 0.001,-0.001 0.003,-0.001 0.004,-0.001 -0.003,0.001 -0.005,0.002 -0.007,0.005zm0.064 -0.015c-0.003,0 -0.006,0.002 -0.009,0.005 -0.002,0.002 -0.005,0.006 -0.007,0.01l-0.002 0.003 -0.001 0.001 -0.001 0.001c-0.001,0.002 -0.002,0.004 -0.003,0.005 -0.002,0.003 -0.003,0.005 -0.004,0.005 -0.001,0 -0.003,-0.002 -0.007,-0.006l-0.001 -0.001 -0.001 -0.001c-0,-0.001 -0.001,-0.001 -0.001,-0.002 -0.001,-0.001 -0.002,-0.002 -0.003,-0.003 -0.002,-0.003 -0.005,-0.005 -0.007,-0.007 -0.004,-0.003 -0.008,-0.005 -0.012,-0.005 -0.004,0 -0.007,0.001 -0.01,0.004 -0.003,0.003 -0.004,0.006 -0.005,0.01 -0.001,0.004 0,0.008 0.002,0.013 0.002,0.003 0.004,0.006 0.007,0.01 0.001,0.001 0.003,0.003 0.004,0.004l0.002 0.002 0.002 0.002c0.003,0.003 0.006,0.006 0.007,0.007 0.002,0.002 0.003,0.005 0.003,0.007 0,0.002 -0.001,0.004 -0.003,0.006 -0.001,0.001 -0.002,0.002 -0.004,0.003l-0.001 0.001 -0.001 0.001 -0.002 0.002c-0.004,0.003 -0.007,0.005 -0.008,0.008 -0.003,0.004 -0.004,0.008 -0.004,0.012 -0,0.003 0,0.007 0.002,0.009 0.001,0.003 0.003,0.005 0.006,0.007 0.005,0.004 0.012,0.005 0.021,0.002 0.011,-0.004 0.022,-0.014 0.033,-0.031 0.01,-0.015 0.016,-0.03 0.019,-0.043 0.003,-0.014 0.003,-0.024 0,-0.031 -0.002,-0.006 -0.006,-0.008 -0.012,-0.008zm0.104 0.008c-0.001,0.001 -0.002,0.002 -0.004,0.004 -0.002,0.002 -0.004,0.005 -0.006,0.009l-0.001 0.002 -0.001 0.002c-0.001,0.002 -0.002,0.003 -0.003,0.004 -0.001,0.001 -0.003,0.002 -0.004,0.003 -0.002,0.001 -0.003,0.001 -0.005,0.001 0.003,-0 0.006,-0.002 0.008,-0.005 0.001,-0.001 0.002,-0.003 0.003,-0.004l0.001 -0.002 0.001 -0.002c0.002,-0.004 0.005,-0.007 0.006,-0.009 0.001,-0.002 0.003,-0.003 0.004,-0.003 0.002,-0.001 0.003,-0.001 0.005,-0.001 -0.002,0 -0.003,0.001 -0.005,0.002zm-0.06 0.007c-0.002,0.002 -0.003,0.005 -0.005,0.009 -0.001,0.002 -0.002,0.006 -0.004,0.01 -0.001,0.002 -0.001,0.003 -0.002,0.005l-0.001 0.002 -0.001 0.003c0.001,-0.008 0.003,-0.014 0.006,-0.021 0.002,-0.004 0.004,-0.007 0.006,-0.009 0.001,-0.001 0.002,-0.002 0.004,-0.003 0.002,-0.001 0.003,-0.001 0.005,-0.001 -0.003,0 -0.005,0.002 -0.008,0.006zm0.09 0.04c-0.001,-0.016 -0.003,-0.029 -0.008,-0.039 -0.004,-0.01 -0.01,-0.015 -0.016,-0.016 -0.004,-0.001 -0.009,0.001 -0.012,0.004 -0.003,0.003 -0.006,0.007 -0.011,0.014 -0.004,0.006 -0.007,0.009 -0.01,0.008 -0.002,-0 -0.004,-0.003 -0.007,-0.007 -0.003,-0.005 -0.006,-0.009 -0.009,-0.012 -0.004,-0.003 -0.007,-0.005 -0.011,-0.004 -0.01,0.001 -0.019,0.014 -0.025,0.039 -0.004,0.016 -0.006,0.031 -0.005,0.043 0.001,0.015 0.005,0.023 0.012,0.024 0.004,0.001 0.008,-0 0.011,-0.003 0.002,-0.003 0.005,-0.006 0.007,-0.012 0.001,-0.002 0.001,-0.004 0.002,-0.007l0.001 -0.002 0.001 -0.002c0,-0.001 0.001,-0.002 0.001,-0.003 0.002,-0.004 0.003,-0.007 0.004,-0.007 0.001,-0 0.002,0 0.003,0.003 0,0.001 0.001,0.002 0.001,0.003l0 0.001 0 0.001 0.001 0.002c0.001,0.003 0.003,0.006 0.004,0.007 0.002,0.002 0.004,0.004 0.007,0.004 0.002,0 0.004,-0.001 0.006,-0.003 0.001,-0.001 0.003,-0.003 0.004,-0.006l0.001 -0.002 0.001 -0.001c0.001,-0.001 0.001,-0.002 0.002,-0.002 0.001,-0.002 0.003,-0.002 0.004,-0.002 0.001,0 0.002,0.003 0.004,0.006 0,0.001 0.001,0.002 0.001,0.003l0 0.001 0 0.001c0.001,0.003 0.001,0.005 0.002,0.006 0.002,0.005 0.004,0.009 0.006,0.011 0.003,0.003 0.006,0.005 0.01,0.005 0.007,0 0.011,-0.005 0.014,-0.017 0.002,-0.01 0.003,-0.024 0.003,-0.043zm0.058 0.024c-0.001,0.001 -0.002,0.002 -0.003,0.003 -0.001,0.001 -0.003,0.001 -0.004,0.001 0.003,-0.001 0.005,-0.003 0.007,-0.005 0.001,-0.002 0.002,-0.005 0.003,-0.008 0.001,0.003 0,0.006 -0.002,0.009zm-0.015 -0.008c-0,-0.002 0,-0.004 0.001,-0.006 0.001,-0.002 0.002,-0.003 0.004,-0.003 0.002,-0 0.003,0 0.004,0.002 0.001,0.001 0.002,0.003 0.002,0.005 0,0.002 0,0.004 -0.001,0.005 -0.001,0.002 -0.002,0.003 -0.004,0.003 -0.002,0 -0.003,-0 -0.004,-0.001 -0.001,-0.001 -0.002,-0.003 -0.002,-0.005zm-0.004 -0.062c-0.004,0.002 -0.007,0.004 -0.01,0.007 -0.003,0.003 -0.005,0.006 -0.008,0.01l-0.001 0.001 -0.001 0.001 -0.001 0.003 -0.001 0.003 -0.001 0.003c0.001,-0.004 0.002,-0.009 0.004,-0.013 0.002,-0.004 0.004,-0.008 0.008,-0.011 0.003,-0.003 0.007,-0.006 0.011,-0.007 0.002,-0.001 0.004,-0.001 0.006,-0.002l0.002 -0 0.002 -0 0.003 0c-0.004,0 -0.008,0.001 -0.012,0.003zm0.025 -0.007c-0.015,-0.004 -0.028,-0.001 -0.038,0.008 -0.009,0.008 -0.015,0.02 -0.017,0.036 -0.002,0.015 -0,0.029 0.005,0.042 0.006,0.014 0.015,0.023 0.027,0.026 0.011,0.003 0.022,0 0.032,-0.009 0.009,-0.009 0.016,-0.021 0.019,-0.035 0.004,-0.015 0.004,-0.029 -0,-0.041 -0.005,-0.014 -0.014,-0.022 -0.027,-0.026zm0.096 0.011c-0.001,0.002 -0.003,0.004 -0.004,0.006 -0.002,0.004 -0.004,0.008 -0.006,0.013l-0.001 0.003 -0.001 0.003c-0.001,0.003 -0.002,0.005 -0.002,0.007 -0.001,0.003 -0.002,0.005 -0.003,0.006 -0.001,0.001 -0.002,0.002 -0.003,0.002 -0.001,0 -0.002,0.001 -0.003,0 0.001,-0 0.002,-0 0.003,-0.001 0.001,-0.001 0.002,-0.001 0.002,-0.002 0.001,-0.001 0.002,-0.003 0.003,-0.006l0.001 -0.003 0.001 -0.004c0.001,-0.003 0.002,-0.005 0.002,-0.007 0.002,-0.005 0.004,-0.009 0.006,-0.013 0.003,-0.005 0.007,-0.008 0.01,-0.01 -0.002,0.001 -0.003,0.003 -0.005,0.005zm-0.049 0.019c-0.001,0.003 -0.001,0.007 -0.002,0.012l-0.001 0.006 -0.001 0.006c-0,-0.012 0.001,-0.022 0.004,-0.031 0.001,-0.002 0.001,-0.003 0.002,-0.005 0.001,-0.002 0.002,-0.004 0.003,-0.005 0.002,-0.004 0.005,-0.005 0.008,-0.005 -0.004,0 -0.007,0.003 -0.009,0.009 -0.001,0.002 -0.002,0.004 -0.002,0.007 -0,0.001 -0.001,0.002 -0.001,0.004l-0 0.002 -0 0.001 -0 0.001zm0.068 -0.029c-0.006,-0.004 -0.012,-0.004 -0.018,0.001 -0.005,0.004 -0.01,0.01 -0.014,0.018 -0.001,0.003 -0.003,0.006 -0.004,0.009 -0,0.001 -0.001,0.003 -0.001,0.004l-0.001 0.002 -0 0.001 -0 0.001c-0.001,0.003 -0.002,0.005 -0.002,0.006 -0.001,0.002 -0.001,0.002 -0.002,0.002 -0.001,-0 -0.002,-0.001 -0.002,-0.003 -0,-0.002 0,-0.006 0.001,-0.012 0.002,-0.012 0.001,-0.02 -0.002,-0.025 -0.002,-0.004 -0.006,-0.005 -0.011,-0.005 -0.006,0.001 -0.011,0.007 -0.015,0.019 -0.004,0.012 -0.005,0.026 -0.005,0.043 0.001,0.031 0.009,0.047 0.025,0.05 0.005,0.001 0.009,-0.001 0.014,-0.004 0.004,-0.003 0.008,-0.007 0.011,-0.012 0.003,-0.004 0.005,-0.009 0.007,-0.012 0.001,-0.001 0.001,-0.003 0.002,-0.004 0,-0.001 0.001,-0.002 0.001,-0.003 0.001,-0.002 0.001,-0.003 0.002,-0.004 0,-0.001 0.001,-0.001 0.001,-0.001 0.001,0 0.001,0.002 0,0.007l-0 0.001 -0 0.002c-0,0.001 -0,0.002 -0,0.003 -0,0.003 -0,0.005 -0,0.007 -0,0.013 0.004,0.02 0.013,0.02 0.006,-0 0.01,-0.005 0.013,-0.016 0.003,-0.009 0.004,-0.021 0.004,-0.035 0,-0.014 -0.001,-0.027 -0.004,-0.038 -0.003,-0.012 -0.007,-0.02 -0.012,-0.023zm-0.039 -0.014c0.003,-0 0.005,-0.001 0.007,-0.002 0.002,-0.001 0.004,-0.002 0.006,-0.004 0,-0 0.001,-0.001 0.001,-0.001l0.001 -0.001 0.001 -0.001c0,-0 0,-0 0.001,-0.001 0,-0 0.001,-0 0.001,-0l0 0 0 0 -0 0 -0 0c-0,0 -0.001,0 -0.001,0 -0,0 -0,0 -0.001,0.001l-0 0.001c-0.001,0.001 -0.002,0.002 -0.002,0.003 -0.001,0.001 -0.002,0.002 -0.003,0.002 -0.001,0.001 -0.002,0.001 -0.003,0.002 -0.002,0.001 -0.005,0.001 -0.007,0.001l-0.002 0 -0.002 -0c-0.002,-0 -0.003,0 -0.003,0.001 0,-0 0.001,-0.001 0.002,-0.001l0.001 -0 0.001 -0 0.004 -0zm0.028 -0.006c0,-0.004 -0.001,-0.006 -0.003,-0.008 -0.002,-0.002 -0.005,-0.003 -0.008,-0.002 -0.002,0 -0.004,0.002 -0.005,0.004l-0.001 0.001c-0,0 -0.001,0.001 -0.001,0.001 -0.001,0.001 -0.002,0.002 -0.003,0.002 -0.002,0.001 -0.003,0.001 -0.005,0.002 -0.001,0 -0.001,0 -0.002,0l-0.001 0 -0.001 0c-0.003,0 -0.006,0.001 -0.008,0.002 -0.002,0.001 -0.003,0.003 -0.003,0.005 -0,0.002 0,0.004 0.001,0.006 0.002,0.003 0.005,0.005 0.009,0.006 0.004,0.001 0.009,0.001 0.013,-0 0.005,-0.001 0.009,-0.004 0.012,-0.007 0.003,-0.003 0.005,-0.008 0.005,-0.012zm0.061 0.024c-0.003,0.001 -0.006,0.001 -0.008,0.002 -0.003,0.001 -0.006,0.002 -0.008,0.004 -0.001,0.001 -0.002,0.002 -0.003,0.003 -0.001,0.001 -0.001,0.003 -0.001,0.004 -0,-0.002 -0,-0.003 0.001,-0.005 0.001,-0.001 0.002,-0.002 0.003,-0.004 0.002,-0.002 0.005,-0.003 0.008,-0.004 0.005,-0.002 0.011,-0.002 0.017,-0.001 -0.003,0 -0.006,0.001 -0.009,0.001zm0.014 -0.007c-0.012,-0.001 -0.022,0.001 -0.029,0.004 -0.008,0.004 -0.012,0.009 -0.011,0.016 0,0.004 0.002,0.007 0.005,0.008 0.002,0.001 0.005,0.002 0.009,0.003l0.002 0 0.002 0c0.002,0 0.003,0 0.004,0.001 0.003,0.001 0.005,0.002 0.006,0.004 0,0.001 -0,0.008 -0.001,0.021 -0.001,0.006 -0.001,0.012 -0.001,0.017 -0,0.006 -0,0.012 0,0.017 0.001,0.007 0.003,0.013 0.007,0.018 0.004,0.005 0.009,0.007 0.015,0.006 0.011,-0.002 0.014,-0.013 0.012,-0.034 -0.002,-0.011 -0.002,-0.021 -0.002,-0.029 -0,-0.008 0.001,-0.013 0.002,-0.015 0.001,-0.001 0.003,-0.001 0.006,-0.002 0.001,0 0.002,0 0.004,0l0.002 0 0.002 -0c0.003,-0 0.006,-0.001 0.008,-0.002 0.002,-0.001 0.004,-0.003 0.005,-0.006 0.001,-0.004 0,-0.007 -0.002,-0.01 -0.002,-0.003 -0.005,-0.006 -0.009,-0.008 -0.009,-0.005 -0.02,-0.008 -0.034,-0.009zm0.099 0.081c-0.001,0.001 -0.003,0.002 -0.005,0.003 -0.004,0.001 -0.007,0.002 -0.012,0.001 -0.001,-0 -0.002,-0 -0.003,-0.001l-0.001 -0 -0.001 -0c-0.002,-0 -0.004,-0.001 -0.006,-0.001 -0.002,-0 -0.004,0 -0.006,0.001 -0.002,0.001 -0.003,0.002 -0.004,0.004 0,-0.002 0.002,-0.004 0.004,-0.005 0.002,-0.001 0.004,-0.001 0.006,-0.001 0.002,-0 0.004,0 0.006,0l0.001 0 0.001 0c0.001,0 0.002,0 0.003,0 0.004,0.001 0.008,0 0.011,-0.001 0.002,-0.001 0.004,-0.002 0.005,-0.003 0.002,-0.001 0.003,-0.003 0.004,-0.005 -0.001,0.002 -0.002,0.004 -0.004,0.005zm-0.002 -0.035c-0.002,0.002 -0.005,0.003 -0.009,0.003 -0.001,0 -0.003,0 -0.005,0l-0.001 0 -0.001 0c-0.001,0 -0.002,0 -0.002,0 -0.002,0 -0.003,0.001 -0.004,0.002 -0.001,0.001 -0.002,0.002 -0.003,0.004 0,-0.002 0.001,-0.003 0.002,-0.004 0.001,-0.001 0.003,-0.002 0.004,-0.002 0.001,-0 0.001,-0 0.002,-0l0.001 -0 0.001 -0 0.002 -0c0.001,-0 0.002,-0 0.002,-0 0.002,-0 0.003,-0.001 0.004,-0.001 0.001,-0 0.003,-0.001 0.004,-0.002 0.002,-0.002 0.004,-0.004 0.005,-0.008 -0,0.004 -0.001,0.007 -0.004,0.009zm-0.011 -0.04c-0.001,0 -0.003,0 -0.005,0.001 -0.004,0.001 -0.007,0.002 -0.01,0.004 -0.003,0.002 -0.006,0.004 -0.008,0.007 -0.001,0.001 -0.002,0.003 -0.003,0.005 -0.001,0.002 -0.001,0.004 -0.001,0.006 -0,-0.002 -0,-0.004 0,-0.006 0.001,-0.002 0.001,-0.004 0.003,-0.005 0.002,-0.003 0.005,-0.006 0.008,-0.008 0.003,-0.002 0.007,-0.003 0.011,-0.004 0.002,-0 0.004,-0.001 0.006,-0.001 0.001,-0 0.003,-0 0.006,0l-0.001 0 -0.001 0c-0.001,0 -0.002,0 -0.003,0zm0.053 0.041c-0.001,-0.014 -0.006,-0.026 -0.014,-0.034 -0.007,-0.008 -0.017,-0.013 -0.028,-0.014 -0.01,-0.001 -0.019,0 -0.026,0.003 -0.006,0.003 -0.011,0.007 -0.015,0.012 -0.003,0.004 -0.005,0.009 -0.004,0.014 0,0.005 0.002,0.008 0.005,0.01 0.006,0.004 0.014,0.002 0.024,-0.004 0.004,-0.002 0.007,-0.003 0.01,-0.002 0.002,0.001 0.004,0.002 0.004,0.004 0,0.003 -0.001,0.004 -0.003,0.005 -0.002,0.001 -0.006,0.002 -0.011,0.002 -0.005,0 -0.01,0.002 -0.012,0.006 -0.002,0.003 -0.003,0.007 -0.002,0.011 0.001,0.004 0.003,0.006 0.006,0.008 0.003,0.002 0.007,0.001 0.011,-0.001 0.003,-0.002 0.006,-0.002 0.009,-0.001 0.002,0.001 0.004,0.002 0.004,0.004 0,0.001 -0,0.002 -0.001,0.003 -0.001,0.001 -0.002,0.002 -0.003,0.003 -0.004,0.002 -0.009,0.003 -0.015,0.001 -0.009,-0.002 -0.016,-0.001 -0.02,0.002 -0.004,0.003 -0.005,0.008 -0.005,0.014 0.001,0.005 0.003,0.009 0.006,0.012 0.003,0.003 0.008,0.005 0.014,0.007 0.011,0.003 0.022,0.002 0.032,-0.001 0.012,-0.004 0.021,-0.012 0.027,-0.024 0.006,-0.011 0.008,-0.025 0.006,-0.04zm0.09 -0.04c-0.001,0.001 -0.002,0.002 -0.004,0.004 -0.002,0.002 -0.004,0.005 -0.006,0.009l-0.001 0.002 -0.001 0.002c-0.001,0.002 -0.002,0.003 -0.003,0.004 -0.001,0.001 -0.003,0.002 -0.004,0.003 -0.002,0.001 -0.003,0.001 -0.005,0.001 0.003,-0 0.006,-0.002 0.008,-0.005 0.001,-0.001 0.002,-0.003 0.003,-0.004l0.001 -0.002 0.001 -0.002c0.002,-0.004 0.005,-0.007 0.006,-0.009 0.001,-0.002 0.003,-0.003 0.004,-0.003 0.002,-0.001 0.003,-0.001 0.005,-0.001 -0.002,0 -0.003,0.001 -0.005,0.002zm-0.06 0.007c-0.002,0.002 -0.003,0.005 -0.005,0.009 -0.001,0.002 -0.002,0.006 -0.004,0.01 -0.001,0.002 -0.001,0.003 -0.002,0.005l-0.001 0.002 -0.001 0.003c0.001,-0.008 0.003,-0.014 0.006,-0.021 0.002,-0.004 0.004,-0.007 0.006,-0.009 0.001,-0.001 0.002,-0.002 0.004,-0.003 0.002,-0.001 0.003,-0.001 0.005,-0.001 -0.003,0 -0.005,0.002 -0.008,0.006zm0.09 0.04c-0.001,-0.016 -0.003,-0.029 -0.008,-0.039 -0.004,-0.01 -0.01,-0.015 -0.016,-0.016 -0.004,-0.001 -0.009,0.001 -0.012,0.004 -0.003,0.003 -0.006,0.007 -0.011,0.014 -0.004,0.006 -0.007,0.009 -0.01,0.008 -0.002,-0 -0.004,-0.003 -0.007,-0.007 -0.003,-0.005 -0.006,-0.009 -0.009,-0.012 -0.004,-0.003 -0.007,-0.005 -0.011,-0.004 -0.01,0.001 -0.019,0.014 -0.025,0.039 -0.004,0.016 -0.006,0.031 -0.005,0.043 0.001,0.015 0.005,0.023 0.012,0.024 0.004,0.001 0.008,-0 0.011,-0.003 0.002,-0.003 0.005,-0.006 0.007,-0.012 0.001,-0.002 0.001,-0.004 0.002,-0.007l0.001 -0.002 0.001 -0.002c0,-0.001 0.001,-0.002 0.001,-0.003 0.002,-0.004 0.003,-0.007 0.004,-0.007 0.001,-0 0.002,0 0.003,0.002 0,0.001 0.001,0.002 0.001,0.003l0 0.001 0 0.001 0.001 0.002c0.001,0.003 0.003,0.006 0.004,0.007 0.002,0.002 0.004,0.004 0.007,0.004 0.002,0 0.004,-0.001 0.006,-0.003 0.001,-0.001 0.003,-0.003 0.004,-0.006l0.001 -0.002 0.001 -0.001c0.001,-0.001 0.001,-0.002 0.002,-0.002 0.001,-0.002 0.003,-0.002 0.004,-0.002 0.001,0 0.002,0.003 0.004,0.006 0,0.001 0.001,0.002 0.001,0.003l0 0.001 0 0.001c0.001,0.003 0.001,0.005 0.002,0.006 0.002,0.005 0.004,0.009 0.006,0.011 0.003,0.003 0.006,0.005 0.01,0.005 0.007,0 0.011,-0.005 0.014,-0.017 0.002,-0.01 0.003,-0.024 0.003,-0.043z"/>
 </g>
</svg>
