<?xml version="1.0" encoding="UTF-8"?>
<!DOCTYPE svg PUBLIC "-//W3C//DTD SVG 1.1//EN" "http://www.w3.org/Graphics/SVG/1.1/DTD/svg11.dtd">
<!-- Creator: CorelDRAW -->
<svg xmlns="http://www.w3.org/2000/svg" xml:space="preserve" width="16.8893mm" height="5.6066mm" version="1.1" style="shape-rendering:geometricPrecision; text-rendering:geometricPrecision; image-rendering:optimizeQuality; fill-rule:evenodd; clip-rule:evenodd"
viewBox="0 0 29.91 9.93"
 xmlns:xlink="http://www.w3.org/1999/xlink"
 xmlns:xodm="http://www.corel.com/coreldraw/odm/2003">
 <defs>
  <style type="text/css">
   <![CDATA[
    .fil0 {fill:#969677;fill-rule:nonzero}
   ]]>
  </style>
 </defs>
 <g id="Слой_x0020_1">
  <metadata id="CorelCorpID_0Corel-Layer"/>
  <path class="fil0" d="M4.65 5.22c-0.01,0.04 -0.03,0.07 -0.06,0.09 -0.03,0.02 -0.06,0.03 -0.09,0.03 0.03,-0.01 0.06,-0.03 0.08,-0.05 0.02,-0.02 0.04,-0.05 0.05,-0.08 0.01,-0.03 0.01,-0.06 0.01,-0.09 -0,-0.03 -0.01,-0.06 -0.02,-0.1 0.02,0.03 0.03,0.06 0.04,0.09 0.01,0.04 0,0.07 -0.01,0.1zm-0.27 -0.07c-0.01,-0.03 -0.02,-0.06 -0.01,-0.09 0,-0.03 0.02,-0.05 0.04,-0.06 0.02,-0.01 0.04,-0.01 0.07,0 0.02,0.01 0.04,0.04 0.06,0.07 0.01,0.03 0.02,0.06 0.02,0.09 -0,0.03 -0.02,0.05 -0.04,0.06 -0.02,0.01 -0.04,0.01 -0.07,-0 -0.02,-0.01 -0.04,-0.04 -0.06,-0.07zm-0.65 -0.96c-0.03,0.07 -0.05,0.15 -0.07,0.26 -0.01,0.08 -0.02,0.17 -0.02,0.27 -0,-0.04 -0.01,-0.09 -0.01,-0.14 -0,-0.05 0,-0.1 0.01,-0.14 0.01,-0.1 0.03,-0.19 0.06,-0.26 0.02,-0.04 0.04,-0.08 0.07,-0.12 0.03,-0.04 0.06,-0.07 0.09,-0.09 0.04,-0.03 0.07,-0.05 0.11,-0.07 0.04,-0.02 0.08,-0.03 0.12,-0.04 -0.08,0.03 -0.16,0.07 -0.22,0.13 -0.07,0.06 -0.12,0.13 -0.15,0.2zm0.56 0.4c-0.06,0 -0.09,-0.02 -0.11,-0.08 -0.01,-0.02 -0.01,-0.05 -0.01,-0.07 0,-0.03 0.01,-0.05 0.03,-0.06 0.03,-0.04 0.08,-0.07 0.15,-0.09 0.02,-0.01 0.06,-0.02 0.09,-0.03l0.05 -0.01 0.05 -0.01c0.07,-0.02 0.12,-0.04 0.15,-0.06 0.04,-0.03 0.06,-0.08 0.06,-0.14 -0,-0.09 -0.04,-0.16 -0.12,-0.22 -0.08,-0.06 -0.17,-0.09 -0.29,-0.1 -0.12,-0.01 -0.24,0.01 -0.35,0.06 -0.12,0.05 -0.22,0.13 -0.3,0.24 -0.07,0.1 -0.12,0.24 -0.14,0.42 -0.02,0.17 -0.01,0.35 0.02,0.53 0.04,0.19 0.09,0.36 0.17,0.51 0.09,0.16 0.19,0.27 0.32,0.34 0.11,0.06 0.22,0.08 0.33,0.09 0.11,0 0.21,-0.02 0.31,-0.07 0.09,-0.05 0.17,-0.12 0.23,-0.21 0.06,-0.09 0.1,-0.2 0.11,-0.32 0.01,-0.09 -0,-0.18 -0.03,-0.26 -0.03,-0.09 -0.07,-0.17 -0.13,-0.24 -0.14,-0.16 -0.33,-0.23 -0.59,-0.21zm1.97 -1.01c-0.02,0.02 -0.03,0.05 -0.05,0.08 -0.02,0.04 -0.05,0.1 -0.07,0.17l-0.02 0.04 -0.02 0.04c-0.01,0.03 -0.03,0.06 -0.04,0.09 -0.02,0.03 -0.03,0.06 -0.05,0.08 -0.02,0.03 -0.05,0.05 -0.07,0.06 0.02,-0.02 0.04,-0.04 0.06,-0.06 0.01,-0.02 0.02,-0.05 0.04,-0.08 0.01,-0.02 0.02,-0.05 0.03,-0.09l0.03 -0.09c0.03,-0.07 0.05,-0.13 0.08,-0.17 0.02,-0.03 0.04,-0.06 0.05,-0.08 0.03,-0.03 0.05,-0.04 0.08,-0.05 -0.02,0.01 -0.05,0.03 -0.07,0.06zm-0.69 1.49c-0.02,0.02 -0.04,0.04 -0.05,0.05 -0.04,0.04 -0.07,0.08 -0.09,0.11 -0.01,0.02 -0.02,0.05 -0.03,0.07 -0,0.02 -0.01,0.04 -0.01,0.08 -0,-0.02 -0.01,-0.05 -0,-0.08 0,-0.03 0.01,-0.05 0.02,-0.08 0.02,-0.04 0.04,-0.08 0.08,-0.13 0.03,-0.03 0.06,-0.06 0.1,-0.1l0.03 -0.02 0.03 -0.02c0.02,-0.02 0.04,-0.04 0.05,-0.05 -0.02,0.03 -0.05,0.07 -0.09,0.12l-0.05 0.05zm-0.42 -1.19c-0.01,0.02 -0.02,0.05 -0.02,0.08 -0,0.03 -0,0.05 0,0.08 -0.01,-0.03 -0.02,-0.05 -0.02,-0.09 -0,-0.03 0,-0.06 0.02,-0.09 0.01,-0.03 0.03,-0.05 0.06,-0.07 0.03,-0.02 0.05,-0.02 0.08,-0.02 -0.05,0.02 -0.09,0.06 -0.11,0.11zm1.16 -0.47c-0.06,0.01 -0.11,0.04 -0.15,0.11 -0.03,0.05 -0.07,0.12 -0.11,0.21l-0.02 0.06 -0.01 0.03 -0.01 0.03c-0.02,0.04 -0.03,0.08 -0.04,0.1 -0.03,0.06 -0.05,0.1 -0.07,0.1 -0.02,0 -0.07,-0.03 -0.15,-0.1l-0.01 -0.01 -0.01 -0.01c-0.01,-0.01 -0.02,-0.02 -0.03,-0.03 -0.02,-0.02 -0.04,-0.04 -0.06,-0.06 -0.05,-0.04 -0.1,-0.08 -0.15,-0.11 -0.08,-0.05 -0.16,-0.07 -0.23,-0.06 -0.07,0.01 -0.12,0.04 -0.17,0.1 -0.04,0.06 -0.07,0.12 -0.07,0.2 -0,0.08 0.03,0.16 0.08,0.23 0.04,0.05 0.09,0.11 0.16,0.16 0.03,0.02 0.06,0.04 0.09,0.07l0.04 0.03 0.04 0.03c0.07,0.05 0.12,0.09 0.15,0.12 0.04,0.04 0.07,0.08 0.08,0.11 0.01,0.04 -0.01,0.08 -0.05,0.13 -0.01,0.02 -0.04,0.04 -0.06,0.07l-0.02 0.02 -0.02 0.02 -0.04 0.04c-0.06,0.06 -0.11,0.12 -0.14,0.17 -0.04,0.08 -0.06,0.15 -0.05,0.24 0.01,0.06 0.03,0.12 0.06,0.17 0.03,0.05 0.07,0.09 0.13,0.12 0.11,0.06 0.25,0.05 0.39,-0.02 0.2,-0.1 0.37,-0.32 0.53,-0.67 0.14,-0.31 0.22,-0.6 0.23,-0.87 0.01,-0.27 -0.01,-0.47 -0.08,-0.59 -0.06,-0.1 -0.14,-0.14 -0.24,-0.13zm1.38 0.28c-0.03,0.06 -0.06,0.1 -0.09,0.14 -0.04,0.05 -0.08,0.09 -0.12,0.11 0.03,-0.03 0.07,-0.07 0.1,-0.13 0.03,-0.04 0.06,-0.09 0.09,-0.15 0.01,-0.03 0.03,-0.05 0.04,-0.08l0.01 -0.02 0.01 -0.02c0.01,-0.02 0.01,-0.03 0.02,-0.04 0.02,-0.03 0.04,-0.05 0.06,-0.06 0.03,-0.02 0.05,-0.03 0.08,-0.03 -0.05,0.01 -0.09,0.05 -0.12,0.11 -0.01,0.01 -0.01,0.02 -0.02,0.04l-0.01 0.02 -0.01 0.02c-0.01,0.02 -0.02,0.05 -0.04,0.08zm-0.6 -0.25c-0.02,0.02 -0.03,0.04 -0.04,0.06 -0.02,0.04 -0.04,0.08 -0.05,0.14 -0.01,0.04 -0.02,0.09 -0.03,0.16l-0.01 0.08 -0.01 0.08c-0,-0.06 -0,-0.12 -0,-0.16 0,-0.06 0.01,-0.11 0.02,-0.16 0.01,-0.06 0.03,-0.11 0.06,-0.15 0.02,-0.02 0.03,-0.04 0.05,-0.06 0.02,-0.02 0.05,-0.03 0.07,-0.03 -0.02,0.01 -0.05,0.02 -0.06,0.04zm0.75 0.78c-0.04,-0.02 -0.05,-0.04 -0.04,-0.06 0.01,-0.01 0.02,-0.02 0.04,-0.04l0.01 -0.01 0.02 -0.01c0.01,-0.01 0.03,-0.02 0.03,-0.02 0.06,-0.05 0.11,-0.1 0.15,-0.15 0.05,-0.07 0.09,-0.16 0.1,-0.25 0.01,-0.09 -0,-0.16 -0.04,-0.23 -0.03,-0.06 -0.08,-0.11 -0.15,-0.13 -0.06,-0.02 -0.13,-0.02 -0.19,0.01 -0.07,0.03 -0.12,0.09 -0.16,0.18 -0.06,0.15 -0.13,0.26 -0.2,0.32 -0.03,0.03 -0.05,0.03 -0.06,0.03 -0.01,-0.01 -0.01,-0.03 -0,-0.07 0.04,-0.16 0.05,-0.29 0.01,-0.38 -0.03,-0.08 -0.09,-0.12 -0.17,-0.13 -0.16,-0.02 -0.27,0.09 -0.33,0.31 -0.04,0.18 -0.05,0.43 -0.03,0.76 0.03,0.33 0.08,0.59 0.16,0.78 0.09,0.23 0.21,0.34 0.36,0.31 0.14,-0.03 0.2,-0.15 0.19,-0.36 -0,-0.07 -0.02,-0.15 -0.03,-0.24 -0.01,-0.03 -0.02,-0.06 -0.02,-0.09 -0,-0.01 -0.01,-0.02 -0.01,-0.04l-0 -0.01 -0 -0.01 -0 -0c-0.01,-0.03 -0.01,-0.05 0,-0.06 0.01,-0.01 0.03,-0.01 0.05,0.01 0.06,0.04 0.12,0.15 0.19,0.33 0.05,0.11 0.1,0.2 0.17,0.27 0.06,0.06 0.13,0.1 0.19,0.11 0.06,0.01 0.12,0 0.18,-0.03 0.06,-0.03 0.1,-0.09 0.13,-0.16 0.03,-0.08 0.05,-0.17 0.03,-0.26 -0.01,-0.09 -0.04,-0.18 -0.09,-0.26 -0.11,-0.18 -0.28,-0.32 -0.5,-0.41zm1.7 0.21c-0.01,0.04 -0.03,0.06 -0.06,0.09 -0.03,0.02 -0.06,0.03 -0.09,0.03 0.03,-0.01 0.06,-0.03 0.08,-0.05 0.02,-0.02 0.04,-0.05 0.05,-0.08 0.02,-0.06 0.01,-0.12 -0.01,-0.19 0.02,0.03 0.04,0.06 0.04,0.09 0.01,0.04 0.01,0.07 -0,0.11zm-0.27 -0.05c-0.02,-0.03 -0.03,-0.06 -0.03,-0.09 -0,-0.03 0.01,-0.05 0.02,-0.07 0.02,-0.01 0.04,-0.02 0.06,-0.01 0.03,0.01 0.05,0.03 0.07,0.05 0.02,0.03 0.03,0.06 0.03,0.09 0,0.03 -0.01,0.05 -0.02,0.07 -0.02,0.01 -0.04,0.02 -0.07,0.01 -0.03,-0.01 -0.05,-0.03 -0.07,-0.05zm-0.22 -0.61c0.02,-0.01 0.04,-0.02 0.06,-0.03 0.02,-0.02 0.03,-0.03 0.04,-0.05 0.01,-0.02 0.02,-0.04 0.03,-0.06 0.01,-0.02 0.01,-0.04 0.02,-0.07 0.01,0.05 0,0.1 -0.03,0.15 -0.02,0.02 -0.03,0.04 -0.05,0.05 -0.02,0.01 -0.05,0.02 -0.07,0.02zm-0.06 -0.21c0.01,-0.02 0.02,-0.04 0.03,-0.05 0.01,-0.01 0.03,-0.01 0.04,-0.01 0.01,0.01 0.02,0.02 0.03,0.04 0,0.02 0,0.04 -0,0.06 -0.01,0.02 -0.02,0.04 -0.03,0.05 -0.01,0.01 -0.03,0.01 -0.04,0.01 -0.01,-0.01 -0.02,-0.02 -0.03,-0.04 -0,-0.02 -0,-0.04 0,-0.06zm-0.28 -0.23c-0.02,0.03 -0.04,0.06 -0.05,0.1 -0.03,0.06 -0.05,0.14 -0.07,0.22 -0.01,0.07 -0.02,0.15 -0.03,0.24 -0,-0.08 -0,-0.16 0.01,-0.24 0.01,-0.08 0.03,-0.16 0.06,-0.23 0.04,-0.08 0.08,-0.15 0.13,-0.19 0.03,-0.03 0.07,-0.05 0.1,-0.06 0.04,-0.02 0.07,-0.02 0.11,-0.03 -0.08,0.02 -0.14,0.05 -0.19,0.11 -0.03,0.03 -0.05,0.06 -0.07,0.09zm0.68 0.49c-0.02,-0 -0.02,-0.02 -0.02,-0.05 0,-0.01 0.01,-0.03 0.01,-0.05l0.01 -0.01 0.01 -0.01c0,-0.01 0.01,-0.02 0.01,-0.03 0.02,-0.06 0.03,-0.11 0.03,-0.17 0,-0.07 -0.01,-0.15 -0.03,-0.22 -0.03,-0.08 -0.08,-0.15 -0.17,-0.2 -0.09,-0.05 -0.18,-0.07 -0.28,-0.06 -0.11,0.01 -0.2,0.06 -0.29,0.14 -0.09,0.1 -0.16,0.23 -0.2,0.4 -0.04,0.18 -0.04,0.37 -0.02,0.57 0.02,0.21 0.08,0.39 0.16,0.55 0.09,0.18 0.2,0.31 0.33,0.39 0.15,0.09 0.32,0.12 0.5,0.08 0.18,-0.04 0.31,-0.12 0.4,-0.25 0.08,-0.12 0.12,-0.25 0.1,-0.41 -0.01,-0.15 -0.07,-0.29 -0.17,-0.41 -0.11,-0.13 -0.24,-0.22 -0.41,-0.26zm1.65 0.27c-0.02,0.02 -0.04,0.03 -0.05,0.04 -0.02,0.01 -0.04,0.01 -0.07,0.01 0.04,-0.02 0.07,-0.04 0.1,-0.07 0.02,-0.03 0.05,-0.06 0.07,-0.11 0,0.05 -0.02,0.09 -0.05,0.13zm-0.16 -0.06c-0.02,-0.01 -0.04,-0.02 -0.05,-0.05 -0.01,-0.03 -0.01,-0.06 -0.01,-0.09 0.01,-0.03 0.02,-0.06 0.04,-0.08 0.02,-0.02 0.04,-0.02 0.07,-0.02 0.02,0.01 0.04,0.02 0.05,0.05 0.01,0.03 0.01,0.06 0.01,0.09 -0.01,0.03 -0.02,0.06 -0.04,0.08 -0.02,0.02 -0.04,0.02 -0.07,0.02zm-0.34 -0.78c-0.03,0.06 -0.06,0.13 -0.1,0.23 -0.01,0.03 -0.03,0.07 -0.04,0.12l-0.04 0.12c0.02,-0.08 0.04,-0.16 0.06,-0.24 0.03,-0.08 0.06,-0.16 0.09,-0.23 0.04,-0.09 0.08,-0.16 0.13,-0.22l0.02 -0.02c0.01,-0.01 0.01,-0.02 0.02,-0.02l0.02 -0.02 0.02 -0.02c0.04,-0.03 0.08,-0.05 0.11,-0.05 -0.03,0.01 -0.06,0.03 -0.1,0.06l-0.02 0.02 -0.02 0.02c-0.01,0.01 -0.01,0.01 -0.02,0.02l-0.02 0.03c-0.04,0.06 -0.08,0.13 -0.12,0.22zm0.31 -0.49c-0.12,-0 -0.25,0.11 -0.37,0.33 -0.11,0.2 -0.2,0.45 -0.26,0.75 -0.07,0.3 -0.09,0.56 -0.08,0.78 0.02,0.24 0.08,0.38 0.19,0.4 0.08,0.02 0.16,0.01 0.23,-0.04 0.05,-0.03 0.1,-0.09 0.15,-0.17 0.01,-0.02 0.02,-0.03 0.03,-0.05l0.03 -0.05c0.02,-0.04 0.04,-0.08 0.05,-0.09 0.04,-0.06 0.08,-0.1 0.11,-0.1 0.03,-0.01 0.08,0.02 0.14,0.06 0.02,0.01 0.05,0.04 0.08,0.07l0.04 0.04 0.04 0.04c0.07,0.06 0.14,0.1 0.19,0.11 0.07,0.02 0.14,0.01 0.2,-0.03 0.07,-0.05 0.1,-0.19 0.08,-0.41 -0.02,-0.2 -0.08,-0.43 -0.17,-0.69 -0.09,-0.26 -0.2,-0.48 -0.32,-0.65 -0.14,-0.19 -0.27,-0.29 -0.39,-0.29zm1.93 1.28l-0.02 0.01c-0.02,0.01 -0.03,0.01 -0.04,0.02 -0.03,0.01 -0.06,0.02 -0.09,0.02 0.03,-0.01 0.05,-0.02 0.08,-0.04l0.02 -0.01 0.02 -0.01c0.02,-0.01 0.03,-0.02 0.04,-0.02 0.03,-0.02 0.06,-0.03 0.08,-0.03 0.03,-0.01 0.06,-0.01 0.09,-0.01 -0.05,0.02 -0.1,0.04 -0.16,0.07l-0.02 0.01zm-0.61 -1.35c-0.04,0.02 -0.08,0.04 -0.11,0.07 -0.04,0.03 -0.07,0.06 -0.09,0.1 -0.02,0.03 -0.04,0.07 -0.06,0.12 -0.02,0.07 -0.04,0.16 -0.05,0.27 -0,0.04 -0.01,0.09 -0.01,0.14 -0,0.02 -0,0.04 -0,0.07l0 0.07c-0.01,-0.1 -0.02,-0.19 -0.01,-0.28 0,-0.11 0.02,-0.2 0.05,-0.28 0.02,-0.05 0.04,-0.09 0.06,-0.13 0.03,-0.04 0.06,-0.07 0.1,-0.1 0.03,-0.03 0.07,-0.05 0.12,-0.06 0.04,-0.02 0.09,-0.02 0.13,-0.03 -0.05,0.01 -0.09,0.02 -0.12,0.04zm0.39 0.76l0.01 -0c0.01,-0 0.02,-0.01 0.02,-0.01 0.02,-0.01 0.03,-0.01 0.05,-0.01 0.02,0 0.03,0.01 0.04,0.02 -0.01,-0 -0.03,-0 -0.04,0 -0.01,0 -0.03,0.01 -0.04,0.01l-0.01 0 -0.01 0c-0.01,0 -0.02,0.01 -0.02,0.01 -0.02,0 -0.03,0 -0.05,0l0.02 -0.01 0.02 -0.01 0.01 -0.01zm0.14 0.48c-0.05,0.03 -0.09,0.04 -0.12,0.03 -0.03,-0.01 -0.05,-0.03 -0.06,-0.06 -0.01,-0.03 -0.01,-0.06 -0,-0.08 0.01,-0.03 0.03,-0.05 0.07,-0.06 0.1,-0.02 0.17,-0.06 0.21,-0.12 0.04,-0.05 0.05,-0.11 0.04,-0.18 -0.01,-0.06 -0.05,-0.1 -0.1,-0.13 -0.06,-0.02 -0.12,-0.02 -0.19,0.01 -0.06,0.03 -0.1,0.01 -0.13,-0.04 -0.01,-0.02 -0.01,-0.04 -0.01,-0.07 0,-0.02 0.01,-0.05 0.03,-0.06 0.02,-0.02 0.06,-0.04 0.11,-0.06 0.02,-0.01 0.04,-0.01 0.07,-0.02l0.04 -0.01 0.04 -0.01c0.06,-0.01 0.11,-0.03 0.14,-0.05 0.04,-0.03 0.07,-0.07 0.08,-0.12 0.02,-0.08 -0.01,-0.16 -0.08,-0.24 -0.07,-0.07 -0.16,-0.12 -0.28,-0.15 -0.12,-0.03 -0.24,-0.03 -0.36,0.01 -0.13,0.04 -0.23,0.11 -0.31,0.22 -0.07,0.1 -0.12,0.25 -0.13,0.45 -0.01,0.18 -0,0.38 0.04,0.59 0.04,0.21 0.1,0.39 0.17,0.55 0.08,0.17 0.17,0.28 0.27,0.32 0.09,0.05 0.21,0.06 0.33,0.04 0.11,-0.02 0.22,-0.07 0.33,-0.14 0.11,-0.07 0.19,-0.15 0.25,-0.24 0.06,-0.1 0.09,-0.19 0.08,-0.28 -0.02,-0.12 -0.07,-0.19 -0.16,-0.21 -0.09,-0.02 -0.22,0.01 -0.36,0.1zm1.66 -1.55c-0.01,0.01 -0.02,0.02 -0.03,0.04 -0.01,0.02 -0.02,0.06 -0.02,0.1 -0,0.06 0,0.13 0.02,0.22l0 0.03 0 0.03c0,0.02 0.01,0.04 0.01,0.06 0,0.04 -0,0.08 -0.01,0.11 -0.01,0.04 -0.02,0.07 -0.05,0.1 -0.02,0.03 -0.05,0.05 -0.08,0.07 0.06,-0.04 0.09,-0.1 0.11,-0.17 0.01,-0.04 0.01,-0.07 0,-0.11 -0,-0.01 -0,-0.03 -0.01,-0.05l-0.01 -0.03 -0 -0.03c-0.01,-0.09 -0.02,-0.17 -0.01,-0.22 0.01,-0.05 0.02,-0.08 0.03,-0.11 0.01,-0.02 0.02,-0.03 0.04,-0.04 0.01,-0.01 0.03,-0.01 0.05,-0.01 -0.02,0.01 -0.04,0.01 -0.05,0.02zm-0.93 0.18c-0.03,0.04 -0.04,0.09 -0.05,0.15 -0.01,0.05 -0.01,0.1 -0.02,0.17l-0.01 0.08 -0.01 0.08c-0.01,-0.11 -0.01,-0.23 0.01,-0.34 0.01,-0.06 0.03,-0.12 0.06,-0.16 0.02,-0.02 0.04,-0.04 0.06,-0.06 0.03,-0.01 0.05,-0.02 0.07,-0.02 -0.05,0.01 -0.09,0.04 -0.12,0.09zm0.96 -0.31c-0.09,0.02 -0.15,0.08 -0.18,0.17 -0.03,0.09 -0.02,0.22 0.01,0.4 0.01,0.08 0.01,0.14 -0.02,0.18 -0.02,0.04 -0.06,0.06 -0.1,0.06 -0.05,0 -0.08,-0.01 -0.11,-0.05 -0.03,-0.04 -0.05,-0.09 -0.05,-0.15 -0.01,-0.18 -0.04,-0.31 -0.11,-0.39 -0.06,-0.07 -0.14,-0.11 -0.24,-0.11 -0.09,-0 -0.16,0.03 -0.22,0.1 -0.06,0.06 -0.09,0.15 -0.11,0.25 -0.03,0.2 -0.03,0.42 0.01,0.68 0.03,0.25 0.09,0.48 0.17,0.7 0.06,0.16 0.14,0.27 0.23,0.33 0.07,0.05 0.15,0.06 0.23,0.04 0.17,-0.05 0.23,-0.21 0.18,-0.46 -0.04,-0.19 -0.02,-0.28 0.07,-0.3 0.04,-0.01 0.08,0.01 0.11,0.04 0.04,0.04 0.06,0.11 0.07,0.21 0.02,0.17 0.06,0.29 0.13,0.37 0.06,0.07 0.15,0.1 0.24,0.09 0.16,-0.02 0.26,-0.15 0.3,-0.39 0.02,-0.17 0.01,-0.44 -0.03,-0.81 -0.03,-0.29 -0.1,-0.52 -0.21,-0.7 -0.11,-0.19 -0.23,-0.27 -0.36,-0.24zm2.09 0.15c-0.03,0.06 -0.06,0.1 -0.09,0.14 -0.04,0.05 -0.08,0.09 -0.12,0.11 0.03,-0.03 0.07,-0.07 0.1,-0.13 0.03,-0.04 0.06,-0.09 0.09,-0.15 0.01,-0.03 0.03,-0.05 0.04,-0.08l0.01 -0.02 0.01 -0.02c0.01,-0.02 0.01,-0.03 0.02,-0.04 0.02,-0.03 0.04,-0.05 0.06,-0.06 0.03,-0.02 0.05,-0.03 0.08,-0.03 -0.05,0.01 -0.09,0.05 -0.12,0.11 -0.01,0.01 -0.01,0.02 -0.02,0.04l-0.01 0.02 -0.01 0.02c-0.01,0.02 -0.02,0.05 -0.04,0.08zm-0.6 -0.25c-0.02,0.02 -0.03,0.04 -0.04,0.06 -0.02,0.04 -0.04,0.08 -0.05,0.14 -0.01,0.04 -0.02,0.09 -0.03,0.16l-0.01 0.08 -0.01 0.08c-0,-0.06 -0,-0.12 -0,-0.16 0,-0.06 0.01,-0.11 0.02,-0.16 0.01,-0.06 0.03,-0.11 0.06,-0.15 0.02,-0.02 0.03,-0.04 0.05,-0.06 0.02,-0.02 0.05,-0.02 0.07,-0.03 -0.02,0.01 -0.05,0.02 -0.06,0.04zm0.76 0.78c-0.04,-0.02 -0.05,-0.04 -0.04,-0.06 0.01,-0.01 0.02,-0.02 0.04,-0.04l0.01 -0.01 0.02 -0.01c0.01,-0.01 0.03,-0.02 0.03,-0.02 0.06,-0.05 0.11,-0.1 0.15,-0.15 0.05,-0.07 0.09,-0.16 0.1,-0.25 0.01,-0.09 -0,-0.16 -0.04,-0.23 -0.04,-0.06 -0.08,-0.11 -0.15,-0.13 -0.06,-0.02 -0.13,-0.02 -0.19,0.01 -0.07,0.03 -0.12,0.09 -0.16,0.18 -0.06,0.15 -0.13,0.26 -0.2,0.32 -0.03,0.03 -0.05,0.03 -0.06,0.03 -0.01,-0.01 -0.01,-0.03 -0,-0.07 0.04,-0.16 0.05,-0.29 0.01,-0.38 -0.03,-0.08 -0.09,-0.12 -0.17,-0.13 -0.16,-0.02 -0.27,0.09 -0.33,0.31 -0.04,0.18 -0.05,0.43 -0.03,0.76 0.03,0.33 0.08,0.59 0.16,0.78 0.09,0.23 0.21,0.34 0.36,0.31 0.14,-0.03 0.2,-0.15 0.19,-0.36 -0,-0.07 -0.01,-0.15 -0.03,-0.24 -0.01,-0.03 -0.02,-0.06 -0.02,-0.09 -0,-0.01 -0.01,-0.02 -0.01,-0.04l-0 -0.01 -0 -0.01 -0 -0c-0.01,-0.03 -0.01,-0.05 0,-0.06 0.01,-0.01 0.03,-0.01 0.05,0.01 0.06,0.04 0.12,0.15 0.19,0.33 0.05,0.11 0.1,0.2 0.17,0.27 0.06,0.06 0.13,0.1 0.19,0.11 0.06,0.01 0.12,0 0.18,-0.03 0.06,-0.03 0.1,-0.09 0.13,-0.16 0.03,-0.08 0.05,-0.17 0.03,-0.26 -0.01,-0.09 -0.04,-0.18 -0.09,-0.26 -0.11,-0.18 -0.28,-0.32 -0.5,-0.41zm1.63 0.26c-0.01,0.03 -0.03,0.05 -0.06,0.07 -0.03,0.02 -0.05,0.03 -0.08,0.02 0.06,-0.02 0.09,-0.06 0.12,-0.11 0.01,-0.02 0.02,-0.05 0.02,-0.08 0,-0.03 -0,-0.06 -0.01,-0.09 0.02,0.03 0.02,0.06 0.03,0.09 0,0.03 -0,0.06 -0.01,0.09zm-0.26 -0.08c-0.02,-0.03 -0.03,-0.06 -0.03,-0.08 -0,-0.03 0.01,-0.05 0.03,-0.07 0.02,-0.01 0.04,-0.01 0.07,-0 0.03,0.01 0.05,0.03 0.07,0.06 0.02,0.03 0.03,0.06 0.03,0.09 0,0.03 -0.01,0.05 -0.03,0.06 -0.02,0.01 -0.04,0.02 -0.06,0.01 -0.03,-0.01 -0.05,-0.03 -0.07,-0.06zm-0.31 -1.23c-0.02,0.01 -0.03,0.03 -0.05,0.05 -0.03,0.03 -0.06,0.07 -0.08,0.12 -0.02,0.03 -0.04,0.08 -0.06,0.14 -0.01,0.02 -0.02,0.04 -0.03,0.07l-0.03 0.07c0.01,-0.06 0.02,-0.11 0.04,-0.15 0.02,-0.05 0.04,-0.1 0.06,-0.14 0.03,-0.05 0.06,-0.09 0.09,-0.12 0.04,-0.04 0.09,-0.06 0.13,-0.07 -0.02,0.01 -0.04,0.02 -0.06,0.03zm0.47 0.68c-0.05,-0.01 -0.08,-0.03 -0.1,-0.07 -0.01,-0.03 -0.02,-0.08 -0.02,-0.14 0,-0.01 0,-0.03 0,-0.04l0 -0.04c0,-0.04 0,-0.07 0,-0.1 -0,-0.08 -0.01,-0.15 -0.02,-0.21 -0.02,-0.08 -0.06,-0.15 -0.12,-0.19 -0.06,-0.04 -0.12,-0.06 -0.19,-0.04 -0.07,0.02 -0.14,0.07 -0.2,0.16 -0.07,0.1 -0.13,0.23 -0.18,0.4 -0.05,0.18 -0.07,0.36 -0.06,0.56 0.01,0.2 0.05,0.38 0.11,0.54 0.07,0.18 0.17,0.31 0.29,0.39 0.14,0.09 0.3,0.13 0.49,0.1 0.18,-0.03 0.32,-0.11 0.41,-0.24 0.09,-0.12 0.14,-0.26 0.14,-0.42 -0,-0.16 -0.05,-0.3 -0.14,-0.42 -0.1,-0.13 -0.24,-0.21 -0.41,-0.24zm0.48 -0.78c-0.01,0.02 -0.02,0.04 -0.03,0.06 -0,0.02 -0,0.05 -0,0.07 0,0.04 0.01,0.09 0.03,0.15l0.02 0.07 0.02 0.07c-0.03,-0.05 -0.05,-0.1 -0.07,-0.14 -0.02,-0.06 -0.04,-0.11 -0.04,-0.15 -0,-0.03 -0,-0.06 0,-0.08 0.01,-0.03 0.02,-0.06 0.04,-0.07 0.03,-0.04 0.08,-0.06 0.13,-0.06 -0.05,0.01 -0.09,0.04 -0.12,0.07zm0.5 0.01c-0.05,-0.07 -0.11,-0.13 -0.18,-0.17 -0.06,-0.03 -0.13,-0.05 -0.19,-0.04 -0.06,0 -0.12,0.02 -0.17,0.06 -0.05,0.04 -0.08,0.08 -0.1,0.13 -0.03,0.1 -0.01,0.24 0.07,0.42 0.01,0.03 0.03,0.07 0.05,0.11l0.03 0.06 0.03 0.05c0.04,0.09 0.07,0.16 0.08,0.22 0.04,0.14 0.07,0.29 0.09,0.45 0.01,0.05 0.01,0.11 0.02,0.18l0 0.04 0 0.04c0,0.03 0,0.05 0.01,0.07 0.01,0.09 0.03,0.16 0.04,0.2 0.02,0.05 0.06,0.07 0.12,0.08 0.11,0.01 0.19,-0.06 0.25,-0.22 0.05,-0.14 0.08,-0.32 0.09,-0.55 0.01,-0.22 -0.01,-0.43 -0.05,-0.64 -0.04,-0.22 -0.1,-0.38 -0.18,-0.49z"/>
  <path class="fil0" d="M20.05 1.5l-0.03 0.01c-0.01,0 -0.02,0.01 -0.02,0.01 -0.01,0 -0.01,0.01 -0.02,0.01l-0.01 0.01 -0.01 0.01 -0.02 0.02c-0.01,0.01 -0.01,0.01 -0.02,0.02 -0.05,0.05 -0.09,0.12 -0.12,0.19 -0.03,0.06 -0.06,0.13 -0.08,0.22 -0.02,0.06 -0.04,0.14 -0.06,0.23 0.01,-0.08 0.02,-0.16 0.04,-0.24 0.02,-0.08 0.05,-0.15 0.08,-0.23 0.04,-0.08 0.08,-0.14 0.13,-0.19 0.06,-0.06 0.13,-0.09 0.2,-0.1l-0.05 0.02zm0.95 0.55c-0.13,-0.24 -0.28,-0.43 -0.46,-0.55 -0.18,-0.13 -0.36,-0.17 -0.52,-0.12 -0.14,0.04 -0.25,0.17 -0.34,0.37 -0.09,0.19 -0.14,0.42 -0.15,0.67 -0.02,0.29 0.02,0.56 0.09,0.79 0.04,0.12 0.08,0.21 0.14,0.27 0.06,0.07 0.12,0.11 0.18,0.11 0.1,0 0.18,-0.05 0.22,-0.15 0.04,-0.08 0.06,-0.2 0.07,-0.36 0,-0.03 0,-0.06 0.01,-0.1l0 -0.05 0 -0.05c0,-0.08 0.01,-0.14 0.01,-0.18 0.01,-0.12 0.03,-0.18 0.07,-0.2 0.03,-0.01 0.05,-0 0.08,0.03 0.02,0.03 0.05,0.07 0.09,0.13 0.01,0.02 0.03,0.05 0.05,0.09l0.02 0.05 0.03 0.05c0.04,0.08 0.08,0.15 0.11,0.2 0.09,0.14 0.17,0.22 0.27,0.26 0.09,0.04 0.16,0.03 0.22,-0.03 0.04,-0.04 0.07,-0.1 0.08,-0.18 0.01,-0.08 0.01,-0.18 0,-0.29 -0.03,-0.24 -0.12,-0.5 -0.26,-0.77zm1.44 0.53c-0.01,0.03 -0.03,0.05 -0.06,0.07 -0.02,0.02 -0.05,0.03 -0.08,0.02 0.05,-0.02 0.09,-0.05 0.11,-0.11 0.01,-0.02 0.02,-0.05 0.02,-0.08 0,-0.02 -0,-0.05 -0.01,-0.09 0.01,0.03 0.02,0.05 0.03,0.09 0,0.03 -0,0.06 -0.02,0.09zm-0.25 -0.08c-0.02,-0.03 -0.03,-0.05 -0.03,-0.08 0,-0.03 0.01,-0.05 0.03,-0.06 0.02,-0.01 0.04,-0.02 0.06,-0.01 0.02,0.01 0.05,0.03 0.06,0.05 0.02,0.03 0.03,0.05 0.03,0.08 -0,0.03 -0.01,0.05 -0.03,0.06 -0.02,0.01 -0.04,0.01 -0.06,0 -0.03,-0.01 -0.05,-0.03 -0.06,-0.05zm-0.66 -1.23c-0.01,0 -0.03,0.01 -0.05,0.02 -0.04,0.01 -0.06,0.03 -0.09,0.05 -0.03,0.02 -0.04,0.05 -0.06,0.08 -0.01,0.04 -0.01,0.07 -0.01,0.11 -0.02,-0.04 -0.02,-0.08 -0.01,-0.12 0.01,-0.04 0.03,-0.07 0.06,-0.1 0.03,-0.02 0.06,-0.04 0.1,-0.05 0.02,-0 0.04,-0.01 0.05,-0.01l0.03 0 0.03 0 -0.03 0.01 -0.02 0.01zm0.81 0.7c-0.05,-0.01 -0.09,-0.03 -0.12,-0.05 -0.03,-0.02 -0.05,-0.06 -0.06,-0.1 -0.01,-0.03 -0.02,-0.07 -0.04,-0.14 -0.01,-0.03 -0.02,-0.06 -0.02,-0.08 -0.01,-0.03 -0.02,-0.06 -0.03,-0.09 -0.04,-0.13 -0.12,-0.22 -0.22,-0.28 -0.08,-0.05 -0.17,-0.07 -0.28,-0.07 -0.08,0 -0.15,0.02 -0.21,0.05 -0.07,0.04 -0.11,0.09 -0.14,0.16 -0.03,0.08 -0.03,0.15 0,0.23 0.03,0.08 0.1,0.13 0.19,0.13 0.05,-0 0.08,0.04 0.08,0.11 0,0.02 0,0.05 -0,0.09 -0,0.01 -0,0.02 -0,0.04l-0 0.01 -0 0.01c-0,0 -0,0.01 -0,0.01 -0.02,0.16 -0.01,0.32 0.01,0.48 0.03,0.17 0.07,0.31 0.14,0.43 0.07,0.13 0.17,0.23 0.28,0.29 0.12,0.07 0.26,0.09 0.42,0.06 0.17,-0.03 0.3,-0.1 0.4,-0.23 0.09,-0.12 0.13,-0.25 0.13,-0.4 -0,-0.15 -0.05,-0.29 -0.14,-0.41 -0.1,-0.13 -0.23,-0.2 -0.4,-0.23zm1.61 0.4l-0.02 0.01c-0.02,0.01 -0.03,0.02 -0.04,0.02 -0.03,0.01 -0.06,0.02 -0.09,0.02 0.03,-0.01 0.05,-0.02 0.08,-0.04l0.02 -0.01 0.02 -0.01c0.02,-0.01 0.03,-0.02 0.04,-0.02 0.03,-0.02 0.06,-0.03 0.08,-0.03 0.03,-0.01 0.06,-0.01 0.09,-0.01 -0.05,0.02 -0.1,0.04 -0.16,0.07l-0.02 0.01zm-0.61 -1.34c-0.04,0.02 -0.08,0.04 -0.11,0.07 -0.04,0.03 -0.07,0.06 -0.09,0.1 -0.02,0.03 -0.04,0.07 -0.06,0.12 -0.02,0.07 -0.04,0.16 -0.05,0.27 -0.01,0.04 -0.01,0.09 -0.01,0.14 -0,0.02 -0,0.04 -0,0.07l0 0.07c-0.01,-0.1 -0.02,-0.19 -0.01,-0.28 0,-0.1 0.02,-0.2 0.05,-0.28 0.02,-0.05 0.04,-0.09 0.06,-0.13 0.03,-0.04 0.06,-0.07 0.1,-0.1 0.03,-0.03 0.07,-0.05 0.12,-0.06 0.04,-0.02 0.09,-0.02 0.13,-0.03 -0.05,0.01 -0.09,0.02 -0.12,0.04zm0.38 0.76l0.01 -0.01c0.01,-0 0.02,-0.01 0.02,-0.01 0.02,-0 0.03,-0.01 0.05,-0 0.02,0 0.03,0.01 0.04,0.02 -0.01,-0 -0.03,-0 -0.04,0 -0.01,0 -0.03,0.01 -0.04,0.01l-0.01 0 -0.01 0c-0.01,0 -0.02,0.01 -0.02,0.01 -0.02,0 -0.03,0 -0.05,0l0.02 -0.01 0.02 -0.01 0.01 -0zm0.14 0.48c-0.05,0.03 -0.09,0.04 -0.12,0.03 -0.03,-0.01 -0.05,-0.03 -0.06,-0.06 -0.01,-0.03 -0.01,-0.06 -0,-0.08 0.01,-0.03 0.04,-0.05 0.07,-0.06 0.1,-0.02 0.17,-0.06 0.21,-0.12 0.04,-0.05 0.05,-0.11 0.04,-0.18 -0.01,-0.06 -0.05,-0.1 -0.1,-0.13 -0.06,-0.02 -0.12,-0.02 -0.19,0.01 -0.06,0.03 -0.1,0.01 -0.13,-0.04 -0.01,-0.02 -0.01,-0.04 -0.01,-0.07 0,-0.02 0.01,-0.05 0.03,-0.06 0.02,-0.02 0.06,-0.05 0.11,-0.06 0.02,-0 0.04,-0.01 0.07,-0.02l0.04 -0.01 0.04 -0.01c0.06,-0.01 0.11,-0.03 0.14,-0.05 0.04,-0.03 0.07,-0.06 0.08,-0.11 0.02,-0.08 -0,-0.16 -0.08,-0.24 -0.07,-0.07 -0.16,-0.12 -0.28,-0.15 -0.12,-0.03 -0.24,-0.03 -0.35,0.01 -0.13,0.04 -0.23,0.11 -0.31,0.22 -0.07,0.1 -0.12,0.25 -0.13,0.45 -0.01,0.18 -0,0.38 0.04,0.59 0.04,0.21 0.1,0.39 0.17,0.55 0.08,0.17 0.17,0.28 0.27,0.32 0.09,0.05 0.21,0.06 0.33,0.04 0.11,-0.02 0.22,-0.07 0.33,-0.14 0.11,-0.07 0.19,-0.15 0.25,-0.24 0.06,-0.1 0.09,-0.19 0.08,-0.28 -0.02,-0.12 -0.07,-0.19 -0.16,-0.21 -0.09,-0.02 -0.22,0.01 -0.36,0.1zm-0.61 -1.62c0,-0 0,-0.01 0.01,-0.01 0,-0 0.01,-0 0.01,-0 -0,0 -0,0.01 0,0.01l0 0 0 0 0 0.01 0 0.01c0,0.01 -0,0.02 -0.01,0.03 -0.01,-0.01 -0.02,-0.02 -0.02,-0.03 -0,-0.01 0,-0.02 0,-0.02zm0.1 0.21c0.04,-0.01 0.06,-0.04 0.08,-0.09 0.01,-0.05 0.01,-0.09 -0.01,-0.14 -0.02,-0.05 -0.05,-0.08 -0.1,-0.1 -0.04,-0.02 -0.08,-0.01 -0.11,0.01 -0.03,0.02 -0.05,0.05 -0.05,0.09 -0.01,0.04 -0,0.08 0.02,0.12 0.02,0.04 0.04,0.07 0.08,0.09 0.04,0.02 0.07,0.02 0.1,0.01zm0.27 -0.34c0.01,-0.01 0.01,-0.02 0.02,-0.03 0.01,-0.01 0.02,-0.01 0.03,-0 -0.01,0.01 -0.01,0.01 -0.02,0.02 -0.01,0.01 -0.01,0.02 -0.01,0.02 -0,0.01 -0.01,0.02 -0.01,0.03l-0.01 0.01 -0.01 0.02c-0.01,-0.02 -0.01,-0.05 0,-0.07zm0.05 0.29c0.05,0.01 0.1,-0.01 0.14,-0.05 0.04,-0.04 0.06,-0.1 0.06,-0.17 -0,-0.07 -0.02,-0.12 -0.07,-0.17 -0.04,-0.04 -0.09,-0.06 -0.14,-0.05 -0.05,0.01 -0.08,0.03 -0.11,0.08 -0.03,0.04 -0.04,0.09 -0.04,0.15 0,0.05 0.02,0.1 0.05,0.14 0.03,0.04 0.07,0.07 0.12,0.07zm1.97 1.09c-0.01,0.01 -0.02,0.01 -0.03,0.03l-0.01 0.01 -0.01 0.01c-0.02,0.02 -0.04,0.04 -0.07,0.05 -0.03,0.01 -0.05,0.02 -0.08,0.01 0.05,-0.02 0.09,-0.04 0.13,-0.08l0.01 -0.01 0.01 -0.01c0.01,-0.01 0.02,-0.02 0.03,-0.03 0.03,-0.02 0.05,-0.02 0.08,-0.02 -0.02,0.01 -0.04,0.02 -0.06,0.04zm-0.95 -0.88c-0.04,0.06 -0.07,0.13 -0.1,0.21 -0.02,0.07 -0.04,0.14 -0.06,0.23 0,-0.08 0.01,-0.16 0.04,-0.24 0.02,-0.08 0.05,-0.15 0.1,-0.22 0.05,-0.07 0.1,-0.13 0.17,-0.17 0.04,-0.02 0.07,-0.04 0.11,-0.05 0.04,-0.01 0.08,-0.02 0.11,-0.02 -0.08,0.02 -0.15,0.05 -0.21,0.09 -0.06,0.04 -0.11,0.1 -0.15,0.16zm1.28 1c-0.04,-0.15 -0.1,-0.24 -0.2,-0.27 -0.04,-0.01 -0.09,-0.01 -0.13,0.01 -0.04,0.02 -0.08,0.05 -0.12,0.09 -0.04,0.04 -0.07,0.06 -0.12,0.06 -0.04,0 -0.08,-0.01 -0.12,-0.05 -0.04,-0.03 -0.07,-0.08 -0.1,-0.14 -0.03,-0.06 -0.04,-0.13 -0.04,-0.21 -0,-0.11 0.04,-0.18 0.12,-0.21 0.06,-0.02 0.15,-0.02 0.26,0.01 0.05,0.01 0.09,0 0.13,-0.02 0.04,-0.02 0.06,-0.06 0.07,-0.11 0.01,-0.05 0.01,-0.1 -0.01,-0.16 -0.02,-0.06 -0.05,-0.12 -0.1,-0.17 -0.1,-0.11 -0.23,-0.18 -0.37,-0.2 -0.13,-0.02 -0.26,-0.01 -0.38,0.04 -0.16,0.07 -0.28,0.2 -0.36,0.4 -0.09,0.22 -0.11,0.48 -0.06,0.78 0.05,0.34 0.17,0.59 0.36,0.76 0.09,0.08 0.19,0.13 0.3,0.16 0.11,0.03 0.22,0.03 0.34,-0 0.2,-0.05 0.35,-0.15 0.45,-0.31 0.1,-0.15 0.12,-0.31 0.08,-0.48zm0.45 -1.43c-0.06,0.02 -0.11,0.04 -0.15,0.06 -0.06,0.03 -0.1,0.06 -0.14,0.09 -0.02,0.02 -0.04,0.04 -0.05,0.06 -0.01,0.02 -0.02,0.05 -0.01,0.08 -0.01,-0.03 -0.01,-0.06 -0,-0.09 0.01,-0.02 0.02,-0.05 0.05,-0.08 0.03,-0.03 0.08,-0.07 0.14,-0.1 0.1,-0.05 0.21,-0.07 0.32,-0.08 -0.06,0.02 -0.11,0.03 -0.16,0.05zm0.24 -0.17c-0.23,0.02 -0.41,0.07 -0.54,0.16 -0.14,0.09 -0.19,0.2 -0.16,0.33 0.02,0.07 0.05,0.12 0.11,0.15 0.04,0.02 0.1,0.03 0.18,0.03l0.05 -0 0.05 -0c0.04,-0 0.06,-0 0.08,0 0.06,0 0.1,0.02 0.12,0.06 0.01,0.02 0.02,0.15 0.03,0.4 0.01,0.12 0.01,0.23 0.02,0.32 0.01,0.12 0.03,0.23 0.05,0.32 0.03,0.14 0.09,0.24 0.18,0.31 0.09,0.08 0.19,0.1 0.3,0.07 0.2,-0.06 0.24,-0.28 0.12,-0.68 -0.06,-0.21 -0.1,-0.39 -0.13,-0.54 -0.03,-0.16 -0.03,-0.26 0,-0.29 0.02,-0.02 0.05,-0.03 0.1,-0.04 0.02,-0 0.04,-0.01 0.07,-0.01l0.04 -0 0.04 -0.01c0.06,-0.01 0.11,-0.03 0.14,-0.05 0.04,-0.03 0.07,-0.07 0.07,-0.13 0.01,-0.07 -0.01,-0.13 -0.06,-0.19 -0.04,-0.05 -0.11,-0.1 -0.2,-0.13 -0.18,-0.07 -0.4,-0.09 -0.66,-0.07zm2.14 1.22c-0.01,0.03 -0.03,0.05 -0.06,0.07 -0.03,0.02 -0.05,0.03 -0.08,0.02 0.06,-0.02 0.09,-0.06 0.12,-0.11 0.01,-0.02 0.02,-0.05 0.02,-0.08 0,-0.03 -0,-0.06 -0.01,-0.09 0.02,0.03 0.02,0.06 0.03,0.09 0,0.03 -0,0.06 -0.01,0.09zm-0.26 -0.08c-0.02,-0.03 -0.03,-0.06 -0.03,-0.08 -0,-0.03 0.01,-0.05 0.03,-0.07 0.02,-0.01 0.04,-0.02 0.07,-0.01 0.03,0.01 0.05,0.03 0.07,0.06 0.02,0.03 0.03,0.06 0.03,0.09 0,0.03 -0.01,0.05 -0.03,0.06 -0.02,0.01 -0.04,0.02 -0.06,0.01 -0.03,-0.01 -0.05,-0.03 -0.07,-0.06zm-0.31 -1.23c-0.02,0.01 -0.03,0.03 -0.05,0.05 -0.03,0.03 -0.05,0.07 -0.08,0.12 -0.02,0.03 -0.04,0.08 -0.06,0.14 -0.01,0.02 -0.02,0.04 -0.03,0.07l-0.03 0.07c0.01,-0.06 0.02,-0.11 0.04,-0.15 0.02,-0.05 0.04,-0.1 0.06,-0.14 0.03,-0.05 0.06,-0.09 0.09,-0.12 0.04,-0.04 0.09,-0.06 0.13,-0.07 -0.02,0.01 -0.04,0.02 -0.06,0.03zm0.47 0.68c-0.05,-0.01 -0.08,-0.03 -0.1,-0.07 -0.01,-0.03 -0.02,-0.08 -0.02,-0.14 0,-0.01 0,-0.03 0,-0.04l0 -0.04c0,-0.04 0,-0.07 0,-0.1 -0,-0.08 -0.01,-0.15 -0.02,-0.21 -0.02,-0.08 -0.06,-0.15 -0.12,-0.19 -0.06,-0.04 -0.12,-0.06 -0.19,-0.04 -0.07,0.02 -0.14,0.07 -0.2,0.16 -0.07,0.1 -0.13,0.23 -0.18,0.4 -0.05,0.18 -0.07,0.36 -0.06,0.56 0.01,0.2 0.05,0.38 0.11,0.54 0.07,0.18 0.17,0.31 0.29,0.39 0.14,0.09 0.3,0.13 0.49,0.1 0.18,-0.03 0.32,-0.11 0.41,-0.24 0.09,-0.12 0.14,-0.26 0.14,-0.42 -0,-0.16 -0.05,-0.3 -0.14,-0.42 -0.1,-0.13 -0.24,-0.21 -0.41,-0.24zm0.48 -0.78c-0.01,0.02 -0.02,0.04 -0.03,0.06 -0,0.02 -0,0.05 -0,0.07 0,0.04 0.01,0.09 0.03,0.15l0.02 0.07 0.02 0.07c-0.03,-0.05 -0.05,-0.1 -0.07,-0.14 -0.02,-0.06 -0.04,-0.11 -0.04,-0.15 -0,-0.03 -0,-0.06 0,-0.08 0.01,-0.03 0.02,-0.06 0.03,-0.07 0.03,-0.04 0.08,-0.06 0.13,-0.06 -0.05,0.01 -0.09,0.04 -0.12,0.07zm0.5 0.01c-0.05,-0.07 -0.11,-0.13 -0.18,-0.17 -0.06,-0.03 -0.13,-0.05 -0.19,-0.04 -0.06,0 -0.12,0.02 -0.17,0.06 -0.05,0.04 -0.08,0.08 -0.1,0.13 -0.03,0.1 -0.01,0.24 0.07,0.42 0.01,0.03 0.03,0.07 0.05,0.11l0.03 0.06 0.03 0.05c0.04,0.09 0.07,0.16 0.08,0.22 0.04,0.14 0.07,0.29 0.09,0.45 0.01,0.05 0.01,0.11 0.02,0.18l0 0.04 0 0.04c0,0.03 0,0.05 0.01,0.07 0.01,0.09 0.03,0.16 0.05,0.2 0.02,0.05 0.06,0.07 0.12,0.08 0.1,0.01 0.19,-0.06 0.25,-0.22 0.05,-0.14 0.08,-0.32 0.09,-0.55 0.01,-0.22 -0.01,-0.43 -0.05,-0.64 -0.04,-0.22 -0.1,-0.38 -0.18,-0.49zm-27.48 7.58c-0.02,0.02 -0.03,0.05 -0.05,0.08 -0.02,0.04 -0.05,0.1 -0.07,0.17l-0.02 0.04 -0.02 0.04c-0.01,0.03 -0.03,0.06 -0.04,0.09 -0.02,0.03 -0.03,0.06 -0.05,0.08 -0.02,0.03 -0.05,0.05 -0.07,0.06 0.02,-0.02 0.04,-0.04 0.06,-0.06 0.01,-0.02 0.03,-0.05 0.04,-0.08 0.01,-0.02 0.02,-0.05 0.03,-0.09l0.03 -0.09c0.03,-0.07 0.05,-0.13 0.08,-0.17 0.02,-0.03 0.04,-0.06 0.05,-0.08 0.03,-0.03 0.05,-0.04 0.08,-0.05 -0.02,0.01 -0.05,0.03 -0.07,0.06zm-0.69 1.49c-0.02,0.02 -0.04,0.04 -0.05,0.05 -0.04,0.04 -0.07,0.08 -0.09,0.11 -0.01,0.02 -0.02,0.05 -0.03,0.07 -0,0.02 -0.01,0.04 -0.01,0.08 -0,-0.02 -0.01,-0.05 -0,-0.08 0,-0.03 0.01,-0.05 0.02,-0.08 0.02,-0.04 0.04,-0.08 0.08,-0.13 0.03,-0.03 0.06,-0.06 0.1,-0.1l0.03 -0.02 0.03 -0.02c0.02,-0.02 0.04,-0.04 0.05,-0.05 -0.02,0.03 -0.05,0.07 -0.09,0.12l-0.05 0.05zm-0.42 -1.19c-0.01,0.02 -0.02,0.05 -0.02,0.08 -0,0.03 -0,0.05 0,0.08 -0.02,-0.03 -0.02,-0.05 -0.02,-0.09 -0,-0.03 0,-0.06 0.02,-0.09 0.01,-0.03 0.03,-0.05 0.06,-0.07 0.03,-0.02 0.05,-0.02 0.08,-0.02 -0.05,0.02 -0.09,0.06 -0.11,0.11zm1.16 -0.47c-0.06,0.01 -0.11,0.05 -0.15,0.11 -0.03,0.05 -0.07,0.12 -0.11,0.21l-0.02 0.06 -0.01 0.03 -0.01 0.03c-0.02,0.04 -0.03,0.08 -0.04,0.1 -0.03,0.06 -0.05,0.1 -0.07,0.1 -0.02,0 -0.07,-0.03 -0.15,-0.1l-0.01 -0.01 -0.01 -0.01c-0.01,-0.01 -0.02,-0.02 -0.03,-0.03 -0.02,-0.02 -0.04,-0.04 -0.06,-0.06 -0.05,-0.04 -0.1,-0.08 -0.15,-0.11 -0.08,-0.05 -0.16,-0.07 -0.23,-0.06 -0.07,0.01 -0.12,0.04 -0.17,0.1 -0.04,0.06 -0.07,0.12 -0.07,0.2 -0,0.08 0.03,0.16 0.08,0.23 0.04,0.05 0.09,0.11 0.16,0.16 0.03,0.02 0.06,0.04 0.09,0.07l0.04 0.03 0.04 0.03c0.07,0.05 0.12,0.09 0.15,0.12 0.04,0.04 0.07,0.08 0.08,0.11 0.01,0.04 -0.01,0.08 -0.05,0.13 -0.01,0.02 -0.04,0.04 -0.06,0.07l-0.02 0.02 -0.02 0.02 -0.04 0.04c-0.06,0.06 -0.11,0.12 -0.14,0.17 -0.04,0.08 -0.06,0.15 -0.05,0.24 0.01,0.06 0.03,0.12 0.06,0.17 0.03,0.05 0.07,0.09 0.13,0.12 0.11,0.06 0.25,0.05 0.39,-0.02 0.2,-0.1 0.37,-0.32 0.53,-0.67 0.14,-0.31 0.22,-0.6 0.23,-0.87 0.01,-0.27 -0.01,-0.47 -0.08,-0.59 -0.06,-0.1 -0.14,-0.14 -0.24,-0.13zm1.96 1.16c-0,0.04 -0.02,0.07 -0.04,0.09 -0.02,0.02 -0.05,0.04 -0.08,0.05 -0.03,0.01 -0.06,0.02 -0.09,0.01 0.03,-0.01 0.06,-0.02 0.08,-0.04 0.03,-0.02 0.05,-0.03 0.07,-0.05 0.02,-0.02 0.03,-0.05 0.04,-0.08 0,-0.02 0.01,-0.05 0.01,-0.1 0.01,0.03 0.02,0.07 0.01,0.1zm-0.36 0.01c-0.02,-0.03 -0.03,-0.09 -0.01,-0.17 0.02,-0.09 0.05,-0.13 0.08,-0.13 0.04,-0.01 0.09,0.03 0.13,0.11 0.02,0.03 0.03,0.06 0.03,0.1 0.01,0.03 0.01,0.06 0,0.08 -0.01,0.03 -0.05,0.04 -0.11,0.05 -0.06,0.01 -0.11,-0 -0.13,-0.03zm-0.33 -0.95c-0.03,0.07 -0.06,0.14 -0.08,0.22 -0.02,0.06 -0.04,0.14 -0.05,0.23 0,-0.08 0.02,-0.16 0.03,-0.24 0.02,-0.07 0.04,-0.15 0.07,-0.23 0.04,-0.08 0.08,-0.15 0.12,-0.2 0.03,-0.03 0.06,-0.05 0.09,-0.08 0.03,-0.02 0.07,-0.03 0.1,-0.04 -0.06,0.02 -0.12,0.06 -0.17,0.13 -0.04,0.06 -0.08,0.12 -0.11,0.2zm-0.44 1.28c-0.02,0.02 -0.04,0.03 -0.05,0.05 -0.01,0.02 -0.02,0.04 -0.03,0.06 -0.01,-0.03 -0,-0.05 0.01,-0.08 0.01,-0.02 0.03,-0.04 0.05,-0.06 0.04,-0.03 0.08,-0.05 0.13,-0.05l-0.03 0.02 -0.03 0.02c-0.02,0.01 -0.04,0.03 -0.05,0.04zm1.67 -0.43c-0.04,-0.01 -0.07,-0.02 -0.09,-0.04 -0.02,-0.02 -0.03,-0.04 -0.04,-0.08 -0.01,-0.02 -0.02,-0.07 -0.03,-0.14 -0.01,-0.03 -0.01,-0.07 -0.02,-0.09 -0.01,-0.04 -0.02,-0.07 -0.03,-0.11 -0.08,-0.29 -0.19,-0.51 -0.33,-0.66 -0.13,-0.14 -0.26,-0.2 -0.41,-0.18 -0.12,0.02 -0.23,0.1 -0.33,0.27 -0.1,0.16 -0.16,0.37 -0.19,0.61 -0.01,0.1 -0.02,0.19 -0.02,0.29 -0,0.02 -0,0.03 -0,0.05l0 0.03 -0 0.02c0,0.04 0,0.07 0,0.08 -0,0.05 -0.01,0.09 -0.02,0.11 -0.02,0.03 -0.04,0.05 -0.08,0.06 -0.12,0.05 -0.19,0.11 -0.23,0.18 -0.03,0.07 -0.03,0.14 0,0.22 0.05,0.12 0.19,0.19 0.42,0.23 0.21,0.03 0.46,0.03 0.75,-0 0.27,-0.03 0.47,-0.07 0.61,-0.12 0.21,-0.07 0.33,-0.17 0.38,-0.29 0.04,-0.12 0.03,-0.22 -0.04,-0.31 -0.06,-0.08 -0.16,-0.14 -0.3,-0.16zm1.81 -1.55c-0.02,0.02 -0.04,0.05 -0.06,0.08 -0.02,0.04 -0.05,0.1 -0.09,0.18l-0.02 0.05 -0.02 0.05c-0.02,0.03 -0.04,0.06 -0.05,0.09 -0.02,0.03 -0.05,0.05 -0.07,0.07 -0.03,0.02 -0.06,0.03 -0.09,0.03 0.06,-0.01 0.1,-0.05 0.15,-0.12 0.02,-0.02 0.03,-0.05 0.05,-0.09l0.02 -0.05 0.02 -0.05c0.04,-0.08 0.07,-0.14 0.09,-0.18 0.02,-0.03 0.04,-0.06 0.07,-0.08 0.03,-0.02 0.06,-0.03 0.09,-0.04 -0.03,0.01 -0.06,0.02 -0.08,0.05zm-1.1 0.3c-0.03,0.05 -0.05,0.11 -0.07,0.19 -0.01,0.05 -0.03,0.11 -0.05,0.2 -0.01,0.03 -0.01,0.07 -0.02,0.1l-0.01 0.05 -0.01 0.05c0,-0.15 0.02,-0.28 0.06,-0.41 0.02,-0.08 0.05,-0.14 0.08,-0.19 0.02,-0.03 0.04,-0.05 0.07,-0.08 0.03,-0.02 0.06,-0.04 0.09,-0.04 -0.05,0.01 -0.1,0.06 -0.14,0.13zm1.81 0.5c-0.06,-0.3 -0.14,-0.54 -0.26,-0.72 -0.11,-0.17 -0.22,-0.25 -0.34,-0.25 -0.09,0 -0.16,0.04 -0.22,0.11 -0.05,0.06 -0.1,0.16 -0.16,0.3 -0.05,0.13 -0.11,0.19 -0.16,0.19 -0.04,-0 -0.08,-0.04 -0.15,-0.12 -0.07,-0.09 -0.14,-0.15 -0.2,-0.19 -0.08,-0.05 -0.15,-0.07 -0.22,-0.05 -0.19,0.05 -0.31,0.32 -0.36,0.81 -0.03,0.32 -0.02,0.59 0.03,0.83 0.06,0.27 0.16,0.41 0.3,0.42 0.08,0.01 0.15,-0.03 0.2,-0.09 0.04,-0.05 0.07,-0.14 0.1,-0.24 0.01,-0.03 0.02,-0.08 0.03,-0.14l0.01 -0.03 0.01 -0.03c0,-0.02 0.01,-0.04 0.01,-0.06 0.02,-0.08 0.04,-0.13 0.06,-0.14 0.02,-0.01 0.04,0 0.06,0.04 0.01,0.01 0.02,0.03 0.03,0.06l0.01 0.02 0.01 0.02 0.02 0.03c0.03,0.06 0.07,0.1 0.1,0.13 0.04,0.04 0.09,0.05 0.15,0.05 0.04,-0 0.08,-0.03 0.11,-0.07 0.02,-0.03 0.04,-0.07 0.07,-0.12l0.01 -0.03 0.01 -0.03c0.01,-0.02 0.02,-0.04 0.03,-0.05 0.02,-0.03 0.04,-0.04 0.06,-0.04 0.02,0.01 0.05,0.04 0.09,0.11 0.01,0.01 0.01,0.03 0.02,0.05l0.01 0.03 0.01 0.03c0.02,0.05 0.04,0.08 0.05,0.11 0.05,0.09 0.09,0.15 0.14,0.2 0.06,0.06 0.13,0.08 0.2,0.07 0.13,-0.01 0.2,-0.13 0.22,-0.36 0.02,-0.2 -0.01,-0.47 -0.07,-0.82z"/>
  <path class="fil0" d="M8.55 6.85c-0.02,0.02 -0.03,0.05 -0.05,0.08 -0.02,0.04 -0.05,0.1 -0.07,0.17l-0.02 0.04 -0.02 0.04c-0.01,0.03 -0.03,0.06 -0.04,0.09 -0.02,0.03 -0.03,0.06 -0.05,0.08 -0.02,0.03 -0.05,0.05 -0.07,0.06 0.02,-0.02 0.04,-0.04 0.06,-0.06 0.01,-0.02 0.02,-0.05 0.04,-0.08 0.01,-0.02 0.02,-0.05 0.03,-0.09l0.03 -0.09c0.03,-0.07 0.05,-0.13 0.08,-0.17 0.02,-0.03 0.04,-0.06 0.05,-0.08 0.03,-0.03 0.05,-0.04 0.08,-0.05 -0.02,0.01 -0.05,0.03 -0.07,0.06zm-0.69 1.49c-0.02,0.02 -0.04,0.04 -0.05,0.05 -0.04,0.04 -0.07,0.08 -0.09,0.11 -0.01,0.02 -0.02,0.05 -0.03,0.07 -0,0.02 -0.01,0.04 -0.01,0.08 -0,-0.02 -0.01,-0.05 -0,-0.08 0,-0.03 0.01,-0.05 0.02,-0.08 0.02,-0.04 0.04,-0.08 0.08,-0.13 0.03,-0.03 0.06,-0.06 0.1,-0.1l0.03 -0.02 0.03 -0.02c0.02,-0.02 0.04,-0.04 0.05,-0.05 -0.02,0.03 -0.05,0.07 -0.09,0.12l-0.05 0.05zm-0.42 -1.19c-0.01,0.02 -0.02,0.05 -0.02,0.08 -0,0.03 -0,0.05 0,0.08 -0.02,-0.03 -0.02,-0.05 -0.02,-0.09 -0,-0.03 0,-0.06 0.02,-0.09 0.01,-0.03 0.03,-0.05 0.06,-0.07 0.02,-0.02 0.05,-0.02 0.08,-0.02 -0.05,0.02 -0.09,0.05 -0.11,0.1zm1.16 -0.47c-0.06,0.01 -0.11,0.04 -0.15,0.11 -0.03,0.05 -0.07,0.12 -0.11,0.21l-0.02 0.06 -0.01 0.03 -0.01 0.03c-0.02,0.04 -0.03,0.08 -0.04,0.1 -0.03,0.06 -0.05,0.1 -0.07,0.1 -0.02,0 -0.07,-0.03 -0.15,-0.1l-0.01 -0.01 -0.01 -0.01c-0.01,-0.01 -0.02,-0.02 -0.03,-0.02 -0.02,-0.02 -0.04,-0.04 -0.06,-0.06 -0.05,-0.04 -0.1,-0.08 -0.15,-0.11 -0.08,-0.05 -0.16,-0.07 -0.23,-0.06 -0.07,0.01 -0.12,0.04 -0.17,0.1 -0.04,0.06 -0.07,0.12 -0.07,0.2 -0,0.08 0.03,0.16 0.08,0.23 0.04,0.05 0.09,0.11 0.16,0.16 0.03,0.02 0.06,0.04 0.09,0.07l0.04 0.03 0.04 0.03c0.07,0.05 0.12,0.09 0.15,0.12 0.04,0.04 0.07,0.08 0.08,0.11 0.01,0.04 -0.01,0.08 -0.05,0.13 -0.01,0.02 -0.04,0.04 -0.06,0.07l-0.02 0.02 -0.02 0.02 -0.04 0.04c-0.06,0.06 -0.11,0.12 -0.14,0.18 -0.04,0.08 -0.06,0.15 -0.05,0.24 0.01,0.06 0.03,0.12 0.06,0.17 0.03,0.05 0.07,0.09 0.13,0.12 0.11,0.06 0.25,0.05 0.39,-0.02 0.2,-0.1 0.37,-0.32 0.53,-0.67 0.14,-0.31 0.22,-0.6 0.23,-0.87 0.01,-0.27 -0.01,-0.47 -0.08,-0.59 -0.06,-0.1 -0.14,-0.14 -0.24,-0.13zm1.46 0.71c-0.01,0.03 -0.02,0.06 -0.04,0.09 -0.02,0.03 -0.04,0.05 -0.06,0.06 -0.03,0.02 -0.05,0.02 -0.08,0.02 0.03,-0.01 0.05,-0.02 0.07,-0.04 0.02,-0.02 0.04,-0.04 0.05,-0.06 0.03,-0.04 0.05,-0.1 0.06,-0.16 0.01,0.03 0.01,0.06 0,0.09zm-0.27 -0.09c0.01,-0.03 0.03,-0.06 0.05,-0.07 0.02,-0.02 0.04,-0.02 0.06,-0.01 0.02,0.01 0.04,0.03 0.04,0.05 0.01,0.03 0.01,0.06 -0,0.09 -0.01,0.03 -0.02,0.06 -0.05,0.07 -0.02,0.02 -0.04,0.02 -0.06,0.01 -0.02,-0.01 -0.04,-0.03 -0.04,-0.05 -0.01,-0.03 -0.01,-0.06 0,-0.09zm-0.3 -0.57c-0.06,0.04 -0.11,0.09 -0.14,0.15 -0.04,0.06 -0.06,0.12 -0.09,0.2 -0.02,0.06 -0.03,0.13 -0.04,0.22 -0,-0.03 -0,-0.07 0,-0.11 0,-0.04 0.01,-0.08 0.02,-0.11 0.02,-0.08 0.04,-0.15 0.08,-0.21 0.04,-0.07 0.09,-0.12 0.16,-0.15 0.03,-0.02 0.06,-0.03 0.1,-0.05 0.04,-0.01 0.07,-0.02 0.1,-0.02 -0.08,0.02 -0.14,0.05 -0.19,0.09zm0.23 -0.22c-0.19,0.03 -0.33,0.1 -0.44,0.24 -0.09,0.12 -0.15,0.27 -0.17,0.46 -0.02,0.17 0,0.36 0.05,0.55 0.05,0.19 0.12,0.36 0.22,0.52 0.09,0.15 0.19,0.26 0.28,0.33 0.09,0.06 0.17,0.09 0.24,0.09 0.07,-0 0.12,-0.03 0.17,-0.09 0.04,-0.06 0.06,-0.13 0.06,-0.22 -0,-0.06 -0.01,-0.13 -0.03,-0.2 -0.01,-0.02 -0.02,-0.05 -0.03,-0.09l-0.01 -0.04c-0.01,-0.01 -0.01,-0.03 -0.01,-0.04 -0.02,-0.06 -0.02,-0.1 -0.02,-0.14 0.01,-0.04 0.03,-0.08 0.07,-0.11 0.14,-0.1 0.24,-0.23 0.29,-0.39 0.05,-0.15 0.06,-0.29 0.02,-0.44 -0.04,-0.15 -0.12,-0.26 -0.23,-0.34 -0.12,-0.09 -0.28,-0.12 -0.46,-0.1zm1.27 -0.04c-0.06,0.02 -0.11,0.04 -0.15,0.06 -0.06,0.03 -0.1,0.06 -0.14,0.09 -0.02,0.02 -0.04,0.04 -0.05,0.06 -0.01,0.02 -0.02,0.05 -0.01,0.09 -0.01,-0.03 -0.01,-0.06 -0,-0.09 0.01,-0.02 0.02,-0.05 0.05,-0.08 0.03,-0.03 0.08,-0.07 0.14,-0.1 0.1,-0.05 0.21,-0.07 0.32,-0.08 -0.06,0.02 -0.11,0.03 -0.16,0.05zm0.24 -0.17c-0.23,0.02 -0.41,0.07 -0.54,0.16 -0.14,0.09 -0.19,0.2 -0.16,0.33 0.02,0.07 0.05,0.12 0.11,0.15 0.04,0.02 0.1,0.03 0.18,0.03l0.05 -0 0.05 -0c0.04,-0 0.06,-0 0.08,0 0.06,0 0.1,0.02 0.12,0.06 0.01,0.02 0.02,0.15 0.03,0.4 0.01,0.12 0.01,0.23 0.02,0.32 0.01,0.12 0.03,0.23 0.05,0.32 0.03,0.14 0.09,0.24 0.18,0.31 0.09,0.08 0.19,0.1 0.3,0.07 0.19,-0.06 0.24,-0.29 0.12,-0.68 -0.06,-0.21 -0.1,-0.39 -0.13,-0.54 -0.03,-0.16 -0.03,-0.26 0,-0.29 0.02,-0.02 0.05,-0.03 0.1,-0.04 0.02,-0 0.04,-0.01 0.07,-0.01l0.04 -0 0.04 -0.01c0.06,-0.01 0.11,-0.03 0.14,-0.05 0.04,-0.03 0.07,-0.07 0.07,-0.13 0.01,-0.07 -0.01,-0.13 -0.06,-0.19 -0.05,-0.05 -0.11,-0.1 -0.2,-0.13 -0.18,-0.07 -0.4,-0.09 -0.66,-0.07zm2.53 0.1c-0.03,0.06 -0.06,0.1 -0.09,0.14 -0.04,0.05 -0.08,0.09 -0.12,0.11 0.03,-0.03 0.07,-0.07 0.1,-0.13 0.03,-0.04 0.06,-0.09 0.09,-0.15 0.01,-0.03 0.03,-0.05 0.04,-0.08l0.01 -0.02 0.01 -0.02c0.01,-0.02 0.01,-0.03 0.02,-0.04 0.02,-0.03 0.04,-0.05 0.06,-0.06 0.03,-0.02 0.05,-0.03 0.08,-0.03 -0.05,0.01 -0.09,0.05 -0.12,0.11 -0.01,0.01 -0.01,0.02 -0.02,0.04l-0.01 0.02 -0.01 0.02c-0.01,0.02 -0.02,0.05 -0.04,0.08zm-0.6 -0.25c-0.02,0.02 -0.03,0.04 -0.04,0.06 -0.02,0.04 -0.04,0.08 -0.05,0.14 -0.01,0.04 -0.02,0.09 -0.03,0.16l-0.01 0.08 -0.01 0.08c-0,-0.06 -0,-0.12 -0,-0.16 0,-0.06 0.01,-0.11 0.02,-0.16 0.01,-0.06 0.03,-0.11 0.06,-0.15 0.02,-0.02 0.03,-0.04 0.05,-0.06 0.02,-0.02 0.05,-0.03 0.07,-0.03 -0.02,0.01 -0.05,0.02 -0.06,0.04zm0.76 0.78c-0.04,-0.02 -0.05,-0.04 -0.04,-0.06 0.01,-0.01 0.02,-0.02 0.04,-0.04l0.01 -0.01 0.02 -0.01c0.01,-0.01 0.03,-0.02 0.03,-0.02 0.06,-0.05 0.11,-0.1 0.15,-0.15 0.05,-0.07 0.09,-0.16 0.1,-0.25 0.01,-0.09 -0,-0.16 -0.04,-0.23 -0.04,-0.06 -0.08,-0.11 -0.15,-0.13 -0.06,-0.02 -0.13,-0.02 -0.19,0.01 -0.07,0.03 -0.12,0.09 -0.16,0.18 -0.06,0.15 -0.13,0.26 -0.2,0.32 -0.03,0.03 -0.05,0.03 -0.06,0.03 -0.01,-0.01 -0.01,-0.03 -0,-0.07 0.04,-0.16 0.05,-0.29 0.01,-0.38 -0.03,-0.08 -0.09,-0.12 -0.17,-0.13 -0.16,-0.02 -0.27,0.09 -0.33,0.31 -0.04,0.18 -0.05,0.43 -0.03,0.76 0.03,0.33 0.08,0.59 0.16,0.78 0.09,0.23 0.21,0.34 0.36,0.31 0.14,-0.03 0.2,-0.15 0.19,-0.36 -0,-0.07 -0.02,-0.15 -0.03,-0.24 -0.01,-0.03 -0.02,-0.06 -0.02,-0.09 -0,-0.01 -0.01,-0.02 -0.01,-0.04l-0 -0.01 -0 -0.01 -0 -0c-0.01,-0.03 -0.01,-0.05 0,-0.06 0.01,-0.01 0.03,-0.01 0.05,0.01 0.06,0.04 0.12,0.15 0.19,0.33 0.05,0.11 0.1,0.2 0.17,0.27 0.06,0.06 0.13,0.1 0.19,0.11 0.06,0.01 0.12,0 0.18,-0.03 0.06,-0.03 0.1,-0.09 0.13,-0.16 0.03,-0.08 0.05,-0.17 0.03,-0.26 -0.01,-0.09 -0.04,-0.18 -0.09,-0.26 -0.11,-0.18 -0.28,-0.32 -0.5,-0.41zm1.63 0.26c-0.01,0.03 -0.03,0.05 -0.06,0.07 -0.03,0.02 -0.05,0.03 -0.08,0.02 0.06,-0.02 0.09,-0.06 0.12,-0.11 0.01,-0.02 0.02,-0.05 0.02,-0.08 0,-0.03 -0,-0.06 -0.01,-0.09 0.02,0.03 0.02,0.06 0.03,0.09 0,0.03 -0,0.06 -0.01,0.09zm-0.26 -0.08c-0.02,-0.03 -0.03,-0.06 -0.03,-0.08 -0,-0.03 0.01,-0.05 0.03,-0.07 0.02,-0.01 0.04,-0.02 0.07,-0.01 0.03,0.01 0.05,0.03 0.07,0.06 0.02,0.03 0.03,0.06 0.03,0.09 0,0.03 -0.01,0.05 -0.03,0.06 -0.02,0.01 -0.04,0.02 -0.06,0.01 -0.03,-0.01 -0.05,-0.03 -0.07,-0.06zm-0.31 -1.23c-0.02,0.01 -0.03,0.03 -0.05,0.05 -0.03,0.03 -0.05,0.07 -0.08,0.12 -0.02,0.03 -0.04,0.08 -0.06,0.13 -0.01,0.02 -0.02,0.04 -0.03,0.07l-0.03 0.07c0.01,-0.06 0.02,-0.11 0.04,-0.15 0.02,-0.05 0.04,-0.1 0.06,-0.14 0.03,-0.05 0.06,-0.09 0.09,-0.12 0.04,-0.04 0.09,-0.06 0.13,-0.07 -0.02,0.01 -0.04,0.02 -0.06,0.03zm0.47 0.68c-0.05,-0.01 -0.08,-0.03 -0.1,-0.07 -0.01,-0.03 -0.02,-0.08 -0.02,-0.14 0,-0.01 0,-0.03 0,-0.04l0 -0.04c0,-0.04 0,-0.07 0,-0.1 -0,-0.08 -0.01,-0.15 -0.02,-0.21 -0.02,-0.08 -0.06,-0.15 -0.12,-0.19 -0.06,-0.04 -0.12,-0.06 -0.19,-0.04 -0.07,0.02 -0.14,0.07 -0.2,0.16 -0.07,0.1 -0.13,0.23 -0.18,0.4 -0.05,0.18 -0.07,0.36 -0.06,0.56 0.01,0.2 0.05,0.38 0.11,0.54 0.07,0.18 0.17,0.31 0.29,0.39 0.14,0.09 0.3,0.13 0.49,0.1 0.18,-0.03 0.32,-0.11 0.41,-0.24 0.09,-0.12 0.14,-0.26 0.14,-0.42 -0,-0.16 -0.05,-0.3 -0.14,-0.42 -0.1,-0.13 -0.24,-0.21 -0.41,-0.24zm0.48 -0.78c-0.01,0.02 -0.02,0.04 -0.03,0.06 -0,0.02 -0,0.05 -0,0.07 0,0.04 0.01,0.09 0.03,0.15l0.02 0.07 0.02 0.07c-0.03,-0.05 -0.05,-0.1 -0.07,-0.14 -0.02,-0.06 -0.04,-0.11 -0.04,-0.15 -0,-0.03 -0,-0.06 0,-0.08 0.01,-0.03 0.02,-0.06 0.04,-0.07 0.03,-0.04 0.08,-0.06 0.13,-0.06 -0.05,0.01 -0.09,0.04 -0.12,0.07zm0.5 0.01c-0.05,-0.07 -0.11,-0.13 -0.18,-0.17 -0.06,-0.03 -0.13,-0.05 -0.19,-0.04 -0.06,0 -0.12,0.02 -0.17,0.06 -0.05,0.04 -0.08,0.08 -0.1,0.13 -0.03,0.1 -0.01,0.24 0.07,0.42 0.01,0.03 0.03,0.07 0.05,0.11l0.03 0.06 0.03 0.05c0.04,0.09 0.07,0.16 0.08,0.22 0.04,0.14 0.07,0.29 0.09,0.45 0.01,0.05 0.01,0.11 0.02,0.18l0 0.04 0 0.04c0,0.03 0,0.05 0.01,0.07 0.01,0.09 0.03,0.16 0.04,0.2 0.02,0.05 0.06,0.07 0.12,0.08 0.11,0.01 0.19,-0.06 0.25,-0.22 0.05,-0.14 0.08,-0.32 0.09,-0.55 0.01,-0.22 -0.01,-0.43 -0.05,-0.64 -0.04,-0.22 -0.1,-0.38 -0.18,-0.49zm0.92 -0.27l-0.03 0.01c-0.01,0 -0.02,0.01 -0.02,0.01 -0.01,0 -0.01,0.01 -0.02,0.01l-0.01 0.01 -0.01 0.01 -0.02 0.02c-0.01,0.01 -0.01,0.01 -0.02,0.02 -0.05,0.05 -0.09,0.12 -0.12,0.19 -0.03,0.06 -0.06,0.13 -0.08,0.22 -0.02,0.06 -0.04,0.14 -0.06,0.23 0.01,-0.08 0.02,-0.16 0.04,-0.24 0.02,-0.08 0.05,-0.15 0.08,-0.23 0.04,-0.08 0.08,-0.14 0.13,-0.19 0.06,-0.06 0.13,-0.09 0.2,-0.1l-0.05 0.02zm0.95 0.55c-0.13,-0.24 -0.28,-0.43 -0.46,-0.55 -0.18,-0.13 -0.36,-0.17 -0.52,-0.12 -0.14,0.04 -0.25,0.17 -0.34,0.37 -0.09,0.19 -0.14,0.42 -0.15,0.67 -0.02,0.29 0.02,0.56 0.09,0.79 0.04,0.12 0.08,0.21 0.14,0.27 0.06,0.07 0.12,0.11 0.18,0.11 0.1,0 0.18,-0.05 0.22,-0.15 0.04,-0.08 0.06,-0.2 0.07,-0.36 0,-0.03 0,-0.06 0.01,-0.1l0 -0.05 0 -0.05c0,-0.08 0.01,-0.14 0.01,-0.18 0.01,-0.12 0.03,-0.18 0.07,-0.2 0.03,-0.01 0.05,-0 0.08,0.03 0.02,0.03 0.05,0.07 0.09,0.13 0.01,0.02 0.03,0.05 0.05,0.09l0.02 0.05 0.03 0.05c0.04,0.08 0.08,0.15 0.11,0.2 0.09,0.14 0.17,0.22 0.27,0.26 0.09,0.04 0.16,0.03 0.22,-0.03 0.04,-0.04 0.07,-0.1 0.08,-0.18 0.01,-0.08 0.01,-0.18 0,-0.29 -0.03,-0.24 -0.12,-0.5 -0.26,-0.77zm1.31 0.53c-0.01,0.03 -0.03,0.05 -0.06,0.07 -0.03,0.02 -0.05,0.03 -0.08,0.02 0.06,-0.02 0.09,-0.06 0.12,-0.11 0.01,-0.02 0.02,-0.05 0.02,-0.08 0,-0.03 -0,-0.06 -0.01,-0.09 0.02,0.03 0.02,0.06 0.03,0.09 0,0.03 -0,0.06 -0.01,0.09zm-0.26 -0.08c-0.02,-0.03 -0.03,-0.06 -0.03,-0.08 -0,-0.03 0.01,-0.05 0.03,-0.07 0.02,-0.01 0.04,-0.01 0.07,-0 0.03,0.01 0.05,0.03 0.07,0.06 0.02,0.03 0.03,0.06 0.03,0.09 0,0.03 -0.01,0.05 -0.03,0.06 -0.02,0.01 -0.04,0.02 -0.06,0.01 -0.03,-0.01 -0.05,-0.03 -0.07,-0.06zm-0.31 -1.23c-0.02,0.01 -0.03,0.03 -0.05,0.05 -0.03,0.03 -0.06,0.07 -0.08,0.12 -0.02,0.03 -0.04,0.08 -0.06,0.14 -0.01,0.02 -0.02,0.04 -0.03,0.07l-0.03 0.07c0.01,-0.06 0.02,-0.11 0.04,-0.15 0.02,-0.05 0.04,-0.1 0.06,-0.14 0.03,-0.05 0.06,-0.09 0.09,-0.12 0.04,-0.04 0.09,-0.06 0.13,-0.07 -0.02,0.01 -0.04,0.02 -0.06,0.03zm0.47 0.68c-0.05,-0.01 -0.08,-0.03 -0.1,-0.07 -0.01,-0.03 -0.02,-0.08 -0.02,-0.14 0,-0.01 0,-0.03 0,-0.04l0 -0.04c0,-0.04 0,-0.07 0,-0.1 -0,-0.08 -0.01,-0.15 -0.02,-0.21 -0.02,-0.08 -0.06,-0.15 -0.12,-0.19 -0.06,-0.04 -0.12,-0.06 -0.19,-0.04 -0.07,0.02 -0.14,0.07 -0.2,0.16 -0.07,0.1 -0.13,0.23 -0.17,0.4 -0.05,0.18 -0.07,0.36 -0.06,0.56 0.01,0.2 0.05,0.38 0.11,0.54 0.07,0.18 0.17,0.31 0.29,0.39 0.14,0.09 0.3,0.13 0.49,0.1 0.18,-0.03 0.32,-0.11 0.41,-0.24 0.09,-0.12 0.14,-0.26 0.14,-0.42 -0,-0.16 -0.05,-0.3 -0.14,-0.42 -0.1,-0.13 -0.24,-0.21 -0.41,-0.24zm0.48 -0.78c-0.01,0.02 -0.02,0.04 -0.03,0.06 -0,0.02 -0,0.05 -0,0.07 0,0.04 0.01,0.09 0.03,0.15l0.02 0.07 0.02 0.07c-0.03,-0.05 -0.05,-0.1 -0.07,-0.14 -0.02,-0.06 -0.04,-0.11 -0.04,-0.15 -0,-0.03 -0,-0.06 0,-0.08 0.01,-0.03 0.02,-0.06 0.04,-0.07 0.03,-0.04 0.08,-0.06 0.13,-0.06 -0.05,0.01 -0.09,0.04 -0.12,0.07zm0.5 0.01c-0.05,-0.07 -0.11,-0.13 -0.18,-0.17 -0.06,-0.03 -0.13,-0.05 -0.19,-0.04 -0.06,0 -0.12,0.02 -0.16,0.06 -0.05,0.04 -0.08,0.08 -0.1,0.13 -0.03,0.1 -0.01,0.24 0.07,0.42 0.01,0.03 0.03,0.07 0.05,0.11l0.03 0.06 0.03 0.05c0.04,0.09 0.07,0.16 0.08,0.22 0.04,0.14 0.07,0.29 0.09,0.45 0.01,0.05 0.01,0.11 0.02,0.18l0 0.04 0 0.04c0,0.03 0,0.05 0.01,0.07 0.01,0.09 0.03,0.16 0.05,0.2 0.02,0.05 0.06,0.07 0.12,0.08 0.11,0.01 0.19,-0.06 0.25,-0.22 0.05,-0.14 0.08,-0.32 0.09,-0.55 0.01,-0.22 -0.01,-0.43 -0.05,-0.64 -0.04,-0.22 -0.1,-0.38 -0.18,-0.49zm1.45 -0.32c-0.01,0.01 -0.02,0.02 -0.03,0.04 -0.01,0.02 -0.02,0.06 -0.02,0.1 -0,0.06 0,0.13 0.02,0.22l0 0.03 0 0.03c0,0.02 0.01,0.04 0.01,0.06 0,0.04 -0,0.08 -0.01,0.11 -0.01,0.04 -0.02,0.07 -0.05,0.1 -0.02,0.03 -0.05,0.05 -0.08,0.07 0.06,-0.04 0.09,-0.1 0.11,-0.17 0.01,-0.04 0.01,-0.07 0,-0.11 -0,-0.01 -0,-0.03 -0.01,-0.05l-0.01 -0.03 -0 -0.03c-0.01,-0.09 -0.02,-0.17 -0.01,-0.22 0,-0.05 0.02,-0.08 0.03,-0.11 0.01,-0.02 0.02,-0.03 0.04,-0.04 0.01,-0.01 0.03,-0.01 0.05,-0.01 -0.02,0.01 -0.04,0.01 -0.05,0.02zm-0.93 0.18c-0.03,0.04 -0.05,0.09 -0.05,0.15 -0.01,0.05 -0.01,0.1 -0.02,0.17l-0.01 0.08 -0.01 0.08c-0.01,-0.11 -0.01,-0.23 0.01,-0.34 0.01,-0.06 0.03,-0.12 0.06,-0.16 0.02,-0.02 0.04,-0.04 0.06,-0.06 0.03,-0.01 0.05,-0.02 0.07,-0.02 -0.05,0.01 -0.09,0.04 -0.12,0.09zm0.96 -0.31c-0.09,0.02 -0.15,0.08 -0.18,0.17 -0.03,0.09 -0.02,0.22 0.01,0.4 0.01,0.08 0.01,0.14 -0.02,0.18 -0.02,0.04 -0.06,0.06 -0.1,0.06 -0.05,0 -0.08,-0.01 -0.11,-0.05 -0.03,-0.04 -0.05,-0.09 -0.05,-0.15 -0.01,-0.18 -0.04,-0.31 -0.11,-0.39 -0.06,-0.07 -0.14,-0.11 -0.24,-0.11 -0.09,-0 -0.16,0.03 -0.22,0.1 -0.06,0.06 -0.09,0.15 -0.11,0.25 -0.03,0.2 -0.03,0.42 0.01,0.68 0.03,0.25 0.09,0.48 0.17,0.7 0.06,0.16 0.14,0.27 0.23,0.33 0.07,0.05 0.15,0.06 0.23,0.04 0.17,-0.05 0.23,-0.21 0.18,-0.46 -0.04,-0.18 -0.02,-0.28 0.07,-0.3 0.04,-0.01 0.08,0.01 0.1,0.04 0.04,0.04 0.06,0.11 0.07,0.21 0.02,0.17 0.06,0.29 0.13,0.37 0.06,0.07 0.15,0.1 0.24,0.09 0.16,-0.02 0.26,-0.15 0.3,-0.39 0.02,-0.17 0.01,-0.44 -0.03,-0.81 -0.03,-0.29 -0.1,-0.52 -0.21,-0.7 -0.11,-0.19 -0.23,-0.27 -0.36,-0.24zm2.32 1.14c-0.01,0.04 -0.03,0.07 -0.06,0.09 -0.03,0.02 -0.06,0.03 -0.09,0.03 0.03,-0.01 0.06,-0.03 0.08,-0.05 0.02,-0.02 0.04,-0.05 0.05,-0.08 0.02,-0.06 0.01,-0.12 -0.01,-0.19 0.02,0.03 0.04,0.06 0.04,0.09 0.01,0.04 0.01,0.07 -0,0.11zm-0.27 -0.05c-0.02,-0.03 -0.03,-0.06 -0.03,-0.09 -0,-0.03 0.01,-0.05 0.02,-0.07 0.02,-0.01 0.04,-0.02 0.06,-0.01 0.03,0.01 0.05,0.03 0.07,0.05 0.02,0.03 0.03,0.06 0.03,0.09 0,0.03 -0.01,0.05 -0.02,0.07 -0.02,0.01 -0.04,0.02 -0.07,0.01 -0.03,-0.01 -0.05,-0.03 -0.07,-0.05zm-0.22 -0.61c0.02,-0.01 0.04,-0.02 0.06,-0.04 0.02,-0.02 0.03,-0.03 0.04,-0.05 0.01,-0.02 0.02,-0.04 0.03,-0.06 0.01,-0.02 0.01,-0.04 0.02,-0.07 0.01,0.05 0,0.1 -0.03,0.15 -0.02,0.02 -0.03,0.04 -0.05,0.05 -0.02,0.01 -0.05,0.02 -0.07,0.02zm-0.06 -0.21c0.01,-0.02 0.02,-0.04 0.03,-0.05 0.01,-0.01 0.03,-0.01 0.04,-0.01 0.01,0.01 0.02,0.02 0.03,0.04 0,0.02 0,0.04 -0,0.06 -0.01,0.02 -0.02,0.04 -0.03,0.05 -0.01,0.01 -0.03,0.01 -0.04,0.01 -0.01,-0.01 -0.02,-0.02 -0.03,-0.04 -0,-0.02 -0,-0.04 0,-0.06zm-0.28 -0.23c-0.02,0.03 -0.04,0.06 -0.05,0.1 -0.03,0.06 -0.05,0.14 -0.07,0.22 -0.01,0.07 -0.02,0.15 -0.03,0.24 -0,-0.08 -0,-0.16 0.01,-0.24 0.01,-0.08 0.03,-0.16 0.06,-0.23 0.04,-0.08 0.08,-0.15 0.13,-0.19 0.03,-0.03 0.07,-0.05 0.1,-0.06 0.04,-0.02 0.07,-0.02 0.11,-0.03 -0.08,0.02 -0.14,0.05 -0.19,0.11 -0.03,0.03 -0.05,0.06 -0.07,0.09zm0.68 0.49c-0.02,-0 -0.02,-0.02 -0.02,-0.05 0,-0.01 0.01,-0.03 0.01,-0.05l0.01 -0.01 0.01 -0.01c0,-0.01 0.01,-0.02 0.01,-0.03 0.02,-0.06 0.03,-0.11 0.03,-0.17 0,-0.07 -0.01,-0.15 -0.03,-0.22 -0.03,-0.08 -0.08,-0.15 -0.17,-0.2 -0.09,-0.05 -0.18,-0.07 -0.28,-0.06 -0.11,0.01 -0.2,0.06 -0.29,0.14 -0.09,0.1 -0.16,0.23 -0.2,0.4 -0.04,0.18 -0.04,0.37 -0.02,0.57 0.02,0.21 0.08,0.39 0.16,0.55 0.09,0.18 0.2,0.31 0.33,0.39 0.15,0.09 0.32,0.12 0.5,0.08 0.18,-0.04 0.31,-0.12 0.4,-0.25 0.08,-0.12 0.12,-0.25 0.1,-0.41 -0.01,-0.15 -0.07,-0.29 -0.17,-0.41 -0.11,-0.13 -0.24,-0.22 -0.41,-0.26z"/>
  <path class="fil0" d="M25.8 5.71l-0.02 0.01c-0.02,0.01 -0.03,0.01 -0.04,0.02 -0.03,0.01 -0.06,0.02 -0.09,0.02 0.03,-0.01 0.05,-0.02 0.08,-0.04l0.02 -0.01 0.02 -0.01c0.02,-0.01 0.03,-0.02 0.04,-0.02 0.03,-0.02 0.06,-0.03 0.08,-0.03 0.03,-0.01 0.06,-0.01 0.09,-0.01 -0.05,0.02 -0.1,0.04 -0.16,0.07l-0.02 0.01zm-0.61 -1.35c-0.04,0.02 -0.08,0.04 -0.11,0.07 -0.04,0.03 -0.07,0.06 -0.09,0.1 -0.02,0.03 -0.04,0.07 -0.06,0.12 -0.02,0.07 -0.04,0.16 -0.05,0.27 -0,0.04 -0.01,0.09 -0.01,0.14 -0,0.02 -0,0.04 -0,0.07l0 0.07c-0.01,-0.1 -0.02,-0.19 -0.01,-0.28 0,-0.11 0.02,-0.2 0.05,-0.28 0.02,-0.05 0.04,-0.09 0.06,-0.13 0.03,-0.04 0.06,-0.07 0.1,-0.1 0.03,-0.03 0.07,-0.05 0.12,-0.06 0.04,-0.02 0.09,-0.02 0.13,-0.03 -0.05,0.01 -0.09,0.03 -0.12,0.04zm0.39 0.76l0.01 -0c0.01,-0 0.02,-0.01 0.02,-0.01 0.02,-0.01 0.03,-0.01 0.05,-0.01 0.02,0 0.03,0.01 0.04,0.02 -0.01,-0 -0.03,-0 -0.04,0 -0.01,0 -0.03,0.01 -0.04,0.01l-0.01 0 -0.01 0c-0.01,0 -0.02,0.01 -0.02,0.01 -0.02,0 -0.03,0 -0.05,0l0.02 -0.01 0.02 -0.01 0.01 -0.01zm0.14 0.48c-0.04,0.03 -0.09,0.04 -0.12,0.03 -0.03,-0.01 -0.05,-0.03 -0.06,-0.06 -0.01,-0.03 -0.01,-0.06 -0,-0.08 0.01,-0.03 0.03,-0.05 0.07,-0.06 0.1,-0.02 0.17,-0.06 0.21,-0.12 0.04,-0.05 0.05,-0.11 0.04,-0.18 -0.01,-0.06 -0.05,-0.1 -0.1,-0.13 -0.06,-0.02 -0.12,-0.02 -0.19,0.01 -0.06,0.03 -0.1,0.01 -0.13,-0.04 -0.01,-0.02 -0.01,-0.04 -0.01,-0.07 0,-0.02 0.01,-0.05 0.03,-0.06 0.02,-0.03 0.06,-0.04 0.11,-0.06 0.02,-0.01 0.04,-0.01 0.07,-0.02l0.04 -0.01 0.04 -0.01c0.06,-0.01 0.11,-0.03 0.14,-0.05 0.04,-0.03 0.07,-0.07 0.08,-0.12 0.02,-0.08 -0.01,-0.16 -0.08,-0.24 -0.07,-0.07 -0.16,-0.12 -0.28,-0.15 -0.12,-0.03 -0.24,-0.03 -0.36,0.01 -0.13,0.04 -0.23,0.11 -0.31,0.22 -0.07,0.1 -0.12,0.25 -0.13,0.45 -0.01,0.18 -0,0.38 0.04,0.59 0.04,0.21 0.1,0.39 0.17,0.55 0.08,0.17 0.17,0.28 0.27,0.32 0.09,0.05 0.2,0.06 0.33,0.04 0.11,-0.02 0.22,-0.07 0.33,-0.14 0.11,-0.07 0.19,-0.15 0.25,-0.24 0.06,-0.1 0.09,-0.19 0.08,-0.28 -0.02,-0.12 -0.07,-0.19 -0.16,-0.21 -0.09,-0.02 -0.22,0.01 -0.36,0.1zm1.49 -0.76c-0.01,0.03 -0.02,0.06 -0.04,0.09 -0.02,0.03 -0.04,0.05 -0.06,0.06 -0.03,0.02 -0.05,0.02 -0.08,0.02 0.03,-0.01 0.05,-0.02 0.07,-0.04 0.02,-0.02 0.04,-0.04 0.05,-0.06 0.03,-0.04 0.05,-0.1 0.06,-0.16 0.01,0.03 0.01,0.06 0,0.09zm-0.27 -0.09c0.01,-0.03 0.03,-0.06 0.05,-0.07 0.02,-0.02 0.04,-0.02 0.06,-0.01 0.02,0.01 0.04,0.03 0.04,0.05 0.01,0.03 0.01,0.06 -0,0.09 -0.01,0.03 -0.02,0.06 -0.05,0.07 -0.02,0.02 -0.04,0.02 -0.06,0.01 -0.02,-0.01 -0.04,-0.03 -0.04,-0.05 -0.01,-0.03 -0.01,-0.06 0,-0.09zm-0.3 -0.57c-0.06,0.04 -0.11,0.09 -0.14,0.15 -0.04,0.06 -0.06,0.12 -0.09,0.2 -0.02,0.06 -0.03,0.13 -0.04,0.22 -0,-0.03 -0,-0.07 0,-0.11 0,-0.04 0.01,-0.08 0.02,-0.11 0.02,-0.08 0.04,-0.15 0.08,-0.21 0.04,-0.07 0.09,-0.12 0.16,-0.15 0.03,-0.02 0.06,-0.03 0.1,-0.05 0.04,-0.01 0.07,-0.02 0.1,-0.02 -0.08,0.02 -0.14,0.05 -0.19,0.09zm0.23 -0.22c-0.19,0.03 -0.33,0.1 -0.44,0.24 -0.09,0.12 -0.15,0.27 -0.17,0.46 -0.02,0.17 0,0.36 0.05,0.55 0.05,0.19 0.12,0.36 0.22,0.52 0.09,0.15 0.19,0.26 0.28,0.33 0.09,0.06 0.17,0.09 0.24,0.09 0.07,-0 0.12,-0.03 0.17,-0.09 0.04,-0.06 0.06,-0.13 0.06,-0.22 -0,-0.06 -0.01,-0.13 -0.03,-0.2 -0.01,-0.02 -0.02,-0.05 -0.03,-0.09l-0.01 -0.04c-0.01,-0.01 -0.01,-0.03 -0.01,-0.04 -0.02,-0.06 -0.02,-0.1 -0.02,-0.14 0.01,-0.04 0.03,-0.08 0.07,-0.11 0.14,-0.1 0.24,-0.23 0.29,-0.39 0.05,-0.15 0.06,-0.29 0.02,-0.44 -0.04,-0.15 -0.12,-0.26 -0.23,-0.34 -0.12,-0.09 -0.28,-0.12 -0.46,-0.1zm1.92 1.09c-0.02,0.02 -0.04,0.03 -0.06,0.04 -0.02,0.01 -0.04,0.01 -0.07,0.01 0.04,-0.02 0.07,-0.04 0.1,-0.07 0.02,-0.03 0.05,-0.06 0.07,-0.11 0,0.05 -0.02,0.09 -0.05,0.13zm-0.16 -0.06c-0.02,-0.01 -0.04,-0.02 -0.05,-0.05 -0.01,-0.03 -0.01,-0.06 -0.01,-0.09 0.01,-0.03 0.02,-0.06 0.04,-0.08 0.02,-0.02 0.04,-0.02 0.07,-0.02 0.02,0.01 0.04,0.02 0.05,0.05 0.01,0.03 0.01,0.06 0.01,0.09 -0.01,0.03 -0.02,0.06 -0.04,0.08 -0.02,0.02 -0.04,0.02 -0.07,0.02zm-0.34 -0.78c-0.03,0.06 -0.06,0.13 -0.1,0.23 -0.01,0.03 -0.03,0.07 -0.04,0.12l-0.04 0.12c0.02,-0.08 0.04,-0.16 0.06,-0.24 0.03,-0.08 0.06,-0.16 0.09,-0.23 0.04,-0.09 0.08,-0.16 0.13,-0.22l0.02 -0.02c0.01,-0.01 0.01,-0.02 0.02,-0.02l0.02 -0.02 0.02 -0.02c0.04,-0.03 0.08,-0.05 0.11,-0.05 -0.03,0.01 -0.06,0.03 -0.1,0.06l-0.02 0.02 -0.02 0.02c-0.01,0.01 -0.01,0.01 -0.02,0.02l-0.02 0.03c-0.04,0.06 -0.08,0.13 -0.12,0.22zm0.31 -0.49c-0.12,-0 -0.25,0.11 -0.37,0.33 -0.11,0.2 -0.2,0.45 -0.26,0.75 -0.07,0.3 -0.09,0.56 -0.08,0.78 0.02,0.24 0.08,0.38 0.19,0.4 0.08,0.02 0.16,0.01 0.23,-0.04 0.05,-0.03 0.1,-0.09 0.15,-0.17 0.01,-0.02 0.02,-0.03 0.03,-0.05l0.03 -0.05c0.02,-0.04 0.04,-0.07 0.05,-0.09 0.04,-0.06 0.08,-0.1 0.11,-0.1 0.03,-0.01 0.08,0.02 0.14,0.06 0.02,0.01 0.05,0.04 0.08,0.07l0.04 0.04 0.04 0.04c0.07,0.06 0.14,0.1 0.19,0.11 0.07,0.02 0.14,0.01 0.2,-0.03 0.07,-0.05 0.1,-0.19 0.08,-0.41 -0.02,-0.2 -0.08,-0.43 -0.17,-0.69 -0.09,-0.26 -0.2,-0.48 -0.32,-0.65 -0.14,-0.19 -0.27,-0.29 -0.39,-0.29z"/>
  <polygon class="fil0" points="2.68,3.43 2.21,3.5 2.56,5.83 1.92,5.92 1.58,3.6 1.11,3.67 1.45,5.99 0.81,6.08 0.47,3.76 -0,3.83 0.41,6.59 3.09,6.2 "/>
 </g>
</svg>
