<?xml version="1.0" encoding="UTF-8"?>
<!DOCTYPE svg PUBLIC "-//W3C//DTD SVG 1.1//EN" "http://www.w3.org/Graphics/SVG/1.1/DTD/svg11.dtd">
<!-- Creator: CorelDRAW 2019 (64-Bit) -->
<svg xmlns="http://www.w3.org/2000/svg" xml:space="preserve" width="17.4271mm" height="4.8098mm" version="1.1" style="shape-rendering:geometricPrecision; text-rendering:geometricPrecision; image-rendering:optimizeQuality; fill-rule:evenodd; clip-rule:evenodd"
viewBox="0 0 51.58 14.24"
 xmlns:xlink="http://www.w3.org/1999/xlink"
 xmlns:xodm="http://www.corel.com/coreldraw/odm/2003">
 <defs>
  <style type="text/css">
   <![CDATA[
    .fil0 {fill:#AEA363;fill-rule:nonzero}
   ]]>
  </style>
 </defs>
 <g id="Слой_x0020_1">
  <metadata id="CorelCorpID_0Corel-Layer"/>
  <g id="_1901374965200">
   <path class="fil0" d="M6.4 2c-0.02,0.01 -0.04,0.02 -0.07,0.04l-0.06 0.04 -0.06 0.04c-0.03,0.02 -0.04,0.03 -0.06,0.05 -0.07,0.05 -0.14,0.12 -0.22,0.2 -0.08,0.1 -0.14,0.18 -0.18,0.24 -0.1,0.17 -0.16,0.36 -0.18,0.59 -0.01,0.05 -0.01,0.1 -0.01,0.16l-0 0.16c-0,0.05 -0,0.1 -0,0.16l0 0.16c-0.03,-0.23 -0.04,-0.44 -0.03,-0.65 0.01,-0.23 0.07,-0.44 0.18,-0.62l0.04 -0.07 0.05 -0.06c0.01,-0.02 0.02,-0.04 0.05,-0.06l0.03 -0.03 0.03 -0.03c0.09,-0.09 0.17,-0.16 0.23,-0.2 0.16,-0.12 0.34,-0.2 0.55,-0.24l-0.07 0.03 -0.07 0.03c-0.05,0.02 -0.09,0.04 -0.13,0.07zm2.29 0.56c-0.2,-0.41 -0.49,-0.7 -0.87,-0.87 -0.35,-0.16 -0.72,-0.19 -1.11,-0.1 -0.39,0.09 -0.71,0.27 -0.97,0.55 -0.28,0.3 -0.43,0.67 -0.45,1.09 -0.04,0.79 0.11,1.56 0.43,2.3 0.14,0.33 0.3,0.59 0.48,0.77 0.18,0.19 0.36,0.27 0.53,0.24 0.24,-0.04 0.37,-0.2 0.42,-0.47 0.05,-0.31 -0.01,-0.83 -0.18,-1.58 -0.13,-0.59 -0.08,-0.9 0.14,-0.95 0.13,-0.02 0.23,0.08 0.31,0.3 0.07,0.21 0.11,0.47 0.12,0.79 0,0.71 0.1,1.2 0.27,1.48 0.13,0.21 0.32,0.3 0.55,0.27 0.2,-0.02 0.37,-0.17 0.5,-0.44 0.12,-0.25 0.2,-0.58 0.23,-0.99 0.03,-0.4 0.02,-0.82 -0.05,-1.24 -0.07,-0.44 -0.18,-0.83 -0.35,-1.17zm2.93 2.23c-0.04,0.06 -0.09,0.11 -0.15,0.15 -0.06,0.04 -0.12,0.06 -0.18,0.06 0.12,-0.05 0.21,-0.13 0.28,-0.24 0.06,-0.1 0.1,-0.22 0.12,-0.37 0.04,0.14 0.01,0.28 -0.06,0.4zm-0.69 -0.33c-0.02,-0.09 -0.01,-0.17 0.03,-0.24 0.04,-0.07 0.09,-0.12 0.16,-0.13 0.07,-0.01 0.13,0.01 0.19,0.06 0.06,0.05 0.1,0.12 0.11,0.21 0.02,0.09 0.01,0.17 -0.03,0.24 -0.04,0.07 -0.09,0.12 -0.16,0.13 -0.07,0.02 -0.13,-0 -0.19,-0.06 -0.06,-0.05 -0.1,-0.12 -0.11,-0.21zm-0.28 -2.67c-0.16,0.08 -0.3,0.19 -0.43,0.32 -0.11,0.12 -0.22,0.28 -0.31,0.46l-0.03 0.06 -0.03 0.06 -0.05 0.13 -0.05 0.14 -0.04 0.14c0.03,-0.19 0.08,-0.38 0.16,-0.56 0.08,-0.18 0.18,-0.35 0.31,-0.48 0.14,-0.15 0.29,-0.26 0.45,-0.33 0.08,-0.03 0.17,-0.06 0.26,-0.08l0.07 -0.01 0.07 -0.01 0.13 -0c-0.19,0.02 -0.36,0.07 -0.51,0.15zm1.06 -0.37c-0.67,-0.15 -1.22,-0.01 -1.64,0.42 -0.37,0.38 -0.6,0.91 -0.66,1.59 -0.07,0.66 0.03,1.26 0.29,1.81 0.27,0.59 0.68,0.96 1.2,1.09 0.49,0.12 0.95,-0.03 1.36,-0.47 0.38,-0.4 0.64,-0.92 0.78,-1.58 0.14,-0.67 0.11,-1.26 -0.09,-1.78 -0.23,-0.58 -0.64,-0.94 -1.24,-1.08zm5.24 0.06c-0.05,0.04 -0.1,0.09 -0.15,0.17 -0.07,0.09 -0.15,0.22 -0.25,0.39l-0.06 0.1 -0.06 0.1c-0.05,0.07 -0.1,0.14 -0.14,0.19 -0.06,0.06 -0.12,0.11 -0.18,0.14 -0.07,0.04 -0.15,0.06 -0.22,0.05 0.13,-0.02 0.25,-0.1 0.36,-0.23 0.04,-0.05 0.08,-0.11 0.13,-0.19l0.06 -0.1 0.06 -0.1c0.1,-0.17 0.19,-0.3 0.26,-0.39 0.06,-0.07 0.12,-0.12 0.17,-0.16 0.07,-0.04 0.14,-0.07 0.21,-0.06 -0.08,0.01 -0.14,0.04 -0.2,0.09zm-2.57 0.42c-0.07,0.11 -0.14,0.24 -0.21,0.4 -0.04,0.1 -0.09,0.24 -0.16,0.44 -0.02,0.07 -0.04,0.15 -0.07,0.23l-0.03 0.11 -0.03 0.11c0.04,-0.33 0.12,-0.63 0.23,-0.91 0.07,-0.17 0.15,-0.31 0.23,-0.41 0.05,-0.06 0.1,-0.11 0.17,-0.16 0.07,-0.04 0.14,-0.07 0.21,-0.06 -0.12,0.02 -0.23,0.1 -0.34,0.25zm3.98 1.56c-0.05,-0.69 -0.19,-1.26 -0.41,-1.69 -0.21,-0.41 -0.44,-0.62 -0.71,-0.65 -0.2,-0.02 -0.37,0.04 -0.52,0.19 -0.12,0.11 -0.27,0.33 -0.45,0.65 -0.15,0.28 -0.29,0.4 -0.41,0.38 -0.08,-0.01 -0.18,-0.12 -0.31,-0.31 -0.14,-0.22 -0.28,-0.38 -0.41,-0.49 -0.16,-0.13 -0.33,-0.19 -0.49,-0.17 -0.45,0.07 -0.78,0.65 -1.01,1.75 -0.15,0.71 -0.19,1.34 -0.14,1.89 0.06,0.63 0.26,0.98 0.57,1.04 0.19,0.03 0.34,-0.02 0.48,-0.17 0.1,-0.11 0.19,-0.29 0.28,-0.53 0.03,-0.08 0.06,-0.18 0.09,-0.3l0.02 -0.07 0.02 -0.07c0.01,-0.05 0.03,-0.1 0.04,-0.13 0.06,-0.19 0.12,-0.29 0.17,-0.32 0.04,-0.02 0.08,0.02 0.12,0.1 0.01,0.03 0.03,0.07 0.06,0.14l0.01 0.04 0.02 0.04 0.03 0.08c0.06,0.14 0.12,0.24 0.19,0.32 0.09,0.1 0.2,0.14 0.32,0.14 0.09,-0 0.18,-0.04 0.26,-0.13 0.05,-0.05 0.11,-0.14 0.18,-0.26l0.04 -0.07 0.04 -0.06c0.03,-0.05 0.05,-0.09 0.07,-0.11 0.05,-0.07 0.11,-0.09 0.16,-0.07 0.05,0.02 0.11,0.11 0.17,0.27 0.01,0.03 0.02,0.07 0.04,0.11l0.02 0.06 0.02 0.06c0.04,0.11 0.07,0.2 0.1,0.27 0.09,0.21 0.18,0.37 0.27,0.48 0.13,0.14 0.27,0.21 0.44,0.21 0.29,-0 0.48,-0.26 0.58,-0.76 0.09,-0.44 0.1,-1.07 0.04,-1.88zm2.56 0.94c-0.04,0.06 -0.09,0.11 -0.15,0.15 -0.06,0.04 -0.12,0.06 -0.18,0.06 0.12,-0.05 0.21,-0.13 0.28,-0.24 0.06,-0.1 0.1,-0.22 0.12,-0.37 0.04,0.14 0.01,0.28 -0.06,0.4zm-0.69 -0.33c-0.02,-0.09 -0.01,-0.17 0.03,-0.24 0.04,-0.07 0.09,-0.12 0.16,-0.13 0.07,-0.01 0.13,0.01 0.19,0.06 0.06,0.05 0.1,0.12 0.11,0.21 0.02,0.09 0.01,0.17 -0.03,0.24 -0.04,0.07 -0.09,0.12 -0.16,0.13 -0.07,0.01 -0.13,-0 -0.19,-0.06 -0.06,-0.05 -0.1,-0.12 -0.11,-0.21zm-0.28 -2.67c-0.16,0.08 -0.3,0.19 -0.43,0.32 -0.11,0.12 -0.22,0.28 -0.31,0.46l-0.03 0.06 -0.03 0.06 -0.05 0.13 -0.05 0.14 -0.04 0.14c0.03,-0.19 0.08,-0.38 0.16,-0.56 0.08,-0.18 0.18,-0.35 0.31,-0.48 0.14,-0.15 0.29,-0.26 0.45,-0.33 0.08,-0.03 0.17,-0.06 0.26,-0.08l0.07 -0.01 0.07 -0.01 0.13 -0c-0.19,0.02 -0.36,0.07 -0.51,0.15zm1.06 -0.37c-0.67,-0.15 -1.22,-0.01 -1.64,0.42 -0.37,0.38 -0.6,0.91 -0.66,1.59 -0.07,0.66 0.03,1.26 0.29,1.81 0.27,0.59 0.68,0.96 1.2,1.09 0.49,0.12 0.95,-0.03 1.36,-0.47 0.38,-0.4 0.64,-0.92 0.78,-1.58 0.14,-0.67 0.11,-1.26 -0.09,-1.78 -0.23,-0.58 -0.64,-0.94 -1.24,-1.08zm2.9 0.15c-0.09,0.03 -0.18,0.07 -0.26,0.12 -0.18,0.1 -0.32,0.22 -0.43,0.37 -0.05,0.06 -0.09,0.15 -0.13,0.25 -0.02,0.07 -0.05,0.17 -0.07,0.29 -0.02,0.09 -0.03,0.19 -0.04,0.3 -0,0.04 -0.01,0.1 -0.01,0.15l-0.01 0.15c-0.02,-0.22 -0.01,-0.42 0.01,-0.61 0.03,-0.25 0.1,-0.44 0.2,-0.58 0.12,-0.15 0.27,-0.28 0.46,-0.37 0.08,-0.04 0.17,-0.08 0.27,-0.1 0.1,-0.03 0.19,-0.04 0.28,-0.05 -0.11,0.03 -0.2,0.05 -0.27,0.08zm1.88 0.37c-0.02,-0.2 -0.14,-0.37 -0.36,-0.51 -0.2,-0.13 -0.46,-0.21 -0.76,-0.24 -0.31,-0.02 -0.61,0.01 -0.89,0.11 -0.31,0.11 -0.57,0.29 -0.76,0.52 -0.17,0.22 -0.27,0.57 -0.3,1.03 -0.02,0.43 0.02,0.89 0.12,1.39 0.1,0.5 0.25,0.92 0.44,1.27 0.2,0.38 0.42,0.59 0.64,0.66 0.33,0.09 0.55,-0.01 0.68,-0.29 0.11,-0.25 0.12,-0.58 0.03,-0.99 -0.01,-0.06 -0.03,-0.13 -0.05,-0.23 -0.01,-0.03 -0.02,-0.07 -0.03,-0.13l-0.02 -0.07 -0.02 -0.07c-0.06,-0.25 -0.11,-0.45 -0.14,-0.61 -0.1,-0.5 -0.09,-0.82 0.01,-0.96 0.05,-0.06 0.16,-0.11 0.34,-0.14 0.03,-0.01 0.07,-0.01 0.12,-0.02l0.13 -0.02c0.11,-0.02 0.19,-0.03 0.25,-0.04 0.2,-0.04 0.34,-0.11 0.43,-0.19 0.12,-0.11 0.17,-0.28 0.14,-0.49zm2.84 -0.35c-0.05,0.07 -0.11,0.16 -0.16,0.26 -0.09,0.18 -0.17,0.37 -0.24,0.57l-0.05 0.15 -0.04 0.15c-0.04,0.13 -0.07,0.23 -0.09,0.3 -0.05,0.13 -0.09,0.23 -0.14,0.29 -0.03,0.05 -0.07,0.08 -0.12,0.1 -0.04,0.02 -0.09,0.03 -0.15,0.02 0.06,-0 0.1,-0.02 0.14,-0.04 0.04,-0.02 0.07,-0.06 0.1,-0.11 0.04,-0.06 0.08,-0.15 0.11,-0.28l0.04 -0.15 0.04 -0.15c0.03,-0.12 0.06,-0.22 0.09,-0.3 0.07,-0.22 0.16,-0.41 0.26,-0.57 0.13,-0.22 0.27,-0.37 0.41,-0.45 -0.08,0.06 -0.15,0.13 -0.21,0.22zm-2.09 0.89c-0.02,0.14 -0.04,0.31 -0.06,0.51l-0.02 0.26 -0.02 0.25c-0.04,-0.51 -0,-0.96 0.11,-1.36 0.02,-0.08 0.04,-0.15 0.06,-0.22 0.03,-0.08 0.07,-0.16 0.1,-0.22 0.1,-0.16 0.22,-0.24 0.35,-0.23 -0.16,0.02 -0.29,0.16 -0.39,0.4 -0.03,0.09 -0.07,0.2 -0.09,0.32 -0.01,0.04 -0.02,0.1 -0.03,0.15l-0.01 0.07 -0.01 0.03 -0.01 0.03zm2.9 -1.37c-0.27,-0.16 -0.53,-0.14 -0.79,0.07 -0.22,0.17 -0.4,0.44 -0.56,0.81 -0.05,0.12 -0.1,0.26 -0.15,0.41 -0.02,0.06 -0.04,0.12 -0.06,0.2l-0.02 0.09 -0.01 0.04 -0.01 0.04c-0.04,0.13 -0.06,0.22 -0.09,0.27 -0.03,0.07 -0.06,0.1 -0.09,0.1 -0.06,-0 -0.09,-0.05 -0.09,-0.14 -0.01,-0.08 0,-0.26 0.02,-0.54 0.05,-0.51 0,-0.87 -0.14,-1.08 -0.11,-0.16 -0.28,-0.22 -0.5,-0.18 -0.27,0.05 -0.48,0.34 -0.62,0.87 -0.13,0.51 -0.18,1.13 -0.12,1.85 0.09,1.33 0.49,2.04 1.18,2.11 0.2,0.02 0.4,-0.04 0.59,-0.18 0.18,-0.13 0.34,-0.31 0.46,-0.54 0.11,-0.2 0.2,-0.38 0.27,-0.55 0.03,-0.06 0.05,-0.13 0.08,-0.19 0.02,-0.04 0.03,-0.09 0.05,-0.14 0.03,-0.09 0.05,-0.14 0.06,-0.15 0.01,-0.02 0.04,-0.03 0.06,-0.03 0.03,0.01 0.04,0.1 0.02,0.29l-0 0.07 -0.01 0.07c-0,0.06 -0.01,0.11 -0.01,0.15 -0.01,0.12 -0.01,0.23 -0.01,0.32 0.01,0.57 0.21,0.84 0.59,0.83 0.25,-0.01 0.43,-0.25 0.55,-0.71 0.1,-0.41 0.15,-0.93 0.12,-1.55 -0.03,-0.61 -0.11,-1.15 -0.24,-1.64 -0.15,-0.53 -0.33,-0.85 -0.55,-0.98zm-28.34 8.94c-0.02,0.01 -0.04,0.02 -0.07,0.04l-0.06 0.04 -0.06 0.04c-0.03,0.02 -0.04,0.03 -0.06,0.05 -0.07,0.05 -0.14,0.12 -0.22,0.2 -0.08,0.1 -0.14,0.18 -0.18,0.24 -0.1,0.17 -0.16,0.36 -0.18,0.59 -0.01,0.05 -0.01,0.1 -0.01,0.16l-0 0.16c-0,0.05 -0,0.1 -0,0.16l0 0.16c-0.03,-0.23 -0.04,-0.44 -0.03,-0.65 0.01,-0.23 0.07,-0.44 0.18,-0.62l0.04 -0.07 0.05 -0.06c0.01,-0.02 0.02,-0.04 0.05,-0.06l0.03 -0.03 0.03 -0.03c0.09,-0.09 0.17,-0.16 0.23,-0.2 0.16,-0.12 0.34,-0.2 0.55,-0.24l-0.07 0.03 -0.07 0.03c-0.05,0.02 -0.09,0.04 -0.13,0.07zm2.29 0.56c-0.2,-0.41 -0.49,-0.7 -0.87,-0.87 -0.35,-0.16 -0.72,-0.19 -1.11,-0.1 -0.39,0.09 -0.71,0.27 -0.97,0.55 -0.28,0.31 -0.43,0.67 -0.45,1.1 -0.04,0.79 0.11,1.56 0.43,2.3 0.14,0.33 0.3,0.59 0.48,0.77 0.18,0.19 0.36,0.27 0.53,0.24 0.24,-0.04 0.37,-0.2 0.42,-0.47 0.05,-0.31 -0.01,-0.83 -0.18,-1.58 -0.13,-0.59 -0.08,-0.9 0.14,-0.95 0.13,-0.02 0.23,0.08 0.31,0.3 0.07,0.21 0.11,0.47 0.12,0.79 0.01,0.71 0.1,1.2 0.27,1.48 0.13,0.21 0.32,0.3 0.55,0.27 0.2,-0.02 0.37,-0.17 0.5,-0.44 0.12,-0.25 0.2,-0.58 0.23,-0.99 0.03,-0.4 0.02,-0.82 -0.05,-1.24 -0.07,-0.44 -0.18,-0.83 -0.35,-1.17zm2.93 2.23c-0.04,0.06 -0.09,0.11 -0.15,0.15 -0.06,0.04 -0.12,0.06 -0.18,0.06 0.12,-0.05 0.21,-0.13 0.28,-0.24 0.06,-0.1 0.1,-0.22 0.12,-0.37 0.04,0.14 0.01,0.28 -0.06,0.4zm-0.69 -0.33c-0.02,-0.09 -0.01,-0.17 0.03,-0.24 0.04,-0.07 0.09,-0.12 0.16,-0.13 0.07,-0.01 0.13,0.01 0.19,0.06 0.06,0.05 0.1,0.12 0.11,0.21 0.02,0.09 0.01,0.17 -0.03,0.24 -0.04,0.07 -0.09,0.12 -0.16,0.13 -0.07,0.02 -0.13,-0 -0.19,-0.06 -0.06,-0.05 -0.1,-0.12 -0.11,-0.21zm-0.28 -2.67c-0.16,0.08 -0.3,0.19 -0.43,0.32 -0.11,0.12 -0.22,0.28 -0.31,0.46l-0.03 0.06 -0.03 0.06 -0.05 0.13 -0.05 0.14 -0.04 0.14c0.03,-0.19 0.08,-0.38 0.16,-0.56 0.08,-0.18 0.18,-0.35 0.31,-0.48 0.14,-0.15 0.29,-0.26 0.45,-0.33 0.08,-0.03 0.17,-0.06 0.26,-0.08l0.07 -0.01 0.07 -0.01 0.13 -0c-0.19,0.02 -0.36,0.07 -0.51,0.15zm1.06 -0.37c-0.67,-0.15 -1.22,-0.01 -1.64,0.42 -0.37,0.38 -0.6,0.91 -0.66,1.59 -0.07,0.66 0.03,1.26 0.29,1.81 0.27,0.59 0.68,0.96 1.2,1.09 0.49,0.12 0.95,-0.03 1.36,-0.47 0.38,-0.4 0.64,-0.92 0.78,-1.58 0.14,-0.67 0.11,-1.26 -0.09,-1.78 -0.23,-0.58 -0.64,-0.94 -1.24,-1.08zm4.18 0.31c-0.05,0.07 -0.11,0.16 -0.16,0.26 -0.09,0.18 -0.17,0.37 -0.24,0.57l-0.05 0.15 -0.04 0.15c-0.04,0.13 -0.07,0.23 -0.09,0.3 -0.05,0.13 -0.09,0.23 -0.14,0.28 -0.04,0.05 -0.08,0.08 -0.12,0.1 -0.04,0.02 -0.09,0.03 -0.15,0.02 0.06,-0 0.1,-0.02 0.14,-0.04 0.04,-0.03 0.07,-0.06 0.1,-0.11 0.04,-0.06 0.08,-0.15 0.11,-0.28l0.04 -0.15 0.04 -0.15c0.03,-0.12 0.06,-0.22 0.09,-0.3 0.07,-0.22 0.16,-0.41 0.26,-0.57 0.13,-0.22 0.27,-0.37 0.41,-0.45 -0.08,0.06 -0.15,0.13 -0.21,0.22zm-2.1 0.9c-0.02,0.14 -0.04,0.31 -0.06,0.51l-0.02 0.26 -0.02 0.26c-0.04,-0.51 -0,-0.97 0.11,-1.37 0.02,-0.08 0.05,-0.15 0.07,-0.22 0.03,-0.08 0.07,-0.16 0.1,-0.22 0.1,-0.16 0.21,-0.24 0.35,-0.24 -0.16,0.02 -0.29,0.16 -0.39,0.4 -0.03,0.09 -0.06,0.2 -0.09,0.32 -0.01,0.05 -0.02,0.1 -0.03,0.16l-0.01 0.07 -0.01 0.03 -0.01 0.03zm2.9 -1.37c-0.27,-0.16 -0.54,-0.14 -0.8,0.08 -0.22,0.17 -0.4,0.44 -0.56,0.81 -0.05,0.12 -0.1,0.26 -0.15,0.41 -0.02,0.06 -0.04,0.12 -0.06,0.2l-0.02 0.09 -0.01 0.05 -0.01 0.04c-0.04,0.13 -0.06,0.22 -0.08,0.27 -0.03,0.07 -0.06,0.1 -0.09,0.1 -0.05,-0 -0.09,-0.05 -0.09,-0.14 -0.01,-0.08 0,-0.26 0.03,-0.54 0.05,-0.51 0,-0.87 -0.14,-1.08 -0.11,-0.16 -0.28,-0.22 -0.5,-0.18 -0.27,0.05 -0.48,0.34 -0.62,0.87 -0.13,0.51 -0.17,1.13 -0.12,1.86 0.09,1.34 0.49,2.04 1.18,2.12 0.2,0.02 0.4,-0.04 0.59,-0.18 0.18,-0.13 0.34,-0.31 0.46,-0.54 0.11,-0.2 0.2,-0.38 0.27,-0.55 0.03,-0.06 0.05,-0.13 0.08,-0.19 0.02,-0.04 0.03,-0.09 0.05,-0.14 0.03,-0.09 0.05,-0.14 0.06,-0.16 0.01,-0.02 0.04,-0.03 0.06,-0.03 0.03,0.01 0.04,0.11 0.02,0.29l-0 0.06 -0.01 0.07c-0,0.06 -0.01,0.11 -0.01,0.15 -0.01,0.12 -0.01,0.23 -0.01,0.32 0.01,0.57 0.21,0.84 0.59,0.83 0.25,-0.01 0.43,-0.25 0.55,-0.71 0.1,-0.41 0.15,-0.93 0.12,-1.55 -0.02,-0.61 -0.1,-1.16 -0.24,-1.64 -0.15,-0.53 -0.33,-0.85 -0.55,-0.98zm-1.73 -0.52c0.11,-0.02 0.21,-0.05 0.3,-0.08 0.1,-0.04 0.19,-0.1 0.26,-0.17 0.02,-0.02 0.03,-0.04 0.05,-0.06l0.05 -0.06 0.03 -0.03c0.01,-0.01 0.02,-0.02 0.03,-0.03 0.01,-0.01 0.03,-0.01 0.04,-0.01l0.02 -0 0.02 -0 -0.02 0 -0.02 0.01c-0.01,0.01 -0.02,0.01 -0.03,0.02 -0.01,0.01 -0.02,0.02 -0.03,0.03l-0.02 0.04c-0.04,0.06 -0.07,0.11 -0.1,0.14 -0.03,0.04 -0.07,0.08 -0.12,0.11 -0.04,0.03 -0.09,0.05 -0.15,0.08 -0.1,0.04 -0.2,0.07 -0.31,0.07l-0.08 0 -0.08 -0c-0.07,0 -0.12,0.01 -0.15,0.03 0.02,-0.02 0.04,-0.04 0.07,-0.04l0.04 -0.01 0.04 -0.01 0.16 -0.02zm1.19 -0.29c-0.01,-0.15 -0.06,-0.27 -0.16,-0.35 -0.1,-0.08 -0.21,-0.1 -0.33,-0.07 -0.08,0.02 -0.15,0.08 -0.21,0.16l-0.04 0.05c-0.01,0.02 -0.03,0.04 -0.04,0.05 -0.03,0.04 -0.07,0.07 -0.11,0.1 -0.07,0.04 -0.14,0.07 -0.21,0.08 -0.03,0.01 -0.06,0.01 -0.1,0.01l-0.05 0.01 -0.05 0c-0.15,0.01 -0.26,0.05 -0.33,0.1 -0.07,0.06 -0.11,0.14 -0.12,0.24 -0,0.09 0.02,0.17 0.07,0.25 0.08,0.13 0.21,0.22 0.4,0.25 0.18,0.03 0.37,0.02 0.58,-0.04 0.21,-0.07 0.38,-0.17 0.51,-0.31 0.14,-0.16 0.21,-0.34 0.2,-0.55zm5.15 0.86c-0.05,0.04 -0.1,0.09 -0.15,0.17 -0.07,0.1 -0.15,0.22 -0.25,0.39l-0.06 0.1 -0.06 0.1c-0.05,0.07 -0.1,0.14 -0.14,0.19 -0.06,0.06 -0.12,0.11 -0.18,0.14 -0.08,0.04 -0.15,0.06 -0.22,0.05 0.13,-0.02 0.25,-0.1 0.36,-0.23 0.04,-0.05 0.08,-0.11 0.13,-0.19l0.06 -0.1 0.06 -0.1c0.1,-0.17 0.19,-0.3 0.26,-0.39 0.06,-0.07 0.12,-0.12 0.17,-0.16 0.07,-0.04 0.14,-0.07 0.21,-0.06 -0.08,0.01 -0.14,0.04 -0.2,0.09zm-2.57 0.42c-0.07,0.11 -0.14,0.24 -0.21,0.4 -0.04,0.1 -0.09,0.25 -0.16,0.44 -0.02,0.07 -0.04,0.15 -0.07,0.23l-0.03 0.11 -0.03 0.11c0.04,-0.33 0.12,-0.64 0.23,-0.91 0.07,-0.17 0.15,-0.31 0.23,-0.41 0.05,-0.06 0.1,-0.11 0.17,-0.16 0.07,-0.04 0.14,-0.07 0.21,-0.06 -0.12,0.02 -0.23,0.1 -0.34,0.25zm3.98 1.56c-0.05,-0.69 -0.19,-1.26 -0.41,-1.69 -0.21,-0.41 -0.44,-0.62 -0.71,-0.65 -0.2,-0.02 -0.37,0.04 -0.52,0.19 -0.12,0.11 -0.27,0.33 -0.45,0.65 -0.15,0.28 -0.29,0.4 -0.41,0.38 -0.08,-0.01 -0.18,-0.12 -0.31,-0.31 -0.14,-0.22 -0.28,-0.38 -0.41,-0.49 -0.16,-0.13 -0.33,-0.19 -0.49,-0.17 -0.45,0.07 -0.78,0.65 -1.01,1.75 -0.15,0.71 -0.19,1.34 -0.14,1.89 0.06,0.63 0.26,0.98 0.57,1.04 0.19,0.03 0.34,-0.02 0.48,-0.17 0.1,-0.11 0.19,-0.29 0.28,-0.53 0.03,-0.08 0.06,-0.18 0.09,-0.3l0.02 -0.07 0.02 -0.07c0.01,-0.05 0.03,-0.1 0.04,-0.13 0.06,-0.19 0.12,-0.29 0.17,-0.32 0.04,-0.02 0.08,0.02 0.12,0.1 0.01,0.03 0.03,0.07 0.06,0.14l0.01 0.04 0.02 0.04 0.03 0.08c0.06,0.14 0.12,0.24 0.19,0.32 0.09,0.1 0.2,0.14 0.32,0.14 0.09,-0 0.18,-0.04 0.26,-0.13 0.05,-0.05 0.11,-0.14 0.18,-0.26l0.04 -0.07 0.04 -0.06c0.03,-0.05 0.05,-0.09 0.07,-0.11 0.05,-0.07 0.1,-0.09 0.16,-0.07 0.05,0.02 0.11,0.11 0.17,0.27 0.01,0.03 0.03,0.07 0.04,0.11l0.02 0.06 0.02 0.06c0.04,0.11 0.07,0.2 0.1,0.27 0.09,0.21 0.18,0.37 0.27,0.48 0.13,0.14 0.27,0.21 0.44,0.21 0.29,-0 0.48,-0.26 0.58,-0.76 0.09,-0.44 0.1,-1.07 0.04,-1.88zm2.6 0.6c-0.04,0.04 -0.09,0.07 -0.13,0.08 -0.05,0.02 -0.1,0.02 -0.15,0.01 0.1,-0.03 0.18,-0.08 0.25,-0.14 0.06,-0.05 0.12,-0.13 0.18,-0.24 -0.01,0.11 -0.06,0.21 -0.15,0.29zm-0.35 -0.18c-0.05,-0.02 -0.08,-0.06 -0.1,-0.13 -0.02,-0.06 -0.02,-0.13 0,-0.2 0.02,-0.07 0.06,-0.13 0.11,-0.17 0.05,-0.04 0.1,-0.05 0.15,-0.03 0.05,0.02 0.09,0.06 0.11,0.12 0.02,0.06 0.02,0.13 -0.01,0.21 -0.02,0.07 -0.06,0.13 -0.11,0.17 -0.05,0.04 -0.1,0.05 -0.15,0.03zm-0.59 -1.86c-0.08,0.12 -0.17,0.29 -0.28,0.5 -0.04,0.07 -0.08,0.16 -0.12,0.26l-0.12 0.26c0.06,-0.17 0.12,-0.35 0.21,-0.54 0.08,-0.17 0.16,-0.34 0.27,-0.51 0.12,-0.19 0.23,-0.34 0.34,-0.46l0.05 -0.05c0.02,-0.02 0.03,-0.03 0.05,-0.05l0.05 -0.05 0.06 -0.04c0.1,-0.06 0.18,-0.09 0.26,-0.09 -0.07,0.01 -0.15,0.05 -0.24,0.12l-0.05 0.04 -0.05 0.05c-0.01,0.01 -0.03,0.03 -0.05,0.05l-0.04 0.05c-0.1,0.13 -0.21,0.28 -0.32,0.46zm0.81 -1.04c-0.28,-0.03 -0.58,0.19 -0.91,0.66 -0.3,0.43 -0.55,0.98 -0.78,1.64 -0.22,0.66 -0.34,1.24 -0.36,1.74 -0.02,0.55 0.09,0.87 0.34,0.96 0.18,0.07 0.36,0.06 0.53,-0.03 0.13,-0.07 0.26,-0.18 0.39,-0.36 0.03,-0.03 0.06,-0.07 0.09,-0.11l0.08 -0.11c0.07,-0.09 0.12,-0.16 0.15,-0.2 0.11,-0.13 0.2,-0.2 0.28,-0.21 0.08,-0 0.18,0.05 0.3,0.17 0.04,0.04 0.09,0.09 0.17,0.18l0.09 0.09 0.09 0.1c0.15,0.15 0.29,0.25 0.41,0.3 0.16,0.07 0.31,0.06 0.47,-0.03 0.18,-0.1 0.27,-0.4 0.28,-0.9 0,-0.47 -0.07,-1 -0.21,-1.6 -0.15,-0.62 -0.34,-1.14 -0.57,-1.55 -0.26,-0.47 -0.54,-0.72 -0.82,-0.76zm2.92 0.19c-0.15,0.03 -0.27,0.06 -0.36,0.1 -0.14,0.05 -0.25,0.1 -0.33,0.17 -0.06,0.05 -0.1,0.09 -0.13,0.13 -0.03,0.05 -0.05,0.11 -0.05,0.19 -0.02,-0.07 -0.01,-0.14 0.02,-0.21 0.03,-0.05 0.07,-0.11 0.13,-0.16 0.08,-0.07 0.2,-0.13 0.34,-0.19 0.24,-0.08 0.49,-0.11 0.76,-0.09 -0.14,0.02 -0.26,0.04 -0.37,0.06zm0.6 -0.34c-0.52,-0.01 -0.95,0.07 -1.27,0.24 -0.34,0.18 -0.49,0.42 -0.45,0.72 0.02,0.17 0.09,0.29 0.21,0.36 0.09,0.05 0.22,0.08 0.39,0.1l0.11 0.01 0.1 0.01c0.08,0 0.15,0.01 0.19,0.02 0.13,0.02 0.22,0.08 0.25,0.16 0.02,0.05 0.01,0.35 -0.02,0.91 -0.02,0.28 -0.03,0.52 -0.03,0.72 -0,0.28 0.01,0.53 0.04,0.74 0.04,0.31 0.15,0.57 0.33,0.75 0.19,0.2 0.41,0.28 0.66,0.23 0.46,-0.09 0.6,-0.59 0.44,-1.51 -0.09,-0.49 -0.14,-0.9 -0.15,-1.25 -0.02,-0.37 0,-0.59 0.07,-0.65 0.05,-0.04 0.13,-0.07 0.25,-0.08 0.04,-0 0.09,-0 0.17,-0.01l0.09 0 0.09 -0.01c0.14,-0.01 0.25,-0.04 0.32,-0.08 0.1,-0.06 0.17,-0.15 0.2,-0.28 0.04,-0.16 0.01,-0.31 -0.08,-0.45 -0.09,-0.13 -0.23,-0.24 -0.42,-0.35 -0.39,-0.2 -0.88,-0.31 -1.48,-0.32z"/>
   <path class="fil0" d="M27.97 11.62c-0.04,0.07 -0.09,0.12 -0.15,0.15 -0.06,0.03 -0.13,0.05 -0.19,0.04 0.13,-0.03 0.23,-0.1 0.29,-0.22 0.03,-0.05 0.05,-0.11 0.06,-0.18 0.01,-0.06 0.01,-0.13 0.01,-0.21 0.03,0.07 0.04,0.14 0.04,0.21 -0,0.08 -0.02,0.15 -0.06,0.21zm-0.58 -0.25c-0.03,-0.07 -0.05,-0.13 -0.04,-0.2 0.01,-0.07 0.03,-0.12 0.07,-0.14 0.05,-0.03 0.1,-0.02 0.15,0 0.06,0.03 0.1,0.07 0.14,0.14 0.04,0.07 0.05,0.14 0.04,0.2 -0.01,0.06 -0.03,0.11 -0.08,0.14 -0.04,0.03 -0.09,0.03 -0.15,-0 -0.06,-0.03 -0.1,-0.08 -0.14,-0.14zm-0.42 -2.88c-0.04,0.02 -0.08,0.05 -0.13,0.1 -0.07,0.07 -0.14,0.16 -0.21,0.26 -0.05,0.07 -0.11,0.17 -0.18,0.29 -0.02,0.04 -0.05,0.09 -0.08,0.15l-0.08 0.15c0.04,-0.13 0.08,-0.24 0.12,-0.33 0.05,-0.11 0.11,-0.22 0.17,-0.31 0.07,-0.11 0.15,-0.19 0.23,-0.26 0.11,-0.09 0.21,-0.13 0.31,-0.12 -0.05,0.01 -0.1,0.03 -0.15,0.06zm0.9 1.65c-0.11,-0.03 -0.18,-0.09 -0.22,-0.18 -0.03,-0.07 -0.03,-0.18 -0.02,-0.32 0,-0.03 0.01,-0.06 0.01,-0.1l0.01 -0.1c0.01,-0.09 0.02,-0.16 0.03,-0.21 0.02,-0.18 0.02,-0.34 -0,-0.47 -0.03,-0.19 -0.11,-0.35 -0.22,-0.46 -0.12,-0.11 -0.26,-0.16 -0.41,-0.13 -0.17,0.02 -0.34,0.12 -0.5,0.31 -0.19,0.2 -0.35,0.49 -0.49,0.87 -0.15,0.39 -0.24,0.8 -0.26,1.25 -0.03,0.46 0.01,0.88 0.12,1.26 0.12,0.42 0.31,0.73 0.57,0.96 0.29,0.25 0.65,0.36 1.08,0.34 0.41,-0.02 0.74,-0.17 1,-0.44 0.23,-0.25 0.37,-0.56 0.41,-0.92 0.03,-0.36 -0.04,-0.69 -0.22,-0.99 -0.2,-0.32 -0.49,-0.54 -0.88,-0.65zm6.33 1.28c-0.04,0.08 -0.09,0.14 -0.15,0.18 -0.07,0.04 -0.14,0.06 -0.21,0.05 0.07,-0.02 0.13,-0.05 0.19,-0.09 0.05,-0.04 0.09,-0.1 0.12,-0.17 0.03,-0.06 0.04,-0.13 0.05,-0.21 0.01,-0.07 0,-0.14 -0.01,-0.22 0.04,0.07 0.06,0.14 0.06,0.22 0,0.08 -0.01,0.16 -0.04,0.24zm-0.6 -0.23c-0.02,-0.07 -0.03,-0.14 -0.01,-0.2 0.02,-0.06 0.05,-0.11 0.1,-0.13 0.05,-0.02 0.1,-0.01 0.15,0.03 0.05,0.04 0.09,0.09 0.11,0.16 0.03,0.07 0.03,0.14 0.02,0.2 -0.02,0.06 -0.05,0.11 -0.1,0.13 -0.05,0.02 -0.1,0.01 -0.15,-0.03 -0.05,-0.04 -0.09,-0.09 -0.12,-0.16zm-1.24 -2.34c-0.08,0.15 -0.15,0.33 -0.21,0.56 -0.04,0.17 -0.08,0.37 -0.1,0.61 0,-0.1 0.01,-0.2 0.01,-0.31 0.01,-0.12 0.03,-0.22 0.05,-0.31 0.04,-0.22 0.11,-0.42 0.2,-0.59 0.05,-0.1 0.11,-0.18 0.18,-0.25 0.07,-0.07 0.15,-0.13 0.23,-0.19 0.09,-0.05 0.17,-0.1 0.26,-0.13 0.1,-0.03 0.2,-0.06 0.28,-0.06 -0.2,0.05 -0.37,0.13 -0.52,0.24 -0.17,0.12 -0.3,0.27 -0.39,0.42zm1.18 1.04c-0.13,-0 -0.21,-0.07 -0.23,-0.2 -0.01,-0.06 -0.01,-0.11 0,-0.16 0.02,-0.06 0.04,-0.1 0.08,-0.14 0.09,-0.08 0.21,-0.14 0.37,-0.17 0.06,-0.01 0.13,-0.03 0.21,-0.04l0.11 -0.02 0.11 -0.02c0.16,-0.03 0.28,-0.06 0.36,-0.11 0.1,-0.06 0.16,-0.16 0.17,-0.3 0.01,-0.2 -0.06,-0.37 -0.23,-0.53 -0.16,-0.14 -0.37,-0.24 -0.63,-0.29 -0.27,-0.05 -0.54,-0.03 -0.8,0.04 -0.29,0.09 -0.54,0.24 -0.74,0.47 -0.19,0.21 -0.33,0.51 -0.41,0.91 -0.08,0.38 -0.11,0.79 -0.08,1.22 0.03,0.45 0.12,0.85 0.27,1.2 0.16,0.38 0.37,0.66 0.64,0.84 0.23,0.15 0.47,0.24 0.73,0.28 0.25,0.03 0.49,0 0.71,-0.08 0.23,-0.09 0.42,-0.22 0.57,-0.41 0.16,-0.2 0.27,-0.43 0.32,-0.71 0.04,-0.2 0.04,-0.41 0,-0.6 -0.04,-0.21 -0.11,-0.4 -0.23,-0.57 -0.27,-0.39 -0.7,-0.6 -1.29,-0.62zm4.71 -1.82c-0.04,0.04 -0.08,0.1 -0.12,0.17 -0.06,0.1 -0.13,0.22 -0.2,0.37l-0.05 0.09 -0.05 0.1c-0.04,0.07 -0.07,0.14 -0.1,0.19 -0.05,0.07 -0.09,0.13 -0.13,0.17 -0.06,0.06 -0.12,0.09 -0.18,0.11 0.06,-0.03 0.11,-0.07 0.15,-0.13 0.03,-0.04 0.07,-0.1 0.11,-0.18 0.02,-0.04 0.05,-0.11 0.09,-0.19l0.1 -0.19c0.08,-0.16 0.15,-0.28 0.22,-0.37 0.05,-0.07 0.1,-0.12 0.14,-0.16 0.07,-0.06 0.13,-0.09 0.18,-0.08 -0.06,0.01 -0.11,0.05 -0.16,0.11zm-1.94 3.22c-0.05,0.04 -0.09,0.08 -0.12,0.11 -0.1,0.08 -0.17,0.16 -0.22,0.24 -0.03,0.05 -0.05,0.1 -0.07,0.15 -0.02,0.04 -0.03,0.1 -0.04,0.17 -0,-0.06 -0,-0.12 0.01,-0.18 0.01,-0.06 0.04,-0.11 0.06,-0.17 0.05,-0.08 0.12,-0.17 0.22,-0.26 0.07,-0.06 0.16,-0.13 0.26,-0.2l0.07 -0.05 0.07 -0.05c0.05,-0.04 0.1,-0.07 0.13,-0.1 -0.06,0.07 -0.13,0.15 -0.24,0.24l-0.13 0.1zm-0.66 -2.81c-0.03,0.05 -0.05,0.1 -0.06,0.17 -0.01,0.06 -0.02,0.12 -0.02,0.19 -0.03,-0.06 -0.04,-0.13 -0.03,-0.2 0,-0.07 0.02,-0.14 0.06,-0.2 0.04,-0.06 0.09,-0.11 0.15,-0.14 0.06,-0.03 0.12,-0.04 0.19,-0.03 -0.12,0.03 -0.22,0.1 -0.28,0.21zm2.75 -0.79c-0.13,0.01 -0.25,0.08 -0.38,0.21 -0.09,0.1 -0.19,0.25 -0.29,0.45l-0.06 0.12 -0.03 0.06 -0.03 0.06c-0.05,0.1 -0.08,0.16 -0.11,0.21 -0.08,0.14 -0.14,0.21 -0.18,0.21 -0.05,0 -0.15,-0.09 -0.32,-0.26l-0.03 -0.03 -0.03 -0.03c-0.02,-0.02 -0.04,-0.05 -0.06,-0.06 -0.05,-0.05 -0.09,-0.1 -0.13,-0.14 -0.11,-0.11 -0.22,-0.21 -0.32,-0.29 -0.17,-0.13 -0.34,-0.2 -0.51,-0.19 -0.16,0.01 -0.29,0.07 -0.41,0.19 -0.11,0.12 -0.18,0.26 -0.2,0.44 -0.02,0.18 0.02,0.37 0.13,0.55 0.08,0.13 0.18,0.26 0.32,0.4 0.05,0.05 0.12,0.11 0.19,0.18l0.09 0.08 0.09 0.08c0.15,0.13 0.26,0.23 0.32,0.3 0.09,0.1 0.14,0.2 0.15,0.28 0.01,0.09 -0.04,0.18 -0.14,0.28 -0.04,0.04 -0.09,0.08 -0.16,0.14l-0.04 0.03 -0.05 0.04 -0.1 0.07c-0.16,0.13 -0.28,0.25 -0.35,0.36 -0.11,0.16 -0.16,0.34 -0.16,0.53 0,0.15 0.03,0.28 0.09,0.41 0.06,0.12 0.15,0.22 0.26,0.29 0.25,0.16 0.55,0.18 0.9,0.05 0.47,-0.18 0.93,-0.64 1.37,-1.4 0.4,-0.68 0.64,-1.31 0.74,-1.91 0.1,-0.62 0.08,-1.06 -0.04,-1.35 -0.1,-0.24 -0.28,-0.36 -0.52,-0.34zm3.08 0.97c-0.08,0.12 -0.16,0.22 -0.24,0.31 -0.1,0.11 -0.2,0.18 -0.3,0.23 0.08,-0.06 0.17,-0.15 0.27,-0.27 0.08,-0.09 0.15,-0.2 0.23,-0.31 0.04,-0.06 0.07,-0.11 0.1,-0.16l0.03 -0.04 0.02 -0.04c0.02,-0.04 0.04,-0.06 0.05,-0.09 0.04,-0.06 0.09,-0.1 0.15,-0.13 0.06,-0.04 0.12,-0.05 0.18,-0.05 -0.11,0.01 -0.21,0.08 -0.29,0.21 -0.01,0.02 -0.03,0.05 -0.05,0.08l-0.02 0.04 -0.02 0.04c-0.03,0.05 -0.06,0.1 -0.11,0.17zm-1.3 -0.71c-0.04,0.03 -0.08,0.08 -0.12,0.13 -0.05,0.08 -0.1,0.18 -0.15,0.32 -0.03,0.08 -0.06,0.2 -0.1,0.35l-0.04 0.18 -0.04 0.18c0,-0.14 0.02,-0.27 0.04,-0.37 0.02,-0.13 0.05,-0.25 0.09,-0.36 0.05,-0.14 0.11,-0.25 0.17,-0.33 0.04,-0.05 0.09,-0.09 0.14,-0.12 0.06,-0.03 0.11,-0.05 0.17,-0.04 -0.06,0.01 -0.11,0.04 -0.15,0.07zm1.53 1.96c-0.09,-0.05 -0.11,-0.09 -0.07,-0.14 0.02,-0.02 0.05,-0.04 0.1,-0.07l0.03 -0.02 0.04 -0.02c0.04,-0.02 0.06,-0.03 0.08,-0.05 0.16,-0.09 0.28,-0.19 0.38,-0.29 0.14,-0.15 0.24,-0.33 0.29,-0.54 0.05,-0.19 0.04,-0.37 -0.03,-0.54 -0.06,-0.15 -0.16,-0.27 -0.3,-0.34 -0.14,-0.07 -0.28,-0.08 -0.43,-0.03 -0.16,0.06 -0.3,0.18 -0.4,0.37 -0.18,0.33 -0.36,0.56 -0.53,0.68 -0.07,0.05 -0.12,0.07 -0.14,0.05 -0.03,-0.02 -0.02,-0.08 0.01,-0.17 0.14,-0.36 0.18,-0.64 0.11,-0.86 -0.06,-0.18 -0.18,-0.29 -0.35,-0.33 -0.37,-0.08 -0.64,0.13 -0.82,0.62 -0.15,0.4 -0.23,0.97 -0.24,1.72 -0.02,0.75 0.04,1.36 0.17,1.81 0.16,0.55 0.4,0.81 0.75,0.78 0.31,-0.02 0.49,-0.28 0.52,-0.78 0.01,-0.17 0,-0.35 -0.02,-0.56 -0.01,-0.07 -0.02,-0.14 -0.03,-0.21 -0,-0.03 -0.01,-0.06 -0.01,-0.08l-0 -0.03 -0 -0.01 -0 -0.01c-0.01,-0.06 -0.01,-0.11 0.02,-0.13 0.03,-0.02 0.06,-0.02 0.11,0.02 0.12,0.1 0.24,0.37 0.36,0.79 0.08,0.27 0.18,0.49 0.32,0.66 0.12,0.15 0.26,0.25 0.41,0.3 0.14,0.04 0.28,0.03 0.42,-0.02 0.13,-0.06 0.25,-0.17 0.33,-0.32 0.1,-0.17 0.14,-0.36 0.14,-0.58 -0,-0.2 -0.05,-0.41 -0.15,-0.62 -0.21,-0.44 -0.56,-0.8 -1.04,-1.06zm3.8 0.9c-0.03,0.08 -0.08,0.14 -0.15,0.18 -0.07,0.04 -0.14,0.06 -0.21,0.05 0.07,-0.02 0.13,-0.05 0.18,-0.09 0.05,-0.05 0.09,-0.1 0.12,-0.17 0.05,-0.12 0.05,-0.27 0.01,-0.44 0.04,0.07 0.07,0.14 0.07,0.22 0.01,0.08 -0,0.16 -0.03,0.24zm-0.6 -0.19c-0.04,-0.07 -0.05,-0.13 -0.05,-0.2 0,-0.07 0.03,-0.12 0.07,-0.15 0.04,-0.03 0.09,-0.03 0.15,-0.01 0.06,0.03 0.11,0.07 0.15,0.14 0.04,0.07 0.05,0.13 0.05,0.2 -0,0.07 -0.03,0.12 -0.07,0.15 -0.04,0.03 -0.09,0.03 -0.15,0.01 -0.06,-0.03 -0.11,-0.07 -0.15,-0.14zm-0.34 -1.44c0.05,-0.02 0.1,-0.04 0.14,-0.07 0.04,-0.03 0.08,-0.07 0.11,-0.1 0.03,-0.04 0.06,-0.08 0.09,-0.13 0.02,-0.04 0.04,-0.1 0.06,-0.15 0.02,0.12 -0.02,0.23 -0.1,0.33 -0.04,0.05 -0.09,0.08 -0.14,0.1 -0.06,0.03 -0.11,0.03 -0.16,0.02zm-0.09 -0.5c0.02,-0.05 0.05,-0.08 0.09,-0.1 0.04,-0.02 0.07,-0.02 0.1,-0 0.03,0.02 0.05,0.05 0.05,0.09 0.01,0.04 -0,0.09 -0.02,0.13 -0.02,0.05 -0.05,0.08 -0.09,0.1 -0.04,0.02 -0.07,0.02 -0.1,0 -0.03,-0.02 -0.05,-0.05 -0.05,-0.09 -0.01,-0.04 0,-0.09 0.02,-0.13zm-0.57 -0.6c-0.05,0.06 -0.1,0.13 -0.15,0.22 -0.08,0.14 -0.14,0.3 -0.2,0.49 -0.05,0.15 -0.09,0.33 -0.13,0.53 0.01,-0.18 0.04,-0.36 0.08,-0.55 0.05,-0.19 0.11,-0.36 0.2,-0.52 0.1,-0.18 0.22,-0.31 0.35,-0.41 0.08,-0.06 0.16,-0.1 0.24,-0.12 0.09,-0.03 0.17,-0.04 0.25,-0.04 -0.18,0.02 -0.33,0.09 -0.46,0.2 -0.07,0.05 -0.13,0.11 -0.18,0.18zm1.44 1.27c-0.04,-0.01 -0.05,-0.05 -0.03,-0.11 0.01,-0.02 0.02,-0.06 0.04,-0.1l0.02 -0.03 0.02 -0.03c0.01,-0.03 0.02,-0.05 0.03,-0.07 0.05,-0.13 0.09,-0.25 0.11,-0.37 0.03,-0.17 0.02,-0.34 -0.01,-0.51 -0.04,-0.19 -0.15,-0.36 -0.33,-0.49 -0.18,-0.13 -0.39,-0.2 -0.62,-0.19 -0.25,0 -0.48,0.09 -0.69,0.26 -0.24,0.2 -0.42,0.49 -0.54,0.87 -0.13,0.4 -0.19,0.83 -0.18,1.29 0.01,0.47 0.08,0.9 0.23,1.29 0.16,0.42 0.38,0.75 0.67,0.97 0.32,0.24 0.7,0.34 1.13,0.29 0.41,-0.05 0.74,-0.21 0.97,-0.48 0.22,-0.25 0.33,-0.55 0.33,-0.91 0.01,-0.35 -0.09,-0.68 -0.28,-0.98 -0.21,-0.33 -0.5,-0.56 -0.87,-0.7zm3.62 1.39c-0.04,0.07 -0.09,0.12 -0.15,0.15 -0.06,0.03 -0.13,0.05 -0.19,0.04 0.13,-0.03 0.23,-0.1 0.29,-0.22 0.03,-0.05 0.05,-0.11 0.06,-0.18 0.01,-0.06 0.01,-0.13 0.01,-0.21 0.03,0.07 0.04,0.14 0.04,0.21 -0,0.08 -0.02,0.15 -0.06,0.21zm-0.58 -0.25c-0.03,-0.07 -0.05,-0.13 -0.04,-0.2 0.01,-0.07 0.03,-0.12 0.07,-0.14 0.05,-0.03 0.1,-0.02 0.15,0 0.06,0.03 0.1,0.07 0.14,0.14 0.04,0.07 0.05,0.14 0.04,0.2 -0.01,0.06 -0.03,0.11 -0.08,0.14 -0.04,0.03 -0.09,0.03 -0.15,-0 -0.06,-0.03 -0.1,-0.08 -0.14,-0.15zm-0.42 -2.88c-0.04,0.02 -0.08,0.06 -0.13,0.1 -0.07,0.07 -0.14,0.16 -0.21,0.26 -0.05,0.07 -0.11,0.17 -0.18,0.29 -0.02,0.04 -0.05,0.09 -0.08,0.15l-0.08 0.15c0.04,-0.13 0.08,-0.24 0.12,-0.33 0.05,-0.11 0.11,-0.22 0.17,-0.31 0.07,-0.11 0.15,-0.19 0.23,-0.26 0.11,-0.09 0.21,-0.13 0.31,-0.12 -0.05,0.01 -0.1,0.03 -0.15,0.06zm0.9 1.65c-0.11,-0.03 -0.18,-0.09 -0.22,-0.18 -0.03,-0.07 -0.03,-0.18 -0.02,-0.32 0,-0.03 0.01,-0.06 0.01,-0.1l0.01 -0.1c0.01,-0.09 0.02,-0.16 0.03,-0.22 0.02,-0.18 0.02,-0.34 -0,-0.47 -0.03,-0.19 -0.11,-0.35 -0.22,-0.46 -0.12,-0.11 -0.26,-0.16 -0.41,-0.13 -0.17,0.02 -0.34,0.12 -0.5,0.31 -0.19,0.2 -0.35,0.49 -0.49,0.87 -0.15,0.39 -0.24,0.8 -0.26,1.25 -0.03,0.46 0.01,0.88 0.12,1.26 0.12,0.41 0.31,0.73 0.57,0.96 0.29,0.25 0.65,0.36 1.08,0.34 0.41,-0.02 0.74,-0.17 1,-0.44 0.24,-0.25 0.37,-0.56 0.41,-0.92 0.03,-0.36 -0.04,-0.69 -0.22,-0.99 -0.2,-0.32 -0.49,-0.54 -0.88,-0.65zm1.27 -1.66c-0.03,0.04 -0.06,0.08 -0.07,0.14 -0.01,0.05 -0.02,0.1 -0.02,0.17 -0,0.09 0.01,0.2 0.04,0.34l0.04 0.17 0.04 0.17c-0.05,-0.12 -0.09,-0.23 -0.12,-0.33 -0.04,-0.13 -0.06,-0.25 -0.06,-0.36 0,-0.07 0.01,-0.13 0.03,-0.18 0.02,-0.07 0.06,-0.12 0.1,-0.16 0.08,-0.08 0.19,-0.11 0.31,-0.1 -0.12,0.02 -0.21,0.07 -0.28,0.14zm1.13 0.15c-0.1,-0.18 -0.22,-0.32 -0.37,-0.42 -0.13,-0.09 -0.28,-0.13 -0.43,-0.14 -0.14,-0.01 -0.27,0.03 -0.39,0.09 -0.12,0.07 -0.2,0.16 -0.25,0.28 -0.09,0.22 -0.08,0.54 0.05,0.96 0.02,0.07 0.04,0.15 0.08,0.26l0.04 0.13 0.04 0.13c0.07,0.21 0.11,0.38 0.13,0.52 0.05,0.34 0.08,0.68 0.09,1.04 0,0.11 0,0.25 0,0.41l0 0.09 0 0.09c-0,0.07 -0,0.12 0,0.16 0,0.22 0.02,0.37 0.05,0.47 0.04,0.11 0.12,0.18 0.25,0.21 0.24,0.05 0.44,-0.09 0.61,-0.43 0.15,-0.3 0.27,-0.71 0.33,-1.22 0.06,-0.5 0.08,-0.99 0.04,-1.47 -0.04,-0.51 -0.14,-0.9 -0.28,-1.16zm-14.66 -7.1c-0.05,0.04 -0.1,0.09 -0.15,0.17 -0.07,0.09 -0.15,0.22 -0.25,0.39l-0.06 0.1 -0.06 0.1c-0.05,0.07 -0.1,0.14 -0.14,0.19 -0.06,0.06 -0.12,0.11 -0.18,0.14 -0.08,0.04 -0.15,0.05 -0.22,0.05 0.13,-0.02 0.25,-0.1 0.36,-0.23 0.04,-0.05 0.08,-0.11 0.13,-0.19l0.06 -0.1 0.06 -0.1c0.1,-0.17 0.19,-0.3 0.26,-0.39 0.06,-0.07 0.12,-0.12 0.17,-0.16 0.07,-0.04 0.14,-0.07 0.21,-0.06 -0.08,0.01 -0.14,0.04 -0.2,0.09zm-2.57 0.42c-0.07,0.11 -0.14,0.24 -0.21,0.4 -0.04,0.1 -0.09,0.24 -0.16,0.44 -0.02,0.07 -0.04,0.15 -0.07,0.23l-0.03 0.11 -0.03 0.11c0.04,-0.33 0.12,-0.63 0.23,-0.91 0.07,-0.17 0.15,-0.31 0.23,-0.41 0.05,-0.06 0.1,-0.11 0.17,-0.16 0.07,-0.04 0.14,-0.07 0.21,-0.06 -0.12,0.02 -0.23,0.1 -0.34,0.26zm3.98 1.56c-0.05,-0.69 -0.19,-1.26 -0.41,-1.69 -0.21,-0.41 -0.44,-0.62 -0.71,-0.65 -0.2,-0.02 -0.37,0.04 -0.52,0.19 -0.12,0.11 -0.27,0.33 -0.45,0.65 -0.15,0.28 -0.29,0.4 -0.41,0.38 -0.08,-0.01 -0.18,-0.12 -0.31,-0.31 -0.14,-0.22 -0.28,-0.38 -0.41,-0.49 -0.16,-0.13 -0.33,-0.19 -0.49,-0.17 -0.45,0.07 -0.78,0.65 -1.01,1.75 -0.15,0.71 -0.19,1.34 -0.14,1.89 0.06,0.63 0.26,0.98 0.57,1.04 0.19,0.03 0.34,-0.02 0.48,-0.17 0.1,-0.11 0.19,-0.29 0.28,-0.53 0.03,-0.08 0.06,-0.18 0.09,-0.3l0.02 -0.07 0.02 -0.07c0.01,-0.05 0.03,-0.1 0.04,-0.13 0.06,-0.19 0.12,-0.29 0.17,-0.31 0.04,-0.02 0.08,0.02 0.12,0.1 0.01,0.03 0.03,0.07 0.06,0.14l0.01 0.04 0.02 0.04 0.03 0.08c0.06,0.14 0.12,0.24 0.19,0.32 0.09,0.1 0.2,0.14 0.32,0.14 0.09,-0 0.18,-0.04 0.26,-0.13 0.05,-0.05 0.11,-0.14 0.18,-0.26l0.04 -0.07 0.04 -0.06c0.03,-0.05 0.05,-0.09 0.07,-0.11 0.05,-0.07 0.1,-0.09 0.16,-0.07 0.05,0.02 0.11,0.11 0.17,0.27 0.01,0.03 0.02,0.07 0.04,0.11l0.02 0.06 0.02 0.06c0.04,0.11 0.07,0.2 0.1,0.27 0.09,0.21 0.18,0.37 0.27,0.48 0.13,0.14 0.27,0.21 0.44,0.21 0.29,-0 0.48,-0.26 0.58,-0.76 0.09,-0.44 0.1,-1.07 0.04,-1.88zm3.06 -2.17c-0.03,0.01 -0.06,0.04 -0.08,0.08 -0.03,0.05 -0.06,0.13 -0.07,0.23 -0.02,0.13 -0.02,0.3 -0.01,0.5l0 0.06 0 0.06c0,0.05 0.01,0.1 0,0.13 -0,0.1 -0.02,0.18 -0.05,0.26 -0.03,0.08 -0.07,0.16 -0.13,0.22 -0.06,0.06 -0.13,0.11 -0.2,0.13 0.14,-0.08 0.24,-0.2 0.29,-0.37 0.02,-0.08 0.03,-0.16 0.03,-0.24 0,-0.03 0,-0.07 -0,-0.12l-0.01 -0.06 -0 -0.07c-0.01,-0.21 -0,-0.38 0.02,-0.51 0.02,-0.11 0.06,-0.19 0.1,-0.24 0.03,-0.04 0.06,-0.06 0.1,-0.07 0.03,-0.01 0.07,-0.02 0.12,-0.02 -0.05,0.01 -0.08,0.02 -0.11,0.04zm-2.16 0.18c-0.07,0.09 -0.12,0.2 -0.16,0.32 -0.03,0.11 -0.06,0.23 -0.08,0.37l-0.03 0.19 -0.03 0.19c-0.01,-0.26 0.03,-0.52 0.09,-0.77 0.04,-0.14 0.1,-0.26 0.18,-0.34 0.04,-0.05 0.1,-0.09 0.15,-0.11 0.06,-0.03 0.12,-0.04 0.18,-0.03 -0.11,0.02 -0.21,0.08 -0.29,0.18zm2.25 -0.48c-0.22,0.02 -0.37,0.14 -0.45,0.34 -0.08,0.2 -0.11,0.5 -0.07,0.9 0.01,0.18 -0.02,0.31 -0.09,0.4 -0.06,0.08 -0.14,0.12 -0.25,0.11 -0.11,-0.01 -0.19,-0.05 -0.24,-0.14 -0.06,-0.09 -0.08,-0.21 -0.08,-0.35 0.02,-0.41 -0.03,-0.72 -0.15,-0.92 -0.11,-0.18 -0.29,-0.28 -0.53,-0.31 -0.19,-0.02 -0.37,0.03 -0.51,0.17 -0.14,0.13 -0.25,0.31 -0.31,0.54 -0.12,0.44 -0.17,0.96 -0.15,1.55 0.02,0.57 0.09,1.11 0.23,1.63 0.1,0.38 0.25,0.65 0.44,0.81 0.16,0.13 0.33,0.18 0.51,0.14 0.41,-0.08 0.58,-0.42 0.51,-1 -0.05,-0.43 0.03,-0.65 0.22,-0.66 0.1,-0 0.17,0.03 0.23,0.11 0.07,0.1 0.11,0.27 0.11,0.5 -0,0.39 0.07,0.68 0.21,0.87 0.13,0.18 0.3,0.27 0.53,0.26 0.38,-0.02 0.63,-0.28 0.76,-0.8 0.1,-0.38 0.14,-1 0.13,-1.86 -0.01,-0.66 -0.11,-1.21 -0.3,-1.65 -0.2,-0.45 -0.45,-0.67 -0.76,-0.64zm3.59 3.36l-0.05 0.02c-0.04,0.02 -0.07,0.03 -0.1,0.03 -0.07,0.02 -0.14,0.03 -0.21,0.02 0.07,-0.02 0.13,-0.04 0.19,-0.06l0.04 -0.02 0.04 -0.02c0.04,-0.02 0.07,-0.03 0.1,-0.04 0.07,-0.03 0.14,-0.05 0.2,-0.06 0.08,-0.01 0.14,-0.02 0.2,-0.01 -0.11,0.03 -0.24,0.07 -0.38,0.13l-0.05 0.02zm-1.06 -3.2c-0.1,0.03 -0.18,0.07 -0.26,0.13 -0.09,0.06 -0.16,0.13 -0.22,0.2 -0.06,0.07 -0.11,0.15 -0.16,0.25 -0.07,0.15 -0.13,0.35 -0.18,0.6 -0.02,0.1 -0.04,0.2 -0.05,0.31 -0.01,0.04 -0.01,0.1 -0.02,0.16l-0.02 0.16c-0.01,-0.22 0.01,-0.44 0.04,-0.64 0.04,-0.24 0.09,-0.44 0.17,-0.62 0.05,-0.11 0.11,-0.2 0.17,-0.27 0.08,-0.08 0.16,-0.14 0.24,-0.19 0.08,-0.05 0.18,-0.09 0.28,-0.11 0.1,-0.03 0.2,-0.04 0.29,-0.03 -0.11,0.01 -0.21,0.04 -0.29,0.06zm0.69 1.83l0.02 -0.01c0.02,-0.01 0.04,-0.01 0.05,-0.02 0.04,-0.01 0.08,-0.01 0.11,-0 0.04,0.01 0.08,0.03 0.1,0.06 -0.03,-0.01 -0.06,-0.01 -0.1,-0.01 -0.03,0 -0.07,0.01 -0.1,0.01l-0.03 0 -0.02 0c-0.02,0.01 -0.04,0.01 -0.05,0.01 -0.04,0 -0.08,0 -0.11,-0.01l0.05 -0.02 0.05 -0.02 0.02 -0.01zm0.19 1.12c-0.11,0.05 -0.2,0.06 -0.28,0.03 -0.07,-0.02 -0.11,-0.07 -0.13,-0.14 -0.02,-0.07 -0.02,-0.13 0.02,-0.19 0.03,-0.06 0.09,-0.1 0.17,-0.12 0.23,-0.03 0.39,-0.11 0.5,-0.22 0.1,-0.1 0.14,-0.23 0.13,-0.39 -0.01,-0.14 -0.08,-0.25 -0.2,-0.31 -0.12,-0.07 -0.27,-0.07 -0.43,-0.02 -0.14,0.05 -0.23,0.01 -0.28,-0.11 -0.02,-0.05 -0.02,-0.1 -0.01,-0.16 0.01,-0.06 0.04,-0.1 0.08,-0.14 0.06,-0.05 0.15,-0.09 0.27,-0.11 0.04,-0.01 0.1,-0.02 0.17,-0.02l0.09 -0.01 0.09 -0.01c0.14,-0.02 0.25,-0.05 0.33,-0.08 0.11,-0.05 0.18,-0.13 0.22,-0.24 0.07,-0.19 0.03,-0.37 -0.12,-0.55 -0.14,-0.17 -0.33,-0.31 -0.59,-0.4 -0.27,-0.09 -0.54,-0.12 -0.81,-0.07 -0.3,0.05 -0.56,0.19 -0.76,0.42 -0.19,0.21 -0.33,0.54 -0.4,0.98 -0.07,0.41 -0.09,0.86 -0.05,1.34 0.04,0.48 0.13,0.91 0.26,1.28 0.14,0.4 0.32,0.67 0.53,0.8 0.2,0.13 0.45,0.19 0.74,0.17 0.26,-0.02 0.53,-0.1 0.79,-0.24 0.26,-0.13 0.47,-0.3 0.63,-0.49 0.17,-0.21 0.25,-0.41 0.24,-0.61 -0.01,-0.27 -0.11,-0.44 -0.31,-0.51 -0.21,-0.08 -0.49,-0.03 -0.85,0.13z"/>
  </g>
 </g>
</svg>
