<?xml version="1.0" encoding="UTF-8"?>
<!DOCTYPE svg PUBLIC "-//W3C//DTD SVG 1.1//EN" "http://www.w3.org/Graphics/SVG/1.1/DTD/svg11.dtd">
<!-- Creator: CorelDRAW 2019 (64-Bit) -->
<svg xmlns="http://www.w3.org/2000/svg" xml:space="preserve" width="28.9344mm" height="9.2858mm" version="1.1" style="shape-rendering:geometricPrecision; text-rendering:geometricPrecision; image-rendering:optimizeQuality; fill-rule:evenodd; clip-rule:evenodd"
viewBox="0 0 53.11 17.04"
 xmlns:xlink="http://www.w3.org/1999/xlink"
 xmlns:xodm="http://www.corel.com/coreldraw/odm/2003">
 <defs>
  <style type="text/css">
   <![CDATA[
    .fil0 {fill:#C4A655;fill-rule:nonzero}
    .fil1 {fill:white;fill-rule:nonzero}
   ]]>
  </style>
 </defs>
 <g id="Слой_x0020_1">
  <metadata id="CorelCorpID_0Corel-Layer"/>
  <path class="fil0" d="M3.55 6.4c-0.03,0 -0.07,0 -0.13,0.01l-0.07 0.01 -0.07 0c0.08,-0.06 0.17,-0.1 0.27,-0.1 0.05,0 0.1,0.01 0.14,0.02 0.05,0.02 0.09,0.05 0.11,0.09 -0.09,-0.03 -0.18,-0.04 -0.26,-0.04zm-2.22 -1.37c-0.06,0.07 -0.11,0.13 -0.16,0.19 -0.12,0.15 -0.21,0.28 -0.28,0.41 -0.09,0.15 -0.15,0.3 -0.19,0.46 -0.04,0.16 -0.06,0.33 -0.05,0.51l-0.02 -0.13 -0 -0.06 0 -0.07 0 -0.06 0 -0.07 0.01 -0.06 0.01 -0.07c0.03,-0.17 0.09,-0.33 0.18,-0.49 0.08,-0.15 0.19,-0.29 0.3,-0.41 0.06,-0.06 0.12,-0.12 0.18,-0.18l0.1 -0.08c0.04,-0.03 0.07,-0.05 0.1,-0.07l-0.09 0.09 -0.09 0.09zm0.39 -2.71c-0.07,0.03 -0.15,0.07 -0.21,0.11 -0.15,0.08 -0.28,0.18 -0.39,0.28 -0.12,0.1 -0.24,0.22 -0.34,0.36 -0.05,0.07 -0.1,0.14 -0.13,0.21 -0.04,0.08 -0.07,0.16 -0.08,0.24 -0.01,-0.15 0.05,-0.31 0.16,-0.49 0.09,-0.14 0.2,-0.27 0.34,-0.39 0.14,-0.12 0.28,-0.21 0.42,-0.27 0.08,-0.04 0.15,-0.07 0.23,-0.09 0.09,-0.03 0.17,-0.05 0.24,-0.05l-0.11 0.04c-0.05,0.02 -0.08,0.03 -0.11,0.05zm1.45 3.79c-0.22,0.09 -0.42,0.13 -0.6,0.11 -0.15,-0.01 -0.25,-0.05 -0.28,-0.11 -0.01,-0.03 -0.02,-0.06 -0.02,-0.1 -0,-0.05 0.01,-0.1 0.03,-0.15 0.06,-0.14 0.21,-0.29 0.45,-0.45 0.31,-0.2 0.57,-0.46 0.78,-0.78 0.2,-0.31 0.33,-0.62 0.39,-0.95 0.06,-0.34 0.04,-0.65 -0.07,-0.93 -0.12,-0.3 -0.33,-0.53 -0.63,-0.69 -0.36,-0.19 -0.74,-0.26 -1.14,-0.2 -0.35,0.05 -0.69,0.19 -1.01,0.42 -0.3,0.22 -0.52,0.46 -0.67,0.74 -0.15,0.28 -0.18,0.53 -0.1,0.75 0.08,0.21 0.23,0.33 0.45,0.37 0.23,0.04 0.51,-0.03 0.83,-0.19 0.18,-0.09 0.31,-0.14 0.38,-0.16 0.07,-0.01 0.13,-0 0.16,0.04 0.08,0.09 -0.02,0.22 -0.29,0.39 -0.51,0.32 -0.89,0.67 -1.15,1.06 -0.32,0.49 -0.42,1.01 -0.3,1.56 0.09,0.39 0.34,0.67 0.76,0.86 0.34,0.15 0.77,0.22 1.29,0.22 0.52,0 0.95,-0.07 1.28,-0.23 0.34,-0.16 0.54,-0.38 0.59,-0.67 0.03,-0.14 0.02,-0.28 -0.02,-0.42 -0.04,-0.14 -0.11,-0.27 -0.21,-0.37 -0.11,-0.11 -0.23,-0.17 -0.37,-0.2 -0.16,-0.03 -0.34,-0 -0.52,0.08z"/>
  <path id="1" class="fil0" d="M7.22 5.9c-0.04,0.1 -0.1,0.17 -0.17,0.23 -0.08,0.07 -0.16,0.1 -0.24,0.11 0.15,-0.08 0.26,-0.21 0.34,-0.38 0.06,-0.13 0.11,-0.3 0.13,-0.52 0.04,0.19 0.02,0.38 -0.06,0.56zm-0.5 0.02c-0.1,0.03 -0.19,0 -0.28,-0.09 -0.09,-0.09 -0.15,-0.22 -0.18,-0.38 -0.03,-0.16 -0.02,-0.31 0.02,-0.45 0.05,-0.14 0.12,-0.22 0.21,-0.25 0.1,-0.03 0.19,0 0.28,0.09 0.09,0.09 0.15,0.22 0.18,0.38 0.03,0.16 0.02,0.31 -0.02,0.45 -0.05,0.14 -0.12,0.22 -0.21,0.25zm-1.2 -3.06c-0.11,0.17 -0.21,0.39 -0.3,0.64 -0.07,0.21 -0.12,0.45 -0.17,0.71 0,-0.1 0.01,-0.22 0.03,-0.37 0.02,-0.12 0.05,-0.24 0.08,-0.36 0.07,-0.25 0.17,-0.48 0.29,-0.68 0.15,-0.22 0.32,-0.39 0.52,-0.49 0.1,-0.05 0.21,-0.09 0.33,-0.12 0.12,-0.02 0.23,-0.03 0.34,-0.02 -0.25,0.02 -0.47,0.08 -0.64,0.19 -0.19,0.12 -0.35,0.28 -0.48,0.49zm1.55 -0.97c-0.72,-0.15 -1.29,0.05 -1.72,0.59 -0.38,0.48 -0.59,1.13 -0.62,1.96 -0.03,0.8 0.1,1.53 0.4,2.18 0.32,0.71 0.77,1.13 1.34,1.26 0.53,0.12 1,-0.09 1.42,-0.64 0.38,-0.5 0.63,-1.15 0.75,-1.95 0.12,-0.82 0.06,-1.54 -0.18,-2.16 -0.27,-0.7 -0.73,-1.11 -1.37,-1.25z"/>
  <path id="2" class="fil0" d="M12.37 6.4c-0.03,0 -0.07,0 -0.13,0.01l-0.07 0.01 -0.07 0c0.08,-0.06 0.17,-0.1 0.27,-0.1 0.05,0 0.1,0.01 0.14,0.02 0.05,0.02 0.09,0.05 0.11,0.09 -0.09,-0.03 -0.18,-0.04 -0.26,-0.04zm-2.22 -1.37c-0.06,0.07 -0.11,0.13 -0.16,0.19 -0.12,0.15 -0.21,0.28 -0.28,0.41 -0.09,0.15 -0.15,0.3 -0.19,0.46 -0.04,0.16 -0.06,0.33 -0.05,0.51l-0.02 -0.13 -0 -0.06 0 -0.07 0 -0.06 0 -0.07 0.01 -0.06 0.01 -0.07c0.03,-0.17 0.09,-0.33 0.18,-0.49 0.09,-0.15 0.19,-0.29 0.3,-0.41 0.06,-0.06 0.12,-0.12 0.18,-0.18l0.1 -0.08c0.04,-0.03 0.07,-0.05 0.1,-0.07l-0.09 0.09 -0.09 0.09zm0.39 -2.71c-0.07,0.03 -0.15,0.07 -0.21,0.11 -0.15,0.08 -0.28,0.18 -0.39,0.28 -0.12,0.1 -0.24,0.22 -0.34,0.36 -0.05,0.07 -0.1,0.14 -0.13,0.21 -0.04,0.08 -0.07,0.16 -0.08,0.24 -0.01,-0.15 0.05,-0.31 0.16,-0.49 0.09,-0.14 0.2,-0.27 0.34,-0.39 0.14,-0.12 0.28,-0.21 0.42,-0.27 0.08,-0.04 0.15,-0.07 0.23,-0.09 0.09,-0.03 0.17,-0.05 0.24,-0.05l-0.11 0.04c-0.05,0.02 -0.08,0.03 -0.11,0.05zm1.45 3.79c-0.22,0.09 -0.42,0.13 -0.6,0.11 -0.15,-0.01 -0.25,-0.05 -0.28,-0.11 -0.01,-0.03 -0.02,-0.06 -0.02,-0.1 -0,-0.05 0.01,-0.1 0.03,-0.15 0.06,-0.14 0.21,-0.29 0.45,-0.45 0.31,-0.2 0.57,-0.46 0.78,-0.78 0.2,-0.31 0.33,-0.62 0.39,-0.95 0.06,-0.34 0.04,-0.65 -0.07,-0.93 -0.12,-0.3 -0.33,-0.53 -0.63,-0.69 -0.36,-0.19 -0.74,-0.26 -1.14,-0.2 -0.35,0.05 -0.69,0.19 -1.01,0.42 -0.3,0.22 -0.52,0.46 -0.67,0.74 -0.15,0.28 -0.18,0.53 -0.1,0.75 0.08,0.21 0.23,0.33 0.45,0.37 0.23,0.04 0.51,-0.03 0.83,-0.19 0.18,-0.09 0.31,-0.14 0.38,-0.16 0.07,-0.01 0.13,-0 0.16,0.04 0.08,0.09 -0.02,0.22 -0.29,0.39 -0.51,0.32 -0.89,0.67 -1.15,1.06 -0.32,0.49 -0.42,1.01 -0.3,1.56 0.09,0.39 0.34,0.67 0.76,0.86 0.34,0.15 0.77,0.22 1.29,0.22 0.52,0 0.95,-0.07 1.28,-0.23 0.34,-0.16 0.54,-0.38 0.59,-0.67 0.03,-0.14 0.02,-0.28 -0.02,-0.42 -0.04,-0.14 -0.11,-0.27 -0.21,-0.37 -0.11,-0.11 -0.23,-0.17 -0.37,-0.2 -0.16,-0.03 -0.34,-0 -0.52,0.08z"/>
  <path id="3" class="fil0" d="M16.03 5.9c-0.04,0.1 -0.1,0.17 -0.17,0.23 -0.08,0.07 -0.16,0.1 -0.24,0.11 0.15,-0.08 0.26,-0.21 0.34,-0.38 0.06,-0.13 0.11,-0.3 0.13,-0.52 0.04,0.19 0.02,0.38 -0.06,0.56zm-0.5 0.02c-0.1,0.03 -0.19,0 -0.28,-0.09 -0.09,-0.09 -0.15,-0.22 -0.18,-0.38 -0.03,-0.16 -0.02,-0.31 0.02,-0.45 0.05,-0.14 0.12,-0.22 0.21,-0.25 0.1,-0.03 0.19,0 0.28,0.09 0.09,0.09 0.15,0.22 0.18,0.38 0.03,0.16 0.02,0.31 -0.02,0.45 -0.05,0.14 -0.12,0.22 -0.21,0.25zm-1.2 -3.06c-0.11,0.17 -0.21,0.39 -0.3,0.64 -0.07,0.21 -0.12,0.45 -0.17,0.71 0,-0.1 0.01,-0.22 0.03,-0.37 0.02,-0.12 0.05,-0.24 0.08,-0.36 0.07,-0.25 0.17,-0.48 0.29,-0.68 0.15,-0.22 0.32,-0.39 0.52,-0.49 0.1,-0.05 0.21,-0.09 0.33,-0.12 0.12,-0.02 0.23,-0.03 0.34,-0.02 -0.25,0.02 -0.47,0.08 -0.64,0.19 -0.19,0.12 -0.35,0.28 -0.48,0.49zm1.55 -0.97c-0.72,-0.15 -1.29,0.05 -1.72,0.59 -0.38,0.48 -0.59,1.13 -0.62,1.96 -0.03,0.8 0.1,1.53 0.4,2.18 0.32,0.71 0.77,1.13 1.34,1.26 0.53,0.12 1,-0.09 1.42,-0.64 0.38,-0.5 0.63,-1.15 0.75,-1.95 0.12,-0.82 0.06,-1.54 -0.18,-2.16 -0.27,-0.7 -0.73,-1.11 -1.37,-1.25z"/>
  <path id="4" class="fil0" d="M20.35 4.56c-0.06,0.01 -0.12,0.03 -0.18,0.06l-0.04 0.02 -0.04 0.02c-0.04,0.02 -0.07,0.03 -0.1,0.03 -0.07,0.02 -0.13,0.03 -0.2,0.02l0.09 -0.03c0.04,-0.01 0.07,-0.03 0.09,-0.04l0.04 -0.02 0.04 -0.02c0.03,-0.02 0.06,-0.04 0.09,-0.05 0.07,-0.03 0.14,-0.05 0.2,-0.05 0.08,-0 0.14,0.01 0.19,0.06 -0.06,-0.01 -0.12,-0.01 -0.19,0zm-1.79 0.12c-0.06,0 -0.11,0.01 -0.16,0.01 -0.06,0 -0.11,0.01 -0.15,0.02 -0.03,0.01 -0.05,0.02 -0.06,0.04 -0.01,0.01 -0.02,0.04 -0.04,0.07 -0,-0.04 0,-0.07 0.01,-0.09 0.02,-0.03 0.04,-0.05 0.07,-0.07 0.04,-0.02 0.1,-0.04 0.16,-0.05 0.07,-0.01 0.12,-0 0.17,0 0.06,0.01 0.12,0.02 0.16,0.03 -0.05,0.01 -0.1,0.02 -0.16,0.02zm1.4 -0.31c-0.11,0.06 -0.28,0.09 -0.53,0.08 -0.08,-0.01 -0.19,-0.02 -0.33,-0.03l-0.17 -0.02c-0.06,-0.01 -0.12,-0.01 -0.16,-0.02 -0.26,-0.02 -0.45,-0.01 -0.58,0.04 -0.17,0.06 -0.27,0.18 -0.3,0.37 -0.03,0.24 0.07,0.45 0.3,0.63 0.22,0.16 0.5,0.28 0.86,0.34 0.35,0.06 0.69,0.06 1.01,-0 0.34,-0.07 0.6,-0.2 0.75,-0.39 0.11,-0.13 0.17,-0.29 0.18,-0.46 0.01,-0.16 -0.04,-0.3 -0.13,-0.43 -0.09,-0.13 -0.21,-0.2 -0.37,-0.23 -0.17,-0.03 -0.35,0.01 -0.54,0.11z"/>
  <path id="5" class="fil0" d="M22.79 2.25c-0.18,0.03 -0.33,0.06 -0.44,0.1 -0.17,0.05 -0.31,0.11 -0.41,0.19 -0.07,0.05 -0.13,0.11 -0.16,0.16 -0.04,0.06 -0.07,0.14 -0.07,0.23 -0.02,-0.09 -0.01,-0.17 0.03,-0.25 0.03,-0.07 0.09,-0.13 0.16,-0.19 0.1,-0.08 0.25,-0.15 0.42,-0.21 0.29,-0.09 0.6,-0.11 0.92,-0.08 -0.17,0.02 -0.32,0.04 -0.46,0.06zm0.74 -0.38c-0.64,-0.04 -1.15,0.04 -1.55,0.23 -0.42,0.2 -0.61,0.48 -0.58,0.85 0.02,0.21 0.1,0.36 0.24,0.45 0.1,0.07 0.26,0.11 0.47,0.14l0.13 0.01 0.13 0.01c0.1,0.01 0.18,0.02 0.23,0.03 0.16,0.04 0.26,0.11 0.29,0.21 0.02,0.06 -0,0.43 -0.07,1.1 -0.04,0.34 -0.06,0.63 -0.07,0.87 -0.02,0.34 -0.01,0.64 0.01,0.89 0.03,0.38 0.16,0.69 0.37,0.93 0.22,0.25 0.48,0.36 0.79,0.31 0.56,-0.08 0.76,-0.69 0.61,-1.81 -0.08,-0.59 -0.12,-1.1 -0.13,-1.52 -0.01,-0.45 0.03,-0.71 0.12,-0.78 0.06,-0.05 0.16,-0.07 0.3,-0.08 0.04,0 0.11,0 0.2,0l0.11 0 0.11 -0c0.17,-0 0.3,-0.03 0.4,-0.08 0.13,-0.07 0.21,-0.17 0.25,-0.33 0.05,-0.19 0.03,-0.37 -0.08,-0.55 -0.1,-0.16 -0.27,-0.31 -0.49,-0.44 -0.46,-0.26 -1.06,-0.42 -1.79,-0.46z"/>
  <path id="6" class="fil0" d="M29.36 2.54c-0.07,0.09 -0.14,0.19 -0.21,0.31 -0.12,0.21 -0.23,0.44 -0.32,0.68l-0.06 0.18 -0.06 0.18c-0.05,0.16 -0.09,0.28 -0.13,0.36 -0.06,0.15 -0.12,0.27 -0.18,0.34 -0.04,0.06 -0.09,0.09 -0.15,0.11 -0.05,0.02 -0.11,0.03 -0.18,0.02 0.07,-0 0.13,-0.02 0.17,-0.04 0.05,-0.03 0.09,-0.07 0.13,-0.12 0.05,-0.07 0.1,-0.18 0.15,-0.34l0.05 -0.18 0.06 -0.18c0.04,-0.15 0.08,-0.27 0.12,-0.36 0.1,-0.26 0.21,-0.49 0.34,-0.68 0.17,-0.25 0.34,-0.43 0.52,-0.53 -0.1,0.07 -0.18,0.15 -0.26,0.25zm-2.58 0.98c-0.04,0.17 -0.07,0.38 -0.1,0.62l-0.03 0.31 -0.04 0.31c-0.02,-0.62 0.04,-1.17 0.2,-1.65 0.03,-0.1 0.06,-0.18 0.09,-0.26 0.05,-0.1 0.09,-0.19 0.14,-0.26 0.13,-0.19 0.27,-0.28 0.44,-0.27 -0.2,0.02 -0.36,0.18 -0.49,0.47 -0.05,0.11 -0.09,0.23 -0.13,0.38 -0.02,0.05 -0.03,0.11 -0.04,0.18l-0.02 0.08 -0.01 0.04 -0.01 0.04zm3.58 -1.52c-0.32,-0.21 -0.64,-0.19 -0.97,0.05 -0.27,0.2 -0.51,0.52 -0.72,0.96 -0.07,0.14 -0.13,0.31 -0.2,0.49 -0.02,0.07 -0.05,0.15 -0.08,0.24l-0.03 0.11 -0.02 0.05 -0.02 0.05c-0.05,0.15 -0.09,0.26 -0.12,0.32 -0.04,0.08 -0.07,0.12 -0.11,0.12 -0.07,-0.01 -0.1,-0.06 -0.11,-0.17 -0.01,-0.1 0.01,-0.31 0.06,-0.65 0.08,-0.62 0.05,-1.06 -0.11,-1.31 -0.13,-0.2 -0.33,-0.28 -0.6,-0.24 -0.33,0.05 -0.6,0.39 -0.79,1.02 -0.19,0.61 -0.27,1.36 -0.24,2.24 0.05,1.62 0.49,2.5 1.33,2.62 0.25,0.03 0.49,-0.03 0.73,-0.19 0.23,-0.15 0.42,-0.36 0.58,-0.63 0.14,-0.23 0.26,-0.45 0.36,-0.65 0.04,-0.08 0.07,-0.15 0.1,-0.23 0.02,-0.05 0.05,-0.1 0.07,-0.17 0.04,-0.1 0.07,-0.17 0.08,-0.18 0.02,-0.03 0.05,-0.04 0.08,-0.03 0.03,0.01 0.04,0.13 0.01,0.35l-0.01 0.08 -0.01 0.08c-0.01,0.07 -0.01,0.13 -0.02,0.18 -0.01,0.15 -0.02,0.28 -0.03,0.39 -0.01,0.69 0.21,1.03 0.68,1.03 0.3,-0 0.53,-0.28 0.7,-0.83 0.15,-0.5 0.22,-1.12 0.23,-1.87 0,-0.74 -0.07,-1.41 -0.21,-2 -0.15,-0.64 -0.36,-1.05 -0.61,-1.22z"/>
  <path id="7" class="fil0" d="M35.85 5.62c-0.05,0.05 -0.11,0.08 -0.17,0.09 -0.07,0.02 -0.13,0.02 -0.19,0 0.12,-0.03 0.22,-0.09 0.31,-0.16 0.07,-0.06 0.15,-0.15 0.23,-0.28 -0.02,0.14 -0.08,0.25 -0.19,0.34zm-0.42 -0.24c-0.06,-0.03 -0.1,-0.08 -0.12,-0.16 -0.02,-0.08 -0.02,-0.16 0.01,-0.25 0.03,-0.09 0.08,-0.15 0.15,-0.2 0.07,-0.04 0.13,-0.05 0.19,-0.02 0.06,0.02 0.1,0.08 0.12,0.16 0.02,0.08 0.01,0.16 -0.02,0.25 -0.03,0.09 -0.08,0.15 -0.15,0.2 -0.07,0.04 -0.13,0.05 -0.19,0.02zm-0.63 -2.28c-0.1,0.15 -0.22,0.34 -0.36,0.59 -0.05,0.09 -0.1,0.19 -0.16,0.31l-0.16 0.31c0.08,-0.21 0.17,-0.42 0.28,-0.64 0.1,-0.21 0.22,-0.41 0.35,-0.61 0.15,-0.23 0.3,-0.41 0.43,-0.54l0.06 -0.06c0.02,-0.02 0.04,-0.04 0.06,-0.05l0.07 -0.06 0.07 -0.05c0.12,-0.07 0.23,-0.1 0.32,-0.1 -0.09,0.01 -0.19,0.05 -0.3,0.13l-0.06 0.05 -0.06 0.06c-0.02,0.01 -0.04,0.03 -0.06,0.06l-0.06 0.06c-0.13,0.15 -0.27,0.33 -0.41,0.54zm1.04 -1.23c-0.34,-0.06 -0.72,0.2 -1.14,0.76 -0.38,0.51 -0.72,1.16 -1.03,1.95 -0.3,0.79 -0.48,1.49 -0.53,2.1 -0.05,0.67 0.07,1.07 0.36,1.19 0.22,0.09 0.44,0.09 0.64,-0.01 0.16,-0.07 0.32,-0.21 0.5,-0.41 0.03,-0.04 0.07,-0.08 0.11,-0.13l0.1 -0.13c0.09,-0.11 0.15,-0.19 0.19,-0.23 0.14,-0.16 0.25,-0.24 0.35,-0.24 0.1,0 0.22,0.08 0.36,0.22 0.04,0.05 0.11,0.12 0.19,0.22l0.11 0.12 0.11 0.12c0.18,0.19 0.34,0.32 0.48,0.38 0.19,0.09 0.38,0.09 0.57,-0.01 0.22,-0.11 0.35,-0.47 0.38,-1.08 0.03,-0.57 -0.03,-1.22 -0.18,-1.95 -0.15,-0.76 -0.36,-1.4 -0.62,-1.91 -0.3,-0.58 -0.61,-0.9 -0.95,-0.96z"/>
  <path id="8" class="fil0" d="M40.6 4.38c-0.03,0.08 -0.07,0.15 -0.13,0.22 -0.06,0.07 -0.13,0.12 -0.2,0.15 -0.08,0.03 -0.16,0.04 -0.23,0.02 0.08,-0.02 0.15,-0.04 0.21,-0.08 0.07,-0.04 0.12,-0.09 0.17,-0.14 0.1,-0.11 0.17,-0.25 0.22,-0.42 0.01,0.08 -0,0.17 -0.03,0.25zm-0.71 -0.36c0.04,-0.09 0.09,-0.15 0.16,-0.18 0.07,-0.04 0.13,-0.04 0.18,-0.01 0.05,0.03 0.09,0.09 0.1,0.17 0.01,0.08 -0,0.16 -0.04,0.25 -0.04,0.09 -0.09,0.15 -0.16,0.18 -0.07,0.04 -0.13,0.04 -0.18,0.01 -0.05,-0.03 -0.09,-0.09 -0.1,-0.17 -0.01,-0.08 0,-0.17 0.04,-0.25zm-0.6 -1.67c-0.18,0.09 -0.33,0.21 -0.46,0.36 -0.12,0.14 -0.23,0.31 -0.32,0.51 -0.07,0.16 -0.13,0.36 -0.19,0.59 0.01,-0.09 0.02,-0.19 0.05,-0.31 0.03,-0.11 0.06,-0.21 0.09,-0.3 0.08,-0.2 0.18,-0.38 0.31,-0.54 0.14,-0.17 0.3,-0.29 0.49,-0.36 0.09,-0.04 0.19,-0.07 0.28,-0.09 0.11,-0.02 0.2,-0.03 0.29,-0.03 -0.22,0.03 -0.4,0.09 -0.55,0.17zm0.73 -0.5c-0.52,-0.01 -0.95,0.15 -1.3,0.47 -0.3,0.28 -0.52,0.68 -0.64,1.19 -0.11,0.47 -0.14,0.98 -0.09,1.54 0.05,0.54 0.18,1.04 0.38,1.51 0.19,0.45 0.41,0.79 0.64,1.03 0.21,0.21 0.42,0.33 0.63,0.35 0.19,0.02 0.35,-0.04 0.49,-0.18 0.14,-0.14 0.22,-0.33 0.24,-0.57 0.02,-0.16 0.02,-0.35 -0.01,-0.56 -0.01,-0.06 -0.03,-0.14 -0.04,-0.25l-0.02 -0.12c-0.01,-0.04 -0.01,-0.08 -0.02,-0.11 -0.02,-0.17 -0.02,-0.29 0.01,-0.39 0.03,-0.12 0.11,-0.21 0.24,-0.27 0.42,-0.22 0.74,-0.53 0.95,-0.94 0.2,-0.38 0.28,-0.78 0.23,-1.2 -0.05,-0.42 -0.21,-0.77 -0.5,-1.04 -0.31,-0.29 -0.71,-0.44 -1.21,-0.45z"/>
  <path id="9" class="fil0" d="M44.74 6.09c-0.05,0.08 -0.11,0.14 -0.19,0.17 -0.08,0.04 -0.16,0.05 -0.24,0.03 0.16,-0.03 0.28,-0.11 0.36,-0.25 0.04,-0.06 0.07,-0.13 0.09,-0.22 0.01,-0.07 0.02,-0.16 0.02,-0.25 0.03,0.08 0.04,0.17 0.04,0.26 -0.01,0.09 -0.03,0.18 -0.08,0.25zm-0.69 -0.33c-0.04,-0.08 -0.05,-0.16 -0.04,-0.24 0.01,-0.08 0.04,-0.14 0.1,-0.17 0.06,-0.03 0.12,-0.02 0.18,0.01 0.07,0.04 0.12,0.1 0.16,0.18 0.04,0.08 0.05,0.17 0.04,0.25 -0.01,0.08 -0.04,0.13 -0.1,0.17 -0.05,0.03 -0.11,0.03 -0.18,-0.01 -0.07,-0.04 -0.12,-0.1 -0.16,-0.18zm-0.36 -3.51c-0.05,0.03 -0.1,0.06 -0.16,0.11 -0.09,0.08 -0.18,0.18 -0.27,0.3 -0.07,0.09 -0.15,0.2 -0.23,0.34 -0.03,0.05 -0.07,0.11 -0.11,0.18l-0.1 0.18c0.05,-0.16 0.11,-0.29 0.16,-0.4 0.07,-0.14 0.14,-0.26 0.22,-0.36 0.1,-0.13 0.19,-0.23 0.3,-0.3 0.13,-0.1 0.26,-0.14 0.38,-0.13 -0.06,0.01 -0.12,0.03 -0.18,0.07zm1.01 2.05c-0.13,-0.04 -0.22,-0.12 -0.25,-0.23 -0.03,-0.09 -0.03,-0.22 -0,-0.39 0.01,-0.03 0.01,-0.07 0.02,-0.12l0.02 -0.12c0.02,-0.11 0.04,-0.2 0.05,-0.26 0.03,-0.22 0.04,-0.41 0.02,-0.57 -0.03,-0.24 -0.11,-0.43 -0.25,-0.56 -0.14,-0.14 -0.3,-0.2 -0.5,-0.18 -0.21,0.02 -0.42,0.13 -0.62,0.35 -0.24,0.24 -0.45,0.58 -0.64,1.03 -0.2,0.46 -0.33,0.96 -0.38,1.5 -0.06,0.56 -0.03,1.07 0.08,1.53 0.13,0.51 0.34,0.91 0.64,1.19 0.34,0.32 0.77,0.47 1.3,0.47 0.5,-0.01 0.91,-0.17 1.23,-0.49 0.3,-0.29 0.48,-0.66 0.54,-1.09 0.06,-0.44 -0.01,-0.84 -0.22,-1.21 -0.23,-0.4 -0.57,-0.68 -1.04,-0.84zm1.63 -1.95c-0.04,0.04 -0.08,0.1 -0.1,0.16 -0.02,0.06 -0.03,0.13 -0.03,0.2 -0.01,0.1 0.01,0.24 0.03,0.42l0.04 0.21 0.04 0.21c-0.06,-0.15 -0.1,-0.29 -0.13,-0.41 -0.04,-0.16 -0.06,-0.31 -0.05,-0.44 0.01,-0.09 0.02,-0.16 0.04,-0.22 0.03,-0.08 0.07,-0.14 0.13,-0.19 0.11,-0.09 0.24,-0.12 0.39,-0.11 -0.15,0.02 -0.26,0.07 -0.35,0.16zm1.37 0.24c-0.11,-0.22 -0.25,-0.4 -0.43,-0.53 -0.16,-0.11 -0.33,-0.18 -0.51,-0.19 -0.17,-0.01 -0.33,0.02 -0.48,0.09 -0.15,0.08 -0.25,0.19 -0.32,0.33 -0.13,0.26 -0.12,0.66 0.01,1.17 0.02,0.08 0.05,0.19 0.09,0.32l0.05 0.17 0.05 0.16c0.07,0.26 0.11,0.47 0.13,0.64 0.04,0.41 0.06,0.83 0.05,1.27 -0,0.14 -0.01,0.3 -0.02,0.49l-0 0.11 -0 0.11c-0.01,0.08 -0.01,0.14 -0.01,0.2 -0.01,0.26 0.01,0.45 0.04,0.57 0.05,0.14 0.14,0.23 0.29,0.26 0.28,0.07 0.54,-0.09 0.76,-0.49 0.2,-0.35 0.36,-0.84 0.46,-1.47 0.1,-0.6 0.14,-1.19 0.12,-1.78 -0.03,-0.62 -0.12,-1.09 -0.29,-1.42z"/>
  <path id="10" class="fil0" d="M51.8 2.29c-0.04,0.02 -0.07,0.05 -0.1,0.09 -0.04,0.06 -0.08,0.15 -0.1,0.27 -0.03,0.16 -0.04,0.36 -0.03,0.61l0 0.08 0 0.08c0,0.06 0,0.12 -0,0.16 -0.01,0.12 -0.04,0.22 -0.07,0.31 -0.04,0.1 -0.1,0.19 -0.17,0.26 -0.08,0.07 -0.16,0.12 -0.25,0.15 0.18,-0.09 0.3,-0.24 0.37,-0.44 0.03,-0.1 0.05,-0.19 0.05,-0.29 0,-0.04 0,-0.09 0,-0.15l-0 -0.08 0 -0.08c-0,-0.25 0.01,-0.46 0.05,-0.62 0.03,-0.13 0.08,-0.22 0.13,-0.29 0.04,-0.04 0.08,-0.07 0.12,-0.09 0.04,-0.01 0.08,-0.02 0.14,-0.02 -0.06,0.01 -0.1,0.02 -0.14,0.04zm-2.63 0.11c-0.09,0.1 -0.16,0.23 -0.21,0.38 -0.04,0.13 -0.08,0.28 -0.12,0.45l-0.05 0.22 -0.05 0.23c0.01,-0.32 0.06,-0.63 0.15,-0.93 0.05,-0.17 0.13,-0.31 0.24,-0.41 0.06,-0.06 0.12,-0.1 0.19,-0.13 0.08,-0.03 0.15,-0.04 0.21,-0.03 -0.14,0.01 -0.26,0.08 -0.36,0.21zm2.75 -0.47c-0.26,0.02 -0.45,0.15 -0.56,0.39 -0.11,0.23 -0.15,0.6 -0.13,1.09 0.01,0.22 -0.04,0.38 -0.13,0.48 -0.08,0.09 -0.18,0.13 -0.31,0.12 -0.13,-0.01 -0.22,-0.07 -0.29,-0.18 -0.07,-0.11 -0.09,-0.25 -0.07,-0.43 0.05,-0.5 0,-0.87 -0.14,-1.12 -0.13,-0.22 -0.33,-0.36 -0.62,-0.41 -0.23,-0.04 -0.44,0.02 -0.63,0.18 -0.18,0.15 -0.31,0.36 -0.4,0.64 -0.16,0.53 -0.25,1.15 -0.26,1.87 -0.01,0.69 0.06,1.36 0.2,1.98 0.1,0.47 0.27,0.8 0.49,1 0.18,0.17 0.39,0.23 0.61,0.2 0.5,-0.08 0.72,-0.48 0.67,-1.19 -0.04,-0.52 0.07,-0.78 0.3,-0.78 0.12,0 0.21,0.05 0.27,0.14 0.08,0.13 0.12,0.33 0.11,0.61 -0.02,0.47 0.05,0.82 0.21,1.07 0.15,0.23 0.36,0.34 0.63,0.34 0.46,0 0.78,-0.31 0.97,-0.94 0.13,-0.45 0.22,-1.2 0.24,-2.25 0.02,-0.81 -0.07,-1.48 -0.28,-2.01 -0.22,-0.56 -0.51,-0.83 -0.89,-0.81z"/>
  <path id="11" class="fil0" d="M1.29 11.34c-0.07,0.03 -0.13,0.06 -0.18,0.09 -0.06,0.03 -0.11,0.08 -0.17,0.12 -0.11,0.09 -0.2,0.2 -0.27,0.32 -0.07,0.14 -0.11,0.29 -0.12,0.42 -0.02,-0.15 0,-0.3 0.07,-0.45 0.06,-0.14 0.15,-0.26 0.27,-0.36 0.12,-0.1 0.25,-0.17 0.38,-0.21 0.14,-0.05 0.28,-0.06 0.42,-0.03 -0.14,0.01 -0.27,0.04 -0.4,0.1zm1.45 0.5c-0.12,-0.34 -0.29,-0.58 -0.51,-0.74 -0.19,-0.14 -0.41,-0.2 -0.66,-0.18 -0.22,0.01 -0.44,0.08 -0.65,0.21 -0.2,0.12 -0.36,0.27 -0.46,0.44 -0.09,0.14 -0.15,0.3 -0.19,0.46 -0.03,0.16 -0.03,0.3 -0,0.43 0.03,0.14 0.09,0.24 0.17,0.31 0.09,0.07 0.2,0.1 0.34,0.08 0.16,-0.02 0.27,0.1 0.34,0.37 0.02,0.1 0.04,0.22 0.05,0.36 0.01,0.05 0.01,0.11 0.02,0.18l0 0.08 0 0.08c0.02,0.41 0.02,0.84 -0.02,1.27 -0.01,0.14 -0.03,0.31 -0.05,0.5l-0.01 0.11 -0.01 0.11c-0.01,0.08 -0.01,0.14 -0.02,0.2 -0.02,0.27 -0.02,0.46 0.01,0.57 0.04,0.14 0.13,0.24 0.28,0.28 0.28,0.09 0.55,-0.06 0.79,-0.44 0.22,-0.34 0.4,-0.82 0.54,-1.43 0.13,-0.59 0.2,-1.18 0.21,-1.78 0.01,-0.62 -0.05,-1.11 -0.18,-1.47z"/>
  <path id="12" class="fil0" d="M5.77 13.61c-0.06,0.01 -0.12,0.03 -0.18,0.06l-0.04 0.02 -0.04 0.02c-0.04,0.02 -0.07,0.03 -0.1,0.03 -0.07,0.02 -0.13,0.03 -0.2,0.02l0.09 -0.03c0.04,-0.01 0.07,-0.03 0.09,-0.04l0.04 -0.02 0.04 -0.02c0.03,-0.02 0.06,-0.04 0.09,-0.05 0.07,-0.03 0.14,-0.05 0.2,-0.05 0.08,-0 0.14,0.01 0.19,0.06 -0.06,-0.01 -0.12,-0.01 -0.19,0zm-1.79 0.12c-0.06,0 -0.11,0.01 -0.16,0.01 -0.06,0 -0.11,0.01 -0.15,0.02 -0.03,0.01 -0.05,0.02 -0.06,0.04 -0.01,0.01 -0.02,0.04 -0.04,0.07 -0,-0.04 0,-0.07 0.01,-0.09 0.02,-0.03 0.04,-0.05 0.07,-0.07 0.04,-0.02 0.1,-0.04 0.16,-0.05 0.07,-0.01 0.12,-0 0.17,0 0.06,0.01 0.12,0.02 0.16,0.03 -0.05,0.01 -0.1,0.02 -0.16,0.02zm1.4 -0.31c-0.11,0.06 -0.28,0.09 -0.53,0.08 -0.08,-0.01 -0.19,-0.02 -0.33,-0.03l-0.17 -0.02c-0.06,-0.01 -0.12,-0.01 -0.16,-0.02 -0.26,-0.02 -0.45,-0.01 -0.58,0.04 -0.17,0.06 -0.27,0.18 -0.3,0.37 -0.03,0.24 0.07,0.45 0.3,0.63 0.22,0.16 0.5,0.28 0.86,0.34 0.35,0.06 0.69,0.06 1.01,-0 0.34,-0.07 0.6,-0.2 0.75,-0.39 0.11,-0.13 0.17,-0.29 0.18,-0.46 0.01,-0.16 -0.04,-0.3 -0.13,-0.43 -0.09,-0.13 -0.21,-0.2 -0.37,-0.23 -0.17,-0.03 -0.35,0.01 -0.54,0.11z"/>
  <path id="13" class="fil0" d="M8.21 11.3c-0.18,0.03 -0.33,0.06 -0.44,0.1 -0.17,0.05 -0.31,0.11 -0.41,0.19 -0.07,0.05 -0.13,0.11 -0.16,0.16 -0.04,0.06 -0.07,0.14 -0.07,0.23 -0.02,-0.09 -0.01,-0.17 0.03,-0.25 0.03,-0.07 0.09,-0.13 0.16,-0.19 0.1,-0.08 0.25,-0.15 0.42,-0.21 0.29,-0.09 0.6,-0.11 0.92,-0.08 -0.17,0.02 -0.32,0.04 -0.46,0.06zm0.74 -0.38c-0.64,-0.04 -1.15,0.04 -1.55,0.23 -0.42,0.2 -0.61,0.48 -0.58,0.85 0.02,0.21 0.1,0.36 0.24,0.45 0.1,0.07 0.26,0.11 0.47,0.14l0.13 0.01 0.13 0.01c0.1,0.01 0.18,0.02 0.23,0.03 0.16,0.04 0.26,0.11 0.29,0.21 0.02,0.06 -0,0.43 -0.07,1.1 -0.04,0.34 -0.06,0.63 -0.07,0.87 -0.02,0.34 -0.01,0.64 0.01,0.89 0.03,0.38 0.16,0.69 0.37,0.93 0.22,0.25 0.48,0.36 0.79,0.31 0.56,-0.08 0.76,-0.69 0.61,-1.81 -0.08,-0.59 -0.12,-1.1 -0.13,-1.52 -0.01,-0.45 0.03,-0.71 0.12,-0.78 0.06,-0.05 0.16,-0.07 0.3,-0.08 0.04,0 0.11,0 0.2,0l0.11 0 0.11 -0c0.17,-0 0.3,-0.03 0.4,-0.08 0.13,-0.07 0.21,-0.17 0.25,-0.33 0.05,-0.19 0.03,-0.37 -0.08,-0.55 -0.1,-0.16 -0.27,-0.31 -0.49,-0.44 -0.46,-0.26 -1.06,-0.42 -1.79,-0.46z"/>
  <path id="14" class="fil0" d="M14.78 11.59c-0.07,0.09 -0.14,0.19 -0.21,0.31 -0.12,0.21 -0.23,0.44 -0.32,0.68l-0.06 0.18 -0.06 0.18c-0.05,0.16 -0.09,0.28 -0.13,0.36 -0.06,0.15 -0.12,0.27 -0.18,0.34 -0.04,0.06 -0.09,0.09 -0.15,0.11 -0.05,0.02 -0.11,0.03 -0.18,0.02 0.07,-0 0.13,-0.02 0.17,-0.04 0.05,-0.03 0.09,-0.07 0.13,-0.12 0.05,-0.07 0.1,-0.18 0.15,-0.34l0.05 -0.18 0.06 -0.18c0.04,-0.15 0.08,-0.27 0.12,-0.36 0.1,-0.26 0.21,-0.49 0.34,-0.68 0.17,-0.25 0.34,-0.43 0.52,-0.53 -0.1,0.07 -0.18,0.15 -0.26,0.25zm-2.58 0.98c-0.04,0.17 -0.07,0.38 -0.1,0.62l-0.03 0.31 -0.04 0.31c-0.02,-0.62 0.04,-1.17 0.2,-1.65 0.03,-0.1 0.06,-0.18 0.09,-0.26 0.05,-0.1 0.09,-0.19 0.14,-0.26 0.13,-0.19 0.27,-0.28 0.44,-0.27 -0.2,0.02 -0.36,0.18 -0.49,0.47 -0.05,0.11 -0.09,0.23 -0.13,0.38 -0.02,0.05 -0.03,0.11 -0.04,0.18l-0.02 0.08 -0.01 0.04 -0.01 0.04zm3.58 -1.52c-0.32,-0.21 -0.64,-0.19 -0.97,0.05 -0.27,0.2 -0.51,0.52 -0.72,0.96 -0.07,0.14 -0.13,0.31 -0.2,0.49 -0.02,0.07 -0.05,0.15 -0.08,0.24l-0.03 0.11 -0.02 0.05 -0.02 0.05c-0.05,0.15 -0.09,0.26 -0.12,0.32 -0.04,0.08 -0.07,0.12 -0.11,0.12 -0.07,-0.01 -0.1,-0.06 -0.11,-0.17 -0.01,-0.1 0.01,-0.31 0.06,-0.65 0.08,-0.62 0.05,-1.06 -0.11,-1.31 -0.13,-0.2 -0.33,-0.28 -0.6,-0.24 -0.33,0.05 -0.6,0.39 -0.79,1.02 -0.19,0.61 -0.27,1.36 -0.24,2.24 0.05,1.62 0.49,2.5 1.33,2.62 0.24,0.03 0.49,-0.03 0.73,-0.19 0.23,-0.15 0.42,-0.36 0.58,-0.63 0.14,-0.23 0.26,-0.45 0.36,-0.65 0.04,-0.08 0.07,-0.15 0.1,-0.23 0.02,-0.05 0.05,-0.1 0.07,-0.17 0.04,-0.1 0.07,-0.17 0.08,-0.18 0.02,-0.03 0.05,-0.04 0.08,-0.03 0.03,0.01 0.04,0.13 0.01,0.35l-0.01 0.08 -0.01 0.08c-0.01,0.07 -0.01,0.13 -0.02,0.18 -0.01,0.15 -0.02,0.28 -0.03,0.39 -0.01,0.69 0.21,1.03 0.68,1.03 0.3,-0 0.53,-0.28 0.7,-0.83 0.15,-0.5 0.22,-1.12 0.23,-1.87 0,-0.74 -0.07,-1.41 -0.21,-2 -0.15,-0.64 -0.36,-1.05 -0.61,-1.22z"/>
  <path id="15" class="fil0" d="M21.36 15.04c-0.04,0.1 -0.11,0.17 -0.19,0.21 -0.08,0.05 -0.17,0.07 -0.26,0.05 0.09,-0.02 0.17,-0.05 0.23,-0.1 0.07,-0.06 0.12,-0.12 0.16,-0.2 0.07,-0.15 0.08,-0.32 0.04,-0.53 0.05,0.08 0.07,0.17 0.08,0.28 0.01,0.1 -0.01,0.2 -0.05,0.29zm-0.72 -0.25c-0.04,-0.08 -0.06,-0.16 -0.05,-0.25 0.01,-0.08 0.04,-0.14 0.09,-0.17 0.05,-0.03 0.12,-0.03 0.18,0 0.07,0.03 0.13,0.09 0.17,0.17 0.04,0.08 0.06,0.17 0.05,0.25 -0.01,0.08 -0.04,0.14 -0.09,0.18 -0.05,0.03 -0.12,0.03 -0.18,0 -0.07,-0.03 -0.13,-0.09 -0.17,-0.18zm-0.34 -1.76c0.06,-0.02 0.12,-0.04 0.17,-0.07 0.05,-0.04 0.1,-0.08 0.14,-0.12 0.04,-0.04 0.08,-0.1 0.11,-0.16 0.03,-0.05 0.05,-0.11 0.08,-0.18 0.01,0.14 -0.03,0.28 -0.14,0.4 -0.05,0.05 -0.11,0.09 -0.17,0.12 -0.07,0.03 -0.13,0.03 -0.19,0.02zm-0.08 -0.61c0.03,-0.06 0.07,-0.1 0.11,-0.12 0.04,-0.02 0.09,-0.02 0.12,0 0.03,0.02 0.05,0.06 0.06,0.11 0.01,0.05 -0.01,0.11 -0.04,0.16 -0.03,0.06 -0.07,0.1 -0.11,0.12 -0.04,0.02 -0.08,0.02 -0.12,0 -0.03,-0.02 -0.05,-0.06 -0.06,-0.11 -0.01,-0.05 0.01,-0.11 0.03,-0.16zm-0.66 -0.76c-0.06,0.07 -0.13,0.15 -0.19,0.26 -0.1,0.16 -0.19,0.36 -0.27,0.59 -0.06,0.18 -0.13,0.4 -0.18,0.64 0.02,-0.22 0.06,-0.44 0.13,-0.66 0.07,-0.22 0.16,-0.43 0.27,-0.62 0.13,-0.21 0.28,-0.37 0.45,-0.47 0.11,-0.07 0.2,-0.11 0.29,-0.14 0.11,-0.03 0.21,-0.04 0.31,-0.03 -0.21,0.02 -0.4,0.09 -0.57,0.22 -0.09,0.06 -0.16,0.13 -0.23,0.21zm1.68 1.62c-0.04,-0.02 -0.05,-0.07 -0.03,-0.14 0.01,-0.03 0.03,-0.07 0.06,-0.12l0.02 -0.03 0.02 -0.04c0.01,-0.03 0.03,-0.06 0.04,-0.09 0.07,-0.15 0.12,-0.3 0.15,-0.44 0.04,-0.2 0.05,-0.41 0.01,-0.62 -0.04,-0.24 -0.16,-0.44 -0.37,-0.61 -0.21,-0.17 -0.46,-0.26 -0.74,-0.27 -0.3,-0.01 -0.59,0.08 -0.85,0.28 -0.3,0.23 -0.53,0.57 -0.7,1.03 -0.18,0.48 -0.27,1 -0.29,1.56 -0.02,0.57 0.06,1.1 0.21,1.58 0.17,0.52 0.43,0.93 0.76,1.2 0.38,0.31 0.83,0.45 1.35,0.41 0.5,-0.04 0.91,-0.21 1.2,-0.53 0.27,-0.29 0.42,-0.65 0.45,-1.08 0.03,-0.42 -0.07,-0.82 -0.29,-1.2 -0.24,-0.41 -0.58,-0.7 -1.01,-0.89z"/>
  <path id="16" class="fil0" d="M25.55 15.14c-0.05,0.08 -0.11,0.14 -0.19,0.17 -0.08,0.04 -0.16,0.05 -0.24,0.03 0.16,-0.03 0.28,-0.11 0.36,-0.25 0.04,-0.06 0.07,-0.13 0.09,-0.22 0.01,-0.07 0.02,-0.16 0.02,-0.25 0.03,0.08 0.04,0.17 0.04,0.26 -0.01,0.09 -0.03,0.18 -0.08,0.25zm-0.69 -0.33c-0.04,-0.08 -0.05,-0.16 -0.04,-0.24 0.01,-0.08 0.04,-0.14 0.1,-0.17 0.06,-0.03 0.12,-0.02 0.18,0.01 0.07,0.04 0.12,0.1 0.16,0.18 0.04,0.08 0.05,0.17 0.04,0.25 -0.01,0.08 -0.04,0.13 -0.1,0.17 -0.05,0.03 -0.11,0.03 -0.18,-0.01 -0.07,-0.04 -0.12,-0.1 -0.16,-0.18zm-0.36 -3.51c-0.05,0.03 -0.1,0.06 -0.16,0.11 -0.09,0.08 -0.18,0.18 -0.27,0.3 -0.07,0.09 -0.15,0.2 -0.23,0.34 -0.03,0.05 -0.07,0.11 -0.11,0.18l-0.1 0.18c0.05,-0.16 0.11,-0.29 0.16,-0.4 0.07,-0.14 0.14,-0.26 0.22,-0.36 0.1,-0.13 0.19,-0.23 0.3,-0.3 0.13,-0.1 0.26,-0.14 0.38,-0.13 -0.06,0.01 -0.12,0.03 -0.18,0.07zm1.01 2.05c-0.13,-0.04 -0.22,-0.12 -0.25,-0.23 -0.03,-0.09 -0.03,-0.22 -0,-0.39 0.01,-0.03 0.01,-0.07 0.02,-0.12l0.02 -0.12c0.02,-0.11 0.04,-0.2 0.05,-0.26 0.03,-0.22 0.04,-0.41 0.02,-0.57 -0.03,-0.24 -0.11,-0.43 -0.24,-0.56 -0.14,-0.14 -0.3,-0.2 -0.5,-0.18 -0.21,0.02 -0.42,0.13 -0.62,0.35 -0.24,0.24 -0.45,0.58 -0.64,1.03 -0.2,0.46 -0.33,0.96 -0.38,1.5 -0.06,0.56 -0.03,1.07 0.09,1.53 0.13,0.51 0.34,0.91 0.64,1.19 0.34,0.32 0.77,0.47 1.3,0.47 0.5,-0.01 0.91,-0.17 1.23,-0.49 0.3,-0.29 0.48,-0.66 0.54,-1.09 0.06,-0.44 -0.01,-0.84 -0.22,-1.21 -0.23,-0.4 -0.57,-0.68 -1.04,-0.84zm1.63 -1.95c-0.04,0.04 -0.08,0.1 -0.1,0.16 -0.02,0.06 -0.03,0.13 -0.03,0.2 -0.01,0.1 0.01,0.24 0.03,0.42l0.04 0.21 0.04 0.21c-0.06,-0.15 -0.1,-0.29 -0.13,-0.41 -0.04,-0.16 -0.06,-0.31 -0.05,-0.44 0.01,-0.09 0.02,-0.16 0.04,-0.22 0.03,-0.08 0.07,-0.14 0.13,-0.19 0.11,-0.09 0.24,-0.12 0.39,-0.11 -0.15,0.02 -0.26,0.07 -0.35,0.16zm1.37 0.24c-0.11,-0.22 -0.25,-0.4 -0.43,-0.53 -0.16,-0.11 -0.33,-0.18 -0.51,-0.19 -0.17,-0.01 -0.33,0.02 -0.48,0.09 -0.15,0.08 -0.25,0.19 -0.32,0.33 -0.13,0.26 -0.12,0.66 0.01,1.17 0.02,0.08 0.05,0.19 0.09,0.32l0.05 0.17 0.05 0.16c0.07,0.26 0.11,0.47 0.13,0.64 0.04,0.41 0.06,0.83 0.05,1.27 -0,0.14 -0.01,0.3 -0.02,0.49l-0 0.11 -0 0.11c-0.01,0.08 -0.01,0.14 -0.01,0.2 -0.01,0.26 0.01,0.45 0.04,0.57 0.05,0.14 0.14,0.23 0.29,0.26 0.28,0.07 0.54,-0.09 0.76,-0.49 0.2,-0.35 0.36,-0.84 0.46,-1.47 0.1,-0.6 0.14,-1.19 0.12,-1.78 -0.03,-0.62 -0.12,-1.09 -0.28,-1.42z"/>
  <path id="17" class="fil0" d="M30.61 11.43c-0.02,0.01 -0.05,0.03 -0.08,0.04l-0.08 0.04 -0.08 0.05c-0.03,0.02 -0.06,0.04 -0.07,0.06 -0.09,0.06 -0.18,0.14 -0.27,0.24 -0.11,0.12 -0.18,0.21 -0.23,0.29 -0.13,0.2 -0.21,0.43 -0.25,0.7 -0.01,0.06 -0.02,0.12 -0.02,0.19l-0.01 0.2c-0.01,0.06 -0.01,0.12 -0.01,0.2l-0 0.2c-0.03,-0.28 -0.03,-0.54 -0.01,-0.78 0.03,-0.28 0.11,-0.53 0.24,-0.74l0.05 -0.08 0.06 -0.08c0.01,-0.02 0.03,-0.04 0.06,-0.07l0.03 -0.03 0.03 -0.04c0.12,-0.11 0.21,-0.19 0.29,-0.23 0.2,-0.13 0.43,-0.22 0.68,-0.26l-0.09 0.03 -0.09 0.03c-0.06,0.02 -0.12,0.05 -0.16,0.07zm2.75 0.79c-0.22,-0.51 -0.56,-0.88 -1.01,-1.1 -0.42,-0.21 -0.86,-0.27 -1.34,-0.18 -0.47,0.09 -0.87,0.29 -1.2,0.62 -0.35,0.36 -0.55,0.79 -0.6,1.31 -0.08,0.96 0.05,1.9 0.41,2.82 0.16,0.41 0.34,0.73 0.54,0.96 0.21,0.24 0.42,0.35 0.62,0.32 0.29,-0.04 0.46,-0.22 0.53,-0.55 0.07,-0.37 0.02,-1.01 -0.14,-1.92 -0.13,-0.72 -0.05,-1.1 0.22,-1.14 0.15,-0.02 0.27,0.11 0.36,0.38 0.08,0.25 0.11,0.57 0.1,0.96 -0.03,0.86 0.06,1.46 0.26,1.81 0.15,0.26 0.37,0.38 0.66,0.36 0.25,-0.01 0.45,-0.19 0.62,-0.51 0.16,-0.3 0.27,-0.7 0.32,-1.19 0.06,-0.49 0.06,-0.99 0,-1.5 -0.06,-0.54 -0.18,-1.02 -0.36,-1.44z"/>
  <path id="18" class="fil0" d="M37.74 11.35c-0.05,0.05 -0.1,0.12 -0.16,0.2 -0.08,0.11 -0.17,0.26 -0.26,0.44l-0.06 0.11 -0.06 0.11c-0.05,0.09 -0.09,0.16 -0.14,0.22 -0.06,0.09 -0.12,0.16 -0.16,0.2 -0.07,0.07 -0.15,0.11 -0.22,0.12 0.07,-0.03 0.14,-0.09 0.19,-0.15 0.04,-0.05 0.09,-0.12 0.14,-0.21 0.03,-0.05 0.07,-0.13 0.12,-0.23l0.13 -0.22c0.11,-0.19 0.2,-0.34 0.28,-0.44 0.06,-0.08 0.12,-0.14 0.18,-0.19 0.09,-0.07 0.16,-0.1 0.23,-0.09 -0.07,0.01 -0.14,0.05 -0.2,0.13zm-2.51 3.81c-0.06,0.05 -0.12,0.09 -0.16,0.13 -0.12,0.1 -0.21,0.19 -0.28,0.28 -0.04,0.06 -0.07,0.12 -0.1,0.18 -0.02,0.05 -0.04,0.12 -0.05,0.2 -0,-0.07 0,-0.14 0.02,-0.22 0.02,-0.07 0.05,-0.13 0.09,-0.2 0.06,-0.1 0.15,-0.2 0.28,-0.31 0.09,-0.07 0.2,-0.15 0.33,-0.23l0.09 -0.06 0.08 -0.06c0.07,-0.04 0.12,-0.08 0.16,-0.11 -0.07,0.09 -0.17,0.18 -0.3,0.28l-0.16 0.12zm-0.66 -3.44c-0.04,0.06 -0.07,0.12 -0.08,0.2 -0.02,0.07 -0.03,0.14 -0.03,0.23 -0.03,-0.08 -0.04,-0.16 -0.03,-0.25 0.01,-0.09 0.04,-0.17 0.08,-0.24 0.05,-0.07 0.11,-0.13 0.18,-0.16 0.08,-0.04 0.15,-0.05 0.23,-0.03 -0.15,0.03 -0.27,0.11 -0.36,0.24zm3.37 -0.82c-0.16,0 -0.31,0.08 -0.47,0.24 -0.11,0.12 -0.24,0.3 -0.38,0.53l-0.08 0.14 -0.04 0.07 -0.03 0.07c-0.06,0.11 -0.11,0.2 -0.14,0.25 -0.1,0.16 -0.18,0.24 -0.23,0.25 -0.06,0 -0.18,-0.11 -0.37,-0.33l-0.03 -0.04 -0.04 -0.04c-0.03,-0.03 -0.05,-0.06 -0.07,-0.08 -0.05,-0.07 -0.11,-0.12 -0.15,-0.18 -0.13,-0.14 -0.25,-0.26 -0.37,-0.37 -0.19,-0.17 -0.4,-0.26 -0.61,-0.25 -0.19,0 -0.36,0.07 -0.5,0.21 -0.14,0.14 -0.23,0.31 -0.26,0.52 -0.03,0.22 0.01,0.45 0.13,0.67 0.09,0.16 0.21,0.33 0.37,0.51 0.06,0.07 0.13,0.14 0.22,0.22l0.11 0.11 0.11 0.1c0.18,0.17 0.3,0.3 0.37,0.38 0.11,0.13 0.16,0.25 0.17,0.35 0.01,0.11 -0.05,0.22 -0.18,0.33 -0.05,0.04 -0.11,0.1 -0.2,0.16l-0.05 0.04 -0.06 0.04 -0.12 0.09c-0.2,0.15 -0.35,0.29 -0.45,0.42 -0.14,0.19 -0.22,0.4 -0.23,0.63 -0.01,0.18 0.02,0.34 0.09,0.5 0.07,0.15 0.17,0.27 0.3,0.37 0.29,0.21 0.65,0.24 1.08,0.1 0.58,-0.19 1.16,-0.73 1.73,-1.62 0.52,-0.8 0.85,-1.56 0.99,-2.29 0.15,-0.74 0.16,-1.29 0.02,-1.64 -0.11,-0.3 -0.32,-0.45 -0.62,-0.44z"/>
  <path id="19" class="fil0" d="M42.34 14.59c-0.02,0.01 -0.05,0.03 -0.08,0.06l-0.04 0.03 -0.04 0.03c-0.07,0.05 -0.14,0.09 -0.2,0.1 -0.08,0.02 -0.15,0.02 -0.22,0.01 0.13,-0.03 0.26,-0.09 0.38,-0.18l0.04 -0.03 0.04 -0.03c0.04,-0.03 0.07,-0.04 0.1,-0.06 0.08,-0.04 0.15,-0.05 0.22,-0.03 -0.07,0.01 -0.13,0.04 -0.19,0.09zm-2.25 -2.81c-0.13,0.15 -0.26,0.33 -0.36,0.53 -0.09,0.17 -0.17,0.38 -0.25,0.62 0.04,-0.22 0.11,-0.44 0.2,-0.65 0.09,-0.21 0.21,-0.39 0.36,-0.56 0.16,-0.18 0.33,-0.31 0.52,-0.39 0.11,-0.04 0.21,-0.07 0.31,-0.09 0.11,-0.02 0.22,-0.02 0.31,-0.01 -0.23,0.02 -0.43,0.07 -0.6,0.15 -0.19,0.1 -0.35,0.23 -0.49,0.39zm3.1 3.26c-0.04,-0.44 -0.18,-0.71 -0.44,-0.82 -0.11,-0.05 -0.23,-0.06 -0.36,-0.03 -0.13,0.03 -0.25,0.1 -0.36,0.19 -0.11,0.09 -0.23,0.13 -0.35,0.12 -0.11,-0.01 -0.22,-0.07 -0.32,-0.17 -0.1,-0.11 -0.17,-0.24 -0.21,-0.41 -0.05,-0.18 -0.06,-0.38 -0.03,-0.59 0.04,-0.31 0.18,-0.48 0.41,-0.52 0.17,-0.03 0.4,0.02 0.71,0.14 0.13,0.05 0.25,0.05 0.37,-0.01 0.11,-0.05 0.19,-0.14 0.24,-0.27 0.05,-0.13 0.07,-0.28 0.05,-0.44 -0.02,-0.18 -0.09,-0.34 -0.2,-0.51 -0.24,-0.34 -0.55,-0.58 -0.93,-0.71 -0.35,-0.12 -0.71,-0.13 -1.07,-0.03 -0.46,0.12 -0.85,0.44 -1.15,0.96 -0.33,0.57 -0.5,1.27 -0.5,2.11 0,0.95 0.23,1.7 0.68,2.24 0.21,0.25 0.46,0.44 0.75,0.56 0.29,0.12 0.6,0.16 0.93,0.13 0.56,-0.05 1.02,-0.27 1.35,-0.66 0.32,-0.37 0.46,-0.79 0.42,-1.27z"/>
  <path id="20" class="fil0" d="M46.18 12.23c-0.11,0.14 -0.21,0.26 -0.31,0.36 -0.13,0.12 -0.26,0.21 -0.38,0.26 0.1,-0.07 0.21,-0.17 0.34,-0.31 0.1,-0.11 0.2,-0.23 0.29,-0.36 0.05,-0.06 0.09,-0.13 0.13,-0.19l0.04 -0.05 0.03 -0.05c0.03,-0.04 0.05,-0.08 0.07,-0.1 0.05,-0.07 0.12,-0.12 0.18,-0.15 0.08,-0.04 0.15,-0.06 0.22,-0.05 -0.13,0.01 -0.25,0.09 -0.36,0.24 -0.02,0.02 -0.04,0.06 -0.06,0.1l-0.03 0.05 -0.03 0.05c-0.04,0.06 -0.08,0.12 -0.14,0.2zm-1.54 -0.93c-0.05,0.04 -0.1,0.09 -0.15,0.15 -0.07,0.09 -0.13,0.22 -0.2,0.38 -0.04,0.1 -0.09,0.24 -0.14,0.42l-0.06 0.22 -0.06 0.22c0.01,-0.18 0.03,-0.32 0.06,-0.45 0.03,-0.16 0.08,-0.3 0.13,-0.43 0.07,-0.17 0.14,-0.3 0.22,-0.39 0.05,-0.06 0.11,-0.11 0.17,-0.14 0.07,-0.03 0.14,-0.05 0.21,-0.04 -0.07,0.01 -0.13,0.04 -0.19,0.08zm1.75 2.46c-0.1,-0.06 -0.13,-0.12 -0.07,-0.17 0.02,-0.02 0.06,-0.05 0.13,-0.08l0.04 -0.02 0.05 -0.03c0.04,-0.02 0.08,-0.04 0.11,-0.05 0.2,-0.1 0.35,-0.22 0.47,-0.34 0.18,-0.18 0.3,-0.39 0.38,-0.64 0.07,-0.23 0.06,-0.45 -0.01,-0.65 -0.07,-0.19 -0.19,-0.33 -0.35,-0.42 -0.17,-0.09 -0.34,-0.11 -0.51,-0.06 -0.2,0.06 -0.37,0.2 -0.51,0.43 -0.24,0.39 -0.46,0.66 -0.68,0.8 -0.09,0.06 -0.14,0.08 -0.18,0.05 -0.03,-0.03 -0.02,-0.1 0.02,-0.2 0.19,-0.42 0.25,-0.77 0.18,-1.04 -0.06,-0.22 -0.2,-0.36 -0.41,-0.42 -0.44,-0.11 -0.79,0.13 -1.03,0.72 -0.2,0.47 -0.32,1.16 -0.38,2.07 -0.06,0.91 -0.02,1.65 0.12,2.2 0.16,0.68 0.45,1.01 0.87,0.99 0.38,-0.01 0.6,-0.32 0.67,-0.92 0.02,-0.2 0.02,-0.43 0,-0.68 -0.01,-0.09 -0.02,-0.18 -0.03,-0.26 -0,-0.03 -0.01,-0.07 -0.01,-0.1l-0 -0.04 -0 -0.02 0 -0.01c-0.01,-0.08 -0,-0.13 0.03,-0.16 0.03,-0.03 0.07,-0.02 0.13,0.03 0.14,0.13 0.28,0.46 0.4,0.97 0.08,0.33 0.2,0.6 0.35,0.81 0.14,0.19 0.3,0.32 0.48,0.39 0.17,0.06 0.34,0.06 0.51,-0.01 0.17,-0.07 0.31,-0.2 0.42,-0.38 0.13,-0.2 0.19,-0.43 0.2,-0.69 0.01,-0.25 -0.05,-0.5 -0.15,-0.76 -0.23,-0.55 -0.64,-0.99 -1.21,-1.34z"/>
  <path class="fil1" d="M3.33 5.97c-0.03,0 -0.07,0 -0.13,0.01l-0.07 0.01 -0.07 0c0.08,-0.06 0.17,-0.1 0.27,-0.1 0.05,0 0.1,0.01 0.14,0.02 0.05,0.02 0.09,0.05 0.11,0.09 -0.09,-0.03 -0.18,-0.04 -0.26,-0.04zm-2.22 -1.37c-0.06,0.07 -0.11,0.13 -0.16,0.19 -0.12,0.15 -0.21,0.28 -0.28,0.41 -0.09,0.15 -0.15,0.3 -0.19,0.46 -0.04,0.16 -0.06,0.33 -0.05,0.51l-0.02 -0.13 -0 -0.06 0 -0.07 0 -0.06 0 -0.07 0.01 -0.06 0.01 -0.07c0.03,-0.17 0.09,-0.33 0.18,-0.49 0.08,-0.15 0.19,-0.29 0.3,-0.41 0.06,-0.06 0.12,-0.12 0.18,-0.18l0.1 -0.08c0.04,-0.03 0.07,-0.05 0.1,-0.07l-0.09 0.09 -0.09 0.09zm0.39 -2.71c-0.07,0.03 -0.15,0.07 -0.21,0.11 -0.15,0.08 -0.28,0.18 -0.39,0.28 -0.12,0.1 -0.24,0.22 -0.34,0.36 -0.05,0.07 -0.1,0.14 -0.13,0.21 -0.04,0.08 -0.07,0.16 -0.08,0.24 -0.01,-0.15 0.05,-0.31 0.16,-0.49 0.09,-0.14 0.2,-0.27 0.34,-0.39 0.14,-0.12 0.28,-0.21 0.42,-0.27 0.08,-0.04 0.15,-0.07 0.23,-0.09 0.09,-0.03 0.17,-0.05 0.24,-0.05l-0.11 0.04c-0.05,0.02 -0.08,0.03 -0.11,0.05zm1.45 3.79c-0.22,0.09 -0.42,0.13 -0.6,0.11 -0.15,-0.01 -0.25,-0.05 -0.28,-0.11 -0.01,-0.03 -0.02,-0.06 -0.02,-0.1 -0,-0.05 0.01,-0.1 0.03,-0.15 0.06,-0.14 0.21,-0.29 0.45,-0.45 0.31,-0.2 0.57,-0.46 0.78,-0.78 0.2,-0.31 0.33,-0.62 0.39,-0.95 0.06,-0.34 0.04,-0.65 -0.07,-0.93 -0.12,-0.3 -0.33,-0.53 -0.63,-0.69 -0.36,-0.19 -0.74,-0.26 -1.14,-0.2 -0.35,0.05 -0.69,0.19 -1.01,0.42 -0.3,0.22 -0.52,0.46 -0.67,0.74 -0.15,0.28 -0.18,0.53 -0.1,0.75 0.08,0.21 0.23,0.33 0.45,0.37 0.23,0.04 0.51,-0.03 0.83,-0.19 0.18,-0.09 0.31,-0.14 0.38,-0.16 0.07,-0.01 0.13,-0 0.16,0.04 0.08,0.09 -0.02,0.22 -0.29,0.39 -0.51,0.32 -0.89,0.67 -1.15,1.06 -0.32,0.49 -0.42,1.01 -0.3,1.56 0.09,0.39 0.34,0.67 0.76,0.86 0.34,0.15 0.77,0.22 1.29,0.22 0.52,0 0.95,-0.07 1.28,-0.23 0.34,-0.16 0.54,-0.38 0.59,-0.67 0.03,-0.14 0.02,-0.28 -0.02,-0.42 -0.04,-0.14 -0.11,-0.27 -0.21,-0.37 -0.11,-0.11 -0.23,-0.17 -0.37,-0.2 -0.16,-0.03 -0.34,-0 -0.52,0.08z"/>
  <path id="1" class="fil1" d="M7 5.47c-0.04,0.1 -0.1,0.17 -0.17,0.23 -0.08,0.07 -0.16,0.1 -0.24,0.11 0.15,-0.08 0.26,-0.21 0.34,-0.38 0.06,-0.13 0.11,-0.3 0.13,-0.52 0.04,0.19 0.02,0.38 -0.06,0.56zm-0.5 0.02c-0.1,0.03 -0.19,0 -0.28,-0.09 -0.09,-0.09 -0.15,-0.22 -0.18,-0.38 -0.03,-0.16 -0.02,-0.31 0.02,-0.45 0.05,-0.14 0.12,-0.22 0.21,-0.25 0.1,-0.03 0.19,0 0.28,0.09 0.09,0.09 0.15,0.22 0.18,0.38 0.03,0.16 0.02,0.31 -0.02,0.45 -0.05,0.14 -0.12,0.22 -0.21,0.25zm-1.2 -3.06c-0.11,0.17 -0.21,0.39 -0.3,0.64 -0.07,0.21 -0.12,0.45 -0.17,0.71 0,-0.1 0.01,-0.22 0.03,-0.37 0.02,-0.12 0.05,-0.24 0.08,-0.36 0.07,-0.25 0.17,-0.48 0.29,-0.68 0.15,-0.22 0.32,-0.39 0.52,-0.49 0.1,-0.05 0.21,-0.09 0.33,-0.12 0.12,-0.02 0.23,-0.03 0.34,-0.02 -0.25,0.02 -0.47,0.08 -0.64,0.19 -0.19,0.12 -0.35,0.28 -0.48,0.49zm1.55 -0.97c-0.72,-0.15 -1.29,0.05 -1.72,0.59 -0.38,0.48 -0.59,1.13 -0.62,1.96 -0.03,0.8 0.1,1.53 0.4,2.18 0.32,0.71 0.77,1.13 1.34,1.26 0.53,0.12 1,-0.09 1.42,-0.64 0.38,-0.5 0.63,-1.15 0.75,-1.95 0.12,-0.82 0.06,-1.54 -0.18,-2.16 -0.27,-0.7 -0.73,-1.11 -1.37,-1.25z"/>
  <path id="2" class="fil1" d="M12.15 5.97c-0.03,0 -0.07,0 -0.13,0.01l-0.07 0.01 -0.07 0c0.08,-0.06 0.17,-0.1 0.27,-0.1 0.05,0 0.1,0.01 0.14,0.02 0.05,0.02 0.09,0.05 0.11,0.09 -0.09,-0.03 -0.18,-0.04 -0.26,-0.04zm-2.22 -1.37c-0.06,0.07 -0.11,0.13 -0.16,0.19 -0.12,0.15 -0.21,0.28 -0.28,0.41 -0.09,0.15 -0.15,0.3 -0.19,0.46 -0.04,0.16 -0.06,0.33 -0.05,0.51l-0.02 -0.13 -0 -0.06 0 -0.07 0 -0.06 0 -0.07 0.01 -0.06 0.01 -0.07c0.03,-0.17 0.09,-0.33 0.18,-0.49 0.08,-0.15 0.19,-0.29 0.3,-0.41 0.06,-0.06 0.12,-0.12 0.18,-0.18l0.1 -0.08c0.04,-0.03 0.07,-0.05 0.1,-0.07l-0.09 0.09 -0.09 0.09zm0.39 -2.71c-0.07,0.03 -0.15,0.07 -0.21,0.11 -0.15,0.08 -0.28,0.18 -0.39,0.28 -0.12,0.1 -0.24,0.22 -0.34,0.36 -0.05,0.07 -0.1,0.14 -0.13,0.21 -0.04,0.08 -0.07,0.16 -0.08,0.24 -0.01,-0.15 0.05,-0.31 0.16,-0.49 0.09,-0.14 0.2,-0.27 0.34,-0.39 0.14,-0.12 0.28,-0.21 0.42,-0.27 0.08,-0.04 0.15,-0.07 0.23,-0.09 0.09,-0.03 0.17,-0.05 0.24,-0.05l-0.11 0.04c-0.05,0.02 -0.08,0.03 -0.11,0.05zm1.45 3.79c-0.22,0.09 -0.42,0.13 -0.6,0.11 -0.15,-0.01 -0.25,-0.05 -0.28,-0.11 -0.01,-0.03 -0.02,-0.06 -0.02,-0.1 -0,-0.05 0.01,-0.1 0.03,-0.15 0.06,-0.14 0.21,-0.29 0.45,-0.45 0.31,-0.2 0.57,-0.46 0.78,-0.78 0.2,-0.31 0.33,-0.62 0.39,-0.95 0.06,-0.34 0.04,-0.65 -0.07,-0.93 -0.12,-0.3 -0.33,-0.53 -0.63,-0.69 -0.36,-0.19 -0.74,-0.26 -1.14,-0.2 -0.35,0.05 -0.69,0.19 -1.01,0.42 -0.3,0.22 -0.52,0.46 -0.67,0.74 -0.15,0.28 -0.18,0.53 -0.1,0.75 0.08,0.21 0.23,0.33 0.45,0.37 0.23,0.04 0.51,-0.03 0.83,-0.19 0.18,-0.09 0.31,-0.14 0.38,-0.16 0.07,-0.01 0.13,-0 0.16,0.04 0.08,0.09 -0.02,0.22 -0.29,0.39 -0.51,0.32 -0.89,0.67 -1.15,1.06 -0.32,0.49 -0.42,1.01 -0.3,1.56 0.09,0.39 0.34,0.67 0.76,0.86 0.34,0.15 0.77,0.22 1.29,0.22 0.52,0 0.95,-0.07 1.28,-0.23 0.34,-0.16 0.54,-0.38 0.59,-0.67 0.03,-0.14 0.02,-0.28 -0.02,-0.42 -0.04,-0.14 -0.11,-0.27 -0.21,-0.37 -0.11,-0.11 -0.23,-0.17 -0.37,-0.2 -0.16,-0.03 -0.34,-0 -0.52,0.08z"/>
  <path id="3" class="fil1" d="M15.81 5.47c-0.04,0.1 -0.1,0.17 -0.17,0.23 -0.08,0.07 -0.16,0.1 -0.24,0.11 0.15,-0.08 0.26,-0.21 0.34,-0.38 0.06,-0.13 0.11,-0.3 0.13,-0.52 0.04,0.19 0.02,0.38 -0.06,0.56zm-0.5 0.02c-0.1,0.03 -0.19,0 -0.28,-0.09 -0.09,-0.09 -0.15,-0.22 -0.18,-0.38 -0.03,-0.16 -0.02,-0.31 0.02,-0.45 0.05,-0.14 0.12,-0.22 0.21,-0.25 0.1,-0.03 0.19,0 0.28,0.09 0.09,0.09 0.15,0.22 0.18,0.38 0.03,0.16 0.02,0.31 -0.02,0.45 -0.05,0.14 -0.12,0.22 -0.21,0.25zm-1.2 -3.06c-0.11,0.17 -0.21,0.39 -0.3,0.64 -0.07,0.21 -0.12,0.45 -0.17,0.71 0,-0.1 0.01,-0.22 0.03,-0.37 0.02,-0.12 0.05,-0.24 0.08,-0.36 0.07,-0.25 0.17,-0.48 0.29,-0.68 0.15,-0.22 0.32,-0.39 0.52,-0.49 0.1,-0.05 0.21,-0.09 0.33,-0.12 0.12,-0.02 0.23,-0.03 0.34,-0.02 -0.25,0.02 -0.47,0.08 -0.64,0.19 -0.19,0.12 -0.35,0.28 -0.48,0.49zm1.55 -0.97c-0.72,-0.15 -1.29,0.05 -1.72,0.59 -0.38,0.48 -0.59,1.13 -0.62,1.96 -0.03,0.8 0.1,1.53 0.4,2.18 0.32,0.71 0.77,1.13 1.34,1.26 0.53,0.12 1,-0.09 1.42,-0.64 0.38,-0.5 0.63,-1.15 0.75,-1.95 0.12,-0.82 0.06,-1.54 -0.18,-2.16 -0.27,-0.7 -0.73,-1.11 -1.37,-1.25z"/>
  <path id="4" class="fil1" d="M20.13 4.13c-0.06,0.01 -0.12,0.03 -0.18,0.06l-0.04 0.02 -0.04 0.02c-0.04,0.02 -0.07,0.03 -0.1,0.03 -0.07,0.02 -0.13,0.03 -0.2,0.02l0.09 -0.03c0.04,-0.01 0.07,-0.03 0.09,-0.04l0.04 -0.02 0.04 -0.02c0.03,-0.02 0.06,-0.04 0.09,-0.05 0.07,-0.03 0.14,-0.05 0.2,-0.05 0.08,-0 0.14,0.01 0.19,0.06 -0.06,-0.01 -0.12,-0.01 -0.19,0zm-1.79 0.12c-0.06,0 -0.11,0.01 -0.16,0.01 -0.06,0 -0.11,0.01 -0.15,0.02 -0.03,0.01 -0.05,0.02 -0.06,0.04 -0.01,0.01 -0.02,0.04 -0.04,0.07 -0,-0.04 0,-0.07 0.01,-0.09 0.02,-0.03 0.04,-0.05 0.07,-0.07 0.04,-0.02 0.1,-0.04 0.16,-0.05 0.07,-0.01 0.12,-0 0.17,0 0.06,0.01 0.12,0.02 0.16,0.03 -0.05,0.01 -0.1,0.02 -0.16,0.02zm1.4 -0.31c-0.11,0.06 -0.28,0.09 -0.53,0.08 -0.08,-0.01 -0.19,-0.02 -0.33,-0.03l-0.17 -0.02c-0.06,-0.01 -0.12,-0.01 -0.16,-0.02 -0.26,-0.02 -0.45,-0.01 -0.58,0.04 -0.17,0.06 -0.27,0.18 -0.3,0.37 -0.03,0.24 0.07,0.45 0.3,0.63 0.22,0.16 0.5,0.28 0.86,0.34 0.35,0.06 0.69,0.06 1.01,-0 0.34,-0.07 0.6,-0.2 0.75,-0.39 0.11,-0.13 0.17,-0.29 0.18,-0.46 0.01,-0.16 -0.04,-0.3 -0.13,-0.43 -0.09,-0.13 -0.21,-0.2 -0.37,-0.23 -0.17,-0.03 -0.35,0.01 -0.54,0.11z"/>
  <path id="5" class="fil1" d="M22.58 1.81c-0.18,0.03 -0.33,0.06 -0.44,0.1 -0.17,0.05 -0.31,0.11 -0.41,0.19 -0.07,0.05 -0.13,0.11 -0.16,0.16 -0.04,0.06 -0.07,0.14 -0.07,0.23 -0.02,-0.09 -0.01,-0.17 0.03,-0.25 0.03,-0.07 0.09,-0.13 0.16,-0.19 0.1,-0.08 0.25,-0.15 0.42,-0.21 0.29,-0.09 0.6,-0.11 0.92,-0.08 -0.17,0.02 -0.32,0.04 -0.46,0.06zm0.74 -0.38c-0.64,-0.04 -1.15,0.04 -1.55,0.23 -0.42,0.2 -0.61,0.48 -0.58,0.85 0.02,0.21 0.1,0.36 0.24,0.45 0.1,0.07 0.26,0.11 0.47,0.14l0.13 0.01 0.13 0.01c0.1,0.01 0.18,0.02 0.23,0.03 0.16,0.04 0.26,0.11 0.29,0.21 0.02,0.06 -0,0.43 -0.07,1.1 -0.04,0.34 -0.06,0.63 -0.07,0.87 -0.02,0.34 -0.01,0.64 0.01,0.89 0.03,0.38 0.16,0.69 0.37,0.93 0.22,0.25 0.48,0.36 0.79,0.31 0.56,-0.08 0.76,-0.69 0.61,-1.81 -0.08,-0.59 -0.12,-1.1 -0.13,-1.52 -0.01,-0.45 0.03,-0.71 0.12,-0.78 0.06,-0.05 0.16,-0.07 0.3,-0.08 0.04,0 0.11,0 0.2,0l0.11 0 0.11 -0c0.17,-0 0.3,-0.03 0.4,-0.08 0.13,-0.07 0.21,-0.17 0.25,-0.33 0.05,-0.19 0.03,-0.37 -0.08,-0.55 -0.1,-0.16 -0.27,-0.31 -0.49,-0.44 -0.46,-0.26 -1.06,-0.42 -1.79,-0.46z"/>
  <path id="6" class="fil1" d="M29.14 2.11c-0.07,0.09 -0.14,0.19 -0.21,0.31 -0.12,0.21 -0.23,0.44 -0.32,0.68l-0.06 0.18 -0.06 0.18c-0.05,0.16 -0.09,0.28 -0.13,0.36 -0.06,0.15 -0.12,0.27 -0.18,0.34 -0.04,0.06 -0.09,0.09 -0.15,0.11 -0.05,0.02 -0.11,0.03 -0.18,0.02 0.07,-0 0.13,-0.02 0.17,-0.04 0.05,-0.03 0.09,-0.07 0.13,-0.12 0.05,-0.07 0.1,-0.18 0.15,-0.34l0.05 -0.18 0.06 -0.18c0.04,-0.15 0.08,-0.27 0.12,-0.36 0.1,-0.26 0.21,-0.49 0.34,-0.68 0.17,-0.25 0.34,-0.43 0.52,-0.53 -0.1,0.07 -0.18,0.15 -0.26,0.25zm-2.58 0.98c-0.04,0.17 -0.07,0.38 -0.1,0.62l-0.03 0.31 -0.04 0.31c-0.02,-0.62 0.04,-1.17 0.2,-1.65 0.03,-0.1 0.06,-0.18 0.09,-0.26 0.05,-0.1 0.09,-0.19 0.14,-0.26 0.13,-0.19 0.27,-0.28 0.44,-0.27 -0.2,0.02 -0.36,0.18 -0.49,0.47 -0.05,0.11 -0.09,0.23 -0.13,0.38 -0.02,0.05 -0.03,0.11 -0.04,0.18l-0.02 0.08 -0.01 0.04 -0.01 0.04zm3.58 -1.52c-0.32,-0.21 -0.64,-0.19 -0.97,0.05 -0.27,0.2 -0.51,0.52 -0.72,0.96 -0.07,0.14 -0.13,0.31 -0.2,0.49 -0.02,0.07 -0.05,0.15 -0.08,0.24l-0.03 0.11 -0.02 0.05 -0.02 0.05c-0.05,0.15 -0.09,0.26 -0.12,0.32 -0.04,0.08 -0.07,0.12 -0.11,0.12 -0.07,-0.01 -0.1,-0.06 -0.11,-0.17 -0.01,-0.1 0.01,-0.31 0.06,-0.65 0.08,-0.62 0.05,-1.06 -0.11,-1.31 -0.13,-0.2 -0.33,-0.28 -0.6,-0.24 -0.33,0.05 -0.6,0.39 -0.79,1.02 -0.19,0.61 -0.27,1.36 -0.24,2.24 0.05,1.62 0.49,2.5 1.33,2.62 0.25,0.03 0.49,-0.03 0.73,-0.19 0.23,-0.15 0.42,-0.36 0.58,-0.63 0.14,-0.23 0.26,-0.45 0.36,-0.65 0.04,-0.08 0.07,-0.15 0.1,-0.23 0.02,-0.05 0.05,-0.1 0.07,-0.17 0.04,-0.1 0.07,-0.17 0.08,-0.18 0.02,-0.03 0.05,-0.04 0.08,-0.03 0.03,0.01 0.04,0.13 0.01,0.35l-0.01 0.08 -0.01 0.08c-0.01,0.07 -0.01,0.13 -0.02,0.18 -0.01,0.15 -0.02,0.28 -0.03,0.39 -0.01,0.69 0.21,1.03 0.68,1.03 0.3,-0 0.53,-0.28 0.7,-0.83 0.15,-0.5 0.22,-1.12 0.23,-1.87 0,-0.74 -0.07,-1.41 -0.21,-2 -0.15,-0.64 -0.36,-1.05 -0.61,-1.22z"/>
  <path id="7" class="fil1" d="M35.64 5.19c-0.05,0.05 -0.11,0.08 -0.17,0.09 -0.07,0.02 -0.13,0.02 -0.19,0 0.12,-0.03 0.22,-0.09 0.31,-0.16 0.07,-0.06 0.15,-0.15 0.23,-0.28 -0.02,0.14 -0.08,0.25 -0.19,0.34zm-0.42 -0.24c-0.06,-0.03 -0.1,-0.08 -0.12,-0.16 -0.02,-0.08 -0.02,-0.16 0.01,-0.25 0.03,-0.09 0.08,-0.15 0.15,-0.2 0.07,-0.04 0.13,-0.05 0.19,-0.02 0.06,0.02 0.1,0.08 0.12,0.16 0.02,0.08 0.01,0.16 -0.02,0.25 -0.03,0.09 -0.08,0.15 -0.15,0.2 -0.07,0.04 -0.13,0.05 -0.19,0.02zm-0.63 -2.28c-0.1,0.15 -0.22,0.34 -0.36,0.59 -0.05,0.09 -0.1,0.19 -0.16,0.31l-0.16 0.31c0.08,-0.21 0.17,-0.42 0.28,-0.64 0.1,-0.21 0.22,-0.41 0.35,-0.61 0.15,-0.23 0.3,-0.41 0.43,-0.54l0.06 -0.06c0.02,-0.02 0.04,-0.04 0.06,-0.05l0.07 -0.06 0.07 -0.05c0.12,-0.07 0.23,-0.1 0.32,-0.1 -0.09,0.01 -0.19,0.05 -0.3,0.13l-0.06 0.05 -0.06 0.06c-0.02,0.01 -0.04,0.03 -0.06,0.06l-0.06 0.06c-0.13,0.15 -0.27,0.33 -0.41,0.54zm1.04 -1.23c-0.34,-0.06 -0.72,0.2 -1.14,0.76 -0.38,0.51 -0.72,1.16 -1.03,1.95 -0.3,0.79 -0.48,1.49 -0.53,2.1 -0.05,0.67 0.07,1.07 0.36,1.19 0.22,0.09 0.44,0.09 0.64,-0.01 0.16,-0.07 0.32,-0.21 0.5,-0.41 0.03,-0.04 0.07,-0.08 0.11,-0.13l0.1 -0.13c0.09,-0.11 0.15,-0.19 0.19,-0.23 0.14,-0.16 0.25,-0.24 0.35,-0.24 0.1,0 0.22,0.08 0.36,0.22 0.04,0.05 0.11,0.12 0.19,0.22l0.11 0.12 0.11 0.12c0.18,0.19 0.34,0.32 0.48,0.38 0.19,0.09 0.38,0.09 0.57,-0.01 0.22,-0.11 0.35,-0.47 0.38,-1.08 0.03,-0.57 -0.03,-1.22 -0.18,-1.95 -0.15,-0.76 -0.36,-1.4 -0.62,-1.91 -0.3,-0.58 -0.61,-0.9 -0.95,-0.96z"/>
  <path id="8" class="fil1" d="M40.39 3.95c-0.03,0.08 -0.07,0.15 -0.13,0.22 -0.06,0.07 -0.13,0.12 -0.2,0.15 -0.08,0.03 -0.16,0.04 -0.23,0.02 0.08,-0.02 0.15,-0.04 0.21,-0.08 0.07,-0.04 0.12,-0.09 0.17,-0.14 0.1,-0.11 0.17,-0.25 0.22,-0.42 0.01,0.08 -0,0.17 -0.03,0.25zm-0.71 -0.36c0.04,-0.09 0.09,-0.15 0.16,-0.18 0.07,-0.04 0.13,-0.04 0.18,-0.01 0.05,0.03 0.09,0.09 0.1,0.17 0.01,0.08 -0,0.16 -0.04,0.25 -0.04,0.09 -0.09,0.15 -0.16,0.18 -0.07,0.04 -0.13,0.04 -0.18,0.01 -0.05,-0.03 -0.09,-0.09 -0.1,-0.17 -0.01,-0.08 0,-0.17 0.04,-0.25zm-0.6 -1.67c-0.18,0.09 -0.33,0.21 -0.46,0.36 -0.12,0.14 -0.23,0.31 -0.32,0.51 -0.07,0.16 -0.13,0.36 -0.19,0.59 0.01,-0.09 0.02,-0.19 0.05,-0.31 0.03,-0.11 0.06,-0.21 0.09,-0.3 0.08,-0.2 0.18,-0.38 0.31,-0.54 0.14,-0.17 0.3,-0.29 0.49,-0.36 0.09,-0.04 0.19,-0.07 0.28,-0.09 0.11,-0.02 0.2,-0.03 0.29,-0.03 -0.22,0.03 -0.4,0.09 -0.55,0.17zm0.73 -0.5c-0.52,-0.01 -0.95,0.15 -1.3,0.47 -0.3,0.28 -0.52,0.68 -0.64,1.19 -0.11,0.47 -0.14,0.98 -0.08,1.54 0.05,0.54 0.18,1.04 0.38,1.51 0.19,0.45 0.41,0.79 0.64,1.03 0.21,0.21 0.42,0.33 0.63,0.35 0.19,0.02 0.35,-0.04 0.49,-0.18 0.14,-0.14 0.22,-0.33 0.25,-0.57 0.02,-0.16 0.02,-0.35 -0.01,-0.56 -0.01,-0.06 -0.03,-0.14 -0.04,-0.25l-0.02 -0.12c-0.01,-0.04 -0.01,-0.08 -0.02,-0.11 -0.02,-0.17 -0.02,-0.29 0.01,-0.39 0.03,-0.12 0.11,-0.21 0.24,-0.27 0.42,-0.22 0.74,-0.53 0.95,-0.94 0.2,-0.38 0.28,-0.78 0.23,-1.2 -0.05,-0.42 -0.21,-0.77 -0.5,-1.04 -0.31,-0.29 -0.71,-0.44 -1.21,-0.45z"/>
  <path id="9" class="fil1" d="M44.53 5.65c-0.05,0.08 -0.11,0.14 -0.19,0.17 -0.08,0.04 -0.16,0.05 -0.24,0.03 0.16,-0.03 0.28,-0.11 0.36,-0.25 0.04,-0.06 0.07,-0.13 0.09,-0.22 0.01,-0.07 0.02,-0.16 0.02,-0.25 0.03,0.08 0.04,0.17 0.04,0.26 -0.01,0.09 -0.03,0.18 -0.08,0.25zm-0.69 -0.33c-0.04,-0.08 -0.05,-0.16 -0.04,-0.24 0.01,-0.08 0.04,-0.14 0.1,-0.17 0.06,-0.03 0.12,-0.02 0.18,0.01 0.07,0.04 0.12,0.1 0.16,0.18 0.04,0.08 0.05,0.17 0.04,0.25 -0.01,0.08 -0.04,0.13 -0.1,0.17 -0.05,0.03 -0.11,0.03 -0.18,-0.01 -0.07,-0.04 -0.12,-0.1 -0.16,-0.18zm-0.36 -3.51c-0.05,0.03 -0.1,0.06 -0.16,0.11 -0.09,0.08 -0.18,0.18 -0.27,0.3 -0.07,0.09 -0.15,0.2 -0.23,0.34 -0.03,0.05 -0.07,0.11 -0.11,0.18l-0.1 0.18c0.05,-0.16 0.11,-0.29 0.16,-0.4 0.07,-0.14 0.14,-0.26 0.22,-0.36 0.1,-0.13 0.19,-0.23 0.3,-0.3 0.13,-0.1 0.26,-0.14 0.38,-0.13 -0.06,0.01 -0.12,0.03 -0.18,0.07zm1.01 2.05c-0.13,-0.04 -0.22,-0.12 -0.25,-0.23 -0.03,-0.09 -0.03,-0.22 -0,-0.39 0.01,-0.03 0.01,-0.07 0.02,-0.12l0.02 -0.12c0.02,-0.11 0.04,-0.2 0.05,-0.26 0.03,-0.22 0.04,-0.41 0.02,-0.57 -0.03,-0.24 -0.11,-0.43 -0.25,-0.56 -0.14,-0.14 -0.3,-0.2 -0.5,-0.18 -0.21,0.02 -0.42,0.13 -0.62,0.35 -0.24,0.24 -0.45,0.58 -0.64,1.03 -0.2,0.46 -0.33,0.96 -0.38,1.5 -0.06,0.56 -0.03,1.07 0.08,1.53 0.13,0.51 0.34,0.91 0.64,1.19 0.34,0.32 0.77,0.47 1.3,0.47 0.5,-0.01 0.91,-0.17 1.23,-0.49 0.3,-0.29 0.48,-0.66 0.54,-1.09 0.06,-0.44 -0.01,-0.84 -0.22,-1.21 -0.23,-0.4 -0.57,-0.68 -1.04,-0.84zm1.63 -1.95c-0.04,0.04 -0.08,0.1 -0.1,0.16 -0.02,0.06 -0.03,0.13 -0.03,0.2 -0.01,0.1 0.01,0.24 0.03,0.42l0.04 0.21 0.04 0.21c-0.06,-0.15 -0.1,-0.29 -0.13,-0.41 -0.04,-0.16 -0.06,-0.31 -0.05,-0.44 0.01,-0.09 0.02,-0.16 0.04,-0.22 0.03,-0.08 0.07,-0.14 0.13,-0.19 0.11,-0.09 0.24,-0.12 0.39,-0.11 -0.15,0.02 -0.26,0.07 -0.35,0.16zm1.37 0.24c-0.11,-0.22 -0.25,-0.4 -0.43,-0.53 -0.16,-0.11 -0.33,-0.18 -0.51,-0.19 -0.17,-0.01 -0.33,0.02 -0.48,0.09 -0.15,0.08 -0.25,0.19 -0.32,0.33 -0.13,0.26 -0.12,0.66 0.01,1.17 0.02,0.08 0.05,0.19 0.09,0.32l0.05 0.17 0.05 0.16c0.07,0.26 0.11,0.47 0.13,0.64 0.04,0.41 0.06,0.83 0.05,1.27 -0,0.14 -0.01,0.3 -0.02,0.49l-0 0.11 -0 0.11c-0.01,0.08 -0.01,0.14 -0.01,0.2 -0.01,0.26 0.01,0.45 0.04,0.57 0.05,0.14 0.14,0.23 0.29,0.26 0.28,0.07 0.54,-0.09 0.76,-0.49 0.2,-0.35 0.36,-0.84 0.46,-1.47 0.1,-0.6 0.14,-1.19 0.12,-1.78 -0.03,-0.62 -0.12,-1.09 -0.29,-1.42z"/>
  <path id="10" class="fil1" d="M51.58 1.85c-0.04,0.02 -0.07,0.05 -0.1,0.09 -0.04,0.06 -0.08,0.15 -0.1,0.27 -0.03,0.16 -0.04,0.36 -0.03,0.61l0 0.08 0 0.08c0,0.06 0,0.12 -0,0.16 -0.01,0.12 -0.04,0.22 -0.07,0.31 -0.04,0.1 -0.1,0.19 -0.17,0.26 -0.08,0.07 -0.16,0.12 -0.25,0.15 0.18,-0.09 0.3,-0.24 0.37,-0.44 0.03,-0.1 0.05,-0.19 0.05,-0.29 0,-0.04 0,-0.09 0,-0.15l-0 -0.08 0 -0.08c-0,-0.25 0.01,-0.46 0.05,-0.62 0.03,-0.13 0.08,-0.22 0.13,-0.29 0.04,-0.04 0.08,-0.07 0.12,-0.09 0.04,-0.01 0.08,-0.02 0.14,-0.02 -0.06,0.01 -0.1,0.02 -0.14,0.04zm-2.63 0.11c-0.09,0.1 -0.16,0.23 -0.21,0.38 -0.04,0.13 -0.08,0.28 -0.12,0.45l-0.05 0.22 -0.05 0.23c0.01,-0.32 0.06,-0.63 0.15,-0.93 0.05,-0.17 0.13,-0.31 0.24,-0.41 0.06,-0.06 0.12,-0.1 0.19,-0.13 0.08,-0.03 0.15,-0.04 0.21,-0.03 -0.14,0.01 -0.26,0.08 -0.36,0.21zm2.75 -0.47c-0.26,0.02 -0.45,0.15 -0.56,0.39 -0.11,0.23 -0.15,0.6 -0.13,1.09 0.01,0.22 -0.04,0.38 -0.13,0.48 -0.08,0.09 -0.18,0.13 -0.31,0.12 -0.13,-0.01 -0.22,-0.07 -0.29,-0.18 -0.07,-0.11 -0.09,-0.25 -0.07,-0.43 0.05,-0.5 0,-0.87 -0.14,-1.12 -0.13,-0.22 -0.33,-0.36 -0.62,-0.41 -0.23,-0.04 -0.44,0.02 -0.63,0.18 -0.18,0.15 -0.31,0.36 -0.4,0.64 -0.16,0.53 -0.25,1.15 -0.26,1.87 -0.01,0.69 0.06,1.36 0.2,1.98 0.1,0.47 0.27,0.8 0.49,1 0.18,0.17 0.39,0.23 0.61,0.2 0.5,-0.08 0.72,-0.48 0.67,-1.19 -0.04,-0.52 0.07,-0.78 0.3,-0.78 0.12,0 0.21,0.05 0.27,0.14 0.08,0.13 0.12,0.33 0.11,0.61 -0.02,0.47 0.05,0.82 0.21,1.07 0.15,0.23 0.36,0.34 0.63,0.34 0.46,0 0.78,-0.31 0.97,-0.94 0.13,-0.45 0.22,-1.2 0.24,-2.25 0.02,-0.81 -0.07,-1.48 -0.28,-2.01 -0.22,-0.56 -0.51,-0.83 -0.89,-0.81z"/>
  <path id="11" class="fil1" d="M1.08 10.91c-0.07,0.03 -0.13,0.06 -0.18,0.09 -0.06,0.03 -0.11,0.08 -0.17,0.12 -0.11,0.09 -0.2,0.2 -0.27,0.32 -0.07,0.14 -0.11,0.29 -0.12,0.42 -0.02,-0.15 0,-0.3 0.07,-0.45 0.06,-0.14 0.15,-0.26 0.27,-0.36 0.12,-0.1 0.25,-0.17 0.38,-0.21 0.14,-0.05 0.28,-0.06 0.42,-0.03 -0.14,0.01 -0.27,0.04 -0.4,0.1zm1.45 0.5c-0.12,-0.34 -0.29,-0.58 -0.51,-0.74 -0.19,-0.14 -0.41,-0.2 -0.66,-0.18 -0.22,0.01 -0.44,0.08 -0.65,0.21 -0.2,0.12 -0.36,0.27 -0.46,0.44 -0.09,0.14 -0.15,0.3 -0.19,0.46 -0.03,0.16 -0.03,0.3 -0,0.43 0.03,0.14 0.09,0.24 0.17,0.31 0.09,0.07 0.2,0.1 0.34,0.08 0.16,-0.02 0.27,0.1 0.34,0.37 0.02,0.1 0.04,0.22 0.05,0.36 0.01,0.05 0.01,0.11 0.02,0.18l0 0.08 0 0.08c0.02,0.41 0.02,0.84 -0.02,1.27 -0.01,0.14 -0.03,0.31 -0.05,0.5l-0.01 0.11 -0.01 0.11c-0.01,0.08 -0.01,0.14 -0.02,0.2 -0.02,0.27 -0.02,0.46 0.01,0.57 0.04,0.14 0.13,0.24 0.28,0.28 0.28,0.09 0.55,-0.06 0.79,-0.44 0.22,-0.34 0.4,-0.82 0.54,-1.43 0.13,-0.59 0.2,-1.18 0.21,-1.78 0.01,-0.62 -0.05,-1.11 -0.18,-1.47z"/>
  <path id="12" class="fil1" d="M5.55 13.18c-0.06,0.01 -0.12,0.03 -0.18,0.06l-0.04 0.02 -0.04 0.02c-0.04,0.02 -0.07,0.03 -0.1,0.03 -0.07,0.02 -0.13,0.03 -0.2,0.02l0.09 -0.03c0.04,-0.01 0.07,-0.03 0.09,-0.04l0.04 -0.02 0.04 -0.02c0.03,-0.02 0.06,-0.04 0.09,-0.05 0.07,-0.03 0.14,-0.05 0.2,-0.05 0.08,-0 0.14,0.01 0.19,0.06 -0.06,-0.01 -0.12,-0.01 -0.19,0zm-1.79 0.12c-0.06,0 -0.11,0.01 -0.16,0.01 -0.06,0 -0.11,0.01 -0.15,0.02 -0.03,0.01 -0.05,0.02 -0.06,0.04 -0.01,0.01 -0.02,0.04 -0.04,0.07 -0,-0.04 0,-0.07 0.01,-0.09 0.02,-0.03 0.04,-0.05 0.07,-0.07 0.04,-0.02 0.1,-0.04 0.16,-0.05 0.07,-0.01 0.12,-0 0.17,0 0.06,0.01 0.12,0.02 0.16,0.03 -0.05,0.01 -0.1,0.02 -0.16,0.02zm1.4 -0.31c-0.11,0.06 -0.28,0.09 -0.53,0.08 -0.08,-0.01 -0.19,-0.02 -0.33,-0.03l-0.17 -0.02c-0.06,-0.01 -0.12,-0.01 -0.16,-0.02 -0.26,-0.02 -0.45,-0.01 -0.58,0.04 -0.17,0.06 -0.27,0.18 -0.3,0.37 -0.03,0.24 0.07,0.45 0.3,0.63 0.22,0.16 0.5,0.28 0.86,0.34 0.35,0.06 0.69,0.06 1.01,-0 0.34,-0.07 0.6,-0.2 0.75,-0.39 0.11,-0.13 0.17,-0.29 0.18,-0.46 0.01,-0.16 -0.04,-0.3 -0.13,-0.43 -0.09,-0.13 -0.21,-0.2 -0.37,-0.23 -0.17,-0.03 -0.35,0.01 -0.54,0.11z"/>
  <path id="13" class="fil1" d="M8 10.86c-0.18,0.03 -0.33,0.06 -0.44,0.1 -0.17,0.05 -0.31,0.11 -0.41,0.19 -0.07,0.05 -0.13,0.11 -0.16,0.16 -0.04,0.06 -0.07,0.14 -0.07,0.23 -0.02,-0.09 -0.01,-0.17 0.03,-0.25 0.03,-0.07 0.09,-0.13 0.16,-0.19 0.1,-0.08 0.25,-0.15 0.42,-0.21 0.29,-0.09 0.6,-0.11 0.92,-0.08 -0.17,0.02 -0.32,0.04 -0.46,0.06zm0.74 -0.38c-0.64,-0.04 -1.15,0.04 -1.55,0.23 -0.42,0.2 -0.61,0.48 -0.58,0.85 0.02,0.21 0.1,0.36 0.24,0.45 0.1,0.07 0.26,0.11 0.47,0.14l0.13 0.01 0.13 0.01c0.1,0.01 0.18,0.02 0.23,0.03 0.16,0.04 0.26,0.11 0.29,0.21 0.02,0.06 -0,0.43 -0.07,1.1 -0.04,0.34 -0.06,0.63 -0.07,0.87 -0.02,0.34 -0.01,0.64 0.01,0.89 0.03,0.38 0.16,0.69 0.37,0.93 0.22,0.25 0.48,0.36 0.79,0.31 0.56,-0.08 0.76,-0.69 0.61,-1.81 -0.08,-0.59 -0.12,-1.1 -0.13,-1.52 -0.01,-0.45 0.03,-0.71 0.12,-0.78 0.06,-0.05 0.16,-0.07 0.3,-0.08 0.04,0 0.11,0 0.2,0l0.11 0 0.11 -0c0.17,-0 0.3,-0.03 0.4,-0.08 0.13,-0.07 0.21,-0.17 0.25,-0.33 0.05,-0.19 0.03,-0.37 -0.08,-0.55 -0.1,-0.16 -0.27,-0.31 -0.49,-0.44 -0.46,-0.26 -1.06,-0.42 -1.79,-0.46z"/>
  <path id="14" class="fil1" d="M14.56 11.16c-0.07,0.09 -0.14,0.19 -0.21,0.31 -0.12,0.21 -0.23,0.44 -0.32,0.68l-0.06 0.18 -0.06 0.18c-0.05,0.16 -0.09,0.28 -0.13,0.36 -0.06,0.15 -0.12,0.27 -0.18,0.34 -0.04,0.06 -0.09,0.09 -0.15,0.11 -0.05,0.02 -0.11,0.03 -0.18,0.02 0.07,-0 0.13,-0.02 0.17,-0.04 0.05,-0.03 0.09,-0.07 0.13,-0.12 0.05,-0.07 0.1,-0.18 0.15,-0.34l0.05 -0.18 0.06 -0.18c0.04,-0.15 0.08,-0.27 0.12,-0.36 0.1,-0.26 0.21,-0.49 0.34,-0.68 0.17,-0.25 0.34,-0.43 0.52,-0.53 -0.1,0.07 -0.18,0.15 -0.26,0.25zm-2.58 0.98c-0.04,0.17 -0.07,0.38 -0.1,0.62l-0.03 0.31 -0.04 0.31c-0.02,-0.62 0.04,-1.17 0.2,-1.65 0.03,-0.1 0.06,-0.18 0.09,-0.26 0.05,-0.1 0.09,-0.19 0.14,-0.26 0.13,-0.19 0.27,-0.28 0.44,-0.27 -0.2,0.02 -0.36,0.18 -0.49,0.47 -0.05,0.11 -0.09,0.23 -0.13,0.38 -0.02,0.05 -0.03,0.11 -0.04,0.18l-0.02 0.08 -0.01 0.04 -0.01 0.04zm3.58 -1.52c-0.32,-0.21 -0.64,-0.19 -0.97,0.05 -0.27,0.2 -0.51,0.52 -0.72,0.96 -0.07,0.14 -0.13,0.31 -0.2,0.49 -0.02,0.07 -0.05,0.15 -0.08,0.24l-0.03 0.11 -0.02 0.05 -0.02 0.05c-0.05,0.15 -0.09,0.26 -0.12,0.32 -0.04,0.08 -0.07,0.12 -0.11,0.12 -0.07,-0.01 -0.1,-0.06 -0.11,-0.17 -0.01,-0.1 0.01,-0.31 0.06,-0.65 0.08,-0.62 0.05,-1.06 -0.11,-1.31 -0.13,-0.2 -0.33,-0.28 -0.6,-0.24 -0.33,0.05 -0.6,0.39 -0.79,1.02 -0.19,0.61 -0.27,1.36 -0.24,2.24 0.05,1.62 0.49,2.5 1.33,2.62 0.25,0.03 0.49,-0.03 0.73,-0.19 0.23,-0.15 0.42,-0.36 0.58,-0.63 0.14,-0.23 0.26,-0.45 0.36,-0.65 0.04,-0.08 0.07,-0.15 0.1,-0.23 0.02,-0.05 0.05,-0.1 0.07,-0.17 0.04,-0.1 0.07,-0.17 0.08,-0.18 0.02,-0.03 0.05,-0.04 0.08,-0.03 0.03,0.01 0.04,0.13 0.01,0.35l-0.01 0.08 -0.01 0.08c-0.01,0.07 -0.01,0.13 -0.02,0.18 -0.01,0.15 -0.02,0.28 -0.03,0.39 -0.01,0.69 0.21,1.03 0.68,1.03 0.3,-0 0.53,-0.28 0.7,-0.83 0.15,-0.5 0.22,-1.12 0.23,-1.87 0,-0.74 -0.07,-1.41 -0.21,-2 -0.15,-0.64 -0.36,-1.05 -0.61,-1.22z"/>
  <path id="15" class="fil1" d="M21.14 14.61c-0.04,0.1 -0.11,0.17 -0.19,0.21 -0.08,0.05 -0.17,0.07 -0.26,0.05 0.09,-0.02 0.17,-0.05 0.23,-0.1 0.07,-0.06 0.12,-0.12 0.16,-0.2 0.07,-0.15 0.08,-0.32 0.04,-0.53 0.05,0.08 0.07,0.17 0.08,0.28 0.01,0.1 -0.01,0.2 -0.05,0.29zm-0.72 -0.25c-0.04,-0.08 -0.06,-0.16 -0.05,-0.25 0.01,-0.08 0.04,-0.14 0.09,-0.17 0.05,-0.03 0.12,-0.03 0.18,0 0.07,0.03 0.13,0.09 0.17,0.17 0.04,0.08 0.06,0.17 0.05,0.25 -0.01,0.08 -0.04,0.14 -0.09,0.18 -0.05,0.03 -0.12,0.03 -0.18,0 -0.07,-0.03 -0.13,-0.09 -0.17,-0.18zm-0.34 -1.76c0.06,-0.02 0.12,-0.04 0.17,-0.07 0.05,-0.04 0.1,-0.08 0.14,-0.12 0.04,-0.04 0.08,-0.1 0.11,-0.16 0.03,-0.05 0.05,-0.11 0.08,-0.18 0.01,0.14 -0.03,0.28 -0.14,0.4 -0.05,0.05 -0.11,0.09 -0.17,0.12 -0.07,0.03 -0.13,0.03 -0.19,0.02zm-0.08 -0.61c0.03,-0.06 0.07,-0.1 0.11,-0.12 0.04,-0.02 0.09,-0.02 0.12,0 0.03,0.02 0.05,0.06 0.06,0.11 0.01,0.05 -0.01,0.11 -0.04,0.16 -0.03,0.06 -0.07,0.1 -0.11,0.12 -0.04,0.02 -0.08,0.02 -0.12,0 -0.03,-0.02 -0.05,-0.06 -0.06,-0.11 -0.01,-0.05 0.01,-0.11 0.03,-0.16zm-0.66 -0.76c-0.06,0.07 -0.13,0.15 -0.19,0.26 -0.1,0.16 -0.19,0.36 -0.27,0.59 -0.06,0.18 -0.13,0.4 -0.18,0.64 0.02,-0.22 0.06,-0.44 0.13,-0.66 0.07,-0.22 0.16,-0.43 0.27,-0.62 0.13,-0.21 0.28,-0.37 0.45,-0.47 0.11,-0.07 0.2,-0.11 0.29,-0.14 0.11,-0.03 0.21,-0.04 0.31,-0.03 -0.21,0.02 -0.4,0.09 -0.57,0.22 -0.09,0.06 -0.16,0.13 -0.23,0.21zm1.68 1.62c-0.04,-0.02 -0.05,-0.07 -0.03,-0.14 0.01,-0.03 0.03,-0.07 0.06,-0.12l0.02 -0.03 0.02 -0.04c0.01,-0.03 0.03,-0.06 0.04,-0.09 0.07,-0.15 0.12,-0.3 0.15,-0.44 0.04,-0.2 0.05,-0.41 0.01,-0.62 -0.04,-0.24 -0.16,-0.44 -0.37,-0.61 -0.21,-0.17 -0.46,-0.26 -0.74,-0.27 -0.3,-0.01 -0.59,0.08 -0.85,0.28 -0.3,0.23 -0.53,0.57 -0.7,1.03 -0.18,0.48 -0.27,1 -0.29,1.56 -0.02,0.57 0.06,1.1 0.21,1.58 0.17,0.52 0.43,0.93 0.76,1.2 0.38,0.31 0.83,0.45 1.35,0.41 0.5,-0.04 0.91,-0.21 1.2,-0.53 0.27,-0.29 0.42,-0.65 0.45,-1.08 0.03,-0.42 -0.07,-0.82 -0.29,-1.2 -0.24,-0.41 -0.58,-0.7 -1.01,-0.89z"/>
  <path id="16" class="fil1" d="M25.33 14.7c-0.05,0.08 -0.11,0.14 -0.19,0.17 -0.08,0.04 -0.16,0.05 -0.24,0.03 0.16,-0.03 0.28,-0.11 0.36,-0.25 0.04,-0.06 0.07,-0.13 0.09,-0.22 0.01,-0.07 0.02,-0.16 0.02,-0.25 0.03,0.08 0.04,0.17 0.04,0.26 -0.01,0.09 -0.03,0.18 -0.08,0.25zm-0.69 -0.33c-0.04,-0.08 -0.05,-0.16 -0.04,-0.24 0.01,-0.08 0.04,-0.14 0.1,-0.17 0.06,-0.03 0.12,-0.02 0.18,0.01 0.07,0.04 0.12,0.1 0.16,0.18 0.04,0.08 0.05,0.17 0.04,0.25 -0.01,0.08 -0.04,0.13 -0.1,0.17 -0.05,0.03 -0.11,0.03 -0.18,-0.01 -0.07,-0.04 -0.12,-0.1 -0.16,-0.18zm-0.36 -3.51c-0.05,0.03 -0.1,0.06 -0.16,0.11 -0.09,0.08 -0.18,0.18 -0.27,0.3 -0.07,0.09 -0.15,0.2 -0.23,0.34 -0.03,0.05 -0.07,0.11 -0.11,0.18l-0.1 0.18c0.05,-0.16 0.11,-0.29 0.16,-0.4 0.07,-0.14 0.14,-0.26 0.22,-0.36 0.1,-0.13 0.19,-0.23 0.3,-0.3 0.13,-0.1 0.26,-0.14 0.38,-0.13 -0.06,0.01 -0.12,0.03 -0.18,0.07zm1.01 2.05c-0.13,-0.04 -0.22,-0.12 -0.25,-0.23 -0.03,-0.09 -0.03,-0.22 -0,-0.39 0.01,-0.03 0.01,-0.07 0.02,-0.12l0.02 -0.12c0.02,-0.11 0.04,-0.2 0.05,-0.26 0.03,-0.22 0.04,-0.41 0.02,-0.57 -0.03,-0.24 -0.11,-0.43 -0.24,-0.56 -0.14,-0.14 -0.3,-0.2 -0.5,-0.18 -0.21,0.02 -0.42,0.13 -0.62,0.35 -0.24,0.24 -0.45,0.58 -0.64,1.03 -0.2,0.46 -0.33,0.96 -0.38,1.5 -0.06,0.56 -0.03,1.07 0.09,1.53 0.13,0.51 0.34,0.91 0.64,1.19 0.34,0.32 0.77,0.47 1.3,0.47 0.5,-0.01 0.91,-0.17 1.23,-0.49 0.3,-0.29 0.48,-0.66 0.54,-1.09 0.06,-0.44 -0.01,-0.84 -0.22,-1.21 -0.23,-0.4 -0.57,-0.68 -1.04,-0.84zm1.63 -1.95c-0.04,0.04 -0.08,0.1 -0.1,0.16 -0.02,0.06 -0.03,0.13 -0.03,0.2 -0.01,0.1 0.01,0.24 0.03,0.42l0.04 0.21 0.04 0.21c-0.06,-0.15 -0.1,-0.29 -0.13,-0.41 -0.04,-0.16 -0.06,-0.31 -0.05,-0.44 0.01,-0.09 0.02,-0.16 0.04,-0.22 0.03,-0.08 0.07,-0.14 0.13,-0.19 0.11,-0.09 0.24,-0.12 0.39,-0.11 -0.15,0.02 -0.26,0.07 -0.35,0.16zm1.37 0.24c-0.11,-0.22 -0.25,-0.4 -0.43,-0.53 -0.16,-0.11 -0.33,-0.18 -0.51,-0.19 -0.17,-0.01 -0.33,0.02 -0.48,0.09 -0.15,0.08 -0.25,0.19 -0.32,0.33 -0.13,0.26 -0.12,0.66 0.01,1.17 0.02,0.08 0.05,0.19 0.09,0.32l0.05 0.17 0.05 0.16c0.07,0.26 0.11,0.47 0.13,0.64 0.04,0.41 0.06,0.83 0.05,1.27 -0,0.14 -0.01,0.3 -0.02,0.49l-0 0.11 -0 0.11c-0.01,0.08 -0.01,0.14 -0.01,0.2 -0.01,0.26 0.01,0.45 0.04,0.57 0.05,0.14 0.14,0.23 0.29,0.26 0.28,0.07 0.54,-0.09 0.76,-0.49 0.2,-0.35 0.36,-0.84 0.46,-1.47 0.1,-0.6 0.14,-1.19 0.12,-1.78 -0.03,-0.62 -0.12,-1.09 -0.28,-1.42z"/>
  <path id="17" class="fil1" d="M30.39 11c-0.02,0.01 -0.05,0.03 -0.08,0.04l-0.08 0.04 -0.08 0.05c-0.03,0.02 -0.06,0.04 -0.07,0.06 -0.09,0.06 -0.18,0.14 -0.27,0.24 -0.11,0.12 -0.18,0.21 -0.23,0.29 -0.13,0.2 -0.21,0.43 -0.25,0.7 -0.01,0.06 -0.02,0.12 -0.02,0.19l-0.01 0.2c-0.01,0.06 -0.01,0.12 -0.01,0.2l-0 0.2c-0.03,-0.28 -0.03,-0.54 -0.01,-0.78 0.03,-0.28 0.11,-0.53 0.25,-0.74l0.05 -0.08 0.06 -0.08c0.01,-0.02 0.03,-0.04 0.06,-0.07l0.03 -0.03 0.03 -0.04c0.12,-0.11 0.21,-0.19 0.29,-0.23 0.2,-0.13 0.43,-0.22 0.68,-0.26l-0.09 0.03 -0.09 0.03c-0.06,0.02 -0.12,0.05 -0.16,0.07zm2.75 0.79c-0.22,-0.51 -0.56,-0.88 -1.01,-1.1 -0.42,-0.21 -0.86,-0.27 -1.34,-0.18 -0.47,0.09 -0.87,0.29 -1.2,0.62 -0.35,0.36 -0.55,0.79 -0.6,1.31 -0.08,0.96 0.05,1.9 0.41,2.82 0.16,0.41 0.34,0.73 0.54,0.96 0.21,0.24 0.42,0.35 0.62,0.32 0.29,-0.04 0.46,-0.22 0.53,-0.55 0.07,-0.37 0.02,-1.01 -0.14,-1.92 -0.13,-0.72 -0.05,-1.1 0.22,-1.14 0.15,-0.02 0.27,0.11 0.36,0.38 0.08,0.25 0.11,0.57 0.1,0.96 -0.03,0.86 0.06,1.46 0.26,1.81 0.15,0.26 0.37,0.38 0.66,0.36 0.24,-0.01 0.45,-0.19 0.62,-0.51 0.16,-0.3 0.27,-0.7 0.32,-1.19 0.06,-0.49 0.06,-0.99 0,-1.5 -0.06,-0.54 -0.18,-1.02 -0.36,-1.44z"/>
  <path id="18" class="fil1" d="M37.53 10.92c-0.05,0.05 -0.1,0.12 -0.16,0.2 -0.08,0.11 -0.17,0.26 -0.27,0.44l-0.06 0.11 -0.06 0.11c-0.05,0.09 -0.09,0.16 -0.14,0.22 -0.06,0.09 -0.12,0.16 -0.16,0.2 -0.07,0.07 -0.15,0.11 -0.22,0.12 0.07,-0.03 0.14,-0.09 0.19,-0.15 0.04,-0.05 0.09,-0.12 0.14,-0.21 0.03,-0.05 0.07,-0.13 0.12,-0.23l0.13 -0.22c0.11,-0.19 0.2,-0.34 0.28,-0.44 0.06,-0.08 0.12,-0.14 0.18,-0.19 0.09,-0.07 0.16,-0.1 0.23,-0.09 -0.07,0.01 -0.14,0.05 -0.2,0.13zm-2.51 3.81c-0.06,0.05 -0.12,0.09 -0.16,0.13 -0.12,0.1 -0.21,0.19 -0.28,0.28 -0.04,0.06 -0.07,0.12 -0.1,0.18 -0.02,0.05 -0.04,0.12 -0.05,0.2 -0,-0.07 0,-0.14 0.02,-0.22 0.02,-0.07 0.05,-0.13 0.09,-0.2 0.06,-0.1 0.15,-0.2 0.28,-0.31 0.09,-0.07 0.2,-0.15 0.33,-0.23l0.09 -0.06 0.08 -0.06c0.07,-0.04 0.12,-0.08 0.16,-0.11 -0.07,0.09 -0.17,0.18 -0.3,0.28l-0.16 0.12zm-0.66 -3.44c-0.04,0.06 -0.07,0.12 -0.08,0.2 -0.02,0.07 -0.03,0.14 -0.03,0.23 -0.03,-0.08 -0.04,-0.16 -0.03,-0.25 0.01,-0.09 0.04,-0.17 0.09,-0.24 0.05,-0.07 0.11,-0.13 0.18,-0.16 0.08,-0.04 0.15,-0.05 0.23,-0.03 -0.15,0.03 -0.27,0.11 -0.36,0.24zm3.37 -0.82c-0.16,0 -0.31,0.08 -0.47,0.24 -0.11,0.12 -0.24,0.3 -0.38,0.53l-0.08 0.14 -0.04 0.07 -0.03 0.07c-0.06,0.11 -0.11,0.2 -0.14,0.25 -0.1,0.16 -0.18,0.24 -0.23,0.25 -0.06,0 -0.18,-0.11 -0.37,-0.33l-0.03 -0.04 -0.04 -0.04c-0.03,-0.03 -0.05,-0.06 -0.07,-0.08 -0.05,-0.07 -0.11,-0.12 -0.15,-0.18 -0.13,-0.14 -0.25,-0.26 -0.37,-0.37 -0.19,-0.17 -0.4,-0.26 -0.61,-0.25 -0.19,0 -0.36,0.07 -0.5,0.21 -0.14,0.14 -0.23,0.31 -0.26,0.52 -0.03,0.22 0.01,0.45 0.13,0.67 0.09,0.16 0.21,0.33 0.37,0.51 0.06,0.07 0.13,0.14 0.22,0.22l0.11 0.11 0.11 0.1c0.18,0.17 0.3,0.3 0.37,0.38 0.11,0.13 0.16,0.25 0.17,0.35 0.01,0.11 -0.05,0.22 -0.18,0.33 -0.05,0.04 -0.11,0.1 -0.2,0.16l-0.05 0.04 -0.06 0.04 -0.12 0.09c-0.2,0.15 -0.35,0.29 -0.45,0.42 -0.14,0.19 -0.22,0.4 -0.23,0.63 -0.01,0.18 0.02,0.34 0.09,0.5 0.07,0.15 0.17,0.27 0.3,0.37 0.29,0.21 0.65,0.24 1.08,0.1 0.58,-0.19 1.16,-0.73 1.73,-1.62 0.52,-0.8 0.85,-1.56 0.99,-2.29 0.15,-0.74 0.16,-1.29 0.02,-1.64 -0.11,-0.3 -0.32,-0.45 -0.62,-0.44z"/>
  <path id="19" class="fil1" d="M42.12 14.16c-0.02,0.01 -0.05,0.03 -0.08,0.06l-0.04 0.03 -0.04 0.03c-0.07,0.05 -0.14,0.09 -0.2,0.1 -0.08,0.02 -0.15,0.02 -0.22,0.01 0.13,-0.03 0.26,-0.09 0.38,-0.18l0.04 -0.03 0.04 -0.03c0.04,-0.03 0.07,-0.04 0.1,-0.06 0.08,-0.04 0.15,-0.05 0.22,-0.03 -0.07,0.01 -0.13,0.04 -0.19,0.09zm-2.25 -2.81c-0.13,0.15 -0.26,0.33 -0.36,0.53 -0.09,0.17 -0.17,0.38 -0.25,0.62 0.04,-0.22 0.11,-0.44 0.2,-0.65 0.09,-0.21 0.21,-0.39 0.36,-0.56 0.16,-0.18 0.33,-0.31 0.52,-0.39 0.11,-0.04 0.21,-0.07 0.31,-0.09 0.11,-0.02 0.22,-0.02 0.31,-0.01 -0.23,0.02 -0.43,0.07 -0.6,0.15 -0.19,0.1 -0.35,0.23 -0.49,0.39zm3.1 3.26c-0.04,-0.44 -0.18,-0.71 -0.44,-0.82 -0.11,-0.05 -0.23,-0.06 -0.36,-0.03 -0.13,0.03 -0.25,0.1 -0.36,0.19 -0.11,0.09 -0.23,0.13 -0.35,0.12 -0.11,-0.01 -0.22,-0.07 -0.32,-0.17 -0.1,-0.11 -0.17,-0.24 -0.21,-0.41 -0.05,-0.18 -0.06,-0.38 -0.03,-0.59 0.04,-0.31 0.18,-0.48 0.41,-0.52 0.17,-0.03 0.4,0.02 0.71,0.14 0.13,0.05 0.25,0.05 0.37,-0.01 0.11,-0.05 0.19,-0.14 0.24,-0.27 0.05,-0.13 0.07,-0.28 0.05,-0.44 -0.02,-0.18 -0.09,-0.34 -0.2,-0.51 -0.24,-0.34 -0.55,-0.58 -0.93,-0.71 -0.35,-0.12 -0.71,-0.13 -1.07,-0.03 -0.46,0.12 -0.85,0.44 -1.15,0.96 -0.33,0.57 -0.5,1.27 -0.5,2.11 0,0.95 0.23,1.7 0.68,2.24 0.21,0.25 0.46,0.44 0.75,0.56 0.29,0.12 0.6,0.16 0.93,0.13 0.56,-0.05 1.02,-0.27 1.35,-0.66 0.32,-0.37 0.46,-0.79 0.42,-1.27z"/>
  <path id="20" class="fil1" d="M45.97 11.8c-0.11,0.14 -0.21,0.26 -0.31,0.36 -0.13,0.12 -0.26,0.21 -0.38,0.26 0.1,-0.07 0.21,-0.17 0.34,-0.31 0.1,-0.11 0.2,-0.23 0.29,-0.36 0.05,-0.06 0.09,-0.13 0.13,-0.19l0.04 -0.05 0.03 -0.05c0.03,-0.04 0.05,-0.08 0.07,-0.1 0.05,-0.07 0.12,-0.12 0.18,-0.15 0.08,-0.04 0.15,-0.06 0.22,-0.05 -0.13,0.01 -0.25,0.09 -0.36,0.24 -0.02,0.02 -0.04,0.06 -0.06,0.1l-0.03 0.05 -0.03 0.05c-0.04,0.06 -0.08,0.12 -0.14,0.2zm-1.54 -0.93c-0.05,0.04 -0.1,0.09 -0.15,0.15 -0.07,0.09 -0.13,0.22 -0.2,0.38 -0.04,0.1 -0.09,0.24 -0.14,0.42l-0.06 0.22 -0.06 0.22c0.01,-0.18 0.03,-0.32 0.06,-0.45 0.03,-0.16 0.08,-0.3 0.13,-0.43 0.07,-0.17 0.14,-0.3 0.22,-0.39 0.05,-0.06 0.11,-0.11 0.17,-0.14 0.07,-0.03 0.14,-0.05 0.21,-0.04 -0.07,0.01 -0.13,0.04 -0.19,0.08zm1.75 2.46c-0.1,-0.06 -0.13,-0.12 -0.07,-0.17 0.02,-0.02 0.06,-0.05 0.13,-0.08l0.04 -0.02 0.05 -0.03c0.04,-0.02 0.08,-0.04 0.11,-0.05 0.2,-0.1 0.35,-0.22 0.47,-0.34 0.18,-0.18 0.3,-0.39 0.38,-0.64 0.07,-0.23 0.06,-0.45 -0.01,-0.65 -0.07,-0.19 -0.19,-0.33 -0.35,-0.42 -0.17,-0.09 -0.34,-0.11 -0.51,-0.06 -0.2,0.06 -0.37,0.2 -0.51,0.43 -0.24,0.39 -0.46,0.66 -0.68,0.8 -0.09,0.06 -0.14,0.08 -0.18,0.05 -0.03,-0.03 -0.02,-0.1 0.02,-0.2 0.19,-0.42 0.25,-0.77 0.18,-1.04 -0.06,-0.22 -0.2,-0.36 -0.41,-0.42 -0.44,-0.11 -0.79,0.13 -1.03,0.72 -0.2,0.47 -0.32,1.16 -0.38,2.07 -0.06,0.91 -0.02,1.65 0.12,2.2 0.16,0.68 0.45,1.01 0.87,0.99 0.38,-0.01 0.6,-0.32 0.67,-0.92 0.02,-0.2 0.02,-0.43 0,-0.68 -0.01,-0.09 -0.02,-0.18 -0.03,-0.26 -0,-0.03 -0.01,-0.07 -0.01,-0.1l-0 -0.04 -0 -0.02 0 -0.01c-0.01,-0.08 -0,-0.13 0.03,-0.16 0.03,-0.03 0.07,-0.02 0.13,0.03 0.14,0.13 0.28,0.46 0.4,0.97 0.08,0.33 0.2,0.6 0.35,0.81 0.14,0.19 0.3,0.32 0.48,0.39 0.17,0.06 0.34,0.06 0.51,-0.01 0.17,-0.07 0.31,-0.2 0.42,-0.38 0.13,-0.2 0.19,-0.43 0.2,-0.69 0.01,-0.25 -0.05,-0.5 -0.15,-0.76 -0.23,-0.55 -0.64,-0.99 -1.21,-1.34z"/>
  <g id="_2136076136480">
   <path class="fil0" d="M13.08 9.57c-0.03,0.04 -0.06,0.08 -0.09,0.15 -0.01,-0.06 0.01,-0.12 0.06,-0.17 0.02,-0.02 0.05,-0.04 0.08,-0.05 0.03,-0.01 0.06,-0.02 0.09,-0.01 -0.05,0.01 -0.1,0.04 -0.14,0.09zm0.14 -0.23c-0.09,0 -0.18,0.04 -0.25,0.11 -0.07,0.07 -0.11,0.15 -0.13,0.25 -0.01,0.1 0,0.19 0.05,0.28 0.05,0.09 0.12,0.14 0.21,0.17 0.1,0.03 0.2,0.01 0.29,-0.06 0.09,-0.07 0.15,-0.16 0.16,-0.29 0.02,-0.12 -0.01,-0.23 -0.08,-0.32 -0.07,-0.09 -0.16,-0.13 -0.27,-0.13z"/>
   <path id="1" class="fil0" d="M14.71 9.57c-0.03,0.04 -0.06,0.08 -0.09,0.15 -0.01,-0.06 0.01,-0.12 0.06,-0.17 0.02,-0.02 0.05,-0.04 0.08,-0.05 0.03,-0.01 0.06,-0.02 0.09,-0.01 -0.05,0.01 -0.1,0.04 -0.14,0.09zm0.14 -0.23c-0.09,0 -0.18,0.04 -0.25,0.11 -0.07,0.07 -0.11,0.15 -0.13,0.25 -0.01,0.1 0.01,0.19 0.05,0.28 0.05,0.09 0.12,0.14 0.21,0.17 0.1,0.03 0.2,0.01 0.29,-0.06 0.09,-0.07 0.15,-0.16 0.16,-0.29 0.02,-0.12 -0.01,-0.23 -0.08,-0.32 -0.07,-0.09 -0.16,-0.13 -0.27,-0.13z"/>
   <path class="fil1" d="M13.03 9.4c-0.03,0.04 -0.06,0.08 -0.09,0.15 -0.01,-0.06 0.01,-0.12 0.06,-0.17 0.02,-0.02 0.05,-0.04 0.08,-0.05 0.03,-0.01 0.06,-0.02 0.09,-0.01 -0.05,0.01 -0.1,0.04 -0.14,0.09zm0.14 -0.23c-0.09,0 -0.18,0.04 -0.25,0.11 -0.07,0.07 -0.11,0.15 -0.13,0.25 -0.01,0.1 0.01,0.19 0.05,0.28 0.05,0.09 0.12,0.14 0.21,0.17 0.1,0.03 0.2,0.01 0.29,-0.06 0.09,-0.07 0.15,-0.16 0.16,-0.29 0.02,-0.12 -0.01,-0.23 -0.08,-0.32 -0.07,-0.09 -0.16,-0.13 -0.27,-0.13z"/>
   <path id="1" class="fil1" d="M14.66 9.4c-0.03,0.04 -0.06,0.08 -0.09,0.15 -0.01,-0.06 0.01,-0.12 0.06,-0.17 0.02,-0.02 0.05,-0.04 0.08,-0.05 0.03,-0.01 0.06,-0.02 0.09,-0.01 -0.05,0.01 -0.1,0.04 -0.14,0.09zm0.14 -0.23c-0.09,0 -0.18,0.04 -0.25,0.11 -0.07,0.07 -0.11,0.15 -0.13,0.25 -0.01,0.1 0.01,0.19 0.05,0.28 0.05,0.09 0.12,0.14 0.21,0.17 0.1,0.03 0.2,0.01 0.29,-0.06 0.09,-0.07 0.15,-0.16 0.16,-0.29 0.02,-0.12 -0.01,-0.23 -0.08,-0.32 -0.07,-0.09 -0.16,-0.13 -0.27,-0.13z"/>
  </g>
  <g id="_2136076139424">
   <path class="fil0" d="M27.58 0.41c-0.03,0.04 -0.06,0.08 -0.09,0.15 -0.01,-0.06 0.01,-0.12 0.06,-0.17 0.02,-0.02 0.05,-0.04 0.08,-0.05 0.03,-0.01 0.06,-0.02 0.09,-0.01 -0.05,0.01 -0.1,0.04 -0.14,0.09zm0.14 -0.23c-0.09,0 -0.18,0.04 -0.25,0.11 -0.07,0.07 -0.11,0.15 -0.13,0.25 -0.01,0.1 0.01,0.19 0.05,0.28 0.05,0.09 0.12,0.14 0.21,0.17 0.1,0.03 0.2,0.01 0.29,-0.06 0.09,-0.07 0.15,-0.16 0.16,-0.29 0.02,-0.12 -0.01,-0.23 -0.08,-0.32 -0.07,-0.09 -0.16,-0.13 -0.27,-0.13z"/>
   <path id="1" class="fil0" d="M29.22 0.41c-0.03,0.04 -0.06,0.08 -0.09,0.15 -0.01,-0.06 0.01,-0.12 0.06,-0.17 0.02,-0.02 0.05,-0.04 0.08,-0.05 0.03,-0.01 0.06,-0.02 0.09,-0.01 -0.05,0.01 -0.1,0.04 -0.14,0.09zm0.14 -0.23c-0.09,0 -0.18,0.04 -0.25,0.11 -0.07,0.07 -0.11,0.15 -0.13,0.25 -0.01,0.1 0.01,0.19 0.05,0.28 0.05,0.09 0.12,0.14 0.21,0.17 0.1,0.03 0.2,0.01 0.29,-0.06 0.09,-0.07 0.15,-0.16 0.16,-0.29 0.02,-0.12 -0.01,-0.23 -0.08,-0.32 -0.07,-0.09 -0.16,-0.13 -0.27,-0.13z"/>
   <path class="fil1" d="M27.53 0.23c-0.03,0.04 -0.06,0.08 -0.09,0.15 -0.01,-0.06 0.01,-0.12 0.06,-0.17 0.02,-0.02 0.05,-0.04 0.08,-0.05 0.03,-0.01 0.06,-0.02 0.09,-0.01 -0.05,0.01 -0.1,0.04 -0.14,0.09zm0.14 -0.23c-0.09,0 -0.18,0.04 -0.25,0.11 -0.07,0.07 -0.11,0.15 -0.13,0.25 -0.01,0.1 0.01,0.19 0.05,0.28 0.05,0.09 0.12,0.14 0.21,0.17 0.1,0.03 0.2,0.01 0.29,-0.06 0.09,-0.07 0.15,-0.16 0.16,-0.29 0.02,-0.12 -0.01,-0.23 -0.08,-0.32 -0.07,-0.09 -0.16,-0.13 -0.27,-0.13z"/>
   <path id="1" class="fil1" d="M29.17 0.23c-0.03,0.04 -0.06,0.08 -0.09,0.15 -0.01,-0.06 0.01,-0.12 0.06,-0.17 0.02,-0.02 0.05,-0.04 0.08,-0.05 0.03,-0.01 0.06,-0.02 0.09,-0.01 -0.05,0.01 -0.1,0.04 -0.14,0.09zm0.14 -0.23c-0.09,0 -0.18,0.04 -0.25,0.11 -0.07,0.07 -0.11,0.15 -0.13,0.25 -0.01,0.1 0.01,0.19 0.05,0.28 0.05,0.09 0.12,0.14 0.21,0.17 0.1,0.03 0.2,0.01 0.29,-0.06 0.09,-0.07 0.15,-0.16 0.16,-0.29 0.02,-0.12 -0.01,-0.23 -0.08,-0.32 -0.07,-0.09 -0.16,-0.13 -0.27,-0.13z"/>
  </g>
 </g>
</svg>
