<?xml version="1.0" encoding="UTF-8"?>
<!DOCTYPE svg PUBLIC "-//W3C//DTD SVG 1.1//EN" "http://www.w3.org/Graphics/SVG/1.1/DTD/svg11.dtd">
<!-- Creator: CorelDRAW 2019 (64-Bit) -->
<svg xmlns="http://www.w3.org/2000/svg" xml:space="preserve" width="1.55526cm" height="0.97118cm" version="1.1" style="shape-rendering:geometricPrecision; text-rendering:geometricPrecision; image-rendering:optimizeQuality; fill-rule:evenodd; clip-rule:evenodd"
viewBox="0 0 0.988 0.617"
 xmlns:xlink="http://www.w3.org/1999/xlink"
 xmlns:xodm="http://www.corel.com/coreldraw/odm/2003">
 <defs>
  <style type="text/css">
   <![CDATA[
    .fil0 {fill:#A39F6B;fill-rule:nonzero}
   ]]>
  </style>
 </defs>
 <g id="Слой_x0020_1">
  <metadata id="CorelCorpID_0Corel-Layer"/>
  <g id="_1750687972144">
   <g>
    <path class="fil0" d="M0.08 0.217c0,-0.002 0.001,-0.003 0.001,-0.004 0.001,-0.002 0.002,-0.003 0.003,-0.004 0.001,-0.001 0.003,-0.002 0.004,-0.002 -0.001,0.001 -0.002,0.001 -0.003,0.003 -0.001,0.001 -0.001,0.002 -0.002,0.004 -0,0.001 -0.001,0.003 -0.001,0.004l-0.001 0.002 -0.001 0.002c-0,-0.001 -0,-0.003 0,-0.005zm-0.031 -0.004c-0,0 -0.001,0.001 -0.001,0.001 -0.001,0.001 -0.001,0.002 -0.002,0.002 -0.001,0.001 -0.001,0.004 -0.001,0.007 -0.001,-0.001 -0.001,-0.002 -0.001,-0.004 -0,-0.001 0,-0.002 0.001,-0.004 0.001,-0.001 0.001,-0.002 0.002,-0.003 0,-0 0.001,-0 0.002,-0.001 0,-0 0.001,-0 0.002,-0l-0.001 0 -0.001 0zm-0.015 0.054c-0,0.001 -0.001,0.001 -0.002,0.002l-0.001 0.001 -0.001 0.001c-0.003,0.003 -0.005,0.006 -0.007,0.009 -0.002,0.003 -0.004,0.006 -0.006,0.01 -0.001,0.004 -0.003,0.007 -0.003,0.011 -0,-0.002 0,-0.004 0,-0.006 0,-0.002 0.001,-0.004 0.002,-0.006 0.001,-0.003 0.003,-0.007 0.005,-0.01 0.002,-0.003 0.005,-0.006 0.008,-0.008l0.001 -0.001 0.001 -0.001c0.001,-0.001 0.001,-0.001 0.002,-0.002 0.001,-0.002 0.002,-0.003 0.001,-0.005 0.001,0.002 0,0.004 -0.001,0.006zm-0.028 -0.037c-0,0.001 -0.001,0.003 -0,0.004 0,0.001 0,0.003 0.001,0.004 -0.002,-0.003 -0.002,-0.006 -0.001,-0.009 0.001,-0.002 0.001,-0.003 0.002,-0.004 0.001,-0.001 0.003,-0.002 0.004,-0.002 -0.002,0.001 -0.004,0.003 -0.005,0.006zm0.084 0.019c-0.002,-0.001 -0.003,-0.002 -0.003,-0.003 0,-0 0.002,-0.002 0.004,-0.005 0.001,-0.001 0.002,-0.003 0.003,-0.004 0.001,-0.002 0.002,-0.003 0.003,-0.005 0.002,-0.004 0.003,-0.009 0.004,-0.013 0,-0.005 -0.001,-0.009 -0.003,-0.012 -0.002,-0.003 -0.005,-0.005 -0.008,-0.006 -0.003,-0.001 -0.006,-0.001 -0.009,0.001 -0.003,0.002 -0.005,0.006 -0.007,0.01 -0.001,0.004 -0.002,0.008 -0.002,0.012 0,0.003 -0,0.005 -0.001,0.007 -0.001,0.001 -0.001,0.001 -0.002,-0.001 -0.002,-0.01 -0.005,-0.017 -0.01,-0.021 -0.004,-0.004 -0.009,-0.005 -0.015,-0.003 -0.002,0.001 -0.003,0.002 -0.005,0.003 -0.001,0.002 -0.002,0.004 -0.003,0.006 -0.001,0.006 0.001,0.012 0.005,0.019 0.001,0.002 0.002,0.003 0.001,0.004 -0.001,0.001 -0.002,0 -0.004,-0 -0.005,-0.002 -0.01,-0.006 -0.015,-0.013 -0.004,-0.004 -0.008,-0.007 -0.012,-0.008 -0.004,-0.001 -0.007,-0 -0.01,0.002 -0.003,0.002 -0.005,0.005 -0.005,0.009 -0.001,0.004 -0,0.008 0.001,0.012 0.002,0.005 0.005,0.008 0.009,0.011 0.003,0.002 0.006,0.004 0.011,0.006 0.001,0 0.001,0 0.002,0.001l0.001 0 0.001 0c0.001,0.001 0.002,0.001 0.003,0.001 0.001,0.001 0.001,0.002 -0,0.004 -0.01,0.008 -0.016,0.018 -0.018,0.029 -0.001,0.005 -0.001,0.01 -0,0.015 0.001,0.005 0.003,0.009 0.006,0.012 0.003,0.003 0.006,0.005 0.009,0.006 0.003,0.001 0.007,0 0.01,-0.002 0.003,-0.002 0.006,-0.005 0.008,-0.009 0.002,-0.004 0.003,-0.01 0.003,-0.016 0,-0.01 0.002,-0.017 0.004,-0.02 0.001,-0.001 0.002,-0.001 0.003,-0.001 0.001,0 0.001,0.001 0.001,0.003l-0 0 0 0c0,0 0,0.001 0,0.001 0,0.001 0,0.001 0,0.002 0,0.002 0,0.003 0,0.005 0,0.005 0.001,0.009 0.002,0.013 0.003,0.011 0.008,0.016 0.015,0.015 0.005,-0.001 0.009,-0.004 0.012,-0.01 0.002,-0.006 0.003,-0.013 0.002,-0.022 -0,-0.003 -0,-0.004 0.001,-0.003 0,0 0.001,0.001 0.001,0.001 0,0 0.001,0.001 0.001,0.001 0,0.001 0.001,0.002 0.001,0.003 0.003,0.006 0.007,0.01 0.01,0.013 0.004,0.003 0.007,0.004 0.011,0.005 0.003,0 0.007,-0.001 0.009,-0.003 0.003,-0.002 0.005,-0.005 0.006,-0.009 0.001,-0.004 0.001,-0.009 0,-0.014 -0.001,-0.005 -0.003,-0.009 -0.007,-0.013 -0.007,-0.009 -0.016,-0.015 -0.029,-0.019zm0.088 0.008c-0.001,0.002 -0.002,0.003 -0.003,0.004 -0.001,0.001 -0.002,0.002 -0.004,0.002 0.002,-0.002 0.004,-0.004 0.005,-0.007 0.001,-0.002 0.001,-0.005 0.001,-0.009 0.001,0.003 0.001,0.006 0,0.009zm-0.017 -0.005c-0.001,-0.002 -0.001,-0.004 -0,-0.006 0,-0.002 0.001,-0.003 0.003,-0.004 0.001,-0.001 0.003,-0 0.005,0.001 0.002,0.001 0.003,0.002 0.003,0.004 0.001,0.002 0.001,0.004 0,0.006 -0,0.002 -0.001,0.003 -0.003,0.004 -0.001,0.001 -0.003,0 -0.005,-0 -0.002,-0.001 -0.003,-0.002 -0.003,-0.004zm-0.017 -0.059c-0.003,0.002 -0.006,0.005 -0.008,0.009 -0.002,0.003 -0.004,0.007 -0.005,0.012l-0 0.002 -0 0.002 -0.001 0.003 -0 0.003 -0 0.003c-0,-0.004 0,-0.009 0.001,-0.013 0.001,-0.004 0.003,-0.009 0.005,-0.012 0.002,-0.004 0.005,-0.007 0.009,-0.009 0.002,-0.001 0.003,-0.002 0.006,-0.003l0.001 -0.001 0.001 -0 0.003 -0.001c-0.004,0.001 -0.008,0.003 -0.011,0.005zm0.022 -0.013c-0.016,-0.001 -0.027,0.005 -0.035,0.016 -0.007,0.01 -0.01,0.023 -0.008,0.039 0.001,0.015 0.006,0.028 0.014,0.04 0.009,0.012 0.019,0.019 0.032,0.019 0.012,0.001 0.021,-0.005 0.029,-0.016 0.007,-0.011 0.01,-0.023 0.011,-0.039 0,-0.016 -0.003,-0.029 -0.009,-0.04 -0.008,-0.012 -0.018,-0.019 -0.032,-0.019zm0.066 -0.009c-0.002,0.001 -0.004,0.002 -0.005,0.004 -0.004,0.003 -0.006,0.006 -0.008,0.01 -0.001,0.002 -0.001,0.004 -0.002,0.006 -0,0.002 -0,0.004 -0,0.007 -0,0.002 0,0.004 0,0.007 0,0.001 0,0.002 0,0.004l0.001 0.003c-0.001,-0.005 -0.002,-0.009 -0.002,-0.014 -0,-0.006 0,-0.01 0.002,-0.014 0.002,-0.004 0.005,-0.007 0.009,-0.01 0.002,-0.001 0.004,-0.002 0.006,-0.003 0.002,-0.001 0.004,-0.002 0.006,-0.002 -0.002,0.001 -0.004,0.002 -0.006,0.003zm0.044 0.001c-0.001,-0.004 -0.005,-0.008 -0.01,-0.01 -0.005,-0.002 -0.011,-0.003 -0.018,-0.002 -0.007,0.001 -0.014,0.003 -0.02,0.006 -0.007,0.004 -0.012,0.009 -0.015,0.015 -0.003,0.006 -0.004,0.014 -0.002,0.025 0.001,0.01 0.004,0.02 0.009,0.031 0.004,0.011 0.009,0.02 0.015,0.027 0.006,0.008 0.012,0.012 0.017,0.012 0.008,0.001 0.012,-0.002 0.014,-0.009 0.001,-0.006 0,-0.014 -0.004,-0.022 -0.001,-0.001 -0.001,-0.003 -0.002,-0.005 -0,-0.001 -0.001,-0.002 -0.001,-0.003l-0.001 -0.002 -0.001 -0.002c-0.002,-0.005 -0.004,-0.01 -0.006,-0.013 -0.004,-0.011 -0.006,-0.018 -0.004,-0.022 0.001,-0.002 0.003,-0.003 0.007,-0.005 0.001,-0 0.002,-0.001 0.003,-0.001l0.003 -0.001c0.002,-0.001 0.004,-0.001 0.006,-0.002 0.004,-0.002 0.007,-0.004 0.009,-0.006 0.002,-0.003 0.003,-0.007 0.001,-0.012zm0.07 0.049l-0.001 0.001c-0.001,0 -0.001,0.001 -0.002,0.001 -0.002,0.001 -0.003,0.001 -0.005,0.001 0.001,-0.001 0.003,-0.001 0.004,-0.002l0.001 -0.001 0.001 -0.001c0.001,-0.001 0.001,-0.001 0.002,-0.001 0.001,-0.001 0.003,-0.002 0.004,-0.002 0.002,-0.001 0.003,-0.001 0.005,-0.001 -0.002,0.001 -0.005,0.003 -0.008,0.004l-0.001 0.001zm-0.037 -0.068c-0.002,0.001 -0.004,0.002 -0.005,0.004 -0.002,0.002 -0.003,0.004 -0.004,0.005 -0.001,0.002 -0.002,0.004 -0.003,0.006 -0.001,0.004 -0.001,0.009 -0.002,0.014 -0,0.002 0,0.005 0,0.007 0,0.001 0,0.002 0,0.004l0 0.004c-0.001,-0.005 -0.002,-0.01 -0.002,-0.015 -0,-0.005 0,-0.01 0.001,-0.015 0.001,-0.003 0.002,-0.005 0.003,-0.007 0.001,-0.002 0.003,-0.004 0.005,-0.005 0.002,-0.001 0.004,-0.003 0.006,-0.004 0.002,-0.001 0.004,-0.002 0.006,-0.002 -0.002,0.001 -0.004,0.002 -0.006,0.003zm0.023 0.038l0 -0c0,-0 0.001,-0 0.001,-0.001 0.001,-0 0.002,-0.001 0.003,-0 0.001,0 0.002,0 0.002,0.001 -0.001,-0 -0.001,0 -0.002,0 -0.001,0 -0.001,0 -0.002,0.001l-0.001 0 -0 0c-0,0 -0.001,0 -0.001,0 -0.001,0 -0.002,0 -0.003,0l0.001 -0.001 0.001 -0.001 0.001 -0zm0.009 0.025c-0.002,0.002 -0.004,0.002 -0.006,0.002 -0.002,-0 -0.003,-0.001 -0.004,-0.003 -0.001,-0.001 -0.001,-0.003 -0,-0.004 0,-0.002 0.002,-0.003 0.003,-0.003 0.005,-0.002 0.008,-0.004 0.01,-0.007 0.002,-0.003 0.002,-0.006 0.001,-0.009 -0.001,-0.003 -0.003,-0.005 -0.006,-0.006 -0.003,-0.001 -0.006,-0.001 -0.01,0.001 -0.003,0.002 -0.005,0.001 -0.007,-0.001 -0.001,-0.001 -0.001,-0.002 -0.001,-0.003 0,-0.001 0,-0.002 0.001,-0.003 0.001,-0.001 0.003,-0.003 0.006,-0.004 0.001,-0 0.002,-0.001 0.004,-0.001l0.002 -0 0.002 -0.001c0.003,-0.001 0.005,-0.002 0.007,-0.003 0.002,-0.002 0.003,-0.004 0.004,-0.006 0.001,-0.004 -0.001,-0.009 -0.005,-0.012 -0.004,-0.003 -0.009,-0.006 -0.015,-0.006 -0.007,-0.001 -0.013,-0 -0.019,0.002 -0.007,0.002 -0.012,0.007 -0.015,0.013 -0.003,0.006 -0.005,0.013 -0.005,0.024 0,0.01 0.002,0.02 0.004,0.03 0.003,0.011 0.007,0.02 0.011,0.028 0.005,0.008 0.01,0.014 0.015,0.016 0.005,0.002 0.011,0.002 0.017,0.001 0.006,-0.002 0.011,-0.004 0.017,-0.009 0.005,-0.004 0.009,-0.009 0.012,-0.014 0.003,-0.005 0.004,-0.01 0.003,-0.015 -0.001,-0.006 -0.004,-0.009 -0.009,-0.01 -0.005,-0.001 -0.011,0.001 -0.019,0.006zm0.08 -0.088c-0.001,0 -0.001,0.001 -0.001,0.002 -0.001,0.001 -0.001,0.003 -0.001,0.005 0,0.003 0.001,0.007 0.002,0.011l0 0.001 0 0.001c0,0.001 0.001,0.002 0.001,0.003 0,0.002 0,0.004 -0,0.006 -0,0.002 -0.001,0.004 -0.002,0.005 -0.001,0.002 -0.002,0.003 -0.004,0.004 0.003,-0.002 0.004,-0.006 0.005,-0.01 0,-0.002 0,-0.004 -0,-0.006 -0,-0.001 -0,-0.002 -0.001,-0.003l-0 -0.001 -0 -0.001c-0.001,-0.005 -0.002,-0.009 -0.002,-0.012 0,-0.002 0,-0.004 0.001,-0.006 0.001,-0.001 0.001,-0.002 0.002,-0.002 0.001,-0 0.001,-0.001 0.003,-0.001 -0.001,0 -0.002,0.001 -0.002,0.001zm-0.048 0.013c-0.001,0.002 -0.002,0.005 -0.002,0.008 -0,0.003 -0,0.005 -0,0.009l0 0.004 0 0.004c-0.001,-0.006 -0.002,-0.012 -0.001,-0.018 0,-0.003 0.001,-0.006 0.003,-0.008 0.001,-0.001 0.002,-0.002 0.003,-0.003 0.001,-0.001 0.003,-0.001 0.004,-0.001 -0.002,0.001 -0.004,0.003 -0.006,0.005zm0.049 -0.02c-0.005,0.001 -0.008,0.005 -0.009,0.01 -0.001,0.005 -0,0.012 0.002,0.021 0.001,0.004 0.001,0.007 -0,0.009 -0.001,0.002 -0.003,0.003 -0.005,0.004 -0.002,0 -0.004,-0 -0.006,-0.002 -0.002,-0.002 -0.003,-0.004 -0.003,-0.008 -0.001,-0.009 -0.004,-0.016 -0.007,-0.02 -0.003,-0.004 -0.008,-0.005 -0.013,-0.005 -0.004,0 -0.008,0.002 -0.011,0.006 -0.003,0.004 -0.004,0.008 -0.005,0.013 -0.001,0.01 0,0.022 0.003,0.036 0.003,0.013 0.007,0.025 0.012,0.036 0.004,0.008 0.008,0.014 0.013,0.016 0.004,0.002 0.008,0.003 0.012,0.001 0.009,-0.004 0.011,-0.012 0.007,-0.025 -0.003,-0.009 -0.002,-0.015 0.002,-0.016 0.002,-0 0.004,0 0.006,0.001 0.002,0.002 0.004,0.006 0.005,0.011 0.002,0.009 0.004,0.015 0.008,0.019 0.004,0.004 0.008,0.005 0.013,0.004 0.008,-0.002 0.013,-0.009 0.014,-0.021 0.001,-0.009 -0.001,-0.023 -0.005,-0.042 -0.003,-0.015 -0.008,-0.027 -0.014,-0.036 -0.006,-0.009 -0.013,-0.013 -0.02,-0.011zm0.058 0.077c-0.001,0.002 -0.002,0.004 -0.002,0.007 -0.001,-0.003 -0.001,-0.005 0.001,-0.008 0.001,-0.001 0.001,-0.002 0.002,-0.003 0.001,-0.001 0.002,-0.001 0.004,-0.001 -0.002,0.001 -0.004,0.003 -0.005,0.005zm0.003 -0.011c-0.004,0.001 -0.006,0.003 -0.009,0.007 -0.002,0.004 -0.003,0.008 -0.002,0.012 0,0.003 0.001,0.006 0.003,0.008 0.001,0.002 0.003,0.004 0.006,0.006 0.002,0.001 0.003,0.003 0.003,0.007l0 0.001 0 0.001c0,0.001 0,0.001 0,0.002 0,0.001 0.001,0.002 0.001,0.003 0.002,0.001 0.003,0.001 0.006,-0 0.002,-0.001 0.004,-0.003 0.006,-0.006 0.004,-0.007 0.006,-0.015 0.005,-0.023 -0.001,-0.005 -0.003,-0.01 -0.006,-0.013 -0.004,-0.003 -0.008,-0.004 -0.012,-0.003zm0.122 -0.091c0,-0.002 0.001,-0.003 0.001,-0.004 0.001,-0.002 0.002,-0.003 0.003,-0.004 0.001,-0.001 0.003,-0.002 0.004,-0.002 -0.001,0.001 -0.002,0.001 -0.003,0.003 -0.001,0.001 -0.001,0.002 -0.002,0.004 -0,0.001 -0.001,0.003 -0.001,0.004l-0.001 0.002 -0.001 0.002c-0,-0.001 -0,-0.003 0,-0.005zm-0.031 -0.004c-0,0 -0.001,0.001 -0.001,0.001 -0.001,0.001 -0.001,0.002 -0.002,0.002 -0.001,0.001 -0.001,0.004 -0.001,0.007 -0.001,-0.001 -0.001,-0.002 -0.001,-0.004 -0,-0.001 0,-0.003 0.001,-0.004 0.001,-0.001 0.001,-0.002 0.002,-0.003 0.001,-0 0.001,-0 0.002,-0.001 0,-0 0.001,-0 0.002,-0l-0.001 0 -0.001 0zm-0.015 0.054c-0,0.001 -0.001,0.001 -0.002,0.002l-0.001 0.001 -0.001 0.001c-0.003,0.003 -0.005,0.006 -0.007,0.009 -0.002,0.003 -0.004,0.006 -0.006,0.01 -0.001,0.004 -0.003,0.007 -0.003,0.011 -0,-0.002 0,-0.004 0,-0.006 0,-0.002 0.001,-0.004 0.002,-0.006 0.001,-0.003 0.003,-0.007 0.005,-0.01 0.002,-0.003 0.005,-0.006 0.008,-0.008l0.001 -0.001 0.001 -0.001c0.001,-0.001 0.001,-0.001 0.002,-0.002 0.001,-0.002 0.002,-0.003 0.001,-0.005 0.001,0.002 0,0.004 -0.001,0.006zm-0.028 -0.037c-0,0.001 -0.001,0.003 -0,0.004 0,0.001 0,0.003 0.001,0.004 -0.002,-0.003 -0.002,-0.006 -0.001,-0.009 0.001,-0.002 0.001,-0.003 0.002,-0.004 0.001,-0.001 0.003,-0.002 0.004,-0.002 -0.002,0.001 -0.004,0.003 -0.005,0.006zm0.084 0.019c-0.002,-0.001 -0.003,-0.002 -0.003,-0.003 0,-0 0.002,-0.002 0.004,-0.005 0.001,-0.001 0.002,-0.003 0.003,-0.004 0.001,-0.002 0.002,-0.003 0.003,-0.005 0.002,-0.004 0.003,-0.009 0.004,-0.013 0,-0.005 -0.001,-0.009 -0.003,-0.012 -0.002,-0.003 -0.005,-0.005 -0.008,-0.006 -0.003,-0.001 -0.006,-0.001 -0.009,0.001 -0.003,0.002 -0.005,0.006 -0.007,0.01 -0.001,0.004 -0.002,0.008 -0.002,0.012 0,0.003 -0,0.005 -0.001,0.007 -0.001,0.001 -0.001,0.001 -0.002,-0.001 -0.002,-0.01 -0.005,-0.017 -0.01,-0.021 -0.004,-0.004 -0.009,-0.005 -0.015,-0.003 -0.002,0.001 -0.003,0.002 -0.005,0.003 -0.001,0.002 -0.002,0.004 -0.003,0.006 -0.001,0.006 0.001,0.012 0.005,0.019 0.001,0.002 0.002,0.003 0.001,0.004 -0.001,0.001 -0.002,0 -0.004,-0 -0.005,-0.002 -0.01,-0.006 -0.015,-0.013 -0.004,-0.004 -0.008,-0.007 -0.012,-0.008 -0.004,-0.001 -0.007,-0 -0.01,0.002 -0.003,0.002 -0.005,0.005 -0.005,0.009 -0.001,0.004 -0,0.008 0.001,0.012 0.002,0.005 0.005,0.008 0.009,0.011 0.003,0.002 0.006,0.004 0.011,0.006 0.001,0 0.001,0 0.002,0.001l0.001 0 0.001 0c0.001,0.001 0.002,0.001 0.003,0.001 0.001,0.001 0.001,0.002 -0,0.004 -0.01,0.008 -0.016,0.018 -0.018,0.029 -0.001,0.005 -0.001,0.01 -0,0.015 0.001,0.005 0.003,0.009 0.006,0.012 0.003,0.003 0.006,0.005 0.009,0.006 0.003,0.001 0.007,0 0.01,-0.002 0.003,-0.002 0.006,-0.005 0.008,-0.009 0.002,-0.004 0.003,-0.01 0.003,-0.016 0,-0.01 0.002,-0.017 0.004,-0.02 0.001,-0.001 0.002,-0.001 0.003,-0.001 0.001,0 0.001,0.001 0.001,0.003l-0 0 0 0c0,0 0,0.001 0,0.001 0,0.001 0,0.001 0,0.002 0,0.002 0,0.003 0,0.005 0,0.005 0.001,0.009 0.002,0.013 0.003,0.011 0.008,0.016 0.015,0.015 0.005,-0.001 0.009,-0.004 0.012,-0.01 0.002,-0.006 0.003,-0.013 0.002,-0.022 -0,-0.003 -0,-0.004 0.001,-0.003 0,0 0.001,0.001 0.001,0.001 0,0 0.001,0.001 0.001,0.001 0,0.001 0.001,0.002 0.001,0.003 0.003,0.006 0.007,0.01 0.01,0.013 0.004,0.003 0.007,0.004 0.011,0.005 0.003,0 0.007,-0.001 0.009,-0.003 0.003,-0.002 0.005,-0.005 0.006,-0.009 0.001,-0.004 0.001,-0.009 0,-0.014 -0.001,-0.005 -0.003,-0.009 -0.007,-0.013 -0.007,-0.009 -0.016,-0.015 -0.029,-0.019zm0.088 0.008c-0.001,0.002 -0.002,0.003 -0.003,0.004 -0.001,0.001 -0.002,0.002 -0.004,0.002 0.002,-0.002 0.004,-0.004 0.005,-0.007 0.001,-0.002 0.001,-0.005 0.001,-0.009 0.001,0.003 0.001,0.006 0,0.009zm-0.017 -0.005c-0.001,-0.002 -0.001,-0.004 -0,-0.006 0,-0.002 0.001,-0.003 0.003,-0.004 0.001,-0.001 0.003,-0 0.005,0.001 0.002,0.001 0.003,0.002 0.003,0.004 0.001,0.002 0.001,0.004 0,0.006 -0,0.002 -0.001,0.003 -0.003,0.004 -0.001,0.001 -0.003,0 -0.005,-0 -0.002,-0.001 -0.003,-0.002 -0.003,-0.004zm-0.017 -0.059c-0.003,0.002 -0.006,0.005 -0.008,0.009 -0.002,0.003 -0.004,0.007 -0.005,0.012l-0 0.002 -0 0.002 -0.001 0.003 -0 0.003 -0 0.003c-0,-0.004 0,-0.009 0.001,-0.013 0.001,-0.004 0.003,-0.009 0.005,-0.012 0.002,-0.004 0.005,-0.007 0.009,-0.009 0.002,-0.001 0.003,-0.002 0.006,-0.003l0.001 -0.001 0.001 -0 0.003 -0.001c-0.004,0.001 -0.008,0.003 -0.011,0.005zm0.022 -0.013c-0.016,-0.001 -0.027,0.005 -0.035,0.016 -0.007,0.01 -0.01,0.023 -0.008,0.039 0.001,0.015 0.006,0.028 0.014,0.04 0.009,0.012 0.019,0.019 0.032,0.019 0.012,0.001 0.021,-0.005 0.029,-0.016 0.007,-0.011 0.01,-0.023 0.011,-0.039 0,-0.016 -0.003,-0.029 -0.009,-0.04 -0.008,-0.012 -0.018,-0.019 -0.032,-0.019zm0.066 -0.009c-0.002,0.001 -0.004,0.002 -0.005,0.004 -0.004,0.003 -0.006,0.006 -0.008,0.01 -0.001,0.002 -0.001,0.004 -0.002,0.006 -0,0.002 -0,0.004 -0,0.007 -0,0.002 0,0.004 0,0.007 0,0.001 0,0.002 0,0.004l0.001 0.003c-0.001,-0.005 -0.002,-0.009 -0.002,-0.014 -0,-0.006 0,-0.01 0.002,-0.014 0.002,-0.004 0.005,-0.007 0.009,-0.01 0.002,-0.001 0.004,-0.002 0.006,-0.003 0.002,-0.001 0.004,-0.002 0.006,-0.002 -0.002,0.001 -0.004,0.002 -0.006,0.003zm0.044 0.001c-0.001,-0.004 -0.005,-0.008 -0.01,-0.01 -0.005,-0.002 -0.011,-0.003 -0.018,-0.002 -0.007,0.001 -0.014,0.003 -0.02,0.006 -0.007,0.004 -0.012,0.009 -0.015,0.015 -0.003,0.006 -0.004,0.014 -0.002,0.025 0.001,0.01 0.004,0.02 0.009,0.031 0.004,0.011 0.009,0.02 0.015,0.027 0.006,0.008 0.012,0.012 0.017,0.012 0.008,0.001 0.012,-0.002 0.014,-0.009 0.001,-0.006 0,-0.014 -0.004,-0.022 -0.001,-0.001 -0.001,-0.003 -0.002,-0.005 -0,-0.001 -0.001,-0.002 -0.001,-0.003l-0.001 -0.002 -0.001 -0.002c-0.002,-0.005 -0.004,-0.01 -0.006,-0.013 -0.004,-0.011 -0.005,-0.018 -0.004,-0.022 0.001,-0.002 0.003,-0.003 0.007,-0.005 0.001,-0 0.002,-0.001 0.003,-0.001l0.003 -0.001c0.002,-0.001 0.004,-0.001 0.006,-0.002 0.004,-0.002 0.007,-0.004 0.009,-0.006 0.002,-0.003 0.003,-0.007 0.001,-0.012zm0.07 0.049l-0.001 0.001c-0.001,0 -0.001,0.001 -0.002,0.001 -0.002,0.001 -0.003,0.001 -0.005,0.001 0.001,-0.001 0.003,-0.001 0.004,-0.002l0.001 -0.001 0.001 -0.001c0.001,-0.001 0.001,-0.001 0.002,-0.001 0.001,-0.001 0.003,-0.002 0.004,-0.002 0.002,-0.001 0.003,-0.001 0.005,-0.001 -0.002,0.001 -0.005,0.003 -0.008,0.004l-0.001 0.001zm-0.037 -0.068c-0.002,0.001 -0.004,0.002 -0.005,0.004 -0.002,0.002 -0.003,0.004 -0.004,0.005 -0.001,0.002 -0.002,0.004 -0.003,0.006 -0.001,0.004 -0.001,0.009 -0.002,0.014 -0,0.002 0,0.005 0,0.007 0,0.001 0,0.002 0,0.004l0 0.004c-0.001,-0.005 -0.002,-0.01 -0.002,-0.015 -0,-0.005 0,-0.01 0.001,-0.015 0.001,-0.003 0.002,-0.005 0.003,-0.007 0.001,-0.002 0.003,-0.004 0.005,-0.005 0.002,-0.001 0.004,-0.003 0.006,-0.004 0.002,-0.001 0.004,-0.002 0.006,-0.002 -0.002,0.001 -0.004,0.002 -0.006,0.003zm0.023 0.038l0 -0c0,-0 0.001,-0 0.001,-0.001 0.001,-0 0.002,-0.001 0.003,-0 0.001,0 0.002,0 0.002,0.001 -0.001,-0 -0.001,0 -0.002,0 -0.001,0 -0.001,0 -0.002,0.001l-0.001 0 -0 0c-0,0 -0.001,0 -0.001,0 -0.001,0 -0.002,0 -0.003,0l0.001 -0.001 0.001 -0.001 0.001 -0zm0.009 0.025c-0.002,0.002 -0.004,0.002 -0.006,0.002 -0.002,-0 -0.003,-0.001 -0.004,-0.003 -0.001,-0.001 -0.001,-0.003 -0,-0.004 0,-0.002 0.002,-0.003 0.003,-0.003 0.005,-0.002 0.008,-0.004 0.01,-0.007 0.002,-0.003 0.002,-0.006 0.001,-0.009 -0.001,-0.003 -0.003,-0.005 -0.006,-0.006 -0.003,-0.001 -0.006,-0.001 -0.01,0.001 -0.003,0.002 -0.005,0.001 -0.007,-0.001 -0.001,-0.001 -0.001,-0.002 -0.001,-0.003 0,-0.001 0,-0.002 0.001,-0.003 0.001,-0.001 0.003,-0.003 0.006,-0.004 0.001,-0 0.002,-0.001 0.004,-0.001l0.002 -0.001 0.002 -0.001c0.003,-0.001 0.005,-0.002 0.007,-0.003 0.002,-0.002 0.003,-0.004 0.004,-0.006 0.001,-0.004 -0.001,-0.009 -0.005,-0.012 -0.004,-0.003 -0.009,-0.006 -0.015,-0.006 -0.007,-0.001 -0.013,-0 -0.019,0.002 -0.007,0.002 -0.012,0.007 -0.015,0.013 -0.003,0.006 -0.005,0.013 -0.005,0.024 0,0.01 0.002,0.02 0.004,0.03 0.003,0.011 0.007,0.02 0.011,0.028 0.005,0.008 0.01,0.014 0.015,0.016 0.005,0.002 0.011,0.002 0.017,0.001 0.006,-0.002 0.011,-0.004 0.017,-0.009 0.005,-0.004 0.009,-0.009 0.012,-0.014 0.003,-0.005 0.004,-0.01 0.003,-0.015 -0.001,-0.006 -0.004,-0.009 -0.009,-0.01 -0.005,-0.001 -0.011,0.001 -0.019,0.006z"/>
    <path class="fil0" d="M0.949 0.008c-0.001,0 -0.001,0.001 -0.001,0.002 -0.001,0.001 -0.001,0.003 -0.001,0.005 0,0.003 0.001,0.007 0.002,0.011l0 0.001 0 0.001c0,0.001 0.001,0.002 0.001,0.003 0,0.002 0,0.004 -0,0.006 -0,0.002 -0.001,0.004 -0.002,0.005 -0.001,0.002 -0.002,0.003 -0.004,0.004 0.003,-0.002 0.004,-0.006 0.005,-0.01 0,-0.002 0,-0.004 -0,-0.006 -0,-0.001 -0,-0.002 -0.001,-0.003l-0 -0.001 -0 -0.001c-0.001,-0.005 -0.002,-0.009 -0.002,-0.012 0,-0.002 0,-0.004 0.001,-0.006 0.001,-0.001 0.001,-0.002 0.002,-0.002 0.001,-0 0.001,-0.001 0.003,-0.001 -0.001,0 -0.002,0.001 -0.002,0.001zm-0.048 0.013c-0.001,0.002 -0.002,0.005 -0.002,0.008 -0,0.003 -0,0.005 -0,0.009l0 0.004 0 0.004c-0.001,-0.006 -0.002,-0.012 -0.001,-0.018 0,-0.003 0.001,-0.006 0.003,-0.008 0.001,-0.001 0.002,-0.002 0.003,-0.003 0.001,-0.001 0.003,-0.001 0.004,-0.001 -0.002,0.001 -0.004,0.003 -0.006,0.005zm0.049 -0.02c-0.005,0.001 -0.008,0.005 -0.009,0.01 -0.001,0.005 -0,0.012 0.002,0.021 0.001,0.004 0.001,0.007 -0,0.009 -0.001,0.002 -0.003,0.003 -0.005,0.004 -0.002,0 -0.004,-0 -0.006,-0.002 -0.002,-0.002 -0.003,-0.004 -0.003,-0.008 -0.001,-0.009 -0.004,-0.016 -0.007,-0.02 -0.003,-0.004 -0.008,-0.005 -0.013,-0.005 -0.004,0 -0.008,0.002 -0.011,0.006 -0.003,0.004 -0.004,0.008 -0.005,0.013 -0.001,0.01 0,0.022 0.003,0.036 0.003,0.013 0.007,0.025 0.012,0.036 0.004,0.008 0.008,0.014 0.013,0.016 0.004,0.002 0.008,0.003 0.012,0.001 0.009,-0.004 0.011,-0.012 0.007,-0.025 -0.003,-0.009 -0.002,-0.015 0.002,-0.016 0.002,-0 0.004,0 0.006,0.001 0.002,0.002 0.004,0.006 0.005,0.011 0.002,0.009 0.004,0.015 0.008,0.019 0.004,0.004 0.008,0.005 0.013,0.004 0.008,-0.002 0.013,-0.009 0.014,-0.021 0.001,-0.009 -0.001,-0.023 -0.005,-0.042 -0.003,-0.015 -0.008,-0.027 -0.014,-0.036 -0.006,-0.009 -0.013,-0.013 -0.02,-0.011zm-0.726 0.348c-0.003,0.001 -0.006,0.003 -0.008,0.004 -0.003,0.002 -0.005,0.003 -0.007,0.005 -0.001,0.001 -0.002,0.002 -0.002,0.004 -0.001,0.001 -0.001,0.003 -0,0.004 -0.001,-0.002 -0.001,-0.003 -0,-0.005 0,-0.001 0.001,-0.003 0.002,-0.004 0.002,-0.002 0.004,-0.004 0.007,-0.006 0.005,-0.003 0.011,-0.005 0.017,-0.005 -0.003,0.001 -0.006,0.002 -0.008,0.003zm0.012 -0.01c-0.012,0.002 -0.021,0.006 -0.028,0.011 -0.007,0.005 -0.009,0.011 -0.007,0.018 0.001,0.004 0.003,0.006 0.006,0.007 0.002,0.001 0.005,0.001 0.009,0.001l0.002 -0 0.002 -0c0.002,-0 0.003,-0 0.004,-0 0.003,-0 0.005,0.001 0.006,0.003 0.001,0.001 0.002,0.008 0.003,0.021 0.001,0.006 0.002,0.012 0.002,0.016 0.001,0.006 0.002,0.012 0.004,0.016 0.002,0.007 0.006,0.012 0.011,0.016 0.005,0.004 0.01,0.005 0.016,0.002 0.01,-0.004 0.011,-0.016 0.004,-0.036 -0.004,-0.011 -0.007,-0.02 -0.009,-0.027 -0.002,-0.008 -0.002,-0.013 -0.001,-0.015 0.001,-0.001 0.003,-0.002 0.005,-0.003 0.001,-0 0.002,-0 0.004,-0.001l0.002 -0 0.002 -0.001c0.003,-0.001 0.005,-0.002 0.007,-0.003 0.002,-0.002 0.003,-0.004 0.003,-0.007 0,-0.004 -0.001,-0.007 -0.004,-0.01 -0.003,-0.003 -0.006,-0.005 -0.011,-0.006 -0.01,-0.003 -0.021,-0.003 -0.035,-0.001zm0.117 0.046c-0.001,0.001 -0.002,0.002 -0.003,0.002 -0.001,0.001 -0.002,0.001 -0.003,0.001 0.002,-0.001 0.004,-0.003 0.005,-0.004 0.001,-0.001 0.002,-0.003 0.003,-0.006 0,0.003 -0,0.005 -0.002,0.007zm-0.009 -0.003c-0.001,-0 -0.002,-0.001 -0.003,-0.002 -0.001,-0.001 -0.001,-0.003 -0.001,-0.005 0,-0.002 0.001,-0.003 0.002,-0.004 0.001,-0.001 0.002,-0.001 0.003,-0.001 0.001,0 0.002,0.001 0.003,0.002 0.001,0.001 0.001,0.003 0.001,0.005 -0,0.002 -0.001,0.003 -0.002,0.004 -0.001,0.001 -0.002,0.001 -0.003,0.001zm-0.021 -0.039c-0.001,0.003 -0.003,0.007 -0.004,0.012 -0,0.002 -0.001,0.004 -0.002,0.006l-0.002 0.006c0.001,-0.004 0.001,-0.008 0.002,-0.013 0.001,-0.004 0.002,-0.008 0.004,-0.013 0.002,-0.005 0.004,-0.009 0.006,-0.012l0.001 -0.001c0,-0.001 0.001,-0.001 0.001,-0.001l0.001 -0.001 0.001 -0.001c0.002,-0.002 0.004,-0.003 0.005,-0.003 -0.002,0.001 -0.003,0.002 -0.005,0.004l-0.001 0.001 -0.001 0.001c-0,0 -0.001,0.001 -0.001,0.001l-0.001 0.001c-0.002,0.003 -0.004,0.007 -0.005,0.012zm0.014 -0.027c-0.006,0 -0.012,0.007 -0.018,0.019 -0.005,0.011 -0.008,0.024 -0.011,0.04 -0.002,0.016 -0.002,0.029 -0.001,0.041 0.002,0.013 0.006,0.019 0.012,0.02 0.004,0.001 0.008,-0 0.012,-0.003 0.003,-0.002 0.005,-0.005 0.007,-0.01 0,-0.001 0.001,-0.002 0.001,-0.003l0.001 -0.003c0.001,-0.002 0.002,-0.004 0.002,-0.005 0.002,-0.003 0.004,-0.005 0.005,-0.006 0.002,-0 0.004,0 0.008,0.003 0.001,0.001 0.003,0.002 0.005,0.003l0.002 0.002 0.002 0.002c0.004,0.003 0.008,0.004 0.01,0.005 0.004,0.001 0.007,-0 0.01,-0.003 0.004,-0.003 0.004,-0.01 0.002,-0.022 -0.002,-0.011 -0.006,-0.022 -0.011,-0.035 -0.006,-0.013 -0.012,-0.024 -0.019,-0.033 -0.008,-0.009 -0.015,-0.014 -0.022,-0.014zm0.138 0.051c-0.001,0.002 -0.001,0.004 -0.003,0.005 -0.001,0.001 -0.003,0.002 -0.005,0.002 0.001,-0.001 0.003,-0.002 0.004,-0.003 0.001,-0.001 0.002,-0.003 0.002,-0.004 0,-0.001 0,-0.003 0,-0.005 -0,-0.002 -0.001,-0.003 -0.001,-0.005 0.001,0.001 0.002,0.003 0.002,0.005 0,0.002 0,0.004 0,0.005zm-0.014 -0.003c-0.001,-0.001 -0.001,-0.003 -0.001,-0.005 0,-0.001 0.001,-0.003 0.002,-0.003 0.001,-0.001 0.002,-0.001 0.003,-0 0.001,0.001 0.002,0.002 0.003,0.003 0.001,0.001 0.001,0.003 0.001,0.004 -0,0.002 -0.001,0.003 -0.002,0.003 -0.001,0.001 -0.002,0.001 -0.003,0 -0.001,-0.001 -0.002,-0.002 -0.003,-0.003zm-0.038 -0.048c-0.001,0.004 -0.002,0.008 -0.002,0.014 -0,0.004 -0,0.009 0,0.014 -0,-0.002 -0.001,-0.005 -0.001,-0.007 -0,-0.003 -0,-0.005 -0,-0.007 0,-0.005 0.001,-0.01 0.002,-0.014 0.001,-0.002 0.002,-0.004 0.003,-0.006 0.001,-0.002 0.003,-0.004 0.004,-0.005 0.002,-0.002 0.004,-0.003 0.005,-0.004 0.002,-0.001 0.004,-0.002 0.006,-0.003 -0.004,0.002 -0.008,0.004 -0.011,0.007 -0.003,0.003 -0.006,0.007 -0.007,0.011zm0.031 0.019c-0.003,0 -0.005,-0.001 -0.006,-0.004 -0.001,-0.001 -0.001,-0.002 -0.001,-0.004 0,-0.001 0,-0.002 0.001,-0.003 0.002,-0.002 0.004,-0.004 0.008,-0.005 0.001,-0.001 0.003,-0.001 0.005,-0.002l0.002 -0.001 0.002 -0.001c0.004,-0.001 0.006,-0.003 0.008,-0.004 0.002,-0.002 0.003,-0.004 0.003,-0.007 -0.001,-0.005 -0.003,-0.008 -0.007,-0.011 -0.004,-0.003 -0.009,-0.004 -0.015,-0.004 -0.006,0 -0.012,0.002 -0.018,0.004 -0.006,0.003 -0.011,0.008 -0.015,0.014 -0.003,0.005 -0.005,0.013 -0.005,0.022 -0,0.009 0.001,0.018 0.003,0.028 0.003,0.01 0.006,0.019 0.011,0.026 0.005,0.008 0.011,0.013 0.018,0.016 0.006,0.002 0.012,0.004 0.018,0.003 0.006,-0 0.011,-0.002 0.016,-0.005 0.005,-0.003 0.008,-0.007 0.011,-0.012 0.003,-0.005 0.004,-0.011 0.004,-0.017 -0,-0.005 -0.001,-0.009 -0.003,-0.014 -0.002,-0.005 -0.004,-0.009 -0.008,-0.012 -0.008,-0.008 -0.018,-0.01 -0.032,-0.008zm0.096 0.004c-0.001,0.001 -0.002,0.002 -0.003,0.002 -0.001,0.001 -0.002,0.001 -0.003,0.001 0.002,-0.001 0.004,-0.002 0.005,-0.004 0.001,-0.001 0.002,-0.003 0.003,-0.006 0,0.003 -0,0.005 -0.002,0.007zm-0.009 -0.003c-0.001,-0 -0.002,-0.001 -0.003,-0.002 -0.001,-0.001 -0.001,-0.003 -0.001,-0.005 0,-0.002 0.001,-0.003 0.002,-0.004 0.001,-0.001 0.002,-0.001 0.003,-0.001 0.001,0 0.002,0.001 0.003,0.002 0.001,0.001 0.001,0.003 0.001,0.005 -0,0.002 -0.001,0.003 -0.002,0.004 -0.001,0.001 -0.002,0.001 -0.003,0.001zm-0.021 -0.039c-0.001,0.003 -0.003,0.007 -0.004,0.012 -0,0.002 -0.001,0.004 -0.002,0.006l-0.002 0.006c0.001,-0.004 0.001,-0.008 0.002,-0.013 0.001,-0.004 0.002,-0.008 0.004,-0.013 0.002,-0.005 0.004,-0.009 0.006,-0.012l0.001 -0.001c0,-0.001 0.001,-0.001 0.001,-0.001l0.001 -0.001 0.001 -0.001c0.002,-0.002 0.004,-0.003 0.005,-0.003 -0.002,0.001 -0.003,0.002 -0.005,0.004l-0.001 0.001 -0.001 0.001c-0,0 -0.001,0.001 -0.001,0.001l-0.001 0.001c-0.002,0.003 -0.004,0.007 -0.005,0.012zm0.014 -0.027c-0.006,0 -0.012,0.007 -0.018,0.019 -0.005,0.011 -0.008,0.024 -0.011,0.04 -0.002,0.016 -0.002,0.029 -0.001,0.041 0.002,0.013 0.006,0.019 0.012,0.02 0.004,0.001 0.008,-0 0.012,-0.003 0.003,-0.002 0.005,-0.005 0.007,-0.01 0,-0.001 0.001,-0.002 0.001,-0.003l0.001 -0.003c0.001,-0.002 0.002,-0.004 0.002,-0.005 0.002,-0.003 0.004,-0.005 0.005,-0.006 0.002,-0 0.004,0 0.008,0.003 0.001,0.001 0.003,0.002 0.005,0.003l0.002 0.002 0.002 0.002c0.004,0.003 0.008,0.004 0.01,0.005 0.004,0.001 0.007,-0 0.01,-0.003 0.004,-0.003 0.004,-0.01 0.002,-0.022 -0.002,-0.011 -0.006,-0.022 -0.011,-0.035 -0.006,-0.013 -0.012,-0.024 -0.019,-0.033 -0.008,-0.009 -0.015,-0.014 -0.022,-0.014zm0.121 -0.02c-0.001,0.001 -0.002,0.003 -0.003,0.004 -0.001,0.002 -0.002,0.006 -0.004,0.01l-0.001 0.002 -0.001 0.003c-0.001,0.002 -0.002,0.003 -0.002,0.005 -0.001,0.002 -0.002,0.003 -0.003,0.004 -0.002,0.001 -0.003,0.002 -0.005,0.002 0.003,-0.001 0.005,-0.003 0.007,-0.007 0.001,-0.001 0.001,-0.003 0.002,-0.005l0.001 -0.002 0.001 -0.002c0.002,-0.004 0.003,-0.008 0.004,-0.01 0.001,-0.002 0.002,-0.003 0.003,-0.004 0.001,-0.001 0.003,-0.002 0.005,-0.002 -0.002,0.001 -0.003,0.002 -0.004,0.003zm-0.056 0.02c-0.001,0.003 -0.002,0.006 -0.003,0.01 -0.001,0.002 -0.001,0.006 -0.002,0.011 -0,0.002 -0,0.004 -0.001,0.005l-0 0.003 -0 0.003c-0,-0.008 0,-0.015 0.001,-0.021 0.001,-0.004 0.002,-0.008 0.003,-0.01 0.001,-0.002 0.002,-0.003 0.003,-0.004 0.001,-0.001 0.003,-0.002 0.004,-0.002 -0.003,0.001 -0.005,0.003 -0.007,0.007zm0.096 0.018c-0.004,-0.015 -0.01,-0.028 -0.016,-0.036 -0.006,-0.008 -0.013,-0.012 -0.019,-0.012 -0.004,0 -0.008,0.003 -0.011,0.006 -0.002,0.003 -0.005,0.009 -0.007,0.016 -0.002,0.007 -0.005,0.01 -0.008,0.01 -0.002,0 -0.005,-0.002 -0.008,-0.006 -0.004,-0.004 -0.008,-0.007 -0.011,-0.009 -0.004,-0.002 -0.008,-0.003 -0.012,-0.002 -0.01,0.003 -0.015,0.018 -0.015,0.044 -0,0.017 0.001,0.031 0.005,0.043 0.004,0.014 0.01,0.021 0.017,0.021 0.004,-0 0.008,-0.002 0.01,-0.006 0.002,-0.003 0.003,-0.007 0.004,-0.013 0,-0.002 0.001,-0.004 0.001,-0.007l0 -0.002 0 -0.002c0,-0.001 0,-0.002 0,-0.003 0.001,-0.004 0.001,-0.007 0.003,-0.008 0.001,-0.001 0.002,0 0.003,0.002 0,0.001 0.001,0.001 0.002,0.003l0 0.001 0.001 0.001 0.001 0.002c0.002,0.003 0.004,0.005 0.006,0.006 0.002,0.002 0.005,0.002 0.008,0.002 0.002,-0 0.004,-0.002 0.005,-0.004 0.001,-0.001 0.002,-0.004 0.003,-0.007l0.001 -0.002 0.001 -0.002c0,-0.001 0.001,-0.002 0.001,-0.003 0.001,-0.002 0.002,-0.002 0.003,-0.002 0.001,0 0.003,0.002 0.005,0.005 0,0.001 0.001,0.001 0.001,0.002l0.001 0.001 0.001 0.001c0.001,0.002 0.002,0.004 0.003,0.006 0.003,0.004 0.006,0.008 0.008,0.01 0.003,0.003 0.007,0.004 0.011,0.003 0.006,-0.001 0.01,-0.008 0.01,-0.02 0,-0.01 -0.002,-0.025 -0.007,-0.042zm0.062 0.013l-0.001 0.001c-0.001,0 -0.001,0.001 -0.002,0.001 -0.002,0.001 -0.003,0.001 -0.005,0.001 0.001,-0.001 0.003,-0.001 0.004,-0.002l0.001 -0.001 0.001 -0.001c0.001,-0.001 0.001,-0.001 0.002,-0.001 0.001,-0.001 0.003,-0.002 0.004,-0.002 0.002,-0.001 0.003,-0.001 0.005,-0.001 -0.002,0.001 -0.005,0.003 -0.008,0.004l-0.001 0.001zm-0.037 -0.068c-0.002,0.001 -0.004,0.002 -0.005,0.004 -0.002,0.002 -0.003,0.004 -0.004,0.005 -0.001,0.002 -0.002,0.004 -0.003,0.006 -0.001,0.004 -0.001,0.009 -0.002,0.014 -0,0.002 0,0.005 0,0.007 0,0.001 0,0.002 0,0.004l0 0.004c-0.001,-0.005 -0.002,-0.01 -0.002,-0.015 -0,-0.005 0,-0.01 0.001,-0.015 0.001,-0.003 0.002,-0.005 0.003,-0.007 0.001,-0.002 0.003,-0.004 0.005,-0.005 0.002,-0.001 0.004,-0.003 0.006,-0.004 0.002,-0.001 0.004,-0.002 0.006,-0.002 -0.002,0.001 -0.004,0.002 -0.006,0.003zm0.023 0.038l0 -0c0,-0 0.001,-0 0.001,-0.001 0.001,-0 0.002,-0.001 0.003,-0 0.001,0 0.002,0 0.002,0.001 -0.001,-0 -0.001,0 -0.002,0 -0.001,0 -0.001,0 -0.002,0.001l-0.001 0 -0 0c-0,0 -0.001,0 -0.001,0 -0.001,0 -0.002,0 -0.003,0l0.001 -0.001 0.001 -0.001 0.001 -0zm0.009 0.025c-0.002,0.002 -0.004,0.002 -0.006,0.002 -0.002,-0 -0.003,-0.001 -0.004,-0.003 -0.001,-0.001 -0.001,-0.003 -0,-0.004 0,-0.002 0.002,-0.003 0.003,-0.003 0.005,-0.002 0.008,-0.004 0.01,-0.007 0.002,-0.003 0.002,-0.006 0.001,-0.009 -0.001,-0.003 -0.003,-0.005 -0.006,-0.006 -0.003,-0.001 -0.006,-0.001 -0.01,0.001 -0.003,0.002 -0.005,0.001 -0.007,-0.001 -0.001,-0.001 -0.001,-0.002 -0.001,-0.003 0,-0.001 0,-0.002 0.001,-0.003 0.001,-0.001 0.003,-0.003 0.006,-0.004 0.001,-0 0.002,-0.001 0.004,-0.001l0.002 -0.001 0.002 -0.001c0.003,-0.001 0.005,-0.002 0.007,-0.003 0.002,-0.002 0.003,-0.004 0.004,-0.006 0.001,-0.004 -0.001,-0.009 -0.005,-0.012 -0.004,-0.003 -0.009,-0.006 -0.015,-0.006 -0.007,-0.001 -0.013,-0 -0.019,0.002 -0.007,0.002 -0.012,0.007 -0.015,0.013 -0.003,0.006 -0.005,0.013 -0.005,0.024 0,0.01 0.002,0.02 0.004,0.03 0.003,0.011 0.007,0.02 0.011,0.028 0.005,0.008 0.01,0.014 0.015,0.016 0.005,0.002 0.011,0.002 0.017,0.001 0.006,-0.002 0.011,-0.004 0.017,-0.009 0.005,-0.004 0.009,-0.009 0.012,-0.014 0.003,-0.005 0.004,-0.01 0.003,-0.015 -0.001,-0.006 -0.004,-0.009 -0.009,-0.01 -0.005,-0.001 -0.011,0.001 -0.019,0.006zm0.064 -0.042c-0.001,0.002 -0.003,0.003 -0.004,0.004 -0.002,0.001 -0.003,0.002 -0.004,0.003 -0.001,0.002 -0.002,0.003 -0.002,0.005 -0,-0.001 -0,-0.002 -0,-0.003 0,-0.001 0.001,-0.002 0.001,-0.003 0.001,-0.001 0.002,-0.003 0.005,-0.004 0.002,-0.001 0.003,-0.002 0.004,-0.004 0.001,-0.002 0.002,-0.003 0.003,-0.005 -0,0.002 -0.001,0.004 -0.002,0.006zm-0.012 0.04c-0.003,0 -0.005,0.001 -0.006,0.001 -0.001,0 -0.002,0.001 -0.003,0.001 -0,0 -0.001,0.001 -0.001,0.001l-0 0.001 -0 0.001c-0,-0.001 -0,-0.001 -0,-0.002 -0,-0.001 0,-0.001 0,-0.002 0.001,-0.001 0.001,-0.002 0.003,-0.002 0.002,-0.001 0.004,-0.001 0.006,-0.002 0.002,-0 0.004,-0 0.006,-0l0.003 -0 0.003 -0c-0.002,0.001 -0.004,0.001 -0.006,0.002l-0.003 0 -0.003 0zm-0.012 -0.074c-0.003,0.002 -0.005,0.004 -0.006,0.006 -0.001,0.001 -0.002,0.002 -0.003,0.003 -0.001,0.001 -0.002,0.002 -0.002,0.004 -0.001,0.003 -0.002,0.006 -0.001,0.009 -0.001,-0.001 -0.001,-0.003 -0.001,-0.005 0,-0.002 0,-0.003 0.001,-0.005 0.001,-0.002 0.003,-0.005 0.005,-0.007 0.004,-0.004 0.009,-0.007 0.015,-0.009 -0.002,0.002 -0.005,0.003 -0.007,0.005zm0.058 0.044c-0.002,-0.002 -0.004,-0.003 -0.005,-0.004 -0.001,-0.001 -0.003,-0.001 -0.004,-0.002l-0.001 -0 -0.001 -0c-0.001,-0 -0.001,-0 -0.001,-0.001 -0.001,-0 -0.001,-0.001 -0.002,-0.002 -0,-0.001 0,-0.002 0.001,-0.004 0,-0.001 0.001,-0.001 0.002,-0.002l0 -0.001 0.001 -0.001 0.001 -0.002c0.002,-0.003 0.003,-0.005 0.003,-0.007 0.001,-0.003 0.001,-0.006 0.001,-0.009 -0.001,-0.008 -0.004,-0.014 -0.009,-0.018 -0.006,-0.005 -0.013,-0.007 -0.022,-0.006 -0.005,0 -0.01,0.001 -0.015,0.004 -0.005,0.002 -0.01,0.005 -0.014,0.009 -0.004,0.004 -0.007,0.008 -0.009,0.012 -0.002,0.005 -0.002,0.009 -0.001,0.014 0.004,0.011 0.013,0.012 0.029,0.004 0.003,-0.001 0.005,-0.002 0.006,-0.002 0.002,-0 0.002,0 0.003,0.001 0,0.001 0,0.002 -0,0.003 -0.001,0.001 -0.002,0.003 -0.004,0.004 -0.007,0.004 -0.009,0.01 -0.008,0.016 0.001,0.003 0.002,0.005 0.005,0.007 0.003,0.002 0.006,0.002 0.009,0.001 0.003,-0.001 0.006,-0 0.007,0.002 0.001,0.001 0.001,0.002 0.001,0.003 -0,0.001 -0.001,0.002 -0.002,0.003 -0.001,0.001 -0.004,0.002 -0.008,0.003 -0.001,0 -0.002,0 -0.003,0l-0.003 0c-0.002,0 -0.004,0 -0.006,0.001 -0.004,0.001 -0.007,0.002 -0.009,0.003 -0.002,0.002 -0.003,0.005 -0.003,0.009 0.001,0.005 0.004,0.009 0.009,0.012 0.005,0.003 0.011,0.005 0.018,0.006 0.007,0.001 0.014,0 0.021,-0.002 0.007,-0.002 0.012,-0.006 0.016,-0.01 0.005,-0.007 0.007,-0.015 0.006,-0.023 -0.001,-0.008 -0.004,-0.014 -0.01,-0.019zm-0.547 0.241c-0.001,0 -0.001,0.001 -0.001,0.002 -0.001,0.001 -0.001,0.003 -0.001,0.005 0,0.003 0.001,0.007 0.002,0.011l0 0.001 0 0.001c0,0.001 0.001,0.002 0.001,0.003 0,0.002 0,0.004 -0,0.006 -0,0.002 -0.001,0.004 -0.002,0.005 -0.001,0.002 -0.002,0.003 -0.004,0.004 0.003,-0.002 0.004,-0.006 0.005,-0.01 0,-0.002 0,-0.004 -0,-0.006 -0,-0.001 -0,-0.002 -0.001,-0.003l-0 -0.001 -0 -0.001c-0.001,-0.005 -0.002,-0.009 -0.002,-0.012 0,-0.002 0,-0.004 0.001,-0.006 0.001,-0.001 0.001,-0.002 0.002,-0.002 0.001,-0 0.001,-0.001 0.003,-0.001 -0.001,0 -0.002,0.001 -0.002,0.001zm-0.048 0.013c-0.001,0.002 -0.002,0.005 -0.002,0.008 -0,0.003 -0,0.005 -0,0.009l0 0.004 0 0.004c-0.001,-0.006 -0.002,-0.012 -0.001,-0.018 0,-0.003 0.001,-0.006 0.003,-0.008 0.001,-0.001 0.002,-0.002 0.003,-0.003 0.001,-0.001 0.003,-0.001 0.004,-0.001 -0.002,0.001 -0.004,0.003 -0.006,0.005zm0.049 -0.02c-0.005,0.001 -0.008,0.005 -0.009,0.01 -0.001,0.005 -0,0.012 0.002,0.021 0.001,0.004 0.001,0.007 -0,0.009 -0.001,0.002 -0.003,0.003 -0.005,0.004 -0.002,0 -0.004,-0 -0.006,-0.002 -0.002,-0.002 -0.003,-0.004 -0.003,-0.008 -0.001,-0.009 -0.004,-0.016 -0.007,-0.02 -0.003,-0.004 -0.008,-0.005 -0.013,-0.005 -0.004,0 -0.008,0.002 -0.011,0.006 -0.003,0.004 -0.004,0.008 -0.005,0.013 -0.001,0.01 0,0.022 0.003,0.036 0.003,0.013 0.007,0.025 0.012,0.036 0.004,0.008 0.008,0.014 0.013,0.016 0.004,0.002 0.008,0.003 0.012,0.001 0.009,-0.004 0.011,-0.012 0.007,-0.025 -0.003,-0.009 -0.002,-0.015 0.002,-0.016 0.002,-0 0.004,0 0.006,0.001 0.002,0.002 0.004,0.006 0.005,0.011 0.002,0.009 0.004,0.015 0.008,0.019 0.004,0.004 0.008,0.005 0.013,0.004 0.008,-0.002 0.013,-0.009 0.014,-0.021 0.001,-0.009 -0.001,-0.023 -0.005,-0.042 -0.003,-0.015 -0.008,-0.027 -0.014,-0.036 -0.006,-0.009 -0.013,-0.013 -0.02,-0.011zm0.095 0.058c-0.001,0.002 -0.002,0.003 -0.003,0.004 -0.001,0.001 -0.002,0.002 -0.004,0.002 0.002,-0.002 0.004,-0.004 0.005,-0.007 0.001,-0.002 0.001,-0.005 0.001,-0.009 0.001,0.003 0.001,0.006 0,0.009zm-0.017 -0.005c-0.001,-0.002 -0.001,-0.004 -0,-0.006 0,-0.002 0.001,-0.003 0.003,-0.004 0.001,-0.001 0.003,-0 0.005,0.001 0.002,0.001 0.003,0.002 0.003,0.004 0.001,0.002 0.001,0.004 0,0.006 -0,0.002 -0.001,0.003 -0.003,0.004 -0.001,0.001 -0.003,0 -0.005,-0 -0.002,-0.001 -0.003,-0.002 -0.003,-0.004zm-0.017 -0.059c-0.003,0.002 -0.006,0.005 -0.008,0.009 -0.002,0.003 -0.004,0.007 -0.005,0.012l-0 0.002 -0 0.002 -0.001 0.003 -0 0.003 -0 0.003c-0,-0.004 0,-0.009 0.001,-0.013 0.001,-0.004 0.003,-0.009 0.005,-0.012 0.002,-0.004 0.005,-0.007 0.009,-0.009 0.002,-0.001 0.004,-0.002 0.006,-0.003l0.001 -0.001 0.001 -0 0.003 -0.001c-0.004,0.001 -0.008,0.003 -0.011,0.005zm0.022 -0.013c-0.016,-0.001 -0.027,0.005 -0.035,0.016 -0.007,0.01 -0.01,0.023 -0.008,0.039 0.001,0.015 0.006,0.028 0.014,0.04 0.009,0.012 0.019,0.019 0.032,0.019 0.012,0.001 0.021,-0.005 0.029,-0.016 0.007,-0.011 0.01,-0.023 0.011,-0.039 0,-0.016 -0.003,-0.029 -0.009,-0.04 -0.008,-0.012 -0.018,-0.019 -0.032,-0.019z"/>
    <path class="fil0" d="M0.518 0.457c-0.001,0.001 -0.001,0.003 -0.002,0.004 -0.001,0.002 -0.002,0.005 -0.003,0.009l-0.001 0.002 -0.001 0.002c-0.001,0.002 -0.001,0.003 -0.002,0.005 -0.001,0.002 -0.001,0.003 -0.002,0.004 -0.001,0.002 -0.002,0.003 -0.003,0.003 0.001,-0.001 0.002,-0.002 0.003,-0.004 0.001,-0.001 0.001,-0.003 0.002,-0.004 0,-0.001 0.001,-0.003 0.001,-0.005l0.001 -0.005c0.001,-0.004 0.002,-0.007 0.003,-0.009 0.001,-0.002 0.002,-0.003 0.003,-0.004 0.001,-0.002 0.003,-0.002 0.004,-0.003 -0.001,0 -0.002,0.002 -0.003,0.003zm-0.03 0.081c-0.001,0.001 -0.002,0.002 -0.002,0.003 -0.002,0.002 -0.003,0.004 -0.004,0.006 -0,0.001 -0.001,0.002 -0.001,0.004 -0,0.001 -0,0.002 -0,0.004 -0,-0.001 -0.001,-0.003 -0.001,-0.004 0,-0.001 0,-0.003 0.001,-0.004 0.001,-0.002 0.002,-0.004 0.004,-0.007 0.001,-0.002 0.003,-0.004 0.005,-0.006l0.001 -0.001 0.001 -0.001c0.001,-0.001 0.002,-0.002 0.003,-0.003 -0.001,0.002 -0.002,0.004 -0.004,0.006l-0.002 0.003zm-0.027 -0.061c-0,0.001 -0.001,0.003 -0.001,0.004 -0,0.001 0,0.003 0,0.004 -0.001,-0.001 -0.001,-0.003 -0.002,-0.004 -0,-0.002 -0,-0.003 0.001,-0.005 0.001,-0.002 0.001,-0.003 0.003,-0.004 0.001,-0.001 0.003,-0.001 0.004,-0.002 -0.003,0.001 -0.005,0.003 -0.006,0.006zm0.059 -0.029c-0.003,0.001 -0.005,0.003 -0.008,0.006 -0.002,0.003 -0.003,0.006 -0.005,0.011l-0.001 0.003 -0 0.001 -0 0.001c-0.001,0.002 -0.001,0.004 -0.002,0.005 -0.001,0.003 -0.002,0.005 -0.003,0.006 -0.001,0 -0.004,-0.001 -0.008,-0.005l-0.001 -0.001 -0.001 -0.001c-0.001,-0 -0.001,-0.001 -0.002,-0.001 -0.001,-0.001 -0.002,-0.002 -0.004,-0.003 -0.003,-0.002 -0.006,-0.004 -0.008,-0.005 -0.004,-0.002 -0.008,-0.003 -0.012,-0.002 -0.004,0.001 -0.006,0.003 -0.008,0.006 -0.002,0.003 -0.003,0.007 -0.003,0.011 0,0.004 0.002,0.008 0.005,0.012 0.002,0.003 0.005,0.005 0.009,0.008 0.001,0.001 0.003,0.002 0.005,0.003l0.002 0.002 0.002 0.001c0.004,0.002 0.007,0.004 0.008,0.005 0.003,0.002 0.004,0.004 0.005,0.006 0.001,0.002 -0,0.004 -0.002,0.007 -0.001,0.001 -0.002,0.002 -0.003,0.004l-0.001 0.001 -0.001 0.001 -0.002 0.002c-0.003,0.004 -0.005,0.007 -0.006,0.01 -0.002,0.004 -0.002,0.008 -0.001,0.013 0.001,0.003 0.002,0.006 0.004,0.009 0.002,0.002 0.004,0.004 0.007,0.006 0.006,0.003 0.013,0.002 0.02,-0.003 0.01,-0.006 0.018,-0.018 0.025,-0.037 0.006,-0.017 0.009,-0.032 0.009,-0.046 -0,-0.014 -0.003,-0.024 -0.007,-0.03 -0.003,-0.005 -0.008,-0.007 -0.013,-0.006zm0.096 0.049c-0,0 -0.001,0.001 -0.001,0.002l-0.001 0.001 -0.001 0.001c-0.001,0.001 -0.002,0.002 -0.003,0.003 -0.001,0.001 -0.003,0.001 -0.004,0.001 0.002,-0.001 0.004,-0.003 0.006,-0.005l0.001 -0.001 0.001 -0.001c0.001,-0.001 0.001,-0.001 0.002,-0.001 0.001,-0.001 0.003,-0.001 0.004,-0.001 -0.001,0.001 -0.002,0.001 -0.003,0.002zm-0.053 -0.042c-0.002,0.003 -0.003,0.007 -0.004,0.011 -0.001,0.004 -0.002,0.008 -0.002,0.012 -0,-0.004 0,-0.009 0.001,-0.013 0.001,-0.004 0.002,-0.008 0.004,-0.012 0.002,-0.004 0.005,-0.007 0.008,-0.009 0.002,-0.001 0.004,-0.002 0.005,-0.003 0.002,-0.001 0.004,-0.001 0.006,-0.002 -0.004,0.001 -0.008,0.003 -0.01,0.005 -0.003,0.003 -0.005,0.006 -0.007,0.009zm0.071 0.047c-0.003,-0.008 -0.006,-0.012 -0.012,-0.013 -0.002,-0 -0.004,-0 -0.007,0.001 -0.002,0.001 -0.004,0.003 -0.006,0.005 -0.002,0.002 -0.004,0.003 -0.006,0.004 -0.002,0 -0.004,-0 -0.007,-0.002 -0.002,-0.002 -0.004,-0.004 -0.006,-0.007 -0.002,-0.003 -0.003,-0.007 -0.003,-0.011 -0.001,-0.006 0.001,-0.01 0.005,-0.011 0.003,-0.001 0.008,-0.001 0.014,-0 0.003,0 0.005,-0 0.007,-0.002 0.002,-0.001 0.003,-0.003 0.003,-0.006 0,-0.003 0,-0.005 -0.001,-0.008 -0.001,-0.003 -0.003,-0.006 -0.006,-0.008 -0.006,-0.005 -0.012,-0.008 -0.02,-0.009 -0.007,-0.001 -0.014,0.001 -0.02,0.004 -0.008,0.004 -0.014,0.012 -0.017,0.023 -0.004,0.012 -0.004,0.025 -0,0.041 0.004,0.018 0.011,0.03 0.022,0.038 0.005,0.004 0.01,0.006 0.016,0.007 0.006,0.001 0.012,0 0.018,-0.002 0.01,-0.003 0.018,-0.009 0.022,-0.018 0.004,-0.008 0.005,-0.017 0.002,-0.025zm0.056 -0.011c-0.001,0.002 -0.001,0.003 -0.003,0.004 -0.001,0.001 -0.003,0.002 -0.004,0.002 0.003,-0.001 0.005,-0.003 0.006,-0.006 0,-0.001 0.001,-0.003 0.001,-0.004 -0,-0.001 -0,-0.003 -0.001,-0.005 0.001,0.001 0.002,0.003 0.002,0.005 0,0.002 0,0.003 -0,0.005zm-0.014 -0.003c-0.001,-0.001 -0.002,-0.003 -0.002,-0.004 -0,-0.002 0,-0.003 0.001,-0.004 0.001,-0.001 0.002,-0.001 0.003,-0.001 0.001,0 0.003,0.001 0.004,0.003 0.001,0.001 0.002,0.003 0.002,0.004 0,0.001 -0,0.003 -0.001,0.003 -0.001,0.001 -0.002,0.001 -0.003,0.001 -0.001,-0 -0.003,-0.001 -0.004,-0.003zm-0.022 -0.063c-0.001,0.001 -0.002,0.002 -0.003,0.003 -0.001,0.002 -0.003,0.004 -0.004,0.007 -0.001,0.002 -0.002,0.004 -0.003,0.007 -0,0.001 -0.001,0.002 -0.001,0.004l-0.001 0.004c0,-0.003 0.001,-0.006 0.001,-0.008 0.001,-0.003 0.001,-0.005 0.003,-0.008 0.001,-0.003 0.003,-0.005 0.004,-0.007 0.002,-0.002 0.004,-0.004 0.006,-0.004 -0.001,0 -0.002,0.001 -0.003,0.002zm0.027 0.033c-0.003,-0 -0.004,-0.001 -0.006,-0.003 -0.001,-0.002 -0.001,-0.004 -0.002,-0.007 -0,-0.001 -0,-0.001 -0,-0.002l-0 -0.002c-0,-0.002 -0,-0.004 -0,-0.005 -0,-0.004 -0.001,-0.008 -0.002,-0.011 -0.002,-0.004 -0.004,-0.007 -0.007,-0.009 -0.003,-0.002 -0.006,-0.002 -0.01,-0.001 -0.004,0.001 -0.007,0.004 -0.01,0.009 -0.003,0.005 -0.006,0.013 -0.007,0.022 -0.002,0.009 -0.002,0.019 -0.001,0.029 0.001,0.01 0.004,0.02 0.008,0.028 0.004,0.009 0.01,0.015 0.017,0.019 0.008,0.004 0.016,0.005 0.026,0.003 0.009,-0.002 0.016,-0.007 0.021,-0.014 0.004,-0.007 0.006,-0.014 0.005,-0.022 -0.001,-0.008 -0.004,-0.015 -0.009,-0.021 -0.006,-0.006 -0.013,-0.01 -0.023,-0.011zm0.047 -0.051c-0.003,0.001 -0.006,0.003 -0.008,0.004 -0.003,0.002 -0.005,0.003 -0.007,0.005 -0.001,0.001 -0.002,0.002 -0.002,0.004 -0.001,0.001 -0.001,0.003 -0,0.004 -0.001,-0.002 -0.001,-0.003 -0,-0.005 0,-0.001 0.001,-0.003 0.002,-0.004 0.002,-0.002 0.004,-0.004 0.007,-0.006 0.005,-0.003 0.011,-0.005 0.017,-0.005 -0.003,0.001 -0.006,0.002 -0.008,0.003zm0.012 -0.01c-0.012,0.002 -0.021,0.006 -0.028,0.011 -0.007,0.005 -0.009,0.011 -0.007,0.018 0.001,0.004 0.003,0.006 0.006,0.007 0.002,0.001 0.005,0.001 0.009,0.001l0.002 -0 0.002 -0c0.002,-0 0.003,-0 0.004,-0 0.003,-0 0.005,0.001 0.006,0.003 0.001,0.001 0.002,0.008 0.003,0.021 0.001,0.006 0.002,0.012 0.002,0.016 0.001,0.006 0.002,0.012 0.004,0.016 0.002,0.007 0.006,0.012 0.011,0.016 0.005,0.004 0.01,0.005 0.016,0.002 0.01,-0.004 0.011,-0.016 0.004,-0.036 -0.004,-0.011 -0.007,-0.02 -0.009,-0.027 -0.002,-0.008 -0.002,-0.013 -0.001,-0.015 0.001,-0.001 0.003,-0.002 0.005,-0.003 0.001,-0 0.002,-0 0.004,-0.001l0.002 -0 0.002 -0.001c0.003,-0.001 0.005,-0.002 0.007,-0.003 0.002,-0.002 0.003,-0.004 0.003,-0.007 0,-0.004 -0.001,-0.007 -0.004,-0.01 -0.003,-0.003 -0.006,-0.005 -0.011,-0.006 -0.01,-0.003 -0.021,-0.003 -0.035,-0.001zm0.117 0.053c-0.001,0.002 -0.002,0.003 -0.003,0.004 -0.001,0.001 -0.002,0.002 -0.004,0.002 0.002,-0.002 0.004,-0.004 0.005,-0.007 0.001,-0.002 0.001,-0.005 0.001,-0.009 0.001,0.003 0.001,0.006 0,0.009zm-0.017 -0.005c-0.001,-0.002 -0.001,-0.004 -0,-0.006 0,-0.002 0.001,-0.003 0.003,-0.004 0.001,-0.001 0.003,-0 0.005,0.001 0.002,0.001 0.003,0.002 0.003,0.004 0.001,0.002 0.001,0.004 0,0.006 -0,0.002 -0.001,0.003 -0.003,0.004 -0.001,0.001 -0.003,0 -0.005,-0 -0.002,-0.001 -0.003,-0.002 -0.003,-0.004zm-0.017 -0.059c-0.003,0.002 -0.006,0.005 -0.008,0.009 -0.002,0.003 -0.004,0.007 -0.005,0.012l-0 0.002 -0 0.002 -0.001 0.003 -0 0.003 -0 0.003c-0,-0.004 0,-0.009 0.001,-0.013 0.001,-0.004 0.003,-0.009 0.005,-0.012 0.002,-0.004 0.005,-0.007 0.009,-0.009 0.002,-0.001 0.003,-0.002 0.006,-0.003l0.001 -0.001 0.001 -0 0.003 -0.001c-0.004,0.001 -0.008,0.003 -0.011,0.005zm0.022 -0.013c-0.016,-0.001 -0.027,0.005 -0.035,0.016 -0.007,0.01 -0.01,0.023 -0.008,0.039 0.001,0.015 0.006,0.028 0.014,0.04 0.009,0.012 0.019,0.019 0.032,0.019 0.012,0.001 0.021,-0.005 0.029,-0.016 0.007,-0.011 0.01,-0.023 0.011,-0.039 0,-0.016 -0.003,-0.029 -0.009,-0.04 -0.008,-0.012 -0.018,-0.019 -0.032,-0.019z"/>
   </g>
   <path class="fil0" d="M0.016 0.181c-0.001,0.001 -0.001,0.003 -0.001,0.005 -0.001,-0.002 -0,-0.004 0,-0.005 0,-0.001 0.001,-0.001 0.002,-0.002 0.001,-0.001 0.002,-0.001 0.002,-0.001 -0.001,0.001 -0.002,0.002 -0.003,0.003zm0.002 -0.008c-0.002,0.001 -0.004,0.002 -0.006,0.005 -0.001,0.002 -0.002,0.005 -0.002,0.008 0,0.003 0.001,0.006 0.003,0.008 0.002,0.002 0.004,0.003 0.007,0.003 0.003,0 0.005,-0.001 0.007,-0.003 0.002,-0.003 0.003,-0.006 0.002,-0.009 -0,-0.004 -0.002,-0.007 -0.004,-0.009 -0.002,-0.002 -0.005,-0.003 -0.008,-0.002zm0.041 -0.002c-0.001,0.001 -0.001,0.003 -0.001,0.005 -0.001,-0.002 -0,-0.004 0,-0.005 0,-0.001 0.001,-0.001 0.002,-0.002 0.001,-0.001 0.002,-0.001 0.002,-0.001 -0.001,0.001 -0.002,0.002 -0.003,0.003zm0.002 -0.008c-0.002,0.001 -0.004,0.002 -0.006,0.005 -0.001,0.002 -0.002,0.005 -0.002,0.008 0,0.003 0.001,0.006 0.003,0.008 0.002,0.002 0.004,0.003 0.007,0.003 0.003,0 0.005,-0.001 0.007,-0.003 0.002,-0.003 0.003,-0.006 0.002,-0.009 -0,-0.004 -0.002,-0.007 -0.004,-0.009 -0.002,-0.002 -0.005,-0.003 -0.008,-0.002z"/>
   <path class="fil0" d="M0.544 0.057c-0.001,0.001 -0.001,0.003 -0.001,0.005 -0.001,-0.002 -0,-0.004 0,-0.005 0,-0.001 0.001,-0.001 0.002,-0.002 0.001,-0.001 0.002,-0.001 0.002,-0.001 -0.001,0.001 -0.002,0.002 -0.003,0.003zm0.002 -0.008c-0.002,0.001 -0.004,0.002 -0.006,0.005 -0.001,0.002 -0.002,0.005 -0.002,0.008 0,0.003 0.001,0.006 0.003,0.008 0.002,0.002 0.004,0.003 0.007,0.003 0.003,0 0.005,-0.001 0.007,-0.003 0.002,-0.003 0.003,-0.006 0.002,-0.009 -0,-0.004 -0.002,-0.007 -0.004,-0.009 -0.002,-0.002 -0.005,-0.003 -0.008,-0.002zm0.041 -0.002c-0.001,0.001 -0.001,0.003 -0.001,0.005 -0.001,-0.002 -0,-0.004 0,-0.005 0,-0.001 0.001,-0.001 0.002,-0.002 0.001,-0.001 0.002,-0.001 0.002,-0.001 -0.001,0.001 -0.002,0.002 -0.003,0.003zm0.002 -0.008c-0.002,0.001 -0.004,0.002 -0.006,0.005 -0.001,0.002 -0.002,0.005 -0.002,0.008 0,0.003 0.001,0.006 0.003,0.008 0.002,0.002 0.004,0.003 0.007,0.003 0.003,0 0.005,-0.001 0.007,-0.003 0.002,-0.003 0.003,-0.006 0.002,-0.009 -0,-0.004 -0.002,-0.007 -0.004,-0.009 -0.002,-0.002 -0.005,-0.003 -0.008,-0.002z"/>
  </g>
 </g>
</svg>
