<?xml version="1.0" encoding="UTF-8"?>
<!DOCTYPE svg PUBLIC "-//W3C//DTD SVG 1.1//EN" "http://www.w3.org/Graphics/SVG/1.1/DTD/svg11.dtd">
<!-- Creator: CorelDRAW -->
<svg xmlns="http://www.w3.org/2000/svg" xml:space="preserve" width="28.9344mm" height="9.2811mm" version="1.1" style="shape-rendering:geometricPrecision; text-rendering:geometricPrecision; image-rendering:optimizeQuality; fill-rule:evenodd; clip-rule:evenodd"
viewBox="0 0 45.41 14.57"
 xmlns:xlink="http://www.w3.org/1999/xlink"
 xmlns:xodm="http://www.corel.com/coreldraw/odm/2003">
 <defs>
  <style type="text/css">
   <![CDATA[
    .fil0 {fill:#969677;fill-rule:nonzero}
    .fil1 {fill:white;fill-rule:nonzero}
   ]]>
  </style>
 </defs>
 <g id="Слой_x0020_1">
  <metadata id="CorelCorpID_0Corel-Layer"/>
  <path class="fil0" d="M3.04 5.47c-0.03,0 -0.06,0 -0.11,0.01l-0.06 0.01 -0.06 0c0.06,-0.06 0.14,-0.08 0.23,-0.09 0.05,0 0.09,0.01 0.12,0.02 0.04,0.02 0.07,0.05 0.1,0.08 -0.08,-0.02 -0.15,-0.04 -0.22,-0.03zm-1.9 -1.17c-0.05,0.06 -0.1,0.11 -0.14,0.16 -0.1,0.13 -0.18,0.24 -0.24,0.35 -0.07,0.13 -0.13,0.26 -0.16,0.39 -0.03,0.14 -0.05,0.28 -0.05,0.44l-0.02 -0.11 -0 -0.05 0 -0.06 0 -0.05 0 -0.06 0.01 -0.05 0.01 -0.06c0.03,-0.14 0.08,-0.28 0.15,-0.42 0.07,-0.13 0.16,-0.24 0.26,-0.35 0.05,-0.05 0.1,-0.1 0.16,-0.15l0.08 -0.06c0.03,-0.02 0.06,-0.04 0.09,-0.06l-0.08 0.08 -0.07 0.08zm0.33 -2.31c-0.06,0.03 -0.12,0.06 -0.18,0.1 -0.13,0.07 -0.24,0.15 -0.34,0.24 -0.1,0.09 -0.2,0.19 -0.29,0.3 -0.04,0.06 -0.08,0.12 -0.11,0.18 -0.04,0.07 -0.06,0.14 -0.07,0.21 -0,-0.13 0.04,-0.27 0.14,-0.42 0.08,-0.12 0.17,-0.23 0.29,-0.33 0.12,-0.1 0.24,-0.18 0.36,-0.23 0.07,-0.03 0.13,-0.06 0.19,-0.08 0.07,-0.02 0.14,-0.04 0.2,-0.05l-0.1 0.04c-0.04,0.01 -0.07,0.03 -0.1,0.04zm1.24 3.24c-0.19,0.08 -0.36,0.11 -0.52,0.1 -0.13,-0.01 -0.21,-0.04 -0.24,-0.1 -0.01,-0.03 -0.02,-0.05 -0.02,-0.08 -0,-0.04 0.01,-0.08 0.03,-0.13 0.05,-0.12 0.18,-0.25 0.38,-0.38 0.27,-0.17 0.49,-0.39 0.66,-0.66 0.17,-0.26 0.28,-0.53 0.33,-0.82 0.05,-0.29 0.03,-0.56 -0.06,-0.79 -0.1,-0.26 -0.28,-0.45 -0.54,-0.59 -0.3,-0.16 -0.63,-0.22 -0.97,-0.17 -0.3,0.04 -0.59,0.16 -0.86,0.36 -0.25,0.18 -0.44,0.39 -0.57,0.63 -0.13,0.24 -0.15,0.45 -0.09,0.64 0.07,0.18 0.2,0.28 0.39,0.32 0.2,0.03 0.43,-0.02 0.71,-0.16 0.15,-0.08 0.26,-0.12 0.32,-0.14 0.06,-0.01 0.11,-0 0.14,0.03 0.07,0.07 -0.01,0.19 -0.25,0.33 -0.44,0.27 -0.76,0.58 -0.98,0.91 -0.28,0.42 -0.36,0.87 -0.26,1.33 0.07,0.33 0.29,0.58 0.65,0.73 0.29,0.12 0.66,0.19 1.1,0.19 0.45,0 0.81,-0.06 1.1,-0.2 0.29,-0.14 0.46,-0.33 0.51,-0.57 0.03,-0.12 0.02,-0.24 -0.02,-0.36 -0.04,-0.12 -0.1,-0.23 -0.18,-0.32 -0.09,-0.09 -0.2,-0.15 -0.32,-0.17 -0.14,-0.02 -0.29,-0 -0.44,0.07z"/>
  <path id="_1" class="fil0" d="M6.17 5.05c-0.04,0.08 -0.09,0.15 -0.14,0.2 -0.06,0.06 -0.13,0.09 -0.21,0.1 0.13,-0.07 0.22,-0.18 0.29,-0.33 0.05,-0.11 0.09,-0.26 0.11,-0.45 0.04,0.16 0.02,0.32 -0.05,0.48zm-0.42 0.02c-0.08,0.03 -0.16,0 -0.24,-0.08 -0.08,-0.08 -0.13,-0.19 -0.16,-0.33 -0.03,-0.14 -0.02,-0.27 0.02,-0.38 0.04,-0.12 0.1,-0.19 0.18,-0.22 0.08,-0.03 0.16,0 0.24,0.08 0.08,0.08 0.13,0.19 0.16,0.33 0.03,0.14 0.02,0.27 -0.02,0.38 -0.04,0.12 -0.1,0.19 -0.18,0.22zm-1.03 -2.61c-0.1,0.15 -0.18,0.33 -0.26,0.55 -0.06,0.18 -0.11,0.38 -0.14,0.61 0,-0.08 0.01,-0.19 0.03,-0.32 0.02,-0.1 0.04,-0.21 0.07,-0.31 0.06,-0.22 0.14,-0.41 0.25,-0.58 0.12,-0.19 0.27,-0.33 0.44,-0.42 0.09,-0.05 0.18,-0.08 0.28,-0.1 0.1,-0.02 0.2,-0.02 0.29,-0.01 -0.22,0.02 -0.4,0.07 -0.55,0.16 -0.16,0.1 -0.3,0.24 -0.41,0.42zm1.33 -0.83c-0.61,-0.13 -1.1,0.04 -1.47,0.5 -0.32,0.41 -0.5,0.97 -0.53,1.68 -0.03,0.69 0.08,1.31 0.34,1.87 0.28,0.61 0.66,0.96 1.14,1.08 0.45,0.11 0.86,-0.08 1.21,-0.54 0.33,-0.43 0.54,-0.98 0.64,-1.67 0.1,-0.7 0.05,-1.32 -0.16,-1.85 -0.23,-0.6 -0.63,-0.95 -1.17,-1.07z"/>
  <path id="_2" class="fil0" d="M10.57 5.47c-0.03,0 -0.06,0 -0.11,0.01l-0.06 0.01 -0.06 0c0.06,-0.06 0.14,-0.08 0.23,-0.09 0.05,0 0.09,0.01 0.12,0.02 0.04,0.02 0.07,0.05 0.1,0.08 -0.08,-0.02 -0.15,-0.04 -0.22,-0.03zm-1.9 -1.17c-0.05,0.06 -0.1,0.11 -0.14,0.16 -0.1,0.13 -0.18,0.24 -0.24,0.35 -0.07,0.13 -0.13,0.26 -0.16,0.39 -0.03,0.14 -0.05,0.28 -0.05,0.44l-0.02 -0.11 -0 -0.05 0 -0.06 0 -0.05 0 -0.06 0.01 -0.05 0.01 -0.06c0.03,-0.14 0.08,-0.28 0.15,-0.42 0.07,-0.13 0.16,-0.24 0.26,-0.35 0.05,-0.05 0.1,-0.1 0.16,-0.15l0.08 -0.06c0.03,-0.02 0.06,-0.04 0.09,-0.06l-0.08 0.08 -0.07 0.08zm0.33 -2.31c-0.06,0.03 -0.12,0.06 -0.18,0.1 -0.13,0.07 -0.24,0.15 -0.34,0.24 -0.1,0.09 -0.2,0.19 -0.29,0.3 -0.04,0.06 -0.08,0.12 -0.11,0.18 -0.04,0.07 -0.06,0.14 -0.07,0.21 -0,-0.13 0.04,-0.27 0.14,-0.42 0.08,-0.12 0.17,-0.23 0.29,-0.33 0.12,-0.1 0.24,-0.18 0.36,-0.23 0.07,-0.03 0.13,-0.06 0.19,-0.08 0.07,-0.02 0.14,-0.04 0.2,-0.05l-0.1 0.04c-0.04,0.01 -0.07,0.03 -0.1,0.04zm1.24 3.24c-0.19,0.08 -0.36,0.11 -0.52,0.1 -0.13,-0.01 -0.21,-0.04 -0.24,-0.1 -0.01,-0.03 -0.02,-0.05 -0.02,-0.08 -0,-0.04 0.01,-0.08 0.03,-0.13 0.05,-0.12 0.18,-0.25 0.38,-0.38 0.27,-0.17 0.49,-0.39 0.66,-0.66 0.17,-0.26 0.28,-0.53 0.33,-0.82 0.05,-0.29 0.03,-0.56 -0.06,-0.79 -0.1,-0.26 -0.28,-0.45 -0.54,-0.59 -0.3,-0.16 -0.63,-0.22 -0.97,-0.17 -0.3,0.04 -0.59,0.16 -0.86,0.36 -0.25,0.18 -0.44,0.39 -0.57,0.63 -0.13,0.24 -0.15,0.45 -0.09,0.64 0.07,0.18 0.2,0.28 0.39,0.32 0.2,0.03 0.43,-0.02 0.71,-0.16 0.15,-0.08 0.26,-0.12 0.32,-0.14 0.06,-0.01 0.11,-0 0.14,0.03 0.07,0.07 -0.01,0.19 -0.25,0.33 -0.44,0.27 -0.76,0.58 -0.98,0.91 -0.28,0.42 -0.36,0.87 -0.26,1.33 0.07,0.33 0.29,0.58 0.65,0.73 0.29,0.12 0.66,0.19 1.1,0.19 0.45,0 0.81,-0.06 1.1,-0.2 0.29,-0.14 0.46,-0.33 0.51,-0.57 0.03,-0.12 0.02,-0.24 -0.02,-0.36 -0.04,-0.12 -0.1,-0.23 -0.18,-0.32 -0.09,-0.09 -0.2,-0.15 -0.32,-0.17 -0.14,-0.02 -0.29,-0 -0.44,0.07z"/>
  <path id="_3" class="fil0" d="M17.39 3.9c-0.05,0.01 -0.1,0.03 -0.15,0.05l-0.04 0.01 -0.04 0.02c-0.03,0.01 -0.06,0.02 -0.08,0.03 -0.06,0.02 -0.11,0.02 -0.17,0.02l0.08 -0.03c0.03,-0.01 0.06,-0.02 0.08,-0.03l0.04 -0.02 0.04 -0.02c0.03,-0.02 0.05,-0.03 0.08,-0.04 0.06,-0.03 0.12,-0.04 0.17,-0.04 0.07,-0 0.12,0.01 0.17,0.05 -0.05,-0.01 -0.11,-0.01 -0.16,0zm-1.53 0.11c-0.05,0 -0.1,0.01 -0.13,0.01 -0.05,0 -0.1,0.01 -0.13,0.02 -0.02,0.01 -0.04,0.02 -0.05,0.03 -0.01,0.01 -0.02,0.03 -0.03,0.06 -0,-0.03 0,-0.06 0.01,-0.08 0.01,-0.02 0.03,-0.04 0.06,-0.06 0.04,-0.02 0.08,-0.03 0.14,-0.04 0.06,-0.01 0.1,-0 0.14,0 0.05,0.01 0.1,0.02 0.14,0.03 -0.04,0.01 -0.09,0.02 -0.14,0.02zm1.2 -0.27c-0.09,0.05 -0.24,0.08 -0.45,0.07 -0.07,-0.01 -0.16,-0.01 -0.28,-0.03l-0.14 -0.01c-0.05,-0.01 -0.1,-0.01 -0.14,-0.01 -0.22,-0.02 -0.39,-0.01 -0.5,0.03 -0.15,0.05 -0.23,0.16 -0.25,0.32 -0.03,0.21 0.06,0.39 0.26,0.54 0.19,0.14 0.43,0.24 0.74,0.29 0.3,0.05 0.59,0.05 0.86,-0 0.29,-0.06 0.51,-0.17 0.64,-0.33 0.1,-0.12 0.15,-0.25 0.15,-0.39 0,-0.14 -0.03,-0.26 -0.11,-0.37 -0.08,-0.11 -0.18,-0.17 -0.31,-0.2 -0.14,-0.03 -0.3,0.01 -0.46,0.1z"/>
  <path id="_4" class="fil0" d="M19.49 1.92c-0.16,0.02 -0.28,0.05 -0.38,0.08 -0.15,0.04 -0.26,0.1 -0.35,0.16 -0.06,0.05 -0.11,0.09 -0.14,0.13 -0.04,0.05 -0.06,0.12 -0.06,0.2 -0.02,-0.07 -0.01,-0.15 0.03,-0.21 0.03,-0.06 0.08,-0.11 0.14,-0.16 0.09,-0.07 0.21,-0.13 0.36,-0.18 0.25,-0.07 0.51,-0.09 0.79,-0.07 -0.14,0.01 -0.27,0.03 -0.39,0.05zm0.63 -0.32c-0.54,-0.03 -0.98,0.03 -1.32,0.19 -0.36,0.17 -0.52,0.41 -0.5,0.73 0.01,0.18 0.08,0.3 0.21,0.38 0.09,0.06 0.22,0.1 0.4,0.12l0.11 0.01 0.11 0.01c0.08,0.01 0.15,0.02 0.2,0.03 0.14,0.03 0.22,0.09 0.25,0.18 0.02,0.05 -0,0.37 -0.06,0.94 -0.03,0.29 -0.05,0.54 -0.06,0.75 -0.01,0.29 -0.01,0.55 0.01,0.76 0.03,0.33 0.13,0.59 0.31,0.8 0.19,0.22 0.41,0.3 0.67,0.27 0.48,-0.07 0.65,-0.59 0.52,-1.55 -0.07,-0.51 -0.1,-0.94 -0.11,-1.3 -0,-0.38 0.03,-0.61 0.1,-0.67 0.05,-0.04 0.14,-0.06 0.26,-0.07 0.04,0 0.09,0 0.17,0l0.09 0 0.09 -0c0.14,-0 0.26,-0.03 0.34,-0.07 0.11,-0.06 0.18,-0.15 0.22,-0.28 0.04,-0.16 0.02,-0.32 -0.07,-0.47 -0.09,-0.14 -0.23,-0.26 -0.42,-0.38 -0.39,-0.23 -0.9,-0.36 -1.53,-0.39z"/>
  <path id="_5" class="fil0" d="M25.1 2.17c-0.06,0.07 -0.12,0.16 -0.18,0.26 -0.1,0.18 -0.19,0.37 -0.27,0.58l-0.05 0.15 -0.05 0.16c-0.04,0.14 -0.08,0.24 -0.11,0.31 -0.05,0.13 -0.1,0.23 -0.15,0.29 -0.04,0.05 -0.08,0.08 -0.13,0.1 -0.04,0.02 -0.09,0.02 -0.15,0.02 0.06,-0 0.11,-0.01 0.15,-0.03 0.04,-0.02 0.08,-0.06 0.11,-0.11 0.04,-0.06 0.09,-0.16 0.13,-0.29l0.05 -0.16 0.05 -0.16c0.04,-0.12 0.07,-0.23 0.1,-0.31 0.08,-0.22 0.18,-0.42 0.29,-0.58 0.15,-0.22 0.29,-0.37 0.44,-0.45 -0.08,0.06 -0.16,0.13 -0.22,0.22zm-2.21 0.84c-0.03,0.15 -0.06,0.32 -0.08,0.53l-0.03 0.27 -0.03 0.26c-0.02,-0.53 0.04,-1 0.17,-1.41 0.02,-0.08 0.05,-0.16 0.08,-0.22 0.04,-0.09 0.08,-0.16 0.12,-0.22 0.11,-0.16 0.23,-0.24 0.37,-0.23 -0.17,0.02 -0.31,0.15 -0.42,0.4 -0.04,0.09 -0.08,0.2 -0.11,0.33 -0.01,0.05 -0.03,0.1 -0.04,0.16l-0.02 0.07 -0.01 0.03 -0.01 0.03zm3.06 -1.3c-0.27,-0.18 -0.55,-0.16 -0.83,0.04 -0.23,0.17 -0.43,0.44 -0.61,0.82 -0.06,0.12 -0.11,0.26 -0.17,0.42 -0.02,0.06 -0.04,0.13 -0.07,0.2l-0.03 0.09 -0.01 0.04 -0.02 0.04c-0.04,0.13 -0.08,0.23 -0.1,0.28 -0.03,0.07 -0.06,0.1 -0.09,0.1 -0.06,-0 -0.09,-0.05 -0.09,-0.15 -0,-0.08 0.01,-0.27 0.05,-0.56 0.07,-0.53 0.04,-0.91 -0.1,-1.12 -0.11,-0.17 -0.28,-0.24 -0.51,-0.21 -0.28,0.04 -0.51,0.33 -0.68,0.87 -0.16,0.52 -0.23,1.16 -0.21,1.92 0.04,1.39 0.42,2.13 1.13,2.24 0.21,0.03 0.42,-0.02 0.62,-0.16 0.2,-0.13 0.36,-0.31 0.5,-0.54 0.12,-0.2 0.22,-0.39 0.31,-0.56 0.03,-0.07 0.06,-0.13 0.09,-0.2 0.02,-0.04 0.04,-0.09 0.06,-0.14 0.04,-0.09 0.06,-0.14 0.07,-0.16 0.02,-0.02 0.04,-0.03 0.07,-0.02 0.03,0.01 0.03,0.11 0.01,0.3l-0.01 0.07 -0.01 0.07c-0.01,0.06 -0.01,0.11 -0.02,0.15 -0.01,0.13 -0.02,0.24 -0.02,0.33 -0.01,0.59 0.18,0.88 0.58,0.88 0.25,-0 0.46,-0.24 0.6,-0.71 0.13,-0.42 0.19,-0.96 0.19,-1.6 0,-0.63 -0.06,-1.2 -0.18,-1.71 -0.13,-0.55 -0.31,-0.9 -0.52,-1.04z"/>
  <path id="_6" class="fil0" d="M30.65 4.8c-0.05,0.04 -0.09,0.07 -0.14,0.08 -0.06,0.02 -0.11,0.02 -0.16,0 0.1,-0.03 0.19,-0.07 0.27,-0.14 0.06,-0.05 0.13,-0.13 0.2,-0.24 -0.02,0.12 -0.07,0.21 -0.16,0.29zm-0.36 -0.21c-0.05,-0.02 -0.09,-0.07 -0.1,-0.14 -0.02,-0.07 -0.01,-0.14 0.01,-0.21 0.03,-0.07 0.07,-0.13 0.12,-0.17 0.06,-0.04 0.11,-0.04 0.16,-0.02 0.05,0.02 0.09,0.07 0.1,0.13 0.02,0.07 0.01,0.14 -0.02,0.21 -0.03,0.07 -0.07,0.13 -0.12,0.17 -0.06,0.04 -0.11,0.04 -0.16,0.02zm-0.54 -1.95c-0.08,0.13 -0.19,0.29 -0.31,0.5 -0.04,0.08 -0.09,0.16 -0.14,0.26l-0.14 0.26c0.06,-0.18 0.14,-0.36 0.24,-0.55 0.09,-0.18 0.19,-0.35 0.3,-0.52 0.13,-0.19 0.25,-0.35 0.37,-0.46l0.05 -0.05c0.02,-0.02 0.04,-0.03 0.05,-0.05l0.06 -0.05 0.06 -0.04c0.11,-0.06 0.2,-0.09 0.27,-0.08 -0.08,0.01 -0.16,0.04 -0.25,0.11l-0.05 0.04 -0.05 0.05c-0.01,0.01 -0.03,0.03 -0.05,0.05l-0.05 0.05c-0.11,0.13 -0.23,0.28 -0.35,0.46zm0.89 -1.05c-0.29,-0.05 -0.61,0.17 -0.98,0.65 -0.32,0.43 -0.62,0.99 -0.88,1.67 -0.26,0.67 -0.41,1.27 -0.45,1.79 -0.05,0.57 0.06,0.91 0.31,1.01 0.19,0.08 0.37,0.08 0.55,-0.01 0.13,-0.06 0.27,-0.18 0.42,-0.35 0.03,-0.03 0.06,-0.07 0.09,-0.11l0.09 -0.11c0.07,-0.09 0.13,-0.16 0.16,-0.2 0.12,-0.13 0.22,-0.2 0.3,-0.2 0.08,0 0.19,0.06 0.31,0.19 0.04,0.04 0.09,0.1 0.17,0.19l0.09 0.1 0.09 0.11c0.15,0.16 0.29,0.27 0.41,0.33 0.16,0.08 0.32,0.07 0.49,-0.01 0.19,-0.1 0.3,-0.4 0.33,-0.93 0.02,-0.49 -0.03,-1.04 -0.15,-1.67 -0.13,-0.65 -0.3,-1.19 -0.53,-1.64 -0.25,-0.5 -0.52,-0.77 -0.81,-0.82z"/>
  <path id="_7" class="fil0" d="M34.71 3.74c-0.03,0.07 -0.06,0.13 -0.11,0.19 -0.05,0.06 -0.11,0.1 -0.17,0.13 -0.07,0.03 -0.14,0.04 -0.2,0.02 0.07,-0.01 0.13,-0.04 0.18,-0.07 0.06,-0.03 0.1,-0.08 0.14,-0.12 0.08,-0.09 0.15,-0.21 0.19,-0.36 0.01,0.07 -0,0.14 -0.03,0.21zm-0.6 -0.31c0.03,-0.07 0.08,-0.12 0.14,-0.16 0.06,-0.03 0.11,-0.03 0.16,-0.01 0.05,0.03 0.08,0.07 0.09,0.14 0.01,0.07 -0,0.14 -0.04,0.21 -0.03,0.07 -0.08,0.13 -0.13,0.16 -0.06,0.03 -0.11,0.03 -0.16,0.01 -0.05,-0.03 -0.08,-0.07 -0.09,-0.14 -0.01,-0.07 0,-0.14 0.03,-0.21zm-0.51 -1.43c-0.15,0.08 -0.28,0.18 -0.39,0.31 -0.1,0.12 -0.19,0.26 -0.27,0.44 -0.06,0.14 -0.12,0.31 -0.17,0.5 0.01,-0.07 0.02,-0.16 0.04,-0.26 0.02,-0.09 0.05,-0.18 0.08,-0.26 0.06,-0.17 0.15,-0.33 0.27,-0.46 0.12,-0.14 0.26,-0.24 0.42,-0.31 0.08,-0.03 0.16,-0.06 0.24,-0.08 0.09,-0.01 0.17,-0.02 0.25,-0.02 -0.18,0.03 -0.34,0.08 -0.47,0.15zm0.62 -0.43c-0.45,-0.01 -0.82,0.13 -1.11,0.4 -0.26,0.24 -0.44,0.58 -0.55,1.02 -0.1,0.4 -0.12,0.84 -0.07,1.31 0.05,0.46 0.15,0.89 0.33,1.29 0.16,0.38 0.35,0.68 0.55,0.88 0.18,0.18 0.36,0.28 0.54,0.3 0.16,0.02 0.3,-0.03 0.42,-0.16 0.12,-0.12 0.19,-0.28 0.21,-0.49 0.02,-0.14 0.01,-0.3 -0.01,-0.48 -0.01,-0.05 -0.02,-0.12 -0.04,-0.21l-0.02 -0.1c-0.01,-0.04 -0.01,-0.07 -0.02,-0.09 -0.02,-0.14 -0.02,-0.25 0.01,-0.33 0.03,-0.1 0.1,-0.18 0.21,-0.23 0.36,-0.18 0.63,-0.45 0.81,-0.81 0.17,-0.33 0.24,-0.67 0.2,-1.03 -0.04,-0.36 -0.18,-0.66 -0.42,-0.89 -0.26,-0.25 -0.61,-0.38 -1.03,-0.39z"/>
  <path id="_8" class="fil0" d="M38.25 5.2c-0.04,0.07 -0.09,0.12 -0.16,0.15 -0.07,0.03 -0.13,0.04 -0.2,0.03 0.14,-0.03 0.24,-0.1 0.31,-0.21 0.03,-0.05 0.06,-0.11 0.07,-0.18 0.01,-0.06 0.02,-0.13 0.02,-0.21 0.03,0.07 0.04,0.14 0.03,0.22 -0,0.08 -0.03,0.15 -0.07,0.21zm-0.59 -0.28c-0.03,-0.07 -0.04,-0.14 -0.03,-0.21 0.01,-0.07 0.04,-0.12 0.08,-0.14 0.05,-0.02 0.1,-0.02 0.16,0.01 0.06,0.03 0.1,0.08 0.14,0.15 0.03,0.07 0.04,0.14 0.03,0.21 -0.01,0.07 -0.04,0.11 -0.09,0.14 -0.05,0.03 -0.1,0.02 -0.15,-0.01 -0.06,-0.03 -0.1,-0.08 -0.14,-0.16zm-0.31 -3c-0.04,0.02 -0.09,0.05 -0.14,0.1 -0.08,0.07 -0.15,0.16 -0.23,0.26 -0.06,0.07 -0.12,0.17 -0.2,0.29 -0.03,0.04 -0.06,0.09 -0.09,0.16l-0.09 0.16c0.04,-0.14 0.09,-0.25 0.14,-0.34 0.06,-0.12 0.12,-0.22 0.19,-0.31 0.08,-0.11 0.17,-0.19 0.25,-0.26 0.11,-0.08 0.22,-0.12 0.32,-0.11 -0.05,0.01 -0.11,0.03 -0.16,0.06zm0.87 1.75c-0.11,-0.04 -0.19,-0.1 -0.22,-0.2 -0.02,-0.08 -0.03,-0.18 -0,-0.33 0,-0.03 0.01,-0.06 0.02,-0.1l0.02 -0.1c0.02,-0.09 0.03,-0.17 0.04,-0.22 0.03,-0.18 0.03,-0.35 0.02,-0.49 -0.02,-0.2 -0.09,-0.36 -0.21,-0.48 -0.12,-0.12 -0.26,-0.17 -0.42,-0.16 -0.18,0.02 -0.36,0.12 -0.53,0.3 -0.2,0.2 -0.39,0.49 -0.55,0.88 -0.17,0.4 -0.28,0.82 -0.33,1.28 -0.05,0.48 -0.03,0.91 0.07,1.31 0.11,0.44 0.29,0.77 0.55,1.02 0.29,0.27 0.66,0.4 1.11,0.4 0.42,-0.01 0.78,-0.14 1.05,-0.42 0.26,-0.25 0.41,-0.56 0.46,-0.94 0.05,-0.37 -0.01,-0.72 -0.19,-1.04 -0.19,-0.34 -0.49,-0.58 -0.89,-0.71zm1.39 -1.67c-0.04,0.04 -0.06,0.08 -0.08,0.14 -0.02,0.05 -0.02,0.11 -0.03,0.17 -0,0.09 0,0.21 0.03,0.36l0.03 0.18 0.03 0.18c-0.05,-0.13 -0.09,-0.25 -0.11,-0.35 -0.03,-0.14 -0.05,-0.26 -0.04,-0.37 0.01,-0.07 0.02,-0.14 0.04,-0.19 0.03,-0.07 0.06,-0.12 0.11,-0.16 0.09,-0.07 0.2,-0.11 0.33,-0.09 -0.12,0.01 -0.22,0.06 -0.3,0.13zm1.17 0.2c-0.09,-0.19 -0.22,-0.34 -0.37,-0.45 -0.14,-0.1 -0.28,-0.15 -0.44,-0.16 -0.15,-0.01 -0.28,0.01 -0.41,0.08 -0.12,0.07 -0.22,0.16 -0.27,0.28 -0.11,0.23 -0.1,0.56 0.01,1 0.01,0.07 0.04,0.16 0.07,0.28l0.04 0.14 0.04 0.14c0.06,0.22 0.1,0.4 0.11,0.55 0.04,0.35 0.05,0.71 0.05,1.08 -0,0.12 -0.01,0.26 -0.02,0.42l-0 0.09 -0 0.09c-0,0.07 -0.01,0.12 -0.01,0.17 -0.01,0.23 0.01,0.39 0.04,0.49 0.04,0.12 0.12,0.19 0.25,0.23 0.24,0.06 0.46,-0.08 0.65,-0.42 0.17,-0.3 0.31,-0.72 0.4,-1.25 0.09,-0.51 0.12,-1.02 0.1,-1.52 -0.02,-0.53 -0.1,-0.94 -0.24,-1.22z"/>
  <path id="_9" class="fil0" d="M44.29 1.95c-0.03,0.01 -0.06,0.04 -0.09,0.08 -0.04,0.05 -0.07,0.13 -0.09,0.23 -0.02,0.14 -0.03,0.31 -0.03,0.52l0 0.07 0 0.07c0,0.05 0,0.1 -0,0.14 -0.01,0.1 -0.03,0.19 -0.06,0.26 -0.04,0.09 -0.08,0.16 -0.14,0.22 -0.06,0.06 -0.14,0.11 -0.21,0.13 0.15,-0.08 0.26,-0.2 0.31,-0.37 0.03,-0.08 0.04,-0.17 0.05,-0.25 0,-0.03 0,-0.08 0,-0.13l-0 -0.07 0 -0.07c-0,-0.22 0.01,-0.39 0.04,-0.53 0.03,-0.11 0.07,-0.19 0.11,-0.25 0.03,-0.04 0.07,-0.06 0.11,-0.07 0.03,-0.01 0.07,-0.02 0.12,-0.01 -0.05,0.01 -0.09,0.02 -0.12,0.03zm-2.25 0.09c-0.08,0.09 -0.14,0.2 -0.18,0.33 -0.03,0.11 -0.07,0.24 -0.1,0.38l-0.04 0.19 -0.04 0.2c0.01,-0.27 0.05,-0.54 0.13,-0.79 0.05,-0.14 0.11,-0.26 0.2,-0.35 0.05,-0.05 0.1,-0.09 0.16,-0.11 0.06,-0.02 0.13,-0.03 0.18,-0.03 -0.12,0.01 -0.22,0.07 -0.31,0.18zm2.35 -0.4c-0.23,0.01 -0.39,0.12 -0.48,0.33 -0.09,0.2 -0.13,0.51 -0.11,0.93 0.01,0.18 -0.03,0.32 -0.11,0.41 -0.07,0.08 -0.15,0.12 -0.26,0.11 -0.11,-0.01 -0.19,-0.06 -0.25,-0.15 -0.06,-0.09 -0.08,-0.22 -0.06,-0.37 0.04,-0.43 0,-0.74 -0.12,-0.96 -0.11,-0.19 -0.28,-0.31 -0.53,-0.35 -0.2,-0.03 -0.38,0.02 -0.54,0.15 -0.15,0.13 -0.27,0.31 -0.34,0.54 -0.14,0.45 -0.21,0.99 -0.22,1.6 -0.01,0.59 0.05,1.16 0.17,1.7 0.09,0.4 0.23,0.69 0.42,0.86 0.16,0.14 0.33,0.2 0.52,0.17 0.43,-0.07 0.62,-0.41 0.58,-1.02 -0.03,-0.45 0.06,-0.67 0.26,-0.67 0.1,0 0.18,0.04 0.23,0.12 0.07,0.11 0.1,0.28 0.09,0.52 -0.02,0.4 0.04,0.7 0.18,0.91 0.13,0.2 0.3,0.29 0.54,0.29 0.39,0 0.67,-0.27 0.83,-0.8 0.12,-0.39 0.19,-1.03 0.21,-1.92 0.02,-0.69 -0.06,-1.26 -0.24,-1.72 -0.19,-0.48 -0.44,-0.71 -0.76,-0.69z"/>
  <path id="_10" class="fil0" d="M13.62 5.04c-0.01,0.06 -0.03,0.12 -0.07,0.17 -0.04,0.06 -0.08,0.1 -0.13,0.13 -0.06,0.04 -0.11,0.06 -0.16,0.07 0.11,-0.08 0.19,-0.16 0.24,-0.24 0.05,-0.08 0.09,-0.19 0.12,-0.32 0.01,0.06 0.01,0.12 -0,0.19zm-1.36 0.27c-0.06,0.01 -0.12,0.01 -0.16,0.02 -0.06,0.01 -0.11,0.04 -0.14,0.07 -0.03,0.03 -0.07,0.07 -0.1,0.13 0,-0.07 0.03,-0.13 0.07,-0.17 0.04,-0.04 0.09,-0.08 0.16,-0.1 0.06,-0.01 0.12,-0.01 0.17,-0.01 0.07,0.01 0.12,0.02 0.17,0.04 -0.05,0.01 -0.11,0.01 -0.17,0.01zm0.01 -3.09c-0.07,0.05 -0.12,0.11 -0.16,0.16 -0.02,0.03 -0.04,0.06 -0.07,0.09 -0.02,0.03 -0.04,0.06 -0.05,0.1 -0.03,0.06 -0.05,0.14 -0.07,0.23 -0.01,0.03 -0.02,0.07 -0.02,0.12l-0.02 0.12c0,-0.18 0.02,-0.34 0.07,-0.48 0.02,-0.05 0.03,-0.08 0.05,-0.12 0.02,-0.03 0.05,-0.07 0.07,-0.1 0.04,-0.05 0.1,-0.11 0.17,-0.17 0.12,-0.09 0.26,-0.16 0.41,-0.21 0.08,-0.02 0.15,-0.04 0.22,-0.05 0.09,-0.01 0.17,-0.02 0.22,-0.02 -0.18,0.04 -0.32,0.08 -0.43,0.12 -0.16,0.06 -0.29,0.13 -0.39,0.21zm1.39 1.18c-0.11,-0.03 -0.22,-0.04 -0.33,-0.05 -0.04,-0 -0.08,-0.01 -0.13,-0.01l-0.06 -0 -0.05 -0c-0.14,-0 -0.23,-0.03 -0.26,-0.08 -0.03,-0.05 -0.04,-0.11 -0.01,-0.18 0.03,-0.07 0.07,-0.13 0.14,-0.16 0.2,-0.11 0.51,-0.12 0.92,-0.04 0.17,0.04 0.32,0.01 0.44,-0.09 0.12,-0.09 0.19,-0.21 0.21,-0.36 0.03,-0.16 0,-0.3 -0.08,-0.44 -0.09,-0.15 -0.23,-0.25 -0.43,-0.31 -0.33,-0.09 -0.69,-0.11 -1.1,-0.03 -0.51,0.09 -0.88,0.3 -1.1,0.64 -0.14,0.21 -0.21,0.52 -0.21,0.94 0,0.42 0.08,0.71 0.22,0.89 0.09,0.11 0.2,0.19 0.33,0.23 0.1,0.03 0.22,0.05 0.37,0.06l0.09 0 0.09 0c0.07,0 0.13,0 0.18,0.01 0.13,0.01 0.23,0.04 0.31,0.1 0.11,0.08 0.17,0.18 0.18,0.32 0.01,0.13 -0.03,0.23 -0.12,0.29 -0.05,0.03 -0.09,0.05 -0.13,0.05 -0.07,0.01 -0.18,-0.01 -0.32,-0.05 -0.74,-0.23 -1.15,-0.06 -1.22,0.51 -0.03,0.26 0.05,0.49 0.25,0.69 0.18,0.19 0.43,0.33 0.74,0.41 0.32,0.08 0.63,0.1 0.95,0.04 0.34,-0.07 0.63,-0.21 0.87,-0.43 0.24,-0.23 0.41,-0.49 0.5,-0.79 0.09,-0.29 0.1,-0.59 0.03,-0.88 -0.07,-0.3 -0.2,-0.55 -0.41,-0.77 -0.22,-0.23 -0.5,-0.38 -0.84,-0.47z"/>
  <path id="_11" class="fil0" d="M6.01 11.64c-0.05,0.01 -0.1,0.03 -0.15,0.05l-0.04 0.01 -0.04 0.02c-0.03,0.01 -0.06,0.02 -0.08,0.03 -0.06,0.02 -0.11,0.02 -0.17,0.02l0.08 -0.03c0.03,-0.01 0.06,-0.02 0.08,-0.03l0.04 -0.02 0.04 -0.02c0.03,-0.02 0.05,-0.03 0.08,-0.04 0.06,-0.03 0.12,-0.04 0.17,-0.04 0.07,-0 0.12,0.01 0.17,0.05 -0.05,-0.01 -0.11,-0.01 -0.16,0zm-1.53 0.11c-0.05,0 -0.1,0.01 -0.13,0.01 -0.05,0 -0.1,0.01 -0.13,0.02 -0.02,0.01 -0.04,0.02 -0.05,0.03 -0.01,0.01 -0.02,0.03 -0.03,0.06 -0,-0.03 0,-0.06 0.01,-0.08 0.01,-0.02 0.03,-0.04 0.06,-0.06 0.04,-0.02 0.08,-0.03 0.14,-0.04 0.06,-0.01 0.1,-0 0.14,0 0.05,0.01 0.1,0.02 0.14,0.03 -0.04,0.01 -0.09,0.02 -0.14,0.02zm1.2 -0.27c-0.09,0.05 -0.24,0.08 -0.45,0.07 -0.07,-0.01 -0.16,-0.01 -0.28,-0.03l-0.14 -0.01c-0.05,-0.01 -0.1,-0.01 -0.14,-0.01 -0.22,-0.02 -0.39,-0.01 -0.5,0.03 -0.15,0.05 -0.23,0.16 -0.25,0.32 -0.03,0.21 0.06,0.39 0.26,0.54 0.19,0.14 0.43,0.24 0.74,0.29 0.3,0.05 0.59,0.05 0.86,-0 0.29,-0.06 0.51,-0.17 0.64,-0.33 0.1,-0.12 0.15,-0.25 0.15,-0.39 0,-0.14 -0.03,-0.26 -0.11,-0.37 -0.08,-0.11 -0.18,-0.17 -0.31,-0.2 -0.14,-0.03 -0.3,0.01 -0.46,0.1z"/>
  <path id="_12" class="fil0" d="M8.1 9.66c-0.16,0.02 -0.28,0.05 -0.38,0.08 -0.15,0.04 -0.26,0.1 -0.35,0.16 -0.06,0.05 -0.11,0.09 -0.14,0.13 -0.04,0.05 -0.06,0.12 -0.06,0.2 -0.02,-0.07 -0.01,-0.15 0.03,-0.21 0.03,-0.06 0.08,-0.11 0.14,-0.16 0.09,-0.07 0.21,-0.13 0.36,-0.18 0.25,-0.07 0.51,-0.09 0.79,-0.07 -0.14,0.01 -0.27,0.03 -0.39,0.05zm0.63 -0.32c-0.54,-0.03 -0.98,0.03 -1.32,0.19 -0.36,0.17 -0.52,0.41 -0.5,0.73 0.01,0.18 0.08,0.3 0.21,0.38 0.09,0.06 0.22,0.1 0.4,0.12l0.11 0.01 0.11 0.01c0.08,0.01 0.15,0.02 0.2,0.03 0.14,0.03 0.22,0.09 0.25,0.18 0.02,0.05 -0,0.37 -0.06,0.94 -0.03,0.29 -0.05,0.54 -0.06,0.75 -0.01,0.29 -0.01,0.55 0.01,0.76 0.03,0.33 0.13,0.59 0.31,0.8 0.19,0.22 0.41,0.3 0.67,0.27 0.48,-0.07 0.65,-0.59 0.52,-1.55 -0.07,-0.51 -0.1,-0.94 -0.11,-1.3 -0,-0.38 0.03,-0.61 0.1,-0.67 0.05,-0.04 0.14,-0.06 0.26,-0.07 0.04,0 0.09,0 0.17,0l0.09 0 0.09 -0c0.14,-0 0.26,-0.03 0.34,-0.07 0.11,-0.06 0.18,-0.15 0.22,-0.28 0.04,-0.16 0.02,-0.32 -0.07,-0.47 -0.09,-0.14 -0.23,-0.26 -0.42,-0.38 -0.39,-0.23 -0.9,-0.36 -1.53,-0.39z"/>
  <path id="_13" class="fil0" d="M13.72 9.91c-0.06,0.07 -0.12,0.16 -0.18,0.26 -0.1,0.18 -0.19,0.37 -0.27,0.58l-0.05 0.15 -0.05 0.16c-0.04,0.14 -0.08,0.24 -0.11,0.31 -0.05,0.13 -0.1,0.23 -0.15,0.29 -0.04,0.05 -0.08,0.08 -0.13,0.1 -0.04,0.02 -0.09,0.02 -0.15,0.02 0.06,-0 0.11,-0.01 0.15,-0.03 0.04,-0.02 0.08,-0.06 0.11,-0.11 0.04,-0.06 0.09,-0.16 0.13,-0.29l0.05 -0.16 0.05 -0.16c0.04,-0.12 0.07,-0.23 0.1,-0.31 0.08,-0.22 0.18,-0.42 0.29,-0.58 0.15,-0.22 0.29,-0.37 0.44,-0.45 -0.08,0.06 -0.16,0.13 -0.22,0.22zm-2.21 0.84c-0.03,0.15 -0.06,0.32 -0.08,0.53l-0.03 0.27 -0.03 0.26c-0.02,-0.53 0.04,-1 0.17,-1.41 0.02,-0.08 0.05,-0.16 0.08,-0.22 0.04,-0.09 0.08,-0.16 0.12,-0.22 0.11,-0.16 0.23,-0.24 0.37,-0.23 -0.17,0.02 -0.31,0.15 -0.42,0.4 -0.04,0.09 -0.08,0.2 -0.11,0.33 -0.01,0.05 -0.03,0.1 -0.04,0.16l-0.02 0.07 -0.01 0.03 -0.01 0.03zm3.06 -1.3c-0.27,-0.18 -0.55,-0.16 -0.83,0.04 -0.23,0.17 -0.43,0.44 -0.61,0.82 -0.06,0.12 -0.11,0.26 -0.17,0.42 -0.02,0.06 -0.04,0.13 -0.07,0.2l-0.03 0.09 -0.01 0.04 -0.02 0.04c-0.04,0.13 -0.08,0.23 -0.1,0.28 -0.03,0.07 -0.06,0.1 -0.09,0.1 -0.06,-0 -0.09,-0.05 -0.09,-0.15 -0,-0.08 0.01,-0.27 0.05,-0.56 0.07,-0.53 0.04,-0.91 -0.1,-1.12 -0.11,-0.17 -0.28,-0.24 -0.51,-0.21 -0.28,0.04 -0.51,0.33 -0.68,0.87 -0.16,0.52 -0.23,1.16 -0.21,1.92 0.04,1.39 0.42,2.13 1.13,2.24 0.21,0.03 0.42,-0.02 0.62,-0.16 0.2,-0.13 0.36,-0.31 0.5,-0.54 0.12,-0.2 0.22,-0.39 0.31,-0.56 0.03,-0.07 0.06,-0.13 0.09,-0.2 0.02,-0.04 0.04,-0.09 0.06,-0.14 0.04,-0.09 0.06,-0.14 0.07,-0.16 0.02,-0.02 0.04,-0.03 0.07,-0.02 0.03,0.01 0.03,0.11 0.01,0.3l-0.01 0.07 -0.01 0.07c-0.01,0.06 -0.01,0.11 -0.02,0.15 -0.01,0.13 -0.02,0.24 -0.02,0.33 -0.01,0.59 0.18,0.88 0.58,0.88 0.25,-0 0.46,-0.24 0.6,-0.71 0.13,-0.42 0.19,-0.96 0.19,-1.6 0,-0.63 -0.06,-1.2 -0.18,-1.71 -0.13,-0.55 -0.31,-0.9 -0.52,-1.04z"/>
  <path id="_14" class="fil0" d="M19.35 12.86c-0.04,0.08 -0.09,0.14 -0.16,0.18 -0.07,0.04 -0.15,0.06 -0.22,0.04 0.08,-0.01 0.14,-0.04 0.2,-0.09 0.06,-0.05 0.1,-0.1 0.13,-0.17 0.06,-0.13 0.07,-0.28 0.03,-0.45 0.04,0.07 0.06,0.15 0.07,0.24 0.01,0.09 -0.01,0.17 -0.04,0.25zm-0.62 -0.22c-0.04,-0.07 -0.05,-0.14 -0.04,-0.21 0.01,-0.07 0.03,-0.12 0.08,-0.15 0.05,-0.03 0.1,-0.03 0.16,0 0.06,0.03 0.11,0.08 0.15,0.15 0.04,0.07 0.05,0.14 0.04,0.21 -0.01,0.07 -0.03,0.12 -0.08,0.15 -0.05,0.03 -0.1,0.03 -0.16,0 -0.06,-0.03 -0.11,-0.08 -0.15,-0.15zm-0.29 -1.51c0.05,-0.01 0.1,-0.04 0.15,-0.06 0.05,-0.03 0.09,-0.07 0.12,-0.1 0.03,-0.04 0.07,-0.08 0.1,-0.13 0.02,-0.05 0.05,-0.1 0.07,-0.16 0.01,0.12 -0.03,0.24 -0.12,0.34 -0.04,0.05 -0.09,0.08 -0.15,0.1 -0.06,0.02 -0.11,0.03 -0.17,0.01zm-0.07 -0.52c0.02,-0.05 0.06,-0.08 0.1,-0.1 0.04,-0.02 0.07,-0.02 0.1,0 0.03,0.02 0.05,0.05 0.05,0.1 0,0.05 -0.01,0.09 -0.03,0.14 -0.02,0.05 -0.06,0.08 -0.1,0.1 -0.04,0.02 -0.07,0.02 -0.1,0 -0.03,-0.02 -0.05,-0.05 -0.05,-0.1 -0,-0.05 0.01,-0.09 0.03,-0.14zm-0.57 -0.65c-0.05,0.06 -0.11,0.13 -0.16,0.22 -0.08,0.14 -0.16,0.31 -0.23,0.5 -0.05,0.16 -0.11,0.34 -0.16,0.55 0.02,-0.19 0.05,-0.38 0.11,-0.57 0.06,-0.19 0.13,-0.37 0.23,-0.53 0.11,-0.18 0.24,-0.32 0.38,-0.41 0.09,-0.06 0.17,-0.1 0.25,-0.12 0.09,-0.02 0.18,-0.03 0.26,-0.03 -0.18,0.02 -0.34,0.08 -0.49,0.19 -0.07,0.05 -0.14,0.11 -0.2,0.18zm1.43 1.38c-0.04,-0.02 -0.05,-0.06 -0.02,-0.12 0.01,-0.02 0.03,-0.06 0.05,-0.11l0.02 -0.03 0.02 -0.03c0.01,-0.03 0.03,-0.05 0.04,-0.08 0.06,-0.13 0.1,-0.26 0.13,-0.38 0.04,-0.17 0.04,-0.35 0.01,-0.53 -0.03,-0.2 -0.14,-0.38 -0.32,-0.52 -0.18,-0.14 -0.39,-0.22 -0.63,-0.23 -0.26,-0.01 -0.5,0.07 -0.72,0.24 -0.25,0.19 -0.45,0.49 -0.6,0.88 -0.15,0.41 -0.23,0.85 -0.25,1.33 -0.01,0.49 0.05,0.94 0.18,1.35 0.15,0.45 0.36,0.79 0.65,1.03 0.32,0.27 0.71,0.38 1.16,0.35 0.43,-0.03 0.77,-0.18 1.03,-0.46 0.23,-0.25 0.36,-0.55 0.38,-0.92 0.02,-0.36 -0.06,-0.7 -0.25,-1.03 -0.2,-0.35 -0.49,-0.6 -0.87,-0.76z"/>
  <path id="_15" class="fil0" d="M22.92 12.94c-0.04,0.07 -0.09,0.12 -0.16,0.15 -0.07,0.03 -0.13,0.04 -0.2,0.03 0.14,-0.03 0.24,-0.1 0.31,-0.21 0.03,-0.05 0.06,-0.11 0.07,-0.18 0.01,-0.06 0.02,-0.13 0.02,-0.21 0.03,0.07 0.04,0.14 0.03,0.22 -0,0.08 -0.03,0.15 -0.07,0.21zm-0.59 -0.28c-0.03,-0.07 -0.04,-0.14 -0.03,-0.21 0.01,-0.07 0.04,-0.12 0.08,-0.14 0.05,-0.02 0.1,-0.02 0.16,0.01 0.06,0.03 0.1,0.08 0.14,0.15 0.03,0.07 0.04,0.14 0.03,0.21 -0.01,0.07 -0.04,0.11 -0.09,0.14 -0.05,0.03 -0.1,0.02 -0.15,-0.01 -0.06,-0.03 -0.1,-0.08 -0.14,-0.16zm-0.31 -3c-0.04,0.02 -0.09,0.05 -0.14,0.1 -0.08,0.07 -0.15,0.16 -0.23,0.26 -0.06,0.07 -0.12,0.17 -0.2,0.29 -0.03,0.04 -0.06,0.09 -0.09,0.16l-0.09 0.16c0.04,-0.14 0.09,-0.25 0.14,-0.34 0.06,-0.12 0.12,-0.22 0.19,-0.31 0.08,-0.11 0.17,-0.19 0.25,-0.26 0.11,-0.08 0.22,-0.12 0.32,-0.11 -0.05,0.01 -0.11,0.03 -0.16,0.06zm0.87 1.75c-0.11,-0.04 -0.19,-0.1 -0.22,-0.2 -0.02,-0.08 -0.03,-0.18 -0,-0.33 0,-0.03 0.01,-0.06 0.02,-0.1l0.02 -0.1c0.02,-0.09 0.03,-0.17 0.04,-0.22 0.03,-0.18 0.03,-0.35 0.02,-0.49 -0.02,-0.2 -0.09,-0.36 -0.21,-0.48 -0.12,-0.12 -0.26,-0.17 -0.42,-0.16 -0.18,0.02 -0.36,0.12 -0.53,0.3 -0.2,0.2 -0.39,0.49 -0.55,0.88 -0.17,0.4 -0.28,0.82 -0.33,1.28 -0.05,0.48 -0.03,0.91 0.07,1.31 0.11,0.44 0.29,0.77 0.55,1.02 0.29,0.27 0.66,0.4 1.11,0.4 0.42,-0.01 0.78,-0.14 1.05,-0.42 0.26,-0.25 0.41,-0.56 0.46,-0.94 0.05,-0.37 -0.01,-0.72 -0.19,-1.04 -0.19,-0.34 -0.49,-0.58 -0.89,-0.71zm1.39 -1.67c-0.04,0.04 -0.06,0.08 -0.08,0.14 -0.02,0.05 -0.02,0.11 -0.03,0.17 -0,0.09 0,0.21 0.03,0.36l0.03 0.18 0.03 0.18c-0.05,-0.13 -0.09,-0.25 -0.11,-0.35 -0.03,-0.14 -0.05,-0.26 -0.04,-0.37 0.01,-0.07 0.02,-0.14 0.04,-0.19 0.03,-0.07 0.06,-0.12 0.11,-0.16 0.09,-0.07 0.2,-0.11 0.33,-0.09 -0.12,0.01 -0.22,0.06 -0.3,0.13zm1.17 0.2c-0.09,-0.19 -0.22,-0.34 -0.37,-0.45 -0.14,-0.1 -0.28,-0.15 -0.44,-0.16 -0.15,-0.01 -0.28,0.01 -0.41,0.08 -0.12,0.07 -0.22,0.16 -0.27,0.28 -0.11,0.23 -0.1,0.56 0.01,1 0.01,0.07 0.04,0.16 0.07,0.28l0.04 0.14 0.04 0.14c0.06,0.22 0.1,0.4 0.11,0.55 0.04,0.35 0.05,0.71 0.05,1.08 -0,0.12 -0.01,0.26 -0.02,0.42l-0 0.09 -0 0.09c-0,0.07 -0.01,0.12 -0.01,0.17 -0.01,0.23 0.01,0.39 0.04,0.49 0.04,0.12 0.12,0.19 0.25,0.23 0.24,0.06 0.46,-0.08 0.65,-0.42 0.17,-0.3 0.31,-0.72 0.4,-1.25 0.09,-0.51 0.12,-1.02 0.1,-1.52 -0.02,-0.53 -0.1,-0.94 -0.24,-1.22z"/>
  <path id="_16" class="fil0" d="M27.25 9.77c-0.02,0.01 -0.04,0.02 -0.07,0.04l-0.07 0.04 -0.07 0.04c-0.03,0.02 -0.05,0.03 -0.06,0.05 -0.07,0.05 -0.15,0.12 -0.23,0.2 -0.09,0.1 -0.16,0.18 -0.19,0.25 -0.11,0.17 -0.18,0.37 -0.21,0.6 -0.01,0.05 -0.01,0.1 -0.02,0.16l-0.01 0.17c-0,0.05 -0.01,0.1 -0.01,0.17l-0 0.17c-0.02,-0.24 -0.03,-0.46 -0.01,-0.67 0.02,-0.24 0.09,-0.45 0.21,-0.63l0.05 -0.07 0.05 -0.06c0.01,-0.02 0.03,-0.04 0.05,-0.06l0.03 -0.03 0.03 -0.03c0.1,-0.09 0.18,-0.16 0.25,-0.2 0.17,-0.11 0.36,-0.19 0.58,-0.23l-0.07 0.03 -0.07 0.02c-0.05,0.02 -0.1,0.04 -0.14,0.06zm2.35 0.68c-0.19,-0.44 -0.47,-0.75 -0.86,-0.94 -0.36,-0.18 -0.74,-0.23 -1.14,-0.15 -0.4,0.07 -0.75,0.25 -1.03,0.53 -0.3,0.3 -0.47,0.68 -0.51,1.12 -0.07,0.82 0.05,1.62 0.35,2.41 0.14,0.35 0.29,0.63 0.46,0.82 0.18,0.21 0.36,0.3 0.53,0.28 0.25,-0.03 0.4,-0.19 0.45,-0.47 0.06,-0.32 0.02,-0.86 -0.12,-1.64 -0.11,-0.62 -0.04,-0.94 0.19,-0.98 0.13,-0.02 0.23,0.09 0.31,0.32 0.07,0.22 0.1,0.49 0.09,0.82 -0.03,0.74 0.05,1.25 0.22,1.54 0.13,0.22 0.32,0.32 0.56,0.3 0.21,-0.01 0.39,-0.16 0.53,-0.44 0.14,-0.26 0.23,-0.6 0.28,-1.01 0.05,-0.42 0.05,-0.85 0,-1.28 -0.05,-0.46 -0.16,-0.87 -0.31,-1.23z"/>
  <path id="_17" class="fil0" d="M33.35 9.71c-0.04,0.04 -0.09,0.1 -0.13,0.17 -0.07,0.1 -0.14,0.22 -0.23,0.37l-0.05 0.09 -0.05 0.1c-0.04,0.08 -0.08,0.14 -0.12,0.19 -0.05,0.08 -0.1,0.13 -0.14,0.17 -0.06,0.06 -0.13,0.09 -0.19,0.11 0.06,-0.03 0.12,-0.07 0.16,-0.13 0.04,-0.04 0.08,-0.1 0.12,-0.18 0.02,-0.05 0.06,-0.11 0.1,-0.2l0.11 -0.19c0.09,-0.16 0.17,-0.29 0.24,-0.37 0.05,-0.07 0.1,-0.12 0.15,-0.16 0.07,-0.06 0.14,-0.08 0.19,-0.08 -0.06,0.01 -0.12,0.05 -0.17,0.11zm-2.14 3.26c-0.05,0.04 -0.1,0.08 -0.13,0.11 -0.1,0.08 -0.18,0.16 -0.24,0.24 -0.03,0.05 -0.06,0.1 -0.08,0.15 -0.02,0.04 -0.03,0.1 -0.05,0.17 -0,-0.06 0,-0.12 0.02,-0.18 0.02,-0.06 0.04,-0.12 0.07,-0.17 0.05,-0.08 0.13,-0.17 0.24,-0.26 0.07,-0.06 0.17,-0.13 0.28,-0.2l0.07 -0.05 0.07 -0.05c0.06,-0.04 0.1,-0.07 0.14,-0.1 -0.06,0.07 -0.15,0.15 -0.26,0.24l-0.13 0.1zm-0.56 -2.94c-0.03,0.05 -0.06,0.11 -0.07,0.17 -0.02,0.06 -0.02,0.12 -0.02,0.2 -0.03,-0.07 -0.04,-0.13 -0.03,-0.21 0.01,-0.07 0.03,-0.14 0.07,-0.21 0.04,-0.06 0.09,-0.11 0.16,-0.14 0.06,-0.03 0.13,-0.04 0.2,-0.03 -0.13,0.03 -0.23,0.1 -0.3,0.21zm2.88 -0.7c-0.13,0 -0.27,0.07 -0.4,0.21 -0.1,0.1 -0.21,0.25 -0.32,0.45l-0.07 0.12 -0.03 0.06 -0.03 0.06c-0.05,0.1 -0.09,0.17 -0.12,0.21 -0.08,0.14 -0.15,0.21 -0.2,0.21 -0.05,0 -0.16,-0.1 -0.32,-0.29l-0.03 -0.03 -0.03 -0.04c-0.02,-0.03 -0.04,-0.05 -0.06,-0.07 -0.05,-0.06 -0.09,-0.11 -0.13,-0.15 -0.11,-0.12 -0.22,-0.22 -0.32,-0.32 -0.17,-0.15 -0.34,-0.22 -0.52,-0.22 -0.17,0 -0.31,0.06 -0.43,0.18 -0.12,0.12 -0.2,0.27 -0.22,0.45 -0.03,0.19 0.01,0.38 0.11,0.57 0.07,0.14 0.18,0.28 0.32,0.43 0.05,0.06 0.11,0.12 0.19,0.19l0.09 0.09 0.09 0.09c0.15,0.14 0.26,0.25 0.32,0.33 0.09,0.11 0.14,0.21 0.15,0.3 0.01,0.09 -0.04,0.19 -0.15,0.29 -0.04,0.04 -0.1,0.08 -0.17,0.13l-0.05 0.03 -0.05 0.04 -0.1 0.07c-0.17,0.13 -0.3,0.25 -0.38,0.36 -0.12,0.16 -0.18,0.34 -0.19,0.54 -0.01,0.15 0.02,0.29 0.08,0.42 0.06,0.13 0.14,0.23 0.25,0.32 0.25,0.18 0.56,0.21 0.93,0.09 0.5,-0.16 0.99,-0.63 1.48,-1.39 0.44,-0.68 0.73,-1.34 0.85,-1.95 0.13,-0.63 0.13,-1.1 0.02,-1.4 -0.1,-0.26 -0.27,-0.38 -0.53,-0.38z"/>
  <path id="_18" class="fil0" d="M37.28 12.48c-0.02,0.01 -0.04,0.03 -0.07,0.05l-0.04 0.03 -0.04 0.03c-0.06,0.04 -0.12,0.07 -0.17,0.09 -0.07,0.02 -0.13,0.02 -0.19,0.01 0.11,-0.02 0.22,-0.07 0.32,-0.15l0.04 -0.03 0.04 -0.03c0.03,-0.02 0.06,-0.04 0.09,-0.05 0.07,-0.03 0.13,-0.04 0.19,-0.02 -0.06,0.01 -0.11,0.04 -0.17,0.07zm-1.92 -2.4c-0.11,0.13 -0.22,0.28 -0.31,0.46 -0.08,0.15 -0.15,0.32 -0.21,0.53 0.03,-0.19 0.09,-0.38 0.17,-0.55 0.08,-0.18 0.18,-0.34 0.31,-0.48 0.13,-0.15 0.28,-0.26 0.45,-0.33 0.09,-0.04 0.18,-0.06 0.26,-0.07 0.1,-0.01 0.19,-0.02 0.27,-0.01 -0.19,0.02 -0.36,0.06 -0.51,0.13 -0.16,0.08 -0.3,0.2 -0.42,0.33zm2.65 2.79c-0.03,-0.37 -0.15,-0.61 -0.37,-0.7 -0.1,-0.04 -0.2,-0.05 -0.31,-0.02 -0.11,0.03 -0.21,0.08 -0.31,0.16 -0.1,0.08 -0.2,0.11 -0.3,0.1 -0.1,-0.01 -0.19,-0.06 -0.27,-0.15 -0.08,-0.09 -0.14,-0.21 -0.18,-0.35 -0.04,-0.16 -0.05,-0.33 -0.02,-0.51 0.04,-0.26 0.15,-0.41 0.35,-0.45 0.14,-0.02 0.35,0.01 0.6,0.12 0.11,0.04 0.22,0.04 0.31,-0.01 0.09,-0.05 0.16,-0.12 0.21,-0.23 0.05,-0.11 0.06,-0.24 0.04,-0.38 -0.02,-0.15 -0.08,-0.29 -0.17,-0.43 -0.2,-0.29 -0.47,-0.5 -0.79,-0.61 -0.3,-0.1 -0.6,-0.11 -0.91,-0.03 -0.4,0.1 -0.72,0.38 -0.98,0.82 -0.28,0.49 -0.42,1.09 -0.42,1.81 0,0.81 0.19,1.45 0.58,1.91 0.18,0.22 0.39,0.38 0.64,0.48 0.25,0.1 0.51,0.14 0.8,0.11 0.48,-0.04 0.87,-0.23 1.16,-0.56 0.28,-0.31 0.4,-0.68 0.36,-1.09z"/>
  <path id="_19" class="fil0" d="M40.57 10.46c-0.09,0.12 -0.18,0.23 -0.26,0.31 -0.11,0.11 -0.22,0.18 -0.32,0.22 0.08,-0.06 0.18,-0.15 0.29,-0.26 0.08,-0.09 0.17,-0.2 0.25,-0.31 0.04,-0.06 0.08,-0.11 0.11,-0.16l0.03 -0.04 0.03 -0.04c0.02,-0.04 0.04,-0.06 0.06,-0.09 0.05,-0.06 0.1,-0.1 0.16,-0.13 0.07,-0.03 0.13,-0.05 0.19,-0.04 -0.12,0.01 -0.22,0.08 -0.31,0.21 -0.02,0.02 -0.03,0.05 -0.05,0.08l-0.03 0.04 -0.03 0.04c-0.03,0.05 -0.07,0.11 -0.12,0.17zm-1.31 -0.79c-0.04,0.03 -0.09,0.07 -0.13,0.13 -0.06,0.08 -0.12,0.18 -0.17,0.32 -0.03,0.09 -0.07,0.2 -0.12,0.36l-0.05 0.19 -0.05 0.18c0.01,-0.15 0.03,-0.28 0.05,-0.38 0.03,-0.14 0.07,-0.26 0.11,-0.37 0.06,-0.14 0.12,-0.26 0.19,-0.33 0.04,-0.05 0.09,-0.09 0.15,-0.12 0.06,-0.03 0.12,-0.04 0.18,-0.04 -0.06,0.01 -0.11,0.03 -0.16,0.07zm1.5 2.1c-0.09,-0.05 -0.11,-0.1 -0.06,-0.14 0.02,-0.02 0.05,-0.04 0.11,-0.07l0.04 -0.02 0.04 -0.02c0.04,-0.02 0.07,-0.03 0.09,-0.04 0.17,-0.09 0.3,-0.19 0.4,-0.29 0.15,-0.15 0.26,-0.33 0.32,-0.54 0.06,-0.2 0.05,-0.38 -0.01,-0.56 -0.06,-0.16 -0.16,-0.28 -0.3,-0.36 -0.14,-0.08 -0.29,-0.1 -0.44,-0.05 -0.17,0.05 -0.31,0.17 -0.43,0.37 -0.2,0.33 -0.4,0.56 -0.58,0.69 -0.07,0.05 -0.12,0.06 -0.15,0.04 -0.03,-0.02 -0.02,-0.08 0.02,-0.17 0.16,-0.36 0.21,-0.66 0.15,-0.88 -0.05,-0.19 -0.17,-0.31 -0.35,-0.36 -0.38,-0.1 -0.67,0.11 -0.88,0.61 -0.17,0.4 -0.28,1 -0.32,1.77 -0.05,0.78 -0.02,1.41 0.1,1.88 0.14,0.58 0.38,0.86 0.74,0.85 0.33,-0.01 0.52,-0.27 0.57,-0.78 0.02,-0.17 0.02,-0.37 0,-0.58 -0.01,-0.07 -0.01,-0.15 -0.02,-0.22 -0,-0.03 -0.01,-0.06 -0.01,-0.09l-0 -0.03 -0 -0.01 0 -0.01c-0.01,-0.07 -0,-0.11 0.02,-0.13 0.03,-0.02 0.06,-0.01 0.11,0.03 0.12,0.11 0.24,0.39 0.34,0.83 0.07,0.28 0.17,0.51 0.3,0.7 0.12,0.16 0.26,0.27 0.41,0.33 0.15,0.05 0.29,0.05 0.43,-0.01 0.14,-0.06 0.26,-0.17 0.36,-0.32 0.11,-0.17 0.16,-0.37 0.17,-0.59 0,-0.21 -0.04,-0.43 -0.13,-0.65 -0.2,-0.47 -0.54,-0.85 -1.03,-1.15z"/>
  <path id="_20" class="fil0" d="M1.95 11.52c-0.06,0.06 -0.14,0.1 -0.24,0.14 -0.1,0.03 -0.18,0.07 -0.23,0.11 -0.08,0.06 -0.13,0.13 -0.14,0.21 -0.01,-0.05 0,-0.09 0.02,-0.14 0.02,-0.04 0.05,-0.08 0.09,-0.12 0.06,-0.05 0.14,-0.09 0.24,-0.13 0.08,-0.03 0.16,-0.07 0.23,-0.12 0.08,-0.06 0.14,-0.12 0.18,-0.19 -0.02,0.09 -0.07,0.17 -0.15,0.24zm-0.95 1.64c-0.12,-0.01 -0.21,-0.01 -0.28,-0.01 -0.06,0.01 -0.1,0.02 -0.13,0.04 -0.02,0.01 -0.03,0.03 -0.04,0.05l-0.01 0.04 -0.01 0.04c0,-0.03 0,-0.06 0,-0.08 0,-0.03 0.02,-0.06 0.03,-0.08 0.03,-0.03 0.08,-0.05 0.14,-0.07 0.08,-0.01 0.17,-0.02 0.3,-0.01 0.08,0.01 0.17,0.02 0.29,0.04l0.14 0.02 0.15 0.03c-0.08,0.01 -0.18,0.01 -0.29,0l-0.15 -0.01 -0.14 -0.01zm0.23 -3.38c-0.14,0.06 -0.25,0.12 -0.34,0.18 -0.05,0.03 -0.1,0.07 -0.15,0.12 -0.05,0.04 -0.09,0.08 -0.14,0.14 -0.09,0.12 -0.14,0.24 -0.13,0.37 -0.01,-0.07 -0.01,-0.13 0.01,-0.21 0.02,-0.07 0.05,-0.13 0.09,-0.19 0.07,-0.1 0.16,-0.19 0.29,-0.28 0.23,-0.14 0.47,-0.23 0.73,-0.26 -0.12,0.04 -0.24,0.09 -0.36,0.14zm2.1 2.54c-0.06,-0.09 -0.13,-0.16 -0.2,-0.23 -0.05,-0.05 -0.11,-0.09 -0.18,-0.14l-0.04 -0.03 -0.03 -0.02c-0.02,-0.02 -0.04,-0.03 -0.06,-0.04 -0.03,-0.03 -0.05,-0.06 -0.06,-0.09 -0,-0.04 0.02,-0.09 0.08,-0.15 0.02,-0.02 0.05,-0.05 0.09,-0.09l0.03 -0.03 0.03 -0.02 0.06 -0.06c0.1,-0.1 0.17,-0.19 0.23,-0.28 0.08,-0.12 0.12,-0.25 0.14,-0.39 0.05,-0.35 -0.02,-0.65 -0.21,-0.9 -0.2,-0.26 -0.51,-0.43 -0.93,-0.5 -0.21,-0.04 -0.44,-0.03 -0.69,0.01 -0.25,0.05 -0.48,0.12 -0.7,0.24 -0.23,0.12 -0.4,0.26 -0.52,0.43 -0.14,0.19 -0.19,0.38 -0.17,0.59 0.06,0.52 0.46,0.67 1.22,0.46 0.13,-0.03 0.23,-0.05 0.31,-0.04 0.07,0.01 0.11,0.03 0.12,0.07 0.01,0.04 -0,0.08 -0.05,0.13 -0.05,0.05 -0.12,0.09 -0.22,0.12 -0.35,0.12 -0.52,0.33 -0.51,0.62 0.01,0.14 0.05,0.26 0.14,0.36 0.1,0.1 0.23,0.14 0.38,0.14 0.16,-0 0.26,0.05 0.3,0.15 0.02,0.04 0.01,0.09 -0,0.13 -0.02,0.05 -0.05,0.08 -0.1,0.11 -0.08,0.04 -0.2,0.05 -0.39,0.03 -0.03,-0 -0.07,-0.01 -0.12,-0.01l-0.12 -0.01c-0.1,-0.01 -0.19,-0.02 -0.25,-0.03 -0.19,-0.01 -0.34,0.01 -0.44,0.06 -0.13,0.07 -0.2,0.2 -0.22,0.39 -0.02,0.22 0.08,0.43 0.28,0.63 0.19,0.19 0.44,0.34 0.75,0.45 0.32,0.11 0.63,0.16 0.93,0.14 0.34,-0.02 0.61,-0.12 0.82,-0.3 0.3,-0.25 0.46,-0.57 0.49,-0.96 0.03,-0.35 -0.05,-0.66 -0.23,-0.93z"/>
  <path class="fil1" d="M2.85 5.1c-0.03,0 -0.06,0 -0.11,0.01l-0.06 0.01 -0.06 0c0.06,-0.06 0.14,-0.08 0.23,-0.09 0.05,0 0.09,0.01 0.12,0.02 0.04,0.02 0.07,0.05 0.1,0.08 -0.08,-0.02 -0.15,-0.04 -0.22,-0.03zm-1.9 -1.17c-0.05,0.06 -0.1,0.11 -0.14,0.16 -0.1,0.13 -0.18,0.24 -0.24,0.35 -0.07,0.13 -0.13,0.26 -0.16,0.39 -0.03,0.14 -0.05,0.28 -0.05,0.44l-0.02 -0.11 -0 -0.05 0 -0.06 0 -0.05 0 -0.06 0.01 -0.05 0.01 -0.06c0.02,-0.14 0.08,-0.28 0.15,-0.42 0.07,-0.13 0.16,-0.24 0.26,-0.35 0.05,-0.05 0.1,-0.1 0.16,-0.15l0.08 -0.06c0.03,-0.02 0.06,-0.04 0.09,-0.06l-0.08 0.08 -0.07 0.08zm0.33 -2.31c-0.06,0.03 -0.12,0.06 -0.18,0.1 -0.13,0.07 -0.24,0.15 -0.34,0.24 -0.1,0.09 -0.2,0.19 -0.29,0.3 -0.04,0.06 -0.08,0.12 -0.11,0.18 -0.04,0.07 -0.06,0.14 -0.07,0.21 -0,-0.13 0.04,-0.27 0.14,-0.42 0.08,-0.12 0.17,-0.23 0.29,-0.33 0.12,-0.1 0.24,-0.18 0.36,-0.23 0.07,-0.03 0.13,-0.06 0.19,-0.08 0.07,-0.02 0.14,-0.04 0.2,-0.05l-0.1 0.04c-0.04,0.01 -0.07,0.03 -0.1,0.04zm1.24 3.24c-0.19,0.08 -0.36,0.11 -0.52,0.1 -0.13,-0.01 -0.21,-0.04 -0.24,-0.1 -0.01,-0.03 -0.02,-0.05 -0.02,-0.08 -0,-0.04 0.01,-0.08 0.03,-0.13 0.05,-0.12 0.18,-0.25 0.38,-0.38 0.27,-0.17 0.49,-0.39 0.66,-0.66 0.17,-0.26 0.28,-0.53 0.33,-0.82 0.05,-0.29 0.03,-0.56 -0.06,-0.79 -0.1,-0.26 -0.28,-0.45 -0.54,-0.59 -0.3,-0.16 -0.63,-0.22 -0.97,-0.17 -0.3,0.04 -0.59,0.16 -0.86,0.36 -0.25,0.18 -0.44,0.39 -0.57,0.63 -0.13,0.24 -0.15,0.45 -0.09,0.64 0.07,0.18 0.2,0.28 0.39,0.32 0.2,0.03 0.43,-0.02 0.71,-0.16 0.15,-0.08 0.26,-0.12 0.32,-0.14 0.06,-0.01 0.11,-0 0.14,0.03 0.07,0.07 -0.01,0.19 -0.25,0.33 -0.44,0.27 -0.76,0.58 -0.98,0.91 -0.28,0.42 -0.36,0.87 -0.26,1.33 0.07,0.33 0.29,0.58 0.65,0.73 0.29,0.12 0.66,0.19 1.1,0.19 0.45,0 0.81,-0.06 1.1,-0.2 0.29,-0.14 0.46,-0.33 0.51,-0.57 0.03,-0.12 0.02,-0.24 -0.02,-0.36 -0.04,-0.12 -0.1,-0.23 -0.18,-0.32 -0.09,-0.09 -0.2,-0.15 -0.32,-0.17 -0.14,-0.02 -0.29,-0 -0.44,0.07z"/>
  <path id="_1_0" class="fil1" d="M5.98 4.68c-0.04,0.08 -0.09,0.15 -0.14,0.2 -0.06,0.06 -0.13,0.09 -0.21,0.1 0.13,-0.07 0.22,-0.18 0.29,-0.33 0.05,-0.11 0.09,-0.26 0.11,-0.45 0.04,0.16 0.02,0.32 -0.05,0.48zm-0.42 0.02c-0.08,0.03 -0.16,0 -0.24,-0.08 -0.08,-0.08 -0.13,-0.19 -0.16,-0.33 -0.03,-0.14 -0.02,-0.27 0.02,-0.38 0.04,-0.12 0.1,-0.19 0.18,-0.22 0.08,-0.03 0.16,0 0.24,0.08 0.08,0.08 0.13,0.19 0.16,0.33 0.03,0.14 0.02,0.27 -0.02,0.38 -0.04,0.12 -0.1,0.19 -0.18,0.22zm-1.03 -2.61c-0.1,0.15 -0.18,0.33 -0.26,0.55 -0.06,0.18 -0.11,0.38 -0.14,0.61 0,-0.08 0.01,-0.19 0.03,-0.32 0.02,-0.1 0.04,-0.21 0.07,-0.31 0.06,-0.22 0.14,-0.41 0.25,-0.58 0.12,-0.19 0.27,-0.33 0.44,-0.42 0.09,-0.05 0.18,-0.08 0.28,-0.1 0.1,-0.02 0.2,-0.02 0.29,-0.01 -0.22,0.02 -0.4,0.07 -0.55,0.16 -0.16,0.1 -0.3,0.24 -0.41,0.42zm1.33 -0.83c-0.61,-0.13 -1.1,0.04 -1.47,0.5 -0.32,0.41 -0.5,0.97 -0.53,1.68 -0.03,0.69 0.08,1.31 0.34,1.87 0.28,0.61 0.66,0.96 1.14,1.08 0.45,0.11 0.86,-0.08 1.21,-0.54 0.33,-0.43 0.54,-0.98 0.64,-1.67 0.1,-0.7 0.05,-1.32 -0.16,-1.85 -0.23,-0.6 -0.62,-0.95 -1.17,-1.07z"/>
  <path id="_2_1" class="fil1" d="M10.39 5.1c-0.03,0 -0.06,0 -0.11,0.01l-0.06 0.01 -0.06 0c0.06,-0.06 0.14,-0.08 0.23,-0.09 0.05,0 0.09,0.01 0.12,0.02 0.04,0.02 0.07,0.05 0.1,0.08 -0.08,-0.02 -0.15,-0.04 -0.22,-0.03zm-1.9 -1.17c-0.05,0.06 -0.1,0.11 -0.14,0.16 -0.1,0.13 -0.18,0.24 -0.24,0.35 -0.07,0.13 -0.13,0.26 -0.16,0.39 -0.03,0.14 -0.05,0.28 -0.05,0.44l-0.02 -0.11 -0 -0.05 0 -0.06 0 -0.05 0 -0.06 0.01 -0.05 0.01 -0.06c0.02,-0.14 0.08,-0.28 0.15,-0.42 0.07,-0.13 0.16,-0.24 0.26,-0.35 0.05,-0.05 0.1,-0.1 0.16,-0.15l0.08 -0.06c0.03,-0.02 0.06,-0.04 0.09,-0.06l-0.08 0.08 -0.07 0.08zm0.33 -2.31c-0.06,0.03 -0.12,0.06 -0.18,0.1 -0.13,0.07 -0.24,0.15 -0.34,0.24 -0.1,0.09 -0.2,0.19 -0.29,0.3 -0.04,0.06 -0.08,0.12 -0.11,0.18 -0.04,0.07 -0.06,0.14 -0.07,0.21 -0,-0.13 0.04,-0.27 0.14,-0.42 0.08,-0.12 0.17,-0.23 0.29,-0.33 0.12,-0.1 0.24,-0.18 0.36,-0.23 0.07,-0.03 0.13,-0.06 0.19,-0.08 0.07,-0.02 0.14,-0.04 0.2,-0.05l-0.1 0.04c-0.04,0.01 -0.07,0.03 -0.1,0.04zm1.24 3.24c-0.19,0.08 -0.36,0.11 -0.52,0.1 -0.13,-0.01 -0.21,-0.04 -0.24,-0.1 -0.01,-0.03 -0.02,-0.05 -0.02,-0.08 -0,-0.04 0.01,-0.08 0.03,-0.13 0.05,-0.12 0.18,-0.25 0.38,-0.38 0.27,-0.17 0.49,-0.39 0.66,-0.66 0.17,-0.26 0.28,-0.53 0.33,-0.82 0.05,-0.29 0.03,-0.56 -0.06,-0.79 -0.1,-0.26 -0.28,-0.45 -0.54,-0.59 -0.3,-0.16 -0.63,-0.22 -0.97,-0.17 -0.3,0.04 -0.59,0.16 -0.86,0.36 -0.25,0.18 -0.44,0.39 -0.57,0.63 -0.13,0.24 -0.15,0.45 -0.09,0.64 0.07,0.18 0.2,0.28 0.39,0.32 0.2,0.03 0.43,-0.02 0.71,-0.16 0.15,-0.08 0.26,-0.12 0.32,-0.14 0.06,-0.01 0.11,-0 0.14,0.03 0.07,0.07 -0.01,0.19 -0.25,0.33 -0.44,0.27 -0.76,0.58 -0.98,0.91 -0.28,0.42 -0.36,0.87 -0.26,1.33 0.07,0.33 0.29,0.58 0.65,0.73 0.29,0.12 0.66,0.19 1.1,0.19 0.45,0 0.81,-0.06 1.1,-0.2 0.29,-0.14 0.46,-0.33 0.51,-0.57 0.03,-0.12 0.02,-0.24 -0.02,-0.36 -0.04,-0.12 -0.1,-0.23 -0.18,-0.32 -0.09,-0.09 -0.2,-0.15 -0.32,-0.17 -0.14,-0.02 -0.29,-0 -0.44,0.07z"/>
  <path id="_3_2" class="fil1" d="M17.21 3.53c-0.05,0.01 -0.1,0.03 -0.15,0.05l-0.04 0.01 -0.04 0.02c-0.03,0.01 -0.06,0.02 -0.08,0.03 -0.06,0.02 -0.11,0.02 -0.17,0.02l0.08 -0.03c0.03,-0.01 0.06,-0.02 0.08,-0.03l0.04 -0.02 0.04 -0.02c0.03,-0.02 0.05,-0.03 0.08,-0.04 0.06,-0.03 0.12,-0.04 0.17,-0.04 0.07,-0 0.12,0.01 0.17,0.05 -0.05,-0.01 -0.11,-0.01 -0.16,0zm-1.53 0.11c-0.05,0 -0.1,0.01 -0.13,0.01 -0.05,0 -0.1,0.01 -0.13,0.02 -0.02,0.01 -0.04,0.02 -0.05,0.03 -0.01,0.01 -0.02,0.03 -0.03,0.06 -0,-0.03 0,-0.06 0.01,-0.08 0.01,-0.02 0.03,-0.04 0.06,-0.06 0.04,-0.02 0.08,-0.03 0.14,-0.04 0.06,-0.01 0.1,-0 0.14,0 0.05,0.01 0.1,0.02 0.14,0.03 -0.04,0.01 -0.09,0.02 -0.14,0.02zm1.2 -0.27c-0.09,0.05 -0.24,0.08 -0.45,0.07 -0.07,-0.01 -0.16,-0.01 -0.28,-0.03l-0.14 -0.01c-0.05,-0.01 -0.1,-0.01 -0.14,-0.01 -0.22,-0.02 -0.39,-0.01 -0.5,0.03 -0.15,0.05 -0.23,0.16 -0.25,0.32 -0.03,0.21 0.06,0.39 0.26,0.54 0.19,0.14 0.43,0.24 0.74,0.29 0.3,0.05 0.59,0.05 0.86,-0 0.29,-0.06 0.51,-0.17 0.64,-0.33 0.1,-0.12 0.15,-0.25 0.15,-0.39 0,-0.14 -0.03,-0.26 -0.11,-0.37 -0.08,-0.11 -0.18,-0.17 -0.31,-0.2 -0.14,-0.03 -0.3,0.01 -0.46,0.1z"/>
  <path id="_4_3" class="fil1" d="M19.3 1.55c-0.16,0.02 -0.28,0.05 -0.38,0.08 -0.15,0.04 -0.26,0.1 -0.35,0.16 -0.06,0.05 -0.11,0.09 -0.14,0.13 -0.04,0.05 -0.06,0.12 -0.06,0.2 -0.02,-0.07 -0.01,-0.15 0.03,-0.21 0.03,-0.06 0.08,-0.11 0.14,-0.16 0.09,-0.07 0.21,-0.13 0.36,-0.18 0.25,-0.07 0.51,-0.09 0.79,-0.07 -0.14,0.01 -0.27,0.03 -0.39,0.05zm0.63 -0.32c-0.54,-0.03 -0.98,0.03 -1.32,0.19 -0.36,0.17 -0.52,0.41 -0.5,0.73 0.01,0.18 0.08,0.3 0.21,0.38 0.09,0.06 0.22,0.1 0.4,0.12l0.11 0.01 0.11 0.01c0.08,0.01 0.15,0.02 0.2,0.03 0.14,0.03 0.22,0.09 0.25,0.18 0.02,0.05 -0,0.37 -0.06,0.94 -0.03,0.29 -0.05,0.54 -0.06,0.75 -0.01,0.29 -0.01,0.55 0.01,0.76 0.03,0.33 0.13,0.59 0.31,0.8 0.19,0.22 0.41,0.3 0.67,0.27 0.48,-0.07 0.65,-0.59 0.52,-1.55 -0.07,-0.51 -0.1,-0.94 -0.11,-1.3 -0,-0.38 0.03,-0.61 0.1,-0.67 0.05,-0.04 0.14,-0.06 0.26,-0.07 0.04,0 0.09,0 0.17,0l0.09 0 0.09 -0c0.14,-0 0.26,-0.03 0.34,-0.07 0.11,-0.06 0.18,-0.15 0.22,-0.28 0.04,-0.16 0.02,-0.32 -0.07,-0.47 -0.09,-0.14 -0.23,-0.26 -0.42,-0.38 -0.39,-0.23 -0.9,-0.36 -1.53,-0.39z"/>
  <path id="_5_4" class="fil1" d="M24.92 1.8c-0.06,0.07 -0.12,0.16 -0.18,0.26 -0.1,0.18 -0.19,0.37 -0.27,0.58l-0.05 0.15 -0.05 0.16c-0.04,0.14 -0.08,0.24 -0.11,0.31 -0.05,0.13 -0.1,0.23 -0.15,0.29 -0.04,0.05 -0.08,0.08 -0.13,0.1 -0.04,0.02 -0.09,0.02 -0.15,0.02 0.06,-0 0.11,-0.01 0.15,-0.03 0.04,-0.02 0.08,-0.06 0.11,-0.11 0.04,-0.06 0.09,-0.16 0.13,-0.29l0.05 -0.16 0.05 -0.16c0.04,-0.12 0.07,-0.23 0.1,-0.31 0.08,-0.22 0.18,-0.42 0.29,-0.58 0.15,-0.22 0.29,-0.37 0.44,-0.45 -0.08,0.06 -0.16,0.13 -0.22,0.22zm-2.21 0.84c-0.03,0.15 -0.06,0.32 -0.08,0.53l-0.03 0.27 -0.03 0.26c-0.02,-0.53 0.04,-1 0.17,-1.41 0.02,-0.08 0.05,-0.16 0.08,-0.22 0.04,-0.09 0.08,-0.16 0.12,-0.22 0.11,-0.16 0.23,-0.24 0.37,-0.23 -0.17,0.02 -0.31,0.15 -0.42,0.4 -0.04,0.09 -0.08,0.2 -0.11,0.33 -0.01,0.05 -0.03,0.1 -0.04,0.16l-0.02 0.07 -0.01 0.03 -0.01 0.03zm3.06 -1.3c-0.27,-0.18 -0.55,-0.16 -0.83,0.04 -0.23,0.17 -0.43,0.44 -0.61,0.82 -0.06,0.12 -0.11,0.26 -0.17,0.42 -0.02,0.06 -0.04,0.13 -0.07,0.2l-0.03 0.09 -0.01 0.04 -0.02 0.04c-0.04,0.13 -0.08,0.23 -0.1,0.28 -0.03,0.07 -0.06,0.1 -0.09,0.1 -0.06,-0 -0.09,-0.05 -0.09,-0.15 -0,-0.08 0.01,-0.27 0.05,-0.56 0.07,-0.53 0.04,-0.91 -0.1,-1.12 -0.11,-0.17 -0.28,-0.24 -0.51,-0.21 -0.28,0.04 -0.51,0.33 -0.68,0.87 -0.16,0.52 -0.23,1.16 -0.21,1.92 0.04,1.39 0.42,2.13 1.13,2.24 0.21,0.03 0.42,-0.02 0.62,-0.16 0.2,-0.13 0.36,-0.31 0.5,-0.54 0.12,-0.2 0.22,-0.39 0.31,-0.56 0.03,-0.07 0.06,-0.13 0.09,-0.2 0.02,-0.04 0.04,-0.09 0.06,-0.14 0.04,-0.09 0.06,-0.14 0.07,-0.16 0.02,-0.02 0.04,-0.03 0.07,-0.02 0.03,0.01 0.03,0.11 0.01,0.3l-0.01 0.07 -0.01 0.07c-0.01,0.06 -0.01,0.11 -0.02,0.15 -0.01,0.13 -0.02,0.24 -0.02,0.33 -0.01,0.59 0.18,0.88 0.58,0.88 0.26,-0 0.46,-0.24 0.6,-0.71 0.13,-0.42 0.19,-0.96 0.19,-1.6 0,-0.63 -0.06,-1.2 -0.18,-1.71 -0.13,-0.55 -0.31,-0.9 -0.52,-1.04z"/>
  <path id="_6_5" class="fil1" d="M30.47 4.43c-0.05,0.04 -0.09,0.07 -0.14,0.08 -0.06,0.02 -0.11,0.02 -0.16,0 0.1,-0.03 0.19,-0.07 0.27,-0.14 0.06,-0.05 0.13,-0.13 0.2,-0.24 -0.02,0.12 -0.07,0.21 -0.16,0.29zm-0.36 -0.21c-0.05,-0.02 -0.09,-0.07 -0.1,-0.14 -0.02,-0.07 -0.01,-0.14 0.01,-0.21 0.03,-0.07 0.07,-0.13 0.12,-0.17 0.06,-0.04 0.11,-0.04 0.16,-0.02 0.05,0.02 0.09,0.07 0.1,0.13 0.02,0.07 0.01,0.14 -0.02,0.21 -0.03,0.07 -0.07,0.13 -0.12,0.17 -0.06,0.04 -0.11,0.04 -0.16,0.02zm-0.54 -1.95c-0.08,0.13 -0.19,0.29 -0.31,0.5 -0.04,0.08 -0.09,0.16 -0.14,0.26l-0.14 0.26c0.06,-0.18 0.14,-0.36 0.24,-0.55 0.09,-0.18 0.19,-0.35 0.3,-0.52 0.13,-0.19 0.25,-0.35 0.37,-0.46l0.05 -0.05c0.02,-0.02 0.04,-0.03 0.05,-0.05l0.06 -0.05 0.06 -0.04c0.11,-0.06 0.2,-0.09 0.27,-0.08 -0.08,0.01 -0.16,0.04 -0.25,0.11l-0.05 0.04 -0.05 0.05c-0.01,0.01 -0.03,0.03 -0.05,0.05l-0.05 0.05c-0.11,0.13 -0.23,0.28 -0.35,0.46zm0.89 -1.05c-0.29,-0.05 -0.61,0.17 -0.98,0.65 -0.32,0.43 -0.62,0.99 -0.88,1.67 -0.26,0.67 -0.41,1.27 -0.45,1.79 -0.05,0.57 0.06,0.91 0.31,1.01 0.19,0.08 0.37,0.08 0.55,-0.01 0.13,-0.06 0.27,-0.18 0.42,-0.35 0.03,-0.03 0.06,-0.07 0.09,-0.11l0.09 -0.11c0.07,-0.09 0.13,-0.16 0.16,-0.2 0.12,-0.13 0.22,-0.2 0.3,-0.2 0.08,0 0.19,0.06 0.31,0.19 0.04,0.04 0.09,0.1 0.17,0.19l0.09 0.1 0.09 0.11c0.15,0.16 0.29,0.27 0.41,0.33 0.16,0.08 0.32,0.07 0.49,-0.01 0.19,-0.1 0.3,-0.4 0.33,-0.93 0.02,-0.49 -0.03,-1.04 -0.15,-1.67 -0.13,-0.65 -0.3,-1.19 -0.53,-1.64 -0.25,-0.5 -0.52,-0.77 -0.81,-0.82z"/>
  <path id="_7_6" class="fil1" d="M34.53 3.38c-0.03,0.07 -0.06,0.13 -0.11,0.19 -0.05,0.06 -0.11,0.1 -0.17,0.13 -0.07,0.03 -0.14,0.04 -0.2,0.02 0.07,-0.01 0.13,-0.04 0.18,-0.07 0.06,-0.03 0.1,-0.08 0.14,-0.12 0.08,-0.09 0.15,-0.21 0.19,-0.36 0.01,0.07 -0,0.14 -0.03,0.21zm-0.6 -0.31c0.03,-0.07 0.08,-0.12 0.14,-0.16 0.06,-0.03 0.11,-0.03 0.16,-0.01 0.05,0.03 0.08,0.07 0.09,0.14 0.01,0.07 -0,0.14 -0.04,0.21 -0.03,0.07 -0.08,0.13 -0.13,0.16 -0.06,0.03 -0.11,0.03 -0.16,0.01 -0.05,-0.03 -0.08,-0.07 -0.09,-0.14 -0.01,-0.07 0,-0.14 0.03,-0.21zm-0.51 -1.43c-0.15,0.08 -0.28,0.18 -0.39,0.31 -0.1,0.12 -0.19,0.26 -0.27,0.44 -0.06,0.14 -0.12,0.31 -0.17,0.5 0.01,-0.07 0.02,-0.16 0.04,-0.26 0.02,-0.09 0.05,-0.18 0.08,-0.26 0.06,-0.17 0.15,-0.33 0.27,-0.46 0.12,-0.14 0.26,-0.24 0.42,-0.31 0.08,-0.03 0.16,-0.06 0.24,-0.08 0.09,-0.01 0.17,-0.02 0.25,-0.02 -0.18,0.03 -0.34,0.08 -0.47,0.15zm0.62 -0.43c-0.45,-0.01 -0.82,0.13 -1.11,0.4 -0.26,0.24 -0.44,0.58 -0.55,1.02 -0.1,0.4 -0.12,0.84 -0.07,1.31 0.05,0.46 0.15,0.89 0.33,1.29 0.16,0.38 0.35,0.68 0.55,0.88 0.18,0.18 0.36,0.28 0.54,0.3 0.16,0.02 0.3,-0.03 0.42,-0.16 0.12,-0.12 0.19,-0.28 0.21,-0.49 0.02,-0.14 0.01,-0.3 -0.01,-0.48 -0.01,-0.05 -0.02,-0.12 -0.04,-0.21l-0.02 -0.1c-0.01,-0.04 -0.01,-0.07 -0.02,-0.09 -0.02,-0.14 -0.02,-0.25 0.01,-0.33 0.03,-0.1 0.1,-0.18 0.21,-0.23 0.36,-0.18 0.63,-0.45 0.81,-0.81 0.17,-0.33 0.24,-0.67 0.2,-1.03 -0.04,-0.36 -0.18,-0.66 -0.42,-0.89 -0.26,-0.25 -0.61,-0.38 -1.03,-0.39z"/>
  <path id="_8_7" class="fil1" d="M38.07 4.83c-0.04,0.07 -0.09,0.12 -0.16,0.15 -0.07,0.03 -0.13,0.04 -0.2,0.03 0.14,-0.03 0.24,-0.1 0.31,-0.21 0.03,-0.05 0.06,-0.11 0.07,-0.18 0.01,-0.06 0.02,-0.13 0.02,-0.21 0.03,0.07 0.04,0.14 0.03,0.22 -0,0.08 -0.03,0.15 -0.07,0.21zm-0.59 -0.28c-0.03,-0.07 -0.04,-0.14 -0.03,-0.21 0.01,-0.07 0.04,-0.12 0.08,-0.14 0.05,-0.02 0.1,-0.02 0.16,0.01 0.06,0.03 0.1,0.08 0.14,0.15 0.03,0.07 0.04,0.14 0.03,0.21 -0.01,0.07 -0.04,0.11 -0.09,0.14 -0.05,0.03 -0.1,0.02 -0.15,-0.01 -0.06,-0.03 -0.1,-0.08 -0.14,-0.16zm-0.31 -3c-0.04,0.02 -0.09,0.05 -0.14,0.1 -0.08,0.07 -0.15,0.16 -0.23,0.26 -0.06,0.07 -0.12,0.17 -0.2,0.29 -0.03,0.04 -0.06,0.09 -0.09,0.16l-0.09 0.16c0.04,-0.14 0.09,-0.25 0.14,-0.34 0.06,-0.12 0.12,-0.22 0.19,-0.31 0.08,-0.11 0.17,-0.19 0.25,-0.26 0.11,-0.08 0.22,-0.12 0.32,-0.11 -0.05,0.01 -0.11,0.03 -0.16,0.06zm0.87 1.75c-0.11,-0.04 -0.19,-0.1 -0.22,-0.2 -0.02,-0.08 -0.03,-0.18 -0,-0.33 0,-0.03 0.01,-0.06 0.02,-0.1l0.02 -0.1c0.02,-0.09 0.03,-0.17 0.04,-0.22 0.03,-0.18 0.03,-0.35 0.02,-0.49 -0.02,-0.2 -0.09,-0.36 -0.21,-0.48 -0.12,-0.12 -0.26,-0.17 -0.42,-0.16 -0.18,0.02 -0.36,0.12 -0.53,0.3 -0.2,0.2 -0.39,0.49 -0.55,0.88 -0.17,0.4 -0.28,0.82 -0.33,1.28 -0.05,0.48 -0.03,0.91 0.07,1.31 0.11,0.44 0.29,0.77 0.55,1.02 0.29,0.27 0.66,0.4 1.11,0.4 0.42,-0.01 0.78,-0.14 1.05,-0.42 0.26,-0.25 0.41,-0.56 0.46,-0.94 0.05,-0.37 -0.01,-0.72 -0.19,-1.04 -0.19,-0.34 -0.49,-0.58 -0.89,-0.71zm1.39 -1.67c-0.04,0.04 -0.06,0.08 -0.08,0.14 -0.02,0.05 -0.03,0.11 -0.03,0.17 -0,0.09 0,0.21 0.03,0.36l0.03 0.18 0.03 0.18c-0.05,-0.13 -0.09,-0.25 -0.11,-0.35 -0.03,-0.14 -0.05,-0.26 -0.04,-0.37 0.01,-0.07 0.02,-0.14 0.04,-0.19 0.03,-0.07 0.06,-0.12 0.11,-0.16 0.09,-0.07 0.2,-0.11 0.33,-0.09 -0.12,0.01 -0.22,0.06 -0.3,0.13zm1.17 0.2c-0.09,-0.19 -0.22,-0.34 -0.37,-0.45 -0.14,-0.1 -0.28,-0.15 -0.44,-0.16 -0.15,-0.01 -0.28,0.01 -0.41,0.08 -0.12,0.07 -0.22,0.16 -0.27,0.28 -0.11,0.23 -0.1,0.56 0.01,1 0.01,0.07 0.04,0.16 0.07,0.28l0.04 0.14 0.04 0.14c0.06,0.22 0.1,0.4 0.11,0.55 0.04,0.35 0.05,0.71 0.05,1.08 -0,0.12 -0.01,0.26 -0.02,0.42l-0 0.09 -0 0.09c-0,0.07 -0.01,0.12 -0.01,0.17 -0.01,0.23 0.01,0.39 0.04,0.49 0.04,0.12 0.12,0.19 0.25,0.23 0.24,0.06 0.46,-0.08 0.65,-0.42 0.17,-0.3 0.31,-0.72 0.4,-1.25 0.09,-0.51 0.12,-1.02 0.1,-1.52 -0.02,-0.53 -0.1,-0.94 -0.24,-1.22z"/>
  <path id="_9_8" class="fil1" d="M44.1 1.58c-0.03,0.01 -0.06,0.04 -0.09,0.08 -0.04,0.05 -0.07,0.13 -0.09,0.23 -0.02,0.14 -0.03,0.31 -0.03,0.52l0 0.07 0 0.07c0,0.05 0,0.1 -0,0.14 -0.01,0.1 -0.03,0.19 -0.06,0.26 -0.04,0.09 -0.08,0.16 -0.14,0.22 -0.06,0.06 -0.14,0.11 -0.21,0.13 0.15,-0.08 0.26,-0.2 0.31,-0.37 0.03,-0.08 0.04,-0.17 0.05,-0.25 0,-0.03 0,-0.08 0,-0.13l-0 -0.07 0 -0.07c-0,-0.22 0.01,-0.39 0.04,-0.53 0.03,-0.11 0.07,-0.19 0.11,-0.25 0.03,-0.04 0.07,-0.06 0.11,-0.07 0.03,-0.01 0.07,-0.02 0.12,-0.01 -0.05,0.01 -0.09,0.02 -0.12,0.03zm-2.25 0.09c-0.08,0.09 -0.14,0.2 -0.18,0.33 -0.03,0.11 -0.07,0.24 -0.1,0.38l-0.04 0.19 -0.04 0.2c0.01,-0.27 0.05,-0.54 0.13,-0.79 0.05,-0.14 0.11,-0.26 0.2,-0.35 0.05,-0.05 0.1,-0.09 0.16,-0.11 0.06,-0.02 0.13,-0.03 0.18,-0.03 -0.12,0.01 -0.22,0.07 -0.31,0.18zm2.35 -0.4c-0.23,0.01 -0.39,0.12 -0.48,0.33 -0.09,0.2 -0.13,0.51 -0.11,0.93 0.01,0.18 -0.03,0.32 -0.11,0.41 -0.07,0.08 -0.15,0.12 -0.26,0.11 -0.11,-0.01 -0.19,-0.06 -0.25,-0.15 -0.06,-0.09 -0.08,-0.22 -0.06,-0.37 0.04,-0.43 0,-0.74 -0.12,-0.96 -0.11,-0.19 -0.28,-0.31 -0.53,-0.35 -0.2,-0.03 -0.38,0.02 -0.54,0.15 -0.15,0.13 -0.27,0.31 -0.34,0.54 -0.14,0.45 -0.21,0.99 -0.22,1.6 -0.01,0.59 0.05,1.16 0.17,1.7 0.09,0.4 0.23,0.69 0.42,0.86 0.16,0.14 0.33,0.2 0.52,0.17 0.43,-0.07 0.62,-0.41 0.58,-1.02 -0.03,-0.45 0.06,-0.67 0.26,-0.67 0.1,0 0.18,0.04 0.23,0.12 0.07,0.11 0.1,0.28 0.09,0.52 -0.02,0.4 0.04,0.7 0.18,0.91 0.13,0.2 0.3,0.29 0.54,0.29 0.39,0 0.67,-0.27 0.83,-0.8 0.12,-0.39 0.19,-1.03 0.21,-1.92 0.02,-0.69 -0.06,-1.26 -0.24,-1.72 -0.19,-0.48 -0.44,-0.71 -0.76,-0.69z"/>
  <path id="_10_9" class="fil1" d="M13.44 4.67c-0.01,0.06 -0.03,0.12 -0.07,0.17 -0.04,0.06 -0.08,0.1 -0.13,0.13 -0.06,0.04 -0.11,0.06 -0.16,0.07 0.11,-0.08 0.19,-0.16 0.24,-0.24 0.05,-0.08 0.09,-0.19 0.12,-0.32 0.01,0.06 0.01,0.12 -0,0.19zm-1.36 0.27c-0.06,0.01 -0.12,0.01 -0.16,0.02 -0.06,0.01 -0.11,0.04 -0.14,0.07 -0.03,0.03 -0.07,0.07 -0.1,0.13 0,-0.07 0.03,-0.13 0.07,-0.17 0.04,-0.04 0.09,-0.08 0.16,-0.1 0.06,-0.01 0.12,-0.01 0.17,-0.01 0.07,0.01 0.12,0.02 0.17,0.04 -0.05,0.01 -0.11,0.01 -0.17,0.01zm0.01 -3.09c-0.07,0.05 -0.12,0.11 -0.16,0.16 -0.02,0.03 -0.04,0.06 -0.07,0.09 -0.02,0.03 -0.04,0.06 -0.05,0.1 -0.03,0.06 -0.05,0.14 -0.07,0.23 -0.01,0.03 -0.02,0.07 -0.02,0.12l-0.02 0.12c0,-0.18 0.02,-0.34 0.07,-0.48 0.02,-0.05 0.03,-0.08 0.05,-0.12 0.02,-0.03 0.05,-0.07 0.07,-0.1 0.04,-0.05 0.1,-0.11 0.17,-0.17 0.12,-0.09 0.26,-0.16 0.41,-0.21 0.08,-0.02 0.15,-0.04 0.22,-0.05 0.09,-0.01 0.17,-0.02 0.22,-0.02 -0.18,0.04 -0.32,0.08 -0.43,0.12 -0.16,0.06 -0.29,0.13 -0.39,0.21zm1.39 1.18c-0.11,-0.03 -0.22,-0.04 -0.33,-0.05 -0.04,-0 -0.08,-0.01 -0.13,-0.01l-0.06 -0 -0.05 -0c-0.14,-0 -0.23,-0.03 -0.26,-0.08 -0.03,-0.05 -0.04,-0.11 -0.01,-0.18 0.03,-0.07 0.07,-0.13 0.14,-0.16 0.2,-0.11 0.51,-0.12 0.92,-0.04 0.17,0.04 0.32,0.01 0.44,-0.09 0.12,-0.09 0.19,-0.21 0.21,-0.36 0.03,-0.16 0,-0.3 -0.08,-0.44 -0.09,-0.15 -0.23,-0.25 -0.43,-0.31 -0.33,-0.09 -0.69,-0.11 -1.1,-0.03 -0.51,0.09 -0.88,0.3 -1.1,0.64 -0.14,0.21 -0.21,0.52 -0.21,0.94 0,0.42 0.08,0.71 0.22,0.89 0.09,0.11 0.2,0.19 0.33,0.23 0.1,0.03 0.22,0.05 0.37,0.06l0.09 0 0.09 0c0.07,0 0.13,0 0.18,0.01 0.13,0.01 0.23,0.04 0.31,0.1 0.11,0.08 0.17,0.18 0.18,0.32 0.01,0.13 -0.03,0.23 -0.12,0.29 -0.05,0.03 -0.09,0.05 -0.13,0.05 -0.07,0.01 -0.18,-0.01 -0.32,-0.05 -0.74,-0.23 -1.15,-0.06 -1.22,0.51 -0.03,0.26 0.05,0.49 0.25,0.69 0.18,0.19 0.43,0.33 0.74,0.41 0.32,0.08 0.63,0.1 0.95,0.04 0.34,-0.07 0.63,-0.21 0.87,-0.43 0.24,-0.23 0.41,-0.49 0.5,-0.79 0.09,-0.29 0.1,-0.59 0.03,-0.88 -0.07,-0.3 -0.2,-0.55 -0.41,-0.77 -0.22,-0.23 -0.5,-0.38 -0.84,-0.47z"/>
  <path id="_11_10" class="fil1" d="M5.83 11.27c-0.05,0.01 -0.1,0.03 -0.15,0.05l-0.04 0.01 -0.04 0.02c-0.03,0.01 -0.06,0.02 -0.08,0.03 -0.06,0.02 -0.11,0.02 -0.17,0.02l0.08 -0.03c0.03,-0.01 0.06,-0.02 0.08,-0.03l0.04 -0.02 0.04 -0.02c0.03,-0.02 0.05,-0.03 0.08,-0.04 0.06,-0.03 0.12,-0.04 0.17,-0.04 0.07,-0 0.12,0.01 0.17,0.05 -0.05,-0.01 -0.11,-0.01 -0.16,0zm-1.53 0.11c-0.05,0 -0.1,0.01 -0.13,0.01 -0.05,0 -0.1,0.01 -0.13,0.02 -0.02,0.01 -0.04,0.02 -0.05,0.03 -0.01,0.01 -0.02,0.03 -0.03,0.06 -0,-0.03 0,-0.06 0.01,-0.08 0.01,-0.02 0.03,-0.04 0.06,-0.06 0.04,-0.02 0.08,-0.03 0.14,-0.04 0.06,-0.01 0.1,-0 0.14,0 0.05,0.01 0.1,0.02 0.14,0.03 -0.04,0.01 -0.09,0.02 -0.14,0.02zm1.2 -0.27c-0.09,0.05 -0.24,0.08 -0.45,0.07 -0.07,-0.01 -0.16,-0.01 -0.28,-0.03l-0.14 -0.01c-0.05,-0.01 -0.1,-0.01 -0.14,-0.01 -0.22,-0.02 -0.39,-0.01 -0.5,0.03 -0.15,0.05 -0.23,0.16 -0.25,0.32 -0.03,0.21 0.06,0.39 0.26,0.54 0.19,0.14 0.43,0.24 0.74,0.29 0.3,0.05 0.59,0.05 0.86,-0 0.29,-0.06 0.51,-0.17 0.64,-0.33 0.1,-0.12 0.15,-0.25 0.15,-0.39 0,-0.14 -0.03,-0.26 -0.11,-0.37 -0.08,-0.11 -0.18,-0.17 -0.31,-0.2 -0.14,-0.03 -0.3,0.01 -0.46,0.1z"/>
  <path id="_12_11" class="fil1" d="M7.92 9.29c-0.16,0.02 -0.28,0.05 -0.38,0.08 -0.15,0.04 -0.26,0.1 -0.35,0.16 -0.06,0.05 -0.11,0.09 -0.14,0.13 -0.04,0.05 -0.06,0.12 -0.06,0.2 -0.02,-0.07 -0.01,-0.15 0.03,-0.21 0.03,-0.06 0.08,-0.11 0.14,-0.16 0.09,-0.07 0.21,-0.13 0.36,-0.18 0.25,-0.07 0.51,-0.09 0.79,-0.07 -0.14,0.01 -0.27,0.03 -0.39,0.05zm0.63 -0.32c-0.54,-0.03 -0.98,0.03 -1.32,0.19 -0.36,0.17 -0.52,0.41 -0.5,0.73 0.01,0.18 0.08,0.3 0.21,0.38 0.09,0.06 0.22,0.1 0.4,0.12l0.11 0.01 0.11 0.01c0.08,0.01 0.15,0.02 0.2,0.03 0.14,0.03 0.22,0.09 0.25,0.18 0.02,0.05 -0,0.37 -0.06,0.94 -0.03,0.29 -0.05,0.54 -0.06,0.75 -0.01,0.29 -0.01,0.55 0.01,0.76 0.03,0.33 0.13,0.59 0.31,0.8 0.19,0.22 0.41,0.3 0.67,0.27 0.48,-0.07 0.65,-0.59 0.52,-1.55 -0.07,-0.51 -0.1,-0.94 -0.11,-1.3 -0,-0.38 0.03,-0.61 0.1,-0.67 0.05,-0.04 0.14,-0.06 0.26,-0.07 0.04,0 0.09,0 0.17,0l0.09 0 0.09 -0c0.14,-0 0.26,-0.03 0.34,-0.07 0.11,-0.06 0.18,-0.15 0.22,-0.28 0.04,-0.16 0.02,-0.32 -0.07,-0.47 -0.09,-0.14 -0.23,-0.26 -0.42,-0.38 -0.39,-0.23 -0.9,-0.36 -1.53,-0.39z"/>
  <path id="_13_12" class="fil1" d="M13.54 9.54c-0.06,0.07 -0.12,0.16 -0.18,0.26 -0.1,0.18 -0.19,0.37 -0.27,0.58l-0.05 0.15 -0.05 0.16c-0.04,0.14 -0.08,0.24 -0.11,0.31 -0.05,0.13 -0.1,0.23 -0.15,0.29 -0.04,0.05 -0.08,0.08 -0.13,0.1 -0.04,0.02 -0.09,0.02 -0.15,0.02 0.06,-0 0.11,-0.01 0.15,-0.03 0.04,-0.02 0.08,-0.06 0.11,-0.11 0.04,-0.06 0.09,-0.16 0.13,-0.29l0.05 -0.16 0.05 -0.16c0.04,-0.12 0.07,-0.23 0.1,-0.31 0.08,-0.22 0.18,-0.42 0.29,-0.58 0.15,-0.22 0.29,-0.37 0.44,-0.45 -0.08,0.06 -0.16,0.13 -0.22,0.22zm-2.21 0.84c-0.03,0.15 -0.06,0.32 -0.08,0.53l-0.03 0.27 -0.03 0.26c-0.02,-0.53 0.04,-1 0.17,-1.41 0.02,-0.08 0.05,-0.16 0.08,-0.22 0.04,-0.09 0.08,-0.16 0.12,-0.22 0.11,-0.16 0.23,-0.24 0.37,-0.23 -0.17,0.02 -0.31,0.15 -0.42,0.4 -0.04,0.09 -0.08,0.2 -0.11,0.33 -0.01,0.05 -0.03,0.1 -0.04,0.16l-0.02 0.07 -0.01 0.03 -0.01 0.03zm3.06 -1.3c-0.27,-0.18 -0.55,-0.16 -0.83,0.04 -0.23,0.17 -0.43,0.44 -0.61,0.82 -0.06,0.12 -0.11,0.26 -0.17,0.42 -0.02,0.06 -0.04,0.13 -0.07,0.2l-0.03 0.09 -0.01 0.04 -0.02 0.04c-0.04,0.13 -0.08,0.23 -0.1,0.28 -0.03,0.07 -0.06,0.1 -0.09,0.1 -0.06,-0 -0.09,-0.05 -0.09,-0.15 -0,-0.08 0.01,-0.27 0.05,-0.56 0.07,-0.53 0.04,-0.91 -0.1,-1.12 -0.11,-0.17 -0.28,-0.24 -0.51,-0.21 -0.28,0.04 -0.51,0.33 -0.68,0.87 -0.16,0.52 -0.23,1.16 -0.21,1.92 0.04,1.39 0.42,2.13 1.13,2.24 0.21,0.03 0.42,-0.02 0.62,-0.16 0.2,-0.13 0.36,-0.31 0.5,-0.54 0.12,-0.2 0.22,-0.39 0.31,-0.56 0.03,-0.07 0.06,-0.13 0.09,-0.2 0.02,-0.04 0.04,-0.09 0.06,-0.14 0.04,-0.09 0.06,-0.14 0.07,-0.16 0.02,-0.02 0.04,-0.03 0.07,-0.02 0.03,0.01 0.03,0.11 0.01,0.3l-0.01 0.07 -0.01 0.07c-0.01,0.06 -0.01,0.11 -0.02,0.15 -0.01,0.13 -0.02,0.24 -0.02,0.33 -0.01,0.59 0.18,0.88 0.58,0.88 0.25,-0 0.46,-0.24 0.6,-0.71 0.13,-0.42 0.19,-0.96 0.19,-1.6 0,-0.63 -0.06,-1.2 -0.18,-1.71 -0.13,-0.55 -0.31,-0.9 -0.52,-1.04z"/>
  <path id="_14_13" class="fil1" d="M19.16 12.49c-0.04,0.08 -0.09,0.14 -0.16,0.18 -0.07,0.04 -0.15,0.06 -0.22,0.04 0.08,-0.01 0.14,-0.04 0.2,-0.09 0.06,-0.05 0.1,-0.1 0.13,-0.17 0.06,-0.13 0.07,-0.28 0.03,-0.45 0.04,0.07 0.06,0.15 0.07,0.24 0.01,0.09 -0.01,0.17 -0.04,0.25zm-0.62 -0.22c-0.04,-0.07 -0.05,-0.14 -0.04,-0.21 0.01,-0.07 0.03,-0.12 0.08,-0.15 0.05,-0.03 0.1,-0.03 0.16,0 0.06,0.03 0.11,0.08 0.15,0.15 0.04,0.07 0.05,0.14 0.04,0.21 -0.01,0.07 -0.03,0.12 -0.08,0.15 -0.05,0.03 -0.1,0.03 -0.16,0 -0.06,-0.03 -0.11,-0.08 -0.15,-0.15zm-0.29 -1.51c0.05,-0.01 0.1,-0.04 0.15,-0.06 0.05,-0.03 0.09,-0.07 0.12,-0.1 0.03,-0.04 0.07,-0.08 0.1,-0.13 0.02,-0.05 0.05,-0.1 0.07,-0.16 0.01,0.12 -0.03,0.24 -0.12,0.34 -0.04,0.05 -0.09,0.08 -0.15,0.1 -0.06,0.02 -0.11,0.03 -0.17,0.01zm-0.07 -0.52c0.02,-0.05 0.06,-0.08 0.1,-0.1 0.04,-0.02 0.07,-0.02 0.1,0 0.03,0.02 0.05,0.05 0.05,0.1 0,0.05 -0.01,0.09 -0.03,0.14 -0.02,0.05 -0.06,0.08 -0.1,0.1 -0.04,0.02 -0.07,0.02 -0.1,0 -0.03,-0.02 -0.05,-0.05 -0.05,-0.1 -0,-0.05 0.01,-0.09 0.03,-0.14zm-0.57 -0.65c-0.05,0.06 -0.11,0.13 -0.16,0.22 -0.08,0.14 -0.16,0.31 -0.23,0.5 -0.05,0.16 -0.11,0.34 -0.16,0.55 0.02,-0.19 0.05,-0.38 0.11,-0.57 0.06,-0.19 0.13,-0.37 0.23,-0.53 0.11,-0.18 0.24,-0.32 0.38,-0.41 0.09,-0.06 0.17,-0.1 0.25,-0.12 0.09,-0.02 0.18,-0.03 0.26,-0.03 -0.18,0.02 -0.34,0.08 -0.49,0.19 -0.07,0.05 -0.14,0.11 -0.2,0.18zm1.43 1.38c-0.04,-0.02 -0.05,-0.06 -0.02,-0.12 0.01,-0.02 0.03,-0.06 0.05,-0.11l0.02 -0.03 0.02 -0.03c0.01,-0.03 0.03,-0.05 0.04,-0.08 0.06,-0.13 0.1,-0.26 0.13,-0.38 0.04,-0.17 0.04,-0.35 0.01,-0.53 -0.03,-0.2 -0.14,-0.38 -0.32,-0.52 -0.18,-0.14 -0.39,-0.22 -0.63,-0.23 -0.26,-0.01 -0.5,0.07 -0.72,0.24 -0.25,0.19 -0.45,0.49 -0.6,0.88 -0.15,0.41 -0.23,0.85 -0.25,1.33 -0.01,0.49 0.05,0.94 0.18,1.35 0.15,0.45 0.36,0.79 0.65,1.03 0.32,0.27 0.71,0.38 1.16,0.35 0.43,-0.03 0.77,-0.18 1.03,-0.46 0.23,-0.25 0.36,-0.55 0.38,-0.92 0.02,-0.36 -0.06,-0.7 -0.25,-1.03 -0.2,-0.35 -0.49,-0.6 -0.87,-0.76z"/>
  <path id="_15_14" class="fil1" d="M22.74 12.57c-0.04,0.07 -0.09,0.12 -0.16,0.15 -0.07,0.03 -0.13,0.04 -0.2,0.03 0.14,-0.03 0.24,-0.1 0.31,-0.21 0.03,-0.05 0.06,-0.11 0.07,-0.18 0.01,-0.06 0.02,-0.13 0.02,-0.21 0.03,0.07 0.04,0.14 0.03,0.22 -0,0.08 -0.03,0.15 -0.07,0.21zm-0.59 -0.28c-0.03,-0.07 -0.04,-0.14 -0.03,-0.21 0.01,-0.07 0.04,-0.12 0.08,-0.14 0.05,-0.02 0.1,-0.02 0.16,0.01 0.06,0.03 0.1,0.08 0.14,0.15 0.03,0.07 0.04,0.14 0.03,0.21 -0.01,0.07 -0.04,0.11 -0.09,0.14 -0.05,0.03 -0.1,0.02 -0.15,-0.01 -0.06,-0.03 -0.1,-0.08 -0.14,-0.16zm-0.31 -3c-0.04,0.02 -0.09,0.05 -0.14,0.1 -0.08,0.07 -0.15,0.16 -0.23,0.26 -0.06,0.07 -0.12,0.17 -0.2,0.29 -0.03,0.04 -0.06,0.09 -0.09,0.16l-0.09 0.16c0.04,-0.14 0.09,-0.25 0.14,-0.34 0.06,-0.12 0.12,-0.22 0.19,-0.31 0.08,-0.11 0.17,-0.19 0.25,-0.26 0.11,-0.08 0.22,-0.12 0.32,-0.11 -0.05,0.01 -0.11,0.03 -0.16,0.06zm0.87 1.75c-0.11,-0.04 -0.19,-0.1 -0.22,-0.2 -0.02,-0.08 -0.03,-0.18 -0,-0.33 0,-0.03 0.01,-0.06 0.02,-0.1l0.02 -0.1c0.02,-0.09 0.03,-0.17 0.04,-0.22 0.03,-0.18 0.03,-0.35 0.02,-0.49 -0.02,-0.2 -0.09,-0.36 -0.21,-0.48 -0.12,-0.12 -0.26,-0.17 -0.42,-0.16 -0.18,0.02 -0.36,0.12 -0.53,0.3 -0.2,0.2 -0.39,0.49 -0.55,0.88 -0.17,0.4 -0.28,0.82 -0.33,1.28 -0.05,0.48 -0.03,0.91 0.07,1.31 0.11,0.44 0.29,0.77 0.55,1.02 0.29,0.27 0.66,0.4 1.11,0.4 0.42,-0.01 0.78,-0.14 1.05,-0.42 0.26,-0.25 0.41,-0.56 0.46,-0.94 0.05,-0.37 -0.01,-0.72 -0.19,-1.04 -0.19,-0.34 -0.49,-0.58 -0.89,-0.71zm1.39 -1.67c-0.04,0.04 -0.06,0.08 -0.08,0.14 -0.02,0.05 -0.03,0.11 -0.03,0.17 -0,0.09 0,0.21 0.03,0.36l0.03 0.18 0.03 0.18c-0.05,-0.13 -0.09,-0.25 -0.11,-0.35 -0.03,-0.14 -0.05,-0.26 -0.04,-0.37 0.01,-0.07 0.02,-0.14 0.04,-0.19 0.03,-0.07 0.06,-0.12 0.11,-0.16 0.09,-0.07 0.2,-0.11 0.33,-0.09 -0.12,0.01 -0.22,0.06 -0.3,0.13zm1.17 0.2c-0.09,-0.19 -0.22,-0.34 -0.37,-0.45 -0.14,-0.1 -0.28,-0.15 -0.44,-0.16 -0.15,-0.01 -0.28,0.01 -0.41,0.08 -0.12,0.07 -0.22,0.16 -0.27,0.28 -0.11,0.23 -0.1,0.56 0.01,1 0.01,0.07 0.04,0.16 0.07,0.28l0.04 0.14 0.04 0.14c0.06,0.22 0.1,0.4 0.11,0.55 0.04,0.35 0.05,0.71 0.05,1.08 -0,0.12 -0.01,0.26 -0.02,0.42l-0 0.09 -0 0.09c-0,0.07 -0.01,0.12 -0.01,0.17 -0.01,0.23 0.01,0.39 0.04,0.49 0.04,0.12 0.12,0.19 0.25,0.23 0.24,0.06 0.46,-0.08 0.65,-0.42 0.17,-0.3 0.31,-0.72 0.4,-1.25 0.09,-0.51 0.12,-1.02 0.1,-1.52 -0.02,-0.53 -0.1,-0.94 -0.24,-1.22z"/>
  <path id="_16_15" class="fil1" d="M27.07 9.41c-0.02,0.01 -0.04,0.02 -0.07,0.04l-0.07 0.04 -0.07 0.04c-0.03,0.02 -0.05,0.03 -0.06,0.05 -0.07,0.05 -0.15,0.12 -0.23,0.2 -0.09,0.1 -0.16,0.18 -0.19,0.25 -0.11,0.17 -0.18,0.37 -0.21,0.6 -0.01,0.05 -0.01,0.1 -0.02,0.16l-0.01 0.17c-0,0.05 -0.01,0.1 -0.01,0.17l-0 0.17c-0.02,-0.24 -0.03,-0.46 -0.01,-0.67 0.02,-0.24 0.09,-0.45 0.21,-0.63l0.05 -0.07 0.05 -0.06c0.01,-0.02 0.03,-0.04 0.05,-0.06l0.03 -0.03 0.03 -0.03c0.1,-0.09 0.18,-0.16 0.25,-0.2 0.17,-0.11 0.36,-0.19 0.58,-0.23l-0.07 0.03 -0.07 0.02c-0.05,0.02 -0.1,0.04 -0.14,0.06zm2.35 0.68c-0.19,-0.44 -0.47,-0.75 -0.86,-0.94 -0.36,-0.18 -0.74,-0.23 -1.14,-0.15 -0.4,0.07 -0.75,0.25 -1.03,0.53 -0.3,0.3 -0.47,0.68 -0.51,1.12 -0.07,0.82 0.05,1.62 0.35,2.41 0.14,0.35 0.29,0.63 0.46,0.82 0.18,0.21 0.36,0.3 0.53,0.28 0.25,-0.03 0.4,-0.19 0.45,-0.47 0.06,-0.32 0.02,-0.86 -0.12,-1.64 -0.11,-0.62 -0.04,-0.94 0.19,-0.98 0.13,-0.02 0.23,0.09 0.31,0.32 0.07,0.22 0.1,0.49 0.09,0.82 -0.03,0.74 0.05,1.25 0.22,1.54 0.13,0.22 0.32,0.32 0.56,0.3 0.21,-0.01 0.39,-0.16 0.53,-0.44 0.14,-0.26 0.23,-0.6 0.28,-1.01 0.05,-0.42 0.05,-0.85 0,-1.28 -0.05,-0.46 -0.16,-0.87 -0.31,-1.23z"/>
  <path id="_17_16" class="fil1" d="M33.17 9.34c-0.04,0.04 -0.09,0.1 -0.13,0.17 -0.07,0.1 -0.14,0.22 -0.23,0.37l-0.05 0.09 -0.05 0.1c-0.04,0.08 -0.08,0.14 -0.12,0.19 -0.05,0.08 -0.1,0.13 -0.14,0.17 -0.06,0.06 -0.13,0.09 -0.19,0.11 0.06,-0.03 0.12,-0.07 0.16,-0.13 0.04,-0.04 0.08,-0.1 0.12,-0.18 0.02,-0.05 0.06,-0.11 0.1,-0.2l0.11 -0.19c0.09,-0.16 0.17,-0.29 0.24,-0.37 0.05,-0.07 0.1,-0.12 0.15,-0.16 0.07,-0.06 0.14,-0.08 0.19,-0.08 -0.06,0.01 -0.12,0.05 -0.17,0.11zm-2.14 3.26c-0.05,0.04 -0.1,0.08 -0.13,0.11 -0.1,0.08 -0.18,0.16 -0.24,0.24 -0.03,0.05 -0.06,0.1 -0.08,0.15 -0.02,0.04 -0.03,0.1 -0.05,0.17 -0,-0.06 0,-0.12 0.02,-0.18 0.02,-0.06 0.04,-0.12 0.07,-0.17 0.05,-0.08 0.13,-0.17 0.24,-0.26 0.07,-0.06 0.17,-0.13 0.28,-0.2l0.07 -0.05 0.07 -0.05c0.06,-0.04 0.1,-0.07 0.14,-0.1 -0.06,0.07 -0.15,0.15 -0.26,0.24l-0.13 0.1zm-0.56 -2.94c-0.03,0.05 -0.06,0.11 -0.07,0.17 -0.02,0.06 -0.02,0.12 -0.02,0.2 -0.03,-0.07 -0.04,-0.13 -0.03,-0.21 0.01,-0.07 0.03,-0.14 0.07,-0.21 0.04,-0.06 0.09,-0.11 0.16,-0.14 0.06,-0.03 0.13,-0.04 0.2,-0.03 -0.13,0.03 -0.23,0.1 -0.3,0.21zm2.88 -0.7c-0.13,0 -0.27,0.07 -0.4,0.21 -0.1,0.1 -0.21,0.25 -0.32,0.45l-0.07 0.12 -0.03 0.06 -0.03 0.06c-0.05,0.1 -0.09,0.17 -0.12,0.21 -0.08,0.14 -0.15,0.21 -0.2,0.21 -0.05,0 -0.16,-0.1 -0.32,-0.29l-0.03 -0.03 -0.03 -0.04c-0.02,-0.03 -0.04,-0.05 -0.06,-0.07 -0.05,-0.06 -0.09,-0.11 -0.13,-0.15 -0.11,-0.12 -0.22,-0.22 -0.32,-0.32 -0.17,-0.15 -0.34,-0.22 -0.52,-0.22 -0.17,0 -0.31,0.06 -0.43,0.18 -0.12,0.12 -0.2,0.27 -0.22,0.45 -0.03,0.19 0.01,0.38 0.11,0.57 0.07,0.14 0.18,0.28 0.32,0.43 0.05,0.06 0.11,0.12 0.19,0.19l0.09 0.09 0.09 0.09c0.15,0.14 0.26,0.25 0.32,0.33 0.09,0.11 0.14,0.21 0.15,0.3 0.01,0.09 -0.04,0.19 -0.15,0.29 -0.04,0.04 -0.1,0.08 -0.17,0.13l-0.05 0.03 -0.05 0.04 -0.1 0.07c-0.17,0.13 -0.3,0.25 -0.38,0.36 -0.12,0.16 -0.18,0.34 -0.19,0.54 -0.01,0.15 0.02,0.29 0.08,0.42 0.06,0.13 0.14,0.23 0.25,0.32 0.25,0.18 0.56,0.21 0.93,0.09 0.5,-0.16 0.99,-0.63 1.48,-1.39 0.44,-0.68 0.73,-1.34 0.85,-1.95 0.13,-0.63 0.13,-1.1 0.02,-1.4 -0.1,-0.26 -0.27,-0.38 -0.53,-0.38z"/>
  <path id="_18_17" class="fil1" d="M37.1 12.11c-0.02,0.01 -0.04,0.03 -0.07,0.05l-0.04 0.03 -0.04 0.03c-0.06,0.04 -0.12,0.07 -0.17,0.09 -0.07,0.02 -0.13,0.02 -0.19,0.01 0.11,-0.02 0.22,-0.07 0.32,-0.15l0.04 -0.03 0.04 -0.03c0.03,-0.02 0.06,-0.04 0.09,-0.05 0.07,-0.03 0.13,-0.04 0.19,-0.02 -0.06,0.01 -0.11,0.04 -0.17,0.07zm-1.92 -2.4c-0.11,0.13 -0.22,0.28 -0.31,0.46 -0.08,0.15 -0.15,0.32 -0.21,0.53 0.03,-0.19 0.09,-0.38 0.17,-0.55 0.08,-0.18 0.18,-0.34 0.31,-0.48 0.13,-0.15 0.28,-0.26 0.45,-0.33 0.09,-0.04 0.18,-0.06 0.26,-0.07 0.1,-0.01 0.19,-0.02 0.27,-0.01 -0.19,0.02 -0.36,0.06 -0.51,0.13 -0.16,0.08 -0.3,0.2 -0.42,0.33zm2.65 2.79c-0.03,-0.37 -0.15,-0.61 -0.37,-0.7 -0.1,-0.04 -0.2,-0.05 -0.31,-0.02 -0.11,0.03 -0.21,0.08 -0.31,0.16 -0.1,0.08 -0.2,0.11 -0.3,0.1 -0.1,-0.01 -0.19,-0.06 -0.27,-0.15 -0.08,-0.09 -0.14,-0.21 -0.18,-0.35 -0.04,-0.16 -0.05,-0.33 -0.02,-0.51 0.04,-0.26 0.15,-0.41 0.35,-0.45 0.14,-0.02 0.35,0.01 0.6,0.12 0.11,0.04 0.22,0.04 0.31,-0.01 0.09,-0.05 0.16,-0.12 0.21,-0.23 0.05,-0.11 0.06,-0.24 0.04,-0.38 -0.02,-0.15 -0.08,-0.29 -0.17,-0.43 -0.2,-0.29 -0.47,-0.5 -0.79,-0.61 -0.3,-0.1 -0.6,-0.11 -0.91,-0.03 -0.39,0.1 -0.72,0.38 -0.98,0.82 -0.28,0.49 -0.42,1.09 -0.42,1.81 0,0.81 0.19,1.45 0.58,1.91 0.18,0.22 0.39,0.38 0.64,0.48 0.25,0.1 0.51,0.14 0.8,0.11 0.48,-0.04 0.87,-0.23 1.16,-0.56 0.28,-0.31 0.4,-0.68 0.36,-1.09z"/>
  <path id="_19_18" class="fil1" d="M40.38 10.09c-0.09,0.12 -0.18,0.23 -0.26,0.31 -0.11,0.11 -0.22,0.18 -0.32,0.22 0.08,-0.06 0.18,-0.15 0.29,-0.26 0.08,-0.09 0.17,-0.2 0.25,-0.31 0.04,-0.06 0.08,-0.11 0.11,-0.16l0.03 -0.04 0.03 -0.04c0.02,-0.04 0.04,-0.06 0.06,-0.09 0.05,-0.06 0.1,-0.1 0.16,-0.13 0.07,-0.03 0.13,-0.05 0.19,-0.04 -0.12,0.01 -0.22,0.08 -0.31,0.21 -0.02,0.02 -0.03,0.05 -0.05,0.08l-0.03 0.04 -0.03 0.04c-0.03,0.05 -0.07,0.11 -0.12,0.17zm-1.31 -0.79c-0.04,0.03 -0.09,0.07 -0.13,0.13 -0.06,0.08 -0.12,0.18 -0.17,0.32 -0.03,0.09 -0.07,0.2 -0.12,0.36l-0.05 0.19 -0.05 0.18c0.01,-0.15 0.03,-0.28 0.05,-0.38 0.03,-0.14 0.07,-0.26 0.11,-0.37 0.06,-0.14 0.12,-0.26 0.19,-0.33 0.04,-0.05 0.09,-0.09 0.15,-0.12 0.06,-0.03 0.12,-0.04 0.18,-0.04 -0.06,0.01 -0.11,0.03 -0.16,0.07zm1.5 2.1c-0.09,-0.05 -0.11,-0.1 -0.06,-0.14 0.02,-0.02 0.05,-0.04 0.11,-0.07l0.04 -0.02 0.04 -0.02c0.04,-0.02 0.07,-0.03 0.09,-0.04 0.17,-0.09 0.3,-0.19 0.4,-0.29 0.15,-0.15 0.26,-0.33 0.32,-0.54 0.06,-0.2 0.05,-0.38 -0.01,-0.56 -0.06,-0.16 -0.16,-0.28 -0.3,-0.36 -0.14,-0.08 -0.29,-0.1 -0.44,-0.05 -0.17,0.05 -0.31,0.17 -0.43,0.37 -0.2,0.33 -0.4,0.56 -0.58,0.69 -0.07,0.05 -0.12,0.06 -0.15,0.04 -0.03,-0.02 -0.02,-0.08 0.02,-0.17 0.16,-0.36 0.21,-0.66 0.15,-0.88 -0.05,-0.19 -0.17,-0.31 -0.35,-0.36 -0.38,-0.1 -0.67,0.11 -0.88,0.61 -0.17,0.4 -0.28,1 -0.32,1.77 -0.05,0.78 -0.02,1.41 0.1,1.88 0.14,0.58 0.38,0.86 0.74,0.85 0.33,-0.01 0.52,-0.27 0.57,-0.78 0.02,-0.17 0.02,-0.37 0,-0.58 -0.01,-0.07 -0.01,-0.15 -0.02,-0.22 -0,-0.03 -0.01,-0.06 -0.01,-0.09l-0 -0.03 -0 -0.01 0 -0.01c-0.01,-0.07 -0,-0.11 0.02,-0.13 0.03,-0.02 0.06,-0.01 0.11,0.03 0.12,0.11 0.24,0.39 0.34,0.83 0.07,0.28 0.17,0.51 0.3,0.7 0.12,0.16 0.26,0.27 0.41,0.33 0.15,0.05 0.29,0.05 0.43,-0.01 0.14,-0.06 0.26,-0.17 0.36,-0.32 0.11,-0.17 0.16,-0.37 0.17,-0.59 0,-0.21 -0.04,-0.43 -0.13,-0.65 -0.2,-0.47 -0.54,-0.85 -1.03,-1.15z"/>
  <path id="_20_19" class="fil1" d="M1.77 11.15c-0.06,0.06 -0.14,0.1 -0.24,0.14 -0.1,0.03 -0.18,0.07 -0.23,0.11 -0.08,0.06 -0.13,0.13 -0.14,0.21 -0.01,-0.05 0,-0.09 0.02,-0.14 0.02,-0.04 0.05,-0.08 0.09,-0.12 0.06,-0.05 0.14,-0.09 0.24,-0.13 0.08,-0.03 0.16,-0.07 0.23,-0.12 0.08,-0.06 0.14,-0.12 0.18,-0.19 -0.02,0.09 -0.07,0.17 -0.15,0.24zm-0.95 1.64c-0.12,-0.01 -0.21,-0.01 -0.28,-0.01 -0.06,0.01 -0.1,0.02 -0.13,0.04 -0.02,0.01 -0.03,0.03 -0.04,0.05l-0.01 0.04 -0.01 0.04c0,-0.03 0,-0.06 0,-0.08 0,-0.03 0.02,-0.06 0.03,-0.08 0.03,-0.03 0.08,-0.05 0.14,-0.07 0.08,-0.01 0.17,-0.02 0.3,-0.01 0.08,0.01 0.17,0.02 0.29,0.04l0.14 0.02 0.15 0.03c-0.08,0.01 -0.18,0.01 -0.29,0l-0.15 -0.01 -0.14 -0.01zm0.23 -3.38c-0.14,0.06 -0.25,0.12 -0.34,0.18 -0.05,0.03 -0.1,0.07 -0.15,0.12 -0.05,0.04 -0.09,0.08 -0.14,0.14 -0.09,0.12 -0.14,0.24 -0.13,0.37 -0.01,-0.07 -0.01,-0.13 0.01,-0.21 0.02,-0.07 0.05,-0.13 0.09,-0.19 0.07,-0.1 0.16,-0.19 0.29,-0.28 0.23,-0.14 0.47,-0.23 0.73,-0.26 -0.12,0.04 -0.24,0.09 -0.36,0.14zm2.1 2.54c-0.06,-0.09 -0.13,-0.16 -0.2,-0.23 -0.05,-0.05 -0.11,-0.09 -0.18,-0.14l-0.04 -0.03 -0.03 -0.02c-0.02,-0.02 -0.04,-0.03 -0.06,-0.04 -0.03,-0.03 -0.05,-0.06 -0.06,-0.09 -0,-0.04 0.02,-0.09 0.08,-0.15 0.02,-0.02 0.05,-0.05 0.09,-0.09l0.03 -0.03 0.03 -0.02 0.06 -0.06c0.1,-0.1 0.17,-0.19 0.23,-0.28 0.08,-0.12 0.12,-0.25 0.14,-0.39 0.05,-0.35 -0.02,-0.65 -0.21,-0.9 -0.2,-0.26 -0.51,-0.43 -0.93,-0.5 -0.21,-0.04 -0.44,-0.03 -0.69,0.01 -0.25,0.05 -0.48,0.12 -0.7,0.24 -0.23,0.12 -0.4,0.26 -0.52,0.43 -0.14,0.19 -0.19,0.38 -0.17,0.59 0.06,0.52 0.46,0.67 1.22,0.46 0.13,-0.03 0.23,-0.05 0.31,-0.04 0.07,0.01 0.11,0.03 0.12,0.07 0.01,0.04 -0,0.08 -0.05,0.13 -0.05,0.05 -0.12,0.09 -0.22,0.12 -0.35,0.12 -0.52,0.33 -0.51,0.62 0.01,0.14 0.05,0.26 0.14,0.36 0.1,0.1 0.23,0.14 0.38,0.14 0.16,-0 0.26,0.05 0.3,0.15 0.02,0.04 0.01,0.09 -0,0.13 -0.02,0.05 -0.05,0.08 -0.1,0.11 -0.08,0.04 -0.2,0.05 -0.39,0.03 -0.03,-0 -0.07,-0.01 -0.12,-0.01l-0.12 -0.01c-0.1,-0.01 -0.19,-0.02 -0.25,-0.03 -0.19,-0.01 -0.34,0.01 -0.44,0.06 -0.13,0.07 -0.2,0.2 -0.22,0.39 -0.02,0.22 0.08,0.43 0.28,0.63 0.19,0.19 0.44,0.34 0.75,0.45 0.32,0.11 0.63,0.16 0.93,0.14 0.34,-0.02 0.61,-0.12 0.82,-0.3 0.3,-0.25 0.46,-0.57 0.49,-0.96 0.03,-0.35 -0.05,-0.66 -0.23,-0.93z"/>
  <g id="_1372957152">
   <path class="fil0" d="M12.54 8.19c-0.03,0.03 -0.05,0.07 -0.07,0.13 -0.01,-0.05 0.01,-0.1 0.05,-0.15 0.02,-0.02 0.04,-0.04 0.07,-0.05 0.03,-0.01 0.05,-0.01 0.08,-0.01 -0.05,0.01 -0.09,0.04 -0.12,0.07zm0.12 -0.2c-0.08,0 -0.15,0.03 -0.21,0.09 -0.06,0.06 -0.1,0.13 -0.11,0.22 -0.01,0.09 0,0.17 0.05,0.24 0.04,0.07 0.1,0.12 0.18,0.14 0.09,0.02 0.17,0.01 0.25,-0.05 0.08,-0.06 0.13,-0.14 0.14,-0.25 0.01,-0.11 -0.01,-0.2 -0.07,-0.28 -0.06,-0.08 -0.14,-0.11 -0.23,-0.11z"/>
   <path id="_1_20" class="fil0" d="M13.93 8.19c-0.03,0.03 -0.05,0.07 -0.07,0.13 -0.01,-0.05 0.01,-0.1 0.05,-0.15 0.02,-0.02 0.04,-0.04 0.07,-0.05 0.03,-0.01 0.05,-0.01 0.08,-0.01 -0.05,0.01 -0.09,0.04 -0.12,0.07zm0.12 -0.2c-0.08,0 -0.15,0.03 -0.21,0.09 -0.06,0.06 -0.1,0.13 -0.11,0.22 -0.01,0.09 0,0.17 0.05,0.24 0.04,0.07 0.1,0.12 0.18,0.14 0.09,0.02 0.17,0.01 0.25,-0.05 0.08,-0.06 0.13,-0.14 0.14,-0.25 0.01,-0.11 -0.01,-0.2 -0.07,-0.28 -0.06,-0.08 -0.14,-0.11 -0.23,-0.11z"/>
   <path class="fil1" d="M12.49 8.03c-0.03,0.03 -0.05,0.07 -0.07,0.13 -0.01,-0.05 0.01,-0.1 0.05,-0.15 0.02,-0.02 0.04,-0.04 0.07,-0.05 0.03,-0.01 0.05,-0.01 0.08,-0.01 -0.05,0.01 -0.09,0.04 -0.12,0.07zm0.12 -0.2c-0.08,0 -0.15,0.03 -0.21,0.09 -0.06,0.06 -0.1,0.13 -0.11,0.22 -0.01,0.09 0,0.17 0.05,0.24 0.04,0.07 0.1,0.12 0.18,0.14 0.09,0.02 0.17,0.01 0.25,-0.05 0.08,-0.06 0.13,-0.14 0.14,-0.25 0.01,-0.11 -0.01,-0.2 -0.07,-0.28 -0.06,-0.08 -0.14,-0.11 -0.23,-0.11z"/>
   <path id="_1_21" class="fil1" d="M13.89 8.03c-0.03,0.03 -0.05,0.07 -0.07,0.13 -0.01,-0.05 0.01,-0.1 0.05,-0.15 0.02,-0.02 0.04,-0.04 0.07,-0.05 0.03,-0.01 0.05,-0.01 0.08,-0.01 -0.05,0.01 -0.09,0.04 -0.12,0.07zm0.12 -0.2c-0.08,0 -0.15,0.03 -0.21,0.09 -0.06,0.06 -0.1,0.13 -0.11,0.22 -0.01,0.09 0,0.17 0.05,0.24 0.04,0.07 0.1,0.12 0.18,0.14 0.09,0.02 0.17,0.01 0.25,-0.05 0.08,-0.06 0.13,-0.14 0.14,-0.25 0.01,-0.11 -0.01,-0.2 -0.07,-0.28 -0.06,-0.08 -0.14,-0.11 -0.23,-0.11z"/>
  </g>
  <g id="_1372956480">
   <path class="fil0" d="M23.88 0.35c-0.03,0.03 -0.05,0.07 -0.07,0.13 -0.01,-0.05 0.01,-0.1 0.05,-0.15 0.02,-0.02 0.04,-0.04 0.07,-0.05 0.03,-0.01 0.05,-0.01 0.08,-0.01 -0.05,0.01 -0.09,0.04 -0.12,0.07zm0.12 -0.2c-0.08,0 -0.15,0.03 -0.21,0.09 -0.06,0.06 -0.1,0.13 -0.11,0.22 -0.01,0.09 0,0.17 0.05,0.24 0.04,0.07 0.1,0.12 0.18,0.14 0.09,0.02 0.17,0.01 0.25,-0.05 0.08,-0.06 0.13,-0.14 0.14,-0.25 0.01,-0.11 -0.01,-0.2 -0.07,-0.28 -0.06,-0.08 -0.14,-0.11 -0.23,-0.11z"/>
   <path id="_1_22" class="fil0" d="M25.28 0.35c-0.03,0.03 -0.05,0.07 -0.07,0.13 -0.01,-0.05 0.01,-0.1 0.05,-0.15 0.02,-0.02 0.04,-0.04 0.07,-0.05 0.03,-0.01 0.05,-0.01 0.08,-0.01 -0.05,0.01 -0.09,0.04 -0.12,0.07zm0.12 -0.2c-0.08,0 -0.15,0.03 -0.21,0.09 -0.06,0.06 -0.1,0.13 -0.11,0.22 -0.01,0.09 0,0.17 0.05,0.24 0.04,0.07 0.1,0.12 0.18,0.14 0.09,0.02 0.17,0.01 0.25,-0.05 0.08,-0.06 0.13,-0.14 0.14,-0.25 0.01,-0.11 -0.01,-0.2 -0.07,-0.28 -0.06,-0.08 -0.14,-0.11 -0.23,-0.11z"/>
   <path class="fil1" d="M23.83 0.2c-0.03,0.03 -0.05,0.07 -0.07,0.13 -0.01,-0.05 0.01,-0.1 0.05,-0.15 0.02,-0.02 0.04,-0.04 0.07,-0.05 0.03,-0.01 0.05,-0.01 0.08,-0.01 -0.05,0.01 -0.09,0.04 -0.12,0.07zm0.12 -0.2c-0.08,0 -0.15,0.03 -0.21,0.09 -0.06,0.06 -0.1,0.13 -0.11,0.22 -0.01,0.09 0,0.17 0.05,0.24 0.04,0.07 0.1,0.12 0.18,0.14 0.09,0.02 0.17,0.01 0.25,-0.05 0.08,-0.06 0.13,-0.14 0.14,-0.25 0.01,-0.11 -0.01,-0.2 -0.07,-0.28 -0.06,-0.08 -0.14,-0.11 -0.23,-0.11z"/>
   <path id="_1_23" class="fil1" d="M25.23 0.2c-0.03,0.03 -0.05,0.07 -0.07,0.13 -0.01,-0.05 0.01,-0.1 0.05,-0.15 0.02,-0.02 0.04,-0.04 0.07,-0.05 0.03,-0.01 0.05,-0.01 0.08,-0.01 -0.05,0.01 -0.09,0.04 -0.12,0.07zm0.12 -0.2c-0.08,0 -0.15,0.03 -0.21,0.09 -0.06,0.06 -0.1,0.13 -0.11,0.22 -0.01,0.09 0,0.17 0.05,0.24 0.04,0.07 0.1,0.12 0.18,0.14 0.09,0.02 0.17,0.01 0.25,-0.05 0.08,-0.06 0.13,-0.14 0.14,-0.25 0.01,-0.11 -0.01,-0.2 -0.07,-0.28 -0.06,-0.08 -0.14,-0.11 -0.23,-0.11z"/>
  </g>
 </g>
</svg>
