<?xml version="1.0" encoding="UTF-8"?>
<!DOCTYPE svg PUBLIC "-//W3C//DTD SVG 1.1//EN" "http://www.w3.org/Graphics/SVG/1.1/DTD/svg11.dtd">
<!-- Creator: CorelDRAW 2019 (64-Bit) -->
<svg xmlns="http://www.w3.org/2000/svg" xml:space="preserve" width="2.82265cm" height="0.92811cm" version="1.1" style="shape-rendering:geometricPrecision; text-rendering:geometricPrecision; image-rendering:optimizeQuality; fill-rule:evenodd; clip-rule:evenodd"
viewBox="0 0 5.054 1.662"
 xmlns:xlink="http://www.w3.org/1999/xlink"
 xmlns:xodm="http://www.corel.com/coreldraw/odm/2003">
 <defs>
  <style type="text/css">
   <![CDATA[
    .fil0 {fill:#999974;fill-rule:nonzero}
    .fil1 {fill:white;fill-rule:nonzero}
   ]]>
  </style>
 </defs>
 <g id="Слой_x0020_1">
  <metadata id="CorelCorpID_0Corel-Layer"/>
  <path class="fil0" d="M0.346 0.625c-0.003,0 -0.007,0 -0.013,0.001l-0.007 0.001 -0.007 0c0.007,-0.006 0.016,-0.01 0.026,-0.01 0.005,0 0.01,0.001 0.014,0.002 0.005,0.002 0.008,0.005 0.011,0.009 -0.009,-0.003 -0.017,-0.004 -0.025,-0.004zm-0.217 -0.134c-0.006,0.006 -0.011,0.012 -0.016,0.018 -0.012,0.014 -0.021,0.028 -0.027,0.04 -0.008,0.014 -0.015,0.029 -0.019,0.045 -0.004,0.016 -0.006,0.032 -0.005,0.05l-0.002 -0.013 -0 -0.006 0 -0.007 0 -0.006 0 -0.007 0.001 -0.006 0.001 -0.007c0.003,-0.016 0.009,-0.032 0.018,-0.048 0.008,-0.015 0.018,-0.028 0.03,-0.04 0.006,-0.006 0.012,-0.012 0.018,-0.017l0.009 -0.007c0.004,-0.003 0.007,-0.005 0.01,-0.007l-0.009 0.009 -0.008 0.009zm0.038 -0.264c-0.007,0.003 -0.014,0.007 -0.021,0.011 -0.014,0.008 -0.027,0.017 -0.038,0.027 -0.012,0.01 -0.023,0.022 -0.033,0.035 -0.005,0.007 -0.009,0.014 -0.013,0.021 -0.004,0.008 -0.007,0.016 -0.008,0.024 -0.001,-0.014 0.005,-0.03 0.016,-0.048 0.009,-0.014 0.02,-0.026 0.033,-0.038 0.014,-0.011 0.027,-0.02 0.041,-0.026 0.008,-0.004 0.015,-0.007 0.022,-0.009 0.008,-0.003 0.016,-0.005 0.023,-0.005l-0.011 0.004c-0.004,0.002 -0.008,0.003 -0.011,0.005zm0.142 0.37c-0.021,0.009 -0.041,0.013 -0.059,0.011 -0.015,-0.001 -0.024,-0.005 -0.027,-0.011 -0.001,-0.003 -0.002,-0.006 -0.002,-0.009 -0,-0.005 0.001,-0.01 0.003,-0.015 0.006,-0.014 0.021,-0.028 0.044,-0.043 0.03,-0.02 0.055,-0.045 0.076,-0.076 0.02,-0.03 0.032,-0.061 0.038,-0.093 0.006,-0.033 0.004,-0.064 -0.007,-0.091 -0.012,-0.029 -0.032,-0.052 -0.061,-0.068 -0.035,-0.019 -0.072,-0.025 -0.111,-0.019 -0.034,0.005 -0.067,0.018 -0.098,0.041 -0.029,0.021 -0.051,0.045 -0.065,0.072 -0.014,0.028 -0.018,0.052 -0.01,0.073 0.008,0.02 0.023,0.032 0.044,0.036 0.022,0.004 0.049,-0.003 0.081,-0.018 0.018,-0.009 0.03,-0.014 0.037,-0.016 0.007,-0.001 0.012,-0 0.016,0.004 0.008,0.008 -0.002,0.021 -0.028,0.038 -0.05,0.031 -0.087,0.066 -0.112,0.104 -0.031,0.048 -0.041,0.099 -0.03,0.152 0.008,0.038 0.033,0.066 0.074,0.084 0.033,0.014 0.075,0.022 0.126,0.022 0.051,0 0.093,-0.007 0.125,-0.022 0.033,-0.016 0.052,-0.037 0.058,-0.065 0.003,-0.014 0.002,-0.028 -0.002,-0.041 -0.004,-0.014 -0.011,-0.026 -0.021,-0.036 -0.01,-0.01 -0.023,-0.017 -0.036,-0.02 -0.016,-0.003 -0.033,-0 -0.051,0.007z"/>
  <path id="1" class="fil0" d="M0.704 0.576c-0.004,0.009 -0.01,0.017 -0.016,0.022 -0.007,0.006 -0.015,0.01 -0.024,0.011 0.015,-0.008 0.026,-0.02 0.033,-0.037 0.006,-0.013 0.01,-0.03 0.013,-0.051 0.004,0.019 0.002,0.037 -0.006,0.055zm-0.048 0.002c-0.009,0.003 -0.019,0 -0.027,-0.009 -0.009,-0.009 -0.015,-0.022 -0.018,-0.037 -0.003,-0.016 -0.002,-0.031 0.002,-0.044 0.005,-0.013 0.012,-0.022 0.021,-0.025 0.009,-0.003 0.018,0 0.027,0.009 0.009,0.009 0.015,0.021 0.018,0.037 0.003,0.016 0.002,0.031 -0.002,0.044 -0.005,0.014 -0.011,0.022 -0.021,0.025zm-0.118 -0.298c-0.011,0.017 -0.021,0.038 -0.029,0.063 -0.007,0.02 -0.012,0.044 -0.016,0.069 0,-0.009 0.001,-0.021 0.003,-0.036 0.002,-0.012 0.005,-0.024 0.008,-0.035 0.007,-0.025 0.016,-0.047 0.029,-0.066 0.014,-0.022 0.031,-0.038 0.05,-0.048 0.01,-0.005 0.021,-0.009 0.032,-0.012 0.012,-0.002 0.023,-0.003 0.033,-0.002 -0.025,0.002 -0.045,0.008 -0.063,0.019 -0.018,0.011 -0.034,0.027 -0.047,0.048zm0.151 -0.094c-0.07,-0.014 -0.126,0.005 -0.168,0.057 -0.037,0.047 -0.057,0.111 -0.061,0.191 -0.003,0.078 0.01,0.149 0.039,0.213 0.032,0.069 0.075,0.11 0.131,0.123 0.052,0.012 0.098,-0.009 0.138,-0.062 0.037,-0.049 0.062,-0.112 0.073,-0.19 0.011,-0.08 0.005,-0.15 -0.018,-0.211 -0.027,-0.068 -0.071,-0.109 -0.134,-0.122z"/>
  <path id="2" class="fil0" d="M1.206 0.625c-0.003,0 -0.007,0 -0.013,0.001l-0.007 0.001 -0.007 0c0.007,-0.006 0.016,-0.01 0.026,-0.01 0.005,0 0.01,0.001 0.014,0.002 0.005,0.002 0.008,0.005 0.011,0.009 -0.009,-0.003 -0.017,-0.004 -0.025,-0.004zm-0.217 -0.134c-0.006,0.006 -0.011,0.012 -0.016,0.018 -0.012,0.014 -0.021,0.028 -0.027,0.04 -0.008,0.014 -0.015,0.029 -0.019,0.045 -0.004,0.016 -0.006,0.032 -0.005,0.05l-0.002 -0.013 -0 -0.006 0 -0.007 0 -0.006 0 -0.007 0.001 -0.006 0.001 -0.007c0.003,-0.016 0.009,-0.032 0.018,-0.048 0.008,-0.015 0.018,-0.028 0.03,-0.04 0.006,-0.006 0.012,-0.012 0.018,-0.017l0.009 -0.007c0.004,-0.003 0.007,-0.005 0.01,-0.007l-0.009 0.009 -0.008 0.009zm0.038 -0.264c-0.007,0.003 -0.014,0.007 -0.021,0.011 -0.014,0.008 -0.027,0.017 -0.038,0.027 -0.012,0.01 -0.023,0.022 -0.033,0.035 -0.005,0.007 -0.009,0.014 -0.013,0.021 -0.004,0.008 -0.007,0.016 -0.008,0.024 -0.001,-0.014 0.005,-0.03 0.016,-0.048 0.009,-0.014 0.02,-0.026 0.033,-0.038 0.014,-0.011 0.027,-0.02 0.041,-0.026 0.008,-0.004 0.015,-0.007 0.022,-0.009 0.008,-0.003 0.016,-0.005 0.023,-0.005l-0.011 0.004c-0.004,0.002 -0.008,0.003 -0.011,0.005zm0.142 0.37c-0.021,0.009 -0.041,0.013 -0.059,0.011 -0.015,-0.001 -0.024,-0.005 -0.027,-0.011 -0.001,-0.003 -0.002,-0.006 -0.002,-0.009 -0,-0.005 0.001,-0.01 0.003,-0.015 0.006,-0.014 0.021,-0.028 0.044,-0.043 0.03,-0.02 0.055,-0.045 0.076,-0.076 0.02,-0.03 0.032,-0.061 0.038,-0.093 0.006,-0.033 0.004,-0.064 -0.007,-0.091 -0.012,-0.029 -0.032,-0.052 -0.061,-0.068 -0.035,-0.019 -0.072,-0.025 -0.111,-0.019 -0.034,0.005 -0.067,0.018 -0.098,0.041 -0.029,0.021 -0.051,0.045 -0.065,0.072 -0.014,0.028 -0.018,0.052 -0.01,0.073 0.008,0.02 0.023,0.032 0.044,0.036 0.022,0.004 0.049,-0.003 0.081,-0.018 0.018,-0.009 0.03,-0.014 0.037,-0.016 0.007,-0.001 0.012,-0 0.016,0.004 0.008,0.008 -0.002,0.021 -0.028,0.038 -0.05,0.031 -0.087,0.066 -0.112,0.104 -0.031,0.048 -0.041,0.099 -0.03,0.152 0.008,0.038 0.033,0.066 0.074,0.084 0.033,0.014 0.075,0.022 0.126,0.022 0.051,0 0.093,-0.007 0.125,-0.022 0.033,-0.016 0.052,-0.037 0.058,-0.065 0.003,-0.014 0.002,-0.028 -0.002,-0.041 -0.004,-0.014 -0.011,-0.026 -0.021,-0.036 -0.01,-0.01 -0.023,-0.017 -0.036,-0.02 -0.016,-0.003 -0.033,-0 -0.051,0.007z"/>
  <path id="3" class="fil0" d="M1.422 0.223c-0.007,0.003 -0.013,0.006 -0.018,0.009 -0.006,0.003 -0.011,0.007 -0.016,0.012 -0.011,0.009 -0.02,0.019 -0.026,0.031 -0.007,0.014 -0.011,0.028 -0.012,0.041 -0.002,-0.014 0,-0.029 0.006,-0.044 0.006,-0.013 0.015,-0.025 0.027,-0.035 0.012,-0.01 0.024,-0.017 0.037,-0.021 0.014,-0.005 0.028,-0.006 0.041,-0.003 -0.013,0.001 -0.026,0.004 -0.039,0.009zm0.142 0.048c-0.012,-0.033 -0.028,-0.057 -0.05,-0.072 -0.019,-0.013 -0.04,-0.019 -0.064,-0.018 -0.022,0.001 -0.043,0.008 -0.063,0.02 -0.02,0.012 -0.035,0.026 -0.045,0.043 -0.009,0.014 -0.015,0.029 -0.018,0.045 -0.003,0.015 -0.003,0.029 -0,0.042 0.003,0.013 0.009,0.023 0.017,0.03 0.009,0.007 0.02,0.01 0.033,0.008 0.016,-0.002 0.027,0.01 0.033,0.036 0.002,0.01 0.004,0.022 0.005,0.036 0.001,0.005 0.001,0.011 0.002,0.017l0 0.008 0 0.007c0.002,0.04 0.002,0.082 -0.002,0.124 -0.001,0.014 -0.002,0.03 -0.005,0.048l-0.001 0.011 -0.001 0.01c-0.001,0.008 -0.001,0.014 -0.002,0.019 -0.002,0.026 -0.002,0.045 0.001,0.056 0.004,0.014 0.013,0.023 0.027,0.028 0.028,0.009 0.053,-0.005 0.077,-0.043 0.021,-0.033 0.039,-0.08 0.052,-0.14 0.013,-0.057 0.019,-0.115 0.021,-0.174 0.001,-0.061 -0.005,-0.108 -0.017,-0.143z"/>
  <path id="4" class="fil0" d="M1.858 0.445c-0.006,0.001 -0.012,0.003 -0.018,0.006l-0.004 0.002 -0.004 0.002c-0.004,0.002 -0.007,0.003 -0.009,0.003 -0.006,0.002 -0.013,0.003 -0.019,0.002l0.009 -0.003c0.004,-0.001 0.007,-0.003 0.009,-0.004l0.004 -0.002 0.004 -0.002c0.003,-0.002 0.006,-0.004 0.009,-0.005 0.007,-0.003 0.013,-0.005 0.019,-0.005 0.008,-0 0.014,0.001 0.019,0.005 -0.006,-0.001 -0.012,-0.001 -0.019,0zm-0.175 0.012c-0.006,0 -0.011,0.001 -0.015,0.001 -0.006,0 -0.011,0.001 -0.015,0.002 -0.003,0.001 -0.005,0.002 -0.006,0.004 -0.001,0.001 -0.002,0.004 -0.004,0.007 -0,-0.004 0,-0.007 0.001,-0.009 0.002,-0.003 0.004,-0.005 0.007,-0.007 0.004,-0.002 0.009,-0.004 0.016,-0.005 0.006,-0.001 0.012,-0 0.016,0 0.006,0.001 0.011,0.002 0.016,0.003 -0.005,0.001 -0.01,0.002 -0.016,0.002zm0.137 -0.031c-0.011,0.006 -0.028,0.009 -0.051,0.007 -0.008,-0.001 -0.018,-0.002 -0.032,-0.003l-0.016 -0.002c-0.006,-0.001 -0.011,-0.001 -0.016,-0.002 -0.025,-0.002 -0.044,-0.001 -0.057,0.004 -0.017,0.006 -0.027,0.018 -0.029,0.036 -0.003,0.023 0.007,0.044 0.03,0.062 0.021,0.016 0.049,0.027 0.084,0.033 0.034,0.006 0.067,0.006 0.098,-0 0.034,-0.007 0.058,-0.019 0.073,-0.038 0.011,-0.013 0.017,-0.028 0.017,-0.045 0.001,-0.016 -0.004,-0.03 -0.012,-0.042 -0.009,-0.012 -0.021,-0.02 -0.036,-0.022 -0.016,-0.003 -0.034,0.001 -0.053,0.011z"/>
  <path id="5" class="fil0" d="M2.097 0.219c-0.018,0.003 -0.032,0.006 -0.043,0.01 -0.017,0.005 -0.03,0.011 -0.04,0.018 -0.007,0.005 -0.013,0.01 -0.016,0.015 -0.004,0.006 -0.006,0.013 -0.006,0.022 -0.002,-0.008 -0.001,-0.017 0.003,-0.024 0.003,-0.006 0.009,-0.013 0.016,-0.019 0.01,-0.008 0.024,-0.015 0.041,-0.021 0.028,-0.008 0.058,-0.011 0.09,-0.007 -0.016,0.002 -0.031,0.004 -0.045,0.006zm0.072 -0.037c-0.062,-0.004 -0.112,0.004 -0.151,0.022 -0.041,0.019 -0.06,0.047 -0.057,0.083 0.002,0.02 0.009,0.035 0.024,0.044 0.01,0.007 0.025,0.011 0.046,0.014l0.013 0.001 0.012 0.001c0.01,0.001 0.017,0.002 0.023,0.003 0.016,0.004 0.025,0.01 0.029,0.021 0.002,0.006 -0,0.042 -0.007,0.108 -0.004,0.033 -0.006,0.062 -0.007,0.085 -0.002,0.033 -0.001,0.062 0.001,0.087 0.003,0.037 0.015,0.068 0.036,0.091 0.021,0.025 0.047,0.035 0.077,0.031 0.055,-0.008 0.074,-0.067 0.06,-0.177 -0.008,-0.058 -0.012,-0.107 -0.012,-0.149 -0.001,-0.044 0.003,-0.069 0.011,-0.077 0.006,-0.005 0.015,-0.007 0.03,-0.008 0.004,0 0.011,0 0.02,0l0.01 0 0.01 -0c0.016,-0 0.029,-0.003 0.039,-0.008 0.012,-0.006 0.021,-0.017 0.025,-0.032 0.005,-0.019 0.002,-0.036 -0.008,-0.053 -0.01,-0.016 -0.026,-0.03 -0.048,-0.043 -0.045,-0.026 -0.103,-0.041 -0.174,-0.045z"/>
  <path id="6" class="fil0" d="M2.737 0.248c-0.007,0.008 -0.014,0.018 -0.021,0.03 -0.012,0.02 -0.022,0.043 -0.031,0.066l-0.006 0.017 -0.006 0.018c-0.005,0.016 -0.009,0.027 -0.012,0.035 -0.006,0.015 -0.012,0.026 -0.018,0.033 -0.004,0.005 -0.009,0.009 -0.014,0.011 -0.005,0.002 -0.011,0.003 -0.018,0.002 0.007,-0 0.012,-0.002 0.017,-0.004 0.005,-0.003 0.009,-0.006 0.013,-0.012 0.005,-0.007 0.01,-0.018 0.015,-0.033l0.005 -0.018 0.006 -0.018c0.004,-0.014 0.008,-0.026 0.012,-0.036 0.009,-0.026 0.02,-0.048 0.033,-0.067 0.017,-0.025 0.034,-0.042 0.051,-0.051 -0.009,0.007 -0.018,0.015 -0.025,0.025zm-0.252 0.096c-0.003,0.017 -0.007,0.037 -0.009,0.06l-0.003 0.031 -0.004 0.03c-0.002,-0.06 0.004,-0.114 0.019,-0.161 0.003,-0.009 0.006,-0.018 0.009,-0.025 0.004,-0.01 0.009,-0.018 0.013,-0.025 0.012,-0.018 0.027,-0.027 0.043,-0.026 -0.019,0.002 -0.035,0.017 -0.048,0.045 -0.005,0.01 -0.009,0.023 -0.012,0.037 -0.002,0.005 -0.003,0.011 -0.004,0.018l-0.002 0.008 -0.001 0.004 -0.001 0.004zm0.349 -0.148c-0.031,-0.02 -0.062,-0.019 -0.094,0.005 -0.026,0.019 -0.05,0.05 -0.07,0.093 -0.006,0.014 -0.013,0.03 -0.019,0.048 -0.002,0.007 -0.005,0.014 -0.008,0.023l-0.003 0.011 -0.002 0.005 -0.002 0.005c-0.005,0.015 -0.009,0.026 -0.011,0.031 -0.004,0.008 -0.007,0.012 -0.011,0.012 -0.007,-0.001 -0.01,-0.006 -0.01,-0.017 -0.001,-0.009 0.001,-0.031 0.006,-0.064 0.008,-0.061 0.005,-0.103 -0.011,-0.128 -0.012,-0.02 -0.032,-0.027 -0.059,-0.024 -0.032,0.005 -0.058,0.038 -0.077,0.1 -0.018,0.06 -0.026,0.133 -0.024,0.219 0.005,0.158 0.048,0.244 0.129,0.256 0.024,0.003 0.048,-0.003 0.071,-0.018 0.022,-0.015 0.041,-0.035 0.057,-0.061 0.014,-0.023 0.025,-0.044 0.035,-0.064 0.003,-0.007 0.007,-0.015 0.01,-0.022 0.002,-0.005 0.005,-0.01 0.007,-0.016 0.004,-0.01 0.007,-0.016 0.008,-0.018 0.002,-0.003 0.004,-0.004 0.008,-0.003 0.003,0.001 0.004,0.013 0.001,0.034l-0.001 0.008 -0.001 0.008c-0.001,0.007 -0.001,0.013 -0.002,0.017 -0.001,0.014 -0.002,0.027 -0.003,0.038 -0.001,0.067 0.021,0.101 0.066,0.101 0.029,-0 0.052,-0.027 0.068,-0.081 0.014,-0.048 0.022,-0.109 0.022,-0.183 0,-0.072 -0.007,-0.137 -0.021,-0.195 -0.015,-0.063 -0.035,-0.103 -0.06,-0.119z"/>
  <path id="7" class="fil0" d="M3.371 0.548c-0.005,0.005 -0.011,0.007 -0.016,0.009 -0.006,0.002 -0.012,0.002 -0.018,0 0.011,-0.003 0.022,-0.008 0.031,-0.016 0.007,-0.006 0.015,-0.015 0.023,-0.027 -0.002,0.013 -0.008,0.024 -0.019,0.033zm-0.041 -0.024c-0.006,-0.003 -0.01,-0.008 -0.011,-0.016 -0.002,-0.008 -0.002,-0.016 0.001,-0.024 0.003,-0.008 0.008,-0.015 0.014,-0.019 0.006,-0.004 0.012,-0.005 0.018,-0.002 0.006,0.002 0.01,0.007 0.012,0.015 0.002,0.008 0.001,0.016 -0.002,0.024 -0.003,0.008 -0.008,0.015 -0.014,0.019 -0.006,0.004 -0.012,0.005 -0.018,0.002zm-0.061 -0.223c-0.01,0.014 -0.021,0.033 -0.035,0.057 -0.005,0.009 -0.01,0.018 -0.016,0.03l-0.016 0.03c0.007,-0.02 0.016,-0.041 0.027,-0.063 0.01,-0.02 0.021,-0.04 0.034,-0.059 0.015,-0.022 0.029,-0.04 0.042,-0.053l0.006 -0.006c0.002,-0.002 0.004,-0.004 0.006,-0.005l0.006 -0.005 0.007 -0.005c0.012,-0.007 0.022,-0.01 0.031,-0.009 -0.009,0.001 -0.018,0.005 -0.029,0.013l-0.006 0.005 -0.006 0.006c-0.002,0.001 -0.004,0.003 -0.006,0.005l-0.006 0.006c-0.013,0.015 -0.026,0.032 -0.04,0.053zm0.101 -0.12c-0.033,-0.006 -0.07,0.019 -0.111,0.074 -0.037,0.05 -0.07,0.113 -0.1,0.19 -0.029,0.077 -0.046,0.145 -0.051,0.204 -0.005,0.065 0.006,0.104 0.035,0.116 0.022,0.009 0.042,0.009 0.063,-0.001 0.015,-0.007 0.031,-0.02 0.048,-0.04 0.003,-0.004 0.007,-0.008 0.011,-0.013l0.01 -0.012c0.008,-0.011 0.014,-0.018 0.018,-0.023 0.013,-0.015 0.025,-0.023 0.034,-0.023 0.009,0 0.021,0.007 0.035,0.022 0.004,0.005 0.011,0.012 0.019,0.022l0.01 0.012 0.01 0.012c0.017,0.018 0.033,0.031 0.047,0.038 0.019,0.009 0.037,0.008 0.056,-0.001 0.022,-0.011 0.034,-0.046 0.037,-0.106 0.003,-0.056 -0.003,-0.119 -0.017,-0.19 -0.015,-0.074 -0.035,-0.136 -0.06,-0.187 -0.029,-0.057 -0.06,-0.088 -0.093,-0.094z"/>
  <path id="8" class="fil0" d="M3.834 0.427c-0.003,0.008 -0.007,0.015 -0.013,0.021 -0.006,0.007 -0.012,0.011 -0.019,0.015 -0.008,0.003 -0.015,0.004 -0.023,0.002 0.008,-0.002 0.014,-0.004 0.021,-0.008 0.006,-0.004 0.012,-0.009 0.016,-0.014 0.01,-0.011 0.017,-0.024 0.022,-0.041 0.001,0.008 -0,0.016 -0.003,0.024zm-0.069 -0.035c0.004,-0.008 0.009,-0.014 0.016,-0.018 0.007,-0.004 0.012,-0.004 0.018,-0.001 0.005,0.003 0.009,0.008 0.01,0.016 0.001,0.008 -0,0.016 -0.004,0.024 -0.004,0.008 -0.009,0.014 -0.015,0.018 -0.007,0.004 -0.013,0.004 -0.018,0.001 -0.005,-0.003 -0.009,-0.008 -0.01,-0.016 -0.001,-0.008 0,-0.016 0.004,-0.024zm-0.058 -0.163c-0.017,0.009 -0.032,0.02 -0.045,0.035 -0.012,0.013 -0.022,0.03 -0.031,0.05 -0.007,0.016 -0.013,0.035 -0.019,0.057 0.001,-0.008 0.002,-0.019 0.005,-0.03 0.002,-0.01 0.006,-0.02 0.009,-0.03 0.007,-0.02 0.018,-0.038 0.03,-0.053 0.014,-0.016 0.03,-0.028 0.048,-0.035 0.009,-0.004 0.018,-0.007 0.028,-0.009 0.01,-0.002 0.02,-0.003 0.028,-0.003 -0.021,0.003 -0.039,0.009 -0.054,0.017zm0.071 -0.049c-0.051,-0.001 -0.093,0.015 -0.126,0.046 -0.03,0.028 -0.051,0.066 -0.063,0.116 -0.011,0.046 -0.014,0.095 -0.008,0.15 0.005,0.053 0.018,0.102 0.037,0.147 0.019,0.043 0.04,0.077 0.063,0.101 0.02,0.021 0.041,0.032 0.061,0.034 0.018,0.002 0.034,-0.004 0.048,-0.018 0.013,-0.014 0.021,-0.032 0.024,-0.056 0.002,-0.016 0.002,-0.034 -0.001,-0.055 -0.001,-0.006 -0.002,-0.014 -0.004,-0.024l-0.002 -0.012c-0.001,-0.004 -0.001,-0.008 -0.002,-0.011 -0.002,-0.016 -0.002,-0.029 0.001,-0.038 0.003,-0.011 0.011,-0.02 0.024,-0.026 0.041,-0.021 0.072,-0.052 0.093,-0.092 0.02,-0.037 0.027,-0.077 0.022,-0.117 -0.005,-0.041 -0.021,-0.075 -0.048,-0.101 -0.03,-0.029 -0.069,-0.043 -0.118,-0.044z"/>
  <path id="9" class="fil0" d="M4.238 0.594c-0.005,0.008 -0.011,0.013 -0.018,0.017 -0.008,0.004 -0.015,0.005 -0.023,0.003 0.016,-0.003 0.028,-0.011 0.035,-0.024 0.004,-0.005 0.006,-0.013 0.008,-0.021 0.001,-0.007 0.002,-0.015 0.002,-0.024 0.003,0.008 0.004,0.016 0.004,0.025 -0.001,0.009 -0.003,0.017 -0.008,0.024zm-0.067 -0.032c-0.004,-0.008 -0.005,-0.016 -0.004,-0.024 0.001,-0.008 0.004,-0.014 0.009,-0.017 0.006,-0.003 0.012,-0.002 0.018,0.001 0.007,0.004 0.012,0.009 0.016,0.017 0.004,0.008 0.005,0.016 0.004,0.024 -0.001,0.008 -0.004,0.013 -0.01,0.016 -0.005,0.003 -0.011,0.003 -0.017,-0.001 -0.007,-0.004 -0.012,-0.009 -0.016,-0.018zm-0.035 -0.343c-0.005,0.003 -0.01,0.006 -0.016,0.011 -0.009,0.008 -0.018,0.018 -0.026,0.029 -0.007,0.008 -0.014,0.02 -0.022,0.034 -0.003,0.005 -0.007,0.011 -0.011,0.018l-0.01 0.018c0.005,-0.016 0.01,-0.028 0.016,-0.039 0.006,-0.013 0.014,-0.025 0.022,-0.036 0.009,-0.012 0.019,-0.022 0.029,-0.029 0.013,-0.01 0.025,-0.014 0.037,-0.013 -0.006,0.001 -0.012,0.003 -0.018,0.007zm0.099 0.2c-0.013,-0.004 -0.021,-0.012 -0.025,-0.023 -0.003,-0.009 -0.003,-0.021 -0,-0.038 0.001,-0.003 0.001,-0.007 0.002,-0.012l0.002 -0.012c0.002,-0.011 0.003,-0.019 0.005,-0.026 0.003,-0.021 0.004,-0.04 0.002,-0.056 -0.003,-0.023 -0.011,-0.042 -0.024,-0.055 -0.014,-0.014 -0.03,-0.02 -0.048,-0.018 -0.02,0.002 -0.041,0.013 -0.061,0.034 -0.023,0.023 -0.044,0.056 -0.063,0.1 -0.019,0.045 -0.032,0.094 -0.037,0.146 -0.006,0.054 -0.003,0.104 0.008,0.15 0.012,0.05 0.033,0.088 0.063,0.116 0.033,0.031 0.075,0.046 0.126,0.045 0.048,-0.001 0.089,-0.016 0.12,-0.048 0.029,-0.028 0.047,-0.064 0.053,-0.107 0.006,-0.043 -0.001,-0.082 -0.021,-0.118 -0.022,-0.039 -0.056,-0.066 -0.101,-0.081zm0.159 -0.191c-0.004,0.004 -0.007,0.009 -0.009,0.016 -0.002,0.006 -0.003,0.012 -0.003,0.019 -0.001,0.01 0.001,0.024 0.003,0.041l0.004 0.02 0.004 0.021c-0.006,-0.015 -0.01,-0.028 -0.013,-0.04 -0.004,-0.016 -0.005,-0.03 -0.005,-0.043 0.001,-0.008 0.002,-0.016 0.004,-0.022 0.003,-0.008 0.007,-0.014 0.012,-0.018 0.01,-0.008 0.023,-0.012 0.038,-0.01 -0.014,0.002 -0.025,0.007 -0.034,0.015zm0.133 0.023c-0.011,-0.022 -0.025,-0.039 -0.042,-0.051 -0.015,-0.011 -0.032,-0.017 -0.05,-0.019 -0.017,-0.001 -0.032,0.002 -0.047,0.009 -0.014,0.007 -0.025,0.018 -0.031,0.032 -0.012,0.026 -0.012,0.064 0.001,0.114 0.002,0.008 0.005,0.018 0.008,0.031l0.005 0.016 0.005 0.016c0.007,0.025 0.011,0.046 0.013,0.063 0.004,0.04 0.006,0.081 0.005,0.124 -0,0.013 -0.001,0.03 -0.002,0.048l-0 0.011 -0 0.01c-0.001,0.008 -0.001,0.014 -0.001,0.019 -0.001,0.026 0.001,0.044 0.004,0.055 0.005,0.014 0.014,0.022 0.028,0.026 0.028,0.007 0.052,-0.009 0.075,-0.048 0.02,-0.034 0.035,-0.082 0.045,-0.143 0.01,-0.059 0.014,-0.117 0.011,-0.174 -0.003,-0.06 -0.012,-0.107 -0.028,-0.139z"/>
  <path id="10" class="fil0" d="M4.927 0.223c-0.004,0.002 -0.007,0.005 -0.01,0.009 -0.004,0.006 -0.008,0.015 -0.01,0.027 -0.003,0.016 -0.004,0.035 -0.003,0.059l0 0.007 0 0.007c0,0.006 0,0.011 -0,0.016 -0.001,0.011 -0.004,0.021 -0.007,0.03 -0.004,0.01 -0.009,0.018 -0.016,0.025 -0.007,0.007 -0.015,0.012 -0.024,0.015 0.017,-0.009 0.029,-0.023 0.036,-0.043 0.003,-0.009 0.005,-0.019 0.005,-0.029 0,-0.004 0,-0.009 0,-0.014l-0 -0.007 0 -0.008c-0,-0.025 0.001,-0.045 0.005,-0.06 0.003,-0.012 0.008,-0.022 0.013,-0.028 0.004,-0.004 0.008,-0.007 0.012,-0.008 0.004,-0.001 0.008,-0.002 0.014,-0.002 -0.006,0.001 -0.01,0.002 -0.013,0.004zm-0.256 0.01c-0.009,0.01 -0.016,0.023 -0.021,0.038 -0.004,0.012 -0.008,0.027 -0.012,0.044l-0.005 0.022 -0.005 0.022c0.001,-0.031 0.006,-0.061 0.015,-0.091 0.005,-0.017 0.013,-0.03 0.023,-0.04 0.006,-0.006 0.012,-0.01 0.019,-0.013 0.007,-0.003 0.014,-0.004 0.021,-0.003 -0.013,0.001 -0.025,0.008 -0.035,0.02zm0.268 -0.046c-0.026,0.002 -0.044,0.014 -0.055,0.038 -0.011,0.023 -0.015,0.058 -0.013,0.106 0.001,0.021 -0.004,0.037 -0.013,0.047 -0.008,0.009 -0.018,0.013 -0.03,0.012 -0.012,-0.001 -0.022,-0.007 -0.028,-0.017 -0.006,-0.011 -0.009,-0.025 -0.007,-0.042 0.005,-0.049 0,-0.085 -0.013,-0.11 -0.012,-0.022 -0.032,-0.035 -0.061,-0.04 -0.023,-0.004 -0.043,0.002 -0.062,0.017 -0.018,0.015 -0.031,0.035 -0.039,0.062 -0.016,0.052 -0.024,0.113 -0.025,0.183 -0.001,0.068 0.006,0.132 0.019,0.194 0.01,0.045 0.026,0.078 0.048,0.098 0.018,0.016 0.038,0.023 0.06,0.02 0.049,-0.008 0.071,-0.046 0.066,-0.116 -0.004,-0.051 0.006,-0.077 0.03,-0.077 0.011,0 0.02,0.005 0.027,0.014 0.008,0.012 0.012,0.032 0.011,0.059 -0.002,0.046 0.004,0.08 0.02,0.104 0.014,0.022 0.035,0.033 0.061,0.033 0.045,0 0.076,-0.03 0.094,-0.091 0.013,-0.044 0.021,-0.117 0.024,-0.219 0.002,-0.079 -0.007,-0.144 -0.027,-0.197 -0.021,-0.055 -0.05,-0.081 -0.086,-0.079z"/>
  <path id="11" class="fil0" d="M0.346 1.507c-0.003,0 -0.007,0 -0.013,0.001l-0.007 0.001 -0.007 0c0.007,-0.006 0.016,-0.01 0.026,-0.01 0.005,0 0.01,0.001 0.014,0.002 0.005,0.002 0.008,0.005 0.011,0.009 -0.009,-0.003 -0.017,-0.004 -0.025,-0.004zm-0.217 -0.134c-0.006,0.006 -0.011,0.012 -0.016,0.018 -0.012,0.014 -0.021,0.028 -0.027,0.04 -0.008,0.014 -0.015,0.029 -0.019,0.045 -0.004,0.016 -0.006,0.032 -0.005,0.05l-0.002 -0.013 -0 -0.006 0 -0.007 0 -0.006 0 -0.007 0.001 -0.006 0.001 -0.007c0.003,-0.016 0.009,-0.032 0.018,-0.048 0.008,-0.015 0.018,-0.028 0.03,-0.04 0.006,-0.006 0.012,-0.012 0.018,-0.017l0.009 -0.007c0.004,-0.003 0.007,-0.005 0.01,-0.007l-0.009 0.009 -0.008 0.009zm0.038 -0.264c-0.007,0.003 -0.014,0.007 -0.021,0.011 -0.014,0.008 -0.027,0.017 -0.038,0.027 -0.012,0.01 -0.023,0.022 -0.033,0.035 -0.005,0.007 -0.009,0.014 -0.013,0.021 -0.004,0.008 -0.007,0.016 -0.008,0.024 -0.001,-0.014 0.005,-0.03 0.016,-0.048 0.009,-0.014 0.02,-0.026 0.033,-0.038 0.014,-0.011 0.027,-0.02 0.041,-0.026 0.008,-0.004 0.015,-0.007 0.022,-0.009 0.008,-0.003 0.016,-0.005 0.023,-0.005l-0.011 0.004c-0.004,0.002 -0.008,0.003 -0.011,0.005zm0.142 0.37c-0.021,0.009 -0.041,0.013 -0.059,0.011 -0.015,-0.001 -0.024,-0.005 -0.027,-0.011 -0.001,-0.003 -0.002,-0.006 -0.002,-0.009 -0,-0.005 0.001,-0.01 0.003,-0.015 0.006,-0.014 0.021,-0.028 0.044,-0.043 0.03,-0.02 0.055,-0.045 0.076,-0.076 0.02,-0.03 0.032,-0.061 0.038,-0.093 0.006,-0.033 0.004,-0.064 -0.007,-0.091 -0.012,-0.029 -0.032,-0.052 -0.061,-0.068 -0.035,-0.019 -0.072,-0.025 -0.111,-0.019 -0.034,0.005 -0.067,0.018 -0.098,0.041 -0.029,0.021 -0.051,0.045 -0.065,0.072 -0.014,0.028 -0.018,0.052 -0.01,0.073 0.008,0.02 0.023,0.032 0.044,0.036 0.022,0.004 0.049,-0.003 0.081,-0.018 0.018,-0.009 0.03,-0.014 0.037,-0.016 0.007,-0.001 0.012,-0 0.016,0.004 0.008,0.008 -0.002,0.021 -0.028,0.038 -0.05,0.031 -0.087,0.066 -0.112,0.104 -0.031,0.048 -0.041,0.099 -0.03,0.152 0.008,0.038 0.033,0.066 0.074,0.084 0.033,0.014 0.075,0.022 0.126,0.022 0.051,0 0.093,-0.007 0.125,-0.022 0.033,-0.016 0.052,-0.037 0.058,-0.065 0.003,-0.014 0.002,-0.028 -0.002,-0.041 -0.004,-0.014 -0.011,-0.026 -0.021,-0.036 -0.01,-0.01 -0.023,-0.017 -0.036,-0.02 -0.016,-0.003 -0.033,-0 -0.051,0.007z"/>
  <path id="12" class="fil0" d="M0.701 1.328c-0.006,0.001 -0.012,0.003 -0.018,0.006l-0.004 0.002 -0.004 0.002c-0.004,0.002 -0.007,0.003 -0.009,0.003 -0.006,0.002 -0.013,0.003 -0.019,0.002l0.009 -0.003c0.004,-0.001 0.006,-0.003 0.009,-0.004l0.004 -0.002 0.004 -0.002c0.003,-0.002 0.006,-0.004 0.009,-0.005 0.007,-0.003 0.013,-0.005 0.019,-0.005 0.008,-0 0.014,0.001 0.019,0.005 -0.006,-0.001 -0.012,-0.001 -0.019,0zm-0.175 0.012c-0.006,0 -0.011,0.001 -0.015,0.001 -0.006,0 -0.011,0.001 -0.015,0.002 -0.003,0.001 -0.005,0.002 -0.006,0.004 -0.001,0.001 -0.002,0.004 -0.004,0.007 -0,-0.004 0,-0.007 0.001,-0.009 0.002,-0.003 0.004,-0.005 0.007,-0.007 0.004,-0.002 0.009,-0.004 0.016,-0.005 0.006,-0.001 0.012,-0 0.016,0 0.006,0.001 0.011,0.002 0.016,0.003 -0.005,0.001 -0.01,0.002 -0.016,0.002zm0.137 -0.031c-0.011,0.006 -0.028,0.009 -0.051,0.007 -0.008,-0.001 -0.018,-0.002 -0.032,-0.003l-0.016 -0.002c-0.006,-0.001 -0.011,-0.001 -0.016,-0.002 -0.025,-0.002 -0.044,-0.001 -0.057,0.004 -0.017,0.006 -0.026,0.018 -0.029,0.036 -0.003,0.023 0.007,0.044 0.03,0.062 0.021,0.016 0.049,0.027 0.084,0.033 0.034,0.006 0.067,0.006 0.098,-0 0.034,-0.007 0.058,-0.019 0.073,-0.038 0.011,-0.013 0.017,-0.028 0.017,-0.045 0.001,-0.016 -0.004,-0.03 -0.012,-0.042 -0.009,-0.012 -0.021,-0.02 -0.036,-0.022 -0.016,-0.003 -0.034,0.001 -0.053,0.011z"/>
  <path id="13" class="fil0" d="M0.939 1.102c-0.018,0.003 -0.032,0.006 -0.043,0.01 -0.017,0.005 -0.03,0.011 -0.04,0.018 -0.007,0.005 -0.013,0.01 -0.016,0.015 -0.004,0.006 -0.006,0.013 -0.006,0.022 -0.002,-0.008 -0.001,-0.017 0.003,-0.024 0.003,-0.006 0.009,-0.013 0.016,-0.019 0.01,-0.008 0.024,-0.015 0.041,-0.021 0.028,-0.008 0.058,-0.011 0.09,-0.007 -0.016,0.002 -0.031,0.004 -0.045,0.006zm0.072 -0.037c-0.062,-0.004 -0.112,0.004 -0.151,0.022 -0.041,0.019 -0.059,0.047 -0.057,0.083 0.002,0.02 0.009,0.035 0.024,0.044 0.01,0.007 0.025,0.011 0.046,0.014l0.013 0.001 0.012 0.001c0.01,0.001 0.017,0.002 0.023,0.003 0.016,0.004 0.025,0.01 0.029,0.021 0.002,0.006 -0,0.042 -0.007,0.108 -0.004,0.033 -0.006,0.062 -0.007,0.085 -0.002,0.033 -0.001,0.062 0.001,0.087 0.003,0.037 0.015,0.068 0.036,0.091 0.021,0.025 0.047,0.035 0.077,0.031 0.055,-0.008 0.074,-0.067 0.06,-0.177 -0.008,-0.058 -0.012,-0.107 -0.012,-0.149 -0.001,-0.044 0.003,-0.069 0.011,-0.077 0.006,-0.005 0.015,-0.007 0.03,-0.008 0.004,0 0.011,0 0.02,0l0.01 0 0.01 -0c0.016,-0 0.029,-0.003 0.039,-0.008 0.012,-0.006 0.021,-0.017 0.025,-0.032 0.005,-0.019 0.002,-0.036 -0.008,-0.053 -0.01,-0.016 -0.026,-0.03 -0.048,-0.043 -0.045,-0.026 -0.103,-0.041 -0.174,-0.045z"/>
  <path id="14" class="fil0" d="M1.58 1.131c-0.007,0.008 -0.014,0.018 -0.021,0.03 -0.012,0.02 -0.022,0.043 -0.031,0.066l-0.006 0.017 -0.006 0.018c-0.005,0.016 -0.009,0.027 -0.012,0.035 -0.006,0.015 -0.012,0.026 -0.018,0.033 -0.004,0.005 -0.009,0.009 -0.014,0.011 -0.005,0.002 -0.011,0.003 -0.018,0.002 0.007,-0 0.012,-0.002 0.017,-0.004 0.005,-0.003 0.009,-0.006 0.013,-0.012 0.005,-0.007 0.01,-0.018 0.015,-0.033l0.005 -0.018 0.006 -0.018c0.004,-0.014 0.008,-0.026 0.012,-0.036 0.009,-0.026 0.02,-0.048 0.033,-0.067 0.017,-0.025 0.034,-0.042 0.051,-0.051 -0.009,0.007 -0.018,0.015 -0.025,0.025zm-0.252 0.096c-0.004,0.017 -0.007,0.037 -0.009,0.06l-0.003 0.031 -0.004 0.03c-0.002,-0.06 0.004,-0.114 0.019,-0.161 0.003,-0.009 0.006,-0.018 0.009,-0.025 0.004,-0.01 0.009,-0.018 0.013,-0.025 0.012,-0.018 0.027,-0.027 0.043,-0.026 -0.019,0.002 -0.035,0.017 -0.048,0.045 -0.005,0.01 -0.009,0.023 -0.012,0.037 -0.002,0.005 -0.003,0.011 -0.004,0.018l-0.002 0.008 -0.001 0.004 -0.001 0.004zm0.349 -0.148c-0.031,-0.02 -0.062,-0.019 -0.094,0.005 -0.026,0.019 -0.05,0.05 -0.07,0.093 -0.006,0.014 -0.013,0.03 -0.019,0.048 -0.002,0.007 -0.005,0.014 -0.008,0.023l-0.003 0.011 -0.002 0.005 -0.002 0.005c-0.005,0.015 -0.009,0.026 -0.011,0.031 -0.004,0.008 -0.007,0.012 -0.011,0.012 -0.007,-0.001 -0.01,-0.006 -0.01,-0.017 -0.001,-0.009 0.001,-0.031 0.006,-0.064 0.008,-0.061 0.005,-0.103 -0.011,-0.128 -0.012,-0.02 -0.032,-0.027 -0.059,-0.024 -0.032,0.005 -0.058,0.038 -0.077,0.1 -0.018,0.06 -0.026,0.133 -0.024,0.219 0.005,0.158 0.048,0.244 0.129,0.256 0.024,0.003 0.048,-0.003 0.071,-0.018 0.022,-0.015 0.041,-0.035 0.057,-0.061 0.014,-0.023 0.025,-0.044 0.035,-0.064 0.003,-0.007 0.007,-0.015 0.01,-0.022 0.002,-0.005 0.005,-0.01 0.007,-0.016 0.004,-0.01 0.007,-0.016 0.008,-0.018 0.002,-0.003 0.004,-0.004 0.008,-0.003 0.003,0.001 0.004,0.013 0.001,0.034l-0.001 0.008 -0.001 0.008c-0.001,0.007 -0.001,0.013 -0.002,0.017 -0.001,0.014 -0.002,0.027 -0.003,0.038 -0.001,0.067 0.021,0.101 0.066,0.101 0.029,-0 0.052,-0.027 0.068,-0.081 0.014,-0.048 0.022,-0.109 0.022,-0.183 0,-0.072 -0.007,-0.137 -0.021,-0.195 -0.015,-0.063 -0.035,-0.103 -0.06,-0.119z"/>
  <path id="15" class="fil0" d="M2.222 1.467c-0.004,0.009 -0.011,0.016 -0.019,0.021 -0.008,0.005 -0.017,0.007 -0.025,0.005 0.009,-0.002 0.016,-0.005 0.022,-0.01 0.007,-0.005 0.012,-0.012 0.015,-0.019 0.006,-0.014 0.008,-0.032 0.004,-0.052 0.005,0.008 0.007,0.017 0.008,0.027 0.001,0.01 -0.001,0.019 -0.005,0.029zm-0.07 -0.025c-0.004,-0.008 -0.006,-0.016 -0.005,-0.024 0.001,-0.008 0.004,-0.014 0.009,-0.017 0.005,-0.003 0.011,-0.003 0.018,0 0.007,0.003 0.012,0.009 0.017,0.017 0.004,0.008 0.006,0.016 0.005,0.024 -0.001,0.008 -0.004,0.014 -0.009,0.017 -0.005,0.003 -0.011,0.003 -0.018,0 -0.007,-0.003 -0.012,-0.009 -0.017,-0.017zm-0.033 -0.172c0.006,-0.002 0.012,-0.004 0.017,-0.007 0.005,-0.004 0.01,-0.007 0.014,-0.012 0.004,-0.004 0.008,-0.009 0.011,-0.015 0.003,-0.005 0.005,-0.011 0.008,-0.018 0.001,0.014 -0.003,0.027 -0.013,0.039 -0.005,0.005 -0.011,0.009 -0.017,0.012 -0.007,0.003 -0.013,0.003 -0.019,0.002zm-0.008 -0.06c0.003,-0.005 0.006,-0.009 0.011,-0.012 0.004,-0.002 0.008,-0.002 0.012,0 0.003,0.002 0.005,0.006 0.006,0.011 0.001,0.005 -0.001,0.01 -0.004,0.016 -0.003,0.006 -0.006,0.009 -0.011,0.012 -0.004,0.002 -0.008,0.002 -0.012,0 -0.003,-0.002 -0.005,-0.006 -0.006,-0.011 -0.001,-0.005 0.001,-0.01 0.003,-0.016zm-0.065 -0.074c-0.006,0.007 -0.012,0.015 -0.019,0.025 -0.01,0.016 -0.018,0.035 -0.027,0.057 -0.006,0.018 -0.012,0.039 -0.018,0.063 0.002,-0.021 0.006,-0.043 0.012,-0.065 0.006,-0.022 0.015,-0.042 0.026,-0.06 0.013,-0.021 0.027,-0.036 0.044,-0.046 0.01,-0.006 0.02,-0.011 0.029,-0.013 0.011,-0.003 0.021,-0.004 0.03,-0.003 -0.021,0.002 -0.039,0.009 -0.056,0.021 -0.008,0.006 -0.016,0.013 -0.022,0.021zm0.164 0.158c-0.004,-0.002 -0.005,-0.006 -0.003,-0.014 0.001,-0.003 0.003,-0.007 0.006,-0.012l0.002 -0.003 0.002 -0.004c0.001,-0.003 0.003,-0.006 0.004,-0.009 0.007,-0.015 0.012,-0.029 0.014,-0.043 0.004,-0.02 0.004,-0.04 0.001,-0.061 -0.004,-0.023 -0.016,-0.043 -0.036,-0.059 -0.021,-0.017 -0.045,-0.025 -0.072,-0.026 -0.03,-0.001 -0.057,0.008 -0.083,0.027 -0.029,0.022 -0.052,0.056 -0.068,0.101 -0.017,0.047 -0.027,0.097 -0.028,0.152 -0.002,0.056 0.005,0.107 0.021,0.154 0.017,0.051 0.042,0.09 0.074,0.118 0.037,0.03 0.081,0.044 0.132,0.04 0.049,-0.004 0.088,-0.021 0.117,-0.052 0.027,-0.028 0.041,-0.063 0.044,-0.105 0.003,-0.041 -0.007,-0.08 -0.028,-0.117 -0.023,-0.04 -0.056,-0.068 -0.099,-0.087z"/>
  <path id="16" class="fil0" d="M2.63 1.477c-0.005,0.008 -0.011,0.013 -0.018,0.017 -0.008,0.004 -0.015,0.005 -0.023,0.003 0.016,-0.003 0.028,-0.011 0.035,-0.024 0.004,-0.005 0.006,-0.013 0.008,-0.021 0.001,-0.007 0.002,-0.015 0.002,-0.024 0.003,0.008 0.004,0.016 0.004,0.025 -0.001,0.009 -0.003,0.017 -0.008,0.024zm-0.067 -0.032c-0.004,-0.008 -0.005,-0.016 -0.004,-0.024 0.001,-0.008 0.004,-0.014 0.009,-0.017 0.006,-0.003 0.012,-0.002 0.018,0.001 0.007,0.004 0.012,0.009 0.016,0.017 0.004,0.008 0.005,0.016 0.004,0.024 -0.001,0.008 -0.004,0.013 -0.01,0.016 -0.005,0.003 -0.011,0.003 -0.017,-0.001 -0.007,-0.004 -0.012,-0.009 -0.016,-0.018zm-0.035 -0.343c-0.005,0.003 -0.01,0.006 -0.016,0.011 -0.009,0.008 -0.018,0.018 -0.026,0.029 -0.007,0.008 -0.014,0.02 -0.022,0.034 -0.003,0.005 -0.007,0.011 -0.011,0.018l-0.01 0.018c0.005,-0.016 0.01,-0.028 0.016,-0.039 0.006,-0.013 0.014,-0.025 0.022,-0.036 0.009,-0.012 0.019,-0.022 0.029,-0.029 0.013,-0.01 0.025,-0.014 0.037,-0.013 -0.006,0.001 -0.012,0.003 -0.018,0.007zm0.099 0.2c-0.013,-0.004 -0.021,-0.012 -0.025,-0.023 -0.003,-0.009 -0.003,-0.021 -0,-0.038 0.001,-0.003 0.001,-0.007 0.002,-0.012l0.002 -0.012c0.002,-0.011 0.004,-0.019 0.005,-0.026 0.003,-0.021 0.004,-0.04 0.002,-0.056 -0.003,-0.023 -0.011,-0.042 -0.024,-0.055 -0.014,-0.014 -0.03,-0.02 -0.048,-0.018 -0.02,0.002 -0.041,0.013 -0.061,0.034 -0.023,0.023 -0.044,0.056 -0.063,0.1 -0.019,0.045 -0.032,0.094 -0.037,0.146 -0.006,0.054 -0.003,0.104 0.008,0.15 0.012,0.05 0.033,0.088 0.063,0.116 0.033,0.031 0.075,0.046 0.126,0.045 0.048,-0.001 0.089,-0.016 0.12,-0.048 0.029,-0.028 0.047,-0.064 0.053,-0.107 0.006,-0.043 -0.001,-0.082 -0.021,-0.118 -0.022,-0.039 -0.056,-0.066 -0.101,-0.081zm0.159 -0.191c-0.004,0.004 -0.007,0.009 -0.009,0.016 -0.002,0.006 -0.003,0.012 -0.003,0.019 -0.001,0.01 0.001,0.024 0.003,0.041l0.004 0.02 0.004 0.021c-0.006,-0.015 -0.01,-0.028 -0.013,-0.04 -0.004,-0.016 -0.005,-0.03 -0.005,-0.043 0.001,-0.008 0.002,-0.016 0.004,-0.022 0.003,-0.008 0.007,-0.014 0.012,-0.018 0.01,-0.008 0.023,-0.012 0.038,-0.01 -0.014,0.002 -0.025,0.007 -0.034,0.015zm0.133 0.023c-0.011,-0.022 -0.025,-0.039 -0.042,-0.051 -0.015,-0.011 -0.032,-0.017 -0.05,-0.019 -0.017,-0.001 -0.032,0.002 -0.047,0.009 -0.014,0.007 -0.025,0.018 -0.031,0.032 -0.012,0.026 -0.012,0.064 0.001,0.114 0.002,0.008 0.005,0.018 0.008,0.031l0.005 0.016 0.005 0.016c0.007,0.025 0.011,0.046 0.013,0.063 0.004,0.04 0.006,0.081 0.005,0.124 -0,0.013 -0.001,0.03 -0.002,0.048l-0 0.011 -0 0.01c-0.001,0.008 -0.001,0.014 -0.001,0.019 -0.001,0.026 0.001,0.044 0.004,0.055 0.005,0.014 0.014,0.022 0.028,0.026 0.028,0.007 0.052,-0.009 0.075,-0.048 0.02,-0.034 0.035,-0.082 0.045,-0.143 0.01,-0.059 0.014,-0.117 0.011,-0.174 -0.003,-0.06 -0.012,-0.107 -0.028,-0.139z"/>
  <path id="17" class="fil0" d="M3.124 1.115c-0.002,0.001 -0.005,0.003 -0.008,0.004l-0.008 0.004 -0.008 0.005c-0.003,0.002 -0.005,0.004 -0.007,0.005 -0.008,0.006 -0.017,0.014 -0.027,0.023 -0.01,0.011 -0.018,0.021 -0.022,0.028 -0.012,0.019 -0.021,0.042 -0.024,0.069 -0.001,0.005 -0.002,0.012 -0.002,0.019l-0.001 0.019c-0.001,0.006 -0.001,0.012 -0.001,0.019l-0 0.019c-0.003,-0.027 -0.003,-0.053 -0.001,-0.077 0.002,-0.027 0.011,-0.051 0.024,-0.072l0.005 -0.008 0.006 -0.007c0.001,-0.002 0.003,-0.004 0.006,-0.007l0.003 -0.003 0.003 -0.004c0.011,-0.011 0.021,-0.018 0.029,-0.023 0.019,-0.013 0.042,-0.022 0.066,-0.026l-0.008 0.003 -0.008 0.003c-0.006,0.002 -0.011,0.005 -0.016,0.007zm0.268 0.077c-0.021,-0.05 -0.054,-0.086 -0.099,-0.108 -0.041,-0.02 -0.084,-0.026 -0.131,-0.017 -0.046,0.008 -0.085,0.029 -0.117,0.061 -0.035,0.035 -0.054,0.077 -0.058,0.127 -0.008,0.093 0.005,0.185 0.04,0.275 0.015,0.04 0.033,0.072 0.052,0.094 0.021,0.024 0.041,0.034 0.061,0.031 0.028,-0.004 0.045,-0.022 0.051,-0.054 0.007,-0.036 0.002,-0.099 -0.013,-0.187 -0.012,-0.07 -0.005,-0.107 0.022,-0.111 0.015,-0.002 0.027,0.01 0.035,0.037 0.008,0.025 0.011,0.056 0.01,0.094 -0.003,0.084 0.006,0.143 0.025,0.176 0.015,0.025 0.036,0.037 0.064,0.035 0.024,-0.001 0.044,-0.018 0.061,-0.05 0.015,-0.03 0.026,-0.068 0.032,-0.116 0.006,-0.048 0.006,-0.097 0,-0.146 -0.006,-0.053 -0.018,-0.1 -0.035,-0.14z"/>
  <path id="18" class="fil0" d="M3.82 1.107c-0.005,0.005 -0.01,0.011 -0.015,0.019 -0.008,0.011 -0.016,0.025 -0.026,0.043l-0.006 0.011 -0.006 0.011c-0.005,0.009 -0.009,0.016 -0.013,0.021 -0.006,0.009 -0.011,0.015 -0.016,0.02 -0.007,0.007 -0.014,0.011 -0.021,0.012 0.007,-0.003 0.013,-0.008 0.019,-0.015 0.004,-0.005 0.009,-0.012 0.014,-0.02 0.003,-0.005 0.007,-0.013 0.012,-0.022l0.012 -0.022c0.01,-0.018 0.019,-0.033 0.027,-0.043 0.006,-0.007 0.012,-0.014 0.018,-0.018 0.008,-0.006 0.016,-0.009 0.022,-0.009 -0.007,0.001 -0.013,0.005 -0.02,0.012zm-0.245 0.372c-0.006,0.005 -0.011,0.009 -0.015,0.012 -0.012,0.009 -0.021,0.018 -0.027,0.027 -0.004,0.006 -0.007,0.011 -0.009,0.017 -0.002,0.005 -0.004,0.012 -0.005,0.02 -0,-0.007 0,-0.014 0.002,-0.021 0.002,-0.007 0.005,-0.013 0.008,-0.019 0.006,-0.01 0.015,-0.02 0.027,-0.03 0.008,-0.007 0.019,-0.014 0.032,-0.023l0.008 -0.005 0.008 -0.005c0.006,-0.004 0.012,-0.008 0.016,-0.011 -0.007,0.008 -0.017,0.018 -0.029,0.027l-0.015 0.012zm-0.064 -0.336c-0.004,0.005 -0.007,0.012 -0.008,0.02 -0.002,0.007 -0.003,0.014 -0.003,0.023 -0.003,-0.007 -0.004,-0.015 -0.003,-0.024 0.001,-0.008 0.004,-0.016 0.008,-0.024 0.005,-0.007 0.011,-0.012 0.018,-0.016 0.007,-0.004 0.015,-0.005 0.022,-0.003 -0.015,0.003 -0.027,0.011 -0.035,0.024zm0.329 -0.08c-0.015,0 -0.031,0.008 -0.046,0.024 -0.011,0.012 -0.024,0.029 -0.037,0.052l-0.008 0.014 -0.004 0.007 -0.003 0.007c-0.006,0.011 -0.011,0.019 -0.014,0.024 -0.01,0.016 -0.017,0.024 -0.023,0.024 -0.006,0 -0.018,-0.011 -0.036,-0.033l-0.003 -0.004 -0.004 -0.004c-0.002,-0.003 -0.005,-0.006 -0.007,-0.008 -0.005,-0.006 -0.01,-0.012 -0.015,-0.017 -0.012,-0.013 -0.025,-0.025 -0.036,-0.036 -0.019,-0.017 -0.039,-0.025 -0.059,-0.025 -0.019,0 -0.035,0.007 -0.049,0.02 -0.014,0.014 -0.022,0.031 -0.025,0.051 -0.003,0.022 0.001,0.043 0.012,0.065 0.008,0.016 0.02,0.032 0.036,0.049 0.006,0.007 0.013,0.014 0.021,0.022l0.011 0.01 0.011 0.01c0.018,0.017 0.03,0.029 0.036,0.037 0.01,0.013 0.016,0.024 0.017,0.034 0.001,0.01 -0.005,0.021 -0.018,0.033 -0.005,0.004 -0.011,0.009 -0.02,0.015l-0.005 0.004 -0.006 0.004 -0.012 0.008c-0.019,0.014 -0.034,0.028 -0.044,0.041 -0.014,0.018 -0.021,0.039 -0.022,0.062 -0.001,0.017 0.002,0.034 0.009,0.048 0.007,0.015 0.016,0.027 0.029,0.036 0.028,0.02 0.064,0.024 0.106,0.01 0.056,-0.019 0.113,-0.071 0.169,-0.158 0.05,-0.078 0.083,-0.152 0.097,-0.223 0.014,-0.072 0.015,-0.126 0.002,-0.16 -0.011,-0.029 -0.031,-0.044 -0.06,-0.043z"/>
  <path id="19" class="fil0" d="M4.268 1.424c-0.002,0.001 -0.005,0.003 -0.008,0.006l-0.004 0.003 -0.004 0.003c-0.007,0.005 -0.014,0.008 -0.02,0.01 -0.008,0.002 -0.015,0.002 -0.021,0.001 0.013,-0.003 0.025,-0.008 0.037,-0.017l0.004 -0.003 0.004 -0.003c0.004,-0.003 0.007,-0.004 0.01,-0.006 0.008,-0.004 0.015,-0.005 0.021,-0.003 -0.006,0.001 -0.013,0.004 -0.019,0.008zm-0.22 -0.274c-0.013,0.015 -0.025,0.032 -0.035,0.052 -0.009,0.017 -0.017,0.037 -0.024,0.06 0.004,-0.022 0.01,-0.043 0.019,-0.063 0.009,-0.02 0.021,-0.038 0.035,-0.055 0.015,-0.017 0.032,-0.03 0.051,-0.038 0.01,-0.004 0.02,-0.007 0.03,-0.008 0.011,-0.002 0.021,-0.002 0.031,-0.001 -0.022,0.002 -0.042,0.007 -0.058,0.015 -0.018,0.01 -0.034,0.022 -0.048,0.038zm0.302 0.318c-0.004,-0.043 -0.018,-0.069 -0.043,-0.08 -0.011,-0.005 -0.022,-0.005 -0.035,-0.003 -0.012,0.003 -0.024,0.009 -0.035,0.019 -0.011,0.009 -0.022,0.013 -0.034,0.012 -0.011,-0.001 -0.021,-0.007 -0.031,-0.017 -0.009,-0.01 -0.016,-0.024 -0.021,-0.04 -0.005,-0.018 -0.005,-0.037 -0.003,-0.058 0.004,-0.03 0.017,-0.047 0.04,-0.051 0.016,-0.003 0.039,0.002 0.069,0.013 0.013,0.005 0.025,0.005 0.036,-0.001 0.01,-0.005 0.018,-0.014 0.024,-0.026 0.005,-0.013 0.007,-0.027 0.005,-0.043 -0.002,-0.017 -0.009,-0.033 -0.019,-0.049 -0.023,-0.034 -0.053,-0.057 -0.091,-0.069 -0.034,-0.012 -0.069,-0.013 -0.104,-0.003 -0.045,0.012 -0.082,0.043 -0.112,0.094 -0.032,0.055 -0.048,0.124 -0.048,0.206 0,0.093 0.022,0.165 0.066,0.218 0.021,0.025 0.045,0.043 0.073,0.055 0.028,0.012 0.058,0.016 0.091,0.013 0.055,-0.005 0.099,-0.026 0.132,-0.064 0.031,-0.036 0.045,-0.077 0.041,-0.124z"/>
  <path id="20" class="fil0" d="M4.643 1.193c-0.01,0.014 -0.02,0.026 -0.03,0.035 -0.013,0.012 -0.025,0.021 -0.037,0.026 0.01,-0.007 0.021,-0.017 0.033,-0.03 0.01,-0.011 0.019,-0.023 0.029,-0.035 0.005,-0.006 0.009,-0.013 0.013,-0.019l0.004 -0.005 0.003 -0.005c0.002,-0.004 0.005,-0.007 0.007,-0.01 0.005,-0.006 0.011,-0.011 0.018,-0.015 0.008,-0.004 0.015,-0.005 0.022,-0.005 -0.013,0.001 -0.025,0.009 -0.035,0.024 -0.002,0.002 -0.004,0.005 -0.006,0.01l-0.003 0.005 -0.003 0.005c-0.004,0.006 -0.008,0.012 -0.013,0.019zm-0.15 -0.091c-0.005,0.004 -0.01,0.008 -0.014,0.015 -0.007,0.009 -0.013,0.021 -0.019,0.037 -0.004,0.01 -0.008,0.023 -0.014,0.041l-0.006 0.021 -0.006 0.021c0.001,-0.017 0.003,-0.032 0.006,-0.044 0.003,-0.016 0.008,-0.03 0.013,-0.042 0.007,-0.017 0.014,-0.029 0.022,-0.038 0.005,-0.006 0.011,-0.01 0.017,-0.014 0.007,-0.003 0.014,-0.005 0.02,-0.004 -0.007,0.001 -0.013,0.004 -0.018,0.007zm0.171 0.24c-0.01,-0.006 -0.013,-0.012 -0.007,-0.017 0.002,-0.002 0.006,-0.005 0.012,-0.008l0.004 -0.002 0.005 -0.003c0.004,-0.002 0.008,-0.004 0.01,-0.005 0.019,-0.01 0.034,-0.021 0.046,-0.033 0.017,-0.017 0.03,-0.038 0.037,-0.062 0.007,-0.022 0.006,-0.043 -0.001,-0.064 -0.007,-0.018 -0.018,-0.032 -0.034,-0.041 -0.016,-0.009 -0.033,-0.011 -0.05,-0.006 -0.019,0.006 -0.036,0.02 -0.049,0.042 -0.023,0.038 -0.045,0.064 -0.066,0.078 -0.008,0.006 -0.014,0.007 -0.017,0.005 -0.003,-0.003 -0.002,-0.009 0.002,-0.019 0.018,-0.041 0.024,-0.075 0.017,-0.101 -0.006,-0.021 -0.019,-0.035 -0.04,-0.041 -0.043,-0.011 -0.077,0.012 -0.1,0.07 -0.019,0.046 -0.031,0.114 -0.037,0.202 -0.006,0.089 -0.002,0.161 0.011,0.215 0.016,0.066 0.044,0.098 0.085,0.096 0.037,-0.001 0.059,-0.031 0.065,-0.089 0.002,-0.019 0.002,-0.042 0,-0.066 -0.001,-0.008 -0.002,-0.017 -0.003,-0.026 -0,-0.003 -0.001,-0.007 -0.001,-0.01l-0 -0.004 -0 -0.002 0 -0.001c-0.001,-0.007 -0,-0.013 0.003,-0.015 0.003,-0.003 0.007,-0.002 0.013,0.003 0.014,0.013 0.027,0.044 0.039,0.095 0.008,0.032 0.019,0.059 0.034,0.079 0.014,0.019 0.03,0.031 0.047,0.038 0.017,0.006 0.033,0.006 0.049,-0.001 0.016,-0.007 0.03,-0.019 0.041,-0.037 0.012,-0.02 0.019,-0.042 0.019,-0.067 0.001,-0.024 -0.004,-0.049 -0.015,-0.074 -0.023,-0.054 -0.062,-0.097 -0.118,-0.131z"/>
  <path class="fil1" d="M0.325 0.582c-0.003,0 -0.007,0 -0.013,0.001l-0.007 0.001 -0.007 0c0.007,-0.006 0.016,-0.01 0.026,-0.01 0.005,0 0.01,0.001 0.014,0.002 0.005,0.002 0.008,0.005 0.011,0.009 -0.009,-0.003 -0.017,-0.004 -0.025,-0.004zm-0.217 -0.134c-0.006,0.006 -0.011,0.012 -0.016,0.018 -0.012,0.014 -0.021,0.028 -0.027,0.04 -0.008,0.014 -0.015,0.029 -0.019,0.045 -0.004,0.016 -0.006,0.032 -0.005,0.05l-0.002 -0.013 -0 -0.006 0 -0.007 0 -0.006 0 -0.007 0.001 -0.006 0.001 -0.007c0.003,-0.016 0.009,-0.032 0.018,-0.048 0.008,-0.015 0.018,-0.028 0.03,-0.04 0.006,-0.006 0.012,-0.012 0.018,-0.017l0.009 -0.007c0.004,-0.003 0.007,-0.005 0.01,-0.007l-0.009 0.009 -0.008 0.009zm0.038 -0.264c-0.007,0.003 -0.014,0.007 -0.021,0.011 -0.014,0.008 -0.027,0.017 -0.038,0.027 -0.012,0.01 -0.023,0.022 -0.033,0.035 -0.005,0.007 -0.009,0.014 -0.013,0.021 -0.004,0.008 -0.007,0.016 -0.008,0.024 -0.001,-0.014 0.005,-0.03 0.016,-0.048 0.009,-0.014 0.02,-0.026 0.033,-0.038 0.014,-0.011 0.027,-0.02 0.041,-0.026 0.008,-0.004 0.015,-0.007 0.022,-0.009 0.008,-0.003 0.016,-0.005 0.023,-0.005l-0.011 0.004c-0.004,0.002 -0.008,0.003 -0.011,0.005zm0.142 0.37c-0.021,0.009 -0.041,0.013 -0.059,0.011 -0.015,-0.001 -0.024,-0.005 -0.027,-0.011 -0.001,-0.003 -0.002,-0.006 -0.002,-0.009 -0,-0.005 0.001,-0.01 0.003,-0.015 0.006,-0.014 0.021,-0.028 0.044,-0.043 0.03,-0.02 0.055,-0.045 0.076,-0.076 0.02,-0.03 0.032,-0.061 0.038,-0.093 0.006,-0.033 0.004,-0.064 -0.007,-0.091 -0.012,-0.029 -0.032,-0.052 -0.061,-0.068 -0.035,-0.019 -0.072,-0.025 -0.111,-0.019 -0.034,0.005 -0.067,0.018 -0.098,0.041 -0.029,0.021 -0.051,0.045 -0.065,0.072 -0.014,0.028 -0.018,0.052 -0.01,0.073 0.008,0.02 0.023,0.032 0.044,0.036 0.022,0.004 0.049,-0.003 0.081,-0.018 0.018,-0.009 0.03,-0.014 0.037,-0.016 0.007,-0.001 0.012,-0 0.016,0.004 0.008,0.008 -0.002,0.021 -0.028,0.038 -0.05,0.031 -0.087,0.066 -0.112,0.104 -0.031,0.048 -0.041,0.099 -0.03,0.152 0.008,0.038 0.033,0.066 0.074,0.084 0.033,0.014 0.075,0.022 0.126,0.022 0.051,0 0.093,-0.007 0.125,-0.022 0.033,-0.016 0.052,-0.037 0.058,-0.065 0.003,-0.014 0.002,-0.028 -0.002,-0.041 -0.004,-0.014 -0.011,-0.026 -0.021,-0.036 -0.01,-0.01 -0.023,-0.017 -0.037,-0.02 -0.016,-0.003 -0.033,-0 -0.051,0.007z"/>
  <path id="1" class="fil1" d="M0.683 0.534c-0.004,0.009 -0.01,0.017 -0.016,0.022 -0.007,0.006 -0.015,0.01 -0.024,0.011 0.015,-0.008 0.026,-0.02 0.033,-0.037 0.006,-0.013 0.01,-0.03 0.013,-0.051 0.004,0.019 0.002,0.037 -0.006,0.055zm-0.048 0.002c-0.009,0.003 -0.019,0 -0.027,-0.009 -0.009,-0.009 -0.015,-0.022 -0.018,-0.037 -0.003,-0.016 -0.002,-0.031 0.002,-0.044 0.005,-0.013 0.012,-0.022 0.021,-0.025 0.009,-0.003 0.018,0 0.027,0.009 0.009,0.009 0.015,0.021 0.018,0.037 0.003,0.016 0.002,0.031 -0.002,0.044 -0.005,0.014 -0.011,0.022 -0.021,0.025zm-0.118 -0.298c-0.011,0.017 -0.021,0.038 -0.029,0.063 -0.007,0.02 -0.012,0.044 -0.016,0.069 0,-0.009 0.001,-0.021 0.003,-0.036 0.002,-0.012 0.005,-0.024 0.008,-0.035 0.007,-0.025 0.016,-0.047 0.029,-0.066 0.014,-0.022 0.031,-0.038 0.05,-0.048 0.01,-0.005 0.021,-0.009 0.032,-0.012 0.012,-0.002 0.023,-0.003 0.033,-0.002 -0.025,0.002 -0.045,0.008 -0.063,0.019 -0.018,0.011 -0.034,0.027 -0.047,0.048zm0.151 -0.094c-0.07,-0.014 -0.126,0.005 -0.168,0.057 -0.037,0.047 -0.057,0.111 -0.061,0.191 -0.003,0.078 0.01,0.149 0.039,0.213 0.032,0.069 0.075,0.11 0.131,0.123 0.052,0.012 0.098,-0.009 0.138,-0.062 0.037,-0.049 0.062,-0.112 0.073,-0.19 0.011,-0.08 0.005,-0.15 -0.018,-0.211 -0.027,-0.068 -0.071,-0.109 -0.134,-0.122z"/>
  <path id="2" class="fil1" d="M1.185 0.582c-0.003,0 -0.007,0 -0.013,0.001l-0.007 0.001 -0.007 0c0.007,-0.006 0.016,-0.01 0.026,-0.01 0.005,0 0.01,0.001 0.014,0.002 0.005,0.002 0.008,0.005 0.011,0.009 -0.009,-0.003 -0.017,-0.004 -0.025,-0.004zm-0.217 -0.134c-0.006,0.006 -0.011,0.012 -0.016,0.018 -0.012,0.014 -0.021,0.028 -0.027,0.04 -0.008,0.014 -0.015,0.029 -0.019,0.045 -0.004,0.016 -0.006,0.032 -0.005,0.05l-0.002 -0.013 -0 -0.006 0 -0.007 0 -0.006 0 -0.007 0.001 -0.006 0.001 -0.007c0.003,-0.016 0.009,-0.032 0.018,-0.048 0.008,-0.015 0.018,-0.028 0.03,-0.04 0.006,-0.006 0.012,-0.012 0.018,-0.017l0.009 -0.007c0.004,-0.003 0.007,-0.005 0.01,-0.007l-0.009 0.009 -0.008 0.009zm0.038 -0.264c-0.007,0.003 -0.014,0.007 -0.021,0.011 -0.014,0.008 -0.027,0.017 -0.038,0.027 -0.012,0.01 -0.023,0.022 -0.033,0.035 -0.005,0.007 -0.009,0.014 -0.013,0.021 -0.004,0.008 -0.007,0.016 -0.008,0.024 -0.001,-0.014 0.005,-0.03 0.016,-0.048 0.009,-0.014 0.02,-0.026 0.033,-0.038 0.014,-0.011 0.027,-0.02 0.041,-0.026 0.008,-0.004 0.015,-0.007 0.022,-0.009 0.008,-0.003 0.016,-0.005 0.023,-0.005l-0.011 0.004c-0.004,0.002 -0.008,0.003 -0.011,0.005zm0.142 0.37c-0.021,0.009 -0.041,0.013 -0.059,0.011 -0.015,-0.001 -0.024,-0.005 -0.027,-0.011 -0.001,-0.003 -0.002,-0.006 -0.002,-0.009 -0,-0.005 0.001,-0.01 0.003,-0.015 0.006,-0.014 0.021,-0.028 0.044,-0.043 0.03,-0.02 0.055,-0.045 0.076,-0.076 0.02,-0.03 0.032,-0.061 0.038,-0.093 0.006,-0.033 0.004,-0.064 -0.007,-0.091 -0.012,-0.029 -0.032,-0.052 -0.061,-0.068 -0.035,-0.019 -0.072,-0.025 -0.111,-0.019 -0.034,0.005 -0.067,0.018 -0.098,0.041 -0.029,0.021 -0.051,0.045 -0.065,0.072 -0.014,0.028 -0.018,0.052 -0.01,0.073 0.008,0.02 0.023,0.032 0.044,0.036 0.022,0.004 0.049,-0.003 0.081,-0.018 0.018,-0.009 0.03,-0.014 0.037,-0.016 0.007,-0.001 0.012,-0 0.016,0.004 0.008,0.008 -0.002,0.021 -0.028,0.038 -0.05,0.031 -0.087,0.066 -0.112,0.104 -0.031,0.048 -0.041,0.099 -0.03,0.152 0.008,0.038 0.033,0.066 0.074,0.084 0.033,0.014 0.075,0.022 0.126,0.022 0.051,0 0.093,-0.007 0.125,-0.022 0.033,-0.016 0.052,-0.037 0.058,-0.065 0.003,-0.014 0.002,-0.028 -0.002,-0.041 -0.004,-0.014 -0.011,-0.026 -0.021,-0.036 -0.01,-0.01 -0.023,-0.017 -0.036,-0.02 -0.016,-0.003 -0.033,-0 -0.051,0.007z"/>
  <path id="3" class="fil1" d="M1.401 0.181c-0.007,0.003 -0.013,0.006 -0.018,0.009 -0.006,0.003 -0.011,0.007 -0.016,0.012 -0.011,0.009 -0.02,0.019 -0.026,0.031 -0.007,0.014 -0.011,0.028 -0.012,0.041 -0.002,-0.014 0,-0.029 0.006,-0.044 0.006,-0.013 0.015,-0.025 0.027,-0.035 0.012,-0.01 0.024,-0.017 0.037,-0.021 0.014,-0.005 0.028,-0.006 0.041,-0.003 -0.013,0.001 -0.026,0.004 -0.039,0.009zm0.142 0.048c-0.012,-0.033 -0.028,-0.057 -0.05,-0.072 -0.019,-0.013 -0.04,-0.019 -0.064,-0.018 -0.022,0.001 -0.043,0.008 -0.063,0.02 -0.02,0.012 -0.035,0.026 -0.045,0.043 -0.009,0.014 -0.015,0.029 -0.018,0.045 -0.003,0.015 -0.003,0.029 -0,0.042 0.003,0.013 0.009,0.023 0.017,0.03 0.009,0.007 0.02,0.01 0.033,0.008 0.016,-0.002 0.027,0.01 0.033,0.036 0.002,0.01 0.004,0.022 0.005,0.036 0.001,0.005 0.001,0.011 0.002,0.017l0 0.008 0 0.007c0.002,0.04 0.002,0.082 -0.002,0.124 -0.001,0.014 -0.002,0.03 -0.005,0.048l-0.001 0.011 -0.001 0.01c-0.001,0.008 -0.001,0.014 -0.002,0.019 -0.002,0.026 -0.002,0.045 0.001,0.056 0.004,0.014 0.013,0.023 0.027,0.028 0.028,0.009 0.053,-0.005 0.077,-0.043 0.021,-0.033 0.039,-0.08 0.052,-0.14 0.013,-0.057 0.019,-0.115 0.021,-0.174 0.001,-0.061 -0.005,-0.108 -0.017,-0.143z"/>
  <path id="4" class="fil1" d="M1.837 0.403c-0.006,0.001 -0.012,0.003 -0.018,0.006l-0.004 0.002 -0.004 0.002c-0.004,0.002 -0.007,0.003 -0.009,0.003 -0.006,0.002 -0.013,0.003 -0.019,0.002l0.009 -0.003c0.004,-0.001 0.007,-0.003 0.009,-0.004l0.004 -0.002 0.004 -0.002c0.003,-0.002 0.006,-0.004 0.009,-0.005 0.007,-0.003 0.013,-0.005 0.019,-0.005 0.008,-0 0.014,0.001 0.019,0.005 -0.006,-0.001 -0.012,-0.001 -0.019,0zm-0.175 0.012c-0.006,0 -0.011,0.001 -0.015,0.001 -0.006,0 -0.011,0.001 -0.015,0.002 -0.003,0.001 -0.005,0.002 -0.006,0.004 -0.001,0.001 -0.002,0.004 -0.004,0.007 -0,-0.004 0,-0.007 0.001,-0.009 0.002,-0.003 0.004,-0.005 0.007,-0.007 0.004,-0.002 0.009,-0.004 0.016,-0.005 0.006,-0.001 0.012,-0 0.016,0 0.006,0.001 0.011,0.002 0.016,0.003 -0.005,0.001 -0.01,0.002 -0.016,0.002zm0.137 -0.031c-0.011,0.006 -0.028,0.009 -0.051,0.007 -0.008,-0.001 -0.018,-0.002 -0.032,-0.003l-0.016 -0.002c-0.006,-0.001 -0.011,-0.001 -0.016,-0.002 -0.025,-0.002 -0.044,-0.001 -0.057,0.004 -0.017,0.006 -0.027,0.018 -0.029,0.036 -0.003,0.023 0.007,0.044 0.03,0.062 0.021,0.016 0.049,0.027 0.084,0.033 0.034,0.006 0.067,0.006 0.098,-0 0.034,-0.007 0.058,-0.019 0.073,-0.038 0.011,-0.013 0.017,-0.028 0.017,-0.045 0.001,-0.016 -0.004,-0.03 -0.012,-0.042 -0.009,-0.012 -0.021,-0.02 -0.036,-0.022 -0.016,-0.003 -0.034,0.001 -0.053,0.011z"/>
  <path id="5" class="fil1" d="M2.076 0.177c-0.018,0.003 -0.032,0.006 -0.043,0.01 -0.017,0.005 -0.03,0.011 -0.04,0.018 -0.007,0.005 -0.013,0.01 -0.016,0.015 -0.004,0.006 -0.006,0.013 -0.006,0.022 -0.002,-0.008 -0.001,-0.017 0.003,-0.024 0.003,-0.006 0.009,-0.013 0.016,-0.019 0.01,-0.008 0.024,-0.015 0.041,-0.021 0.028,-0.008 0.058,-0.011 0.09,-0.007 -0.016,0.002 -0.031,0.004 -0.045,0.006zm0.072 -0.037c-0.062,-0.004 -0.112,0.004 -0.151,0.022 -0.041,0.019 -0.059,0.047 -0.057,0.083 0.002,0.02 0.009,0.035 0.024,0.044 0.01,0.007 0.025,0.011 0.046,0.014l0.013 0.001 0.012 0.001c0.01,0.001 0.017,0.002 0.023,0.003 0.016,0.004 0.025,0.01 0.029,0.021 0.002,0.006 -0,0.042 -0.007,0.108 -0.004,0.033 -0.006,0.062 -0.007,0.085 -0.002,0.033 -0.001,0.062 0.001,0.087 0.003,0.037 0.015,0.068 0.036,0.091 0.021,0.025 0.047,0.035 0.077,0.031 0.055,-0.008 0.074,-0.067 0.06,-0.177 -0.008,-0.058 -0.012,-0.107 -0.012,-0.149 -0.001,-0.044 0.003,-0.069 0.011,-0.077 0.006,-0.005 0.015,-0.007 0.03,-0.008 0.004,0 0.011,0 0.02,0l0.01 0 0.01 -0c0.016,-0 0.029,-0.003 0.039,-0.008 0.012,-0.006 0.021,-0.017 0.025,-0.032 0.005,-0.019 0.002,-0.036 -0.008,-0.053 -0.01,-0.016 -0.026,-0.03 -0.048,-0.043 -0.045,-0.026 -0.103,-0.041 -0.174,-0.045z"/>
  <path id="6" class="fil1" d="M2.716 0.205c-0.007,0.008 -0.014,0.018 -0.021,0.03 -0.012,0.02 -0.022,0.043 -0.031,0.066l-0.006 0.017 -0.006 0.018c-0.005,0.016 -0.009,0.027 -0.012,0.035 -0.006,0.015 -0.012,0.026 -0.018,0.033 -0.004,0.005 -0.009,0.009 -0.014,0.011 -0.005,0.002 -0.011,0.003 -0.018,0.002 0.007,-0 0.012,-0.002 0.017,-0.004 0.005,-0.003 0.009,-0.006 0.013,-0.012 0.005,-0.007 0.01,-0.018 0.015,-0.033l0.005 -0.018 0.006 -0.018c0.004,-0.014 0.008,-0.026 0.012,-0.036 0.009,-0.026 0.02,-0.048 0.033,-0.067 0.017,-0.025 0.034,-0.042 0.051,-0.051 -0.009,0.007 -0.018,0.015 -0.025,0.025zm-0.252 0.096c-0.004,0.017 -0.007,0.037 -0.009,0.06l-0.003 0.031 -0.004 0.03c-0.002,-0.06 0.004,-0.114 0.019,-0.161 0.003,-0.009 0.006,-0.018 0.009,-0.025 0.004,-0.01 0.009,-0.018 0.013,-0.025 0.012,-0.018 0.027,-0.027 0.043,-0.026 -0.019,0.002 -0.035,0.017 -0.048,0.045 -0.005,0.01 -0.009,0.023 -0.012,0.037 -0.002,0.005 -0.003,0.011 -0.004,0.018l-0.002 0.008 -0.001 0.004 -0.001 0.004zm0.349 -0.148c-0.031,-0.02 -0.062,-0.019 -0.094,0.005 -0.026,0.019 -0.05,0.05 -0.07,0.093 -0.006,0.014 -0.013,0.03 -0.019,0.048 -0.002,0.007 -0.005,0.014 -0.008,0.023l-0.003 0.011 -0.002 0.005 -0.002 0.005c-0.005,0.015 -0.009,0.026 -0.011,0.031 -0.004,0.008 -0.007,0.012 -0.011,0.012 -0.007,-0.001 -0.01,-0.006 -0.01,-0.017 -0.001,-0.009 0.001,-0.031 0.006,-0.064 0.008,-0.061 0.005,-0.103 -0.011,-0.128 -0.012,-0.02 -0.032,-0.027 -0.059,-0.024 -0.032,0.005 -0.058,0.038 -0.077,0.1 -0.018,0.06 -0.026,0.133 -0.024,0.219 0.005,0.158 0.048,0.244 0.129,0.256 0.024,0.003 0.048,-0.003 0.071,-0.018 0.022,-0.015 0.041,-0.035 0.057,-0.061 0.014,-0.023 0.025,-0.044 0.035,-0.064 0.003,-0.007 0.007,-0.015 0.01,-0.022 0.002,-0.005 0.005,-0.01 0.007,-0.016 0.004,-0.01 0.007,-0.016 0.008,-0.018 0.002,-0.003 0.004,-0.004 0.008,-0.003 0.003,0.001 0.004,0.013 0.001,0.034l-0.001 0.008 -0.001 0.008c-0.001,0.007 -0.001,0.013 -0.002,0.017 -0.001,0.014 -0.002,0.027 -0.003,0.038 -0.001,0.067 0.021,0.101 0.066,0.101 0.029,-0 0.052,-0.027 0.068,-0.081 0.014,-0.048 0.022,-0.109 0.022,-0.183 0,-0.072 -0.007,-0.137 -0.021,-0.195 -0.015,-0.063 -0.035,-0.103 -0.06,-0.119z"/>
  <path id="7" class="fil1" d="M3.35 0.506c-0.005,0.005 -0.011,0.007 -0.016,0.009 -0.006,0.002 -0.012,0.002 -0.018,0 0.011,-0.003 0.022,-0.008 0.031,-0.016 0.007,-0.006 0.015,-0.015 0.023,-0.027 -0.002,0.013 -0.008,0.024 -0.019,0.033zm-0.041 -0.024c-0.006,-0.003 -0.01,-0.008 -0.011,-0.016 -0.002,-0.008 -0.002,-0.016 0.001,-0.024 0.003,-0.008 0.008,-0.015 0.014,-0.019 0.006,-0.004 0.012,-0.005 0.018,-0.002 0.006,0.002 0.01,0.007 0.012,0.015 0.002,0.008 0.001,0.016 -0.002,0.024 -0.003,0.008 -0.008,0.015 -0.014,0.019 -0.006,0.004 -0.012,0.005 -0.018,0.002zm-0.061 -0.223c-0.01,0.014 -0.021,0.033 -0.035,0.057 -0.005,0.009 -0.01,0.018 -0.016,0.03l-0.016 0.03c0.007,-0.02 0.016,-0.041 0.027,-0.063 0.01,-0.02 0.021,-0.04 0.034,-0.059 0.015,-0.022 0.029,-0.04 0.042,-0.053l0.006 -0.006c0.002,-0.002 0.004,-0.004 0.006,-0.005l0.006 -0.005 0.007 -0.005c0.012,-0.007 0.022,-0.01 0.031,-0.009 -0.009,0.001 -0.018,0.005 -0.029,0.013l-0.006 0.005 -0.006 0.006c-0.002,0.001 -0.004,0.003 -0.006,0.005l-0.006 0.006c-0.013,0.015 -0.026,0.032 -0.04,0.053zm0.101 -0.12c-0.033,-0.006 -0.07,0.019 -0.111,0.074 -0.037,0.05 -0.07,0.113 -0.1,0.19 -0.029,0.077 -0.046,0.145 -0.051,0.204 -0.005,0.065 0.006,0.104 0.035,0.116 0.022,0.009 0.042,0.009 0.063,-0.001 0.015,-0.007 0.031,-0.02 0.048,-0.04 0.003,-0.004 0.007,-0.008 0.011,-0.013l0.01 -0.012c0.008,-0.011 0.014,-0.018 0.018,-0.023 0.013,-0.015 0.025,-0.023 0.034,-0.023 0.009,0 0.021,0.007 0.035,0.022 0.004,0.005 0.011,0.012 0.019,0.022l0.01 0.012 0.01 0.012c0.017,0.018 0.033,0.031 0.047,0.038 0.019,0.009 0.037,0.008 0.056,-0.001 0.022,-0.011 0.034,-0.046 0.037,-0.106 0.003,-0.056 -0.003,-0.119 -0.017,-0.19 -0.015,-0.074 -0.035,-0.136 -0.06,-0.187 -0.029,-0.057 -0.06,-0.088 -0.093,-0.094z"/>
  <path id="8" class="fil1" d="M3.813 0.385c-0.003,0.008 -0.007,0.015 -0.013,0.021 -0.006,0.007 -0.012,0.011 -0.019,0.015 -0.008,0.003 -0.015,0.004 -0.023,0.002 0.008,-0.002 0.014,-0.004 0.021,-0.008 0.006,-0.004 0.012,-0.009 0.016,-0.014 0.01,-0.011 0.017,-0.024 0.022,-0.041 0.001,0.008 -0,0.016 -0.003,0.024zm-0.069 -0.035c0.004,-0.008 0.009,-0.014 0.016,-0.018 0.007,-0.004 0.012,-0.004 0.018,-0.001 0.005,0.003 0.009,0.008 0.01,0.016 0.001,0.008 -0,0.016 -0.004,0.024 -0.004,0.008 -0.009,0.014 -0.015,0.018 -0.007,0.004 -0.013,0.004 -0.018,0.001 -0.005,-0.003 -0.009,-0.008 -0.01,-0.016 -0.001,-0.008 0,-0.016 0.004,-0.024zm-0.058 -0.163c-0.017,0.009 -0.032,0.02 -0.045,0.035 -0.012,0.013 -0.022,0.03 -0.031,0.05 -0.007,0.016 -0.013,0.035 -0.019,0.057 0.001,-0.008 0.002,-0.019 0.005,-0.03 0.002,-0.01 0.006,-0.02 0.009,-0.03 0.007,-0.02 0.018,-0.038 0.03,-0.053 0.014,-0.016 0.03,-0.028 0.048,-0.035 0.009,-0.004 0.018,-0.007 0.028,-0.009 0.01,-0.002 0.02,-0.003 0.028,-0.003 -0.021,0.003 -0.039,0.009 -0.054,0.017zm0.071 -0.049c-0.051,-0.001 -0.093,0.015 -0.126,0.046 -0.03,0.028 -0.05,0.066 -0.063,0.116 -0.011,0.046 -0.014,0.095 -0.008,0.15 0.005,0.053 0.018,0.102 0.037,0.147 0.019,0.043 0.04,0.077 0.063,0.101 0.02,0.021 0.041,0.032 0.061,0.034 0.018,0.002 0.034,-0.004 0.048,-0.018 0.013,-0.014 0.021,-0.032 0.024,-0.056 0.002,-0.016 0.002,-0.034 -0.001,-0.055 -0.001,-0.006 -0.002,-0.014 -0.004,-0.024l-0.002 -0.012c-0.001,-0.004 -0.001,-0.008 -0.002,-0.011 -0.002,-0.016 -0.002,-0.029 0.001,-0.038 0.003,-0.011 0.011,-0.02 0.024,-0.026 0.041,-0.021 0.072,-0.052 0.093,-0.092 0.02,-0.037 0.027,-0.077 0.022,-0.117 -0.005,-0.041 -0.021,-0.075 -0.048,-0.101 -0.03,-0.029 -0.069,-0.043 -0.118,-0.044z"/>
  <path id="9" class="fil1" d="M4.217 0.551c-0.005,0.008 -0.011,0.013 -0.018,0.017 -0.008,0.004 -0.015,0.005 -0.023,0.003 0.016,-0.003 0.028,-0.011 0.035,-0.024 0.004,-0.005 0.006,-0.013 0.008,-0.021 0.001,-0.007 0.002,-0.015 0.002,-0.024 0.003,0.008 0.004,0.016 0.004,0.025 -0.001,0.009 -0.003,0.017 -0.008,0.024zm-0.067 -0.032c-0.004,-0.008 -0.005,-0.016 -0.004,-0.024 0.001,-0.008 0.004,-0.014 0.009,-0.017 0.006,-0.003 0.012,-0.002 0.018,0.001 0.007,0.004 0.012,0.009 0.016,0.017 0.004,0.008 0.005,0.016 0.004,0.024 -0.001,0.008 -0.004,0.013 -0.01,0.016 -0.005,0.003 -0.011,0.003 -0.017,-0.001 -0.007,-0.004 -0.012,-0.009 -0.016,-0.018zm-0.035 -0.343c-0.005,0.003 -0.01,0.006 -0.016,0.011 -0.009,0.008 -0.018,0.018 -0.026,0.029 -0.007,0.008 -0.014,0.02 -0.022,0.034 -0.003,0.005 -0.007,0.011 -0.011,0.018l-0.01 0.018c0.005,-0.016 0.01,-0.028 0.016,-0.039 0.006,-0.013 0.014,-0.025 0.022,-0.036 0.009,-0.012 0.019,-0.022 0.029,-0.029 0.013,-0.01 0.025,-0.014 0.037,-0.013 -0.006,0.001 -0.012,0.003 -0.018,0.007zm0.099 0.2c-0.013,-0.004 -0.021,-0.012 -0.025,-0.023 -0.003,-0.009 -0.003,-0.021 -0,-0.038 0.001,-0.003 0.001,-0.007 0.002,-0.012l0.002 -0.012c0.002,-0.011 0.004,-0.019 0.005,-0.026 0.003,-0.021 0.004,-0.04 0.002,-0.056 -0.003,-0.023 -0.011,-0.042 -0.024,-0.055 -0.014,-0.014 -0.03,-0.02 -0.048,-0.018 -0.02,0.002 -0.041,0.013 -0.061,0.034 -0.023,0.023 -0.044,0.056 -0.063,0.1 -0.019,0.045 -0.032,0.094 -0.037,0.146 -0.006,0.054 -0.003,0.104 0.008,0.15 0.012,0.05 0.033,0.088 0.063,0.116 0.033,0.031 0.075,0.046 0.126,0.045 0.048,-0.001 0.089,-0.016 0.12,-0.048 0.029,-0.028 0.047,-0.064 0.053,-0.107 0.006,-0.043 -0.001,-0.082 -0.021,-0.118 -0.022,-0.039 -0.056,-0.066 -0.101,-0.081zm0.159 -0.191c-0.004,0.004 -0.007,0.009 -0.009,0.016 -0.002,0.006 -0.003,0.012 -0.003,0.019 -0.001,0.01 0.001,0.024 0.003,0.041l0.004 0.02 0.004 0.021c-0.006,-0.015 -0.01,-0.028 -0.013,-0.04 -0.004,-0.016 -0.005,-0.03 -0.005,-0.043 0.001,-0.008 0.002,-0.016 0.004,-0.022 0.003,-0.008 0.007,-0.014 0.012,-0.018 0.01,-0.008 0.023,-0.012 0.038,-0.01 -0.014,0.002 -0.025,0.007 -0.034,0.015zm0.133 0.023c-0.011,-0.022 -0.025,-0.039 -0.042,-0.051 -0.015,-0.011 -0.032,-0.017 -0.05,-0.019 -0.017,-0.001 -0.032,0.002 -0.047,0.009 -0.014,0.007 -0.025,0.018 -0.031,0.032 -0.012,0.026 -0.012,0.064 0.001,0.114 0.002,0.008 0.005,0.018 0.008,0.031l0.005 0.016 0.005 0.016c0.007,0.025 0.011,0.046 0.013,0.063 0.004,0.04 0.006,0.081 0.005,0.124 -0,0.013 -0.001,0.03 -0.002,0.048l-0 0.011 -0 0.01c-0.001,0.008 -0.001,0.014 -0.001,0.019 -0.001,0.026 0.001,0.044 0.004,0.055 0.005,0.014 0.014,0.022 0.028,0.026 0.028,0.007 0.052,-0.009 0.075,-0.048 0.02,-0.034 0.035,-0.082 0.045,-0.143 0.01,-0.059 0.014,-0.117 0.011,-0.174 -0.003,-0.06 -0.012,-0.107 -0.028,-0.139z"/>
  <path id="10" class="fil1" d="M4.905 0.181c-0.004,0.002 -0.007,0.005 -0.01,0.009 -0.004,0.006 -0.008,0.015 -0.01,0.027 -0.003,0.016 -0.004,0.035 -0.003,0.059l0 0.007 0 0.007c0,0.006 0,0.011 -0,0.016 -0.001,0.011 -0.003,0.021 -0.007,0.03 -0.004,0.01 -0.009,0.018 -0.016,0.025 -0.007,0.007 -0.015,0.012 -0.024,0.015 0.017,-0.009 0.029,-0.023 0.036,-0.043 0.003,-0.009 0.005,-0.019 0.005,-0.029 0,-0.004 0,-0.009 0,-0.014l-0 -0.007 0 -0.008c-0,-0.025 0.001,-0.045 0.005,-0.06 0.003,-0.012 0.008,-0.022 0.013,-0.028 0.004,-0.004 0.008,-0.007 0.012,-0.008 0.004,-0.001 0.008,-0.002 0.014,-0.002 -0.006,0.001 -0.01,0.002 -0.013,0.004zm-0.256 0.01c-0.009,0.01 -0.016,0.023 -0.021,0.038 -0.004,0.012 -0.008,0.027 -0.012,0.044l-0.005 0.022 -0.005 0.022c0.001,-0.031 0.006,-0.061 0.015,-0.091 0.005,-0.017 0.013,-0.03 0.023,-0.04 0.006,-0.006 0.012,-0.01 0.019,-0.013 0.007,-0.003 0.014,-0.004 0.021,-0.003 -0.013,0.001 -0.025,0.008 -0.035,0.02zm0.268 -0.046c-0.026,0.002 -0.044,0.014 -0.055,0.038 -0.011,0.023 -0.015,0.058 -0.013,0.106 0.001,0.021 -0.004,0.037 -0.013,0.047 -0.008,0.009 -0.018,0.013 -0.03,0.012 -0.012,-0.001 -0.022,-0.007 -0.028,-0.017 -0.006,-0.011 -0.009,-0.025 -0.007,-0.042 0.005,-0.049 0,-0.085 -0.013,-0.11 -0.012,-0.022 -0.032,-0.035 -0.061,-0.04 -0.023,-0.004 -0.043,0.002 -0.062,0.017 -0.018,0.015 -0.031,0.035 -0.039,0.062 -0.016,0.052 -0.024,0.113 -0.025,0.183 -0.001,0.068 0.006,0.132 0.019,0.194 0.01,0.045 0.026,0.078 0.048,0.098 0.018,0.016 0.038,0.023 0.06,0.02 0.049,-0.008 0.071,-0.046 0.066,-0.116 -0.004,-0.051 0.006,-0.077 0.03,-0.077 0.011,0 0.02,0.005 0.027,0.014 0.008,0.012 0.012,0.032 0.011,0.059 -0.002,0.046 0.004,0.08 0.02,0.104 0.014,0.022 0.035,0.033 0.061,0.033 0.045,0 0.076,-0.03 0.094,-0.091 0.013,-0.044 0.021,-0.117 0.024,-0.219 0.002,-0.079 -0.007,-0.144 -0.027,-0.197 -0.021,-0.055 -0.05,-0.081 -0.086,-0.079z"/>
  <path id="11" class="fil1" d="M0.325 1.465c-0.003,0 -0.007,0 -0.013,0.001l-0.007 0.001 -0.007 0c0.007,-0.006 0.016,-0.01 0.026,-0.01 0.005,0 0.01,0.001 0.014,0.002 0.005,0.002 0.008,0.005 0.011,0.009 -0.009,-0.003 -0.017,-0.004 -0.025,-0.004zm-0.217 -0.134c-0.006,0.006 -0.011,0.012 -0.016,0.018 -0.012,0.014 -0.021,0.028 -0.027,0.04 -0.008,0.014 -0.015,0.029 -0.019,0.045 -0.004,0.016 -0.006,0.032 -0.005,0.05l-0.002 -0.013 -0 -0.006 0 -0.007 0 -0.006 0 -0.007 0.001 -0.006 0.001 -0.007c0.003,-0.016 0.009,-0.032 0.018,-0.048 0.008,-0.015 0.018,-0.028 0.03,-0.04 0.006,-0.006 0.012,-0.012 0.018,-0.017l0.009 -0.007c0.004,-0.003 0.007,-0.005 0.01,-0.007l-0.009 0.009 -0.008 0.009zm0.038 -0.264c-0.007,0.003 -0.014,0.007 -0.021,0.011 -0.014,0.008 -0.027,0.017 -0.038,0.027 -0.012,0.01 -0.023,0.022 -0.033,0.035 -0.005,0.007 -0.009,0.014 -0.013,0.021 -0.004,0.008 -0.007,0.016 -0.008,0.024 -0.001,-0.014 0.005,-0.03 0.016,-0.048 0.009,-0.014 0.02,-0.026 0.033,-0.038 0.014,-0.011 0.027,-0.02 0.041,-0.026 0.008,-0.004 0.015,-0.007 0.022,-0.009 0.008,-0.003 0.016,-0.005 0.023,-0.005l-0.011 0.004c-0.004,0.002 -0.008,0.003 -0.011,0.005zm0.142 0.37c-0.021,0.009 -0.041,0.013 -0.059,0.011 -0.015,-0.001 -0.024,-0.005 -0.027,-0.011 -0.001,-0.003 -0.002,-0.006 -0.002,-0.009 -0,-0.005 0.001,-0.01 0.003,-0.015 0.006,-0.014 0.021,-0.028 0.044,-0.043 0.03,-0.02 0.055,-0.045 0.076,-0.076 0.02,-0.03 0.032,-0.061 0.038,-0.093 0.006,-0.033 0.004,-0.064 -0.007,-0.091 -0.012,-0.029 -0.032,-0.052 -0.061,-0.068 -0.035,-0.019 -0.072,-0.025 -0.111,-0.019 -0.034,0.005 -0.067,0.018 -0.098,0.041 -0.029,0.021 -0.051,0.045 -0.065,0.072 -0.014,0.028 -0.018,0.052 -0.01,0.073 0.008,0.02 0.023,0.032 0.044,0.036 0.022,0.004 0.049,-0.003 0.081,-0.018 0.018,-0.009 0.03,-0.014 0.037,-0.016 0.007,-0.001 0.012,-0 0.016,0.004 0.008,0.008 -0.002,0.021 -0.028,0.038 -0.05,0.031 -0.087,0.066 -0.112,0.104 -0.031,0.048 -0.041,0.099 -0.03,0.152 0.008,0.038 0.033,0.066 0.074,0.084 0.033,0.014 0.075,0.022 0.126,0.022 0.051,0 0.093,-0.007 0.125,-0.022 0.033,-0.016 0.052,-0.037 0.058,-0.065 0.003,-0.014 0.002,-0.028 -0.002,-0.041 -0.004,-0.014 -0.011,-0.026 -0.021,-0.036 -0.01,-0.01 -0.023,-0.017 -0.037,-0.02 -0.016,-0.003 -0.033,-0 -0.051,0.007z"/>
  <path id="12" class="fil1" d="M0.679 1.286c-0.006,0.001 -0.012,0.003 -0.018,0.006l-0.004 0.002 -0.004 0.002c-0.004,0.002 -0.007,0.003 -0.009,0.003 -0.006,0.002 -0.013,0.003 -0.019,0.002l0.009 -0.003c0.004,-0.001 0.006,-0.003 0.009,-0.004l0.004 -0.002 0.004 -0.002c0.003,-0.002 0.006,-0.004 0.009,-0.005 0.007,-0.003 0.013,-0.005 0.019,-0.005 0.008,-0 0.014,0.001 0.019,0.005 -0.006,-0.001 -0.012,-0.001 -0.019,0zm-0.175 0.012c-0.006,0 -0.011,0.001 -0.015,0.001 -0.006,0 -0.011,0.001 -0.015,0.002 -0.003,0.001 -0.005,0.002 -0.006,0.004 -0.001,0.001 -0.002,0.004 -0.004,0.007 -0,-0.004 0,-0.007 0.001,-0.009 0.002,-0.003 0.004,-0.005 0.007,-0.007 0.004,-0.002 0.009,-0.004 0.016,-0.005 0.006,-0.001 0.012,-0 0.016,0 0.006,0.001 0.011,0.002 0.016,0.003 -0.005,0.001 -0.01,0.002 -0.016,0.002zm0.137 -0.031c-0.011,0.006 -0.028,0.009 -0.051,0.007 -0.008,-0.001 -0.018,-0.002 -0.032,-0.003l-0.016 -0.002c-0.006,-0.001 -0.011,-0.001 -0.016,-0.002 -0.025,-0.002 -0.044,-0.001 -0.057,0.004 -0.017,0.006 -0.027,0.018 -0.029,0.036 -0.003,0.023 0.007,0.044 0.03,0.062 0.021,0.016 0.049,0.027 0.084,0.033 0.034,0.006 0.067,0.006 0.098,-0 0.034,-0.007 0.058,-0.019 0.073,-0.038 0.011,-0.013 0.017,-0.028 0.017,-0.045 0.001,-0.016 -0.003,-0.03 -0.012,-0.042 -0.009,-0.012 -0.021,-0.02 -0.036,-0.022 -0.016,-0.003 -0.034,0.001 -0.053,0.011z"/>
  <path id="13" class="fil1" d="M0.918 1.06c-0.018,0.003 -0.032,0.006 -0.043,0.01 -0.017,0.005 -0.03,0.011 -0.04,0.018 -0.007,0.005 -0.013,0.01 -0.016,0.015 -0.004,0.006 -0.006,0.013 -0.006,0.022 -0.002,-0.008 -0.001,-0.017 0.003,-0.024 0.003,-0.006 0.009,-0.013 0.016,-0.019 0.01,-0.008 0.024,-0.015 0.041,-0.021 0.028,-0.008 0.058,-0.011 0.09,-0.007 -0.016,0.002 -0.031,0.004 -0.045,0.006zm0.072 -0.037c-0.062,-0.004 -0.112,0.004 -0.151,0.022 -0.041,0.019 -0.059,0.047 -0.057,0.083 0.002,0.02 0.009,0.035 0.024,0.044 0.01,0.007 0.025,0.011 0.046,0.014l0.013 0.001 0.012 0.001c0.01,0.001 0.017,0.002 0.023,0.003 0.016,0.004 0.025,0.01 0.029,0.021 0.002,0.006 -0,0.042 -0.007,0.108 -0.004,0.033 -0.006,0.062 -0.007,0.085 -0.002,0.033 -0.001,0.062 0.001,0.087 0.003,0.037 0.015,0.068 0.036,0.091 0.021,0.025 0.047,0.035 0.077,0.031 0.055,-0.008 0.074,-0.067 0.06,-0.177 -0.008,-0.058 -0.012,-0.107 -0.012,-0.149 -0.001,-0.044 0.003,-0.069 0.011,-0.077 0.006,-0.005 0.015,-0.007 0.03,-0.008 0.004,0 0.011,0 0.02,0l0.01 0 0.01 -0c0.016,-0 0.029,-0.003 0.039,-0.008 0.012,-0.006 0.021,-0.017 0.025,-0.032 0.005,-0.019 0.002,-0.036 -0.008,-0.053 -0.01,-0.016 -0.026,-0.03 -0.048,-0.043 -0.045,-0.026 -0.103,-0.041 -0.174,-0.045z"/>
  <path id="14" class="fil1" d="M1.559 1.088c-0.007,0.008 -0.014,0.018 -0.021,0.03 -0.012,0.02 -0.022,0.043 -0.031,0.066l-0.006 0.017 -0.006 0.018c-0.005,0.016 -0.009,0.027 -0.012,0.035 -0.006,0.015 -0.012,0.026 -0.018,0.033 -0.004,0.005 -0.009,0.009 -0.014,0.011 -0.005,0.002 -0.011,0.003 -0.018,0.002 0.007,-0 0.012,-0.002 0.017,-0.004 0.005,-0.003 0.009,-0.006 0.013,-0.012 0.005,-0.007 0.01,-0.018 0.015,-0.033l0.005 -0.018 0.006 -0.018c0.004,-0.014 0.008,-0.026 0.012,-0.036 0.009,-0.026 0.02,-0.048 0.033,-0.067 0.017,-0.025 0.034,-0.042 0.051,-0.051 -0.009,0.007 -0.018,0.015 -0.025,0.025zm-0.252 0.096c-0.004,0.017 -0.007,0.037 -0.009,0.06l-0.003 0.031 -0.004 0.03c-0.002,-0.06 0.004,-0.114 0.019,-0.161 0.003,-0.009 0.006,-0.018 0.009,-0.025 0.004,-0.01 0.009,-0.018 0.013,-0.025 0.012,-0.018 0.027,-0.027 0.043,-0.026 -0.02,0.002 -0.035,0.017 -0.048,0.045 -0.005,0.01 -0.009,0.023 -0.012,0.037 -0.002,0.005 -0.003,0.011 -0.004,0.018l-0.002 0.008 -0.001 0.004 -0.001 0.004zm0.349 -0.148c-0.031,-0.02 -0.062,-0.019 -0.094,0.005 -0.026,0.019 -0.05,0.05 -0.07,0.093 -0.007,0.014 -0.013,0.03 -0.019,0.048 -0.002,0.007 -0.005,0.014 -0.008,0.023l-0.003 0.011 -0.002 0.005 -0.002 0.005c-0.005,0.015 -0.009,0.026 -0.011,0.031 -0.004,0.008 -0.007,0.012 -0.011,0.012 -0.007,-0.001 -0.01,-0.006 -0.01,-0.017 -0.001,-0.009 0.001,-0.031 0.006,-0.064 0.008,-0.061 0.005,-0.103 -0.011,-0.128 -0.012,-0.02 -0.032,-0.027 -0.059,-0.024 -0.032,0.005 -0.058,0.038 -0.077,0.1 -0.018,0.06 -0.026,0.133 -0.024,0.219 0.005,0.158 0.048,0.244 0.129,0.256 0.024,0.003 0.048,-0.003 0.071,-0.018 0.022,-0.015 0.041,-0.035 0.057,-0.061 0.014,-0.023 0.025,-0.044 0.035,-0.064 0.003,-0.007 0.007,-0.015 0.01,-0.022 0.002,-0.005 0.005,-0.01 0.007,-0.016 0.004,-0.01 0.007,-0.016 0.008,-0.018 0.002,-0.003 0.004,-0.004 0.008,-0.003 0.003,0.001 0.004,0.013 0.001,0.034l-0.001 0.008 -0.001 0.008c-0.001,0.007 -0.001,0.013 -0.002,0.017 -0.001,0.014 -0.002,0.027 -0.003,0.038 -0.001,0.067 0.021,0.101 0.066,0.101 0.029,-0 0.052,-0.027 0.068,-0.081 0.014,-0.048 0.022,-0.109 0.022,-0.183 0,-0.072 -0.007,-0.137 -0.021,-0.195 -0.015,-0.063 -0.035,-0.103 -0.06,-0.119z"/>
  <path id="15" class="fil1" d="M2.201 1.425c-0.004,0.009 -0.011,0.016 -0.019,0.021 -0.008,0.005 -0.017,0.007 -0.025,0.005 0.009,-0.002 0.016,-0.005 0.022,-0.01 0.007,-0.005 0.012,-0.012 0.015,-0.019 0.006,-0.014 0.008,-0.032 0.004,-0.052 0.005,0.008 0.007,0.017 0.008,0.027 0.001,0.01 -0.001,0.019 -0.005,0.029zm-0.07 -0.025c-0.004,-0.008 -0.006,-0.016 -0.005,-0.024 0.001,-0.008 0.004,-0.014 0.009,-0.017 0.005,-0.003 0.011,-0.003 0.018,0 0.007,0.003 0.012,0.009 0.017,0.017 0.004,0.008 0.006,0.016 0.005,0.024 -0.001,0.008 -0.004,0.014 -0.009,0.017 -0.005,0.003 -0.011,0.003 -0.018,0 -0.007,-0.003 -0.012,-0.009 -0.017,-0.017zm-0.033 -0.172c0.006,-0.002 0.012,-0.004 0.017,-0.007 0.005,-0.004 0.01,-0.007 0.014,-0.012 0.004,-0.004 0.008,-0.009 0.011,-0.015 0.003,-0.005 0.005,-0.011 0.008,-0.018 0.001,0.014 -0.003,0.027 -0.013,0.039 -0.005,0.005 -0.011,0.009 -0.017,0.012 -0.007,0.003 -0.013,0.003 -0.019,0.002zm-0.008 -0.06c0.003,-0.005 0.006,-0.009 0.011,-0.012 0.004,-0.002 0.008,-0.002 0.012,0 0.003,0.002 0.005,0.006 0.006,0.011 0.001,0.005 -0.001,0.01 -0.003,0.016 -0.003,0.006 -0.006,0.009 -0.011,0.012 -0.004,0.002 -0.008,0.002 -0.012,0 -0.003,-0.002 -0.005,-0.006 -0.006,-0.011 -0.001,-0.005 0.001,-0.01 0.003,-0.016zm-0.065 -0.074c-0.006,0.007 -0.012,0.015 -0.019,0.025 -0.01,0.016 -0.018,0.035 -0.027,0.057 -0.006,0.018 -0.012,0.039 -0.018,0.063 0.002,-0.021 0.006,-0.043 0.012,-0.065 0.006,-0.022 0.015,-0.042 0.026,-0.06 0.013,-0.021 0.027,-0.036 0.044,-0.046 0.01,-0.006 0.02,-0.011 0.029,-0.013 0.011,-0.003 0.021,-0.004 0.03,-0.003 -0.021,0.002 -0.039,0.009 -0.056,0.021 -0.008,0.006 -0.016,0.013 -0.022,0.021zm0.164 0.158c-0.004,-0.002 -0.005,-0.006 -0.003,-0.014 0.001,-0.003 0.003,-0.007 0.006,-0.012l0.002 -0.003 0.002 -0.004c0.001,-0.003 0.003,-0.006 0.004,-0.009 0.007,-0.015 0.012,-0.029 0.014,-0.043 0.004,-0.02 0.004,-0.04 0.001,-0.061 -0.004,-0.023 -0.016,-0.043 -0.036,-0.059 -0.021,-0.017 -0.045,-0.025 -0.072,-0.026 -0.03,-0.001 -0.057,0.008 -0.083,0.027 -0.029,0.022 -0.052,0.056 -0.068,0.101 -0.017,0.047 -0.027,0.097 -0.028,0.152 -0.002,0.056 0.005,0.107 0.021,0.154 0.017,0.051 0.042,0.09 0.074,0.118 0.037,0.03 0.081,0.044 0.132,0.04 0.049,-0.004 0.088,-0.021 0.117,-0.052 0.027,-0.028 0.041,-0.063 0.044,-0.105 0.003,-0.041 -0.007,-0.08 -0.028,-0.117 -0.023,-0.04 -0.056,-0.068 -0.099,-0.087z"/>
  <path id="16" class="fil1" d="M2.609 1.434c-0.005,0.008 -0.011,0.013 -0.018,0.017 -0.008,0.004 -0.015,0.005 -0.023,0.003 0.016,-0.003 0.028,-0.011 0.035,-0.024 0.004,-0.005 0.006,-0.013 0.008,-0.021 0.001,-0.007 0.002,-0.015 0.002,-0.024 0.003,0.008 0.004,0.016 0.004,0.025 -0.001,0.009 -0.003,0.017 -0.008,0.024zm-0.067 -0.032c-0.004,-0.008 -0.005,-0.016 -0.004,-0.024 0.001,-0.008 0.004,-0.014 0.009,-0.017 0.006,-0.003 0.012,-0.002 0.018,0.001 0.007,0.004 0.012,0.009 0.016,0.017 0.004,0.008 0.005,0.016 0.004,0.024 -0.001,0.008 -0.004,0.013 -0.01,0.016 -0.005,0.003 -0.011,0.003 -0.017,-0.001 -0.007,-0.004 -0.012,-0.009 -0.016,-0.018zm-0.035 -0.343c-0.005,0.003 -0.01,0.006 -0.016,0.011 -0.009,0.008 -0.018,0.018 -0.026,0.029 -0.007,0.008 -0.014,0.02 -0.022,0.034 -0.003,0.005 -0.007,0.011 -0.011,0.018l-0.01 0.018c0.005,-0.016 0.01,-0.028 0.016,-0.039 0.006,-0.013 0.014,-0.025 0.022,-0.036 0.009,-0.012 0.019,-0.022 0.029,-0.029 0.013,-0.01 0.025,-0.014 0.037,-0.013 -0.006,0.001 -0.012,0.003 -0.018,0.007zm0.099 0.2c-0.013,-0.004 -0.021,-0.012 -0.025,-0.023 -0.003,-0.009 -0.003,-0.021 -0,-0.038 0.001,-0.003 0.001,-0.007 0.002,-0.012l0.002 -0.012c0.002,-0.011 0.004,-0.019 0.005,-0.026 0.003,-0.021 0.004,-0.04 0.002,-0.056 -0.003,-0.023 -0.011,-0.042 -0.024,-0.055 -0.014,-0.014 -0.03,-0.02 -0.048,-0.018 -0.02,0.002 -0.041,0.013 -0.061,0.034 -0.023,0.023 -0.044,0.056 -0.063,0.1 -0.019,0.045 -0.032,0.094 -0.037,0.146 -0.006,0.054 -0.003,0.104 0.008,0.15 0.012,0.05 0.033,0.088 0.063,0.116 0.033,0.031 0.075,0.046 0.126,0.045 0.048,-0.001 0.089,-0.016 0.12,-0.048 0.029,-0.028 0.047,-0.064 0.053,-0.107 0.006,-0.043 -0.001,-0.082 -0.021,-0.118 -0.022,-0.039 -0.056,-0.066 -0.101,-0.081zm0.159 -0.191c-0.004,0.004 -0.007,0.009 -0.009,0.016 -0.002,0.006 -0.003,0.012 -0.003,0.019 -0.001,0.01 0.001,0.024 0.003,0.041l0.004 0.02 0.004 0.021c-0.006,-0.015 -0.01,-0.028 -0.013,-0.04 -0.004,-0.016 -0.005,-0.03 -0.005,-0.043 0.001,-0.008 0.002,-0.016 0.004,-0.022 0.003,-0.008 0.007,-0.014 0.012,-0.018 0.01,-0.008 0.023,-0.012 0.038,-0.01 -0.014,0.002 -0.025,0.007 -0.034,0.015zm0.133 0.023c-0.011,-0.022 -0.025,-0.039 -0.042,-0.051 -0.015,-0.011 -0.032,-0.017 -0.05,-0.019 -0.017,-0.001 -0.032,0.002 -0.047,0.009 -0.014,0.007 -0.025,0.018 -0.031,0.032 -0.012,0.026 -0.012,0.064 0.001,0.114 0.002,0.008 0.005,0.018 0.008,0.031l0.005 0.016 0.005 0.016c0.007,0.025 0.011,0.046 0.013,0.063 0.004,0.04 0.006,0.081 0.005,0.124 -0,0.013 -0.001,0.03 -0.002,0.048l-0 0.011 -0 0.01c-0.001,0.008 -0.001,0.014 -0.001,0.019 -0.001,0.026 0.001,0.044 0.004,0.055 0.005,0.014 0.014,0.022 0.028,0.026 0.028,0.007 0.052,-0.009 0.075,-0.048 0.02,-0.034 0.035,-0.082 0.045,-0.143 0.01,-0.059 0.014,-0.117 0.011,-0.174 -0.003,-0.06 -0.012,-0.107 -0.028,-0.139z"/>
  <path id="17" class="fil1" d="M3.103 1.073c-0.002,0.001 -0.005,0.003 -0.008,0.004l-0.008 0.004 -0.008 0.005c-0.003,0.002 -0.005,0.004 -0.007,0.005 -0.008,0.006 -0.017,0.014 -0.027,0.023 -0.01,0.011 -0.018,0.021 -0.022,0.028 -0.012,0.019 -0.021,0.042 -0.024,0.069 -0.001,0.005 -0.002,0.012 -0.002,0.019l-0.001 0.019c-0.001,0.006 -0.001,0.012 -0.001,0.019l-0 0.019c-0.003,-0.027 -0.003,-0.053 -0.001,-0.077 0.002,-0.027 0.011,-0.051 0.024,-0.072l0.005 -0.008 0.006 -0.007c0.001,-0.002 0.003,-0.004 0.006,-0.007l0.003 -0.003 0.003 -0.004c0.011,-0.011 0.021,-0.018 0.029,-0.023 0.019,-0.013 0.042,-0.022 0.066,-0.026l-0.008 0.003 -0.008 0.003c-0.006,0.002 -0.011,0.005 -0.016,0.007zm0.268 0.077c-0.021,-0.05 -0.054,-0.086 -0.099,-0.108 -0.041,-0.02 -0.084,-0.026 -0.131,-0.017 -0.046,0.008 -0.085,0.029 -0.117,0.061 -0.035,0.035 -0.054,0.077 -0.058,0.127 -0.008,0.093 0.005,0.185 0.04,0.275 0.015,0.04 0.033,0.072 0.052,0.094 0.021,0.024 0.041,0.034 0.061,0.031 0.028,-0.004 0.045,-0.022 0.051,-0.054 0.007,-0.036 0.002,-0.099 -0.013,-0.187 -0.012,-0.07 -0.005,-0.107 0.022,-0.111 0.015,-0.002 0.027,0.01 0.035,0.037 0.008,0.025 0.011,0.056 0.01,0.094 -0.003,0.084 0.006,0.143 0.025,0.176 0.015,0.025 0.036,0.037 0.064,0.035 0.024,-0.001 0.044,-0.018 0.061,-0.05 0.015,-0.03 0.026,-0.068 0.032,-0.116 0.006,-0.048 0.006,-0.097 0,-0.146 -0.006,-0.053 -0.018,-0.1 -0.035,-0.14z"/>
  <path id="18" class="fil1" d="M3.799 1.065c-0.005,0.005 -0.01,0.011 -0.015,0.019 -0.008,0.011 -0.016,0.025 -0.026,0.043l-0.006 0.011 -0.006 0.011c-0.005,0.009 -0.009,0.016 -0.013,0.021 -0.006,0.009 -0.011,0.015 -0.016,0.02 -0.007,0.007 -0.014,0.011 -0.021,0.012 0.007,-0.003 0.013,-0.008 0.019,-0.015 0.004,-0.005 0.009,-0.012 0.014,-0.02 0.003,-0.005 0.007,-0.013 0.012,-0.022l0.012 -0.022c0.01,-0.018 0.019,-0.033 0.027,-0.043 0.006,-0.007 0.012,-0.014 0.018,-0.018 0.008,-0.006 0.016,-0.009 0.022,-0.009 -0.007,0.001 -0.013,0.005 -0.02,0.012zm-0.245 0.372c-0.006,0.005 -0.011,0.009 -0.015,0.012 -0.012,0.009 -0.021,0.018 -0.027,0.027 -0.004,0.006 -0.007,0.011 -0.009,0.017 -0.002,0.005 -0.004,0.012 -0.005,0.02 -0,-0.007 0,-0.014 0.002,-0.021 0.002,-0.007 0.005,-0.013 0.008,-0.019 0.006,-0.01 0.015,-0.02 0.027,-0.03 0.008,-0.007 0.019,-0.014 0.032,-0.023l0.008 -0.005 0.008 -0.005c0.006,-0.004 0.012,-0.008 0.016,-0.011 -0.007,0.008 -0.017,0.018 -0.029,0.027l-0.015 0.012zm-0.064 -0.336c-0.004,0.005 -0.006,0.012 -0.008,0.02 -0.002,0.007 -0.003,0.014 -0.003,0.023 -0.003,-0.007 -0.004,-0.015 -0.003,-0.024 0.001,-0.008 0.004,-0.016 0.008,-0.024 0.005,-0.007 0.011,-0.012 0.018,-0.016 0.007,-0.004 0.015,-0.005 0.022,-0.003 -0.015,0.003 -0.026,0.011 -0.035,0.024zm0.329 -0.08c-0.015,0 -0.031,0.008 -0.046,0.024 -0.011,0.012 -0.024,0.029 -0.037,0.052l-0.008 0.014 -0.004 0.007 -0.003 0.007c-0.006,0.011 -0.011,0.019 -0.014,0.024 -0.01,0.016 -0.017,0.024 -0.023,0.024 -0.006,0 -0.018,-0.011 -0.036,-0.033l-0.003 -0.004 -0.004 -0.004c-0.002,-0.003 -0.005,-0.006 -0.007,-0.008 -0.005,-0.006 -0.01,-0.012 -0.015,-0.017 -0.012,-0.013 -0.025,-0.025 -0.036,-0.036 -0.019,-0.017 -0.039,-0.025 -0.059,-0.025 -0.019,0 -0.035,0.007 -0.049,0.02 -0.014,0.014 -0.022,0.031 -0.025,0.051 -0.003,0.022 0.001,0.043 0.012,0.065 0.008,0.016 0.02,0.032 0.036,0.049 0.006,0.007 0.013,0.014 0.021,0.022l0.011 0.01 0.011 0.01c0.018,0.017 0.03,0.029 0.037,0.037 0.01,0.013 0.016,0.024 0.017,0.034 0.001,0.01 -0.005,0.021 -0.018,0.033 -0.005,0.004 -0.011,0.009 -0.02,0.015l-0.005 0.004 -0.006 0.004 -0.012 0.008c-0.019,0.014 -0.034,0.028 -0.044,0.041 -0.014,0.018 -0.021,0.039 -0.022,0.062 -0.001,0.017 0.002,0.034 0.009,0.048 0.007,0.015 0.016,0.027 0.029,0.036 0.028,0.02 0.064,0.024 0.106,0.01 0.056,-0.019 0.113,-0.071 0.169,-0.158 0.05,-0.078 0.083,-0.152 0.097,-0.223 0.014,-0.072 0.015,-0.126 0.002,-0.16 -0.011,-0.029 -0.031,-0.044 -0.06,-0.043z"/>
  <path id="19" class="fil1" d="M4.247 1.381c-0.002,0.001 -0.005,0.003 -0.008,0.006l-0.004 0.003 -0.004 0.003c-0.007,0.005 -0.014,0.008 -0.02,0.01 -0.008,0.002 -0.015,0.002 -0.021,0.001 0.013,-0.003 0.025,-0.008 0.037,-0.017l0.004 -0.003 0.004 -0.003c0.004,-0.003 0.007,-0.004 0.01,-0.006 0.008,-0.004 0.015,-0.005 0.021,-0.003 -0.006,0.001 -0.013,0.004 -0.019,0.008zm-0.22 -0.274c-0.013,0.015 -0.025,0.032 -0.035,0.052 -0.009,0.017 -0.017,0.037 -0.024,0.06 0.004,-0.022 0.01,-0.043 0.019,-0.063 0.009,-0.02 0.021,-0.038 0.035,-0.055 0.015,-0.017 0.032,-0.03 0.051,-0.038 0.01,-0.004 0.02,-0.007 0.03,-0.008 0.011,-0.002 0.021,-0.002 0.031,-0.001 -0.022,0.002 -0.042,0.007 -0.058,0.015 -0.018,0.01 -0.034,0.022 -0.048,0.038zm0.302 0.318c-0.003,-0.043 -0.018,-0.069 -0.043,-0.08 -0.011,-0.005 -0.022,-0.005 -0.035,-0.003 -0.012,0.003 -0.024,0.009 -0.035,0.019 -0.011,0.009 -0.022,0.013 -0.034,0.012 -0.011,-0.001 -0.021,-0.007 -0.031,-0.017 -0.009,-0.01 -0.016,-0.024 -0.021,-0.04 -0.005,-0.018 -0.005,-0.037 -0.003,-0.058 0.004,-0.03 0.017,-0.047 0.04,-0.051 0.016,-0.003 0.039,0.002 0.069,0.013 0.013,0.005 0.025,0.005 0.036,-0.001 0.01,-0.005 0.018,-0.014 0.024,-0.026 0.005,-0.013 0.007,-0.027 0.005,-0.043 -0.002,-0.017 -0.009,-0.033 -0.019,-0.049 -0.023,-0.034 -0.053,-0.057 -0.091,-0.069 -0.034,-0.012 -0.069,-0.013 -0.104,-0.003 -0.045,0.012 -0.082,0.043 -0.112,0.094 -0.032,0.055 -0.048,0.124 -0.048,0.206 0,0.093 0.022,0.165 0.066,0.218 0.021,0.025 0.045,0.043 0.073,0.055 0.028,0.012 0.058,0.016 0.091,0.013 0.055,-0.005 0.099,-0.026 0.132,-0.064 0.031,-0.036 0.045,-0.077 0.041,-0.124z"/>
  <path id="20" class="fil1" d="M4.622 1.151c-0.01,0.014 -0.02,0.026 -0.03,0.035 -0.013,0.012 -0.025,0.021 -0.037,0.026 0.01,-0.007 0.021,-0.017 0.033,-0.03 0.01,-0.011 0.019,-0.023 0.029,-0.035 0.005,-0.006 0.009,-0.013 0.013,-0.019l0.004 -0.005 0.003 -0.005c0.002,-0.004 0.005,-0.007 0.007,-0.01 0.005,-0.006 0.011,-0.011 0.018,-0.015 0.008,-0.004 0.015,-0.005 0.022,-0.005 -0.013,0.001 -0.025,0.009 -0.035,0.024 -0.002,0.002 -0.004,0.005 -0.006,0.01l-0.003 0.005 -0.003 0.005c-0.004,0.006 -0.008,0.012 -0.013,0.019zm-0.15 -0.091c-0.005,0.004 -0.01,0.008 -0.014,0.015 -0.007,0.009 -0.013,0.021 -0.019,0.037 -0.004,0.01 -0.008,0.023 -0.014,0.041l-0.006 0.021 -0.006 0.021c0.001,-0.017 0.003,-0.032 0.006,-0.044 0.003,-0.016 0.008,-0.03 0.013,-0.042 0.007,-0.017 0.014,-0.029 0.022,-0.038 0.005,-0.006 0.011,-0.01 0.017,-0.014 0.007,-0.003 0.014,-0.005 0.02,-0.004 -0.007,0.001 -0.013,0.004 -0.018,0.007zm0.171 0.24c-0.01,-0.006 -0.013,-0.012 -0.007,-0.017 0.002,-0.002 0.006,-0.005 0.012,-0.008l0.004 -0.002 0.005 -0.003c0.004,-0.002 0.008,-0.004 0.01,-0.005 0.019,-0.01 0.034,-0.021 0.046,-0.033 0.017,-0.017 0.03,-0.038 0.037,-0.062 0.007,-0.022 0.006,-0.043 -0.001,-0.064 -0.007,-0.018 -0.018,-0.032 -0.034,-0.041 -0.016,-0.009 -0.033,-0.011 -0.05,-0.006 -0.019,0.006 -0.036,0.02 -0.049,0.042 -0.023,0.038 -0.045,0.064 -0.066,0.078 -0.008,0.006 -0.014,0.007 -0.017,0.005 -0.003,-0.003 -0.002,-0.009 0.002,-0.019 0.018,-0.041 0.024,-0.075 0.017,-0.101 -0.006,-0.021 -0.019,-0.035 -0.04,-0.041 -0.043,-0.011 -0.077,0.012 -0.1,0.07 -0.019,0.046 -0.031,0.114 -0.037,0.202 -0.006,0.089 -0.002,0.161 0.011,0.215 0.016,0.066 0.044,0.098 0.085,0.096 0.037,-0.001 0.059,-0.031 0.065,-0.089 0.002,-0.019 0.002,-0.042 0,-0.066 -0.001,-0.008 -0.002,-0.017 -0.003,-0.026 -0,-0.003 -0.001,-0.007 -0.001,-0.01l-0 -0.004 -0 -0.002 0 -0.001c-0.001,-0.007 -0,-0.013 0.003,-0.015 0.003,-0.003 0.007,-0.002 0.013,0.003 0.014,0.013 0.027,0.044 0.039,0.095 0.008,0.032 0.019,0.059 0.034,0.079 0.014,0.019 0.03,0.031 0.047,0.038 0.017,0.006 0.033,0.006 0.049,-0.001 0.016,-0.007 0.03,-0.019 0.041,-0.037 0.012,-0.02 0.019,-0.042 0.019,-0.067 0.001,-0.024 -0.004,-0.049 -0.015,-0.074 -0.023,-0.054 -0.062,-0.097 -0.118,-0.131z"/>
  <g id="_1663398087968">
   <path class="fil0" d="M1.428 0.934c-0.003,0.003 -0.006,0.008 -0.008,0.014 -0.001,-0.006 0.001,-0.012 0.006,-0.017 0.002,-0.002 0.005,-0.004 0.007,-0.005 0.003,-0.001 0.006,-0.002 0.009,-0.001 -0.005,0.001 -0.01,0.004 -0.014,0.009zm0.014 -0.023c-0.009,0 -0.017,0.003 -0.024,0.01 -0.007,0.007 -0.011,0.015 -0.012,0.025 -0.001,0.01 0,0.019 0.005,0.027 0.005,0.008 0.012,0.014 0.021,0.016 0.01,0.003 0.02,0.001 0.029,-0.006 0.009,-0.007 0.014,-0.016 0.016,-0.028 0.002,-0.012 -0.001,-0.023 -0.008,-0.031 -0.007,-0.009 -0.016,-0.013 -0.026,-0.013z"/>
   <path id="1" class="fil0" d="M1.587 0.934c-0.003,0.003 -0.006,0.008 -0.008,0.014 -0.001,-0.006 0.001,-0.012 0.006,-0.017 0.002,-0.002 0.005,-0.004 0.007,-0.005 0.003,-0.001 0.006,-0.002 0.009,-0.001 -0.005,0.001 -0.01,0.004 -0.014,0.009zm0.014 -0.023c-0.009,0 -0.017,0.003 -0.024,0.01 -0.007,0.007 -0.011,0.015 -0.012,0.025 -0.001,0.01 0.001,0.019 0.005,0.027 0.005,0.008 0.012,0.014 0.021,0.016 0.01,0.003 0.02,0.001 0.029,-0.006 0.009,-0.007 0.014,-0.016 0.016,-0.028 0.002,-0.012 -0.001,-0.023 -0.008,-0.031 -0.007,-0.009 -0.016,-0.013 -0.026,-0.013z"/>
   <path class="fil1" d="M1.423 0.917c-0.003,0.003 -0.006,0.008 -0.008,0.014 -0.001,-0.006 0.001,-0.012 0.006,-0.017 0.002,-0.002 0.005,-0.004 0.007,-0.005 0.003,-0.001 0.006,-0.002 0.009,-0.001 -0.005,0.001 -0.01,0.004 -0.014,0.009zm0.014 -0.023c-0.009,0 -0.017,0.003 -0.024,0.01 -0.007,0.007 -0.011,0.015 -0.012,0.025 -0.001,0.01 0.001,0.019 0.005,0.027 0.005,0.008 0.012,0.014 0.021,0.016 0.01,0.003 0.02,0.001 0.029,-0.006 0.009,-0.007 0.014,-0.016 0.016,-0.028 0.002,-0.012 -0.001,-0.023 -0.008,-0.031 -0.007,-0.009 -0.016,-0.013 -0.026,-0.013z"/>
   <path id="1" class="fil1" d="M1.582 0.917c-0.003,0.003 -0.006,0.008 -0.008,0.014 -0.001,-0.006 0.001,-0.012 0.006,-0.017 0.002,-0.002 0.005,-0.004 0.007,-0.005 0.003,-0.001 0.006,-0.002 0.009,-0.001 -0.005,0.001 -0.01,0.004 -0.014,0.009zm0.014 -0.023c-0.009,0 -0.017,0.003 -0.024,0.01 -0.007,0.007 -0.011,0.015 -0.012,0.025 -0.001,0.01 0.001,0.019 0.005,0.027 0.005,0.008 0.012,0.014 0.021,0.016 0.01,0.003 0.02,0.001 0.029,-0.006 0.009,-0.007 0.014,-0.016 0.016,-0.028 0.002,-0.012 -0.001,-0.023 -0.008,-0.031 -0.007,-0.009 -0.016,-0.013 -0.026,-0.013z"/>
  </g>
  <g id="_1663398089088">
   <path class="fil0" d="M2.593 0.04c-0.003,0.003 -0.006,0.008 -0.008,0.014 -0.001,-0.006 0.001,-0.012 0.006,-0.017 0.002,-0.002 0.005,-0.004 0.007,-0.005 0.003,-0.001 0.006,-0.002 0.009,-0.001 -0.005,0.001 -0.01,0.004 -0.014,0.009zm0.014 -0.023c-0.009,0 -0.017,0.003 -0.024,0.01 -0.007,0.007 -0.011,0.015 -0.012,0.025 -0.001,0.01 0.001,0.019 0.005,0.027 0.005,0.008 0.012,0.014 0.021,0.016 0.01,0.003 0.02,0.001 0.029,-0.006 0.009,-0.007 0.014,-0.016 0.016,-0.028 0.002,-0.012 -0.001,-0.023 -0.008,-0.031 -0.007,-0.009 -0.016,-0.013 -0.026,-0.013z"/>
   <path id="1" class="fil0" d="M2.752 0.04c-0.003,0.003 -0.006,0.008 -0.008,0.014 -0.001,-0.006 0.001,-0.012 0.006,-0.017 0.002,-0.002 0.005,-0.004 0.007,-0.005 0.003,-0.001 0.006,-0.002 0.009,-0.001 -0.005,0.001 -0.01,0.004 -0.014,0.009zm0.014 -0.023c-0.009,0 -0.017,0.003 -0.024,0.01 -0.007,0.007 -0.011,0.015 -0.012,0.025 -0.001,0.01 0.001,0.019 0.005,0.027 0.005,0.008 0.012,0.014 0.021,0.016 0.01,0.003 0.02,0.001 0.029,-0.006 0.009,-0.007 0.014,-0.016 0.016,-0.028 0.002,-0.012 -0.001,-0.023 -0.008,-0.031 -0.007,-0.009 -0.016,-0.013 -0.026,-0.013z"/>
   <path class="fil1" d="M2.588 0.023c-0.003,0.003 -0.006,0.008 -0.008,0.014 -0.001,-0.006 0.001,-0.012 0.006,-0.017 0.002,-0.002 0.005,-0.004 0.007,-0.005 0.003,-0.001 0.006,-0.002 0.009,-0.001 -0.005,0.001 -0.01,0.004 -0.014,0.009zm0.014 -0.023c-0.009,0 -0.017,0.003 -0.024,0.01 -0.007,0.007 -0.011,0.015 -0.012,0.025 -0.001,0.01 0.001,0.019 0.005,0.027 0.005,0.008 0.012,0.014 0.021,0.016 0.01,0.003 0.02,0.001 0.029,-0.006 0.009,-0.007 0.014,-0.016 0.016,-0.028 0.002,-0.012 -0.001,-0.023 -0.008,-0.031 -0.007,-0.009 -0.016,-0.013 -0.026,-0.013z"/>
   <path id="1" class="fil1" d="M2.747 0.023c-0.003,0.003 -0.006,0.008 -0.008,0.014 -0.001,-0.006 0.001,-0.012 0.006,-0.017 0.002,-0.002 0.005,-0.004 0.007,-0.005 0.003,-0.001 0.006,-0.002 0.009,-0.001 -0.005,0.001 -0.01,0.004 -0.014,0.009zm0.014 -0.023c-0.009,0 -0.017,0.003 -0.024,0.01 -0.007,0.007 -0.011,0.015 -0.012,0.025 -0.001,0.01 0.001,0.019 0.005,0.027 0.005,0.008 0.012,0.014 0.021,0.016 0.01,0.003 0.02,0.001 0.029,-0.006 0.009,-0.007 0.014,-0.016 0.016,-0.028 0.002,-0.012 -0.001,-0.023 -0.008,-0.031 -0.007,-0.009 -0.016,-0.013 -0.026,-0.013z"/>
  </g>
 </g>
</svg>
