<?xml version="1.0" encoding="UTF-8"?>
<!DOCTYPE svg PUBLIC "-//W3C//DTD SVG 1.1//EN" "http://www.w3.org/Graphics/SVG/1.1/DTD/svg11.dtd">
<!-- Creator: CorelDRAW 2019 (64-Bit) -->
<svg xmlns="http://www.w3.org/2000/svg" xml:space="preserve" width="0.59611cm" height="0.14842cm" version="1.1" style="shape-rendering:geometricPrecision; text-rendering:geometricPrecision; image-rendering:optimizeQuality; fill-rule:evenodd; clip-rule:evenodd"
viewBox="0 0 0.316 0.079"
 xmlns:xlink="http://www.w3.org/1999/xlink"
 xmlns:xodm="http://www.corel.com/coreldraw/odm/2003">
 <defs>
  <style type="text/css">
   <![CDATA[
    .fil0 {fill:#A39F6B;fill-rule:nonzero}
   ]]>
  </style>
 </defs>
 <g id="Слой_x0020_1">
  <metadata id="CorelCorpID_0Corel-Layer"/>
  <path class="fil0" d="M0.062 0.006c-0.001,0.001 -0.001,0.002 -0.002,0.004 -0,0.001 -0,0.003 -0.001,0.005l0 0.001 -0 0.001c0,0.001 -0,0.002 -0,0.003l-0 -0.002c-0,-0.001 -0,-0.002 -0,-0.003 -0,-0.002 0,-0.004 0,-0.005 0,-0.002 0.001,-0.004 0.002,-0.005 0.001,-0.001 0.001,-0.001 0.002,-0.001 0.001,-0 0.002,-0 0.002,-0 -0.002,0 -0.003,0.001 -0.004,0.002zm-0.005 0.04c-0.001,0.001 -0.001,0.001 -0.002,0.001 -0.001,0 -0.002,0 -0.003,0 0.002,-0 0.003,-0.001 0.004,-0.002 0.001,-0.001 0.002,-0.002 0.003,-0.004 -0,0.002 -0.001,0.004 -0.002,0.005zm-0.019 -0.034c-0,0.001 -0.001,0.001 -0.001,0.002 -0,0.001 -0.001,0.001 -0.001,0.002 -0,0.001 -0.001,0.002 -0.001,0.004 -0,0.001 -0,0.003 -0,0.004 -0.001,-0.003 -0,-0.006 0,-0.009 0.001,-0.002 0.001,-0.003 0.002,-0.004 0.001,-0.001 0.001,-0.001 0.002,-0.001 0.001,-0 0.001,-0 0.002,-0 -0.001,0 -0.002,0.001 -0.003,0.002zm-0.006 0.035c-0.001,0.001 -0.001,0.001 -0.002,0.001 -0.001,0 -0.001,0 -0.002,0 0.001,-0 0.003,-0.001 0.004,-0.002 0,-0 0.001,-0.001 0.001,-0.001l0.001 -0.001 0.001 -0.001c-0,0.002 -0.001,0.003 -0.002,0.004zm-0.018 -0.04c-0.001,0.001 -0.002,0.002 -0.003,0.003 -0.002,0.002 -0.003,0.005 -0.004,0.008 -0.001,0.002 -0.001,0.005 -0.002,0.009 -0,0.002 -0.001,0.005 -0.001,0.009 -0,-0.003 -0,-0.006 0,-0.009 0,-0.003 0.001,-0.006 0.002,-0.009 0.001,-0.003 0.002,-0.006 0.004,-0.008 0.001,-0.001 0.002,-0.002 0.003,-0.003 0.001,-0.001 0.003,-0.001 0.004,-0.001 -0.001,0 -0.003,0.001 -0.004,0.002zm0.053 -0.007c-0.004,-0 -0.007,0.001 -0.009,0.004 -0.002,0.003 -0.003,0.008 -0.003,0.014 0.001,0.01 0.001,0.016 0,0.02 -0.001,0.004 -0.002,0.005 -0.004,0.005 -0.002,-0 -0.003,-0.006 -0.002,-0.018 0,-0.007 -0,-0.011 -0.002,-0.015 -0.002,-0.003 -0.004,-0.005 -0.007,-0.005 -0.004,0 -0.006,0.002 -0.008,0.006 -0.002,0.003 -0.002,0.008 -0.002,0.013 0.001,0.013 -0.001,0.02 -0.004,0.02 -0.001,0 -0.002,-0.001 -0.003,-0.004 -0.001,-0.003 -0.001,-0.008 0,-0.014 0.002,-0.016 0,-0.024 -0.006,-0.025 -0.002,-0 -0.005,0 -0.007,0.002 -0.002,0.002 -0.004,0.004 -0.006,0.007 -0.004,0.007 -0.006,0.017 -0.005,0.03 0.001,0.01 0.003,0.019 0.006,0.025 0.003,0.004 0.006,0.008 0.011,0.01 0.005,0.002 0.013,0.004 0.023,0.003 0.012,-0 0.02,-0.002 0.025,-0.006 0.005,-0.004 0.008,-0.009 0.01,-0.017 0.001,-0.003 0.001,-0.006 0.002,-0.009 0,-0.001 0,-0.002 0,-0.004 0,-0 0,-0.001 0,-0.002l0 -0.001 0 -0.001c0.001,-0.013 0,-0.022 -0.001,-0.028 -0.002,-0.007 -0.005,-0.01 -0.01,-0.011zm0.051 0.054c-0.001,0.001 -0.001,0.002 -0.002,0.002 -0.001,0.001 -0.002,0.001 -0.003,0.001 0.002,-0.001 0.003,-0.002 0.004,-0.004 0.001,-0.001 0.002,-0.003 0.002,-0.006 0,0.002 0,0.004 -0.001,0.006zm-0.011 -0.006c-0,-0.001 0,-0.003 0.001,-0.004 0.001,-0.001 0.001,-0.002 0.003,-0.002 0.001,-0 0.002,0 0.003,0.001 0.001,0.001 0.001,0.002 0.002,0.003 0,0.001 0,0.003 -0.001,0.004 -0.001,0.001 -0.001,0.002 -0.003,0.002 -0.001,0 -0.002,-0 -0.003,-0.001 -0.001,-0.001 -0.001,-0.002 -0.002,-0.003zm-0.003 -0.042c-0.003,0.001 -0.005,0.003 -0.007,0.005 -0.002,0.002 -0.004,0.004 -0.005,0.007l-0.001 0.001 -0 0.001 -0.001 0.002 -0.001 0.002 -0.001 0.002c0.001,-0.003 0.002,-0.006 0.003,-0.009 0.001,-0.003 0.003,-0.005 0.005,-0.007 0.002,-0.002 0.005,-0.004 0.007,-0.005 0.001,-0 0.003,-0.001 0.004,-0.001l0.001 -0 0.001 -0 0.002 0c-0.003,0 -0.006,0.001 -0.008,0.002zm0.017 -0.005c-0.01,-0.003 -0.019,-0.001 -0.026,0.006 -0.006,0.006 -0.01,0.014 -0.011,0.024 -0.001,0.01 -0,0.02 0.003,0.029 0.004,0.01 0.01,0.015 0.018,0.018 0.008,0.002 0.015,0 0.022,-0.006 0.006,-0.006 0.011,-0.014 0.013,-0.024 0.003,-0.01 0.003,-0.02 -0,-0.028 -0.003,-0.009 -0.009,-0.015 -0.019,-0.018zm0.07 0.004c-0,0 -0.001,0.001 -0.001,0.001 -0.001,0.001 -0.001,0.002 -0.001,0.004 -0,0.002 -0.001,0.005 -0,0.008l0 0.001 0 0.001c0,0.001 0,0.001 -0,0.002 -0,0.001 -0,0.003 -0.001,0.004 -0.001,0.001 -0.001,0.002 -0.002,0.003 -0.001,0.001 -0.002,0.002 -0.003,0.002 0.002,-0.001 0.004,-0.003 0.005,-0.006 0,-0.001 0.001,-0.003 0.001,-0.004 0,-0.001 0,-0.001 0,-0.002l-0 -0.001 0 -0.001c-0,-0.003 0,-0.006 0.001,-0.008 0,-0.002 0.001,-0.003 0.002,-0.004 0.001,-0.001 0.001,-0.001 0.002,-0.001 0,-0 0.001,-0 0.002,-0 -0.001,0 -0.001,0 -0.002,0.001zm-0.034 0.001c-0.001,0.001 -0.002,0.003 -0.003,0.005 -0.001,0.002 -0.001,0.004 -0.002,0.006l-0.001 0.003 -0.001 0.003c0,-0.004 0.001,-0.008 0.002,-0.012 0.001,-0.002 0.002,-0.004 0.003,-0.005 0.001,-0.001 0.002,-0.001 0.002,-0.002 0.001,-0 0.002,-0.001 0.003,-0 -0.002,0 -0.003,0.001 -0.005,0.003zm0.036 -0.006c-0.003,0 -0.006,0.002 -0.007,0.005 -0.001,0.003 -0.002,0.008 -0.002,0.014 0,0.003 -0,0.005 -0.002,0.006 -0.001,0.001 -0.002,0.002 -0.004,0.002 -0.002,-0 -0.003,-0.001 -0.004,-0.002 -0.001,-0.001 -0.001,-0.003 -0.001,-0.006 0.001,-0.006 0,-0.011 -0.002,-0.015 -0.002,-0.003 -0.004,-0.005 -0.008,-0.005 -0.003,-0.001 -0.006,0 -0.008,0.002 -0.002,0.002 -0.004,0.005 -0.005,0.008 -0.002,0.007 -0.003,0.015 -0.003,0.024 -0,0.009 0.001,0.018 0.003,0.026 0.001,0.006 0.003,0.01 0.006,0.013 0.002,0.002 0.005,0.003 0.008,0.003 0.006,-0.001 0.009,-0.006 0.009,-0.015 -0,-0.007 0.001,-0.01 0.004,-0.01 0.002,0 0.003,0.001 0.004,0.002 0.001,0.002 0.002,0.004 0.001,0.008 -0,0.006 0.001,0.011 0.003,0.014 0.002,0.003 0.005,0.004 0.008,0.004 0.006,0 0.01,-0.004 0.013,-0.012 0.002,-0.006 0.003,-0.016 0.003,-0.029 0,-0.01 -0.001,-0.019 -0.004,-0.026 -0.003,-0.007 -0.007,-0.011 -0.011,-0.01zm0.054 0.055l-0.001 0c-0.001,0 -0.001,0 -0.002,0 -0.001,0 -0.002,0 -0.003,0 0.001,-0 0.002,-0.001 0.003,-0.001l0.001 -0 0.001 -0c0.001,-0 0.001,-0 0.002,-0.001 0.001,-0 0.002,-0.001 0.003,-0.001 0.001,-0 0.002,-0 0.003,0 -0.002,0 -0.004,0.001 -0.006,0.002l-0.001 0zm-0.015 -0.051c-0.002,0 -0.003,0.001 -0.004,0.002 -0.001,0.001 -0.003,0.002 -0.004,0.003 -0.001,0.001 -0.002,0.002 -0.003,0.004 -0.001,0.002 -0.002,0.005 -0.003,0.009 -0,0.002 -0.001,0.003 -0.001,0.005 -0,0.001 -0,0.002 -0,0.002l-0 0.003c0,-0.004 0,-0.007 0.001,-0.01 0.001,-0.004 0.002,-0.007 0.003,-0.01 0.001,-0.002 0.002,-0.003 0.003,-0.004 0.001,-0.001 0.003,-0.002 0.004,-0.003 0.001,-0.001 0.003,-0.001 0.004,-0.002 0.002,-0 0.003,-0 0.005,-0 -0.002,0 -0.003,0 -0.005,0.001zm0.01 0.029l0 -0c0,-0 0.001,-0 0.001,-0 0.001,-0 0.001,-0 0.002,0 0.001,0 0.001,0.001 0.001,0.001 -0,-0 -0.001,-0 -0.002,-0 -0.001,0 -0.001,0 -0.002,0l-0 0 -0 0c-0,0 -0.001,0 -0.001,0 -0.001,0 -0.001,-0 -0.002,-0l0.001 -0 0.001 -0 0 -0zm0.002 0.018c-0.002,0.001 -0.003,0.001 -0.004,0 -0.001,-0 -0.002,-0.001 -0.002,-0.002 -0,-0.001 -0,-0.002 0,-0.003 0.001,-0.001 0.001,-0.002 0.003,-0.002 0.004,-0 0.006,-0.001 0.008,-0.003 0.002,-0.002 0.002,-0.004 0.002,-0.006 -0,-0.002 -0.001,-0.004 -0.003,-0.005 -0.002,-0.001 -0.004,-0.001 -0.007,-0.001 -0.002,0.001 -0.004,-0 -0.004,-0.002 -0,-0.001 -0,-0.002 -0,-0.002 0,-0.001 0.001,-0.002 0.001,-0.002 0.001,-0.001 0.002,-0.001 0.004,-0.002 0.001,-0 0.002,-0 0.003,-0l0.001 -0 0.001 -0c0.002,-0 0.004,-0.001 0.005,-0.001 0.002,-0.001 0.003,-0.002 0.004,-0.004 0.001,-0.003 0.001,-0.006 -0.002,-0.009 -0.002,-0.003 -0.005,-0.005 -0.009,-0.007 -0.004,-0.002 -0.008,-0.002 -0.013,-0.002 -0.005,0.001 -0.009,0.003 -0.012,0.006 -0.003,0.003 -0.005,0.008 -0.007,0.015 -0.001,0.006 -0.002,0.013 -0.002,0.021 0,0.008 0.001,0.014 0.003,0.02 0.002,0.006 0.005,0.011 0.008,0.013 0.003,0.002 0.007,0.003 0.011,0.003 0.004,-0 0.008,-0.001 0.013,-0.003 0.004,-0.002 0.008,-0.004 0.01,-0.007 0.003,-0.003 0.004,-0.006 0.004,-0.009 0,-0.004 -0.001,-0.007 -0.005,-0.008 -0.003,-0.001 -0.008,-0.001 -0.013,0.001zm0.057 -0.019c-0,0.001 -0.001,0.002 -0.002,0.003 -0.001,0.001 -0.002,0.002 -0.003,0.002 -0.001,0 -0.002,0.001 -0.003,0 0.001,-0 0.002,-0.001 0.003,-0.001 0.001,-0.001 0.002,-0.001 0.002,-0.002 0.001,-0.001 0.002,-0.003 0.003,-0.005 0,0.001 -0,0.002 -0,0.003zm-0.009 -0.005c0.001,-0.001 0.001,-0.002 0.002,-0.002 0.001,-0 0.002,-0.001 0.002,-0 0.001,0 0.001,0.001 0.001,0.002 0,0.001 -0,0.002 -0.001,0.003 -0,0.001 -0.001,0.002 -0.002,0.002 -0.001,0 -0.002,0.001 -0.002,0 -0.001,-0 -0.001,-0.001 -0.001,-0.002 -0,-0.001 0,-0.002 0.001,-0.003zm-0.008 -0.022c-0.002,0.001 -0.004,0.003 -0.006,0.005 -0.002,0.002 -0.003,0.004 -0.004,0.007 -0.001,0.002 -0.002,0.005 -0.003,0.008 0,-0.001 0,-0.002 0.001,-0.004 0,-0.001 0.001,-0.003 0.001,-0.004 0.001,-0.003 0.002,-0.005 0.004,-0.007 0.002,-0.002 0.004,-0.004 0.006,-0.005 0.001,-0.001 0.002,-0.001 0.004,-0.001 0.001,-0 0.003,-0 0.004,-0 -0.003,0 -0.005,0.001 -0.007,0.002zm0.009 -0.006c-0.007,-0 -0.012,0.002 -0.017,0.006 -0.004,0.004 -0.007,0.009 -0.008,0.015 -0.001,0.006 -0.002,0.013 -0.001,0.02 0.001,0.007 0.002,0.013 0.005,0.019 0.002,0.006 0.005,0.01 0.008,0.013 0.003,0.003 0.005,0.004 0.008,0.004 0.002,0 0.005,-0.001 0.006,-0.002 0.002,-0.002 0.003,-0.004 0.003,-0.007 0,-0.002 0,-0.005 -0,-0.007 -0,-0.001 -0,-0.002 -0.001,-0.003l-0 -0.002c-0,-0.001 -0,-0.001 -0,-0.001 -0,-0.002 -0,-0.004 0,-0.005 0,-0.001 0.001,-0.003 0.003,-0.004 0.005,-0.003 0.01,-0.007 0.012,-0.012 0.003,-0.005 0.004,-0.01 0.003,-0.016 -0.001,-0.005 -0.003,-0.01 -0.006,-0.013 -0.004,-0.004 -0.009,-0.006 -0.016,-0.006z"/>
 </g>
</svg>
