<?xml version="1.0" encoding="UTF-8"?>
<!DOCTYPE svg PUBLIC "-//W3C//DTD SVG 1.1//EN" "http://www.w3.org/Graphics/SVG/1.1/DTD/svg11.dtd">
<!-- Creator: CorelDRAW 2019 (64-Bit) -->
<svg xmlns="http://www.w3.org/2000/svg" xml:space="preserve" width="1.95337cm" height="0.29903cm" version="1.1" style="shape-rendering:geometricPrecision; text-rendering:geometricPrecision; image-rendering:optimizeQuality; fill-rule:evenodd; clip-rule:evenodd"
viewBox="0 0 4.201 0.643"
 xmlns:xlink="http://www.w3.org/1999/xlink"
 xmlns:xodm="http://www.corel.com/coreldraw/odm/2003">
 <defs>
  <style type="text/css">
   <![CDATA[
    .fil0 {fill:#A39F6B;fill-rule:nonzero}
   ]]>
  </style>
 </defs>
 <g id="Слой_x0020_1">
  <metadata id="CorelCorpID_0Corel-Layer"/>
  <g id="_2361835235216">
   <path class="fil0" d="M0.054 0.076c-0.001,0 -0.002,0.001 -0.003,0.002l-0.003 0.002 -0.003 0.002c-0.001,0.001 -0.002,0.001 -0.003,0.002 -0.003,0.002 -0.007,0.005 -0.01,0.009 -0.004,0.004 -0.007,0.008 -0.009,0.011 -0.005,0.007 -0.008,0.016 -0.009,0.027 -0,0.002 -0.001,0.005 -0.001,0.007l-0 0.007c-0,0.002 -0,0.005 -0,0.007l-0 0.007c-0.001,-0.01 -0.001,-0.02 -0,-0.03 0.001,-0.01 0.004,-0.02 0.009,-0.028l0.002 -0.003 0.002 -0.003c0,-0.001 0.001,-0.002 0.002,-0.003l0.001 -0.001 0.001 -0.001c0.004,-0.004 0.008,-0.007 0.011,-0.009 0.008,-0.005 0.016,-0.008 0.026,-0.01l-0.003 0.001 -0.003 0.001c-0.002,0.001 -0.004,0.002 -0.006,0.003zm0.104 0.03c-0.008,-0.019 -0.021,-0.033 -0.038,-0.042 -0.016,-0.008 -0.033,-0.01 -0.05,-0.007 -0.018,0.003 -0.033,0.011 -0.045,0.024 -0.013,0.013 -0.021,0.03 -0.022,0.049 -0.003,0.036 0.002,0.072 0.015,0.106 0.006,0.016 0.013,0.028 0.02,0.036 0.008,0.009 0.016,0.013 0.024,0.012 0.011,-0.001 0.018,-0.008 0.02,-0.021 0.003,-0.014 0.001,-0.038 -0.005,-0.072 -0.005,-0.027 -0.002,-0.042 0.008,-0.043 0.006,-0.001 0.01,0.004 0.014,0.014 0.003,0.01 0.004,0.022 0.004,0.036 -0.001,0.032 0.002,0.055 0.01,0.068 0.006,0.01 0.014,0.014 0.025,0.013 0.009,-0.001 0.017,-0.007 0.024,-0.019 0.006,-0.011 0.01,-0.026 0.012,-0.045 0.002,-0.018 0.002,-0.037 0,-0.057 -0.002,-0.02 -0.007,-0.039 -0.014,-0.054zm0.129 0.045c-0.001,0.003 -0.003,0.006 -0.005,0.008 -0.002,0.003 -0.005,0.004 -0.007,0.006 -0.003,0.001 -0.006,0.002 -0.009,0.001 0.003,-0.001 0.006,-0.002 0.008,-0.003 0.002,-0.002 0.005,-0.003 0.006,-0.005 0.004,-0.004 0.007,-0.009 0.008,-0.016 0,0.003 -0,0.006 -0.001,0.009zm-0.027 -0.014c0.002,-0.003 0.004,-0.006 0.006,-0.007 0.003,-0.001 0.005,-0.002 0.007,-0 0.002,0.001 0.003,0.003 0.004,0.006 0,0.003 -0,0.006 -0.002,0.009 -0.001,0.003 -0.003,0.006 -0.006,0.007 -0.003,0.001 -0.005,0.001 -0.007,0 -0.002,-0.001 -0.003,-0.003 -0.004,-0.006 -0,-0.003 0,-0.006 0.001,-0.009zm-0.023 -0.063c-0.007,0.003 -0.012,0.008 -0.017,0.014 -0.004,0.005 -0.008,0.012 -0.012,0.019 -0.003,0.006 -0.005,0.013 -0.007,0.022 0,-0.003 0.001,-0.007 0.002,-0.012 0.001,-0.004 0.002,-0.008 0.004,-0.011 0.003,-0.008 0.007,-0.015 0.012,-0.02 0.005,-0.006 0.011,-0.011 0.018,-0.014 0.003,-0.001 0.007,-0.003 0.011,-0.003 0.004,-0.001 0.008,-0.001 0.011,-0.001 -0.008,0.001 -0.015,0.003 -0.021,0.006zm0.028 -0.019c-0.02,-0 -0.036,0.006 -0.049,0.018 -0.011,0.011 -0.02,0.026 -0.024,0.045 -0.004,0.018 -0.005,0.037 -0.003,0.058 0.002,0.02 0.007,0.039 0.014,0.057 0.007,0.017 0.015,0.03 0.024,0.039 0.008,0.008 0.016,0.012 0.024,0.013 0.007,0.001 0.013,-0.002 0.019,-0.007 0.005,-0.005 0.008,-0.012 0.009,-0.021 0.001,-0.006 0.001,-0.013 -0,-0.021 -0,-0.002 -0.001,-0.005 -0.002,-0.009l-0.001 -0.004c-0,-0.002 -0.001,-0.003 -0.001,-0.004 -0.001,-0.006 -0.001,-0.011 0,-0.015 0.001,-0.004 0.004,-0.008 0.009,-0.01 0.016,-0.008 0.028,-0.02 0.036,-0.036 0.008,-0.014 0.01,-0.03 0.009,-0.045 -0.002,-0.016 -0.008,-0.029 -0.019,-0.039 -0.012,-0.011 -0.027,-0.017 -0.046,-0.017zm0.18 0.158c-0.002,0.003 -0.004,0.005 -0.007,0.006 -0.003,0.002 -0.006,0.002 -0.008,0.002 0.005,-0.002 0.01,-0.006 0.013,-0.01 0.003,-0.004 0.005,-0.01 0.006,-0.017 0.001,0.007 0,0.013 -0.004,0.018zm-0.031 -0.016c-0.001,-0.004 0,-0.008 0.002,-0.011 0.002,-0.003 0.004,-0.005 0.007,-0.006 0.003,-0.001 0.006,0 0.009,0.003 0.003,0.002 0.004,0.006 0.005,0.01 0.001,0.004 0,0.008 -0.002,0.011 -0.002,0.003 -0.004,0.005 -0.007,0.006 -0.003,0.001 -0.006,-0 -0.009,-0.003 -0.003,-0.002 -0.004,-0.006 -0.005,-0.01zm-0.008 -0.123c-0.008,0.003 -0.014,0.008 -0.02,0.014 -0.005,0.005 -0.01,0.012 -0.015,0.02l-0.001 0.003 -0.001 0.003 -0.003 0.006 -0.002 0.006 -0.002 0.006c0.002,-0.009 0.004,-0.017 0.008,-0.025 0.004,-0.008 0.009,-0.016 0.015,-0.022 0.006,-0.007 0.014,-0.011 0.021,-0.014 0.004,-0.001 0.008,-0.002 0.012,-0.003l0.003 -0 0.003 -0 0.006 0c-0.009,0.001 -0.017,0.003 -0.024,0.006zm0.049 -0.015c-0.03,-0.008 -0.056,-0.003 -0.076,0.016 -0.018,0.017 -0.029,0.04 -0.033,0.071 -0.004,0.03 -0.001,0.058 0.01,0.084 0.011,0.028 0.029,0.045 0.053,0.052 0.022,0.007 0.043,0 0.063,-0.019 0.018,-0.018 0.031,-0.041 0.039,-0.071 0.008,-0.03 0.008,-0.058 -0.001,-0.082 -0.009,-0.027 -0.028,-0.044 -0.055,-0.052zm0.19 0.022c-0.003,0.003 -0.005,0.007 -0.008,0.012 -0.005,0.008 -0.009,0.016 -0.012,0.026l-0.002 0.007 -0.002 0.007c-0.002,0.006 -0.004,0.011 -0.005,0.014 -0.002,0.006 -0.005,0.01 -0.007,0.013 -0.002,0.002 -0.004,0.003 -0.006,0.004 -0.002,0.001 -0.004,0.001 -0.007,0.001 0.003,-0 0.005,-0.001 0.006,-0.001 0.002,-0.001 0.003,-0.003 0.005,-0.005 0.002,-0.003 0.004,-0.007 0.006,-0.013l0.002 -0.007 0.002 -0.007c0.002,-0.006 0.003,-0.01 0.005,-0.014 0.004,-0.01 0.008,-0.018 0.013,-0.026 0.006,-0.01 0.013,-0.016 0.02,-0.02 -0.004,0.003 -0.007,0.006 -0.01,0.01zm-0.097 0.037c-0.001,0.006 -0.003,0.014 -0.004,0.023l-0.001 0.012 -0.001 0.012c-0.001,-0.023 0.002,-0.044 0.007,-0.062 0.001,-0.004 0.002,-0.007 0.003,-0.01 0.002,-0.004 0.003,-0.007 0.005,-0.01 0.005,-0.007 0.01,-0.011 0.016,-0.01 -0.008,0.001 -0.014,0.007 -0.018,0.018 -0.002,0.004 -0.003,0.009 -0.005,0.014 -0.001,0.002 -0.001,0.004 -0.002,0.007l-0.001 0.003 -0 0.001 -0 0.001zm0.135 -0.057c-0.012,-0.008 -0.024,-0.007 -0.037,0.002 -0.01,0.008 -0.019,0.02 -0.027,0.036 -0.003,0.005 -0.005,0.012 -0.007,0.019 -0.001,0.003 -0.002,0.006 -0.003,0.009l-0.001 0.004 -0.001 0.002 -0.001 0.002c-0.002,0.006 -0.003,0.01 -0.004,0.012 -0.001,0.003 -0.003,0.005 -0.004,0.004 -0.003,-0 -0.004,-0.002 -0.004,-0.006 -0,-0.004 0,-0.012 0.002,-0.025 0.003,-0.023 0.002,-0.04 -0.004,-0.05 -0.005,-0.008 -0.012,-0.011 -0.023,-0.009 -0.013,0.002 -0.023,0.015 -0.03,0.039 -0.007,0.023 -0.01,0.051 -0.009,0.085 0.002,0.061 0.018,0.094 0.05,0.099 0.009,0.001 0.018,-0.001 0.028,-0.007 0.009,-0.006 0.016,-0.014 0.022,-0.024 0.005,-0.009 0.01,-0.017 0.014,-0.025 0.001,-0.003 0.003,-0.006 0.004,-0.009 0.001,-0.002 0.002,-0.004 0.003,-0.006 0.002,-0.004 0.003,-0.006 0.003,-0.007 0.001,-0.001 0.002,-0.001 0.003,-0.001 0.001,0 0.001,0.005 0,0.013l-0 0.003 -0 0.003c-0,0.003 -0.001,0.005 -0.001,0.007 -0.001,0.006 -0.001,0.01 -0.001,0.015 -0,0.026 0.008,0.039 0.026,0.039 0.011,-0 0.02,-0.011 0.026,-0.031 0.006,-0.019 0.008,-0.042 0.009,-0.071 -0,-0.028 -0.003,-0.053 -0.008,-0.076 -0.006,-0.024 -0.014,-0.04 -0.023,-0.046zm0.123 0.091c-0.003,0.002 -0.006,0.004 -0.01,0.006 -0.004,0.002 -0.008,0.003 -0.01,0.005 -0.004,0.003 -0.006,0.006 -0.006,0.009 -0,-0.002 0,-0.004 0.001,-0.006 0.001,-0.002 0.002,-0.004 0.004,-0.005 0.002,-0.002 0.006,-0.004 0.011,-0.006 0.004,-0.001 0.007,-0.003 0.01,-0.005 0.003,-0.002 0.006,-0.005 0.008,-0.008 -0.001,0.004 -0.003,0.007 -0.006,0.01zm-0.042 0.073c-0.005,-0.001 -0.009,-0.001 -0.013,-0 -0.003,0 -0.004,0.001 -0.006,0.002 -0.001,0 -0.001,0.001 -0.002,0.002l-0 0.002 -0 0.002c0,-0.001 0,-0.003 0,-0.004 0,-0.001 0.001,-0.003 0.002,-0.003 0.001,-0.001 0.003,-0.002 0.006,-0.003 0.003,-0.001 0.008,-0.001 0.013,-0 0.003,0 0.008,0.001 0.013,0.002l0.006 0.001 0.006 0.001c-0.004,0 -0.008,0 -0.013,0l-0.006 -0.001 -0.006 -0.001zm0.01 -0.149c-0.006,0.003 -0.011,0.005 -0.015,0.008 -0.002,0.001 -0.004,0.003 -0.007,0.005 -0.002,0.002 -0.004,0.004 -0.006,0.006 -0.004,0.005 -0.006,0.011 -0.006,0.016 -0.001,-0.003 -0,-0.006 0,-0.009 0.001,-0.003 0.002,-0.006 0.004,-0.008 0.003,-0.004 0.007,-0.008 0.013,-0.012 0.01,-0.006 0.021,-0.01 0.032,-0.012 -0.005,0.002 -0.011,0.004 -0.016,0.006zm0.093 0.112c-0.003,-0.004 -0.006,-0.007 -0.009,-0.01 -0.002,-0.002 -0.005,-0.004 -0.008,-0.006l-0.002 -0.001 -0.001 -0.001c-0.001,-0.001 -0.002,-0.001 -0.002,-0.002 -0.001,-0.001 -0.002,-0.003 -0.003,-0.004 -0,-0.002 0.001,-0.004 0.004,-0.007 0.001,-0.001 0.002,-0.002 0.004,-0.004l0.001 -0.001 0.001 -0.001 0.003 -0.003c0.004,-0.004 0.008,-0.008 0.01,-0.012 0.003,-0.005 0.005,-0.011 0.006,-0.017 0.002,-0.015 -0.001,-0.029 -0.009,-0.04 -0.009,-0.012 -0.023,-0.019 -0.041,-0.022 -0.009,-0.002 -0.019,-0.001 -0.03,0.001 -0.011,0.002 -0.021,0.006 -0.031,0.011 -0.01,0.005 -0.018,0.012 -0.023,0.019 -0.006,0.008 -0.008,0.017 -0.007,0.026 0.003,0.023 0.021,0.03 0.054,0.02 0.006,-0.002 0.01,-0.002 0.014,-0.002 0.003,0 0.005,0.001 0.005,0.003 0.001,0.002 -0,0.004 -0.002,0.006 -0.002,0.002 -0.005,0.004 -0.01,0.005 -0.015,0.005 -0.023,0.015 -0.022,0.027 0,0.006 0.002,0.012 0.006,0.016 0.004,0.004 0.01,0.006 0.017,0.006 0.007,-0 0.011,0.002 0.013,0.007 0.001,0.002 0.001,0.004 -0,0.006 -0.001,0.002 -0.002,0.004 -0.004,0.005 -0.003,0.002 -0.009,0.002 -0.017,0.001 -0.001,-0 -0.003,-0 -0.005,-0.001l-0.005 -0.001c-0.005,-0.001 -0.008,-0.001 -0.011,-0.001 -0.008,-0 -0.015,0 -0.019,0.003 -0.006,0.003 -0.009,0.009 -0.01,0.017 -0.001,0.01 0.003,0.019 0.012,0.028 0.008,0.008 0.02,0.015 0.033,0.02 0.014,0.005 0.028,0.007 0.041,0.006 0.015,-0.001 0.027,-0.005 0.036,-0.013 0.013,-0.011 0.02,-0.025 0.022,-0.042 0.001,-0.016 -0.002,-0.029 -0.01,-0.041zm0.154 -0.116c-0.001,0.001 -0.003,0.002 -0.004,0.003 -0.002,0.002 -0.003,0.006 -0.004,0.01 -0.001,0.006 -0.002,0.014 -0.001,0.023l0 0.003 0 0.003c0,0.002 0,0.004 -0,0.006 -0,0.004 -0.001,0.008 -0.003,0.012 -0.002,0.004 -0.004,0.007 -0.006,0.01 -0.003,0.003 -0.006,0.005 -0.009,0.006 0.007,-0.003 0.011,-0.009 0.014,-0.016 0.001,-0.004 0.002,-0.007 0.002,-0.011 0,-0.001 0,-0.003 0,-0.006l-0 -0.003 0 -0.003c-0,-0.01 0.001,-0.017 0.002,-0.023 0.001,-0.005 0.003,-0.008 0.005,-0.011 0.001,-0.002 0.003,-0.003 0.005,-0.003 0.001,-0.001 0.003,-0.001 0.005,-0.001 -0.002,0 -0.004,0.001 -0.005,0.001zm-0.099 0.004c-0.003,0.004 -0.006,0.009 -0.008,0.015 -0.002,0.005 -0.003,0.01 -0.005,0.017l-0.002 0.008 -0.002 0.009c0,-0.012 0.002,-0.024 0.006,-0.035 0.002,-0.006 0.005,-0.012 0.009,-0.015 0.002,-0.002 0.005,-0.004 0.007,-0.005 0.003,-0.001 0.006,-0.001 0.008,-0.001 -0.005,0.001 -0.01,0.003 -0.014,0.008zm0.104 -0.018c-0.01,0.001 -0.017,0.006 -0.021,0.015 -0.004,0.009 -0.006,0.023 -0.005,0.041 0,0.008 -0.001,0.014 -0.005,0.018 -0.003,0.004 -0.007,0.005 -0.012,0.005 -0.005,-0 -0.008,-0.003 -0.011,-0.007 -0.002,-0.004 -0.003,-0.01 -0.003,-0.016 0.002,-0.019 0,-0.033 -0.005,-0.042 -0.005,-0.008 -0.013,-0.014 -0.024,-0.015 -0.009,-0.001 -0.017,0.001 -0.024,0.007 -0.007,0.006 -0.012,0.014 -0.015,0.024 -0.006,0.02 -0.009,0.044 -0.01,0.071 -0,0.026 0.002,0.051 0.007,0.075 0.004,0.018 0.01,0.03 0.019,0.038 0.007,0.006 0.015,0.009 0.023,0.008 0.019,-0.003 0.027,-0.018 0.025,-0.045 -0.001,-0.02 0.002,-0.03 0.011,-0.03 0.004,0 0.008,0.002 0.01,0.005 0.003,0.005 0.005,0.012 0.004,0.023 -0.001,0.018 0.002,0.031 0.008,0.04 0.006,0.009 0.013,0.013 0.024,0.013 0.017,0 0.03,-0.012 0.037,-0.035 0.005,-0.017 0.008,-0.045 0.009,-0.085 0.001,-0.03 -0.003,-0.056 -0.011,-0.076 -0.008,-0.021 -0.019,-0.031 -0.033,-0.031zm0.158 0.16l-0.002 0.001c-0.002,0.001 -0.003,0.001 -0.004,0.001 -0.003,0.001 -0.007,0.001 -0.009,0 0.003,-0.001 0.006,-0.001 0.009,-0.003l0.002 -0.001 0.002 -0.001c0.002,-0.001 0.003,-0.001 0.004,-0.002 0.003,-0.001 0.006,-0.002 0.009,-0.002 0.004,-0.001 0.007,-0.001 0.009,0 -0.005,0.001 -0.011,0.003 -0.018,0.005l-0.002 0.001zm-0.043 -0.149c-0.005,0.001 -0.009,0.003 -0.012,0.005 -0.004,0.003 -0.008,0.006 -0.011,0.009 -0.003,0.003 -0.005,0.007 -0.008,0.011 -0.004,0.007 -0.007,0.016 -0.009,0.027 -0.001,0.004 -0.002,0.009 -0.003,0.014 -0,0.002 -0.001,0.004 -0.001,0.007l-0.001 0.007c0,-0.01 0.001,-0.02 0.003,-0.029 0.002,-0.011 0.005,-0.02 0.009,-0.028 0.003,-0.005 0.005,-0.009 0.008,-0.012 0.004,-0.004 0.007,-0.006 0.011,-0.008 0.004,-0.002 0.008,-0.004 0.013,-0.005 0.005,-0.001 0.009,-0.001 0.014,-0.001 -0.005,0 -0.009,0.001 -0.013,0.002zm0.028 0.085l0.001 -0c0.001,-0 0.002,-0.001 0.003,-0.001 0.002,-0 0.004,-0 0.005,0 0.002,0.001 0.003,0.002 0.004,0.003 -0.001,-0 -0.003,-0 -0.005,-0 -0.002,0 -0.003,0 -0.004,0l-0.001 0 -0.001 0c-0.001,0 -0.002,0 -0.002,0 -0.002,0 -0.004,-0 -0.005,-0.001l0.002 -0.001 0.002 -0.001 0.001 -0zm0.007 0.052c-0.005,0.002 -0.009,0.002 -0.013,0.001 -0.003,-0.001 -0.005,-0.003 -0.006,-0.007 -0.001,-0.003 -0.001,-0.006 0.001,-0.009 0.002,-0.003 0.004,-0.005 0.008,-0.005 0.011,-0.001 0.018,-0.004 0.023,-0.009 0.005,-0.005 0.007,-0.01 0.006,-0.018 -0,-0.007 -0.003,-0.012 -0.009,-0.015 -0.006,-0.003 -0.012,-0.004 -0.02,-0.002 -0.006,0.002 -0.011,-0 -0.013,-0.006 -0.001,-0.002 -0.001,-0.005 -0,-0.007 0.001,-0.003 0.002,-0.005 0.004,-0.006 0.003,-0.002 0.007,-0.004 0.013,-0.004 0.002,-0 0.005,-0.001 0.008,-0.001l0.004 -0 0.004 -0c0.006,-0.001 0.011,-0.002 0.015,-0.003 0.005,-0.002 0.008,-0.006 0.01,-0.011 0.003,-0.008 0.002,-0.017 -0.004,-0.026 -0.006,-0.008 -0.015,-0.015 -0.026,-0.019 -0.012,-0.005 -0.025,-0.006 -0.037,-0.005 -0.014,0.002 -0.026,0.008 -0.036,0.018 -0.009,0.009 -0.016,0.024 -0.02,0.044 -0.004,0.019 -0.006,0.039 -0.005,0.061 0.001,0.022 0.004,0.042 0.009,0.059 0.006,0.019 0.013,0.031 0.023,0.038 0.009,0.006 0.02,0.009 0.034,0.009 0.012,-0 0.024,-0.004 0.037,-0.009 0.012,-0.006 0.022,-0.013 0.03,-0.021 0.008,-0.009 0.012,-0.018 0.012,-0.028 0,-0.012 -0.004,-0.02 -0.013,-0.024 -0.009,-0.004 -0.022,-0.002 -0.039,0.004zm0.191 -0.012c-0.001,0 -0.002,0.001 -0.003,0.002l-0.002 0.001 -0.002 0.001c-0.003,0.002 -0.005,0.003 -0.008,0.004 -0.003,0.001 -0.006,0.001 -0.008,0 0.005,-0.001 0.01,-0.003 0.014,-0.007l0.002 -0.001 0.002 -0.001c0.001,-0.001 0.003,-0.002 0.004,-0.002 0.003,-0.001 0.006,-0.002 0.008,-0.001 -0.002,0.001 -0.005,0.002 -0.007,0.003zm-0.085 -0.106c-0.005,0.006 -0.01,0.012 -0.014,0.02 -0.003,0.006 -0.007,0.014 -0.009,0.023 0.002,-0.008 0.004,-0.017 0.008,-0.024 0.003,-0.008 0.008,-0.015 0.014,-0.021 0.006,-0.007 0.012,-0.012 0.02,-0.015 0.004,-0.002 0.008,-0.003 0.012,-0.003 0.004,-0.001 0.008,-0.001 0.012,-0 -0.009,0.001 -0.016,0.003 -0.023,0.006 -0.007,0.004 -0.013,0.009 -0.019,0.015zm0.117 0.123c-0.001,-0.017 -0.007,-0.027 -0.016,-0.031 -0.004,-0.002 -0.009,-0.002 -0.014,-0.001 -0.005,0.001 -0.009,0.004 -0.014,0.007 -0.004,0.004 -0.009,0.005 -0.013,0.004 -0.004,-0 -0.008,-0.003 -0.012,-0.007 -0.004,-0.004 -0.006,-0.009 -0.008,-0.016 -0.002,-0.007 -0.002,-0.014 -0.001,-0.022 0.002,-0.012 0.007,-0.018 0.015,-0.02 0.006,-0.001 0.015,0.001 0.027,0.005 0.005,0.002 0.01,0.002 0.014,-0 0.004,-0.002 0.007,-0.005 0.009,-0.01 0.002,-0.005 0.003,-0.011 0.002,-0.017 -0.001,-0.007 -0.003,-0.013 -0.008,-0.019 -0.009,-0.013 -0.021,-0.022 -0.035,-0.027 -0.013,-0.004 -0.027,-0.005 -0.04,-0.001 -0.017,0.005 -0.032,0.017 -0.043,0.036 -0.012,0.021 -0.019,0.048 -0.019,0.08 0,0.036 0.009,0.064 0.026,0.084 0.008,0.01 0.017,0.017 0.028,0.021 0.011,0.004 0.023,0.006 0.035,0.005 0.021,-0.002 0.038,-0.01 0.051,-0.025 0.012,-0.014 0.017,-0.03 0.016,-0.048zm0.131 -0.13c-0.003,0.003 -0.005,0.007 -0.008,0.012 -0.005,0.008 -0.009,0.016 -0.012,0.026l-0.002 0.007 -0.002 0.007c-0.002,0.006 -0.004,0.011 -0.005,0.014 -0.002,0.006 -0.005,0.01 -0.007,0.013 -0.002,0.002 -0.004,0.003 -0.006,0.004 -0.002,0.001 -0.004,0.001 -0.007,0.001 0.003,-0 0.005,-0.001 0.006,-0.001 0.002,-0.001 0.003,-0.003 0.005,-0.005 0.002,-0.003 0.004,-0.007 0.006,-0.013l0.002 -0.007 0.002 -0.007c0.002,-0.006 0.003,-0.01 0.005,-0.014 0.004,-0.01 0.008,-0.018 0.013,-0.026 0.006,-0.01 0.013,-0.016 0.02,-0.02 -0.004,0.003 -0.007,0.006 -0.01,0.01zm-0.097 0.037c-0.001,0.006 -0.003,0.014 -0.004,0.023l-0.001 0.012 -0.001 0.012c-0.001,-0.023 0.002,-0.044 0.007,-0.062 0.001,-0.004 0.002,-0.007 0.003,-0.01 0.002,-0.004 0.003,-0.007 0.005,-0.01 0.005,-0.007 0.01,-0.011 0.016,-0.01 -0.008,0.001 -0.014,0.007 -0.018,0.018 -0.002,0.004 -0.003,0.009 -0.005,0.014 -0.001,0.002 -0.001,0.004 -0.002,0.007l-0.001 0.003 -0 0.001 -0 0.001zm0.135 -0.057c-0.012,-0.008 -0.024,-0.007 -0.037,0.002 -0.01,0.008 -0.019,0.02 -0.027,0.036 -0.003,0.005 -0.005,0.012 -0.007,0.019 -0.001,0.003 -0.002,0.006 -0.003,0.009l-0.001 0.004 -0.001 0.002 -0.001 0.002c-0.002,0.006 -0.003,0.01 -0.004,0.012 -0.001,0.003 -0.003,0.005 -0.004,0.004 -0.003,-0 -0.004,-0.002 -0.004,-0.006 -0,-0.004 0,-0.012 0.002,-0.025 0.003,-0.023 0.002,-0.04 -0.004,-0.05 -0.005,-0.008 -0.012,-0.011 -0.023,-0.009 -0.013,0.002 -0.022,0.015 -0.03,0.039 -0.007,0.023 -0.01,0.051 -0.009,0.085 0.002,0.061 0.018,0.094 0.05,0.099 0.009,0.001 0.018,-0.001 0.028,-0.007 0.009,-0.006 0.016,-0.014 0.022,-0.024 0.005,-0.009 0.01,-0.017 0.014,-0.025 0.001,-0.003 0.003,-0.006 0.004,-0.009 0.001,-0.002 0.002,-0.004 0.003,-0.006 0.002,-0.004 0.003,-0.006 0.003,-0.007 0.001,-0.001 0.002,-0.001 0.003,-0.001 0.001,0 0.001,0.005 0,0.013l-0 0.003 -0 0.003c-0,0.003 -0.001,0.005 -0.001,0.007 -0.001,0.006 -0.001,0.01 -0.001,0.015 -0,0.026 0.008,0.039 0.026,0.039 0.011,-0 0.02,-0.011 0.026,-0.031 0.006,-0.019 0.008,-0.042 0.009,-0.071 0,-0.028 -0.003,-0.053 -0.008,-0.076 -0.006,-0.024 -0.014,-0.04 -0.023,-0.046zm0.229 0.134c-0.001,0 -0.002,0.001 -0.003,0.002l-0.002 0.001 -0.002 0.001c-0.003,0.002 -0.005,0.003 -0.008,0.004 -0.003,0.001 -0.006,0.001 -0.008,0 0.005,-0.001 0.01,-0.003 0.014,-0.007l0.002 -0.001 0.002 -0.001c0.001,-0.001 0.003,-0.002 0.004,-0.002 0.003,-0.001 0.006,-0.002 0.008,-0.001 -0.002,0.001 -0.005,0.002 -0.007,0.003zm-0.085 -0.106c-0.005,0.006 -0.01,0.012 -0.014,0.02 -0.003,0.006 -0.007,0.014 -0.009,0.023 0.002,-0.008 0.004,-0.017 0.008,-0.024 0.003,-0.008 0.008,-0.015 0.014,-0.021 0.006,-0.007 0.012,-0.012 0.02,-0.015 0.004,-0.002 0.008,-0.003 0.012,-0.003 0.004,-0.001 0.008,-0.001 0.012,-0 -0.009,0.001 -0.016,0.003 -0.023,0.006 -0.007,0.004 -0.013,0.009 -0.019,0.015zm0.117 0.123c-0.001,-0.017 -0.007,-0.027 -0.016,-0.031 -0.004,-0.002 -0.009,-0.002 -0.014,-0.001 -0.005,0.001 -0.009,0.004 -0.014,0.007 -0.004,0.004 -0.009,0.005 -0.013,0.005 -0.004,-0 -0.008,-0.003 -0.012,-0.007 -0.004,-0.004 -0.006,-0.009 -0.008,-0.016 -0.002,-0.007 -0.002,-0.014 -0.001,-0.022 0.002,-0.012 0.007,-0.018 0.015,-0.02 0.006,-0.001 0.015,0.001 0.027,0.005 0.005,0.002 0.01,0.002 0.014,-0 0.004,-0.002 0.007,-0.005 0.009,-0.01 0.002,-0.005 0.003,-0.011 0.002,-0.017 -0.001,-0.007 -0.003,-0.013 -0.008,-0.019 -0.009,-0.013 -0.021,-0.022 -0.035,-0.027 -0.013,-0.004 -0.027,-0.005 -0.04,-0.001 -0.017,0.005 -0.032,0.017 -0.043,0.036 -0.012,0.021 -0.019,0.048 -0.019,0.08 0,0.036 0.009,0.064 0.026,0.084 0.008,0.01 0.017,0.017 0.028,0.021 0.011,0.004 0.023,0.006 0.035,0.005 0.021,-0.002 0.038,-0.01 0.051,-0.025 0.012,-0.014 0.017,-0.03 0.016,-0.048zm0.09 -0.143l-0.003 0.001c-0.001,0 -0.002,0.001 -0.003,0.001 -0.001,0 -0.001,0.001 -0.002,0.001l-0.001 0.001 -0.001 0.001 -0.002 0.002c-0.001,0.001 -0.002,0.001 -0.002,0.002 -0.006,0.005 -0.011,0.011 -0.016,0.018 -0.004,0.006 -0.008,0.013 -0.012,0.021 -0.003,0.006 -0.006,0.014 -0.01,0.023 0.002,-0.008 0.004,-0.016 0.008,-0.024 0.003,-0.008 0.007,-0.015 0.012,-0.022 0.005,-0.008 0.011,-0.014 0.017,-0.018 0.007,-0.005 0.015,-0.008 0.022,-0.007l-0.006 0.001zm0.09 0.072c-0.01,-0.027 -0.023,-0.049 -0.039,-0.064 -0.017,-0.016 -0.034,-0.023 -0.052,-0.02 -0.015,0.002 -0.029,0.013 -0.041,0.033 -0.012,0.019 -0.021,0.041 -0.026,0.068 -0.006,0.03 -0.007,0.058 -0.003,0.083 0.002,0.013 0.005,0.023 0.01,0.03 0.005,0.008 0.011,0.013 0.017,0.014 0.01,0.002 0.019,-0.002 0.026,-0.012 0.005,-0.008 0.009,-0.02 0.013,-0.036 0.001,-0.003 0.001,-0.006 0.002,-0.01l0.001 -0.005 0.001 -0.005c0.002,-0.009 0.003,-0.015 0.004,-0.018 0.003,-0.012 0.006,-0.019 0.01,-0.019 0.003,-0.001 0.006,0.001 0.008,0.004 0.002,0.003 0.004,0.008 0.007,0.015 0.001,0.002 0.002,0.006 0.003,0.01l0.002 0.005 0.002 0.005c0.003,0.009 0.006,0.017 0.009,0.023 0.007,0.015 0.015,0.026 0.024,0.031 0.008,0.005 0.016,0.005 0.023,0 0.005,-0.003 0.008,-0.009 0.011,-0.017 0.003,-0.008 0.004,-0.018 0.004,-0.03 0.001,-0.026 -0.004,-0.054 -0.015,-0.084z"/>
   <path class="fil0" d="M2.139 0.213c-0.002,0.003 -0.004,0.005 -0.007,0.006 -0.003,0.002 -0.006,0.002 -0.008,0.002 0.005,-0.002 0.01,-0.006 0.013,-0.01 0.003,-0.004 0.005,-0.01 0.006,-0.017 0.001,0.007 0,0.013 -0.004,0.018zm-0.031 -0.016c-0.001,-0.004 0,-0.008 0.002,-0.011 0.002,-0.003 0.004,-0.005 0.007,-0.006 0.003,-0.001 0.006,0 0.009,0.003 0.003,0.002 0.004,0.006 0.005,0.01 0.001,0.004 0,0.008 -0.002,0.011 -0.002,0.003 -0.004,0.005 -0.007,0.006 -0.003,0.001 -0.006,-0 -0.009,-0.003 -0.003,-0.002 -0.004,-0.006 -0.005,-0.01zm-0.008 -0.123c-0.008,0.003 -0.014,0.008 -0.02,0.014 -0.005,0.005 -0.01,0.012 -0.015,0.02l-0.001 0.003 -0.001 0.003 -0.003 0.006 -0.002 0.006 -0.002 0.006c0.002,-0.009 0.004,-0.017 0.008,-0.025 0.004,-0.008 0.009,-0.016 0.015,-0.022 0.006,-0.007 0.014,-0.011 0.021,-0.014 0.004,-0.001 0.008,-0.002 0.012,-0.003l0.003 -0 0.003 -0 0.006 0c-0.009,0.001 -0.017,0.003 -0.024,0.006zm0.049 -0.015c-0.03,-0.008 -0.056,-0.003 -0.076,0.016 -0.018,0.017 -0.029,0.04 -0.033,0.071 -0.004,0.03 -0.001,0.058 0.01,0.084 0.011,0.028 0.029,0.045 0.053,0.052 0.022,0.007 0.043,0 0.063,-0.019 0.018,-0.018 0.031,-0.041 0.039,-0.071 0.008,-0.03 0.008,-0.058 -0.001,-0.082 -0.009,-0.027 -0.028,-0.044 -0.055,-0.052zm0.181 0.152c-0.002,0.004 -0.004,0.006 -0.007,0.008 -0.003,0.002 -0.006,0.003 -0.01,0.002 0.003,-0.001 0.006,-0.002 0.009,-0.004 0.003,-0.002 0.005,-0.005 0.006,-0.008 0.002,-0.006 0.003,-0.012 0.001,-0.02 0.002,0.003 0.003,0.007 0.003,0.01 0,0.004 -0,0.008 -0.002,0.011zm-0.027 -0.01c-0.002,-0.003 -0.002,-0.006 -0.002,-0.009 0,-0.003 0.001,-0.005 0.004,-0.007 0.002,-0.001 0.004,-0.001 0.007,0 0.003,0.001 0.005,0.004 0.006,0.007 0.002,0.003 0.002,0.006 0.002,0.009 -0,0.003 -0.001,0.005 -0.003,0.007 -0.002,0.001 -0.004,0.001 -0.007,0 -0.003,-0.001 -0.005,-0.003 -0.006,-0.007zm-0.013 -0.067c0.002,-0.001 0.004,-0.002 0.006,-0.003 0.002,-0.001 0.004,-0.003 0.005,-0.004 0.001,-0.002 0.003,-0.004 0.004,-0.006 0.001,-0.002 0.002,-0.004 0.003,-0.007 0.001,0.005 -0.001,0.01 -0.005,0.015 -0.002,0.002 -0.004,0.004 -0.006,0.004 -0.003,0.001 -0.005,0.001 -0.007,0.001zm-0.003 -0.023c0.001,-0.002 0.003,-0.004 0.004,-0.004 0.002,-0.001 0.003,-0.001 0.005,0 0.001,0.001 0.002,0.002 0.002,0.004 0,0.002 -0,0.004 -0.001,0.006 -0.001,0.002 -0.002,0.004 -0.004,0.004 -0.002,0.001 -0.003,0.001 -0.005,0 -0.001,-0.001 -0.002,-0.002 -0.002,-0.004 -0,-0.002 0,-0.004 0.001,-0.006zm-0.025 -0.029c-0.002,0.003 -0.005,0.006 -0.007,0.01 -0.004,0.006 -0.007,0.013 -0.01,0.022 -0.002,0.007 -0.005,0.015 -0.007,0.024 0.001,-0.008 0.002,-0.017 0.005,-0.025 0.002,-0.008 0.006,-0.016 0.01,-0.023 0.005,-0.008 0.011,-0.014 0.017,-0.018 0.004,-0.002 0.008,-0.004 0.011,-0.005 0.004,-0.001 0.008,-0.001 0.012,-0.001 -0.008,0.001 -0.015,0.004 -0.021,0.008 -0.003,0.002 -0.006,0.005 -0.009,0.008zm0.063 0.061c-0.002,-0.001 -0.002,-0.002 -0.001,-0.005 0,-0.001 0.001,-0.003 0.002,-0.005l0.001 -0.001 0.001 -0.001c0.001,-0.001 0.001,-0.002 0.002,-0.003 0.003,-0.006 0.005,-0.011 0.006,-0.017 0.002,-0.008 0.002,-0.015 0,-0.024 -0.001,-0.009 -0.006,-0.017 -0.014,-0.023 -0.008,-0.006 -0.017,-0.01 -0.028,-0.01 -0.011,-0 -0.022,0.003 -0.032,0.011 -0.011,0.009 -0.02,0.022 -0.026,0.039 -0.007,0.018 -0.01,0.038 -0.011,0.059 -0.001,0.022 0.002,0.042 0.008,0.06 0.006,0.02 0.016,0.035 0.029,0.045 0.014,0.012 0.031,0.017 0.051,0.016 0.019,-0.001 0.034,-0.008 0.045,-0.02 0.01,-0.011 0.016,-0.024 0.017,-0.041 0.001,-0.016 -0.003,-0.031 -0.011,-0.045 -0.009,-0.015 -0.022,-0.026 -0.038,-0.034zm0.167 0.053c-0.002,0.002 -0.004,0.003 -0.006,0.004 -0.002,0.001 -0.005,0.001 -0.007,0 0.004,-0.001 0.008,-0.003 0.012,-0.006 0.003,-0.002 0.006,-0.006 0.009,-0.011 -0.001,0.005 -0.003,0.009 -0.007,0.013zm-0.016 -0.009c-0.002,-0.001 -0.004,-0.003 -0.004,-0.006 -0.001,-0.003 -0.001,-0.006 0.001,-0.009 0.001,-0.003 0.003,-0.006 0.005,-0.007 0.002,-0.002 0.005,-0.002 0.007,-0.001 0.002,0.001 0.004,0.003 0.005,0.006 0.001,0.003 0,0.006 -0.001,0.009 -0.001,0.003 -0.003,0.006 -0.005,0.007 -0.002,0.002 -0.005,0.002 -0.007,0.001zm-0.024 -0.086c-0.004,0.006 -0.008,0.013 -0.014,0.022 -0.002,0.003 -0.004,0.007 -0.006,0.012l-0.006 0.012c0.003,-0.008 0.006,-0.016 0.01,-0.024 0.004,-0.008 0.008,-0.015 0.013,-0.023 0.006,-0.009 0.011,-0.015 0.016,-0.02l0.002 -0.002c0.001,-0.001 0.002,-0.002 0.002,-0.002l0.002 -0.002 0.003 -0.002c0.005,-0.003 0.009,-0.004 0.012,-0.004 -0.003,0 -0.007,0.002 -0.011,0.005l-0.002 0.002 -0.002 0.002c-0.001,0.001 -0.001,0.001 -0.002,0.002l-0.002 0.002c-0.005,0.006 -0.01,0.013 -0.015,0.02zm0.039 -0.046c-0.013,-0.002 -0.027,0.007 -0.043,0.029 -0.014,0.019 -0.027,0.044 -0.039,0.074 -0.011,0.03 -0.018,0.056 -0.02,0.079 -0.002,0.025 0.002,0.04 0.014,0.045 0.008,0.004 0.016,0.003 0.024,-0 0.006,-0.003 0.012,-0.008 0.019,-0.016 0.001,-0.001 0.003,-0.003 0.004,-0.005l0.004 -0.005c0.003,-0.004 0.006,-0.007 0.007,-0.009 0.005,-0.006 0.01,-0.009 0.013,-0.009 0.004,0 0.008,0.003 0.014,0.008 0.002,0.002 0.004,0.004 0.007,0.008l0.004 0.004 0.004 0.005c0.007,0.007 0.013,0.012 0.018,0.015 0.007,0.003 0.014,0.003 0.022,-0 0.008,-0.004 0.013,-0.018 0.014,-0.041 0.001,-0.022 -0.001,-0.046 -0.007,-0.074 -0.006,-0.029 -0.013,-0.053 -0.023,-0.072 -0.011,-0.022 -0.023,-0.034 -0.036,-0.036zm0.263 0.139c-0.001,0 -0.002,0.001 -0.003,0.002l-0.002 0.001 -0.002 0.001c-0.003,0.002 -0.005,0.003 -0.008,0.004 -0.003,0.001 -0.006,0.001 -0.008,0 0.005,-0.001 0.01,-0.003 0.014,-0.007l0.002 -0.001 0.002 -0.001c0.001,-0.001 0.003,-0.002 0.004,-0.002 0.003,-0.001 0.006,-0.002 0.008,-0.001 -0.002,0.001 -0.005,0.002 -0.007,0.003zm-0.085 -0.106c-0.005,0.006 -0.01,0.012 -0.014,0.02 -0.003,0.006 -0.007,0.014 -0.009,0.023 0.002,-0.008 0.004,-0.017 0.008,-0.024 0.003,-0.008 0.008,-0.015 0.014,-0.021 0.006,-0.007 0.012,-0.012 0.02,-0.015 0.004,-0.002 0.008,-0.003 0.012,-0.003 0.004,-0.001 0.008,-0.001 0.012,-0 -0.009,0.001 -0.016,0.003 -0.023,0.006 -0.007,0.004 -0.013,0.009 -0.019,0.015zm0.117 0.123c-0.001,-0.017 -0.007,-0.027 -0.016,-0.031 -0.004,-0.002 -0.009,-0.002 -0.014,-0.001 -0.005,0.001 -0.009,0.004 -0.014,0.007 -0.004,0.004 -0.009,0.005 -0.013,0.005 -0.004,-0 -0.008,-0.003 -0.012,-0.007 -0.004,-0.004 -0.006,-0.009 -0.008,-0.016 -0.002,-0.007 -0.002,-0.014 -0.001,-0.022 0.002,-0.012 0.007,-0.018 0.015,-0.02 0.006,-0.001 0.015,0.001 0.027,0.005 0.005,0.002 0.01,0.002 0.014,-0 0.004,-0.002 0.007,-0.005 0.009,-0.01 0.002,-0.005 0.003,-0.011 0.002,-0.017 -0.001,-0.007 -0.003,-0.013 -0.008,-0.019 -0.009,-0.013 -0.021,-0.022 -0.035,-0.027 -0.013,-0.004 -0.027,-0.005 -0.04,-0.001 -0.017,0.005 -0.032,0.017 -0.043,0.036 -0.012,0.021 -0.019,0.048 -0.019,0.08 0,0.036 0.009,0.064 0.026,0.084 0.008,0.01 0.017,0.017 0.028,0.021 0.011,0.004 0.023,0.006 0.035,0.005 0.021,-0.002 0.038,-0.01 0.051,-0.025 0.012,-0.014 0.017,-0.03 0.016,-0.048zm0.182 0.007c-0.002,0.004 -0.004,0.006 -0.007,0.008 -0.003,0.002 -0.007,0.003 -0.01,0.002 0.003,-0.001 0.006,-0.002 0.009,-0.004 0.002,-0.002 0.004,-0.004 0.006,-0.007 0.001,-0.003 0.002,-0.006 0.003,-0.009 0,-0.003 0,-0.006 -0,-0.01 0.002,0.003 0.002,0.007 0.002,0.01 0,0.004 -0.001,0.007 -0.002,0.011zm-0.027 -0.012c-0.001,-0.003 -0.001,-0.006 -0,-0.009 0.001,-0.003 0.002,-0.005 0.005,-0.006 0.002,-0.001 0.005,-0 0.007,0.001 0.002,0.002 0.004,0.004 0.005,0.008 0.001,0.003 0.001,0.006 0,0.009 -0.001,0.003 -0.002,0.005 -0.005,0.006 -0.002,0.001 -0.005,0 -0.007,-0.001 -0.002,-0.002 -0.004,-0.004 -0.005,-0.008zm-0.053 -0.11c-0.004,0.007 -0.008,0.015 -0.011,0.025 -0.002,0.008 -0.004,0.017 -0.006,0.028 0,-0.004 0.001,-0.009 0.001,-0.014 0.001,-0.005 0.002,-0.01 0.003,-0.014 0.002,-0.01 0.006,-0.019 0.01,-0.026 0.002,-0.004 0.005,-0.008 0.009,-0.011 0.003,-0.003 0.007,-0.006 0.011,-0.008 0.004,-0.002 0.008,-0.004 0.012,-0.005 0.005,-0.001 0.009,-0.002 0.013,-0.002 -0.009,0.002 -0.017,0.005 -0.024,0.01 -0.008,0.005 -0.014,0.012 -0.018,0.019zm0.052 0.05c-0.006,-0 -0.009,-0.004 -0.01,-0.01 -0,-0.003 -0,-0.005 0,-0.008 0.001,-0.003 0.002,-0.005 0.004,-0.006 0.004,-0.004 0.01,-0.006 0.017,-0.007 0.003,-0.001 0.006,-0.001 0.01,-0.001l0.005 -0 0.005 -0c0.008,-0.001 0.013,-0.002 0.017,-0.004 0.005,-0.003 0.008,-0.007 0.008,-0.013 0.001,-0.009 -0.002,-0.017 -0.01,-0.025 -0.007,-0.007 -0.017,-0.012 -0.028,-0.014 -0.012,-0.003 -0.025,-0.003 -0.037,0 -0.014,0.003 -0.025,0.01 -0.035,0.02 -0.009,0.009 -0.016,0.023 -0.021,0.041 -0.005,0.017 -0.007,0.036 -0.006,0.056 0.001,0.021 0.004,0.039 0.01,0.056 0.007,0.018 0.016,0.031 0.028,0.04 0.01,0.007 0.021,0.012 0.033,0.014 0.011,0.002 0.022,0.001 0.033,-0.002 0.011,-0.004 0.02,-0.009 0.027,-0.018 0.008,-0.009 0.013,-0.019 0.016,-0.032 0.002,-0.009 0.002,-0.019 0.001,-0.028 -0.001,-0.01 -0.004,-0.019 -0.009,-0.026 -0.012,-0.018 -0.031,-0.029 -0.058,-0.031zm0.219 -0.075c-0.002,0.002 -0.004,0.004 -0.006,0.007 -0.003,0.004 -0.006,0.01 -0.01,0.017l-0.002 0.004 -0.002 0.004c-0.002,0.003 -0.004,0.006 -0.005,0.008 -0.002,0.003 -0.004,0.006 -0.006,0.008 -0.003,0.003 -0.006,0.004 -0.008,0.005 0.003,-0.001 0.005,-0.003 0.007,-0.006 0.002,-0.002 0.003,-0.005 0.005,-0.008 0.001,-0.002 0.003,-0.005 0.005,-0.009l0.005 -0.008c0.004,-0.007 0.008,-0.013 0.011,-0.017 0.002,-0.003 0.005,-0.005 0.007,-0.007 0.003,-0.002 0.006,-0.004 0.009,-0.004 -0.003,0 -0.005,0.002 -0.008,0.005zm-0.095 0.144c-0.002,0.002 -0.004,0.004 -0.006,0.005 -0.005,0.004 -0.008,0.007 -0.011,0.011 -0.001,0.002 -0.003,0.004 -0.004,0.007 -0.001,0.002 -0.001,0.004 -0.002,0.008 -0,-0.003 0,-0.005 0.001,-0.008 0.001,-0.003 0.002,-0.005 0.003,-0.008 0.002,-0.004 0.006,-0.008 0.011,-0.012 0.003,-0.003 0.007,-0.006 0.012,-0.009l0.003 -0.002 0.003 -0.002c0.002,-0.002 0.005,-0.003 0.006,-0.004 -0.003,0.003 -0.006,0.007 -0.011,0.011l-0.006 0.004zm-0.025 -0.13c-0.001,0.002 -0.003,0.005 -0.003,0.008 -0.001,0.003 -0.001,0.005 -0.001,0.009 -0.001,-0.003 -0.002,-0.006 -0.001,-0.009 0,-0.003 0.001,-0.006 0.003,-0.009 0.002,-0.003 0.004,-0.005 0.007,-0.006 0.003,-0.001 0.006,-0.002 0.009,-0.001 -0.006,0.001 -0.01,0.004 -0.013,0.009zm0.127 -0.031c-0.006,0 -0.012,0.003 -0.018,0.009 -0.004,0.004 -0.009,0.011 -0.014,0.02l-0.003 0.005 -0.001 0.003 -0.001 0.003c-0.002,0.004 -0.004,0.007 -0.005,0.009 -0.004,0.006 -0.007,0.009 -0.009,0.009 -0.002,0 -0.007,-0.004 -0.014,-0.013l-0.001 -0.001 -0.001 -0.002c-0.001,-0.001 -0.002,-0.002 -0.003,-0.003 -0.002,-0.002 -0.004,-0.005 -0.006,-0.007 -0.005,-0.005 -0.01,-0.01 -0.014,-0.014 -0.007,-0.007 -0.015,-0.01 -0.023,-0.01 -0.007,0 -0.014,0.003 -0.019,0.008 -0.005,0.005 -0.009,0.012 -0.01,0.02 -0.001,0.008 0,0.017 0.005,0.025 0.003,0.006 0.008,0.012 0.014,0.019 0.002,0.003 0.005,0.005 0.008,0.008l0.004 0.004 0.004 0.004c0.007,0.006 0.012,0.011 0.014,0.014 0.004,0.005 0.006,0.009 0.006,0.013 0,0.004 -0.002,0.008 -0.007,0.013 -0.002,0.002 -0.004,0.004 -0.008,0.006l-0.002 0.001 -0.002 0.002 -0.005 0.003c-0.008,0.006 -0.013,0.011 -0.017,0.016 -0.005,0.007 -0.008,0.015 -0.009,0.024 -0,0.007 0.001,0.013 0.003,0.019 0.003,0.006 0.006,0.01 0.011,0.014 0.011,0.008 0.025,0.009 0.041,0.004 0.022,-0.007 0.044,-0.028 0.065,-0.061 0.019,-0.03 0.032,-0.059 0.038,-0.086 0.006,-0.028 0.006,-0.049 0.001,-0.062 -0.004,-0.011 -0.012,-0.017 -0.023,-0.017zm0.139 0.05c-0.004,0.005 -0.008,0.01 -0.012,0.014 -0.005,0.005 -0.01,0.008 -0.014,0.01 0.004,-0.003 0.008,-0.006 0.013,-0.012 0.004,-0.004 0.007,-0.009 0.011,-0.014 0.002,-0.002 0.003,-0.005 0.005,-0.007l0.001 -0.002 0.001 -0.002c0.001,-0.002 0.002,-0.003 0.003,-0.004 0.002,-0.002 0.004,-0.004 0.007,-0.006 0.003,-0.002 0.006,-0.002 0.008,-0.002 -0.005,0 -0.01,0.004 -0.014,0.009 -0.001,0.001 -0.001,0.002 -0.002,0.004l-0.001 0.002 -0.001 0.002c-0.001,0.002 -0.003,0.005 -0.005,0.008zm-0.058 -0.035c-0.002,0.001 -0.004,0.003 -0.006,0.006 -0.003,0.003 -0.005,0.008 -0.007,0.014 -0.002,0.004 -0.003,0.009 -0.005,0.016l-0.002 0.008 -0.002 0.008c0.001,-0.007 0.001,-0.012 0.002,-0.017 0.001,-0.006 0.003,-0.011 0.005,-0.016 0.003,-0.006 0.005,-0.011 0.008,-0.015 0.002,-0.002 0.004,-0.004 0.006,-0.005 0.003,-0.001 0.005,-0.002 0.008,-0.002 -0.003,0 -0.005,0.001 -0.007,0.003zm0.066 0.093c-0.004,-0.002 -0.005,-0.004 -0.003,-0.006 0.001,-0.001 0.002,-0.002 0.005,-0.003l0.002 -0.001 0.002 -0.001c0.002,-0.001 0.003,-0.001 0.004,-0.002 0.007,-0.004 0.013,-0.008 0.018,-0.013 0.007,-0.007 0.012,-0.015 0.014,-0.024 0.003,-0.009 0.002,-0.017 -0,-0.025 -0.003,-0.007 -0.007,-0.012 -0.013,-0.016 -0.006,-0.003 -0.013,-0.004 -0.019,-0.002 -0.008,0.002 -0.014,0.008 -0.019,0.016 -0.009,0.015 -0.017,0.025 -0.026,0.03 -0.003,0.002 -0.005,0.003 -0.007,0.002 -0.001,-0.001 -0.001,-0.004 0.001,-0.008 0.007,-0.016 0.009,-0.029 0.007,-0.039 -0.002,-0.008 -0.007,-0.014 -0.016,-0.016 -0.017,-0.004 -0.03,0.005 -0.039,0.027 -0.007,0.018 -0.012,0.044 -0.014,0.078 -0.002,0.034 -0.001,0.062 0.004,0.083 0.006,0.026 0.017,0.038 0.033,0.037 0.014,-0.001 0.023,-0.012 0.025,-0.035 0.001,-0.008 0.001,-0.016 0,-0.026 -0,-0.003 -0.001,-0.007 -0.001,-0.01 -0,-0.001 -0,-0.003 -0,-0.004l-0 -0.001 -0 -0.001 0 -0c-0,-0.003 -0,-0.005 0.001,-0.006 0.001,-0.001 0.003,-0.001 0.005,0.001 0.005,0.005 0.01,0.017 0.015,0.037 0.003,0.012 0.007,0.023 0.013,0.031 0.005,0.007 0.012,0.012 0.018,0.015 0.006,0.002 0.013,0.002 0.019,-0 0.006,-0.003 0.012,-0.007 0.016,-0.014 0.005,-0.008 0.007,-0.016 0.007,-0.026 0,-0.009 -0.002,-0.019 -0.006,-0.029 -0.009,-0.021 -0.024,-0.038 -0.046,-0.051zm0.172 0.048c-0.002,0.004 -0.004,0.006 -0.007,0.008 -0.003,0.002 -0.006,0.003 -0.01,0.002 0.003,-0.001 0.006,-0.002 0.009,-0.004 0.003,-0.002 0.005,-0.005 0.006,-0.008 0.003,-0.006 0.003,-0.012 0.001,-0.02 0.002,0.003 0.003,0.007 0.003,0.01 0,0.004 -0,0.008 -0.002,0.011zm-0.027 -0.01c-0.002,-0.003 -0.002,-0.006 -0.002,-0.009 0,-0.003 0.002,-0.005 0.004,-0.007 0.002,-0.001 0.004,-0.001 0.007,-0 0.003,0.001 0.005,0.004 0.006,0.007 0.002,0.003 0.002,0.006 0.002,0.009 -0,0.003 -0.001,0.005 -0.004,0.007 -0.002,0.001 -0.004,0.001 -0.007,0 -0.003,-0.001 -0.005,-0.003 -0.006,-0.007zm-0.013 -0.067c0.002,-0.001 0.004,-0.002 0.006,-0.003 0.002,-0.001 0.004,-0.003 0.005,-0.004 0.001,-0.002 0.003,-0.004 0.004,-0.006 0.001,-0.002 0.002,-0.004 0.003,-0.007 0.001,0.005 -0.001,0.01 -0.005,0.015 -0.002,0.002 -0.004,0.004 -0.006,0.004 -0.003,0.001 -0.005,0.001 -0.007,0.001zm-0.003 -0.023c0.001,-0.002 0.003,-0.004 0.004,-0.004 0.002,-0.001 0.003,-0.001 0.005,0 0.001,0.001 0.002,0.002 0.002,0.004 0,0.002 -0,0.004 -0.001,0.006 -0.001,0.002 -0.002,0.004 -0.004,0.004 -0.002,0.001 -0.003,0.001 -0.004,0 -0.001,-0.001 -0.002,-0.002 -0.002,-0.004 -0,-0.002 0,-0.004 0.001,-0.006zm-0.025 -0.029c-0.002,0.003 -0.005,0.006 -0.007,0.01 -0.004,0.006 -0.007,0.013 -0.01,0.022 -0.002,0.007 -0.005,0.015 -0.007,0.024 0.001,-0.008 0.002,-0.017 0.005,-0.025 0.002,-0.008 0.006,-0.016 0.01,-0.023 0.005,-0.008 0.011,-0.014 0.017,-0.018 0.004,-0.002 0.008,-0.004 0.011,-0.005 0.004,-0.001 0.008,-0.001 0.012,-0.001 -0.008,0.001 -0.015,0.004 -0.022,0.008 -0.003,0.002 -0.006,0.005 -0.009,0.008zm0.063 0.061c-0.002,-0.001 -0.002,-0.002 -0.001,-0.005 0,-0.001 0.001,-0.003 0.002,-0.005l0.001 -0.001 0.001 -0.001c0.001,-0.001 0.001,-0.002 0.002,-0.003 0.003,-0.006 0.004,-0.011 0.006,-0.017 0.002,-0.008 0.002,-0.015 0,-0.024 -0.001,-0.009 -0.006,-0.017 -0.014,-0.023 -0.008,-0.006 -0.017,-0.01 -0.028,-0.01 -0.012,-0 -0.022,0.003 -0.032,0.011 -0.011,0.009 -0.02,0.022 -0.026,0.039 -0.007,0.018 -0.01,0.038 -0.011,0.059 -0.001,0.022 0.002,0.042 0.008,0.06 0.006,0.02 0.016,0.035 0.029,0.045 0.014,0.012 0.031,0.017 0.051,0.015 0.019,-0.001 0.034,-0.008 0.045,-0.02 0.01,-0.011 0.016,-0.024 0.017,-0.041 0.001,-0.016 -0.003,-0.031 -0.011,-0.045 -0.009,-0.015 -0.022,-0.026 -0.038,-0.034zm0.165 0.068c-0.002,0.003 -0.004,0.005 -0.007,0.006 -0.003,0.002 -0.006,0.002 -0.008,0.002 0.005,-0.002 0.01,-0.006 0.013,-0.01 0.003,-0.004 0.005,-0.01 0.006,-0.017 0.001,0.007 0,0.013 -0.004,0.018zm-0.031 -0.016c-0.001,-0.004 0,-0.008 0.002,-0.011 0.002,-0.003 0.004,-0.005 0.007,-0.006 0.003,-0.001 0.006,0 0.009,0.003 0.003,0.002 0.004,0.006 0.005,0.01 0.001,0.004 0,0.008 -0.002,0.011 -0.002,0.003 -0.004,0.005 -0.007,0.006 -0.003,0.001 -0.006,-0 -0.009,-0.003 -0.003,-0.002 -0.004,-0.006 -0.005,-0.01zm-0.008 -0.123c-0.008,0.003 -0.014,0.008 -0.02,0.014 -0.005,0.005 -0.01,0.012 -0.015,0.02l-0.001 0.003 -0.001 0.003 -0.003 0.006 -0.002 0.006 -0.002 0.006c0.002,-0.009 0.004,-0.017 0.008,-0.025 0.004,-0.008 0.009,-0.016 0.015,-0.022 0.006,-0.007 0.014,-0.011 0.021,-0.014 0.004,-0.001 0.008,-0.002 0.012,-0.003l0.003 -0 0.003 -0 0.006 0c-0.009,0.001 -0.017,0.003 -0.024,0.006zm0.049 -0.015c-0.03,-0.008 -0.056,-0.003 -0.076,0.016 -0.018,0.017 -0.029,0.04 -0.033,0.071 -0.004,0.03 -0.001,0.058 0.01,0.084 0.011,0.028 0.029,0.045 0.053,0.052 0.022,0.007 0.043,0 0.063,-0.019 0.018,-0.017 0.031,-0.041 0.039,-0.071 0.008,-0.03 0.008,-0.058 -0.001,-0.082 -0.009,-0.027 -0.028,-0.044 -0.055,-0.052zm0.191 0.022c-0.003,0.003 -0.005,0.007 -0.008,0.011 -0.005,0.008 -0.009,0.016 -0.012,0.026l-0.002 0.007 -0.002 0.007c-0.002,0.006 -0.004,0.011 -0.005,0.014 -0.002,0.006 -0.005,0.01 -0.007,0.013 -0.002,0.002 -0.004,0.003 -0.006,0.004 -0.002,0.001 -0.004,0.001 -0.007,0.001 0.003,-0 0.005,-0.001 0.006,-0.001 0.002,-0.001 0.003,-0.003 0.005,-0.005 0.002,-0.003 0.004,-0.007 0.006,-0.013l0.002 -0.007 0.002 -0.007c0.002,-0.005 0.003,-0.01 0.005,-0.014 0.004,-0.01 0.008,-0.019 0.013,-0.026 0.006,-0.01 0.013,-0.016 0.02,-0.02 -0.004,0.003 -0.007,0.006 -0.01,0.01zm-0.098 0.037c-0.001,0.006 -0.003,0.014 -0.004,0.023l-0.001 0.012 -0.001 0.012c-0.001,-0.023 0.002,-0.044 0.007,-0.062 0.001,-0.004 0.002,-0.007 0.004,-0.01 0.002,-0.004 0.003,-0.007 0.005,-0.01 0.005,-0.007 0.01,-0.011 0.016,-0.01 -0.008,0.001 -0.014,0.007 -0.018,0.018 -0.002,0.004 -0.003,0.009 -0.005,0.014 -0,0.002 -0.001,0.004 -0.002,0.007l-0.001 0.003 -0 0.002 -0 0.001zm0.135 -0.058c-0.012,-0.008 -0.024,-0.007 -0.037,0.002 -0.01,0.007 -0.019,0.019 -0.027,0.036 -0.003,0.005 -0.005,0.012 -0.008,0.019 -0.001,0.003 -0.002,0.006 -0.003,0.009l-0.001 0.004 -0.001 0.002 -0.001 0.002c-0.002,0.006 -0.003,0.01 -0.004,0.012 -0.002,0.003 -0.003,0.005 -0.004,0.004 -0.002,-0 -0.004,-0.002 -0.004,-0.006 -0,-0.004 0.001,-0.012 0.002,-0.025 0.003,-0.023 0.002,-0.04 -0.004,-0.05 -0.005,-0.008 -0.012,-0.011 -0.023,-0.009 -0.013,0.002 -0.023,0.015 -0.03,0.039 -0.007,0.023 -0.01,0.051 -0.009,0.085 0.002,0.061 0.018,0.094 0.05,0.099 0.009,0.001 0.018,-0.001 0.028,-0.007 0.009,-0.006 0.016,-0.014 0.022,-0.024 0.005,-0.009 0.01,-0.017 0.013,-0.025 0.001,-0.003 0.003,-0.006 0.004,-0.008 0.001,-0.002 0.002,-0.004 0.003,-0.006 0.002,-0.004 0.003,-0.006 0.003,-0.007 0.001,-0.001 0.002,-0.001 0.003,-0.001 0.001,0 0.001,0.005 0,0.013l-0 0.003 -0 0.003c-0,0.003 -0.001,0.005 -0.001,0.007 -0,0.005 -0.001,0.01 -0.001,0.015 -0.001,0.026 0.008,0.039 0.025,0.039 0.011,-0 0.02,-0.011 0.027,-0.032 0.006,-0.019 0.008,-0.042 0.008,-0.071 0,-0.028 -0.003,-0.053 -0.008,-0.076 -0.006,-0.024 -0.014,-0.04 -0.023,-0.046zm-0.078 -0.027c0.005,-0.001 0.01,-0.002 0.014,-0.003 0.005,-0.002 0.009,-0.004 0.012,-0.007 0.001,-0.001 0.002,-0.002 0.002,-0.003l0.003 -0.003 0.001 -0.001c0,-0.001 0.001,-0.001 0.001,-0.001 0.001,-0 0.001,-0 0.002,-0.001l0.001 0 0.001 0 -0.001 0 -0.001 0c-0.001,0 -0.001,0 -0.001,0.001 -0,0 -0.001,0.001 -0.001,0.001l-0.001 0.002c-0.002,0.003 -0.003,0.005 -0.005,0.006 -0.002,0.002 -0.004,0.003 -0.006,0.005 -0.002,0.001 -0.004,0.002 -0.007,0.003 -0.005,0.002 -0.009,0.003 -0.014,0.003l-0.004 0 -0.004 -0c-0.003,-0 -0.005,0 -0.007,0.001 0.001,-0.001 0.002,-0.002 0.003,-0.002l0.002 -0 0.002 -0 0.007 -0.001zm0.055 -0.011c0,-0.007 -0.002,-0.012 -0.007,-0.016 -0.004,-0.004 -0.009,-0.005 -0.015,-0.004 -0.004,0.001 -0.007,0.003 -0.01,0.007l-0.002 0.002c-0.001,0.001 -0.001,0.002 -0.002,0.002 -0.002,0.002 -0.003,0.003 -0.005,0.004 -0.003,0.002 -0.006,0.003 -0.01,0.003 -0.001,0 -0.003,0 -0.004,0l-0.002 0 -0.002 0c-0.007,0 -0.012,0.002 -0.015,0.004 -0.004,0.003 -0.005,0.006 -0.006,0.011 -0,0.004 0.001,0.008 0.003,0.012 0.003,0.006 0.009,0.01 0.018,0.012 0.008,0.002 0.017,0.001 0.026,-0.001 0.01,-0.003 0.018,-0.007 0.024,-0.013 0.007,-0.007 0.01,-0.015 0.01,-0.025z"/>
   <path class="fil0" d="M4.119 0.176c-0.003,0.002 -0.005,0.004 -0.008,0.004 -0.003,0.001 -0.006,0.001 -0.009,0 0.005,-0.001 0.01,-0.004 0.015,-0.008 0.003,-0.003 0.007,-0.007 0.011,-0.013 -0.001,0.006 -0.004,0.012 -0.009,0.016zm-0.02 -0.011c-0.003,-0.001 -0.005,-0.004 -0.005,-0.008 -0.001,-0.004 -0.001,-0.008 0.001,-0.012 0.002,-0.004 0.004,-0.007 0.007,-0.009 0.003,-0.002 0.006,-0.002 0.009,-0.001 0.003,0.001 0.005,0.004 0.006,0.007 0.001,0.004 0.001,0.008 -0.001,0.012 -0.002,0.004 -0.004,0.007 -0.007,0.009 -0.003,0.002 -0.006,0.002 -0.009,0.001zm-0.029 -0.107c-0.005,0.007 -0.01,0.016 -0.017,0.028 -0.002,0.004 -0.005,0.009 -0.008,0.014l-0.008 0.015c0.004,-0.01 0.008,-0.02 0.013,-0.03 0.005,-0.01 0.01,-0.019 0.016,-0.028 0.007,-0.011 0.014,-0.019 0.02,-0.025l0.003 -0.003c0.001,-0.001 0.002,-0.002 0.003,-0.003l0.003 -0.003 0.003 -0.002c0.006,-0.003 0.011,-0.005 0.015,-0.005 -0.004,0 -0.009,0.002 -0.014,0.006l-0.003 0.002 -0.003 0.003c-0.001,0.001 -0.002,0.002 -0.003,0.003l-0.003 0.003c-0.006,0.007 -0.013,0.016 -0.019,0.025zm0.049 -0.057c-0.016,-0.003 -0.034,0.009 -0.054,0.036 -0.018,0.024 -0.034,0.054 -0.048,0.091 -0.014,0.037 -0.022,0.07 -0.025,0.098 -0.003,0.031 0.003,0.05 0.017,0.056 0.01,0.004 0.02,0.004 0.03,-0 0.007,-0.003 0.015,-0.01 0.023,-0.019 0.002,-0.002 0.003,-0.004 0.005,-0.006l0.005 -0.006c0.004,-0.005 0.007,-0.009 0.009,-0.011 0.006,-0.007 0.012,-0.011 0.016,-0.011 0.005,0 0.01,0.004 0.017,0.01 0.002,0.002 0.005,0.006 0.009,0.01l0.005 0.006 0.005 0.006c0.008,0.009 0.016,0.015 0.022,0.018 0.009,0.004 0.018,0.004 0.027,-0 0.01,-0.005 0.016,-0.022 0.018,-0.051 0.001,-0.027 -0.001,-0.057 -0.008,-0.091 -0.007,-0.036 -0.017,-0.065 -0.029,-0.09 -0.014,-0.027 -0.029,-0.042 -0.045,-0.045zm-3.697 0.43c-0.001,0.001 -0.003,0.002 -0.004,0.003 -0.002,0.002 -0.003,0.006 -0.004,0.01 -0.001,0.006 -0.002,0.014 -0.001,0.023l0 0.003 0 0.003c0,0.002 0,0.004 -0,0.006 -0,0.004 -0.001,0.008 -0.003,0.012 -0.002,0.004 -0.004,0.007 -0.006,0.01 -0.003,0.003 -0.006,0.005 -0.009,0.006 0.007,-0.003 0.011,-0.009 0.014,-0.016 0.001,-0.004 0.002,-0.007 0.002,-0.011 0,-0.001 0,-0.003 0,-0.006l-0 -0.003 0 -0.003c-0,-0.01 0.001,-0.017 0.002,-0.023 0.001,-0.005 0.003,-0.008 0.005,-0.011 0.001,-0.002 0.003,-0.003 0.005,-0.003 0.001,-0.001 0.003,-0.001 0.005,-0.001 -0.002,0 -0.004,0.001 -0.005,0.001zm-0.099 0.004c-0.003,0.004 -0.006,0.009 -0.008,0.015 -0.002,0.005 -0.003,0.01 -0.005,0.017l-0.002 0.008 -0.002 0.009c0,-0.012 0.002,-0.024 0.006,-0.035 0.002,-0.006 0.005,-0.012 0.009,-0.015 0.002,-0.002 0.005,-0.004 0.007,-0.005 0.003,-0.001 0.006,-0.001 0.008,-0.001 -0.005,0.001 -0.01,0.003 -0.014,0.008zm0.104 -0.018c-0.01,0.001 -0.017,0.006 -0.021,0.015 -0.004,0.009 -0.006,0.023 -0.005,0.041 0,0.008 -0.001,0.014 -0.005,0.018 -0.003,0.004 -0.007,0.005 -0.012,0.005 -0.005,-0 -0.008,-0.003 -0.011,-0.007 -0.002,-0.004 -0.003,-0.01 -0.003,-0.016 0.002,-0.019 0,-0.033 -0.005,-0.042 -0.005,-0.008 -0.013,-0.014 -0.024,-0.015 -0.009,-0.001 -0.017,0.001 -0.024,0.007 -0.007,0.006 -0.012,0.014 -0.015,0.024 -0.006,0.02 -0.009,0.044 -0.01,0.071 -0,0.026 0.002,0.051 0.007,0.075 0.004,0.018 0.01,0.03 0.019,0.038 0.007,0.006 0.015,0.009 0.023,0.008 0.019,-0.003 0.027,-0.018 0.025,-0.045 -0.001,-0.02 0.002,-0.03 0.011,-0.03 0.004,0 0.008,0.002 0.01,0.005 0.003,0.005 0.005,0.012 0.004,0.023 -0.001,0.018 0.002,0.031 0.008,0.04 0.006,0.009 0.013,0.013 0.024,0.013 0.017,0 0.03,-0.012 0.037,-0.035 0.005,-0.017 0.008,-0.045 0.009,-0.085 0.001,-0.03 -0.003,-0.056 -0.011,-0.076 -0.008,-0.021 -0.019,-0.031 -0.033,-0.031zm0.161 0.139c-0.002,0.002 -0.004,0.003 -0.006,0.004 -0.002,0.001 -0.005,0.001 -0.007,0 0.004,-0.001 0.008,-0.003 0.012,-0.006 0.003,-0.002 0.006,-0.006 0.009,-0.011 -0.001,0.005 -0.003,0.009 -0.007,0.013zm-0.016 -0.009c-0.002,-0.001 -0.004,-0.003 -0.004,-0.006 -0.001,-0.003 -0.001,-0.006 0.001,-0.009 0.001,-0.003 0.003,-0.006 0.005,-0.007 0.002,-0.002 0.005,-0.002 0.007,-0.001 0.002,0.001 0.004,0.003 0.005,0.006 0.001,0.003 0,0.006 -0.001,0.009 -0.001,0.003 -0.003,0.006 -0.005,0.007 -0.002,0.002 -0.005,0.002 -0.007,0.001zm-0.024 -0.086c-0.004,0.006 -0.008,0.013 -0.014,0.022 -0.002,0.003 -0.004,0.007 -0.006,0.012l-0.006 0.012c0.003,-0.008 0.006,-0.016 0.01,-0.024 0.004,-0.008 0.008,-0.015 0.013,-0.023 0.006,-0.009 0.011,-0.015 0.016,-0.02l0.002 -0.002c0.001,-0.001 0.002,-0.002 0.002,-0.002l0.002 -0.002 0.003 -0.002c0.005,-0.003 0.009,-0.004 0.012,-0.004 -0.003,0 -0.007,0.002 -0.011,0.005l-0.002 0.002 -0.002 0.002c-0.001,0.001 -0.001,0.001 -0.002,0.002l-0.002 0.002c-0.005,0.006 -0.01,0.013 -0.015,0.021zm0.039 -0.046c-0.013,-0.002 -0.027,0.007 -0.043,0.029 -0.014,0.019 -0.027,0.044 -0.039,0.074 -0.011,0.03 -0.018,0.056 -0.02,0.079 -0.002,0.025 0.002,0.04 0.014,0.045 0.008,0.004 0.016,0.003 0.024,-0 0.006,-0.003 0.012,-0.008 0.019,-0.016 0.001,-0.001 0.003,-0.003 0.004,-0.005l0.004 -0.005c0.003,-0.004 0.006,-0.007 0.007,-0.009 0.005,-0.006 0.01,-0.009 0.013,-0.009 0.004,0 0.008,0.003 0.014,0.008 0.002,0.002 0.004,0.004 0.007,0.008l0.004 0.004 0.004 0.005c0.007,0.007 0.013,0.012 0.018,0.015 0.007,0.003 0.014,0.003 0.021,-0 0.008,-0.004 0.013,-0.018 0.014,-0.041 0.001,-0.022 -0.001,-0.046 -0.007,-0.074 -0.006,-0.029 -0.013,-0.053 -0.023,-0.072 -0.011,-0.022 -0.023,-0.034 -0.036,-0.036zm0.275 0.016c-0.002,0.002 -0.004,0.004 -0.006,0.007 -0.003,0.004 -0.006,0.01 -0.01,0.016l-0.002 0.004 -0.002 0.004c-0.002,0.003 -0.004,0.006 -0.005,0.008 -0.002,0.003 -0.004,0.006 -0.006,0.008 -0.003,0.003 -0.006,0.004 -0.008,0.005 0.003,-0.001 0.005,-0.003 0.007,-0.006 0.002,-0.002 0.003,-0.005 0.005,-0.008 0.001,-0.002 0.003,-0.005 0.005,-0.009l0.005 -0.008c0.004,-0.007 0.008,-0.013 0.011,-0.016 0.002,-0.003 0.005,-0.005 0.007,-0.007 0.003,-0.002 0.006,-0.004 0.009,-0.004 -0.003,0 -0.005,0.002 -0.008,0.005zm-0.095 0.144c-0.002,0.002 -0.004,0.004 -0.006,0.005 -0.004,0.004 -0.008,0.007 -0.011,0.011 -0.001,0.002 -0.003,0.004 -0.004,0.007 -0.001,0.002 -0.001,0.004 -0.002,0.008 -0,-0.003 0,-0.005 0.001,-0.008 0.001,-0.003 0.002,-0.005 0.003,-0.008 0.002,-0.004 0.006,-0.008 0.011,-0.012 0.003,-0.003 0.007,-0.006 0.012,-0.009l0.003 -0.002 0.003 -0.002c0.002,-0.002 0.005,-0.003 0.006,-0.004 -0.003,0.003 -0.006,0.007 -0.011,0.011l-0.006 0.004zm-0.025 -0.13c-0.001,0.002 -0.003,0.005 -0.003,0.008 -0.001,0.003 -0.001,0.005 -0.001,0.009 -0.001,-0.003 -0.002,-0.006 -0.001,-0.009 0,-0.003 0.001,-0.006 0.003,-0.009 0.002,-0.003 0.004,-0.005 0.007,-0.006 0.003,-0.001 0.006,-0.002 0.009,-0.001 -0.006,0.001 -0.01,0.004 -0.013,0.009zm0.127 -0.031c-0.006,0 -0.012,0.003 -0.018,0.009 -0.004,0.004 -0.009,0.011 -0.014,0.02l-0.003 0.005 -0.001 0.003 -0.001 0.003c-0.002,0.004 -0.004,0.007 -0.005,0.009 -0.004,0.006 -0.007,0.009 -0.009,0.009 -0.002,0 -0.007,-0.004 -0.014,-0.013l-0.001 -0.001 -0.001 -0.002c-0.001,-0.001 -0.002,-0.002 -0.003,-0.003 -0.002,-0.002 -0.004,-0.005 -0.006,-0.007 -0.005,-0.005 -0.01,-0.01 -0.014,-0.014 -0.007,-0.007 -0.015,-0.01 -0.023,-0.01 -0.007,0 -0.014,0.003 -0.019,0.008 -0.005,0.005 -0.009,0.012 -0.01,0.02 -0.001,0.008 0,0.017 0.005,0.025 0.003,0.006 0.008,0.012 0.014,0.019 0.002,0.003 0.005,0.005 0.008,0.008l0.004 0.004 0.004 0.004c0.007,0.006 0.012,0.011 0.014,0.014 0.004,0.005 0.006,0.009 0.006,0.013 0,0.004 -0.002,0.008 -0.007,0.013 -0.002,0.002 -0.004,0.004 -0.008,0.006l-0.002 0.001 -0.002 0.002 -0.005 0.003c-0.008,0.006 -0.013,0.011 -0.017,0.016 -0.005,0.007 -0.008,0.015 -0.009,0.024 -0,0.007 0.001,0.013 0.003,0.019 0.003,0.006 0.006,0.01 0.011,0.014 0.011,0.008 0.025,0.009 0.041,0.004 0.022,-0.007 0.044,-0.028 0.065,-0.061 0.02,-0.03 0.032,-0.059 0.038,-0.086 0.006,-0.028 0.006,-0.049 0.001,-0.062 -0.004,-0.011 -0.012,-0.017 -0.023,-0.017zm0.185 0.15c-0.001,0.004 -0.003,0.007 -0.005,0.009 -0.003,0.002 -0.006,0.004 -0.009,0.004 -0.003,0.001 -0.006,0.001 -0.01,0 0.004,-0.001 0.007,-0.002 0.009,-0.002 0.003,-0.001 0.006,-0.003 0.008,-0.004 0.002,-0.002 0.004,-0.004 0.005,-0.008 0.001,-0.002 0.002,-0.006 0.002,-0.01 0.001,0.004 0.001,0.007 0,0.011zm-0.037 -0.004c-0.002,-0.004 -0.001,-0.01 0.002,-0.018 0.003,-0.009 0.007,-0.013 0.011,-0.013 0.005,0 0.008,0.005 0.011,0.014 0.001,0.004 0.002,0.007 0.002,0.011 0,0.004 -0,0.006 -0.001,0.008 -0.002,0.003 -0.006,0.004 -0.012,0.004 -0.007,-0 -0.011,-0.002 -0.013,-0.005zm-0.02 -0.103c-0.004,0.007 -0.008,0.014 -0.012,0.022 -0.003,0.006 -0.006,0.014 -0.009,0.023 0.002,-0.008 0.004,-0.016 0.007,-0.024 0.003,-0.007 0.007,-0.015 0.011,-0.022 0.005,-0.008 0.01,-0.014 0.016,-0.019 0.003,-0.003 0.007,-0.005 0.01,-0.007 0.004,-0.002 0.008,-0.003 0.011,-0.002 -0.007,0.001 -0.013,0.004 -0.02,0.011 -0.005,0.005 -0.01,0.011 -0.015,0.019zm-0.065 0.125c-0.002,0.001 -0.004,0.003 -0.006,0.004 -0.002,0.002 -0.003,0.004 -0.004,0.006 -0,-0.003 0,-0.005 0.002,-0.008 0.001,-0.002 0.003,-0.003 0.006,-0.005 0.004,-0.002 0.009,-0.004 0.014,-0.004l-0.003 0.002 -0.003 0.002c-0.003,0.001 -0.005,0.002 -0.006,0.003zm0.179 -0.019c-0.004,-0.001 -0.007,-0.003 -0.009,-0.005 -0.002,-0.002 -0.003,-0.005 -0.003,-0.009 -0,-0.002 -0.001,-0.007 -0.001,-0.015 -0,-0.004 -0,-0.007 -0.001,-0.01 -0,-0.004 -0.001,-0.008 -0.001,-0.012 -0.004,-0.032 -0.012,-0.056 -0.024,-0.073 -0.011,-0.016 -0.024,-0.024 -0.039,-0.025 -0.013,-0 -0.026,0.007 -0.038,0.023 -0.013,0.016 -0.022,0.036 -0.029,0.06 -0.003,0.01 -0.005,0.02 -0.006,0.03 -0,0.002 -0.001,0.004 -0.001,0.006l-0 0.003 -0 0.002c-0,0.004 -0.001,0.007 -0.001,0.009 -0.001,0.005 -0.002,0.009 -0.004,0.011 -0.002,0.003 -0.005,0.004 -0.01,0.005 -0.013,0.003 -0.022,0.008 -0.027,0.015 -0.005,0.006 -0.006,0.014 -0.003,0.023 0.003,0.013 0.017,0.023 0.04,0.03 0.021,0.007 0.047,0.01 0.078,0.011 0.028,0.001 0.05,-0 0.065,-0.003 0.023,-0.004 0.037,-0.012 0.044,-0.024 0.006,-0.012 0.006,-0.022 0.001,-0.032 -0.005,-0.01 -0.015,-0.017 -0.029,-0.021zm0.211 -0.132c-0.002,0.002 -0.005,0.004 -0.007,0.007 -0.003,0.004 -0.007,0.01 -0.012,0.017l-0.003 0.004 -0.003 0.004c-0.002,0.003 -0.005,0.006 -0.007,0.008 -0.003,0.003 -0.006,0.005 -0.008,0.006 -0.004,0.002 -0.007,0.002 -0.01,0.002 0.006,-0.001 0.012,-0.004 0.017,-0.01 0.002,-0.002 0.004,-0.005 0.006,-0.008l0.003 -0.004 0.003 -0.004c0.005,-0.008 0.009,-0.013 0.013,-0.017 0.003,-0.003 0.006,-0.005 0.008,-0.007 0.003,-0.002 0.007,-0.003 0.01,-0.002 -0.004,0 -0.007,0.002 -0.009,0.004zm-0.119 0.015c-0.004,0.005 -0.007,0.011 -0.01,0.018 -0.002,0.004 -0.005,0.011 -0.008,0.02 -0.001,0.003 -0.002,0.007 -0.003,0.01l-0.002 0.005 -0.002 0.005c0.003,-0.015 0.007,-0.029 0.012,-0.041 0.004,-0.008 0.007,-0.014 0.011,-0.018 0.002,-0.003 0.005,-0.005 0.008,-0.007 0.003,-0.002 0.006,-0.003 0.01,-0.003 -0.006,0.001 -0.011,0.004 -0.016,0.011zm0.179 0.079c-0.001,-0.032 -0.006,-0.058 -0.016,-0.078 -0.009,-0.019 -0.019,-0.029 -0.031,-0.031 -0.009,-0.001 -0.017,0.001 -0.024,0.008 -0.006,0.005 -0.013,0.015 -0.022,0.029 -0.008,0.012 -0.014,0.018 -0.02,0.017 -0.004,-0.001 -0.008,-0.006 -0.013,-0.015 -0.006,-0.01 -0.012,-0.018 -0.018,-0.023 -0.007,-0.006 -0.015,-0.009 -0.022,-0.009 -0.021,0.002 -0.037,0.028 -0.049,0.078 -0.008,0.032 -0.011,0.061 -0.01,0.086 0.002,0.029 0.01,0.045 0.024,0.049 0.008,0.002 0.016,-0 0.022,-0.007 0.005,-0.005 0.009,-0.013 0.014,-0.024 0.001,-0.004 0.003,-0.008 0.005,-0.014l0.001 -0.003 0.001 -0.003c0.001,-0.002 0.001,-0.004 0.002,-0.006 0.003,-0.008 0.006,-0.013 0.008,-0.014 0.002,-0.001 0.004,0.001 0.005,0.005 0.001,0.001 0.001,0.003 0.002,0.006l0.001 0.002 0.001 0.002 0.001 0.004c0.003,0.006 0.005,0.011 0.008,0.015 0.004,0.005 0.009,0.007 0.014,0.007 0.004,0 0.008,-0.002 0.012,-0.005 0.003,-0.002 0.006,-0.006 0.009,-0.012l0.002 -0.003 0.002 -0.003c0.001,-0.002 0.002,-0.004 0.004,-0.005 0.003,-0.003 0.005,-0.004 0.007,-0.003 0.002,0.001 0.005,0.005 0.007,0.013 0.001,0.001 0.001,0.003 0.002,0.005l0.001 0.003 0.001 0.003c0.002,0.005 0.003,0.009 0.004,0.012 0.004,0.01 0.007,0.017 0.012,0.023 0.005,0.007 0.012,0.01 0.02,0.011 0.013,0 0.022,-0.011 0.028,-0.034 0.005,-0.02 0.007,-0.049 0.005,-0.086zm0.151 -0.093c-0.002,0.002 -0.004,0.004 -0.006,0.007 -0.003,0.004 -0.006,0.01 -0.01,0.016l-0.002 0.004 -0.002 0.004c-0.002,0.003 -0.004,0.006 -0.005,0.008 -0.002,0.003 -0.004,0.006 -0.006,0.008 -0.003,0.003 -0.006,0.004 -0.008,0.005 0.003,-0.001 0.005,-0.003 0.007,-0.006 0.002,-0.002 0.003,-0.005 0.005,-0.008 0.001,-0.002 0.003,-0.005 0.005,-0.009l0.005 -0.008c0.004,-0.007 0.008,-0.013 0.011,-0.016 0.002,-0.003 0.005,-0.005 0.007,-0.007 0.003,-0.002 0.006,-0.004 0.009,-0.004 -0.003,0 -0.005,0.002 -0.008,0.005zm-0.095 0.144c-0.002,0.002 -0.004,0.004 -0.006,0.005 -0.004,0.004 -0.008,0.007 -0.011,0.011 -0.001,0.002 -0.003,0.004 -0.004,0.007 -0.001,0.002 -0.001,0.004 -0.002,0.008 -0,-0.003 0,-0.005 0.001,-0.008 0.001,-0.003 0.002,-0.005 0.003,-0.008 0.002,-0.004 0.006,-0.008 0.011,-0.012 0.003,-0.003 0.007,-0.006 0.012,-0.009l0.003 -0.002 0.003 -0.002c0.002,-0.002 0.005,-0.003 0.006,-0.004 -0.003,0.003 -0.006,0.007 -0.011,0.011l-0.006 0.004zm-0.025 -0.13c-0.001,0.002 -0.003,0.005 -0.003,0.008 -0.001,0.003 -0.001,0.005 -0.001,0.009 -0.001,-0.003 -0.002,-0.006 -0.001,-0.009 0,-0.003 0.001,-0.006 0.003,-0.009 0.002,-0.003 0.004,-0.005 0.007,-0.006 0.003,-0.001 0.006,-0.002 0.009,-0.001 -0.006,0.001 -0.01,0.004 -0.013,0.009zm0.127 -0.031c-0.006,0 -0.012,0.003 -0.018,0.009 -0.004,0.004 -0.009,0.011 -0.014,0.02l-0.003 0.005 -0.001 0.003 -0.001 0.003c-0.002,0.004 -0.004,0.007 -0.005,0.009 -0.004,0.006 -0.007,0.009 -0.009,0.009 -0.002,0 -0.007,-0.004 -0.014,-0.013l-0.001 -0.001 -0.001 -0.002c-0.001,-0.001 -0.002,-0.002 -0.003,-0.003 -0.002,-0.002 -0.004,-0.005 -0.006,-0.007 -0.005,-0.005 -0.01,-0.01 -0.014,-0.014 -0.007,-0.007 -0.015,-0.01 -0.023,-0.01 -0.007,0 -0.014,0.003 -0.019,0.008 -0.005,0.005 -0.009,0.012 -0.01,0.02 -0.001,0.008 0,0.017 0.005,0.025 0.003,0.006 0.008,0.012 0.014,0.019 0.002,0.003 0.005,0.005 0.008,0.008l0.004 0.004 0.004 0.004c0.007,0.006 0.012,0.011 0.014,0.014 0.004,0.005 0.006,0.009 0.006,0.013 0,0.004 -0.002,0.008 -0.007,0.013 -0.002,0.002 -0.004,0.004 -0.008,0.006l-0.002 0.001 -0.002 0.002 -0.005 0.003c-0.008,0.006 -0.013,0.011 -0.017,0.016 -0.005,0.007 -0.008,0.015 -0.009,0.024 -0,0.007 0.001,0.013 0.003,0.019 0.003,0.006 0.006,0.01 0.011,0.014 0.011,0.008 0.025,0.009 0.041,0.004 0.022,-0.007 0.044,-0.028 0.065,-0.061 0.02,-0.03 0.032,-0.059 0.038,-0.086 0.006,-0.028 0.006,-0.049 0.001,-0.062 -0.004,-0.011 -0.012,-0.017 -0.023,-0.017zm0.141 0.096c-0.001,0.003 -0.003,0.006 -0.005,0.008 -0.002,0.003 -0.005,0.004 -0.007,0.006 -0.003,0.001 -0.006,0.002 -0.009,0.001 0.003,-0.001 0.006,-0.002 0.008,-0.003 0.002,-0.002 0.005,-0.003 0.006,-0.005 0.004,-0.004 0.007,-0.009 0.008,-0.016 0,0.003 -0,0.006 -0.001,0.009zm-0.027 -0.014c0.002,-0.003 0.004,-0.006 0.006,-0.007 0.003,-0.001 0.005,-0.002 0.007,-0 0.002,0.001 0.003,0.003 0.004,0.006 0,0.003 -0,0.006 -0.002,0.009 -0.001,0.003 -0.003,0.006 -0.006,0.007 -0.003,0.001 -0.005,0.001 -0.007,0 -0.002,-0.001 -0.003,-0.003 -0.004,-0.006 -0,-0.003 0,-0.006 0.001,-0.009zm-0.023 -0.063c-0.007,0.003 -0.012,0.008 -0.017,0.014 -0.004,0.005 -0.008,0.012 -0.012,0.019 -0.003,0.006 -0.005,0.013 -0.007,0.022 0,-0.003 0.001,-0.007 0.002,-0.012 0.001,-0.004 0.002,-0.008 0.004,-0.011 0.003,-0.008 0.007,-0.015 0.012,-0.021 0.005,-0.006 0.011,-0.011 0.018,-0.014 0.003,-0.001 0.007,-0.003 0.011,-0.003 0.004,-0.001 0.008,-0.001 0.011,-0.001 -0.008,0.001 -0.015,0.003 -0.021,0.006zm0.028 -0.019c-0.02,-0 -0.036,0.006 -0.049,0.018 -0.011,0.011 -0.02,0.026 -0.024,0.045 -0.004,0.018 -0.005,0.037 -0.003,0.058 0.002,0.02 0.007,0.039 0.014,0.057 0.007,0.017 0.015,0.03 0.024,0.039 0.008,0.008 0.016,0.012 0.024,0.013 0.007,0.001 0.013,-0.002 0.019,-0.007 0.005,-0.005 0.008,-0.012 0.009,-0.021 0.001,-0.006 0.001,-0.013 -0,-0.021 -0,-0.002 -0.001,-0.005 -0.002,-0.009l-0.001 -0.004c-0,-0.002 -0.001,-0.003 -0.001,-0.004 -0.001,-0.006 -0.001,-0.011 0,-0.015 0.001,-0.004 0.004,-0.008 0.009,-0.01 0.016,-0.008 0.028,-0.02 0.036,-0.036 0.008,-0.014 0.01,-0.03 0.009,-0.045 -0.002,-0.016 -0.008,-0.029 -0.019,-0.039 -0.012,-0.011 -0.027,-0.017 -0.046,-0.017zm0.132 0.015c-0.007,0.001 -0.012,0.002 -0.017,0.004 -0.006,0.002 -0.012,0.004 -0.016,0.007 -0.003,0.002 -0.005,0.004 -0.006,0.006 -0.002,0.002 -0.002,0.005 -0.002,0.009 -0.001,-0.003 -0,-0.006 0.001,-0.009 0.001,-0.002 0.003,-0.005 0.006,-0.007 0.004,-0.003 0.009,-0.006 0.016,-0.008 0.011,-0.003 0.023,-0.004 0.035,-0.003 -0.006,0.001 -0.012,0.001 -0.017,0.002zm0.028 -0.014c-0.024,-0.001 -0.043,0.001 -0.058,0.009 -0.016,0.007 -0.023,0.018 -0.022,0.032 0.001,0.008 0.004,0.013 0.009,0.017 0.004,0.003 0.01,0.004 0.018,0.005l0.005 0 0.005 0c0.004,0 0.007,0.001 0.009,0.001 0.006,0.001 0.01,0.004 0.011,0.008 0.001,0.002 -0,0.016 -0.003,0.042 -0.001,0.013 -0.002,0.024 -0.003,0.033 -0.001,0.013 -0,0.024 0,0.034 0.001,0.014 0.006,0.026 0.014,0.035 0.008,0.01 0.018,0.013 0.03,0.012 0.021,-0.003 0.029,-0.026 0.023,-0.068 -0.003,-0.022 -0.005,-0.042 -0.005,-0.057 -0,-0.017 0.001,-0.027 0.004,-0.03 0.002,-0.002 0.006,-0.003 0.011,-0.003 0.002,0 0.004,0 0.008,0l0.004 0 0.004 -0c0.006,-0 0.011,-0.001 0.015,-0.003 0.005,-0.002 0.008,-0.007 0.01,-0.012 0.002,-0.007 0.001,-0.014 -0.003,-0.021 -0.004,-0.006 -0.01,-0.012 -0.019,-0.017 -0.017,-0.01 -0.04,-0.016 -0.067,-0.017zm0.229 0.139c-0.001,0 -0.002,0.001 -0.003,0.002l-0.002 0.001 -0.002 0.001c-0.003,0.002 -0.005,0.003 -0.008,0.004 -0.003,0.001 -0.006,0.001 -0.008,0 0.005,-0.001 0.01,-0.003 0.014,-0.007l0.002 -0.001 0.002 -0.001c0.001,-0.001 0.003,-0.002 0.004,-0.002 0.003,-0.001 0.006,-0.002 0.008,-0.001 -0.002,0.001 -0.005,0.002 -0.007,0.003zm-0.085 -0.106c-0.005,0.006 -0.01,0.012 -0.014,0.02 -0.003,0.006 -0.007,0.014 -0.009,0.023 0.002,-0.008 0.004,-0.017 0.008,-0.024 0.003,-0.008 0.008,-0.015 0.014,-0.021 0.006,-0.007 0.012,-0.012 0.02,-0.015 0.004,-0.002 0.008,-0.003 0.012,-0.003 0.004,-0.001 0.008,-0.001 0.012,-0 -0.009,0.001 -0.016,0.003 -0.023,0.006 -0.007,0.004 -0.013,0.009 -0.019,0.015zm0.117 0.123c-0.001,-0.017 -0.007,-0.027 -0.016,-0.031 -0.004,-0.002 -0.009,-0.002 -0.014,-0.001 -0.005,0.001 -0.009,0.004 -0.014,0.007 -0.004,0.004 -0.009,0.005 -0.013,0.004 -0.004,-0 -0.008,-0.003 -0.012,-0.007 -0.004,-0.004 -0.006,-0.009 -0.008,-0.016 -0.002,-0.007 -0.002,-0.014 -0.001,-0.022 0.002,-0.012 0.007,-0.018 0.015,-0.02 0.006,-0.001 0.015,0.001 0.027,0.005 0.005,0.002 0.01,0.002 0.014,-0 0.004,-0.002 0.007,-0.005 0.009,-0.01 0.002,-0.005 0.003,-0.011 0.002,-0.017 -0.001,-0.007 -0.003,-0.013 -0.008,-0.019 -0.009,-0.013 -0.021,-0.022 -0.035,-0.027 -0.013,-0.004 -0.027,-0.005 -0.04,-0.001 -0.017,0.005 -0.032,0.017 -0.043,0.036 -0.012,0.021 -0.019,0.048 -0.019,0.08 0,0.036 0.009,0.064 0.026,0.084 0.008,0.01 0.017,0.017 0.028,0.021 0.011,0.004 0.023,0.006 0.035,0.005 0.021,-0.002 0.038,-0.01 0.051,-0.025 0.012,-0.014 0.017,-0.03 0.016,-0.048z"/>
   <path class="fil0" d="M2.194 0.463c-0.004,0.005 -0.008,0.01 -0.012,0.014 -0.005,0.005 -0.01,0.008 -0.014,0.01 0.004,-0.003 0.008,-0.006 0.013,-0.012 0.004,-0.004 0.007,-0.009 0.011,-0.014 0.002,-0.002 0.003,-0.005 0.005,-0.007l0.001 -0.002 0.001 -0.002c0.001,-0.002 0.002,-0.003 0.003,-0.004 0.002,-0.002 0.004,-0.004 0.007,-0.006 0.003,-0.002 0.006,-0.002 0.008,-0.002 -0.005,0 -0.01,0.004 -0.014,0.009 -0.001,0.001 -0.001,0.002 -0.002,0.004l-0.001 0.002 -0.001 0.002c-0.001,0.002 -0.003,0.005 -0.005,0.008zm-0.058 -0.035c-0.002,0.001 -0.004,0.003 -0.006,0.006 -0.003,0.003 -0.005,0.008 -0.007,0.014 -0.002,0.004 -0.003,0.009 -0.005,0.016l-0.002 0.008 -0.002 0.008c0,-0.007 0.001,-0.012 0.002,-0.017 0.001,-0.006 0.003,-0.011 0.005,-0.016 0.003,-0.006 0.005,-0.011 0.008,-0.015 0.002,-0.002 0.004,-0.004 0.006,-0.005 0.003,-0.001 0.005,-0.002 0.008,-0.002 -0.003,0 -0.005,0.001 -0.007,0.003zm0.066 0.093c-0.004,-0.002 -0.005,-0.004 -0.003,-0.006 0.001,-0.001 0.002,-0.002 0.005,-0.003l0.002 -0.001 0.002 -0.001c0.002,-0.001 0.003,-0.001 0.004,-0.002 0.007,-0.004 0.013,-0.008 0.018,-0.013 0.007,-0.007 0.012,-0.015 0.014,-0.024 0.003,-0.009 0.002,-0.017 -0,-0.025 -0.003,-0.007 -0.007,-0.012 -0.013,-0.016 -0.006,-0.003 -0.013,-0.004 -0.019,-0.002 -0.008,0.002 -0.014,0.008 -0.019,0.016 -0.009,0.015 -0.017,0.025 -0.026,0.03 -0.003,0.002 -0.005,0.003 -0.007,0.002 -0.001,-0.001 -0.001,-0.004 0.001,-0.008 0.007,-0.016 0.009,-0.029 0.007,-0.039 -0.002,-0.008 -0.007,-0.014 -0.016,-0.016 -0.017,-0.004 -0.03,0.005 -0.039,0.027 -0.007,0.018 -0.012,0.044 -0.014,0.078 -0.002,0.034 -0.001,0.062 0.004,0.083 0.006,0.026 0.017,0.038 0.033,0.037 0.014,-0.001 0.023,-0.012 0.025,-0.035 0.001,-0.008 0.001,-0.016 0,-0.026 -0,-0.003 -0.001,-0.007 -0.001,-0.01 -0,-0.001 -0,-0.003 -0,-0.004l-0 -0.001 -0 -0.001 0 -0c-0,-0.003 -0,-0.005 0.001,-0.006 0.001,-0.001 0.003,-0.001 0.005,0.001 0.005,0.005 0.01,0.017 0.015,0.037 0.003,0.012 0.007,0.023 0.013,0.031 0.005,0.007 0.011,0.012 0.018,0.015 0.006,0.002 0.013,0.002 0.019,-0 0.006,-0.003 0.012,-0.007 0.016,-0.014 0.005,-0.008 0.007,-0.016 0.007,-0.026 0,-0.009 -0.002,-0.019 -0.006,-0.029 -0.009,-0.021 -0.024,-0.038 -0.046,-0.051zm0.167 0.05c-0.002,0.003 -0.004,0.005 -0.007,0.006 -0.003,0.002 -0.006,0.002 -0.008,0.002 0.005,-0.002 0.01,-0.006 0.013,-0.01 0.003,-0.004 0.005,-0.01 0.006,-0.017 0.001,0.007 0,0.013 -0.004,0.018zm-0.031 -0.016c-0.001,-0.004 -0,-0.008 0.002,-0.011 0.002,-0.003 0.004,-0.005 0.007,-0.006 0.003,-0.001 0.006,0 0.009,0.003 0.003,0.002 0.004,0.006 0.005,0.01 0.001,0.004 0,0.008 -0.002,0.011 -0.002,0.003 -0.004,0.005 -0.007,0.006 -0.003,0.001 -0.006,-0 -0.009,-0.003 -0.003,-0.002 -0.004,-0.006 -0.005,-0.01zm-0.008 -0.123c-0.008,0.003 -0.014,0.008 -0.02,0.014 -0.005,0.005 -0.01,0.012 -0.015,0.02l-0.001 0.003 -0.001 0.003 -0.003 0.006 -0.002 0.006 -0.002 0.006c0.002,-0.009 0.004,-0.017 0.008,-0.025 0.004,-0.008 0.009,-0.016 0.015,-0.022 0.006,-0.007 0.014,-0.011 0.021,-0.014 0.004,-0.001 0.008,-0.002 0.012,-0.003l0.003 -0 0.003 -0 0.006 0c-0.009,0.001 -0.017,0.003 -0.024,0.006zm0.049 -0.015c-0.03,-0.008 -0.056,-0.003 -0.076,0.016 -0.018,0.017 -0.029,0.04 -0.033,0.071 -0.004,0.03 -0.001,0.058 0.01,0.084 0.011,0.028 0.029,0.045 0.053,0.052 0.022,0.007 0.043,0 0.063,-0.019 0.018,-0.017 0.031,-0.041 0.039,-0.071 0.008,-0.03 0.008,-0.058 -0.001,-0.082 -0.009,-0.027 -0.028,-0.044 -0.055,-0.052zm0.24 0.012c-0.002,0.002 -0.005,0.004 -0.007,0.007 -0.003,0.004 -0.007,0.01 -0.012,0.017l-0.003 0.004 -0.003 0.004c-0.002,0.003 -0.005,0.006 -0.007,0.008 -0.003,0.003 -0.006,0.005 -0.008,0.006 -0.004,0.002 -0.007,0.002 -0.01,0.002 0.006,-0.001 0.012,-0.004 0.017,-0.01 0.002,-0.002 0.004,-0.005 0.006,-0.008l0.003 -0.004 0.003 -0.004c0.005,-0.008 0.009,-0.013 0.013,-0.017 0.003,-0.003 0.006,-0.005 0.008,-0.007 0.003,-0.002 0.007,-0.003 0.01,-0.002 -0.004,0 -0.007,0.002 -0.009,0.004zm-0.119 0.015c-0.004,0.005 -0.007,0.011 -0.01,0.018 -0.002,0.004 -0.005,0.011 -0.008,0.02 -0.001,0.003 -0.002,0.007 -0.003,0.01l-0.002 0.005 -0.002 0.005c0.003,-0.015 0.007,-0.029 0.012,-0.041 0.004,-0.008 0.007,-0.014 0.011,-0.018 0.002,-0.003 0.005,-0.005 0.008,-0.007 0.003,-0.002 0.006,-0.003 0.01,-0.003 -0.006,0.001 -0.011,0.004 -0.016,0.011zm0.179 0.079c-0.001,-0.032 -0.006,-0.058 -0.016,-0.078 -0.009,-0.019 -0.019,-0.029 -0.031,-0.031 -0.009,-0.001 -0.017,0.001 -0.024,0.008 -0.006,0.005 -0.013,0.015 -0.022,0.029 -0.008,0.012 -0.014,0.018 -0.02,0.017 -0.004,-0.001 -0.008,-0.006 -0.013,-0.015 -0.006,-0.01 -0.012,-0.018 -0.018,-0.023 -0.007,-0.006 -0.015,-0.009 -0.022,-0.009 -0.021,0.002 -0.037,0.028 -0.049,0.078 -0.008,0.032 -0.011,0.061 -0.01,0.086 0.002,0.029 0.01,0.045 0.024,0.049 0.008,0.002 0.016,-0 0.022,-0.007 0.005,-0.005 0.009,-0.013 0.014,-0.024 0.001,-0.004 0.003,-0.008 0.005,-0.014l0.001 -0.003 0.001 -0.003c0.001,-0.002 0.001,-0.004 0.002,-0.006 0.003,-0.008 0.006,-0.013 0.008,-0.014 0.002,-0.001 0.004,0.001 0.005,0.005 0.001,0.001 0.001,0.003 0.002,0.006l0.001 0.002 0.001 0.002 0.001 0.004c0.003,0.006 0.005,0.011 0.008,0.015 0.004,0.005 0.009,0.007 0.014,0.007 0.004,0 0.008,-0.002 0.012,-0.005 0.003,-0.002 0.006,-0.006 0.009,-0.012l0.002 -0.003 0.002 -0.003c0.001,-0.002 0.002,-0.004 0.004,-0.005 0.003,-0.003 0.005,-0.004 0.007,-0.003 0.002,0.001 0.005,0.005 0.007,0.013 0.001,0.001 0.001,0.003 0.002,0.005l0.001 0.003 0.001 0.003c0.002,0.005 0.003,0.009 0.004,0.012 0.004,0.01 0.007,0.017 0.012,0.023 0.005,0.007 0.012,0.01 0.02,0.011 0.013,0 0.022,-0.011 0.028,-0.034 0.005,-0.02 0.007,-0.049 0.005,-0.086zm0.172 -0.005c-0.002,0.003 -0.004,0.005 -0.007,0.006 -0.003,0.001 -0.006,0.002 -0.009,0.001 0.006,-0.002 0.01,-0.005 0.014,-0.009 0.003,-0.004 0.005,-0.01 0.006,-0.016 0.001,0.007 0,0.013 -0.004,0.018zm-0.026 -0.017c-0,-0.003 0.001,-0.006 0.002,-0.009 0.002,-0.002 0.004,-0.004 0.007,-0.004 0.003,-0 0.005,0.001 0.007,0.003 0.002,0.002 0.003,0.005 0.003,0.009 0,0.003 -0.001,0.006 -0.003,0.009 -0.002,0.003 -0.004,0.004 -0.007,0.004 -0.003,0 -0.005,-0.001 -0.007,-0.003 -0.002,-0.002 -0.003,-0.005 -0.003,-0.009zm-0.012 -0.068c-0.006,0.003 -0.011,0.007 -0.015,0.011 -0.004,0.005 -0.007,0.01 -0.01,0.017 -0.001,0.003 -0.002,0.006 -0.003,0.01 -0.001,0.003 -0.001,0.006 -0.001,0.01 -0.001,-0.007 0,-0.014 0.002,-0.021 0.002,-0.007 0.005,-0.013 0.01,-0.018 0.005,-0.005 0.01,-0.009 0.016,-0.012 0.006,-0.002 0.012,-0.004 0.019,-0.004l-0.005 0.001c-0.002,0 -0.003,0.001 -0.005,0.001 -0.003,0.001 -0.005,0.002 -0.009,0.004zm-0.038 0.144c-0.005,0.009 -0.009,0.017 -0.01,0.024 -0,-0.005 0,-0.009 0.002,-0.014 0.001,-0.004 0.003,-0.008 0.006,-0.012 0.003,-0.004 0.005,-0.008 0.008,-0.011 0.003,-0.003 0.006,-0.006 0.01,-0.009l-0.004 0.005 -0.004 0.005c-0.003,0.004 -0.005,0.008 -0.007,0.011zm0.055 -0.162c-0.015,0.002 -0.027,0.007 -0.036,0.015 -0.009,0.008 -0.015,0.018 -0.018,0.03 -0.003,0.012 -0.004,0.024 -0.002,0.036 0.002,0.013 0.008,0.024 0.015,0.035 0.002,0.002 0.002,0.004 0.001,0.007 -0.001,0.002 -0.003,0.004 -0.006,0.008l-0.001 0.001 -0.001 0.001c-0.001,0.001 -0.002,0.002 -0.002,0.003 -0.002,0.002 -0.004,0.004 -0.006,0.006 -0.005,0.006 -0.009,0.012 -0.012,0.018 -0.005,0.01 -0.008,0.02 -0.008,0.029 0,0.008 0.002,0.016 0.006,0.023 0.004,0.006 0.009,0.011 0.015,0.014 0.006,0.003 0.012,0.004 0.017,0.003 0.013,-0.003 0.023,-0.011 0.03,-0.025 0.001,-0.002 0.002,-0.005 0.004,-0.009l0.001 -0.004 0.001 -0.004c0.002,-0.007 0.005,-0.011 0.007,-0.014 0.003,-0.004 0.006,-0.005 0.008,-0.003 0.002,0.003 0.004,0.013 0.004,0.03 0,0.009 0.003,0.016 0.008,0.021 0.005,0.005 0.01,0.007 0.017,0.007 0.007,-0 0.013,-0.003 0.019,-0.009 0.007,-0.006 0.012,-0.015 0.015,-0.027 0.006,-0.019 0.008,-0.039 0.009,-0.062 0,-0.024 -0.003,-0.045 -0.008,-0.065 -0.006,-0.022 -0.016,-0.038 -0.028,-0.049 -0.014,-0.013 -0.03,-0.018 -0.049,-0.016zm0.176 0.096c-0.003,0.002 -0.006,0.004 -0.01,0.006 -0.004,0.002 -0.008,0.003 -0.01,0.005 -0.004,0.003 -0.006,0.006 -0.006,0.009 -0,-0.002 0,-0.004 0.001,-0.006 0.001,-0.002 0.002,-0.004 0.004,-0.005 0.002,-0.002 0.006,-0.004 0.011,-0.006 0.004,-0.001 0.007,-0.003 0.01,-0.005 0.003,-0.002 0.006,-0.005 0.008,-0.008 -0.001,0.004 -0.003,0.007 -0.006,0.01zm-0.042 0.073c-0.005,-0.001 -0.009,-0.001 -0.013,-0 -0.003,0 -0.004,0.001 -0.006,0.002 -0.001,0 -0.001,0.001 -0.002,0.002l-0 0.002 -0 0.002c0,-0.001 0,-0.003 0,-0.004 0,-0.001 0.001,-0.003 0.002,-0.003 0.001,-0.001 0.003,-0.002 0.006,-0.003 0.003,-0.001 0.008,-0.001 0.013,-0 0.003,0 0.008,0.001 0.013,0.002l0.006 0.001 0.006 0.001c-0.004,0 -0.008,0.001 -0.013,0l-0.006 -0.001 -0.006 -0.001zm0.01 -0.149c-0.006,0.003 -0.011,0.005 -0.015,0.008 -0.002,0.001 -0.004,0.003 -0.007,0.005 -0.002,0.002 -0.004,0.004 -0.006,0.006 -0.004,0.005 -0.006,0.011 -0.006,0.016 -0.001,-0.003 -0,-0.006 0,-0.009 0.001,-0.003 0.002,-0.006 0.004,-0.008 0.003,-0.004 0.007,-0.008 0.013,-0.012 0.01,-0.006 0.021,-0.01 0.032,-0.012 -0.005,0.002 -0.011,0.004 -0.016,0.006zm0.093 0.112c-0.003,-0.004 -0.006,-0.007 -0.009,-0.01 -0.002,-0.002 -0.005,-0.004 -0.008,-0.006l-0.002 -0.001 -0.001 -0.001c-0.001,-0.001 -0.002,-0.001 -0.002,-0.002 -0.001,-0.001 -0.002,-0.003 -0.003,-0.004 -0,-0.002 0.001,-0.004 0.004,-0.007 0.001,-0.001 0.002,-0.002 0.004,-0.004l0.001 -0.001 0.001 -0.001 0.003 -0.003c0.004,-0.004 0.008,-0.008 0.01,-0.012 0.003,-0.005 0.005,-0.011 0.006,-0.017 0.002,-0.015 -0.001,-0.029 -0.009,-0.04 -0.009,-0.012 -0.023,-0.019 -0.041,-0.022 -0.009,-0.002 -0.019,-0.001 -0.03,0.001 -0.011,0.002 -0.021,0.006 -0.031,0.011 -0.01,0.005 -0.018,0.012 -0.023,0.019 -0.006,0.008 -0.008,0.017 -0.007,0.026 0.003,0.023 0.021,0.03 0.054,0.02 0.006,-0.002 0.01,-0.002 0.014,-0.002 0.003,0 0.005,0.001 0.005,0.003 0.001,0.002 -0,0.004 -0.002,0.006 -0.002,0.002 -0.005,0.004 -0.01,0.005 -0.015,0.005 -0.023,0.015 -0.022,0.027 0,0.006 0.002,0.012 0.006,0.016 0.004,0.004 0.01,0.006 0.017,0.006 0.007,-0 0.011,0.002 0.013,0.007 0.001,0.002 0.001,0.004 -0,0.006 -0.001,0.002 -0.002,0.004 -0.004,0.005 -0.003,0.002 -0.009,0.002 -0.017,0.001 -0.001,-0 -0.003,-0 -0.005,-0.001l-0.005 -0.001c-0.005,-0.001 -0.008,-0.001 -0.011,-0.001 -0.008,-0 -0.015,0 -0.019,0.003 -0.006,0.003 -0.009,0.009 -0.01,0.017 -0.001,0.01 0.003,0.019 0.012,0.028 0.008,0.008 0.02,0.015 0.033,0.02 0.014,0.005 0.028,0.007 0.041,0.006 0.015,-0.001 0.027,-0.005 0.036,-0.013 0.013,-0.011 0.02,-0.025 0.022,-0.042 0.001,-0.016 -0.002,-0.029 -0.01,-0.041zm0.124 0.027c-0.002,0.003 -0.004,0.005 -0.007,0.007 -0.003,0.001 -0.006,0.002 -0.009,0.001 0.006,-0.001 0.011,-0.004 0.014,-0.009 0.001,-0.002 0.002,-0.005 0.003,-0.008 0,-0.003 0.001,-0.006 0.001,-0.009 0.001,0.003 0.002,0.006 0.001,0.01 -0,0.004 -0.001,0.007 -0.003,0.009zm-0.026 -0.012c-0.001,-0.003 -0.002,-0.006 -0.001,-0.009 0,-0.003 0.002,-0.005 0.004,-0.006 0.002,-0.001 0.004,-0.001 0.007,0 0.003,0.001 0.005,0.004 0.006,0.007 0.002,0.003 0.002,0.006 0.001,0.009 -0,0.003 -0.002,0.005 -0.004,0.006 -0.002,0.001 -0.004,0.001 -0.007,-0 -0.003,-0.001 -0.005,-0.004 -0.006,-0.007zm-0.014 -0.133c-0.002,0.001 -0.004,0.002 -0.006,0.004 -0.003,0.003 -0.007,0.007 -0.01,0.011 -0.003,0.003 -0.005,0.008 -0.009,0.013 -0.001,0.002 -0.003,0.004 -0.004,0.007l-0.004 0.007c0.002,-0.006 0.004,-0.011 0.006,-0.015 0.002,-0.005 0.005,-0.01 0.008,-0.014 0.004,-0.005 0.007,-0.009 0.011,-0.011 0.005,-0.004 0.01,-0.005 0.014,-0.005 -0.002,0 -0.005,0.001 -0.007,0.003zm0.038 0.077c-0.005,-0.002 -0.008,-0.005 -0.01,-0.009 -0.001,-0.003 -0.001,-0.008 -0,-0.015 0,-0.001 0,-0.003 0.001,-0.004l0.001 -0.004c0.001,-0.004 0.001,-0.007 0.002,-0.01 0.001,-0.008 0.001,-0.015 0.001,-0.022 -0.001,-0.009 -0.004,-0.016 -0.009,-0.021 -0.005,-0.005 -0.011,-0.008 -0.019,-0.007 -0.008,0.001 -0.016,0.005 -0.024,0.013 -0.009,0.009 -0.017,0.022 -0.024,0.039 -0.007,0.017 -0.012,0.036 -0.014,0.057 -0.002,0.021 -0.001,0.04 0.003,0.058 0.005,0.019 0.013,0.034 0.024,0.045 0.013,0.012 0.029,0.018 0.049,0.018 0.019,-0 0.034,-0.006 0.047,-0.018 0.011,-0.011 0.018,-0.025 0.02,-0.041 0.002,-0.017 -0,-0.032 -0.008,-0.046 -0.009,-0.015 -0.022,-0.026 -0.039,-0.032zm0.061 -0.074c-0.002,0.002 -0.003,0.004 -0.004,0.006 -0.001,0.002 -0.001,0.005 -0.001,0.008 -0,0.004 0,0.009 0.001,0.016l0.001 0.008 0.001 0.008c-0.002,-0.006 -0.004,-0.011 -0.005,-0.015 -0.001,-0.006 -0.002,-0.012 -0.002,-0.016 0,-0.003 0.001,-0.006 0.002,-0.008 0.001,-0.003 0.003,-0.005 0.005,-0.007 0.004,-0.003 0.009,-0.005 0.015,-0.004 -0.005,0.001 -0.01,0.003 -0.013,0.006zm0.052 0.009c-0.004,-0.008 -0.01,-0.015 -0.016,-0.02 -0.006,-0.004 -0.012,-0.007 -0.019,-0.007 -0.006,-0 -0.012,0.001 -0.018,0.004 -0.005,0.003 -0.01,0.007 -0.012,0.012 -0.005,0.01 -0.005,0.025 0,0.044 0.001,0.003 0.002,0.007 0.003,0.012l0.002 0.006 0.002 0.006c0.003,0.01 0.004,0.018 0.005,0.024 0.002,0.015 0.002,0.031 0.002,0.048 -0,0.005 -0,0.011 -0.001,0.019l-0 0.004 -0 0.004c-0,0.003 -0,0.005 -0,0.007 -0,0.01 0,0.017 0.002,0.021 0.002,0.005 0.005,0.009 0.011,0.01 0.011,0.003 0.02,-0.004 0.029,-0.019 0.008,-0.013 0.014,-0.032 0.018,-0.055 0.004,-0.023 0.005,-0.045 0.004,-0.067 -0.001,-0.023 -0.005,-0.041 -0.011,-0.054zm0.123 0.023c-0.004,0.005 -0.008,0.01 -0.012,0.014 -0.005,0.005 -0.01,0.008 -0.014,0.01 0.004,-0.003 0.008,-0.006 0.013,-0.012 0.004,-0.004 0.007,-0.009 0.011,-0.014 0.002,-0.002 0.003,-0.005 0.005,-0.007l0.001 -0.002 0.001 -0.002c0.001,-0.002 0.002,-0.003 0.003,-0.004 0.002,-0.002 0.004,-0.004 0.007,-0.006 0.003,-0.002 0.006,-0.002 0.008,-0.002 -0.005,0 -0.01,0.004 -0.014,0.009 -0.001,0.001 -0.001,0.002 -0.002,0.004l-0.001 0.002 -0.001 0.002c-0.001,0.002 -0.003,0.005 -0.005,0.008zm-0.058 -0.035c-0.002,0.001 -0.004,0.003 -0.006,0.006 -0.003,0.003 -0.005,0.008 -0.007,0.014 -0.002,0.004 -0.003,0.009 -0.005,0.016l-0.002 0.008 -0.002 0.008c0.001,-0.007 0.001,-0.012 0.002,-0.017 0.001,-0.006 0.003,-0.011 0.005,-0.016 0.003,-0.006 0.005,-0.011 0.008,-0.015 0.002,-0.002 0.004,-0.004 0.006,-0.005 0.003,-0.001 0.005,-0.002 0.008,-0.002 -0.003,0 -0.005,0.001 -0.007,0.003zm0.066 0.093c-0.004,-0.002 -0.005,-0.004 -0.003,-0.006 0.001,-0.001 0.002,-0.002 0.005,-0.003l0.002 -0.001 0.002 -0.001c0.002,-0.001 0.003,-0.001 0.004,-0.002 0.007,-0.004 0.013,-0.008 0.018,-0.013 0.007,-0.007 0.012,-0.015 0.014,-0.024 0.003,-0.009 0.002,-0.017 -0,-0.025 -0.003,-0.007 -0.007,-0.012 -0.013,-0.016 -0.006,-0.003 -0.013,-0.004 -0.019,-0.002 -0.007,0.002 -0.014,0.008 -0.019,0.016 -0.009,0.015 -0.017,0.025 -0.026,0.03 -0.003,0.002 -0.005,0.003 -0.007,0.002 -0.001,-0.001 -0.001,-0.004 0.001,-0.008 0.007,-0.016 0.009,-0.029 0.007,-0.039 -0.002,-0.008 -0.007,-0.014 -0.016,-0.016 -0.017,-0.004 -0.03,0.005 -0.039,0.027 -0.007,0.018 -0.012,0.044 -0.014,0.078 -0.002,0.034 -0.001,0.062 0.004,0.083 0.006,0.026 0.017,0.038 0.033,0.037 0.014,-0.001 0.023,-0.012 0.025,-0.035 0.001,-0.008 0.001,-0.016 0,-0.026 -0,-0.003 -0.001,-0.007 -0.001,-0.01 -0,-0.001 -0,-0.003 -0,-0.004l-0 -0.001 -0 -0.001 0 -0c-0,-0.003 -0,-0.005 0.001,-0.006 0.001,-0.001 0.003,-0.001 0.005,0.001 0.005,0.005 0.01,0.017 0.015,0.037 0.003,0.012 0.007,0.023 0.013,0.031 0.005,0.007 0.012,0.012 0.018,0.015 0.006,0.002 0.013,0.002 0.019,-0 0.006,-0.003 0.012,-0.007 0.016,-0.014 0.005,-0.008 0.007,-0.016 0.007,-0.026 0,-0.009 -0.002,-0.019 -0.006,-0.029 -0.009,-0.021 -0.024,-0.038 -0.046,-0.051zm0.166 0.055l-0.002 0.001c-0.002,0.001 -0.003,0.001 -0.004,0.001 -0.003,0.001 -0.007,0.001 -0.009,0 0.003,-0.001 0.006,-0.001 0.009,-0.003l0.002 -0.001 0.002 -0.001c0.002,-0.001 0.003,-0.001 0.004,-0.002 0.003,-0.001 0.006,-0.002 0.009,-0.002 0.004,-0.001 0.007,-0.001 0.009,0 -0.005,0.001 -0.011,0.003 -0.018,0.005l-0.002 0.001zm-0.043 -0.149c-0.005,0.001 -0.009,0.003 -0.012,0.005 -0.004,0.003 -0.008,0.006 -0.011,0.009 -0.003,0.003 -0.005,0.007 -0.008,0.011 -0.004,0.007 -0.007,0.016 -0.009,0.027 -0.001,0.004 -0.002,0.009 -0.003,0.014 -0,0.002 -0.001,0.004 -0.001,0.007l-0.001 0.007c0,-0.01 0.001,-0.02 0.003,-0.029 0.002,-0.011 0.005,-0.02 0.009,-0.028 0.003,-0.005 0.005,-0.009 0.008,-0.012 0.004,-0.004 0.007,-0.006 0.011,-0.008 0.004,-0.002 0.008,-0.004 0.013,-0.005 0.005,-0.001 0.009,-0.001 0.014,-0.001 -0.005,0 -0.009,0.001 -0.013,0.002zm0.028 0.085l0.001 -0c0.001,-0 0.002,-0.001 0.003,-0.001 0.002,-0 0.004,-0 0.005,0 0.002,0.001 0.003,0.002 0.004,0.003 -0.001,-0 -0.003,-0 -0.005,-0 -0.002,0 -0.003,0 -0.004,0l-0.001 0 -0.001 0c-0.001,0 -0.002,0 -0.002,0 -0.002,0 -0.004,-0 -0.005,-0.001l0.002 -0.001 0.002 -0.001 0.001 -0zm0.007 0.052c-0.005,0.002 -0.009,0.002 -0.013,0.001 -0.003,-0.001 -0.005,-0.003 -0.006,-0.007 -0.001,-0.003 -0.001,-0.006 0.001,-0.009 0.002,-0.003 0.004,-0.005 0.008,-0.005 0.011,-0.001 0.018,-0.004 0.023,-0.009 0.005,-0.005 0.007,-0.01 0.006,-0.018 -0,-0.007 -0.003,-0.012 -0.009,-0.015 -0.006,-0.003 -0.012,-0.004 -0.02,-0.002 -0.006,0.002 -0.011,-0 -0.013,-0.006 -0.001,-0.002 -0.001,-0.005 -0,-0.007 0.001,-0.003 0.002,-0.005 0.004,-0.006 0.003,-0.002 0.007,-0.004 0.013,-0.004 0.002,-0 0.005,-0.001 0.008,-0.001l0.004 -0 0.004 -0c0.006,-0.001 0.012,-0.002 0.015,-0.003 0.005,-0.002 0.008,-0.006 0.01,-0.011 0.003,-0.008 0.002,-0.017 -0.004,-0.026 -0.006,-0.008 -0.015,-0.015 -0.026,-0.019 -0.012,-0.005 -0.025,-0.006 -0.037,-0.005 -0.014,0.002 -0.026,0.008 -0.036,0.018 -0.009,0.009 -0.016,0.024 -0.02,0.044 -0.004,0.019 -0.006,0.039 -0.005,0.061 0.001,0.022 0.004,0.042 0.009,0.059 0.006,0.019 0.013,0.031 0.023,0.038 0.009,0.006 0.02,0.009 0.034,0.009 0.012,-0 0.024,-0.004 0.037,-0.009 0.012,-0.006 0.022,-0.013 0.03,-0.021 0.008,-0.009 0.012,-0.018 0.012,-0.028 0,-0.012 -0.004,-0.02 -0.013,-0.024 -0.009,-0.004 -0.022,-0.002 -0.039,0.004z"/>
  </g>
 </g>
</svg>
