<?xml version="1.0" encoding="UTF-8"?>
<!DOCTYPE svg PUBLIC "-//W3C//DTD SVG 1.1//EN" "http://www.w3.org/Graphics/SVG/1.1/DTD/svg11.dtd">
<!-- Creator: CorelDRAW -->
<svg xmlns="http://www.w3.org/2000/svg" xml:space="preserve" width="19.2342mm" height="6.0411mm" version="1.1" style="shape-rendering:geometricPrecision; text-rendering:geometricPrecision; image-rendering:optimizeQuality; fill-rule:evenodd; clip-rule:evenodd"
viewBox="0 0 38.7 12.16"
 xmlns:xlink="http://www.w3.org/1999/xlink"
 xmlns:xodm="http://www.corel.com/coreldraw/odm/2003">
 <defs>
  <style type="text/css">
   <![CDATA[
    .fil0 {fill:#969677;fill-rule:nonzero}
   ]]>
  </style>
 </defs>
 <g id="Слой_x0020_1">
  <metadata id="CorelCorpID_0Corel-Layer"/>
  <path class="fil0" d="M0.39 7.4c-0.01,0.01 -0.02,0.01 -0.02,0.02l-0.02 0.02 -0.02 0.02c-0.01,0.01 -0.02,0.02 -0.02,0.02 -0.03,0.02 -0.05,0.06 -0.08,0.09 -0.03,0.04 -0.05,0.08 -0.06,0.11 -0.03,0.07 -0.05,0.16 -0.05,0.25 -0,0.02 0,0.04 0,0.06l0.01 0.07c0,0.02 0,0.04 0.01,0.07l0.01 0.06c-0.02,-0.09 -0.04,-0.18 -0.04,-0.26 -0.01,-0.09 0.01,-0.18 0.04,-0.26l0.01 -0.03 0.02 -0.03c0,-0.01 0.01,-0.02 0.02,-0.03l0.01 -0.01 0.01 -0.01c0.03,-0.04 0.06,-0.07 0.08,-0.09 0.06,-0.05 0.13,-0.1 0.21,-0.12l-0.03 0.01 -0.03 0.01c-0.02,0.01 -0.04,0.02 -0.05,0.03zm0.96 0.12c-0.1,-0.16 -0.23,-0.26 -0.4,-0.31 -0.15,-0.05 -0.3,-0.04 -0.45,0.01 -0.15,0.05 -0.27,0.14 -0.37,0.27 -0.1,0.14 -0.14,0.29 -0.13,0.47 0.02,0.32 0.12,0.63 0.29,0.91 0.07,0.13 0.15,0.23 0.23,0.29 0.08,0.07 0.16,0.09 0.22,0.07 0.09,-0.03 0.14,-0.1 0.15,-0.21 0,-0.13 -0.05,-0.34 -0.15,-0.63 -0.08,-0.23 -0.08,-0.36 0.01,-0.39 0.05,-0.01 0.1,0.02 0.14,0.11 0.04,0.08 0.07,0.19 0.09,0.31 0.04,0.29 0.1,0.48 0.18,0.59 0.06,0.08 0.14,0.11 0.24,0.08 0.08,-0.02 0.14,-0.09 0.18,-0.2 0.04,-0.11 0.05,-0.25 0.04,-0.41 -0.01,-0.17 -0.03,-0.33 -0.08,-0.5 -0.05,-0.18 -0.12,-0.33 -0.2,-0.46zm1.2 0.22c-0.01,0.03 -0.02,0.06 -0.03,0.08 -0.02,0.03 -0.04,0.05 -0.06,0.06 -0.03,0.02 -0.05,0.02 -0.08,0.02 0.03,-0.01 0.05,-0.02 0.07,-0.04 0.02,-0.02 0.04,-0.04 0.05,-0.06 0.03,-0.04 0.04,-0.09 0.05,-0.15 0.01,0.03 0.01,0.06 0,0.09zm-0.25 -0.08c0.01,-0.03 0.02,-0.05 0.04,-0.07 0.02,-0.02 0.04,-0.02 0.06,-0.01 0.02,0.01 0.03,0.02 0.04,0.05 0.01,0.03 0.01,0.05 -0,0.08 -0.01,0.03 -0.02,0.05 -0.04,0.07 -0.02,0.02 -0.04,0.02 -0.06,0.01 -0.02,-0.01 -0.03,-0.02 -0.04,-0.05 -0.01,-0.03 -0.01,-0.05 -0,-0.08zm-0.29 -0.52c-0.05,0.04 -0.1,0.09 -0.13,0.14 -0.03,0.05 -0.06,0.11 -0.08,0.19 -0.01,0.06 -0.03,0.13 -0.03,0.21 -0,-0.03 -0,-0.06 0,-0.11 0,-0.04 0.01,-0.07 0.01,-0.11 0.01,-0.07 0.04,-0.14 0.07,-0.2 0.04,-0.06 0.09,-0.11 0.14,-0.15 0.03,-0.02 0.06,-0.03 0.09,-0.04 0.03,-0.01 0.07,-0.02 0.1,-0.02 -0.07,0.02 -0.13,0.05 -0.18,0.09zm0.22 -0.21c-0.17,0.03 -0.31,0.1 -0.41,0.23 -0.09,0.11 -0.14,0.25 -0.15,0.43 -0.01,0.16 0.01,0.33 0.05,0.51 0.05,0.18 0.12,0.34 0.21,0.48 0.09,0.14 0.18,0.24 0.27,0.31 0.08,0.06 0.16,0.09 0.23,0.08 0.06,-0 0.12,-0.03 0.15,-0.09 0.04,-0.05 0.06,-0.12 0.05,-0.2 -0,-0.06 -0.01,-0.12 -0.03,-0.18 -0.01,-0.02 -0.02,-0.05 -0.03,-0.08l-0.01 -0.04c-0.01,-0.01 -0.01,-0.03 -0.01,-0.04 -0.02,-0.05 -0.02,-0.1 -0.02,-0.13 0.01,-0.04 0.03,-0.07 0.07,-0.1 0.13,-0.09 0.22,-0.22 0.26,-0.36 0.05,-0.14 0.05,-0.28 0.01,-0.41 -0.04,-0.14 -0.11,-0.24 -0.22,-0.32 -0.12,-0.08 -0.26,-0.11 -0.43,-0.09zm1.81 1.13c-0.01,0.03 -0.03,0.05 -0.05,0.07 -0.02,0.02 -0.05,0.03 -0.07,0.03 0.05,-0.03 0.08,-0.06 0.1,-0.11 0.02,-0.04 0.03,-0.09 0.03,-0.15 0.02,0.06 0.02,0.11 -0.01,0.17zm-0.29 -0.1c-0.01,-0.03 -0.01,-0.07 -0,-0.1 0.01,-0.03 0.03,-0.05 0.06,-0.06 0.03,-0.01 0.05,-0 0.08,0.01 0.03,0.02 0.05,0.04 0.06,0.08 0.01,0.04 0.01,0.07 0,0.1 -0.01,0.03 -0.03,0.05 -0.06,0.06 -0.03,0.01 -0.05,0 -0.08,-0.01 -0.03,-0.02 -0.05,-0.04 -0.06,-0.08zm-0.24 -1.07c-0.06,0.04 -0.11,0.09 -0.16,0.15 -0.04,0.06 -0.07,0.12 -0.1,0.2l-0.01 0.03 -0.01 0.03 -0.02 0.06 -0.01 0.06 -0.01 0.06c0,-0.08 0.01,-0.16 0.04,-0.23 0.02,-0.08 0.06,-0.15 0.1,-0.21 0.05,-0.07 0.1,-0.12 0.17,-0.15 0.03,-0.02 0.06,-0.03 0.1,-0.04l0.03 -0.01 0.03 -0.01 0.05 -0.01c-0.08,0.02 -0.14,0.05 -0.2,0.08zm0.41 -0.2c-0.28,-0.03 -0.49,0.06 -0.65,0.25 -0.13,0.17 -0.2,0.4 -0.19,0.68 0.01,0.27 0.07,0.51 0.21,0.72 0.14,0.23 0.32,0.36 0.54,0.38 0.21,0.03 0.38,-0.06 0.53,-0.26 0.13,-0.18 0.21,-0.41 0.24,-0.68 0.03,-0.28 -0.02,-0.52 -0.12,-0.72 -0.12,-0.23 -0.31,-0.35 -0.55,-0.38zm1.71 -0.08c-0.02,0.03 -0.04,0.07 -0.05,0.11 -0.03,0.08 -0.05,0.16 -0.07,0.24l-0.01 0.06 -0.01 0.06c-0.01,0.06 -0.02,0.1 -0.02,0.13 -0.01,0.05 -0.03,0.1 -0.04,0.12 -0.01,0.02 -0.03,0.04 -0.04,0.04 -0.02,0.01 -0.03,0.02 -0.06,0.02 0.02,-0 0.04,-0.01 0.06,-0.02 0.01,-0.01 0.03,-0.03 0.04,-0.05 0.01,-0.03 0.02,-0.07 0.03,-0.12l0.01 -0.06 0.01 -0.06c0.01,-0.05 0.01,-0.09 0.02,-0.13 0.02,-0.09 0.04,-0.17 0.08,-0.24 0.04,-0.09 0.09,-0.16 0.14,-0.2 -0.03,0.03 -0.05,0.06 -0.07,0.1zm-0.81 0.46c-0,0.06 -0,0.13 0,0.21l0.01 0.11 0 0.1c-0.04,-0.2 -0.05,-0.39 -0.02,-0.56 0,-0.03 0.01,-0.06 0.02,-0.09 0.01,-0.04 0.02,-0.07 0.03,-0.09 0.03,-0.07 0.08,-0.11 0.13,-0.11 -0.07,0.02 -0.11,0.08 -0.14,0.18 -0.01,0.04 -0.02,0.08 -0.02,0.13 -0,0.02 -0,0.04 -0,0.06l-0 0.03 -0 0.01 -0 0.01zm1.11 -0.7c-0.12,-0.05 -0.22,-0.03 -0.32,0.07 -0.08,0.08 -0.14,0.2 -0.19,0.36 -0.01,0.05 -0.03,0.11 -0.04,0.17 -0,0.02 -0.01,0.05 -0.01,0.08l-0.01 0.04 -0 0.02 -0 0.02c-0.01,0.05 -0.02,0.09 -0.02,0.11 -0.01,0.03 -0.02,0.04 -0.03,0.05 -0.02,0 -0.04,-0.02 -0.04,-0.05 -0.01,-0.03 -0.01,-0.1 -0.02,-0.22 -0.01,-0.21 -0.04,-0.35 -0.11,-0.43 -0.05,-0.06 -0.12,-0.08 -0.21,-0.05 -0.11,0.03 -0.18,0.16 -0.21,0.38 -0.03,0.21 -0.02,0.47 0.04,0.76 0.1,0.54 0.3,0.8 0.58,0.8 0.08,-0 0.16,-0.04 0.23,-0.1 0.07,-0.06 0.12,-0.14 0.16,-0.24 0.03,-0.09 0.06,-0.16 0.08,-0.24 0.01,-0.03 0.02,-0.05 0.02,-0.08 0.01,-0.02 0.01,-0.04 0.01,-0.06 0.01,-0.04 0.01,-0.06 0.02,-0.06 0,-0.01 0.01,-0.02 0.02,-0.01 0.01,0 0.02,0.04 0.02,0.12l0 0.03 0 0.03c0,0.02 0,0.04 0,0.06 0,0.05 0.01,0.09 0.01,0.13 0.03,0.23 0.13,0.33 0.28,0.31 0.1,-0.02 0.16,-0.12 0.19,-0.31 0.02,-0.17 0.01,-0.38 -0.03,-0.64 -0.04,-0.25 -0.1,-0.46 -0.18,-0.65 -0.09,-0.21 -0.18,-0.33 -0.27,-0.37zm1.21 0.63c-0.02,0.03 -0.05,0.05 -0.08,0.07 -0.04,0.02 -0.06,0.04 -0.08,0.06 -0.03,0.03 -0.04,0.06 -0.04,0.09 -0.01,-0.02 -0.01,-0.04 -0,-0.06 0,-0.02 0.01,-0.04 0.03,-0.05 0.02,-0.02 0.05,-0.04 0.09,-0.06 0.03,-0.02 0.06,-0.04 0.08,-0.06 0.03,-0.03 0.05,-0.06 0.06,-0.09 -0,0.04 -0.02,0.07 -0.04,0.1zm-0.26 0.7c-0.05,0 -0.08,0.01 -0.11,0.01 -0.02,0.01 -0.04,0.01 -0.05,0.02 -0.01,0.01 -0.01,0.01 -0.01,0.02l-0 0.02 -0 0.01c-0,-0.01 -0,-0.02 -0,-0.03 -0,-0.01 0,-0.02 0.01,-0.03 0.01,-0.01 0.03,-0.03 0.05,-0.03 0.03,-0.01 0.07,-0.02 0.11,-0.02 0.03,-0 0.07,-0 0.11,-0l0.06 0 0.06 0c-0.03,0.01 -0.07,0.02 -0.11,0.02l-0.06 0 -0.06 0zm-0.12 -1.33c-0.05,0.03 -0.09,0.06 -0.12,0.09 -0.02,0.02 -0.03,0.03 -0.05,0.05 -0.02,0.02 -0.03,0.04 -0.04,0.06 -0.03,0.05 -0.04,0.1 -0.03,0.15 -0.01,-0.02 -0.01,-0.05 -0.01,-0.08 0,-0.03 0.01,-0.05 0.02,-0.08 0.02,-0.04 0.05,-0.08 0.1,-0.13 0.08,-0.07 0.17,-0.12 0.27,-0.15 -0.05,0.02 -0.09,0.05 -0.13,0.08zm0.98 0.86c-0.03,-0.03 -0.06,-0.06 -0.09,-0.08 -0.02,-0.01 -0.05,-0.03 -0.08,-0.04l-0.02 -0.01 -0.01 -0.01c-0.01,-0.01 -0.02,-0.01 -0.02,-0.01 -0.01,-0.01 -0.02,-0.02 -0.03,-0.03 -0,-0.01 0,-0.04 0.02,-0.06 0.01,-0.01 0.02,-0.02 0.03,-0.04l0.01 -0.01 0.01 -0.01 0.02 -0.03c0.03,-0.04 0.05,-0.08 0.07,-0.12 0.02,-0.05 0.03,-0.11 0.03,-0.16 -0,-0.14 -0.05,-0.25 -0.14,-0.34 -0.1,-0.09 -0.23,-0.13 -0.39,-0.14 -0.08,-0 -0.17,0.02 -0.27,0.05 -0.1,0.03 -0.18,0.08 -0.26,0.14 -0.08,0.06 -0.14,0.13 -0.18,0.2 -0.04,0.08 -0.05,0.16 -0.03,0.24 0.06,0.2 0.22,0.23 0.5,0.1 0.05,-0.02 0.09,-0.03 0.12,-0.03 0.03,-0 0.04,0.01 0.05,0.02 0.01,0.01 0,0.03 -0.01,0.05 -0.02,0.02 -0.04,0.04 -0.08,0.06 -0.13,0.07 -0.18,0.16 -0.16,0.27 0.01,0.05 0.04,0.1 0.08,0.13 0.04,0.03 0.1,0.04 0.16,0.03 0.06,-0.01 0.1,0 0.12,0.04 0.01,0.02 0.01,0.03 0.01,0.05 -0,0.02 -0.01,0.04 -0.03,0.05 -0.03,0.02 -0.08,0.03 -0.15,0.04 -0.01,0 -0.03,0 -0.05,0l-0.05 0c-0.04,0 -0.07,0 -0.1,0.01 -0.08,0.01 -0.13,0.02 -0.17,0.05 -0.04,0.04 -0.06,0.09 -0.06,0.16 0.01,0.09 0.06,0.16 0.15,0.23 0.09,0.06 0.19,0.1 0.32,0.13 0.13,0.02 0.25,0.02 0.37,-0.01 0.13,-0.03 0.23,-0.09 0.3,-0.17 0.1,-0.12 0.14,-0.25 0.13,-0.41 -0.01,-0.14 -0.06,-0.25 -0.15,-0.35zm1.19 -1.24c-0.01,0.01 -0.02,0.02 -0.03,0.04 -0.01,0.02 -0.02,0.05 -0.02,0.1 -0,0.05 0.01,0.12 0.02,0.2l0 0.03 0 0.03c0,0.02 0.01,0.04 0.01,0.05 0,0.04 -0,0.08 -0.01,0.11 -0.01,0.04 -0.02,0.07 -0.04,0.09 -0.02,0.03 -0.05,0.05 -0.07,0.06 0.05,-0.04 0.09,-0.09 0.1,-0.16 0.01,-0.03 0.01,-0.07 0,-0.1 -0,-0.01 -0,-0.03 -0.01,-0.05l-0.01 -0.03 -0 -0.03c-0.01,-0.08 -0.02,-0.15 -0.02,-0.21 0,-0.04 0.01,-0.08 0.03,-0.1 0.01,-0.02 0.02,-0.03 0.04,-0.04 0.01,-0.01 0.03,-0.01 0.05,-0.01 -0.02,0.01 -0.03,0.01 -0.04,0.02zm-0.87 0.18c-0.02,0.04 -0.04,0.09 -0.05,0.14 -0.01,0.04 -0.01,0.1 -0.02,0.16l-0 0.08 -0 0.08c-0.01,-0.11 -0.01,-0.21 0,-0.32 0.01,-0.06 0.03,-0.11 0.06,-0.15 0.02,-0.02 0.03,-0.04 0.06,-0.05 0.02,-0.01 0.05,-0.02 0.07,-0.02 -0.04,0.01 -0.08,0.04 -0.11,0.09zm0.89 -0.3c-0.09,0.02 -0.14,0.07 -0.17,0.16 -0.02,0.08 -0.02,0.21 0.01,0.37 0.01,0.07 0.01,0.13 -0.02,0.17 -0.02,0.04 -0.05,0.05 -0.1,0.06 -0.04,0 -0.08,-0.01 -0.11,-0.04 -0.03,-0.03 -0.04,-0.08 -0.05,-0.14 -0.01,-0.17 -0.05,-0.29 -0.11,-0.37 -0.05,-0.07 -0.13,-0.1 -0.23,-0.1 -0.08,-0 -0.15,0.03 -0.2,0.09 -0.05,0.06 -0.08,0.14 -0.1,0.23 -0.03,0.18 -0.02,0.4 0.02,0.64 0.03,0.23 0.09,0.45 0.17,0.65 0.06,0.15 0.13,0.25 0.22,0.31 0.07,0.05 0.14,0.06 0.21,0.03 0.16,-0.05 0.22,-0.2 0.16,-0.43 -0.04,-0.17 -0.02,-0.26 0.06,-0.28 0.04,-0.01 0.07,0 0.1,0.03 0.04,0.04 0.06,0.1 0.07,0.2 0.02,0.16 0.06,0.27 0.13,0.34 0.06,0.07 0.14,0.09 0.23,0.08 0.15,-0.02 0.24,-0.15 0.27,-0.36 0.02,-0.16 0.01,-0.41 -0.04,-0.76 -0.04,-0.27 -0.1,-0.49 -0.2,-0.65 -0.1,-0.17 -0.22,-0.25 -0.34,-0.22zm1.62 1.19l-0.02 0.01c-0.01,0.01 -0.03,0.01 -0.04,0.02 -0.03,0.01 -0.06,0.02 -0.08,0.02 0.03,-0.01 0.05,-0.02 0.07,-0.04l0.02 -0.01 0.02 -0.01c0.01,-0.01 0.03,-0.02 0.04,-0.02 0.03,-0.02 0.05,-0.03 0.08,-0.03 0.03,-0.01 0.06,-0.01 0.08,-0.01 -0.04,0.02 -0.09,0.04 -0.15,0.07l-0.02 0.01zm-0.59 -1.25c-0.04,0.02 -0.07,0.04 -0.1,0.06 -0.03,0.03 -0.06,0.06 -0.08,0.09 -0.02,0.03 -0.04,0.07 -0.05,0.11 -0.02,0.07 -0.04,0.15 -0.04,0.25 -0,0.04 -0,0.08 -0,0.13 -0,0.02 -0,0.04 0,0.06l0 0.07c-0.01,-0.09 -0.02,-0.18 -0.02,-0.26 0,-0.1 0.02,-0.18 0.04,-0.26 0.02,-0.05 0.03,-0.09 0.06,-0.12 0.03,-0.04 0.06,-0.07 0.09,-0.09 0.03,-0.02 0.07,-0.04 0.11,-0.06 0.04,-0.02 0.08,-0.02 0.12,-0.03 -0.04,0.01 -0.08,0.02 -0.11,0.04zm0.37 0.71l0.01 -0c0.01,-0 0.02,-0.01 0.02,-0.01 0.02,-0.01 0.03,-0.01 0.05,-0.01 0.02,0 0.03,0.01 0.04,0.02 -0.01,-0 -0.02,-0 -0.04,0 -0.01,0 -0.03,0.01 -0.04,0.01l-0.01 0 -0.01 0c-0.01,0 -0.02,0.01 -0.02,0.01 -0.02,0 -0.03,0 -0.05,0l0.02 -0.01 0.02 -0.01 0.01 -0.01zm0.13 0.45c-0.04,0.03 -0.08,0.04 -0.11,0.03 -0.03,-0.01 -0.05,-0.02 -0.06,-0.05 -0.01,-0.03 -0.01,-0.05 -0,-0.08 0.01,-0.03 0.03,-0.05 0.06,-0.06 0.09,-0.02 0.15,-0.06 0.19,-0.11 0.03,-0.05 0.05,-0.1 0.03,-0.16 -0.01,-0.06 -0.05,-0.1 -0.1,-0.12 -0.05,-0.02 -0.11,-0.02 -0.18,0.01 -0.05,0.03 -0.09,0.01 -0.12,-0.03 -0.01,-0.02 -0.01,-0.04 -0.01,-0.06 0,-0.02 0.01,-0.04 0.02,-0.06 0.02,-0.02 0.06,-0.04 0.11,-0.06 0.02,-0.01 0.04,-0.01 0.07,-0.02l0.03 -0.01 0.04 -0.01c0.06,-0.01 0.1,-0.03 0.13,-0.05 0.04,-0.03 0.07,-0.06 0.08,-0.11 0.02,-0.08 -0.01,-0.15 -0.08,-0.22 -0.06,-0.06 -0.15,-0.11 -0.26,-0.13 -0.11,-0.02 -0.23,-0.02 -0.33,0.01 -0.12,0.04 -0.22,0.11 -0.29,0.21 -0.07,0.09 -0.11,0.23 -0.12,0.42 -0.01,0.17 0,0.35 0.04,0.55 0.04,0.19 0.1,0.36 0.17,0.51 0.08,0.16 0.16,0.26 0.25,0.3 0.09,0.04 0.19,0.05 0.31,0.03 0.11,-0.02 0.21,-0.07 0.31,-0.14 0.1,-0.07 0.18,-0.14 0.23,-0.23 0.06,-0.09 0.08,-0.18 0.07,-0.26 -0.02,-0.11 -0.07,-0.17 -0.15,-0.19 -0.09,-0.02 -0.2,0.01 -0.34,0.09zm1.66 -0.38c-0.01,0.01 -0.01,0.01 -0.02,0.03l-0.01 0.01 -0.01 0.01c-0.02,0.02 -0.04,0.04 -0.06,0.05 -0.02,0.01 -0.05,0.02 -0.07,0.01 0.04,-0.02 0.08,-0.04 0.12,-0.08l0.01 -0.01 0.01 -0.01c0.01,-0.01 0.02,-0.02 0.03,-0.02 0.02,-0.02 0.05,-0.02 0.07,-0.02 -0.02,0.01 -0.04,0.02 -0.06,0.04zm-0.9 -0.81c-0.04,0.06 -0.07,0.12 -0.09,0.2 -0.02,0.06 -0.04,0.14 -0.05,0.22 0,-0.08 0.01,-0.15 0.03,-0.23 0.02,-0.07 0.05,-0.14 0.09,-0.21 0.04,-0.07 0.09,-0.12 0.15,-0.16 0.03,-0.02 0.07,-0.03 0.1,-0.04 0.04,-0.01 0.07,-0.02 0.1,-0.02 -0.07,0.02 -0.14,0.05 -0.19,0.08 -0.06,0.04 -0.1,0.1 -0.14,0.16zm1.2 0.92c-0.04,-0.14 -0.1,-0.23 -0.19,-0.25 -0.04,-0.01 -0.08,-0.01 -0.12,0.01 -0.04,0.02 -0.08,0.05 -0.11,0.08 -0.03,0.04 -0.07,0.06 -0.11,0.06 -0.04,0 -0.08,-0.01 -0.11,-0.04 -0.04,-0.03 -0.07,-0.07 -0.09,-0.13 -0.03,-0.06 -0.04,-0.12 -0.04,-0.2 -0,-0.1 0.03,-0.17 0.11,-0.2 0.05,-0.02 0.14,-0.02 0.24,0.01 0.05,0.01 0.09,0 0.12,-0.02 0.03,-0.02 0.05,-0.06 0.07,-0.1 0.01,-0.05 0.01,-0.1 -0.01,-0.15 -0.02,-0.06 -0.05,-0.11 -0.09,-0.16 -0.1,-0.1 -0.21,-0.16 -0.35,-0.18 -0.12,-0.02 -0.24,-0.01 -0.36,0.05 -0.15,0.07 -0.26,0.19 -0.33,0.38 -0.08,0.21 -0.1,0.45 -0.05,0.73 0.05,0.32 0.17,0.55 0.35,0.71 0.08,0.07 0.18,0.12 0.28,0.15 0.1,0.02 0.21,0.02 0.32,-0.01 0.18,-0.05 0.32,-0.14 0.41,-0.29 0.09,-0.14 0.11,-0.29 0.07,-0.45zm0.97 -1.33c-0.02,0.03 -0.04,0.07 -0.05,0.11 -0.03,0.08 -0.05,0.16 -0.07,0.24l-0.01 0.06 -0.01 0.06c-0.01,0.06 -0.02,0.1 -0.02,0.13 -0.01,0.05 -0.03,0.1 -0.04,0.12 -0.01,0.02 -0.03,0.04 -0.04,0.04 -0.02,0.01 -0.03,0.02 -0.06,0.02 0.02,-0 0.04,-0.01 0.06,-0.02 0.01,-0.01 0.03,-0.03 0.04,-0.05 0.01,-0.03 0.02,-0.07 0.03,-0.12l0.01 -0.06 0.01 -0.06c0.01,-0.05 0.01,-0.09 0.02,-0.13 0.02,-0.09 0.04,-0.17 0.08,-0.24 0.04,-0.09 0.09,-0.16 0.14,-0.2 -0.03,0.03 -0.05,0.06 -0.07,0.1zm-0.81 0.46c-0,0.06 -0,0.13 0,0.21l0.01 0.11 0 0.1c-0.04,-0.2 -0.05,-0.39 -0.02,-0.56 0,-0.03 0.01,-0.06 0.02,-0.09 0.01,-0.04 0.02,-0.07 0.03,-0.09 0.03,-0.07 0.08,-0.11 0.13,-0.11 -0.07,0.02 -0.11,0.08 -0.14,0.18 -0.01,0.04 -0.02,0.08 -0.02,0.13 -0,0.02 -0,0.04 -0,0.06l-0 0.03 -0 0.01 -0 0.01zm1.11 -0.7c-0.12,-0.05 -0.22,-0.03 -0.32,0.07 -0.08,0.08 -0.14,0.2 -0.19,0.36 -0.01,0.05 -0.03,0.11 -0.04,0.17 -0,0.02 -0.01,0.05 -0.01,0.08l-0.01 0.04 -0 0.02 -0 0.02c-0.01,0.05 -0.02,0.09 -0.02,0.11 -0.01,0.03 -0.02,0.04 -0.03,0.05 -0.02,0 -0.04,-0.02 -0.04,-0.05 -0.01,-0.03 -0.01,-0.1 -0.02,-0.22 -0.01,-0.21 -0.04,-0.35 -0.11,-0.43 -0.05,-0.06 -0.12,-0.08 -0.21,-0.05 -0.11,0.03 -0.18,0.16 -0.21,0.38 -0.03,0.21 -0.02,0.47 0.04,0.76 0.1,0.54 0.3,0.8 0.58,0.8 0.08,-0 0.16,-0.04 0.23,-0.1 0.07,-0.06 0.12,-0.14 0.16,-0.24 0.03,-0.09 0.06,-0.16 0.08,-0.24 0.01,-0.03 0.02,-0.05 0.02,-0.08 0.01,-0.02 0.01,-0.04 0.01,-0.06 0.01,-0.04 0.01,-0.06 0.02,-0.06 0,-0.01 0.01,-0.01 0.02,-0.01 0.01,0 0.02,0.04 0.02,0.12l0 0.03 0 0.03c0,0.02 0,0.04 0,0.06 0,0.05 0.01,0.09 0.01,0.13 0.03,0.23 0.13,0.33 0.28,0.31 0.1,-0.02 0.16,-0.12 0.19,-0.31 0.02,-0.17 0.01,-0.38 -0.03,-0.64 -0.04,-0.25 -0.1,-0.46 -0.18,-0.65 -0.09,-0.21 -0.18,-0.33 -0.27,-0.37zm2.21 0.85c-0.01,0.01 -0.02,0.01 -0.02,0.03l-0.01 0.01 -0.01 0.01c-0.02,0.02 -0.04,0.04 -0.06,0.05 -0.02,0.01 -0.05,0.02 -0.07,0.01 0.04,-0.02 0.08,-0.04 0.12,-0.08l0.01 -0.01 0.01 -0.01c0.01,-0.01 0.02,-0.02 0.03,-0.02 0.02,-0.02 0.05,-0.02 0.07,-0.02 -0.02,0.01 -0.04,0.02 -0.06,0.04zm-0.9 -0.81c-0.04,0.06 -0.07,0.12 -0.09,0.2 -0.02,0.06 -0.04,0.14 -0.05,0.22 0,-0.08 0.01,-0.15 0.03,-0.23 0.02,-0.07 0.05,-0.14 0.09,-0.21 0.04,-0.07 0.09,-0.12 0.15,-0.16 0.03,-0.02 0.07,-0.04 0.1,-0.04 0.04,-0.01 0.07,-0.02 0.1,-0.02 -0.07,0.02 -0.14,0.05 -0.19,0.08 -0.06,0.04 -0.1,0.09 -0.14,0.16zm1.2 0.92c-0.04,-0.14 -0.1,-0.23 -0.19,-0.25 -0.04,-0.01 -0.08,-0.01 -0.12,0.01 -0.04,0.02 -0.08,0.05 -0.11,0.08 -0.03,0.04 -0.07,0.06 -0.11,0.06 -0.04,0 -0.08,-0.01 -0.11,-0.04 -0.04,-0.03 -0.07,-0.07 -0.09,-0.13 -0.03,-0.06 -0.04,-0.12 -0.04,-0.2 -0,-0.1 0.03,-0.17 0.11,-0.2 0.05,-0.02 0.14,-0.02 0.24,0.01 0.05,0.01 0.09,0 0.12,-0.02 0.03,-0.02 0.05,-0.06 0.07,-0.1 0.01,-0.05 0.01,-0.1 -0.01,-0.15 -0.02,-0.06 -0.05,-0.11 -0.09,-0.16 -0.1,-0.1 -0.21,-0.16 -0.35,-0.19 -0.12,-0.02 -0.24,-0.01 -0.36,0.05 -0.15,0.07 -0.26,0.19 -0.33,0.38 -0.08,0.21 -0.1,0.45 -0.05,0.73 0.05,0.32 0.17,0.55 0.35,0.71 0.08,0.07 0.18,0.12 0.28,0.15 0.1,0.02 0.21,0.02 0.32,-0.01 0.18,-0.05 0.32,-0.14 0.41,-0.29 0.09,-0.14 0.11,-0.29 0.07,-0.45zm0.59 -1.39l-0.02 0.01c-0.01,0 -0.02,0.01 -0.02,0.01 -0.01,0 -0.01,0.01 -0.02,0.01l-0.01 0.01 -0.01 0.01 -0.02 0.02c-0.01,0.01 -0.01,0.01 -0.02,0.02 -0.04,0.05 -0.08,0.11 -0.11,0.18 -0.03,0.06 -0.05,0.12 -0.08,0.2 -0.02,0.06 -0.03,0.13 -0.05,0.21 0,-0.07 0.02,-0.15 0.03,-0.22 0.02,-0.07 0.04,-0.14 0.07,-0.21 0.04,-0.07 0.08,-0.14 0.12,-0.18 0.06,-0.06 0.12,-0.09 0.19,-0.09l-0.05 0.02zm0.9 0.5c-0.12,-0.23 -0.27,-0.4 -0.44,-0.51 -0.17,-0.12 -0.34,-0.15 -0.49,-0.1 -0.13,0.04 -0.23,0.16 -0.32,0.35 -0.08,0.18 -0.12,0.39 -0.13,0.63 -0.01,0.27 0.02,0.52 0.1,0.74 0.04,0.11 0.08,0.19 0.13,0.25 0.05,0.07 0.11,0.1 0.17,0.1 0.1,0 0.16,-0.05 0.21,-0.15 0.03,-0.07 0.05,-0.19 0.06,-0.34 0,-0.03 0,-0.06 0,-0.09l0 -0.05 0 -0.04c0,-0.08 0,-0.13 0.01,-0.16 0.01,-0.11 0.03,-0.17 0.06,-0.18 0.02,-0.01 0.05,-0 0.08,0.03 0.02,0.02 0.05,0.06 0.08,0.12 0.01,0.02 0.03,0.05 0.04,0.08l0.02 0.05 0.02 0.05c0.04,0.08 0.08,0.14 0.11,0.19 0.08,0.13 0.17,0.21 0.25,0.24 0.08,0.03 0.15,0.02 0.21,-0.03 0.04,-0.04 0.06,-0.09 0.07,-0.17 0.01,-0.08 0.01,-0.17 -0,-0.27 -0.03,-0.23 -0.11,-0.47 -0.25,-0.72z"/>
  <path class="fil0" d="M18.95 5.64c-0.01,0.03 -0.03,0.05 -0.05,0.07 -0.02,0.02 -0.05,0.03 -0.07,0.03 0.05,-0.03 0.08,-0.06 0.1,-0.11 0.02,-0.04 0.03,-0.09 0.03,-0.15 0.02,0.06 0.02,0.11 -0.01,0.17zm-0.29 -0.1c-0.01,-0.03 -0.01,-0.07 -0,-0.1 0.01,-0.03 0.03,-0.05 0.06,-0.06 0.03,-0.01 0.05,-0 0.08,0.01 0.03,0.02 0.05,0.04 0.06,0.08 0.01,0.04 0.01,0.07 0,0.1 -0.01,0.03 -0.03,0.05 -0.06,0.06 -0.03,0.01 -0.05,0 -0.08,-0.01 -0.03,-0.02 -0.05,-0.04 -0.06,-0.08zm-0.24 -1.07c-0.06,0.04 -0.11,0.09 -0.16,0.15 -0.04,0.06 -0.07,0.12 -0.1,0.2l-0.01 0.03 -0.01 0.03 -0.02 0.06 -0.01 0.06 -0.01 0.06c0,-0.08 0.01,-0.16 0.04,-0.23 0.02,-0.08 0.06,-0.15 0.1,-0.21 0.05,-0.07 0.1,-0.12 0.17,-0.15 0.03,-0.02 0.06,-0.03 0.1,-0.04l0.03 -0.01 0.03 -0.01 0.05 -0.01c-0.08,0.02 -0.14,0.05 -0.2,0.08zm0.41 -0.2c-0.28,-0.03 -0.49,0.06 -0.65,0.25 -0.13,0.17 -0.2,0.4 -0.19,0.68 0.01,0.27 0.07,0.51 0.21,0.72 0.14,0.23 0.32,0.36 0.54,0.38 0.21,0.03 0.38,-0.06 0.53,-0.26 0.13,-0.18 0.21,-0.41 0.24,-0.68 0.03,-0.28 -0.01,-0.52 -0.12,-0.72 -0.12,-0.23 -0.31,-0.35 -0.55,-0.38zm1.81 1.08c-0.01,0.03 -0.03,0.06 -0.05,0.08 -0.03,0.02 -0.05,0.03 -0.08,0.03 0.03,-0.01 0.05,-0.03 0.07,-0.05 0.02,-0.02 0.03,-0.05 0.04,-0.07 0.01,-0.05 0.01,-0.11 -0.02,-0.18 0.02,0.02 0.03,0.05 0.04,0.09 0.01,0.03 0.01,0.07 -0,0.1zm-0.25 -0.05c-0.02,-0.02 -0.03,-0.05 -0.03,-0.08 -0,-0.03 0.01,-0.05 0.02,-0.06 0.02,-0.01 0.04,-0.02 0.06,-0.01 0.03,0.01 0.05,0.02 0.07,0.05 0.02,0.03 0.03,0.05 0.03,0.08 0,0.03 -0.01,0.05 -0.02,0.06 -0.02,0.01 -0.04,0.02 -0.06,0.01 -0.02,-0.01 -0.05,-0.02 -0.07,-0.05zm-0.21 -0.57c0.02,-0.01 0.04,-0.02 0.05,-0.03 0.02,-0.02 0.03,-0.03 0.04,-0.05 0.01,-0.02 0.02,-0.04 0.03,-0.06 0.01,-0.02 0.01,-0.04 0.02,-0.06 0.01,0.05 0,0.09 -0.02,0.14 -0.01,0.02 -0.03,0.04 -0.05,0.05 -0.02,0.01 -0.04,0.02 -0.06,0.02zm-0.06 -0.2c0.01,-0.02 0.02,-0.04 0.03,-0.05 0.01,-0.01 0.03,-0.01 0.04,-0.01 0.01,0.01 0.02,0.02 0.03,0.03 0,0.02 0,0.04 -0,0.06 -0.01,0.02 -0.02,0.04 -0.03,0.05 -0.01,0.01 -0.03,0.01 -0.04,0.01 -0.01,-0.01 -0.02,-0.02 -0.03,-0.04 -0,-0.02 -0,-0.04 0,-0.06zm-0.26 -0.22c-0.02,0.03 -0.03,0.06 -0.05,0.1 -0.02,0.06 -0.04,0.13 -0.06,0.21 -0.01,0.06 -0.02,0.14 -0.03,0.22 -0.01,-0.07 -0,-0.15 0.01,-0.23 0.01,-0.08 0.03,-0.15 0.06,-0.22 0.03,-0.08 0.07,-0.14 0.12,-0.18 0.03,-0.03 0.06,-0.05 0.09,-0.06 0.04,-0.01 0.07,-0.02 0.1,-0.03 -0.07,0.02 -0.13,0.05 -0.18,0.1 -0.03,0.03 -0.05,0.05 -0.07,0.08zm0.64 0.45c-0.02,-0 -0.02,-0.02 -0.02,-0.04 0,-0.01 0.01,-0.02 0.01,-0.04l0 -0.01 0 -0.01c0,-0.01 0.01,-0.02 0.01,-0.03 0.02,-0.05 0.02,-0.11 0.03,-0.15 0,-0.07 -0.01,-0.14 -0.03,-0.21 -0.02,-0.08 -0.08,-0.14 -0.16,-0.18 -0.08,-0.04 -0.17,-0.06 -0.26,-0.05 -0.1,0.01 -0.19,0.06 -0.27,0.14 -0.09,0.09 -0.15,0.22 -0.18,0.38 -0.03,0.17 -0.04,0.35 -0.01,0.53 0.03,0.19 0.08,0.36 0.16,0.51 0.09,0.16 0.19,0.28 0.32,0.36 0.14,0.08 0.3,0.1 0.47,0.06 0.17,-0.04 0.29,-0.12 0.37,-0.24 0.08,-0.11 0.11,-0.24 0.09,-0.38 -0.01,-0.14 -0.07,-0.27 -0.16,-0.38 -0.1,-0.12 -0.23,-0.2 -0.39,-0.24zm1.55 0.23c-0.02,0.02 -0.03,0.03 -0.05,0.04 -0.02,0.01 -0.04,0.01 -0.06,0.01 0.04,-0.02 0.07,-0.04 0.1,-0.07 0.02,-0.02 0.04,-0.06 0.06,-0.11 0,0.05 -0.01,0.09 -0.05,0.12zm-0.15 -0.06c-0.02,-0.01 -0.04,-0.02 -0.05,-0.05 -0.01,-0.03 -0.01,-0.05 -0.01,-0.08 0.01,-0.03 0.02,-0.05 0.04,-0.07 0.02,-0.02 0.04,-0.02 0.06,-0.02 0.02,0 0.04,0.02 0.05,0.05 0.01,0.03 0.01,0.05 0.01,0.08 -0.01,0.03 -0.02,0.05 -0.04,0.07 -0.02,0.02 -0.04,0.02 -0.06,0.02zm-0.33 -0.72c-0.02,0.05 -0.05,0.13 -0.09,0.22 -0.01,0.03 -0.02,0.07 -0.04,0.11l-0.04 0.11c0.01,-0.07 0.03,-0.15 0.06,-0.23 0.02,-0.07 0.05,-0.15 0.08,-0.22 0.04,-0.08 0.08,-0.15 0.11,-0.2l0.02 -0.02c0.01,-0.01 0.01,-0.02 0.02,-0.02l0.02 -0.02 0.02 -0.02c0.04,-0.03 0.07,-0.05 0.1,-0.05 -0.03,0.01 -0.06,0.03 -0.09,0.06l-0.02 0.02 -0.02 0.02c-0,0.01 -0.01,0.01 -0.02,0.02l-0.02 0.02c-0.04,0.06 -0.07,0.12 -0.11,0.2zm0.28 -0.46c-0.12,-0 -0.23,0.1 -0.34,0.31 -0.1,0.19 -0.18,0.42 -0.24,0.7 -0.06,0.28 -0.08,0.52 -0.06,0.72 0.02,0.23 0.08,0.35 0.18,0.38 0.08,0.02 0.15,0.01 0.21,-0.04 0.05,-0.03 0.1,-0.09 0.14,-0.16 0.01,-0.01 0.02,-0.03 0.03,-0.05l0.03 -0.05c0.02,-0.04 0.04,-0.07 0.05,-0.09 0.04,-0.06 0.07,-0.09 0.1,-0.1 0.03,-0.01 0.08,0.01 0.13,0.06 0.02,0.01 0.04,0.03 0.08,0.06l0.04 0.03 0.04 0.04c0.07,0.05 0.13,0.09 0.18,0.1 0.07,0.02 0.13,0.01 0.19,-0.03 0.07,-0.05 0.09,-0.18 0.07,-0.38 -0.02,-0.19 -0.08,-0.4 -0.16,-0.64 -0.09,-0.24 -0.19,-0.44 -0.31,-0.6 -0.13,-0.18 -0.25,-0.27 -0.37,-0.27zm2.52 0.84c-0.01,0.01 -0.01,0.01 -0.02,0.03l-0.01 0.01 -0.01 0.01c-0.02,0.02 -0.04,0.04 -0.06,0.05 -0.02,0.01 -0.05,0.02 -0.07,0.01 0.04,-0.02 0.08,-0.04 0.12,-0.08l0.01 -0.01 0.01 -0.01c0.01,-0.01 0.02,-0.02 0.03,-0.02 0.02,-0.02 0.05,-0.02 0.07,-0.02 -0.02,0.01 -0.04,0.02 -0.06,0.04zm-0.9 -0.81c-0.04,0.06 -0.07,0.12 -0.09,0.2 -0.02,0.06 -0.04,0.14 -0.05,0.22 0,-0.08 0.01,-0.15 0.03,-0.23 0.02,-0.07 0.05,-0.14 0.09,-0.21 0.04,-0.07 0.09,-0.12 0.15,-0.16 0.03,-0.02 0.07,-0.04 0.1,-0.04 0.04,-0.01 0.07,-0.02 0.1,-0.02 -0.07,0.02 -0.14,0.05 -0.19,0.08 -0.06,0.04 -0.1,0.09 -0.14,0.16zm1.2 0.92c-0.04,-0.14 -0.1,-0.23 -0.19,-0.25 -0.04,-0.01 -0.08,-0.01 -0.12,0.01 -0.04,0.02 -0.08,0.05 -0.11,0.08 -0.03,0.04 -0.07,0.06 -0.11,0.06 -0.04,0 -0.08,-0.01 -0.11,-0.04 -0.04,-0.03 -0.07,-0.07 -0.09,-0.13 -0.03,-0.06 -0.04,-0.12 -0.04,-0.2 -0,-0.1 0.03,-0.17 0.11,-0.2 0.05,-0.02 0.14,-0.02 0.24,0.01 0.05,0.01 0.09,0 0.12,-0.02 0.03,-0.02 0.05,-0.06 0.07,-0.1 0.01,-0.05 0.01,-0.1 -0.01,-0.15 -0.02,-0.06 -0.05,-0.11 -0.09,-0.16 -0.1,-0.1 -0.21,-0.16 -0.35,-0.19 -0.12,-0.02 -0.24,-0.01 -0.36,0.05 -0.15,0.07 -0.26,0.19 -0.33,0.38 -0.08,0.21 -0.1,0.45 -0.05,0.73 0.05,0.32 0.17,0.55 0.35,0.71 0.08,0.07 0.18,0.12 0.28,0.15 0.1,0.02 0.21,0.02 0.32,-0.01 0.18,-0.05 0.32,-0.14 0.41,-0.29 0.09,-0.14 0.11,-0.29 0.07,-0.45zm1.61 -0.2c-0.01,0.04 -0.03,0.06 -0.05,0.08 -0.03,0.02 -0.05,0.03 -0.08,0.03 0.03,-0.01 0.05,-0.03 0.07,-0.05 0.02,-0.02 0.03,-0.04 0.04,-0.07 0.01,-0.03 0.01,-0.05 0.01,-0.09 -0,-0.03 -0.01,-0.06 -0.02,-0.09 0.02,0.03 0.03,0.06 0.04,0.09 0.01,0.03 0,0.07 -0.01,0.1zm-0.25 -0.06c-0.01,-0.03 -0.02,-0.05 -0.01,-0.08 0,-0.03 0.01,-0.05 0.03,-0.06 0.02,-0.01 0.04,-0.01 0.06,0 0.02,0.01 0.04,0.03 0.05,0.06 0.01,0.03 0.02,0.05 0.02,0.08 -0,0.03 -0.01,0.05 -0.03,0.06 -0.02,0.01 -0.04,0.01 -0.06,-0 -0.02,-0.01 -0.04,-0.03 -0.06,-0.06zm-0.62 -0.89c-0.03,0.06 -0.05,0.14 -0.06,0.24 -0.01,0.07 -0.01,0.16 -0.01,0.25 -0,-0.04 -0.01,-0.08 -0.01,-0.13 -0,-0.05 0,-0.09 0,-0.13 0.01,-0.09 0.03,-0.18 0.05,-0.25 0.02,-0.04 0.04,-0.08 0.06,-0.11 0.03,-0.03 0.05,-0.06 0.08,-0.09 0.03,-0.03 0.07,-0.05 0.1,-0.06 0.04,-0.02 0.08,-0.03 0.11,-0.04 -0.08,0.03 -0.14,0.07 -0.2,0.12 -0.06,0.06 -0.11,0.12 -0.14,0.19zm0.53 0.37c-0.05,0 -0.09,-0.02 -0.1,-0.07 -0.01,-0.02 -0.01,-0.04 -0.01,-0.07 0,-0.02 0.01,-0.04 0.03,-0.06 0.03,-0.04 0.08,-0.07 0.14,-0.09 0.02,-0.01 0.05,-0.02 0.09,-0.03l0.04 -0.01 0.04 -0.01c0.07,-0.02 0.11,-0.04 0.14,-0.06 0.04,-0.03 0.06,-0.07 0.05,-0.13 -0,-0.08 -0.04,-0.15 -0.12,-0.2 -0.07,-0.05 -0.16,-0.08 -0.27,-0.09 -0.11,-0.01 -0.22,0.01 -0.32,0.06 -0.12,0.05 -0.21,0.13 -0.28,0.23 -0.07,0.09 -0.11,0.22 -0.12,0.39 -0.02,0.16 -0.01,0.32 0.03,0.5 0.04,0.18 0.09,0.34 0.17,0.47 0.08,0.15 0.18,0.25 0.3,0.31 0.1,0.05 0.2,0.08 0.31,0.08 0.1,0 0.2,-0.02 0.29,-0.07 0.09,-0.05 0.16,-0.11 0.21,-0.2 0.06,-0.09 0.09,-0.19 0.09,-0.3 0.01,-0.08 -0,-0.17 -0.03,-0.25 -0.03,-0.08 -0.07,-0.16 -0.12,-0.22 -0.13,-0.15 -0.31,-0.21 -0.56,-0.19zm1.82 -0.97c-0.01,0.02 -0.03,0.04 -0.04,0.07 -0.02,0.04 -0.04,0.09 -0.06,0.16l-0.01 0.04 -0.01 0.04c-0.01,0.03 -0.02,0.06 -0.03,0.08 -0.02,0.03 -0.03,0.06 -0.04,0.08 -0.02,0.03 -0.04,0.04 -0.07,0.05 0.02,-0.02 0.04,-0.04 0.06,-0.06 0.01,-0.02 0.02,-0.04 0.04,-0.08 0.01,-0.02 0.02,-0.05 0.03,-0.08l0.03 -0.08c0.03,-0.07 0.05,-0.12 0.07,-0.16 0.02,-0.03 0.03,-0.05 0.05,-0.07 0.02,-0.03 0.05,-0.04 0.07,-0.04 -0.02,0.01 -0.04,0.03 -0.06,0.05zm-0.63 1.4c-0.02,0.02 -0.03,0.04 -0.04,0.05 -0.03,0.04 -0.06,0.07 -0.08,0.11 -0.01,0.02 -0.02,0.04 -0.02,0.06 -0,0.02 -0.01,0.04 -0.01,0.07 -0,-0.02 -0.01,-0.05 -0.01,-0.07 0,-0.02 0.01,-0.05 0.02,-0.07 0.01,-0.04 0.04,-0.08 0.08,-0.12 0.02,-0.03 0.06,-0.06 0.1,-0.1l0.03 -0.02 0.02 -0.02c0.02,-0.02 0.04,-0.03 0.05,-0.05 -0.02,0.03 -0.05,0.07 -0.08,0.11l-0.05 0.05zm-0.4 -1.11c-0.01,0.02 -0.02,0.04 -0.02,0.07 -0,0.02 -0,0.05 0,0.08 -0.01,-0.02 -0.02,-0.05 -0.02,-0.08 -0,-0.03 0,-0.06 0.02,-0.08 0.01,-0.03 0.03,-0.05 0.05,-0.06 0.02,-0.02 0.05,-0.02 0.07,-0.02 -0.05,0.02 -0.08,0.05 -0.11,0.1zm1.08 -0.45c-0.05,0.01 -0.1,0.04 -0.14,0.11 -0.03,0.05 -0.06,0.11 -0.1,0.2l-0.02 0.05 -0.01 0.03 -0.01 0.02c-0.01,0.04 -0.03,0.07 -0.03,0.09 -0.02,0.06 -0.05,0.09 -0.06,0.09 -0.02,0 -0.07,-0.03 -0.14,-0.09l-0.01 -0.01 -0.01 -0.01c-0.01,-0.01 -0.02,-0.02 -0.03,-0.02 -0.02,-0.02 -0.04,-0.04 -0.06,-0.05 -0.05,-0.04 -0.1,-0.07 -0.14,-0.1 -0.07,-0.05 -0.15,-0.06 -0.22,-0.05 -0.06,0.01 -0.12,0.04 -0.16,0.1 -0.04,0.05 -0.06,0.12 -0.06,0.19 0,0.08 0.03,0.15 0.08,0.22 0.04,0.05 0.09,0.1 0.15,0.15 0.02,0.02 0.05,0.04 0.08,0.06l0.04 0.03 0.04 0.03c0.07,0.05 0.12,0.08 0.15,0.11 0.04,0.04 0.07,0.07 0.08,0.11 0.01,0.04 -0.01,0.08 -0.04,0.12 -0.01,0.02 -0.03,0.04 -0.06,0.06l-0.02 0.02 -0.02 0.02 -0.04 0.03c-0.06,0.06 -0.1,0.11 -0.13,0.16 -0.04,0.07 -0.05,0.14 -0.04,0.22 0.01,0.06 0.03,0.11 0.06,0.16 0.03,0.05 0.07,0.08 0.12,0.11 0.11,0.05 0.23,0.05 0.37,-0.02 0.18,-0.09 0.35,-0.31 0.49,-0.63 0.13,-0.29 0.2,-0.56 0.21,-0.81 0.01,-0.25 -0.02,-0.44 -0.08,-0.55 -0.05,-0.09 -0.13,-0.13 -0.23,-0.11zm1.3 0.24c-0.03,0.05 -0.05,0.1 -0.08,0.14 -0.04,0.05 -0.07,0.08 -0.11,0.11 0.03,-0.03 0.06,-0.07 0.1,-0.12 0.03,-0.04 0.05,-0.09 0.08,-0.14 0.01,-0.02 0.02,-0.05 0.03,-0.07l0.01 -0.02 0.01 -0.02c0.01,-0.02 0.01,-0.03 0.02,-0.04 0.01,-0.02 0.03,-0.04 0.05,-0.06 0.02,-0.02 0.05,-0.03 0.07,-0.03 -0.04,0.01 -0.08,0.04 -0.11,0.1 -0,0.01 -0.01,0.02 -0.02,0.04l-0.01 0.02 -0.01 0.02c-0.01,0.02 -0.02,0.05 -0.03,0.07zm-0.56 -0.23c-0.02,0.01 -0.03,0.03 -0.04,0.06 -0.02,0.03 -0.03,0.08 -0.05,0.14 -0.01,0.04 -0.02,0.08 -0.02,0.15l-0.01 0.08 -0.01 0.07c-0,-0.06 -0.01,-0.11 -0,-0.15 0,-0.05 0.01,-0.1 0.02,-0.15 0.01,-0.06 0.03,-0.11 0.05,-0.14 0.01,-0.02 0.03,-0.04 0.05,-0.06 0.02,-0.02 0.04,-0.02 0.07,-0.03 -0.02,0.01 -0.04,0.02 -0.06,0.04zm0.71 0.72c-0.04,-0.02 -0.05,-0.03 -0.03,-0.05 0.01,-0.01 0.02,-0.02 0.04,-0.03l0.01 -0.01 0.01 -0.01c0.01,-0.01 0.02,-0.02 0.03,-0.02 0.06,-0.05 0.11,-0.09 0.14,-0.14 0.05,-0.07 0.08,-0.15 0.09,-0.23 0.01,-0.08 -0,-0.15 -0.04,-0.22 -0.03,-0.06 -0.08,-0.1 -0.14,-0.12 -0.06,-0.02 -0.12,-0.02 -0.17,0.01 -0.06,0.03 -0.11,0.09 -0.15,0.17 -0.06,0.14 -0.12,0.24 -0.18,0.3 -0.03,0.02 -0.04,0.03 -0.06,0.03 -0.01,-0.01 -0.01,-0.03 -0,-0.07 0.04,-0.15 0.04,-0.27 0,-0.35 -0.03,-0.07 -0.09,-0.11 -0.16,-0.12 -0.15,-0.01 -0.25,0.08 -0.3,0.29 -0.04,0.17 -0.04,0.4 -0.01,0.71 0.03,0.31 0.08,0.55 0.16,0.73 0.09,0.22 0.2,0.31 0.34,0.28 0.13,-0.03 0.18,-0.14 0.17,-0.34 -0,-0.07 -0.02,-0.14 -0.04,-0.23 -0.01,-0.03 -0.02,-0.06 -0.02,-0.09 -0,-0.01 -0.01,-0.02 -0.01,-0.03l-0 -0.01 -0 -0.01 -0 -0c-0.01,-0.02 -0.01,-0.04 0,-0.05 0.01,-0.01 0.02,-0.01 0.04,0 0.05,0.04 0.12,0.14 0.19,0.3 0.04,0.11 0.1,0.19 0.16,0.25 0.06,0.06 0.12,0.09 0.18,0.1 0.06,0.01 0.12,0 0.17,-0.03 0.05,-0.03 0.09,-0.08 0.12,-0.15 0.03,-0.07 0.04,-0.15 0.03,-0.24 -0.01,-0.08 -0.04,-0.16 -0.09,-0.24 -0.11,-0.17 -0.26,-0.3 -0.47,-0.38zm1.59 0.18c-0.01,0.03 -0.03,0.06 -0.05,0.08 -0.03,0.02 -0.05,0.03 -0.08,0.03 0.03,-0.01 0.05,-0.03 0.07,-0.05 0.02,-0.02 0.03,-0.05 0.04,-0.08 0.01,-0.05 0.01,-0.11 -0.02,-0.18 0.02,0.02 0.03,0.05 0.04,0.09 0.01,0.03 0.01,0.07 -0,0.1zm-0.25 -0.05c-0.02,-0.02 -0.03,-0.05 -0.03,-0.08 -0,-0.03 0.01,-0.05 0.02,-0.06 0.02,-0.01 0.04,-0.02 0.06,-0.01 0.03,0.01 0.05,0.02 0.07,0.05 0.02,0.03 0.03,0.05 0.03,0.08 0,0.03 -0.01,0.05 -0.02,0.06 -0.02,0.01 -0.04,0.02 -0.06,0.01 -0.02,-0.01 -0.05,-0.02 -0.07,-0.05zm-0.21 -0.57c0.02,-0.01 0.04,-0.02 0.05,-0.03 0.02,-0.02 0.03,-0.03 0.04,-0.05 0.01,-0.02 0.02,-0.04 0.03,-0.06 0.01,-0.02 0.01,-0.04 0.02,-0.06 0.01,0.05 0,0.09 -0.02,0.14 -0.01,0.02 -0.03,0.04 -0.05,0.05 -0.02,0.01 -0.04,0.02 -0.06,0.02zm-0.06 -0.2c0.01,-0.02 0.02,-0.04 0.03,-0.05 0.01,-0.01 0.03,-0.01 0.04,-0.01 0.01,0.01 0.02,0.02 0.03,0.04 0,0.02 0,0.04 -0,0.06 -0.01,0.02 -0.02,0.04 -0.03,0.05 -0.01,0.01 -0.03,0.01 -0.04,0.01 -0.01,-0.01 -0.02,-0.02 -0.03,-0.04 -0,-0.02 -0,-0.04 0,-0.06zm-0.26 -0.22c-0.02,0.03 -0.03,0.06 -0.05,0.1 -0.02,0.06 -0.04,0.13 -0.06,0.21 -0.01,0.06 -0.02,0.14 -0.03,0.22 -0.01,-0.07 -0,-0.15 0.01,-0.23 0.01,-0.08 0.03,-0.15 0.06,-0.22 0.03,-0.08 0.07,-0.14 0.12,-0.18 0.03,-0.03 0.06,-0.05 0.09,-0.06 0.04,-0.01 0.07,-0.02 0.1,-0.03 -0.07,0.02 -0.13,0.05 -0.18,0.1 -0.03,0.03 -0.05,0.05 -0.07,0.08zm0.64 0.45c-0.02,-0 -0.02,-0.02 -0.02,-0.04 0,-0.01 0.01,-0.02 0.01,-0.04l0 -0.01 0 -0.01c0,-0.01 0.01,-0.02 0.01,-0.03 0.02,-0.05 0.02,-0.11 0.03,-0.15 0,-0.07 -0.01,-0.14 -0.03,-0.21 -0.02,-0.08 -0.08,-0.14 -0.16,-0.18 -0.08,-0.04 -0.17,-0.06 -0.26,-0.05 -0.1,0.01 -0.19,0.06 -0.27,0.14 -0.09,0.09 -0.15,0.22 -0.18,0.38 -0.03,0.17 -0.04,0.35 -0.01,0.53 0.03,0.19 0.08,0.36 0.16,0.51 0.09,0.16 0.19,0.28 0.32,0.36 0.14,0.08 0.3,0.1 0.47,0.06 0.17,-0.04 0.29,-0.12 0.37,-0.24 0.08,-0.11 0.11,-0.24 0.09,-0.38 -0.01,-0.14 -0.07,-0.27 -0.16,-0.38 -0.1,-0.12 -0.23,-0.2 -0.39,-0.24zm1.55 0.37c-0.01,0.03 -0.03,0.05 -0.05,0.07 -0.02,0.02 -0.05,0.03 -0.07,0.03 0.05,-0.03 0.08,-0.06 0.1,-0.11 0.02,-0.04 0.03,-0.09 0.03,-0.15 0.02,0.06 0.02,0.11 -0.01,0.17zm-0.29 -0.1c-0.01,-0.03 -0.01,-0.07 -0,-0.1 0.01,-0.03 0.03,-0.05 0.06,-0.06 0.03,-0.01 0.05,-0 0.08,0.01 0.03,0.02 0.05,0.04 0.06,0.08 0.01,0.04 0.01,0.07 0,0.1 -0.01,0.03 -0.03,0.05 -0.06,0.06 -0.03,0.01 -0.05,0.01 -0.08,-0.01 -0.03,-0.02 -0.05,-0.04 -0.06,-0.08zm-0.24 -1.07c-0.06,0.04 -0.11,0.09 -0.16,0.15 -0.04,0.06 -0.07,0.12 -0.1,0.2l-0.01 0.03 -0.01 0.03 -0.02 0.06 -0.01 0.06 -0.01 0.06c0,-0.08 0.01,-0.16 0.04,-0.23 0.02,-0.08 0.06,-0.15 0.1,-0.21 0.05,-0.07 0.1,-0.12 0.17,-0.15 0.03,-0.02 0.06,-0.03 0.1,-0.04l0.03 -0.01 0.03 -0.01 0.05 -0.01c-0.08,0.02 -0.14,0.05 -0.2,0.08zm0.41 -0.2c-0.28,-0.03 -0.49,0.06 -0.65,0.25 -0.13,0.17 -0.2,0.4 -0.19,0.68 0.01,0.27 0.07,0.51 0.21,0.72 0.14,0.23 0.32,0.36 0.54,0.38 0.21,0.03 0.38,-0.06 0.53,-0.26 0.13,-0.18 0.21,-0.41 0.24,-0.68 0.03,-0.28 -0.01,-0.52 -0.12,-0.72 -0.12,-0.23 -0.31,-0.35 -0.55,-0.38zm1.71 -0.08c-0.02,0.03 -0.04,0.07 -0.05,0.11 -0.03,0.08 -0.05,0.16 -0.07,0.24l-0.01 0.06 -0.01 0.06c-0.01,0.06 -0.02,0.1 -0.02,0.13 -0.01,0.06 -0.03,0.1 -0.04,0.12 -0.01,0.02 -0.03,0.04 -0.04,0.05 -0.02,0.01 -0.03,0.02 -0.06,0.02 0.02,-0 0.04,-0.01 0.05,-0.02 0.01,-0.01 0.03,-0.03 0.04,-0.05 0.01,-0.03 0.02,-0.07 0.03,-0.12l0.01 -0.06 0.01 -0.06c0.01,-0.05 0.01,-0.09 0.02,-0.13 0.02,-0.09 0.04,-0.17 0.08,-0.25 0.04,-0.09 0.09,-0.16 0.14,-0.2 -0.03,0.03 -0.05,0.06 -0.07,0.1zm-0.81 0.47c-0,0.06 -0,0.13 0,0.21l0.01 0.1 0.01 0.11c-0.04,-0.2 -0.05,-0.39 -0.02,-0.56 0.01,-0.03 0.01,-0.06 0.02,-0.09 0.01,-0.04 0.02,-0.07 0.03,-0.09 0.03,-0.07 0.07,-0.11 0.13,-0.11 -0.07,0.02 -0.11,0.08 -0.14,0.18 -0.01,0.04 -0.02,0.08 -0.02,0.13 -0,0.02 -0,0.04 -0,0.06l-0 0.03 -0 0.01 -0 0.01zm1.11 -0.7c-0.12,-0.05 -0.22,-0.03 -0.32,0.07 -0.08,0.08 -0.14,0.2 -0.19,0.36 -0.02,0.05 -0.03,0.11 -0.04,0.18 -0,0.02 -0.01,0.05 -0.01,0.08l-0.01 0.04 -0 0.02 -0 0.02c-0.01,0.05 -0.01,0.09 -0.02,0.11 -0.01,0.03 -0.02,0.04 -0.03,0.05 -0.02,0 -0.04,-0.02 -0.04,-0.05 -0.01,-0.03 -0.01,-0.11 -0.02,-0.22 -0.01,-0.21 -0.04,-0.35 -0.11,-0.43 -0.05,-0.06 -0.12,-0.08 -0.21,-0.05 -0.11,0.04 -0.18,0.16 -0.21,0.38 -0.03,0.21 -0.02,0.47 0.04,0.76 0.1,0.54 0.3,0.81 0.58,0.8 0.08,-0 0.16,-0.04 0.23,-0.1 0.07,-0.06 0.12,-0.14 0.16,-0.24 0.03,-0.09 0.06,-0.16 0.08,-0.24 0.01,-0.03 0.02,-0.05 0.02,-0.08 0.01,-0.02 0.01,-0.04 0.01,-0.06 0.01,-0.04 0.01,-0.06 0.02,-0.07 0,-0.01 0.01,-0.02 0.02,-0.01 0.01,0 0.02,0.04 0.02,0.12l0 0.03 0 0.03c0,0.02 0,0.04 0,0.06 0,0.05 0.01,0.09 0.01,0.13 0.03,0.23 0.13,0.33 0.28,0.31 0.1,-0.02 0.16,-0.12 0.19,-0.32 0.02,-0.17 0.01,-0.38 -0.03,-0.63 -0.04,-0.25 -0.1,-0.46 -0.18,-0.66 -0.09,-0.21 -0.18,-0.33 -0.27,-0.37zm-0.73 -0.13c0.05,-0.01 0.08,-0.03 0.12,-0.05 0.04,-0.02 0.07,-0.05 0.1,-0.08 0.01,-0.01 0.01,-0.02 0.02,-0.03l0.02 -0.03 0.01 -0.01c0,-0.01 0.01,-0.01 0.01,-0.01 0.01,-0 0.01,-0.01 0.02,-0.01l0.01 -0 0.01 -0 -0.01 0 -0.01 0c-0.01,0 -0.01,0.01 -0.01,0.01 -0,0 -0.01,0.01 -0.01,0.01l-0.01 0.02c-0.01,0.03 -0.02,0.05 -0.03,0.06 -0.01,0.02 -0.03,0.03 -0.04,0.05 -0.01,0.01 -0.03,0.03 -0.06,0.04 -0.04,0.02 -0.08,0.04 -0.12,0.05l-0.03 0.01 -0.03 0c-0.03,0 -0.05,0.01 -0.06,0.02 0.01,-0.01 0.01,-0.02 0.03,-0.02l0.01 -0.01 0.02 -0.01 0.06 -0.02zm0.47 -0.18c-0.01,-0.06 -0.04,-0.11 -0.08,-0.13 -0.04,-0.03 -0.09,-0.03 -0.14,-0.01 -0.03,0.01 -0.06,0.04 -0.08,0.08l-0.01 0.02c-0.01,0.01 -0.01,0.02 -0.02,0.02 -0.01,0.02 -0.03,0.03 -0.04,0.04 -0.02,0.02 -0.05,0.03 -0.08,0.04 -0.01,0 -0.02,0.01 -0.04,0.01l-0.02 0 -0.02 0c-0.06,0.01 -0.1,0.03 -0.13,0.06 -0.03,0.03 -0.04,0.06 -0.04,0.1 0,0.04 0.02,0.07 0.04,0.1 0.04,0.05 0.1,0.08 0.18,0.08 0.08,0 0.15,-0.01 0.23,-0.05 0.08,-0.04 0.15,-0.09 0.19,-0.15 0.05,-0.07 0.07,-0.15 0.05,-0.23z"/>
  <path class="fil0" d="M4.17 10.22c-0.01,0.01 -0.02,0.02 -0.03,0.04 -0.01,0.02 -0.02,0.05 -0.02,0.1 -0,0.05 0.01,0.12 0.02,0.2l0 0.03 0 0.03c0,0.02 0.01,0.04 0.01,0.05 0,0.04 -0,0.08 -0.01,0.11 -0.01,0.04 -0.02,0.07 -0.04,0.09 -0.02,0.03 -0.05,0.05 -0.07,0.06 0.05,-0.04 0.09,-0.09 0.1,-0.16 0.01,-0.03 0.01,-0.07 0,-0.1 -0,-0.01 -0,-0.03 -0.01,-0.05l-0.01 -0.03 -0 -0.03c-0.01,-0.08 -0.02,-0.15 -0.02,-0.21 0,-0.04 0.01,-0.08 0.03,-0.1 0.01,-0.02 0.02,-0.03 0.04,-0.04 0.01,-0.01 0.03,-0.01 0.05,-0.01 -0.02,0.01 -0.03,0.01 -0.04,0.02zm-0.87 0.18c-0.02,0.04 -0.04,0.09 -0.05,0.14 -0.01,0.04 -0.01,0.1 -0.02,0.16l-0 0.08 -0 0.08c-0.02,-0.11 -0.01,-0.21 0,-0.32 0.01,-0.06 0.03,-0.11 0.06,-0.15 0.02,-0.02 0.03,-0.04 0.06,-0.05 0.02,-0.01 0.05,-0.02 0.07,-0.02 -0.04,0.01 -0.08,0.04 -0.11,0.09zm0.89 -0.3c-0.09,0.02 -0.14,0.07 -0.17,0.16 -0.02,0.08 -0.02,0.21 0.01,0.37 0.01,0.07 0.01,0.13 -0.02,0.17 -0.02,0.04 -0.05,0.05 -0.1,0.06 -0.04,0 -0.08,-0.01 -0.11,-0.04 -0.03,-0.03 -0.04,-0.08 -0.05,-0.14 -0.01,-0.17 -0.05,-0.29 -0.11,-0.37 -0.05,-0.07 -0.13,-0.1 -0.23,-0.1 -0.08,-0 -0.15,0.03 -0.2,0.09 -0.05,0.06 -0.09,0.14 -0.1,0.23 -0.03,0.18 -0.02,0.4 0.02,0.64 0.04,0.23 0.09,0.45 0.17,0.65 0.06,0.15 0.13,0.25 0.22,0.31 0.07,0.05 0.14,0.06 0.21,0.03 0.16,-0.05 0.22,-0.2 0.16,-0.43 -0.04,-0.17 -0.02,-0.26 0.06,-0.28 0.04,-0.01 0.07,0 0.1,0.03 0.03,0.04 0.06,0.1 0.07,0.2 0.02,0.16 0.06,0.27 0.13,0.34 0.06,0.07 0.14,0.09 0.23,0.08 0.15,-0.02 0.24,-0.15 0.27,-0.36 0.02,-0.16 0.01,-0.41 -0.04,-0.76 -0.04,-0.27 -0.1,-0.49 -0.2,-0.65 -0.1,-0.17 -0.22,-0.25 -0.34,-0.22zm1.62 1c-0.02,0.02 -0.03,0.03 -0.05,0.04 -0.02,0.01 -0.04,0.01 -0.06,0.01 0.04,-0.02 0.07,-0.04 0.1,-0.07 0.02,-0.02 0.04,-0.06 0.06,-0.11 0,0.05 -0.01,0.09 -0.05,0.12zm-0.15 -0.06c-0.02,-0.01 -0.04,-0.02 -0.05,-0.05 -0.01,-0.03 -0.01,-0.05 -0.01,-0.08 0.01,-0.03 0.02,-0.05 0.04,-0.07 0.02,-0.02 0.04,-0.02 0.06,-0.02 0.02,0 0.04,0.02 0.05,0.05 0.01,0.03 0.01,0.05 0.01,0.08 -0.01,0.03 -0.02,0.05 -0.04,0.07 -0.02,0.02 -0.04,0.02 -0.06,0.02zm-0.33 -0.72c-0.02,0.05 -0.05,0.13 -0.09,0.22 -0.01,0.03 -0.02,0.07 -0.04,0.11l-0.04 0.11c0.01,-0.07 0.03,-0.15 0.06,-0.23 0.02,-0.07 0.05,-0.15 0.08,-0.22 0.04,-0.08 0.08,-0.15 0.11,-0.2l0.02 -0.02c0.01,-0.01 0.01,-0.02 0.02,-0.02l0.02 -0.02 0.02 -0.02c0.04,-0.03 0.07,-0.05 0.1,-0.05 -0.03,0.01 -0.06,0.03 -0.09,0.06l-0.02 0.02 -0.02 0.02c-0,0.01 -0.01,0.01 -0.02,0.02l-0.02 0.02c-0.04,0.06 -0.07,0.12 -0.11,0.2zm0.28 -0.46c-0.12,-0 -0.23,0.1 -0.34,0.31 -0.1,0.19 -0.18,0.42 -0.24,0.7 -0.06,0.28 -0.08,0.52 -0.06,0.72 0.02,0.23 0.08,0.35 0.18,0.38 0.08,0.02 0.15,0.01 0.21,-0.04 0.05,-0.03 0.1,-0.09 0.14,-0.16 0.01,-0.01 0.02,-0.03 0.03,-0.05l0.03 -0.05c0.02,-0.04 0.04,-0.07 0.05,-0.09 0.04,-0.06 0.07,-0.09 0.1,-0.1 0.03,-0.01 0.08,0.01 0.13,0.06 0.02,0.01 0.04,0.03 0.08,0.06l0.04 0.03 0.04 0.04c0.07,0.05 0.13,0.09 0.18,0.1 0.07,0.02 0.13,0.01 0.19,-0.03 0.07,-0.05 0.09,-0.18 0.07,-0.38 -0.02,-0.19 -0.08,-0.4 -0.16,-0.64 -0.09,-0.24 -0.19,-0.44 -0.31,-0.6 -0.13,-0.18 -0.25,-0.27 -0.37,-0.27zm2.44 -0.25c-0.01,0.02 -0.03,0.04 -0.04,0.07 -0.02,0.04 -0.04,0.09 -0.06,0.16l-0.01 0.04 -0.01 0.04c-0.01,0.03 -0.02,0.06 -0.03,0.08 -0.02,0.03 -0.03,0.06 -0.04,0.08 -0.02,0.03 -0.04,0.04 -0.07,0.05 0.02,-0.02 0.04,-0.04 0.06,-0.06 0.01,-0.02 0.02,-0.04 0.04,-0.08 0.01,-0.02 0.02,-0.05 0.03,-0.08l0.03 -0.08c0.03,-0.07 0.05,-0.12 0.07,-0.16 0.02,-0.03 0.03,-0.05 0.05,-0.07 0.02,-0.03 0.05,-0.04 0.07,-0.04 -0.02,0.01 -0.04,0.03 -0.06,0.05zm-0.63 1.4c-0.02,0.02 -0.03,0.04 -0.04,0.05 -0.03,0.04 -0.06,0.07 -0.08,0.11 -0.01,0.02 -0.02,0.04 -0.02,0.06 -0,0.02 -0.01,0.04 -0.01,0.07 -0,-0.02 -0.01,-0.05 -0.01,-0.07 0,-0.02 0.01,-0.05 0.02,-0.07 0.01,-0.04 0.04,-0.08 0.08,-0.12 0.02,-0.03 0.06,-0.06 0.1,-0.09l0.03 -0.02 0.02 -0.02c0.02,-0.02 0.04,-0.03 0.05,-0.05 -0.02,0.03 -0.05,0.07 -0.08,0.11l-0.05 0.05zm-0.4 -1.11c-0.01,0.02 -0.02,0.04 -0.02,0.07 -0,0.02 -0,0.05 0,0.08 -0.01,-0.02 -0.02,-0.05 -0.02,-0.08 -0,-0.03 0,-0.06 0.02,-0.08 0.01,-0.03 0.03,-0.05 0.05,-0.06 0.02,-0.02 0.05,-0.02 0.07,-0.02 -0.05,0.02 -0.08,0.05 -0.11,0.1zm1.08 -0.45c-0.05,0.01 -0.1,0.04 -0.14,0.11 -0.03,0.05 -0.06,0.11 -0.1,0.2l-0.02 0.05 -0.01 0.03 -0.01 0.02c-0.01,0.04 -0.03,0.07 -0.03,0.09 -0.02,0.06 -0.05,0.09 -0.06,0.09 -0.02,0 -0.07,-0.03 -0.14,-0.09l-0.01 -0.01 -0.01 -0.01c-0.01,-0.01 -0.02,-0.02 -0.03,-0.02 -0.02,-0.02 -0.04,-0.04 -0.06,-0.05 -0.05,-0.04 -0.1,-0.07 -0.14,-0.1 -0.07,-0.05 -0.15,-0.06 -0.22,-0.05 -0.06,0.01 -0.12,0.04 -0.16,0.1 -0.04,0.05 -0.06,0.12 -0.06,0.19 0,0.08 0.03,0.15 0.08,0.22 0.04,0.05 0.09,0.1 0.15,0.15 0.02,0.02 0.05,0.04 0.08,0.06l0.04 0.03 0.04 0.03c0.07,0.05 0.12,0.08 0.14,0.11 0.04,0.04 0.07,0.07 0.08,0.11 0.01,0.04 -0.01,0.08 -0.04,0.12 -0.01,0.02 -0.03,0.04 -0.06,0.06l-0.02 0.02 -0.02 0.02 -0.04 0.04c-0.06,0.06 -0.1,0.11 -0.13,0.16 -0.04,0.07 -0.05,0.14 -0.04,0.22 0.01,0.06 0.03,0.11 0.06,0.16 0.03,0.05 0.07,0.08 0.12,0.11 0.11,0.05 0.23,0.05 0.37,-0.02 0.18,-0.09 0.35,-0.31 0.49,-0.63 0.13,-0.29 0.2,-0.56 0.21,-0.81 0.01,-0.25 -0.02,-0.44 -0.08,-0.55 -0.05,-0.09 -0.13,-0.13 -0.23,-0.11zm1.84 1.06c-0,0.03 -0.01,0.06 -0.04,0.09 -0.02,0.02 -0.04,0.04 -0.07,0.05 -0.03,0.01 -0.06,0.01 -0.08,0.01 0.03,-0.01 0.06,-0.02 0.08,-0.03 0.03,-0.01 0.05,-0.03 0.06,-0.05 0.02,-0.02 0.03,-0.04 0.03,-0.07 0,-0.02 0.01,-0.05 0.01,-0.09 0.01,0.03 0.02,0.06 0.02,0.09zm-0.34 0.02c-0.02,-0.03 -0.02,-0.08 -0.01,-0.16 0.02,-0.08 0.04,-0.12 0.08,-0.13 0.04,-0.01 0.08,0.03 0.12,0.1 0.02,0.03 0.03,0.06 0.03,0.09 0.01,0.03 0.01,0.06 0,0.07 -0.01,0.02 -0.04,0.04 -0.1,0.05 -0.06,0.01 -0.1,-0 -0.12,-0.03zm-0.32 -0.88c-0.03,0.06 -0.05,0.13 -0.07,0.21 -0.02,0.06 -0.03,0.13 -0.05,0.22 0,-0.07 0.01,-0.15 0.03,-0.22 0.01,-0.07 0.04,-0.14 0.07,-0.21 0.03,-0.08 0.07,-0.14 0.11,-0.19 0.02,-0.03 0.05,-0.05 0.08,-0.07 0.03,-0.02 0.06,-0.03 0.1,-0.04 -0.06,0.02 -0.11,0.06 -0.16,0.12 -0.04,0.05 -0.07,0.11 -0.1,0.19zm-0.39 1.2c-0.02,0.01 -0.03,0.03 -0.04,0.04 -0.01,0.02 -0.02,0.04 -0.02,0.06 -0.01,-0.02 -0.01,-0.05 0.01,-0.07 0.01,-0.02 0.02,-0.04 0.05,-0.05 0.04,-0.03 0.08,-0.05 0.12,-0.05l-0.03 0.02 -0.03 0.02c-0.02,0.01 -0.04,0.03 -0.05,0.04zm1.55 -0.42c-0.04,-0 -0.06,-0.02 -0.08,-0.03 -0.02,-0.02 -0.03,-0.04 -0.04,-0.08 -0.01,-0.02 -0.02,-0.06 -0.03,-0.13 -0.01,-0.03 -0.01,-0.06 -0.02,-0.08 -0.01,-0.03 -0.02,-0.07 -0.03,-0.1 -0.08,-0.27 -0.19,-0.48 -0.32,-0.61 -0.12,-0.13 -0.25,-0.18 -0.38,-0.16 -0.11,0.02 -0.22,0.1 -0.3,0.25 -0.09,0.15 -0.14,0.35 -0.17,0.57 -0.01,0.09 -0.01,0.18 -0.01,0.27 -0,0.02 -0,0.03 0,0.05l0 0.02 -0 0.02c0,0.04 0,0.06 0,0.08 -0,0.05 -0.01,0.08 -0.02,0.1 -0.01,0.03 -0.04,0.05 -0.08,0.06 -0.11,0.04 -0.18,0.1 -0.21,0.17 -0.03,0.06 -0.03,0.13 0,0.21 0.05,0.11 0.18,0.18 0.39,0.21 0.19,0.03 0.43,0.03 0.7,-0.01 0.25,-0.03 0.44,-0.07 0.57,-0.12 0.19,-0.07 0.31,-0.16 0.35,-0.28 0.04,-0.11 0.02,-0.21 -0.04,-0.29 -0.06,-0.08 -0.16,-0.13 -0.28,-0.14zm1.67 -1.47c-0.02,0.02 -0.03,0.04 -0.05,0.07 -0.02,0.04 -0.05,0.1 -0.08,0.17l-0.02 0.04 -0.02 0.04c-0.02,0.03 -0.03,0.06 -0.05,0.08 -0.02,0.03 -0.04,0.05 -0.06,0.07 -0.03,0.02 -0.06,0.03 -0.09,0.03 0.05,-0.01 0.1,-0.05 0.13,-0.11 0.01,-0.02 0.03,-0.05 0.04,-0.08l0.02 -0.04 0.02 -0.04c0.03,-0.07 0.06,-0.13 0.09,-0.17 0.02,-0.03 0.04,-0.06 0.06,-0.07 0.03,-0.02 0.05,-0.03 0.08,-0.04 -0.03,0.01 -0.06,0.02 -0.08,0.05zm-1.02 0.3c-0.02,0.05 -0.05,0.11 -0.06,0.17 -0.01,0.04 -0.03,0.1 -0.04,0.19 -0.01,0.03 -0.01,0.06 -0.02,0.09l-0.01 0.05 -0.01 0.05c0,-0.14 0.02,-0.26 0.05,-0.38 0.02,-0.07 0.04,-0.13 0.07,-0.18 0.02,-0.03 0.04,-0.05 0.06,-0.07 0.02,-0.02 0.05,-0.03 0.08,-0.04 -0.05,0.01 -0.09,0.05 -0.13,0.12zm1.69 0.44c-0.06,-0.28 -0.14,-0.5 -0.25,-0.67 -0.1,-0.15 -0.21,-0.23 -0.32,-0.23 -0.08,0 -0.15,0.04 -0.2,0.1 -0.04,0.05 -0.09,0.15 -0.15,0.28 -0.05,0.12 -0.1,0.18 -0.15,0.17 -0.03,-0 -0.08,-0.04 -0.14,-0.11 -0.07,-0.08 -0.13,-0.14 -0.19,-0.18 -0.07,-0.05 -0.14,-0.06 -0.21,-0.04 -0.18,0.05 -0.29,0.3 -0.32,0.76 -0.02,0.29 -0.01,0.55 0.04,0.78 0.06,0.25 0.15,0.38 0.28,0.39 0.08,0 0.14,-0.03 0.19,-0.09 0.04,-0.05 0.06,-0.13 0.09,-0.23 0.01,-0.03 0.01,-0.08 0.02,-0.13l0.01 -0.03 0 -0.03c0,-0.02 0.01,-0.04 0.01,-0.05 0.01,-0.08 0.03,-0.12 0.05,-0.14 0.02,-0.01 0.03,0 0.05,0.04 0.01,0.01 0.02,0.03 0.03,0.05l0.01 0.01 0.01 0.02 0.02 0.03c0.03,0.05 0.06,0.09 0.09,0.12 0.04,0.03 0.09,0.05 0.14,0.04 0.04,-0.01 0.07,-0.03 0.1,-0.06 0.02,-0.02 0.04,-0.06 0.06,-0.12l0.01 -0.03 0.01 -0.03c0.01,-0.02 0.02,-0.04 0.02,-0.05 0.02,-0.03 0.04,-0.04 0.06,-0.04 0.02,0.01 0.05,0.04 0.08,0.1 0.01,0.01 0.01,0.03 0.02,0.04l0.01 0.02 0.01 0.02c0.02,0.04 0.04,0.08 0.05,0.1 0.05,0.08 0.09,0.14 0.13,0.18 0.06,0.05 0.12,0.07 0.19,0.06 0.12,-0.02 0.18,-0.13 0.2,-0.34 0.01,-0.18 -0.01,-0.44 -0.08,-0.76zm1.2 -1.03c-0.01,0.02 -0.03,0.04 -0.04,0.07 -0.02,0.04 -0.04,0.09 -0.06,0.16l-0.01 0.04 -0.01 0.04c-0.01,0.03 -0.02,0.06 -0.03,0.08 -0.02,0.03 -0.03,0.06 -0.04,0.08 -0.02,0.03 -0.04,0.04 -0.07,0.05 0.02,-0.02 0.04,-0.04 0.06,-0.06 0.01,-0.02 0.02,-0.04 0.04,-0.08 0.01,-0.02 0.02,-0.05 0.03,-0.08l0.03 -0.08c0.03,-0.07 0.05,-0.12 0.07,-0.16 0.02,-0.03 0.03,-0.05 0.05,-0.07 0.02,-0.03 0.05,-0.04 0.07,-0.04 -0.02,0.01 -0.04,0.03 -0.06,0.05zm-0.63 1.4c-0.02,0.02 -0.03,0.04 -0.04,0.05 -0.03,0.04 -0.06,0.07 -0.08,0.11 -0.01,0.02 -0.02,0.04 -0.02,0.06 -0,0.02 -0.01,0.04 -0.01,0.07 -0,-0.02 -0.01,-0.05 -0.01,-0.07 0,-0.02 0.01,-0.05 0.02,-0.07 0.01,-0.04 0.04,-0.08 0.08,-0.12 0.02,-0.03 0.06,-0.06 0.1,-0.1l0.03 -0.02 0.02 -0.02c0.02,-0.02 0.04,-0.03 0.05,-0.05 -0.02,0.03 -0.05,0.07 -0.08,0.11l-0.05 0.05zm-0.4 -1.11c-0.01,0.02 -0.02,0.04 -0.02,0.07 -0,0.02 -0,0.05 0,0.08 -0.01,-0.02 -0.02,-0.05 -0.02,-0.08 -0,-0.03 0,-0.06 0.02,-0.08 0.01,-0.03 0.03,-0.05 0.05,-0.06 0.02,-0.02 0.05,-0.02 0.07,-0.02 -0.05,0.02 -0.08,0.05 -0.11,0.1zm1.08 -0.45c-0.05,0.01 -0.1,0.04 -0.14,0.11 -0.03,0.05 -0.06,0.11 -0.1,0.2l-0.02 0.05 -0.01 0.03 -0.01 0.02c-0.01,0.04 -0.03,0.07 -0.03,0.09 -0.02,0.06 -0.05,0.09 -0.06,0.09 -0.02,0 -0.07,-0.03 -0.14,-0.09l-0.01 -0.01 -0.01 -0.01c-0.01,-0.01 -0.02,-0.02 -0.03,-0.02 -0.02,-0.02 -0.04,-0.04 -0.06,-0.05 -0.05,-0.04 -0.1,-0.07 -0.14,-0.1 -0.07,-0.05 -0.15,-0.06 -0.22,-0.05 -0.06,0.01 -0.12,0.04 -0.16,0.1 -0.04,0.05 -0.06,0.12 -0.06,0.19 0,0.08 0.03,0.15 0.08,0.22 0.04,0.05 0.09,0.1 0.15,0.15 0.02,0.02 0.05,0.04 0.08,0.06l0.04 0.03 0.04 0.03c0.07,0.05 0.12,0.08 0.14,0.11 0.04,0.04 0.07,0.07 0.08,0.11 0.01,0.04 -0.01,0.08 -0.04,0.12 -0.01,0.02 -0.03,0.04 -0.06,0.06l-0.02 0.02 -0.02 0.02 -0.04 0.04c-0.06,0.06 -0.1,0.11 -0.13,0.16 -0.04,0.07 -0.05,0.14 -0.04,0.22 0.01,0.06 0.03,0.11 0.06,0.16 0.03,0.05 0.07,0.08 0.12,0.11 0.11,0.05 0.23,0.05 0.37,-0.02 0.18,-0.09 0.35,-0.31 0.49,-0.63 0.13,-0.29 0.2,-0.56 0.21,-0.81 0.01,-0.25 -0.02,-0.44 -0.08,-0.55 -0.05,-0.09 -0.13,-0.13 -0.23,-0.11zm1.38 0.64c-0.01,0.03 -0.02,0.06 -0.03,0.08 -0.02,0.03 -0.04,0.05 -0.06,0.06 -0.03,0.02 -0.05,0.02 -0.08,0.02 0.03,-0.01 0.05,-0.02 0.07,-0.04 0.02,-0.02 0.04,-0.04 0.05,-0.06 0.03,-0.04 0.04,-0.09 0.05,-0.15 0.01,0.03 0.01,0.06 0,0.09zm-0.25 -0.08c0.01,-0.03 0.02,-0.05 0.04,-0.07 0.02,-0.02 0.04,-0.02 0.06,-0.01 0.02,0.01 0.03,0.02 0.04,0.05 0.01,0.03 0.01,0.05 -0,0.08 -0.01,0.03 -0.02,0.05 -0.04,0.07 -0.02,0.02 -0.04,0.02 -0.06,0.01 -0.02,-0.01 -0.03,-0.02 -0.04,-0.05 -0.01,-0.03 -0.01,-0.06 -0,-0.08zm-0.29 -0.52c-0.05,0.04 -0.1,0.09 -0.13,0.14 -0.03,0.05 -0.06,0.11 -0.08,0.19 -0.01,0.06 -0.03,0.13 -0.03,0.21 -0,-0.03 -0,-0.06 0,-0.11 0,-0.04 0.01,-0.07 0.01,-0.11 0.01,-0.07 0.04,-0.14 0.07,-0.2 0.04,-0.06 0.09,-0.11 0.14,-0.15 0.03,-0.02 0.06,-0.03 0.09,-0.04 0.03,-0.01 0.07,-0.02 0.1,-0.02 -0.07,0.02 -0.13,0.05 -0.18,0.09zm0.22 -0.21c-0.17,0.03 -0.31,0.1 -0.41,0.23 -0.09,0.11 -0.14,0.25 -0.15,0.43 -0.01,0.16 0.01,0.33 0.05,0.52 0.05,0.18 0.12,0.34 0.21,0.48 0.09,0.14 0.18,0.24 0.27,0.31 0.08,0.06 0.16,0.09 0.23,0.08 0.06,-0 0.12,-0.03 0.15,-0.09 0.04,-0.05 0.06,-0.12 0.05,-0.2 -0,-0.06 -0.01,-0.12 -0.03,-0.19 -0.01,-0.02 -0.02,-0.05 -0.03,-0.08l-0.01 -0.04c-0,-0.01 -0.01,-0.03 -0.01,-0.04 -0.02,-0.05 -0.02,-0.1 -0.02,-0.13 0,-0.04 0.03,-0.07 0.07,-0.1 0.13,-0.09 0.22,-0.22 0.27,-0.36 0.05,-0.14 0.05,-0.28 0.01,-0.41 -0.04,-0.14 -0.11,-0.24 -0.22,-0.32 -0.12,-0.08 -0.26,-0.11 -0.43,-0.09zm1.18 -0.05c-0.06,0.02 -0.11,0.04 -0.14,0.06 -0.05,0.03 -0.1,0.05 -0.13,0.08 -0.02,0.02 -0.04,0.04 -0.05,0.06 -0.01,0.02 -0.01,0.05 -0.01,0.08 -0.01,-0.03 -0.01,-0.06 -0,-0.09 0.01,-0.02 0.02,-0.05 0.04,-0.07 0.03,-0.03 0.07,-0.06 0.13,-0.09 0.09,-0.04 0.19,-0.07 0.3,-0.08 -0.06,0.01 -0.1,0.03 -0.15,0.04zm0.23 -0.17c-0.21,0.02 -0.38,0.08 -0.5,0.16 -0.13,0.09 -0.18,0.19 -0.15,0.31 0.02,0.07 0.05,0.11 0.1,0.14 0.04,0.02 0.09,0.02 0.16,0.02l0.04 -0 0.04 -0c0.03,-0 0.06,-0 0.08,-0 0.06,0 0.09,0.02 0.11,0.05 0.01,0.02 0.02,0.14 0.04,0.37 0.01,0.12 0.01,0.21 0.02,0.29 0.01,0.11 0.03,0.21 0.05,0.3 0.03,0.13 0.09,0.22 0.17,0.29 0.09,0.07 0.18,0.09 0.28,0.06 0.18,-0.06 0.22,-0.27 0.11,-0.64 -0.06,-0.19 -0.1,-0.36 -0.12,-0.5 -0.03,-0.15 -0.03,-0.24 -0,-0.27 0.02,-0.02 0.05,-0.03 0.1,-0.04 0.01,-0 0.04,-0.01 0.07,-0.01l0.04 -0 0.03 -0.01c0.06,-0.01 0.1,-0.03 0.13,-0.05 0.04,-0.03 0.06,-0.07 0.07,-0.12 0.01,-0.07 -0.01,-0.13 -0.06,-0.18 -0.04,-0.05 -0.11,-0.09 -0.19,-0.12 -0.17,-0.06 -0.37,-0.08 -0.62,-0.06zm2.21 0.89c-0.01,0.01 -0.01,0.01 -0.02,0.03l-0.01 0.01 -0.01 0.01c-0.02,0.02 -0.04,0.04 -0.06,0.05 -0.02,0.01 -0.05,0.02 -0.07,0.01 0.04,-0.02 0.08,-0.04 0.12,-0.08l0.01 -0.01 0.01 -0.01c0.01,-0.01 0.02,-0.02 0.03,-0.02 0.02,-0.02 0.05,-0.02 0.07,-0.02 -0.02,0.01 -0.04,0.02 -0.06,0.04zm-0.9 -0.81c-0.04,0.06 -0.07,0.12 -0.09,0.2 -0.02,0.06 -0.04,0.14 -0.05,0.22 0,-0.08 0.01,-0.15 0.03,-0.23 0.02,-0.07 0.05,-0.14 0.09,-0.21 0.04,-0.07 0.09,-0.12 0.15,-0.16 0.03,-0.02 0.07,-0.03 0.1,-0.04 0.04,-0.01 0.07,-0.02 0.1,-0.02 -0.07,0.02 -0.14,0.05 -0.19,0.08 -0.06,0.04 -0.1,0.09 -0.14,0.16zm1.2 0.92c-0.04,-0.14 -0.1,-0.23 -0.19,-0.25 -0.04,-0.01 -0.08,-0.01 -0.12,0.01 -0.04,0.02 -0.08,0.05 -0.11,0.08 -0.03,0.04 -0.07,0.06 -0.11,0.06 -0.04,0 -0.08,-0.01 -0.11,-0.04 -0.04,-0.03 -0.07,-0.07 -0.09,-0.13 -0.03,-0.06 -0.04,-0.12 -0.04,-0.2 -0,-0.1 0.03,-0.17 0.11,-0.2 0.05,-0.02 0.14,-0.02 0.24,0.01 0.05,0.01 0.09,0 0.12,-0.02 0.03,-0.02 0.05,-0.06 0.07,-0.1 0.01,-0.05 0.01,-0.1 -0.01,-0.15 -0.02,-0.06 -0.05,-0.11 -0.09,-0.16 -0.1,-0.1 -0.21,-0.16 -0.35,-0.19 -0.12,-0.02 -0.24,-0 -0.36,0.05 -0.15,0.07 -0.26,0.19 -0.33,0.38 -0.08,0.21 -0.1,0.45 -0.05,0.73 0.05,0.32 0.17,0.55 0.35,0.71 0.08,0.07 0.18,0.12 0.28,0.15 0.1,0.02 0.21,0.02 0.32,-0.01 0.18,-0.05 0.32,-0.14 0.41,-0.29 0.09,-0.14 0.11,-0.29 0.07,-0.45zm0.84 -1.1c-0.03,0.05 -0.05,0.1 -0.08,0.14 -0.04,0.05 -0.07,0.08 -0.11,0.11 0.03,-0.03 0.06,-0.07 0.1,-0.12 0.03,-0.04 0.05,-0.09 0.08,-0.14 0.01,-0.02 0.02,-0.05 0.03,-0.07l0.01 -0.02 0.01 -0.02c0.01,-0.02 0.01,-0.03 0.02,-0.04 0.01,-0.02 0.03,-0.04 0.05,-0.06 0.02,-0.02 0.05,-0.03 0.07,-0.03 -0.04,0.01 -0.08,0.04 -0.11,0.1 -0.01,0.01 -0.01,0.02 -0.02,0.04l-0.01 0.02 -0.01 0.02c-0.01,0.02 -0.02,0.05 -0.03,0.07zm-0.56 -0.23c-0.02,0.01 -0.03,0.03 -0.04,0.06 -0.02,0.03 -0.03,0.08 -0.05,0.14 -0.01,0.04 -0.02,0.08 -0.02,0.15l-0.01 0.08 -0.01 0.07c-0,-0.06 -0.01,-0.11 -0,-0.15 0,-0.05 0.01,-0.1 0.02,-0.15 0.01,-0.06 0.03,-0.11 0.05,-0.14 0.01,-0.02 0.03,-0.04 0.05,-0.06 0.02,-0.02 0.04,-0.02 0.07,-0.03 -0.02,0.01 -0.04,0.02 -0.06,0.04zm0.71 0.72c-0.04,-0.02 -0.05,-0.03 -0.03,-0.05 0.01,-0.01 0.02,-0.02 0.04,-0.03l0.01 -0.01 0.01 -0.01c0.01,-0.01 0.02,-0.02 0.03,-0.02 0.06,-0.05 0.11,-0.09 0.14,-0.14 0.05,-0.07 0.08,-0.15 0.09,-0.23 0.01,-0.08 -0,-0.15 -0.04,-0.22 -0.03,-0.06 -0.08,-0.1 -0.14,-0.12 -0.06,-0.02 -0.12,-0.02 -0.17,0.01 -0.06,0.03 -0.11,0.09 -0.15,0.17 -0.06,0.14 -0.12,0.24 -0.18,0.3 -0.03,0.02 -0.04,0.03 -0.06,0.03 -0.01,-0.01 -0.01,-0.03 -0,-0.07 0.04,-0.15 0.04,-0.27 0,-0.35 -0.03,-0.07 -0.09,-0.11 -0.16,-0.12 -0.15,-0.01 -0.26,0.08 -0.3,0.29 -0.04,0.17 -0.04,0.4 -0.01,0.71 0.03,0.31 0.08,0.55 0.16,0.73 0.09,0.22 0.2,0.31 0.34,0.28 0.13,-0.03 0.18,-0.14 0.17,-0.34 -0,-0.07 -0.02,-0.14 -0.04,-0.23 -0.01,-0.03 -0.02,-0.06 -0.02,-0.09 -0,-0.01 -0.01,-0.02 -0.01,-0.03l-0 -0.01 -0 -0.01 -0 -0c-0.01,-0.02 -0.01,-0.04 0,-0.05 0.01,-0.01 0.02,-0.01 0.05,0 0.05,0.04 0.12,0.14 0.19,0.3 0.04,0.11 0.1,0.19 0.16,0.25 0.06,0.06 0.12,0.09 0.18,0.1 0.06,0.01 0.12,0 0.17,-0.03 0.05,-0.03 0.09,-0.08 0.12,-0.15 0.03,-0.07 0.04,-0.15 0.03,-0.24 -0.01,-0.08 -0.04,-0.16 -0.09,-0.24 -0.11,-0.17 -0.26,-0.3 -0.47,-0.38zm1.54 0.2c-0.01,0.03 -0.03,0.05 -0.05,0.07 -0.02,0.02 -0.05,0.03 -0.07,0.03 0.05,-0.03 0.08,-0.06 0.1,-0.11 0.02,-0.04 0.03,-0.09 0.03,-0.15 0.02,0.06 0.02,0.11 -0.01,0.17zm-0.29 -0.1c-0.01,-0.03 -0.01,-0.07 -0,-0.1 0.01,-0.03 0.03,-0.05 0.06,-0.06 0.03,-0.01 0.05,-0 0.08,0.01 0.03,0.02 0.05,0.04 0.06,0.08 0.01,0.04 0.01,0.07 0,0.1 -0.01,0.03 -0.03,0.05 -0.06,0.06 -0.03,0.01 -0.05,0 -0.08,-0.01 -0.03,-0.02 -0.05,-0.04 -0.06,-0.08zm-0.24 -1.07c-0.06,0.04 -0.11,0.09 -0.16,0.15 -0.04,0.06 -0.07,0.12 -0.1,0.2l-0.01 0.03 -0.01 0.03 -0.02 0.06 -0.01 0.06 -0.01 0.06c0,-0.08 0.01,-0.16 0.04,-0.23 0.02,-0.08 0.06,-0.15 0.1,-0.21 0.05,-0.07 0.1,-0.12 0.17,-0.15 0.03,-0.02 0.06,-0.03 0.1,-0.04l0.03 -0.01 0.03 -0.01 0.05 -0.01c-0.08,0.02 -0.14,0.05 -0.2,0.08zm0.41 -0.2c-0.28,-0.03 -0.49,0.06 -0.65,0.25 -0.13,0.17 -0.2,0.4 -0.19,0.68 0.01,0.27 0.07,0.51 0.21,0.72 0.14,0.23 0.32,0.36 0.54,0.38 0.21,0.03 0.38,-0.06 0.53,-0.26 0.13,-0.18 0.21,-0.41 0.24,-0.68 0.03,-0.28 -0.01,-0.52 -0.12,-0.72 -0.12,-0.23 -0.31,-0.35 -0.55,-0.38z"/>
  <path class="fil0" d="M23.52 7.08c-0.02,0.02 -0.03,0.04 -0.05,0.07 -0.02,0.04 -0.05,0.1 -0.08,0.17l-0.02 0.04 -0.02 0.04c-0.02,0.03 -0.03,0.06 -0.05,0.08 -0.02,0.03 -0.04,0.05 -0.06,0.07 -0.03,0.02 -0.06,0.03 -0.09,0.03 0.05,-0.01 0.1,-0.05 0.13,-0.11 0.01,-0.02 0.03,-0.05 0.04,-0.08l0.02 -0.04 0.02 -0.04c0.03,-0.07 0.06,-0.13 0.09,-0.17 0.02,-0.03 0.04,-0.06 0.06,-0.07 0.03,-0.02 0.05,-0.03 0.08,-0.04 -0.03,0.01 -0.06,0.02 -0.08,0.05zm-1.02 0.3c-0.02,0.05 -0.05,0.11 -0.06,0.17 -0.01,0.04 -0.03,0.1 -0.04,0.18 -0.01,0.03 -0.01,0.06 -0.02,0.09l-0.01 0.05 -0.01 0.05c0,-0.14 0.02,-0.26 0.05,-0.38 0.02,-0.07 0.04,-0.13 0.07,-0.18 0.02,-0.03 0.04,-0.05 0.06,-0.07 0.02,-0.02 0.05,-0.03 0.08,-0.04 -0.05,0.01 -0.09,0.05 -0.13,0.12zm1.69 0.44c-0.06,-0.28 -0.14,-0.5 -0.25,-0.67 -0.1,-0.15 -0.21,-0.23 -0.32,-0.23 -0.08,0 -0.15,0.04 -0.2,0.1 -0.04,0.05 -0.09,0.15 -0.15,0.28 -0.05,0.12 -0.1,0.18 -0.15,0.17 -0.03,-0 -0.08,-0.04 -0.14,-0.11 -0.07,-0.08 -0.13,-0.14 -0.19,-0.18 -0.07,-0.05 -0.14,-0.06 -0.21,-0.04 -0.18,0.05 -0.29,0.3 -0.32,0.76 -0.02,0.29 -0.01,0.55 0.04,0.78 0.06,0.25 0.15,0.38 0.28,0.39 0.08,0 0.14,-0.03 0.19,-0.09 0.04,-0.05 0.06,-0.13 0.09,-0.23 0.01,-0.03 0.01,-0.08 0.02,-0.13l0.01 -0.03 0 -0.03c0,-0.02 0.01,-0.04 0.01,-0.05 0.01,-0.08 0.03,-0.12 0.05,-0.14 0.02,-0.01 0.03,0 0.05,0.04 0.01,0.01 0.02,0.03 0.03,0.05l0.01 0.01 0.01 0.02 0.02 0.03c0.03,0.05 0.06,0.09 0.09,0.12 0.04,0.03 0.09,0.05 0.14,0.04 0.04,-0.01 0.07,-0.03 0.1,-0.06 0.02,-0.02 0.04,-0.06 0.06,-0.12l0.01 -0.03 0.01 -0.03c0.01,-0.02 0.02,-0.04 0.02,-0.05 0.02,-0.03 0.04,-0.04 0.06,-0.04 0.02,0.01 0.05,0.04 0.08,0.1 0.01,0.01 0.01,0.03 0.02,0.04l0.01 0.02 0.01 0.02c0.02,0.04 0.04,0.08 0.05,0.1 0.05,0.08 0.09,0.14 0.13,0.18 0.06,0.05 0.12,0.07 0.19,0.06 0.12,-0.01 0.18,-0.13 0.2,-0.34 0.01,-0.18 -0.01,-0.44 -0.08,-0.76zm1.51 -0.29c-0.01,0.03 -0.03,0.05 -0.05,0.06 -0.02,0.02 -0.05,0.02 -0.08,0.02 0.05,-0.02 0.08,-0.06 0.11,-0.1 0.02,-0.04 0.03,-0.09 0.03,-0.15 0.02,0.06 0.02,0.11 -0.01,0.17zm-0.26 -0.11c-0.01,-0.03 -0,-0.06 0.01,-0.08 0.01,-0.02 0.03,-0.04 0.05,-0.04 0.02,-0 0.05,0 0.07,0.02 0.02,0.02 0.03,0.04 0.04,0.07 0.01,0.03 0,0.06 -0.01,0.08 -0.01,0.03 -0.03,0.04 -0.05,0.04 -0.02,0 -0.05,-0 -0.07,-0.02 -0.02,-0.02 -0.03,-0.04 -0.04,-0.07zm-0.2 -0.58c-0.05,0.04 -0.09,0.08 -0.12,0.12 -0.03,0.05 -0.05,0.1 -0.06,0.16 -0.01,0.03 -0.01,0.06 -0.01,0.09 -0,0.02 -0,0.05 0,0.09 -0.01,-0.06 -0.02,-0.12 -0.01,-0.19 0.01,-0.06 0.03,-0.12 0.06,-0.17 0.03,-0.05 0.08,-0.09 0.13,-0.12 0.05,-0.03 0.1,-0.05 0.16,-0.06l-0.04 0.02c-0.01,0.01 -0.03,0.01 -0.04,0.02 -0.02,0.01 -0.05,0.02 -0.07,0.04zm-0.13 1.32c-0.04,0.08 -0.05,0.16 -0.06,0.23 -0.01,-0.04 -0.01,-0.08 -0,-0.12 0.01,-0.04 0.02,-0.07 0.03,-0.12 0.02,-0.04 0.04,-0.07 0.06,-0.11 0.02,-0.03 0.04,-0.06 0.07,-0.09l-0.03 0.05 -0.03 0.05c-0.02,0.04 -0.04,0.07 -0.05,0.11zm0.25 -1.51c-0.13,0.04 -0.22,0.1 -0.3,0.19 -0.07,0.08 -0.11,0.18 -0.12,0.29 -0.01,0.11 -0,0.21 0.04,0.32 0.04,0.11 0.1,0.2 0.18,0.28 0.02,0.02 0.02,0.04 0.02,0.06 -0,0.02 -0.02,0.04 -0.04,0.07l-0.01 0.01 -0.01 0.01c-0.01,0.01 -0.01,0.02 -0.02,0.03 -0.02,0.02 -0.03,0.04 -0.04,0.06 -0.03,0.06 -0.06,0.11 -0.08,0.18 -0.03,0.1 -0.04,0.19 -0.03,0.27 0.01,0.07 0.04,0.14 0.09,0.19 0.04,0.05 0.09,0.08 0.15,0.1 0.06,0.02 0.11,0.02 0.16,0 0.11,-0.04 0.19,-0.13 0.23,-0.27 0.01,-0.02 0.01,-0.05 0.02,-0.08l0.01 -0.04 0.01 -0.04c0.01,-0.06 0.02,-0.1 0.04,-0.13 0.02,-0.04 0.05,-0.05 0.06,-0.03 0.03,0.03 0.05,0.11 0.08,0.26 0.02,0.08 0.05,0.14 0.1,0.17 0.05,0.04 0.1,0.05 0.16,0.04 0.06,-0.01 0.11,-0.05 0.16,-0.11 0.05,-0.07 0.08,-0.15 0.1,-0.26 0.02,-0.17 0.02,-0.36 -0.01,-0.56 -0.03,-0.21 -0.09,-0.39 -0.17,-0.56 -0.09,-0.18 -0.19,-0.31 -0.31,-0.4 -0.14,-0.09 -0.29,-0.12 -0.45,-0.07zm1.69 0.6c-0.02,0.03 -0.05,0.05 -0.08,0.07 -0.04,0.02 -0.06,0.04 -0.08,0.06 -0.03,0.03 -0.04,0.06 -0.04,0.09 -0.01,-0.02 -0.01,-0.04 -0,-0.06 0,-0.02 0.01,-0.04 0.03,-0.05 0.02,-0.02 0.05,-0.04 0.09,-0.06 0.03,-0.02 0.06,-0.04 0.08,-0.06 0.03,-0.03 0.05,-0.06 0.06,-0.09 -0,0.04 -0.02,0.07 -0.04,0.1zm-0.26 0.7c-0.05,0 -0.08,0.01 -0.11,0.01 -0.02,0.01 -0.04,0.01 -0.05,0.02 -0.01,0.01 -0.01,0.01 -0.01,0.02l-0 0.02 -0 0.01c-0,-0.01 -0,-0.02 -0,-0.03 -0,-0.01 0,-0.02 0.01,-0.03 0.01,-0.01 0.03,-0.03 0.05,-0.03 0.03,-0.01 0.07,-0.02 0.11,-0.02 0.03,-0 0.07,-0 0.11,-0l0.06 0 0.06 0c-0.03,0.01 -0.07,0.02 -0.11,0.02l-0.06 0 -0.06 0zm-0.12 -1.33c-0.05,0.03 -0.09,0.06 -0.12,0.09 -0.02,0.02 -0.03,0.03 -0.05,0.05 -0.02,0.02 -0.03,0.04 -0.04,0.06 -0.03,0.05 -0.04,0.1 -0.03,0.15 -0.01,-0.02 -0.01,-0.05 -0.01,-0.08 0,-0.03 0.01,-0.05 0.02,-0.08 0.02,-0.04 0.05,-0.08 0.1,-0.13 0.08,-0.07 0.17,-0.12 0.27,-0.15 -0.05,0.02 -0.09,0.05 -0.13,0.08zm0.98 0.86c-0.03,-0.03 -0.06,-0.06 -0.09,-0.08 -0.02,-0.01 -0.05,-0.03 -0.08,-0.04l-0.02 -0.01 -0.01 -0.01c-0.01,-0.01 -0.02,-0.01 -0.02,-0.01 -0.01,-0.01 -0.02,-0.02 -0.03,-0.03 -0,-0.01 0,-0.04 0.02,-0.06 0.01,-0.01 0.02,-0.02 0.03,-0.04l0.01 -0.01 0.01 -0.01 0.02 -0.03c0.03,-0.04 0.05,-0.08 0.07,-0.12 0.02,-0.05 0.03,-0.11 0.03,-0.16 -0,-0.14 -0.05,-0.25 -0.14,-0.34 -0.1,-0.09 -0.23,-0.13 -0.39,-0.14 -0.08,-0 -0.17,0.02 -0.27,0.05 -0.09,0.03 -0.18,0.08 -0.26,0.14 -0.08,0.06 -0.14,0.13 -0.18,0.2 -0.04,0.08 -0.05,0.16 -0.03,0.24 0.06,0.2 0.22,0.23 0.5,0.1 0.05,-0.02 0.09,-0.03 0.12,-0.03 0.03,-0 0.04,0.01 0.05,0.02 0.01,0.01 0,0.03 -0.01,0.05 -0.02,0.02 -0.04,0.04 -0.08,0.06 -0.13,0.07 -0.18,0.16 -0.16,0.27 0.01,0.05 0.04,0.1 0.08,0.13 0.04,0.03 0.1,0.04 0.16,0.03 0.06,-0.01 0.1,0 0.12,0.04 0.01,0.02 0.01,0.03 0.01,0.05 -0,0.02 -0.01,0.04 -0.03,0.05 -0.03,0.02 -0.08,0.03 -0.15,0.04 -0.01,0 -0.03,0 -0.05,0l-0.05 0c-0.04,0 -0.07,0 -0.1,0.01 -0.07,0.01 -0.13,0.02 -0.17,0.05 -0.04,0.04 -0.06,0.09 -0.06,0.16 0.01,0.09 0.06,0.16 0.15,0.23 0.09,0.06 0.19,0.1 0.32,0.13 0.13,0.02 0.25,0.02 0.37,-0.01 0.13,-0.03 0.23,-0.09 0.3,-0.17 0.1,-0.12 0.14,-0.25 0.13,-0.41 -0.01,-0.14 -0.06,-0.25 -0.15,-0.35zm1.13 0.06c-0.01,0.03 -0.03,0.05 -0.05,0.07 -0.02,0.02 -0.05,0.03 -0.08,0.02 0.05,-0.02 0.09,-0.05 0.11,-0.1 0.01,-0.02 0.01,-0.05 0.02,-0.08 0,-0.03 -0,-0.05 -0.01,-0.08 0.02,0.03 0.02,0.05 0.03,0.08 0,0.03 -0,0.06 -0.01,0.09zm-0.25 -0.07c-0.02,-0.03 -0.03,-0.05 -0.03,-0.08 -0,-0.03 0.01,-0.05 0.02,-0.06 0.02,-0.01 0.04,-0.01 0.06,-0.01 0.02,0.01 0.05,0.03 0.06,0.05 0.02,0.03 0.03,0.05 0.03,0.08 0,0.03 -0.01,0.05 -0.02,0.06 -0.02,0.01 -0.04,0.02 -0.06,0.01 -0.02,-0.01 -0.05,-0.03 -0.06,-0.05zm-0.31 -1.15c-0.01,0.01 -0.03,0.03 -0.05,0.05 -0.03,0.03 -0.05,0.07 -0.07,0.11 -0.02,0.03 -0.04,0.07 -0.06,0.13 -0.01,0.02 -0.02,0.04 -0.03,0.07l-0.02 0.07c0.01,-0.06 0.02,-0.1 0.03,-0.14 0.01,-0.05 0.03,-0.09 0.05,-0.13 0.02,-0.05 0.05,-0.09 0.08,-0.12 0.04,-0.04 0.08,-0.06 0.12,-0.06 -0.02,0.01 -0.04,0.02 -0.06,0.03zm0.45 0.63c-0.05,-0.01 -0.08,-0.03 -0.1,-0.06 -0.01,-0.03 -0.02,-0.07 -0.02,-0.13 0,-0.01 0,-0.02 0,-0.04l0 -0.04c0,-0.04 0,-0.07 0,-0.09 -0,-0.07 -0.01,-0.14 -0.02,-0.19 -0.02,-0.08 -0.06,-0.14 -0.11,-0.17 -0.05,-0.04 -0.11,-0.05 -0.17,-0.03 -0.07,0.02 -0.13,0.07 -0.19,0.15 -0.07,0.09 -0.12,0.22 -0.16,0.38 -0.04,0.16 -0.06,0.34 -0.05,0.52 0.01,0.19 0.05,0.36 0.11,0.51 0.07,0.16 0.16,0.28 0.28,0.36 0.13,0.09 0.28,0.12 0.46,0.08 0.16,-0.03 0.29,-0.1 0.38,-0.23 0.08,-0.11 0.12,-0.24 0.12,-0.39 -0,-0.15 -0.05,-0.28 -0.14,-0.39 -0.1,-0.12 -0.23,-0.19 -0.39,-0.22zm0.44 -0.74c-0.01,0.02 -0.02,0.04 -0.02,0.06 -0,0.02 -0,0.04 -0,0.07 0,0.03 0.01,0.08 0.03,0.14l0.02 0.07 0.02 0.07c-0.03,-0.05 -0.05,-0.09 -0.06,-0.13 -0.02,-0.05 -0.04,-0.1 -0.04,-0.14 -0,-0.03 -0,-0.05 0,-0.08 0.01,-0.03 0.02,-0.05 0.03,-0.07 0.03,-0.03 0.07,-0.05 0.12,-0.06 -0.05,0.01 -0.08,0.04 -0.11,0.07zm0.47 0.01c-0.05,-0.07 -0.11,-0.12 -0.17,-0.15 -0.06,-0.03 -0.12,-0.04 -0.18,-0.04 -0.06,0 -0.11,0.02 -0.15,0.06 -0.04,0.03 -0.07,0.08 -0.09,0.13 -0.03,0.09 -0,0.22 0.07,0.39 0.01,0.03 0.03,0.06 0.05,0.1l0.02 0.05 0.02 0.05c0.04,0.08 0.06,0.15 0.08,0.21 0.04,0.13 0.07,0.27 0.09,0.42 0.01,0.05 0.01,0.1 0.02,0.16l0 0.04 0 0.04c0,0.03 0.01,0.05 0.01,0.07 0.01,0.09 0.03,0.15 0.04,0.19 0.02,0.04 0.06,0.07 0.11,0.07 0.1,0.01 0.17,-0.06 0.23,-0.2 0.05,-0.13 0.07,-0.3 0.08,-0.51 0,-0.21 -0.02,-0.4 -0.06,-0.6 -0.04,-0.2 -0.1,-0.36 -0.17,-0.46zm1.11 0.02c-0.03,0.05 -0.05,0.1 -0.08,0.14 -0.04,0.05 -0.07,0.08 -0.11,0.11 0.03,-0.03 0.06,-0.07 0.1,-0.12 0.03,-0.04 0.05,-0.09 0.08,-0.14 0.01,-0.02 0.02,-0.05 0.03,-0.07l0.01 -0.02 0.01 -0.02c0.01,-0.02 0.01,-0.03 0.02,-0.04 0.01,-0.02 0.03,-0.04 0.05,-0.06 0.02,-0.02 0.05,-0.03 0.07,-0.03 -0.04,0.01 -0.08,0.04 -0.11,0.1 -0,0.01 -0.01,0.02 -0.02,0.04l-0.01 0.02 -0.01 0.02c-0.01,0.02 -0.02,0.05 -0.03,0.07zm-0.56 -0.23c-0.02,0.01 -0.03,0.03 -0.04,0.06 -0.02,0.03 -0.03,0.08 -0.05,0.14 -0.01,0.04 -0.02,0.08 -0.02,0.15l-0.01 0.08 -0.01 0.07c-0,-0.06 -0.01,-0.11 -0,-0.15 0,-0.05 0.01,-0.1 0.02,-0.15 0.01,-0.06 0.03,-0.11 0.05,-0.14 0.01,-0.02 0.03,-0.04 0.05,-0.06 0.02,-0.02 0.04,-0.02 0.07,-0.03 -0.02,0.01 -0.04,0.02 -0.06,0.04zm0.71 0.72c-0.04,-0.02 -0.05,-0.03 -0.03,-0.05 0.01,-0.01 0.02,-0.02 0.04,-0.03l0.01 -0.01 0.01 -0.01c0.01,-0.01 0.02,-0.02 0.03,-0.02 0.06,-0.04 0.11,-0.09 0.14,-0.14 0.05,-0.07 0.08,-0.15 0.09,-0.23 0.01,-0.08 -0,-0.15 -0.04,-0.22 -0.03,-0.06 -0.08,-0.1 -0.14,-0.12 -0.06,-0.02 -0.12,-0.02 -0.17,0.01 -0.06,0.03 -0.11,0.09 -0.15,0.17 -0.06,0.14 -0.12,0.24 -0.18,0.3 -0.03,0.02 -0.04,0.03 -0.06,0.03 -0.01,-0.01 -0.01,-0.03 -0,-0.07 0.04,-0.15 0.04,-0.27 0,-0.35 -0.03,-0.07 -0.08,-0.11 -0.16,-0.12 -0.15,-0.01 -0.26,0.08 -0.3,0.29 -0.04,0.17 -0.04,0.4 -0.01,0.71 0.03,0.31 0.08,0.55 0.16,0.73 0.09,0.22 0.2,0.31 0.34,0.28 0.13,-0.03 0.18,-0.14 0.17,-0.34 -0,-0.07 -0.02,-0.14 -0.04,-0.23 -0.01,-0.03 -0.02,-0.06 -0.02,-0.09 -0,-0.01 -0.01,-0.02 -0.01,-0.03l-0 -0.01 -0 -0.01 -0 -0c-0.01,-0.03 -0.01,-0.04 0,-0.05 0.01,-0.01 0.02,-0.01 0.04,0 0.05,0.04 0.12,0.14 0.19,0.3 0.04,0.11 0.1,0.19 0.16,0.25 0.06,0.06 0.12,0.09 0.18,0.1 0.06,0.01 0.12,0 0.17,-0.03 0.05,-0.03 0.09,-0.08 0.12,-0.15 0.03,-0.07 0.04,-0.15 0.03,-0.24 -0.01,-0.08 -0.04,-0.16 -0.09,-0.24 -0.11,-0.17 -0.26,-0.3 -0.47,-0.38zm1.54 0.25l-0.02 0.01c-0.02,0.01 -0.03,0.01 -0.04,0.02 -0.03,0.01 -0.06,0.02 -0.08,0.02 0.03,-0.01 0.05,-0.02 0.07,-0.04l0.02 -0.01 0.02 -0.01c0.01,-0.01 0.03,-0.02 0.04,-0.02 0.03,-0.02 0.05,-0.03 0.08,-0.03 0.03,-0.01 0.06,-0.01 0.08,-0.01 -0.04,0.02 -0.09,0.04 -0.15,0.07l-0.02 0.01zm-0.59 -1.25c-0.04,0.02 -0.07,0.04 -0.1,0.06 -0.03,0.03 -0.06,0.06 -0.08,0.09 -0.02,0.03 -0.04,0.07 -0.05,0.11 -0.02,0.07 -0.04,0.15 -0.04,0.25 -0,0.04 -0,0.08 -0,0.13 -0,0.02 -0,0.04 0,0.06l0 0.07c-0.01,-0.09 -0.02,-0.18 -0.02,-0.26 0,-0.1 0.02,-0.18 0.04,-0.26 0.02,-0.05 0.03,-0.09 0.06,-0.12 0.03,-0.04 0.06,-0.07 0.09,-0.09 0.03,-0.02 0.07,-0.04 0.11,-0.06 0.04,-0.02 0.08,-0.02 0.12,-0.03 -0.04,0.01 -0.08,0.02 -0.11,0.04zm0.37 0.71l0.01 -0c0.01,-0 0.02,-0.01 0.02,-0.01 0.02,-0.01 0.03,-0.01 0.05,-0.01 0.02,0 0.03,0.01 0.04,0.02 -0.01,-0 -0.02,-0 -0.04,0 -0.01,0 -0.03,0.01 -0.04,0.01l-0.01 0 -0.01 0c-0.01,0 -0.02,0.01 -0.02,0.01 -0.02,0 -0.03,0 -0.05,0l0.02 -0.01 0.02 -0.01 0.01 -0.01zm0.13 0.45c-0.04,0.03 -0.08,0.04 -0.11,0.03 -0.03,-0.01 -0.05,-0.02 -0.06,-0.05 -0.01,-0.03 -0.01,-0.05 -0,-0.08 0.01,-0.03 0.03,-0.05 0.06,-0.06 0.09,-0.02 0.15,-0.06 0.19,-0.11 0.03,-0.05 0.05,-0.1 0.03,-0.16 -0.01,-0.06 -0.05,-0.1 -0.1,-0.12 -0.05,-0.02 -0.11,-0.02 -0.18,0.01 -0.05,0.03 -0.09,0.01 -0.12,-0.03 -0.01,-0.02 -0.01,-0.04 -0.01,-0.06 0,-0.02 0.01,-0.04 0.03,-0.06 0.02,-0.02 0.06,-0.04 0.1,-0.06 0.02,-0.01 0.04,-0.01 0.07,-0.02l0.03 -0.01 0.04 -0.01c0.06,-0.01 0.1,-0.03 0.13,-0.05 0.04,-0.03 0.07,-0.06 0.08,-0.11 0.02,-0.08 -0.01,-0.15 -0.08,-0.22 -0.06,-0.06 -0.15,-0.11 -0.26,-0.13 -0.12,-0.02 -0.23,-0.02 -0.33,0.01 -0.12,0.04 -0.22,0.11 -0.29,0.21 -0.07,0.09 -0.11,0.23 -0.12,0.42 -0.01,0.17 0,0.35 0.04,0.55 0.04,0.19 0.1,0.36 0.17,0.51 0.08,0.16 0.16,0.26 0.25,0.3 0.09,0.04 0.19,0.05 0.31,0.03 0.11,-0.02 0.21,-0.07 0.31,-0.14 0.1,-0.07 0.18,-0.14 0.23,-0.23 0.06,-0.09 0.08,-0.18 0.07,-0.26 -0.02,-0.11 -0.07,-0.17 -0.15,-0.19 -0.09,-0.02 -0.2,0.01 -0.34,0.09z"/>
  <path class="fil0" d="M35.96 3.57l-0.24 -1.32 0.32 -0.06c0.2,0.78 0.74,1.28 1.47,1.15 0.74,-0.13 1.18,-0.78 0.99,-1.85 -0.14,-0.8 -0.67,-1.49 -1.51,-1.34 -0.71,0.13 -1.07,0.78 -1.03,1.53l-0.34 0.06 -0.22 -1.26 -0.53 0.09 0.55 3.09 0.53 -0.09zm1.5 -0.71c-0.5,0.09 -0.82,-0.4 -0.92,-0.98 -0.11,-0.6 0.04,-1.16 0.53,-1.25 0.49,-0.09 0.81,0.39 0.91,0.98 0.11,0.64 -0.05,1.17 -0.51,1.25z"/>
 </g>
</svg>
