<?xml version="1.0" encoding="UTF-8"?>
<!DOCTYPE svg PUBLIC "-//W3C//DTD SVG 1.1//EN" "http://www.w3.org/Graphics/SVG/1.1/DTD/svg11.dtd">
<!-- Creator: CorelDRAW -->
<svg xmlns="http://www.w3.org/2000/svg" xml:space="preserve" width="19.9567mm" height="12.2419mm" version="1.1" style="shape-rendering:geometricPrecision; text-rendering:geometricPrecision; image-rendering:optimizeQuality; fill-rule:evenodd; clip-rule:evenodd"
viewBox="0 0 30.2 18.53"
 xmlns:xlink="http://www.w3.org/1999/xlink"
 xmlns:xodm="http://www.corel.com/coreldraw/odm/2003">
 <defs>
  <style type="text/css">
   <![CDATA[
    .fil0 {fill:#656554;fill-rule:nonzero}
   ]]>
  </style>
 </defs>
 <g id="Слой_x0020_1">
  <metadata id="CorelCorpID_0Corel-Layer"/>
  <path class="fil0" d="M0.05 0l0.56 0c0.23,0 0.4,0.03 0.52,0.08 0.12,0.05 0.22,0.14 0.29,0.25 0.07,0.11 0.11,0.24 0.11,0.37 0,0.13 -0.03,0.24 -0.09,0.35 -0.06,0.1 -0.15,0.19 -0.27,0.25 0.15,0.05 0.26,0.11 0.34,0.18 0.08,0.07 0.14,0.15 0.19,0.25 0.04,0.1 0.07,0.2 0.07,0.31 0,0.23 -0.08,0.42 -0.25,0.58 -0.17,0.16 -0.39,0.24 -0.67,0.24l-0.78 0 0 -2.86zm0.28 0.28l0 0.92 0.16 0c0.2,0 0.34,-0.02 0.44,-0.06 0.09,-0.04 0.17,-0.1 0.22,-0.18 0.05,-0.08 0.08,-0.17 0.08,-0.27 0,-0.13 -0.05,-0.23 -0.14,-0.31 -0.09,-0.07 -0.24,-0.11 -0.44,-0.11l-0.33 0zm0 1.2l0 1.1 0.35 0c0.21,0 0.36,-0.02 0.46,-0.06 0.1,-0.04 0.17,-0.11 0.23,-0.19 0.06,-0.09 0.09,-0.18 0.09,-0.28 0,-0.13 -0.04,-0.24 -0.12,-0.33 -0.08,-0.09 -0.2,-0.16 -0.34,-0.19 -0.1,-0.02 -0.27,-0.04 -0.51,-0.04l-0.16 0z"/>
  <polygon id="_1" class="fil0" points="2.05,0.74 2.33,0.74 3.05,2.37 3.76,0.74 4.05,0.74 2.79,3.63 2.5,3.63 2.91,2.69 "/>
  <polygon id="_2" class="fil0" points="4.66,0.74 4.66,2.31 6.21,0.74 6.23,0.74 6.23,2.86 5.96,2.86 5.96,1.3 4.43,2.86 4.39,2.86 4.39,0.74 "/>
  <path id="_3" class="fil0" d="M7.19 1.63l0.14 0c0.09,0 0.17,-0.03 0.25,-0.09 0.08,-0.06 0.11,-0.14 0.11,-0.26 0,-0.09 -0.03,-0.18 -0.09,-0.24 -0.06,-0.07 -0.15,-0.1 -0.28,-0.1 -0.15,0 -0.3,0.06 -0.44,0.17l-0.15 -0.19c0.19,-0.16 0.39,-0.24 0.61,-0.24 0.18,0 0.32,0.05 0.44,0.16 0.12,0.1 0.18,0.24 0.18,0.4 0,0.22 -0.1,0.37 -0.29,0.45 0.25,0.11 0.38,0.29 0.38,0.56 0,0.17 -0.06,0.32 -0.18,0.46 -0.12,0.14 -0.3,0.2 -0.53,0.2 -0.29,0 -0.52,-0.09 -0.7,-0.28l0.17 -0.19c0.13,0.15 0.3,0.22 0.51,0.22 0.14,0 0.25,-0.04 0.32,-0.11 0.08,-0.07 0.12,-0.17 0.12,-0.29 0,-0.12 -0.04,-0.21 -0.12,-0.28 -0.08,-0.07 -0.17,-0.11 -0.28,-0.11l-0.17 0 0 -0.24z"/>
  <polygon id="_4" class="fil0" points="9.87,0.98 9.87,2.86 9.6,2.86 9.6,0.74 10.67,0.74 10.67,0.98 "/>
  <polygon id="_5" class="fil0" points="10.8,0.74 11.09,0.74 11.81,2.37 12.52,0.74 12.8,0.74 11.55,3.63 11.26,3.63 11.67,2.69 "/>
  <polygon id="_6" class="fil0" points="14.23,0.74 14.5,0.74 14.5,1.68 15.51,0.74 15.84,0.74 14.85,1.68 15.91,2.86 15.56,2.86 14.66,1.84 14.5,1.97 14.5,2.86 14.23,2.86 14.23,1.97 14.08,1.84 13.18,2.86 12.83,2.86 13.89,1.69 12.91,0.74 13.24,0.74 14.23,1.67 "/>
  <path id="_7" class="fil0" d="M17.97 2.16l0.23 0.12c-0.08,0.15 -0.16,0.27 -0.26,0.36 -0.1,0.09 -0.21,0.16 -0.33,0.21 -0.12,0.05 -0.26,0.07 -0.42,0.07 -0.34,0 -0.61,-0.11 -0.81,-0.34 -0.19,-0.23 -0.29,-0.48 -0.29,-0.76 0,-0.27 0.08,-0.51 0.25,-0.72 0.21,-0.27 0.49,-0.4 0.84,-0.4 0.36,0 0.65,0.14 0.86,0.41 0.15,0.19 0.23,0.43 0.23,0.72l-1.9 0c0.01,0.25 0.08,0.45 0.23,0.6 0.15,0.16 0.34,0.23 0.56,0.23 0.11,0 0.21,-0.02 0.31,-0.06 0.1,-0.04 0.19,-0.09 0.26,-0.15 0.07,-0.06 0.15,-0.16 0.23,-0.3zm0 -0.57c-0.04,-0.15 -0.09,-0.26 -0.16,-0.35 -0.07,-0.09 -0.16,-0.16 -0.28,-0.21 -0.11,-0.05 -0.23,-0.08 -0.36,-0.08 -0.21,0 -0.39,0.07 -0.53,0.2 -0.11,0.1 -0.19,0.24 -0.25,0.44l1.58 0z"/>
  <polygon id="_8" class="fil0" points="21.06,0.74 21.13,0.74 21.84,2.86 21.56,2.86 21.04,1.31 20.23,2.86 20.18,2.86 19.37,1.3 18.85,2.86 18.57,2.86 19.29,0.74 19.36,0.74 20.21,2.4 "/>
  <polygon id="_9" class="fil0" points="22.52,2.33 22.78,2.46 22.39,3.19 22.19,3.11 "/>
  <polygon id="_10" class="fil0" points="3.14,7.82 -0,7.82 -0,5.71 0.27,5.71 0.27,7.57 1.43,7.57 1.43,5.71 1.71,5.71 1.71,7.57 2.87,7.57 2.87,5.71 3.14,5.71 "/>
  <polygon id="_11" class="fil0" points="3.52,5.71 3.8,5.71 4.52,7.33 5.23,5.71 5.52,5.71 4.26,8.6 3.97,8.6 4.39,7.65 "/>
  <polygon id="_12" class="fil0" points="7.36,6.8 6.13,6.8 6.13,7.82 5.87,7.82 5.87,5.71 6.13,5.71 6.13,6.55 7.36,6.55 7.36,5.71 7.63,5.71 7.63,7.82 7.36,7.82 "/>
  <path id="_13" class="fil0" d="M8.25 7.59l0.81 -1.88 0.14 0 0.81 1.88 0.25 0 0 0.5 -0.26 0 0 -0.27 -1.74 0 0 0.28 -0.27 0 0 -0.51 0.26 0zm0.88 -1.46l-0.61 1.46 1.2 0 -0.59 -1.46z"/>
  <path id="_14" class="fil0" d="M10.89 6.55l0.26 0c0.21,0 0.37,0.02 0.48,0.05 0.12,0.03 0.22,0.1 0.3,0.22 0.08,0.11 0.13,0.24 0.13,0.38 0,0.17 -0.06,0.32 -0.18,0.45 -0.12,0.12 -0.3,0.19 -0.55,0.19l-0.7 0 0 -2.11 0.27 0 0 0.84zm0.01 0.25l0 0.8 0.31 0c0.37,0 0.55,-0.13 0.55,-0.39 0,-0.07 -0.02,-0.15 -0.06,-0.22 -0.04,-0.07 -0.1,-0.12 -0.17,-0.15 -0.08,-0.03 -0.21,-0.04 -0.4,-0.04l-0.23 0zm1.53 -1.09l0.27 0 0 2.11 -0.27 0 0 -2.11z"/>
  <polygon id="_15" class="fil0" points="14.38,5.71 16.14,5.71 16.14,7.82 15.87,7.82 15.87,5.96 14.65,5.96 14.65,7.82 14.38,7.82 "/>
  <polygon id="_16" class="fil0" points="17.01,5.71 17.01,7.28 18.56,5.71 18.58,5.71 18.58,7.82 18.31,7.82 18.31,6.27 16.78,7.82 16.75,7.82 16.75,5.71 "/>
  <polygon id="_17" class="fil0" points="22.33,7.82 19.18,7.82 19.18,5.71 19.45,5.71 19.45,7.57 20.62,7.57 20.62,5.71 20.89,5.71 20.89,7.57 22.05,7.57 22.05,5.71 22.33,5.71 "/>
  <polygon id="_18" class="fil0" points="22.69,5.71 24.08,5.71 24.08,5.94 23.52,5.94 23.52,7.82 23.25,7.82 23.25,5.94 22.69,5.94 "/>
  <path id="_19" class="fil0" d="M26.21 6.84c-0.03,0.24 -0.12,0.43 -0.29,0.57 -0.17,0.14 -0.37,0.21 -0.6,0.21 -0.31,0 -0.56,-0.12 -0.76,-0.37l-0.21 0.14c0.1,0.16 0.24,0.28 0.42,0.36 0.18,0.08 0.37,0.12 0.57,0.12 0.34,0 0.62,-0.11 0.84,-0.32 0.22,-0.22 0.32,-0.47 0.32,-0.77 0,-0.31 -0.11,-0.58 -0.33,-0.8 -0.22,-0.22 -0.51,-0.33 -0.85,-0.33 -0.2,0 -0.39,0.04 -0.57,0.13 -0.18,0.09 -0.31,0.21 -0.4,0.36l0.21 0.13c0.19,-0.25 0.44,-0.37 0.76,-0.37 0.23,0 0.42,0.07 0.58,0.2 0.16,0.13 0.27,0.3 0.31,0.5l-0.94 0 0 0.24 0.94 0z"/>
  <path id="_20" class="fil0" d="M27.28 7.39c0.07,0 0.12,0.02 0.17,0.07 0.05,0.05 0.07,0.1 0.07,0.17 0,0.07 -0.02,0.12 -0.07,0.17 -0.05,0.05 -0.1,0.07 -0.17,0.07 -0.07,0 -0.12,-0.02 -0.17,-0.07 -0.05,-0.05 -0.07,-0.1 -0.07,-0.17 0,-0.07 0.02,-0.12 0.07,-0.17 0.05,-0.05 0.1,-0.07 0.17,-0.07z"/>
  <polygon id="_21" class="fil0" points="0.04,9.93 0.33,9.93 0.33,11 1.47,9.93 1.85,9.93 0.48,11.21 1.96,12.79 1.58,12.79 0.33,11.45 0.33,12.79 0.04,12.79 "/>
  <polygon id="_22" class="fil0" points="2.11,10.67 2.39,10.67 3.12,12.3 3.82,10.67 4.11,10.67 2.86,13.56 2.57,13.56 2.98,12.62 "/>
  <path id="_23" class="fil0" d="M4.81 11.56l0.14 0c0.09,0 0.17,-0.03 0.25,-0.09 0.08,-0.06 0.11,-0.14 0.11,-0.26 0,-0.09 -0.03,-0.18 -0.09,-0.24 -0.06,-0.07 -0.15,-0.1 -0.28,-0.1 -0.15,0 -0.3,0.06 -0.44,0.17l-0.15 -0.19c0.19,-0.16 0.39,-0.24 0.61,-0.24 0.18,0 0.32,0.05 0.44,0.16 0.12,0.1 0.18,0.24 0.18,0.4 0,0.22 -0.1,0.37 -0.29,0.45 0.25,0.11 0.38,0.29 0.38,0.56 0,0.17 -0.06,0.32 -0.18,0.46 -0.12,0.14 -0.3,0.2 -0.53,0.2 -0.29,0 -0.52,-0.09 -0.7,-0.28l0.17 -0.19c0.13,0.15 0.3,0.22 0.51,0.22 0.14,0 0.25,-0.04 0.32,-0.11 0.08,-0.07 0.12,-0.17 0.12,-0.29 0,-0.12 -0.04,-0.21 -0.12,-0.28 -0.08,-0.07 -0.17,-0.11 -0.28,-0.11l-0.17 0 0 -0.24z"/>
  <path id="_24" class="fil0" d="M6.4 11.51l0.26 0c0.21,0 0.37,0.02 0.48,0.05 0.12,0.03 0.22,0.1 0.3,0.22 0.08,0.11 0.13,0.24 0.13,0.38 0,0.17 -0.06,0.32 -0.18,0.45 -0.12,0.12 -0.3,0.19 -0.55,0.19l-0.7 0 0 -2.11 0.27 0 0 0.84zm0.01 0.25l0 0.8 0.31 0c0.37,0 0.55,-0.13 0.55,-0.39 0,-0.07 -0.02,-0.15 -0.06,-0.22 -0.04,-0.07 -0.1,-0.12 -0.17,-0.15 -0.08,-0.03 -0.21,-0.04 -0.4,-0.04l-0.23 0z"/>
  <path id="_25" class="fil0" d="M8.27 11.51l0.26 0c0.21,0 0.37,0.02 0.48,0.05 0.12,0.03 0.22,0.1 0.3,0.22 0.08,0.11 0.13,0.24 0.13,0.38 0,0.17 -0.06,0.32 -0.18,0.45 -0.12,0.12 -0.3,0.19 -0.55,0.19l-0.7 0 0 -2.11 0.27 0 0 0.84zm0.01 0.25l0 0.8 0.31 0c0.37,0 0.55,-0.13 0.55,-0.39 0,-0.07 -0.02,-0.15 -0.06,-0.22 -0.04,-0.07 -0.1,-0.12 -0.17,-0.15 -0.08,-0.03 -0.21,-0.04 -0.4,-0.04l-0.23 0zm1.53 -1.09l0.27 0 0 2.11 -0.27 0 0 -2.11z"/>
  <polygon id="_26" class="fil0" points="12.94,10.67 13.02,10.67 13.73,12.79 13.45,12.79 12.93,11.24 12.12,12.79 12.07,12.79 11.26,11.23 10.74,12.79 10.45,12.79 11.17,10.67 11.25,10.67 12.09,12.33 "/>
  <polygon id="_27" class="fil0" points="14.99,10.67 16.38,10.67 16.38,10.91 15.82,10.91 15.82,12.79 15.55,12.79 15.55,10.91 14.99,10.91 "/>
  <polygon id="_28" class="fil0" points="17.01,10.67 17.01,12.24 18.56,10.67 18.58,10.67 18.58,12.79 18.31,12.79 18.31,11.24 16.78,12.79 16.74,12.79 16.74,10.67 "/>
  <polygon id="_29" class="fil0" points="20.96,12.79 20.68,12.79 19.97,11.25 19.27,12.79 18.98,12.79 19.94,10.67 19.99,10.67 "/>
  <path id="_30" class="fil0" d="M23.15 12.09l0.23 0.12c-0.08,0.15 -0.16,0.27 -0.26,0.36 -0.1,0.09 -0.21,0.16 -0.33,0.21 -0.12,0.05 -0.26,0.07 -0.42,0.07 -0.34,0 -0.61,-0.11 -0.81,-0.34 -0.19,-0.23 -0.29,-0.48 -0.29,-0.76 0,-0.27 0.08,-0.51 0.25,-0.72 0.21,-0.27 0.49,-0.4 0.84,-0.4 0.36,0 0.65,0.14 0.86,0.41 0.15,0.19 0.23,0.43 0.23,0.72l-1.9 0c0.01,0.25 0.08,0.45 0.23,0.6 0.15,0.16 0.34,0.23 0.56,0.23 0.11,0 0.21,-0.02 0.31,-0.06 0.1,-0.04 0.19,-0.09 0.26,-0.15 0.07,-0.06 0.15,-0.16 0.23,-0.3zm0 -0.57c-0.04,-0.15 -0.09,-0.26 -0.16,-0.35 -0.07,-0.09 -0.16,-0.16 -0.28,-0.21 -0.11,-0.05 -0.23,-0.08 -0.36,-0.08 -0.21,0 -0.39,0.07 -0.53,0.2 -0.11,0.1 -0.19,0.24 -0.25,0.44l1.58 0z"/>
  <path id="_31" class="fil0" d="M23.97 12.56l0.81 -1.88 0.14 0 0.81 1.88 0.25 0 0 0.5 -0.26 0 0 -0.27 -1.74 0 0 0.28 -0.27 0 0 -0.51 0.26 0zm0.88 -1.46l-0.61 1.46 1.2 0 -0.59 -1.46z"/>
  <path id="_32" class="fil0" d="M26.61 11.51l0.26 0c0.21,0 0.37,0.02 0.48,0.05 0.12,0.03 0.22,0.1 0.3,0.22 0.08,0.11 0.13,0.24 0.13,0.38 0,0.17 -0.06,0.32 -0.18,0.45 -0.12,0.12 -0.3,0.19 -0.55,0.19l-0.7 0 0 -2.11 0.27 0 0 0.84zm0.01 0.25l0 0.8 0.31 0c0.37,0 0.55,-0.13 0.55,-0.39 0,-0.07 -0.02,-0.15 -0.06,-0.22 -0.04,-0.07 -0.1,-0.12 -0.17,-0.15 -0.08,-0.03 -0.21,-0.04 -0.4,-0.04l-0.23 0zm1.53 -1.09l0.27 0 0 2.11 -0.27 0 0 -2.11z"/>
  <path id="_33" class="fil0" d="M29.35 11.56l0.14 0c0.09,0 0.17,-0.03 0.25,-0.09 0.08,-0.06 0.11,-0.14 0.11,-0.26 0,-0.09 -0.03,-0.18 -0.09,-0.24 -0.06,-0.07 -0.15,-0.1 -0.28,-0.1 -0.15,0 -0.3,0.06 -0.44,0.17l-0.15 -0.19c0.19,-0.16 0.39,-0.24 0.61,-0.24 0.18,0 0.32,0.05 0.44,0.16 0.12,0.1 0.18,0.24 0.18,0.4 0,0.22 -0.1,0.37 -0.29,0.45 0.25,0.11 0.38,0.29 0.38,0.56 0,0.17 -0.06,0.32 -0.18,0.46 -0.12,0.14 -0.3,0.2 -0.53,0.2 -0.29,0 -0.52,-0.09 -0.7,-0.28l0.17 -0.19c0.13,0.15 0.3,0.22 0.51,0.22 0.14,0 0.25,-0.04 0.32,-0.11 0.08,-0.07 0.12,-0.17 0.12,-0.29 0,-0.12 -0.04,-0.21 -0.12,-0.28 -0.08,-0.07 -0.17,-0.11 -0.28,-0.11l-0.17 0 0 -0.24z"/>
  <polygon id="_34" class="fil0" points="3.14,17.75 -0,17.75 -0,15.64 0.27,15.64 0.27,17.5 1.43,17.5 1.43,15.64 1.71,15.64 1.71,17.5 2.87,17.5 2.87,15.64 3.14,15.64 "/>
  <polygon id="_35" class="fil0" points="3.52,15.64 3.8,15.64 4.52,17.26 5.23,15.64 5.52,15.64 4.26,18.53 3.97,18.53 4.39,17.58 "/>
  <path id="_36" class="fil0" d="M5.88 17.52l0.81 -1.88 0.14 0 0.81 1.88 0.25 0 0 0.5 -0.26 0 0 -0.27 -1.74 0 0 0.28 -0.27 0 0 -0.51 0.26 0zm0.88 -1.46l-0.61 1.46 1.2 0 -0.59 -1.46z"/>
  <path id="_37" class="fil0" d="M8.53 16.48l0.26 0c0.21,0 0.37,0.02 0.48,0.05 0.12,0.03 0.22,0.1 0.3,0.22 0.08,0.11 0.13,0.24 0.13,0.38 0,0.17 -0.06,0.32 -0.18,0.45 -0.12,0.12 -0.3,0.19 -0.55,0.19l-0.7 0 0 -2.11 0.27 0 0 0.84zm0.01 0.25l0 0.8 0.31 0c0.37,0 0.55,-0.13 0.55,-0.39 0,-0.07 -0.02,-0.15 -0.06,-0.22 -0.04,-0.07 -0.1,-0.12 -0.17,-0.15 -0.08,-0.03 -0.21,-0.04 -0.4,-0.04l-0.23 0zm1.53 -1.09l0.27 0 0 2.11 -0.27 0 0 -2.11z"/>
  <polygon id="_38" class="fil0" points="12.41,16.74 11.18,16.74 11.18,17.75 10.91,17.75 10.91,15.64 11.18,15.64 11.18,16.48 12.41,16.48 12.41,15.64 12.68,15.64 12.68,17.75 12.41,17.75 "/>
  <path id="_39" class="fil0" d="M13.55 16.48l0.26 0c0.21,0 0.37,0.02 0.48,0.05 0.12,0.03 0.22,0.1 0.3,0.22 0.08,0.11 0.13,0.24 0.13,0.38 0,0.17 -0.06,0.32 -0.18,0.45 -0.12,0.12 -0.3,0.19 -0.55,0.19l-0.7 0 0 -2.11 0.27 0 0 0.84zm0.01 0.25l0 0.8 0.31 0c0.37,0 0.55,-0.13 0.55,-0.39 0,-0.07 -0.02,-0.15 -0.06,-0.22 -0.04,-0.07 -0.1,-0.12 -0.17,-0.15 -0.08,-0.03 -0.21,-0.04 -0.4,-0.04l-0.23 0zm1.53 -1.09l0.27 0 0 2.11 -0.27 0 0 -2.11z"/>
  <path id="_40" class="fil0" d="M18.03 15.59c0.32,0 0.59,0.12 0.81,0.35 0.19,0.21 0.29,0.47 0.29,0.76 0,0.29 -0.1,0.55 -0.31,0.77 -0.2,0.22 -0.47,0.33 -0.79,0.33 -0.32,0 -0.59,-0.11 -0.79,-0.33 -0.21,-0.22 -0.31,-0.48 -0.31,-0.77 0,-0.29 0.1,-0.55 0.29,-0.76 0.21,-0.24 0.48,-0.36 0.81,-0.36zm-0 0.27c-0.23,0 -0.42,0.08 -0.58,0.25 -0.16,0.17 -0.24,0.37 -0.24,0.6 0,0.15 0.04,0.29 0.11,0.43 0.07,0.13 0.17,0.23 0.3,0.3 0.12,0.07 0.26,0.11 0.41,0.11 0.15,0 0.29,-0.04 0.41,-0.11 0.13,-0.07 0.22,-0.17 0.3,-0.3 0.07,-0.13 0.11,-0.27 0.11,-0.43 0,-0.24 -0.08,-0.44 -0.24,-0.6 -0.16,-0.17 -0.35,-0.25 -0.58,-0.25z"/>
  <polygon id="_41" class="fil0" points="19.39,15.64 20.77,15.64 20.77,15.87 20.21,15.87 20.21,17.75 19.94,17.75 19.94,15.87 19.39,15.87 "/>
  <path id="_42" class="fil0" d="M22.91 17.05l0.23 0.12c-0.08,0.15 -0.16,0.27 -0.26,0.36 -0.1,0.09 -0.21,0.16 -0.33,0.21 -0.12,0.05 -0.26,0.07 -0.42,0.07 -0.34,0 -0.61,-0.11 -0.81,-0.34 -0.19,-0.23 -0.29,-0.48 -0.29,-0.76 0,-0.27 0.08,-0.51 0.25,-0.72 0.21,-0.27 0.49,-0.4 0.84,-0.4 0.36,0 0.65,0.14 0.86,0.41 0.15,0.19 0.23,0.43 0.23,0.72l-1.9 0c0.01,0.25 0.08,0.45 0.23,0.6 0.15,0.16 0.34,0.23 0.56,0.23 0.11,0 0.21,-0.02 0.31,-0.06 0.1,-0.04 0.19,-0.09 0.26,-0.15 0.07,-0.06 0.15,-0.16 0.23,-0.3zm0 -0.57c-0.04,-0.15 -0.09,-0.26 -0.16,-0.35 -0.07,-0.09 -0.16,-0.16 -0.28,-0.21 -0.11,-0.05 -0.23,-0.08 -0.36,-0.08 -0.21,0 -0.39,0.07 -0.53,0.2 -0.11,0.1 -0.19,0.24 -0.25,0.44l1.58 0z"/>
  <path class="fil0" d="M17.63 14.58c0.06,0 0.11,0.02 0.15,0.06 0.04,0.04 0.06,0.09 0.06,0.15 0,0.06 -0.02,0.11 -0.06,0.15 -0.04,0.04 -0.09,0.06 -0.15,0.06 -0.06,0 -0.11,-0.02 -0.15,-0.06 -0.04,-0.04 -0.06,-0.09 -0.06,-0.15 0,-0.06 0.02,-0.11 0.06,-0.15 0.04,-0.04 0.09,-0.06 0.15,-0.06zm0.8 0c0.06,0 0.11,0.02 0.15,0.06 0.04,0.04 0.06,0.09 0.06,0.15 0,0.06 -0.02,0.11 -0.06,0.15 -0.04,0.04 -0.09,0.06 -0.15,0.06 -0.06,0 -0.11,-0.02 -0.15,-0.06 -0.04,-0.04 -0.06,-0.09 -0.06,-0.15 0,-0.06 0.02,-0.11 0.06,-0.15 0.04,-0.04 0.09,-0.06 0.15,-0.06z"/>
  <path class="fil0" d="M17.26 9.58c0.06,0 0.11,0.02 0.15,0.06 0.04,0.04 0.06,0.09 0.06,0.15 0,0.06 -0.02,0.11 -0.06,0.15 -0.04,0.04 -0.09,0.06 -0.15,0.06 -0.06,0 -0.11,-0.02 -0.15,-0.06 -0.04,-0.04 -0.06,-0.09 -0.06,-0.15 0,-0.06 0.02,-0.11 0.06,-0.15 0.04,-0.04 0.09,-0.06 0.15,-0.06zm0.8 0c0.06,0 0.11,0.02 0.15,0.06 0.04,0.04 0.06,0.09 0.06,0.15 0,0.06 -0.02,0.11 -0.06,0.15 -0.04,0.04 -0.09,0.06 -0.15,0.06 -0.06,0 -0.11,-0.02 -0.15,-0.06 -0.04,-0.04 -0.06,-0.09 -0.06,-0.15 0,-0.06 0.02,-0.11 0.06,-0.15 0.04,-0.04 0.09,-0.06 0.15,-0.06z"/>
 </g>
</svg>
