<?xml version="1.0" encoding="UTF-8"?>
<!DOCTYPE svg PUBLIC "-//W3C//DTD SVG 1.1//EN" "http://www.w3.org/Graphics/SVG/1.1/DTD/svg11.dtd">
<!-- Creator: CorelDRAW 2019 (64-Bit) -->
<svg xmlns="http://www.w3.org/2000/svg" xml:space="preserve" width="3.94386cm" height="0.23975cm" version="1.1" style="shape-rendering:geometricPrecision; text-rendering:geometricPrecision; image-rendering:optimizeQuality; fill-rule:evenodd; clip-rule:evenodd"
viewBox="0 0 16.471 1.001"
 xmlns:xlink="http://www.w3.org/1999/xlink"
 xmlns:xodm="http://www.corel.com/coreldraw/odm/2003">
 <defs>
  <style type="text/css">
   <![CDATA[
    .fil0 {fill:#A39F6B;fill-rule:nonzero}
   ]]>
  </style>
 </defs>
 <g id="Слой_x0020_1">
  <metadata id="CorelCorpID_0Corel-Layer"/>
  <g id="_1963284087008">
   <path class="fil0" d="M0.274 0.686c-0.005,0.005 -0.011,0.008 -0.017,0.01 -0.007,0.002 -0.013,0.002 -0.019,0.001 0.012,-0.004 0.022,-0.009 0.031,-0.017 0.007,-0.007 0.015,-0.016 0.023,-0.029 -0.002,0.014 -0.008,0.026 -0.019,0.035zm-0.043 -0.024c-0.006,-0.003 -0.01,-0.008 -0.012,-0.016 -0.002,-0.008 -0.002,-0.016 0.001,-0.025 0.003,-0.009 0.008,-0.016 0.014,-0.02 0.007,-0.004 0.013,-0.005 0.019,-0.003 0.006,0.002 0.011,0.008 0.013,0.016 0.002,0.008 0.002,0.016 -0.001,0.026 -0.003,0.009 -0.008,0.015 -0.014,0.02 -0.007,0.004 -0.013,0.005 -0.019,0.003zm-0.069 -0.231c-0.01,0.015 -0.021,0.035 -0.035,0.061 -0.005,0.009 -0.01,0.02 -0.016,0.031l-0.016 0.032c0.007,-0.021 0.016,-0.043 0.027,-0.066 0.01,-0.021 0.021,-0.042 0.034,-0.063 0.015,-0.023 0.029,-0.042 0.043,-0.056l0.006 -0.006c0.002,-0.002 0.004,-0.004 0.006,-0.006l0.007 -0.006 0.007 -0.005c0.012,-0.007 0.023,-0.011 0.032,-0.011 -0.009,0.001 -0.019,0.006 -0.03,0.014l-0.006 0.005 -0.006 0.006c-0.002,0.002 -0.004,0.003 -0.006,0.006l-0.006 0.007c-0.013,0.016 -0.027,0.034 -0.04,0.056zm0.103 -0.127c-0.035,-0.005 -0.073,0.022 -0.114,0.08 -0.037,0.053 -0.071,0.12 -0.1,0.201 -0.029,0.081 -0.045,0.152 -0.049,0.215 -0.004,0.068 0.009,0.108 0.039,0.12 0.023,0.009 0.045,0.008 0.066,-0.002 0.016,-0.008 0.032,-0.022 0.049,-0.043 0.003,-0.004 0.007,-0.009 0.011,-0.014l0.01 -0.013c0.008,-0.011 0.015,-0.02 0.019,-0.024 0.014,-0.016 0.025,-0.025 0.035,-0.025 0.01,-0 0.022,0.007 0.037,0.022 0.005,0.005 0.011,0.012 0.02,0.022l0.011 0.012 0.011 0.012c0.018,0.019 0.035,0.031 0.05,0.038 0.02,0.009 0.039,0.008 0.058,-0.002 0.023,-0.012 0.035,-0.049 0.036,-0.111 0.002,-0.058 -0.006,-0.124 -0.023,-0.198 -0.017,-0.077 -0.04,-0.141 -0.067,-0.193 -0.032,-0.059 -0.065,-0.09 -0.099,-0.096zm0.43 0.25c-0.007,0.007 -0.017,0.012 -0.028,0.017 -0.012,0.004 -0.021,0.009 -0.027,0.013 -0.01,0.007 -0.015,0.016 -0.016,0.026 -0.001,-0.005 -0,-0.011 0.002,-0.017 0.002,-0.005 0.006,-0.01 0.01,-0.014 0.007,-0.006 0.016,-0.011 0.028,-0.016 0.01,-0.004 0.019,-0.009 0.027,-0.014 0.009,-0.007 0.016,-0.015 0.02,-0.023 -0.002,0.011 -0.008,0.02 -0.017,0.028zm-0.108 0.198c-0.014,-0.001 -0.025,-0.001 -0.034,-0 -0.007,0.001 -0.012,0.003 -0.015,0.005 -0.002,0.001 -0.004,0.004 -0.005,0.007l-0.001 0.005 -0.001 0.004c-0,-0.004 0,-0.007 0,-0.009 0,-0.004 0.002,-0.007 0.004,-0.009 0.004,-0.004 0.009,-0.007 0.017,-0.008 0.009,-0.002 0.021,-0.002 0.035,-0.002 0.009,0.001 0.021,0.002 0.034,0.004l0.017 0.003 0.018 0.003c-0.01,0.001 -0.022,0.002 -0.035,0.001l-0.018 -0.001 -0.017 -0.001zm0.018 -0.402c-0.017,0.008 -0.03,0.015 -0.04,0.022 -0.006,0.004 -0.012,0.009 -0.018,0.014 -0.005,0.005 -0.011,0.01 -0.016,0.017 -0.011,0.014 -0.016,0.029 -0.015,0.044 -0.002,-0.008 -0.002,-0.016 0,-0.025 0.002,-0.008 0.005,-0.016 0.01,-0.023 0.008,-0.012 0.019,-0.023 0.034,-0.034 0.026,-0.018 0.055,-0.029 0.087,-0.033 -0.015,0.005 -0.029,0.011 -0.042,0.017zm0.257 0.297c-0.007,-0.01 -0.015,-0.019 -0.024,-0.027 -0.006,-0.005 -0.013,-0.011 -0.021,-0.016l-0.004 -0.003 -0.004 -0.003c-0.003,-0.002 -0.005,-0.004 -0.007,-0.005 -0.004,-0.003 -0.006,-0.007 -0.007,-0.011 -0.001,-0.005 0.002,-0.011 0.009,-0.018 0.002,-0.003 0.006,-0.006 0.011,-0.011l0.003 -0.003 0.003 -0.003 0.007 -0.007c0.011,-0.012 0.02,-0.023 0.026,-0.034 0.009,-0.015 0.014,-0.03 0.016,-0.047 0.005,-0.042 -0.004,-0.077 -0.027,-0.107 -0.025,-0.031 -0.062,-0.05 -0.112,-0.057 -0.025,-0.004 -0.052,-0.002 -0.082,0.004 -0.03,0.006 -0.057,0.016 -0.082,0.03 -0.027,0.015 -0.047,0.032 -0.061,0.052 -0.016,0.022 -0.022,0.046 -0.018,0.071 0.008,0.062 0.057,0.079 0.147,0.051 0.015,-0.005 0.027,-0.006 0.036,-0.005 0.008,0.001 0.013,0.004 0.014,0.008 0.002,0.005 -0,0.01 -0.006,0.016 -0.006,0.006 -0.014,0.011 -0.025,0.015 -0.041,0.016 -0.06,0.041 -0.059,0.075 0.001,0.017 0.007,0.031 0.018,0.042 0.012,0.012 0.027,0.017 0.046,0.015 0.019,-0.001 0.031,0.005 0.036,0.017 0.002,0.005 0.002,0.01 0,0.015 -0.002,0.005 -0.006,0.01 -0.012,0.013 -0.009,0.005 -0.024,0.007 -0.046,0.005 -0.004,-0 -0.009,-0.001 -0.014,-0.001l-0.015 -0.001c-0.012,-0.001 -0.022,-0.002 -0.03,-0.002 -0.023,-0.001 -0.04,0.002 -0.052,0.009 -0.015,0.009 -0.023,0.024 -0.025,0.047 -0.002,0.026 0.01,0.051 0.035,0.074 0.023,0.022 0.054,0.039 0.091,0.052 0.038,0.012 0.075,0.017 0.111,0.014 0.04,-0.004 0.072,-0.016 0.097,-0.038 0.035,-0.03 0.053,-0.069 0.056,-0.116 0.003,-0.042 -0.008,-0.079 -0.03,-0.11zm0.335 0.065c-0.005,0.008 -0.011,0.014 -0.019,0.018 -0.008,0.004 -0.016,0.006 -0.024,0.004 0.016,-0.003 0.028,-0.012 0.036,-0.026 0.004,-0.006 0.006,-0.013 0.008,-0.022 0.001,-0.008 0.002,-0.016 0.001,-0.026 0.003,0.008 0.005,0.017 0.004,0.026 -0,0.009 -0.003,0.018 -0.007,0.026zm-0.071 -0.032c-0.004,-0.008 -0.006,-0.016 -0.005,-0.025 0.001,-0.008 0.004,-0.014 0.01,-0.017 0.006,-0.003 0.012,-0.003 0.019,0.001 0.007,0.004 0.013,0.009 0.017,0.018 0.004,0.008 0.006,0.017 0.005,0.025 -0.001,0.008 -0.004,0.014 -0.01,0.017 -0.005,0.003 -0.012,0.003 -0.018,-0 -0.007,-0.004 -0.013,-0.01 -0.017,-0.018zm-0.045 -0.356c-0.005,0.002 -0.01,0.006 -0.016,0.012 -0.009,0.009 -0.018,0.019 -0.027,0.031 -0.006,0.009 -0.014,0.021 -0.023,0.036 -0.003,0.005 -0.007,0.011 -0.011,0.019l-0.01 0.019c0.005,-0.016 0.01,-0.03 0.015,-0.041 0.006,-0.014 0.014,-0.027 0.022,-0.038 0.009,-0.013 0.019,-0.024 0.029,-0.031 0.013,-0.01 0.026,-0.015 0.038,-0.014 -0.006,0.001 -0.012,0.004 -0.019,0.007zm0.108 0.206c-0.014,-0.004 -0.022,-0.012 -0.026,-0.023 -0.003,-0.009 -0.003,-0.022 -0.001,-0.039 0,-0.003 0.001,-0.007 0.002,-0.012l0.002 -0.013c0.002,-0.011 0.003,-0.02 0.004,-0.026 0.003,-0.022 0.003,-0.041 0.001,-0.058 -0.003,-0.024 -0.012,-0.043 -0.026,-0.057 -0.014,-0.014 -0.031,-0.02 -0.051,-0.017 -0.021,0.002 -0.042,0.015 -0.063,0.037 -0.024,0.025 -0.045,0.06 -0.063,0.106 -0.019,0.047 -0.031,0.099 -0.035,0.154 -0.005,0.057 -0,0.109 0.012,0.156 0.014,0.052 0.037,0.091 0.068,0.12 0.035,0.031 0.08,0.046 0.133,0.044 0.05,-0.002 0.092,-0.019 0.125,-0.053 0.029,-0.03 0.047,-0.068 0.052,-0.113 0.005,-0.045 -0.003,-0.086 -0.025,-0.123 -0.024,-0.04 -0.06,-0.068 -0.108,-0.083zm0.364 -0.221l-0.008 0.002c-0.003,0.001 -0.005,0.002 -0.007,0.003 -0.002,0.001 -0.004,0.002 -0.007,0.003l-0.003 0.002 -0.003 0.002 -0.006 0.005c-0.002,0.002 -0.004,0.004 -0.006,0.005 -0.015,0.013 -0.029,0.03 -0.041,0.049 -0.01,0.016 -0.021,0.035 -0.031,0.058 -0.007,0.016 -0.015,0.037 -0.024,0.062 0.004,-0.021 0.011,-0.043 0.019,-0.065 0.008,-0.022 0.018,-0.042 0.03,-0.06 0.014,-0.021 0.028,-0.037 0.044,-0.049 0.019,-0.015 0.039,-0.022 0.059,-0.02l-0.015 0.003zm0.247 0.188c-0.027,-0.073 -0.064,-0.13 -0.11,-0.171 -0.047,-0.042 -0.094,-0.059 -0.142,-0.051 -0.04,0.007 -0.077,0.037 -0.109,0.091 -0.031,0.051 -0.053,0.112 -0.066,0.184 -0.014,0.081 -0.015,0.156 -0.002,0.225 0.007,0.034 0.016,0.061 0.028,0.081 0.014,0.022 0.029,0.034 0.048,0.037 0.028,0.005 0.051,-0.007 0.068,-0.035 0.013,-0.021 0.024,-0.054 0.033,-0.098 0.002,-0.008 0.003,-0.017 0.005,-0.028l0.003 -0.013 0.002 -0.013c0.004,-0.023 0.007,-0.039 0.008,-0.049 0.007,-0.033 0.015,-0.051 0.025,-0.053 0.008,-0.002 0.015,0.002 0.022,0.011 0.006,0.008 0.013,0.021 0.02,0.039 0.002,0.006 0.006,0.015 0.01,0.026l0.005 0.015 0.006 0.014c0.009,0.025 0.017,0.045 0.024,0.06 0.019,0.041 0.041,0.069 0.066,0.083 0.023,0.013 0.044,0.013 0.063,-0.002 0.012,-0.009 0.022,-0.025 0.029,-0.047 0.007,-0.022 0.01,-0.049 0.01,-0.08 0,-0.07 -0.015,-0.145 -0.046,-0.226zm0.355 0.187c-0.005,0.008 -0.011,0.014 -0.018,0.018 -0.007,0.005 -0.015,0.007 -0.023,0.007 0.015,-0.006 0.026,-0.016 0.035,-0.029 0.008,-0.012 0.013,-0.027 0.015,-0.045 0.004,0.018 0.001,0.034 -0.009,0.05zm-0.084 -0.042c-0.002,-0.011 -0.001,-0.021 0.004,-0.03 0.005,-0.009 0.011,-0.014 0.02,-0.016 0.008,-0.002 0.016,0.001 0.024,0.008 0.007,0.006 0.012,0.015 0.014,0.026 0.002,0.011 0.001,0.021 -0.004,0.03 -0.005,0.009 -0.011,0.014 -0.02,0.016 -0.008,0.002 -0.016,-0.001 -0.024,-0.007 -0.007,-0.006 -0.012,-0.015 -0.014,-0.026zm-0.028 -0.33c-0.02,0.009 -0.038,0.022 -0.053,0.039 -0.014,0.015 -0.027,0.034 -0.039,0.056l-0.004 0.008 -0.004 0.008 -0.007 0.016 -0.006 0.017 -0.006 0.017c0.004,-0.024 0.011,-0.047 0.021,-0.069 0.01,-0.023 0.023,-0.042 0.039,-0.059 0.017,-0.018 0.036,-0.031 0.057,-0.039 0.01,-0.004 0.021,-0.007 0.032,-0.009l0.008 -0.001 0.008 -0.001 0.017 0c-0.024,0.003 -0.045,0.008 -0.064,0.017zm0.132 -0.043c-0.082,-0.02 -0.15,-0.004 -0.204,0.048 -0.047,0.046 -0.076,0.111 -0.086,0.195 -0.009,0.081 0.001,0.156 0.032,0.225 0.033,0.074 0.081,0.12 0.146,0.137 0.061,0.016 0.117,-0.002 0.169,-0.055 0.048,-0.048 0.081,-0.113 0.1,-0.193 0.019,-0.082 0.017,-0.156 -0.007,-0.22 -0.027,-0.073 -0.077,-0.118 -0.151,-0.136zm0.625 0.111c-0.01,0.015 -0.021,0.027 -0.031,0.037 -0.013,0.013 -0.025,0.022 -0.038,0.028 0.01,-0.007 0.021,-0.018 0.034,-0.032 0.01,-0.011 0.019,-0.024 0.029,-0.038 0.005,-0.007 0.009,-0.013 0.013,-0.02l0.004 -0.005 0.003 -0.005c0.002,-0.004 0.005,-0.008 0.007,-0.01 0.005,-0.007 0.011,-0.012 0.018,-0.016 0.008,-0.004 0.015,-0.006 0.023,-0.005 -0.014,0.002 -0.026,0.01 -0.036,0.025 -0.002,0.002 -0.004,0.006 -0.006,0.01l-0.003 0.005 -0.003 0.005c-0.004,0.006 -0.008,0.013 -0.013,0.021zm-0.159 -0.091c-0.005,0.004 -0.01,0.009 -0.015,0.015 -0.007,0.009 -0.013,0.022 -0.019,0.039 -0.004,0.01 -0.008,0.024 -0.013,0.043l-0.006 0.022 -0.005 0.022c0.001,-0.018 0.003,-0.033 0.005,-0.046 0.003,-0.016 0.007,-0.031 0.012,-0.044 0.006,-0.017 0.014,-0.031 0.022,-0.04 0.005,-0.006 0.011,-0.011 0.017,-0.015 0.007,-0.004 0.014,-0.005 0.021,-0.005 -0.007,0.001 -0.013,0.004 -0.019,0.008zm0.184 0.246c-0.011,-0.006 -0.013,-0.012 -0.008,-0.017 0.002,-0.002 0.006,-0.005 0.013,-0.009l0.004 -0.003 0.005 -0.003c0.004,-0.002 0.008,-0.004 0.011,-0.005 0.02,-0.011 0.035,-0.023 0.047,-0.036 0.018,-0.019 0.03,-0.04 0.037,-0.066 0.006,-0.023 0.005,-0.045 -0.003,-0.066 -0.008,-0.019 -0.02,-0.033 -0.037,-0.042 -0.017,-0.009 -0.035,-0.011 -0.052,-0.005 -0.02,0.006 -0.037,0.022 -0.051,0.045 -0.023,0.04 -0.046,0.068 -0.067,0.083 -0.009,0.006 -0.014,0.008 -0.018,0.006 -0.003,-0.003 -0.003,-0.01 0.002,-0.02 0.018,-0.044 0.023,-0.079 0.015,-0.106 -0.007,-0.022 -0.021,-0.036 -0.043,-0.041 -0.046,-0.01 -0.08,0.015 -0.103,0.075 -0.019,0.049 -0.03,0.119 -0.034,0.212 -0.004,0.093 0.002,0.168 0.017,0.224 0.018,0.068 0.048,0.101 0.091,0.099 0.039,-0.002 0.061,-0.034 0.066,-0.095 0.002,-0.02 0.001,-0.044 -0.001,-0.069 -0.001,-0.009 -0.002,-0.018 -0.003,-0.027 -0,-0.004 -0.001,-0.007 -0.001,-0.01l-0.001 -0.004 -0 -0.002 0 -0.001c-0.001,-0.008 -0,-0.013 0.002,-0.016 0.003,-0.003 0.008,-0.002 0.013,0.003 0.015,0.013 0.029,0.046 0.043,0.098 0.009,0.033 0.021,0.061 0.038,0.082 0.015,0.019 0.032,0.032 0.05,0.038 0.018,0.006 0.035,0.005 0.052,-0.002 0.017,-0.008 0.031,-0.021 0.042,-0.039 0.012,-0.021 0.019,-0.045 0.019,-0.071 -0,-0.025 -0.006,-0.051 -0.017,-0.077 -0.025,-0.055 -0.067,-0.1 -0.126,-0.134zm0.447 0.13c-0.005,0.008 -0.011,0.014 -0.019,0.018 -0.008,0.004 -0.016,0.006 -0.024,0.004 0.016,-0.003 0.028,-0.012 0.036,-0.026 0.004,-0.006 0.006,-0.013 0.008,-0.022 0.001,-0.008 0.002,-0.016 0.001,-0.026 0.004,0.008 0.005,0.017 0.004,0.026 -0,0.009 -0.003,0.018 -0.007,0.026zm-0.071 -0.032c-0.004,-0.008 -0.006,-0.016 -0.005,-0.024 0.001,-0.008 0.004,-0.014 0.009,-0.017 0.006,-0.003 0.012,-0.003 0.019,0.001 0.007,0.004 0.013,0.009 0.017,0.018 0.004,0.008 0.006,0.017 0.005,0.025 -0.001,0.008 -0.004,0.014 -0.01,0.017 -0.005,0.003 -0.012,0.003 -0.018,-0 -0.007,-0.004 -0.013,-0.01 -0.017,-0.018zm-0.045 -0.356c-0.005,0.003 -0.01,0.007 -0.016,0.012 -0.009,0.009 -0.018,0.019 -0.027,0.031 -0.007,0.009 -0.014,0.021 -0.023,0.036 -0.003,0.005 -0.007,0.011 -0.011,0.019l-0.01 0.019c0.005,-0.016 0.01,-0.03 0.015,-0.041 0.006,-0.014 0.013,-0.027 0.022,-0.038 0.009,-0.013 0.019,-0.024 0.029,-0.031 0.013,-0.01 0.026,-0.015 0.038,-0.014 -0.006,0.001 -0.013,0.004 -0.019,0.007zm0.108 0.206c-0.014,-0.004 -0.022,-0.012 -0.026,-0.023 -0.003,-0.009 -0.003,-0.022 -0.001,-0.039 0,-0.003 0.001,-0.007 0.002,-0.012l0.002 -0.012c0.002,-0.011 0.003,-0.02 0.004,-0.027 0.003,-0.022 0.003,-0.041 0.001,-0.058 -0.003,-0.024 -0.012,-0.043 -0.026,-0.057 -0.014,-0.014 -0.031,-0.02 -0.051,-0.017 -0.021,0.002 -0.042,0.015 -0.063,0.037 -0.024,0.025 -0.045,0.06 -0.063,0.106 -0.019,0.048 -0.031,0.099 -0.035,0.154 -0.005,0.057 -0,0.109 0.012,0.156 0.014,0.052 0.037,0.091 0.068,0.12 0.035,0.031 0.08,0.046 0.133,0.044 0.051,-0.002 0.092,-0.019 0.124,-0.053 0.03,-0.03 0.047,-0.068 0.053,-0.113 0.005,-0.045 -0.003,-0.086 -0.025,-0.123 -0.024,-0.04 -0.06,-0.068 -0.108,-0.083zm0.161 -0.203c-0.004,0.004 -0.007,0.01 -0.009,0.017 -0.002,0.006 -0.003,0.013 -0.003,0.02 -0,0.011 0.001,0.025 0.004,0.043l0.004 0.021 0.004 0.022c-0.006,-0.015 -0.011,-0.029 -0.014,-0.041 -0.004,-0.017 -0.006,-0.031 -0.006,-0.044 0.001,-0.009 0.002,-0.016 0.004,-0.023 0.003,-0.008 0.007,-0.015 0.012,-0.019 0.011,-0.009 0.024,-0.013 0.039,-0.012 -0.015,0.002 -0.026,0.008 -0.035,0.017zm0.14 0.021c-0.012,-0.023 -0.027,-0.04 -0.045,-0.053 -0.016,-0.011 -0.034,-0.017 -0.052,-0.018 -0.017,-0.001 -0.034,0.003 -0.048,0.011 -0.015,0.008 -0.025,0.019 -0.032,0.034 -0.012,0.027 -0.011,0.067 0.004,0.119 0.002,0.008 0.005,0.019 0.009,0.033l0.005 0.017 0.005 0.016c0.008,0.026 0.013,0.048 0.015,0.065 0.005,0.042 0.008,0.084 0.009,0.129 0,0.014 -0,0.031 -0.001,0.05l-0 0.011 -0 0.011c-0,0.008 -0.001,0.015 -0,0.02 -0,0.027 0.002,0.046 0.006,0.058 0.005,0.014 0.015,0.023 0.03,0.026 0.029,0.007 0.055,-0.011 0.077,-0.052 0.02,-0.036 0.034,-0.087 0.044,-0.15 0.009,-0.061 0.012,-0.122 0.008,-0.182 -0.004,-0.063 -0.015,-0.111 -0.032,-0.144zm0.268 -0.044l-0.008 0.002c-0.003,0.001 -0.005,0.002 -0.007,0.003 -0.002,0.001 -0.004,0.002 -0.007,0.003l-0.004 0.002 -0.003 0.002 -0.006 0.005c-0.002,0.002 -0.004,0.004 -0.006,0.005 -0.015,0.013 -0.029,0.03 -0.041,0.049 -0.01,0.016 -0.021,0.035 -0.031,0.058 -0.007,0.016 -0.015,0.037 -0.024,0.062 0.004,-0.021 0.011,-0.043 0.019,-0.065 0.008,-0.022 0.018,-0.042 0.03,-0.06 0.014,-0.021 0.028,-0.038 0.044,-0.049 0.019,-0.015 0.039,-0.022 0.059,-0.02l-0.015 0.003zm0.247 0.188c-0.027,-0.073 -0.064,-0.13 -0.11,-0.171 -0.047,-0.042 -0.094,-0.059 -0.142,-0.051 -0.04,0.007 -0.077,0.037 -0.11,0.091 -0.031,0.051 -0.053,0.112 -0.066,0.184 -0.014,0.081 -0.015,0.156 -0.002,0.225 0.007,0.034 0.016,0.061 0.028,0.081 0.014,0.022 0.029,0.034 0.048,0.037 0.028,0.005 0.051,-0.007 0.068,-0.035 0.013,-0.021 0.024,-0.054 0.033,-0.098 0.002,-0.008 0.003,-0.017 0.005,-0.028l0.003 -0.013 0.002 -0.013c0.004,-0.023 0.007,-0.039 0.008,-0.049 0.007,-0.033 0.015,-0.051 0.025,-0.053 0.008,-0.002 0.015,0.002 0.022,0.011 0.006,0.008 0.013,0.021 0.02,0.039 0.002,0.006 0.006,0.015 0.01,0.026l0.005 0.015 0.006 0.014c0.009,0.025 0.017,0.045 0.024,0.06 0.019,0.041 0.041,0.069 0.066,0.083 0.023,0.013 0.044,0.013 0.063,-0.001 0.012,-0.009 0.022,-0.025 0.029,-0.047 0.007,-0.022 0.01,-0.049 0.01,-0.08 0,-0.07 -0.015,-0.145 -0.046,-0.226zm0.336 0.2c-0.008,0.007 -0.017,0.014 -0.028,0.019 -0.019,0.008 -0.04,0.011 -0.064,0.009 -0.004,-0 -0.01,-0.001 -0.016,-0.003l-0.008 -0.002 -0.007 -0.002c-0.01,-0.002 -0.021,-0.003 -0.032,-0.003 -0.012,-0 -0.022,0.001 -0.031,0.005 -0.011,0.004 -0.018,0.012 -0.022,0.023 0.002,-0.012 0.009,-0.02 0.021,-0.026 0.008,-0.004 0.019,-0.007 0.031,-0.008 0.009,-0.001 0.02,-0 0.033,0.002l0.008 0.001 0.008 0.002c0.006,0.001 0.011,0.002 0.015,0.002 0.022,0.002 0.043,0 0.061,-0.007 0.011,-0.004 0.02,-0.009 0.027,-0.015 0.008,-0.007 0.016,-0.015 0.021,-0.026 -0.003,0.01 -0.01,0.02 -0.019,0.028zm-0.017 -0.186c-0.011,0.009 -0.026,0.016 -0.046,0.02 -0.007,0.001 -0.015,0.002 -0.025,0.003l-0.006 0 -0.006 0c-0.004,0 -0.008,0.001 -0.011,0.001 -0.009,0.002 -0.016,0.005 -0.022,0.009 -0.007,0.004 -0.012,0.011 -0.013,0.02 0,-0.009 0.004,-0.017 0.011,-0.023 0.006,-0.005 0.013,-0.009 0.022,-0.011 0.003,-0.001 0.007,-0.002 0.012,-0.003l0.006 -0 0.006 -0.001 0.012 -0.001c0.004,-0.001 0.008,-0.001 0.012,-0.002 0.009,-0.002 0.017,-0.004 0.023,-0.006 0.008,-0.003 0.015,-0.006 0.021,-0.011 0.013,-0.009 0.021,-0.023 0.024,-0.042 0.001,0.021 -0.006,0.036 -0.02,0.047zm-0.064 -0.213c-0.007,0.001 -0.017,0.003 -0.029,0.006 -0.021,0.006 -0.039,0.013 -0.054,0.022 -0.018,0.011 -0.032,0.024 -0.044,0.039 -0.006,0.008 -0.01,0.017 -0.014,0.027 -0.004,0.01 -0.006,0.02 -0.005,0.031 -0.002,-0.01 -0.002,-0.02 0.001,-0.032 0.003,-0.011 0.007,-0.021 0.013,-0.03 0.01,-0.017 0.025,-0.031 0.045,-0.043 0.017,-0.01 0.036,-0.018 0.056,-0.022 0.013,-0.002 0.023,-0.004 0.03,-0.004 0.007,-0.001 0.017,-0.001 0.03,-0l-0.008 0.001 -0.007 0.001c-0.006,0.001 -0.011,0.002 -0.015,0.003zm0.291 0.213c-0.009,-0.076 -0.036,-0.137 -0.079,-0.182 -0.041,-0.043 -0.091,-0.065 -0.151,-0.069 -0.053,-0.003 -0.099,0.004 -0.138,0.021 -0.033,0.015 -0.059,0.037 -0.077,0.064 -0.016,0.024 -0.023,0.049 -0.022,0.074 0.001,0.024 0.01,0.042 0.026,0.052 0.031,0.02 0.074,0.011 0.129,-0.027 0.021,-0.014 0.039,-0.019 0.054,-0.015 0.013,0.004 0.02,0.012 0.021,0.024 0,0.014 -0.004,0.023 -0.014,0.03 -0.011,0.007 -0.031,0.011 -0.059,0.013 -0.029,0.002 -0.051,0.013 -0.065,0.032 -0.012,0.018 -0.015,0.038 -0.009,0.059 0.006,0.02 0.018,0.033 0.035,0.041 0.018,0.008 0.039,0.006 0.061,-0.005 0.018,-0.009 0.034,-0.012 0.049,-0.007 0.013,0.004 0.021,0.012 0.022,0.023 0.001,0.006 -0.001,0.012 -0.004,0.019 -0.004,0.007 -0.01,0.013 -0.018,0.018 -0.02,0.012 -0.046,0.015 -0.079,0.008 -0.048,-0.01 -0.084,-0.006 -0.107,0.015 -0.02,0.017 -0.028,0.042 -0.025,0.075 0.003,0.025 0.015,0.047 0.036,0.064 0.019,0.015 0.043,0.027 0.073,0.034 0.06,0.013 0.117,0.01 0.172,-0.01 0.065,-0.024 0.111,-0.068 0.141,-0.131 0.029,-0.061 0.038,-0.133 0.028,-0.218zm0.248 -0.002c-0.007,0.007 -0.017,0.012 -0.028,0.017 -0.012,0.004 -0.021,0.009 -0.027,0.013 -0.01,0.007 -0.015,0.016 -0.016,0.026 -0.001,-0.005 -0,-0.011 0.002,-0.017 0.002,-0.005 0.006,-0.01 0.01,-0.014 0.007,-0.006 0.016,-0.011 0.028,-0.016 0.01,-0.004 0.019,-0.009 0.027,-0.014 0.009,-0.007 0.016,-0.015 0.021,-0.023 -0.002,0.011 -0.008,0.02 -0.017,0.028zm-0.108 0.198c-0.014,-0.001 -0.025,-0.001 -0.034,-0 -0.007,0.001 -0.012,0.003 -0.015,0.005 -0.002,0.001 -0.004,0.004 -0.005,0.007l-0.001 0.005 -0.001 0.004c-0,-0.004 0,-0.007 0,-0.009 0,-0.004 0.002,-0.007 0.004,-0.009 0.004,-0.004 0.009,-0.007 0.017,-0.008 0.009,-0.002 0.021,-0.002 0.035,-0.002 0.009,0.001 0.021,0.002 0.034,0.004l0.017 0.003 0.017 0.003c-0.01,0.001 -0.022,0.002 -0.035,0.001l-0.017 -0.001 -0.017 -0.001zm0.018 -0.402c-0.017,0.008 -0.03,0.015 -0.04,0.022 -0.006,0.004 -0.012,0.009 -0.018,0.014 -0.005,0.005 -0.011,0.01 -0.016,0.017 -0.011,0.014 -0.016,0.029 -0.015,0.044 -0.002,-0.008 -0.002,-0.016 0,-0.025 0.002,-0.008 0.005,-0.016 0.01,-0.023 0.008,-0.012 0.019,-0.023 0.034,-0.034 0.026,-0.018 0.055,-0.029 0.087,-0.033 -0.015,0.005 -0.029,0.011 -0.042,0.017zm0.257 0.297c-0.007,-0.01 -0.015,-0.019 -0.024,-0.027 -0.006,-0.005 -0.013,-0.011 -0.021,-0.016l-0.004 -0.003 -0.004 -0.003c-0.003,-0.002 -0.005,-0.004 -0.007,-0.005 -0.004,-0.003 -0.006,-0.007 -0.007,-0.011 -0.001,-0.005 0.002,-0.011 0.009,-0.018 0.002,-0.003 0.006,-0.006 0.011,-0.011l0.003 -0.003 0.003 -0.003 0.007 -0.007c0.011,-0.012 0.02,-0.023 0.026,-0.034 0.009,-0.015 0.014,-0.03 0.016,-0.047 0.005,-0.042 -0.004,-0.077 -0.027,-0.107 -0.025,-0.031 -0.062,-0.05 -0.112,-0.057 -0.025,-0.004 -0.052,-0.003 -0.082,0.004 -0.03,0.006 -0.057,0.016 -0.082,0.03 -0.027,0.015 -0.047,0.032 -0.061,0.052 -0.016,0.022 -0.022,0.046 -0.018,0.071 0.008,0.062 0.057,0.079 0.147,0.051 0.015,-0.005 0.027,-0.006 0.037,-0.005 0.008,0.001 0.013,0.004 0.014,0.008 0.002,0.005 -0,0.01 -0.006,0.016 -0.006,0.006 -0.014,0.011 -0.025,0.015 -0.041,0.016 -0.06,0.041 -0.059,0.075 0.001,0.017 0.007,0.031 0.018,0.042 0.012,0.012 0.027,0.017 0.046,0.015 0.019,-0.001 0.031,0.005 0.036,0.017 0.002,0.005 0.002,0.01 -0,0.015 -0.002,0.006 -0.006,0.01 -0.012,0.013 -0.009,0.005 -0.024,0.007 -0.046,0.005 -0.004,-0 -0.009,-0.001 -0.014,-0.001l-0.015 -0.001c-0.012,-0.001 -0.022,-0.002 -0.03,-0.002 -0.023,-0.001 -0.04,0.002 -0.052,0.009 -0.015,0.009 -0.023,0.024 -0.025,0.047 -0.002,0.026 0.01,0.051 0.035,0.074 0.023,0.022 0.054,0.039 0.091,0.051 0.038,0.012 0.075,0.017 0.111,0.014 0.04,-0.004 0.072,-0.016 0.097,-0.038 0.035,-0.03 0.053,-0.069 0.056,-0.116 0.003,-0.042 -0.008,-0.079 -0.03,-0.11z"/>
   <path class="fil0" d="M5.559 0.618c-0.005,0.01 -0.011,0.017 -0.019,0.022 -0.009,0.005 -0.017,0.007 -0.026,0.006 0.009,-0.002 0.016,-0.006 0.023,-0.011 0.006,-0.005 0.011,-0.012 0.015,-0.02 0.003,-0.007 0.006,-0.016 0.006,-0.026 0.001,-0.008 0.001,-0.018 -0.001,-0.028 0.004,0.008 0.007,0.018 0.007,0.028 0,0.01 -0.002,0.02 -0.006,0.029zm-0.073 -0.03c-0.003,-0.009 -0.003,-0.017 -0.001,-0.025 0.002,-0.008 0.006,-0.013 0.012,-0.015 0.006,-0.002 0.012,-0.001 0.018,0.003 0.006,0.005 0.011,0.012 0.014,0.02 0.003,0.009 0.004,0.017 0.001,0.025 -0.002,0.008 -0.006,0.013 -0.012,0.015 -0.006,0.002 -0.012,0.001 -0.018,-0.003 -0.006,-0.005 -0.011,-0.012 -0.014,-0.02zm-0.149 -0.292c-0.01,0.018 -0.019,0.041 -0.027,0.069 -0.006,0.021 -0.01,0.046 -0.014,0.075 0,-0.012 0.001,-0.025 0.002,-0.039 0.002,-0.014 0.004,-0.027 0.006,-0.038 0.006,-0.028 0.015,-0.051 0.026,-0.072 0.007,-0.012 0.014,-0.022 0.023,-0.03 0.009,-0.009 0.019,-0.016 0.029,-0.023 0.011,-0.006 0.022,-0.011 0.033,-0.015 0.013,-0.004 0.024,-0.006 0.035,-0.007 -0.025,0.006 -0.046,0.015 -0.065,0.028 -0.022,0.015 -0.038,0.032 -0.049,0.051zm0.143 0.132c-0.016,-0.001 -0.025,-0.009 -0.028,-0.026 -0.002,-0.007 -0.001,-0.014 0.001,-0.02 0.002,-0.007 0.005,-0.012 0.01,-0.017 0.011,-0.01 0.026,-0.017 0.046,-0.021 0.007,-0.002 0.016,-0.003 0.027,-0.004l0.013 -0.002 0.013 -0.002c0.02,-0.003 0.035,-0.007 0.045,-0.013 0.013,-0.008 0.02,-0.02 0.022,-0.036 0.002,-0.025 -0.007,-0.046 -0.027,-0.066 -0.02,-0.018 -0.045,-0.031 -0.077,-0.037 -0.034,-0.006 -0.067,-0.005 -0.099,0.004 -0.037,0.01 -0.068,0.029 -0.093,0.056 -0.024,0.025 -0.041,0.063 -0.053,0.112 -0.011,0.047 -0.015,0.097 -0.012,0.15 0.003,0.056 0.014,0.105 0.031,0.149 0.019,0.048 0.045,0.083 0.077,0.105 0.028,0.019 0.058,0.031 0.089,0.036 0.031,0.004 0.06,0.001 0.088,-0.009 0.028,-0.01 0.052,-0.027 0.072,-0.05 0.021,-0.024 0.034,-0.053 0.041,-0.087 0.005,-0.025 0.005,-0.05 0.001,-0.075 -0.004,-0.026 -0.013,-0.05 -0.027,-0.071 -0.033,-0.049 -0.086,-0.075 -0.159,-0.079zm0.494 0.173c-0.005,0.008 -0.011,0.014 -0.019,0.018 -0.008,0.004 -0.016,0.006 -0.024,0.004 0.016,-0.003 0.028,-0.012 0.036,-0.026 0.004,-0.006 0.006,-0.013 0.008,-0.022 0.001,-0.008 0.002,-0.016 0.001,-0.026 0.003,0.008 0.005,0.017 0.004,0.026 -0,0.009 -0.003,0.018 -0.007,0.026zm-0.071 -0.032c-0.004,-0.008 -0.006,-0.016 -0.005,-0.024 0.001,-0.008 0.004,-0.014 0.01,-0.017 0.006,-0.003 0.012,-0.003 0.019,0.001 0.007,0.004 0.013,0.009 0.017,0.018 0.004,0.008 0.006,0.017 0.005,0.025 -0.001,0.008 -0.004,0.014 -0.01,0.017 -0.005,0.003 -0.012,0.003 -0.018,-0 -0.007,-0.004 -0.013,-0.01 -0.017,-0.018zm-0.045 -0.356c-0.005,0.003 -0.01,0.007 -0.016,0.012 -0.009,0.009 -0.018,0.019 -0.027,0.031 -0.007,0.009 -0.014,0.021 -0.023,0.036 -0.003,0.005 -0.007,0.011 -0.011,0.019l-0.01 0.019c0.005,-0.016 0.01,-0.03 0.015,-0.041 0.006,-0.014 0.013,-0.027 0.022,-0.038 0.009,-0.013 0.019,-0.024 0.029,-0.031 0.013,-0.01 0.026,-0.015 0.038,-0.014 -0.006,0.001 -0.013,0.004 -0.019,0.007zm0.108 0.206c-0.014,-0.004 -0.022,-0.012 -0.026,-0.023 -0.003,-0.009 -0.004,-0.022 -0.001,-0.039 0,-0.003 0.001,-0.007 0.002,-0.012l0.002 -0.012c0.002,-0.011 0.003,-0.02 0.004,-0.027 0.003,-0.022 0.003,-0.041 0.001,-0.058 -0.003,-0.024 -0.012,-0.043 -0.026,-0.057 -0.014,-0.014 -0.031,-0.02 -0.051,-0.017 -0.021,0.002 -0.042,0.015 -0.063,0.037 -0.024,0.025 -0.045,0.06 -0.063,0.106 -0.019,0.048 -0.031,0.099 -0.035,0.154 -0.005,0.057 -0,0.109 0.012,0.156 0.014,0.052 0.037,0.091 0.068,0.12 0.035,0.031 0.08,0.046 0.133,0.044 0.051,-0.002 0.092,-0.019 0.124,-0.053 0.03,-0.03 0.047,-0.068 0.053,-0.113 0.005,-0.045 -0.003,-0.086 -0.025,-0.123 -0.024,-0.04 -0.06,-0.068 -0.108,-0.083zm0.161 -0.203c-0.004,0.004 -0.008,0.01 -0.009,0.017 -0.002,0.006 -0.003,0.013 -0.003,0.02 -0,0.011 0.001,0.025 0.004,0.043l0.004 0.021 0.004 0.022c-0.006,-0.015 -0.011,-0.029 -0.014,-0.041 -0.004,-0.017 -0.006,-0.031 -0.006,-0.044 0.001,-0.009 0.002,-0.016 0.004,-0.023 0.003,-0.008 0.007,-0.015 0.012,-0.019 0.011,-0.009 0.024,-0.013 0.039,-0.012 -0.015,0.002 -0.026,0.008 -0.035,0.017zm0.14 0.021c-0.012,-0.023 -0.027,-0.04 -0.045,-0.053 -0.016,-0.011 -0.034,-0.017 -0.052,-0.018 -0.018,-0.001 -0.034,0.003 -0.048,0.011 -0.015,0.008 -0.025,0.019 -0.032,0.034 -0.012,0.027 -0.011,0.067 0.004,0.119 0.002,0.008 0.005,0.019 0.009,0.033l0.005 0.017 0.005 0.016c0.008,0.026 0.013,0.048 0.015,0.065 0.005,0.042 0.008,0.085 0.009,0.129 0,0.014 -0,0.031 -0.001,0.05l-0 0.011 -0 0.011c-0,0.008 -0,0.015 -0,0.02 -0,0.027 0.002,0.046 0.006,0.058 0.005,0.014 0.015,0.023 0.03,0.026 0.029,0.007 0.054,-0.011 0.077,-0.052 0.02,-0.036 0.034,-0.087 0.044,-0.15 0.009,-0.061 0.012,-0.122 0.008,-0.182 -0.004,-0.063 -0.015,-0.111 -0.032,-0.144zm0.34 0.175c-0.003,0.008 -0.007,0.016 -0.013,0.023 -0.006,0.007 -0.013,0.012 -0.02,0.016 -0.008,0.004 -0.016,0.005 -0.024,0.003 0.008,-0.002 0.015,-0.005 0.021,-0.009 0.007,-0.004 0.012,-0.009 0.017,-0.015 0.01,-0.011 0.017,-0.026 0.022,-0.043 0.001,0.008 0,0.017 -0.003,0.026zm-0.073 -0.035c0.004,-0.009 0.009,-0.015 0.016,-0.019 0.007,-0.004 0.013,-0.004 0.019,-0.001 0.006,0.003 0.009,0.009 0.011,0.017 0.001,0.008 0,0.017 -0.004,0.025 -0.004,0.009 -0.009,0.015 -0.015,0.019 -0.007,0.004 -0.013,0.004 -0.019,0.001 -0.006,-0.003 -0.009,-0.009 -0.011,-0.017 -0.001,-0.008 -0,-0.017 0.003,-0.025zm-0.065 -0.169c-0.018,0.01 -0.033,0.022 -0.046,0.038 -0.012,0.014 -0.022,0.032 -0.031,0.053 -0.007,0.016 -0.013,0.037 -0.018,0.06 0.001,-0.009 0.002,-0.02 0.004,-0.032 0.002,-0.011 0.005,-0.021 0.009,-0.031 0.007,-0.021 0.017,-0.04 0.03,-0.056 0.014,-0.017 0.03,-0.03 0.049,-0.038 0.009,-0.004 0.019,-0.007 0.029,-0.01 0.011,-0.002 0.021,-0.003 0.03,-0.003 -0.022,0.004 -0.041,0.01 -0.056,0.019zm0.073 -0.053c-0.053,0.001 -0.097,0.018 -0.131,0.051 -0.03,0.029 -0.051,0.07 -0.063,0.123 -0.011,0.048 -0.012,0.1 -0.005,0.156 0.007,0.055 0.021,0.106 0.042,0.152 0.021,0.045 0.043,0.079 0.068,0.103 0.022,0.021 0.043,0.032 0.065,0.034 0.019,0.002 0.036,-0.005 0.05,-0.02 0.014,-0.015 0.022,-0.034 0.024,-0.059 0.002,-0.017 0.001,-0.036 -0.002,-0.057 -0.001,-0.006 -0.003,-0.015 -0.005,-0.025l-0.002 -0.012c-0.001,-0.004 -0.002,-0.008 -0.002,-0.011 -0.003,-0.017 -0.003,-0.03 -0,-0.039 0.003,-0.012 0.011,-0.021 0.024,-0.028 0.042,-0.023 0.074,-0.056 0.095,-0.098 0.02,-0.04 0.026,-0.081 0.021,-0.123 -0.006,-0.043 -0.023,-0.078 -0.053,-0.105 -0.032,-0.029 -0.073,-0.044 -0.124,-0.043zm0.528 0.058c-0.007,0.009 -0.014,0.019 -0.021,0.031 -0.012,0.022 -0.022,0.045 -0.031,0.07l-0.006 0.018 -0.006 0.019c-0.005,0.016 -0.009,0.029 -0.012,0.037 -0.006,0.016 -0.012,0.028 -0.017,0.035 -0.005,0.006 -0.009,0.01 -0.015,0.012 -0.005,0.002 -0.011,0.003 -0.018,0.003 0.007,-0 0.013,-0.002 0.017,-0.004 0.005,-0.003 0.009,-0.007 0.013,-0.013 0.005,-0.007 0.01,-0.019 0.015,-0.034l0.005 -0.019 0.006 -0.019c0.004,-0.015 0.008,-0.027 0.011,-0.037 0.009,-0.027 0.02,-0.05 0.033,-0.07 0.017,-0.026 0.034,-0.045 0.052,-0.055 -0.01,0.007 -0.018,0.016 -0.026,0.027zm-0.261 0.106c-0.003,0.017 -0.006,0.038 -0.008,0.063l-0.003 0.032 -0.003 0.032c-0.004,-0.063 0.002,-0.119 0.016,-0.169 0.003,-0.01 0.006,-0.019 0.009,-0.027 0.004,-0.01 0.009,-0.019 0.013,-0.027 0.012,-0.02 0.027,-0.029 0.043,-0.028 -0.02,0.003 -0.036,0.019 -0.048,0.049 -0.004,0.011 -0.008,0.024 -0.012,0.039 -0.001,0.006 -0.002,0.012 -0.004,0.019l-0.002 0.008 -0.001 0.004 -0.001 0.004zm0.362 -0.164c-0.033,-0.021 -0.066,-0.018 -0.099,0.008 -0.027,0.021 -0.051,0.054 -0.071,0.099 -0.007,0.014 -0.013,0.032 -0.019,0.051 -0.002,0.007 -0.005,0.015 -0.007,0.024l-0.003 0.011 -0.002 0.006 -0.002 0.005c-0.005,0.016 -0.008,0.027 -0.011,0.033 -0.004,0.008 -0.008,0.013 -0.011,0.012 -0.007,-0 -0.01,-0.006 -0.011,-0.017 -0.001,-0.01 0.001,-0.032 0.005,-0.067 0.007,-0.063 0.002,-0.108 -0.015,-0.133 -0.013,-0.02 -0.034,-0.028 -0.061,-0.024 -0.034,0.006 -0.06,0.042 -0.078,0.106 -0.018,0.063 -0.024,0.139 -0.019,0.229 0.009,0.165 0.056,0.253 0.142,0.264 0.025,0.003 0.05,-0.004 0.074,-0.021 0.023,-0.016 0.042,-0.038 0.058,-0.066 0.014,-0.024 0.025,-0.047 0.035,-0.067 0.003,-0.008 0.007,-0.016 0.01,-0.023 0.002,-0.005 0.005,-0.011 0.007,-0.017 0.004,-0.011 0.007,-0.017 0.008,-0.019 0.002,-0.003 0.005,-0.004 0.008,-0.003 0.003,0.001 0.004,0.013 0.002,0.036l-0.001 0.008 -0.001 0.009c-0.001,0.007 -0.001,0.013 -0.002,0.018 -0.001,0.015 -0.001,0.028 -0.001,0.039 0,0.07 0.024,0.105 0.071,0.103 0.031,-0.001 0.054,-0.03 0.07,-0.087 0.014,-0.051 0.02,-0.115 0.018,-0.191 -0.001,-0.075 -0.01,-0.143 -0.026,-0.204 -0.017,-0.065 -0.039,-0.106 -0.065,-0.123zm-0.212 -0.068c0.014,-0.002 0.026,-0.005 0.037,-0.01 0.012,-0.005 0.023,-0.012 0.032,-0.02 0.002,-0.002 0.004,-0.004 0.007,-0.007l0.007 -0.008 0.004 -0.004c0.001,-0.002 0.003,-0.003 0.004,-0.003 0.002,-0.001 0.003,-0.001 0.005,-0.002l0.002 -0 0.002 -0 -0.002 0 -0.002 0.001c-0.002,0.001 -0.003,0.001 -0.004,0.002 -0.001,0.001 -0.002,0.002 -0.003,0.004l-0.003 0.004c-0.005,0.007 -0.009,0.013 -0.012,0.017 -0.004,0.005 -0.009,0.009 -0.016,0.014 -0.005,0.003 -0.011,0.006 -0.018,0.01 -0.012,0.005 -0.025,0.008 -0.039,0.009l-0.01 0 -0.01 -0c-0.008,-0 -0.015,0.001 -0.019,0.004 0.002,-0.002 0.005,-0.004 0.009,-0.005l0.005 -0.001 0.005 -0.001 0.019 -0.002zm0.147 -0.033c-0,-0.019 -0.007,-0.033 -0.019,-0.044 -0.012,-0.01 -0.026,-0.013 -0.041,-0.009 -0.01,0.003 -0.019,0.009 -0.027,0.02l-0.005 0.007c-0.002,0.002 -0.004,0.004 -0.005,0.006 -0.004,0.005 -0.009,0.008 -0.014,0.012 -0.008,0.004 -0.017,0.008 -0.027,0.01 -0.003,0.001 -0.007,0.001 -0.012,0.002l-0.006 0.001 -0.006 0c-0.019,0.001 -0.032,0.005 -0.041,0.012 -0.009,0.007 -0.014,0.017 -0.015,0.03 -0.001,0.011 0.002,0.021 0.008,0.031 0.009,0.017 0.026,0.027 0.049,0.032 0.022,0.004 0.046,0.003 0.071,-0.004 0.026,-0.008 0.047,-0.02 0.063,-0.037 0.018,-0.019 0.027,-0.041 0.026,-0.067zm0.464 0.509c-0.005,0.008 -0.011,0.014 -0.019,0.018 -0.008,0.004 -0.016,0.006 -0.024,0.004 0.016,-0.003 0.028,-0.012 0.036,-0.026 0.004,-0.006 0.006,-0.013 0.008,-0.022 0.001,-0.008 0.002,-0.016 0.001,-0.026 0.003,0.008 0.005,0.017 0.004,0.026 -0,0.009 -0.003,0.018 -0.007,0.026zm-0.071 -0.032c-0.004,-0.008 -0.006,-0.016 -0.005,-0.024 0.001,-0.008 0.004,-0.014 0.01,-0.017 0.006,-0.003 0.012,-0.003 0.019,0.001 0.007,0.004 0.013,0.009 0.017,0.018 0.004,0.008 0.006,0.017 0.004,0.025 -0.001,0.008 -0.004,0.014 -0.01,0.017 -0.006,0.003 -0.012,0.003 -0.018,-0 -0.007,-0.004 -0.013,-0.01 -0.017,-0.018zm-0.045 -0.356c-0.005,0.003 -0.01,0.007 -0.016,0.012 -0.009,0.009 -0.018,0.019 -0.027,0.031 -0.007,0.009 -0.014,0.021 -0.023,0.036 -0.003,0.005 -0.007,0.011 -0.011,0.019l-0.01 0.019c0.005,-0.016 0.01,-0.03 0.015,-0.041 0.006,-0.014 0.013,-0.027 0.022,-0.038 0.009,-0.013 0.019,-0.024 0.029,-0.031 0.013,-0.01 0.026,-0.015 0.038,-0.014 -0.006,0.001 -0.012,0.004 -0.019,0.007zm0.108 0.206c-0.014,-0.004 -0.022,-0.012 -0.026,-0.023 -0.003,-0.009 -0.003,-0.022 -0.001,-0.039 0,-0.003 0.001,-0.007 0.002,-0.012l0.002 -0.012c0.002,-0.011 0.003,-0.02 0.004,-0.027 0.003,-0.022 0.003,-0.041 0.001,-0.058 -0.003,-0.024 -0.012,-0.043 -0.026,-0.057 -0.014,-0.014 -0.031,-0.02 -0.051,-0.017 -0.021,0.002 -0.042,0.015 -0.063,0.037 -0.024,0.025 -0.045,0.06 -0.063,0.106 -0.019,0.048 -0.031,0.099 -0.035,0.154 -0.005,0.057 -0,0.109 0.012,0.156 0.014,0.052 0.037,0.091 0.068,0.12 0.035,0.031 0.08,0.046 0.133,0.044 0.051,-0.002 0.092,-0.019 0.124,-0.053 0.03,-0.03 0.047,-0.068 0.053,-0.113 0.005,-0.045 -0.003,-0.086 -0.025,-0.123 -0.024,-0.04 -0.06,-0.068 -0.108,-0.083zm0.161 -0.203c-0.004,0.004 -0.007,0.01 -0.009,0.017 -0.002,0.006 -0.003,0.013 -0.003,0.02 -0,0.011 0.001,0.025 0.004,0.043l0.004 0.021 0.004 0.022c-0.006,-0.015 -0.011,-0.029 -0.014,-0.041 -0.004,-0.017 -0.006,-0.031 -0.006,-0.044 0.001,-0.009 0.002,-0.016 0.004,-0.023 0.003,-0.008 0.007,-0.015 0.012,-0.019 0.011,-0.009 0.024,-0.013 0.039,-0.012 -0.015,0.002 -0.026,0.008 -0.035,0.017zm0.14 0.021c-0.012,-0.023 -0.027,-0.04 -0.045,-0.053 -0.016,-0.011 -0.034,-0.017 -0.052,-0.018 -0.018,-0.001 -0.034,0.003 -0.048,0.011 -0.015,0.008 -0.025,0.019 -0.032,0.034 -0.012,0.027 -0.011,0.067 0.004,0.119 0.002,0.008 0.005,0.019 0.009,0.033l0.005 0.017 0.005 0.016c0.008,0.026 0.013,0.048 0.015,0.065 0.005,0.042 0.008,0.084 0.009,0.129 0,0.014 -0,0.031 -0.001,0.05l-0 0.011 -0 0.011c-0,0.008 -0,0.015 -0,0.02 -0,0.027 0.002,0.046 0.006,0.058 0.005,0.014 0.015,0.023 0.03,0.026 0.029,0.007 0.055,-0.011 0.077,-0.052 0.02,-0.036 0.034,-0.087 0.044,-0.15 0.009,-0.061 0.012,-0.122 0.008,-0.182 -0.004,-0.063 -0.015,-0.111 -0.032,-0.144zm0.131 0.403c-0.007,0.009 -0.013,0.02 -0.018,0.035 -0.002,-0.015 0.002,-0.029 0.012,-0.041 0.005,-0.006 0.01,-0.01 0.016,-0.013 0.007,-0.003 0.014,-0.004 0.02,-0.002 -0.012,0.003 -0.022,0.01 -0.03,0.021zm0.029 -0.056c-0.02,0.001 -0.038,0.01 -0.052,0.026 -0.015,0.017 -0.024,0.037 -0.026,0.06 -0.002,0.016 0,0.032 0.005,0.047 0.005,0.015 0.013,0.027 0.023,0.038 0.008,0.008 0.01,0.021 0.007,0.039l-0.001 0.005 -0.001 0.005c-0,0.004 -0.001,0.007 -0.001,0.009 -0,0.007 0.001,0.012 0.004,0.015 0.007,0.008 0.017,0.01 0.03,0.005 0.012,-0.004 0.025,-0.014 0.038,-0.028 0.031,-0.033 0.049,-0.072 0.054,-0.117 0.003,-0.029 -0.004,-0.055 -0.02,-0.076 -0.016,-0.021 -0.036,-0.031 -0.059,-0.03z"/>
  </g>
  <g id="_1963284028224">
   <path class="fil0" d="M8.769 0.245c-0.004,0.002 -0.007,0.005 -0.011,0.009 -0.005,0.006 -0.008,0.015 -0.011,0.027 -0.003,0.016 -0.005,0.037 -0.005,0.062l-0 0.008 -0 0.008c0,0.006 -0,0.012 -0.001,0.016 -0.001,0.012 -0.004,0.022 -0.008,0.031 -0.004,0.01 -0.01,0.019 -0.018,0.026 -0.008,0.007 -0.016,0.012 -0.026,0.015 0.018,-0.009 0.031,-0.023 0.038,-0.043 0.003,-0.01 0.005,-0.02 0.006,-0.03 0,-0.004 0.001,-0.009 0.001,-0.015l-0 -0.008 0 -0.008c0,-0.026 0.003,-0.047 0.007,-0.063 0.004,-0.013 0.009,-0.023 0.014,-0.029 0.004,-0.004 0.008,-0.007 0.013,-0.008 0.004,-0.001 0.009,-0.002 0.014,-0.001 -0.006,0.001 -0.01,0.002 -0.014,0.004zm-0.268 0.004c-0.01,0.01 -0.017,0.023 -0.022,0.039 -0.004,0.013 -0.009,0.028 -0.013,0.046l-0.006 0.023 -0.006 0.023c0.001,-0.032 0.008,-0.064 0.018,-0.094 0.006,-0.017 0.014,-0.031 0.025,-0.041 0.006,-0.006 0.012,-0.01 0.02,-0.013 0.008,-0.003 0.015,-0.004 0.022,-0.003 -0.014,0.001 -0.027,0.008 -0.037,0.02zm0.281 -0.041c-0.027,0.001 -0.046,0.014 -0.058,0.038 -0.012,0.024 -0.017,0.06 -0.016,0.111 0,0.022 -0.005,0.038 -0.014,0.049 -0.008,0.009 -0.019,0.013 -0.032,0.012 -0.013,-0.002 -0.023,-0.008 -0.029,-0.019 -0.006,-0.011 -0.009,-0.026 -0.007,-0.044 0.006,-0.051 0.003,-0.089 -0.011,-0.115 -0.012,-0.023 -0.033,-0.037 -0.063,-0.043 -0.024,-0.005 -0.045,0.001 -0.065,0.016 -0.019,0.015 -0.033,0.036 -0.042,0.064 -0.018,0.053 -0.028,0.117 -0.031,0.19 -0.003,0.071 0.003,0.138 0.015,0.202 0.009,0.048 0.025,0.082 0.048,0.103 0.018,0.017 0.039,0.025 0.062,0.022 0.051,-0.007 0.075,-0.047 0.072,-0.12 -0.002,-0.053 0.009,-0.08 0.033,-0.079 0.012,0 0.021,0.005 0.027,0.015 0.008,0.013 0.011,0.034 0.01,0.062 -0.004,0.048 0.003,0.084 0.018,0.109 0.014,0.024 0.035,0.036 0.063,0.036 0.047,0.001 0.08,-0.03 0.101,-0.093 0.015,-0.046 0.025,-0.122 0.03,-0.228 0.004,-0.082 -0.004,-0.151 -0.024,-0.206 -0.021,-0.058 -0.05,-0.086 -0.088,-0.084zm0.418 0.428c-0.006,0.008 -0.012,0.013 -0.019,0.017 -0.007,0.004 -0.015,0.006 -0.023,0.005 0.015,-0.006 0.027,-0.015 0.036,-0.027 0.008,-0.012 0.014,-0.026 0.017,-0.044 0.003,0.018 -0,0.034 -0.011,0.049zm-0.082 -0.046c-0.001,-0.011 0.001,-0.021 0.005,-0.03 0.005,-0.009 0.012,-0.014 0.02,-0.015 0.008,-0.001 0.016,0.002 0.023,0.009 0.007,0.007 0.011,0.016 0.012,0.027 0.002,0.011 -0,0.021 -0.005,0.029 -0.005,0.009 -0.012,0.014 -0.02,0.015 -0.008,0.001 -0.016,-0.002 -0.023,-0.008 -0.007,-0.007 -0.011,-0.016 -0.012,-0.027zm-0.013 -0.331c-0.021,0.008 -0.039,0.02 -0.055,0.036 -0.015,0.014 -0.029,0.032 -0.042,0.054l-0.004 0.008 -0.004 0.008 -0.008 0.016 -0.007 0.017 -0.006 0.017c0.005,-0.024 0.013,-0.046 0.024,-0.068 0.011,-0.022 0.025,-0.041 0.042,-0.057 0.018,-0.017 0.037,-0.029 0.058,-0.037 0.01,-0.004 0.021,-0.006 0.033,-0.007l0.008 -0.001 0.008 -0 0.017 0.001c-0.024,0.001 -0.046,0.006 -0.064,0.014zm0.134 -0.037c-0.081,-0.024 -0.15,-0.011 -0.206,0.039 -0.049,0.044 -0.081,0.107 -0.095,0.19 -0.013,0.081 -0.006,0.156 0.021,0.226 0.029,0.076 0.076,0.123 0.139,0.144 0.06,0.019 0.117,0.004 0.172,-0.047 0.05,-0.046 0.086,-0.109 0.109,-0.188 0.023,-0.081 0.024,-0.155 0.004,-0.221 -0.023,-0.074 -0.071,-0.122 -0.144,-0.143zm0.687 0.056c-0.007,0.008 -0.012,0.019 -0.015,0.033 -0.002,0.01 -0.004,0.023 -0.005,0.038l-0 0.01 -0.001 0.01c-0,0.008 -0.001,0.015 -0.001,0.02l-0.003 -0.02c-0.001,-0.008 -0.001,-0.014 -0.002,-0.02 -0,-0.014 0.001,-0.028 0.004,-0.04 0.004,-0.016 0.01,-0.028 0.018,-0.036 0.005,-0.005 0.011,-0.008 0.017,-0.009 0.006,-0.001 0.012,-0.002 0.019,-0 -0.014,0.001 -0.025,0.006 -0.032,0.015zm-0.048 0.31c-0.006,0.005 -0.012,0.009 -0.018,0.01 -0.007,0.002 -0.013,0.002 -0.02,0 0.013,-0.003 0.024,-0.009 0.033,-0.017 0.006,-0.006 0.013,-0.016 0.022,-0.032 -0.001,0.016 -0.007,0.028 -0.017,0.038zm-0.143 -0.275c-0.003,0.004 -0.006,0.009 -0.008,0.014 -0.003,0.005 -0.004,0.01 -0.006,0.015 -0.003,0.008 -0.005,0.019 -0.008,0.032 -0.002,0.011 -0.003,0.022 -0.005,0.034 -0.003,-0.024 -0.002,-0.047 0.006,-0.069 0.004,-0.013 0.01,-0.024 0.017,-0.031 0.004,-0.004 0.009,-0.008 0.014,-0.01 0.006,-0.002 0.011,-0.002 0.016,-0.001 -0.011,0.001 -0.02,0.006 -0.026,0.015zm-0.057 0.275c-0.005,0.004 -0.01,0.007 -0.016,0.008 -0.006,0.002 -0.012,0.001 -0.017,-0 0.011,-0.003 0.021,-0.008 0.028,-0.014 0.004,-0.002 0.007,-0.006 0.011,-0.011l0.005 -0.007 0.005 -0.007c-0.001,0.013 -0.007,0.024 -0.017,0.032zm-0.132 -0.314c-0.009,0.006 -0.017,0.014 -0.024,0.023 -0.013,0.017 -0.023,0.037 -0.031,0.061 -0.006,0.018 -0.012,0.04 -0.018,0.068 -0.003,0.019 -0.006,0.043 -0.008,0.071 -0.001,-0.023 -0,-0.047 0.003,-0.072 0.003,-0.026 0.009,-0.049 0.016,-0.07 0.009,-0.026 0.02,-0.046 0.034,-0.062 0.008,-0.01 0.017,-0.017 0.026,-0.023 0.011,-0.006 0.022,-0.009 0.032,-0.008 -0.011,0.001 -0.021,0.004 -0.03,0.011zm0.418 -0.043c-0.029,-0.003 -0.053,0.007 -0.069,0.029 -0.017,0.024 -0.025,0.06 -0.023,0.108 0.003,0.077 0.002,0.13 -0.003,0.159 -0.005,0.028 -0.015,0.041 -0.03,0.039 -0.016,-0.002 -0.02,-0.05 -0.012,-0.144 0.004,-0.051 0.001,-0.09 -0.011,-0.117 -0.011,-0.026 -0.029,-0.039 -0.054,-0.039 -0.029,-0.001 -0.051,0.015 -0.066,0.046 -0.013,0.026 -0.019,0.059 -0.018,0.098 0.002,0.103 -0.009,0.155 -0.032,0.154 -0.01,-0 -0.017,-0.01 -0.022,-0.029 -0.006,-0.025 -0.004,-0.06 0.004,-0.107 0.021,-0.126 0.007,-0.192 -0.043,-0.198 -0.02,-0.002 -0.038,0.003 -0.056,0.015 -0.019,0.012 -0.035,0.031 -0.049,0.057 -0.032,0.058 -0.047,0.135 -0.044,0.233 0.002,0.082 0.017,0.148 0.045,0.196 0.02,0.035 0.048,0.062 0.084,0.081 0.038,0.02 0.098,0.03 0.181,0.031 0.092,0 0.158,-0.015 0.199,-0.044 0.037,-0.027 0.065,-0.072 0.083,-0.134 0.006,-0.022 0.011,-0.045 0.016,-0.071 0.001,-0.01 0.003,-0.019 0.004,-0.03 0,-0.004 0.001,-0.008 0.001,-0.013l0.001 -0.005 0.001 -0.005c0.01,-0.099 0.008,-0.174 -0.005,-0.225 -0.014,-0.054 -0.04,-0.083 -0.08,-0.086zm0.618 0.39c-0.003,0.001 -0.005,0.003 -0.009,0.006l-0.004 0.003 -0.004 0.003c-0.007,0.005 -0.014,0.008 -0.021,0.01 -0.008,0.002 -0.015,0.002 -0.022,0 0.014,-0.003 0.027,-0.008 0.039,-0.017l0.004 -0.003 0.004 -0.003c0.004,-0.003 0.008,-0.004 0.01,-0.006 0.008,-0.003 0.015,-0.004 0.022,-0.002 -0.007,0.001 -0.013,0.004 -0.02,0.008zm-0.222 -0.292c-0.014,0.015 -0.027,0.033 -0.038,0.053 -0.01,0.017 -0.019,0.038 -0.027,0.062 0.005,-0.023 0.012,-0.045 0.022,-0.065 0.01,-0.021 0.022,-0.04 0.038,-0.056 0.016,-0.017 0.034,-0.03 0.054,-0.038 0.011,-0.004 0.021,-0.007 0.032,-0.008 0.012,-0.001 0.022,-0.002 0.032,-0.001 -0.023,0.001 -0.044,0.006 -0.061,0.014 -0.019,0.01 -0.036,0.022 -0.051,0.038zm0.307 0.339c-0.003,-0.045 -0.017,-0.073 -0.042,-0.085 -0.011,-0.005 -0.023,-0.006 -0.036,-0.004 -0.013,0.003 -0.026,0.009 -0.037,0.019 -0.012,0.009 -0.024,0.013 -0.036,0.011 -0.012,-0.001 -0.022,-0.008 -0.032,-0.018 -0.009,-0.011 -0.016,-0.025 -0.02,-0.042 -0.004,-0.019 -0.005,-0.039 -0.001,-0.06 0.005,-0.031 0.019,-0.049 0.043,-0.052 0.017,-0.002 0.041,0.003 0.072,0.016 0.013,0.006 0.026,0.006 0.037,0 0.011,-0.005 0.019,-0.014 0.025,-0.027 0.006,-0.013 0.008,-0.028 0.006,-0.045 -0.002,-0.018 -0.008,-0.035 -0.019,-0.052 -0.023,-0.036 -0.054,-0.06 -0.093,-0.074 -0.035,-0.013 -0.072,-0.015 -0.109,-0.006 -0.047,0.011 -0.087,0.043 -0.119,0.095 -0.035,0.057 -0.054,0.128 -0.056,0.214 -0.002,0.097 0.019,0.173 0.064,0.229 0.021,0.026 0.046,0.046 0.075,0.059 0.029,0.013 0.061,0.018 0.094,0.016 0.058,-0.004 0.104,-0.025 0.139,-0.064 0.034,-0.037 0.049,-0.079 0.046,-0.128zm0.313 0.011c-0.005,0.007 -0.012,0.013 -0.019,0.017 -0.007,0.004 -0.015,0.006 -0.023,0.005 0.015,-0.006 0.027,-0.015 0.036,-0.027 0.008,-0.012 0.014,-0.026 0.017,-0.044 0.003,0.018 -0,0.034 -0.011,0.049zm-0.082 -0.046c-0.001,-0.011 0.001,-0.021 0.005,-0.03 0.005,-0.009 0.012,-0.014 0.02,-0.015 0.008,-0.001 0.016,0.002 0.023,0.009 0.007,0.007 0.011,0.016 0.013,0.027 0.002,0.011 -0,0.021 -0.005,0.029 -0.005,0.009 -0.012,0.014 -0.02,0.015 -0.008,0.001 -0.016,-0.002 -0.023,-0.008 -0.007,-0.007 -0.011,-0.016 -0.012,-0.027zm-0.013 -0.331c-0.021,0.008 -0.039,0.02 -0.055,0.036 -0.015,0.014 -0.029,0.032 -0.042,0.054l-0.004 0.008 -0.004 0.008 -0.008 0.016 -0.007 0.017 -0.006 0.017c0.005,-0.024 0.013,-0.046 0.024,-0.068 0.011,-0.022 0.025,-0.041 0.042,-0.057 0.018,-0.017 0.037,-0.029 0.058,-0.037 0.01,-0.004 0.021,-0.006 0.033,-0.008l0.008 -0.001 0.008 -0 0.017 0.001c-0.024,0.001 -0.046,0.006 -0.064,0.014zm0.134 -0.037c-0.081,-0.024 -0.15,-0.011 -0.206,0.039 -0.049,0.044 -0.081,0.107 -0.095,0.19 -0.013,0.081 -0.006,0.156 0.021,0.226 0.029,0.076 0.076,0.123 0.139,0.144 0.06,0.019 0.117,0.004 0.172,-0.047 0.05,-0.046 0.086,-0.109 0.109,-0.188 0.023,-0.081 0.024,-0.155 0.004,-0.221 -0.023,-0.074 -0.071,-0.121 -0.144,-0.143zm0.483 0.441c-0.005,0.01 -0.012,0.017 -0.02,0.021 -0.009,0.005 -0.018,0.007 -0.027,0.005 0.009,-0.002 0.017,-0.005 0.024,-0.01 0.007,-0.005 0.012,-0.011 0.016,-0.019 0.004,-0.007 0.006,-0.016 0.008,-0.025 0.001,-0.008 0.001,-0.017 0,-0.028 0.004,0.009 0.006,0.018 0.006,0.028 -0,0.01 -0.002,0.02 -0.007,0.029zm-0.072 -0.033c-0.002,-0.009 -0.002,-0.017 0,-0.025 0.003,-0.008 0.007,-0.013 0.013,-0.015 0.006,-0.002 0.012,-0 0.018,0.004 0.006,0.005 0.01,0.012 0.013,0.021 0.003,0.009 0.003,0.017 0,0.025 -0.003,0.008 -0.007,0.013 -0.013,0.015 -0.006,0.002 -0.012,0.001 -0.018,-0.004 -0.006,-0.005 -0.01,-0.012 -0.013,-0.021zm-0.135 -0.299c-0.011,0.017 -0.021,0.04 -0.03,0.068 -0.007,0.021 -0.012,0.045 -0.018,0.074 0.001,-0.012 0.002,-0.025 0.004,-0.038 0.002,-0.014 0.005,-0.027 0.008,-0.038 0.007,-0.027 0.017,-0.051 0.03,-0.071 0.007,-0.011 0.015,-0.021 0.024,-0.029 0.01,-0.008 0.02,-0.015 0.03,-0.021 0.011,-0.006 0.022,-0.01 0.034,-0.014 0.013,-0.003 0.025,-0.005 0.035,-0.006 -0.025,0.005 -0.047,0.013 -0.066,0.025 -0.022,0.014 -0.039,0.03 -0.051,0.049zm0.137 0.138c-0.016,-0.002 -0.025,-0.011 -0.027,-0.027 -0.001,-0.007 -0.001,-0.014 0.002,-0.02 0.002,-0.007 0.006,-0.012 0.011,-0.016 0.011,-0.009 0.027,-0.015 0.047,-0.018 0.007,-0.001 0.016,-0.002 0.027,-0.003l0.013 -0.001 0.013 -0.001c0.02,-0.002 0.035,-0.005 0.045,-0.011 0.013,-0.007 0.021,-0.019 0.024,-0.035 0.003,-0.024 -0.005,-0.047 -0.024,-0.067 -0.019,-0.019 -0.044,-0.033 -0.075,-0.041 -0.033,-0.008 -0.066,-0.008 -0.099,-0.001 -0.037,0.009 -0.069,0.026 -0.095,0.052 -0.025,0.024 -0.044,0.061 -0.058,0.109 -0.014,0.046 -0.02,0.096 -0.019,0.15 0.001,0.056 0.009,0.106 0.024,0.15 0.017,0.049 0.041,0.085 0.072,0.108 0.027,0.02 0.056,0.034 0.088,0.04 0.031,0.006 0.06,0.004 0.089,-0.004 0.029,-0.009 0.053,-0.024 0.074,-0.046 0.022,-0.023 0.037,-0.051 0.045,-0.085 0.006,-0.025 0.008,-0.05 0.005,-0.074 -0.003,-0.027 -0.011,-0.051 -0.024,-0.072 -0.03,-0.051 -0.082,-0.079 -0.155,-0.087zm0.488 0.205l-0.006 0.002c-0.005,0.001 -0.009,0.003 -0.012,0.003 -0.009,0.002 -0.018,0.002 -0.025,0 0.008,-0.002 0.016,-0.004 0.024,-0.006l0.006 -0.002 0.006 -0.002c0.005,-0.002 0.009,-0.004 0.012,-0.004 0.009,-0.003 0.017,-0.005 0.025,-0.005 0.01,-0.001 0.018,-0.001 0.025,0.001 -0.014,0.003 -0.03,0.007 -0.048,0.013l-0.006 0.002zm-0.105 -0.404c-0.012,0.003 -0.023,0.008 -0.033,0.013 -0.012,0.007 -0.021,0.015 -0.029,0.023 -0.008,0.008 -0.015,0.018 -0.022,0.03 -0.01,0.018 -0.019,0.043 -0.027,0.072 -0.003,0.012 -0.006,0.025 -0.009,0.038 -0.001,0.005 -0.002,0.012 -0.004,0.019l-0.003 0.02c0.001,-0.028 0.005,-0.054 0.01,-0.079 0.006,-0.029 0.015,-0.054 0.026,-0.075 0.007,-0.013 0.015,-0.024 0.023,-0.032 0.01,-0.009 0.02,-0.017 0.031,-0.022 0.011,-0.005 0.022,-0.009 0.035,-0.012 0.013,-0.002 0.025,-0.003 0.037,-0.002 -0.014,0.001 -0.026,0.003 -0.036,0.006zm0.071 0.231l0.003 -0.001c0.003,-0.001 0.005,-0.001 0.007,-0.002 0.005,-0.001 0.01,-0 0.014,0.001 0.005,0.002 0.009,0.004 0.011,0.008 -0.003,-0.001 -0.007,-0.002 -0.012,-0.002 -0.004,0 -0.008,0.001 -0.012,0.001l-0.003 0 -0.003 0c-0.003,0.001 -0.005,0.001 -0.007,0.001 -0.005,0 -0.01,-0.001 -0.014,-0.002l0.006 -0.002 0.006 -0.002 0.003 -0.001zm0.015 0.14c-0.014,0.005 -0.026,0.006 -0.035,0.002 -0.008,-0.003 -0.013,-0.01 -0.015,-0.019 -0.002,-0.008 -0.001,-0.016 0.004,-0.024 0.005,-0.008 0.012,-0.012 0.022,-0.013 0.028,-0.002 0.049,-0.01 0.063,-0.023 0.013,-0.012 0.019,-0.028 0.019,-0.047 -0.001,-0.018 -0.008,-0.031 -0.022,-0.04 -0.015,-0.009 -0.032,-0.011 -0.053,-0.006 -0.018,0.004 -0.029,-0.001 -0.033,-0.016 -0.002,-0.006 -0.002,-0.013 0,-0.019 0.002,-0.007 0.006,-0.012 0.011,-0.016 0.008,-0.006 0.019,-0.01 0.034,-0.011 0.005,-0.001 0.012,-0.001 0.021,-0.002l0.011 0 0.011 -0.001c0.017,-0.001 0.031,-0.004 0.041,-0.008 0.013,-0.006 0.023,-0.015 0.029,-0.028 0.01,-0.023 0.006,-0.046 -0.01,-0.069 -0.015,-0.022 -0.039,-0.041 -0.07,-0.054 -0.033,-0.014 -0.066,-0.019 -0.099,-0.015 -0.038,0.004 -0.07,0.02 -0.097,0.046 -0.025,0.024 -0.045,0.064 -0.058,0.118 -0.012,0.05 -0.018,0.105 -0.017,0.165 0.001,0.06 0.008,0.113 0.021,0.16 0.015,0.05 0.034,0.085 0.058,0.103 0.024,0.018 0.054,0.027 0.09,0.026 0.033,-0 0.066,-0.008 0.099,-0.023 0.033,-0.014 0.06,-0.033 0.081,-0.056 0.023,-0.024 0.034,-0.049 0.035,-0.073 0.001,-0.033 -0.01,-0.055 -0.034,-0.066 -0.025,-0.011 -0.06,-0.008 -0.106,0.009zm0.451 -0.14c-0.003,0.008 -0.008,0.016 -0.014,0.022 -0.006,0.007 -0.013,0.012 -0.021,0.015 -0.008,0.003 -0.016,0.004 -0.024,0.002 0.008,-0.001 0.015,-0.004 0.022,-0.008 0.007,-0.004 0.013,-0.009 0.017,-0.014 0.01,-0.011 0.018,-0.025 0.024,-0.042 0.001,0.008 -0.001,0.017 -0.004,0.025zm-0.071 -0.038c0.004,-0.009 0.01,-0.015 0.017,-0.018 0.007,-0.004 0.013,-0.004 0.019,-0 0.005,0.003 0.009,0.009 0.01,0.017 0.001,0.008 -0.001,0.017 -0.005,0.025 -0.004,0.009 -0.01,0.015 -0.016,0.018 -0.007,0.004 -0.013,0.004 -0.019,0 -0.005,-0.003 -0.009,-0.009 -0.01,-0.017 -0.001,-0.008 0.001,-0.017 0.005,-0.025zm-0.057 -0.172c-0.018,0.009 -0.034,0.021 -0.047,0.036 -0.012,0.014 -0.024,0.031 -0.033,0.051 -0.008,0.016 -0.015,0.036 -0.021,0.06 0.001,-0.009 0.003,-0.019 0.006,-0.031 0.003,-0.011 0.006,-0.021 0.01,-0.031 0.008,-0.021 0.019,-0.039 0.033,-0.055 0.015,-0.016 0.032,-0.028 0.051,-0.036 0.009,-0.004 0.019,-0.006 0.029,-0.008 0.011,-0.001 0.021,-0.002 0.03,-0.002 -0.022,0.003 -0.041,0.008 -0.057,0.016zm0.075 -0.049c-0.053,-0.002 -0.097,0.013 -0.133,0.045 -0.032,0.028 -0.054,0.068 -0.068,0.12 -0.013,0.047 -0.017,0.099 -0.012,0.156 0.004,0.055 0.016,0.107 0.035,0.154 0.018,0.046 0.039,0.081 0.063,0.107 0.021,0.022 0.042,0.034 0.063,0.037 0.019,0.003 0.036,-0.003 0.05,-0.017 0.014,-0.014 0.023,-0.033 0.026,-0.057 0.003,-0.017 0.003,-0.036 0,-0.057 -0.001,-0.006 -0.002,-0.015 -0.004,-0.026l-0.002 -0.012c-0.001,-0.004 -0.001,-0.008 -0.002,-0.011 -0.002,-0.017 -0.001,-0.03 0.002,-0.039 0.004,-0.012 0.012,-0.021 0.025,-0.027 0.043,-0.021 0.076,-0.052 0.099,-0.094 0.021,-0.039 0.03,-0.079 0.026,-0.122 -0.004,-0.043 -0.02,-0.079 -0.048,-0.107 -0.03,-0.031 -0.071,-0.047 -0.122,-0.049zm0.472 0.452l-0.006 0.002c-0.005,0.001 -0.009,0.003 -0.012,0.003 -0.009,0.002 -0.018,0.002 -0.025,0 0.008,-0.002 0.016,-0.004 0.024,-0.006l0.006 -0.002 0.006 -0.002c0.005,-0.002 0.009,-0.004 0.012,-0.004 0.009,-0.003 0.017,-0.005 0.025,-0.005 0.01,-0.001 0.018,-0.001 0.025,0.001 -0.014,0.003 -0.03,0.007 -0.048,0.013l-0.006 0.002zm-0.105 -0.404c-0.012,0.003 -0.023,0.008 -0.033,0.013 -0.012,0.007 -0.021,0.015 -0.029,0.023 -0.008,0.008 -0.015,0.018 -0.022,0.03 -0.01,0.019 -0.019,0.043 -0.027,0.072 -0.003,0.012 -0.006,0.025 -0.009,0.038 -0.001,0.005 -0.002,0.012 -0.004,0.019l-0.003 0.02c0.001,-0.028 0.005,-0.054 0.01,-0.079 0.006,-0.029 0.015,-0.054 0.026,-0.075 0.007,-0.013 0.015,-0.024 0.023,-0.032 0.01,-0.009 0.02,-0.017 0.031,-0.022 0.011,-0.005 0.022,-0.009 0.035,-0.012 0.013,-0.002 0.025,-0.003 0.037,-0.002 -0.014,0.001 -0.026,0.003 -0.036,0.006zm0.071 0.231l0.003 -0.001c0.003,-0.001 0.005,-0.001 0.007,-0.002 0.005,-0.001 0.01,-0 0.014,0.001 0.005,0.002 0.009,0.004 0.011,0.008 -0.003,-0.001 -0.007,-0.001 -0.012,-0.002 -0.004,0 -0.008,0.001 -0.012,0.001l-0.003 0 -0.003 0c-0.003,0.001 -0.005,0.001 -0.007,0.001 -0.005,0 -0.01,-0.001 -0.013,-0.002l0.006 -0.002 0.006 -0.002 0.003 -0.001zm0.015 0.14c-0.014,0.005 -0.026,0.006 -0.035,0.002 -0.008,-0.003 -0.013,-0.01 -0.015,-0.019 -0.002,-0.008 -0.001,-0.016 0.004,-0.024 0.005,-0.008 0.012,-0.012 0.022,-0.013 0.028,-0.002 0.049,-0.01 0.063,-0.023 0.013,-0.012 0.019,-0.028 0.019,-0.047 -0.001,-0.018 -0.008,-0.031 -0.023,-0.04 -0.015,-0.009 -0.032,-0.011 -0.053,-0.006 -0.018,0.004 -0.029,-0.001 -0.033,-0.016 -0.002,-0.006 -0.002,-0.013 0,-0.019 0.002,-0.007 0.006,-0.012 0.011,-0.016 0.008,-0.006 0.019,-0.01 0.034,-0.011 0.005,-0.001 0.012,-0.001 0.021,-0.002l0.011 -0 0.011 -0.001c0.017,-0.001 0.031,-0.004 0.041,-0.008 0.013,-0.006 0.023,-0.015 0.029,-0.028 0.01,-0.022 0.006,-0.046 -0.01,-0.069 -0.015,-0.022 -0.039,-0.041 -0.07,-0.054 -0.033,-0.014 -0.066,-0.019 -0.099,-0.015 -0.038,0.004 -0.07,0.02 -0.097,0.046 -0.025,0.024 -0.045,0.064 -0.058,0.118 -0.012,0.05 -0.018,0.105 -0.017,0.165 0.001,0.06 0.008,0.113 0.021,0.16 0.015,0.05 0.034,0.085 0.058,0.103 0.024,0.018 0.054,0.027 0.09,0.026 0.033,-0 0.066,-0.008 0.099,-0.023 0.033,-0.014 0.06,-0.033 0.081,-0.056 0.023,-0.024 0.034,-0.049 0.035,-0.073 0.001,-0.033 -0.01,-0.055 -0.034,-0.066 -0.025,-0.011 -0.06,-0.008 -0.106,0.009zm0.673 -0.016c-0.002,0.001 -0.005,0.003 -0.009,0.006l-0.004 0.003 -0.004 0.003c-0.007,0.005 -0.014,0.008 -0.021,0.01 -0.008,0.002 -0.015,0.002 -0.022,0 0.014,-0.003 0.027,-0.008 0.039,-0.017l0.004 -0.003 0.004 -0.003c0.004,-0.003 0.008,-0.004 0.01,-0.006 0.008,-0.003 0.015,-0.004 0.022,-0.002 -0.007,0.001 -0.013,0.004 -0.02,0.008zm-0.222 -0.292c-0.014,0.015 -0.027,0.033 -0.038,0.054 -0.01,0.017 -0.019,0.038 -0.027,0.062 0.005,-0.023 0.012,-0.045 0.022,-0.066 0.01,-0.021 0.022,-0.04 0.038,-0.056 0.016,-0.017 0.034,-0.03 0.054,-0.038 0.011,-0.004 0.021,-0.007 0.032,-0.008 0.012,-0.001 0.022,-0.002 0.032,-0.001 -0.023,0.002 -0.043,0.006 -0.061,0.014 -0.019,0.01 -0.036,0.022 -0.051,0.038zm0.307 0.339c-0.003,-0.045 -0.017,-0.073 -0.042,-0.085 -0.011,-0.005 -0.023,-0.006 -0.036,-0.003 -0.013,0.003 -0.026,0.009 -0.037,0.019 -0.012,0.009 -0.024,0.013 -0.036,0.011 -0.012,-0.001 -0.022,-0.008 -0.032,-0.018 -0.009,-0.011 -0.016,-0.025 -0.02,-0.042 -0.004,-0.019 -0.005,-0.039 -0.001,-0.06 0.005,-0.031 0.019,-0.049 0.043,-0.052 0.017,-0.002 0.041,0.003 0.072,0.016 0.013,0.005 0.026,0.005 0.037,0 0.011,-0.005 0.019,-0.014 0.025,-0.027 0.006,-0.013 0.008,-0.028 0.006,-0.045 -0.002,-0.018 -0.008,-0.035 -0.019,-0.052 -0.023,-0.036 -0.054,-0.06 -0.093,-0.074 -0.035,-0.013 -0.072,-0.015 -0.109,-0.006 -0.047,0.011 -0.087,0.043 -0.119,0.095 -0.035,0.057 -0.054,0.128 -0.056,0.214 -0.002,0.097 0.019,0.173 0.064,0.229 0.021,0.026 0.046,0.046 0.075,0.059 0.029,0.013 0.061,0.018 0.095,0.016 0.058,-0.004 0.104,-0.025 0.139,-0.064 0.034,-0.037 0.049,-0.079 0.046,-0.128z"/>
   <path class="fil0" d="M13.927 0.371c-0.005,0.005 -0.011,0.012 -0.016,0.02 -0.008,0.011 -0.018,0.026 -0.028,0.044l-0.007 0.011 -0.007 0.011c-0.005,0.009 -0.01,0.016 -0.014,0.022 -0.007,0.009 -0.012,0.016 -0.017,0.02 -0.008,0.007 -0.015,0.011 -0.023,0.012 0.007,-0.003 0.014,-0.008 0.02,-0.015 0.004,-0.005 0.009,-0.012 0.015,-0.021 0.003,-0.005 0.007,-0.013 0.013,-0.023l0.013 -0.023c0.011,-0.019 0.021,-0.034 0.03,-0.044 0.007,-0.008 0.013,-0.014 0.019,-0.019 0.009,-0.006 0.017,-0.009 0.023,-0.009 -0.007,0.001 -0.014,0.005 -0.021,0.012zm-0.265 0.381c-0.007,0.005 -0.012,0.009 -0.016,0.013 -0.012,0.009 -0.022,0.019 -0.029,0.028 -0.004,0.006 -0.007,0.012 -0.01,0.018 -0.002,0.005 -0.004,0.012 -0.006,0.021 -0,-0.007 0.001,-0.014 0.003,-0.022 0.002,-0.007 0.005,-0.014 0.009,-0.02 0.006,-0.01 0.016,-0.02 0.029,-0.031 0.009,-0.007 0.02,-0.015 0.034,-0.023l0.009 -0.005 0.008 -0.005c0.007,-0.004 0.012,-0.008 0.017,-0.011 -0.007,0.009 -0.018,0.018 -0.031,0.028l-0.016 0.012zm-0.059 -0.352c-0.004,0.006 -0.007,0.012 -0.009,0.021 -0.002,0.007 -0.003,0.015 -0.003,0.024 -0.003,-0.008 -0.004,-0.016 -0.002,-0.025 0.001,-0.009 0.004,-0.017 0.009,-0.024 0.005,-0.007 0.012,-0.013 0.019,-0.016 0.008,-0.004 0.015,-0.004 0.023,-0.003 -0.016,0.003 -0.028,0.011 -0.037,0.024zm0.345 -0.075c-0.016,-0 -0.032,0.007 -0.048,0.023 -0.012,0.012 -0.025,0.029 -0.04,0.053l-0.009 0.015 -0.004 0.007 -0.004 0.007c-0.007,0.011 -0.012,0.02 -0.015,0.025 -0.01,0.016 -0.019,0.024 -0.024,0.024 -0.006,-0 -0.018,-0.012 -0.037,-0.035l-0.003 -0.004 -0.004 -0.004c-0.003,-0.003 -0.005,-0.006 -0.007,-0.008 -0.005,-0.007 -0.011,-0.013 -0.015,-0.019 -0.012,-0.014 -0.025,-0.027 -0.037,-0.038 -0.019,-0.018 -0.04,-0.027 -0.061,-0.027 -0.02,-0 -0.037,0.006 -0.052,0.02 -0.015,0.014 -0.024,0.031 -0.028,0.053 -0.004,0.023 -0,0.045 0.011,0.068 0.008,0.016 0.02,0.034 0.036,0.052 0.006,0.007 0.013,0.015 0.022,0.023l0.011 0.011 0.011 0.011c0.018,0.018 0.03,0.031 0.037,0.04 0.01,0.013 0.016,0.025 0.017,0.036 0.001,0.011 -0.006,0.022 -0.019,0.034 -0.005,0.004 -0.012,0.009 -0.021,0.016l-0.006 0.004 -0.006 0.004 -0.013 0.008c-0.021,0.015 -0.036,0.028 -0.047,0.042 -0.015,0.019 -0.023,0.04 -0.025,0.064 -0.001,0.018 0.001,0.035 0.008,0.051 0.006,0.015 0.016,0.028 0.029,0.038 0.029,0.022 0.066,0.026 0.11,0.013 0.059,-0.018 0.12,-0.072 0.18,-0.161 0.055,-0.08 0.09,-0.157 0.107,-0.23 0.017,-0.075 0.019,-0.131 0.006,-0.167 -0.011,-0.031 -0.031,-0.046 -0.062,-0.047zm0.373 0.267c-0.003,0.008 -0.008,0.016 -0.014,0.022 -0.006,0.007 -0.013,0.012 -0.021,0.015 -0.008,0.003 -0.016,0.004 -0.024,0.002 0.008,-0.001 0.015,-0.004 0.022,-0.008 0.007,-0.004 0.013,-0.009 0.017,-0.014 0.01,-0.011 0.018,-0.025 0.024,-0.042 0.001,0.008 -0.001,0.017 -0.004,0.025zm-0.071 -0.038c0.004,-0.009 0.01,-0.015 0.017,-0.018 0.007,-0.004 0.013,-0.004 0.019,-0 0.005,0.003 0.009,0.009 0.01,0.017 0.001,0.008 -0.001,0.017 -0.005,0.025 -0.004,0.009 -0.01,0.015 -0.016,0.018 -0.007,0.004 -0.013,0.004 -0.019,0 -0.005,-0.003 -0.009,-0.009 -0.01,-0.017 -0.001,-0.008 0.001,-0.017 0.005,-0.025zm-0.057 -0.172c-0.018,0.009 -0.034,0.021 -0.047,0.036 -0.012,0.014 -0.024,0.031 -0.033,0.051 -0.008,0.016 -0.015,0.036 -0.021,0.059 0.001,-0.009 0.003,-0.019 0.006,-0.031 0.003,-0.011 0.006,-0.021 0.01,-0.031 0.008,-0.021 0.019,-0.039 0.033,-0.055 0.015,-0.016 0.032,-0.028 0.051,-0.036 0.009,-0.004 0.019,-0.006 0.029,-0.008 0.011,-0.001 0.021,-0.002 0.03,-0.002 -0.022,0.003 -0.041,0.008 -0.057,0.016zm0.075 -0.049c-0.053,-0.002 -0.097,0.013 -0.133,0.045 -0.032,0.028 -0.054,0.068 -0.068,0.12 -0.013,0.047 -0.017,0.099 -0.012,0.156 0.004,0.055 0.016,0.107 0.035,0.154 0.018,0.046 0.039,0.081 0.063,0.106 0.021,0.022 0.042,0.034 0.063,0.037 0.019,0.003 0.036,-0.003 0.05,-0.017 0.014,-0.014 0.023,-0.033 0.026,-0.057 0.003,-0.017 0.003,-0.036 0,-0.057 -0.001,-0.006 -0.002,-0.015 -0.004,-0.026l-0.002 -0.012c-0.001,-0.004 -0.001,-0.008 -0.002,-0.011 -0.002,-0.017 -0.001,-0.03 0.002,-0.039 0.004,-0.012 0.012,-0.021 0.025,-0.027 0.043,-0.021 0.076,-0.052 0.099,-0.094 0.021,-0.039 0.03,-0.079 0.026,-0.122 -0.004,-0.043 -0.02,-0.079 -0.048,-0.107 -0.03,-0.031 -0.071,-0.047 -0.122,-0.049zm0.472 0.452l-0.006 0.002c-0.005,0.001 -0.009,0.003 -0.012,0.003 -0.009,0.002 -0.018,0.002 -0.025,0 0.008,-0.002 0.016,-0.004 0.024,-0.006l0.006 -0.002 0.006 -0.002c0.005,-0.002 0.009,-0.004 0.012,-0.004 0.009,-0.003 0.017,-0.005 0.025,-0.005 0.01,-0.001 0.018,-0.001 0.025,0.001 -0.014,0.003 -0.03,0.007 -0.048,0.013l-0.006 0.002zm-0.105 -0.404c-0.012,0.003 -0.023,0.008 -0.033,0.013 -0.012,0.007 -0.021,0.015 -0.029,0.023 -0.008,0.008 -0.015,0.018 -0.022,0.03 -0.01,0.019 -0.019,0.043 -0.027,0.072 -0.003,0.012 -0.006,0.025 -0.009,0.038 -0.001,0.005 -0.002,0.012 -0.004,0.019l-0.003 0.02c0.001,-0.028 0.005,-0.054 0.01,-0.079 0.006,-0.029 0.015,-0.054 0.026,-0.075 0.007,-0.013 0.015,-0.024 0.023,-0.032 0.01,-0.009 0.02,-0.017 0.031,-0.022 0.011,-0.005 0.022,-0.009 0.035,-0.012 0.013,-0.002 0.025,-0.003 0.037,-0.002 -0.014,0.001 -0.026,0.003 -0.036,0.006zm0.071 0.231l0.003 -0.001c0.003,-0.001 0.005,-0.001 0.007,-0.002 0.005,-0.001 0.01,-0 0.014,0.001 0.005,0.002 0.009,0.004 0.011,0.008 -0.003,-0.001 -0.007,-0.001 -0.012,-0.002 -0.004,0 -0.008,0.001 -0.012,0.001l-0.003 0 -0.003 0c-0.003,0.001 -0.005,0.001 -0.007,0.001 -0.005,0 -0.01,-0.001 -0.014,-0.002l0.006 -0.002 0.006 -0.002 0.003 -0.001zm0.015 0.14c-0.014,0.005 -0.026,0.006 -0.035,0.002 -0.008,-0.003 -0.013,-0.01 -0.015,-0.019 -0.002,-0.008 -0.001,-0.016 0.004,-0.024 0.005,-0.008 0.012,-0.012 0.022,-0.013 0.028,-0.002 0.049,-0.01 0.063,-0.023 0.013,-0.012 0.019,-0.028 0.019,-0.047 -0.001,-0.018 -0.008,-0.031 -0.022,-0.04 -0.015,-0.009 -0.032,-0.011 -0.053,-0.006 -0.018,0.004 -0.029,-0.001 -0.033,-0.016 -0.002,-0.006 -0.002,-0.013 0,-0.019 0.002,-0.007 0.006,-0.012 0.011,-0.016 0.008,-0.006 0.019,-0.01 0.034,-0.011 0.005,-0.001 0.012,-0.001 0.021,-0.002l0.011 -0 0.011 -0.001c0.017,-0.001 0.031,-0.004 0.041,-0.008 0.013,-0.006 0.023,-0.015 0.029,-0.028 0.01,-0.022 0.006,-0.046 -0.01,-0.069 -0.015,-0.022 -0.039,-0.041 -0.07,-0.054 -0.033,-0.014 -0.066,-0.019 -0.099,-0.015 -0.038,0.004 -0.07,0.02 -0.097,0.046 -0.025,0.024 -0.044,0.064 -0.058,0.118 -0.012,0.05 -0.018,0.105 -0.017,0.165 0.001,0.06 0.008,0.113 0.021,0.16 0.015,0.05 0.034,0.085 0.058,0.103 0.024,0.018 0.054,0.027 0.09,0.026 0.033,-0 0.066,-0.008 0.099,-0.023 0.033,-0.014 0.06,-0.033 0.081,-0.056 0.023,-0.024 0.034,-0.049 0.035,-0.073 0.001,-0.033 -0.01,-0.055 -0.034,-0.066 -0.025,-0.011 -0.06,-0.008 -0.106,0.009zm0.566 0.009c-0.003,0.01 -0.008,0.018 -0.015,0.024 -0.007,0.006 -0.015,0.009 -0.025,0.011 -0.009,0.002 -0.017,0.001 -0.026,-0.001 0.01,-0.002 0.019,-0.004 0.024,-0.006 0.009,-0.003 0.016,-0.007 0.022,-0.011 0.006,-0.005 0.011,-0.012 0.014,-0.02 0.002,-0.006 0.005,-0.015 0.007,-0.026 0.002,0.01 0.002,0.019 -0.001,0.028zm-0.101 -0.014c-0.005,-0.01 -0.003,-0.026 0.006,-0.049 0.009,-0.023 0.019,-0.034 0.03,-0.033 0.013,0.001 0.023,0.013 0.03,0.037 0.003,0.01 0.005,0.019 0.005,0.029 0,0.01 -0.001,0.017 -0.004,0.021 -0.004,0.007 -0.015,0.01 -0.033,0.009 -0.018,-0.001 -0.029,-0.006 -0.034,-0.015zm-0.047 -0.28c-0.012,0.017 -0.022,0.036 -0.032,0.058 -0.008,0.016 -0.016,0.037 -0.026,0.062 0.005,-0.021 0.012,-0.043 0.021,-0.064 0.008,-0.02 0.019,-0.04 0.031,-0.06 0.014,-0.021 0.028,-0.038 0.043,-0.05 0.009,-0.007 0.018,-0.012 0.028,-0.017 0.011,-0.004 0.021,-0.006 0.031,-0.006 -0.018,0.002 -0.036,0.011 -0.055,0.028 -0.014,0.013 -0.028,0.03 -0.041,0.049zm-0.183 0.334c-0.006,0.003 -0.012,0.007 -0.016,0.01 -0.005,0.004 -0.008,0.01 -0.01,0.016 -0.001,-0.008 0.001,-0.015 0.006,-0.021 0.004,-0.005 0.009,-0.009 0.016,-0.013 0.012,-0.006 0.025,-0.01 0.038,-0.009l-0.009 0.004 -0.009 0.004c-0.007,0.003 -0.013,0.006 -0.017,0.008zm0.484 -0.04c-0.011,-0.004 -0.018,-0.008 -0.023,-0.014 -0.004,-0.006 -0.007,-0.014 -0.009,-0.025 -0.001,-0.006 -0.002,-0.019 -0.003,-0.039 -0,-0.01 -0.001,-0.019 -0.001,-0.026 -0.001,-0.011 -0.001,-0.021 -0.003,-0.031 -0.009,-0.085 -0.029,-0.152 -0.06,-0.199 -0.029,-0.044 -0.064,-0.067 -0.104,-0.069 -0.035,-0.002 -0.07,0.018 -0.104,0.059 -0.035,0.041 -0.062,0.095 -0.082,0.161 -0.008,0.026 -0.014,0.053 -0.019,0.08 -0.001,0.005 -0.002,0.01 -0.003,0.015l-0.001 0.007 -0.001 0.006c-0.002,0.011 -0.003,0.018 -0.004,0.023 -0.003,0.014 -0.007,0.024 -0.012,0.03 -0.005,0.007 -0.014,0.011 -0.027,0.014 -0.035,0.007 -0.059,0.02 -0.073,0.039 -0.013,0.017 -0.016,0.038 -0.011,0.062 0.008,0.035 0.043,0.063 0.105,0.085 0.056,0.019 0.125,0.031 0.209,0.036 0.076,0.004 0.135,0.003 0.176,-0.004 0.061,-0.009 0.101,-0.03 0.119,-0.063 0.017,-0.031 0.019,-0.06 0.005,-0.087 -0.014,-0.026 -0.039,-0.046 -0.076,-0.058zm0.376 0.047c-0.008,0.007 -0.017,0.013 -0.028,0.018 -0.019,0.007 -0.04,0.009 -0.065,0.006 -0.004,-0.001 -0.01,-0.002 -0.016,-0.003l-0.008 -0.002 -0.007 -0.002c-0.01,-0.002 -0.02,-0.004 -0.031,-0.005 -0.012,-0.001 -0.022,0 -0.031,0.003 -0.011,0.004 -0.019,0.011 -0.023,0.022 0.003,-0.011 0.01,-0.02 0.022,-0.025 0.009,-0.004 0.019,-0.006 0.032,-0.006 0.009,-0 0.02,0.001 0.032,0.003l0.008 0.002 0.008 0.002c0.006,0.001 0.011,0.002 0.015,0.003 0.022,0.003 0.043,0.002 0.062,-0.004 0.011,-0.003 0.02,-0.008 0.028,-0.014 0.009,-0.006 0.016,-0.015 0.022,-0.024 -0.004,0.01 -0.011,0.019 -0.02,0.028zm-0.008 -0.186c-0.011,0.009 -0.027,0.014 -0.047,0.017 -0.007,0.001 -0.015,0.002 -0.025,0.002l-0.006 -0 -0.006 -0c-0.005,0 -0.008,0 -0.012,0.001 -0.009,0.001 -0.016,0.004 -0.022,0.008 -0.007,0.004 -0.012,0.01 -0.014,0.019 0.001,-0.009 0.005,-0.017 0.012,-0.023 0.006,-0.005 0.014,-0.008 0.023,-0.01 0.003,-0.001 0.008,-0.001 0.012,-0.002l0.006 -0 0.006 -0 0.012 -0.001c0.004,-0 0.009,-0.001 0.012,-0.001 0.009,-0.001 0.017,-0.003 0.023,-0.005 0.008,-0.003 0.015,-0.006 0.021,-0.01 0.013,-0.008 0.022,-0.022 0.026,-0.041 -0.001,0.021 -0.008,0.036 -0.023,0.046zm-0.054 -0.215c-0.007,0.001 -0.017,0.002 -0.029,0.005 -0.021,0.005 -0.04,0.011 -0.055,0.02 -0.018,0.01 -0.033,0.022 -0.046,0.037 -0.006,0.008 -0.011,0.016 -0.015,0.026 -0.004,0.01 -0.006,0.02 -0.006,0.031 -0.002,-0.01 -0.001,-0.02 0.003,-0.032 0.004,-0.011 0.008,-0.02 0.015,-0.029 0.011,-0.016 0.027,-0.03 0.047,-0.041 0.018,-0.01 0.037,-0.016 0.057,-0.019 0.013,-0.002 0.023,-0.003 0.03,-0.002 0.007,-0 0.017,-0 0.03,0.001l-0.008 0.001 -0.007 0c-0.006,0.001 -0.011,0.001 -0.015,0.002zm0.28 0.227c-0.005,-0.076 -0.029,-0.138 -0.071,-0.185 -0.039,-0.044 -0.088,-0.07 -0.147,-0.076 -0.053,-0.006 -0.1,-0.001 -0.139,0.015 -0.034,0.014 -0.061,0.034 -0.08,0.06 -0.017,0.023 -0.026,0.048 -0.026,0.073 0,0.024 0.008,0.042 0.024,0.053 0.03,0.021 0.074,0.014 0.13,-0.021 0.021,-0.013 0.04,-0.017 0.055,-0.012 0.013,0.004 0.02,0.013 0.02,0.025 -0,0.014 -0.005,0.023 -0.015,0.029 -0.011,0.006 -0.031,0.009 -0.06,0.01 -0.029,0 -0.051,0.01 -0.066,0.029 -0.013,0.017 -0.017,0.037 -0.011,0.059 0.005,0.02 0.016,0.034 0.033,0.042 0.018,0.009 0.038,0.008 0.061,-0.002 0.019,-0.009 0.035,-0.01 0.049,-0.004 0.013,0.005 0.02,0.013 0.021,0.024 0.001,0.006 -0.001,0.012 -0.005,0.018 -0.004,0.007 -0.011,0.012 -0.019,0.017 -0.021,0.011 -0.047,0.012 -0.079,0.004 -0.048,-0.013 -0.084,-0.01 -0.108,0.01 -0.021,0.016 -0.03,0.041 -0.028,0.074 0.002,0.025 0.013,0.047 0.033,0.065 0.018,0.016 0.042,0.029 0.072,0.037 0.059,0.016 0.117,0.016 0.172,-0.002 0.066,-0.021 0.115,-0.063 0.147,-0.124 0.031,-0.059 0.044,-0.131 0.038,-0.216zm0.248 0.01c-0.008,0.006 -0.017,0.012 -0.029,0.016 -0.012,0.004 -0.021,0.008 -0.028,0.012 -0.01,0.007 -0.016,0.015 -0.017,0.025 -0.001,-0.006 0,-0.011 0.003,-0.017 0.002,-0.005 0.006,-0.01 0.011,-0.014 0.007,-0.005 0.016,-0.01 0.029,-0.014 0.01,-0.003 0.019,-0.008 0.027,-0.013 0.009,-0.006 0.017,-0.014 0.022,-0.022 -0.003,0.011 -0.009,0.02 -0.018,0.028zm-0.117 0.193c-0.014,-0.002 -0.025,-0.002 -0.034,-0.002 -0.007,0.001 -0.012,0.002 -0.015,0.004 -0.002,0.001 -0.004,0.003 -0.005,0.006l-0.001 0.005 -0.001 0.004c0,-0.004 0,-0.007 0.001,-0.009 0.001,-0.004 0.002,-0.007 0.004,-0.009 0.004,-0.004 0.009,-0.006 0.017,-0.007 0.009,-0.001 0.021,-0.001 0.035,0 0.009,0.001 0.02,0.003 0.034,0.006l0.017 0.003 0.017 0.004c-0.01,0.001 -0.022,0.001 -0.035,-0l-0.017 -0.002 -0.017 -0.002zm0.037 -0.401c-0.017,0.007 -0.031,0.014 -0.041,0.021 -0.006,0.004 -0.012,0.008 -0.019,0.013 -0.006,0.004 -0.011,0.01 -0.017,0.016 -0.011,0.014 -0.017,0.028 -0.017,0.044 -0.001,-0.008 -0.001,-0.016 0.001,-0.025 0.002,-0.008 0.006,-0.015 0.011,-0.023 0.008,-0.012 0.02,-0.022 0.036,-0.032 0.027,-0.017 0.057,-0.026 0.088,-0.029 -0.015,0.005 -0.029,0.01 -0.043,0.015zm0.242 0.308c-0.007,-0.01 -0.014,-0.02 -0.023,-0.028 -0.006,-0.006 -0.013,-0.011 -0.021,-0.017l-0.004 -0.003 -0.004 -0.003c-0.003,-0.002 -0.005,-0.004 -0.007,-0.005 -0.004,-0.003 -0.006,-0.007 -0.006,-0.011 -0,-0.005 0.003,-0.011 0.01,-0.018 0.002,-0.003 0.006,-0.006 0.011,-0.011l0.003 -0.003 0.004 -0.003 0.007 -0.007c0.012,-0.011 0.021,-0.022 0.028,-0.033 0.009,-0.014 0.015,-0.03 0.018,-0.046 0.007,-0.042 -0,-0.078 -0.022,-0.108 -0.023,-0.032 -0.06,-0.053 -0.109,-0.062 -0.024,-0.005 -0.052,-0.005 -0.082,-0 -0.03,0.005 -0.058,0.013 -0.084,0.026 -0.028,0.014 -0.049,0.03 -0.064,0.049 -0.017,0.022 -0.024,0.045 -0.021,0.07 0.005,0.062 0.053,0.082 0.144,0.058 0.015,-0.004 0.027,-0.005 0.037,-0.004 0.008,0.001 0.013,0.004 0.014,0.009 0.002,0.005 -0.001,0.01 -0.006,0.015 -0.006,0.006 -0.015,0.01 -0.026,0.014 -0.042,0.014 -0.062,0.038 -0.062,0.072 0,0.017 0.006,0.031 0.016,0.043 0.011,0.012 0.027,0.018 0.045,0.017 0.019,0 0.03,0.006 0.035,0.019 0.002,0.005 0.002,0.01 -0.001,0.015 -0.002,0.005 -0.006,0.01 -0.012,0.013 -0.009,0.004 -0.024,0.005 -0.046,0.003 -0.004,-0 -0.009,-0.001 -0.014,-0.002l-0.015 -0.002c-0.012,-0.002 -0.022,-0.003 -0.03,-0.004 -0.023,-0.002 -0.04,0 -0.052,0.006 -0.015,0.008 -0.024,0.023 -0.027,0.046 -0.003,0.026 0.008,0.051 0.032,0.076 0.022,0.023 0.052,0.042 0.088,0.056 0.038,0.014 0.075,0.021 0.111,0.019 0.04,-0.002 0.073,-0.013 0.099,-0.033 0.036,-0.029 0.057,-0.066 0.061,-0.113 0.005,-0.042 -0.004,-0.079 -0.025,-0.111z"/>
  </g>
 </g>
</svg>
