<?xml version="1.0" encoding="UTF-8"?>
<!DOCTYPE svg PUBLIC "-//W3C//DTD SVG 1.1//EN" "http://www.w3.org/Graphics/SVG/1.1/DTD/svg11.dtd">
<!-- Creator: CorelDRAW 2019 (64-Bit) -->
<svg xmlns="http://www.w3.org/2000/svg" xml:space="preserve" width="1.03961cm" height="0.14846cm" version="1.1" style="shape-rendering:geometricPrecision; text-rendering:geometricPrecision; image-rendering:optimizeQuality; fill-rule:evenodd; clip-rule:evenodd"
viewBox="0 0 0.959 0.137"
 xmlns:xlink="http://www.w3.org/1999/xlink"
 xmlns:xodm="http://www.corel.com/coreldraw/odm/2003">
 <defs>
  <style type="text/css">
   <![CDATA[
    .fil0 {fill:#A39F6B;fill-rule:nonzero}
   ]]>
  </style>
 </defs>
 <g id="Слой_x0020_1">
  <metadata id="CorelCorpID_0Corel-Layer"/>
  <path class="fil0" d="M0.032 0.012c-0.001,0 -0.001,0.001 -0.002,0.001l-0.002 0.001 -0.002 0.001c-0.001,0 -0.001,0.001 -0.002,0.001 -0.002,0.001 -0.004,0.003 -0.006,0.005 -0.002,0.003 -0.004,0.005 -0.005,0.006 -0.003,0.004 -0.005,0.01 -0.006,0.016 -0,0.001 -0,0.003 -0.001,0.004l-0 0.004c-0,0.001 -0,0.003 -0,0.004l-0 0.004c-0.001,-0.006 -0.001,-0.012 -0,-0.018 0.001,-0.006 0.002,-0.012 0.006,-0.017l0.001 -0.002 0.001 -0.002c0,-0 0.001,-0.001 0.001,-0.002l0.001 -0.001 0.001 -0.001c0.003,-0.002 0.005,-0.004 0.007,-0.005 0.004,-0.003 0.01,-0.005 0.015,-0.006l-0.002 0.001 -0.002 0.001c-0.001,0.001 -0.003,0.001 -0.004,0.002zm0.062 0.018c-0.005,-0.011 -0.012,-0.02 -0.023,-0.025 -0.009,-0.005 -0.019,-0.006 -0.03,-0.004 -0.011,0.002 -0.02,0.007 -0.027,0.014 -0.008,0.008 -0.012,0.018 -0.013,0.029 -0.002,0.022 0.001,0.043 0.009,0.063 0.004,0.009 0.008,0.017 0.012,0.022 0.005,0.005 0.009,0.008 0.014,0.007 0.007,-0.001 0.01,-0.005 0.012,-0.012 0.002,-0.008 0.001,-0.023 -0.003,-0.043 -0.003,-0.016 -0.001,-0.025 0.005,-0.026 0.003,-0 0.006,0.002 0.008,0.008 0.002,0.006 0.003,0.013 0.002,0.022 -0.001,0.019 0.001,0.033 0.006,0.041 0.003,0.006 0.008,0.008 0.015,0.008 0.006,-0 0.01,-0.004 0.014,-0.012 0.004,-0.007 0.006,-0.016 0.007,-0.027 0.001,-0.011 0.001,-0.022 0,-0.034 -0.001,-0.012 -0.004,-0.023 -0.008,-0.032zm0.077 0.027c-0.001,0.002 -0.002,0.003 -0.003,0.005 -0.001,0.002 -0.003,0.003 -0.004,0.003 -0.002,0.001 -0.004,0.001 -0.005,0.001 0.002,-0 0.003,-0.001 0.005,-0.002 0.001,-0.001 0.003,-0.002 0.004,-0.003 0.002,-0.002 0.004,-0.006 0.005,-0.009 0,0.002 -0,0.004 -0.001,0.006zm-0.016 -0.008c0.001,-0.002 0.002,-0.003 0.004,-0.004 0.002,-0.001 0.003,-0.001 0.004,-0 0.001,0.001 0.002,0.002 0.002,0.004 0,0.002 -0,0.004 -0.001,0.006 -0.001,0.002 -0.002,0.003 -0.004,0.004 -0.002,0.001 -0.003,0.001 -0.004,0 -0.001,-0.001 -0.002,-0.002 -0.002,-0.004 -0,-0.002 0,-0.004 0.001,-0.006zm-0.013 -0.038c-0.004,0.002 -0.007,0.005 -0.01,0.008 -0.003,0.003 -0.005,0.007 -0.007,0.012 -0.002,0.004 -0.003,0.008 -0.004,0.013 0,-0.002 0.001,-0.004 0.001,-0.007 0.001,-0.002 0.001,-0.005 0.002,-0.007 0.002,-0.005 0.004,-0.009 0.007,-0.012 0.003,-0.004 0.007,-0.006 0.011,-0.008 0.002,-0.001 0.004,-0.002 0.006,-0.002 0.002,-0 0.005,-0.001 0.007,-0.001 -0.005,0.001 -0.009,0.002 -0.012,0.004zm0.016 -0.011c-0.012,-0 -0.021,0.003 -0.029,0.011 -0.007,0.006 -0.012,0.015 -0.014,0.027 -0.003,0.011 -0.003,0.022 -0.002,0.035 0.001,0.012 0.004,0.023 0.009,0.034 0.004,0.01 0.009,0.018 0.014,0.023 0.005,0.005 0.009,0.007 0.014,0.008 0.004,0 0.008,-0.001 0.011,-0.004 0.003,-0.003 0.005,-0.007 0.006,-0.013 0,-0.004 0,-0.008 -0,-0.013 -0,-0.001 -0.001,-0.003 -0.001,-0.006l-0 -0.003c-0,-0.001 -0,-0.002 -0,-0.002 -0.001,-0.004 -0,-0.007 0,-0.009 0.001,-0.003 0.003,-0.005 0.005,-0.006 0.009,-0.005 0.017,-0.012 0.021,-0.021 0.005,-0.009 0.006,-0.018 0.005,-0.027 -0.001,-0.009 -0.005,-0.017 -0.011,-0.023 -0.007,-0.007 -0.016,-0.01 -0.027,-0.01zm0.108 0.085c-0.001,0.001 -0.002,0.002 -0.004,0.002 -0.001,0 -0.003,0 -0.004,0 0.003,-0.001 0.005,-0.002 0.007,-0.004 0.002,-0.001 0.003,-0.003 0.005,-0.006 -0,0.003 -0.002,0.006 -0.004,0.008zm-0.009 -0.005c-0.001,-0.001 -0.002,-0.002 -0.003,-0.004 -0,-0.002 -0,-0.004 0,-0.006 0.001,-0.002 0.002,-0.003 0.003,-0.004 0.001,-0.001 0.003,-0.001 0.004,-0.001 0.001,0.001 0.002,0.002 0.003,0.004 0,0.002 0,0.004 -0,0.006 -0.001,0.002 -0.002,0.003 -0.003,0.004 -0.001,0.001 -0.003,0.001 -0.004,0.001zm-0.014 -0.051c-0.002,0.003 -0.005,0.008 -0.008,0.013 -0.001,0.002 -0.002,0.004 -0.004,0.007l-0.004 0.007c0.002,-0.005 0.004,-0.009 0.006,-0.014 0.002,-0.005 0.005,-0.009 0.008,-0.014 0.003,-0.005 0.007,-0.009 0.01,-0.012l0.001 -0.001c0.001,-0.001 0.001,-0.001 0.001,-0.001l0.002 -0.001 0.002 -0.001c0.003,-0.002 0.005,-0.002 0.007,-0.002 -0.002,0 -0.004,0.001 -0.007,0.003l-0.001 0.001 -0.001 0.001c-0,0 -0.001,0.001 -0.001,0.001l-0.001 0.001c-0.003,0.003 -0.006,0.007 -0.009,0.012zm0.023 -0.028c-0.008,-0.001 -0.016,0.004 -0.026,0.017 -0.009,0.011 -0.016,0.026 -0.023,0.044 -0.007,0.018 -0.011,0.033 -0.012,0.047 -0.001,0.015 0.001,0.024 0.008,0.027 0.005,0.002 0.01,0.002 0.014,-0 0.004,-0.002 0.007,-0.005 0.011,-0.009 0.001,-0.001 0.002,-0.002 0.002,-0.003l0.002 -0.003c0.002,-0.002 0.003,-0.004 0.004,-0.005 0.003,-0.004 0.006,-0.005 0.008,-0.005 0.002,0 0.005,0.002 0.008,0.005 0.001,0.001 0.002,0.003 0.004,0.005l0.002 0.003 0.002 0.003c0.004,0.004 0.008,0.007 0.011,0.009 0.004,0.002 0.009,0.002 0.013,-0 0.005,-0.003 0.008,-0.011 0.009,-0.024 0.001,-0.013 -0.001,-0.027 -0.004,-0.044 -0.003,-0.017 -0.008,-0.031 -0.014,-0.043 -0.007,-0.013 -0.014,-0.02 -0.021,-0.022zm0.111 0.093c-0.001,0.002 -0.002,0.004 -0.004,0.005 -0.002,0.001 -0.004,0.002 -0.006,0.001 0.002,-0 0.004,-0.001 0.005,-0.002 0.002,-0.001 0.003,-0.003 0.004,-0.004 0.002,-0.003 0.002,-0.007 0.001,-0.012 0.001,0.002 0.002,0.004 0.002,0.006 0,0.002 -0,0.004 -0.001,0.007zm-0.016 -0.006c-0.001,-0.002 -0.001,-0.004 -0.001,-0.006 0,-0.002 0.001,-0.003 0.002,-0.004 0.001,-0.001 0.003,-0.001 0.004,0 0.002,0.001 0.003,0.002 0.004,0.004 0.001,0.002 0.001,0.004 0.001,0.006 -0,0.002 -0.001,0.003 -0.002,0.004 -0.001,0.001 -0.003,0.001 -0.004,0 -0.002,-0.001 -0.003,-0.002 -0.004,-0.004zm-0.008 -0.04c0.001,-0 0.003,-0.001 0.004,-0.002 0.001,-0.001 0.002,-0.002 0.003,-0.003 0.001,-0.001 0.002,-0.002 0.003,-0.004 0.001,-0.001 0.001,-0.003 0.002,-0.004 0,0.003 -0.001,0.006 -0.003,0.009 -0.001,0.001 -0.002,0.002 -0.004,0.003 -0.002,0.001 -0.003,0.001 -0.004,0zm-0.002 -0.014c0.001,-0.001 0.001,-0.002 0.003,-0.003 0.001,-0.001 0.002,-0.001 0.003,0 0.001,0 0.001,0.001 0.001,0.003 0,0.001 -0,0.002 -0.001,0.004 -0.001,0.001 -0.001,0.002 -0.003,0.003 -0.001,0.001 -0.002,0.001 -0.003,0 -0.001,-0 -0.001,-0.001 -0.001,-0.003 -0,-0.001 0,-0.002 0.001,-0.004zm-0.015 -0.017c-0.001,0.002 -0.003,0.003 -0.004,0.006 -0.002,0.004 -0.004,0.008 -0.006,0.013 -0.001,0.004 -0.003,0.009 -0.004,0.014 0,-0.005 0.001,-0.01 0.003,-0.015 0.001,-0.005 0.004,-0.01 0.006,-0.014 0.003,-0.005 0.006,-0.008 0.01,-0.011 0.002,-0.001 0.005,-0.003 0.007,-0.003 0.002,-0.001 0.005,-0.001 0.007,-0.001 -0.005,0 -0.009,0.002 -0.013,0.005 -0.002,0.001 -0.004,0.003 -0.005,0.005zm0.038 0.036c-0.001,-0 -0.001,-0.001 -0.001,-0.003 0,-0.001 0.001,-0.001 0.001,-0.003l0 -0.001 0 -0.001c0,-0.001 0.001,-0.001 0.001,-0.002 0.002,-0.003 0.003,-0.007 0.003,-0.01 0.001,-0.005 0.001,-0.009 0,-0.014 -0.001,-0.005 -0.004,-0.01 -0.008,-0.014 -0.005,-0.004 -0.01,-0.006 -0.017,-0.006 -0.007,-0 -0.013,0.002 -0.019,0.006 -0.007,0.005 -0.012,0.013 -0.016,0.023 -0.004,0.011 -0.006,0.022 -0.007,0.035 -0,0.013 0.001,0.025 0.005,0.036 0.004,0.012 0.01,0.021 0.017,0.027 0.008,0.007 0.019,0.01 0.03,0.009 0.011,-0.001 0.02,-0.005 0.027,-0.012 0.006,-0.006 0.01,-0.015 0.01,-0.024 0.001,-0.01 -0.002,-0.019 -0.006,-0.027 -0.005,-0.009 -0.013,-0.016 -0.023,-0.02zm0.107 -0.038c-0.002,0.002 -0.003,0.004 -0.005,0.007 -0.003,0.005 -0.005,0.01 -0.007,0.015l-0.001 0.004 -0.001 0.004c-0.001,0.004 -0.002,0.006 -0.003,0.008 -0.001,0.003 -0.003,0.006 -0.004,0.008 -0.001,0.001 -0.002,0.002 -0.003,0.003 -0.001,0 -0.002,0.001 -0.004,0 0.002,-0 0.003,-0 0.004,-0.001 0.001,-0.001 0.002,-0.002 0.003,-0.003 0.001,-0.002 0.002,-0.004 0.003,-0.008l0.001 -0.004 0.001 -0.004c0.001,-0.003 0.002,-0.006 0.003,-0.008 0.002,-0.006 0.005,-0.011 0.008,-0.015 0.004,-0.006 0.008,-0.01 0.012,-0.012 -0.002,0.002 -0.004,0.003 -0.006,0.006zm-0.058 0.022c-0.001,0.004 -0.002,0.009 -0.002,0.014l-0.001 0.007 -0.001 0.007c-0.001,-0.014 0.001,-0.026 0.004,-0.037 0.001,-0.002 0.001,-0.004 0.002,-0.006 0.001,-0.002 0.002,-0.004 0.003,-0.006 0.003,-0.004 0.006,-0.006 0.01,-0.006 -0.004,0 -0.008,0.004 -0.011,0.01 -0.001,0.002 -0.002,0.005 -0.003,0.009 -0,0.001 -0.001,0.003 -0.001,0.004l-0 0.002 -0 0.001 -0 0.001zm0.081 -0.034c-0.007,-0.005 -0.014,-0.004 -0.022,0.001 -0.006,0.004 -0.011,0.012 -0.016,0.021 -0.001,0.003 -0.003,0.007 -0.004,0.011 -0.001,0.002 -0.001,0.003 -0.002,0.005l-0.001 0.002 -0 0.001 -0 0.001c-0.001,0.003 -0.002,0.006 -0.003,0.007 -0.001,0.002 -0.002,0.003 -0.002,0.003 -0.002,-0 -0.002,-0.001 -0.002,-0.004 -0,-0.002 0,-0.007 0.001,-0.015 0.002,-0.014 0.001,-0.024 -0.003,-0.03 -0.003,-0.005 -0.007,-0.006 -0.013,-0.005 -0.007,0.001 -0.013,0.009 -0.018,0.023 -0.004,0.014 -0.006,0.031 -0.005,0.05 0.001,0.036 0.011,0.056 0.03,0.059 0.006,0.001 0.011,-0.001 0.016,-0.004 0.005,-0.003 0.009,-0.008 0.013,-0.014 0.003,-0.005 0.006,-0.01 0.008,-0.015 0.001,-0.002 0.002,-0.003 0.002,-0.005 0.001,-0.001 0.001,-0.002 0.002,-0.004 0.001,-0.002 0.002,-0.004 0.002,-0.004 0,-0.001 0.001,-0.001 0.002,-0.001 0.001,0 0.001,0.003 0,0.008l-0 0.002 -0 0.002c-0,0.002 -0,0.003 -0,0.004 -0,0.003 -0.001,0.006 -0.001,0.009 -0,0.016 0.005,0.023 0.015,0.023 0.007,-0 0.012,-0.006 0.016,-0.019 0.003,-0.011 0.005,-0.025 0.005,-0.042 0,-0.017 -0.002,-0.032 -0.005,-0.045 -0.003,-0.014 -0.008,-0.024 -0.014,-0.027zm0.072 0.005l-0.002 0c-0.001,0 -0.001,0 -0.002,0.001 -0,0 -0.001,0 -0.001,0.001l-0.001 0 -0.001 0 -0.001 0.001c-0.001,0 -0.001,0.001 -0.001,0.001 -0.003,0.003 -0.006,0.006 -0.009,0.011 -0.002,0.003 -0.005,0.008 -0.007,0.013 -0.002,0.004 -0.004,0.008 -0.006,0.014 0.001,-0.005 0.003,-0.009 0.005,-0.014 0.002,-0.005 0.004,-0.009 0.007,-0.013 0.003,-0.005 0.006,-0.008 0.01,-0.011 0.004,-0.003 0.009,-0.005 0.013,-0.004l-0.003 0.001zm0.054 0.043c-0.006,-0.016 -0.013,-0.029 -0.023,-0.038 -0.01,-0.01 -0.021,-0.014 -0.031,-0.012 -0.009,0.001 -0.017,0.008 -0.025,0.02 -0.007,0.011 -0.012,0.024 -0.016,0.04 -0.004,0.018 -0.004,0.034 -0.002,0.05 0.001,0.007 0.003,0.014 0.006,0.018 0.003,0.005 0.006,0.008 0.01,0.008 0.006,0.001 0.011,-0.001 0.015,-0.007 0.003,-0.005 0.006,-0.012 0.008,-0.021 0,-0.002 0.001,-0.004 0.001,-0.006l0.001 -0.003 0.001 -0.003c0.001,-0.005 0.002,-0.009 0.002,-0.011 0.002,-0.007 0.004,-0.011 0.006,-0.012 0.002,-0 0.003,0 0.005,0.003 0.001,0.002 0.003,0.005 0.004,0.009 0.001,0.001 0.001,0.003 0.002,0.006l0.001 0.003 0.001 0.003c0.002,0.005 0.004,0.01 0.005,0.013 0.004,0.009 0.009,0.015 0.014,0.019 0.005,0.003 0.01,0.003 0.014,0 0.003,-0.002 0.005,-0.005 0.007,-0.01 0.002,-0.005 0.002,-0.011 0.003,-0.018 0,-0.015 -0.003,-0.032 -0.009,-0.05zm0.076 0.044c-0.001,0.002 -0.002,0.003 -0.004,0.004 -0.002,0.001 -0.004,0.001 -0.005,0.001 0.004,-0.001 0.006,-0.003 0.008,-0.006 0.001,-0.001 0.001,-0.003 0.002,-0.005 0,-0.002 0,-0.004 0,-0.006 0.001,0.002 0.001,0.004 0.001,0.006 -0,0.002 -0.001,0.004 -0.002,0.006zm-0.015 -0.007c-0.001,-0.002 -0.001,-0.004 -0.001,-0.005 0,-0.002 0.001,-0.003 0.002,-0.004 0.001,-0.001 0.003,-0.001 0.004,0 0.002,0.001 0.003,0.002 0.004,0.004 0.001,0.002 0.001,0.004 0.001,0.006 -0,0.002 -0.001,0.003 -0.002,0.004 -0.001,0.001 -0.003,0.001 -0.004,-0 -0.002,-0.001 -0.003,-0.002 -0.004,-0.004zm-0.008 -0.079c-0.001,0.001 -0.002,0.001 -0.004,0.003 -0.002,0.002 -0.004,0.004 -0.006,0.007 -0.001,0.002 -0.003,0.004 -0.005,0.008 -0.001,0.001 -0.002,0.002 -0.002,0.004l-0.002 0.004c0.001,-0.004 0.002,-0.007 0.004,-0.009 0.001,-0.003 0.003,-0.006 0.005,-0.008 0.002,-0.003 0.004,-0.005 0.007,-0.007 0.003,-0.002 0.006,-0.003 0.009,-0.003 -0.001,0 -0.003,0.001 -0.004,0.002zm0.023 0.046c-0.003,-0.001 -0.005,-0.003 -0.006,-0.005 -0.001,-0.002 -0.001,-0.005 -0,-0.009 0,-0.001 0,-0.002 0,-0.003l0 -0.003c0,-0.002 0.001,-0.004 0.001,-0.006 0.001,-0.005 0.001,-0.009 0,-0.013 -0.001,-0.005 -0.002,-0.01 -0.006,-0.013 -0.003,-0.003 -0.007,-0.005 -0.011,-0.004 -0.005,0 -0.009,0.003 -0.014,0.008 -0.005,0.005 -0.01,0.013 -0.014,0.023 -0.004,0.01 -0.007,0.022 -0.009,0.034 -0.001,0.013 -0.001,0.024 0.002,0.034 0.003,0.011 0.008,0.02 0.014,0.027 0.008,0.007 0.017,0.011 0.029,0.01 0.011,-0 0.02,-0.004 0.028,-0.011 0.007,-0.007 0.011,-0.015 0.012,-0.025 0.001,-0.01 -0,-0.019 -0.005,-0.027 -0.005,-0.009 -0.013,-0.015 -0.023,-0.019zm0.114 -0.045c-0.001,0 -0.002,0.001 -0.002,0.002 -0.001,0.001 -0.002,0.003 -0.002,0.006 -0.001,0.004 -0.001,0.008 -0.001,0.014l0 0.002 0 0.002c0,0.001 0,0.003 -0,0.004 -0,0.003 -0.001,0.005 -0.002,0.007 -0.001,0.002 -0.002,0.004 -0.004,0.006 -0.002,0.002 -0.004,0.003 -0.006,0.003 0.004,-0.002 0.007,-0.005 0.008,-0.01 0.001,-0.002 0.001,-0.004 0.001,-0.007 0,-0.001 0,-0.002 0,-0.003l-0 -0.002 0 -0.002c-0,-0.006 0,-0.01 0.001,-0.014 0.001,-0.003 0.002,-0.005 0.003,-0.006 0.001,-0.001 0.002,-0.002 0.003,-0.002 0.001,-0 0.002,-0 0.003,-0 -0.001,0 -0.002,0 -0.003,0.001zm-0.059 0.002c-0.002,0.002 -0.004,0.005 -0.005,0.009 -0.001,0.003 -0.002,0.006 -0.003,0.01l-0.001 0.005 -0.001 0.005c0,-0.007 0.001,-0.014 0.003,-0.021 0.001,-0.004 0.003,-0.007 0.005,-0.009 0.001,-0.001 0.003,-0.002 0.004,-0.003 0.002,-0.001 0.003,-0.001 0.005,-0.001 -0.003,0 -0.006,0.002 -0.008,0.005zm0.062 -0.011c-0.006,0 -0.01,0.003 -0.013,0.009 -0.002,0.005 -0.003,0.013 -0.003,0.025 0,0.005 -0.001,0.008 -0.003,0.011 -0.002,0.002 -0.004,0.003 -0.007,0.003 -0.003,-0 -0.005,-0.002 -0.007,-0.004 -0.001,-0.002 -0.002,-0.006 -0.002,-0.01 0.001,-0.011 0,-0.02 -0.003,-0.025 -0.003,-0.005 -0.007,-0.008 -0.014,-0.009 -0.005,-0.001 -0.01,0 -0.014,0.004 -0.004,0.003 -0.007,0.008 -0.009,0.014 -0.004,0.012 -0.006,0.026 -0.006,0.042 -0,0.016 0.001,0.03 0.004,0.045 0.002,0.01 0.006,0.018 0.011,0.023 0.004,0.004 0.009,0.005 0.014,0.004 0.011,-0.002 0.016,-0.011 0.015,-0.027 -0.001,-0.012 0.001,-0.018 0.007,-0.018 0.003,0 0.005,0.001 0.006,0.003 0.002,0.003 0.003,0.007 0.002,0.014 -0.001,0.011 0.001,0.019 0.005,0.024 0.003,0.005 0.008,0.008 0.014,0.008 0.01,0 0.018,-0.007 0.022,-0.021 0.003,-0.01 0.005,-0.027 0.006,-0.051 0.001,-0.018 -0.002,-0.033 -0.006,-0.045 -0.005,-0.013 -0.012,-0.019 -0.02,-0.018zm0.095 0.092c-0.001,0.002 -0.003,0.003 -0.004,0.004 -0.002,0.001 -0.003,0.001 -0.005,0.001 0.003,-0.001 0.006,-0.003 0.008,-0.006 0.002,-0.003 0.003,-0.006 0.004,-0.01 0.001,0.004 0,0.008 -0.002,0.011zm-0.018 -0.01c-0,-0.002 0,-0.005 0.001,-0.007 0.001,-0.002 0.003,-0.003 0.004,-0.003 0.002,-0 0.004,0 0.005,0.002 0.002,0.001 0.003,0.003 0.003,0.006 0,0.002 0,0.005 -0.001,0.007 -0.001,0.002 -0.003,0.003 -0.004,0.003 -0.002,0 -0.004,-0 -0.005,-0.002 -0.002,-0.001 -0.003,-0.003 -0.003,-0.006zm-0.005 -0.073c-0.004,0.002 -0.009,0.005 -0.012,0.008 -0.003,0.003 -0.006,0.007 -0.009,0.012l-0.001 0.002 -0.001 0.002 -0.002 0.004 -0.001 0.004 -0.001 0.004c0.001,-0.005 0.003,-0.01 0.005,-0.015 0.002,-0.005 0.005,-0.009 0.009,-0.013 0.004,-0.004 0.008,-0.007 0.013,-0.008 0.002,-0.001 0.005,-0.001 0.007,-0.002l0.002 -0 0.002 -0 0.004 0c-0.005,0 -0.01,0.002 -0.014,0.003zm0.029 -0.009c-0.018,-0.005 -0.033,-0.002 -0.045,0.01 -0.011,0.01 -0.017,0.024 -0.02,0.043 -0.003,0.018 -0.001,0.034 0.006,0.05 0.007,0.017 0.017,0.027 0.032,0.031 0.013,0.004 0.026,0 0.038,-0.011 0.011,-0.01 0.018,-0.024 0.023,-0.042 0.005,-0.018 0.005,-0.034 -0,-0.049 -0.006,-0.016 -0.016,-0.026 -0.033,-0.031z"/>
 </g>
</svg>
