<?xml version="1.0" encoding="UTF-8"?>
<!DOCTYPE svg PUBLIC "-//W3C//DTD SVG 1.1//EN" "http://www.w3.org/Graphics/SVG/1.1/DTD/svg11.dtd">
<!-- Creator: CorelDRAW -->
<svg xmlns="http://www.w3.org/2000/svg" xml:space="preserve" width="28.9344mm" height="9.2811mm" version="1.1" style="shape-rendering:geometricPrecision; text-rendering:geometricPrecision; image-rendering:optimizeQuality; fill-rule:evenodd; clip-rule:evenodd"
viewBox="0 0 50.05 16.05"
 xmlns:xlink="http://www.w3.org/1999/xlink"
 xmlns:xodm="http://www.corel.com/coreldraw/odm/2003">
 <defs>
  <style type="text/css">
   <![CDATA[
    .fil0 {fill:#969677;fill-rule:nonzero}
    .fil1 {fill:white;fill-rule:nonzero}
   ]]>
  </style>
 </defs>
 <g id="Слой_x0020_1">
  <metadata id="CorelCorpID_0Corel-Layer"/>
  <path class="fil0" d="M3.35 6.03c-0.03,0 -0.07,0 -0.12,0.01l-0.07 0.01 -0.07 0c0.07,-0.06 0.16,-0.09 0.25,-0.1 0.05,0 0.1,0.01 0.14,0.02 0.05,0.02 0.08,0.05 0.11,0.09 -0.09,-0.03 -0.17,-0.04 -0.24,-0.04zm-2.09 -1.29c-0.06,0.06 -0.11,0.12 -0.15,0.18 -0.11,0.14 -0.2,0.27 -0.26,0.38 -0.08,0.14 -0.14,0.28 -0.18,0.44 -0.04,0.15 -0.05,0.31 -0.05,0.48l-0.02 -0.12 -0 -0.06 0 -0.06 0 -0.06 0 -0.06 0.01 -0.06 0.01 -0.06c0.03,-0.16 0.08,-0.31 0.17,-0.46 0.08,-0.14 0.18,-0.27 0.29,-0.38 0.06,-0.06 0.11,-0.11 0.17,-0.17l0.09 -0.07c0.03,-0.03 0.07,-0.05 0.1,-0.07l-0.08 0.08 -0.08 0.08zm0.36 -2.55c-0.07,0.03 -0.14,0.07 -0.2,0.11 -0.14,0.08 -0.26,0.17 -0.37,0.26 -0.12,0.1 -0.22,0.21 -0.32,0.34 -0.05,0.07 -0.09,0.13 -0.12,0.2 -0.04,0.08 -0.07,0.15 -0.08,0.23 -0.01,-0.14 0.05,-0.29 0.15,-0.46 0.08,-0.13 0.19,-0.25 0.32,-0.36 0.13,-0.11 0.26,-0.19 0.39,-0.26 0.07,-0.03 0.14,-0.06 0.21,-0.08 0.08,-0.03 0.16,-0.04 0.22,-0.05l-0.11 0.04c-0.04,0.02 -0.08,0.03 -0.11,0.04zm1.37 3.57c-0.21,0.09 -0.4,0.12 -0.57,0.11 -0.14,-0.01 -0.23,-0.05 -0.26,-0.11 -0.01,-0.03 -0.02,-0.06 -0.02,-0.09 -0,-0.05 0.01,-0.09 0.03,-0.14 0.06,-0.13 0.2,-0.27 0.42,-0.42 0.29,-0.19 0.54,-0.44 0.73,-0.73 0.19,-0.29 0.31,-0.59 0.37,-0.9 0.06,-0.32 0.04,-0.61 -0.07,-0.87 -0.11,-0.28 -0.31,-0.5 -0.59,-0.65 -0.34,-0.18 -0.69,-0.24 -1.07,-0.19 -0.33,0.05 -0.65,0.18 -0.95,0.39 -0.28,0.2 -0.49,0.44 -0.63,0.7 -0.14,0.27 -0.17,0.5 -0.1,0.7 0.08,0.2 0.22,0.31 0.43,0.35 0.22,0.03 0.48,-0.02 0.78,-0.18 0.17,-0.09 0.29,-0.14 0.36,-0.15 0.07,-0.01 0.12,-0 0.15,0.04 0.08,0.08 -0.01,0.2 -0.27,0.37 -0.48,0.3 -0.84,0.63 -1.09,1 -0.3,0.46 -0.4,0.95 -0.29,1.47 0.08,0.36 0.32,0.63 0.71,0.81 0.32,0.14 0.72,0.21 1.22,0.21 0.49,0 0.9,-0.07 1.21,-0.22 0.32,-0.15 0.51,-0.36 0.56,-0.63 0.03,-0.13 0.02,-0.27 -0.02,-0.4 -0.04,-0.14 -0.11,-0.25 -0.2,-0.35 -0.1,-0.1 -0.22,-0.16 -0.35,-0.19 -0.15,-0.03 -0.32,-0 -0.49,0.07z"/>
  <path id="_1" class="fil0" d="M6.8 5.56c-0.04,0.09 -0.09,0.16 -0.16,0.22 -0.07,0.06 -0.15,0.1 -0.23,0.11 0.14,-0.08 0.25,-0.2 0.32,-0.36 0.06,-0.12 0.1,-0.29 0.12,-0.49 0.04,0.18 0.02,0.36 -0.06,0.53zm-0.47 0.02c-0.09,0.03 -0.18,0 -0.26,-0.09 -0.09,-0.09 -0.14,-0.21 -0.17,-0.36 -0.03,-0.15 -0.02,-0.3 0.02,-0.42 0.04,-0.13 0.11,-0.21 0.2,-0.24 0.09,-0.03 0.18,0 0.26,0.09 0.09,0.09 0.14,0.21 0.17,0.36 0.03,0.15 0.02,0.3 -0.02,0.42 -0.04,0.13 -0.11,0.21 -0.2,0.24zm-1.14 -2.88c-0.11,0.16 -0.2,0.36 -0.28,0.61 -0.06,0.2 -0.12,0.42 -0.16,0.67 0,-0.09 0.01,-0.21 0.03,-0.35 0.02,-0.11 0.05,-0.23 0.07,-0.34 0.06,-0.24 0.16,-0.45 0.28,-0.64 0.14,-0.21 0.3,-0.37 0.49,-0.46 0.1,-0.05 0.2,-0.09 0.31,-0.11 0.11,-0.02 0.22,-0.02 0.32,-0.02 -0.24,0.02 -0.44,0.08 -0.61,0.18 -0.18,0.11 -0.33,0.26 -0.45,0.46zm1.46 -0.91c-0.68,-0.14 -1.22,0.05 -1.62,0.56 -0.36,0.45 -0.55,1.07 -0.59,1.85 -0.03,0.76 0.09,1.44 0.38,2.06 0.31,0.67 0.73,1.06 1.26,1.19 0.5,0.12 0.95,-0.08 1.34,-0.6 0.36,-0.47 0.59,-1.08 0.7,-1.84 0.11,-0.77 0.05,-1.45 -0.17,-2.03 -0.26,-0.66 -0.69,-1.05 -1.29,-1.17z"/>
  <path id="_2" class="fil0" d="M11.65 6.03c-0.03,0 -0.07,0 -0.12,0.01l-0.07 0.01 -0.07 0c0.07,-0.06 0.16,-0.09 0.25,-0.1 0.05,0 0.1,0.01 0.14,0.02 0.05,0.02 0.08,0.05 0.11,0.09 -0.09,-0.03 -0.17,-0.04 -0.24,-0.04zm-2.09 -1.29c-0.06,0.06 -0.11,0.12 -0.15,0.18 -0.11,0.14 -0.2,0.27 -0.26,0.38 -0.08,0.14 -0.14,0.28 -0.18,0.44 -0.04,0.15 -0.05,0.31 -0.05,0.48l-0.02 -0.12 -0 -0.06 0 -0.06 0 -0.06 0 -0.06 0.01 -0.06 0.01 -0.06c0.03,-0.16 0.08,-0.31 0.17,-0.46 0.08,-0.14 0.18,-0.27 0.29,-0.38 0.06,-0.06 0.11,-0.11 0.17,-0.17l0.09 -0.07c0.04,-0.03 0.07,-0.05 0.1,-0.07l-0.08 0.08 -0.08 0.08zm0.36 -2.55c-0.07,0.03 -0.14,0.07 -0.2,0.11 -0.14,0.08 -0.26,0.17 -0.37,0.26 -0.12,0.1 -0.22,0.21 -0.32,0.34 -0.05,0.07 -0.09,0.13 -0.12,0.2 -0.04,0.08 -0.07,0.15 -0.08,0.23 -0.01,-0.14 0.05,-0.29 0.15,-0.46 0.08,-0.13 0.19,-0.25 0.32,-0.36 0.13,-0.11 0.26,-0.19 0.39,-0.26 0.07,-0.03 0.14,-0.06 0.21,-0.08 0.08,-0.03 0.16,-0.04 0.22,-0.05l-0.11 0.04c-0.04,0.02 -0.08,0.03 -0.11,0.04zm1.37 3.57c-0.21,0.09 -0.4,0.12 -0.57,0.11 -0.14,-0.01 -0.23,-0.05 -0.26,-0.11 -0.01,-0.03 -0.02,-0.06 -0.02,-0.09 -0,-0.05 0.01,-0.09 0.03,-0.14 0.06,-0.13 0.2,-0.27 0.42,-0.42 0.29,-0.19 0.54,-0.44 0.73,-0.73 0.19,-0.29 0.31,-0.59 0.37,-0.9 0.06,-0.32 0.04,-0.61 -0.07,-0.87 -0.11,-0.28 -0.31,-0.5 -0.59,-0.65 -0.34,-0.18 -0.69,-0.24 -1.07,-0.19 -0.33,0.05 -0.65,0.18 -0.95,0.39 -0.28,0.2 -0.49,0.44 -0.63,0.7 -0.14,0.27 -0.17,0.5 -0.1,0.7 0.08,0.2 0.22,0.31 0.43,0.35 0.22,0.03 0.48,-0.02 0.78,-0.18 0.17,-0.09 0.29,-0.14 0.36,-0.15 0.07,-0.01 0.12,-0 0.15,0.04 0.08,0.08 -0.01,0.2 -0.27,0.37 -0.48,0.3 -0.84,0.63 -1.09,1 -0.3,0.46 -0.4,0.95 -0.29,1.47 0.08,0.36 0.32,0.63 0.71,0.81 0.32,0.14 0.72,0.21 1.22,0.21 0.49,0 0.9,-0.07 1.21,-0.22 0.32,-0.15 0.51,-0.36 0.56,-0.63 0.03,-0.13 0.02,-0.27 -0.02,-0.4 -0.04,-0.14 -0.11,-0.25 -0.2,-0.35 -0.1,-0.1 -0.22,-0.16 -0.35,-0.19 -0.15,-0.03 -0.32,-0 -0.49,0.07z"/>
  <path id="_3" class="fil0" d="M19.17 4.3c-0.06,0.01 -0.11,0.03 -0.17,0.06l-0.04 0.02 -0.04 0.02c-0.03,0.02 -0.06,0.03 -0.09,0.03 -0.06,0.02 -0.12,0.02 -0.19,0.02l0.09 -0.03c0.03,-0.01 0.06,-0.03 0.09,-0.04l0.04 -0.02 0.04 -0.02c0.03,-0.02 0.06,-0.03 0.08,-0.05 0.07,-0.03 0.13,-0.04 0.19,-0.04 0.07,-0 0.13,0.01 0.18,0.05 -0.06,-0.01 -0.12,-0.01 -0.18,0zm-1.69 0.12c-0.06,0 -0.11,0.01 -0.15,0.01 -0.06,0 -0.11,0.01 -0.14,0.02 -0.03,0.01 -0.05,0.02 -0.06,0.04 -0.01,0.01 -0.02,0.03 -0.04,0.07 -0,-0.03 0,-0.06 0.01,-0.09 0.02,-0.02 0.04,-0.04 0.06,-0.06 0.04,-0.02 0.09,-0.04 0.15,-0.04 0.06,-0.01 0.11,-0 0.16,0 0.06,0.01 0.11,0.02 0.15,0.03 -0.04,0.01 -0.1,0.02 -0.15,0.02zm1.32 -0.3c-0.1,0.06 -0.27,0.08 -0.5,0.07 -0.07,-0.01 -0.18,-0.02 -0.31,-0.03l-0.16 -0.02c-0.06,-0.01 -0.11,-0.01 -0.15,-0.02 -0.24,-0.02 -0.43,-0.01 -0.55,0.04 -0.16,0.06 -0.26,0.17 -0.28,0.35 -0.03,0.23 0.06,0.43 0.29,0.6 0.2,0.15 0.47,0.26 0.81,0.32 0.33,0.06 0.65,0.06 0.95,-0 0.32,-0.06 0.56,-0.19 0.71,-0.37 0.11,-0.13 0.16,-0.27 0.17,-0.43 0.01,-0.15 -0.03,-0.29 -0.12,-0.4 -0.09,-0.12 -0.2,-0.19 -0.34,-0.22 -0.16,-0.03 -0.33,0.01 -0.51,0.11z"/>
  <path id="_4" class="fil0" d="M21.48 2.12c-0.17,0.03 -0.31,0.06 -0.42,0.09 -0.16,0.05 -0.29,0.11 -0.39,0.18 -0.07,0.05 -0.12,0.1 -0.15,0.15 -0.04,0.06 -0.06,0.13 -0.06,0.22 -0.02,-0.08 -0.01,-0.16 0.03,-0.24 0.03,-0.06 0.08,-0.12 0.15,-0.18 0.1,-0.08 0.23,-0.14 0.4,-0.2 0.27,-0.08 0.56,-0.1 0.87,-0.07 -0.16,0.02 -0.3,0.04 -0.43,0.06zm0.7 -0.36c-0.6,-0.03 -1.09,0.04 -1.46,0.21 -0.39,0.19 -0.57,0.45 -0.55,0.8 0.02,0.19 0.09,0.34 0.23,0.42 0.1,0.06 0.25,0.11 0.44,0.13l0.12 0.01 0.12 0.01c0.09,0.01 0.17,0.02 0.22,0.03 0.15,0.03 0.24,0.1 0.28,0.2 0.02,0.06 -0,0.41 -0.07,1.04 -0.03,0.32 -0.06,0.6 -0.07,0.82 -0.02,0.32 -0.01,0.6 0.01,0.84 0.03,0.36 0.15,0.65 0.34,0.88 0.21,0.24 0.45,0.34 0.74,0.3 0.53,-0.08 0.72,-0.65 0.58,-1.71 -0.08,-0.56 -0.12,-1.04 -0.12,-1.43 -0.01,-0.42 0.03,-0.67 0.11,-0.74 0.05,-0.05 0.15,-0.07 0.29,-0.08 0.04,0 0.1,0 0.19,0l0.1 0 0.1 -0c0.16,-0 0.28,-0.03 0.38,-0.08 0.12,-0.06 0.2,-0.16 0.24,-0.31 0.05,-0.18 0.02,-0.35 -0.08,-0.51 -0.1,-0.15 -0.25,-0.29 -0.46,-0.42 -0.43,-0.25 -0.99,-0.39 -1.68,-0.43z"/>
  <path id="_5" class="fil0" d="M27.67 2.39c-0.06,0.08 -0.13,0.18 -0.2,0.29 -0.12,0.2 -0.21,0.41 -0.3,0.64l-0.06 0.17 -0.06 0.17c-0.05,0.15 -0.09,0.26 -0.12,0.34 -0.06,0.15 -0.12,0.26 -0.17,0.32 -0.04,0.05 -0.09,0.09 -0.14,0.1 -0.05,0.02 -0.1,0.03 -0.17,0.02 0.07,-0 0.12,-0.01 0.16,-0.04 0.04,-0.02 0.08,-0.06 0.12,-0.12 0.05,-0.07 0.1,-0.17 0.14,-0.32l0.05 -0.17 0.06 -0.17c0.04,-0.14 0.08,-0.25 0.11,-0.34 0.09,-0.25 0.2,-0.46 0.32,-0.64 0.16,-0.24 0.32,-0.41 0.49,-0.5 -0.09,0.07 -0.17,0.15 -0.25,0.24zm-2.43 0.92c-0.03,0.16 -0.06,0.36 -0.09,0.58l-0.03 0.3 -0.03 0.29c-0.02,-0.58 0.04,-1.1 0.18,-1.55 0.03,-0.09 0.06,-0.17 0.08,-0.24 0.04,-0.1 0.09,-0.18 0.13,-0.24 0.12,-0.18 0.26,-0.26 0.41,-0.25 -0.19,0.02 -0.34,0.17 -0.46,0.44 -0.04,0.1 -0.08,0.22 -0.12,0.36 -0.02,0.05 -0.03,0.11 -0.04,0.17l-0.02 0.08 -0.01 0.04 -0.01 0.04zm3.37 -1.43c-0.3,-0.2 -0.6,-0.18 -0.91,0.05 -0.25,0.19 -0.48,0.49 -0.68,0.9 -0.06,0.13 -0.13,0.29 -0.19,0.46 -0.02,0.06 -0.05,0.14 -0.07,0.23l-0.03 0.1 -0.02 0.05 -0.02 0.05c-0.05,0.15 -0.08,0.25 -0.11,0.3 -0.04,0.08 -0.07,0.11 -0.1,0.11 -0.06,-0.01 -0.1,-0.06 -0.1,-0.16 -0.01,-0.09 0.01,-0.29 0.05,-0.62 0.08,-0.59 0.04,-1 -0.11,-1.24 -0.12,-0.19 -0.31,-0.26 -0.57,-0.23 -0.31,0.04 -0.56,0.37 -0.75,0.96 -0.18,0.58 -0.25,1.28 -0.23,2.11 0.04,1.53 0.46,2.35 1.25,2.47 0.23,0.03 0.46,-0.03 0.69,-0.18 0.22,-0.14 0.4,-0.34 0.55,-0.59 0.13,-0.22 0.25,-0.43 0.34,-0.62 0.03,-0.07 0.07,-0.14 0.1,-0.22 0.02,-0.05 0.04,-0.1 0.07,-0.16 0.04,-0.1 0.07,-0.16 0.08,-0.17 0.02,-0.03 0.04,-0.04 0.07,-0.03 0.03,0.01 0.04,0.12 0.01,0.33l-0.01 0.08 -0.01 0.07c-0.01,0.07 -0.01,0.12 -0.02,0.17 -0.01,0.14 -0.02,0.26 -0.03,0.36 -0.01,0.65 0.2,0.97 0.64,0.97 0.28,-0 0.5,-0.26 0.66,-0.78 0.14,-0.47 0.21,-1.06 0.21,-1.77 0,-0.7 -0.07,-1.32 -0.2,-1.89 -0.14,-0.61 -0.34,-0.99 -0.58,-1.15z"/>
  <path id="_6" class="fil0" d="M33.78 5.29c-0.05,0.04 -0.1,0.07 -0.16,0.09 -0.06,0.02 -0.12,0.02 -0.18,0 0.11,-0.03 0.21,-0.08 0.29,-0.15 0.07,-0.06 0.14,-0.15 0.22,-0.26 -0.02,0.13 -0.08,0.24 -0.18,0.32zm-0.4 -0.23c-0.06,-0.03 -0.09,-0.08 -0.11,-0.15 -0.02,-0.07 -0.02,-0.15 0.01,-0.23 0.03,-0.08 0.08,-0.14 0.14,-0.18 0.06,-0.04 0.12,-0.05 0.18,-0.02 0.06,0.02 0.1,0.07 0.11,0.15 0.02,0.08 0.01,0.15 -0.02,0.24 -0.03,0.08 -0.08,0.14 -0.14,0.18 -0.06,0.04 -0.12,0.05 -0.18,0.02zm-0.59 -2.15c-0.09,0.14 -0.21,0.32 -0.34,0.56 -0.04,0.08 -0.1,0.18 -0.15,0.29l-0.15 0.29c0.07,-0.19 0.16,-0.4 0.26,-0.61 0.1,-0.2 0.2,-0.38 0.33,-0.57 0.14,-0.21 0.28,-0.38 0.41,-0.51l0.06 -0.06c0.02,-0.02 0.04,-0.04 0.06,-0.05l0.06 -0.05 0.07 -0.04c0.12,-0.07 0.22,-0.1 0.3,-0.09 -0.08,0.01 -0.18,0.05 -0.28,0.12l-0.06 0.05 -0.06 0.06c-0.02,0.01 -0.04,0.03 -0.06,0.05l-0.05 0.06c-0.13,0.14 -0.25,0.31 -0.39,0.51zm0.98 -1.16c-0.32,-0.05 -0.68,0.19 -1.08,0.72 -0.36,0.48 -0.68,1.09 -0.97,1.84 -0.28,0.74 -0.45,1.4 -0.5,1.98 -0.05,0.63 0.06,1 0.34,1.12 0.21,0.09 0.41,0.09 0.61,-0.01 0.15,-0.07 0.3,-0.2 0.47,-0.39 0.03,-0.04 0.07,-0.08 0.1,-0.12l0.1 -0.12c0.08,-0.1 0.14,-0.18 0.18,-0.22 0.13,-0.15 0.24,-0.22 0.33,-0.22 0.09,0 0.2,0.07 0.34,0.21 0.04,0.04 0.1,0.11 0.18,0.21l0.1 0.11 0.1 0.12c0.17,0.18 0.32,0.3 0.45,0.36 0.18,0.08 0.36,0.08 0.54,-0.01 0.21,-0.1 0.33,-0.44 0.36,-1.02 0.03,-0.54 -0.03,-1.15 -0.17,-1.84 -0.14,-0.71 -0.34,-1.31 -0.58,-1.8 -0.28,-0.55 -0.58,-0.85 -0.9,-0.91z"/>
  <path id="_7" class="fil0" d="M38.26 4.13c-0.03,0.08 -0.07,0.15 -0.13,0.21 -0.06,0.06 -0.12,0.11 -0.19,0.14 -0.08,0.03 -0.15,0.04 -0.22,0.02 0.07,-0.02 0.14,-0.04 0.2,-0.08 0.06,-0.04 0.11,-0.08 0.16,-0.14 0.09,-0.1 0.16,-0.23 0.21,-0.39 0.01,0.08 -0,0.16 -0.03,0.24zm-0.67 -0.34c0.04,-0.08 0.09,-0.14 0.15,-0.17 0.06,-0.04 0.12,-0.04 0.17,-0.01 0.05,0.03 0.08,0.08 0.1,0.16 0.01,0.08 -0,0.15 -0.04,0.23 -0.04,0.08 -0.09,0.14 -0.15,0.17 -0.06,0.03 -0.12,0.04 -0.17,0.01 -0.05,-0.03 -0.08,-0.08 -0.1,-0.16 -0.01,-0.08 0,-0.16 0.04,-0.23zm-0.56 -1.58c-0.17,0.08 -0.31,0.2 -0.43,0.34 -0.11,0.13 -0.21,0.29 -0.3,0.48 -0.07,0.15 -0.13,0.34 -0.18,0.56 0.01,-0.08 0.02,-0.18 0.05,-0.29 0.02,-0.1 0.05,-0.2 0.09,-0.29 0.07,-0.19 0.17,-0.36 0.29,-0.51 0.13,-0.16 0.29,-0.27 0.46,-0.34 0.09,-0.04 0.17,-0.06 0.27,-0.08 0.1,-0.02 0.19,-0.02 0.27,-0.02 -0.2,0.03 -0.38,0.09 -0.52,0.16zm0.69 -0.47c-0.49,-0.01 -0.9,0.14 -1.22,0.44 -0.29,0.27 -0.49,0.64 -0.61,1.12 -0.11,0.44 -0.13,0.92 -0.08,1.45 0.05,0.51 0.17,0.98 0.36,1.42 0.18,0.42 0.38,0.74 0.61,0.97 0.2,0.2 0.39,0.31 0.59,0.33 0.18,0.02 0.33,-0.04 0.46,-0.17 0.13,-0.13 0.21,-0.31 0.23,-0.54 0.02,-0.15 0.02,-0.33 -0.01,-0.53 -0.01,-0.06 -0.02,-0.13 -0.04,-0.24l-0.02 -0.11c-0.01,-0.04 -0.01,-0.07 -0.02,-0.1 -0.02,-0.16 -0.02,-0.28 0.01,-0.36 0.03,-0.11 0.11,-0.19 0.23,-0.25 0.4,-0.2 0.7,-0.5 0.9,-0.89 0.19,-0.36 0.26,-0.74 0.22,-1.13 -0.04,-0.4 -0.2,-0.72 -0.47,-0.98 -0.29,-0.28 -0.67,-0.42 -1.14,-0.43z"/>
  <path id="_8" class="fil0" d="M42.16 5.73c-0.04,0.07 -0.1,0.13 -0.18,0.16 -0.07,0.04 -0.15,0.05 -0.22,0.03 0.15,-0.03 0.27,-0.11 0.34,-0.24 0.04,-0.05 0.06,-0.12 0.08,-0.2 0.01,-0.07 0.02,-0.15 0.02,-0.24 0.03,0.08 0.04,0.16 0.03,0.24 -0.01,0.09 -0.03,0.17 -0.07,0.24zm-0.65 -0.31c-0.04,-0.08 -0.05,-0.15 -0.04,-0.23 0.01,-0.08 0.04,-0.13 0.09,-0.16 0.05,-0.03 0.11,-0.02 0.17,0.01 0.06,0.03 0.11,0.09 0.15,0.17 0.04,0.08 0.05,0.16 0.04,0.23 -0.01,0.07 -0.04,0.13 -0.1,0.16 -0.05,0.03 -0.11,0.03 -0.17,-0.01 -0.06,-0.03 -0.11,-0.09 -0.15,-0.17zm-0.34 -3.31c-0.04,0.02 -0.1,0.06 -0.15,0.11 -0.09,0.08 -0.17,0.17 -0.25,0.28 -0.06,0.08 -0.14,0.19 -0.22,0.32 -0.03,0.04 -0.06,0.1 -0.1,0.17l-0.1 0.17c0.05,-0.15 0.1,-0.27 0.15,-0.37 0.06,-0.13 0.13,-0.24 0.21,-0.34 0.09,-0.12 0.18,-0.21 0.28,-0.28 0.13,-0.09 0.24,-0.13 0.36,-0.12 -0.06,0.01 -0.12,0.03 -0.17,0.06zm0.96 1.93c-0.13,-0.04 -0.2,-0.11 -0.24,-0.22 -0.03,-0.08 -0.03,-0.2 -0,-0.36 0.01,-0.03 0.01,-0.07 0.02,-0.11l0.02 -0.11c0.02,-0.1 0.03,-0.19 0.04,-0.25 0.03,-0.2 0.04,-0.38 0.02,-0.54 -0.03,-0.22 -0.1,-0.4 -0.23,-0.53 -0.13,-0.13 -0.29,-0.19 -0.47,-0.17 -0.2,0.02 -0.39,0.13 -0.59,0.33 -0.22,0.22 -0.43,0.55 -0.61,0.97 -0.19,0.44 -0.31,0.91 -0.36,1.41 -0.05,0.53 -0.03,1.01 0.08,1.45 0.12,0.48 0.32,0.85 0.61,1.12 0.32,0.3 0.73,0.44 1.22,0.44 0.47,-0.01 0.86,-0.16 1.16,-0.46 0.28,-0.27 0.45,-0.62 0.51,-1.03 0.06,-0.41 -0.01,-0.79 -0.21,-1.14 -0.21,-0.38 -0.54,-0.64 -0.98,-0.79zm1.54 -1.84c-0.04,0.04 -0.07,0.09 -0.09,0.15 -0.02,0.06 -0.03,0.12 -0.03,0.19 -0,0.1 0.01,0.23 0.03,0.4l0.04 0.2 0.03 0.2c-0.05,-0.14 -0.09,-0.27 -0.12,-0.38 -0.04,-0.15 -0.05,-0.29 -0.05,-0.41 0.01,-0.08 0.02,-0.15 0.04,-0.21 0.03,-0.08 0.07,-0.14 0.12,-0.18 0.1,-0.08 0.22,-0.12 0.36,-0.1 -0.14,0.02 -0.25,0.07 -0.33,0.15zm1.29 0.22c-0.1,-0.21 -0.24,-0.38 -0.41,-0.5 -0.15,-0.11 -0.31,-0.17 -0.48,-0.18 -0.16,-0.01 -0.31,0.02 -0.45,0.09 -0.14,0.07 -0.24,0.17 -0.3,0.31 -0.12,0.25 -0.11,0.62 0.01,1.1 0.02,0.08 0.04,0.18 0.08,0.3l0.04 0.16 0.05 0.15c0.07,0.24 0.11,0.44 0.12,0.6 0.04,0.39 0.06,0.78 0.05,1.2 -0,0.13 -0.01,0.29 -0.02,0.46l-0 0.1 -0 0.1c-0,0.08 -0.01,0.14 -0.01,0.18 -0.01,0.25 0.01,0.43 0.04,0.53 0.04,0.13 0.13,0.21 0.27,0.25 0.27,0.07 0.51,-0.09 0.72,-0.46 0.19,-0.33 0.34,-0.79 0.44,-1.38 0.1,-0.57 0.13,-1.13 0.11,-1.68 -0.03,-0.58 -0.11,-1.03 -0.27,-1.34z"/>
  <path id="_9" class="fil0" d="M48.81 2.15c-0.03,0.02 -0.07,0.04 -0.1,0.09 -0.04,0.06 -0.07,0.14 -0.1,0.26 -0.03,0.15 -0.04,0.34 -0.03,0.57l0 0.07 0 0.07c0,0.06 0,0.11 -0,0.15 -0.01,0.11 -0.03,0.21 -0.07,0.29 -0.04,0.1 -0.09,0.18 -0.16,0.24 -0.07,0.07 -0.15,0.12 -0.23,0.14 0.17,-0.08 0.28,-0.22 0.35,-0.41 0.03,-0.09 0.05,-0.18 0.05,-0.28 0,-0.04 0,-0.08 0,-0.14l-0 -0.07 0 -0.08c-0,-0.24 0.01,-0.43 0.05,-0.58 0.03,-0.12 0.07,-0.21 0.13,-0.27 0.04,-0.04 0.08,-0.07 0.12,-0.08 0.04,-0.01 0.08,-0.02 0.13,-0.02 -0.05,0.01 -0.1,0.02 -0.13,0.04zm-2.48 0.1c-0.09,0.1 -0.15,0.22 -0.2,0.36 -0.04,0.12 -0.08,0.26 -0.11,0.42l-0.05 0.21 -0.05 0.22c0.01,-0.3 0.06,-0.59 0.14,-0.87 0.05,-0.16 0.13,-0.29 0.22,-0.38 0.05,-0.06 0.11,-0.1 0.18,-0.12 0.07,-0.03 0.14,-0.04 0.2,-0.03 -0.13,0.01 -0.24,0.08 -0.34,0.2zm2.59 -0.44c-0.25,0.01 -0.43,0.14 -0.53,0.37 -0.1,0.22 -0.14,0.56 -0.12,1.03 0.01,0.2 -0.03,0.35 -0.12,0.46 -0.07,0.09 -0.17,0.13 -0.29,0.12 -0.12,-0.01 -0.21,-0.07 -0.27,-0.17 -0.06,-0.1 -0.09,-0.24 -0.07,-0.4 0.05,-0.47 0,-0.82 -0.13,-1.06 -0.12,-0.21 -0.31,-0.34 -0.59,-0.38 -0.22,-0.04 -0.42,0.02 -0.6,0.17 -0.17,0.14 -0.3,0.34 -0.38,0.6 -0.15,0.5 -0.23,1.09 -0.24,1.77 -0.01,0.65 0.05,1.28 0.18,1.87 0.1,0.44 0.25,0.76 0.46,0.95 0.17,0.16 0.37,0.22 0.58,0.19 0.47,-0.08 0.68,-0.45 0.63,-1.12 -0.03,-0.49 0.06,-0.74 0.29,-0.74 0.11,0 0.2,0.04 0.26,0.14 0.08,0.12 0.11,0.31 0.1,0.57 -0.02,0.44 0.04,0.78 0.19,1.01 0.14,0.22 0.34,0.32 0.59,0.32 0.43,0 0.74,-0.29 0.91,-0.88 0.13,-0.43 0.2,-1.13 0.23,-2.12 0.02,-0.76 -0.07,-1.39 -0.26,-1.9 -0.21,-0.53 -0.48,-0.78 -0.83,-0.76z"/>
  <path id="_10" class="fil0" d="M15.01 5.55c-0.01,0.07 -0.04,0.13 -0.08,0.19 -0.04,0.06 -0.09,0.11 -0.14,0.14 -0.06,0.04 -0.12,0.06 -0.18,0.07 0.12,-0.09 0.21,-0.17 0.26,-0.26 0.06,-0.09 0.1,-0.21 0.14,-0.36 0.01,0.07 0.01,0.14 -0,0.21zm-1.5 0.3c-0.07,0.01 -0.13,0.01 -0.18,0.02 -0.06,0.02 -0.12,0.04 -0.16,0.07 -0.04,0.03 -0.08,0.08 -0.11,0.15 0.01,-0.08 0.03,-0.14 0.08,-0.19 0.04,-0.05 0.1,-0.08 0.18,-0.11 0.07,-0.01 0.13,-0.01 0.19,-0.01 0.07,0.01 0.14,0.03 0.19,0.04 -0.05,0.01 -0.12,0.02 -0.19,0.02zm0.01 -3.4c-0.07,0.06 -0.13,0.12 -0.18,0.17 -0.03,0.03 -0.05,0.06 -0.07,0.1 -0.02,0.03 -0.04,0.07 -0.06,0.11 -0.03,0.07 -0.06,0.16 -0.08,0.25 -0.01,0.04 -0.02,0.08 -0.03,0.13l-0.03 0.13c0,-0.2 0.03,-0.38 0.08,-0.53 0.02,-0.05 0.04,-0.09 0.06,-0.13 0.03,-0.04 0.05,-0.07 0.08,-0.11 0.04,-0.06 0.11,-0.12 0.19,-0.18 0.14,-0.1 0.29,-0.18 0.45,-0.23 0.09,-0.02 0.17,-0.04 0.24,-0.06 0.1,-0.01 0.18,-0.02 0.25,-0.02 -0.19,0.04 -0.35,0.09 -0.47,0.14 -0.17,0.07 -0.31,0.14 -0.43,0.23zm1.54 1.3c-0.12,-0.03 -0.24,-0.05 -0.37,-0.06 -0.04,-0 -0.09,-0.01 -0.14,-0.01l-0.07 -0 -0.06 -0c-0.16,-0.01 -0.25,-0.04 -0.29,-0.09 -0.04,-0.05 -0.04,-0.12 -0.01,-0.2 0.03,-0.08 0.08,-0.14 0.15,-0.18 0.22,-0.12 0.56,-0.13 1.02,-0.04 0.19,0.04 0.35,0.01 0.49,-0.1 0.13,-0.1 0.2,-0.23 0.23,-0.4 0.03,-0.17 0,-0.33 -0.09,-0.48 -0.1,-0.16 -0.26,-0.28 -0.47,-0.34 -0.36,-0.1 -0.76,-0.12 -1.21,-0.04 -0.56,0.1 -0.97,0.33 -1.22,0.71 -0.16,0.23 -0.24,0.58 -0.24,1.03 0,0.46 0.08,0.79 0.25,0.98 0.1,0.12 0.22,0.21 0.36,0.26 0.11,0.04 0.24,0.06 0.4,0.06l0.1 0 0.1 0c0.08,0 0.15,0.01 0.19,0.01 0.14,0.01 0.25,0.05 0.34,0.11 0.12,0.08 0.19,0.2 0.2,0.35 0.01,0.15 -0.03,0.25 -0.13,0.32 -0.05,0.03 -0.1,0.05 -0.15,0.06 -0.08,0.01 -0.2,-0.01 -0.35,-0.06 -0.82,-0.25 -1.27,-0.06 -1.34,0.56 -0.03,0.28 0.06,0.53 0.27,0.76 0.2,0.21 0.47,0.36 0.82,0.45 0.35,0.09 0.7,0.1 1.05,0.04 0.38,-0.07 0.7,-0.23 0.96,-0.48 0.26,-0.25 0.45,-0.54 0.55,-0.88 0.1,-0.32 0.11,-0.65 0.04,-0.97 -0.07,-0.33 -0.23,-0.61 -0.46,-0.84 -0.24,-0.25 -0.55,-0.42 -0.93,-0.52z"/>
  <path id="_11" class="fil0" d="M6.77 12.83c-0.06,0.01 -0.11,0.03 -0.17,0.06l-0.04 0.02 -0.04 0.02c-0.03,0.02 -0.06,0.03 -0.09,0.03 -0.06,0.02 -0.12,0.02 -0.19,0.02l0.09 -0.03c0.03,-0.01 0.06,-0.03 0.09,-0.04l0.04 -0.02 0.04 -0.02c0.03,-0.02 0.06,-0.03 0.08,-0.05 0.07,-0.03 0.13,-0.04 0.19,-0.04 0.07,-0 0.13,0.01 0.18,0.05 -0.06,-0.01 -0.12,-0.01 -0.18,0zm-1.69 0.12c-0.06,0 -0.11,0.01 -0.15,0.01 -0.06,0 -0.11,0.01 -0.14,0.02 -0.03,0.01 -0.05,0.02 -0.06,0.04 -0.01,0.01 -0.02,0.03 -0.04,0.07 -0,-0.03 0,-0.06 0.01,-0.09 0.02,-0.02 0.04,-0.04 0.06,-0.06 0.04,-0.02 0.09,-0.04 0.15,-0.04 0.06,-0.01 0.11,-0 0.16,0 0.06,0.01 0.11,0.02 0.15,0.03 -0.04,0.01 -0.1,0.02 -0.15,0.02zm1.32 -0.3c-0.1,0.06 -0.27,0.08 -0.5,0.07 -0.07,-0.01 -0.18,-0.02 -0.31,-0.03l-0.16 -0.02c-0.06,-0.01 -0.11,-0.01 -0.15,-0.02 -0.24,-0.02 -0.43,-0.01 -0.55,0.04 -0.16,0.06 -0.26,0.17 -0.28,0.35 -0.03,0.23 0.06,0.43 0.29,0.6 0.2,0.15 0.47,0.26 0.81,0.32 0.33,0.06 0.65,0.06 0.95,-0 0.32,-0.06 0.56,-0.19 0.7,-0.37 0.11,-0.13 0.16,-0.27 0.17,-0.43 0,-0.15 -0.03,-0.29 -0.12,-0.4 -0.09,-0.12 -0.2,-0.19 -0.34,-0.22 -0.16,-0.03 -0.33,0.01 -0.51,0.11z"/>
  <path id="_12" class="fil0" d="M9.07 10.64c-0.17,0.03 -0.31,0.06 -0.42,0.09 -0.16,0.05 -0.29,0.11 -0.39,0.18 -0.07,0.05 -0.12,0.1 -0.15,0.15 -0.04,0.06 -0.06,0.13 -0.06,0.22 -0.02,-0.08 -0.01,-0.16 0.03,-0.24 0.03,-0.06 0.08,-0.12 0.15,-0.18 0.1,-0.08 0.23,-0.14 0.4,-0.2 0.27,-0.08 0.56,-0.1 0.87,-0.07 -0.16,0.02 -0.3,0.04 -0.43,0.06zm0.7 -0.36c-0.6,-0.03 -1.09,0.04 -1.46,0.21 -0.39,0.19 -0.57,0.45 -0.55,0.8 0.02,0.19 0.09,0.34 0.23,0.42 0.1,0.06 0.25,0.11 0.44,0.13l0.12 0.01 0.12 0.01c0.09,0.01 0.17,0.02 0.22,0.03 0.15,0.03 0.24,0.1 0.28,0.2 0.02,0.06 -0,0.41 -0.07,1.04 -0.03,0.32 -0.06,0.6 -0.07,0.82 -0.01,0.32 -0.01,0.6 0.01,0.84 0.03,0.36 0.15,0.65 0.34,0.88 0.21,0.24 0.45,0.34 0.74,0.3 0.53,-0.08 0.72,-0.65 0.58,-1.71 -0.08,-0.56 -0.12,-1.04 -0.12,-1.43 -0,-0.42 0.03,-0.67 0.11,-0.74 0.05,-0.05 0.15,-0.07 0.29,-0.08 0.04,0 0.1,0 0.19,0l0.1 0 0.1 -0c0.16,-0 0.28,-0.03 0.38,-0.08 0.12,-0.06 0.2,-0.16 0.24,-0.31 0.05,-0.18 0.02,-0.35 -0.08,-0.51 -0.1,-0.15 -0.25,-0.29 -0.46,-0.42 -0.43,-0.25 -0.99,-0.39 -1.68,-0.43z"/>
  <path id="_13" class="fil0" d="M15.26 10.92c-0.06,0.08 -0.13,0.18 -0.2,0.29 -0.12,0.2 -0.21,0.41 -0.3,0.64l-0.06 0.17 -0.06 0.17c-0.05,0.15 -0.09,0.26 -0.12,0.34 -0.06,0.15 -0.12,0.26 -0.17,0.32 -0.04,0.05 -0.09,0.09 -0.14,0.1 -0.05,0.02 -0.1,0.03 -0.17,0.02 0.07,-0 0.12,-0.01 0.16,-0.04 0.04,-0.02 0.08,-0.06 0.12,-0.12 0.05,-0.07 0.1,-0.17 0.14,-0.32l0.05 -0.17 0.06 -0.17c0.04,-0.14 0.08,-0.25 0.11,-0.34 0.09,-0.25 0.2,-0.46 0.32,-0.64 0.16,-0.24 0.32,-0.41 0.49,-0.5 -0.09,0.07 -0.17,0.15 -0.25,0.24zm-2.43 0.92c-0.03,0.16 -0.06,0.36 -0.09,0.58l-0.03 0.3 -0.03 0.29c-0.02,-0.58 0.04,-1.1 0.18,-1.55 0.03,-0.09 0.06,-0.17 0.08,-0.24 0.04,-0.1 0.09,-0.18 0.13,-0.24 0.12,-0.18 0.26,-0.26 0.41,-0.25 -0.19,0.02 -0.34,0.17 -0.46,0.44 -0.04,0.1 -0.08,0.22 -0.12,0.36 -0.02,0.05 -0.03,0.11 -0.04,0.17l-0.02 0.08 -0.01 0.04 -0.01 0.04zm3.37 -1.43c-0.3,-0.2 -0.6,-0.18 -0.91,0.05 -0.25,0.19 -0.48,0.49 -0.68,0.9 -0.06,0.13 -0.13,0.29 -0.19,0.46 -0.02,0.06 -0.05,0.14 -0.07,0.23l-0.03 0.1 -0.02 0.05 -0.02 0.05c-0.05,0.15 -0.08,0.25 -0.11,0.3 -0.04,0.08 -0.07,0.11 -0.1,0.11 -0.06,-0.01 -0.1,-0.06 -0.1,-0.16 -0,-0.09 0.01,-0.29 0.05,-0.62 0.08,-0.59 0.04,-1 -0.11,-1.24 -0.12,-0.19 -0.31,-0.26 -0.57,-0.23 -0.31,0.04 -0.56,0.37 -0.75,0.96 -0.18,0.58 -0.25,1.28 -0.23,2.11 0.04,1.53 0.46,2.35 1.25,2.47 0.23,0.03 0.46,-0.03 0.69,-0.18 0.22,-0.14 0.4,-0.34 0.55,-0.59 0.13,-0.22 0.25,-0.43 0.34,-0.62 0.03,-0.07 0.07,-0.14 0.1,-0.22 0.02,-0.05 0.04,-0.1 0.07,-0.16 0.04,-0.1 0.07,-0.16 0.08,-0.17 0.02,-0.03 0.04,-0.04 0.07,-0.03 0.03,0.01 0.04,0.12 0.01,0.33l-0.01 0.08 -0.01 0.07c-0.01,0.07 -0.01,0.12 -0.02,0.17 -0.01,0.14 -0.02,0.26 -0.03,0.36 -0.01,0.65 0.2,0.97 0.64,0.97 0.28,-0 0.5,-0.26 0.66,-0.78 0.14,-0.47 0.21,-1.06 0.21,-1.77 0,-0.7 -0.07,-1.32 -0.2,-1.89 -0.14,-0.61 -0.34,-0.99 -0.58,-1.15z"/>
  <path id="_14" class="fil0" d="M21.46 14.17c-0.04,0.09 -0.1,0.16 -0.18,0.2 -0.08,0.05 -0.16,0.06 -0.25,0.05 0.08,-0.02 0.16,-0.05 0.22,-0.1 0.06,-0.05 0.11,-0.11 0.15,-0.19 0.06,-0.14 0.08,-0.31 0.04,-0.5 0.04,0.08 0.07,0.16 0.07,0.26 0.01,0.1 -0.01,0.19 -0.05,0.28zm-0.68 -0.24c-0.04,-0.08 -0.06,-0.15 -0.05,-0.23 0.01,-0.08 0.04,-0.13 0.09,-0.16 0.05,-0.03 0.11,-0.03 0.17,0 0.07,0.03 0.12,0.09 0.16,0.16 0.04,0.08 0.06,0.16 0.05,0.23 -0.01,0.08 -0.04,0.13 -0.09,0.17 -0.05,0.03 -0.11,0.03 -0.17,0 -0.07,-0.03 -0.12,-0.09 -0.16,-0.17zm-0.32 -1.66c0.06,-0.02 0.11,-0.04 0.16,-0.07 0.05,-0.04 0.1,-0.07 0.13,-0.11 0.04,-0.04 0.07,-0.09 0.11,-0.15 0.03,-0.05 0.05,-0.11 0.07,-0.17 0.01,0.14 -0.03,0.26 -0.13,0.37 -0.05,0.05 -0.1,0.09 -0.16,0.11 -0.06,0.03 -0.13,0.03 -0.18,0.02zm-0.08 -0.58c0.03,-0.05 0.06,-0.09 0.11,-0.11 0.04,-0.02 0.08,-0.02 0.11,0 0.03,0.02 0.05,0.06 0.06,0.11 0,0.05 -0.01,0.1 -0.03,0.15 -0.03,0.05 -0.06,0.09 -0.11,0.11 -0.04,0.02 -0.08,0.02 -0.11,0 -0.03,-0.02 -0.05,-0.06 -0.06,-0.11 -0.01,-0.05 0.01,-0.1 0.03,-0.15zm-0.62 -0.71c-0.06,0.06 -0.12,0.15 -0.18,0.24 -0.09,0.15 -0.18,0.34 -0.26,0.56 -0.06,0.17 -0.12,0.38 -0.17,0.6 0.02,-0.21 0.06,-0.41 0.12,-0.62 0.06,-0.21 0.15,-0.4 0.25,-0.58 0.12,-0.2 0.26,-0.35 0.42,-0.45 0.1,-0.06 0.19,-0.11 0.28,-0.13 0.1,-0.02 0.2,-0.03 0.29,-0.03 -0.2,0.02 -0.38,0.09 -0.54,0.2 -0.08,0.06 -0.15,0.13 -0.22,0.2zm1.58 1.52c-0.04,-0.02 -0.05,-0.06 -0.03,-0.13 0.01,-0.02 0.03,-0.06 0.06,-0.12l0.02 -0.03 0.02 -0.04c0.01,-0.03 0.03,-0.06 0.04,-0.08 0.07,-0.14 0.11,-0.28 0.14,-0.42 0.04,-0.19 0.04,-0.38 0.01,-0.59 -0.03,-0.22 -0.15,-0.41 -0.35,-0.57 -0.2,-0.16 -0.43,-0.24 -0.7,-0.25 -0.29,-0.01 -0.55,0.08 -0.8,0.26 -0.28,0.21 -0.5,0.54 -0.66,0.97 -0.17,0.45 -0.26,0.94 -0.27,1.47 -0.02,0.54 0.05,1.04 0.2,1.49 0.16,0.49 0.4,0.87 0.72,1.13 0.35,0.29 0.78,0.42 1.28,0.39 0.48,-0.03 0.85,-0.2 1.13,-0.5 0.26,-0.27 0.4,-0.61 0.42,-1.02 0.03,-0.4 -0.07,-0.78 -0.27,-1.13 -0.22,-0.38 -0.54,-0.66 -0.96,-0.84z"/>
  <path id="_15" class="fil0" d="M25.41 14.26c-0.04,0.07 -0.1,0.13 -0.18,0.16 -0.07,0.04 -0.15,0.05 -0.22,0.03 0.15,-0.03 0.27,-0.11 0.34,-0.24 0.03,-0.05 0.06,-0.12 0.08,-0.2 0.01,-0.07 0.02,-0.15 0.02,-0.24 0.03,0.08 0.04,0.16 0.03,0.24 -0.01,0.09 -0.03,0.17 -0.07,0.24zm-0.65 -0.31c-0.04,-0.08 -0.05,-0.15 -0.04,-0.23 0.01,-0.08 0.04,-0.13 0.09,-0.16 0.05,-0.03 0.11,-0.02 0.17,0.01 0.06,0.03 0.11,0.09 0.15,0.17 0.04,0.08 0.05,0.16 0.04,0.23 -0.01,0.07 -0.04,0.13 -0.1,0.16 -0.05,0.03 -0.11,0.03 -0.17,-0.01 -0.06,-0.03 -0.11,-0.09 -0.15,-0.17zm-0.34 -3.31c-0.04,0.02 -0.1,0.06 -0.15,0.11 -0.09,0.08 -0.17,0.17 -0.25,0.28 -0.06,0.08 -0.14,0.19 -0.22,0.32 -0.03,0.04 -0.06,0.1 -0.1,0.17l-0.1 0.17c0.05,-0.15 0.1,-0.27 0.15,-0.37 0.06,-0.13 0.13,-0.24 0.21,-0.34 0.09,-0.12 0.18,-0.21 0.28,-0.28 0.13,-0.09 0.24,-0.13 0.36,-0.12 -0.06,0.01 -0.12,0.03 -0.17,0.06zm0.96 1.93c-0.13,-0.04 -0.2,-0.11 -0.24,-0.22 -0.03,-0.08 -0.03,-0.2 -0,-0.36 0.01,-0.03 0.01,-0.07 0.02,-0.11l0.02 -0.11c0.02,-0.1 0.03,-0.19 0.04,-0.25 0.03,-0.2 0.04,-0.38 0.02,-0.54 -0.03,-0.22 -0.1,-0.4 -0.23,-0.53 -0.13,-0.13 -0.29,-0.19 -0.47,-0.17 -0.2,0.02 -0.39,0.13 -0.59,0.33 -0.22,0.22 -0.43,0.55 -0.61,0.97 -0.19,0.44 -0.31,0.91 -0.36,1.41 -0.05,0.53 -0.03,1.01 0.08,1.45 0.12,0.48 0.32,0.85 0.61,1.12 0.32,0.3 0.73,0.44 1.22,0.44 0.47,-0.01 0.86,-0.16 1.16,-0.46 0.28,-0.27 0.45,-0.62 0.51,-1.03 0.06,-0.41 -0.01,-0.79 -0.21,-1.14 -0.21,-0.38 -0.54,-0.64 -0.98,-0.79zm1.54 -1.84c-0.04,0.04 -0.07,0.09 -0.09,0.15 -0.02,0.06 -0.03,0.12 -0.03,0.19 -0.01,0.1 0.01,0.23 0.03,0.4l0.04 0.2 0.03 0.2c-0.05,-0.14 -0.09,-0.27 -0.12,-0.38 -0.04,-0.15 -0.05,-0.29 -0.05,-0.41 0.01,-0.08 0.02,-0.15 0.04,-0.21 0.03,-0.08 0.07,-0.14 0.12,-0.18 0.1,-0.08 0.22,-0.12 0.36,-0.1 -0.14,0.02 -0.25,0.07 -0.33,0.15zm1.29 0.22c-0.1,-0.21 -0.24,-0.38 -0.41,-0.5 -0.15,-0.11 -0.31,-0.17 -0.48,-0.18 -0.16,-0.01 -0.31,0.02 -0.45,0.09 -0.14,0.07 -0.24,0.17 -0.3,0.31 -0.12,0.25 -0.11,0.62 0.01,1.1 0.02,0.08 0.04,0.18 0.08,0.3l0.04 0.16 0.05 0.15c0.07,0.24 0.11,0.44 0.12,0.6 0.04,0.39 0.06,0.78 0.05,1.2 -0,0.13 -0.01,0.29 -0.02,0.46l-0 0.1 -0 0.1c-0,0.08 -0.01,0.14 -0.01,0.18 -0.01,0.25 0.01,0.43 0.04,0.53 0.04,0.13 0.13,0.21 0.27,0.25 0.27,0.07 0.51,-0.09 0.72,-0.46 0.19,-0.33 0.34,-0.79 0.44,-1.38 0.1,-0.57 0.13,-1.13 0.11,-1.68 -0.03,-0.58 -0.11,-1.03 -0.27,-1.34z"/>
  <path id="_16" class="fil0" d="M30.17 10.77c-0.02,0.01 -0.05,0.02 -0.08,0.04l-0.07 0.04 -0.07 0.04c-0.03,0.02 -0.05,0.04 -0.07,0.05 -0.08,0.06 -0.17,0.13 -0.26,0.22 -0.1,0.11 -0.17,0.2 -0.21,0.27 -0.12,0.19 -0.2,0.41 -0.24,0.66 -0.01,0.05 -0.02,0.11 -0.02,0.18l-0.01 0.18c-0.01,0.05 -0.01,0.11 -0.01,0.18l-0 0.18c-0.03,-0.26 -0.03,-0.51 -0.01,-0.74 0.02,-0.26 0.1,-0.5 0.23,-0.7l0.05 -0.08 0.06 -0.07c0.01,-0.02 0.03,-0.04 0.06,-0.07l0.03 -0.03 0.03 -0.04c0.11,-0.1 0.2,-0.18 0.28,-0.22 0.19,-0.13 0.4,-0.21 0.64,-0.25l-0.08 0.03 -0.08 0.03c-0.06,0.02 -0.11,0.04 -0.15,0.07zm2.59 0.75c-0.21,-0.48 -0.52,-0.83 -0.95,-1.04 -0.39,-0.2 -0.81,-0.25 -1.26,-0.17 -0.45,0.08 -0.82,0.28 -1.13,0.59 -0.33,0.34 -0.52,0.75 -0.56,1.23 -0.08,0.9 0.05,1.79 0.39,2.65 0.15,0.39 0.32,0.69 0.51,0.91 0.2,0.23 0.4,0.33 0.59,0.3 0.27,-0.04 0.44,-0.21 0.5,-0.52 0.07,-0.35 0.02,-0.95 -0.13,-1.81 -0.12,-0.68 -0.05,-1.04 0.21,-1.07 0.14,-0.02 0.26,0.1 0.34,0.36 0.07,0.24 0.11,0.54 0.1,0.91 -0.03,0.81 0.05,1.38 0.24,1.7 0.14,0.24 0.35,0.35 0.62,0.34 0.23,-0.01 0.43,-0.17 0.59,-0.48 0.15,-0.29 0.25,-0.66 0.31,-1.12 0.06,-0.46 0.06,-0.93 0,-1.41 -0.06,-0.51 -0.17,-0.96 -0.34,-1.35z"/>
  <path id="_17" class="fil0" d="M36.9 10.7c-0.05,0.05 -0.1,0.11 -0.15,0.18 -0.07,0.11 -0.16,0.24 -0.25,0.41l-0.06 0.1 -0.06 0.11c-0.05,0.08 -0.09,0.15 -0.13,0.21 -0.06,0.08 -0.11,0.15 -0.15,0.19 -0.07,0.06 -0.14,0.1 -0.21,0.12 0.07,-0.03 0.13,-0.08 0.18,-0.14 0.04,-0.05 0.08,-0.11 0.13,-0.2 0.03,-0.05 0.07,-0.12 0.11,-0.22l0.12 -0.21c0.1,-0.18 0.19,-0.32 0.26,-0.41 0.06,-0.07 0.12,-0.13 0.17,-0.18 0.08,-0.06 0.15,-0.09 0.21,-0.09 -0.06,0.01 -0.13,0.05 -0.19,0.12zm-2.36 3.59c-0.06,0.05 -0.11,0.09 -0.15,0.12 -0.11,0.09 -0.2,0.18 -0.26,0.26 -0.04,0.06 -0.07,0.11 -0.09,0.17 -0.02,0.05 -0.04,0.11 -0.05,0.19 -0,-0.06 0,-0.13 0.02,-0.2 0.02,-0.06 0.05,-0.13 0.08,-0.19 0.06,-0.09 0.14,-0.19 0.26,-0.29 0.08,-0.07 0.18,-0.14 0.31,-0.22l0.08 -0.05 0.08 -0.05c0.06,-0.04 0.11,-0.08 0.15,-0.11 -0.07,0.08 -0.16,0.17 -0.28,0.26l-0.15 0.11zm-0.62 -3.24c-0.04,0.05 -0.06,0.12 -0.08,0.19 -0.02,0.06 -0.03,0.14 -0.03,0.22 -0.03,-0.07 -0.04,-0.15 -0.03,-0.23 0.01,-0.08 0.03,-0.16 0.08,-0.23 0.05,-0.07 0.1,-0.12 0.17,-0.15 0.07,-0.04 0.14,-0.04 0.22,-0.03 -0.14,0.03 -0.26,0.11 -0.34,0.23zm3.18 -0.77c-0.15,0 -0.29,0.08 -0.44,0.23 -0.11,0.11 -0.23,0.28 -0.36,0.5l-0.08 0.14 -0.04 0.07 -0.03 0.06c-0.06,0.11 -0.1,0.18 -0.13,0.23 -0.09,0.15 -0.17,0.23 -0.22,0.23 -0.06,0 -0.17,-0.11 -0.35,-0.32l-0.03 -0.04 -0.03 -0.04c-0.02,-0.03 -0.05,-0.05 -0.07,-0.08 -0.05,-0.06 -0.1,-0.12 -0.14,-0.17 -0.12,-0.13 -0.24,-0.25 -0.35,-0.35 -0.18,-0.16 -0.38,-0.24 -0.57,-0.24 -0.18,0 -0.34,0.06 -0.47,0.19 -0.13,0.13 -0.22,0.29 -0.25,0.49 -0.03,0.21 0.01,0.42 0.12,0.63 0.08,0.15 0.2,0.31 0.35,0.48 0.06,0.06 0.13,0.14 0.21,0.21l0.1 0.1 0.1 0.1c0.17,0.16 0.29,0.28 0.35,0.36 0.1,0.12 0.15,0.23 0.16,0.33 0.01,0.1 -0.05,0.21 -0.17,0.32 -0.04,0.04 -0.11,0.09 -0.19,0.15l-0.05 0.04 -0.06 0.04 -0.11 0.08c-0.19,0.14 -0.33,0.27 -0.42,0.4 -0.13,0.18 -0.2,0.38 -0.21,0.59 -0.01,0.17 0.02,0.32 0.09,0.47 0.06,0.14 0.16,0.26 0.28,0.35 0.27,0.2 0.61,0.23 1.02,0.1 0.55,-0.18 1.09,-0.69 1.63,-1.53 0.49,-0.75 0.8,-1.47 0.94,-2.15 0.14,-0.7 0.15,-1.21 0.02,-1.55 -0.11,-0.28 -0.3,-0.42 -0.58,-0.42z"/>
  <path id="_18" class="fil0" d="M41.23 13.75c-0.02,0.01 -0.05,0.03 -0.08,0.06l-0.04 0.03 -0.04 0.03c-0.07,0.05 -0.13,0.08 -0.19,0.1 -0.07,0.02 -0.14,0.02 -0.21,0.01 0.13,-0.03 0.24,-0.08 0.36,-0.17l0.04 -0.03 0.04 -0.03c0.04,-0.02 0.07,-0.04 0.1,-0.05 0.07,-0.03 0.14,-0.04 0.21,-0.03 -0.06,0.01 -0.12,0.04 -0.18,0.08zm-2.12 -2.65c-0.13,0.14 -0.24,0.31 -0.34,0.5 -0.09,0.16 -0.16,0.36 -0.24,0.58 0.04,-0.21 0.1,-0.41 0.19,-0.61 0.09,-0.2 0.2,-0.37 0.34,-0.53 0.15,-0.17 0.31,-0.29 0.49,-0.37 0.1,-0.04 0.2,-0.07 0.29,-0.08 0.11,-0.02 0.21,-0.02 0.29,-0.01 -0.21,0.02 -0.4,0.07 -0.56,0.14 -0.18,0.09 -0.33,0.22 -0.46,0.37zm2.92 3.07c-0.03,-0.41 -0.17,-0.67 -0.41,-0.77 -0.11,-0.04 -0.22,-0.05 -0.34,-0.02 -0.12,0.03 -0.23,0.09 -0.34,0.18 -0.11,0.09 -0.22,0.13 -0.33,0.11 -0.11,-0.01 -0.21,-0.07 -0.3,-0.16 -0.09,-0.1 -0.16,-0.23 -0.2,-0.39 -0.04,-0.17 -0.05,-0.36 -0.03,-0.56 0.04,-0.29 0.17,-0.45 0.39,-0.49 0.16,-0.03 0.38,0.02 0.67,0.13 0.12,0.05 0.24,0.04 0.35,-0.01 0.1,-0.05 0.18,-0.14 0.23,-0.26 0.05,-0.13 0.07,-0.26 0.04,-0.42 -0.02,-0.17 -0.09,-0.32 -0.19,-0.48 -0.22,-0.32 -0.51,-0.55 -0.87,-0.67 -0.33,-0.11 -0.67,-0.12 -1.01,-0.03 -0.44,0.11 -0.8,0.42 -1.08,0.91 -0.31,0.53 -0.47,1.2 -0.47,1.99 0,0.9 0.21,1.6 0.64,2.11 0.2,0.24 0.43,0.41 0.7,0.53 0.27,0.11 0.56,0.15 0.88,0.12 0.53,-0.05 0.96,-0.25 1.28,-0.62 0.3,-0.35 0.44,-0.75 0.4,-1.2z"/>
  <path id="_19" class="fil0" d="M44.85 11.52c-0.1,0.14 -0.2,0.25 -0.29,0.34 -0.12,0.12 -0.24,0.2 -0.36,0.25 0.09,-0.06 0.2,-0.16 0.32,-0.29 0.09,-0.1 0.18,-0.22 0.28,-0.34 0.04,-0.06 0.09,-0.12 0.12,-0.18l0.03 -0.05 0.03 -0.04c0.02,-0.04 0.05,-0.07 0.07,-0.1 0.05,-0.06 0.11,-0.11 0.17,-0.14 0.07,-0.04 0.14,-0.05 0.21,-0.04 -0.13,0.01 -0.24,0.09 -0.34,0.23 -0.02,0.02 -0.04,0.05 -0.06,0.09l-0.03 0.05 -0.03 0.05c-0.03,0.05 -0.08,0.12 -0.13,0.19zm-1.45 -0.88c-0.05,0.03 -0.1,0.08 -0.14,0.14 -0.06,0.08 -0.13,0.2 -0.19,0.35 -0.04,0.09 -0.08,0.23 -0.13,0.4l-0.06 0.2 -0.06 0.2c0.01,-0.17 0.03,-0.31 0.06,-0.42 0.03,-0.15 0.07,-0.29 0.12,-0.41 0.06,-0.16 0.13,-0.28 0.21,-0.37 0.05,-0.06 0.1,-0.1 0.16,-0.13 0.07,-0.03 0.13,-0.05 0.19,-0.04 -0.07,0.01 -0.13,0.04 -0.18,0.07zm1.65 2.32c-0.1,-0.06 -0.12,-0.11 -0.07,-0.16 0.02,-0.02 0.06,-0.05 0.12,-0.08l0.04 -0.02 0.04 -0.02c0.04,-0.02 0.08,-0.03 0.1,-0.05 0.18,-0.1 0.33,-0.2 0.45,-0.32 0.17,-0.17 0.29,-0.37 0.36,-0.6 0.06,-0.22 0.06,-0.42 -0.01,-0.62 -0.07,-0.18 -0.18,-0.31 -0.33,-0.4 -0.16,-0.09 -0.32,-0.11 -0.48,-0.06 -0.19,0.06 -0.35,0.19 -0.48,0.41 -0.22,0.37 -0.44,0.62 -0.64,0.76 -0.08,0.06 -0.14,0.07 -0.17,0.05 -0.03,-0.03 -0.02,-0.09 0.02,-0.19 0.18,-0.4 0.23,-0.72 0.17,-0.98 -0.06,-0.21 -0.19,-0.34 -0.39,-0.39 -0.42,-0.11 -0.74,0.12 -0.97,0.68 -0.18,0.45 -0.3,1.1 -0.36,1.95 -0.05,0.86 -0.02,1.55 0.11,2.08 0.15,0.64 0.42,0.95 0.82,0.93 0.36,-0.01 0.57,-0.3 0.63,-0.86 0.02,-0.19 0.02,-0.4 0,-0.64 -0.01,-0.08 -0.02,-0.17 -0.03,-0.25 -0,-0.03 -0.01,-0.06 -0.01,-0.1l-0 -0.04 -0 -0.02 0 -0.01c-0.01,-0.07 -0,-0.12 0.03,-0.15 0.03,-0.03 0.07,-0.02 0.12,0.03 0.13,0.12 0.26,0.43 0.38,0.92 0.08,0.31 0.19,0.57 0.33,0.77 0.14,0.18 0.29,0.3 0.46,0.36 0.16,0.06 0.32,0.05 0.48,-0.01 0.16,-0.07 0.29,-0.19 0.4,-0.36 0.12,-0.19 0.18,-0.41 0.19,-0.65 0.01,-0.23 -0.04,-0.47 -0.14,-0.72 -0.22,-0.52 -0.6,-0.94 -1.14,-1.26z"/>
  <path id="_20" class="fil0" d="M3.35 14.56c-0.03,0 -0.07,0 -0.12,0.01l-0.07 0.01 -0.07 0c0.07,-0.06 0.16,-0.09 0.25,-0.1 0.05,0 0.1,0.01 0.14,0.02 0.05,0.02 0.08,0.05 0.11,0.09 -0.09,-0.03 -0.17,-0.04 -0.24,-0.04zm-2.09 -1.29c-0.06,0.06 -0.11,0.12 -0.15,0.18 -0.11,0.14 -0.2,0.27 -0.26,0.38 -0.08,0.14 -0.14,0.28 -0.18,0.44 -0.04,0.15 -0.05,0.31 -0.05,0.48l-0.02 -0.12 -0 -0.06 0 -0.06 0 -0.06 0 -0.06 0.01 -0.06 0.01 -0.06c0.03,-0.16 0.08,-0.31 0.17,-0.46 0.08,-0.14 0.18,-0.27 0.29,-0.38 0.06,-0.06 0.11,-0.11 0.17,-0.17l0.09 -0.07c0.03,-0.03 0.07,-0.05 0.1,-0.07l-0.08 0.08 -0.08 0.08zm0.36 -2.55c-0.07,0.03 -0.14,0.07 -0.2,0.11 -0.14,0.08 -0.26,0.17 -0.37,0.26 -0.12,0.1 -0.22,0.21 -0.32,0.34 -0.05,0.07 -0.09,0.13 -0.12,0.2 -0.04,0.08 -0.07,0.15 -0.08,0.23 -0.01,-0.14 0.05,-0.29 0.15,-0.46 0.08,-0.13 0.19,-0.25 0.32,-0.36 0.13,-0.11 0.26,-0.19 0.39,-0.26 0.07,-0.03 0.14,-0.06 0.21,-0.08 0.08,-0.03 0.16,-0.04 0.22,-0.05l-0.11 0.04c-0.04,0.02 -0.08,0.03 -0.11,0.04zm1.37 3.57c-0.21,0.09 -0.4,0.12 -0.57,0.11 -0.14,-0.01 -0.23,-0.05 -0.26,-0.11 -0.01,-0.03 -0.02,-0.06 -0.02,-0.09 -0,-0.05 0.01,-0.09 0.03,-0.14 0.06,-0.13 0.2,-0.27 0.42,-0.42 0.29,-0.19 0.54,-0.44 0.73,-0.73 0.19,-0.29 0.31,-0.59 0.37,-0.9 0.06,-0.32 0.04,-0.61 -0.07,-0.87 -0.11,-0.28 -0.31,-0.5 -0.59,-0.65 -0.34,-0.18 -0.69,-0.24 -1.07,-0.19 -0.33,0.05 -0.65,0.18 -0.95,0.39 -0.28,0.2 -0.49,0.44 -0.63,0.7 -0.14,0.27 -0.17,0.5 -0.1,0.7 0.08,0.2 0.22,0.31 0.43,0.35 0.22,0.03 0.48,-0.02 0.78,-0.18 0.17,-0.09 0.29,-0.14 0.36,-0.15 0.07,-0.01 0.12,-0 0.15,0.04 0.08,0.08 -0.01,0.2 -0.27,0.37 -0.48,0.3 -0.84,0.63 -1.09,1 -0.3,0.46 -0.4,0.95 -0.29,1.47 0.08,0.36 0.32,0.63 0.71,0.81 0.32,0.14 0.72,0.21 1.22,0.21 0.49,0 0.9,-0.07 1.21,-0.22 0.32,-0.15 0.51,-0.36 0.56,-0.63 0.03,-0.13 0.02,-0.27 -0.02,-0.4 -0.04,-0.14 -0.11,-0.25 -0.2,-0.35 -0.1,-0.1 -0.22,-0.16 -0.35,-0.19 -0.15,-0.03 -0.32,-0 -0.49,0.07z"/>
  <path class="fil1" d="M3.14 5.63c-0.03,0 -0.07,0 -0.12,0.01l-0.07 0.01 -0.07 0c0.07,-0.06 0.16,-0.09 0.25,-0.1 0.05,0 0.1,0.01 0.14,0.02 0.05,0.02 0.08,0.05 0.11,0.09 -0.09,-0.03 -0.17,-0.04 -0.24,-0.04zm-2.09 -1.29c-0.06,0.06 -0.11,0.12 -0.15,0.18 -0.11,0.14 -0.2,0.27 -0.26,0.38 -0.08,0.14 -0.14,0.28 -0.18,0.44 -0.04,0.15 -0.05,0.31 -0.05,0.48l-0.02 -0.12 -0 -0.06 0 -0.06 0 -0.06 0 -0.06 0.01 -0.06 0.01 -0.06c0.03,-0.16 0.08,-0.31 0.17,-0.46 0.08,-0.14 0.18,-0.27 0.29,-0.38 0.06,-0.06 0.11,-0.11 0.17,-0.17l0.09 -0.07c0.03,-0.03 0.07,-0.05 0.1,-0.07l-0.08 0.08 -0.08 0.08zm0.36 -2.55c-0.07,0.03 -0.14,0.07 -0.2,0.11 -0.14,0.08 -0.26,0.17 -0.37,0.26 -0.12,0.1 -0.22,0.21 -0.32,0.34 -0.05,0.07 -0.09,0.13 -0.12,0.2 -0.04,0.08 -0.07,0.15 -0.08,0.23 -0.01,-0.14 0.05,-0.29 0.15,-0.46 0.08,-0.13 0.19,-0.25 0.32,-0.36 0.13,-0.11 0.26,-0.19 0.39,-0.26 0.07,-0.03 0.14,-0.06 0.21,-0.08 0.08,-0.03 0.16,-0.04 0.22,-0.05l-0.11 0.04c-0.04,0.02 -0.08,0.03 -0.11,0.04zm1.37 3.57c-0.21,0.09 -0.4,0.12 -0.57,0.11 -0.14,-0.01 -0.23,-0.05 -0.26,-0.11 -0.01,-0.03 -0.02,-0.06 -0.02,-0.09 -0,-0.05 0.01,-0.09 0.03,-0.14 0.06,-0.13 0.2,-0.27 0.42,-0.42 0.29,-0.19 0.54,-0.44 0.73,-0.73 0.19,-0.29 0.31,-0.59 0.37,-0.9 0.06,-0.32 0.04,-0.61 -0.07,-0.87 -0.11,-0.28 -0.31,-0.5 -0.59,-0.65 -0.34,-0.18 -0.69,-0.24 -1.07,-0.19 -0.33,0.05 -0.65,0.18 -0.95,0.39 -0.28,0.2 -0.49,0.44 -0.63,0.7 -0.14,0.27 -0.17,0.5 -0.1,0.7 0.08,0.2 0.22,0.31 0.43,0.35 0.22,0.03 0.48,-0.02 0.78,-0.18 0.17,-0.09 0.29,-0.14 0.36,-0.15 0.07,-0.01 0.12,-0 0.15,0.04 0.08,0.08 -0.02,0.2 -0.27,0.37 -0.48,0.3 -0.84,0.63 -1.09,1 -0.3,0.46 -0.4,0.95 -0.29,1.47 0.08,0.36 0.32,0.63 0.71,0.81 0.32,0.14 0.72,0.21 1.22,0.21 0.49,0 0.9,-0.07 1.21,-0.22 0.32,-0.15 0.51,-0.36 0.56,-0.63 0.03,-0.13 0.02,-0.27 -0.02,-0.4 -0.04,-0.14 -0.11,-0.25 -0.2,-0.35 -0.1,-0.1 -0.22,-0.16 -0.35,-0.19 -0.15,-0.03 -0.32,-0 -0.49,0.07z"/>
  <path id="_1_0" class="fil1" d="M6.6 5.15c-0.04,0.09 -0.09,0.16 -0.16,0.22 -0.07,0.06 -0.15,0.1 -0.23,0.11 0.14,-0.08 0.25,-0.2 0.32,-0.36 0.06,-0.12 0.1,-0.29 0.12,-0.49 0.04,0.18 0.02,0.36 -0.06,0.53zm-0.47 0.02c-0.09,0.03 -0.18,0 -0.26,-0.09 -0.09,-0.09 -0.14,-0.21 -0.17,-0.36 -0.03,-0.15 -0.02,-0.3 0.02,-0.42 0.04,-0.13 0.11,-0.21 0.2,-0.24 0.09,-0.03 0.18,0 0.26,0.09 0.09,0.09 0.14,0.21 0.17,0.36 0.03,0.15 0.02,0.3 -0.02,0.42 -0.04,0.13 -0.11,0.21 -0.2,0.24zm-1.14 -2.88c-0.11,0.16 -0.2,0.36 -0.28,0.61 -0.06,0.2 -0.12,0.42 -0.16,0.67 0,-0.09 0.01,-0.21 0.03,-0.35 0.02,-0.11 0.05,-0.23 0.07,-0.34 0.06,-0.24 0.16,-0.45 0.28,-0.64 0.14,-0.21 0.3,-0.37 0.49,-0.46 0.1,-0.05 0.2,-0.09 0.31,-0.11 0.11,-0.02 0.22,-0.02 0.32,-0.02 -0.24,0.02 -0.44,0.08 -0.61,0.18 -0.18,0.11 -0.33,0.26 -0.45,0.46zm1.46 -0.91c-0.68,-0.14 -1.22,0.05 -1.62,0.56 -0.36,0.45 -0.55,1.07 -0.59,1.85 -0.03,0.76 0.09,1.44 0.38,2.06 0.31,0.67 0.73,1.06 1.26,1.19 0.5,0.12 0.95,-0.08 1.34,-0.6 0.36,-0.47 0.59,-1.08 0.7,-1.84 0.11,-0.77 0.05,-1.45 -0.17,-2.03 -0.26,-0.66 -0.69,-1.05 -1.29,-1.17z"/>
  <path id="_2_1" class="fil1" d="M11.45 5.63c-0.03,0 -0.07,0 -0.12,0.01l-0.07 0.01 -0.07 0c0.07,-0.06 0.16,-0.09 0.25,-0.1 0.05,0 0.1,0.01 0.14,0.02 0.05,0.02 0.08,0.05 0.11,0.09 -0.09,-0.03 -0.17,-0.04 -0.24,-0.04zm-2.09 -1.29c-0.06,0.06 -0.11,0.12 -0.15,0.18 -0.11,0.14 -0.2,0.27 -0.26,0.38 -0.08,0.14 -0.14,0.28 -0.18,0.44 -0.04,0.15 -0.05,0.31 -0.05,0.48l-0.02 -0.12 -0 -0.06 0 -0.06 0 -0.06 0 -0.06 0.01 -0.06 0.01 -0.06c0.03,-0.16 0.08,-0.31 0.17,-0.46 0.08,-0.14 0.18,-0.27 0.29,-0.38 0.06,-0.06 0.11,-0.11 0.17,-0.17l0.09 -0.07c0.03,-0.03 0.07,-0.05 0.1,-0.07l-0.08 0.08 -0.08 0.08zm0.36 -2.55c-0.07,0.03 -0.14,0.07 -0.2,0.11 -0.14,0.08 -0.26,0.17 -0.37,0.26 -0.12,0.1 -0.22,0.21 -0.32,0.34 -0.05,0.07 -0.09,0.13 -0.12,0.2 -0.04,0.08 -0.07,0.15 -0.08,0.23 -0.01,-0.14 0.05,-0.29 0.15,-0.46 0.08,-0.13 0.19,-0.25 0.32,-0.36 0.13,-0.11 0.26,-0.19 0.39,-0.26 0.07,-0.03 0.14,-0.06 0.21,-0.08 0.08,-0.03 0.16,-0.04 0.22,-0.05l-0.11 0.04c-0.04,0.02 -0.08,0.03 -0.11,0.04zm1.37 3.57c-0.21,0.09 -0.4,0.12 -0.57,0.11 -0.14,-0.01 -0.23,-0.05 -0.26,-0.11 -0.01,-0.03 -0.02,-0.06 -0.02,-0.09 -0,-0.05 0.01,-0.09 0.03,-0.14 0.06,-0.13 0.2,-0.27 0.42,-0.42 0.29,-0.19 0.54,-0.44 0.73,-0.73 0.19,-0.29 0.31,-0.59 0.37,-0.9 0.06,-0.32 0.04,-0.61 -0.07,-0.87 -0.11,-0.28 -0.31,-0.5 -0.59,-0.65 -0.34,-0.18 -0.69,-0.24 -1.07,-0.19 -0.33,0.05 -0.65,0.18 -0.95,0.39 -0.28,0.2 -0.49,0.44 -0.63,0.7 -0.14,0.27 -0.17,0.5 -0.1,0.7 0.08,0.2 0.22,0.31 0.43,0.35 0.22,0.03 0.48,-0.02 0.78,-0.18 0.17,-0.09 0.29,-0.14 0.36,-0.15 0.07,-0.01 0.12,-0 0.15,0.04 0.08,0.08 -0.01,0.2 -0.27,0.37 -0.48,0.3 -0.84,0.63 -1.09,1 -0.3,0.46 -0.4,0.95 -0.29,1.47 0.08,0.36 0.32,0.63 0.71,0.81 0.32,0.14 0.72,0.21 1.22,0.21 0.49,0 0.9,-0.07 1.21,-0.22 0.32,-0.15 0.51,-0.36 0.56,-0.63 0.03,-0.13 0.02,-0.27 -0.02,-0.4 -0.04,-0.14 -0.11,-0.25 -0.2,-0.35 -0.1,-0.1 -0.22,-0.16 -0.35,-0.19 -0.15,-0.03 -0.32,-0 -0.49,0.07z"/>
  <path id="_3_2" class="fil1" d="M18.97 3.89c-0.06,0.01 -0.11,0.03 -0.17,0.06l-0.04 0.02 -0.04 0.02c-0.03,0.02 -0.06,0.03 -0.09,0.03 -0.06,0.02 -0.12,0.02 -0.19,0.02l0.09 -0.03c0.03,-0.01 0.06,-0.03 0.09,-0.04l0.04 -0.02 0.04 -0.02c0.03,-0.02 0.06,-0.03 0.08,-0.05 0.07,-0.03 0.13,-0.04 0.19,-0.04 0.07,-0 0.13,0.01 0.18,0.05 -0.06,-0.01 -0.12,-0.01 -0.18,0zm-1.69 0.12c-0.06,0 -0.11,0.01 -0.15,0.01 -0.06,0 -0.11,0.01 -0.14,0.02 -0.03,0.01 -0.05,0.02 -0.06,0.04 -0.01,0.01 -0.02,0.03 -0.04,0.07 -0,-0.03 0,-0.06 0.01,-0.09 0.02,-0.02 0.04,-0.04 0.06,-0.06 0.04,-0.02 0.09,-0.04 0.15,-0.04 0.06,-0.01 0.11,-0 0.16,0 0.06,0.01 0.11,0.02 0.15,0.03 -0.04,0.01 -0.1,0.02 -0.15,0.02zm1.32 -0.3c-0.1,0.06 -0.27,0.08 -0.5,0.07 -0.07,-0.01 -0.18,-0.02 -0.31,-0.03l-0.16 -0.02c-0.06,-0.01 -0.11,-0.01 -0.15,-0.02 -0.24,-0.02 -0.43,-0.01 -0.55,0.04 -0.16,0.06 -0.26,0.17 -0.28,0.35 -0.03,0.23 0.06,0.43 0.29,0.6 0.2,0.15 0.47,0.26 0.81,0.32 0.33,0.06 0.65,0.06 0.95,-0 0.32,-0.06 0.56,-0.19 0.71,-0.37 0.11,-0.13 0.16,-0.27 0.17,-0.43 0.01,-0.15 -0.03,-0.29 -0.12,-0.4 -0.09,-0.12 -0.2,-0.19 -0.34,-0.22 -0.16,-0.03 -0.33,0.01 -0.51,0.11z"/>
  <path id="_4_3" class="fil1" d="M21.27 1.71c-0.17,0.03 -0.31,0.06 -0.42,0.09 -0.16,0.05 -0.29,0.11 -0.39,0.18 -0.07,0.05 -0.12,0.1 -0.15,0.15 -0.04,0.06 -0.06,0.13 -0.06,0.22 -0.02,-0.08 -0.01,-0.16 0.03,-0.24 0.03,-0.06 0.08,-0.12 0.15,-0.18 0.1,-0.08 0.23,-0.14 0.4,-0.2 0.27,-0.08 0.56,-0.1 0.87,-0.07 -0.16,0.02 -0.3,0.04 -0.43,0.06zm0.7 -0.36c-0.6,-0.03 -1.09,0.04 -1.46,0.21 -0.39,0.19 -0.57,0.45 -0.55,0.8 0.02,0.19 0.09,0.34 0.23,0.42 0.1,0.06 0.25,0.11 0.44,0.13l0.12 0.01 0.12 0.01c0.09,0.01 0.17,0.02 0.22,0.03 0.15,0.03 0.24,0.1 0.28,0.2 0.02,0.06 -0,0.41 -0.07,1.04 -0.03,0.32 -0.06,0.6 -0.07,0.82 -0.02,0.32 -0.01,0.6 0.01,0.84 0.03,0.36 0.15,0.65 0.34,0.88 0.21,0.24 0.45,0.34 0.74,0.3 0.53,-0.08 0.72,-0.65 0.58,-1.71 -0.08,-0.56 -0.12,-1.04 -0.12,-1.43 -0.01,-0.42 0.03,-0.67 0.11,-0.74 0.05,-0.05 0.15,-0.07 0.29,-0.08 0.04,0 0.1,0 0.19,0l0.1 0 0.1 -0c0.16,-0 0.28,-0.03 0.38,-0.08 0.12,-0.06 0.2,-0.16 0.24,-0.31 0.05,-0.18 0.02,-0.35 -0.08,-0.51 -0.1,-0.15 -0.25,-0.29 -0.46,-0.42 -0.43,-0.25 -0.99,-0.39 -1.68,-0.43z"/>
  <path id="_5_4" class="fil1" d="M27.46 1.98c-0.06,0.08 -0.13,0.18 -0.2,0.29 -0.12,0.2 -0.21,0.41 -0.3,0.64l-0.06 0.17 -0.06 0.17c-0.05,0.15 -0.09,0.26 -0.12,0.34 -0.06,0.15 -0.12,0.26 -0.17,0.32 -0.04,0.05 -0.09,0.09 -0.14,0.1 -0.05,0.02 -0.1,0.03 -0.17,0.02 0.07,-0 0.12,-0.01 0.16,-0.04 0.04,-0.02 0.08,-0.06 0.12,-0.12 0.05,-0.07 0.1,-0.17 0.14,-0.32l0.05 -0.17 0.06 -0.17c0.04,-0.14 0.08,-0.25 0.11,-0.34 0.09,-0.25 0.2,-0.46 0.32,-0.64 0.16,-0.24 0.32,-0.41 0.49,-0.5 -0.09,0.07 -0.17,0.15 -0.25,0.24zm-2.43 0.92c-0.03,0.16 -0.06,0.36 -0.09,0.58l-0.03 0.3 -0.03 0.29c-0.02,-0.58 0.04,-1.1 0.18,-1.55 0.03,-0.09 0.06,-0.17 0.08,-0.24 0.04,-0.1 0.09,-0.18 0.13,-0.24 0.12,-0.18 0.26,-0.26 0.41,-0.25 -0.19,0.02 -0.34,0.17 -0.46,0.44 -0.04,0.1 -0.08,0.22 -0.12,0.36 -0.02,0.05 -0.03,0.11 -0.04,0.17l-0.02 0.08 -0.01 0.04 -0.01 0.04zm3.37 -1.43c-0.3,-0.2 -0.6,-0.18 -0.91,0.05 -0.25,0.19 -0.48,0.49 -0.68,0.9 -0.06,0.13 -0.13,0.29 -0.19,0.46 -0.02,0.06 -0.05,0.14 -0.07,0.23l-0.03 0.1 -0.02 0.05 -0.02 0.05c-0.05,0.15 -0.08,0.25 -0.11,0.3 -0.04,0.08 -0.07,0.11 -0.1,0.11 -0.06,-0.01 -0.1,-0.06 -0.1,-0.16 -0.01,-0.09 0.01,-0.29 0.05,-0.62 0.08,-0.59 0.04,-1 -0.11,-1.24 -0.12,-0.19 -0.31,-0.26 -0.57,-0.23 -0.31,0.04 -0.56,0.37 -0.75,0.96 -0.18,0.58 -0.25,1.28 -0.23,2.11 0.04,1.53 0.46,2.35 1.25,2.47 0.23,0.03 0.46,-0.03 0.69,-0.18 0.22,-0.14 0.4,-0.34 0.55,-0.59 0.13,-0.22 0.25,-0.43 0.34,-0.62 0.03,-0.07 0.07,-0.14 0.1,-0.22 0.02,-0.05 0.04,-0.1 0.07,-0.16 0.04,-0.1 0.07,-0.16 0.08,-0.17 0.02,-0.03 0.04,-0.04 0.07,-0.03 0.03,0.01 0.04,0.12 0.01,0.33l-0.01 0.08 -0.01 0.07c-0.01,0.07 -0.01,0.12 -0.02,0.17 -0.01,0.14 -0.02,0.26 -0.03,0.36 -0.01,0.65 0.2,0.97 0.64,0.97 0.28,-0 0.5,-0.26 0.66,-0.78 0.14,-0.47 0.21,-1.06 0.21,-1.77 0,-0.7 -0.07,-1.32 -0.2,-1.89 -0.14,-0.61 -0.34,-0.99 -0.58,-1.15z"/>
  <path id="_6_5" class="fil1" d="M33.58 4.89c-0.05,0.04 -0.1,0.07 -0.16,0.09 -0.06,0.02 -0.12,0.02 -0.18,0 0.11,-0.03 0.21,-0.08 0.29,-0.15 0.07,-0.06 0.14,-0.15 0.22,-0.26 -0.02,0.13 -0.08,0.24 -0.18,0.32zm-0.4 -0.23c-0.06,-0.03 -0.09,-0.08 -0.11,-0.15 -0.02,-0.07 -0.02,-0.15 0.01,-0.23 0.03,-0.08 0.08,-0.14 0.14,-0.18 0.06,-0.04 0.12,-0.05 0.18,-0.02 0.06,0.02 0.1,0.07 0.11,0.15 0.02,0.08 0.01,0.15 -0.02,0.24 -0.03,0.08 -0.08,0.14 -0.14,0.18 -0.06,0.04 -0.12,0.05 -0.18,0.02zm-0.59 -2.15c-0.09,0.14 -0.21,0.32 -0.34,0.56 -0.04,0.08 -0.1,0.18 -0.15,0.29l-0.15 0.29c0.07,-0.19 0.16,-0.4 0.26,-0.61 0.1,-0.2 0.2,-0.38 0.33,-0.57 0.14,-0.21 0.28,-0.38 0.41,-0.51l0.06 -0.06c0.02,-0.02 0.04,-0.04 0.06,-0.05l0.06 -0.05 0.07 -0.04c0.12,-0.07 0.22,-0.1 0.3,-0.09 -0.08,0.01 -0.18,0.05 -0.28,0.12l-0.06 0.05 -0.06 0.06c-0.02,0.01 -0.04,0.03 -0.06,0.05l-0.05 0.06c-0.13,0.14 -0.25,0.31 -0.39,0.51zm0.98 -1.16c-0.32,-0.05 -0.68,0.19 -1.08,0.72 -0.36,0.48 -0.68,1.09 -0.97,1.84 -0.28,0.74 -0.45,1.4 -0.5,1.98 -0.05,0.63 0.06,1 0.34,1.12 0.21,0.09 0.41,0.09 0.61,-0.01 0.15,-0.07 0.3,-0.2 0.47,-0.39 0.03,-0.04 0.07,-0.08 0.1,-0.12l0.1 -0.12c0.08,-0.1 0.14,-0.18 0.18,-0.22 0.13,-0.15 0.24,-0.22 0.33,-0.22 0.09,0 0.2,0.07 0.34,0.21 0.04,0.04 0.1,0.11 0.18,0.21l0.1 0.11 0.1 0.12c0.17,0.18 0.32,0.3 0.45,0.36 0.18,0.08 0.36,0.08 0.54,-0.01 0.21,-0.1 0.33,-0.44 0.36,-1.02 0.03,-0.54 -0.03,-1.15 -0.17,-1.84 -0.14,-0.71 -0.34,-1.31 -0.58,-1.8 -0.28,-0.55 -0.58,-0.85 -0.9,-0.91z"/>
  <path id="_7_6" class="fil1" d="M38.06 3.72c-0.03,0.08 -0.07,0.15 -0.13,0.21 -0.06,0.06 -0.12,0.11 -0.19,0.14 -0.08,0.03 -0.15,0.04 -0.22,0.02 0.07,-0.02 0.14,-0.04 0.2,-0.08 0.06,-0.04 0.11,-0.08 0.16,-0.14 0.09,-0.1 0.16,-0.23 0.21,-0.39 0.01,0.08 -0,0.16 -0.03,0.24zm-0.67 -0.34c0.04,-0.08 0.09,-0.14 0.15,-0.17 0.06,-0.04 0.12,-0.04 0.17,-0.01 0.05,0.03 0.08,0.08 0.1,0.16 0.01,0.08 -0,0.15 -0.04,0.23 -0.04,0.08 -0.09,0.14 -0.15,0.17 -0.06,0.03 -0.12,0.04 -0.17,0.01 -0.05,-0.03 -0.08,-0.08 -0.1,-0.16 -0.01,-0.08 0,-0.16 0.04,-0.23zm-0.56 -1.58c-0.17,0.08 -0.31,0.2 -0.43,0.34 -0.11,0.13 -0.21,0.29 -0.3,0.48 -0.07,0.15 -0.13,0.34 -0.18,0.56 0.01,-0.08 0.02,-0.18 0.05,-0.29 0.02,-0.1 0.05,-0.2 0.09,-0.29 0.07,-0.19 0.17,-0.36 0.29,-0.51 0.13,-0.16 0.29,-0.27 0.46,-0.34 0.09,-0.04 0.17,-0.06 0.27,-0.08 0.1,-0.02 0.19,-0.02 0.27,-0.02 -0.2,0.03 -0.38,0.09 -0.52,0.16zm0.69 -0.47c-0.49,-0.01 -0.9,0.14 -1.22,0.44 -0.29,0.27 -0.49,0.64 -0.61,1.12 -0.11,0.44 -0.13,0.92 -0.08,1.45 0.05,0.51 0.17,0.98 0.36,1.42 0.18,0.42 0.38,0.74 0.61,0.97 0.2,0.2 0.39,0.31 0.59,0.33 0.18,0.02 0.33,-0.04 0.46,-0.17 0.13,-0.13 0.21,-0.31 0.23,-0.54 0.02,-0.15 0.02,-0.33 -0.01,-0.53 -0.01,-0.06 -0.02,-0.13 -0.04,-0.24l-0.02 -0.11c-0.01,-0.04 -0.01,-0.07 -0.02,-0.1 -0.02,-0.16 -0.02,-0.28 0.01,-0.36 0.03,-0.11 0.11,-0.19 0.23,-0.25 0.4,-0.2 0.7,-0.5 0.9,-0.89 0.19,-0.36 0.26,-0.74 0.22,-1.13 -0.04,-0.4 -0.2,-0.72 -0.47,-0.98 -0.29,-0.28 -0.67,-0.42 -1.14,-0.43z"/>
  <path id="_8_7" class="fil1" d="M41.95 5.33c-0.04,0.07 -0.1,0.13 -0.18,0.16 -0.07,0.04 -0.15,0.05 -0.22,0.03 0.15,-0.03 0.27,-0.11 0.34,-0.24 0.04,-0.05 0.06,-0.12 0.08,-0.2 0.01,-0.07 0.02,-0.15 0.02,-0.24 0.03,0.08 0.04,0.16 0.03,0.24 -0.01,0.09 -0.03,0.17 -0.07,0.24zm-0.65 -0.31c-0.04,-0.08 -0.05,-0.15 -0.04,-0.23 0.01,-0.08 0.04,-0.13 0.09,-0.16 0.05,-0.03 0.11,-0.02 0.17,0.01 0.06,0.03 0.11,0.09 0.15,0.17 0.04,0.08 0.05,0.16 0.04,0.23 -0.01,0.07 -0.04,0.13 -0.1,0.16 -0.05,0.03 -0.11,0.03 -0.17,-0.01 -0.06,-0.03 -0.11,-0.09 -0.15,-0.17zm-0.34 -3.31c-0.04,0.02 -0.1,0.06 -0.15,0.11 -0.09,0.08 -0.17,0.17 -0.25,0.28 -0.06,0.08 -0.14,0.19 -0.22,0.32 -0.03,0.04 -0.06,0.1 -0.1,0.17l-0.1 0.17c0.05,-0.15 0.1,-0.27 0.15,-0.37 0.06,-0.13 0.13,-0.24 0.21,-0.34 0.09,-0.12 0.18,-0.21 0.28,-0.28 0.13,-0.09 0.24,-0.13 0.36,-0.12 -0.06,0.01 -0.12,0.03 -0.17,0.06zm0.96 1.93c-0.13,-0.04 -0.2,-0.11 -0.24,-0.22 -0.03,-0.08 -0.03,-0.2 -0,-0.36 0.01,-0.03 0.01,-0.07 0.02,-0.11l0.02 -0.11c0.02,-0.1 0.03,-0.19 0.04,-0.25 0.03,-0.2 0.04,-0.38 0.02,-0.54 -0.03,-0.22 -0.1,-0.4 -0.23,-0.53 -0.13,-0.13 -0.29,-0.19 -0.47,-0.17 -0.2,0.02 -0.39,0.13 -0.59,0.33 -0.22,0.22 -0.43,0.55 -0.61,0.97 -0.19,0.44 -0.31,0.91 -0.36,1.41 -0.05,0.53 -0.03,1.01 0.08,1.45 0.12,0.48 0.32,0.85 0.61,1.12 0.32,0.3 0.73,0.44 1.22,0.44 0.47,-0.01 0.86,-0.16 1.16,-0.46 0.28,-0.27 0.45,-0.62 0.51,-1.03 0.06,-0.41 -0.01,-0.79 -0.21,-1.14 -0.21,-0.38 -0.54,-0.64 -0.98,-0.79zm1.54 -1.84c-0.04,0.04 -0.07,0.09 -0.09,0.15 -0.02,0.06 -0.03,0.12 -0.03,0.19 -0,0.1 0.01,0.23 0.03,0.4l0.04 0.2 0.03 0.2c-0.05,-0.14 -0.09,-0.27 -0.12,-0.38 -0.04,-0.15 -0.05,-0.29 -0.05,-0.41 0.01,-0.08 0.02,-0.15 0.04,-0.21 0.03,-0.08 0.07,-0.14 0.12,-0.18 0.1,-0.08 0.22,-0.12 0.36,-0.1 -0.14,0.02 -0.25,0.07 -0.33,0.15zm1.29 0.22c-0.1,-0.21 -0.24,-0.38 -0.41,-0.5 -0.15,-0.11 -0.31,-0.17 -0.48,-0.18 -0.16,-0.01 -0.31,0.02 -0.45,0.09 -0.14,0.07 -0.24,0.17 -0.3,0.31 -0.12,0.25 -0.11,0.62 0.01,1.1 0.02,0.08 0.04,0.18 0.08,0.3l0.04 0.16 0.05 0.15c0.07,0.24 0.11,0.44 0.12,0.6 0.04,0.39 0.06,0.78 0.05,1.2 -0,0.13 -0.01,0.29 -0.02,0.46l-0 0.1 -0 0.1c-0,0.08 -0.01,0.14 -0.01,0.18 -0.01,0.25 0.01,0.43 0.04,0.53 0.04,0.13 0.13,0.21 0.27,0.25 0.27,0.07 0.51,-0.09 0.72,-0.46 0.19,-0.33 0.34,-0.79 0.44,-1.38 0.1,-0.57 0.13,-1.13 0.11,-1.68 -0.03,-0.58 -0.11,-1.03 -0.27,-1.34z"/>
  <path id="_9_8" class="fil1" d="M48.61 1.75c-0.03,0.02 -0.07,0.04 -0.1,0.09 -0.04,0.06 -0.07,0.14 -0.1,0.26 -0.03,0.15 -0.04,0.34 -0.03,0.57l0 0.07 0 0.07c0,0.06 0,0.11 -0,0.15 -0.01,0.11 -0.03,0.21 -0.07,0.29 -0.04,0.1 -0.09,0.18 -0.16,0.24 -0.07,0.07 -0.15,0.12 -0.23,0.14 0.17,-0.08 0.28,-0.22 0.35,-0.41 0.03,-0.09 0.05,-0.18 0.05,-0.28 0,-0.04 0,-0.08 0,-0.14l-0 -0.07 0 -0.08c-0,-0.24 0.01,-0.43 0.05,-0.58 0.03,-0.12 0.07,-0.21 0.13,-0.27 0.04,-0.04 0.08,-0.07 0.12,-0.08 0.04,-0.01 0.08,-0.02 0.13,-0.02 -0.05,0.01 -0.1,0.02 -0.13,0.04zm-2.48 0.1c-0.09,0.1 -0.15,0.22 -0.2,0.36 -0.04,0.12 -0.08,0.26 -0.11,0.42l-0.05 0.21 -0.05 0.22c0.01,-0.3 0.06,-0.59 0.14,-0.87 0.05,-0.16 0.13,-0.29 0.22,-0.38 0.05,-0.06 0.11,-0.1 0.18,-0.12 0.07,-0.03 0.14,-0.04 0.2,-0.03 -0.13,0.01 -0.24,0.08 -0.34,0.2zm2.59 -0.44c-0.25,0.01 -0.43,0.14 -0.53,0.37 -0.1,0.22 -0.14,0.56 -0.12,1.03 0.01,0.2 -0.03,0.35 -0.12,0.46 -0.07,0.09 -0.17,0.13 -0.29,0.12 -0.12,-0.01 -0.21,-0.07 -0.27,-0.17 -0.06,-0.1 -0.09,-0.24 -0.07,-0.4 0.05,-0.47 0,-0.82 -0.13,-1.06 -0.12,-0.21 -0.31,-0.34 -0.59,-0.38 -0.22,-0.04 -0.42,0.02 -0.6,0.17 -0.17,0.14 -0.3,0.34 -0.38,0.6 -0.15,0.5 -0.23,1.09 -0.24,1.77 -0.01,0.65 0.05,1.28 0.18,1.87 0.1,0.44 0.25,0.76 0.46,0.95 0.17,0.16 0.37,0.22 0.58,0.19 0.47,-0.08 0.68,-0.45 0.63,-1.12 -0.03,-0.49 0.06,-0.74 0.29,-0.74 0.11,0 0.2,0.04 0.26,0.14 0.08,0.12 0.11,0.31 0.1,0.57 -0.02,0.44 0.04,0.78 0.19,1.01 0.14,0.22 0.34,0.32 0.59,0.32 0.43,0 0.74,-0.29 0.91,-0.88 0.13,-0.43 0.2,-1.13 0.23,-2.12 0.02,-0.76 -0.07,-1.39 -0.26,-1.9 -0.21,-0.53 -0.48,-0.78 -0.83,-0.76z"/>
  <path id="_10_9" class="fil1" d="M14.81 5.14c-0.01,0.07 -0.04,0.13 -0.08,0.19 -0.04,0.06 -0.09,0.11 -0.14,0.14 -0.06,0.04 -0.12,0.06 -0.18,0.07 0.12,-0.09 0.21,-0.17 0.26,-0.26 0.06,-0.09 0.1,-0.21 0.14,-0.36 0.01,0.07 0.01,0.14 -0,0.21zm-1.5 0.3c-0.07,0.01 -0.13,0.01 -0.18,0.02 -0.06,0.02 -0.12,0.04 -0.16,0.07 -0.04,0.03 -0.08,0.08 -0.11,0.15 0.01,-0.08 0.03,-0.14 0.08,-0.19 0.04,-0.05 0.1,-0.08 0.18,-0.11 0.07,-0.01 0.13,-0.01 0.19,-0.01 0.07,0.01 0.14,0.03 0.19,0.04 -0.05,0.01 -0.12,0.02 -0.19,0.02zm0.01 -3.4c-0.07,0.06 -0.13,0.12 -0.18,0.17 -0.03,0.03 -0.05,0.06 -0.07,0.1 -0.02,0.03 -0.04,0.07 -0.06,0.11 -0.03,0.07 -0.06,0.16 -0.08,0.25 -0.01,0.04 -0.02,0.08 -0.03,0.13l-0.02 0.13c0,-0.2 0.03,-0.38 0.08,-0.53 0.02,-0.05 0.04,-0.09 0.06,-0.13 0.03,-0.04 0.05,-0.07 0.08,-0.11 0.04,-0.06 0.11,-0.12 0.19,-0.18 0.14,-0.1 0.29,-0.18 0.45,-0.23 0.09,-0.02 0.17,-0.04 0.24,-0.06 0.1,-0.01 0.18,-0.02 0.25,-0.02 -0.19,0.04 -0.35,0.09 -0.47,0.14 -0.17,0.07 -0.31,0.14 -0.43,0.23zm1.54 1.3c-0.12,-0.03 -0.24,-0.05 -0.37,-0.06 -0.04,-0 -0.09,-0.01 -0.14,-0.01l-0.07 -0 -0.06 -0c-0.16,-0.01 -0.25,-0.04 -0.29,-0.09 -0.04,-0.05 -0.04,-0.12 -0.01,-0.2 0.03,-0.08 0.08,-0.14 0.15,-0.18 0.22,-0.12 0.56,-0.13 1.02,-0.04 0.19,0.04 0.35,0.01 0.49,-0.1 0.13,-0.1 0.2,-0.23 0.23,-0.4 0.03,-0.17 0,-0.33 -0.09,-0.48 -0.1,-0.16 -0.26,-0.28 -0.47,-0.34 -0.36,-0.1 -0.76,-0.12 -1.21,-0.04 -0.56,0.1 -0.97,0.33 -1.22,0.71 -0.16,0.23 -0.24,0.58 -0.24,1.03 0,0.46 0.08,0.79 0.25,0.98 0.1,0.12 0.22,0.21 0.36,0.26 0.11,0.04 0.24,0.06 0.4,0.06l0.1 0 0.1 0c0.08,0 0.15,0.01 0.19,0.01 0.14,0.01 0.25,0.05 0.34,0.11 0.12,0.08 0.19,0.2 0.2,0.35 0.01,0.15 -0.03,0.25 -0.13,0.32 -0.05,0.03 -0.1,0.05 -0.15,0.06 -0.08,0.01 -0.2,-0.01 -0.35,-0.06 -0.82,-0.25 -1.27,-0.06 -1.34,0.56 -0.03,0.28 0.06,0.53 0.27,0.76 0.2,0.21 0.47,0.36 0.82,0.45 0.35,0.09 0.7,0.1 1.05,0.04 0.38,-0.07 0.7,-0.23 0.96,-0.48 0.26,-0.25 0.45,-0.54 0.55,-0.88 0.1,-0.32 0.11,-0.65 0.04,-0.97 -0.07,-0.33 -0.23,-0.61 -0.46,-0.84 -0.24,-0.25 -0.55,-0.42 -0.93,-0.52z"/>
  <path id="_11_10" class="fil1" d="M6.56 12.42c-0.06,0.01 -0.11,0.03 -0.17,0.06l-0.04 0.02 -0.04 0.02c-0.03,0.02 -0.06,0.03 -0.09,0.03 -0.06,0.02 -0.12,0.02 -0.19,0.02l0.09 -0.03c0.03,-0.01 0.06,-0.03 0.09,-0.04l0.04 -0.02 0.04 -0.02c0.03,-0.02 0.06,-0.03 0.08,-0.05 0.07,-0.03 0.13,-0.04 0.19,-0.04 0.07,-0 0.13,0.01 0.18,0.05 -0.06,-0.01 -0.12,-0.01 -0.18,0zm-1.69 0.12c-0.06,0 -0.11,0.01 -0.15,0.01 -0.06,0 -0.11,0.01 -0.14,0.02 -0.03,0.01 -0.05,0.02 -0.06,0.04 -0.01,0.01 -0.02,0.03 -0.04,0.07 -0,-0.03 0,-0.06 0.01,-0.09 0.02,-0.02 0.04,-0.04 0.06,-0.06 0.04,-0.02 0.09,-0.04 0.15,-0.04 0.06,-0.01 0.11,-0 0.16,0 0.06,0.01 0.11,0.02 0.15,0.03 -0.04,0.01 -0.1,0.02 -0.15,0.02zm1.32 -0.3c-0.1,0.06 -0.27,0.08 -0.5,0.07 -0.07,-0.01 -0.18,-0.02 -0.31,-0.03l-0.16 -0.02c-0.06,-0.01 -0.11,-0.01 -0.15,-0.02 -0.24,-0.02 -0.43,-0.01 -0.55,0.04 -0.16,0.06 -0.26,0.17 -0.28,0.35 -0.03,0.23 0.06,0.43 0.29,0.6 0.2,0.15 0.47,0.26 0.81,0.32 0.33,0.06 0.65,0.06 0.95,-0 0.32,-0.06 0.56,-0.19 0.7,-0.37 0.11,-0.13 0.16,-0.27 0.17,-0.43 0.01,-0.15 -0.03,-0.29 -0.12,-0.4 -0.09,-0.12 -0.2,-0.19 -0.34,-0.22 -0.16,-0.03 -0.33,0.01 -0.51,0.11z"/>
  <path id="_12_11" class="fil1" d="M8.87 10.24c-0.17,0.03 -0.31,0.06 -0.42,0.09 -0.16,0.05 -0.29,0.11 -0.39,0.18 -0.07,0.05 -0.12,0.1 -0.15,0.15 -0.04,0.06 -0.06,0.13 -0.06,0.22 -0.02,-0.08 -0.01,-0.16 0.03,-0.24 0.03,-0.06 0.08,-0.12 0.15,-0.18 0.1,-0.08 0.23,-0.14 0.4,-0.2 0.27,-0.08 0.56,-0.1 0.87,-0.07 -0.16,0.02 -0.3,0.04 -0.43,0.06zm0.7 -0.36c-0.6,-0.03 -1.09,0.04 -1.46,0.21 -0.39,0.19 -0.57,0.45 -0.55,0.8 0.02,0.19 0.09,0.34 0.23,0.42 0.1,0.06 0.25,0.11 0.44,0.13l0.12 0.01 0.12 0.01c0.09,0.01 0.17,0.02 0.22,0.03 0.15,0.03 0.24,0.1 0.28,0.2 0.02,0.06 -0,0.41 -0.07,1.04 -0.03,0.32 -0.06,0.6 -0.07,0.82 -0.01,0.32 -0.01,0.6 0.01,0.84 0.03,0.36 0.15,0.65 0.34,0.88 0.21,0.24 0.45,0.34 0.74,0.3 0.53,-0.08 0.72,-0.65 0.58,-1.71 -0.08,-0.56 -0.12,-1.04 -0.12,-1.43 -0,-0.42 0.03,-0.67 0.11,-0.74 0.05,-0.05 0.15,-0.07 0.29,-0.08 0.04,0 0.1,0 0.19,0l0.1 0 0.1 -0c0.16,-0 0.28,-0.03 0.38,-0.08 0.12,-0.06 0.2,-0.16 0.24,-0.31 0.05,-0.18 0.02,-0.35 -0.08,-0.51 -0.1,-0.15 -0.25,-0.29 -0.46,-0.42 -0.43,-0.25 -1,-0.39 -1.68,-0.43z"/>
  <path id="_13_12" class="fil1" d="M15.06 10.51c-0.06,0.08 -0.13,0.18 -0.2,0.29 -0.12,0.2 -0.21,0.41 -0.3,0.64l-0.06 0.17 -0.06 0.17c-0.05,0.15 -0.09,0.26 -0.12,0.34 -0.06,0.15 -0.12,0.26 -0.17,0.32 -0.04,0.05 -0.09,0.09 -0.14,0.1 -0.05,0.02 -0.1,0.03 -0.17,0.02 0.07,-0 0.12,-0.01 0.16,-0.04 0.04,-0.02 0.08,-0.06 0.12,-0.12 0.05,-0.07 0.1,-0.17 0.14,-0.32l0.05 -0.17 0.06 -0.17c0.04,-0.14 0.08,-0.25 0.11,-0.34 0.09,-0.25 0.2,-0.46 0.32,-0.64 0.16,-0.24 0.32,-0.41 0.49,-0.5 -0.09,0.07 -0.17,0.15 -0.25,0.24zm-2.43 0.92c-0.03,0.16 -0.06,0.36 -0.09,0.58l-0.03 0.3 -0.03 0.29c-0.02,-0.58 0.04,-1.1 0.18,-1.55 0.03,-0.09 0.06,-0.17 0.08,-0.24 0.04,-0.1 0.09,-0.18 0.13,-0.24 0.12,-0.18 0.26,-0.26 0.41,-0.25 -0.19,0.02 -0.34,0.17 -0.46,0.44 -0.04,0.1 -0.08,0.22 -0.12,0.36 -0.02,0.05 -0.03,0.11 -0.04,0.17l-0.02 0.08 -0.01 0.04 -0.01 0.04zm3.37 -1.43c-0.3,-0.2 -0.6,-0.18 -0.91,0.05 -0.25,0.19 -0.48,0.49 -0.68,0.9 -0.06,0.13 -0.13,0.29 -0.19,0.46 -0.02,0.06 -0.05,0.14 -0.07,0.23l-0.03 0.1 -0.02 0.05 -0.02 0.05c-0.05,0.15 -0.08,0.25 -0.11,0.3 -0.04,0.08 -0.07,0.11 -0.1,0.11 -0.06,-0.01 -0.1,-0.06 -0.1,-0.16 -0.01,-0.09 0.01,-0.29 0.05,-0.62 0.08,-0.59 0.04,-1 -0.11,-1.24 -0.12,-0.19 -0.31,-0.26 -0.57,-0.23 -0.31,0.04 -0.56,0.37 -0.75,0.96 -0.18,0.58 -0.25,1.28 -0.23,2.11 0.04,1.53 0.46,2.35 1.25,2.47 0.23,0.03 0.46,-0.03 0.69,-0.18 0.22,-0.14 0.4,-0.34 0.55,-0.59 0.13,-0.22 0.25,-0.43 0.34,-0.62 0.03,-0.07 0.07,-0.14 0.1,-0.22 0.02,-0.05 0.04,-0.1 0.07,-0.16 0.04,-0.1 0.07,-0.16 0.08,-0.17 0.02,-0.03 0.04,-0.04 0.07,-0.03 0.03,0.01 0.04,0.12 0.01,0.33l-0.01 0.08 -0.01 0.07c-0.01,0.07 -0.01,0.12 -0.02,0.17 -0.01,0.14 -0.02,0.26 -0.03,0.36 -0.01,0.65 0.2,0.97 0.64,0.97 0.28,-0 0.5,-0.26 0.66,-0.78 0.14,-0.47 0.21,-1.06 0.21,-1.77 0,-0.7 -0.07,-1.32 -0.2,-1.89 -0.14,-0.61 -0.34,-0.99 -0.58,-1.15z"/>
  <path id="_14_13" class="fil1" d="M21.26 13.76c-0.04,0.09 -0.1,0.16 -0.18,0.2 -0.08,0.05 -0.16,0.06 -0.25,0.05 0.08,-0.02 0.16,-0.05 0.22,-0.1 0.06,-0.05 0.11,-0.11 0.15,-0.19 0.06,-0.14 0.08,-0.31 0.04,-0.5 0.04,0.08 0.07,0.16 0.07,0.26 0.01,0.1 -0.01,0.19 -0.05,0.28zm-0.68 -0.24c-0.04,-0.08 -0.06,-0.15 -0.05,-0.23 0.01,-0.08 0.04,-0.13 0.09,-0.16 0.05,-0.03 0.11,-0.03 0.17,0 0.07,0.03 0.12,0.09 0.16,0.16 0.04,0.08 0.06,0.16 0.05,0.23 -0.01,0.08 -0.04,0.13 -0.09,0.17 -0.05,0.03 -0.11,0.03 -0.17,0 -0.07,-0.03 -0.12,-0.09 -0.16,-0.17zm-0.32 -1.66c0.06,-0.02 0.11,-0.04 0.16,-0.07 0.05,-0.04 0.1,-0.07 0.13,-0.11 0.04,-0.04 0.07,-0.09 0.11,-0.15 0.03,-0.05 0.05,-0.11 0.07,-0.17 0.01,0.14 -0.03,0.26 -0.13,0.37 -0.05,0.05 -0.1,0.09 -0.16,0.11 -0.06,0.03 -0.13,0.03 -0.18,0.02zm-0.08 -0.58c0.03,-0.05 0.06,-0.09 0.11,-0.11 0.04,-0.02 0.08,-0.02 0.11,0 0.03,0.02 0.05,0.06 0.06,0.11 0.01,0.05 -0.01,0.1 -0.03,0.15 -0.03,0.05 -0.06,0.09 -0.11,0.11 -0.04,0.02 -0.08,0.02 -0.11,0 -0.03,-0.02 -0.05,-0.06 -0.06,-0.11 -0.01,-0.05 0.01,-0.1 0.03,-0.15zm-0.62 -0.71c-0.06,0.06 -0.12,0.15 -0.18,0.24 -0.09,0.15 -0.18,0.34 -0.26,0.56 -0.06,0.17 -0.12,0.38 -0.17,0.6 0.02,-0.21 0.06,-0.41 0.12,-0.62 0.06,-0.21 0.15,-0.4 0.25,-0.58 0.12,-0.2 0.26,-0.35 0.42,-0.45 0.1,-0.06 0.19,-0.11 0.28,-0.13 0.1,-0.02 0.2,-0.03 0.29,-0.03 -0.2,0.02 -0.38,0.09 -0.54,0.2 -0.08,0.06 -0.15,0.13 -0.22,0.2zm1.58 1.52c-0.04,-0.02 -0.05,-0.06 -0.03,-0.13 0.01,-0.02 0.03,-0.06 0.06,-0.12l0.02 -0.03 0.02 -0.04c0.01,-0.03 0.03,-0.06 0.04,-0.08 0.07,-0.14 0.11,-0.28 0.14,-0.42 0.04,-0.19 0.04,-0.38 0.01,-0.59 -0.03,-0.22 -0.15,-0.41 -0.35,-0.57 -0.2,-0.16 -0.43,-0.24 -0.7,-0.25 -0.29,-0.01 -0.55,0.08 -0.8,0.26 -0.28,0.21 -0.5,0.54 -0.66,0.97 -0.17,0.45 -0.26,0.94 -0.27,1.47 -0.02,0.54 0.05,1.04 0.2,1.49 0.16,0.49 0.4,0.87 0.72,1.13 0.35,0.29 0.78,0.42 1.28,0.39 0.48,-0.03 0.85,-0.2 1.13,-0.5 0.26,-0.27 0.4,-0.61 0.42,-1.02 0.03,-0.4 -0.07,-0.78 -0.27,-1.13 -0.22,-0.38 -0.54,-0.66 -0.96,-0.84z"/>
  <path id="_15_14" class="fil1" d="M25.2 13.85c-0.04,0.07 -0.1,0.13 -0.18,0.16 -0.07,0.04 -0.15,0.05 -0.22,0.03 0.15,-0.03 0.27,-0.11 0.34,-0.24 0.03,-0.05 0.06,-0.12 0.08,-0.2 0.01,-0.07 0.02,-0.15 0.02,-0.24 0.03,0.08 0.04,0.16 0.03,0.24 -0.01,0.09 -0.03,0.17 -0.07,0.24zm-0.65 -0.31c-0.04,-0.08 -0.05,-0.15 -0.04,-0.23 0.01,-0.08 0.04,-0.13 0.09,-0.16 0.05,-0.03 0.11,-0.02 0.17,0.01 0.06,0.03 0.11,0.09 0.15,0.17 0.04,0.08 0.05,0.16 0.04,0.23 -0.01,0.07 -0.04,0.13 -0.1,0.16 -0.05,0.03 -0.11,0.03 -0.17,-0.01 -0.06,-0.03 -0.11,-0.09 -0.15,-0.17zm-0.34 -3.31c-0.04,0.02 -0.1,0.06 -0.15,0.11 -0.09,0.08 -0.17,0.17 -0.25,0.28 -0.06,0.08 -0.14,0.19 -0.22,0.32 -0.03,0.04 -0.06,0.1 -0.1,0.17l-0.1 0.17c0.05,-0.15 0.1,-0.27 0.15,-0.37 0.06,-0.13 0.13,-0.24 0.21,-0.34 0.09,-0.12 0.18,-0.21 0.28,-0.28 0.13,-0.09 0.24,-0.13 0.36,-0.12 -0.06,0.01 -0.12,0.03 -0.17,0.06zm0.96 1.93c-0.13,-0.04 -0.2,-0.11 -0.24,-0.22 -0.03,-0.08 -0.03,-0.2 -0,-0.36 0.01,-0.03 0.01,-0.07 0.02,-0.11l0.02 -0.11c0.02,-0.1 0.03,-0.19 0.04,-0.25 0.03,-0.2 0.04,-0.38 0.02,-0.54 -0.03,-0.22 -0.1,-0.4 -0.23,-0.53 -0.13,-0.13 -0.29,-0.19 -0.47,-0.17 -0.2,0.02 -0.39,0.13 -0.59,0.33 -0.22,0.22 -0.43,0.55 -0.61,0.97 -0.19,0.44 -0.31,0.91 -0.36,1.41 -0.05,0.53 -0.03,1.01 0.08,1.45 0.12,0.48 0.32,0.85 0.61,1.12 0.32,0.3 0.73,0.44 1.22,0.44 0.47,-0.01 0.86,-0.16 1.16,-0.46 0.28,-0.27 0.45,-0.62 0.51,-1.03 0.06,-0.41 -0.01,-0.79 -0.21,-1.14 -0.21,-0.38 -0.54,-0.64 -0.98,-0.79zm1.54 -1.84c-0.04,0.04 -0.07,0.09 -0.09,0.15 -0.02,0.06 -0.03,0.12 -0.03,0.19 -0.01,0.1 0.01,0.23 0.03,0.4l0.04 0.2 0.03 0.2c-0.05,-0.14 -0.09,-0.27 -0.12,-0.38 -0.04,-0.15 -0.05,-0.29 -0.05,-0.41 0.01,-0.08 0.02,-0.15 0.04,-0.21 0.03,-0.08 0.07,-0.14 0.12,-0.18 0.1,-0.08 0.22,-0.12 0.36,-0.1 -0.14,0.02 -0.25,0.07 -0.33,0.15zm1.29 0.22c-0.1,-0.21 -0.24,-0.38 -0.41,-0.5 -0.15,-0.11 -0.31,-0.17 -0.48,-0.18 -0.16,-0.01 -0.31,0.02 -0.45,0.09 -0.14,0.07 -0.24,0.17 -0.3,0.31 -0.12,0.25 -0.11,0.62 0.01,1.1 0.02,0.08 0.04,0.18 0.08,0.3l0.04 0.16 0.05 0.15c0.07,0.24 0.11,0.44 0.12,0.6 0.04,0.39 0.06,0.78 0.05,1.2 -0,0.13 -0.01,0.29 -0.02,0.46l-0 0.1 -0 0.1c-0.01,0.08 -0.01,0.14 -0.01,0.18 -0.01,0.25 0.01,0.43 0.04,0.53 0.04,0.13 0.13,0.21 0.27,0.25 0.27,0.07 0.51,-0.09 0.72,-0.46 0.19,-0.33 0.34,-0.79 0.44,-1.38 0.1,-0.57 0.13,-1.13 0.11,-1.68 -0.03,-0.58 -0.11,-1.03 -0.27,-1.34z"/>
  <path id="_16_15" class="fil1" d="M29.97 10.37c-0.02,0.01 -0.05,0.02 -0.08,0.04l-0.07 0.04 -0.07 0.04c-0.03,0.02 -0.05,0.04 -0.07,0.05 -0.08,0.06 -0.17,0.13 -0.26,0.22 -0.1,0.11 -0.17,0.2 -0.21,0.27 -0.12,0.19 -0.2,0.41 -0.24,0.66 -0.01,0.05 -0.02,0.11 -0.02,0.18l-0.01 0.18c-0.01,0.05 -0.01,0.11 -0.01,0.18l-0 0.18c-0.03,-0.26 -0.03,-0.51 -0.01,-0.74 0.02,-0.26 0.1,-0.5 0.23,-0.7l0.05 -0.08 0.06 -0.07c0.01,-0.02 0.03,-0.04 0.06,-0.07l0.03 -0.03 0.03 -0.04c0.11,-0.1 0.2,-0.18 0.28,-0.22 0.19,-0.13 0.4,-0.21 0.64,-0.25l-0.08 0.03 -0.08 0.03c-0.06,0.02 -0.11,0.04 -0.15,0.07zm2.59 0.75c-0.21,-0.48 -0.52,-0.83 -0.95,-1.04 -0.39,-0.2 -0.81,-0.25 -1.26,-0.17 -0.45,0.08 -0.82,0.28 -1.13,0.59 -0.33,0.34 -0.52,0.75 -0.56,1.23 -0.08,0.9 0.05,1.79 0.39,2.65 0.15,0.39 0.32,0.69 0.51,0.91 0.2,0.23 0.4,0.33 0.59,0.3 0.27,-0.04 0.44,-0.21 0.5,-0.52 0.07,-0.35 0.02,-0.95 -0.13,-1.81 -0.12,-0.68 -0.05,-1.04 0.21,-1.07 0.14,-0.02 0.26,0.1 0.34,0.36 0.07,0.24 0.11,0.54 0.1,0.91 -0.03,0.81 0.05,1.38 0.24,1.7 0.14,0.24 0.35,0.35 0.62,0.34 0.23,-0.01 0.43,-0.17 0.59,-0.48 0.15,-0.29 0.25,-0.66 0.31,-1.12 0.06,-0.46 0.06,-0.93 0,-1.41 -0.06,-0.51 -0.17,-0.96 -0.34,-1.35z"/>
  <path id="_17_16" class="fil1" d="M36.69 10.29c-0.05,0.05 -0.1,0.11 -0.15,0.18 -0.07,0.11 -0.16,0.24 -0.25,0.41l-0.06 0.1 -0.06 0.11c-0.05,0.08 -0.09,0.15 -0.13,0.21 -0.06,0.08 -0.11,0.15 -0.15,0.19 -0.07,0.06 -0.14,0.1 -0.21,0.12 0.07,-0.03 0.13,-0.08 0.18,-0.14 0.04,-0.05 0.08,-0.11 0.13,-0.2 0.03,-0.05 0.07,-0.12 0.11,-0.22l0.12 -0.21c0.1,-0.18 0.19,-0.32 0.26,-0.41 0.06,-0.07 0.12,-0.13 0.17,-0.18 0.08,-0.06 0.15,-0.09 0.21,-0.09 -0.06,0.01 -0.13,0.05 -0.19,0.12zm-2.36 3.59c-0.06,0.05 -0.11,0.09 -0.15,0.12 -0.11,0.09 -0.2,0.18 -0.26,0.26 -0.04,0.06 -0.07,0.11 -0.09,0.17 -0.02,0.05 -0.04,0.11 -0.05,0.19 -0,-0.06 0,-0.13 0.02,-0.2 0.02,-0.06 0.05,-0.13 0.08,-0.19 0.06,-0.09 0.14,-0.19 0.26,-0.29 0.08,-0.07 0.18,-0.14 0.31,-0.22l0.08 -0.05 0.08 -0.05c0.06,-0.04 0.11,-0.08 0.15,-0.11 -0.07,0.08 -0.16,0.17 -0.28,0.26l-0.15 0.11zm-0.62 -3.24c-0.04,0.05 -0.06,0.12 -0.08,0.19 -0.02,0.06 -0.03,0.14 -0.03,0.22 -0.03,-0.07 -0.04,-0.15 -0.03,-0.23 0.01,-0.08 0.03,-0.16 0.08,-0.23 0.05,-0.07 0.1,-0.12 0.17,-0.15 0.07,-0.04 0.14,-0.04 0.22,-0.03 -0.14,0.03 -0.26,0.11 -0.34,0.23zm3.18 -0.77c-0.15,0 -0.29,0.08 -0.44,0.23 -0.11,0.11 -0.23,0.28 -0.36,0.5l-0.08 0.14 -0.04 0.07 -0.03 0.06c-0.06,0.11 -0.1,0.18 -0.13,0.23 -0.09,0.15 -0.17,0.23 -0.22,0.23 -0.06,0 -0.17,-0.11 -0.35,-0.32l-0.03 -0.04 -0.03 -0.04c-0.02,-0.03 -0.05,-0.05 -0.07,-0.08 -0.05,-0.06 -0.1,-0.12 -0.14,-0.17 -0.12,-0.13 -0.24,-0.25 -0.35,-0.35 -0.18,-0.16 -0.38,-0.24 -0.57,-0.24 -0.18,0 -0.34,0.06 -0.47,0.19 -0.13,0.13 -0.22,0.29 -0.25,0.49 -0.03,0.21 0.01,0.42 0.12,0.63 0.08,0.15 0.2,0.31 0.35,0.48 0.06,0.06 0.13,0.14 0.21,0.21l0.1 0.1 0.1 0.1c0.17,0.16 0.29,0.28 0.35,0.36 0.1,0.12 0.15,0.23 0.16,0.33 0.01,0.1 -0.05,0.21 -0.17,0.32 -0.04,0.04 -0.11,0.09 -0.19,0.15l-0.05 0.04 -0.06 0.04 -0.11 0.08c-0.19,0.14 -0.33,0.27 -0.42,0.4 -0.13,0.18 -0.2,0.38 -0.21,0.59 -0.01,0.17 0.02,0.32 0.09,0.47 0.06,0.14 0.16,0.26 0.28,0.35 0.27,0.2 0.61,0.23 1.02,0.1 0.55,-0.18 1.09,-0.69 1.63,-1.53 0.49,-0.75 0.8,-1.47 0.94,-2.15 0.14,-0.7 0.15,-1.21 0.02,-1.55 -0.11,-0.28 -0.3,-0.42 -0.58,-0.42z"/>
  <path id="_18_17" class="fil1" d="M41.03 13.34c-0.02,0.01 -0.05,0.03 -0.08,0.06l-0.04 0.03 -0.04 0.03c-0.07,0.05 -0.13,0.08 -0.19,0.1 -0.07,0.02 -0.14,0.02 -0.21,0.01 0.13,-0.03 0.24,-0.08 0.36,-0.17l0.04 -0.03 0.04 -0.03c0.04,-0.02 0.07,-0.04 0.1,-0.05 0.07,-0.03 0.14,-0.04 0.21,-0.03 -0.06,0.01 -0.12,0.04 -0.18,0.08zm-2.12 -2.65c-0.13,0.14 -0.24,0.31 -0.34,0.5 -0.09,0.16 -0.16,0.36 -0.24,0.58 0.04,-0.21 0.1,-0.41 0.19,-0.61 0.09,-0.2 0.2,-0.37 0.34,-0.53 0.15,-0.17 0.31,-0.29 0.49,-0.37 0.1,-0.04 0.2,-0.07 0.29,-0.08 0.11,-0.02 0.21,-0.02 0.29,-0.01 -0.21,0.02 -0.4,0.07 -0.56,0.14 -0.18,0.09 -0.33,0.22 -0.46,0.37zm2.92 3.07c-0.03,-0.41 -0.17,-0.67 -0.41,-0.77 -0.11,-0.04 -0.22,-0.05 -0.34,-0.02 -0.12,0.03 -0.23,0.09 -0.34,0.18 -0.11,0.09 -0.22,0.13 -0.33,0.11 -0.11,-0.01 -0.21,-0.07 -0.3,-0.16 -0.09,-0.1 -0.16,-0.23 -0.2,-0.39 -0.04,-0.17 -0.05,-0.36 -0.03,-0.56 0.04,-0.29 0.17,-0.45 0.39,-0.49 0.16,-0.03 0.38,0.02 0.67,0.13 0.12,0.05 0.24,0.04 0.35,-0.01 0.1,-0.05 0.18,-0.14 0.23,-0.26 0.05,-0.13 0.07,-0.26 0.04,-0.42 -0.02,-0.17 -0.09,-0.32 -0.19,-0.48 -0.22,-0.32 -0.51,-0.55 -0.87,-0.67 -0.33,-0.11 -0.67,-0.12 -1.01,-0.03 -0.44,0.11 -0.8,0.42 -1.08,0.91 -0.31,0.53 -0.47,1.2 -0.47,1.99 0,0.9 0.21,1.6 0.64,2.11 0.2,0.24 0.43,0.41 0.7,0.53 0.27,0.11 0.56,0.15 0.88,0.12 0.53,-0.05 0.96,-0.25 1.28,-0.62 0.3,-0.35 0.44,-0.75 0.4,-1.2z"/>
  <path id="_19_18" class="fil1" d="M44.65 11.12c-0.1,0.14 -0.2,0.25 -0.29,0.34 -0.12,0.12 -0.24,0.2 -0.36,0.25 0.09,-0.06 0.2,-0.16 0.32,-0.29 0.09,-0.1 0.18,-0.22 0.28,-0.34 0.04,-0.06 0.09,-0.12 0.12,-0.18l0.03 -0.05 0.03 -0.04c0.02,-0.04 0.05,-0.07 0.07,-0.1 0.05,-0.06 0.11,-0.11 0.17,-0.14 0.07,-0.04 0.14,-0.05 0.21,-0.04 -0.13,0.01 -0.24,0.09 -0.34,0.23 -0.02,0.02 -0.04,0.05 -0.06,0.09l-0.03 0.05 -0.03 0.05c-0.03,0.05 -0.08,0.12 -0.13,0.19zm-1.45 -0.88c-0.05,0.03 -0.1,0.08 -0.14,0.14 -0.06,0.08 -0.13,0.2 -0.19,0.35 -0.04,0.09 -0.08,0.23 -0.13,0.4l-0.06 0.2 -0.06 0.2c0.01,-0.17 0.03,-0.31 0.06,-0.42 0.03,-0.15 0.07,-0.29 0.12,-0.41 0.06,-0.16 0.13,-0.28 0.21,-0.37 0.05,-0.06 0.1,-0.1 0.16,-0.13 0.07,-0.03 0.13,-0.05 0.19,-0.04 -0.07,0.01 -0.13,0.04 -0.18,0.07zm1.65 2.32c-0.1,-0.06 -0.12,-0.11 -0.07,-0.16 0.02,-0.02 0.06,-0.05 0.12,-0.08l0.04 -0.02 0.04 -0.02c0.04,-0.02 0.08,-0.03 0.1,-0.05 0.18,-0.1 0.33,-0.2 0.45,-0.32 0.17,-0.17 0.29,-0.37 0.36,-0.6 0.06,-0.22 0.06,-0.42 -0.01,-0.62 -0.07,-0.18 -0.18,-0.31 -0.33,-0.4 -0.16,-0.09 -0.32,-0.11 -0.48,-0.06 -0.19,0.06 -0.35,0.19 -0.48,0.41 -0.22,0.37 -0.44,0.62 -0.64,0.76 -0.08,0.06 -0.14,0.07 -0.17,0.05 -0.03,-0.03 -0.02,-0.09 0.02,-0.19 0.18,-0.4 0.23,-0.72 0.17,-0.98 -0.06,-0.21 -0.19,-0.34 -0.39,-0.39 -0.42,-0.11 -0.74,0.12 -0.97,0.68 -0.18,0.45 -0.3,1.1 -0.36,1.95 -0.05,0.86 -0.02,1.55 0.11,2.08 0.15,0.64 0.42,0.95 0.82,0.93 0.36,-0.01 0.57,-0.3 0.63,-0.86 0.02,-0.19 0.02,-0.4 0,-0.64 -0.01,-0.08 -0.02,-0.17 -0.03,-0.25 -0,-0.03 -0.01,-0.06 -0.01,-0.1l-0 -0.04 -0 -0.02 0 -0.01c-0.01,-0.07 -0,-0.12 0.03,-0.15 0.03,-0.03 0.07,-0.02 0.12,0.03 0.13,0.12 0.26,0.43 0.38,0.92 0.08,0.31 0.19,0.57 0.33,0.77 0.14,0.18 0.29,0.3 0.46,0.36 0.16,0.06 0.32,0.05 0.48,-0.01 0.16,-0.07 0.29,-0.19 0.4,-0.36 0.12,-0.19 0.18,-0.41 0.19,-0.65 0.01,-0.23 -0.04,-0.47 -0.14,-0.72 -0.22,-0.52 -0.6,-0.94 -1.14,-1.26z"/>
  <path id="_20_19" class="fil1" d="M3.14 14.15c-0.03,0 -0.07,0 -0.12,0.01l-0.07 0.01 -0.07 0c0.07,-0.06 0.16,-0.09 0.25,-0.1 0.05,0 0.1,0.01 0.14,0.02 0.05,0.02 0.08,0.05 0.11,0.09 -0.09,-0.03 -0.17,-0.04 -0.24,-0.04zm-2.09 -1.29c-0.06,0.06 -0.11,0.12 -0.15,0.18 -0.11,0.14 -0.2,0.27 -0.26,0.38 -0.08,0.14 -0.14,0.28 -0.18,0.44 -0.04,0.15 -0.05,0.31 -0.05,0.48l-0.02 -0.12 -0 -0.06 0 -0.06 0 -0.06 0 -0.06 0.01 -0.06 0.01 -0.06c0.03,-0.16 0.08,-0.31 0.17,-0.46 0.08,-0.14 0.18,-0.27 0.29,-0.38 0.06,-0.06 0.11,-0.11 0.17,-0.17l0.09 -0.07c0.03,-0.03 0.07,-0.05 0.1,-0.07l-0.08 0.08 -0.08 0.08zm0.36 -2.55c-0.07,0.03 -0.14,0.07 -0.2,0.11 -0.14,0.08 -0.26,0.17 -0.37,0.26 -0.12,0.1 -0.22,0.21 -0.32,0.34 -0.05,0.07 -0.09,0.13 -0.12,0.2 -0.04,0.08 -0.07,0.15 -0.08,0.23 -0.01,-0.14 0.05,-0.29 0.15,-0.46 0.08,-0.13 0.19,-0.25 0.32,-0.36 0.13,-0.11 0.26,-0.19 0.39,-0.26 0.07,-0.03 0.14,-0.06 0.21,-0.08 0.08,-0.03 0.16,-0.04 0.22,-0.05l-0.11 0.04c-0.04,0.02 -0.08,0.03 -0.11,0.04zm1.37 3.57c-0.21,0.09 -0.4,0.12 -0.57,0.11 -0.14,-0.01 -0.23,-0.05 -0.26,-0.11 -0.01,-0.03 -0.02,-0.06 -0.02,-0.09 -0,-0.05 0.01,-0.09 0.03,-0.14 0.06,-0.13 0.2,-0.27 0.42,-0.42 0.29,-0.19 0.54,-0.44 0.73,-0.73 0.19,-0.29 0.31,-0.59 0.37,-0.9 0.06,-0.32 0.04,-0.61 -0.07,-0.87 -0.11,-0.28 -0.31,-0.5 -0.59,-0.65 -0.34,-0.18 -0.69,-0.24 -1.07,-0.19 -0.33,0.05 -0.65,0.18 -0.95,0.39 -0.28,0.2 -0.49,0.44 -0.63,0.7 -0.14,0.27 -0.17,0.5 -0.1,0.7 0.08,0.2 0.22,0.31 0.43,0.35 0.22,0.03 0.48,-0.02 0.78,-0.18 0.17,-0.09 0.29,-0.14 0.36,-0.15 0.07,-0.01 0.12,-0 0.15,0.04 0.08,0.08 -0.02,0.2 -0.27,0.37 -0.48,0.3 -0.84,0.63 -1.09,1 -0.3,0.46 -0.4,0.95 -0.29,1.47 0.08,0.36 0.32,0.63 0.71,0.81 0.32,0.14 0.72,0.21 1.22,0.21 0.49,0 0.9,-0.07 1.21,-0.22 0.32,-0.15 0.51,-0.36 0.56,-0.63 0.03,-0.13 0.02,-0.27 -0.02,-0.4 -0.04,-0.14 -0.11,-0.25 -0.2,-0.35 -0.1,-0.1 -0.22,-0.16 -0.35,-0.19 -0.15,-0.03 -0.32,-0 -0.49,0.07z"/>
  <g id="_3191600240">
   <path class="fil0" d="M13.73 8.97c-0.03,0.03 -0.06,0.08 -0.08,0.14 -0.01,-0.06 0.01,-0.11 0.06,-0.16 0.02,-0.02 0.05,-0.04 0.07,-0.05 0.03,-0.01 0.06,-0.02 0.09,-0.01 -0.05,0.01 -0.1,0.04 -0.13,0.08zm0.13 -0.22c-0.09,0 -0.17,0.03 -0.23,0.1 -0.07,0.06 -0.11,0.14 -0.12,0.24 -0.01,0.1 0,0.18 0.05,0.26 0.05,0.08 0.11,0.13 0.2,0.16 0.1,0.03 0.19,0.01 0.28,-0.05 0.09,-0.06 0.14,-0.16 0.15,-0.27 0.02,-0.12 -0.01,-0.22 -0.08,-0.3 -0.07,-0.08 -0.15,-0.13 -0.25,-0.13z"/>
   <path id="_1_20" class="fil0" d="M15.27 8.97c-0.03,0.03 -0.06,0.08 -0.08,0.14 -0.01,-0.06 0.01,-0.11 0.06,-0.16 0.02,-0.02 0.05,-0.04 0.07,-0.05 0.03,-0.01 0.06,-0.02 0.09,-0.01 -0.05,0.01 -0.1,0.04 -0.13,0.08zm0.13 -0.22c-0.09,0 -0.17,0.03 -0.23,0.1 -0.07,0.06 -0.11,0.14 -0.12,0.24 -0.01,0.1 0,0.18 0.05,0.26 0.05,0.08 0.11,0.13 0.2,0.16 0.1,0.03 0.19,0.01 0.28,-0.05 0.09,-0.06 0.14,-0.16 0.15,-0.27 0.02,-0.12 -0.01,-0.22 -0.08,-0.3 -0.07,-0.08 -0.15,-0.13 -0.25,-0.13z"/>
   <path class="fil1" d="M13.68 8.8c-0.03,0.03 -0.06,0.08 -0.08,0.14 -0.01,-0.06 0.01,-0.11 0.06,-0.16 0.02,-0.02 0.05,-0.04 0.07,-0.05 0.03,-0.01 0.06,-0.02 0.09,-0.01 -0.05,0.01 -0.1,0.04 -0.13,0.08zm0.13 -0.22c-0.09,0 -0.17,0.03 -0.23,0.1 -0.07,0.06 -0.11,0.14 -0.12,0.24 -0.01,0.1 0,0.18 0.05,0.26 0.05,0.08 0.11,0.13 0.2,0.16 0.1,0.03 0.19,0.01 0.28,-0.05 0.09,-0.06 0.14,-0.16 0.15,-0.27 0.02,-0.12 -0.01,-0.22 -0.08,-0.3 -0.07,-0.08 -0.15,-0.13 -0.25,-0.13z"/>
   <path id="_1_21" class="fil1" d="M15.22 8.8c-0.03,0.03 -0.06,0.08 -0.08,0.14 -0.01,-0.06 0.01,-0.11 0.06,-0.16 0.02,-0.02 0.05,-0.04 0.07,-0.05 0.03,-0.01 0.06,-0.02 0.09,-0.01 -0.05,0.01 -0.1,0.04 -0.13,0.08zm0.13 -0.22c-0.09,0 -0.17,0.03 -0.23,0.1 -0.07,0.06 -0.11,0.14 -0.12,0.24 -0.01,0.1 0,0.18 0.05,0.26 0.05,0.08 0.11,0.13 0.2,0.16 0.1,0.03 0.19,0.01 0.28,-0.05 0.09,-0.06 0.14,-0.16 0.15,-0.27 0.02,-0.12 -0.01,-0.22 -0.08,-0.3 -0.07,-0.08 -0.15,-0.13 -0.25,-0.13z"/>
  </g>
  <g id="_3191601152">
   <path class="fil0" d="M26.09 0.39c-0.03,0.03 -0.06,0.08 -0.08,0.14 -0.01,-0.06 0.01,-0.11 0.06,-0.16 0.02,-0.02 0.05,-0.04 0.07,-0.05 0.03,-0.01 0.06,-0.02 0.09,-0.01 -0.05,0.01 -0.1,0.04 -0.13,0.08zm0.13 -0.22c-0.09,0 -0.17,0.03 -0.23,0.1 -0.07,0.06 -0.11,0.14 -0.12,0.24 -0.01,0.1 0,0.18 0.05,0.26 0.05,0.08 0.11,0.13 0.2,0.16 0.1,0.03 0.19,0.01 0.28,-0.05 0.09,-0.06 0.14,-0.16 0.15,-0.27 0.02,-0.12 -0.01,-0.22 -0.08,-0.3 -0.07,-0.08 -0.15,-0.13 -0.25,-0.13z"/>
   <path id="_1_22" class="fil0" d="M27.63 0.39c-0.03,0.03 -0.06,0.08 -0.08,0.14 -0.01,-0.06 0.01,-0.11 0.06,-0.16 0.02,-0.02 0.05,-0.04 0.07,-0.05 0.03,-0.01 0.06,-0.02 0.09,-0.01 -0.05,0.01 -0.1,0.04 -0.13,0.08zm0.13 -0.22c-0.09,0 -0.17,0.03 -0.23,0.1 -0.07,0.06 -0.11,0.14 -0.12,0.24 -0.01,0.1 0,0.18 0.05,0.26 0.05,0.08 0.11,0.13 0.2,0.16 0.1,0.03 0.19,0.01 0.28,-0.05 0.09,-0.06 0.14,-0.16 0.15,-0.27 0.02,-0.12 -0.01,-0.22 -0.08,-0.3 -0.07,-0.08 -0.15,-0.13 -0.25,-0.13z"/>
   <path class="fil1" d="M26.04 0.22c-0.03,0.03 -0.06,0.08 -0.08,0.14 -0.01,-0.06 0.01,-0.11 0.06,-0.16 0.02,-0.02 0.05,-0.04 0.07,-0.05 0.03,-0.01 0.06,-0.02 0.09,-0.01 -0.05,0.01 -0.1,0.04 -0.13,0.08zm0.13 -0.22c-0.09,0 -0.17,0.03 -0.23,0.1 -0.07,0.06 -0.11,0.14 -0.12,0.24 -0.01,0.1 0,0.18 0.05,0.26 0.05,0.08 0.11,0.13 0.2,0.16 0.1,0.03 0.19,0.01 0.28,-0.05 0.09,-0.06 0.14,-0.16 0.15,-0.27 0.02,-0.12 -0.01,-0.22 -0.08,-0.3 -0.07,-0.08 -0.15,-0.13 -0.25,-0.13z"/>
   <path id="_1_23" class="fil1" d="M27.58 0.22c-0.03,0.03 -0.06,0.08 -0.08,0.14 -0.01,-0.06 0.01,-0.11 0.06,-0.16 0.02,-0.02 0.05,-0.04 0.07,-0.05 0.03,-0.01 0.06,-0.02 0.09,-0.01 -0.05,0.01 -0.1,0.04 -0.13,0.08zm0.13 -0.22c-0.09,0 -0.17,0.03 -0.23,0.1 -0.07,0.06 -0.11,0.14 -0.12,0.24 -0.01,0.1 0,0.18 0.05,0.26 0.05,0.08 0.11,0.13 0.2,0.16 0.1,0.03 0.19,0.01 0.28,-0.05 0.09,-0.06 0.14,-0.16 0.15,-0.27 0.02,-0.12 -0.01,-0.22 -0.08,-0.3 -0.07,-0.08 -0.15,-0.13 -0.25,-0.13z"/>
  </g>
 </g>
</svg>
