<?xml version="1.0" encoding="UTF-8"?>
<!DOCTYPE svg PUBLIC "-//W3C//DTD SVG 1.1//EN" "http://www.w3.org/Graphics/SVG/1.1/DTD/svg11.dtd">
<!-- Creator: CorelDRAW 2019 (64-Bit) -->
<svg xmlns="http://www.w3.org/2000/svg" xml:space="preserve" width="1.9901cm" height="0.31418cm" version="1.1" style="shape-rendering:geometricPrecision; text-rendering:geometricPrecision; image-rendering:optimizeQuality; fill-rule:evenodd; clip-rule:evenodd"
viewBox="0 0 4.375 0.691"
 xmlns:xlink="http://www.w3.org/1999/xlink"
 xmlns:xodm="http://www.corel.com/coreldraw/odm/2003">
 <defs>
  <style type="text/css">
   <![CDATA[
    .fil0 {fill:#999974;fill-rule:nonzero}
   ]]>
  </style>
 </defs>
 <g id="Слой_x0020_1">
  <metadata id="CorelCorpID_0Corel-Layer"/>
  <g id="_1663489200592">
   <path class="fil0" d="M0.055 0.099c-0.001,0 -0.002,0.001 -0.003,0.002l-0.003 0.002 -0.003 0.002c-0.001,0.001 -0.002,0.001 -0.003,0.002 -0.003,0.002 -0.007,0.005 -0.011,0.009 -0.004,0.004 -0.007,0.008 -0.009,0.011 -0.005,0.008 -0.008,0.017 -0.01,0.027 -0,0.002 -0.001,0.005 -0.001,0.007l-0 0.008c-0,0.002 -0,0.005 -0,0.008l-0 0.008c-0.001,-0.011 -0.001,-0.021 -0,-0.03 0.001,-0.011 0.004,-0.02 0.009,-0.029l0.002 -0.003 0.002 -0.003c0.001,-0.001 0.001,-0.002 0.002,-0.003l0.001 -0.001 0.001 -0.001c0.005,-0.004 0.008,-0.007 0.011,-0.009 0.008,-0.005 0.016,-0.009 0.026,-0.01l-0.003 0.001 -0.003 0.001c-0.002,0.001 -0.004,0.002 -0.006,0.003zm0.106 0.031c-0.008,-0.02 -0.021,-0.034 -0.039,-0.043 -0.016,-0.008 -0.033,-0.01 -0.052,-0.007 -0.018,0.003 -0.034,0.011 -0.046,0.024 -0.014,0.014 -0.021,0.031 -0.023,0.05 -0.003,0.037 0.002,0.073 0.016,0.109 0.006,0.016 0.013,0.028 0.021,0.037 0.008,0.009 0.016,0.014 0.024,0.012 0.011,-0.001 0.018,-0.009 0.02,-0.021 0.003,-0.014 0.001,-0.039 -0.005,-0.074 -0.005,-0.028 -0.002,-0.042 0.009,-0.044 0.006,-0.001 0.011,0.004 0.014,0.015 0.003,0.01 0.004,0.022 0.004,0.037 -0.001,0.033 0.002,0.056 0.01,0.07 0.006,0.01 0.014,0.015 0.025,0.014 0.009,-0.001 0.017,-0.007 0.024,-0.02 0.006,-0.012 0.01,-0.027 0.012,-0.046 0.002,-0.019 0.002,-0.038 0,-0.058 -0.002,-0.021 -0.007,-0.039 -0.014,-0.055zm0.132 0.046c-0.001,0.003 -0.003,0.006 -0.005,0.008 -0.002,0.003 -0.005,0.005 -0.008,0.006 -0.003,0.001 -0.006,0.002 -0.009,0.001 0.003,-0.001 0.006,-0.002 0.008,-0.003 0.003,-0.002 0.005,-0.003 0.006,-0.006 0.004,-0.004 0.007,-0.01 0.009,-0.016 0,0.003 -0,0.006 -0.001,0.01zm-0.027 -0.014c0.002,-0.003 0.004,-0.006 0.006,-0.007 0.003,-0.001 0.005,-0.002 0.007,-0 0.002,0.001 0.003,0.003 0.004,0.006 0,0.003 -0,0.006 -0.002,0.009 -0.001,0.003 -0.003,0.006 -0.006,0.007 -0.003,0.001 -0.005,0.002 -0.007,0 -0.002,-0.001 -0.003,-0.003 -0.004,-0.006 -0,-0.003 0,-0.006 0.001,-0.009zm-0.023 -0.065c-0.007,0.003 -0.013,0.008 -0.018,0.014 -0.005,0.005 -0.009,0.012 -0.012,0.02 -0.003,0.006 -0.005,0.014 -0.007,0.023 0,-0.003 0.001,-0.007 0.002,-0.012 0.001,-0.004 0.002,-0.008 0.004,-0.012 0.003,-0.008 0.007,-0.015 0.012,-0.021 0.005,-0.006 0.012,-0.011 0.019,-0.014 0.003,-0.002 0.007,-0.003 0.011,-0.003 0.004,-0.001 0.008,-0.001 0.011,-0.001 -0.008,0.001 -0.015,0.004 -0.021,0.007zm0.028 -0.019c-0.02,-0 -0.037,0.006 -0.05,0.018 -0.012,0.011 -0.02,0.026 -0.025,0.046 -0.004,0.018 -0.005,0.038 -0.003,0.059 0.002,0.021 0.007,0.04 0.015,0.058 0.007,0.017 0.016,0.03 0.025,0.04 0.008,0.008 0.016,0.013 0.024,0.013 0.007,0.001 0.014,-0.002 0.019,-0.007 0.005,-0.005 0.008,-0.013 0.009,-0.022 0.001,-0.006 0.001,-0.014 -0,-0.022 -0,-0.002 -0.001,-0.006 -0.002,-0.01l-0.001 -0.005c-0,-0.002 -0.001,-0.003 -0.001,-0.004 -0.001,-0.006 -0.001,-0.011 0,-0.015 0.001,-0.004 0.004,-0.008 0.009,-0.01 0.016,-0.008 0.028,-0.02 0.037,-0.036 0.008,-0.015 0.011,-0.03 0.009,-0.046 -0.002,-0.016 -0.008,-0.03 -0.019,-0.04 -0.012,-0.011 -0.027,-0.017 -0.047,-0.017zm0.184 0.161c-0.002,0.003 -0.004,0.005 -0.007,0.007 -0.003,0.002 -0.006,0.003 -0.009,0.002 0.006,-0.002 0.01,-0.006 0.013,-0.011 0.003,-0.004 0.005,-0.01 0.006,-0.017 0.001,0.007 0,0.013 -0.004,0.019zm-0.031 -0.017c-0.001,-0.004 0,-0.008 0.002,-0.011 0.002,-0.003 0.004,-0.005 0.008,-0.006 0.003,-0.001 0.006,0.001 0.009,0.003 0.003,0.003 0.004,0.006 0.005,0.01 0.001,0.004 0,0.008 -0.002,0.011 -0.002,0.003 -0.004,0.005 -0.008,0.006 -0.003,0.001 -0.006,-0 -0.009,-0.003 -0.003,-0.002 -0.004,-0.006 -0.005,-0.01zm-0.008 -0.125c-0.008,0.003 -0.015,0.008 -0.021,0.014 -0.006,0.006 -0.011,0.013 -0.015,0.021l-0.001 0.003 -0.001 0.003 -0.003 0.006 -0.002 0.006 -0.002 0.006c0.002,-0.009 0.005,-0.018 0.008,-0.026 0.004,-0.008 0.009,-0.016 0.015,-0.022 0.007,-0.007 0.014,-0.011 0.022,-0.014 0.004,-0.001 0.008,-0.002 0.012,-0.003l0.003 -0 0.003 -0 0.006 0c-0.009,0.001 -0.017,0.003 -0.024,0.006zm0.05 -0.015c-0.031,-0.008 -0.057,-0.003 -0.078,0.017 -0.018,0.017 -0.03,0.041 -0.034,0.073 -0.004,0.031 -0.001,0.059 0.01,0.085 0.012,0.028 0.03,0.046 0.054,0.053 0.023,0.007 0.044,0 0.065,-0.019 0.018,-0.018 0.032,-0.042 0.039,-0.072 0.008,-0.031 0.008,-0.059 -0.001,-0.084 -0.01,-0.028 -0.028,-0.045 -0.056,-0.053zm0.195 0.023c-0.003,0.003 -0.005,0.007 -0.008,0.012 -0.005,0.008 -0.009,0.017 -0.012,0.026l-0.002 0.007 -0.002 0.007c-0.002,0.006 -0.004,0.011 -0.005,0.014 -0.002,0.006 -0.005,0.01 -0.007,0.013 -0.002,0.002 -0.004,0.004 -0.006,0.004 -0.002,0.001 -0.004,0.001 -0.007,0.001 0.003,-0 0.005,-0.001 0.007,-0.001 0.002,-0.001 0.003,-0.003 0.005,-0.005 0.002,-0.003 0.004,-0.007 0.006,-0.013l0.002 -0.007 0.002 -0.007c0.002,-0.006 0.003,-0.01 0.005,-0.014 0.004,-0.01 0.008,-0.019 0.013,-0.026 0.007,-0.01 0.013,-0.017 0.02,-0.02 -0.004,0.003 -0.007,0.006 -0.01,0.01zm-0.1 0.038c-0.001,0.007 -0.003,0.015 -0.004,0.024l-0.001 0.012 -0.001 0.012c-0.001,-0.024 0.002,-0.045 0.008,-0.064 0.001,-0.004 0.002,-0.007 0.003,-0.01 0.002,-0.004 0.003,-0.007 0.005,-0.01 0.005,-0.007 0.011,-0.011 0.017,-0.01 -0.008,0.001 -0.014,0.007 -0.019,0.018 -0.002,0.004 -0.003,0.009 -0.005,0.015 -0.001,0.002 -0.001,0.004 -0.002,0.007l-0.001 0.003 -0 0.002 -0 0.001zm0.138 -0.059c-0.012,-0.008 -0.025,-0.007 -0.037,0.002 -0.01,0.008 -0.02,0.02 -0.028,0.037 -0.003,0.005 -0.005,0.012 -0.008,0.019 -0.001,0.003 -0.002,0.006 -0.003,0.009l-0.001 0.004 -0.001 0.002 -0.001 0.002c-0.002,0.006 -0.003,0.01 -0.005,0.012 -0.001,0.003 -0.003,0.005 -0.004,0.005 -0.003,-0 -0.004,-0.002 -0.004,-0.007 -0,-0.004 0.001,-0.012 0.002,-0.025 0.003,-0.024 0.002,-0.041 -0.004,-0.051 -0.005,-0.008 -0.013,-0.011 -0.023,-0.009 -0.013,0.002 -0.023,0.015 -0.03,0.039 -0.007,0.024 -0.01,0.053 -0.009,0.087 0.002,0.063 0.019,0.096 0.051,0.101 0.009,0.001 0.019,-0.001 0.028,-0.007 0.009,-0.006 0.016,-0.014 0.022,-0.024 0.005,-0.009 0.01,-0.017 0.014,-0.025 0.001,-0.003 0.003,-0.006 0.004,-0.009 0.001,-0.002 0.002,-0.004 0.003,-0.006 0.002,-0.004 0.003,-0.006 0.003,-0.007 0.001,-0.001 0.002,-0.001 0.003,-0.001 0.001,0 0.001,0.005 0,0.014l-0 0.003 -0 0.003c-0,0.003 -0.001,0.005 -0.001,0.007 -0.001,0.006 -0.001,0.011 -0.001,0.015 -0,0.027 0.008,0.04 0.026,0.04 0.011,-0 0.021,-0.011 0.027,-0.032 0.006,-0.019 0.009,-0.043 0.009,-0.072 -0,-0.028 -0.003,-0.054 -0.008,-0.077 -0.006,-0.025 -0.014,-0.041 -0.024,-0.047zm0.126 0.093c-0.003,0.003 -0.006,0.005 -0.011,0.006 -0.005,0.002 -0.008,0.003 -0.01,0.005 -0.004,0.003 -0.006,0.006 -0.006,0.01 -0,-0.002 0,-0.004 0.001,-0.006 0.001,-0.002 0.002,-0.004 0.004,-0.005 0.003,-0.002 0.006,-0.004 0.011,-0.006 0.004,-0.001 0.007,-0.003 0.01,-0.005 0.004,-0.003 0.006,-0.005 0.008,-0.009 -0.001,0.004 -0.003,0.008 -0.007,0.011zm-0.043 0.074c-0.005,-0.001 -0.01,-0.001 -0.013,-0 -0.003,0 -0.005,0.001 -0.006,0.002 -0.001,0.001 -0.001,0.001 -0.002,0.002l-0 0.002 -0 0.002c0,-0.002 0,-0.003 0,-0.004 0,-0.001 0.001,-0.003 0.002,-0.003 0.001,-0.001 0.004,-0.002 0.006,-0.003 0.003,-0.001 0.008,-0.001 0.013,-0 0.003,0 0.008,0.001 0.013,0.002l0.006 0.001 0.007 0.001c-0.004,0 -0.008,0.001 -0.013,0l-0.007 -0.001 -0.006 -0.001zm0.01 -0.152c-0.006,0.003 -0.011,0.006 -0.015,0.008 -0.002,0.001 -0.005,0.003 -0.007,0.005 -0.002,0.002 -0.004,0.004 -0.006,0.006 -0.004,0.005 -0.006,0.011 -0.006,0.017 -0.001,-0.003 -0.001,-0.006 0,-0.009 0.001,-0.003 0.002,-0.006 0.004,-0.009 0.003,-0.004 0.007,-0.009 0.013,-0.013 0.01,-0.007 0.021,-0.01 0.033,-0.012 -0.006,0.002 -0.011,0.004 -0.016,0.006zm0.095 0.115c-0.003,-0.004 -0.006,-0.007 -0.009,-0.01 -0.002,-0.002 -0.005,-0.004 -0.008,-0.006l-0.002 -0.001 -0.002 -0.001c-0.001,-0.001 -0.002,-0.001 -0.003,-0.002 -0.001,-0.001 -0.002,-0.003 -0.003,-0.004 -0,-0.002 0.001,-0.004 0.004,-0.007 0.001,-0.001 0.002,-0.002 0.004,-0.004l0.001 -0.001 0.001 -0.001 0.003 -0.003c0.004,-0.004 0.008,-0.009 0.01,-0.013 0.003,-0.006 0.006,-0.011 0.006,-0.017 0.002,-0.016 -0.001,-0.029 -0.009,-0.041 -0.009,-0.012 -0.023,-0.019 -0.042,-0.023 -0.009,-0.002 -0.02,-0.001 -0.031,0.001 -0.011,0.002 -0.022,0.006 -0.031,0.011 -0.01,0.005 -0.018,0.012 -0.024,0.019 -0.006,0.008 -0.009,0.017 -0.007,0.027 0.003,0.024 0.021,0.03 0.055,0.021 0.006,-0.002 0.01,-0.002 0.014,-0.002 0.003,0 0.005,0.001 0.005,0.003 0.001,0.002 -0,0.004 -0.002,0.006 -0.002,0.002 -0.006,0.004 -0.01,0.006 -0.016,0.006 -0.023,0.015 -0.023,0.028 0,0.006 0.002,0.012 0.006,0.016 0.004,0.004 0.01,0.007 0.017,0.006 0.007,-0 0.012,0.002 0.013,0.007 0.001,0.002 0.001,0.004 -0,0.006 -0.001,0.002 -0.002,0.004 -0.005,0.005 -0.003,0.002 -0.009,0.002 -0.017,0.001 -0.001,-0 -0.003,-0 -0.005,-0.001l-0.006 -0.001c-0.005,-0.001 -0.008,-0.001 -0.011,-0.001 -0.009,-0.001 -0.015,0 -0.02,0.003 -0.006,0.003 -0.009,0.009 -0.01,0.018 -0.001,0.01 0.003,0.019 0.013,0.028 0.009,0.009 0.02,0.015 0.034,0.02 0.014,0.005 0.028,0.007 0.042,0.006 0.015,-0.001 0.027,-0.005 0.037,-0.013 0.013,-0.011 0.021,-0.026 0.022,-0.043 0.001,-0.016 -0.002,-0.03 -0.01,-0.042zm0.158 -0.119c-0.001,0.001 -0.003,0.002 -0.004,0.004 -0.002,0.002 -0.003,0.006 -0.004,0.011 -0.001,0.006 -0.002,0.014 -0.001,0.023l0 0.003 0 0.003c0,0.002 0,0.004 -0,0.006 -0,0.004 -0.001,0.008 -0.003,0.012 -0.002,0.004 -0.004,0.007 -0.006,0.01 -0.003,0.003 -0.006,0.005 -0.01,0.006 0.007,-0.003 0.011,-0.009 0.014,-0.017 0.001,-0.004 0.002,-0.007 0.002,-0.011 0,-0.002 0,-0.003 0,-0.006l-0 -0.003 0 -0.003c-0,-0.01 0.001,-0.018 0.002,-0.024 0.001,-0.005 0.003,-0.009 0.005,-0.011 0.001,-0.002 0.003,-0.003 0.005,-0.003 0.001,-0.001 0.003,-0.001 0.005,-0.001 -0.002,0 -0.004,0.001 -0.005,0.002zm-0.101 0.004c-0.004,0.004 -0.006,0.009 -0.008,0.015 -0.002,0.005 -0.003,0.011 -0.005,0.017l-0.002 0.009 -0.002 0.009c0,-0.012 0.002,-0.024 0.006,-0.036 0.002,-0.007 0.005,-0.012 0.009,-0.016 0.002,-0.002 0.005,-0.004 0.007,-0.005 0.003,-0.001 0.006,-0.002 0.008,-0.001 -0.005,0.001 -0.01,0.003 -0.014,0.008zm0.106 -0.018c-0.01,0.001 -0.017,0.006 -0.022,0.015 -0.004,0.009 -0.006,0.023 -0.005,0.042 0,0.008 -0.001,0.015 -0.005,0.019 -0.003,0.004 -0.007,0.005 -0.012,0.005 -0.005,-0 -0.009,-0.003 -0.011,-0.007 -0.003,-0.004 -0.003,-0.01 -0.003,-0.017 0.002,-0.019 0,-0.034 -0.005,-0.043 -0.005,-0.009 -0.013,-0.014 -0.024,-0.016 -0.009,-0.001 -0.017,0.001 -0.024,0.007 -0.007,0.006 -0.012,0.014 -0.015,0.025 -0.006,0.02 -0.01,0.044 -0.01,0.072 -0,0.027 0.002,0.052 0.008,0.077 0.004,0.018 0.01,0.031 0.019,0.039 0.007,0.006 0.015,0.009 0.024,0.008 0.019,-0.003 0.028,-0.018 0.026,-0.046 -0.001,-0.02 0.003,-0.03 0.012,-0.03 0.005,0 0.008,0.002 0.011,0.006 0.003,0.005 0.005,0.013 0.004,0.023 -0.001,0.018 0.002,0.032 0.008,0.041 0.006,0.009 0.014,0.013 0.024,0.013 0.018,0 0.03,-0.012 0.037,-0.036 0.005,-0.017 0.008,-0.046 0.009,-0.087 0.001,-0.031 -0.003,-0.057 -0.011,-0.078 -0.008,-0.022 -0.02,-0.032 -0.034,-0.031zm0.162 0.164l-0.002 0.001c-0.002,0.001 -0.003,0.001 -0.005,0.001 -0.004,0.001 -0.007,0.001 -0.01,0 0.003,-0.001 0.006,-0.002 0.009,-0.003l0.002 -0.001 0.002 -0.001c0.002,-0.001 0.003,-0.001 0.005,-0.002 0.003,-0.001 0.007,-0.002 0.009,-0.002 0.004,-0.001 0.007,-0.001 0.009,0 -0.005,0.001 -0.011,0.003 -0.018,0.005l-0.002 0.001zm-0.043 -0.152c-0.005,0.001 -0.009,0.003 -0.012,0.005 -0.004,0.003 -0.008,0.006 -0.011,0.009 -0.003,0.003 -0.006,0.007 -0.008,0.012 -0.004,0.007 -0.007,0.016 -0.01,0.028 -0.001,0.005 -0.002,0.009 -0.003,0.015 -0,0.002 -0.001,0.005 -0.001,0.007l-0.001 0.008c0,-0.01 0.001,-0.02 0.003,-0.03 0.002,-0.011 0.005,-0.021 0.009,-0.029 0.003,-0.005 0.006,-0.009 0.009,-0.012 0.004,-0.004 0.008,-0.006 0.012,-0.009 0.004,-0.002 0.008,-0.004 0.013,-0.005 0.005,-0.001 0.009,-0.001 0.014,-0.001 -0.005,0 -0.01,0.001 -0.013,0.002zm0.029 0.087l0.001 -0c0.001,-0 0.002,-0.001 0.003,-0.001 0.002,-0 0.004,-0 0.005,0 0.002,0.001 0.003,0.002 0.004,0.003 -0.001,-0 -0.003,-0 -0.005,-0 -0.002,0 -0.003,0 -0.005,0l-0.001 0 -0.001 0c-0.001,0 -0.002,0 -0.003,0 -0.002,0 -0.004,-0 -0.005,-0.001l0.002 -0.001 0.002 -0.001 0.001 -0.001zm0.007 0.053c-0.005,0.002 -0.01,0.003 -0.013,0.001 -0.003,-0.001 -0.005,-0.004 -0.006,-0.007 -0.001,-0.003 -0.001,-0.006 0.001,-0.009 0.002,-0.003 0.004,-0.005 0.008,-0.005 0.011,-0.001 0.019,-0.004 0.024,-0.009 0.005,-0.005 0.007,-0.011 0.007,-0.018 -0,-0.007 -0.003,-0.012 -0.009,-0.015 -0.006,-0.003 -0.012,-0.004 -0.02,-0.002 -0.007,0.002 -0.011,-0 -0.013,-0.006 -0.001,-0.002 -0.001,-0.005 -0,-0.007 0.001,-0.003 0.002,-0.005 0.004,-0.006 0.003,-0.002 0.007,-0.004 0.013,-0.005 0.002,-0 0.005,-0.001 0.008,-0.001l0.004 -0 0.004 -0c0.007,-0.001 0.012,-0.002 0.015,-0.003 0.005,-0.002 0.009,-0.006 0.011,-0.011 0.003,-0.009 0.002,-0.017 -0.005,-0.026 -0.006,-0.008 -0.015,-0.015 -0.027,-0.02 -0.013,-0.005 -0.025,-0.007 -0.038,-0.005 -0.014,0.002 -0.027,0.008 -0.036,0.018 -0.009,0.009 -0.016,0.025 -0.021,0.045 -0.004,0.019 -0.006,0.04 -0.005,0.063 0.001,0.023 0.004,0.043 0.01,0.061 0.006,0.019 0.014,0.032 0.023,0.038 0.009,0.007 0.021,0.01 0.034,0.009 0.012,-0 0.025,-0.004 0.037,-0.01 0.012,-0.006 0.022,-0.013 0.03,-0.022 0.008,-0.009 0.013,-0.019 0.013,-0.028 0,-0.013 -0.004,-0.021 -0.014,-0.025 -0.01,-0.004 -0.023,-0.003 -0.04,0.004zm0.195 -0.012c-0.001,0.001 -0.002,0.001 -0.003,0.002l-0.002 0.001 -0.002 0.001c-0.003,0.002 -0.005,0.003 -0.008,0.004 -0.003,0.001 -0.006,0.001 -0.008,0 0.005,-0.001 0.01,-0.003 0.015,-0.007l0.002 -0.001 0.002 -0.001c0.001,-0.001 0.003,-0.002 0.004,-0.002 0.003,-0.001 0.006,-0.002 0.008,-0.001 -0.003,0.001 -0.005,0.002 -0.007,0.003zm-0.087 -0.108c-0.005,0.006 -0.01,0.013 -0.014,0.021 -0.003,0.007 -0.007,0.015 -0.01,0.024 0.002,-0.009 0.004,-0.017 0.008,-0.025 0.003,-0.008 0.008,-0.015 0.014,-0.022 0.006,-0.007 0.013,-0.012 0.02,-0.015 0.004,-0.002 0.008,-0.003 0.012,-0.003 0.004,-0.001 0.008,-0.001 0.012,-0.001 -0.009,0.001 -0.016,0.003 -0.023,0.006 -0.007,0.004 -0.013,0.009 -0.019,0.015zm0.119 0.126c-0.001,-0.017 -0.007,-0.027 -0.017,-0.032 -0.004,-0.002 -0.009,-0.002 -0.014,-0.001 -0.005,0.001 -0.01,0.004 -0.014,0.007 -0.004,0.004 -0.009,0.005 -0.013,0.005 -0.004,-0 -0.008,-0.003 -0.012,-0.007 -0.004,-0.004 -0.006,-0.009 -0.008,-0.016 -0.002,-0.007 -0.002,-0.015 -0.001,-0.023 0.002,-0.012 0.007,-0.019 0.016,-0.02 0.007,-0.001 0.016,0.001 0.027,0.005 0.005,0.002 0.01,0.002 0.014,-0 0.004,-0.002 0.007,-0.006 0.009,-0.01 0.002,-0.005 0.003,-0.011 0.002,-0.017 -0.001,-0.007 -0.003,-0.013 -0.008,-0.019 -0.009,-0.013 -0.021,-0.022 -0.036,-0.027 -0.014,-0.005 -0.027,-0.005 -0.041,-0.001 -0.018,0.005 -0.033,0.017 -0.044,0.037 -0.013,0.022 -0.019,0.049 -0.019,0.081 0,0.037 0.009,0.065 0.026,0.086 0.008,0.01 0.018,0.017 0.029,0.022 0.011,0.005 0.023,0.006 0.036,0.005 0.022,-0.002 0.039,-0.01 0.052,-0.025 0.012,-0.014 0.018,-0.031 0.016,-0.049zm0.134 -0.133c-0.003,0.003 -0.005,0.007 -0.008,0.012 -0.005,0.008 -0.009,0.017 -0.012,0.026l-0.002 0.007 -0.002 0.007c-0.002,0.006 -0.004,0.011 -0.005,0.014 -0.002,0.006 -0.005,0.01 -0.007,0.013 -0.002,0.002 -0.004,0.004 -0.006,0.004 -0.002,0.001 -0.004,0.001 -0.007,0.001 0.003,-0 0.005,-0.001 0.007,-0.001 0.002,-0.001 0.003,-0.003 0.005,-0.005 0.002,-0.003 0.004,-0.007 0.006,-0.013l0.002 -0.007 0.002 -0.007c0.002,-0.006 0.003,-0.01 0.005,-0.014 0.004,-0.01 0.008,-0.019 0.013,-0.026 0.007,-0.01 0.013,-0.017 0.02,-0.02 -0.004,0.003 -0.007,0.006 -0.01,0.01zm-0.1 0.038c-0.001,0.007 -0.003,0.015 -0.004,0.024l-0.001 0.012 -0.001 0.012c-0.001,-0.024 0.002,-0.045 0.008,-0.064 0.001,-0.004 0.002,-0.007 0.003,-0.01 0.002,-0.004 0.003,-0.007 0.005,-0.01 0.005,-0.007 0.011,-0.011 0.017,-0.01 -0.008,0.001 -0.014,0.007 -0.019,0.018 -0.002,0.004 -0.003,0.009 -0.005,0.015 -0.001,0.002 -0.001,0.004 -0.002,0.007l-0.001 0.003 -0 0.002 -0 0.001zm0.138 -0.059c-0.012,-0.008 -0.025,-0.007 -0.037,0.002 -0.01,0.008 -0.02,0.02 -0.028,0.037 -0.003,0.005 -0.005,0.012 -0.008,0.019 -0.001,0.003 -0.002,0.006 -0.003,0.009l-0.001 0.004 -0.001 0.002 -0.001 0.002c-0.002,0.006 -0.003,0.01 -0.005,0.012 -0.001,0.003 -0.003,0.005 -0.004,0.005 -0.003,-0 -0.004,-0.002 -0.004,-0.007 -0,-0.004 0.001,-0.012 0.002,-0.025 0.003,-0.024 0.002,-0.041 -0.004,-0.051 -0.005,-0.008 -0.013,-0.011 -0.023,-0.009 -0.013,0.002 -0.023,0.015 -0.03,0.039 -0.007,0.024 -0.01,0.053 -0.009,0.087 0.002,0.063 0.019,0.096 0.051,0.101 0.009,0.001 0.019,-0.001 0.028,-0.007 0.009,-0.006 0.016,-0.014 0.022,-0.024 0.005,-0.009 0.01,-0.017 0.014,-0.025 0.001,-0.003 0.003,-0.006 0.004,-0.009 0.001,-0.002 0.002,-0.004 0.003,-0.006 0.002,-0.004 0.003,-0.006 0.003,-0.007 0.001,-0.001 0.002,-0.001 0.003,-0.001 0.001,0 0.001,0.005 0,0.014l-0 0.003 -0 0.003c-0,0.003 -0.001,0.005 -0.001,0.007 -0.001,0.006 -0.001,0.011 -0.001,0.015 -0.001,0.027 0.008,0.04 0.026,0.04 0.012,-0 0.021,-0.011 0.027,-0.032 0.006,-0.019 0.009,-0.043 0.009,-0.072 0,-0.028 -0.003,-0.054 -0.008,-0.077 -0.006,-0.025 -0.014,-0.041 -0.024,-0.047zm0.234 0.137c-0.001,0.001 -0.002,0.001 -0.003,0.002l-0.002 0.001 -0.002 0.001c-0.003,0.002 -0.005,0.003 -0.008,0.004 -0.003,0.001 -0.006,0.001 -0.008,0 0.005,-0.001 0.01,-0.003 0.015,-0.007l0.002 -0.001 0.002 -0.001c0.001,-0.001 0.003,-0.002 0.004,-0.002 0.003,-0.001 0.006,-0.002 0.008,-0.001 -0.003,0.001 -0.005,0.002 -0.007,0.003zm-0.087 -0.108c-0.005,0.006 -0.01,0.013 -0.014,0.021 -0.003,0.007 -0.007,0.015 -0.01,0.024 0.002,-0.009 0.004,-0.017 0.008,-0.025 0.003,-0.008 0.008,-0.015 0.014,-0.022 0.006,-0.007 0.013,-0.012 0.02,-0.015 0.004,-0.002 0.008,-0.003 0.012,-0.003 0.004,-0.001 0.008,-0.001 0.012,-0.001 -0.009,0.001 -0.016,0.003 -0.023,0.006 -0.007,0.004 -0.014,0.009 -0.019,0.015zm0.119 0.126c-0.001,-0.017 -0.007,-0.027 -0.017,-0.032 -0.004,-0.002 -0.009,-0.002 -0.014,-0.001 -0.005,0.001 -0.01,0.004 -0.014,0.007 -0.004,0.004 -0.009,0.005 -0.013,0.005 -0.004,-0 -0.008,-0.003 -0.012,-0.007 -0.004,-0.004 -0.006,-0.009 -0.008,-0.016 -0.002,-0.007 -0.002,-0.015 -0.001,-0.023 0.002,-0.012 0.007,-0.019 0.016,-0.02 0.007,-0.001 0.016,0.001 0.027,0.005 0.005,0.002 0.01,0.002 0.014,-0 0.004,-0.002 0.007,-0.006 0.009,-0.01 0.002,-0.005 0.003,-0.011 0.002,-0.017 -0.001,-0.007 -0.004,-0.013 -0.008,-0.019 -0.009,-0.013 -0.021,-0.022 -0.036,-0.027 -0.014,-0.005 -0.027,-0.005 -0.041,-0.001 -0.018,0.005 -0.033,0.017 -0.044,0.037 -0.013,0.022 -0.019,0.049 -0.019,0.081 0,0.037 0.009,0.065 0.026,0.086 0.008,0.01 0.018,0.017 0.029,0.022 0.011,0.005 0.023,0.006 0.036,0.005 0.022,-0.002 0.039,-0.01 0.052,-0.025 0.012,-0.014 0.018,-0.031 0.016,-0.049zm0.092 -0.146l-0.003 0.001c-0.001,0 -0.002,0.001 -0.003,0.001 -0.001,0 -0.002,0.001 -0.003,0.001l-0.001 0.001 -0.001 0.001 -0.002 0.002c-0.001,0.001 -0.002,0.001 -0.002,0.002 -0.006,0.005 -0.011,0.011 -0.016,0.018 -0.004,0.006 -0.008,0.013 -0.012,0.022 -0.003,0.006 -0.006,0.014 -0.01,0.023 0.002,-0.008 0.004,-0.016 0.008,-0.024 0.003,-0.008 0.007,-0.016 0.012,-0.023 0.005,-0.008 0.011,-0.014 0.017,-0.018 0.007,-0.006 0.015,-0.008 0.023,-0.007l-0.006 0.001zm0.092 0.073c-0.01,-0.028 -0.023,-0.05 -0.04,-0.066 -0.017,-0.016 -0.035,-0.023 -0.053,-0.021 -0.015,0.002 -0.029,0.014 -0.042,0.034 -0.012,0.019 -0.021,0.042 -0.027,0.069 -0.006,0.031 -0.007,0.059 -0.003,0.085 0.002,0.013 0.006,0.023 0.01,0.031 0.005,0.008 0.011,0.013 0.018,0.014 0.011,0.002 0.019,-0.002 0.026,-0.013 0.005,-0.008 0.01,-0.02 0.013,-0.037 0.001,-0.003 0.001,-0.007 0.002,-0.01l0.001 -0.005 0.001 -0.005c0.002,-0.009 0.003,-0.015 0.004,-0.018 0.003,-0.012 0.006,-0.019 0.01,-0.02 0.003,-0.001 0.006,0.001 0.008,0.004 0.002,0.003 0.005,0.008 0.007,0.015 0.001,0.002 0.002,0.006 0.003,0.01l0.002 0.006 0.002 0.006c0.003,0.009 0.006,0.017 0.009,0.023 0.007,0.016 0.015,0.026 0.024,0.032 0.009,0.005 0.017,0.005 0.024,0 0.005,-0.003 0.008,-0.009 0.011,-0.018 0.003,-0.008 0.004,-0.018 0.004,-0.03 0.001,-0.026 -0.004,-0.055 -0.015,-0.086z"/>
   <path class="fil0" d="M2.186 0.239c-0.002,0.003 -0.004,0.005 -0.007,0.007 -0.003,0.002 -0.006,0.003 -0.009,0.002 0.006,-0.002 0.01,-0.006 0.013,-0.011 0.003,-0.004 0.005,-0.01 0.006,-0.017 0.001,0.007 0,0.013 -0.004,0.019zm-0.031 -0.017c-0.001,-0.004 0,-0.008 0.002,-0.011 0.002,-0.003 0.004,-0.005 0.008,-0.006 0.003,-0.001 0.006,0.001 0.009,0.003 0.003,0.003 0.004,0.006 0.005,0.01 0.001,0.004 0,0.008 -0.002,0.011 -0.002,0.003 -0.004,0.005 -0.008,0.006 -0.003,0.001 -0.006,-0 -0.009,-0.003 -0.003,-0.002 -0.004,-0.006 -0.005,-0.01zm-0.008 -0.125c-0.008,0.003 -0.015,0.008 -0.021,0.014 -0.005,0.006 -0.011,0.013 -0.015,0.021l-0.001 0.003 -0.001 0.003 -0.003 0.006 -0.002 0.006 -0.002 0.006c0.002,-0.009 0.005,-0.018 0.008,-0.026 0.004,-0.008 0.009,-0.016 0.015,-0.022 0.007,-0.007 0.014,-0.011 0.022,-0.014 0.004,-0.001 0.008,-0.002 0.012,-0.003l0.003 -0 0.003 -0 0.006 0c-0.009,0.001 -0.017,0.003 -0.024,0.006zm0.05 -0.015c-0.031,-0.008 -0.057,-0.003 -0.078,0.017 -0.018,0.017 -0.03,0.041 -0.034,0.073 -0.004,0.031 -0.001,0.059 0.01,0.085 0.012,0.028 0.03,0.046 0.054,0.053 0.023,0.007 0.044,0 0.065,-0.019 0.018,-0.018 0.032,-0.042 0.039,-0.072 0.008,-0.031 0.008,-0.059 -0.001,-0.084 -0.01,-0.028 -0.028,-0.045 -0.056,-0.053zm0.185 0.156c-0.002,0.004 -0.004,0.006 -0.007,0.008 -0.003,0.002 -0.007,0.003 -0.01,0.002 0.003,-0.001 0.006,-0.002 0.009,-0.004 0.003,-0.002 0.005,-0.005 0.006,-0.008 0.003,-0.006 0.003,-0.013 0.001,-0.02 0.002,0.003 0.003,0.007 0.003,0.011 0,0.004 -0,0.008 -0.002,0.011zm-0.028 -0.01c-0.002,-0.003 -0.002,-0.006 -0.002,-0.009 0,-0.003 0.002,-0.005 0.004,-0.007 0.002,-0.001 0.004,-0.001 0.007,0 0.003,0.001 0.005,0.004 0.007,0.007 0.002,0.003 0.002,0.006 0.002,0.009 -0,0.003 -0.001,0.005 -0.004,0.007 -0.002,0.001 -0.004,0.001 -0.007,0 -0.003,-0.001 -0.005,-0.004 -0.007,-0.007zm-0.013 -0.068c0.002,-0.001 0.005,-0.002 0.007,-0.003 0.002,-0.001 0.004,-0.003 0.005,-0.005 0.001,-0.002 0.003,-0.004 0.004,-0.006 0.001,-0.002 0.002,-0.004 0.003,-0.007 0.001,0.006 -0.001,0.011 -0.005,0.015 -0.002,0.002 -0.004,0.004 -0.007,0.005 -0.003,0.001 -0.005,0.001 -0.007,0.001zm-0.003 -0.024c0.001,-0.002 0.003,-0.004 0.004,-0.005 0.002,-0.001 0.003,-0.001 0.005,0 0.001,0.001 0.002,0.002 0.002,0.004 0,0.002 -0,0.004 -0.001,0.006 -0.001,0.002 -0.003,0.004 -0.004,0.005 -0.002,0.001 -0.003,0.001 -0.005,0 -0.001,-0.001 -0.002,-0.002 -0.002,-0.004 -0,-0.002 0,-0.004 0.001,-0.006zm-0.026 -0.029c-0.002,0.003 -0.005,0.006 -0.007,0.01 -0.004,0.006 -0.007,0.014 -0.011,0.023 -0.002,0.007 -0.005,0.015 -0.007,0.025 0.001,-0.008 0.002,-0.017 0.005,-0.026 0.003,-0.009 0.006,-0.017 0.01,-0.024 0.005,-0.008 0.011,-0.014 0.017,-0.018 0.004,-0.003 0.008,-0.004 0.011,-0.005 0.004,-0.001 0.008,-0.001 0.012,-0.001 -0.008,0.001 -0.016,0.004 -0.022,0.008 -0.003,0.002 -0.006,0.005 -0.009,0.008zm0.065 0.062c-0.002,-0.001 -0.002,-0.003 -0.001,-0.005 0,-0.001 0.001,-0.003 0.002,-0.005l0.001 -0.001 0.001 -0.001c0.001,-0.001 0.001,-0.002 0.002,-0.003 0.003,-0.006 0.005,-0.012 0.006,-0.017 0.002,-0.008 0.002,-0.016 0,-0.024 -0.001,-0.009 -0.006,-0.017 -0.014,-0.023 -0.008,-0.007 -0.018,-0.01 -0.028,-0.01 -0.012,-0 -0.023,0.003 -0.033,0.011 -0.011,0.009 -0.02,0.022 -0.027,0.04 -0.007,0.018 -0.011,0.038 -0.011,0.06 -0.001,0.022 0.002,0.042 0.008,0.061 0.007,0.02 0.016,0.036 0.029,0.046 0.015,0.012 0.032,0.017 0.052,0.016 0.019,-0.001 0.035,-0.008 0.046,-0.021 0.011,-0.011 0.016,-0.025 0.017,-0.042 0.001,-0.016 -0.003,-0.032 -0.011,-0.046 -0.009,-0.016 -0.022,-0.027 -0.039,-0.034zm0.171 0.054c-0.002,0.002 -0.004,0.003 -0.006,0.004 -0.003,0.001 -0.005,0.001 -0.007,0 0.005,-0.001 0.009,-0.003 0.012,-0.006 0.003,-0.002 0.006,-0.006 0.009,-0.011 -0.001,0.005 -0.003,0.01 -0.007,0.013zm-0.016 -0.009c-0.002,-0.001 -0.004,-0.003 -0.005,-0.006 -0.001,-0.003 -0.001,-0.006 0.001,-0.009 0.001,-0.003 0.003,-0.006 0.006,-0.008 0.003,-0.002 0.005,-0.002 0.007,-0.001 0.002,0.001 0.004,0.003 0.005,0.006 0.001,0.003 0,0.006 -0.001,0.01 -0.001,0.003 -0.003,0.006 -0.006,0.008 -0.003,0.002 -0.005,0.002 -0.007,0.001zm-0.024 -0.088c-0.004,0.006 -0.008,0.013 -0.014,0.023 -0.002,0.003 -0.004,0.007 -0.006,0.012l-0.006 0.012c0.003,-0.008 0.006,-0.016 0.011,-0.025 0.004,-0.008 0.008,-0.016 0.013,-0.023 0.006,-0.009 0.011,-0.016 0.017,-0.021l0.002 -0.002c0.001,-0.001 0.002,-0.002 0.002,-0.002l0.003 -0.002 0.003 -0.002c0.005,-0.003 0.009,-0.004 0.012,-0.004 -0.003,0 -0.007,0.002 -0.011,0.005l-0.002 0.002 -0.002 0.002c-0.001,0.001 -0.001,0.001 -0.002,0.002l-0.002 0.002c-0.005,0.006 -0.01,0.013 -0.016,0.021zm0.04 -0.047c-0.013,-0.002 -0.028,0.008 -0.044,0.029 -0.015,0.02 -0.028,0.045 -0.04,0.075 -0.012,0.03 -0.018,0.057 -0.02,0.081 -0.002,0.026 0.003,0.041 0.014,0.046 0.009,0.004 0.017,0.003 0.025,-0 0.006,-0.003 0.012,-0.008 0.019,-0.016 0.001,-0.002 0.003,-0.003 0.004,-0.005l0.004 -0.005c0.003,-0.004 0.006,-0.007 0.007,-0.009 0.005,-0.006 0.01,-0.009 0.013,-0.009 0.004,0 0.008,0.003 0.014,0.009 0.002,0.002 0.004,0.005 0.007,0.009l0.004 0.005 0.004 0.005c0.007,0.007 0.013,0.012 0.019,0.015 0.007,0.003 0.015,0.003 0.022,-0 0.009,-0.004 0.013,-0.018 0.015,-0.042 0.001,-0.022 -0.001,-0.047 -0.007,-0.075 -0.006,-0.029 -0.014,-0.054 -0.024,-0.074 -0.011,-0.022 -0.024,-0.035 -0.037,-0.037zm0.269 0.142c-0.001,0.001 -0.002,0.001 -0.003,0.002l-0.002 0.001 -0.002 0.001c-0.003,0.002 -0.005,0.003 -0.008,0.004 -0.003,0.001 -0.006,0.001 -0.008,0 0.005,-0.001 0.01,-0.003 0.015,-0.007l0.002 -0.001 0.002 -0.001c0.001,-0.001 0.003,-0.002 0.004,-0.002 0.003,-0.001 0.006,-0.002 0.008,-0.001 -0.003,0.001 -0.005,0.002 -0.007,0.003zm-0.087 -0.108c-0.005,0.006 -0.01,0.013 -0.014,0.021 -0.003,0.007 -0.007,0.015 -0.01,0.024 0.002,-0.009 0.004,-0.017 0.008,-0.025 0.003,-0.008 0.008,-0.015 0.014,-0.022 0.006,-0.007 0.013,-0.012 0.02,-0.015 0.004,-0.002 0.008,-0.003 0.012,-0.003 0.004,-0.001 0.008,-0.001 0.012,-0.001 -0.009,0.001 -0.016,0.003 -0.023,0.006 -0.007,0.004 -0.013,0.009 -0.019,0.015zm0.119 0.126c-0.001,-0.017 -0.007,-0.027 -0.017,-0.032 -0.004,-0.002 -0.009,-0.002 -0.014,-0.001 -0.005,0.001 -0.01,0.004 -0.014,0.007 -0.004,0.004 -0.009,0.005 -0.013,0.005 -0.004,-0 -0.008,-0.003 -0.012,-0.007 -0.004,-0.004 -0.006,-0.009 -0.008,-0.016 -0.002,-0.007 -0.002,-0.015 -0.001,-0.023 0.002,-0.012 0.007,-0.019 0.016,-0.02 0.007,-0.001 0.016,0.001 0.027,0.005 0.005,0.002 0.01,0.002 0.014,-0 0.004,-0.002 0.007,-0.006 0.009,-0.01 0.002,-0.005 0.003,-0.011 0.002,-0.017 -0.001,-0.007 -0.003,-0.013 -0.008,-0.019 -0.009,-0.013 -0.021,-0.022 -0.036,-0.027 -0.014,-0.005 -0.027,-0.005 -0.041,-0.001 -0.018,0.005 -0.033,0.017 -0.044,0.037 -0.013,0.022 -0.019,0.049 -0.019,0.081 0,0.037 0.009,0.065 0.026,0.086 0.008,0.01 0.018,0.017 0.029,0.022 0.011,0.005 0.023,0.006 0.036,0.005 0.022,-0.002 0.039,-0.01 0.052,-0.025 0.012,-0.014 0.018,-0.031 0.016,-0.049zm0.186 0.007c-0.002,0.004 -0.004,0.006 -0.007,0.008 -0.003,0.002 -0.007,0.003 -0.01,0.002 0.003,-0.001 0.006,-0.002 0.009,-0.004 0.002,-0.002 0.004,-0.004 0.006,-0.008 0.001,-0.003 0.002,-0.006 0.003,-0.01 0,-0.003 0,-0.007 -0,-0.01 0.002,0.003 0.002,0.007 0.002,0.011 0,0.004 -0.001,0.008 -0.002,0.011zm-0.027 -0.012c-0.001,-0.003 -0.001,-0.007 -0,-0.009 0.001,-0.003 0.003,-0.005 0.005,-0.006 0.002,-0.001 0.005,-0 0.007,0.001 0.002,0.002 0.004,0.004 0.005,0.008 0.001,0.003 0.001,0.007 0,0.009 -0.001,0.003 -0.003,0.005 -0.005,0.006 -0.002,0.001 -0.005,0 -0.007,-0.001 -0.002,-0.002 -0.004,-0.004 -0.005,-0.008zm-0.054 -0.112c-0.004,0.007 -0.008,0.015 -0.011,0.026 -0.002,0.008 -0.004,0.017 -0.006,0.028 0,-0.004 0.001,-0.009 0.001,-0.015 0.001,-0.005 0.002,-0.01 0.003,-0.014 0.002,-0.01 0.006,-0.019 0.011,-0.027 0.003,-0.004 0.006,-0.008 0.009,-0.011 0.004,-0.003 0.007,-0.006 0.011,-0.008 0.004,-0.002 0.008,-0.004 0.013,-0.005 0.005,-0.001 0.009,-0.002 0.013,-0.002 -0.009,0.002 -0.018,0.005 -0.025,0.01 -0.008,0.005 -0.015,0.012 -0.019,0.019zm0.053 0.051c-0.006,-0 -0.009,-0.004 -0.011,-0.01 -0.001,-0.003 -0,-0.005 0,-0.008 0.001,-0.003 0.002,-0.005 0.004,-0.006 0.004,-0.004 0.01,-0.006 0.018,-0.007 0.003,-0.001 0.006,-0.001 0.01,-0.001l0.005 -0.001 0.005 -0.001c0.008,-0.001 0.013,-0.002 0.017,-0.004 0.005,-0.003 0.008,-0.007 0.009,-0.014 0.001,-0.009 -0.002,-0.018 -0.01,-0.025 -0.007,-0.007 -0.017,-0.012 -0.029,-0.015 -0.013,-0.003 -0.025,-0.003 -0.038,0.001 -0.014,0.004 -0.026,0.01 -0.036,0.02 -0.009,0.009 -0.016,0.023 -0.021,0.042 -0.005,0.018 -0.007,0.037 -0.006,0.057 0.001,0.021 0.004,0.04 0.011,0.057 0.007,0.018 0.016,0.032 0.028,0.04 0.01,0.007 0.022,0.012 0.034,0.014 0.012,0.002 0.023,0.001 0.034,-0.002 0.011,-0.004 0.02,-0.01 0.028,-0.018 0.008,-0.009 0.013,-0.02 0.016,-0.033 0.002,-0.009 0.003,-0.019 0.001,-0.028 -0.001,-0.01 -0.005,-0.019 -0.01,-0.027 -0.012,-0.019 -0.032,-0.029 -0.059,-0.031zm0.224 -0.076c-0.002,0.002 -0.004,0.004 -0.006,0.008 -0.003,0.004 -0.006,0.01 -0.01,0.017l-0.002 0.004 -0.002 0.004c-0.002,0.003 -0.004,0.006 -0.005,0.008 -0.002,0.003 -0.004,0.006 -0.006,0.008 -0.003,0.003 -0.006,0.004 -0.008,0.005 0.003,-0.001 0.005,-0.003 0.007,-0.006 0.002,-0.002 0.003,-0.005 0.005,-0.008 0.001,-0.002 0.003,-0.005 0.005,-0.009l0.005 -0.009c0.004,-0.007 0.008,-0.013 0.011,-0.017 0.002,-0.003 0.005,-0.005 0.007,-0.007 0.003,-0.003 0.006,-0.004 0.009,-0.004 -0.003,0 -0.005,0.002 -0.008,0.005zm-0.097 0.147c-0.002,0.002 -0.004,0.004 -0.006,0.005 -0.005,0.004 -0.008,0.007 -0.011,0.011 -0.001,0.002 -0.003,0.005 -0.004,0.007 -0.001,0.002 -0.001,0.005 -0.002,0.008 -0,-0.003 0,-0.005 0.001,-0.008 0.001,-0.003 0.002,-0.005 0.003,-0.008 0.002,-0.004 0.006,-0.008 0.011,-0.012 0.003,-0.003 0.008,-0.006 0.013,-0.009l0.003 -0.002 0.003 -0.002c0.003,-0.002 0.005,-0.003 0.006,-0.004 -0.003,0.003 -0.007,0.007 -0.012,0.011l-0.006 0.005zm-0.025 -0.133c-0.001,0.002 -0.003,0.005 -0.003,0.008 -0.001,0.003 -0.001,0.006 -0.001,0.009 -0.001,-0.003 -0.002,-0.006 -0.001,-0.009 0,-0.003 0.001,-0.006 0.003,-0.009 0.002,-0.003 0.004,-0.005 0.007,-0.006 0.003,-0.001 0.006,-0.002 0.009,-0.001 -0.006,0.001 -0.01,0.004 -0.014,0.009zm0.13 -0.032c-0.006,0 -0.012,0.003 -0.018,0.009 -0.004,0.005 -0.009,0.011 -0.015,0.02l-0.003 0.006 -0.001 0.003 -0.001 0.003c-0.002,0.004 -0.004,0.008 -0.005,0.009 -0.004,0.006 -0.007,0.009 -0.009,0.009 -0.002,0 -0.007,-0.004 -0.014,-0.013l-0.001 -0.001 -0.001 -0.002c-0.001,-0.001 -0.002,-0.002 -0.003,-0.003 -0.002,-0.003 -0.004,-0.005 -0.006,-0.007 -0.005,-0.005 -0.01,-0.01 -0.014,-0.014 -0.008,-0.007 -0.015,-0.01 -0.023,-0.01 -0.007,0 -0.014,0.003 -0.019,0.008 -0.005,0.005 -0.009,0.012 -0.01,0.02 -0.001,0.009 0,0.017 0.005,0.026 0.003,0.006 0.008,0.013 0.014,0.019 0.002,0.003 0.005,0.006 0.008,0.009l0.004 0.004 0.004 0.004c0.007,0.007 0.012,0.011 0.014,0.015 0.004,0.005 0.006,0.009 0.007,0.013 0,0.004 -0.002,0.008 -0.007,0.013 -0.002,0.002 -0.004,0.004 -0.008,0.006l-0.002 0.001 -0.002 0.002 -0.005 0.003c-0.008,0.006 -0.013,0.011 -0.017,0.016 -0.005,0.007 -0.008,0.015 -0.009,0.024 -0,0.007 0.001,0.013 0.003,0.019 0.003,0.006 0.006,0.011 0.011,0.014 0.011,0.008 0.025,0.009 0.042,0.004 0.022,-0.007 0.045,-0.028 0.067,-0.063 0.02,-0.031 0.033,-0.06 0.038,-0.088 0.006,-0.029 0.006,-0.05 0.001,-0.063 -0.004,-0.012 -0.012,-0.017 -0.024,-0.017zm0.142 0.051c-0.004,0.006 -0.008,0.01 -0.012,0.014 -0.005,0.005 -0.01,0.008 -0.015,0.01 0.004,-0.003 0.008,-0.007 0.013,-0.012 0.004,-0.004 0.008,-0.009 0.011,-0.014 0.002,-0.003 0.003,-0.005 0.005,-0.007l0.001 -0.002 0.001 -0.002c0.001,-0.002 0.002,-0.003 0.003,-0.004 0.002,-0.003 0.004,-0.004 0.007,-0.006 0.003,-0.002 0.006,-0.002 0.009,-0.002 -0.005,0 -0.01,0.004 -0.014,0.009 -0.001,0.001 -0.001,0.002 -0.002,0.004l-0.001 0.002 -0.001 0.002c-0.001,0.002 -0.003,0.005 -0.005,0.008zm-0.059 -0.036c-0.002,0.001 -0.004,0.003 -0.006,0.006 -0.003,0.003 -0.005,0.008 -0.008,0.015 -0.002,0.004 -0.003,0.009 -0.005,0.016l-0.002 0.008 -0.002 0.008c0.001,-0.007 0.001,-0.013 0.002,-0.017 0.001,-0.006 0.003,-0.012 0.005,-0.017 0.003,-0.007 0.005,-0.012 0.009,-0.015 0.002,-0.002 0.004,-0.004 0.007,-0.005 0.003,-0.001 0.005,-0.002 0.008,-0.002 -0.003,0 -0.005,0.001 -0.007,0.003zm0.068 0.095c-0.004,-0.002 -0.005,-0.005 -0.003,-0.007 0.001,-0.001 0.002,-0.002 0.005,-0.003l0.002 -0.001 0.002 -0.001c0.002,-0.001 0.003,-0.001 0.004,-0.002 0.008,-0.004 0.014,-0.008 0.018,-0.013 0.007,-0.007 0.012,-0.015 0.015,-0.025 0.003,-0.009 0.002,-0.017 -0,-0.025 -0.003,-0.007 -0.007,-0.013 -0.014,-0.016 -0.006,-0.004 -0.013,-0.004 -0.02,-0.002 -0.008,0.002 -0.014,0.008 -0.02,0.017 -0.009,0.015 -0.018,0.025 -0.026,0.031 -0.003,0.002 -0.006,0.003 -0.007,0.002 -0.001,-0.001 -0.001,-0.004 0.001,-0.008 0.007,-0.016 0.009,-0.03 0.007,-0.04 -0.002,-0.008 -0.008,-0.014 -0.016,-0.016 -0.017,-0.004 -0.03,0.005 -0.04,0.028 -0.008,0.018 -0.012,0.045 -0.015,0.08 -0.002,0.035 -0.001,0.064 0.004,0.085 0.006,0.026 0.017,0.039 0.033,0.038 0.015,-0.001 0.023,-0.012 0.026,-0.035 0.001,-0.008 0.001,-0.016 0,-0.026 -0,-0.003 -0.001,-0.007 -0.001,-0.01 -0,-0.001 -0,-0.003 -0,-0.004l-0 -0.001 -0 -0.001 0 -0c-0,-0.003 -0,-0.005 0.001,-0.006 0.001,-0.001 0.003,-0.001 0.005,0.001 0.005,0.005 0.011,0.018 0.016,0.037 0.003,0.013 0.008,0.023 0.014,0.031 0.006,0.007 0.012,0.012 0.019,0.015 0.007,0.002 0.013,0.002 0.02,-0 0.006,-0.003 0.012,-0.008 0.016,-0.015 0.005,-0.008 0.007,-0.017 0.008,-0.027 0,-0.009 -0.002,-0.019 -0.006,-0.029 -0.009,-0.021 -0.025,-0.038 -0.047,-0.052zm0.176 0.049c-0.002,0.004 -0.004,0.006 -0.007,0.008 -0.003,0.002 -0.007,0.003 -0.01,0.002 0.003,-0.001 0.006,-0.002 0.009,-0.004 0.003,-0.002 0.005,-0.005 0.006,-0.008 0.003,-0.006 0.003,-0.013 0.001,-0.02 0.002,0.003 0.003,0.007 0.003,0.011 0,0.004 -0,0.008 -0.002,0.011zm-0.028 -0.01c-0.002,-0.003 -0.002,-0.006 -0.002,-0.009 0,-0.003 0.002,-0.005 0.004,-0.007 0.002,-0.001 0.004,-0.001 0.007,-0 0.003,0.001 0.005,0.004 0.007,0.007 0.002,0.003 0.002,0.006 0.002,0.009 -0,0.003 -0.001,0.005 -0.004,0.007 -0.002,0.001 -0.004,0.001 -0.007,0 -0.003,-0.001 -0.005,-0.004 -0.007,-0.007zm-0.013 -0.068c0.002,-0.001 0.005,-0.002 0.007,-0.003 0.002,-0.001 0.004,-0.003 0.005,-0.005 0.001,-0.002 0.003,-0.004 0.004,-0.006 0.001,-0.002 0.002,-0.004 0.003,-0.007 0.001,0.006 -0.001,0.011 -0.005,0.015 -0.002,0.002 -0.004,0.004 -0.007,0.005 -0.003,0.001 -0.005,0.001 -0.007,0.001zm-0.003 -0.024c0.001,-0.002 0.003,-0.004 0.004,-0.005 0.002,-0.001 0.003,-0.001 0.005,0 0.001,0.001 0.002,0.002 0.002,0.004 0,0.002 -0,0.004 -0.001,0.006 -0.001,0.002 -0.003,0.004 -0.004,0.005 -0.002,0.001 -0.003,0.001 -0.005,0 -0.001,-0.001 -0.002,-0.002 -0.002,-0.004 -0,-0.002 0,-0.004 0.001,-0.006zm-0.026 -0.029c-0.002,0.003 -0.005,0.006 -0.007,0.01 -0.004,0.006 -0.007,0.014 -0.011,0.023 -0.002,0.007 -0.005,0.015 -0.007,0.025 0.001,-0.008 0.002,-0.017 0.005,-0.026 0.003,-0.009 0.006,-0.017 0.01,-0.024 0.005,-0.008 0.011,-0.014 0.017,-0.018 0.004,-0.003 0.008,-0.004 0.011,-0.005 0.004,-0.001 0.008,-0.001 0.012,-0.001 -0.008,0.001 -0.016,0.004 -0.022,0.008 -0.003,0.002 -0.006,0.005 -0.009,0.008zm0.065 0.062c-0.002,-0.001 -0.002,-0.003 -0.001,-0.005 0,-0.001 0.001,-0.003 0.002,-0.005l0.001 -0.001 0.001 -0.001c0.001,-0.001 0.001,-0.002 0.002,-0.003 0.003,-0.006 0.005,-0.012 0.006,-0.017 0.002,-0.008 0.002,-0.016 0,-0.024 -0.001,-0.009 -0.006,-0.017 -0.014,-0.023 -0.008,-0.007 -0.018,-0.01 -0.028,-0.01 -0.012,-0 -0.023,0.003 -0.033,0.011 -0.011,0.009 -0.02,0.022 -0.027,0.04 -0.007,0.018 -0.011,0.038 -0.011,0.06 -0.001,0.022 0.002,0.042 0.008,0.061 0.007,0.02 0.016,0.036 0.029,0.046 0.015,0.012 0.032,0.017 0.052,0.016 0.019,-0.001 0.035,-0.008 0.046,-0.021 0.011,-0.011 0.016,-0.025 0.017,-0.042 0.001,-0.016 -0.003,-0.032 -0.011,-0.046 -0.009,-0.016 -0.022,-0.027 -0.039,-0.034zm0.169 0.07c-0.002,0.003 -0.004,0.005 -0.007,0.007 -0.003,0.002 -0.006,0.003 -0.009,0.002 0.006,-0.002 0.01,-0.006 0.013,-0.011 0.003,-0.004 0.005,-0.01 0.006,-0.017 0.001,0.007 0,0.013 -0.004,0.019zm-0.031 -0.017c-0.001,-0.004 0,-0.008 0.002,-0.011 0.002,-0.003 0.004,-0.005 0.008,-0.006 0.003,-0.001 0.006,0 0.009,0.003 0.003,0.003 0.004,0.006 0.005,0.01 0.001,0.004 0,0.008 -0.002,0.011 -0.002,0.003 -0.004,0.005 -0.008,0.006 -0.003,0.001 -0.006,-0 -0.009,-0.003 -0.003,-0.002 -0.004,-0.006 -0.005,-0.01zm-0.008 -0.125c-0.008,0.003 -0.015,0.008 -0.021,0.014 -0.005,0.006 -0.011,0.013 -0.015,0.021l-0.001 0.003 -0.001 0.003 -0.003 0.006 -0.002 0.006 -0.002 0.006c0.002,-0.009 0.005,-0.018 0.008,-0.026 0.004,-0.008 0.009,-0.016 0.015,-0.022 0.007,-0.007 0.014,-0.011 0.022,-0.014 0.004,-0.001 0.008,-0.002 0.012,-0.003l0.003 -0 0.003 -0 0.006 0c-0.009,0.001 -0.017,0.003 -0.024,0.006zm0.05 -0.015c-0.031,-0.008 -0.057,-0.003 -0.078,0.017 -0.018,0.017 -0.03,0.041 -0.034,0.073 -0.004,0.031 -0.001,0.059 0.01,0.085 0.012,0.028 0.03,0.046 0.054,0.053 0.023,0.007 0.044,0 0.065,-0.019 0.018,-0.018 0.032,-0.042 0.039,-0.072 0.008,-0.031 0.008,-0.059 -0.001,-0.084 -0.01,-0.028 -0.028,-0.045 -0.056,-0.053zm0.195 0.022c-0.003,0.003 -0.005,0.007 -0.008,0.012 -0.005,0.008 -0.009,0.017 -0.012,0.026l-0.002 0.007 -0.002 0.007c-0.002,0.006 -0.004,0.011 -0.005,0.014 -0.002,0.006 -0.005,0.01 -0.007,0.013 -0.002,0.002 -0.004,0.004 -0.006,0.004 -0.002,0.001 -0.004,0.001 -0.007,0.001 0.003,-0 0.005,-0.001 0.007,-0.001 0.002,-0.001 0.003,-0.003 0.005,-0.005 0.002,-0.003 0.004,-0.007 0.006,-0.013l0.002 -0.007 0.002 -0.007c0.002,-0.006 0.003,-0.01 0.005,-0.014 0.004,-0.01 0.008,-0.019 0.013,-0.026 0.007,-0.01 0.013,-0.017 0.02,-0.02 -0.004,0.003 -0.007,0.006 -0.01,0.01zm-0.1 0.038c-0.001,0.007 -0.003,0.015 -0.004,0.024l-0.001 0.012 -0.001 0.012c-0.001,-0.024 0.002,-0.045 0.008,-0.064 0.001,-0.004 0.002,-0.007 0.004,-0.01 0.002,-0.004 0.003,-0.007 0.005,-0.01 0.005,-0.007 0.01,-0.011 0.017,-0.01 -0.008,0.001 -0.014,0.007 -0.019,0.018 -0.002,0.004 -0.003,0.009 -0.005,0.015 -0.001,0.002 -0.001,0.005 -0.002,0.007l-0.001 0.003 -0 0.002 -0 0.001zm0.138 -0.059c-0.012,-0.008 -0.025,-0.007 -0.037,0.002 -0.01,0.008 -0.02,0.02 -0.028,0.037 -0.003,0.005 -0.005,0.012 -0.008,0.019 -0.001,0.003 -0.002,0.006 -0.003,0.009l-0.001 0.004 -0.001 0.002 -0.001 0.002c-0.002,0.006 -0.003,0.01 -0.004,0.012 -0.002,0.003 -0.003,0.005 -0.004,0.005 -0.003,-0 -0.004,-0.002 -0.004,-0.007 -0,-0.004 0.001,-0.012 0.002,-0.025 0.003,-0.024 0.002,-0.041 -0.005,-0.051 -0.005,-0.008 -0.013,-0.011 -0.023,-0.009 -0.013,0.002 -0.023,0.015 -0.031,0.04 -0.007,0.024 -0.01,0.053 -0.009,0.087 0.002,0.063 0.019,0.096 0.051,0.101 0.009,0.001 0.019,-0.001 0.028,-0.007 0.009,-0.006 0.016,-0.014 0.023,-0.024 0.005,-0.009 0.01,-0.017 0.014,-0.025 0.001,-0.003 0.003,-0.006 0.004,-0.009 0.001,-0.002 0.002,-0.004 0.003,-0.006 0.002,-0.004 0.003,-0.007 0.003,-0.007 0.001,-0.001 0.002,-0.001 0.003,-0.001 0.001,0 0.001,0.005 0,0.014l-0 0.003 -0 0.003c-0,0.003 -0.001,0.005 -0.001,0.007 -0,0.006 -0.001,0.011 -0.001,0.015 -0.001,0.027 0.008,0.04 0.026,0.04 0.012,-0 0.021,-0.011 0.027,-0.032 0.006,-0.019 0.009,-0.043 0.009,-0.072 0,-0.028 -0.003,-0.054 -0.008,-0.077 -0.006,-0.025 -0.014,-0.041 -0.024,-0.047zm-0.08 -0.028c0.005,-0.001 0.01,-0.002 0.014,-0.003 0.005,-0.002 0.009,-0.004 0.012,-0.007 0.001,-0.001 0.002,-0.002 0.003,-0.003l0.003 -0.003 0.001 -0.001c0,-0.001 0.001,-0.001 0.001,-0.001 0.001,-0 0.001,-0.001 0.002,-0.001l0.001 0 0.001 0 -0.001 0 -0.001 0c-0.001,0 -0.001,0.001 -0.001,0.001 -0,0 -0.001,0.001 -0.001,0.001l-0.001 0.002c-0.002,0.003 -0.004,0.005 -0.005,0.006 -0.002,0.002 -0.004,0.003 -0.006,0.005 -0.002,0.001 -0.004,0.002 -0.007,0.003 -0.005,0.002 -0.009,0.003 -0.015,0.003l-0.004 0 -0.004 -0c-0.003,-0 -0.006,0 -0.007,0.001 0.001,-0.001 0.002,-0.002 0.003,-0.002l0.002 -0 0.002 -0 0.007 -0.001zm0.056 -0.011c0,-0.007 -0.002,-0.013 -0.007,-0.017 -0.004,-0.004 -0.01,-0.005 -0.016,-0.004 -0.004,0.001 -0.007,0.003 -0.01,0.007l-0.002 0.002c-0.001,0.001 -0.001,0.002 -0.002,0.002 -0.002,0.002 -0.004,0.003 -0.006,0.004 -0.003,0.002 -0.006,0.003 -0.01,0.003 -0.001,0 -0.003,0 -0.005,0l-0.002 0 -0.002 0c-0.007,0 -0.012,0.002 -0.016,0.004 -0.004,0.003 -0.006,0.006 -0.006,0.011 -0,0.004 0.001,0.008 0.003,0.012 0.003,0.006 0.009,0.011 0.018,0.013 0.008,0.002 0.017,0.002 0.027,-0.001 0.01,-0.003 0.018,-0.007 0.024,-0.014 0.007,-0.007 0.01,-0.015 0.01,-0.025zm0.198 0.268l-0 -0.312 0.2 -0 0 0.05 -0.145 0 0 0.072 0.091 -0c0.018,0 0.032,0.004 0.045,0.011 0.012,0.008 0.021,0.019 0.028,0.033 0.006,0.014 0.009,0.032 0.009,0.052 0,0.02 -0.003,0.037 -0.009,0.051 -0.006,0.014 -0.015,0.025 -0.027,0.032 -0.012,0.007 -0.027,0.011 -0.044,0.011l-0.146 0zm0.055 -0.05l0.07 -0c0.012,0 0.021,-0.001 0.028,-0.004 0.007,-0.003 0.012,-0.007 0.015,-0.013 0.003,-0.006 0.005,-0.016 0.005,-0.028 0,-0.018 -0.003,-0.03 -0.01,-0.037 -0.007,-0.007 -0.018,-0.01 -0.035,-0.01l-0.072 0 0 0.091z"/>
   <path class="fil0" d="M0.431 0.473c-0.001,0.001 -0.003,0.002 -0.004,0.004 -0.002,0.002 -0.003,0.006 -0.004,0.011 -0.001,0.006 -0.002,0.014 -0.001,0.023l0 0.003 0 0.003c0,0.002 0,0.004 -0,0.006 -0,0.004 -0.001,0.008 -0.003,0.012 -0.002,0.004 -0.004,0.007 -0.006,0.01 -0.003,0.003 -0.006,0.005 -0.01,0.006 0.007,-0.003 0.012,-0.009 0.014,-0.017 0.001,-0.004 0.002,-0.007 0.002,-0.011 0,-0.002 0,-0.003 0,-0.006l-0 -0.003 0 -0.003c-0,-0.01 0.001,-0.018 0.002,-0.024 0.001,-0.005 0.003,-0.009 0.005,-0.011 0.001,-0.002 0.003,-0.003 0.005,-0.003 0.001,-0.001 0.003,-0.001 0.005,-0.001 -0.002,0 -0.004,0.001 -0.005,0.002zm-0.101 0.004c-0.004,0.004 -0.006,0.009 -0.008,0.015 -0.002,0.005 -0.003,0.011 -0.005,0.017l-0.002 0.009 -0.002 0.009c0,-0.012 0.002,-0.024 0.006,-0.036 0.002,-0.007 0.005,-0.012 0.009,-0.016 0.002,-0.002 0.005,-0.004 0.007,-0.005 0.003,-0.001 0.006,-0.002 0.008,-0.001 -0.005,0.001 -0.01,0.003 -0.014,0.008zm0.106 -0.018c-0.01,0.001 -0.017,0.006 -0.022,0.015 -0.004,0.009 -0.006,0.023 -0.005,0.042 0,0.008 -0.001,0.015 -0.005,0.019 -0.003,0.004 -0.007,0.005 -0.012,0.005 -0.005,-0 -0.009,-0.003 -0.011,-0.007 -0.003,-0.004 -0.004,-0.01 -0.003,-0.017 0.002,-0.019 0,-0.034 -0.005,-0.043 -0.005,-0.009 -0.013,-0.014 -0.024,-0.016 -0.009,-0.001 -0.017,0.001 -0.024,0.007 -0.007,0.006 -0.012,0.014 -0.015,0.025 -0.006,0.02 -0.01,0.044 -0.01,0.072 -0,0.027 0.002,0.052 0.008,0.077 0.004,0.018 0.01,0.031 0.019,0.039 0.007,0.006 0.015,0.009 0.024,0.008 0.019,-0.003 0.028,-0.018 0.026,-0.046 -0.001,-0.02 0.002,-0.03 0.012,-0.03 0.005,0 0.008,0.002 0.011,0.006 0.003,0.005 0.005,0.013 0.004,0.023 -0.001,0.018 0.002,0.032 0.008,0.041 0.006,0.009 0.014,0.013 0.024,0.013 0.018,0 0.03,-0.012 0.037,-0.036 0.005,-0.017 0.008,-0.046 0.009,-0.087 0.001,-0.031 -0.003,-0.057 -0.011,-0.078 -0.008,-0.022 -0.02,-0.032 -0.034,-0.031zm0.165 0.143c-0.002,0.002 -0.004,0.003 -0.006,0.004 -0.003,0.001 -0.005,0.001 -0.007,0 0.005,-0.001 0.009,-0.003 0.012,-0.006 0.003,-0.002 0.006,-0.006 0.009,-0.011 -0.001,0.005 -0.003,0.01 -0.007,0.013zm-0.016 -0.009c-0.002,-0.001 -0.004,-0.003 -0.005,-0.006 -0.001,-0.003 -0.001,-0.006 0.001,-0.009 0.001,-0.003 0.003,-0.006 0.006,-0.008 0.003,-0.002 0.005,-0.002 0.007,-0.001 0.002,0.001 0.004,0.003 0.005,0.006 0.001,0.003 0,0.006 -0.001,0.01 -0.001,0.003 -0.003,0.006 -0.006,0.008 -0.003,0.002 -0.005,0.002 -0.007,0.001zm-0.024 -0.088c-0.004,0.006 -0.008,0.013 -0.014,0.023 -0.002,0.003 -0.004,0.007 -0.006,0.012l-0.006 0.012c0.003,-0.008 0.006,-0.016 0.011,-0.025 0.004,-0.008 0.008,-0.016 0.013,-0.023 0.006,-0.009 0.011,-0.016 0.017,-0.021l0.002 -0.002c0.001,-0.001 0.002,-0.002 0.002,-0.002l0.003 -0.002 0.003 -0.002c0.005,-0.003 0.009,-0.004 0.012,-0.004 -0.003,0 -0.007,0.002 -0.011,0.005l-0.002 0.002 -0.002 0.002c-0.001,0.001 -0.001,0.001 -0.002,0.002l-0.002 0.002c-0.005,0.006 -0.01,0.013 -0.016,0.021zm0.04 -0.047c-0.013,-0.002 -0.028,0.008 -0.044,0.029 -0.015,0.02 -0.028,0.045 -0.04,0.075 -0.012,0.03 -0.018,0.057 -0.02,0.081 -0.002,0.026 0.003,0.041 0.014,0.046 0.009,0.004 0.017,0.004 0.025,-0 0.006,-0.003 0.012,-0.008 0.019,-0.016 0.001,-0.002 0.003,-0.003 0.004,-0.005l0.004 -0.005c0.003,-0.004 0.006,-0.007 0.007,-0.009 0.005,-0.006 0.01,-0.009 0.013,-0.009 0.004,0 0.008,0.003 0.014,0.009 0.002,0.002 0.004,0.005 0.007,0.009l0.004 0.005 0.004 0.005c0.007,0.007 0.013,0.012 0.019,0.015 0.007,0.003 0.015,0.003 0.022,-0 0.009,-0.004 0.013,-0.018 0.015,-0.042 0.001,-0.022 -0.001,-0.047 -0.007,-0.075 -0.006,-0.029 -0.014,-0.054 -0.024,-0.074 -0.011,-0.022 -0.024,-0.035 -0.037,-0.037zm0.281 0.017c-0.002,0.002 -0.004,0.004 -0.006,0.008 -0.003,0.004 -0.006,0.01 -0.01,0.017l-0.002 0.004 -0.002 0.004c-0.002,0.003 -0.004,0.006 -0.005,0.008 -0.002,0.003 -0.004,0.006 -0.006,0.008 -0.003,0.003 -0.006,0.004 -0.008,0.005 0.003,-0.001 0.005,-0.003 0.007,-0.006 0.002,-0.002 0.003,-0.005 0.005,-0.008 0.001,-0.002 0.003,-0.005 0.005,-0.009l0.005 -0.009c0.004,-0.007 0.008,-0.013 0.011,-0.017 0.002,-0.003 0.005,-0.005 0.007,-0.007 0.003,-0.003 0.006,-0.004 0.009,-0.004 -0.003,0 -0.005,0.002 -0.008,0.005zm-0.097 0.147c-0.002,0.002 -0.004,0.004 -0.006,0.005 -0.005,0.004 -0.008,0.007 -0.011,0.011 -0.002,0.002 -0.003,0.005 -0.004,0.007 -0.001,0.002 -0.001,0.005 -0.002,0.008 -0,-0.003 0,-0.005 0.001,-0.008 0.001,-0.003 0.002,-0.005 0.003,-0.008 0.002,-0.004 0.006,-0.008 0.011,-0.012 0.003,-0.003 0.008,-0.006 0.013,-0.009l0.003 -0.002 0.003 -0.002c0.003,-0.002 0.005,-0.003 0.006,-0.004 -0.003,0.003 -0.007,0.007 -0.012,0.011l-0.006 0.005zm-0.025 -0.133c-0.001,0.002 -0.003,0.005 -0.003,0.008 -0.001,0.003 -0.001,0.006 -0.001,0.009 -0.001,-0.003 -0.002,-0.006 -0.001,-0.009 0,-0.003 0.001,-0.006 0.003,-0.009 0.002,-0.003 0.004,-0.005 0.007,-0.006 0.003,-0.001 0.006,-0.002 0.009,-0.001 -0.006,0.001 -0.01,0.004 -0.014,0.009zm0.13 -0.032c-0.006,0 -0.012,0.003 -0.018,0.009 -0.004,0.005 -0.009,0.011 -0.015,0.02l-0.003 0.006 -0.001 0.003 -0.001 0.003c-0.002,0.004 -0.004,0.008 -0.005,0.009 -0.004,0.006 -0.007,0.009 -0.009,0.009 -0.002,0 -0.007,-0.004 -0.014,-0.013l-0.001 -0.001 -0.001 -0.002c-0.001,-0.001 -0.002,-0.002 -0.003,-0.003 -0.002,-0.003 -0.004,-0.005 -0.006,-0.007 -0.005,-0.005 -0.01,-0.01 -0.014,-0.014 -0.007,-0.007 -0.015,-0.01 -0.023,-0.01 -0.007,0 -0.014,0.003 -0.019,0.008 -0.005,0.005 -0.009,0.012 -0.01,0.02 -0.001,0.009 0,0.017 0.005,0.026 0.003,0.006 0.008,0.013 0.014,0.019 0.002,0.003 0.005,0.006 0.008,0.009l0.004 0.004 0.004 0.004c0.007,0.007 0.012,0.011 0.014,0.015 0.004,0.005 0.006,0.009 0.007,0.013 0,0.004 -0.002,0.008 -0.007,0.013 -0.002,0.002 -0.004,0.004 -0.008,0.006l-0.002 0.001 -0.002 0.002 -0.005 0.003c-0.008,0.006 -0.013,0.011 -0.017,0.016 -0.005,0.007 -0.008,0.015 -0.009,0.024 -0,0.007 0.001,0.013 0.003,0.019 0.003,0.006 0.006,0.011 0.011,0.014 0.011,0.008 0.025,0.009 0.042,0.004 0.022,-0.007 0.045,-0.028 0.067,-0.063 0.02,-0.031 0.033,-0.06 0.038,-0.088 0.006,-0.029 0.006,-0.05 0.001,-0.063 -0.004,-0.012 -0.012,-0.017 -0.024,-0.017zm0.189 0.153c-0.001,0.004 -0.003,0.007 -0.006,0.009 -0.003,0.002 -0.006,0.004 -0.009,0.004 -0.003,0.001 -0.007,0.001 -0.01,0 0.004,-0.001 0.007,-0.002 0.009,-0.002 0.003,-0.001 0.006,-0.003 0.008,-0.004 0.002,-0.002 0.004,-0.005 0.005,-0.008 0.001,-0.002 0.002,-0.006 0.002,-0.01 0.001,0.004 0.001,0.007 0,0.011zm-0.038 -0.004c-0.002,-0.004 -0.001,-0.01 0.002,-0.018 0.003,-0.009 0.007,-0.013 0.011,-0.013 0.005,0 0.009,0.005 0.012,0.014 0.001,0.004 0.002,0.007 0.002,0.011 0,0.004 -0,0.006 -0.001,0.008 -0.002,0.003 -0.006,0.004 -0.013,0.004 -0.007,-0 -0.011,-0.002 -0.013,-0.005zm-0.02 -0.106c-0.004,0.007 -0.008,0.014 -0.012,0.022 -0.003,0.006 -0.006,0.014 -0.009,0.024 0.002,-0.008 0.004,-0.016 0.007,-0.025 0.003,-0.008 0.007,-0.015 0.011,-0.023 0.005,-0.008 0.01,-0.015 0.016,-0.019 0.003,-0.003 0.007,-0.005 0.01,-0.007 0.004,-0.002 0.008,-0.003 0.012,-0.002 -0.007,0.001 -0.014,0.005 -0.02,0.011 -0.005,0.005 -0.01,0.012 -0.015,0.019zm-0.066 0.128c-0.002,0.001 -0.004,0.003 -0.006,0.004 -0.002,0.002 -0.003,0.004 -0.004,0.006 -0,-0.003 0,-0.006 0.002,-0.008 0.001,-0.002 0.003,-0.004 0.006,-0.005 0.005,-0.003 0.009,-0.004 0.014,-0.004l-0.003 0.002 -0.003 0.002c-0.003,0.001 -0.005,0.002 -0.006,0.003zm0.183 -0.019c-0.004,-0.001 -0.007,-0.003 -0.009,-0.005 -0.002,-0.002 -0.003,-0.005 -0.003,-0.009 -0,-0.002 -0.001,-0.007 -0.001,-0.015 -0,-0.004 -0,-0.007 -0.001,-0.01 -0,-0.004 -0.001,-0.008 -0.001,-0.012 -0.004,-0.032 -0.013,-0.057 -0.025,-0.075 -0.011,-0.016 -0.025,-0.025 -0.04,-0.025 -0.013,-0 -0.026,0.007 -0.039,0.023 -0.013,0.016 -0.023,0.036 -0.029,0.062 -0.003,0.01 -0.005,0.02 -0.006,0.031 -0,0.002 -0.001,0.004 -0.001,0.006l-0 0.003 -0 0.002c-0.001,0.004 -0.001,0.007 -0.001,0.009 -0.001,0.005 -0.002,0.009 -0.004,0.011 -0.002,0.003 -0.005,0.004 -0.01,0.006 -0.013,0.003 -0.022,0.008 -0.027,0.015 -0.005,0.007 -0.006,0.014 -0.003,0.024 0.003,0.013 0.017,0.023 0.041,0.031 0.021,0.007 0.048,0.011 0.08,0.012 0.029,0.001 0.051,-0 0.067,-0.003 0.023,-0.004 0.038,-0.012 0.045,-0.025 0.006,-0.012 0.007,-0.023 0.001,-0.033 -0.005,-0.01 -0.015,-0.017 -0.029,-0.021zm0.216 -0.135c-0.002,0.002 -0.005,0.004 -0.007,0.007 -0.003,0.004 -0.007,0.01 -0.012,0.018l-0.003 0.005 -0.003 0.005c-0.002,0.003 -0.005,0.006 -0.007,0.009 -0.003,0.003 -0.006,0.005 -0.009,0.006 -0.004,0.002 -0.007,0.002 -0.01,0.002 0.006,-0.001 0.012,-0.004 0.017,-0.01 0.002,-0.002 0.004,-0.005 0.006,-0.009l0.003 -0.005 0.003 -0.005c0.005,-0.008 0.009,-0.014 0.013,-0.018 0.003,-0.003 0.006,-0.005 0.008,-0.007 0.003,-0.002 0.007,-0.003 0.01,-0.002 -0.004,0 -0.007,0.002 -0.009,0.004zm-0.121 0.015c-0.004,0.005 -0.007,0.011 -0.01,0.018 -0.002,0.005 -0.005,0.011 -0.008,0.02 -0.001,0.003 -0.002,0.007 -0.003,0.01l-0.002 0.005 -0.002 0.005c0.003,-0.015 0.007,-0.03 0.012,-0.042 0.004,-0.008 0.007,-0.014 0.011,-0.019 0.002,-0.003 0.005,-0.005 0.008,-0.007 0.003,-0.002 0.007,-0.003 0.01,-0.003 -0.006,0.001 -0.011,0.004 -0.016,0.011zm0.183 0.081c-0.001,-0.033 -0.007,-0.059 -0.016,-0.08 -0.009,-0.019 -0.019,-0.03 -0.032,-0.032 -0.009,-0.001 -0.017,0.001 -0.025,0.008 -0.006,0.005 -0.013,0.015 -0.022,0.029 -0.008,0.013 -0.014,0.018 -0.02,0.017 -0.004,-0.001 -0.008,-0.006 -0.014,-0.015 -0.006,-0.011 -0.012,-0.018 -0.018,-0.024 -0.007,-0.007 -0.015,-0.009 -0.023,-0.009 -0.021,0.002 -0.038,0.029 -0.051,0.08 -0.008,0.033 -0.012,0.062 -0.01,0.088 0.002,0.03 0.01,0.046 0.025,0.05 0.009,0.002 0.016,-0 0.023,-0.007 0.005,-0.005 0.01,-0.013 0.014,-0.024 0.001,-0.004 0.003,-0.008 0.005,-0.014l0.001 -0.003 0.001 -0.003c0.001,-0.002 0.001,-0.004 0.002,-0.006 0.003,-0.009 0.006,-0.013 0.009,-0.014 0.002,-0.001 0.004,0.001 0.006,0.005 0.001,0.001 0.001,0.003 0.002,0.007l0.001 0.002 0.001 0.002 0.001 0.004c0.003,0.007 0.005,0.012 0.008,0.015 0.004,0.005 0.009,0.007 0.015,0.007 0.004,0 0.008,-0.002 0.012,-0.005 0.003,-0.002 0.006,-0.006 0.009,-0.012l0.002 -0.003 0.002 -0.003c0.001,-0.002 0.003,-0.004 0.004,-0.005 0.003,-0.003 0.005,-0.004 0.008,-0.003 0.002,0.001 0.005,0.005 0.007,0.013 0.001,0.002 0.001,0.003 0.002,0.005l0.001 0.003 0.001 0.003c0.002,0.005 0.003,0.009 0.004,0.013 0.004,0.01 0.008,0.018 0.012,0.023 0.006,0.007 0.012,0.011 0.02,0.011 0.013,0 0.023,-0.011 0.029,-0.035 0.005,-0.021 0.007,-0.05 0.005,-0.088zm0.154 -0.095c-0.002,0.002 -0.004,0.004 -0.006,0.008 -0.003,0.004 -0.006,0.01 -0.01,0.017l-0.002 0.004 -0.002 0.004c-0.002,0.003 -0.004,0.006 -0.005,0.008 -0.002,0.003 -0.004,0.006 -0.006,0.008 -0.003,0.003 -0.006,0.004 -0.008,0.005 0.003,-0.001 0.005,-0.003 0.007,-0.006 0.002,-0.002 0.003,-0.005 0.005,-0.008 0.001,-0.002 0.003,-0.005 0.005,-0.009l0.005 -0.009c0.004,-0.007 0.008,-0.013 0.011,-0.017 0.002,-0.003 0.005,-0.005 0.007,-0.007 0.003,-0.003 0.006,-0.004 0.009,-0.004 -0.003,0 -0.005,0.002 -0.008,0.005zm-0.097 0.147c-0.002,0.002 -0.004,0.004 -0.006,0.005 -0.005,0.004 -0.008,0.007 -0.011,0.011 -0.001,0.002 -0.003,0.005 -0.004,0.007 -0.001,0.002 -0.001,0.005 -0.002,0.008 -0,-0.003 0,-0.005 0.001,-0.008 0.001,-0.003 0.002,-0.005 0.003,-0.008 0.002,-0.004 0.006,-0.008 0.011,-0.012 0.003,-0.003 0.008,-0.006 0.013,-0.009l0.003 -0.002 0.003 -0.002c0.003,-0.002 0.005,-0.003 0.006,-0.004 -0.003,0.003 -0.007,0.007 -0.012,0.011l-0.006 0.005zm-0.025 -0.133c-0.001,0.002 -0.003,0.005 -0.003,0.008 -0.001,0.003 -0.001,0.006 -0.001,0.009 -0.001,-0.003 -0.002,-0.006 -0.001,-0.009 0,-0.003 0.001,-0.006 0.003,-0.009 0.002,-0.003 0.004,-0.005 0.007,-0.006 0.003,-0.001 0.006,-0.002 0.009,-0.001 -0.006,0.001 -0.01,0.004 -0.014,0.009zm0.13 -0.032c-0.006,0 -0.012,0.003 -0.018,0.009 -0.004,0.005 -0.009,0.011 -0.015,0.02l-0.003 0.006 -0.001 0.003 -0.001 0.003c-0.002,0.004 -0.004,0.008 -0.005,0.009 -0.004,0.006 -0.007,0.009 -0.009,0.009 -0.002,0 -0.007,-0.004 -0.014,-0.013l-0.001 -0.001 -0.001 -0.002c-0.001,-0.001 -0.002,-0.002 -0.003,-0.003 -0.002,-0.003 -0.004,-0.005 -0.006,-0.007 -0.005,-0.005 -0.01,-0.01 -0.014,-0.014 -0.007,-0.007 -0.015,-0.01 -0.023,-0.01 -0.007,0 -0.014,0.003 -0.019,0.008 -0.006,0.005 -0.009,0.012 -0.01,0.02 -0.001,0.009 0,0.017 0.005,0.026 0.003,0.006 0.008,0.013 0.014,0.019 0.002,0.003 0.005,0.006 0.008,0.009l0.004 0.004 0.004 0.004c0.007,0.007 0.012,0.011 0.014,0.015 0.004,0.005 0.006,0.009 0.007,0.013 0,0.004 -0.002,0.008 -0.007,0.013 -0.002,0.002 -0.004,0.004 -0.008,0.006l-0.002 0.001 -0.002 0.002 -0.005 0.003c-0.008,0.006 -0.013,0.011 -0.017,0.016 -0.005,0.007 -0.008,0.015 -0.009,0.024 -0,0.007 0.001,0.013 0.003,0.019 0.003,0.006 0.006,0.011 0.011,0.014 0.011,0.008 0.025,0.009 0.042,0.004 0.022,-0.007 0.045,-0.028 0.067,-0.063 0.02,-0.031 0.033,-0.06 0.038,-0.088 0.006,-0.029 0.006,-0.05 0.001,-0.063 -0.004,-0.012 -0.012,-0.017 -0.024,-0.017zm0.144 0.098c-0.001,0.003 -0.003,0.006 -0.005,0.008 -0.002,0.003 -0.005,0.005 -0.008,0.006 -0.003,0.001 -0.006,0.002 -0.009,0.001 0.003,-0.001 0.006,-0.002 0.008,-0.003 0.003,-0.002 0.005,-0.003 0.006,-0.006 0.004,-0.004 0.007,-0.01 0.009,-0.016 0,0.003 -0,0.006 -0.001,0.01zm-0.027 -0.014c0.002,-0.003 0.004,-0.006 0.006,-0.007 0.003,-0.001 0.005,-0.002 0.007,-0 0.002,0.001 0.003,0.003 0.004,0.006 0,0.003 -0,0.006 -0.002,0.009 -0.001,0.003 -0.003,0.006 -0.006,0.007 -0.003,0.001 -0.005,0.002 -0.007,0 -0.002,-0.001 -0.003,-0.003 -0.004,-0.006 -0,-0.003 0,-0.006 0.001,-0.009zm-0.023 -0.065c-0.007,0.003 -0.013,0.008 -0.018,0.014 -0.005,0.005 -0.009,0.012 -0.012,0.02 -0.003,0.006 -0.005,0.014 -0.007,0.023 0,-0.003 0.001,-0.007 0.002,-0.012 0.001,-0.004 0.002,-0.008 0.004,-0.012 0.003,-0.008 0.007,-0.015 0.012,-0.021 0.005,-0.006 0.012,-0.011 0.019,-0.014 0.003,-0.002 0.007,-0.003 0.011,-0.003 0.004,-0.001 0.008,-0.001 0.011,-0.001 -0.008,0.001 -0.015,0.004 -0.021,0.007zm0.028 -0.019c-0.02,-0 -0.037,0.006 -0.05,0.018 -0.012,0.011 -0.02,0.026 -0.025,0.046 -0.004,0.018 -0.005,0.038 -0.003,0.059 0.002,0.021 0.007,0.04 0.015,0.058 0.007,0.017 0.016,0.03 0.025,0.04 0.008,0.008 0.016,0.013 0.024,0.013 0.007,0.001 0.014,-0.002 0.019,-0.007 0.005,-0.005 0.008,-0.013 0.009,-0.022 0.001,-0.006 0.001,-0.014 -0,-0.022 -0,-0.002 -0.001,-0.006 -0.002,-0.01l-0.001 -0.005c-0,-0.002 -0.001,-0.003 -0.001,-0.004 -0.001,-0.006 -0.001,-0.011 0,-0.015 0.001,-0.004 0.004,-0.008 0.009,-0.01 0.016,-0.008 0.028,-0.02 0.037,-0.036 0.008,-0.015 0.011,-0.03 0.009,-0.046 -0.002,-0.016 -0.008,-0.03 -0.019,-0.04 -0.012,-0.011 -0.027,-0.017 -0.047,-0.017zm0.135 0.015c-0.007,0.001 -0.013,0.002 -0.017,0.004 -0.007,0.002 -0.012,0.004 -0.016,0.007 -0.003,0.002 -0.005,0.004 -0.006,0.006 -0.002,0.002 -0.003,0.005 -0.003,0.009 -0.001,-0.003 -0,-0.007 0.001,-0.01 0.001,-0.003 0.003,-0.005 0.006,-0.007 0.004,-0.003 0.009,-0.006 0.016,-0.008 0.011,-0.003 0.023,-0.004 0.036,-0.003 -0.007,0.001 -0.012,0.001 -0.018,0.002zm0.029 -0.015c-0.024,-0.001 -0.044,0.002 -0.06,0.009 -0.016,0.008 -0.024,0.019 -0.022,0.033 0.001,0.008 0.004,0.014 0.009,0.017 0.004,0.003 0.01,0.004 0.018,0.005l0.005 0.001 0.005 0c0.004,0 0.007,0.001 0.009,0.001 0.006,0.001 0.01,0.004 0.011,0.008 0.001,0.002 -0,0.017 -0.003,0.043 -0.001,0.013 -0.002,0.024 -0.003,0.034 -0.001,0.013 -0,0.025 0,0.035 0.001,0.015 0.006,0.027 0.014,0.036 0.008,0.01 0.019,0.014 0.03,0.012 0.022,-0.003 0.029,-0.026 0.024,-0.07 -0.003,-0.023 -0.005,-0.042 -0.005,-0.059 -0,-0.017 0.001,-0.027 0.005,-0.03 0.002,-0.002 0.006,-0.003 0.012,-0.003 0.002,0 0.004,0 0.008,0l0.004 0 0.004 -0c0.007,-0 0.012,-0.001 0.015,-0.003 0.005,-0.003 0.008,-0.007 0.01,-0.013 0.002,-0.007 0.001,-0.014 -0.003,-0.021 -0.004,-0.006 -0.01,-0.012 -0.019,-0.017 -0.018,-0.01 -0.041,-0.016 -0.069,-0.018zm0.234 0.142c-0.001,0.001 -0.002,0.001 -0.003,0.002l-0.002 0.001 -0.002 0.001c-0.003,0.002 -0.005,0.003 -0.008,0.004 -0.003,0.001 -0.006,0.001 -0.008,0 0.005,-0.001 0.01,-0.003 0.015,-0.007l0.002 -0.001 0.002 -0.001c0.001,-0.001 0.003,-0.002 0.004,-0.002 0.003,-0.001 0.006,-0.002 0.008,-0.001 -0.003,0.001 -0.005,0.002 -0.007,0.003zm-0.087 -0.108c-0.005,0.006 -0.01,0.013 -0.014,0.021 -0.003,0.007 -0.007,0.015 -0.01,0.024 0.002,-0.009 0.004,-0.017 0.008,-0.025 0.003,-0.008 0.008,-0.015 0.014,-0.022 0.006,-0.007 0.013,-0.012 0.02,-0.015 0.004,-0.002 0.008,-0.003 0.012,-0.003 0.004,-0.001 0.008,-0.001 0.012,-0.001 -0.009,0.001 -0.016,0.003 -0.023,0.006 -0.007,0.004 -0.013,0.009 -0.019,0.015zm0.119 0.126c-0.001,-0.017 -0.007,-0.027 -0.017,-0.032 -0.004,-0.002 -0.009,-0.002 -0.014,-0.001 -0.005,0.001 -0.01,0.004 -0.014,0.007 -0.004,0.004 -0.009,0.005 -0.014,0.005 -0.004,-0 -0.008,-0.003 -0.012,-0.007 -0.004,-0.004 -0.006,-0.009 -0.008,-0.016 -0.002,-0.007 -0.002,-0.015 -0.001,-0.023 0.002,-0.012 0.007,-0.019 0.016,-0.02 0.007,-0.001 0.016,0.001 0.027,0.005 0.005,0.002 0.01,0.002 0.014,-0 0.004,-0.002 0.007,-0.006 0.009,-0.01 0.002,-0.005 0.003,-0.011 0.002,-0.017 -0.001,-0.007 -0.003,-0.013 -0.008,-0.019 -0.009,-0.013 -0.021,-0.022 -0.036,-0.027 -0.014,-0.005 -0.027,-0.005 -0.041,-0.001 -0.018,0.005 -0.033,0.017 -0.044,0.037 -0.013,0.022 -0.019,0.049 -0.019,0.081 0,0.037 0.009,0.065 0.026,0.086 0.008,0.01 0.018,0.017 0.029,0.022 0.011,0.005 0.023,0.006 0.036,0.005 0.022,-0.002 0.039,-0.01 0.052,-0.025 0.012,-0.014 0.018,-0.031 0.016,-0.049zm0.116 -0.108c-0.004,0.006 -0.008,0.01 -0.012,0.014 -0.005,0.005 -0.01,0.008 -0.015,0.01 0.004,-0.003 0.008,-0.007 0.013,-0.012 0.004,-0.004 0.008,-0.009 0.011,-0.014 0.002,-0.003 0.003,-0.005 0.005,-0.007l0.001 -0.002 0.001 -0.002c0.001,-0.002 0.002,-0.003 0.003,-0.004 0.002,-0.003 0.004,-0.004 0.007,-0.006 0.003,-0.002 0.006,-0.002 0.009,-0.002 -0.005,0 -0.01,0.004 -0.014,0.009 -0.001,0.001 -0.001,0.002 -0.002,0.004l-0.001 0.002 -0.001 0.002c-0.001,0.002 -0.003,0.005 -0.005,0.008zm-0.059 -0.036c-0.002,0.001 -0.004,0.003 -0.006,0.006 -0.003,0.003 -0.005,0.008 -0.008,0.015 -0.002,0.004 -0.003,0.009 -0.005,0.016l-0.002 0.008 -0.002 0.008c0.001,-0.007 0.001,-0.013 0.002,-0.017 0.001,-0.006 0.003,-0.012 0.005,-0.017 0.003,-0.007 0.005,-0.012 0.009,-0.015 0.002,-0.002 0.004,-0.004 0.007,-0.005 0.003,-0.001 0.005,-0.002 0.008,-0.002 -0.003,0 -0.005,0.001 -0.007,0.003zm0.068 0.095c-0.004,-0.002 -0.005,-0.005 -0.003,-0.007 0.001,-0.001 0.002,-0.002 0.005,-0.003l0.002 -0.001 0.002 -0.001c0.002,-0.001 0.003,-0.001 0.004,-0.002 0.008,-0.004 0.014,-0.008 0.018,-0.013 0.007,-0.007 0.012,-0.015 0.015,-0.025 0.003,-0.009 0.002,-0.017 -0,-0.025 -0.003,-0.007 -0.007,-0.013 -0.014,-0.016 -0.006,-0.004 -0.013,-0.004 -0.02,-0.002 -0.008,0.002 -0.014,0.008 -0.02,0.017 -0.009,0.015 -0.018,0.025 -0.026,0.031 -0.003,0.002 -0.006,0.003 -0.007,0.002 -0.001,-0.001 -0.001,-0.004 0.001,-0.008 0.007,-0.016 0.009,-0.03 0.007,-0.04 -0.002,-0.008 -0.008,-0.014 -0.016,-0.016 -0.017,-0.004 -0.03,0.005 -0.04,0.028 -0.008,0.018 -0.012,0.045 -0.015,0.08 -0.002,0.035 -0.001,0.064 0.004,0.085 0.006,0.026 0.017,0.039 0.033,0.038 0.015,-0.001 0.023,-0.012 0.026,-0.035 0.001,-0.008 0.001,-0.016 0,-0.026 -0,-0.003 -0.001,-0.007 -0.001,-0.01 -0,-0.001 -0,-0.003 -0,-0.004l-0 -0.001 -0 -0.001 0 -0c-0,-0.003 -0,-0.005 0.001,-0.006 0.001,-0.001 0.003,-0.001 0.005,0.001 0.005,0.005 0.011,0.018 0.016,0.037 0.003,0.013 0.008,0.023 0.014,0.031 0.006,0.007 0.012,0.012 0.019,0.015 0.007,0.002 0.013,0.002 0.02,-0 0.006,-0.003 0.012,-0.008 0.016,-0.015 0.005,-0.008 0.007,-0.017 0.008,-0.027 0,-0.009 -0.002,-0.019 -0.006,-0.029 -0.009,-0.021 -0.025,-0.038 -0.047,-0.052zm0.17 0.051c-0.002,0.003 -0.004,0.005 -0.007,0.007 -0.003,0.002 -0.006,0.003 -0.009,0.002 0.006,-0.002 0.01,-0.006 0.013,-0.011 0.003,-0.004 0.005,-0.01 0.006,-0.017 0.001,0.007 0,0.013 -0.004,0.019zm-0.031 -0.017c-0.001,-0.004 0,-0.008 0.002,-0.011 0.002,-0.003 0.004,-0.005 0.008,-0.006 0.003,-0.001 0.006,0.001 0.009,0.003 0.003,0.003 0.004,0.006 0.005,0.01 0.001,0.004 0,0.008 -0.002,0.011 -0.002,0.003 -0.004,0.005 -0.008,0.006 -0.003,0.001 -0.006,-0 -0.009,-0.003 -0.003,-0.002 -0.004,-0.006 -0.005,-0.01zm-0.008 -0.125c-0.008,0.003 -0.015,0.008 -0.021,0.014 -0.005,0.006 -0.011,0.013 -0.015,0.021l-0.001 0.003 -0.001 0.003 -0.003 0.006 -0.002 0.006 -0.002 0.006c0.002,-0.009 0.005,-0.018 0.008,-0.026 0.004,-0.008 0.009,-0.016 0.015,-0.022 0.007,-0.007 0.014,-0.011 0.022,-0.014 0.004,-0.001 0.008,-0.002 0.012,-0.003l0.003 -0 0.003 -0 0.006 0c-0.009,0.001 -0.017,0.003 -0.024,0.006zm0.05 -0.015c-0.031,-0.008 -0.057,-0.003 -0.078,0.017 -0.018,0.017 -0.03,0.041 -0.034,0.073 -0.004,0.031 -0.001,0.059 0.01,0.085 0.012,0.028 0.03,0.046 0.054,0.053 0.023,0.007 0.044,0 0.065,-0.019 0.018,-0.018 0.032,-0.042 0.039,-0.072 0.008,-0.031 0.008,-0.059 -0.001,-0.084 -0.01,-0.028 -0.028,-0.045 -0.056,-0.053z"/>
   <path class="fil0" d="M2.678 0.472c-0.002,0.002 -0.005,0.004 -0.007,0.007 -0.003,0.004 -0.007,0.01 -0.012,0.018l-0.003 0.005 -0.003 0.005c-0.002,0.003 -0.005,0.006 -0.007,0.009 -0.003,0.003 -0.006,0.005 -0.009,0.006 -0.004,0.002 -0.007,0.002 -0.01,0.002 0.006,-0.001 0.012,-0.004 0.017,-0.01 0.002,-0.002 0.004,-0.005 0.006,-0.008l0.003 -0.005 0.003 -0.005c0.005,-0.008 0.009,-0.014 0.013,-0.018 0.003,-0.003 0.006,-0.005 0.008,-0.007 0.003,-0.002 0.007,-0.003 0.01,-0.002 -0.004,0 -0.007,0.002 -0.009,0.004zm-0.121 0.015c-0.004,0.005 -0.007,0.011 -0.01,0.019 -0.002,0.005 -0.005,0.011 -0.008,0.02 -0.001,0.003 -0.002,0.007 -0.003,0.01l-0.002 0.005 -0.002 0.005c0.003,-0.015 0.007,-0.03 0.012,-0.042 0.004,-0.008 0.007,-0.014 0.011,-0.019 0.002,-0.003 0.005,-0.005 0.008,-0.007 0.003,-0.002 0.007,-0.003 0.01,-0.003 -0.006,0.001 -0.011,0.004 -0.016,0.011zm0.183 0.081c-0.001,-0.033 -0.007,-0.059 -0.016,-0.08 -0.009,-0.019 -0.019,-0.03 -0.032,-0.032 -0.009,-0.001 -0.017,0.001 -0.025,0.008 -0.006,0.005 -0.013,0.015 -0.022,0.029 -0.008,0.013 -0.014,0.018 -0.02,0.017 -0.004,-0.001 -0.008,-0.006 -0.014,-0.015 -0.006,-0.011 -0.012,-0.018 -0.018,-0.024 -0.007,-0.007 -0.015,-0.009 -0.023,-0.009 -0.021,0.002 -0.038,0.029 -0.051,0.08 -0.008,0.033 -0.012,0.062 -0.01,0.088 0.002,0.03 0.01,0.046 0.025,0.05 0.009,0.002 0.016,-0 0.023,-0.007 0.005,-0.005 0.01,-0.013 0.014,-0.024 0.001,-0.004 0.003,-0.008 0.005,-0.014l0.001 -0.003 0.001 -0.003c0.001,-0.002 0.001,-0.004 0.002,-0.006 0.003,-0.009 0.006,-0.013 0.009,-0.014 0.002,-0.001 0.004,0.001 0.006,0.005 0.001,0.001 0.001,0.003 0.002,0.007l0.001 0.002 0.001 0.002 0.001 0.004c0.003,0.007 0.005,0.012 0.008,0.015 0.004,0.005 0.009,0.007 0.015,0.007 0.004,0 0.008,-0.002 0.012,-0.005 0.003,-0.002 0.006,-0.006 0.009,-0.012l0.002 -0.003 0.002 -0.003c0.001,-0.002 0.003,-0.004 0.004,-0.005 0.003,-0.003 0.005,-0.004 0.007,-0.003 0.002,0.001 0.005,0.005 0.007,0.013 0.001,0.002 0.001,0.003 0.002,0.005l0.001 0.003 0.001 0.003c0.002,0.005 0.003,0.009 0.004,0.013 0.004,0.01 0.008,0.018 0.012,0.023 0.006,0.007 0.012,0.011 0.02,0.011 0.013,0 0.023,-0.011 0.029,-0.035 0.005,-0.021 0.007,-0.05 0.005,-0.088zm0.176 -0.005c-0.002,0.003 -0.005,0.005 -0.007,0.006 -0.003,0.001 -0.006,0.002 -0.009,0.001 0.006,-0.002 0.011,-0.005 0.014,-0.009 0.003,-0.004 0.006,-0.01 0.007,-0.017 0.001,0.007 0,0.013 -0.004,0.019zm-0.027 -0.018c-0,-0.003 0.001,-0.007 0.003,-0.009 0.002,-0.003 0.004,-0.004 0.007,-0.004 0.003,-0 0.005,0.001 0.007,0.003 0.002,0.002 0.003,0.005 0.003,0.009 0,0.003 -0.001,0.006 -0.003,0.009 -0.002,0.003 -0.004,0.004 -0.007,0.004 -0.003,0 -0.005,-0.001 -0.007,-0.003 -0.002,-0.002 -0.003,-0.005 -0.003,-0.009zm-0.012 -0.07c-0.006,0.003 -0.011,0.007 -0.015,0.012 -0.004,0.005 -0.008,0.01 -0.01,0.017 -0.001,0.003 -0.002,0.006 -0.003,0.01 -0.001,0.003 -0.001,0.006 -0.002,0.01 -0.001,-0.007 0,-0.014 0.002,-0.021 0.002,-0.007 0.005,-0.013 0.01,-0.018 0.005,-0.005 0.01,-0.009 0.017,-0.012 0.006,-0.003 0.013,-0.004 0.019,-0.004l-0.005 0.001c-0.002,0 -0.003,0.001 -0.005,0.001 -0.003,0.001 -0.006,0.002 -0.009,0.004zm-0.039 0.147c-0.006,0.009 -0.009,0.017 -0.011,0.025 -0,-0.005 0.001,-0.009 0.002,-0.014 0.001,-0.004 0.003,-0.008 0.006,-0.013 0.003,-0.004 0.005,-0.008 0.008,-0.011 0.003,-0.003 0.006,-0.006 0.01,-0.009l-0.004 0.005 -0.004 0.005c-0.003,0.004 -0.005,0.008 -0.007,0.011zm0.056 -0.166c-0.015,0.002 -0.027,0.007 -0.037,0.016 -0.009,0.008 -0.015,0.018 -0.019,0.031 -0.003,0.012 -0.004,0.024 -0.002,0.037 0.003,0.013 0.008,0.025 0.016,0.036 0.002,0.002 0.002,0.005 0.001,0.007 -0.001,0.002 -0.003,0.004 -0.006,0.008l-0.001 0.001 -0.001 0.001c-0.001,0.001 -0.002,0.002 -0.003,0.003 -0.002,0.002 -0.004,0.004 -0.006,0.006 -0.005,0.006 -0.009,0.012 -0.012,0.018 -0.005,0.01 -0.008,0.02 -0.008,0.03 0,0.009 0.002,0.016 0.006,0.023 0.004,0.006 0.009,0.011 0.015,0.014 0.006,0.003 0.012,0.004 0.018,0.003 0.014,-0.003 0.024,-0.011 0.031,-0.026 0.001,-0.003 0.002,-0.005 0.004,-0.009l0.001 -0.004 0.001 -0.004c0.002,-0.007 0.005,-0.011 0.007,-0.014 0.004,-0.004 0.006,-0.005 0.008,-0.003 0.003,0.004 0.004,0.014 0.005,0.031 0,0.009 0.003,0.016 0.008,0.022 0.005,0.005 0.011,0.007 0.017,0.007 0.007,-0 0.014,-0.003 0.02,-0.009 0.007,-0.007 0.012,-0.016 0.016,-0.027 0.006,-0.019 0.009,-0.04 0.009,-0.064 0,-0.024 -0.003,-0.046 -0.009,-0.066 -0.007,-0.022 -0.016,-0.039 -0.028,-0.051 -0.014,-0.013 -0.03,-0.019 -0.05,-0.016zm0.18 0.099c-0.003,0.003 -0.006,0.005 -0.011,0.006 -0.005,0.002 -0.008,0.003 -0.01,0.005 -0.004,0.003 -0.006,0.006 -0.006,0.01 -0,-0.002 0,-0.004 0.001,-0.006 0.001,-0.002 0.002,-0.004 0.004,-0.005 0.003,-0.002 0.006,-0.004 0.011,-0.006 0.004,-0.001 0.007,-0.003 0.01,-0.005 0.003,-0.003 0.006,-0.005 0.008,-0.009 -0.001,0.004 -0.003,0.008 -0.007,0.011zm-0.043 0.074c-0.005,-0.001 -0.01,-0.001 -0.013,-0 -0.003,0 -0.005,0.001 -0.006,0.002 -0.001,0.001 -0.001,0.001 -0.002,0.002l-0 0.002 -0 0.002c0,-0.002 0,-0.003 0,-0.004 0,-0.001 0.001,-0.003 0.002,-0.003 0.001,-0.001 0.004,-0.002 0.006,-0.003 0.003,-0.001 0.008,-0.001 0.013,-0 0.003,0 0.008,0.001 0.013,0.002l0.006 0.001 0.007 0.001c-0.004,0 -0.008,0.001 -0.013,0l-0.007 -0.001 -0.006 -0.001zm0.01 -0.152c-0.006,0.003 -0.011,0.006 -0.015,0.008 -0.002,0.001 -0.005,0.003 -0.007,0.005 -0.002,0.002 -0.004,0.004 -0.006,0.006 -0.004,0.005 -0.006,0.011 -0.006,0.017 -0.001,-0.003 -0.001,-0.006 0,-0.009 0.001,-0.003 0.002,-0.006 0.004,-0.009 0.003,-0.004 0.007,-0.009 0.013,-0.013 0.01,-0.007 0.021,-0.01 0.033,-0.012 -0.006,0.002 -0.011,0.004 -0.016,0.006zm0.095 0.115c-0.003,-0.004 -0.006,-0.007 -0.009,-0.01 -0.002,-0.002 -0.005,-0.004 -0.008,-0.006l-0.002 -0.001 -0.001 -0.001c-0.001,-0.001 -0.002,-0.001 -0.003,-0.002 -0.001,-0.001 -0.002,-0.003 -0.003,-0.004 -0,-0.002 0.001,-0.004 0.004,-0.007 0.001,-0.001 0.002,-0.002 0.004,-0.004l0.001 -0.001 0.001 -0.001 0.003 -0.003c0.004,-0.004 0.008,-0.009 0.01,-0.013 0.003,-0.006 0.006,-0.011 0.006,-0.017 0.002,-0.016 -0.001,-0.029 -0.009,-0.041 -0.009,-0.012 -0.023,-0.019 -0.042,-0.023 -0.009,-0.002 -0.02,-0.001 -0.031,0.001 -0.011,0.002 -0.022,0.006 -0.031,0.011 -0.01,0.005 -0.018,0.012 -0.024,0.019 -0.006,0.008 -0.009,0.017 -0.007,0.027 0.003,0.024 0.021,0.03 0.055,0.021 0.006,-0.002 0.01,-0.002 0.014,-0.002 0.003,0 0.005,0.001 0.005,0.003 0.001,0.002 -0,0.004 -0.002,0.006 -0.002,0.002 -0.006,0.004 -0.01,0.006 -0.016,0.006 -0.023,0.015 -0.023,0.028 0,0.006 0.002,0.012 0.006,0.016 0.004,0.004 0.01,0.007 0.017,0.006 0.007,-0 0.012,0.002 0.013,0.007 0.001,0.002 0.001,0.004 -0,0.006 -0.001,0.002 -0.002,0.004 -0.005,0.005 -0.003,0.002 -0.009,0.002 -0.017,0.001 -0.001,-0 -0.003,-0 -0.005,-0.001l-0.006 -0.001c-0.005,-0.001 -0.008,-0.001 -0.011,-0.001 -0.009,-0.001 -0.015,0 -0.02,0.003 -0.006,0.003 -0.009,0.009 -0.01,0.018 -0.001,0.01 0.003,0.019 0.013,0.028 0.009,0.009 0.02,0.015 0.034,0.02 0.014,0.005 0.028,0.007 0.042,0.006 0.015,-0.001 0.027,-0.005 0.037,-0.013 0.013,-0.011 0.021,-0.026 0.022,-0.043 0.001,-0.016 -0.002,-0.03 -0.01,-0.042zm0.126 0.028c-0.002,0.003 -0.004,0.005 -0.007,0.007 -0.003,0.001 -0.006,0.002 -0.009,0.001 0.006,-0.001 0.011,-0.004 0.014,-0.01 0.001,-0.002 0.003,-0.005 0.003,-0.008 0,-0.003 0.001,-0.006 0.001,-0.01 0.001,0.003 0.002,0.006 0.001,0.01 -0,0.004 -0.001,0.007 -0.003,0.01zm-0.027 -0.013c-0.001,-0.003 -0.002,-0.006 -0.001,-0.009 0,-0.003 0.002,-0.005 0.004,-0.007 0.002,-0.001 0.005,-0.001 0.007,0.001 0.003,0.001 0.005,0.004 0.006,0.007 0.002,0.003 0.002,0.006 0.001,0.009 -0,0.003 -0.002,0.005 -0.004,0.006 -0.002,0.001 -0.004,0.001 -0.007,-0 -0.003,-0.001 -0.005,-0.004 -0.006,-0.007zm-0.014 -0.135c-0.002,0.001 -0.004,0.002 -0.006,0.004 -0.003,0.003 -0.007,0.007 -0.01,0.012 -0.003,0.003 -0.006,0.008 -0.009,0.013 -0.001,0.002 -0.003,0.004 -0.004,0.007l-0.004 0.007c0.002,-0.006 0.004,-0.011 0.006,-0.015 0.003,-0.005 0.005,-0.01 0.009,-0.014 0.004,-0.005 0.008,-0.009 0.011,-0.012 0.005,-0.004 0.01,-0.005 0.015,-0.005 -0.002,0 -0.005,0.001 -0.007,0.003zm0.039 0.079c-0.005,-0.002 -0.008,-0.005 -0.01,-0.009 -0.001,-0.003 -0.001,-0.008 -0,-0.015 0,-0.001 0,-0.003 0.001,-0.005l0.001 -0.005c0.001,-0.004 0.001,-0.008 0.002,-0.01 0.001,-0.008 0.001,-0.016 0.001,-0.022 -0.001,-0.009 -0.004,-0.016 -0.009,-0.022 -0.005,-0.005 -0.012,-0.008 -0.019,-0.007 -0.008,0.001 -0.016,0.005 -0.024,0.013 -0.009,0.009 -0.017,0.022 -0.025,0.04 -0.008,0.018 -0.013,0.037 -0.015,0.058 -0.002,0.021 -0.001,0.041 0.003,0.059 0.005,0.02 0.013,0.035 0.025,0.046 0.013,0.012 0.03,0.018 0.05,0.018 0.019,-0 0.035,-0.006 0.048,-0.019 0.011,-0.011 0.018,-0.025 0.021,-0.042 0.002,-0.017 -0.001,-0.033 -0.008,-0.047 -0.009,-0.015 -0.022,-0.026 -0.04,-0.032zm0.063 -0.075c-0.002,0.002 -0.003,0.004 -0.004,0.006 -0.001,0.002 -0.001,0.005 -0.001,0.008 -0,0.004 0,0.009 0.001,0.016l0.001 0.008 0.001 0.008c-0.002,-0.006 -0.004,-0.011 -0.005,-0.016 -0.001,-0.006 -0.002,-0.012 -0.002,-0.017 0,-0.003 0.001,-0.006 0.002,-0.009 0.001,-0.003 0.003,-0.006 0.005,-0.007 0.004,-0.003 0.009,-0.005 0.015,-0.004 -0.006,0.001 -0.01,0.003 -0.013,0.006zm0.053 0.009c-0.004,-0.009 -0.01,-0.015 -0.017,-0.02 -0.006,-0.004 -0.013,-0.007 -0.02,-0.007 -0.007,-0.001 -0.013,0.001 -0.018,0.004 -0.006,0.003 -0.01,0.007 -0.012,0.013 -0.005,0.01 -0.005,0.025 0,0.045 0.001,0.003 0.002,0.007 0.003,0.012l0.002 0.006 0.002 0.006c0.003,0.01 0.004,0.018 0.005,0.025 0.002,0.016 0.002,0.032 0.002,0.049 -0,0.005 -0,0.012 -0.001,0.019l-0 0.004 -0 0.004c-0,0.003 -0,0.006 -0,0.008 -0,0.01 0,0.018 0.002,0.022 0.002,0.005 0.005,0.009 0.011,0.01 0.011,0.003 0.021,-0.004 0.029,-0.019 0.008,-0.014 0.014,-0.032 0.018,-0.057 0.004,-0.023 0.005,-0.046 0.005,-0.069 -0.001,-0.024 -0.005,-0.042 -0.011,-0.055zm0.126 0.023c-0.004,0.006 -0.008,0.01 -0.012,0.014 -0.005,0.005 -0.01,0.008 -0.015,0.01 0.004,-0.003 0.008,-0.007 0.013,-0.012 0.004,-0.004 0.008,-0.009 0.011,-0.014 0.002,-0.003 0.003,-0.005 0.005,-0.007l0.001 -0.002 0.001 -0.002c0.001,-0.002 0.002,-0.003 0.003,-0.004 0.002,-0.003 0.004,-0.004 0.007,-0.006 0.003,-0.002 0.006,-0.002 0.009,-0.002 -0.005,0 -0.01,0.004 -0.014,0.009 -0.001,0.001 -0.001,0.002 -0.002,0.004l-0.001 0.002 -0.001 0.002c-0.001,0.002 -0.003,0.005 -0.005,0.008zm-0.059 -0.036c-0.002,0.001 -0.004,0.003 -0.006,0.006 -0.003,0.003 -0.005,0.008 -0.008,0.015 -0.002,0.004 -0.003,0.009 -0.005,0.016l-0.002 0.008 -0.002 0.008c0.001,-0.007 0.001,-0.013 0.002,-0.017 0.001,-0.006 0.003,-0.012 0.005,-0.017 0.003,-0.007 0.005,-0.012 0.009,-0.015 0.002,-0.002 0.004,-0.004 0.007,-0.005 0.003,-0.001 0.005,-0.002 0.008,-0.002 -0.003,0 -0.005,0.001 -0.007,0.003zm0.068 0.095c-0.004,-0.002 -0.005,-0.005 -0.003,-0.007 0.001,-0.001 0.002,-0.002 0.005,-0.003l0.002 -0.001 0.002 -0.001c0.002,-0.001 0.003,-0.001 0.004,-0.002 0.008,-0.004 0.014,-0.008 0.018,-0.013 0.007,-0.007 0.012,-0.015 0.015,-0.025 0.003,-0.009 0.002,-0.017 -0,-0.025 -0.003,-0.007 -0.007,-0.013 -0.014,-0.016 -0.006,-0.004 -0.013,-0.004 -0.02,-0.002 -0.008,0.002 -0.014,0.008 -0.02,0.017 -0.009,0.015 -0.018,0.025 -0.026,0.031 -0.003,0.002 -0.006,0.003 -0.007,0.002 -0.001,-0.001 -0.001,-0.004 0.001,-0.008 0.007,-0.016 0.009,-0.03 0.007,-0.04 -0.002,-0.008 -0.008,-0.014 -0.016,-0.016 -0.017,-0.004 -0.03,0.005 -0.04,0.028 -0.008,0.018 -0.012,0.045 -0.015,0.08 -0.002,0.035 -0.001,0.064 0.005,0.085 0.006,0.026 0.017,0.039 0.033,0.038 0.015,-0.001 0.023,-0.012 0.026,-0.035 0.001,-0.008 0.001,-0.016 0,-0.026 -0,-0.003 -0.001,-0.007 -0.001,-0.01 -0,-0.001 -0,-0.003 -0,-0.004l-0 -0.001 -0 -0.001 0 -0c-0,-0.003 -0,-0.005 0.001,-0.006 0.001,-0.001 0.003,-0.001 0.005,0.001 0.005,0.005 0.011,0.018 0.016,0.037 0.003,0.013 0.008,0.023 0.013,0.031 0.006,0.007 0.012,0.012 0.019,0.015 0.007,0.002 0.013,0.002 0.02,-0 0.006,-0.003 0.012,-0.008 0.016,-0.015 0.005,-0.008 0.007,-0.017 0.008,-0.027 0,-0.009 -0.002,-0.019 -0.006,-0.029 -0.009,-0.021 -0.025,-0.038 -0.047,-0.052zm0.17 0.056l-0.002 0.001c-0.002,0.001 -0.003,0.001 -0.005,0.001 -0.004,0.001 -0.007,0.001 -0.01,0 0.003,-0.001 0.006,-0.002 0.009,-0.003l0.002 -0.001 0.002 -0.001c0.002,-0.001 0.003,-0.001 0.005,-0.002 0.003,-0.001 0.007,-0.002 0.009,-0.002 0.004,-0.001 0.007,-0.001 0.009,0 -0.005,0.001 -0.011,0.003 -0.018,0.005l-0.002 0.001zm-0.044 -0.152c-0.005,0.001 -0.009,0.003 -0.012,0.005 -0.004,0.003 -0.008,0.006 -0.011,0.009 -0.003,0.003 -0.006,0.007 -0.008,0.012 -0.004,0.007 -0.007,0.016 -0.01,0.028 -0.001,0.005 -0.002,0.009 -0.003,0.015 -0,0.002 -0.001,0.005 -0.001,0.007l-0.001 0.008c0,-0.01 0.001,-0.02 0.003,-0.03 0.002,-0.011 0.005,-0.021 0.009,-0.029 0.003,-0.005 0.006,-0.009 0.009,-0.012 0.004,-0.004 0.008,-0.006 0.012,-0.009 0.004,-0.002 0.008,-0.004 0.013,-0.005 0.005,-0.001 0.009,-0.001 0.014,-0.001 -0.005,0 -0.01,0.001 -0.014,0.002zm0.029 0.087l0.001 -0c0.001,-0 0.002,-0.001 0.003,-0.001 0.002,-0 0.004,-0 0.005,0 0.002,0.001 0.003,0.002 0.004,0.003 -0.001,-0 -0.003,-0 -0.005,-0 -0.002,0 -0.003,0 -0.005,0l-0.001 0 -0.001 0c-0.001,0 -0.002,0 -0.003,0 -0.002,0 -0.004,-0 -0.005,-0.001l0.002 -0.001 0.002 -0.001 0.001 -0.001zm0.007 0.053c-0.005,0.002 -0.01,0.003 -0.013,0.001 -0.003,-0.001 -0.005,-0.004 -0.006,-0.007 -0.001,-0.003 -0.001,-0.006 0.001,-0.009 0.002,-0.003 0.004,-0.005 0.008,-0.005 0.011,-0.001 0.019,-0.004 0.024,-0.009 0.005,-0.005 0.007,-0.011 0.007,-0.018 -0,-0.007 -0.003,-0.012 -0.009,-0.015 -0.006,-0.003 -0.012,-0.004 -0.02,-0.002 -0.007,0.002 -0.011,-0 -0.013,-0.006 -0.001,-0.002 -0.001,-0.005 -0,-0.007 0.001,-0.003 0.002,-0.005 0.004,-0.006 0.003,-0.002 0.007,-0.004 0.013,-0.005 0.002,-0 0.005,-0.001 0.008,-0.001l0.004 -0 0.004 -0c0.007,-0.001 0.012,-0.002 0.015,-0.003 0.005,-0.002 0.009,-0.006 0.011,-0.011 0.003,-0.009 0.002,-0.017 -0.005,-0.026 -0.006,-0.008 -0.015,-0.015 -0.027,-0.02 -0.013,-0.005 -0.025,-0.007 -0.038,-0.005 -0.014,0.002 -0.026,0.008 -0.036,0.018 -0.009,0.009 -0.016,0.025 -0.021,0.045 -0.004,0.019 -0.006,0.04 -0.005,0.063 0.001,0.023 0.004,0.043 0.01,0.061 0.006,0.019 0.014,0.032 0.023,0.038 0.009,0.007 0.021,0.01 0.034,0.009 0.012,-0 0.025,-0.004 0.037,-0.01 0.012,-0.006 0.022,-0.013 0.03,-0.022 0.008,-0.009 0.013,-0.019 0.013,-0.028 0,-0.013 -0.004,-0.021 -0.014,-0.025 -0.01,-0.004 -0.023,-0.003 -0.04,0.004z"/>
  </g>
 </g>
</svg>
