<?xml version="1.0" encoding="UTF-8"?>
<!DOCTYPE svg PUBLIC "-//W3C//DTD SVG 1.1//EN" "http://www.w3.org/Graphics/SVG/1.1/DTD/svg11.dtd">
<!-- Creator: CorelDRAW -->
<svg xmlns="http://www.w3.org/2000/svg" xml:space="preserve" width="28.8299mm" height="9.2858mm" version="1.1" style="shape-rendering:geometricPrecision; text-rendering:geometricPrecision; image-rendering:optimizeQuality; fill-rule:evenodd; clip-rule:evenodd"
viewBox="0 0 47.56 15.32"
 xmlns:xlink="http://www.w3.org/1999/xlink"
 xmlns:xodm="http://www.corel.com/coreldraw/odm/2003">
 <defs>
  <style type="text/css">
   <![CDATA[
    .fil0 {fill:#969677;fill-rule:nonzero}
    .fil1 {fill:white;fill-rule:nonzero}
   ]]>
  </style>
 </defs>
 <g id="Слой_x0020_1">
  <metadata id="CorelCorpID_0Corel-Layer"/>
  <path class="fil0" d="M3.19 5.75c-0.03,0 -0.07,0 -0.12,0.01l-0.06 0.01 -0.06 0c0.07,-0.06 0.15,-0.09 0.24,-0.09 0.05,0 0.09,0.01 0.13,0.02 0.04,0.02 0.08,0.05 0.1,0.08 -0.08,-0.03 -0.16,-0.04 -0.23,-0.04zm-1.99 -1.23c-0.05,0.06 -0.1,0.11 -0.15,0.17 -0.11,0.13 -0.19,0.25 -0.25,0.37 -0.08,0.13 -0.14,0.27 -0.17,0.42 -0.03,0.14 -0.05,0.3 -0.05,0.46l-0.02 -0.12 -0 -0.06 0 -0.06 0 -0.06 0 -0.06 0.01 -0.06 0.01 -0.06c0.03,-0.15 0.08,-0.3 0.16,-0.44 0.08,-0.14 0.17,-0.26 0.27,-0.37 0.05,-0.06 0.11,-0.11 0.16,-0.16l0.09 -0.07c0.03,-0.03 0.06,-0.05 0.09,-0.06l-0.08 0.08 -0.08 0.08zm0.35 -2.43c-0.07,0.03 -0.13,0.06 -0.19,0.1 -0.13,0.07 -0.25,0.16 -0.35,0.25 -0.11,0.09 -0.21,0.2 -0.31,0.32 -0.05,0.06 -0.09,0.13 -0.12,0.19 -0.04,0.07 -0.06,0.15 -0.07,0.22 -0,-0.13 0.04,-0.28 0.15,-0.44 0.08,-0.13 0.18,-0.24 0.3,-0.35 0.12,-0.1 0.25,-0.18 0.38,-0.24 0.07,-0.03 0.14,-0.06 0.2,-0.08 0.08,-0.02 0.15,-0.04 0.21,-0.05l-0.1 0.04c-0.04,0.01 -0.07,0.03 -0.1,0.04zm1.31 3.41c-0.2,0.08 -0.38,0.12 -0.54,0.1 -0.14,-0.01 -0.22,-0.04 -0.25,-0.1 -0.01,-0.03 -0.02,-0.06 -0.02,-0.09 -0,-0.04 0.01,-0.09 0.03,-0.13 0.06,-0.12 0.19,-0.26 0.4,-0.4 0.28,-0.18 0.51,-0.42 0.7,-0.7 0.18,-0.27 0.3,-0.56 0.35,-0.86 0.06,-0.31 0.03,-0.59 -0.07,-0.83 -0.11,-0.27 -0.3,-0.48 -0.56,-0.62 -0.32,-0.17 -0.66,-0.23 -1.02,-0.18 -0.32,0.05 -0.62,0.17 -0.9,0.37 -0.27,0.19 -0.47,0.42 -0.6,0.66 -0.13,0.25 -0.16,0.48 -0.09,0.67 0.07,0.19 0.21,0.3 0.41,0.33 0.21,0.03 0.45,-0.02 0.75,-0.17 0.16,-0.08 0.27,-0.13 0.34,-0.15 0.07,-0.01 0.11,-0 0.15,0.04 0.07,0.08 -0.01,0.2 -0.26,0.35 -0.46,0.29 -0.8,0.6 -1.03,0.95 -0.29,0.44 -0.38,0.91 -0.27,1.4 0.08,0.35 0.3,0.6 0.68,0.77 0.3,0.13 0.69,0.2 1.16,0.2 0.47,0 0.85,-0.07 1.15,-0.21 0.31,-0.14 0.48,-0.34 0.53,-0.6 0.03,-0.13 0.02,-0.25 -0.02,-0.38 -0.04,-0.13 -0.1,-0.24 -0.19,-0.33 -0.1,-0.1 -0.21,-0.16 -0.34,-0.18 -0.15,-0.02 -0.3,-0 -0.47,0.07z"/>
  <path id="_1" class="fil0" d="M6.48 5.3c-0.04,0.09 -0.09,0.15 -0.15,0.21 -0.07,0.06 -0.14,0.09 -0.22,0.1 0.13,-0.07 0.24,-0.19 0.31,-0.34 0.06,-0.12 0.09,-0.27 0.12,-0.47 0.04,0.17 0.02,0.34 -0.05,0.5zm-0.45 0.02c-0.09,0.03 -0.17,0 -0.25,-0.08 -0.08,-0.08 -0.14,-0.2 -0.17,-0.34 -0.03,-0.15 -0.02,-0.28 0.02,-0.4 0.04,-0.12 0.11,-0.2 0.19,-0.23 0.09,-0.03 0.17,0 0.25,0.08 0.08,0.08 0.14,0.2 0.17,0.34 0.03,0.15 0.02,0.28 -0.02,0.4 -0.04,0.13 -0.11,0.2 -0.19,0.23zm-1.08 -2.75c-0.1,0.15 -0.19,0.35 -0.27,0.58 -0.06,0.19 -0.11,0.4 -0.15,0.64 0,-0.09 0.01,-0.2 0.03,-0.33 0.02,-0.11 0.04,-0.22 0.07,-0.32 0.06,-0.23 0.15,-0.43 0.26,-0.61 0.13,-0.2 0.28,-0.35 0.46,-0.44 0.09,-0.05 0.19,-0.08 0.29,-0.11 0.11,-0.02 0.21,-0.02 0.31,-0.02 -0.23,0.02 -0.42,0.08 -0.58,0.17 -0.17,0.1 -0.31,0.25 -0.43,0.44zm1.4 -0.87c-0.64,-0.13 -1.16,0.04 -1.55,0.53 -0.34,0.43 -0.53,1.02 -0.56,1.76 -0.03,0.72 0.09,1.38 0.36,1.96 0.29,0.64 0.69,1.01 1.2,1.13 0.48,0.11 0.9,-0.08 1.28,-0.57 0.34,-0.45 0.57,-1.03 0.67,-1.75 0.11,-0.74 0.05,-1.38 -0.16,-1.94 -0.25,-0.63 -0.66,-1 -1.23,-1.12z"/>
  <path id="_2" class="fil0" d="M11.11 5.75c-0.03,0 -0.07,0 -0.12,0.01l-0.06 0.01 -0.06 0c0.07,-0.06 0.15,-0.09 0.24,-0.09 0.05,0 0.09,0.01 0.13,0.02 0.04,0.02 0.08,0.05 0.1,0.08 -0.08,-0.03 -0.16,-0.04 -0.23,-0.04zm-1.99 -1.23c-0.05,0.06 -0.1,0.11 -0.15,0.17 -0.11,0.13 -0.19,0.25 -0.25,0.37 -0.08,0.13 -0.14,0.27 -0.17,0.42 -0.03,0.14 -0.05,0.3 -0.05,0.46l-0.02 -0.12 -0 -0.06 0 -0.06 0 -0.06 0 -0.06 0.01 -0.06 0.01 -0.06c0.03,-0.15 0.08,-0.3 0.16,-0.44 0.08,-0.14 0.17,-0.26 0.27,-0.37 0.05,-0.06 0.11,-0.11 0.16,-0.16l0.09 -0.07c0.03,-0.03 0.06,-0.05 0.09,-0.06l-0.08 0.08 -0.08 0.08zm0.35 -2.43c-0.07,0.03 -0.13,0.06 -0.19,0.1 -0.13,0.07 -0.25,0.16 -0.35,0.25 -0.11,0.09 -0.21,0.2 -0.31,0.32 -0.05,0.06 -0.09,0.13 -0.12,0.19 -0.04,0.07 -0.06,0.15 -0.07,0.22 -0,-0.13 0.04,-0.28 0.15,-0.44 0.08,-0.13 0.18,-0.24 0.3,-0.35 0.12,-0.1 0.25,-0.18 0.38,-0.24 0.07,-0.03 0.14,-0.06 0.2,-0.08 0.08,-0.02 0.15,-0.04 0.21,-0.05l-0.1 0.04c-0.04,0.01 -0.07,0.03 -0.1,0.04zm1.31 3.41c-0.2,0.08 -0.38,0.12 -0.54,0.1 -0.14,-0.01 -0.22,-0.04 -0.25,-0.1 -0.01,-0.03 -0.02,-0.06 -0.02,-0.09 -0,-0.04 0.01,-0.09 0.03,-0.13 0.06,-0.12 0.19,-0.26 0.4,-0.4 0.28,-0.18 0.51,-0.42 0.7,-0.7 0.18,-0.27 0.3,-0.56 0.35,-0.86 0.06,-0.31 0.03,-0.59 -0.07,-0.83 -0.11,-0.27 -0.3,-0.48 -0.56,-0.62 -0.32,-0.17 -0.66,-0.23 -1.02,-0.18 -0.32,0.05 -0.62,0.17 -0.9,0.37 -0.27,0.19 -0.47,0.42 -0.6,0.66 -0.13,0.25 -0.16,0.48 -0.09,0.67 0.07,0.19 0.21,0.3 0.41,0.33 0.21,0.03 0.45,-0.02 0.75,-0.17 0.16,-0.08 0.27,-0.13 0.34,-0.15 0.07,-0.01 0.11,-0 0.15,0.04 0.07,0.08 -0.01,0.2 -0.26,0.35 -0.46,0.29 -0.8,0.6 -1.03,0.95 -0.29,0.44 -0.38,0.91 -0.27,1.4 0.08,0.35 0.3,0.6 0.68,0.77 0.3,0.13 0.69,0.2 1.16,0.2 0.47,0 0.85,-0.07 1.15,-0.21 0.31,-0.14 0.48,-0.34 0.53,-0.6 0.03,-0.13 0.02,-0.25 -0.02,-0.38 -0.04,-0.13 -0.1,-0.24 -0.19,-0.33 -0.1,-0.1 -0.21,-0.16 -0.34,-0.18 -0.15,-0.02 -0.3,-0 -0.47,0.07z"/>
  <path id="_3" class="fil0" d="M18.11 4.1c-0.05,0.01 -0.11,0.03 -0.16,0.05l-0.04 0.02 -0.04 0.02c-0.03,0.02 -0.06,0.03 -0.09,0.03 -0.06,0.02 -0.12,0.02 -0.18,0.02l0.08 -0.03c0.03,-0.01 0.06,-0.02 0.08,-0.04l0.04 -0.02 0.04 -0.02c0.03,-0.02 0.05,-0.03 0.08,-0.05 0.06,-0.03 0.12,-0.04 0.18,-0.04 0.07,-0 0.13,0.01 0.17,0.05 -0.05,-0.01 -0.11,-0.01 -0.17,0zm-1.61 0.11c-0.05,0 -0.1,0.01 -0.14,0.01 -0.06,0 -0.1,0.01 -0.13,0.02 -0.03,0.01 -0.04,0.02 -0.06,0.03 -0.01,0.01 -0.02,0.03 -0.04,0.06 -0,-0.03 0,-0.06 0.01,-0.08 0.01,-0.02 0.03,-0.04 0.06,-0.06 0.04,-0.02 0.09,-0.03 0.15,-0.04 0.06,-0.01 0.11,-0 0.15,0 0.06,0.01 0.1,0.02 0.14,0.03 -0.04,0.01 -0.09,0.02 -0.15,0.02zm1.26 -0.28c-0.1,0.06 -0.26,0.08 -0.47,0.07 -0.07,-0.01 -0.17,-0.02 -0.29,-0.03l-0.15 -0.01c-0.06,-0.01 -0.11,-0.01 -0.15,-0.02 -0.23,-0.02 -0.41,-0.01 -0.52,0.03 -0.15,0.05 -0.24,0.17 -0.27,0.34 -0.03,0.22 0.06,0.41 0.27,0.57 0.2,0.15 0.45,0.25 0.78,0.31 0.32,0.06 0.62,0.05 0.9,-0 0.31,-0.06 0.53,-0.18 0.67,-0.35 0.1,-0.12 0.15,-0.26 0.16,-0.41 0,-0.14 -0.03,-0.27 -0.11,-0.39 -0.08,-0.11 -0.19,-0.18 -0.33,-0.21 -0.15,-0.03 -0.31,0.01 -0.49,0.1z"/>
  <path id="_4" class="fil0" d="M20.31 2.02c-0.16,0.03 -0.3,0.05 -0.4,0.09 -0.15,0.05 -0.28,0.1 -0.37,0.17 -0.07,0.05 -0.12,0.1 -0.15,0.14 -0.04,0.05 -0.06,0.12 -0.06,0.21 -0.02,-0.08 -0.01,-0.15 0.03,-0.22 0.03,-0.06 0.08,-0.12 0.15,-0.17 0.09,-0.07 0.22,-0.14 0.38,-0.19 0.26,-0.08 0.54,-0.1 0.83,-0.07 -0.15,0.02 -0.29,0.03 -0.41,0.05zm0.67 -0.34c-0.57,-0.03 -1.03,0.04 -1.39,0.2 -0.37,0.18 -0.55,0.43 -0.52,0.76 0.01,0.18 0.09,0.32 0.22,0.4 0.09,0.06 0.23,0.1 0.42,0.13l0.12 0.01 0.11 0.01c0.09,0.01 0.16,0.02 0.21,0.03 0.14,0.03 0.23,0.1 0.26,0.19 0.02,0.06 -0,0.39 -0.06,0.99 -0.03,0.31 -0.05,0.57 -0.06,0.79 -0.01,0.31 -0.01,0.58 0.01,0.8 0.03,0.34 0.14,0.62 0.33,0.84 0.2,0.23 0.43,0.32 0.71,0.28 0.5,-0.07 0.69,-0.62 0.55,-1.63 -0.07,-0.53 -0.11,-0.99 -0.11,-1.37 -0,-0.4 0.03,-0.64 0.11,-0.71 0.05,-0.04 0.14,-0.07 0.27,-0.07 0.04,0 0.1,0 0.18,0l0.09 0 0.09 -0c0.15,-0 0.27,-0.03 0.36,-0.07 0.11,-0.06 0.19,-0.16 0.23,-0.29 0.05,-0.17 0.02,-0.34 -0.07,-0.49 -0.09,-0.15 -0.24,-0.28 -0.44,-0.4 -0.41,-0.24 -0.95,-0.37 -1.6,-0.41z"/>
  <path id="_5" class="fil0" d="M26.21 2.28c-0.06,0.08 -0.12,0.17 -0.19,0.27 -0.11,0.19 -0.2,0.39 -0.28,0.61l-0.06 0.16 -0.06 0.16c-0.05,0.14 -0.08,0.25 -0.11,0.32 -0.06,0.14 -0.11,0.24 -0.16,0.31 -0.04,0.05 -0.08,0.08 -0.13,0.1 -0.04,0.02 -0.1,0.03 -0.16,0.02 0.06,-0 0.11,-0.01 0.15,-0.03 0.04,-0.02 0.08,-0.06 0.12,-0.11 0.05,-0.06 0.09,-0.16 0.14,-0.3l0.05 -0.16 0.05 -0.16c0.04,-0.13 0.08,-0.24 0.11,-0.33 0.09,-0.24 0.19,-0.44 0.3,-0.61 0.15,-0.23 0.31,-0.39 0.47,-0.47 -0.09,0.06 -0.16,0.14 -0.23,0.23zm-2.32 0.88c-0.03,0.15 -0.06,0.34 -0.09,0.56l-0.03 0.28 -0.03 0.28c-0.02,-0.55 0.04,-1.05 0.18,-1.48 0.03,-0.09 0.05,-0.16 0.08,-0.23 0.04,-0.09 0.08,-0.17 0.12,-0.23 0.11,-0.17 0.25,-0.25 0.39,-0.24 -0.18,0.02 -0.33,0.16 -0.44,0.42 -0.04,0.1 -0.08,0.21 -0.11,0.34 -0.01,0.05 -0.03,0.1 -0.04,0.16l-0.02 0.08 -0.01 0.04 -0.01 0.03zm3.22 -1.36c-0.28,-0.19 -0.58,-0.17 -0.87,0.05 -0.24,0.18 -0.46,0.46 -0.64,0.86 -0.06,0.13 -0.12,0.27 -0.18,0.44 -0.02,0.06 -0.04,0.13 -0.07,0.21l-0.03 0.1 -0.01 0.05 -0.02 0.05c-0.05,0.14 -0.08,0.24 -0.11,0.29 -0.03,0.07 -0.07,0.11 -0.1,0.11 -0.06,-0.01 -0.09,-0.06 -0.09,-0.15 -0,-0.09 0.01,-0.28 0.05,-0.59 0.08,-0.56 0.04,-0.95 -0.1,-1.18 -0.11,-0.18 -0.29,-0.25 -0.54,-0.22 -0.3,0.04 -0.54,0.35 -0.71,0.92 -0.17,0.55 -0.24,1.22 -0.22,2.02 0.04,1.46 0.44,2.24 1.19,2.36 0.22,0.03 0.44,-0.03 0.66,-0.17 0.21,-0.14 0.38,-0.32 0.52,-0.56 0.13,-0.21 0.23,-0.41 0.32,-0.59 0.03,-0.07 0.06,-0.14 0.09,-0.21 0.02,-0.04 0.04,-0.09 0.06,-0.15 0.04,-0.09 0.06,-0.15 0.07,-0.16 0.02,-0.02 0.04,-0.03 0.07,-0.03 0.03,0.01 0.03,0.12 0.01,0.32l-0.01 0.07 -0.01 0.07c-0.01,0.06 -0.01,0.12 -0.02,0.16 -0.01,0.13 -0.02,0.25 -0.02,0.35 -0.01,0.62 0.19,0.93 0.61,0.93 0.27,-0 0.48,-0.25 0.63,-0.75 0.13,-0.44 0.2,-1.01 0.2,-1.68 0,-0.66 -0.06,-1.26 -0.19,-1.8 -0.14,-0.58 -0.32,-0.95 -0.55,-1.1z"/>
  <path id="_6" class="fil0" d="M32.05 5.05c-0.05,0.04 -0.1,0.07 -0.15,0.08 -0.06,0.02 -0.11,0.02 -0.17,0 0.11,-0.03 0.2,-0.08 0.28,-0.15 0.07,-0.06 0.14,-0.14 0.21,-0.25 -0.02,0.12 -0.07,0.22 -0.17,0.31zm-0.38 -0.22c-0.05,-0.02 -0.09,-0.07 -0.11,-0.14 -0.02,-0.07 -0.01,-0.14 0.01,-0.22 0.03,-0.08 0.07,-0.14 0.13,-0.18 0.06,-0.04 0.11,-0.05 0.17,-0.02 0.05,0.02 0.09,0.07 0.11,0.14 0.02,0.07 0.01,0.15 -0.02,0.22 -0.03,0.08 -0.07,0.13 -0.13,0.18 -0.06,0.04 -0.11,0.05 -0.17,0.02zm-0.56 -2.05c-0.09,0.13 -0.2,0.31 -0.32,0.53 -0.04,0.08 -0.09,0.17 -0.15,0.27l-0.15 0.28c0.07,-0.18 0.15,-0.38 0.25,-0.58 0.09,-0.19 0.2,-0.37 0.31,-0.55 0.14,-0.2 0.27,-0.37 0.39,-0.49l0.06 -0.05c0.02,-0.02 0.04,-0.04 0.06,-0.05l0.06 -0.05 0.06 -0.04c0.11,-0.06 0.21,-0.09 0.28,-0.09 -0.08,0.01 -0.17,0.05 -0.27,0.12l-0.06 0.05 -0.06 0.05c-0.02,0.01 -0.03,0.03 -0.05,0.05l-0.05 0.06c-0.12,0.14 -0.24,0.3 -0.37,0.49zm0.93 -1.1c-0.3,-0.05 -0.65,0.18 -1.03,0.68 -0.34,0.46 -0.65,1.04 -0.92,1.75 -0.27,0.71 -0.43,1.33 -0.47,1.88 -0.05,0.6 0.06,0.96 0.32,1.07 0.2,0.08 0.39,0.08 0.58,-0.01 0.14,-0.07 0.29,-0.19 0.45,-0.37 0.03,-0.04 0.06,-0.08 0.1,-0.12l0.09 -0.11c0.08,-0.1 0.13,-0.17 0.17,-0.21 0.12,-0.14 0.23,-0.21 0.31,-0.21 0.09,0 0.2,0.07 0.32,0.2 0.04,0.04 0.1,0.11 0.17,0.2l0.1 0.11 0.09 0.11c0.16,0.17 0.3,0.28 0.43,0.35 0.17,0.08 0.34,0.08 0.51,-0.01 0.2,-0.1 0.31,-0.42 0.34,-0.97 0.03,-0.51 -0.03,-1.1 -0.16,-1.75 -0.14,-0.68 -0.32,-1.25 -0.55,-1.72 -0.27,-0.52 -0.55,-0.81 -0.86,-0.87z"/>
  <path id="_7" class="fil0" d="M36.32 3.94c-0.03,0.07 -0.07,0.14 -0.12,0.2 -0.05,0.06 -0.11,0.11 -0.18,0.13 -0.07,0.03 -0.14,0.04 -0.21,0.02 0.07,-0.01 0.13,-0.04 0.19,-0.08 0.06,-0.04 0.11,-0.08 0.15,-0.13 0.09,-0.1 0.16,-0.22 0.2,-0.37 0.01,0.07 -0,0.15 -0.03,0.22zm-0.64 -0.32c0.04,-0.08 0.08,-0.13 0.14,-0.16 0.06,-0.03 0.11,-0.04 0.16,-0.01 0.05,0.03 0.08,0.08 0.09,0.15 0.01,0.07 -0,0.15 -0.04,0.22 -0.03,0.08 -0.08,0.13 -0.14,0.16 -0.06,0.03 -0.12,0.04 -0.17,0.01 -0.05,-0.03 -0.08,-0.08 -0.09,-0.15 -0.01,-0.07 0,-0.15 0.03,-0.22zm-0.54 -1.51c-0.16,0.08 -0.3,0.19 -0.41,0.32 -0.11,0.12 -0.2,0.28 -0.28,0.46 -0.06,0.14 -0.12,0.32 -0.17,0.53 0.01,-0.08 0.02,-0.17 0.05,-0.28 0.02,-0.1 0.05,-0.19 0.08,-0.27 0.07,-0.18 0.16,-0.35 0.28,-0.49 0.13,-0.15 0.27,-0.26 0.44,-0.33 0.08,-0.04 0.17,-0.06 0.26,-0.08 0.1,-0.02 0.18,-0.02 0.26,-0.02 -0.19,0.03 -0.36,0.08 -0.5,0.15zm0.66 -0.45c-0.47,-0.01 -0.86,0.14 -1.16,0.42 -0.27,0.25 -0.47,0.61 -0.58,1.07 -0.1,0.42 -0.13,0.88 -0.08,1.38 0.05,0.49 0.16,0.94 0.34,1.35 0.17,0.4 0.36,0.71 0.58,0.93 0.19,0.19 0.38,0.29 0.56,0.31 0.17,0.02 0.32,-0.04 0.44,-0.16 0.12,-0.13 0.2,-0.3 0.22,-0.51 0.02,-0.15 0.02,-0.31 -0.01,-0.5 -0.01,-0.05 -0.02,-0.13 -0.04,-0.22l-0.02 -0.11c-0.01,-0.04 -0.01,-0.07 -0.02,-0.1 -0.02,-0.15 -0.02,-0.26 0.01,-0.35 0.03,-0.1 0.1,-0.18 0.22,-0.24 0.38,-0.19 0.66,-0.48 0.85,-0.85 0.18,-0.34 0.25,-0.71 0.21,-1.08 -0.04,-0.38 -0.19,-0.69 -0.45,-0.93 -0.28,-0.26 -0.64,-0.4 -1.09,-0.41z"/>
  <path id="_8" class="fil0" d="M40.03 5.47c-0.04,0.07 -0.1,0.12 -0.17,0.16 -0.07,0.04 -0.14,0.05 -0.21,0.03 0.14,-0.03 0.25,-0.1 0.33,-0.23 0.03,-0.05 0.06,-0.12 0.08,-0.19 0.01,-0.07 0.02,-0.14 0.02,-0.22 0.03,0.07 0.04,0.15 0.03,0.23 -0,0.08 -0.03,0.16 -0.07,0.22zm-0.62 -0.29c-0.03,-0.07 -0.05,-0.15 -0.03,-0.22 0.01,-0.07 0.04,-0.12 0.09,-0.15 0.05,-0.03 0.11,-0.02 0.17,0.01 0.06,0.03 0.11,0.09 0.14,0.16 0.04,0.08 0.05,0.15 0.03,0.22 -0.01,0.07 -0.04,0.12 -0.09,0.15 -0.05,0.03 -0.1,0.02 -0.16,-0.01 -0.06,-0.03 -0.11,-0.09 -0.14,-0.16zm-0.33 -3.16c-0.04,0.02 -0.09,0.06 -0.15,0.1 -0.08,0.07 -0.16,0.16 -0.24,0.27 -0.06,0.08 -0.13,0.18 -0.21,0.31 -0.03,0.04 -0.06,0.1 -0.1,0.16l-0.09 0.16c0.05,-0.14 0.09,-0.26 0.14,-0.35 0.06,-0.12 0.12,-0.23 0.2,-0.33 0.09,-0.11 0.17,-0.2 0.27,-0.27 0.12,-0.09 0.23,-0.13 0.34,-0.12 -0.06,0.01 -0.11,0.03 -0.17,0.06zm0.91 1.84c-0.12,-0.04 -0.19,-0.11 -0.23,-0.21 -0.03,-0.08 -0.03,-0.19 -0,-0.35 0,-0.03 0.01,-0.06 0.02,-0.11l0.02 -0.11c0.02,-0.1 0.03,-0.18 0.04,-0.24 0.03,-0.19 0.03,-0.37 0.02,-0.51 -0.03,-0.21 -0.1,-0.38 -0.22,-0.51 -0.12,-0.13 -0.27,-0.18 -0.44,-0.16 -0.19,0.02 -0.37,0.12 -0.56,0.31 -0.21,0.21 -0.41,0.52 -0.58,0.92 -0.18,0.42 -0.29,0.87 -0.34,1.35 -0.05,0.5 -0.03,0.96 0.08,1.38 0.11,0.46 0.31,0.81 0.58,1.07 0.31,0.28 0.69,0.42 1.16,0.42 0.45,-0.01 0.82,-0.15 1.11,-0.44 0.27,-0.26 0.43,-0.59 0.49,-0.98 0.05,-0.39 -0.01,-0.76 -0.2,-1.09 -0.2,-0.36 -0.51,-0.61 -0.93,-0.75zm1.46 -1.76c-0.04,0.04 -0.07,0.09 -0.09,0.14 -0.02,0.05 -0.03,0.11 -0.03,0.18 -0,0.09 0,0.22 0.03,0.38l0.03 0.19 0.03 0.19c-0.05,-0.14 -0.09,-0.26 -0.12,-0.37 -0.03,-0.15 -0.05,-0.28 -0.05,-0.39 0.01,-0.08 0.02,-0.14 0.04,-0.2 0.03,-0.07 0.07,-0.13 0.11,-0.17 0.1,-0.08 0.21,-0.11 0.35,-0.09 -0.13,0.02 -0.23,0.06 -0.31,0.14zm1.23 0.21c-0.1,-0.2 -0.23,-0.36 -0.39,-0.47 -0.14,-0.1 -0.3,-0.16 -0.46,-0.17 -0.15,-0.01 -0.3,0.02 -0.43,0.08 -0.13,0.07 -0.23,0.17 -0.29,0.29 -0.11,0.24 -0.11,0.59 0.01,1.05 0.02,0.07 0.04,0.17 0.08,0.29l0.04 0.15 0.04 0.14c0.06,0.23 0.1,0.42 0.12,0.58 0.04,0.37 0.06,0.75 0.05,1.14 -0,0.12 -0.01,0.27 -0.02,0.44l-0 0.1 -0 0.1c-0,0.07 -0.01,0.13 -0.01,0.18 -0.01,0.24 0.01,0.41 0.04,0.51 0.04,0.12 0.13,0.2 0.26,0.24 0.25,0.06 0.48,-0.08 0.69,-0.44 0.18,-0.32 0.32,-0.76 0.42,-1.32 0.09,-0.54 0.13,-1.07 0.11,-1.6 -0.02,-0.56 -0.11,-0.98 -0.26,-1.28z"/>
  <path id="_9" class="fil0" d="M46.38 2.05c-0.03,0.01 -0.06,0.04 -0.09,0.08 -0.04,0.06 -0.07,0.14 -0.09,0.24 -0.03,0.14 -0.04,0.33 -0.03,0.54l0 0.07 0 0.07c0,0.06 0,0.1 -0,0.14 -0.01,0.1 -0.03,0.2 -0.07,0.28 -0.04,0.09 -0.09,0.17 -0.15,0.23 -0.07,0.07 -0.14,0.11 -0.22,0.14 0.16,-0.08 0.27,-0.21 0.33,-0.39 0.03,-0.09 0.04,-0.17 0.05,-0.26 0,-0.04 0,-0.08 0,-0.13l-0 -0.07 0 -0.07c-0,-0.23 0.01,-0.41 0.05,-0.56 0.03,-0.11 0.07,-0.2 0.12,-0.26 0.03,-0.04 0.07,-0.06 0.11,-0.08 0.03,-0.01 0.08,-0.02 0.13,-0.02 -0.05,0.01 -0.09,0.02 -0.12,0.04zm-2.36 0.1c-0.08,0.09 -0.14,0.21 -0.19,0.35 -0.04,0.11 -0.07,0.25 -0.11,0.4l-0.05 0.2 -0.05 0.21c0.01,-0.29 0.05,-0.56 0.14,-0.83 0.05,-0.15 0.12,-0.27 0.21,-0.37 0.05,-0.05 0.11,-0.09 0.17,-0.12 0.07,-0.03 0.13,-0.04 0.19,-0.03 -0.12,0.01 -0.23,0.08 -0.33,0.19zm2.47 -0.42c-0.24,0.01 -0.41,0.13 -0.5,0.35 -0.1,0.21 -0.14,0.54 -0.12,0.98 0.01,0.19 -0.03,0.34 -0.12,0.43 -0.07,0.08 -0.16,0.12 -0.28,0.11 -0.11,-0.01 -0.2,-0.06 -0.26,-0.16 -0.06,-0.1 -0.08,-0.23 -0.07,-0.39 0.04,-0.45 0,-0.78 -0.12,-1.01 -0.11,-0.2 -0.3,-0.32 -0.56,-0.37 -0.21,-0.04 -0.4,0.02 -0.57,0.16 -0.16,0.13 -0.28,0.33 -0.36,0.57 -0.15,0.47 -0.22,1.04 -0.23,1.68 -0.01,0.62 0.05,1.22 0.18,1.78 0.09,0.42 0.24,0.72 0.44,0.9 0.17,0.15 0.35,0.21 0.55,0.18 0.45,-0.07 0.65,-0.43 0.61,-1.07 -0.03,-0.47 0.06,-0.71 0.27,-0.71 0.11,0 0.19,0.04 0.25,0.13 0.08,0.11 0.11,0.3 0.1,0.55 -0.02,0.42 0.04,0.74 0.19,0.96 0.13,0.21 0.32,0.31 0.56,0.31 0.41,0 0.7,-0.28 0.87,-0.84 0.12,-0.41 0.2,-1.08 0.22,-2.02 0.02,-0.72 -0.06,-1.33 -0.25,-1.81 -0.2,-0.5 -0.46,-0.75 -0.8,-0.73z"/>
  <path id="_10" class="fil0" d="M14.5 5.47c-0.04,0.07 -0.1,0.13 -0.17,0.16 -0.07,0.04 -0.14,0.05 -0.21,0.03 0.14,-0.03 0.25,-0.11 0.33,-0.23 0.03,-0.05 0.05,-0.12 0.07,-0.19 0.01,-0.07 0.02,-0.14 0.02,-0.22 0.03,0.07 0.04,0.15 0.04,0.23 -0.01,0.08 -0.03,0.16 -0.07,0.22zm-0.62 -0.29c-0.03,-0.07 -0.05,-0.15 -0.04,-0.22 0.01,-0.07 0.04,-0.12 0.09,-0.15 0.05,-0.03 0.1,-0.02 0.16,0.01 0.06,0.03 0.11,0.09 0.14,0.16 0.04,0.07 0.05,0.15 0.04,0.22 -0.01,0.07 -0.04,0.12 -0.09,0.15 -0.05,0.03 -0.11,0.02 -0.16,-0.01 -0.06,-0.03 -0.11,-0.09 -0.14,-0.16zm-0.4 -3.11c-0.07,0.05 -0.13,0.11 -0.2,0.18 -0.11,0.12 -0.21,0.28 -0.31,0.46 -0.09,0.16 -0.17,0.33 -0.25,0.52 -0.06,0.15 -0.12,0.33 -0.19,0.55 0.03,-0.18 0.07,-0.37 0.14,-0.56 0.06,-0.17 0.13,-0.35 0.23,-0.53 0.11,-0.2 0.22,-0.35 0.34,-0.46 0.08,-0.08 0.15,-0.14 0.22,-0.18 0.1,-0.05 0.18,-0.08 0.26,-0.07 -0.08,0.01 -0.17,0.04 -0.25,0.1zm0.99 1.8c-0.11,-0.06 -0.19,-0.14 -0.22,-0.24 -0.02,-0.08 -0.02,-0.2 -0,-0.35 0,-0.03 0.01,-0.06 0.01,-0.1l0.02 -0.11c0.02,-0.09 0.03,-0.17 0.04,-0.22 0.03,-0.19 0.03,-0.35 0.01,-0.5 -0.03,-0.21 -0.1,-0.38 -0.22,-0.51 -0.12,-0.13 -0.27,-0.18 -0.44,-0.16 -0.19,0.02 -0.38,0.12 -0.56,0.31 -0.21,0.22 -0.4,0.52 -0.57,0.92 -0.18,0.42 -0.29,0.87 -0.34,1.35 -0.05,0.5 -0.03,0.96 0.08,1.38 0.11,0.46 0.31,0.81 0.58,1.07 0.31,0.28 0.69,0.42 1.16,0.42 0.45,-0.01 0.81,-0.14 1.08,-0.41 0.25,-0.24 0.4,-0.55 0.44,-0.93 0.04,-0.37 -0.03,-0.73 -0.2,-1.07 -0.19,-0.37 -0.48,-0.65 -0.85,-0.84z"/>
  <path id="_11" class="fil0" d="M5.18 12.23c-0.05,0.01 -0.11,0.03 -0.16,0.05l-0.04 0.02 -0.04 0.02c-0.03,0.02 -0.06,0.03 -0.09,0.03 -0.06,0.02 -0.12,0.02 -0.18,0.02l0.08 -0.03c0.03,-0.01 0.06,-0.02 0.08,-0.04l0.04 -0.02 0.04 -0.02c0.03,-0.02 0.05,-0.03 0.08,-0.05 0.06,-0.03 0.12,-0.04 0.18,-0.04 0.07,-0 0.13,0.01 0.17,0.05 -0.05,-0.01 -0.11,-0.01 -0.17,0zm-1.61 0.11c-0.05,0 -0.1,0.01 -0.14,0.01 -0.06,0 -0.1,0.01 -0.13,0.02 -0.03,0.01 -0.04,0.02 -0.06,0.03 -0.01,0.01 -0.02,0.03 -0.04,0.06 -0,-0.03 0,-0.06 0.01,-0.08 0.01,-0.02 0.03,-0.04 0.06,-0.06 0.04,-0.02 0.09,-0.03 0.15,-0.04 0.06,-0.01 0.11,-0 0.15,0 0.06,0.01 0.1,0.02 0.14,0.03 -0.04,0.01 -0.09,0.02 -0.15,0.02zm1.26 -0.28c-0.1,0.06 -0.26,0.08 -0.47,0.07 -0.07,-0.01 -0.17,-0.02 -0.29,-0.03l-0.15 -0.01c-0.06,-0.01 -0.11,-0.01 -0.15,-0.02 -0.23,-0.02 -0.41,-0.01 -0.52,0.03 -0.15,0.05 -0.24,0.17 -0.27,0.34 -0.03,0.22 0.06,0.41 0.27,0.57 0.2,0.15 0.45,0.25 0.78,0.31 0.32,0.06 0.62,0.05 0.9,-0 0.31,-0.06 0.53,-0.18 0.67,-0.35 0.1,-0.12 0.15,-0.26 0.16,-0.41 0,-0.14 -0.03,-0.27 -0.11,-0.39 -0.08,-0.11 -0.19,-0.18 -0.33,-0.21 -0.15,-0.03 -0.31,0.01 -0.49,0.1z"/>
  <path id="_12" class="fil0" d="M7.38 10.15c-0.16,0.03 -0.3,0.05 -0.4,0.09 -0.15,0.05 -0.28,0.1 -0.37,0.17 -0.07,0.05 -0.12,0.1 -0.15,0.14 -0.04,0.05 -0.06,0.12 -0.06,0.21 -0.02,-0.08 -0.01,-0.15 0.03,-0.22 0.03,-0.06 0.08,-0.12 0.15,-0.17 0.09,-0.07 0.22,-0.14 0.38,-0.19 0.26,-0.08 0.54,-0.1 0.83,-0.07 -0.15,0.02 -0.29,0.03 -0.41,0.05zm0.67 -0.34c-0.57,-0.03 -1.04,0.04 -1.39,0.2 -0.37,0.18 -0.55,0.43 -0.52,0.76 0.01,0.18 0.09,0.32 0.22,0.4 0.09,0.06 0.23,0.1 0.42,0.13l0.12 0.01 0.11 0.01c0.09,0.01 0.16,0.02 0.21,0.03 0.14,0.03 0.23,0.1 0.26,0.19 0.02,0.06 -0,0.39 -0.06,0.99 -0.03,0.31 -0.05,0.57 -0.06,0.79 -0.01,0.31 -0.01,0.58 0.01,0.8 0.03,0.34 0.14,0.62 0.33,0.84 0.2,0.23 0.43,0.32 0.71,0.28 0.5,-0.07 0.69,-0.62 0.55,-1.63 -0.07,-0.53 -0.11,-0.99 -0.11,-1.37 -0,-0.4 0.03,-0.64 0.11,-0.71 0.05,-0.04 0.14,-0.07 0.27,-0.07 0.04,0 0.1,0 0.18,0l0.09 0 0.09 -0c0.15,-0 0.27,-0.03 0.36,-0.07 0.11,-0.06 0.19,-0.16 0.23,-0.29 0.05,-0.17 0.02,-0.34 -0.07,-0.49 -0.09,-0.15 -0.24,-0.28 -0.44,-0.4 -0.41,-0.24 -0.95,-0.37 -1.6,-0.41z"/>
  <path id="_13" class="fil0" d="M13.28 10.41c-0.06,0.08 -0.12,0.17 -0.19,0.27 -0.11,0.19 -0.2,0.39 -0.28,0.61l-0.06 0.16 -0.05 0.16c-0.05,0.14 -0.08,0.25 -0.11,0.32 -0.06,0.14 -0.11,0.24 -0.16,0.31 -0.04,0.05 -0.08,0.08 -0.13,0.1 -0.04,0.02 -0.1,0.03 -0.16,0.02 0.06,-0 0.11,-0.01 0.15,-0.03 0.04,-0.02 0.08,-0.06 0.12,-0.11 0.05,-0.06 0.09,-0.16 0.14,-0.3l0.05 -0.16 0.05 -0.16c0.04,-0.13 0.08,-0.24 0.11,-0.33 0.09,-0.24 0.19,-0.44 0.3,-0.61 0.15,-0.23 0.31,-0.39 0.47,-0.47 -0.09,0.06 -0.16,0.14 -0.23,0.23zm-2.32 0.88c-0.03,0.15 -0.06,0.34 -0.09,0.56l-0.03 0.28 -0.03 0.28c-0.02,-0.55 0.04,-1.05 0.18,-1.48 0.03,-0.09 0.05,-0.16 0.08,-0.23 0.04,-0.09 0.08,-0.17 0.12,-0.23 0.11,-0.17 0.25,-0.25 0.39,-0.24 -0.18,0.02 -0.33,0.16 -0.44,0.42 -0.04,0.1 -0.08,0.21 -0.11,0.34 -0.01,0.05 -0.03,0.1 -0.04,0.16l-0.02 0.08 -0.01 0.04 -0.01 0.03zm3.22 -1.36c-0.28,-0.19 -0.58,-0.17 -0.87,0.05 -0.24,0.18 -0.46,0.46 -0.64,0.86 -0.06,0.13 -0.12,0.27 -0.18,0.44 -0.02,0.06 -0.04,0.13 -0.07,0.21l-0.03 0.1 -0.01 0.05 -0.02 0.05c-0.05,0.14 -0.08,0.24 -0.11,0.29 -0.03,0.07 -0.07,0.11 -0.1,0.11 -0.06,-0.01 -0.09,-0.06 -0.09,-0.15 -0,-0.09 0.01,-0.28 0.05,-0.59 0.08,-0.56 0.04,-0.95 -0.1,-1.18 -0.11,-0.18 -0.29,-0.25 -0.54,-0.22 -0.3,0.04 -0.54,0.35 -0.71,0.92 -0.17,0.55 -0.24,1.22 -0.22,2.02 0.04,1.46 0.44,2.24 1.19,2.36 0.22,0.03 0.44,-0.03 0.66,-0.17 0.21,-0.14 0.38,-0.32 0.52,-0.56 0.13,-0.21 0.23,-0.41 0.32,-0.59 0.03,-0.07 0.06,-0.14 0.09,-0.21 0.02,-0.04 0.04,-0.09 0.06,-0.15 0.04,-0.09 0.06,-0.15 0.07,-0.16 0.02,-0.02 0.04,-0.03 0.07,-0.03 0.03,0.01 0.03,0.12 0.01,0.32l-0.01 0.07 -0.01 0.07c-0.01,0.06 -0.01,0.12 -0.02,0.16 -0.01,0.13 -0.02,0.25 -0.02,0.35 -0.01,0.62 0.19,0.93 0.61,0.93 0.27,-0 0.48,-0.25 0.63,-0.75 0.13,-0.44 0.2,-1.01 0.2,-1.68 0,-0.66 -0.06,-1.26 -0.19,-1.8 -0.14,-0.58 -0.32,-0.95 -0.55,-1.1z"/>
  <path id="_14" class="fil0" d="M19.2 13.51c-0.04,0.09 -0.1,0.15 -0.17,0.19 -0.08,0.05 -0.15,0.06 -0.23,0.05 0.08,-0.02 0.15,-0.05 0.21,-0.09 0.06,-0.05 0.11,-0.11 0.14,-0.18 0.06,-0.13 0.07,-0.29 0.03,-0.48 0.04,0.07 0.07,0.16 0.07,0.25 0.01,0.09 -0.01,0.18 -0.05,0.26zm-0.65 -0.23c-0.04,-0.07 -0.05,-0.15 -0.05,-0.22 0.01,-0.07 0.04,-0.12 0.08,-0.16 0.05,-0.03 0.1,-0.03 0.16,0 0.06,0.03 0.11,0.08 0.15,0.16 0.04,0.07 0.05,0.15 0.05,0.22 -0.01,0.07 -0.03,0.13 -0.08,0.16 -0.05,0.03 -0.1,0.03 -0.17,0 -0.06,-0.03 -0.11,-0.08 -0.15,-0.16zm-0.31 -1.58c0.06,-0.02 0.11,-0.04 0.15,-0.06 0.05,-0.03 0.09,-0.07 0.13,-0.11 0.03,-0.04 0.07,-0.09 0.1,-0.14 0.03,-0.05 0.05,-0.1 0.07,-0.16 0.01,0.13 -0.03,0.25 -0.12,0.36 -0.05,0.05 -0.1,0.08 -0.15,0.11 -0.06,0.02 -0.12,0.03 -0.17,0.02zm-0.07 -0.55c0.03,-0.05 0.06,-0.09 0.1,-0.11 0.04,-0.02 0.08,-0.02 0.11,0 0.03,0.02 0.05,0.05 0.05,0.1 0,0.05 -0.01,0.1 -0.03,0.14 -0.03,0.05 -0.06,0.09 -0.1,0.11 -0.04,0.02 -0.08,0.02 -0.11,0 -0.03,-0.02 -0.05,-0.05 -0.05,-0.1 -0,-0.05 0.01,-0.1 0.03,-0.14zm-0.6 -0.68c-0.06,0.06 -0.11,0.14 -0.17,0.23 -0.09,0.14 -0.17,0.32 -0.25,0.53 -0.06,0.17 -0.11,0.36 -0.16,0.58 0.02,-0.2 0.06,-0.39 0.11,-0.59 0.06,-0.2 0.14,-0.39 0.24,-0.55 0.12,-0.19 0.25,-0.33 0.4,-0.43 0.09,-0.06 0.18,-0.1 0.26,-0.12 0.1,-0.02 0.19,-0.03 0.28,-0.03 -0.19,0.02 -0.36,0.08 -0.51,0.2 -0.08,0.06 -0.15,0.12 -0.21,0.19zm1.51 1.45c-0.04,-0.02 -0.05,-0.06 -0.02,-0.12 0.01,-0.02 0.03,-0.06 0.05,-0.11l0.02 -0.03 0.02 -0.03c0.01,-0.03 0.03,-0.05 0.04,-0.08 0.06,-0.14 0.11,-0.27 0.13,-0.4 0.04,-0.18 0.04,-0.37 0.01,-0.56 -0.03,-0.21 -0.14,-0.4 -0.34,-0.55 -0.19,-0.15 -0.41,-0.23 -0.66,-0.24 -0.27,-0.01 -0.53,0.08 -0.76,0.25 -0.27,0.2 -0.48,0.51 -0.63,0.93 -0.16,0.43 -0.25,0.9 -0.26,1.4 -0.01,0.52 0.05,0.99 0.19,1.42 0.15,0.47 0.38,0.83 0.68,1.08 0.34,0.28 0.74,0.4 1.22,0.37 0.45,-0.03 0.81,-0.19 1.08,-0.48 0.25,-0.26 0.38,-0.58 0.4,-0.97 0.02,-0.38 -0.06,-0.74 -0.26,-1.08 -0.21,-0.36 -0.52,-0.63 -0.91,-0.8z"/>
  <path id="_15" class="fil0" d="M22.96 13.6c-0.04,0.07 -0.1,0.12 -0.17,0.16 -0.07,0.04 -0.14,0.05 -0.21,0.03 0.14,-0.03 0.25,-0.1 0.33,-0.23 0.03,-0.05 0.06,-0.12 0.08,-0.19 0.01,-0.07 0.02,-0.14 0.02,-0.22 0.03,0.07 0.04,0.15 0.03,0.23 -0,0.08 -0.03,0.16 -0.07,0.22zm-0.62 -0.29c-0.03,-0.07 -0.05,-0.15 -0.03,-0.22 0.01,-0.07 0.04,-0.12 0.09,-0.15 0.05,-0.03 0.11,-0.02 0.16,0.01 0.06,0.03 0.11,0.09 0.14,0.16 0.04,0.08 0.05,0.15 0.03,0.22 -0.01,0.07 -0.04,0.12 -0.09,0.15 -0.05,0.03 -0.1,0.02 -0.16,-0.01 -0.06,-0.03 -0.11,-0.09 -0.14,-0.16zm-0.33 -3.16c-0.04,0.02 -0.09,0.06 -0.15,0.1 -0.08,0.07 -0.16,0.16 -0.24,0.27 -0.06,0.08 -0.13,0.18 -0.21,0.31 -0.03,0.04 -0.06,0.1 -0.1,0.16l-0.09 0.16c0.05,-0.14 0.09,-0.26 0.14,-0.35 0.06,-0.12 0.12,-0.23 0.2,-0.33 0.09,-0.11 0.17,-0.2 0.27,-0.27 0.12,-0.09 0.23,-0.13 0.34,-0.12 -0.06,0.01 -0.11,0.03 -0.16,0.06zm0.91 1.84c-0.12,-0.04 -0.19,-0.11 -0.23,-0.21 -0.03,-0.08 -0.03,-0.19 -0,-0.35 0,-0.03 0.01,-0.06 0.02,-0.11l0.02 -0.11c0.02,-0.1 0.03,-0.18 0.04,-0.24 0.03,-0.19 0.03,-0.37 0.02,-0.51 -0.02,-0.21 -0.1,-0.38 -0.22,-0.51 -0.12,-0.13 -0.27,-0.18 -0.45,-0.16 -0.19,0.02 -0.37,0.12 -0.56,0.31 -0.21,0.21 -0.41,0.52 -0.58,0.92 -0.18,0.42 -0.29,0.87 -0.34,1.35 -0.05,0.5 -0.03,0.96 0.08,1.38 0.11,0.46 0.31,0.81 0.58,1.07 0.31,0.28 0.69,0.42 1.16,0.42 0.45,-0.01 0.82,-0.15 1.11,-0.44 0.27,-0.26 0.43,-0.59 0.49,-0.98 0.05,-0.39 -0.01,-0.76 -0.2,-1.09 -0.2,-0.36 -0.51,-0.61 -0.93,-0.75zm1.46 -1.76c-0.04,0.04 -0.07,0.09 -0.09,0.14 -0.02,0.05 -0.03,0.11 -0.03,0.18 -0,0.09 0,0.22 0.03,0.38l0.03 0.19 0.03 0.19c-0.05,-0.14 -0.09,-0.26 -0.12,-0.37 -0.03,-0.15 -0.05,-0.28 -0.05,-0.39 0.01,-0.08 0.02,-0.14 0.04,-0.2 0.03,-0.07 0.07,-0.13 0.11,-0.17 0.1,-0.08 0.21,-0.11 0.35,-0.09 -0.13,0.02 -0.23,0.06 -0.31,0.14zm1.23 0.21c-0.1,-0.2 -0.23,-0.36 -0.39,-0.47 -0.14,-0.1 -0.3,-0.16 -0.46,-0.17 -0.15,-0.01 -0.3,0.02 -0.43,0.08 -0.13,0.07 -0.23,0.17 -0.29,0.29 -0.11,0.24 -0.11,0.59 0.01,1.05 0.02,0.07 0.04,0.17 0.08,0.29l0.04 0.15 0.04 0.14c0.06,0.23 0.1,0.42 0.12,0.58 0.04,0.37 0.06,0.75 0.05,1.14 -0,0.12 -0.01,0.27 -0.02,0.44l-0 0.1 -0 0.1c-0,0.07 -0.01,0.13 -0.01,0.18 -0.01,0.24 0.01,0.41 0.04,0.51 0.04,0.12 0.13,0.2 0.26,0.24 0.25,0.06 0.48,-0.08 0.69,-0.44 0.18,-0.32 0.32,-0.76 0.42,-1.32 0.09,-0.54 0.13,-1.07 0.11,-1.6 -0.02,-0.56 -0.11,-0.98 -0.26,-1.28z"/>
  <path id="_16" class="fil0" d="M27.51 10.27c-0.02,0.01 -0.05,0.02 -0.07,0.04l-0.07 0.04 -0.07 0.04c-0.03,0.02 -0.05,0.03 -0.07,0.05 -0.08,0.05 -0.16,0.12 -0.25,0.21 -0.1,0.1 -0.16,0.19 -0.2,0.26 -0.11,0.18 -0.19,0.39 -0.22,0.63 -0.01,0.05 -0.02,0.11 -0.02,0.17l-0.01 0.18c-0,0.05 -0.01,0.11 -0.01,0.18l-0 0.18c-0.03,-0.25 -0.03,-0.48 -0.01,-0.71 0.02,-0.25 0.1,-0.47 0.22,-0.67l0.05 -0.07 0.05 -0.07c0.01,-0.02 0.03,-0.04 0.05,-0.06l0.03 -0.03 0.03 -0.03c0.11,-0.1 0.19,-0.17 0.26,-0.21 0.18,-0.12 0.38,-0.2 0.61,-0.24l-0.08 0.03 -0.08 0.03c-0.05,0.02 -0.1,0.04 -0.15,0.06zm2.47 0.71c-0.2,-0.46 -0.5,-0.79 -0.91,-0.99 -0.37,-0.19 -0.77,-0.24 -1.2,-0.16 -0.42,0.08 -0.78,0.26 -1.08,0.56 -0.32,0.32 -0.5,0.71 -0.54,1.17 -0.08,0.86 0.05,1.71 0.37,2.53 0.14,0.37 0.3,0.66 0.48,0.87 0.19,0.22 0.38,0.32 0.56,0.29 0.26,-0.04 0.42,-0.2 0.47,-0.5 0.06,-0.33 0.02,-0.91 -0.12,-1.73 -0.11,-0.65 -0.05,-0.99 0.2,-1.03 0.14,-0.02 0.25,0.1 0.32,0.34 0.07,0.23 0.1,0.52 0.09,0.87 -0.03,0.77 0.05,1.31 0.23,1.62 0.13,0.23 0.33,0.34 0.59,0.32 0.22,-0.01 0.41,-0.17 0.56,-0.46 0.14,-0.27 0.24,-0.63 0.29,-1.07 0.05,-0.44 0.05,-0.89 0,-1.35 -0.06,-0.49 -0.16,-0.92 -0.33,-1.29z"/>
  <path id="_17" class="fil0" d="M33.92 10.2c-0.05,0.05 -0.09,0.1 -0.14,0.18 -0.07,0.1 -0.15,0.23 -0.24,0.39l-0.06 0.1 -0.06 0.1c-0.04,0.08 -0.08,0.14 -0.12,0.2 -0.06,0.08 -0.1,0.14 -0.14,0.18 -0.07,0.06 -0.13,0.1 -0.2,0.11 0.07,-0.03 0.12,-0.08 0.17,-0.14 0.04,-0.05 0.08,-0.11 0.13,-0.19 0.03,-0.05 0.06,-0.12 0.11,-0.21l0.11 -0.2c0.1,-0.17 0.18,-0.3 0.25,-0.39 0.06,-0.07 0.11,-0.13 0.16,-0.17 0.08,-0.06 0.14,-0.09 0.2,-0.08 -0.06,0.01 -0.12,0.05 -0.18,0.11zm-2.25 3.42c-0.06,0.05 -0.1,0.08 -0.14,0.11 -0.11,0.09 -0.19,0.17 -0.25,0.25 -0.03,0.05 -0.06,0.11 -0.09,0.16 -0.02,0.05 -0.03,0.11 -0.05,0.18 -0,-0.06 0,-0.13 0.02,-0.19 0.02,-0.06 0.04,-0.12 0.08,-0.18 0.05,-0.09 0.14,-0.18 0.25,-0.28 0.08,-0.06 0.18,-0.13 0.29,-0.21l0.08 -0.05 0.07 -0.05c0.06,-0.04 0.11,-0.07 0.15,-0.1 -0.06,0.08 -0.15,0.16 -0.27,0.25l-0.14 0.11zm-0.59 -3.09c-0.03,0.05 -0.06,0.11 -0.08,0.18 -0.02,0.06 -0.03,0.13 -0.03,0.21 -0.03,-0.07 -0.04,-0.14 -0.03,-0.22 0.01,-0.08 0.03,-0.15 0.08,-0.22 0.04,-0.07 0.1,-0.11 0.17,-0.14 0.07,-0.03 0.14,-0.04 0.21,-0.03 -0.14,0.03 -0.24,0.1 -0.32,0.22zm3.03 -0.74c-0.14,0 -0.28,0.07 -0.42,0.22 -0.1,0.11 -0.22,0.27 -0.34,0.48l-0.07 0.13 -0.03 0.06 -0.03 0.06c-0.06,0.1 -0.1,0.18 -0.13,0.22 -0.09,0.15 -0.16,0.22 -0.21,0.22 -0.05,0 -0.17,-0.1 -0.34,-0.3l-0.03 -0.04 -0.03 -0.04c-0.02,-0.03 -0.04,-0.05 -0.06,-0.07 -0.05,-0.06 -0.1,-0.11 -0.14,-0.16 -0.11,-0.12 -0.23,-0.23 -0.34,-0.33 -0.17,-0.15 -0.36,-0.23 -0.55,-0.23 -0.17,0 -0.32,0.06 -0.45,0.19 -0.13,0.12 -0.21,0.28 -0.23,0.47 -0.03,0.2 0.01,0.4 0.11,0.6 0.08,0.14 0.19,0.29 0.33,0.45 0.06,0.06 0.12,0.13 0.2,0.2l0.1 0.1 0.1 0.09c0.16,0.15 0.27,0.27 0.34,0.34 0.1,0.12 0.15,0.22 0.15,0.31 0.01,0.1 -0.05,0.2 -0.16,0.3 -0.04,0.04 -0.1,0.09 -0.18,0.14l-0.05 0.03 -0.05 0.04 -0.11 0.08c-0.18,0.13 -0.31,0.26 -0.4,0.38 -0.13,0.17 -0.19,0.36 -0.2,0.57 -0.01,0.16 0.02,0.31 0.08,0.45 0.06,0.14 0.15,0.25 0.27,0.33 0.26,0.19 0.59,0.22 0.97,0.09 0.52,-0.17 1.04,-0.66 1.56,-1.46 0.46,-0.72 0.76,-1.4 0.89,-2.05 0.13,-0.67 0.14,-1.16 0.02,-1.48 -0.1,-0.27 -0.29,-0.4 -0.56,-0.4z"/>
  <path id="_18" class="fil0" d="M38.05 13.11c-0.02,0.01 -0.05,0.03 -0.07,0.06l-0.04 0.03 -0.04 0.03c-0.06,0.05 -0.12,0.08 -0.18,0.09 -0.07,0.02 -0.14,0.02 -0.2,0.01 0.12,-0.03 0.23,-0.08 0.34,-0.16l0.04 -0.03 0.04 -0.03c0.03,-0.02 0.07,-0.04 0.09,-0.05 0.07,-0.03 0.14,-0.04 0.2,-0.03 -0.06,0.01 -0.12,0.04 -0.17,0.08zm-2.02 -2.53c-0.12,0.14 -0.23,0.3 -0.33,0.48 -0.08,0.15 -0.16,0.34 -0.22,0.56 0.04,-0.2 0.09,-0.4 0.18,-0.58 0.08,-0.19 0.19,-0.35 0.32,-0.5 0.14,-0.16 0.3,-0.27 0.47,-0.35 0.1,-0.04 0.19,-0.06 0.28,-0.08 0.1,-0.02 0.2,-0.02 0.28,-0.01 -0.2,0.02 -0.38,0.06 -0.54,0.14 -0.17,0.09 -0.31,0.21 -0.44,0.35zm2.78 2.93c-0.03,-0.39 -0.16,-0.64 -0.39,-0.74 -0.1,-0.04 -0.21,-0.05 -0.32,-0.02 -0.11,0.03 -0.22,0.09 -0.33,0.17 -0.1,0.08 -0.21,0.12 -0.31,0.11 -0.1,-0.01 -0.2,-0.06 -0.28,-0.16 -0.09,-0.1 -0.15,-0.22 -0.19,-0.37 -0.04,-0.17 -0.05,-0.34 -0.02,-0.53 0.04,-0.28 0.16,-0.43 0.37,-0.47 0.15,-0.02 0.36,0.02 0.64,0.12 0.12,0.05 0.23,0.04 0.33,-0.01 0.1,-0.05 0.17,-0.13 0.22,-0.24 0.05,-0.12 0.06,-0.25 0.04,-0.4 -0.02,-0.16 -0.08,-0.31 -0.18,-0.45 -0.21,-0.31 -0.49,-0.52 -0.83,-0.64 -0.32,-0.11 -0.64,-0.12 -0.96,-0.03 -0.42,0.11 -0.76,0.4 -1.03,0.87 -0.3,0.51 -0.45,1.14 -0.45,1.9 0,0.86 0.2,1.52 0.61,2.01 0.19,0.23 0.41,0.4 0.67,0.5 0.26,0.11 0.54,0.15 0.84,0.12 0.51,-0.05 0.91,-0.24 1.22,-0.59 0.29,-0.33 0.42,-0.71 0.38,-1.14z"/>
  <path id="_19" class="fil0" d="M41.5 10.99c-0.09,0.13 -0.19,0.24 -0.28,0.32 -0.12,0.11 -0.23,0.19 -0.34,0.24 0.09,-0.06 0.19,-0.15 0.31,-0.28 0.09,-0.1 0.18,-0.21 0.26,-0.33 0.04,-0.06 0.08,-0.12 0.12,-0.17l0.03 -0.05 0.03 -0.04c0.02,-0.04 0.04,-0.07 0.06,-0.09 0.05,-0.06 0.1,-0.1 0.16,-0.14 0.07,-0.04 0.14,-0.05 0.2,-0.04 -0.12,0.01 -0.23,0.08 -0.32,0.22 -0.02,0.02 -0.03,0.05 -0.06,0.09l-0.03 0.05 -0.03 0.05c-0.03,0.05 -0.07,0.11 -0.12,0.18zm-1.38 -0.84c-0.05,0.03 -0.09,0.08 -0.13,0.13 -0.06,0.08 -0.12,0.19 -0.18,0.34 -0.04,0.09 -0.08,0.21 -0.13,0.38l-0.05 0.2 -0.05 0.19c0.01,-0.16 0.03,-0.29 0.06,-0.4 0.03,-0.14 0.07,-0.27 0.12,-0.39 0.06,-0.15 0.13,-0.27 0.2,-0.35 0.05,-0.05 0.1,-0.09 0.15,-0.12 0.06,-0.03 0.13,-0.04 0.19,-0.04 -0.06,0.01 -0.12,0.03 -0.17,0.07zm1.57 2.21c-0.09,-0.06 -0.12,-0.11 -0.07,-0.15 0.02,-0.02 0.06,-0.04 0.11,-0.07l0.04 -0.02 0.04 -0.02c0.04,-0.02 0.07,-0.03 0.09,-0.05 0.18,-0.09 0.32,-0.2 0.42,-0.3 0.16,-0.16 0.27,-0.35 0.34,-0.57 0.06,-0.21 0.06,-0.4 -0.01,-0.59 -0.06,-0.17 -0.17,-0.3 -0.32,-0.38 -0.15,-0.08 -0.3,-0.1 -0.46,-0.05 -0.18,0.05 -0.33,0.18 -0.46,0.39 -0.21,0.35 -0.42,0.59 -0.61,0.72 -0.08,0.05 -0.13,0.07 -0.16,0.05 -0.03,-0.03 -0.02,-0.09 0.02,-0.18 0.17,-0.38 0.22,-0.69 0.16,-0.93 -0.05,-0.2 -0.18,-0.32 -0.37,-0.37 -0.4,-0.1 -0.71,0.11 -0.92,0.64 -0.18,0.43 -0.29,1.05 -0.34,1.86 -0.05,0.82 -0.02,1.48 0.1,1.98 0.15,0.61 0.4,0.9 0.78,0.89 0.34,-0.01 0.54,-0.29 0.6,-0.82 0.02,-0.18 0.02,-0.38 0,-0.61 -0.01,-0.08 -0.02,-0.16 -0.02,-0.24 -0,-0.03 -0.01,-0.06 -0.01,-0.09l-0 -0.04 -0 -0.02 0 -0.01c-0.01,-0.07 -0,-0.12 0.02,-0.14 0.03,-0.02 0.07,-0.01 0.12,0.03 0.13,0.12 0.25,0.41 0.36,0.87 0.07,0.3 0.18,0.54 0.31,0.73 0.13,0.17 0.27,0.29 0.43,0.35 0.15,0.05 0.31,0.05 0.46,-0.01 0.15,-0.06 0.28,-0.18 0.38,-0.34 0.11,-0.18 0.17,-0.39 0.18,-0.62 0,-0.22 -0.04,-0.45 -0.14,-0.68 -0.21,-0.49 -0.57,-0.89 -1.09,-1.2z"/>
  <path id="_20" class="fil0" d="M1.16 10.19c-0.06,0.03 -0.12,0.05 -0.16,0.08 -0.05,0.03 -0.1,0.07 -0.15,0.11 -0.1,0.08 -0.18,0.18 -0.24,0.29 -0.06,0.13 -0.1,0.26 -0.11,0.38 -0.02,-0.13 0,-0.27 0.06,-0.41 0.05,-0.12 0.13,-0.23 0.25,-0.32 0.11,-0.09 0.22,-0.15 0.34,-0.19 0.13,-0.04 0.25,-0.05 0.38,-0.03 -0.12,0.01 -0.24,0.04 -0.36,0.09zm1.3 0.45c-0.11,-0.3 -0.26,-0.52 -0.46,-0.66 -0.17,-0.12 -0.37,-0.18 -0.59,-0.16 -0.2,0.01 -0.39,0.07 -0.58,0.19 -0.18,0.11 -0.32,0.24 -0.42,0.4 -0.08,0.13 -0.14,0.27 -0.17,0.42 -0.03,0.14 -0.03,0.27 -0,0.39 0.03,0.12 0.08,0.21 0.15,0.27 0.08,0.07 0.18,0.09 0.3,0.07 0.14,-0.02 0.25,0.09 0.3,0.33 0.02,0.09 0.04,0.2 0.05,0.33 0,0.05 0.01,0.1 0.01,0.16l0 0.07 0 0.07c0.02,0.37 0.01,0.75 -0.01,1.14 -0.01,0.13 -0.02,0.28 -0.04,0.44l-0.01 0.1 -0.01 0.1c-0.01,0.07 -0.01,0.13 -0.02,0.18 -0.02,0.24 -0.02,0.41 0.01,0.51 0.04,0.13 0.12,0.21 0.25,0.26 0.25,0.08 0.49,-0.05 0.71,-0.39 0.2,-0.3 0.36,-0.73 0.48,-1.29 0.12,-0.53 0.18,-1.06 0.19,-1.6 0.01,-0.56 -0.04,-1 -0.16,-1.32z"/>
  <path class="fil1" d="M3 5.36c-0.03,0 -0.07,0 -0.12,0.01l-0.06 0.01 -0.06 0c0.07,-0.06 0.15,-0.09 0.24,-0.09 0.05,0 0.09,0.01 0.13,0.02 0.04,0.02 0.08,0.05 0.1,0.08 -0.08,-0.03 -0.16,-0.04 -0.23,-0.04zm-1.99 -1.23c-0.05,0.06 -0.1,0.11 -0.15,0.17 -0.11,0.13 -0.19,0.25 -0.25,0.37 -0.08,0.13 -0.14,0.27 -0.17,0.42 -0.03,0.14 -0.05,0.3 -0.05,0.46l-0.02 -0.12 -0 -0.06 0 -0.06 0 -0.06 0 -0.06 0.01 -0.06 0.01 -0.06c0.03,-0.15 0.08,-0.3 0.16,-0.44 0.08,-0.14 0.17,-0.26 0.27,-0.37 0.05,-0.06 0.11,-0.11 0.17,-0.16l0.09 -0.07c0.03,-0.03 0.06,-0.05 0.09,-0.06l-0.08 0.08 -0.08 0.08zm0.35 -2.43c-0.07,0.03 -0.13,0.06 -0.19,0.1 -0.13,0.07 -0.25,0.16 -0.35,0.25 -0.11,0.09 -0.21,0.2 -0.31,0.32 -0.05,0.06 -0.09,0.13 -0.12,0.19 -0.04,0.07 -0.06,0.15 -0.07,0.22 -0,-0.13 0.04,-0.28 0.15,-0.44 0.08,-0.13 0.18,-0.24 0.3,-0.35 0.12,-0.1 0.25,-0.18 0.38,-0.24 0.07,-0.03 0.14,-0.06 0.2,-0.08 0.08,-0.02 0.15,-0.04 0.21,-0.05l-0.1 0.04c-0.04,0.01 -0.07,0.03 -0.1,0.04zm1.31 3.41c-0.2,0.08 -0.38,0.12 -0.54,0.1 -0.14,-0.01 -0.22,-0.04 -0.25,-0.1 -0.01,-0.03 -0.02,-0.06 -0.02,-0.09 -0,-0.04 0.01,-0.09 0.03,-0.13 0.06,-0.12 0.19,-0.26 0.4,-0.4 0.28,-0.18 0.51,-0.42 0.7,-0.7 0.18,-0.27 0.3,-0.56 0.35,-0.86 0.06,-0.31 0.03,-0.59 -0.07,-0.83 -0.11,-0.27 -0.3,-0.48 -0.56,-0.62 -0.32,-0.17 -0.66,-0.23 -1.02,-0.18 -0.32,0.05 -0.62,0.17 -0.9,0.37 -0.27,0.19 -0.47,0.42 -0.6,0.66 -0.13,0.25 -0.16,0.48 -0.09,0.67 0.07,0.19 0.21,0.3 0.41,0.33 0.21,0.03 0.45,-0.02 0.75,-0.17 0.16,-0.08 0.28,-0.13 0.34,-0.15 0.07,-0.01 0.11,-0 0.15,0.04 0.07,0.08 -0.01,0.2 -0.26,0.35 -0.46,0.29 -0.8,0.6 -1.03,0.95 -0.29,0.44 -0.38,0.91 -0.27,1.4 0.08,0.35 0.3,0.6 0.68,0.77 0.3,0.13 0.69,0.2 1.16,0.2 0.47,0 0.85,-0.07 1.15,-0.21 0.31,-0.14 0.48,-0.34 0.53,-0.6 0.03,-0.13 0.02,-0.25 -0.02,-0.38 -0.04,-0.13 -0.1,-0.24 -0.19,-0.33 -0.1,-0.1 -0.21,-0.16 -0.34,-0.18 -0.15,-0.02 -0.3,-0 -0.47,0.07z"/>
  <path id="_1_0" class="fil1" d="M6.29 4.92c-0.04,0.09 -0.09,0.15 -0.15,0.21 -0.07,0.06 -0.14,0.09 -0.22,0.1 0.13,-0.07 0.24,-0.19 0.31,-0.34 0.06,-0.12 0.09,-0.27 0.12,-0.47 0.04,0.17 0.02,0.34 -0.05,0.5zm-0.45 0.02c-0.09,0.03 -0.17,0 -0.25,-0.08 -0.08,-0.08 -0.14,-0.2 -0.17,-0.34 -0.03,-0.15 -0.02,-0.28 0.02,-0.4 0.04,-0.12 0.11,-0.2 0.19,-0.23 0.09,-0.03 0.17,0 0.25,0.08 0.08,0.08 0.14,0.2 0.17,0.34 0.03,0.15 0.02,0.28 -0.02,0.4 -0.04,0.13 -0.11,0.2 -0.19,0.23zm-1.08 -2.75c-0.1,0.15 -0.19,0.35 -0.27,0.58 -0.06,0.19 -0.11,0.4 -0.15,0.64 0,-0.09 0.01,-0.2 0.03,-0.33 0.02,-0.11 0.04,-0.22 0.07,-0.32 0.06,-0.23 0.15,-0.43 0.26,-0.61 0.13,-0.2 0.28,-0.35 0.46,-0.44 0.09,-0.05 0.19,-0.08 0.29,-0.11 0.11,-0.02 0.21,-0.02 0.31,-0.02 -0.23,0.02 -0.42,0.08 -0.58,0.17 -0.17,0.1 -0.31,0.25 -0.43,0.44zm1.4 -0.87c-0.64,-0.13 -1.16,0.04 -1.55,0.53 -0.34,0.43 -0.53,1.02 -0.56,1.76 -0.03,0.72 0.09,1.38 0.36,1.96 0.29,0.64 0.69,1.01 1.2,1.13 0.48,0.11 0.9,-0.08 1.28,-0.57 0.34,-0.45 0.57,-1.03 0.67,-1.75 0.11,-0.74 0.05,-1.38 -0.17,-1.94 -0.25,-0.63 -0.66,-1 -1.23,-1.12z"/>
  <path id="_2_1" class="fil1" d="M10.92 5.36c-0.03,0 -0.07,0 -0.12,0.01l-0.06 0.01 -0.06 0c0.07,-0.06 0.15,-0.09 0.24,-0.09 0.05,0 0.09,0.01 0.13,0.02 0.04,0.02 0.08,0.05 0.1,0.08 -0.08,-0.03 -0.16,-0.04 -0.23,-0.04zm-1.99 -1.23c-0.05,0.06 -0.1,0.11 -0.15,0.17 -0.11,0.13 -0.19,0.25 -0.25,0.37 -0.08,0.13 -0.14,0.27 -0.17,0.42 -0.03,0.14 -0.05,0.3 -0.05,0.46l-0.02 -0.12 -0 -0.06 0 -0.06 0 -0.06 0 -0.06 0.01 -0.06 0.01 -0.06c0.03,-0.15 0.08,-0.3 0.16,-0.44 0.08,-0.14 0.17,-0.26 0.27,-0.37 0.05,-0.06 0.11,-0.11 0.16,-0.16l0.09 -0.07c0.03,-0.03 0.06,-0.05 0.09,-0.06l-0.08 0.08 -0.08 0.08zm0.35 -2.43c-0.07,0.03 -0.13,0.06 -0.19,0.1 -0.13,0.07 -0.25,0.16 -0.35,0.25 -0.11,0.09 -0.21,0.2 -0.31,0.32 -0.05,0.06 -0.09,0.13 -0.12,0.19 -0.04,0.07 -0.06,0.15 -0.07,0.22 -0,-0.13 0.04,-0.28 0.15,-0.44 0.08,-0.13 0.18,-0.24 0.3,-0.35 0.12,-0.1 0.25,-0.18 0.38,-0.24 0.07,-0.03 0.14,-0.06 0.2,-0.08 0.08,-0.02 0.15,-0.04 0.21,-0.05l-0.1 0.04c-0.04,0.01 -0.07,0.03 -0.1,0.04zm1.31 3.41c-0.2,0.08 -0.38,0.12 -0.54,0.1 -0.14,-0.01 -0.22,-0.04 -0.25,-0.1 -0.01,-0.03 -0.02,-0.06 -0.02,-0.09 -0,-0.04 0.01,-0.09 0.03,-0.13 0.06,-0.12 0.19,-0.26 0.4,-0.4 0.28,-0.18 0.51,-0.42 0.7,-0.7 0.18,-0.27 0.3,-0.56 0.35,-0.86 0.06,-0.31 0.03,-0.59 -0.07,-0.83 -0.11,-0.27 -0.3,-0.48 -0.56,-0.62 -0.32,-0.17 -0.66,-0.23 -1.02,-0.18 -0.32,0.05 -0.62,0.17 -0.9,0.37 -0.27,0.19 -0.47,0.42 -0.6,0.66 -0.13,0.25 -0.16,0.48 -0.09,0.67 0.07,0.19 0.21,0.3 0.41,0.33 0.21,0.03 0.45,-0.02 0.75,-0.17 0.16,-0.08 0.28,-0.13 0.34,-0.15 0.07,-0.01 0.11,-0 0.15,0.04 0.07,0.08 -0.01,0.2 -0.26,0.35 -0.46,0.29 -0.8,0.6 -1.03,0.95 -0.29,0.44 -0.38,0.91 -0.27,1.4 0.08,0.35 0.3,0.6 0.68,0.77 0.3,0.13 0.69,0.2 1.16,0.2 0.47,0 0.85,-0.07 1.15,-0.21 0.31,-0.14 0.48,-0.34 0.53,-0.6 0.03,-0.13 0.02,-0.25 -0.02,-0.38 -0.04,-0.13 -0.1,-0.24 -0.19,-0.33 -0.1,-0.1 -0.21,-0.16 -0.34,-0.18 -0.15,-0.02 -0.3,-0 -0.47,0.07z"/>
  <path id="_3_2" class="fil1" d="M17.92 3.71c-0.05,0.01 -0.11,0.03 -0.16,0.05l-0.04 0.02 -0.04 0.02c-0.03,0.02 -0.06,0.03 -0.09,0.03 -0.06,0.02 -0.12,0.02 -0.18,0.02l0.08 -0.03c0.03,-0.01 0.06,-0.02 0.08,-0.04l0.04 -0.02 0.04 -0.02c0.03,-0.02 0.05,-0.03 0.08,-0.05 0.06,-0.03 0.12,-0.04 0.18,-0.04 0.07,-0 0.13,0.01 0.17,0.05 -0.05,-0.01 -0.11,-0.01 -0.17,0zm-1.61 0.11c-0.05,0 -0.1,0.01 -0.14,0.01 -0.06,0 -0.1,0.01 -0.13,0.02 -0.03,0.01 -0.04,0.02 -0.06,0.03 -0.01,0.01 -0.02,0.03 -0.04,0.06 -0,-0.03 0,-0.06 0.01,-0.08 0.01,-0.02 0.03,-0.04 0.06,-0.06 0.04,-0.02 0.09,-0.03 0.15,-0.04 0.06,-0.01 0.11,-0 0.15,0 0.06,0.01 0.1,0.02 0.14,0.03 -0.04,0.01 -0.09,0.02 -0.15,0.02zm1.26 -0.28c-0.1,0.06 -0.26,0.08 -0.47,0.07 -0.07,-0.01 -0.17,-0.02 -0.29,-0.03l-0.15 -0.01c-0.06,-0.01 -0.11,-0.01 -0.15,-0.02 -0.23,-0.02 -0.41,-0.01 -0.52,0.03 -0.15,0.05 -0.24,0.17 -0.27,0.34 -0.03,0.22 0.06,0.41 0.27,0.57 0.2,0.15 0.45,0.25 0.78,0.31 0.32,0.06 0.62,0.05 0.9,-0 0.31,-0.06 0.53,-0.18 0.67,-0.35 0.1,-0.12 0.15,-0.26 0.16,-0.41 0,-0.14 -0.03,-0.27 -0.11,-0.39 -0.08,-0.11 -0.19,-0.18 -0.33,-0.21 -0.15,-0.03 -0.31,0.01 -0.49,0.1z"/>
  <path id="_4_3" class="fil1" d="M20.11 1.63c-0.16,0.03 -0.3,0.05 -0.4,0.09 -0.15,0.05 -0.28,0.1 -0.37,0.17 -0.07,0.05 -0.12,0.1 -0.15,0.14 -0.04,0.05 -0.06,0.12 -0.06,0.21 -0.02,-0.08 -0.01,-0.15 0.03,-0.22 0.03,-0.06 0.08,-0.12 0.15,-0.17 0.09,-0.07 0.22,-0.14 0.38,-0.19 0.26,-0.08 0.54,-0.1 0.83,-0.07 -0.15,0.02 -0.29,0.03 -0.41,0.05zm0.67 -0.34c-0.57,-0.03 -1.04,0.04 -1.39,0.2 -0.37,0.18 -0.55,0.43 -0.52,0.76 0.01,0.18 0.09,0.32 0.22,0.4 0.09,0.06 0.23,0.1 0.42,0.13l0.12 0.01 0.11 0.01c0.09,0.01 0.16,0.02 0.21,0.03 0.14,0.03 0.23,0.1 0.26,0.19 0.02,0.06 -0,0.39 -0.06,0.99 -0.03,0.31 -0.05,0.57 -0.06,0.79 -0.01,0.31 -0.01,0.58 0.01,0.8 0.03,0.34 0.14,0.62 0.33,0.84 0.2,0.23 0.43,0.32 0.71,0.28 0.5,-0.07 0.69,-0.62 0.55,-1.63 -0.07,-0.53 -0.11,-0.99 -0.11,-1.37 -0,-0.4 0.03,-0.64 0.11,-0.71 0.05,-0.04 0.14,-0.07 0.27,-0.07 0.04,0 0.1,0 0.18,0l0.09 0 0.09 -0c0.15,-0 0.27,-0.03 0.36,-0.07 0.11,-0.06 0.19,-0.16 0.23,-0.29 0.05,-0.17 0.02,-0.34 -0.07,-0.49 -0.09,-0.15 -0.24,-0.28 -0.44,-0.4 -0.41,-0.24 -0.95,-0.37 -1.6,-0.41z"/>
  <path id="_5_4" class="fil1" d="M26.02 1.89c-0.06,0.08 -0.12,0.17 -0.19,0.27 -0.11,0.19 -0.2,0.39 -0.28,0.61l-0.06 0.16 -0.05 0.16c-0.05,0.14 -0.09,0.25 -0.11,0.32 -0.06,0.14 -0.11,0.24 -0.16,0.31 -0.04,0.05 -0.08,0.08 -0.13,0.1 -0.04,0.02 -0.1,0.03 -0.16,0.02 0.06,-0 0.11,-0.01 0.15,-0.03 0.04,-0.02 0.08,-0.06 0.12,-0.11 0.05,-0.06 0.09,-0.16 0.14,-0.3l0.05 -0.16 0.05 -0.16c0.04,-0.13 0.08,-0.24 0.11,-0.33 0.09,-0.24 0.19,-0.44 0.3,-0.61 0.15,-0.23 0.31,-0.39 0.47,-0.47 -0.09,0.06 -0.16,0.14 -0.23,0.23zm-2.32 0.88c-0.03,0.15 -0.06,0.34 -0.09,0.56l-0.03 0.28 -0.03 0.28c-0.02,-0.55 0.04,-1.05 0.18,-1.48 0.03,-0.09 0.05,-0.16 0.08,-0.23 0.04,-0.09 0.08,-0.17 0.12,-0.23 0.11,-0.17 0.25,-0.25 0.39,-0.24 -0.18,0.02 -0.33,0.16 -0.44,0.42 -0.04,0.1 -0.08,0.21 -0.11,0.34 -0.01,0.05 -0.03,0.1 -0.04,0.16l-0.02 0.08 -0.01 0.04 -0.01 0.03zm3.22 -1.36c-0.28,-0.19 -0.58,-0.17 -0.87,0.05 -0.24,0.18 -0.46,0.46 -0.64,0.86 -0.06,0.13 -0.12,0.27 -0.18,0.44 -0.02,0.06 -0.04,0.13 -0.07,0.21l-0.03 0.1 -0.01 0.05 -0.02 0.05c-0.05,0.14 -0.08,0.24 -0.11,0.29 -0.03,0.07 -0.07,0.11 -0.1,0.11 -0.06,-0.01 -0.09,-0.06 -0.09,-0.15 -0,-0.09 0.01,-0.28 0.05,-0.59 0.08,-0.56 0.04,-0.95 -0.1,-1.18 -0.11,-0.18 -0.29,-0.25 -0.54,-0.22 -0.3,0.04 -0.54,0.35 -0.71,0.92 -0.17,0.55 -0.24,1.22 -0.22,2.02 0.04,1.46 0.44,2.24 1.19,2.36 0.22,0.03 0.44,-0.03 0.66,-0.17 0.21,-0.14 0.38,-0.32 0.52,-0.56 0.13,-0.21 0.23,-0.41 0.32,-0.59 0.03,-0.07 0.06,-0.14 0.09,-0.21 0.02,-0.04 0.04,-0.09 0.06,-0.15 0.04,-0.09 0.06,-0.15 0.07,-0.16 0.02,-0.02 0.04,-0.03 0.07,-0.03 0.03,0.01 0.03,0.12 0.01,0.32l-0.01 0.07 -0.01 0.07c-0.01,0.06 -0.01,0.12 -0.02,0.16 -0.01,0.13 -0.02,0.25 -0.02,0.35 -0.01,0.62 0.19,0.93 0.61,0.93 0.27,-0 0.48,-0.25 0.63,-0.75 0.13,-0.44 0.2,-1.01 0.2,-1.68 0,-0.66 -0.06,-1.26 -0.19,-1.8 -0.14,-0.58 -0.32,-0.95 -0.55,-1.1z"/>
  <path id="_6_5" class="fil1" d="M31.85 4.66c-0.05,0.04 -0.1,0.07 -0.15,0.08 -0.06,0.02 -0.11,0.02 -0.17,0 0.11,-0.03 0.2,-0.08 0.28,-0.15 0.07,-0.06 0.14,-0.14 0.21,-0.25 -0.02,0.12 -0.07,0.22 -0.17,0.31zm-0.38 -0.22c-0.05,-0.02 -0.09,-0.07 -0.11,-0.14 -0.02,-0.07 -0.01,-0.14 0.01,-0.22 0.03,-0.08 0.07,-0.14 0.13,-0.18 0.06,-0.04 0.11,-0.05 0.17,-0.02 0.05,0.02 0.09,0.07 0.11,0.14 0.02,0.07 0.01,0.15 -0.02,0.22 -0.03,0.08 -0.07,0.13 -0.13,0.18 -0.06,0.04 -0.11,0.05 -0.17,0.02zm-0.56 -2.05c-0.09,0.13 -0.2,0.31 -0.32,0.53 -0.04,0.08 -0.09,0.17 -0.15,0.27l-0.15 0.28c0.07,-0.18 0.15,-0.38 0.25,-0.58 0.09,-0.19 0.19,-0.37 0.31,-0.55 0.14,-0.2 0.27,-0.37 0.39,-0.49l0.06 -0.05c0.02,-0.02 0.04,-0.04 0.06,-0.05l0.06 -0.05 0.06 -0.04c0.11,-0.06 0.21,-0.09 0.28,-0.09 -0.08,0.01 -0.17,0.05 -0.27,0.12l-0.06 0.05 -0.06 0.05c-0.02,0.01 -0.03,0.03 -0.05,0.05l-0.05 0.06c-0.12,0.14 -0.24,0.3 -0.37,0.49zm0.93 -1.1c-0.3,-0.05 -0.65,0.18 -1.03,0.68 -0.34,0.46 -0.65,1.04 -0.92,1.75 -0.27,0.71 -0.43,1.33 -0.47,1.88 -0.05,0.6 0.06,0.96 0.32,1.07 0.2,0.08 0.39,0.08 0.58,-0.01 0.14,-0.07 0.29,-0.19 0.45,-0.37 0.03,-0.04 0.06,-0.08 0.1,-0.12l0.09 -0.11c0.08,-0.1 0.13,-0.17 0.17,-0.21 0.12,-0.14 0.23,-0.21 0.31,-0.21 0.09,0 0.2,0.07 0.32,0.2 0.04,0.04 0.1,0.11 0.17,0.2l0.1 0.11 0.09 0.11c0.16,0.17 0.3,0.28 0.43,0.35 0.17,0.08 0.34,0.08 0.51,-0.01 0.2,-0.1 0.31,-0.42 0.34,-0.97 0.03,-0.51 -0.03,-1.1 -0.16,-1.75 -0.14,-0.68 -0.32,-1.25 -0.55,-1.72 -0.27,-0.52 -0.55,-0.81 -0.86,-0.87z"/>
  <path id="_7_6" class="fil1" d="M36.12 3.55c-0.03,0.07 -0.07,0.14 -0.12,0.2 -0.05,0.06 -0.11,0.11 -0.18,0.13 -0.07,0.03 -0.14,0.04 -0.21,0.02 0.07,-0.01 0.13,-0.04 0.19,-0.08 0.06,-0.04 0.11,-0.08 0.15,-0.13 0.09,-0.1 0.16,-0.22 0.2,-0.37 0.01,0.07 -0,0.15 -0.03,0.22zm-0.64 -0.32c0.04,-0.08 0.08,-0.13 0.14,-0.16 0.06,-0.03 0.11,-0.04 0.16,-0.01 0.05,0.03 0.08,0.08 0.09,0.15 0.01,0.07 -0,0.15 -0.04,0.22 -0.03,0.08 -0.08,0.13 -0.14,0.16 -0.06,0.03 -0.12,0.04 -0.16,0.01 -0.05,-0.03 -0.08,-0.08 -0.09,-0.15 -0.01,-0.07 0,-0.15 0.03,-0.22zm-0.54 -1.51c-0.16,0.08 -0.3,0.19 -0.41,0.32 -0.11,0.12 -0.2,0.28 -0.28,0.46 -0.06,0.14 -0.12,0.32 -0.17,0.53 0.01,-0.08 0.02,-0.17 0.05,-0.28 0.02,-0.1 0.05,-0.19 0.08,-0.27 0.07,-0.18 0.16,-0.35 0.28,-0.49 0.13,-0.15 0.27,-0.26 0.44,-0.33 0.08,-0.04 0.17,-0.06 0.26,-0.08 0.1,-0.02 0.18,-0.02 0.26,-0.02 -0.19,0.03 -0.36,0.08 -0.5,0.15zm0.66 -0.45c-0.47,-0.01 -0.86,0.14 -1.16,0.42 -0.27,0.25 -0.47,0.61 -0.58,1.07 -0.1,0.42 -0.13,0.88 -0.08,1.38 0.05,0.49 0.16,0.94 0.34,1.35 0.17,0.4 0.36,0.71 0.58,0.93 0.19,0.19 0.38,0.29 0.56,0.31 0.17,0.02 0.32,-0.04 0.44,-0.16 0.12,-0.13 0.2,-0.3 0.22,-0.51 0.02,-0.15 0.02,-0.31 -0.01,-0.5 -0.01,-0.05 -0.02,-0.13 -0.04,-0.22l-0.02 -0.11c-0.01,-0.04 -0.01,-0.07 -0.02,-0.1 -0.02,-0.15 -0.02,-0.26 0.01,-0.35 0.03,-0.1 0.1,-0.18 0.22,-0.24 0.38,-0.19 0.66,-0.48 0.85,-0.85 0.18,-0.34 0.25,-0.71 0.21,-1.08 -0.04,-0.38 -0.19,-0.69 -0.45,-0.93 -0.28,-0.26 -0.64,-0.4 -1.09,-0.41z"/>
  <path id="_8_7" class="fil1" d="M39.84 5.08c-0.04,0.07 -0.1,0.12 -0.17,0.16 -0.07,0.04 -0.14,0.05 -0.21,0.03 0.14,-0.03 0.25,-0.1 0.33,-0.23 0.03,-0.05 0.06,-0.12 0.08,-0.19 0.01,-0.07 0.02,-0.14 0.02,-0.22 0.03,0.07 0.04,0.15 0.03,0.23 -0,0.08 -0.03,0.16 -0.07,0.22zm-0.62 -0.29c-0.03,-0.07 -0.05,-0.15 -0.03,-0.22 0.01,-0.07 0.04,-0.12 0.09,-0.15 0.05,-0.03 0.11,-0.02 0.17,0.01 0.06,0.03 0.11,0.09 0.14,0.16 0.04,0.08 0.05,0.15 0.03,0.22 -0.01,0.07 -0.04,0.12 -0.09,0.15 -0.05,0.03 -0.1,0.02 -0.16,-0.01 -0.06,-0.03 -0.11,-0.09 -0.14,-0.16zm-0.33 -3.16c-0.04,0.02 -0.09,0.06 -0.15,0.1 -0.08,0.07 -0.16,0.16 -0.24,0.27 -0.06,0.08 -0.13,0.18 -0.21,0.31 -0.03,0.04 -0.06,0.1 -0.1,0.16l-0.09 0.16c0.05,-0.14 0.09,-0.26 0.14,-0.35 0.06,-0.12 0.12,-0.23 0.2,-0.33 0.09,-0.11 0.17,-0.2 0.27,-0.27 0.12,-0.09 0.23,-0.13 0.34,-0.12 -0.06,0.01 -0.11,0.03 -0.17,0.06zm0.91 1.84c-0.12,-0.04 -0.19,-0.11 -0.23,-0.21 -0.03,-0.08 -0.03,-0.19 -0,-0.35 0,-0.03 0.01,-0.06 0.02,-0.11l0.02 -0.11c0.02,-0.1 0.03,-0.18 0.04,-0.24 0.03,-0.19 0.03,-0.37 0.02,-0.51 -0.03,-0.21 -0.1,-0.38 -0.22,-0.51 -0.12,-0.13 -0.27,-0.18 -0.44,-0.16 -0.19,0.02 -0.37,0.12 -0.56,0.31 -0.21,0.21 -0.41,0.52 -0.58,0.92 -0.18,0.42 -0.29,0.87 -0.34,1.35 -0.05,0.5 -0.03,0.96 0.08,1.38 0.11,0.46 0.31,0.81 0.58,1.07 0.31,0.28 0.69,0.42 1.16,0.42 0.45,-0.01 0.82,-0.15 1.11,-0.44 0.27,-0.26 0.43,-0.59 0.49,-0.98 0.05,-0.39 -0.01,-0.76 -0.2,-1.09 -0.2,-0.36 -0.51,-0.61 -0.93,-0.75zm1.46 -1.76c-0.04,0.04 -0.07,0.09 -0.09,0.14 -0.02,0.05 -0.03,0.11 -0.03,0.18 -0,0.09 0,0.22 0.03,0.38l0.03 0.19 0.03 0.19c-0.05,-0.14 -0.09,-0.26 -0.12,-0.37 -0.03,-0.15 -0.05,-0.28 -0.05,-0.39 0.01,-0.08 0.02,-0.14 0.04,-0.2 0.03,-0.07 0.07,-0.13 0.11,-0.17 0.1,-0.08 0.21,-0.11 0.35,-0.09 -0.13,0.02 -0.23,0.06 -0.31,0.14zm1.23 0.21c-0.1,-0.2 -0.23,-0.36 -0.39,-0.47 -0.14,-0.1 -0.3,-0.16 -0.46,-0.17 -0.15,-0.01 -0.3,0.02 -0.43,0.08 -0.13,0.07 -0.23,0.17 -0.29,0.29 -0.11,0.24 -0.11,0.59 0.01,1.05 0.02,0.07 0.04,0.17 0.08,0.29l0.04 0.15 0.04 0.14c0.06,0.23 0.1,0.42 0.12,0.58 0.04,0.37 0.06,0.75 0.05,1.14 -0,0.12 -0.01,0.27 -0.02,0.44l-0 0.1 -0 0.1c-0,0.07 -0.01,0.13 -0.01,0.18 -0.01,0.24 0.01,0.41 0.04,0.51 0.04,0.12 0.13,0.2 0.26,0.24 0.25,0.06 0.48,-0.08 0.69,-0.44 0.18,-0.32 0.32,-0.76 0.42,-1.32 0.09,-0.54 0.13,-1.07 0.11,-1.6 -0.02,-0.56 -0.11,-0.98 -0.26,-1.28z"/>
  <path id="_9_8" class="fil1" d="M46.18 1.67c-0.03,0.01 -0.06,0.04 -0.09,0.08 -0.04,0.06 -0.07,0.14 -0.09,0.24 -0.03,0.14 -0.04,0.33 -0.03,0.54l0 0.07 0 0.07c0,0.06 0,0.1 -0,0.14 -0.01,0.1 -0.03,0.2 -0.07,0.28 -0.04,0.09 -0.09,0.17 -0.15,0.23 -0.07,0.07 -0.14,0.11 -0.22,0.14 0.16,-0.08 0.27,-0.21 0.33,-0.39 0.03,-0.09 0.04,-0.17 0.05,-0.26 0,-0.04 0,-0.08 0,-0.13l-0 -0.07 0 -0.07c-0,-0.23 0.01,-0.41 0.05,-0.56 0.03,-0.11 0.07,-0.2 0.12,-0.26 0.03,-0.04 0.07,-0.06 0.11,-0.08 0.03,-0.01 0.08,-0.02 0.13,-0.02 -0.05,0.01 -0.09,0.02 -0.12,0.04zm-2.36 0.1c-0.08,0.09 -0.14,0.21 -0.19,0.35 -0.04,0.11 -0.07,0.25 -0.11,0.4l-0.05 0.2 -0.05 0.21c0.01,-0.29 0.05,-0.56 0.14,-0.83 0.05,-0.15 0.12,-0.27 0.21,-0.37 0.05,-0.05 0.11,-0.09 0.17,-0.12 0.07,-0.03 0.13,-0.04 0.19,-0.03 -0.12,0.01 -0.23,0.08 -0.33,0.19zm2.47 -0.42c-0.24,0.01 -0.41,0.13 -0.5,0.35 -0.1,0.21 -0.14,0.54 -0.12,0.98 0.01,0.19 -0.03,0.34 -0.12,0.43 -0.07,0.08 -0.16,0.12 -0.28,0.11 -0.11,-0.01 -0.2,-0.06 -0.26,-0.16 -0.06,-0.1 -0.08,-0.23 -0.07,-0.39 0.04,-0.45 0,-0.78 -0.12,-1.01 -0.11,-0.2 -0.3,-0.32 -0.56,-0.37 -0.21,-0.04 -0.4,0.02 -0.57,0.16 -0.16,0.13 -0.28,0.33 -0.36,0.57 -0.15,0.47 -0.22,1.04 -0.23,1.68 -0.01,0.62 0.05,1.22 0.18,1.78 0.09,0.42 0.24,0.72 0.44,0.9 0.17,0.15 0.35,0.21 0.55,0.18 0.45,-0.07 0.65,-0.43 0.61,-1.07 -0.03,-0.47 0.06,-0.71 0.27,-0.71 0.11,0 0.19,0.04 0.25,0.13 0.08,0.11 0.11,0.3 0.1,0.55 -0.02,0.42 0.04,0.74 0.19,0.96 0.13,0.21 0.32,0.31 0.56,0.31 0.41,0 0.7,-0.28 0.87,-0.84 0.12,-0.41 0.2,-1.08 0.22,-2.02 0.02,-0.72 -0.06,-1.33 -0.25,-1.81 -0.2,-0.5 -0.46,-0.75 -0.8,-0.73z"/>
  <path id="_10_9" class="fil1" d="M14.31 5.08c-0.04,0.07 -0.1,0.13 -0.17,0.16 -0.07,0.04 -0.14,0.05 -0.21,0.03 0.14,-0.03 0.25,-0.11 0.33,-0.23 0.03,-0.05 0.05,-0.12 0.07,-0.19 0.01,-0.07 0.02,-0.14 0.02,-0.22 0.03,0.07 0.04,0.15 0.04,0.23 -0.01,0.08 -0.03,0.16 -0.07,0.22zm-0.62 -0.29c-0.03,-0.07 -0.05,-0.15 -0.04,-0.22 0.01,-0.07 0.04,-0.12 0.09,-0.15 0.05,-0.03 0.1,-0.02 0.16,0.01 0.06,0.03 0.11,0.09 0.14,0.16 0.04,0.07 0.05,0.15 0.04,0.22 -0.01,0.07 -0.04,0.12 -0.09,0.15 -0.05,0.03 -0.11,0.02 -0.16,-0.01 -0.06,-0.03 -0.11,-0.09 -0.14,-0.16zm-0.4 -3.11c-0.07,0.05 -0.13,0.11 -0.2,0.18 -0.11,0.12 -0.21,0.28 -0.31,0.46 -0.09,0.16 -0.17,0.33 -0.25,0.52 -0.06,0.15 -0.12,0.33 -0.19,0.55 0.03,-0.18 0.07,-0.37 0.14,-0.56 0.06,-0.17 0.13,-0.35 0.23,-0.53 0.11,-0.2 0.22,-0.35 0.34,-0.46 0.08,-0.08 0.15,-0.14 0.22,-0.18 0.1,-0.05 0.18,-0.08 0.26,-0.07 -0.08,0.01 -0.17,0.04 -0.25,0.1zm0.99 1.8c-0.11,-0.06 -0.19,-0.14 -0.22,-0.24 -0.02,-0.08 -0.02,-0.2 -0,-0.35 0,-0.03 0.01,-0.06 0.01,-0.1l0.02 -0.11c0.02,-0.09 0.03,-0.17 0.04,-0.22 0.03,-0.19 0.03,-0.35 0.01,-0.5 -0.03,-0.21 -0.1,-0.38 -0.22,-0.51 -0.12,-0.13 -0.27,-0.18 -0.44,-0.16 -0.19,0.02 -0.38,0.12 -0.56,0.31 -0.21,0.22 -0.4,0.52 -0.57,0.92 -0.18,0.42 -0.29,0.87 -0.34,1.35 -0.05,0.5 -0.03,0.96 0.08,1.38 0.11,0.46 0.31,0.81 0.58,1.07 0.31,0.28 0.69,0.42 1.16,0.42 0.45,-0.01 0.81,-0.14 1.08,-0.41 0.25,-0.24 0.4,-0.55 0.44,-0.93 0.04,-0.37 -0.03,-0.73 -0.2,-1.07 -0.19,-0.37 -0.48,-0.65 -0.85,-0.84z"/>
  <path id="_11_10" class="fil1" d="M4.99 11.84c-0.05,0.01 -0.11,0.03 -0.16,0.05l-0.04 0.02 -0.04 0.02c-0.03,0.02 -0.06,0.03 -0.09,0.03 -0.06,0.02 -0.12,0.02 -0.18,0.02l0.08 -0.03c0.03,-0.01 0.06,-0.02 0.08,-0.04l0.04 -0.02 0.04 -0.02c0.03,-0.02 0.05,-0.03 0.08,-0.05 0.06,-0.03 0.12,-0.04 0.18,-0.04 0.07,-0 0.13,0.01 0.17,0.05 -0.05,-0.01 -0.11,-0.01 -0.17,0zm-1.61 0.11c-0.05,0 -0.1,0.01 -0.14,0.01 -0.06,0 -0.1,0.01 -0.13,0.02 -0.03,0.01 -0.04,0.02 -0.06,0.03 -0.01,0.01 -0.02,0.03 -0.04,0.06 -0,-0.03 0,-0.06 0.01,-0.08 0.01,-0.02 0.03,-0.04 0.06,-0.06 0.04,-0.02 0.09,-0.03 0.15,-0.04 0.06,-0.01 0.11,-0 0.15,0 0.06,0.01 0.1,0.02 0.14,0.03 -0.04,0.01 -0.09,0.02 -0.15,0.02zm1.26 -0.28c-0.1,0.06 -0.26,0.08 -0.47,0.07 -0.07,-0.01 -0.17,-0.02 -0.29,-0.03l-0.15 -0.01c-0.06,-0.01 -0.11,-0.01 -0.15,-0.02 -0.23,-0.02 -0.41,-0.01 -0.52,0.03 -0.15,0.05 -0.24,0.17 -0.27,0.34 -0.03,0.22 0.06,0.41 0.27,0.57 0.2,0.15 0.45,0.25 0.78,0.31 0.32,0.06 0.62,0.05 0.9,-0 0.31,-0.06 0.53,-0.18 0.67,-0.35 0.1,-0.12 0.15,-0.26 0.16,-0.41 0,-0.14 -0.03,-0.27 -0.11,-0.39 -0.08,-0.11 -0.19,-0.18 -0.33,-0.21 -0.15,-0.03 -0.31,0.01 -0.49,0.1z"/>
  <path id="_12_11" class="fil1" d="M7.18 9.76c-0.16,0.03 -0.3,0.05 -0.4,0.09 -0.15,0.05 -0.28,0.1 -0.37,0.17 -0.07,0.05 -0.12,0.1 -0.15,0.14 -0.04,0.05 -0.06,0.12 -0.06,0.21 -0.02,-0.08 -0.01,-0.15 0.03,-0.22 0.03,-0.06 0.08,-0.12 0.15,-0.17 0.09,-0.07 0.22,-0.14 0.38,-0.19 0.26,-0.08 0.54,-0.1 0.83,-0.07 -0.15,0.02 -0.29,0.03 -0.41,0.05zm0.67 -0.34c-0.57,-0.03 -1.04,0.04 -1.39,0.2 -0.37,0.18 -0.55,0.43 -0.52,0.76 0.01,0.18 0.09,0.32 0.22,0.4 0.09,0.06 0.23,0.1 0.42,0.13l0.12 0.01 0.11 0.01c0.09,0.01 0.16,0.02 0.21,0.03 0.14,0.03 0.23,0.1 0.26,0.19 0.02,0.06 -0,0.39 -0.06,0.99 -0.03,0.31 -0.05,0.57 -0.06,0.79 -0.01,0.31 -0.01,0.58 0.01,0.8 0.03,0.34 0.14,0.62 0.33,0.84 0.2,0.23 0.43,0.32 0.71,0.28 0.5,-0.07 0.69,-0.62 0.55,-1.63 -0.07,-0.53 -0.11,-0.99 -0.11,-1.37 -0,-0.4 0.03,-0.64 0.11,-0.71 0.05,-0.04 0.14,-0.07 0.27,-0.07 0.04,0 0.1,0 0.18,0l0.09 0 0.09 -0c0.15,-0 0.27,-0.03 0.36,-0.07 0.11,-0.06 0.19,-0.16 0.23,-0.29 0.05,-0.17 0.02,-0.34 -0.07,-0.49 -0.09,-0.15 -0.24,-0.28 -0.44,-0.4 -0.41,-0.24 -0.95,-0.37 -1.6,-0.41z"/>
  <path id="_13_12" class="fil1" d="M13.09 10.03c-0.06,0.08 -0.12,0.17 -0.19,0.27 -0.11,0.19 -0.2,0.39 -0.28,0.61l-0.06 0.16 -0.06 0.16c-0.05,0.14 -0.08,0.25 -0.11,0.32 -0.06,0.14 -0.11,0.24 -0.16,0.31 -0.04,0.05 -0.08,0.08 -0.13,0.1 -0.04,0.02 -0.1,0.03 -0.16,0.02 0.06,-0 0.11,-0.01 0.15,-0.03 0.04,-0.02 0.08,-0.06 0.12,-0.11 0.05,-0.06 0.09,-0.16 0.14,-0.3l0.05 -0.16 0.05 -0.16c0.04,-0.13 0.08,-0.24 0.11,-0.33 0.09,-0.24 0.19,-0.44 0.31,-0.61 0.15,-0.23 0.31,-0.39 0.47,-0.47 -0.09,0.06 -0.16,0.14 -0.23,0.23zm-2.32 0.88c-0.03,0.15 -0.06,0.34 -0.09,0.56l-0.03 0.28 -0.03 0.28c-0.02,-0.55 0.04,-1.05 0.18,-1.48 0.03,-0.09 0.05,-0.16 0.08,-0.23 0.04,-0.09 0.08,-0.17 0.12,-0.23 0.11,-0.17 0.25,-0.25 0.39,-0.24 -0.18,0.02 -0.33,0.16 -0.44,0.42 -0.04,0.1 -0.08,0.21 -0.11,0.34 -0.01,0.05 -0.03,0.1 -0.04,0.16l-0.02 0.08 -0.01 0.04 -0.01 0.03zm3.22 -1.36c-0.28,-0.19 -0.58,-0.17 -0.87,0.05 -0.24,0.18 -0.46,0.46 -0.64,0.86 -0.06,0.13 -0.12,0.27 -0.18,0.44 -0.02,0.06 -0.04,0.13 -0.07,0.21l-0.03 0.1 -0.01 0.05 -0.02 0.05c-0.05,0.14 -0.08,0.24 -0.11,0.29 -0.03,0.07 -0.07,0.11 -0.1,0.11 -0.06,-0.01 -0.09,-0.06 -0.09,-0.15 -0,-0.09 0.01,-0.28 0.05,-0.59 0.08,-0.56 0.04,-0.95 -0.1,-1.18 -0.11,-0.18 -0.29,-0.25 -0.54,-0.22 -0.3,0.04 -0.54,0.35 -0.71,0.92 -0.17,0.55 -0.24,1.22 -0.22,2.02 0.04,1.46 0.44,2.24 1.19,2.36 0.22,0.03 0.44,-0.03 0.66,-0.17 0.21,-0.14 0.38,-0.32 0.52,-0.56 0.13,-0.21 0.23,-0.41 0.32,-0.59 0.03,-0.07 0.06,-0.14 0.09,-0.21 0.02,-0.04 0.04,-0.09 0.06,-0.15 0.04,-0.09 0.06,-0.15 0.07,-0.16 0.02,-0.02 0.04,-0.03 0.07,-0.03 0.03,0.01 0.03,0.12 0.01,0.32l-0.01 0.07 -0.01 0.07c-0.01,0.06 -0.01,0.12 -0.02,0.16 -0.01,0.13 -0.02,0.25 -0.02,0.35 -0.01,0.62 0.19,0.93 0.61,0.93 0.27,-0 0.48,-0.25 0.63,-0.75 0.13,-0.44 0.2,-1.01 0.2,-1.68 0,-0.66 -0.06,-1.26 -0.19,-1.8 -0.14,-0.58 -0.32,-0.95 -0.55,-1.1z"/>
  <path id="_14_13" class="fil1" d="M19 13.12c-0.04,0.09 -0.1,0.15 -0.17,0.19 -0.08,0.05 -0.15,0.06 -0.23,0.05 0.08,-0.02 0.15,-0.05 0.21,-0.09 0.06,-0.05 0.11,-0.11 0.14,-0.18 0.06,-0.13 0.07,-0.29 0.03,-0.48 0.04,0.07 0.07,0.16 0.07,0.25 0.01,0.09 -0.01,0.18 -0.05,0.26zm-0.65 -0.23c-0.04,-0.07 -0.05,-0.15 -0.05,-0.22 0.01,-0.07 0.04,-0.12 0.08,-0.16 0.05,-0.03 0.1,-0.03 0.16,0 0.06,0.03 0.11,0.08 0.15,0.16 0.04,0.07 0.05,0.15 0.05,0.22 -0.01,0.07 -0.03,0.13 -0.08,0.16 -0.05,0.03 -0.1,0.03 -0.17,0 -0.06,-0.03 -0.11,-0.08 -0.15,-0.16zm-0.31 -1.58c0.06,-0.02 0.11,-0.04 0.15,-0.06 0.05,-0.03 0.09,-0.07 0.13,-0.11 0.03,-0.04 0.07,-0.09 0.1,-0.14 0.03,-0.05 0.05,-0.1 0.07,-0.16 0.01,0.13 -0.03,0.25 -0.12,0.36 -0.05,0.05 -0.1,0.08 -0.15,0.11 -0.06,0.02 -0.12,0.03 -0.17,0.02zm-0.07 -0.55c0.03,-0.05 0.06,-0.09 0.1,-0.11 0.04,-0.02 0.08,-0.02 0.11,0 0.03,0.02 0.05,0.05 0.05,0.1 0,0.05 -0.01,0.1 -0.03,0.14 -0.03,0.05 -0.06,0.09 -0.1,0.11 -0.04,0.02 -0.08,0.02 -0.11,0 -0.03,-0.02 -0.05,-0.05 -0.05,-0.1 -0,-0.05 0.01,-0.1 0.03,-0.14zm-0.6 -0.68c-0.06,0.06 -0.11,0.14 -0.17,0.23 -0.09,0.14 -0.17,0.32 -0.25,0.53 -0.06,0.17 -0.11,0.36 -0.16,0.58 0.02,-0.2 0.06,-0.39 0.11,-0.59 0.06,-0.2 0.14,-0.39 0.24,-0.55 0.12,-0.19 0.25,-0.33 0.4,-0.43 0.09,-0.06 0.18,-0.1 0.26,-0.12 0.1,-0.02 0.19,-0.03 0.28,-0.03 -0.19,0.02 -0.36,0.08 -0.51,0.2 -0.08,0.06 -0.15,0.12 -0.21,0.19zm1.51 1.45c-0.04,-0.02 -0.05,-0.06 -0.03,-0.12 0.01,-0.02 0.03,-0.06 0.05,-0.11l0.02 -0.03 0.02 -0.03c0.01,-0.03 0.03,-0.05 0.04,-0.08 0.06,-0.14 0.11,-0.27 0.13,-0.4 0.04,-0.18 0.04,-0.37 0.01,-0.56 -0.03,-0.21 -0.14,-0.4 -0.34,-0.55 -0.19,-0.15 -0.41,-0.23 -0.66,-0.24 -0.27,-0.01 -0.53,0.08 -0.76,0.25 -0.27,0.2 -0.48,0.51 -0.63,0.93 -0.16,0.43 -0.25,0.9 -0.26,1.4 -0.01,0.52 0.05,0.99 0.19,1.42 0.15,0.47 0.38,0.83 0.68,1.08 0.34,0.28 0.74,0.4 1.22,0.37 0.45,-0.03 0.81,-0.19 1.08,-0.48 0.25,-0.26 0.38,-0.58 0.4,-0.97 0.02,-0.38 -0.06,-0.74 -0.26,-1.08 -0.21,-0.36 -0.52,-0.63 -0.91,-0.8z"/>
  <path id="_15_14" class="fil1" d="M22.76 13.21c-0.04,0.07 -0.1,0.12 -0.17,0.16 -0.07,0.04 -0.14,0.05 -0.21,0.03 0.14,-0.03 0.25,-0.1 0.33,-0.23 0.03,-0.05 0.06,-0.12 0.08,-0.19 0.01,-0.07 0.02,-0.14 0.02,-0.22 0.03,0.07 0.04,0.15 0.03,0.23 -0,0.08 -0.03,0.16 -0.07,0.22zm-0.62 -0.29c-0.03,-0.07 -0.05,-0.15 -0.03,-0.22 0.01,-0.07 0.04,-0.12 0.09,-0.15 0.05,-0.03 0.11,-0.02 0.16,0.01 0.06,0.03 0.11,0.09 0.14,0.16 0.04,0.08 0.05,0.15 0.03,0.22 -0.01,0.07 -0.04,0.12 -0.09,0.15 -0.05,0.03 -0.1,0.02 -0.16,-0.01 -0.06,-0.03 -0.11,-0.09 -0.14,-0.16zm-0.33 -3.16c-0.04,0.02 -0.09,0.06 -0.15,0.1 -0.08,0.07 -0.16,0.16 -0.24,0.27 -0.06,0.08 -0.13,0.18 -0.21,0.31 -0.03,0.04 -0.06,0.1 -0.1,0.16l-0.09 0.16c0.05,-0.14 0.09,-0.26 0.14,-0.35 0.06,-0.12 0.12,-0.23 0.2,-0.33 0.09,-0.11 0.17,-0.2 0.27,-0.27 0.12,-0.09 0.23,-0.13 0.34,-0.12 -0.06,0.01 -0.11,0.03 -0.16,0.06zm0.91 1.84c-0.12,-0.04 -0.19,-0.11 -0.23,-0.21 -0.03,-0.08 -0.03,-0.19 -0,-0.35 0,-0.03 0.01,-0.06 0.02,-0.11l0.02 -0.11c0.02,-0.1 0.03,-0.18 0.04,-0.24 0.03,-0.19 0.03,-0.37 0.02,-0.51 -0.03,-0.21 -0.1,-0.38 -0.22,-0.51 -0.12,-0.13 -0.27,-0.18 -0.45,-0.16 -0.19,0.02 -0.37,0.12 -0.56,0.31 -0.21,0.21 -0.41,0.52 -0.58,0.92 -0.18,0.42 -0.29,0.87 -0.34,1.35 -0.05,0.5 -0.03,0.96 0.08,1.38 0.11,0.46 0.31,0.81 0.58,1.07 0.31,0.28 0.69,0.42 1.16,0.42 0.45,-0.01 0.82,-0.15 1.11,-0.44 0.27,-0.26 0.43,-0.59 0.49,-0.98 0.05,-0.39 -0.01,-0.76 -0.2,-1.09 -0.2,-0.36 -0.51,-0.61 -0.93,-0.75zm1.46 -1.76c-0.04,0.04 -0.07,0.09 -0.09,0.14 -0.02,0.05 -0.03,0.11 -0.03,0.18 -0,0.09 0,0.22 0.03,0.38l0.03 0.19 0.03 0.19c-0.05,-0.14 -0.09,-0.26 -0.12,-0.37 -0.03,-0.15 -0.05,-0.28 -0.05,-0.39 0.01,-0.08 0.02,-0.14 0.04,-0.2 0.03,-0.07 0.07,-0.13 0.11,-0.17 0.1,-0.08 0.21,-0.11 0.35,-0.09 -0.13,0.02 -0.23,0.06 -0.31,0.14zm1.23 0.21c-0.1,-0.2 -0.23,-0.36 -0.39,-0.47 -0.14,-0.1 -0.3,-0.16 -0.46,-0.17 -0.15,-0.01 -0.3,0.02 -0.43,0.08 -0.13,0.07 -0.23,0.17 -0.29,0.29 -0.11,0.24 -0.11,0.59 0.01,1.05 0.02,0.07 0.04,0.17 0.08,0.29l0.04 0.15 0.04 0.14c0.06,0.23 0.1,0.42 0.12,0.58 0.04,0.37 0.06,0.75 0.05,1.14 -0,0.12 -0.01,0.27 -0.02,0.44l-0 0.1 -0 0.1c-0,0.07 -0.01,0.13 -0.01,0.18 -0.01,0.24 0.01,0.41 0.04,0.51 0.04,0.12 0.13,0.2 0.26,0.24 0.25,0.06 0.48,-0.08 0.69,-0.44 0.18,-0.32 0.32,-0.76 0.42,-1.32 0.09,-0.54 0.13,-1.07 0.11,-1.6 -0.02,-0.56 -0.11,-0.98 -0.26,-1.28z"/>
  <path id="_16_15" class="fil1" d="M27.31 9.89c-0.02,0.01 -0.05,0.02 -0.07,0.04l-0.07 0.04 -0.07 0.04c-0.03,0.02 -0.05,0.03 -0.07,0.05 -0.08,0.05 -0.16,0.12 -0.25,0.21 -0.1,0.1 -0.16,0.19 -0.2,0.26 -0.11,0.18 -0.19,0.39 -0.22,0.63 -0.01,0.05 -0.02,0.11 -0.02,0.17l-0.01 0.18c-0,0.05 -0.01,0.11 -0.01,0.18l-0 0.18c-0.02,-0.25 -0.03,-0.48 -0.01,-0.71 0.02,-0.25 0.1,-0.47 0.22,-0.67l0.05 -0.07 0.05 -0.07c0.01,-0.02 0.03,-0.04 0.05,-0.06l0.03 -0.03 0.03 -0.03c0.11,-0.1 0.19,-0.17 0.26,-0.21 0.18,-0.12 0.38,-0.2 0.61,-0.24l-0.08 0.03 -0.08 0.03c-0.05,0.02 -0.1,0.04 -0.15,0.06zm2.47 0.71c-0.2,-0.46 -0.5,-0.79 -0.91,-0.99 -0.37,-0.19 -0.77,-0.24 -1.2,-0.16 -0.42,0.08 -0.78,0.26 -1.08,0.56 -0.32,0.32 -0.5,0.71 -0.54,1.17 -0.08,0.86 0.05,1.71 0.37,2.53 0.14,0.37 0.3,0.66 0.48,0.87 0.19,0.22 0.38,0.32 0.56,0.29 0.26,-0.04 0.42,-0.2 0.47,-0.5 0.06,-0.33 0.02,-0.91 -0.12,-1.73 -0.11,-0.65 -0.05,-0.99 0.2,-1.03 0.14,-0.02 0.25,0.1 0.32,0.34 0.07,0.23 0.1,0.52 0.09,0.87 -0.03,0.77 0.05,1.31 0.23,1.62 0.13,0.23 0.33,0.34 0.59,0.32 0.22,-0.01 0.41,-0.17 0.56,-0.46 0.14,-0.27 0.24,-0.63 0.29,-1.07 0.05,-0.44 0.05,-0.89 0,-1.35 -0.06,-0.49 -0.16,-0.92 -0.33,-1.29z"/>
  <path id="_17_16" class="fil1" d="M33.72 9.81c-0.05,0.05 -0.09,0.1 -0.14,0.18 -0.07,0.1 -0.15,0.23 -0.24,0.39l-0.06 0.1 -0.06 0.1c-0.04,0.08 -0.08,0.14 -0.12,0.2 -0.06,0.08 -0.1,0.14 -0.14,0.18 -0.07,0.06 -0.13,0.1 -0.2,0.11 0.07,-0.03 0.12,-0.08 0.17,-0.14 0.04,-0.05 0.08,-0.11 0.13,-0.19 0.03,-0.05 0.06,-0.12 0.11,-0.21l0.11 -0.2c0.1,-0.17 0.18,-0.3 0.25,-0.39 0.06,-0.07 0.11,-0.13 0.16,-0.17 0.08,-0.06 0.14,-0.09 0.2,-0.08 -0.06,0.01 -0.12,0.05 -0.18,0.11zm-2.25 3.42c-0.06,0.05 -0.1,0.08 -0.14,0.11 -0.11,0.09 -0.19,0.17 -0.25,0.25 -0.03,0.05 -0.06,0.11 -0.09,0.16 -0.02,0.05 -0.03,0.11 -0.05,0.18 -0,-0.06 0,-0.13 0.02,-0.19 0.02,-0.06 0.04,-0.12 0.08,-0.18 0.05,-0.09 0.14,-0.18 0.25,-0.28 0.08,-0.06 0.18,-0.13 0.29,-0.21l0.08 -0.05 0.07 -0.05c0.06,-0.04 0.11,-0.07 0.15,-0.1 -0.06,0.08 -0.15,0.16 -0.27,0.25l-0.14 0.11zm-0.59 -3.09c-0.03,0.05 -0.06,0.11 -0.08,0.18 -0.02,0.06 -0.03,0.13 -0.03,0.21 -0.03,-0.07 -0.04,-0.14 -0.03,-0.22 0.01,-0.08 0.03,-0.15 0.08,-0.22 0.04,-0.07 0.1,-0.11 0.17,-0.14 0.07,-0.03 0.14,-0.04 0.21,-0.03 -0.14,0.03 -0.24,0.1 -0.32,0.22zm3.03 -0.74c-0.14,0 -0.28,0.07 -0.42,0.22 -0.1,0.11 -0.22,0.27 -0.34,0.48l-0.07 0.13 -0.03 0.06 -0.03 0.06c-0.06,0.1 -0.1,0.18 -0.13,0.22 -0.09,0.15 -0.16,0.22 -0.21,0.22 -0.05,0 -0.17,-0.1 -0.34,-0.3l-0.03 -0.04 -0.03 -0.04c-0.02,-0.03 -0.04,-0.05 -0.06,-0.07 -0.05,-0.06 -0.1,-0.11 -0.14,-0.16 -0.11,-0.12 -0.23,-0.23 -0.34,-0.33 -0.17,-0.15 -0.36,-0.23 -0.55,-0.23 -0.17,0 -0.32,0.06 -0.45,0.19 -0.13,0.12 -0.21,0.28 -0.23,0.47 -0.03,0.2 0.01,0.4 0.11,0.6 0.08,0.14 0.19,0.29 0.33,0.45 0.06,0.06 0.12,0.13 0.2,0.2l0.1 0.1 0.1 0.09c0.16,0.15 0.27,0.27 0.34,0.34 0.1,0.12 0.15,0.22 0.15,0.31 0.01,0.1 -0.05,0.2 -0.16,0.3 -0.04,0.04 -0.1,0.09 -0.18,0.14l-0.05 0.03 -0.05 0.04 -0.11 0.08c-0.18,0.13 -0.31,0.26 -0.4,0.38 -0.13,0.17 -0.19,0.36 -0.2,0.57 -0.01,0.16 0.02,0.31 0.08,0.45 0.06,0.14 0.15,0.25 0.27,0.33 0.26,0.19 0.59,0.22 0.97,0.09 0.52,-0.17 1.04,-0.66 1.56,-1.46 0.46,-0.72 0.76,-1.4 0.89,-2.05 0.13,-0.67 0.14,-1.16 0.02,-1.48 -0.1,-0.27 -0.29,-0.4 -0.56,-0.4z"/>
  <path id="_18_17" class="fil1" d="M37.85 12.73c-0.02,0.01 -0.05,0.03 -0.07,0.06l-0.04 0.03 -0.04 0.03c-0.06,0.05 -0.12,0.08 -0.18,0.09 -0.07,0.02 -0.14,0.02 -0.2,0.01 0.12,-0.03 0.23,-0.08 0.34,-0.16l0.04 -0.03 0.04 -0.03c0.03,-0.02 0.07,-0.04 0.09,-0.05 0.07,-0.03 0.14,-0.04 0.2,-0.03 -0.06,0.01 -0.12,0.04 -0.17,0.08zm-2.02 -2.53c-0.12,0.14 -0.23,0.3 -0.33,0.48 -0.08,0.15 -0.16,0.34 -0.22,0.56 0.04,-0.2 0.09,-0.4 0.18,-0.58 0.08,-0.19 0.19,-0.35 0.32,-0.5 0.14,-0.16 0.3,-0.27 0.47,-0.35 0.1,-0.04 0.19,-0.06 0.28,-0.08 0.1,-0.02 0.2,-0.02 0.28,-0.01 -0.2,0.02 -0.38,0.06 -0.54,0.14 -0.17,0.09 -0.31,0.21 -0.44,0.35zm2.78 2.93c-0.03,-0.39 -0.16,-0.64 -0.39,-0.74 -0.1,-0.04 -0.21,-0.05 -0.32,-0.02 -0.11,0.03 -0.22,0.09 -0.33,0.17 -0.1,0.08 -0.21,0.12 -0.31,0.11 -0.1,-0.01 -0.2,-0.06 -0.28,-0.16 -0.09,-0.1 -0.15,-0.22 -0.19,-0.37 -0.04,-0.17 -0.05,-0.34 -0.02,-0.53 0.04,-0.28 0.16,-0.43 0.37,-0.47 0.15,-0.02 0.36,0.02 0.64,0.12 0.12,0.05 0.23,0.04 0.33,-0.01 0.1,-0.05 0.17,-0.13 0.22,-0.24 0.05,-0.12 0.06,-0.25 0.04,-0.4 -0.02,-0.16 -0.08,-0.31 -0.18,-0.45 -0.21,-0.31 -0.49,-0.52 -0.83,-0.64 -0.32,-0.11 -0.64,-0.12 -0.96,-0.03 -0.42,0.11 -0.76,0.4 -1.03,0.87 -0.3,0.51 -0.45,1.14 -0.45,1.9 0,0.86 0.2,1.52 0.61,2.01 0.19,0.23 0.41,0.4 0.67,0.5 0.26,0.11 0.54,0.15 0.84,0.12 0.51,-0.05 0.91,-0.24 1.22,-0.59 0.29,-0.33 0.42,-0.71 0.38,-1.14z"/>
  <path id="_19_18" class="fil1" d="M41.31 10.6c-0.09,0.13 -0.19,0.24 -0.28,0.32 -0.12,0.11 -0.23,0.19 -0.34,0.24 0.09,-0.06 0.19,-0.15 0.31,-0.28 0.09,-0.1 0.18,-0.21 0.26,-0.33 0.04,-0.06 0.08,-0.12 0.12,-0.17l0.03 -0.05 0.03 -0.04c0.02,-0.04 0.04,-0.07 0.06,-0.09 0.05,-0.06 0.1,-0.1 0.16,-0.14 0.07,-0.04 0.14,-0.05 0.2,-0.04 -0.12,0.01 -0.23,0.08 -0.32,0.22 -0.02,0.02 -0.03,0.05 -0.06,0.09l-0.03 0.05 -0.03 0.05c-0.03,0.05 -0.07,0.11 -0.12,0.18zm-1.38 -0.84c-0.05,0.03 -0.09,0.08 -0.13,0.13 -0.06,0.08 -0.12,0.19 -0.18,0.34 -0.04,0.09 -0.08,0.21 -0.13,0.38l-0.05 0.2 -0.05 0.19c0.01,-0.16 0.03,-0.29 0.06,-0.4 0.03,-0.14 0.07,-0.27 0.12,-0.39 0.06,-0.15 0.13,-0.27 0.2,-0.35 0.05,-0.05 0.1,-0.09 0.15,-0.12 0.06,-0.03 0.13,-0.04 0.19,-0.04 -0.06,0.01 -0.12,0.03 -0.17,0.07zm1.57 2.21c-0.09,-0.06 -0.12,-0.11 -0.07,-0.15 0.02,-0.02 0.06,-0.04 0.11,-0.07l0.04 -0.02 0.04 -0.02c0.04,-0.02 0.07,-0.03 0.09,-0.05 0.18,-0.09 0.32,-0.2 0.42,-0.3 0.16,-0.16 0.27,-0.35 0.34,-0.57 0.06,-0.21 0.06,-0.4 -0.01,-0.59 -0.06,-0.17 -0.17,-0.3 -0.32,-0.38 -0.15,-0.08 -0.3,-0.1 -0.46,-0.05 -0.18,0.05 -0.33,0.18 -0.46,0.39 -0.21,0.35 -0.42,0.59 -0.61,0.72 -0.08,0.05 -0.13,0.07 -0.16,0.05 -0.03,-0.03 -0.02,-0.09 0.02,-0.18 0.17,-0.38 0.22,-0.69 0.16,-0.93 -0.05,-0.2 -0.18,-0.32 -0.37,-0.37 -0.4,-0.1 -0.71,0.11 -0.92,0.64 -0.18,0.43 -0.29,1.05 -0.34,1.86 -0.05,0.82 -0.02,1.48 0.1,1.98 0.15,0.61 0.4,0.9 0.78,0.89 0.34,-0.01 0.54,-0.29 0.6,-0.82 0.02,-0.18 0.02,-0.38 0,-0.61 -0.01,-0.08 -0.02,-0.16 -0.03,-0.24 -0,-0.03 -0.01,-0.06 -0.01,-0.09l-0 -0.04 -0 -0.02 0 -0.01c-0.01,-0.07 -0,-0.12 0.02,-0.14 0.03,-0.02 0.07,-0.01 0.12,0.03 0.13,0.12 0.25,0.41 0.36,0.87 0.07,0.3 0.18,0.54 0.31,0.73 0.13,0.17 0.27,0.29 0.43,0.35 0.15,0.05 0.31,0.05 0.46,-0.01 0.15,-0.06 0.28,-0.18 0.38,-0.34 0.11,-0.18 0.17,-0.39 0.18,-0.62 0,-0.22 -0.04,-0.45 -0.14,-0.68 -0.21,-0.49 -0.57,-0.89 -1.09,-1.2z"/>
  <path id="_20_19" class="fil1" d="M0.97 9.8c-0.06,0.03 -0.12,0.05 -0.16,0.08 -0.05,0.03 -0.1,0.07 -0.15,0.11 -0.1,0.08 -0.18,0.18 -0.24,0.29 -0.06,0.13 -0.1,0.26 -0.11,0.38 -0.02,-0.13 0,-0.27 0.06,-0.41 0.05,-0.12 0.13,-0.23 0.25,-0.32 0.11,-0.09 0.22,-0.15 0.34,-0.19 0.13,-0.04 0.25,-0.05 0.38,-0.03 -0.12,0.01 -0.24,0.04 -0.36,0.09zm1.3 0.45c-0.11,-0.3 -0.26,-0.52 -0.46,-0.66 -0.17,-0.12 -0.37,-0.18 -0.59,-0.16 -0.2,0.01 -0.39,0.07 -0.58,0.19 -0.18,0.11 -0.32,0.24 -0.42,0.4 -0.08,0.13 -0.14,0.27 -0.17,0.42 -0.03,0.14 -0.03,0.27 -0,0.39 0.03,0.12 0.08,0.21 0.15,0.27 0.08,0.07 0.18,0.09 0.3,0.07 0.14,-0.02 0.25,0.09 0.3,0.33 0.02,0.09 0.04,0.2 0.05,0.33 0,0.05 0.01,0.1 0.01,0.16l0 0.07 0 0.07c0.02,0.37 0.01,0.75 -0.01,1.14 -0.01,0.13 -0.02,0.28 -0.04,0.44l-0.01 0.1 -0.01 0.1c-0.01,0.07 -0.01,0.13 -0.02,0.18 -0.02,0.24 -0.02,0.41 0.01,0.51 0.04,0.13 0.12,0.21 0.25,0.26 0.25,0.08 0.49,-0.05 0.71,-0.39 0.2,-0.3 0.36,-0.73 0.48,-1.29 0.12,-0.53 0.18,-1.06 0.19,-1.6 0.01,-0.56 -0.04,-1 -0.16,-1.32z"/>
  <g id="_2638191200">
   <path class="fil0" d="M11.88 8.6c-0.03,0.03 -0.06,0.08 -0.08,0.13 -0.01,-0.06 0.01,-0.11 0.05,-0.15 0.02,-0.02 0.04,-0.04 0.07,-0.05 0.03,-0.01 0.06,-0.01 0.08,-0.01 -0.05,0.01 -0.09,0.04 -0.13,0.08zm0.13 -0.21c-0.08,0 -0.16,0.03 -0.22,0.1 -0.06,0.06 -0.1,0.14 -0.11,0.23 -0.01,0.09 0,0.17 0.05,0.25 0.05,0.08 0.11,0.13 0.19,0.15 0.09,0.03 0.18,0.01 0.26,-0.05 0.08,-0.06 0.13,-0.15 0.15,-0.26 0.02,-0.11 -0.01,-0.21 -0.07,-0.29 -0.06,-0.08 -0.14,-0.12 -0.24,-0.12z"/>
   <path id="_1_20" class="fil0" d="M13.35 8.6c-0.03,0.03 -0.06,0.08 -0.08,0.13 -0.01,-0.06 0.01,-0.11 0.05,-0.15 0.02,-0.02 0.04,-0.04 0.07,-0.05 0.03,-0.01 0.06,-0.01 0.08,-0.01 -0.05,0.01 -0.09,0.04 -0.13,0.08zm0.13 -0.21c-0.08,0 -0.16,0.03 -0.22,0.1 -0.06,0.06 -0.1,0.14 -0.11,0.23 -0.01,0.09 0,0.17 0.05,0.25 0.05,0.08 0.11,0.13 0.19,0.15 0.09,0.03 0.18,0.01 0.26,-0.05 0.08,-0.06 0.13,-0.15 0.15,-0.26 0.02,-0.11 -0.01,-0.21 -0.07,-0.29 -0.06,-0.08 -0.14,-0.12 -0.24,-0.12z"/>
   <path class="fil1" d="M11.84 8.44c-0.03,0.03 -0.06,0.08 -0.08,0.13 -0.01,-0.06 0.01,-0.11 0.05,-0.15 0.02,-0.02 0.04,-0.04 0.07,-0.05 0.03,-0.01 0.06,-0.01 0.08,-0.01 -0.05,0.01 -0.09,0.04 -0.13,0.08zm0.13 -0.21c-0.08,0 -0.16,0.03 -0.22,0.1 -0.06,0.06 -0.1,0.14 -0.11,0.23 -0.01,0.09 0,0.17 0.05,0.25 0.05,0.08 0.11,0.13 0.19,0.15 0.09,0.03 0.18,0.01 0.26,-0.05 0.08,-0.06 0.13,-0.15 0.15,-0.26 0.01,-0.11 -0.01,-0.21 -0.07,-0.29 -0.06,-0.08 -0.14,-0.12 -0.24,-0.12z"/>
   <path id="_1_21" class="fil1" d="M13.31 8.44c-0.03,0.03 -0.06,0.08 -0.08,0.13 -0.01,-0.06 0.01,-0.11 0.05,-0.15 0.02,-0.02 0.04,-0.04 0.07,-0.05 0.03,-0.01 0.06,-0.01 0.08,-0.01 -0.05,0.01 -0.09,0.04 -0.13,0.08zm0.13 -0.21c-0.08,0 -0.16,0.03 -0.22,0.1 -0.06,0.06 -0.1,0.14 -0.11,0.23 -0.01,0.09 0,0.17 0.05,0.25 0.05,0.08 0.11,0.13 0.19,0.15 0.09,0.03 0.18,0.01 0.26,-0.05 0.08,-0.06 0.13,-0.15 0.15,-0.26 0.01,-0.11 -0.01,-0.21 -0.07,-0.29 -0.06,-0.08 -0.14,-0.12 -0.24,-0.12z"/>
  </g>
  <g id="_2638189424">
   <path class="fil0" d="M24.88 0.37c-0.03,0.03 -0.06,0.08 -0.08,0.13 -0.01,-0.06 0.01,-0.11 0.05,-0.15 0.02,-0.02 0.04,-0.04 0.07,-0.05 0.03,-0.01 0.06,-0.01 0.08,-0.01 -0.05,0.01 -0.09,0.04 -0.13,0.08zm0.13 -0.21c-0.08,0 -0.16,0.03 -0.22,0.1 -0.06,0.06 -0.1,0.14 -0.11,0.23 -0.01,0.09 0,0.17 0.05,0.25 0.05,0.08 0.11,0.13 0.19,0.15 0.09,0.03 0.18,0.01 0.26,-0.05 0.08,-0.06 0.13,-0.15 0.15,-0.26 0.01,-0.11 -0.01,-0.21 -0.07,-0.29 -0.06,-0.08 -0.14,-0.12 -0.24,-0.12z"/>
   <path id="_1_22" class="fil0" d="M26.35 0.37c-0.03,0.03 -0.06,0.08 -0.08,0.13 -0.01,-0.06 0.01,-0.11 0.05,-0.15 0.02,-0.02 0.04,-0.04 0.07,-0.05 0.03,-0.01 0.06,-0.01 0.08,-0.01 -0.05,0.01 -0.09,0.04 -0.13,0.08zm0.13 -0.21c-0.08,0 -0.16,0.03 -0.22,0.1 -0.06,0.06 -0.1,0.14 -0.11,0.23 -0.01,0.09 0,0.17 0.05,0.25 0.05,0.08 0.11,0.13 0.19,0.15 0.09,0.03 0.18,0.01 0.26,-0.05 0.08,-0.06 0.13,-0.15 0.15,-0.26 0.01,-0.11 -0.01,-0.21 -0.07,-0.29 -0.06,-0.08 -0.14,-0.12 -0.24,-0.12z"/>
   <path class="fil1" d="M24.83 0.21c-0.03,0.03 -0.06,0.08 -0.08,0.13 -0.01,-0.06 0.01,-0.11 0.05,-0.15 0.02,-0.02 0.04,-0.04 0.07,-0.05 0.03,-0.01 0.06,-0.01 0.08,-0.01 -0.05,0.01 -0.09,0.04 -0.13,0.08zm0.13 -0.21c-0.08,0 -0.16,0.03 -0.22,0.1 -0.06,0.06 -0.1,0.14 -0.11,0.23 -0.01,0.09 0,0.17 0.05,0.25 0.05,0.08 0.11,0.13 0.19,0.15 0.09,0.03 0.18,0.01 0.26,-0.05 0.08,-0.06 0.13,-0.15 0.15,-0.26 0.02,-0.11 -0.01,-0.21 -0.07,-0.29 -0.06,-0.08 -0.14,-0.12 -0.24,-0.12z"/>
   <path id="_1_23" class="fil1" d="M26.3 0.21c-0.03,0.03 -0.06,0.08 -0.08,0.13 -0.01,-0.06 0.01,-0.11 0.05,-0.15 0.02,-0.02 0.04,-0.04 0.07,-0.05 0.03,-0.01 0.06,-0.01 0.08,-0.01 -0.05,0.01 -0.09,0.04 -0.13,0.08zm0.13 -0.21c-0.08,0 -0.16,0.03 -0.22,0.1 -0.06,0.06 -0.1,0.14 -0.11,0.23 -0.01,0.09 0,0.17 0.05,0.25 0.05,0.08 0.11,0.13 0.19,0.15 0.09,0.03 0.18,0.01 0.26,-0.05 0.08,-0.06 0.13,-0.15 0.15,-0.26 0.02,-0.11 -0.01,-0.21 -0.07,-0.29 -0.06,-0.08 -0.14,-0.12 -0.24,-0.12z"/>
  </g>
 </g>
</svg>
