<?xml version="1.0" encoding="UTF-8"?>
<!DOCTYPE svg PUBLIC "-//W3C//DTD SVG 1.1//EN" "http://www.w3.org/Graphics/SVG/1.1/DTD/svg11.dtd">
<!-- Creator: CorelDRAW 2019 (64-Bit) -->
<svg xmlns="http://www.w3.org/2000/svg" xml:space="preserve" width="4.01639cm" height="0.22462cm" version="1.1" style="shape-rendering:geometricPrecision; text-rendering:geometricPrecision; image-rendering:optimizeQuality; fill-rule:evenodd; clip-rule:evenodd"
viewBox="0 0 17.071 0.955"
 xmlns:xlink="http://www.w3.org/1999/xlink"
 xmlns:xodm="http://www.corel.com/coreldraw/odm/2003">
 <defs>
  <style type="text/css">
   <![CDATA[
    .fil0 {fill:#A39F6B;fill-rule:nonzero}
   ]]>
  </style>
 </defs>
 <g id="Слой_x0020_1">
  <metadata id="CorelCorpID_0Corel-Layer"/>
  <g id="_1963258739712">
   <path class="fil0" d="M0.294 0.607c-0.004,0.01 -0.011,0.017 -0.019,0.022 -0.009,0.005 -0.018,0.007 -0.027,0.006 0.009,-0.002 0.017,-0.006 0.023,-0.011 0.007,-0.006 0.012,-0.013 0.016,-0.021 0.007,-0.015 0.008,-0.034 0.003,-0.055 0.005,0.008 0.008,0.018 0.009,0.028 0.001,0.01 -0.001,0.021 -0.005,0.03zm-0.075 -0.025c-0.005,-0.008 -0.006,-0.017 -0.006,-0.025 0.001,-0.008 0.004,-0.014 0.009,-0.018 0.006,-0.004 0.012,-0.004 0.019,-0 0.007,0.003 0.013,0.009 0.018,0.018 0.005,0.009 0.006,0.017 0.006,0.025 -0.001,0.009 -0.004,0.015 -0.009,0.018 -0.006,0.004 -0.012,0.004 -0.019,0 -0.007,-0.003 -0.013,-0.009 -0.018,-0.018zm-0.039 -0.182c0.006,-0.002 0.012,-0.005 0.018,-0.008 0.006,-0.004 0.01,-0.008 0.014,-0.013 0.004,-0.005 0.008,-0.01 0.011,-0.017 0.003,-0.006 0.005,-0.012 0.008,-0.019 0.002,0.015 -0.003,0.029 -0.013,0.041 -0.005,0.006 -0.011,0.01 -0.017,0.013 -0.007,0.003 -0.014,0.004 -0.02,0.002zm-0.01 -0.063c0.003,-0.006 0.007,-0.01 0.011,-0.013 0.004,-0.003 0.009,-0.003 0.013,-0 0.003,0.002 0.006,0.006 0.006,0.012 0.001,0.005 -0,0.011 -0.003,0.017 -0.003,0.006 -0.007,0.01 -0.011,0.012 -0.005,0.003 -0.009,0.003 -0.012,0 -0.004,-0.002 -0.006,-0.006 -0.006,-0.012 -0.001,-0.006 0,-0.011 0.003,-0.017zm-0.07 -0.077c-0.006,0.007 -0.013,0.016 -0.019,0.027 -0.01,0.017 -0.019,0.037 -0.027,0.062 -0.006,0.019 -0.012,0.041 -0.018,0.067 0.002,-0.023 0.006,-0.046 0.012,-0.069 0.006,-0.023 0.015,-0.045 0.027,-0.064 0.013,-0.022 0.028,-0.039 0.045,-0.05 0.011,-0.007 0.021,-0.012 0.03,-0.015 0.011,-0.003 0.022,-0.004 0.032,-0.004 -0.022,0.003 -0.042,0.01 -0.059,0.024 -0.009,0.007 -0.016,0.014 -0.023,0.022zm0.177 0.164c-0.005,-0.002 -0.006,-0.007 -0.003,-0.014 0.001,-0.003 0.003,-0.007 0.006,-0.013l0.002 -0.004 0.002 -0.004c0.001,-0.003 0.003,-0.006 0.004,-0.009 0.007,-0.016 0.012,-0.031 0.014,-0.046 0.004,-0.021 0.004,-0.042 -0,-0.065 -0.004,-0.025 -0.018,-0.045 -0.04,-0.062 -0.023,-0.017 -0.048,-0.026 -0.077,-0.026 -0.032,-0 -0.06,0.01 -0.087,0.031 -0.03,0.024 -0.054,0.06 -0.07,0.108 -0.017,0.05 -0.026,0.104 -0.027,0.162 -0,0.06 0.008,0.114 0.026,0.163 0.019,0.054 0.046,0.095 0.081,0.123 0.04,0.031 0.087,0.045 0.141,0.04 0.052,-0.005 0.093,-0.024 0.123,-0.058 0.028,-0.03 0.042,-0.068 0.044,-0.113 0.002,-0.044 -0.009,-0.085 -0.032,-0.124 -0.025,-0.041 -0.061,-0.071 -0.107,-0.09zm0.451 0.184c-0.005,0.008 -0.011,0.014 -0.019,0.018 -0.008,0.004 -0.016,0.006 -0.024,0.004 0.017,-0.003 0.029,-0.012 0.037,-0.027 0.004,-0.006 0.006,-0.013 0.009,-0.022 0.001,-0.008 0.002,-0.016 0.001,-0.026 0.003,0.008 0.005,0.017 0.004,0.027 -0,0.01 -0.003,0.018 -0.008,0.026zm-0.072 -0.032c-0.004,-0.008 -0.006,-0.017 -0.005,-0.025 0.001,-0.009 0.004,-0.014 0.01,-0.018 0.006,-0.003 0.012,-0.003 0.019,0.001 0.007,0.004 0.013,0.01 0.017,0.018 0.004,0.009 0.006,0.017 0.005,0.025 -0.001,0.008 -0.004,0.014 -0.01,0.017 -0.006,0.003 -0.012,0.003 -0.018,-0.001 -0.007,-0.004 -0.013,-0.01 -0.017,-0.019zm-0.045 -0.363c-0.005,0.003 -0.01,0.007 -0.017,0.012 -0.009,0.009 -0.018,0.019 -0.027,0.032 -0.007,0.009 -0.015,0.021 -0.023,0.036 -0.003,0.005 -0.007,0.011 -0.011,0.019l-0.01 0.019c0.005,-0.017 0.01,-0.03 0.016,-0.041 0.006,-0.014 0.014,-0.027 0.022,-0.038 0.01,-0.013 0.02,-0.024 0.03,-0.032 0.014,-0.01 0.027,-0.015 0.039,-0.014 -0.007,0.001 -0.013,0.004 -0.019,0.007zm0.109 0.21c-0.014,-0.004 -0.023,-0.012 -0.027,-0.024 -0.003,-0.009 -0.003,-0.022 -0.001,-0.04 0.001,-0.003 0.001,-0.008 0.002,-0.012l0.002 -0.012c0.002,-0.011 0.003,-0.02 0.004,-0.027 0.003,-0.022 0.003,-0.042 0.001,-0.059 -0.003,-0.025 -0.012,-0.044 -0.027,-0.058 -0.015,-0.014 -0.032,-0.02 -0.052,-0.018 -0.021,0.002 -0.043,0.015 -0.064,0.037 -0.024,0.025 -0.046,0.061 -0.064,0.108 -0.02,0.048 -0.032,0.101 -0.036,0.156 -0.005,0.058 -0.001,0.111 0.012,0.159 0.014,0.052 0.037,0.093 0.069,0.122 0.036,0.032 0.081,0.047 0.135,0.046 0.051,-0.002 0.094,-0.019 0.127,-0.053 0.03,-0.031 0.048,-0.069 0.054,-0.115 0.005,-0.046 -0.003,-0.087 -0.025,-0.125 -0.024,-0.041 -0.061,-0.069 -0.109,-0.084zm0.165 -0.206c-0.004,0.004 -0.008,0.01 -0.01,0.017 -0.002,0.006 -0.003,0.013 -0.003,0.021 -0,0.011 0.001,0.025 0.004,0.043l0.004 0.021 0.004 0.022c-0.006,-0.015 -0.011,-0.029 -0.014,-0.042 -0.004,-0.017 -0.007,-0.032 -0.006,-0.045 0.001,-0.009 0.002,-0.017 0.004,-0.023 0.003,-0.008 0.007,-0.015 0.013,-0.02 0.011,-0.009 0.024,-0.013 0.04,-0.012 -0.015,0.002 -0.027,0.008 -0.036,0.017zm0.142 0.022c-0.012,-0.023 -0.027,-0.041 -0.046,-0.054 -0.017,-0.011 -0.034,-0.018 -0.053,-0.019 -0.018,-0.001 -0.034,0.003 -0.049,0.011 -0.015,0.008 -0.026,0.02 -0.032,0.035 -0.012,0.028 -0.011,0.068 0.004,0.121 0.002,0.009 0.005,0.02 0.01,0.033l0.005 0.017 0.005 0.017c0.008,0.027 0.013,0.049 0.015,0.066 0.005,0.042 0.008,0.086 0.008,0.131 0,0.014 -0,0.031 -0.001,0.051l-0 0.011 -0 0.011c-0,0.008 -0.001,0.015 -0,0.02 -0,0.027 0.002,0.047 0.006,0.059 0.005,0.014 0.015,0.023 0.03,0.027 0.03,0.007 0.056,-0.011 0.078,-0.053 0.02,-0.037 0.035,-0.088 0.045,-0.153 0.01,-0.062 0.012,-0.124 0.008,-0.185 -0.004,-0.064 -0.015,-0.113 -0.033,-0.147zm0.374 0.363c-0.005,0.01 -0.011,0.017 -0.019,0.022 -0.009,0.005 -0.018,0.007 -0.027,0.006 0.009,-0.002 0.017,-0.006 0.024,-0.011 0.007,-0.006 0.012,-0.012 0.016,-0.021 0.004,-0.007 0.006,-0.016 0.007,-0.026 0.001,-0.009 0.001,-0.018 -0.001,-0.028 0.004,0.009 0.007,0.018 0.007,0.028 0,0.01 -0.002,0.02 -0.006,0.03zm-0.074 -0.031c-0.003,-0.009 -0.003,-0.017 -0.001,-0.025 0.002,-0.008 0.006,-0.013 0.013,-0.016 0.006,-0.002 0.012,-0.001 0.019,0.004 0.006,0.005 0.011,0.012 0.014,0.021 0.003,0.009 0.004,0.017 0.001,0.025 -0.002,0.008 -0.007,0.013 -0.013,0.016 -0.006,0.003 -0.012,0.001 -0.019,-0.003 -0.006,-0.005 -0.011,-0.012 -0.014,-0.021zm-0.15 -0.298c-0.011,0.018 -0.02,0.042 -0.028,0.07 -0.006,0.021 -0.011,0.047 -0.015,0.076 0,-0.012 0.001,-0.025 0.002,-0.039 0.002,-0.015 0.004,-0.028 0.007,-0.039 0.006,-0.028 0.015,-0.052 0.027,-0.073 0.007,-0.012 0.015,-0.022 0.023,-0.031 0.009,-0.009 0.019,-0.017 0.029,-0.023 0.011,-0.006 0.022,-0.012 0.034,-0.015 0.013,-0.004 0.025,-0.007 0.035,-0.007 -0.025,0.006 -0.047,0.015 -0.066,0.028 -0.022,0.015 -0.039,0.033 -0.05,0.052zm0.145 0.134c-0.016,-0.001 -0.026,-0.01 -0.029,-0.026 -0.002,-0.007 -0.001,-0.014 0.001,-0.021 0.002,-0.007 0.005,-0.013 0.01,-0.017 0.011,-0.01 0.027,-0.017 0.047,-0.021 0.007,-0.002 0.016,-0.003 0.027,-0.004l0.014 -0.002 0.013 -0.002c0.021,-0.003 0.036,-0.007 0.045,-0.013 0.013,-0.008 0.02,-0.02 0.022,-0.037 0.002,-0.025 -0.007,-0.047 -0.028,-0.067 -0.02,-0.018 -0.046,-0.031 -0.078,-0.038 -0.034,-0.007 -0.068,-0.005 -0.101,0.003 -0.037,0.01 -0.069,0.029 -0.095,0.057 -0.024,0.026 -0.042,0.064 -0.054,0.114 -0.012,0.048 -0.016,0.099 -0.013,0.153 0.003,0.056 0.013,0.107 0.031,0.152 0.019,0.049 0.045,0.084 0.078,0.107 0.028,0.02 0.058,0.032 0.091,0.037 0.031,0.004 0.061,0.002 0.09,-0.008 0.029,-0.01 0.053,-0.027 0.073,-0.05 0.021,-0.024 0.035,-0.054 0.042,-0.089 0.005,-0.026 0.006,-0.051 0.002,-0.076 -0.004,-0.027 -0.013,-0.051 -0.027,-0.072 -0.033,-0.05 -0.087,-0.077 -0.161,-0.081zm0.506 0.186l-0.006 0.002c-0.005,0.002 -0.009,0.003 -0.012,0.004 -0.009,0.003 -0.018,0.003 -0.026,0.001 0.008,-0.002 0.016,-0.004 0.024,-0.008l0.006 -0.003 0.006 -0.002c0.005,-0.002 0.009,-0.004 0.012,-0.005 0.009,-0.003 0.017,-0.006 0.025,-0.007 0.01,-0.002 0.018,-0.002 0.025,-0.001 -0.014,0.003 -0.03,0.008 -0.048,0.015l-0.006 0.002zm-0.125 -0.406c-0.012,0.004 -0.023,0.009 -0.033,0.015 -0.011,0.008 -0.021,0.016 -0.029,0.024 -0.008,0.008 -0.015,0.019 -0.021,0.032 -0.009,0.019 -0.017,0.044 -0.024,0.075 -0.003,0.012 -0.005,0.025 -0.007,0.039 -0.001,0.006 -0.002,0.012 -0.003,0.02l-0.003 0.02c-0,-0.028 0.002,-0.055 0.006,-0.081 0.005,-0.03 0.013,-0.056 0.023,-0.077 0.007,-0.014 0.014,-0.025 0.022,-0.034 0.01,-0.01 0.02,-0.018 0.031,-0.024 0.011,-0.006 0.022,-0.01 0.035,-0.013 0.013,-0.003 0.025,-0.004 0.037,-0.003 -0.014,0.001 -0.026,0.004 -0.036,0.007zm0.082 0.232l0.003 -0.001c0.003,-0.001 0.005,-0.002 0.007,-0.002 0.005,-0.001 0.01,-0.001 0.014,0 0.005,0.001 0.009,0.004 0.012,0.008 -0.003,-0.001 -0.007,-0.001 -0.013,-0.001 -0.004,0 -0.008,0.001 -0.012,0.002l-0.003 0.001 -0.003 0.001c-0.003,0.001 -0.005,0.001 -0.007,0.001 -0.005,0 -0.01,-0 -0.014,-0.002l0.006 -0.002 0.006 -0.002 0.003 -0.001zm0.021 0.142c-0.014,0.006 -0.026,0.007 -0.035,0.003 -0.008,-0.003 -0.014,-0.009 -0.016,-0.018 -0.003,-0.009 -0.002,-0.017 0.003,-0.024 0.004,-0.008 0.012,-0.013 0.021,-0.014 0.029,-0.004 0.05,-0.012 0.063,-0.026 0.013,-0.013 0.018,-0.029 0.017,-0.049 -0.001,-0.018 -0.01,-0.031 -0.025,-0.04 -0.015,-0.009 -0.033,-0.01 -0.054,-0.004 -0.018,0.005 -0.029,0 -0.035,-0.015 -0.002,-0.006 -0.002,-0.013 -0.001,-0.02 0.002,-0.007 0.005,-0.013 0.01,-0.017 0.007,-0.006 0.019,-0.011 0.035,-0.013 0.005,-0.001 0.012,-0.002 0.021,-0.003l0.011 -0.001 0.011 -0.001c0.018,-0.002 0.032,-0.005 0.041,-0.01 0.013,-0.006 0.023,-0.016 0.028,-0.03 0.009,-0.023 0.004,-0.047 -0.014,-0.07 -0.017,-0.022 -0.041,-0.04 -0.073,-0.052 -0.034,-0.012 -0.068,-0.016 -0.102,-0.011 -0.038,0.006 -0.071,0.023 -0.097,0.051 -0.025,0.026 -0.042,0.067 -0.053,0.122 -0.01,0.051 -0.014,0.107 -0.01,0.169 0.004,0.061 0.013,0.115 0.029,0.162 0.017,0.051 0.038,0.085 0.064,0.102 0.025,0.017 0.056,0.025 0.093,0.023 0.033,-0.002 0.066,-0.011 0.1,-0.028 0.033,-0.016 0.059,-0.036 0.08,-0.06 0.022,-0.026 0.033,-0.051 0.032,-0.076 -0,-0.034 -0.013,-0.055 -0.038,-0.065 -0.026,-0.01 -0.062,-0.006 -0.107,0.014zm0.452 -0.163c-0.003,0.008 -0.007,0.016 -0.013,0.023 -0.006,0.007 -0.013,0.012 -0.02,0.016 -0.008,0.004 -0.016,0.005 -0.024,0.003 0.008,-0.002 0.015,-0.005 0.022,-0.009 0.007,-0.004 0.012,-0.009 0.017,-0.015 0.01,-0.012 0.017,-0.026 0.022,-0.044 0.001,0.009 -0,0.017 -0.003,0.026zm-0.074 -0.036c0.004,-0.009 0.009,-0.015 0.016,-0.019 0.007,-0.004 0.013,-0.004 0.019,-0.001 0.006,0.003 0.009,0.009 0.011,0.017 0.001,0.009 0,0.017 -0.004,0.026 -0.004,0.009 -0.009,0.015 -0.016,0.019 -0.007,0.004 -0.013,0.004 -0.019,0.001 -0.006,-0.003 -0.009,-0.009 -0.011,-0.017 -0.001,-0.009 -0,-0.017 0.003,-0.026zm-0.065 -0.172c-0.018,0.01 -0.034,0.022 -0.047,0.038 -0.012,0.014 -0.023,0.032 -0.032,0.054 -0.007,0.017 -0.013,0.037 -0.019,0.061 0.001,-0.009 0.002,-0.02 0.005,-0.032 0.002,-0.011 0.005,-0.022 0.009,-0.032 0.007,-0.021 0.018,-0.04 0.031,-0.057 0.014,-0.017 0.031,-0.03 0.05,-0.038 0.009,-0.004 0.019,-0.007 0.029,-0.01 0.011,-0.002 0.021,-0.003 0.03,-0.003 -0.022,0.004 -0.041,0.01 -0.057,0.019zm0.074 -0.053c-0.054,0.001 -0.099,0.018 -0.133,0.051 -0.031,0.03 -0.052,0.072 -0.064,0.125 -0.011,0.049 -0.013,0.102 -0.006,0.159 0.007,0.056 0.021,0.108 0.043,0.155 0.021,0.046 0.044,0.081 0.069,0.105 0.022,0.022 0.044,0.033 0.066,0.035 0.02,0.002 0.036,-0.005 0.05,-0.02 0.014,-0.015 0.022,-0.035 0.024,-0.06 0.002,-0.017 0.001,-0.036 -0.002,-0.058 -0.001,-0.006 -0.003,-0.015 -0.005,-0.026l-0.002 -0.012c-0.001,-0.004 -0.002,-0.008 -0.002,-0.011 -0.003,-0.017 -0.003,-0.03 0,-0.04 0.003,-0.012 0.011,-0.022 0.025,-0.029 0.043,-0.023 0.075,-0.056 0.096,-0.1 0.02,-0.04 0.027,-0.082 0.021,-0.125 -0.006,-0.044 -0.024,-0.079 -0.054,-0.107 -0.032,-0.03 -0.074,-0.045 -0.126,-0.044zm0.536 0.061c-0.007,0.009 -0.014,0.02 -0.021,0.032 -0.012,0.022 -0.023,0.046 -0.031,0.071l-0.006 0.019 -0.006 0.019c-0.005,0.017 -0.009,0.029 -0.012,0.038 -0.006,0.016 -0.012,0.028 -0.018,0.036 -0.004,0.006 -0.009,0.01 -0.015,0.012 -0.005,0.002 -0.011,0.003 -0.019,0.002 0.007,-0 0.013,-0.002 0.018,-0.004 0.005,-0.003 0.009,-0.007 0.013,-0.013 0.005,-0.007 0.01,-0.019 0.015,-0.035l0.005 -0.019 0.006 -0.019c0.004,-0.015 0.008,-0.028 0.012,-0.038 0.009,-0.027 0.021,-0.051 0.034,-0.071 0.017,-0.027 0.035,-0.045 0.053,-0.056 -0.01,0.007 -0.019,0.016 -0.026,0.027zm-0.265 0.107c-0.003,0.018 -0.006,0.039 -0.009,0.064l-0.003 0.033 -0.003 0.032c-0.004,-0.064 0.002,-0.121 0.017,-0.171 0.003,-0.01 0.006,-0.019 0.009,-0.027 0.004,-0.011 0.009,-0.02 0.014,-0.027 0.013,-0.02 0.028,-0.029 0.045,-0.029 -0.021,0.003 -0.037,0.019 -0.049,0.049 -0.005,0.011 -0.009,0.025 -0.012,0.04 -0.002,0.006 -0.003,0.012 -0.004,0.019l-0.002 0.009 -0.001 0.004 -0.001 0.004zm0.368 -0.165c-0.033,-0.021 -0.067,-0.019 -0.1,0.007 -0.028,0.021 -0.052,0.055 -0.072,0.101 -0.007,0.015 -0.013,0.032 -0.02,0.051 -0.002,0.007 -0.005,0.015 -0.008,0.025l-0.003 0.011 -0.002 0.005 -0.002 0.005c-0.005,0.016 -0.009,0.027 -0.011,0.034 -0.004,0.008 -0.007,0.013 -0.011,0.012 -0.007,-0 -0.011,-0.006 -0.011,-0.017 -0.001,-0.01 0.001,-0.032 0.005,-0.068 0.007,-0.065 0.003,-0.11 -0.014,-0.136 -0.014,-0.021 -0.035,-0.028 -0.063,-0.024 -0.034,0.006 -0.061,0.042 -0.08,0.108 -0.018,0.064 -0.025,0.142 -0.02,0.233 0.008,0.168 0.056,0.258 0.143,0.269 0.025,0.003 0.05,-0.004 0.075,-0.021 0.023,-0.016 0.043,-0.038 0.059,-0.066 0.014,-0.025 0.026,-0.047 0.036,-0.068 0.004,-0.008 0.007,-0.016 0.01,-0.024 0.002,-0.005 0.005,-0.011 0.007,-0.017 0.004,-0.011 0.007,-0.017 0.008,-0.019 0.002,-0.003 0.005,-0.004 0.008,-0.003 0.003,0.001 0.004,0.013 0.002,0.036l-0.001 0.008 -0.001 0.008c-0.001,0.007 -0.001,0.014 -0.002,0.018 -0.001,0.015 -0.002,0.029 -0.002,0.04 0,0.072 0.024,0.107 0.073,0.105 0.031,-0.001 0.055,-0.03 0.071,-0.088 0.014,-0.052 0.021,-0.117 0.019,-0.195 -0.002,-0.076 -0.01,-0.145 -0.026,-0.207 -0.017,-0.066 -0.039,-0.108 -0.066,-0.125zm0.635 0.354c-0.003,0.001 -0.005,0.004 -0.008,0.007l-0.004 0.004 -0.004 0.004c-0.007,0.006 -0.014,0.009 -0.021,0.011 -0.008,0.002 -0.016,0.003 -0.023,0.001 0.014,-0.003 0.027,-0.01 0.039,-0.019l0.004 -0.004 0.004 -0.004c0.004,-0.003 0.007,-0.005 0.01,-0.006 0.008,-0.004 0.016,-0.005 0.023,-0.003 -0.007,0.002 -0.013,0.005 -0.02,0.009zm-0.239 -0.287c-0.014,0.016 -0.026,0.035 -0.036,0.056 -0.009,0.018 -0.017,0.04 -0.025,0.065 0.004,-0.023 0.01,-0.046 0.019,-0.068 0.009,-0.022 0.021,-0.041 0.036,-0.059 0.016,-0.018 0.033,-0.032 0.053,-0.041 0.011,-0.005 0.021,-0.008 0.032,-0.01 0.012,-0.002 0.023,-0.003 0.032,-0.002 -0.023,0.003 -0.044,0.008 -0.062,0.017 -0.019,0.011 -0.036,0.024 -0.05,0.041zm0.328 0.331c-0.005,-0.045 -0.02,-0.073 -0.047,-0.084 -0.012,-0.005 -0.024,-0.005 -0.037,-0.002 -0.013,0.004 -0.026,0.01 -0.037,0.021 -0.011,0.01 -0.023,0.014 -0.036,0.013 -0.012,-0.001 -0.023,-0.007 -0.033,-0.017 -0.01,-0.011 -0.018,-0.025 -0.023,-0.042 -0.005,-0.019 -0.007,-0.039 -0.004,-0.061 0.004,-0.032 0.017,-0.05 0.041,-0.055 0.017,-0.003 0.042,0.001 0.073,0.013 0.014,0.005 0.026,0.004 0.038,-0.002 0.011,-0.006 0.019,-0.015 0.024,-0.029 0.005,-0.014 0.007,-0.029 0.004,-0.046 -0.003,-0.018 -0.01,-0.035 -0.022,-0.052 -0.025,-0.035 -0.058,-0.059 -0.098,-0.071 -0.037,-0.012 -0.074,-0.012 -0.111,-0.001 -0.048,0.014 -0.087,0.047 -0.117,0.102 -0.033,0.06 -0.049,0.133 -0.047,0.22 0.002,0.099 0.027,0.175 0.075,0.23 0.022,0.026 0.049,0.045 0.079,0.056 0.03,0.012 0.062,0.016 0.097,0.012 0.058,-0.007 0.105,-0.03 0.139,-0.071 0.033,-0.039 0.046,-0.083 0.041,-0.133zm0.39 -0.392c-0.004,0.002 -0.007,0.005 -0.01,0.01 -0.004,0.007 -0.008,0.016 -0.01,0.028 -0.003,0.017 -0.003,0.038 -0.002,0.063l0 0.008 0 0.008c0,0.006 0,0.012 -0,0.017 -0.001,0.012 -0.003,0.023 -0.007,0.032 -0.004,0.011 -0.01,0.02 -0.017,0.027 -0.008,0.008 -0.016,0.013 -0.025,0.016 0.018,-0.01 0.03,-0.025 0.037,-0.046 0.003,-0.01 0.005,-0.02 0.005,-0.031 0,-0.004 0,-0.009 0,-0.015l-0.001 -0.008 -0 -0.008c-0.001,-0.026 0.001,-0.048 0.004,-0.064 0.003,-0.013 0.008,-0.023 0.013,-0.03 0.004,-0.005 0.008,-0.008 0.013,-0.009 0.004,-0.002 0.009,-0.002 0.015,-0.002 -0.006,0.001 -0.011,0.002 -0.014,0.004zm-0.272 0.017c-0.009,0.011 -0.016,0.024 -0.021,0.04 -0.004,0.013 -0.008,0.029 -0.012,0.047l-0.005 0.023 -0.005 0.024c0,-0.033 0.005,-0.065 0.014,-0.096 0.005,-0.018 0.013,-0.032 0.024,-0.043 0.006,-0.006 0.012,-0.011 0.019,-0.014 0.008,-0.003 0.015,-0.004 0.022,-0.004 -0.014,0.002 -0.027,0.009 -0.037,0.022zm0.284 -0.055c-0.027,0.002 -0.047,0.016 -0.057,0.042 -0.011,0.024 -0.015,0.062 -0.011,0.113 0.001,0.022 -0.003,0.039 -0.012,0.05 -0.008,0.01 -0.018,0.014 -0.032,0.013 -0.013,-0.001 -0.023,-0.007 -0.03,-0.018 -0.007,-0.011 -0.01,-0.026 -0.009,-0.044 0.004,-0.052 -0.001,-0.09 -0.016,-0.116 -0.013,-0.023 -0.035,-0.036 -0.066,-0.041 -0.024,-0.004 -0.046,0.003 -0.065,0.02 -0.018,0.016 -0.032,0.038 -0.04,0.067 -0.016,0.055 -0.023,0.12 -0.023,0.195 0.001,0.072 0.009,0.14 0.024,0.205 0.012,0.048 0.029,0.082 0.053,0.103 0.019,0.017 0.041,0.023 0.064,0.019 0.052,-0.009 0.074,-0.051 0.067,-0.125 -0.005,-0.054 0.005,-0.081 0.03,-0.082 0.012,-0 0.022,0.005 0.029,0.014 0.009,0.013 0.013,0.034 0.013,0.063 -0.002,0.048 0.006,0.085 0.024,0.11 0.016,0.023 0.038,0.035 0.066,0.034 0.048,-0.001 0.08,-0.034 0.098,-0.099 0.013,-0.047 0.02,-0.125 0.021,-0.233 0.001,-0.084 -0.01,-0.153 -0.033,-0.208 -0.024,-0.058 -0.055,-0.085 -0.093,-0.082zm0.45 0.374c-0.006,0.005 -0.011,0.008 -0.017,0.01 -0.007,0.002 -0.013,0.002 -0.019,0.001 0.012,-0.004 0.023,-0.009 0.032,-0.017 0.007,-0.007 0.015,-0.016 0.024,-0.029 -0.002,0.014 -0.008,0.026 -0.019,0.036zm-0.044 -0.024c-0.006,-0.003 -0.011,-0.008 -0.012,-0.016 -0.002,-0.008 -0.002,-0.017 0.001,-0.025 0.003,-0.009 0.008,-0.016 0.015,-0.021 0.007,-0.005 0.013,-0.006 0.019,-0.003 0.006,0.002 0.011,0.008 0.013,0.016 0.002,0.008 0.002,0.017 -0.001,0.026 -0.003,0.009 -0.008,0.016 -0.015,0.021 -0.007,0.004 -0.013,0.005 -0.019,0.003zm-0.07 -0.235c-0.01,0.016 -0.022,0.036 -0.036,0.062 -0.005,0.009 -0.01,0.02 -0.016,0.032l-0.016 0.032c0.007,-0.021 0.016,-0.044 0.027,-0.067 0.01,-0.022 0.022,-0.043 0.035,-0.064 0.015,-0.024 0.03,-0.043 0.044,-0.057l0.006 -0.006c0.002,-0.002 0.005,-0.004 0.006,-0.006l0.007 -0.006 0.007 -0.005c0.013,-0.007 0.024,-0.011 0.032,-0.011 -0.009,0.001 -0.019,0.006 -0.03,0.014l-0.006 0.005 -0.006 0.006c-0.002,0.002 -0.004,0.004 -0.006,0.006l-0.006 0.007c-0.013,0.016 -0.027,0.035 -0.041,0.057zm0.105 -0.129c-0.035,-0.005 -0.074,0.022 -0.117,0.081 -0.038,0.053 -0.072,0.122 -0.102,0.204 -0.029,0.082 -0.046,0.155 -0.05,0.218 -0.004,0.07 0.009,0.11 0.04,0.122 0.023,0.009 0.045,0.009 0.067,-0.002 0.016,-0.008 0.033,-0.022 0.05,-0.044 0.003,-0.004 0.007,-0.009 0.011,-0.014l0.01 -0.013c0.009,-0.012 0.015,-0.02 0.019,-0.025 0.014,-0.017 0.026,-0.025 0.035,-0.025 0.01,-0 0.023,0.007 0.038,0.022 0.005,0.005 0.012,0.012 0.021,0.023l0.011 0.012 0.011 0.013c0.019,0.019 0.036,0.032 0.05,0.039 0.02,0.009 0.039,0.008 0.059,-0.002 0.023,-0.012 0.035,-0.05 0.037,-0.113 0.002,-0.059 -0.006,-0.126 -0.022,-0.202 -0.017,-0.078 -0.04,-0.144 -0.068,-0.197 -0.032,-0.06 -0.065,-0.092 -0.101,-0.098zm0.49 0.142c0.002,0.023 0.001,0.043 -0.004,0.059 -0.003,0.01 -0.007,0.019 -0.013,0.027 -0.006,0.008 -0.014,0.013 -0.022,0.017 0.015,-0.01 0.025,-0.025 0.029,-0.045 0.003,-0.016 0.004,-0.034 0.001,-0.056 -0.002,-0.022 -0.003,-0.042 -0.002,-0.058 0.001,-0.011 0.002,-0.021 0.004,-0.029 0.003,-0.012 0.007,-0.021 0.011,-0.026 -0.004,0.007 -0.007,0.016 -0.008,0.027 -0.001,0.008 -0.002,0.018 -0.001,0.029 0,0.018 0.002,0.038 0.004,0.058zm-0.195 -0.087c-0.006,0.009 -0.011,0.02 -0.015,0.032 -0.003,0.008 -0.007,0.019 -0.011,0.034l-0.004 0.018 -0.004 0.018c-0,-0.014 0.001,-0.027 0.003,-0.037 0.002,-0.013 0.005,-0.025 0.009,-0.037 0.005,-0.013 0.011,-0.024 0.018,-0.032 0.005,-0.006 0.01,-0.01 0.014,-0.013 0.006,-0.004 0.012,-0.005 0.017,-0.005 -0.008,0.002 -0.017,0.009 -0.026,0.021zm0.35 0.219c-0.004,-0.089 -0.016,-0.157 -0.035,-0.206 -0.023,-0.055 -0.055,-0.082 -0.097,-0.08 -0.048,0.002 -0.067,0.055 -0.056,0.16 0.002,0.023 0.001,0.041 -0.005,0.053 -0.005,0.011 -0.014,0.016 -0.025,0.016 -0.013,-0 -0.022,-0.005 -0.027,-0.016 -0.006,-0.01 -0.008,-0.027 -0.008,-0.049 0.001,-0.056 -0.004,-0.096 -0.017,-0.119 -0.011,-0.022 -0.029,-0.032 -0.054,-0.032 -0.023,0 -0.043,0.015 -0.059,0.043 -0.016,0.028 -0.027,0.064 -0.031,0.11 -0.005,0.05 -0.004,0.093 0.005,0.128 0.007,0.029 0.019,0.056 0.037,0.08 0.019,0.026 0.047,0.04 0.082,0.042 0.011,0.001 0.024,0 0.039,-0.001 0.003,-0 0.005,-0.001 0.008,-0.002l0.004 -0.001 0.004 -0.001c0.005,-0.001 0.009,-0.001 0.012,-0.001 0.011,-0.001 0.02,0.003 0.027,0.013 0.009,0.013 0.014,0.034 0.015,0.063 0.001,0.048 0.011,0.085 0.028,0.109 0.015,0.021 0.036,0.032 0.062,0.033 0.072,0.001 0.104,-0.113 0.094,-0.342z"/>
   <path class="fil0" d="M5.366 0.464c-0.006,0.005 -0.011,0.008 -0.017,0.01 -0.007,0.002 -0.013,0.002 -0.019,0.001 0.012,-0.004 0.023,-0.009 0.032,-0.017 0.007,-0.007 0.015,-0.016 0.024,-0.029 -0.002,0.014 -0.008,0.026 -0.019,0.036zm-0.044 -0.024c-0.006,-0.003 -0.011,-0.008 -0.012,-0.016 -0.002,-0.008 -0.002,-0.017 0.001,-0.025 0.003,-0.009 0.008,-0.016 0.015,-0.021 0.007,-0.004 0.013,-0.005 0.019,-0.003 0.006,0.002 0.011,0.008 0.013,0.016 0.002,0.008 0.002,0.017 -0.001,0.026 -0.003,0.009 -0.008,0.016 -0.015,0.021 -0.007,0.004 -0.013,0.005 -0.019,0.003zm-0.07 -0.235c-0.01,0.016 -0.022,0.036 -0.036,0.062 -0.005,0.009 -0.01,0.02 -0.016,0.032l-0.016 0.032c0.007,-0.021 0.016,-0.044 0.027,-0.067 0.01,-0.022 0.022,-0.043 0.035,-0.064 0.015,-0.024 0.03,-0.043 0.044,-0.057l0.006 -0.006c0.002,-0.003 0.004,-0.004 0.006,-0.006l0.007 -0.006 0.007 -0.005c0.013,-0.007 0.024,-0.011 0.032,-0.011 -0.009,0.001 -0.019,0.006 -0.03,0.014l-0.006 0.005 -0.006 0.006c-0.002,0.002 -0.004,0.004 -0.006,0.006l-0.006 0.007c-0.013,0.016 -0.027,0.035 -0.041,0.057zm0.105 -0.129c-0.035,-0.005 -0.074,0.022 -0.117,0.081 -0.038,0.053 -0.072,0.122 -0.102,0.204 -0.029,0.082 -0.046,0.155 -0.05,0.218 -0.004,0.07 0.009,0.11 0.04,0.122 0.023,0.009 0.045,0.009 0.067,-0.002 0.016,-0.008 0.033,-0.022 0.05,-0.044 0.003,-0.004 0.007,-0.009 0.011,-0.014l0.01 -0.013c0.009,-0.012 0.015,-0.02 0.019,-0.025 0.014,-0.017 0.026,-0.025 0.035,-0.025 0.01,-0 0.023,0.007 0.038,0.022 0.005,0.005 0.012,0.012 0.021,0.023l0.011 0.012 0.011 0.013c0.019,0.019 0.036,0.032 0.05,0.039 0.02,0.009 0.04,0.008 0.059,-0.002 0.023,-0.012 0.035,-0.05 0.037,-0.113 0.002,-0.059 -0.006,-0.126 -0.022,-0.202 -0.017,-0.078 -0.04,-0.144 -0.068,-0.197 -0.032,-0.06 -0.065,-0.092 -0.101,-0.098zm0.425 0.026l-0.008 0.002c-0.003,0.001 -0.005,0.002 -0.007,0.003 -0.002,0.001 -0.004,0.002 -0.007,0.003l-0.004 0.002 -0.004 0.002 -0.006 0.005c-0.002,0.002 -0.004,0.004 -0.006,0.005 -0.015,0.013 -0.029,0.03 -0.042,0.05 -0.01,0.016 -0.021,0.036 -0.032,0.059 -0.007,0.017 -0.016,0.038 -0.025,0.063 0.004,-0.022 0.011,-0.044 0.02,-0.066 0.009,-0.022 0.019,-0.042 0.031,-0.061 0.014,-0.021 0.029,-0.038 0.045,-0.05 0.019,-0.015 0.04,-0.022 0.061,-0.021l-0.016 0.003zm0.251 0.192c-0.028,-0.074 -0.065,-0.132 -0.111,-0.174 -0.048,-0.043 -0.096,-0.06 -0.145,-0.053 -0.041,0.007 -0.078,0.038 -0.112,0.092 -0.032,0.052 -0.054,0.114 -0.068,0.187 -0.015,0.082 -0.016,0.159 -0.002,0.229 0.007,0.034 0.016,0.062 0.029,0.083 0.014,0.022 0.03,0.035 0.049,0.038 0.029,0.005 0.052,-0.007 0.069,-0.036 0.013,-0.021 0.024,-0.055 0.033,-0.1 0.002,-0.008 0.004,-0.018 0.005,-0.028l0.003 -0.014 0.002 -0.014c0.004,-0.024 0.007,-0.04 0.009,-0.05 0.007,-0.033 0.016,-0.051 0.026,-0.054 0.008,-0.002 0.016,0.002 0.023,0.011 0.006,0.008 0.013,0.021 0.02,0.04 0.002,0.007 0.006,0.015 0.01,0.026l0.005 0.015 0.006 0.015c0.009,0.025 0.017,0.046 0.025,0.061 0.019,0.042 0.042,0.07 0.067,0.084 0.023,0.014 0.045,0.013 0.064,-0.001 0.012,-0.009 0.022,-0.025 0.029,-0.048 0.007,-0.023 0.01,-0.05 0.01,-0.082 0,-0.071 -0.015,-0.148 -0.046,-0.23zm0.366 0.149c-0.006,0.005 -0.011,0.008 -0.017,0.01 -0.007,0.002 -0.013,0.002 -0.019,0.001 0.012,-0.004 0.023,-0.009 0.032,-0.017 0.007,-0.007 0.015,-0.016 0.024,-0.029 -0.002,0.014 -0.008,0.026 -0.019,0.036zm-0.044 -0.024c-0.006,-0.003 -0.01,-0.008 -0.012,-0.016 -0.002,-0.008 -0.002,-0.017 0.001,-0.026 0.003,-0.009 0.008,-0.016 0.015,-0.021 0.007,-0.004 0.013,-0.006 0.019,-0.003 0.006,0.002 0.011,0.008 0.013,0.016 0.002,0.008 0.002,0.017 -0.001,0.026 -0.003,0.009 -0.008,0.016 -0.015,0.021 -0.007,0.005 -0.013,0.006 -0.019,0.003zm-0.07 -0.235c-0.01,0.015 -0.022,0.036 -0.036,0.062 -0.005,0.009 -0.01,0.02 -0.016,0.032l-0.016 0.032c0.007,-0.021 0.016,-0.044 0.027,-0.067 0.01,-0.022 0.022,-0.043 0.035,-0.064 0.015,-0.024 0.03,-0.043 0.044,-0.057l0.006 -0.006c0.002,-0.002 0.005,-0.004 0.006,-0.006l0.007 -0.006 0.007 -0.005c0.013,-0.007 0.023,-0.011 0.032,-0.011 -0.009,0.001 -0.019,0.006 -0.03,0.014l-0.006 0.005 -0.006 0.006c-0.002,0.002 -0.004,0.004 -0.006,0.006l-0.006 0.007c-0.013,0.016 -0.027,0.035 -0.041,0.057zm0.105 -0.129c-0.035,-0.005 -0.074,0.022 -0.117,0.081 -0.038,0.053 -0.072,0.122 -0.102,0.204 -0.029,0.082 -0.046,0.155 -0.05,0.218 -0.004,0.07 0.009,0.11 0.04,0.122 0.023,0.009 0.045,0.009 0.067,-0.002 0.016,-0.008 0.033,-0.022 0.05,-0.044 0.003,-0.004 0.007,-0.009 0.011,-0.014l0.01 -0.013c0.009,-0.012 0.015,-0.02 0.019,-0.025 0.014,-0.017 0.026,-0.025 0.035,-0.025 0.01,-0 0.023,0.007 0.038,0.022 0.005,0.005 0.012,0.012 0.021,0.023l0.011 0.012 0.011 0.012c0.019,0.019 0.036,0.032 0.05,0.039 0.02,0.009 0.039,0.008 0.059,-0.002 0.023,-0.012 0.035,-0.05 0.037,-0.113 0.002,-0.059 -0.006,-0.126 -0.022,-0.202 -0.017,-0.078 -0.04,-0.144 -0.068,-0.197 -0.032,-0.06 -0.065,-0.092 -0.101,-0.098zm0.73 0.366c-0.003,0.001 -0.005,0.004 -0.008,0.007l-0.004 0.004 -0.004 0.004c-0.007,0.006 -0.014,0.009 -0.021,0.011 -0.008,0.002 -0.016,0.003 -0.023,0.001 0.014,-0.003 0.027,-0.01 0.039,-0.019l0.004 -0.004 0.004 -0.004c0.004,-0.003 0.007,-0.005 0.01,-0.006 0.008,-0.004 0.016,-0.005 0.023,-0.003 -0.007,0.002 -0.013,0.005 -0.02,0.009zm-0.239 -0.286c-0.014,0.016 -0.026,0.035 -0.036,0.056 -0.009,0.018 -0.017,0.04 -0.025,0.065 0.004,-0.023 0.01,-0.046 0.019,-0.068 0.009,-0.022 0.021,-0.041 0.036,-0.059 0.016,-0.018 0.033,-0.032 0.053,-0.041 0.011,-0.005 0.021,-0.008 0.032,-0.009 0.012,-0.002 0.023,-0.003 0.032,-0.002 -0.023,0.003 -0.044,0.008 -0.062,0.017 -0.019,0.011 -0.036,0.024 -0.05,0.041zm0.328 0.331c-0.005,-0.045 -0.02,-0.073 -0.047,-0.084 -0.012,-0.005 -0.024,-0.005 -0.037,-0.002 -0.013,0.004 -0.026,0.01 -0.037,0.021 -0.011,0.01 -0.023,0.014 -0.036,0.013 -0.012,-0.001 -0.023,-0.007 -0.033,-0.017 -0.01,-0.011 -0.018,-0.025 -0.023,-0.042 -0.005,-0.019 -0.007,-0.039 -0.004,-0.061 0.004,-0.032 0.017,-0.05 0.041,-0.055 0.017,-0.003 0.042,0.001 0.074,0.013 0.014,0.005 0.026,0.004 0.038,-0.002 0.011,-0.006 0.019,-0.015 0.025,-0.029 0.005,-0.014 0.007,-0.029 0.004,-0.046 -0.003,-0.018 -0.01,-0.035 -0.022,-0.052 -0.025,-0.035 -0.058,-0.059 -0.098,-0.071 -0.037,-0.012 -0.073,-0.012 -0.111,-0.001 -0.048,0.014 -0.087,0.048 -0.117,0.102 -0.033,0.059 -0.049,0.133 -0.047,0.22 0.002,0.099 0.027,0.175 0.075,0.23 0.022,0.026 0.049,0.045 0.079,0.056 0.03,0.012 0.062,0.016 0.097,0.012 0.058,-0.006 0.105,-0.03 0.139,-0.071 0.033,-0.039 0.046,-0.083 0.041,-0.133zm0.238 -0.397l-0.008 0.002c-0.003,0.001 -0.005,0.002 -0.007,0.003 -0.002,0.001 -0.004,0.002 -0.007,0.003l-0.004 0.002 -0.003 0.002 -0.006 0.005c-0.002,0.002 -0.004,0.004 -0.006,0.005 -0.015,0.013 -0.029,0.03 -0.042,0.05 -0.01,0.016 -0.021,0.036 -0.032,0.059 -0.007,0.017 -0.016,0.038 -0.025,0.063 0.004,-0.022 0.011,-0.044 0.02,-0.066 0.009,-0.022 0.019,-0.042 0.031,-0.061 0.014,-0.021 0.029,-0.038 0.045,-0.05 0.019,-0.015 0.04,-0.022 0.061,-0.021l-0.016 0.003zm0.251 0.192c-0.028,-0.074 -0.065,-0.132 -0.111,-0.174 -0.048,-0.043 -0.096,-0.06 -0.145,-0.052 -0.041,0.007 -0.078,0.038 -0.112,0.092 -0.032,0.052 -0.054,0.114 -0.068,0.187 -0.015,0.082 -0.016,0.159 -0.002,0.229 0.007,0.034 0.016,0.062 0.029,0.083 0.014,0.022 0.03,0.035 0.049,0.038 0.029,0.005 0.052,-0.007 0.069,-0.036 0.013,-0.021 0.025,-0.055 0.034,-0.1 0.002,-0.008 0.003,-0.018 0.005,-0.028l0.003 -0.014 0.002 -0.014c0.004,-0.023 0.007,-0.04 0.009,-0.05 0.007,-0.033 0.016,-0.051 0.026,-0.054 0.008,-0.002 0.016,0.002 0.023,0.011 0.006,0.008 0.013,0.021 0.02,0.04 0.002,0.007 0.006,0.015 0.01,0.026l0.005 0.015 0.006 0.015c0.009,0.025 0.017,0.046 0.025,0.061 0.02,0.042 0.042,0.07 0.067,0.084 0.023,0.014 0.045,0.013 0.064,-0.001 0.012,-0.009 0.022,-0.025 0.029,-0.048 0.007,-0.023 0.01,-0.05 0.01,-0.082 0,-0.071 -0.015,-0.148 -0.046,-0.23zm0.361 0.191c-0.005,0.008 -0.011,0.014 -0.019,0.018 -0.007,0.005 -0.015,0.007 -0.023,0.007 0.015,-0.006 0.027,-0.016 0.035,-0.029 0.008,-0.012 0.013,-0.027 0.016,-0.046 0.004,0.018 0.001,0.035 -0.009,0.051zm-0.085 -0.043c-0.002,-0.011 -0,-0.021 0.004,-0.03 0.005,-0.009 0.011,-0.014 0.02,-0.016 0.009,-0.002 0.017,0.001 0.024,0.008 0.007,0.007 0.012,0.015 0.014,0.026 0.002,0.011 0.001,0.021 -0.004,0.03 -0.005,0.009 -0.011,0.014 -0.02,0.016 -0.009,0.002 -0.017,-0.001 -0.024,-0.007 -0.007,-0.006 -0.012,-0.015 -0.014,-0.026zm-0.028 -0.336c-0.021,0.009 -0.039,0.023 -0.054,0.039 -0.014,0.015 -0.028,0.034 -0.04,0.057l-0.004 0.008 -0.004 0.008 -0.007 0.016 -0.006 0.017 -0.006 0.017c0.004,-0.024 0.011,-0.048 0.021,-0.07 0.01,-0.023 0.024,-0.043 0.04,-0.06 0.017,-0.018 0.037,-0.032 0.058,-0.04 0.01,-0.004 0.021,-0.007 0.033,-0.009l0.009 -0.001 0.008 -0.001 0.017 0c-0.024,0.003 -0.046,0.008 -0.065,0.017zm0.135 -0.043c-0.084,-0.02 -0.153,-0.004 -0.208,0.049 -0.048,0.047 -0.077,0.113 -0.088,0.198 -0.01,0.083 0.001,0.159 0.031,0.229 0.033,0.075 0.083,0.122 0.148,0.14 0.062,0.017 0.119,-0.002 0.173,-0.055 0.049,-0.049 0.082,-0.114 0.102,-0.196 0.02,-0.084 0.018,-0.159 -0.006,-0.224 -0.027,-0.074 -0.078,-0.12 -0.153,-0.139zm0.505 0.408c-0.004,0.01 -0.011,0.017 -0.019,0.022 -0.009,0.005 -0.018,0.007 -0.027,0.006 0.009,-0.002 0.017,-0.006 0.024,-0.011 0.007,-0.006 0.012,-0.013 0.016,-0.021 0.007,-0.015 0.008,-0.034 0.003,-0.055 0.005,0.008 0.008,0.018 0.009,0.028 0.001,0.01 -0.001,0.021 -0.005,0.03zm-0.075 -0.025c-0.004,-0.008 -0.006,-0.017 -0.006,-0.025 0.001,-0.008 0.004,-0.014 0.009,-0.018 0.006,-0.004 0.012,-0.004 0.019,-0 0.007,0.003 0.013,0.009 0.018,0.018 0.005,0.008 0.006,0.017 0.006,0.025 -0.001,0.009 -0.004,0.015 -0.009,0.018 -0.006,0.004 -0.012,0.004 -0.019,0 -0.007,-0.003 -0.013,-0.009 -0.018,-0.018zm-0.039 -0.182c0.006,-0.002 0.012,-0.005 0.018,-0.008 0.006,-0.004 0.01,-0.008 0.014,-0.013 0.004,-0.005 0.008,-0.01 0.011,-0.017 0.003,-0.006 0.005,-0.012 0.008,-0.019 0.002,0.015 -0.003,0.029 -0.013,0.041 -0.005,0.006 -0.011,0.01 -0.018,0.013 -0.007,0.003 -0.014,0.004 -0.02,0.002zm-0.01 -0.063c0.003,-0.006 0.007,-0.01 0.011,-0.012 0.005,-0.003 0.009,-0.003 0.013,-0 0.003,0.002 0.006,0.006 0.006,0.012 0.001,0.005 -0,0.011 -0.003,0.017 -0.003,0.006 -0.007,0.01 -0.011,0.013 -0.004,0.003 -0.009,0.003 -0.012,0 -0.004,-0.002 -0.006,-0.006 -0.006,-0.012 -0.001,-0.006 0,-0.011 0.003,-0.017zm-0.07 -0.077c-0.006,0.007 -0.013,0.016 -0.019,0.027 -0.01,0.017 -0.019,0.037 -0.027,0.062 -0.006,0.019 -0.012,0.042 -0.018,0.067 0.002,-0.023 0.006,-0.046 0.012,-0.069 0.006,-0.023 0.015,-0.045 0.027,-0.064 0.013,-0.022 0.028,-0.039 0.045,-0.05 0.011,-0.007 0.021,-0.012 0.03,-0.015 0.011,-0.003 0.022,-0.004 0.032,-0.004 -0.022,0.003 -0.042,0.01 -0.059,0.024 -0.009,0.007 -0.017,0.014 -0.023,0.022zm0.177 0.164c-0.005,-0.002 -0.006,-0.007 -0.003,-0.014 0.001,-0.003 0.003,-0.007 0.006,-0.013l0.002 -0.004 0.002 -0.004c0.001,-0.003 0.003,-0.006 0.004,-0.009 0.007,-0.016 0.012,-0.031 0.014,-0.046 0.004,-0.021 0.004,-0.042 -0,-0.065 -0.004,-0.025 -0.018,-0.045 -0.04,-0.062 -0.023,-0.017 -0.048,-0.026 -0.077,-0.026 -0.032,-0 -0.06,0.01 -0.087,0.031 -0.03,0.024 -0.054,0.06 -0.07,0.108 -0.017,0.05 -0.026,0.104 -0.027,0.162 -0,0.06 0.008,0.114 0.026,0.163 0.019,0.054 0.046,0.095 0.081,0.123 0.04,0.031 0.087,0.045 0.141,0.04 0.052,-0.005 0.093,-0.024 0.123,-0.058 0.028,-0.03 0.042,-0.068 0.044,-0.113 0.002,-0.044 -0.009,-0.085 -0.032,-0.124 -0.025,-0.041 -0.061,-0.071 -0.107,-0.09zm0.456 0.178c-0.005,0.008 -0.011,0.014 -0.019,0.018 -0.007,0.005 -0.015,0.007 -0.023,0.007 0.015,-0.006 0.027,-0.016 0.035,-0.029 0.008,-0.012 0.013,-0.027 0.016,-0.046 0.004,0.018 0.001,0.035 -0.009,0.051zm-0.085 -0.043c-0.002,-0.011 -0,-0.021 0.004,-0.03 0.005,-0.009 0.011,-0.014 0.02,-0.016 0.009,-0.002 0.017,0.001 0.024,0.008 0.007,0.007 0.012,0.015 0.014,0.026 0.002,0.011 0.001,0.021 -0.004,0.03 -0.005,0.009 -0.011,0.014 -0.02,0.016 -0.009,0.002 -0.017,-0.001 -0.024,-0.007 -0.007,-0.006 -0.012,-0.015 -0.014,-0.026zm-0.028 -0.336c-0.021,0.009 -0.039,0.023 -0.054,0.039 -0.014,0.015 -0.028,0.034 -0.04,0.057l-0.004 0.008 -0.004 0.008 -0.007 0.016 -0.006 0.017 -0.006 0.017c0.004,-0.024 0.011,-0.048 0.021,-0.07 0.01,-0.023 0.024,-0.043 0.04,-0.06 0.017,-0.018 0.037,-0.032 0.058,-0.04 0.01,-0.004 0.021,-0.007 0.033,-0.009l0.009 -0.001 0.008 -0.001 0.017 0c-0.025,0.003 -0.046,0.008 -0.065,0.017zm0.135 -0.043c-0.084,-0.02 -0.153,-0.004 -0.208,0.049 -0.048,0.047 -0.077,0.113 -0.088,0.198 -0.01,0.083 0.001,0.159 0.031,0.229 0.033,0.075 0.082,0.122 0.148,0.14 0.062,0.017 0.119,-0.002 0.173,-0.055 0.048,-0.049 0.082,-0.114 0.102,-0.196 0.02,-0.084 0.018,-0.159 -0.006,-0.224 -0.027,-0.074 -0.078,-0.12 -0.153,-0.139zm0.269 0.473c-0.007,0.009 -0.013,0.02 -0.018,0.036 -0.002,-0.015 0.002,-0.029 0.012,-0.042 0.005,-0.006 0.011,-0.01 0.017,-0.013 0.007,-0.003 0.014,-0.004 0.021,-0.002 -0.012,0.003 -0.022,0.01 -0.031,0.021zm0.03 -0.056c-0.02,0.001 -0.038,0.01 -0.054,0.027 -0.015,0.017 -0.024,0.037 -0.027,0.061 -0.002,0.016 0,0.032 0.005,0.048 0.005,0.015 0.013,0.028 0.023,0.039 0.008,0.008 0.01,0.021 0.007,0.04l-0.001 0.005 -0.001 0.005c-0,0.004 -0.001,0.007 -0.001,0.01 -0,0.007 0.001,0.012 0.004,0.015 0.007,0.008 0.017,0.01 0.03,0.005 0.012,-0.004 0.025,-0.014 0.039,-0.028 0.032,-0.034 0.051,-0.073 0.055,-0.119 0.003,-0.03 -0.004,-0.056 -0.02,-0.077 -0.016,-0.021 -0.036,-0.031 -0.06,-0.031z"/>
  </g>
  <g id="_1963258739904">
   <path class="fil0" d="M10.046 0.452c-0.006,0.005 -0.012,0.007 -0.018,0.009 -0.007,0.002 -0.013,0.002 -0.019,-0 0.012,-0.003 0.023,-0.008 0.033,-0.016 0.008,-0.006 0.016,-0.015 0.025,-0.028 -0.003,0.014 -0.01,0.026 -0.021,0.035zm-0.043 -0.027c-0.006,-0.003 -0.01,-0.009 -0.011,-0.017 -0.002,-0.008 -0.001,-0.017 0.003,-0.025 0.004,-0.009 0.009,-0.015 0.016,-0.02 0.007,-0.004 0.013,-0.005 0.019,-0.002 0.006,0.003 0.01,0.008 0.012,0.017 0.002,0.008 0.001,0.017 -0.003,0.026 -0.004,0.009 -0.009,0.015 -0.016,0.02 -0.007,0.004 -0.013,0.005 -0.019,0.002zm-0.056 -0.239c-0.011,0.015 -0.024,0.035 -0.04,0.06 -0.005,0.009 -0.011,0.019 -0.018,0.031l-0.018 0.031c0.009,-0.021 0.019,-0.043 0.031,-0.065 0.011,-0.021 0.024,-0.041 0.038,-0.061 0.016,-0.023 0.032,-0.041 0.047,-0.054l0.007 -0.006c0.003,-0.002 0.005,-0.004 0.007,-0.005l0.007 -0.005 0.008 -0.005c0.013,-0.007 0.024,-0.01 0.033,-0.009 -0.009,0.001 -0.02,0.005 -0.031,0.012l-0.007 0.005 -0.007 0.006c-0.002,0.001 -0.004,0.003 -0.006,0.005l-0.006 0.006c-0.014,0.015 -0.029,0.033 -0.045,0.054zm0.112 -0.123c-0.035,-0.007 -0.075,0.017 -0.121,0.074 -0.041,0.051 -0.079,0.117 -0.114,0.198 -0.034,0.08 -0.055,0.152 -0.063,0.215 -0.008,0.069 0.002,0.111 0.032,0.124 0.022,0.011 0.045,0.011 0.067,0.002 0.016,-0.007 0.034,-0.02 0.053,-0.041 0.004,-0.004 0.008,-0.008 0.012,-0.013l0.011 -0.013c0.009,-0.011 0.016,-0.019 0.02,-0.023 0.015,-0.016 0.027,-0.024 0.037,-0.023 0.01,0 0.022,0.009 0.036,0.025 0.004,0.005 0.011,0.013 0.019,0.024l0.011 0.013 0.01 0.013c0.017,0.02 0.034,0.034 0.048,0.042 0.019,0.01 0.039,0.01 0.059,0.002 0.024,-0.011 0.038,-0.047 0.044,-0.111 0.005,-0.059 0.002,-0.126 -0.01,-0.203 -0.012,-0.079 -0.031,-0.146 -0.056,-0.201 -0.028,-0.061 -0.06,-0.096 -0.095,-0.104zm0.581 0.288c-0.008,0.006 -0.018,0.012 -0.029,0.016 -0.012,0.004 -0.022,0.008 -0.028,0.012 -0.01,0.007 -0.016,0.015 -0.018,0.025 -0.001,-0.006 0,-0.011 0.003,-0.017 0.003,-0.005 0.006,-0.01 0.011,-0.014 0.007,-0.005 0.017,-0.01 0.03,-0.014 0.01,-0.003 0.019,-0.007 0.028,-0.013 0.01,-0.006 0.017,-0.014 0.022,-0.022 -0.003,0.011 -0.009,0.02 -0.019,0.028zm-0.122 0.194c-0.014,-0.002 -0.026,-0.003 -0.034,-0.003 -0.007,0 -0.012,0.002 -0.015,0.004 -0.002,0.001 -0.004,0.003 -0.005,0.006l-0.001 0.005 -0.001 0.004c0,-0.004 0,-0.007 0.001,-0.01 0.001,-0.004 0.002,-0.007 0.004,-0.009 0.004,-0.004 0.01,-0.006 0.018,-0.007 0.009,-0.001 0.021,-0.001 0.036,0.001 0.009,0.001 0.021,0.004 0.035,0.007l0.017 0.004 0.018 0.004c-0.01,0.001 -0.022,0 -0.036,-0.001l-0.018 -0.003 -0.017 -0.003zm0.044 -0.407c-0.017,0.007 -0.031,0.014 -0.042,0.02 -0.006,0.004 -0.012,0.008 -0.019,0.013 -0.006,0.004 -0.012,0.01 -0.017,0.016 -0.012,0.014 -0.018,0.028 -0.018,0.044 -0.001,-0.008 -0.001,-0.016 0.002,-0.025 0.003,-0.008 0.006,-0.016 0.012,-0.023 0.008,-0.012 0.021,-0.022 0.037,-0.032 0.028,-0.016 0.058,-0.026 0.09,-0.028 -0.015,0.004 -0.03,0.009 -0.044,0.015zm0.242 0.318c-0.007,-0.011 -0.014,-0.02 -0.023,-0.029 -0.006,-0.006 -0.013,-0.012 -0.021,-0.017l-0.004 -0.003 -0.004 -0.003c-0.003,-0.002 -0.005,-0.004 -0.007,-0.005 -0.004,-0.004 -0.006,-0.007 -0.006,-0.011 -0,-0.005 0.003,-0.011 0.01,-0.018 0.003,-0.003 0.006,-0.006 0.012,-0.011l0.003 -0.003 0.004 -0.003 0.007 -0.007c0.012,-0.011 0.022,-0.022 0.029,-0.033 0.01,-0.014 0.016,-0.03 0.019,-0.046 0.008,-0.042 0.001,-0.079 -0.021,-0.11 -0.023,-0.033 -0.06,-0.054 -0.11,-0.065 -0.025,-0.005 -0.053,-0.006 -0.083,-0.001 -0.031,0.004 -0.059,0.013 -0.086,0.026 -0.028,0.014 -0.05,0.03 -0.065,0.049 -0.017,0.022 -0.025,0.046 -0.023,0.071 0.005,0.064 0.053,0.084 0.146,0.061 0.015,-0.004 0.028,-0.005 0.037,-0.003 0.008,0.001 0.013,0.004 0.014,0.009 0.001,0.005 -0.001,0.01 -0.007,0.015 -0.006,0.006 -0.015,0.01 -0.027,0.014 -0.043,0.013 -0.064,0.037 -0.064,0.072 0,0.017 0.005,0.032 0.016,0.044 0.011,0.012 0.027,0.019 0.046,0.019 0.019,0 0.031,0.007 0.035,0.02 0.002,0.005 0.001,0.01 -0.001,0.016 -0.002,0.005 -0.007,0.01 -0.013,0.013 -0.009,0.004 -0.025,0.005 -0.047,0.002 -0.004,-0 -0.009,-0.001 -0.014,-0.002l-0.015 -0.002c-0.013,-0.002 -0.023,-0.004 -0.03,-0.004 -0.023,-0.002 -0.041,-0.001 -0.053,0.005 -0.016,0.008 -0.025,0.023 -0.028,0.046 -0.003,0.026 0.007,0.052 0.031,0.078 0.022,0.024 0.052,0.043 0.089,0.058 0.038,0.015 0.075,0.022 0.112,0.021 0.041,-0.001 0.074,-0.012 0.101,-0.032 0.037,-0.029 0.059,-0.067 0.064,-0.114 0.005,-0.043 -0.003,-0.08 -0.023,-0.114zm0.35 0.04c-0.006,0.005 -0.012,0.008 -0.018,0.009 -0.007,0.002 -0.013,0.002 -0.019,-0 0.012,-0.003 0.023,-0.008 0.033,-0.016 0.008,-0.006 0.016,-0.015 0.025,-0.028 -0.003,0.014 -0.01,0.026 -0.021,0.035zm-0.043 -0.027c-0.006,-0.003 -0.01,-0.009 -0.011,-0.017 -0.002,-0.008 -0.001,-0.017 0.003,-0.025 0.004,-0.009 0.009,-0.015 0.016,-0.02 0.007,-0.004 0.013,-0.005 0.019,-0.002 0.006,0.003 0.01,0.008 0.012,0.017 0.002,0.008 0.001,0.017 -0.003,0.026 -0.004,0.009 -0.009,0.015 -0.016,0.02 -0.007,0.004 -0.013,0.005 -0.019,0.002zm-0.056 -0.239c-0.011,0.015 -0.024,0.035 -0.04,0.06 -0.005,0.009 -0.011,0.019 -0.018,0.031l-0.018 0.031c0.009,-0.021 0.019,-0.043 0.031,-0.066 0.012,-0.021 0.024,-0.041 0.039,-0.061 0.016,-0.023 0.032,-0.041 0.047,-0.054l0.007 -0.006c0.003,-0.002 0.005,-0.004 0.007,-0.005l0.007 -0.005 0.007 -0.005c0.013,-0.007 0.024,-0.01 0.033,-0.009 -0.009,0.001 -0.02,0.005 -0.031,0.012l-0.007 0.005 -0.007 0.006c-0.002,0.001 -0.004,0.003 -0.006,0.005l-0.006 0.006c-0.014,0.015 -0.029,0.033 -0.045,0.054zm0.112 -0.123c-0.035,-0.007 -0.075,0.017 -0.121,0.074 -0.041,0.051 -0.079,0.117 -0.114,0.198 -0.034,0.08 -0.055,0.152 -0.063,0.215 -0.008,0.069 0.002,0.111 0.032,0.124 0.022,0.011 0.045,0.011 0.067,0.002 0.016,-0.007 0.034,-0.02 0.053,-0.041 0.004,-0.004 0.008,-0.008 0.012,-0.013l0.011 -0.013c0.009,-0.011 0.016,-0.019 0.02,-0.023 0.015,-0.016 0.027,-0.024 0.037,-0.023 0.01,0 0.022,0.009 0.036,0.025 0.004,0.005 0.011,0.013 0.019,0.024l0.01 0.013 0.01 0.013c0.017,0.02 0.034,0.034 0.048,0.042 0.019,0.01 0.039,0.01 0.059,0.002 0.024,-0.011 0.038,-0.047 0.044,-0.111 0.005,-0.059 0.002,-0.126 -0.01,-0.203 -0.012,-0.079 -0.031,-0.146 -0.056,-0.201 -0.028,-0.061 -0.06,-0.096 -0.095,-0.104zm0.364 0.054c-0.019,0.002 -0.034,0.005 -0.046,0.008 -0.018,0.005 -0.032,0.01 -0.044,0.018 -0.008,0.005 -0.014,0.01 -0.018,0.016 -0.005,0.006 -0.007,0.014 -0.008,0.023 -0.002,-0.009 0,-0.018 0.005,-0.026 0.004,-0.007 0.01,-0.013 0.018,-0.019 0.011,-0.008 0.026,-0.015 0.045,-0.02 0.03,-0.008 0.062,-0.009 0.096,-0.004 -0.018,0.001 -0.033,0.003 -0.048,0.004zm0.078 -0.036c-0.066,-0.006 -0.119,-0.001 -0.161,0.017 -0.044,0.019 -0.065,0.047 -0.064,0.085 0.001,0.021 0.008,0.037 0.023,0.047 0.01,0.007 0.027,0.013 0.048,0.016l0.013 0.002 0.013 0.002c0.01,0.001 0.018,0.003 0.024,0.005 0.016,0.004 0.026,0.012 0.029,0.023 0.002,0.007 -0.002,0.045 -0.012,0.114 -0.005,0.035 -0.009,0.065 -0.011,0.09 -0.003,0.035 -0.004,0.066 -0.003,0.093 0.002,0.04 0.013,0.073 0.034,0.098 0.022,0.027 0.048,0.039 0.08,0.036 0.058,-0.006 0.082,-0.068 0.071,-0.185 -0.006,-0.062 -0.008,-0.115 -0.007,-0.158 0.001,-0.046 0.006,-0.073 0.015,-0.081 0.006,-0.005 0.017,-0.007 0.032,-0.007 0.004,0 0.011,0 0.021,0.001l0.011 0.001 0.011 -0c0.018,0 0.031,-0.002 0.042,-0.007 0.013,-0.006 0.023,-0.017 0.028,-0.033 0.006,-0.02 0.004,-0.039 -0.006,-0.057 -0.01,-0.017 -0.026,-0.033 -0.049,-0.048 -0.046,-0.029 -0.108,-0.047 -0.183,-0.055zm0.542 0.468l-0.006 0.002c-0.005,0.001 -0.009,0.003 -0.012,0.003 -0.01,0.002 -0.018,0.002 -0.026,-0 0.008,-0.001 0.017,-0.003 0.025,-0.006l0.006 -0.002 0.006 -0.002c0.005,-0.002 0.009,-0.004 0.012,-0.004 0.009,-0.003 0.018,-0.005 0.025,-0.005 0.01,-0.001 0.018,-0.001 0.025,0.001 -0.014,0.003 -0.03,0.007 -0.049,0.012l-0.006 0.002zm-0.1 -0.412c-0.013,0.003 -0.024,0.007 -0.034,0.013 -0.012,0.007 -0.022,0.014 -0.03,0.023 -0.008,0.008 -0.016,0.018 -0.023,0.03 -0.01,0.019 -0.02,0.043 -0.029,0.073 -0.004,0.012 -0.007,0.025 -0.009,0.039 -0.001,0.006 -0.003,0.012 -0.004,0.02l-0.004 0.02c0.002,-0.028 0.005,-0.055 0.011,-0.08 0.007,-0.029 0.016,-0.055 0.028,-0.076 0.008,-0.014 0.016,-0.024 0.024,-0.033 0.01,-0.009 0.021,-0.017 0.032,-0.022 0.011,-0.005 0.023,-0.009 0.036,-0.011 0.013,-0.002 0.026,-0.002 0.037,-0.001 -0.014,0.001 -0.026,0.002 -0.036,0.005zm0.068 0.236l0.003 -0.001c0.003,-0.001 0.005,-0.001 0.007,-0.002 0.005,-0.001 0.01,-0 0.014,0.001 0.005,0.002 0.009,0.005 0.011,0.008 -0.003,-0.001 -0.007,-0.002 -0.012,-0.002 -0.004,0 -0.008,0 -0.012,0.001l-0.003 0 -0.003 0c-0.003,0.001 -0.005,0.001 -0.007,0.001 -0.005,0 -0.01,-0.001 -0.014,-0.002l0.007 -0.002 0.006 -0.002 0.003 -0.001zm0.013 0.143c-0.014,0.005 -0.026,0.006 -0.036,0.001 -0.008,-0.004 -0.013,-0.01 -0.015,-0.019 -0.002,-0.009 -0.001,-0.017 0.004,-0.024 0.005,-0.008 0.012,-0.012 0.022,-0.013 0.029,-0.002 0.05,-0.009 0.065,-0.022 0.013,-0.012 0.02,-0.028 0.02,-0.048 -0,-0.018 -0.008,-0.032 -0.022,-0.041 -0.015,-0.01 -0.033,-0.012 -0.054,-0.007 -0.018,0.004 -0.029,-0.001 -0.034,-0.017 -0.002,-0.007 -0.002,-0.013 0,-0.02 0.002,-0.007 0.006,-0.012 0.011,-0.016 0.008,-0.006 0.02,-0.009 0.035,-0.011 0.005,-0.001 0.013,-0.001 0.022,-0.001l0.011 0 0.011 -0c0.018,-0.001 0.032,-0.003 0.042,-0.007 0.014,-0.006 0.024,-0.015 0.03,-0.028 0.01,-0.023 0.007,-0.046 -0.009,-0.071 -0.015,-0.023 -0.039,-0.042 -0.07,-0.056 -0.033,-0.014 -0.067,-0.02 -0.101,-0.017 -0.039,0.004 -0.072,0.019 -0.1,0.045 -0.026,0.025 -0.046,0.064 -0.06,0.119 -0.013,0.05 -0.02,0.106 -0.02,0.168 0,0.061 0.007,0.115 0.019,0.163 0.014,0.052 0.033,0.087 0.058,0.106 0.024,0.019 0.055,0.028 0.091,0.028 0.033,0 0.067,-0.007 0.102,-0.022 0.034,-0.014 0.062,-0.033 0.083,-0.056 0.023,-0.024 0.036,-0.049 0.037,-0.074 0.002,-0.034 -0.01,-0.056 -0.034,-0.067 -0.025,-0.012 -0.061,-0.009 -0.108,0.008zm0.649 -0.345c-0.006,0.004 -0.013,0.011 -0.02,0.019 -0.009,0.011 -0.021,0.026 -0.035,0.046l-0.008 0.012 -0.009 0.012c-0.007,0.009 -0.014,0.016 -0.02,0.022 -0.008,0.007 -0.016,0.012 -0.024,0.016 -0.01,0.004 -0.019,0.005 -0.028,0.004 0.016,-0.001 0.032,-0.009 0.047,-0.025 0.006,-0.006 0.012,-0.013 0.018,-0.022l0.008 -0.012 0.008 -0.012c0.014,-0.02 0.026,-0.036 0.037,-0.046 0.008,-0.008 0.016,-0.014 0.023,-0.018 0.009,-0.005 0.018,-0.007 0.027,-0.006 -0.01,0.001 -0.018,0.004 -0.025,0.009zm-0.327 0.027c-0.01,0.013 -0.02,0.029 -0.03,0.048 -0.006,0.012 -0.014,0.03 -0.024,0.053 -0.004,0.009 -0.007,0.018 -0.01,0.028l-0.005 0.013 -0.005 0.014c0.009,-0.041 0.022,-0.078 0.038,-0.112 0.01,-0.021 0.022,-0.037 0.033,-0.049 0.006,-0.007 0.014,-0.013 0.023,-0.018 0.009,-0.005 0.018,-0.007 0.027,-0.006 -0.015,0.001 -0.03,0.011 -0.045,0.029zm0.484 0.236c0,-0.088 -0.011,-0.16 -0.035,-0.216 -0.022,-0.053 -0.049,-0.083 -0.082,-0.089 -0.024,-0.004 -0.047,0.002 -0.068,0.019 -0.016,0.013 -0.037,0.039 -0.062,0.077 -0.022,0.033 -0.041,0.048 -0.056,0.044 -0.01,-0.002 -0.022,-0.016 -0.035,-0.042 -0.016,-0.029 -0.031,-0.051 -0.046,-0.065 -0.019,-0.018 -0.039,-0.027 -0.06,-0.026 -0.057,0.004 -0.105,0.073 -0.144,0.209 -0.026,0.087 -0.038,0.166 -0.036,0.236 0.002,0.08 0.022,0.125 0.061,0.136 0.023,0.006 0.043,0.001 0.061,-0.016 0.014,-0.013 0.027,-0.034 0.04,-0.063 0.004,-0.009 0.009,-0.022 0.014,-0.037l0.004 -0.009 0.003 -0.009c0.002,-0.006 0.004,-0.012 0.006,-0.016 0.009,-0.023 0.017,-0.035 0.025,-0.038 0.005,-0.002 0.01,0.003 0.014,0.014 0.002,0.003 0.003,0.009 0.006,0.018l0.001 0.005 0.002 0.005 0.003 0.011c0.006,0.018 0.013,0.032 0.021,0.042 0.01,0.013 0.024,0.02 0.039,0.021 0.012,0.001 0.023,-0.004 0.034,-0.013 0.007,-0.006 0.016,-0.016 0.026,-0.031l0.006 -0.008 0.006 -0.008c0.004,-0.006 0.007,-0.01 0.01,-0.013 0.007,-0.008 0.014,-0.01 0.02,-0.008 0.006,0.003 0.013,0.015 0.018,0.036 0.001,0.004 0.002,0.009 0.004,0.015l0.002 0.008 0.002 0.008c0.004,0.014 0.007,0.025 0.01,0.034 0.009,0.027 0.018,0.048 0.029,0.063 0.014,0.019 0.032,0.03 0.053,0.031 0.036,0.003 0.063,-0.027 0.08,-0.09 0.015,-0.055 0.023,-0.133 0.024,-0.235zm0.475 -0.145c-0.011,0.014 -0.023,0.026 -0.033,0.036 -0.014,0.012 -0.027,0.021 -0.04,0.026 0.01,-0.007 0.023,-0.017 0.036,-0.031 0.011,-0.011 0.021,-0.023 0.032,-0.036 0.005,-0.007 0.01,-0.013 0.014,-0.019l0.004 -0.005 0.003 -0.005c0.003,-0.004 0.005,-0.008 0.008,-0.01 0.006,-0.007 0.012,-0.011 0.02,-0.015 0.008,-0.004 0.016,-0.005 0.023,-0.004 -0.014,0.001 -0.027,0.009 -0.038,0.024 -0.002,0.002 -0.004,0.006 -0.007,0.01l-0.003 0.005 -0.003 0.005c-0.004,0.006 -0.009,0.012 -0.015,0.02zm-0.155 -0.103c-0.006,0.004 -0.011,0.009 -0.016,0.015 -0.007,0.009 -0.015,0.022 -0.022,0.038 -0.005,0.01 -0.01,0.024 -0.016,0.043l-0.007 0.022 -0.007 0.022c0.002,-0.018 0.005,-0.033 0.008,-0.046 0.004,-0.016 0.009,-0.031 0.015,-0.044 0.008,-0.017 0.016,-0.03 0.025,-0.04 0.006,-0.006 0.012,-0.011 0.018,-0.014 0.008,-0.003 0.015,-0.005 0.022,-0.004 -0.007,0.001 -0.014,0.003 -0.02,0.007zm0.171 0.262c-0.01,-0.007 -0.013,-0.013 -0.007,-0.018 0.002,-0.002 0.007,-0.005 0.013,-0.008l0.005 -0.002 0.005 -0.003c0.005,-0.002 0.008,-0.003 0.011,-0.005 0.021,-0.01 0.037,-0.021 0.05,-0.033 0.019,-0.018 0.033,-0.039 0.042,-0.064 0.008,-0.023 0.008,-0.046 0.001,-0.068 -0.007,-0.02 -0.018,-0.035 -0.035,-0.045 -0.017,-0.01 -0.034,-0.013 -0.053,-0.008 -0.021,0.005 -0.039,0.02 -0.054,0.043 -0.026,0.039 -0.051,0.066 -0.074,0.08 -0.009,0.006 -0.015,0.007 -0.018,0.005 -0.003,-0.003 -0.002,-0.01 0.003,-0.021 0.021,-0.043 0.029,-0.079 0.022,-0.106 -0.005,-0.023 -0.019,-0.038 -0.041,-0.045 -0.046,-0.014 -0.082,0.01 -0.109,0.07 -0.022,0.048 -0.038,0.119 -0.048,0.213 -0.01,0.094 -0.009,0.171 0.003,0.229 0.014,0.071 0.042,0.106 0.086,0.106 0.04,0 0.064,-0.031 0.073,-0.092 0.003,-0.021 0.004,-0.044 0.003,-0.07 -0,-0.009 -0.001,-0.018 -0.002,-0.027 -0,-0.004 -0,-0.007 -0.001,-0.011l-0 -0.004 -0 -0.002 0 -0.001c-0.001,-0.008 0,-0.013 0.003,-0.016 0.003,-0.003 0.008,-0.001 0.013,0.004 0.014,0.014 0.027,0.048 0.038,0.102 0.007,0.035 0.018,0.063 0.033,0.086 0.014,0.021 0.03,0.035 0.048,0.042 0.018,0.007 0.035,0.007 0.053,0.001 0.017,-0.007 0.033,-0.019 0.045,-0.037 0.014,-0.021 0.022,-0.044 0.023,-0.071 0.002,-0.025 -0.003,-0.052 -0.013,-0.079 -0.022,-0.058 -0.062,-0.106 -0.12,-0.144zm0.46 0.112c-0.006,0.005 -0.012,0.007 -0.018,0.009 -0.007,0.002 -0.013,0.002 -0.019,-0 0.012,-0.003 0.023,-0.008 0.033,-0.015 0.008,-0.006 0.016,-0.015 0.025,-0.028 -0.003,0.014 -0.01,0.026 -0.021,0.035zm-0.043 -0.027c-0.006,-0.003 -0.01,-0.009 -0.011,-0.017 -0.002,-0.008 -0.001,-0.017 0.002,-0.025 0.004,-0.009 0.009,-0.015 0.016,-0.02 0.007,-0.004 0.013,-0.005 0.019,-0.002 0.006,0.003 0.01,0.008 0.012,0.017 0.002,0.008 0.001,0.017 -0.003,0.026 -0.004,0.009 -0.009,0.015 -0.016,0.02 -0.007,0.004 -0.013,0.005 -0.019,0.002zm-0.056 -0.239c-0.011,0.015 -0.024,0.035 -0.04,0.06 -0.005,0.009 -0.011,0.019 -0.018,0.031l-0.018 0.031c0.009,-0.021 0.019,-0.043 0.031,-0.066 0.011,-0.021 0.024,-0.041 0.039,-0.061 0.016,-0.023 0.032,-0.041 0.047,-0.054l0.007 -0.006c0.003,-0.002 0.005,-0.004 0.007,-0.005l0.007 -0.005 0.007 -0.005c0.013,-0.007 0.024,-0.01 0.033,-0.009 -0.009,0.001 -0.02,0.005 -0.031,0.012l-0.007 0.005 -0.007 0.006c-0.002,0.001 -0.004,0.003 -0.006,0.005l-0.006 0.006c-0.014,0.015 -0.029,0.033 -0.045,0.055zm0.112 -0.123c-0.035,-0.007 -0.075,0.017 -0.121,0.074 -0.041,0.051 -0.079,0.117 -0.114,0.198 -0.034,0.08 -0.055,0.152 -0.063,0.215 -0.008,0.069 0.002,0.111 0.032,0.124 0.022,0.011 0.045,0.011 0.067,0.002 0.016,-0.007 0.034,-0.02 0.053,-0.041 0.004,-0.004 0.008,-0.008 0.012,-0.013l0.011 -0.013c0.009,-0.011 0.016,-0.019 0.02,-0.023 0.015,-0.016 0.027,-0.024 0.037,-0.023 0.01,0 0.022,0.009 0.036,0.025 0.004,0.005 0.011,0.013 0.019,0.024l0.011 0.013 0.01 0.013c0.017,0.02 0.034,0.034 0.048,0.042 0.019,0.01 0.039,0.01 0.059,0.002 0.024,-0.011 0.038,-0.047 0.044,-0.11 0.005,-0.059 0.002,-0.126 -0.01,-0.203 -0.012,-0.079 -0.031,-0.146 -0.056,-0.201 -0.028,-0.061 -0.06,-0.096 -0.095,-0.103zm0.483 0.279c-0.003,0.008 -0.008,0.016 -0.015,0.022 -0.006,0.007 -0.014,0.012 -0.021,0.015 -0.009,0.003 -0.017,0.004 -0.024,0.002 0.008,-0.001 0.015,-0.004 0.022,-0.008 0.007,-0.004 0.013,-0.009 0.018,-0.014 0.011,-0.011 0.019,-0.025 0.025,-0.042 0,0.009 -0.001,0.017 -0.005,0.026zm-0.072 -0.04c0.004,-0.009 0.01,-0.015 0.017,-0.018 0.007,-0.004 0.013,-0.004 0.019,-0 0.005,0.003 0.009,0.009 0.01,0.017 0.001,0.009 -0.001,0.017 -0.005,0.025 -0.004,0.009 -0.01,0.015 -0.017,0.018 -0.007,0.003 -0.014,0.004 -0.019,0 -0.005,-0.003 -0.009,-0.009 -0.01,-0.017 -0.001,-0.009 0.001,-0.017 0.005,-0.025zm-0.055 -0.176c-0.019,0.009 -0.035,0.02 -0.049,0.035 -0.013,0.014 -0.025,0.031 -0.035,0.052 -0.008,0.016 -0.015,0.036 -0.023,0.06 0.001,-0.009 0.003,-0.02 0.007,-0.032 0.003,-0.011 0.007,-0.021 0.011,-0.031 0.009,-0.021 0.02,-0.039 0.034,-0.055 0.015,-0.016 0.033,-0.028 0.052,-0.035 0.01,-0.004 0.019,-0.006 0.03,-0.008 0.011,-0.001 0.021,-0.002 0.03,-0.001 -0.023,0.003 -0.042,0.008 -0.058,0.015zm0.078 -0.049c-0.054,-0.003 -0.099,0.012 -0.136,0.043 -0.033,0.028 -0.056,0.068 -0.071,0.121 -0.014,0.048 -0.019,0.101 -0.015,0.159 0.003,0.056 0.014,0.109 0.033,0.157 0.018,0.047 0.039,0.083 0.062,0.109 0.021,0.023 0.042,0.036 0.064,0.038 0.02,0.003 0.037,-0.003 0.052,-0.017 0.015,-0.014 0.024,-0.033 0.028,-0.058 0.003,-0.017 0.003,-0.036 0.001,-0.058 -0.001,-0.006 -0.002,-0.015 -0.004,-0.026l-0.001 -0.012c-0.001,-0.004 -0.001,-0.008 -0.002,-0.011 -0.002,-0.017 -0.001,-0.03 0.002,-0.04 0.004,-0.012 0.013,-0.021 0.026,-0.027 0.044,-0.021 0.079,-0.052 0.102,-0.094 0.022,-0.039 0.032,-0.08 0.029,-0.123 -0.003,-0.044 -0.019,-0.08 -0.047,-0.11 -0.031,-0.032 -0.072,-0.049 -0.123,-0.052zm0.36 0.056c-0.019,0.002 -0.034,0.005 -0.046,0.008 -0.018,0.005 -0.032,0.01 -0.044,0.018 -0.008,0.005 -0.014,0.01 -0.018,0.016 -0.005,0.006 -0.007,0.014 -0.008,0.023 -0.002,-0.009 0,-0.018 0.005,-0.026 0.004,-0.007 0.01,-0.013 0.018,-0.019 0.011,-0.008 0.026,-0.015 0.045,-0.02 0.03,-0.008 0.062,-0.009 0.096,-0.004 -0.018,0.001 -0.033,0.003 -0.047,0.004zm0.078 -0.036c-0.066,-0.006 -0.119,-0.001 -0.161,0.017 -0.044,0.019 -0.065,0.047 -0.064,0.085 0.001,0.021 0.008,0.037 0.023,0.047 0.01,0.007 0.027,0.013 0.048,0.016l0.013 0.002 0.013 0.002c0.01,0.001 0.018,0.003 0.024,0.005 0.016,0.004 0.026,0.012 0.029,0.023 0.002,0.007 -0.002,0.045 -0.012,0.114 -0.005,0.035 -0.009,0.065 -0.011,0.09 -0.003,0.035 -0.004,0.066 -0.003,0.093 0.002,0.04 0.013,0.073 0.034,0.098 0.022,0.027 0.048,0.039 0.08,0.036 0.058,-0.006 0.082,-0.068 0.071,-0.185 -0.006,-0.062 -0.008,-0.115 -0.007,-0.158 0.001,-0.046 0.006,-0.073 0.015,-0.081 0.006,-0.005 0.017,-0.007 0.032,-0.007 0.004,0 0.011,0 0.021,0.001l0.011 0.001 0.011 -0c0.018,0 0.031,-0.002 0.042,-0.007 0.013,-0.006 0.023,-0.017 0.027,-0.033 0.006,-0.02 0.004,-0.039 -0.006,-0.057 -0.01,-0.017 -0.026,-0.033 -0.049,-0.048 -0.046,-0.029 -0.108,-0.047 -0.183,-0.055zm0.6 0.093c-0.007,0.009 -0.015,0.019 -0.023,0.031 -0.014,0.021 -0.025,0.044 -0.036,0.069l-0.007 0.018 -0.007 0.019c-0.006,0.016 -0.011,0.029 -0.014,0.037 -0.007,0.016 -0.014,0.028 -0.02,0.035 -0.005,0.006 -0.01,0.009 -0.016,0.011 -0.005,0.002 -0.011,0.003 -0.019,0.001 0.007,0 0.013,-0.001 0.018,-0.003 0.005,-0.003 0.009,-0.007 0.014,-0.012 0.006,-0.007 0.011,-0.018 0.017,-0.034l0.006 -0.019 0.007 -0.019c0.005,-0.015 0.01,-0.027 0.014,-0.037 0.011,-0.027 0.024,-0.05 0.038,-0.069 0.019,-0.026 0.037,-0.043 0.056,-0.052 -0.01,0.007 -0.02,0.015 -0.028,0.025zm-0.271 0.091c-0.004,0.018 -0.009,0.039 -0.013,0.064l-0.005 0.032 -0.005 0.032c0,-0.064 0.009,-0.12 0.027,-0.17 0.003,-0.01 0.007,-0.019 0.01,-0.026 0.005,-0.01 0.01,-0.019 0.015,-0.026 0.014,-0.019 0.029,-0.028 0.046,-0.026 -0.021,0.001 -0.038,0.017 -0.052,0.046 -0.005,0.011 -0.01,0.024 -0.014,0.039 -0.002,0.005 -0.003,0.012 -0.005,0.019l-0.002 0.009 -0.001 0.004 -0.001 0.004zm0.377 -0.143c-0.032,-0.023 -0.065,-0.023 -0.1,0.001 -0.029,0.019 -0.055,0.051 -0.078,0.096 -0.007,0.014 -0.015,0.031 -0.023,0.05 -0.003,0.007 -0.006,0.015 -0.009,0.024l-0.004 0.011 -0.002 0.005 -0.002 0.005c-0.006,0.016 -0.01,0.027 -0.013,0.033 -0.004,0.008 -0.008,0.012 -0.012,0.012 -0.007,-0.001 -0.01,-0.007 -0.01,-0.018 -0,-0.01 0.003,-0.032 0.009,-0.067 0.011,-0.064 0.009,-0.11 -0.006,-0.137 -0.012,-0.021 -0.033,-0.03 -0.061,-0.027 -0.035,0.004 -0.063,0.038 -0.086,0.103 -0.022,0.063 -0.033,0.14 -0.034,0.231 -0.002,0.168 0.04,0.26 0.126,0.277 0.025,0.004 0.051,-0.001 0.076,-0.016 0.024,-0.015 0.045,-0.035 0.063,-0.063 0.016,-0.024 0.029,-0.046 0.04,-0.066 0.004,-0.008 0.008,-0.016 0.011,-0.023 0.003,-0.005 0.005,-0.011 0.008,-0.017 0.005,-0.011 0.008,-0.017 0.009,-0.019 0.002,-0.003 0.005,-0.004 0.008,-0.003 0.003,0.001 0.003,0.013 -0,0.036l-0.001 0.008 -0.002 0.008c-0.001,0.007 -0.002,0.013 -0.003,0.018 -0.002,0.015 -0.004,0.029 -0.004,0.04 -0.004,0.071 0.018,0.108 0.066,0.109 0.031,0.001 0.056,-0.027 0.076,-0.083 0.017,-0.051 0.028,-0.115 0.031,-0.193 0.003,-0.076 -0.002,-0.146 -0.014,-0.208 -0.013,-0.067 -0.033,-0.11 -0.058,-0.129z"/>
   <path class="fil0" d="M15.962 0.34c-0.004,0.002 -0.007,0.005 -0.011,0.009 -0.005,0.006 -0.009,0.015 -0.012,0.028 -0.004,0.017 -0.006,0.037 -0.006,0.063l-0 0.008 -0 0.008c0,0.006 -0,0.012 -0.001,0.017 -0.002,0.012 -0.005,0.023 -0.009,0.032 -0.005,0.01 -0.011,0.019 -0.018,0.026 -0.008,0.007 -0.017,0.012 -0.026,0.015 0.019,-0.009 0.032,-0.023 0.04,-0.044 0.004,-0.01 0.006,-0.02 0.007,-0.03 0,-0.004 0.001,-0.009 0.001,-0.015l-0 -0.008 0 -0.008c0.001,-0.026 0.003,-0.048 0.008,-0.064 0.004,-0.013 0.009,-0.023 0.015,-0.029 0.004,-0.004 0.009,-0.007 0.013,-0.008 0.004,-0.001 0.009,-0.002 0.015,-0.001 -0.006,0.001 -0.011,0.002 -0.014,0.003zm-0.272 0c-0.01,0.01 -0.018,0.023 -0.023,0.039 -0.005,0.013 -0.009,0.028 -0.014,0.046l-0.006 0.023 -0.006 0.023c0.002,-0.033 0.009,-0.065 0.02,-0.095 0.006,-0.017 0.015,-0.031 0.026,-0.041 0.006,-0.006 0.013,-0.01 0.02,-0.013 0.008,-0.003 0.015,-0.003 0.022,-0.002 -0.014,0.001 -0.027,0.008 -0.038,0.02zm0.286 -0.037c-0.027,0.001 -0.047,0.013 -0.06,0.038 -0.012,0.024 -0.018,0.061 -0.018,0.112 -0,0.022 -0.005,0.039 -0.015,0.05 -0.009,0.009 -0.019,0.013 -0.032,0.011 -0.013,-0.002 -0.023,-0.008 -0.029,-0.02 -0.006,-0.012 -0.008,-0.027 -0.006,-0.045 0.007,-0.051 0.004,-0.09 -0.01,-0.117 -0.012,-0.024 -0.033,-0.039 -0.063,-0.045 -0.024,-0.005 -0.046,0 -0.066,0.016 -0.019,0.015 -0.034,0.036 -0.044,0.064 -0.019,0.054 -0.031,0.118 -0.034,0.193 -0.004,0.072 0,0.141 0.012,0.206 0.009,0.049 0.024,0.084 0.047,0.106 0.018,0.018 0.039,0.026 0.063,0.023 0.052,-0.006 0.077,-0.046 0.075,-0.121 -0.002,-0.054 0.01,-0.081 0.035,-0.08 0.012,0 0.021,0.006 0.028,0.016 0.008,0.014 0.011,0.035 0.009,0.063 -0.004,0.048 0.001,0.085 0.017,0.112 0.014,0.024 0.035,0.037 0.064,0.038 0.048,0.002 0.082,-0.029 0.104,-0.093 0.016,-0.046 0.027,-0.124 0.035,-0.232 0.006,-0.083 -0.001,-0.153 -0.021,-0.21 -0.02,-0.059 -0.05,-0.088 -0.088,-0.087zm0.422 0.147c-0.011,0.014 -0.023,0.026 -0.033,0.036 -0.014,0.012 -0.027,0.021 -0.04,0.026 0.01,-0.007 0.023,-0.017 0.036,-0.031 0.011,-0.011 0.021,-0.023 0.032,-0.036 0.005,-0.007 0.01,-0.013 0.014,-0.019l0.004 -0.005 0.003 -0.005c0.003,-0.004 0.005,-0.008 0.008,-0.01 0.006,-0.007 0.012,-0.012 0.02,-0.015 0.008,-0.004 0.016,-0.005 0.023,-0.004 -0.014,0.001 -0.027,0.009 -0.038,0.024 -0.002,0.002 -0.004,0.006 -0.007,0.01l-0.003 0.005 -0.004 0.005c-0.004,0.006 -0.009,0.012 -0.015,0.02zm-0.155 -0.103c-0.006,0.004 -0.011,0.009 -0.016,0.015 -0.007,0.009 -0.015,0.022 -0.022,0.038 -0.005,0.01 -0.01,0.024 -0.016,0.043l-0.007 0.022 -0.007 0.022c0.002,-0.018 0.005,-0.033 0.008,-0.046 0.004,-0.016 0.009,-0.031 0.015,-0.044 0.008,-0.017 0.016,-0.03 0.025,-0.04 0.006,-0.006 0.012,-0.011 0.018,-0.014 0.008,-0.003 0.015,-0.005 0.022,-0.004 -0.007,0.001 -0.014,0.003 -0.02,0.007zm0.171 0.262c-0.01,-0.007 -0.013,-0.013 -0.007,-0.018 0.002,-0.002 0.007,-0.005 0.013,-0.008l0.005 -0.002 0.005 -0.003c0.005,-0.002 0.008,-0.003 0.011,-0.005 0.021,-0.01 0.037,-0.021 0.05,-0.033 0.019,-0.018 0.033,-0.039 0.042,-0.064 0.008,-0.023 0.008,-0.046 0.001,-0.068 -0.007,-0.02 -0.018,-0.035 -0.035,-0.045 -0.017,-0.01 -0.034,-0.013 -0.053,-0.008 -0.021,0.005 -0.039,0.02 -0.054,0.043 -0.026,0.039 -0.051,0.066 -0.074,0.08 -0.009,0.006 -0.015,0.007 -0.018,0.005 -0.003,-0.003 -0.002,-0.01 0.003,-0.021 0.021,-0.043 0.029,-0.079 0.022,-0.106 -0.005,-0.023 -0.019,-0.038 -0.041,-0.045 -0.046,-0.014 -0.082,0.01 -0.109,0.07 -0.022,0.048 -0.038,0.119 -0.048,0.213 -0.01,0.094 -0.009,0.171 0.003,0.229 0.014,0.071 0.042,0.106 0.086,0.106 0.04,0 0.064,-0.031 0.073,-0.092 0.003,-0.021 0.004,-0.044 0.003,-0.07 -0.001,-0.009 -0.001,-0.018 -0.002,-0.027 -0,-0.004 -0,-0.007 -0.001,-0.011l-0 -0.004 -0 -0.002 0 -0.001c-0.001,-0.008 0,-0.013 0.003,-0.016 0.003,-0.003 0.008,-0.001 0.013,0.004 0.014,0.014 0.027,0.048 0.038,0.102 0.007,0.034 0.018,0.063 0.033,0.086 0.014,0.021 0.03,0.035 0.048,0.042 0.018,0.007 0.035,0.007 0.053,0.001 0.017,-0.007 0.033,-0.019 0.045,-0.037 0.014,-0.021 0.022,-0.044 0.023,-0.071 0.002,-0.025 -0.003,-0.052 -0.013,-0.079 -0.022,-0.058 -0.062,-0.106 -0.12,-0.144zm0.564 -0.227c-0.006,0.005 -0.011,0.012 -0.017,0.02 -0.009,0.011 -0.018,0.026 -0.029,0.044l-0.007 0.011 -0.007 0.012c-0.005,0.009 -0.01,0.016 -0.015,0.022 -0.007,0.009 -0.013,0.016 -0.018,0.02 -0.008,0.007 -0.016,0.011 -0.023,0.012 0.008,-0.003 0.015,-0.008 0.02,-0.015 0.004,-0.005 0.01,-0.012 0.015,-0.021 0.003,-0.005 0.008,-0.013 0.013,-0.023l0.014 -0.023c0.012,-0.019 0.022,-0.034 0.031,-0.044 0.007,-0.008 0.013,-0.014 0.019,-0.019 0.009,-0.006 0.017,-0.009 0.024,-0.009 -0.007,0.001 -0.014,0.005 -0.022,0.012zm-0.275 0.384c-0.007,0.005 -0.012,0.009 -0.017,0.013 -0.013,0.009 -0.023,0.019 -0.03,0.028 -0.004,0.006 -0.008,0.012 -0.011,0.018 -0.002,0.005 -0.005,0.012 -0.007,0.021 0,-0.007 0.001,-0.015 0.003,-0.022 0.002,-0.007 0.006,-0.014 0.01,-0.02 0.007,-0.01 0.017,-0.02 0.03,-0.031 0.009,-0.007 0.021,-0.014 0.035,-0.023l0.009 -0.005 0.009 -0.005c0.007,-0.004 0.013,-0.008 0.017,-0.011 -0.008,0.009 -0.018,0.018 -0.032,0.028l-0.017 0.012zm-0.054 -0.359c-0.004,0.006 -0.007,0.013 -0.01,0.021 -0.002,0.007 -0.003,0.015 -0.004,0.024 -0.003,-0.008 -0.004,-0.016 -0.002,-0.026 0.001,-0.009 0.004,-0.017 0.01,-0.025 0.005,-0.007 0.012,-0.013 0.02,-0.016 0.008,-0.004 0.016,-0.004 0.024,-0.002 -0.016,0.003 -0.029,0.011 -0.038,0.024zm0.352 -0.071c-0.016,-0.001 -0.033,0.007 -0.05,0.023 -0.012,0.012 -0.026,0.03 -0.041,0.053l-0.009 0.015 -0.004 0.007 -0.004 0.007c-0.007,0.011 -0.012,0.02 -0.016,0.025 -0.011,0.016 -0.019,0.024 -0.025,0.024 -0.006,-0 -0.019,-0.012 -0.037,-0.036l-0.003 -0.004 -0.004 -0.005c-0.003,-0.003 -0.005,-0.006 -0.007,-0.009 -0.005,-0.007 -0.01,-0.013 -0.015,-0.019 -0.013,-0.015 -0.025,-0.028 -0.037,-0.04 -0.019,-0.019 -0.04,-0.028 -0.062,-0.029 -0.02,-0.001 -0.038,0.006 -0.053,0.019 -0.015,0.014 -0.025,0.031 -0.029,0.053 -0.005,0.023 -0.001,0.046 0.01,0.07 0.008,0.017 0.02,0.035 0.036,0.054 0.006,0.007 0.013,0.015 0.022,0.024l0.011 0.012 0.011 0.011c0.018,0.018 0.03,0.032 0.037,0.041 0.01,0.014 0.016,0.026 0.016,0.037 0,0.011 -0.006,0.022 -0.02,0.034 -0.005,0.004 -0.012,0.009 -0.022,0.015l-0.006 0.004 -0.006 0.004 -0.013 0.008c-0.021,0.014 -0.037,0.028 -0.048,0.042 -0.015,0.019 -0.024,0.04 -0.026,0.064 -0.001,0.018 0.001,0.036 0.007,0.052 0.006,0.016 0.016,0.029 0.029,0.039 0.029,0.023 0.067,0.028 0.112,0.015 0.061,-0.017 0.123,-0.071 0.186,-0.161 0.057,-0.081 0.094,-0.158 0.112,-0.233 0.018,-0.076 0.021,-0.133 0.009,-0.17 -0.01,-0.031 -0.031,-0.048 -0.062,-0.049z"/>
  </g>
 </g>
</svg>
