<?xml version="1.0" encoding="UTF-8"?>
<!DOCTYPE svg PUBLIC "-//W3C//DTD SVG 1.1//EN" "http://www.w3.org/Graphics/SVG/1.1/DTD/svg11.dtd">
<!-- Creator: CorelDRAW -->
<svg xmlns="http://www.w3.org/2000/svg" xml:space="preserve" width="32.329mm" height="15.6174mm" version="1.1" style="shape-rendering:geometricPrecision; text-rendering:geometricPrecision; image-rendering:optimizeQuality; fill-rule:evenodd; clip-rule:evenodd"
viewBox="0 0 79.13 38.22"
 xmlns:xlink="http://www.w3.org/1999/xlink"
 xmlns:xodm="http://www.corel.com/coreldraw/odm/2003">
 <defs>
  <style type="text/css">
   <![CDATA[
    .fil0 {fill:#656554;fill-rule:nonzero}
   ]]>
  </style>
 </defs>
 <g id="Слой_x0020_1">
  <metadata id="CorelCorpID_0Corel-Layer"/>
  <g id="_1302309024">
   <path class="fil0" d="M0.45 4.77l0 -4.62 2.3 0 0 0.45 -1.84 0 0 1.48 0.21 0c0.57,0 0.99,0.05 1.24,0.15 0.26,0.1 0.46,0.26 0.61,0.48 0.15,0.22 0.22,0.46 0.22,0.73 0,0.35 -0.13,0.66 -0.39,0.93 -0.26,0.27 -0.63,0.4 -1.1,0.4l-1.26 0zm0.46 -2.23l0 1.78 0.56 0c0.33,0 0.58,-0.03 0.73,-0.1 0.16,-0.07 0.28,-0.17 0.37,-0.31 0.09,-0.14 0.14,-0.29 0.14,-0.46 0,-0.21 -0.06,-0.4 -0.2,-0.55 -0.13,-0.15 -0.29,-0.25 -0.49,-0.3 -0.19,-0.05 -0.48,-0.07 -0.87,-0.07l-0.26 0z"/>
   <path id="_1" class="fil0" d="M6.92 3.64l0.37 0.2c-0.12,0.24 -0.26,0.43 -0.42,0.58 -0.16,0.14 -0.34,0.26 -0.54,0.33 -0.2,0.08 -0.42,0.11 -0.67,0.11 -0.56,0 -0.99,-0.18 -1.3,-0.55 -0.31,-0.36 -0.47,-0.78 -0.47,-1.24 0,-0.43 0.13,-0.82 0.4,-1.16 0.34,-0.43 0.79,-0.65 1.35,-0.65 0.58,0 1.05,0.22 1.39,0.66 0.25,0.31 0.37,0.7 0.38,1.17l-3.07 0c0.01,0.4 0.14,0.72 0.38,0.97 0.25,0.25 0.55,0.38 0.91,0.38 0.17,0 0.34,-0.03 0.51,-0.09 0.16,-0.06 0.3,-0.14 0.42,-0.24 0.12,-0.1 0.24,-0.26 0.37,-0.48zm0 -0.92c-0.06,-0.24 -0.14,-0.42 -0.26,-0.56 -0.11,-0.14 -0.26,-0.25 -0.45,-0.34 -0.18,-0.09 -0.38,-0.13 -0.58,-0.13 -0.34,0 -0.62,0.11 -0.87,0.32 -0.18,0.16 -0.31,0.39 -0.4,0.71l2.55 0z"/>
   <path id="_2" class="fil0" d="M8.22 1.35l0.44 0 0 0.63c0.17,-0.24 0.37,-0.42 0.6,-0.54 0.22,-0.12 0.48,-0.18 0.75,-0.18 0.48,0 0.9,0.17 1.24,0.52 0.34,0.35 0.52,0.77 0.52,1.26 0,0.5 -0.17,0.93 -0.51,1.28 -0.34,0.35 -0.75,0.52 -1.23,0.52 -0.27,0 -0.52,-0.06 -0.75,-0.17 -0.23,-0.11 -0.43,-0.28 -0.62,-0.51l0 1.84 -0.44 0 0 -4.67zm1.75 0.34c-0.38,0 -0.7,0.13 -0.95,0.4 -0.26,0.27 -0.39,0.59 -0.39,0.99 0,0.26 0.06,0.49 0.17,0.7 0.12,0.21 0.28,0.37 0.5,0.49 0.22,0.12 0.44,0.18 0.68,0.18 0.23,0 0.46,-0.06 0.66,-0.18 0.21,-0.12 0.37,-0.29 0.49,-0.51 0.12,-0.22 0.18,-0.45 0.18,-0.69 0,-0.24 -0.06,-0.47 -0.18,-0.69 -0.12,-0.22 -0.28,-0.39 -0.49,-0.5 -0.2,-0.12 -0.43,-0.18 -0.67,-0.18z"/>
   <polygon id="_3" class="fil0" points="13.01,1.74 13.01,4.77 12.58,4.77 12.58,1.35 14.3,1.35 14.3,1.74 "/>
   <path id="_4" class="fil0" d="M18.27 1.35l0 3.42 -0.44 0 0 -0.59c-0.18,0.22 -0.39,0.39 -0.62,0.5 -0.23,0.11 -0.48,0.17 -0.75,0.17 -0.48,0 -0.89,-0.17 -1.23,-0.52 -0.34,-0.35 -0.51,-0.78 -0.51,-1.28 0,-0.49 0.17,-0.91 0.52,-1.26 0.34,-0.35 0.76,-0.52 1.24,-0.52 0.28,0 0.53,0.06 0.76,0.18 0.23,0.12 0.42,0.3 0.59,0.54l0 -0.63 0.44 0zm-1.75 0.34c-0.24,0 -0.47,0.06 -0.67,0.18 -0.21,0.12 -0.37,0.29 -0.49,0.5 -0.12,0.22 -0.18,0.45 -0.18,0.69 0,0.24 0.06,0.47 0.18,0.69 0.12,0.22 0.29,0.39 0.49,0.51 0.21,0.12 0.43,0.18 0.67,0.18 0.24,0 0.47,-0.06 0.68,-0.18 0.21,-0.12 0.38,-0.28 0.49,-0.49 0.12,-0.21 0.17,-0.44 0.17,-0.7 0,-0.39 -0.13,-0.72 -0.39,-0.99 -0.26,-0.27 -0.58,-0.4 -0.95,-0.4z"/>
   <path id="_5" class="fil0" d="M22.56 2.06l-0.35 0.22c-0.3,-0.4 -0.71,-0.6 -1.23,-0.6 -0.42,0 -0.76,0.13 -1.04,0.4 -0.27,0.27 -0.41,0.59 -0.41,0.97 0,0.25 0.06,0.48 0.19,0.7 0.13,0.22 0.3,0.39 0.52,0.51 0.22,0.12 0.47,0.18 0.74,0.18 0.5,0 0.91,-0.2 1.23,-0.6l0.35 0.23c-0.16,0.25 -0.38,0.44 -0.66,0.57 -0.28,0.14 -0.59,0.2 -0.94,0.2 -0.54,0 -0.99,-0.17 -1.34,-0.51 -0.36,-0.34 -0.53,-0.76 -0.53,-1.25 0,-0.33 0.08,-0.64 0.25,-0.92 0.17,-0.28 0.39,-0.5 0.68,-0.66 0.29,-0.16 0.62,-0.24 0.98,-0.24 0.23,0 0.44,0.03 0.65,0.1 0.21,0.07 0.39,0.16 0.53,0.27 0.15,0.11 0.27,0.25 0.37,0.42z"/>
   <path id="_6" class="fil0" d="M26.79 1.35l0 3.42 -0.44 0 0 -0.59c-0.18,0.22 -0.39,0.39 -0.62,0.5 -0.23,0.11 -0.48,0.17 -0.75,0.17 -0.48,0 -0.89,-0.17 -1.23,-0.52 -0.34,-0.35 -0.51,-0.78 -0.51,-1.28 0,-0.49 0.17,-0.91 0.52,-1.26 0.34,-0.35 0.76,-0.52 1.24,-0.52 0.28,0 0.53,0.06 0.76,0.18 0.23,0.12 0.42,0.3 0.59,0.54l0 -0.63 0.44 0zm-1.75 0.34c-0.24,0 -0.47,0.06 -0.67,0.18 -0.21,0.12 -0.37,0.29 -0.49,0.5 -0.12,0.22 -0.18,0.45 -0.18,0.69 0,0.24 0.06,0.47 0.18,0.69 0.12,0.22 0.29,0.39 0.49,0.51 0.21,0.12 0.43,0.18 0.67,0.18 0.24,0 0.47,-0.06 0.68,-0.18 0.21,-0.12 0.38,-0.28 0.49,-0.49 0.12,-0.21 0.17,-0.44 0.17,-0.7 0,-0.39 -0.13,-0.72 -0.39,-0.99 -0.26,-0.27 -0.58,-0.4 -0.95,-0.4z"/>
   <path id="_7" class="fil0" d="M32.85 2.06l-0.35 0.22c-0.3,-0.4 -0.71,-0.6 -1.23,-0.6 -0.42,0 -0.76,0.13 -1.04,0.4 -0.27,0.27 -0.41,0.59 -0.41,0.97 0,0.25 0.06,0.48 0.19,0.7 0.13,0.22 0.3,0.39 0.52,0.51 0.22,0.12 0.47,0.18 0.74,0.18 0.5,0 0.91,-0.2 1.23,-0.6l0.35 0.23c-0.16,0.25 -0.38,0.44 -0.66,0.57 -0.28,0.14 -0.59,0.2 -0.94,0.2 -0.54,0 -0.99,-0.17 -1.34,-0.51 -0.36,-0.34 -0.53,-0.76 -0.53,-1.25 0,-0.33 0.08,-0.64 0.25,-0.92 0.17,-0.28 0.39,-0.5 0.68,-0.66 0.29,-0.16 0.62,-0.24 0.98,-0.24 0.23,0 0.44,0.03 0.65,0.1 0.21,0.07 0.39,0.16 0.53,0.27 0.15,0.11 0.27,0.25 0.37,0.42z"/>
   <polygon id="_8" class="fil0" points="34.12,1.35 34.12,3.89 36.62,1.35 36.66,1.35 36.66,4.77 36.22,4.77 36.22,2.26 33.74,4.77 33.69,4.77 33.69,1.35 "/>
   <path id="_9" class="fil0" d="M38.2 2.78l0.23 0c0.15,0 0.28,-0.05 0.4,-0.14 0.12,-0.1 0.18,-0.23 0.18,-0.41 0,-0.15 -0.05,-0.28 -0.15,-0.39 -0.1,-0.11 -0.25,-0.16 -0.46,-0.16 -0.24,0 -0.48,0.09 -0.72,0.28l-0.25 -0.3c0.31,-0.26 0.64,-0.39 0.98,-0.39 0.29,0 0.52,0.08 0.72,0.25 0.19,0.17 0.29,0.39 0.29,0.65 0,0.35 -0.16,0.59 -0.47,0.72 0.41,0.17 0.61,0.47 0.61,0.9 0,0.27 -0.1,0.52 -0.29,0.74 -0.19,0.22 -0.48,0.33 -0.86,0.33 -0.47,0 -0.84,-0.15 -1.13,-0.46l0.27 -0.31c0.21,0.24 0.48,0.36 0.82,0.36 0.22,0 0.4,-0.06 0.52,-0.18 0.13,-0.12 0.19,-0.28 0.19,-0.47 0,-0.19 -0.06,-0.34 -0.19,-0.46 -0.13,-0.12 -0.28,-0.17 -0.45,-0.17l-0.27 0 0 -0.38z"/>
   <path id="_10" class="fil0" d="M40.77 2.71l0.42 0c0.33,0 0.59,0.03 0.78,0.08 0.19,0.05 0.35,0.17 0.49,0.35 0.14,0.18 0.2,0.39 0.2,0.62 0,0.28 -0.1,0.52 -0.29,0.72 -0.2,0.2 -0.49,0.3 -0.89,0.3l-1.13 0 0 -3.42 0.43 0 0 1.35zm0.02 0.41l0 1.29 0.5 0c0.59,0 0.89,-0.21 0.89,-0.63 0,-0.12 -0.03,-0.24 -0.1,-0.35 -0.06,-0.11 -0.16,-0.2 -0.28,-0.24 -0.12,-0.05 -0.34,-0.07 -0.65,-0.07l-0.37 0z"/>
   <path id="_11" class="fil0" d="M43.78 2.71l0.42 0c0.33,0 0.59,0.03 0.78,0.08 0.19,0.05 0.35,0.17 0.49,0.35 0.14,0.18 0.2,0.39 0.2,0.62 0,0.28 -0.1,0.52 -0.29,0.72 -0.2,0.2 -0.49,0.3 -0.89,0.3l-1.13 0 0 -3.42 0.43 0 0 1.35zm0.02 0.41l0 1.29 0.5 0c0.59,0 0.89,-0.21 0.89,-0.63 0,-0.12 -0.03,-0.24 -0.1,-0.35 -0.06,-0.11 -0.16,-0.2 -0.28,-0.24 -0.12,-0.05 -0.34,-0.07 -0.65,-0.07l-0.37 0zm2.48 -1.76l0.44 0 0 3.42 -0.44 0 0 -3.42z"/>
   <polygon id="_12" class="fil0" points="50.53,4.77 50.07,4.77 48.92,2.28 47.79,4.77 47.32,4.77 48.88,1.35 48.95,1.35 "/>
   <polygon id="_13" class="fil0" points="52.96,1.35 53.4,1.35 53.4,2.79 54.98,1.35 55.58,1.35 53.86,2.91 55.72,4.77 55.1,4.77 53.54,3.19 53.4,3.31 53.4,4.77 52.96,4.77 "/>
   <polygon id="_14" class="fil0" points="55.81,1.35 56.27,1.35 57.44,3.97 58.58,1.35 59.04,1.35 57.02,6.02 56.55,6.02 57.22,4.49 "/>
   <path id="_15" class="fil0" d="M62.99 1.35l0 3.42 -0.44 0 0 -0.59c-0.18,0.22 -0.39,0.39 -0.62,0.5 -0.23,0.11 -0.48,0.17 -0.75,0.17 -0.48,0 -0.89,-0.17 -1.23,-0.52 -0.34,-0.35 -0.51,-0.78 -0.51,-1.28 0,-0.49 0.17,-0.91 0.52,-1.26 0.34,-0.35 0.76,-0.52 1.24,-0.52 0.28,0 0.53,0.06 0.76,0.18 0.22,0.12 0.42,0.3 0.59,0.54l0 -0.63 0.44 0zm-1.75 0.34c-0.24,0 -0.47,0.06 -0.67,0.18 -0.21,0.12 -0.37,0.29 -0.49,0.5 -0.12,0.22 -0.18,0.45 -0.18,0.69 0,0.24 0.06,0.47 0.18,0.69 0.12,0.22 0.29,0.39 0.49,0.51 0.21,0.12 0.43,0.18 0.67,0.18 0.24,0 0.47,-0.06 0.68,-0.18 0.21,-0.12 0.38,-0.28 0.49,-0.49 0.12,-0.21 0.17,-0.44 0.17,-0.7 0,-0.39 -0.13,-0.72 -0.39,-0.99 -0.26,-0.27 -0.58,-0.4 -0.95,-0.4z"/>
   <path id="_16" class="fil0" d="M63.99 1.35l0.44 0 0 0.63c0.17,-0.24 0.37,-0.42 0.6,-0.54 0.23,-0.12 0.48,-0.18 0.75,-0.18 0.48,0 0.9,0.17 1.24,0.52 0.34,0.35 0.51,0.77 0.51,1.26 0,0.5 -0.17,0.93 -0.51,1.28 -0.34,0.35 -0.75,0.52 -1.23,0.52 -0.27,0 -0.52,-0.06 -0.75,-0.17 -0.23,-0.11 -0.43,-0.28 -0.62,-0.51l0 1.84 -0.44 0 0 -4.67zm1.75 0.34c-0.38,0 -0.7,0.13 -0.95,0.4 -0.26,0.27 -0.39,0.59 -0.39,0.99 0,0.26 0.06,0.49 0.17,0.7 0.12,0.21 0.28,0.37 0.49,0.49 0.22,0.12 0.44,0.18 0.68,0.18 0.23,0 0.46,-0.06 0.66,-0.18 0.21,-0.12 0.37,-0.29 0.49,-0.51 0.12,-0.22 0.18,-0.45 0.18,-0.69 0,-0.24 -0.06,-0.47 -0.18,-0.69 -0.12,-0.22 -0.28,-0.39 -0.49,-0.5 -0.2,-0.12 -0.43,-0.18 -0.67,-0.18z"/>
   <path id="_17" class="fil0" d="M69.09 2.71l0.42 0c0.33,0 0.59,0.03 0.78,0.08 0.19,0.05 0.35,0.17 0.48,0.35 0.14,0.18 0.2,0.39 0.2,0.62 0,0.28 -0.1,0.52 -0.3,0.72 -0.2,0.2 -0.49,0.3 -0.89,0.3l-1.13 0 0 -3.01 -0.63 0 0 -0.41 1.06 0 0 1.35zm0 0.37l0 1.32 0.5 0c0.6,0 0.9,-0.22 0.9,-0.65 0,-0.15 -0.04,-0.28 -0.12,-0.39 -0.08,-0.11 -0.18,-0.19 -0.31,-0.22 -0.13,-0.04 -0.33,-0.05 -0.6,-0.05l-0.37 0z"/>
   <path id="_18" class="fil0" d="M74.54 3.64l0.37 0.2c-0.12,0.24 -0.26,0.43 -0.42,0.58 -0.16,0.14 -0.34,0.26 -0.54,0.33 -0.2,0.08 -0.42,0.11 -0.67,0.11 -0.56,0 -0.99,-0.18 -1.3,-0.55 -0.31,-0.36 -0.47,-0.78 -0.47,-1.24 0,-0.43 0.13,-0.82 0.4,-1.16 0.34,-0.43 0.79,-0.65 1.35,-0.65 0.58,0 1.05,0.22 1.39,0.66 0.25,0.31 0.37,0.7 0.38,1.17l-3.07 0c0.01,0.4 0.14,0.72 0.38,0.97 0.25,0.25 0.55,0.38 0.91,0.38 0.17,0 0.34,-0.03 0.51,-0.09 0.16,-0.06 0.3,-0.14 0.42,-0.24 0.12,-0.1 0.24,-0.26 0.37,-0.48zm0 -0.92c-0.06,-0.24 -0.14,-0.42 -0.26,-0.56 -0.11,-0.14 -0.26,-0.25 -0.45,-0.34 -0.18,-0.09 -0.38,-0.13 -0.58,-0.13 -0.34,0 -0.62,0.11 -0.87,0.32 -0.18,0.16 -0.31,0.39 -0.4,0.71l2.55 0zm-1.92 -2.72c0.1,0 0.18,0.04 0.26,0.11 0.07,0.07 0.11,0.16 0.11,0.26 0,0.1 -0.04,0.19 -0.11,0.26 -0.07,0.07 -0.16,0.11 -0.26,0.11 -0.1,0 -0.18,-0.04 -0.26,-0.11 -0.07,-0.07 -0.11,-0.16 -0.11,-0.26 0,-0.1 0.04,-0.19 0.11,-0.26 0.07,-0.07 0.16,-0.11 0.26,-0.11zm1.27 0c0.1,0 0.18,0.04 0.26,0.11 0.07,0.07 0.11,0.16 0.11,0.26 0,0.1 -0.04,0.19 -0.11,0.26 -0.07,0.07 -0.16,0.11 -0.26,0.11 -0.1,0 -0.18,-0.04 -0.26,-0.11 -0.07,-0.07 -0.11,-0.16 -0.11,-0.26 0,-0.1 0.03,-0.19 0.11,-0.26 0.07,-0.07 0.16,-0.11 0.26,-0.11z"/>
   <path id="_19" class="fil0" d="M79.13 2.06l-0.35 0.22c-0.3,-0.4 -0.71,-0.6 -1.23,-0.6 -0.42,0 -0.76,0.13 -1.04,0.4 -0.27,0.27 -0.41,0.59 -0.41,0.97 0,0.25 0.06,0.48 0.19,0.7 0.13,0.22 0.3,0.39 0.52,0.51 0.22,0.12 0.47,0.18 0.74,0.18 0.5,0 0.91,-0.2 1.23,-0.6l0.35 0.23c-0.16,0.25 -0.38,0.44 -0.66,0.57 -0.28,0.14 -0.59,0.2 -0.94,0.2 -0.54,0 -0.99,-0.17 -1.34,-0.51 -0.36,-0.34 -0.53,-0.76 -0.53,-1.25 0,-0.33 0.08,-0.64 0.25,-0.92 0.17,-0.28 0.39,-0.5 0.68,-0.66 0.29,-0.16 0.62,-0.24 0.98,-0.24 0.23,0 0.44,0.03 0.65,0.1 0.21,0.07 0.39,0.16 0.53,0.27 0.15,0.11 0.27,0.25 0.37,0.42z"/>
   <path id="_20" class="fil0" d="M0.47 8.18l0.91 0c0.36,0 0.65,0.04 0.84,0.13 0.2,0.09 0.35,0.22 0.46,0.4 0.11,0.18 0.17,0.38 0.17,0.6 0,0.21 -0.05,0.39 -0.15,0.56 -0.1,0.17 -0.25,0.3 -0.44,0.41 0.24,0.08 0.42,0.18 0.55,0.29 0.13,0.11 0.23,0.24 0.3,0.4 0.07,0.16 0.11,0.33 0.11,0.51 0,0.37 -0.13,0.69 -0.4,0.94 -0.27,0.26 -0.63,0.39 -1.09,0.39l-1.26 0 0 -4.62zm0.45 0.45l0 1.48 0.26 0c0.32,0 0.56,-0.03 0.71,-0.09 0.15,-0.06 0.27,-0.15 0.36,-0.28 0.09,-0.13 0.13,-0.27 0.13,-0.43 0,-0.21 -0.07,-0.38 -0.22,-0.5 -0.15,-0.12 -0.38,-0.18 -0.71,-0.18l-0.53 0zm0 1.94l0 1.78 0.57 0c0.34,0 0.58,-0.03 0.74,-0.1 0.16,-0.07 0.28,-0.17 0.38,-0.31 0.09,-0.14 0.14,-0.29 0.14,-0.46 0,-0.21 -0.07,-0.39 -0.2,-0.54 -0.13,-0.15 -0.32,-0.26 -0.55,-0.31 -0.16,-0.04 -0.43,-0.06 -0.82,-0.06l-0.26 0z"/>
   <polygon id="_21" class="fil0" points="3.69,9.38 4.15,9.38 5.32,12 6.46,9.38 6.93,9.38 4.9,14.05 4.43,14.05 5.1,12.52 "/>
   <path id="_22" class="fil0" d="M10.25 12.8l-0.99 0 0 -3.42 0.97 0c0.37,0 0.64,0.09 0.8,0.26 0.16,0.17 0.25,0.37 0.25,0.6 0,0.35 -0.15,0.58 -0.46,0.7 0.44,0.16 0.66,0.46 0.66,0.91 0,0.63 -0.41,0.95 -1.24,0.95zm-0.55 -3.04l0 1.06 0.29 0c0.26,0 0.43,-0.01 0.51,-0.03 0.08,-0.02 0.15,-0.07 0.22,-0.15 0.07,-0.08 0.11,-0.19 0.11,-0.33 0,-0.14 -0.04,-0.26 -0.11,-0.36 -0.07,-0.1 -0.15,-0.15 -0.23,-0.17 -0.08,-0.02 -0.25,-0.02 -0.5,-0.02l-0.29 0zm0 1.47l0 1.2 0.47 0c0.22,0 0.38,-0.01 0.48,-0.04 0.1,-0.03 0.18,-0.09 0.24,-0.18 0.07,-0.09 0.1,-0.21 0.1,-0.36 0,-0.19 -0.06,-0.34 -0.18,-0.45 -0.12,-0.11 -0.27,-0.17 -0.46,-0.17l-0.65 0z"/>
   <path id="_23" class="fil0" d="M12.69 10.73l0.42 0c0.33,0 0.59,0.03 0.78,0.08 0.19,0.05 0.35,0.17 0.49,0.35 0.14,0.18 0.2,0.39 0.2,0.62 0,0.28 -0.1,0.52 -0.29,0.72 -0.2,0.2 -0.49,0.3 -0.89,0.3l-1.13 0 0 -3.42 0.43 0 0 1.35zm0.02 0.41l0 1.29 0.5 0c0.59,0 0.89,-0.21 0.89,-0.63 0,-0.12 -0.03,-0.24 -0.1,-0.35 -0.06,-0.11 -0.16,-0.2 -0.28,-0.24 -0.12,-0.05 -0.34,-0.07 -0.65,-0.07l-0.37 0zm2.48 -1.76l0.44 0 0 3.42 -0.44 0 0 -3.42z"/>
   <polygon id="_24" class="fil0" points="19.43,12.8 18.98,12.8 17.83,10.31 16.7,12.8 16.23,12.8 17.78,9.38 17.86,9.38 "/>
   <path id="_25" class="fil0" d="M22.97 11.67l0.37 0.2c-0.12,0.24 -0.26,0.43 -0.42,0.58 -0.16,0.14 -0.34,0.26 -0.54,0.33 -0.2,0.08 -0.42,0.11 -0.67,0.11 -0.56,0 -0.99,-0.18 -1.3,-0.55 -0.31,-0.36 -0.47,-0.78 -0.47,-1.24 0,-0.43 0.13,-0.82 0.4,-1.16 0.34,-0.43 0.79,-0.65 1.35,-0.65 0.58,0 1.05,0.22 1.39,0.66 0.25,0.31 0.37,0.7 0.38,1.17l-3.07 0c0.01,0.4 0.14,0.72 0.38,0.97 0.25,0.25 0.55,0.38 0.91,0.38 0.17,0 0.34,-0.03 0.51,-0.09 0.16,-0.06 0.3,-0.14 0.42,-0.24 0.12,-0.1 0.24,-0.26 0.37,-0.48zm0 -0.92c-0.06,-0.24 -0.14,-0.42 -0.26,-0.56 -0.11,-0.14 -0.26,-0.25 -0.45,-0.34 -0.18,-0.09 -0.38,-0.13 -0.58,-0.13 -0.34,0 -0.62,0.11 -0.87,0.32 -0.18,0.16 -0.31,0.39 -0.4,0.71l2.55 0z"/>
   <path id="_26" class="fil0" d="M27.02 12.8l-0.99 0 0 -3.42 0.97 0c0.37,0 0.64,0.09 0.8,0.26 0.16,0.17 0.25,0.37 0.25,0.6 0,0.35 -0.15,0.58 -0.46,0.7 0.44,0.16 0.66,0.46 0.66,0.91 0,0.63 -0.41,0.95 -1.24,0.95zm-0.55 -3.04l0 1.06 0.29 0c0.26,0 0.43,-0.01 0.51,-0.03 0.08,-0.02 0.15,-0.07 0.22,-0.15 0.07,-0.08 0.11,-0.19 0.11,-0.33 0,-0.14 -0.04,-0.26 -0.11,-0.36 -0.07,-0.1 -0.15,-0.15 -0.23,-0.17 -0.08,-0.02 -0.25,-0.02 -0.5,-0.02l-0.29 0zm0 1.47l0 1.2 0.47 0c0.22,0 0.38,-0.01 0.48,-0.04 0.1,-0.03 0.18,-0.09 0.24,-0.18 0.07,-0.09 0.1,-0.21 0.1,-0.36 0,-0.19 -0.06,-0.34 -0.18,-0.45 -0.12,-0.11 -0.27,-0.17 -0.46,-0.17l-0.65 0z"/>
   <path id="_27" class="fil0" d="M32.41 9.38l0 3.42 -0.44 0 0 -0.59c-0.18,0.22 -0.39,0.39 -0.62,0.5 -0.23,0.11 -0.48,0.17 -0.75,0.17 -0.48,0 -0.89,-0.17 -1.23,-0.52 -0.34,-0.35 -0.51,-0.78 -0.51,-1.28 0,-0.49 0.17,-0.91 0.52,-1.26 0.34,-0.35 0.76,-0.52 1.24,-0.52 0.28,0 0.53,0.06 0.76,0.18 0.22,0.12 0.42,0.3 0.59,0.54l0 -0.63 0.44 0zm-1.75 0.34c-0.24,0 -0.47,0.06 -0.67,0.18 -0.21,0.12 -0.37,0.29 -0.49,0.5 -0.12,0.22 -0.18,0.45 -0.18,0.69 0,0.24 0.06,0.47 0.18,0.69 0.12,0.22 0.29,0.39 0.49,0.51 0.21,0.12 0.43,0.18 0.67,0.18 0.24,0 0.47,-0.06 0.68,-0.18 0.21,-0.12 0.38,-0.28 0.49,-0.49 0.12,-0.21 0.17,-0.44 0.17,-0.7 0,-0.39 -0.13,-0.72 -0.39,-0.99 -0.26,-0.27 -0.58,-0.4 -0.95,-0.4z"/>
   <path id="_28" class="fil0" d="M36.7 10.09l-0.35 0.22c-0.3,-0.4 -0.71,-0.6 -1.23,-0.6 -0.42,0 -0.76,0.13 -1.04,0.4 -0.27,0.27 -0.41,0.59 -0.41,0.97 0,0.25 0.06,0.48 0.19,0.7 0.13,0.22 0.3,0.39 0.52,0.51 0.22,0.12 0.47,0.18 0.74,0.18 0.5,0 0.91,-0.2 1.23,-0.6l0.35 0.23c-0.16,0.25 -0.38,0.44 -0.66,0.57 -0.28,0.14 -0.59,0.2 -0.94,0.2 -0.54,0 -0.99,-0.17 -1.34,-0.51 -0.35,-0.34 -0.53,-0.76 -0.53,-1.25 0,-0.33 0.08,-0.64 0.25,-0.92 0.17,-0.28 0.39,-0.5 0.68,-0.66 0.29,-0.16 0.62,-0.24 0.98,-0.24 0.23,0 0.44,0.03 0.65,0.1 0.21,0.07 0.39,0.16 0.53,0.27 0.15,0.11 0.27,0.25 0.37,0.42z"/>
   <path id="_29" class="fil0" d="M37.97 10.73l0.42 0c0.33,0 0.59,0.03 0.78,0.08 0.19,0.05 0.35,0.17 0.49,0.35 0.14,0.18 0.2,0.39 0.2,0.62 0,0.28 -0.1,0.52 -0.29,0.72 -0.2,0.2 -0.49,0.3 -0.89,0.3l-1.13 0 0 -3.42 0.43 0 0 1.35zm0.02 0.41l0 1.29 0.5 0c0.59,0 0.89,-0.21 0.89,-0.63 0,-0.12 -0.03,-0.24 -0.1,-0.35 -0.06,-0.11 -0.16,-0.2 -0.28,-0.24 -0.12,-0.05 -0.34,-0.07 -0.65,-0.07l-0.37 0z"/>
   <polygon id="_30" class="fil0" points="40.55,9.38 40.99,9.38 40.99,10.82 42.57,9.38 43.17,9.38 41.45,10.94 43.31,12.8 42.69,12.8 41.13,11.22 40.99,11.34 40.99,12.8 40.55,12.8 "/>
   <path id="_31" class="fil0" d="M45.38 9.3c0.52,0 0.96,0.19 1.3,0.57 0.31,0.35 0.47,0.76 0.47,1.23 0,0.48 -0.17,0.89 -0.5,1.25 -0.33,0.36 -0.76,0.53 -1.28,0.53 -0.52,0 -0.95,-0.18 -1.28,-0.53 -0.33,-0.36 -0.5,-0.77 -0.5,-1.25 0,-0.47 0.16,-0.88 0.47,-1.23 0.34,-0.38 0.78,-0.57 1.31,-0.57zm-0 0.43c-0.36,0 -0.68,0.13 -0.94,0.4 -0.26,0.27 -0.39,0.6 -0.39,0.98 0,0.25 0.06,0.48 0.18,0.69 0.12,0.21 0.28,0.38 0.48,0.49 0.2,0.12 0.42,0.17 0.67,0.17 0.24,0 0.47,-0.06 0.67,-0.17 0.2,-0.12 0.36,-0.28 0.48,-0.49 0.12,-0.21 0.18,-0.44 0.18,-0.69 0,-0.38 -0.13,-0.71 -0.39,-0.98 -0.26,-0.27 -0.57,-0.4 -0.93,-0.4z"/>
   <path id="_32" class="fil0" d="M48.44 12.11c0.11,0 0.2,0.04 0.27,0.11 0.07,0.08 0.11,0.17 0.11,0.28 0,0.11 -0.04,0.2 -0.11,0.27 -0.08,0.08 -0.17,0.11 -0.27,0.11 -0.11,0 -0.2,-0.04 -0.27,-0.11 -0.07,-0.08 -0.11,-0.17 -0.11,-0.27 0,-0.11 0.04,-0.2 0.11,-0.28 0.08,-0.08 0.17,-0.11 0.27,-0.11z"/>
   <path id="_33" class="fil0" d="M2.33 18.2l0 -2 0.46 0 0 4.62 -0.46 0 0 -2.18 -0.33 0c-0.46,0 -0.79,-0.02 -1,-0.06 -0.21,-0.04 -0.4,-0.12 -0.57,-0.25 -0.17,-0.13 -0.28,-0.28 -0.34,-0.47 -0.06,-0.18 -0.09,-0.44 -0.09,-0.76l0 -0.92 0.45 0 0 0.95c0,0.39 0.08,0.66 0.23,0.82 0.15,0.16 0.41,0.23 0.77,0.23l0.32 -0 0.14 0 0.41 0z"/>
   <path id="_34" class="fil0" d="M5.45 17.33c0.52,0 0.96,0.19 1.3,0.57 0.31,0.35 0.47,0.76 0.47,1.23 0,0.48 -0.17,0.89 -0.5,1.25 -0.33,0.36 -0.76,0.53 -1.28,0.53 -0.52,0 -0.95,-0.18 -1.28,-0.53 -0.33,-0.36 -0.5,-0.77 -0.5,-1.25 0,-0.47 0.16,-0.88 0.47,-1.23 0.34,-0.38 0.78,-0.57 1.31,-0.57zm-0 0.43c-0.36,0 -0.68,0.13 -0.94,0.4 -0.26,0.27 -0.39,0.6 -0.39,0.98 0,0.25 0.06,0.48 0.18,0.69 0.12,0.21 0.28,0.38 0.48,0.49 0.2,0.12 0.42,0.17 0.67,0.17 0.24,0 0.47,-0.06 0.67,-0.17 0.2,-0.12 0.36,-0.28 0.48,-0.49 0.12,-0.21 0.18,-0.44 0.18,-0.69 0,-0.38 -0.13,-0.71 -0.39,-0.98 -0.26,-0.27 -0.57,-0.4 -0.93,-0.4z"/>
   <polygon id="_35" class="fil0" points="9.77,17.41 10.21,17.41 10.21,18.92 11.83,17.41 12.37,17.41 10.77,18.93 12.49,20.83 11.93,20.83 10.46,19.18 10.21,19.39 10.21,20.83 9.77,20.83 9.77,19.39 9.53,19.18 8.06,20.83 7.5,20.83 9.21,18.93 7.63,17.41 8.17,17.41 9.77,18.91 "/>
   <polygon id="_36" class="fil0" points="12.95,17.41 15.8,17.41 15.8,20.83 15.37,20.83 15.37,17.82 13.38,17.82 13.38,20.83 12.95,20.83 "/>
   <polygon id="_37" class="fil0" points="17.21,17.41 17.21,19.95 19.71,17.41 19.75,17.41 19.75,20.83 19.31,20.83 19.31,18.32 16.83,20.83 16.78,20.83 16.78,17.41 "/>
   <path id="_38" class="fil0" d="M22.33 17.33c0.52,0 0.96,0.19 1.3,0.57 0.31,0.35 0.47,0.76 0.47,1.23 0,0.48 -0.17,0.89 -0.5,1.25 -0.33,0.36 -0.76,0.53 -1.28,0.53 -0.52,0 -0.95,-0.18 -1.28,-0.53 -0.33,-0.36 -0.5,-0.77 -0.5,-1.25 0,-0.47 0.16,-0.88 0.47,-1.23 0.34,-0.38 0.78,-0.57 1.31,-0.57zm-0 0.43c-0.36,0 -0.68,0.13 -0.94,0.4 -0.26,0.27 -0.39,0.6 -0.39,0.98 0,0.25 0.06,0.48 0.18,0.69 0.12,0.21 0.28,0.38 0.48,0.49 0.2,0.12 0.42,0.17 0.67,0.17 0.24,0 0.47,-0.06 0.67,-0.17 0.2,-0.12 0.36,-0.28 0.48,-0.49 0.12,-0.21 0.18,-0.44 0.18,-0.69 0,-0.38 -0.13,-0.71 -0.39,-0.98 -0.26,-0.27 -0.57,-0.4 -0.93,-0.4z"/>
   <path id="_39" class="fil0" d="M28.21 18.12l-0.35 0.22c-0.3,-0.4 -0.71,-0.6 -1.23,-0.6 -0.42,0 -0.76,0.13 -1.04,0.4 -0.27,0.27 -0.41,0.59 -0.41,0.97 0,0.25 0.06,0.48 0.19,0.7 0.13,0.22 0.3,0.39 0.52,0.51 0.22,0.12 0.47,0.18 0.74,0.18 0.5,0 0.91,-0.2 1.23,-0.6l0.35 0.23c-0.16,0.25 -0.38,0.44 -0.66,0.57 -0.28,0.14 -0.59,0.2 -0.94,0.2 -0.54,0 -0.99,-0.17 -1.34,-0.51 -0.36,-0.34 -0.53,-0.76 -0.53,-1.25 0,-0.33 0.08,-0.64 0.25,-0.92 0.17,-0.28 0.39,-0.5 0.68,-0.66 0.29,-0.16 0.62,-0.24 0.98,-0.24 0.23,0 0.44,0.03 0.65,0.1 0.21,0.07 0.39,0.16 0.53,0.27 0.15,0.11 0.27,0.25 0.37,0.42z"/>
   <path id="_40" class="fil0" d="M31.81 20.83l-0.99 0 0 -3.42 0.97 0c0.37,0 0.64,0.09 0.8,0.26 0.16,0.17 0.25,0.37 0.25,0.6 0,0.35 -0.15,0.58 -0.46,0.7 0.44,0.16 0.66,0.46 0.66,0.91 0,0.63 -0.41,0.95 -1.24,0.95zm-0.55 -3.04l0 1.06 0.29 0c0.26,0 0.43,-0.01 0.51,-0.03 0.08,-0.02 0.15,-0.07 0.22,-0.15 0.07,-0.08 0.11,-0.19 0.11,-0.33 0,-0.14 -0.04,-0.26 -0.11,-0.36 -0.07,-0.1 -0.15,-0.15 -0.23,-0.17 -0.08,-0.02 -0.25,-0.02 -0.5,-0.02l-0.29 0zm0 1.47l0 1.2 0.47 0c0.22,0 0.38,-0.01 0.48,-0.04 0.1,-0.03 0.18,-0.09 0.24,-0.18 0.07,-0.09 0.1,-0.21 0.1,-0.36 0,-0.19 -0.06,-0.34 -0.18,-0.45 -0.12,-0.11 -0.27,-0.17 -0.46,-0.17l-0.65 0z"/>
   <path id="_41" class="fil0" d="M34.25 18.76l0.42 0c0.33,0 0.59,0.03 0.78,0.08 0.19,0.05 0.35,0.17 0.49,0.35 0.14,0.18 0.2,0.39 0.2,0.62 0,0.28 -0.1,0.52 -0.29,0.72 -0.2,0.2 -0.49,0.3 -0.89,0.3l-1.13 0 0 -3.42 0.43 0 0 1.35zm0.02 0.41l0 1.29 0.5 0c0.59,0 0.89,-0.21 0.89,-0.63 0,-0.12 -0.03,-0.24 -0.1,-0.35 -0.06,-0.11 -0.16,-0.2 -0.28,-0.24 -0.12,-0.05 -0.34,-0.07 -0.65,-0.07l-0.37 0zm2.48 -1.76l0.44 0 0 3.42 -0.44 0 0 -3.42z"/>
   <polygon id="_42" class="fil0" points="40.99,20.83 40.54,20.83 39.39,18.34 38.26,20.83 37.79,20.83 39.34,17.41 39.42,17.41 "/>
   <polygon id="_43" class="fil0" points="44.54,20.83 44.08,20.83 42.94,18.34 41.81,20.83 41.34,20.83 42.89,17.41 42.97,17.41 "/>
   <path id="_44" class="fil0" d="M48.08 19.7l0.37 0.2c-0.12,0.24 -0.26,0.43 -0.42,0.58 -0.16,0.14 -0.34,0.26 -0.54,0.33 -0.2,0.08 -0.42,0.11 -0.67,0.11 -0.56,0 -0.99,-0.18 -1.3,-0.55 -0.31,-0.36 -0.47,-0.78 -0.47,-1.24 0,-0.43 0.13,-0.82 0.4,-1.16 0.34,-0.43 0.79,-0.65 1.35,-0.65 0.58,0 1.05,0.22 1.39,0.66 0.25,0.31 0.37,0.7 0.38,1.17l-3.07 0c0.01,0.4 0.14,0.72 0.38,0.97 0.25,0.25 0.55,0.38 0.91,0.38 0.17,0 0.34,-0.03 0.51,-0.09 0.16,-0.06 0.3,-0.14 0.42,-0.24 0.12,-0.1 0.24,-0.26 0.37,-0.48zm0 -0.92c-0.06,-0.24 -0.14,-0.42 -0.26,-0.56 -0.11,-0.14 -0.26,-0.25 -0.45,-0.34 -0.18,-0.09 -0.38,-0.13 -0.58,-0.13 -0.34,0 -0.62,0.11 -0.86,0.32 -0.18,0.16 -0.31,0.39 -0.4,0.71l2.55 0z"/>
   <polygon id="_45" class="fil0" points="53.07,17.41 53.19,17.41 54.34,20.83 53.88,20.83 53.04,18.32 51.73,20.83 51.65,20.83 50.34,18.31 49.5,20.83 49.04,20.83 50.2,17.41 50.32,17.41 51.7,20.09 "/>
   <path id="_46" class="fil0" d="M60.06 18.12l-0.35 0.22c-0.3,-0.4 -0.71,-0.6 -1.23,-0.6 -0.42,0 -0.76,0.13 -1.04,0.4 -0.27,0.27 -0.41,0.59 -0.41,0.97 0,0.25 0.06,0.48 0.19,0.7 0.13,0.22 0.3,0.39 0.52,0.51 0.22,0.12 0.47,0.18 0.74,0.18 0.5,0 0.91,-0.2 1.23,-0.6l0.35 0.23c-0.16,0.25 -0.38,0.44 -0.66,0.57 -0.28,0.14 -0.59,0.2 -0.94,0.2 -0.54,0 -0.99,-0.17 -1.34,-0.51 -0.36,-0.34 -0.53,-0.76 -0.53,-1.25 0,-0.33 0.08,-0.64 0.25,-0.92 0.17,-0.28 0.39,-0.5 0.68,-0.66 0.29,-0.16 0.62,-0.24 0.98,-0.24 0.23,0 0.44,0.03 0.65,0.1 0.21,0.07 0.39,0.16 0.53,0.27 0.15,0.11 0.27,0.25 0.37,0.42z"/>
   <path id="_47" class="fil0" d="M62.52 17.33c0.52,0 0.96,0.19 1.3,0.57 0.31,0.35 0.47,0.76 0.47,1.23 0,0.48 -0.17,0.89 -0.5,1.25 -0.33,0.36 -0.76,0.53 -1.28,0.53 -0.52,0 -0.95,-0.18 -1.28,-0.53 -0.33,-0.36 -0.5,-0.77 -0.5,-1.25 0,-0.47 0.16,-0.88 0.47,-1.23 0.34,-0.38 0.78,-0.57 1.31,-0.57zm-0 0.43c-0.36,0 -0.68,0.13 -0.94,0.4 -0.26,0.27 -0.39,0.6 -0.39,0.98 0,0.25 0.06,0.48 0.18,0.69 0.12,0.21 0.28,0.38 0.48,0.49 0.2,0.12 0.42,0.17 0.67,0.17 0.24,0 0.47,-0.06 0.67,-0.17 0.2,-0.12 0.36,-0.28 0.48,-0.49 0.12,-0.21 0.18,-0.44 0.18,-0.69 0,-0.38 -0.13,-0.71 -0.39,-0.98 -0.26,-0.27 -0.57,-0.4 -0.93,-0.4z"/>
   <path id="_48" class="fil0" d="M66.71 17.33c0.52,0 0.96,0.19 1.3,0.57 0.31,0.35 0.47,0.76 0.47,1.23 0,0.48 -0.17,0.89 -0.5,1.25 -0.33,0.36 -0.76,0.53 -1.28,0.53 -0.52,0 -0.95,-0.18 -1.28,-0.53 -0.33,-0.36 -0.5,-0.77 -0.5,-1.25 0,-0.47 0.16,-0.88 0.47,-1.23 0.34,-0.38 0.78,-0.57 1.31,-0.57zm-0 0.43c-0.36,0 -0.68,0.13 -0.94,0.4 -0.26,0.27 -0.39,0.6 -0.39,0.98 0,0.25 0.06,0.48 0.18,0.69 0.12,0.21 0.28,0.38 0.48,0.49 0.2,0.12 0.42,0.17 0.67,0.17 0.24,0 0.47,-0.06 0.67,-0.17 0.2,-0.12 0.36,-0.28 0.48,-0.49 0.12,-0.21 0.18,-0.44 0.18,-0.69 0,-0.38 -0.13,-0.71 -0.39,-0.98 -0.26,-0.27 -0.57,-0.4 -0.93,-0.4z"/>
   <path id="_49" class="fil0" d="M72.59 18.12l-0.35 0.22c-0.3,-0.4 -0.71,-0.6 -1.23,-0.6 -0.42,0 -0.76,0.13 -1.04,0.4 -0.27,0.27 -0.41,0.59 -0.41,0.97 0,0.25 0.06,0.48 0.19,0.7 0.13,0.22 0.3,0.39 0.52,0.51 0.22,0.12 0.47,0.18 0.74,0.18 0.5,0 0.91,-0.2 1.23,-0.6l0.35 0.23c-0.16,0.25 -0.38,0.44 -0.66,0.57 -0.28,0.14 -0.59,0.2 -0.94,0.2 -0.54,0 -0.99,-0.17 -1.34,-0.51 -0.36,-0.34 -0.53,-0.76 -0.53,-1.25 0,-0.33 0.08,-0.64 0.25,-0.92 0.17,-0.28 0.39,-0.5 0.68,-0.66 0.29,-0.16 0.62,-0.24 0.98,-0.24 0.23,0 0.44,0.03 0.65,0.1 0.21,0.07 0.39,0.16 0.53,0.27 0.15,0.11 0.27,0.25 0.37,0.42z"/>
   <polygon id="_50" class="fil0" points="0.91,28.42 2.87,28.42 2.87,24.24 3.34,24.24 3.34,28.42 5.33,28.42 5.33,24.24 5.79,24.24 5.79,28.86 0.45,28.86 0.45,24.24 0.91,24.24 "/>
   <polygon id="_51" class="fil0" points="6.47,25.44 6.92,25.44 8.1,28.06 9.24,25.44 9.7,25.44 7.67,30.11 7.21,30.11 7.87,28.58 "/>
   <path id="_52" class="fil0" d="M10.27 25.44l0.44 0 0 0.63c0.17,-0.24 0.37,-0.42 0.6,-0.54 0.22,-0.12 0.48,-0.18 0.75,-0.18 0.48,0 0.9,0.17 1.24,0.52 0.34,0.35 0.52,0.77 0.52,1.26 0,0.5 -0.17,0.93 -0.51,1.28 -0.34,0.35 -0.75,0.52 -1.23,0.52 -0.27,0 -0.52,-0.06 -0.75,-0.17 -0.23,-0.11 -0.43,-0.28 -0.62,-0.51l0 1.84 -0.44 0 0 -4.67zm1.75 0.34c-0.38,0 -0.7,0.13 -0.95,0.4 -0.26,0.27 -0.39,0.59 -0.39,0.99 0,0.26 0.06,0.49 0.17,0.7 0.12,0.21 0.28,0.37 0.49,0.49 0.22,0.12 0.44,0.18 0.68,0.18 0.23,0 0.46,-0.06 0.66,-0.18 0.21,-0.12 0.37,-0.29 0.49,-0.51 0.12,-0.22 0.18,-0.45 0.18,-0.69 0,-0.24 -0.06,-0.47 -0.18,-0.69 -0.12,-0.22 -0.28,-0.39 -0.49,-0.5 -0.2,-0.12 -0.43,-0.18 -0.67,-0.18z"/>
   <polygon id="_53" class="fil0" points="16.41,25.44 16.84,25.44 16.84,26.88 18.42,25.44 19.02,25.44 17.3,27 19.16,28.86 18.54,28.86 16.98,27.28 16.84,27.4 16.84,28.86 16.41,28.86 "/>
   <polygon id="_54" class="fil0" points="19.25,25.44 19.71,25.44 20.88,28.06 22.02,25.44 22.49,25.44 20.46,30.11 19.99,30.11 20.66,28.58 "/>
   <path id="_55" class="fil0" d="M23.62 26.87l0.23 0c0.15,0 0.28,-0.05 0.4,-0.14 0.12,-0.1 0.18,-0.23 0.18,-0.41 0,-0.15 -0.05,-0.28 -0.15,-0.39 -0.1,-0.11 -0.25,-0.16 -0.46,-0.16 -0.24,0 -0.48,0.09 -0.72,0.28l-0.25 -0.3c0.31,-0.26 0.64,-0.39 0.98,-0.39 0.29,0 0.52,0.08 0.72,0.25 0.19,0.17 0.29,0.39 0.29,0.65 0,0.35 -0.16,0.59 -0.47,0.72 0.41,0.17 0.61,0.47 0.61,0.9 0,0.27 -0.1,0.52 -0.29,0.74 -0.19,0.22 -0.48,0.33 -0.86,0.33 -0.47,0 -0.84,-0.15 -1.13,-0.46l0.27 -0.31c0.21,0.24 0.48,0.36 0.82,0.36 0.22,0 0.4,-0.06 0.52,-0.18 0.13,-0.12 0.19,-0.28 0.19,-0.47 0,-0.19 -0.06,-0.34 -0.19,-0.46 -0.13,-0.12 -0.28,-0.17 -0.45,-0.17l-0.27 0 0 -0.38z"/>
   <path id="_56" class="fil0" d="M27.2 27.34l-0.31 0 -0.98 1.53 -0.47 0 1.03 -1.57c-0.25,-0.03 -0.46,-0.13 -0.62,-0.29 -0.16,-0.16 -0.24,-0.36 -0.24,-0.61 0,-0.3 0.09,-0.54 0.27,-0.7 0.18,-0.17 0.42,-0.25 0.72,-0.25l1.04 0 0 3.42 -0.44 0 0 -1.53zm0 -1.51l-0.29 0c-0.28,0 -0.47,0.02 -0.57,0.05 -0.1,0.04 -0.17,0.1 -0.23,0.18 -0.06,0.09 -0.09,0.2 -0.09,0.35 0,0.14 0.04,0.26 0.11,0.35 0.07,0.09 0.16,0.15 0.25,0.17 0.09,0.02 0.26,0.03 0.52,0.03l0.29 0 0 -1.13z"/>
   <polygon id="_57" class="fil0" points="30.38,25.44 30.81,25.44 30.81,26.88 32.39,25.44 32.99,25.44 31.27,27 33.13,28.86 32.51,28.86 30.95,27.28 30.81,27.4 30.81,28.86 30.38,28.86 "/>
   <path id="_58" class="fil0" d="M35.2 25.36c0.52,0 0.96,0.19 1.3,0.57 0.31,0.35 0.47,0.76 0.47,1.23 0,0.48 -0.17,0.89 -0.5,1.25 -0.33,0.36 -0.76,0.53 -1.28,0.53 -0.52,0 -0.95,-0.18 -1.28,-0.53 -0.33,-0.36 -0.5,-0.77 -0.5,-1.25 0,-0.47 0.16,-0.88 0.47,-1.23 0.34,-0.38 0.78,-0.57 1.31,-0.57zm-0 0.43c-0.36,0 -0.68,0.13 -0.94,0.4 -0.26,0.27 -0.39,0.6 -0.39,0.98 0,0.25 0.06,0.48 0.18,0.69 0.12,0.21 0.28,0.38 0.48,0.49 0.2,0.12 0.42,0.17 0.67,0.17 0.24,0 0.47,-0.06 0.67,-0.17 0.2,-0.12 0.36,-0.28 0.48,-0.49 0.12,-0.21 0.18,-0.44 0.18,-0.69 0,-0.38 -0.13,-0.71 -0.39,-0.98 -0.26,-0.27 -0.57,-0.4 -0.93,-0.4z"/>
   <polygon id="_59" class="fil0" points="42.86,28.86 37.78,28.86 37.78,25.44 38.22,25.44 38.22,28.45 40.1,28.45 40.1,25.44 40.55,25.44 40.55,28.45 42.41,28.45 42.41,25.44 42.86,25.44 "/>
   <polygon id="_60" class="fil0" points="43.83,25.44 44.27,25.44 44.27,26.88 45.85,25.44 46.45,25.44 44.73,27 46.59,28.86 45.97,28.86 44.41,27.28 44.27,27.4 44.27,28.86 43.83,28.86 "/>
   <path id="_61" class="fil0" d="M48.66 25.36c0.52,0 0.96,0.19 1.3,0.57 0.31,0.35 0.47,0.76 0.47,1.23 0,0.48 -0.17,0.89 -0.5,1.25 -0.33,0.36 -0.76,0.53 -1.28,0.53 -0.52,0 -0.95,-0.18 -1.28,-0.53 -0.33,-0.36 -0.5,-0.77 -0.5,-1.25 0,-0.47 0.16,-0.88 0.47,-1.23 0.34,-0.38 0.78,-0.57 1.31,-0.57zm-0 0.43c-0.36,0 -0.68,0.13 -0.94,0.4 -0.26,0.27 -0.39,0.6 -0.39,0.98 0,0.25 0.06,0.48 0.18,0.69 0.12,0.21 0.28,0.38 0.48,0.49 0.2,0.12 0.42,0.17 0.67,0.17 0.24,0 0.47,-0.06 0.67,-0.17 0.2,-0.12 0.36,-0.28 0.48,-0.49 0.12,-0.21 0.18,-0.44 0.18,-0.69 0,-0.38 -0.13,-0.71 -0.39,-0.98 -0.26,-0.27 -0.57,-0.4 -0.93,-0.4z"/>
   <path id="_62" class="fil0" d="M51.72 28.17c0.11,0 0.2,0.04 0.27,0.11 0.07,0.08 0.11,0.17 0.11,0.28 0,0.11 -0.04,0.2 -0.11,0.27 -0.08,0.08 -0.17,0.11 -0.27,0.11 -0.11,0 -0.2,-0.04 -0.27,-0.11 -0.07,-0.08 -0.11,-0.17 -0.11,-0.27 0,-0.11 0.04,-0.2 0.11,-0.28 0.08,-0.08 0.17,-0.11 0.27,-0.11z"/>
   <path id="_63" class="fil0" d="M1.36 32.07l0.51 0c-0.2,0.42 -0.37,0.91 -0.49,1.47 -0.12,0.56 -0.18,1.14 -0.18,1.74 0,0.55 0.05,1.08 0.14,1.6 0.09,0.51 0.22,0.96 0.38,1.35l-0.48 0c-0.15,-0.37 -0.28,-0.81 -0.37,-1.31 -0.09,-0.5 -0.14,-1.03 -0.14,-1.58 0,-0.59 0.05,-1.16 0.16,-1.72 0.11,-0.56 0.27,-1.07 0.47,-1.55z"/>
   <path id="_64" class="fil0" d="M6.13 33.47l0 3.42 -0.44 0 0 -0.59c-0.18,0.22 -0.39,0.39 -0.62,0.5 -0.23,0.11 -0.48,0.17 -0.75,0.17 -0.48,0 -0.89,-0.17 -1.23,-0.52 -0.34,-0.35 -0.51,-0.78 -0.51,-1.28 0,-0.49 0.17,-0.91 0.52,-1.26 0.34,-0.35 0.76,-0.52 1.24,-0.52 0.28,0 0.53,0.06 0.76,0.18 0.23,0.12 0.42,0.3 0.59,0.54l0 -0.63 0.44 0zm-1.75 0.34c-0.24,0 -0.47,0.06 -0.67,0.18 -0.21,0.12 -0.37,0.29 -0.49,0.5 -0.12,0.22 -0.18,0.45 -0.18,0.69 0,0.24 0.06,0.47 0.18,0.69 0.12,0.22 0.29,0.39 0.49,0.51 0.21,0.12 0.43,0.18 0.67,0.18 0.24,0 0.47,-0.06 0.68,-0.18 0.21,-0.12 0.38,-0.28 0.49,-0.49 0.12,-0.21 0.17,-0.44 0.17,-0.7 0,-0.39 -0.13,-0.72 -0.39,-0.99 -0.26,-0.27 -0.58,-0.4 -0.95,-0.4z"/>
   <path id="_65" class="fil0" d="M8.11 36.89l-0.99 0 0 -3.42 0.97 0c0.37,0 0.64,0.09 0.8,0.26 0.16,0.17 0.25,0.37 0.25,0.6 0,0.35 -0.15,0.58 -0.46,0.7 0.44,0.16 0.66,0.46 0.66,0.91 0,0.63 -0.41,0.95 -1.24,0.95zm-0.55 -3.04l0 1.06 0.29 0c0.26,0 0.43,-0.01 0.51,-0.03 0.08,-0.02 0.15,-0.07 0.22,-0.15 0.07,-0.08 0.11,-0.19 0.11,-0.33 0,-0.14 -0.04,-0.26 -0.11,-0.36 -0.07,-0.1 -0.15,-0.15 -0.23,-0.17 -0.08,-0.02 -0.25,-0.02 -0.5,-0.02l-0.29 0zm0 1.47l0 1.2 0.47 0c0.22,0 0.38,-0.01 0.48,-0.04 0.09,-0.03 0.18,-0.09 0.24,-0.18 0.07,-0.09 0.1,-0.21 0.1,-0.36 0,-0.19 -0.06,-0.34 -0.18,-0.45 -0.12,-0.11 -0.27,-0.17 -0.46,-0.17l-0.65 0z"/>
   <polygon id="_66" class="fil0" points="9.74,33.47 11.97,33.47 11.97,33.85 11.07,33.85 11.07,36.89 10.63,36.89 10.63,33.85 9.74,33.85 "/>
   <path id="_67" class="fil0" d="M14.18 33.39c0.52,0 0.96,0.19 1.3,0.57 0.31,0.35 0.47,0.76 0.47,1.23 0,0.48 -0.17,0.89 -0.5,1.25 -0.33,0.36 -0.76,0.53 -1.28,0.53 -0.52,0 -0.95,-0.18 -1.28,-0.53 -0.33,-0.36 -0.5,-0.77 -0.5,-1.25 0,-0.47 0.16,-0.88 0.47,-1.23 0.34,-0.38 0.78,-0.57 1.31,-0.57zm-0 0.43c-0.36,0 -0.68,0.13 -0.94,0.4 -0.26,0.27 -0.39,0.6 -0.39,0.98 0,0.25 0.06,0.48 0.18,0.69 0.12,0.21 0.28,0.38 0.48,0.49 0.2,0.12 0.42,0.17 0.67,0.17 0.24,0 0.47,-0.06 0.67,-0.17 0.2,-0.12 0.36,-0.28 0.48,-0.49 0.12,-0.21 0.18,-0.44 0.18,-0.69 0,-0.38 -0.13,-0.71 -0.39,-0.98 -0.26,-0.27 -0.57,-0.4 -0.93,-0.4z"/>
   <path id="_68" class="fil0" d="M16.76 33.47l0.44 0 0 0.63c0.17,-0.24 0.37,-0.42 0.6,-0.54 0.22,-0.12 0.48,-0.18 0.75,-0.18 0.48,0 0.9,0.17 1.24,0.52 0.34,0.35 0.52,0.77 0.52,1.26 0,0.5 -0.17,0.93 -0.51,1.28 -0.34,0.35 -0.75,0.52 -1.23,0.52 -0.27,0 -0.52,-0.06 -0.75,-0.17 -0.23,-0.11 -0.43,-0.28 -0.62,-0.51l0 1.84 -0.44 0 0 -4.67zm1.75 0.34c-0.38,0 -0.7,0.13 -0.95,0.4 -0.26,0.27 -0.39,0.59 -0.39,0.99 0,0.26 0.06,0.49 0.17,0.7 0.12,0.21 0.28,0.37 0.49,0.49 0.22,0.12 0.44,0.18 0.68,0.18 0.23,0 0.46,-0.06 0.66,-0.18 0.21,-0.12 0.37,-0.29 0.49,-0.51 0.12,-0.22 0.18,-0.45 0.18,-0.69 0,-0.24 -0.06,-0.47 -0.18,-0.69 -0.12,-0.22 -0.28,-0.39 -0.49,-0.5 -0.2,-0.12 -0.43,-0.18 -0.67,-0.18z"/>
   <path id="_69" class="fil0" d="M21.6 33.39c0.11,0 0.2,0.04 0.27,0.11 0.07,0.08 0.11,0.17 0.11,0.28 0,0.11 -0.04,0.2 -0.11,0.28 -0.08,0.08 -0.17,0.11 -0.27,0.11 -0.11,0 -0.2,-0.04 -0.27,-0.11 -0.07,-0.08 -0.11,-0.17 -0.11,-0.28 0,-0.11 0.04,-0.2 0.11,-0.27 0.08,-0.08 0.17,-0.11 0.27,-0.11zm0 2.81c0.11,0 0.2,0.04 0.27,0.11 0.07,0.08 0.11,0.17 0.11,0.28 0,0.11 -0.04,0.2 -0.11,0.27 -0.08,0.08 -0.17,0.11 -0.27,0.11 -0.11,0 -0.2,-0.04 -0.27,-0.11 -0.07,-0.08 -0.11,-0.17 -0.11,-0.27 0,-0.11 0.04,-0.2 0.11,-0.28 0.08,-0.08 0.17,-0.11 0.27,-0.11z"/>
   <path id="_70" class="fil0" d="M26.62 32.27l2.14 4.62 -0.49 0 -0.72 -1.52 -1.99 0 -0.71 1.52 -0.51 0 2.17 -4.62 0.12 0zm-0.06 0.97l-0.79 1.68 1.58 0 -0.79 -1.68z"/>
   <path id="_71" class="fil0" d="M29.88 36.2c0.11,0 0.2,0.04 0.27,0.11 0.07,0.08 0.11,0.17 0.11,0.28 0,0.11 -0.04,0.2 -0.11,0.27 -0.08,0.08 -0.17,0.11 -0.27,0.11 -0.11,0 -0.2,-0.04 -0.27,-0.11 -0.07,-0.08 -0.11,-0.17 -0.11,-0.27 0,-0.11 0.04,-0.2 0.11,-0.28 0.08,-0.08 0.17,-0.11 0.27,-0.11z"/>
   <polygon id="_72" class="fil0" points="36.74,36.89 36.24,36.89 34.71,33.31 33.16,36.89 32.66,36.89 34.67,32.27 34.77,32.27 "/>
   <path id="_73" class="fil0" d="M40.31 35.76l0.37 0.2c-0.12,0.24 -0.26,0.43 -0.42,0.58 -0.16,0.14 -0.34,0.26 -0.54,0.33 -0.2,0.08 -0.42,0.11 -0.67,0.11 -0.56,0 -0.99,-0.18 -1.3,-0.55 -0.31,-0.36 -0.47,-0.78 -0.47,-1.24 0,-0.43 0.13,-0.82 0.4,-1.16 0.34,-0.43 0.79,-0.65 1.35,-0.65 0.58,0 1.05,0.22 1.39,0.66 0.25,0.31 0.37,0.7 0.38,1.17l-3.07 0c0.01,0.4 0.14,0.72 0.38,0.97 0.25,0.25 0.55,0.38 0.91,0.38 0.17,0 0.34,-0.03 0.51,-0.09 0.16,-0.06 0.3,-0.14 0.42,-0.24 0.12,-0.1 0.24,-0.26 0.37,-0.48zm0 -0.92c-0.06,-0.24 -0.14,-0.42 -0.26,-0.56 -0.11,-0.14 -0.26,-0.25 -0.45,-0.34 -0.18,-0.09 -0.38,-0.13 -0.58,-0.13 -0.34,0 -0.62,0.11 -0.87,0.32 -0.18,0.16 -0.31,0.39 -0.4,0.71l2.55 0z"/>
   <path id="_74" class="fil0" d="M43.21 33.39c0.52,0 0.96,0.19 1.3,0.57 0.31,0.35 0.47,0.76 0.47,1.23 0,0.48 -0.17,0.89 -0.5,1.25 -0.33,0.36 -0.76,0.53 -1.28,0.53 -0.52,0 -0.95,-0.18 -1.28,-0.53 -0.33,-0.36 -0.5,-0.77 -0.5,-1.25 0,-0.47 0.16,-0.88 0.47,-1.23 0.34,-0.38 0.78,-0.57 1.31,-0.57zm-0 0.43c-0.36,0 -0.68,0.13 -0.94,0.4 -0.26,0.27 -0.39,0.6 -0.39,0.98 0,0.25 0.06,0.48 0.18,0.69 0.12,0.21 0.28,0.38 0.48,0.49 0.2,0.12 0.42,0.17 0.67,0.17 0.24,0 0.47,-0.06 0.67,-0.17 0.2,-0.12 0.36,-0.28 0.48,-0.49 0.12,-0.21 0.18,-0.44 0.18,-0.69 0,-0.38 -0.13,-0.71 -0.39,-0.98 -0.26,-0.27 -0.57,-0.4 -0.93,-0.4z"/>
   <polygon id="_75" class="fil0" points="48.21,35.24 46.22,35.24 46.22,36.89 45.79,36.89 45.79,33.47 46.22,33.47 46.22,34.83 48.21,34.83 48.21,33.47 48.64,33.47 48.64,36.89 48.21,36.89 "/>
   <polygon id="_76" class="fil0" points="49.24,33.47 51.47,33.47 51.47,33.85 50.57,33.85 50.57,36.89 50.14,36.89 50.14,33.85 49.24,33.85 "/>
   <path id="_77" class="fil0" d="M52.5 34.82l0.42 0c0.33,0 0.59,0.03 0.78,0.08 0.19,0.05 0.35,0.17 0.49,0.35 0.14,0.18 0.2,0.39 0.2,0.62 0,0.28 -0.1,0.52 -0.29,0.72 -0.2,0.2 -0.49,0.3 -0.89,0.3l-1.13 0 0 -3.42 0.43 0 0 1.35zm0.02 0.41l0 1.29 0.5 0c0.59,0 0.89,-0.21 0.89,-0.63 0,-0.12 -0.03,-0.24 -0.1,-0.35 -0.06,-0.11 -0.16,-0.2 -0.28,-0.24 -0.12,-0.05 -0.34,-0.07 -0.65,-0.07l-0.37 0z"/>
   <path id="_78" class="fil0" d="M57.95 35.76l0.37 0.2c-0.12,0.24 -0.26,0.43 -0.42,0.58 -0.16,0.14 -0.34,0.26 -0.54,0.33 -0.2,0.08 -0.42,0.11 -0.67,0.11 -0.56,0 -0.99,-0.18 -1.3,-0.55 -0.31,-0.36 -0.47,-0.78 -0.47,-1.24 0,-0.43 0.13,-0.82 0.4,-1.16 0.34,-0.43 0.79,-0.65 1.35,-0.65 0.58,0 1.05,0.22 1.39,0.66 0.25,0.31 0.37,0.7 0.38,1.17l-3.07 0c0.01,0.4 0.14,0.72 0.38,0.97 0.25,0.25 0.55,0.38 0.91,0.38 0.17,0 0.34,-0.03 0.51,-0.09 0.16,-0.06 0.3,-0.14 0.42,-0.24 0.12,-0.1 0.24,-0.26 0.37,-0.48zm0 -0.92c-0.06,-0.24 -0.14,-0.42 -0.26,-0.56 -0.11,-0.14 -0.26,-0.25 -0.45,-0.34 -0.18,-0.09 -0.38,-0.13 -0.58,-0.13 -0.34,0 -0.62,0.11 -0.87,0.32 -0.18,0.16 -0.31,0.39 -0.4,0.71l2.55 0z"/>
   <path id="_79" class="fil0" d="M60.23 36.89l-0.99 0 0 -3.42 0.97 0c0.37,0 0.64,0.09 0.8,0.26 0.16,0.17 0.25,0.37 0.25,0.6 0,0.35 -0.15,0.58 -0.46,0.7 0.44,0.16 0.66,0.46 0.66,0.91 0,0.63 -0.41,0.95 -1.24,0.95zm-0.55 -3.04l0 1.06 0.29 0c0.26,0 0.43,-0.01 0.51,-0.03 0.08,-0.02 0.15,-0.07 0.22,-0.15 0.07,-0.08 0.11,-0.19 0.11,-0.33 0,-0.14 -0.04,-0.26 -0.11,-0.36 -0.07,-0.1 -0.15,-0.15 -0.23,-0.17 -0.08,-0.02 -0.25,-0.02 -0.5,-0.02l-0.29 0zm0 1.47l0 1.2 0.47 0c0.22,0 0.38,-0.01 0.48,-0.04 0.1,-0.03 0.18,-0.09 0.24,-0.18 0.07,-0.09 0.1,-0.21 0.1,-0.36 0,-0.19 -0.06,-0.34 -0.18,-0.45 -0.12,-0.11 -0.27,-0.17 -0.46,-0.17l-0.65 0z"/>
   <path id="_80" class="fil0" d="M62.65 38.22l-0.51 0c0.21,-0.42 0.37,-0.91 0.49,-1.47 0.12,-0.56 0.18,-1.14 0.18,-1.74 0,-0.55 -0.05,-1.08 -0.14,-1.6 -0.09,-0.51 -0.22,-0.96 -0.38,-1.35l0.48 0c0.16,0.37 0.28,0.81 0.37,1.32 0.09,0.51 0.14,1.03 0.14,1.58 0,0.59 -0.05,1.16 -0.16,1.72 -0.11,0.56 -0.27,1.07 -0.48,1.55z"/>
   <path class="fil0" d="M34.52 0.18c0.09,0 0.17,0.03 0.24,0.1 0.06,0.07 0.1,0.14 0.1,0.24 0,0.09 -0.03,0.17 -0.1,0.24 -0.07,0.07 -0.14,0.1 -0.24,0.1 -0.09,0 -0.17,-0.03 -0.24,-0.1 -0.07,-0.07 -0.1,-0.15 -0.1,-0.24 0,-0.09 0.03,-0.17 0.1,-0.24 0.07,-0.07 0.14,-0.1 0.24,-0.1zm1.3 0c0.09,0 0.17,0.03 0.24,0.1 0.07,0.07 0.1,0.14 0.1,0.24 0,0.09 -0.03,0.17 -0.1,0.24 -0.07,0.07 -0.14,0.1 -0.24,0.1 -0.09,0 -0.17,-0.03 -0.24,-0.1 -0.06,-0.07 -0.1,-0.15 -0.1,-0.24 0,-0.09 0.03,-0.17 0.1,-0.24 0.07,-0.07 0.15,-0.1 0.24,-0.1z"/>
   <path class="fil0" d="M4.77 16.16c0.09,0 0.17,0.03 0.24,0.1 0.06,0.07 0.1,0.14 0.1,0.24 0,0.09 -0.03,0.17 -0.1,0.24 -0.07,0.07 -0.14,0.1 -0.24,0.1 -0.09,0 -0.17,-0.03 -0.24,-0.1 -0.07,-0.07 -0.1,-0.15 -0.1,-0.24 0,-0.09 0.03,-0.17 0.1,-0.24 0.07,-0.07 0.14,-0.1 0.24,-0.1zm1.3 0c0.09,0 0.17,0.03 0.24,0.1 0.07,0.07 0.1,0.14 0.1,0.24 0,0.09 -0.03,0.17 -0.1,0.24 -0.07,0.07 -0.14,0.1 -0.24,0.1 -0.09,0 -0.17,-0.03 -0.24,-0.1 -0.06,-0.07 -0.1,-0.15 -0.1,-0.24 0,-0.09 0.03,-0.17 0.1,-0.24 0.07,-0.07 0.15,-0.1 0.24,-0.1z"/>
   <path class="fil0" d="M0.75 15.04c0.09,0 0.17,0.03 0.24,0.1 0.06,0.07 0.1,0.14 0.1,0.24 0,0.09 -0.03,0.17 -0.1,0.24 -0.07,0.07 -0.14,0.1 -0.24,0.1 -0.09,0 -0.17,-0.03 -0.24,-0.1 -0.07,-0.07 -0.1,-0.15 -0.1,-0.24 0,-0.09 0.03,-0.17 0.1,-0.24 0.07,-0.07 0.14,-0.1 0.24,-0.1zm1.3 0c0.09,0 0.17,0.03 0.24,0.1 0.07,0.07 0.1,0.14 0.1,0.24 0,0.09 -0.03,0.17 -0.1,0.24 -0.07,0.07 -0.14,0.1 -0.24,0.1 -0.09,0 -0.17,-0.03 -0.24,-0.1 -0.06,-0.07 -0.1,-0.15 -0.1,-0.24 0,-0.09 0.03,-0.17 0.1,-0.24 0.07,-0.07 0.15,-0.1 0.24,-0.1z"/>
  </g>
 </g>
</svg>
