<?xml version="1.0" encoding="UTF-8"?>
<!DOCTYPE svg PUBLIC "-//W3C//DTD SVG 1.1//EN" "http://www.w3.org/Graphics/SVG/1.1/DTD/svg11.dtd">
<!-- Creator: CorelDRAW -->
<svg xmlns="http://www.w3.org/2000/svg" xml:space="preserve" width="16.6707mm" height="5.6066mm" version="1.1" style="shape-rendering:geometricPrecision; text-rendering:geometricPrecision; image-rendering:optimizeQuality; fill-rule:evenodd; clip-rule:evenodd"
viewBox="0 0 29.15 9.81"
 xmlns:xlink="http://www.w3.org/1999/xlink"
 xmlns:xodm="http://www.corel.com/coreldraw/odm/2003">
 <defs>
  <style type="text/css">
   <![CDATA[
    .fil0 {fill:#969677;fill-rule:nonzero}
   ]]>
  </style>
 </defs>
 <g id="Слой_x0020_1">
  <metadata id="CorelCorpID_0Corel-Layer"/>
  <path class="fil0" d="M4.21 5.16c-0.01,0.04 -0.03,0.06 -0.06,0.08 -0.03,0.02 -0.06,0.03 -0.09,0.03 0.03,-0.01 0.05,-0.03 0.08,-0.05 0.02,-0.02 0.03,-0.05 0.04,-0.08 0.01,-0.03 0.01,-0.06 0.01,-0.09 -0,-0.03 -0.01,-0.06 -0.02,-0.1 0.02,0.03 0.03,0.06 0.04,0.09 0.01,0.04 0,0.07 -0.01,0.1zm-0.27 -0.07c-0.01,-0.03 -0.02,-0.06 -0.01,-0.09 0,-0.03 0.02,-0.05 0.04,-0.06 0.02,-0.01 0.04,-0.01 0.07,0 0.02,0.01 0.04,0.04 0.06,0.07 0.01,0.03 0.02,0.06 0.02,0.09 -0,0.03 -0.02,0.05 -0.04,0.06 -0.02,0.01 -0.04,0.01 -0.07,-0 -0.02,-0.01 -0.04,-0.04 -0.06,-0.06zm-0.64 -0.95c-0.03,0.07 -0.05,0.15 -0.06,0.25 -0.01,0.08 -0.02,0.16 -0.02,0.27 -0,-0.04 -0.01,-0.09 -0.01,-0.14 -0,-0.05 0,-0.1 0.01,-0.13 0.01,-0.1 0.03,-0.19 0.06,-0.26 0.02,-0.04 0.04,-0.08 0.07,-0.12 0.03,-0.03 0.06,-0.06 0.09,-0.09 0.03,-0.03 0.07,-0.05 0.11,-0.07 0.04,-0.02 0.08,-0.03 0.12,-0.04 -0.08,0.03 -0.15,0.07 -0.21,0.12 -0.07,0.06 -0.12,0.13 -0.15,0.2zm0.55 0.39c-0.05,0 -0.09,-0.02 -0.11,-0.08 -0.01,-0.02 -0.01,-0.05 -0.01,-0.07 0,-0.03 0.01,-0.05 0.03,-0.06 0.03,-0.04 0.08,-0.07 0.15,-0.09 0.02,-0.01 0.05,-0.02 0.09,-0.03l0.05 -0.01 0.04 -0.01c0.07,-0.02 0.12,-0.04 0.15,-0.06 0.04,-0.03 0.06,-0.08 0.06,-0.14 -0,-0.09 -0.04,-0.16 -0.12,-0.22 -0.08,-0.05 -0.17,-0.09 -0.28,-0.09 -0.12,-0.01 -0.23,0.01 -0.34,0.06 -0.12,0.05 -0.22,0.13 -0.3,0.23 -0.07,0.1 -0.12,0.24 -0.14,0.41 -0.02,0.17 -0.01,0.34 0.02,0.53 0.03,0.19 0.09,0.36 0.17,0.5 0.09,0.16 0.19,0.27 0.31,0.33 0.1,0.05 0.21,0.08 0.33,0.09 0.11,0 0.21,-0.02 0.3,-0.07 0.09,-0.05 0.17,-0.12 0.23,-0.2 0.06,-0.09 0.1,-0.2 0.1,-0.32 0.01,-0.09 -0,-0.18 -0.03,-0.26 -0.03,-0.09 -0.07,-0.17 -0.12,-0.23 -0.13,-0.16 -0.33,-0.22 -0.59,-0.21zm1.94 -1c-0.02,0.02 -0.03,0.05 -0.04,0.08 -0.02,0.04 -0.05,0.1 -0.07,0.17l-0.02 0.04 -0.02 0.04c-0.01,0.03 -0.02,0.06 -0.04,0.08 -0.02,0.03 -0.03,0.06 -0.05,0.08 -0.02,0.03 -0.05,0.05 -0.07,0.05 0.02,-0.02 0.04,-0.04 0.06,-0.06 0.01,-0.02 0.02,-0.05 0.04,-0.08 0.01,-0.02 0.02,-0.05 0.03,-0.09l0.03 -0.09c0.03,-0.07 0.05,-0.13 0.08,-0.17 0.02,-0.03 0.04,-0.06 0.05,-0.08 0.03,-0.03 0.05,-0.04 0.07,-0.05 -0.02,0.01 -0.04,0.03 -0.07,0.06zm-0.69 1.47c-0.02,0.02 -0.04,0.04 -0.05,0.05 -0.04,0.04 -0.07,0.08 -0.08,0.11 -0.01,0.02 -0.02,0.05 -0.03,0.07 -0,0.02 -0.01,0.04 -0.01,0.07 -0,-0.02 -0.01,-0.05 -0,-0.08 0,-0.02 0.01,-0.05 0.02,-0.07 0.02,-0.04 0.04,-0.08 0.08,-0.12 0.03,-0.03 0.06,-0.06 0.1,-0.1l0.03 -0.02 0.03 -0.02c0.02,-0.02 0.04,-0.03 0.05,-0.05 -0.02,0.03 -0.05,0.07 -0.09,0.11l-0.05 0.05zm-0.41 -1.18c-0.01,0.02 -0.02,0.05 -0.02,0.08 -0,0.03 -0,0.05 0,0.08 -0.01,-0.03 -0.02,-0.05 -0.02,-0.09 -0,-0.03 0,-0.06 0.02,-0.09 0.01,-0.03 0.03,-0.05 0.06,-0.07 0.03,-0.02 0.05,-0.02 0.08,-0.02 -0.05,0.02 -0.09,0.05 -0.11,0.1zm1.14 -0.46c-0.06,0.01 -0.11,0.04 -0.15,0.11 -0.03,0.05 -0.07,0.12 -0.11,0.21l-0.02 0.06 -0.01 0.03 -0.01 0.03c-0.02,0.04 -0.03,0.07 -0.04,0.09 -0.03,0.06 -0.05,0.09 -0.07,0.1 -0.02,0 -0.07,-0.03 -0.15,-0.1l-0.01 -0.01 -0.01 -0.01c-0.01,-0.01 -0.02,-0.02 -0.03,-0.02 -0.02,-0.02 -0.04,-0.04 -0.06,-0.05 -0.05,-0.04 -0.1,-0.08 -0.15,-0.11 -0.08,-0.05 -0.15,-0.07 -0.23,-0.06 -0.07,0.01 -0.12,0.04 -0.17,0.1 -0.04,0.06 -0.06,0.12 -0.06,0.2 -0,0.08 0.03,0.16 0.08,0.23 0.04,0.05 0.09,0.1 0.16,0.16 0.03,0.02 0.05,0.04 0.09,0.07l0.04 0.03 0.04 0.03c0.07,0.05 0.12,0.09 0.15,0.11 0.04,0.04 0.07,0.08 0.08,0.11 0.01,0.04 -0.01,0.08 -0.05,0.13 -0.01,0.02 -0.04,0.04 -0.06,0.07l-0.02 0.02 -0.02 0.02 -0.04 0.04c-0.06,0.06 -0.11,0.12 -0.14,0.17 -0.04,0.07 -0.06,0.15 -0.05,0.23 0.01,0.06 0.03,0.12 0.06,0.17 0.03,0.05 0.07,0.09 0.12,0.11 0.11,0.06 0.24,0.05 0.39,-0.02 0.19,-0.1 0.37,-0.32 0.53,-0.66 0.14,-0.31 0.22,-0.59 0.23,-0.86 0.01,-0.27 -0.01,-0.46 -0.08,-0.58 -0.05,-0.1 -0.14,-0.14 -0.24,-0.12zm1.37 0.28c-0.03,0.06 -0.06,0.1 -0.09,0.14 -0.04,0.05 -0.08,0.09 -0.12,0.11 0.03,-0.03 0.07,-0.07 0.1,-0.13 0.03,-0.04 0.06,-0.09 0.08,-0.14 0.01,-0.03 0.03,-0.05 0.04,-0.07l0.01 -0.02 0.01 -0.02c0.01,-0.02 0.01,-0.03 0.02,-0.04 0.02,-0.03 0.03,-0.05 0.06,-0.06 0.03,-0.02 0.05,-0.03 0.08,-0.03 -0.05,0.01 -0.08,0.05 -0.11,0.1 -0.01,0.01 -0.01,0.02 -0.02,0.04l-0.01 0.02 -0.01 0.02c-0.01,0.02 -0.02,0.05 -0.04,0.08zm-0.59 -0.25c-0.02,0.02 -0.03,0.04 -0.04,0.06 -0.02,0.04 -0.04,0.08 -0.05,0.14 -0.01,0.04 -0.02,0.09 -0.03,0.16l-0.01 0.08 -0.01 0.08c-0,-0.06 -0,-0.12 -0,-0.16 0,-0.06 0.01,-0.11 0.02,-0.16 0.01,-0.06 0.03,-0.11 0.06,-0.15 0.02,-0.02 0.03,-0.04 0.05,-0.06 0.02,-0.02 0.05,-0.02 0.07,-0.03 -0.02,0.01 -0.04,0.02 -0.06,0.04zm0.75 0.78c-0.04,-0.02 -0.05,-0.04 -0.04,-0.06 0.01,-0.01 0.02,-0.02 0.04,-0.03l0.01 -0.01 0.02 -0.01c0.01,-0.01 0.03,-0.02 0.03,-0.02 0.06,-0.05 0.11,-0.1 0.15,-0.14 0.05,-0.07 0.09,-0.15 0.1,-0.24 0.01,-0.08 -0,-0.16 -0.04,-0.23 -0.03,-0.06 -0.08,-0.11 -0.15,-0.13 -0.06,-0.02 -0.12,-0.02 -0.18,0.01 -0.07,0.03 -0.12,0.09 -0.16,0.18 -0.06,0.15 -0.13,0.26 -0.2,0.32 -0.03,0.03 -0.05,0.03 -0.06,0.03 -0.01,-0.01 -0.01,-0.03 -0,-0.07 0.04,-0.16 0.05,-0.28 0.01,-0.37 -0.03,-0.07 -0.09,-0.12 -0.17,-0.12 -0.16,-0.02 -0.27,0.09 -0.33,0.31 -0.04,0.18 -0.05,0.43 -0.02,0.75 0.03,0.32 0.08,0.58 0.16,0.77 0.09,0.23 0.21,0.33 0.36,0.3 0.13,-0.03 0.2,-0.14 0.19,-0.36 -0,-0.07 -0.01,-0.15 -0.03,-0.24 -0.01,-0.03 -0.02,-0.06 -0.02,-0.09 -0,-0.01 -0.01,-0.02 -0.01,-0.04l-0 -0.01 -0 -0.01 -0 -0c-0.01,-0.03 -0.01,-0.05 0,-0.06 0.01,-0.01 0.03,-0.01 0.05,0.01 0.06,0.04 0.12,0.15 0.19,0.32 0.05,0.11 0.1,0.2 0.17,0.27 0.06,0.06 0.12,0.1 0.19,0.11 0.06,0.01 0.12,0 0.18,-0.03 0.06,-0.03 0.1,-0.09 0.13,-0.15 0.03,-0.08 0.05,-0.16 0.03,-0.25 -0.01,-0.09 -0.04,-0.17 -0.09,-0.26 -0.11,-0.18 -0.28,-0.32 -0.5,-0.41zm1.68 0.21c-0.01,0.04 -0.03,0.06 -0.06,0.08 -0.03,0.02 -0.06,0.03 -0.09,0.03 0.03,-0.01 0.06,-0.03 0.08,-0.05 0.02,-0.02 0.04,-0.05 0.05,-0.08 0.02,-0.06 0.01,-0.12 -0.01,-0.19 0.02,0.03 0.03,0.06 0.04,0.09 0.01,0.04 0.01,0.07 -0,0.11zm-0.27 -0.05c-0.02,-0.03 -0.03,-0.05 -0.03,-0.08 -0,-0.03 0.01,-0.05 0.02,-0.07 0.02,-0.01 0.04,-0.02 0.06,-0.01 0.03,0.01 0.05,0.03 0.07,0.05 0.02,0.03 0.03,0.06 0.03,0.08 0,0.03 -0.01,0.05 -0.02,0.07 -0.02,0.01 -0.04,0.02 -0.06,0.01 -0.03,-0.01 -0.05,-0.03 -0.07,-0.05zm-0.21 -0.6c0.02,-0.01 0.04,-0.02 0.06,-0.03 0.02,-0.02 0.03,-0.03 0.04,-0.05 0.01,-0.02 0.02,-0.04 0.03,-0.06 0.01,-0.02 0.01,-0.04 0.02,-0.07 0.01,0.05 0,0.1 -0.03,0.15 -0.02,0.02 -0.03,0.04 -0.05,0.05 -0.02,0.01 -0.05,0.02 -0.07,0.02zm-0.06 -0.21c0.01,-0.02 0.02,-0.04 0.03,-0.05 0.01,-0.01 0.03,-0.01 0.04,-0.01 0.01,0.01 0.02,0.02 0.03,0.04 0,0.02 0,0.04 -0,0.06 -0.01,0.02 -0.02,0.04 -0.03,0.05 -0.01,0.01 -0.03,0.01 -0.04,0.01 -0.01,-0.01 -0.02,-0.02 -0.03,-0.04 -0,-0.02 -0,-0.04 0,-0.06zm-0.27 -0.23c-0.02,0.03 -0.04,0.06 -0.05,0.1 -0.03,0.06 -0.05,0.14 -0.07,0.22 -0.01,0.07 -0.02,0.15 -0.03,0.24 -0,-0.08 -0,-0.16 0.01,-0.24 0.01,-0.08 0.03,-0.16 0.06,-0.23 0.04,-0.08 0.08,-0.15 0.13,-0.19 0.03,-0.03 0.07,-0.05 0.1,-0.06 0.04,-0.01 0.07,-0.02 0.11,-0.03 -0.07,0.02 -0.14,0.05 -0.19,0.11 -0.03,0.03 -0.05,0.06 -0.07,0.09zm0.68 0.48c-0.02,-0 -0.02,-0.02 -0.02,-0.05 0,-0.01 0.01,-0.03 0.01,-0.05l0.01 -0.01 0.01 -0.01c0,-0.01 0.01,-0.02 0.01,-0.03 0.02,-0.06 0.03,-0.11 0.03,-0.16 0,-0.07 -0.01,-0.15 -0.03,-0.22 -0.02,-0.08 -0.08,-0.15 -0.16,-0.19 -0.08,-0.05 -0.18,-0.07 -0.27,-0.06 -0.11,0.01 -0.2,0.06 -0.28,0.14 -0.09,0.09 -0.16,0.23 -0.19,0.4 -0.04,0.18 -0.04,0.37 -0.02,0.56 0.02,0.2 0.08,0.39 0.16,0.55 0.09,0.18 0.2,0.3 0.33,0.38 0.15,0.09 0.31,0.11 0.5,0.07 0.18,-0.04 0.31,-0.12 0.4,-0.25 0.08,-0.12 0.12,-0.25 0.1,-0.4 -0.01,-0.15 -0.07,-0.29 -0.16,-0.41 -0.1,-0.13 -0.24,-0.22 -0.4,-0.26zm1.63 0.26c-0.02,0.02 -0.03,0.03 -0.05,0.04 -0.02,0.01 -0.04,0.01 -0.07,0.01 0.04,-0.02 0.07,-0.04 0.1,-0.07 0.02,-0.03 0.04,-0.06 0.07,-0.11 0,0.05 -0.02,0.09 -0.05,0.13zm-0.16 -0.06c-0.02,-0.01 -0.04,-0.02 -0.05,-0.05 -0.01,-0.03 -0.01,-0.06 -0.01,-0.09 0.01,-0.03 0.02,-0.06 0.04,-0.08 0.02,-0.02 0.04,-0.02 0.06,-0.02 0.02,0.01 0.04,0.02 0.05,0.05 0.01,0.03 0.01,0.06 0.01,0.09 -0.01,0.03 -0.02,0.06 -0.04,0.08 -0.02,0.02 -0.04,0.02 -0.06,0.02zm-0.34 -0.77c-0.03,0.06 -0.06,0.13 -0.1,0.23 -0.01,0.03 -0.03,0.07 -0.04,0.12l-0.04 0.12c0.02,-0.08 0.04,-0.16 0.06,-0.24 0.03,-0.08 0.06,-0.16 0.09,-0.23 0.04,-0.09 0.08,-0.16 0.12,-0.21l0.02 -0.02c0.01,-0.01 0.01,-0.02 0.02,-0.02l0.02 -0.02 0.02 -0.02c0.04,-0.03 0.08,-0.05 0.11,-0.05 -0.03,0.01 -0.06,0.03 -0.1,0.06l-0.02 0.02 -0.02 0.02c-0.01,0.01 -0.01,0.01 -0.02,0.02l-0.02 0.03c-0.04,0.06 -0.08,0.13 -0.12,0.21zm0.3 -0.49c-0.12,-0 -0.24,0.11 -0.36,0.33 -0.11,0.2 -0.19,0.45 -0.26,0.74 -0.06,0.29 -0.09,0.55 -0.08,0.77 0.02,0.24 0.08,0.37 0.19,0.4 0.08,0.02 0.16,0.01 0.23,-0.04 0.05,-0.03 0.1,-0.09 0.15,-0.17 0.01,-0.02 0.02,-0.03 0.03,-0.05l0.03 -0.05c0.02,-0.04 0.04,-0.07 0.05,-0.09 0.04,-0.06 0.08,-0.1 0.11,-0.1 0.03,-0.01 0.08,0.02 0.14,0.06 0.02,0.01 0.04,0.04 0.08,0.07l0.04 0.04 0.04 0.04c0.07,0.06 0.14,0.09 0.19,0.11 0.07,0.02 0.14,0.01 0.2,-0.03 0.07,-0.05 0.1,-0.18 0.08,-0.4 -0.02,-0.2 -0.07,-0.43 -0.16,-0.68 -0.09,-0.26 -0.2,-0.47 -0.32,-0.64 -0.13,-0.19 -0.26,-0.29 -0.39,-0.29zm1.91 1.27l-0.02 0.01c-0.02,0.01 -0.03,0.01 -0.04,0.02 -0.03,0.01 -0.06,0.02 -0.09,0.02 0.03,-0.01 0.05,-0.02 0.08,-0.04l0.02 -0.01 0.02 -0.01c0.02,-0.01 0.03,-0.02 0.04,-0.02 0.03,-0.02 0.06,-0.03 0.08,-0.03 0.03,-0.01 0.06,-0.01 0.09,-0.01 -0.05,0.02 -0.1,0.04 -0.16,0.07l-0.02 0.01zm-0.6 -1.33c-0.04,0.02 -0.08,0.04 -0.11,0.07 -0.04,0.03 -0.07,0.06 -0.09,0.1 -0.02,0.03 -0.04,0.07 -0.06,0.12 -0.02,0.07 -0.04,0.16 -0.05,0.27 -0,0.04 -0.01,0.09 -0.01,0.14 -0,0.02 -0,0.04 -0,0.07l0 0.07c-0.01,-0.1 -0.02,-0.19 -0.01,-0.28 0,-0.1 0.02,-0.2 0.05,-0.27 0.02,-0.05 0.04,-0.09 0.06,-0.13 0.03,-0.04 0.06,-0.07 0.1,-0.09 0.03,-0.03 0.07,-0.05 0.11,-0.06 0.04,-0.02 0.08,-0.02 0.12,-0.03 -0.05,0.01 -0.09,0.02 -0.12,0.04zm0.38 0.75l0.01 -0c0.01,-0 0.02,-0.01 0.02,-0.01 0.02,-0.01 0.03,-0.01 0.05,-0.01 0.02,0 0.03,0.01 0.04,0.02 -0.01,-0 -0.03,-0 -0.04,0 -0.01,0 -0.03,0.01 -0.04,0.01l-0.01 0 -0.01 0c-0.01,0 -0.02,0.01 -0.02,0.01 -0.02,0 -0.03,0 -0.05,0l0.02 -0.01 0.02 -0.01 0.01 -0.01zm0.13 0.47c-0.04,0.03 -0.08,0.04 -0.12,0.03 -0.03,-0.01 -0.05,-0.03 -0.06,-0.05 -0.01,-0.03 -0.01,-0.06 -0,-0.08 0.01,-0.03 0.03,-0.05 0.07,-0.06 0.1,-0.02 0.16,-0.06 0.2,-0.12 0.04,-0.05 0.05,-0.11 0.04,-0.17 -0.01,-0.06 -0.05,-0.1 -0.1,-0.13 -0.06,-0.02 -0.12,-0.02 -0.19,0.01 -0.06,0.03 -0.1,0.01 -0.12,-0.04 -0.01,-0.02 -0.01,-0.04 -0.01,-0.07 0,-0.02 0.01,-0.05 0.03,-0.06 0.02,-0.02 0.06,-0.04 0.11,-0.06 0.02,-0.01 0.04,-0.01 0.07,-0.02l0.04 -0.01 0.04 -0.01c0.06,-0.01 0.11,-0.03 0.14,-0.05 0.04,-0.03 0.07,-0.07 0.08,-0.11 0.02,-0.08 -0.01,-0.16 -0.08,-0.23 -0.07,-0.07 -0.16,-0.12 -0.27,-0.14 -0.12,-0.03 -0.24,-0.03 -0.35,0.01 -0.13,0.04 -0.23,0.11 -0.31,0.22 -0.07,0.1 -0.12,0.25 -0.13,0.44 -0.01,0.18 -0,0.37 0.04,0.58 0.04,0.21 0.1,0.39 0.17,0.54 0.08,0.17 0.17,0.27 0.26,0.32 0.09,0.05 0.2,0.06 0.33,0.04 0.11,-0.02 0.22,-0.07 0.33,-0.14 0.1,-0.07 0.19,-0.15 0.25,-0.24 0.06,-0.1 0.09,-0.19 0.08,-0.27 -0.02,-0.11 -0.07,-0.18 -0.16,-0.21 -0.09,-0.02 -0.21,0.01 -0.36,0.09zm1.64 -1.53c-0.01,0.01 -0.02,0.02 -0.03,0.04 -0.01,0.02 -0.02,0.06 -0.02,0.1 -0,0.06 0,0.13 0.02,0.22l0 0.03 0 0.03c0,0.02 0.01,0.04 0.01,0.06 0,0.04 -0,0.08 -0.01,0.11 -0.01,0.04 -0.02,0.07 -0.05,0.1 -0.02,0.03 -0.05,0.05 -0.08,0.07 0.06,-0.04 0.09,-0.1 0.11,-0.17 0.01,-0.04 0.01,-0.07 0,-0.11 -0,-0.01 -0,-0.03 -0.01,-0.05l-0.01 -0.03 -0 -0.03c-0.01,-0.09 -0.02,-0.16 -0.01,-0.22 0.01,-0.05 0.02,-0.08 0.03,-0.11 0.01,-0.02 0.02,-0.03 0.04,-0.04 0.01,-0.01 0.03,-0.01 0.05,-0.01 -0.02,0.01 -0.03,0.01 -0.05,0.02zm-0.92 0.17c-0.03,0.04 -0.04,0.09 -0.05,0.15 -0.01,0.05 -0.01,0.1 -0.02,0.16l-0.01 0.08 -0.01 0.08c-0.01,-0.11 -0.01,-0.22 0.01,-0.33 0.01,-0.06 0.03,-0.11 0.06,-0.16 0.02,-0.02 0.04,-0.04 0.06,-0.06 0.03,-0.01 0.05,-0.02 0.07,-0.02 -0.05,0.01 -0.09,0.04 -0.12,0.09zm0.94 -0.31c-0.09,0.02 -0.15,0.08 -0.18,0.17 -0.03,0.09 -0.02,0.22 0.01,0.39 0.01,0.08 0.01,0.13 -0.02,0.18 -0.02,0.04 -0.06,0.06 -0.1,0.06 -0.05,0 -0.08,-0.01 -0.11,-0.05 -0.03,-0.04 -0.04,-0.08 -0.05,-0.15 -0.01,-0.18 -0.04,-0.31 -0.11,-0.39 -0.06,-0.07 -0.14,-0.11 -0.24,-0.11 -0.08,-0 -0.16,0.03 -0.21,0.09 -0.06,0.06 -0.09,0.14 -0.11,0.24 -0.03,0.19 -0.03,0.42 0.01,0.67 0.03,0.25 0.09,0.47 0.17,0.69 0.06,0.16 0.14,0.27 0.23,0.33 0.07,0.05 0.15,0.06 0.23,0.04 0.17,-0.05 0.23,-0.21 0.18,-0.45 -0.04,-0.18 -0.02,-0.28 0.07,-0.29 0.04,-0.01 0.08,0.01 0.1,0.04 0.04,0.04 0.06,0.11 0.07,0.21 0.02,0.17 0.06,0.29 0.13,0.37 0.06,0.07 0.14,0.1 0.24,0.09 0.16,-0.02 0.26,-0.15 0.29,-0.38 0.02,-0.17 0.01,-0.44 -0.03,-0.8 -0.03,-0.29 -0.1,-0.52 -0.2,-0.7 -0.11,-0.19 -0.22,-0.27 -0.35,-0.24zm2.07 0.15c-0.03,0.06 -0.06,0.1 -0.09,0.14 -0.04,0.05 -0.08,0.09 -0.12,0.11 0.03,-0.03 0.07,-0.07 0.1,-0.13 0.03,-0.04 0.06,-0.09 0.08,-0.14 0.01,-0.03 0.03,-0.05 0.04,-0.07l0.01 -0.02 0.01 -0.02c0.01,-0.02 0.01,-0.03 0.02,-0.04 0.02,-0.03 0.03,-0.05 0.06,-0.06 0.03,-0.02 0.05,-0.03 0.08,-0.03 -0.05,0.01 -0.08,0.05 -0.11,0.1 -0.01,0.01 -0.01,0.02 -0.02,0.04l-0.01 0.02 -0.01 0.02c-0.01,0.02 -0.02,0.05 -0.04,0.08zm-0.59 -0.25c-0.02,0.02 -0.03,0.04 -0.04,0.06 -0.02,0.04 -0.04,0.08 -0.05,0.14 -0.01,0.04 -0.02,0.09 -0.03,0.16l-0.01 0.08 -0.01 0.08c-0,-0.06 -0,-0.12 -0,-0.16 0,-0.06 0.01,-0.11 0.02,-0.16 0.01,-0.06 0.03,-0.11 0.06,-0.15 0.02,-0.02 0.03,-0.04 0.05,-0.06 0.02,-0.02 0.05,-0.02 0.07,-0.03 -0.02,0.01 -0.04,0.02 -0.06,0.04zm0.75 0.78c-0.04,-0.02 -0.05,-0.04 -0.04,-0.06 0.01,-0.01 0.02,-0.02 0.04,-0.03l0.01 -0.01 0.02 -0.01c0.01,-0.01 0.03,-0.02 0.03,-0.02 0.06,-0.05 0.11,-0.09 0.15,-0.14 0.05,-0.07 0.09,-0.15 0.1,-0.24 0.01,-0.08 -0,-0.16 -0.04,-0.23 -0.03,-0.06 -0.08,-0.11 -0.15,-0.13 -0.06,-0.02 -0.12,-0.02 -0.18,0.01 -0.07,0.03 -0.12,0.09 -0.16,0.18 -0.06,0.15 -0.13,0.26 -0.2,0.32 -0.03,0.03 -0.05,0.03 -0.06,0.03 -0.01,-0.01 -0.01,-0.03 -0,-0.07 0.04,-0.16 0.05,-0.28 0.01,-0.37 -0.03,-0.07 -0.09,-0.12 -0.17,-0.12 -0.16,-0.02 -0.27,0.09 -0.33,0.31 -0.04,0.18 -0.05,0.43 -0.03,0.75 0.03,0.32 0.08,0.58 0.16,0.77 0.09,0.23 0.21,0.33 0.36,0.3 0.13,-0.03 0.2,-0.14 0.19,-0.36 -0,-0.07 -0.01,-0.15 -0.03,-0.24 -0.01,-0.03 -0.02,-0.06 -0.02,-0.09 -0,-0.01 -0.01,-0.02 -0.01,-0.04l-0 -0.01 -0 -0.01 -0 -0c-0.01,-0.03 -0.01,-0.05 0,-0.06 0.01,-0.01 0.03,-0.01 0.05,0.01 0.06,0.04 0.12,0.15 0.19,0.32 0.05,0.11 0.1,0.2 0.17,0.27 0.06,0.06 0.12,0.1 0.19,0.11 0.06,0.01 0.12,0 0.18,-0.03 0.05,-0.03 0.1,-0.09 0.13,-0.16 0.03,-0.08 0.05,-0.16 0.03,-0.25 -0.01,-0.09 -0.04,-0.17 -0.09,-0.26 -0.11,-0.18 -0.28,-0.32 -0.5,-0.41zm1.61 0.26c-0.01,0.03 -0.03,0.05 -0.06,0.07 -0.03,0.02 -0.05,0.03 -0.08,0.02 0.06,-0.02 0.09,-0.06 0.11,-0.11 0.01,-0.02 0.02,-0.05 0.02,-0.08 0,-0.03 -0,-0.06 -0.01,-0.09 0.02,0.03 0.02,0.06 0.03,0.09 0,0.03 -0,0.06 -0.01,0.09zm-0.26 -0.08c-0.02,-0.03 -0.03,-0.05 -0.03,-0.08 -0,-0.03 0.01,-0.05 0.03,-0.06 0.02,-0.01 0.04,-0.01 0.07,-0 0.03,0.01 0.05,0.03 0.07,0.05 0.02,0.03 0.03,0.06 0.03,0.08 0,0.03 -0.01,0.05 -0.03,0.06 -0.02,0.01 -0.04,0.02 -0.06,0.01 -0.03,-0.01 -0.05,-0.03 -0.07,-0.06zm-0.31 -1.22c-0.02,0.01 -0.03,0.03 -0.05,0.05 -0.03,0.03 -0.05,0.07 -0.08,0.12 -0.02,0.03 -0.04,0.08 -0.06,0.13 -0.01,0.02 -0.02,0.04 -0.03,0.07l-0.03 0.07c0.01,-0.06 0.02,-0.11 0.04,-0.15 0.02,-0.05 0.04,-0.1 0.06,-0.14 0.03,-0.05 0.06,-0.09 0.09,-0.12 0.04,-0.04 0.08,-0.06 0.13,-0.07 -0.02,0.01 -0.04,0.02 -0.06,0.03zm0.46 0.67c-0.05,-0.01 -0.08,-0.03 -0.1,-0.07 -0.01,-0.03 -0.02,-0.07 -0.02,-0.14 0,-0.01 0,-0.03 0,-0.04l0 -0.04c0,-0.04 0,-0.07 0,-0.09 -0,-0.08 -0.01,-0.15 -0.02,-0.2 -0.02,-0.08 -0.06,-0.14 -0.12,-0.19 -0.06,-0.04 -0.12,-0.06 -0.18,-0.04 -0.07,0.02 -0.14,0.07 -0.2,0.16 -0.07,0.1 -0.13,0.23 -0.17,0.39 -0.05,0.17 -0.06,0.36 -0.06,0.55 0.01,0.2 0.05,0.38 0.11,0.54 0.07,0.17 0.17,0.3 0.29,0.39 0.14,0.09 0.3,0.13 0.48,0.1 0.17,-0.03 0.31,-0.11 0.41,-0.24 0.09,-0.12 0.13,-0.26 0.13,-0.41 -0,-0.16 -0.05,-0.3 -0.14,-0.42 -0.1,-0.13 -0.24,-0.21 -0.41,-0.24zm0.47 -0.77c-0.01,0.02 -0.02,0.04 -0.03,0.06 -0,0.02 -0,0.05 -0,0.07 0,0.04 0.01,0.09 0.03,0.15l0.02 0.07 0.02 0.07c-0.03,-0.05 -0.05,-0.1 -0.07,-0.14 -0.02,-0.06 -0.04,-0.11 -0.04,-0.15 -0,-0.03 -0,-0.06 0,-0.08 0.01,-0.03 0.02,-0.05 0.03,-0.07 0.03,-0.04 0.08,-0.06 0.13,-0.06 -0.05,0.01 -0.09,0.04 -0.11,0.07zm0.49 0.01c-0.05,-0.07 -0.11,-0.13 -0.18,-0.16 -0.06,-0.03 -0.12,-0.05 -0.19,-0.04 -0.06,0 -0.12,0.02 -0.16,0.06 -0.05,0.03 -0.08,0.08 -0.1,0.13 -0.03,0.1 -0.01,0.24 0.07,0.41 0.01,0.03 0.03,0.06 0.05,0.11l0.03 0.06 0.03 0.05c0.04,0.09 0.06,0.16 0.08,0.22 0.04,0.14 0.07,0.29 0.09,0.44 0.01,0.05 0.01,0.11 0.02,0.17l0 0.04 0 0.04c0,0.03 0,0.05 0.01,0.07 0.01,0.09 0.03,0.16 0.04,0.2 0.02,0.05 0.06,0.07 0.12,0.08 0.1,0.01 0.18,-0.06 0.24,-0.21 0.05,-0.14 0.08,-0.32 0.09,-0.54 0.01,-0.22 -0.01,-0.43 -0.05,-0.63 -0.04,-0.22 -0.1,-0.38 -0.17,-0.49z"/>
  <path class="fil0" d="M19.42 1.48l-0.03 0.01c-0.01,0 -0.02,0.01 -0.02,0.01 -0.01,0 -0.01,0.01 -0.02,0.01l-0.01 0.01 -0.01 0.01 -0.02 0.02c-0.01,0.01 -0.01,0.01 -0.02,0.02 -0.05,0.05 -0.09,0.11 -0.12,0.19 -0.03,0.06 -0.06,0.13 -0.08,0.22 -0.02,0.06 -0.04,0.13 -0.06,0.23 0.01,-0.08 0.02,-0.15 0.04,-0.23 0.02,-0.08 0.05,-0.15 0.08,-0.22 0.04,-0.08 0.08,-0.14 0.13,-0.19 0.06,-0.06 0.13,-0.09 0.2,-0.1l-0.05 0.02zm0.94 0.54c-0.13,-0.24 -0.28,-0.42 -0.45,-0.55 -0.18,-0.13 -0.35,-0.16 -0.52,-0.12 -0.14,0.04 -0.25,0.16 -0.34,0.36 -0.09,0.19 -0.14,0.41 -0.15,0.67 -0.02,0.29 0.02,0.55 0.09,0.78 0.04,0.11 0.08,0.2 0.13,0.27 0.06,0.07 0.12,0.11 0.18,0.11 0.1,0 0.17,-0.05 0.22,-0.15 0.04,-0.08 0.06,-0.2 0.07,-0.35 0,-0.03 0,-0.06 0.01,-0.1l0 -0.05 0 -0.05c0,-0.08 0.01,-0.14 0.01,-0.17 0.01,-0.12 0.03,-0.18 0.07,-0.19 0.03,-0.01 0.05,-0 0.08,0.03 0.02,0.02 0.05,0.07 0.08,0.13 0.01,0.02 0.03,0.05 0.04,0.09l0.02 0.05 0.03 0.05c0.04,0.08 0.08,0.15 0.11,0.2 0.08,0.13 0.17,0.22 0.26,0.26 0.08,0.04 0.16,0.03 0.22,-0.03 0.04,-0.04 0.06,-0.1 0.08,-0.18 0.01,-0.08 0.01,-0.17 0,-0.28 -0.03,-0.24 -0.11,-0.5 -0.26,-0.77zm1.42 0.53c-0.01,0.03 -0.03,0.05 -0.05,0.07 -0.02,0.02 -0.05,0.03 -0.08,0.02 0.05,-0.02 0.09,-0.05 0.11,-0.1 0.01,-0.02 0.02,-0.05 0.02,-0.08 0,-0.02 -0,-0.05 -0.01,-0.08 0.01,0.03 0.02,0.05 0.03,0.08 0,0.03 -0,0.06 -0.01,0.09zm-0.25 -0.08c-0.02,-0.03 -0.03,-0.05 -0.03,-0.08 0,-0.03 0.01,-0.05 0.03,-0.06 0.02,-0.01 0.04,-0.02 0.06,-0.01 0.02,0.01 0.04,0.03 0.06,0.05 0.02,0.03 0.03,0.05 0.03,0.08 -0,0.03 -0.01,0.05 -0.03,0.06 -0.02,0.01 -0.04,0.01 -0.06,0 -0.02,-0.01 -0.05,-0.03 -0.06,-0.05zm-0.66 -1.21c-0.01,0 -0.03,0.01 -0.05,0.02 -0.04,0.01 -0.06,0.03 -0.09,0.05 -0.03,0.02 -0.04,0.05 -0.06,0.08 -0.01,0.03 -0.01,0.07 -0.01,0.11 -0.02,-0.04 -0.02,-0.08 -0.01,-0.11 0.01,-0.04 0.03,-0.07 0.06,-0.1 0.03,-0.02 0.06,-0.04 0.1,-0.05 0.02,-0 0.04,-0.01 0.05,-0.01l0.03 0 0.03 0 -0.03 0.01 -0.02 0.01zm0.8 0.69c-0.05,-0.01 -0.09,-0.03 -0.12,-0.05 -0.03,-0.02 -0.05,-0.06 -0.06,-0.1 -0.01,-0.03 -0.02,-0.07 -0.04,-0.14 -0.01,-0.03 -0.02,-0.06 -0.02,-0.08 -0.01,-0.03 -0.02,-0.06 -0.03,-0.09 -0.04,-0.12 -0.12,-0.22 -0.22,-0.27 -0.08,-0.05 -0.17,-0.07 -0.27,-0.07 -0.08,0 -0.15,0.02 -0.2,0.05 -0.06,0.04 -0.11,0.09 -0.14,0.16 -0.03,0.08 -0.03,0.15 0,0.23 0.03,0.08 0.1,0.12 0.18,0.12 0.05,-0 0.08,0.03 0.08,0.11 0,0.02 0,0.05 -0,0.08 -0,0.01 -0,0.02 -0,0.04l-0 0.01 -0 0.01c-0,0 -0,0.01 -0,0.01 -0.02,0.16 -0.01,0.32 0.01,0.47 0.03,0.16 0.07,0.31 0.14,0.43 0.07,0.13 0.16,0.23 0.27,0.29 0.12,0.07 0.26,0.09 0.42,0.06 0.17,-0.03 0.3,-0.1 0.4,-0.23 0.09,-0.11 0.13,-0.25 0.13,-0.4 -0,-0.15 -0.05,-0.29 -0.14,-0.4 -0.1,-0.13 -0.23,-0.2 -0.39,-0.23zm1.59 0.39l-0.02 0.01c-0.02,0.01 -0.03,0.01 -0.04,0.02 -0.03,0.01 -0.06,0.02 -0.09,0.02 0.03,-0.01 0.05,-0.02 0.08,-0.04l0.02 -0.01 0.02 -0.01c0.02,-0.01 0.03,-0.02 0.04,-0.02 0.03,-0.02 0.06,-0.03 0.08,-0.03 0.03,-0.01 0.06,-0.01 0.09,-0.01 -0.05,0.02 -0.1,0.04 -0.16,0.07l-0.02 0.01zm-0.6 -1.33c-0.04,0.02 -0.08,0.04 -0.11,0.07 -0.04,0.03 -0.07,0.06 -0.09,0.1 -0.02,0.03 -0.04,0.07 -0.06,0.12 -0.02,0.07 -0.04,0.16 -0.05,0.27 -0.01,0.04 -0.01,0.09 -0.01,0.14 -0,0.02 -0,0.04 -0,0.07l0 0.07c-0.01,-0.1 -0.02,-0.19 -0.01,-0.28 0,-0.1 0.02,-0.19 0.05,-0.27 0.02,-0.05 0.04,-0.09 0.06,-0.12 0.03,-0.04 0.06,-0.07 0.1,-0.09 0.03,-0.03 0.07,-0.05 0.11,-0.06 0.04,-0.02 0.08,-0.02 0.12,-0.03 -0.05,0.01 -0.09,0.02 -0.12,0.04zm0.38 0.75l0.01 -0.01c0.01,-0 0.02,-0.01 0.02,-0.01 0.02,-0 0.03,-0.01 0.05,-0 0.02,0 0.03,0.01 0.04,0.02 -0.01,-0 -0.03,-0 -0.04,0 -0.01,0 -0.03,0.01 -0.04,0.01l-0.01 0 -0.01 0c-0.01,0 -0.02,0.01 -0.02,0.01 -0.02,0 -0.03,0 -0.05,0l0.02 -0.01 0.02 -0.01 0.01 -0zm0.13 0.47c-0.05,0.03 -0.09,0.04 -0.12,0.03 -0.03,-0.01 -0.05,-0.03 -0.06,-0.05 -0.01,-0.03 -0.01,-0.06 -0,-0.08 0.01,-0.03 0.04,-0.05 0.07,-0.06 0.1,-0.02 0.16,-0.06 0.2,-0.12 0.04,-0.05 0.05,-0.11 0.03,-0.17 -0.01,-0.06 -0.05,-0.1 -0.1,-0.12 -0.06,-0.02 -0.12,-0.02 -0.19,0.01 -0.06,0.02 -0.1,0.01 -0.12,-0.04 -0.01,-0.02 -0.01,-0.04 -0.01,-0.07 0,-0.02 0.01,-0.05 0.03,-0.06 0.02,-0.02 0.06,-0.04 0.11,-0.06 0.02,-0 0.04,-0.01 0.07,-0.02l0.04 -0.01 0.04 -0.01c0.06,-0.01 0.11,-0.03 0.14,-0.05 0.04,-0.03 0.07,-0.06 0.08,-0.11 0.02,-0.08 -0,-0.16 -0.08,-0.23 -0.07,-0.07 -0.16,-0.12 -0.27,-0.14 -0.12,-0.03 -0.24,-0.03 -0.35,0.01 -0.13,0.04 -0.23,0.11 -0.31,0.22 -0.07,0.1 -0.12,0.25 -0.13,0.44 -0.01,0.18 -0,0.37 0.04,0.58 0.04,0.21 0.1,0.39 0.17,0.54 0.08,0.17 0.17,0.27 0.26,0.32 0.09,0.05 0.2,0.06 0.33,0.04 0.11,-0.02 0.22,-0.07 0.33,-0.14 0.1,-0.07 0.19,-0.15 0.25,-0.24 0.06,-0.1 0.09,-0.19 0.08,-0.27 -0.02,-0.11 -0.07,-0.18 -0.16,-0.21 -0.09,-0.02 -0.21,0.01 -0.36,0.09zm-0.6 -1.6c0,-0 0,-0.01 0.01,-0.01 0,-0 0.01,-0 0.01,-0 -0,0 -0,0.01 0,0.01l0 0 0 0 0 0.01 0 0.01c0,0.01 -0,0.02 -0.01,0.03 -0.01,-0.01 -0.02,-0.02 -0.02,-0.03 -0,-0.01 0,-0.02 0,-0.02zm0.1 0.2c0.04,-0.01 0.06,-0.04 0.08,-0.09 0.01,-0.04 0.01,-0.09 -0.01,-0.14 -0.02,-0.05 -0.05,-0.08 -0.1,-0.1 -0.04,-0.02 -0.08,-0.01 -0.11,0.01 -0.03,0.02 -0.05,0.05 -0.05,0.09 -0.01,0.04 -0,0.08 0.02,0.12 0.02,0.04 0.04,0.07 0.08,0.09 0.03,0.02 0.07,0.02 0.1,0.01zm0.27 -0.34c0.01,-0.01 0.01,-0.02 0.02,-0.03 0.01,-0.01 0.02,-0.01 0.03,-0 -0.01,0.01 -0.01,0.01 -0.02,0.02 -0.01,0.01 -0.01,0.02 -0.01,0.02 -0,0.01 -0.01,0.02 -0.01,0.03l-0.01 0.01 -0.01 0.02c-0.01,-0.02 -0.01,-0.05 0,-0.07zm0.05 0.29c0.05,0.01 0.1,-0.01 0.14,-0.05 0.04,-0.04 0.06,-0.1 0.06,-0.16 -0,-0.07 -0.02,-0.12 -0.07,-0.17 -0.04,-0.04 -0.09,-0.06 -0.14,-0.05 -0.05,0.01 -0.08,0.03 -0.11,0.07 -0.03,0.04 -0.04,0.09 -0.04,0.14 0,0.05 0.02,0.1 0.05,0.14 0.03,0.04 0.07,0.07 0.11,0.07zm1.94 1.08c-0.01,0.01 -0.02,0.01 -0.03,0.03l-0.01 0.01 -0.01 0.01c-0.02,0.02 -0.04,0.04 -0.07,0.05 -0.03,0.01 -0.05,0.02 -0.08,0.01 0.05,-0.02 0.09,-0.04 0.12,-0.08l0.01 -0.01 0.01 -0.01c0.01,-0.01 0.02,-0.02 0.03,-0.03 0.03,-0.02 0.05,-0.02 0.08,-0.02 -0.02,0.01 -0.04,0.02 -0.06,0.04zm-0.94 -0.87c-0.04,0.06 -0.07,0.13 -0.1,0.21 -0.02,0.07 -0.04,0.14 -0.06,0.23 0,-0.08 0.01,-0.16 0.04,-0.24 0.02,-0.08 0.05,-0.15 0.1,-0.22 0.05,-0.07 0.1,-0.12 0.16,-0.16 0.04,-0.02 0.07,-0.04 0.1,-0.05 0.04,-0.01 0.08,-0.02 0.11,-0.02 -0.08,0.02 -0.15,0.05 -0.2,0.09 -0.06,0.04 -0.11,0.1 -0.15,0.16zm1.26 0.99c-0.04,-0.15 -0.1,-0.24 -0.2,-0.27 -0.04,-0.01 -0.08,-0.01 -0.13,0.01 -0.04,0.02 -0.08,0.05 -0.12,0.09 -0.03,0.04 -0.07,0.06 -0.12,0.06 -0.04,0 -0.08,-0.01 -0.12,-0.04 -0.04,-0.03 -0.07,-0.08 -0.1,-0.13 -0.03,-0.06 -0.04,-0.13 -0.04,-0.21 -0,-0.11 0.04,-0.18 0.12,-0.21 0.06,-0.02 0.14,-0.01 0.26,0.01 0.05,0.01 0.09,0 0.13,-0.02 0.03,-0.02 0.06,-0.06 0.07,-0.11 0.01,-0.05 0.01,-0.1 -0.01,-0.16 -0.02,-0.06 -0.05,-0.12 -0.1,-0.17 -0.1,-0.11 -0.22,-0.18 -0.36,-0.2 -0.13,-0.02 -0.26,-0.01 -0.38,0.04 -0.16,0.07 -0.27,0.2 -0.36,0.4 -0.09,0.22 -0.11,0.47 -0.06,0.77 0.05,0.34 0.17,0.59 0.36,0.75 0.09,0.08 0.19,0.13 0.29,0.16 0.11,0.03 0.22,0.03 0.34,-0 0.2,-0.05 0.34,-0.15 0.44,-0.3 0.09,-0.15 0.12,-0.3 0.08,-0.47zm0.44 -1.41c-0.06,0.02 -0.11,0.04 -0.15,0.06 -0.06,0.03 -0.1,0.06 -0.14,0.09 -0.02,0.02 -0.04,0.04 -0.05,0.06 -0.01,0.02 -0.02,0.05 -0.01,0.08 -0.01,-0.03 -0.01,-0.06 -0,-0.09 0.01,-0.02 0.02,-0.05 0.05,-0.08 0.03,-0.03 0.08,-0.07 0.14,-0.1 0.1,-0.05 0.2,-0.07 0.32,-0.08 -0.06,0.02 -0.11,0.03 -0.16,0.04zm0.24 -0.17c-0.23,0.02 -0.4,0.07 -0.53,0.16 -0.14,0.09 -0.19,0.2 -0.16,0.33 0.02,0.07 0.05,0.12 0.11,0.15 0.04,0.02 0.1,0.03 0.17,0.02l0.05 -0 0.04 -0c0.04,-0 0.06,-0 0.08,0 0.06,0 0.1,0.02 0.11,0.06 0.01,0.02 0.02,0.15 0.03,0.39 0.01,0.12 0.01,0.23 0.02,0.31 0.01,0.12 0.03,0.23 0.05,0.31 0.03,0.13 0.09,0.24 0.18,0.31 0.09,0.08 0.19,0.1 0.29,0.07 0.19,-0.06 0.23,-0.28 0.12,-0.67 -0.06,-0.2 -0.1,-0.38 -0.12,-0.53 -0.03,-0.16 -0.03,-0.25 0,-0.28 0.02,-0.02 0.05,-0.03 0.1,-0.04 0.02,-0 0.04,-0.01 0.07,-0.01l0.04 -0 0.04 -0.01c0.06,-0.01 0.1,-0.03 0.14,-0.05 0.04,-0.03 0.07,-0.07 0.07,-0.13 0.01,-0.07 -0.01,-0.13 -0.06,-0.19 -0.04,-0.05 -0.11,-0.09 -0.2,-0.13 -0.18,-0.07 -0.39,-0.09 -0.65,-0.07zm2.11 1.21c-0.01,0.03 -0.03,0.05 -0.06,0.07 -0.03,0.02 -0.05,0.03 -0.08,0.02 0.06,-0.02 0.09,-0.05 0.11,-0.11 0.01,-0.02 0.02,-0.05 0.02,-0.08 0,-0.03 -0,-0.06 -0.01,-0.09 0.02,0.03 0.02,0.06 0.03,0.09 0,0.03 -0,0.06 -0.01,0.09zm-0.26 -0.08c-0.02,-0.03 -0.03,-0.05 -0.03,-0.08 -0,-0.03 0.01,-0.05 0.03,-0.06 0.02,-0.01 0.04,-0.01 0.07,-0.01 0.03,0.01 0.05,0.03 0.07,0.05 0.02,0.03 0.03,0.06 0.03,0.08 0,0.03 -0.01,0.05 -0.03,0.06 -0.02,0.01 -0.04,0.02 -0.06,0.01 -0.03,-0.01 -0.05,-0.03 -0.07,-0.06zm-0.31 -1.22c-0.02,0.01 -0.03,0.03 -0.05,0.05 -0.03,0.03 -0.05,0.07 -0.08,0.12 -0.02,0.03 -0.04,0.08 -0.06,0.13 -0.01,0.02 -0.02,0.04 -0.03,0.07l-0.03 0.07c0.01,-0.06 0.02,-0.11 0.04,-0.15 0.02,-0.05 0.04,-0.1 0.06,-0.14 0.03,-0.05 0.06,-0.09 0.09,-0.12 0.04,-0.04 0.08,-0.06 0.13,-0.07 -0.02,0.01 -0.04,0.02 -0.06,0.03zm0.46 0.67c-0.05,-0.01 -0.08,-0.03 -0.1,-0.07 -0.01,-0.03 -0.02,-0.07 -0.02,-0.14 0,-0.01 0,-0.03 0,-0.04l0 -0.04c0,-0.04 0,-0.07 0,-0.09 -0,-0.08 -0.01,-0.15 -0.02,-0.2 -0.02,-0.08 -0.06,-0.14 -0.12,-0.19 -0.06,-0.04 -0.12,-0.06 -0.18,-0.04 -0.07,0.02 -0.14,0.07 -0.2,0.15 -0.07,0.1 -0.13,0.23 -0.17,0.4 -0.05,0.17 -0.06,0.36 -0.06,0.55 0.01,0.2 0.05,0.38 0.11,0.54 0.07,0.17 0.17,0.3 0.29,0.39 0.14,0.09 0.3,0.13 0.48,0.1 0.17,-0.03 0.31,-0.11 0.41,-0.24 0.09,-0.12 0.13,-0.26 0.13,-0.41 -0,-0.16 -0.05,-0.3 -0.14,-0.42 -0.1,-0.13 -0.24,-0.21 -0.41,-0.24zm0.47 -0.77c-0.01,0.02 -0.02,0.04 -0.03,0.06 -0,0.02 -0,0.05 -0,0.07 0,0.04 0.01,0.09 0.03,0.15l0.02 0.07 0.02 0.07c-0.03,-0.05 -0.05,-0.1 -0.07,-0.14 -0.02,-0.06 -0.04,-0.11 -0.04,-0.15 -0,-0.03 -0,-0.06 0,-0.08 0.01,-0.03 0.02,-0.05 0.03,-0.07 0.03,-0.04 0.08,-0.06 0.13,-0.06 -0.05,0.01 -0.09,0.04 -0.11,0.07zm0.49 0.01c-0.05,-0.07 -0.11,-0.13 -0.18,-0.16 -0.06,-0.03 -0.13,-0.04 -0.19,-0.04 -0.06,0 -0.12,0.02 -0.16,0.06 -0.05,0.03 -0.08,0.08 -0.1,0.13 -0.03,0.1 -0.01,0.24 0.07,0.41 0.01,0.03 0.03,0.06 0.05,0.11l0.03 0.06 0.03 0.05c0.04,0.09 0.06,0.16 0.08,0.22 0.04,0.14 0.07,0.29 0.09,0.44 0.01,0.05 0.01,0.11 0.02,0.17l0 0.04 0 0.04c0,0.03 0,0.05 0.01,0.07 0.01,0.09 0.03,0.16 0.04,0.2 0.02,0.05 0.06,0.07 0.12,0.08 0.1,0.01 0.18,-0.06 0.24,-0.21 0.05,-0.14 0.08,-0.32 0.09,-0.54 0.01,-0.22 -0.01,-0.43 -0.05,-0.63 -0.04,-0.22 -0.1,-0.38 -0.17,-0.49zm-27.14 7.49c-0.02,0.02 -0.03,0.05 -0.04,0.08 -0.02,0.04 -0.05,0.1 -0.07,0.17l-0.02 0.04 -0.02 0.04c-0.01,0.03 -0.02,0.06 -0.04,0.08 -0.02,0.03 -0.03,0.06 -0.05,0.08 -0.02,0.03 -0.05,0.05 -0.07,0.05 0.02,-0.02 0.04,-0.04 0.06,-0.06 0.01,-0.02 0.02,-0.05 0.04,-0.08 0.01,-0.02 0.02,-0.05 0.03,-0.09l0.03 -0.09c0.03,-0.07 0.05,-0.13 0.08,-0.17 0.02,-0.03 0.04,-0.06 0.05,-0.08 0.03,-0.03 0.05,-0.04 0.07,-0.05 -0.02,0.01 -0.05,0.03 -0.07,0.06zm-0.69 1.47c-0.02,0.02 -0.04,0.04 -0.05,0.05 -0.04,0.04 -0.07,0.08 -0.08,0.11 -0.01,0.02 -0.02,0.05 -0.03,0.07 -0,0.02 -0.01,0.04 -0.01,0.07 -0,-0.02 -0.01,-0.05 -0,-0.08 0,-0.02 0.01,-0.05 0.02,-0.07 0.02,-0.04 0.04,-0.08 0.08,-0.12 0.03,-0.03 0.06,-0.06 0.1,-0.1l0.03 -0.02 0.03 -0.02c0.02,-0.02 0.04,-0.03 0.05,-0.05 -0.02,0.03 -0.05,0.07 -0.09,0.11l-0.05 0.05zm-0.41 -1.18c-0.01,0.02 -0.02,0.05 -0.02,0.08 -0,0.03 -0,0.05 0,0.08 -0.01,-0.03 -0.02,-0.05 -0.02,-0.08 -0,-0.03 0,-0.06 0.02,-0.09 0.01,-0.03 0.03,-0.05 0.06,-0.07 0.02,-0.02 0.05,-0.02 0.08,-0.02 -0.05,0.02 -0.09,0.05 -0.11,0.1zm1.14 -0.46c-0.06,0.01 -0.11,0.04 -0.15,0.11 -0.03,0.05 -0.07,0.12 -0.11,0.21l-0.02 0.06 -0.01 0.03 -0.01 0.03c-0.02,0.04 -0.03,0.07 -0.04,0.09 -0.03,0.06 -0.05,0.1 -0.07,0.1 -0.02,0 -0.07,-0.03 -0.15,-0.1l-0.01 -0.01 -0.01 -0.01c-0.01,-0.01 -0.02,-0.02 -0.03,-0.03 -0.02,-0.02 -0.04,-0.04 -0.06,-0.05 -0.05,-0.04 -0.1,-0.08 -0.15,-0.11 -0.08,-0.05 -0.15,-0.07 -0.23,-0.06 -0.07,0.01 -0.12,0.04 -0.17,0.1 -0.04,0.06 -0.06,0.12 -0.06,0.2 -0,0.08 0.03,0.16 0.08,0.23 0.04,0.05 0.09,0.1 0.16,0.16 0.03,0.02 0.05,0.04 0.09,0.07l0.04 0.03 0.04 0.03c0.07,0.05 0.12,0.09 0.15,0.12 0.04,0.04 0.07,0.08 0.08,0.11 0.01,0.04 -0.01,0.08 -0.05,0.13 -0.01,0.02 -0.04,0.04 -0.06,0.07l-0.02 0.02 -0.02 0.02 -0.04 0.04c-0.06,0.06 -0.11,0.12 -0.14,0.17 -0.04,0.07 -0.06,0.15 -0.05,0.23 0.01,0.06 0.03,0.12 0.06,0.17 0.03,0.05 0.07,0.09 0.12,0.11 0.11,0.06 0.24,0.05 0.39,-0.02 0.19,-0.1 0.37,-0.32 0.53,-0.66 0.14,-0.31 0.22,-0.59 0.23,-0.86 0.01,-0.27 -0.01,-0.46 -0.08,-0.58 -0.05,-0.1 -0.14,-0.14 -0.24,-0.12zm1.93 1.14c-0,0.04 -0.02,0.07 -0.04,0.09 -0.02,0.02 -0.05,0.04 -0.08,0.05 -0.03,0.01 -0.06,0.01 -0.09,0.01 0.03,-0.01 0.06,-0.02 0.08,-0.03 0.03,-0.02 0.05,-0.03 0.07,-0.05 0.02,-0.02 0.03,-0.05 0.04,-0.08 0,-0.02 0.01,-0.05 0.01,-0.09 0.01,0.03 0.02,0.07 0.01,0.1zm-0.35 0.01c-0.02,-0.03 -0.03,-0.09 -0.01,-0.17 0.02,-0.08 0.05,-0.13 0.08,-0.13 0.04,-0.01 0.09,0.03 0.12,0.11 0.02,0.03 0.03,0.06 0.03,0.1 0.01,0.03 0.01,0.06 0,0.08 -0.01,0.03 -0.05,0.04 -0.11,0.05 -0.06,0.01 -0.1,-0 -0.13,-0.03zm-0.33 -0.94c-0.03,0.07 -0.06,0.14 -0.08,0.22 -0.02,0.06 -0.03,0.14 -0.05,0.23 0,-0.08 0.02,-0.15 0.03,-0.23 0.02,-0.07 0.04,-0.15 0.07,-0.22 0.04,-0.08 0.08,-0.15 0.12,-0.2 0.03,-0.03 0.05,-0.05 0.09,-0.08 0.03,-0.02 0.07,-0.03 0.1,-0.04 -0.06,0.02 -0.12,0.06 -0.17,0.13 -0.04,0.06 -0.08,0.12 -0.11,0.2zm-0.43 1.26c-0.02,0.02 -0.04,0.03 -0.05,0.05 -0.01,0.02 -0.02,0.04 -0.03,0.06 -0.01,-0.03 -0,-0.05 0.01,-0.08 0.01,-0.02 0.03,-0.04 0.05,-0.05 0.04,-0.03 0.08,-0.05 0.13,-0.05l-0.03 0.02 -0.03 0.02c-0.02,0.01 -0.04,0.03 -0.05,0.04zm1.64 -0.43c-0.04,-0.01 -0.07,-0.02 -0.09,-0.04 -0.02,-0.02 -0.03,-0.04 -0.04,-0.08 -0.01,-0.02 -0.02,-0.07 -0.03,-0.13 -0.01,-0.03 -0.01,-0.06 -0.02,-0.09 -0.01,-0.04 -0.02,-0.07 -0.03,-0.11 -0.08,-0.29 -0.19,-0.51 -0.33,-0.65 -0.13,-0.13 -0.26,-0.19 -0.4,-0.18 -0.12,0.01 -0.23,0.1 -0.32,0.26 -0.1,0.16 -0.16,0.36 -0.19,0.6 -0.01,0.1 -0.02,0.19 -0.02,0.29 -0,0.02 -0,0.03 -0,0.05l0 0.03 -0 0.02c0,0.04 0,0.06 0,0.08 -0,0.05 -0.01,0.09 -0.02,0.11 -0.01,0.03 -0.04,0.05 -0.08,0.06 -0.12,0.04 -0.19,0.1 -0.23,0.18 -0.03,0.07 -0.03,0.14 0,0.22 0.05,0.12 0.19,0.19 0.41,0.23 0.2,0.03 0.45,0.03 0.74,-0 0.27,-0.03 0.47,-0.07 0.61,-0.12 0.21,-0.07 0.33,-0.16 0.37,-0.29 0.04,-0.12 0.03,-0.22 -0.03,-0.3 -0.06,-0.08 -0.16,-0.14 -0.3,-0.16zm1.79 -1.53c-0.02,0.02 -0.04,0.05 -0.06,0.08 -0.02,0.04 -0.05,0.1 -0.09,0.18l-0.02 0.05 -0.02 0.05c-0.02,0.03 -0.04,0.06 -0.05,0.09 -0.02,0.03 -0.04,0.05 -0.07,0.07 -0.03,0.02 -0.06,0.03 -0.09,0.03 0.06,-0.01 0.1,-0.05 0.14,-0.12 0.02,-0.02 0.03,-0.05 0.05,-0.09l0.02 -0.05 0.02 -0.05c0.03,-0.08 0.07,-0.14 0.09,-0.18 0.02,-0.03 0.04,-0.06 0.07,-0.08 0.03,-0.02 0.06,-0.03 0.09,-0.04 -0.03,0.01 -0.06,0.02 -0.08,0.05zm-1.09 0.3c-0.03,0.05 -0.05,0.11 -0.07,0.18 -0.01,0.04 -0.03,0.11 -0.05,0.2 -0.01,0.03 -0.01,0.07 -0.02,0.1l-0.01 0.05 -0.01 0.05c0,-0.14 0.02,-0.28 0.06,-0.4 0.02,-0.08 0.05,-0.14 0.08,-0.19 0.02,-0.03 0.04,-0.05 0.06,-0.08 0.03,-0.02 0.06,-0.03 0.09,-0.04 -0.05,0.01 -0.1,0.06 -0.13,0.13zm1.78 0.49c-0.06,-0.3 -0.14,-0.53 -0.26,-0.71 -0.11,-0.17 -0.22,-0.25 -0.33,-0.25 -0.09,0 -0.16,0.04 -0.22,0.11 -0.05,0.05 -0.1,0.15 -0.16,0.3 -0.05,0.13 -0.11,0.19 -0.16,0.18 -0.03,-0 -0.08,-0.04 -0.15,-0.12 -0.07,-0.09 -0.14,-0.15 -0.2,-0.19 -0.08,-0.05 -0.15,-0.07 -0.22,-0.05 -0.19,0.05 -0.31,0.31 -0.35,0.8 -0.03,0.31 -0.02,0.58 0.03,0.82 0.06,0.27 0.15,0.41 0.29,0.42 0.08,0.01 0.15,-0.02 0.2,-0.09 0.04,-0.05 0.07,-0.13 0.09,-0.24 0.01,-0.03 0.02,-0.08 0.03,-0.13l0.01 -0.03 0.01 -0.03c0,-0.02 0.01,-0.04 0.01,-0.06 0.02,-0.08 0.04,-0.13 0.06,-0.14 0.02,-0.01 0.04,0 0.06,0.04 0.01,0.01 0.02,0.03 0.03,0.06l0.01 0.02 0.01 0.02 0.02 0.03c0.03,0.06 0.06,0.1 0.1,0.13 0.04,0.04 0.09,0.05 0.14,0.05 0.04,-0 0.07,-0.03 0.11,-0.07 0.02,-0.03 0.04,-0.07 0.07,-0.12l0.01 -0.03 0.01 -0.03c0.01,-0.02 0.02,-0.04 0.03,-0.05 0.02,-0.03 0.04,-0.04 0.06,-0.04 0.02,0.01 0.05,0.04 0.09,0.11 0.01,0.01 0.01,0.03 0.02,0.05l0.01 0.03 0.01 0.03c0.02,0.04 0.04,0.08 0.05,0.11 0.05,0.09 0.09,0.15 0.14,0.19 0.06,0.06 0.13,0.08 0.2,0.07 0.12,-0.01 0.19,-0.13 0.21,-0.35 0.02,-0.19 -0.01,-0.46 -0.07,-0.81z"/>
  <path class="fil0" d="M8.06 6.76c-0.02,0.02 -0.03,0.05 -0.04,0.08 -0.02,0.04 -0.04,0.1 -0.07,0.17l-0.02 0.04 -0.02 0.04c-0.01,0.03 -0.02,0.06 -0.04,0.08 -0.02,0.03 -0.03,0.06 -0.05,0.08 -0.02,0.03 -0.05,0.05 -0.07,0.05 0.02,-0.02 0.04,-0.04 0.06,-0.06 0.01,-0.02 0.02,-0.05 0.04,-0.08 0.01,-0.02 0.02,-0.05 0.03,-0.09l0.03 -0.09c0.03,-0.07 0.05,-0.13 0.08,-0.17 0.02,-0.03 0.04,-0.06 0.05,-0.08 0.03,-0.03 0.05,-0.04 0.07,-0.04 -0.02,0.01 -0.04,0.03 -0.07,0.06zm-0.69 1.47c-0.02,0.02 -0.04,0.04 -0.05,0.05 -0.04,0.04 -0.07,0.08 -0.08,0.11 -0.01,0.02 -0.02,0.05 -0.03,0.07 -0,0.02 -0.01,0.04 -0.01,0.07 -0,-0.02 -0.01,-0.05 -0,-0.08 0,-0.02 0.01,-0.05 0.02,-0.07 0.02,-0.04 0.04,-0.08 0.08,-0.12 0.03,-0.03 0.06,-0.06 0.1,-0.1l0.03 -0.02 0.03 -0.02c0.02,-0.02 0.04,-0.03 0.05,-0.05 -0.02,0.03 -0.05,0.07 -0.09,0.11l-0.05 0.05zm-0.41 -1.18c-0.01,0.02 -0.02,0.05 -0.02,0.08 -0,0.03 -0,0.05 0,0.08 -0.01,-0.03 -0.02,-0.05 -0.02,-0.08 -0,-0.03 0,-0.06 0.02,-0.09 0.01,-0.03 0.03,-0.05 0.06,-0.07 0.02,-0.02 0.05,-0.02 0.08,-0.02 -0.05,0.02 -0.09,0.05 -0.11,0.1zm1.14 -0.46c-0.06,0.01 -0.11,0.04 -0.15,0.11 -0.03,0.05 -0.07,0.12 -0.11,0.21l-0.02 0.06 -0.01 0.03 -0.01 0.03c-0.02,0.04 -0.03,0.07 -0.04,0.09 -0.03,0.06 -0.05,0.09 -0.07,0.1 -0.02,0 -0.07,-0.03 -0.15,-0.1l-0.01 -0.01 -0.01 -0.01c-0.01,-0.01 -0.02,-0.02 -0.03,-0.02 -0.02,-0.02 -0.04,-0.04 -0.06,-0.05 -0.05,-0.04 -0.1,-0.08 -0.15,-0.11 -0.08,-0.05 -0.15,-0.07 -0.23,-0.06 -0.07,0.01 -0.12,0.04 -0.17,0.1 -0.04,0.06 -0.06,0.12 -0.06,0.2 -0,0.08 0.03,0.16 0.08,0.23 0.04,0.05 0.09,0.1 0.16,0.16 0.03,0.02 0.05,0.04 0.09,0.07l0.04 0.03 0.04 0.03c0.07,0.05 0.12,0.09 0.15,0.12 0.04,0.04 0.07,0.08 0.08,0.11 0.01,0.04 -0.01,0.08 -0.05,0.13 -0.01,0.02 -0.04,0.04 -0.06,0.07l-0.02 0.02 -0.02 0.02 -0.04 0.04c-0.06,0.06 -0.11,0.12 -0.14,0.17 -0.04,0.07 -0.06,0.15 -0.05,0.23 0.01,0.06 0.03,0.12 0.06,0.17 0.03,0.05 0.07,0.09 0.12,0.11 0.11,0.06 0.24,0.05 0.39,-0.02 0.19,-0.1 0.37,-0.32 0.53,-0.66 0.14,-0.31 0.22,-0.59 0.23,-0.86 0.01,-0.27 -0.01,-0.46 -0.08,-0.58 -0.06,-0.1 -0.14,-0.14 -0.24,-0.12zm1.45 0.7c-0.01,0.03 -0.02,0.06 -0.04,0.08 -0.02,0.03 -0.04,0.05 -0.06,0.06 -0.03,0.02 -0.05,0.02 -0.08,0.02 0.03,-0.01 0.05,-0.02 0.07,-0.04 0.02,-0.02 0.04,-0.04 0.05,-0.06 0.03,-0.04 0.05,-0.1 0.06,-0.16 0.01,0.03 0.01,0.06 0,0.09zm-0.27 -0.09c0.01,-0.03 0.03,-0.06 0.05,-0.07 0.02,-0.02 0.04,-0.02 0.06,-0.01 0.02,0.01 0.04,0.03 0.04,0.05 0.01,0.03 0.01,0.06 -0,0.09 -0.01,0.03 -0.02,0.06 -0.05,0.07 -0.02,0.02 -0.04,0.02 -0.06,0.01 -0.02,-0.01 -0.04,-0.03 -0.04,-0.05 -0.01,-0.03 -0.01,-0.06 0,-0.09zm-0.3 -0.56c-0.06,0.04 -0.1,0.09 -0.14,0.15 -0.03,0.05 -0.06,0.12 -0.08,0.2 -0.02,0.06 -0.03,0.13 -0.04,0.22 -0,-0.03 -0,-0.07 0,-0.11 0,-0.04 0.01,-0.08 0.02,-0.11 0.02,-0.08 0.04,-0.15 0.08,-0.21 0.04,-0.07 0.09,-0.12 0.15,-0.15 0.03,-0.02 0.06,-0.03 0.1,-0.05 0.04,-0.01 0.07,-0.02 0.1,-0.02 -0.07,0.02 -0.14,0.05 -0.19,0.09zm0.23 -0.21c-0.18,0.03 -0.33,0.1 -0.43,0.23 -0.09,0.12 -0.15,0.27 -0.16,0.45 -0.02,0.17 0,0.35 0.05,0.55 0.05,0.19 0.12,0.36 0.21,0.51 0.09,0.15 0.18,0.26 0.28,0.33 0.08,0.06 0.16,0.09 0.24,0.09 0.07,-0 0.12,-0.03 0.16,-0.09 0.04,-0.06 0.06,-0.13 0.06,-0.21 -0,-0.06 -0.01,-0.12 -0.03,-0.2 -0.01,-0.02 -0.02,-0.05 -0.03,-0.09l-0.01 -0.04c-0.01,-0.01 -0.01,-0.03 -0.01,-0.04 -0.02,-0.06 -0.02,-0.1 -0.02,-0.14 0.01,-0.04 0.03,-0.08 0.07,-0.11 0.14,-0.1 0.23,-0.23 0.29,-0.38 0.05,-0.15 0.06,-0.29 0.02,-0.43 -0.04,-0.15 -0.11,-0.26 -0.23,-0.34 -0.12,-0.09 -0.27,-0.12 -0.45,-0.1zm1.25 -0.04c-0.06,0.02 -0.11,0.04 -0.15,0.06 -0.06,0.03 -0.1,0.06 -0.14,0.09 -0.02,0.02 -0.04,0.04 -0.05,0.06 -0.01,0.02 -0.02,0.05 -0.01,0.08 -0.01,-0.03 -0.01,-0.06 -0,-0.09 0.01,-0.02 0.02,-0.05 0.05,-0.08 0.03,-0.03 0.08,-0.07 0.14,-0.1 0.1,-0.05 0.2,-0.07 0.32,-0.08 -0.06,0.02 -0.11,0.03 -0.16,0.04zm0.24 -0.17c-0.23,0.02 -0.4,0.07 -0.53,0.16 -0.14,0.09 -0.19,0.2 -0.16,0.33 0.02,0.07 0.05,0.12 0.11,0.15 0.04,0.02 0.1,0.03 0.17,0.02l0.05 -0 0.04 -0c0.04,-0 0.06,-0 0.08,0 0.06,0 0.1,0.02 0.11,0.06 0.01,0.02 0.02,0.15 0.03,0.39 0.01,0.12 0.01,0.23 0.02,0.31 0.01,0.12 0.03,0.23 0.05,0.31 0.03,0.13 0.09,0.24 0.18,0.31 0.09,0.08 0.19,0.1 0.29,0.07 0.19,-0.06 0.23,-0.28 0.12,-0.67 -0.06,-0.2 -0.1,-0.38 -0.12,-0.53 -0.03,-0.16 -0.03,-0.25 0,-0.28 0.02,-0.02 0.05,-0.03 0.1,-0.04 0.02,-0 0.04,-0.01 0.07,-0.01l0.04 -0 0.04 -0.01c0.06,-0.01 0.1,-0.03 0.14,-0.05 0.04,-0.03 0.07,-0.07 0.07,-0.13 0.01,-0.07 -0.01,-0.13 -0.06,-0.19 -0.04,-0.05 -0.11,-0.09 -0.2,-0.13 -0.18,-0.07 -0.39,-0.09 -0.65,-0.07zm2.5 0.1c-0.03,0.06 -0.06,0.1 -0.09,0.14 -0.04,0.05 -0.08,0.09 -0.12,0.11 0.03,-0.03 0.07,-0.07 0.1,-0.13 0.03,-0.04 0.06,-0.09 0.08,-0.14 0.01,-0.03 0.03,-0.05 0.04,-0.07l0.01 -0.02 0.01 -0.02c0.01,-0.02 0.01,-0.03 0.02,-0.04 0.02,-0.03 0.03,-0.05 0.06,-0.06 0.03,-0.02 0.05,-0.03 0.08,-0.03 -0.05,0.01 -0.08,0.05 -0.11,0.1 -0.01,0.01 -0.01,0.02 -0.02,0.04l-0.01 0.02 -0.01 0.02c-0.01,0.02 -0.02,0.05 -0.04,0.08zm-0.59 -0.25c-0.02,0.02 -0.03,0.04 -0.04,0.06 -0.02,0.04 -0.04,0.08 -0.05,0.14 -0.01,0.04 -0.02,0.09 -0.03,0.16l-0.01 0.08 -0.01 0.08c-0,-0.06 -0,-0.12 -0,-0.16 0,-0.06 0.01,-0.11 0.02,-0.16 0.01,-0.06 0.03,-0.11 0.06,-0.15 0.02,-0.02 0.03,-0.04 0.05,-0.06 0.02,-0.02 0.05,-0.02 0.07,-0.03 -0.02,0.01 -0.04,0.02 -0.06,0.04zm0.75 0.78c-0.04,-0.02 -0.05,-0.04 -0.04,-0.06 0.01,-0.01 0.02,-0.02 0.04,-0.03l0.01 -0.01 0.02 -0.01c0.01,-0.01 0.03,-0.02 0.03,-0.02 0.06,-0.05 0.11,-0.1 0.15,-0.14 0.05,-0.07 0.09,-0.15 0.1,-0.24 0.01,-0.08 -0,-0.16 -0.04,-0.23 -0.03,-0.06 -0.08,-0.11 -0.15,-0.13 -0.06,-0.02 -0.12,-0.02 -0.18,0.01 -0.07,0.03 -0.12,0.09 -0.16,0.18 -0.06,0.15 -0.13,0.26 -0.2,0.32 -0.03,0.03 -0.05,0.03 -0.06,0.03 -0.01,-0.01 -0.01,-0.03 -0,-0.07 0.04,-0.16 0.05,-0.28 0.01,-0.37 -0.03,-0.07 -0.09,-0.12 -0.17,-0.12 -0.16,-0.02 -0.27,0.09 -0.33,0.31 -0.04,0.18 -0.05,0.43 -0.03,0.75 0.03,0.32 0.08,0.58 0.16,0.77 0.09,0.23 0.21,0.33 0.36,0.3 0.13,-0.03 0.2,-0.14 0.19,-0.36 -0,-0.07 -0.01,-0.15 -0.03,-0.24 -0.01,-0.03 -0.02,-0.06 -0.02,-0.09 -0,-0.01 -0.01,-0.02 -0.01,-0.04l-0 -0.01 -0 -0.01 -0 -0c-0.01,-0.03 -0.01,-0.05 0,-0.06 0.01,-0.01 0.03,-0.01 0.05,0.01 0.06,0.04 0.12,0.15 0.19,0.32 0.05,0.11 0.1,0.2 0.17,0.27 0.06,0.06 0.12,0.1 0.19,0.11 0.06,0.01 0.12,0 0.18,-0.03 0.06,-0.03 0.1,-0.09 0.13,-0.15 0.03,-0.08 0.05,-0.16 0.03,-0.25 -0.01,-0.09 -0.04,-0.17 -0.09,-0.26 -0.11,-0.18 -0.28,-0.32 -0.5,-0.41zm1.61 0.26c-0.01,0.03 -0.03,0.05 -0.06,0.07 -0.03,0.02 -0.05,0.03 -0.08,0.02 0.06,-0.02 0.09,-0.05 0.11,-0.11 0.01,-0.02 0.02,-0.05 0.02,-0.08 0,-0.03 -0,-0.06 -0.01,-0.09 0.02,0.03 0.02,0.06 0.03,0.09 0,0.03 -0,0.06 -0.01,0.09zm-0.26 -0.08c-0.02,-0.03 -0.03,-0.05 -0.03,-0.08 -0,-0.03 0.01,-0.05 0.03,-0.06 0.02,-0.01 0.04,-0.02 0.07,-0.01 0.03,0.01 0.05,0.03 0.07,0.05 0.02,0.03 0.03,0.06 0.03,0.08 0,0.03 -0.01,0.05 -0.03,0.06 -0.02,0.01 -0.04,0.02 -0.06,0.01 -0.03,-0.01 -0.05,-0.03 -0.07,-0.06zm-0.31 -1.22c-0.02,0.01 -0.03,0.03 -0.05,0.05 -0.03,0.03 -0.05,0.07 -0.08,0.12 -0.02,0.03 -0.04,0.08 -0.06,0.13 -0.01,0.02 -0.02,0.04 -0.03,0.07l-0.03 0.07c0.01,-0.06 0.02,-0.11 0.04,-0.15 0.02,-0.05 0.04,-0.1 0.06,-0.14 0.03,-0.05 0.06,-0.09 0.09,-0.12 0.04,-0.04 0.08,-0.06 0.13,-0.07 -0.02,0.01 -0.04,0.02 -0.06,0.03zm0.46 0.67c-0.05,-0.01 -0.08,-0.03 -0.1,-0.07 -0.01,-0.03 -0.02,-0.07 -0.02,-0.14 0,-0.01 0,-0.03 0,-0.04l0 -0.04c0,-0.04 0,-0.07 0,-0.09 -0,-0.08 -0.01,-0.15 -0.02,-0.2 -0.02,-0.08 -0.06,-0.14 -0.12,-0.19 -0.06,-0.04 -0.12,-0.06 -0.18,-0.04 -0.07,0.02 -0.14,0.07 -0.2,0.16 -0.07,0.1 -0.13,0.23 -0.17,0.4 -0.05,0.17 -0.06,0.36 -0.06,0.55 0.01,0.2 0.05,0.38 0.11,0.54 0.07,0.17 0.17,0.3 0.29,0.39 0.14,0.09 0.3,0.13 0.48,0.1 0.17,-0.03 0.31,-0.11 0.41,-0.24 0.09,-0.12 0.13,-0.26 0.13,-0.41 -0,-0.16 -0.05,-0.3 -0.14,-0.42 -0.1,-0.13 -0.24,-0.21 -0.41,-0.24zm0.47 -0.77c-0.01,0.02 -0.02,0.04 -0.03,0.06 -0,0.02 -0,0.05 -0,0.07 0,0.04 0.01,0.09 0.03,0.15l0.02 0.07 0.02 0.07c-0.03,-0.05 -0.05,-0.1 -0.07,-0.14 -0.02,-0.06 -0.04,-0.11 -0.04,-0.15 -0,-0.03 -0,-0.06 0,-0.08 0.01,-0.03 0.02,-0.05 0.03,-0.07 0.03,-0.04 0.08,-0.06 0.13,-0.06 -0.05,0.01 -0.09,0.04 -0.11,0.07zm0.49 0.01c-0.05,-0.07 -0.11,-0.13 -0.18,-0.16 -0.06,-0.03 -0.13,-0.04 -0.19,-0.04 -0.06,0 -0.12,0.02 -0.16,0.06 -0.05,0.03 -0.08,0.08 -0.1,0.13 -0.03,0.1 -0.01,0.24 0.07,0.41 0.01,0.03 0.03,0.06 0.05,0.11l0.03 0.06 0.03 0.05c0.04,0.09 0.06,0.16 0.08,0.22 0.04,0.14 0.07,0.29 0.09,0.44 0.01,0.05 0.01,0.11 0.02,0.17l0 0.04 0 0.04c0,0.03 0,0.05 0.01,0.07 0.01,0.09 0.03,0.16 0.04,0.2 0.02,0.05 0.06,0.07 0.12,0.08 0.1,0.01 0.18,-0.06 0.24,-0.21 0.05,-0.14 0.08,-0.32 0.09,-0.54 0.01,-0.22 -0.01,-0.43 -0.05,-0.63 -0.04,-0.22 -0.1,-0.38 -0.17,-0.49zm0.91 -0.27l-0.03 0.01c-0.01,0 -0.02,0.01 -0.02,0.01 -0.01,0 -0.01,0.01 -0.02,0.01l-0.01 0.01 -0.01 0.01 -0.02 0.02c-0.01,0.01 -0.01,0.01 -0.02,0.02 -0.05,0.05 -0.09,0.11 -0.12,0.19 -0.03,0.06 -0.06,0.13 -0.08,0.22 -0.02,0.06 -0.04,0.13 -0.06,0.23 0.01,-0.08 0.02,-0.15 0.04,-0.23 0.02,-0.08 0.05,-0.15 0.08,-0.22 0.04,-0.08 0.08,-0.14 0.13,-0.19 0.06,-0.06 0.13,-0.09 0.2,-0.1l-0.05 0.02zm0.94 0.54c-0.13,-0.24 -0.28,-0.42 -0.45,-0.55 -0.18,-0.13 -0.35,-0.16 -0.52,-0.12 -0.14,0.04 -0.25,0.16 -0.34,0.36 -0.09,0.19 -0.14,0.41 -0.15,0.67 -0.02,0.29 0.02,0.55 0.09,0.78 0.04,0.11 0.08,0.2 0.13,0.27 0.06,0.07 0.12,0.11 0.18,0.11 0.1,0 0.17,-0.05 0.22,-0.15 0.04,-0.08 0.06,-0.2 0.07,-0.35 0,-0.03 0,-0.06 0.01,-0.1l0 -0.05 0 -0.05c0,-0.08 0.01,-0.14 0.01,-0.17 0.01,-0.12 0.03,-0.18 0.07,-0.19 0.03,-0.01 0.05,-0 0.08,0.03 0.02,0.03 0.05,0.07 0.08,0.13 0.01,0.02 0.03,0.05 0.04,0.09l0.02 0.05 0.03 0.05c0.04,0.08 0.08,0.15 0.11,0.2 0.08,0.13 0.17,0.22 0.26,0.26 0.08,0.04 0.16,0.03 0.22,-0.03 0.04,-0.04 0.06,-0.1 0.08,-0.18 0.01,-0.08 0.01,-0.17 0,-0.28 -0.03,-0.24 -0.11,-0.5 -0.26,-0.77zm1.3 0.52c-0.01,0.03 -0.03,0.05 -0.06,0.07 -0.03,0.02 -0.05,0.03 -0.08,0.02 0.06,-0.02 0.09,-0.05 0.11,-0.11 0.01,-0.02 0.02,-0.05 0.02,-0.08 0,-0.03 -0,-0.06 -0.01,-0.09 0.02,0.03 0.02,0.06 0.03,0.09 0,0.03 -0,0.06 -0.01,0.09zm-0.26 -0.08c-0.02,-0.03 -0.03,-0.05 -0.03,-0.08 -0,-0.03 0.01,-0.05 0.03,-0.06 0.02,-0.01 0.04,-0.01 0.07,-0 0.03,0.01 0.05,0.03 0.07,0.05 0.02,0.03 0.03,0.06 0.03,0.08 0,0.03 -0.01,0.05 -0.03,0.06 -0.02,0.01 -0.04,0.02 -0.06,0.01 -0.03,-0.01 -0.05,-0.03 -0.07,-0.06zm-0.31 -1.22c-0.02,0.01 -0.03,0.03 -0.05,0.05 -0.03,0.03 -0.05,0.07 -0.08,0.12 -0.02,0.03 -0.04,0.08 -0.06,0.13 -0.01,0.02 -0.02,0.04 -0.03,0.07l-0.03 0.07c0.01,-0.06 0.02,-0.11 0.04,-0.15 0.02,-0.05 0.04,-0.1 0.06,-0.14 0.03,-0.05 0.06,-0.09 0.09,-0.12 0.04,-0.04 0.08,-0.06 0.13,-0.07 -0.02,0.01 -0.04,0.02 -0.06,0.03zm0.46 0.67c-0.05,-0.01 -0.08,-0.03 -0.1,-0.07 -0.01,-0.03 -0.02,-0.07 -0.02,-0.14 0,-0.01 0,-0.03 0,-0.04l0 -0.04c0,-0.04 0,-0.07 0,-0.09 -0,-0.08 -0.01,-0.15 -0.02,-0.2 -0.02,-0.08 -0.06,-0.14 -0.12,-0.19 -0.06,-0.04 -0.12,-0.06 -0.18,-0.04 -0.07,0.02 -0.14,0.07 -0.2,0.16 -0.07,0.1 -0.13,0.23 -0.17,0.4 -0.05,0.17 -0.06,0.36 -0.06,0.55 0.01,0.2 0.05,0.38 0.11,0.54 0.07,0.17 0.17,0.3 0.29,0.39 0.14,0.09 0.3,0.13 0.48,0.1 0.17,-0.03 0.31,-0.11 0.41,-0.24 0.09,-0.12 0.13,-0.26 0.13,-0.41 -0,-0.16 -0.05,-0.3 -0.14,-0.42 -0.1,-0.13 -0.24,-0.21 -0.41,-0.24zm0.47 -0.77c-0.01,0.02 -0.02,0.04 -0.03,0.06 -0,0.02 -0,0.05 -0,0.07 0,0.04 0.01,0.09 0.03,0.15l0.02 0.07 0.02 0.07c-0.03,-0.05 -0.05,-0.1 -0.07,-0.14 -0.02,-0.06 -0.04,-0.11 -0.04,-0.15 -0,-0.03 -0,-0.06 0,-0.08 0.01,-0.03 0.02,-0.05 0.03,-0.07 0.03,-0.04 0.08,-0.06 0.13,-0.06 -0.05,0.01 -0.09,0.04 -0.11,0.07zm0.49 0.01c-0.05,-0.07 -0.11,-0.13 -0.18,-0.16 -0.06,-0.03 -0.13,-0.04 -0.19,-0.04 -0.06,0 -0.12,0.02 -0.16,0.06 -0.05,0.03 -0.08,0.08 -0.1,0.13 -0.03,0.1 -0.01,0.24 0.07,0.41 0.01,0.03 0.03,0.06 0.05,0.11l0.03 0.06 0.03 0.05c0.04,0.09 0.06,0.16 0.08,0.22 0.04,0.14 0.07,0.29 0.09,0.44 0.01,0.05 0.01,0.11 0.02,0.17l0 0.04 0 0.04c0,0.03 0,0.05 0.01,0.07 0.01,0.09 0.03,0.16 0.04,0.2 0.02,0.05 0.06,0.07 0.12,0.08 0.1,0.01 0.18,-0.06 0.24,-0.21 0.05,-0.14 0.08,-0.32 0.09,-0.54 0.01,-0.22 -0.01,-0.43 -0.05,-0.63 -0.04,-0.22 -0.1,-0.38 -0.17,-0.49zm1.43 -0.32c-0.01,0.01 -0.02,0.02 -0.03,0.04 -0.01,0.02 -0.02,0.06 -0.02,0.1 -0,0.06 0,0.13 0.02,0.21l0 0.03 0 0.03c0,0.02 0.01,0.04 0.01,0.06 0,0.04 -0,0.08 -0.01,0.11 -0.01,0.04 -0.02,0.07 -0.05,0.1 -0.02,0.03 -0.05,0.05 -0.08,0.07 0.06,-0.04 0.09,-0.1 0.11,-0.17 0.01,-0.04 0.01,-0.07 0,-0.11 -0,-0.01 -0,-0.03 -0.01,-0.05l-0.01 -0.03 -0 -0.03c-0.01,-0.09 -0.02,-0.16 -0.01,-0.22 0,-0.05 0.02,-0.08 0.03,-0.11 0.01,-0.02 0.02,-0.03 0.04,-0.04 0.01,-0.01 0.03,-0.01 0.05,-0.01 -0.02,0.01 -0.03,0.01 -0.05,0.02zm-0.92 0.17c-0.03,0.04 -0.04,0.09 -0.05,0.15 -0.01,0.05 -0.01,0.1 -0.02,0.16l-0.01 0.08 -0.01 0.08c-0.01,-0.11 -0.01,-0.22 0.01,-0.33 0.01,-0.06 0.03,-0.11 0.06,-0.16 0.02,-0.02 0.04,-0.04 0.06,-0.06 0.03,-0.01 0.05,-0.02 0.07,-0.02 -0.05,0.01 -0.09,0.04 -0.12,0.09zm0.94 -0.31c-0.09,0.02 -0.15,0.08 -0.18,0.17 -0.03,0.09 -0.02,0.22 0.01,0.39 0.01,0.08 0.01,0.13 -0.02,0.18 -0.02,0.04 -0.06,0.06 -0.1,0.06 -0.05,0 -0.08,-0.01 -0.11,-0.05 -0.03,-0.04 -0.04,-0.08 -0.05,-0.15 -0.01,-0.18 -0.04,-0.31 -0.11,-0.39 -0.06,-0.07 -0.14,-0.11 -0.24,-0.11 -0.08,-0 -0.16,0.03 -0.21,0.09 -0.06,0.06 -0.09,0.14 -0.11,0.24 -0.03,0.19 -0.03,0.42 0.01,0.67 0.03,0.25 0.09,0.47 0.17,0.69 0.06,0.16 0.14,0.27 0.23,0.33 0.07,0.05 0.15,0.06 0.23,0.04 0.17,-0.05 0.23,-0.21 0.18,-0.45 -0.04,-0.18 -0.02,-0.28 0.07,-0.29 0.04,-0.01 0.08,0.01 0.1,0.04 0.04,0.04 0.06,0.11 0.07,0.21 0.02,0.17 0.06,0.29 0.13,0.37 0.06,0.07 0.14,0.1 0.24,0.09 0.16,-0.02 0.26,-0.15 0.29,-0.38 0.02,-0.17 0.01,-0.44 -0.03,-0.8 -0.03,-0.29 -0.1,-0.52 -0.2,-0.7 -0.11,-0.19 -0.22,-0.27 -0.35,-0.24zm2.29 1.12c-0.01,0.04 -0.03,0.06 -0.06,0.08 -0.03,0.02 -0.06,0.03 -0.09,0.03 0.03,-0.01 0.06,-0.03 0.08,-0.05 0.02,-0.02 0.04,-0.05 0.05,-0.08 0.02,-0.06 0.01,-0.12 -0.01,-0.19 0.02,0.03 0.03,0.06 0.04,0.09 0.01,0.04 0.01,0.07 -0,0.11zm-0.27 -0.05c-0.02,-0.03 -0.03,-0.05 -0.03,-0.08 -0,-0.03 0.01,-0.05 0.02,-0.07 0.02,-0.01 0.04,-0.02 0.06,-0.01 0.03,0.01 0.05,0.03 0.07,0.05 0.02,0.03 0.03,0.06 0.03,0.08 0,0.03 -0.01,0.05 -0.02,0.07 -0.02,0.01 -0.04,0.02 -0.06,0.01 -0.03,-0.01 -0.05,-0.03 -0.07,-0.05zm-0.21 -0.6c0.02,-0.01 0.04,-0.02 0.06,-0.03 0.02,-0.02 0.03,-0.03 0.04,-0.05 0.01,-0.02 0.02,-0.04 0.03,-0.06 0.01,-0.02 0.01,-0.04 0.02,-0.07 0.01,0.05 0,0.1 -0.03,0.15 -0.02,0.02 -0.03,0.04 -0.05,0.05 -0.02,0.01 -0.05,0.02 -0.07,0.02zm-0.06 -0.21c0.01,-0.02 0.02,-0.04 0.03,-0.05 0.01,-0.01 0.03,-0.01 0.04,-0.01 0.01,0.01 0.02,0.02 0.03,0.04 0,0.02 0,0.04 -0,0.06 -0.01,0.02 -0.02,0.04 -0.03,0.05 -0.01,0.01 -0.03,0.01 -0.04,0.01 -0.01,-0.01 -0.02,-0.02 -0.03,-0.04 -0,-0.02 -0,-0.04 0,-0.06zm-0.27 -0.23c-0.02,0.03 -0.04,0.06 -0.05,0.1 -0.03,0.06 -0.05,0.14 -0.07,0.22 -0.01,0.07 -0.02,0.15 -0.03,0.24 -0,-0.08 -0,-0.16 0.01,-0.24 0.01,-0.08 0.03,-0.16 0.06,-0.23 0.04,-0.08 0.08,-0.15 0.13,-0.19 0.03,-0.03 0.07,-0.05 0.1,-0.06 0.04,-0.02 0.07,-0.02 0.11,-0.03 -0.07,0.02 -0.14,0.05 -0.19,0.11 -0.03,0.03 -0.05,0.06 -0.07,0.09zm0.68 0.48c-0.02,-0 -0.02,-0.02 -0.02,-0.05 0,-0.01 0.01,-0.03 0.01,-0.05l0.01 -0.01 0.01 -0.01c0,-0.01 0.01,-0.02 0.01,-0.03 0.02,-0.06 0.03,-0.11 0.03,-0.16 0,-0.07 -0.01,-0.15 -0.03,-0.22 -0.02,-0.08 -0.08,-0.15 -0.16,-0.19 -0.08,-0.05 -0.18,-0.07 -0.27,-0.06 -0.11,0.01 -0.2,0.06 -0.28,0.14 -0.09,0.09 -0.16,0.23 -0.19,0.4 -0.04,0.18 -0.04,0.37 -0.02,0.57 0.02,0.2 0.08,0.38 0.16,0.55 0.09,0.18 0.2,0.3 0.33,0.38 0.15,0.09 0.31,0.11 0.5,0.07 0.18,-0.04 0.31,-0.12 0.4,-0.25 0.08,-0.12 0.12,-0.25 0.1,-0.4 -0.01,-0.15 -0.07,-0.29 -0.16,-0.41 -0.1,-0.13 -0.24,-0.22 -0.4,-0.26z"/>
  <path class="fil0" d="M25.09 5.63l-0.02 0.01c-0.02,0.01 -0.03,0.01 -0.04,0.02 -0.03,0.01 -0.06,0.02 -0.09,0.02 0.03,-0.01 0.05,-0.02 0.08,-0.04l0.02 -0.01 0.02 -0.01c0.02,-0.01 0.03,-0.02 0.04,-0.02 0.03,-0.02 0.06,-0.03 0.08,-0.03 0.03,-0.01 0.06,-0.01 0.09,-0.01 -0.05,0.02 -0.1,0.04 -0.16,0.07l-0.02 0.01zm-0.6 -1.33c-0.04,0.02 -0.08,0.04 -0.11,0.07 -0.04,0.03 -0.07,0.06 -0.09,0.1 -0.02,0.03 -0.04,0.07 -0.06,0.12 -0.02,0.07 -0.04,0.16 -0.05,0.27 -0,0.04 -0.01,0.09 -0.01,0.14 -0,0.02 -0,0.04 -0,0.07l0 0.07c-0.01,-0.1 -0.02,-0.19 -0.01,-0.28 0,-0.1 0.02,-0.2 0.05,-0.27 0.02,-0.05 0.04,-0.09 0.06,-0.13 0.03,-0.04 0.06,-0.07 0.1,-0.09 0.03,-0.03 0.07,-0.05 0.11,-0.06 0.04,-0.02 0.08,-0.02 0.12,-0.03 -0.05,0.01 -0.09,0.02 -0.12,0.04zm0.38 0.75l0.01 -0c0.01,-0 0.02,-0.01 0.02,-0.01 0.02,-0.01 0.03,-0.01 0.05,-0.01 0.02,0 0.03,0.01 0.04,0.02 -0.01,-0 -0.03,-0 -0.04,0 -0.01,0 -0.03,0.01 -0.04,0.01l-0.01 0 -0.01 0c-0.01,0 -0.02,0.01 -0.02,0.01 -0.02,0 -0.03,0 -0.05,0l0.02 -0.01 0.02 -0.01 0.01 -0.01zm0.13 0.47c-0.04,0.03 -0.08,0.04 -0.12,0.03 -0.03,-0.01 -0.05,-0.03 -0.06,-0.05 -0.01,-0.03 -0.01,-0.06 -0,-0.08 0.01,-0.03 0.03,-0.05 0.07,-0.06 0.1,-0.02 0.16,-0.06 0.2,-0.12 0.04,-0.05 0.05,-0.11 0.04,-0.17 -0.01,-0.06 -0.05,-0.1 -0.1,-0.13 -0.06,-0.02 -0.12,-0.02 -0.19,0.01 -0.06,0.03 -0.1,0.01 -0.12,-0.04 -0.01,-0.02 -0.01,-0.04 -0.01,-0.07 0,-0.02 0.01,-0.05 0.03,-0.06 0.02,-0.02 0.06,-0.04 0.11,-0.06 0.02,-0.01 0.04,-0.01 0.07,-0.02l0.04 -0.01 0.04 -0.01c0.06,-0.01 0.11,-0.03 0.14,-0.05 0.04,-0.03 0.07,-0.07 0.08,-0.11 0.02,-0.08 -0.01,-0.16 -0.08,-0.23 -0.07,-0.07 -0.16,-0.12 -0.27,-0.14 -0.12,-0.03 -0.24,-0.03 -0.35,0.01 -0.13,0.04 -0.23,0.11 -0.31,0.22 -0.07,0.1 -0.12,0.25 -0.13,0.44 -0.01,0.18 -0,0.37 0.04,0.58 0.04,0.21 0.1,0.39 0.17,0.54 0.08,0.17 0.17,0.27 0.26,0.32 0.09,0.05 0.2,0.06 0.33,0.04 0.11,-0.02 0.22,-0.07 0.33,-0.14 0.1,-0.07 0.19,-0.15 0.25,-0.24 0.06,-0.1 0.09,-0.19 0.08,-0.27 -0.02,-0.11 -0.07,-0.18 -0.16,-0.21 -0.09,-0.02 -0.21,0.01 -0.36,0.09zm1.47 -0.75c-0.01,0.03 -0.02,0.06 -0.04,0.08 -0.02,0.03 -0.04,0.05 -0.06,0.06 -0.03,0.02 -0.05,0.02 -0.08,0.02 0.03,-0.01 0.05,-0.02 0.07,-0.04 0.02,-0.02 0.04,-0.04 0.05,-0.06 0.03,-0.04 0.05,-0.1 0.06,-0.16 0.01,0.03 0.01,0.06 0,0.09zm-0.27 -0.09c0.01,-0.03 0.03,-0.06 0.05,-0.07 0.02,-0.02 0.04,-0.02 0.06,-0.01 0.02,0.01 0.04,0.03 0.04,0.05 0.01,0.03 0.01,0.06 -0,0.09 -0.01,0.03 -0.02,0.06 -0.05,0.07 -0.02,0.02 -0.04,0.02 -0.06,0.01 -0.02,-0.01 -0.04,-0.03 -0.04,-0.05 -0.01,-0.03 -0.01,-0.06 0,-0.09zm-0.3 -0.56c-0.06,0.04 -0.1,0.09 -0.14,0.15 -0.03,0.05 -0.06,0.12 -0.08,0.2 -0.02,0.06 -0.03,0.13 -0.04,0.22 -0,-0.03 -0,-0.07 0,-0.11 0,-0.04 0.01,-0.08 0.02,-0.11 0.02,-0.08 0.04,-0.14 0.08,-0.21 0.04,-0.07 0.09,-0.12 0.15,-0.15 0.03,-0.02 0.06,-0.03 0.1,-0.05 0.04,-0.01 0.07,-0.02 0.1,-0.02 -0.07,0.02 -0.14,0.05 -0.19,0.09zm0.23 -0.21c-0.18,0.03 -0.33,0.1 -0.43,0.23 -0.09,0.12 -0.15,0.27 -0.16,0.45 -0.02,0.17 0,0.35 0.05,0.55 0.05,0.19 0.12,0.36 0.21,0.51 0.09,0.15 0.18,0.26 0.28,0.33 0.08,0.06 0.16,0.09 0.24,0.09 0.07,-0 0.12,-0.03 0.16,-0.09 0.04,-0.06 0.06,-0.13 0.06,-0.21 -0,-0.06 -0.01,-0.12 -0.03,-0.2 -0.01,-0.02 -0.02,-0.05 -0.03,-0.09l-0.01 -0.04c-0.01,-0.01 -0.01,-0.03 -0.01,-0.04 -0.02,-0.06 -0.02,-0.1 -0.02,-0.14 0.01,-0.04 0.03,-0.08 0.07,-0.11 0.14,-0.1 0.23,-0.23 0.29,-0.38 0.05,-0.15 0.06,-0.29 0.02,-0.43 -0.04,-0.15 -0.11,-0.26 -0.23,-0.34 -0.12,-0.09 -0.27,-0.12 -0.45,-0.1zm1.9 1.08c-0.02,0.02 -0.03,0.03 -0.05,0.04 -0.02,0.01 -0.04,0.01 -0.07,0.01 0.04,-0.02 0.07,-0.04 0.1,-0.07 0.02,-0.03 0.04,-0.06 0.07,-0.11 0,0.05 -0.02,0.09 -0.05,0.13zm-0.16 -0.06c-0.02,-0.01 -0.04,-0.02 -0.05,-0.05 -0.01,-0.03 -0.01,-0.06 -0.01,-0.09 0.01,-0.03 0.02,-0.06 0.04,-0.08 0.02,-0.02 0.04,-0.02 0.06,-0.02 0.02,0.01 0.04,0.02 0.05,0.05 0.01,0.03 0.01,0.06 0.01,0.09 -0.01,0.03 -0.02,0.06 -0.04,0.08 -0.02,0.02 -0.04,0.02 -0.06,0.02zm-0.34 -0.77c-0.03,0.06 -0.06,0.13 -0.1,0.23 -0.01,0.03 -0.03,0.07 -0.04,0.12l-0.04 0.12c0.02,-0.08 0.04,-0.16 0.06,-0.24 0.03,-0.08 0.06,-0.16 0.09,-0.23 0.04,-0.09 0.08,-0.16 0.12,-0.21l0.02 -0.02c0.01,-0.01 0.01,-0.02 0.02,-0.02l0.02 -0.02 0.02 -0.02c0.04,-0.03 0.08,-0.05 0.11,-0.05 -0.03,0.01 -0.06,0.03 -0.1,0.06l-0.02 0.02 -0.02 0.02c-0.01,0.01 -0.01,0.01 -0.02,0.02l-0.02 0.03c-0.04,0.06 -0.08,0.13 -0.12,0.21zm0.3 -0.49c-0.12,-0 -0.24,0.11 -0.36,0.33 -0.11,0.2 -0.19,0.45 -0.26,0.74 -0.06,0.29 -0.09,0.55 -0.08,0.77 0.02,0.24 0.08,0.37 0.19,0.4 0.08,0.02 0.16,0.01 0.23,-0.04 0.05,-0.03 0.1,-0.09 0.15,-0.17 0.01,-0.02 0.02,-0.03 0.03,-0.05l0.03 -0.05c0.02,-0.04 0.04,-0.07 0.05,-0.09 0.04,-0.06 0.08,-0.1 0.11,-0.1 0.03,-0.01 0.08,0.02 0.14,0.06 0.02,0.01 0.04,0.04 0.08,0.07l0.04 0.04 0.04 0.04c0.07,0.06 0.14,0.09 0.19,0.11 0.07,0.02 0.14,0.01 0.2,-0.03 0.07,-0.05 0.1,-0.18 0.08,-0.4 -0.02,-0.2 -0.07,-0.43 -0.16,-0.68 -0.09,-0.26 -0.2,-0.47 -0.32,-0.64 -0.13,-0.19 -0.26,-0.29 -0.39,-0.29z"/>
  <path class="fil0" d="M2.22 5.66c-0.13,0.09 -0.33,0.16 -0.53,0.19 -0.58,0.09 -0.97,-0.25 -1.05,-0.82 -0.09,-0.62 0.25,-1.03 0.77,-1.11 0.23,-0.03 0.42,-0 0.56,0.04l0.05 -0.45c-0.12,-0.05 -0.36,-0.08 -0.68,-0.03 -0.82,0.12 -1.33,0.77 -1.2,1.65 0.12,0.79 0.68,1.3 1.56,1.17 0.33,-0.05 0.57,-0.15 0.68,-0.23l-0.15 -0.42z"/>
 </g>
</svg>
