<?xml version="1.0" encoding="UTF-8"?>
<!DOCTYPE svg PUBLIC "-//W3C//DTD SVG 1.1//EN" "http://www.w3.org/Graphics/SVG/1.1/DTD/svg11.dtd">
<!-- Creator: CorelDRAW 2019 (64-Bit) -->
<svg xmlns="http://www.w3.org/2000/svg" xml:space="preserve" width="2.81956cm" height="0.92511cm" version="1.1" style="shape-rendering:geometricPrecision; text-rendering:geometricPrecision; image-rendering:optimizeQuality; fill-rule:evenodd; clip-rule:evenodd"
viewBox="0 0 5.28 1.732"
 xmlns:xlink="http://www.w3.org/1999/xlink"
 xmlns:xodm="http://www.corel.com/coreldraw/odm/2003">
 <defs>
  <style type="text/css">
   <![CDATA[
    .fil0 {fill:#A39F6B;fill-rule:nonzero}
    .fil1 {fill:white;fill-rule:nonzero}
   ]]>
  </style>
 </defs>
 <g id="Слой_x0020_1">
  <metadata id="CorelCorpID_0Corel-Layer"/>
  <g id="_2230177183856">
   <path class="fil0" d="M0.358 0.653c-0.003,0 -0.008,0 -0.013,0.001l-0.007 0.001 -0.007 0c0.008,-0.007 0.017,-0.01 0.028,-0.01 0.006,0 0.01,0.001 0.015,0.003 0.005,0.002 0.009,0.005 0.012,0.01 -0.009,-0.003 -0.018,-0.004 -0.026,-0.004zm-0.226 -0.14c-0.006,0.007 -0.012,0.013 -0.017,0.019 -0.012,0.015 -0.022,0.029 -0.029,0.041 -0.009,0.015 -0.015,0.031 -0.02,0.047 -0.004,0.016 -0.006,0.034 -0.006,0.052l-0.002 -0.013 -0 -0.006 0 -0.007 0 -0.006 0 -0.007 0.001 -0.006 0.001 -0.007c0.003,-0.017 0.009,-0.034 0.018,-0.05 0.009,-0.015 0.019,-0.029 0.031,-0.041 0.006,-0.006 0.012,-0.012 0.019,-0.018l0.01 -0.008c0.004,-0.003 0.007,-0.005 0.01,-0.007l-0.009 0.009 -0.009 0.009zm0.039 -0.276c-0.007,0.003 -0.015,0.007 -0.022,0.012 -0.015,0.008 -0.028,0.018 -0.04,0.028 -0.013,0.01 -0.024,0.023 -0.035,0.036 -0.005,0.007 -0.01,0.014 -0.013,0.022 -0.004,0.008 -0.007,0.017 -0.008,0.025 -0.001,-0.015 0.005,-0.032 0.017,-0.05 0.009,-0.014 0.021,-0.027 0.034,-0.039 0.014,-0.012 0.028,-0.021 0.043,-0.028 0.008,-0.004 0.016,-0.007 0.023,-0.009 0.009,-0.003 0.017,-0.005 0.024,-0.006l-0.012 0.004c-0.005,0.002 -0.008,0.003 -0.012,0.005zm0.148 0.387c-0.022,0.009 -0.043,0.013 -0.062,0.012 -0.016,-0.001 -0.025,-0.005 -0.029,-0.012 -0.001,-0.003 -0.002,-0.006 -0.002,-0.01 -0,-0.005 0.001,-0.01 0.004,-0.015 0.006,-0.014 0.022,-0.029 0.046,-0.045 0.032,-0.021 0.058,-0.047 0.079,-0.079 0.021,-0.031 0.034,-0.063 0.04,-0.097 0.006,-0.035 0.004,-0.066 -0.008,-0.095 -0.012,-0.031 -0.034,-0.054 -0.064,-0.071 -0.036,-0.02 -0.075,-0.026 -0.116,-0.02 -0.036,0.005 -0.07,0.019 -0.103,0.042 -0.03,0.022 -0.053,0.047 -0.068,0.075 -0.015,0.029 -0.018,0.054 -0.01,0.076 0.008,0.021 0.024,0.034 0.046,0.038 0.023,0.004 0.052,-0.003 0.085,-0.019 0.018,-0.009 0.031,-0.015 0.039,-0.017 0.007,-0.001 0.013,-0 0.017,0.004 0.008,0.009 -0.002,0.022 -0.03,0.04 -0.052,0.033 -0.091,0.069 -0.117,0.108 -0.033,0.05 -0.043,0.103 -0.031,0.159 0.009,0.039 0.035,0.069 0.077,0.087 0.034,0.015 0.078,0.023 0.132,0.023 0.053,0 0.097,-0.008 0.131,-0.023 0.035,-0.016 0.055,-0.039 0.06,-0.068 0.003,-0.014 0.002,-0.029 -0.002,-0.043 -0.004,-0.015 -0.012,-0.027 -0.022,-0.038 -0.011,-0.011 -0.024,-0.018 -0.038,-0.02 -0.017,-0.003 -0.034,-0 -0.053,0.008zm0.413 -0.022c-0.004,0.01 -0.01,0.018 -0.017,0.023 -0.008,0.007 -0.016,0.01 -0.025,0.012 0.015,-0.008 0.027,-0.021 0.035,-0.039 0.006,-0.013 0.011,-0.031 0.013,-0.053 0.004,0.02 0.002,0.039 -0.006,0.057zm-0.051 0.003c-0.01,0.003 -0.019,0 -0.029,-0.009 -0.009,-0.01 -0.015,-0.023 -0.019,-0.039 -0.003,-0.017 -0.002,-0.032 0.002,-0.046 0.005,-0.014 0.012,-0.023 0.022,-0.026 0.01,-0.003 0.019,0 0.028,0.009 0.009,0.009 0.015,0.022 0.019,0.039 0.003,0.017 0.002,0.032 -0.002,0.046 -0.005,0.014 -0.012,0.023 -0.021,0.026zm-0.123 -0.312c-0.012,0.018 -0.022,0.039 -0.031,0.066 -0.007,0.021 -0.013,0.046 -0.017,0.073 0,-0.01 0.001,-0.022 0.004,-0.038 0.002,-0.012 0.005,-0.025 0.008,-0.037 0.007,-0.026 0.017,-0.049 0.03,-0.069 0.015,-0.023 0.032,-0.04 0.053,-0.05 0.011,-0.005 0.022,-0.01 0.033,-0.012 0.012,-0.002 0.024,-0.003 0.035,-0.002 -0.026,0.002 -0.048,0.009 -0.066,0.019 -0.019,0.012 -0.035,0.028 -0.049,0.05zm0.158 -0.099c-0.073,-0.015 -0.132,0.005 -0.175,0.06 -0.039,0.049 -0.06,0.116 -0.064,0.2 -0.003,0.082 0.01,0.156 0.041,0.223 0.033,0.072 0.079,0.115 0.136,0.129 0.054,0.013 0.102,-0.009 0.145,-0.065 0.039,-0.051 0.064,-0.117 0.076,-0.199 0.012,-0.084 0.006,-0.157 -0.019,-0.22 -0.028,-0.071 -0.075,-0.114 -0.14,-0.127zm0.54 0.459c-0.003,0 -0.008,0 -0.013,0.001l-0.007 0.001 -0.007 0c0.008,-0.007 0.017,-0.01 0.028,-0.01 0.006,0 0.01,0.001 0.015,0.003 0.005,0.002 0.009,0.005 0.012,0.01 -0.009,-0.003 -0.018,-0.004 -0.026,-0.004zm-0.226 -0.14c-0.006,0.007 -0.012,0.013 -0.017,0.019 -0.012,0.015 -0.022,0.029 -0.029,0.041 -0.009,0.015 -0.015,0.031 -0.02,0.047 -0.004,0.016 -0.006,0.034 -0.006,0.052l-0.002 -0.013 -0 -0.006 0 -0.007 0 -0.006 0 -0.007 0.001 -0.006 0.001 -0.007c0.003,-0.017 0.009,-0.034 0.018,-0.05 0.009,-0.015 0.019,-0.029 0.031,-0.041 0.006,-0.006 0.012,-0.012 0.019,-0.018l0.01 -0.008c0.004,-0.003 0.007,-0.005 0.01,-0.007l-0.009 0.009 -0.009 0.009zm0.039 -0.276c-0.007,0.003 -0.015,0.007 -0.022,0.012 -0.015,0.008 -0.028,0.018 -0.04,0.028 -0.013,0.01 -0.024,0.023 -0.035,0.036 -0.005,0.007 -0.01,0.014 -0.013,0.022 -0.004,0.008 -0.007,0.017 -0.008,0.025 -0.001,-0.015 0.005,-0.032 0.017,-0.05 0.009,-0.014 0.021,-0.027 0.034,-0.039 0.014,-0.012 0.028,-0.021 0.043,-0.028 0.008,-0.004 0.016,-0.007 0.023,-0.009 0.009,-0.003 0.017,-0.005 0.024,-0.006l-0.012 0.004c-0.005,0.002 -0.008,0.003 -0.012,0.005zm0.148 0.387c-0.022,0.009 -0.043,0.013 -0.062,0.012 -0.016,-0.001 -0.025,-0.005 -0.029,-0.012 -0.001,-0.003 -0.002,-0.006 -0.002,-0.01 -0,-0.005 0.001,-0.01 0.004,-0.015 0.006,-0.014 0.022,-0.029 0.046,-0.045 0.032,-0.021 0.058,-0.047 0.079,-0.079 0.021,-0.031 0.034,-0.063 0.04,-0.097 0.006,-0.035 0.004,-0.066 -0.008,-0.095 -0.012,-0.031 -0.034,-0.054 -0.064,-0.071 -0.036,-0.02 -0.075,-0.026 -0.116,-0.02 -0.036,0.005 -0.07,0.019 -0.103,0.042 -0.03,0.022 -0.053,0.047 -0.068,0.075 -0.015,0.029 -0.018,0.054 -0.01,0.076 0.008,0.021 0.024,0.034 0.046,0.038 0.023,0.004 0.052,-0.003 0.085,-0.019 0.018,-0.009 0.031,-0.015 0.039,-0.017 0.007,-0.001 0.013,-0 0.017,0.004 0.008,0.009 -0.002,0.022 -0.03,0.04 -0.052,0.033 -0.091,0.069 -0.117,0.108 -0.033,0.05 -0.043,0.103 -0.031,0.159 0.009,0.039 0.035,0.069 0.077,0.087 0.034,0.015 0.078,0.023 0.132,0.023 0.053,0 0.097,-0.008 0.131,-0.023 0.035,-0.016 0.055,-0.039 0.06,-0.068 0.003,-0.014 0.002,-0.029 -0.002,-0.043 -0.004,-0.015 -0.012,-0.027 -0.022,-0.038 -0.011,-0.011 -0.024,-0.018 -0.038,-0.02 -0.017,-0.003 -0.034,-0 -0.053,0.008zm0.264 -0.391c-0.007,0.003 -0.013,0.006 -0.019,0.01 -0.006,0.003 -0.012,0.008 -0.017,0.013 -0.012,0.009 -0.021,0.02 -0.027,0.033 -0.007,0.015 -0.012,0.029 -0.012,0.043 -0.002,-0.015 0,-0.031 0.007,-0.046 0.006,-0.014 0.015,-0.026 0.028,-0.037 0.012,-0.01 0.025,-0.017 0.039,-0.022 0.015,-0.005 0.029,-0.006 0.043,-0.004 -0.014,0.001 -0.027,0.004 -0.041,0.01zm0.148 0.051c-0.012,-0.034 -0.03,-0.059 -0.052,-0.075 -0.02,-0.014 -0.042,-0.02 -0.067,-0.019 -0.023,0.001 -0.045,0.008 -0.066,0.021 -0.021,0.012 -0.036,0.027 -0.047,0.045 -0.009,0.015 -0.016,0.03 -0.019,0.047 -0.003,0.016 -0.003,0.031 -0,0.044 0.003,0.014 0.009,0.024 0.018,0.031 0.009,0.008 0.021,0.01 0.034,0.008 0.016,-0.002 0.028,0.01 0.034,0.038 0.002,0.01 0.004,0.023 0.006,0.037 0.001,0.005 0.001,0.012 0.002,0.018l0 0.008 0 0.008c0.002,0.042 0.002,0.085 -0.002,0.13 -0.001,0.014 -0.003,0.031 -0.005,0.051l-0.001 0.011 -0.001 0.011c-0.001,0.008 -0.001,0.015 -0.002,0.02 -0.002,0.027 -0.002,0.047 0.001,0.058 0.004,0.015 0.014,0.024 0.029,0.029 0.029,0.009 0.056,-0.006 0.08,-0.044 0.022,-0.034 0.04,-0.083 0.055,-0.146 0.013,-0.06 0.02,-0.12 0.021,-0.182 0.001,-0.063 -0.005,-0.113 -0.018,-0.15zm0.308 0.181c-0.006,0.001 -0.012,0.003 -0.018,0.006l-0.004 0.002 -0.004 0.003c-0.004,0.002 -0.007,0.003 -0.01,0.004 -0.007,0.002 -0.013,0.003 -0.02,0.002l0.009 -0.003c0.004,-0.001 0.007,-0.003 0.009,-0.004l0.004 -0.002 0.004 -0.002c0.003,-0.002 0.006,-0.004 0.009,-0.005 0.007,-0.003 0.014,-0.005 0.02,-0.005 0.008,-0 0.015,0.001 0.02,0.006 -0.006,-0.001 -0.013,-0.001 -0.019,0zm-0.183 0.013c-0.006,0 -0.011,0.001 -0.016,0.001 -0.006,0 -0.011,0.001 -0.015,0.003 -0.003,0.001 -0.005,0.003 -0.006,0.004 -0.001,0.001 -0.002,0.004 -0.004,0.007 -0,-0.004 0,-0.007 0.001,-0.009 0.002,-0.003 0.004,-0.005 0.007,-0.007 0.004,-0.002 0.01,-0.004 0.017,-0.005 0.007,-0.001 0.012,-0 0.017,0 0.006,0.001 0.012,0.002 0.016,0.003 -0.005,0.001 -0.01,0.002 -0.017,0.002zm0.143 -0.032c-0.011,0.006 -0.029,0.009 -0.054,0.008 -0.008,-0.001 -0.019,-0.002 -0.033,-0.004l-0.017 -0.002c-0.006,-0.001 -0.012,-0.001 -0.017,-0.002 -0.026,-0.002 -0.046,-0.001 -0.059,0.004 -0.018,0.006 -0.028,0.019 -0.03,0.038 -0.004,0.025 0.007,0.046 0.031,0.065 0.022,0.017 0.051,0.028 0.088,0.035 0.036,0.006 0.07,0.006 0.103,-0 0.035,-0.007 0.061,-0.02 0.076,-0.04 0.011,-0.014 0.017,-0.029 0.018,-0.047 0.001,-0.016 -0.004,-0.031 -0.013,-0.044 -0.009,-0.013 -0.022,-0.021 -0.037,-0.023 -0.017,-0.003 -0.035,0.001 -0.055,0.012zm0.289 -0.217c-0.019,0.003 -0.034,0.006 -0.045,0.01 -0.018,0.005 -0.031,0.012 -0.042,0.019 -0.008,0.005 -0.013,0.011 -0.017,0.016 -0.004,0.006 -0.007,0.014 -0.007,0.023 -0.002,-0.009 -0.001,-0.017 0.004,-0.026 0.003,-0.007 0.009,-0.013 0.017,-0.019 0.011,-0.008 0.025,-0.016 0.043,-0.022 0.029,-0.009 0.061,-0.011 0.094,-0.008 -0.017,0.002 -0.033,0.004 -0.047,0.006zm0.076 -0.039c-0.065,-0.004 -0.117,0.004 -0.158,0.023 -0.043,0.02 -0.062,0.049 -0.059,0.087 0.002,0.021 0.01,0.036 0.025,0.046 0.011,0.007 0.027,0.012 0.048,0.014l0.013 0.001 0.013 0.001c0.01,0.001 0.018,0.002 0.024,0.004 0.016,0.004 0.026,0.011 0.03,0.022 0.002,0.006 -0,0.044 -0.007,0.113 -0.004,0.035 -0.006,0.065 -0.007,0.089 -0.002,0.035 -0.001,0.065 0.001,0.091 0.003,0.039 0.016,0.071 0.037,0.095 0.022,0.026 0.049,0.036 0.08,0.032 0.057,-0.008 0.078,-0.07 0.062,-0.185 -0.008,-0.061 -0.012,-0.112 -0.013,-0.155 -0.001,-0.046 0.003,-0.073 0.012,-0.08 0.006,-0.005 0.016,-0.008 0.031,-0.008 0.004,0 0.011,0 0.021,0l0.011 0 0.011 -0c0.017,-0 0.031,-0.003 0.041,-0.008 0.013,-0.007 0.022,-0.018 0.026,-0.033 0.005,-0.019 0.003,-0.038 -0.008,-0.056 -0.01,-0.017 -0.027,-0.031 -0.05,-0.045 -0.047,-0.027 -0.108,-0.042 -0.182,-0.047zm0.594 0.068c-0.007,0.009 -0.014,0.019 -0.021,0.031 -0.013,0.021 -0.023,0.044 -0.032,0.069l-0.006 0.018 -0.006 0.019c-0.005,0.016 -0.01,0.029 -0.013,0.037 -0.006,0.016 -0.013,0.028 -0.018,0.035 -0.004,0.006 -0.01,0.009 -0.015,0.011 -0.005,0.002 -0.011,0.003 -0.018,0.002 0.007,-0 0.013,-0.002 0.018,-0.004 0.005,-0.003 0.009,-0.007 0.013,-0.013 0.005,-0.007 0.01,-0.019 0.015,-0.034l0.006 -0.019 0.006 -0.019c0.004,-0.015 0.009,-0.027 0.012,-0.037 0.01,-0.027 0.021,-0.05 0.035,-0.07 0.017,-0.026 0.035,-0.044 0.053,-0.054 -0.01,0.007 -0.019,0.016 -0.027,0.026zm-0.264 0.1c-0.004,0.018 -0.007,0.039 -0.01,0.063l-0.004 0.032 -0.004 0.031c-0.002,-0.063 0.004,-0.119 0.02,-0.168 0.003,-0.01 0.006,-0.019 0.009,-0.026 0.005,-0.01 0.009,-0.019 0.014,-0.026 0.013,-0.019 0.028,-0.028 0.045,-0.027 -0.02,0.002 -0.037,0.018 -0.05,0.048 -0.005,0.011 -0.009,0.024 -0.013,0.039 -0.002,0.005 -0.003,0.012 -0.004,0.019l-0.002 0.009 -0.001 0.004 -0.001 0.004zm0.365 -0.155c-0.032,-0.021 -0.065,-0.02 -0.099,0.005 -0.028,0.02 -0.052,0.053 -0.073,0.097 -0.007,0.014 -0.014,0.031 -0.02,0.05 -0.002,0.007 -0.005,0.015 -0.008,0.024l-0.004 0.011 -0.002 0.005 -0.002 0.005c-0.005,0.016 -0.009,0.027 -0.012,0.033 -0.004,0.008 -0.007,0.012 -0.011,0.012 -0.007,-0.001 -0.011,-0.006 -0.011,-0.017 -0.001,-0.01 0.001,-0.032 0.006,-0.067 0.009,-0.063 0.005,-0.108 -0.012,-0.134 -0.013,-0.021 -0.033,-0.029 -0.061,-0.025 -0.034,0.005 -0.061,0.04 -0.081,0.104 -0.019,0.063 -0.027,0.139 -0.025,0.229 0.005,0.166 0.05,0.255 0.135,0.267 0.025,0.003 0.05,-0.003 0.074,-0.019 0.023,-0.015 0.043,-0.037 0.059,-0.064 0.014,-0.024 0.027,-0.046 0.037,-0.067 0.004,-0.008 0.007,-0.016 0.01,-0.023 0.002,-0.005 0.005,-0.011 0.007,-0.017 0.004,-0.011 0.007,-0.017 0.008,-0.019 0.002,-0.003 0.005,-0.004 0.008,-0.003 0.003,0.001 0.004,0.013 0.001,0.036l-0.001 0.008 -0.001 0.008c-0.001,0.007 -0.001,0.013 -0.002,0.018 -0.001,0.015 -0.002,0.028 -0.003,0.039 -0.001,0.07 0.022,0.105 0.069,0.105 0.03,-0 0.054,-0.028 0.072,-0.085 0.015,-0.051 0.023,-0.114 0.023,-0.191 0,-0.075 -0.007,-0.143 -0.022,-0.204 -0.016,-0.066 -0.037,-0.107 -0.062,-0.125zm0.56 0.369c-0.006,0.005 -0.011,0.008 -0.017,0.01 -0.007,0.002 -0.013,0.002 -0.019,0 0.012,-0.003 0.023,-0.009 0.032,-0.017 0.007,-0.006 0.015,-0.016 0.024,-0.028 -0.002,0.014 -0.008,0.026 -0.02,0.035zm-0.043 -0.025c-0.006,-0.003 -0.01,-0.008 -0.012,-0.016 -0.002,-0.008 -0.002,-0.016 0.001,-0.025 0.003,-0.009 0.008,-0.016 0.015,-0.02 0.007,-0.004 0.013,-0.005 0.019,-0.003 0.006,0.003 0.01,0.008 0.012,0.016 0.002,0.008 0.001,0.017 -0.002,0.026 -0.003,0.009 -0.008,0.015 -0.015,0.02 -0.007,0.004 -0.013,0.005 -0.019,0.003zm-0.064 -0.233c-0.01,0.015 -0.022,0.035 -0.037,0.06 -0.005,0.009 -0.01,0.019 -0.017,0.031l-0.017 0.032c0.008,-0.021 0.017,-0.043 0.028,-0.066 0.01,-0.021 0.022,-0.042 0.035,-0.062 0.015,-0.023 0.03,-0.041 0.044,-0.055l0.006 -0.006c0.002,-0.002 0.004,-0.004 0.006,-0.006l0.007 -0.006 0.007 -0.005c0.013,-0.007 0.023,-0.01 0.032,-0.01 -0.009,0.001 -0.019,0.005 -0.03,0.013l-0.006 0.005 -0.006 0.006c-0.002,0.001 -0.004,0.003 -0.006,0.006l-0.006 0.006c-0.014,0.015 -0.028,0.034 -0.042,0.055zm0.106 -0.125c-0.035,-0.006 -0.073,0.02 -0.117,0.078 -0.039,0.052 -0.074,0.118 -0.105,0.199 -0.031,0.08 -0.049,0.152 -0.054,0.214 -0.006,0.068 0.007,0.109 0.037,0.121 0.023,0.01 0.044,0.009 0.066,-0.001 0.016,-0.008 0.033,-0.021 0.051,-0.042 0.003,-0.004 0.007,-0.009 0.011,-0.013l0.01 -0.013c0.009,-0.011 0.015,-0.019 0.019,-0.024 0.014,-0.016 0.026,-0.024 0.035,-0.024 0.01,0 0.022,0.008 0.037,0.023 0.004,0.005 0.011,0.012 0.02,0.023l0.011 0.012 0.011 0.013c0.018,0.019 0.034,0.032 0.049,0.039 0.019,0.009 0.039,0.009 0.058,-0.001 0.023,-0.011 0.036,-0.048 0.039,-0.11 0.003,-0.058 -0.003,-0.124 -0.018,-0.199 -0.015,-0.077 -0.036,-0.142 -0.063,-0.195 -0.03,-0.059 -0.063,-0.092 -0.097,-0.098zm0.486 0.256c-0.003,0.008 -0.007,0.016 -0.014,0.022 -0.006,0.007 -0.013,0.012 -0.02,0.015 -0.008,0.003 -0.016,0.004 -0.024,0.003 0.008,-0.002 0.015,-0.005 0.021,-0.009 0.007,-0.004 0.012,-0.009 0.017,-0.015 0.01,-0.011 0.018,-0.025 0.023,-0.042 0.001,0.008 -0,0.017 -0.004,0.026zm-0.072 -0.037c0.004,-0.009 0.01,-0.015 0.016,-0.019 0.007,-0.004 0.013,-0.004 0.019,-0.001 0.006,0.003 0.009,0.009 0.01,0.017 0.001,0.008 -0,0.017 -0.004,0.025 -0.004,0.009 -0.009,0.015 -0.016,0.019 -0.007,0.004 -0.013,0.004 -0.019,0.001 -0.006,-0.003 -0.009,-0.009 -0.01,-0.017 -0.001,-0.008 0,-0.017 0.004,-0.025zm-0.061 -0.171c-0.018,0.009 -0.034,0.021 -0.047,0.037 -0.012,0.014 -0.023,0.031 -0.032,0.052 -0.007,0.016 -0.014,0.036 -0.02,0.06 0.001,-0.009 0.002,-0.019 0.005,-0.032 0.003,-0.011 0.006,-0.021 0.01,-0.031 0.008,-0.021 0.018,-0.039 0.032,-0.055 0.014,-0.017 0.031,-0.029 0.05,-0.037 0.009,-0.004 0.019,-0.007 0.029,-0.009 0.011,-0.002 0.021,-0.003 0.03,-0.003 -0.022,0.004 -0.041,0.009 -0.056,0.017zm0.074 -0.051c-0.053,-0.001 -0.097,0.015 -0.132,0.048 -0.031,0.029 -0.053,0.069 -0.066,0.122 -0.012,0.048 -0.015,0.1 -0.009,0.157 0.006,0.055 0.018,0.106 0.039,0.154 0.02,0.045 0.041,0.081 0.066,0.105 0.021,0.022 0.043,0.033 0.064,0.035 0.019,0.002 0.036,-0.004 0.05,-0.019 0.014,-0.014 0.022,-0.034 0.025,-0.058 0.002,-0.017 0.002,-0.036 -0.001,-0.057 -0.001,-0.006 -0.003,-0.015 -0.004,-0.026l-0.002 -0.012c-0.001,-0.004 -0.001,-0.008 -0.002,-0.011 -0.002,-0.017 -0.002,-0.03 0.001,-0.039 0.003,-0.012 0.012,-0.021 0.025,-0.028 0.043,-0.022 0.075,-0.054 0.097,-0.096 0.021,-0.039 0.028,-0.08 0.023,-0.122 -0.005,-0.043 -0.022,-0.078 -0.051,-0.106 -0.031,-0.03 -0.072,-0.045 -0.123,-0.046zm0.481 0.433c-0.005,0.008 -0.011,0.014 -0.019,0.018 -0.008,0.004 -0.016,0.005 -0.024,0.003 0.016,-0.003 0.029,-0.012 0.037,-0.026 0.004,-0.006 0.007,-0.013 0.009,-0.022 0.001,-0.008 0.002,-0.016 0.002,-0.026 0.003,0.008 0.004,0.017 0.004,0.026 -0.001,0.009 -0.003,0.018 -0.008,0.026zm-0.07 -0.033c-0.004,-0.008 -0.005,-0.017 -0.004,-0.025 0.001,-0.008 0.004,-0.014 0.01,-0.017 0.006,-0.003 0.012,-0.003 0.019,0.001 0.007,0.004 0.012,0.01 0.016,0.018 0.004,0.009 0.005,0.017 0.004,0.025 -0.001,0.008 -0.004,0.014 -0.01,0.017 -0.006,0.003 -0.012,0.003 -0.018,-0.001 -0.007,-0.004 -0.012,-0.01 -0.016,-0.019zm-0.037 -0.358c-0.005,0.003 -0.01,0.006 -0.017,0.012 -0.009,0.008 -0.018,0.019 -0.027,0.031 -0.007,0.009 -0.015,0.02 -0.023,0.035 -0.003,0.005 -0.007,0.011 -0.011,0.019l-0.01 0.019c0.005,-0.016 0.011,-0.03 0.016,-0.04 0.007,-0.014 0.014,-0.026 0.023,-0.037 0.01,-0.013 0.02,-0.023 0.03,-0.031 0.014,-0.01 0.026,-0.014 0.039,-0.013 -0.006,0.001 -0.013,0.004 -0.019,0.007zm0.103 0.209c-0.014,-0.004 -0.022,-0.012 -0.026,-0.024 -0.003,-0.009 -0.003,-0.022 -0,-0.039 0.001,-0.003 0.001,-0.007 0.002,-0.012l0.002 -0.012c0.002,-0.011 0.004,-0.02 0.005,-0.027 0.003,-0.022 0.004,-0.041 0.002,-0.058 -0.003,-0.024 -0.011,-0.043 -0.025,-0.057 -0.014,-0.014 -0.031,-0.021 -0.051,-0.019 -0.021,0.002 -0.043,0.014 -0.064,0.035 -0.024,0.024 -0.046,0.059 -0.066,0.105 -0.02,0.047 -0.033,0.098 -0.039,0.153 -0.006,0.057 -0.003,0.109 0.009,0.157 0.013,0.052 0.035,0.092 0.066,0.122 0.035,0.032 0.079,0.048 0.132,0.048 0.051,-0.001 0.093,-0.017 0.126,-0.05 0.03,-0.03 0.049,-0.067 0.055,-0.112 0.006,-0.045 -0.001,-0.086 -0.022,-0.124 -0.023,-0.041 -0.058,-0.069 -0.106,-0.085zm0.166 -0.199c-0.004,0.004 -0.008,0.01 -0.01,0.016 -0.002,0.006 -0.003,0.013 -0.004,0.02 -0.001,0.011 0.001,0.025 0.003,0.043l0.004 0.021 0.004 0.022c-0.006,-0.015 -0.01,-0.029 -0.013,-0.042 -0.004,-0.017 -0.006,-0.031 -0.005,-0.044 0.001,-0.009 0.002,-0.016 0.004,-0.023 0.003,-0.008 0.007,-0.015 0.013,-0.019 0.011,-0.009 0.024,-0.013 0.039,-0.011 -0.015,0.002 -0.027,0.007 -0.035,0.016zm0.139 0.024c-0.011,-0.023 -0.026,-0.041 -0.044,-0.054 -0.016,-0.012 -0.034,-0.018 -0.052,-0.019 -0.018,-0.001 -0.034,0.002 -0.049,0.01 -0.015,0.008 -0.026,0.019 -0.033,0.033 -0.013,0.027 -0.012,0.067 0.001,0.119 0.002,0.008 0.005,0.019 0.009,0.033l0.005 0.017 0.005 0.016c0.007,0.026 0.012,0.048 0.013,0.065 0.004,0.042 0.006,0.085 0.006,0.129 -0,0.014 -0.001,0.031 -0.002,0.05l-0 0.011 -0 0.011c-0.001,0.008 -0.001,0.015 -0.001,0.02 -0.001,0.027 0.001,0.046 0.004,0.058 0.005,0.014 0.015,0.023 0.029,0.027 0.029,0.007 0.055,-0.009 0.078,-0.05 0.021,-0.036 0.037,-0.086 0.047,-0.15 0.011,-0.061 0.015,-0.122 0.012,-0.182 -0.003,-0.063 -0.012,-0.112 -0.029,-0.145zm0.418 -0.03c-0.004,0.002 -0.007,0.005 -0.01,0.009 -0.004,0.006 -0.008,0.016 -0.01,0.028 -0.003,0.016 -0.004,0.037 -0.004,0.062l0 0.008 0 0.008c0,0.006 0,0.012 -0,0.016 -0.001,0.012 -0.004,0.022 -0.008,0.032 -0.004,0.01 -0.01,0.019 -0.017,0.026 -0.008,0.008 -0.016,0.013 -0.025,0.016 0.018,-0.009 0.03,-0.024 0.037,-0.044 0.003,-0.01 0.005,-0.02 0.006,-0.03 0,-0.004 0,-0.009 0,-0.015l-0 -0.008 0 -0.008c-0,-0.026 0.001,-0.047 0.005,-0.063 0.003,-0.013 0.008,-0.023 0.014,-0.029 0.004,-0.004 0.008,-0.007 0.013,-0.009 0.004,-0.001 0.009,-0.002 0.014,-0.002 -0.006,0.001 -0.01,0.002 -0.014,0.004zm-0.268 0.011c-0.009,0.011 -0.016,0.024 -0.021,0.039 -0.004,0.013 -0.008,0.028 -0.012,0.046l-0.005 0.023 -0.005 0.023c0.001,-0.032 0.006,-0.064 0.015,-0.095 0.006,-0.017 0.014,-0.031 0.024,-0.041 0.006,-0.006 0.012,-0.011 0.019,-0.013 0.008,-0.003 0.015,-0.004 0.022,-0.003 -0.014,0.001 -0.026,0.009 -0.037,0.021zm0.28 -0.048c-0.027,0.002 -0.046,0.015 -0.057,0.04 -0.011,0.024 -0.016,0.061 -0.013,0.111 0.001,0.022 -0.004,0.038 -0.013,0.049 -0.008,0.01 -0.018,0.014 -0.031,0.013 -0.013,-0.001 -0.023,-0.007 -0.029,-0.018 -0.007,-0.011 -0.009,-0.026 -0.008,-0.044 0.005,-0.051 0,-0.089 -0.014,-0.115 -0.013,-0.023 -0.034,-0.037 -0.064,-0.042 -0.024,-0.004 -0.045,0.002 -0.065,0.018 -0.018,0.015 -0.032,0.037 -0.041,0.065 -0.017,0.054 -0.025,0.118 -0.026,0.191 -0.001,0.071 0.006,0.138 0.02,0.202 0.01,0.048 0.027,0.082 0.05,0.102 0.019,0.017 0.04,0.024 0.062,0.02 0.051,-0.008 0.074,-0.049 0.069,-0.122 -0.004,-0.053 0.007,-0.08 0.031,-0.08 0.012,0 0.021,0.005 0.028,0.015 0.009,0.013 0.012,0.034 0.011,0.062 -0.002,0.048 0.005,0.084 0.021,0.109 0.015,0.023 0.036,0.035 0.064,0.035 0.047,0 0.08,-0.032 0.099,-0.096 0.014,-0.046 0.022,-0.123 0.025,-0.229 0.002,-0.082 -0.007,-0.151 -0.029,-0.206 -0.022,-0.057 -0.052,-0.085 -0.09,-0.083zm-5.032 0.961c-0.007,0.003 -0.013,0.006 -0.019,0.01 -0.006,0.003 -0.012,0.008 -0.017,0.013 -0.012,0.009 -0.021,0.02 -0.027,0.033 -0.007,0.015 -0.012,0.029 -0.012,0.043 -0.002,-0.015 0,-0.031 0.007,-0.046 0.006,-0.014 0.015,-0.026 0.028,-0.037 0.012,-0.01 0.025,-0.017 0.039,-0.022 0.015,-0.005 0.029,-0.006 0.043,-0.004 -0.014,0.001 -0.027,0.004 -0.041,0.01zm0.148 0.051c-0.012,-0.034 -0.03,-0.059 -0.052,-0.075 -0.02,-0.014 -0.042,-0.02 -0.067,-0.019 -0.023,0.001 -0.045,0.008 -0.066,0.021 -0.021,0.012 -0.036,0.027 -0.047,0.045 -0.009,0.015 -0.016,0.03 -0.019,0.047 -0.003,0.016 -0.003,0.031 -0,0.044 0.003,0.014 0.009,0.024 0.018,0.031 0.009,0.008 0.021,0.01 0.034,0.008 0.016,-0.002 0.028,0.01 0.035,0.038 0.002,0.01 0.004,0.023 0.006,0.037 0.001,0.005 0.001,0.012 0.002,0.018l0 0.008 0 0.008c0.002,0.042 0.002,0.085 -0.002,0.13 -0.001,0.014 -0.003,0.031 -0.005,0.051l-0.001 0.011 -0.001 0.011c-0.001,0.008 -0.001,0.015 -0.002,0.02 -0.002,0.027 -0.002,0.047 0.001,0.058 0.004,0.015 0.014,0.024 0.029,0.029 0.029,0.009 0.056,-0.006 0.08,-0.044 0.022,-0.034 0.04,-0.083 0.055,-0.146 0.013,-0.06 0.02,-0.12 0.021,-0.182 0.001,-0.063 -0.005,-0.113 -0.018,-0.15z"/>
   <path class="fil0" d="M0.584 1.389c-0.006,0.001 -0.012,0.003 -0.018,0.006l-0.004 0.002 -0.004 0.003c-0.004,0.002 -0.007,0.003 -0.01,0.004 -0.007,0.002 -0.013,0.003 -0.02,0.002l0.01 -0.003c0.004,-0.001 0.007,-0.003 0.009,-0.004l0.004 -0.002 0.004 -0.002c0.003,-0.002 0.006,-0.004 0.009,-0.005 0.007,-0.003 0.014,-0.005 0.02,-0.005 0.008,-0 0.015,0.001 0.02,0.006 -0.006,-0.001 -0.013,-0.001 -0.019,0zm-0.183 0.013c-0.006,0 -0.011,0.001 -0.016,0.001 -0.006,0 -0.011,0.001 -0.015,0.003 -0.003,0.001 -0.005,0.003 -0.006,0.004 -0.001,0.001 -0.002,0.004 -0.004,0.007 -0,-0.004 0,-0.007 0.001,-0.009 0.002,-0.003 0.004,-0.005 0.007,-0.007 0.004,-0.002 0.01,-0.004 0.017,-0.005 0.007,-0.001 0.012,-0 0.017,0 0.006,0.001 0.012,0.002 0.016,0.003 -0.005,0.001 -0.01,0.002 -0.017,0.002zm0.143 -0.032c-0.011,0.006 -0.029,0.009 -0.054,0.008 -0.008,-0.001 -0.019,-0.002 -0.033,-0.004l-0.017 -0.002c-0.006,-0.001 -0.012,-0.001 -0.017,-0.002 -0.026,-0.002 -0.046,-0.001 -0.059,0.004 -0.018,0.006 -0.028,0.019 -0.03,0.038 -0.004,0.025 0.007,0.046 0.031,0.065 0.022,0.017 0.051,0.028 0.088,0.035 0.036,0.006 0.07,0.006 0.103,-0 0.035,-0.007 0.061,-0.02 0.076,-0.04 0.011,-0.014 0.017,-0.029 0.018,-0.047 0.001,-0.016 -0.004,-0.031 -0.013,-0.044 -0.009,-0.013 -0.022,-0.021 -0.037,-0.023 -0.017,-0.003 -0.035,0.001 -0.055,0.012zm0.289 -0.217c-0.019,0.003 -0.034,0.006 -0.045,0.01 -0.018,0.005 -0.031,0.012 -0.042,0.019 -0.008,0.005 -0.013,0.011 -0.017,0.016 -0.005,0.006 -0.007,0.014 -0.007,0.023 -0.002,-0.009 -0.001,-0.017 0.004,-0.026 0.003,-0.007 0.009,-0.013 0.017,-0.019 0.011,-0.008 0.025,-0.016 0.043,-0.022 0.029,-0.009 0.061,-0.011 0.094,-0.008 -0.017,0.002 -0.033,0.004 -0.047,0.006zm0.076 -0.039c-0.065,-0.004 -0.117,0.004 -0.158,0.023 -0.043,0.02 -0.062,0.049 -0.059,0.087 0.002,0.021 0.01,0.036 0.025,0.046 0.011,0.007 0.027,0.012 0.048,0.014l0.013 0.001 0.013 0.001c0.01,0.001 0.018,0.002 0.024,0.004 0.016,0.004 0.026,0.011 0.03,0.022 0.002,0.006 -0,0.044 -0.007,0.113 -0.004,0.035 -0.006,0.065 -0.007,0.089 -0.002,0.035 -0.001,0.065 0.001,0.091 0.003,0.039 0.016,0.071 0.037,0.095 0.022,0.026 0.049,0.036 0.08,0.032 0.057,-0.008 0.078,-0.07 0.062,-0.185 -0.008,-0.061 -0.012,-0.112 -0.013,-0.155 -0.001,-0.046 0.003,-0.073 0.012,-0.08 0.006,-0.005 0.016,-0.008 0.031,-0.008 0.004,0 0.011,0 0.021,0l0.011 0 0.011 -0c0.017,-0 0.031,-0.003 0.041,-0.008 0.013,-0.007 0.022,-0.018 0.026,-0.033 0.005,-0.019 0.003,-0.038 -0.008,-0.056 -0.01,-0.017 -0.027,-0.031 -0.05,-0.045 -0.047,-0.027 -0.108,-0.042 -0.182,-0.047zm0.594 0.068c-0.007,0.009 -0.014,0.019 -0.021,0.031 -0.013,0.021 -0.023,0.044 -0.032,0.069l-0.006 0.018 -0.006 0.019c-0.005,0.016 -0.01,0.029 -0.013,0.037 -0.006,0.016 -0.013,0.028 -0.018,0.035 -0.004,0.006 -0.01,0.009 -0.015,0.011 -0.005,0.002 -0.011,0.003 -0.018,0.002 0.007,-0 0.013,-0.002 0.018,-0.004 0.005,-0.003 0.009,-0.007 0.013,-0.013 0.005,-0.007 0.01,-0.019 0.015,-0.034l0.006 -0.019 0.006 -0.019c0.004,-0.015 0.009,-0.027 0.012,-0.037 0.01,-0.027 0.021,-0.05 0.035,-0.07 0.017,-0.026 0.035,-0.044 0.053,-0.054 -0.01,0.007 -0.019,0.016 -0.027,0.026zm-0.263 0.1c-0.004,0.018 -0.007,0.039 -0.01,0.063l-0.004 0.032 -0.004 0.031c-0.002,-0.063 0.004,-0.119 0.02,-0.168 0.003,-0.01 0.006,-0.019 0.009,-0.026 0.005,-0.01 0.009,-0.019 0.014,-0.026 0.013,-0.019 0.028,-0.028 0.045,-0.027 -0.02,0.002 -0.037,0.018 -0.05,0.048 -0.005,0.011 -0.009,0.024 -0.013,0.039 -0.002,0.005 -0.003,0.012 -0.004,0.019l-0.002 0.009 -0.001 0.004 -0.001 0.004zm0.365 -0.155c-0.032,-0.021 -0.065,-0.02 -0.099,0.005 -0.028,0.02 -0.052,0.053 -0.073,0.097 -0.007,0.014 -0.014,0.031 -0.02,0.05 -0.002,0.007 -0.005,0.015 -0.008,0.024l-0.004 0.011 -0.002 0.005 -0.002 0.005c-0.005,0.016 -0.009,0.027 -0.012,0.033 -0.004,0.008 -0.007,0.012 -0.011,0.012 -0.007,-0.001 -0.011,-0.006 -0.011,-0.017 -0.001,-0.01 0.001,-0.032 0.006,-0.067 0.009,-0.063 0.005,-0.108 -0.012,-0.134 -0.013,-0.021 -0.033,-0.029 -0.061,-0.025 -0.034,0.005 -0.061,0.04 -0.081,0.104 -0.019,0.063 -0.027,0.139 -0.025,0.229 0.005,0.166 0.05,0.255 0.135,0.267 0.025,0.003 0.05,-0.003 0.074,-0.019 0.023,-0.015 0.043,-0.037 0.059,-0.064 0.014,-0.024 0.027,-0.046 0.037,-0.067 0.004,-0.008 0.007,-0.016 0.01,-0.023 0.002,-0.005 0.005,-0.011 0.007,-0.017 0.004,-0.011 0.007,-0.017 0.008,-0.019 0.002,-0.003 0.005,-0.004 0.008,-0.003 0.003,0.001 0.004,0.013 0.001,0.036l-0.001 0.008 -0.001 0.008c-0.001,0.007 -0.001,0.013 -0.002,0.018 -0.001,0.015 -0.002,0.028 -0.003,0.039 -0.001,0.07 0.022,0.105 0.069,0.105 0.03,-0 0.054,-0.028 0.072,-0.085 0.015,-0.051 0.023,-0.114 0.023,-0.191 0,-0.075 -0.007,-0.143 -0.022,-0.204 -0.016,-0.066 -0.037,-0.107 -0.062,-0.125zm0.569 0.407c-0.004,0.01 -0.011,0.017 -0.019,0.022 -0.009,0.005 -0.017,0.007 -0.027,0.005 0.009,-0.002 0.017,-0.005 0.023,-0.01 0.007,-0.006 0.012,-0.012 0.016,-0.02 0.007,-0.015 0.008,-0.033 0.004,-0.054 0.005,0.008 0.007,0.018 0.008,0.028 0.001,0.01 -0.001,0.02 -0.005,0.03zm-0.074 -0.026c-0.004,-0.008 -0.006,-0.017 -0.005,-0.025 0.001,-0.008 0.004,-0.014 0.01,-0.018 0.006,-0.003 0.012,-0.003 0.019,0 0.007,0.004 0.013,0.009 0.018,0.018 0.004,0.008 0.006,0.017 0.005,0.025 -0.001,0.008 -0.004,0.014 -0.009,0.018 -0.006,0.003 -0.012,0.003 -0.019,0 -0.007,-0.004 -0.013,-0.009 -0.018,-0.018zm-0.035 -0.18c0.006,-0.002 0.012,-0.004 0.018,-0.007 0.006,-0.004 0.01,-0.008 0.014,-0.012 0.004,-0.004 0.008,-0.01 0.012,-0.016 0.003,-0.005 0.006,-0.012 0.008,-0.019 0.001,0.015 -0.003,0.028 -0.014,0.04 -0.005,0.005 -0.011,0.009 -0.018,0.012 -0.007,0.003 -0.014,0.003 -0.02,0.002zm-0.008 -0.062c0.003,-0.006 0.007,-0.01 0.012,-0.012 0.004,-0.002 0.009,-0.002 0.012,0 0.003,0.002 0.005,0.006 0.006,0.012 0.001,0.005 -0.001,0.011 -0.004,0.016 -0.003,0.006 -0.007,0.01 -0.012,0.012 -0.004,0.002 -0.009,0.002 -0.012,0 -0.004,-0.002 -0.005,-0.006 -0.006,-0.012 -0.001,-0.005 0.001,-0.011 0.004,-0.016zm-0.068 -0.077c-0.006,0.007 -0.013,0.016 -0.02,0.026 -0.01,0.016 -0.019,0.036 -0.028,0.06 -0.007,0.019 -0.013,0.041 -0.019,0.065 0.002,-0.022 0.007,-0.045 0.013,-0.067 0.007,-0.023 0.016,-0.044 0.028,-0.063 0.013,-0.022 0.029,-0.038 0.046,-0.048 0.011,-0.007 0.021,-0.011 0.03,-0.014 0.011,-0.003 0.022,-0.004 0.031,-0.003 -0.022,0.002 -0.041,0.009 -0.058,0.022 -0.009,0.006 -0.017,0.014 -0.023,0.022zm0.171 0.165c-0.004,-0.002 -0.005,-0.007 -0.003,-0.014 0.001,-0.003 0.003,-0.007 0.006,-0.013l0.002 -0.004 0.002 -0.004c0.001,-0.003 0.003,-0.006 0.004,-0.009 0.007,-0.016 0.012,-0.031 0.015,-0.045 0.004,-0.021 0.005,-0.042 0.001,-0.064 -0.004,-0.024 -0.016,-0.045 -0.038,-0.062 -0.022,-0.017 -0.047,-0.026 -0.075,-0.027 -0.031,-0.001 -0.06,0.009 -0.086,0.028 -0.03,0.023 -0.054,0.058 -0.072,0.105 -0.018,0.049 -0.028,0.102 -0.029,0.159 -0.002,0.059 0.006,0.112 0.022,0.161 0.018,0.053 0.043,0.094 0.078,0.123 0.038,0.032 0.084,0.046 0.138,0.042 0.051,-0.004 0.092,-0.022 0.122,-0.054 0.028,-0.029 0.043,-0.066 0.046,-0.11 0.003,-0.043 -0.007,-0.084 -0.029,-0.122 -0.024,-0.041 -0.059,-0.072 -0.103,-0.091zm0.44 0.19c-0.005,0.008 -0.011,0.014 -0.019,0.018 -0.008,0.004 -0.016,0.005 -0.024,0.003 0.016,-0.003 0.029,-0.012 0.037,-0.026 0.004,-0.006 0.007,-0.013 0.009,-0.022 0.001,-0.008 0.002,-0.016 0.002,-0.026 0.003,0.008 0.004,0.017 0.004,0.026 -0.001,0.009 -0.003,0.018 -0.008,0.026zm-0.07 -0.033c-0.004,-0.008 -0.005,-0.017 -0.004,-0.025 0.001,-0.008 0.004,-0.014 0.01,-0.017 0.006,-0.003 0.012,-0.003 0.019,0.001 0.007,0.004 0.012,0.01 0.016,0.018 0.004,0.009 0.005,0.017 0.004,0.025 -0.001,0.008 -0.004,0.014 -0.01,0.017 -0.006,0.003 -0.012,0.003 -0.018,-0.001 -0.007,-0.004 -0.012,-0.01 -0.016,-0.019zm-0.037 -0.358c-0.005,0.003 -0.01,0.006 -0.017,0.012 -0.009,0.008 -0.018,0.019 -0.027,0.031 -0.007,0.009 -0.015,0.02 -0.023,0.035 -0.003,0.005 -0.007,0.011 -0.011,0.019l-0.01 0.019c0.005,-0.016 0.011,-0.03 0.016,-0.04 0.007,-0.014 0.014,-0.026 0.023,-0.037 0.01,-0.013 0.02,-0.023 0.03,-0.031 0.014,-0.01 0.026,-0.014 0.039,-0.013 -0.006,0.001 -0.013,0.004 -0.019,0.007zm0.103 0.209c-0.014,-0.004 -0.022,-0.012 -0.026,-0.024 -0.003,-0.009 -0.003,-0.022 -0,-0.039 0.001,-0.003 0.001,-0.007 0.002,-0.012l0.002 -0.012c0.002,-0.011 0.004,-0.02 0.005,-0.027 0.003,-0.022 0.004,-0.041 0.002,-0.058 -0.003,-0.024 -0.011,-0.043 -0.025,-0.057 -0.014,-0.014 -0.031,-0.021 -0.051,-0.019 -0.021,0.002 -0.043,0.014 -0.064,0.035 -0.024,0.024 -0.046,0.059 -0.066,0.105 -0.02,0.047 -0.033,0.098 -0.039,0.153 -0.006,0.057 -0.003,0.109 0.009,0.157 0.013,0.052 0.035,0.092 0.066,0.122 0.035,0.032 0.079,0.048 0.132,0.048 0.051,-0.001 0.093,-0.017 0.126,-0.05 0.03,-0.03 0.049,-0.067 0.055,-0.112 0.006,-0.045 -0.001,-0.086 -0.022,-0.124 -0.023,-0.041 -0.058,-0.069 -0.106,-0.085zm0.166 -0.199c-0.004,0.004 -0.008,0.01 -0.01,0.016 -0.002,0.006 -0.003,0.013 -0.004,0.02 -0.001,0.011 0.001,0.025 0.003,0.043l0.004 0.021 0.004 0.022c-0.006,-0.015 -0.01,-0.029 -0.013,-0.042 -0.004,-0.017 -0.006,-0.031 -0.005,-0.044 0.001,-0.009 0.002,-0.016 0.004,-0.023 0.003,-0.008 0.007,-0.015 0.013,-0.019 0.011,-0.009 0.024,-0.013 0.039,-0.011 -0.015,0.002 -0.027,0.007 -0.035,0.016zm0.139 0.024c-0.011,-0.023 -0.026,-0.041 -0.044,-0.054 -0.016,-0.012 -0.034,-0.018 -0.052,-0.019 -0.018,-0.001 -0.034,0.002 -0.049,0.01 -0.015,0.008 -0.026,0.019 -0.033,0.033 -0.013,0.027 -0.012,0.067 0.001,0.119 0.002,0.008 0.005,0.019 0.009,0.033l0.005 0.017 0.005 0.016c0.007,0.026 0.012,0.048 0.013,0.065 0.004,0.042 0.006,0.085 0.006,0.129 -0,0.014 -0.001,0.031 -0.002,0.05l-0 0.011 -0 0.011c-0.001,0.008 -0.001,0.015 -0.001,0.02 -0.001,0.027 0.001,0.046 0.004,0.058 0.005,0.014 0.015,0.023 0.029,0.027 0.029,0.007 0.055,-0.009 0.078,-0.05 0.021,-0.036 0.037,-0.086 0.047,-0.15 0.011,-0.061 0.015,-0.122 0.012,-0.182 -0.003,-0.063 -0.012,-0.112 -0.029,-0.145zm0.214 -0.02c-0.002,0.001 -0.005,0.003 -0.008,0.004l-0.008 0.004 -0.008 0.005c-0.003,0.002 -0.006,0.004 -0.008,0.006 -0.009,0.006 -0.018,0.014 -0.028,0.024 -0.011,0.012 -0.019,0.022 -0.023,0.029 -0.013,0.02 -0.021,0.044 -0.026,0.072 -0.001,0.006 -0.002,0.012 -0.002,0.019l-0.001 0.02c-0.001,0.006 -0.001,0.012 -0.001,0.02l-0 0.02c-0.003,-0.028 -0.003,-0.055 -0.001,-0.08 0.003,-0.028 0.011,-0.054 0.025,-0.076l0.006 -0.008 0.006 -0.008c0.001,-0.002 0.003,-0.005 0.006,-0.007l0.004 -0.004 0.003 -0.004c0.012,-0.011 0.022,-0.019 0.03,-0.024 0.02,-0.014 0.043,-0.023 0.069,-0.027l-0.009 0.003 -0.009 0.003c-0.006,0.002 -0.012,0.005 -0.017,0.007zm0.28 0.081c-0.022,-0.052 -0.057,-0.089 -0.103,-0.113 -0.042,-0.021 -0.088,-0.027 -0.137,-0.018 -0.048,0.009 -0.089,0.03 -0.122,0.064 -0.036,0.036 -0.056,0.081 -0.061,0.133 -0.009,0.098 0.005,0.194 0.042,0.287 0.016,0.042 0.034,0.075 0.055,0.098 0.022,0.025 0.043,0.036 0.064,0.033 0.029,-0.004 0.047,-0.023 0.054,-0.056 0.007,-0.038 0.002,-0.103 -0.014,-0.196 -0.013,-0.074 -0.005,-0.112 0.023,-0.116 0.016,-0.002 0.028,0.011 0.037,0.039 0.008,0.026 0.011,0.059 0.01,0.098 -0.003,0.088 0.006,0.149 0.026,0.184 0.015,0.026 0.038,0.038 0.067,0.036 0.025,-0.001 0.046,-0.019 0.064,-0.052 0.016,-0.031 0.027,-0.071 0.033,-0.121 0.006,-0.05 0.006,-0.101 0,-0.153 -0.006,-0.055 -0.019,-0.104 -0.037,-0.147zm0.448 -0.089c-0.005,0.005 -0.011,0.012 -0.016,0.02 -0.008,0.012 -0.017,0.026 -0.027,0.045l-0.006 0.011 -0.006 0.012c-0.005,0.009 -0.01,0.016 -0.014,0.022 -0.006,0.009 -0.012,0.016 -0.016,0.021 -0.008,0.007 -0.015,0.011 -0.022,0.013 0.007,-0.003 0.014,-0.009 0.02,-0.016 0.004,-0.005 0.009,-0.012 0.014,-0.021 0.003,-0.005 0.007,-0.013 0.012,-0.023l0.013 -0.023c0.011,-0.019 0.02,-0.034 0.029,-0.045 0.006,-0.008 0.012,-0.014 0.018,-0.019 0.009,-0.007 0.016,-0.01 0.023,-0.01 -0.007,0.001 -0.014,0.006 -0.021,0.013zm-0.256 0.389c-0.007,0.005 -0.012,0.01 -0.016,0.013 -0.012,0.01 -0.022,0.019 -0.029,0.028 -0.004,0.006 -0.007,0.012 -0.01,0.018 -0.002,0.005 -0.004,0.012 -0.006,0.021 -0,-0.007 0,-0.014 0.002,-0.022 0.002,-0.007 0.005,-0.014 0.009,-0.02 0.006,-0.01 0.016,-0.021 0.029,-0.032 0.009,-0.007 0.02,-0.015 0.033,-0.024l0.009 -0.006 0.008 -0.006c0.007,-0.004 0.012,-0.008 0.017,-0.012 -0.007,0.009 -0.017,0.018 -0.031,0.028l-0.016 0.012zm-0.067 -0.351c-0.004,0.006 -0.007,0.013 -0.009,0.021 -0.002,0.007 -0.003,0.015 -0.003,0.024 -0.003,-0.008 -0.004,-0.016 -0.003,-0.025 0.001,-0.009 0.004,-0.017 0.009,-0.025 0.005,-0.008 0.011,-0.013 0.019,-0.016 0.008,-0.004 0.015,-0.005 0.023,-0.003 -0.016,0.004 -0.028,0.012 -0.036,0.025zm0.344 -0.083c-0.016,0 -0.032,0.008 -0.048,0.025 -0.012,0.012 -0.025,0.03 -0.039,0.054l-0.008 0.015 -0.004 0.007 -0.004 0.007c-0.006,0.012 -0.011,0.02 -0.014,0.025 -0.01,0.017 -0.018,0.025 -0.024,0.025 -0.006,0 -0.019,-0.011 -0.038,-0.034l-0.003 -0.004 -0.004 -0.004c-0.003,-0.003 -0.005,-0.006 -0.007,-0.008 -0.006,-0.007 -0.011,-0.013 -0.016,-0.018 -0.013,-0.014 -0.026,-0.027 -0.038,-0.038 -0.02,-0.018 -0.041,-0.026 -0.062,-0.026 -0.02,0 -0.037,0.007 -0.051,0.021 -0.015,0.014 -0.023,0.032 -0.027,0.053 -0.004,0.023 0.001,0.045 0.013,0.068 0.009,0.016 0.021,0.033 0.038,0.052 0.006,0.007 0.014,0.015 0.022,0.023l0.011 0.011 0.011 0.01c0.018,0.017 0.031,0.03 0.038,0.039 0.011,0.013 0.017,0.025 0.018,0.035 0.001,0.011 -0.005,0.022 -0.018,0.034 -0.005,0.004 -0.012,0.01 -0.021,0.016l-0.006 0.004 -0.006 0.004 -0.012 0.009c-0.02,0.015 -0.036,0.029 -0.046,0.043 -0.014,0.019 -0.022,0.041 -0.023,0.064 -0.001,0.018 0.002,0.035 0.009,0.051 0.007,0.015 0.017,0.028 0.03,0.038 0.03,0.021 0.067,0.025 0.111,0.01 0.059,-0.019 0.118,-0.075 0.177,-0.166 0.053,-0.082 0.087,-0.159 0.101,-0.233 0.015,-0.076 0.016,-0.131 0.002,-0.167 -0.011,-0.031 -0.032,-0.046 -0.063,-0.045zm0.448 0.377c-0.002,0.001 -0.005,0.004 -0.008,0.006l-0.004 0.003 -0.004 0.003c-0.007,0.005 -0.014,0.009 -0.021,0.01 -0.008,0.002 -0.015,0.003 -0.022,0.001 0.014,-0.003 0.026,-0.009 0.039,-0.018l0.004 -0.003 0.004 -0.003c0.004,-0.003 0.007,-0.005 0.01,-0.006 0.008,-0.004 0.015,-0.005 0.022,-0.003 -0.007,0.001 -0.013,0.004 -0.02,0.009zm-0.23 -0.287c-0.014,0.015 -0.026,0.034 -0.037,0.054 -0.009,0.018 -0.018,0.039 -0.026,0.063 0.004,-0.023 0.011,-0.045 0.02,-0.066 0.009,-0.021 0.021,-0.04 0.037,-0.057 0.016,-0.018 0.034,-0.031 0.053,-0.04 0.011,-0.004 0.021,-0.007 0.031,-0.009 0.012,-0.002 0.022,-0.002 0.032,-0.001 -0.023,0.002 -0.043,0.007 -0.061,0.016 -0.019,0.01 -0.036,0.023 -0.05,0.04zm0.316 0.333c-0.004,-0.045 -0.018,-0.073 -0.045,-0.084 -0.011,-0.005 -0.023,-0.006 -0.037,-0.003 -0.013,0.003 -0.025,0.01 -0.037,0.019 -0.011,0.009 -0.023,0.014 -0.036,0.012 -0.012,-0.001 -0.022,-0.007 -0.032,-0.018 -0.01,-0.011 -0.017,-0.025 -0.021,-0.042 -0.005,-0.019 -0.006,-0.039 -0.003,-0.061 0.004,-0.031 0.018,-0.049 0.042,-0.053 0.017,-0.003 0.041,0.002 0.072,0.014 0.013,0.005 0.026,0.005 0.037,-0.001 0.011,-0.005 0.019,-0.015 0.025,-0.028 0.006,-0.014 0.007,-0.029 0.005,-0.045 -0.002,-0.018 -0.009,-0.035 -0.02,-0.052 -0.024,-0.035 -0.056,-0.059 -0.095,-0.072 -0.036,-0.012 -0.072,-0.013 -0.109,-0.003 -0.047,0.012 -0.086,0.045 -0.117,0.098 -0.034,0.058 -0.051,0.13 -0.051,0.215 0,0.097 0.023,0.173 0.069,0.228 0.021,0.026 0.047,0.045 0.076,0.057 0.029,0.012 0.061,0.017 0.095,0.013 0.058,-0.005 0.104,-0.027 0.138,-0.067 0.033,-0.038 0.047,-0.081 0.043,-0.13zm0.306 -0.287c-0.011,0.015 -0.021,0.027 -0.032,0.037 -0.013,0.013 -0.026,0.022 -0.039,0.027 0.01,-0.007 0.022,-0.017 0.035,-0.032 0.01,-0.011 0.02,-0.024 0.03,-0.037 0.005,-0.007 0.009,-0.013 0.013,-0.019l0.004 -0.005 0.003 -0.005c0.003,-0.004 0.005,-0.008 0.007,-0.01 0.006,-0.007 0.012,-0.012 0.019,-0.016 0.008,-0.004 0.016,-0.006 0.023,-0.005 -0.014,0.001 -0.026,0.009 -0.037,0.025 -0.002,0.002 -0.004,0.006 -0.006,0.01l-0.003 0.005 -0.003 0.005c-0.004,0.006 -0.008,0.013 -0.014,0.02zm-0.157 -0.095c-0.005,0.004 -0.01,0.009 -0.015,0.015 -0.007,0.009 -0.014,0.022 -0.02,0.038 -0.004,0.01 -0.009,0.024 -0.014,0.043l-0.006 0.022 -0.006 0.022c0.001,-0.018 0.004,-0.033 0.006,-0.046 0.003,-0.016 0.008,-0.031 0.013,-0.044 0.007,-0.017 0.014,-0.031 0.023,-0.04 0.005,-0.006 0.011,-0.011 0.018,-0.014 0.007,-0.004 0.014,-0.005 0.021,-0.004 -0.007,0.001 -0.014,0.004 -0.019,0.008zm0.179 0.251c-0.011,-0.006 -0.013,-0.012 -0.008,-0.017 0.002,-0.002 0.006,-0.005 0.013,-0.008l0.004 -0.003 0.005 -0.003c0.004,-0.002 0.008,-0.004 0.011,-0.005 0.02,-0.011 0.036,-0.022 0.048,-0.035 0.018,-0.018 0.031,-0.04 0.039,-0.065 0.007,-0.023 0.007,-0.045 -0.001,-0.067 -0.007,-0.019 -0.019,-0.034 -0.036,-0.043 -0.017,-0.009 -0.034,-0.012 -0.052,-0.006 -0.02,0.006 -0.037,0.021 -0.052,0.044 -0.024,0.04 -0.047,0.067 -0.069,0.082 -0.009,0.006 -0.015,0.008 -0.018,0.005 -0.003,-0.003 -0.002,-0.01 0.002,-0.02 0.019,-0.043 0.025,-0.078 0.018,-0.106 -0.006,-0.022 -0.02,-0.037 -0.042,-0.042 -0.045,-0.012 -0.08,0.013 -0.105,0.073 -0.02,0.048 -0.033,0.119 -0.039,0.212 -0.006,0.093 -0.002,0.168 0.012,0.225 0.017,0.069 0.046,0.103 0.088,0.101 0.039,-0.001 0.062,-0.033 0.068,-0.093 0.002,-0.02 0.002,-0.044 0,-0.069 -0.001,-0.009 -0.002,-0.018 -0.003,-0.027 -0,-0.004 -0.001,-0.007 -0.001,-0.01l-0 -0.004 -0 -0.002 0 -0.001c-0.001,-0.008 -0,-0.013 0.003,-0.016 0.003,-0.003 0.008,-0.002 0.013,0.004 0.015,0.013 0.028,0.047 0.041,0.099 0.008,0.034 0.02,0.061 0.036,0.083 0.015,0.02 0.031,0.033 0.049,0.039 0.018,0.006 0.035,0.006 0.052,-0.001 0.017,-0.007 0.031,-0.02 0.043,-0.039 0.013,-0.021 0.02,-0.044 0.02,-0.07 0.001,-0.025 -0.005,-0.051 -0.015,-0.078 -0.024,-0.056 -0.065,-0.101 -0.123,-0.137z"/>
  </g>
  <g id="_2230177185104">
   <path class="fil1" d="M0.336 0.609c-0.003,0 -0.008,0 -0.013,0.001l-0.007 0.001 -0.007 0c0.008,-0.007 0.017,-0.01 0.028,-0.01 0.006,0 0.01,0.001 0.015,0.003 0.005,0.002 0.009,0.005 0.012,0.01 -0.009,-0.003 -0.018,-0.004 -0.026,-0.004zm-0.226 -0.14c-0.006,0.007 -0.012,0.013 -0.017,0.019 -0.012,0.015 -0.022,0.029 -0.029,0.041 -0.009,0.015 -0.015,0.031 -0.02,0.047 -0.004,0.016 -0.006,0.034 -0.006,0.052l-0.002 -0.013 -0 -0.006 0 -0.007 0 -0.006 0 -0.007 0.001 -0.006 0.001 -0.007c0.003,-0.017 0.009,-0.034 0.018,-0.05 0.009,-0.015 0.019,-0.029 0.031,-0.041 0.006,-0.006 0.012,-0.012 0.019,-0.018l0.01 -0.008c0.004,-0.003 0.007,-0.005 0.01,-0.007l-0.009 0.009 -0.009 0.009zm0.039 -0.276c-0.007,0.003 -0.015,0.007 -0.022,0.012 -0.015,0.008 -0.028,0.018 -0.04,0.028 -0.012,0.01 -0.024,0.023 -0.035,0.036 -0.005,0.007 -0.01,0.014 -0.013,0.022 -0.004,0.008 -0.007,0.017 -0.008,0.025 -0.001,-0.015 0.005,-0.032 0.017,-0.05 0.009,-0.014 0.021,-0.027 0.034,-0.039 0.014,-0.012 0.028,-0.021 0.043,-0.028 0.008,-0.004 0.016,-0.007 0.023,-0.009 0.009,-0.003 0.017,-0.005 0.024,-0.006l-0.012 0.004c-0.005,0.002 -0.008,0.003 -0.012,0.005zm0.148 0.387c-0.022,0.009 -0.043,0.013 -0.062,0.012 -0.016,-0.001 -0.025,-0.005 -0.029,-0.012 -0.001,-0.003 -0.002,-0.006 -0.002,-0.01 -0,-0.005 0.001,-0.01 0.004,-0.015 0.006,-0.014 0.022,-0.029 0.046,-0.045 0.032,-0.021 0.058,-0.047 0.079,-0.079 0.021,-0.031 0.034,-0.063 0.04,-0.097 0.006,-0.035 0.004,-0.066 -0.008,-0.095 -0.012,-0.031 -0.034,-0.054 -0.064,-0.071 -0.036,-0.02 -0.075,-0.026 -0.116,-0.02 -0.036,0.005 -0.07,0.019 -0.103,0.042 -0.03,0.022 -0.053,0.047 -0.068,0.075 -0.015,0.029 -0.018,0.054 -0.01,0.076 0.008,0.021 0.024,0.034 0.046,0.038 0.023,0.004 0.052,-0.003 0.085,-0.019 0.018,-0.009 0.031,-0.015 0.039,-0.017 0.007,-0.001 0.013,-0 0.017,0.004 0.008,0.009 -0.002,0.022 -0.03,0.04 -0.052,0.033 -0.091,0.069 -0.117,0.108 -0.033,0.05 -0.043,0.103 -0.031,0.159 0.009,0.039 0.034,0.069 0.077,0.087 0.034,0.015 0.078,0.023 0.132,0.023 0.053,0 0.097,-0.008 0.131,-0.023 0.035,-0.016 0.055,-0.039 0.06,-0.068 0.003,-0.014 0.002,-0.029 -0.002,-0.043 -0.004,-0.015 -0.012,-0.027 -0.022,-0.038 -0.011,-0.011 -0.024,-0.018 -0.038,-0.02 -0.017,-0.003 -0.034,-0 -0.053,0.008zm0.413 -0.022c-0.004,0.01 -0.01,0.018 -0.017,0.023 -0.008,0.007 -0.016,0.01 -0.025,0.012 0.015,-0.008 0.027,-0.021 0.035,-0.039 0.006,-0.013 0.011,-0.031 0.013,-0.053 0.004,0.02 0.002,0.039 -0.006,0.057zm-0.051 0.003c-0.01,0.003 -0.019,0 -0.029,-0.009 -0.009,-0.01 -0.015,-0.023 -0.019,-0.039 -0.003,-0.017 -0.002,-0.032 0.002,-0.046 0.005,-0.014 0.012,-0.023 0.022,-0.026 0.01,-0.003 0.019,0 0.028,0.009 0.009,0.009 0.015,0.022 0.019,0.039 0.003,0.017 0.002,0.032 -0.002,0.046 -0.005,0.014 -0.012,0.023 -0.021,0.026zm-0.123 -0.312c-0.012,0.018 -0.022,0.039 -0.031,0.066 -0.007,0.021 -0.013,0.046 -0.017,0.073 0,-0.01 0.001,-0.022 0.004,-0.038 0.002,-0.012 0.005,-0.025 0.008,-0.037 0.007,-0.026 0.017,-0.049 0.03,-0.069 0.015,-0.023 0.032,-0.04 0.053,-0.05 0.011,-0.005 0.022,-0.01 0.033,-0.012 0.012,-0.002 0.024,-0.003 0.035,-0.002 -0.026,0.002 -0.048,0.009 -0.066,0.019 -0.019,0.012 -0.035,0.028 -0.049,0.05zm0.158 -0.099c-0.073,-0.015 -0.132,0.005 -0.175,0.06 -0.039,0.049 -0.06,0.116 -0.064,0.2 -0.003,0.082 0.01,0.156 0.041,0.223 0.033,0.072 0.079,0.115 0.136,0.129 0.054,0.013 0.102,-0.009 0.145,-0.065 0.039,-0.051 0.064,-0.117 0.076,-0.199 0.012,-0.084 0.006,-0.157 -0.019,-0.22 -0.028,-0.071 -0.075,-0.114 -0.14,-0.127zm0.54 0.459c-0.003,0 -0.008,0 -0.013,0.001l-0.007 0.001 -0.007 0c0.008,-0.007 0.017,-0.01 0.028,-0.01 0.006,0 0.01,0.001 0.015,0.003 0.005,0.002 0.009,0.005 0.012,0.01 -0.009,-0.003 -0.018,-0.004 -0.026,-0.004zm-0.226 -0.14c-0.006,0.007 -0.012,0.013 -0.017,0.019 -0.012,0.015 -0.022,0.029 -0.029,0.041 -0.009,0.015 -0.015,0.031 -0.02,0.047 -0.004,0.016 -0.006,0.034 -0.006,0.052l-0.002 -0.013 -0 -0.006 0 -0.007 0 -0.006 0 -0.007 0.001 -0.006 0.001 -0.007c0.003,-0.017 0.009,-0.034 0.018,-0.05 0.009,-0.015 0.019,-0.029 0.031,-0.041 0.006,-0.006 0.012,-0.012 0.019,-0.018l0.01 -0.008c0.004,-0.003 0.007,-0.005 0.01,-0.007l-0.009 0.009 -0.009 0.009zm0.039 -0.276c-0.007,0.003 -0.015,0.007 -0.022,0.012 -0.015,0.008 -0.028,0.018 -0.04,0.028 -0.013,0.01 -0.024,0.023 -0.035,0.036 -0.005,0.007 -0.01,0.014 -0.013,0.022 -0.004,0.008 -0.007,0.017 -0.008,0.025 -0.001,-0.015 0.005,-0.032 0.017,-0.05 0.009,-0.014 0.021,-0.027 0.034,-0.039 0.014,-0.012 0.028,-0.021 0.043,-0.028 0.008,-0.004 0.016,-0.007 0.023,-0.009 0.009,-0.003 0.017,-0.005 0.024,-0.006l-0.012 0.004c-0.005,0.002 -0.008,0.003 -0.012,0.005zm0.148 0.387c-0.022,0.009 -0.043,0.013 -0.062,0.012 -0.016,-0.001 -0.025,-0.005 -0.029,-0.012 -0.001,-0.003 -0.002,-0.006 -0.002,-0.01 -0,-0.005 0.001,-0.01 0.004,-0.015 0.006,-0.014 0.022,-0.029 0.046,-0.045 0.032,-0.021 0.058,-0.047 0.079,-0.079 0.021,-0.031 0.034,-0.063 0.04,-0.097 0.006,-0.035 0.004,-0.066 -0.008,-0.095 -0.012,-0.031 -0.034,-0.054 -0.064,-0.071 -0.036,-0.02 -0.075,-0.026 -0.116,-0.02 -0.036,0.005 -0.07,0.019 -0.103,0.042 -0.03,0.022 -0.053,0.047 -0.068,0.075 -0.015,0.029 -0.018,0.054 -0.01,0.076 0.008,0.021 0.024,0.034 0.046,0.038 0.023,0.004 0.052,-0.003 0.085,-0.019 0.018,-0.009 0.031,-0.015 0.039,-0.017 0.007,-0.001 0.013,-0 0.017,0.004 0.008,0.009 -0.002,0.022 -0.03,0.04 -0.052,0.033 -0.091,0.069 -0.117,0.108 -0.033,0.05 -0.043,0.103 -0.031,0.159 0.009,0.039 0.034,0.069 0.077,0.087 0.034,0.015 0.078,0.023 0.132,0.023 0.053,0 0.097,-0.008 0.131,-0.023 0.035,-0.016 0.055,-0.039 0.06,-0.068 0.003,-0.014 0.002,-0.029 -0.002,-0.043 -0.004,-0.015 -0.012,-0.027 -0.022,-0.038 -0.011,-0.011 -0.024,-0.018 -0.038,-0.02 -0.017,-0.003 -0.034,-0 -0.053,0.008zm0.264 -0.391c-0.007,0.003 -0.013,0.006 -0.019,0.01 -0.006,0.003 -0.012,0.008 -0.017,0.013 -0.012,0.009 -0.021,0.02 -0.027,0.033 -0.007,0.015 -0.012,0.029 -0.012,0.043 -0.002,-0.015 0,-0.031 0.007,-0.046 0.006,-0.014 0.015,-0.026 0.028,-0.037 0.012,-0.01 0.025,-0.017 0.039,-0.022 0.015,-0.005 0.029,-0.006 0.043,-0.004 -0.014,0.001 -0.027,0.004 -0.041,0.01zm0.148 0.051c-0.012,-0.034 -0.03,-0.059 -0.052,-0.075 -0.02,-0.014 -0.042,-0.02 -0.067,-0.019 -0.023,0.001 -0.045,0.008 -0.066,0.021 -0.021,0.012 -0.036,0.027 -0.047,0.045 -0.009,0.015 -0.016,0.03 -0.019,0.047 -0.003,0.016 -0.003,0.031 -0,0.044 0.003,0.014 0.009,0.024 0.018,0.031 0.009,0.008 0.021,0.01 0.034,0.008 0.016,-0.002 0.028,0.01 0.034,0.038 0.002,0.01 0.004,0.023 0.006,0.037 0.001,0.005 0.001,0.012 0.002,0.018l0 0.008 0 0.008c0.002,0.042 0.002,0.085 -0.002,0.13 -0.001,0.014 -0.003,0.031 -0.005,0.051l-0.001 0.011 -0.001 0.011c-0.001,0.008 -0.001,0.015 -0.002,0.02 -0.002,0.027 -0.002,0.047 0.001,0.058 0.004,0.015 0.014,0.024 0.029,0.029 0.029,0.009 0.056,-0.006 0.08,-0.044 0.022,-0.034 0.04,-0.083 0.055,-0.146 0.013,-0.06 0.02,-0.12 0.021,-0.182 0.001,-0.063 -0.005,-0.113 -0.018,-0.15zm0.308 0.181c-0.006,0.001 -0.012,0.003 -0.018,0.006l-0.004 0.002 -0.004 0.003c-0.004,0.002 -0.007,0.003 -0.01,0.004 -0.007,0.002 -0.013,0.003 -0.02,0.002l0.01 -0.003c0.004,-0.001 0.007,-0.003 0.009,-0.004l0.004 -0.002 0.004 -0.002c0.003,-0.002 0.006,-0.004 0.009,-0.005 0.007,-0.003 0.014,-0.005 0.02,-0.005 0.008,-0 0.015,0.001 0.02,0.006 -0.006,-0.001 -0.013,-0.001 -0.019,0zm-0.183 0.013c-0.006,0 -0.011,0.001 -0.016,0.001 -0.006,0 -0.011,0.001 -0.015,0.003 -0.003,0.001 -0.005,0.003 -0.006,0.004 -0.001,0.001 -0.002,0.004 -0.004,0.007 -0,-0.004 0,-0.007 0.001,-0.009 0.002,-0.003 0.004,-0.005 0.007,-0.007 0.004,-0.002 0.01,-0.004 0.017,-0.005 0.007,-0.001 0.012,-0 0.017,0 0.006,0.001 0.012,0.002 0.016,0.003 -0.005,0.001 -0.01,0.002 -0.017,0.002zm0.143 -0.032c-0.011,0.006 -0.029,0.009 -0.054,0.008 -0.008,-0.001 -0.019,-0.002 -0.033,-0.004l-0.017 -0.002c-0.006,-0.001 -0.012,-0.001 -0.017,-0.002 -0.026,-0.002 -0.046,-0.001 -0.059,0.004 -0.018,0.006 -0.028,0.019 -0.03,0.038 -0.004,0.025 0.007,0.046 0.031,0.065 0.022,0.017 0.051,0.028 0.088,0.035 0.036,0.006 0.07,0.006 0.103,-0 0.035,-0.007 0.061,-0.02 0.076,-0.04 0.011,-0.014 0.017,-0.029 0.018,-0.047 0.001,-0.016 -0.004,-0.031 -0.013,-0.044 -0.009,-0.013 -0.022,-0.021 -0.037,-0.023 -0.017,-0.003 -0.035,0.001 -0.055,0.012zm0.289 -0.217c-0.019,0.003 -0.034,0.006 -0.045,0.01 -0.018,0.005 -0.031,0.012 -0.042,0.019 -0.008,0.005 -0.013,0.011 -0.017,0.016 -0.004,0.006 -0.007,0.014 -0.007,0.023 -0.002,-0.009 -0.001,-0.017 0.004,-0.026 0.003,-0.007 0.009,-0.013 0.017,-0.019 0.011,-0.008 0.025,-0.016 0.043,-0.022 0.029,-0.009 0.061,-0.011 0.094,-0.008 -0.017,0.002 -0.033,0.004 -0.047,0.006zm0.076 -0.039c-0.065,-0.004 -0.117,0.004 -0.158,0.023 -0.043,0.02 -0.062,0.049 -0.059,0.087 0.002,0.021 0.01,0.036 0.025,0.046 0.011,0.007 0.027,0.012 0.048,0.014l0.013 0.001 0.013 0.001c0.01,0.001 0.018,0.002 0.024,0.004 0.016,0.004 0.026,0.011 0.03,0.022 0.002,0.006 -0,0.044 -0.007,0.113 -0.004,0.035 -0.006,0.065 -0.007,0.089 -0.002,0.035 -0.001,0.065 0.001,0.091 0.003,0.039 0.016,0.071 0.037,0.095 0.022,0.026 0.049,0.036 0.08,0.032 0.057,-0.008 0.078,-0.07 0.062,-0.185 -0.008,-0.061 -0.012,-0.112 -0.013,-0.155 -0.001,-0.046 0.003,-0.073 0.012,-0.08 0.006,-0.005 0.016,-0.008 0.031,-0.008 0.004,0 0.011,0 0.021,0l0.011 0 0.011 -0c0.017,-0 0.031,-0.003 0.041,-0.008 0.013,-0.007 0.022,-0.018 0.026,-0.033 0.005,-0.019 0.003,-0.038 -0.008,-0.056 -0.01,-0.017 -0.027,-0.031 -0.05,-0.045 -0.047,-0.027 -0.108,-0.042 -0.182,-0.047zm0.594 0.068c-0.007,0.009 -0.014,0.019 -0.021,0.031 -0.013,0.021 -0.023,0.044 -0.032,0.069l-0.006 0.018 -0.006 0.019c-0.005,0.016 -0.01,0.029 -0.013,0.037 -0.006,0.016 -0.012,0.028 -0.018,0.035 -0.004,0.006 -0.01,0.009 -0.015,0.011 -0.005,0.002 -0.011,0.003 -0.018,0.002 0.007,-0 0.013,-0.002 0.018,-0.004 0.005,-0.003 0.009,-0.007 0.013,-0.013 0.005,-0.007 0.01,-0.019 0.015,-0.034l0.006 -0.019 0.006 -0.019c0.004,-0.015 0.009,-0.027 0.012,-0.037 0.01,-0.027 0.021,-0.05 0.035,-0.07 0.017,-0.026 0.035,-0.044 0.053,-0.054 -0.01,0.007 -0.019,0.016 -0.027,0.026zm-0.264 0.1c-0.004,0.018 -0.007,0.039 -0.01,0.063l-0.004 0.032 -0.004 0.031c-0.002,-0.063 0.004,-0.119 0.02,-0.168 0.003,-0.01 0.006,-0.019 0.009,-0.026 0.005,-0.01 0.009,-0.019 0.014,-0.026 0.013,-0.019 0.028,-0.028 0.045,-0.027 -0.02,0.002 -0.037,0.018 -0.05,0.048 -0.005,0.011 -0.009,0.024 -0.013,0.039 -0.002,0.005 -0.003,0.012 -0.004,0.019l-0.002 0.009 -0.001 0.004 -0.001 0.004zm0.365 -0.155c-0.032,-0.021 -0.065,-0.02 -0.099,0.005 -0.028,0.02 -0.052,0.053 -0.073,0.097 -0.007,0.014 -0.014,0.031 -0.02,0.05 -0.002,0.007 -0.005,0.015 -0.008,0.024l-0.004 0.011 -0.002 0.005 -0.002 0.005c-0.005,0.016 -0.009,0.027 -0.012,0.033 -0.004,0.008 -0.007,0.012 -0.011,0.012 -0.007,-0.001 -0.011,-0.006 -0.011,-0.017 -0.001,-0.01 0.001,-0.032 0.006,-0.067 0.009,-0.063 0.005,-0.108 -0.012,-0.134 -0.013,-0.021 -0.033,-0.029 -0.061,-0.025 -0.034,0.005 -0.061,0.04 -0.081,0.104 -0.019,0.063 -0.027,0.139 -0.025,0.229 0.005,0.166 0.05,0.255 0.135,0.267 0.025,0.003 0.05,-0.003 0.074,-0.019 0.023,-0.015 0.043,-0.037 0.059,-0.064 0.014,-0.024 0.027,-0.046 0.037,-0.067 0.004,-0.008 0.007,-0.016 0.01,-0.023 0.002,-0.005 0.005,-0.011 0.007,-0.017 0.004,-0.011 0.007,-0.017 0.008,-0.019 0.002,-0.003 0.005,-0.004 0.008,-0.003 0.003,0.001 0.004,0.013 0.001,0.036l-0.001 0.008 -0.001 0.008c-0.001,0.007 -0.001,0.013 -0.002,0.018 -0.001,0.015 -0.002,0.028 -0.003,0.039 -0.001,0.07 0.022,0.105 0.069,0.105 0.03,-0 0.054,-0.028 0.072,-0.085 0.015,-0.051 0.023,-0.114 0.023,-0.191 0,-0.075 -0.007,-0.143 -0.022,-0.204 -0.016,-0.066 -0.037,-0.107 -0.062,-0.125zm0.56 0.369c-0.006,0.005 -0.011,0.008 -0.017,0.01 -0.007,0.002 -0.013,0.002 -0.019,0 0.012,-0.003 0.023,-0.009 0.032,-0.017 0.007,-0.006 0.015,-0.016 0.024,-0.028 -0.002,0.014 -0.008,0.026 -0.02,0.035zm-0.043 -0.025c-0.006,-0.003 -0.01,-0.008 -0.012,-0.016 -0.002,-0.008 -0.002,-0.016 0.001,-0.025 0.003,-0.009 0.008,-0.016 0.015,-0.02 0.007,-0.004 0.013,-0.005 0.019,-0.003 0.006,0.003 0.01,0.008 0.012,0.016 0.002,0.008 0.001,0.017 -0.002,0.026 -0.003,0.009 -0.008,0.015 -0.015,0.02 -0.007,0.004 -0.013,0.005 -0.019,0.003zm-0.064 -0.233c-0.01,0.015 -0.022,0.035 -0.037,0.06 -0.005,0.009 -0.01,0.019 -0.017,0.031l-0.017 0.032c0.008,-0.021 0.017,-0.043 0.028,-0.066 0.01,-0.021 0.022,-0.042 0.035,-0.062 0.015,-0.023 0.03,-0.041 0.044,-0.055l0.006 -0.006c0.002,-0.002 0.004,-0.004 0.006,-0.006l0.007 -0.006 0.007 -0.005c0.013,-0.007 0.023,-0.01 0.032,-0.01 -0.009,0.001 -0.019,0.005 -0.03,0.013l-0.006 0.005 -0.006 0.006c-0.002,0.001 -0.004,0.003 -0.006,0.006l-0.006 0.006c-0.014,0.015 -0.028,0.034 -0.042,0.055zm0.106 -0.125c-0.035,-0.006 -0.073,0.02 -0.117,0.078 -0.039,0.052 -0.074,0.118 -0.105,0.199 -0.031,0.08 -0.049,0.152 -0.054,0.214 -0.006,0.068 0.007,0.109 0.037,0.121 0.023,0.01 0.044,0.009 0.066,-0.001 0.016,-0.008 0.033,-0.021 0.051,-0.042 0.003,-0.004 0.007,-0.009 0.011,-0.013l0.01 -0.013c0.009,-0.011 0.015,-0.019 0.019,-0.024 0.014,-0.016 0.026,-0.024 0.035,-0.024 0.01,0 0.022,0.008 0.037,0.023 0.004,0.005 0.011,0.012 0.02,0.023l0.011 0.012 0.011 0.013c0.018,0.019 0.034,0.032 0.049,0.039 0.019,0.009 0.039,0.009 0.058,-0.001 0.023,-0.011 0.036,-0.048 0.039,-0.11 0.003,-0.058 -0.003,-0.124 -0.018,-0.199 -0.015,-0.077 -0.036,-0.142 -0.063,-0.195 -0.03,-0.059 -0.063,-0.092 -0.097,-0.098zm0.486 0.256c-0.003,0.008 -0.007,0.016 -0.014,0.022 -0.006,0.007 -0.013,0.012 -0.02,0.015 -0.008,0.003 -0.016,0.004 -0.024,0.003 0.008,-0.002 0.015,-0.005 0.021,-0.009 0.007,-0.004 0.012,-0.009 0.017,-0.015 0.01,-0.011 0.018,-0.025 0.023,-0.042 0.001,0.008 -0,0.017 -0.004,0.026zm-0.072 -0.037c0.004,-0.009 0.01,-0.015 0.016,-0.019 0.007,-0.004 0.013,-0.004 0.019,-0.001 0.006,0.003 0.009,0.009 0.01,0.017 0.001,0.008 -0,0.017 -0.004,0.025 -0.004,0.009 -0.009,0.015 -0.016,0.019 -0.007,0.004 -0.013,0.004 -0.019,0.001 -0.006,-0.003 -0.009,-0.009 -0.01,-0.017 -0.001,-0.008 0,-0.017 0.004,-0.025zm-0.061 -0.171c-0.018,0.009 -0.034,0.021 -0.047,0.037 -0.012,0.014 -0.023,0.031 -0.032,0.052 -0.007,0.016 -0.014,0.036 -0.02,0.06 0.001,-0.009 0.002,-0.019 0.005,-0.032 0.003,-0.011 0.006,-0.021 0.01,-0.031 0.008,-0.021 0.018,-0.039 0.032,-0.055 0.014,-0.017 0.031,-0.029 0.05,-0.037 0.009,-0.004 0.019,-0.007 0.029,-0.009 0.011,-0.002 0.021,-0.003 0.03,-0.003 -0.022,0.004 -0.041,0.009 -0.057,0.017zm0.074 -0.051c-0.053,-0.001 -0.097,0.015 -0.132,0.048 -0.031,0.029 -0.053,0.069 -0.066,0.122 -0.012,0.048 -0.015,0.1 -0.009,0.157 0.006,0.055 0.018,0.106 0.039,0.154 0.02,0.045 0.041,0.081 0.066,0.105 0.021,0.022 0.043,0.033 0.064,0.035 0.019,0.002 0.036,-0.004 0.05,-0.019 0.014,-0.014 0.022,-0.034 0.025,-0.058 0.002,-0.017 0.002,-0.036 -0.001,-0.057 -0.001,-0.006 -0.003,-0.015 -0.004,-0.026l-0.002 -0.012c-0.001,-0.004 -0.001,-0.008 -0.002,-0.011 -0.002,-0.017 -0.002,-0.03 0.001,-0.039 0.003,-0.012 0.012,-0.021 0.025,-0.028 0.043,-0.022 0.075,-0.054 0.097,-0.096 0.021,-0.039 0.028,-0.08 0.023,-0.122 -0.005,-0.043 -0.022,-0.078 -0.051,-0.106 -0.031,-0.03 -0.072,-0.045 -0.123,-0.046zm0.481 0.433c-0.005,0.008 -0.011,0.014 -0.019,0.018 -0.008,0.004 -0.016,0.005 -0.024,0.003 0.016,-0.003 0.029,-0.012 0.037,-0.026 0.004,-0.006 0.007,-0.013 0.009,-0.022 0.001,-0.008 0.002,-0.016 0.002,-0.026 0.003,0.008 0.004,0.017 0.004,0.026 -0.001,0.009 -0.003,0.018 -0.008,0.026zm-0.07 -0.033c-0.004,-0.008 -0.005,-0.017 -0.004,-0.025 0.001,-0.008 0.004,-0.014 0.01,-0.017 0.006,-0.003 0.012,-0.003 0.019,0.001 0.007,0.004 0.012,0.01 0.016,0.018 0.004,0.009 0.005,0.017 0.004,0.025 -0.001,0.008 -0.004,0.014 -0.01,0.017 -0.006,0.003 -0.012,0.003 -0.018,-0.001 -0.007,-0.004 -0.012,-0.01 -0.016,-0.019zm-0.037 -0.358c-0.005,0.003 -0.01,0.006 -0.017,0.012 -0.009,0.008 -0.018,0.019 -0.027,0.031 -0.007,0.009 -0.015,0.02 -0.023,0.035 -0.003,0.005 -0.007,0.011 -0.011,0.019l-0.01 0.019c0.005,-0.016 0.011,-0.03 0.016,-0.04 0.007,-0.014 0.014,-0.026 0.023,-0.037 0.01,-0.013 0.02,-0.023 0.03,-0.031 0.014,-0.01 0.026,-0.014 0.039,-0.013 -0.006,0.001 -0.013,0.004 -0.019,0.007zm0.103 0.209c-0.014,-0.004 -0.022,-0.012 -0.026,-0.024 -0.003,-0.009 -0.003,-0.022 -0,-0.039 0.001,-0.003 0.001,-0.007 0.002,-0.012l0.002 -0.012c0.002,-0.011 0.004,-0.02 0.005,-0.027 0.003,-0.022 0.004,-0.041 0.002,-0.058 -0.003,-0.024 -0.011,-0.043 -0.025,-0.057 -0.014,-0.014 -0.031,-0.021 -0.051,-0.019 -0.021,0.002 -0.043,0.014 -0.064,0.035 -0.024,0.024 -0.046,0.059 -0.066,0.105 -0.02,0.047 -0.033,0.098 -0.039,0.153 -0.006,0.057 -0.003,0.109 0.009,0.157 0.013,0.052 0.035,0.092 0.066,0.122 0.035,0.032 0.079,0.048 0.132,0.048 0.051,-0.001 0.093,-0.017 0.126,-0.05 0.03,-0.03 0.049,-0.067 0.055,-0.112 0.006,-0.045 -0.001,-0.086 -0.022,-0.124 -0.023,-0.041 -0.058,-0.069 -0.106,-0.085zm0.166 -0.199c-0.004,0.004 -0.008,0.01 -0.01,0.016 -0.002,0.006 -0.003,0.013 -0.004,0.02 -0.001,0.011 0.001,0.025 0.003,0.043l0.004 0.021 0.004 0.022c-0.006,-0.015 -0.01,-0.029 -0.013,-0.042 -0.004,-0.017 -0.006,-0.031 -0.005,-0.044 0.001,-0.009 0.002,-0.016 0.004,-0.023 0.003,-0.008 0.007,-0.015 0.013,-0.019 0.011,-0.009 0.024,-0.013 0.039,-0.011 -0.015,0.002 -0.027,0.007 -0.035,0.016zm0.139 0.024c-0.011,-0.023 -0.026,-0.041 -0.044,-0.054 -0.016,-0.012 -0.034,-0.018 -0.052,-0.019 -0.018,-0.001 -0.034,0.002 -0.049,0.01 -0.015,0.008 -0.026,0.019 -0.033,0.033 -0.013,0.027 -0.012,0.067 0.001,0.119 0.002,0.008 0.005,0.019 0.009,0.033l0.005 0.017 0.005 0.016c0.007,0.026 0.012,0.048 0.013,0.065 0.004,0.042 0.006,0.085 0.006,0.129 -0,0.014 -0.001,0.031 -0.002,0.05l-0 0.011 -0 0.011c-0.001,0.008 -0.001,0.015 -0.001,0.02 -0.001,0.027 0.001,0.046 0.004,0.058 0.005,0.014 0.015,0.023 0.029,0.027 0.029,0.007 0.055,-0.009 0.078,-0.05 0.021,-0.036 0.037,-0.086 0.047,-0.15 0.011,-0.061 0.015,-0.122 0.012,-0.182 -0.003,-0.063 -0.012,-0.112 -0.029,-0.145zm0.418 -0.03c-0.004,0.002 -0.007,0.005 -0.01,0.009 -0.004,0.006 -0.008,0.016 -0.01,0.028 -0.003,0.016 -0.004,0.037 -0.004,0.062l0 0.008 0 0.008c0,0.006 0,0.012 -0,0.016 -0.001,0.012 -0.004,0.022 -0.008,0.032 -0.004,0.01 -0.01,0.019 -0.017,0.026 -0.008,0.008 -0.016,0.013 -0.025,0.016 0.018,-0.009 0.03,-0.024 0.037,-0.044 0.003,-0.01 0.005,-0.02 0.006,-0.03 0,-0.004 0,-0.009 0,-0.015l-0 -0.008 0 -0.008c-0,-0.026 0.001,-0.047 0.005,-0.063 0.003,-0.013 0.008,-0.023 0.014,-0.029 0.004,-0.004 0.008,-0.007 0.013,-0.009 0.004,-0.001 0.009,-0.002 0.014,-0.002 -0.006,0.001 -0.01,0.002 -0.014,0.004zm-0.268 0.011c-0.009,0.011 -0.016,0.024 -0.021,0.039 -0.004,0.013 -0.008,0.028 -0.012,0.046l-0.005 0.023 -0.005 0.023c0.001,-0.032 0.006,-0.064 0.015,-0.095 0.006,-0.017 0.014,-0.031 0.024,-0.041 0.006,-0.006 0.012,-0.011 0.019,-0.013 0.008,-0.003 0.015,-0.004 0.022,-0.003 -0.014,0.001 -0.026,0.009 -0.037,0.021zm0.28 -0.048c-0.027,0.002 -0.046,0.015 -0.057,0.04 -0.011,0.024 -0.016,0.061 -0.013,0.111 0.001,0.022 -0.004,0.038 -0.013,0.049 -0.008,0.01 -0.018,0.014 -0.031,0.013 -0.013,-0.001 -0.023,-0.007 -0.029,-0.018 -0.007,-0.011 -0.009,-0.026 -0.008,-0.044 0.005,-0.051 0,-0.089 -0.014,-0.115 -0.013,-0.023 -0.034,-0.037 -0.064,-0.042 -0.024,-0.004 -0.045,0.002 -0.065,0.018 -0.018,0.015 -0.032,0.037 -0.041,0.065 -0.017,0.054 -0.025,0.118 -0.026,0.191 -0.001,0.071 0.006,0.138 0.02,0.202 0.01,0.048 0.027,0.082 0.05,0.102 0.019,0.017 0.04,0.024 0.062,0.02 0.051,-0.008 0.074,-0.049 0.069,-0.122 -0.004,-0.053 0.007,-0.08 0.031,-0.08 0.012,0 0.021,0.005 0.028,0.015 0.009,0.013 0.012,0.034 0.011,0.062 -0.002,0.048 0.005,0.084 0.021,0.109 0.015,0.023 0.036,0.035 0.064,0.035 0.047,0 0.08,-0.032 0.099,-0.096 0.014,-0.046 0.022,-0.123 0.025,-0.229 0.002,-0.082 -0.007,-0.151 -0.029,-0.206 -0.022,-0.057 -0.052,-0.085 -0.09,-0.083zm-5.032 0.961c-0.007,0.003 -0.013,0.006 -0.019,0.01 -0.006,0.003 -0.012,0.008 -0.017,0.013 -0.012,0.009 -0.021,0.02 -0.027,0.033 -0.007,0.015 -0.012,0.029 -0.012,0.043 -0.002,-0.015 0,-0.031 0.007,-0.046 0.006,-0.014 0.015,-0.026 0.028,-0.037 0.012,-0.01 0.025,-0.017 0.039,-0.022 0.015,-0.005 0.029,-0.006 0.043,-0.004 -0.014,0.001 -0.027,0.004 -0.041,0.01zm0.148 0.051c-0.012,-0.034 -0.03,-0.059 -0.052,-0.075 -0.02,-0.014 -0.042,-0.02 -0.067,-0.019 -0.023,0.001 -0.045,0.008 -0.066,0.021 -0.021,0.012 -0.036,0.027 -0.047,0.045 -0.009,0.015 -0.016,0.03 -0.019,0.047 -0.003,0.016 -0.003,0.031 -0,0.044 0.003,0.014 0.009,0.024 0.018,0.031 0.009,0.008 0.021,0.01 0.034,0.008 0.016,-0.002 0.028,0.01 0.034,0.038 0.002,0.01 0.004,0.023 0.006,0.037 0.001,0.005 0.001,0.012 0.002,0.018l0 0.008 0 0.008c0.002,0.042 0.002,0.085 -0.002,0.13 -0.001,0.014 -0.003,0.031 -0.005,0.051l-0.001 0.011 -0.001 0.011c-0.001,0.008 -0.001,0.015 -0.002,0.02 -0.002,0.027 -0.002,0.047 0.001,0.058 0.004,0.015 0.014,0.024 0.029,0.029 0.029,0.009 0.056,-0.006 0.08,-0.044 0.022,-0.034 0.04,-0.083 0.055,-0.146 0.013,-0.06 0.02,-0.12 0.021,-0.182 0.001,-0.063 -0.005,-0.113 -0.018,-0.15z"/>
   <path class="fil1" d="M0.562 1.345c-0.006,0.001 -0.012,0.003 -0.018,0.006l-0.004 0.002 -0.005 0.003c-0.004,0.002 -0.007,0.003 -0.01,0.004 -0.007,0.002 -0.013,0.003 -0.02,0.002l0.01 -0.003c0.004,-0.001 0.007,-0.003 0.009,-0.004l0.004 -0.002 0.004 -0.002c0.003,-0.002 0.006,-0.004 0.009,-0.005 0.007,-0.003 0.014,-0.005 0.02,-0.005 0.008,-0 0.015,0.001 0.02,0.006 -0.006,-0.001 -0.013,-0.001 -0.019,0zm-0.183 0.013c-0.006,0 -0.011,0.001 -0.016,0.001 -0.006,0 -0.011,0.001 -0.015,0.003 -0.003,0.001 -0.005,0.003 -0.006,0.004 -0.001,0.001 -0.002,0.004 -0.004,0.007 -0,-0.004 0,-0.007 0.001,-0.009 0.002,-0.003 0.004,-0.005 0.007,-0.007 0.004,-0.002 0.01,-0.004 0.017,-0.005 0.007,-0.001 0.012,-0 0.017,0 0.006,0.001 0.012,0.002 0.016,0.003 -0.005,0.001 -0.01,0.002 -0.017,0.002zm0.143 -0.032c-0.011,0.006 -0.029,0.009 -0.054,0.008 -0.008,-0.001 -0.019,-0.002 -0.033,-0.004l-0.017 -0.002c-0.006,-0.001 -0.012,-0.001 -0.017,-0.002 -0.026,-0.002 -0.046,-0.001 -0.059,0.004 -0.018,0.006 -0.028,0.019 -0.03,0.038 -0.004,0.025 0.007,0.046 0.031,0.065 0.022,0.017 0.051,0.028 0.088,0.035 0.036,0.006 0.07,0.006 0.103,-0 0.035,-0.007 0.061,-0.02 0.076,-0.04 0.011,-0.014 0.017,-0.029 0.018,-0.047 0.001,-0.016 -0.004,-0.031 -0.013,-0.044 -0.009,-0.013 -0.022,-0.021 -0.037,-0.023 -0.017,-0.003 -0.035,0.001 -0.055,0.012zm0.289 -0.217c-0.019,0.003 -0.034,0.006 -0.045,0.01 -0.018,0.005 -0.031,0.012 -0.042,0.019 -0.008,0.005 -0.013,0.011 -0.017,0.016 -0.004,0.006 -0.007,0.014 -0.007,0.023 -0.002,-0.009 -0.001,-0.017 0.004,-0.026 0.003,-0.007 0.009,-0.013 0.017,-0.019 0.011,-0.008 0.025,-0.016 0.043,-0.022 0.029,-0.009 0.061,-0.011 0.094,-0.008 -0.017,0.002 -0.033,0.004 -0.047,0.006zm0.076 -0.039c-0.065,-0.004 -0.117,0.004 -0.158,0.023 -0.043,0.02 -0.062,0.049 -0.059,0.087 0.002,0.021 0.01,0.036 0.025,0.046 0.011,0.007 0.027,0.012 0.048,0.014l0.013 0.001 0.013 0.001c0.01,0.001 0.018,0.002 0.024,0.004 0.016,0.004 0.026,0.011 0.03,0.022 0.002,0.006 -0,0.044 -0.007,0.113 -0.004,0.035 -0.006,0.065 -0.007,0.089 -0.002,0.035 -0.001,0.065 0.001,0.091 0.003,0.039 0.016,0.071 0.037,0.095 0.022,0.026 0.049,0.036 0.08,0.032 0.057,-0.008 0.078,-0.07 0.062,-0.185 -0.008,-0.061 -0.012,-0.112 -0.013,-0.155 -0.001,-0.046 0.003,-0.073 0.012,-0.08 0.006,-0.005 0.016,-0.008 0.031,-0.008 0.004,0 0.011,0 0.021,0l0.011 0 0.011 -0c0.017,-0 0.031,-0.003 0.041,-0.008 0.013,-0.007 0.022,-0.018 0.026,-0.033 0.005,-0.019 0.003,-0.038 -0.008,-0.056 -0.01,-0.017 -0.027,-0.031 -0.05,-0.045 -0.047,-0.027 -0.108,-0.042 -0.182,-0.047zm0.594 0.068c-0.007,0.009 -0.014,0.019 -0.021,0.031 -0.013,0.021 -0.023,0.044 -0.032,0.069l-0.006 0.018 -0.006 0.019c-0.005,0.016 -0.01,0.029 -0.013,0.037 -0.006,0.016 -0.013,0.028 -0.018,0.035 -0.004,0.006 -0.009,0.009 -0.015,0.011 -0.005,0.002 -0.011,0.003 -0.018,0.002 0.007,-0 0.013,-0.002 0.018,-0.004 0.005,-0.003 0.009,-0.007 0.013,-0.013 0.005,-0.007 0.01,-0.019 0.015,-0.034l0.006 -0.019 0.006 -0.019c0.004,-0.015 0.009,-0.027 0.012,-0.037 0.01,-0.027 0.021,-0.05 0.035,-0.07 0.017,-0.026 0.035,-0.044 0.053,-0.054 -0.01,0.007 -0.019,0.016 -0.027,0.026zm-0.263 0.1c-0.004,0.018 -0.007,0.039 -0.01,0.063l-0.004 0.032 -0.004 0.031c-0.002,-0.063 0.004,-0.119 0.02,-0.168 0.003,-0.01 0.006,-0.019 0.009,-0.026 0.005,-0.01 0.009,-0.019 0.014,-0.026 0.013,-0.019 0.028,-0.028 0.045,-0.027 -0.02,0.002 -0.037,0.018 -0.05,0.048 -0.005,0.011 -0.009,0.024 -0.013,0.039 -0.002,0.005 -0.003,0.012 -0.004,0.019l-0.002 0.009 -0.001 0.004 -0.001 0.004zm0.365 -0.155c-0.032,-0.021 -0.065,-0.02 -0.099,0.005 -0.028,0.02 -0.052,0.053 -0.073,0.097 -0.007,0.014 -0.014,0.031 -0.02,0.05 -0.002,0.007 -0.005,0.015 -0.008,0.024l-0.004 0.011 -0.002 0.005 -0.002 0.005c-0.005,0.016 -0.009,0.027 -0.012,0.033 -0.004,0.008 -0.007,0.012 -0.011,0.012 -0.007,-0.001 -0.011,-0.006 -0.011,-0.017 -0.001,-0.01 0.001,-0.032 0.006,-0.067 0.009,-0.063 0.005,-0.108 -0.012,-0.134 -0.013,-0.021 -0.033,-0.029 -0.061,-0.025 -0.034,0.005 -0.061,0.04 -0.081,0.104 -0.019,0.063 -0.027,0.139 -0.025,0.229 0.005,0.166 0.05,0.255 0.135,0.267 0.025,0.003 0.05,-0.003 0.074,-0.019 0.023,-0.015 0.043,-0.037 0.059,-0.064 0.014,-0.024 0.027,-0.046 0.037,-0.067 0.004,-0.008 0.007,-0.016 0.01,-0.023 0.002,-0.005 0.005,-0.011 0.007,-0.017 0.004,-0.011 0.007,-0.017 0.008,-0.019 0.002,-0.003 0.005,-0.004 0.008,-0.003 0.003,0.001 0.004,0.013 0.001,0.036l-0.001 0.008 -0.001 0.008c-0.001,0.007 -0.001,0.013 -0.002,0.018 -0.002,0.015 -0.002,0.028 -0.003,0.039 -0.001,0.07 0.022,0.105 0.069,0.105 0.03,-0 0.054,-0.028 0.072,-0.085 0.015,-0.051 0.023,-0.114 0.023,-0.191 0,-0.075 -0.007,-0.143 -0.022,-0.204 -0.016,-0.066 -0.037,-0.107 -0.062,-0.125zm0.569 0.407c-0.004,0.01 -0.011,0.017 -0.019,0.022 -0.009,0.005 -0.017,0.007 -0.027,0.005 0.009,-0.002 0.017,-0.005 0.023,-0.01 0.007,-0.006 0.012,-0.012 0.016,-0.02 0.007,-0.015 0.008,-0.033 0.004,-0.054 0.005,0.008 0.007,0.018 0.008,0.028 0.001,0.01 -0.001,0.02 -0.005,0.03zm-0.074 -0.026c-0.004,-0.008 -0.006,-0.017 -0.005,-0.025 0.001,-0.008 0.004,-0.014 0.01,-0.018 0.006,-0.003 0.012,-0.003 0.019,0 0.007,0.004 0.013,0.009 0.018,0.018 0.004,0.008 0.006,0.017 0.005,0.025 -0.001,0.008 -0.004,0.014 -0.009,0.018 -0.006,0.003 -0.012,0.003 -0.019,0 -0.007,-0.004 -0.013,-0.009 -0.018,-0.018zm-0.035 -0.18c0.006,-0.002 0.012,-0.004 0.018,-0.007 0.006,-0.004 0.01,-0.008 0.014,-0.012 0.004,-0.004 0.008,-0.01 0.012,-0.016 0.003,-0.005 0.006,-0.012 0.008,-0.019 0.001,0.015 -0.003,0.028 -0.014,0.04 -0.005,0.005 -0.011,0.009 -0.018,0.012 -0.007,0.003 -0.014,0.003 -0.02,0.002zm-0.008 -0.062c0.003,-0.006 0.007,-0.01 0.012,-0.012 0.004,-0.002 0.009,-0.002 0.012,0 0.003,0.002 0.005,0.006 0.006,0.012 0.001,0.005 -0.001,0.011 -0.004,0.016 -0.003,0.006 -0.007,0.01 -0.012,0.012 -0.004,0.002 -0.009,0.002 -0.012,0 -0.004,-0.002 -0.005,-0.006 -0.006,-0.012 -0.001,-0.005 0.001,-0.011 0.004,-0.016zm-0.068 -0.077c-0.006,0.007 -0.013,0.016 -0.02,0.026 -0.01,0.016 -0.019,0.036 -0.028,0.06 -0.006,0.019 -0.013,0.041 -0.019,0.065 0.002,-0.022 0.007,-0.045 0.013,-0.067 0.007,-0.023 0.016,-0.044 0.028,-0.063 0.013,-0.022 0.029,-0.038 0.046,-0.048 0.011,-0.007 0.021,-0.011 0.03,-0.014 0.011,-0.003 0.022,-0.004 0.031,-0.003 -0.022,0.002 -0.041,0.009 -0.058,0.022 -0.009,0.006 -0.017,0.014 -0.023,0.022zm0.171 0.165c-0.004,-0.002 -0.005,-0.007 -0.003,-0.014 0.001,-0.003 0.003,-0.007 0.006,-0.013l0.002 -0.004 0.002 -0.004c0.001,-0.003 0.003,-0.006 0.004,-0.009 0.007,-0.016 0.012,-0.031 0.015,-0.045 0.004,-0.021 0.005,-0.042 0.001,-0.064 -0.004,-0.024 -0.016,-0.045 -0.038,-0.062 -0.022,-0.017 -0.047,-0.026 -0.075,-0.027 -0.031,-0.001 -0.06,0.009 -0.086,0.028 -0.03,0.023 -0.054,0.058 -0.072,0.105 -0.018,0.049 -0.028,0.102 -0.029,0.159 -0.002,0.059 0.006,0.112 0.022,0.161 0.018,0.053 0.043,0.094 0.078,0.123 0.038,0.032 0.084,0.046 0.138,0.042 0.051,-0.004 0.092,-0.022 0.123,-0.054 0.028,-0.029 0.043,-0.066 0.046,-0.11 0.003,-0.043 -0.007,-0.084 -0.029,-0.122 -0.024,-0.041 -0.059,-0.072 -0.103,-0.091zm0.44 0.19c-0.005,0.008 -0.011,0.014 -0.019,0.018 -0.008,0.004 -0.016,0.005 -0.024,0.003 0.016,-0.003 0.029,-0.012 0.037,-0.026 0.004,-0.006 0.007,-0.013 0.009,-0.022 0.001,-0.008 0.002,-0.016 0.002,-0.026 0.003,0.008 0.004,0.017 0.004,0.026 -0.001,0.009 -0.003,0.018 -0.008,0.026zm-0.07 -0.033c-0.004,-0.008 -0.005,-0.017 -0.004,-0.025 0.001,-0.008 0.004,-0.014 0.01,-0.017 0.006,-0.003 0.012,-0.003 0.019,0.001 0.007,0.004 0.012,0.01 0.016,0.018 0.004,0.009 0.005,0.017 0.004,0.025 -0.001,0.008 -0.004,0.014 -0.01,0.017 -0.006,0.003 -0.012,0.003 -0.018,-0.001 -0.007,-0.004 -0.012,-0.01 -0.016,-0.019zm-0.037 -0.358c-0.005,0.003 -0.01,0.006 -0.017,0.012 -0.009,0.008 -0.018,0.019 -0.027,0.031 -0.007,0.009 -0.015,0.02 -0.023,0.035 -0.003,0.005 -0.007,0.011 -0.011,0.019l-0.01 0.019c0.005,-0.016 0.011,-0.03 0.016,-0.04 0.007,-0.014 0.014,-0.026 0.023,-0.037 0.01,-0.013 0.02,-0.023 0.03,-0.031 0.014,-0.01 0.026,-0.014 0.039,-0.013 -0.006,0.001 -0.013,0.004 -0.019,0.007zm0.103 0.209c-0.014,-0.004 -0.022,-0.012 -0.026,-0.024 -0.003,-0.009 -0.003,-0.022 -0,-0.039 0.001,-0.003 0.001,-0.007 0.002,-0.012l0.002 -0.012c0.002,-0.011 0.004,-0.02 0.005,-0.027 0.003,-0.022 0.004,-0.041 0.002,-0.058 -0.003,-0.024 -0.011,-0.043 -0.025,-0.057 -0.014,-0.014 -0.031,-0.021 -0.051,-0.019 -0.021,0.002 -0.043,0.014 -0.064,0.035 -0.024,0.024 -0.046,0.059 -0.066,0.105 -0.02,0.047 -0.033,0.098 -0.039,0.153 -0.006,0.057 -0.003,0.109 0.009,0.157 0.013,0.052 0.035,0.092 0.066,0.122 0.035,0.032 0.079,0.048 0.132,0.048 0.051,-0.001 0.093,-0.017 0.126,-0.05 0.03,-0.03 0.049,-0.067 0.055,-0.112 0.006,-0.045 -0.001,-0.086 -0.022,-0.124 -0.023,-0.041 -0.058,-0.069 -0.106,-0.085zm0.166 -0.199c-0.004,0.004 -0.008,0.01 -0.01,0.016 -0.002,0.006 -0.003,0.013 -0.004,0.02 -0.001,0.011 0.001,0.025 0.003,0.043l0.004 0.021 0.004 0.022c-0.006,-0.015 -0.01,-0.029 -0.013,-0.042 -0.004,-0.017 -0.006,-0.031 -0.005,-0.044 0.001,-0.009 0.002,-0.016 0.004,-0.023 0.003,-0.008 0.007,-0.015 0.013,-0.019 0.011,-0.009 0.024,-0.013 0.039,-0.011 -0.015,0.002 -0.027,0.007 -0.035,0.016zm0.139 0.024c-0.011,-0.023 -0.026,-0.041 -0.044,-0.054 -0.016,-0.012 -0.034,-0.018 -0.052,-0.019 -0.018,-0.001 -0.034,0.002 -0.049,0.01 -0.015,0.008 -0.026,0.019 -0.033,0.033 -0.013,0.027 -0.012,0.067 0.001,0.119 0.002,0.008 0.005,0.019 0.009,0.033l0.005 0.017 0.005 0.016c0.007,0.026 0.012,0.048 0.013,0.065 0.004,0.042 0.006,0.085 0.006,0.129 -0,0.014 -0.001,0.031 -0.002,0.05l-0 0.011 -0 0.011c-0.001,0.008 -0.001,0.015 -0.001,0.02 -0.001,0.027 0.001,0.046 0.004,0.058 0.005,0.014 0.015,0.023 0.029,0.027 0.029,0.007 0.055,-0.009 0.078,-0.05 0.021,-0.036 0.037,-0.086 0.047,-0.15 0.011,-0.061 0.015,-0.122 0.012,-0.182 -0.003,-0.063 -0.012,-0.112 -0.029,-0.145zm0.214 -0.02c-0.002,0.001 -0.005,0.003 -0.008,0.004l-0.008 0.004 -0.008 0.005c-0.003,0.002 -0.006,0.004 -0.008,0.006 -0.009,0.006 -0.018,0.014 -0.028,0.024 -0.011,0.012 -0.019,0.022 -0.023,0.029 -0.013,0.02 -0.021,0.044 -0.026,0.072 -0.001,0.006 -0.002,0.012 -0.002,0.019l-0.001 0.02c-0.001,0.006 -0.001,0.012 -0.001,0.02l-0 0.02c-0.003,-0.028 -0.003,-0.055 -0.001,-0.08 0.003,-0.028 0.011,-0.054 0.025,-0.076l0.006 -0.008 0.006 -0.008c0.001,-0.002 0.003,-0.005 0.006,-0.007l0.004 -0.004 0.003 -0.004c0.012,-0.011 0.022,-0.019 0.03,-0.024 0.02,-0.014 0.043,-0.023 0.069,-0.027l-0.009 0.003 -0.009 0.003c-0.006,0.002 -0.012,0.005 -0.017,0.007zm0.28 0.081c-0.022,-0.052 -0.057,-0.089 -0.103,-0.113 -0.042,-0.021 -0.088,-0.027 -0.137,-0.018 -0.048,0.009 -0.089,0.03 -0.122,0.064 -0.036,0.036 -0.056,0.081 -0.061,0.133 -0.009,0.098 0.005,0.194 0.042,0.287 0.016,0.042 0.034,0.075 0.055,0.098 0.022,0.025 0.043,0.036 0.064,0.033 0.029,-0.004 0.047,-0.023 0.054,-0.056 0.007,-0.038 0.002,-0.103 -0.014,-0.196 -0.013,-0.074 -0.005,-0.112 0.023,-0.116 0.016,-0.002 0.028,0.011 0.037,0.039 0.008,0.026 0.011,0.059 0.01,0.098 -0.003,0.088 0.006,0.149 0.026,0.184 0.015,0.026 0.038,0.038 0.067,0.036 0.025,-0.001 0.046,-0.019 0.064,-0.052 0.016,-0.031 0.027,-0.071 0.033,-0.121 0.006,-0.05 0.006,-0.101 0,-0.153 -0.006,-0.055 -0.019,-0.104 -0.037,-0.147zm0.448 -0.089c-0.005,0.005 -0.011,0.012 -0.016,0.02 -0.008,0.012 -0.017,0.026 -0.027,0.045l-0.006 0.011 -0.006 0.012c-0.005,0.009 -0.01,0.016 -0.014,0.022 -0.006,0.009 -0.012,0.016 -0.016,0.021 -0.008,0.007 -0.015,0.011 -0.022,0.013 0.007,-0.003 0.014,-0.009 0.02,-0.016 0.004,-0.005 0.009,-0.012 0.014,-0.021 0.003,-0.005 0.007,-0.013 0.012,-0.023l0.013 -0.023c0.011,-0.019 0.02,-0.034 0.029,-0.045 0.006,-0.008 0.012,-0.014 0.018,-0.019 0.009,-0.007 0.016,-0.01 0.023,-0.01 -0.007,0.001 -0.014,0.006 -0.021,0.013zm-0.256 0.389c-0.007,0.005 -0.012,0.01 -0.016,0.013 -0.012,0.01 -0.022,0.019 -0.029,0.028 -0.004,0.006 -0.007,0.012 -0.01,0.018 -0.002,0.005 -0.004,0.012 -0.006,0.021 -0,-0.007 0,-0.014 0.002,-0.022 0.002,-0.007 0.005,-0.014 0.009,-0.02 0.006,-0.01 0.016,-0.021 0.029,-0.032 0.009,-0.007 0.02,-0.015 0.033,-0.024l0.009 -0.006 0.008 -0.006c0.007,-0.004 0.012,-0.008 0.017,-0.012 -0.007,0.009 -0.017,0.018 -0.031,0.028l-0.016 0.012zm-0.067 -0.351c-0.004,0.006 -0.007,0.013 -0.009,0.021 -0.002,0.007 -0.003,0.015 -0.003,0.024 -0.003,-0.008 -0.004,-0.016 -0.003,-0.025 0.001,-0.009 0.004,-0.017 0.009,-0.025 0.005,-0.008 0.011,-0.013 0.019,-0.016 0.008,-0.004 0.015,-0.005 0.023,-0.003 -0.016,0.004 -0.028,0.012 -0.036,0.025zm0.344 -0.083c-0.016,0 -0.032,0.008 -0.048,0.025 -0.012,0.012 -0.025,0.03 -0.039,0.054l-0.008 0.015 -0.004 0.007 -0.004 0.007c-0.006,0.012 -0.011,0.02 -0.014,0.025 -0.01,0.017 -0.018,0.025 -0.024,0.025 -0.006,0 -0.019,-0.011 -0.038,-0.034l-0.003 -0.004 -0.004 -0.004c-0.003,-0.003 -0.005,-0.006 -0.007,-0.008 -0.006,-0.007 -0.011,-0.013 -0.016,-0.018 -0.013,-0.014 -0.026,-0.027 -0.038,-0.038 -0.02,-0.018 -0.041,-0.026 -0.062,-0.026 -0.02,0 -0.037,0.007 -0.051,0.021 -0.015,0.014 -0.023,0.032 -0.027,0.053 -0.004,0.023 0.001,0.045 0.013,0.068 0.009,0.016 0.021,0.033 0.038,0.052 0.006,0.007 0.014,0.015 0.022,0.023l0.011 0.011 0.011 0.01c0.018,0.017 0.031,0.03 0.038,0.039 0.011,0.013 0.017,0.025 0.018,0.035 0.001,0.011 -0.005,0.022 -0.018,0.034 -0.005,0.004 -0.012,0.01 -0.021,0.016l-0.006 0.004 -0.006 0.004 -0.012 0.009c-0.02,0.015 -0.036,0.029 -0.046,0.043 -0.014,0.019 -0.022,0.041 -0.023,0.064 -0.001,0.018 0.002,0.035 0.009,0.051 0.007,0.015 0.017,0.028 0.03,0.038 0.03,0.021 0.067,0.025 0.111,0.01 0.059,-0.019 0.118,-0.075 0.177,-0.166 0.053,-0.082 0.087,-0.159 0.101,-0.233 0.015,-0.076 0.016,-0.131 0.002,-0.167 -0.011,-0.031 -0.032,-0.046 -0.063,-0.045zm0.448 0.377c-0.002,0.001 -0.005,0.004 -0.008,0.006l-0.004 0.003 -0.004 0.003c-0.007,0.005 -0.014,0.009 -0.021,0.01 -0.008,0.002 -0.015,0.003 -0.022,0.001 0.014,-0.003 0.026,-0.009 0.039,-0.018l0.004 -0.003 0.004 -0.003c0.004,-0.003 0.007,-0.005 0.01,-0.006 0.008,-0.004 0.015,-0.005 0.022,-0.003 -0.007,0.001 -0.013,0.004 -0.02,0.009zm-0.23 -0.287c-0.014,0.015 -0.026,0.034 -0.037,0.054 -0.009,0.018 -0.018,0.039 -0.026,0.063 0.004,-0.023 0.011,-0.045 0.02,-0.066 0.009,-0.021 0.021,-0.04 0.037,-0.057 0.016,-0.018 0.034,-0.031 0.053,-0.04 0.011,-0.004 0.021,-0.007 0.031,-0.009 0.012,-0.002 0.022,-0.002 0.032,-0.001 -0.023,0.002 -0.043,0.007 -0.061,0.016 -0.019,0.01 -0.036,0.023 -0.05,0.04zm0.316 0.333c-0.004,-0.045 -0.018,-0.073 -0.045,-0.084 -0.011,-0.005 -0.023,-0.006 -0.037,-0.003 -0.013,0.003 -0.025,0.01 -0.037,0.019 -0.011,0.009 -0.023,0.014 -0.036,0.012 -0.012,-0.001 -0.022,-0.007 -0.032,-0.018 -0.01,-0.011 -0.017,-0.025 -0.021,-0.042 -0.005,-0.019 -0.006,-0.039 -0.003,-0.061 0.004,-0.031 0.018,-0.049 0.042,-0.053 0.017,-0.003 0.041,0.002 0.072,0.014 0.013,0.005 0.026,0.005 0.037,-0.001 0.011,-0.005 0.019,-0.015 0.025,-0.028 0.006,-0.014 0.007,-0.029 0.005,-0.045 -0.002,-0.018 -0.009,-0.035 -0.02,-0.052 -0.024,-0.035 -0.056,-0.059 -0.095,-0.072 -0.036,-0.012 -0.072,-0.013 -0.109,-0.003 -0.047,0.012 -0.086,0.045 -0.117,0.098 -0.034,0.058 -0.051,0.13 -0.051,0.215 0,0.097 0.023,0.173 0.069,0.228 0.021,0.026 0.047,0.045 0.076,0.057 0.029,0.012 0.061,0.017 0.095,0.013 0.058,-0.005 0.104,-0.027 0.138,-0.067 0.033,-0.038 0.047,-0.081 0.043,-0.13zm0.306 -0.287c-0.011,0.015 -0.021,0.027 -0.032,0.037 -0.013,0.013 -0.026,0.022 -0.039,0.027 0.01,-0.007 0.022,-0.017 0.035,-0.032 0.01,-0.011 0.02,-0.024 0.03,-0.037 0.005,-0.007 0.009,-0.013 0.013,-0.019l0.004 -0.005 0.003 -0.005c0.003,-0.004 0.005,-0.008 0.007,-0.01 0.006,-0.007 0.012,-0.012 0.019,-0.016 0.008,-0.004 0.016,-0.006 0.023,-0.005 -0.014,0.001 -0.026,0.009 -0.037,0.025 -0.002,0.002 -0.004,0.006 -0.006,0.01l-0.003 0.005 -0.003 0.005c-0.004,0.006 -0.008,0.013 -0.014,0.02zm-0.157 -0.095c-0.005,0.004 -0.01,0.009 -0.015,0.015 -0.007,0.009 -0.014,0.022 -0.02,0.038 -0.004,0.01 -0.009,0.024 -0.014,0.043l-0.006 0.022 -0.006 0.022c0.001,-0.018 0.004,-0.033 0.006,-0.046 0.003,-0.016 0.008,-0.031 0.013,-0.044 0.007,-0.017 0.014,-0.031 0.023,-0.04 0.005,-0.006 0.011,-0.011 0.018,-0.014 0.007,-0.004 0.014,-0.005 0.021,-0.004 -0.007,0.001 -0.014,0.004 -0.019,0.008zm0.179 0.251c-0.011,-0.006 -0.013,-0.012 -0.008,-0.017 0.002,-0.002 0.006,-0.005 0.013,-0.008l0.004 -0.003 0.005 -0.003c0.004,-0.002 0.008,-0.004 0.011,-0.005 0.02,-0.011 0.036,-0.022 0.048,-0.035 0.018,-0.018 0.031,-0.04 0.039,-0.065 0.007,-0.023 0.007,-0.045 -0.001,-0.067 -0.007,-0.019 -0.019,-0.034 -0.036,-0.043 -0.017,-0.009 -0.034,-0.012 -0.052,-0.006 -0.02,0.006 -0.037,0.021 -0.052,0.044 -0.024,0.04 -0.047,0.067 -0.069,0.082 -0.009,0.006 -0.015,0.008 -0.018,0.005 -0.003,-0.003 -0.002,-0.01 0.002,-0.02 0.019,-0.043 0.025,-0.078 0.018,-0.106 -0.006,-0.022 -0.02,-0.037 -0.042,-0.042 -0.045,-0.012 -0.08,0.013 -0.105,0.073 -0.02,0.048 -0.033,0.119 -0.039,0.212 -0.006,0.093 -0.002,0.168 0.012,0.225 0.017,0.069 0.046,0.103 0.088,0.101 0.039,-0.001 0.062,-0.033 0.068,-0.093 0.002,-0.02 0.002,-0.044 0,-0.069 -0.001,-0.009 -0.002,-0.018 -0.003,-0.027 -0,-0.004 -0.001,-0.007 -0.001,-0.01l-0 -0.004 -0 -0.002 0 -0.001c-0.001,-0.008 -0,-0.013 0.003,-0.016 0.003,-0.003 0.008,-0.002 0.013,0.004 0.015,0.013 0.028,0.047 0.041,0.099 0.008,0.034 0.02,0.061 0.036,0.083 0.015,0.02 0.031,0.033 0.049,0.039 0.018,0.006 0.035,0.006 0.052,-0.001 0.017,-0.007 0.031,-0.02 0.043,-0.039 0.013,-0.021 0.02,-0.044 0.02,-0.07 0.001,-0.025 -0.005,-0.051 -0.015,-0.078 -0.024,-0.056 -0.065,-0.101 -0.123,-0.137z"/>
  </g>
  <g id="_2230177184400">
   <path class="fil0" d="M1.33 0.977c-0.003,0.004 -0.006,0.009 -0.009,0.015 -0.001,-0.006 0.001,-0.012 0.006,-0.018 0.002,-0.002 0.005,-0.004 0.008,-0.005 0.003,-0.001 0.006,-0.002 0.009,-0.001 -0.006,0.001 -0.01,0.004 -0.015,0.009zm0.015 -0.024c-0.01,0 -0.018,0.004 -0.025,0.011 -0.007,0.007 -0.011,0.016 -0.013,0.026 -0.001,0.01 0.001,0.02 0.006,0.028 0.005,0.009 0.012,0.014 0.022,0.017 0.011,0.003 0.021,0.001 0.03,-0.006 0.009,-0.007 0.015,-0.017 0.017,-0.029 0.002,-0.013 -0.001,-0.024 -0.008,-0.033 -0.007,-0.009 -0.016,-0.014 -0.027,-0.014zm0.152 0.024c-0.003,0.004 -0.006,0.009 -0.009,0.015 -0.001,-0.006 0.001,-0.012 0.006,-0.018 0.002,-0.002 0.005,-0.004 0.008,-0.005 0.003,-0.001 0.006,-0.002 0.009,-0.001 -0.006,0.001 -0.01,0.004 -0.015,0.009zm0.015 -0.024c-0.01,0 -0.018,0.004 -0.025,0.011 -0.007,0.007 -0.011,0.016 -0.013,0.026 -0.001,0.01 0.001,0.02 0.006,0.028 0.005,0.009 0.012,0.014 0.022,0.017 0.011,0.003 0.021,0.001 0.03,-0.006 0.009,-0.007 0.015,-0.017 0.017,-0.029 0.002,-0.013 -0.001,-0.024 -0.008,-0.033 -0.007,-0.009 -0.016,-0.014 -0.027,-0.014z"/>
   <path class="fil1" d="M1.325 0.959c-0.003,0.004 -0.006,0.009 -0.009,0.015 -0.001,-0.006 0.001,-0.012 0.006,-0.018 0.002,-0.002 0.005,-0.004 0.008,-0.005 0.003,-0.001 0.006,-0.002 0.009,-0.001 -0.006,0.001 -0.01,0.004 -0.015,0.009zm0.015 -0.024c-0.01,0 -0.018,0.004 -0.025,0.011 -0.007,0.007 -0.011,0.016 -0.013,0.026 -0.001,0.01 0.001,0.02 0.006,0.028 0.005,0.009 0.012,0.014 0.022,0.017 0.011,0.003 0.021,0.001 0.03,-0.006 0.009,-0.007 0.015,-0.017 0.017,-0.029 0.002,-0.013 -0.001,-0.024 -0.008,-0.033 -0.007,-0.009 -0.016,-0.014 -0.027,-0.014zm0.152 0.024c-0.003,0.004 -0.006,0.009 -0.009,0.015 -0.001,-0.006 0.001,-0.012 0.006,-0.018 0.002,-0.002 0.005,-0.004 0.008,-0.005 0.003,-0.001 0.006,-0.002 0.009,-0.001 -0.006,0.001 -0.01,0.004 -0.015,0.009zm0.015 -0.024c-0.01,0 -0.018,0.004 -0.025,0.011 -0.007,0.007 -0.011,0.016 -0.013,0.026 -0.001,0.01 0.001,0.02 0.006,0.028 0.005,0.009 0.012,0.014 0.022,0.017 0.011,0.003 0.021,0.001 0.03,-0.006 0.009,-0.007 0.015,-0.017 0.017,-0.029 0.002,-0.013 -0.001,-0.024 -0.008,-0.033 -0.007,-0.009 -0.016,-0.014 -0.027,-0.014z"/>
  </g>
  <g id="_2230177187920">
   <path class="fil0" d="M2.81 0.042c-0.003,0.004 -0.006,0.009 -0.009,0.015 -0.001,-0.006 0.001,-0.012 0.006,-0.018 0.002,-0.002 0.005,-0.004 0.008,-0.005 0.003,-0.001 0.006,-0.002 0.009,-0.001 -0.006,0.001 -0.01,0.004 -0.015,0.009zm0.015 -0.024c-0.01,0 -0.018,0.004 -0.025,0.011 -0.007,0.007 -0.011,0.016 -0.013,0.026 -0.001,0.01 0.001,0.02 0.006,0.028 0.005,0.009 0.012,0.014 0.022,0.017 0.011,0.003 0.021,0.001 0.03,-0.006 0.009,-0.007 0.015,-0.017 0.017,-0.029 0.002,-0.013 -0.001,-0.024 -0.008,-0.033 -0.007,-0.009 -0.016,-0.014 -0.027,-0.014zm0.152 0.024c-0.003,0.004 -0.006,0.009 -0.009,0.015 -0.001,-0.006 0.001,-0.012 0.006,-0.018 0.002,-0.002 0.005,-0.004 0.008,-0.005 0.003,-0.001 0.006,-0.002 0.009,-0.001 -0.006,0.001 -0.01,0.004 -0.015,0.009zm0.015 -0.024c-0.01,0 -0.018,0.004 -0.025,0.011 -0.007,0.007 -0.011,0.016 -0.013,0.026 -0.001,0.01 0.001,0.02 0.006,0.028 0.005,0.009 0.012,0.014 0.022,0.017 0.011,0.003 0.021,0.001 0.03,-0.006 0.009,-0.007 0.015,-0.017 0.017,-0.029 0.002,-0.013 -0.001,-0.024 -0.008,-0.033 -0.007,-0.009 -0.016,-0.014 -0.027,-0.014z"/>
   <path class="fil1" d="M2.805 0.024c-0.003,0.004 -0.006,0.009 -0.009,0.015 -0.001,-0.006 0.001,-0.012 0.006,-0.018 0.002,-0.002 0.005,-0.004 0.008,-0.005 0.003,-0.001 0.006,-0.002 0.009,-0.001 -0.006,0.001 -0.01,0.004 -0.015,0.009zm0.015 -0.024c-0.01,0 -0.018,0.004 -0.025,0.011 -0.007,0.007 -0.011,0.016 -0.013,0.026 -0.001,0.01 0.001,0.02 0.006,0.028 0.005,0.009 0.012,0.014 0.022,0.017 0.011,0.003 0.021,0.001 0.03,-0.006 0.009,-0.007 0.015,-0.017 0.017,-0.029 0.002,-0.013 -0.001,-0.024 -0.008,-0.033 -0.007,-0.009 -0.016,-0.014 -0.027,-0.014zm0.152 0.024c-0.003,0.004 -0.006,0.009 -0.009,0.015 -0.001,-0.006 0.001,-0.012 0.006,-0.018 0.002,-0.002 0.005,-0.004 0.008,-0.005 0.003,-0.001 0.006,-0.002 0.009,-0.001 -0.006,0.001 -0.01,0.004 -0.015,0.009zm0.015 -0.024c-0.01,0 -0.018,0.004 -0.025,0.011 -0.007,0.007 -0.011,0.016 -0.013,0.026 -0.001,0.01 0.001,0.02 0.006,0.028 0.005,0.009 0.012,0.014 0.022,0.017 0.011,0.003 0.021,0.001 0.03,-0.006 0.009,-0.007 0.015,-0.017 0.017,-0.029 0.002,-0.013 -0.001,-0.024 -0.008,-0.033 -0.007,-0.009 -0.016,-0.014 -0.027,-0.014z"/>
  </g>
 </g>
</svg>
