<?xml version="1.0" encoding="UTF-8"?>
<!DOCTYPE svg PUBLIC "-//W3C//DTD SVG 1.1//EN" "http://www.w3.org/Graphics/SVG/1.1/DTD/svg11.dtd">
<!-- Creator: CorelDRAW 2019 (64-Bit) -->
<svg xmlns="http://www.w3.org/2000/svg" xml:space="preserve" width="21.769mm" height="4.961mm" version="1.1" style="shape-rendering:geometricPrecision; text-rendering:geometricPrecision; image-rendering:optimizeQuality; fill-rule:evenodd; clip-rule:evenodd"
viewBox="0 0 78.68 17.93"
 xmlns:xlink="http://www.w3.org/1999/xlink"
 xmlns:xodm="http://www.corel.com/coreldraw/odm/2003">
 <defs>
  <style type="text/css">
   <![CDATA[
    .fil0 {fill:#AEA363;fill-rule:nonzero}
   ]]>
  </style>
 </defs>
 <g id="Слой_x0020_1">
  <metadata id="CorelCorpID_0Corel-Layer"/>
  <g id="_1901092432080">
   <path class="fil0" d="M13.71 6.44c-0.05,0.08 -0.11,0.14 -0.17,0.18 -0.07,0.05 -0.15,0.07 -0.22,0.07 0.14,-0.07 0.25,-0.16 0.33,-0.3 0.07,-0.12 0.12,-0.26 0.14,-0.44 0.04,0.17 0.02,0.34 -0.08,0.49zm-0.84 -0.4c-0.02,-0.11 -0.01,-0.2 0.04,-0.29 0.05,-0.09 0.11,-0.14 0.19,-0.16 0.08,-0.02 0.16,0.01 0.23,0.07 0.07,0.06 0.12,0.15 0.14,0.25 0.02,0.11 0.01,0.21 -0.04,0.3 -0.04,0.09 -0.11,0.14 -0.19,0.16 -0.08,0.02 -0.16,-0 -0.23,-0.07 -0.07,-0.06 -0.12,-0.15 -0.14,-0.25zm-0.33 -3.26c-0.2,0.1 -0.37,0.23 -0.52,0.39 -0.14,0.15 -0.27,0.34 -0.38,0.56l-0.04 0.08 -0.04 0.08 -0.06 0.16 -0.06 0.17 -0.05 0.17c0.03,-0.23 0.1,-0.46 0.2,-0.68 0.1,-0.23 0.22,-0.42 0.37,-0.59 0.16,-0.18 0.35,-0.31 0.55,-0.39 0.1,-0.04 0.21,-0.08 0.32,-0.1l0.08 -0.01 0.08 -0.01 0.16 -0c-0.24,0.03 -0.45,0.09 -0.62,0.18zm-3.7 0.17c-0.04,0.05 -0.07,0.1 -0.09,0.17 -0.02,0.06 -0.02,0.13 -0.03,0.21 -0,0.1 0.02,0.25 0.05,0.42l0.05 0.22 0.05 0.22c-0.07,-0.15 -0.12,-0.29 -0.16,-0.42 -0.05,-0.16 -0.07,-0.31 -0.07,-0.45 0,-0.08 0.01,-0.16 0.03,-0.23 0.03,-0.09 0.07,-0.15 0.12,-0.2 0.1,-0.09 0.23,-0.14 0.39,-0.13 -0.15,0.03 -0.27,0.08 -0.35,0.18zm5 -0.62c-0.76,-0.17 -1.39,-0.03 -1.9,0.41 -0.45,0.4 -0.74,0.97 -0.87,1.72 -0.01,0.06 -0.03,0.11 -0.08,0.15 -0.04,0.04 -0.09,0.06 -0.15,0.06l-0 0c-0.06,-0 -0.11,-0.02 -0.16,-0.07 -0.05,-0.04 -0.07,-0.1 -0.08,-0.17 -0.06,-0.56 -0.17,-1 -0.34,-1.3 -0.12,-0.23 -0.28,-0.4 -0.47,-0.52 -0.17,-0.11 -0.34,-0.17 -0.53,-0.17 -0.18,-0.01 -0.34,0.03 -0.49,0.11 -0.15,0.08 -0.25,0.2 -0.32,0.35 -0.12,0.28 -0.1,0.68 0.06,1.21 0.02,0.08 0.06,0.19 0.1,0.33l0.06 0.16 0.05 0.16c0.08,0.26 0.14,0.48 0.16,0.65 0.06,0.42 0.1,0.85 0.11,1.3 0,0.15 0.01,0.32 0.01,0.51l0 0.11 -0 0.11c0,0.08 0,0.15 0,0.2 0,0.28 0.03,0.47 0.07,0.59 0.05,0.14 0.16,0.23 0.31,0.26 0.23,0.05 0.44,-0.05 0.62,-0.3 0.17,-0.23 0.31,-0.56 0.42,-1 0.03,-0.13 0.1,-0.24 0.21,-0.32 0.1,-0.08 0.22,-0.12 0.35,-0.11 0.2,0.01 0.33,0.07 0.37,0.16 0.16,0.35 0.36,0.65 0.6,0.89 0.26,0.25 0.56,0.42 0.9,0.5 0.6,0.15 1.15,-0.04 1.66,-0.57 0.46,-0.49 0.78,-1.13 0.95,-1.93 0.17,-0.81 0.14,-1.54 -0.11,-2.17 -0.28,-0.71 -0.78,-1.15 -1.51,-1.32zm4.77 2.25c-0.03,0.08 -0.07,0.16 -0.12,0.23 -0.06,0.07 -0.12,0.12 -0.19,0.16 -0.08,0.04 -0.16,0.05 -0.23,0.03 0.08,-0.02 0.15,-0.05 0.21,-0.09 0.06,-0.04 0.12,-0.09 0.16,-0.15 0.09,-0.11 0.16,-0.26 0.21,-0.43 0.01,0.08 0,0.17 -0.02,0.25zm-0.73 -0.33c0.04,-0.09 0.09,-0.15 0.15,-0.19 0.07,-0.04 0.13,-0.05 0.18,-0.02 0.06,0.03 0.09,0.08 0.11,0.16 0.01,0.08 0,0.16 -0.03,0.25 -0.04,0.09 -0.08,0.15 -0.15,0.19 -0.07,0.04 -0.13,0.04 -0.18,0.02 -0.06,-0.03 -0.09,-0.08 -0.11,-0.16 -0.01,-0.08 -0,-0.17 0.03,-0.25zm-0.67 -1.66c-0.17,0.1 -0.32,0.22 -0.44,0.38 -0.11,0.14 -0.21,0.32 -0.3,0.53 -0.06,0.16 -0.12,0.37 -0.17,0.6 0,-0.09 0.02,-0.19 0.04,-0.31 0.02,-0.11 0.05,-0.21 0.08,-0.31 0.07,-0.21 0.16,-0.39 0.29,-0.56 0.14,-0.17 0.29,-0.3 0.48,-0.38 0.09,-0.04 0.18,-0.08 0.28,-0.1 0.11,-0.02 0.2,-0.03 0.29,-0.04 -0.22,0.04 -0.4,0.11 -0.55,0.19zm0.71 -0.53c-0.53,0.02 -0.95,0.19 -1.28,0.53 -0.29,0.3 -0.49,0.71 -0.6,1.22 -0.1,0.47 -0.1,0.99 -0.02,1.55 0.08,0.54 0.22,1.04 0.45,1.5 0.21,0.44 0.44,0.78 0.69,1.01 0.22,0.2 0.43,0.31 0.65,0.32 0.19,0.01 0.35,-0.06 0.49,-0.2 0.13,-0.15 0.21,-0.34 0.22,-0.58 0.01,-0.17 0,-0.35 -0.03,-0.56 -0.01,-0.06 -0.03,-0.14 -0.05,-0.25l-0.02 -0.12c-0.01,-0.04 -0.02,-0.08 -0.02,-0.11 -0.03,-0.16 -0.03,-0.29 -0.01,-0.39 0.03,-0.12 0.11,-0.21 0.23,-0.28 0.41,-0.23 0.72,-0.56 0.92,-0.99 0.19,-0.39 0.25,-0.8 0.18,-1.22 -0.06,-0.42 -0.24,-0.76 -0.54,-1.02 -0.32,-0.28 -0.73,-0.42 -1.23,-0.4zm3.53 0.26c-0.18,0.04 -0.33,0.08 -0.44,0.12 -0.17,0.06 -0.31,0.13 -0.41,0.2 -0.07,0.06 -0.13,0.11 -0.16,0.16 -0.04,0.06 -0.06,0.14 -0.06,0.23 -0.02,-0.09 -0.01,-0.17 0.02,-0.25 0.03,-0.07 0.08,-0.13 0.16,-0.2 0.1,-0.09 0.24,-0.16 0.42,-0.23 0.29,-0.1 0.59,-0.14 0.92,-0.12 -0.17,0.02 -0.32,0.05 -0.46,0.08zm0.73 -0.41c-0.64,-0.01 -1.16,0.09 -1.55,0.29 -0.41,0.22 -0.59,0.51 -0.55,0.88 0.02,0.21 0.11,0.35 0.26,0.44 0.11,0.06 0.27,0.1 0.48,0.12l0.13 0.01 0.13 0.01c0.1,0 0.18,0.01 0.24,0.03 0.16,0.03 0.26,0.1 0.3,0.2 0.02,0.06 0.02,0.43 -0.03,1.11 -0.02,0.34 -0.03,0.64 -0.03,0.88 -0,0.34 0.01,0.64 0.05,0.9 0.05,0.38 0.19,0.69 0.41,0.92 0.23,0.24 0.5,0.34 0.8,0.28 0.56,-0.11 0.74,-0.72 0.54,-1.85 -0.11,-0.59 -0.17,-1.1 -0.19,-1.53 -0.02,-0.45 0,-0.72 0.09,-0.79 0.06,-0.05 0.16,-0.08 0.3,-0.09 0.04,-0 0.11,-0 0.2,-0.01l0.11 0 0.11 -0.01c0.17,-0.01 0.3,-0.04 0.4,-0.1 0.12,-0.07 0.21,-0.18 0.24,-0.34 0.04,-0.19 0.01,-0.38 -0.1,-0.55 -0.11,-0.16 -0.28,-0.3 -0.51,-0.42 -0.47,-0.25 -1.08,-0.37 -1.81,-0.39zm4.19 0.21c-0.18,0.04 -0.33,0.08 -0.44,0.12 -0.17,0.06 -0.31,0.13 -0.41,0.2 -0.07,0.06 -0.13,0.11 -0.16,0.16 -0.04,0.06 -0.06,0.14 -0.06,0.23 -0.02,-0.09 -0.01,-0.17 0.02,-0.25 0.03,-0.07 0.08,-0.13 0.16,-0.2 0.1,-0.09 0.24,-0.16 0.42,-0.23 0.29,-0.1 0.59,-0.14 0.92,-0.12 -0.17,0.02 -0.32,0.05 -0.46,0.08zm0.73 -0.41c-0.64,-0.01 -1.16,0.09 -1.55,0.29 -0.41,0.22 -0.59,0.51 -0.55,0.88 0.02,0.21 0.11,0.35 0.26,0.44 0.11,0.06 0.27,0.1 0.48,0.12l0.13 0.01 0.13 0.01c0.1,0 0.18,0.01 0.24,0.03 0.16,0.03 0.26,0.1 0.3,0.2 0.02,0.06 0.02,0.43 -0.03,1.11 -0.02,0.34 -0.03,0.64 -0.03,0.88 -0,0.34 0.01,0.64 0.05,0.9 0.05,0.38 0.19,0.69 0.41,0.92 0.23,0.24 0.5,0.34 0.8,0.28 0.56,-0.11 0.74,-0.72 0.54,-1.85 -0.11,-0.59 -0.17,-1.1 -0.19,-1.53 -0.02,-0.45 0,-0.72 0.08,-0.79 0.06,-0.05 0.16,-0.08 0.3,-0.09 0.04,-0 0.11,-0 0.2,-0.01l0.11 0 0.11 -0.01c0.17,-0.01 0.3,-0.04 0.4,-0.1 0.12,-0.07 0.21,-0.18 0.24,-0.34 0.04,-0.19 0.01,-0.38 -0.1,-0.54 -0.11,-0.16 -0.28,-0.3 -0.51,-0.42 -0.47,-0.25 -1.08,-0.37 -1.81,-0.39zm5.58 4.01c-0.04,0.08 -0.1,0.14 -0.18,0.18 -0.08,0.04 -0.16,0.06 -0.24,0.04 0.16,-0.04 0.28,-0.13 0.35,-0.27 0.04,-0.06 0.06,-0.13 0.08,-0.22 0.01,-0.07 0.01,-0.16 0.01,-0.25 0.04,0.08 0.05,0.17 0.05,0.26 -0,0.09 -0.02,0.18 -0.07,0.25zm-0.7 -0.3c-0.04,-0.08 -0.06,-0.16 -0.05,-0.24 0.01,-0.08 0.04,-0.14 0.09,-0.17 0.06,-0.03 0.12,-0.03 0.19,0.01 0.07,0.03 0.13,0.09 0.17,0.17 0.04,0.08 0.06,0.17 0.05,0.25 -0.01,0.08 -0.04,0.14 -0.09,0.17 -0.05,0.03 -0.11,0.03 -0.18,-0 -0.07,-0.03 -0.13,-0.09 -0.17,-0.18zm-0.51 -3.51c-0.05,0.03 -0.1,0.07 -0.16,0.12 -0.09,0.09 -0.17,0.19 -0.26,0.31 -0.06,0.09 -0.14,0.21 -0.22,0.36 -0.03,0.05 -0.06,0.11 -0.1,0.19l-0.09 0.19c0.05,-0.16 0.09,-0.3 0.14,-0.4 0.06,-0.14 0.13,-0.26 0.21,-0.38 0.09,-0.13 0.19,-0.24 0.28,-0.31 0.13,-0.1 0.25,-0.15 0.38,-0.15 -0.06,0.01 -0.12,0.04 -0.18,0.08zm1.1 2.02c-0.14,-0.04 -0.22,-0.11 -0.26,-0.22 -0.03,-0.09 -0.04,-0.22 -0.02,-0.39 0,-0.03 0.01,-0.07 0.02,-0.12l0.02 -0.12c0.02,-0.11 0.03,-0.2 0.04,-0.27 0.02,-0.22 0.02,-0.41 -0.01,-0.58 -0.04,-0.24 -0.13,-0.42 -0.27,-0.56 -0.14,-0.14 -0.31,-0.19 -0.51,-0.16 -0.21,0.03 -0.41,0.15 -0.61,0.37 -0.23,0.25 -0.43,0.6 -0.6,1.06 -0.18,0.47 -0.29,0.98 -0.32,1.52 -0.03,0.56 0.01,1.07 0.15,1.54 0.15,0.51 0.38,0.9 0.7,1.17 0.36,0.3 0.8,0.44 1.32,0.41 0.5,-0.03 0.91,-0.21 1.22,-0.54 0.29,-0.31 0.45,-0.68 0.5,-1.12 0.04,-0.44 -0.05,-0.85 -0.27,-1.21 -0.24,-0.39 -0.6,-0.66 -1.08,-0.8zm1.56 -2.03c-0.04,0.04 -0.07,0.1 -0.09,0.17 -0.02,0.06 -0.02,0.13 -0.03,0.2 -0,0.1 0.02,0.25 0.05,0.42l0.05 0.21 0.04 0.21c-0.06,-0.15 -0.11,-0.28 -0.15,-0.4 -0.05,-0.16 -0.07,-0.31 -0.07,-0.44 0,-0.09 0.02,-0.16 0.03,-0.22 0.03,-0.08 0.07,-0.15 0.12,-0.19 0.1,-0.09 0.23,-0.13 0.38,-0.12 -0.14,0.02 -0.26,0.08 -0.34,0.17zm1.38 0.18c-0.12,-0.22 -0.27,-0.39 -0.45,-0.51 -0.16,-0.11 -0.34,-0.16 -0.52,-0.17 -0.17,-0.01 -0.33,0.03 -0.47,0.11 -0.14,0.08 -0.25,0.2 -0.31,0.34 -0.11,0.27 -0.1,0.66 0.06,1.18 0.02,0.08 0.05,0.19 0.1,0.32l0.05 0.16 0.05 0.16c0.08,0.26 0.13,0.47 0.16,0.64 0.06,0.41 0.1,0.83 0.11,1.27 0,0.14 0,0.3 0,0.5l0 0.11 0 0.11c-0,0.08 -0,0.15 0,0.2 0,0.27 0.03,0.46 0.07,0.57 0.05,0.14 0.15,0.22 0.3,0.25 0.29,0.06 0.54,-0.11 0.75,-0.53 0.19,-0.36 0.33,-0.86 0.41,-1.49 0.08,-0.61 0.09,-1.21 0.04,-1.8 -0.05,-0.62 -0.17,-1.1 -0.35,-1.42zm8.17 -0.64c-0.06,0.05 -0.12,0.12 -0.18,0.2 -0.08,0.12 -0.18,0.27 -0.3,0.47l-0.07 0.12 -0.07 0.12c-0.06,0.09 -0.12,0.17 -0.18,0.23 -0.07,0.07 -0.14,0.13 -0.22,0.17 -0.09,0.05 -0.18,0.07 -0.26,0.06 0.16,-0.02 0.31,-0.12 0.44,-0.28 0.05,-0.06 0.1,-0.14 0.16,-0.23l0.07 -0.12 0.07 -0.12c0.12,-0.21 0.23,-0.37 0.32,-0.47 0.07,-0.08 0.14,-0.15 0.21,-0.19 0.08,-0.05 0.17,-0.08 0.26,-0.07 -0.09,0.01 -0.17,0.05 -0.24,0.11zm-3.14 0.52c-0.09,0.13 -0.17,0.3 -0.25,0.49 -0.05,0.12 -0.11,0.3 -0.19,0.53 -0.03,0.09 -0.05,0.18 -0.08,0.28l-0.04 0.13 -0.04 0.14c0.05,-0.4 0.15,-0.78 0.28,-1.11 0.09,-0.21 0.18,-0.38 0.28,-0.5 0.06,-0.07 0.12,-0.14 0.2,-0.19 0.08,-0.05 0.17,-0.08 0.26,-0.08 -0.15,0.02 -0.29,0.13 -0.41,0.31zm4.86 1.91c-0.07,-0.85 -0.23,-1.54 -0.5,-2.07 -0.25,-0.5 -0.54,-0.76 -0.87,-0.79 -0.24,-0.02 -0.45,0.05 -0.64,0.23 -0.14,0.14 -0.32,0.4 -0.54,0.79 -0.19,0.34 -0.36,0.49 -0.5,0.47 -0.1,-0.01 -0.22,-0.14 -0.37,-0.38 -0.18,-0.27 -0.34,-0.47 -0.5,-0.59 -0.2,-0.16 -0.4,-0.23 -0.6,-0.2 -0.54,0.08 -0.95,0.79 -1.23,2.14 -0.18,0.86 -0.23,1.63 -0.17,2.31 0.08,0.77 0.31,1.19 0.7,1.27 0.23,0.04 0.42,-0.03 0.58,-0.2 0.12,-0.14 0.24,-0.35 0.34,-0.64 0.03,-0.09 0.07,-0.22 0.11,-0.37l0.03 -0.09 0.02 -0.09c0.02,-0.06 0.03,-0.12 0.04,-0.16 0.07,-0.23 0.14,-0.36 0.21,-0.38 0.05,-0.02 0.1,0.02 0.15,0.13 0.02,0.03 0.04,0.09 0.07,0.17l0.02 0.05 0.02 0.05 0.04 0.1c0.08,0.17 0.15,0.3 0.23,0.39 0.11,0.12 0.24,0.18 0.39,0.18 0.11,-0 0.22,-0.05 0.32,-0.15 0.07,-0.07 0.14,-0.17 0.22,-0.32l0.05 -0.08 0.05 -0.08c0.03,-0.06 0.06,-0.1 0.09,-0.14 0.06,-0.08 0.13,-0.11 0.19,-0.09 0.06,0.02 0.13,0.13 0.21,0.33 0.01,0.04 0.03,0.08 0.05,0.14l0.03 0.08 0.03 0.08c0.05,0.13 0.09,0.24 0.12,0.32 0.11,0.26 0.22,0.45 0.34,0.59 0.15,0.18 0.33,0.26 0.54,0.26 0.35,-0 0.59,-0.31 0.71,-0.93 0.11,-0.54 0.12,-1.31 0.05,-2.29zm3.08 1.21c-0.04,0.08 -0.1,0.14 -0.18,0.18 -0.08,0.04 -0.16,0.06 -0.24,0.04 0.16,-0.04 0.28,-0.13 0.35,-0.27 0.04,-0.06 0.06,-0.13 0.08,-0.22 0.01,-0.07 0.01,-0.16 0.01,-0.25 0.04,0.08 0.05,0.17 0.05,0.26 -0,0.09 -0.02,0.18 -0.07,0.25zm-0.7 -0.3c-0.04,-0.08 -0.06,-0.16 -0.05,-0.24 0.01,-0.08 0.04,-0.14 0.09,-0.17 0.06,-0.03 0.12,-0.03 0.19,0.01 0.07,0.03 0.13,0.09 0.17,0.17 0.04,0.08 0.06,0.17 0.05,0.25 -0.01,0.08 -0.04,0.14 -0.1,0.17 -0.05,0.03 -0.11,0.03 -0.18,-0 -0.07,-0.03 -0.13,-0.09 -0.17,-0.18zm-0.51 -3.51c-0.05,0.03 -0.1,0.07 -0.16,0.12 -0.09,0.09 -0.17,0.19 -0.26,0.31 -0.07,0.09 -0.14,0.21 -0.22,0.36 -0.03,0.05 -0.06,0.11 -0.1,0.19l-0.09 0.19c0.05,-0.16 0.09,-0.3 0.14,-0.4 0.06,-0.14 0.13,-0.26 0.21,-0.38 0.09,-0.13 0.19,-0.24 0.28,-0.31 0.13,-0.1 0.25,-0.15 0.38,-0.15 -0.06,0.01 -0.12,0.04 -0.18,0.08zm1.1 2.02c-0.14,-0.04 -0.22,-0.11 -0.27,-0.22 -0.03,-0.09 -0.04,-0.22 -0.02,-0.39 0,-0.03 0.01,-0.07 0.02,-0.12l0.02 -0.12c0.02,-0.11 0.03,-0.2 0.04,-0.26 0.02,-0.22 0.02,-0.41 -0.01,-0.58 -0.04,-0.24 -0.13,-0.42 -0.27,-0.56 -0.14,-0.14 -0.31,-0.19 -0.51,-0.16 -0.21,0.03 -0.41,0.15 -0.61,0.38 -0.23,0.25 -0.43,0.6 -0.6,1.06 -0.18,0.47 -0.29,0.98 -0.32,1.52 -0.03,0.56 0.01,1.07 0.15,1.54 0.15,0.51 0.38,0.9 0.7,1.17 0.36,0.3 0.8,0.44 1.32,0.41 0.5,-0.03 0.91,-0.21 1.22,-0.54 0.29,-0.3 0.45,-0.68 0.5,-1.12 0.04,-0.44 -0.05,-0.85 -0.27,-1.21 -0.24,-0.39 -0.6,-0.66 -1.08,-0.8zm1.56 -2.03c-0.04,0.04 -0.07,0.1 -0.09,0.17 -0.02,0.06 -0.02,0.13 -0.03,0.2 -0,0.11 0.02,0.25 0.05,0.42l0.05 0.21 0.04 0.21c-0.06,-0.15 -0.11,-0.28 -0.15,-0.4 -0.05,-0.16 -0.07,-0.31 -0.07,-0.44 0,-0.09 0.02,-0.16 0.03,-0.22 0.03,-0.08 0.07,-0.15 0.12,-0.19 0.1,-0.09 0.23,-0.13 0.38,-0.12 -0.14,0.02 -0.26,0.08 -0.34,0.17zm1.38 0.18c-0.12,-0.22 -0.27,-0.39 -0.45,-0.51 -0.16,-0.11 -0.34,-0.16 -0.52,-0.17 -0.17,-0.01 -0.33,0.03 -0.48,0.11 -0.14,0.08 -0.25,0.2 -0.31,0.34 -0.11,0.27 -0.09,0.66 0.06,1.18 0.02,0.08 0.05,0.19 0.1,0.32l0.05 0.16 0.05 0.16c0.08,0.26 0.13,0.47 0.16,0.64 0.06,0.41 0.1,0.83 0.11,1.27 0,0.14 0,0.3 0,0.5l0 0.11 0 0.11c-0,0.08 -0,0.15 0,0.2 0,0.27 0.03,0.46 0.07,0.57 0.05,0.14 0.15,0.22 0.3,0.25 0.29,0.06 0.54,-0.12 0.75,-0.53 0.19,-0.36 0.32,-0.86 0.41,-1.49 0.08,-0.61 0.09,-1.21 0.04,-1.8 -0.05,-0.62 -0.17,-1.09 -0.35,-1.42zm4.11 -0.47c-0.04,0.02 -0.07,0.05 -0.1,0.1 -0.04,0.06 -0.07,0.16 -0.09,0.28 -0.02,0.16 -0.02,0.37 -0.01,0.61l0 0.08 0 0.08c0.01,0.06 0.01,0.12 0,0.16 -0.01,0.12 -0.03,0.22 -0.06,0.31 -0.04,0.1 -0.09,0.19 -0.16,0.27 -0.07,0.08 -0.15,0.13 -0.24,0.16 0.17,-0.1 0.29,-0.25 0.35,-0.45 0.03,-0.1 0.04,-0.2 0.04,-0.3 0,-0.04 0,-0.09 -0,-0.15l-0.01 -0.08 -0 -0.08c-0.01,-0.25 -0,-0.46 0.02,-0.62 0.03,-0.13 0.07,-0.23 0.12,-0.3 0.04,-0.04 0.08,-0.07 0.12,-0.09 0.04,-0.02 0.08,-0.02 0.14,-0.02 -0.06,0.01 -0.1,0.03 -0.14,0.05zm-2.64 0.21c-0.09,0.11 -0.15,0.24 -0.2,0.4 -0.03,0.13 -0.07,0.28 -0.1,0.46l-0.04 0.23 -0.04 0.23c-0.01,-0.32 0.03,-0.63 0.11,-0.94 0.05,-0.17 0.12,-0.31 0.22,-0.42 0.05,-0.06 0.12,-0.11 0.19,-0.14 0.07,-0.03 0.15,-0.05 0.21,-0.04 -0.14,0.02 -0.26,0.1 -0.36,0.22zm2.74 -0.59c-0.27,0.03 -0.45,0.17 -0.55,0.41 -0.1,0.24 -0.13,0.61 -0.09,1.1 0.02,0.22 -0.02,0.38 -0.11,0.49 -0.08,0.1 -0.18,0.14 -0.3,0.14 -0.13,-0.01 -0.23,-0.06 -0.3,-0.17 -0.07,-0.11 -0.1,-0.25 -0.09,-0.43 0.03,-0.5 -0.03,-0.88 -0.18,-1.12 -0.13,-0.22 -0.35,-0.35 -0.64,-0.38 -0.24,-0.03 -0.45,0.04 -0.63,0.2 -0.18,0.16 -0.3,0.38 -0.37,0.66 -0.14,0.54 -0.2,1.17 -0.18,1.89 0.02,0.7 0.11,1.36 0.28,1.99 0.12,0.46 0.3,0.8 0.54,0.99 0.19,0.16 0.4,0.22 0.62,0.18 0.5,-0.1 0.71,-0.51 0.63,-1.23 -0.06,-0.52 0.03,-0.79 0.27,-0.8 0.12,-0 0.21,0.04 0.28,0.13 0.09,0.12 0.13,0.33 0.13,0.61 -0,0.47 0.08,0.83 0.25,1.07 0.16,0.22 0.37,0.33 0.65,0.32 0.46,-0.02 0.77,-0.35 0.93,-0.98 0.12,-0.46 0.17,-1.22 0.15,-2.27 -0.01,-0.81 -0.13,-1.48 -0.37,-2.01 -0.24,-0.55 -0.55,-0.81 -0.92,-0.78zm4.35 4.01c-0.04,0.08 -0.1,0.14 -0.18,0.18 -0.08,0.04 -0.16,0.06 -0.24,0.04 0.16,-0.04 0.28,-0.13 0.35,-0.27 0.04,-0.06 0.06,-0.13 0.08,-0.22 0.01,-0.07 0.01,-0.16 0.01,-0.25 0.04,0.08 0.05,0.17 0.05,0.26 -0,0.09 -0.02,0.18 -0.07,0.25zm-0.7 -0.3c-0.04,-0.08 -0.06,-0.16 -0.05,-0.24 0.01,-0.08 0.04,-0.14 0.09,-0.17 0.06,-0.03 0.12,-0.03 0.19,0.01 0.07,0.03 0.13,0.09 0.17,0.17 0.04,0.08 0.06,0.17 0.05,0.25 -0.01,0.08 -0.04,0.14 -0.09,0.17 -0.05,0.03 -0.11,0.03 -0.18,-0 -0.07,-0.03 -0.13,-0.09 -0.17,-0.18zm-0.51 -3.51c-0.05,0.03 -0.1,0.07 -0.16,0.12 -0.09,0.09 -0.17,0.19 -0.26,0.31 -0.06,0.09 -0.14,0.21 -0.22,0.36 -0.03,0.05 -0.06,0.11 -0.1,0.19l-0.09 0.19c0.05,-0.16 0.09,-0.3 0.14,-0.4 0.06,-0.14 0.13,-0.26 0.21,-0.38 0.09,-0.13 0.19,-0.24 0.28,-0.31 0.13,-0.1 0.25,-0.15 0.38,-0.15 -0.06,0.01 -0.12,0.04 -0.18,0.08zm1.1 2.02c-0.14,-0.04 -0.22,-0.11 -0.26,-0.22 -0.03,-0.09 -0.04,-0.22 -0.02,-0.39 0,-0.03 0.01,-0.07 0.01,-0.12l0.02 -0.12c0.02,-0.11 0.03,-0.2 0.04,-0.27 0.02,-0.22 0.02,-0.41 -0.01,-0.58 -0.04,-0.24 -0.13,-0.42 -0.27,-0.56 -0.14,-0.14 -0.31,-0.19 -0.51,-0.16 -0.21,0.03 -0.41,0.15 -0.61,0.37 -0.23,0.25 -0.43,0.6 -0.6,1.06 -0.18,0.47 -0.29,0.98 -0.32,1.52 -0.03,0.56 0.01,1.07 0.15,1.54 0.15,0.51 0.38,0.9 0.7,1.17 0.36,0.3 0.8,0.44 1.32,0.41 0.5,-0.03 0.91,-0.21 1.22,-0.54 0.29,-0.3 0.46,-0.68 0.5,-1.12 0.04,-0.44 -0.05,-0.85 -0.27,-1.21 -0.24,-0.39 -0.6,-0.66 -1.08,-0.8zm1.56 -2.03c-0.04,0.04 -0.07,0.1 -0.09,0.17 -0.02,0.06 -0.02,0.13 -0.03,0.2 -0,0.1 0.02,0.25 0.05,0.42l0.05 0.21 0.04 0.21c-0.06,-0.15 -0.11,-0.28 -0.15,-0.4 -0.05,-0.16 -0.07,-0.31 -0.07,-0.44 0,-0.09 0.02,-0.16 0.03,-0.22 0.03,-0.08 0.07,-0.15 0.12,-0.19 0.1,-0.09 0.23,-0.13 0.38,-0.12 -0.15,0.02 -0.26,0.08 -0.34,0.17zm1.38 0.18c-0.12,-0.22 -0.27,-0.39 -0.45,-0.51 -0.16,-0.11 -0.34,-0.16 -0.52,-0.17 -0.17,-0.01 -0.33,0.03 -0.47,0.11 -0.14,0.08 -0.25,0.2 -0.31,0.34 -0.11,0.27 -0.09,0.66 0.06,1.18 0.02,0.08 0.05,0.19 0.1,0.32l0.05 0.16 0.05 0.16c0.08,0.26 0.13,0.47 0.16,0.64 0.06,0.41 0.1,0.83 0.11,1.27 0,0.14 0,0.3 0,0.5l0 0.11 0 0.11c-0,0.08 -0,0.15 0,0.2 0,0.27 0.03,0.46 0.07,0.57 0.05,0.14 0.15,0.22 0.3,0.25 0.29,0.06 0.54,-0.11 0.75,-0.53 0.19,-0.36 0.33,-0.86 0.41,-1.49 0.08,-0.61 0.09,-1.21 0.04,-1.8 -0.05,-0.62 -0.17,-1.1 -0.35,-1.42z"/>
   <path class="fil0" d="M67.75 0.44c-0.06,0.05 -0.12,0.12 -0.18,0.2 -0.08,0.12 -0.18,0.27 -0.3,0.47l-0.07 0.12 -0.07 0.12c-0.06,0.09 -0.12,0.17 -0.18,0.23 -0.07,0.07 -0.14,0.13 -0.22,0.17 -0.09,0.05 -0.18,0.07 -0.26,0.06 0.16,-0.02 0.31,-0.12 0.44,-0.28 0.05,-0.06 0.1,-0.14 0.16,-0.23l0.07 -0.12 0.07 -0.12c0.12,-0.21 0.23,-0.37 0.32,-0.47 0.07,-0.08 0.14,-0.15 0.21,-0.19 0.08,-0.05 0.17,-0.08 0.26,-0.07 -0.09,0.01 -0.17,0.05 -0.24,0.11zm-3.14 0.52c-0.09,0.13 -0.17,0.3 -0.25,0.49 -0.05,0.12 -0.11,0.3 -0.19,0.53 -0.03,0.09 -0.05,0.18 -0.08,0.28l-0.04 0.13 -0.04 0.14c0.05,-0.4 0.15,-0.78 0.28,-1.11 0.08,-0.21 0.18,-0.38 0.28,-0.5 0.06,-0.07 0.12,-0.14 0.2,-0.19 0.08,-0.05 0.17,-0.08 0.26,-0.08 -0.15,0.02 -0.29,0.13 -0.41,0.31zm4.86 1.91c-0.07,-0.85 -0.23,-1.54 -0.5,-2.07 -0.25,-0.5 -0.54,-0.76 -0.86,-0.79 -0.24,-0.02 -0.45,0.05 -0.64,0.23 -0.14,0.14 -0.32,0.4 -0.54,0.79 -0.19,0.34 -0.36,0.49 -0.5,0.46 -0.1,-0.01 -0.22,-0.14 -0.37,-0.38 -0.18,-0.27 -0.34,-0.47 -0.5,-0.59 -0.2,-0.16 -0.4,-0.23 -0.6,-0.2 -0.54,0.08 -0.95,0.79 -1.23,2.14 -0.18,0.86 -0.23,1.63 -0.17,2.31 0.08,0.77 0.31,1.19 0.7,1.27 0.23,0.04 0.42,-0.03 0.58,-0.2 0.12,-0.14 0.24,-0.35 0.34,-0.64 0.03,-0.09 0.07,-0.22 0.11,-0.37l0.03 -0.09 0.02 -0.09c0.02,-0.06 0.03,-0.12 0.04,-0.16 0.07,-0.23 0.14,-0.36 0.21,-0.38 0.05,-0.02 0.1,0.02 0.15,0.13 0.02,0.03 0.04,0.09 0.07,0.17l0.02 0.05 0.02 0.05 0.04 0.1c0.08,0.17 0.15,0.3 0.23,0.39 0.11,0.12 0.24,0.18 0.39,0.18 0.11,-0 0.22,-0.05 0.32,-0.15 0.07,-0.07 0.14,-0.17 0.22,-0.32l0.05 -0.08 0.05 -0.08c0.03,-0.06 0.06,-0.1 0.09,-0.14 0.06,-0.08 0.13,-0.11 0.19,-0.09 0.06,0.02 0.13,0.13 0.21,0.33 0.01,0.04 0.03,0.08 0.05,0.14l0.03 0.08 0.03 0.08c0.05,0.13 0.09,0.24 0.12,0.32 0.11,0.26 0.22,0.45 0.34,0.59 0.15,0.18 0.33,0.26 0.54,0.26 0.35,-0 0.59,-0.31 0.71,-0.93 0.11,-0.54 0.12,-1.31 0.05,-2.29zm-66.54 13.27c-0.05,0.1 -0.11,0.17 -0.18,0.22 -0.08,0.05 -0.17,0.08 -0.26,0.06 0.08,-0.02 0.16,-0.06 0.23,-0.12 0.06,-0.05 0.11,-0.12 0.15,-0.2 0.03,-0.07 0.05,-0.16 0.06,-0.25 0.01,-0.08 0,-0.17 -0.01,-0.27 0.05,0.08 0.07,0.17 0.07,0.27 0,0.1 -0.01,0.2 -0.05,0.29zm-0.73 -0.28c-0.03,-0.09 -0.03,-0.17 -0.01,-0.25 0.02,-0.08 0.06,-0.13 0.12,-0.15 0.06,-0.02 0.12,-0.01 0.18,0.03 0.06,0.05 0.11,0.11 0.14,0.2 0.03,0.09 0.04,0.17 0.02,0.25 -0.02,0.08 -0.06,0.13 -0.12,0.15 -0.06,0.03 -0.12,0.02 -0.18,-0.03 -0.06,-0.05 -0.11,-0.11 -0.14,-0.2zm-1.52 -2.86c-0.1,0.18 -0.19,0.41 -0.26,0.69 -0.05,0.21 -0.09,0.46 -0.13,0.74 0,-0.12 0.01,-0.24 0.02,-0.38 0.01,-0.14 0.03,-0.27 0.06,-0.38 0.05,-0.27 0.14,-0.51 0.25,-0.72 0.06,-0.12 0.14,-0.22 0.22,-0.3 0.09,-0.09 0.18,-0.16 0.28,-0.23 0.1,-0.06 0.21,-0.12 0.32,-0.15 0.12,-0.04 0.24,-0.07 0.34,-0.08 -0.24,0.06 -0.45,0.16 -0.64,0.29 -0.21,0.15 -0.37,0.32 -0.47,0.52zm1.44 1.27c-0.16,-0.01 -0.25,-0.09 -0.28,-0.25 -0.02,-0.07 -0.02,-0.13 0,-0.2 0.02,-0.07 0.05,-0.12 0.1,-0.17 0.11,-0.1 0.26,-0.17 0.45,-0.21 0.07,-0.02 0.16,-0.03 0.26,-0.04l0.13 -0.02 0.13 -0.02c0.2,-0.03 0.35,-0.08 0.44,-0.13 0.13,-0.08 0.19,-0.2 0.21,-0.36 0.02,-0.24 -0.08,-0.46 -0.28,-0.64 -0.2,-0.18 -0.45,-0.29 -0.77,-0.35 -0.33,-0.06 -0.66,-0.04 -0.98,0.05 -0.36,0.11 -0.66,0.3 -0.91,0.57 -0.23,0.25 -0.4,0.63 -0.5,1.11 -0.1,0.46 -0.14,0.96 -0.1,1.49 0.04,0.55 0.15,1.04 0.34,1.47 0.2,0.47 0.46,0.81 0.78,1.02 0.28,0.18 0.57,0.3 0.89,0.34 0.31,0.04 0.6,0 0.87,-0.1 0.28,-0.1 0.51,-0.27 0.7,-0.5 0.2,-0.24 0.33,-0.53 0.39,-0.87 0.04,-0.25 0.05,-0.5 0,-0.74 -0.05,-0.26 -0.14,-0.49 -0.28,-0.69 -0.33,-0.48 -0.86,-0.73 -1.58,-0.75zm5.75 -2.22c-0.05,0.05 -0.1,0.12 -0.15,0.2 -0.07,0.12 -0.16,0.27 -0.25,0.45l-0.06 0.11 -0.06 0.12c-0.05,0.09 -0.09,0.17 -0.13,0.23 -0.06,0.09 -0.11,0.16 -0.15,0.21 -0.07,0.07 -0.14,0.12 -0.21,0.13 0.07,-0.04 0.13,-0.09 0.19,-0.16 0.04,-0.05 0.08,-0.12 0.13,-0.22 0.03,-0.05 0.06,-0.13 0.11,-0.23l0.12 -0.23c0.1,-0.2 0.19,-0.35 0.26,-0.45 0.06,-0.08 0.12,-0.14 0.17,-0.19 0.08,-0.07 0.16,-0.1 0.22,-0.1 -0.07,0.01 -0.13,0.06 -0.2,0.14zm-2.36 3.93c-0.06,0.05 -0.11,0.1 -0.15,0.13 -0.12,0.1 -0.21,0.2 -0.27,0.29 -0.04,0.06 -0.07,0.12 -0.09,0.18 -0.02,0.05 -0.03,0.12 -0.05,0.21 -0.01,-0.07 -0,-0.14 0.01,-0.22 0.02,-0.07 0.04,-0.14 0.08,-0.2 0.06,-0.1 0.15,-0.21 0.27,-0.32 0.08,-0.08 0.19,-0.16 0.32,-0.25l0.08 -0.06 0.08 -0.06c0.06,-0.05 0.12,-0.09 0.16,-0.12 -0.07,0.09 -0.16,0.19 -0.29,0.29l-0.15 0.13zm-0.8 -3.43c-0.04,0.06 -0.06,0.13 -0.08,0.21 -0.02,0.07 -0.02,0.15 -0.02,0.24 -0.03,-0.08 -0.05,-0.16 -0.04,-0.25 0,-0.09 0.03,-0.17 0.08,-0.25 0.05,-0.08 0.11,-0.13 0.18,-0.17 0.07,-0.04 0.15,-0.05 0.23,-0.04 -0.15,0.04 -0.27,0.13 -0.35,0.26zm3.35 -0.96c-0.16,0.01 -0.31,0.09 -0.46,0.26 -0.11,0.12 -0.23,0.31 -0.36,0.55l-0.08 0.15 -0.04 0.07 -0.03 0.07c-0.06,0.12 -0.1,0.2 -0.13,0.25 -0.09,0.17 -0.17,0.25 -0.23,0.26 -0.06,0 -0.19,-0.1 -0.39,-0.32l-0.03 -0.04 -0.04 -0.04c-0.03,-0.03 -0.05,-0.06 -0.07,-0.08 -0.06,-0.06 -0.11,-0.12 -0.16,-0.17 -0.13,-0.13 -0.26,-0.25 -0.39,-0.36 -0.2,-0.16 -0.41,-0.24 -0.62,-0.23 -0.19,0.01 -0.36,0.08 -0.5,0.23 -0.14,0.15 -0.22,0.32 -0.24,0.54 -0.03,0.23 0.03,0.45 0.15,0.67 0.09,0.16 0.22,0.32 0.39,0.49 0.07,0.07 0.14,0.14 0.23,0.22l0.11 0.1 0.11 0.1c0.19,0.16 0.32,0.29 0.39,0.37 0.11,0.13 0.17,0.24 0.19,0.34 0.01,0.11 -0.04,0.22 -0.17,0.34 -0.04,0.05 -0.11,0.1 -0.2,0.17l-0.05 0.04 -0.06 0.04 -0.12 0.09c-0.19,0.16 -0.34,0.3 -0.43,0.44 -0.13,0.2 -0.2,0.41 -0.2,0.64 0,0.18 0.04,0.34 0.11,0.49 0.07,0.15 0.18,0.27 0.31,0.36 0.3,0.2 0.67,0.22 1.09,0.06 0.57,-0.22 1.13,-0.78 1.67,-1.7 0.49,-0.82 0.79,-1.6 0.9,-2.34 0.12,-0.75 0.1,-1.3 -0.05,-1.65 -0.12,-0.3 -0.34,-0.44 -0.64,-0.42zm3.76 1.19c-0.1,0.15 -0.2,0.27 -0.3,0.37 -0.13,0.13 -0.25,0.22 -0.37,0.28 0.1,-0.07 0.21,-0.18 0.33,-0.33 0.09,-0.11 0.19,-0.24 0.28,-0.38 0.04,-0.07 0.09,-0.13 0.12,-0.2l0.03 -0.05 0.03 -0.05c0.02,-0.04 0.05,-0.08 0.07,-0.1 0.05,-0.07 0.11,-0.12 0.18,-0.16 0.08,-0.04 0.15,-0.06 0.22,-0.06 -0.13,0.02 -0.25,0.1 -0.35,0.26 -0.02,0.02 -0.04,0.06 -0.06,0.1l-0.03 0.05 -0.03 0.05c-0.03,0.06 -0.08,0.13 -0.13,0.21zm-1.58 -0.87c-0.05,0.04 -0.1,0.09 -0.14,0.16 -0.06,0.09 -0.13,0.22 -0.18,0.39 -0.04,0.1 -0.08,0.24 -0.12,0.43l-0.05 0.22 -0.05 0.22c0.01,-0.18 0.02,-0.33 0.04,-0.45 0.03,-0.16 0.07,-0.31 0.11,-0.44 0.06,-0.17 0.13,-0.31 0.21,-0.4 0.05,-0.06 0.11,-0.11 0.17,-0.15 0.07,-0.04 0.14,-0.06 0.21,-0.05 -0.07,0.01 -0.13,0.04 -0.19,0.08zm1.86 2.4c-0.11,-0.06 -0.13,-0.11 -0.08,-0.17 0.02,-0.02 0.06,-0.05 0.12,-0.09l0.04 -0.03 0.05 -0.03c0.04,-0.02 0.08,-0.04 0.1,-0.05 0.19,-0.11 0.35,-0.23 0.46,-0.36 0.17,-0.19 0.29,-0.41 0.35,-0.66 0.06,-0.23 0.05,-0.45 -0.04,-0.66 -0.08,-0.19 -0.2,-0.32 -0.37,-0.41 -0.17,-0.09 -0.34,-0.1 -0.52,-0.04 -0.2,0.07 -0.36,0.22 -0.49,0.46 -0.22,0.4 -0.44,0.68 -0.65,0.83 -0.08,0.06 -0.14,0.08 -0.17,0.06 -0.03,-0.03 -0.03,-0.1 0.02,-0.2 0.17,-0.43 0.21,-0.78 0.13,-1.05 -0.07,-0.22 -0.21,-0.35 -0.43,-0.4 -0.45,-0.1 -0.79,0.16 -1,0.76 -0.18,0.48 -0.28,1.18 -0.29,2.1 -0.02,0.92 0.05,1.66 0.21,2.21 0.19,0.67 0.49,0.99 0.91,0.96 0.38,-0.03 0.59,-0.35 0.63,-0.95 0.01,-0.2 0,-0.43 -0.02,-0.68 -0.01,-0.09 -0.02,-0.18 -0.04,-0.26 -0,-0.03 -0.01,-0.07 -0.02,-0.1l-0.01 -0.04 -0 -0.02 -0 -0.01c-0.01,-0.08 -0.01,-0.13 0.02,-0.16 0.03,-0.03 0.07,-0.02 0.13,0.03 0.15,0.13 0.3,0.45 0.44,0.96 0.09,0.33 0.22,0.6 0.39,0.8 0.15,0.19 0.32,0.31 0.5,0.37 0.18,0.05 0.34,0.04 0.51,-0.03 0.16,-0.08 0.3,-0.21 0.41,-0.4 0.12,-0.21 0.18,-0.44 0.17,-0.7 -0,-0.25 -0.07,-0.5 -0.18,-0.76 -0.26,-0.54 -0.68,-0.97 -1.27,-1.3zm4.64 1.09c-0.04,0.1 -0.1,0.17 -0.18,0.22 -0.08,0.05 -0.17,0.08 -0.26,0.06 0.09,-0.02 0.16,-0.06 0.23,-0.11 0.07,-0.06 0.12,-0.13 0.15,-0.21 0.06,-0.15 0.07,-0.33 0.02,-0.53 0.05,0.08 0.08,0.17 0.09,0.27 0.01,0.1 -0,0.2 -0.04,0.3zm-0.74 -0.23c-0.04,-0.08 -0.07,-0.16 -0.06,-0.25 0,-0.08 0.03,-0.14 0.09,-0.18 0.05,-0.04 0.12,-0.04 0.18,-0.01 0.07,0.03 0.13,0.09 0.18,0.17 0.05,0.08 0.07,0.16 0.06,0.25 -0.01,0.08 -0.03,0.14 -0.09,0.18 -0.05,0.04 -0.12,0.04 -0.18,0.01 -0.07,-0.03 -0.13,-0.09 -0.18,-0.17zm-0.42 -1.76c0.06,-0.02 0.12,-0.05 0.17,-0.08 0.05,-0.04 0.1,-0.08 0.14,-0.13 0.04,-0.05 0.07,-0.1 0.11,-0.16 0.03,-0.06 0.05,-0.12 0.07,-0.19 0.02,0.14 -0.02,0.28 -0.12,0.4 -0.05,0.06 -0.11,0.1 -0.17,0.13 -0.07,0.03 -0.13,0.04 -0.19,0.03zm-0.11 -0.61c0.03,-0.06 0.06,-0.1 0.11,-0.12 0.04,-0.03 0.08,-0.03 0.12,-0.01 0.03,0.02 0.06,0.06 0.06,0.11 0.01,0.05 -0,0.11 -0.03,0.16 -0.03,0.06 -0.06,0.1 -0.11,0.12 -0.04,0.03 -0.08,0.03 -0.12,0.01 -0.04,-0.02 -0.06,-0.06 -0.06,-0.11 -0.01,-0.05 0,-0.11 0.03,-0.16zm-0.7 -0.73c-0.06,0.07 -0.12,0.16 -0.18,0.27 -0.09,0.17 -0.18,0.37 -0.25,0.6 -0.06,0.19 -0.11,0.41 -0.16,0.65 0.01,-0.22 0.05,-0.44 0.1,-0.67 0.06,-0.23 0.14,-0.44 0.25,-0.63 0.12,-0.22 0.27,-0.38 0.43,-0.5 0.1,-0.07 0.2,-0.12 0.29,-0.15 0.11,-0.03 0.21,-0.05 0.31,-0.04 -0.21,0.03 -0.4,0.11 -0.56,0.24 -0.08,0.07 -0.16,0.14 -0.22,0.22zm1.75 1.55c-0.05,-0.02 -0.06,-0.06 -0.03,-0.14 0.01,-0.03 0.03,-0.07 0.05,-0.13l0.02 -0.04 0.02 -0.04c0.01,-0.03 0.03,-0.06 0.04,-0.09 0.06,-0.16 0.11,-0.31 0.13,-0.45 0.03,-0.2 0.03,-0.41 -0.01,-0.63 -0.05,-0.24 -0.18,-0.44 -0.4,-0.59 -0.22,-0.16 -0.47,-0.24 -0.75,-0.24 -0.31,0 -0.59,0.11 -0.84,0.32 -0.29,0.24 -0.51,0.59 -0.66,1.06 -0.16,0.49 -0.23,1.01 -0.23,1.58 0.01,0.58 0.1,1.1 0.28,1.58 0.19,0.52 0.47,0.91 0.81,1.18 0.39,0.3 0.85,0.42 1.38,0.36 0.51,-0.06 0.9,-0.25 1.18,-0.59 0.26,-0.3 0.4,-0.67 0.41,-1.11 0.01,-0.43 -0.1,-0.82 -0.34,-1.19 -0.25,-0.4 -0.61,-0.68 -1.06,-0.85zm4.51 1.22c-0.05,0.05 -0.11,0.08 -0.16,0.1 -0.06,0.02 -0.13,0.03 -0.19,0.01 0.12,-0.04 0.22,-0.1 0.31,-0.18 0.07,-0.07 0.14,-0.16 0.22,-0.29 -0.01,0.14 -0.07,0.26 -0.18,0.35zm-0.43 -0.23c-0.06,-0.02 -0.1,-0.08 -0.12,-0.16 -0.02,-0.08 -0.02,-0.16 0,-0.25 0.03,-0.09 0.07,-0.16 0.14,-0.2 0.06,-0.04 0.13,-0.06 0.19,-0.03 0.06,0.02 0.11,0.07 0.13,0.15 0.02,0.08 0.02,0.16 -0.01,0.25 -0.03,0.09 -0.07,0.15 -0.14,0.2 -0.06,0.04 -0.13,0.06 -0.19,0.03zm-0.73 -2.27c-0.09,0.15 -0.2,0.35 -0.34,0.61 -0.04,0.09 -0.09,0.19 -0.15,0.31l-0.15 0.32c0.07,-0.21 0.15,-0.43 0.25,-0.66 0.09,-0.21 0.2,-0.42 0.32,-0.62 0.14,-0.23 0.28,-0.42 0.41,-0.56l0.06 -0.06c0.02,-0.02 0.04,-0.04 0.06,-0.06l0.06 -0.06 0.07 -0.05c0.12,-0.07 0.23,-0.11 0.31,-0.11 -0.09,0.01 -0.19,0.06 -0.29,0.14l-0.06 0.05 -0.06 0.06c-0.02,0.02 -0.04,0.04 -0.06,0.06l-0.05 0.07c-0.13,0.16 -0.26,0.34 -0.39,0.56zm0.99 -1.28c-0.34,-0.04 -0.71,0.23 -1.12,0.81 -0.36,0.53 -0.68,1.19 -0.95,2 -0.27,0.8 -0.42,1.51 -0.44,2.13 -0.03,0.68 0.11,1.07 0.41,1.18 0.23,0.09 0.44,0.07 0.65,-0.04 0.15,-0.08 0.31,-0.22 0.48,-0.43 0.03,-0.04 0.07,-0.09 0.1,-0.14l0.1 -0.13c0.08,-0.11 0.14,-0.2 0.18,-0.24 0.13,-0.16 0.24,-0.25 0.34,-0.25 0.1,-0 0.22,0.07 0.37,0.21 0.05,0.04 0.11,0.11 0.2,0.21l0.11 0.11 0.11 0.12c0.18,0.18 0.35,0.3 0.5,0.37 0.19,0.08 0.38,0.07 0.57,-0.03 0.22,-0.12 0.33,-0.49 0.34,-1.1 0,-0.57 -0.08,-1.22 -0.26,-1.95 -0.18,-0.76 -0.42,-1.39 -0.7,-1.9 -0.32,-0.57 -0.65,-0.88 -1,-0.93zm4.99 3.98c-0.05,0.08 -0.11,0.14 -0.18,0.18 -0.07,0.05 -0.15,0.07 -0.22,0.07 0.14,-0.07 0.26,-0.16 0.34,-0.29 0.07,-0.12 0.12,-0.27 0.14,-0.45 0.04,0.17 0.02,0.34 -0.08,0.49zm-0.84 -0.4c-0.02,-0.11 -0.01,-0.21 0.04,-0.3 0.04,-0.09 0.11,-0.14 0.19,-0.16 0.08,-0.02 0.16,0.01 0.23,0.07 0.07,0.06 0.12,0.15 0.14,0.25 0.02,0.11 0.01,0.21 -0.03,0.29 -0.04,0.09 -0.11,0.14 -0.19,0.16 -0.08,0.02 -0.16,-0.01 -0.23,-0.07 -0.07,-0.06 -0.12,-0.15 -0.14,-0.25zm-0.34 -3.26c-0.2,0.1 -0.37,0.23 -0.52,0.39 -0.14,0.15 -0.26,0.34 -0.38,0.56l-0.04 0.08 -0.04 0.08 -0.06 0.16 -0.06 0.17 -0.05 0.17c0.03,-0.24 0.1,-0.47 0.19,-0.68 0.1,-0.23 0.22,-0.42 0.38,-0.59 0.17,-0.18 0.35,-0.31 0.55,-0.4 0.1,-0.04 0.2,-0.07 0.32,-0.09l0.08 -0.01 0.08 -0.01 0.16 -0c-0.24,0.03 -0.44,0.09 -0.62,0.18zm1.3 -0.45c-0.82,-0.18 -1.48,-0.01 -2.01,0.51 -0.46,0.46 -0.73,1.11 -0.81,1.94 -0.08,0.8 0.04,1.54 0.35,2.21 0.34,0.73 0.83,1.17 1.47,1.33 0.6,0.15 1.16,-0.04 1.67,-0.57 0.46,-0.49 0.78,-1.13 0.95,-1.93 0.18,-0.82 0.14,-1.54 -0.11,-2.18 -0.28,-0.71 -0.78,-1.15 -1.51,-1.32zm5.45 3.39c-0.02,0.01 -0.05,0.04 -0.08,0.07l-0.04 0.04 -0.04 0.04c-0.07,0.06 -0.14,0.09 -0.2,0.11 -0.08,0.03 -0.15,0.03 -0.22,0.02 0.13,-0.03 0.26,-0.1 0.37,-0.19l0.04 -0.04 0.04 -0.04c0.04,-0.03 0.07,-0.05 0.1,-0.06 0.08,-0.04 0.15,-0.05 0.22,-0.04 -0.07,0.02 -0.13,0.05 -0.19,0.09zm-2.38 -2.73c-0.13,0.16 -0.24,0.34 -0.34,0.55 -0.08,0.18 -0.16,0.39 -0.23,0.63 0.03,-0.23 0.09,-0.45 0.17,-0.66 0.08,-0.21 0.2,-0.4 0.34,-0.58 0.15,-0.18 0.32,-0.32 0.51,-0.41 0.11,-0.05 0.21,-0.08 0.31,-0.1 0.11,-0.02 0.22,-0.03 0.31,-0.03 -0.23,0.03 -0.43,0.09 -0.59,0.18 -0.18,0.11 -0.34,0.24 -0.48,0.41zm3.25 3.15c-0.05,-0.44 -0.21,-0.71 -0.47,-0.81 -0.11,-0.04 -0.23,-0.05 -0.36,-0.01 -0.13,0.04 -0.25,0.11 -0.36,0.21 -0.11,0.1 -0.22,0.14 -0.35,0.13 -0.12,-0.01 -0.22,-0.06 -0.33,-0.16 -0.1,-0.1 -0.18,-0.24 -0.23,-0.4 -0.05,-0.18 -0.07,-0.38 -0.05,-0.6 0.03,-0.31 0.16,-0.49 0.39,-0.54 0.17,-0.03 0.41,0 0.72,0.11 0.13,0.05 0.26,0.04 0.37,-0.02 0.1,-0.06 0.18,-0.15 0.23,-0.28 0.05,-0.14 0.06,-0.29 0.03,-0.45 -0.03,-0.17 -0.11,-0.34 -0.22,-0.5 -0.25,-0.34 -0.57,-0.56 -0.96,-0.67 -0.36,-0.1 -0.72,-0.1 -1.08,0.01 -0.46,0.14 -0.83,0.48 -1.12,1.01 -0.31,0.58 -0.44,1.3 -0.41,2.14 0.04,0.96 0.3,1.7 0.77,2.22 0.22,0.25 0.48,0.42 0.78,0.53 0.3,0.11 0.61,0.14 0.94,0.09 0.56,-0.07 1.01,-0.31 1.33,-0.72 0.31,-0.38 0.43,-0.81 0.37,-1.3zm1.66 -3.84c-0.18,0.04 -0.33,0.08 -0.44,0.12 -0.17,0.06 -0.31,0.13 -0.41,0.2 -0.07,0.06 -0.13,0.11 -0.16,0.16 -0.04,0.06 -0.06,0.14 -0.06,0.23 -0.02,-0.09 -0.01,-0.17 0.02,-0.25 0.03,-0.07 0.08,-0.13 0.16,-0.2 0.1,-0.09 0.24,-0.16 0.42,-0.23 0.29,-0.1 0.59,-0.14 0.92,-0.12 -0.17,0.02 -0.32,0.05 -0.46,0.08zm0.73 -0.41c-0.64,-0.01 -1.16,0.09 -1.55,0.29 -0.41,0.22 -0.59,0.51 -0.55,0.88 0.02,0.21 0.11,0.35 0.26,0.44 0.11,0.06 0.27,0.1 0.48,0.12l0.13 0.01 0.13 0.01c0.1,0 0.18,0.01 0.24,0.03 0.16,0.03 0.26,0.1 0.3,0.2 0.02,0.06 0.02,0.43 -0.03,1.11 -0.02,0.34 -0.03,0.64 -0.03,0.88 -0,0.34 0.01,0.64 0.04,0.9 0.05,0.38 0.19,0.69 0.41,0.92 0.23,0.24 0.5,0.34 0.8,0.28 0.56,-0.11 0.74,-0.72 0.54,-1.85 -0.11,-0.59 -0.17,-1.1 -0.19,-1.53 -0.02,-0.45 0,-0.72 0.08,-0.79 0.06,-0.05 0.16,-0.08 0.3,-0.09 0.04,-0 0.11,-0 0.2,-0.01l0.11 0 0.11 -0.01c0.17,-0.01 0.3,-0.04 0.4,-0.1 0.12,-0.07 0.21,-0.18 0.24,-0.34 0.04,-0.19 0.01,-0.38 -0.1,-0.54 -0.11,-0.16 -0.28,-0.3 -0.51,-0.42 -0.47,-0.25 -1.08,-0.37 -1.81,-0.39zm5.58 4.01c-0.04,0.08 -0.1,0.14 -0.18,0.18 -0.08,0.04 -0.16,0.06 -0.24,0.04 0.16,-0.04 0.28,-0.13 0.35,-0.27 0.04,-0.06 0.06,-0.13 0.08,-0.22 0.01,-0.07 0.01,-0.16 0.01,-0.25 0.04,0.08 0.05,0.17 0.05,0.26 -0,0.09 -0.02,0.18 -0.07,0.25zm-0.7 -0.3c-0.04,-0.08 -0.06,-0.16 -0.05,-0.24 0.01,-0.08 0.04,-0.14 0.09,-0.17 0.06,-0.03 0.12,-0.03 0.19,0.01 0.07,0.03 0.13,0.09 0.17,0.17 0.04,0.08 0.06,0.17 0.05,0.25 -0.01,0.08 -0.04,0.14 -0.09,0.17 -0.05,0.03 -0.11,0.03 -0.18,-0 -0.07,-0.03 -0.13,-0.09 -0.17,-0.18zm-0.51 -3.51c-0.05,0.03 -0.1,0.07 -0.16,0.12 -0.09,0.09 -0.17,0.19 -0.26,0.31 -0.06,0.09 -0.14,0.21 -0.22,0.36 -0.03,0.05 -0.06,0.11 -0.1,0.19l-0.09 0.19c0.05,-0.16 0.09,-0.3 0.14,-0.4 0.06,-0.14 0.13,-0.26 0.21,-0.38 0.09,-0.13 0.19,-0.24 0.28,-0.31 0.13,-0.1 0.25,-0.15 0.38,-0.15 -0.06,0.01 -0.12,0.04 -0.18,0.08zm1.1 2.02c-0.14,-0.04 -0.22,-0.11 -0.27,-0.22 -0.03,-0.09 -0.04,-0.22 -0.02,-0.39 0,-0.03 0.01,-0.07 0.02,-0.12l0.02 -0.12c0.02,-0.11 0.03,-0.2 0.04,-0.27 0.02,-0.22 0.02,-0.41 -0.01,-0.58 -0.04,-0.24 -0.13,-0.42 -0.27,-0.56 -0.14,-0.14 -0.31,-0.19 -0.51,-0.16 -0.21,0.03 -0.41,0.15 -0.61,0.37 -0.23,0.25 -0.43,0.6 -0.6,1.06 -0.18,0.47 -0.29,0.98 -0.32,1.52 -0.03,0.56 0.01,1.07 0.15,1.54 0.15,0.51 0.38,0.9 0.7,1.17 0.36,0.3 0.8,0.44 1.32,0.41 0.5,-0.03 0.91,-0.21 1.22,-0.54 0.29,-0.3 0.45,-0.68 0.5,-1.12 0.04,-0.44 -0.05,-0.85 -0.27,-1.21 -0.24,-0.39 -0.6,-0.66 -1.08,-0.8zm1.56 -2.03c-0.04,0.04 -0.07,0.1 -0.09,0.17 -0.02,0.06 -0.02,0.13 -0.03,0.2 -0,0.1 0.02,0.25 0.05,0.42l0.05 0.21 0.04 0.21c-0.06,-0.15 -0.11,-0.28 -0.15,-0.4 -0.05,-0.16 -0.07,-0.31 -0.07,-0.44 0,-0.09 0.02,-0.16 0.03,-0.22 0.03,-0.08 0.07,-0.15 0.12,-0.19 0.1,-0.09 0.23,-0.13 0.38,-0.12 -0.14,0.02 -0.26,0.08 -0.34,0.17zm1.38 0.18c-0.12,-0.22 -0.27,-0.39 -0.45,-0.51 -0.16,-0.11 -0.34,-0.16 -0.52,-0.17 -0.17,-0.01 -0.33,0.03 -0.47,0.11 -0.14,0.08 -0.25,0.2 -0.31,0.34 -0.11,0.27 -0.09,0.66 0.06,1.18 0.02,0.08 0.05,0.19 0.1,0.32l0.05 0.16 0.05 0.16c0.08,0.26 0.13,0.47 0.16,0.64 0.06,0.41 0.1,0.83 0.11,1.27 0,0.14 0,0.3 0,0.5l0 0.11 0 0.11c-0,0.08 -0,0.15 0,0.2 0,0.27 0.03,0.46 0.07,0.57 0.05,0.14 0.15,0.22 0.3,0.25 0.29,0.06 0.54,-0.11 0.75,-0.53 0.19,-0.36 0.33,-0.86 0.41,-1.49 0.08,-0.61 0.09,-1.21 0.04,-1.8 -0.05,-0.62 -0.17,-1.1 -0.35,-1.42z"/>
   <path class="fil0" d="M49.51 11.21c-0.1,0.15 -0.2,0.27 -0.3,0.38 -0.13,0.13 -0.25,0.22 -0.37,0.28 0.1,-0.07 0.21,-0.18 0.33,-0.33 0.09,-0.11 0.19,-0.24 0.28,-0.38 0.04,-0.07 0.09,-0.13 0.12,-0.2l0.03 -0.05 0.03 -0.05c0.02,-0.04 0.05,-0.08 0.07,-0.1 0.05,-0.07 0.11,-0.12 0.18,-0.16 0.08,-0.04 0.15,-0.06 0.22,-0.06 -0.13,0.02 -0.25,0.1 -0.35,0.26 -0.02,0.02 -0.04,0.06 -0.06,0.1l-0.03 0.05 -0.03 0.05c-0.03,0.06 -0.08,0.13 -0.13,0.21zm-1.58 -0.87c-0.05,0.04 -0.1,0.09 -0.14,0.16 -0.06,0.09 -0.13,0.22 -0.18,0.39 -0.04,0.1 -0.08,0.24 -0.12,0.43l-0.05 0.22 -0.05 0.22c0.01,-0.18 0.02,-0.33 0.04,-0.45 0.03,-0.16 0.06,-0.31 0.11,-0.44 0.06,-0.17 0.13,-0.31 0.21,-0.4 0.05,-0.06 0.11,-0.11 0.17,-0.15 0.07,-0.04 0.14,-0.06 0.21,-0.05 -0.07,0.01 -0.13,0.04 -0.19,0.09zm1.86 2.4c-0.11,-0.06 -0.13,-0.11 -0.08,-0.17 0.02,-0.02 0.06,-0.05 0.12,-0.09l0.04 -0.03 0.05 -0.03c0.04,-0.02 0.08,-0.04 0.1,-0.05 0.19,-0.11 0.35,-0.23 0.46,-0.36 0.17,-0.19 0.29,-0.41 0.35,-0.66 0.06,-0.23 0.05,-0.45 -0.04,-0.66 -0.08,-0.19 -0.2,-0.32 -0.37,-0.41 -0.17,-0.09 -0.34,-0.1 -0.52,-0.04 -0.2,0.07 -0.36,0.22 -0.49,0.46 -0.22,0.4 -0.44,0.68 -0.65,0.83 -0.08,0.06 -0.14,0.08 -0.17,0.06 -0.03,-0.03 -0.03,-0.09 0.02,-0.2 0.17,-0.43 0.21,-0.78 0.13,-1.05 -0.07,-0.22 -0.21,-0.35 -0.43,-0.4 -0.45,-0.09 -0.79,0.16 -1,0.76 -0.18,0.48 -0.28,1.18 -0.29,2.1 -0.02,0.92 0.05,1.66 0.21,2.21 0.19,0.67 0.49,0.99 0.91,0.96 0.38,-0.03 0.59,-0.35 0.63,-0.95 0.01,-0.2 0,-0.43 -0.02,-0.68 -0.01,-0.09 -0.02,-0.18 -0.04,-0.26 -0,-0.04 -0.01,-0.07 -0.02,-0.1l-0.01 -0.04 -0 -0.02 -0 -0.01c-0.01,-0.08 -0.01,-0.13 0.02,-0.16 0.03,-0.03 0.07,-0.02 0.13,0.03 0.15,0.13 0.3,0.45 0.44,0.96 0.09,0.33 0.22,0.6 0.39,0.8 0.15,0.19 0.32,0.31 0.5,0.37 0.18,0.05 0.34,0.04 0.51,-0.03 0.16,-0.08 0.3,-0.21 0.41,-0.4 0.12,-0.21 0.18,-0.44 0.17,-0.7 -0,-0.25 -0.07,-0.5 -0.18,-0.76 -0.26,-0.54 -0.68,-0.97 -1.27,-1.3zm5.28 -2.64c-0.05,0.05 -0.1,0.12 -0.15,0.2 -0.07,0.12 -0.16,0.27 -0.25,0.45l-0.06 0.11 -0.06 0.12c-0.05,0.09 -0.09,0.17 -0.13,0.23 -0.06,0.09 -0.11,0.16 -0.15,0.21 -0.07,0.07 -0.14,0.12 -0.21,0.13 0.07,-0.04 0.13,-0.09 0.19,-0.16 0.04,-0.05 0.08,-0.12 0.13,-0.22 0.03,-0.05 0.06,-0.13 0.11,-0.24l0.12 -0.23c0.1,-0.2 0.19,-0.35 0.26,-0.45 0.06,-0.08 0.12,-0.14 0.17,-0.19 0.08,-0.07 0.16,-0.1 0.22,-0.1 -0.07,0.01 -0.13,0.06 -0.2,0.14zm-2.36 3.93c-0.06,0.05 -0.11,0.1 -0.15,0.13 -0.12,0.1 -0.21,0.2 -0.27,0.29 -0.04,0.06 -0.07,0.12 -0.09,0.18 -0.02,0.05 -0.03,0.12 -0.05,0.21 -0.01,-0.07 -0,-0.14 0.01,-0.22 0.02,-0.07 0.04,-0.14 0.08,-0.2 0.06,-0.1 0.15,-0.21 0.27,-0.32 0.08,-0.08 0.19,-0.16 0.32,-0.25l0.08 -0.06 0.08 -0.06c0.06,-0.04 0.12,-0.09 0.16,-0.12 -0.07,0.09 -0.16,0.19 -0.29,0.29l-0.15 0.13zm-0.8 -3.43c-0.04,0.06 -0.06,0.13 -0.08,0.21 -0.02,0.07 -0.02,0.15 -0.02,0.23 -0.03,-0.08 -0.05,-0.16 -0.04,-0.25 0,-0.09 0.03,-0.17 0.08,-0.25 0.05,-0.08 0.11,-0.13 0.18,-0.17 0.07,-0.04 0.15,-0.05 0.23,-0.04 -0.15,0.04 -0.27,0.13 -0.35,0.26zm3.35 -0.96c-0.16,0.01 -0.31,0.09 -0.46,0.26 -0.11,0.12 -0.23,0.31 -0.36,0.55l-0.08 0.15 -0.04 0.07 -0.03 0.07c-0.06,0.12 -0.1,0.2 -0.13,0.25 -0.09,0.17 -0.17,0.25 -0.23,0.26 -0.06,0 -0.19,-0.1 -0.39,-0.32l-0.03 -0.04 -0.04 -0.04c-0.03,-0.03 -0.05,-0.06 -0.07,-0.08 -0.06,-0.06 -0.11,-0.12 -0.16,-0.17 -0.13,-0.13 -0.26,-0.25 -0.39,-0.36 -0.2,-0.17 -0.41,-0.24 -0.62,-0.23 -0.19,0.01 -0.36,0.08 -0.5,0.23 -0.14,0.15 -0.22,0.32 -0.24,0.54 -0.03,0.23 0.03,0.45 0.15,0.67 0.09,0.16 0.22,0.32 0.39,0.49 0.07,0.07 0.14,0.14 0.23,0.22l0.11 0.1 0.11 0.1c0.19,0.16 0.32,0.29 0.39,0.37 0.11,0.13 0.17,0.24 0.19,0.34 0.01,0.11 -0.04,0.22 -0.17,0.34 -0.05,0.05 -0.11,0.1 -0.2,0.17l-0.05 0.04 -0.06 0.04 -0.12 0.09c-0.19,0.16 -0.34,0.3 -0.43,0.44 -0.13,0.2 -0.2,0.41 -0.2,0.64 0,0.18 0.04,0.35 0.11,0.49 0.07,0.15 0.18,0.27 0.31,0.36 0.3,0.2 0.67,0.22 1.09,0.06 0.57,-0.22 1.13,-0.78 1.67,-1.7 0.49,-0.82 0.79,-1.61 0.91,-2.34 0.12,-0.75 0.1,-1.3 -0.05,-1.65 -0.12,-0.3 -0.34,-0.44 -0.64,-0.42zm2.52 0.3c-0.18,0.04 -0.33,0.08 -0.44,0.12 -0.17,0.06 -0.31,0.13 -0.41,0.2 -0.07,0.06 -0.13,0.11 -0.16,0.16 -0.04,0.06 -0.06,0.14 -0.06,0.23 -0.02,-0.09 -0.01,-0.17 0.02,-0.25 0.03,-0.07 0.08,-0.13 0.16,-0.2 0.1,-0.09 0.24,-0.16 0.42,-0.23 0.29,-0.1 0.59,-0.14 0.92,-0.12 -0.17,0.02 -0.32,0.05 -0.46,0.08zm0.73 -0.41c-0.64,-0.01 -1.16,0.09 -1.55,0.29 -0.41,0.22 -0.59,0.51 -0.55,0.88 0.02,0.21 0.11,0.35 0.26,0.44 0.11,0.06 0.27,0.1 0.48,0.12l0.13 0.01 0.13 0.01c0.1,0 0.18,0.01 0.24,0.03 0.16,0.03 0.26,0.1 0.3,0.2 0.02,0.06 0.02,0.43 -0.03,1.11 -0.02,0.34 -0.03,0.64 -0.03,0.88 -0,0.34 0.01,0.64 0.04,0.9 0.05,0.38 0.19,0.69 0.41,0.92 0.23,0.24 0.5,0.34 0.8,0.28 0.56,-0.11 0.74,-0.72 0.54,-1.84 -0.11,-0.59 -0.17,-1.1 -0.19,-1.53 -0.02,-0.45 0,-0.72 0.08,-0.79 0.06,-0.05 0.16,-0.08 0.3,-0.09 0.04,-0 0.11,-0 0.2,-0.01l0.11 0 0.11 -0.01c0.17,-0.01 0.3,-0.04 0.4,-0.1 0.12,-0.07 0.21,-0.18 0.24,-0.34 0.04,-0.19 0.01,-0.38 -0.1,-0.54 -0.11,-0.16 -0.28,-0.3 -0.51,-0.42 -0.47,-0.25 -1.08,-0.37 -1.81,-0.39zm5.58 4.01c-0.04,0.08 -0.1,0.14 -0.18,0.18 -0.08,0.04 -0.16,0.06 -0.24,0.04 0.16,-0.04 0.28,-0.13 0.35,-0.27 0.04,-0.06 0.06,-0.13 0.08,-0.22 0.01,-0.07 0.01,-0.16 0.01,-0.25 0.04,0.08 0.05,0.17 0.05,0.26 -0,0.09 -0.02,0.18 -0.07,0.25zm-0.7 -0.3c-0.04,-0.08 -0.06,-0.16 -0.05,-0.24 0.01,-0.08 0.04,-0.14 0.09,-0.17 0.06,-0.03 0.12,-0.03 0.19,0.01 0.07,0.03 0.13,0.09 0.17,0.17 0.04,0.08 0.06,0.17 0.05,0.25 -0.01,0.08 -0.04,0.14 -0.09,0.17 -0.05,0.03 -0.11,0.03 -0.18,-0 -0.07,-0.03 -0.13,-0.09 -0.17,-0.18zm-0.51 -3.51c-0.05,0.03 -0.1,0.07 -0.16,0.12 -0.09,0.09 -0.17,0.19 -0.26,0.31 -0.06,0.09 -0.14,0.21 -0.22,0.36 -0.03,0.05 -0.06,0.11 -0.1,0.19l-0.09 0.19c0.05,-0.16 0.09,-0.3 0.14,-0.4 0.06,-0.14 0.13,-0.26 0.21,-0.38 0.09,-0.13 0.19,-0.24 0.28,-0.31 0.13,-0.1 0.25,-0.15 0.38,-0.15 -0.06,0.01 -0.12,0.04 -0.18,0.08zm1.1 2.02c-0.14,-0.04 -0.22,-0.11 -0.27,-0.22 -0.03,-0.09 -0.04,-0.22 -0.02,-0.39 0,-0.03 0.01,-0.07 0.02,-0.12l0.02 -0.12c0.02,-0.11 0.03,-0.2 0.04,-0.27 0.02,-0.22 0.02,-0.41 -0.01,-0.58 -0.04,-0.24 -0.13,-0.42 -0.27,-0.56 -0.14,-0.14 -0.31,-0.19 -0.51,-0.16 -0.21,0.03 -0.41,0.15 -0.61,0.37 -0.23,0.25 -0.43,0.6 -0.6,1.06 -0.18,0.47 -0.29,0.98 -0.32,1.52 -0.03,0.56 0.01,1.07 0.15,1.54 0.15,0.51 0.38,0.9 0.7,1.17 0.36,0.3 0.8,0.44 1.32,0.41 0.5,-0.03 0.91,-0.21 1.22,-0.54 0.29,-0.3 0.45,-0.68 0.5,-1.12 0.04,-0.44 -0.05,-0.85 -0.27,-1.21 -0.24,-0.39 -0.6,-0.66 -1.08,-0.8zm1.56 -2.03c-0.04,0.04 -0.07,0.1 -0.09,0.17 -0.02,0.06 -0.02,0.13 -0.03,0.2 -0,0.1 0.02,0.25 0.05,0.42l0.05 0.21 0.04 0.21c-0.06,-0.15 -0.11,-0.28 -0.15,-0.41 -0.05,-0.16 -0.07,-0.31 -0.07,-0.44 0,-0.09 0.02,-0.16 0.03,-0.22 0.03,-0.08 0.07,-0.15 0.12,-0.19 0.1,-0.09 0.23,-0.13 0.38,-0.12 -0.14,0.02 -0.26,0.08 -0.34,0.17zm1.38 0.18c-0.12,-0.22 -0.27,-0.39 -0.45,-0.51 -0.16,-0.11 -0.34,-0.16 -0.52,-0.17 -0.17,-0.01 -0.33,0.03 -0.47,0.11 -0.14,0.08 -0.25,0.2 -0.31,0.34 -0.11,0.27 -0.09,0.66 0.06,1.18 0.02,0.08 0.05,0.19 0.1,0.32l0.05 0.16 0.05 0.16c0.08,0.26 0.13,0.47 0.16,0.64 0.06,0.41 0.1,0.83 0.11,1.27 0,0.14 0,0.3 0,0.5l0 0.11 0 0.11c-0,0.08 -0,0.15 0,0.2 0,0.27 0.03,0.46 0.07,0.57 0.05,0.14 0.15,0.22 0.3,0.25 0.29,0.06 0.54,-0.12 0.75,-0.53 0.19,-0.36 0.33,-0.86 0.41,-1.49 0.08,-0.61 0.09,-1.21 0.04,-1.8 -0.05,-0.62 -0.17,-1.09 -0.35,-1.42zm4.11 -0.47c-0.04,0.02 -0.07,0.05 -0.1,0.1 -0.04,0.06 -0.07,0.16 -0.09,0.28 -0.02,0.16 -0.03,0.37 -0.01,0.61l0 0.08 0 0.08c0.01,0.06 0.01,0.12 0,0.16 -0.01,0.12 -0.03,0.22 -0.06,0.31 -0.04,0.1 -0.09,0.19 -0.16,0.27 -0.07,0.08 -0.15,0.13 -0.24,0.16 0.17,-0.1 0.29,-0.25 0.35,-0.45 0.03,-0.1 0.04,-0.2 0.04,-0.3 0,-0.04 0,-0.09 -0,-0.15l-0.01 -0.08 -0 -0.08c-0.01,-0.25 -0,-0.46 0.02,-0.62 0.03,-0.13 0.07,-0.23 0.12,-0.3 0.04,-0.04 0.08,-0.07 0.12,-0.09 0.04,-0.02 0.08,-0.02 0.14,-0.02 -0.06,0.01 -0.1,0.03 -0.14,0.05zm-2.64 0.22c-0.09,0.11 -0.15,0.24 -0.2,0.4 -0.03,0.13 -0.07,0.28 -0.1,0.46l-0.04 0.23 -0.04 0.23c-0.01,-0.32 0.03,-0.63 0.11,-0.94 0.05,-0.17 0.12,-0.31 0.22,-0.42 0.05,-0.06 0.12,-0.11 0.19,-0.14 0.07,-0.03 0.15,-0.05 0.21,-0.04 -0.14,0.02 -0.26,0.1 -0.35,0.22zm2.74 -0.59c-0.27,0.03 -0.45,0.17 -0.55,0.41 -0.1,0.24 -0.13,0.61 -0.09,1.1 0.02,0.22 -0.02,0.38 -0.11,0.49 -0.08,0.1 -0.18,0.14 -0.3,0.14 -0.13,-0.01 -0.23,-0.06 -0.3,-0.17 -0.07,-0.11 -0.1,-0.25 -0.09,-0.43 0.03,-0.5 -0.03,-0.88 -0.18,-1.12 -0.13,-0.22 -0.35,-0.35 -0.64,-0.38 -0.24,-0.03 -0.45,0.04 -0.63,0.2 -0.18,0.16 -0.3,0.38 -0.37,0.66 -0.14,0.54 -0.2,1.17 -0.18,1.89 0.02,0.7 0.11,1.36 0.28,1.99 0.12,0.46 0.3,0.8 0.54,0.99 0.19,0.16 0.4,0.22 0.62,0.18 0.5,-0.1 0.71,-0.51 0.63,-1.23 -0.06,-0.52 0.03,-0.79 0.27,-0.8 0.12,-0 0.21,0.04 0.28,0.13 0.09,0.12 0.13,0.33 0.13,0.61 -0,0.47 0.08,0.83 0.25,1.07 0.16,0.22 0.37,0.33 0.65,0.32 0.46,-0.02 0.77,-0.35 0.93,-0.98 0.12,-0.46 0.17,-1.22 0.15,-2.27 -0.01,-0.81 -0.13,-1.48 -0.37,-2.01 -0.24,-0.55 -0.55,-0.81 -0.92,-0.78zm4.35 4.01c-0.04,0.08 -0.1,0.14 -0.18,0.18 -0.08,0.04 -0.16,0.06 -0.24,0.04 0.16,-0.04 0.28,-0.13 0.35,-0.27 0.04,-0.06 0.06,-0.13 0.08,-0.22 0.01,-0.07 0.01,-0.16 0.01,-0.25 0.04,0.08 0.05,0.17 0.05,0.26 -0,0.09 -0.02,0.18 -0.07,0.26zm-0.7 -0.3c-0.04,-0.08 -0.06,-0.16 -0.05,-0.24 0.01,-0.08 0.04,-0.14 0.09,-0.17 0.06,-0.03 0.12,-0.03 0.19,0.01 0.07,0.03 0.13,0.09 0.17,0.17 0.04,0.08 0.06,0.17 0.05,0.25 -0.01,0.08 -0.04,0.14 -0.09,0.17 -0.05,0.03 -0.11,0.03 -0.18,-0 -0.07,-0.03 -0.13,-0.09 -0.17,-0.18zm-0.51 -3.51c-0.05,0.03 -0.1,0.07 -0.16,0.12 -0.09,0.09 -0.17,0.19 -0.26,0.31 -0.07,0.09 -0.14,0.21 -0.22,0.36 -0.03,0.05 -0.06,0.11 -0.1,0.19l-0.09 0.19c0.05,-0.16 0.09,-0.3 0.14,-0.4 0.06,-0.14 0.13,-0.26 0.21,-0.38 0.09,-0.13 0.19,-0.24 0.28,-0.31 0.13,-0.1 0.25,-0.15 0.38,-0.15 -0.06,0.01 -0.12,0.04 -0.18,0.08zm1.1 2.02c-0.14,-0.04 -0.22,-0.11 -0.26,-0.22 -0.03,-0.09 -0.04,-0.22 -0.02,-0.39 0,-0.03 0.01,-0.07 0.01,-0.12l0.02 -0.12c0.02,-0.11 0.03,-0.2 0.04,-0.27 0.02,-0.22 0.02,-0.41 -0.01,-0.58 -0.04,-0.24 -0.13,-0.42 -0.27,-0.56 -0.15,-0.14 -0.31,-0.19 -0.51,-0.16 -0.21,0.03 -0.41,0.15 -0.61,0.38 -0.23,0.25 -0.43,0.6 -0.6,1.06 -0.18,0.47 -0.29,0.98 -0.32,1.52 -0.03,0.56 0.01,1.07 0.15,1.54 0.15,0.51 0.38,0.9 0.7,1.17 0.36,0.3 0.8,0.44 1.32,0.41 0.5,-0.03 0.91,-0.21 1.22,-0.54 0.29,-0.31 0.46,-0.68 0.5,-1.12 0.04,-0.44 -0.05,-0.85 -0.27,-1.21 -0.24,-0.39 -0.6,-0.66 -1.08,-0.8zm1.56 -2.03c-0.04,0.04 -0.07,0.1 -0.09,0.17 -0.02,0.06 -0.02,0.13 -0.03,0.2 -0,0.1 0.02,0.25 0.05,0.42l0.05 0.21 0.04 0.21c-0.06,-0.15 -0.11,-0.28 -0.15,-0.4 -0.05,-0.16 -0.07,-0.31 -0.07,-0.44 0.01,-0.09 0.02,-0.16 0.03,-0.22 0.03,-0.08 0.07,-0.15 0.12,-0.19 0.1,-0.09 0.23,-0.13 0.38,-0.12 -0.15,0.02 -0.26,0.08 -0.34,0.17zm1.38 0.18c-0.12,-0.22 -0.27,-0.39 -0.45,-0.51 -0.16,-0.11 -0.34,-0.16 -0.52,-0.17 -0.17,-0.01 -0.33,0.03 -0.48,0.11 -0.14,0.08 -0.25,0.2 -0.31,0.34 -0.11,0.27 -0.09,0.66 0.06,1.18 0.02,0.08 0.05,0.19 0.1,0.32l0.05 0.16 0.05 0.16c0.08,0.26 0.13,0.47 0.16,0.64 0.06,0.41 0.1,0.83 0.11,1.27 0,0.14 0,0.3 0,0.5l0 0.11 0 0.11c-0,0.08 -0,0.15 0,0.2 0,0.27 0.03,0.46 0.07,0.57 0.05,0.14 0.15,0.22 0.3,0.25 0.29,0.06 0.54,-0.11 0.75,-0.53 0.19,-0.36 0.33,-0.86 0.41,-1.49 0.08,-0.61 0.09,-1.21 0.04,-1.8 -0.05,-0.62 -0.17,-1.1 -0.35,-1.42z"/>
  </g>
 </g>
</svg>
