<?xml version="1.0" encoding="UTF-8"?>
<!DOCTYPE svg PUBLIC "-//W3C//DTD SVG 1.1//EN" "http://www.w3.org/Graphics/SVG/1.1/DTD/svg11.dtd">
<!-- Creator: CorelDRAW -->
<svg xmlns="http://www.w3.org/2000/svg" xml:space="preserve" width="28.9743mm" height="9.2811mm" version="1.1" style="shape-rendering:geometricPrecision; text-rendering:geometricPrecision; image-rendering:optimizeQuality; fill-rule:evenodd; clip-rule:evenodd"
viewBox="0 0 48.08 15.4"
 xmlns:xlink="http://www.w3.org/1999/xlink"
 xmlns:xodm="http://www.corel.com/coreldraw/odm/2003">
 <defs>
  <style type="text/css">
   <![CDATA[
    .fil0 {fill:#969677;fill-rule:nonzero}
    .fil1 {fill:white;fill-rule:nonzero}
   ]]>
  </style>
 </defs>
 <g id="Слой_x0020_1">
  <metadata id="CorelCorpID_0Corel-Layer"/>
  <path class="fil0" d="M3.21 5.79c-0.03,0 -0.07,0 -0.12,0.01l-0.06 0.01 -0.06 0c0.07,-0.06 0.15,-0.09 0.24,-0.09 0.05,0 0.09,0.01 0.13,0.02 0.04,0.02 0.08,0.05 0.1,0.09 -0.08,-0.03 -0.16,-0.04 -0.23,-0.04zm-2.01 -1.24c-0.05,0.06 -0.1,0.12 -0.15,0.17 -0.11,0.13 -0.19,0.26 -0.25,0.37 -0.08,0.13 -0.14,0.27 -0.17,0.42 -0.03,0.14 -0.05,0.3 -0.05,0.46l-0.02 -0.12 -0 -0.06 0 -0.06 0 -0.06 0 -0.06 0.01 -0.06 0.01 -0.06c0.03,-0.15 0.08,-0.3 0.16,-0.45 0.08,-0.14 0.17,-0.26 0.27,-0.37 0.05,-0.06 0.11,-0.11 0.17,-0.16l0.09 -0.07c0.03,-0.03 0.06,-0.05 0.09,-0.07l-0.08 0.08 -0.08 0.08zm0.35 -2.45c-0.07,0.03 -0.13,0.07 -0.19,0.1 -0.13,0.07 -0.25,0.16 -0.36,0.25 -0.11,0.09 -0.21,0.2 -0.31,0.32 -0.05,0.06 -0.09,0.13 -0.12,0.19 -0.04,0.07 -0.06,0.15 -0.07,0.22 -0,-0.13 0.04,-0.28 0.15,-0.44 0.08,-0.13 0.18,-0.24 0.31,-0.35 0.13,-0.1 0.25,-0.19 0.38,-0.24 0.07,-0.03 0.14,-0.06 0.2,-0.08 0.08,-0.02 0.15,-0.04 0.22,-0.05l-0.1 0.04c-0.04,0.01 -0.07,0.03 -0.1,0.04zm1.31 3.43c-0.2,0.08 -0.38,0.12 -0.55,0.1 -0.14,-0.01 -0.22,-0.04 -0.25,-0.1 -0.01,-0.03 -0.02,-0.06 -0.02,-0.09 -0,-0.04 0.01,-0.09 0.03,-0.13 0.06,-0.13 0.19,-0.26 0.41,-0.4 0.28,-0.18 0.51,-0.42 0.7,-0.7 0.18,-0.28 0.3,-0.56 0.35,-0.86 0.06,-0.31 0.03,-0.59 -0.07,-0.84 -0.11,-0.27 -0.3,-0.48 -0.57,-0.63 -0.32,-0.17 -0.67,-0.23 -1.03,-0.18 -0.32,0.05 -0.62,0.17 -0.91,0.38 -0.27,0.19 -0.47,0.42 -0.6,0.67 -0.13,0.26 -0.16,0.48 -0.09,0.68 0.07,0.19 0.21,0.3 0.41,0.33 0.21,0.03 0.46,-0.02 0.75,-0.17 0.16,-0.08 0.28,-0.13 0.34,-0.15 0.07,-0.01 0.12,-0 0.15,0.04 0.07,0.08 -0.01,0.2 -0.26,0.35 -0.46,0.29 -0.81,0.61 -1.04,0.96 -0.29,0.44 -0.38,0.91 -0.27,1.41 0.08,0.35 0.31,0.61 0.68,0.77 0.31,0.13 0.69,0.2 1.17,0.2 0.47,0 0.86,-0.07 1.16,-0.21 0.31,-0.14 0.49,-0.34 0.54,-0.6 0.03,-0.13 0.02,-0.26 -0.02,-0.38 -0.04,-0.13 -0.1,-0.24 -0.19,-0.33 -0.1,-0.1 -0.21,-0.16 -0.34,-0.18 -0.15,-0.02 -0.3,-0 -0.47,0.07z"/>
  <path id="_1" class="fil0" d="M6.52 5.34c-0.04,0.09 -0.09,0.16 -0.15,0.21 -0.07,0.06 -0.14,0.09 -0.22,0.1 0.13,-0.07 0.24,-0.19 0.31,-0.35 0.06,-0.12 0.1,-0.27 0.12,-0.47 0.04,0.17 0.02,0.34 -0.05,0.51zm-0.45 0.02c-0.09,0.03 -0.17,0 -0.25,-0.08 -0.08,-0.09 -0.14,-0.2 -0.17,-0.35 -0.03,-0.15 -0.02,-0.28 0.02,-0.41 0.04,-0.12 0.11,-0.2 0.19,-0.23 0.09,-0.03 0.17,0 0.25,0.08 0.08,0.08 0.14,0.2 0.17,0.35 0.03,0.15 0.02,0.28 -0.02,0.41 -0.04,0.13 -0.11,0.2 -0.19,0.23zm-1.09 -2.76c-0.1,0.16 -0.19,0.35 -0.27,0.58 -0.06,0.19 -0.11,0.4 -0.15,0.64 0,-0.09 0.01,-0.2 0.03,-0.33 0.02,-0.11 0.04,-0.22 0.07,-0.33 0.06,-0.23 0.15,-0.43 0.26,-0.61 0.13,-0.2 0.29,-0.35 0.47,-0.44 0.09,-0.05 0.19,-0.09 0.3,-0.11 0.11,-0.02 0.21,-0.02 0.31,-0.02 -0.23,0.02 -0.42,0.08 -0.58,0.17 -0.17,0.1 -0.31,0.25 -0.43,0.44zm1.4 -0.87c-0.65,-0.13 -1.17,0.04 -1.56,0.53 -0.34,0.43 -0.53,1.02 -0.56,1.77 -0.03,0.73 0.09,1.38 0.36,1.97 0.29,0.64 0.7,1.02 1.21,1.14 0.48,0.11 0.91,-0.08 1.28,-0.58 0.35,-0.45 0.57,-1.04 0.67,-1.76 0.11,-0.74 0.05,-1.39 -0.17,-1.95 -0.25,-0.63 -0.66,-1.01 -1.24,-1.13z"/>
  <path id="_2" class="fil0" d="M11.18 5.79c-0.03,0 -0.07,0 -0.12,0.01l-0.06 0.01 -0.06 0c0.07,-0.06 0.15,-0.09 0.24,-0.09 0.05,0 0.09,0.01 0.13,0.02 0.04,0.02 0.08,0.05 0.1,0.09 -0.08,-0.03 -0.16,-0.04 -0.23,-0.04zm-2.01 -1.24c-0.05,0.06 -0.1,0.12 -0.15,0.17 -0.11,0.13 -0.19,0.26 -0.25,0.37 -0.08,0.13 -0.14,0.27 -0.17,0.42 -0.03,0.14 -0.05,0.3 -0.05,0.46l-0.02 -0.12 -0 -0.06 0 -0.06 0 -0.06 0 -0.06 0.01 -0.06 0.01 -0.06c0.03,-0.15 0.08,-0.3 0.16,-0.45 0.08,-0.14 0.17,-0.26 0.27,-0.37 0.05,-0.06 0.11,-0.11 0.17,-0.16l0.09 -0.07c0.03,-0.03 0.06,-0.05 0.09,-0.07l-0.08 0.08 -0.08 0.08zm0.35 -2.45c-0.07,0.03 -0.13,0.07 -0.19,0.1 -0.13,0.07 -0.25,0.16 -0.36,0.25 -0.11,0.09 -0.21,0.2 -0.31,0.32 -0.05,0.06 -0.09,0.13 -0.12,0.19 -0.04,0.07 -0.06,0.15 -0.07,0.22 -0,-0.13 0.04,-0.28 0.15,-0.44 0.08,-0.13 0.18,-0.24 0.31,-0.35 0.13,-0.1 0.25,-0.19 0.38,-0.24 0.07,-0.03 0.14,-0.06 0.2,-0.08 0.08,-0.02 0.15,-0.04 0.22,-0.05l-0.1 0.04c-0.04,0.01 -0.07,0.03 -0.1,0.04zm1.31 3.43c-0.2,0.08 -0.38,0.12 -0.55,0.1 -0.14,-0.01 -0.22,-0.04 -0.25,-0.1 -0.01,-0.03 -0.02,-0.06 -0.02,-0.09 -0,-0.04 0.01,-0.09 0.03,-0.13 0.06,-0.13 0.19,-0.26 0.41,-0.4 0.28,-0.18 0.51,-0.42 0.7,-0.7 0.18,-0.28 0.3,-0.56 0.35,-0.86 0.06,-0.31 0.03,-0.59 -0.07,-0.84 -0.11,-0.27 -0.3,-0.48 -0.57,-0.63 -0.32,-0.17 -0.67,-0.23 -1.03,-0.18 -0.32,0.05 -0.62,0.17 -0.91,0.38 -0.27,0.19 -0.47,0.42 -0.6,0.67 -0.13,0.26 -0.16,0.48 -0.09,0.68 0.07,0.19 0.21,0.3 0.41,0.33 0.21,0.03 0.46,-0.02 0.75,-0.17 0.16,-0.08 0.28,-0.13 0.34,-0.15 0.07,-0.01 0.12,-0 0.15,0.04 0.07,0.08 -0.01,0.2 -0.26,0.35 -0.46,0.29 -0.81,0.61 -1.04,0.96 -0.29,0.44 -0.38,0.91 -0.27,1.41 0.08,0.35 0.31,0.61 0.68,0.77 0.31,0.13 0.69,0.2 1.17,0.2 0.47,0 0.86,-0.07 1.16,-0.21 0.31,-0.14 0.49,-0.34 0.54,-0.6 0.03,-0.13 0.02,-0.26 -0.02,-0.38 -0.04,-0.13 -0.1,-0.24 -0.19,-0.33 -0.1,-0.1 -0.21,-0.16 -0.34,-0.18 -0.15,-0.02 -0.3,-0 -0.47,0.07z"/>
  <path id="_3" class="fil0" d="M18.46 4.12c-0.05,0.01 -0.11,0.03 -0.16,0.05l-0.04 0.02 -0.04 0.02c-0.03,0.02 -0.06,0.03 -0.09,0.03 -0.06,0.02 -0.12,0.02 -0.18,0.02l0.08 -0.03c0.03,-0.01 0.06,-0.02 0.08,-0.04l0.04 -0.02 0.04 -0.02c0.03,-0.02 0.06,-0.03 0.08,-0.05 0.06,-0.03 0.12,-0.04 0.18,-0.04 0.07,-0 0.13,0.01 0.18,0.05 -0.05,-0.01 -0.11,-0.01 -0.17,0zm-1.62 0.11c-0.05,0 -0.1,0.01 -0.14,0.01 -0.06,0 -0.1,0.01 -0.13,0.02 -0.03,0.01 -0.04,0.02 -0.06,0.03 -0.01,0.01 -0.02,0.03 -0.04,0.07 -0,-0.03 0,-0.06 0.01,-0.08 0.01,-0.02 0.03,-0.04 0.06,-0.06 0.04,-0.02 0.09,-0.03 0.15,-0.04 0.06,-0.01 0.11,-0 0.15,0 0.06,0.01 0.1,0.02 0.14,0.03 -0.04,0.01 -0.09,0.02 -0.15,0.02zm1.27 -0.28c-0.1,0.06 -0.26,0.08 -0.48,0.07 -0.07,-0.01 -0.17,-0.02 -0.3,-0.03l-0.15 -0.01c-0.06,-0.01 -0.11,-0.01 -0.15,-0.02 -0.23,-0.02 -0.41,-0.01 -0.52,0.03 -0.16,0.05 -0.25,0.17 -0.27,0.34 -0.03,0.22 0.06,0.41 0.27,0.57 0.2,0.15 0.46,0.25 0.78,0.31 0.32,0.06 0.62,0.05 0.91,-0 0.31,-0.06 0.54,-0.18 0.68,-0.35 0.1,-0.12 0.15,-0.26 0.16,-0.41 0,-0.15 -0.03,-0.27 -0.11,-0.39 -0.08,-0.12 -0.19,-0.18 -0.33,-0.21 -0.15,-0.03 -0.31,0.01 -0.49,0.1z"/>
  <path id="_4" class="fil0" d="M20.67 2.03c-0.16,0.03 -0.3,0.05 -0.4,0.09 -0.16,0.05 -0.28,0.1 -0.37,0.17 -0.07,0.05 -0.12,0.1 -0.15,0.14 -0.04,0.05 -0.06,0.12 -0.06,0.21 -0.02,-0.08 -0.01,-0.15 0.03,-0.23 0.03,-0.06 0.08,-0.12 0.15,-0.17 0.09,-0.07 0.22,-0.14 0.38,-0.19 0.26,-0.08 0.54,-0.1 0.83,-0.07 -0.15,0.02 -0.29,0.03 -0.41,0.05zm0.67 -0.34c-0.57,-0.03 -1.04,0.04 -1.4,0.2 -0.38,0.18 -0.55,0.43 -0.53,0.77 0.01,0.19 0.09,0.32 0.22,0.41 0.09,0.06 0.24,0.1 0.43,0.13l0.12 0.01 0.11 0.01c0.09,0.01 0.16,0.02 0.21,0.03 0.14,0.03 0.23,0.1 0.26,0.19 0.02,0.06 -0,0.39 -0.06,1 -0.03,0.31 -0.05,0.57 -0.06,0.79 -0.01,0.31 -0.01,0.58 0.01,0.81 0.03,0.35 0.14,0.63 0.33,0.84 0.2,0.23 0.43,0.32 0.71,0.28 0.51,-0.07 0.69,-0.62 0.55,-1.64 -0.07,-0.54 -0.11,-1 -0.11,-1.38 -0,-0.41 0.03,-0.64 0.11,-0.71 0.05,-0.04 0.14,-0.07 0.27,-0.07 0.04,0 0.1,0 0.18,0l0.1 0 0.1 -0c0.15,-0 0.27,-0.03 0.36,-0.07 0.11,-0.06 0.19,-0.16 0.23,-0.3 0.05,-0.17 0.02,-0.34 -0.07,-0.49 -0.09,-0.15 -0.24,-0.28 -0.45,-0.4 -0.42,-0.24 -0.95,-0.38 -1.61,-0.41z"/>
  <path id="_5" class="fil0" d="M26.61 2.3c-0.06,0.08 -0.13,0.17 -0.19,0.28 -0.11,0.19 -0.21,0.39 -0.29,0.61l-0.06 0.16 -0.06 0.16c-0.05,0.15 -0.09,0.25 -0.11,0.33 -0.06,0.14 -0.11,0.24 -0.16,0.31 -0.04,0.05 -0.08,0.08 -0.13,0.1 -0.04,0.02 -0.1,0.03 -0.16,0.02 0.06,-0 0.12,-0.01 0.16,-0.03 0.04,-0.02 0.08,-0.06 0.12,-0.11 0.05,-0.06 0.09,-0.16 0.14,-0.3l0.05 -0.16 0.05 -0.16c0.04,-0.13 0.08,-0.24 0.11,-0.33 0.09,-0.24 0.19,-0.44 0.31,-0.62 0.15,-0.23 0.31,-0.39 0.47,-0.48 -0.09,0.06 -0.16,0.14 -0.24,0.23zm-2.34 0.89c-0.03,0.16 -0.06,0.34 -0.09,0.56l-0.03 0.28 -0.03 0.28c-0.02,-0.56 0.04,-1.05 0.18,-1.49 0.03,-0.09 0.05,-0.16 0.08,-0.23 0.04,-0.09 0.08,-0.17 0.12,-0.23 0.12,-0.17 0.25,-0.25 0.39,-0.24 -0.18,0.02 -0.33,0.16 -0.44,0.42 -0.04,0.1 -0.08,0.21 -0.11,0.35 -0.01,0.05 -0.03,0.1 -0.04,0.16l-0.02 0.08 -0.01 0.04 -0.01 0.03zm3.24 -1.37c-0.29,-0.19 -0.58,-0.17 -0.88,0.05 -0.24,0.18 -0.46,0.47 -0.65,0.86 -0.06,0.13 -0.12,0.28 -0.18,0.44 -0.02,0.06 -0.04,0.13 -0.07,0.22l-0.03 0.1 -0.01 0.05 -0.02 0.05c-0.05,0.14 -0.08,0.24 -0.11,0.29 -0.03,0.07 -0.07,0.11 -0.1,0.11 -0.06,-0.01 -0.09,-0.06 -0.1,-0.15 -0,-0.09 0.01,-0.28 0.05,-0.59 0.08,-0.56 0.04,-0.96 -0.1,-1.19 -0.11,-0.18 -0.3,-0.25 -0.54,-0.22 -0.3,0.04 -0.54,0.35 -0.71,0.92 -0.17,0.55 -0.24,1.23 -0.22,2.03 0.04,1.47 0.44,2.26 1.2,2.37 0.22,0.03 0.44,-0.03 0.66,-0.17 0.21,-0.14 0.38,-0.32 0.52,-0.57 0.13,-0.21 0.24,-0.41 0.33,-0.59 0.03,-0.07 0.06,-0.14 0.09,-0.21 0.02,-0.04 0.04,-0.09 0.06,-0.15 0.04,-0.09 0.06,-0.15 0.07,-0.16 0.02,-0.02 0.04,-0.03 0.07,-0.03 0.03,0.01 0.03,0.12 0.01,0.32l-0.01 0.07 -0.01 0.07c-0.01,0.06 -0.01,0.12 -0.02,0.16 -0.01,0.13 -0.02,0.25 -0.02,0.35 -0.01,0.62 0.19,0.93 0.61,0.93 0.27,-0 0.48,-0.25 0.63,-0.75 0.13,-0.45 0.2,-1.01 0.2,-1.69 0,-0.67 -0.06,-1.27 -0.19,-1.81 -0.14,-0.58 -0.32,-0.95 -0.55,-1.1z"/>
  <path id="_6" class="fil0" d="M32.48 5.08c-0.05,0.04 -0.1,0.07 -0.15,0.08 -0.06,0.02 -0.12,0.02 -0.17,0 0.11,-0.03 0.2,-0.08 0.28,-0.15 0.07,-0.06 0.14,-0.14 0.21,-0.25 -0.02,0.12 -0.07,0.23 -0.17,0.31zm-0.38 -0.22c-0.05,-0.02 -0.09,-0.07 -0.11,-0.15 -0.02,-0.07 -0.01,-0.15 0.01,-0.22 0.03,-0.08 0.07,-0.14 0.13,-0.18 0.06,-0.04 0.12,-0.05 0.17,-0.02 0.05,0.02 0.09,0.07 0.11,0.14 0.02,0.07 0.01,0.15 -0.02,0.23 -0.03,0.08 -0.07,0.13 -0.13,0.18 -0.06,0.04 -0.11,0.05 -0.17,0.02zm-0.57 -2.06c-0.09,0.13 -0.2,0.31 -0.32,0.53 -0.04,0.08 -0.09,0.17 -0.15,0.28l-0.15 0.28c0.07,-0.19 0.15,-0.38 0.25,-0.58 0.09,-0.19 0.2,-0.37 0.31,-0.55 0.14,-0.2 0.27,-0.37 0.39,-0.49l0.06 -0.05c0.02,-0.02 0.04,-0.04 0.06,-0.05l0.06 -0.05 0.06 -0.04c0.11,-0.06 0.21,-0.09 0.29,-0.09 -0.08,0.01 -0.17,0.05 -0.27,0.12l-0.06 0.05 -0.06 0.05c-0.02,0.01 -0.03,0.03 -0.05,0.05l-0.05 0.06c-0.12,0.14 -0.24,0.3 -0.37,0.49zm0.94 -1.11c-0.31,-0.05 -0.65,0.18 -1.03,0.69 -0.34,0.46 -0.65,1.05 -0.93,1.76 -0.27,0.71 -0.43,1.34 -0.48,1.9 -0.05,0.61 0.06,0.96 0.32,1.07 0.2,0.09 0.39,0.08 0.58,-0.01 0.14,-0.07 0.29,-0.19 0.45,-0.37 0.03,-0.04 0.06,-0.08 0.1,-0.12l0.09 -0.12c0.08,-0.1 0.13,-0.17 0.17,-0.21 0.12,-0.14 0.23,-0.21 0.31,-0.21 0.09,0 0.2,0.07 0.33,0.2 0.04,0.04 0.1,0.11 0.18,0.2l0.1 0.11 0.1 0.11c0.16,0.17 0.3,0.29 0.43,0.35 0.17,0.08 0.34,0.08 0.52,-0.01 0.2,-0.1 0.32,-0.43 0.35,-0.98 0.03,-0.52 -0.03,-1.1 -0.16,-1.76 -0.14,-0.69 -0.32,-1.26 -0.56,-1.73 -0.27,-0.53 -0.55,-0.82 -0.86,-0.87z"/>
  <path id="_7" class="fil0" d="M36.78 3.96c-0.03,0.07 -0.07,0.14 -0.12,0.2 -0.05,0.06 -0.11,0.11 -0.18,0.13 -0.07,0.03 -0.14,0.04 -0.21,0.02 0.07,-0.01 0.13,-0.04 0.19,-0.08 0.06,-0.04 0.11,-0.08 0.15,-0.13 0.09,-0.1 0.16,-0.23 0.2,-0.38 0.01,0.07 -0,0.15 -0.03,0.23zm-0.64 -0.33c0.04,-0.08 0.08,-0.13 0.15,-0.16 0.06,-0.03 0.12,-0.04 0.16,-0.01 0.05,0.03 0.08,0.08 0.09,0.15 0.01,0.07 -0,0.15 -0.04,0.22 -0.03,0.08 -0.08,0.13 -0.14,0.16 -0.06,0.03 -0.12,0.04 -0.17,0.01 -0.05,-0.03 -0.08,-0.08 -0.09,-0.15 -0.01,-0.07 0,-0.15 0.04,-0.22zm-0.54 -1.51c-0.16,0.08 -0.3,0.19 -0.41,0.33 -0.11,0.12 -0.2,0.28 -0.29,0.46 -0.06,0.15 -0.12,0.32 -0.18,0.53 0.01,-0.08 0.02,-0.17 0.05,-0.28 0.02,-0.1 0.05,-0.19 0.08,-0.27 0.07,-0.18 0.16,-0.35 0.28,-0.49 0.13,-0.15 0.27,-0.26 0.44,-0.33 0.08,-0.04 0.17,-0.06 0.26,-0.08 0.1,-0.02 0.18,-0.02 0.26,-0.02 -0.2,0.03 -0.36,0.08 -0.5,0.15zm0.66 -0.45c-0.47,-0.01 -0.86,0.14 -1.17,0.43 -0.27,0.26 -0.47,0.62 -0.58,1.08 -0.1,0.42 -0.13,0.88 -0.08,1.39 0.05,0.49 0.16,0.94 0.35,1.36 0.17,0.4 0.37,0.71 0.58,0.93 0.19,0.19 0.38,0.3 0.57,0.31 0.17,0.02 0.32,-0.04 0.44,-0.16 0.12,-0.13 0.2,-0.3 0.22,-0.51 0.02,-0.15 0.02,-0.32 -0.01,-0.51 -0.01,-0.05 -0.02,-0.13 -0.04,-0.23l-0.02 -0.11c-0.01,-0.04 -0.01,-0.07 -0.02,-0.1 -0.02,-0.15 -0.02,-0.26 0.01,-0.35 0.03,-0.1 0.1,-0.19 0.22,-0.24 0.38,-0.19 0.67,-0.48 0.86,-0.85 0.18,-0.35 0.25,-0.71 0.21,-1.09 -0.04,-0.38 -0.19,-0.69 -0.45,-0.94 -0.28,-0.27 -0.64,-0.4 -1.09,-0.41z"/>
  <path id="_8" class="fil0" d="M40.52 5.5c-0.04,0.07 -0.1,0.12 -0.17,0.16 -0.07,0.04 -0.14,0.05 -0.21,0.03 0.15,-0.03 0.26,-0.1 0.33,-0.23 0.03,-0.05 0.06,-0.12 0.08,-0.19 0.01,-0.07 0.02,-0.14 0.02,-0.23 0.03,0.07 0.04,0.15 0.03,0.23 -0,0.08 -0.03,0.16 -0.07,0.23zm-0.62 -0.3c-0.03,-0.07 -0.05,-0.15 -0.03,-0.22 0.01,-0.07 0.04,-0.13 0.09,-0.15 0.05,-0.03 0.11,-0.02 0.17,0.01 0.06,0.03 0.11,0.09 0.14,0.16 0.04,0.08 0.05,0.15 0.03,0.22 -0.01,0.07 -0.04,0.12 -0.09,0.15 -0.05,0.03 -0.1,0.02 -0.16,-0.01 -0.06,-0.03 -0.11,-0.09 -0.15,-0.16zm-0.33 -3.18c-0.04,0.02 -0.09,0.06 -0.15,0.1 -0.08,0.07 -0.16,0.16 -0.24,0.27 -0.06,0.08 -0.13,0.18 -0.21,0.31 -0.03,0.04 -0.06,0.1 -0.1,0.16l-0.09 0.16c0.05,-0.14 0.1,-0.26 0.14,-0.36 0.06,-0.12 0.13,-0.23 0.2,-0.33 0.09,-0.12 0.18,-0.21 0.27,-0.27 0.12,-0.09 0.23,-0.13 0.34,-0.12 -0.06,0.01 -0.11,0.03 -0.17,0.06zm0.92 1.86c-0.12,-0.04 -0.2,-0.11 -0.23,-0.21 -0.03,-0.08 -0.03,-0.19 -0,-0.35 0,-0.03 0.01,-0.07 0.02,-0.11l0.02 -0.11c0.02,-0.1 0.03,-0.18 0.04,-0.24 0.03,-0.19 0.03,-0.37 0.02,-0.52 -0.03,-0.21 -0.1,-0.38 -0.22,-0.51 -0.13,-0.13 -0.27,-0.18 -0.45,-0.16 -0.19,0.02 -0.38,0.12 -0.56,0.31 -0.21,0.21 -0.41,0.52 -0.58,0.93 -0.18,0.42 -0.29,0.87 -0.35,1.36 -0.05,0.5 -0.03,0.97 0.08,1.39 0.11,0.46 0.31,0.82 0.58,1.08 0.31,0.29 0.7,0.43 1.17,0.42 0.45,-0.01 0.82,-0.15 1.11,-0.44 0.27,-0.26 0.43,-0.59 0.49,-0.99 0.05,-0.4 -0.01,-0.76 -0.2,-1.1 -0.2,-0.36 -0.52,-0.61 -0.94,-0.76zm1.47 -1.77c-0.04,0.04 -0.07,0.09 -0.09,0.15 -0.02,0.05 -0.03,0.11 -0.03,0.18 -0,0.09 0,0.22 0.03,0.38l0.03 0.19 0.03 0.19c-0.05,-0.14 -0.09,-0.26 -0.12,-0.37 -0.04,-0.15 -0.05,-0.28 -0.05,-0.39 0.01,-0.08 0.02,-0.14 0.04,-0.2 0.03,-0.07 0.07,-0.13 0.11,-0.17 0.1,-0.08 0.21,-0.11 0.35,-0.1 -0.13,0.02 -0.24,0.06 -0.31,0.14zm1.23 0.21c-0.1,-0.2 -0.23,-0.36 -0.39,-0.48 -0.14,-0.1 -0.3,-0.16 -0.46,-0.17 -0.16,-0.01 -0.3,0.02 -0.43,0.09 -0.13,0.07 -0.23,0.17 -0.29,0.3 -0.11,0.24 -0.11,0.59 0.01,1.06 0.02,0.07 0.04,0.17 0.08,0.29l0.04 0.15 0.04 0.15c0.06,0.23 0.1,0.43 0.12,0.58 0.04,0.37 0.06,0.75 0.05,1.15 -0,0.12 -0.01,0.27 -0.02,0.44l-0 0.1 -0 0.1c-0,0.07 -0.01,0.13 -0.01,0.18 -0.01,0.24 0.01,0.41 0.04,0.51 0.04,0.13 0.13,0.21 0.26,0.24 0.26,0.06 0.49,-0.08 0.69,-0.44 0.18,-0.32 0.32,-0.76 0.42,-1.33 0.09,-0.54 0.13,-1.08 0.11,-1.61 -0.02,-0.56 -0.11,-0.99 -0.26,-1.29z"/>
  <path id="_9" class="fil0" d="M46.9 2.07c-0.03,0.01 -0.06,0.04 -0.09,0.08 -0.04,0.06 -0.07,0.14 -0.09,0.25 -0.03,0.15 -0.04,0.33 -0.03,0.55l0 0.07 0 0.07c0,0.06 0,0.1 -0,0.15 -0.01,0.1 -0.03,0.2 -0.07,0.28 -0.04,0.09 -0.09,0.17 -0.15,0.23 -0.07,0.07 -0.14,0.11 -0.23,0.14 0.16,-0.08 0.27,-0.21 0.33,-0.39 0.03,-0.09 0.04,-0.18 0.05,-0.27 0,-0.04 0,-0.08 0,-0.13l-0 -0.07 0 -0.07c-0,-0.23 0.01,-0.42 0.05,-0.56 0.03,-0.12 0.07,-0.2 0.12,-0.26 0.04,-0.04 0.07,-0.06 0.11,-0.08 0.03,-0.01 0.08,-0.02 0.13,-0.02 -0.05,0.01 -0.09,0.02 -0.12,0.04zm-2.38 0.1c-0.08,0.09 -0.15,0.21 -0.19,0.35 -0.04,0.12 -0.07,0.25 -0.11,0.41l-0.05 0.2 -0.05 0.21c0.01,-0.29 0.05,-0.57 0.14,-0.84 0.05,-0.15 0.12,-0.28 0.22,-0.37 0.05,-0.05 0.11,-0.09 0.17,-0.12 0.07,-0.03 0.13,-0.04 0.19,-0.03 -0.12,0.01 -0.23,0.08 -0.33,0.19zm2.49 -0.43c-0.24,0.01 -0.41,0.13 -0.51,0.35 -0.1,0.21 -0.14,0.54 -0.12,0.99 0.01,0.19 -0.03,0.34 -0.12,0.44 -0.07,0.09 -0.16,0.12 -0.28,0.11 -0.12,-0.01 -0.2,-0.06 -0.26,-0.16 -0.06,-0.1 -0.08,-0.23 -0.07,-0.39 0.04,-0.45 0,-0.79 -0.12,-1.02 -0.11,-0.2 -0.3,-0.32 -0.56,-0.37 -0.21,-0.04 -0.4,0.02 -0.57,0.16 -0.16,0.13 -0.28,0.33 -0.36,0.57 -0.15,0.48 -0.23,1.04 -0.23,1.69 -0.01,0.63 0.05,1.23 0.18,1.79 0.09,0.42 0.24,0.73 0.44,0.91 0.17,0.15 0.35,0.21 0.55,0.18 0.45,-0.07 0.65,-0.43 0.61,-1.08 -0.03,-0.47 0.06,-0.71 0.28,-0.71 0.11,0 0.19,0.04 0.25,0.13 0.08,0.12 0.11,0.3 0.1,0.55 -0.02,0.42 0.04,0.74 0.19,0.97 0.13,0.21 0.32,0.31 0.57,0.31 0.42,0 0.71,-0.28 0.88,-0.85 0.12,-0.41 0.2,-1.09 0.22,-2.03 0.02,-0.73 -0.06,-1.34 -0.25,-1.82 -0.2,-0.51 -0.46,-0.75 -0.8,-0.73z"/>
  <path id="_10" class="fil0" d="M14.55 3.02c0.02,0.2 0,0.37 -0.04,0.51 -0.03,0.09 -0.07,0.17 -0.12,0.23 -0.06,0.07 -0.12,0.11 -0.19,0.14 0.13,-0.08 0.22,-0.21 0.26,-0.39 0.03,-0.14 0.04,-0.3 0.02,-0.49 -0.01,-0.19 -0.02,-0.36 -0.01,-0.51 0.01,-0.1 0.02,-0.18 0.04,-0.25 0.03,-0.1 0.06,-0.18 0.1,-0.23 -0.04,0.06 -0.06,0.14 -0.07,0.23 -0.01,0.07 -0.02,0.16 -0.02,0.25 0,0.16 0.01,0.33 0.02,0.5zm-1.69 -0.79c-0.05,0.08 -0.1,0.17 -0.14,0.28 -0.03,0.07 -0.06,0.16 -0.1,0.3l-0.04 0.16 -0.04 0.15c0,-0.12 0.01,-0.23 0.03,-0.32 0.02,-0.12 0.05,-0.22 0.09,-0.32 0.05,-0.12 0.1,-0.21 0.16,-0.28 0.04,-0.05 0.09,-0.09 0.12,-0.11 0.05,-0.03 0.1,-0.04 0.15,-0.04 -0.07,0.01 -0.15,0.07 -0.23,0.18zm3.01 1.97c-0.02,-0.77 -0.11,-1.37 -0.27,-1.8 -0.19,-0.49 -0.47,-0.73 -0.83,-0.72 -0.42,0.01 -0.6,0.47 -0.52,1.38 0.02,0.2 -0,0.36 -0.05,0.46 -0.05,0.09 -0.12,0.14 -0.22,0.14 -0.11,-0 -0.19,-0.05 -0.23,-0.14 -0.05,-0.09 -0.07,-0.23 -0.06,-0.43 0.02,-0.49 -0.02,-0.84 -0.12,-1.04 -0.09,-0.19 -0.25,-0.29 -0.47,-0.29 -0.2,0 -0.37,0.12 -0.52,0.37 -0.15,0.24 -0.24,0.56 -0.29,0.95 -0.06,0.43 -0.05,0.81 0.02,1.12 0.05,0.26 0.16,0.49 0.31,0.71 0.16,0.23 0.4,0.36 0.71,0.38 0.1,0.01 0.21,0.01 0.34,-0 0.02,-0 0.04,-0.01 0.07,-0.01l0.03 -0 0.03 -0c0.05,-0.01 0.08,-0.01 0.1,-0.01 0.1,-0.01 0.17,0.03 0.23,0.12 0.08,0.11 0.12,0.3 0.12,0.55 0,0.42 0.08,0.74 0.22,0.95 0.13,0.19 0.31,0.29 0.54,0.3 0.63,0.02 0.93,-0.97 0.88,-2.97z"/>
  <path id="_11" class="fil0" d="M6.45 12.31c-0.05,0.01 -0.11,0.03 -0.16,0.05l-0.04 0.02 -0.04 0.02c-0.03,0.02 -0.06,0.03 -0.09,0.03 -0.06,0.02 -0.12,0.02 -0.18,0.02l0.08 -0.03c0.03,-0.01 0.06,-0.02 0.08,-0.04l0.04 -0.02 0.04 -0.02c0.03,-0.02 0.06,-0.03 0.08,-0.05 0.06,-0.03 0.12,-0.04 0.18,-0.04 0.07,-0 0.13,0.01 0.18,0.05 -0.05,-0.01 -0.11,-0.01 -0.17,0zm-1.62 0.11c-0.05,0 -0.1,0.01 -0.14,0.01 -0.06,0 -0.1,0.01 -0.13,0.02 -0.03,0.01 -0.04,0.02 -0.06,0.03 -0.01,0.01 -0.02,0.03 -0.04,0.07 -0,-0.03 0,-0.06 0.01,-0.08 0.01,-0.02 0.03,-0.04 0.06,-0.06 0.04,-0.02 0.09,-0.03 0.15,-0.04 0.06,-0.01 0.11,-0 0.15,0 0.06,0.01 0.1,0.02 0.14,0.03 -0.04,0.01 -0.09,0.02 -0.15,0.02zm1.27 -0.28c-0.1,0.06 -0.26,0.08 -0.48,0.07 -0.07,-0.01 -0.17,-0.02 -0.3,-0.03l-0.15 -0.01c-0.06,-0.01 -0.11,-0.01 -0.15,-0.02 -0.23,-0.02 -0.41,-0.01 -0.52,0.03 -0.16,0.05 -0.25,0.17 -0.27,0.34 -0.03,0.22 0.06,0.41 0.27,0.57 0.2,0.15 0.45,0.25 0.78,0.31 0.32,0.06 0.62,0.05 0.91,-0 0.31,-0.06 0.54,-0.18 0.68,-0.35 0.1,-0.12 0.15,-0.26 0.16,-0.41 0,-0.15 -0.03,-0.27 -0.11,-0.39 -0.08,-0.12 -0.19,-0.18 -0.33,-0.21 -0.15,-0.03 -0.31,0.01 -0.49,0.1z"/>
  <path id="_12" class="fil0" d="M8.66 10.21c-0.16,0.03 -0.3,0.05 -0.4,0.09 -0.16,0.05 -0.28,0.1 -0.37,0.17 -0.07,0.05 -0.12,0.1 -0.15,0.14 -0.04,0.05 -0.06,0.12 -0.06,0.21 -0.02,-0.08 -0.01,-0.15 0.03,-0.23 0.03,-0.06 0.08,-0.12 0.15,-0.17 0.09,-0.07 0.22,-0.14 0.38,-0.19 0.26,-0.08 0.54,-0.1 0.83,-0.07 -0.15,0.02 -0.29,0.03 -0.41,0.05zm0.67 -0.34c-0.57,-0.03 -1.04,0.04 -1.4,0.2 -0.38,0.18 -0.55,0.43 -0.53,0.77 0.01,0.19 0.09,0.32 0.22,0.41 0.09,0.06 0.24,0.1 0.43,0.13l0.12 0.01 0.11 0.01c0.09,0.01 0.16,0.02 0.21,0.03 0.14,0.03 0.23,0.1 0.26,0.19 0.02,0.06 -0,0.39 -0.06,1 -0.03,0.31 -0.05,0.57 -0.06,0.79 -0.01,0.31 -0.01,0.58 0.01,0.81 0.03,0.35 0.14,0.63 0.33,0.84 0.2,0.23 0.43,0.32 0.71,0.28 0.51,-0.07 0.69,-0.62 0.55,-1.64 -0.07,-0.54 -0.11,-1 -0.11,-1.38 -0,-0.41 0.03,-0.64 0.11,-0.71 0.05,-0.04 0.14,-0.07 0.27,-0.07 0.04,0 0.1,0 0.18,0l0.1 0 0.1 -0c0.15,-0 0.27,-0.03 0.36,-0.07 0.11,-0.06 0.19,-0.16 0.23,-0.3 0.05,-0.17 0.02,-0.34 -0.07,-0.49 -0.09,-0.15 -0.24,-0.28 -0.45,-0.4 -0.42,-0.24 -0.95,-0.38 -1.61,-0.41z"/>
  <path id="_13" class="fil0" d="M14.6 10.48c-0.06,0.08 -0.13,0.17 -0.19,0.28 -0.11,0.19 -0.21,0.39 -0.29,0.61l-0.06 0.16 -0.06 0.16c-0.05,0.15 -0.09,0.25 -0.11,0.33 -0.06,0.14 -0.11,0.24 -0.16,0.31 -0.04,0.05 -0.08,0.08 -0.13,0.1 -0.04,0.02 -0.1,0.03 -0.16,0.02 0.06,-0 0.12,-0.01 0.16,-0.03 0.04,-0.02 0.08,-0.06 0.12,-0.11 0.05,-0.06 0.09,-0.16 0.14,-0.3l0.05 -0.16 0.05 -0.16c0.04,-0.13 0.08,-0.24 0.11,-0.33 0.09,-0.24 0.19,-0.44 0.31,-0.62 0.15,-0.23 0.31,-0.39 0.47,-0.48 -0.09,0.06 -0.16,0.14 -0.24,0.23zm-2.34 0.89c-0.03,0.16 -0.06,0.34 -0.09,0.56l-0.03 0.28 -0.03 0.28c-0.02,-0.56 0.04,-1.05 0.18,-1.49 0.03,-0.09 0.05,-0.16 0.08,-0.23 0.04,-0.09 0.08,-0.17 0.12,-0.23 0.12,-0.17 0.25,-0.25 0.39,-0.24 -0.18,0.02 -0.33,0.16 -0.44,0.42 -0.04,0.1 -0.08,0.21 -0.11,0.35 -0.01,0.05 -0.03,0.1 -0.04,0.16l-0.02 0.08 -0.01 0.04 -0.01 0.03zm3.24 -1.37c-0.29,-0.19 -0.58,-0.17 -0.88,0.05 -0.24,0.18 -0.46,0.47 -0.65,0.86 -0.06,0.13 -0.12,0.28 -0.18,0.44 -0.02,0.06 -0.04,0.13 -0.07,0.22l-0.03 0.1 -0.01 0.05 -0.02 0.05c-0.05,0.14 -0.08,0.24 -0.11,0.29 -0.03,0.07 -0.07,0.11 -0.1,0.11 -0.06,-0.01 -0.09,-0.06 -0.1,-0.15 -0,-0.09 0.01,-0.28 0.05,-0.59 0.08,-0.56 0.04,-0.96 -0.1,-1.19 -0.11,-0.18 -0.3,-0.25 -0.54,-0.22 -0.3,0.04 -0.54,0.35 -0.71,0.92 -0.17,0.55 -0.24,1.23 -0.22,2.03 0.04,1.47 0.44,2.26 1.2,2.37 0.22,0.03 0.44,-0.03 0.66,-0.17 0.21,-0.14 0.38,-0.32 0.52,-0.57 0.13,-0.21 0.24,-0.41 0.33,-0.59 0.03,-0.07 0.06,-0.14 0.09,-0.21 0.02,-0.04 0.04,-0.09 0.06,-0.15 0.04,-0.09 0.06,-0.15 0.07,-0.16 0.02,-0.02 0.04,-0.03 0.07,-0.03 0.03,0.01 0.03,0.12 0.01,0.32l-0.01 0.07 -0.01 0.07c-0.01,0.06 -0.01,0.12 -0.02,0.16 -0.01,0.13 -0.02,0.25 -0.02,0.35 -0.01,0.62 0.19,0.93 0.61,0.93 0.27,-0 0.48,-0.25 0.63,-0.75 0.13,-0.45 0.2,-1.01 0.2,-1.69 0,-0.67 -0.06,-1.27 -0.19,-1.81 -0.14,-0.58 -0.32,-0.95 -0.55,-1.1z"/>
  <path id="_14" class="fil0" d="M20.55 13.6c-0.04,0.09 -0.1,0.15 -0.17,0.19 -0.08,0.05 -0.15,0.06 -0.24,0.05 0.08,-0.02 0.15,-0.05 0.21,-0.09 0.06,-0.05 0.11,-0.11 0.14,-0.18 0.06,-0.13 0.07,-0.29 0.03,-0.48 0.04,0.07 0.07,0.16 0.07,0.25 0.01,0.09 -0.01,0.18 -0.05,0.26zm-0.65 -0.23c-0.04,-0.07 -0.05,-0.15 -0.05,-0.22 0.01,-0.07 0.04,-0.13 0.09,-0.16 0.05,-0.03 0.1,-0.03 0.16,0 0.06,0.03 0.12,0.08 0.16,0.16 0.04,0.07 0.05,0.15 0.05,0.22 -0.01,0.07 -0.03,0.13 -0.08,0.16 -0.05,0.03 -0.1,0.03 -0.17,0 -0.06,-0.03 -0.11,-0.08 -0.16,-0.16zm-0.31 -1.59c0.06,-0.02 0.11,-0.04 0.16,-0.07 0.05,-0.03 0.09,-0.07 0.13,-0.11 0.03,-0.04 0.07,-0.09 0.1,-0.14 0.03,-0.05 0.05,-0.1 0.07,-0.16 0.01,0.13 -0.03,0.25 -0.12,0.36 -0.05,0.05 -0.1,0.08 -0.16,0.11 -0.06,0.02 -0.12,0.03 -0.18,0.02zm-0.07 -0.55c0.03,-0.05 0.06,-0.09 0.1,-0.11 0.04,-0.02 0.08,-0.02 0.11,0 0.03,0.02 0.05,0.05 0.05,0.1 0,0.05 -0.01,0.1 -0.03,0.15 -0.03,0.05 -0.06,0.09 -0.1,0.11 -0.04,0.02 -0.08,0.02 -0.11,0 -0.03,-0.02 -0.05,-0.05 -0.05,-0.1 -0,-0.05 0.01,-0.1 0.03,-0.15zm-0.6 -0.68c-0.06,0.06 -0.11,0.14 -0.17,0.23 -0.09,0.15 -0.17,0.32 -0.25,0.53 -0.06,0.17 -0.11,0.36 -0.16,0.58 0.02,-0.2 0.06,-0.4 0.12,-0.6 0.06,-0.2 0.14,-0.39 0.24,-0.56 0.12,-0.19 0.25,-0.34 0.4,-0.43 0.1,-0.06 0.18,-0.1 0.26,-0.12 0.1,-0.02 0.19,-0.03 0.28,-0.03 -0.19,0.02 -0.36,0.08 -0.52,0.2 -0.08,0.06 -0.15,0.12 -0.21,0.19zm1.52 1.46c-0.04,-0.02 -0.05,-0.06 -0.03,-0.13 0.01,-0.02 0.03,-0.06 0.05,-0.11l0.02 -0.03 0.02 -0.03c0.01,-0.03 0.03,-0.05 0.04,-0.08 0.06,-0.14 0.11,-0.27 0.13,-0.4 0.04,-0.18 0.04,-0.37 0.01,-0.56 -0.03,-0.21 -0.15,-0.4 -0.34,-0.55 -0.19,-0.15 -0.42,-0.23 -0.67,-0.24 -0.28,-0.01 -0.53,0.08 -0.77,0.25 -0.27,0.2 -0.48,0.52 -0.63,0.93 -0.16,0.43 -0.25,0.9 -0.26,1.41 -0.01,0.52 0.05,1 0.19,1.43 0.16,0.47 0.39,0.84 0.69,1.09 0.34,0.28 0.75,0.4 1.22,0.37 0.46,-0.03 0.82,-0.19 1.09,-0.48 0.25,-0.26 0.38,-0.59 0.41,-0.98 0.02,-0.38 -0.06,-0.74 -0.26,-1.08 -0.21,-0.37 -0.52,-0.63 -0.92,-0.81z"/>
  <path id="_15" class="fil0" d="M24.34 13.68c-0.04,0.07 -0.1,0.12 -0.17,0.16 -0.07,0.04 -0.14,0.05 -0.21,0.03 0.15,-0.03 0.26,-0.1 0.33,-0.23 0.03,-0.05 0.06,-0.12 0.08,-0.19 0.01,-0.07 0.02,-0.14 0.02,-0.23 0.03,0.07 0.04,0.15 0.03,0.23 -0,0.08 -0.03,0.16 -0.07,0.23zm-0.62 -0.3c-0.03,-0.07 -0.05,-0.15 -0.03,-0.22 0.01,-0.07 0.04,-0.13 0.09,-0.15 0.05,-0.03 0.11,-0.02 0.17,0.01 0.06,0.03 0.11,0.09 0.14,0.16 0.04,0.08 0.05,0.15 0.03,0.22 -0.01,0.07 -0.04,0.12 -0.09,0.15 -0.05,0.03 -0.1,0.02 -0.16,-0.01 -0.06,-0.03 -0.11,-0.09 -0.15,-0.16zm-0.33 -3.18c-0.04,0.02 -0.09,0.06 -0.15,0.1 -0.08,0.07 -0.16,0.16 -0.24,0.27 -0.06,0.08 -0.13,0.18 -0.21,0.31 -0.03,0.04 -0.06,0.1 -0.1,0.16l-0.09 0.16c0.05,-0.14 0.1,-0.26 0.14,-0.36 0.06,-0.12 0.13,-0.23 0.2,-0.33 0.09,-0.12 0.18,-0.21 0.27,-0.27 0.12,-0.09 0.23,-0.13 0.34,-0.12 -0.06,0.01 -0.11,0.03 -0.17,0.06zm0.92 1.86c-0.12,-0.04 -0.2,-0.11 -0.23,-0.21 -0.03,-0.08 -0.03,-0.19 -0,-0.35 0,-0.03 0.01,-0.07 0.02,-0.11l0.02 -0.11c0.02,-0.1 0.03,-0.18 0.04,-0.24 0.03,-0.19 0.03,-0.37 0.02,-0.52 -0.03,-0.21 -0.1,-0.38 -0.22,-0.51 -0.13,-0.13 -0.27,-0.18 -0.45,-0.16 -0.19,0.02 -0.38,0.12 -0.56,0.31 -0.21,0.21 -0.41,0.52 -0.58,0.93 -0.18,0.42 -0.29,0.87 -0.35,1.36 -0.05,0.5 -0.03,0.97 0.08,1.39 0.11,0.46 0.31,0.82 0.58,1.08 0.31,0.29 0.7,0.43 1.17,0.42 0.45,-0.01 0.82,-0.15 1.11,-0.44 0.27,-0.26 0.43,-0.59 0.49,-0.99 0.05,-0.4 -0.01,-0.76 -0.2,-1.1 -0.2,-0.36 -0.52,-0.61 -0.94,-0.76zm1.47 -1.77c-0.04,0.04 -0.07,0.09 -0.09,0.15 -0.02,0.05 -0.03,0.11 -0.03,0.18 -0,0.09 0,0.22 0.03,0.38l0.03 0.19 0.03 0.19c-0.05,-0.14 -0.09,-0.26 -0.12,-0.37 -0.04,-0.15 -0.05,-0.28 -0.05,-0.39 0.01,-0.08 0.02,-0.14 0.04,-0.2 0.03,-0.07 0.07,-0.13 0.11,-0.17 0.1,-0.08 0.21,-0.11 0.35,-0.1 -0.13,0.02 -0.24,0.06 -0.31,0.14zm1.24 0.21c-0.1,-0.2 -0.23,-0.36 -0.39,-0.48 -0.14,-0.1 -0.3,-0.16 -0.46,-0.17 -0.16,-0.01 -0.3,0.02 -0.43,0.09 -0.13,0.07 -0.23,0.17 -0.29,0.3 -0.11,0.24 -0.11,0.59 0.01,1.06 0.02,0.07 0.04,0.17 0.08,0.29l0.04 0.15 0.04 0.15c0.06,0.23 0.1,0.43 0.12,0.58 0.04,0.37 0.06,0.75 0.05,1.15 -0,0.12 -0.01,0.27 -0.02,0.44l-0 0.1 -0 0.1c-0,0.07 -0.01,0.13 -0.01,0.18 -0.01,0.24 0.01,0.41 0.04,0.51 0.04,0.13 0.13,0.21 0.26,0.24 0.26,0.06 0.49,-0.08 0.69,-0.44 0.18,-0.32 0.32,-0.76 0.42,-1.33 0.09,-0.54 0.13,-1.08 0.11,-1.61 -0.02,-0.56 -0.11,-0.99 -0.26,-1.29z"/>
  <path id="_16" class="fil0" d="M28.91 10.34c-0.02,0.01 -0.05,0.02 -0.07,0.04l-0.07 0.04 -0.07 0.04c-0.03,0.02 -0.05,0.03 -0.07,0.05 -0.08,0.05 -0.16,0.13 -0.25,0.21 -0.1,0.1 -0.16,0.19 -0.2,0.26 -0.12,0.18 -0.19,0.39 -0.23,0.64 -0.01,0.05 -0.02,0.11 -0.02,0.17l-0.01 0.18c-0,0.05 -0.01,0.11 -0.01,0.18l-0 0.18c-0.03,-0.25 -0.03,-0.49 -0.01,-0.71 0.02,-0.25 0.1,-0.47 0.22,-0.67l0.05 -0.07 0.05 -0.07c0.01,-0.02 0.03,-0.04 0.05,-0.07l0.03 -0.03 0.03 -0.03c0.11,-0.1 0.19,-0.17 0.26,-0.21 0.18,-0.12 0.39,-0.2 0.61,-0.24l-0.08 0.03 -0.08 0.03c-0.06,0.02 -0.1,0.04 -0.15,0.07zm2.48 0.72c-0.2,-0.46 -0.5,-0.79 -0.91,-1 -0.38,-0.19 -0.78,-0.24 -1.21,-0.16 -0.43,0.08 -0.79,0.26 -1.09,0.56 -0.32,0.32 -0.5,0.72 -0.54,1.18 -0.08,0.87 0.05,1.72 0.37,2.55 0.14,0.37 0.31,0.66 0.49,0.87 0.19,0.22 0.38,0.32 0.56,0.29 0.26,-0.04 0.42,-0.2 0.48,-0.5 0.06,-0.34 0.02,-0.91 -0.12,-1.74 -0.11,-0.65 -0.05,-1 0.2,-1.03 0.14,-0.02 0.25,0.1 0.33,0.34 0.07,0.23 0.1,0.52 0.09,0.87 -0.03,0.78 0.05,1.32 0.23,1.63 0.13,0.23 0.33,0.34 0.6,0.32 0.22,-0.01 0.41,-0.17 0.56,-0.46 0.14,-0.27 0.24,-0.63 0.29,-1.07 0.05,-0.44 0.05,-0.9 0,-1.36 -0.06,-0.49 -0.16,-0.92 -0.33,-1.3z"/>
  <path id="_17" class="fil0" d="M35.37 10.26c-0.05,0.05 -0.09,0.1 -0.14,0.18 -0.07,0.1 -0.15,0.23 -0.24,0.4l-0.06 0.1 -0.06 0.1c-0.04,0.08 -0.09,0.15 -0.12,0.2 -0.06,0.08 -0.1,0.14 -0.15,0.18 -0.07,0.06 -0.13,0.1 -0.2,0.11 0.07,-0.03 0.12,-0.08 0.17,-0.14 0.04,-0.05 0.08,-0.11 0.13,-0.19 0.03,-0.05 0.06,-0.12 0.11,-0.21l0.11 -0.2c0.1,-0.17 0.18,-0.3 0.25,-0.4 0.06,-0.07 0.11,-0.13 0.16,-0.17 0.08,-0.06 0.15,-0.09 0.2,-0.08 -0.06,0.01 -0.12,0.05 -0.18,0.12zm-2.27 3.44c-0.06,0.05 -0.1,0.09 -0.14,0.12 -0.11,0.09 -0.19,0.17 -0.25,0.25 -0.03,0.05 -0.06,0.11 -0.09,0.16 -0.02,0.05 -0.03,0.11 -0.05,0.18 -0,-0.06 0,-0.13 0.02,-0.19 0.02,-0.06 0.04,-0.12 0.08,-0.18 0.05,-0.09 0.14,-0.18 0.25,-0.28 0.08,-0.06 0.18,-0.13 0.3,-0.21l0.08 -0.05 0.07 -0.05c0.06,-0.04 0.11,-0.07 0.15,-0.1 -0.06,0.08 -0.15,0.16 -0.27,0.25l-0.14 0.11zm-0.6 -3.11c-0.03,0.05 -0.06,0.11 -0.08,0.18 -0.02,0.06 -0.03,0.13 -0.03,0.21 -0.03,-0.07 -0.04,-0.14 -0.03,-0.22 0.01,-0.08 0.03,-0.15 0.08,-0.22 0.04,-0.07 0.1,-0.12 0.17,-0.15 0.07,-0.03 0.14,-0.04 0.21,-0.03 -0.14,0.03 -0.25,0.1 -0.32,0.22zm3.05 -0.74c-0.14,0 -0.28,0.07 -0.42,0.22 -0.1,0.11 -0.22,0.27 -0.34,0.48l-0.07 0.13 -0.04 0.06 -0.03 0.06c-0.06,0.1 -0.1,0.18 -0.13,0.22 -0.09,0.15 -0.16,0.22 -0.21,0.22 -0.05,0 -0.17,-0.1 -0.34,-0.3l-0.03 -0.04 -0.03 -0.04c-0.02,-0.03 -0.04,-0.05 -0.06,-0.07 -0.05,-0.06 -0.1,-0.11 -0.14,-0.16 -0.11,-0.12 -0.23,-0.24 -0.34,-0.33 -0.18,-0.16 -0.36,-0.23 -0.55,-0.23 -0.17,0 -0.33,0.06 -0.46,0.19 -0.13,0.13 -0.21,0.28 -0.24,0.47 -0.03,0.2 0.01,0.4 0.11,0.6 0.08,0.14 0.19,0.3 0.33,0.46 0.06,0.06 0.12,0.13 0.2,0.2l0.1 0.1 0.1 0.09c0.16,0.15 0.28,0.27 0.34,0.35 0.1,0.12 0.15,0.22 0.16,0.31 0.01,0.1 -0.05,0.2 -0.16,0.3 -0.04,0.04 -0.1,0.09 -0.18,0.14l-0.05 0.03 -0.05 0.04 -0.11 0.08c-0.18,0.13 -0.32,0.26 -0.41,0.38 -0.13,0.17 -0.2,0.36 -0.2,0.57 -0.01,0.16 0.02,0.31 0.08,0.45 0.06,0.14 0.15,0.25 0.27,0.33 0.26,0.19 0.59,0.22 0.98,0.09 0.52,-0.17 1.05,-0.66 1.57,-1.47 0.47,-0.72 0.77,-1.41 0.9,-2.07 0.13,-0.67 0.14,-1.16 0.02,-1.48 -0.1,-0.27 -0.29,-0.4 -0.56,-0.4z"/>
  <path id="_18" class="fil0" d="M39.52 13.19c-0.02,0.01 -0.05,0.03 -0.07,0.06l-0.04 0.03 -0.04 0.03c-0.06,0.05 -0.13,0.08 -0.18,0.09 -0.07,0.02 -0.14,0.02 -0.2,0.01 0.12,-0.03 0.23,-0.08 0.34,-0.16l0.04 -0.03 0.04 -0.03c0.03,-0.02 0.07,-0.04 0.09,-0.05 0.07,-0.03 0.14,-0.04 0.2,-0.03 -0.06,0.01 -0.12,0.04 -0.18,0.08zm-2.04 -2.54c-0.12,0.14 -0.23,0.3 -0.33,0.48 -0.08,0.16 -0.16,0.34 -0.23,0.56 0.04,-0.2 0.1,-0.4 0.18,-0.59 0.08,-0.19 0.19,-0.36 0.32,-0.51 0.14,-0.16 0.3,-0.28 0.47,-0.35 0.1,-0.04 0.19,-0.06 0.28,-0.08 0.1,-0.02 0.2,-0.02 0.28,-0.01 -0.2,0.02 -0.39,0.06 -0.54,0.14 -0.17,0.09 -0.32,0.21 -0.44,0.35zm2.8 2.95c-0.03,-0.4 -0.16,-0.64 -0.39,-0.74 -0.1,-0.04 -0.21,-0.05 -0.32,-0.02 -0.12,0.03 -0.23,0.09 -0.33,0.17 -0.1,0.08 -0.21,0.12 -0.32,0.11 -0.1,-0.01 -0.2,-0.06 -0.29,-0.16 -0.09,-0.1 -0.15,-0.22 -0.19,-0.37 -0.04,-0.17 -0.05,-0.35 -0.02,-0.54 0.04,-0.28 0.16,-0.44 0.37,-0.47 0.15,-0.02 0.37,0.02 0.64,0.12 0.12,0.05 0.23,0.04 0.33,-0.01 0.1,-0.05 0.17,-0.13 0.22,-0.24 0.05,-0.12 0.06,-0.25 0.04,-0.4 -0.02,-0.16 -0.08,-0.31 -0.18,-0.46 -0.21,-0.31 -0.49,-0.52 -0.84,-0.64 -0.32,-0.11 -0.64,-0.12 -0.97,-0.03 -0.42,0.11 -0.76,0.4 -1.04,0.87 -0.3,0.51 -0.45,1.15 -0.45,1.91 0,0.86 0.2,1.53 0.61,2.02 0.19,0.23 0.42,0.4 0.68,0.51 0.26,0.11 0.54,0.15 0.84,0.12 0.51,-0.05 0.92,-0.24 1.22,-0.59 0.29,-0.33 0.42,-0.72 0.38,-1.15z"/>
  <path id="_19" class="fil0" d="M42.99 11.06c-0.1,0.13 -0.19,0.24 -0.28,0.33 -0.12,0.11 -0.23,0.19 -0.34,0.24 0.09,-0.06 0.19,-0.15 0.31,-0.28 0.09,-0.1 0.18,-0.21 0.26,-0.33 0.04,-0.06 0.08,-0.12 0.12,-0.17l0.03 -0.05 0.03 -0.04c0.02,-0.04 0.04,-0.07 0.06,-0.09 0.05,-0.06 0.1,-0.1 0.17,-0.14 0.07,-0.04 0.14,-0.05 0.2,-0.04 -0.12,0.01 -0.23,0.08 -0.32,0.22 -0.02,0.02 -0.03,0.05 -0.06,0.09l-0.03 0.05 -0.03 0.05c-0.03,0.05 -0.07,0.11 -0.12,0.18zm-1.39 -0.84c-0.05,0.03 -0.09,0.08 -0.13,0.13 -0.06,0.08 -0.12,0.19 -0.18,0.34 -0.04,0.09 -0.08,0.22 -0.13,0.38l-0.05 0.2 -0.05 0.19c0.01,-0.16 0.03,-0.29 0.06,-0.41 0.03,-0.14 0.07,-0.27 0.12,-0.39 0.06,-0.15 0.13,-0.27 0.2,-0.35 0.05,-0.05 0.1,-0.1 0.16,-0.13 0.06,-0.03 0.13,-0.04 0.19,-0.04 -0.06,0.01 -0.12,0.03 -0.17,0.07zm1.58 2.22c-0.09,-0.06 -0.12,-0.11 -0.07,-0.15 0.02,-0.02 0.06,-0.04 0.11,-0.07l0.04 -0.02 0.04 -0.02c0.04,-0.02 0.07,-0.03 0.1,-0.05 0.18,-0.09 0.32,-0.2 0.43,-0.31 0.16,-0.16 0.28,-0.35 0.34,-0.58 0.06,-0.21 0.06,-0.4 -0.01,-0.59 -0.06,-0.17 -0.17,-0.3 -0.32,-0.38 -0.15,-0.08 -0.3,-0.1 -0.46,-0.05 -0.18,0.05 -0.33,0.18 -0.46,0.39 -0.21,0.35 -0.42,0.59 -0.61,0.73 -0.08,0.05 -0.13,0.07 -0.16,0.05 -0.03,-0.03 -0.02,-0.09 0.02,-0.18 0.17,-0.38 0.22,-0.7 0.16,-0.94 -0.05,-0.2 -0.18,-0.32 -0.37,-0.38 -0.4,-0.1 -0.71,0.11 -0.93,0.65 -0.18,0.43 -0.29,1.05 -0.34,1.88 -0.05,0.83 -0.02,1.49 0.1,1.99 0.15,0.61 0.41,0.91 0.78,0.89 0.35,-0.01 0.55,-0.29 0.6,-0.83 0.02,-0.18 0.02,-0.39 0,-0.61 -0.01,-0.08 -0.02,-0.16 -0.03,-0.24 -0,-0.03 -0.01,-0.06 -0.01,-0.09l-0 -0.04 -0 -0.02 0 -0.01c-0.01,-0.07 -0,-0.12 0.02,-0.14 0.03,-0.02 0.07,-0.01 0.12,0.03 0.13,0.12 0.25,0.41 0.36,0.88 0.07,0.3 0.18,0.54 0.32,0.74 0.13,0.17 0.28,0.29 0.44,0.35 0.16,0.05 0.31,0.05 0.46,-0.01 0.15,-0.06 0.28,-0.18 0.38,-0.34 0.11,-0.18 0.17,-0.39 0.18,-0.62 0,-0.22 -0.04,-0.45 -0.14,-0.69 -0.21,-0.5 -0.57,-0.9 -1.09,-1.21z"/>
  <path id="_20" class="fil0" d="M2.54 11.2c0.02,0.2 0,0.37 -0.04,0.51 -0.03,0.09 -0.07,0.17 -0.12,0.23 -0.06,0.07 -0.12,0.11 -0.19,0.14 0.13,-0.08 0.22,-0.21 0.26,-0.39 0.03,-0.14 0.04,-0.3 0.02,-0.49 -0.01,-0.19 -0.02,-0.36 -0.01,-0.51 0.01,-0.1 0.02,-0.18 0.04,-0.25 0.03,-0.1 0.06,-0.18 0.1,-0.23 -0.04,0.06 -0.06,0.14 -0.07,0.23 -0.01,0.07 -0.02,0.16 -0.02,0.25 0,0.16 0.01,0.33 0.02,0.5zm-1.69 -0.79c-0.05,0.08 -0.1,0.17 -0.14,0.28 -0.03,0.07 -0.06,0.16 -0.1,0.3l-0.04 0.16 -0.04 0.15c0,-0.12 0.01,-0.23 0.03,-0.32 0.02,-0.12 0.05,-0.22 0.09,-0.32 0.05,-0.12 0.1,-0.21 0.16,-0.28 0.04,-0.05 0.09,-0.09 0.12,-0.11 0.05,-0.03 0.1,-0.04 0.15,-0.04 -0.07,0.01 -0.15,0.07 -0.23,0.18zm3.01 1.97c-0.02,-0.77 -0.11,-1.37 -0.27,-1.8 -0.19,-0.49 -0.47,-0.73 -0.83,-0.72 -0.42,0.01 -0.6,0.47 -0.52,1.38 0.02,0.2 -0,0.36 -0.05,0.46 -0.05,0.09 -0.12,0.14 -0.22,0.14 -0.11,-0 -0.19,-0.05 -0.23,-0.14 -0.05,-0.09 -0.07,-0.23 -0.06,-0.43 0.02,-0.49 -0.02,-0.84 -0.12,-1.04 -0.09,-0.19 -0.25,-0.29 -0.47,-0.29 -0.2,0 -0.37,0.12 -0.52,0.37 -0.15,0.24 -0.24,0.56 -0.29,0.95 -0.06,0.43 -0.05,0.81 0.02,1.12 0.05,0.26 0.16,0.49 0.31,0.71 0.16,0.23 0.4,0.36 0.71,0.38 0.1,0.01 0.21,0.01 0.34,-0 0.02,-0 0.04,-0.01 0.07,-0.01l0.03 -0 0.03 -0c0.05,-0.01 0.08,-0.01 0.1,-0.01 0.1,-0.01 0.17,0.03 0.23,0.12 0.08,0.11 0.12,0.3 0.12,0.55 0,0.42 0.08,0.74 0.22,0.95 0.13,0.19 0.31,0.29 0.54,0.3 0.63,0.02 0.93,-0.97 0.88,-2.97z"/>
  <path class="fil1" d="M3.01 5.4c-0.03,0 -0.07,0 -0.12,0.01l-0.06 0.01 -0.06 0c0.07,-0.06 0.15,-0.09 0.24,-0.09 0.05,0 0.09,0.01 0.13,0.02 0.04,0.02 0.08,0.05 0.1,0.09 -0.08,-0.03 -0.16,-0.04 -0.23,-0.04zm-2.01 -1.24c-0.05,0.06 -0.1,0.12 -0.15,0.17 -0.11,0.13 -0.19,0.26 -0.25,0.37 -0.08,0.13 -0.14,0.27 -0.17,0.42 -0.03,0.14 -0.05,0.3 -0.05,0.46l-0.02 -0.12 -0 -0.06 0 -0.06 0 -0.06 0 -0.06 0.01 -0.06 0.01 -0.06c0.03,-0.15 0.08,-0.3 0.16,-0.45 0.08,-0.14 0.17,-0.26 0.27,-0.37 0.05,-0.06 0.11,-0.11 0.17,-0.16l0.09 -0.07c0.03,-0.03 0.06,-0.05 0.09,-0.07l-0.08 0.08 -0.08 0.08zm0.35 -2.45c-0.07,0.03 -0.13,0.07 -0.19,0.1 -0.13,0.07 -0.25,0.16 -0.36,0.25 -0.11,0.09 -0.21,0.2 -0.31,0.32 -0.05,0.06 -0.09,0.13 -0.12,0.19 -0.04,0.07 -0.07,0.15 -0.07,0.22 -0,-0.13 0.04,-0.28 0.15,-0.44 0.08,-0.13 0.18,-0.24 0.31,-0.35 0.13,-0.1 0.25,-0.19 0.38,-0.24 0.07,-0.03 0.14,-0.06 0.2,-0.08 0.08,-0.02 0.15,-0.04 0.22,-0.05l-0.1 0.04c-0.04,0.01 -0.07,0.03 -0.1,0.04zm1.31 3.43c-0.2,0.08 -0.38,0.12 -0.55,0.1 -0.14,-0.01 -0.22,-0.04 -0.25,-0.1 -0.01,-0.03 -0.02,-0.06 -0.02,-0.09 -0,-0.04 0.01,-0.09 0.03,-0.13 0.06,-0.13 0.19,-0.26 0.41,-0.4 0.28,-0.18 0.51,-0.42 0.7,-0.7 0.18,-0.28 0.3,-0.56 0.35,-0.86 0.06,-0.31 0.03,-0.59 -0.07,-0.84 -0.11,-0.27 -0.3,-0.48 -0.57,-0.63 -0.32,-0.17 -0.67,-0.23 -1.03,-0.18 -0.32,0.05 -0.62,0.17 -0.91,0.38 -0.27,0.19 -0.47,0.42 -0.6,0.67 -0.13,0.26 -0.16,0.48 -0.09,0.68 0.07,0.19 0.21,0.3 0.41,0.33 0.21,0.03 0.46,-0.02 0.75,-0.17 0.16,-0.08 0.28,-0.13 0.34,-0.15 0.07,-0.01 0.12,-0 0.15,0.04 0.07,0.08 -0.01,0.2 -0.26,0.35 -0.46,0.29 -0.81,0.61 -1.04,0.96 -0.29,0.44 -0.38,0.91 -0.27,1.41 0.08,0.35 0.31,0.61 0.68,0.77 0.31,0.13 0.69,0.2 1.17,0.2 0.47,0 0.86,-0.07 1.16,-0.21 0.31,-0.14 0.49,-0.34 0.54,-0.6 0.03,-0.13 0.02,-0.26 -0.02,-0.38 -0.04,-0.13 -0.1,-0.24 -0.19,-0.33 -0.1,-0.1 -0.21,-0.16 -0.34,-0.18 -0.15,-0.02 -0.3,-0 -0.47,0.07z"/>
  <path id="_1_0" class="fil1" d="M6.33 4.95c-0.04,0.09 -0.09,0.16 -0.15,0.21 -0.07,0.06 -0.14,0.09 -0.22,0.1 0.13,-0.07 0.24,-0.19 0.31,-0.35 0.06,-0.12 0.1,-0.27 0.12,-0.47 0.04,0.17 0.02,0.34 -0.05,0.51zm-0.45 0.02c-0.09,0.03 -0.17,0 -0.25,-0.08 -0.08,-0.09 -0.14,-0.2 -0.17,-0.35 -0.03,-0.15 -0.02,-0.28 0.02,-0.41 0.04,-0.12 0.11,-0.2 0.19,-0.23 0.09,-0.03 0.17,0 0.25,0.08 0.08,0.08 0.14,0.2 0.17,0.35 0.03,0.15 0.02,0.28 -0.02,0.41 -0.04,0.13 -0.11,0.2 -0.19,0.23zm-1.09 -2.76c-0.1,0.16 -0.19,0.35 -0.27,0.58 -0.06,0.19 -0.11,0.4 -0.15,0.64 0,-0.09 0.01,-0.2 0.03,-0.33 0.02,-0.11 0.04,-0.22 0.07,-0.33 0.06,-0.23 0.15,-0.43 0.26,-0.61 0.13,-0.2 0.29,-0.35 0.47,-0.44 0.09,-0.05 0.19,-0.09 0.3,-0.11 0.11,-0.02 0.21,-0.02 0.31,-0.02 -0.23,0.02 -0.42,0.08 -0.58,0.17 -0.17,0.1 -0.31,0.25 -0.43,0.44zm1.4 -0.87c-0.65,-0.13 -1.17,0.04 -1.56,0.53 -0.34,0.43 -0.53,1.02 -0.56,1.77 -0.03,0.73 0.09,1.38 0.36,1.97 0.29,0.64 0.7,1.02 1.21,1.14 0.48,0.11 0.91,-0.08 1.28,-0.58 0.35,-0.45 0.57,-1.04 0.67,-1.76 0.11,-0.74 0.05,-1.39 -0.17,-1.95 -0.25,-0.63 -0.66,-1.01 -1.24,-1.13z"/>
  <path id="_2_1" class="fil1" d="M10.98 5.4c-0.03,0 -0.07,0 -0.12,0.01l-0.06 0.01 -0.06 0c0.07,-0.06 0.15,-0.09 0.24,-0.09 0.05,0 0.09,0.01 0.13,0.02 0.04,0.02 0.08,0.05 0.1,0.09 -0.08,-0.03 -0.16,-0.04 -0.23,-0.04zm-2.01 -1.24c-0.05,0.06 -0.1,0.12 -0.15,0.17 -0.11,0.13 -0.19,0.26 -0.25,0.37 -0.08,0.13 -0.14,0.27 -0.17,0.42 -0.03,0.14 -0.05,0.3 -0.05,0.46l-0.02 -0.12 -0 -0.06 0 -0.06 0 -0.06 0 -0.06 0.01 -0.06 0.01 -0.06c0.03,-0.15 0.08,-0.3 0.16,-0.45 0.08,-0.14 0.17,-0.26 0.27,-0.37 0.05,-0.06 0.11,-0.11 0.17,-0.16l0.09 -0.07c0.03,-0.03 0.06,-0.05 0.09,-0.07l-0.08 0.08 -0.08 0.08zm0.35 -2.45c-0.07,0.03 -0.13,0.07 -0.19,0.1 -0.13,0.07 -0.25,0.16 -0.36,0.25 -0.11,0.09 -0.21,0.2 -0.31,0.32 -0.05,0.06 -0.09,0.13 -0.12,0.19 -0.04,0.07 -0.07,0.15 -0.07,0.22 -0,-0.13 0.04,-0.28 0.15,-0.44 0.08,-0.13 0.18,-0.24 0.31,-0.35 0.13,-0.1 0.25,-0.19 0.38,-0.24 0.07,-0.03 0.14,-0.06 0.2,-0.08 0.08,-0.02 0.15,-0.04 0.22,-0.05l-0.1 0.04c-0.04,0.01 -0.07,0.03 -0.1,0.04zm1.31 3.43c-0.2,0.08 -0.38,0.12 -0.55,0.1 -0.14,-0.01 -0.22,-0.04 -0.25,-0.1 -0.01,-0.03 -0.02,-0.06 -0.02,-0.09 -0,-0.04 0.01,-0.09 0.03,-0.13 0.06,-0.13 0.19,-0.26 0.41,-0.4 0.28,-0.18 0.51,-0.42 0.7,-0.7 0.18,-0.28 0.3,-0.56 0.35,-0.86 0.06,-0.31 0.03,-0.59 -0.07,-0.84 -0.11,-0.27 -0.3,-0.48 -0.57,-0.63 -0.32,-0.17 -0.67,-0.23 -1.03,-0.18 -0.32,0.05 -0.62,0.17 -0.91,0.38 -0.27,0.19 -0.47,0.42 -0.6,0.67 -0.13,0.26 -0.16,0.48 -0.09,0.68 0.07,0.19 0.21,0.3 0.41,0.33 0.21,0.03 0.46,-0.02 0.75,-0.17 0.16,-0.08 0.28,-0.13 0.34,-0.15 0.07,-0.01 0.12,-0 0.15,0.04 0.07,0.08 -0.01,0.2 -0.26,0.35 -0.46,0.29 -0.81,0.61 -1.04,0.96 -0.29,0.44 -0.38,0.91 -0.27,1.41 0.08,0.35 0.31,0.61 0.68,0.77 0.31,0.13 0.69,0.2 1.17,0.2 0.47,0 0.86,-0.07 1.16,-0.21 0.31,-0.14 0.49,-0.34 0.54,-0.6 0.03,-0.13 0.02,-0.26 -0.02,-0.38 -0.04,-0.13 -0.1,-0.24 -0.19,-0.33 -0.1,-0.1 -0.21,-0.16 -0.34,-0.18 -0.15,-0.02 -0.3,-0 -0.47,0.07z"/>
  <path id="_3_2" class="fil1" d="M18.27 3.73c-0.05,0.01 -0.11,0.03 -0.16,0.05l-0.04 0.02 -0.04 0.02c-0.03,0.02 -0.06,0.03 -0.09,0.03 -0.06,0.02 -0.12,0.02 -0.18,0.02l0.08 -0.03c0.03,-0.01 0.06,-0.02 0.08,-0.04l0.04 -0.02 0.04 -0.02c0.03,-0.02 0.06,-0.03 0.08,-0.05 0.06,-0.03 0.12,-0.04 0.18,-0.04 0.07,-0 0.13,0.01 0.18,0.05 -0.05,-0.01 -0.11,-0.01 -0.17,0zm-1.62 0.11c-0.05,0 -0.1,0.01 -0.14,0.01 -0.06,0 -0.1,0.01 -0.13,0.02 -0.03,0.01 -0.04,0.02 -0.06,0.03 -0.01,0.01 -0.02,0.03 -0.04,0.07 -0,-0.03 0,-0.06 0.01,-0.08 0.01,-0.02 0.03,-0.04 0.06,-0.06 0.04,-0.02 0.09,-0.03 0.15,-0.04 0.06,-0.01 0.11,-0 0.15,0 0.06,0.01 0.1,0.02 0.14,0.03 -0.04,0.01 -0.09,0.02 -0.15,0.02zm1.27 -0.28c-0.1,0.06 -0.26,0.08 -0.48,0.07 -0.07,-0.01 -0.17,-0.02 -0.3,-0.03l-0.15 -0.01c-0.06,-0.01 -0.11,-0.01 -0.15,-0.02 -0.23,-0.02 -0.41,-0.01 -0.52,0.03 -0.16,0.05 -0.25,0.17 -0.27,0.34 -0.03,0.22 0.06,0.41 0.27,0.57 0.2,0.15 0.46,0.25 0.78,0.31 0.32,0.06 0.62,0.05 0.91,-0 0.31,-0.06 0.54,-0.18 0.68,-0.35 0.1,-0.12 0.15,-0.26 0.16,-0.41 0,-0.15 -0.03,-0.27 -0.11,-0.39 -0.08,-0.12 -0.19,-0.18 -0.33,-0.21 -0.15,-0.03 -0.31,0.01 -0.49,0.1z"/>
  <path id="_4_3" class="fil1" d="M20.48 1.64c-0.16,0.03 -0.3,0.05 -0.4,0.09 -0.16,0.05 -0.28,0.1 -0.37,0.17 -0.07,0.05 -0.12,0.1 -0.15,0.14 -0.04,0.05 -0.06,0.12 -0.06,0.21 -0.02,-0.08 -0.01,-0.15 0.03,-0.23 0.03,-0.06 0.08,-0.12 0.15,-0.17 0.09,-0.07 0.22,-0.14 0.38,-0.19 0.26,-0.08 0.54,-0.1 0.83,-0.07 -0.15,0.02 -0.29,0.03 -0.41,0.05zm0.67 -0.34c-0.57,-0.03 -1.04,0.04 -1.4,0.2 -0.38,0.18 -0.55,0.43 -0.53,0.77 0.01,0.19 0.09,0.32 0.22,0.41 0.09,0.06 0.24,0.1 0.43,0.13l0.12 0.01 0.11 0.01c0.09,0.01 0.16,0.02 0.21,0.03 0.14,0.03 0.23,0.1 0.26,0.19 0.02,0.06 -0,0.39 -0.06,1 -0.03,0.31 -0.05,0.57 -0.06,0.79 -0.01,0.31 -0.01,0.58 0.01,0.81 0.03,0.35 0.14,0.63 0.33,0.84 0.2,0.23 0.43,0.32 0.71,0.28 0.51,-0.07 0.69,-0.62 0.55,-1.64 -0.07,-0.54 -0.11,-1 -0.11,-1.38 -0,-0.41 0.03,-0.64 0.11,-0.71 0.05,-0.04 0.14,-0.07 0.27,-0.07 0.04,0 0.1,0 0.18,0l0.1 0 0.1 -0c0.15,-0 0.27,-0.03 0.36,-0.07 0.11,-0.06 0.19,-0.16 0.23,-0.3 0.05,-0.17 0.02,-0.34 -0.07,-0.49 -0.09,-0.15 -0.24,-0.28 -0.45,-0.4 -0.42,-0.24 -0.95,-0.38 -1.61,-0.41z"/>
  <path id="_5_4" class="fil1" d="M26.42 1.9c-0.06,0.08 -0.13,0.17 -0.19,0.28 -0.11,0.19 -0.21,0.39 -0.29,0.61l-0.06 0.16 -0.06 0.16c-0.05,0.15 -0.09,0.25 -0.11,0.33 -0.06,0.14 -0.11,0.24 -0.16,0.31 -0.04,0.05 -0.08,0.08 -0.13,0.1 -0.04,0.02 -0.1,0.03 -0.16,0.02 0.06,-0 0.12,-0.01 0.16,-0.03 0.04,-0.02 0.08,-0.06 0.12,-0.11 0.05,-0.06 0.09,-0.16 0.14,-0.3l0.05 -0.16 0.05 -0.16c0.04,-0.13 0.08,-0.24 0.11,-0.33 0.09,-0.24 0.19,-0.44 0.31,-0.62 0.15,-0.23 0.31,-0.39 0.47,-0.48 -0.09,0.06 -0.16,0.14 -0.24,0.23zm-2.34 0.89c-0.03,0.16 -0.06,0.34 -0.09,0.56l-0.03 0.28 -0.03 0.28c-0.02,-0.56 0.04,-1.05 0.18,-1.49 0.03,-0.09 0.05,-0.16 0.08,-0.23 0.04,-0.09 0.08,-0.17 0.12,-0.23 0.12,-0.17 0.25,-0.25 0.39,-0.24 -0.18,0.02 -0.33,0.16 -0.44,0.42 -0.04,0.1 -0.08,0.21 -0.11,0.35 -0.01,0.05 -0.03,0.1 -0.04,0.16l-0.02 0.08 -0.01 0.04 -0.01 0.03zm3.24 -1.37c-0.29,-0.19 -0.58,-0.17 -0.87,0.05 -0.24,0.18 -0.46,0.47 -0.65,0.86 -0.06,0.13 -0.12,0.28 -0.18,0.44 -0.02,0.06 -0.04,0.13 -0.07,0.22l-0.03 0.1 -0.01 0.05 -0.02 0.05c-0.05,0.14 -0.08,0.24 -0.11,0.29 -0.03,0.07 -0.07,0.11 -0.1,0.11 -0.06,-0.01 -0.09,-0.06 -0.1,-0.15 -0,-0.09 0.01,-0.28 0.05,-0.59 0.08,-0.56 0.04,-0.96 -0.1,-1.19 -0.11,-0.18 -0.3,-0.25 -0.54,-0.22 -0.3,0.04 -0.54,0.35 -0.71,0.92 -0.17,0.55 -0.24,1.23 -0.22,2.03 0.04,1.47 0.44,2.26 1.2,2.37 0.22,0.03 0.44,-0.03 0.66,-0.17 0.21,-0.14 0.38,-0.32 0.52,-0.57 0.13,-0.21 0.24,-0.41 0.33,-0.59 0.03,-0.07 0.06,-0.14 0.09,-0.21 0.02,-0.04 0.04,-0.09 0.06,-0.15 0.04,-0.09 0.06,-0.15 0.07,-0.16 0.02,-0.02 0.04,-0.03 0.07,-0.03 0.03,0.01 0.03,0.12 0.01,0.32l-0.01 0.07 -0.01 0.07c-0.01,0.06 -0.01,0.12 -0.02,0.16 -0.01,0.13 -0.02,0.25 -0.02,0.35 -0.01,0.62 0.19,0.93 0.61,0.93 0.27,-0 0.48,-0.25 0.63,-0.75 0.13,-0.45 0.2,-1.01 0.2,-1.69 0,-0.67 -0.06,-1.27 -0.19,-1.81 -0.14,-0.58 -0.32,-0.95 -0.55,-1.1z"/>
  <path id="_6_5" class="fil1" d="M32.28 4.69c-0.05,0.04 -0.1,0.07 -0.15,0.08 -0.06,0.02 -0.12,0.02 -0.17,0 0.11,-0.03 0.2,-0.08 0.28,-0.15 0.07,-0.06 0.14,-0.14 0.21,-0.25 -0.02,0.12 -0.07,0.23 -0.17,0.31zm-0.38 -0.22c-0.05,-0.02 -0.09,-0.07 -0.11,-0.15 -0.02,-0.07 -0.01,-0.15 0.01,-0.22 0.03,-0.08 0.07,-0.14 0.13,-0.18 0.06,-0.04 0.12,-0.05 0.17,-0.02 0.05,0.02 0.09,0.07 0.11,0.14 0.02,0.07 0.01,0.15 -0.02,0.23 -0.03,0.08 -0.07,0.13 -0.13,0.18 -0.06,0.04 -0.11,0.05 -0.17,0.02zm-0.57 -2.06c-0.09,0.13 -0.2,0.31 -0.32,0.53 -0.04,0.08 -0.09,0.17 -0.15,0.28l-0.15 0.28c0.07,-0.19 0.15,-0.38 0.25,-0.58 0.09,-0.19 0.2,-0.37 0.31,-0.55 0.14,-0.2 0.27,-0.37 0.39,-0.49l0.06 -0.05c0.02,-0.02 0.04,-0.04 0.06,-0.05l0.06 -0.05 0.06 -0.04c0.11,-0.06 0.21,-0.09 0.29,-0.09 -0.08,0.01 -0.17,0.05 -0.27,0.12l-0.06 0.05 -0.06 0.05c-0.02,0.01 -0.03,0.03 -0.05,0.05l-0.05 0.06c-0.12,0.14 -0.24,0.3 -0.37,0.49zm0.94 -1.11c-0.31,-0.05 -0.65,0.18 -1.03,0.69 -0.34,0.46 -0.65,1.05 -0.93,1.76 -0.27,0.71 -0.43,1.34 -0.48,1.9 -0.05,0.61 0.06,0.96 0.32,1.07 0.2,0.09 0.39,0.08 0.58,-0.01 0.14,-0.07 0.29,-0.19 0.45,-0.37 0.03,-0.04 0.06,-0.08 0.1,-0.12l0.09 -0.12c0.08,-0.1 0.13,-0.17 0.17,-0.21 0.12,-0.14 0.23,-0.21 0.31,-0.21 0.09,0 0.2,0.07 0.33,0.2 0.04,0.04 0.1,0.11 0.18,0.2l0.1 0.11 0.1 0.11c0.16,0.17 0.3,0.29 0.43,0.35 0.17,0.08 0.34,0.08 0.52,-0.01 0.2,-0.1 0.32,-0.43 0.35,-0.98 0.03,-0.52 -0.03,-1.1 -0.16,-1.76 -0.14,-0.69 -0.32,-1.26 -0.56,-1.73 -0.27,-0.53 -0.55,-0.82 -0.86,-0.87z"/>
  <path id="_7_6" class="fil1" d="M36.58 3.57c-0.03,0.07 -0.07,0.14 -0.12,0.2 -0.05,0.06 -0.11,0.11 -0.18,0.13 -0.07,0.03 -0.14,0.04 -0.21,0.02 0.07,-0.01 0.13,-0.04 0.19,-0.08 0.06,-0.04 0.11,-0.08 0.15,-0.13 0.09,-0.1 0.16,-0.23 0.2,-0.38 0.01,0.07 -0,0.15 -0.03,0.23zm-0.64 -0.33c0.04,-0.08 0.08,-0.13 0.15,-0.16 0.06,-0.03 0.12,-0.04 0.16,-0.01 0.05,0.03 0.08,0.08 0.09,0.15 0.01,0.07 -0,0.15 -0.04,0.22 -0.03,0.08 -0.08,0.13 -0.14,0.16 -0.06,0.03 -0.12,0.04 -0.17,0.01 -0.05,-0.03 -0.08,-0.08 -0.09,-0.15 -0.01,-0.07 0,-0.15 0.03,-0.22zm-0.54 -1.51c-0.16,0.08 -0.3,0.19 -0.41,0.33 -0.11,0.12 -0.2,0.28 -0.29,0.46 -0.06,0.15 -0.12,0.32 -0.18,0.53 0.01,-0.08 0.02,-0.17 0.05,-0.28 0.02,-0.1 0.05,-0.19 0.08,-0.27 0.07,-0.18 0.16,-0.35 0.28,-0.49 0.13,-0.15 0.27,-0.26 0.44,-0.33 0.08,-0.04 0.17,-0.06 0.26,-0.08 0.1,-0.02 0.18,-0.02 0.26,-0.02 -0.2,0.03 -0.36,0.08 -0.5,0.15zm0.66 -0.45c-0.47,-0.01 -0.86,0.14 -1.17,0.43 -0.27,0.26 -0.47,0.62 -0.58,1.08 -0.1,0.42 -0.13,0.88 -0.08,1.39 0.05,0.49 0.16,0.94 0.35,1.36 0.17,0.4 0.37,0.71 0.58,0.93 0.19,0.19 0.38,0.3 0.57,0.31 0.17,0.02 0.32,-0.04 0.44,-0.16 0.12,-0.13 0.2,-0.3 0.22,-0.51 0.02,-0.15 0.02,-0.32 -0.01,-0.51 -0.01,-0.05 -0.02,-0.13 -0.04,-0.23l-0.02 -0.11c-0.01,-0.04 -0.01,-0.07 -0.02,-0.1 -0.02,-0.15 -0.02,-0.26 0.01,-0.35 0.03,-0.1 0.1,-0.19 0.22,-0.24 0.38,-0.19 0.67,-0.48 0.86,-0.85 0.18,-0.35 0.25,-0.71 0.21,-1.09 -0.04,-0.38 -0.19,-0.69 -0.45,-0.94 -0.28,-0.27 -0.64,-0.4 -1.09,-0.41z"/>
  <path id="_8_7" class="fil1" d="M40.32 5.11c-0.04,0.07 -0.1,0.12 -0.17,0.16 -0.07,0.04 -0.14,0.05 -0.21,0.03 0.15,-0.03 0.26,-0.1 0.33,-0.23 0.03,-0.05 0.06,-0.12 0.08,-0.19 0.01,-0.07 0.02,-0.14 0.02,-0.23 0.03,0.07 0.04,0.15 0.03,0.23 -0,0.08 -0.03,0.16 -0.07,0.23zm-0.62 -0.3c-0.03,-0.07 -0.05,-0.15 -0.03,-0.22 0.01,-0.07 0.04,-0.13 0.09,-0.15 0.05,-0.03 0.11,-0.02 0.17,0.01 0.06,0.03 0.11,0.09 0.14,0.16 0.04,0.08 0.05,0.15 0.03,0.22 -0.01,0.07 -0.04,0.12 -0.09,0.15 -0.05,0.03 -0.1,0.02 -0.16,-0.01 -0.06,-0.03 -0.11,-0.09 -0.15,-0.16zm-0.33 -3.18c-0.04,0.02 -0.09,0.06 -0.15,0.1 -0.08,0.07 -0.16,0.16 -0.24,0.27 -0.06,0.08 -0.13,0.18 -0.21,0.31 -0.03,0.04 -0.06,0.1 -0.1,0.16l-0.09 0.16c0.05,-0.14 0.1,-0.26 0.14,-0.36 0.06,-0.12 0.13,-0.23 0.2,-0.33 0.09,-0.12 0.18,-0.21 0.27,-0.27 0.12,-0.09 0.23,-0.13 0.34,-0.12 -0.06,0.01 -0.11,0.03 -0.17,0.06zm0.92 1.86c-0.12,-0.04 -0.2,-0.11 -0.23,-0.21 -0.03,-0.08 -0.03,-0.19 -0,-0.35 0,-0.03 0.01,-0.07 0.02,-0.11l0.02 -0.11c0.02,-0.1 0.03,-0.18 0.04,-0.24 0.03,-0.19 0.03,-0.37 0.02,-0.52 -0.03,-0.21 -0.1,-0.38 -0.22,-0.51 -0.13,-0.13 -0.27,-0.18 -0.45,-0.16 -0.19,0.02 -0.38,0.12 -0.56,0.31 -0.21,0.21 -0.41,0.52 -0.58,0.93 -0.18,0.42 -0.29,0.87 -0.35,1.36 -0.05,0.5 -0.03,0.97 0.08,1.39 0.11,0.46 0.31,0.82 0.58,1.08 0.31,0.29 0.7,0.43 1.17,0.42 0.45,-0.01 0.82,-0.15 1.11,-0.44 0.27,-0.26 0.43,-0.59 0.49,-0.99 0.05,-0.4 -0.01,-0.76 -0.2,-1.1 -0.2,-0.36 -0.52,-0.61 -0.94,-0.76zm1.47 -1.77c-0.04,0.04 -0.07,0.09 -0.09,0.15 -0.02,0.05 -0.03,0.11 -0.03,0.18 -0,0.09 0,0.22 0.03,0.38l0.03 0.19 0.03 0.19c-0.05,-0.14 -0.09,-0.26 -0.12,-0.37 -0.04,-0.15 -0.05,-0.28 -0.05,-0.39 0.01,-0.08 0.02,-0.14 0.04,-0.2 0.03,-0.07 0.07,-0.13 0.11,-0.17 0.1,-0.08 0.21,-0.11 0.35,-0.1 -0.13,0.02 -0.24,0.06 -0.31,0.14zm1.23 0.21c-0.1,-0.2 -0.23,-0.36 -0.39,-0.48 -0.14,-0.1 -0.3,-0.16 -0.46,-0.17 -0.16,-0.01 -0.3,0.02 -0.43,0.09 -0.13,0.07 -0.23,0.17 -0.29,0.3 -0.11,0.24 -0.11,0.59 0.01,1.06 0.02,0.07 0.04,0.17 0.08,0.29l0.04 0.15 0.04 0.15c0.06,0.23 0.1,0.43 0.12,0.58 0.04,0.37 0.06,0.75 0.05,1.15 -0,0.12 -0.01,0.27 -0.02,0.44l-0 0.1 -0 0.1c-0,0.07 -0.01,0.13 -0.01,0.18 -0.01,0.24 0.01,0.41 0.04,0.51 0.04,0.13 0.13,0.21 0.26,0.24 0.26,0.06 0.49,-0.08 0.69,-0.44 0.18,-0.32 0.32,-0.76 0.42,-1.33 0.09,-0.54 0.13,-1.08 0.11,-1.61 -0.02,-0.56 -0.11,-0.99 -0.26,-1.29z"/>
  <path id="_9_8" class="fil1" d="M46.7 1.68c-0.03,0.01 -0.06,0.04 -0.09,0.08 -0.04,0.06 -0.07,0.14 -0.09,0.25 -0.03,0.15 -0.04,0.33 -0.03,0.55l0 0.07 0 0.07c0,0.06 0,0.1 -0,0.15 -0.01,0.1 -0.03,0.2 -0.07,0.28 -0.04,0.09 -0.09,0.17 -0.15,0.23 -0.07,0.07 -0.14,0.11 -0.23,0.14 0.16,-0.08 0.27,-0.21 0.33,-0.39 0.03,-0.09 0.04,-0.18 0.05,-0.27 0,-0.04 0,-0.08 0,-0.13l-0 -0.07 0 -0.07c-0,-0.23 0.01,-0.42 0.05,-0.56 0.03,-0.12 0.07,-0.2 0.12,-0.26 0.04,-0.04 0.07,-0.06 0.11,-0.08 0.03,-0.01 0.08,-0.02 0.13,-0.02 -0.05,0.01 -0.09,0.02 -0.12,0.04zm-2.38 0.1c-0.08,0.09 -0.15,0.21 -0.19,0.35 -0.04,0.12 -0.07,0.25 -0.11,0.41l-0.05 0.2 -0.05 0.21c0.01,-0.29 0.05,-0.57 0.14,-0.84 0.05,-0.15 0.12,-0.28 0.22,-0.37 0.05,-0.05 0.11,-0.09 0.17,-0.12 0.07,-0.03 0.13,-0.04 0.19,-0.03 -0.12,0.01 -0.23,0.08 -0.33,0.19zm2.49 -0.43c-0.24,0.01 -0.41,0.13 -0.51,0.35 -0.1,0.21 -0.14,0.54 -0.12,0.99 0.01,0.19 -0.03,0.34 -0.12,0.44 -0.07,0.09 -0.16,0.12 -0.28,0.11 -0.12,-0.01 -0.2,-0.06 -0.26,-0.16 -0.06,-0.1 -0.08,-0.23 -0.07,-0.39 0.04,-0.45 0,-0.79 -0.12,-1.02 -0.11,-0.2 -0.3,-0.32 -0.56,-0.37 -0.21,-0.04 -0.4,0.02 -0.57,0.16 -0.16,0.13 -0.28,0.33 -0.36,0.57 -0.15,0.48 -0.23,1.04 -0.23,1.69 -0.01,0.63 0.05,1.23 0.18,1.79 0.09,0.42 0.24,0.73 0.44,0.91 0.17,0.15 0.35,0.21 0.55,0.18 0.45,-0.07 0.65,-0.43 0.61,-1.08 -0.03,-0.47 0.06,-0.71 0.28,-0.71 0.11,0 0.19,0.04 0.25,0.13 0.08,0.12 0.11,0.3 0.1,0.55 -0.02,0.42 0.04,0.74 0.19,0.97 0.13,0.21 0.32,0.31 0.57,0.31 0.42,0 0.71,-0.28 0.88,-0.85 0.12,-0.41 0.2,-1.09 0.22,-2.03 0.02,-0.73 -0.06,-1.34 -0.25,-1.82 -0.2,-0.51 -0.46,-0.75 -0.8,-0.73z"/>
  <path id="_10_9" class="fil1" d="M14.35 2.63c0.02,0.2 0,0.37 -0.04,0.51 -0.03,0.09 -0.07,0.17 -0.12,0.23 -0.06,0.07 -0.12,0.11 -0.19,0.14 0.13,-0.08 0.22,-0.21 0.26,-0.39 0.03,-0.14 0.04,-0.3 0.02,-0.49 -0.01,-0.19 -0.02,-0.36 -0.01,-0.51 0.01,-0.1 0.02,-0.18 0.04,-0.25 0.03,-0.1 0.06,-0.18 0.1,-0.23 -0.04,0.06 -0.06,0.14 -0.07,0.23 -0.01,0.07 -0.02,0.16 -0.02,0.25 0,0.16 0.01,0.33 0.02,0.5zm-1.69 -0.79c-0.05,0.08 -0.1,0.17 -0.14,0.28 -0.03,0.07 -0.06,0.16 -0.1,0.3l-0.04 0.16 -0.04 0.15c0,-0.12 0.01,-0.23 0.03,-0.32 0.02,-0.12 0.05,-0.22 0.09,-0.32 0.05,-0.12 0.1,-0.21 0.16,-0.28 0.04,-0.05 0.09,-0.09 0.12,-0.11 0.05,-0.03 0.1,-0.04 0.15,-0.04 -0.07,0.01 -0.15,0.07 -0.23,0.18zm3.01 1.97c-0.02,-0.77 -0.11,-1.37 -0.27,-1.8 -0.19,-0.49 -0.47,-0.73 -0.83,-0.72 -0.42,0.01 -0.6,0.47 -0.52,1.38 0.02,0.2 -0,0.36 -0.05,0.46 -0.05,0.09 -0.12,0.14 -0.22,0.14 -0.11,-0 -0.19,-0.05 -0.23,-0.14 -0.05,-0.09 -0.07,-0.23 -0.06,-0.43 0.02,-0.49 -0.02,-0.84 -0.12,-1.04 -0.09,-0.19 -0.25,-0.29 -0.47,-0.29 -0.2,0 -0.37,0.12 -0.52,0.37 -0.15,0.24 -0.24,0.56 -0.29,0.95 -0.06,0.43 -0.05,0.81 0.02,1.12 0.05,0.26 0.16,0.49 0.31,0.71 0.16,0.23 0.4,0.36 0.71,0.38 0.1,0.01 0.21,0.01 0.34,-0 0.02,-0 0.04,-0.01 0.07,-0.01l0.03 -0 0.03 -0c0.05,-0.01 0.08,-0.01 0.1,-0.01 0.1,-0.01 0.17,0.03 0.23,0.12 0.08,0.11 0.12,0.3 0.12,0.55 0,0.42 0.08,0.74 0.22,0.95 0.13,0.19 0.31,0.29 0.54,0.3 0.63,0.02 0.93,-0.97 0.88,-2.97z"/>
  <path id="_11_10" class="fil1" d="M6.26 11.92c-0.05,0.01 -0.11,0.03 -0.16,0.05l-0.04 0.02 -0.04 0.02c-0.03,0.02 -0.06,0.03 -0.09,0.03 -0.06,0.02 -0.12,0.02 -0.18,0.02l0.08 -0.03c0.03,-0.01 0.06,-0.02 0.08,-0.04l0.04 -0.02 0.04 -0.02c0.03,-0.02 0.06,-0.03 0.08,-0.05 0.06,-0.03 0.12,-0.04 0.18,-0.04 0.07,-0 0.13,0.01 0.18,0.05 -0.05,-0.01 -0.11,-0.01 -0.17,0zm-1.62 0.11c-0.05,0 -0.1,0.01 -0.14,0.01 -0.06,0 -0.1,0.01 -0.13,0.02 -0.03,0.01 -0.04,0.02 -0.06,0.03 -0.01,0.01 -0.02,0.03 -0.04,0.07 -0,-0.03 0,-0.06 0.01,-0.08 0.01,-0.02 0.03,-0.04 0.06,-0.06 0.04,-0.02 0.09,-0.03 0.15,-0.04 0.06,-0.01 0.11,-0 0.15,0 0.06,0.01 0.1,0.02 0.14,0.03 -0.04,0.01 -0.09,0.02 -0.15,0.02zm1.27 -0.28c-0.1,0.06 -0.26,0.08 -0.48,0.07 -0.07,-0.01 -0.17,-0.02 -0.3,-0.03l-0.15 -0.01c-0.06,-0.01 -0.11,-0.01 -0.15,-0.02 -0.23,-0.02 -0.41,-0.01 -0.52,0.03 -0.16,0.05 -0.25,0.17 -0.27,0.34 -0.03,0.22 0.06,0.41 0.27,0.57 0.2,0.15 0.46,0.25 0.78,0.31 0.32,0.06 0.62,0.05 0.91,-0 0.31,-0.06 0.54,-0.18 0.68,-0.35 0.1,-0.12 0.15,-0.26 0.16,-0.41 0,-0.15 -0.03,-0.27 -0.11,-0.39 -0.08,-0.12 -0.19,-0.18 -0.33,-0.21 -0.15,-0.03 -0.31,0.01 -0.49,0.1z"/>
  <path id="_12_11" class="fil1" d="M8.47 9.82c-0.16,0.03 -0.3,0.05 -0.4,0.09 -0.16,0.05 -0.28,0.1 -0.37,0.17 -0.07,0.05 -0.12,0.1 -0.15,0.14 -0.04,0.05 -0.06,0.12 -0.06,0.21 -0.02,-0.08 -0.01,-0.15 0.03,-0.23 0.03,-0.06 0.08,-0.12 0.15,-0.17 0.09,-0.07 0.22,-0.14 0.38,-0.19 0.26,-0.08 0.54,-0.1 0.83,-0.07 -0.15,0.02 -0.29,0.03 -0.41,0.05zm0.67 -0.34c-0.57,-0.03 -1.04,0.04 -1.4,0.2 -0.38,0.18 -0.55,0.43 -0.53,0.77 0.01,0.19 0.09,0.32 0.22,0.41 0.09,0.06 0.24,0.1 0.43,0.13l0.12 0.01 0.11 0.01c0.09,0.01 0.16,0.02 0.21,0.03 0.14,0.03 0.23,0.1 0.26,0.19 0.02,0.06 -0,0.39 -0.06,1 -0.03,0.31 -0.05,0.57 -0.06,0.79 -0.01,0.31 -0.01,0.58 0.01,0.81 0.03,0.35 0.14,0.63 0.33,0.84 0.2,0.23 0.43,0.32 0.71,0.28 0.51,-0.07 0.69,-0.62 0.55,-1.64 -0.07,-0.54 -0.11,-1 -0.11,-1.38 -0,-0.41 0.03,-0.64 0.11,-0.71 0.05,-0.04 0.14,-0.07 0.27,-0.07 0.04,0 0.1,0 0.18,0l0.1 0 0.1 -0c0.15,-0 0.27,-0.03 0.36,-0.07 0.11,-0.06 0.19,-0.16 0.23,-0.3 0.05,-0.17 0.02,-0.34 -0.07,-0.49 -0.09,-0.15 -0.24,-0.28 -0.45,-0.4 -0.42,-0.24 -0.95,-0.38 -1.61,-0.41z"/>
  <path id="_13_12" class="fil1" d="M14.41 10.09c-0.06,0.08 -0.13,0.17 -0.19,0.28 -0.11,0.19 -0.21,0.39 -0.29,0.61l-0.06 0.16 -0.06 0.16c-0.05,0.15 -0.09,0.25 -0.11,0.33 -0.06,0.14 -0.11,0.24 -0.16,0.31 -0.04,0.05 -0.08,0.08 -0.13,0.1 -0.04,0.02 -0.1,0.03 -0.16,0.02 0.06,-0 0.12,-0.01 0.16,-0.03 0.04,-0.02 0.08,-0.06 0.12,-0.11 0.05,-0.06 0.09,-0.16 0.14,-0.3l0.05 -0.16 0.05 -0.16c0.04,-0.13 0.08,-0.24 0.11,-0.33 0.09,-0.24 0.19,-0.44 0.31,-0.62 0.15,-0.23 0.31,-0.39 0.47,-0.48 -0.09,0.06 -0.16,0.14 -0.24,0.23zm-2.34 0.89c-0.03,0.16 -0.06,0.34 -0.09,0.56l-0.03 0.28 -0.03 0.28c-0.02,-0.56 0.04,-1.05 0.18,-1.49 0.03,-0.09 0.05,-0.16 0.08,-0.23 0.04,-0.09 0.08,-0.17 0.12,-0.23 0.12,-0.17 0.25,-0.25 0.39,-0.24 -0.18,0.02 -0.33,0.16 -0.44,0.42 -0.04,0.1 -0.08,0.21 -0.11,0.35 -0.01,0.05 -0.03,0.1 -0.04,0.16l-0.02 0.08 -0.01 0.04 -0.01 0.03zm3.24 -1.37c-0.29,-0.19 -0.58,-0.17 -0.88,0.05 -0.24,0.18 -0.46,0.47 -0.65,0.86 -0.06,0.13 -0.12,0.28 -0.18,0.44 -0.02,0.06 -0.04,0.13 -0.07,0.22l-0.03 0.1 -0.01 0.05 -0.02 0.05c-0.05,0.14 -0.08,0.24 -0.11,0.29 -0.03,0.07 -0.07,0.11 -0.1,0.11 -0.06,-0.01 -0.09,-0.06 -0.1,-0.15 -0,-0.09 0.01,-0.28 0.05,-0.59 0.08,-0.56 0.04,-0.96 -0.1,-1.19 -0.11,-0.18 -0.3,-0.25 -0.54,-0.22 -0.3,0.04 -0.54,0.35 -0.71,0.92 -0.17,0.55 -0.24,1.23 -0.22,2.03 0.04,1.47 0.44,2.26 1.2,2.37 0.22,0.03 0.44,-0.03 0.66,-0.17 0.21,-0.14 0.38,-0.32 0.52,-0.57 0.13,-0.21 0.24,-0.41 0.33,-0.59 0.03,-0.07 0.06,-0.14 0.09,-0.21 0.02,-0.04 0.04,-0.09 0.06,-0.15 0.04,-0.09 0.06,-0.15 0.07,-0.16 0.02,-0.02 0.04,-0.03 0.07,-0.03 0.03,0.01 0.03,0.12 0.01,0.32l-0.01 0.07 -0.01 0.07c-0.01,0.06 -0.01,0.12 -0.02,0.16 -0.01,0.13 -0.02,0.25 -0.02,0.35 -0.01,0.62 0.19,0.93 0.61,0.93 0.27,-0 0.48,-0.25 0.63,-0.75 0.13,-0.45 0.2,-1.01 0.2,-1.69 0,-0.67 -0.06,-1.27 -0.19,-1.81 -0.14,-0.58 -0.32,-0.95 -0.55,-1.1z"/>
  <path id="_14_13" class="fil1" d="M20.36 13.2c-0.04,0.09 -0.1,0.15 -0.17,0.19 -0.08,0.05 -0.15,0.06 -0.24,0.05 0.08,-0.02 0.15,-0.05 0.21,-0.09 0.06,-0.05 0.11,-0.11 0.14,-0.18 0.06,-0.13 0.07,-0.29 0.03,-0.48 0.04,0.07 0.07,0.16 0.07,0.25 0.01,0.09 -0.01,0.18 -0.05,0.26zm-0.65 -0.23c-0.04,-0.07 -0.05,-0.15 -0.05,-0.22 0.01,-0.07 0.04,-0.13 0.09,-0.16 0.05,-0.03 0.1,-0.03 0.16,0 0.06,0.03 0.12,0.08 0.16,0.16 0.04,0.07 0.05,0.15 0.05,0.22 -0.01,0.07 -0.03,0.13 -0.08,0.16 -0.05,0.03 -0.1,0.03 -0.17,0 -0.06,-0.03 -0.11,-0.08 -0.16,-0.16zm-0.31 -1.59c0.06,-0.02 0.11,-0.04 0.16,-0.07 0.05,-0.03 0.09,-0.07 0.13,-0.11 0.03,-0.04 0.07,-0.09 0.1,-0.14 0.03,-0.05 0.05,-0.1 0.07,-0.16 0.01,0.13 -0.03,0.25 -0.12,0.36 -0.05,0.05 -0.1,0.08 -0.16,0.11 -0.06,0.02 -0.12,0.03 -0.18,0.02zm-0.07 -0.55c0.03,-0.05 0.06,-0.09 0.1,-0.11 0.04,-0.02 0.08,-0.02 0.11,0 0.03,0.02 0.05,0.05 0.05,0.1 0,0.05 -0.01,0.1 -0.03,0.15 -0.03,0.05 -0.06,0.09 -0.1,0.11 -0.04,0.02 -0.08,0.02 -0.11,0 -0.03,-0.02 -0.05,-0.05 -0.05,-0.1 -0,-0.05 0.01,-0.1 0.03,-0.15zm-0.6 -0.68c-0.06,0.06 -0.11,0.14 -0.17,0.23 -0.09,0.15 -0.17,0.32 -0.25,0.53 -0.06,0.17 -0.11,0.36 -0.16,0.58 0.02,-0.2 0.06,-0.4 0.12,-0.6 0.06,-0.2 0.14,-0.39 0.24,-0.56 0.12,-0.19 0.25,-0.34 0.4,-0.43 0.1,-0.06 0.18,-0.1 0.26,-0.12 0.1,-0.02 0.19,-0.03 0.28,-0.03 -0.19,0.02 -0.36,0.08 -0.52,0.2 -0.08,0.06 -0.15,0.12 -0.21,0.19zm1.52 1.46c-0.04,-0.02 -0.05,-0.06 -0.03,-0.13 0.01,-0.02 0.03,-0.06 0.05,-0.11l0.02 -0.03 0.02 -0.03c0.01,-0.03 0.03,-0.05 0.04,-0.08 0.06,-0.14 0.11,-0.27 0.13,-0.4 0.04,-0.18 0.04,-0.37 0.01,-0.56 -0.03,-0.21 -0.15,-0.4 -0.34,-0.55 -0.19,-0.15 -0.42,-0.23 -0.67,-0.24 -0.28,-0.01 -0.53,0.08 -0.77,0.25 -0.27,0.2 -0.48,0.52 -0.63,0.93 -0.16,0.43 -0.25,0.9 -0.26,1.41 -0.01,0.52 0.05,1 0.19,1.43 0.16,0.47 0.39,0.84 0.69,1.09 0.34,0.28 0.75,0.4 1.22,0.37 0.46,-0.03 0.82,-0.19 1.09,-0.48 0.25,-0.26 0.38,-0.59 0.41,-0.98 0.02,-0.38 -0.06,-0.74 -0.26,-1.08 -0.21,-0.37 -0.52,-0.63 -0.92,-0.81z"/>
  <path id="_15_14" class="fil1" d="M24.14 13.29c-0.04,0.07 -0.1,0.12 -0.17,0.16 -0.07,0.04 -0.14,0.05 -0.21,0.03 0.15,-0.03 0.26,-0.1 0.33,-0.23 0.03,-0.05 0.06,-0.12 0.08,-0.19 0.01,-0.07 0.02,-0.14 0.02,-0.23 0.03,0.07 0.04,0.15 0.03,0.23 -0,0.08 -0.03,0.16 -0.07,0.23zm-0.62 -0.3c-0.04,-0.07 -0.05,-0.15 -0.04,-0.22 0.01,-0.07 0.04,-0.13 0.09,-0.15 0.05,-0.03 0.11,-0.02 0.17,0.01 0.06,0.03 0.11,0.09 0.14,0.16 0.04,0.08 0.05,0.15 0.03,0.22 -0.01,0.07 -0.04,0.12 -0.09,0.15 -0.05,0.03 -0.1,0.02 -0.16,-0.01 -0.06,-0.03 -0.11,-0.09 -0.15,-0.16zm-0.33 -3.18c-0.04,0.02 -0.09,0.06 -0.15,0.1 -0.08,0.07 -0.16,0.16 -0.24,0.27 -0.06,0.08 -0.13,0.18 -0.21,0.31 -0.03,0.04 -0.06,0.1 -0.1,0.16l-0.09 0.16c0.05,-0.14 0.1,-0.26 0.14,-0.36 0.06,-0.12 0.13,-0.23 0.2,-0.33 0.09,-0.12 0.18,-0.21 0.27,-0.27 0.12,-0.09 0.23,-0.13 0.34,-0.12 -0.06,0.01 -0.11,0.03 -0.17,0.06zm0.92 1.86c-0.12,-0.04 -0.2,-0.11 -0.23,-0.21 -0.03,-0.08 -0.03,-0.19 -0,-0.35 0,-0.03 0.01,-0.07 0.02,-0.11l0.02 -0.11c0.02,-0.1 0.03,-0.18 0.04,-0.24 0.03,-0.19 0.03,-0.37 0.02,-0.52 -0.03,-0.21 -0.1,-0.38 -0.22,-0.51 -0.13,-0.13 -0.27,-0.18 -0.45,-0.16 -0.19,0.02 -0.38,0.12 -0.56,0.31 -0.21,0.21 -0.41,0.52 -0.58,0.93 -0.18,0.42 -0.29,0.87 -0.35,1.36 -0.05,0.5 -0.03,0.97 0.08,1.39 0.11,0.46 0.31,0.82 0.58,1.08 0.31,0.29 0.7,0.43 1.17,0.42 0.45,-0.01 0.82,-0.15 1.11,-0.44 0.27,-0.26 0.43,-0.59 0.49,-0.99 0.05,-0.4 -0.01,-0.76 -0.2,-1.1 -0.2,-0.36 -0.52,-0.61 -0.94,-0.76zm1.47 -1.77c-0.04,0.04 -0.07,0.09 -0.09,0.15 -0.02,0.05 -0.03,0.11 -0.03,0.18 -0,0.09 0,0.22 0.03,0.38l0.03 0.19 0.03 0.19c-0.05,-0.14 -0.09,-0.26 -0.12,-0.37 -0.03,-0.15 -0.05,-0.28 -0.05,-0.39 0.01,-0.08 0.02,-0.14 0.04,-0.2 0.03,-0.07 0.07,-0.13 0.11,-0.17 0.1,-0.08 0.21,-0.11 0.35,-0.1 -0.13,0.02 -0.24,0.06 -0.31,0.14zm1.24 0.21c-0.1,-0.2 -0.23,-0.36 -0.39,-0.48 -0.14,-0.1 -0.3,-0.16 -0.46,-0.17 -0.16,-0.01 -0.3,0.02 -0.43,0.09 -0.13,0.07 -0.23,0.17 -0.29,0.3 -0.11,0.24 -0.11,0.59 0.01,1.06 0.02,0.07 0.04,0.17 0.08,0.29l0.04 0.15 0.04 0.15c0.06,0.23 0.1,0.43 0.12,0.58 0.04,0.37 0.06,0.75 0.05,1.15 -0,0.12 -0.01,0.27 -0.02,0.44l-0 0.1 -0 0.1c-0,0.07 -0.01,0.13 -0.01,0.18 -0.01,0.24 0.01,0.41 0.04,0.51 0.04,0.13 0.13,0.21 0.26,0.24 0.26,0.06 0.49,-0.08 0.69,-0.44 0.18,-0.32 0.32,-0.76 0.42,-1.33 0.09,-0.54 0.13,-1.08 0.11,-1.61 -0.02,-0.56 -0.11,-0.99 -0.26,-1.29z"/>
  <path id="_16_15" class="fil1" d="M28.72 9.95c-0.02,0.01 -0.05,0.02 -0.07,0.04l-0.07 0.04 -0.07 0.04c-0.03,0.02 -0.05,0.03 -0.07,0.05 -0.08,0.05 -0.16,0.13 -0.25,0.21 -0.1,0.1 -0.16,0.19 -0.2,0.26 -0.12,0.18 -0.19,0.39 -0.23,0.64 -0.01,0.05 -0.02,0.11 -0.02,0.17l-0.01 0.18c-0,0.05 -0.01,0.11 -0.01,0.18l-0 0.18c-0.03,-0.25 -0.03,-0.49 -0.01,-0.71 0.02,-0.25 0.1,-0.47 0.22,-0.67l0.05 -0.07 0.05 -0.07c0.01,-0.02 0.03,-0.04 0.05,-0.07l0.03 -0.03 0.03 -0.03c0.11,-0.1 0.19,-0.17 0.26,-0.21 0.18,-0.12 0.39,-0.2 0.61,-0.24l-0.08 0.03 -0.08 0.03c-0.06,0.02 -0.1,0.04 -0.15,0.07zm2.48 0.72c-0.2,-0.46 -0.5,-0.79 -0.91,-1 -0.38,-0.19 -0.78,-0.24 -1.21,-0.16 -0.43,0.08 -0.79,0.26 -1.09,0.56 -0.32,0.32 -0.5,0.72 -0.54,1.18 -0.08,0.87 0.05,1.72 0.37,2.55 0.14,0.37 0.31,0.66 0.49,0.87 0.19,0.22 0.38,0.32 0.56,0.29 0.26,-0.04 0.42,-0.2 0.48,-0.5 0.06,-0.34 0.02,-0.91 -0.12,-1.74 -0.11,-0.65 -0.05,-1 0.2,-1.03 0.14,-0.02 0.25,0.1 0.33,0.34 0.07,0.23 0.1,0.52 0.09,0.87 -0.03,0.78 0.05,1.32 0.23,1.63 0.13,0.23 0.33,0.34 0.6,0.32 0.22,-0.01 0.41,-0.17 0.56,-0.46 0.14,-0.27 0.24,-0.63 0.29,-1.07 0.05,-0.44 0.05,-0.9 0,-1.36 -0.06,-0.49 -0.17,-0.92 -0.33,-1.3z"/>
  <path id="_17_16" class="fil1" d="M35.17 9.87c-0.05,0.05 -0.09,0.1 -0.14,0.18 -0.07,0.1 -0.15,0.23 -0.24,0.4l-0.06 0.1 -0.06 0.1c-0.04,0.08 -0.09,0.15 -0.12,0.2 -0.06,0.08 -0.1,0.14 -0.15,0.18 -0.07,0.06 -0.13,0.1 -0.2,0.11 0.07,-0.03 0.12,-0.08 0.17,-0.14 0.04,-0.05 0.08,-0.11 0.13,-0.19 0.03,-0.05 0.06,-0.12 0.11,-0.21l0.11 -0.2c0.1,-0.17 0.18,-0.3 0.25,-0.4 0.06,-0.07 0.11,-0.13 0.16,-0.17 0.08,-0.06 0.15,-0.09 0.2,-0.08 -0.06,0.01 -0.12,0.05 -0.18,0.12zm-2.27 3.44c-0.06,0.05 -0.1,0.09 -0.14,0.12 -0.11,0.09 -0.19,0.17 -0.25,0.25 -0.03,0.05 -0.06,0.11 -0.09,0.16 -0.02,0.05 -0.04,0.11 -0.05,0.18 -0,-0.06 0,-0.13 0.02,-0.19 0.02,-0.06 0.04,-0.12 0.08,-0.18 0.05,-0.09 0.14,-0.18 0.25,-0.28 0.08,-0.06 0.18,-0.13 0.3,-0.21l0.08 -0.05 0.07 -0.05c0.06,-0.04 0.11,-0.07 0.15,-0.1 -0.06,0.08 -0.15,0.16 -0.27,0.25l-0.14 0.11zm-0.6 -3.11c-0.03,0.05 -0.06,0.11 -0.08,0.18 -0.02,0.06 -0.03,0.13 -0.03,0.21 -0.03,-0.07 -0.04,-0.14 -0.03,-0.22 0.01,-0.08 0.03,-0.15 0.08,-0.22 0.04,-0.07 0.1,-0.12 0.17,-0.15 0.07,-0.03 0.14,-0.04 0.21,-0.03 -0.14,0.03 -0.25,0.1 -0.32,0.22zm3.05 -0.74c-0.14,0 -0.28,0.07 -0.42,0.22 -0.1,0.11 -0.22,0.27 -0.34,0.48l-0.07 0.13 -0.04 0.06 -0.03 0.06c-0.06,0.1 -0.1,0.18 -0.13,0.22 -0.09,0.15 -0.16,0.22 -0.21,0.22 -0.05,0 -0.17,-0.1 -0.34,-0.3l-0.03 -0.04 -0.03 -0.04c-0.02,-0.03 -0.04,-0.05 -0.06,-0.07 -0.05,-0.06 -0.1,-0.11 -0.14,-0.16 -0.11,-0.12 -0.23,-0.24 -0.34,-0.33 -0.18,-0.16 -0.36,-0.23 -0.55,-0.23 -0.17,0 -0.33,0.06 -0.45,0.19 -0.13,0.13 -0.21,0.28 -0.24,0.47 -0.03,0.2 0.01,0.4 0.11,0.6 0.08,0.14 0.19,0.3 0.33,0.46 0.06,0.06 0.12,0.13 0.2,0.2l0.1 0.1 0.1 0.09c0.16,0.15 0.28,0.27 0.34,0.35 0.1,0.12 0.15,0.22 0.16,0.31 0.01,0.1 -0.05,0.2 -0.16,0.3 -0.04,0.04 -0.1,0.09 -0.18,0.14l-0.05 0.03 -0.05 0.04 -0.11 0.08c-0.18,0.13 -0.32,0.26 -0.41,0.38 -0.13,0.17 -0.19,0.36 -0.2,0.57 -0.01,0.16 0.02,0.31 0.08,0.45 0.06,0.14 0.15,0.25 0.27,0.33 0.26,0.19 0.59,0.22 0.98,0.09 0.52,-0.17 1.05,-0.66 1.57,-1.47 0.47,-0.72 0.77,-1.41 0.9,-2.07 0.13,-0.67 0.14,-1.16 0.02,-1.48 -0.1,-0.27 -0.29,-0.4 -0.56,-0.4z"/>
  <path id="_18_17" class="fil1" d="M39.33 12.8c-0.02,0.01 -0.05,0.03 -0.07,0.06l-0.04 0.03 -0.04 0.03c-0.06,0.05 -0.13,0.08 -0.18,0.09 -0.07,0.02 -0.14,0.02 -0.2,0.01 0.12,-0.03 0.23,-0.08 0.34,-0.16l0.04 -0.03 0.04 -0.03c0.03,-0.02 0.07,-0.04 0.09,-0.05 0.07,-0.03 0.14,-0.04 0.2,-0.03 -0.06,0.01 -0.12,0.04 -0.18,0.08zm-2.04 -2.54c-0.12,0.14 -0.23,0.3 -0.33,0.48 -0.08,0.16 -0.16,0.34 -0.23,0.56 0.04,-0.2 0.1,-0.4 0.18,-0.59 0.08,-0.19 0.19,-0.36 0.32,-0.51 0.14,-0.16 0.3,-0.28 0.47,-0.35 0.1,-0.04 0.19,-0.06 0.28,-0.08 0.1,-0.02 0.2,-0.02 0.28,-0.01 -0.2,0.02 -0.39,0.06 -0.54,0.14 -0.17,0.09 -0.32,0.21 -0.44,0.35zm2.8 2.95c-0.03,-0.4 -0.16,-0.64 -0.39,-0.74 -0.1,-0.04 -0.21,-0.05 -0.32,-0.02 -0.12,0.03 -0.23,0.09 -0.33,0.17 -0.1,0.08 -0.21,0.12 -0.32,0.11 -0.1,-0.01 -0.2,-0.06 -0.29,-0.16 -0.09,-0.1 -0.15,-0.22 -0.19,-0.37 -0.04,-0.17 -0.05,-0.35 -0.02,-0.54 0.04,-0.28 0.16,-0.44 0.37,-0.47 0.15,-0.02 0.37,0.02 0.64,0.12 0.12,0.05 0.23,0.04 0.33,-0.01 0.1,-0.05 0.17,-0.13 0.22,-0.24 0.05,-0.12 0.06,-0.25 0.04,-0.4 -0.02,-0.16 -0.08,-0.31 -0.18,-0.46 -0.21,-0.31 -0.49,-0.52 -0.84,-0.64 -0.32,-0.11 -0.64,-0.12 -0.97,-0.03 -0.42,0.11 -0.76,0.4 -1.04,0.87 -0.3,0.51 -0.45,1.15 -0.45,1.91 0,0.86 0.2,1.53 0.61,2.02 0.19,0.23 0.42,0.4 0.68,0.51 0.26,0.11 0.54,0.15 0.84,0.12 0.51,-0.05 0.92,-0.24 1.22,-0.59 0.29,-0.33 0.42,-0.72 0.38,-1.15z"/>
  <path id="_19_18" class="fil1" d="M42.8 10.67c-0.1,0.13 -0.19,0.24 -0.28,0.33 -0.12,0.11 -0.23,0.19 -0.34,0.24 0.09,-0.06 0.19,-0.15 0.31,-0.28 0.09,-0.1 0.18,-0.21 0.26,-0.33 0.04,-0.06 0.08,-0.12 0.12,-0.17l0.03 -0.05 0.03 -0.04c0.02,-0.04 0.04,-0.07 0.06,-0.09 0.05,-0.06 0.1,-0.1 0.17,-0.14 0.07,-0.04 0.14,-0.05 0.2,-0.04 -0.12,0.01 -0.23,0.08 -0.32,0.22 -0.02,0.02 -0.03,0.05 -0.06,0.09l-0.03 0.05 -0.03 0.05c-0.03,0.05 -0.07,0.11 -0.12,0.18zm-1.39 -0.84c-0.05,0.03 -0.09,0.08 -0.13,0.13 -0.06,0.08 -0.12,0.19 -0.18,0.34 -0.04,0.09 -0.08,0.22 -0.13,0.38l-0.05 0.2 -0.05 0.19c0.01,-0.16 0.03,-0.29 0.06,-0.41 0.03,-0.14 0.07,-0.27 0.12,-0.39 0.06,-0.15 0.13,-0.27 0.2,-0.35 0.05,-0.05 0.1,-0.1 0.16,-0.13 0.06,-0.03 0.13,-0.04 0.19,-0.04 -0.06,0.01 -0.12,0.03 -0.17,0.07zm1.58 2.22c-0.09,-0.06 -0.12,-0.11 -0.07,-0.15 0.02,-0.02 0.06,-0.04 0.11,-0.07l0.04 -0.02 0.04 -0.02c0.04,-0.02 0.07,-0.03 0.1,-0.05 0.18,-0.09 0.32,-0.2 0.43,-0.31 0.16,-0.16 0.28,-0.35 0.34,-0.58 0.06,-0.21 0.06,-0.4 -0.01,-0.59 -0.06,-0.17 -0.17,-0.3 -0.32,-0.38 -0.15,-0.08 -0.3,-0.1 -0.46,-0.05 -0.18,0.05 -0.33,0.18 -0.46,0.39 -0.21,0.35 -0.42,0.59 -0.61,0.73 -0.08,0.05 -0.13,0.07 -0.16,0.05 -0.03,-0.03 -0.02,-0.09 0.02,-0.18 0.17,-0.38 0.22,-0.7 0.16,-0.94 -0.05,-0.2 -0.18,-0.32 -0.37,-0.38 -0.4,-0.1 -0.71,0.11 -0.93,0.65 -0.18,0.43 -0.29,1.05 -0.34,1.88 -0.05,0.83 -0.02,1.49 0.1,1.99 0.15,0.61 0.41,0.91 0.78,0.89 0.35,-0.01 0.55,-0.29 0.6,-0.83 0.02,-0.18 0.02,-0.39 0,-0.61 -0.01,-0.08 -0.02,-0.16 -0.03,-0.24 -0,-0.03 -0.01,-0.06 -0.01,-0.09l-0 -0.04 -0 -0.02 0 -0.01c-0.01,-0.07 -0,-0.12 0.02,-0.14 0.03,-0.02 0.07,-0.01 0.12,0.03 0.13,0.12 0.25,0.41 0.36,0.88 0.07,0.3 0.18,0.54 0.32,0.74 0.13,0.17 0.28,0.29 0.44,0.35 0.16,0.05 0.31,0.05 0.46,-0.01 0.15,-0.06 0.28,-0.18 0.38,-0.34 0.11,-0.18 0.17,-0.39 0.18,-0.62 0,-0.22 -0.04,-0.45 -0.14,-0.69 -0.21,-0.5 -0.57,-0.9 -1.09,-1.21z"/>
  <path id="_20_19" class="fil1" d="M2.35 10.81c0.02,0.2 0,0.37 -0.04,0.51 -0.03,0.09 -0.07,0.17 -0.12,0.23 -0.06,0.07 -0.12,0.11 -0.19,0.14 0.13,-0.08 0.22,-0.21 0.26,-0.39 0.03,-0.14 0.04,-0.3 0.02,-0.49 -0.01,-0.19 -0.02,-0.36 -0.01,-0.51 0.01,-0.1 0.02,-0.18 0.04,-0.25 0.03,-0.1 0.06,-0.18 0.1,-0.23 -0.04,0.06 -0.06,0.14 -0.07,0.23 -0.01,0.07 -0.02,0.16 -0.02,0.25 0,0.16 0.01,0.33 0.02,0.5zm-1.69 -0.79c-0.05,0.08 -0.1,0.17 -0.14,0.28 -0.03,0.07 -0.06,0.16 -0.1,0.3l-0.04 0.16 -0.04 0.15c0,-0.12 0.01,-0.23 0.03,-0.32 0.02,-0.12 0.05,-0.22 0.09,-0.32 0.05,-0.12 0.1,-0.21 0.16,-0.28 0.04,-0.05 0.09,-0.09 0.12,-0.11 0.05,-0.03 0.1,-0.04 0.15,-0.04 -0.07,0.01 -0.15,0.07 -0.23,0.18zm3.01 1.97c-0.02,-0.77 -0.11,-1.37 -0.27,-1.8 -0.19,-0.49 -0.47,-0.73 -0.83,-0.72 -0.42,0.01 -0.6,0.47 -0.52,1.38 0.02,0.2 -0,0.36 -0.05,0.46 -0.05,0.09 -0.12,0.14 -0.22,0.14 -0.11,-0 -0.19,-0.05 -0.23,-0.14 -0.05,-0.09 -0.07,-0.23 -0.06,-0.43 0.02,-0.49 -0.02,-0.84 -0.12,-1.04 -0.09,-0.19 -0.25,-0.29 -0.47,-0.29 -0.2,0 -0.37,0.12 -0.52,0.37 -0.15,0.24 -0.24,0.56 -0.29,0.95 -0.06,0.43 -0.05,0.81 0.02,1.12 0.05,0.26 0.16,0.49 0.31,0.71 0.16,0.23 0.4,0.36 0.71,0.38 0.1,0.01 0.21,0.01 0.34,-0 0.02,-0 0.04,-0.01 0.07,-0.01l0.03 -0 0.03 -0c0.05,-0.01 0.08,-0.01 0.1,-0.01 0.1,-0.01 0.17,0.03 0.23,0.12 0.08,0.11 0.12,0.3 0.12,0.55 0,0.42 0.08,0.74 0.22,0.95 0.13,0.19 0.31,0.29 0.54,0.3 0.63,0.02 0.93,-0.97 0.88,-2.97z"/>
  <g id="_1413770048">
   <path class="fil0" d="M13.26 8.66c-0.03,0.03 -0.06,0.08 -0.08,0.13 -0.01,-0.06 0.01,-0.11 0.05,-0.16 0.02,-0.02 0.04,-0.04 0.07,-0.05 0.03,-0.01 0.06,-0.01 0.08,-0.01 -0.05,0.01 -0.09,0.04 -0.13,0.08zm0.13 -0.21c-0.08,0 -0.16,0.03 -0.22,0.1 -0.06,0.06 -0.1,0.14 -0.11,0.23 -0.01,0.09 0,0.17 0.05,0.25 0.05,0.08 0.11,0.13 0.19,0.15 0.09,0.03 0.18,0.01 0.26,-0.05 0.08,-0.06 0.13,-0.15 0.15,-0.26 0.02,-0.11 -0.01,-0.21 -0.07,-0.29 -0.06,-0.08 -0.14,-0.12 -0.24,-0.12z"/>
   <path id="_1_20" class="fil0" d="M14.73 8.66c-0.03,0.03 -0.06,0.08 -0.08,0.13 -0.01,-0.06 0.01,-0.11 0.05,-0.16 0.02,-0.02 0.04,-0.04 0.07,-0.05 0.03,-0.01 0.06,-0.01 0.08,-0.01 -0.05,0.01 -0.09,0.04 -0.13,0.08zm0.13 -0.21c-0.08,0 -0.16,0.03 -0.22,0.1 -0.06,0.06 -0.1,0.14 -0.11,0.23 -0.01,0.09 0,0.17 0.05,0.25 0.05,0.08 0.11,0.13 0.19,0.15 0.09,0.03 0.18,0.01 0.26,-0.05 0.08,-0.06 0.13,-0.15 0.15,-0.26 0.02,-0.11 -0.01,-0.21 -0.07,-0.29 -0.06,-0.08 -0.14,-0.12 -0.24,-0.12z"/>
   <path class="fil1" d="M13.21 8.5c-0.03,0.03 -0.06,0.08 -0.08,0.13 -0.01,-0.06 0.01,-0.11 0.05,-0.16 0.02,-0.02 0.04,-0.04 0.07,-0.05 0.03,-0.01 0.06,-0.01 0.08,-0.01 -0.05,0.01 -0.09,0.04 -0.13,0.08zm0.13 -0.21c-0.08,0 -0.16,0.03 -0.22,0.1 -0.06,0.06 -0.1,0.14 -0.11,0.23 -0.01,0.09 0,0.17 0.05,0.25 0.05,0.08 0.11,0.13 0.19,0.15 0.09,0.03 0.18,0.01 0.26,-0.05 0.08,-0.06 0.13,-0.15 0.15,-0.26 0.01,-0.11 -0.01,-0.21 -0.07,-0.29 -0.06,-0.08 -0.14,-0.12 -0.24,-0.12z"/>
   <path id="_1_21" class="fil1" d="M14.69 8.5c-0.03,0.03 -0.06,0.08 -0.08,0.13 -0.01,-0.06 0.01,-0.11 0.05,-0.16 0.02,-0.02 0.04,-0.04 0.07,-0.05 0.03,-0.01 0.06,-0.01 0.08,-0.01 -0.05,0.01 -0.09,0.04 -0.13,0.08zm0.13 -0.21c-0.08,0 -0.16,0.03 -0.22,0.1 -0.06,0.06 -0.1,0.14 -0.11,0.23 -0.01,0.09 0,0.17 0.05,0.25 0.05,0.08 0.11,0.13 0.19,0.15 0.09,0.03 0.18,0.01 0.26,-0.05 0.08,-0.06 0.13,-0.15 0.15,-0.26 0.01,-0.11 -0.01,-0.21 -0.07,-0.29 -0.06,-0.08 -0.14,-0.12 -0.24,-0.12z"/>
  </g>
  <g id="_1413769616">
   <path class="fil0" d="M25.25 0.37c-0.03,0.03 -0.06,0.08 -0.08,0.13 -0.01,-0.06 0.01,-0.11 0.05,-0.16 0.02,-0.02 0.04,-0.04 0.07,-0.05 0.03,-0.01 0.06,-0.01 0.08,-0.01 -0.05,0.01 -0.09,0.04 -0.13,0.08zm0.13 -0.21c-0.08,0 -0.16,0.03 -0.22,0.1 -0.06,0.06 -0.1,0.14 -0.11,0.23 -0.01,0.09 0,0.17 0.05,0.25 0.05,0.08 0.11,0.13 0.19,0.15 0.09,0.03 0.18,0.01 0.26,-0.05 0.08,-0.06 0.13,-0.15 0.15,-0.26 0.01,-0.11 -0.01,-0.21 -0.07,-0.29 -0.06,-0.08 -0.14,-0.12 -0.24,-0.12z"/>
   <path id="_1_22" class="fil0" d="M26.73 0.37c-0.03,0.03 -0.06,0.08 -0.08,0.13 -0.01,-0.06 0.01,-0.11 0.05,-0.16 0.02,-0.02 0.04,-0.04 0.07,-0.05 0.03,-0.01 0.06,-0.01 0.08,-0.01 -0.05,0.01 -0.09,0.04 -0.13,0.08zm0.13 -0.21c-0.08,0 -0.16,0.03 -0.22,0.1 -0.06,0.06 -0.1,0.14 -0.11,0.23 -0.01,0.09 0,0.17 0.05,0.25 0.05,0.08 0.11,0.13 0.19,0.15 0.09,0.03 0.18,0.01 0.26,-0.05 0.08,-0.06 0.13,-0.15 0.15,-0.26 0.01,-0.11 -0.01,-0.21 -0.07,-0.29 -0.06,-0.08 -0.14,-0.12 -0.24,-0.12z"/>
   <path class="fil1" d="M25.2 0.21c-0.03,0.03 -0.06,0.08 -0.08,0.13 -0.01,-0.06 0.01,-0.11 0.05,-0.16 0.02,-0.02 0.04,-0.04 0.07,-0.05 0.03,-0.01 0.06,-0.01 0.08,-0.01 -0.05,0.01 -0.09,0.04 -0.13,0.08zm0.13 -0.21c-0.08,0 -0.16,0.03 -0.22,0.1 -0.06,0.06 -0.1,0.14 -0.11,0.23 -0.01,0.09 0,0.17 0.05,0.25 0.05,0.08 0.11,0.13 0.19,0.15 0.09,0.03 0.18,0.01 0.26,-0.05 0.08,-0.06 0.13,-0.15 0.15,-0.26 0.02,-0.11 -0.01,-0.21 -0.07,-0.29 -0.06,-0.08 -0.14,-0.12 -0.24,-0.12z"/>
   <path id="_1_23" class="fil1" d="M26.68 0.21c-0.03,0.03 -0.06,0.08 -0.08,0.13 -0.01,-0.06 0.01,-0.11 0.05,-0.16 0.02,-0.02 0.04,-0.04 0.07,-0.05 0.03,-0.01 0.06,-0.01 0.08,-0.01 -0.05,0.01 -0.09,0.04 -0.13,0.08zm0.13 -0.21c-0.08,0 -0.16,0.03 -0.22,0.1 -0.06,0.06 -0.1,0.14 -0.11,0.23 -0.01,0.09 0,0.17 0.05,0.25 0.05,0.08 0.11,0.13 0.19,0.15 0.09,0.03 0.18,0.01 0.26,-0.05 0.08,-0.06 0.13,-0.15 0.15,-0.26 0.02,-0.11 -0.01,-0.21 -0.07,-0.29 -0.06,-0.08 -0.14,-0.12 -0.24,-0.12z"/>
  </g>
 </g>
</svg>
