<?xml version="1.0" encoding="UTF-8"?>
<!DOCTYPE svg PUBLIC "-//W3C//DTD SVG 1.1//EN" "http://www.w3.org/Graphics/SVG/1.1/DTD/svg11.dtd">
<!-- Creator: CorelDRAW 2019 (64-Bit) -->
<svg xmlns="http://www.w3.org/2000/svg" xml:space="preserve" width="1.79139cm" height="0.93881cm" version="1.1" style="shape-rendering:geometricPrecision; text-rendering:geometricPrecision; image-rendering:optimizeQuality; fill-rule:evenodd; clip-rule:evenodd"
viewBox="0 0 1.338 0.701"
 xmlns:xlink="http://www.w3.org/1999/xlink"
 xmlns:xodm="http://www.corel.com/coreldraw/odm/2003">
 <defs>
  <style type="text/css">
   <![CDATA[
    .fil0 {fill:#A39F6B;fill-rule:nonzero}
   ]]>
  </style>
 </defs>
 <g id="Слой_x0020_1">
  <metadata id="CorelCorpID_0Corel-Layer"/>
  <g id="_1750687985232">
   <path class="fil0" d="M0.171 0.299c-0,0 -0.001,0.001 -0.001,0.002l-0.001 0.001 -0.001 0.001c-0.001,0.001 -0.003,0.003 -0.004,0.003 -0.002,0.001 -0.003,0.001 -0.005,0.001 0.003,-0.001 0.005,-0.003 0.007,-0.006l0.001 -0.001 0.001 -0.001c0.001,-0.001 0.001,-0.001 0.002,-0.002 0.002,-0.001 0.003,-0.002 0.005,-0.002 -0.001,0.001 -0.003,0.002 -0.004,0.003zm-0.063 -0.05c-0.002,0.004 -0.004,0.008 -0.005,0.013 -0.001,0.004 -0.002,0.009 -0.002,0.015 -0,-0.005 0,-0.01 0.001,-0.015 0.001,-0.005 0.003,-0.01 0.005,-0.014 0.002,-0.005 0.006,-0.008 0.009,-0.011 0.002,-0.001 0.004,-0.003 0.006,-0.003 0.002,-0.001 0.005,-0.002 0.007,-0.002 -0.005,0.002 -0.009,0.004 -0.012,0.006 -0.004,0.003 -0.006,0.007 -0.009,0.011zm0.083 0.055c-0.003,-0.009 -0.007,-0.014 -0.014,-0.016 -0.003,-0 -0.005,-0 -0.008,0.001 -0.003,0.001 -0.005,0.003 -0.007,0.006 -0.002,0.003 -0.004,0.004 -0.007,0.004 -0.003,0 -0.005,-0 -0.008,-0.002 -0.003,-0.002 -0.005,-0.004 -0.007,-0.008 -0.002,-0.004 -0.003,-0.008 -0.004,-0.013 -0.001,-0.007 0.001,-0.011 0.006,-0.013 0.004,-0.001 0.009,-0.002 0.016,-0.001 0.003,0 0.006,-0 0.008,-0.002 0.002,-0.002 0.003,-0.004 0.004,-0.007 0.001,-0.003 0,-0.006 -0.001,-0.01 -0.001,-0.004 -0.004,-0.007 -0.007,-0.01 -0.007,-0.006 -0.015,-0.01 -0.024,-0.011 -0.008,-0.001 -0.016,0.001 -0.023,0.005 -0.009,0.005 -0.016,0.014 -0.02,0.027 -0.004,0.014 -0.004,0.03 -0,0.048 0.005,0.021 0.013,0.036 0.026,0.045 0.006,0.004 0.012,0.007 0.019,0.008 0.007,0.001 0.014,0.001 0.021,-0.002 0.012,-0.004 0.021,-0.011 0.026,-0.021 0.005,-0.01 0.006,-0.019 0.003,-0.03zm0.051 -0.076c-0.002,0.004 -0.003,0.007 -0.005,0.009 -0.002,0.003 -0.004,0.006 -0.007,0.008 0.002,-0.002 0.004,-0.005 0.006,-0.008 0.002,-0.003 0.003,-0.006 0.005,-0.009 0.001,-0.002 0.001,-0.003 0.002,-0.005l0.001 -0.001 0 -0.001c0,-0.001 0.001,-0.002 0.001,-0.003 0.001,-0.002 0.002,-0.003 0.003,-0.004 0.001,-0.001 0.003,-0.002 0.005,-0.002 -0.003,0.001 -0.005,0.003 -0.007,0.007 -0,0.001 -0.001,0.001 -0.001,0.002l-0 0.001 -0 0.001c-0.001,0.001 -0.001,0.003 -0.002,0.005zm-0.038 -0.012c-0.001,0.001 -0.002,0.002 -0.002,0.004 -0.001,0.002 -0.002,0.005 -0.002,0.009 -0,0.002 -0.001,0.006 -0.001,0.01l-0 0.005 -0 0.005c-0.001,-0.004 -0.001,-0.007 -0.001,-0.01 -0,-0.004 0,-0.007 0.001,-0.01 0.001,-0.004 0.002,-0.007 0.003,-0.01 0.001,-0.002 0.002,-0.003 0.003,-0.004 0.001,-0.001 0.003,-0.002 0.004,-0.002 -0.001,0.001 -0.003,0.001 -0.004,0.003zm0.05 0.044c-0.003,-0.001 -0.003,-0.002 -0.002,-0.003 0,-0.001 0.001,-0.001 0.002,-0.002l0.001 -0.001 0.001 -0.001c0.001,-0.001 0.002,-0.001 0.002,-0.002 0.004,-0.003 0.007,-0.006 0.009,-0.01 0.003,-0.005 0.005,-0.01 0.005,-0.016 0,-0.005 -0.001,-0.01 -0.004,-0.014 -0.002,-0.004 -0.006,-0.006 -0.01,-0.007 -0.004,-0.001 -0.008,-0.001 -0.011,0.001 -0.004,0.002 -0.007,0.006 -0.009,0.012 -0.003,0.01 -0.007,0.016 -0.011,0.021 -0.002,0.002 -0.003,0.002 -0.004,0.002 -0.001,-0 -0.001,-0.002 -0,-0.004 0.002,-0.01 0.001,-0.018 -0.001,-0.023 -0.002,-0.004 -0.006,-0.007 -0.011,-0.007 -0.01,-0 -0.016,0.007 -0.019,0.021 -0.002,0.011 -0.001,0.027 0.002,0.047 0.003,0.02 0.008,0.036 0.013,0.047 0.007,0.014 0.015,0.019 0.024,0.017 0.008,-0.002 0.011,-0.01 0.01,-0.023 -0.001,-0.004 -0.002,-0.009 -0.003,-0.015 -0.001,-0.002 -0.001,-0.004 -0.002,-0.006 -0,-0.001 -0,-0.001 -0.001,-0.002l-0 -0.001 -0 -0 -0 -0c-0.001,-0.002 -0.001,-0.003 -0,-0.004 0.001,-0.001 0.002,-0.001 0.003,0 0.004,0.002 0.008,0.008 0.014,0.019 0.003,0.007 0.007,0.012 0.012,0.016 0.004,0.003 0.008,0.005 0.012,0.006 0.004,0 0.008,-0 0.011,-0.003 0.003,-0.002 0.006,-0.006 0.007,-0.01 0.002,-0.005 0.002,-0.01 0.001,-0.016 -0.001,-0.005 -0.003,-0.011 -0.007,-0.016 -0.008,-0.011 -0.019,-0.018 -0.033,-0.023zm0.102 0.006c-0.001,0.002 -0.002,0.003 -0.003,0.005 -0.001,0.001 -0.003,0.002 -0.005,0.002 0.003,-0.002 0.005,-0.005 0.006,-0.008 0.001,-0.003 0.002,-0.006 0.001,-0.01 0.002,0.004 0.002,0.007 0,0.011zm-0.02 -0.005c-0.001,-0.002 -0.001,-0.004 -0,-0.007 0.001,-0.002 0.002,-0.003 0.003,-0.004 0.002,-0.001 0.004,-0.001 0.005,0.001 0.002,0.001 0.003,0.003 0.004,0.005 0.001,0.002 0.001,0.004 0,0.006 -0.001,0.002 -0.002,0.004 -0.003,0.004 -0.002,0.001 -0.004,0.001 -0.005,-0.001 -0.002,-0.001 -0.003,-0.003 -0.004,-0.005zm-0.021 -0.069c-0.004,0.003 -0.007,0.006 -0.01,0.011 -0.002,0.004 -0.004,0.008 -0.006,0.014l-0 0.002 -0 0.002 -0.001 0.004 -0.001 0.004 -0 0.004c-0,-0.005 0,-0.011 0.001,-0.016 0.001,-0.005 0.003,-0.01 0.006,-0.014 0.003,-0.005 0.006,-0.008 0.01,-0.011 0.002,-0.001 0.004,-0.002 0.006,-0.003l0.002 -0.001 0.002 -0 0.004 -0.001c-0.005,0.002 -0.009,0.004 -0.013,0.006zm0.026 -0.015c-0.018,-0.001 -0.032,0.006 -0.041,0.019 -0.008,0.012 -0.011,0.027 -0.01,0.045 0.002,0.018 0.007,0.033 0.017,0.047 0.01,0.014 0.023,0.022 0.037,0.023 0.014,0.001 0.025,-0.006 0.034,-0.019 0.008,-0.012 0.012,-0.028 0.013,-0.046 0,-0.018 -0.003,-0.034 -0.011,-0.047 -0.009,-0.014 -0.022,-0.022 -0.038,-0.022zm0.112 0.03c-0,0.002 -0.001,0.004 -0.002,0.005 -0.001,0.002 -0.002,0.003 -0.004,0.004 -0.002,0.001 -0.003,0.002 -0.005,0.002 0.002,-0.001 0.003,-0.002 0.004,-0.003 0.001,-0.001 0.002,-0.003 0.003,-0.004 0.002,-0.003 0.003,-0.006 0.003,-0.01 0.001,0.002 0.001,0.004 0,0.006zm-0.017 -0.004c0,-0.002 0.001,-0.004 0.003,-0.005 0.001,-0.001 0.003,-0.002 0.004,-0.001 0.001,0 0.002,0.001 0.003,0.003 0.001,0.002 0.001,0.004 0,0.006 -0,0.002 -0.001,0.004 -0.002,0.005 -0.001,0.001 -0.003,0.001 -0.004,0.001 -0.001,-0 -0.002,-0.001 -0.003,-0.003 -0.001,-0.002 -0.001,-0.004 -0,-0.006zm-0.021 -0.033c-0.003,0.003 -0.006,0.006 -0.008,0.01 -0.002,0.004 -0.003,0.008 -0.004,0.013 -0.001,0.004 -0.001,0.008 -0.001,0.014 -0,-0.002 -0,-0.004 -0,-0.007 0,-0.002 0,-0.005 0.001,-0.007 0.001,-0.005 0.002,-0.009 0.004,-0.013 0.002,-0.004 0.005,-0.008 0.009,-0.01 0.002,-0.001 0.004,-0.002 0.006,-0.003 0.002,-0.001 0.004,-0.002 0.006,-0.002 -0.004,0.002 -0.008,0.004 -0.011,0.006zm0.013 -0.014c-0.011,0.002 -0.02,0.008 -0.026,0.017 -0.005,0.008 -0.008,0.017 -0.008,0.029 -0,0.011 0.002,0.022 0.006,0.034 0.004,0.011 0.009,0.022 0.016,0.031 0.006,0.009 0.013,0.015 0.019,0.019 0.006,0.004 0.011,0.005 0.015,0.004 0.004,-0.001 0.007,-0.003 0.01,-0.006 0.002,-0.004 0.003,-0.008 0.002,-0.014 -0,-0.004 -0.001,-0.008 -0.003,-0.012 -0.001,-0.001 -0.001,-0.003 -0.002,-0.005l-0.001 -0.002c-0,-0.001 -0.001,-0.002 -0.001,-0.002 -0.001,-0.003 -0.002,-0.006 -0.002,-0.008 0,-0.003 0.001,-0.005 0.004,-0.007 0.008,-0.007 0.013,-0.015 0.016,-0.025 0.002,-0.009 0.002,-0.018 -0.001,-0.027 -0.003,-0.009 -0.008,-0.016 -0.016,-0.02 -0.008,-0.005 -0.018,-0.006 -0.028,-0.004zm0.124 0.067c-0.001,0.002 -0.002,0.003 -0.003,0.005 -0.001,0.001 -0.003,0.002 -0.005,0.002 0.003,-0.002 0.005,-0.005 0.006,-0.008 0.001,-0.003 0.002,-0.006 0.001,-0.01 0.002,0.004 0.002,0.007 0,0.011zm-0.02 -0.005c-0.001,-0.002 -0.001,-0.004 -0,-0.007 0.001,-0.002 0.002,-0.003 0.003,-0.004 0.002,-0.001 0.004,-0.001 0.005,0.001 0.002,0.001 0.003,0.003 0.004,0.005 0.001,0.002 0.001,0.004 0,0.006 -0.001,0.002 -0.002,0.004 -0.003,0.004 -0.002,0.001 -0.004,0.001 -0.005,-0.001 -0.002,-0.001 -0.003,-0.003 -0.004,-0.005zm-0.021 -0.069c-0.004,0.003 -0.007,0.006 -0.01,0.011 -0.002,0.004 -0.004,0.008 -0.006,0.014l-0 0.002 -0 0.002 -0.001 0.004 -0.001 0.004 -0 0.004c-0,-0.005 0,-0.011 0.001,-0.016 0.001,-0.005 0.003,-0.01 0.006,-0.014 0.003,-0.005 0.006,-0.008 0.01,-0.011 0.002,-0.001 0.004,-0.002 0.006,-0.003l0.002 -0.001 0.002 -0 0.004 -0.001c-0.005,0.002 -0.009,0.004 -0.013,0.006zm0.026 -0.015c-0.018,-0.001 -0.032,0.006 -0.041,0.019 -0.008,0.012 -0.011,0.027 -0.01,0.045 0.002,0.018 0.007,0.033 0.017,0.047 0.01,0.014 0.023,0.022 0.037,0.023 0.014,0.001 0.025,-0.006 0.034,-0.019 0.008,-0.012 0.012,-0.028 0.013,-0.046 0,-0.018 -0.003,-0.034 -0.011,-0.047 -0.009,-0.014 -0.022,-0.022 -0.038,-0.022zm0.077 0.087c-0.001,0.002 -0.002,0.005 -0.002,0.008 -0.001,-0.003 -0.001,-0.006 0.001,-0.009 0.001,-0.001 0.002,-0.003 0.003,-0.003 0.001,-0.001 0.003,-0.001 0.004,-0.001 -0.002,0.001 -0.004,0.003 -0.006,0.006zm0.004 -0.013c-0.004,0.001 -0.008,0.004 -0.01,0.008 -0.002,0.004 -0.003,0.009 -0.003,0.014 0,0.004 0.001,0.007 0.003,0.01 0.002,0.003 0.004,0.005 0.007,0.007 0.002,0.001 0.003,0.004 0.003,0.008l0 0.001 0 0.001c0,0.001 0,0.001 0,0.002 0,0.001 0.001,0.002 0.001,0.003 0.002,0.001 0.004,0.001 0.007,-0 0.002,-0.001 0.005,-0.004 0.007,-0.008 0.005,-0.008 0.007,-0.018 0.006,-0.027 -0.001,-0.006 -0.003,-0.011 -0.008,-0.015 -0.004,-0.004 -0.009,-0.005 -0.014,-0.004zm0.126 -0.04c-0,0 -0.001,0.001 -0.001,0.002l-0.001 0.001 -0.001 0.001c-0.001,0.001 -0.003,0.003 -0.004,0.003 -0.002,0.001 -0.003,0.001 -0.005,0.001 0.003,-0.001 0.005,-0.003 0.007,-0.006l0.001 -0.001 0.001 -0.001c0.001,-0.001 0.001,-0.001 0.002,-0.002 0.002,-0.001 0.003,-0.002 0.005,-0.002 -0.001,0.001 -0.003,0.002 -0.004,0.003zm-0.063 -0.05c-0.002,0.004 -0.004,0.008 -0.005,0.013 -0.001,0.004 -0.002,0.009 -0.002,0.015 -0,-0.005 0,-0.01 0.001,-0.015 0.001,-0.005 0.003,-0.01 0.005,-0.014 0.002,-0.005 0.006,-0.008 0.009,-0.011 0.002,-0.001 0.004,-0.003 0.006,-0.003 0.002,-0.001 0.005,-0.002 0.007,-0.002 -0.005,0.002 -0.009,0.004 -0.012,0.006 -0.004,0.003 -0.006,0.007 -0.009,0.011zm0.083 0.055c-0.003,-0.009 -0.007,-0.014 -0.014,-0.016 -0.003,-0 -0.005,-0 -0.008,0.001 -0.003,0.001 -0.005,0.003 -0.007,0.006 -0.002,0.003 -0.004,0.004 -0.007,0.004 -0.003,0 -0.005,-0 -0.008,-0.002 -0.003,-0.002 -0.005,-0.004 -0.007,-0.008 -0.002,-0.004 -0.003,-0.008 -0.004,-0.013 -0.001,-0.007 0.001,-0.011 0.006,-0.013 0.004,-0.001 0.009,-0.002 0.016,-0.001 0.003,0 0.006,-0 0.008,-0.002 0.002,-0.002 0.003,-0.004 0.004,-0.007 0.001,-0.003 0,-0.006 -0.001,-0.01 -0.001,-0.004 -0.004,-0.007 -0.007,-0.01 -0.007,-0.006 -0.015,-0.01 -0.024,-0.011 -0.008,-0.001 -0.016,0.001 -0.023,0.005 -0.009,0.005 -0.016,0.014 -0.02,0.027 -0.004,0.014 -0.004,0.03 -0,0.048 0.005,0.021 0.013,0.036 0.026,0.045 0.006,0.004 0.012,0.007 0.019,0.008 0.007,0.001 0.014,0.001 0.021,-0.002 0.012,-0.004 0.021,-0.011 0.026,-0.021 0.005,-0.01 0.006,-0.019 0.003,-0.03zm0.051 -0.076c-0.002,0.004 -0.003,0.007 -0.005,0.009 -0.002,0.003 -0.004,0.006 -0.007,0.008 0.002,-0.002 0.004,-0.005 0.006,-0.008 0.002,-0.003 0.003,-0.006 0.005,-0.009 0.001,-0.002 0.001,-0.003 0.002,-0.005l0.001 -0.001 0 -0.001c0,-0.001 0.001,-0.002 0.001,-0.003 0.001,-0.002 0.002,-0.003 0.003,-0.004 0.001,-0.001 0.003,-0.002 0.005,-0.002 -0.003,0.001 -0.005,0.003 -0.007,0.007 -0,0.001 -0.001,0.001 -0.001,0.002l-0 0.001 -0 0.001c-0.001,0.001 -0.001,0.003 -0.002,0.005zm-0.038 -0.012c-0.001,0.001 -0.002,0.002 -0.002,0.004 -0.001,0.002 -0.002,0.005 -0.002,0.009 -0,0.002 -0.001,0.006 -0.001,0.01l-0 0.005 -0 0.005c-0.001,-0.004 -0.001,-0.007 -0.001,-0.01 -0,-0.004 0,-0.007 0.001,-0.01 0.001,-0.004 0.002,-0.007 0.003,-0.01 0.001,-0.002 0.002,-0.003 0.003,-0.004 0.001,-0.001 0.003,-0.002 0.004,-0.002 -0.001,0.001 -0.003,0.001 -0.004,0.003zm0.05 0.044c-0.003,-0.001 -0.003,-0.002 -0.002,-0.003 0,-0.001 0.001,-0.001 0.002,-0.002l0.001 -0.001 0.001 -0.001c0.001,-0.001 0.002,-0.001 0.002,-0.002 0.004,-0.003 0.007,-0.006 0.009,-0.01 0.003,-0.005 0.005,-0.01 0.005,-0.016 0,-0.005 -0.001,-0.01 -0.004,-0.014 -0.002,-0.004 -0.006,-0.006 -0.01,-0.007 -0.004,-0.001 -0.008,-0.001 -0.011,0.001 -0.004,0.002 -0.007,0.006 -0.009,0.012 -0.003,0.01 -0.007,0.017 -0.011,0.021 -0.002,0.002 -0.003,0.002 -0.004,0.002 -0.001,-0 -0.001,-0.002 -0,-0.004 0.002,-0.01 0.001,-0.018 -0.001,-0.023 -0.002,-0.004 -0.006,-0.007 -0.011,-0.007 -0.01,-0 -0.016,0.007 -0.019,0.021 -0.002,0.011 -0.001,0.027 0.002,0.047 0.003,0.02 0.008,0.036 0.013,0.047 0.007,0.014 0.015,0.019 0.024,0.017 0.008,-0.002 0.011,-0.01 0.01,-0.023 -0.001,-0.004 -0.002,-0.009 -0.003,-0.015 -0.001,-0.002 -0.001,-0.004 -0.002,-0.006 -0,-0.001 -0,-0.001 -0.001,-0.002l-0 -0.001 -0 -0 -0 -0c-0.001,-0.002 -0.001,-0.003 -0,-0.004 0.001,-0.001 0.002,-0.001 0.003,0 0.004,0.002 0.008,0.008 0.014,0.019 0.003,0.007 0.007,0.012 0.012,0.016 0.004,0.003 0.008,0.005 0.012,0.006 0.004,0 0.008,-0 0.011,-0.003 0.003,-0.002 0.006,-0.006 0.007,-0.01 0.002,-0.005 0.002,-0.01 0.001,-0.016 -0.001,-0.005 -0.003,-0.011 -0.007,-0.016 -0.008,-0.011 -0.019,-0.018 -0.033,-0.023zm0.102 0.006c-0.001,0.002 -0.002,0.003 -0.003,0.005 -0.001,0.001 -0.003,0.002 -0.005,0.002 0.003,-0.002 0.005,-0.005 0.006,-0.008 0.001,-0.003 0.002,-0.006 0.001,-0.01 0.002,0.004 0.002,0.007 0,0.011zm-0.02 -0.005c-0.001,-0.002 -0.001,-0.004 -0,-0.007 0.001,-0.002 0.002,-0.003 0.003,-0.004 0.002,-0.001 0.004,-0.001 0.005,0.001 0.002,0.001 0.003,0.003 0.004,0.005 0.001,0.002 0.001,0.004 0,0.006 -0.001,0.002 -0.002,0.004 -0.003,0.004 -0.002,0.001 -0.004,0.001 -0.005,-0.001 -0.002,-0.001 -0.003,-0.003 -0.004,-0.005zm-0.021 -0.069c-0.004,0.003 -0.007,0.006 -0.01,0.011 -0.002,0.004 -0.004,0.008 -0.006,0.014l-0 0.002 -0 0.002 -0.001 0.004 -0.001 0.004 -0 0.004c-0,-0.005 0,-0.011 0.001,-0.016 0.001,-0.005 0.003,-0.01 0.006,-0.014 0.003,-0.005 0.006,-0.008 0.01,-0.011 0.002,-0.001 0.004,-0.002 0.006,-0.003l0.002 -0.001 0.002 -0 0.004 -0.001c-0.005,0.002 -0.009,0.004 -0.013,0.006zm0.026 -0.015c-0.018,-0.001 -0.032,0.006 -0.041,0.019 -0.008,0.012 -0.011,0.027 -0.01,0.045 0.002,0.018 0.007,0.033 0.017,0.047 0.01,0.014 0.023,0.022 0.037,0.023 0.014,0.001 0.025,-0.006 0.034,-0.019 0.008,-0.012 0.012,-0.028 0.013,-0.046 0,-0.018 -0.003,-0.034 -0.011,-0.047 -0.009,-0.014 -0.022,-0.022 -0.038,-0.022zm0.112 0.03c-0,0.002 -0.001,0.004 -0.002,0.005 -0.001,0.002 -0.002,0.003 -0.004,0.004 -0.002,0.001 -0.003,0.002 -0.005,0.002 0.002,-0.001 0.003,-0.002 0.004,-0.003 0.001,-0.001 0.002,-0.003 0.003,-0.004 0.002,-0.003 0.003,-0.006 0.003,-0.01 0.001,0.002 0.001,0.004 0,0.006zm-0.017 -0.004c0,-0.002 0.001,-0.004 0.003,-0.005 0.001,-0.001 0.003,-0.002 0.004,-0.001 0.001,0 0.002,0.001 0.003,0.003 0.001,0.002 0.001,0.004 0,0.006 -0,0.002 -0.001,0.004 -0.002,0.005 -0.001,0.001 -0.003,0.001 -0.004,0.001 -0.001,-0 -0.002,-0.001 -0.003,-0.003 -0.001,-0.002 -0.001,-0.004 -0,-0.006zm-0.021 -0.033c-0.003,0.003 -0.006,0.006 -0.008,0.01 -0.002,0.004 -0.003,0.008 -0.004,0.013 -0.001,0.004 -0.001,0.008 -0.001,0.014 -0,-0.002 -0,-0.004 -0,-0.007 0,-0.002 0,-0.005 0.001,-0.007 0.001,-0.005 0.002,-0.009 0.004,-0.013 0.002,-0.004 0.005,-0.008 0.009,-0.01 0.002,-0.001 0.004,-0.002 0.006,-0.003 0.002,-0.001 0.004,-0.002 0.006,-0.002 -0.004,0.002 -0.008,0.004 -0.011,0.006zm0.013 -0.014c-0.011,0.002 -0.02,0.008 -0.026,0.017 -0.005,0.008 -0.008,0.017 -0.008,0.029 -0,0.011 0.002,0.022 0.006,0.034 0.004,0.011 0.009,0.022 0.016,0.031 0.006,0.009 0.013,0.015 0.019,0.019 0.006,0.004 0.011,0.005 0.015,0.004 0.004,-0.001 0.007,-0.003 0.01,-0.006 0.002,-0.004 0.003,-0.008 0.002,-0.014 -0,-0.004 -0.001,-0.008 -0.003,-0.012 -0.001,-0.001 -0.001,-0.003 -0.002,-0.005l-0.001 -0.002c-0,-0.001 -0.001,-0.002 -0.001,-0.002 -0.001,-0.003 -0.002,-0.006 -0.002,-0.008 0,-0.003 0.001,-0.005 0.004,-0.007 0.008,-0.007 0.013,-0.015 0.016,-0.025 0.002,-0.009 0.002,-0.018 -0.001,-0.027 -0.003,-0.009 -0.008,-0.016 -0.016,-0.02 -0.008,-0.005 -0.018,-0.006 -0.028,-0.004zm0.124 0.067c-0.001,0.002 -0.002,0.003 -0.003,0.005 -0.001,0.001 -0.003,0.002 -0.005,0.002 0.003,-0.002 0.005,-0.005 0.006,-0.008 0.001,-0.003 0.002,-0.006 0.001,-0.01 0.002,0.004 0.002,0.007 0,0.011zm-0.02 -0.005c-0.001,-0.002 -0.001,-0.004 -0,-0.007 0.001,-0.002 0.002,-0.003 0.003,-0.004 0.002,-0.001 0.004,-0.001 0.005,0.001 0.002,0.001 0.003,0.003 0.004,0.005 0.001,0.002 0.001,0.004 0,0.006 -0.001,0.002 -0.002,0.004 -0.003,0.004 -0.002,0.001 -0.004,0.001 -0.005,-0.001 -0.002,-0.001 -0.003,-0.003 -0.004,-0.005zm-0.021 -0.069c-0.004,0.003 -0.007,0.006 -0.01,0.011 -0.002,0.004 -0.004,0.008 -0.006,0.014l-0 0.002 -0 0.002 -0.001 0.004 -0.001 0.004 -0 0.004c-0,-0.005 0,-0.011 0.001,-0.016 0.001,-0.005 0.003,-0.01 0.006,-0.014 0.003,-0.005 0.006,-0.008 0.01,-0.011 0.002,-0.001 0.004,-0.002 0.006,-0.003l0.002 -0.001 0.002 -0 0.004 -0.001c-0.005,0.002 -0.009,0.004 -0.013,0.006zm0.026 -0.015c-0.018,-0.001 -0.032,0.006 -0.041,0.019 -0.008,0.012 -0.011,0.027 -0.01,0.045 0.002,0.018 0.007,0.033 0.017,0.047 0.01,0.014 0.023,0.022 0.037,0.023 0.014,0.001 0.025,-0.006 0.034,-0.019 0.008,-0.012 0.012,-0.028 0.013,-0.046 0,-0.018 -0.003,-0.034 -0.011,-0.047 -0.009,-0.014 -0.022,-0.022 -0.038,-0.022zm-1.055 0.462c-0.001,0.002 -0.002,0.005 -0.003,0.008 -0.002,0.005 -0.003,0.011 -0.003,0.016l-0 0.004 -0 0.004c-0,0.004 -0.001,0.007 -0.001,0.008 -0.001,0.004 -0.001,0.006 -0.002,0.008 -0.001,0.001 -0.002,0.002 -0.003,0.003 -0.001,0.001 -0.002,0.001 -0.004,0.001 0.002,-0 0.003,-0.001 0.004,-0.002 0.001,-0.001 0.002,-0.002 0.002,-0.003 0.001,-0.002 0.001,-0.004 0.002,-0.008l0 -0.004 0 -0.004c0,-0.003 0,-0.006 0.001,-0.008 0.001,-0.006 0.002,-0.012 0.004,-0.016 0.002,-0.006 0.005,-0.011 0.009,-0.014 -0.002,0.002 -0.003,0.004 -0.004,0.007zm-0.051 0.034c0,0.004 0,0.009 0.001,0.014l0.001 0.007 0.001 0.007c-0.004,-0.013 -0.005,-0.025 -0.004,-0.037 0,-0.002 0,-0.004 0.001,-0.006 0,-0.002 0.001,-0.005 0.002,-0.006 0.002,-0.005 0.005,-0.007 0.008,-0.008 -0.004,0.001 -0.007,0.006 -0.008,0.012 -0,0.003 -0.001,0.006 -0.001,0.009 -0,0.001 -0,0.003 -0,0.004l-0 0.002 0 0.001 0 0.001zm0.07 -0.051c-0.008,-0.003 -0.015,-0.001 -0.021,0.006 -0.005,0.006 -0.008,0.014 -0.011,0.024 -0.001,0.003 -0.001,0.007 -0.002,0.012 -0,0.002 -0,0.003 -0.001,0.006l-0 0.003 -0 0.001 -0 0.001c-0,0.004 -0.001,0.006 -0.001,0.008 -0,0.002 -0.001,0.003 -0.002,0.003 -0.001,0 -0.003,-0.001 -0.003,-0.003 -0.001,-0.002 -0.001,-0.007 -0.002,-0.014 -0.001,-0.014 -0.004,-0.023 -0.009,-0.028 -0.004,-0.004 -0.008,-0.004 -0.014,-0.002 -0.007,0.003 -0.011,0.011 -0.012,0.026 -0.001,0.014 0.001,0.031 0.006,0.05 0.009,0.035 0.023,0.052 0.042,0.05 0.005,-0.001 0.01,-0.003 0.015,-0.008 0.004,-0.004 0.007,-0.01 0.009,-0.016 0.002,-0.006 0.003,-0.011 0.005,-0.016 0,-0.002 0.001,-0.004 0.001,-0.005 0,-0.001 0,-0.002 0.001,-0.004 0,-0.002 0.001,-0.004 0.001,-0.004 0,-0.001 0.001,-0.001 0.002,-0.001 0.001,0 0.001,0.003 0.002,0.008l0 0.002 0 0.002c0,0.002 0,0.003 0,0.004 0,0.003 0.001,0.006 0.001,0.008 0.003,0.015 0.01,0.021 0.02,0.019 0.006,-0.002 0.01,-0.009 0.011,-0.021 0.001,-0.011 -0.001,-0.025 -0.004,-0.042 -0.004,-0.016 -0.009,-0.03 -0.015,-0.042 -0.007,-0.013 -0.013,-0.021 -0.019,-0.023z"/>
   <path class="fil0" d="M0.211 0.509c-0.001,0.002 -0.003,0.004 -0.005,0.005 -0.004,0.002 -0.008,0.004 -0.013,0.005 -0.001,0 -0.002,0 -0.004,0l-0.002 0 -0.002 -0c-0.002,0 -0.005,0 -0.007,0.001 -0.003,0 -0.005,0.001 -0.006,0.002 -0.002,0.001 -0.003,0.003 -0.004,0.006 -0,-0.003 0.001,-0.005 0.003,-0.006 0.002,-0.001 0.004,-0.002 0.006,-0.003 0.002,-0.001 0.004,-0.001 0.007,-0.001l0.002 -0 0.002 -0c0.001,-0 0.002,-0 0.003,-0 0.005,-0 0.009,-0.002 0.013,-0.004 0.002,-0.001 0.004,-0.003 0.005,-0.004 0.002,-0.002 0.003,-0.004 0.003,-0.006 -0,0.002 -0.001,0.005 -0.003,0.007zm-0.012 -0.039c-0.002,0.002 -0.005,0.004 -0.009,0.006 -0.001,0.001 -0.003,0.001 -0.005,0.002l-0.001 0 -0.001 0c-0.001,0 -0.002,0.001 -0.002,0.001 -0.002,0.001 -0.003,0.002 -0.004,0.003 -0.001,0.001 -0.002,0.003 -0.002,0.005 -0,-0.002 0,-0.004 0.001,-0.005 0.001,-0.001 0.002,-0.003 0.004,-0.003 0.001,-0 0.002,-0.001 0.002,-0.001l0.001 -0 0.001 -0 0.002 -0.001c0.001,-0 0.002,-0.001 0.002,-0.001 0.002,-0.001 0.003,-0.002 0.005,-0.002 0.002,-0.001 0.003,-0.002 0.004,-0.003 0.002,-0.002 0.003,-0.006 0.003,-0.01 0.001,0.004 0,0.008 -0.002,0.011zm-0.023 -0.043c-0.001,0.001 -0.003,0.001 -0.006,0.003 -0.004,0.002 -0.008,0.005 -0.011,0.007 -0.003,0.003 -0.006,0.007 -0.008,0.01 -0.001,0.002 -0.001,0.004 -0.002,0.006 -0,0.002 -0,0.005 0,0.007 -0.001,-0.002 -0.001,-0.004 -0.001,-0.007 0,-0.002 0.001,-0.005 0.002,-0.007 0.001,-0.004 0.004,-0.008 0.008,-0.011 0.003,-0.003 0.007,-0.005 0.011,-0.007 0.003,-0.001 0.005,-0.002 0.006,-0.002 0.001,-0 0.004,-0.001 0.006,-0.001l-0.002 0.001 -0.001 0c-0.001,0 -0.002,0.001 -0.003,0.001zm0.071 0.033c-0.005,-0.016 -0.014,-0.028 -0.025,-0.035 -0.011,-0.007 -0.022,-0.01 -0.035,-0.008 -0.011,0.002 -0.021,0.005 -0.029,0.011 -0.006,0.005 -0.011,0.01 -0.014,0.017 -0.002,0.006 -0.003,0.011 -0.001,0.017 0.001,0.005 0.004,0.008 0.008,0.01 0.007,0.003 0.016,-0.001 0.026,-0.011 0.004,-0.004 0.007,-0.006 0.011,-0.006 0.003,0 0.005,0.002 0.005,0.004 0.001,0.003 0,0.005 -0.002,0.007 -0.002,0.002 -0.006,0.004 -0.012,0.005 -0.006,0.002 -0.01,0.005 -0.012,0.01 -0.002,0.004 -0.002,0.009 0.001,0.013 0.002,0.004 0.005,0.006 0.009,0.007 0.004,0.001 0.009,-0 0.013,-0.004 0.003,-0.003 0.007,-0.004 0.01,-0.004 0.003,0 0.005,0.002 0.006,0.004 0,0.001 0,0.003 -0,0.004 -0.001,0.002 -0.002,0.003 -0.003,0.005 -0.004,0.003 -0.009,0.005 -0.016,0.005 -0.011,-0 -0.018,0.002 -0.022,0.008 -0.004,0.005 -0.004,0.01 -0.002,0.017 0.002,0.005 0.005,0.009 0.01,0.012 0.005,0.002 0.01,0.004 0.017,0.004 0.013,0 0.025,-0.003 0.036,-0.01 0.013,-0.008 0.021,-0.019 0.024,-0.034 0.003,-0.014 0.002,-0.03 -0.004,-0.048zm0.028 -0.055c-0.004,0.002 -0.007,0.003 -0.009,0.004 -0.003,0.002 -0.006,0.004 -0.008,0.006 -0.001,0.002 -0.002,0.003 -0.003,0.004 -0.001,0.002 -0.001,0.003 -0,0.005 -0.001,-0.002 -0.001,-0.004 -0,-0.006 0,-0.002 0.001,-0.003 0.003,-0.005 0.002,-0.002 0.005,-0.005 0.008,-0.007 0.006,-0.003 0.012,-0.005 0.02,-0.006 -0.004,0.001 -0.007,0.002 -0.01,0.004zm0.014 -0.012c-0.014,0.002 -0.025,0.007 -0.032,0.013 -0.008,0.006 -0.011,0.013 -0.008,0.021 0.001,0.004 0.004,0.007 0.007,0.008 0.003,0.001 0.006,0.001 0.011,0.001l0.003 -0 0.003 -0c0.002,-0 0.004,-0 0.005,-0 0.004,-0 0.006,0.001 0.007,0.003 0.001,0.001 0.002,0.009 0.004,0.024 0.001,0.008 0.002,0.014 0.003,0.019 0.001,0.007 0.003,0.014 0.005,0.019 0.003,0.008 0.007,0.014 0.013,0.018 0.006,0.004 0.012,0.005 0.019,0.003 0.012,-0.005 0.013,-0.019 0.004,-0.042 -0.005,-0.012 -0.008,-0.023 -0.01,-0.032 -0.002,-0.01 -0.003,-0.016 -0.001,-0.018 0.001,-0.001 0.003,-0.002 0.006,-0.003 0.001,-0 0.002,-0.001 0.004,-0.001l0.002 -0 0.002 -0.001c0.004,-0.001 0.006,-0.002 0.008,-0.004 0.002,-0.002 0.004,-0.005 0.004,-0.008 0,-0.004 -0.001,-0.008 -0.004,-0.011 -0.003,-0.003 -0.007,-0.005 -0.013,-0.007 -0.011,-0.003 -0.025,-0.004 -0.041,-0.001zm0.14 -0.022c-0.001,0.001 -0.002,0.003 -0.002,0.005 -0.001,0.003 -0.002,0.006 -0.004,0.011l-0.001 0.003 -0.001 0.003c-0.001,0.002 -0.001,0.004 -0.002,0.005 -0.001,0.002 -0.002,0.004 -0.002,0.005 -0.001,0.002 -0.003,0.003 -0.004,0.004 0.001,-0.001 0.003,-0.003 0.003,-0.004 0.001,-0.001 0.001,-0.003 0.002,-0.005 0,-0.001 0.001,-0.003 0.001,-0.006l0.002 -0.005c0.001,-0.005 0.003,-0.008 0.004,-0.011 0.001,-0.002 0.002,-0.004 0.003,-0.005 0.002,-0.002 0.003,-0.003 0.004,-0.003 -0.001,0.001 -0.003,0.002 -0.004,0.004zm-0.035 0.095c-0.001,0.001 -0.002,0.003 -0.003,0.004 -0.002,0.003 -0.004,0.005 -0.005,0.007 -0.001,0.001 -0.001,0.003 -0.001,0.004 -0,0.001 -0,0.003 -0,0.005 -0,-0.001 -0.001,-0.003 -0.001,-0.005 0,-0.002 0,-0.003 0.001,-0.005 0.001,-0.002 0.002,-0.005 0.005,-0.008 0.002,-0.002 0.003,-0.004 0.006,-0.007l0.002 -0.002 0.001 -0.002c0.001,-0.001 0.002,-0.002 0.003,-0.003 -0.001,0.002 -0.003,0.005 -0.005,0.008l-0.003 0.003zm-0.031 -0.071c-0.001,0.001 -0.001,0.003 -0.001,0.005 -0,0.002 0,0.003 0.001,0.005 -0.001,-0.002 -0.002,-0.003 -0.002,-0.005 -0,-0.002 -0,-0.004 0.001,-0.006 0.001,-0.002 0.002,-0.003 0.003,-0.004 0.001,-0.001 0.003,-0.002 0.005,-0.002 -0.003,0.002 -0.005,0.004 -0.006,0.007zm0.069 -0.034c-0.003,0.001 -0.006,0.003 -0.009,0.008 -0.002,0.003 -0.004,0.008 -0.006,0.013l-0.001 0.004 -0 0.002 -0 0.002c-0.001,0.003 -0.001,0.005 -0.002,0.006 -0.001,0.004 -0.003,0.006 -0.004,0.006 -0.001,0 -0.005,-0.002 -0.01,-0.005l-0.001 -0.001 -0.001 -0.001c-0.001,-0.001 -0.001,-0.001 -0.002,-0.001 -0.002,-0.001 -0.003,-0.002 -0.004,-0.003 -0.003,-0.002 -0.007,-0.004 -0.01,-0.006 -0.005,-0.003 -0.01,-0.004 -0.014,-0.002 -0.004,0.001 -0.007,0.003 -0.01,0.007 -0.002,0.004 -0.003,0.008 -0.003,0.013 0,0.005 0.002,0.01 0.006,0.014 0.003,0.003 0.006,0.006 0.011,0.009 0.002,0.001 0.004,0.002 0.006,0.004l0.003 0.002 0.003 0.002c0.005,0.003 0.008,0.005 0.01,0.006 0.003,0.002 0.005,0.004 0.005,0.007 0.001,0.002 -0,0.005 -0.002,0.008 -0.001,0.001 -0.002,0.003 -0.004,0.004l-0.001 0.001 -0.001 0.001 -0.002 0.002c-0.004,0.004 -0.006,0.008 -0.008,0.011 -0.002,0.005 -0.003,0.01 -0.002,0.015 0.001,0.004 0.002,0.007 0.004,0.01 0.002,0.003 0.005,0.005 0.008,0.006 0.007,0.003 0.015,0.002 0.024,-0.003 0.012,-0.007 0.021,-0.022 0.029,-0.044 0.007,-0.02 0.011,-0.038 0.01,-0.054 -0,-0.017 -0.003,-0.029 -0.008,-0.036 -0.004,-0.006 -0.009,-0.008 -0.016,-0.007zm0.147 0.05c-0,0 -0.001,0.001 -0.001,0.002l-0.001 0.001 -0.001 0.001c-0.001,0.001 -0.003,0.003 -0.004,0.003 -0.002,0.001 -0.003,0.001 -0.005,0.001 0.003,-0.001 0.005,-0.003 0.007,-0.006l0.001 -0.001 0.001 -0.001c0.001,-0.001 0.001,-0.001 0.002,-0.002 0.002,-0.001 0.003,-0.002 0.005,-0.002 -0.001,0.001 -0.003,0.002 -0.004,0.003zm-0.063 -0.05c-0.002,0.004 -0.004,0.008 -0.005,0.013 -0.001,0.004 -0.002,0.009 -0.002,0.015 -0,-0.005 0,-0.01 0.001,-0.015 0.001,-0.005 0.003,-0.01 0.005,-0.014 0.002,-0.005 0.006,-0.008 0.009,-0.011 0.002,-0.001 0.004,-0.003 0.006,-0.003 0.002,-0.001 0.005,-0.002 0.007,-0.002 -0.005,0.002 -0.009,0.004 -0.012,0.006 -0.004,0.003 -0.006,0.007 -0.009,0.011zm0.083 0.055c-0.003,-0.009 -0.007,-0.014 -0.014,-0.016 -0.003,-0 -0.005,-0 -0.008,0.001 -0.003,0.001 -0.005,0.003 -0.007,0.006 -0.002,0.003 -0.004,0.004 -0.007,0.004 -0.003,0 -0.005,-0 -0.008,-0.002 -0.003,-0.002 -0.005,-0.004 -0.007,-0.008 -0.002,-0.004 -0.003,-0.008 -0.004,-0.013 -0.001,-0.007 0.001,-0.011 0.006,-0.013 0.004,-0.001 0.009,-0.002 0.016,-0.001 0.003,0 0.006,-0 0.008,-0.002 0.002,-0.002 0.003,-0.004 0.004,-0.007 0.001,-0.003 0,-0.006 -0.001,-0.01 -0.001,-0.004 -0.004,-0.007 -0.007,-0.01 -0.007,-0.006 -0.015,-0.01 -0.024,-0.011 -0.008,-0.001 -0.016,0.001 -0.023,0.005 -0.009,0.005 -0.016,0.014 -0.02,0.027 -0.004,0.014 -0.004,0.03 -0,0.048 0.005,0.021 0.013,0.036 0.026,0.045 0.006,0.004 0.012,0.007 0.019,0.008 0.007,0.001 0.014,0.001 0.021,-0.002 0.012,-0.004 0.021,-0.011 0.026,-0.021 0.005,-0.01 0.006,-0.019 0.003,-0.03zm0.02 -0.09c-0.004,0.002 -0.007,0.003 -0.009,0.004 -0.003,0.002 -0.006,0.004 -0.008,0.006 -0.001,0.002 -0.002,0.003 -0.003,0.004 -0.001,0.002 -0.001,0.003 -0,0.005 -0.001,-0.002 -0.001,-0.004 -0,-0.006 0,-0.002 0.001,-0.003 0.003,-0.005 0.002,-0.002 0.005,-0.005 0.008,-0.007 0.006,-0.003 0.012,-0.005 0.02,-0.006 -0.004,0.001 -0.007,0.002 -0.01,0.004zm0.014 -0.012c-0.014,0.002 -0.025,0.007 -0.032,0.013 -0.008,0.006 -0.011,0.013 -0.008,0.021 0.001,0.004 0.004,0.007 0.007,0.008 0.003,0.001 0.006,0.001 0.011,0.001l0.003 -0 0.003 -0c0.002,-0 0.004,-0 0.005,-0 0.004,-0 0.006,0.001 0.007,0.003 0.001,0.001 0.002,0.009 0.004,0.024 0.001,0.008 0.002,0.014 0.003,0.019 0.001,0.007 0.003,0.014 0.005,0.019 0.003,0.008 0.007,0.014 0.013,0.018 0.006,0.004 0.012,0.005 0.019,0.003 0.012,-0.005 0.013,-0.019 0.004,-0.042 -0.005,-0.012 -0.008,-0.023 -0.01,-0.032 -0.002,-0.01 -0.003,-0.016 -0.001,-0.018 0.001,-0.001 0.003,-0.002 0.006,-0.003 0.001,-0 0.002,-0.001 0.004,-0.001l0.002 -0 0.002 -0.001c0.004,-0.001 0.006,-0.002 0.008,-0.004 0.002,-0.002 0.004,-0.005 0.004,-0.008 0,-0.004 -0.001,-0.008 -0.004,-0.011 -0.003,-0.003 -0.007,-0.005 -0.013,-0.007 -0.011,-0.003 -0.025,-0.004 -0.041,-0.001zm0.129 0.027c-0,0.002 -0.001,0.004 -0.002,0.005 -0.001,0.002 -0.002,0.003 -0.004,0.004 -0.002,0.001 -0.003,0.002 -0.005,0.002 0.002,-0.001 0.003,-0.002 0.004,-0.003 0.001,-0.001 0.002,-0.003 0.003,-0.004 0.002,-0.003 0.003,-0.006 0.003,-0.01 0.001,0.002 0.001,0.004 0.001,0.006zm-0.017 -0.004c0,-0.002 0.001,-0.004 0.003,-0.005 0.001,-0.001 0.003,-0.002 0.004,-0.001 0.001,0 0.002,0.001 0.003,0.003 0.001,0.002 0.001,0.004 0,0.006 -0,0.002 -0.001,0.004 -0.002,0.005 -0.001,0.001 -0.003,0.001 -0.004,0.001 -0.001,-0 -0.002,-0.001 -0.003,-0.003 -0.001,-0.002 -0.001,-0.004 -0,-0.006zm-0.021 -0.033c-0.003,0.003 -0.006,0.006 -0.008,0.01 -0.002,0.004 -0.003,0.008 -0.004,0.013 -0.001,0.004 -0.001,0.008 -0.001,0.014 -0,-0.002 -0,-0.004 -0,-0.007 0,-0.002 0,-0.005 0.001,-0.007 0.001,-0.005 0.002,-0.009 0.004,-0.013 0.002,-0.004 0.005,-0.008 0.009,-0.01 0.002,-0.001 0.004,-0.002 0.006,-0.003 0.002,-0.001 0.004,-0.002 0.006,-0.002 -0.004,0.002 -0.008,0.004 -0.011,0.006zm0.013 -0.014c-0.011,0.002 -0.02,0.008 -0.026,0.017 -0.005,0.008 -0.008,0.017 -0.008,0.029 -0,0.011 0.002,0.022 0.006,0.034 0.004,0.011 0.009,0.022 0.016,0.031 0.006,0.009 0.013,0.015 0.019,0.019 0.006,0.004 0.011,0.005 0.015,0.004 0.004,-0.001 0.007,-0.003 0.01,-0.006 0.002,-0.004 0.003,-0.008 0.002,-0.014 -0,-0.004 -0.001,-0.008 -0.003,-0.012 -0.001,-0.001 -0.001,-0.003 -0.002,-0.005l-0.001 -0.002c-0,-0.001 -0.001,-0.002 -0.001,-0.002 -0.001,-0.003 -0.002,-0.006 -0.002,-0.008 0,-0.003 0.001,-0.005 0.004,-0.007 0.008,-0.007 0.013,-0.015 0.016,-0.025 0.002,-0.009 0.002,-0.018 -0.001,-0.027 -0.003,-0.009 -0.008,-0.016 -0.016,-0.02 -0.008,-0.005 -0.018,-0.006 -0.028,-0.004zm0.123 0.058c-0.001,0.001 -0.002,0.002 -0.003,0.003 -0.001,0.001 -0.003,0.001 -0.004,0.001 0.002,-0.001 0.004,-0.003 0.006,-0.005 0.001,-0.002 0.002,-0.004 0.004,-0.007 0,0.003 -0.001,0.006 -0.002,0.008zm-0.01 -0.003c-0.001,-0 -0.003,-0.001 -0.003,-0.003 -0.001,-0.002 -0.001,-0.003 -0.001,-0.005 0,-0.002 0.001,-0.004 0.002,-0.005 0.001,-0.001 0.003,-0.002 0.004,-0.001 0.001,0 0.003,0.001 0.003,0.003 0.001,0.002 0.001,0.003 0.001,0.005 -0,0.002 -0.001,0.004 -0.002,0.005 -0.001,0.001 -0.002,0.002 -0.004,0.001zm-0.025 -0.046c-0.001,0.004 -0.003,0.008 -0.005,0.015 -0.001,0.002 -0.001,0.005 -0.002,0.007l-0.002 0.008c0.001,-0.005 0.002,-0.01 0.003,-0.015 0.001,-0.005 0.003,-0.01 0.004,-0.015 0.002,-0.006 0.004,-0.01 0.007,-0.014l0.001 -0.002c0,-0.001 0.001,-0.001 0.001,-0.002l0.001 -0.002 0.001 -0.001c0.002,-0.002 0.004,-0.003 0.006,-0.004 -0.002,0.001 -0.004,0.002 -0.006,0.004l-0.001 0.001 -0.001 0.002c-0,0 -0.001,0.001 -0.001,0.001l-0.001 0.002c-0.002,0.004 -0.004,0.009 -0.006,0.014zm0.016 -0.032c-0.008,0 -0.015,0.008 -0.021,0.022 -0.006,0.013 -0.01,0.029 -0.012,0.047 -0.003,0.018 -0.003,0.034 -0.001,0.048 0.002,0.015 0.007,0.023 0.014,0.024 0.005,0.001 0.01,-0 0.014,-0.003 0.003,-0.002 0.006,-0.006 0.009,-0.011 0.001,-0.001 0.001,-0.002 0.002,-0.003l0.002 -0.003c0.001,-0.003 0.002,-0.005 0.003,-0.006 0.002,-0.004 0.004,-0.006 0.006,-0.007 0.002,-0 0.005,0.001 0.009,0.003 0.001,0.001 0.003,0.002 0.005,0.004l0.003 0.002 0.003 0.002c0.005,0.003 0.009,0.005 0.012,0.006 0.005,0.001 0.009,-0 0.012,-0.003 0.004,-0.004 0.005,-0.012 0.003,-0.025 -0.002,-0.012 -0.007,-0.026 -0.013,-0.041 -0.007,-0.016 -0.015,-0.028 -0.023,-0.038 -0.009,-0.011 -0.018,-0.016 -0.025,-0.016zm0.122 -0.019c-0.001,0.001 -0.001,0.001 -0.002,0.003 -0.001,0.002 -0.001,0.004 -0.001,0.006 0,0.004 0.001,0.008 0.002,0.013l0 0.002 0 0.002c0,0.001 0.001,0.003 0.001,0.003 0,0.003 0,0.005 -0,0.007 -0,0.002 -0.001,0.005 -0.002,0.006 -0.001,0.002 -0.003,0.003 -0.005,0.005 0.003,-0.003 0.005,-0.007 0.006,-0.011 0,-0.002 0,-0.004 -0,-0.007 -0,-0.001 -0,-0.002 -0.001,-0.003l-0 -0.002 -0 -0.002c-0.001,-0.005 -0.002,-0.01 -0.002,-0.014 0,-0.003 0.001,-0.005 0.001,-0.007 0.001,-0.001 0.001,-0.002 0.002,-0.002 0.001,-0.001 0.002,-0.001 0.003,-0.001 -0.001,0 -0.002,0.001 -0.003,0.002zm-0.056 0.015c-0.001,0.003 -0.002,0.006 -0.003,0.009 -0,0.003 -0,0.006 -0,0.01l0 0.005 0 0.005c-0.001,-0.007 -0.002,-0.014 -0.001,-0.021 0,-0.004 0.001,-0.007 0.003,-0.01 0.001,-0.002 0.002,-0.003 0.003,-0.004 0.002,-0.001 0.003,-0.002 0.004,-0.002 -0.003,0.001 -0.005,0.003 -0.007,0.006zm0.057 -0.024c-0.006,0.002 -0.009,0.005 -0.01,0.011 -0.001,0.006 -0,0.014 0.003,0.024 0.001,0.005 0.001,0.008 -0,0.011 -0.001,0.002 -0.003,0.004 -0.006,0.004 -0.003,0 -0.005,-0 -0.007,-0.002 -0.002,-0.002 -0.003,-0.005 -0.004,-0.009 -0.001,-0.011 -0.004,-0.019 -0.009,-0.024 -0.004,-0.004 -0.009,-0.006 -0.016,-0.006 -0.005,0 -0.01,0.003 -0.013,0.007 -0.003,0.004 -0.005,0.009 -0.005,0.016 -0.001,0.012 0,0.026 0.004,0.042 0.003,0.015 0.008,0.029 0.014,0.042 0.004,0.01 0.01,0.016 0.016,0.019 0.005,0.003 0.01,0.003 0.014,0.001 0.01,-0.004 0.013,-0.014 0.009,-0.029 -0.003,-0.011 -0.002,-0.017 0.003,-0.018 0.003,-0.001 0.005,0 0.007,0.002 0.002,0.002 0.004,0.007 0.005,0.013 0.002,0.01 0.005,0.018 0.01,0.022 0.004,0.004 0.009,0.006 0.015,0.004 0.01,-0.002 0.015,-0.011 0.016,-0.025 0.001,-0.01 -0.001,-0.027 -0.006,-0.05 -0.003,-0.018 -0.009,-0.032 -0.016,-0.042 -0.008,-0.011 -0.015,-0.015 -0.023,-0.013zm0.103 -0.01c-0.001,0.002 -0.002,0.005 -0.003,0.008 -0.002,0.005 -0.003,0.011 -0.003,0.016l-0 0.004 -0 0.004c-0,0.004 -0.001,0.007 -0.001,0.008 -0.001,0.004 -0.001,0.006 -0.002,0.008 -0.001,0.001 -0.002,0.002 -0.003,0.003 -0.001,0.001 -0.002,0.001 -0.004,0.001 0.002,-0 0.003,-0.001 0.004,-0.002 0.001,-0.001 0.002,-0.002 0.002,-0.003 0.001,-0.002 0.001,-0.004 0.002,-0.008l0 -0.004 0 -0.004c0,-0.003 0,-0.006 0.001,-0.008 0.001,-0.006 0.002,-0.012 0.004,-0.016 0.002,-0.006 0.005,-0.011 0.009,-0.014 -0.002,0.002 -0.003,0.004 -0.004,0.007zm-0.051 0.034c0,0.004 0,0.009 0.001,0.014l0.001 0.007 0.001 0.007c-0.004,-0.013 -0.005,-0.025 -0.004,-0.037 0,-0.002 0,-0.004 0.001,-0.006 0,-0.002 0.001,-0.005 0.002,-0.006 0.002,-0.005 0.005,-0.007 0.008,-0.008 -0.004,0.001 -0.007,0.006 -0.008,0.012 -0,0.003 -0.001,0.006 -0.001,0.009 -0,0.001 -0,0.003 -0,0.004l-0 0.002 0 0.001 0 0.001zm0.07 -0.051c-0.008,-0.003 -0.015,-0.001 -0.021,0.006 -0.005,0.006 -0.008,0.014 -0.011,0.024 -0.001,0.003 -0.001,0.007 -0.002,0.012 -0,0.002 -0,0.003 -0.001,0.006l-0 0.003 -0 0.001 -0 0.001c-0,0.004 -0.001,0.006 -0.001,0.008 -0,0.002 -0.001,0.003 -0.002,0.003 -0.001,0 -0.003,-0.001 -0.003,-0.003 -0.001,-0.002 -0.001,-0.007 -0.002,-0.014 -0.001,-0.014 -0.004,-0.023 -0.009,-0.028 -0.004,-0.004 -0.008,-0.004 -0.014,-0.002 -0.007,0.003 -0.011,0.011 -0.012,0.026 -0.001,0.014 0.001,0.031 0.006,0.05 0.009,0.035 0.023,0.052 0.042,0.05 0.005,-0.001 0.01,-0.003 0.015,-0.008 0.004,-0.004 0.007,-0.01 0.009,-0.016 0.002,-0.006 0.003,-0.011 0.005,-0.016 0,-0.002 0.001,-0.004 0.001,-0.005 0,-0.001 0,-0.002 0.001,-0.004 0,-0.002 0.001,-0.004 0.001,-0.004 0,-0.001 0.001,-0.001 0.002,-0.001 0.001,0 0.001,0.003 0.002,0.008l0 0.002 0 0.002c0,0.002 0,0.003 0,0.004 0,0.003 0.001,0.006 0.001,0.008 0.003,0.015 0.01,0.021 0.02,0.019 0.006,-0.002 0.01,-0.009 0.011,-0.021 0.001,-0.011 -0.001,-0.025 -0.004,-0.042 -0.004,-0.016 -0.009,-0.03 -0.015,-0.042 -0.007,-0.013 -0.013,-0.021 -0.019,-0.023zm0.106 -0.012c-0.001,0.002 -0.001,0.004 -0.002,0.006 -0,0.001 -0,0.004 -0,0.006l-0 0.007c-0.001,-0.002 -0.001,-0.004 -0.001,-0.007 -0,-0.002 -0,-0.005 0,-0.007 0,-0.003 0.001,-0.005 0.002,-0.006 0.001,-0.002 0.003,-0.004 0.005,-0.004 -0.002,0.001 -0.003,0.002 -0.004,0.004zm-0.005 0.069c-0.001,0.001 -0.002,0.002 -0.003,0.003 -0.001,0.001 -0.003,0.001 -0.004,0.001 0.001,-0.001 0.003,-0.002 0.003,-0.002 0.001,-0.001 0.002,-0.002 0.003,-0.003 0.001,-0.001 0.002,-0.002 0.002,-0.003l0.001 -0.002 0.001 -0.002c-0,0.003 -0.001,0.006 -0.003,0.008zm-0.048 -0.063c-0.001,0.001 -0.002,0.003 -0.003,0.004 -0.001,0.003 -0.002,0.006 -0.003,0.009 -0.001,0.003 -0.001,0.006 -0.002,0.01l-0.001 0.005 -0.001 0.005c-0.001,-0.007 -0,-0.014 0.001,-0.02 0.001,-0.004 0.002,-0.007 0.004,-0.01 0.001,-0.001 0.002,-0.003 0.003,-0.004 0.002,-0.001 0.003,-0.002 0.004,-0.002 -0.001,0.001 -0.003,0.002 -0.004,0.003zm0.095 0.073c-0.004,-0 -0.006,-0.003 -0.007,-0.009 -0,-0.002 -0.001,-0.004 -0.001,-0.008l-0 -0.004c-0,-0.002 -0,-0.003 -0,-0.004 -0.002,-0.021 -0.005,-0.036 -0.008,-0.044 -0.004,-0.013 -0.01,-0.02 -0.019,-0.021 -0.006,-0.001 -0.011,0.002 -0.014,0.007 -0.003,0.006 -0.004,0.014 -0.002,0.024 0.004,0.029 0.002,0.044 -0.006,0.046 -0.008,0.002 -0.012,-0.009 -0.011,-0.034 0,-0.013 -0.002,-0.022 -0.007,-0.029 -0.005,-0.007 -0.011,-0.009 -0.019,-0.007 -0.008,0.002 -0.013,0.01 -0.016,0.024 -0.002,0.013 -0.002,0.028 0.001,0.046 0.003,0.018 0.008,0.032 0.014,0.041 0.005,0.007 0.012,0.013 0.019,0.016 0.007,0.003 0.014,0.003 0.022,0.002 0.003,-0.001 0.007,-0.002 0.012,-0.003l0.003 -0.001 0.003 -0.001c0.003,-0.001 0.005,-0.002 0.007,-0.002 0.003,-0.001 0.005,-0.001 0.007,0 0.001,0.001 0.003,0.002 0.005,0.004l0.001 0.001 0.001 0.001c0.001,0.001 0.002,0.002 0.003,0.002 0.002,0.002 0.005,0.002 0.009,0.003 0.005,0 0.01,-0.002 0.013,-0.007 0.003,-0.005 0.005,-0.01 0.005,-0.017 0,-0.007 -0.001,-0.013 -0.004,-0.018 -0.003,-0.006 -0.007,-0.009 -0.013,-0.009z"/>
   <path class="fil0" d="M1.312 0.168c-0.001,0.001 -0.002,0.003 -0.002,0.005 -0.001,0.003 -0.002,0.006 -0.004,0.011l-0.001 0.003 -0.001 0.003c-0.001,0.002 -0.001,0.004 -0.002,0.005 -0.001,0.002 -0.002,0.004 -0.002,0.005 -0.001,0.002 -0.003,0.003 -0.004,0.004 0.001,-0.001 0.003,-0.003 0.003,-0.004 0.001,-0.001 0.001,-0.003 0.002,-0.005 0,-0.001 0.001,-0.003 0.001,-0.006l0.002 -0.005c0.001,-0.005 0.003,-0.008 0.004,-0.011 0.001,-0.002 0.002,-0.004 0.003,-0.005 0.002,-0.002 0.003,-0.003 0.004,-0.003 -0.001,0.001 -0.003,0.002 -0.004,0.004zm-0.035 0.095c-0.001,0.001 -0.002,0.003 -0.003,0.004 -0.002,0.003 -0.004,0.005 -0.005,0.007 -0.001,0.001 -0.001,0.003 -0.001,0.004 -0,0.001 -0,0.003 -0,0.005 -0,-0.001 -0.001,-0.003 -0.001,-0.005 0,-0.002 0,-0.003 0.001,-0.005 0.001,-0.002 0.002,-0.005 0.005,-0.008 0.002,-0.002 0.003,-0.004 0.006,-0.007l0.002 -0.002 0.001 -0.002c0.001,-0.001 0.002,-0.002 0.003,-0.003 -0.001,0.002 -0.003,0.005 -0.005,0.008l-0.003 0.003zm-0.031 -0.071c-0.001,0.001 -0.001,0.003 -0.001,0.005 -0,0.002 0,0.003 0.001,0.005 -0.001,-0.002 -0.002,-0.003 -0.002,-0.005 -0,-0.002 -0,-0.004 0.001,-0.006 0.001,-0.002 0.002,-0.003 0.003,-0.004 0.001,-0.001 0.003,-0.002 0.005,-0.002 -0.003,0.002 -0.005,0.004 -0.006,0.007zm0.069 -0.034c-0.003,0.001 -0.006,0.003 -0.009,0.008 -0.002,0.003 -0.004,0.008 -0.006,0.013l-0.001 0.004 -0 0.002 -0 0.002c-0.001,0.003 -0.001,0.005 -0.002,0.006 -0.001,0.004 -0.003,0.006 -0.004,0.006 -0.001,0 -0.005,-0.001 -0.01,-0.005l-0.001 -0.001 -0.001 -0.001c-0.001,-0.001 -0.001,-0.001 -0.002,-0.001 -0.002,-0.001 -0.003,-0.002 -0.004,-0.003 -0.003,-0.002 -0.007,-0.004 -0.01,-0.006 -0.005,-0.003 -0.01,-0.004 -0.014,-0.002 -0.004,0.001 -0.007,0.003 -0.01,0.007 -0.002,0.004 -0.003,0.008 -0.003,0.013 0,0.005 0.002,0.01 0.006,0.014 0.003,0.003 0.006,0.006 0.011,0.009 0.002,0.001 0.004,0.002 0.006,0.004l0.003 0.002 0.003 0.002c0.005,0.003 0.008,0.005 0.01,0.006 0.003,0.002 0.005,0.005 0.005,0.007 0.001,0.002 -0,0.005 -0.002,0.008 -0.001,0.001 -0.002,0.003 -0.004,0.004l-0.001 0.001 -0.001 0.001 -0.002 0.002c-0.004,0.004 -0.006,0.008 -0.008,0.011 -0.002,0.005 -0.003,0.01 -0.002,0.015 0.001,0.004 0.002,0.007 0.004,0.01 0.002,0.003 0.005,0.005 0.008,0.007 0.007,0.003 0.015,0.002 0.024,-0.003 0.012,-0.007 0.021,-0.022 0.029,-0.044 0.007,-0.02 0.011,-0.038 0.01,-0.054 -0,-0.017 -0.003,-0.029 -0.008,-0.036 -0.004,-0.006 -0.009,-0.008 -0.016,-0.007zm-0.862 0.499c-0.001,0.002 -0.002,0.003 -0.003,0.005 -0.001,0.001 -0.003,0.002 -0.005,0.002 0.003,-0.002 0.005,-0.005 0.006,-0.008 0.001,-0.003 0.002,-0.006 0.001,-0.01 0.002,0.004 0.002,0.007 0,0.011zm-0.02 -0.005c-0.001,-0.002 -0.001,-0.004 -0,-0.007 0.001,-0.002 0.002,-0.003 0.003,-0.004 0.002,-0.001 0.004,-0.001 0.005,0.001 0.002,0.001 0.003,0.003 0.004,0.005 0.001,0.002 0.001,0.004 0,0.006 -0.001,0.002 -0.002,0.004 -0.003,0.004 -0.002,0.001 -0.004,0.001 -0.005,-0.001 -0.002,-0.001 -0.003,-0.003 -0.004,-0.005zm-0.021 -0.069c-0.004,0.003 -0.007,0.006 -0.01,0.011 -0.002,0.004 -0.004,0.008 -0.006,0.014l-0 0.002 -0 0.002 -0.001 0.004 -0.001 0.004 -0 0.004c-0,-0.005 0,-0.011 0.001,-0.016 0.001,-0.005 0.003,-0.01 0.006,-0.014 0.003,-0.005 0.006,-0.008 0.01,-0.011 0.002,-0.001 0.004,-0.002 0.006,-0.003l0.002 -0.001 0.002 -0 0.004 -0.001c-0.005,0.002 -0.009,0.004 -0.013,0.006zm0.026 -0.015c-0.018,-0.001 -0.032,0.006 -0.041,0.019 -0.008,0.012 -0.011,0.027 -0.01,0.045 0.002,0.018 0.007,0.033 0.017,0.047 0.01,0.014 0.023,0.022 0.037,0.023 0.014,0.001 0.025,-0.006 0.034,-0.019 0.008,-0.012 0.012,-0.028 0.013,-0.046 0,-0.018 -0.003,-0.034 -0.011,-0.047 -0.009,-0.014 -0.022,-0.022 -0.038,-0.022zm0.074 -0.01c-0.004,0.002 -0.007,0.003 -0.009,0.004 -0.003,0.002 -0.006,0.004 -0.008,0.006 -0.001,0.002 -0.002,0.003 -0.003,0.004 -0.001,0.002 -0.001,0.003 -0,0.005 -0.001,-0.002 -0.001,-0.004 -0,-0.006 0,-0.002 0.001,-0.003 0.003,-0.005 0.002,-0.002 0.005,-0.005 0.008,-0.007 0.006,-0.003 0.012,-0.005 0.02,-0.006 -0.004,0.001 -0.007,0.002 -0.01,0.004zm0.014 -0.012c-0.014,0.002 -0.025,0.007 -0.032,0.013 -0.008,0.006 -0.011,0.013 -0.008,0.021 0.001,0.004 0.004,0.007 0.007,0.008 0.003,0.001 0.006,0.001 0.011,0.001l0.003 -0 0.003 -0c0.002,-0 0.004,-0 0.005,-0 0.004,-0 0.006,0.001 0.007,0.003 0.001,0.001 0.002,0.009 0.004,0.024 0.001,0.008 0.002,0.014 0.003,0.019 0.001,0.007 0.003,0.014 0.005,0.019 0.003,0.008 0.007,0.014 0.013,0.018 0.006,0.004 0.012,0.005 0.019,0.003 0.012,-0.005 0.013,-0.019 0.004,-0.042 -0.005,-0.012 -0.008,-0.023 -0.01,-0.032 -0.002,-0.01 -0.003,-0.016 -0.001,-0.018 0.001,-0.001 0.003,-0.002 0.006,-0.003 0.001,-0 0.002,-0.001 0.004,-0.001l0.002 -0 0.002 -0.001c0.004,-0.001 0.006,-0.002 0.008,-0.004 0.002,-0.002 0.004,-0.005 0.004,-0.008 0,-0.004 -0.001,-0.008 -0.004,-0.011 -0.003,-0.003 -0.007,-0.005 -0.013,-0.007 -0.011,-0.003 -0.025,-0.004 -0.041,-0.001zm0.122 0.002c-0.002,0.004 -0.003,0.007 -0.005,0.009 -0.002,0.003 -0.004,0.006 -0.007,0.008 0.002,-0.002 0.004,-0.005 0.006,-0.008 0.002,-0.003 0.003,-0.006 0.005,-0.009 0.001,-0.002 0.001,-0.003 0.002,-0.005l0.001 -0.001 0 -0.001c0,-0.001 0.001,-0.002 0.001,-0.003 0.001,-0.002 0.002,-0.003 0.003,-0.004 0.001,-0.001 0.003,-0.002 0.005,-0.002 -0.003,0.001 -0.005,0.003 -0.007,0.007 -0,0.001 -0.001,0.001 -0.001,0.002l-0 0.001 -0 0.001c-0.001,0.001 -0.001,0.003 -0.002,0.005zm-0.038 -0.012c-0.001,0.001 -0.002,0.002 -0.002,0.004 -0.001,0.002 -0.002,0.005 -0.002,0.009 -0,0.002 -0.001,0.006 -0.001,0.01l-0 0.005 -0 0.005c-0.001,-0.004 -0.001,-0.007 -0.001,-0.01 -0,-0.004 0,-0.007 0.001,-0.01 0.001,-0.004 0.002,-0.007 0.003,-0.01 0.001,-0.002 0.002,-0.003 0.003,-0.004 0.001,-0.001 0.003,-0.002 0.004,-0.002 -0.001,0.001 -0.003,0.001 -0.004,0.003zm0.05 0.044c-0.003,-0.001 -0.003,-0.002 -0.002,-0.003 0,-0.001 0.001,-0.001 0.002,-0.002l0.001 -0.001 0.001 -0.001c0.001,-0.001 0.002,-0.001 0.002,-0.002 0.004,-0.003 0.007,-0.006 0.009,-0.01 0.003,-0.005 0.005,-0.01 0.005,-0.016 0,-0.005 -0.001,-0.01 -0.004,-0.014 -0.002,-0.004 -0.006,-0.006 -0.01,-0.007 -0.004,-0.001 -0.008,-0.001 -0.011,0.001 -0.004,0.002 -0.007,0.006 -0.009,0.012 -0.003,0.01 -0.007,0.016 -0.011,0.021 -0.002,0.002 -0.003,0.002 -0.004,0.002 -0.001,-0 -0.001,-0.002 -0,-0.004 0.002,-0.01 0.001,-0.018 -0.001,-0.023 -0.002,-0.004 -0.006,-0.007 -0.011,-0.007 -0.01,-0 -0.016,0.007 -0.019,0.021 -0.002,0.011 -0.001,0.027 0.002,0.047 0.003,0.02 0.008,0.036 0.013,0.047 0.007,0.014 0.015,0.019 0.024,0.017 0.008,-0.002 0.011,-0.01 0.01,-0.023 -0.001,-0.004 -0.002,-0.009 -0.003,-0.015 -0.001,-0.002 -0.001,-0.004 -0.002,-0.006 -0,-0.001 -0,-0.001 -0.001,-0.002l-0 -0.001 -0 -0 -0 -0c-0.001,-0.002 -0.001,-0.003 -0,-0.004 0.001,-0.001 0.002,-0.001 0.003,0 0.004,0.002 0.008,0.008 0.014,0.019 0.003,0.007 0.007,0.012 0.012,0.016 0.004,0.003 0.008,0.005 0.012,0.006 0.004,0 0.008,-0 0.011,-0.003 0.003,-0.002 0.006,-0.006 0.007,-0.01 0.002,-0.005 0.002,-0.01 0.001,-0.016 -0.001,-0.005 -0.003,-0.011 -0.007,-0.016 -0.008,-0.011 -0.019,-0.018 -0.033,-0.023zm0.093 -0.029c-0,0.002 -0.001,0.004 -0.002,0.005 -0.001,0.002 -0.002,0.003 -0.004,0.004 -0.002,0.001 -0.003,0.002 -0.005,0.002 0.002,-0.001 0.003,-0.002 0.004,-0.003 0.001,-0.001 0.002,-0.003 0.003,-0.004 0.002,-0.003 0.003,-0.006 0.003,-0.01 0.001,0.002 0.001,0.004 0,0.006zm-0.017 -0.004c0,-0.002 0.001,-0.004 0.003,-0.005 0.001,-0.001 0.003,-0.002 0.004,-0.001 0.001,0 0.002,0.001 0.003,0.003 0.001,0.002 0.001,0.004 0,0.006 -0,0.002 -0.001,0.004 -0.002,0.005 -0.001,0.001 -0.003,0.001 -0.004,0.001 -0.001,-0 -0.002,-0.001 -0.003,-0.003 -0.001,-0.002 -0.001,-0.004 -0,-0.006zm-0.021 -0.033c-0.003,0.003 -0.006,0.006 -0.008,0.01 -0.002,0.004 -0.003,0.008 -0.004,0.013 -0.001,0.004 -0.001,0.008 -0.001,0.014 -0,-0.002 -0,-0.004 -0,-0.007 0,-0.002 0,-0.005 0.001,-0.007 0.001,-0.005 0.002,-0.009 0.004,-0.013 0.002,-0.004 0.005,-0.008 0.009,-0.01 0.002,-0.001 0.004,-0.002 0.006,-0.003 0.002,-0.001 0.004,-0.002 0.006,-0.002 -0.004,0.002 -0.008,0.004 -0.011,0.006zm0.013 -0.014c-0.011,0.002 -0.02,0.008 -0.026,0.017 -0.005,0.008 -0.008,0.017 -0.008,0.029 -0,0.011 0.002,0.022 0.006,0.034 0.004,0.011 0.009,0.022 0.016,0.031 0.006,0.009 0.013,0.015 0.019,0.019 0.006,0.004 0.011,0.005 0.015,0.004 0.004,-0.001 0.007,-0.003 0.01,-0.006 0.002,-0.004 0.003,-0.008 0.002,-0.014 -0,-0.004 -0.001,-0.008 -0.003,-0.012 -0.001,-0.001 -0.001,-0.003 -0.002,-0.005l-0.001 -0.002c-0,-0.001 -0.001,-0.002 -0.001,-0.002 -0.001,-0.003 -0.002,-0.006 -0.002,-0.008 0,-0.003 0.001,-0.005 0.004,-0.007 0.008,-0.007 0.013,-0.015 0.016,-0.025 0.002,-0.009 0.002,-0.018 -0.001,-0.027 -0.003,-0.009 -0.008,-0.016 -0.016,-0.02 -0.008,-0.005 -0.018,-0.006 -0.028,-0.004zm0.124 0.067c-0.001,0.002 -0.002,0.003 -0.003,0.005 -0.001,0.001 -0.003,0.002 -0.005,0.002 0.003,-0.002 0.005,-0.005 0.006,-0.008 0.001,-0.003 0.002,-0.006 0.001,-0.01 0.002,0.004 0.002,0.007 0,0.011zm-0.02 -0.005c-0.001,-0.002 -0.001,-0.004 -0,-0.007 0.001,-0.002 0.002,-0.003 0.003,-0.004 0.002,-0.001 0.004,-0.001 0.005,0.001 0.002,0.001 0.003,0.003 0.004,0.005 0.001,0.002 0.001,0.004 0,0.006 -0.001,0.002 -0.002,0.004 -0.003,0.004 -0.002,0.001 -0.004,0.001 -0.005,-0.001 -0.002,-0.001 -0.003,-0.003 -0.004,-0.005zm-0.021 -0.069c-0.004,0.003 -0.007,0.006 -0.01,0.011 -0.002,0.004 -0.004,0.008 -0.006,0.014l-0 0.002 -0 0.002 -0.001 0.004 -0.001 0.004 -0 0.004c-0,-0.005 0,-0.011 0.001,-0.016 0.001,-0.005 0.003,-0.01 0.006,-0.014 0.003,-0.005 0.006,-0.008 0.01,-0.011 0.002,-0.001 0.004,-0.002 0.006,-0.003l0.002 -0.001 0.002 -0 0.004 -0.001c-0.005,0.002 -0.009,0.004 -0.013,0.006zm0.026 -0.015c-0.018,-0.001 -0.032,0.006 -0.041,0.019 -0.008,0.012 -0.011,0.027 -0.01,0.045 0.002,0.018 0.007,0.033 0.017,0.047 0.01,0.014 0.023,0.022 0.037,0.023 0.014,0.001 0.025,-0.006 0.034,-0.019 0.008,-0.012 0.012,-0.028 0.013,-0.046 0,-0.018 -0.003,-0.034 -0.011,-0.047 -0.009,-0.014 -0.022,-0.022 -0.038,-0.022zm0.175 0.053c-0.001,0.002 -0.002,0.003 -0.003,0.005 -0.001,0.001 -0.003,0.002 -0.005,0.002 0.003,-0.002 0.005,-0.005 0.006,-0.008 0.001,-0.003 0.002,-0.006 0.001,-0.01 0.002,0.004 0.002,0.007 0,0.011zm-0.02 -0.005c-0.001,-0.002 -0.001,-0.004 -0,-0.006 0.001,-0.002 0.002,-0.004 0.004,-0.004 0.002,-0.001 0.004,-0.001 0.005,0.001 0.002,0.001 0.003,0.003 0.004,0.005 0.001,0.002 0.001,0.004 0,0.007 -0.001,0.002 -0.002,0.003 -0.003,0.004 -0.002,0.001 -0.003,0.001 -0.005,-0.001 -0.002,-0.001 -0.003,-0.003 -0.004,-0.005zm-0.02 -0.069c-0.004,0.003 -0.007,0.006 -0.01,0.011 -0.002,0.004 -0.004,0.008 -0.006,0.014l-0 0.002 -0 0.002 -0.001 0.004 -0.001 0.004 -0 0.004c-0,-0.005 0,-0.01 0.002,-0.015 0.001,-0.005 0.003,-0.01 0.006,-0.014 0.003,-0.005 0.006,-0.008 0.01,-0.011 0.002,-0.001 0.004,-0.003 0.007,-0.003l0.002 -0.001 0.002 -0.001 0.004 -0.001c-0.005,0.002 -0.009,0.004 -0.013,0.006zm-0.08 0.019c-0.001,0.001 -0.001,0.003 -0.001,0.004 -0,0.001 -0,0.003 0,0.005 0,0.002 0.001,0.005 0.003,0.009l0.002 0.004 0.002 0.005c-0.002,-0.003 -0.004,-0.006 -0.005,-0.008 -0.002,-0.003 -0.003,-0.006 -0.003,-0.009 -0,-0.002 -0,-0.004 -0,-0.005 0,-0.002 0.001,-0.004 0.002,-0.005 0.002,-0.002 0.005,-0.004 0.008,-0.004 -0.003,0.001 -0.005,0.003 -0.007,0.005zm0.106 -0.034c-0.017,-0.001 -0.03,0.005 -0.039,0.017 -0.008,0.01 -0.012,0.024 -0.012,0.041 0,0.001 -0,0.003 -0.001,0.004 -0.001,0.001 -0.002,0.002 -0.003,0.002l-0 0c-0.001,0 -0.003,-0 -0.004,-0.001 -0.001,-0.001 -0.002,-0.002 -0.002,-0.003 -0.004,-0.012 -0.008,-0.021 -0.013,-0.027 -0.004,-0.004 -0.008,-0.008 -0.012,-0.009 -0.004,-0.002 -0.008,-0.002 -0.012,-0.002 -0.004,0.001 -0.007,0.002 -0.01,0.004 -0.003,0.002 -0.005,0.005 -0.005,0.009 -0.001,0.007 0.001,0.015 0.006,0.026 0.001,0.002 0.002,0.004 0.004,0.007l0.002 0.003 0.002 0.003c0.003,0.005 0.005,0.01 0.006,0.014 0.003,0.009 0.006,0.018 0.008,0.028 0.001,0.003 0.001,0.007 0.002,0.011l0 0.002 0 0.002c0,0.002 0.001,0.003 0.001,0.004 0.001,0.006 0.003,0.01 0.004,0.012 0.002,0.003 0.004,0.004 0.008,0.004 0.005,0 0.009,-0.003 0.012,-0.009 0.003,-0.006 0.004,-0.013 0.005,-0.023 0,-0.003 0.001,-0.006 0.003,-0.008 0.002,-0.002 0.004,-0.003 0.007,-0.004 0.004,-0.001 0.007,0 0.009,0.002 0.005,0.007 0.01,0.013 0.017,0.017 0.007,0.004 0.014,0.007 0.021,0.007 0.014,0.001 0.025,-0.006 0.034,-0.019 0.008,-0.012 0.012,-0.028 0.013,-0.046 0,-0.018 -0.003,-0.034 -0.011,-0.047 -0.009,-0.014 -0.022,-0.022 -0.038,-0.022z"/>
  </g>
 </g>
</svg>
