<?xml version="1.0" encoding="UTF-8"?>
<!DOCTYPE svg PUBLIC "-//W3C//DTD SVG 1.1//EN" "http://www.w3.org/Graphics/SVG/1.1/DTD/svg11.dtd">
<!-- Creator: CorelDRAW 2019 (64-Bit) -->
<svg xmlns="http://www.w3.org/2000/svg" xml:space="preserve" width="1.43984cm" height="0.50799cm" version="1.1" style="shape-rendering:geometricPrecision; text-rendering:geometricPrecision; image-rendering:optimizeQuality; fill-rule:evenodd; clip-rule:evenodd"
viewBox="0 0 0.945 0.334"
 xmlns:xlink="http://www.w3.org/1999/xlink"
 xmlns:xodm="http://www.corel.com/coreldraw/odm/2003">
 <defs>
  <style type="text/css">
   <![CDATA[
    .fil0 {fill:#9C6921;fill-rule:nonzero}
   ]]>
  </style>
 </defs>
 <g id="Слой_x0020_1">
  <metadata id="CorelCorpID_0Corel-Layer"/>
  <path class="fil0" d="M0.005 0.006l0.211 0 0.005 0.098 -0.013 0c-0.005,-0.032 -0.011,-0.055 -0.019,-0.066 -0.008,-0.012 -0.021,-0.018 -0.038,-0.018 -0.009,0 -0.015,0.001 -0.017,0.004 -0.002,0.002 -0.003,0.007 -0.003,0.015l0 0.189c0,0.007 0.001,0.011 0.004,0.013 0.003,0.002 0.007,0.004 0.015,0.004l0.022 0 0 0.017 -0.12 0 0 -0.017 0.023 0c0.007,0 0.012,-0.001 0.015,-0.004 0.003,-0.002 0.004,-0.007 0.004,-0.013l0 -0.189c0,-0.007 -0.001,-0.012 -0.003,-0.015 -0.002,-0.003 -0.008,-0.004 -0.017,-0.004 -0.017,0 -0.03,0.006 -0.038,0.018 -0.008,0.012 -0.015,0.034 -0.019,0.067l-0.013 0 0.005 -0.098zm0.314 0.25l-0.056 -0.129c-0.002,-0.006 -0.005,-0.01 -0.009,-0.012 -0.004,-0.002 -0.009,-0.003 -0.016,-0.003l-0.002 0 0 -0.015 0.082 0 0 0.015 -0.01 0 -0.005 0c-0.003,0 -0.005,0.001 -0.007,0.002 -0.002,0.001 -0.002,0.003 -0.002,0.006 0,0.001 0,0.002 0.001,0.004 0.001,0.002 0.002,0.004 0.003,0.006l0.037 0.086 0.035 -0.084c0.001,-0.001 0.001,-0.002 0.001,-0.004 0,-0.001 0.001,-0.003 0.001,-0.004 0,-0.004 -0.002,-0.008 -0.005,-0.009 -0.003,-0.002 -0.01,-0.003 -0.02,-0.003l-0 -0.015 0.068 0 0 0.015c-0.007,0 -0.012,0.001 -0.016,0.004 -0.004,0.003 -0.008,0.008 -0.011,0.015l-0.059 0.139c-0.01,0.023 -0.02,0.04 -0.031,0.049 -0.011,0.01 -0.023,0.015 -0.037,0.015 -0.01,0 -0.018,-0.002 -0.024,-0.007 -0.006,-0.005 -0.009,-0.012 -0.009,-0.02 0,-0.006 0.002,-0.011 0.006,-0.015 0.004,-0.004 0.009,-0.006 0.015,-0.006 0.006,0 0.01,0.002 0.013,0.005 0.003,0.003 0.005,0.008 0.005,0.013 0,0.002 -0,0.004 -0.001,0.006 -0.001,0.002 -0.001,0.003 -0.001,0.003 0,0.001 0.001,0.002 0.002,0.003 0.001,0.001 0.003,0.001 0.005,0.001 0.006,0 0.014,-0.005 0.022,-0.015 0.008,-0.01 0.016,-0.023 0.022,-0.04l0.002 -0.006zm0.187 -0.15c-0.013,0 -0.023,0.006 -0.03,0.018 -0.007,0.012 -0.01,0.03 -0.01,0.055 0,0.025 0.003,0.043 0.01,0.055 0.007,0.012 0.017,0.018 0.031,0.018 0.013,0 0.023,-0.006 0.03,-0.018 0.007,-0.012 0.01,-0.03 0.01,-0.055 0,-0.025 -0.003,-0.043 -0.01,-0.055 -0.007,-0.012 -0.017,-0.018 -0.031,-0.018zm0.058 -0.106l0.013 0c-0.001,0.028 -0.019,0.045 -0.052,0.052 -0.005,0.001 -0.008,0.002 -0.011,0.002 -0.022,0.004 -0.038,0.012 -0.047,0.023 -0.009,0.011 -0.016,0.029 -0.021,0.055 0.007,-0.013 0.016,-0.023 0.026,-0.029 0.011,-0.007 0.023,-0.01 0.036,-0.01 0.022,0 0.04,0.008 0.054,0.025 0.014,0.016 0.021,0.037 0.021,0.063 0,0.025 -0.007,0.046 -0.022,0.063 -0.015,0.016 -0.033,0.024 -0.055,0.024 -0.024,0 -0.043,-0.009 -0.057,-0.026 -0.013,-0.018 -0.02,-0.043 -0.02,-0.076 0,-0.038 0.006,-0.069 0.018,-0.092 0.012,-0.023 0.029,-0.039 0.051,-0.045 0.008,-0.002 0.018,-0.004 0.031,-0.007 0.021,-0.003 0.033,-0.01 0.034,-0.019zm0.151 0.173c-0.026,0.003 -0.045,0.009 -0.057,0.016 -0.012,0.007 -0.018,0.017 -0.018,0.029 0,0.01 0.002,0.017 0.007,0.022 0.005,0.005 0.012,0.007 0.021,0.007 0.014,0 0.026,-0.004 0.035,-0.013 0.008,-0.009 0.013,-0.021 0.013,-0.037l0 -0.023zm0.002 0.065c-0.006,0.008 -0.015,0.015 -0.027,0.02 -0.012,0.005 -0.024,0.008 -0.036,0.008 -0.015,0 -0.026,-0.004 -0.035,-0.012 -0.009,-0.008 -0.013,-0.018 -0.013,-0.031 0,-0.017 0.009,-0.031 0.026,-0.041 0.017,-0.01 0.045,-0.018 0.084,-0.025l0 -0.025c0,-0.008 -0.003,-0.014 -0.01,-0.019 -0.007,-0.004 -0.016,-0.007 -0.028,-0.007 -0.009,0 -0.017,0.001 -0.023,0.004 -0.006,0.002 -0.009,0.005 -0.009,0.009 0,0.001 0.001,0.003 0.004,0.007 0.003,0.004 0.004,0.008 0.004,0.013 0,0.006 -0.002,0.01 -0.005,0.013 -0.003,0.003 -0.008,0.005 -0.013,0.005 -0.007,0 -0.012,-0.002 -0.015,-0.005 -0.004,-0.004 -0.006,-0.008 -0.006,-0.015 0,-0.013 0.006,-0.024 0.019,-0.032 0.013,-0.009 0.029,-0.013 0.049,-0.013 0.022,0 0.039,0.004 0.049,0.012 0.01,0.008 0.015,0.021 0.015,0.04l0 0 0 0.083c0,0.005 0.001,0.008 0.003,0.011 0.002,0.003 0.006,0.004 0.01,0.004 0.003,0 0.005,-0.001 0.009,-0.002 0.003,-0.002 0.005,-0.002 0.006,-0.002 0.001,0 0.003,0.001 0.003,0.002 0.001,0.001 0.001,0.002 0.001,0.004 0,0.005 -0.003,0.009 -0.01,0.014 -0.007,0.005 -0.014,0.007 -0.023,0.007 -0.008,0 -0.015,-0.002 -0.02,-0.007 -0.005,-0.005 -0.009,-0.011 -0.01,-0.019zm0.104 0.023l0 -0.015 0.016 -0.001c0.005,-0 0.008,-0.001 0.01,-0.003 0.002,-0.002 0.002,-0.005 0.002,-0.01l0 -0.111c0,-0.003 -0.001,-0.006 -0.003,-0.007 -0.002,-0.002 -0.005,-0.002 -0.009,-0.002 -0.013,0 -0.022,0.004 -0.027,0.011 -0.006,0.007 -0.01,0.021 -0.014,0.041l-0.011 0 0.003 -0.066 0.153 0 0.004 0.066 -0.012 0c-0.004,-0.021 -0.008,-0.035 -0.014,-0.041 -0.006,-0.007 -0.014,-0.01 -0.027,-0.01 -0.004,0 -0.007,0.001 -0.009,0.003 -0.002,0.002 -0.003,0.005 -0.003,0.01l0 0.108c0,0.005 0.001,0.009 0.002,0.01 0.002,0.002 0.005,0.003 0.01,0.003l0.016 0.001 0 0.015 -0.088 0z"/>
 </g>
</svg>
