<?xml version="1.0" encoding="UTF-8"?>
<!DOCTYPE svg PUBLIC "-//W3C//DTD SVG 1.1//EN" "http://www.w3.org/Graphics/SVG/1.1/DTD/svg11.dtd">
<!-- Creator: CorelDRAW 2019 (64-Bit) -->
<svg xmlns="http://www.w3.org/2000/svg" xml:space="preserve" width="9.7862mm" height="7.3099mm" version="1.1" style="shape-rendering:geometricPrecision; text-rendering:geometricPrecision; image-rendering:optimizeQuality; fill-rule:evenodd; clip-rule:evenodd"
viewBox="0 0 6.22 4.65"
 xmlns:xlink="http://www.w3.org/1999/xlink"
 xmlns:xodm="http://www.corel.com/coreldraw/odm/2003">
 <defs>
  <style type="text/css">
   <![CDATA[
    .fil0 {fill:#EDF1A7}
    .fil1 {fill:#C4A655;fill-rule:nonzero}
   ]]>
  </style>
 </defs>
 <g id="Слой_x0020_1">
  <metadata id="CorelCorpID_0Corel-Layer"/>
  <path class="fil0" d="M2.97 1.3c1.32,0 2.4,0.89 2.4,2 0,1.1 -1.05,1.35 -2.38,1.35 -1.32,0 -2.42,-0.24 -2.42,-1.35 0,-1.1 1.07,-2 2.4,-2z"/>
  <ellipse class="fil0" transform="matrix(1.12475 -0.24905 0.226492 0.927485 2.19391 0.526698)" rx="0.57" ry="0.55"/>
  <ellipse class="fil0" transform="matrix(1.11419 0.280277 -0.243953 0.969787 4.04135 0.62009)" rx="0.57" ry="0.53"/>
  <ellipse class="fil0" transform="matrix(0.86054 0.509382 -0.451524 0.762795 5.62589 1.5903)" rx="0.61" ry="0.63"/>
  <ellipse class="fil0" transform="matrix(0.778223 -0.672232 0.554266 0.622581 0.636319 1.37347)" rx="0.68" ry="0.64"/>
  <path class="fil1" d="M1.95 2.59c-0.01,0.01 -0.02,0.02 -0.03,0.04 -0.02,0.02 -0.03,0.05 -0.05,0.09l-0.01 0.02 -0.01 0.02c-0.01,0.02 -0.02,0.03 -0.03,0.04 -0.01,0.02 -0.02,0.03 -0.03,0.04 -0.01,0.01 -0.03,0.02 -0.04,0.02 0.01,-0.01 0.03,-0.02 0.04,-0.03 0.01,-0.01 0.02,-0.02 0.03,-0.04 0.01,-0.01 0.01,-0.03 0.02,-0.05l0.02 -0.04c0.02,-0.04 0.04,-0.07 0.06,-0.09 0.01,-0.02 0.02,-0.03 0.04,-0.04 0.02,-0.01 0.03,-0.02 0.04,-0.02 -0.01,0 -0.03,0.01 -0.04,0.03zm-0.5 0.75c-0.01,0.01 -0.02,0.02 -0.03,0.03 -0.02,0.02 -0.04,0.04 -0.06,0.06 -0.01,0.01 -0.01,0.02 -0.02,0.03 -0,0.01 -0.01,0.02 -0.01,0.04 -0,-0.01 0,-0.03 0,-0.04 0,-0.01 0.01,-0.03 0.02,-0.04 0.01,-0.02 0.03,-0.04 0.06,-0.06 0.02,-0.01 0.04,-0.03 0.06,-0.05l0.02 -0.01 0.02 -0.01c0.01,-0.01 0.02,-0.02 0.03,-0.02 -0.01,0.02 -0.03,0.04 -0.06,0.06l-0.03 0.02zm-0.13 -0.68c-0.01,0.01 -0.01,0.02 -0.02,0.04 -0,0.01 -0.01,0.03 -0.01,0.05 -0.01,-0.02 -0.01,-0.03 -0.01,-0.05 0,-0.02 0.01,-0.03 0.02,-0.05 0.01,-0.01 0.02,-0.03 0.04,-0.03 0.02,-0.01 0.03,-0.01 0.05,-0.01 -0.03,0.01 -0.05,0.02 -0.07,0.05zm0.67 -0.16c-0.03,0 -0.06,0.02 -0.09,0.05 -0.02,0.02 -0.05,0.06 -0.07,0.1l-0.02 0.03 -0.01 0.01 -0.01 0.01c-0.01,0.02 -0.02,0.04 -0.03,0.05 -0.02,0.03 -0.03,0.05 -0.05,0.05 -0.01,0 -0.04,-0.02 -0.07,-0.07l-0.01 -0.01 -0.01 -0.01c-0,-0.01 -0.01,-0.01 -0.01,-0.02 -0.01,-0.01 -0.02,-0.02 -0.03,-0.04 -0.02,-0.03 -0.05,-0.05 -0.07,-0.07 -0.04,-0.03 -0.08,-0.05 -0.12,-0.05 -0.04,0 -0.07,0.01 -0.1,0.04 -0.03,0.03 -0.05,0.06 -0.05,0.1 -0.01,0.04 0,0.09 0.02,0.13 0.02,0.03 0.04,0.06 0.07,0.1 0.01,0.01 0.03,0.03 0.04,0.04l0.02 0.02 0.02 0.02c0.04,0.03 0.06,0.06 0.07,0.08 0.02,0.03 0.03,0.05 0.03,0.07 0,0.02 -0.01,0.04 -0.04,0.07 -0.01,0.01 -0.02,0.02 -0.04,0.03l-0.01 0.01 -0.01 0.01 -0.02 0.02c-0.04,0.03 -0.07,0.06 -0.09,0.08 -0.03,0.04 -0.04,0.08 -0.04,0.12 -0,0.04 0,0.07 0.02,0.1 0.01,0.03 0.03,0.05 0.06,0.07 0.06,0.04 0.13,0.05 0.21,0.02 0.11,-0.04 0.23,-0.14 0.34,-0.32 0.1,-0.16 0.17,-0.31 0.2,-0.45 0.03,-0.15 0.03,-0.25 0,-0.32 -0.02,-0.06 -0.06,-0.09 -0.12,-0.09z"/>
  <path id="1" class="fil1" d="M2.96 3.29c-0,0.02 -0.01,0.04 -0.03,0.05 -0.01,0.01 -0.03,0.02 -0.05,0.02 -0.02,0 -0.03,0 -0.05,0 0.02,-0 0.04,-0.01 0.05,-0.01 0.02,-0.01 0.03,-0.01 0.04,-0.02 0.01,-0.01 0.02,-0.02 0.03,-0.04 0,-0.01 0.01,-0.03 0.01,-0.05 0,0.02 0,0.04 0,0.06zm-0.2 -0.02c-0.01,-0.02 -0.01,-0.05 0.01,-0.09 0.02,-0.04 0.04,-0.07 0.06,-0.07 0.02,0 0.04,0.02 0.06,0.07 0.01,0.02 0.01,0.04 0.01,0.06 0,0.02 -0,0.03 -0.01,0.04 -0.01,0.01 -0.03,0.02 -0.06,0.02 -0.03,-0 -0.06,-0.01 -0.07,-0.03zm-0.1 -0.54c-0.02,0.03 -0.04,0.07 -0.06,0.11 -0.01,0.03 -0.03,0.07 -0.05,0.12 0.01,-0.04 0.02,-0.08 0.04,-0.13 0.01,-0.04 0.03,-0.08 0.06,-0.12 0.03,-0.04 0.05,-0.07 0.08,-0.1 0.02,-0.01 0.03,-0.02 0.05,-0.03 0.02,-0.01 0.04,-0.01 0.06,-0.01 -0.04,0 -0.07,0.02 -0.1,0.06 -0.03,0.03 -0.05,0.06 -0.08,0.1zm-0.34 0.66c-0.01,0.01 -0.02,0.01 -0.03,0.02 -0.01,0.01 -0.02,0.02 -0.02,0.03 -0,-0.01 0,-0.03 0.01,-0.04 0.01,-0.01 0.02,-0.02 0.03,-0.03 0.02,-0.01 0.05,-0.02 0.07,-0.02l-0.02 0.01 -0.02 0.01c-0.01,0.01 -0.02,0.01 -0.03,0.02zm0.94 -0.1c-0.02,-0.01 -0.04,-0.02 -0.04,-0.03 -0.01,-0.01 -0.01,-0.03 -0.02,-0.05 -0,-0.01 -0,-0.04 -0.01,-0.08 -0,-0.02 -0,-0.04 -0,-0.05 -0,-0.02 -0,-0.04 -0.01,-0.06 -0.02,-0.17 -0.06,-0.29 -0.13,-0.38 -0.06,-0.08 -0.13,-0.13 -0.21,-0.13 -0.07,-0 -0.13,0.04 -0.2,0.12 -0.07,0.08 -0.12,0.19 -0.15,0.32 -0.01,0.05 -0.02,0.1 -0.03,0.16 -0,0.01 -0,0.02 -0,0.03l-0 0.01 -0 0.01c-0,0.02 -0,0.04 -0.01,0.04 -0,0.03 -0.01,0.05 -0.02,0.06 -0.01,0.01 -0.03,0.02 -0.05,0.03 -0.07,0.02 -0.11,0.04 -0.14,0.08 -0.02,0.03 -0.03,0.07 -0.02,0.12 0.02,0.07 0.09,0.12 0.21,0.16 0.11,0.03 0.24,0.05 0.41,0.06 0.15,0 0.26,-0 0.34,-0.02 0.12,-0.02 0.19,-0.06 0.23,-0.13 0.03,-0.06 0.03,-0.12 0.01,-0.17 -0.03,-0.05 -0.08,-0.09 -0.15,-0.11z"/>
  <path id="2" class="fil1" d="M4.36 2.59c-0.01,0.01 -0.02,0.02 -0.04,0.04 -0.02,0.02 -0.04,0.05 -0.06,0.09l-0.01 0.02 -0.02 0.02c-0.01,0.02 -0.02,0.03 -0.04,0.04 -0.01,0.01 -0.03,0.02 -0.04,0.03 -0.02,0.01 -0.04,0.01 -0.05,0.01 0.03,-0 0.06,-0.02 0.09,-0.05 0.01,-0.01 0.02,-0.03 0.03,-0.04l0.01 -0.02 0.01 -0.02c0.03,-0.04 0.05,-0.07 0.07,-0.09 0.02,-0.02 0.03,-0.03 0.04,-0.04 0.02,-0.01 0.03,-0.01 0.05,-0.01 -0.02,0 -0.03,0.01 -0.05,0.02zm-0.62 0.08c-0.02,0.03 -0.04,0.06 -0.05,0.09 -0.01,0.02 -0.02,0.06 -0.04,0.1 -0.01,0.02 -0.01,0.04 -0.02,0.05l-0.01 0.03 -0.01 0.03c0.01,-0.08 0.04,-0.15 0.06,-0.22 0.02,-0.04 0.04,-0.07 0.06,-0.1 0.01,-0.01 0.03,-0.03 0.04,-0.04 0.02,-0.01 0.03,-0.01 0.05,-0.01 -0.03,0 -0.06,0.02 -0.08,0.06zm0.94 0.41c-0.01,-0.17 -0.03,-0.3 -0.08,-0.41 -0.05,-0.1 -0.1,-0.15 -0.16,-0.16 -0.05,-0.01 -0.09,0.01 -0.13,0.04 -0.03,0.03 -0.07,0.08 -0.11,0.15 -0.04,0.06 -0.07,0.09 -0.1,0.09 -0.02,-0 -0.04,-0.03 -0.07,-0.08 -0.03,-0.05 -0.06,-0.09 -0.09,-0.12 -0.04,-0.03 -0.08,-0.05 -0.12,-0.04 -0.11,0.01 -0.19,0.15 -0.26,0.41 -0.04,0.17 -0.06,0.32 -0.05,0.45 0.01,0.15 0.05,0.24 0.13,0.25 0.04,0.01 0.08,-0 0.12,-0.04 0.03,-0.03 0.05,-0.07 0.07,-0.12 0.01,-0.02 0.02,-0.04 0.02,-0.07l0.01 -0.02 0.01 -0.02c0,-0.01 0.01,-0.02 0.01,-0.03 0.02,-0.04 0.03,-0.07 0.04,-0.07 0.01,-0 0.02,0 0.03,0.03 0,0.01 0.01,0.02 0.01,0.03l0 0.01 0 0.01 0.01 0.02c0.01,0.03 0.03,0.06 0.04,0.08 0.02,0.02 0.05,0.04 0.08,0.04 0.02,0 0.04,-0.01 0.06,-0.03 0.01,-0.01 0.03,-0.03 0.05,-0.06l0.01 -0.02 0.01 -0.02c0.01,-0.01 0.01,-0.02 0.02,-0.03 0.01,-0.02 0.03,-0.02 0.04,-0.02 0.01,0.01 0.02,0.03 0.04,0.07 0,0.01 0.01,0.02 0.01,0.03l0 0.02 0 0.02c0.01,0.03 0.02,0.05 0.02,0.06 0.02,0.05 0.04,0.09 0.06,0.12 0.03,0.04 0.06,0.05 0.1,0.06 0.07,0 0.12,-0.06 0.15,-0.18 0.03,-0.11 0.03,-0.26 0.03,-0.45z"/>
 </g>
</svg>
