<?xml version="1.0" encoding="UTF-8" standalone="no"?>
<svg
   xmlns:dc="http://purl.org/dc/elements/1.1/"
   xmlns:cc="http://creativecommons.org/ns#"
   xmlns:rdf="http://www.w3.org/1999/02/22-rdf-syntax-ns#"
   xmlns:svg="http://www.w3.org/2000/svg"
   xmlns="http://www.w3.org/2000/svg"
   xmlns:sodipodi="http://sodipodi.sourceforge.net/DTD/sodipodi-0.dtd"
   xmlns:inkscape="http://www.inkscape.org/namespaces/inkscape"
   width="34.612797mm"
   height="34.480282mm"
   viewBox="0 0 34.612796 34.48028"
   version="1.1"
   id="svg8"
   inkscape:version="1.0.1 (3bc2e813f5, 2020-09-07)"
   sodipodi:docname="UhoP.svg">
  <defs
     id="defs2" />
  <sodipodi:namedview
     id="base"
     pagecolor="#ffffff"
     bordercolor="#666666"
     borderopacity="1.0"
     inkscape:pageopacity="0.0"
     inkscape:pageshadow="2"
     inkscape:zoom="1.979899"
     inkscape:cx="94.741111"
     inkscape:cy="60.956433"
     inkscape:document-units="mm"
     inkscape:current-layer="layer1"
     inkscape:document-rotation="0"
     showgrid="false"
     fit-margin-top="0"
     fit-margin-left="0"
     fit-margin-right="0"
     fit-margin-bottom="0"
     inkscape:window-width="1264"
     inkscape:window-height="967"
     inkscape:window-x="0"
     inkscape:window-y="0"
     inkscape:window-maximized="0" />
  <metadata
     id="metadata5">
    <rdf:RDF>
      <cc:Work
         rdf:about="">
        <dc:format>image/svg+xml</dc:format>
        <dc:type
           rdf:resource="http://purl.org/dc/dcmitype/StillImage" />
        <dc:title></dc:title>
      </cc:Work>
    </rdf:RDF>
  </metadata>
  <g
     inkscape:label="Слой 1"
     inkscape:groupmode="layer"
     id="layer1"
     transform="translate(-33.52155,-176.66468)">
    <path
       style="fill:#000000;stroke-width:0.215072"
       id="path26"
       d="" />
    <g
       id="g114"
       transform="matrix(-0.65831186,0.75274531,0.75274531,0.65831186,-66.49963,25.114513)">
      <g
         id="g98"
         transform="translate(-20.93181,1.6891534)">
        <path
           style="fill:#b5c41e;fill-opacity:1;stroke-width:0.215072"
           d="m 57.378661,205.63096 c -0.03098,-0.03 -0.90405,0.0118 -1.94016,0.0929 -1.03611,0.0811 -1.85876,0.0874 -1.828112,0.014 0.974126,-2.33165 10.435981,-22.66927 14.083445,-30.34198 1.060155,-2.36246 2.179376,-1.74854 3.142443,-0.3553 4.843943,7.35228 18.239757,28.02368 18.144493,28.04678 -0.03466,0.008 -0.910305,0.0895 -1.945883,0.18022 -1.035576,0.0907 -1.940988,0.22305 -2.012026,0.29409 -6.417288,0.46794 -18.375055,1.3524 -27.6442,2.06929 z"
           id="path100"
           sodipodi:nodetypes="csccccccc" />
      </g>
      <g
         id="g108"
         transform="translate(51.454755,0.04534501)"
         style="fill:#ef7f1a;fill-opacity:1">
        <path
           style="fill:#ef7f1a;fill-opacity:1;stroke-width:0.215072"
           d="m -14.413156,210.28494 c 0,-0.065 0.638572,-1.02802 1.303556,-2.48639 0.664985,-1.45839 1.437502,-3.15853 1.716705,-3.77811 l 0.507643,-1.12651 c 0,0 4.604009,-10.32054 7.3652007,-15.78471 0.7559761,-1.41632 1.5476897,-1.3976 2.5794357,-0.009 5.0434636,7.14477 7.2509061,10.5937 10.15076,14.41156 0.05869,0.15293 1.0824166,1.73696 2.2749566,3.52006 1.378953,2.06183 2.068084,3.27237 1.893085,3.32542 -9.4393384,0.98554 -16.8685009,1.17348 -26.76975,1.92038 -0.561876,0.0689 -1.021592,0.0721 -1.021592,0.007 z"
           id="path104"
           sodipodi:nodetypes="ccsccccscccc" />
      </g>
    </g>
  </g>
</svg>
