<?xml version="1.0" encoding="UTF-8"?>
<!DOCTYPE svg PUBLIC "-//W3C//DTD SVG 1.1//EN" "http://www.w3.org/Graphics/SVG/1.1/DTD/svg11.dtd">
<!-- Creator: CorelDRAW 2019 (64-Bit) -->
<svg xmlns="http://www.w3.org/2000/svg" xml:space="preserve" width="1.31099cm" height="0.4064cm" version="1.1" style="shape-rendering:geometricPrecision; text-rendering:geometricPrecision; image-rendering:optimizeQuality; fill-rule:evenodd; clip-rule:evenodd"
viewBox="0 0 0.784 0.243"
 xmlns:xlink="http://www.w3.org/1999/xlink"
 xmlns:xodm="http://www.corel.com/coreldraw/odm/2003">
 <defs>
  <style type="text/css">
   <![CDATA[
    .fil0 {fill:#9C6921;fill-rule:nonzero}
   ]]>
  </style>
 </defs>
 <g id="Слой_x0020_1">
  <metadata id="CorelCorpID_0Corel-Layer"/>
  <path class="fil0" d="M0.034 0.033c-0.003,-0.007 -0.006,-0.011 -0.009,-0.014 -0.003,-0.002 -0.008,-0.004 -0.014,-0.004 -0,0 -0,-0 -0.001,-0 -0.001,-0 -0.002,-0 -0.003,-0l-0.008 0 0 -0.015 0.098 0 0 0.015 -0.012 0c-0,0 -0.001,0 -0.002,0 -0.001,0 -0.002,0 -0.002,0 -0.005,0 -0.009,0.001 -0.012,0.002 -0.002,0.001 -0.004,0.003 -0.004,0.006 0,0.002 0.001,0.005 0.003,0.01 0.001,0.002 0.002,0.003 0.002,0.005l0.049 0.112 0.042 -0.098c0.001,-0.003 0.002,-0.006 0.003,-0.009 0.001,-0.004 0.001,-0.007 0.001,-0.01 0,-0.005 -0.002,-0.01 -0.006,-0.012 -0.004,-0.003 -0.01,-0.004 -0.018,-0.004l-0.009 0 0 -0.015 0.086 0 0 0.015c-0.001,0 -0.002,0 -0.003,0 -0.001,0 -0.002,0 -0.003,0 -0.012,0 -0.022,0.008 -0.029,0.025 -0,0.001 -0.001,0.002 -0.001,0.002l-0.051 0.12c-0.014,0.033 -0.026,0.055 -0.037,0.065 -0.01,0.01 -0.023,0.015 -0.038,0.015 -0.015,0 -0.027,-0.005 -0.037,-0.014 -0.01,-0.01 -0.015,-0.022 -0.015,-0.037 0,-0.01 0.003,-0.019 0.008,-0.025 0.005,-0.006 0.012,-0.01 0.021,-0.01 0.007,0 0.013,0.002 0.017,0.007 0.005,0.004 0.007,0.01 0.007,0.017 0,0.007 -0.004,0.014 -0.011,0.019 -0.007,0.005 -0.011,0.01 -0.011,0.014 0,0.004 0.002,0.007 0.006,0.009 0.004,0.002 0.009,0.003 0.016,0.003 0.008,0 0.016,-0.003 0.023,-0.01 0.007,-0.006 0.013,-0.016 0.018,-0.028l-0.069 -0.156zm0.36 0.052l0 0.014 -0.015 0c-0.005,0 -0.008,0.001 -0.009,0.003 -0.001,0.002 -0.002,0.005 -0.002,0.01l0 0.099c0,0.005 0.001,0.008 0.002,0.01 0.001,0.002 0.004,0.002 0.009,0.003l0.015 0.001 0 0.014 -0.082 0 0 -0.014 0.015 -0.001c0.005,-0 0.008,-0.001 0.009,-0.003 0.001,-0.002 0.002,-0.005 0.002,-0.01l0 -0.111 -0.019 0c-0.017,0 -0.026,0.015 -0.028,0.044 -0.001,0.014 -0.002,0.025 -0.002,0.034 -0.002,0.024 -0.006,0.041 -0.012,0.049 -0.006,0.009 -0.015,0.013 -0.027,0.013 -0.008,0 -0.014,-0.002 -0.019,-0.007 -0.005,-0.005 -0.007,-0.01 -0.007,-0.016 0,-0.007 0.002,-0.012 0.005,-0.016 0.003,-0.004 0.008,-0.006 0.014,-0.006 0.004,0 0.008,0.001 0.011,0.004 0.003,0.003 0.004,0.006 0.004,0.01 0,0.004 -0.001,0.008 -0.004,0.011 -0.003,0.003 -0.004,0.005 -0.004,0.005 0,0.001 0,0.001 0.001,0.002 0.001,0 0.002,0.001 0.003,0.001 0.004,0 0.008,-0.002 0.011,-0.006 0.003,-0.004 0.005,-0.01 0.007,-0.017 0.002,-0.011 0.004,-0.024 0.006,-0.041 0.002,-0.017 0.002,-0.033 0.002,-0.048 0,-0.007 -0.001,-0.011 -0.003,-0.014 -0.002,-0.002 -0.006,-0.003 -0.012,-0.004l-0.013 -0 0 -0.014 0.143 0zm0.015 0.152l0 -0.014 0.015 -0.001c0.005,-0 0.008,-0.001 0.009,-0.003 0.001,-0.002 0.002,-0.005 0.002,-0.01l0 -0.099c0,-0.005 -0.001,-0.008 -0.002,-0.01 -0.001,-0.002 -0.004,-0.002 -0.009,-0.003l-0.015 -0.001 0 -0.014 0.06 0 0.042 0.113 0.04 -0.113 0.063 0 0 0.014 -0.015 0.001c-0.005,0 -0.008,0.001 -0.009,0.003 -0.001,0.002 -0.002,0.005 -0.002,0.01l0 0.099c0,0.005 0.001,0.008 0.002,0.01 0.001,0.002 0.004,0.002 0.009,0.003l0.015 0.001 0 0.014 -0.081 0 0 -0.014 0.015 -0.001c0.005,-0 0.008,-0.001 0.009,-0.003 0.001,-0.002 0.002,-0.005 0.002,-0.01l0 -0.11 -0.049 0.137 -0.011 0 -0.052 -0.137 0 0.11c0,0.005 0.001,0.008 0.002,0.01 0.001,0.002 0.004,0.002 0.009,0.003l0.015 0.001 0 0.014 -0.065 0zm0.3 -0.144c-0.014,0 -0.024,0.005 -0.03,0.016 -0.006,0.011 -0.01,0.028 -0.01,0.052 0,0.024 0.003,0.041 0.01,0.051 0.006,0.011 0.016,0.016 0.03,0.016 0.014,0 0.025,-0.005 0.031,-0.016 0.006,-0.011 0.01,-0.028 0.01,-0.052 0,-0.024 -0.003,-0.041 -0.01,-0.052 -0.006,-0.011 -0.017,-0.016 -0.03,-0.016zm0 -0.013c0.022,0 0.039,0.008 0.053,0.023 0.014,0.015 0.021,0.035 0.021,0.059 0,0.024 -0.007,0.044 -0.02,0.059 -0.014,0.015 -0.031,0.022 -0.053,0.022 -0.022,0 -0.039,-0.007 -0.053,-0.023 -0.014,-0.015 -0.021,-0.035 -0.021,-0.059 0,-0.024 0.007,-0.044 0.021,-0.059 0.014,-0.015 0.031,-0.023 0.053,-0.023z"/>
 </g>
</svg>
