<?xml version="1.0" encoding="UTF-8" standalone="no"?>
<svg
   xmlns:dc="http://purl.org/dc/elements/1.1/"
   xmlns:cc="http://creativecommons.org/ns#"
   xmlns:rdf="http://www.w3.org/1999/02/22-rdf-syntax-ns#"
   xmlns:svg="http://www.w3.org/2000/svg"
   xmlns="http://www.w3.org/2000/svg"
   xmlns:sodipodi="http://sodipodi.sourceforge.net/DTD/sodipodi-0.dtd"
   xmlns:inkscape="http://www.inkscape.org/namespaces/inkscape"
   width="20.582546mm"
   height="16.482689mm"
   viewBox="0 0 20.582546 16.482688"
   version="1.1"
   id="svg8"
   inkscape:version="1.0.1 (3bc2e813f5, 2020-09-07)"
   sodipodi:docname="usyL.svg">
  <defs
     id="defs2" />
  <sodipodi:namedview
     id="base"
     pagecolor="#ffffff"
     bordercolor="#666666"
     borderopacity="1.0"
     inkscape:pageopacity="0.0"
     inkscape:pageshadow="2"
     inkscape:zoom="2.8"
     inkscape:cx="4.7352542"
     inkscape:cy="-36.7325"
     inkscape:document-units="mm"
     inkscape:current-layer="layer1"
     inkscape:document-rotation="0"
     showgrid="false"
     fit-margin-top="0"
     fit-margin-left="0"
     fit-margin-right="0"
     fit-margin-bottom="0"
     inkscape:window-width="1280"
     inkscape:window-height="967"
     inkscape:window-x="0"
     inkscape:window-y="0"
     inkscape:window-maximized="0" />
  <metadata
     id="metadata5">
    <rdf:RDF>
      <cc:Work
         rdf:about="">
        <dc:format>image/svg+xml</dc:format>
        <dc:type
           rdf:resource="http://purl.org/dc/dcmitype/StillImage" />
        <dc:title></dc:title>
      </cc:Work>
    </rdf:RDF>
  </metadata>
  <g
     inkscape:label="Слой 1"
     inkscape:groupmode="layer"
     id="layer1"
     transform="translate(-37.320443,-184.38597)">
    <path
       style="fill:#000000;stroke-width:0.215072"
       id="path26"
       d="" />
    <g
       id="g30"
       transform="translate(-30.335091,17.639789)"
       style="fill:#b5c41e;fill-opacity:1">
      <path
         style="fill:#b5c41e;fill-opacity:1;stroke-width:0.215072"
         d="m 69.30332,182.89587 c -0.06138,-0.61378 -0.230315,-0.52559 0.603604,-0.75088 3.839221,-1.03717 13.244451,-1.10393 14.268806,-0.0928 0.229523,0.22655 0.331226,-0.004 0.129134,0.37314 -0.210352,0.39305 -0.185673,0.34647 -0.746063,0.23363 -0.37392,-0.0753 -1.7239,-0.23881 -3.793968,-0.30562 -3.533985,-0.11405 -6.05872,-0.0705 -9.830983,0.58123 -0.457128,0.079 -0.598272,0.2839 -0.63053,-0.0387 z m -1.029336,-2.15873 c 0,-0.6582 0.148977,-0.72323 5.606085,-2.44694 4.963862,-1.56792 12.156897,-3.43864 13.221743,-3.43864 0.502646,0 0.802612,0.11828 0.892235,0.35184 0.256889,0.66944 -0.255503,1.00025 -2.140352,1.38185 -3.279344,0.66392 -8.189868,2.07285 -16.740627,4.80322 -0.545078,0.11474 -0.830754,-0.11152 -0.839084,-0.65133 z m -0.413446,-1.67156 c -0.147009,-0.17713 -0.23502,-0.48963 -0.195579,-0.69443 0.16005,-0.83107 10.546122,-7.4089 15.821119,-10.02002 3.349962,-1.65822 4.626364,-1.95536 4.747601,-1.10519 0.05681,0.39839 -0.401313,0.68671 -3.441151,2.16567 -3.988657,1.94059 -7.537486,4.02746 -12.626392,7.4249 -1.940306,1.29539 -3.642688,2.39932 -3.78307,2.45319 -0.140381,0.0539 -0.375519,-0.047 -0.522528,-0.22412 z"
         id="path38"
         sodipodi:nodetypes="scsscscssccscscccscssccc" />
      <path
         style="fill:#b5c41e;fill-opacity:1;stroke-width:0.215072"
         d="m 69.303319,182.89588 c -0.202874,-0.24445 -0.14059,-0.10418 0.01905,-0.35727 0.649775,-1.03011 9.554622,-1.83833 13.791577,-1.16763 1.44953,0.22946 1.620397,0.30738 1.685625,0.7687 0.08803,0.62257 -0.31644,0.92264 -1.040409,0.77188 -2.721892,-0.56685 -9.151475,-0.80258 -12.692862,-0.12492 -2.035017,0.38941 -1.420893,0.52144 -1.762985,0.10923 z m -0.951559,-1.91477 c -0.06809,-0.17744 -0.07618,-0.44669 -0.01799,-0.59835 0.171241,-0.44624 9.581966,-3.39608 15.264051,-4.78459 3.54275,-0.86572 4.319125,-0.89332 4.423699,-0.15725 0.08428,0.59321 -0.190774,0.70992 -3.150578,1.33688 -2.676378,0.56691 -7.786447,2.01739 -12.204177,3.46413 -3.465522,1.1349 -4.120126,1.24703 -4.315008,0.73918 z m -0.175346,-1.97098 c -0.881026,-0.49555 -0.421351,-0.99183 3.118543,-3.36688 6.01064,-4.03278 10.602407,-6.67901 14.172364,-8.20658 2.046583,-0.87573 2.70082,-0.91139 2.70082,-0.14724 0,0.43194 -0.324746,0.64809 -2.296929,1.5288 -3.94383,1.7612 -9.043896,4.81744 -16.952012,10.15857 -0.388997,0.26273 -0.470489,0.18649 -0.742786,0.0333 z"
         id="path36"
         sodipodi:nodetypes="cssscsccsccscssssccscsss" />
      <path
         style="fill:#b5c41e;fill-opacity:1;stroke-width:0.215072"
         d="m 68.9192,182.71693 c 0,-0.45779 0.13971,-0.55075 1.129128,-0.75131 3.771217,-0.76443 8.239631,-1.02299 11.669921,-0.67525 2.640115,0.26764 3.295324,0.52697 3.036371,1.20179 -0.122594,0.31948 -0.344842,0.34017 -1.91129,0.17798 -2.75239,-0.28498 -8.393573,-0.16846 -10.749503,0.22204 -2.905197,0.48153 -3.174627,0.46666 -3.174627,-0.17525 z m -0.57384,-1.7525 c -0.07161,-0.18661 0.004,-0.46705 0.168054,-0.6232 0.550837,-0.52436 10.573054,-3.62144 15.245752,-4.71126 3.349672,-0.78125 3.774015,-0.83217 4.060293,-0.48722 0.511181,0.61593 0.03577,0.93425 -1.975114,1.32246 -2.33528,0.45083 -7.78492,1.96635 -13.088681,3.6399 -2.089224,0.65923 -3.906932,1.19861 -4.039349,1.19861 -0.132418,0 -0.299347,-0.15268 -0.370955,-0.33929 z m -0.601854,-2.68338 c 0.166721,-0.26976 4.300529,-3.10872 7.197706,-4.94315 3.573619,-2.26273 8.432054,-4.93281 10.726049,-5.89477 1.850909,-0.77617 2.010992,-0.80869 2.343597,-0.47608 0.495199,0.4952 0.17374,0.7628 -2.100976,1.749 -3.389547,1.46954 -7.831629,4.04491 -13.610967,7.89119 -2.103856,1.40017 -3.956562,2.54576 -4.117125,2.54576 -0.423152,-0.16257 -0.48972,-0.48408 -0.438284,-0.87195 z"
         id="path32"
         sodipodi:nodetypes="scssscsscscsssscccscscc" />
    </g>
  </g>
</svg>
