<?xml version="1.0" encoding="UTF-8"?>
<!DOCTYPE svg PUBLIC "-//W3C//DTD SVG 1.1//EN" "http://www.w3.org/Graphics/SVG/1.1/DTD/svg11.dtd">
<!-- Creator: CorelDRAW 2019 (64-Bit) -->
<svg xmlns="http://www.w3.org/2000/svg" xml:space="preserve" width="1.05293cm" height="0.4064cm" version="1.1" style="shape-rendering:geometricPrecision; text-rendering:geometricPrecision; image-rendering:optimizeQuality; fill-rule:evenodd; clip-rule:evenodd"
viewBox="0 0 0.505 0.195"
 xmlns:xlink="http://www.w3.org/1999/xlink"
 xmlns:xodm="http://www.corel.com/coreldraw/odm/2003">
 <defs>
  <style type="text/css">
   <![CDATA[
    .fil0 {fill:#9C6921;fill-rule:nonzero}
   ]]>
  </style>
 </defs>
 <g id="Слой_x0020_1">
  <metadata id="CorelCorpID_0Corel-Layer"/>
  <path class="fil0" d="M0.116 0.098c0,0.029 0.004,0.051 0.012,0.065 0.008,0.014 0.021,0.021 0.038,0.021 0.017,0 0.03,-0.007 0.038,-0.021 0.008,-0.014 0.013,-0.036 0.013,-0.064 0,-0.029 -0.004,-0.051 -0.012,-0.065 -0.008,-0.014 -0.021,-0.021 -0.038,-0.021 -0.017,0 -0.03,0.007 -0.038,0.021 -0.008,0.014 -0.012,0.036 -0.012,0.065zm-0.116 0.093l0 -0.012 0.013 0c0.005,0 0.009,-0.001 0.011,-0.003 0.002,-0.002 0.003,-0.005 0.003,-0.01l0 -0.137c0,-0.004 -0.001,-0.008 -0.003,-0.01 -0.002,-0.002 -0.005,-0.003 -0.009,-0.003l-0.003 0 -0.013 0 0 -0.012 0.082 0 0 0.012 -0.017 0c-0.004,0 -0.006,0.001 -0.008,0.003 -0.002,0.002 -0.002,0.005 -0.002,0.009l0 0.058 0.028 0c0.003,-0.026 0.011,-0.047 0.027,-0.063 0.015,-0.016 0.034,-0.024 0.057,-0.024 0.025,0 0.045,0.009 0.06,0.027 0.016,0.018 0.024,0.042 0.024,0.07 0,0.029 -0.008,0.052 -0.024,0.07 -0.016,0.018 -0.036,0.027 -0.06,0.027 -0.025,0 -0.045,-0.009 -0.061,-0.026 -0.016,-0.018 -0.023,-0.04 -0.024,-0.069l-0.028 -0 0 0.066c0,0.005 0.001,0.008 0.003,0.01 0.002,0.002 0.005,0.003 0.011,0.003l0.014 0 0 0.012 -0.082 0zm0.375 -0.033c-0.005,0.013 -0.011,0.023 -0.019,0.028 -0.008,0.006 -0.018,0.009 -0.029,0.009 -0.017,0 -0.03,-0.006 -0.04,-0.017 -0.01,-0.011 -0.016,-0.026 -0.016,-0.045 0,-0.02 0.005,-0.036 0.016,-0.048 0.011,-0.012 0.025,-0.018 0.043,-0.018 0.012,0 0.022,0.003 0.03,0.009 0.008,0.006 0.012,0.013 0.012,0.021 0,0.006 -0.002,0.01 -0.005,0.013 -0.003,0.003 -0.007,0.005 -0.012,0.005 -0.004,0 -0.008,-0.001 -0.011,-0.004 -0.003,-0.003 -0.004,-0.006 -0.004,-0.01 0,-0.004 0.001,-0.007 0.004,-0.01 0.003,-0.003 0.004,-0.005 0.004,-0.005 0,-0.002 -0.002,-0.005 -0.005,-0.006 -0.003,-0.002 -0.008,-0.002 -0.013,-0.002 -0.011,0 -0.019,0.004 -0.024,0.013 -0.005,0.009 -0.008,0.022 -0.008,0.039 0,0.017 0.003,0.029 0.009,0.038 0.006,0.008 0.015,0.012 0.027,0.012 0.008,0 0.014,-0.002 0.019,-0.006 0.005,-0.004 0.01,-0.011 0.013,-0.02l0.009 0.005zm0.055 -0.037l0.025 0c0.016,0 0.028,0.003 0.037,0.009 0.008,0.006 0.013,0.014 0.013,0.026 0,0.012 -0.004,0.021 -0.012,0.027 -0.008,0.006 -0.019,0.009 -0.034,0.009l-0.073 0 0 -0.011 0.012 -0.001c0.004,-0 0.006,-0.001 0.007,-0.002 0.001,-0.001 0.002,-0.004 0.002,-0.007l0 -0.078c0,-0.004 -0.001,-0.006 -0.002,-0.007 -0.001,-0.001 -0.003,-0.002 -0.007,-0.002l-0.012 -0.001 0 -0.011 0.065 0 0 0.011 -0.012 0.001c-0.004,0 -0.006,0.001 -0.007,0.002 -0.001,0.001 -0.002,0.004 -0.002,0.007l0 0.028zm0 0.011l0 0.039c0,0.004 0.001,0.006 0.002,0.008 0.001,0.001 0.003,0.002 0.007,0.002l0.01 0c0.011,0 0.018,-0.002 0.023,-0.005 0.005,-0.004 0.007,-0.009 0.007,-0.017 0,-0.009 -0.003,-0.016 -0.008,-0.02 -0.005,-0.004 -0.015,-0.006 -0.028,-0.006l-0.013 0z"/>
 </g>
</svg>
