<?xml version="1.0" encoding="UTF-8"?>
<!DOCTYPE svg PUBLIC "-//W3C//DTD SVG 1.1//EN" "http://www.w3.org/Graphics/SVG/1.1/DTD/svg11.dtd">
<!-- Creator: CorelDRAW 2019 (64-Bit) -->
<svg xmlns="http://www.w3.org/2000/svg" xml:space="preserve" width="2.27887cm" height="0.508cm" version="1.1" style="shape-rendering:geometricPrecision; text-rendering:geometricPrecision; image-rendering:optimizeQuality; fill-rule:evenodd; clip-rule:evenodd"
viewBox="0 0 2.376 0.53"
 xmlns:xlink="http://www.w3.org/1999/xlink"
 xmlns:xodm="http://www.corel.com/coreldraw/odm/2003">
 <defs>
  <style type="text/css">
   <![CDATA[
    .fil0 {fill:#9C6921;fill-rule:nonzero}
   ]]>
  </style>
 </defs>
 <g id="Слой_x0020_1">
  <metadata id="CorelCorpID_0Corel-Layer"/>
  <path class="fil0" d="M0.262 0.185l0 -0.134c0,-0.01 -0.002,-0.017 -0.006,-0.02 -0.004,-0.003 -0.012,-0.005 -0.023,-0.005l-0.037 0c-0.032,0 -0.055,0.006 -0.069,0.019 -0.014,0.012 -0.021,0.033 -0.021,0.061 0,0.03 0.009,0.051 0.026,0.063 0.017,0.012 0.049,0.018 0.095,0.018l0.008 0 0.028 -0.001zm-0.261 0.134l0.022 0c0.001,0.021 0.003,0.037 0.007,0.046 0.004,0.009 0.009,0.014 0.017,0.014 0.006,0 0.011,-0.003 0.015,-0.009 0.004,-0.006 0.008,-0.015 0.011,-0.029l0.015 -0.064c0.005,-0.022 0.014,-0.039 0.027,-0.051 0.013,-0.012 0.031,-0.019 0.054,-0.023 -0.042,-0.004 -0.073,-0.015 -0.094,-0.032 -0.021,-0.017 -0.032,-0.04 -0.032,-0.07 0,-0.032 0.011,-0.057 0.033,-0.075 0.022,-0.018 0.053,-0.027 0.093,-0.027l0.216 0 0 0.027 -0.037 0c-0.008,0 -0.013,0.002 -0.017,0.006 -0.004,0.004 -0.005,0.011 -0.005,0.021l0 0.303c0,0.011 0.002,0.018 0.006,0.022 0.004,0.004 0.012,0.006 0.024,0.006l0.03 0 0 0.027 -0.187 0 0 -0.027 0.035 0c0.012,0 0.02,-0.002 0.024,-0.006 0.004,-0.004 0.006,-0.011 0.006,-0.022l0 -0.145 -0.039 0c-0.025,0 -0.044,0.006 -0.057,0.018 -0.013,0.012 -0.021,0.03 -0.024,0.055l-0.006 0.057c-0.003,0.029 -0.01,0.05 -0.02,0.062 -0.01,0.012 -0.026,0.018 -0.048,0.018 -0.022,0 -0.039,-0.008 -0.051,-0.023 -0.012,-0.015 -0.018,-0.038 -0.018,-0.066 0,-0.001 0,-0.003 0,-0.006 0,-0.003 0,-0.005 0,-0.007zm0.421 0.092l0 -0.024 0.026 -0.001c0.008,-0 0.013,-0.002 0.016,-0.005 0.003,-0.003 0.004,-0.008 0.004,-0.017l0 -0.171c0,-0.008 -0.001,-0.014 -0.004,-0.017 -0.002,-0.003 -0.008,-0.004 -0.015,-0.005l-0.026 -0.001 0 -0.024 0.218 0 0.005 0.093 -0.021 0c-0.004,-0.025 -0.012,-0.043 -0.024,-0.053 -0.011,-0.01 -0.029,-0.016 -0.052,-0.016 -0.012,0 -0.02,0.001 -0.024,0.004 -0.004,0.002 -0.005,0.008 -0.005,0.018l0 0.171c0,0.008 0.001,0.014 0.004,0.017 0.002,0.003 0.008,0.004 0.016,0.005l0.026 0.001 0 0.024 -0.143 0zm0.239 0l0 -0.024 0.026 -0.001c0.008,-0 0.013,-0.002 0.016,-0.005 0.002,-0.003 0.004,-0.008 0.004,-0.017l0 -0.171c0,-0.008 -0.001,-0.014 -0.004,-0.017 -0.002,-0.003 -0.008,-0.004 -0.016,-0.005l-0.026 -0.001 0 -0.024 0.105 0 0.073 0.196 0.07 -0.196 0.108 0 0 0.024 -0.026 0.001c-0.008,0 -0.013,0.002 -0.016,0.005 -0.002,0.003 -0.004,0.008 -0.004,0.017l0 0.171c0,0.008 0.001,0.014 0.004,0.017 0.002,0.003 0.008,0.004 0.016,0.005l0.026 0.001 0 0.024 -0.14 0 0 -0.024 0.026 -0.001c0.008,-0 0.013,-0.002 0.016,-0.005 0.003,-0.003 0.004,-0.008 0.004,-0.017l0 -0.191 -0.085 0.238 -0.02 0 -0.089 -0.238 0 0.191c0,0.008 0.001,0.014 0.004,0.017 0.002,0.003 0.008,0.004 0.016,0.005l0.026 0.001 0 0.024 -0.112 0zm0.509 -0.007l-0.091 -0.208c-0.004,-0.009 -0.009,-0.015 -0.015,-0.019 -0.006,-0.004 -0.015,-0.005 -0.026,-0.005l-0.003 0 0 -0.024 0.133 0 0 0.024 -0.015 0 -0.007 0c-0.005,0 -0.008,0.001 -0.011,0.003 -0.002,0.002 -0.004,0.005 -0.004,0.009 0,0.002 0.001,0.004 0.002,0.007 0.001,0.003 0.002,0.007 0.004,0.01l0.06 0.139 0.057 -0.137c0.001,-0.002 0.002,-0.004 0.002,-0.006 0.001,-0.002 0.001,-0.004 0.001,-0.007 0,-0.007 -0.002,-0.012 -0.007,-0.015 -0.005,-0.003 -0.016,-0.004 -0.032,-0.004l-0 -0.024 0.11 0 0 0.024c-0.011,0 -0.019,0.002 -0.026,0.007 -0.007,0.005 -0.012,0.013 -0.017,0.023l-0.096 0.224c-0.016,0.038 -0.033,0.064 -0.05,0.08 -0.017,0.016 -0.037,0.024 -0.06,0.024 -0.016,0 -0.029,-0.004 -0.038,-0.012 -0.009,-0.008 -0.014,-0.019 -0.014,-0.032 0,-0.009 0.003,-0.017 0.01,-0.024 0.007,-0.007 0.015,-0.01 0.024,-0.01 0.009,0 0.017,0.003 0.022,0.008 0.005,0.005 0.008,0.013 0.008,0.022 0,0.003 -0.001,0.006 -0.002,0.009 -0.002,0.003 -0.002,0.005 -0.002,0.005 0,0.002 0.001,0.004 0.003,0.005 0.002,0.001 0.004,0.002 0.007,0.002 0.01,0 0.022,-0.008 0.035,-0.025 0.013,-0.016 0.025,-0.038 0.036,-0.065l0.004 -0.009zm0.462 -0.257l0 0.024 -0.026 0.001c-0.008,0 -0.013,0.002 -0.016,0.005 -0.002,0.003 -0.004,0.008 -0.004,0.017l0 0.171c0,0.008 0.001,0.014 0.004,0.017 0.002,0.003 0.008,0.004 0.016,0.005l0.026 0.001 0 0.024 -0.143 0 0 -0.024 0.026 -0.001c0.008,-0 0.013,-0.002 0.016,-0.005 0.003,-0.003 0.004,-0.008 0.004,-0.017l0 -0.193 -0.033 0c-0.029,0 -0.045,0.026 -0.048,0.077 -0.001,0.024 -0.003,0.043 -0.004,0.059 -0.004,0.042 -0.011,0.07 -0.021,0.086 -0.01,0.015 -0.025,0.023 -0.046,0.023 -0.013,0 -0.024,-0.004 -0.032,-0.012 -0.009,-0.008 -0.013,-0.017 -0.013,-0.029 0,-0.012 0.003,-0.021 0.009,-0.028 0.006,-0.007 0.014,-0.01 0.025,-0.01 0.008,0 0.014,0.002 0.019,0.007 0.005,0.005 0.008,0.011 0.008,0.018 0,0.007 -0.002,0.013 -0.007,0.018 -0.005,0.005 -0.008,0.008 -0.008,0.009 0,0.001 0.001,0.002 0.002,0.003 0.001,0.001 0.003,0.001 0.005,0.001 0.008,0 0.014,-0.003 0.019,-0.01 0.005,-0.007 0.009,-0.017 0.011,-0.03 0.004,-0.019 0.007,-0.042 0.01,-0.071 0.003,-0.029 0.004,-0.056 0.004,-0.083 0,-0.012 -0.002,-0.02 -0.005,-0.024 -0.004,-0.004 -0.011,-0.006 -0.021,-0.006l-0.022 -0.001 0 -0.024 0.248 0zm0.134 0.108l0.056 0c0.036,0 0.063,0.007 0.082,0.02 0.019,0.013 0.028,0.032 0.028,0.057 0,0.026 -0.009,0.046 -0.026,0.059 -0.017,0.013 -0.042,0.02 -0.076,0.02l-0.162 0 0 -0.024 0.026 -0.001c0.008,-0 0.013,-0.002 0.016,-0.005 0.003,-0.003 0.004,-0.008 0.004,-0.017l0 -0.171c0,-0.008 -0.001,-0.014 -0.004,-0.017 -0.002,-0.003 -0.008,-0.004 -0.015,-0.005l-0.026 -0.001 0 -0.024 0.143 0 0 0.024 -0.026 0.001c-0.008,0 -0.013,0.002 -0.016,0.005 -0.002,0.003 -0.004,0.008 -0.004,0.017l0 0.062zm0 0.024l0 0.086c0,0.009 0.001,0.014 0.004,0.017 0.003,0.003 0.008,0.004 0.015,0.004l0.022 0c0.023,0 0.04,-0.004 0.05,-0.012 0.01,-0.008 0.015,-0.021 0.015,-0.039 0,-0.021 -0.006,-0.036 -0.017,-0.044 -0.012,-0.009 -0.032,-0.013 -0.062,-0.013l-0.028 0zm0.467 0.132l0 -0.024 0.026 -0.001c0.008,-0 0.013,-0.002 0.016,-0.005 0.003,-0.003 0.004,-0.008 0.004,-0.017l0 -0.171c0,-0.008 -0.001,-0.014 -0.004,-0.017 -0.002,-0.003 -0.008,-0.004 -0.015,-0.005l-0.026 -0.001 0 -0.024 0.142 0 0 0.024 -0.026 0.001c-0.008,0 -0.013,0.002 -0.016,0.005 -0.002,0.003 -0.004,0.008 -0.004,0.017l0 0.171c0,0.008 0.001,0.014 0.004,0.017 0.002,0.003 0.008,0.004 0.016,0.005l0.026 0.001 0 0.024 -0.142 0zm-0.175 -0.132l0 0.086c0,0.009 0.001,0.014 0.004,0.017 0.003,0.003 0.008,0.004 0.015,0.004l0.022 0c0.023,0 0.04,-0.004 0.05,-0.012 0.01,-0.008 0.015,-0.021 0.015,-0.039 0,-0.021 -0.006,-0.036 -0.017,-0.044 -0.012,-0.009 -0.032,-0.013 -0.062,-0.013l-0.028 0zm0 -0.024l0.056 0c0.036,0 0.063,0.007 0.082,0.02 0.019,0.013 0.028,0.032 0.028,0.057 0,0.026 -0.009,0.046 -0.026,0.059 -0.017,0.013 -0.042,0.02 -0.076,0.02l-0.162 0 0 -0.024 0.026 -0.001c0.008,-0 0.013,-0.002 0.016,-0.005 0.003,-0.003 0.004,-0.008 0.004,-0.017l0 -0.171c0,-0.008 -0.001,-0.014 -0.004,-0.017 -0.002,-0.003 -0.008,-0.004 -0.015,-0.005l-0.026 -0.001 0 -0.024 0.143 0 0 0.024 -0.026 0.001c-0.008,0 -0.013,0.002 -0.016,0.005 -0.002,0.003 -0.004,0.008 -0.004,0.017l0 0.062z"/>
 </g>
</svg>
