<?xml version="1.0" encoding="UTF-8"?>
<!DOCTYPE svg PUBLIC "-//W3C//DTD SVG 1.1//EN" "http://www.w3.org/Graphics/SVG/1.1/DTD/svg11.dtd">
<!-- Creator: CorelDRAW 2019 (64-Bit) -->
<svg xmlns="http://www.w3.org/2000/svg" xml:space="preserve" width="0.95576cm" height="0.40639cm" version="1.1" style="shape-rendering:geometricPrecision; text-rendering:geometricPrecision; image-rendering:optimizeQuality; fill-rule:evenodd; clip-rule:evenodd"
viewBox="0 0 0.416 0.177"
 xmlns:xlink="http://www.w3.org/1999/xlink"
 xmlns:xodm="http://www.corel.com/coreldraw/odm/2003">
 <defs>
  <style type="text/css">
   <![CDATA[
    .fil0 {fill:#9C6921;fill-rule:nonzero}
   ]]>
  </style>
 </defs>
 <g id="Слой_x0020_1">
  <metadata id="CorelCorpID_0Corel-Layer"/>
  <path class="fil0" d="M0.051 0.088l0 0.062c0,0.005 0.001,0.008 0.003,0.009 0.002,0.001 0.005,0.002 0.01,0.002l0.017 0c0.015,0 0.025,-0.003 0.032,-0.008 0.006,-0.006 0.009,-0.015 0.009,-0.028 0,-0.013 -0.004,-0.023 -0.012,-0.029 -0.008,-0.006 -0.02,-0.009 -0.038,-0.009l-0.022 0zm0.104 -0.088l0.078 0 0 0.011 -0.016 0c-0.003,0 -0.006,0.001 -0.007,0.003 -0.002,0.002 -0.002,0.005 -0.002,0.009l0 0.127c0,0.004 0.001,0.007 0.003,0.009 0.002,0.002 0.005,0.002 0.01,0.002l0.013 0 0 0.011 -0.078 0 0 -0.011 0.013 0c0.005,0 0.009,-0.001 0.01,-0.002 0.002,-0.002 0.003,-0.005 0.003,-0.009l0 -0.127c0,-0.004 -0.001,-0.007 -0.002,-0.009 -0.002,-0.002 -0.004,-0.003 -0.008,-0.003l-0.002 0 -0.013 0 0 -0.011zm-0.155 0l0.076 0 0 0.011 -0.016 0c-0.003,0 -0.006,0.001 -0.007,0.003 -0.002,0.002 -0.002,0.005 -0.002,0.009l0 0.054 0.032 0c0.023,0 0.04,0.004 0.051,0.012 0.011,0.008 0.017,0.021 0.017,0.037 0,0.015 -0.006,0.026 -0.017,0.035 -0.011,0.008 -0.027,0.012 -0.047,0.012l-0.088 0 0 -0.011 0.012 0c0.005,0 0.008,-0.001 0.01,-0.002 0.002,-0.002 0.003,-0.005 0.003,-0.009l0 -0.127c0,-0.004 -0.001,-0.007 -0.002,-0.009 -0.002,-0.002 -0.004,-0.003 -0.008,-0.003l-0.002 0 -0.012 0 0 -0.011zm0.303 0.173l0 -0.01 0.011 -0c0.003,-0 0.006,-0.001 0.007,-0.002 0.001,-0.001 0.002,-0.003 0.002,-0.007l0 -0.034 -0.011 0c-0.006,0 -0.011,0.001 -0.014,0.004 -0.003,0.003 -0.005,0.008 -0.006,0.016 -0,0.002 -0.001,0.004 -0.001,0.008 -0.003,0.02 -0.01,0.03 -0.023,0.03 -0.007,0 -0.012,-0.002 -0.015,-0.006 -0.003,-0.004 -0.005,-0.01 -0.005,-0.019l0 -0.003 0.007 0c0,0.006 0.001,0.01 0.002,0.012 0.001,0.002 0.003,0.003 0.005,0.003 0.004,0 0.007,-0.005 0.008,-0.015 0.001,-0.007 0.002,-0.012 0.003,-0.016 0.002,-0.006 0.005,-0.011 0.009,-0.014 0.004,-0.003 0.009,-0.005 0.016,-0.006 -0.004,-0.002 -0.007,-0.005 -0.009,-0.008 -0.002,-0.003 -0.004,-0.01 -0.006,-0.02 -0.002,-0.008 -0.003,-0.013 -0.005,-0.015 -0.002,-0.002 -0.004,-0.003 -0.007,-0.003 -0.001,0 -0.002,0 -0.002,0.001 -0.001,0 -0.001,0.001 -0.001,0.002 0,0 0.001,0.001 0.002,0.004 0.002,0.002 0.002,0.004 0.002,0.006 0,0.003 -0.001,0.005 -0.003,0.007 -0.002,0.002 -0.005,0.003 -0.008,0.003 -0.004,0 -0.007,-0.001 -0.009,-0.004 -0.002,-0.002 -0.003,-0.006 -0.003,-0.01 0,-0.005 0.002,-0.01 0.006,-0.013 0.004,-0.003 0.009,-0.005 0.015,-0.005 0.012,0 0.02,0.009 0.023,0.027 0,0.002 0.001,0.004 0.001,0.004 0.002,0.009 0.004,0.014 0.008,0.017 0.004,0.003 0.009,0.004 0.016,0.004l0.005 0 0 -0.029c0,-0.004 -0.001,-0.006 -0.002,-0.007 -0.001,-0.001 -0.003,-0.002 -0.006,-0.002l-0.011 -0 0 -0.01 0.058 0 0 0.01 -0.011 0c-0.003,0 -0.005,0.001 -0.006,0.002 -0.001,0.001 -0.001,0.003 -0.001,0.007l0 0.029 0.005 0c0.007,0 0.012,-0.001 0.016,-0.004 0.004,-0.003 0.006,-0.007 0.007,-0.014 0,-0.002 0.001,-0.004 0.002,-0.008 0.003,-0.018 0.011,-0.027 0.023,-0.027 0.006,0 0.011,0.002 0.015,0.005 0.004,0.003 0.006,0.008 0.006,0.013 0,0.004 -0.001,0.007 -0.003,0.01 -0.002,0.002 -0.005,0.004 -0.009,0.004 -0.004,0 -0.006,-0.001 -0.008,-0.003 -0.002,-0.002 -0.003,-0.004 -0.003,-0.007 0,-0.002 0.001,-0.004 0.002,-0.006 0.001,-0.002 0.002,-0.003 0.002,-0.004 0,-0.001 -0,-0.001 -0.001,-0.002 -0.001,-0 -0.001,-0.001 -0.002,-0.001 -0.005,0 -0.009,0.006 -0.011,0.017 -0,0.001 -0,0.001 -0,0.001l-0 0.001c-0.003,0.015 -0.008,0.024 -0.015,0.028 0.007,0.001 0.013,0.003 0.016,0.006 0.004,0.003 0.007,0.008 0.009,0.014 0.001,0.004 0.002,0.009 0.003,0.016 0.002,0.01 0.004,0.015 0.008,0.015 0.002,0 0.004,-0.001 0.005,-0.003 0.001,-0.002 0.002,-0.005 0.002,-0.01l0 -0.003 0.007 0 0 0.004c0,0.008 -0.002,0.014 -0.005,0.018 -0.003,0.004 -0.009,0.006 -0.015,0.006 -0.012,0 -0.02,-0.01 -0.022,-0.029 -0,-0.004 -0.001,-0.006 -0.001,-0.008 -0.001,-0.008 -0.003,-0.013 -0.006,-0.016 -0.003,-0.003 -0.008,-0.004 -0.015,-0.004l-0.002 0 -0.008 0 0 0.034c0,0.004 0.001,0.006 0.002,0.007 0.001,0.001 0.003,0.002 0.006,0.002l0.011 0 0 0.01 -0.058 0z"/>
 </g>
</svg>
