<?xml version="1.0" encoding="UTF-8"?>
<!DOCTYPE svg PUBLIC "-//W3C//DTD SVG 1.1//EN" "http://www.w3.org/Graphics/SVG/1.1/DTD/svg11.dtd">
<!-- Creator: CorelDRAW 2019 (64-Bit) -->
<svg xmlns="http://www.w3.org/2000/svg" xml:space="preserve" width="2.11667cm" height="0.46452cm" version="1.1" style="shape-rendering:geometricPrecision; text-rendering:geometricPrecision; image-rendering:optimizeQuality; fill-rule:evenodd; clip-rule:evenodd"
viewBox="0 0 4.358 0.956"
 xmlns:xlink="http://www.w3.org/1999/xlink"
 xmlns:xodm="http://www.corel.com/coreldraw/odm/2003">
 <defs>
  <style type="text/css">
   <![CDATA[
    .fil0 {fill:#706541;fill-rule:nonzero}
   ]]>
  </style>
 </defs>
 <g id="Слой_x0020_1">
  <metadata id="CorelCorpID_0Corel-Layer"/>
  <path class="fil0" d="M0.275 0.009l0 0.341 -0.064 0 0 -0.214 -0.128 0.214 -0.055 0 0 -0.341 0.064 0 0 0.221 0.13 -0.221 0.054 0zm0.077 0l0.169 0 0 0.064 -0.104 0 0 0.278 -0.064 0 0 -0.341zm0.379 -0.009c0.048,0 0.089,0.018 0.124,0.052 0.035,0.035 0.052,0.078 0.052,0.128 0,0.05 -0.017,0.092 -0.051,0.126 -0.034,0.034 -0.075,0.052 -0.124,0.052 -0.051,0 -0.093,-0.018 -0.127,-0.053 -0.034,-0.035 -0.051,-0.077 -0.051,-0.126 0,-0.033 0.008,-0.063 0.024,-0.09 0.016,-0.027 0.037,-0.049 0.065,-0.065 0.027,-0.016 0.057,-0.024 0.089,-0.024zm-0.001 0.064c-0.031,0 -0.058,0.011 -0.079,0.033 -0.021,0.022 -0.032,0.05 -0.032,0.084 0,0.038 0.013,0.068 0.04,0.09 0.021,0.017 0.045,0.026 0.072,0.026 0.03,0 0.056,-0.011 0.078,-0.033 0.021,-0.022 0.032,-0.05 0.032,-0.082 0,-0.032 -0.011,-0.06 -0.032,-0.082 -0.022,-0.023 -0.048,-0.034 -0.079,-0.034zm0.457 0.286l-0.094 -0.25 -0.095 0.25 -0.068 0 0.131 -0.341 0.065 0 0.131 0.341 -0.069 0zm0.108 -0.341l0.065 0 0 0.118 0.092 -0.118 0.078 0 -0.118 0.152 0.13 0.189 -0.077 0 -0.105 -0.152 0 0.152 -0.065 0 0 -0.341zm0.54 0l0 0.341 -0.064 0 0 -0.214 -0.128 0.214 -0.055 0 0 -0.341 0.064 0 0 0.221 0.13 -0.221 0.054 0zm0.209 0l0.066 0 0 0.129 0.113 0 0 -0.129 0.065 0 0 0.341 -0.065 0 0 -0.15 -0.113 0 0 0.15 -0.066 0 0 -0.341zm0.482 -0.009c0.048,0 0.089,0.018 0.124,0.052 0.035,0.035 0.052,0.078 0.052,0.128 0,0.05 -0.017,0.092 -0.051,0.126 -0.034,0.034 -0.075,0.052 -0.124,0.052 -0.051,0 -0.093,-0.018 -0.127,-0.053 -0.034,-0.035 -0.051,-0.077 -0.051,-0.126 0,-0.033 0.008,-0.063 0.024,-0.09 0.016,-0.027 0.037,-0.049 0.065,-0.065 0.027,-0.016 0.057,-0.024 0.089,-0.024zm-0.001 0.064c-0.031,0 -0.058,0.011 -0.079,0.033 -0.021,0.022 -0.032,0.05 -0.032,0.084 0,0.038 0.013,0.068 0.04,0.09 0.021,0.017 0.045,0.026 0.072,0.026 0.03,0 0.056,-0.011 0.078,-0.033 0.021,-0.022 0.032,-0.05 0.032,-0.082 0,-0.032 -0.011,-0.06 -0.032,-0.082 -0.022,-0.023 -0.048,-0.034 -0.079,-0.034zm0.549 0.005l-0.045 0.043c-0.031,-0.033 -0.065,-0.049 -0.104,-0.049 -0.032,0 -0.06,0.011 -0.082,0.033 -0.022,0.022 -0.033,0.05 -0.033,0.082 0,0.023 0.005,0.043 0.015,0.061 0.01,0.018 0.024,0.032 0.042,0.042 0.018,0.01 0.038,0.015 0.06,0.015 0.019,0 0.036,-0.003 0.051,-0.011 0.016,-0.007 0.033,-0.02 0.051,-0.038l0.044 0.046c-0.025,0.025 -0.049,0.042 -0.071,0.051 -0.022,0.01 -0.048,0.014 -0.076,0.014 -0.053,0 -0.096,-0.017 -0.13,-0.05 -0.034,-0.034 -0.05,-0.077 -0.05,-0.129 0,-0.034 0.008,-0.064 0.023,-0.091 0.015,-0.026 0.037,-0.048 0.066,-0.064 0.029,-0.016 0.059,-0.024 0.092,-0.024 0.028,0 0.055,0.006 0.081,0.018 0.026,0.012 0.048,0.029 0.067,0.051zm0.304 -0.06l0 0.341 -0.064 0 0 -0.214 -0.128 0.214 -0.055 0 0 -0.341 0.064 0 0 0.221 0.13 -0.221 0.054 0zm0.044 0l0.188 0 0 0.064 -0.062 0 0 0.277 -0.066 0 0 -0.277 -0.06 0 0 -0.064zm0.255 0.277l0.045 0.023 -0.057 0.098 -0.031 -0.015 0.043 -0.106zm-3.546 0.321l0.065 0 0.131 0.341 -0.067 0 -0.026 -0.07 -0.139 0 -0.027 0.07 -0.067 0 0.131 -0.341zm0.033 0.091l-0.046 0.117 0.092 0 -0.046 -0.117zm0.501 0.192l0 -0.283 0.065 0 0 0.283 0.092 0 0 -0.283 0.066 0 0 0.341 -0.379 0 0 -0.341 0.066 0 0 0.283 0.091 0zm0.547 -0.283l0 0.341 -0.064 0 0 -0.214 -0.128 0.214 -0.055 0 0 -0.341 0.064 0 0 0.221 0.13 -0.221 0.054 0zm0.044 0l0.188 0 0 0.064 -0.062 0 0 0.277 -0.066 0 0 -0.277 -0.06 0 0 -0.064zm0.231 0.341l0 -0.341 0.064 0 0 0.129 0.014 0c0.027,0 0.05,0.003 0.067,0.009 0.018,0.006 0.034,0.018 0.047,0.036 0.013,0.018 0.02,0.039 0.02,0.063 0,0.023 -0.006,0.043 -0.017,0.059 -0.011,0.016 -0.024,0.028 -0.039,0.034 -0.015,0.007 -0.035,0.01 -0.061,0.01l-0.095 0zm0.064 -0.154l0 0.093 0.016 0c0.027,0 0.045,-0.003 0.054,-0.01 0.009,-0.007 0.014,-0.018 0.014,-0.034 0,-0.032 -0.024,-0.049 -0.071,-0.049l-0.013 0zm0.336 -0.187l0.066 0 0 0.129 0.113 0 0 -0.129 0.065 0 0 0.341 -0.065 0 0 -0.15 -0.113 0 0 0.15 -0.066 0 0 -0.341zm0.322 0l0.185 0 0 0.064 -0.121 0 0 0.061 0.121 0 0 0.063 -0.121 0 0 0.09 0.121 0 0 0.064 -0.185 0 0 -0.341zm0.41 0l0.063 0 0.079 0.238 0.079 -0.238 0.062 0 0.057 0.341 -0.062 0 -0.036 -0.216 -0.072 0.216 -0.057 0 -0.072 -0.216 -0.037 0.216 -0.063 0 0.058 -0.341zm0.552 -0.009c0.048,0 0.089,0.018 0.124,0.052 0.035,0.035 0.052,0.078 0.052,0.128 0,0.05 -0.017,0.092 -0.051,0.126 -0.034,0.034 -0.075,0.052 -0.124,0.052 -0.051,0 -0.093,-0.018 -0.127,-0.053 -0.034,-0.035 -0.051,-0.077 -0.051,-0.126 0,-0.033 0.008,-0.063 0.024,-0.09 0.016,-0.027 0.037,-0.049 0.065,-0.065 0.027,-0.016 0.057,-0.024 0.089,-0.024zm-0.001 0.064c-0.031,0 -0.058,0.011 -0.079,0.033 -0.021,0.022 -0.032,0.05 -0.032,0.084 0,0.038 0.013,0.068 0.04,0.09 0.021,0.017 0.045,0.026 0.072,0.026 0.03,0 0.056,-0.011 0.078,-0.033 0.021,-0.022 0.032,-0.05 0.032,-0.082 0,-0.032 -0.011,-0.06 -0.032,-0.082 -0.022,-0.023 -0.048,-0.034 -0.079,-0.034zm0.387 0.135l-0.009 -0.01 -0.096 0.161 -0.077 0 0.126 -0.198 -0.115 -0.143 0.078 0 0.092 0.122 0 -0.122 0.066 0 0 0.122 0.091 -0.122 0.078 0 -0.114 0.144 0.125 0.198 -0.077 0 -0.095 -0.161 -0.009 0.01 0 0.151 -0.066 0 0 -0.151zm0.292 -0.19l0.185 0 0 0.064 -0.121 0 0 0.061 0.121 0 0 0.063 -0.121 0 0 0.09 0.121 0 0 0.064 -0.185 0 0 -0.341zm0.212 0l0.188 0 0 0.064 -0.062 0 0 0.277 -0.066 0 0 -0.277 -0.06 0 0 -0.064zm0.259 0.275c0.01,0 0.018,0.004 0.026,0.011 0.007,0.007 0.011,0.016 0.011,0.026 0,0.01 -0.004,0.019 -0.011,0.026 -0.007,0.007 -0.016,0.011 -0.026,0.011 -0.01,0 -0.019,-0.004 -0.026,-0.011 -0.007,-0.007 -0.011,-0.016 -0.011,-0.026 0,-0.01 0.004,-0.019 0.011,-0.026 0.007,-0.007 0.016,-0.011 0.026,-0.011z"/>
 </g>
</svg>
