<?xml version="1.0" encoding="UTF-8"?>
<!DOCTYPE svg PUBLIC "-//W3C//DTD SVG 1.1//EN" "http://www.w3.org/Graphics/SVG/1.1/DTD/svg11.dtd">
<!-- Creator: CorelDRAW 2019 (64-Bit) -->
<svg xmlns="http://www.w3.org/2000/svg" xml:space="preserve" width="2.11667cm" height="0.49108cm" version="1.1" style="shape-rendering:geometricPrecision; text-rendering:geometricPrecision; image-rendering:optimizeQuality; fill-rule:evenodd; clip-rule:evenodd"
viewBox="0 0 4.173 0.968"
 xmlns:xlink="http://www.w3.org/1999/xlink"
 xmlns:xodm="http://www.corel.com/coreldraw/odm/2003">
 <defs>
  <style type="text/css">
   <![CDATA[
    .fil0 {fill:#706541;fill-rule:nonzero}
   ]]>
  </style>
 </defs>
 <g id="Слой_x0020_1">
  <metadata id="CorelCorpID_0Corel-Layer"/>
  <path class="fil0" d="M0.035 0.008l0.064 0 0 0.125 0.11 0 0 -0.125 0.063 0 0 0.331 -0.063 0 0 -0.145 -0.11 0 0 0.145 -0.064 0 0 -0.331zm0.467 -0.008c0.046,0 0.086,0.017 0.12,0.051 0.034,0.034 0.05,0.075 0.05,0.124 0,0.048 -0.016,0.089 -0.05,0.123 -0.033,0.033 -0.073,0.05 -0.12,0.05 -0.049,0 -0.09,-0.017 -0.123,-0.052 -0.033,-0.034 -0.049,-0.075 -0.049,-0.122 0,-0.032 0.008,-0.061 0.023,-0.087 0.015,-0.026 0.036,-0.048 0.063,-0.063 0.027,-0.016 0.055,-0.023 0.086,-0.023zm-0.001 0.062c-0.03,0 -0.056,0.011 -0.076,0.032 -0.021,0.021 -0.031,0.048 -0.031,0.081 0,0.037 0.013,0.066 0.039,0.087 0.02,0.017 0.043,0.025 0.07,0.025 0.03,0 0.055,-0.011 0.075,-0.032 0.021,-0.022 0.031,-0.048 0.031,-0.08 0,-0.031 -0.01,-0.058 -0.031,-0.08 -0.021,-0.022 -0.046,-0.033 -0.076,-0.033zm0.374 0.132l-0.021 0c-0.03,0 -0.052,-0.002 -0.067,-0.005 -0.014,-0.003 -0.028,-0.01 -0.041,-0.02 -0.013,-0.01 -0.022,-0.023 -0.028,-0.037 -0.005,-0.015 -0.008,-0.034 -0.008,-0.058l0 -0.066 0.064 0 0 0.065c0,0.023 0.004,0.038 0.012,0.047 0.008,0.009 0.025,0.013 0.051,0.013l0.038 0 0 -0.125 0.063 0 0 0.331 -0.063 0 0 -0.145zm0.138 0.145l0 -0.331 0.062 0 0 0.125 0.014 0c0.026,0 0.048,0.003 0.065,0.009 0.017,0.006 0.033,0.018 0.045,0.035 0.013,0.017 0.019,0.038 0.019,0.062 0,0.023 -0.005,0.042 -0.016,0.058 -0.011,0.016 -0.024,0.027 -0.038,0.033 -0.014,0.007 -0.034,0.01 -0.059,0.01l-0.092 0zm0.062 -0.15l0 0.09 0.016 0c0.026,0 0.044,-0.003 0.052,-0.01 0.009,-0.006 0.013,-0.018 0.013,-0.033 0,-0.031 -0.023,-0.047 -0.068,-0.047l-0.013 0zm0.26 -0.056l0.043 0c0.02,-0.05 0.044,-0.085 0.074,-0.105 0.03,-0.019 0.062,-0.029 0.095,-0.029 0.045,0 0.085,0.017 0.119,0.05 0.034,0.033 0.051,0.075 0.051,0.125 0,0.048 -0.017,0.089 -0.05,0.123 -0.033,0.033 -0.073,0.05 -0.12,0.05 -0.042,0 -0.08,-0.014 -0.114,-0.041 -0.034,-0.028 -0.053,-0.065 -0.056,-0.112l-0.043 0 0 0.145 -0.062 0 0 -0.331 0.062 0 0 0.125zm0.319 0.041c0,-0.03 -0.01,-0.056 -0.031,-0.079 -0.02,-0.023 -0.046,-0.034 -0.077,-0.034 -0.029,0 -0.055,0.01 -0.076,0.031 -0.021,0.021 -0.032,0.048 -0.032,0.082 0,0.033 0.011,0.06 0.033,0.081 0.022,0.021 0.047,0.031 0.076,0.031 0.03,0 0.055,-0.011 0.075,-0.033 0.021,-0.022 0.031,-0.048 0.031,-0.08zm0.25 -0.166l0.066 0c0.036,0 0.062,0.003 0.078,0.01 0.016,0.007 0.028,0.018 0.038,0.032 0.009,0.015 0.014,0.033 0.014,0.054 0,0.023 -0.006,0.042 -0.018,0.058 -0.012,0.015 -0.028,0.026 -0.049,0.032 -0.012,0.003 -0.034,0.005 -0.066,0.005l0 0.14 -0.062 0 0 -0.331zm0.062 0.129l0.02 0c0.016,0 0.027,-0.001 0.033,-0.003 0.006,-0.002 0.011,-0.006 0.015,-0.011 0.004,-0.005 0.005,-0.012 0.005,-0.019 0,-0.013 -0.005,-0.022 -0.015,-0.028 -0.007,-0.004 -0.021,-0.007 -0.04,-0.007l-0.018 0 0 0.068zm0.295 -0.129l0.063 0 0.127 0.331 -0.065 0 -0.026 -0.068 -0.135 0 -0.026 0.068 -0.065 0 0.127 -0.331zm0.032 0.088l-0.045 0.114 0.089 0 -0.044 -0.114zm0.206 0.243l0 -0.331 0.172 0 0 0.061 -0.11 0 0 0.064 0.014 0c0.028,0 0.051,0.003 0.068,0.009 0.018,0.006 0.032,0.018 0.044,0.035 0.012,0.017 0.018,0.037 0.018,0.06 0,0.023 -0.004,0.041 -0.013,0.055 -0.009,0.014 -0.021,0.025 -0.036,0.034 -0.015,0.009 -0.037,0.013 -0.064,0.013l-0.092 0zm0.062 -0.15l0 0.09 0.016 0c0.029,0 0.047,-0.004 0.055,-0.011 0.008,-0.007 0.011,-0.018 0.011,-0.03 0,-0.032 -0.023,-0.048 -0.069,-0.048l-0.013 0zm0.354 -0.189c0.046,0 0.086,0.017 0.12,0.051 0.033,0.034 0.05,0.075 0.05,0.124 0,0.048 -0.016,0.089 -0.05,0.123 -0.033,0.033 -0.073,0.05 -0.12,0.05 -0.049,0 -0.09,-0.017 -0.123,-0.052 -0.033,-0.034 -0.049,-0.075 -0.049,-0.122 0,-0.032 0.008,-0.061 0.023,-0.087 0.015,-0.026 0.036,-0.048 0.063,-0.063 0.027,-0.016 0.055,-0.023 0.086,-0.023zm-0.001 0.062c-0.03,0 -0.056,0.011 -0.076,0.032 -0.021,0.021 -0.031,0.048 -0.031,0.081 0,0.037 0.013,0.066 0.039,0.087 0.02,0.017 0.043,0.025 0.07,0.025 0.03,0 0.055,-0.011 0.075,-0.032 0.021,-0.022 0.031,-0.048 0.031,-0.08 0,-0.031 -0.01,-0.058 -0.031,-0.08 -0.021,-0.022 -0.046,-0.033 -0.076,-0.033zm0.198 -0.053l0.182 0 0 0.062 -0.06 0 0 0.269 -0.064 0 0 -0.269 -0.058 0 0 -0.062zm0.325 0l0.063 0 0.127 0.331 -0.065 0 -0.026 -0.068 -0.135 0 -0.026 0.068 -0.065 0 0.127 -0.331zm0.032 0.088l-0.045 0.114 0.089 0 -0.044 -0.114zm0.207 -0.088l0.179 0 0 0.062 -0.117 0 0 0.059 0.117 0 0 0.061 -0.117 0 0 0.087 0.117 0 0 0.062 -0.179 0 0 -0.331zm0.206 0l0.182 0 0 0.062 -0.06 0 0 0.269 -0.064 0 0 -0.269 -0.058 0 0 -0.062zm0.247 0.269l0.044 0.022 -0.055 0.095 -0.03 -0.015 0.042 -0.102zm-3.987 0.311l0.063 0 0.106 0.272 0.036 0 0 0.108 -0.06 0 0 -0.049 -0.227 0 0 0.049 -0.06 0 0 -0.108 0.037 0 0.105 -0.272zm0.032 0.087l-0.072 0.185 0.144 0 -0.072 -0.185zm0.214 -0.087l0.064 0 0 0.125 0.11 0 0 -0.125 0.063 0 0 0.331 -0.063 0 0 -0.145 -0.11 0 0 0.145 -0.064 0 0 -0.331zm0.312 0l0.18 0 0 0.062 -0.117 0 0 0.059 0.117 0 0 0.061 -0.117 0 0 0.087 0.117 0 0 0.062 -0.18 0 0 -0.331zm0.04 -0.09c0.009,0 0.016,0.003 0.023,0.009 0.006,0.006 0.009,0.014 0.009,0.023 0,0.009 -0.003,0.017 -0.009,0.023 -0.006,0.006 -0.014,0.009 -0.023,0.009 -0.009,0 -0.016,-0.003 -0.023,-0.009 -0.006,-0.006 -0.009,-0.014 -0.009,-0.023 0,-0.009 0.003,-0.016 0.009,-0.023 0.006,-0.006 0.014,-0.009 0.023,-0.009zm0.099 0c0.009,0 0.016,0.003 0.023,0.009 0.006,0.006 0.009,0.014 0.009,0.023 0,0.009 -0.003,0.017 -0.009,0.023 -0.006,0.006 -0.014,0.009 -0.023,0.009 -0.009,0 -0.016,-0.003 -0.023,-0.009 -0.006,-0.006 -0.009,-0.014 -0.009,-0.023 0,-0.009 0.003,-0.016 0.009,-0.023 0.006,-0.006 0.014,-0.009 0.023,-0.009zm0.13 0.09l0.061 0 0.077 0.231 0.077 -0.231 0.061 0 0.055 0.331 -0.06 0 -0.035 -0.209 -0.07 0.209 -0.055 0 -0.069 -0.209 -0.036 0.209 -0.061 0 0.057 -0.331zm0.811 0.058l-0.044 0.042c-0.03,-0.032 -0.063,-0.047 -0.101,-0.047 -0.031,0 -0.058,0.011 -0.08,0.032 -0.022,0.022 -0.032,0.048 -0.032,0.08 0,0.022 0.005,0.042 0.014,0.059 0.01,0.017 0.023,0.031 0.04,0.04 0.017,0.01 0.037,0.015 0.058,0.015 0.018,0 0.035,-0.003 0.05,-0.01 0.015,-0.007 0.032,-0.019 0.05,-0.037l0.043 0.045c-0.024,0.024 -0.047,0.04 -0.069,0.05 -0.022,0.009 -0.046,0.014 -0.074,0.014 -0.051,0 -0.093,-0.016 -0.126,-0.049 -0.033,-0.033 -0.049,-0.074 -0.049,-0.125 0,-0.033 0.007,-0.062 0.022,-0.088 0.015,-0.026 0.036,-0.046 0.064,-0.062 0.028,-0.016 0.057,-0.023 0.089,-0.023 0.027,0 0.053,0.006 0.078,0.017 0.025,0.012 0.047,0.028 0.065,0.049zm0.054 -0.058l0.237 0 0 0.331 -0.063 0 0 -0.272 -0.11 0 0 0.272 -0.064 0 0 -0.331zm0.551 0l0 0.331 -0.062 0 0 -0.207 -0.124 0.207 -0.054 0 0 -0.331 0.062 0 0 0.214 0.126 -0.214 0.052 0zm0.043 0l0.182 0 0 0.062 -0.06 0 0 0.269 -0.064 0 0 -0.269 -0.058 0 0 -0.062zm0.251 0.266c0.01,0 0.018,0.003 0.025,0.01 0.007,0.007 0.01,0.015 0.01,0.025 0,0.01 -0.003,0.018 -0.01,0.025 -0.007,0.007 -0.015,0.01 -0.025,0.01 -0.01,0 -0.018,-0.003 -0.025,-0.01 -0.007,-0.007 -0.01,-0.015 -0.01,-0.025 0,-0.01 0.003,-0.018 0.01,-0.025 0.007,-0.007 0.015,-0.01 0.025,-0.01z"/>
 </g>
</svg>
