<?xml version="1.0" encoding="UTF-8"?>
<!DOCTYPE svg PUBLIC "-//W3C//DTD SVG 1.1//EN" "http://www.w3.org/Graphics/SVG/1.1/DTD/svg11.dtd">
<!-- Creator: CorelDRAW 2019 (64-Bit) -->
<svg xmlns="http://www.w3.org/2000/svg" xml:space="preserve" width="2.24242cm" height="0.56328cm" version="1.1" style="shape-rendering:geometricPrecision; text-rendering:geometricPrecision; image-rendering:optimizeQuality; fill-rule:evenodd; clip-rule:evenodd"
viewBox="0 0 5.595 1.405"
 xmlns:xlink="http://www.w3.org/1999/xlink"
 xmlns:xodm="http://www.corel.com/coreldraw/odm/2003">
 <defs>
  <style type="text/css">
   <![CDATA[
    .str0 {stroke:#706541;stroke-width:0.026;stroke-miterlimit:22.9256}
    .fil0 {fill:#706541;fill-rule:nonzero}
   ]]>
  </style>
 </defs>
 <g id="Слой_x0020_1">
  <metadata id="CorelCorpID_0Corel-Layer"/>
  <g id="_2494997273664">
   <path class="fil0 str0" d="M0.405 0.617l-0.047 0 -0.144 -0.338 -0.146 0.338 -0.047 0 0.189 -0.436 0.01 0 0.186 0.436zm0.04 -0.435l0.049 0 0.132 0.296 0.12 -0.298 0.048 0 -0.165 0.392c-0.015,0.037 -0.042,0.055 -0.082,0.055 -0.016,0 -0.03,-0.003 -0.044,-0.01 -0.014,-0.006 -0.032,-0.022 -0.053,-0.046l0.032 -0.026c0.022,0.022 0.036,0.034 0.043,0.037 0.007,0.003 0.015,0.004 0.022,0.004 0.011,0 0.021,-0.003 0.03,-0.009 0.008,-0.006 0.018,-0.021 0.027,-0.046l-0.158 -0.351zm0.423 0.5l-0.043 0 0 -0.106 0.035 0 0.17 -0.396 0.015 0 0.18 0.396 0.034 0 0 0.106 -0.043 0 0 -0.065 -0.346 0 0 0.065zm0.04 -0.106l0.265 0 -0.136 -0.304 -0.129 0.304zm0.58 -0.396l0.085 0c0.034,0 0.061,0.004 0.079,0.012 0.019,0.008 0.033,0.021 0.044,0.038 0.011,0.017 0.016,0.036 0.016,0.057 0,0.019 -0.005,0.037 -0.014,0.053 -0.009,0.016 -0.023,0.029 -0.041,0.039 0.023,0.008 0.04,0.017 0.052,0.027 0.012,0.01 0.022,0.023 0.028,0.038 0.007,0.015 0.01,0.031 0.01,0.048 0,0.035 -0.013,0.065 -0.038,0.089 -0.025,0.024 -0.06,0.036 -0.102,0.036l-0.119 0 0 -0.436zm0.042 0.043l0 0.14 0.025 0c0.03,0 0.052,-0.003 0.067,-0.008 0.014,-0.006 0.025,-0.015 0.034,-0.027 0.008,-0.012 0.012,-0.026 0.012,-0.041 0,-0.02 -0.007,-0.036 -0.021,-0.047 -0.014,-0.011 -0.036,-0.017 -0.067,-0.017l-0.05 0zm0 0.184l0 0.168 0.054 0c0.032,0 0.055,-0.003 0.07,-0.009 0.015,-0.006 0.027,-0.016 0.036,-0.029 0.009,-0.013 0.013,-0.028 0.013,-0.043 0,-0.019 -0.006,-0.036 -0.019,-0.051 -0.013,-0.014 -0.03,-0.024 -0.052,-0.03 -0.015,-0.004 -0.041,-0.005 -0.077,-0.005l-0.025 0zm0.303 -0.226l0.043 0 0 0.187 0.031 0c0.057,0 0.098,0.003 0.122,0.008 0.025,0.006 0.045,0.018 0.06,0.038 0.015,0.02 0.023,0.046 0.023,0.077 0,0.031 -0.007,0.056 -0.022,0.077 -0.015,0.02 -0.034,0.034 -0.056,0.04 -0.023,0.006 -0.061,0.009 -0.115,0.009l-0.086 0 0 -0.436zm0.043 0.394l0.046 0c0.049,0 0.081,-0.002 0.095,-0.007 0.015,-0.005 0.027,-0.013 0.035,-0.026 0.009,-0.013 0.013,-0.029 0.013,-0.049 0,-0.022 -0.006,-0.039 -0.016,-0.053 -0.011,-0.014 -0.025,-0.022 -0.042,-0.025 -0.017,-0.003 -0.049,-0.005 -0.095,-0.005l-0.037 0 0 0.164zm0.287 -0.394l0.043 0 0 0.436 -0.043 0 0 -0.436zm0.5 0.436l-0.047 0 -0.144 -0.338 -0.146 0.338 -0.047 0 0.189 -0.436 0.01 0 0.186 0.436zm0.03 -0.394l0 -0.043 0.237 0 0 0.043 -0.097 0 0 0.394 -0.044 0 0 -0.394 -0.097 0zm0.642 0.394l-0.045 0 0 -0.335 -0.286 0.335 -0.01 0 0 -0.436 0.043 0 0 0.34 0.288 -0.34 0.01 0 0 0.436zm0.229 -0.394l0 -0.043 0.237 0 0 0.043 -0.097 0 0 0.394 -0.044 0 0 -0.394 -0.097 0zm0.507 -0.053c0.066,0 0.121,0.022 0.165,0.066 0.044,0.044 0.066,0.098 0.066,0.163 0,0.064 -0.022,0.118 -0.066,0.163 -0.044,0.044 -0.098,0.067 -0.161,0.067 -0.064,0 -0.118,-0.022 -0.163,-0.066 -0.044,-0.044 -0.066,-0.098 -0.066,-0.161 0,-0.042 0.01,-0.081 0.03,-0.117 0.02,-0.036 0.048,-0.064 0.082,-0.084 0.035,-0.02 0.072,-0.03 0.113,-0.03zm0.002 0.043c-0.032,0 -0.062,0.008 -0.091,0.025 -0.029,0.017 -0.051,0.039 -0.067,0.068 -0.016,0.029 -0.024,0.06 -0.024,0.095 0,0.052 0.018,0.096 0.054,0.131 0.036,0.036 0.079,0.054 0.129,0.054 0.034,0 0.065,-0.008 0.093,-0.025 0.029,-0.016 0.051,-0.039 0.067,-0.067 0.016,-0.028 0.024,-0.06 0.024,-0.095 0,-0.035 -0.008,-0.066 -0.024,-0.094 -0.016,-0.028 -0.039,-0.05 -0.068,-0.067 -0.029,-0.017 -0.06,-0.025 -0.093,-0.025zm0.316 0.47l-0.043 0 0 -0.106 0.035 0 0.17 -0.396 0.015 0 0.18 0.396 0.034 0 0 0.106 -0.043 0 0 -0.065 -0.346 0 0 0.065zm0.04 -0.106l0.265 0 -0.136 -0.304 -0.129 0.304zm0.412 -0.396l0.043 0 0 0.187 0.031 0c0.057,0 0.098,0.003 0.122,0.008 0.025,0.006 0.045,0.018 0.06,0.038 0.015,0.02 0.023,0.046 0.023,0.077 0,0.031 -0.007,0.056 -0.022,0.077 -0.015,0.02 -0.034,0.034 -0.056,0.04 -0.023,0.006 -0.061,0.009 -0.115,0.009l-0.086 0 0 -0.436zm0.043 0.394l0.046 0c0.049,0 0.081,-0.002 0.095,-0.007 0.015,-0.005 0.027,-0.013 0.035,-0.026 0.009,-0.013 0.013,-0.029 0.013,-0.049 0,-0.022 -0.006,-0.039 -0.016,-0.053 -0.011,-0.014 -0.025,-0.022 -0.042,-0.025 -0.017,-0.003 -0.049,-0.005 -0.095,-0.005l-0.037 0 0 0.164zm0.323 -0.394l0.043 0 0 0.187 0.031 0c0.057,0 0.098,0.003 0.122,0.008 0.025,0.006 0.045,0.018 0.06,0.038 0.015,0.02 0.023,0.046 0.023,0.077 0,0.031 -0.007,0.056 -0.022,0.077 -0.015,0.02 -0.034,0.034 -0.056,0.04 -0.023,0.006 -0.061,0.009 -0.115,0.009l-0.086 0 0 -0.436zm0.043 0.394l0.046 0c0.049,0 0.081,-0.002 0.095,-0.007 0.015,-0.005 0.027,-0.013 0.035,-0.026 0.009,-0.013 0.013,-0.029 0.013,-0.049 0,-0.022 -0.006,-0.039 -0.017,-0.053 -0.011,-0.014 -0.025,-0.022 -0.042,-0.025 -0.017,-0.003 -0.049,-0.005 -0.095,-0.005l-0.037 0 0 0.164zm0.287 -0.394l0.044 0 0 0.436 -0.044 0 0 -0.436zm-5.485 1.201l0 -0.436 0.217 0 0 0.043 -0.174 0 0 0.14 0.02 0c0.054,0 0.093,0.005 0.117,0.014 0.024,0.01 0.044,0.025 0.058,0.045 0.014,0.021 0.021,0.044 0.021,0.069 0,0.033 -0.012,0.062 -0.037,0.088 -0.025,0.025 -0.059,0.038 -0.103,0.038l-0.119 0zm0.043 -0.21l0 0.168 0.053 0c0.031,0 0.055,-0.003 0.069,-0.009 0.015,-0.006 0.026,-0.016 0.035,-0.029 0.009,-0.013 0.013,-0.028 0.013,-0.044 0,-0.02 -0.006,-0.037 -0.018,-0.051 -0.012,-0.014 -0.028,-0.023 -0.046,-0.028 -0.018,-0.004 -0.046,-0.007 -0.082,-0.007l-0.024 0zm0.27 -0.225l0.049 0 0.132 0.296 0.12 -0.298 0.048 0 -0.165 0.392c-0.015,0.037 -0.042,0.055 -0.082,0.055 -0.016,0 -0.03,-0.003 -0.044,-0.01 -0.014,-0.006 -0.032,-0.022 -0.053,-0.046l0.032 -0.026c0.022,0.022 0.036,0.034 0.043,0.037 0.007,0.003 0.015,0.004 0.022,0.004 0.011,0 0.021,-0.003 0.03,-0.009 0.008,-0.006 0.018,-0.021 0.027,-0.046l-0.158 -0.351zm0.466 0.435l-0.043 0 0 -0.436 0.217 0 0 0.043 -0.174 0 0 0.394zm0.443 -0.447c0.066,0 0.121,0.022 0.165,0.066 0.044,0.044 0.066,0.098 0.066,0.163 0,0.064 -0.022,0.118 -0.066,0.163 -0.044,0.044 -0.098,0.067 -0.161,0.067 -0.064,0 -0.118,-0.022 -0.163,-0.066 -0.044,-0.044 -0.066,-0.098 -0.066,-0.161 0,-0.042 0.01,-0.081 0.03,-0.117 0.02,-0.036 0.048,-0.064 0.082,-0.084 0.035,-0.02 0.072,-0.03 0.113,-0.03zm0.002 0.043c-0.032,0 -0.062,0.008 -0.091,0.025 -0.029,0.017 -0.051,0.039 -0.067,0.068 -0.016,0.029 -0.024,0.06 -0.024,0.095 0,0.052 0.018,0.096 0.054,0.131 0.036,0.036 0.079,0.054 0.129,0.054 0.034,0 0.065,-0.008 0.093,-0.025 0.029,-0.016 0.051,-0.039 0.067,-0.067 0.016,-0.028 0.024,-0.06 0.024,-0.095 0,-0.035 -0.008,-0.066 -0.024,-0.094 -0.016,-0.028 -0.039,-0.05 -0.068,-0.067 -0.029,-0.017 -0.06,-0.025 -0.093,-0.025zm0.316 -0.032l0.086 0c0.05,0 0.083,0.002 0.1,0.006 0.025,0.006 0.045,0.019 0.061,0.038 0.016,0.019 0.024,0.043 0.024,0.072 0,0.029 -0.008,0.053 -0.023,0.072 -0.015,0.019 -0.036,0.031 -0.063,0.038 -0.02,0.005 -0.056,0.007 -0.11,0.007l-0.031 0 0 0.203 -0.043 0 0 -0.436zm0.043 0.043l0 0.148 0.074 0.001c0.03,0 0.051,-0.003 0.065,-0.008 0.014,-0.005 0.025,-0.014 0.033,-0.026 0.008,-0.012 0.012,-0.026 0.012,-0.041 0,-0.015 -0.004,-0.028 -0.012,-0.04 -0.008,-0.012 -0.018,-0.021 -0.031,-0.026 -0.013,-0.005 -0.034,-0.008 -0.063,-0.008l-0.077 0zm0.481 -0.043l0.308 0 0 0.436 -0.043 0 0 -0.395 -0.221 0 0 0.395 -0.043 0 0 -0.436zm0.755 0.436l-0.045 0 0 -0.335 -0.286 0.335 -0.01 0 0 -0.436 0.043 0 0 0.34 0.288 -0.34 0.01 0 0 0.436zm0.062 -0.394l0 -0.043 0.237 0 0 0.043 -0.097 0 0 0.394 -0.044 0 0 -0.394 -0.097 0zm0.3 -0.043l0.043 0 0 0.187 0.031 0c0.057,0 0.098,0.003 0.122,0.008 0.025,0.006 0.045,0.018 0.06,0.038 0.015,0.02 0.023,0.046 0.023,0.077 0,0.031 -0.007,0.056 -0.022,0.077 -0.015,0.02 -0.034,0.034 -0.056,0.04 -0.023,0.006 -0.061,0.009 -0.115,0.009l-0.086 0 0 -0.436zm0.043 0.394l0.046 0c0.049,0 0.081,-0.002 0.095,-0.007 0.015,-0.005 0.027,-0.013 0.035,-0.026 0.009,-0.013 0.013,-0.029 0.013,-0.049 0,-0.022 -0.006,-0.039 -0.016,-0.053 -0.011,-0.014 -0.025,-0.022 -0.042,-0.025 -0.017,-0.003 -0.049,-0.005 -0.095,-0.005l-0.037 0 0 0.164zm0.287 -0.394l0.043 0 0 0.436 -0.043 0 0 -0.436zm0.149 0l0.086 0c0.05,0 0.083,0.002 0.1,0.006 0.025,0.006 0.045,0.019 0.061,0.038 0.016,0.019 0.024,0.043 0.024,0.072 0,0.029 -0.008,0.053 -0.023,0.072 -0.015,0.019 -0.036,0.031 -0.063,0.038 -0.02,0.005 -0.056,0.007 -0.11,0.007l-0.031 0 0 0.203 -0.043 0 0 -0.436zm0.043 0.043l0 0.148 0.074 0.001c0.03,0 0.051,-0.003 0.065,-0.008 0.014,-0.005 0.025,-0.014 0.033,-0.026 0.008,-0.012 0.012,-0.026 0.012,-0.041 0,-0.015 -0.004,-0.028 -0.012,-0.04 -0.008,-0.012 -0.018,-0.021 -0.031,-0.026 -0.013,-0.005 -0.034,-0.008 -0.063,-0.008l-0.077 0zm0.492 -0.043l0.202 0.436 -0.047 0 -0.068 -0.143 -0.188 0 -0.067 0.143 -0.048 0 0.205 -0.436 0.011 0zm-0.005 0.092l-0.075 0.159 0.149 0 -0.074 -0.159zm0.313 0.279c0.01,0 0.019,0.004 0.026,0.011 0.007,0.007 0.011,0.016 0.011,0.026 0,0.01 -0.004,0.019 -0.011,0.026 -0.007,0.007 -0.016,0.011 -0.026,0.011 -0.01,0 -0.019,-0.004 -0.026,-0.011 -0.007,-0.007 -0.011,-0.016 -0.011,-0.026 0,-0.01 0.004,-0.019 0.011,-0.026 0.007,-0.007 0.016,-0.011 0.026,-0.011z"/>
   <path class="fil0 str0" d="M3.99 0.013c0.01,0 0.019,0.004 0.026,0.011 0.007,0.007 0.011,0.016 0.011,0.026 0,0.01 -0.004,0.019 -0.011,0.026 -0.007,0.007 -0.016,0.011 -0.026,0.011 -0.01,0 -0.019,-0.004 -0.026,-0.011 -0.007,-0.007 -0.011,-0.016 -0.011,-0.026 0,-0.01 0.004,-0.019 0.011,-0.026 0.007,-0.007 0.016,-0.011 0.026,-0.011zm0.167 0c0.01,0 0.019,0.004 0.026,0.011 0.007,0.007 0.011,0.016 0.011,0.026 0,0.01 -0.004,0.019 -0.011,0.026 -0.007,0.007 -0.016,0.011 -0.026,0.011 -0.01,0 -0.019,-0.004 -0.026,-0.011 -0.007,-0.007 -0.011,-0.016 -0.011,-0.026 0,-0.01 0.004,-0.019 0.011,-0.026 0.007,-0.007 0.016,-0.011 0.026,-0.011z"/>
   <path class="fil0 str0" d="M3.08 0.013c0.01,0 0.019,0.004 0.026,0.011 0.007,0.007 0.011,0.016 0.011,0.026 0,0.01 -0.004,0.019 -0.011,0.026 -0.007,0.007 -0.016,0.011 -0.026,0.011 -0.01,0 -0.019,-0.004 -0.026,-0.011 -0.007,-0.007 -0.011,-0.016 -0.011,-0.026 0,-0.01 0.004,-0.019 0.011,-0.026 0.007,-0.007 0.016,-0.011 0.026,-0.011zm0.167 0c0.01,0 0.019,0.004 0.026,0.011 0.007,0.007 0.011,0.016 0.011,0.026 0,0.01 -0.004,0.019 -0.011,0.026 -0.007,0.007 -0.016,0.011 -0.026,0.011 -0.01,0 -0.019,-0.004 -0.026,-0.011 -0.007,-0.007 -0.011,-0.016 -0.011,-0.026 0,-0.01 0.004,-0.019 0.011,-0.026 0.007,-0.007 0.016,-0.011 0.026,-0.011z"/>
  </g>
 </g>
</svg>
