<?xml version="1.0" encoding="UTF-8"?>
<!DOCTYPE svg PUBLIC "-//W3C//DTD SVG 1.1//EN" "http://www.w3.org/Graphics/SVG/1.1/DTD/svg11.dtd">
<!-- Creator: CorelDRAW 2019 (64-Bit) -->
<svg xmlns="http://www.w3.org/2000/svg" xml:space="preserve" width="2.13226cm" height="0.50102cm" version="1.1" style="shape-rendering:geometricPrecision; text-rendering:geometricPrecision; image-rendering:optimizeQuality; fill-rule:evenodd; clip-rule:evenodd"
viewBox="0 0 5.017 1.179"
 xmlns:xlink="http://www.w3.org/1999/xlink"
 xmlns:xodm="http://www.corel.com/coreldraw/odm/2003">
 <defs>
  <style type="text/css">
   <![CDATA[
    .str0 {stroke:#706541;stroke-width:0.025;stroke-miterlimit:22.9256}
    .fil0 {fill:#706541;fill-rule:nonzero}
   ]]>
  </style>
 </defs>
 <g id="Слой_x0020_1">
  <metadata id="CorelCorpID_0Corel-Layer"/>
  <g id="_2495018413552">
   <path class="fil0 str0" d="M0.223 0.023l0.191 0.412 -0.044 0 -0.064 -0.135 -0.177 0 -0.064 0.135 -0.046 0 0.193 -0.412 0.01 0zm-0.005 0.086l-0.07 0.15 0.141 0 -0.07 -0.15zm0.426 0.091l0 -0.178 0.041 0 0 0.412 -0.041 0 0 -0.194 -0.029 0c-0.041,0 -0.07,-0.002 -0.089,-0.005 -0.019,-0.003 -0.036,-0.011 -0.05,-0.022 -0.015,-0.011 -0.025,-0.025 -0.03,-0.041 -0.005,-0.016 -0.008,-0.039 -0.008,-0.068l0 -0.082 0.04 0 0 0.084c0,0.035 0.007,0.059 0.021,0.073 0.014,0.014 0.037,0.021 0.069,0.021l0.029 -0 0.013 0 0.037 0zm0.463 0.234l-0.043 0 0 -0.316 -0.27 0.316 -0.009 0 0 -0.412 0.041 0 0 0.321 0.272 -0.321 0.009 0 0 0.412zm0.107 -0.372c0.029,-0.034 0.064,-0.05 0.107,-0.05 0.034,0 0.061,0.01 0.083,0.029 0.022,0.019 0.033,0.045 0.033,0.076 0,0.044 -0.021,0.075 -0.062,0.094 0.054,0.017 0.081,0.053 0.081,0.109 0,0.037 -0.012,0.067 -0.036,0.09 -0.024,0.023 -0.057,0.034 -0.099,0.034 -0.029,0 -0.055,-0.006 -0.076,-0.018 -0.022,-0.012 -0.042,-0.034 -0.061,-0.064l0.032 -0.019c0.019,0.028 0.037,0.046 0.053,0.054 0.017,0.008 0.034,0.012 0.052,0.012 0.026,0 0.048,-0.008 0.066,-0.023 0.018,-0.015 0.027,-0.037 0.027,-0.067 0,-0.015 -0.003,-0.029 -0.009,-0.04 -0.006,-0.011 -0.015,-0.021 -0.026,-0.028 -0.011,-0.007 -0.022,-0.012 -0.032,-0.013 -0.01,-0.002 -0.027,-0.003 -0.05,-0.003l-0.007 0 0 -0.036 0.014 0c0.061,0 0.091,-0.025 0.091,-0.074 0,-0.023 -0.007,-0.041 -0.021,-0.055 -0.014,-0.013 -0.031,-0.02 -0.053,-0.02 -0.028,0 -0.053,0.013 -0.078,0.038l-0.028 -0.025zm0.48 -0.04l0.291 0 0 0.412 -0.041 0 0 -0.373 -0.209 0 0 0.373 -0.041 0 0 -0.412zm0.713 0.412l-0.043 0 0 -0.316 -0.27 0.316 -0.009 0 0 -0.412 0.041 0 0 0.321 0.272 -0.321 0.009 0 0 0.412zm0.266 -0.234l0 -0.178 0.041 0 0 0.412 -0.041 0 0 -0.194 -0.029 0c-0.041,0 -0.07,-0.002 -0.089,-0.005 -0.019,-0.003 -0.036,-0.011 -0.05,-0.022 -0.015,-0.011 -0.025,-0.025 -0.03,-0.041 -0.005,-0.016 -0.008,-0.039 -0.008,-0.068l0 -0.082 0.04 0 0 0.084c0,0.035 0.007,0.059 0.021,0.073 0.014,0.014 0.037,0.021 0.069,0.021l0.029 -0 0.013 0 0.037 0zm0.463 0.234l-0.043 0 0 -0.316 -0.27 0.316 -0.009 0 0 -0.412 0.041 0 0 0.321 0.272 -0.321 0.009 0 0 0.412zm0.297 0l-0.041 0 0 -0.412 0.205 0 0 0.04 -0.164 0 0 0.372zm0.545 0l-0.043 0 0 -0.316 -0.27 0.316 -0.009 0 0 -0.412 0.041 0 0 0.321 0.272 -0.321 0.009 0 0 0.412zm0.098 -0.412l0.041 0 0 0.173 0.209 0 0 -0.173 0.041 0 0 0.412 -0.041 0 0 -0.199 -0.209 0 0 0.199 -0.041 0 0 -0.412zm0.726 0.224l-0.193 0 0 -0.04 0.192 0c-0.004,-0.047 -0.023,-0.085 -0.058,-0.113 -0.035,-0.028 -0.074,-0.042 -0.117,-0.042 -0.062,0 -0.11,0.024 -0.146,0.071l-0.032 -0.024c0.019,-0.027 0.043,-0.048 0.075,-0.064 0.031,-0.015 0.066,-0.023 0.104,-0.023 0.063,0 0.115,0.021 0.157,0.062 0.042,0.041 0.063,0.092 0.063,0.152 0,0.061 -0.02,0.113 -0.06,0.155 -0.04,0.042 -0.094,0.064 -0.161,0.064 -0.076,0 -0.136,-0.027 -0.179,-0.082l0.032 -0.025c0.038,0.045 0.086,0.068 0.144,0.068 0.044,0 0.083,-0.013 0.117,-0.039 0.034,-0.026 0.055,-0.066 0.062,-0.12zm0.16 0.112l0.037 0.018 -0.056 0.106 -0.027 -0.012 0.046 -0.112zm-4.907 0.797l0 -0.412 0.205 0 0 0.04 -0.164 0 0 0.132 0.019 0c0.051,0 0.088,0.004 0.111,0.014 0.023,0.009 0.041,0.023 0.054,0.043 0.013,0.02 0.02,0.041 0.02,0.065 0,0.031 -0.012,0.059 -0.035,0.083 -0.023,0.024 -0.056,0.036 -0.098,0.036l-0.112 0zm0.041 -0.198l0 0.158 0.05 0c0.03,0 0.052,-0.003 0.065,-0.009 0.014,-0.006 0.025,-0.015 0.033,-0.027 0.008,-0.012 0.012,-0.026 0.012,-0.041 0,-0.019 -0.006,-0.035 -0.017,-0.049 -0.012,-0.013 -0.026,-0.022 -0.044,-0.026 -0.017,-0.004 -0.043,-0.006 -0.077,-0.006l-0.023 0zm0.285 -0.213l0.041 0 0 0.177 0.03 0c0.054,0 0.092,0.003 0.115,0.008 0.023,0.005 0.042,0.017 0.056,0.036 0.014,0.019 0.021,0.043 0.021,0.073 0,0.029 -0.007,0.053 -0.021,0.072 -0.014,0.019 -0.032,0.032 -0.053,0.038 -0.022,0.006 -0.058,0.009 -0.108,0.009l-0.082 0 0 -0.412zm0.041 0.372l0.044 0c0.046,0 0.076,-0.002 0.09,-0.007 0.014,-0.004 0.025,-0.013 0.033,-0.024 0.008,-0.012 0.012,-0.027 0.012,-0.046 0,-0.021 -0.005,-0.037 -0.016,-0.05 -0.01,-0.013 -0.024,-0.021 -0.04,-0.024 -0.016,-0.003 -0.046,-0.004 -0.09,-0.004l-0.034 0 0 0.155zm0.271 -0.372l0.041 0 0 0.412 -0.041 0 0 -0.412zm0.377 0.221l0 0.191 -0.041 0 0 -0.191 -0.013 -0.011 -0.167 0.203 -0.054 0 0.195 -0.228 -0.18 -0.184 0.055 0 0.164 0.174 0 -0.174 0.041 0 0 0.174 0.165 -0.174 0.054 0 -0.18 0.184 0.195 0.228 -0.054 0 -0.168 -0.203 -0.013 0.011zm0.296 -0.221l0.041 0 0 0.177 0.03 0c0.054,0 0.092,0.003 0.115,0.008 0.023,0.005 0.042,0.017 0.056,0.036 0.014,0.019 0.021,0.043 0.021,0.073 0,0.029 -0.007,0.053 -0.021,0.072 -0.014,0.019 -0.032,0.032 -0.053,0.038 -0.022,0.006 -0.058,0.009 -0.108,0.009l-0.082 0 0 -0.412zm0.041 0.372l0.044 0c0.046,0 0.076,-0.002 0.09,-0.007 0.014,-0.004 0.025,-0.013 0.033,-0.024 0.008,-0.012 0.012,-0.027 0.012,-0.046 0,-0.021 -0.005,-0.037 -0.016,-0.05 -0.01,-0.013 -0.024,-0.021 -0.04,-0.024 -0.016,-0.003 -0.046,-0.004 -0.09,-0.004l-0.034 0 0 0.155zm0.271 -0.372l0.041 0 0 0.412 -0.041 0 0 -0.412zm0.149 0.04c0.029,-0.034 0.064,-0.05 0.107,-0.05 0.034,0 0.061,0.01 0.083,0.029 0.022,0.019 0.033,0.045 0.033,0.076 0,0.044 -0.021,0.075 -0.062,0.094 0.054,0.017 0.081,0.053 0.081,0.109 0,0.037 -0.012,0.067 -0.036,0.09 -0.024,0.023 -0.057,0.034 -0.099,0.034 -0.029,0 -0.055,-0.006 -0.076,-0.018 -0.022,-0.012 -0.042,-0.034 -0.061,-0.064l0.032 -0.019c0.019,0.028 0.037,0.046 0.053,0.054 0.017,0.008 0.034,0.012 0.052,0.012 0.026,0 0.048,-0.008 0.066,-0.023 0.018,-0.015 0.027,-0.037 0.027,-0.067 0,-0.015 -0.003,-0.029 -0.009,-0.04 -0.006,-0.011 -0.015,-0.021 -0.026,-0.028 -0.011,-0.007 -0.022,-0.012 -0.032,-0.013 -0.01,-0.002 -0.027,-0.003 -0.05,-0.003l-0.007 0 0 -0.036 0.014 0c0.061,0 0.091,-0.025 0.091,-0.074 0,-0.023 -0.007,-0.041 -0.021,-0.055 -0.014,-0.013 -0.031,-0.02 -0.053,-0.02 -0.028,0 -0.053,0.013 -0.078,0.038l-0.028 -0.025zm0.489 0c0.029,-0.034 0.064,-0.05 0.107,-0.05 0.034,0 0.061,0.01 0.083,0.029 0.022,0.019 0.033,0.045 0.033,0.076 0,0.044 -0.021,0.075 -0.062,0.094 0.054,0.017 0.081,0.053 0.081,0.109 0,0.037 -0.012,0.067 -0.036,0.09 -0.024,0.023 -0.057,0.034 -0.099,0.034 -0.029,0 -0.055,-0.006 -0.076,-0.018 -0.022,-0.012 -0.042,-0.034 -0.061,-0.064l0.032 -0.019c0.019,0.028 0.037,0.046 0.053,0.054 0.017,0.008 0.034,0.012 0.052,0.012 0.026,0 0.048,-0.008 0.066,-0.023 0.018,-0.015 0.027,-0.037 0.027,-0.067 0,-0.015 -0.003,-0.029 -0.009,-0.04 -0.006,-0.011 -0.015,-0.021 -0.026,-0.028 -0.011,-0.007 -0.022,-0.012 -0.032,-0.013 -0.01,-0.002 -0.027,-0.003 -0.05,-0.003l-0.007 0 0 -0.036 0.014 0c0.061,0 0.091,-0.025 0.091,-0.074 0,-0.023 -0.007,-0.041 -0.021,-0.055 -0.014,-0.013 -0.031,-0.02 -0.053,-0.02 -0.028,0 -0.053,0.013 -0.078,0.038l-0.028 -0.025zm0.518 -0.05c0.062,0 0.114,0.021 0.155,0.062 0.042,0.042 0.063,0.093 0.063,0.154 0,0.06 -0.021,0.111 -0.062,0.153 -0.042,0.042 -0.092,0.063 -0.152,0.063 -0.061,0 -0.112,-0.021 -0.153,-0.063 -0.042,-0.042 -0.063,-0.092 -0.063,-0.152 0,-0.04 0.01,-0.076 0.028,-0.11 0.019,-0.034 0.045,-0.06 0.078,-0.079 0.033,-0.019 0.068,-0.029 0.106,-0.029zm0.002 0.04c-0.03,0 -0.059,0.008 -0.086,0.024 -0.027,0.016 -0.048,0.037 -0.064,0.064 -0.015,0.027 -0.023,0.057 -0.023,0.09 0,0.049 0.017,0.09 0.051,0.124 0.034,0.034 0.074,0.051 0.122,0.051 0.032,0 0.061,-0.008 0.088,-0.023 0.027,-0.015 0.048,-0.037 0.063,-0.064 0.015,-0.027 0.023,-0.057 0.023,-0.09 0,-0.033 -0.008,-0.062 -0.023,-0.089 -0.015,-0.026 -0.036,-0.048 -0.064,-0.063 -0.027,-0.016 -0.057,-0.024 -0.087,-0.024zm0.298 -0.03l0.042 0 0 0.154 0.164 -0.154 0.055 0 -0.197 0.185 0.213 0.227 -0.055 0 -0.18 -0.192 0 0.192 -0.042 0 0 -0.412zm0.373 0.35c0.01,0 0.017,0.003 0.024,0.01 0.007,0.007 0.01,0.015 0.01,0.025 0,0.01 -0.003,0.018 -0.01,0.024 -0.007,0.007 -0.015,0.01 -0.024,0.01 -0.009,0 -0.017,-0.003 -0.024,-0.01 -0.007,-0.007 -0.01,-0.015 -0.01,-0.024 0,-0.01 0.003,-0.018 0.01,-0.025 0.007,-0.007 0.015,-0.01 0.024,-0.01z"/>
   <path class="fil0 str0" d="M2.762 0.607c0.01,0 0.017,0.003 0.024,0.01 0.007,0.007 0.01,0.015 0.01,0.025 0,0.01 -0.003,0.018 -0.01,0.024 -0.007,0.007 -0.015,0.01 -0.024,0.01 -0.009,0 -0.017,-0.003 -0.024,-0.01 -0.007,-0.007 -0.01,-0.015 -0.01,-0.024 0,-0.01 0.003,-0.018 0.01,-0.025 0.007,-0.007 0.015,-0.01 0.024,-0.01zm0.158 0c0.01,0 0.017,0.003 0.024,0.01 0.007,0.007 0.01,0.015 0.01,0.025 0,0.01 -0.003,0.018 -0.01,0.024 -0.007,0.007 -0.015,0.01 -0.024,0.01 -0.009,0 -0.017,-0.003 -0.024,-0.01 -0.007,-0.007 -0.01,-0.015 -0.01,-0.024 0,-0.01 0.003,-0.018 0.01,-0.025 0.007,-0.007 0.015,-0.01 0.024,-0.01z"/>
  </g>
 </g>
</svg>
