<?xml version="1.0" encoding="UTF-8"?>
<!DOCTYPE svg PUBLIC "-//W3C//DTD SVG 1.1//EN" "http://www.w3.org/Graphics/SVG/1.1/DTD/svg11.dtd">
<!-- Creator: CorelDRAW 2019 (64-Bit) -->
<svg xmlns="http://www.w3.org/2000/svg" xml:space="preserve" width="1.50991cm" height="0.49636cm" version="1.1" style="shape-rendering:geometricPrecision; text-rendering:geometricPrecision; image-rendering:optimizeQuality; fill-rule:evenodd; clip-rule:evenodd"
viewBox="0 0 2.536 0.834"
 xmlns:xlink="http://www.w3.org/1999/xlink"
 xmlns:xodm="http://www.corel.com/coreldraw/odm/2003">
 <defs>
  <style type="text/css">
   <![CDATA[
    .str0 {stroke:#706541;stroke-width:0.018;stroke-miterlimit:22.9256}
    .fil0 {fill:#706541;fill-rule:nonzero}
   ]]>
  </style>
 </defs>
 <g id="Слой_x0020_1">
  <metadata id="CorelCorpID_0Corel-Layer"/>
  <path class="fil0 str0" d="M0.014 0.01l0.033 0 0.089 0.2 0.081 -0.2 0.032 0 -0.111 0.264c-0.01,0.025 -0.029,0.037 -0.055,0.037 -0.011,0 -0.021,-0.002 -0.03,-0.006 -0.009,-0.004 -0.021,-0.015 -0.036,-0.031l0.021 -0.018c0.015,0.015 0.024,0.023 0.029,0.025 0.005,0.002 0.01,0.003 0.015,0.003 0.008,0 0.014,-0.002 0.02,-0.006 0.006,-0.004 0.012,-0.014 0.018,-0.031l-0.107 -0.236zm0.515 0.293l-0.03 0 0 -0.226 -0.193 0.226 -0.007 0 0 -0.294 0.029 0 0 0.229 0.194 -0.229 0.007 0 0 0.294zm0.07 -0.294l0.029 0 0 0.123 0.149 0 0 -0.123 0.029 0 0 0.294 -0.029 0 0 -0.142 -0.149 0 0 0.142 -0.029 0 0 -0.294zm0.369 0.001l0.033 0 0.089 0.2 0.081 -0.2 0.032 0 -0.111 0.264c-0.01,0.025 -0.029,0.037 -0.055,0.037 -0.011,0 -0.021,-0.002 -0.03,-0.006 -0.009,-0.004 -0.021,-0.015 -0.036,-0.031l0.021 -0.018c0.015,0.015 0.024,0.023 0.029,0.025 0.005,0.002 0.01,0.003 0.015,0.003 0.008,0 0.014,-0.002 0.02,-0.006 0.006,-0.004 0.012,-0.014 0.018,-0.031l-0.107 -0.236zm0.454 0.157l0 0.136 -0.029 0 0 -0.136 -0.009 -0.008 -0.119 0.145 -0.039 0 0.139 -0.163 -0.128 -0.131 0.039 0 0.117 0.124 0 -0.124 0.029 0 0 0.124 0.117 -0.124 0.039 0 -0.128 0.131 0.139 0.163 -0.039 0 -0.12 -0.145 -0.009 0.008zm0.331 -0.157l0.136 0.294 -0.031 0 -0.046 -0.097 -0.127 0 -0.045 0.097 -0.033 0 0.138 -0.294 0.007 0zm-0.004 0.062l-0.05 0.107 0.1 0 -0.05 -0.107zm0.208 0.178l0.027 0.013 -0.04 0.076 -0.02 -0.008 0.033 -0.08zm-1.921 0.275l0.029 0 0 0.123 0.149 0 0 -0.123 0.029 0 0 0.294 -0.029 0 0 -0.142 -0.149 0 0 0.142 -0.029 0 0 -0.294zm0.256 0.001l0.033 0 0.089 0.2 0.081 -0.2 0.032 0 -0.111 0.264c-0.01,0.025 -0.029,0.037 -0.055,0.037 -0.011,0 -0.021,-0.002 -0.03,-0.006 -0.009,-0.004 -0.021,-0.015 -0.036,-0.031l0.021 -0.018c0.015,0.015 0.024,0.023 0.029,0.025 0.005,0.002 0.01,0.003 0.015,0.003 0.008,0 0.014,-0.002 0.02,-0.006 0.006,-0.004 0.012,-0.014 0.018,-0.031l-0.107 -0.236zm0.284 -0.001l0.029 0 0 0.123 0.149 0 0 -0.123 0.029 0 0 0.294 -0.029 0 0 -0.142 -0.149 0 0 0.142 -0.029 0 0 -0.294zm0.398 0l0.136 0.294 -0.031 0 -0.046 -0.097 -0.127 0 -0.045 0.097 -0.033 0 0.138 -0.294 0.007 0zm-0.004 0.062l-0.05 0.107 0.1 0 -0.05 -0.107zm0.191 -0.033c0.021,-0.024 0.046,-0.036 0.076,-0.036 0.024,0 0.044,0.007 0.059,0.021 0.016,0.014 0.023,0.032 0.023,0.054 0,0.031 -0.015,0.054 -0.044,0.067 0.038,0.012 0.058,0.038 0.058,0.078 0,0.027 -0.009,0.048 -0.026,0.064 -0.017,0.016 -0.041,0.024 -0.071,0.024 -0.021,0 -0.039,-0.004 -0.055,-0.013 -0.015,-0.009 -0.03,-0.024 -0.044,-0.046l0.023 -0.013c0.014,0.02 0.026,0.033 0.038,0.038 0.012,0.006 0.024,0.009 0.037,0.009 0.019,0 0.034,-0.005 0.047,-0.016 0.013,-0.011 0.02,-0.027 0.02,-0.048 0,-0.011 -0.002,-0.021 -0.007,-0.029 -0.004,-0.008 -0.011,-0.015 -0.019,-0.02 -0.008,-0.005 -0.016,-0.008 -0.023,-0.01 -0.007,-0.001 -0.019,-0.002 -0.036,-0.002l-0.005 0 0 -0.026 0.01 0c0.043,0 0.065,-0.018 0.065,-0.053 0,-0.016 -0.005,-0.029 -0.015,-0.039 -0.01,-0.01 -0.022,-0.014 -0.038,-0.014 -0.02,0 -0.038,0.009 -0.055,0.027l-0.02 -0.018zm0.231 -0.029l0.167 0 0 0.029 -0.138 0 0 0.092 0.137 0 0 0.029 -0.137 0 0 0.116 0.137 0 0 0.029 -0.166 0 0 -0.294zm0.56 0.294l-0.03 0 0 -0.226 -0.193 0.226 -0.007 0 0 -0.294 0.029 0 0 0.229 0.194 -0.229 0.007 0 0 0.294zm0.077 -0.265c0.021,-0.024 0.046,-0.036 0.076,-0.036 0.024,0 0.044,0.007 0.059,0.021 0.016,0.014 0.023,0.032 0.023,0.054 0,0.031 -0.015,0.054 -0.044,0.067 0.038,0.012 0.058,0.038 0.058,0.078 0,0.027 -0.009,0.048 -0.026,0.064 -0.017,0.016 -0.041,0.024 -0.071,0.024 -0.021,0 -0.039,-0.004 -0.055,-0.013 -0.015,-0.009 -0.03,-0.024 -0.044,-0.046l0.023 -0.013c0.014,0.02 0.026,0.033 0.038,0.038 0.012,0.006 0.024,0.009 0.037,0.009 0.019,0 0.034,-0.005 0.047,-0.016 0.013,-0.011 0.02,-0.027 0.02,-0.048 0,-0.011 -0.002,-0.021 -0.007,-0.029 -0.004,-0.008 -0.011,-0.015 -0.019,-0.02 -0.008,-0.005 -0.016,-0.008 -0.023,-0.01 -0.007,-0.001 -0.019,-0.002 -0.036,-0.002l-0.005 0 0 -0.026 0.01 0c0.043,0 0.065,-0.018 0.065,-0.053 0,-0.016 -0.005,-0.029 -0.015,-0.039 -0.01,-0.01 -0.022,-0.014 -0.038,-0.014 -0.02,0 -0.038,0.009 -0.055,0.027l-0.02 -0.018zm0.231 -0.029l0.167 0 0 0.029 -0.138 0 0 0.092 0.137 0 0 0.029 -0.137 0 0 0.116 0.137 0 0 0.029 -0.166 0 0 -0.294zm0.244 0.25c0.007,0 0.012,0.002 0.017,0.007 0.005,0.005 0.007,0.011 0.007,0.018 0,0.007 -0.002,0.013 -0.007,0.017 -0.005,0.005 -0.01,0.007 -0.017,0.007 -0.007,0 -0.012,-0.002 -0.017,-0.007 -0.005,-0.005 -0.007,-0.011 -0.007,-0.017 0,-0.007 0.002,-0.013 0.007,-0.018 0.005,-0.005 0.011,-0.007 0.017,-0.007z"/>
 </g>
</svg>
