<?xml version="1.0" encoding="UTF-8"?>
<!DOCTYPE svg PUBLIC "-//W3C//DTD SVG 1.1//EN" "http://www.w3.org/Graphics/SVG/1.1/DTD/svg11.dtd">
<!-- Creator: CorelDRAW 2019 (64-Bit) -->
<svg xmlns="http://www.w3.org/2000/svg" xml:space="preserve" width="2.11666cm" height="0.54506cm" version="1.1" style="shape-rendering:geometricPrecision; text-rendering:geometricPrecision; image-rendering:optimizeQuality; fill-rule:evenodd; clip-rule:evenodd"
viewBox="0 0 4.363 1.124"
 xmlns:xlink="http://www.w3.org/1999/xlink"
 xmlns:xodm="http://www.corel.com/coreldraw/odm/2003">
 <defs>
  <style type="text/css">
   <![CDATA[
    .fil0 {fill:#706541;fill-rule:nonzero}
   ]]>
  </style>
 </defs>
 <g id="Слой_x0020_1">
  <metadata id="CorelCorpID_0Corel-Layer"/>
  <path class="fil0" d="M-0 0.099l0.264 0 0 0.369 -0.07 0 0 -0.303 -0.123 0 0 0.303 -0.071 0 0 -0.369zm0.521 -0.009c0.052,0 0.096,0.019 0.134,0.057 0.037,0.038 0.056,0.084 0.056,0.138 0,0.054 -0.018,0.099 -0.055,0.137 -0.037,0.037 -0.081,0.056 -0.134,0.056 -0.055,0 -0.101,-0.019 -0.137,-0.057 -0.036,-0.038 -0.055,-0.084 -0.055,-0.136 0,-0.035 0.009,-0.068 0.025,-0.097 0.017,-0.03 0.04,-0.053 0.07,-0.07 0.03,-0.017 0.062,-0.026 0.096,-0.026zm-0.001 0.069c-0.034,0 -0.062,0.012 -0.085,0.036 -0.023,0.024 -0.035,0.054 -0.035,0.09 0,0.041 0.014,0.073 0.043,0.097 0.023,0.019 0.048,0.028 0.078,0.028 0.033,0 0.061,-0.012 0.084,-0.036 0.023,-0.024 0.035,-0.054 0.035,-0.089 0,-0.035 -0.012,-0.065 -0.035,-0.089 -0.023,-0.024 -0.052,-0.036 -0.085,-0.036zm0.399 -0.06l0.264 0 0 0.369 -0.07 0 0 -0.303 -0.123 0 0 0.303 -0.071 0 0 -0.369zm0.521 -0.009c0.052,0 0.096,0.019 0.134,0.057 0.037,0.038 0.056,0.084 0.056,0.138 0,0.054 -0.018,0.099 -0.055,0.137 -0.037,0.037 -0.081,0.056 -0.134,0.056 -0.055,0 -0.101,-0.019 -0.137,-0.057 -0.036,-0.038 -0.055,-0.084 -0.055,-0.136 0,-0.035 0.009,-0.068 0.025,-0.097 0.017,-0.03 0.04,-0.053 0.07,-0.07 0.03,-0.017 0.062,-0.026 0.096,-0.026zm-0.001 0.069c-0.034,0 -0.062,0.012 -0.085,0.036 -0.023,0.024 -0.035,0.054 -0.035,0.09 0,0.041 0.014,0.073 0.043,0.097 0.023,0.019 0.048,0.028 0.078,0.028 0.033,0 0.061,-0.012 0.084,-0.036 0.023,-0.024 0.035,-0.054 0.035,-0.089 0,-0.035 -0.012,-0.065 -0.035,-0.089 -0.023,-0.024 -0.052,-0.036 -0.085,-0.036zm0.494 0.309l-0.102 -0.27 -0.103 0.27 -0.074 0 0.142 -0.369 0.071 0 0.141 0.369 -0.075 0zm0.186 -0.229l0.047 0c0.022,-0.056 0.05,-0.095 0.083,-0.117 0.033,-0.022 0.069,-0.032 0.106,-0.032 0.05,0 0.095,0.019 0.133,0.056 0.038,0.037 0.057,0.083 0.057,0.139 0,0.054 -0.018,0.099 -0.055,0.137 -0.037,0.037 -0.081,0.056 -0.134,0.056 -0.047,0 -0.089,-0.015 -0.127,-0.046 -0.038,-0.031 -0.059,-0.072 -0.063,-0.124l-0.047 0 0 0.161 -0.069 0 0 -0.369 0.069 0 0 0.14zm0.355 0.045c0,-0.034 -0.011,-0.063 -0.034,-0.088 -0.023,-0.025 -0.051,-0.038 -0.086,-0.038 -0.033,0 -0.061,0.012 -0.084,0.035 -0.024,0.023 -0.035,0.054 -0.035,0.091 0,0.037 0.012,0.067 0.036,0.09 0.024,0.023 0.052,0.034 0.085,0.034 0.033,0 0.061,-0.012 0.084,-0.036 0.023,-0.024 0.035,-0.054 0.035,-0.089zm0.279 0.184l0 -0.369 0.192 0 0 0.068 -0.123 0 0 0.071 0.015 0c0.031,0 0.056,0.003 0.076,0.01 0.02,0.007 0.036,0.02 0.049,0.039 0.013,0.019 0.02,0.041 0.02,0.067 0,0.026 -0.005,0.046 -0.015,0.061 -0.01,0.015 -0.023,0.028 -0.041,0.037 -0.017,0.01 -0.041,0.014 -0.072,0.014l-0.103 0zm0.069 -0.167l0 0.1 0.018 0c0.032,0 0.052,-0.004 0.061,-0.013 0.009,-0.008 0.013,-0.02 0.013,-0.034 0,-0.036 -0.026,-0.054 -0.077,-0.054l-0.015 0zm0.222 -0.202l0.2 0 0 0.069 -0.131 0 0 0.066 0.131 0 0 0.068 -0.131 0 0 0.097 0.131 0 0 0.069 -0.2 0 0 -0.369zm0.502 0.369l-0.102 -0.27 -0.103 0.27 -0.074 0 0.142 -0.369 0.071 0 0.141 0.369 -0.075 0zm0.396 -0.369l0.069 0 0 0.369 -0.069 0 0 -0.369zm-0.28 0.369l0 -0.369 0.069 0 0 0.139 0.015 0c0.029,0 0.053,0.003 0.073,0.01 0.019,0.007 0.036,0.02 0.05,0.039 0.014,0.019 0.021,0.042 0.021,0.069 0,0.025 -0.006,0.047 -0.018,0.064 -0.012,0.018 -0.026,0.03 -0.042,0.037 -0.016,0.007 -0.038,0.011 -0.066,0.011l-0.103 0zm0.069 -0.167l0 0.1 0.017 0c0.029,0 0.048,-0.004 0.058,-0.011 0.01,-0.007 0.015,-0.02 0.015,-0.037 0,-0.035 -0.025,-0.052 -0.076,-0.052l-0.014 0zm0.631 -0.202l0 0.369 -0.069 0 0 -0.231 -0.138 0.231 -0.06 0 0 -0.369 0.069 0 0 0.238 0.14 -0.238 0.058 0zm-0.234 -0.099l0.055 0c0.004,0.007 0.01,0.012 0.018,0.015 0.008,0.003 0.017,0.005 0.028,0.005 0.011,0 0.021,-0.002 0.031,-0.006 0.006,-0.003 0.011,-0.008 0.016,-0.015l0.055 0c-0.003,0.021 -0.013,0.038 -0.03,0.051 -0.017,0.013 -0.041,0.019 -0.071,0.019 -0.021,0 -0.038,-0.003 -0.052,-0.009 -0.014,-0.006 -0.025,-0.014 -0.034,-0.025 -0.008,-0.011 -0.014,-0.023 -0.016,-0.037zm-4.128 0.745l0.07 0 0 0.128 0.099 -0.128 0.084 0 -0.128 0.165 0.141 0.204 -0.083 0 -0.113 -0.164 0 0.164 -0.07 0 0 -0.369zm0.489 -0.009c0.052,0 0.096,0.019 0.134,0.057 0.037,0.038 0.056,0.084 0.056,0.138 0,0.054 -0.018,0.099 -0.055,0.137 -0.037,0.037 -0.081,0.056 -0.134,0.056 -0.055,0 -0.101,-0.019 -0.137,-0.057 -0.036,-0.038 -0.055,-0.084 -0.055,-0.136 0,-0.035 0.009,-0.068 0.025,-0.097 0.017,-0.03 0.04,-0.053 0.07,-0.07 0.03,-0.017 0.062,-0.026 0.096,-0.026zm-0.001 0.069c-0.034,0 -0.062,0.012 -0.085,0.036 -0.023,0.024 -0.035,0.054 -0.035,0.091 0,0.041 0.014,0.073 0.043,0.097 0.023,0.019 0.048,0.028 0.078,0.028 0.033,0 0.061,-0.012 0.084,-0.036 0.023,-0.024 0.035,-0.054 0.035,-0.089 0,-0.035 -0.012,-0.065 -0.035,-0.089 -0.023,-0.024 -0.052,-0.036 -0.085,-0.036zm0.292 -0.06l0.068 0 0.085 0.257 0.086 -0.257 0.067 0 0.061 0.369 -0.067 0 -0.039 -0.233 -0.078 0.233 -0.062 0 -0.077 -0.233 -0.04 0.233 -0.068 0 0.063 -0.369zm0.597 -0.009c0.052,0 0.096,0.019 0.134,0.057 0.037,0.038 0.056,0.084 0.056,0.138 0,0.054 -0.018,0.099 -0.055,0.137 -0.037,0.037 -0.081,0.056 -0.134,0.056 -0.055,0 -0.101,-0.019 -0.137,-0.057 -0.036,-0.038 -0.055,-0.084 -0.055,-0.136 0,-0.035 0.009,-0.068 0.025,-0.097 0.017,-0.03 0.04,-0.053 0.07,-0.07 0.03,-0.017 0.062,-0.026 0.096,-0.026zm-0.001 0.069c-0.034,0 -0.062,0.012 -0.085,0.036 -0.023,0.024 -0.035,0.054 -0.035,0.091 0,0.041 0.014,0.073 0.043,0.097 0.023,0.019 0.048,0.028 0.078,0.028 0.033,0 0.061,-0.012 0.084,-0.036 0.023,-0.024 0.035,-0.054 0.035,-0.089 0,-0.035 -0.012,-0.065 -0.035,-0.089 -0.023,-0.024 -0.052,-0.036 -0.085,-0.036zm0.257 -0.06l0.07 0 0 0.128 0.099 -0.128 0.084 0 -0.128 0.165 0.14 0.204 -0.083 0 -0.113 -0.164 0 0.164 -0.07 0 0 -0.369zm0.459 0l0.07 0 0 0.128 0.099 -0.128 0.084 0 -0.128 0.165 0.14 0.204 -0.083 0 -0.113 -0.164 0 0.164 -0.07 0 0 -0.369zm0.428 0l0.07 0 0.141 0.369 -0.073 0 -0.029 -0.076 -0.15 0 -0.029 0.076 -0.073 0 0.142 -0.369zm0.035 0.098l-0.05 0.127 0.099 0 -0.049 -0.127zm0.195 -0.098l0.203 0 0 0.069 -0.067 0 0 0.299 -0.071 0 0 -0.299 -0.065 0 0 -0.069zm0.517 0l0 0.369 -0.069 0 0 -0.231 -0.138 0.231 -0.06 0 0 -0.369 0.069 0 0 0.238 0.14 -0.238 0.058 0zm0.048 0l0.203 0 0 0.069 -0.067 0 0 0.299 -0.071 0 0 -0.299 -0.065 0 0 -0.069zm0.587 0.065l-0.049 0.047c-0.033,-0.035 -0.071,-0.053 -0.112,-0.053 -0.035,0 -0.065,0.012 -0.089,0.036 -0.024,0.024 -0.036,0.054 -0.036,0.089 0,0.025 0.005,0.046 0.016,0.065 0.011,0.019 0.026,0.034 0.045,0.045 0.019,0.011 0.041,0.016 0.065,0.016 0.02,0 0.039,-0.004 0.056,-0.011 0.017,-0.008 0.035,-0.022 0.055,-0.042l0.047 0.05c-0.027,0.027 -0.053,0.045 -0.077,0.055 -0.024,0.01 -0.052,0.015 -0.083,0.015 -0.057,0 -0.104,-0.018 -0.14,-0.055 -0.036,-0.036 -0.054,-0.083 -0.054,-0.14 0,-0.037 0.008,-0.069 0.025,-0.098 0.017,-0.029 0.04,-0.052 0.071,-0.069 0.031,-0.017 0.064,-0.026 0.1,-0.026 0.03,0 0.059,0.006 0.087,0.019 0.028,0.013 0.052,0.031 0.072,0.055zm0.277 -0.065l0 0.369 -0.069 0 0 -0.149 -0.017 0 -0.074 0.149 -0.076 0 0.083 -0.161c-0.048,-0.014 -0.072,-0.046 -0.072,-0.096 0,-0.018 0.003,-0.034 0.008,-0.047 0.005,-0.013 0.012,-0.025 0.022,-0.034 0.009,-0.009 0.02,-0.016 0.033,-0.021 0.012,-0.004 0.022,-0.007 0.029,-0.008 0.007,-0.001 0.028,-0.002 0.061,-0.003l0.074 0zm-0.069 0.152l0 -0.083 -0.019 0c-0.017,0 -0.03,0.001 -0.038,0.003 -0.008,0.002 -0.014,0.007 -0.019,0.014 -0.005,0.007 -0.007,0.016 -0.007,0.026 0,0.015 0.005,0.026 0.014,0.032 0.01,0.006 0.025,0.009 0.046,0.009l0.022 0zm0.182 0.145c0.011,0 0.02,0.004 0.028,0.011 0.008,0.008 0.011,0.017 0.011,0.028 0,0.011 -0.004,0.02 -0.011,0.028 -0.008,0.008 -0.017,0.012 -0.028,0.012 -0.011,0 -0.02,-0.004 -0.028,-0.012 -0.008,-0.008 -0.011,-0.017 -0.011,-0.028 0,-0.011 0.004,-0.02 0.011,-0.028 0.008,-0.008 0.017,-0.011 0.028,-0.011z"/>
 </g>
</svg>
