<?xml version="1.0" encoding="UTF-8"?>
<!DOCTYPE svg PUBLIC "-//W3C//DTD SVG 1.1//EN" "http://www.w3.org/Graphics/SVG/1.1/DTD/svg11.dtd">
<!-- Creator: CorelDRAW 2019 (64-Bit) -->
<svg xmlns="http://www.w3.org/2000/svg" xml:space="preserve" width="3.10311cm" height="0.50073cm" version="1.1" style="shape-rendering:geometricPrecision; text-rendering:geometricPrecision; image-rendering:optimizeQuality; fill-rule:evenodd; clip-rule:evenodd"
viewBox="0 0 10.713 1.729"
 xmlns:xlink="http://www.w3.org/1999/xlink"
 xmlns:xodm="http://www.corel.com/coreldraw/odm/2003">
 <defs>
  <style type="text/css">
   <![CDATA[
    .str0 {stroke:#706541;stroke-width:0.037;stroke-miterlimit:22.9256}
    .fil0 {fill:#706541;fill-rule:nonzero}
   ]]>
  </style>
 </defs>
 <g id="Слой_x0020_1">
  <metadata id="CorelCorpID_0Corel-Layer"/>
  <path class="fil0 str0" d="M0.327 0.033l0.28 0.604 -0.064 0 -0.094 -0.198 -0.26 0 -0.093 0.198 -0.067 0 0.283 -0.604 0.015 0zm-0.008 0.127l-0.103 0.22 0.206 0 -0.103 -0.22zm0.939 -0.015l-0.047 0.037c-0.026,-0.034 -0.057,-0.06 -0.094,-0.078 -0.036,-0.018 -0.077,-0.026 -0.12,-0.026 -0.048,0 -0.092,0.012 -0.133,0.035 -0.041,0.023 -0.072,0.054 -0.095,0.093 -0.022,0.039 -0.034,0.083 -0.034,0.132 0,0.074 0.025,0.135 0.075,0.184 0.05,0.049 0.113,0.074 0.19,0.074 0.084,0 0.154,-0.033 0.211,-0.099l0.047 0.036c-0.03,0.038 -0.067,0.068 -0.112,0.089 -0.045,0.021 -0.095,0.031 -0.15,0.031 -0.105,0 -0.188,-0.035 -0.248,-0.106 -0.051,-0.059 -0.076,-0.131 -0.076,-0.215 0,-0.088 0.031,-0.163 0.092,-0.223 0.062,-0.06 0.139,-0.091 0.232,-0.091 0.056,0 0.107,0.011 0.152,0.033 0.045,0.022 0.082,0.053 0.111,0.093zm0.351 -0.111l0.426 0 0 0.604 -0.06 0 0 -0.547 -0.306 0 0 0.547 -0.06 0 0 -0.604zm0.858 -0.015c0.091,0 0.167,0.031 0.228,0.092 0.061,0.061 0.092,0.136 0.092,0.225 0,0.088 -0.03,0.163 -0.092,0.225 -0.061,0.062 -0.136,0.092 -0.223,0.092 -0.089,0 -0.164,-0.031 -0.225,-0.092 -0.061,-0.061 -0.092,-0.135 -0.092,-0.222 0,-0.058 0.014,-0.112 0.042,-0.161 0.028,-0.049 0.066,-0.088 0.114,-0.116 0.048,-0.028 0.1,-0.042 0.156,-0.042zm0.003 0.059c-0.044,0 -0.086,0.012 -0.126,0.035 -0.04,0.023 -0.071,0.055 -0.093,0.094 -0.022,0.04 -0.033,0.083 -0.033,0.132 0,0.072 0.025,0.132 0.074,0.181 0.049,0.049 0.109,0.074 0.179,0.074 0.047,0 0.09,-0.011 0.129,-0.034 0.04,-0.023 0.071,-0.054 0.093,-0.093 0.022,-0.039 0.033,-0.083 0.033,-0.131 0,-0.048 -0.011,-0.091 -0.033,-0.13 -0.022,-0.039 -0.053,-0.07 -0.094,-0.093 -0.04,-0.023 -0.083,-0.035 -0.128,-0.035zm0.437 -0.044l0.06 0 0 0.253 0.306 0 0 -0.253 0.06 0 0 0.604 -0.06 0 0 -0.292 -0.306 0 0 0.292 -0.06 0 0 -0.604zm0.571 0l0.06 0 0 0.253 0.306 0 0 -0.253 0.06 0 0 0.604 -0.06 0 0 -0.292 -0.306 0 0 0.292 -0.06 0 0 -0.604zm0.817 0l0.28 0.604 -0.064 0 -0.094 -0.198 -0.26 0 -0.093 0.198 -0.067 0 0.283 -0.604 0.015 0zm-0.008 0.127l-0.103 0.22 0.206 0 -0.103 -0.22zm0.392 -0.068c0.042,-0.049 0.094,-0.074 0.156,-0.074 0.049,0 0.09,0.014 0.122,0.043 0.032,0.028 0.048,0.065 0.048,0.111 0,0.064 -0.03,0.11 -0.09,0.138 0.079,0.025 0.119,0.078 0.119,0.16 0,0.055 -0.018,0.099 -0.053,0.132 -0.035,0.033 -0.084,0.05 -0.146,0.05 -0.043,0 -0.081,-0.009 -0.112,-0.027 -0.032,-0.018 -0.062,-0.049 -0.09,-0.094l0.046 -0.028c0.028,0.041 0.054,0.067 0.078,0.079 0.024,0.012 0.049,0.018 0.076,0.018 0.038,0 0.071,-0.011 0.097,-0.033 0.027,-0.022 0.04,-0.055 0.04,-0.098 0,-0.023 -0.005,-0.042 -0.014,-0.059 -0.009,-0.017 -0.022,-0.03 -0.039,-0.041 -0.017,-0.01 -0.032,-0.017 -0.048,-0.02 -0.015,-0.003 -0.04,-0.004 -0.074,-0.004l-0.01 0 0 -0.053 0.02 0c0.089,0 0.134,-0.036 0.134,-0.109 0,-0.034 -0.01,-0.06 -0.031,-0.08 -0.02,-0.02 -0.046,-0.03 -0.077,-0.03 -0.04,0 -0.078,0.018 -0.114,0.055l-0.041 -0.037zm0.706 -0.059l0.118 0c0.048,0 0.084,0.006 0.11,0.017 0.026,0.011 0.046,0.029 0.061,0.052 0.015,0.023 0.022,0.05 0.022,0.078 0,0.027 -0.007,0.051 -0.02,0.073 -0.013,0.022 -0.032,0.04 -0.057,0.054 0.031,0.011 0.055,0.023 0.072,0.038 0.017,0.014 0.03,0.032 0.039,0.052 0.009,0.02 0.014,0.042 0.014,0.066 0,0.049 -0.018,0.09 -0.053,0.123 -0.035,0.033 -0.082,0.05 -0.142,0.05l-0.165 0 0 -0.604zm0.059 0.059l0 0.193 0.034 0c0.042,0 0.073,-0.004 0.092,-0.012 0.02,-0.008 0.035,-0.02 0.047,-0.037 0.012,-0.017 0.017,-0.036 0.017,-0.056 0,-0.028 -0.01,-0.049 -0.029,-0.065 -0.019,-0.016 -0.05,-0.024 -0.092,-0.024l-0.07 0zm0 0.254l0 0.232 0.075 0c0.044,0 0.076,-0.004 0.097,-0.013 0.02,-0.009 0.037,-0.022 0.049,-0.041 0.012,-0.018 0.019,-0.038 0.019,-0.06 0,-0.027 -0.009,-0.05 -0.026,-0.07 -0.017,-0.02 -0.041,-0.034 -0.072,-0.041 -0.02,-0.005 -0.056,-0.007 -0.107,-0.007l-0.034 0zm0.42 -0.313l0.343 0 0 0.059 -0.283 0 0 0.189 0.281 0 0 0.059 -0.281 0 0 0.238 0.281 0 0 0.059 -0.341 0 0 -0.604zm0.446 0l0.06 0 0 0.253 0.306 0 0 -0.253 0.06 0 0 0.604 -0.06 0 0 -0.292 -0.306 0 0 0.292 -0.06 0 0 -0.604zm0.572 0l0.06 0 0 0.259 0.043 0c0.079,0 0.135,0.004 0.169,0.012 0.034,0.008 0.062,0.025 0.083,0.053 0.021,0.028 0.031,0.063 0.031,0.107 0,0.043 -0.01,0.078 -0.031,0.106 -0.02,0.028 -0.046,0.046 -0.078,0.055 -0.032,0.009 -0.085,0.013 -0.159,0.013l-0.12 0 0 -0.604zm0.06 0.545l0.064 0c0.068,0 0.112,-0.003 0.132,-0.01 0.021,-0.006 0.037,-0.018 0.049,-0.036 0.012,-0.017 0.018,-0.04 0.018,-0.067 0,-0.03 -0.008,-0.055 -0.023,-0.073 -0.015,-0.019 -0.035,-0.03 -0.058,-0.035 -0.024,-0.004 -0.067,-0.006 -0.132,-0.006l-0.051 0 0 0.227zm0.677 -0.545l0.06 0 0 0.253 0.306 0 0 -0.253 0.06 0 0 0.604 -0.06 0 0 -0.292 -0.306 0 0 0.292 -0.06 0 0 -0.604zm0.526 0.002l0.067 0 0.182 0.41 0.166 -0.412 0.066 0 -0.228 0.543c-0.021,0.051 -0.059,0.076 -0.113,0.076 -0.022,0 -0.042,-0.004 -0.062,-0.013 -0.019,-0.009 -0.044,-0.03 -0.073,-0.063l0.044 -0.036c0.03,0.03 0.05,0.047 0.06,0.051 0.01,0.004 0.02,0.006 0.031,0.006 0.016,0 0.029,-0.004 0.041,-0.013 0.012,-0.009 0.024,-0.03 0.038,-0.063l-0.219 -0.486zm1.072 0.602l-0.065 0 -0.199 -0.467 -0.203 0.467 -0.065 0 0.262 -0.604 0.013 0 0.257 0.604zm0.587 0l-0.065 0 -0.199 -0.467 -0.203 0.467 -0.065 0 0.262 -0.604 0.013 0 0.257 0.604zm0.593 -0.275l-0.283 0 0 -0.059 0.281 0c-0.005,-0.069 -0.033,-0.124 -0.085,-0.165 -0.052,-0.041 -0.109,-0.061 -0.171,-0.061 -0.09,0 -0.162,0.035 -0.215,0.104l-0.048 -0.036c0.027,-0.039 0.064,-0.07 0.11,-0.093 0.046,-0.023 0.097,-0.034 0.153,-0.034 0.092,0 0.169,0.03 0.231,0.09 0.062,0.06 0.093,0.135 0.093,0.223 0,0.089 -0.029,0.165 -0.088,0.227 -0.059,0.062 -0.137,0.093 -0.236,0.093 -0.112,0 -0.2,-0.04 -0.262,-0.12l0.048 -0.036c0.056,0.066 0.126,0.099 0.21,0.099 0.064,0 0.122,-0.019 0.172,-0.057 0.05,-0.038 0.08,-0.097 0.091,-0.176zm0.234 0.164l0.055 0.026 -0.083 0.155 -0.04 -0.017 0.068 -0.164zm-10.553 0.565l0.06 0 0 0.253 0.306 0 0 -0.253 0.06 0 0 0.604 -0.06 0 0 -0.292 -0.306 0 0 0.292 -0.06 0 0 -0.604zm0.858 -0.015c0.091,0 0.167,0.031 0.228,0.092 0.061,0.061 0.092,0.136 0.092,0.225 0,0.088 -0.03,0.163 -0.091,0.225 -0.061,0.062 -0.136,0.092 -0.223,0.092 -0.089,0 -0.164,-0.031 -0.225,-0.092 -0.061,-0.061 -0.092,-0.135 -0.092,-0.222 0,-0.058 0.014,-0.112 0.042,-0.161 0.028,-0.049 0.066,-0.088 0.114,-0.116 0.048,-0.028 0.1,-0.042 0.156,-0.042zm0.003 0.059c-0.044,0 -0.086,0.012 -0.126,0.035 -0.04,0.023 -0.071,0.055 -0.093,0.094 -0.022,0.04 -0.033,0.083 -0.033,0.132 0,0.072 0.025,0.132 0.074,0.181 0.049,0.049 0.109,0.074 0.179,0.074 0.047,0 0.09,-0.011 0.129,-0.034 0.04,-0.023 0.071,-0.054 0.093,-0.093 0.022,-0.039 0.033,-0.083 0.033,-0.131 0,-0.048 -0.011,-0.091 -0.033,-0.13 -0.022,-0.039 -0.053,-0.07 -0.094,-0.093 -0.04,-0.023 -0.083,-0.035 -0.128,-0.035zm0.497 0.503l0.257 0 0 -0.547 0.06 0 0 0.547 0.261 0 0 -0.547 0.06 0 0 0.604 -0.698 0 0 -0.604 0.06 0 0 0.547zm1.016 -0.547l0.118 0c0.048,0 0.084,0.006 0.11,0.017 0.026,0.011 0.046,0.029 0.061,0.052 0.015,0.023 0.022,0.05 0.022,0.078 0,0.027 -0.007,0.051 -0.02,0.073 -0.013,0.022 -0.032,0.04 -0.057,0.054 0.031,0.011 0.055,0.023 0.072,0.038 0.017,0.014 0.03,0.032 0.039,0.052 0.009,0.02 0.014,0.042 0.014,0.066 0,0.049 -0.018,0.09 -0.053,0.123 -0.035,0.033 -0.082,0.05 -0.142,0.05l-0.165 0 0 -0.604zm0.059 0.059l0 0.193 0.034 0c0.042,0 0.073,-0.004 0.092,-0.012 0.02,-0.008 0.035,-0.02 0.047,-0.037 0.012,-0.017 0.017,-0.036 0.017,-0.056 0,-0.028 -0.01,-0.049 -0.029,-0.065 -0.019,-0.016 -0.05,-0.024 -0.092,-0.024l-0.07 0zm0 0.254l0 0.232 0.075 0c0.044,0 0.076,-0.004 0.097,-0.013 0.02,-0.009 0.037,-0.022 0.049,-0.041 0.012,-0.018 0.019,-0.038 0.019,-0.06 0,-0.027 -0.009,-0.05 -0.026,-0.07 -0.017,-0.02 -0.041,-0.034 -0.072,-0.041 -0.02,-0.005 -0.056,-0.007 -0.107,-0.007l-0.034 0zm0.374 -0.311l0.067 0 0.182 0.41 0.166 -0.412 0.066 0 -0.228 0.543c-0.021,0.051 -0.059,0.076 -0.113,0.076 -0.022,0 -0.042,-0.004 -0.062,-0.013 -0.019,-0.009 -0.044,-0.03 -0.073,-0.063l0.044 -0.036c0.03,0.03 0.05,0.047 0.06,0.051 0.01,0.004 0.02,0.006 0.031,0.006 0.016,0 0.029,-0.004 0.041,-0.013 0.012,-0.009 0.024,-0.03 0.038,-0.063l-0.219 -0.486zm0.585 -0.002l0.12 0c0.069,0 0.115,0.003 0.139,0.009 0.034,0.009 0.062,0.026 0.084,0.052 0.022,0.026 0.033,0.06 0.033,0.1 0,0.04 -0.011,0.073 -0.032,0.099 -0.021,0.026 -0.05,0.044 -0.088,0.053 -0.027,0.007 -0.078,0.01 -0.153,0.01l-0.043 0 0 0.281 -0.06 0 0 -0.604zm0.06 0.059l0 0.205 0.102 0.001c0.041,0 0.071,-0.004 0.09,-0.011 0.019,-0.008 0.034,-0.02 0.045,-0.036 0.011,-0.017 0.016,-0.036 0.016,-0.056 0,-0.02 -0.005,-0.039 -0.016,-0.056 -0.011,-0.017 -0.025,-0.029 -0.043,-0.036 -0.018,-0.007 -0.047,-0.011 -0.088,-0.011l-0.106 0zm0.434 -0.059l0.06 0 0 0.259 0.043 0c0.079,0 0.135,0.004 0.169,0.012 0.034,0.008 0.062,0.025 0.083,0.053 0.021,0.028 0.031,0.063 0.031,0.107 0,0.043 -0.01,0.078 -0.031,0.106 -0.02,0.028 -0.046,0.046 -0.078,0.055 -0.032,0.009 -0.085,0.013 -0.159,0.013l-0.12 0 0 -0.604zm0.06 0.545l0.064 0c0.068,0 0.112,-0.003 0.132,-0.01 0.02,-0.006 0.037,-0.018 0.049,-0.036 0.012,-0.017 0.018,-0.04 0.018,-0.067 0,-0.03 -0.008,-0.055 -0.023,-0.073 -0.015,-0.019 -0.035,-0.03 -0.058,-0.035 -0.024,-0.004 -0.067,-0.006 -0.132,-0.006l-0.051 0 0 0.227zm0.397 -0.545l0.06 0 0 0.604 -0.06 0 0 -0.604zm0.205 0l0.06 0 0 0.253 0.306 0 0 -0.253 0.06 0 0 0.604 -0.06 0 0 -0.292 -0.306 0 0 0.292 -0.06 0 0 -0.604zm0.572 0l0.06 0 0 0.259 0.043 0c0.079,0 0.135,0.004 0.169,0.012 0.034,0.008 0.062,0.025 0.083,0.053 0.021,0.028 0.031,0.063 0.031,0.107 0,0.043 -0.01,0.078 -0.031,0.106 -0.02,0.028 -0.046,0.046 -0.078,0.055 -0.032,0.009 -0.085,0.013 -0.159,0.013l-0.12 0 0 -0.604zm0.06 0.545l0.064 0c0.068,0 0.112,-0.003 0.132,-0.01 0.02,-0.006 0.037,-0.018 0.049,-0.036 0.012,-0.017 0.018,-0.04 0.018,-0.067 0,-0.03 -0.008,-0.055 -0.023,-0.073 -0.015,-0.019 -0.035,-0.03 -0.058,-0.035 -0.024,-0.004 -0.067,-0.006 -0.132,-0.006l-0.051 0 0 0.227zm0.397 -0.545l0.06 0 0 0.604 -0.06 0 0 -0.604zm0.391 0.002l0.067 0 0.182 0.41 0.166 -0.412 0.066 0 -0.228 0.543c-0.021,0.051 -0.059,0.076 -0.113,0.076 -0.022,0 -0.042,-0.004 -0.062,-0.013 -0.019,-0.009 -0.044,-0.03 -0.073,-0.063l0.044 -0.036c0.03,0.03 0.05,0.047 0.06,0.051 0.01,0.004 0.02,0.006 0.031,0.006 0.016,0 0.029,-0.004 0.041,-0.013 0.012,-0.009 0.024,-0.03 0.038,-0.063l-0.219 -0.486zm0.645 0.602l-0.06 0 0 -0.604 0.301 0 0 0.059 -0.241 0 0 0.545zm0.558 0l0 -0.604 0.301 0 0 0.059 -0.241 0 0 0.193 0.028 0c0.075,0 0.129,0.007 0.162,0.02 0.034,0.013 0.06,0.034 0.08,0.063 0.019,0.029 0.029,0.061 0.029,0.096 0,0.046 -0.017,0.086 -0.051,0.121 -0.034,0.035 -0.082,0.052 -0.143,0.052l-0.165 0zm0.06 -0.291l0 0.232 0.073 0c0.044,0 0.076,-0.004 0.096,-0.013 0.02,-0.009 0.037,-0.022 0.049,-0.04 0.012,-0.018 0.018,-0.038 0.018,-0.06 0,-0.028 -0.008,-0.052 -0.025,-0.071 -0.017,-0.019 -0.038,-0.032 -0.064,-0.039 -0.025,-0.006 -0.063,-0.009 -0.113,-0.009l-0.033 0zm0.419 -0.313l0.06 0 0 0.259 0.043 0c0.079,0 0.135,0.004 0.169,0.012 0.034,0.008 0.062,0.025 0.083,0.053 0.021,0.028 0.031,0.063 0.031,0.107 0,0.043 -0.01,0.078 -0.031,0.106 -0.02,0.028 -0.046,0.046 -0.078,0.055 -0.032,0.009 -0.085,0.013 -0.159,0.013l-0.12 0 0 -0.604zm0.06 0.545l0.064 0c0.068,0 0.112,-0.003 0.132,-0.01 0.02,-0.006 0.037,-0.018 0.049,-0.036 0.012,-0.017 0.018,-0.04 0.018,-0.067 0,-0.03 -0.008,-0.055 -0.023,-0.073 -0.015,-0.019 -0.035,-0.03 -0.058,-0.035 -0.024,-0.004 -0.067,-0.006 -0.132,-0.006l-0.051 0 0 0.227zm0.397 -0.545l0.06 0 0 0.604 -0.06 0 0 -0.604zm0.265 0.604l-0.06 0 0 -0.604 0.301 0 0 0.059 -0.241 0 0 0.545zm0.572 -0.604l0.28 0.604 -0.064 0 -0.094 -0.198 -0.26 0 -0.093 0.198 -0.067 0 0.283 -0.604 0.015 0zm-0.008 0.127l-0.103 0.22 0.206 0 -0.103 -0.22zm0.321 -0.068l0 -0.059 0.328 0 0 0.059 -0.134 0 0 0.545 -0.061 0 0 -0.545 -0.134 0zm0.415 -0.059l0.06 0 0 0.259 0.043 0c0.079,0 0.135,0.004 0.169,0.012 0.034,0.008 0.062,0.025 0.083,0.053 0.021,0.028 0.031,0.063 0.031,0.107 0,0.043 -0.01,0.078 -0.031,0.106 -0.02,0.028 -0.046,0.046 -0.078,0.055 -0.032,0.009 -0.085,0.013 -0.159,0.013l-0.12 0 0 -0.604zm0.06 0.545l0.064 0c0.068,0 0.112,-0.003 0.132,-0.01 0.02,-0.006 0.037,-0.018 0.049,-0.036 0.012,-0.017 0.018,-0.04 0.018,-0.067 0,-0.03 -0.008,-0.055 -0.023,-0.073 -0.015,-0.019 -0.035,-0.03 -0.058,-0.035 -0.024,-0.004 -0.067,-0.006 -0.132,-0.006l-0.051 0 0 0.227zm0.397 -0.545l0.06 0 0 0.604 -0.06 0 0 -0.604zm0.259 0.513c0.014,0 0.026,0.005 0.036,0.015 0.01,0.01 0.015,0.022 0.015,0.036 0,0.014 -0.005,0.026 -0.015,0.036 -0.01,0.01 -0.022,0.015 -0.036,0.015 -0.014,0 -0.026,-0.005 -0.035,-0.015 -0.01,-0.01 -0.015,-0.022 -0.015,-0.036 0,-0.014 0.005,-0.026 0.015,-0.036 0.01,-0.01 0.022,-0.015 0.035,-0.015z"/>
 </g>
</svg>
