<?xml version="1.0" encoding="UTF-8"?>
<!DOCTYPE svg PUBLIC "-//W3C//DTD SVG 1.1//EN" "http://www.w3.org/Graphics/SVG/1.1/DTD/svg11.dtd">
<!-- Creator: CorelDRAW 2019 (64-Bit) -->
<svg xmlns="http://www.w3.org/2000/svg" xml:space="preserve" width="2.11667cm" height="0.44214cm" version="1.1" style="shape-rendering:geometricPrecision; text-rendering:geometricPrecision; image-rendering:optimizeQuality; fill-rule:evenodd; clip-rule:evenodd"
viewBox="0 0 4.34 0.907"
 xmlns:xlink="http://www.w3.org/1999/xlink"
 xmlns:xodm="http://www.corel.com/coreldraw/odm/2003">
 <defs>
  <style type="text/css">
   <![CDATA[
    .fil0 {fill:#706541;fill-rule:nonzero}
   ]]>
  </style>
 </defs>
 <g id="Слой_x0020_1">
  <metadata id="CorelCorpID_0Corel-Layer"/>
  <path class="fil0" d="M0.323 0.065l-0.043 0.041c-0.029,-0.031 -0.062,-0.046 -0.098,-0.046 -0.031,0 -0.057,0.011 -0.078,0.032 -0.021,0.021 -0.032,0.047 -0.032,0.078 0,0.022 0.005,0.041 0.014,0.057 0.009,0.017 0.023,0.03 0.04,0.039 0.017,0.01 0.036,0.014 0.057,0.014 0.018,0 0.034,-0.003 0.049,-0.01 0.015,-0.007 0.031,-0.019 0.049,-0.036l0.042 0.044c-0.024,0.023 -0.046,0.04 -0.067,0.049 -0.021,0.009 -0.045,0.014 -0.072,0.014 -0.05,0 -0.091,-0.016 -0.123,-0.048 -0.032,-0.032 -0.048,-0.073 -0.048,-0.123 0,-0.032 0.007,-0.061 0.022,-0.086 0.014,-0.025 0.035,-0.045 0.062,-0.06 0.027,-0.015 0.056,-0.023 0.087,-0.023 0.026,0 0.052,0.006 0.077,0.017 0.025,0.011 0.046,0.027 0.064,0.048zm0.152 -0.057l0.062 0 0.124 0.323 -0.064 0 -0.025 -0.067 -0.132 0 -0.026 0.067 -0.064 0 0.124 -0.323zm0.031 0.086l-0.044 0.111 0.087 0 -0.043 -0.111zm0.233 -0.086l0.059 0 0.075 0.226 0.075 -0.226 0.059 0 0.054 0.323 -0.059 0 -0.034 -0.204 -0.068 0.204 -0.054 0 -0.068 -0.204 -0.035 0.204 -0.06 0 0.055 -0.323zm0.47 0l0.062 0 0.124 0.323 -0.064 0 -0.025 -0.067 -0.132 0 -0.026 0.067 -0.064 0 0.124 -0.323zm0.031 0.086l-0.044 0.111 0.087 0 -0.043 -0.111zm0.358 -0.086l0.059 0 0.075 0.226 0.075 -0.226 0.059 0 0.054 0.323 -0.059 0 -0.034 -0.204 -0.068 0.204 -0.054 0 -0.068 -0.204 -0.035 0.204 -0.06 0 0.055 -0.323zm0.47 0l0.062 0 0.124 0.323 -0.064 0 -0.025 -0.067 -0.132 0 -0.026 0.067 -0.064 0 0.124 -0.323zm0.031 0.086l-0.044 0.111 0.087 0 -0.043 -0.111zm0.41 0.237l-0.089 -0.237 -0.091 0.237 -0.065 0 0.124 -0.323 0.062 0 0.124 0.323 -0.065 0zm0.103 -0.323l0.176 0 0 0.06 -0.115 0 0 0.058 0.115 0 0 0.059 -0.115 0 0 0.085 0.115 0 0 0.06 -0.176 0 0 -0.323zm0.232 0l0.062 0 0 0.122 0.107 0 0 -0.122 0.062 0 0 0.323 -0.062 0 0 -0.142 -0.107 0 0 0.142 -0.062 0 0 -0.323zm0.305 0.323l0 -0.323 0.061 0 0 0.122 0.013 0c0.026,0 0.047,0.003 0.064,0.009 0.017,0.006 0.032,0.017 0.044,0.034 0.012,0.017 0.019,0.037 0.019,0.06 0,0.022 -0.005,0.041 -0.016,0.056 -0.011,0.015 -0.023,0.026 -0.037,0.033 -0.014,0.006 -0.033,0.01 -0.058,0.01l-0.09 0zm0.061 -0.146l0 0.088 0.015 0c0.026,0 0.043,-0.003 0.051,-0.009 0.009,-0.006 0.013,-0.017 0.013,-0.032 0,-0.031 -0.022,-0.046 -0.067,-0.046l-0.013 0zm0.194 -0.177l0.062 0 0 0.112 0.087 -0.112 0.074 0 -0.112 0.144 0.123 0.179 -0.073 0 -0.099 -0.144 0 0.144 -0.062 0 0 -0.323zm0.376 0l0.062 0 0.124 0.323 -0.064 0 -0.025 -0.067 -0.132 0 -0.026 0.067 -0.064 0 0.124 -0.323zm0.031 0.086l-0.044 0.111 0.087 0 -0.043 -0.111zm0.391 -0.086l0 0.323 -0.061 0 0 -0.131 -0.015 0 -0.065 0.131 -0.067 0 0.073 -0.141c-0.042,-0.012 -0.063,-0.04 -0.063,-0.085 0,-0.016 0.002,-0.03 0.007,-0.041 0.004,-0.012 0.011,-0.022 0.019,-0.03 0.008,-0.008 0.018,-0.014 0.029,-0.018 0.011,-0.004 0.019,-0.006 0.026,-0.007 0.006,-0.001 0.024,-0.001 0.053,-0.002l0.065 0zm-0.061 0.133l0 -0.073 -0.017 0c-0.015,0 -0.026,0.001 -0.033,0.003 -0.007,0.002 -0.012,0.006 -0.016,0.012 -0.004,0.006 -0.006,0.014 -0.006,0.023 0,0.013 0.004,0.023 0.013,0.028 0.008,0.005 0.022,0.008 0.041,0.008l0.019 0zm0.156 0.129l0.043 0.022 -0.054 0.093 -0.03 -0.014 0.041 -0.1zm-4.291 0.304l0.069 0 0.068 0.104 0.068 -0.104 0.07 0 -0.103 0.157 0.108 0.166 -0.069 0 -0.074 -0.113 -0.074 0.113 -0.07 0 0.108 -0.166 -0.102 -0.157zm0.325 0.323l0 -0.323 0.051 0c0.029,0 0.051,0.002 0.065,0.006 0.019,0.005 0.035,0.015 0.046,0.029 0.011,0.014 0.017,0.03 0.017,0.049 0,0.012 -0.003,0.024 -0.008,0.034 -0.005,0.01 -0.014,0.02 -0.025,0.028 0.019,0.009 0.034,0.021 0.043,0.035 0.009,0.014 0.013,0.03 0.013,0.049 0,0.018 -0.005,0.035 -0.014,0.05 -0.009,0.015 -0.021,0.026 -0.036,0.033 -0.015,0.007 -0.035,0.011 -0.061,0.011l-0.09 0zm0.061 -0.265l0 0.068 0.014 0c0.015,0 0.027,-0.003 0.034,-0.01 0.007,-0.006 0.011,-0.015 0.011,-0.026 0,-0.01 -0.004,-0.018 -0.01,-0.024 -0.007,-0.006 -0.018,-0.009 -0.032,-0.009l-0.016 0zm0 0.123l0 0.083 0.016 0c0.026,0 0.043,-0.003 0.052,-0.01 0.009,-0.006 0.013,-0.016 0.013,-0.028 0,-0.014 -0.005,-0.025 -0.016,-0.033 -0.011,-0.008 -0.028,-0.012 -0.052,-0.012l-0.013 0zm0.351 -0.19c0.045,0 0.085,0.017 0.117,0.05 0.033,0.033 0.049,0.074 0.049,0.121 0,0.047 -0.016,0.087 -0.048,0.12 -0.032,0.033 -0.071,0.049 -0.117,0.049 -0.048,0 -0.088,-0.017 -0.12,-0.05 -0.032,-0.034 -0.048,-0.073 -0.048,-0.12 0,-0.031 0.007,-0.059 0.022,-0.085 0.015,-0.026 0.035,-0.046 0.061,-0.062 0.026,-0.015 0.054,-0.023 0.084,-0.023zm-0.001 0.06c-0.03,0 -0.055,0.01 -0.075,0.031 -0.02,0.021 -0.03,0.047 -0.03,0.079 0,0.036 0.013,0.064 0.038,0.085 0.02,0.016 0.042,0.024 0.068,0.024 0.029,0 0.053,-0.011 0.074,-0.032 0.02,-0.021 0.031,-0.047 0.031,-0.078 0,-0.031 -0.01,-0.057 -0.031,-0.078 -0.02,-0.021 -0.045,-0.032 -0.075,-0.032zm0.521 0.004l-0.043 0.041c-0.029,-0.031 -0.062,-0.046 -0.098,-0.046 -0.031,0 -0.057,0.011 -0.078,0.032 -0.021,0.021 -0.032,0.047 -0.032,0.078 0,0.022 0.005,0.041 0.014,0.057 0.009,0.017 0.023,0.03 0.04,0.039 0.017,0.01 0.036,0.014 0.057,0.014 0.018,0 0.034,-0.003 0.049,-0.01 0.015,-0.007 0.031,-0.019 0.049,-0.036l0.042 0.044c-0.024,0.023 -0.046,0.04 -0.067,0.049 -0.021,0.009 -0.045,0.014 -0.072,0.014 -0.05,0 -0.091,-0.016 -0.123,-0.048 -0.032,-0.032 -0.048,-0.073 -0.048,-0.123 0,-0.032 0.007,-0.061 0.022,-0.086 0.014,-0.025 0.035,-0.045 0.062,-0.06 0.027,-0.015 0.056,-0.023 0.087,-0.023 0.026,0 0.052,0.006 0.077,0.017 0.025,0.011 0.046,0.027 0.064,0.048zm0.022 -0.057l0.178 0 0 0.061 -0.059 0 0 0.263 -0.062 0 0 -0.263 -0.057 0 0 -0.061zm0.344 0.323l0 -0.323 0.168 0 0 0.059 -0.107 0 0 0.063 0.013 0c0.027,0 0.049,0.003 0.067,0.009 0.017,0.006 0.032,0.017 0.043,0.034 0.011,0.017 0.017,0.036 0.017,0.059 0,0.023 -0.004,0.041 -0.013,0.054 -0.009,0.013 -0.021,0.024 -0.036,0.033 -0.015,0.008 -0.036,0.013 -0.063,0.013l-0.09 0zm0.061 -0.146l0 0.088 0.015 0c0.028,0 0.046,-0.004 0.054,-0.011 0.007,-0.007 0.011,-0.017 0.011,-0.03 0,-0.031 -0.022,-0.047 -0.067,-0.047l-0.013 0zm0.346 -0.185c0.045,0 0.085,0.017 0.117,0.05 0.033,0.033 0.049,0.074 0.049,0.121 0,0.047 -0.016,0.087 -0.048,0.12 -0.032,0.033 -0.071,0.049 -0.117,0.049 -0.048,0 -0.088,-0.017 -0.12,-0.05 -0.032,-0.034 -0.048,-0.073 -0.048,-0.12 0,-0.031 0.007,-0.059 0.022,-0.085 0.015,-0.026 0.035,-0.046 0.061,-0.062 0.026,-0.015 0.054,-0.023 0.084,-0.023zm-0.001 0.06c-0.03,0 -0.055,0.01 -0.075,0.031 -0.02,0.021 -0.03,0.047 -0.03,0.079 0,0.036 0.013,0.064 0.038,0.085 0.02,0.016 0.042,0.024 0.068,0.024 0.029,0 0.054,-0.011 0.074,-0.032 0.02,-0.021 0.031,-0.047 0.031,-0.078 0,-0.031 -0.01,-0.057 -0.031,-0.078 -0.02,-0.021 -0.045,-0.032 -0.075,-0.032zm0.434 0.271l-0.089 -0.237 -0.091 0.237 -0.065 0 0.124 -0.323 0.062 0 0.124 0.323 -0.065 0zm0.102 0l0 -0.323 0.061 0 0 0.122 0.013 0c0.026,0 0.047,0.003 0.064,0.009 0.017,0.006 0.032,0.017 0.044,0.034 0.012,0.017 0.019,0.037 0.019,0.06 0,0.022 -0.005,0.041 -0.016,0.056 -0.011,0.015 -0.023,0.026 -0.037,0.033 -0.014,0.006 -0.033,0.01 -0.058,0.01l-0.09 0zm0.061 -0.146l0 0.088 0.015 0c0.026,0 0.043,-0.003 0.051,-0.009 0.009,-0.006 0.013,-0.017 0.013,-0.032 0,-0.031 -0.022,-0.046 -0.067,-0.046l-0.013 0zm0.342 0.091l0 -0.268 0.062 0 0 0.268 0.087 0 0 -0.268 0.062 0 0 0.323 -0.36 0 0 -0.323 0.062 0 0 0.268 0.086 0zm0.436 -0.276c0.045,0 0.085,0.017 0.117,0.05 0.033,0.033 0.049,0.074 0.049,0.121 0,0.047 -0.016,0.087 -0.048,0.12 -0.032,0.033 -0.071,0.049 -0.117,0.049 -0.048,0 -0.088,-0.017 -0.12,-0.05 -0.032,-0.034 -0.048,-0.073 -0.048,-0.12 0,-0.031 0.007,-0.059 0.022,-0.085 0.015,-0.026 0.035,-0.046 0.061,-0.062 0.026,-0.015 0.054,-0.023 0.084,-0.023zm-0.001 0.06c-0.03,0 -0.055,0.01 -0.075,0.031 -0.02,0.021 -0.03,0.047 -0.03,0.079 0,0.036 0.013,0.064 0.038,0.085 0.02,0.016 0.042,0.024 0.068,0.024 0.029,0 0.053,-0.011 0.074,-0.032 0.02,-0.021 0.031,-0.047 0.031,-0.078 0,-0.031 -0.01,-0.057 -0.031,-0.078 -0.02,-0.021 -0.045,-0.032 -0.075,-0.032zm0.46 -0.052l0 0.323 -0.061 0 0 -0.203 -0.121 0.203 -0.053 0 0 -0.323 0.061 0 0 0.209 0.123 -0.209 0.051 0zm-0.205 -0.087l0.048 0c0.004,0.006 0.009,0.011 0.016,0.014 0.007,0.003 0.015,0.004 0.025,0.004 0.01,0 0.019,-0.002 0.027,-0.005 0.005,-0.002 0.01,-0.007 0.014,-0.013l0.048 0c-0.003,0.019 -0.012,0.034 -0.027,0.045 -0.015,0.011 -0.036,0.017 -0.063,0.017 -0.018,0 -0.033,-0.003 -0.045,-0.008 -0.012,-0.005 -0.022,-0.012 -0.029,-0.022 -0.007,-0.009 -0.012,-0.02 -0.014,-0.033zm0.304 0.347c0.009,0 0.018,0.003 0.024,0.01 0.007,0.007 0.01,0.015 0.01,0.024 0,0.01 -0.003,0.018 -0.01,0.024 -0.007,0.007 -0.015,0.01 -0.024,0.01 -0.009,0 -0.018,-0.003 -0.024,-0.01 -0.007,-0.007 -0.01,-0.015 -0.01,-0.024 0,-0.01 0.003,-0.018 0.01,-0.024 0.007,-0.007 0.015,-0.01 0.024,-0.01z"/>
 </g>
</svg>
