<?xml version="1.0" encoding="UTF-8"?>
<!DOCTYPE svg PUBLIC "-//W3C//DTD SVG 1.1//EN" "http://www.w3.org/Graphics/SVG/1.1/DTD/svg11.dtd">
<!-- Creator: CorelDRAW 2019 (64-Bit) -->
<svg xmlns="http://www.w3.org/2000/svg" xml:space="preserve" width="2.05611cm" height="0.50799cm" version="1.1" style="shape-rendering:geometricPrecision; text-rendering:geometricPrecision; image-rendering:optimizeQuality; fill-rule:evenodd; clip-rule:evenodd"
viewBox="0 0 1.944 0.48"
 xmlns:xlink="http://www.w3.org/1999/xlink"
 xmlns:xodm="http://www.corel.com/coreldraw/odm/2003">
 <defs>
  <style type="text/css">
   <![CDATA[
    .fil0 {fill:#9C6921;fill-rule:nonzero}
   ]]>
  </style>
 </defs>
 <g id="Слой_x0020_1">
  <metadata id="CorelCorpID_0Corel-Layer"/>
  <path class="fil0" d="M0.189 0.178c0.029,0.006 0.052,0.017 0.068,0.033 0.016,0.017 0.024,0.037 0.024,0.062 0,0.034 -0.014,0.061 -0.043,0.081 -0.028,0.02 -0.067,0.03 -0.117,0.03 -0.036,0 -0.066,-0.009 -0.088,-0.027 -0.022,-0.018 -0.033,-0.041 -0.033,-0.07 0,-0.018 0.005,-0.033 0.014,-0.045 0.01,-0.012 0.021,-0.018 0.036,-0.018 0.012,0 0.021,0.003 0.028,0.01 0.007,0.007 0.011,0.016 0.011,0.028 0,0.011 -0.003,0.02 -0.009,0.027 -0.006,0.007 -0.014,0.01 -0.024,0.01 -0.001,0 -0.002,-0 -0.004,-0 -0.002,-0 -0.003,-0 -0.005,-0 -0.003,0 -0.006,0.001 -0.008,0.003 -0.002,0.002 -0.003,0.005 -0.003,0.008 0,0.013 0.008,0.025 0.024,0.034 0.016,0.01 0.037,0.014 0.061,0.014 0.03,0 0.052,-0.008 0.068,-0.023 0.016,-0.015 0.024,-0.037 0.024,-0.065 0,-0.027 -0.007,-0.047 -0.02,-0.06 -0.014,-0.013 -0.035,-0.019 -0.064,-0.019l-0.044 0 0 -0.025 0.043 0c0.026,0 0.045,-0.006 0.058,-0.018 0.013,-0.012 0.02,-0.031 0.02,-0.056 0,-0.022 -0.005,-0.039 -0.016,-0.051 -0.011,-0.012 -0.026,-0.018 -0.045,-0.018 -0.024,0 -0.045,0.009 -0.063,0.028 -0.017,0.019 -0.029,0.044 -0.034,0.076l-0.022 0 0.005 -0.127 0.019 0 0.019 0.031c0.014,-0.011 0.027,-0.02 0.041,-0.025 0.014,-0.005 0.029,-0.008 0.045,-0.008 0.032,0 0.058,0.008 0.079,0.025 0.02,0.017 0.03,0.039 0.03,0.065 0,0.022 -0.006,0.04 -0.019,0.054 -0.012,0.014 -0.032,0.025 -0.06,0.034zm0.297 0.07c-0.038,0.005 -0.065,0.013 -0.082,0.023 -0.017,0.01 -0.026,0.025 -0.026,0.042 0,0.014 0.003,0.024 0.01,0.031 0.007,0.007 0.017,0.01 0.03,0.01 0.021,0 0.037,-0.006 0.05,-0.019 0.012,-0.013 0.018,-0.031 0.018,-0.054l0 -0.033zm0.003 0.094c-0.009,0.012 -0.022,0.022 -0.039,0.029 -0.017,0.008 -0.034,0.011 -0.052,0.011 -0.021,0 -0.038,-0.006 -0.051,-0.017 -0.013,-0.011 -0.019,-0.026 -0.019,-0.045 0,-0.024 0.012,-0.044 0.037,-0.059 0.025,-0.015 0.065,-0.027 0.121,-0.036l0 -0.036c0,-0.012 -0.005,-0.021 -0.014,-0.027 -0.009,-0.006 -0.023,-0.01 -0.04,-0.01 -0.013,0 -0.024,0.002 -0.033,0.005 -0.008,0.004 -0.013,0.008 -0.013,0.013 0,0.001 0.002,0.004 0.006,0.01 0.004,0.005 0.006,0.011 0.006,0.018 0,0.008 -0.002,0.014 -0.007,0.019 -0.005,0.005 -0.011,0.007 -0.019,0.007 -0.009,0 -0.017,-0.003 -0.022,-0.008 -0.005,-0.005 -0.008,-0.012 -0.008,-0.021 0,-0.019 0.009,-0.034 0.027,-0.046 0.018,-0.012 0.042,-0.018 0.07,-0.018 0.032,0 0.056,0.006 0.071,0.017 0.015,0.012 0.022,0.031 0.022,0.057l0 0 0 0.12c0,0.007 0.002,0.012 0.005,0.015 0.003,0.004 0.008,0.005 0.014,0.005 0.004,0 0.008,-0.001 0.012,-0.003 0.005,-0.002 0.007,-0.003 0.009,-0.003 0.002,0 0.004,0.001 0.005,0.002 0.001,0.002 0.002,0.004 0.002,0.006 0,0.007 -0.005,0.014 -0.014,0.021 -0.01,0.007 -0.021,0.01 -0.033,0.01 -0.012,0 -0.021,-0.003 -0.029,-0.01 -0.008,-0.007 -0.012,-0.016 -0.014,-0.028zm0.293 -0.161c0,-0.007 -0.001,-0.012 -0.003,-0.015 -0.002,-0.002 -0.007,-0.004 -0.014,-0.004l-0.023 -0.001 0 -0.021 0.127 0 0 0.021 -0.023 0.001c-0.007,0 -0.012,0.002 -0.014,0.004 -0.002,0.002 -0.003,0.007 -0.003,0.015l0 0.153c0,0.007 0.001,0.012 0.003,0.015 0.002,0.002 0.007,0.004 0.014,0.004l0.023 0.001 0 0.021 -0.127 0 0 -0.021 0.023 -0.001c0.007,-0 0.012,-0.002 0.014,-0.004 0.002,-0.002 0.003,-0.007 0.003,-0.015l0 -0.07 -0.106 0 0 0.07c0,0.008 0.001,0.013 0.003,0.015 0.002,0.002 0.007,0.004 0.014,0.004l0.023 0.001 0 0.021 -0.127 0 0 -0.021 0.023 -0.001c0.007,-0 0.011,-0.002 0.014,-0.004 0.002,-0.002 0.003,-0.007 0.003,-0.015l0 -0.153c0,-0.008 -0.001,-0.013 -0.003,-0.015 -0.002,-0.002 -0.007,-0.004 -0.013,-0.004l-0.023 -0.001 0 -0.021 0.127 0 0 0.021 -0.023 0.001c-0.007,0 -0.011,0.002 -0.014,0.004 -0.002,0.002 -0.003,0.007 -0.003,0.015l0 0.06 0.106 0 0 -0.06zm0.116 0.194l0 -0.021 0.023 -0.001c0.007,-0 0.012,-0.002 0.014,-0.004 0.002,-0.002 0.003,-0.007 0.003,-0.015l0 -0.153c0,-0.007 -0.001,-0.012 -0.003,-0.015 -0.002,-0.002 -0.007,-0.004 -0.014,-0.004l-0.023 -0.001 0 -0.021 0.194 0 0.004 0.083 -0.019 0c-0.004,-0.022 -0.011,-0.038 -0.021,-0.048 -0.01,-0.009 -0.026,-0.014 -0.046,-0.014 -0.011,0 -0.018,0.001 -0.021,0.003 -0.003,0.002 -0.005,0.008 -0.005,0.016l0 0.153c0,0.007 0.001,0.012 0.003,0.015 0.002,0.002 0.007,0.004 0.014,0.004l0.023 0.001 0 0.021 -0.127 0zm0.38 -0.126c-0.038,0.005 -0.065,0.013 -0.082,0.023 -0.017,0.01 -0.026,0.025 -0.026,0.042 0,0.014 0.003,0.024 0.01,0.031 0.007,0.007 0.017,0.01 0.03,0.01 0.021,0 0.037,-0.006 0.05,-0.019 0.012,-0.013 0.018,-0.031 0.018,-0.054l0 -0.033zm0.003 0.094c-0.009,0.012 -0.022,0.022 -0.039,0.029 -0.017,0.008 -0.034,0.011 -0.052,0.011 -0.021,0 -0.038,-0.006 -0.051,-0.017 -0.013,-0.011 -0.019,-0.026 -0.019,-0.045 0,-0.024 0.012,-0.044 0.037,-0.059 0.025,-0.015 0.065,-0.027 0.121,-0.036l0 -0.036c0,-0.012 -0.005,-0.021 -0.014,-0.027 -0.009,-0.006 -0.023,-0.01 -0.04,-0.01 -0.013,0 -0.024,0.002 -0.033,0.005 -0.008,0.004 -0.013,0.008 -0.013,0.013 0,0.001 0.002,0.004 0.006,0.01 0.004,0.005 0.006,0.011 0.006,0.018 0,0.008 -0.002,0.014 -0.007,0.019 -0.005,0.005 -0.011,0.007 -0.019,0.007 -0.009,0 -0.017,-0.003 -0.022,-0.008 -0.005,-0.005 -0.008,-0.012 -0.008,-0.021 0,-0.019 0.009,-0.034 0.027,-0.046 0.018,-0.012 0.042,-0.018 0.07,-0.018 0.032,0 0.056,0.006 0.071,0.017 0.015,0.012 0.022,0.031 0.022,0.057l0 0 0 0.12c0,0.007 0.002,0.012 0.005,0.015 0.003,0.004 0.008,0.005 0.014,0.005 0.004,0 0.008,-0.001 0.012,-0.003 0.005,-0.002 0.007,-0.003 0.009,-0.003 0.002,0 0.004,0.001 0.005,0.002 0.001,0.002 0.002,0.004 0.002,0.006 0,0.007 -0.005,0.014 -0.014,0.021 -0.01,0.007 -0.021,0.01 -0.033,0.01 -0.012,0 -0.021,-0.003 -0.029,-0.01 -0.008,-0.007 -0.012,-0.016 -0.014,-0.028zm0.243 0.013c0.021,0 0.036,-0.008 0.046,-0.023 0.01,-0.016 0.015,-0.04 0.015,-0.073 0,-0.034 -0.005,-0.058 -0.014,-0.074 -0.009,-0.016 -0.024,-0.023 -0.044,-0.023 -0.022,0 -0.038,0.008 -0.048,0.023 -0.01,0.015 -0.015,0.04 -0.015,0.075 0,0.034 0.005,0.059 0.015,0.074 0.01,0.015 0.025,0.023 0.046,0.023zm-0.146 0.103l0.022 -0.001c0.007,-0 0.012,-0.002 0.014,-0.004 0.002,-0.002 0.003,-0.007 0.003,-0.014l0 -0.257c0,-0.009 -0.002,-0.014 -0.005,-0.017 -0.003,-0.003 -0.01,-0.004 -0.021,-0.004l-0.006 0c0,0 -0,0 -0.001,0 -0.002,0 -0.004,0.001 -0.006,0.001l0 -0.022 0.082 -0.006 0 0.044c0.009,-0.016 0.02,-0.027 0.033,-0.035 0.012,-0.008 0.026,-0.011 0.042,-0.011 0.03,0 0.054,0.012 0.073,0.035 0.019,0.024 0.029,0.054 0.029,0.091 0,0.036 -0.01,0.066 -0.03,0.09 -0.02,0.024 -0.044,0.036 -0.074,0.036 -0.016,0 -0.029,-0.003 -0.04,-0.009 -0.011,-0.006 -0.021,-0.015 -0.031,-0.028l0 0.093c0,0.007 0.001,0.012 0.003,0.014 0.002,0.002 0.007,0.004 0.014,0.004l0.021 0.001 0 0.021 -0.124 0 0 -0.021zm0.481 -0.278c0,-0.007 -0.001,-0.012 -0.003,-0.015 -0.002,-0.002 -0.007,-0.004 -0.014,-0.004l-0.023 -0.001 0 -0.021 0.127 0 0 0.021 -0.023 0.001c-0.007,0 -0.012,0.002 -0.014,0.004 -0.002,0.002 -0.003,0.007 -0.003,0.015l0 0.153c0,0.007 0.001,0.012 0.003,0.015 0.002,0.002 0.007,0.004 0.014,0.004l0.023 0.001 0 0.021 -0.127 0 0 -0.021 0.023 -0.001c0.007,-0 0.012,-0.002 0.014,-0.004 0.002,-0.002 0.003,-0.007 0.003,-0.015l0 -0.114 -0.106 0.109 0 0.006c0,0.007 0.001,0.011 0.003,0.013 0.002,0.002 0.007,0.004 0.014,0.004l0.023 0.001 0 0.021 -0.127 0 0 -0.021 0.023 -0.001c0.007,-0 0.011,-0.002 0.014,-0.004 0.002,-0.002 0.003,-0.007 0.003,-0.015l0 -0.153c0,-0.008 -0.001,-0.013 -0.003,-0.015 -0.002,-0.002 -0.007,-0.004 -0.013,-0.004l-0.023 -0.001 0 -0.021 0.127 0 0 0.021 -0.023 0.001c-0.007,0 -0.011,0.002 -0.014,0.004 -0.002,0.002 -0.003,0.007 -0.003,0.015l0 0.116 0.106 -0.109 0 -0.007z"/>
 </g>
</svg>
