<?xml version="1.0" encoding="UTF-8"?>
<!DOCTYPE svg PUBLIC "-//W3C//DTD SVG 1.1//EN" "http://www.w3.org/Graphics/SVG/1.1/DTD/svg11.dtd">
<!-- Creator: CorelDRAW 2019 (64-Bit) -->
<svg xmlns="http://www.w3.org/2000/svg" xml:space="preserve" width="1.81458cm" height="0.508cm" version="1.1" style="shape-rendering:geometricPrecision; text-rendering:geometricPrecision; image-rendering:optimizeQuality; fill-rule:evenodd; clip-rule:evenodd"
viewBox="0 0 1.511 0.423"
 xmlns:xlink="http://www.w3.org/1999/xlink"
 xmlns:xodm="http://www.corel.com/coreldraw/odm/2003">
 <defs>
  <style type="text/css">
   <![CDATA[
    .fil0 {fill:#9C6921;fill-rule:nonzero}
   ]]>
  </style>
 </defs>
 <g id="Слой_x0020_1">
  <metadata id="CorelCorpID_0Corel-Layer"/>
  <path class="fil0" d="M0.192 0.152l0 -0.101c0,-0.008 -0.001,-0.013 -0.004,-0.016 -0.003,-0.003 -0.008,-0.005 -0.015,-0.005l-0.004 0 -0.015 0 0 -0.021 0.122 0 0 0.021 -0.021 0c-0.006,0 -0.011,0.002 -0.014,0.005 -0.003,0.003 -0.004,0.009 -0.004,0.016l0 0.101c0.022,0 0.038,-0.003 0.048,-0.01 0.01,-0.007 0.017,-0.019 0.022,-0.036 0.002,-0.008 0.004,-0.021 0.007,-0.039 0.003,-0.018 0.006,-0.031 0.009,-0.038 0.004,-0.009 0.011,-0.016 0.019,-0.021 0.008,-0.005 0.018,-0.007 0.029,-0.007 0.015,0 0.027,0.004 0.037,0.013 0.01,0.009 0.014,0.02 0.014,0.033 0,0.009 -0.003,0.016 -0.008,0.022 -0.005,0.006 -0.012,0.009 -0.021,0.009 -0.009,0 -0.016,-0.002 -0.022,-0.007 -0.006,-0.004 -0.008,-0.01 -0.008,-0.018 0,-0.006 0.002,-0.011 0.006,-0.017 0.004,-0.005 0.006,-0.009 0.006,-0.009 0,-0.002 -0.001,-0.003 -0.002,-0.004 -0.002,-0.001 -0.004,-0.001 -0.006,-0.001 -0.014,0 -0.024,0.016 -0.029,0.048 -0.001,0.006 -0.002,0.01 -0.002,0.013 -0.005,0.027 -0.01,0.046 -0.017,0.055 -0.006,0.01 -0.015,0.016 -0.027,0.02 0.019,0.003 0.034,0.008 0.045,0.017 0.011,0.009 0.019,0.022 0.024,0.039 0.003,0.011 0.006,0.026 0.009,0.045 0.005,0.031 0.013,0.047 0.025,0.047 0.006,0 0.01,-0.003 0.013,-0.008 0.003,-0.005 0.005,-0.013 0.005,-0.023l0.017 0c0,0.002 0,0.003 0,0.004 0,0.001 0,0.003 0,0.004 0,0.018 -0.004,0.032 -0.013,0.042 -0.009,0.01 -0.021,0.015 -0.037,0.015 -0.034,0 -0.054,-0.029 -0.062,-0.086 -0.001,-0.01 -0.003,-0.019 -0.003,-0.024 -0.003,-0.022 -0.009,-0.037 -0.017,-0.045 -0.008,-0.008 -0.022,-0.012 -0.041,-0.012l-0.006 0 -0.012 0 0 0.114c0,0.009 0.002,0.014 0.005,0.017 0.003,0.003 0.01,0.005 0.019,0.005l0.015 0 0 0.021 -0.122 0 0 -0.021 0.015 0c0.009,0 0.016,-0.001 0.019,-0.005 0.003,-0.003 0.005,-0.009 0.005,-0.017l0 -0.115 -0.021 0c-0.018,0 -0.03,0.004 -0.039,0.012 -0.008,0.008 -0.014,0.023 -0.018,0.045 -0.001,0.006 -0.002,0.014 -0.003,0.025 -0.007,0.056 -0.028,0.085 -0.062,0.085 -0.016,0 -0.028,-0.005 -0.037,-0.015 -0.009,-0.01 -0.013,-0.024 -0.013,-0.043 0,-0.001 0,-0.002 0,-0.003 0,-0.001 0,-0.002 0,-0.003l0.017 0c0,0.01 0.002,0.017 0.005,0.023 0.003,0.005 0.008,0.008 0.014,0.008 0.011,0 0.02,-0.016 0.025,-0.047 0.003,-0.02 0.006,-0.035 0.01,-0.045 0.005,-0.017 0.014,-0.03 0.024,-0.039 0.011,-0.009 0.026,-0.014 0.045,-0.017 -0.008,-0.002 -0.014,-0.006 -0.02,-0.011 -0.005,-0.005 -0.01,-0.011 -0.013,-0.019 -0.002,-0.004 -0.004,-0.013 -0.007,-0.026 -0.001,-0.003 -0.001,-0.004 -0.001,-0.005 -0.002,-0.01 -0.004,-0.02 -0.006,-0.029 -0.002,-0.009 -0.002,-0.014 -0.002,-0.016 0,-0.007 -0.003,-0.014 -0.008,-0.02 -0.005,-0.007 -0.011,-0.01 -0.018,-0.01 -0.003,0 -0.005,0.001 -0.007,0.001 -0.002,0.001 -0.002,0.002 -0.002,0.004 0,0 0.002,0.003 0.006,0.009 0.004,0.005 0.005,0.011 0.005,0.017 0,0.007 -0.003,0.013 -0.008,0.018 -0.005,0.004 -0.013,0.007 -0.022,0.007 -0.009,0 -0.016,-0.003 -0.022,-0.009 -0.005,-0.006 -0.008,-0.013 -0.008,-0.023 0,-0.012 0.005,-0.023 0.015,-0.032 0.01,-0.009 0.022,-0.013 0.037,-0.013 0.011,0 0.021,0.002 0.029,0.007 0.008,0.005 0.015,0.012 0.019,0.021 0.003,0.008 0.007,0.02 0.009,0.038 0.003,0.018 0.005,0.031 0.007,0.039 0.004,0.018 0.012,0.03 0.022,0.036 0.01,0.007 0.026,0.01 0.048,0.01zm0.423 0.008c0,-0.006 -0.001,-0.011 -0.003,-0.013 -0.002,-0.002 -0.006,-0.003 -0.012,-0.004l-0.021 -0.001 0 -0.019 0.111 0 0 0.019 -0.02 0.001c-0.006,0 -0.01,0.001 -0.012,0.004 -0.002,0.002 -0.003,0.006 -0.003,0.013l0 0.134c0,0.006 0.001,0.011 0.003,0.013 0.002,0.002 0.006,0.003 0.012,0.004l0.02 0.001 0 0.019 -0.111 0 0 -0.019 0.02 -0.001c0.006,-0 0.011,-0.001 0.012,-0.004 0.002,-0.002 0.003,-0.006 0.003,-0.013l0 -0.1 -0.093 0.096 0 0.005c0,0.006 0.001,0.01 0.003,0.012 0.002,0.002 0.006,0.003 0.012,0.003l0.02 0.001 0 0.019 -0.111 0 0 -0.019 0.02 -0.001c0.006,-0 0.01,-0.001 0.012,-0.003 0.002,-0.002 0.003,-0.006 0.003,-0.013l0 -0.134c0,-0.007 -0.001,-0.011 -0.003,-0.013 -0.002,-0.002 -0.006,-0.003 -0.012,-0.003l-0.021 -0.001 0 -0.019 0.111 0 0 0.019 -0.02 0.001c-0.006,0 -0.01,0.001 -0.012,0.003 -0.002,0.002 -0.003,0.006 -0.003,0.013l0 0.102 0.093 -0.096 0 -0.006zm0.223 0.153c0.018,0 0.032,-0.007 0.04,-0.021 0.009,-0.014 0.013,-0.035 0.013,-0.065 0,-0.03 -0.004,-0.051 -0.012,-0.065 -0.008,-0.014 -0.021,-0.021 -0.039,-0.021 -0.019,0 -0.034,0.007 -0.042,0.02 -0.009,0.013 -0.013,0.035 -0.013,0.066 0,0.03 0.004,0.052 0.013,0.065 0.008,0.013 0.022,0.02 0.041,0.02zm-0.129 0.091l0.019 -0.001c0.006,-0 0.01,-0.001 0.012,-0.003 0.002,-0.002 0.003,-0.006 0.003,-0.013l0 -0.225c0,-0.008 -0.001,-0.013 -0.004,-0.015 -0.003,-0.002 -0.009,-0.004 -0.019,-0.004l-0.005 0c0,0 -0,0 -0.001,0 -0.002,0 -0.004,0 -0.005,0l0 -0.019 0.072 -0.005 0 0.038c0.008,-0.014 0.018,-0.024 0.029,-0.03 0.011,-0.007 0.023,-0.01 0.037,-0.01 0.026,0 0.047,0.01 0.064,0.031 0.017,0.021 0.025,0.047 0.025,0.08 0,0.032 -0.009,0.058 -0.026,0.079 -0.017,0.021 -0.039,0.031 -0.065,0.031 -0.014,0 -0.025,-0.003 -0.035,-0.008 -0.01,-0.005 -0.019,-0.013 -0.027,-0.025l0 0.082c0,0.006 0.001,0.01 0.003,0.013 0.002,0.002 0.006,0.003 0.012,0.004l0.019 0.001 0 0.019 -0.109 0 0 -0.019zm0.395 -0.185c-0.033,0.004 -0.057,0.011 -0.072,0.02 -0.015,0.009 -0.023,0.022 -0.023,0.037 0,0.012 0.003,0.021 0.009,0.027 0.006,0.006 0.015,0.009 0.027,0.009 0.018,0 0.033,-0.006 0.044,-0.017 0.011,-0.011 0.016,-0.027 0.016,-0.047l0 -0.029zm0.003 0.083c-0.008,0.011 -0.019,0.019 -0.034,0.026 -0.015,0.007 -0.03,0.01 -0.046,0.01 -0.019,0 -0.033,-0.005 -0.045,-0.015 -0.011,-0.01 -0.017,-0.023 -0.017,-0.039 0,-0.021 0.011,-0.039 0.032,-0.052 0.022,-0.013 0.057,-0.023 0.106,-0.031l0 -0.032c0,-0.01 -0.004,-0.018 -0.012,-0.024 -0.008,-0.006 -0.02,-0.008 -0.035,-0.008 -0.012,0 -0.021,0.002 -0.029,0.005 -0.007,0.003 -0.011,0.007 -0.011,0.011 0,0.001 0.002,0.004 0.005,0.009 0.004,0.005 0.005,0.01 0.005,0.016 0,0.007 -0.002,0.012 -0.006,0.016 -0.004,0.004 -0.01,0.006 -0.017,0.006 -0.008,0 -0.015,-0.002 -0.019,-0.007 -0.005,-0.004 -0.007,-0.011 -0.007,-0.019 0,-0.016 0.008,-0.03 0.024,-0.041 0.016,-0.011 0.037,-0.016 0.062,-0.016 0.028,0 0.049,0.005 0.062,0.015 0.013,0.01 0.019,0.027 0.019,0.05l0 0 0 0.106c0,0.006 0.001,0.01 0.004,0.014 0.003,0.003 0.007,0.005 0.012,0.005 0.003,0 0.007,-0.001 0.011,-0.003 0.004,-0.002 0.007,-0.003 0.008,-0.003 0.002,0 0.003,0.001 0.004,0.002 0.001,0.001 0.002,0.003 0.002,0.005 0,0.006 -0.004,0.012 -0.013,0.018 -0.008,0.006 -0.018,0.009 -0.029,0.009 -0.01,0 -0.019,-0.003 -0.025,-0.009 -0.007,-0.006 -0.011,-0.014 -0.013,-0.024zm0.268 -0.074c0,0.029 0.004,0.051 0.011,0.065 0.007,0.014 0.018,0.021 0.034,0.021 0.016,0 0.027,-0.007 0.034,-0.02 0.007,-0.014 0.011,-0.035 0.011,-0.065 0,-0.031 -0.003,-0.053 -0.01,-0.066 -0.007,-0.013 -0.018,-0.02 -0.034,-0.02 -0.015,0 -0.027,0.007 -0.034,0.021 -0.007,0.014 -0.011,0.036 -0.011,0.065zm-0.13 -0.003c0,0.031 0.003,0.054 0.01,0.067 0.007,0.014 0.018,0.021 0.034,0.021 0.015,0 0.027,-0.007 0.034,-0.021 0.007,-0.014 0.011,-0.035 0.011,-0.065 0,-0.029 -0.004,-0.051 -0.011,-0.065 -0.007,-0.014 -0.019,-0.021 -0.034,-0.021 -0.016,0 -0.027,0.007 -0.034,0.02 -0.007,0.013 -0.011,0.034 -0.011,0.063zm0.09 0.079c-0.009,0.012 -0.017,0.02 -0.026,0.025 -0.009,0.005 -0.018,0.008 -0.03,0.008 -0.022,0 -0.041,-0.011 -0.057,-0.032 -0.016,-0.021 -0.024,-0.048 -0.024,-0.08 0,-0.031 0.007,-0.057 0.022,-0.078 0.015,-0.02 0.033,-0.031 0.055,-0.031 0.012,0 0.023,0.003 0.033,0.009 0.01,0.006 0.018,0.015 0.026,0.027l0 -0.112c0,-0.007 -0.001,-0.012 -0.004,-0.014 -0.003,-0.002 -0.01,-0.003 -0.021,-0.003l-0.007 0 -0.006 0 0 -0.017 0.077 -0.005 0 0.153c0.008,-0.012 0.016,-0.021 0.026,-0.027 0.01,-0.006 0.02,-0.009 0.032,-0.009 0.022,0 0.04,0.01 0.055,0.031 0.015,0.021 0.022,0.047 0.022,0.079 0,0.031 -0.008,0.057 -0.024,0.079 -0.016,0.021 -0.035,0.032 -0.057,0.032 -0.011,0 -0.021,-0.003 -0.029,-0.008 -0.008,-0.005 -0.017,-0.014 -0.025,-0.025l0 0.082c0,0.006 0.001,0.011 0.003,0.013 0.002,0.002 0.006,0.003 0.012,0.003l0.019 0.001 0 0.019 -0.107 0 0 -0.019 0.019 -0.001c0.006,-0 0.01,-0.001 0.012,-0.003 0.002,-0.002 0.003,-0.006 0.003,-0.013l0 -0.082z"/>
 </g>
</svg>
