<?xml version="1.0" encoding="UTF-8"?>
<!DOCTYPE svg PUBLIC "-//W3C//DTD SVG 1.1//EN" "http://www.w3.org/Graphics/SVG/1.1/DTD/svg11.dtd">
<!-- Creator: CorelDRAW 2019 (64-Bit) -->
<svg xmlns="http://www.w3.org/2000/svg" xml:space="preserve" width="16.6417mm" height="7.8229mm" version="1.1" style="shape-rendering:geometricPrecision; text-rendering:geometricPrecision; image-rendering:optimizeQuality; fill-rule:evenodd; clip-rule:evenodd"
viewBox="0 0 12.73 5.98"
 xmlns:xlink="http://www.w3.org/1999/xlink"
 xmlns:xodm="http://www.corel.com/coreldraw/odm/2003">
 <defs>
  <style type="text/css">
   <![CDATA[
    .fil1 {fill:#9C6921}
    .fil0 {fill:#9C6921;fill-rule:nonzero}
   ]]>
  </style>
 </defs>
 <g id="Слой_x0020_1">
  <metadata id="CorelCorpID_0Corel-Layer"/>
  <g id="_2187012997936">
   <path class="fil0" d="M2.79 3.26l0 -1.46c0,-0.11 -0.02,-0.19 -0.06,-0.24 -0.04,-0.05 -0.11,-0.07 -0.21,-0.07l-0.06 0 -0.22 0 0 -0.3 1.77 0 0 0.3 -0.3 0c-0.09,0 -0.16,0.02 -0.2,0.07 -0.04,0.05 -0.06,0.13 -0.06,0.24l0 1.46c0.32,0 0.55,-0.05 0.7,-0.15 0.15,-0.1 0.25,-0.27 0.31,-0.53 0.03,-0.12 0.06,-0.31 0.1,-0.57 0.04,-0.26 0.09,-0.45 0.14,-0.55 0.06,-0.13 0.16,-0.23 0.28,-0.3 0.12,-0.07 0.26,-0.11 0.43,-0.11 0.22,0 0.39,0.06 0.53,0.19 0.14,0.13 0.21,0.28 0.21,0.48 0,0.13 -0.04,0.23 -0.12,0.32 -0.08,0.08 -0.18,0.12 -0.31,0.12 -0.13,0 -0.24,-0.03 -0.32,-0.1 -0.08,-0.06 -0.12,-0.15 -0.12,-0.25 0,-0.08 0.03,-0.17 0.08,-0.25 0.05,-0.08 0.08,-0.13 0.08,-0.14 0,-0.02 -0.01,-0.04 -0.04,-0.05 -0.02,-0.01 -0.05,-0.02 -0.09,-0.02 -0.2,0 -0.34,0.23 -0.42,0.69 -0.01,0.08 -0.03,0.15 -0.03,0.19 -0.07,0.39 -0.15,0.66 -0.24,0.8 -0.09,0.14 -0.22,0.24 -0.39,0.29 0.28,0.04 0.5,0.12 0.65,0.24 0.15,0.12 0.27,0.31 0.35,0.57 0.05,0.15 0.09,0.37 0.14,0.66 0.07,0.46 0.19,0.69 0.37,0.69 0.08,0 0.15,-0.04 0.19,-0.12 0.05,-0.08 0.07,-0.19 0.08,-0.33l0.25 0c0,0.02 0,0.04 0.01,0.06 0,0.02 0,0.04 0,0.05 0,0.26 -0.06,0.46 -0.19,0.61 -0.13,0.14 -0.31,0.22 -0.54,0.22 -0.49,0 -0.79,-0.41 -0.89,-1.24 -0.02,-0.15 -0.04,-0.27 -0.05,-0.35 -0.05,-0.32 -0.13,-0.53 -0.25,-0.65 -0.12,-0.12 -0.32,-0.17 -0.6,-0.17l-0.09 0 -0.18 0 0 1.66c0,0.12 0.02,0.21 0.07,0.25 0.05,0.04 0.14,0.07 0.28,0.07l0.22 0 0 0.3 -1.77 0 0 -0.3 0.22 0c0.13,0 0.23,-0.02 0.27,-0.07 0.05,-0.04 0.07,-0.13 0.07,-0.25l0 -1.67 -0.3 0c-0.25,0 -0.44,0.06 -0.56,0.17 -0.12,0.12 -0.2,0.33 -0.25,0.65 -0.01,0.08 -0.03,0.21 -0.05,0.36 -0.11,0.82 -0.41,1.23 -0.9,1.23 -0.23,0 -0.41,-0.07 -0.53,-0.22 -0.13,-0.15 -0.19,-0.35 -0.19,-0.62 0,-0.02 0,-0.03 0,-0.05 0,-0.02 0,-0.03 0,-0.05l0.25 0c0,0.14 0.03,0.25 0.08,0.33 0.05,0.08 0.11,0.12 0.2,0.12 0.17,0 0.28,-0.23 0.36,-0.69 0.05,-0.29 0.09,-0.51 0.14,-0.66 0.08,-0.25 0.2,-0.44 0.35,-0.57 0.15,-0.12 0.37,-0.21 0.65,-0.24 -0.11,-0.04 -0.21,-0.09 -0.28,-0.16 -0.08,-0.07 -0.14,-0.17 -0.19,-0.28 -0.02,-0.06 -0.06,-0.18 -0.1,-0.37 -0.01,-0.04 -0.02,-0.06 -0.02,-0.08 -0.03,-0.15 -0.06,-0.29 -0.08,-0.43 -0.02,-0.13 -0.03,-0.21 -0.03,-0.23 0,-0.1 -0.04,-0.2 -0.11,-0.3 -0.08,-0.1 -0.16,-0.14 -0.27,-0.14 -0.04,0 -0.07,0.01 -0.1,0.02 -0.02,0.02 -0.03,0.04 -0.03,0.06 0,0.01 0.03,0.05 0.08,0.13 0.05,0.08 0.08,0.16 0.08,0.25 0,0.11 -0.04,0.19 -0.12,0.25 -0.08,0.06 -0.19,0.1 -0.32,0.1 -0.13,0 -0.24,-0.04 -0.32,-0.13 -0.08,-0.08 -0.12,-0.2 -0.12,-0.33 0,-0.18 0.07,-0.33 0.21,-0.46 0.14,-0.13 0.32,-0.19 0.54,-0.19 0.16,0 0.3,0.04 0.42,0.11 0.12,0.07 0.21,0.17 0.27,0.3 0.05,0.11 0.1,0.29 0.14,0.55 0.04,0.26 0.07,0.45 0.1,0.57 0.06,0.25 0.17,0.43 0.32,0.53 0.15,0.1 0.38,0.15 0.69,0.15z"/>
   <g>
    <path class="fil1" d="M3.67 0c0.18,0 0.33,0.15 0.33,0.33 0,0.18 -0.15,0.33 -0.33,0.33 -0.18,0 -0.33,-0.15 -0.33,-0.33 0,-0.18 0.15,-0.33 0.33,-0.33z"/>
    <path class="fil1" d="M2.56 0c0.18,0 0.33,0.15 0.33,0.33 0,0.18 -0.15,0.33 -0.33,0.33 -0.18,0 -0.33,-0.15 -0.33,-0.33 0,-0.18 0.15,-0.33 0.33,-0.33z"/>
   </g>
  </g>
  <g id="_2187012996944">
   <path class="fil0" d="M7.97 3.04c-0.28,0 -0.47,0.11 -0.6,0.32 -0.13,0.21 -0.19,0.55 -0.19,1.02 0,0.46 0.06,0.8 0.19,1.01 0.13,0.21 0.32,0.32 0.59,0.32 0.28,0 0.48,-0.11 0.61,-0.32 0.13,-0.21 0.19,-0.55 0.19,-1.02 0,-0.47 -0.06,-0.81 -0.19,-1.02 -0.13,-0.21 -0.33,-0.32 -0.6,-0.32zm0 -0.27c0.43,0 0.78,0.15 1.05,0.45 0.27,0.3 0.4,0.69 0.4,1.16 0,0.48 -0.13,0.86 -0.4,1.16 -0.27,0.29 -0.62,0.44 -1.05,0.44 -0.43,0 -0.78,-0.15 -1.05,-0.44 -0.27,-0.3 -0.41,-0.68 -0.41,-1.15 0,-0.48 0.13,-0.86 0.4,-1.16 0.27,-0.3 0.62,-0.45 1.05,-0.45z"/>
   <g>
    <path class="fil1" d="M7.45 1.75c0.14,0 0.26,0.11 0.26,0.26 0,0.14 -0.11,0.26 -0.26,0.26 -0.14,0 -0.26,-0.11 -0.26,-0.26 0,-0.14 0.11,-0.26 0.26,-0.26z"/>
    <path class="fil1" d="M8.5 1.75c0.14,0 0.26,0.11 0.26,0.26 0,0.14 -0.11,0.26 -0.26,0.26 -0.14,0 -0.26,-0.11 -0.26,-0.26 0,-0.14 0.11,-0.26 0.26,-0.26z"/>
   </g>
  </g>
  <path class="fil0" d="M9.53 5.87l0 -0.27 0.3 -0.01c0.09,-0 0.15,-0.02 0.18,-0.05 0.03,-0.03 0.04,-0.09 0.04,-0.19l0 -1.95c0,-0.09 -0.01,-0.16 -0.04,-0.19 -0.03,-0.03 -0.09,-0.05 -0.18,-0.05l-0.3 -0.01 0 -0.27 1.63 0 0 0.27 -0.3 0.01c-0.09,0 -0.15,0.02 -0.18,0.05 -0.03,0.03 -0.04,0.09 -0.04,0.19l0 0.78 0.19 0c0.19,0 0.34,-0.04 0.43,-0.11 0.1,-0.07 0.16,-0.2 0.2,-0.38 0.01,-0.05 0.02,-0.12 0.04,-0.22 0.09,-0.48 0.3,-0.73 0.62,-0.73 0.16,0 0.29,0.04 0.4,0.13 0.1,0.09 0.15,0.2 0.15,0.35 0,0.11 -0.03,0.2 -0.09,0.26 -0.06,0.06 -0.14,0.1 -0.25,0.1 -0.1,0 -0.17,-0.02 -0.22,-0.07 -0.05,-0.05 -0.08,-0.11 -0.08,-0.2 0,-0.06 0.02,-0.12 0.06,-0.17 0.04,-0.06 0.06,-0.09 0.06,-0.1 0,-0.02 -0.01,-0.03 -0.02,-0.04 -0.02,-0.01 -0.04,-0.02 -0.07,-0.02 -0.14,0 -0.25,0.17 -0.31,0.5l0 0.01 -0 0.02c-0.07,0.41 -0.21,0.66 -0.41,0.75 0.19,0.03 0.34,0.08 0.44,0.16 0.1,0.08 0.18,0.2 0.23,0.37 0.03,0.1 0.06,0.24 0.09,0.42 0.04,0.28 0.12,0.42 0.23,0.42 0.06,0 0.11,-0.03 0.14,-0.08 0.03,-0.06 0.05,-0.14 0.05,-0.26l0 -0.07 0.19 0c0,0.02 0,0.05 0,0.07 0,0.02 0,0.03 0,0.03 0,0.22 -0.05,0.39 -0.14,0.5 -0.09,0.11 -0.23,0.17 -0.42,0.17 -0.33,0 -0.54,-0.27 -0.61,-0.8 -0.01,-0.09 -0.02,-0.16 -0.03,-0.21 -0.03,-0.22 -0.09,-0.36 -0.17,-0.44 -0.08,-0.08 -0.21,-0.11 -0.4,-0.11l-0.06 0 -0.27 0 0 0.93c0,0.09 0.01,0.16 0.04,0.19 0.03,0.03 0.09,0.05 0.18,0.05l0.3 0.01 0 0.27 -1.63 0z"/>
 </g>
</svg>
