<?xml version="1.0" encoding="UTF-8"?>
<!DOCTYPE svg PUBLIC "-//W3C//DTD SVG 1.1//EN" "http://www.w3.org/Graphics/SVG/1.1/DTD/svg11.dtd">
<!-- Creator: CorelDRAW 2019 (64-Bit) -->
<svg xmlns="http://www.w3.org/2000/svg" xml:space="preserve" width="22.5935mm" height="6.0205mm" version="1.1" style="shape-rendering:geometricPrecision; text-rendering:geometricPrecision; image-rendering:optimizeQuality; fill-rule:evenodd; clip-rule:evenodd"
viewBox="0 0 23.58 6.28"
 xmlns:xlink="http://www.w3.org/1999/xlink"
 xmlns:xodm="http://www.corel.com/coreldraw/odm/2003">
 <defs>
  <style type="text/css">
   <![CDATA[
    .fil1 {fill:#9C6921}
    .fil0 {fill:#9C6921;fill-rule:nonzero}
   ]]>
  </style>
 </defs>
 <g id="Слой_x0020_1">
  <metadata id="CorelCorpID_0Corel-Layer"/>
  <path class="fil0" d="M4.59 2.95c-0.22,0 -0.38,0.09 -0.48,0.25 -0.1,0.17 -0.15,0.44 -0.15,0.81 0,0.37 0.05,0.64 0.15,0.81 0.1,0.17 0.26,0.25 0.47,0.25 0.22,0 0.38,-0.08 0.48,-0.25 0.1,-0.17 0.15,-0.44 0.15,-0.81 0,-0.37 -0.05,-0.64 -0.15,-0.81 -0.1,-0.17 -0.26,-0.25 -0.48,-0.25zm0 -0.21c0.34,0 0.62,0.12 0.83,0.36 0.21,0.24 0.32,0.55 0.32,0.92 0,0.38 -0.11,0.69 -0.32,0.92 -0.21,0.23 -0.49,0.35 -0.83,0.35 -0.34,0 -0.62,-0.12 -0.84,-0.35 -0.22,-0.24 -0.32,-0.54 -0.32,-0.92 0,-0.38 0.11,-0.69 0.32,-0.92 0.21,-0.24 0.49,-0.35 0.84,-0.35zm4.05 0.08l0 0.22 -0.24 0.01c-0.07,0 -0.12,0.02 -0.14,0.04 -0.02,0.02 -0.03,0.07 -0.03,0.15l0 1.55c0,0.07 0.01,0.13 0.03,0.15 0.02,0.02 0.07,0.04 0.14,0.04l0.24 0.01 0 0.22 -1.29 0 0 -0.22 0.24 -0.01c0.07,-0 0.12,-0.02 0.14,-0.04 0.02,-0.02 0.03,-0.07 0.03,-0.15l0 -1.75 -0.3 0c-0.26,0 -0.41,0.23 -0.44,0.7 -0.01,0.21 -0.02,0.39 -0.04,0.53 -0.04,0.38 -0.1,0.64 -0.19,0.78 -0.09,0.14 -0.23,0.21 -0.42,0.21 -0.12,0 -0.22,-0.04 -0.29,-0.11 -0.08,-0.07 -0.12,-0.16 -0.12,-0.26 0,-0.11 0.03,-0.19 0.08,-0.25 0.05,-0.06 0.13,-0.09 0.22,-0.09 0.07,0 0.13,0.02 0.17,0.07 0.05,0.04 0.07,0.1 0.07,0.16 0,0.06 -0.02,0.12 -0.07,0.17 -0.05,0.05 -0.07,0.07 -0.07,0.09 0,0.01 0.01,0.02 0.02,0.03 0.01,0.01 0.02,0.01 0.04,0.01 0.07,0 0.13,-0.03 0.17,-0.09 0.05,-0.06 0.08,-0.15 0.1,-0.27 0.04,-0.17 0.07,-0.38 0.09,-0.64 0.02,-0.26 0.04,-0.51 0.04,-0.75 0,-0.11 -0.02,-0.18 -0.05,-0.21 -0.03,-0.04 -0.1,-0.06 -0.19,-0.06l-0.2 -0.01 0 -0.22 2.24 0zm1.22 0.98l0.51 0c0.32,0 0.57,0.06 0.74,0.18 0.17,0.12 0.25,0.29 0.25,0.51 0,0.23 -0.08,0.41 -0.23,0.54 -0.16,0.12 -0.38,0.18 -0.68,0.18l-1.46 0 0 -0.22 0.24 -0.01c0.07,-0 0.12,-0.02 0.14,-0.04 0.02,-0.02 0.03,-0.07 0.03,-0.15l0 -1.55c0,-0.07 -0.01,-0.13 -0.03,-0.15 -0.02,-0.02 -0.07,-0.04 -0.14,-0.04l-0.24 -0.01 0 -0.22 1.29 0 0 0.22 -0.24 0.01c-0.07,0 -0.12,0.02 -0.14,0.04 -0.02,0.02 -0.03,0.07 -0.03,0.15l0 0.56zm0 0.22l0 0.78c0,0.08 0.01,0.13 0.04,0.15 0.02,0.02 0.07,0.04 0.14,0.04l0.2 0c0.21,0 0.36,-0.04 0.46,-0.11 0.09,-0.07 0.14,-0.19 0.14,-0.35 0,-0.19 -0.05,-0.32 -0.16,-0.4 -0.1,-0.08 -0.29,-0.12 -0.56,-0.12l-0.25 0zm1.76 1.19l0 -0.22 0.24 -0.01c0.07,-0 0.12,-0.02 0.14,-0.04 0.02,-0.02 0.03,-0.07 0.03,-0.15l0 -1.55c0,-0.08 -0.01,-0.13 -0.03,-0.15 -0.02,-0.02 -0.07,-0.04 -0.14,-0.04l-0.24 -0.01 0 -0.22 1.98 0 0.05 0.85 -0.19 0c-0.04,-0.23 -0.11,-0.39 -0.22,-0.48 -0.1,-0.09 -0.26,-0.14 -0.47,-0.14 -0.11,0 -0.18,0.01 -0.21,0.03 -0.03,0.02 -0.05,0.08 -0.05,0.16l0 1.55c0,0.08 0.01,0.13 0.03,0.15 0.02,0.02 0.07,0.04 0.14,0.04l0.24 0.01 0 0.22 -1.29 0zm4.73 0l0 -0.22 0.24 -0.01c0.07,-0 0.12,-0.02 0.14,-0.04 0.02,-0.02 0.03,-0.07 0.03,-0.15l0 -1.55c0,-0.07 -0.01,-0.13 -0.03,-0.15 -0.02,-0.02 -0.07,-0.04 -0.14,-0.04l-0.24 -0.01 0 -0.22 1.29 0 0 0.22 -0.23 0.01c-0.07,0 -0.12,0.02 -0.14,0.04 -0.02,0.02 -0.03,0.07 -0.03,0.15l0 1.55c0,0.07 0.01,0.13 0.03,0.15 0.02,0.02 0.07,0.04 0.14,0.04l0.23 0.01 0 0.22 -1.29 0zm-1.59 -1.19l0 0.78c0,0.08 0.01,0.13 0.04,0.15 0.02,0.02 0.07,0.04 0.14,0.04l0.2 0c0.21,0 0.36,-0.04 0.46,-0.11 0.09,-0.07 0.14,-0.19 0.14,-0.35 0,-0.19 -0.05,-0.32 -0.16,-0.4 -0.1,-0.08 -0.29,-0.12 -0.56,-0.12l-0.25 0zm0 -0.22l0.51 0c0.32,0 0.57,0.06 0.74,0.18 0.17,0.12 0.25,0.29 0.25,0.51 0,0.23 -0.08,0.41 -0.23,0.54 -0.16,0.12 -0.38,0.18 -0.68,0.18l-1.46 0 0 -0.22 0.24 -0.01c0.07,-0 0.12,-0.02 0.14,-0.04 0.02,-0.02 0.03,-0.07 0.03,-0.15l0 -1.55c0,-0.07 -0.01,-0.13 -0.03,-0.15 -0.02,-0.02 -0.07,-0.04 -0.14,-0.04l-0.24 -0.01 0 -0.22 1.29 0 0 0.22 -0.24 0.01c-0.07,0 -0.12,0.02 -0.14,0.04 -0.02,0.02 -0.03,0.07 -0.03,0.15l0 0.56zm4.55 1.21c0.21,0 0.37,-0.08 0.47,-0.24 0.1,-0.16 0.15,-0.41 0.15,-0.75 0,-0.34 -0.05,-0.59 -0.14,-0.75 -0.09,-0.16 -0.24,-0.24 -0.45,-0.24 -0.23,0 -0.39,0.08 -0.49,0.23 -0.1,0.15 -0.15,0.41 -0.15,0.76 0,0.35 0.05,0.6 0.15,0.75 0.1,0.16 0.26,0.23 0.47,0.23zm-1.49 1.05l0.22 -0.01c0.07,-0 0.12,-0.02 0.14,-0.04 0.02,-0.02 0.03,-0.07 0.03,-0.15l0 -2.61c0,-0.09 -0.02,-0.15 -0.05,-0.18 -0.03,-0.03 -0.11,-0.04 -0.22,-0.04l-0.06 0c0,0 -0,0 -0.01,0 -0.02,0 -0.04,0.01 -0.06,0.01l0 -0.22 0.84 -0.06 0 0.44c0.1,-0.16 0.21,-0.28 0.33,-0.35 0.13,-0.08 0.27,-0.12 0.43,-0.12 0.3,0 0.55,0.12 0.75,0.36 0.2,0.24 0.29,0.55 0.29,0.92 0,0.37 -0.1,0.67 -0.3,0.92 -0.2,0.24 -0.45,0.36 -0.75,0.36 -0.16,0 -0.29,-0.03 -0.4,-0.09 -0.11,-0.06 -0.22,-0.15 -0.31,-0.29l0 0.94c0,0.07 0.01,0.12 0.03,0.15 0.02,0.02 0.07,0.04 0.14,0.04l0.22 0.01 0 0.22 -1.26 0 0 -0.22zm4.89 -2.82c0,-0.07 -0.01,-0.13 -0.03,-0.15 -0.02,-0.02 -0.07,-0.04 -0.14,-0.04l-0.24 -0.01 0 -0.22 1.29 0 0 0.22 -0.23 0.01c-0.07,0 -0.12,0.02 -0.14,0.04 -0.02,0.02 -0.03,0.07 -0.03,0.15l0 1.55c0,0.07 0.01,0.13 0.03,0.15 0.02,0.02 0.07,0.04 0.14,0.04l0.23 0.01 0 0.22 -1.29 0 0 -0.22 0.24 -0.01c0.07,-0 0.12,-0.02 0.14,-0.04 0.02,-0.02 0.03,-0.07 0.03,-0.15l0 -1.16 -1.07 1.11 0 0.06c0,0.07 0.01,0.11 0.03,0.14 0.02,0.02 0.07,0.04 0.14,0.04l0.23 0.01 0 0.22 -1.29 0 0 -0.22 0.24 -0.01c0.07,-0 0.12,-0.02 0.14,-0.04 0.02,-0.02 0.03,-0.07 0.03,-0.15l0 -1.55c0,-0.08 -0.01,-0.13 -0.03,-0.15 -0.02,-0.02 -0.07,-0.04 -0.14,-0.04l-0.24 -0.01 0 -0.22 1.29 0 0 0.22 -0.24 0.01c-0.07,0 -0.12,0.02 -0.14,0.04 -0.02,0.02 -0.03,0.07 -0.03,0.15l0 1.18 1.07 -1.11 0 -0.07z"/>
  <g id="_2187018605664">
   <path class="fil0" d="M0.34 1.4l0.21 0 0.2 0.32c0.14,-0.11 0.28,-0.19 0.43,-0.25 0.15,-0.05 0.32,-0.08 0.49,-0.08 0.37,0 0.65,0.08 0.86,0.25 0.21,0.17 0.32,0.4 0.32,0.7 0,0.22 -0.08,0.41 -0.23,0.56 -0.15,0.15 -0.37,0.25 -0.65,0.3 0.32,0.04 0.57,0.14 0.75,0.31 0.18,0.17 0.27,0.39 0.27,0.65 0,0.35 -0.15,0.62 -0.44,0.82 -0.29,0.2 -0.69,0.31 -1.19,0.31 -0.42,0 -0.74,-0.09 -0.99,-0.26 -0.24,-0.17 -0.37,-0.4 -0.37,-0.69 0,-0.17 0.05,-0.32 0.14,-0.43 0.09,-0.11 0.21,-0.17 0.35,-0.17 0.14,0 0.25,0.04 0.33,0.11 0.08,0.07 0.12,0.17 0.12,0.3 0,0.15 -0.06,0.26 -0.19,0.32 -0.13,0.06 -0.19,0.1 -0.19,0.12 0,0.1 0.07,0.19 0.21,0.26 0.14,0.07 0.31,0.11 0.53,0.11 0.28,0 0.5,-0.07 0.67,-0.22 0.16,-0.14 0.25,-0.34 0.25,-0.58 0,-0.28 -0.07,-0.48 -0.21,-0.6 -0.14,-0.13 -0.36,-0.19 -0.67,-0.19l-0.22 0 0 -0.3 0.2 0c0.27,0 0.47,-0.06 0.61,-0.18 0.14,-0.12 0.21,-0.3 0.21,-0.54 0,-0.2 -0.05,-0.37 -0.16,-0.49 -0.11,-0.12 -0.25,-0.18 -0.44,-0.18 -0.23,0 -0.43,0.09 -0.6,0.28 -0.18,0.19 -0.29,0.43 -0.35,0.74l-0.29 0 0.05 -1.32z"/>
   <g>
    <path class="fil1" d="M0.79 0c0.19,0 0.35,0.16 0.35,0.35 0,0.19 -0.16,0.35 -0.35,0.35 -0.19,0 -0.35,-0.16 -0.35,-0.35 0,-0.19 0.16,-0.35 0.35,-0.35z"/>
    <path class="fil1" d="M2.21 0c0.19,0 0.35,0.16 0.35,0.35 0,0.19 -0.16,0.35 -0.35,0.35 -0.19,0 -0.35,-0.16 -0.35,-0.35 0,-0.19 0.16,-0.35 0.35,-0.35z"/>
   </g>
  </g>
 </g>
</svg>
